
CASCADE Topology V1, (c) Matra-Datavision
Locations 5
1
1.000000000000000 0.000000000000000 0.000000000000000 0.000000000000000 
0.000000000000000 1.000000000000000 0.000000000000000 0.000000000000000 
0.000000000000000 0.000000000000000 1.000000000000000 0.000000000000000 
1
1.000000000000000 0.000000000000000 0.000000000000000 0.000000000000000 
0.000000000000000 1.000000000000000 0.000000000000000 0.000000000000000 
0.000000000000000 0.000000000000000 1.000000000000000 0.000000000000000 
2  2 -1 0
1
1.000000000000000 0.000000000000000 0.000000000000000 0.000000000000000 
0.000000000000000 1.000000000000000 0.000000000000000 6.350000000000023 
0.000000000000000 0.000000000000000 1.000000000000000 0.000000000000000 
2  2 -1 4 -1 0
Curve2ds 38
1 0.00000000000000000 6.34999999999999964 1.00000000000000000 0.00000000000000000 
1 0.00000000000000000 7.34999999999996589 1.00000000000000000 0.00000000000000000 
1 0.00000000000000000 7.35000000000002274 1.00000000000000000 0.00000000000000000 
1 0.00000000000000000 7.34999999999996589 1.00000000000000000 0.00000000000000000 
1 0.00000000000000000 7.34999999999996589 1.00000000000000000 0.00000000000000000 
1 0.00000000000000000 7.34999999999996589 1.00000000000000000 0.00000000000000000 
1 0.00000000000000000 7.34999999999996589 1.00000000000000000 0.00000000000000000 
1 0.00000000000000000 7.34999999999996589 1.00000000000000000 0.00000000000000000 
1 0.00000000000000000 7.34999999999996589 1.00000000000000000 0.00000000000000000 
1 0.00000000000000000 7.34999999999996589 1.00000000000000000 0.00000000000000000 
1 0.00000000000000000 0.00000000000000000 1.00000000000000000 0.00000000000000000 
1 0.00000000000000000 1.00000000000000000 1.00000000000000000 0.00000000000000000 
1 0.00000000000000000 1.00000000000000000 1.00000000000000000 0.00000000000000000 
1 0.00000000000000000 0.99999999999994316 1.00000000000000000 0.00000000000000000 
1 0.00000000000000000 1.00000000000000000 1.00000000000000000 0.00000000000000000 
1 0.00000000000000000 1.00000000000000000 1.00000000000000000 0.00000000000000000 
1 0.00000000000000000 1.00000000000000000 1.00000000000000000 0.00000000000000000 
1 0.00000000000000000 0.99999999999994316 1.00000000000000000 0.00000000000000000 
1 0.00000000000000000 0.99999999999994316 1.00000000000000000 0.00000000000000000 
1 0.00000000000000000 0.99999999999994316 1.00000000000000000 0.00000000000000000 
1 4.93133181472120352 0.00000000000000000 0.00000000000000000 1.00000000000000000 
1 2.75584021266972190 0.00000000000000000 0.00000000000000000 1.00000000000000000 
1 6.28318530717958623 -0.00000000000000000 0.00000000000000000 1.00000000000000000 
1 0.00000000000000000 -0.00000000000000000 0.00000000000000000 1.00000000000000000 
1 6.28318530717958623 -0.00000000000000000 0.00000000000000000 1.00000000000000000 
1 0.00000000000000000 -0.00000000000000000 0.00000000000000000 1.00000000000000000 
1 6.28318530717958623 -0.00000000000000000 0.00000000000000000 1.00000000000000000 
1 0.00000000000000000 -0.00000000000000000 0.00000000000000000 1.00000000000000000 
1 6.28318530717958623 -0.00000000000000000 0.00000000000000000 1.00000000000000000 
1 0.00000000000000000 -0.00000000000000000 0.00000000000000000 1.00000000000000000 
1 6.28318530717958623 -0.00000000000000000 0.00000000000000000 1.00000000000000000 
1 0.00000000000000000 -0.00000000000000000 0.00000000000000000 1.00000000000000000 
1 6.28318530717958623 -0.00000000000000000 0.00000000000000000 1.00000000000000000 
1 0.00000000000000000 -0.00000000000000000 0.00000000000000000 1.00000000000000000 
1 6.28318530717958623 -0.00000000000000000 0.00000000000000000 1.00000000000000000 
1 0.00000000000000000 -0.00000000000000000 0.00000000000000000 1.00000000000000000 
1 6.28318530717958623 -0.00000000000000000 0.00000000000000000 1.00000000000000000 
1 0.00000000000000000 -0.00000000000000000 0.00000000000000000 1.00000000000000000 
Curves 58
1 -70.00000000000000000 -288.92500000000001137 -1.34543180812966057 0.00000000000000000 1.00000000000000000 0.00000000000000000 
1 199.50868054973761900 -288.92500000000001137 28.43170635649528322 0.00000000000000000 1.00000000000000000 0.00000000000000000 
1 -70.00000000000000000 -288.92500000000001137 -1.34543180812966057 0.99395165860284163 0.00000000000000000 0.10981848824610616 
1 -70.00000000000000000 -288.92500000000001137 -1.34543180812966057 0.99395165860284163 0.00000000000000000 0.10981848824610616 
1 -70.00000000000000000 -288.92500000000001137 346.12059857855831524 0.00000000000000000 1.00000000000000000 0.00000000000000000 
1 -70.00000000000000000 -288.92500000000001137 346.12059857855831524 0.00000000000000000 0.00000000000000000 -1.00000000000000000 
1 -70.00000000000000000 -288.92500000000001137 346.12059857855831524 0.00000000000000000 0.00000000000000000 -1.00000000000000000 
1 381.53038412734986196 -288.92500000000001137 104.78709601454636413 0.00000000000000000 1.00000000000000000 0.00000000000000000 
1 199.50868054973761900 -288.92500000000001137 28.43170635649528322 0.92215154186775483 0.00000000000000000 0.38682881721883444 
1 199.50868054973761900 -288.92500000000001137 28.43170635649528322 0.92215154186775483 0.00000000000000000 0.38682881721883444 
1 -35.00000000000000000 -288.92500000000001137 371.12059857855831524 -0.81373347120673500 0.00000000000000000 -0.58123819371909646 
1 269.04448817359207169 -288.92500000000001137 628.25152836982965709 -0.76355651075402320 0.00000000000000000 -0.64574101223721359 
2 0.00000000000000000 -288.92500000000001137 386.12059857855831524 0.00000000000000000 -1.00000000000000000 0.00000000000000000 0.00000000000000000 0.00000000000000000 -1.00000000000000000 1.00000000000000000 0.00000000000000000 0.00000000000000000 24.00000000000000000
1 381.53038412734986196 -288.92500000000001137 104.78709601454636413 0.46564025744838122 0.00000000000000000 0.88497409602959876 
1 269.04448817359207169 -288.92500000000001137 628.25152836982965709 -0.76355651075402320 0.00000000000000000 -0.64574101223721359 
1 636.47518181521081715 -288.92500000000001137 589.32325512504780818 -0.26311740579210879 0.00000000000000000 0.96476382123773219 
1 627.47518181521081715 -288.92500000000001137 622.32325512504780818 -0.99986325012030175 0.00000000000000000 0.01653726273803842 
2 0.00000000000000000 -288.92499999999995453 386.12059857855831524 0.00000000000000000 -1.00000000000000000 0.00000000000000000 0.00000000000000000 0.00000000000000000 -1.00000000000000000 1.00000000000000000 0.00000000000000000 0.00000000000000000 12.15000000000000036
2 0.00000000000000000 -288.92500000000001137 386.12059857855831524 0.00000000000000000 -1.00000000000000000 0.00000000000000000 0.00000000000000000 0.00000000000000000 -1.00000000000000000 1.00000000000000000 0.00000000000000000 0.00000000000000000 12.15000000000000036
2 0.00000000000000000 -288.92499999999995453 386.12059857855831524 0.00000000000000000 -1.00000000000000000 0.00000000000000000 0.00000000000000000 0.00000000000000000 -1.00000000000000000 1.00000000000000000 0.00000000000000000 0.00000000000000000 12.15000000000000036
2 -40.00000000000000000 -288.92499999999995453 29.96917068673838003 0.00000000000000000 -1.00000000000000000 0.00000000000000000 0.00000000000000000 0.00000000000000000 -1.00000000000000000 1.00000000000000000 0.00000000000000000 0.00000000000000000 6.50000000000000000
2 -10.00000000000000000 -288.92499999999995453 33.28377318160642062 0.00000000000000000 -1.00000000000000000 0.00000000000000000 0.00000000000000000 0.00000000000000000 -1.00000000000000000 1.00000000000000000 0.00000000000000000 0.00000000000000000 6.50000000000000000
2 293.04448817359207169 -288.92499999999995453 603.25152836982965709 0.00000000000000000 -1.00000000000000000 0.00000000000000000 0.00000000000000000 0.00000000000000000 -1.00000000000000000 1.00000000000000000 0.00000000000000000 0.00000000000000000 6.50000000000000000
2 406.53038412734986196 -288.92499999999995453 366.12059857855831524 0.00000000000000000 -1.00000000000000000 0.00000000000000000 0.00000000000000000 0.00000000000000000 -1.00000000000000000 1.00000000000000000 0.00000000000000000 0.00000000000000000 14.15000000000000036
2 612.47518181521081715 -288.92499999999995453 597.32325512504780818 0.00000000000000000 -1.00000000000000000 0.00000000000000000 0.00000000000000000 0.00000000000000000 -1.00000000000000000 1.00000000000000000 0.00000000000000000 0.00000000000000000 6.50000000000000000
2 326.53038412734986196 -288.92499999999995453 109.71541638156145382 0.00000000000000000 -1.00000000000000000 0.00000000000000000 0.00000000000000000 0.00000000000000000 -1.00000000000000000 1.00000000000000000 0.00000000000000000 0.00000000000000000 6.50000000000000000
2 356.53038412734986196 -288.92499999999995453 122.29996890864413217 0.00000000000000000 -1.00000000000000000 0.00000000000000000 0.00000000000000000 0.00000000000000000 -1.00000000000000000 1.00000000000000000 0.00000000000000000 0.00000000000000000 6.50000000000000000
1 -35.00000000000000000 -288.92500000000001137 371.12059857855831524 -0.81373347120673500 0.00000000000000000 -0.58123819371909646 
1 269.04448817359207169 -288.92500000000001137 628.25152836982965709 -0.76355651075402320 0.00000000000000000 -0.64574101223721359 
2 0.00000000000000000 -282.57499999999998863 386.12059857855831524 0.00000000000000000 -1.00000000000000000 0.00000000000000000 0.00000000000000000 0.00000000000000000 -1.00000000000000000 1.00000000000000000 0.00000000000000000 0.00000000000000000 24.00000000000000000
1 381.53038412734986196 -288.92500000000001137 104.78709601454636413 0.46564025744838122 0.00000000000000000 0.88497409602959876 
1 269.04448817359207169 -288.92500000000001137 628.25152836982965709 -0.76355651075402320 0.00000000000000000 -0.64574101223721359 
1 636.47518181521081715 -288.92500000000001137 589.32325512504780818 -0.26311740579210879 0.00000000000000000 0.96476382123773219 
1 627.47518181521081715 -288.92500000000001137 622.32325512504780818 -0.99986325012030175 0.00000000000000000 0.01653726273803842 
2 -40.00000000000000000 -282.57499999999998863 29.96917068673838003 0.00000000000000000 -1.00000000000000000 0.00000000000000000 0.00000000000000000 0.00000000000000000 -1.00000000000000000 1.00000000000000000 0.00000000000000000 0.00000000000000000 6.50000000000000000
2 -10.00000000000000000 -282.57499999999998863 33.28377318160642062 0.00000000000000000 -1.00000000000000000 0.00000000000000000 0.00000000000000000 0.00000000000000000 -1.00000000000000000 1.00000000000000000 0.00000000000000000 0.00000000000000000 6.50000000000000000
2 0.00000000000000000 -282.57499999999993179 386.12059857855831524 0.00000000000000000 -1.00000000000000000 0.00000000000000000 0.00000000000000000 0.00000000000000000 -1.00000000000000000 1.00000000000000000 0.00000000000000000 0.00000000000000000 12.15000000000000036
2 0.00000000000000000 -282.57499999999998863 386.12059857855831524 0.00000000000000000 -1.00000000000000000 0.00000000000000000 0.00000000000000000 0.00000000000000000 -1.00000000000000000 1.00000000000000000 0.00000000000000000 0.00000000000000000 12.15000000000000036
2 0.00000000000000000 -282.57499999999993179 386.12059857855831524 0.00000000000000000 -1.00000000000000000 0.00000000000000000 0.00000000000000000 0.00000000000000000 -1.00000000000000000 1.00000000000000000 0.00000000000000000 0.00000000000000000 12.15000000000000036
2 326.53038412734986196 -282.57499999999998863 109.71541638156145382 0.00000000000000000 -1.00000000000000000 0.00000000000000000 0.00000000000000000 0.00000000000000000 -1.00000000000000000 1.00000000000000000 0.00000000000000000 0.00000000000000000 6.50000000000000000
2 356.53038412734986196 -282.57499999999998863 122.29996890864413217 0.00000000000000000 -1.00000000000000000 0.00000000000000000 0.00000000000000000 0.00000000000000000 -1.00000000000000000 1.00000000000000000 0.00000000000000000 0.00000000000000000 6.50000000000000000
2 406.53038412734986196 -282.57499999999993179 366.12059857855831524 0.00000000000000000 -1.00000000000000000 0.00000000000000000 0.00000000000000000 0.00000000000000000 -1.00000000000000000 1.00000000000000000 0.00000000000000000 0.00000000000000000 14.15000000000000036
2 293.04448817359207169 -282.57499999999993179 603.25152836982965709 0.00000000000000000 -1.00000000000000000 0.00000000000000000 0.00000000000000000 0.00000000000000000 -1.00000000000000000 1.00000000000000000 0.00000000000000000 0.00000000000000000 6.50000000000000000
2 612.47518181521081715 -282.57499999999993179 597.32325512504780818 0.00000000000000000 -1.00000000000000000 0.00000000000000000 0.00000000000000000 0.00000000000000000 -1.00000000000000000 1.00000000000000000 0.00000000000000000 0.00000000000000000 6.50000000000000000
1 -35.00000000000000000 -288.92500000000001137 371.12059857855831524 0.00000000000000000 1.00000000000000000 0.00000000000000000 
1 636.47518181521081715 -288.92500000000001137 589.32325512504780818 0.00000000000000000 1.00000000000000000 0.00000000000000000 
1 -23.42706261170008020 -282.57499999999998863 380.90785099331264973 -0.00000000000000000 -1.00000000000000000 -0.00000000000000000 
1 9.03015339437868647 -282.57499999999998863 408.35697260118149643 -0.00000000000000000 -1.00000000000000000 -0.00000000000000000 
1 269.04448817359207169 -288.92500000000001137 628.25152836982965709 0.00000000000000000 1.00000000000000000 0.00000000000000000 
1 627.47518181521081715 -288.92500000000001137 622.32325512504780818 0.00000000000000000 1.00000000000000000 0.00000000000000000 
1 -0.00000000000000298 -281.57499999999998863 373.97059857855833798 0.00000000000000000 -1.00000000000000000 0.00000000000000000 
1 -40.00000000000000000 -281.57499999999998863 23.46917068673838003 0.00000000000000000 -1.00000000000000000 0.00000000000000000 
1 -10.00000000000000178 -281.57499999999998863 26.78377318160642417 0.00000000000000000 -1.00000000000000000 0.00000000000000000 
1 293.04448817359207169 -281.57499999999998863 596.75152836982965709 0.00000000000000000 -1.00000000000000000 0.00000000000000000 
1 406.53038412734986196 -281.57499999999998863 351.97059857855833798 0.00000000000000000 -1.00000000000000000 0.00000000000000000 
1 612.47518181521081715 -281.57499999999998863 590.82325512504780818 0.00000000000000000 -1.00000000000000000 0.00000000000000000 
1 326.53038412734986196 -281.57499999999998863 103.21541638156145382 0.00000000000000000 -1.00000000000000000 0.00000000000000000 
1 356.53038412734980511 -281.57499999999998863 115.79996890864413217 0.00000000000000000 -1.00000000000000000 0.00000000000000000 
Polygon3D 0
PolygonOnTriangulations 0
Surfaces 20
1 -70.00000000000000000 -288.92500000000001137 -1.34543180812966057 0.10981848824610616 0.00000000000000000 -0.99395165860284163 0.99395165860284163 0.00000000000000000 0.10981848824610616 0.00000000000000000 -1.00000000000000000 0.00000000000000000 
1 -70.00000000000000000 -288.92500000000001137 346.12059857855831524 -1.00000000000000000 0.00000000000000000 0.00000000000000000 0.00000000000000000 0.00000000000000000 -1.00000000000000000 -0.00000000000000000 -1.00000000000000000 -0.00000000000000000 
1 199.50868054973761900 -288.92500000000001137 28.43170635649528322 0.38682881721883444 0.00000000000000000 -0.92215154186775483 0.92215154186775483 0.00000000000000000 0.38682881721883444 0.00000000000000000 -1.00000000000000000 0.00000000000000000 
1 251.86375256469671058 -288.92499999999995453 330.77590061552439238 -0.00000000000000000 -1.00000000000000000 -0.00000000000000000 0.00000000000000000 0.00000000000000000 -1.00000000000000000 1.00000000000000000 0.00000000000000000 0.00000000000000000 
2 0.00000000000000000 -282.57499999999998863 386.12059857855831524 -0.00000000000000000 -1.00000000000000000 -0.00000000000000000 0.00000000000000000 0.00000000000000000 -1.00000000000000000 1.00000000000000000 0.00000000000000000 0.00000000000000000 24.00000000000000000
2 0.00000000000000000 -281.57499999999998863 386.12059857855831524 -0.00000000000000000 -1.00000000000000000 -0.00000000000000000 0.00000000000000000 0.00000000000000000 -1.00000000000000000 1.00000000000000000 0.00000000000000000 0.00000000000000000 12.15000000000000036
2 -40.00000000000000000 -281.57499999999998863 29.96917068673838003 -0.00000000000000000 -1.00000000000000000 -0.00000000000000000 0.00000000000000000 0.00000000000000000 -1.00000000000000000 1.00000000000000000 0.00000000000000000 0.00000000000000000 6.50000000000000000
2 -10.00000000000000000 -281.57499999999998863 33.28377318160642062 -0.00000000000000000 -1.00000000000000000 -0.00000000000000000 0.00000000000000000 0.00000000000000000 -1.00000000000000000 1.00000000000000000 0.00000000000000000 0.00000000000000000 6.50000000000000000
2 293.04448817359207169 -281.57499999999998863 603.25152836982965709 -0.00000000000000000 -1.00000000000000000 -0.00000000000000000 0.00000000000000000 0.00000000000000000 -1.00000000000000000 1.00000000000000000 0.00000000000000000 0.00000000000000000 6.50000000000000000
2 406.53038412734986196 -281.57499999999998863 366.12059857855831524 -0.00000000000000000 -1.00000000000000000 -0.00000000000000000 0.00000000000000000 0.00000000000000000 -1.00000000000000000 1.00000000000000000 0.00000000000000000 0.00000000000000000 14.15000000000000036
2 612.47518181521081715 -281.57499999999998863 597.32325512504780818 -0.00000000000000000 -1.00000000000000000 -0.00000000000000000 0.00000000000000000 0.00000000000000000 -1.00000000000000000 1.00000000000000000 0.00000000000000000 0.00000000000000000 6.50000000000000000
2 326.53038412734986196 -281.57499999999998863 109.71541638156145382 -0.00000000000000000 -1.00000000000000000 -0.00000000000000000 0.00000000000000000 0.00000000000000000 -1.00000000000000000 1.00000000000000000 0.00000000000000000 0.00000000000000000 6.50000000000000000
2 356.53038412734986196 -281.57499999999998863 122.29996890864413217 -0.00000000000000000 -1.00000000000000000 -0.00000000000000000 0.00000000000000000 0.00000000000000000 -1.00000000000000000 1.00000000000000000 0.00000000000000000 0.00000000000000000 6.50000000000000000
1 251.86375256469676742 -282.57499999999998863 330.77590061552456291 0.00000000000000000 1.00000000000000000 0.00000000000000000 0.00000000000000000 0.00000000000000000 1.00000000000000000 1.00000000000000000 0.00000000000000000 0.00000000000000000 
1 -35.00000000000000000 -288.92500000000001137 371.12059857855831524 -0.58123819371909646 0.00000000000000000 0.81373347120673500 -0.81373347120673500 0.00000000000000000 -0.58123819371909646 0.00000000000000000 -1.00000000000000000 0.00000000000000000 
1 381.53038412734986196 -288.92500000000001137 104.78709601454636413 0.88497409602959876 0.00000000000000000 -0.46564025744838122 0.46564025744838122 0.00000000000000000 0.88497409602959876 0.00000000000000000 -1.00000000000000000 0.00000000000000000 
1 269.04448817359207169 -288.92500000000001137 628.25152836982965709 -0.64574101223721359 0.00000000000000000 0.76355651075402320 -0.76355651075402320 0.00000000000000000 -0.64574101223721359 0.00000000000000000 -1.00000000000000000 0.00000000000000000 
1 269.04448817359207169 -288.92500000000001137 628.25152836982965709 -0.64574101223721359 0.00000000000000000 0.76355651075402320 -0.76355651075402320 0.00000000000000000 -0.64574101223721359 0.00000000000000000 -1.00000000000000000 0.00000000000000000 
1 636.47518181521081715 -288.92500000000001137 589.32325512504780818 0.96476382123773219 0.00000000000000000 0.26311740579210879 -0.26311740579210879 0.00000000000000000 0.96476382123773219 0.00000000000000000 -1.00000000000000000 0.00000000000000000 
1 627.47518181521081715 -288.92500000000001137 622.32325512504780818 0.01653726273803842 0.00000000000000000 0.99986325012030175 -0.99986325012030175 0.00000000000000000 0.01653726273803842 0.00000000000000000 -1.00000000000000000 0.00000000000000000 
Triangulations 0

TShapes 157
Ve
0.000000100000000
-70.000000000000000 -288.925000000000011 -1.345431808129661
0 0

0101101
*
Ve
0.000000100000000
-70.000000000000000 -282.574999999999989 -1.345431808129661
0 0

0101101
*
Ed
 0.000000100000000 1 1 0
1  1 0 0.000000000000000 6.350000000000023
0

0101000
+157 3 -156 3 *
Ve
0.000000100000000
199.508680549737619 -288.925000000000011 28.431706356495283
0 0

0101101
*
Ve
0.000000100000000
199.508680549737619 -282.574999999999989 28.431706356495283
0 0

0101101
*
Ed
 0.000000100000000 1 1 0
1  2 0 0.000000000000000 6.350000000000023
0

0101000
+154 3 -153 3 *
Ed
 0.000000100000000 1 1 0
1  3 0 0.000000000000000 271.148680337809651
0

0101000
+157 3 -154 3 *
Ed
 0.000000100000000 1 1 0
1  4 0 0.000000000000000 271.148680337809651
0

0101000
+156 5 -153 5 *
Wi

0101100
+155 0 -152 0 -151 0 +150 4 *
Fa
0  0.000000100000000 1 0

0101000
+149 0 *
Ve
0.000000100000000
-70.000000000000000 -288.925000000000011 346.120598578558315
0 0

0101101
*
Ve
0.000000100000000
-70.000000000000000 -282.574999999999989 346.120598578558315
0 0

0101101
*
Ed
 0.000000100000000 1 1 0
1  5 0 0.000000000000000 6.350000000000023
0

0101000
+147 3 -146 3 *
Ed
 0.000000100000000 1 1 0
1  6 0 0.000000000000000 347.466030386687976
0

0101000
+147 3 -157 3 *
Ed
 0.000000100000000 1 1 0
1  7 0 0.000000000000000 347.466030386687976
0

0101000
+146 5 -156 5 *
Wi

0101100
+145 0 -155 0 -144 0 +143 4 *
Fa
0  0.000000100000000 2 0

0101000
+142 0 *
Ve
0.000000100000000
381.530384127349862 -288.925000000000011 104.787096014546364
0 0

0101101
*
Ve
0.000000100000000
381.530384127349862 -282.574999999999989 104.787096014546364
0 0

0101101
*
Ed
 0.000000100000000 1 1 0
1  8 0 0.000000000000000 6.350000000000023
0

0101000
+140 3 -139 3 *
Ed
 0.000000100000000 1 1 0
1  9 0 0.000000000000000 197.388059677197674
0

0101000
+154 3 -140 3 *
Ed
 0.000000100000000 1 1 0
1  10 0 0.000000000000000 197.388059677197674
0

0101000
+153 5 -139 5 *
Wi

0101100
+152 0 -138 0 -137 0 +136 4 *
Fa
0  0.000000100000000 3 0

0101000
+135 0 *
Ve
0.000000100000000
-35.000000000000000 -288.925000000000011 371.120598578558315
0 0

0101101
*
Ed
 0.000000100000000 1 1 0
1  11 0 0.000000000000000 43.011626335213137
0

0101000
+133 3 -147 3 *
Ve
0.000000100000461
-23.427062611700006 -288.925000000000011 380.907850993313104
0 0

0101101
*
Ed
 0.000000100000000 1 1 0
1  12 0 383.038513412022326 398.195135384732282
0

0101000
+131 3 -133 3 *
Ve
0.000000100001458
9.030153394380140 -288.925000000000011 408.356972601181383
0 0

0101101
*
Ed
 0.000000100000000 1 1 0
1  13 0 2.755840212669664 4.931331814721186
2  1 5 0 2.755840212669664 4.931331814721186
0

0101000
+129 3 -131 3 *
Ve
0.000000100000000
636.475181815210817 -288.925000000000011 589.323255125047808
0 0

0101101
*
Ed
 0.000000100000000 1 1 0
1  14 0 0.000000000000000 547.514510632970769
0

0101000
+140 3 -127 3 *
Ve
0.000000100000000
269.044488173592072 -288.925000000000011 628.251528369829657
0 0

0101101
*
Ed
 0.000000100000000 1 1 0
1  15 0 0.000000000000000 340.530571237542858
0

0101000
+125 3 -129 3 *
Ve
0.000000100000000
627.475181815210817 -288.925000000000011 622.323255125047808
0 0

0101101
*
Ed
 0.000000100000000 1 1 0
1  16 0 0.000000000000000 34.205262752974143
0

0101000
+127 3 -123 3 *
Ed
 0.000000100000000 1 1 0
1  17 0 0.000000000000000 358.479715699614928
0

0101000
+123 3 -125 3 *
Wi

0101100
+144 0 +132 0 +151 0 +130 0 +137 0 +128 0 +126 0 +124 0 +122 0 +121 0 
*
Ve
0.000000100002546
-10.888399175508539 -288.925000000000011 391.511819534413007
0 0

0101101
*
Ve
0.000000100000003
-0.000000000000003 -288.924999999999955 373.970598578558338
0 0

0101101
*
Ed
 0.000000100000000 1 1 0
1  18 0 4.252641424802713 6.283185307179586
2  2 6 0 4.252641424802713 6.283185307179586
0

0101000
+119 3 -118 3 *
Ve
0.000000100002555
-3.508510041812826 -288.925000000000011 397.753004060081082
0 0

0101101
*
Ed
 0.000000100000000 1 1 0
1  19 0 3.434530602588216 4.252641424802713
2  3 6 0 3.434530602588216 4.252641424802713
0

0101000
+116 3 -119 3 *
Ed
 0.000000100000000 1 1 0
1  20 0 0.000000000000000 3.434530602588216
2  2 6 0 0.000000000000000 3.434530602588216
0

0101000
+118 3 -116 3 *
Wi

0101100
-117 0 -115 0 -114 0 *
Ve
0.000000100000000
-40.000000000000000 -288.924999999999955 23.469170686738380
0 0

0101101
*
Ed
 0.000000100000000 1 1 0
1  21 0 0.000000000000000 6.283185307179586
2  4 7 0 0.000000000000000 6.283185307179586
0

0101100
+112 3 -112 3 *
Wi

0101100
-111 0 *
Ve
0.000000100000004
-10.000000000000002 -288.924999999999955 26.783773181606424
0 0

0101101
*
Ed
 0.000000100000000 1 1 0
1  22 0 0.000000000000000 6.283185307179586
2  5 8 0 0.000000000000000 6.283185307179586
0

0101100
+109 3 -109 3 *
Wi

0101100
-108 0 *
Ve
0.000000100000000
293.044488173592072 -288.924999999999955 596.751528369829657
0 0

0101101
*
Ed
 0.000000100000000 1 1 0
1  23 0 0.000000000000000 6.283185307179586
2  6 9 0 0.000000000000000 6.283185307179586
0

0101100
+106 3 -106 3 *
Wi

0101100
-105 0 *
Ve
0.000000100000000
406.530384127349862 -288.924999999999955 351.970598578558338
0 0

0101101
*
Ed
 0.000000100000000 1 1 0
1  24 0 0.000000000000000 6.283185307179586
2  7 10 0 0.000000000000000 6.283185307179586
0

0101100
+103 3 -103 3 *
Wi

0101100
-102 0 *
Ve
0.000000100000000
612.475181815210817 -288.924999999999955 590.823255125047808
0 0

0101101
*
Ed
 0.000000100000000 1 1 0
1  25 0 0.000000000000000 6.283185307179586
2  8 11 0 0.000000000000000 6.283185307179586
0

0101100
+100 3 -100 3 *
Wi

0101100
-99 0 *
Ve
0.000000100000000
326.530384127349862 -288.924999999999955 103.215416381561454
0 0

0101101
*
Ed
 0.000000100000000 1 1 0
1  26 0 0.000000000000000 6.283185307179586
2  9 12 0 0.000000000000000 6.283185307179586
0

0101100
+97 3 -97 3 *
Wi

0101100
-96 0 *
Ve
0.000000100000057
356.530384127349805 -288.924999999999955 115.799968908644132
0 0

0101101
*
Ed
 0.000000100000000 1 1 0
1  27 0 0.000000000000000 6.283185307179586
2  10 13 0 0.000000000000000 6.283185307179586
0

0101100
+94 3 -94 3 *
Wi

0101100
-93 0 *
Fa
0  0.000000100000000 4 0

0101000
+120 0 +113 0 +110 0 +107 0 +104 0 +101 0 +98 0 +95 0 +92 0 *
Ve
0.000000100000000
-35.000000000000000 -282.574999999999989 371.120598578558315
0 0

0101101
*
Ed
 0.000000100000000 1 1 0
1  28 0 0.000000000000000 43.011626335213137
0

0101000
+90 5 -146 5 *
Ve
0.000000100000461
-23.427062611700006 -282.574999999999989 380.907850993313104
0 0

0101101
*
Ed
 0.000000100000000 1 1 0
1  29 0 383.038513412022326 398.195135384732282
0

0101000
+88 5 -90 5 *
Ve
0.000000100001458
9.030153394380140 -282.574999999999989 408.356972601181383
0 0

0101101
*
Ed
 0.000000100000000 1 1 0
1  30 0 2.755840212669664 4.931331814721186
2  11 5 0 2.755840212669664 4.931331814721186
0

0101000
+86 3 -88 3 *
Ve
0.000000100000000
636.475181815210817 -282.574999999999989 589.323255125047808
0 0

0101101
*
Ed
 0.000000100000000 1 1 0
1  31 0 0.000000000000000 547.514510632970769
0

0101000
+139 5 -84 5 *
Ve
0.000000100000000
269.044488173592072 -282.574999999999989 628.251528369829657
0 0

0101101
*
Ed
 0.000000100000000 1 1 0
1  32 0 0.000000000000000 340.530571237542858
0

0101000
+82 5 -86 5 *
Ve
0.000000100000000
627.475181815210817 -282.574999999999989 622.323255125047808
0 0

0101101
*
Ed
 0.000000100000000 1 1 0
1  33 0 0.000000000000000 34.205262752974143
0

0101000
+84 5 -80 5 *
Ed
 0.000000100000000 1 1 0
1  34 0 0.000000000000000 358.479715699614928
0

0101000
+80 5 -82 5 *
Wi

0101100
-143 4 -89 4 -150 4 -87 4 -136 4 -85 0 -83 4 -81 4 -79 4 -78 4 
*
Ve
0.000000100000000
-40.000000000000000 -282.574999999999989 23.469170686738380
0 0

0101101
*
Ed
 0.000000100000000 1 1 0
1  35 0 0.000000000000000 6.283185307179586
2  12 7 0 0.000000000000000 6.283185307179586
0

0101100
+76 3 -76 3 *
Wi

0101100
+75 0 *
Ve
0.000000100000004
-10.000000000000002 -282.574999999999989 26.783773181606424
0 0

0101101
*
Ed
 0.000000100000000 1 1 0
1  36 0 0.000000000000000 6.283185307179586
2  13 8 0 0.000000000000000 6.283185307179586
0

0101100
+73 3 -73 3 *
Wi

0101100
+72 0 *
Ve
0.000000100002546
-10.888399175508539 -282.574999999999989 391.511819534413007
0 0

0101101
*
Ve
0.000000100000003
-0.000000000000003 -282.574999999999932 373.970598578558338
0 0

0101101
*
Ed
 0.000000100000000 1 1 0
1  37 0 4.252641424802713 6.283185307179586
2  14 6 0 4.252641424802713 6.283185307179586
0

0101000
+70 3 -69 3 *
Ve
0.000000100002555
-3.508510041812826 -282.574999999999989 397.753004060081082
0 0

0101101
*
Ed
 0.000000100000000 1 1 0
1  38 0 3.434530602588216 4.252641424802713
2  15 6 0 3.434530602588216 4.252641424802713
0

0101000
+67 3 -70 3 *
Ed
 0.000000100000000 1 1 0
1  39 0 0.000000000000000 3.434530602588216
2  14 6 0 0.000000000000000 3.434530602588216
0

0101000
+69 3 -67 3 *
Wi

0101100
+68 0 +66 0 +65 0 *
Ve
0.000000100000000
326.530384127349862 -282.574999999999989 103.215416381561454
0 0

0101101
*
Ed
 0.000000100000000 1 1 0
1  40 0 0.000000000000000 6.283185307179586
2  16 12 0 0.000000000000000 6.283185307179586
0

0101100
+63 3 -63 3 *
Wi

0101100
+62 0 *
Ve
0.000000100000057
356.530384127349805 -282.574999999999989 115.799968908644132
0 0

0101101
*
Ed
 0.000000100000000 1 1 0
1  41 0 0.000000000000000 6.283185307179586
2  17 13 0 0.000000000000000 6.283185307179586
0

0101100
+60 3 -60 3 *
Wi

0101100
+59 0 *
Ve
0.000000100000000
406.530384127349862 -282.574999999999932 351.970598578558338
0 0

0101101
*
Ed
 0.000000100000000 1 1 0
1  42 0 0.000000000000000 6.283185307179586
2  18 10 0 0.000000000000000 6.283185307179586
0

0101100
+57 3 -57 3 *
Wi

0101100
+56 0 *
Ve
0.000000100000000
293.044488173592072 -282.574999999999932 596.751528369829657
0 0

0101101
*
Ed
 0.000000100000000 1 1 0
1  43 0 0.000000000000000 6.283185307179586
2  19 9 0 0.000000000000000 6.283185307179586
0

0101100
+54 3 -54 3 *
Wi

0101100
+53 0 *
Ve
0.000000100000000
612.475181815210817 -282.574999999999932 590.823255125047808
0 0

0101101
*
Ed
 0.000000100000000 1 1 0
1  44 0 0.000000000000000 6.283185307179586
2  20 11 0 0.000000000000000 6.283185307179586
0

0101100
+51 3 -51 3 *
Wi

0101100
+50 0 *
Fa
0  0.000000100000000 14 0

0101000
+77 0 +74 0 +71 0 +64 0 +61 0 +58 0 +55 0 +52 0 +49 0 *
Ed
 0.000000100000000 1 1 0
1  45 0 0.000000000000000 6.350000000000023
0

0101000
+133 3 -90 3 *
Wi

0101100
+47 0 -145 0 -132 0 +89 4 *
Fa
0  0.000000100000000 15 0

0101000
+46 0 *
Ed
 0.000000100000000 1 1 0
1  46 0 0.000000000000000 6.350000000000023
0

0101000
+127 3 -84 3 *
Wi

0101100
+138 0 -44 0 -126 0 +83 4 *
Fa
0  0.000000100000000 16 0

0101000
+43 0 *
Ed
 0.000000100000000 1 1 0
1  47 0 -0.000000000000000 6.350000000000023
2  21 5 0 -0.000000000000000 6.350000000000023
0

0101000
+88 3 -131 3 *
Wi

0101100
-130 0 -47 0 +87 4 -41 0 *
Fa
0  0.000000100000000 17 0

0101000
+40 0 *
Ed
 0.000000100000000 1 1 0
1  48 0 0.000000000000000 6.350000000000023
2  22 5 0 0.000000000000000 6.350000000000023
0

0101000
+86 3 -129 3 *
Wi

0101100
-128 0 +41 0 +85 0 -38 0 *
Fa
0  0.000000100000000 5 0

0101000
+37 0 *
Ed
 0.000000100000000 1 1 0
1  49 0 0.000000000000000 6.350000000000023
0

0101000
+125 3 -82 3 *
Wi

0101100
-124 0 +38 0 +81 4 +35 0 *
Fa
0  0.000000100000000 18 0

0101000
+34 0 *
Ed
 0.000000100000000 1 1 0
1  50 0 0.000000000000000 6.350000000000023
0

0101000
+123 3 -80 3 *
Wi

0101100
+44 0 -32 0 -122 0 +79 4 *
Fa
0  0.000000100000000 19 0

0101000
+31 0 *
Wi

0101100
+32 0 -35 0 -121 0 +78 4 *
Fa
0  0.000000100000000 20 0

0101000
+29 0 *
Ed
 0.000000100000000 1 1 0
1  51 0 0.999999999999943 7.349999999999966
3  23 24CN 6 0 0.999999999999943 7.349999999999966
0

0101000
+69 3 -118 3 *
Wi

0101100
-114 0 -115 0 -117 0 +27 0 +68 0 +66 0 +65 0 -27 0 *
Fa
0  0.000000100000000 6 0

0101000
+26 0 *
Ed
 0.000000100000000 1 1 0
1  52 0 1.000000000000000 7.349999999999966
3  25 26CN 7 0 1.000000000000000 7.349999999999966
0

0101000
+76 3 -112 3 *
Wi

0101100
-111 0 +24 0 +75 0 -24 0 *
Fa
0  0.000000100000000 7 0

0101000
+23 0 *
Ed
 0.000000100000000 1 1 0
1  53 0 1.000000000000000 7.349999999999966
3  27 28CN 8 0 1.000000000000000 7.349999999999966
0

0101000
+73 3 -109 3 *
Wi

0101100
-108 0 +21 0 +72 0 -21 0 *
Fa
0  0.000000100000000 8 0

0101000
+20 0 *
Ed
 0.000000100000000 1 1 0
1  54 0 0.999999999999943 7.349999999999966
3  29 30CN 9 0 0.999999999999943 7.349999999999966
0

0101000
+54 3 -106 3 *
Wi

0101100
-105 0 +18 0 +53 0 -18 0 *
Fa
0  0.000000100000000 9 0

0101000
+17 0 *
Ed
 0.000000100000000 1 1 0
1  55 0 0.999999999999943 7.349999999999966
3  31 32CN 10 0 0.999999999999943 7.349999999999966
0

0101000
+57 3 -103 3 *
Wi

0101100
-102 0 +15 0 +56 0 -15 0 *
Fa
0  0.000000100000000 10 0

0101000
+14 0 *
Ed
 0.000000100000000 1 1 0
1  56 0 0.999999999999943 7.349999999999966
3  33 34CN 11 0 0.999999999999943 7.349999999999966
0

0101000
+51 3 -100 3 *
Wi

0101100
-99 0 +12 0 +50 0 -12 0 *
Fa
0  0.000000100000000 11 0

0101000
+11 0 *
Ed
 0.000000100000000 1 1 0
1  57 0 1.000000000000000 7.349999999999966
3  35 36CN 12 0 1.000000000000000 7.349999999999966
0

0101000
+63 3 -97 3 *
Wi

0101100
-96 0 +9 0 +62 0 -9 0 *
Fa
0  0.000000100000000 12 0

0101000
+8 0 *
Ed
 0.000000100000000 1 1 0
1  58 0 1.000000000000000 7.349999999999966
3  37 38CN 13 0 1.000000000000000 7.349999999999966
0

0101000
+60 3 -94 3 *
Wi

0101100
-93 0 +6 0 +59 0 -6 0 *
Fa
0  0.000000100000000 13 0

0101000
+5 0 *
Sh

0101100
+148 0 +141 0 +134 0 +91 0 +48 0 +45 0 +42 0 +39 0 +36 0 +33 0 
+30 0 +28 0 -25 0 -22 0 -19 0 -16 0 -13 0 -10 0 -7 0 -4 0 
*
So

0100000
+3 0 *
Co

1100000
+2 0 *

+1 1 