
CASCADE Topology V1, (c) Matra-Datavision
Locations 5
1
1.000000000000000 0.000000000000000 0.000000000000000 0.000000000000000 
0.000000000000000 1.000000000000000 0.000000000000000 0.000000000000000 
0.000000000000000 0.000000000000000 1.000000000000000 0.000000000000000 
1
1.000000000000000 0.000000000000000 0.000000000000000 0.000000000000000 
0.000000000000000 1.000000000000000 0.000000000000000 0.000000000000000 
0.000000000000000 0.000000000000000 1.000000000000000 0.000000000000000 
2  2 -1 0
1
1.000000000000000 0.000000000000000 0.000000000000000 0.000000000000000 
0.000000000000000 1.000000000000000 0.000000000000000 0.000000000000000 
0.000000000000000 0.000000000000000 1.000000000000000 6.000000000000000 
2  2 -1 4 -1 0
Curve2ds 8
1 0.00000000000000000 1494.00000000000000000 1.00000000000000000 0.00000000000000000 
1 0.00000000000000000 1494.00000000000000000 1.00000000000000000 0.00000000000000000 
1 0.00000000000000000 1500.00000000000000000 1.00000000000000000 0.00000000000000000 
1 0.00000000000000000 1500.00000000000000000 1.00000000000000000 0.00000000000000000 
1 6.28318530717958623 -0.00000000000000000 0.00000000000000000 1.00000000000000000 
1 0.00000000000000000 -0.00000000000000000 0.00000000000000000 1.00000000000000000 
1 6.28318530717958623 -0.00000000000000000 0.00000000000000000 1.00000000000000000 
1 0.00000000000000000 -0.00000000000000000 0.00000000000000000 1.00000000000000000 
Curves 18
1 -262.60000000000002274 -262.60000000000002274 311.50000000000000000 0.00000000000000000 0.00000000000000000 1.00000000000000000 
1 262.60000000000002274 -262.60000000000002274 311.50000000000000000 0.00000000000000000 0.00000000000000000 1.00000000000000000 
1 -262.60000000000002274 -262.60000000000002274 311.50000000000000000 1.00000000000000000 0.00000000000000000 0.00000000000000000 
1 -262.60000000000002274 -262.60000000000002274 311.50000000000000000 1.00000000000000000 0.00000000000000000 0.00000000000000000 
1 -262.60000000000002274 262.60000000000002274 311.50000000000000000 0.00000000000000000 0.00000000000000000 1.00000000000000000 
1 -262.60000000000002274 262.60000000000002274 311.50000000000000000 0.00000000000000000 -1.00000000000000000 0.00000000000000000 
1 -262.60000000000002274 262.60000000000002274 311.50000000000000000 0.00000000000000000 -1.00000000000000000 0.00000000000000000 
1 262.60000000000002274 262.60000000000002274 311.50000000000000000 0.00000000000000000 0.00000000000000000 1.00000000000000000 
1 262.60000000000002274 -262.60000000000002274 311.50000000000000000 0.00000000000000000 1.00000000000000000 0.00000000000000000 
1 262.60000000000002274 -262.60000000000002274 311.50000000000000000 0.00000000000000000 1.00000000000000000 0.00000000000000000 
1 262.60000000000002274 262.60000000000002274 311.50000000000000000 -1.00000000000000000 0.00000000000000000 0.00000000000000000 
2 -114.29999999999999716 0.00000000000000000 311.50000000000000000 0.00000000000000000 0.00000000000000000 1.00000000000000000 1.00000000000000000 0.00000000000000000 0.00000000000000000 0.00000000000000000 1.00000000000000000 0.00000000000000000 22.50000000000000000
2 114.29999999999999716 0.00000000000000000 311.50000000000000000 0.00000000000000000 0.00000000000000000 1.00000000000000000 1.00000000000000000 0.00000000000000000 0.00000000000000000 0.00000000000000000 1.00000000000000000 0.00000000000000000 22.50000000000000000
1 262.60000000000002274 262.60000000000002274 311.50000000000000000 -1.00000000000000000 0.00000000000000000 0.00000000000000000 
2 -114.29999999999999716 0.00000000000000000 317.50000000000000000 0.00000000000000000 0.00000000000000000 1.00000000000000000 1.00000000000000000 0.00000000000000000 0.00000000000000000 0.00000000000000000 1.00000000000000000 0.00000000000000000 22.50000000000000000
2 114.29999999999999716 0.00000000000000000 317.50000000000000000 0.00000000000000000 0.00000000000000000 1.00000000000000000 1.00000000000000000 0.00000000000000000 0.00000000000000000 0.00000000000000000 1.00000000000000000 0.00000000000000000 22.50000000000000000
1 -91.79999999999999716 -0.00000000000000551 -1182.50000000000000000 0.00000000000000000 0.00000000000000000 1.00000000000000000 
1 136.80000000000001137 -0.00000000000000551 -1182.50000000000000000 0.00000000000000000 0.00000000000000000 1.00000000000000000 
Polygon3D 0
PolygonOnTriangulations 0
Surfaces 8
1 -262.60000000000002274 -262.60000000000002274 311.50000000000000000 0.00000000000000000 1.00000000000000000 0.00000000000000000 1.00000000000000000 0.00000000000000000 0.00000000000000000 0.00000000000000000 0.00000000000000000 -1.00000000000000000 
1 -262.60000000000002274 262.60000000000002274 311.50000000000000000 1.00000000000000000 0.00000000000000000 0.00000000000000000 0.00000000000000000 -1.00000000000000000 0.00000000000000000 0.00000000000000000 0.00000000000000000 -1.00000000000000000 
1 262.60000000000002274 -262.60000000000002274 311.50000000000000000 -1.00000000000000000 0.00000000000000000 0.00000000000000000 0.00000000000000000 1.00000000000000000 0.00000000000000000 0.00000000000000000 0.00000000000000000 -1.00000000000000000 
1 0.00000000000000000 0.00000000000000000 311.50000000000005684 0.00000000000000000 0.00000000000000000 1.00000000000000000 1.00000000000000000 0.00000000000000000 0.00000000000000000 0.00000000000000000 1.00000000000000000 0.00000000000000000 
2 -114.29999999999999716 0.00000000000000000 -1182.50000000000000000 0.00000000000000000 0.00000000000000000 1.00000000000000000 1.00000000000000000 0.00000000000000000 0.00000000000000000 0.00000000000000000 1.00000000000000000 0.00000000000000000 22.50000000000000000
2 114.29999999999999716 0.00000000000000000 -1182.50000000000000000 0.00000000000000000 0.00000000000000000 1.00000000000000000 1.00000000000000000 0.00000000000000000 0.00000000000000000 0.00000000000000000 1.00000000000000000 0.00000000000000000 22.50000000000000000
1 0.00000000000000000 0.00000000000000000 311.50000000000005684 0.00000000000000000 0.00000000000000000 1.00000000000000000 1.00000000000000000 0.00000000000000000 0.00000000000000000 0.00000000000000000 1.00000000000000000 0.00000000000000000 
1 262.60000000000002274 262.60000000000002274 311.50000000000000000 0.00000000000000000 -1.00000000000000000 0.00000000000000000 -1.00000000000000000 0.00000000000000000 0.00000000000000000 -0.00000000000000000 -0.00000000000000000 -1.00000000000000000 
Triangulations 0

TShapes 53
Ve
0.000000100000000
-262.600000000000023 -262.600000000000023 311.500000000000000
0 0

0101101
*
Ve
0.000000100000000
-262.600000000000023 -262.600000000000023 317.500000000000000
0 0

0101101
*
Ed
 0.000000100000000 1 1 0
1  1 0 0.000000000000000 6.000000000000000
0

0101000
+53 3 -52 3 *
Ve
0.000000100000000
262.600000000000023 -262.600000000000023 311.500000000000000
0 0

0101101
*
Ve
0.000000100000000
262.600000000000023 -262.600000000000023 317.500000000000000
0 0

0101101
*
Ed
 0.000000100000000 1 1 0
1  2 0 0.000000000000000 6.000000000000000
0

0101000
+50 3 -49 3 *
Ed
 0.000000100000000 1 1 0
1  3 0 0.000000000000000 525.200000000000045
0

0101000
+53 3 -50 3 *
Ed
 0.000000100000000 1 1 0
1  4 0 0.000000000000000 525.200000000000045
0

0101000
+52 5 -49 5 *
Wi

0101100
+51 0 -48 0 -47 0 +46 4 *
Fa
0  0.000000100000000 1 0

0111000
+45 0 *
Ve
0.000000100000000
-262.600000000000023 262.600000000000023 311.500000000000000
0 0

0101101
*
Ve
0.000000100000000
-262.600000000000023 262.600000000000023 317.500000000000000
0 0

0101101
*
Ed
 0.000000100000000 1 1 0
1  5 0 0.000000000000000 6.000000000000000
0

0101000
+43 3 -42 3 *
Ed
 0.000000100000000 1 1 0
1  6 0 0.000000000000000 525.200000000000045
0

0101000
+43 3 -53 3 *
Ed
 0.000000100000000 1 1 0
1  7 0 0.000000000000000 525.200000000000045
0

0101000
+42 5 -52 5 *
Wi

0101100
+41 0 -51 0 -40 0 +39 4 *
Fa
0  0.000000100000000 2 0

0111000
+38 0 *
Ve
0.000000100000000
262.600000000000023 262.600000000000023 311.500000000000000
0 0

0101101
*
Ve
0.000000100000000
262.600000000000023 262.600000000000023 317.500000000000000
0 0

0101101
*
Ed
 0.000000100000000 1 1 0
1  8 0 0.000000000000000 6.000000000000000
0

0101000
+36 3 -35 3 *
Ed
 0.000000100000000 1 1 0
1  9 0 0.000000000000000 525.200000000000045
0

0101000
+50 3 -36 3 *
Ed
 0.000000100000000 1 1 0
1  10 0 0.000000000000000 525.200000000000045
0

0101000
+49 5 -35 5 *
Wi

0101100
+48 0 -34 0 -33 0 +32 4 *
Fa
0  0.000000100000000 3 0

0111000
+31 0 *
Ed
 0.000000100000000 1 1 0
1  11 0 0.000000000000000 525.200000000000045
0

0101000
+36 3 -43 3 *
Wi

0101100
+47 0 +40 0 +33 0 +29 0 *
Ve
0.000000100000006
-91.799999999999997 -0.000000000000006 311.500000000000000
0 0

0101101
*
Ed
 0.000000100000000 1 1 0
1  12 0 0.000000000000000 6.283185307179586
2  1 5 0 0.000000000000000 6.283185307179586
0

0101100
+27 3 -27 3 *
Wi

0101100
-26 0 *
Ve
0.000000100000006
136.800000000000011 -0.000000000000006 311.500000000000000
0 0

0101101
*
Ed
 0.000000100000000 1 1 0
1  13 0 0.000000000000000 6.283185307179586
2  2 6 0 0.000000000000000 6.283185307179586
0

0101100
+24 3 -24 3 *
Wi

0101100
-23 0 *
Fa
0  0.000000100000000 4 0

0111000
+28 0 +25 0 +22 0 *
Ed
 0.000000100000000 1 1 0
1  14 0 0.000000000000000 525.200000000000045
0

0101000
+35 5 -42 5 *
Wi

0101100
+46 4 +39 4 +32 4 +20 4 *
Ve
0.000000100000006
-91.799999999999997 -0.000000000000006 317.500000000000000
0 0

0101101
*
Ed
 0.000000100000000 1 1 0
1  15 0 0.000000000000000 6.283185307179586
2  3 5 0 0.000000000000000 6.283185307179586
0

0101100
+18 3 -18 3 *
Wi

0101100
-17 0 *
Ve
0.000000100000006
136.800000000000011 -0.000000000000006 317.500000000000000
0 0

0101101
*
Ed
 0.000000100000000 1 1 0
1  16 0 0.000000000000000 6.283185307179586
2  4 6 0 0.000000000000000 6.283185307179586
0

0101100
+15 3 -15 3 *
Wi

0101100
-14 0 *
Fa
0  0.000000100000000 7 4

0111000
+19 0 +16 0 +13 0 *
Wi

0101100
+34 0 -41 0 -29 0 +20 4 *
Fa
0  0.000000100000000 8 0

0111000
+11 0 *
Ed
 0.000000100000000 1 1 0
1  17 0 1494.000000000000000 1500.000000000000000
3  5 6CN 5 0 1494.000000000000000 1500.000000000000000
0

0101000
+27 3 -18 3 *
Wi

0101100
-17 0 +9 0 +26 0 -9 0 *
Fa
0  0.000000100000000 5 0

0111000
+8 0 *
Ed
 0.000000100000000 1 1 0
1  18 0 1494.000000000000000 1500.000000000000000
3  7 8CN 6 0 1494.000000000000000 1500.000000000000000
0

0101000
+24 3 -15 3 *
Wi

0101100
-14 0 +6 0 +23 0 -6 0 *
Fa
0  0.000000100000000 6 0

0111000
+5 0 *
Sh

0101100
-44 0 -37 0 -30 0 -21 0 +12 0 -10 0 -7 0 -4 0 *
So

0100000
+3 0 *
Co

1100000
+2 0 *

+1 1 