DBRep_DrawableShape

CASCADE Topology V1, (c) Matra-Datavision
Locations 0
Curve2ds 40
1 0 38.100000000000001 1 0 
2 -16 50 1 0 -0 1 22.225000000000001
8 3.1750000000000007 41.274999999999999
1 5.51606163640382 0 0 1 
8 3.1750000000000007 41.274999999999999
1 34.574351715405925 -6.3500000000000014 0 1 
1 0 6.3500000000000014 1 0 
2 -16 50 1 0 -0 1 22.225000000000001
1 6.2831853071795862 -0 0 1 
1 0 -0 0 1 
1 0 0 1 0 
2 0 0 1 0 -0 1 22.225000000000001
1 0 6.3500000000000014 1 0 
2 -16 50 1 0 -0 1 22.225000000000001
8 3.1750000000000007 41.274999999999999
1 0.76712367077576649 0 0 1 
8 3.1750000000000007 41.274999999999999
1 65.425648284594075 -6.3500000000000014 0 1 
1 0 38.100000000000001 1 0 
2 -16 50 1 0 -0 1 22.225000000000001
1 0 44.450000000000003 1 0 
2 0 0 1 0 -0 1 22.225000000000001
1 0 6.3500000000000014 1 0 
2 116 50 1 0 -0 1 22.225000000000001
8 3.1750000000000007 41.274999999999999
1 3.9087163243655594 0 0 1 
8 3.1750000000000007 41.274999999999999
1 34.574351715405925 -6.3500000000000014 0 1 
1 0 38.100000000000001 1 0 
2 116 50 1 0 -0 1 22.225000000000001
8 3.1750000000000007 41.274999999999999
1 2.3744689828140269 0 0 1 
8 3.1750000000000007 41.274999999999999
1 65.425648284594075 -6.3500000000000014 0 1 
1 0 0 0 1 
1 0 31.75 1 0 
1 0 0 0 1 
1 0 0 1 0 
2 50 15.875 1 0 -0 1 6.5
1 0 66 1 0 
1 100 0 0 1 
1 0 0 1 0 
1 100 0 0 1 
1 0 31.75 1 0 
2 50 15.875 1 0 -0 1 6.5
1 0 34 1 0 
1 6.2831853071795862 -0 0 1 
1 0 -0 0 1 
Curves 20
2 0 15.875 0 0 1 0 0 -0 1 1 0 -0 22.225000000000001
1 -15.425648284594073 -22.225000000000001 16 0 1 0 
2 0 -15.875 0 0 1 0 0 -0 1 1 0 -0 22.225000000000001
1 -5.4435550222099857e-15 -22.225000000000001 22.225000000000001 0 1 0 
2 0 -22.225000000000001 0 0 1 0 0 -0 1 1 0 -0 22.225000000000001
2 0 -15.875 0 0 1 0 0 -0 1 1 0 -0 22.225000000000001
1 15.425648284594073 -22.225000000000001 16 0 1 0 
2 0 15.875 0 0 1 0 0 -0 1 1 0 -0 22.225000000000001
2 0 22.225000000000001 0 0 1 0 0 -0 1 1 0 -0 22.225000000000001
2 0 -15.875 0 0 1 0 0 -0 1 1 0 -0 22.225000000000001
1 -15.425648284594073 -22.225000000000001 -16 0 1 0 
2 0 15.875 0 0 1 0 0 -0 1 1 0 -0 22.225000000000001
1 15.425648284594073 -22.225000000000001 -16 0 1 0 
1 -50 15.875 16 1 0 -0 
1 -50 -15.875 16 1 0 -0 
2 0 0 16 0 0 1 1 0 -0 -0 1 0 6.5
1 -50 -15.875 -16 1 0 -0 
1 -50 15.875 -16 1 0 -0 
2 0 0 -16 0 0 1 1 0 -0 -0 1 0 6.5
1 6.5 -1.5920408388915591e-15 -50 0 0 1 
Polygon3D 0
PolygonOnTriangulations 0
Surfaces 10
2 0 -22.225000000000001 0 0 1 0 0 -0 1 1 0 -0 22.225000000000001
1 -50 15.875 16 -0 1 0 0 0 1 1 0 -0 
1 -50 -15.875 16 0 0 1 1 0 -0 -0 1 0 
1 -50 -15.875 16 -0 1 0 0 0 1 1 0 -0 
1 0 -22.225000000000001 0 0 1 0 0 -0 1 1 0 -0 
1 0 22.225000000000001 0 0 1 0 0 -0 1 1 0 -0 
1 -50 -15.875 -116 -0 1 0 0 0 1 1 0 -0 
1 -50 -15.875 -16 0 0 1 1 0 -0 -0 1 0 
1 -50 15.875 -116 -0 1 0 0 0 1 1 0 -0 
2 0 0 -50 0 0 1 1 0 -0 -0 1 0 6.5
Triangulations 0

TShapes 63
Ve
1.00000001776357e-07
-15.4256482845941 15.875 16
0 0

0101101
*
Ve
1.00000005443555e-07
-5.44355502220999e-15 15.875 22.225
0 0

0101101
*
Ed
 1e-07 1 1 0
1  1 0 5.51606163640382 6.28318530717959
2  1 1 0 5.51606163640382 6.28318530717959
2  2 2 0 5.51606163640382 6.28318530717959
0

0101000
+63 0 -62 0 *
Ve
1.00000001776357e-07
-15.4256482845941 -15.875 16
0 0

0101101
*
Ed
 1e-07 1 1 0
1  2 0 6.35 38.1
2  3 1 0 6.35 38.1
2  4 3 0 6.35 38.1
0

0101000
+60 0 -63 0 *
Ve
1.00000005443555e-07
-5.44355502220999e-15 -15.875 22.225
0 0

0101101
*
Ed
 1e-07 1 1 0
1  3 0 5.51606163640382 6.28318530717959
2  5 1 0 5.51606163640382 6.28318530717959
2  6 4 0 5.51606163640382 6.28318530717959
0

0101000
+60 0 -58 0 *
Ve
1e-07
-5.44355502220999e-15 -22.225 22.225
0 0

0101101
*
Ed
 1e-07 1 1 0
1  4 0 0 6.35
3  7 8CN 1 0 0 6.35
0

0101000
+56 0 -58 0 *
Ed
 1e-07 1 1 0
1  5 0 0 6.28318530717959
2  9 1 0 0 6.28318530717959
2  10 5 0 0 6.28318530717959
0

0101000
+56 0 -56 0 *
Ve
1.00000005024296e-07
15.4256482845941 -15.875 16
0 0

0101101
*
Ed
 1e-07 1 1 0
1  6 0 0 0.767123670775766
2  11 1 0 0 0.767123670775766
2  12 4 0 0 0.767123670775766
0

0101000
+58 0 -53 0 *
Ve
1.00000005024296e-07
15.4256482845941 15.875 16
0 0

0101101
*
Ed
 1e-07 1 1 0
1  7 0 6.35 38.1
2  13 1 0 6.35 38.1
2  14 3 0 6.35 38.1
0

0101000
+53 0 -51 0 *
Ed
 1e-07 1 1 0
1  8 0 0 0.767123670775766
2  15 1 0 0 0.767123670775766
2  16 2 0 0 0.767123670775766
0

0101000
+62 0 -51 0 *
Ve
1e-07
-5.44355502220999e-15 22.225 22.225
0 0

0101101
*
Ed
 1e-07 1 1 0
1  4 0 38.1 44.45
3  7 8CN 1 0 38.1 44.45
0

0101000
+62 0 -48 0 *
Ed
 1e-07 1 1 0
1  9 0 0 6.28318530717959
2  17 1 0 0 6.28318530717959
2  18 6 0 0 6.28318530717959
0

0101000
+48 0 -48 0 *
Wi

0101100
+61 0 +59 0 -57 0 +55 0 +54 0 -55 0 -52 0 -50 0 +49 0 -47 0 
-46 0 +47 0 *
Ve
1.00000005024296e-07
15.4256482845941 -15.875 -16
0 0

0101101
*
Ve
1.00000009565974e-07
-15.4256482845941 -15.875 -16
0 0

0101101
*
Ed
 1e-07 1 1 0
1  10 0 2.37446898281403 3.90871632436556
2  19 1 0 2.37446898281403 3.90871632436556
2  20 7 0 2.37446898281403 3.90871632436556
0

0101000
+44 0 -43 0 *
Ve
1.00000009565974e-07
-15.4256482845941 15.875 -16
0 0

0101101
*
Ed
 1e-07 1 1 0
1  11 0 6.35 38.1
2  21 1 0 6.35 38.1
2  22 8 0 6.35 38.1
0

0101000
+43 0 -41 0 *
Ve
1.00000005024296e-07
15.4256482845941 15.875 -16
0 0

0101101
*
Ed
 1e-07 1 1 0
1  12 0 2.37446898281403 3.90871632436556
2  23 1 0 2.37446898281403 3.90871632436556
2  24 9 0 2.37446898281403 3.90871632436556
0

0101000
+39 0 -41 0 *
Ed
 1e-07 1 1 0
1  13 0 6.35 38.1
2  25 1 0 6.35 38.1
2  26 8 0 6.35 38.1
0

0101000
+44 0 -39 0 *
Wi

0101100
-42 0 -40 0 +38 0 +37 0 *
Fa
0  1e-07 1 0

0101000
+45 0 +36 0 *
Ed
 1e-07 1 1 0
1  14 0 34.5743517154059 65.4256482845941
2  27 2 0 34.5743517154059 65.4256482845941
2  28 3 0 34.5743517154059 65.4256482845941
0

0101000
+63 0 -51 0 *
Wi

0101100
-34 0 +49 0 +61 0 *
Fa
0  1e-07 2 0

0101000
+33 0 *
Ed
 1e-07 1 1 0
1  15 0 34.5743517154059 65.4256482845941
2  29 4 0 34.5743517154059 65.4256482845941
2  30 3 0 34.5743517154059 65.4256482845941
0

0101000
+60 0 -53 0 *
Wi

0101100
-34 0 -59 0 +50 0 +31 0 *
Ve
1.00000001592041e-07
6.5 -1.59204083889156e-15 16
0 0

0101101
*
Ed
 1e-07 1 1 0
1  16 0 0 6.28318530717959
2  31 3 0 0 6.28318530717959
2  32 10 0 0 6.28318530717959
0

0101100
+29 0 -29 0 *
Wi

0101100
-28 0 *
Fa
0  1e-07 3 0

0101000
+30 0 +27 0 *
Wi

0101100
-31 0 +52 0 +57 0 *
Fa
0  1e-07 4 0

0101000
+25 0 *
Wi

0101100
-54 0 *
Fa
0  1e-07 5 0

0111000
-23 0 *
Wi

0101100
+46 0 *
Fa
0  1e-07 6 0

0111000
+21 0 *
Ed
 1e-07 1 1 0
1  17 0 34.5743517154059 65.4256482845941
2  33 7 0 34.5743517154059 65.4256482845941
2  34 8 0 34.5743517154059 65.4256482845941
0

0101000
+43 0 -44 0 *
Wi

0101100
+19 0 +42 0 *
Fa
0  1e-07 7 0

0101000
+18 0 *
Ed
 1e-07 1 1 0
1  18 0 34.5743517154059 65.4256482845941
2  35 9 0 34.5743517154059 65.4256482845941
2  36 8 0 34.5743517154059 65.4256482845941
0

0101000
+41 0 -39 0 *
Wi

0101100
-16 0 -40 0 +37 0 +19 0 *
Ve
1.00000001592041e-07
6.5 -1.59204083889156e-15 -16
0 0

0101101
*
Ed
 1e-07 1 1 0
1  19 0 0 6.28318530717959
2  37 8 0 0 6.28318530717959
2  38 10 0 0 6.28318530717959
0

0101100
+14 0 -14 0 *
Wi

0101100
-13 0 *
Fa
0  1e-07 8 0

0101000
+15 0 +12 0 *
Wi

0101100
+16 0 +38 0 *
Fa
0  1e-07 9 0

0101000
+10 0 *
Ed
 1e-07 1 1 0
1  20 0 34 66
3  39 40CN 10 0 34 66
0

0101000
+14 0 -29 0 *
Wi

0101100
-28 0 +8 0 +13 0 -8 0 *
Fa
0  1e-07 10 0

0101000
+7 0 *
Sh

0101100
+35 0 -32 0 +26 0 +24 0 -22 0 +20 0 +17 0 -11 0 -9 0 -6 0 
*
So

0100000
+5 0 *
Co

0100000
+4 0 *
Co

0100000
+3 0 *
Co

1100000
+2 0 *

+1 0 