DBRep_DrawableShape

CASCADE Topology V1, (c) Matra-Datavision
Locations 0
Curve2ds 128
1 6.2831853071795862 1.5707963267948966 -1 0 
1 0 43.599999999999966 1 0 
1 0 43.599999999999966 1 0 
1 0 43.599999999999966 1 0 
1 0 43.599999999999966 1 0 
1 6.2831853071795862 0 0 1 
1 0 0 0 1 
1 6.2831853071795862 3.1415926535897931 -1 0 
1 0 8.0999999999999091 1 0 
1 1.5707963267948966 0 0 1 
1 1.5707963267948966 0 0 1 
1 0 0 1 0 
1 3.1415926535897931 0 0 1 
1 0 0 0 1 
1 0 0 1 0 
1 3.1415926535897931 0 0 1 
1 6.2831853071795862 0 0 1 
1 0 0 1 0 
1 4.7123889803846897 0 0 1 
1 4.7123889803846897 0 0 1 
1 0 0 1 0 
1 6.2831853071795862 0 0 1 
1 0 0 0 1 
1 0 194.25 1 0 
1 6.2831853071795862 3.1415926535897931 -1 0 
1 6.2831853071795862 0 0 1 
1 0 0 0 1 
1 6.2831853071795862 4.7123889803846897 -1 0 
1 0 0 1 0 
1 6.2831853071795862 0 1 0 
1 0 0 1 0 
1 0 0 1 0 
1 0 0 1 0 
1 0 0 1 0 
1 0 0 1 0 
1 0 0 1 0 
1 0 0 1 0 
1 0 0 1 0 
1 0 0 1 0 
1 0 0 1 0 
1 -4.4408920985006262e-16 0 1 0 
1 -4.4408920985006262e-16 0 1 0 
1 -4.4408920985006262e-16 0 1 0 
1 -4.4408920985006262e-16 0 1 0 
1 0 0 1 0 
1 0 0 1 0 
1 0 0 1 0 
1 0 0 1 0 
1 0 0 1 0 
1 0 0 1 0 
1 0 0 1 0 
1 0 0 1 0 
1 0 0 1 0 
1 0 0 1 0 
1 0 0 1 0 
1 0 0 1 0 
1 1.1102230246251565e-16 0 1 0 
1 0 0 1 0 
1 0 40 1 0 
1 0.12275705776501369 0 0 1 
1 0.50556147295280396 0 0 1 
1 6.3917815029353262 0 0 1 
1 0.51972233496210996 0 0 1 
1 0 40 1 0 
1 6.1745891114238463 0 0 1 
1 6.2831853071795862 40 1 0 
1 0.73691472647361489 0 0 1 
1 0 40 1 0 
1 0 40 1 0 
1 6.1604282494145721 0 0 1 
1 0.75107558848286748 0 0 1 
1 0 40 1 0 
1 5.7776238342266391 0 0 1 
1 0 40 1 0 
1 1.1338800036708858 0 0 1 
1 5.7634629722173578 0 0 1 
1 1.1480408656801235 0 0 1 
1 0 40 1 0 
1 5.5462705807058912 0 0 1 
1 0 40 1 0 
1 1.3652332571916344 0 0 1 
1 0 40 1 0 
1 0 40 1 0 
1 5.5321097186966144 0 0 1 
1 1.3793941192009218 0 0 1 
1 0 40 1 0 
1 5.149305303508692 0 0 1 
1 0 40 1 0 
1 1.7621985343888713 0 0 1 
1 5.1351444414994107 0 0 1 
1 1.776359396398159 0 0 1 
1 0 40 1 0 
1 4.9179520499879263 0 0 1 
1 0 40 1 0 
1 1.9935517879096367 0 0 1 
1 0 40 1 0 
1 0 40 1 0 
1 4.9037911879786602 0 0 1 
1 2.0077126499187594 0 0 1 
1 0 40 1 0 
1 4.5209867727907191 0 0 1 
1 0 40 1 0 
1 2.3905170651068284 0 0 1 
1 4.506825910781453 0 0 1 
1 2.404677927116142 0 0 1 
1 0 40 1 0 
1 4.2896335192700015 0 0 1 
1 0 40 1 0 
1 2.6218703186276562 0 0 1 
1 0 40 1 0 
1 0 40 1 0 
1 4.2754726572608348 0 0 1 
1 2.6360311806369201 0 0 1 
1 -4.4408920985006262e-16 40 1 0 
1 3.8926682420728627 0 0 1 
1 0 40 1 0 
1 3.0188355958247772 0 0 1 
1 3.8785073800635246 0 0 1 
1 3.0329964578340474 0 0 1 
1 -4.4408920985006262e-16 40 1 0 
1 3.6613149885520397 0 0 1 
1 -4.4408920985006262e-16 40 1 0 
1 0 40 1 0 
1 0 40 1 0 
1 3.2501888493455389 0 0 1 
1 3.6471541265428091 0 0 1 
1 3.264349711354809 0 0 1 
1 -4.4408920985006262e-16 40 1 0 
Curves 171
2 545.79999999999995 0 0 1 0 -0 0 0 1 0 -1 0 33.399999999999999
1 545.79999999999995 -50 -14 0 0 1 
2 545.79999999999995 -14 -14 1 0 -0 0 0 1 0 -1 0 36
1 545.79999999999995 -14 -50 0 1 0 
2 545.79999999999995 14 -14 1 0 -0 0 0 1 0 -1 0 36
1 545.79999999999995 50 -14 0 0 1 
2 545.79999999999995 14 14 1 0 -0 0 0 1 0 -1 0 36
1 545.79999999999995 -14 50 0 1 0 
2 545.79999999999995 -14 14 1 0 -0 0 0 1 0 -1 0 36
2 553.79999999999995 0 33.399999999999999 0 -1 0 0 0 1 -1 0 0 8
2 553.79999999999995 0 0 1 0 -0 0 0 1 0 -1 0 25.399999999999999
1 502.19999999999999 -50 -14 1 0 0 
1 502.19999999999999 -50 -14 0 0 1 
1 502.19999999999999 -50 14 1 0 0 
2 502.19999999999999 -14 -14 1 0 -0 0 0 1 0 -1 0 36
1 502.19999999999999 -14 -50 1 0 0 
1 502.19999999999999 -14 50 1 0 0 
2 502.19999999999999 -14 14 1 0 -0 0 0 1 0 -1 0 36
1 502.19999999999999 -14 -50 0 1 0 
1 502.19999999999999 14 -50 1 0 0 
1 502.19999999999999 -14 50 0 1 0 
1 502.19999999999999 14 50 1 0 0 
2 502.19999999999999 14 -14 1 0 -0 0 0 1 0 -1 0 36
1 502.19999999999999 50 -14 1 0 0 
1 502.19999999999999 50 14 1 0 0 
2 502.19999999999999 14 14 1 0 -0 0 0 1 0 -1 0 36
1 502.19999999999999 50 -14 0 0 1 
1 545.70000000000005 6.2200000000000001e-15 25.399999999999999 1 0 0 
2 739.95000000000005 0 0 1 0 -0 0 0 1 0 -1 0 25.399999999999999
2 739.95000000000005 0 33.399999999999999 0 -1 0 0 0 1 -1 0 0 8
2 747.95000000000005 0 0 1 0 -0 0 0 1 0 -1 0 33.399999999999999
2 747.95000000000005 0 0 1 0 -0 0 0 1 0 -1 0 49
1 747.95000000000005 -6 47 0 0 1 
2 747.95000000000005 0 0 1 0 -0 0 0 1 0 -1 0 55.359299999999998
2 747.95000000000005 0 0 1 0 -0 0 0 1 0 -1 0 55.359299999999998
1 747.95000000000005 6 47 0 0 1 
2 747.95000000000005 0 0 1 0 -0 0 0 1 0 -1 0 49
1 747.95000000000005 22.771804891496998 41.550510249376998 0 0.5877852522921384 0.80901699437519059 
2 747.95000000000005 0 0 1 0 -0 0 0 1 0 -1 0 55.359299999999998
2 747.95000000000005 0 0 1 0 -0 0 0 1 0 -1 0 55.359299999999998
1 747.95000000000005 32.480008823996002 34.497087221868 0 0.5877852522921384 0.80901699437519059 
2 747.95000000000005 0 0 1 0 -0 0 0 1 0 -1 0 49
1 747.95000000000005 42.845554299622997 20.230137833393002 0 0.95105651629512344 0.3090169943750401 
2 747.95000000000005 0 0 1 0 -0 0 0 1 0 -1 0 55.359299999999998
2 747.95000000000005 0 0 1 0 -0 0 0 1 0 -1 0 55.359299999999998
1 747.95000000000005 46.553758232122 8.817459637852 0 0.95105651629512344 0.3090169943750401 
2 747.95000000000005 0 0 1 0 -0 0 0 1 0 -1 0 49
1 747.95000000000005 46.553758232122 -8.817459637852 0 0.95105651629512344 -0.3090169943750401 
2 747.95000000000005 0 0 1 0 -0 0 0 1 0 -1 0 55.359299999999998
2 747.95000000000005 0 0 1 0 -0 0 0 1 0 -1 0 55.359299999999998
1 747.95000000000005 42.845554299622997 -20.23013783339 0 0.95105651629512344 -0.3090169943750401 
2 747.95000000000005 0 0 1 0 -0 0 0 1 0 -1 0 49
1 747.95000000000005 32.480008823996002 -34.497087221859999 0 0.5877852522921384 -0.80901699437519059 
2 747.95000000000005 0 0 1 0 -0 0 0 1 0 -1 0 55.359299999999998
2 747.95000000000005 0 0 1 0 -0 0 0 1 0 -1 0 55.359299999999998
1 747.95000000000005 22.771804891496998 -41.550510249369999 0 0.5877852522921384 -0.80901699437519059 
2 747.95000000000005 0 0 1 0 -0 0 0 1 0 -1 0 49
1 747.95000000000005 6 -47 0 0 -1 
2 747.95000000000005 0 0 1 0 -0 0 0 1 0 -1 0 55.359299999999998
2 747.95000000000005 0 0 1 0 -0 0 0 1 0 -1 0 55.359299999999998
1 747.95000000000005 -6 -47 0 0 -1 
2 747.95000000000005 0 0 1 0 -0 0 0 1 0 -1 0 49
1 747.95000000000005 -22.77180489149 -41.550510249369999 0 -0.5877852522921384 -0.80901699437519059 
2 747.95000000000005 0 0 1 0 -0 0 0 1 0 -1 0 55.359299999999998
2 747.95000000000005 0 0 1 0 -0 0 0 1 0 -1 0 55.359299999999998
1 747.95000000000005 -32.480008823989998 -34.497087221859999 0 -0.5877852522921384 -0.80901699437519059 
2 747.95000000000005 0 0 1 0 -0 0 0 1 0 -1 0 49
1 747.95000000000005 -42.845554299619998 -20.23013783339 0 -0.95105651629512344 -0.3090169943750401 
2 747.95000000000005 0 0 1 0 -0 0 0 1 0 -1 0 55.359299999999998
2 747.95000000000005 0 0 1 0 -0 0 0 1 0 -1 0 55.359299999999998
1 747.95000000000005 -46.553758232120003 -8.817459637852 0 -0.95105651629512344 -0.3090169943750401 
2 747.95000000000005 0 0 1 0 -0 0 0 1 0 -1 0 49
1 747.95000000000005 -46.553758232120003 8.817459637852 0 -0.95105651629512344 0.3090169943750401 
2 747.95000000000005 0 0 1 0 -0 0 0 1 0 -1 0 55.359299999999998
2 747.95000000000005 0 0 1 0 -0 0 0 1 0 -1 0 55.359299999999998
1 747.95000000000005 -42.845554299619998 20.230137833393002 0 -0.95105651629512344 0.3090169943750401 
2 747.95000000000005 0 0 1 0 -0 0 0 1 0 -1 0 49
1 747.95000000000005 -32.480008823989998 34.497087221868 0 -0.5877852522921384 0.80901699437519059 
2 747.95000000000005 0 0 1 0 -0 0 0 1 0 -1 0 55.359299999999998
2 747.95000000000005 0 0 1 0 -0 0 0 1 0 -1 0 55.359299999999998
1 747.95000000000005 -22.77180489149 41.550510249376998 0 -0.5877852522921384 0.80901699437519059 
2 787.95000000000005 0 0 1 0 -0 0 0 1 0 -1 0 49
1 747.95000000000005 -6 48.631265663150998 1 0 0 
1 747.95000000000005 -23.730638790859999 42.870231893206999 1 0 0 
1 787.95000000000005 -6 47 0 0 1 
1 747.95000000000005 -6 55.033190862333001 1 0 0 
1 787.95000000000005 -22.77180489149 41.550510249376998 0 -0.5877852522921384 0.80901699437519059 
1 747.95000000000005 -27.493596009219999 48.049498176062997 1 0 0 
2 787.95000000000005 0 0 1 0 -0 0 0 1 0 -1 0 55.359299999999998
1 747.95000000000005 6 55.033190862333001 1 0 0 
2 787.95000000000005 0 0 1 0 -0 0 0 1 0 -1 0 55.359299999999998
1 747.95000000000005 -37.201799941719997 40.996075148552997 1 0 0 
2 787.95000000000005 0 0 1 0 -0 0 0 1 0 -1 0 55.359299999999998
2 787.95000000000005 0 0 1 0 -0 0 0 1 0 -1 0 55.359299999999998
1 747.95000000000005 6 48.631265663150998 1 0 0 
1 787.95000000000005 6 47 0 0 1 
1 747.95000000000005 -33.438842723359997 35.816808865696999 1 0 0 
1 787.95000000000005 -32.480008823989998 34.497087221868 0 -0.5877852522921384 0.80901699437519059 
2 787.95000000000005 0 0 1 0 -0 0 0 1 0 -1 0 49
1 747.95000000000005 23.730638790867999 42.870231893206999 1 0 0 
2 787.95000000000005 0 0 1 0 -0 0 0 1 0 -1 0 49
1 747.95000000000005 -44.396980138369997 20.734226645648 1 0 0 
1 787.95000000000005 22.771804891496998 41.550510249376998 0 0.5877852522921384 0.80901699437519059 
1 747.95000000000005 27.493596009227002 48.049498176062002 1 0 0 
1 787.95000000000005 -42.845554299619998 20.230137833393002 0 -0.95105651629512344 0.3090169943750401 
1 747.95000000000005 -50.485572815879998 22.712530328911999 1 0 0 
2 787.95000000000005 0 0 1 0 -0 0 0 1 0 -1 0 55.359299999999998
1 747.95000000000005 37.201799941726001 40.996075148552997 1 0 0 
2 787.95000000000005 0 0 1 0 -0 0 0 1 0 -1 0 55.359299999999998
1 747.95000000000005 -54.193776748380003 11.299852133370001 1 0 0 
2 787.95000000000005 0 0 1 0 -0 0 0 1 0 -1 0 55.359299999999998
2 787.95000000000005 0 0 1 0 -0 0 0 1 0 -1 0 55.359299999999998
1 747.95000000000005 33.438842723367003 35.816808865696999 1 0 0 
1 787.95000000000005 32.480008823996002 34.497087221868 0 0.5877852522921384 0.80901699437519059 
1 747.95000000000005 -48.105184070870003 9.3215484501060004 1 0 0 
1 787.95000000000005 -46.553758232120003 8.817459637852 0 -0.95105651629512344 0.3090169943750401 
2 787.95000000000005 0 0 1 0 -0 0 0 1 0 -1 0 49
1 747.95000000000005 44.396980138370999 20.734226645648 1 0 0 
2 787.95000000000005 0 0 1 0 -0 0 0 1 0 -1 0 49
1 747.95000000000005 -48.105184070870003 -9.3215484501060004 1 0 0 
1 787.95000000000005 42.845554299622997 20.230137833393002 0 0.95105651629512344 0.3090169943750401 
1 747.95000000000005 50.485572815886997 22.712530328911999 1 0 0 
1 787.95000000000005 -46.553758232120003 -8.817459637852 0 -0.95105651629512344 -0.3090169943750401 
1 747.95000000000005 -54.193776748380003 -11.299852133370001 1 0 0 
2 787.95000000000005 0 0 1 0 -0 0 0 1 0 -1 0 55.359299999999998
1 747.95000000000005 54.193776748387002 11.299852133370001 1 0 0 
2 787.95000000000005 0 0 1 0 -0 0 0 1 0 -1 0 55.359299999999998
1 747.95000000000005 -50.485572815879998 -22.712530328909999 1 0 0 
2 787.95000000000005 0 0 1 0 -0 0 0 1 0 -1 0 55.359299999999998
2 787.95000000000005 0 0 1 0 -0 0 0 1 0 -1 0 55.359299999999998
1 747.95000000000005 48.105184070870997 9.3215484501060004 1 0 0 
1 787.95000000000005 46.553758232122 8.817459637852 0 0.95105651629512344 0.3090169943750401 
1 747.95000000000005 -44.396980138369997 -20.73422664564 1 0 0 
1 787.95000000000005 -42.845554299619998 -20.23013783339 0 -0.95105651629512344 -0.3090169943750401 
2 787.95000000000005 0 0 1 0 -0 0 0 1 0 -1 0 49
1 747.95000000000005 48.105184070870997 -9.3215484501060004 1 0 0 
2 787.95000000000005 0 0 1 0 -0 0 0 1 0 -1 0 49
1 747.95000000000005 -33.438842723359997 -35.81680886569 1 0 0 
1 787.95000000000005 46.553758232122 -8.817459637852 0 0.95105651629512344 -0.3090169943750401 
1 747.95000000000005 54.193776748387002 -11.299852133370001 1 0 0 
1 787.95000000000005 -32.480008823989998 -34.497087221859999 0 -0.5877852522921384 -0.80901699437519059 
1 747.95000000000005 -37.201799941719997 -40.996075148549998 1 0 0 
2 787.95000000000005 0 0 1 0 -0 0 0 1 0 -1 0 55.359299999999998
1 747.95000000000005 50.485572815886997 -22.712530328909999 1 0 0 
2 787.95000000000005 0 0 1 0 -0 0 0 1 0 -1 0 55.359299999999998
1 747.95000000000005 -27.493596009219999 -48.049498176059998 1 0 0 
2 787.95000000000005 0 0 1 0 -0 0 0 1 0 -1 0 55.359299999999998
2 787.95000000000005 0 0 1 0 -0 0 0 1 0 -1 0 55.359299999999998
1 747.95000000000005 44.396980138370999 -20.73422664564 1 0 0 
1 787.95000000000005 42.845554299622997 -20.23013783339 0 0.95105651629512344 -0.3090169943750401 
1 747.95000000000005 -23.730638790859999 -42.8702318932 1 0 0 
1 787.95000000000005 -22.77180489149 -41.550510249369999 0 -0.5877852522921384 -0.80901699437519059 
2 787.95000000000005 0 0 1 0 -0 0 0 1 0 -1 0 49
1 747.95000000000005 33.438842723367003 -35.81680886569 1 0 0 
2 787.95000000000005 0 0 1 0 -0 0 0 1 0 -1 0 49
1 747.95000000000005 -6 -48.631265663150003 1 0 0 
1 787.95000000000005 32.480008823996002 -34.497087221859999 0 0.5877852522921384 -0.80901699437519059 
1 747.95000000000005 37.201799941726001 -40.996075148549998 1 0 0 
1 787.95000000000005 -6 -47 0 0 -1 
1 747.95000000000005 -6 -55.033190862330002 1 0 0 
2 787.95000000000005 0 0 1 0 -0 0 0 1 0 -1 0 55.359299999999998
1 747.95000000000005 27.493596009227002 -48.049498176059998 1 0 0 
2 787.95000000000005 0 0 1 0 -0 0 0 1 0 -1 0 55.359299999999998
2 787.95000000000005 0 0 1 0 -0 0 0 1 0 -1 0 55.359299999999998
2 787.95000000000005 0 0 1 0 -0 0 0 1 0 -1 0 55.359299999999998
1 747.95000000000005 6 -55.033190862330002 1 0 0 
1 747.95000000000005 23.730638790867999 -42.8702318932 1 0 0 
1 787.95000000000005 22.771804891496998 -41.550510249369999 0 0.5877852522921384 -0.80901699437519059 
1 747.95000000000005 6 -48.631265663150003 1 0 0 
1 787.95000000000005 6 -47 0 0 -1 
2 787.95000000000005 0 0 1 0 -0 0 0 1 0 -1 0 49
Polygon3D 0
PolygonOnTriangulations 0
Surfaces 55
1 545.79999999999995 -1.8599999999999999e-15 -2.8799999999999999e-15 1 0 0 0 0 1 0 -1 0 
5 553.79999999999995 0 0 -1 0 0 0 0 1 0 1 -0 33.399999999999999 8
1 502.19999999999999 -50 -14 0 1 0 0 -0 1 1 0 -0 
2 502.19999999999999 -14 -14 1 0 0 0 0 1 0 -1 0 36
1 502.19999999999999 -14 -50 0 0 1 1 0 -0 -0 1 0 
2 502.19999999999999 14 -14 1 0 0 0 0 1 0 -1 0 36
1 502.19999999999999 50 -14 0 1 0 0 -0 1 1 0 -0 
2 502.19999999999999 14 14 1 0 0 0 0 1 0 -1 0 36
1 502.19999999999999 -14 50 0 0 1 1 0 -0 -0 1 0 
2 502.19999999999999 -14 14 1 0 0 0 0 1 0 -1 0 36
2 545.70000000000005 0 0 1 0 0 0 0 1 0 -1 0 25.399999999999999
1 502.19999999999999 -8.5000000000000001e-16 2.1999999999999999e-15 -1 -0 -0 0 0 -1 0 -1 0 
5 739.95000000000005 0 0 -1 -0 -0 -0 0 1 0 1 -0 33.399999999999999 8
1 747.95000000000005 1.8000000000000001e-15 1.6815e-13 -1 0 -0 0 0 -1 0 -1 -0 
2 747.95000000000005 0 0 1 0 0 0 0 1 0 -1 0 49
1 747.95000000000005 -6 47 0 -1 0 0 0 1 -1 0 0 
2 747.95000000000005 0 0 1 0 0 0 0 1 0 -1 0 55.359299999999998
1 747.95000000000005 6 47 0 -1 0 0 0 1 -1 0 0 
2 747.95000000000005 0 0 1 0 0 0 0 1 0 -1 0 49
1 747.95000000000005 22.771804891496998 41.550510249376998 0 -0.80901699437519059 0.5877852522921384 0 0.5877852522921384 0.80901699437519059 -1 0 0 
2 747.95000000000005 0 0 1 0 0 0 0 1 0 -1 0 55.359299999999998
1 747.95000000000005 32.480008823996002 34.497087221868 0 -0.80901699437519059 0.5877852522921384 0 0.5877852522921384 0.80901699437519059 -1 0 0 
2 747.95000000000005 0 0 1 0 0 0 0 1 0 -1 0 49
1 747.95000000000005 42.845554299622997 20.230137833393002 0 -0.3090169943750401 0.95105651629512344 0 0.95105651629512344 0.3090169943750401 -1 0 0 
2 747.95000000000005 0 0 1 0 0 0 0 1 0 -1 0 55.359299999999998
1 747.95000000000005 46.553758232122 8.817459637852 0 -0.3090169943750401 0.95105651629512344 0 0.95105651629512344 0.3090169943750401 -1 0 0 
2 747.95000000000005 0 0 1 0 0 0 0 1 0 -1 0 49
1 747.95000000000005 46.553758232122 -8.817459637852 0 0.3090169943750401 0.95105651629512344 0 0.95105651629512344 -0.3090169943750401 -1 0 0 
2 747.95000000000005 0 0 1 0 0 0 0 1 0 -1 0 55.359299999999998
1 747.95000000000005 42.845554299622997 -20.23013783339 0 0.3090169943750401 0.95105651629512344 0 0.95105651629512344 -0.3090169943750401 -1 0 0 
2 747.95000000000005 0 0 1 0 0 0 0 1 0 -1 0 49
1 747.95000000000005 32.480008823996002 -34.497087221859999 0 0.80901699437519059 0.5877852522921384 0 0.5877852522921384 -0.80901699437519059 -1 0 0 
2 747.95000000000005 0 0 1 0 0 0 0 1 0 -1 0 55.359299999999998
1 747.95000000000005 22.771804891496998 -41.550510249369999 0 0.80901699437519059 0.5877852522921384 0 0.5877852522921384 -0.80901699437519059 -1 0 0 
2 747.95000000000005 0 0 1 0 0 0 0 1 0 -1 0 49
1 747.95000000000005 6 -47 0 1 0 0 0 -1 -1 0 0 
2 747.95000000000005 0 0 1 0 0 0 0 1 0 -1 0 55.359299999999998
1 747.95000000000005 -6 -47 0 1 0 0 0 -1 -1 0 0 
2 747.95000000000005 0 0 1 0 0 0 0 1 0 -1 0 49
1 747.95000000000005 -22.77180489149 -41.550510249369999 0 0.80901699437519059 -0.5877852522921384 0 -0.5877852522921384 -0.80901699437519059 -1 0 -0 
2 747.95000000000005 0 0 1 0 0 0 0 1 0 -1 0 55.359299999999998
1 747.95000000000005 -32.480008823989998 -34.497087221859999 0 0.80901699437519059 -0.5877852522921384 0 -0.5877852522921384 -0.80901699437519059 -1 0 -0 
2 747.95000000000005 0 0 1 0 0 0 0 1 0 -1 0 49
1 747.95000000000005 -42.845554299619998 -20.23013783339 0 0.3090169943750401 -0.95105651629512344 0 -0.95105651629512344 -0.3090169943750401 -1 0 -0 
2 747.95000000000005 0 0 1 0 0 0 0 1 0 -1 0 55.359299999999998
1 747.95000000000005 -46.553758232120003 -8.817459637852 0 0.3090169943750401 -0.95105651629512344 0 -0.95105651629512344 -0.3090169943750401 -1 0 -0 
2 747.95000000000005 0 0 1 0 0 0 0 1 0 -1 0 49
1 747.95000000000005 -46.553758232120003 8.817459637852 0 -0.3090169943750401 -0.95105651629512344 0 -0.95105651629512344 0.3090169943750401 -1 -0 0 
2 747.95000000000005 0 0 1 0 0 0 0 1 0 -1 0 55.359299999999998
1 747.95000000000005 -42.845554299619998 20.230137833393002 0 -0.3090169943750401 -0.95105651629512344 0 -0.95105651629512344 0.3090169943750401 -1 -0 0 
2 747.95000000000005 0 0 1 0 0 0 0 1 0 -1 0 49
1 747.95000000000005 -32.480008823989998 34.497087221868 0 -0.80901699437519059 -0.5877852522921384 0 -0.5877852522921384 0.80901699437519059 -1 -0 0 
2 747.95000000000005 0 0 1 0 0 0 0 1 0 -1 0 55.359299999999998
1 747.95000000000005 -22.77180489149 41.550510249376998 0 -0.80901699437519059 -0.5877852522921384 0 -0.5877852522921384 0.80901699437519059 -1 -0 0 
1 787.94999999999004 6.08732e-12 -1.4732e-13 1 0 0 0 0 1 0 -1 0 
Triangulations 0

TShapes 405
Ve
1e-07
545.8 0 33.4
0 0

0101101
*
Ed
 1e-07 1 1 0
1  1 0 0 6.28318530717959
2  1 2 0 0 6.28318530717959
4 G1 1 0 2 0
0

0101100
+405 0 -405 0 *
Wi

0101100
-404 0 *
Ve
1e-07
545.8 -50 -14
0 0

0101101
*
Ve
1e-07
545.8 -50 14
0 0

0101101
*
Ed
 1e-07 1 1 0
1  2 0 0 28
4 C0 1 0 3 0
0

0101000
+402 0 -401 0 *
Ve
1e-07
545.8 -14 -50
0 0

0101101
*
Ed
 1e-07 1 1 0
1  3 0 1.5707963267949 3.14159265358979
2  2 4 0 1.5707963267949 3.14159265358979
4 C0 1 0 4 0
0

0101000
+402 0 -399 0 *
Ve
1e-07
545.8 14 -50
0 0

0101101
*
Ed
 1e-07 1 1 0
1  4 0 0 28
4 C0 1 0 5 0
0

0101000
+399 0 -397 0 *
Ve
1e-07
545.8 50 -14
0 0

0101101
*
Ed
 1e-07 1 1 0
1  5 0 3.14159265358979 4.71238898038469
2  3 6 0 3.14159265358979 4.71238898038469
4 C0 1 0 6 0
0

0101000
+397 0 -395 0 *
Ve
1e-07
545.8 50 14
0 0

0101101
*
Ed
 1e-07 1 1 0
1  6 0 0 28
4 C0 1 0 7 0
0

0101000
+395 0 -393 0 *
Ve
1e-07
545.8 14 50
0 0

0101101
*
Ed
 1e-07 1 1 0
1  7 0 4.71238898038469 6.28318530717959
2  4 8 0 4.71238898038469 6.28318530717959
4 C0 1 0 8 0
0

0101000
+393 0 -391 0 *
Ve
1e-07
545.8 -14 50
0 0

0101101
*
Ed
 1e-07 1 1 0
1  8 0 0 28
4 C0 1 0 9 0
0

0101000
+389 0 -391 0 *
Ed
 1e-07 1 1 0
1  9 0 0 1.5707963267949
2  5 10 0 0 1.5707963267949
4 C0 1 0 10 0
0

0101000
+389 0 -401 0 *
Wi

0101100
-400 0 +398 0 +396 0 +394 0 +392 0 +390 0 -388 0 +387 0 *
Fa
0  1e-07 1 0

0111000
+403 0 +386 0 *
Ve
1e-07
553.8 0 25.4
0 0

0101101
*
Ed
 1e-07 1 1 0
1  10 0 1.5707963267949 3.14159265358979
3  6 7CN 2 0 1.5707963267949 3.14159265358979
0

0101000
+405 0 -384 0 *
Ed
 1e-07 1 1 0
1  11 0 0 6.28318530717959
2  8 2 0 0 6.28318530717959
2  9 11 0 0 6.28318530717959
4 G1 2 0 11 0
0

0101100
+384 0 -384 0 *
Wi

0101100
-383 0 -404 0 +383 0 +382 0 *
Fa
0  1e-07 2 0

0111000
+381 0 *
Ve
1e-07
502.2 -50 -14
0 0

0101101
*
Ed
 1e-07 1 1 0
1  12 0 0 43.6
2  10 4 0 0 43.6
4 G1 3 0 4 0
0

0101000
+379 0 -402 0 *
Ve
1e-07
502.2 -50 14
0 0

0101101
*
Ed
 1e-07 1 1 0
1  13 0 0 28
4 C0 3 0 12 0
0

0101000
+379 0 -377 0 *
Ed
 1e-07 1 1 0
1  14 0 0 43.6
2  11 10 0 0 43.6
4 G1 3 0 10 0
0

0101000
+377 0 -401 0 *
Wi

0101100
-378 0 +376 0 +375 0 -400 0 *
Fa
0  1e-07 3 0

0111000
+374 0 *
Ve
1e-07
502.2 -14 -50
0 0

0101101
*
Ed
 1e-07 1 1 0
1  15 0 1.5707963267949 3.14159265358979
2  12 4 0 1.5707963267949 3.14159265358979
4 C0 4 0 12 0
0

0101000
+379 0 -372 0 *
Ed
 1e-07 1 1 0
1  16 0 0 43.6
2  13 4 0 0 43.6
4 G1 4 0 5 0
0

0101000
+372 0 -399 0 *
Wi

0101100
-398 0 -378 0 +371 0 +370 0 *
Fa
0  1e-07 4 0

0111000
+369 0 *
Ve
1e-07
502.2 -14 50
0 0

0101101
*
Ed
 1e-07 1 1 0
1  17 0 0 43.6
2  14 10 0 0 43.6
4 G1 10 0 9 0
0

0101000
+367 0 -389 0 *
Ed
 1e-07 1 1 0
1  18 0 0 1.5707963267949
2  15 10 0 0 1.5707963267949
4 C0 10 0 12 0
0

0101000
+367 0 -377 0 *
Wi

0101100
-387 0 -366 0 +365 0 +375 0 *
Fa
0  1e-07 10 0

0111000
+364 0 *
Ve
1e-07
502.2 14 -50
0 0

0101101
*
Ed
 1e-07 1 1 0
1  19 0 0 28
4 C0 5 0 12 0
0

0101000
+372 0 -362 0 *
Ed
 1e-07 1 1 0
1  20 0 0 43.6
2  16 6 0 0 43.6
4 G1 5 0 6 0
0

0101000
+362 0 -397 0 *
Wi

0101100
-361 0 +370 0 +396 0 -360 0 *
Fa
0  1e-07 5 0

0111000
+359 0 *
Ve
1e-07
502.2 14 50
0 0

0101101
*
Ed
 1e-07 1 1 0
1  21 0 0 28
4 C0 9 0 12 0
0

0101000
+367 0 -357 0 *
Ed
 1e-07 1 1 0
1  22 0 0 43.6
2  17 8 0 0 43.6
4 G1 9 0 8 0
0

0101000
+357 0 -391 0 *
Wi

0101100
-356 0 +366 0 +388 0 -355 0 *
Fa
0  1e-07 9 0

0111000
+354 0 *
Ve
1e-07
502.2 50 -14
0 0

0101101
*
Ed
 1e-07 1 1 0
1  23 0 3.14159265358979 4.71238898038469
2  18 6 0 3.14159265358979 4.71238898038469
4 C0 6 0 12 0
0

0101000
+362 0 -352 0 *
Ed
 1e-07 1 1 0
1  24 0 0 43.6
2  19 6 0 0 43.6
4 G1 6 0 7 0
0

0101000
+352 0 -395 0 *
Wi

0101100
-394 0 -360 0 +351 0 +350 0 *
Fa
0  1e-07 6 0

0111000
+349 0 *
Ve
1e-07
502.2 50 14
0 0

0101101
*
Ed
 1e-07 1 1 0
1  25 0 0 43.6
2  20 8 0 0 43.6
4 G1 8 0 7 0
0

0101000
+347 0 -393 0 *
Ed
 1e-07 1 1 0
1  26 0 4.71238898038469 6.28318530717959
2  21 8 0 4.71238898038469 6.28318530717959
4 C0 8 0 12 0
0

0101000
+347 0 -357 0 *
Wi

0101100
-390 0 -346 0 +345 0 +355 0 *
Fa
0  1e-07 8 0

0111000
+344 0 *
Ed
 1e-07 1 1 0
1  27 0 0 28
4 C0 7 0 12 0
0

0101000
+352 0 -347 0 *
Wi

0101100
-350 0 +342 0 +346 0 -392 0 *
Fa
0  1e-07 7 0

0111000
+341 0 *
Ve
1e-07
739.95 0 25.4
0 0

0101101
*
Ed
 1e-07 1 1 0
1  28 0 8.09999999999991 194.25
3  22 23CN 11 0 8.09999999999991 194.25
0

0101000
+384 0 -339 0 *
Ed
 1e-07 1 1 0
1  29 0 0 6.28318530717959
2  24 11 0 0 6.28318530717959
2  25 13 0 0 6.28318530717959
4 G1 11 0 13 0
0

0101100
+339 0 -339 0 *
Wi

0101100
-338 0 +382 0 +338 0 -337 0 *
Fa
0  1e-07 11 0

0111000
+336 0 *
Wi

0101100
+376 0 -365 0 +356 0 -345 0 -342 0 -351 0 -361 0 -371 0 *
Fa
0  1e-07 12 0

0111000
+334 0 *
Ve
1e-07
747.95 0 33.4
0 0

0101101
*
Ed
 1e-07 1 1 0
1  30 0 3.14159265358979 4.71238898038469
3  26 27CN 13 0 3.14159265358979 4.71238898038469
0

0101000
+339 0 -332 0 *
Ed
 1e-07 1 1 0
1  31 0 0 6.28318530717959
2  28 13 0 0 6.28318530717959
4 G1 13 0 14 0
0

0101100
+332 0 -332 0 *
Wi

0101100
-331 0 -337 0 +331 0 +330 0 *
Fa
0  1e-07 13 0

0111000
+329 0 *
Wi

0101100
+330 0 *
Ve
1e-07
747.95 -5.999999999999 48.631265663151
0 0

0101101
*
Ve
1e-07
747.95 -23.73063879086 42.870231893207
0 0

0101101
*
Ed
 1e-07 1 1 0
1  32 0 0.122757057764993 0.505561472952804
2  29 15 0 0.122757057764993 0.505561472952804
4 C0 14 0 15 0
0

0101000
+326 0 -325 0 *
Ve
1e-07
747.95 -6.000000000001 55.033190862333
0 0

0101101
*
Ed
 1e-07 1 1 0
1  33 0 1.631265663151 8.033190862333
4 C0 14 0 16 0
0

0101000
+326 0 -323 0 *
Ve
1e-07
747.95 1.4e-14 55.3593
0 0

0101101
*
Ed
 1e-07 1 1 0
1  34 0 0 0.108596195755758
2  30 17 0 0 0.108596195755758
4 C0 14 0 17 0
0

0101000
+321 0 -323 0 *
Ve
1e-07
747.95 6.000000000001 55.033190862333
0 0

0101101
*
Ed
 1e-07 1 1 0
1  35 0 6.17458911142383 6.28318530717959
2  31 17 0 6.17458911142383 6.28318530717959
4 C0 14 0 17 0
0

0101000
+319 0 -321 0 *
Ve
1e-07
747.95 5.999999999999 48.631265663151
0 0

0101101
*
Ed
 1e-07 1 1 0
1  36 0 1.631265663151 8.033190862333
4 C0 14 0 18 0
0

0101000
+317 0 -319 0 *
Ve
1e-07
747.95 23.730638790868 42.870231893207
0 0

0101101
*
Ed
 1e-07 1 1 0
1  37 0 5.77762383422664 6.16042824941459
2  32 19 0 5.77762383422664 6.16042824941459
4 C0 14 0 19 0
0

0101000
+315 0 -317 0 *
Ve
1e-07
747.95 27.493596009227 48.049498176063
0 0

0101101
*
Ed
 1e-07 1 1 0
1  38 0 1.63126566315127 8.03319086233387
4 C0 14 0 20 0
0

0101000
+315 0 -313 0 *
Ve
1e-07
747.95 32.539380085818 44.786614519526
0 0

0101101
*
Ed
 1e-07 1 1 0
1  39 0 5.6548667771631 5.76346297221737
2  33 21 0 5.6548667771631 5.76346297221737
4 C0 14 0 21 0
0

0101000
+311 0 -313 0 *
Ve
1e-07
747.95 37.201799941726 40.996075148552
0 0

0101101
*
Ed
 1e-07 1 1 0
1  40 0 5.54627058070588 5.6548667771631
2  34 21 0 5.54627058070588 5.6548667771631
4 C0 14 0 21 0
0

0101000
+309 0 -311 0 *
Ve
1e-07
747.95 33.438842723367 35.816808865698
0 0

0101101
*
Ed
 1e-07 1 1 0
1  41 0 1.63126566315127 8.03319086233225
4 C0 14 0 22 0
0

0101000
+307 0 -309 0 *
Ve
1e-07
747.95 44.396980138371 20.734226645648
0 0

0101101
*
Ed
 1e-07 1 1 0
1  42 0 5.14930530350869 5.53210971869663
2  35 23 0 5.14930530350869 5.53210971869663
4 C0 14 0 23 0
0

0101000
+305 0 -307 0 *
Ve
1e-07
747.95 50.485572815887 22.712530328912
0 0

0101101
*
Ed
 1e-07 1 1 0
1  43 0 1.63126566315104 8.03319086233271
4 C0 14 0 24 0
0

0101000
+305 0 -303 0 *
Ve
1e-07
747.95 52.649823243066 17.106963756433
0 0

0101101
*
Ed
 1e-07 1 1 0
1  44 0 5.02654823168345 5.13514444149941
2  36 25 0 5.02654823168345 5.13514444149941
4 C0 14 0 25 0
0

0101000
+301 0 -303 0 *
Ve
1e-07
747.95 54.193776748386 11.299852133372
0 0

0101101
*
Ed
 1e-07 1 1 0
1  45 0 4.91795204998797 5.02654823168345
2  37 25 0 4.91795204998797 5.02654823168345
4 C0 14 0 25 0
0

0101000
+299 0 -301 0 *
Ve
1e-07
747.95 48.105184070871 9.321548450106
0 0

0101101
*
Ed
 1e-07 1 1 0
1  46 0 1.63126566315168 8.03319086233302
4 C0 14 0 26 0
0

0101000
+297 0 -299 0 *
Ve
1e-07
747.95 48.105184070871 -9.321548450106
0 0

0101101
*
Ed
 1e-07 1 1 0
1  47 0 4.52098677279072 4.90379118797866
2  38 27 0 4.52098677279072 4.90379118797866
4 C0 14 0 27 0
0

0101000
+295 0 -297 0 *
Ve
1e-07
747.95 54.193776748386 -11.29985213337
0 0

0101101
*
Ed
 1e-07 1 1 0
1  48 0 1.63126566315168 8.03319086233241
4 C0 14 0 28 0
0

0101000
+295 0 -293 0 *
Ve
1e-07
747.95 52.649823016072 -17.10696445504
0 0

0101101
*
Ed
 1e-07 1 1 0
1  49 0 4.39822971581698 4.50682591078145
2  39 29 0 4.39822971581698 4.50682591078145
4 C0 14 0 29 0
0

0101000
+291 0 -293 0 *
Ve
1e-07
747.95 50.485572815887 -22.71253032891
0 0

0101101
*
Ed
 1e-07 1 1 0
1  50 0 4.28963351927 4.39822971581698
2  40 29 0 4.28963351927 4.39822971581698
4 C0 14 0 29 0
0

0101000
+289 0 -291 0 *
Ve
1e-07
747.95 44.396980138371 -20.73422664564
0 0

0101101
*
Ed
 1e-07 1 1 0
1  51 0 1.63126566314949 8.03319086233302
4 C0 14 0 30 0
0

0101000
+287 0 -289 0 *
Ve
1e-07
747.95 33.438842723367 -35.81680886569
0 0

0101101
*
Ed
 1e-07 1 1 0
1  52 0 3.89266824207286 4.27547265726083
2  41 31 0 3.89266824207286 4.27547265726083
4 C0 14 0 31 0
0

0101000
+285 0 -287 0 *
Ve
1e-07
747.95 37.201799941726 -40.99607514855
0 0

0101101
*
Ed
 1e-07 1 1 0
1  53 0 1.63126566315127 8.0331908623371
4 C0 14 0 32 0
0

0101000
+285 0 -283 0 *
Ve
1e-07
747.95 32.539380093906 -44.78661451365
0 0

0101101
*
Ed
 1e-07 1 1 0
1  54 0 3.76991118378687 3.87850738006352
2  42 33 0 3.76991118378687 3.87850738006352
4 C0 14 0 33 0
0

0101000
+281 0 -283 0 *
Ve
1e-07
747.95 27.493596009227 -48.04949817606
0 0

0101101
*
Ed
 1e-07 1 1 0
1  55 0 3.66131498855204 3.76991118378687
2  43 33 0 3.66131498855204 3.76991118378687
4 C0 14 0 33 0
0

0101000
+279 0 -281 0 *
Ve
1e-07
747.95 23.730638790868 -42.8702318932
0 0

0101101
*
Ed
 1e-07 1 1 0
1  56 0 1.63126566315127 8.0331908623371
4 C0 14 0 34 0
0

0101000
+277 0 -279 0 *
Ve
1e-07
747.95 6 -48.63126566315
0 0

0101101
*
Ed
 1e-07 1 1 0
1  57 0 3.26434971135481 3.64715412654281
2  44 35 0 3.26434971135481 3.64715412654281
4 C0 14 0 35 0
0

0101000
+275 0 -277 0 *
Ve
1e-07
747.95 6.000000000002 -55.03319086233
0 0

0101101
*
Ed
 1e-07 1 1 0
1  58 0 1.63126566315 8.03319086233
4 C0 14 0 36 0
0

0101000
+275 0 -273 0 *
Ve
1e-07
747.95 -5.6e-14 -55.3593
0 0

0101101
*
Ed
 1e-07 1 1 0
1  59 0 3.14159265358979 3.25018884934557
2  45 37 0 3.14159265358979 3.25018884934557
4 C0 14 0 37 0
0

0101000
+271 0 -273 0 *
Ve
1e-07
747.95 -6.000000000001 -55.03319086233
0 0

0101101
*
Ed
 1e-07 1 1 0
1  60 0 3.03299645783403 3.14159265358979
2  46 37 0 3.03299645783403 3.14159265358979
4 C0 14 0 37 0
0

0101000
+269 0 -271 0 *
Ve
1e-07
747.95 -6 -48.63126566315
0 0

0101101
*
Ed
 1e-07 1 1 0
1  61 0 1.63126566315 8.03319086233
4 C0 14 0 38 0
0

0101000
+267 0 -269 0 *
Ve
1e-07
747.95 -23.73063879086 -42.8702318932
0 0

0101101
*
Ed
 1e-07 1 1 0
1  62 0 2.63603118063692 3.01883559582478
2  47 39 0 2.63603118063692 3.01883559582478
4 C0 14 0 39 0
0

0101000
+265 0 -267 0 *
Ve
1e-07
747.95 -27.49359600922 -48.04949817606
0 0

0101101
*
Ed
 1e-07 1 1 0
1  63 0 1.63126566315068 8.0331908623371
4 C0 14 0 40 0
0

0101000
+265 0 -263 0 *
Ve
1e-07
747.95 -32.5393800939 -44.78661451365
0 0

0101101
*
Ed
 1e-07 1 1 0
1  64 0 2.5132741233928 2.62187031862766
2  48 41 0 2.5132741233928 2.62187031862766
4 C0 14 0 41 0
0

0101000
+261 0 -263 0 *
Ve
1e-07
747.95 -37.20179994172 -40.99607514855
0 0

0101101
*
Ed
 1e-07 1 1 0
1  65 0 2.40467792711614 2.5132741233928
2  49 41 0 2.40467792711614 2.5132741233928
4 C0 14 0 41 0
0

0101000
+259 0 -261 0 *
Ve
1e-07
747.95 -33.43884272336 -35.81680886569
0 0

0101101
*
Ed
 1e-07 1 1 0
1  66 0 1.63126566315068 8.0331908623371
4 C0 14 0 42 0
0

0101000
+257 0 -259 0 *
Ve
1e-07
747.95 -44.39698013837 -20.73422664564
0 0

0101101
*
Ed
 1e-07 1 1 0
1  67 0 2.00771264991876 2.39051706510683
2  50 43 0 2.00771264991876 2.39051706510683
4 C0 14 0 43 0
0

0101000
+255 0 -257 0 *
Ve
1e-07
747.95 -50.48557281588 -22.71253032891
0 0

0101101
*
Ed
 1e-07 1 1 0
1  68 0 1.63126566315139 8.03319086232922
4 C0 14 0 44 0
0

0101000
+255 0 -253 0 *
Ve
1e-07
747.95 -52.6498221277 -17.10696718916
0 0

0101101
*
Ed
 1e-07 1 1 0
1  69 0 1.8849556432929 1.99355178790964
2  51 45 0 1.8849556432929 1.99355178790964
4 C0 14 0 45 0
0

0101000
+251 0 -253 0 *
Ve
1e-07
747.95 -54.19377674838 -11.29985213337
0 0

0101101
*
Ed
 1e-07 1 1 0
1  70 0 1.77635939639816 1.8849556432929
2  52 45 0 1.77635939639816 1.8849556432929
4 C0 14 0 45 0
0

0101000
+249 0 -251 0 *
Ve
1e-07
747.95 -48.10518407087 -9.321548450106
0 0

0101101
*
Ed
 1e-07 1 1 0
1  71 0 1.63126566315263 8.0331908623286
4 C0 14 0 46 0
0

0101000
+247 0 -249 0 *
Ve
1e-07
747.95 -48.10518407087 9.321548450106
0 0

0101101
*
Ed
 1e-07 1 1 0
1  72 0 1.37939411920092 1.76219853438887
2  53 47 0 1.37939411920092 1.76219853438887
4 C0 14 0 47 0
0

0101000
+245 0 -247 0 *
Ve
1e-07
747.95 -54.19377674838 11.299852133372
0 0

0101101
*
Ed
 1e-07 1 1 0
1  73 0 1.63126566315263 8.03319086232922
4 C0 14 0 48 0
0

0101000
+245 0 -243 0 *
Ve
1e-07
747.95 -52.64982208592 17.106967317746
0 0

0101101
*
Ed
 1e-07 1 1 0
1  74 0 1.25663700785461 1.3652332571916
2  54 49 0 1.25663700785461 1.3652332571916
4 C0 14 0 49 0
0

0101000
+241 0 -243 0 *
Ve
1e-07
747.95 -50.48557281588 22.712530328912
0 0

0101101
*
Ed
 1e-07 1 1 0
1  75 0 1.14804086568012 1.25663700785461
2  55 49 0 1.14804086568012 1.25663700785461
4 C0 14 0 49 0
0

0101000
+239 0 -241 0 *
Ve
1e-07
747.95 -44.39698013837 20.734226645648
0 0

0101101
*
Ed
 1e-07 1 1 0
1  76 0 1.63126566315294 8.03319086232891
4 C0 14 0 50 0
0

0101000
+237 0 -239 0 *
Ve
1e-07
747.95 -33.43884272336 35.816808865698
0 0

0101101
*
Ed
 1e-07 1 1 0
1  77 0 0.751075588482853 1.13388000367089
2  56 51 0 0.751075588482853 1.13388000367089
4 C0 14 0 51 0
0

0101000
+235 0 -237 0 *
Ve
1e-07
747.95 -37.20179994172 40.996075148553
0 0

0101101
*
Ed
 1e-07 1 1 0
1  78 0 1.63126566315068 8.03319086233305
4 C0 14 0 52 0
0

0101000
+235 0 -233 0 *
Ve
1e-07
747.95 -32.53938014377 44.786614477415
0 0

0101101
*
Ed
 1e-07 1 1 0
1  79 0 0.628318531310516 0.736914726473615
2  57 53 0 0.628318531310516 0.736914726473615
4 C0 14 0 53 0
0

0101000
+231 0 -233 0 *
Ve
1e-07
747.95 -27.49359600922 48.049498176063
0 0

0101101
*
Ed
 1e-07 1 1 0
1  80 0 0.51972233496211 0.628318531310516
2  58 53 0 0.51972233496211 0.628318531310516
4 C0 14 0 53 0
0

0101000
+229 0 -231 0 *
Ed
 1e-07 1 1 0
1  81 0 1.63126566315068 8.03319086233386
4 C0 14 0 54 0
0

0101000
+325 0 -229 0 *
Wi

0101100
-324 0 +322 0 -320 0 -318 0 -316 0 -314 0 +312 0 -310 0 -308 0 -306 0 
-304 0 +302 0 -300 0 -298 0 -296 0 -294 0 +292 0 -290 0 -288 0 -286 0 
-284 0 +282 0 -280 0 -278 0 -276 0 -274 0 +272 0 -270 0 -268 0 -266 0 
-264 0 +262 0 -260 0 -258 0 -256 0 -254 0 +252 0 -250 0 -248 0 -246 0 
-244 0 +242 0 -240 0 -238 0 -236 0 -234 0 +232 0 -230 0 -228 0 -227 0 
*
Fa
0  1e-07 14 0

0111000
+327 0 +226 0 *
Ve
1e-07
787.95 -5.999999999999 48.631265663151
0 0

0101101
*
Ve
1e-07
787.95 -23.73063879086 42.870231893207
0 0

0101101
*
Ed
 1e-07 1 1 0
1  82 0 0.122757057764993 0.505561472952804
2  59 15 0 0.122757057764993 0.505561472952804
4 C0 15 0 55 0
0

0101000
+224 0 -223 0 *
Ed
 1e-07 1 1 0
1  83 0 0 40
2  60 15 0 0 40
4 C0 15 0 16 0
0

0101000
+326 0 -224 0 *
Ed
 1e-07 1 1 0
1  84 0 0 40
2  61 15 0 0 40
4 C0 15 0 54 0
0

0101000
+325 0 -223 0 *
Wi

0101100
-222 0 -221 0 +324 0 +220 0 *
Fa
0  1e-07 15 0

0111000
+219 0 *
Ve
1e-07
787.95 -6.000000000001 55.033190862333
0 0

0101101
*
Ed
 1e-07 1 1 0
1  85 0 1.631265663151 8.033190862333
4 C0 16 0 55 0
0

0101000
+224 0 -217 0 *
Ed
 1e-07 1 1 0
1  86 0 0 40
2  62 17 0 0 40
4 C0 16 0 17 0
0

0101000
+323 0 -217 0 *
Wi

0101100
-322 0 +221 0 +216 0 -215 0 *
Fa
0  1e-07 16 0

0111000
+214 0 *
Ve
1e-07
787.95 -27.49359600922 48.049498176063
0 0

0101101
*
Ed
 1e-07 1 1 0
1  87 0 1.63126566315068 8.03319086233386
4 C0 54 0 55 0
0

0101000
+223 0 -212 0 *
Ed
 1e-07 1 1 0
1  88 0 0 40
2  63 53 0 0 40
4 C0 54 0 53 0
0

0101000
+229 0 -212 0 *
Wi

0101100
-227 0 +220 0 +211 0 -210 0 *
Fa
0  1e-07 54 0

0111000
+209 0 *
Ve
1e-07
787.95 6.000000000001 55.033190862333
0 0

0101101
*
Ve
1e-07
787.95 1.4e-14 55.3593
0 0

0101101
*
Ed
 1e-07 1 1 0
1  89 0 6.17458911142383 6.28318530717959
2  64 17 0 6.17458911142383 6.28318530717959
4 C0 17 0 55 0
0

0101000
+207 0 -206 0 *
Ed
 1e-07 1 1 0
1  90 0 0 40
2  65 17 0 0 40
4 C0 17 0 18 0
0

0101000
+319 0 -207 0 *
Ed
 1e-07 1 1 0
1  91 0 0 0.108596195755758
2  66 17 0 0 0.108596195755758
4 C0 17 0 55 0
0

0101000
+206 0 -217 0 *
Wi

0101100
-205 0 -204 0 +318 0 +320 0 +215 0 -203 0 *
Fa
0  1e-07 17 0

0111000
+202 0 *
Ve
1e-07
787.95 -37.20179994172 40.996075148553
0 0

0101101
*
Ed
 1e-07 1 1 0
1  92 0 0 40
2  67 53 0 0 40
4 C0 53 0 52 0
0

0101000
+233 0 -200 0 *
Ve
1e-07
787.95 -32.53938014377 44.786614477416
0 0

0101101
*
Ed
 1e-07 1 1 0
1  93 0 0.628318531310505 0.736914726473615
2  68 53 0 0.628318531310505 0.736914726473615
4 C0 53 0 55 0
0

0101000
+198 0 -200 0 *
Ed
 1e-07 1 1 0
1  94 0 0.51972233496211 0.628318531310505
2  69 53 0 0.51972233496211 0.628318531310505
4 C0 53 0 55 0
0

0101000
+212 0 -198 0 *
Wi

0101100
+230 0 +199 0 -197 0 -196 0 -210 0 +228 0 *
Fa
0  1e-07 53 0

0111000
+195 0 *
Ve
1e-07
787.95 5.999999999999 48.631265663151
0 0

0101101
*
Ed
 1e-07 1 1 0
1  95 0 0 40
2  70 19 0 0 40
4 C0 18 0 19 0
0

0101000
+317 0 -193 0 *
Ed
 1e-07 1 1 0
1  96 0 1.631265663151 8.033190862333
4 C0 18 0 55 0
0

0101000
+193 0 -207 0 *
Wi

0101100
-316 0 +192 0 +191 0 -204 0 *
Fa
0  1e-07 18 0

0111000
+190 0 *
Ve
1e-07
787.95 -33.43884272336 35.816808865698
0 0

0101101
*
Ed
 1e-07 1 1 0
1  97 0 0 40
2  71 51 0 0 40
4 C0 52 0 51 0
0

0101000
+235 0 -188 0 *
Ed
 1e-07 1 1 0
1  98 0 1.63126566315068 8.03319086233305
4 C0 52 0 55 0
0

0101000
+188 0 -200 0 *
Wi

0101100
-232 0 +187 0 +186 0 -199 0 *
Fa
0  1e-07 52 0

0111000
+185 0 *
Ve
1e-07
787.95 23.730638790868 42.870231893207
0 0

0101101
*
Ed
 1e-07 1 1 0
1  99 0 5.77762383422664 6.16042824941459
2  72 19 0 5.77762383422664 6.16042824941459
4 C0 19 0 55 0
0

0101000
+183 0 -193 0 *
Ed
 1e-07 1 1 0
1  100 0 0 40
2  73 19 0 0 40
4 C0 19 0 20 0
0

0101000
+315 0 -183 0 *
Wi

0101100
+192 0 -182 0 -181 0 +314 0 *
Fa
0  1e-07 19 0

0111000
+180 0 *
Ve
1e-07
787.95 -44.39698013837 20.734226645648
0 0

0101101
*
Ed
 1e-07 1 1 0
1  101 0 0.751075588482853 1.13388000367089
2  74 51 0 0.751075588482853 1.13388000367089
4 C0 51 0 55 0
0

0101000
+188 0 -178 0 *
Ed
 1e-07 1 1 0
1  102 0 0 40
2  75 51 0 0 40
4 C0 51 0 50 0
0

0101000
+237 0 -178 0 *
Wi

0101100
-177 0 -187 0 +234 0 +176 0 *
Fa
0  1e-07 51 0

0111000
+175 0 *
Ve
1e-07
787.95 27.493596009227 48.049498176063
0 0

0101101
*
Ed
 1e-07 1 1 0
1  103 0 1.63126566315127 8.03319086233387
4 C0 20 0 55 0
0

0101000
+183 0 -173 0 *
Ed
 1e-07 1 1 0
1  104 0 0 40
2  76 21 0 0 40
4 C0 20 0 21 0
0

0101000
+313 0 -173 0 *
Wi

0101100
-312 0 +181 0 +172 0 -171 0 *
Fa
0  1e-07 20 0

0111000
+170 0 *
Ve
1e-07
787.95 -50.48557281588 22.712530328912
0 0

0101101
*
Ed
 1e-07 1 1 0
1  105 0 1.63126566315294 8.03319086232891
4 C0 50 0 55 0
0

0101000
+178 0 -168 0 *
Ed
 1e-07 1 1 0
1  106 0 0 40
2  77 49 0 0 40
4 C0 50 0 49 0
0

0101000
+239 0 -168 0 *
Wi

0101100
-236 0 +176 0 +167 0 -166 0 *
Fa
0  1e-07 50 0

0111000
+165 0 *
Ve
1e-07
787.95 37.201799941726 40.996075148552
0 0

0101101
*
Ve
1e-07
787.95 32.539379832768 44.786614703378
0 0

0101101
*
Ed
 1e-07 1 1 0
1  107 0 5.54627058070588 5.65486678281323
2  78 21 0 5.54627058070588 5.65486678281323
4 C0 21 0 55 0
0

0101000
+163 0 -162 0 *
Ed
 1e-07 1 1 0
1  108 0 0 40
2  79 21 0 0 40
4 C0 21 0 22 0
0

0101000
+309 0 -163 0 *
Ed
 1e-07 1 1 0
1  109 0 5.65486678281323 5.76346297221737
2  80 21 0 5.65486678281323 5.76346297221737
4 C0 21 0 55 0
0

0101000
+162 0 -173 0 *
Wi

0101100
-161 0 -160 0 +308 0 +310 0 +171 0 -159 0 *
Fa
0  1e-07 21 0

0111000
+158 0 *
Ve
1e-07
787.95 -54.19377674838 11.299852133372
0 0

0101101
*
Ed
 1e-07 1 1 0
1  110 0 0 40
2  81 49 0 0 40
4 C0 49 0 48 0
0

0101000
+243 0 -156 0 *
Ve
1e-07
787.95 -52.64982210401 17.106967262057
0 0

0101101
*
Ed
 1e-07 1 1 0
1  111 0 1.25663700891231 1.3652332571916
2  82 49 0 1.25663700891231 1.3652332571916
4 C0 49 0 55 0
0

0101000
+154 0 -156 0 *
Ed
 1e-07 1 1 0
1  112 0 1.14804086568012 1.25663700891231
2  83 49 0 1.14804086568012 1.25663700891231
4 C0 49 0 55 0
0

0101000
+168 0 -154 0 *
Wi

0101100
+240 0 +155 0 -153 0 -152 0 -166 0 +238 0 *
Fa
0  1e-07 49 0

0111000
+151 0 *
Ve
1e-07
787.95 33.438842723367 35.816808865698
0 0

0101101
*
Ed
 1e-07 1 1 0
1  113 0 0 40
2  84 23 0 0 40
4 C0 22 0 23 0
0

0101000
+307 0 -149 0 *
Ed
 1e-07 1 1 0
1  114 0 1.63126566315127 8.03319086233225
4 C0 22 0 55 0
0

0101000
+149 0 -163 0 *
Wi

0101100
-306 0 +148 0 +147 0 -160 0 *
Fa
0  1e-07 22 0

0111000
+146 0 *
Ve
1e-07
787.95 -48.10518407087 9.321548450106
0 0

0101101
*
Ed
 1e-07 1 1 0
1  115 0 0 40
2  85 47 0 0 40
4 C0 48 0 47 0
0

0101000
+245 0 -144 0 *
Ed
 1e-07 1 1 0
1  116 0 1.63126566315263 8.03319086232922
4 C0 48 0 55 0
0

0101000
+144 0 -156 0 *
Wi

0101100
-242 0 +143 0 +142 0 -155 0 *
Fa
0  1e-07 48 0

0111000
+141 0 *
Ve
1e-07
787.95 44.396980138371 20.734226645648
0 0

0101101
*
Ed
 1e-07 1 1 0
1  117 0 5.14930530350869 5.53210971869663
2  86 23 0 5.14930530350869 5.53210971869663
4 C0 23 0 55 0
0

0101000
+139 0 -149 0 *
Ed
 1e-07 1 1 0
1  118 0 0 40
2  87 23 0 0 40
4 C0 23 0 24 0
0

0101000
+305 0 -139 0 *
Wi

0101100
+148 0 -138 0 -137 0 +304 0 *
Fa
0  1e-07 23 0

0111000
+136 0 *
Ve
1e-07
787.95 -48.10518407087 -9.321548450106
0 0

0101101
*
Ed
 1e-07 1 1 0
1  119 0 1.37939411920092 1.76219853438887
2  88 47 0 1.37939411920092 1.76219853438887
4 C0 47 0 55 0
0

0101000
+144 0 -134 0 *
Ed
 1e-07 1 1 0
1  120 0 0 40
2  89 47 0 0 40
4 C0 47 0 46 0
0

0101000
+247 0 -134 0 *
Wi

0101100
-133 0 -143 0 +244 0 +132 0 *
Fa
0  1e-07 47 0

0111000
+131 0 *
Ve
1e-07
787.95 50.485572815887 22.712530328912
0 0

0101101
*
Ed
 1e-07 1 1 0
1  121 0 1.63126566315104 8.03319086233271
4 C0 24 0 55 0
0

0101000
+139 0 -129 0 *
Ed
 1e-07 1 1 0
1  122 0 0 40
2  90 25 0 0 40
4 C0 24 0 25 0
0

0101000
+303 0 -129 0 *
Wi

0101100
-302 0 +137 0 +128 0 -127 0 *
Fa
0  1e-07 24 0

0111000
+126 0 *
Ve
1e-07
787.95 -54.19377674838 -11.29985213337
0 0

0101101
*
Ed
 1e-07 1 1 0
1  123 0 1.63126566315263 8.0331908623286
4 C0 46 0 55 0
0

0101000
+134 0 -124 0 *
Ed
 1e-07 1 1 0
1  124 0 0 40
2  91 45 0 0 40
4 C0 46 0 45 0
0

0101000
+249 0 -124 0 *
Wi

0101100
-246 0 +132 0 +123 0 -122 0 *
Fa
0  1e-07 46 0

0111000
+121 0 *
Ve
1e-07
787.95 54.193776748386 11.299852133372
0 0

0101101
*
Ve
1e-07
787.95 52.649823016073 17.106964455047
0 0

0101101
*
Ed
 1e-07 1 1 0
1  125 0 4.91795204998797 5.02654824495251
2  92 25 0 4.91795204998797 5.02654824495251
4 C0 25 0 55 0
0

0101000
+119 0 -118 0 *
Ed
 1e-07 1 1 0
1  126 0 0 40
2  93 25 0 0 40
4 C0 25 0 26 0
0

0101000
+299 0 -119 0 *
Ed
 1e-07 1 1 0
1  127 0 5.02654824495251 5.13514444149941
2  94 25 0 5.02654824495251 5.13514444149941
4 C0 25 0 55 0
0

0101000
+118 0 -129 0 *
Wi

0101100
-117 0 -116 0 +298 0 +300 0 +127 0 -115 0 *
Fa
0  1e-07 25 0

0111000
+114 0 *
Ve
1e-07
787.95 -50.48557281588 -22.71253032891
0 0

0101101
*
Ed
 1e-07 1 1 0
1  128 0 0 40
2  95 45 0 0 40
4 C0 45 0 44 0
0

0101000
+253 0 -112 0 *
Ve
1e-07
787.95 -52.64982208033 -17.10696733495
0 0

0101101
*
Ed
 1e-07 1 1 0
1  129 0 1.88495564606195 1.99355178790964
2  96 45 0 1.88495564606195 1.99355178790964
4 C0 45 0 55 0
0

0101000
+110 0 -112 0 *
Ed
 1e-07 1 1 0
1  130 0 1.77635939639816 1.88495564606195
2  97 45 0 1.77635939639816 1.88495564606195
4 C0 45 0 55 0
0

0101000
+124 0 -110 0 *
Wi

0101100
+250 0 +111 0 -109 0 -108 0 -122 0 +248 0 *
Fa
0  1e-07 45 0

0111000
+107 0 *
Ve
1e-07
787.95 48.105184070871 9.321548450106
0 0

0101101
*
Ed
 1e-07 1 1 0
1  131 0 0 40
2  98 27 0 0 40
4 C0 26 0 27 0
0

0101000
+297 0 -105 0 *
Ed
 1e-07 1 1 0
1  132 0 1.63126566315168 8.03319086233302
4 C0 26 0 55 0
0

0101000
+105 0 -119 0 *
Wi

0101100
-296 0 +104 0 +103 0 -116 0 *
Fa
0  1e-07 26 0

0111000
+102 0 *
Ve
1e-07
787.95 -44.39698013837 -20.73422664564
0 0

0101101
*
Ed
 1e-07 1 1 0
1  133 0 0 40
2  99 43 0 0 40
4 C0 44 0 43 0
0

0101000
+255 0 -100 0 *
Ed
 1e-07 1 1 0
1  134 0 1.63126566315139 8.03319086232922
4 C0 44 0 55 0
0

0101000
+100 0 -112 0 *
Wi

0101100
-252 0 +99 0 +98 0 -111 0 *
Fa
0  1e-07 44 0

0111000
+97 0 *
Ve
1e-07
787.95 48.105184070871 -9.321548450106
0 0

0101101
*
Ed
 1e-07 1 1 0
1  135 0 4.52098677279072 4.90379118797866
2  100 27 0 4.52098677279072 4.90379118797866
4 C0 27 0 55 0
0

0101000
+95 0 -105 0 *
Ed
 1e-07 1 1 0
1  136 0 0 40
2  101 27 0 0 40
4 C0 27 0 28 0
0

0101000
+295 0 -95 0 *
Wi

0101100
+104 0 -94 0 -93 0 +294 0 *
Fa
0  1e-07 27 0

0111000
+92 0 *
Ve
1e-07
787.95 -33.43884272336 -35.81680886569
0 0

0101101
*
Ed
 1e-07 1 1 0
1  137 0 2.00771264991876 2.39051706510683
2  102 43 0 2.00771264991876 2.39051706510683
4 C0 43 0 55 0
0

0101000
+100 0 -90 0 *
Ed
 1e-07 1 1 0
1  138 0 0 40
2  103 43 0 0 40
4 C0 43 0 42 0
0

0101000
+257 0 -90 0 *
Wi

0101100
-89 0 -99 0 +254 0 +88 0 *
Fa
0  1e-07 43 0

0111000
+87 0 *
Ve
1e-07
787.95 54.193776748386 -11.29985213337
0 0

0101101
*
Ed
 1e-07 1 1 0
1  139 0 1.63126566315168 8.03319086233241
4 C0 28 0 55 0
0

0101000
+95 0 -85 0 *
Ed
 1e-07 1 1 0
1  140 0 0 40
2  104 29 0 0 40
4 C0 28 0 29 0
0

0101000
+293 0 -85 0 *
Wi

0101100
-292 0 +93 0 +84 0 -83 0 *
Fa
0  1e-07 28 0

0111000
+82 0 *
Ve
1e-07
787.95 -37.20179994172 -40.99607514855
0 0

0101101
*
Ed
 1e-07 1 1 0
1  141 0 1.63126566315068 8.0331908623371
4 C0 42 0 55 0
0

0101000
+90 0 -80 0 *
Ed
 1e-07 1 1 0
1  142 0 0 40
2  105 41 0 0 40
4 C0 42 0 41 0
0

0101000
+259 0 -80 0 *
Wi

0101100
-256 0 +88 0 +79 0 -78 0 *
Fa
0  1e-07 42 0

0111000
+77 0 *
Ve
1e-07
787.95 50.485572815887 -22.71253032891
0 0

0101101
*
Ve
1e-07
787.95 52.649823016073 -17.10696445504
0 0

0101101
*
Ed
 1e-07 1 1 0
1  143 0 4.28963351927 4.39822971581699
2  106 29 0 4.28963351927 4.39822971581699
4 C0 29 0 55 0
0

0101000
+75 0 -74 0 *
Ed
 1e-07 1 1 0
1  144 0 0 40
2  107 29 0 0 40
4 C0 29 0 30 0
0

0101000
+289 0 -75 0 *
Ed
 1e-07 1 1 0
1  145 0 4.39822971581699 4.50682591078145
2  108 29 0 4.39822971581699 4.50682591078145
4 C0 29 0 55 0
0

0101000
+74 0 -85 0 *
Wi

0101100
-73 0 -72 0 +288 0 +290 0 +83 0 -71 0 *
Fa
0  1e-07 29 0

0111000
+70 0 *
Ve
1e-07
787.95 -27.49359600922 -48.04949817606
0 0

0101101
*
Ed
 1e-07 1 1 0
1  146 0 0 40
2  109 41 0 0 40
4 C0 41 0 40 0
0

0101000
+263 0 -68 0 *
Ve
1e-07
787.95 -32.5393800939 -44.78661451365
0 0

0101101
*
Ed
 1e-07 1 1 0
1  147 0 2.5132741233928 2.62187031862766
2  110 41 0 2.5132741233928 2.62187031862766
4 C0 41 0 55 0
0

0101000
+66 0 -68 0 *
Ed
 1e-07 1 1 0
1  148 0 2.40467792711614 2.5132741233928
2  111 41 0 2.40467792711614 2.5132741233928
4 C0 41 0 55 0
0

0101000
+80 0 -66 0 *
Wi

0101100
+260 0 +67 0 -65 0 -64 0 -78 0 +258 0 *
Fa
0  1e-07 41 0

0111000
+63 0 *
Ve
1e-07
787.95 44.396980138371 -20.73422664564
0 0

0101101
*
Ed
 1e-07 1 1 0
1  149 0 0 40
2  112 31 0 0 40
4 C0 30 0 31 0
0

0101000
+287 0 -61 0 *
Ed
 1e-07 1 1 0
1  150 0 1.63126566314949 8.03319086233302
4 C0 30 0 55 0
0

0101000
+61 0 -75 0 *
Wi

0101100
-286 0 +60 0 +59 0 -72 0 *
Fa
0  1e-07 30 0

0111000
+58 0 *
Ve
1e-07
787.95 -23.73063879086 -42.8702318932
0 0

0101101
*
Ed
 1e-07 1 1 0
1  151 0 0 40
2  113 39 0 0 40
4 C0 40 0 39 0
0

0101000
+265 0 -56 0 *
Ed
 1e-07 1 1 0
1  152 0 1.63126566315068 8.0331908623371
4 C0 40 0 55 0
0

0101000
+56 0 -68 0 *
Wi

0101100
-262 0 +55 0 +54 0 -67 0 *
Fa
0  1e-07 40 0

0111000
+53 0 *
Ve
1e-07
787.95 33.438842723367 -35.81680886569
0 0

0101101
*
Ed
 1e-07 1 1 0
1  153 0 3.89266824207286 4.27547265726083
2  114 31 0 3.89266824207286 4.27547265726083
4 C0 31 0 55 0
0

0101000
+51 0 -61 0 *
Ed
 1e-07 1 1 0
1  154 0 0 40
2  115 31 0 0 40
4 C0 31 0 32 0
0

0101000
+285 0 -51 0 *
Wi

0101100
+60 0 -50 0 -49 0 +284 0 *
Fa
0  1e-07 31 0

0111000
+48 0 *
Ve
1e-07
787.95 -6 -48.63126566315
0 0

0101101
*
Ed
 1e-07 1 1 0
1  155 0 2.63603118063692 3.01883559582478
2  116 39 0 2.63603118063692 3.01883559582478
4 C0 39 0 55 0
0

0101000
+56 0 -46 0 *
Ed
 1e-07 1 1 0
1  156 0 0 40
2  117 39 0 0 40
4 C0 39 0 38 0
0

0101000
+267 0 -46 0 *
Wi

0101100
-45 0 -55 0 +264 0 +44 0 *
Fa
0  1e-07 39 0

0111000
+43 0 *
Ve
1e-07
787.95 37.201799941726 -40.99607514855
0 0

0101101
*
Ed
 1e-07 1 1 0
1  157 0 1.63126566315127 8.0331908623371
4 C0 32 0 55 0
0

0101000
+51 0 -41 0 *
Ed
 1e-07 1 1 0
1  158 0 0 40
2  118 33 0 0 40
4 C0 32 0 33 0
0

0101000
+283 0 -41 0 *
Wi

0101100
-282 0 +49 0 +40 0 -39 0 *
Fa
0  1e-07 32 0

0111000
+38 0 *
Ve
1e-07
787.95 -6.000000000001 -55.03319086233
0 0

0101101
*
Ed
 1e-07 1 1 0
1  159 0 1.63126566315 8.03319086233
4 C0 38 0 55 0
0

0101000
+46 0 -36 0 *
Ed
 1e-07 1 1 0
1  160 0 0 40
2  119 37 0 0 40
4 C0 38 0 37 0
0

0101000
+269 0 -36 0 *
Wi

0101100
-266 0 +44 0 +35 0 -34 0 *
Fa
0  1e-07 38 0

0111000
+33 0 *
Ve
1e-07
787.95 27.493596009227 -48.04949817606
0 0

0101101
*
Ve
1e-07
787.95 32.539379913464 -44.78661464474
0 0

0101101
*
Ed
 1e-07 1 1 0
1  161 0 3.66131498855204 3.76991117975804
2  120 33 0 3.66131498855204 3.76991117975804
4 C0 33 0 55 0
0

0101000
+31 0 -30 0 *
Ed
 1e-07 1 1 0
1  162 0 0 40
2  121 33 0 0 40
4 C0 33 0 34 0
0

0101000
+279 0 -31 0 *
Ed
 1e-07 1 1 0
1  163 0 3.76991117975804 3.87850738006352
2  122 33 0 3.76991117975804 3.87850738006352
4 C0 33 0 55 0
0

0101000
+30 0 -41 0 *
Wi

0101100
-29 0 -28 0 +278 0 +280 0 +39 0 -27 0 *
Fa
0  1e-07 33 0

0111000
+26 0 *
Ve
1e-07
787.95 -5.6e-14 -55.3593
0 0

0101101
*
Ve
1e-07
787.95 6.000000000002 -55.03319086233
0 0

0101101
*
Ed
 1e-07 1 1 0
1  164 0 3.14159265358979 3.25018884934557
2  123 37 0 3.14159265358979 3.25018884934557
4 C0 37 0 55 0
0

0101000
+24 0 -23 0 *
Ed
 1e-07 1 1 0
1  165 0 3.03299645783403 3.14159265358979
2  124 37 0 3.03299645783403 3.14159265358979
4 C0 37 0 55 0
0

0101000
+36 0 -24 0 *
Ed
 1e-07 1 1 0
1  166 0 0 40
2  125 37 0 0 40
4 C0 37 0 36 0
0

0101000
+273 0 -23 0 *
Wi

0101100
-22 0 -21 0 -34 0 +268 0 +270 0 +20 0 *
Fa
0  1e-07 37 0

0111000
+19 0 *
Ve
1e-07
787.95 23.730638790868 -42.8702318932
0 0

0101101
*
Ed
 1e-07 1 1 0
1  167 0 0 40
2  126 35 0 0 40
4 C0 34 0 35 0
0

0101000
+277 0 -17 0 *
Ed
 1e-07 1 1 0
1  168 0 1.63126566315127 8.0331908623371
4 C0 34 0 55 0
0

0101000
+17 0 -31 0 *
Wi

0101100
-276 0 +16 0 +15 0 -28 0 *
Fa
0  1e-07 34 0

0111000
+14 0 *
Ve
1e-07
787.95 6 -48.63126566315
0 0

0101101
*
Ed
 1e-07 1 1 0
1  169 0 0 40
2  127 35 0 0 40
4 C0 36 0 35 0
0

0101000
+275 0 -12 0 *
Ed
 1e-07 1 1 0
1  170 0 1.63126566315 8.03319086233
4 C0 36 0 55 0
0

0101000
+12 0 -23 0 *
Wi

0101100
-272 0 +11 0 +10 0 -20 0 *
Fa
0  1e-07 36 0

0111000
+9 0 *
Ed
 1e-07 1 1 0
1  171 0 3.26434971135481 3.64715412654281
2  128 35 0 3.26434971135481 3.64715412654281
4 C0 35 0 55 0
0

0101000
+12 0 -17 0 *
Wi

0101100
+16 0 -7 0 -11 0 +274 0 *
Fa
0  1e-07 35 0

0111000
+6 0 *
Wi

0101100
-216 0 +222 0 +211 0 +196 0 +197 0 -186 0 +177 0 +167 0 +152 0 +153 0 
-142 0 +133 0 +123 0 +108 0 +109 0 -98 0 +89 0 +79 0 +64 0 +65 0 
-54 0 +45 0 +35 0 +21 0 +22 0 -10 0 +7 0 +15 0 +29 0 +27 0 
-40 0 +50 0 +59 0 +73 0 +71 0 -84 0 +94 0 +103 0 +117 0 +115 0 
-128 0 +138 0 +147 0 +161 0 +159 0 -172 0 +182 0 +191 0 +205 0 +203 0 
*
Fa
0  1e-07 55 0

0111000
+4 0 *
Sh

0101100
+385 0 -380 0 -373 0 +368 0 +363 0 -358 0 +353 0 +348 0 +343 0 +340 0 
+335 0 +333 0 -328 0 +225 0 +218 0 +213 0 -208 0 +201 0 +194 0 -189 0 
+184 0 +179 0 +174 0 +169 0 -164 0 +157 0 +150 0 -145 0 +140 0 +135 0 
+130 0 +125 0 -120 0 +113 0 +106 0 -101 0 +96 0 +91 0 +86 0 +81 0 
-76 0 +69 0 +62 0 -57 0 +52 0 +47 0 +42 0 +37 0 -32 0 +25 0 
+18 0 -13 0 +8 0 +5 0 +3 0 *
So

0100000
+2 0 *

+1 0 