DBRep_DrawableShape

CASCADE Topology V1, (c) Matra-Datavision
Locations 0
Curve2ds 8
1 0 1 1 0 
1 0 1 1 0 
7 0 0  3 25 23  0 7.5404761904283077  0.047599888690755709 7.5405075795087484  0.14279966607226521 7.5341877936832171  0.28559933214452665 7.5061656098151994  0.42839899821680183 7.46006092089576  0.57119866428906219 7.3968418806325316  0.71399833036132732 7.3177875163682273  0.85679799643359744 7.2245092718238544  0.99959766250585613 7.1189054537182326  1.1423973285780968 7.0031260038067042  1.2851969946503841 6.879527816935977  1.4279966607226302 6.7506270067009275  1.5707963267948966 6.6190476189999563  1.7135959928671631 6.4874682312989869  1.8563956589394091 6.3585674210639365  1.9991953250116963 6.2349692341932093  2.1419949910839371 6.1191897842816836  2.2847946571561959 6.01358596617606  2.4275943232284658 5.9203077216316888  2.5703939893007322 5.8412533573673828  2.713193655372991 5.7780343171041526  2.8559933214452666 5.7319296281847141  2.998792987517529 5.7039074443166982  3.0939927648990371 5.6975876584911651  3.1415926535897931 5.6976190475716066 
 0 4 0.14279966607226333 1 0.28559933214452665 1 0.42839899821678995 1 0.5711986642890533 1 0.71399833036131666 1 0.8567979964335799 1 0.99959766250584325 1 1.1423973285781066 1 1.2851969946503699 1 1.4279966607226333 1 1.5707963267948966 1 1.7135959928671598 1 1.8563956589394233 1 1.9991953250116865 1 2.14199499108395 1 2.2847946571562132 1 2.4275943232284765 1 2.5703939893007397 1 2.7131936553730034 1 2.8559933214452666 1 2.9987929875175299 1 3.1415926535897931 4
7 0 0  3 25 23  0 5.6976190475716066  0.047599888690755564 5.6975876584911651  0.14279966607226502 5.7039074443166973  0.28559933214452748 5.731929628184715  0.42839899821679972 5.7780343171041526  0.57119866428906241 5.8412533573673828  0.71399833036132732 5.9203077216316888  0.85679799643359766 6.0135859661760582  0.99959766250585569 6.1191897842816827  1.1423973285780971 6.2349692341932119  1.2851969946503838 6.3585674210639365  1.4279966607226302 6.4874682312989851  1.5707963267948966 6.6190476189999563  1.7135959928671625 6.7506270067009257  1.8563956589394095 6.879527816935977  1.9991953250116949 7.0031260038067051  2.141994991083938 7.1189054537182299  2.284794657156195 7.2245092718238553  2.4275943232284671 7.3177875163682273  2.5703939893007304 7.3968418806325307  2.7131936553729918 7.4600609208957627  2.8559933214452662 7.5061656098151985  2.9987929875175281 7.5341877936832171  3.0939927648990371 7.5405075795087493  3.1415926535897931 7.5404761904283077 
 3.1415926535897931 4 3.2843923196620564 1 3.4271919857343196 1 3.5699916518065828 1 3.7127913178788465 1 3.8555909839511098 1 3.998390650023373 1 4.1411903160956367 1 4.2839899821678999 1 4.4267896482401632 1 4.5695893143124264 1 4.7123889803846897 1 4.8551886464569529 1 4.9979883125292162 1 5.1407879786014794 1 5.2835876446737426 1 5.4263873107460068 1 5.5691869768182691 1 5.7119866428905333 1 5.8547863089627965 1 5.9975859750350597 1 6.140385641107323 1 6.2831853071795862 4
1 3.1415926535897931 0 0 1 
1 0 0 0 1 
1 0 0 0 1 
1 3.1415926535897931 0 0 1 
Curves 18
1 1582.081791354 101 1177.8698292219999 0 1 0 
1 1582.081791354 135 1177.8698292219999 1 0 0 
1 1586.272267545 101 1177.8698292219999 0 1 0 
1 1582.081791354 101 1177.8698292219999 1 0 0 
1 1582.081791354 101 1207.8698292219999 0 1 0 
1 1582.081791354 135 1207.8698292219999 0 0 -1 
1 1582.081791354 101 1207.8698292219999 0 0 -1 
2 1582.081791354 118 1192.8698292219999 1 0 0 0 -1.2e-16 -1 0 1 -1.2e-16 9.6750000000000007
2 1582.081791354 118 1192.8698292219999 1 0 -0 0 0 1 0 -1 0 9.6750000000000007
1 1586.272267545 135 1177.8698292219999 0.094809092627985536 0 0.9954954725939531 
1 1589.1294104020001 101 1207.8698292219999 0 1 0 
1 1586.272267545 101 1177.8698292219999 0.094809092627985536 0 0.9954954725939531 
3 1587.7008389729999 118 1192.8698292219999 0.9954954725939531 0 -0.094809092627985536 0.094809092627985536 0 0.9954954725939531 0 -1 0 9.7187785041249999 9.6750000000000007
3 1587.7008389729999 118 1192.8698292219999 0.9954954725939531 0 -0.094809092627985536 0.094809092627985536 0 0.9954954725939531 0 -1 0 9.7187785041249999 9.6750000000000007
1 1589.1294104020001 101 1207.8698292219999 -1 0 0 
1 1589.1294104020001 135 1207.8698292219999 -1 0 0 
1 1581.081791354 118 1202.5448292220001 1 0 0 
1 1581.081791354 118 1183.194829222 1 0 0 
Polygon3D 0
PolygonOnTriangulations 0
Surfaces 8
1 1582.081791354 101 1177.8698292219999 0 0 -1 1 0 0 0 -1 0 
1 1582.081791354 101 1207.8698292219999 -1 0 0 0 0 -1 -0 -1 -0 
1 1584.9252519889999 135 1193.4702892969999 -0 -1 -0 0 0 -1 1 -0 0 
1 1586.272267545 101 1177.8698292219999 0.9954954725939531 0 -0.094809092627985536 0.094809092627985536 0 0.9954954725939531 0 -1 0 
1 1584.9252519889999 101 1193.4702892969999 -0 -1 -0 0 0 -1 1 -0 0 
1 1589.1294104020001 101 1207.8698292219999 0 0 1 -1 0 0 0 -1 0 
2 1581.081791354 118 1192.8698292219999 1 0 0 0 0 -1 -0 1 0 9.6750000000000007
2 1581.081791354 118 1192.8698292219999 1 0 0 0 0 1 0 -1 0 9.6750000000000007
Triangulations 0

TShapes 50
Ve
1e-07
1582.081791354 101 1177.869829222
0 0

0101101
*
Ve
1e-07
1582.081791354 135 1177.869829222
0 0

0101101
*
Ed
 1e-07 1 1 0
1  1 0 0 34
4 C0 1 0 2 0
0

0101000
+50 0 -49 0 *
Ve
1e-07
1586.272267545 135 1177.869829222
0 0

0101101
*
Ed
 1e-07 1 1 0
1  2 0 0 4.19047619100002
4 C0 1 0 3 0
0

0101000
+49 0 -47 0 *
Ve
1e-07
1586.272267545 101 1177.869829222
0 0

0101101
*
Ed
 1e-07 1 1 0
1  3 0 0 34
4 C0 1 0 4 0
0

0101000
+45 0 -47 0 *
Ed
 1e-07 1 1 0
1  4 0 0 4.19047619100002
4 C0 1 0 5 0
0

0101000
+50 0 -45 0 *
Wi

0101100
+48 0 +46 0 -44 0 -43 0 *
Fa
0  1e-07 1 0

0111000
+42 0 *
Ve
1e-07
1582.081791354 101 1207.869829222
0 0

0101101
*
Ve
1e-07
1582.081791354 135 1207.869829222
0 0

0101101
*
Ed
 1e-07 1 1 0
1  5 0 0 34
4 C0 2 0 6 0
0

0101000
+40 0 -39 0 *
Ed
 1e-07 1 1 0
1  6 0 0 30
4 C0 2 0 3 0
0

0101000
+39 0 -49 0 *
Ed
 1e-07 1 1 0
1  7 0 0 30
4 C0 2 0 5 0
0

0101000
+40 0 -50 0 *
Wi

0101100
+38 0 +37 0 -48 0 -36 0 *
Ve
1e-07
1582.081791354 118 1183.194829222
0 0

0101101
*
Ve
1e-07
1582.081791354 118 1202.544829222
0 0

0101101
*
Ed
 1e-07 1 1 0
1  8 0 0 3.14159265358979
2  1 7 0 0 3.14159265358979
4 C0 2 0 7 0
0

0101000
+34 0 -33 0 *
Ed
 1e-07 1 1 0
1  9 0 0 3.14159265358979
2  2 8 0 0 3.14159265358979
4 C0 2 0 8 0
0

0101000
+33 0 -34 0 *
Wi

0101100
+32 0 +31 0 *
Fa
0  1e-07 2 0

0111000
+35 0 +30 0 *
Ve
1e-07
1589.129410402 135 1207.869829222
0 0

0101101
*
Ed
 1e-07 1 1 0
1  10 0 0 30.1357472995993
4 C0 4 0 3 0
0

0101000
+47 0 -28 0 *
Ve
1e-07
1589.129410402 101 1207.869829222
0 0

0101101
*
Ed
 1e-07 1 1 0
1  11 0 0 34
4 C0 4 0 6 0
0

0101000
+26 0 -28 0 *
Ed
 1e-07 1 1 0
1  12 0 0 30.1357472995993
4 C0 4 0 5 0
0

0101000
+45 0 -26 0 *
Wi

0101100
+44 0 +27 0 -25 0 -24 0 *
Ve
1e-07
1588.622267545 118 1202.544829222
0 0

0101101
*
Ve
1e-07
1586.779410402 118 1183.194829222
0 0

0101101
*
Ed
 1e-07 1 1 0
1  13 0 0 3.14159265358979
2  3 8 0 0 3.14159265358979
4 C0 4 0 8 0
0

0101000
+22 0 -21 0 *
Ed
 1e-07 1 1 0
1  14 0 3.14159265358979 6.28318530717959
2  4 7 0 3.14159265358979 6.28318530717959
4 C0 4 0 7 0
0

0101000
+21 0 -22 0 *
Wi

0101100
-20 0 -19 0 *
Fa
0  1e-07 4 0

0111000
+23 0 +18 0 *
Ed
 1e-07 1 1 0
1  15 0 0 7.04761904800012
4 C0 5 0 6 0
0

0101000
+26 0 -40 0 *
Wi

0101100
+43 0 +24 0 +16 0 +36 0 *
Fa
0  1e-07 5 0

0111000
+15 0 *
Ed
 1e-07 1 1 0
1  16 0 0 7.04761904800012
4 C0 3 0 6 0
0

0101000
+28 0 -39 0 *
Wi

0101100
+46 0 +27 0 +13 0 +37 0 *
Fa
0  1e-07 3 0

0111000
+12 0 *
Wi

0101100
+25 0 +13 0 -38 0 -16 0 *
Fa
0  1e-07 6 0

0111000
+10 0 *
Ed
 1e-07 1 1 0
1  17 0 1 7.54047619100015
2  5 7 0 1 7.54047619100015
2  6 8 0 1 7.54047619100015
4 CN 7 0 8 0
0

0101000
+33 0 -22 0 *
Ed
 1e-07 1 1 0
1  18 0 1 5.69761904799998
2  7 7 0 1 5.69761904799998
2  8 8 0 1 5.69761904799998
4 CN 7 0 8 0
0

0101000
+34 0 -21 0 *
Wi

0101100
+8 0 -19 0 -7 0 +32 0 *
Fa
0  1e-07 7 0

0111000
+6 0 *
Wi

0101100
+7 0 -20 0 -8 0 +31 0 *
Fa
0  1e-07 8 0

0111000
+4 0 *
Sh

0101100
+41 0 +29 0 +17 0 +14 0 -11 0 +9 0 -5 0 -3 0 *
So

0100000
+2 0 *

+1 0 