
CASCADE Topology V1, (c) Matra-Datavision
Locations 3
1
1.000000000000000 0.000000000000000 0.000000000000000 0.000000000000000 
0.000000000000000 1.000000000000000 0.000000000000000 0.000000000000000 
0.000000000000000 0.000000000000000 1.000000000000000 0.000000000000000 
1
1.000000000000000 0.000000000000000 0.000000000000000 0.000000000000000 
0.000000000000000 1.000000000000000 0.000000000000000 0.000000000000000 
0.000000000000000 0.000000000000000 1.000000000000000 0.000000000000000 
2  2 -1 0
Curve2ds 12
1 0.00000000000000000 30.72857142857134249 1.00000000000000000 0.00000000000000000 
1 6.28318530717958623 -0.00000000000000000 0.00000000000000000 1.00000000000000000 
1 0.00000000000000000 -0.00000000000000000 0.00000000000000000 1.00000000000000000 
1 0.00000000000000000 0.00000000000000000 1.00000000000000000 0.00000000000000000 
1 0.00000000000000000 31.72857142857134249 1.00000000000000000 0.00000000000000000 
1 0.00000000000000000 1.00000000000000000 1.00000000000000000 0.00000000000000000 
1 6.28318530717958623 -0.00000000000000000 0.00000000000000000 1.00000000000000000 
1 0.00000000000000000 -0.00000000000000000 0.00000000000000000 1.00000000000000000 
1 0.00000000000000000 0.00000000000000000 1.00000000000000000 0.00000000000000000 
1 0.00000000000000000 0.00000000000000000 1.00000000000000000 0.00000000000000000 
1 6.28318530717958623 0.00000000000000000 0.00000000000000000 1.00000000000000000 
1 0.00000000000000000 0.00000000000000000 0.00000000000000000 1.00000000000000000 
Curves 9
2 0.00000000000000000 374.69857142857142662 0.00000000000000000 0.00000000000000000 1.00000000000000000 0.00000000000000000 0.00000000000000000 -0.00000000000000000 1.00000000000000000 1.00000000000000000 0.00000000000000000 -0.00000000000000000 19.00000000000000000
1 -0.00000000000000465 343.97000000000008413 19.00000000000000000 0.00000000000000000 1.00000000000000000 0.00000000000000000 
2 0.00000000000000000 343.97000000000008413 0.00000000000000000 0.00000000000000000 1.00000000000000000 0.00000000000000000 0.00000000000000000 -0.00000000000000000 1.00000000000000000 1.00000000000000000 0.00000000000000000 -0.00000000000000000 19.00000000000000000
2 0.00000000000000000 374.69857142857142662 0.00000000000000000 0.00000000000000000 1.00000000000000000 0.00000000000000000 0.00000000000000000 -0.00000000000000000 1.00000000000000000 1.00000000000000000 0.00000000000000000 -0.00000000000000000 12.00000000000000000
2 0.00000000000000000 343.97000000000008413 0.00000000000000000 0.00000000000000000 1.00000000000000000 0.00000000000000000 0.00000000000000000 -0.00000000000000000 1.00000000000000000 1.00000000000000000 0.00000000000000000 -0.00000000000000000 27.00000000000000000
1 -0.00000000000000661 342.97000000000008413 27.00000000000000000 0.00000000000000000 1.00000000000000000 0.00000000000000000 
2 0.00000000000000000 342.97000000000008413 0.00000000000000000 0.00000000000000000 1.00000000000000000 0.00000000000000000 0.00000000000000000 -0.00000000000000000 1.00000000000000000 1.00000000000000000 0.00000000000000000 -0.00000000000000000 27.00000000000000000
2 0.00000000000000000 342.97000000000008413 0.00000000000000000 0.00000000000000000 1.00000000000000000 0.00000000000000000 0.00000000000000000 -0.00000000000000000 1.00000000000000000 1.00000000000000000 0.00000000000000000 -0.00000000000000000 12.00000000000000000
7 0 0  1 2 2  0.00000000000000000 342.97000000000008413 12.00000000000000000  0.00000000000000000 374.69857142857142662 12.00000000000000000 
 0.00000000000000000 2 31.72857142857134249 2
Polygon3D 0
PolygonOnTriangulations 0
Surfaces 6
2 0.00000000000000000 343.97000000000008413 0.00000000000000000 0.00000000000000000 1.00000000000000000 0.00000000000000000 0.00000000000000000 -0.00000000000000000 1.00000000000000000 1.00000000000000000 0.00000000000000000 -0.00000000000000000 19.00000000000000000
1 0.00000000000000000 374.69857142857142662 0.00000000000000000 0.00000000000000000 1.00000000000000000 0.00000000000000000 0.00000000000000000 -0.00000000000000000 1.00000000000000000 1.00000000000000000 0.00000000000000000 -0.00000000000000000 
10 0.00000000000000000 6.28318530717958623 0.00000000000000000 31.72857142857134249
2 0.00000000000000000 342.97000000000008413 0.00000000000000000 0.00000000000000000 1.00000000000000000 0.00000000000000000 0.00000000000000000 -0.00000000000000000 1.00000000000000000 1.00000000000000000 0.00000000000000000 -0.00000000000000000 12.00000000000000000
1 0.00000000000000000 343.97000000000008413 0.00000000000000000 0.00000000000000000 1.00000000000000000 0.00000000000000000 0.00000000000000000 -0.00000000000000000 1.00000000000000000 1.00000000000000000 0.00000000000000000 -0.00000000000000000 
2 0.00000000000000000 342.97000000000008413 0.00000000000000000 0.00000000000000000 1.00000000000000000 0.00000000000000000 0.00000000000000000 -0.00000000000000000 1.00000000000000000 1.00000000000000000 0.00000000000000000 -0.00000000000000000 27.00000000000000000
1 0.00000000000000000 342.97000000000008413 0.00000000000000000 0.00000000000000000 1.00000000000000000 0.00000000000000000 0.00000000000000000 -0.00000000000000000 1.00000000000000000 1.00000000000000000 0.00000000000000000 -0.00000000000000000 
Triangulations 0

TShapes 33
Ve
0.000000100000000
-0.000000000000005 374.698571428571427 19.000000000000000
0 0

0101101
*
Ed
 0.000000100000000 1 1 0
1  1 0 0.000000000000000 6.283185307179586
2  1 1 0 0.000000000000000 6.283185307179586
0

0101000
+33 3 -33 3 *
Ve
0.000000100000000
-0.000000000000005 343.970000000000084 19.000000000000000
0 0

0101101
*
Ed
 0.000000100000000 1 1 0
1  2 0 0.000000000000000 30.728571428571342
3  2 3CN 1 0 0.000000000000000 30.728571428571342
0

0101000
+31 3 -33 3 *
Ed
 0.000000100000000 1 1 0
1  3 0 0.000000000000000 6.283185307179586
2  4 1 0 0.000000000000000 6.283185307179586
0

0101000
+31 3 -31 3 *
Wi

0101100
-32 0 +30 0 +29 0 -30 0 *
Fa
0  0.000000100000000 1 0

0111000
+28 0 *
Wi

0101100
+32 0 *
Ve
0.000010000000000
-0.000000000000003 374.698571428571427 12.000000000000000
0 0

0101101
*
Ed
 0.000000100000000 1 1 0
1  4 0 0.000000000000000 6.283185307179586
2  5 3 0 0.000000000000000 6.283185307179586
0

0101000
+25 3 -25 3 *
Wi

0101100
-24 0 *
Fa
0  0.000000100000000 2 0

0111000
+26 0 +23 0 *
Ve
0.000000100000000
-0.000000000000007 343.970000000000084 27.000000000000000
0 0

0101101
*
Ed
 0.000000100000000 1 1 0
1  5 0 0.000000000000000 6.283185307179586
2  6 5 0 0.000000000000000 6.283185307179586
0

0101000
+21 3 -21 3 *
Wi

0101100
+20 0 *
Wi

0101100
-29 0 *
Fa
0  0.000000100000000 4 0

0111000
+19 0 +18 0 *
Ve
0.000000100000000
-0.000000000000007 342.970000000000084 27.000000000000000
0 0

0101101
*
Ed
 0.000000100000000 1 1 0
1  6 0 0.000000000000000 1.000000000000000
3  7 8CN 5 0 0.000000000000000 1.000000000000000
0

0101000
-21 3 +16 3 *
Ed
 0.000000100000000 1 1 0
1  7 0 0.000000000000000 6.283185307179586
2  9 5 0 0.000000000000000 6.283185307179586
0

0101000
+16 3 -16 3 *
Wi

0101100
-20 0 +15 0 +14 0 -15 0 *
Fa
0  0.000000100000000 5 0

0111000
+13 0 *
Wi

0101100
+14 0 *
Ve
0.000010000000000
-0.000000000000003 342.970000000000084 12.000000000000000
0 0

0101101
*
Ed
 0.000000100000000 1 1 0
1  8 0 0.000000000000000 6.283185307179586
2  10 3 0 0.000000000000000 6.283185307179586
0

0101000
+10 3 -10 3 *
Wi

0101100
-9 0 *
Fa
0  0.000000100000000 6 0

0111000
+11 0 +8 0 *
Ed
 0.000010000000000 1 1 0
1  9 0 0.000000000000000 31.728571428571342
3  11 12C0 3 0 0.000000000000000 31.728571428571342
0

0101000
+10 3 -25 3 *
Wi

0101100
+9 0 +6 0 -24 0 -6 0 *
Fa
0  0.000000100000000 3 0

0111000
+5 0 *
Sh

0101100
+27 0 +22 0 +17 0 +12 0 -7 0 -4 0 *
So

0100000
+3 0 *
Co

1100000
+2 0 *

+1 1 