
CASCADE Topology V1, (c) Matra-Datavision
Locations 3
1
1.000000000000000 0.000000000000000 0.000000000000000 0.000000000000000 
0.000000000000000 1.000000000000000 0.000000000000000 0.000000000000000 
0.000000000000000 0.000000000000000 1.000000000000000 0.000000000000000 
1
1.000000000000000 0.000000000000000 0.000000000000000 0.000000000000000 
0.000000000000000 1.000000000000000 0.000000000000000 0.000000000000000 
0.000000000000000 0.000000000000000 1.000000000000000 0.000000000000000 
2  2 -1 0
Curve2ds 12
1 0.00000000000000000 0.00000000000000000 1.00000000000000000 0.00000000000000000 
1 0.00000000000000000 1.00000000000000000 1.00000000000000000 0.00000000000000000 
1 0.00000000000000000 20.56700000000000728 1.00000000000000000 0.00000000000000000 
1 6.28318530717958623 -0.00000000000000000 0.00000000000000000 1.00000000000000000 
1 0.00000000000000000 -0.00000000000000000 0.00000000000000000 1.00000000000000000 
1 0.00000000000000000 1.00000000000000000 1.00000000000000000 0.00000000000000000 
1 0.00000000000000000 27.56700000000000728 1.00000000000000000 0.00000000000000000 
1 0.00000000000000000 9.00000000000000000 1.00000000000000000 0.00000000000000000 
1 6.28318530717958623 -0.00000000000000000 0.00000000000000000 1.00000000000000000 
1 0.00000000000000000 -0.00000000000000000 0.00000000000000000 1.00000000000000000 
1 6.28318530717958623 0.00000000000000000 0.00000000000000000 1.00000000000000000 
1 0.00000000000000000 0.00000000000000000 0.00000000000000000 1.00000000000000000 
Curves 9
2 341.93299999999999272 0.00000000000000000 0.00000000000000000 1.00000000000000000 0.00000000000000000 -0.00000000000000000 0.00000000000000000 0.00000000000000000 1.00000000000000000 0.00000000000000000 -1.00000000000000000 0.00000000000000000 74.50000000000000000
2 341.93299999999999272 0.00000000000000000 0.00000000000000000 1.00000000000000000 0.00000000000000000 -0.00000000000000000 0.00000000000000000 0.00000000000000000 1.00000000000000000 0.00000000000000000 -1.00000000000000000 0.00000000000000000 71.00000000000000000
2 361.50000000000000000 0.00000000000000000 0.00000000000000000 1.00000000000000000 0.00000000000000000 -0.00000000000000000 0.00000000000000000 0.00000000000000000 1.00000000000000000 0.00000000000000000 -1.00000000000000000 0.00000000000000000 71.00000000000000000
1 340.93299999999999272 0.00000000000001739 71.00000000000000000 1.00000000000000000 0.00000000000000000 0.00000000000000000 
2 361.50000000000000000 0.00000000000000000 0.00000000000000000 1.00000000000000000 0.00000000000000000 -0.00000000000000000 0.00000000000000000 0.00000000000000000 1.00000000000000000 0.00000000000000000 -1.00000000000000000 0.00000000000000000 46.70000000000000284
2 369.50000000000000000 0.00000000000000000 0.00000000000000000 1.00000000000000000 0.00000000000000000 -0.00000000000000000 0.00000000000000000 0.00000000000000000 1.00000000000000000 0.00000000000000000 -1.00000000000000000 0.00000000000000000 74.50000000000000000
2 369.50000000000000000 0.00000000000000000 0.00000000000000000 1.00000000000000000 0.00000000000000000 -0.00000000000000000 0.00000000000000000 0.00000000000000000 1.00000000000000000 0.00000000000000000 -1.00000000000000000 0.00000000000000000 46.70000000000000284
1 360.50000000000000000 0.00000000000001144 46.70000000000000284 1.00000000000000000 0.00000000000000000 0.00000000000000000 
7 0 0  1 2 2  341.93299999999999272 0.00000000000001825 74.50000000000000000  369.50000000000000000 0.00000000000001825 74.50000000000000000 
 0.00000000000000000 2 27.56700000000000728 2
Polygon3D 0
PolygonOnTriangulations 0
Surfaces 6
1 341.93299999999999272 0.00000000000000000 0.00000000000000000 1.00000000000000000 0.00000000000000000 0.00000000000000000 0.00000000000000000 0.00000000000000000 1.00000000000000000 0.00000000000000000 -1.00000000000000000 0.00000000000000000 
10 0.00000000000000000 6.28318530717958623 0.00000000000000000 27.56700000000000728
2 341.93299999999999272 0.00000000000000000 0.00000000000000000 1.00000000000000000 0.00000000000000000 0.00000000000000000 0.00000000000000000 0.00000000000000000 1.00000000000000000 0.00000000000000000 -1.00000000000000000 0.00000000000000000 74.50000000000000000
2 340.93299999999999272 0.00000000000000000 0.00000000000000000 1.00000000000000000 0.00000000000000000 0.00000000000000000 0.00000000000000000 0.00000000000000000 1.00000000000000000 0.00000000000000000 -1.00000000000000000 0.00000000000000000 71.00000000000000000
1 361.50000000000000000 0.00000000000000000 0.00000000000000000 1.00000000000000000 0.00000000000000000 0.00000000000000000 0.00000000000000000 0.00000000000000000 1.00000000000000000 0.00000000000000000 -1.00000000000000000 0.00000000000000000 
2 360.50000000000000000 0.00000000000000000 0.00000000000000000 1.00000000000000000 0.00000000000000000 0.00000000000000000 0.00000000000000000 0.00000000000000000 1.00000000000000000 0.00000000000000000 -1.00000000000000000 0.00000000000000000 46.70000000000000284
1 369.50000000000000000 0.00000000000000000 0.00000000000000000 1.00000000000000000 0.00000000000000000 0.00000000000000000 0.00000000000000000 0.00000000000000000 1.00000000000000000 0.00000000000000000 -1.00000000000000000 0.00000000000000000 
Triangulations 0

TShapes 33
Ve
0.000010000000000
341.932999999999993 0.000000000000018 74.500000000000000
0 0

0101101
*
Ed
 0.000000100000000 1 1 0
1  1 0 0.000000000000000 6.283185307179586
2  1 2 0 0.000000000000000 6.283185307179586
0

0101000
+33 3 -33 3 *
Wi

0101100
+32 0 *
Ve
0.000000100000017
341.932999999999993 0.000000000000017 71.000000000000000
0 0

0101101
*
Ed
 0.000000100000000 1 1 0
1  2 0 0.000000000000000 6.283185307179586
2  2 3 0 0.000000000000000 6.283185307179586
0

0101100
+30 3 -30 3 *
Wi

0101100
-29 0 *
Fa
0  0.000000100000000 1 0

0111000
+31 0 +28 0 *
Ve
0.000000100000017
361.500000000000000 0.000000000000017 71.000000000000000
0 0

0101101
*
Ed
 0.000000100000000 1 1 0
1  3 0 0.000000000000000 6.283185307179586
2  3 3 0 0.000000000000000 6.283185307179586
0

0101000
+26 3 -26 3 *
Ed
 0.000000100000000 1 1 0
1  4 0 1.000000000000000 20.567000000000007
3  4 5CN 3 0 1.000000000000000 20.567000000000007
0

0101000
+30 3 -26 3 *
Wi

0101100
-25 0 +24 0 +29 0 -24 0 *
Fa
0  0.000000100000000 3 0

0111000
+23 0 *
Wi

0101100
+25 0 *
Ve
0.000000100000011
361.500000000000000 0.000000000000011 46.700000000000003
0 0

0101101
*
Ed
 0.000000100000000 1 1 0
1  5 0 0.000000000000000 6.283185307179586
2  6 5 0 0.000000000000000 6.283185307179586
0

0101100
+20 3 -20 3 *
Wi

0101100
-19 0 *
Fa
0  0.000000100000000 4 0

0111000
+21 0 +18 0 *
Ve
0.000010000000000
369.500000000000000 0.000000000000018 74.500000000000000
0 0

0101101
*
Ed
 0.000000100000000 1 1 0
1  6 0 0.000000000000000 6.283185307179586
2  7 2 0 0.000000000000000 6.283185307179586
0

0101000
+16 3 -16 3 *
Wi

0101100
+15 0 *
Ve
0.000000100000011
369.500000000000000 0.000000000000011 46.700000000000003
0 0

0101101
*
Ed
 0.000000100000000 1 1 0
1  7 0 0.000000000000000 6.283185307179586
2  8 5 0 0.000000000000000 6.283185307179586
0

0101100
+13 3 -13 3 *
Wi

0101100
-12 0 *
Fa
0  0.000000100000000 6 0

0111000
+14 0 +11 0 *
Ed
 0.000000100000000 1 1 0
1  8 0 1.000000000000000 9.000000000000000
3  9 10CN 5 0 1.000000000000000 9.000000000000000
0

0101000
+20 3 -13 3 *
Wi

0101100
-12 0 +9 0 +19 0 -9 0 *
Fa
0  0.000000100000000 5 0

0111000
+8 0 *
Ed
 0.000010000000000 1 1 0
1  9 0 0.000000000000000 27.567000000000007
3  11 12C0 2 0 0.000000000000000 27.567000000000007
0

0101000
-16 3 +33 3 *
Wi

0101100
-15 0 -6 0 +32 0 +6 0 *
Fa
0  0.000000100000000 2 0

0111000
+5 0 *
Sh

0101100
-27 0 -22 0 -17 0 +10 0 -7 0 +4 0 *
So

0100000
+3 0 *
Co

1100000
+2 0 *

+1 1 