DBRep_DrawableShape

CASCADE Topology V1, (c) Matra-Datavision
Locations 1
1
              1               0               0               0 
              0               1               0               0 
              0               0               1           9.525 
Curve2ds 52
1 6.2831853071795862 -0 0 1 
1 0 -0 0 1 
1 0 0 1 0 
2 0 0 1 0 -0 1 12.699999999999999
1 0 19.050000000000001 1 0 
2 0 0 1 0 -0 1 12.699999999999999
2 0 0 1 0 -0 1 8.0875000000000004
1 0 1 1 0 
1 0 0 0 1 
1 0 15.875 1 0 
1 0 0 0 -1 
1 76.200000000000003 0 0 1 
1 0 0 0 1 
1 0 0 1 0 
2 0 0 1 0 -0 1 8.0875000000000004
1 0 20.050000000000001 1 0 
1 0 0 0 -1 
1 0 0 0 1 
2 0 0 1 0 -0 1 8.0875000000000004
1 0 20.050000000000001 1 0 
2 0 -3.6916269044933811e-16 1 0 -0 1 8.0875000000000004
1 0 39.100000000000001 1 0 
1 6.2831853071795862 -0 0 1 
1 0 -0 0 1 
8 19.0975 30.527500000000003
1 -20.050000000000001 36.549596826628637 1 0 
8 19.0975 30.527500000000003
1 1.7636940128919181 0 0 1 
2 0 -3.6916269044933811e-16 1 0 -0 1 8.0875000000000004
1 0 29.574999999999999 1 0 
8 19.0975 30.527500000000003
1 -20.050000000000001 39.650403173371366 1 0 
8 19.0975 30.527500000000003
1 1.377898640697875 0 0 1 
8 19.0975 30.527500000000003
1 -20.050000000000001 39.650403173371366 1 0 
8 19.0975 30.527500000000003
1 4.905286666481711 0 0 1 
2 0 -3.6916269044933811e-16 1 0 -0 1 8.0875000000000004
1 0 29.574999999999999 1 0 
8 19.0975 30.527500000000003
1 -20.050000000000001 36.549596826628637 1 0 
8 19.0975 30.527500000000003
1 4.5194912942876684 0 0 1 
1 0 -15.875 1 0 
1 0 76.200000000000003 1 0 
1 9.5250000000000021 0 0 1 
1 0 15.875 1 0 
1 0 0 1 0 
1 0 76.200000000000003 1 0 
1 9.5250000000000021 0 0 -1 
1 76.200000000000003 0 0 1 
1 9.5250000000000021 0 0 1 
1 0 0 1 0 
1 0 -15.875 1 0 
1 0 0 1 0 
1 0 0 1 0 
1 0 0 1 0 
1 9.5250000000000021 0 0 -1 
1 0 0 0 1 
Curves 38
1 12.699999999999999 -3.1106028698342769e-15 0 0 0 1 
2 0 0 0 0 0 1 1 0 -0 -0 1 0 12.699999999999999
2 0 0 19.050000000000001 0 0 1 1 0 -0 -0 1 0 12.699999999999999
2 0 0 0 0 0 1 1 0 -0 -0 1 0 8.0875000000000004
1 -38.100000000000001 7.9375 19.050000000000001 1 0 -0 
1 38.100000000000001 -7.9375 19.050000000000001 -0 1 0 
1 -38.100000000000001 -7.9375 19.050000000000001 1 0 -0 
2 0 0 19.050000000000001 0 0 1 1 0 -0 -0 1 0 8.0875000000000004
1 -38.100000000000001 -7.9375 19.050000000000001 -0 1 0 
2 0 0 19.050000000000001 0 0 1 1 0 -0 -0 1 0 8.0875000000000004
2 0 0 38.100000000000001 0 0 1 1 0 -0 -0 1 0 8.0875000000000004
1 8.0875000000000004 -1.9808661976208437e-15 -1 0 0 1 
1 -1.5504031733713661 7.9375 -1 0 0 1 
2 0 0 28.574999999999999 0 0 1 1 0 -0 -0 1 0 8.0875000000000004
1 1.5504031733713661 7.9375 -1 0 0 1 
1 1.5504031733713661 -7.9375 -1 0 0 1 
2 0 0 28.574999999999999 0 0 1 1 0 -0 -0 1 0 8.0875000000000004
1 -1.5504031733713661 -7.9375 -1 0 0 1 
1 38.100000000000001 7.9375 19.050000000000001 0 0 1 
1 -38.100000000000001 7.9375 28.575000000000003 1 0 -0 
1 38.100000000000001 -7.9375 19.050000000000001 0 0 1 
1 38.100000000000001 -7.9375 28.575000000000003 -0 1 0 
1 -38.100000000000001 -7.9375 28.575000000000003 1 0 -0 
1 -38.100000000000001 7.9375 19.050000000000001 0 0 1 
1 -38.100000000000001 -7.9375 19.050000000000001 0 0 1 
1 -38.100000000000001 -7.9375 28.575000000000003 -0 1 0 
1 12.831609732739434 0 28.575000000000003 -0.49999999999999994 0.86602540378443871 0 
1 6.4158048663697187 -11.112500000000001 28.575000000000003 0.49999999999999994 0.86602540378443871 0 
1 6.4158048663697187 11.112500000000001 28.575000000000003 -1 1.3843600891850177e-16 0 
1 -6.4158048663697222 -11.112499999999997 28.575000000000003 1 -2.7687201783700338e-16 0 
1 -6.4158048663697143 11.112500000000002 28.575000000000003 -0.50000000000000022 -0.8660254037844386 0 
1 -12.831609732739434 1.5714189787107372e-15 28.575000000000003 0.49999999999999978 -0.86602540378443882 0 
1 12.831609732739434 0 28.575000000000003 0 0 1 
1 6.4158048663697187 11.112500000000001 28.575000000000003 0 0 1 
1 6.4158048663697187 -11.112500000000001 28.575000000000003 0 0 1 
1 -6.4158048663697143 11.112500000000002 28.575000000000003 0 0 1 
1 -6.4158048663697222 -11.112499999999997 28.575000000000003 0 0 1 
1 -12.831609732739434 1.5714189787107372e-15 28.575000000000003 0 0 1 
Polygon3D 0
PolygonOnTriangulations 0
Surfaces 17
2 0 0 0 0 0 1 1 0 -0 -0 1 0 12.699999999999999
1 0 0 0 0 0 1 1 0 -0 -0 1 0 
1 0 0 19.050000000000001 0 0 1 1 0 -0 -0 1 0 
2 0 0 -1 0 0 1 1 0 -0 -0 1 0 8.0875000000000004
1 -38.100000000000001 -7.9375 19.050000000000001 0 0 1 1 0 -0 -0 1 0 
1 -38.100000000000001 7.9375 19.050000000000001 -0 1 0 0 0 1 1 0 -0 
1 38.100000000000001 -7.9375 19.050000000000001 1 0 -0 0 0 1 0 -1 0 
1 -38.100000000000001 -7.9375 19.050000000000001 -0 1 0 0 0 1 1 0 -0 
1 -38.100000000000001 -7.9375 19.050000000000001 1 0 -0 0 0 1 0 -1 0 
1 0 3.6916269044933811e-16 28.574999999999999 0 0 1 1 0 -0 -0 1 0 
1 -38.100000000000001 -7.9375 28.575000000000003 0 0 1 1 0 -0 -0 1 0 
1 12.831609732739434 0 28.575000000000003 -0.86602540378443871 -0.49999999999999994 0 -0.49999999999999994 0.86602540378443871 0 -0 0 -1 
1 6.4158048663697187 -11.112500000000001 28.575000000000003 -0.86602540378443871 0.49999999999999994 0 0.49999999999999994 0.86602540378443871 0 0 0 -1 
1 6.4158048663697187 11.112500000000001 28.575000000000003 -1.3843600891850177e-16 -1 0 -1 1.3843600891850177e-16 0 -0 0 -1 
1 -6.4158048663697222 -11.112499999999997 28.575000000000003 2.7687201783700338e-16 1 -0 1 -2.7687201783700338e-16 0 0 -0 -1 
1 -6.4158048663697143 11.112500000000002 28.575000000000003 0.8660254037844386 -0.50000000000000022 0 -0.50000000000000022 -0.8660254037844386 0 0 -0 -1 
1 -12.831609732739434 1.5714189787107372e-15 28.575000000000003 0.86602540378443882 0.49999999999999978 -0 0.49999999999999978 -0.86602540378443882 0 0 -0 -1 
Triangulations 0

TShapes 154
Ve
1e-07
12.7 -3.11060286983428e-15 0
0 0

0101101
*
Ve
1e-07
12.7 -3.11060286983428e-15 19.05
0 0

0101101
*
Ed
 1e-07 1 1 0
1  1 0 0 19.05
3  1 2CN 1 0 0 19.05
0

0101000
+154 0 -153 0 *
Ed
 1e-07 1 1 0
1  2 0 0 6.28318530717959
2  3 1 0 0 6.28318530717959
2  4 2 0 0 6.28318530717959
0

0101000
+154 0 -154 0 *
Ve
1.00000066619302e-07
9.91393432245756 7.93749999999993 19.05
0 0

0101101
*
Ed
 1e-07 1 1 0
1  3 0 0 0.675131532937022
2  5 1 0 0 0.675131532937022
2  6 3 0 0 0.675131532937022
0

0101000
+153 0 -150 0 *
Ve
1.00000023536728e-07
-9.91393432245749 7.93749999999998 19.05
0 0

0101101
*
Ed
 1e-07 1 1 0
1  3 0 0.675131532937022 2.46646112065276
2  5 1 0 0.675131532937022 2.46646112065276
2  6 3 0 0.675131532937022 2.46646112065276
0

0101000
+150 0 -148 0 *
Ve
1.00000022222217e-07
-9.91393432245749 -7.93749999999998 19.05
0 0

0101101
*
Ed
 1e-07 1 1 0
1  3 0 2.46646112065276 3.81672418652682
2  5 1 0 2.46646112065276 3.81672418652682
2  6 3 0 2.46646112065276 3.81672418652682
0

0101000
+148 0 -146 0 *
Ve
1.00000068412804e-07
9.91393432245757 -7.93749999999993 19.05
0 0

0101101
*
Ed
 1e-07 1 1 0
1  3 0 3.81672418652682 5.60805377424256
2  5 1 0 3.81672418652682 5.60805377424256
2  6 3 0 3.81672418652682 5.60805377424256
0

0101000
+146 0 -144 0 *
Ed
 1e-07 1 1 0
1  3 0 5.60805377424256 6.28318530717959
2  5 1 0 5.60805377424256 6.28318530717959
2  6 3 0 5.60805377424256 6.28318530717959
0

0101000
+144 0 -153 0 *
Wi

0101100
+152 0 +151 0 -152 0 -149 0 -147 0 -145 0 -143 0 -142 0 *
Fa
0  1e-07 1 0

0101000
+141 0 *
Wi

0101100
+151 0 *
Ve
1.00000001980866e-07
8.0875 -1.98086619762084e-15 0
0 0

0101101
*
Ed
 1e-07 1 1 0
1  4 0 0 6.28318530717959
2  7 2 0 0 6.28318530717959
2  8 4 0 0 6.28318530717959
0

0101100
+138 0 -138 0 *
Wi

0101100
-137 0 *
Fa
0  1e-07 2 0

0101000
+139 0 +136 0 *
Ve
1e-07
38.1 7.9375 19.05
0 0

0101101
*
Ed
 1e-07 1 1 0
1  5 0 48.0139343224576 76.2
2  9 6 0 48.0139343224576 76.2
2  10 5 0 48.0139343224576 76.2
0

0101000
+150 0 -134 0 *
Ve
1e-07
38.1 -7.9375 19.05
0 0

0101101
*
Ed
 1e-07 1 1 0
1  6 0 0 15.875
2  11 7 0 0 15.875
2  12 5 0 0 15.875
0

0101000
-134 0 +132 0 *
Ed
 1e-07 1 1 0
1  7 0 48.0139343224576 76.2
2  13 8 0 48.0139343224576 76.2
2  14 5 0 48.0139343224576 76.2
0

0101000
+144 0 -132 0 *
Wi

0101100
-133 0 +131 0 +130 0 -142 0 -149 0 *
Fa
0  1e-07 5 0

0101000
+129 0 *
Ve
1.00000015765167e-07
1.55040317337135 7.9375 19.05
0 0

0101101
*
Ed
 1e-07 1 1 0
1  5 0 39.6504031733714 48.0139343224576
2  9 6 0 39.6504031733714 48.0139343224576
2  10 5 0 39.6504031733714 48.0139343224576
0

0101000
+127 0 -150 0 *
Ve
1.00000015765167e-07
-1.55040317337135 7.9375 19.05
0 0

0101101
*
Ed
 1e-07 1 1 0
1  8 0 1.37789864069788 1.76369401289192
2  15 3 0 1.37789864069788 1.76369401289192
2  16 4 0 1.37789864069788 1.76369401289192
0

0101000
+127 0 -125 0 *
Ed
 1e-07 1 1 0
1  5 0 28.1860656775425 36.5495968266287
2  9 6 0 28.1860656775425 36.5495968266287
2  10 5 0 28.1860656775425 36.5495968266287
0

0101000
+148 0 -125 0 *
Wi

0101100
+147 0 +126 0 -124 0 +123 0 *
Fa
0  1e-07 3 0

0101000
+122 0 *
Ve
1e-07
-38.1 7.9375 19.05
0 0

0101101
*
Ed
 1e-07 1 1 0
1  5 0 0 28.1860656775425
2  9 6 0 0 28.1860656775425
2  10 5 0 0 28.1860656775425
0

0101000
+120 0 -148 0 *
Ve
1e-07
-38.1 -7.9375 19.05
0 0

0101101
*
Ed
 1e-07 1 1 0
1  7 0 0 28.1860656775425
2  13 8 0 0 28.1860656775425
2  14 5 0 0 28.1860656775425
0

0101000
+118 0 -146 0 *
Ed
 1e-07 1 1 0
1  9 0 0 15.875
2  17 9 0 0 15.875
2  18 5 0 0 15.875
0

0101000
-120 0 +118 0 *
Wi

0101100
-119 0 -145 0 +117 0 -116 0 *
Fa
0  1e-07 5 0

0101000
+115 0 *
Ve
1.00000015765167e-07
-1.55040317337135 -7.9375 19.05
0 0

0101101
*
Ed
 1e-07 1 1 0
1  7 0 28.1860656775425 36.5495968266287
2  13 8 0 28.1860656775425 36.5495968266287
2  14 5 0 28.1860656775425 36.5495968266287
0

0101000
+146 0 -113 0 *
Ve
1.00000015765167e-07
1.55040317337135 -7.9375 19.05
0 0

0101101
*
Ed
 1e-07 1 1 0
1  10 0 4.51949129428767 4.90528666648171
2  19 3 0 4.51949129428767 4.90528666648171
2  20 4 0 4.51949129428767 4.90528666648171
0

0101000
+113 0 -111 0 *
Ed
 1e-07 1 1 0
1  7 0 39.6504031733714 48.0139343224576
2  13 8 0 39.6504031733714 48.0139343224576
2  14 5 0 39.6504031733714 48.0139343224576
0

0101000
+111 0 -144 0 *
Wi

0101100
-112 0 -110 0 -109 0 +143 0 *
Fa
0  1e-07 3 0

0101000
+108 0 *
Ve
1.00000001980866e-07
8.0875 -1.98086619762084e-15 38.1
0 0

0101101
*
Ed
 1e-07 1 1 0
1  11 0 0 6.28318530717959
2  21 10 1 0 6.28318530717959
2  22 4 0 0 6.28318530717959
0

0101100
+106 0 -106 0 *
Ed
 1e-07 1 1 0
1  12 0 1 39.1
3  23 24CN 4 0 1 39.1
0

0101000
+138 0 -106 0 *
Wi

0101100
-105 0 +104 0 +137 0 -104 0 *
Ve
1.00000015765167e-07
-1.55040317337135 7.9375 28.575
0 0

0101101
*
Ed
 1e-07 1 1 0
1  13 0 20.05 29.575
2  25 6 0 20.05 29.575
2  26 4 0 20.05 29.575
0

0101000
+125 0 -102 0 *
Ve
1.00000015765167e-07
1.55040317337135 7.9375 28.575
0 0

0101101
*
Ed
 1e-07 1 1 0
1  14 0 1.37789864069788 1.76369401289192
2  27 10 0 1.37789864069788 1.76369401289192
2  28 4 0 1.37789864069788 1.76369401289192
0

0101000
+100 0 -102 0 *
Ed
 1e-07 1 1 0
1  15 0 20.05 29.575
2  29 6 0 20.05 29.575
2  30 4 0 20.05 29.575
0

0101000
+127 0 -100 0 *
Wi

0101100
-124 0 -101 0 +99 0 +98 0 *
Ve
1.00000015765167e-07
1.55040317337135 -7.9375 28.575
0 0

0101101
*
Ed
 1e-07 1 1 0
1  16 0 20.05 29.575
2  31 8 0 20.05 29.575
2  32 4 0 20.05 29.575
0

0101000
+111 0 -96 0 *
Ve
1.00000015765167e-07
-1.55040317337135 -7.9375 28.575
0 0

0101101
*
Ed
 1e-07 1 1 0
1  17 0 4.51949129428767 4.90528666648171
2  33 10 0 4.51949129428767 4.90528666648171
2  34 4 0 4.51949129428767 4.90528666648171
0

0101000
+94 0 -96 0 *
Ed
 1e-07 1 1 0
1  18 0 20.05 29.575
2  35 8 0 20.05 29.575
2  36 4 0 20.05 29.575
0

0101000
+113 0 -94 0 *
Wi

0101100
-110 0 -95 0 +93 0 +92 0 *
Fa
0  1e-07 4 0

0101000
+103 0 +97 0 +91 0 *
Ve
1e-07
38.1 7.9375 28.575
0 0

0101101
*
Ed
 1e-07 1 1 0
1  19 0 0 9.525
2  37 7 0 0 9.525
2  38 6 0 0 9.525
0

0101000
-89 0 +134 0 *
Ve
1.00000003552714e-07
8.24889197104678 7.9375 28.575
0 0

0101101
*
Ed
 1e-07 1 1 0
1  20 0 46.3488919710468 76.2
2  39 6 0 46.3488919710468 76.2
2  40 11 0 46.3488919710468 76.2
0

0101000
+87 0 -89 0 *
Ed
 1.00000003552714e-07 1 1 0
1  20 0 39.6504031733714 46.3488919710468
2  39 6 0 39.6504031733714 46.3488919710468
2  40 11 0 39.6504031733714 46.3488919710468
0

0101000
+100 0 -87 0 *
Wi

0101100
-126 0 -133 0 -88 0 +86 0 +85 0 +98 0 *
Fa
0  1e-07 6 0

0101000
+84 0 *
Ve
1e-07
38.1 -7.9375 28.575
0 0

0101101
*
Ed
 1e-07 1 1 0
1  21 0 0 9.525
2  41 7 0 0 9.525
2  42 8 0 0 9.525
0

0101000
-82 0 +132 0 *
Ed
 1e-07 1 1 0
1  22 0 0 15.875
2  43 7 0 0 15.875
2  44 11 0 0 15.875
0

0101000
-89 0 +82 0 *
Wi

0101100
-81 0 -80 0 +88 0 +131 0 *
Fa
0  1e-07 7 0

0111000
+79 0 *
Ve
1.00000003552714e-07
8.24889197104678 -7.9375 28.575
0 0

0101101
*
Ed
 1e-07 1 1 0
1  23 0 46.3488919710468 76.2
2  45 8 0 46.3488919710468 76.2
2  46 11 0 46.3488919710468 76.2
0

0101000
+77 0 -82 0 *
Ed
 1.00000003552714e-07 1 1 0
1  23 0 39.6504031733714 46.3488919710468
2  45 8 0 39.6504031733714 46.3488919710468
2  46 11 0 39.6504031733714 46.3488919710468
0

0101000
+96 0 -77 0 *
Wi

0101100
-109 0 -130 0 -81 0 +76 0 +75 0 +95 0 *
Fa
0  1e-07 8 0

0101000
+74 0 *
Ve
1.00000003552714e-07
-8.24889197104678 7.9375 28.575
0 0

0101101
*
Ed
 1.00000003552714e-07 1 1 0
1  20 0 29.8511080289532 36.5495968266287
2  39 6 0 29.8511080289532 36.5495968266287
2  40 11 0 29.8511080289532 36.5495968266287
0

0101000
+72 0 -102 0 *
Ve
1e-07
-38.1 7.9375 28.575
0 0

0101101
*
Ed
 1e-07 1 1 0
1  20 0 0 29.8511080289532
2  39 6 0 0 29.8511080289532
2  40 11 0 0 29.8511080289532
0

0101000
+70 0 -72 0 *
Ed
 1e-07 1 1 0
1  24 0 0 9.525
2  47 9 0 0 9.525
2  48 6 0 0 9.525
0

0101000
-70 0 +120 0 *
Wi

0101100
-119 0 -123 0 -101 0 +71 0 +69 0 +68 0 *
Fa
0  1e-07 6 0

0101000
+67 0 *
Ve
1.00000003552714e-07
-8.24889197104678 -7.9375 28.575
0 0

0101101
*
Ed
 1.00000003552714e-07 1 1 0
1  23 0 29.8511080289532 36.5495968266287
2  45 8 0 29.8511080289532 36.5495968266287
2  46 11 0 29.8511080289532 36.5495968266287
0

0101000
+65 0 -94 0 *
Ve
1e-07
-38.1 -7.9375 28.575
0 0

0101101
*
Ed
 1e-07 1 1 0
1  23 0 0 29.8511080289532
2  45 8 0 0 29.8511080289532
2  46 11 0 0 29.8511080289532
0

0101000
+63 0 -65 0 *
Ed
 1e-07 1 1 0
1  25 0 0 9.525
2  49 9 0 0 9.525
2  50 8 0 0 9.525
0

0101000
-63 0 +118 0 *
Wi

0101100
-117 0 -112 0 -92 0 +64 0 +62 0 +61 0 *
Fa
0  1e-07 8 0

0101000
+60 0 *
Ed
 1e-07 1 1 0
1  26 0 0 15.875
2  51 9 0 0 15.875
2  52 11 0 0 15.875
0

0101000
-70 0 +63 0 *
Wi

0101100
-61 0 -58 0 +68 0 +116 0 *
Fa
0  1e-07 9 0

0111000
+57 0 *
Ve
1e-07
12.8316097327394 0 28.575
0 0

0101101
*
Ve
1e-07
6.41580486636972 11.1125 28.575
0 0

0101101
*
Ed
 1e-07 1 1 0
1  27 0 0 12.8316097327394
0

0101000
+55 0 -54 0 *
Ve
1e-07
6.41580486636972 -11.1125 28.575
0 0

0101101
*
Ed
 1e-07 1 1 0
1  28 0 0 12.8316097327394
0

0101000
+52 0 -55 0 *
Ve
1e-07
-6.41580486636971 11.1125 28.575
0 0

0101101
*
Ed
 1e-07 1 1 0
1  29 0 0 12.8316097327394
0

0101000
+54 0 -50 0 *
Ve
1e-07
-6.41580486636972 -11.1125 28.575
0 0

0101101
*
Ed
 1e-07 1 1 0
1  30 0 0 12.8316097327394
0

0101000
+48 0 -52 0 *
Ve
1e-07
-12.8316097327394 1.57141897871074e-15 28.575
0 0

0101101
*
Ed
 1e-07 1 1 0
1  31 0 0 12.8316097327394
0

0101000
+50 0 -46 0 *
Ed
 1e-07 1 1 0
1  32 0 0 12.8316097327394
0

0101000
+46 0 -48 0 *
Wi

0101100
+53 1 +51 1 +49 1 +47 1 +45 1 +44 1 *
Wi

0101100
-105 0 *
Fa
0  1e-07 10 1

0101000
+43 0 +42 0 *
Ed
 1e-07 1 1 0
1  31 0 0 3.66617420935413
0

0101000
+50 0 -72 0 *
Ed
 1e-07 1 1 0
1  27 0 9.16543552338531 12.8316097327394
0

0101000
+87 0 -54 0 *
Wi

0101100
+40 0 +49 0 +39 0 +85 0 -99 0 +71 0 *
Fa
0  1e-07 10 0

0101000
+38 0 *
Ed
 1e-07 1 1 0
1  32 0 9.16543552338531 12.8316097327394
0

0101000
+65 0 -48 0 *
Ed
 1e-07 1 1 0
1  28 0 0 3.66617420935412
0

0101000
+52 0 -77 0 *
Wi

0101100
+47 0 +36 0 -64 0 -93 0 -75 0 +35 0 *
Fa
0  1e-07 10 0

0101000
+34 0 *
Ve
1e-07
12.8316097327394 0 28.575
0 0

0101101
*
Ed
 1e-07 1 1 0
1  28 0 3.66617420935412 12.8316097327394
0

0101000
+77 0 -32 0 *
Ed
 1e-07 1 1 0
1  27 0 0 9.16543552338531
0

0101000
+32 0 -87 0 *
Wi

0101100
-86 0 +80 0 +76 0 -31 0 -30 0 *
Fa
0  1e-07 11 0

0101000
+29 0 *
Ve
1e-07
-12.8316097327394 1.57141897871074e-15 28.575
0 0

0101101
*
Ed
 1e-07 1 1 0
1  31 0 3.66617420935413 12.8316097327394
0

0101000
+72 0 -27 0 *
Ed
 1e-07 1 1 0
1  32 0 0 9.16543552338531
0

0101000
+27 0 -65 0 *
Wi

0101100
-69 0 -26 0 -25 0 +62 0 -58 0 *
Fa
0  1e-07 11 0

0101000
+24 0 *
Ed
 1e-07 1 1 0
1  33 0 0 9.525
0

0101000
+32 0 -55 1 *
Ed
 1e-07 1 1 0
1  34 0 0 9.525
0

0101000
+54 0 -54 1 *
Wi

0101100
+22 0 -21 0 -30 0 -39 0 +53 1 *
Fa
0  1e-07 12 0

0101000
+20 0 *
Ed
 1e-07 1 1 0
1  35 0 0 9.525
0

0101000
+52 0 -52 1 *
Wi

0101100
+18 0 -22 0 -35 0 -31 0 +51 1 *
Fa
0  1e-07 13 0

0101000
+17 0 *
Ed
 1e-07 1 1 0
1  36 0 0 9.525
0

0101000
+50 0 -50 1 *
Wi

0101100
+21 0 -15 0 -49 0 +49 1 *
Fa
0  1e-07 14 0

0101000
+14 0 *
Ed
 1e-07 1 1 0
1  37 0 0 9.525
0

0101000
+48 0 -48 1 *
Wi

0101100
+12 0 -18 0 -47 0 +47 1 *
Fa
0  1e-07 15 0

0101000
+11 0 *
Ed
 1e-07 1 1 0
1  38 0 0 9.525
0

0101000
+27 0 -46 1 *
Wi

0101100
+15 0 -9 0 -40 0 -26 0 +45 1 *
Fa
0  1e-07 16 0

0101000
+8 0 *
Wi

0101100
+9 0 -12 0 -25 0 -36 0 +44 1 *
Fa
0  1e-07 17 0

0101000
+6 0 *
Sh

0101100
+140 0 -135 0 -128 0 +121 0 -114 0 +107 0 -90 0 +83 0 +78 0 -73 0 
+66 0 -59 0 -56 0 +41 0 -37 0 -33 0 +28 0 +23 0 -19 0 -16 0 
-13 0 -10 0 -7 0 -5 0 *
So

0100000
+4 0 *
Co

0100000
+3 0 *
Co

1100000
+2 0 *

+1 0 