DBRep_DrawableShape

CASCADE Topology V1, (c) Matra-Datavision
Locations 0
Curve2ds 0
Curves 1
7 0 0  3 63 61  531.22500000000002 -29.420895820333875 -135.76116361234924  531.22500000000002 -29.806838011535632 -135.67752768561164  531.22500000000002 -30.576856351554763 -135.49997702145023  531.22500000000002 -31.725222926923621 -135.20378507187917  531.22500000000002 -32.866953253263496 -134.87839003652519  531.22500000000002 -34.001632249890804 -134.52457607475677  531.22500000000014 -35.128861519873304 -134.14313216643467  531.22499999999991 -36.248267469211818 -133.73485287529516  531.22500000000002 -37.359499684724412 -133.30053756625873  531.22499999999991 -38.462231888128542 -132.84098998026468  531.22499999999991 -39.556162156301468 -132.35701766342518  531.22500000000014 -40.641013293786351 -131.84943139303661  531.22500000000002 -41.716533118293157 -131.31904456922169  531.22500000000002 -42.782494722989149 -130.76667258712067  531.22500000000002 -43.838696698776388 -130.19313219160742  531.22500000000014 -44.884963322002413 -129.59924081941108  531.22499999999991 -45.921144707541863 -128.98581593216642  531.22500000000002 -46.947116929014882 -128.35367434373444  531.22499999999991 -47.962782107657262 -127.70363154465718  531.22500000000014 -48.968068471580736 -127.0365010262624  531.22499999999991 -49.962930387180293 -126.35309360658916  531.22500000000014 -50.947348364467814 -125.65421676001604  531.22500000000002 -51.921329038077452 -124.94067395221151  531.22499999999991 -52.884905125637843 -124.21326398181148  531.22500000000002 -53.838135365131102 -123.47278033004585  531.22500000000002 -54.781104432767073 -122.72001051939201  531.22499999999991 -55.713922842799526 -121.95573548221833  531.22500000000014 -56.636726830599116 -121.18072894030094  531.22500000000014 -57.54967822017872 -120.39575679604145  531.22499999999991 -58.452964277242941 -119.60157653618657  531.22500000000002 -59.346797548700621 -118.79893664884399  531.22500000000002 -60.231415689446237 -117.9885760546082  531.22500000000002 -61.107081277068026 -117.17122355263973  531.22500000000014 -61.974081614990958 -116.34759728259566  531.22499999999991 -62.832728524399435 -115.51840420336728  531.22500000000002 -63.68335812511009 -114.68433958965809  531.22500000000002 -64.526330605372422 -113.84608654750578  531.22500000000014 -65.362029980369641 -113.00431554993605  531.22500000000002 -66.190863838964461 -112.15968399400833  531.22500000000002 -67.013263077980412 -111.31283578057335  531.22500000000002 -67.829681623038425 -110.46440091811196  531.22500000000002 -68.640596134667646 -109.61499515203855  531.22500000000002 -69.446505698080031 -108.76521962082769  531.22500000000002 -70.247931494655205 -107.91566054025456  531.22500000000014 -71.045416452809235 -107.06688891689221  531.22499999999991 -71.83952487554231 -106.21946029179084  531.22500000000002 -72.630842041578248 -105.37391451493869  531.22500000000002 -73.41997377663931 -104.53077555065946  531.22500000000002 -74.207545991070759 -103.69055131352582  531.22499999999991 -74.994204179748237 -102.8537335336257  531.22500000000014 -75.780612880048309 -102.02079764912284  531.22500000000002 -76.56745508354966 -101.19220272295414  531.22500000000002 -77.355431597534093 -100.36839137929469  531.22500000000014 -78.145260351777523 -99.549789753832087  531.22499999999991 -78.937675650339571 -98.736807450928168  531.22500000000014 -79.733427355871541 -97.929837496877866  531.22500000000002 -80.533280044493495 -97.129256285039787  531.22500000000002 -81.338011988216834 -96.335423476352886  531.22500000000002 -82.148414505504419 -95.548681931567245  531.22499999999991 -82.965289684003224 -94.769357324806251  531.22500000000014 -83.789453951245193 -93.997758674745356  531.22500000000002 -84.344089044502311 -93.488894441864531  531.22500000000002 -84.622830658774816 -93.235906106747962 
 0 4 1.1846526363498933 1 2.3704207177344689 1 3.5574533964971287 1 4.7458688605669312 1 5.9357558994175452 1 7.1271754735526294 1 8.3201622787990175 1 9.5147262981631968 1 10.710854335392806 1 11.908511525644585 1 13.107642819814247 1 14.308174440104155 1 15.510015305323446 1 16.713058425215543 1 17.917182263798246 1 19.122252072307273 1 20.328121192846645 1 21.534632334274828 1 22.741618822226773 1 23.948905825464024 1 25.156311560996851 1 26.363648480609314 1 27.570724441577749 1 28.777343864488966 1 29.983308881138797 1 31.188420475549524 1 32.392479621167702 1 33.595288417293069 1 34.796651227766574 1 35.996375824888531 1 37.194274541448628 1 38.390165433645073 1 39.5838734575199 1 40.775231661365552 1 41.964082396333204 1 43.150278547220346 1 44.333684785108076 1 45.514178843153765 1 46.691652816433269 1 47.866014486248311 1 49.037188668761246 1 50.205118587207878 1 51.369767266247919 1 52.531118946240227 1 53.68918051439806 1 54.843982948865921 1 55.995582770794798 1 57.144063498465798 1 58.289537096464471 1 59.432145411842569 1 60.572061588143768 1 61.709491447168126 1 62.844674827417336 1 63.97788686734107 1 65.109439220849183 1 66.23968119207349 1 67.369000776116309 1 68.497825592506885 1 69.626623698344787 1 70.755904268621578 4
Polygon3D 0
PolygonOnTriangulations 0
Surfaces 0
Triangulations 0

TShapes 3
Ve
1e-07
531.225 -29.4208958203339 -135.761163612349
0 0

0101101
*
Ve
1e-07
531.225 -84.6228306587748 -93.235906106748
0 0

0101101
*
Ed
 1e-07 1 1 0
1  1 0 0 70.7559042686216
0

1101000
+3 0 -2 0 *

+1 0 