
CASCADE Topology V1, (c) Matra-Datavision
Locations 3
1
1.000000000000000 0.000000000000000 0.000000000000000 0.000000000000000 
0.000000000000000 1.000000000000000 0.000000000000000 0.000000000000000 
0.000000000000000 0.000000000000000 1.000000000000000 0.000000000000000 
1
1.000000000000000 0.000000000000000 0.000000000000000 0.000000000000000 
0.000000000000000 1.000000000000000 0.000000000000000 0.000000000000000 
0.000000000000000 0.000000000000000 1.000000000000000 0.000000000000000 
2  2 -1 0
Curve2ds 8
1 0.00000000000000000 3.50000000000000000 1.00000000000000000 0.00000000000000000 
1 6.23316445037381595 0.00000000000000000 0.00000000000000000 1.00000000000000000 
1 0.00000000000000000 0.00000000000000000 1.00000000000000000 0.00000000000000000 
1 0.05002085680577002 0.00000000000000000 0.00000000000000000 1.00000000000000000 
1 0.00000000000000000 4.50000000000000000 1.00000000000000000 0.00000000000000000 
1 6.19074602182798372 0.00000000000000000 0.00000000000000000 1.00000000000000000 
1 0.00000000000000000 1.00000000000000000 1.00000000000000000 0.00000000000000000 
1 0.09243928535160258 0.00000000000000000 0.00000000000000000 1.00000000000000000 
Curves 12
2 0.00000000000000000 0.00000000000000000 3.50000000000000000 0.00000000000000000 0.00000000000000000 1.00000000000000000 1.00000000000000000 0.00000000000000000 -0.00000000000000000 -0.00000000000000000 1.00000000000000000 0.00000000000000000 12.00000000000000000
1 11.98499061326290693 -0.59999999999999998 0.00000000000000000 0.00000000000000000 0.00000000000000000 1.00000000000000000 
2 0.00000000000000000 0.00000000000000000 0.00000000000000000 0.00000000000000000 0.00000000000000000 1.00000000000000000 1.00000000000000000 0.00000000000000000 -0.00000000000000000 -0.00000000000000000 1.00000000000000000 0.00000000000000000 12.00000000000000000
1 11.98499061326290693 0.59999999999999998 0.00000000000000000 0.00000000000000000 0.00000000000000000 1.00000000000000000 
1 0.00000000000000000 0.59999999999999998 3.50000000000000000 -1.00000000000000000 0.00000000000000000 0.00000000000000000 
2 0.00000000000000000 0.00000000000000000 3.50000000000000000 0.00000000000000000 0.00000000000000000 1.00000000000000000 1.00000000000000000 0.00000000000000000 -0.00000000000000000 -0.00000000000000000 1.00000000000000000 0.00000000000000000 6.50000000000000000
1 0.00000000000000000 -0.59999999999999998 3.50000000000000000 -1.00000000000000000 0.00000000000000000 0.00000000000000000 
1 6.47224845011376271 -0.59999999999999998 -1.00000000000000000 0.00000000000000000 0.00000000000000000 1.00000000000000000 
1 0.00000000000000000 -0.59999999999999998 0.00000000000000000 -1.00000000000000000 0.00000000000000000 0.00000000000000000 
1 0.00000000000000000 0.59999999999999998 0.00000000000000000 -1.00000000000000000 0.00000000000000000 0.00000000000000000 
2 0.00000000000000000 0.00000000000000000 0.00000000000000000 0.00000000000000000 0.00000000000000000 1.00000000000000000 1.00000000000000000 0.00000000000000000 -0.00000000000000000 -0.00000000000000000 1.00000000000000000 0.00000000000000000 6.50000000000000000
1 6.47224845011376271 0.59999999999999998 -1.00000000000000000 0.00000000000000000 0.00000000000000000 1.00000000000000000 
Polygon3D 0
PolygonOnTriangulations 0
Surfaces 6
2 0.00000000000000000 0.00000000000000000 0.00000000000000000 0.00000000000000000 0.00000000000000000 1.00000000000000000 1.00000000000000000 0.00000000000000000 -0.00000000000000000 -0.00000000000000000 1.00000000000000000 0.00000000000000000 12.00000000000000000
1 0.00000000000000000 0.00000000000000000 3.50000000000000000 0.00000000000000000 0.00000000000000000 1.00000000000000000 1.00000000000000000 0.00000000000000000 -0.00000000000000000 -0.00000000000000000 1.00000000000000000 0.00000000000000000 
2 0.00000000000000000 0.00000000000000000 -1.00000000000000000 0.00000000000000000 0.00000000000000000 1.00000000000000000 1.00000000000000000 0.00000000000000000 -0.00000000000000000 -0.00000000000000000 1.00000000000000000 0.00000000000000000 6.50000000000000000
1 0.00000000000000000 -0.59999999999999998 -1.00000000000000000 0.00000000000000000 1.00000000000000000 0.00000000000000000 0.00000000000000000 -0.00000000000000000 1.00000000000000000 1.00000000000000000 0.00000000000000000 -0.00000000000000000 
1 0.00000000000000000 0.00000000000000000 0.00000000000000000 0.00000000000000000 0.00000000000000000 1.00000000000000000 1.00000000000000000 0.00000000000000000 -0.00000000000000000 -0.00000000000000000 1.00000000000000000 0.00000000000000000 
1 0.00000000000000000 0.59999999999999998 -1.00000000000000000 0.00000000000000000 1.00000000000000000 0.00000000000000000 0.00000000000000000 -0.00000000000000000 1.00000000000000000 1.00000000000000000 0.00000000000000000 -0.00000000000000000 
Triangulations 0

TShapes 35
Ve
0.000000150000000
11.984990613262907 0.600000000000000 3.500000000000000
0 0

0101101
*
Ve
0.000000150000006
11.984990613262907 -0.600000000000006 3.500000000000000
0 0

0101101
*
Ed
 0.000000100000000 1 1 0
1  1 0 0.050020856805770 6.233164450373816
2  1 1 0 0.050020856805770 6.233164450373816
0

0101000
+35 3 -34 3 *
Ve
0.000000150000006
11.984990613262907 -0.600000000000006 0.000000000000000
0 0

0101101
*
Ed
 0.000000100000000 1 1 0
1  2 0 0.000000000000000 3.500000000000000
2  2 1 0 0.000000000000000 3.500000000000000
0

0101000
+32 3 -34 3 *
Ve
0.000000150000000
11.984990613262907 0.600000000000000 0.000000000000000
0 0

0101101
*
Ed
 0.000000100000000 1 1 0
1  3 0 0.050020856805770 6.233164450373816
2  3 1 0 0.050020856805770 6.233164450373816
0

0101000
+30 3 -32 3 *
Ed
 0.000000100000000 1 1 0
1  4 0 0.000000000000000 3.500000000000000
2  4 1 0 0.000000000000000 3.500000000000000
0

0101000
+30 3 -35 3 *
Wi

0101100
-33 0 +31 0 +29 0 -28 0 *
Fa
0  0.000000100000000 1 0

0111000
+27 0 *
Ve
0.000000150000000
6.472248450113763 0.600000000000000 3.500000000000000
0 0

0101101
*
Ed
 0.000000150000000 1 1 0
1  5 0 -11.984990613262907 -6.472248450113763
0

0101000
+35 3 -25 3 *
Ve
0.000000150000001
6.472248450113763 -0.600000000000001 3.500000000000000
0 0

0101101
*
Ed
 0.000000100000000 1 1 0
1  6 0 0.092439285351603 6.190746021827984
2  5 3 0 0.092439285351603 6.190746021827984
0

0101000
+25 3 -23 3 *
Ed
 0.000000150000000 1 1 0
1  7 0 -11.984990613262907 -6.472248450113763
0

0101000
+34 3 -23 3 *
Wi

0101100
-24 0 -22 0 +21 0 +33 0 *
Fa
0  0.000000100000000 2 0

0111000
+20 0 *
Ve
0.000000150000001
6.472248450113763 -0.600000000000001 0.000000000000000
0 0

0101101
*
Ed
 0.000000100000000 1 1 0
1  8 0 1.000000000000000 4.500000000000000
2  6 3 0 1.000000000000000 4.500000000000000
0

0101000
+18 3 -23 3 *
Ed
 0.000000150000000 1 1 0
1  9 0 -11.984990613262907 -6.472248450113763
0

0101000
+32 3 -18 3 *
Wi

0101100
-31 0 -21 0 +17 0 +16 0 *
Fa
0  0.000000100000000 4 0

0111000
+15 0 *
Ve
0.000000150000000
6.472248450113763 0.600000000000000 0.000000000000000
0 0

0101101
*
Ed
 0.000000150000000 1 1 0
1  10 0 -11.984990613262907 -6.472248450113763
0

0101000
+30 3 -13 3 *
Ed
 0.000000100000000 1 1 0
1  11 0 0.092439285351603 6.190746021827984
2  7 3 0 0.092439285351603 6.190746021827984
0

0101000
+13 3 -18 3 *
Wi

0101100
-12 0 -11 0 +16 0 +29 0 *
Fa
0  0.000000100000000 5 0

0111000
+10 0 *
Ed
 0.000000100000000 1 1 0
1  12 0 1.000000000000000 4.500000000000000
2  8 3 0 1.000000000000000 4.500000000000000
0

0101000
+13 3 -25 3 *
Wi

0101100
-28 0 -24 0 +8 0 +12 0 *
Fa
0  0.000000100000000 6 0

0111000
+7 0 *
Wi

0101100
-22 0 +17 0 +11 0 -8 0 *
Fa
0  0.000000100000000 3 0

0111000
+5 0 *
Sh

0101100
+26 0 +19 0 +14 0 -9 0 -6 0 -4 0 *
So

0100000
+3 0 *
Co

1100000
+2 0 *

+1 1 