
CASCADE Topology V1, (c) Matra-Datavision
Locations 3
1
1.000000000000000 0.000000000000000 0.000000000000000 0.000000000000000 
0.000000000000000 1.000000000000000 0.000000000000000 0.000000000000000 
0.000000000000000 0.000000000000000 1.000000000000000 0.000000000000000 
1
1.000000000000000 0.000000000000000 0.000000000000000 0.000000000000000 
0.000000000000000 1.000000000000000 0.000000000000000 0.000000000000000 
0.000000000000000 0.000000000000000 1.000000000000000 0.000000000000000 
2  2 -1 0
Curve2ds 18
1 0.00000000000000000 38.10000000000000142 1.00000000000000000 0.00000000000000000 
1 5.51606163640381997 0.00000000000000000 0.00000000000000000 1.00000000000000000 
1 0.00000000000000000 6.35000000000000142 1.00000000000000000 0.00000000000000000 
1 6.28318530717958623 -0.00000000000000000 0.00000000000000000 1.00000000000000000 
1 0.00000000000000000 -0.00000000000000000 0.00000000000000000 1.00000000000000000 
1 0.00000000000000000 0.00000000000000000 1.00000000000000000 0.00000000000000000 
1 0.00000000000000000 6.35000000000000142 1.00000000000000000 0.00000000000000000 
1 0.76712367077576649 0.00000000000000000 0.00000000000000000 1.00000000000000000 
1 0.00000000000000000 38.10000000000000142 1.00000000000000000 0.00000000000000000 
1 0.00000000000000000 44.45000000000000284 1.00000000000000000 0.00000000000000000 
1 0.00000000000000000 6.35000000000000142 1.00000000000000000 0.00000000000000000 
1 3.90871632436555938 0.00000000000000000 0.00000000000000000 1.00000000000000000 
1 0.00000000000000000 38.10000000000000142 1.00000000000000000 0.00000000000000000 
1 2.37446898281402685 0.00000000000000000 0.00000000000000000 1.00000000000000000 
1 0.00000000000000000 66.00000000000000000 1.00000000000000000 0.00000000000000000 
1 0.00000000000000000 34.00000000000000000 1.00000000000000000 0.00000000000000000 
1 6.28318530717958623 -0.00000000000000000 0.00000000000000000 1.00000000000000000 
1 0.00000000000000000 -0.00000000000000000 0.00000000000000000 1.00000000000000000 
Curves 21
2 0.00000000000000000 15.87500000000000000 0.00000000000000000 0.00000000000000000 1.00000000000000000 0.00000000000000000 0.00000000000000000 0.00000000000000000 1.00000000000000000 1.00000000000000000 0.00000000000000000 0.00000000000000000 22.22500000000000142
1 -15.42564828459407344 -22.22500000000000142 16.00000000000000000 0.00000000000000000 1.00000000000000000 0.00000000000000000 
2 0.00000000000000000 -15.87500000000000000 0.00000000000000000 0.00000000000000000 1.00000000000000000 0.00000000000000000 0.00000000000000000 0.00000000000000000 1.00000000000000000 1.00000000000000000 0.00000000000000000 0.00000000000000000 22.22500000000000142
1 -0.00000000000000544 -22.22500000000000142 22.22500000000000142 0.00000000000000000 1.00000000000000000 0.00000000000000000 
2 0.00000000000000000 -22.22500000000000142 0.00000000000000000 0.00000000000000000 1.00000000000000000 0.00000000000000000 0.00000000000000000 0.00000000000000000 1.00000000000000000 1.00000000000000000 0.00000000000000000 0.00000000000000000 22.22500000000000142
2 0.00000000000000000 -15.87500000000000000 0.00000000000000000 0.00000000000000000 1.00000000000000000 0.00000000000000000 0.00000000000000000 0.00000000000000000 1.00000000000000000 1.00000000000000000 0.00000000000000000 0.00000000000000000 22.22500000000000142
1 15.42564828459407344 -22.22500000000000142 16.00000000000000000 0.00000000000000000 1.00000000000000000 0.00000000000000000 
2 0.00000000000000000 15.87500000000000000 0.00000000000000000 0.00000000000000000 1.00000000000000000 0.00000000000000000 0.00000000000000000 0.00000000000000000 1.00000000000000000 1.00000000000000000 0.00000000000000000 0.00000000000000000 22.22500000000000142
1 -0.00000000000000544 -22.22500000000000142 22.22500000000000142 0.00000000000000000 1.00000000000000000 0.00000000000000000 
2 0.00000000000000000 22.22500000000000142 0.00000000000000000 0.00000000000000000 1.00000000000000000 0.00000000000000000 0.00000000000000000 0.00000000000000000 1.00000000000000000 1.00000000000000000 0.00000000000000000 0.00000000000000000 22.22500000000000142
2 0.00000000000000000 -15.87500000000000000 0.00000000000000000 0.00000000000000000 1.00000000000000000 0.00000000000000000 0.00000000000000000 0.00000000000000000 1.00000000000000000 1.00000000000000000 0.00000000000000000 0.00000000000000000 22.22500000000000142
1 -15.42564828459407344 -22.22500000000000142 -16.00000000000000000 0.00000000000000000 1.00000000000000000 0.00000000000000000 
2 0.00000000000000000 15.87500000000000000 0.00000000000000000 0.00000000000000000 1.00000000000000000 0.00000000000000000 0.00000000000000000 0.00000000000000000 1.00000000000000000 1.00000000000000000 0.00000000000000000 0.00000000000000000 22.22500000000000142
1 15.42564828459407344 -22.22500000000000142 -16.00000000000000000 0.00000000000000000 1.00000000000000000 0.00000000000000000 
1 -50.00000000000000000 15.87500000000000000 16.00000000000000000 1.00000000000000000 0.00000000000000000 0.00000000000000000 
1 -50.00000000000000000 -15.87500000000000000 16.00000000000000000 1.00000000000000000 0.00000000000000000 0.00000000000000000 
2 0.00000000000000000 0.00000000000000000 16.00000000000000000 0.00000000000000000 0.00000000000000000 1.00000000000000000 1.00000000000000000 0.00000000000000000 0.00000000000000000 0.00000000000000000 1.00000000000000000 0.00000000000000000 6.50000000000000000
1 -50.00000000000000000 -15.87500000000000000 -16.00000000000000000 1.00000000000000000 0.00000000000000000 0.00000000000000000 
1 -50.00000000000000000 15.87500000000000000 -16.00000000000000000 1.00000000000000000 0.00000000000000000 0.00000000000000000 
2 0.00000000000000000 0.00000000000000000 -16.00000000000000000 0.00000000000000000 0.00000000000000000 1.00000000000000000 1.00000000000000000 0.00000000000000000 0.00000000000000000 0.00000000000000000 1.00000000000000000 0.00000000000000000 6.50000000000000000
1 6.50000000000000000 -0.00000000000000159 -50.00000000000000000 0.00000000000000000 0.00000000000000000 1.00000000000000000 
Polygon3D 0
PolygonOnTriangulations 0
Surfaces 10
2 0.00000000000000000 -22.22500000000000142 0.00000000000000000 0.00000000000000000 1.00000000000000000 0.00000000000000000 0.00000000000000000 0.00000000000000000 1.00000000000000000 1.00000000000000000 0.00000000000000000 0.00000000000000000 22.22500000000000142
1 -50.00000000000000000 15.87500000000000000 16.00000000000000000 0.00000000000000000 1.00000000000000000 0.00000000000000000 0.00000000000000000 0.00000000000000000 1.00000000000000000 1.00000000000000000 0.00000000000000000 0.00000000000000000 
1 -50.00000000000000000 -15.87500000000000000 16.00000000000000000 0.00000000000000000 0.00000000000000000 1.00000000000000000 1.00000000000000000 0.00000000000000000 0.00000000000000000 0.00000000000000000 1.00000000000000000 0.00000000000000000 
2 0.00000000000000000 0.00000000000000000 -50.00000000000000000 0.00000000000000000 0.00000000000000000 1.00000000000000000 1.00000000000000000 0.00000000000000000 0.00000000000000000 0.00000000000000000 1.00000000000000000 0.00000000000000000 6.50000000000000000
1 -50.00000000000000000 -15.87500000000000000 16.00000000000000000 0.00000000000000000 1.00000000000000000 0.00000000000000000 0.00000000000000000 0.00000000000000000 1.00000000000000000 1.00000000000000000 0.00000000000000000 0.00000000000000000 
1 0.00000000000000000 -22.22500000000000142 0.00000000000000000 0.00000000000000000 1.00000000000000000 0.00000000000000000 0.00000000000000000 0.00000000000000000 1.00000000000000000 1.00000000000000000 0.00000000000000000 0.00000000000000000 
1 0.00000000000000000 22.22500000000000142 0.00000000000000000 0.00000000000000000 1.00000000000000000 0.00000000000000000 0.00000000000000000 0.00000000000000000 1.00000000000000000 1.00000000000000000 0.00000000000000000 0.00000000000000000 
1 -50.00000000000000000 -15.87500000000000000 -116.00000000000000000 0.00000000000000000 1.00000000000000000 0.00000000000000000 0.00000000000000000 0.00000000000000000 1.00000000000000000 1.00000000000000000 0.00000000000000000 0.00000000000000000 
1 -50.00000000000000000 -15.87500000000000000 -16.00000000000000000 0.00000000000000000 0.00000000000000000 1.00000000000000000 1.00000000000000000 0.00000000000000000 0.00000000000000000 0.00000000000000000 1.00000000000000000 0.00000000000000000 
1 -50.00000000000000000 15.87500000000000000 -116.00000000000000000 0.00000000000000000 1.00000000000000000 0.00000000000000000 0.00000000000000000 0.00000000000000000 1.00000000000000000 1.00000000000000000 0.00000000000000000 0.00000000000000000 
Triangulations 0

TShapes 63
Ve
0.000000100000002
-15.425648284594075 15.875000000000000 16.000000000000000
0 0

0101101
*
Ve
0.000000100000005
-0.000000000000005 15.875000000000000 22.225000000000001
0 0

0101101
*
Ed
 0.000000100000000 1 1 0
1  1 0 5.516061636403820 6.283185307179586
2  1 1 0 5.516061636403820 6.283185307179586
0

0101000
+63 3 -62 3 *
Ve
0.000000100000002
-15.425648284594075 -15.875000000000000 16.000000000000000
0 0

0101101
*
Ed
 0.000000100000000 1 1 0
1  2 0 6.350000000000001 38.100000000000001
2  2 1 0 6.350000000000001 38.100000000000001
0

0101000
+60 3 -63 3 *
Ve
0.000000100000005
-0.000000000000005 -15.875000000000000 22.225000000000001
0 0

0101101
*
Ed
 0.000000100000000 1 1 0
1  3 0 5.516061636403820 6.283185307179586
2  3 1 0 5.516061636403820 6.283185307179586
0

0101000
+60 3 -58 3 *
Ve
0.000000100000000
-0.000000000000005 -22.225000000000001 22.225000000000001
0 0

0101101
*
Ed
 0.000000100000000 1 1 0
1  4 0 0.000000000000000 6.350000000000001
3  4 5CN 1 0 0.000000000000000 6.350000000000001
0

0101000
+56 3 -58 3 *
Ed
 0.000000100000000 1 1 0
1  5 0 0.000000000000000 6.283185307179586
2  6 1 0 0.000000000000000 6.283185307179586
0

0101000
+56 3 -56 3 *
Ve
0.000000100000005
15.425648284594075 -15.875000000000000 16.000000000000000
0 0

0101101
*
Ed
 0.000000100000000 1 1 0
1  6 0 0.000000000000000 0.767123670775766
2  7 1 0 0.000000000000000 0.767123670775766
0

0101000
+58 3 -53 3 *
Ve
0.000000100000005
15.425648284594075 15.875000000000000 16.000000000000000
0 0

0101101
*
Ed
 0.000000100000000 1 1 0
1  7 0 6.350000000000001 38.100000000000001
2  8 1 0 6.350000000000001 38.100000000000001
0

0101000
+53 3 -51 3 *
Ed
 0.000000100000000 1 1 0
1  8 0 0.000000000000000 0.767123670775766
2  9 1 0 0.000000000000000 0.767123670775766
0

0101000
+62 3 -51 3 *
Ve
0.000000100000000
-0.000000000000005 22.225000000000001 22.225000000000001
0 0

0101101
*
Ed
 0.000000100000000 1 1 0
1  9 0 38.100000000000001 44.450000000000003
3  4 5CN 1 0 38.100000000000001 44.450000000000003
0

0101000
+62 3 -48 3 *
Ed
 0.000000100000000 1 1 0
1  10 0 0.000000000000000 6.283185307179586
2  10 1 0 0.000000000000000 6.283185307179586
0

0101000
+48 3 -48 3 *
Wi

0101100
+61 0 +59 0 -57 0 +55 0 +54 0 -55 0 -52 0 -50 0 +49 0 -47 0 
-46 0 +47 0 *
Ve
0.000000100000005
15.425648284594075 -15.875000000000000 -16.000000000000000
0 0

0101101
*
Ve
0.000000100000010
-15.425648284594075 -15.875000000000000 -16.000000000000000
0 0

0101101
*
Ed
 0.000000100000000 1 1 0
1  11 0 2.374468982814027 3.908716324365559
2  11 1 0 2.374468982814027 3.908716324365559
0

0101000
+44 3 -43 3 *
Ve
0.000000100000010
-15.425648284594075 15.875000000000000 -16.000000000000000
0 0

0101101
*
Ed
 0.000000100000000 1 1 0
1  12 0 6.350000000000001 38.100000000000001
2  12 1 0 6.350000000000001 38.100000000000001
0

0101000
+43 3 -41 3 *
Ve
0.000000100000005
15.425648284594075 15.875000000000000 -16.000000000000000
0 0

0101101
*
Ed
 0.000000100000000 1 1 0
1  13 0 2.374468982814027 3.908716324365559
2  13 1 0 2.374468982814027 3.908716324365559
0

0101000
+39 3 -41 3 *
Ed
 0.000000100000000 1 1 0
1  14 0 6.350000000000001 38.100000000000001
2  14 1 0 6.350000000000001 38.100000000000001
0

0101000
+44 3 -39 3 *
Wi

0101100
-42 0 -40 0 +38 0 +37 0 *
Fa
0  0.000000100000000 1 0

0101000
+45 0 +36 0 *
Ed
 0.000000100000000 1 1 0
1  15 0 34.574351715405925 65.425648284594075
0

0101000
+63 3 -51 3 *
Wi

0101100
-34 0 +49 0 +61 0 *
Fa
0  0.000000100000000 2 0

0101000
+33 0 *
Ed
 0.000000100000000 1 1 0
1  16 0 34.574351715405925 65.425648284594075
0

0101000
+60 3 -53 3 *
Wi

0101100
-34 0 -59 0 +50 0 +31 0 *
Ve
0.000000100000002
6.500000000000000 -0.000000000000002 16.000000000000000
0 0

0101101
*
Ed
 0.000000100000000 1 1 0
1  17 0 0.000000000000000 6.283185307179586
2  15 4 0 0.000000000000000 6.283185307179586
0

0101100
+29 3 -29 3 *
Wi

0101100
-28 0 *
Fa
0  0.000000100000000 3 0

0101000
+30 0 +27 0 *
Wi

0101100
-31 0 +52 0 +57 0 *
Fa
0  0.000000100000000 5 0

0101000
+25 0 *
Wi

0101100
-54 0 *
Fa
0  0.000000100000000 6 0

0111000
-23 0 *
Wi

0101100
+46 0 *
Fa
0  0.000000100000000 7 0

0111000
+21 0 *
Ed
 0.000000100000000 1 1 0
1  18 0 34.574351715405925 65.425648284594075
0

0101000
+43 3 -44 3 *
Wi

0101100
+19 0 +42 0 *
Fa
0  0.000000100000000 8 0

0101000
+18 0 *
Ed
 0.000000100000000 1 1 0
1  19 0 34.574351715405925 65.425648284594075
0

0101000
+41 3 -39 3 *
Wi

0101100
-16 0 -40 0 +37 0 +19 0 *
Ve
0.000000100000002
6.500000000000000 -0.000000000000002 -16.000000000000000
0 0

0101101
*
Ed
 0.000000100000000 1 1 0
1  20 0 0.000000000000000 6.283185307179586
2  16 4 0 0.000000000000000 6.283185307179586
0

0101100
+14 3 -14 3 *
Wi

0101100
-13 0 *
Fa
0  0.000000100000000 9 0

0101000
+15 0 +12 0 *
Wi

0101100
+16 0 +38 0 *
Fa
0  0.000000100000000 10 0

0101000
+10 0 *
Ed
 0.000000100000000 1 1 0
1  21 0 34.000000000000000 66.000000000000000
3  17 18CN 4 0 34.000000000000000 66.000000000000000
0

0101000
+14 3 -29 3 *
Wi

0101100
-28 0 +8 0 +13 0 -8 0 *
Fa
0  0.000000100000000 4 0

0101000
+7 0 *
Sh

0101100
+35 0 -32 0 +26 0 +24 0 -22 0 +20 0 +17 0 -11 0 -9 0 -6 0 
*
So

0100000
+5 0 *
Co

0100000
+4 0 *
Co

0100000
+3 0 *
Co

1100000
+2 0 *

+1 1 