DBRep_DrawableShape

CASCADE Topology V1, (c) Matra-Datavision
Locations 0
Curve2ds 72
1 0 0 1 0 
1 0 0 1 0 
1 564.97077798861471 0 0 -1 
1 0 0 0 1 
1 0 0 0 -1 
1 0 0 0 1 
1 0 -1332.74 1 0 
1 0 0 1 0 
2 112.99415559772295 -1316.74 -1 0 0 1 8.8812499999999996
1 0 9 1 0 
2 225.9883111954459 -1316.74 -1 0 0 1 8.8812499999999996
1 0 9 1 0 
2 338.98246679316884 -1316.74 -1 0 0 1 8.8812499999999996
1 0 9 1 0 
2 451.97662239089181 -1316.74 -1 0 0 1 8.8812499999999996
1 0 9 1 0 
2 112.99415559772295 -16 -1 0 0 1 8.8812499999999996
1 0 9 1 0 
2 225.9883111954459 -16 -1 0 0 1 8.8812499999999996
1 0 9 1 0 
2 338.98246679316884 -16 -1 0 0 1 8.8812499999999996
1 0 9 1 0 
2 451.97662239089181 -16 -1 0 0 1 8.8812499999999996
1 0 9 1 0 
1 0 0 0 1 
1 0 0 1 0 
1 0 0 1 0 
1 0 8 1 0 
1 564.97077798861471 0 0 1 
1 0 0 1 0 
1 564.97077798861471 0 0 1 
1 0 1332.74 1 0 
1 564.97077798861471 0 0 -1 
1 8 0 0 1 
1 0 0 0 1 
1 0 1332.74 1 0 
1 0 0 0 -1 
1 8 0 0 1 
1 0 -1332.74 1 0 
1 0 8 1 0 
1 6.2831853071795862 -0 0 1 
1 0 -0 0 1 
2 112.99415559772295 -1316.74 -1 0 0 1 8.8812499999999996
1 0 1 1 0 
1 6.2831853071795862 -0 0 1 
1 0 -0 0 1 
2 225.9883111954459 -1316.74 -1 0 0 1 8.8812499999999996
1 0 1 1 0 
1 6.2831853071795862 -0 0 1 
1 0 -0 0 1 
2 338.98246679316884 -1316.74 -1 0 0 1 8.8812499999999996
1 0 1 1 0 
1 6.2831853071795862 -0 0 1 
1 0 -0 0 1 
2 451.97662239089181 -1316.74 -1 0 0 1 8.8812499999999996
1 0 1 1 0 
1 6.2831853071795862 -0 0 1 
1 0 -0 0 1 
2 112.99415559772295 -16 -1 0 0 1 8.8812499999999996
1 0 1 1 0 
1 6.2831853071795862 -0 0 1 
1 0 -0 0 1 
2 225.9883111954459 -16 -1 0 0 1 8.8812499999999996
1 0 1 1 0 
1 6.2831853071795862 -0 0 1 
1 0 -0 0 1 
2 338.98246679316884 -16 -1 0 0 1 8.8812499999999996
1 0 1 1 0 
1 6.2831853071795862 -0 0 1 
1 0 -0 0 1 
2 451.97662239089181 -16 -1 0 0 1 8.8812499999999996
1 0 1 1 0 
Curves 36
1 -132 -666.37 0 0 0 1 
1 -132 -666.37 564.97077798861471 -0 1 0 
1 -132 -666.37 0 -0 1 0 
1 -132 666.37 0 0 0 1 
2 -132 650.37 112.99415559772295 -1 0 0 0 0 -1 -0 -1 -0 8.8812499999999996
2 -132 650.37 225.9883111954459 -1 0 0 0 0 -1 -0 -1 -0 8.8812499999999996
2 -132 650.37 338.98246679316884 -1 0 0 0 0 -1 -0 -1 -0 8.8812499999999996
2 -132 650.37 451.97662239089181 -1 0 0 0 0 -1 -0 -1 -0 8.8812499999999996
2 -132 -650.37 112.99415559772295 -1 0 0 0 0 -1 -0 -1 -0 8.8812499999999996
2 -132 -650.37 225.9883111954459 -1 0 0 0 0 -1 -0 -1 -0 8.8812499999999996
2 -132 -650.37 338.98246679316884 -1 0 0 0 0 -1 -0 -1 -0 8.8812499999999996
2 -132 -650.37 451.97662239089181 -1 0 0 0 0 -1 -0 -1 -0 8.8812499999999996
1 -132 -666.37 0 1 0 -0 
1 -124 -666.37 0 0 0 1 
1 -132 -666.37 564.97077798861471 1 0 -0 
1 -132 666.37 564.97077798861471 1 0 -0 
1 -124 -666.37 564.97077798861471 -0 1 0 
1 -132 666.37 0 1 0 -0 
1 -124 -666.37 0 -0 1 0 
1 -124 666.37 0 0 0 1 
1 -123 650.37 104.11290559772296 -1 0 0 
2 -124 650.37 112.99415559772295 -1 0 0 0 0 -1 -0 -1 -0 8.8812499999999996
1 -123 650.37 217.10706119544591 -1 0 0 
2 -124 650.37 225.9883111954459 -1 0 0 0 0 -1 -0 -1 -0 8.8812499999999996
1 -123 650.37 330.10121679316882 -1 0 0 
2 -124 650.37 338.98246679316884 -1 0 0 0 0 -1 -0 -1 -0 8.8812499999999996
1 -123 650.37 443.09537239089178 -1 0 0 
2 -124 650.37 451.97662239089181 -1 0 0 0 0 -1 -0 -1 -0 8.8812499999999996
1 -123 -650.37 104.11290559772296 -1 0 0 
2 -124 -650.37 112.99415559772295 -1 0 0 0 0 -1 -0 -1 -0 8.8812499999999996
1 -123 -650.37 217.10706119544591 -1 0 0 
2 -124 -650.37 225.9883111954459 -1 0 0 0 0 -1 -0 -1 -0 8.8812499999999996
1 -123 -650.37 330.10121679316882 -1 0 0 
2 -124 -650.37 338.98246679316884 -1 0 0 0 0 -1 -0 -1 -0 8.8812499999999996
1 -123 -650.37 443.09537239089178 -1 0 0 
2 -124 -650.37 451.97662239089181 -1 0 0 0 0 -1 -0 -1 -0 8.8812499999999996
Polygon3D 0
PolygonOnTriangulations 0
Surfaces 14
1 -132 -666.37 0 1 0 -0 0 0 1 0 -1 0 
1 -132 -666.37 0 -0 1 0 0 0 1 1 0 -0 
1 -132 -666.37 564.97077798861471 0 0 1 1 0 -0 -0 1 0 
1 -132 -666.37 0 0 0 1 1 0 -0 -0 1 0 
1 -132 666.37 0 -0 1 0 0 0 1 1 0 -0 
2 -123 650.37 112.99415559772295 -1 0 0 0 0 -1 -0 -1 -0 8.8812499999999996
2 -123 650.37 225.9883111954459 -1 0 0 0 0 -1 -0 -1 -0 8.8812499999999996
2 -123 650.37 338.98246679316884 -1 0 0 0 0 -1 -0 -1 -0 8.8812499999999996
2 -123 650.37 451.97662239089181 -1 0 0 0 0 -1 -0 -1 -0 8.8812499999999996
2 -123 -650.37 112.99415559772295 -1 0 0 0 0 -1 -0 -1 -0 8.8812499999999996
2 -123 -650.37 225.9883111954459 -1 0 0 0 0 -1 -0 -1 -0 8.8812499999999996
2 -123 -650.37 338.98246679316884 -1 0 0 0 0 -1 -0 -1 -0 8.8812499999999996
2 -123 -650.37 451.97662239089181 -1 0 0 0 0 -1 -0 -1 -0 8.8812499999999996
1 -124 -666.37 0 1 0 -0 0 0 1 0 -1 0 
Triangulations 0

TShapes 114
Ve
1e-07
-132 -666.37 564.970777988615
0 0

0101101
*
Ve
1e-07
-132 -666.37 0
0 0

0101101
*
Ed
 1e-07 1 1 0
1  1 0 0 564.970777988615
2  1 1 0 0 564.970777988615
2  2 2 0 0 564.970777988615
0

0101000
-114 0 +113 0 *
Ve
1e-07
-132 666.37 564.970777988615
0 0

0101101
*
Ed
 1e-07 1 1 0
1  2 0 0 1332.74
2  3 1 0 0 1332.74
2  4 3 0 0 1332.74
0

0101000
-111 0 +114 0 *
Ve
1e-07
-132 666.37 0
0 0

0101101
*
Ed
 1e-07 1 1 0
1  3 0 0 1332.74
2  5 1 0 0 1332.74
2  6 4 0 0 1332.74
0

0101000
-109 0 +113 0 *
Ed
 1e-07 1 1 0
1  4 0 0 564.970777988615
2  7 1 0 0 564.970777988615
2  8 5 0 0 564.970777988615
0

0101000
-111 0 +109 0 *
Wi

0101100
-112 0 -110 0 +108 0 +107 0 *
Ve
1e-07
-132 650.37 104.112905597723
0 0

0101101
*
Ed
 1e-07 1 1 0
1  5 0 0 6.28318530717959
2  9 1 0 0 6.28318530717959
2  10 6 0 0 6.28318530717959
0

0101100
+105 0 -105 0 *
Wi

0101100
+104 0 *
Ve
1e-07
-132 650.37 217.107061195446
0 0

0101101
*
Ed
 1e-07 1 1 0
1  6 0 0 6.28318530717959
2  11 1 0 0 6.28318530717959
2  12 7 0 0 6.28318530717959
0

0101100
+102 0 -102 0 *
Wi

0101100
+101 0 *
Ve
1e-07
-132 650.37 330.101216793169
0 0

0101101
*
Ed
 1e-07 1 1 0
1  7 0 0 6.28318530717959
2  13 1 0 0 6.28318530717959
2  14 8 0 0 6.28318530717959
0

0101100
+99 0 -99 0 *
Wi

0101100
+98 0 *
Ve
1e-07
-132 650.37 443.095372390892
0 0

0101101
*
Ed
 1e-07 1 1 0
1  8 0 0 6.28318530717959
2  15 1 0 0 6.28318530717959
2  16 9 0 0 6.28318530717959
0

0101100
+96 0 -96 0 *
Wi

0101100
+95 0 *
Ve
1e-07
-132 -650.37 104.112905597723
0 0

0101101
*
Ed
 1e-07 1 1 0
1  9 0 0 6.28318530717959
2  17 1 0 0 6.28318530717959
2  18 10 0 0 6.28318530717959
0

0101100
+93 0 -93 0 *
Wi

0101100
+92 0 *
Ve
1e-07
-132 -650.37 217.107061195446
0 0

0101101
*
Ed
 1e-07 1 1 0
1  10 0 0 6.28318530717959
2  19 1 0 0 6.28318530717959
2  20 11 0 0 6.28318530717959
0

0101100
+90 0 -90 0 *
Wi

0101100
+89 0 *
Ve
1e-07
-132 -650.37 330.101216793169
0 0

0101101
*
Ed
 1e-07 1 1 0
1  11 0 0 6.28318530717959
2  21 1 0 0 6.28318530717959
2  22 12 0 0 6.28318530717959
0

0101100
+87 0 -87 0 *
Wi

0101100
+86 0 *
Ve
1e-07
-132 -650.37 443.095372390892
0 0

0101101
*
Ed
 1e-07 1 1 0
1  12 0 0 6.28318530717959
2  23 1 0 0 6.28318530717959
2  24 13 0 0 6.28318530717959
0

0101100
+84 0 -84 0 *
Wi

0101100
+83 0 *
Fa
0  1e-07 1 0

0101000
+106 0 +103 0 +100 0 +97 0 +94 0 +91 0 +88 0 +85 0 +82 0 *
Ve
1e-07
-124 -666.37 0
0 0

0101101
*
Ed
 1e-07 1 1 0
1  13 0 0 8
2  25 2 0 0 8
2  26 4 0 0 8
0

0101000
-80 0 +113 0 *
Ve
1e-07
-124 -666.37 564.970777988615
0 0

0101101
*
Ed
 1e-07 1 1 0
1  14 0 0 564.970777988615
2  27 14 0 0 564.970777988615
2  28 2 0 0 564.970777988615
0

0101000
-78 0 +80 0 *
Ed
 1e-07 1 1 0
1  15 0 0 8
2  29 2 0 0 8
2  30 3 0 0 8
0

0101000
-78 0 +114 0 *
Wi

0101100
-79 0 -77 0 +76 0 +112 0 *
Fa
0  1e-07 2 0

0111000
+75 0 *
Ve
1e-07
-124 666.37 564.970777988615
0 0

0101101
*
Ed
 1e-07 1 1 0
1  16 0 0 8
2  31 5 0 0 8
2  32 3 0 0 8
0

0101000
-73 0 +111 0 *
Ed
 1e-07 1 1 0
1  17 0 0 1332.74
2  33 14 0 0 1332.74
2  34 3 0 0 1332.74
0

0101000
-73 0 +78 0 *
Wi

0101100
-110 0 -72 0 +71 0 +76 0 *
Fa
0  1e-07 3 0

0111000
+70 0 *
Ve
1e-07
-124 666.37 0
0 0

0101101
*
Ed
 1e-07 1 1 0
1  18 0 0 8
2  35 5 0 0 8
2  36 4 0 0 8
0

0101000
-68 0 +109 0 *
Ed
 1e-07 1 1 0
1  19 0 0 1332.74
2  37 14 0 0 1332.74
2  38 4 0 0 1332.74
0

0101000
-68 0 +80 0 *
Wi

0101100
-108 0 -67 0 +66 0 +79 0 *
Fa
0  1e-07 4 0

0111000
+65 0 *
Ed
 1e-07 1 1 0
1  20 0 0 564.970777988615
2  39 14 0 0 564.970777988615
2  40 5 0 0 564.970777988615
0

0101000
-73 0 +68 0 *
Wi

0101100
-67 0 -63 0 +72 0 +107 0 *
Fa
0  1e-07 5 0

0111000
+62 0 *
Ve
1e-07
-124 650.37 104.112905597723
0 0

0101101
*
Ed
 1e-07 1 1 0
1  21 0 1 9
3  41 42CN 6 0 1 9
0

0101000
+60 0 -105 0 *
Ed
 1e-07 1 1 0
1  22 0 0 6.28318530717959
2  43 14 0 0 6.28318530717959
2  44 6 0 0 6.28318530717959
0

0101100
+60 0 -60 0 *
Wi

0101100
-104 0 +59 0 +58 0 -59 0 *
Fa
0  1e-07 6 0

0101000
+57 0 *
Ve
1e-07
-124 650.37 217.107061195446
0 0

0101101
*
Ed
 1e-07 1 1 0
1  23 0 1 9
3  45 46CN 7 0 1 9
0

0101000
+55 0 -102 0 *
Ed
 1e-07 1 1 0
1  24 0 0 6.28318530717959
2  47 14 0 0 6.28318530717959
2  48 7 0 0 6.28318530717959
0

0101100
+55 0 -55 0 *
Wi

0101100
-101 0 +54 0 +53 0 -54 0 *
Fa
0  1e-07 7 0

0101000
+52 0 *
Ve
1e-07
-124 650.37 330.101216793169
0 0

0101101
*
Ed
 1e-07 1 1 0
1  25 0 1 9
3  49 50CN 8 0 1 9
0

0101000
+50 0 -99 0 *
Ed
 1e-07 1 1 0
1  26 0 0 6.28318530717959
2  51 14 0 0 6.28318530717959
2  52 8 0 0 6.28318530717959
0

0101100
+50 0 -50 0 *
Wi

0101100
-98 0 +49 0 +48 0 -49 0 *
Fa
0  1e-07 8 0

0101000
+47 0 *
Ve
1e-07
-124 650.37 443.095372390892
0 0

0101101
*
Ed
 1e-07 1 1 0
1  27 0 1 9
3  53 54CN 9 0 1 9
0

0101000
+45 0 -96 0 *
Ed
 1e-07 1 1 0
1  28 0 0 6.28318530717959
2  55 14 0 0 6.28318530717959
2  56 9 0 0 6.28318530717959
0

0101100
+45 0 -45 0 *
Wi

0101100
-95 0 +44 0 +43 0 -44 0 *
Fa
0  1e-07 9 0

0101000
+42 0 *
Ve
1e-07
-124 -650.37 104.112905597723
0 0

0101101
*
Ed
 1e-07 1 1 0
1  29 0 1 9
3  57 58CN 10 0 1 9
0

0101000
+40 0 -93 0 *
Ed
 1e-07 1 1 0
1  30 0 0 6.28318530717959
2  59 14 0 0 6.28318530717959
2  60 10 0 0 6.28318530717959
0

0101100
+40 0 -40 0 *
Wi

0101100
-92 0 +39 0 +38 0 -39 0 *
Fa
0  1e-07 10 0

0101000
+37 0 *
Ve
1e-07
-124 -650.37 217.107061195446
0 0

0101101
*
Ed
 1e-07 1 1 0
1  31 0 1 9
3  61 62CN 11 0 1 9
0

0101000
+35 0 -90 0 *
Ed
 1e-07 1 1 0
1  32 0 0 6.28318530717959
2  63 14 0 0 6.28318530717959
2  64 11 0 0 6.28318530717959
0

0101100
+35 0 -35 0 *
Wi

0101100
-89 0 +34 0 +33 0 -34 0 *
Fa
0  1e-07 11 0

0101000
+32 0 *
Ve
1e-07
-124 -650.37 330.101216793169
0 0

0101101
*
Ed
 1e-07 1 1 0
1  33 0 1 9
3  65 66CN 12 0 1 9
0

0101000
+30 0 -87 0 *
Ed
 1e-07 1 1 0
1  34 0 0 6.28318530717959
2  67 14 0 0 6.28318530717959
2  68 12 0 0 6.28318530717959
0

0101100
+30 0 -30 0 *
Wi

0101100
-86 0 +29 0 +28 0 -29 0 *
Fa
0  1e-07 12 0

0101000
+27 0 *
Ve
1e-07
-124 -650.37 443.095372390892
0 0

0101101
*
Ed
 1e-07 1 1 0
1  35 0 1 9
3  69 70CN 13 0 1 9
0

0101000
+25 0 -84 0 *
Ed
 1e-07 1 1 0
1  36 0 0 6.28318530717959
2  71 14 0 0 6.28318530717959
2  72 13 0 0 6.28318530717959
0

0101100
+25 0 -25 0 *
Wi

0101100
-83 0 +24 0 +23 0 -24 0 *
Fa
0  1e-07 13 0

0101000
+22 0 *
Wi

0101100
-77 0 -71 0 +66 0 +63 0 *
Wi

0101100
+58 0 *
Wi

0101100
+53 0 *
Wi

0101100
+48 0 *
Wi

0101100
+43 0 *
Wi

0101100
+38 0 *
Wi

0101100
+33 0 *
Wi

0101100
+28 0 *
Wi

0101100
+23 0 *
Fa
0  1e-07 14 0

0101000
+20 0 +19 0 +18 0 +17 0 +16 0 +15 0 +14 0 +13 0 +12 0 *
Sh

0101100
-81 0 -74 0 +69 0 -64 0 +61 0 -56 0 -51 0 -46 0 -41 0 -36 0 
-31 0 -26 0 -21 0 +11 0 *
So

0100000
+10 0 *
Co

0100000
+9 0 *
Co

0100000
+8 0 *
Co

0100000
+7 0 *
Co

0100000
+6 0 *
Co

0100000
+5 0 *
Co

0100000
+4 0 *
Co

0100000
+3 0 *
Co

1100000
+2 0 *

+1 0 