
CASCADE Topology V1, (c) Matra-Datavision
Locations 3
1
1.000000000000000 0.000000000000000 0.000000000000000 0.000000000000000 
0.000000000000000 1.000000000000000 0.000000000000000 0.000000000000000 
0.000000000000000 0.000000000000000 1.000000000000000 0.000000000000000 
1
1.000000000000000 0.000000000000000 0.000000000000000 0.000000000000000 
0.000000000000000 1.000000000000000 0.000000000000000 0.000000000000000 
0.000000000000000 0.000000000000000 1.000000000000000 0.000000000000000 
2  2 -1 0
Curve2ds 14
1 6.28318530717958623 -0.00000000000000000 0.00000000000000000 1.00000000000000000 
1 0.00000000000000000 -0.00000000000000000 0.00000000000000000 1.00000000000000000 
1 0.00000000000000000 0.00000000000000000 1.00000000000000000 0.00000000000000000 
1 0.00000000000000000 39.68750000000000000 1.00000000000000000 0.00000000000000000 
7 0 0  8 51 8  4.98136875187271499 34.55000000000000426  4.98136875187271499 34.37229823441079901  4.97787535863787589 34.19487507537548510  4.97090705047375891 34.01939314164901873  4.96043873801042956 33.84765199107753375  4.94642310201344770 33.68176861006278955  4.92880506543778107 33.52436800845850229  4.90753720454491660 33.37884508180594167  4.86081473874785441 33.13695073057380824  4.83542368786114185 33.03253996586273189  4.80686692822997497 32.94538208642727994  4.77587331605477150 32.88192481721912941  4.74334791697843450 32.84634157994005221  4.71024911001321023 32.84063107843024198  4.67757058882010313 32.86456551504758750  4.61426035148618396 32.96756104072054683  4.58472880921484283 33.04610078474769352  4.55796224326430277 33.14599628248334540  4.53413950742188021 33.26290820692367589  4.51336703647108983 33.39306051752724613  4.49569358901601213 33.53311786951182683  4.48110943571481801 33.68013012983072940  4.45659211711680747 34.00127048799704710  4.44720841531929523 34.17955805668023572  4.44152593804708573 34.36340623650151116  4.43962287067645178 34.54999999999945004  4.44152593804700846 34.73659376349796446  4.44720841531928457 34.92044194332063967  4.45659211711695846 35.09872951200492253  4.48038485184358315 35.41037890063280713  4.49385458409348981 35.54814084474686808  4.51000618876673798 35.67983389110975878  4.52885606892813364 35.80320219135990811  4.55038533467153172 35.91564946740167841  4.57453608165085868 36.01418482711310531  4.60119855546895895 36.09532291891674305  4.65796665829990530 36.21205353727525278  4.68751172064408284 36.24860320807785996  4.71802442574443592 36.26077093393213602  4.74862945615168730 36.24701430460888929  4.77844789607074016 36.20788346107710254  4.80662734346001130 36.14596036525926337  4.83241935254198651 36.06594750869926713  4.88693899742079374 35.84848128052460936  4.91417411327949516 35.69592354168377568  4.93678932349839172 35.52459145675466345  4.95475059088435899 35.34026460088271904  4.96810625193345778 35.14749140035495145  4.97694854945813514 34.94979904982611174  4.98136875187271499 34.74988346950210172  4.98136875187271499 34.55000000000000426 
 0.00000000000000000 9 0.15339518904274954 7 0.28744696005351045 7 0.42437897865356067 7 0.57796144336777011 7 0.70630760833579120 7 0.82939954333221777 7 1.00000000000000000 9
7 0 0  8 51 8  0.00000000000000000 1.22832998684182648  0.10530474997878436 1.22832998684182648  0.21044399654486245 1.22243500358927570  0.31621405860030660 1.21067553161057284  0.42330017000792663 1.19342924317582932  0.53240042557622802 1.17144029283455353  0.64424531224971948 1.14591071316366899  0.75963867201151092 1.11858734790958492  0.98452007439906564 1.06833018821583381  1.09678144525125454 1.04441405912902163  1.21370295610828682 1.02246887807964160  1.33362726260367648 1.00535892795416659  1.45540723365760449 0.99554324101050762  1.57807412221527432 0.99412784552355293  1.70071618890588683 1.00073941654463905  1.94613986205876999 1.02730845567162166  2.06483301436946576 1.04711339207468690  2.17913229684706344 1.07115124257059757  2.28964267313243663 1.09715560340900842  2.39683102124937752 1.12309701109126880  2.50106946438459676 1.14733649718086728  2.60263565446034217 1.16866384834339021  2.81295805465077597 1.20609923548576514  2.92307452815910329 1.22161048705502751  3.03250200116839475 1.23150580219820038  3.14159265358950623 1.23490618305471700  3.25068330601086553 1.23150580219831185  3.36011077902091859 1.22161048705504105  3.47022725253010389 1.20609923548553621  3.67433379276181116 1.16977021230518829  3.76920003912888202 1.15003001277996075  3.86630011628338810 1.12772758803604400  3.96593288826594881 1.10381395117247694  4.06845567887287718 1.07955693829450383  4.17429177907412807 1.05653532151365481  4.28396544469667440 1.03655841572311624  4.50781623940110432 1.00695577010711323  4.62014741702884102 0.99713493113476437  4.73366849989582850 0.99364732502602171  4.84725340918116032 0.99742099881281099  4.95984408686390665 1.00820203345210180  5.07028851504725253 1.02447496572384655  5.17707566180355894 1.04404565222935108  5.41758038676866072 1.09334273583108299  5.55115304555084954 1.12517375903485295  5.67989048771512017 1.15645512562966024  5.80474635120479832 1.18408163549752143  5.92658366854255014 1.20594893011370585  6.04626756320629166 1.22087115010680125  6.16473584377093520 1.22832998684182648  6.28318530717958623 1.22832998684182648 
 0.00000000000000000 9 0.15339518904274954 7 0.28744696005351045 7 0.42437897865356067 7 0.57796144336777011 7 0.70630760833579120 7 0.82939954333221777 7 1.00000000000000000 9
7 0 0  8 51 8  1.30181655530687146 34.55000000000000426  1.30181655530687146 34.37229823441076348  1.30530994854171256 34.19487507537549931  1.31227825670582132 34.01939314164901873  1.32274656916915734 33.84765199107754796  1.33676220516614408 33.68176861006280376  1.35438024174180183 33.52436800845848097  1.37564810263467119 33.37884508180594167  1.42237056843171872 33.13695073057387930  1.44776161931853875 33.03253996586247609  1.47631837894934503 32.94538208642767785  1.50731199112521264 32.88192481721883809  1.53983739020081378 32.84634157994007353  1.57293619716653277 32.84063107843034146  1.60561471835945180 32.86456551504753776  1.66892495569339050 32.96756104072052551  1.69845649796477582 33.04610078474777879  1.72522306391525504 33.14599628248321039  1.74904579975770291 33.26290820692372563  1.76981827070852615 33.39306051752738824  1.78749171816355212 33.53311786951165629  1.80207587146477399 33.68013012983080046  1.82659319006257026 34.00127048799431151  1.83597689186011070 34.17955805667608615  1.84165936913249118 34.36340623649792292  1.84356243650326457 34.54999999999837712  1.84165936913266859 34.73659376350038031  1.83597689186015578 34.92044194332572005  1.82659319006226073 35.09872951200974001  1.80280045533598443 35.41037890063303450  1.78933072308617747 35.54814084474617886  1.77317911841275122 35.67983389111034143  1.75432923825145259 35.80320219136007864  1.73279997250814954 35.91564946740110287  1.70864922552864673 36.01418482711343216  1.68198675171065593 36.09532291891669331  1.62521864887965917 36.21205353727530252  1.59567358653552049 36.24860320807757574  1.56516088143521426 36.26077093393299577  1.53455585102774839 36.24701430460752505  1.50473741110898707 36.20788346107828914  1.47655796371949588 36.14596036525872336  1.45076595463762814 36.06594750869938082  1.39624630975874586 35.84848128052441751  1.36901119390006398 35.69592354168364068  1.34639598368117497 35.52459145675433660  1.32843471629523369 35.34026460088259824  1.31507905524615643 35.14749140035531383  1.30623675772146330 34.94979904982660912  1.30181655530687146 34.74988346950225804  1.30181655530687146 34.55000000000000426 
 0.00000000000000000 9 0.15339518904242253 7 0.28744696005281950 7 0.42437897865231100 7 0.57796144336349164 7 0.70630760833281581 7 0.82939954333047083 7 1.00000000000000000 9
7 0 0  8 51 8  0.00000000000000000 13.47167001315817281  0.10530474997880218 13.47167001315817281  0.21044399654484919 13.47756499641072558  0.31621405860030571 13.48932446838941779  0.42330017000791742 13.50657075682416774  0.53240042557621758 13.52855970716545286  0.64424531224973969 13.55408928683632652  0.75963867201151536 13.58141265209041748  0.98452007439899991 13.63166981178415149  1.09678144525166643 13.65558594087103117  1.21370295610718060 13.67753112192026244  1.33362726260528985 13.69464107204591130  1.45540723365625269 13.70445675898947968  1.57807412221589338 13.70587215447642215  1.70071618890576737 13.69926058345537356  1.94613986205872269 13.67269154432838540  2.06483301436963806 13.65288660792529640  2.17913229684684895 13.62884875742941837  2.28964267313244818 13.60284439659099043  2.39683102124959868 13.57690298890871183  2.50106946438440803 13.55266350281915599  2.60263565446038569 13.53133615165660153  2.81295805464898852 13.49390076451455656  2.92307452815658930 13.47838951294530396  3.03250200116636570 13.46849419780181378  3.14159265358892004 13.46509381694503560  3.25068330601218802 13.46849419780155088  3.36011077902387223 13.47838951294524179  3.47022725253325248 13.49390076451502196  3.67433379276195726 13.53022978769484119  3.76920003912830026 13.54996998721995283  3.86630011628401293 13.57227241196403611  3.96593288826602253 13.59618604882753701  4.06845567887226434 13.62044306170541752  4.17429177907455884 13.64346467848639755  4.28396544469656337 13.66344158427686928  4.50781623940118958 13.69304422989289804  4.62014741702858522 13.70286506886522027  4.73366849989615801 13.70635267497399923  4.84725340918097913 13.70257900118713756  4.95984408686385692 13.69179796654796810  5.07028851504743194 13.67552503427609523  5.17707566180343548 13.65595434777067396  5.41758038676887121 13.60665726416887722  5.55115304555103073 13.57482624096510726  5.67989048771518057 13.54354487437029597  5.80474635120487203 13.51591836450248429  5.92658366854245777 13.49405106988634451  6.04626756320589642 13.47912884989321824  6.16473584377083927 13.47167001315817281  6.28318530717958623 13.47167001315817281 
 0.00000000000000000 9 0.15339518904242253 7 0.28744696005281950 7 0.42437897865231100 7 0.57796144336349164 7 0.70630760833281581 7 0.82939954333047083 7 1.00000000000000000 9
1 0.00000000000000000 3.17499999999999982 1.00000000000000000 0.00000000000000000 
1 6.28318530717958623 -0.00000000000000000 0.00000000000000000 1.00000000000000000 
1 0.00000000000000000 -0.00000000000000000 0.00000000000000000 1.00000000000000000 
1 6.28318530717958623 -0.00000000000000000 0.00000000000000000 1.00000000000000000 
1 0.00000000000000000 -0.00000000000000000 0.00000000000000000 1.00000000000000000 
1 0.00000000000000000 0.00000000000000000 1.00000000000000000 0.00000000000000000 
Curves 9
1 -0.00000000000000156 -16.12500000000000000 6.34999999999999964 0.00000000000000000 1.00000000000000000 0.00000000000000000 
2 0.00000000000000000 -16.12500000000000000 0.00000000000000000 0.00000000000000000 1.00000000000000000 0.00000000000000000 0.00000000000000000 0.00000000000000000 1.00000000000000000 1.00000000000000000 0.00000000000000000 0.00000000000000000 6.34999999999999964
2 0.00000000000000000 23.56250000000000000 0.00000000000000000 0.00000000000000000 1.00000000000000000 0.00000000000000000 0.00000000000000000 0.00000000000000000 1.00000000000000000 1.00000000000000000 0.00000000000000000 0.00000000000000000 6.34999999999999964
7 0 0  8 51 8  -6.12167001315817316 18.42499999999999716 1.68750000000000044  -6.12167001315817316 18.24729823441080256 1.68750000000000044  -6.12756499641072416 18.06987507537547089 1.66611462365505081  -6.13932446838942791 17.89439314164903294 1.62345686227764485  -6.15657075682417165 17.72265199107754796 1.55925803622227654  -6.17855970716544611 17.55676861006277889 1.47300087380373190  -6.20408928683633132 17.39936800845850939 1.36402639954347960  -6.23141265209041517 17.25384508180595233 1.23169136840774840  -6.28166981178416606 17.01195073057381180 0.93929132703104479  -6.30558594087097823 16.90753996586271413 0.77980442081353907  -6.32753112192035783 16.82038208642730126 0.59968427680127112  -6.34464107204583350 16.75692481721913296 0.40337306365283165  -6.35445675898949247 16.72134157994003090 0.19673264910143828  -6.35587215447644649 16.71563107843025620 -0.01369991077635180  -6.34926058345536060 16.73956551504758750 -0.22122547610115650  -6.32269154432837954 16.84256104072054683 -0.62236656380565125  -6.30288660792531363 16.92110078474769708 -0.80899122848660321  -6.27884875742940096 17.02099628248332763 -0.97742060447076928  -6.25284439659099167 17.13790820692368655 -1.12655884735711243  -6.22690298890873173 17.26806051752727100 -1.25594280930089441  -6.20266350281913237 17.40811786951181617 -1.36554253303516981  -6.18133615165660988 17.55513012983072940 -1.45566759894702846  -6.14390076451423361 17.87627048799704710 -1.60678478075580466  -6.12838951294497125 18.05455805668024638 -1.66433005873178197  -6.11849419780179815 18.23840623650151471 -1.69903074454950120  -6.11509381694528287 18.42499999999945004 -1.71062464700859307  -6.11849419780168802 18.61159376349796446 -1.69903074454997904  -6.12838951294495882 18.79544194332064677 -1.66433005873186146  -6.14390076451446365 18.97372951200493318 -1.60678478075487674  -6.18022978769481135 19.28537890063280713 -1.46013371020496030  -6.19996998722003845 19.42314084474686098 -1.37690582872861400  -6.22227241196395475 19.55483389110975878 -1.27677980241558586  -6.24618604882752226 19.67820219135990101 -1.15945410909171254  -6.27044306170549515 19.79064946740167485 -1.02482747128330187  -6.29346467848634461 19.88918482711312308 -0.87308438492149609  -6.31344158427688296 19.97032291891674305 -0.70484980486121263  -6.34304422989288597 20.08705353727525633 -0.34558990245493670  -6.35286506886523572 20.12360320807810510 -0.15815199736315777  -6.35635267497397827 20.13577093393133666 0.03576358639719945  -6.35257900118718855 20.12201430461002261 0.23034245506200435  -6.34179796654789829 20.08288346107628541 0.41961431413077666  -6.32552503427615331 20.02096036525953338 0.59793749738984392  -6.30595434777064856 19.94094750869926713 0.76058754177452936  -6.25665726416891665 19.72348128052460225 1.10325948543620878  -6.22482624096514758 19.57092354168378989 1.27340436977962312  -6.19354487437033896 19.39959145675463859 1.41367561913165263  -6.16591836450247754 19.21526460088272259 1.52436954243295197  -6.14405106988629335 19.02249140035497277 1.60630981068742162  -6.12912884989319817 18.82479904982609042 1.66044149688195297  -6.12167001315817316 18.62488346950209461 1.68750000000000044  -6.12167001315817316 18.42499999999999716 1.68750000000000044 
 0.00000000000000000 9 0.15339518904274954 7 0.28744696005351045 7 0.42437897865356067 7 0.57796144336777011 7 0.70630760833579120 7 0.82939954333221777 7 1.00000000000000000 9
7 0 0  8 51 8  6.12167001315817316 18.42499999999999716 1.68750000000000000  6.12167001315817316 18.24729823441076704 1.68750000000000000  6.12756499641072772 18.06987507537548510 1.66611462365497909  6.13932446838941726 17.89439314164904360 1.62345686227776587  6.15657075682416988 17.72265199107756217 1.55925803622228143  6.17855970716545411 17.55676861006278955 1.47300087380361644  6.20408928683632599 17.39936800845848452 1.36402639954354687  6.23141265209041695 17.25384508180594523 1.23169136840774263  6.28166981178415185 17.01195073057388285 0.93929132703113005  6.30558594087103241 16.90753996586246899 0.77980442081288981  6.32753112192026279 16.82038208642768851 0.59968427680308078  6.34464107204591077 16.75692481721885940 0.40337306365019510  6.35445675898948004 16.72134157994004511 0.19673264910363208  6.35587215447642251 16.71563107843035567 -0.01369991077735211  6.34926058345537392 16.73956551504753776 -0.22122547610096022  6.32269154432838398 16.84256104072052551 -0.62236656380557354  6.30288660792529587 16.92110078474777168 -0.80899122848677085  6.27884875742942228 17.02099628248320684 -0.97742060447063217  6.25284439659098989 17.13790820692372918 -1.12655884735709289  6.22690298890871397 17.26806051752739535 -1.25594280930103985  6.20266350281915546 17.40811786951165629 -1.36554253303505346  6.18133615165660188 17.55513012983080046 -1.45566759894706044  6.14390076451455158 17.87627048799431151 -1.60678478075452014  6.12838951294530254 18.05455805667608615 -1.66433005873067685  6.11849419780181236 18.23840623649792292 -1.69903074454944525  6.11509381694503773 18.42499999999838778 -1.71062464700939643  6.11849419780154946 18.61159376350038386 -1.69903074455054082  6.12838951294524215 18.79544194332572005 -1.66433005873095552  6.14390076451502498 18.97372951200973645 -1.60678478075261300  6.18022978769483977 19.28537890063303095 -1.46013371020485283  6.19996998721995141 19.42314084474620017 -1.37690582872906875  6.22227241196403646 19.55483389111032011 -1.27677980241504851  6.24618604882754092 19.67820219136006799 -1.15945410909171054  6.27044306170541876 19.79064946740112418 -1.02482747128382168  6.29346467848639612 19.88918482711343572 -0.87308438492103135  6.31344158427686963 19.97032291891668976 -0.70484980486138771  6.34304422989289751 20.08705353727530252 -0.34558990245479837  6.35286506886521973 20.12360320807777825 -0.15815199736342822  6.35635267497400047 20.13577093393237050 0.03576358639741661  6.35257900118713881 20.12201430460835638 0.23034245506197415  6.34179796654796846 20.08288346107773137 0.41961431413066652  6.32552503427609647 20.02096036525888678 0.59793749739007351  6.30595434777067432 19.94094750869938082 0.76058754177435395  6.25665726416887491 19.72348128052441751 1.10325948543650743  6.22482624096510850 19.57092354168364068 1.27340436977986071  6.19354487437029810 19.39959145675435437 1.41367561913164774  6.16591836450248731 19.21526460088259824 1.52436954243290801  6.14405106988634397 19.02249140035529607 1.60630981068736989  6.12912884989321860 18.82479904982662333 1.66044149688179732  6.12167001315817316 18.62488346950225804 1.68750000000000000  6.12167001315817316 18.42499999999999716 1.68750000000000000 
 0.00000000000000000 9 0.15339518904242253 7 0.28744696005281950 7 0.42437897865231100 7 0.57796144336349164 7 0.70630760833281581 7 0.82939954333047083 7 1.00000000000000000 9
2 0.00000000000000000 -16.12500000000000000 0.00000000000000000 0.00000000000000000 1.00000000000000000 0.00000000000000000 0.00000000000000000 0.00000000000000000 1.00000000000000000 1.00000000000000000 0.00000000000000000 0.00000000000000000 9.52500000000000036
1 -7.34999999999999964 18.42500000000000071 1.68750000000000000 1.00000000000000000 0.00000000000000000 0.00000000000000000 
1 -0.00000000000000233 -19.30000000000000071 9.52500000000000036 0.00000000000000000 1.00000000000000000 0.00000000000000000 
2 0.00000000000000000 -19.30000000000000071 0.00000000000000000 0.00000000000000000 1.00000000000000000 0.00000000000000000 0.00000000000000000 0.00000000000000000 1.00000000000000000 1.00000000000000000 0.00000000000000000 0.00000000000000000 9.52500000000000036
Polygon3D 0
PolygonOnTriangulations 0
Surfaces 6
2 0.00000000000000000 -16.12500000000000000 0.00000000000000000 0.00000000000000000 1.00000000000000000 0.00000000000000000 0.00000000000000000 0.00000000000000000 1.00000000000000000 1.00000000000000000 0.00000000000000000 0.00000000000000000 6.34999999999999964
2 -7.34999999999999964 18.42500000000000071 0.00000000000000000 1.00000000000000000 0.00000000000000000 0.00000000000000000 0.00000000000000000 0.00000000000000000 1.00000000000000000 0.00000000000000000 -1.00000000000000000 0.00000000000000000 1.68750000000000000
1 0.00000000000000000 -16.12500000000000000 0.00000000000000000 0.00000000000000000 1.00000000000000000 0.00000000000000000 0.00000000000000000 0.00000000000000000 1.00000000000000000 1.00000000000000000 0.00000000000000000 0.00000000000000000 
2 0.00000000000000000 -19.30000000000000071 0.00000000000000000 0.00000000000000000 1.00000000000000000 0.00000000000000000 0.00000000000000000 0.00000000000000000 1.00000000000000000 1.00000000000000000 0.00000000000000000 0.00000000000000000 9.52500000000000036
1 0.00000000000000000 23.56250000000000000 0.00000000000000000 0.00000000000000000 1.00000000000000000 0.00000000000000000 0.00000000000000000 0.00000000000000000 1.00000000000000000 1.00000000000000000 0.00000000000000000 0.00000000000000000 
1 0.00000000000000000 -19.30000000000000071 0.00000000000000000 0.00000000000000000 1.00000000000000000 0.00000000000000000 0.00000000000000000 0.00000000000000000 1.00000000000000000 1.00000000000000000 0.00000000000000000 0.00000000000000000 
Triangulations 0

TShapes 34
Ve
0.000000100000000
-0.000000000000002 -16.125000000000000 6.350000000000000
0 0

0101101
*
Ve
0.000000100000000
-0.000000000000002 23.562500000000000 6.350000000000000
0 0

0101101
*
Ed
 0.000000100000000 1 1 0
1  1 0 0.000000000000000 39.687500000000000
3  1 2CN 1 0 0.000000000000000 39.687500000000000
0

0101000
+34 3 -33 3 *
Ed
 0.000000100000000 1 1 0
1  2 0 0.000000000000000 6.283185307179586
2  3 1 0 0.000000000000000 6.283185307179586
0

0101000
+34 3 -34 3 *
Ed
 0.000000100000000 1 1 0
1  3 0 0.000000000000000 6.283185307179586
2  4 1 0 0.000000000000000 6.283185307179586
0

0101000
+33 3 -33 3 *
Wi

0101100
+32 0 +31 0 -32 0 -30 0 *
Ve
0.000000100000004
-6.121670013158174 18.425000000000001 1.687500000000000
0 0

0101101
*
Ed
 0.000000100000000 1 1 0
1  4 0 0.000000000000000 1.000000000000000
2  5 1 0 0.000000000000000 1.000000000000000
2  6 2 0 0.000000000000000 1.000000000000000
0

0101100
+28 3 -28 3 *
Wi

0101100
+27 0 *
Ve
0.000000100000004
6.121670013158175 18.425000000000001 1.687500000000000
0 0

0101101
*
Ed
 0.000000100000000 1 1 0
1  5 0 0.000000000000000 1.000000000000000
2  7 1 0 0.000000000000000 1.000000000000000
2  8 2 0 0.000000000000000 1.000000000000000
0

0101100
+25 3 -25 3 *
Wi

0101100
-24 0 *
Fa
0  0.000000100000000 1 0

0101000
+29 0 +26 0 +23 0 *
Ve
0.000000100000000
-0.000000000000002 -16.125000000000000 9.525000000000000
0 0

0101101
*
Ed
 0.000000100000000 1 1 0
1  6 0 0.000000000000000 6.283185307179586
2  9 4 0 0.000000000000000 6.283185307179586
0

0101000
+21 3 -21 3 *
Wi

0101100
+20 0 *
Wi

0101100
-31 0 *
Fa
0  0.000000100000000 3 0

0101000
+19 0 +18 0 *
Wi

0101100
+30 0 *
Fa
0  0.000000100000000 5 0

0111000
+16 0 *
Ed
 0.000000100000000 1 1 0
1  7 0 1.228329986841826 13.471670013158175
3  10 11CN 2 0 1.228329986841826 13.471670013158175
0

0101000
+28 3 -25 3 *
Wi

0101100
-24 0 +14 0 +27 0 -14 0 *
Fa
0  0.000000100000000 2 0

0101000
+13 0 *
Ve
0.000000100000000
-0.000000000000002 -19.300000000000001 9.525000000000000
0 0

0101101
*
Ed
 0.000000100000000 1 1 0
1  8 0 0.000000000000000 3.175000000000000
3  12 13CN 4 0 0.000000000000000 3.175000000000000
0

0101000
-21 3 +11 3 *
Ed
 0.000000100000000 1 1 0
1  9 0 0.000000000000000 6.283185307179586
2  14 4 0 0.000000000000000 6.283185307179586
0

0101000
+11 3 -11 3 *
Wi

0101100
-20 0 +10 0 +9 0 -10 0 *
Fa
0  0.000000100000000 4 0

0111000
+8 0 *
Wi

0101100
-9 0 *
Fa
0  0.000000100000000 6 0

0111000
-6 0 *
Sh

0101100
+22 0 +17 0 +15 0 -12 0 +7 0 -5 0 *
So

0100000
+4 0 *
Co

0100000
+3 0 *
Co

1100000
+2 0 *

+1 1 