DBRep_DrawableShape

CASCADE Topology V1, (c) Matra-Datavision
Locations 10
1
-0.210117214973859               0 0.977676202007408 192.944398466162 
              0               1              -0            12.7 
-0.977676202007408               0 -0.210117214973859 -41.466632375091 
1
-0.422618261740699               0 0.90630778703665 1831.49464204576 
              0               1               0          222.25 
-0.90630778703665               0 -0.422618261740699 900.60294117647 
2  1 1 2 1 0
1
              1               0               0               0 
              0               1               0               0 
              0               0               1        14.18125 
1
-0.797276182925682               0 -0.603614685158881 1712.37128392966 
              0               1               0          234.95 
0.603614685158881               0 -0.797276182925682 743.260486476087 
2  4 1 5 1 0
2  2 -1 1 -1 0
1
              1               0               0               0 
              0               1               0               0 
              0               0               1               0 
2  8 -1 4 -1 0
2  5 -1 4 -1 0
Curve2ds 9
7 0 0  8 387 56  0 23.826433884264588  0.01263035183653358 23.826433884264588  0.025260034805656015 23.826433884264546  0.037889387553733368 23.8264338842645  0.050518650084872142 23.826433884264446  0.06314796376091926 23.826433884264404  0.075777371301462074 23.826433884264375  0.088406816783828404 23.826433884264361  0.10932426686582697 23.826433884264361  0.11761238817389129 23.826433884264361  0.12590050953883913 23.826433884264379  0.13418863093222946 23.826433884264372  0.14247675232562068 23.826433884264368  0.15076487369057054 23.826433884264365  0.15905299499863623 23.826433884264361  0.1779972718574474 23.826433884264361  0.18865342779327879 23.826433884264425  0.19930958392895176 23.826433884264468  0.20996574016454747 23.826433884264464  0.22062189640014587 23.826433884264375  0.23127805253582512 23.826433884264247  0.24193420847166183 23.826433884264134  0.26403586448144195 23.826433884264134  0.27548136528365563 23.826433884264304  0.28692686637153814 23.8264338842645  0.29837236760225511 23.82643388426461  0.30981786883297252 23.826433884264596  0.32126336992085586 23.826433884264485  0.33270887072307076 23.826433884264361  0.35559987147049588 23.826433884264361  0.36704537227270584 23.826433884264489  0.37849087336058335 23.826433884264581  0.38993637459129737 23.826433884264592  0.40138187582201457 23.826433884264489  0.41282737690989924 23.826433884264301  0.42427287771211375 23.826433884264134  0.44361182688618328 23.826433884264134  0.45150527575341171 23.826433884264198  0.45939872466521248 23.82643388426429  0.46729217359929648 23.826433884264397  0.47518562253337715 23.826433884264496  0.48307907144517059 23.82643388426456  0.49097252031239469 23.826433884264588  0.50715409033550662 23.826433884264588  0.51544221164356829 23.826433884264539  0.52373033300851324 23.826433884264475  0.53201845440190043 23.826433884264414  0.54030657579528818 23.826433884264375  0.54859469716023468 23.826433884264361  0.55688281846829812 23.826433884264361  0.57503775055097817 23.826433884264361  0.58490456161494009 23.826433884264333  0.59477137281491044 23.826433884264326  0.60463818408288061 23.826433884264354  0.6145049953508448 23.826433884264418  0.62437180655080049 23.82643388426451  0.6342386176147482 23.826433884264588  0.65594560119997025 23.826433884264588  0.66778577443290732 23.826433884264475  0.67962594800428633 23.826433884264336  0.69146612174488908 23.826433884264251  0.70330629548549495 23.826433884264244  0.71514646905688162 23.826433884264294  0.72698664228982479 23.826433884264361  0.74829895347506625 23.826433884264361  0.75777109210138149 23.826433884264404  0.76724323083859391 23.826433884264432  0.77671536963125498 23.82643388426445  0.78618750842391616 23.826433884264436  0.79565964716112869 23.8264338842644  0.8051317857874446 23.826433884264361  0.82604942462112851 23.826433884264361  0.83749492542333692 23.826433884264489  0.84894042651121504 23.826433884264585  0.86038592774193201 23.826433884264596  0.87183142897265498 23.826433884264489  0.88327693006054697 23.826433884264304  0.89472243086276848 23.826433884264134  0.91524539728972276 23.826433884264134  0.92432286347742298 23.82643388426424  0.93340032975476384 23.826433884264365  0.94247779607692983 23.826433884264492  0.95155526239910182 23.826433884264564  0.96063272867645766 23.826433884264592  0.9697101948641722 23.826433884264588  1.1089442702600081 23.826433884264574  1.2393351234491015 23.826433884263242  1.3695826150102581 23.826433884266716  1.4997552868904696 23.826433884262176  1.6299279587677704 23.826433884265498  1.7601754503302385 23.826433884264205  1.8905663035193003 23.826433884264354  2.0309843961140972 23.826433884264361  2.0412458796145971 23.82643388426434  2.0515073632805683 23.826433884264329  2.0617688470292777 23.826433884264357  2.0720303307779906 23.826433884264418  2.0822918144439697 23.82643388426451  2.0925532979444772 23.826433884264588  2.1134709368328357 23.826433884264588  2.1241270927686826 23.826433884264461  2.1347832489043719 23.826433884264311  2.1454394051399706 23.826433884264219  2.156095561375555 23.826433884264212  2.166751717511207 23.826433884264279  2.1774078734470184 23.826433884264361  2.194378788160221 23.826433884264361  2.2006935472592652 23.82643388426451  2.2070083063729218 23.826433884264627  2.2133230654938862 23.826433884264649  2.2196378246148529 23.826433884264535  2.2259525837285152 23.826433884264326  2.2322673428275648 23.826433884264134  2.2472648955452819 23.826433884264134  2.2559476892935284 23.826433884264219  2.2646304831135509 23.826433884264326  2.2733132769694691 23.826433884264407  2.2819960708253966 23.826433884264429  2.2906788646454417 23.8264338842644  2.2993616583937091 23.826433884264361  2.3194899524080079 23.826433884264361  2.3309354532102189 23.826433884264318  2.3423809542980982 23.826433884264283  2.3538264555288122 23.826433884264258  2.3652719567595284 23.826433884264276  2.3767174578474108 23.826433884264318  2.3881629586496258 23.826433884264361  2.4071072353974321 23.826433884264361  2.414606011823266 23.826433884264446  2.4221047882835869 23.826433884264532  2.42960356476115 23.826433884264528  2.4371023412387074 23.826433884264436  2.4446011176990168 23.826433884264276  2.4520998941248364 23.826433884264134  2.4706494985091685 23.826433884264134  2.4817003268789684 23.826433884264247  2.4927511554884658 23.826433884264386  2.5038019842178034 23.826433884264471  2.5148528129471304 23.826433884264478  2.5259036415566016 23.826433884264429  2.5369544699263771 23.826433884264361  2.5586614535727059 23.826433884264361  2.569317609508543 23.82643388426434  2.5799737656442203 23.826433884264336  2.5906299218798168 23.826433884264379  2.6012860781154141 23.826433884264443  2.6119422342510905 23.826433884264521  2.6225983901869241 23.826433884264588  2.6431213566829341 23.826433884264588  2.6529881677468974 23.826433884264524  2.6628549789468701 23.826433884264436  2.6727217902148421 23.826433884264336  2.682588601482808 23.826433884264244  2.6924554126827647 23.826433884264173  2.7023222237467128 23.826433884264134  2.7244238796703342 23.826433884264134  2.7366587253321155 23.826433884264262  2.7488935713926379 23.826433884264411  2.7611284176525333 23.826433884264503  2.7733632639124322 23.82643388426451  2.7855981099729639 23.826433884264443  2.7978329556347532 23.826433884264361  2.8211186287086689 23.826433884264361  2.8321694570784599 23.826433884264318  2.8432202856879436 23.826433884264269  2.854271114417275 23.826433884264251  2.8653219431466033 23.826433884264269  2.8763727717560847 23.826433884264315  2.8874236001258722 23.826433884264361  2.9099199285098276 23.826433884264361  2.9213654293120448 23.826433884264361  2.932810930399933 23.826433884264361  2.9442564316306532 23.826433884264361  2.9557019328613672 23.826433884264361  2.9671474339492439 23.826433884264361  2.9785929347514526 23.826433884264361  3.0014839354988831 23.826433884264361  3.0129294363010981 23.826433884264311  3.0243749373889788 23.826433884264265  3.0358204386196954 23.826433884264244  3.0472659398504156 23.826433884264265  3.0587114409383025 23.826433884264311  3.0701569417405188 23.826433884264361  3.0930479424879378 23.826433884264361  3.1044934432901514 23.826433884264297  3.1159389443780334 23.826433884264262  3.1273844456087514 23.826433884264276  3.138829946839468 23.826433884264361  3.1502754479273505 23.826433884264482  3.1617209487295646 23.826433884264588  3.1818492427438634 23.826433884264588  3.1905320364921228 23.82643388426456  3.199214830312163 23.826433884264503  3.2078976241680901 23.826433884264404  3.2165804180240163 23.826433884264297  3.2252632118440521 23.826433884264201  3.2339460055923102 23.826433884264134  3.2536796272431547 23.826433884264134  3.2647304556129426 23.826433884264176  3.2757812842224268 23.826433884264262  3.2868321129517581 23.826433884264357  3.2978829416810904 23.826433884264457  3.3089337702905772 23.826433884264539  3.3199845986603682 23.826433884264588  3.3389288754709807 23.826433884264588  3.3468223243382051 23.826433884264404  3.354715773250001 23.82643388426423  3.3626092221840822 23.826433884264159  3.3705026711181616 23.826433884264233  3.3783961200299548 23.826433884264414  3.3862895688971775 23.826433884264588  3.405233845707794 23.826433884264588  3.4162846740775841 23.826433884264432  3.4273355026870695 23.826433884264262  3.4383863314164018 23.826433884264155  3.4494371601457341 23.826433884264159  3.4604879887552178 23.826433884264251  3.4715388171250052 23.826433884264361  3.494035145508958 23.826433884264361  3.5054806463111774 23.826433884264318  3.5169261473990661 23.826433884264301  3.5283716486297867 23.826433884264326  3.5398171498605042 23.826433884264397  3.5512626509483853 23.8264338842645  3.5627081517505981 23.826433884264588  3.5808630836363067 23.826433884264588  3.5875725151779703 23.826433884264524  3.5942819467394163 23.826433884264429  3.6009913783107539 23.826433884264357  3.6077008098820911 23.826433884264329  3.6144102414435397 23.826433884264336  3.6211196729852078 23.826433884264361  3.6369065705504502 23.826433884264361  3.6459840367381586 23.826433884264333  3.6550615030155083 23.826433884264294  3.6641389693376767 23.826433884264279  3.6732164356598438 23.82643388426429  3.6822939019371899 23.826433884264322  3.6913713681248961 23.826433884264361  3.7107103174304381 23.826433884264361  3.7209718009309594 23.826433884264418  3.7312332845969567 23.826433884264461  3.7414947683456847 23.826433884264439  3.7517562520944057 23.826433884264357  3.7620177357603817 23.826433884264237  3.7722792192608829 23.826433884264134  3.7979329256266197 23.826433884264134  3.8133251506252375 23.82643388426429  3.8287173768806451 23.826433884264446  3.8441096037644478 23.82643388426451  3.8595018306482527 23.826433884264443  3.8748940569036634 23.82643388426429  3.8902862819022825 23.826433884264134  3.9155453158756539 23.826433884264134  3.9254121269396074 23.826433884264219  3.9352789381395699 23.826433884264333  3.9451457494075366 23.826433884264443  3.9550125606755033 23.826433884264524  3.9648793718754654 23.826433884264571  3.9747461829394206 23.826433884264588  4.0027679211980747 23.826433884264588  4.0209228529009531 23.826433884264404  4.0390777874732828 23.826433884264226  4.0572327234803405 23.826433884264155  4.075387659487399 23.826433884264219  4.0935425940597359 23.826433884264404  4.1116975257626232 23.826433884264588  4.1440606596685026 23.826433884264588  4.1582688674390003 23.826433884264524  4.1724770760517131 23.826433884264429  4.1866852850855389 23.826433884264357  4.2008934941193683 23.826433884264329  4.2151017027320892 23.826433884264336  4.2293099105025878 23.826433884264361  4.3520179769682263 23.826433884264354  4.4606122160768944 23.826433884264524  4.5691531691956317 23.826433884264862  4.6776578053292805 23.826433884262638  4.7861624414303403 23.826433884266514  4.8947033945683449 23.826433884263206  5.0032976336708543 23.826433884264581  5.1189015975745873 23.826433884264588  5.1260057015585385 23.826433884264475  5.1331098055688074 23.826433884264357  5.1402139095922301 23.826433884264311  5.1473180136156467 23.826433884264361  5.1544221176259004 23.826433884264475  5.1615262216098365 23.826433884264588  5.1820491875400547 23.826433884264588  5.1954680504750845 23.826433884264503  5.2088869140429592 23.826433884264382  5.2223057779272501 23.826433884264304  5.2357246418115313 23.826433884264286  5.2491435053793838 23.826433884264315  5.2625623683143923 23.826433884264361  5.285058696353401 23.826433884264361  5.2941361625411076 23.826433884264425  5.3032136288184546 23.826433884264485  5.3122910951406244 23.826433884264478  5.3213685614628012 23.826433884264393  5.3304460277401615 23.826433884264258  5.3395234939278806 23.826433884264134  5.3568890812038612 23.826433884264134  5.3651772025119246 23.82643388426429  5.3734653238768733 23.826433884264457  5.3817534452702631 23.826433884264514  5.3900415666636494 23.826433884264446  5.3983296880285909 23.82643388426429  5.4066178093366499 23.826433884264134  5.4251674138116792 23.826433884264134  5.4354288973121871 23.826433884264198  5.4456903809781663 23.82643388426429  5.4559518647268828 23.826433884264397  5.4662133484756001 23.826433884264496  5.4764748321415775 23.82643388426456  5.4867363156420801 23.826433884264588  5.5084432992680972 23.826433884264588  5.5198888000703201 23.826433884264439  5.5313343011582132 23.826433884264283  5.5427798023889423 23.826433884264222  5.5542253036196678 23.826433884264283  5.5656708047075583 23.826433884264436  5.5771163055097768 23.826433884264588  5.60000730625719 23.826433884264588  5.6114528070594076 23.826433884264461  5.6228983081472919 23.826433884264326  5.6343438093780058 23.826433884264262  5.6457893106087136 23.826433884264318  5.6572348116965809 23.826433884264453  5.6686803124987835 23.826433884264588  5.6884139340952364 23.826433884264588  5.6967020554033025 23.82643388426461  5.7049901767682556 23.826433884264599  5.7132782981616517 23.826433884264532  5.7215664195550442 23.826433884264411  5.7298545409199928 23.826433884264258  5.738142662228058 23.826433884264134  5.7551135770913886 23.826433884264134  5.7637963708396409 23.826433884264304  5.7724791646596696 23.826433884264482  5.7811619585155931 23.826433884264542  5.7898447523715211 23.826433884264475  5.7985275461915666 23.826433884264308  5.8072103399398332 23.826433884264134  5.8222078926575476 23.826433884264134  5.8285226517565869 23.826433884264326  5.8348374108702341 23.826433884264514  5.8411521699911848 23.826433884264592  5.8474669291121382 23.826433884264514  5.8537816882257898 23.826433884264322  5.8600964473248336 23.826433884264134  5.8778567067756695 23.826433884264134  5.8893022075778863 23.826433884264375  5.9007477086657731 23.826433884264624  5.9121932098964924 23.826433884264723  5.9236387111272109 23.826433884264617  5.9350842122150951 23.826433884264375  5.94652971301731 23.826433884264134  5.9686313690271033 23.826433884264134  5.9792875249629338 23.826433884264283  5.9899436810986026 23.826433884264436  6.000599837334196 23.826433884264528  6.0112559935697947 23.826433884264528  6.0219121497054759 23.82643388426445  6.0325683056413153 23.826433884264361  6.0534859445296707 23.826433884264361  6.063747428030184 23.826433884264333  6.074008911696172 23.826433884264297  6.0842703954448973 23.826433884264283  6.0945318791936156 23.826433884264301  6.1047933628595885 23.826433884264333  6.1150548463600884 23.826433884264361  6.1324204335568613 23.826433884264361  6.1395245375408098 23.826433884264361  6.1466286415510805 23.826433884264361  6.1537327455745121 23.826433884264361  6.1608368495979464 23.826433884264361  6.1679409536082197 23.826433884264361  6.17504505759217 23.826433884264361  6.1947786789241599 23.826433884264361  6.2074081970126889 23.826433884264361  6.2200377155685613 23.826433884264361  6.2326672343581064 23.826433884264397  6.245296753147656 23.826433884264457  6.2579262717035373 23.826433884264532  6.2705557897920734 23.826433884264588  6.2831853071795862 23.826433884264588 
 0 9 0.016082629901568911 7 0.026637013882721959 7 0.040206935861768427 7 0.054782037088439067 7 0.069357138315113046 7 0.079408932604414215 7 0.08996331658564051 7 0.10252805926829509 7 0.11760575009699634 7 0.12966790311603052 7 0.1442430043428311 7 0.15580256768989936 7 0.32154855472004246 7 0.33461588705619333 7 0.34818580903508883 7 0.35622724451327714 7 0.36728421818064477 7 0.38185931940727724 7 0.39140852399939213 7 0.40548103560904891 7 0.41905095758812944 7 0.43161570027058865 7 0.44719598068390476 7 0.46126849229340017 7 0.47584359351979066 7 0.49041869474622141 7 0.50499379597262251 7 0.51605076963977026 7 0.53012328124917985 7 0.54017507553808908 7 0.55424758714744615 7 0.56882268837370742 7 0.57736671355962876 7 0.58892627690637356 7 0.60199360924261258 7 0.62159460549925294 7 0.63415934818175401 7 0.6572784688806057 7 0.67537169690270116 7 0.81353922041217563 7 0.82258583530271456 7 0.83967388435233514 7 0.85123344769873321 7 0.8617878316792863 7 0.87485516401482699 7 0.8894302652407946 7 0.90400536646662744 7 0.91455975044715632 7 0.92561672411387164 7 0.93365815959158982 7 0.94823326081728121 7 0.96180318279544552 7 0.97487051513082745 7 0.98391713002112702 7 1 9
7 0 0  8 387 56  0 1.0558285300012094  0.012630351836529875 1.0558285300012094  0.025260034805651234 1.0558285300012185  0.037889387553729822 1.0558285300012271  0.050518650084871462 1.0558285300012316  0.063147963760922132 1.0558285300012293  0.075777371301467861 1.0558285300012216  0.088406816783834802 1.0558285300012136  0.10932426686582734 1.0558285300012136  0.11761238817389029 1.0558285300012136  0.12590050953883808 1.0558285300012162  0.13418863093222985 1.0558285300012216  0.14247675232562348 1.0558285300012293  0.15076487369057584 1.0558285300012382  0.15905299499864281 1.0558285300012449  0.17799727185744957 1.0558285300012449  0.18865342779327887 1.055828530001234  0.19930958392895112 1.0558285300012216  0.20996574016454841 1.0558285300012147  0.22062189640014995 1.0558285300012149  0.23127805253583283 1.0558285300012211  0.24193420847167146 1.0558285300012284  0.26403586448144567 1.0558285300012284  0.27548136528366013 1.0558285300012273  0.28692686637154469 1.0558285300012258  0.29837236760226316 1.0558285300012231  0.30981786883298051 1.05582853000122  0.32126336992086213 1.0558285300012171  0.33270887072307403 1.0558285300012151  0.35559987147049271 1.0558285300012151  0.36704537227269896 1.055828530001218  0.37849087336057563 1.0558285300012218  0.3899363745912926 1.0558285300012242  0.40138187582201623 1.0558285300012256  0.41282737690990873 1.0558285300012256  0.4242728777121284 1.0558285300012249  0.44361182688619283 1.0558285300012245  0.45150527575341515 1.0558285300012202  0.45939872466521109 1.055828530001216  0.46729217359929454 1.0558285300012156  0.47518562253337959 1.055828530001218  0.48307907144518009 1.0558285300012233  0.49097252031241001 1.0558285300012284  0.50715409033551773 1.055828530001228  0.51544221164357351 1.055828530001218  0.52373033300851413 1.0558285300012089  0.53201845440190076 1.0558285300012062  0.54030657579529251 1.0558285300012122  0.548594697160246 1.0558285300012245  0.556882818468315 1.055828530001236  0.57503775055099027 1.0558285300012358  0.58490456161494153 1.0558285300012271  0.59477137281490233 1.0558285300012171  0.60463818408287029 1.05582853000121  0.61450499535084113 1.0558285300012085  0.62437180655080915 1.0558285300012118  0.63423861761476763 1.0558285300012162  0.65594560119998335 1.055828530001216  0.66778577443292453 1.0558285300012216  0.67962594800430698 1.0558285300012276  0.69146612174490796 1.0558285300012293  0.70330629548550527 1.0558285300012262  0.71514646905687884 1.0558285300012198  0.72698664228980969 1.0558285300012136  0.74829895347504516 1.0558285300012142  0.75777109210136706 1.0558285300012156  0.76724323083859103 1.0558285300012182  0.77671536963126353 1.0558285300012216  0.78618750842393326 1.0558285300012256  0.79565964716115056 1.0558285300012291  0.80513178578746725 1.0558285300012311  0.82604942462114572 1.0558285300012307  0.83749492542335968 1.055828530001228  0.84894042651124157 1.0558285300012238  0.8603859277419561 1.0558285300012187  0.87183142897266819 1.0558285300012131  0.88327693006054397 1.0558285300012078  0.89472243086275005 1.055828530001204  0.91524539728969823 1.0558285300012047  0.92432286347740944 1.0558285300012105  0.93340032975476639 1.055828530001218  0.94247779607694671 1.0558285300012236  0.95155526239912736 1.0558285300012265  0.96063272867648564 1.055828530001226  0.96971019486419763 1.0558285300012242  1.1089442702599961 1.0558285300012218  1.2393351234493597 1.0558285300012422  1.3695826150095729 1.0558285300011296  1.4997552868914616 1.055828530001391  1.6299279587670616 1.0558285300010282  1.7601754503305025 1.0558285300013253  1.8905663035193156 1.0558285300011987  2.0309843961140679 1.0558285300012005  2.0412458796145754 1.0558285300012098  2.0515073632805603 1.0558285300012185  2.0617688470292834 1.0558285300012218  2.0720303307780079 1.0558285300012176  2.0822918144439946 1.0558285300012078  2.0925532979445038 1.0558285300011983  2.1134709368328566 1.0558285300011976  2.1241270927686884 1.0558285300011967  2.1347832489043643 1.0558285300011987  2.1454394051399599 1.0558285300012054  2.156095561375551 1.0558285300012162  2.1667517175112185 1.0558285300012291  2.1774078734470437 1.0558285300012391  2.1943787881602415 1.0558285300012384  2.2006935472592839 1.0558285300012242  2.2070083063729342 1.0558285300012085  2.2133230654938907 1.0558285300011994  2.2196378246148476 1.0558285300012  2.2259525837285006 1.0558285300012087  2.2322673428275435 1.0558285300012189  2.2472648955452592 1.0558285300012189  2.2559476892935333 1.0558285300012096  2.2646304831135851 1.0558285300012002  2.2733132769695166 1.0558285300011983  2.2819960708254343 1.0558285300012042  2.2906788646454519 1.0558285300012165  2.2993616583936904 1.055828530001228  2.3194899524079835 1.0558285300012284  2.3309354532102105 1.0558285300012178  2.3423809542981093 1.0558285300012058  2.3538264555288388 1.0558285300011998  2.3652719567595604 1.0558285300012018  2.3767174578474402 1.05582853000121  2.3881629586496476 1.0558285300012187  2.4071072353974494 1.0558285300012182  2.4146060118232726 1.0558285300012187  2.4221047882835847 1.0558285300012189  2.4296035647611443 1.0558285300012185  2.4371023412387074 1.0558285300012169  2.4446011176990274 1.0558285300012149  2.4520998941248564 1.0558285300012134  2.4706494985091814 1.0558285300012129  2.4817003268789715 1.0558285300012087  2.4927511554884609 1.0558285300012054  2.5038019842177959 1.0558285300012074  2.5148528129471277 1.0558285300012145  2.5259036415566096 1.0558285300012249  2.5369544699263944 1.0558285300012338  2.5586614535727179 1.0558285300012333  2.5693176095085439 1.0558285300012331  2.5799737656442114 1.0558285300012298  2.5906299218798079 1.0558285300012225  2.6012860781154146 1.0558285300012114  2.6119422342511074 1.0558285300011994  2.6225983901869543 1.0558285300011903  2.6431213566829586 1.0558285300011898  2.6529881677469085 1.0558285300011938  2.6628549789468678 1.0558285300012005  2.6727217902148337 1.0558285300012067  2.6825886014828035 1.055828530001212  2.6924554126827696 1.0558285300012158  2.7023222237467266 1.0558285300012171  2.7244238796703422 1.0558285300012171  2.7366587253321275 1.0558285300012118  2.7488935713926526 1.0558285300012069  2.7611284176525475 1.0558285300012051  2.7733632639124428 1.0558285300012074  2.7855981099729661 1.0558285300012129  2.7978329556347474 1.0558285300012182  2.8211186287086578 1.0558285300012187  2.8321694570784519 1.0558285300012196  2.8432202856879432 1.0558285300012189  2.8542711144172821 1.0558285300012156  2.8653219431466157 1.0558285300012091  2.8763727717560972 1.0558285300012018  2.8874236001258824 1.055828530001196  2.9099199285098289 1.055828530001196  2.9213654293120466 1.0558285300011978  2.9328109303999352 1.0558285300012005  2.9442564316306559 1.0558285300012038  2.9557019328613725 1.0558285300012069  2.967147433949251 1.0558285300012096  2.9785929347514597 1.0558285300012111  3.0014839354988836 1.0558285300012111  3.0129294363010954 1.0558285300012122  3.024374937388977 1.0558285300012125  3.0358204386196963 1.0558285300012118  3.0472659398504178 1.0558285300012105  3.058711440938306 1.0558285300012089  3.0701569417405232 1.0558285300012076  3.0930479424879369 1.0558285300012076  3.1044934432901492 1.0558285300012102  3.1159389443780325 1.055828530001212  3.1273844456087505 1.0558285300012102  3.1388299468394698 1.0558285300012054  3.150275447927354 1.0558285300011983  3.1617209487295677 1.055828530001192  3.1818492427438603 1.055828530001192  3.190532036492121 1.0558285300011954  3.1992148303121604 1.0558285300012  3.2078976241680897 1.0558285300012054  3.2165804180240163 1.05582853000121  3.2252632118440512 1.0558285300012131  3.2339460055923075 1.0558285300012145  3.2536796272431459 1.0558285300012145  3.2647304556129368 1.0558285300012098  3.2757812842224223 1.0558285300012042  3.2868321129517573 1.0558285300012022  3.2978829416810913 1.0558285300012036  3.3089337702905777 1.0558285300012076  3.3199845986603673 1.0558285300012116  3.3389288754709745 1.0558285300012116  3.3468223243381985 1.0558285300012082  3.3547157732499966 1.0558285300012051  3.3626092221840804 1.055828530001204  3.3705026711181647 1.055828530001206  3.3783961200299619 1.05582853000121  3.3862895688971855 1.0558285300012138  3.4052338457077957 1.0558285300012138  3.4162846740775792 1.0558285300012116  3.4273355026870598 1.0558285300012091  3.438386331416392 1.0558285300012082  3.4494371601457301 1.0558285300012094  3.4604879887552231 1.0558285300012118  3.4715388171250172 1.0558285300012142  3.4940351455089651 1.0558285300012138  3.5054806463111743 1.0558285300012071  3.516926147399055 1.0558285300012009  3.528371648629772 1.0558285300011983  3.5398171498604887 1.0558285300012011  3.5512626509483738 1.0558285300012082  3.5627081517505901 1.0558285300012153  3.5808630836362929 1.0558285300012153  3.5875725151779596 1.0558285300012147  3.5942819467394078 1.0558285300012136  3.6009913783107472 1.0558285300012111  3.6077008098820866 1.0558285300012076  3.6144102414435331 1.0558285300012038  3.6211196729851967 1.0558285300012009  3.636906570550436 1.0558285300012011  3.6459840367381418 1.05582853000121  3.6550615030154923 1.0558285300012193  3.6641389693376651 1.0558285300012231  3.673216435659842 1.0558285300012191  3.6822939019371996 1.05582853000121  3.6913713681249134 1.0558285300012009  3.7107103174304501 1.0558285300012005  3.7209718009309518 1.0558285300011985  3.7312332845969296 1.0558285300011983  3.7414947683456536 1.0558285300012031  3.7517562520943843 1.0558285300012127  3.7620177357603821 1.0558285300012245  3.7722792192609029 1.0558285300012338  3.7979329256266317 1.0558285300012331  3.8133251506252406 1.0558285300012207  3.8287173768806393 1.0558285300012071  3.8441096037644376 1.0558285300011991  3.8595018306482389 1.0558285300011998  3.8748940569036492 1.0558285300012076  3.8902862819022679 1.0558285300012165  3.9155453158756304 1.0558285300012169  3.9254121269395963 1.0558285300012138  3.9352789381395694 1.0558285300012105  3.9451457494075428 1.0558285300012087  3.9550125606755064 1.0558285300012089  3.9648793718754587 1.0558285300012107  3.9747461829394024 1.0558285300012129  4.002767921198048 1.0558285300012134  4.020922852900938 1.0558285300012082  4.0390777874732811 1.0558285300012042  4.0572327234803423 1.0558285300012051  4.0753876594874008 1.055828530001212  4.0935425940597279 1.0558285300012229  4.1116975257626036 1.0558285300012322  4.1440606596684768 1.0558285300012329  4.1582688674389718 1.0558285300012211  4.1724770760516909 1.0558285300012089  4.1866852850855292 1.055828530001204  4.2008934941193727 1.0558285300012078  4.2151017027321069 1.0558285300012189  4.2293099105026162 1.05582853000123  4.3520179769682219 1.055828530001228  4.4606122160761306 1.0558285300010697  4.5691531691978184 1.055828530001524  4.6776578053264419 1.055828530000877  4.7861624414321877 1.055828530001417  4.894703394567836 1.0558285300011725  5.0032976336708348 1.0558285300012142  5.1189015975745367 1.0558285300012178  5.1260057015584914 1.0558285300012211  5.1331098055687692 1.055828530001224  5.140213909592207 1.0558285300012253  5.1473180136156431 1.0558285300012231  5.1544221176259155 1.0558285300012187  5.1615262216098623 1.0558285300012147  5.182049187540076 1.0558285300012145  5.1954680504750979 1.0558285300012118  5.208886914042961 1.0558285300012102  5.2223057779272386 1.0558285300012127  5.2357246418115082 1.0558285300012189  5.2491435053793509 1.0558285300012273  5.2625623683143496 1.0558285300012342  5.2850586963533521 1.0558285300012349  5.2941361625410748 1.0558285300012329  5.303213628818443 1.0558285300012296  5.3122910951406297 1.0558285300012256  5.3213685614628128 1.055828530001222  5.3304460277401713 1.0558285300012189  5.3395234939278851 1.0558285300012169  5.3568890812038612 1.0558285300012169  5.3651772025119149 1.0558285300012165  5.3734653238768555 1.0558285300012173  5.3817534452702382 1.0558285300012196  5.3900415666636254 1.055828530001224  5.3983296880285696 1.0558285300012291  5.4066178093366304 1.0558285300012331  5.4251674138116535 1.0558285300012338  5.4354288973121605 1.0558285300012311  5.4456903809781432 1.0558285300012276  5.4559518647268685 1.0558285300012236  5.4662133484755966 1.0558285300012196  5.476474832141589 1.0558285300012165  5.4867363156421032 1.0558285300012145  5.5084432992681132 1.0558285300012145  5.5198888000703281 1.0558285300012169  5.5313343011582106 1.05582853000122  5.5427798023889325 1.0558285300012213  5.5542253036196545 1.0558285300012213  5.5656708047075441 1.0558285300012198  5.5771163055097626 1.055828530001218  5.6000073062571687 1.055828530001218  5.611452807059381 1.055828530001224  5.6228983081472634 1.0558285300012296  5.6343438093779845 1.0558285300012302  5.6457893106087047 1.0558285300012251  5.6572348116965889 1.0558285300012162  5.668680312498803 1.055828530001208  5.6884139340952471 1.0558285300012076  5.6967020554033043 1.05582853000121  5.7049901767682467 1.055828530001214  5.7132782981616339 1.0558285300012189  5.7215664195550264 1.0558285300012238  5.7298545409199795 1.0558285300012278  5.7381426622280474 1.0558285300012304  5.7551135770913726 1.0558285300012304  5.763796370839632 1.0558285300012262  5.7724791646596731 1.0558285300012216  5.7811619585156038 1.0558285300012182  5.7898447523715308 1.0558285300012173  5.7985275461915657 1.0558285300012187  5.8072103399398207 1.0558285300012209  5.8222078926575334 1.0558285300012213  5.8285226517565727 1.0558285300012247  5.8348374108702252 1.0558285300012269  5.8411521699911821 1.0558285300012258  5.8474669291121444 1.0558285300012209  5.8537816882257996 1.0558285300012131  5.8600964473248442 1.0558285300012065  5.8778567067756793 1.0558285300012065  5.889302207577888 1.0558285300012185  5.9007477086657651 1.0558285300012307  5.9121932098964809 1.0558285300012378  5.9236387111272011 1.055828530001236  5.9350842122150889 1.0558285300012276  5.9465297130173065 1.0558285300012182  5.9686313690270909 1.0558285300012182  5.9792875249629214 1.0558285300012187  5.9899436810985947 1.0558285300012187  6.0005998373341916 1.0558285300012189  6.0112559935697956 1.0558285300012191  6.0219121497054831 1.0558285300012189  6.032568305641326 1.0558285300012187  6.0534859445296734 1.0558285300012187  6.063747428030184 1.055828530001218  6.074008911696172 1.0558285300012178  6.0842703954448947 1.0558285300012187  6.0945318791936129 1.0558285300012205  6.104793362859593 1.0558285300012231  6.1150548463600982 1.0558285300012253  6.1324204335568622 1.0558285300012253  6.1395245375408063 1.0558285300012313  6.1466286415510751 1.0558285300012371  6.1537327455745094 1.0558285300012384  6.1608368495979446 1.0558285300012344  6.1679409536082188 1.0558285300012269  6.17504505759217 1.0558285300012196  6.1947786789241546 1.0558285300012196  6.2074081970126835 1.0558285300012245  6.2200377155685596 1.0558285300012289  6.2326672343581091 1.0558285300012289  6.2452967531476604 1.0558285300012242  6.2579262717035427 1.0558285300012165  6.2705557897920778 1.0558285300012094  6.2831853071795862 1.0558285300012094 
 0 9 0.016082629901568911 7 0.026637013882721959 7 0.040206935861768427 7 0.054782037088439067 7 0.069357138315113046 7 0.079408932604414215 7 0.08996331658564051 7 0.10252805926829509 7 0.11760575009699634 7 0.12966790311603052 7 0.1442430043428311 7 0.15580256768989936 7 0.32154855472004246 7 0.33461588705619333 7 0.34818580903508883 7 0.35622724451327714 7 0.36728421818064477 7 0.38185931940727724 7 0.39140852399939213 7 0.40548103560904891 7 0.41905095758812944 7 0.43161570027058865 7 0.44719598068390476 7 0.46126849229340017 7 0.47584359351979066 7 0.49041869474622141 7 0.50499379597262251 7 0.51605076963977026 7 0.53012328124917985 7 0.54017507553808908 7 0.55424758714744615 7 0.56882268837370742 7 0.57736671355962876 7 0.58892627690637356 7 0.60199360924261258 7 0.62159460549925294 7 0.63415934818175401 7 0.6572784688806057 7 0.67537169690270116 7 0.81353922041217563 7 0.82258583530271456 7 0.83967388435233514 7 0.85123344769873321 7 0.8617878316792863 7 0.87485516401482699 7 0.8894302652407946 7 0.90400536646662744 7 0.91455975044715632 7 0.92561672411387164 7 0.93365815959158982 7 0.94823326081728121 7 0.96180318279544552 7 0.97487051513082745 7 0.98391713002112702 7 1 9
1 6.2831853071795862 -0 0 1 
1 0 -0 0 1 
1 0 19.181250000000063 1 0 
2 8.9375000000001101 8.9375 1 0 -0 1 4.1187500000000012
1 0 0.32030124297543716 1 0 
1 6.2831853071795862 -6.2831853071795862 0 1 
1 0 -6.2831853071795862 0 1 
Curves 5
7 0 0  8 387 56  1697.7235906895478 234.95000000000002 730.73675711527471  1697.7235906895478 235.00202126162671 730.73675711527471  1697.7241893297937 235.05403977464593 730.73630388705726  1697.725386582991 235.10604427736635 730.73539745130711  1697.7271822256273 235.15802311510453 730.73403797725791  1697.7295758379723 235.20996424018506 730.7322257826919  1697.7325668040767 235.2618552119406 730.72996133393963  1697.736154311775 235.31368319671182 730.72724524588034  1697.7430825144013 235.39939757642676 730.72199993072275  1697.7460841588068 235.43332757190075 730.71972739746309  1697.7493419983923 235.46722139755755 730.71726089983292  1697.7528557082105 235.50107550302494 730.71460068384886  1697.7566249258714 235.53488634427063 730.71174702387441  1697.7606492515431 235.56865038360235 730.70870022262113  1697.764928247952 235.60236408966756 730.70546061114715  1697.775289830528 235.6793008837067 730.69761589743518  1697.7815384230673 235.72248880471275 730.69288511242087  1697.7882062086123 235.76558020625407 730.68783695801915  1697.7952920767918 235.80856762110426 730.68247227488712  1697.8027948162576 235.85144360902839 730.67679198013172  1697.8107131146805 235.89420075678262 730.67079706731215  1697.8190455587517 235.93683167811452 730.66448860643914  1697.8371834928785 236.02497429970393 730.6507564473311  1697.8470523796718 236.07046548649382 730.64328475167247  1697.8573954177518 236.11579345433603 730.63545407792606  1697.8682105989647 236.16094913409935 730.62726594645721  1697.8794957838168 236.2059235073184 730.61872197706828  1697.8912487014748 236.25070760619266 730.60982388899868  1697.903466949763 236.29529251358701 730.60057350092518  1697.9288290405714 236.38404621247676 730.58137196099915  1697.9419728861637 236.42821501472102 730.57142080682115  1697.9555769981605 236.4721669034152 730.56112118674503  1697.9696387156841 236.51589307772574 730.55047511531143  1697.9841552507578 236.55938480233505 730.53948470328646  1697.9991236883093 236.60263340744126 730.5281521576602  1698.0145409861686 236.64563028875858 730.51647978164669  1698.0413439677875 236.71784043869144 730.49618734891476  1698.0524959431648 236.74719018596227 730.48774423189866  1698.0638588620664 236.77641334982451 730.47914141036426  1698.0754316576042 236.80550714833529 730.47037969204825  1698.087213235139 236.8344688171139 730.46145990569767  1698.0992024722809 236.86329560934203 730.45238290106886  1698.1113982188908 236.89198479576336 730.44314954892832  1698.1368204291468 236.95050997698615 730.42390249280322  1698.1500679400897 236.98033159110349 730.41387285399264  1698.1635404662584 237.0099953677958 730.40367285703314  1698.1772366114442 237.03949819186207 730.39330355898903  1698.1911549468796 237.06883697214039 730.38276604157465  1698.2052940112369 237.0980086415075 730.37206141115541  1698.2196523106288 237.12701015687927 730.36119079874732  1698.2515807088507 237.19015795395057 730.3370179331165  1698.2692416448708 237.22423198569277 730.32364690741224  1698.2872085506876 237.25805549981442 730.31004423316949  1698.3054787878871 237.29162345580227 730.29621190792113  1698.32404965562 237.32493086725253 730.28215197646944  1698.3429183906046 237.35797280187037 730.26786653088527  1698.3620821671227 237.39074438147026 730.25335771050777  1698.404885212298 237.4622364615729 730.22095169212855  1698.4286530335901 237.50083589178047 730.20295716742817  1698.4528365684857 237.53903073434881 730.18464790758219  1698.477430703347 237.57681277689315 730.16602778410561  1698.5024302033121 237.61417393289415 730.14710076029189  1698.527829712295 237.65110624169807 730.12787089121241  1698.5536237529871 237.68760186851668 730.10834232371656  1698.600753106567 237.75249409400715 730.07266087413564  1698.6219484070039 237.78105067827104 730.05661399493124  1698.6433897626091 237.80931891173242 730.04038082831948  1698.6650742618576 237.83729490557178 730.02396357860448  1698.686998947253 237.86497482763664 730.00736448489556  1698.7091608153282 237.89235490244167 729.99058582110604  1698.7315568166453 237.91943141116849 729.97362989595331  1698.7815248608024 237.97854690485011 729.93579928482097  1698.8092032023021 238.01044454958938 729.91484412054024  1698.8372134175168 238.04188716330162 729.89363769596537  1698.8655499540585 238.07286841406378 729.87218421478883  1698.8942071699221 238.10338210061136 729.85048794854947  1698.9231793334932 238.13342215233865 729.82855323663057  1698.9524606235441 238.16298262929882 729.80638448626087  1699.0055087033325 238.21511727925403 729.76622199217695  1699.0291630073964 238.23787152673026 729.74831341092749  1699.0530050935897 238.26031756761074 729.73026266056138  1699.0770319821204 238.28245256003996 729.71207199706669  1699.1012406612424 238.3042737173281 729.69374370062485  1699.1256280872549 238.32577830795097 729.67528007561054  1699.1501911845007 238.34696365555041 729.65668345059157  1699.5295973811169 238.66697672983932 729.36943650051069  1699.9203862948466 238.90049372404945 729.07357173974617  1700.3373135575873 239.05936233711694 728.757917737002  1700.7697105952511 239.13898722199684 728.43055162806274  1701.2067399852554 239.13696289108813 728.09967838325758  1701.6374019357884 239.05374575397994 727.77362590200983  1702.0506165716267 238.89199000241851 727.46078271459805  1702.4658295278493 238.64046721496973 727.14642660662503  1702.4960006316437 238.62164008845212 727.12358418174415  1702.5259950054503 238.60236958687341 727.10087555844723  1702.5558078189786 238.58265875992828 727.07830439372765  1702.5854342837981 238.56251075551157 727.05587431288802  1702.6148696533357 238.54192881971827 727.0335889095403  1702.6441092228763 238.52091629684347 727.01145174560611  1702.703304324828 238.47721235942836 726.96663536504309  1702.7332441456699 238.45448745189964 726.94396804358303  1702.7629625700426 238.43130576238315 726.92146834052505  1702.7924544320192 238.4076712551666 726.89914016697185  1702.8217146217939 238.38358800323871 726.87698739153882  1702.8507380856777 238.35906018828874 726.85501384035376  1702.8795198260998 238.33409210070653 726.83322329705732  1702.9249645764721 238.29363393996516 726.7988172539882  1702.9417876321174 238.27842667542095 726.78608058424356  1702.9585230407729 238.26306726095396 726.77341027169348  1702.9751697822931 238.2475566243522 726.7608070886854  1702.9917268441604 238.2318957061876 726.74827180179193  1703.0081932214882 238.21608545981636 726.73580517180926  1703.0245679170177 238.20012685137854 726.72340795375828  1703.0632377240252 238.16187512160639 726.69413119385763  1703.0854503012495 238.13945073592168 726.67731413836873  1703.1074850995371 238.1167502482229 726.66063167861955  1703.1293395750361 238.09377624755356 726.64408574054914  1703.1510112133012 238.07053136652246 726.62767822783485  1703.1724975292918 238.04701828130308 726.61141102189083  1703.1937960673731 238.02323971163398 726.59528598186887  1703.2427290225157 237.967507629306 726.55823903258715  1703.2702231491858 237.93536032710526 726.53742333663513  1703.2973812221148 237.90276284610798 726.5168620656583  1703.3241977790253 237.86972164036482 726.4965593551251  1703.3506674545772 237.83624328608562 726.4765192671149  1703.3767849803626 237.80233448163941 726.45674579031822  1703.4025451849081 237.76800204755452 726.43724284003633  1703.4445829379436 237.71048626020095 726.40541622134731  1703.4610673252109 237.68754072834358 726.39293595611014  1703.4773947291173 237.66441828250194 726.38057454236218  1703.4935637424712 237.64112089497843 726.36833304548338  1703.5095729772474 237.61765055882154 726.35621251634177  1703.5254210645867 237.59400928782637 726.34421399129542  1703.5411066547963 237.57019911653444 726.33233849219107  1703.5795025930645 237.51088755095216 726.30326907724395  1703.6020209799881 237.47519065191636 726.2862204944264  1703.6241793180086 237.43913798410458 726.26944450322776  1703.6459734429507 237.40273621767682 726.25294425632808  1703.6673992865806 237.36599211197509 726.23672283377209  1703.6884528766036 237.3289125155232 726.22078324296865  1703.7091303366647 237.2915043660266 726.20512841869083  1703.7490005236443 237.2173925029474 726.17494285579971  1703.7682199062128 237.18071133841082 726.16039193629877  1703.7870826447513 237.14373749710381 726.14611103060031  1703.8055854379252 237.1064773471625 726.13210263813141  1703.8237250723714 237.06893732451681 726.11836919171776  1703.841498422694 237.03112393289129 726.10491305758433  1703.8589024514658 236.99304374380486 726.09173653535481  1703.8917043554422 236.91920307474888 726.06690234192763  1703.9071553416616 236.88347970388782 726.05520446058881  1703.9222848268869 236.84753855398228 726.04374998639707  1703.9370905378184 236.81138493803894 726.03254064045962  1703.9515702688539 236.7750242120768 726.02157809262815  1703.9657218820898 236.73846177512669 726.01086396150117  1703.9795433073234 236.70170306923168 726.00039981442239  1704.0097591925544 236.61893621362159 725.9775234856902  1704.0259750709151 236.57282548741134 725.96524650749757  1704.0416763580242 236.52643186268281 725.95335912433211  1704.0568594013741 236.47976588487552 725.94186410149416  1704.071520715052 236.43283818300162 725.93076407815317  1704.0856569797434 236.38565946964562 725.92006156734965  1704.0992650427295 236.33824054096473 725.90975895599513  1704.1241532892241 236.24755513394138 725.89091616174971  1704.1355313115314 236.2043308846836 725.88230190548563  1704.1464737851095 236.16092754442059 725.87401740146413  1704.1569786247762 236.11735317110217 725.86606422836815  1704.167043859871 236.07361586512346 725.85844387817724  1704.176667634252 236.02972376932459 725.85115775616885  1704.1858482062983 235.98568506899073 725.84420718091803  1704.2036316822739 235.89575316222042 725.83074338069173  1704.2122022473618 235.84984988469375 725.82425463932725  1704.2202938365892 235.8038073010423 725.81812852871633  1704.2279047771196 235.75763458682755 725.81236631535728  1704.2350335308608 235.71134095140158 725.80696916373336  1704.2416786944664 235.6649356379074 725.80193813631354  1704.2478389993337 235.61842792327889 725.7972741935514  1704.2591876238764 235.52522631320269 725.78868219422009  1704.264375944927 235.47853240646748 725.78475413661067  1704.2690771411803 235.43175470881357 725.78119487928291  1704.2732902157036 235.38490254921564 725.77800517701098  1704.2770143082091 235.33798527484436 725.77518568111611  1704.2802486950509 235.29101225106658 725.77273693946654  1704.2829927892287 235.24399286144492 725.77065939647866  1704.2874994915414 235.14988015403162 725.76724738975361  1704.2892621002231 235.10278682484176 725.76591292560283  1704.2905335163557 235.05566592194904 725.76495034141294  1704.2913134272642 235.00852684958213 725.76435987390937  1704.291601657671 234.9613790144187 725.76414165579399  1704.2913981696959 234.91423182558506 725.76429571574533  1704.2907030628578 234.86709469465629 725.76482197841847  1704.2886164791062 234.78423260364636 725.76640172282998  1704.2874335911067 234.74849937311666 725.76729728271596  1704.2859680135591 234.71278145256474 725.76840686575474  1704.2842198953576 234.67708294670629 725.76973035921958  1704.2821894308058 234.64140795647512 725.77126761600402  1704.2798768596144 234.60576057902287 725.77301845462398  1704.2772824669039 234.57014490771934 725.77498265921497  1704.2707463676747 234.48928155522182 725.7799311144214  1704.2666301826648 234.44405605439425 725.78304746202116  1704.2620587099861 234.39889696348166 725.7865085061369  1704.2570327496094 234.35381269461865 725.79031364111472  1704.2515532196624 234.30881163826248 725.79446217184307  1704.2456211564306 234.26390216319291 725.79895331375417  1704.2392377143578 234.2190926165122 725.80378619282317  1704.2275230599737 234.14246182784402 725.81265531191787  1704.2224123073804 234.1105875603001 725.8165246427518  1704.217072371908 234.07877155380038 725.82056748704827  1704.211503747526 234.04701683258511 725.82478347082599  1704.2057069585285 234.01532641234758 725.82917219714227  1704.1996825595388 233.98370330023477 725.83373324609545  1704.1934311355053 233.95215049484676 725.83846617482254  1704.177884334636 233.87659967542109 725.85023659705882  1704.1683716030816 233.83267201997435 725.85743864897677  1704.1584167962023 233.78889622792735 725.86497539439699  1704.1480217173544 233.74528046350716 725.87284546800561  1704.1371882840895 233.70183284713664 725.88104741803147  1704.1259185281526 233.65856145543515 725.8895797062487  1704.1142145954841 233.61547432121819 725.89844070797437  1704.0895094738371 233.52815258575555 725.91714485911325  1704.0764768798576 233.48393195139491 725.92701178513005  1704.0629834757303 233.43992640675546 725.93722758871024  1704.0490319001674 233.39614476316453 725.94779027209552  1704.0346249191407 233.35259576693713 725.95869774117909  1704.019765425885 233.3092880993762 725.96994780550494  1704.0044564408938 233.26623037677214 725.98153817826847  1703.9794652290664 233.19834194777229 726.00045892716548  1703.9700759644547 233.17334157225554 726.00756750274331  1703.9605339518373 233.14843174541511 726.01479172323957  1703.950839839508 233.12361417978912 726.02213109783384  1703.9409942903035 233.09889057889222 726.02958512469502  1703.9309979816037 233.0742626372153 726.03715329098134  1703.9208516053311 233.04973204022554 726.04483507284112  1703.8966263410764 232.99224597978119 726.06317592582184  1703.8824234152407 232.95937274619081 726.07392890551716  1703.8679488404932 232.92668491633 726.08488754954328  1703.8532044139918 232.89418660890158 726.09605049727861  1703.8381919800056 232.86188190857618 726.1074163524338  1703.8229134299143 232.82977486599199 726.11898368305299  1703.8073707022083 232.79786949775533 726.13075102151333  1703.773699351691 232.73033533056287 726.15624346952109  1703.7554978678529 232.69476367539167 726.17002374186836  1703.7369641998521 232.65946057482836 726.18405550954787  1703.7181012898482 232.62443171990887 726.19833654506249  1703.6989121532783 232.58968273880305 726.21286456543601  1703.6793998788589 232.55521919681448 726.22763723221419  1703.6595676285824 232.52104659638084 726.2426521514642  1703.6091951548938 232.43635605393965 726.28078895461715  1703.5782589899716 232.38620856248679 726.30421060429012  1703.546621072742 232.33674627705082 726.328163547896  1703.5142926760634 232.28798720766906 726.35263925079607  1703.481285415872 232.23994900008074 726.37762891861166  1703.447611251175 232.19264893572642 726.40312349722433  1703.4132824840542 232.14610393174851 726.429113672776  1703.3558946259861 232.07098862035394 726.47256179605063  1703.3332136960655 232.04196375676113 726.48973343953651  1703.3102722977299 232.01326030591758 726.50710228264199  1703.2870738114843 231.98488255501164 726.52466576600148  1703.2636216705093 231.95683472271494 726.54242129036561  1703.2399193606661 231.92912095918237 726.56036621660337  1703.215970420493 231.90174534605237 726.5784978657008  1703.1472652105601 231.82497036173046 726.6305143118833  1703.1019291064338 231.77638721250318 726.66483809930446  1703.055792537767 231.72898748594488 726.69976791530382  1703.0088784436166 231.68279535388388 726.7352863928113  1702.961210293159 231.63783412279679 726.77137576340442  1702.912812085689 231.59412623380851 726.80801785731057  1702.8637083506212 231.5516932626922 726.84519410340624  1702.7749625904785 231.4783614720948 726.91238317190664  1702.735584228499 231.44696053702668 726.94219637601009  1702.6958010636831 231.41636303140274 726.97231605476009  1702.6556252619284 231.38657851790907 727.00273299740411  1702.6150691528971 231.35761620517945 727.03343786920175  1702.5741452300188 231.32948494779544 727.06442121142663  1702.5328661504889 231.30219324628666 727.09567344136576  1702.17340604674 231.07381171168288 727.36781928241658  1701.835326414883 230.92113159628823 727.62377805167694  1701.4830831748984 230.82175807866975 727.89046003334772  1701.1229471038387 230.77783502648174 728.16311764661214  1700.7612489823534 230.79030067978854 728.43695788214995  1700.4043562425625 230.85877018426868 728.70715998197261  1700.05864317282 230.9816507418293 728.96889799725113  1699.7089043399963 231.16681044800279 729.23368390204041  1699.6874858146141 231.17840776042016 729.24989978397934  1699.666142595707 231.19022306096628 729.26605865167994  1699.6448763282208 231.20225545100593 729.28215925976065  1699.623688648639 231.21450400863066 729.29820036924536  1699.6025811849856 231.22696778865881 729.31418074756391  1699.5815555568231 231.23964582263548 729.3300991685519  1699.5210559241837 231.27688734313099 729.37590320420452  1699.481796191991 231.30199847255005 729.40562659416025  1699.4428450459643 231.32786381703852 729.43511635473328  1699.4042132266661 231.35447640231573 729.46436435428768  1699.3659113479248 231.38182896987203 729.49336255713445  1699.3279498968393 231.40991397696851 729.5221030235324  1699.2903392337762 231.43872359663695 729.55057790968806  1699.2278913038967 231.48822327145356 729.59785699357451  1699.2028582182868 231.50852470916311 729.61680944494879  1699.1779935012778 231.52915152142052 729.63563442511304  1699.1533002879105 231.55010114255563 729.6543295605394  1699.1287816825352 231.57137095061577 729.67289250093756  1699.104440758807 231.59295826736593 729.69132091925405  1699.0802805596904 231.61486035828881 729.70961251167216  1699.0344125448694 231.65735684835317 729.74433900660335  1699.0126741625493 231.67789935011785 729.76079705098152  1698.9910912430651 231.69869981379381 729.77713739505327  1698.9696660555419 231.71975607813332 729.79335832087293  1698.9484008456627 231.74106594472573 729.80945812824359  1698.927297835666 231.76262717799787 729.82543513471637  1698.9063592243474 231.78443750521379 729.84128767559162  1698.8598694270261 231.83380342045032 729.87648491962602  1698.8344070019032 231.86149051799055 729.89576242226929  1698.8092040411536 231.88955152404043 729.91484348544941  1698.7842646141421 231.91798197158207 729.93372502826458  1698.7595927301388 231.94677731163446 729.95240401531282  1698.7351923383164 231.97593291325316 729.9708774566908  1698.7110673277523 232.00544406353066 729.98914240799388  1698.6606242890132 232.06861347546183 730.02733263567018  1698.6343744057408 232.10235735705859 730.04720631980433  1698.608477191586 232.13653095748381 730.06681299952652  1698.5829378590886 232.17112750556899 730.08614872844248  1698.5577615193531 232.20614011387923 730.10520963695592  1698.5329531820466 232.2415617787135 730.1239919322677  1698.5085177553985 232.27738538010465 730.14249189837608  1698.4604023370066 232.34982198353401 730.17891989377597  1698.4367223394347 232.38643499434511 730.19684792747978  1698.4134248600637 232.42343547779112 730.21448635814795  1698.3905145959795 232.46081609326487 730.23183162963369  1698.367996134783 232.49856939601315 730.24888026868314  1698.3458739545858 232.53668783713724 730.26562888493493  1698.3241524240138 232.5751637635924 730.28207417092017  1698.2873996273001 232.64210454826846 730.30989956981159  1698.2721757748413 232.67040307068623 730.32142548906745  1698.257165861354 232.69888204108605 730.33278943596326  1698.2423714715558 232.72753848954378 730.34399021071567  1698.2277941583534 232.75636942056687 730.35502663762463  1698.2134354428442 232.78537181309414 730.36589756507351  1698.1992968143145 232.81454262049584 730.37660186552932  1698.1707999279133 232.87461188010332 730.3981767469586  1698.1564632707909 232.90552645646378 730.40903097408955  1698.1423714346654 232.93661896714514 730.41969984819866  1698.1285260554369 232.96788585217021 730.43018213075413  1698.1149287291105 232.99932352409459 730.44047661342563  1698.1015810117985 233.03092836800684 730.4505821180868  1698.0884844197194 233.06269674152816 730.46049749681515  1698.0662993450828 233.11784550835216 730.4772937302015  1698.0570918680226 233.14115059675143 730.48426467513377  1698.0480185657657 233.1645388286554 730.49113403684544  1698.0390799945574 233.18800878587825 730.49790139420702  1698.0302766991331 233.21155904340318 730.50456633480087  1698.0216092127205 233.23518816938261 730.51112845492207  1698.0130780570407 233.25889472513788 730.51758735957776  1697.9894690474546 233.32578311724006 730.53546164855493  1697.9747038943951 233.36913859563657 730.54664028828608  1697.960391322865 233.41273508781018 730.55747628030861  1697.9465342445383 233.45656391873726 730.56796742020504  1697.9331354430253 233.50061635091029 730.57811160051529  1697.9201975738729 233.54488358433727 730.58790681073526  1697.907723164564 233.58935675654172 730.5973511373171  1697.8845342402178 233.67561642655133 730.6149073813998  1697.8737576821779 233.71737669555094 730.6230662714155  1697.8633868764084 233.75930054750424 730.63091796797107  1697.8534236597668 233.80138074424414 730.63846108038922  1697.8438697699578 233.84361001149378 730.64569429306061  1697.8347268455339 233.88598103886645 730.65261636544369  1697.825996425895 233.92848647986577 730.65922613206476  1697.8096714942244 234.01217244364889 730.67158567409308  1697.8020468860884 234.05334373778967 730.67735823514238  1697.7948074127319 234.09462624231244 730.68283921215425  1697.7879542729734 234.13601334321774 730.68802769750766  1697.7814885786042 234.1774984045019 730.69292284946926  1697.7754113543863 234.21907476815716 730.69752389219627  1697.7697235380522 234.26073575417161 730.70183011573477  1697.7607584402485 234.33137082709706 730.7086175562788  1697.7572779469274 234.36030434218398 730.71125262418218  1697.7539847824837 234.38927298278423 730.71374586612501  1697.7508792088317 234.41827452259034 730.71609708381095  1697.7479614676661 234.4473067319928 730.71830609425535  1697.7452317804577 234.47636737808003 730.72037272978287  1697.7426903484545 234.50545422463861 730.72229683802971  1697.7361542493309 234.58631757582938 730.72724529315622  1697.7325666967417 234.63814585891924 730.7299614151982  1697.7295757125073 234.69003728888825 730.73222587767179  1697.7271821107518 234.74197926029908 730.73403806421879  1697.7253865021291 234.79395915481103 730.73539751251815  1697.724189293823 234.84596434118041 730.73630391428583  1697.7235906895478 234.89798217526018 730.73675711527471  1697.7235906895478 234.95000000000002 730.73675711527471 
 0 9 0.016082629901568911 7 0.026637013882721959 7 0.040206935861768427 7 0.054782037088439067 7 0.069357138315113046 7 0.079408932604414215 7 0.08996331658564051 7 0.10252805926829509 7 0.11760575009699634 7 0.12966790311603052 7 0.1442430043428311 7 0.15580256768989936 7 0.32154855472004246 7 0.33461588705619333 7 0.34818580903508883 7 0.35622724451327714 7 0.36728421818064477 7 0.38185931940727724 7 0.39140852399939213 7 0.40548103560904891 7 0.41905095758812944 7 0.43161570027058865 7 0.44719598068390476 7 0.46126849229340017 7 0.47584359351979066 7 0.49041869474622141 7 0.50499379597262251 7 0.51605076963977026 7 0.53012328124917985 7 0.54017507553808908 7 0.55424758714744615 7 0.56882268837370742 7 0.57736671355962876 7 0.58892627690637356 7 0.60199360924261258 7 0.62159460549925294 7 0.63415934818175401 7 0.6572784688806057 7 0.67537169690270116 7 0.81353922041217563 7 0.82258583530271456 7 0.83967388435233514 7 0.85123344769873321 7 0.8617878316792863 7 0.87485516401482699 7 0.8894302652407946 7 0.90400536646662744 7 0.91455975044715632 7 0.92561672411387164 7 0.93365815959158982 7 0.94823326081728121 7 0.96180318279544552 7 0.97487051513082745 7 0.98391713002112702 7 1 9
1 4.1187500000000004 -1.01e-15 -5 0 0 1 
2 1703.811273175749 234.94999999999999 731.95411360697233 -0.60361468515888106 0 -0.79727618292568159 -0.79727618292568159 0 0.60361468515888106 0 1 0 4.1187500000000012
2 0 0 0 0 0 1 1 0 -0 -0 1 0 7.9375
2 0 0 -2.6330573749401385 -2.4e-16 -1 0 1 -2.4e-16 0 0 0 1 8.3628283128213656
Polygon3D 0
PolygonOnTriangulations 0
Surfaces 3
2 0 0 -5 0 0 1 1 0 -0 -0 1 0 4.1187500000000004
4 0 0 -2.6330573749401385 0 0 1 1 0 -0 -0 1 0 8.3628283128213656
1 -8.9375 -8.9375 0 0 0 1 1 0 -0 -0 1 0 
Triangulations 0

TShapes 18
Ve
1.22116820678546e-07
1697.72359068952 234.95 730.736757115234
0 0

0101101
*
Ed
 1.22065748574877e-07 1 1 0
1  1 0 0 1
2  1 1 3 0 1
2  2 2 6 0 1
0

0101100
+18 0 -18 0 *
Ve
1.00000227373675e-07
1700.52749189732 234.95 734.44025159147
0 0

0101101
*
Ed
 1e-07 1 1 0
1  2 0 19.1812500000001 23.826433884267
3  3 4CN 1 0 19.1812500000001 23.826433884267
0

0101000
+16 7 -18 7 *
Ed
 1e-07 1 1 0
1  3 0 0 6.28318530717959
2  5 1 3 0 6.28318530717959
2  6 3 6 0 6.28318530717959
0

0101100
+16 0 -16 0 *
Wi

0101100
-17 0 +15 3 +14 0 -15 3 *
Fa
0  1e-07 1 3

0101000
+13 0 *
Ve
1.00000003e-07
7.9375 -2e-15 14.18125
0 0

0101101
*
Ed
 1e-07 1 1 0
1  4 0 0 6.28318530717959
2  7 2 0 0 6.28318530717959
0

0101100
+11 9 -11 9 *
Ed
 1e-07 1 1 0
1  5 0 6.60348655015502 7.33901383718093
3  8 9CN 2 0 6.60348655015502 7.33901383718093
0

0101000
+11 9 -18 10 *
Wi

0101100
+10 6 -9 6 -17 0 +9 6 *
Fa
0  1e-07 2 6

0101000
+8 0 *
Wi

0101100
+10 6 *
Wi

0101100
-14 0 *
Fa
0  1e-07 3 6

0101000
+6 0 +5 0 *
Sh

0101100
-12 0 +7 0 -4 0 *
So

0100000
+3 0 *
Co

1100000
+2 0 *

+1 0 