
CASCADE Topology V1, (c) Matra-Datavision
Locations 3
1
1.000000000000000 0.000000000000000 0.000000000000000 0.000000000000000 
0.000000000000000 1.000000000000000 0.000000000000000 0.000000000000000 
0.000000000000000 0.000000000000000 1.000000000000000 0.000000000000000 
1
1.000000000000000 0.000000000000000 0.000000000000000 0.000000000000000 
0.000000000000000 1.000000000000000 0.000000000000000 0.000000000000000 
0.000000000000000 0.000000000000000 1.000000000000000 0.000000000000000 
2  2 -1 0
Curve2ds 10
1 6.28318530717958623 -0.00000000000000000 0.00000000000000000 1.00000000000000000 
1 0.00000000000000000 -0.00000000000000000 0.00000000000000000 1.00000000000000000 
1 0.00000000000000000 0.00000000000000000 1.00000000000000000 0.00000000000000000 
1 0.00000000000000000 42.86249999999999716 1.00000000000000000 0.00000000000000000 
7 0 0  7 44 8  1.37415752599918317 35.85000000000000142  1.37415752599918317 35.99962064561120911  1.37753785662700512 36.14926198321159490  1.38430061817292782 36.29665965086921631  1.39448611010849377 36.43937212437297291  1.40814062567632159 36.57449176956974668  1.42530011570289639 36.69835762127170398  1.46454960488375385 36.90293699944082562  1.48652402579018017 36.98946629116601059  1.51137215583120943 37.05646436243921471  1.53818687997519832 37.09786902402827025  1.56588067704427547 37.11051800208569773  1.59330598266762324 37.09414689383196162  1.64572628669401166 37.00878162050045717  1.66992630145875109 36.94059011944892745  1.69155740050351500 36.85203621109000238  1.71034715159425410 36.74753065762551785  1.72612266441923445 36.63118970997792445  1.73882373796677059 36.50688412063838229  1.75999151930370101 36.22573564863251505  1.76748085575817604 36.06389497789342613  1.77087554785478640 35.89664606020417637  1.77008298764491467 35.72773612065634552  1.76507558245071916 35.56113449190392828  1.75592823222587224 35.40113817397154605  1.73264907418182257 35.13621990705594555  1.71985559097757323 35.02465532333820875  1.70444278623220757 34.92073524583337729  1.68648350870555963 34.82769792845283519  1.66614099173844843 34.74890112427456046  1.64365836350679850 34.68785081360340428  1.59523839157021596 34.60899999013260953  1.56985499087065716 34.59191902032196708  1.54412660757912890 34.59975094499484527  1.51901119161934606 34.63258116825195998  1.49542430501088464 34.68812961584426091  1.47415830988528640 34.76173879465821415  1.43228601304059966 34.95364049126607142  1.41277514334558840 35.08147439896806929  1.39724837687839765 35.22326567339210612  1.38567278997467103 35.37436872377305974  1.37799402900979695 35.53114601628953295  1.37415752599918317 35.69060281039419635  1.37415752599918317 35.85000000000000142 
 0.00000000000000000 8 0.15074575563476789 6 0.28671780129202584 6 0.42386870221179052 6 0.58643999782795830 6 0.71327800691339671 6 0.83964149762471207 6 1.00000000000000000 8
7 0 0  7 44 8  0.00000000000000000 1.12237207201851241  0.12060102417024290 1.12237207201851241  0.24121831915287595 1.11817846737083482  0.36289440943809237 1.10978781294288642  0.48652219337213554 1.09760126206590414  0.61308770787602218 1.08245341427268826  0.74363202315300259 1.06575324010976535  1.00232993395588021 1.03471458167933927  1.13297576431213165 1.01988489223020884  1.26812417987191939 1.00698657953184534  1.40595918281633026 0.99848801541023435  1.54510477942861746 0.99602716508131095  1.68437931620549053 0.99944806977569156  1.96106238344003869 1.01562135289727773  2.09436954816799492 1.02821527577708438  2.22312855005525378 1.04364461839846978  2.34793888025993791 1.05998977916553216  2.46921795698191726 1.07556308252740562  2.58716314756113563 1.08913637512319439  2.83761809926155717 1.11289829054242251  2.97165933237176150 1.12226661380140080  3.10496324503762278 1.12679416725398962  3.23826767608188071 1.12575362347263375  3.37221517805283444 1.11916719431858880  3.50736538695498190 1.10797443895338610  3.75104278826253834 1.08266608384457474  3.86097704200143310 1.06951726623492682  3.97396011051139020 1.05497641655246199  4.09008838674464492 1.04010317577521794  4.20963703255580679 1.02627336326295460  4.33303776562897269 1.01498333471326174  4.58860641597637020 1.00004427761669512  4.71788543301996377 0.99653419284859190  4.84735207951128366 0.99802595852731713  4.97586250283680442 1.00474373957293395  5.10218692162632337 1.01555231895022202  5.22472828453558513 1.02855314786154062  5.48788811662602871 1.05908730933114414  5.62840735822877392 1.07735136532690978  5.76414445647313478 1.09430446643933843  5.89633827641870489 1.10808500011379008  6.02617524569061214 1.11761264115717673  6.15470394528070042 1.12237207201851241  6.28318530717958623 1.12237207201851241 
 0.00000000000000000 8 0.15074575563476789 6 0.28671780129202584 6 0.42386870221179052 6 0.58643999782795830 6 0.71327800691339671 6 0.83964149762471207 6 1.00000000000000000 8
7 0 0  7 44 8  4.90902778118040306 35.85000000000000142  4.90902778118040306 35.99962064561132991  4.90564745055258555 36.14926198321131778  4.89888468900664531 36.29665965086952184  4.88869919707111755 36.43937212437270290  4.87504468150323333 36.57449176956996695  4.85788519147670694 36.69835762127161871  4.81863570229583082 36.90293699944083272  4.79666128138940895 36.98946629116591112  4.77181315134837902 37.05646436243943498  4.74499842720437748 37.09786902402807129  4.71730463013531853 37.11051800208578300  4.68987932451196166 37.09414689383195451  4.63745902048555436 37.00878162050042164  4.61325900572089154 36.94059011944906956  4.59162790667599197 36.85203621108968264  4.57283815558540141 36.74753065762593707  4.55706264276031625 36.63118970997760471  4.54436156921282475 36.50688412063849597  4.52319378787594850 36.22573564863336060  4.51570445142142152 36.06389497789441378  4.51230975932477651 35.89664606020402005  4.51310231953463958 35.72773612065635263  4.51810972472891237 35.56113449190291220  4.52725707495375396 35.40113817397109841  4.55053623323707424 35.13621990433257736  4.56332971573207402 35.02465533052196633  4.57874252081996769 34.92073523862567441  4.59670179974028326 34.82769793039534534  4.61704431400451387 34.74890112579931412  4.63952694425891821 34.68785081264890380  4.68794691560939381 34.60899999013256689  4.71333031630883781 34.59191902032199550  4.73905869960062898 34.59975094499497317  4.76417411556006787 34.63258116825169708  4.78776100216877865 34.68812961584443855  4.80902699729429628 34.76173879465819283  4.85089929413898169 34.95364049126605011  4.87041016383403313 35.08147439896827535  4.88593693030112863 35.22326567339178638  4.89751251720495961 35.37436872377323738  4.90519127816977729 35.53114601628954716  4.90902778118040306 35.69060281039416793  4.90902778118040306 35.85000000000000142 
 0.00000000000000000 8 0.15074575312834140 6 0.28671779652471080 6 0.42386869516409431 6 0.58643998807617592 6 0.71327799802740710 6 0.83964149265496923 6 1.00000000000000000 8
7 0 0  7 44 8  0.00000000000000000 13.57762792798148865  0.12060102417034055 13.57762792798148865  0.24121831915271680 13.58182153262916181  0.36289440943818585 13.59021218705710865  0.48652219337203872 13.60239873793409693  0.61308770787619782 13.61754658572733057  0.74363202315289079 13.63424675989021928  1.00232993395588910 13.66528541832066068  1.13297576431207081 13.68011510776979200  1.26812417987199133 13.69301342046815506  1.40595918281631915 13.70151198458975905  1.54510477942860036 13.70397283491869089  1.68437931620549475 13.70055193022430728  1.96106238344014483 13.68437864710271512  2.09436954816760057 13.67178472422294178  2.22312855005592658 13.65635538160148776  2.34793888025925757 13.64001022083450998  2.46921795698230762 13.62443691747256302  2.58716314756103261 13.61086362487681534  2.83761809926080666 13.58710170945764872  2.97165933237089597 13.57773338619861825  3.10496324503803578 13.57320583274597681  3.23826767608155475 13.57424637652732891  3.37221517805377280 13.58083280568146556  3.50736538695539268 13.59202556104665760  3.75104279076755054 13.61733391641559621  3.86097703621217825 13.63048273307301628  3.97396011363976687 13.64502358404607207  4.09008839129684887 13.65989682429777119  4.20963702546652740 13.67372663633877572  4.33303776872266599 13.68501666546757534  4.58860641597649277 13.69995572238330972  4.71788543301934027 13.70346580715139773  4.84735207951255198 13.70197404147267406  4.97586250283552189 13.69525626042709021  5.10218692162688825 13.68444768104975928  5.22472828453555760 13.67144685213846067  5.48788811662599763 13.64091269066885737  5.62840735822900928 13.62264863467306064  5.76414445647276530 13.60569553356071815  5.89633827641892516 13.59191499988616592  6.02617524569060414 13.58238735884283344  6.15470394528067821 13.57762792798148865  6.28318530717958623 13.57762792798148865 
 0.00000000000000000 8 0.15074575312834140 6 0.28671779652471080 6 0.42386869516409431 6 0.58643998807617592 6 0.71327799802740710 6 0.83964149265496923 6 1.00000000000000000 8
1 6.28318530717958623 -0.00000000000000000 0.00000000000000000 1.00000000000000000 
1 0.00000000000000000 -0.00000000000000000 0.00000000000000000 1.00000000000000000 
Curves 6
1 -12.84999999999999964 0.00000000000000156 6.34999999999999964 1.00000000000000000 0.00000000000000000 0.00000000000000000 
2 -12.84999999999999964 0.00000000000000000 0.00000000000000000 1.00000000000000000 0.00000000000000000 -0.00000000000000000 0.00000000000000000 0.00000000000000000 1.00000000000000000 0.00000000000000000 -1.00000000000000000 0.00000000000000000 6.34999999999999964
2 30.01249999999999574 0.00000000000000000 0.00000000000000000 1.00000000000000000 0.00000000000000000 -0.00000000000000000 0.00000000000000000 0.00000000000000000 1.00000000000000000 0.00000000000000000 -1.00000000000000000 0.00000000000000000 6.34999999999999964
7 0 0  7 44 8  23.00000000000000000 -6.22762792798148723 1.24062500000000075  23.14962064561120769 -6.22762792798148723 1.24062500000000075  23.29926198321159703 -6.23182153262916483 1.21957357955835888  23.44665965086921489 -6.24021218705711345 1.17745751686766620  23.58937212437297148 -6.25239873793409551 1.11393697116045787  23.72449176956974881 -6.26754658572731138 1.02854393606411842  23.84835762127170611 -6.28424675989023385 0.92082229040641761  24.05293699944082064 -6.31528541832066015 0.67352830302403399  24.13946629116600917 -6.33011510776979058 0.53475660460898289  24.20646436243921684 -6.34301342046815453 0.37742288562247173  24.24786902402826883 -6.35151198458976562 0.20718103627655116  24.26051800208569986 -6.35397283491868858 0.03117905301043544  24.24414689383195665 -6.35055193022430853 -0.14301051429688072  24.15878162050045219 -6.33437864710272169 -0.47548630266389103  24.09059011944892603 -6.32178472422291549 -0.62872554843284056  24.00203621109000096 -6.30635538160152986 -0.76530508061097113  23.89753065762551643 -6.29001022083446770 -0.88353647068315033  23.78118970997792658 -6.27443691747259358 -0.98250777589458282  23.65688412063838086 -6.26086362487680503 -1.06201217332671671  23.37573564863251363 -6.23710170945757714 -1.19431060197008021  23.21389497789342471 -6.22773338619859906 -1.24094636423567883  23.04664606020417139 -6.22320583274601002 -1.26201786972183427  22.87773612065634055 -6.22424637652736568 -1.25709502237686266  22.71113449190392330 -6.23083280568141085 -1.22599037158623636  22.55113817397154463 -6.24202556104661355 -1.16897906803073903  22.28621990705594769 -6.26733391615542512 -1.02333901834304219  22.17465532333821088 -6.28048273376507282 -0.94316789107216781  22.07073524583337942 -6.29502358344753787 -0.84636761267528249  21.97769792845283376 -6.30989682422478193 -0.73326147037333422  21.89890112427456259 -6.32372663673704505 -0.60475482865953412  21.83785081360339930 -6.33501666528673812 -0.46237049945136033  21.75899999013260455 -6.34995572238330475 -0.15526681813314958  21.74191902032196921 -6.35346580715140785 0.00593727586766013  21.74975094499484740 -6.35197404147268241 0.16943350564301052  21.78258116825195501 -6.34525626042706570 0.32892137087497431  21.83812961584425949 -6.33444768104977740 0.47837843850517747  21.91173879465820917 -6.32144685213845925 0.61281427044089742  22.10364049126607000 -6.29091269066885594 0.87694429615969782  22.23147439896807143 -6.27264863467308942 0.99955217389042184  22.37326567339210470 -6.25569553356066077 1.09670914746105086  22.52436872377305832 -6.24191499988620979 1.16891200596857758  22.68114601628952798 -6.23238735884282313 1.21673274163425060  22.84060281039419493 -6.22762792798148723 1.24062500000000075  23.00000000000000000 -6.22762792798148723 1.24062500000000075 
 0.00000000000000000 8 0.15074575563476789 6 0.28671780129202584 6 0.42386870221179052 6 0.58643999782795830 6 0.71327800691339671 6 0.83964149762471207 6 1.00000000000000000 8
7 0 0  7 44 8  23.00000000000000000 6.22762792798148901 1.24062499999999964  23.14962064561132848 6.22762792798148901 1.24062499999999964  23.29926198321131636 6.23182153262916216 1.21957357955833068  23.44665965086952397 6.24021218705710901 1.17745751686771261  23.58937212437270148 6.25239873793409640 1.11393697116050516  23.72449176956996197 6.26754658572733092 1.02854393606395478  23.84835762127161729 6.28424675989021964 0.92082229040652441  24.05293699944082775 6.31528541832066015 0.67352830302402533  24.13946629116590969 6.33011510776979236 0.53475660460893026  24.20646436243943000 6.34301342046815542 0.37742288562267357  24.24786902402806987 6.35151198458975941 0.20718103627629247  24.26051800208577802 6.35397283491869214 0.03117905301055690  24.24414689383195665 6.35055193022430675 -0.14301051429688760  24.15878162050042022 6.33437864710271459 -0.47548630266402003  24.09059011944906814 6.32178472422294213 -0.62872554843249495  24.00203621108968477 6.30635538160148812 -0.76530508061143743  23.89753065762593565 6.29001022083451122 -0.88353647068275498  23.78118970997760329 6.27443691747256249 -0.98250777589479243  23.65688412063849455 6.26086362487681569 -1.06201217332666276  23.37573564863335918 6.23710170945764908 -1.19431060196968453  23.21389497789441592 6.22773338619861772 -1.24094636423561289  23.04664606020401507 6.22320583274597716 -1.26201786972197239  22.87773612065634765 6.22424637652733015 -1.25709502237707249  22.71113449190291433 6.23083280568146591 -1.22599037158595059  22.55113817397110054 6.24202556104665707 -1.16897906803049323  22.28621990433257594 6.26733391641559656 -1.02333901684585693  22.17465533052196491 6.28048273307301752 -0.94316789399436296  22.07073523862567654 6.29502358404607154 -0.84636761355046497  21.97769793039534392 6.30989682429777154 -0.73326146230763634  21.89890112579931269 6.32372663633877607 -0.60475483777740535  21.83785081264889882 6.33501666546757658 -0.46237049573382927  21.75899999013256902 6.34995572238331096 -0.15526681813300303  21.74191902032199408 6.35346580715139897 0.00593727586705417  21.74975094499497175 6.35197404147267441 0.16943350564416937  21.78258116825169566 6.34525626042709057 0.32892137087380346  21.83812961584443357 6.33444768104975964 0.47837843850570039  21.91173879465818786 6.32144685213846103 0.61281427044087011  22.10364049126604513 6.29091269066885861 0.87694429615966696  22.23147439896827038 6.27264863467306188 0.99955217389068940  22.37326567339178496 6.25569553356071850 1.09670914746056525  22.52436872377323596 6.24191499988616538 1.16891200596895439  22.68114601628954574 6.23238735884283290 1.21673274163413758  22.84060281039416651 6.22762792798148901 1.24062499999999964  23.00000000000000000 6.22762792798148901 1.24062499999999964 
 0.00000000000000000 8 0.15074575312834140 6 0.28671779652471080 6 0.42386869516409431 6 0.58643998807617592 6 0.71327799802740710 6 0.83964149265496923 6 1.00000000000000000 8
1 23.00000000000000000 -7.34999999999999964 1.24062500000000009 0.00000000000000000 1.00000000000000000 0.00000000000000000 
Polygon3D 0
PolygonOnTriangulations 0
Surfaces 4
2 -12.84999999999999964 0.00000000000000000 0.00000000000000000 1.00000000000000000 0.00000000000000000 0.00000000000000000 0.00000000000000000 0.00000000000000000 1.00000000000000000 0.00000000000000000 -1.00000000000000000 0.00000000000000000 6.34999999999999964
2 23.00000000000000000 -7.34999999999999964 0.00000000000000000 0.00000000000000000 1.00000000000000000 0.00000000000000000 0.00000000000000000 -0.00000000000000000 1.00000000000000000 1.00000000000000000 0.00000000000000000 -0.00000000000000000 1.24062500000000009
1 -12.84999999999999964 0.00000000000000000 0.00000000000000000 1.00000000000000000 0.00000000000000000 0.00000000000000000 0.00000000000000000 0.00000000000000000 1.00000000000000000 0.00000000000000000 -1.00000000000000000 0.00000000000000000 
1 30.01249999999999574 0.00000000000000000 0.00000000000000000 1.00000000000000000 0.00000000000000000 0.00000000000000000 0.00000000000000000 0.00000000000000000 1.00000000000000000 0.00000000000000000 -1.00000000000000000 0.00000000000000000 
Triangulations 0

TShapes 23
Ve
0.000000100000000
30.012499999999996 0.000000000000002 6.350000000000000
0 0

0101101
*
Ve
0.000000100000000
-12.850000000000000 0.000000000000002 6.350000000000000
0 0

0101101
*
Ed
 0.000000100000000 1 1 0
1  1 0 0.000000000000000 42.862499999999997
3  1 2CN 1 0 0.000000000000000 42.862499999999997
0

0101000
-23 3 +22 3 *
Ed
 0.000000100000000 1 1 0
1  2 0 0.000000000000000 6.283185307179586
2  3 1 0 0.000000000000000 6.283185307179586
0

0101000
+22 3 -22 3 *
Ed
 0.000000100000000 1 1 0
1  3 0 0.000000000000000 6.283185307179586
2  4 1 0 0.000000000000000 6.283185307179586
0

0101000
+23 3 -23 3 *
Wi

0101100
+21 0 +20 0 -21 0 -19 0 *
Ve
0.000000100000001
23.000000000000000 -6.227627927981487 1.240625000000000
0 0

0101101
*
Ed
 0.000000100000000 1 1 0
1  4 0 0.000000000000000 1.000000000000000
2  5 1 0 0.000000000000000 1.000000000000000
2  6 2 0 0.000000000000000 1.000000000000000
0

0101100
+17 3 -17 3 *
Wi

0101100
+16 0 *
Ve
0.000000100000002
23.000000000000000 6.227627927981487 1.240625000000000
0 0

0101101
*
Ed
 0.000000100000000 1 1 0
1  5 0 0.000000000000000 1.000000000000000
2  7 1 0 0.000000000000000 1.000000000000000
2  8 2 0 0.000000000000000 1.000000000000000
0

0101100
+14 3 -14 3 *
Wi

0101100
-13 0 *
Fa
0  0.000000100000000 1 0

0111000
+18 0 +15 0 +12 0 *
Wi

0101100
-20 0 *
Fa
0  0.000000100000000 3 0

0111000
-10 0 *
Wi

0101100
+19 0 *
Fa
0  0.000000100000000 4 0

0111000
+8 0 *
Ed
 0.000000100000000 1 1 0
1  6 0 1.122372072018512 13.577627927981487
3  9 10CN 2 0 1.122372072018512 13.577627927981487
0

0101000
+17 3 -14 3 *
Wi

0101100
-13 0 +6 0 +16 0 -6 0 *
Fa
0  0.000000100000000 2 0

0111000
+5 0 *
Sh

0101100
+11 0 -9 0 +7 0 -4 0 *
So

0100000
+3 0 *
Co

1100000
+2 0 *

+1 1 