
CASCADE Topology V1, (c) Matra-Datavision
Locations 5
1
1.000000000000000 0.000000000000000 0.000000000000000 0.000000000000000 
0.000000000000000 1.000000000000000 0.000000000000000 0.000000000000000 
0.000000000000000 0.000000000000000 1.000000000000000 0.000000000000000 
1
1.000000000000000 0.000000000000000 0.000000000000000 0.000000000000000 
0.000000000000000 1.000000000000000 0.000000000000000 0.000000000000000 
0.000000000000000 0.000000000000000 1.000000000000000 0.000000000000000 
2  2 -1 0
1
1.000000000000000 0.000000000000000 0.000000000000000 3.968750000000000 
0.000000000000000 1.000000000000000 0.000000000000000 0.000000000000000 
0.000000000000000 0.000000000000000 1.000000000000000 0.000000000000000 
2  2 -1 4 -1 0
Curve2ds 10
1 0.00000000000000000 0.00000000000000000 1.00000000000000000 0.00000000000000000 
1 6.28318530717958623 -0.00000000000000000 0.00000000000000000 1.00000000000000000 
1 0.00000000000000000 -0.00000000000000000 0.00000000000000000 1.00000000000000000 
1 0.00000000000000000 33.33749999999999858 1.00000000000000000 0.00000000000000000 
7 0 0  7 50 9  1.29200187393088295 27.57499999999999574  1.29200187393088295 27.66915126156508364  1.29587944501300778 27.76324463886823679  1.30362640438007937 27.85553020666201363  1.31510507903145113 27.94428277248727710  1.33005608534463016 28.02781477188177206  1.34811185684244861 28.10454497916585481  1.38981840551065106 28.24268955163367778  1.41426240493020772 28.30624085050654060  1.44182938531643368 28.36075247748696881  1.47195744676149931 28.40379712649264121  1.50398338538252530 28.43354655258505659  1.53718787877363372 28.44875000000000398  1.60044515971295298 28.44875000000001108  1.63008408027608653 28.43691777142842625  1.65919795445286167 28.41326852827029370  1.68728046544060839 28.37813824555133024  1.71382124931510149 28.33217529645268229  1.73831806250449383 28.27634346555462486  1.78530857961938749 28.13874865638973688  1.80648817731821021 28.05620363430319486  1.82363450467430366 27.96661280024159524  1.83659020413053509 27.87197167865975445  1.84525713363598842 27.77406113420066092  1.84959077965891039 27.67453585853286313  1.84959077965891039 27.48084873843485454  1.84571320857677934 27.38675536113180797  1.83796624920973017 27.29446979333807377  1.82648757455834199 27.20571722751270727  1.81153656824513587 27.12218522811813770  1.79348079674736205 27.04545502083421837  1.75177424807912385 26.90731044836626751  1.72733024865965468 26.84375914949357522  1.69976326827322399 26.78924752251295516  1.66963520682846100 26.74620287350740711  1.63760926820715658 26.71645344741493489  1.60440477481618959 26.70125000000000171  1.54114749387683148 26.70125000000000881  1.51150857331372146 26.71308222857157944  1.48239469913692434 26.73673147172972264  1.45431218814917318 26.77186175444867544  1.42777140427470184 26.81782470354731274  1.40327459108529973 26.87365653444538083  1.35628407397041628 27.01125134361023328  1.33510447627155893 27.09379636569689964  1.31795814891549767 27.18338719975835360  1.30500244945927535 27.27802832134019084  1.29633551995379226 27.37593886579942293  1.29200187393088295 27.47546414146713190  1.29200187393088295 27.57499999999999574 
 0.00000000000000000 8 0.12982302120778191 6 0.26151727189622387 6 0.37769582415962610 6 0.50971287363556994 6 0.63458818932055439 6 0.76126341976596668 6 0.87301427300244538 6 1.00000000000000000 8
7 0 0  7 50 9  0.00000000000000000 6.94759341871041070  0.10775537804301216 6.94759341871041070  0.21544391947910868 6.94420597429999642  0.32310974694880479 6.93743510035237598  0.43080234807170187 6.92769721351392143  0.53854708592241163 6.91578631179891357  0.64631361988151448 6.90273107813653297  0.86320275648844147 6.87616666174845381  0.97604838390294424 6.86219827200481092  1.09146130312569700 6.84879421393614063  1.20888884678483333 6.83737017381022483  1.32801414961659114 6.82918411611792564  1.44867120809102312 6.82500000000000018  1.67853314455149705 6.82500000000000107  1.78623290288161529 6.82825636018413906  1.89391731753358772 6.83476398024811260  2.00161488035873214 6.84417569288040450  2.10934604072118992 6.85579932282620774  2.21709649206757797 6.86869142315123415  2.44714081637577729 6.89679753380806915  2.56654755720038397 6.91173842254522874  2.68373603672009020 6.92527460785528071  2.79929889053603587 6.93623481098901795  2.91376768128566743 6.94380664035438233  3.02767464668523312 6.94759341871041070  3.24934803163287578 6.94759341871041070  3.35703657306885983 6.94420597429999198  3.46470240053849343 6.93743510035238664  3.57239500166153112 6.92769721351391787  3.68013973951234075 6.91578631179889669  3.78790627347121100 6.90273107813654541  4.00479541007832829 6.87616666174844315  4.11764103749248633 6.86219827200483490  4.23305395671588602 6.84879421393611132  4.35048150037413350 6.83737017381025058  4.46960680320674264 6.82918411611791498  4.59026386168070655 6.82500000000000018  4.82012579814132103 6.82500000000000107  4.92782555647136178 6.82825636018413729  5.03550997112339527 6.83476398024811527  5.14320753394855945 6.84417569288040539  5.25093869431095861 6.85579932282620330  5.35868914565736709 6.86869142315123415  5.58873346996551579 6.89679753380806471  5.70814021079028322 6.91173842254524118  5.82532869030984113 6.92527460785527982  5.94089154412575571 6.93623481098900818  6.05536033487552938 6.94380664035438588  6.16926730027500891 6.94759341871041070  6.28318530717958623 6.94759341871041070 
 0.00000000000000000 8 0.12982302120778191 6 0.26151727189622387 6 0.37769582415962610 6 0.50971287363556994 6 0.63458818932055439 6 0.76126341976596668 6 0.87301427300244538 6 1.00000000000000000 8
7 0 0  7 50 9  4.99118343324870306 27.57499999999999574  4.99118343324870306 27.66915126156505522  4.98730586216657734 27.76324463886826877  4.97955890279951063 27.85553020666200297  4.96808022814813643 27.94428277248725934  4.95312922183495186 28.02781477188178982  4.93507345033714184 28.10454497916583705  4.89336690166894517 28.24268955163364581  4.86892290224939117 28.30624085050654770  4.84135592186309172 28.36075247748704697  4.81122786041815864 28.40379712649253818  4.77920192179702585 28.43354655258510277  4.74599742840595695 28.44875000000000398  4.68274014746663170 28.44875000000001108  4.65310122690350259 28.43691777142840493  4.62398735272672390 28.41326852827030436  4.59590484173897629 28.37813824555134445  4.56936405786448496 28.33217529645266453  4.54486724467509440 28.27634346555462486  4.49787672756019585 28.13874865638973333  4.47669712986137558 28.05620363430320907  4.45955080250528546 27.96661280024160234  4.44659510304905314 27.87197167865975089  4.43792817354359581 27.77406113420067157  4.43359452752067629 27.67453585853285603  4.43359452752067629 27.48084873843499309  4.43747209860280289 27.38675536113171205  4.44521905796986871 27.29446979333798851  4.45669773262124647 27.20571722751276056  4.47164873893443016 27.12218522811820520  4.48970451043223306 27.04545502083418995  4.53141105904606700 26.90731044854643983  4.55585505862786722 26.84375914904572014  4.58342203889013255 26.78924752296896372  4.61355010020663325 26.74620287329809898  4.64557603912621975 26.71645344744884909  4.67878053231072144 26.70125000000000171  4.74203781330274943 26.70125000000000881  4.77167673386588120 26.71308222857159720  4.80079060804265456 26.73673147172972264  4.82887311903039862 26.77186175444866123  4.85541390290489261 26.81782470354732340  4.87991071609429117 26.87365653444539504  4.92690123320918083 27.01125134361027236  4.94808083090799666 27.09379636569677174  4.96522715826409655 27.18338719975841400  4.97818285772033153 27.27802832134027611  4.98684978722577998 27.37593886579933056  4.99118343324870306 27.47546414146713900  4.99118343324870306 27.57499999999999574 
 0.00000000000000000 8 0.12982302137937371 6 0.26151727224178883 6 0.37769582465865364 6 0.50971287430898371 6 0.63458819015874579 6 0.76126342044328377 6 0.87301427336267423 6 1.00000000000000000 8
7 0 0  7 50 9  0.00000000000000000 13.05240658128959019  0.10775537804298120 13.05240658128959019  0.21544391947914271 13.05579402570000624  0.32310974694879585 13.06256489964762402  0.43080234807168261 13.07230278648608035  0.53854708592243217 13.08421368820108732  0.64631361988149449 13.09726892186346348  0.86320275648838796 13.12383333825153997  0.97604838390290072 13.13780172799518731  1.09146130312595013 13.15120578606387802  1.20888884678452913 13.16262982618975563  1.32801414961673880 13.17081588388208147  1.44867120809100425 13.17500000000000071  1.67853314455150127 13.17499999999999893  1.78623290288161862 13.17174363981585650  1.89391731753358328 13.16523601975189095  2.00161488035873392 13.15582430711959994  2.10934604072120013 13.14420067717378870  2.21709649206756998 13.13130857684876673  2.44714081637578573 13.10320246619193085  2.56654755720039462 13.08826157745477303  2.68373603672006400 13.07472539214471574  2.79929889053600878 13.06376518901097938  2.91376768128567765 13.05619335964562389  3.02767464668524511 13.05240658128958842  3.24934803163272035 13.05240658128958842  3.35703657306896019 13.05579402570000802  3.46470240053860179 13.06256489964762224  3.57239500166147605 13.07230278648607857  3.68013973951223905 13.08421368820108910  3.78790627347125852 13.09726892186345992  4.00479540979545323 13.12383333821691167  4.11764103809378490 13.13780172808191615  4.23305395643245586 13.15120578597859158  4.35048149997126288 13.16262982622415478  4.46960680373605523 13.17081588387882540  4.59026386148929788 13.17500000000000071  4.82012579814130326 13.17499999999999893  4.92782555647141152 13.17174363981585827  5.03550997112338017 13.16523601975188562  5.14320753394851948 13.15582430711959816  5.25093869431097726 13.14420067717379581  5.35868914565738752 13.13130857684876318  5.58873346996557085 13.10320246619193085  5.70814021079011891 13.08826157745478191  5.82532869030989620 13.07472539214471219  5.94089154412586140 13.06376518901097761  6.05536033487543079 13.05619335964562211  6.16926730027502401 13.05240658128959019  6.28318530717958623 13.05240658128959019 
 0.00000000000000000 8 0.12982302137937371 6 0.26151727224178883 6 0.37769582465865364 6 0.50971287430898371 6 0.63458819015874579 6 0.76126342044328377 6 0.87301427336267423 6 1.00000000000000000 8
1 6.28318530717958623 -0.00000000000000000 0.00000000000000000 1.00000000000000000 
1 0.00000000000000000 -0.00000000000000000 0.00000000000000000 1.00000000000000000 
Curves 24
1 -3.96875000000000000 6.41580486636971692 0.00000000000000000 1.00000000000000000 0.00000000000000000 0.00000000000000000 
1 -3.96875000000000000 3.20790243318485935 5.55625000000000036 1.00000000000000000 0.00000000000000000 0.00000000000000000 
1 -3.96875000000000000 6.41580486636971692 0.00000000000000000 0.00000000000000000 -0.49999999999999994 0.86602540378443871 
1 -3.96875000000000000 6.41580486636971692 0.00000000000000000 0.00000000000000000 -0.49999999999999994 0.86602540378443871 
1 -3.96875000000000000 3.20790243318485935 -5.55625000000000036 1.00000000000000000 0.00000000000000000 0.00000000000000000 
1 -3.96875000000000000 3.20790243318485935 -5.55625000000000036 0.00000000000000000 0.49999999999999994 0.86602540378443871 
1 -3.96875000000000000 3.20790243318485935 -5.55625000000000036 0.00000000000000000 0.49999999999999994 0.86602540378443871 
1 -3.96875000000000000 -3.20790243318485713 5.55625000000000124 1.00000000000000000 0.00000000000000000 0.00000000000000000 
1 -3.96875000000000000 3.20790243318485935 5.55625000000000036 0.00000000000000000 -1.00000000000000000 0.00000000000000014 
1 -3.96875000000000000 3.20790243318485935 5.55625000000000036 0.00000000000000000 -1.00000000000000000 0.00000000000000014 
1 -3.96875000000000000 -3.20790243318485713 5.55625000000000124 0.00000000000000000 -0.50000000000000022 -0.86602540378443860 
1 -3.96875000000000000 -6.41580486636971692 0.00000000000000079 0.00000000000000000 0.49999999999999978 -0.86602540378443882 
1 -3.96875000000000000 -3.20790243318486112 -5.55624999999999858 0.00000000000000000 1.00000000000000000 -0.00000000000000028 
1 -3.96875000000000000 -3.20790243318486112 -5.55624999999999858 0.00000000000000000 1.00000000000000000 -0.00000000000000028 
1 -3.96875000000000000 -3.20790243318485713 5.55625000000000124 0.00000000000000000 -0.50000000000000022 -0.86602540378443860 
1 -3.96875000000000000 -6.41580486636971692 0.00000000000000079 0.00000000000000000 0.49999999999999978 -0.86602540378443882 
2 0.00000000000000000 0.00000000000000000 0.00000000000000000 1.00000000000000000 0.00000000000000000 -0.00000000000000000 0.00000000000000000 0.00000000000000000 1.00000000000000000 0.00000000000000000 -1.00000000000000000 0.00000000000000000 3.17499999999999982
1 -3.96875000000000000 -3.20790243318486112 -5.55624999999999858 1.00000000000000000 0.00000000000000000 0.00000000000000000 
1 -3.96875000000000000 -6.41580486636971692 0.00000000000000079 1.00000000000000000 0.00000000000000000 0.00000000000000000 
1 0.00000000000000000 0.00000000000000078 3.17499999999999982 1.00000000000000000 0.00000000000000000 0.00000000000000000 
2 33.33749999999999858 0.00000000000000000 0.00000000000000000 1.00000000000000000 0.00000000000000000 -0.00000000000000000 0.00000000000000000 0.00000000000000000 1.00000000000000000 0.00000000000000000 -1.00000000000000000 0.00000000000000000 3.17499999999999982
7 0 0  7 50 9  27.57499999999999574 -3.05240658128958886 0.87375000000000014  27.66915126156508364 -3.05240658128958886 0.87375000000000014  27.76324463886823679 -3.05579402570000536 0.86191332609183158  27.85553020666201363 -3.06256489964762491 0.83826900148545713  27.94428277248727710 -3.07230278648607991 0.80314545089120093  28.02781477188177206 -3.08421368820108599 0.75717938882010505  28.10454497916585481 -3.09726892186346658 0.70133541804316690  28.24268955163367778 -3.12383333825154574 0.57160902965644289  28.30624085050654060 -3.13780172799518953 0.49524908255720757  28.36075247748696881 -3.15120578606385893 0.40870233419048163  28.40379712649264121 -3.16262982618977473 0.31361724473586583  28.43354655258505659 -3.17081588388207480 0.21213093442027486  28.44875000000000398 -3.17499999999999982 0.10670682246750951  28.44875000000001108 -3.17500000000000027 -0.09413504451482957  28.43691777142842625 -3.17174363981586094 -0.18823819889013602  28.41326852827029370 -3.16523601975188740 -0.28054109557541873  28.37813824555133024 -3.15582430711959550 -0.36929574776588270  28.33217529645268229 -3.14420067717379270 -0.45281435828600369  28.27634346555462486 -3.13130857684876585 -0.52953640943656854  28.13874865638973688 -3.10320246619193041 -0.67605999898730218  28.05620363430319486 -3.08826157745476948 -0.74166569351527856  27.96661280024159524 -3.07472539214471885 -0.79441709187837983  27.87197167865975445 -3.06376518901098205 -0.83406770243677975  27.77406113420066092 -3.05619335964561767 -0.86052161782185321  27.67453585853286313 -3.05240658128959064 -0.87374999999999947  27.48084873843485454 -3.05240658128959064 -0.87374999999999947  27.38675536113180797 -3.05579402570000846 -0.86191332609180071  27.29446979333807377 -3.06256489964761514 -0.83826900148551664  27.20571722751270727 -3.07230278648608079 -0.80314545089121103  27.12218522811813770 -3.08421368820110331 -0.75717938882001123  27.04545502083421837 -3.09726892186345504 -0.70133541804322375  26.90731044836626751 -3.12383333825155729 -0.57160902965638660  26.84375914949357522 -3.13780172799516510 -0.49524908255743844  26.78924752251295516 -3.15120578606388868 -0.40870233419001578  26.74620287350740711 -3.16262982618974986 -0.31361724473643604  26.71645344741493489 -3.17081588388208546 -0.21213093441990583  26.70125000000000171 -3.17499999999999982 -0.10670682246760543  26.70125000000000881 -3.17500000000000027 0.09413504451485748  26.71308222857157944 -3.17174363981586271 0.18823819889009299  26.73673147172972264 -3.16523601975188429 0.28054109557543611  26.77186175444867544 -3.15582430711959327 0.36929574776591523  26.81782470354731274 -3.14420067717379625 0.45281435828597594  26.87365653444538083 -3.13130857684876585 0.52953640943656688  27.01125134361023328 -3.10320246619193663 0.67605999898726721  27.09379636569689964 -3.08826157745475793 0.74166569351534406  27.18338719975835360 -3.07472539214472063 0.79441709187836218  27.27802832134019084 -3.06376518901099004 0.83406770243673412  27.37593886579942293 -3.05619335964561412 0.86052161782188452  27.47546414146713190 -3.05240658128958886 0.87375000000000014  27.57499999999999574 -3.05240658128958886 0.87375000000000014 
 0.00000000000000000 8 0.12982302120778191 6 0.26151727189622387 6 0.37769582415962610 6 0.50971287363556994 6 0.63458818932055439 6 0.76126341976596668 6 0.87301427300244538 6 1.00000000000000000 8
7 0 0  7 50 9  27.57499999999999574 3.05240658128959064 0.87374999999999925  27.66915126156505522 3.05240658128959064 0.87374999999999925  27.76324463886826877 3.05579402570000491 0.86191332609182136  27.85553020666200297 3.06256489964762357 0.83826900148546835  27.94428277248725934 3.07230278648608079 0.80314545089120715  28.02781477188178982 3.08421368820108777 0.75717938882009039  28.10454497916583705 3.09726892186346392 0.70133541804317845  28.24268955163364581 3.12383333825153908 0.57160902965647453  28.30624085050654770 3.13780172799518686 0.49524908255725808  28.36075247748704697 3.15120578606388246 0.40870233419026281  28.40379712649253818 3.16262982618974986 0.31361724473611952  28.43354655258510277 3.17081588388208457 0.21213093442015263  28.44875000000000398 3.17500000000000027 0.10670682246752528  28.44875000000001108 3.17500000000000027 -0.09413504451483377  28.43691777142840493 3.17174363981585827 -0.18823819889014062  28.41326852827030436 3.16523601975188962 -0.28054109557541246  28.37813824555134445 3.15582430711959683 -0.36929574776588175  28.33217529645266453 3.14420067717378915 -0.45281435828601424  28.27634346555462486 3.13130857684876673 -0.52953640943656410  28.13874865638973333 3.10320246619192952 -0.67605999898730817  28.05620363430320907 3.08826157745477348 -0.74166569351527312  27.96661280024160234 3.07472539214471707 -0.79441709187837473  27.87197167865975089 3.06376518901098027 -0.83406770243677930  27.77406113420067157 3.05619335964562255 -0.86052161782185388  27.67453585853285603 3.05240658128958886 -0.87375000000000003  27.48084873843499309 3.05240658128958886 -0.87375000000000003  27.38675536113171205 3.05579402570000624 -0.86191332609182691  27.29446979333798851 3.06256489964762313 -0.83826900148547001  27.20571722751276056 3.07230278648608079 -0.80314545089119771  27.12218522811820520 3.08421368820108910 -0.75717938882008318  27.04545502083418995 3.09726892186346037 -0.70133541804319621  26.90731044854643983 3.12383333821691078 -0.57160902982558137  26.84375914904572014 3.13780172808191438 -0.49524908222338321  26.78924752296896372 3.15120578597859913 -0.40870233423260982  26.74620287329810253 3.16262982622414457 -0.31361724519966583  26.71645344744884909 3.17081588387883073 -0.21213093393067972  26.70125000000000171 3.17500000000000027 -0.10670682263484932  26.70125000000000881 3.17500000000000027 0.09413504451484041  26.71308222857159720 3.17174363981585872 0.18823819889014898  26.73673147172972264 3.16523601975188651 0.28054109557541340  26.77186175444866123 3.15582430711959727 0.36929574776587065  26.81782470354732340 3.14420067717379492 0.45281435828600541  26.87365653444539504 3.13130857684876274 0.52953640943657976  27.01125134361027236 3.10320246619193041 0.67605999898730285  27.09379636569677174 3.08826157745477881 0.74166569351525435  27.18338719975841400 3.07472539214471530 0.79441709187838472  27.27802832134027611 3.06376518901097583 0.83406770243679296  27.37593886579933056 3.05619335964562255 0.86052161782184278  27.47546414146713900 3.05240658128959064 0.87374999999999925  27.57499999999999574 3.05240658128959064 0.87374999999999925 
 0.00000000000000000 8 0.12982302137937371 6 0.26151727224178883 6 0.37769582465865364 6 0.50971287430898371 6 0.63458819015874579 6 0.76126342044328377 6 0.87301427336267423 6 1.00000000000000000 8
1 27.57500000000000284 -10.00000000000000000 0.87374999999999992 0.00000000000000000 1.00000000000000000 0.00000000000000000 
Polygon3D 0
PolygonOnTriangulations 0
Surfaces 11
1 -3.96875000000000000 6.41580486636971692 0.00000000000000000 0.00000000000000000 -0.86602540378443871 -0.49999999999999994 0.00000000000000000 -0.49999999999999994 0.86602540378443871 -1.00000000000000000 0.00000000000000000 0.00000000000000000 
1 -3.96875000000000000 3.20790243318485935 -5.55625000000000036 0.00000000000000000 -0.86602540378443871 0.49999999999999994 0.00000000000000000 0.49999999999999994 0.86602540378443871 -1.00000000000000000 0.00000000000000000 0.00000000000000000 
1 -3.96875000000000000 3.20790243318485935 5.55625000000000036 0.00000000000000000 -0.00000000000000014 -1.00000000000000000 0.00000000000000000 -1.00000000000000000 0.00000000000000014 -1.00000000000000000 0.00000000000000000 0.00000000000000000 
1 -3.96875000000000089 0.00000000000000000 0.00000000000000018 1.00000000000000000 0.00000000000000000 0.00000000000000000 0.00000000000000000 0.00000000000000000 1.00000000000000000 0.00000000000000000 -1.00000000000000000 0.00000000000000000 
1 -3.96875000000000089 0.00000000000000000 0.00000000000000018 1.00000000000000000 0.00000000000000000 0.00000000000000000 0.00000000000000000 0.00000000000000000 1.00000000000000000 0.00000000000000000 -1.00000000000000000 0.00000000000000000 
2 0.00000000000000000 0.00000000000000000 0.00000000000000000 1.00000000000000000 0.00000000000000000 0.00000000000000000 0.00000000000000000 0.00000000000000000 1.00000000000000000 0.00000000000000000 -1.00000000000000000 0.00000000000000000 3.17499999999999982
1 -3.96875000000000000 -3.20790243318486112 -5.55624999999999858 0.00000000000000000 0.00000000000000028 1.00000000000000000 0.00000000000000000 1.00000000000000000 -0.00000000000000028 -1.00000000000000000 0.00000000000000000 0.00000000000000000 
1 -3.96875000000000000 -3.20790243318485713 5.55625000000000124 0.00000000000000000 0.86602540378443860 -0.50000000000000022 0.00000000000000000 -0.50000000000000022 -0.86602540378443860 -1.00000000000000000 0.00000000000000000 0.00000000000000000 
1 -3.96875000000000000 -6.41580486636971692 0.00000000000000079 0.00000000000000000 0.86602540378443882 0.49999999999999978 0.00000000000000000 0.49999999999999978 -0.86602540378443882 -1.00000000000000000 0.00000000000000000 0.00000000000000000 
2 27.57500000000000284 -10.00000000000000000 0.00000000000000000 0.00000000000000000 1.00000000000000000 0.00000000000000000 0.00000000000000000 0.00000000000000000 1.00000000000000000 1.00000000000000000 0.00000000000000000 0.00000000000000000 0.87374999999999992
1 33.33749999999999858 0.00000000000000000 0.00000000000000000 1.00000000000000000 0.00000000000000000 0.00000000000000000 0.00000000000000000 0.00000000000000000 1.00000000000000000 0.00000000000000000 -1.00000000000000000 0.00000000000000000 
Triangulations 0

TShapes 68
Ve
0.000000100000000
-3.968750000000000 6.415804866369717 0.000000000000000
0 0

0101101
*
Ve
0.000000100000000
0.000000000000000 6.415804866369717 0.000000000000000
0 0

0101101
*
Ed
 0.000000100000000 1 1 0
1  1 0 0.000000000000000 3.968750000000000
0

0101000
+68 3 -67 3 *
Ve
0.000000100000000
-3.968750000000000 3.207902433184859 5.556250000000000
0 0

0101101
*
Ve
0.000000100000000
0.000000000000000 3.207902433184859 5.556250000000000
0 0

0101101
*
Ed
 0.000000100000000 1 1 0
1  2 0 0.000000000000000 3.968750000000000
0

0101000
+65 3 -64 3 *
Ed
 0.000000100000000 1 1 0
1  3 0 0.000000000000000 6.415804866369716
0

0101000
+68 3 -65 3 *
Ed
 0.000000100000000 1 1 0
1  4 0 0.000000000000000 6.415804866369716
0

0101000
+67 5 -64 5 *
Wi

0101100
+66 0 -63 0 -62 0 +61 4 *
Fa
0  0.000000100000000 1 0

0101000
+60 0 *
Ve
0.000000100000000
-3.968750000000000 3.207902433184859 -5.556250000000000
0 0

0101101
*
Ve
0.000000100000000
0.000000000000000 3.207902433184859 -5.556250000000000
0 0

0101101
*
Ed
 0.000000100000000 1 1 0
1  5 0 0.000000000000000 3.968750000000000
0

0101000
+58 3 -57 3 *
Ed
 0.000000100000000 1 1 0
1  6 0 0.000000000000000 6.415804866369716
0

0101000
+58 3 -68 3 *
Ed
 0.000000100000000 1 1 0
1  7 0 0.000000000000000 6.415804866369716
0

0101000
+57 5 -67 5 *
Wi

0101100
+56 0 -66 0 -55 0 +54 4 *
Fa
0  0.000000100000000 2 0

0101000
+53 0 *
Ve
0.000000100000000
-3.968750000000000 -3.207902433184857 5.556250000000001
0 0

0101101
*
Ve
0.000000100000000
0.000000000000000 -3.207902433184857 5.556250000000001
0 0

0101101
*
Ed
 0.000000100000000 1 1 0
1  8 0 0.000000000000000 3.968750000000000
0

0101000
+51 3 -50 3 *
Ed
 0.000000100000000 1 1 0
1  9 0 0.000000000000000 6.415804866369717
0

0101000
+65 3 -51 3 *
Ed
 0.000000100000000 1 1 0
1  10 0 0.000000000000000 6.415804866369717
0

0101000
+64 5 -50 5 *
Wi

0101100
+63 0 -49 0 -48 0 +47 4 *
Fa
0  0.000000100000000 3 0

0101000
+46 0 *
Ve
0.000000100000000
-3.968750000000000 -6.415804866369717 0.000000000000001
0 0

0101101
*
Ed
 0.000000100000000 1 1 0
1  11 0 0.000000000000000 6.415804866369717
0

0101000
+51 3 -44 3 *
Ve
0.000000100000000
-3.968750000000000 -3.207902433184861 -5.556249999999999
0 0

0101101
*
Ed
 0.000000100000000 1 1 0
1  12 0 0.000000000000000 6.415804866369714
0

0101000
+44 3 -42 3 *
Ed
 0.000000100000000 1 1 0
1  13 0 0.000000000000000 6.415804866369720
0

0101000
+42 3 -58 3 *
Wi

0101100
+62 0 +48 0 +43 0 +41 0 +40 0 +55 0 *
Fa
0  0.000000100000000 4 0

0101000
+39 0 *
Ve
0.000000100000000
0.000000000000000 -3.207902433184861 -5.556249999999999
0 0

0101101
*
Ed
 0.000000100000000 1 1 0
1  14 0 0.000000000000000 6.415804866369720
0

0101000
+37 5 -57 5 *
Ve
0.000000100000000
0.000000000000000 -6.415804866369717 0.000000000000001
0 0

0101101
*
Ed
 0.000000100000000 1 1 0
1  15 0 0.000000000000000 6.415804866369717
0

0101000
+50 5 -35 5 *
Ed
 0.000000100000000 1 1 0
1  16 0 0.000000000000000 6.415804866369714
0

0101000
+35 5 -37 5 *
Wi

0101100
+61 4 +54 4 +47 4 +36 4 +34 4 +33 4 *
Ve
0.000000100000001
0.000000000000000 0.000000000000001 3.175000000000000
0 0

0101101
*
Ed
 0.000000100000001 1 1 0
1  17 0 0.000000000000000 6.283185307179586
2  1 6 0 0.000000000000000 6.283185307179586
0

0101000
+31 3 -31 3 *
Wi

0101100
-30 0 *
Fa
0  0.000000100000000 5 4

0101000
+32 0 +29 0 *
Ed
 0.000000100000000 1 1 0
1  18 0 0.000000000000000 3.968750000000000
0

0101000
+42 3 -37 3 *
Wi

0101100
+27 0 -56 0 -40 0 +36 4 *
Fa
0  0.000000100000000 7 0

0101000
+26 0 *
Ed
 0.000000100000000 1 1 0
1  19 0 0.000000000000000 3.968750000000000
0

0101000
+44 3 -35 3 *
Wi

0101100
+49 0 -24 0 -43 0 +34 4 *
Fa
0  0.000000100000000 8 0

0101000
+23 0 *
Wi

0101100
+24 0 -27 0 -41 0 +33 4 *
Fa
0  0.000000100000000 9 0

0101000
+21 0 *
Ve
0.000000100000000
33.337499999999999 0.000000000000001 3.175000000000000
0 0

0101101
*
Ed
 0.000000100000000 1 1 0
1  20 0 0.000000000000000 33.337499999999999
3  2 3CN 6 0 0.000000000000000 33.337499999999999
0

0101000
+31 3 -19 3 *
Ed
 0.000000100000000 1 1 0
1  21 0 0.000000000000000 6.283185307179586
2  4 6 0 0.000000000000000 6.283185307179586
0

0101000
+19 3 -19 3 *
Wi

0101100
+18 0 +30 0 -18 0 -17 0 *
Ve
0.000000100000007
27.575000000000003 -3.052406581289590 0.873750000000000
0 0

0101101
*
Ed
 0.000000100000000 1 1 0
1  22 0 0.000000000000000 1.000000000000000
2  5 6 0 0.000000000000000 1.000000000000000
2  6 10 0 0.000000000000000 1.000000000000000
0

0101100
+15 3 -15 3 *
Wi

0101100
+14 0 *
Ve
0.000000100000007
27.575000000000003 3.052406581289590 0.873750000000000
0 0

0101101
*
Ed
 0.000000100000000 1 1 0
1  23 0 0.000000000000000 1.000000000000000
2  7 6 0 0.000000000000000 1.000000000000000
2  8 10 0 0.000000000000000 1.000000000000000
0

0101100
+12 3 -12 3 *
Wi

0101100
-11 0 *
Fa
0  0.000000100000000 6 0

0101000
+16 0 +13 0 +10 0 *
Wi

0101100
+17 0 *
Fa
0  0.000000100000000 11 0

0111000
+8 0 *
Ed
 0.000000100000000 1 1 0
1  24 0 6.947593418710410 13.052406581289590
3  9 10CN 10 0 6.947593418710410 13.052406581289590
0

0101000
+15 3 -12 3 *
Wi

0101100
-11 0 +6 0 +14 0 -6 0 *
Fa
0  0.000000100000000 10 0

0101000
+5 0 *
Sh

0101100
-59 0 -52 0 -45 0 -38 0 +28 0 -25 0 -22 0 -20 0 +9 0 +7 0 
-4 0 *
So

0100000
+3 0 *
Co

1100000
+2 0 *

+1 1 