DBRep_DrawableShape

CASCADE Topology V1, (c) Matra-Datavision
Locations 0
Curve2ds 31
1 6.2831853071795862 0 0 1 
1 0 0 0 1 
1 0 10 1 0 
7 0 0  3 47 45  0 7  0.0066887581330157611 6.9999966721458504  0.02000764054807698 7.0021499131170355  0.039695687096764139 7.0116301456154231  0.058977340257702918 7.0271470575394828  0.077742576492024762 7.0484322614400758  0.095885828382171301 7.0751816465740722  0.11330710087400193 7.107050434032768  0.12991249974773497 7.1436543585514096  0.14561540467620199 7.1845701254811489  0.1603367580636256 7.2293326165464595  0.17400938207757816 7.2774459130504461  0.18656820556287523 7.3283424999511144  0.19799394103099449 7.3815362400709521  0.20837443503592024 7.437131706640157  0.21767784220455041 7.4947538962099998  0.22590302919386712 7.5541623258410056  0.23304217464835741 7.6150974625591603  0.23909069281536396 7.6773199051937606  0.24404447220727679 7.7405979765448878  0.24790050654178641 7.8047091874167478  0.25065660847854404 7.8694380685319176  0.25231135885206485 7.9345749245197235  0.25286398356622558 7.9999147973697244  0.25231423219607801 8.0652549354472249  0.25066235387019631 8.1303925848244205  0.24790912118719649 8.1951227998448619  0.2440559514234838 8.2592358980771188  0.23910502999089739 8.3225164265166995  0.23305936013295458 8.3847419193205006  0.22592305324361286 8.4456807126731555  0.21770068289806269 8.5050934739876887  0.20840010234356515 8.5627205511308748  0.19802231137643309 8.6183220615854186  0.18659963831428608 8.6715209362370782  0.17404249546135503 8.7224293338991821  0.16036926103244495 8.7705615656075864  0.14564553881270598 8.8153456466353379  0.12993878235812184 8.8562832939462997  0.1133284972955787 8.89290723868565  0.095901785388483929 8.9247927487561078  0.07775307072290305 8.9515546985905416  0.058982902226075912 8.972848057474021  0.039697411023178961 8.9883690885816439  0.020007182634499882 8.9978503336824058  0.0066883027791587698 9.0000033819907479  0 9 
 0 4 0.022727272727272728 1 0.045454545454545456 1 0.068181818181818177 1 0.090909090909090912 1 0.11363636363636365 1 0.13636363636363635 1 0.15909090909090909 1 0.18181818181818182 1 0.20454545454545456 1 0.22727272727272729 1 0.25 1 0.27272727272727271 1 0.29545454545454547 1 0.31818181818181818 1 0.34090909090909094 1 0.36363636363636365 1 0.38636363636363635 1 0.40909090909090912 1 0.43181818181818182 1 0.45454545454545459 1 0.47727272727272729 1 0.5 1 0.52272727272727271 1 0.54545454545454541 1 0.56818181818181823 1 0.59090909090909094 1 0.61363636363636365 1 0.63636363636363635 1 0.65909090909090906 1 0.68181818181818188 1 0.70454545454545459 1 0.72727272727272729 1 0.75 1 0.77272727272727271 1 0.79545454545454553 1 0.81818181818181823 1 0.84090909090909094 1 0.86363636363636365 1 0.88636363636363635 1 0.90909090909090917 1 0.93181818181818188 1 0.95454545454545459 1 0.97727272727272729 1 1 4
7 0 0  3 47 45  3.1415926535897936 10  3.1683454824359614 10.000002959069182  3.2216249342216332 9.9994607196707097  3.3008511258190416 9.9971026692809932  3.3793737925467204 9.9932865461559377  3.4571689921123623 9.9881450385186277  3.5342027025136034 9.9818360477579571  3.6104283927552463 9.9745424488124534  3.6857853825270475 9.9664656444057371  3.7601979039343632 9.957819973446826  3.8335684503537375 9.9488270293671413  3.9057909466282159 9.9397070789207618  3.976687813851989 9.9306802377500141  4.0462289032343772 9.9219300607531409  4.1150689035454082 9.9135370692677256  4.1831695453294158 9.9056561819448667  4.250653711754997 9.8984071952375725  4.3175957027075764 9.8919014541662076  4.3840787115623598 9.8862343415843412  4.4501804790343851 9.8814870167492437  4.5159780347170448 9.8777257660759599  4.5815472738855805 9.875002083815307  4.6469637951345195 9.873352648536855  4.7123038383107279 9.8727994144827687  4.7776437833759413 9.873349775148375  4.8430600053020978 9.8749963752619134  4.9086287482309192 9.8777172986315236  4.9744256105041442 9.88147590529449  5.0405264849380567 9.8862207394912076  5.107008401769991 9.8918855539104857  5.1739490821615446 9.8983892257666337  5.2414317672429931 9.9056364170879601  5.3095305440058276 9.9135157941841303  5.3783690443107712 9.9219076940621402  5.4479061449226744 9.9306568717389325  5.5188066671408684 9.9396841344443008  5.5910433114519797 9.948806299182138  5.6644341756747822 9.9578025443000726  5.7388712134096629 9.9664521181190651  5.8142546570274396 9.9745328889102893  5.8905068132412586 9.9818300669815834  5.9675651685865434 9.9881419083800616  6.0453814480714891 9.9932853482542559  6.1239199082729412 9.9971024786100333  6.2031548775913974 9.9994607803800086  6.2564342796075625 10.000002974706982  6.2831853071795853 10 
 0 4 0.022727272727272728 1 0.045454545454545456 1 0.068181818181818177 1 0.090909090909090912 1 0.11363636363636365 1 0.13636363636363635 1 0.15909090909090909 1 0.18181818181818182 1 0.20454545454545456 1 0.22727272727272729 1 0.25 1 0.27272727272727271 1 0.29545454545454547 1 0.31818181818181818 1 0.34090909090909094 1 0.36363636363636365 1 0.38636363636363635 1 0.40909090909090912 1 0.43181818181818182 1 0.45454545454545459 1 0.47727272727272729 1 0.5 1 0.52272727272727271 1 0.54545454545454541 1 0.56818181818181823 1 0.59090909090909094 1 0.61363636363636365 1 0.63636363636363635 1 0.65909090909090906 1 0.68181818181818188 1 0.70454545454545459 1 0.72727272727272729 1 0.75 1 0.77272727272727271 1 0.79545454545454553 1 0.81818181818181823 1 0.84090909090909094 1 0.86363636363636365 1 0.88636363636363635 1 0.90909090909090917 1 0.93181818181818188 1 0.95454545454545459 1 0.97727272727272729 1 1 4
1 6.2831853071795862 0 0 1 
1 0 0 0 1 
1 0 0 1 0 
7 0 0  3 47 45  6.2831853071795862 9  6.2764965436688342 9.0000033278564739  6.2631776505947929 8.9978500833182942  6.243489588617309 8.9883698354744048  6.224207920862991 8.9728528989086325  6.2054426711270727 8.9515676618428301  6.1872994070647644 8.924818235870239  6.1698781239603075 8.8929494009146151  6.153272716194099 8.8563454231829883  6.137569804399817 8.815429599114351  6.1228484457981285 8.7706670461664  6.1091758202297708 8.7225536924325713  6.0966169917672302 8.6716570246065867  6.0851912745188592 8.618463292543229  6.0748108717605396 8.5628682652259052  6.0655075695757974 8.5052467634733553  6.0572824817024467 8.4458392161731677  6.0501434105934511 8.384905070075197  6.0440949323464253 8.3226836521699639  6.0391411540979423 8.2594065667039782  6.0352850827185653 8.1952962370773985  6.0325289099517043 8.1305680697555811  6.030874062510386 8.0654317213205964  6.030321324413439 8.000092067204049  6.0308709585389728 7.9347519968278366  6.0325227161819104 7.8696144277504914  6.0352758247103715 7.8048842600266743  6.0391288669575109 7.740771186349976  6.0440796576068925 7.6774906547747426  6.0501251935224118 7.61526513007143  6.057261363483903 7.5543262735090932  6.065483593909021 7.4949134158277069  6.0747840323002373 7.4372862046051571  6.0851616768625734 7.3816845264436557  6.096584207615952 7.3284854210430161  6.1091411633130894 7.2775769044703802  6.1228142448136813 7.2294443310946006  6.1375378955911488 7.1846596185669611  6.1532446977241309 7.1437210664212012  6.1698551592862954 7.1070960461952648  6.1872821699865508 7.075209433014968  6.2054312735769965 7.0484465040193545  6.2242018658051963 7.0271524173482227  6.2434877375900237 7.0116309764750744  6.2631782066731656 7.002149632202384  6.2764970733555794 6.9999966062471355  6.2831853071795862 7 
 0 4 0.022727272727272728 1 0.045454545454545456 1 0.068181818181818177 1 0.090909090909090912 1 0.11363636363636365 1 0.13636363636363635 1 0.15909090909090909 1 0.18181818181818182 1 0.20454545454545456 1 0.22727272727272729 1 0.25 1 0.27272727272727271 1 0.29545454545454547 1 0.31818181818181818 1 0.34090909090909094 1 0.36363636363636365 1 0.38636363636363635 1 0.40909090909090912 1 0.43181818181818182 1 0.45454545454545459 1 0.47727272727272729 1 0.5 1 0.52272727272727271 1 0.54545454545454541 1 0.56818181818181823 1 0.59090909090909094 1 0.61363636363636365 1 0.63636363636363635 1 0.65909090909090906 1 0.68181818181818188 1 0.70454545454545459 1 0.72727272727272729 1 0.75 1 0.77272727272727271 1 0.79545454545454553 1 0.81818181818181823 1 0.84090909090909094 1 0.86363636363636365 1 0.88636363636363635 1 0.90909090909090917 1 0.93181818181818188 1 0.95454545454545459 1 0.97727272727272729 1 1 4
7 0 0  3 47 45  0 10  0.02675285034658605 10.000002959079817  0.080032344788168591 9.9994607188017852  0.15925859928224967 9.9971026646774384  0.23778132778942015 9.9932865356522207  0.31557658790889148 9.9881450203301014  0.3926103575171016 9.9818360205558303  0.46883610538401405 9.9745424117921111  0.54419315118367517 9.9664655972986846  0.61860572595541119 9.9578199166418777  0.69197632566686995 9.9488269634738398  0.76419886384358438 9.9397070063781072  0.83509580194219546 9.9306801565361642  0.90463683855737209 9.9219299875804587  0.97347627362812561 9.913537066475067  1.0415761164130515 9.9056562707274196  1.1090593250829908 9.8984073778002273  1.1760002972531525 9.8919017122894495  1.2424822950389873 9.8862346438387263  1.3085831198343436 9.8814873245746817  1.3743798513471706 9.8777260403097085  1.439948432022957 9.8750022900201007  1.5053644857617803 9.8733527609581682  1.5707043250582879 9.872799415756301  1.636044187809031 9.8733496585715343  1.7014602842439088 9.8749961396755968  1.7670289023161865 9.8777169434840033  1.8328256281909983 9.8814754321073348  1.898926357437086 9.8862201515919601  1.9654081188730668 9.8918848566254542  2.0323486335084855 9.8983884265036526  2.0998311409294219 9.9056355252927322  2.1679297302692535 9.9135148219068583  2.2367680214370442 9.9219066541166878  2.3063049310473756 9.9306557848105701  2.3772050166347611 9.9396829887125371  2.449441427050838 9.9488051458627744  2.522832438695358 9.9578014568496336  2.597270109899072 9.9664511737258366  2.6726546733571808 9.974532147381753  2.7489083569348161 9.9818295566298438  2.8259684945487642 9.9881416188814747  2.9037865919005585 9.9932852321308037  2.9823266181700023 9.9971024641685382  3.061562554615386 9.9994607900801817  3.1148419000799885 10.000002978311917  3.1415926535897931 10 
 0 4 0.022727272727272728 1 0.045454545454545456 1 0.068181818181818177 1 0.090909090909090912 1 0.11363636363636365 1 0.13636363636363635 1 0.15909090909090909 1 0.18181818181818182 1 0.20454545454545456 1 0.22727272727272729 1 0.25 1 0.27272727272727271 1 0.29545454545454547 1 0.31818181818181818 1 0.34090909090909094 1 0.36363636363636365 1 0.38636363636363635 1 0.40909090909090912 1 0.43181818181818182 1 0.45454545454545459 1 0.47727272727272729 1 0.5 1 0.52272727272727271 1 0.54545454545454541 1 0.56818181818181823 1 0.59090909090909094 1 0.61363636363636365 1 0.63636363636363635 1 0.65909090909090906 1 0.68181818181818188 1 0.70454545454545459 1 0.72727272727272729 1 0.75 1 0.77272727272727271 1 0.79545454545454553 1 0.81818181818181823 1 0.84090909090909094 1 0.86363636363636365 1 0.88636363636363635 1 0.90909090909090917 1 0.93181818181818188 1 0.95454545454545459 1 0.97727272727272729 1 1 4
7 0 0  3 69 67  3.1415926535897931 9  3.1505120357984744 9.0000105030564139  3.1682445825857757 8.9961739599839952  3.1942593455943924 8.9794403967128158  3.2194188798925114 8.9522727168353544  3.2434721993379707 8.9153879863369756  3.2661840870819407 8.8696165994936891  3.2873403224882414 8.8159152040827333  3.3067505496590779 8.7553730708744997  3.3242571956912403 8.6891725796734107  3.339728930497746 8.6187388827792635  3.3533325845849289 8.5440972006913203  3.3650190356627734 8.465998864956104  3.3747801949329519 8.3850328720353886  3.3826016347732759 8.301781722542497  3.388474862978045 8.2167877941939125  3.3923935754396832 8.1305700967061814  3.3943541580643992 8.0436274821097395  3.3943549656180552 7.9564441687586847  3.3923959814571285 7.8695007174700109  3.3884788252119606 7.7832814329739115  3.3826070913566735 7.6982852697753454  3.3747870798495985 7.6150313839292361  3.3650272730096384 7.5340622436200295  3.3533421796713268 7.4559607063890239  3.3397397217802247 7.3813151634088836  3.3242698994664788 7.3108799415129448  3.3067615467679294 7.244663677131399  3.2873462079692253 7.1841001136045284  3.2661823897378692 7.130377872505818  3.2434609358078048 7.0845912141549565  3.2193994291005832 7.0476989978755151  3.1942268009139116 7.0205352824331095  3.1682244687055112 7.0038060140033265  3.1415574060835856 6.9980897108417448  3.1148947854271642 7.0038351997859687  3.0889007395485724 7.0205861512434709  3.0637394988517892 7.0477610491112319  3.0396906059036652 7.0846527378392548  3.0169815299689158 7.1304282490251207  2.9958284784584022 7.1841317430597202  2.9764211779722713 7.2446739507287088  2.958917323575152 7.3108725756785518  2.943448006469525 7.3813032656661743  2.9298463113072399 7.4559419013672361  2.9181615360825361 7.5340366540429358  2.9084017872926249 7.6149986302404988  2.9005815220268771 7.6982452610379637  2.8947092353814399 7.783234146267052  2.8907912234760329 7.8694462460261425  2.8888310831109978 7.9563827199012112  2.8888304313336373 8.0435593198907398  2.8907892687291428 8.1304961133255773  2.8947059791217318 8.2167088582386274  2.9005769682881568 8.3016987292646593  2.9083959380029691 8.3849466879211079  2.918154409830803 8.4659104038103408  2.9298378745216858 8.5440071418445314  2.9434384313581332 8.6186487426586726  2.9589060264982887 8.689080772466145  2.9764118501488595 8.7552950060896446  2.9958243360877281 8.8158579532126016  3.016985074351525 8.8695810384125711  3.0397027165854191 8.9153706357074984  3.0637618708589729 8.9522676179325753  3.0889260669996155 8.979441032033451  3.114943029073185 8.9961749450969872  3.1326745865560652 9.0000106688417851  3.1415926535897931 9 
 0 4 0.015151515151515152 1 0.030303030303030304 1 0.045454545454545456 1 0.060606060606060608 1 0.07575757575757576 1 0.090909090909090912 1 0.10606060606060606 1 0.12121212121212122 1 0.13636363636363635 1 0.15151515151515152 1 0.16666666666666669 1 0.18181818181818182 1 0.19696969696969696 1 0.21212121212121213 1 0.22727272727272729 1 0.24242424242424243 1 0.25757575757575757 1 0.27272727272727271 1 0.2878787878787879 1 0.30303030303030304 1 0.31818181818181818 1 0.33333333333333337 1 0.34848484848484851 1 0.36363636363636365 1 0.37878787878787878 1 0.39393939393939392 1 0.40909090909090912 1 0.42424242424242425 1 0.43939393939393939 1 0.45454545454545459 1 0.46969696969696972 1 0.48484848484848486 1 0.5 1 0.51515151515151514 1 0.53030303030303028 1 0.54545454545454541 1 0.56060606060606066 1 0.5757575757575758 1 0.59090909090909094 1 0.60606060606060608 1 0.62121212121212122 1 0.63636363636363635 1 0.65151515151515149 1 0.66666666666666674 1 0.68181818181818188 1 0.69696969696969702 1 0.71212121212121215 1 0.72727272727272729 1 0.74242424242424243 1 0.75757575757575757 1 0.77272727272727271 1 0.78787878787878785 1 0.80303030303030309 1 0.81818181818181823 1 0.83333333333333337 1 0.84848484848484851 1 0.86363636363636365 1 0.87878787878787878 1 0.89393939393939392 1 0.90909090909090917 1 0.92424242424242431 1 0.93939393939393945 1 0.95454545454545459 1 0.96969696969696972 1 0.98484848484848486 1 1 4
7 0 0  3 69 67  0 2  0.035670357099911953 1.9999910099282565  0.1066132473678465 2.0009619865754114  0.21178735436117169 2.0051078539069032  0.31568726414942372 2.0117043956589318  0.41823425057858987 2.0203772936429538  0.51931307621824097 2.0306869657386217  0.61876377326501064 2.0421378340232446  0.71636285157812019 2.0542060156356552  0.81185097886588675 2.0663696755435961  0.90477149691804826 2.0781220515014605  0.99637727441141877 2.0892290737791055  1.086740001839507 2.0993497289475203  1.1761019970884012 2.108211186315585  1.2646451543626824 2.1155794925799687  1.3525575354288346 2.1212686644403926  1.4400193935876109 2.1251389812028378  1.5272101557717823 2.1270977041537393  1.6143108695031074 2.1270985135149703  1.7015019255746759 2.1251413713519556  1.78896429668678 2.1212725445966556  1.8768773263308951 2.1155847157412278  1.96542112992406 2.108217567326701  2.0547837077400715 2.0993570503269243  2.1451464694265105 2.0892371561601482  2.2367526182024626 2.0781305855344168  2.3296692916546391 2.0663789220389832  2.425173029392063 2.0542131586030958  2.522801061707149 2.0421410964542042  2.6222880962628885 2.0306858129551273  2.7234077672957895 2.0203726060032619  2.8259876730411193 2.0116974316509504  2.9299369504471358 2.005102674624117  3.035064010753608 2.0009540251283111  3.1417333880782312 1.9995211668774127  3.2483865307616497 2.0009613216511077  3.3534842178540902 2.0051151782475651  3.4573923503266517 2.0117122618796146  3.559925027939606 2.0203867379340235  3.6609957131827429 2.0306967884737621  3.7604367208037424 2.0421475222692531  3.8580266790264979 2.0542150120061256  3.9535054979937865 2.0663775730827223  4.0464174943431388 2.078128682840751  4.138016310967771 2.0892344918584769  4.2283726339970027 2.099353947675318  4.3177286604848284 2.1082142758396718  4.4062660169366694 2.1155815552940331  4.4941725953583376 2.1212698484896673  4.5816284862140932 2.1251394834341069  4.668812999896808 2.1270977700316909  4.7559070190008086 2.1270984236883477  4.8430914123135018 2.1251414289030417  4.9305470622332663 2.1212730397974808  5.0184532846287979 2.1155859146431939  5.1069901475602482 2.1082196969061111  5.1963456155485499 2.0993602833578096  5.2867010247869697 2.0892416012113397  5.3782996258261857 2.0781362583794372  5.4712081300961977 2.0663857891826205  5.5667032188217096 2.0542210618326759  5.6643219069358004 2.0421497378720876  5.7637990529397385 2.0306948390401232  5.8649062786090145 2.0203813354233864  5.9674792058765842 2.0117056354840379  6.0713984739535647 2.0051077010653495  6.176581334183231 2.0009617429855715  6.2475201569817447 1.9999909622165177  6.2831853071795862 2 
 0 4 0.015151515151515152 1 0.030303030303030304 1 0.045454545454545456 1 0.060606060606060608 1 0.07575757575757576 1 0.090909090909090912 1 0.10606060606060606 1 0.12121212121212122 1 0.13636363636363635 1 0.15151515151515152 1 0.16666666666666669 1 0.18181818181818182 1 0.19696969696969696 1 0.21212121212121213 1 0.22727272727272729 1 0.24242424242424243 1 0.25757575757575757 1 0.27272727272727271 1 0.2878787878787879 1 0.30303030303030304 1 0.31818181818181818 1 0.33333333333333337 1 0.34848484848484851 1 0.36363636363636365 1 0.37878787878787878 1 0.39393939393939392 1 0.40909090909090912 1 0.42424242424242425 1 0.43939393939393939 1 0.45454545454545459 1 0.46969696969696972 1 0.48484848484848486 1 0.5 1 0.51515151515151514 1 0.53030303030303028 1 0.54545454545454541 1 0.56060606060606066 1 0.5757575757575758 1 0.59090909090909094 1 0.60606060606060608 1 0.62121212121212122 1 0.63636363636363635 1 0.65151515151515149 1 0.66666666666666674 1 0.68181818181818188 1 0.69696969696969702 1 0.71212121212121215 1 0.72727272727272729 1 0.74242424242424243 1 0.75757575757575757 1 0.77272727272727271 1 0.78787878787878785 1 0.80303030303030309 1 0.81818181818181823 1 0.83333333333333337 1 0.84848484848484851 1 0.86363636363636365 1 0.87878787878787878 1 0.89393939393939392 1 0.90909090909090917 1 0.92424242424242431 1 0.93939393939393945 1 0.95454545454545459 1 0.96969696969696972 1 0.98484848484848486 1 1 4
1 6.2831853071795862 0 0 1 
1 0 0 0 1 
7 0 0  3 69 67  0 7.5  0.017350085949953888 7.5000015865449168  0.052014677972285019 7.4993966549306181  0.10385688790522526 7.4967068402518899  0.15549728649327285 7.492269084291391  0.2068859222098752 7.486143836103162  0.25796976859074228 7.4784082343201064  0.30869238513776553 7.4691578365254534  0.35899022761911825 7.4585061670971982  0.40880199182676424 7.4465811708737721  0.45802860088311864 7.4335354174822834  0.50671178331604894 7.419493899197267  0.5549077207590285 7.4045756422361153  0.60265241753233223 7.388905591282585  0.64998571991319953 7.3726080353101127  0.69694526189427752 7.3558086092304968  0.74356839725836821 7.3386340011991722  0.78989198510348702 7.321212261340456  0.83595255756127818 7.3036729993054754  0.88178694588018591 7.2861474249975968  0.92743058961505809 7.2687691278469533  0.97299814172644816 7.2516441107984253  1.0185116908080432 7.2349172005453317  1.0640105733794081 7.2187297674782407  1.1095315528074752 7.2032271007706719  1.1551149451732614 7.1885556404537949  1.2008035644406225 7.1748628899655511  1.2466443893588544 7.162295956459956  1.292686632996169 7.1510021063844462  1.3388888591499364 7.1411452262261985  1.3852556340541817 7.1328634180558925  1.4317944226714765 7.1262820076873563  1.4784552372540425 7.1215133682234333  1.525194422867399 7.1186384932155171  1.5719977485826797 7.1177076887106141  1.6187720635893608 7.118738527858909  1.6654554187133377 7.1217066855374727  1.7120529638206676 7.1265601949280706  1.758544012319575 7.1332196472880582  1.8049023749108086 7.1415786879363017  1.8510955506384381 7.1515074413715638  1.8970539016578227 7.1628462193241527  1.942802496951703 7.1754435300420534  1.9884055095400972 7.1891573597172318  2.0339050510550156 7.2038401026381313  2.0793444394779805 7.219345310647248  2.124762963173485 7.2355271325169896  2.1701972020303182 7.2522411409295566  2.2156845217549477 7.2693461403775377  2.2612513762443482 7.2866998849701323  2.3070147371588123 7.304198182101115  2.3530027334263077 7.3217054658137384  2.3992539287717496 7.3390919977785378  2.4458041680998233 7.3562286986866772  2.4926902788312257 7.3729882871408812  2.5399493934034814 7.3892447626584508  2.5876190341181711 7.4048732047256998  2.6357386869175414 7.4197499635672628  2.6843448740865337 7.4337509680400471  2.7334910157068348 7.4467571733382316  2.7832198410066087 7.458644723878912  2.8334335276877218 7.4692621281004712  2.8840705514944012 7.4784820807904078  2.9350675026848272 7.4861917242302125  2.9863679466588793 7.4922960623763721  3.0379188686808201 7.4967184388003929  3.0896703046370124 7.4993988060275516  3.1242734945800934 7.5000015788983392  3.1415926535897931 7.5 
 0 4 0.015151515151515152 1 0.030303030303030304 1 0.045454545454545456 1 0.060606060606060608 1 0.07575757575757576 1 0.090909090909090912 1 0.10606060606060606 1 0.12121212121212122 1 0.13636363636363635 1 0.15151515151515152 1 0.16666666666666669 1 0.18181818181818182 1 0.19696969696969696 1 0.21212121212121213 1 0.22727272727272729 1 0.24242424242424243 1 0.25757575757575757 1 0.27272727272727271 1 0.2878787878787879 1 0.30303030303030304 1 0.31818181818181818 1 0.33333333333333337 1 0.34848484848484851 1 0.36363636363636365 1 0.37878787878787878 1 0.39393939393939392 1 0.40909090909090912 1 0.42424242424242425 1 0.43939393939393939 1 0.45454545454545459 1 0.46969696969696972 1 0.48484848484848486 1 0.5 1 0.51515151515151514 1 0.53030303030303028 1 0.54545454545454541 1 0.56060606060606066 1 0.5757575757575758 1 0.59090909090909094 1 0.60606060606060608 1 0.62121212121212122 1 0.63636363636363635 1 0.65151515151515149 1 0.66666666666666674 1 0.68181818181818188 1 0.69696969696969702 1 0.71212121212121215 1 0.72727272727272729 1 0.74242424242424243 1 0.75757575757575757 1 0.77272727272727271 1 0.78787878787878785 1 0.80303030303030309 1 0.81818181818181823 1 0.83333333333333337 1 0.84848484848484851 1 0.86363636363636365 1 0.87878787878787878 1 0.89393939393939392 1 0.90909090909090917 1 0.92424242424242431 1 0.93939393939393945 1 0.95454545454545459 1 0.96969696969696972 1 0.98484848484848486 1 1 4
7 0 0  3 69 67  6.2831853071795862 10  6.2716185236373576 10.00000140582434  6.2485089008264225 9.9990957921106318  6.2139993750833149 9.9950559163536923  6.1797275965064351 9.9883717792763846  6.1457772331479141 9.9791037693663949  6.1122331350427643 9.967327729092462  6.0791812562768826 9.9531369787860786  6.0467106449451862 9.9366433252060702  6.0149071237406666 9.9179728472781932  5.9838775850295036 9.8972840689103414  5.9536376763316241 9.8746868781228443  5.9241955413435505 9.850274981924299  5.8955733486846853 9.824145287381878  5.8677927271115138 9.7963873128906318  5.8408789520504776 9.7670862955266742  5.8148601103438757 9.7363226432218486  5.7897676046573601 9.704172311608156  5.7656363053285418 9.670707137343955  5.7425047420756883 9.6359944208527857  5.7204154475228073 9.6000995549532124  5.6993797677777742 9.5630184230887227  5.6794607514749202 9.5248146103841549  5.6607173835249682 9.4855370469867015  5.6432149365591364 9.4452349642663531  5.6270219034660087 9.403953539085661  5.6122106557317615 9.3617348940296328  5.5988565030119304 9.318617081675665  5.5870392876214652 9.2746358727597933  5.5768607051289152 9.2299164168992665  5.5684017647821946 9.1845443632754229  5.5617380254712465 9.1386049054470089  5.5569411570611678 9.0922434539311681  5.5540618178242198 9.0456027342730181  5.5531315232721496 8.9987981377186816  5.5541618374050223 8.952025196547412  5.5571351354482275 8.9054479219038001  5.5620186751817968 8.8591617886445526  5.5687639125799997 8.8132862826456559  5.5773057587784862 8.7679436211542647  5.5875644656213979 8.7232588449426594  5.5994367653162698 8.6793874211414774  5.6128332349676668 8.6363885134810339  5.6276794782929223 8.5942834888108059  5.6438993822447294 8.5531145439967489  5.6614213845569523 8.5129229263956958  5.6801772368969061 8.4737543382336433  5.7001021805477166 8.4356577796049113  5.7211368457493812 8.3986833549552831  5.7432207331815093 8.3628906888484345  5.7663444928168595 8.3282739753680577  5.7904624297128002 8.2949039185444029  5.8155372448453981 8.2628460517562008  5.8415340838791856 8.2321723119374823  5.8684218533898225 8.2029582210716026  5.8961726545872786 8.1752838694626622  5.9247614388205889 8.1492340845843181  5.9541666282665844 8.1248980557678507  5.9843666387499042 8.1023719499790392  6.0153518329402615 8.0817501073091993  6.0471073798794102 8.0631411519910561  6.0795274105832284 8.0467024367469602  6.1125262030278549 8.032559525111667  6.1460150410140812 8.0208236168211187  6.179908225346523 8.0115875297857766  6.2141211684720972 8.0049266552370479  6.2485704529405552 8.0009009871583849  6.2716391422402538 7.9999985990940301  6.2831853071795862 8 
 0 4 0.015151515151515152 1 0.030303030303030304 1 0.045454545454545456 1 0.060606060606060608 1 0.07575757575757576 1 0.090909090909090912 1 0.10606060606060606 1 0.12121212121212122 1 0.13636363636363635 1 0.15151515151515152 1 0.16666666666666669 1 0.18181818181818182 1 0.19696969696969696 1 0.21212121212121213 1 0.22727272727272729 1 0.24242424242424243 1 0.25757575757575757 1 0.27272727272727271 1 0.2878787878787879 1 0.30303030303030304 1 0.31818181818181818 1 0.33333333333333337 1 0.34848484848484851 1 0.36363636363636365 1 0.37878787878787878 1 0.39393939393939392 1 0.40909090909090912 1 0.42424242424242425 1 0.43939393939393939 1 0.45454545454545459 1 0.46969696969696972 1 0.48484848484848486 1 0.5 1 0.51515151515151514 1 0.53030303030303028 1 0.54545454545454541 1 0.56060606060606066 1 0.5757575757575758 1 0.59090909090909094 1 0.60606060606060608 1 0.62121212121212122 1 0.63636363636363635 1 0.65151515151515149 1 0.66666666666666674 1 0.68181818181818188 1 0.69696969696969702 1 0.71212121212121215 1 0.72727272727272729 1 0.74242424242424243 1 0.75757575757575757 1 0.77272727272727271 1 0.78787878787878785 1 0.80303030303030309 1 0.81818181818181823 1 0.83333333333333337 1 0.84848484848484851 1 0.86363636363636365 1 0.87878787878787878 1 0.89393939393939392 1 0.90909090909090917 1 0.92424242424242431 1 0.93939393939393945 1 0.95454545454545459 1 0.96969696969696972 1 0.98484848484848486 1 1 4
7 0 0  3 69 67  3.1415926535897931 7.5  3.1589427395423648 7.5000015865449168  3.1936073315590319 7.4993966549306181  3.2454495414560234 7.4967068402518899  3.2970899399798212 7.492269084291391  3.3484785756243038 7.486143836103162  3.3995624219405025 7.4784082343201064  3.4502850384384876 7.4691578365254534  3.500582880900041 7.4585061670971982  3.550394645117775 7.4465811708737721  3.5996212543021193 7.4335354174822834  3.6483044367177193 7.419493899197267  3.696500374075915 7.4045756422361153  3.7442450707632706 7.388905591282585  3.7915783730950263 7.3726080353101127  3.8385379150617429 7.3558086092304968  3.885161050414025 7.3386340011991722  3.9314846382055997 7.321212261340456  3.977545210538973 7.3036729993054754  4.0233795986904672 7.2861474249975968  4.0690232424060513 7.2687691278469533  4.1145907944883771 7.2516441107984253  4.1601043435464575 7.2349172005453317  4.2056032260946754 7.2187297674782407  4.2511242054997478 7.2032271007706719  4.2967075978486431 7.1885556404537949  4.3423962170977957 7.1748628899655511  4.3882370420008412 7.162295956459956  4.4342792856235684 7.1510021063844462  4.4804815117663601 7.1411452262261985  4.5268482866604902 7.1328634180558925  4.5733870752715866 7.1262820076873563  4.6200478898426196 7.1215133682234333  4.666787075471917 7.1186384932155171  4.713590401119724 7.1177076887106141  4.7603647163741218 7.118738527858909  4.8070480716731119 7.1217066855374727  4.8536456167059772 7.1265601949280706  4.9001366650500771 7.1332196472880582  4.9464950275411672 7.1415786879363017  4.9926882032654465 7.1515074413715638  5.0386465543002119 7.1628462193241527  5.0843951496091027 7.1754435300420534  5.1299981622159967 7.1891573597172318  5.1754977037496692 7.2038401026381313  5.2209370921942497 7.219345310647248  5.266355615911845 7.2355271325169896  5.311789854794446 7.2522411409295566  5.3572771745448753 7.2693461403775377  5.4028440290632682 7.2866998849701323  5.4486073900074468 7.304198182101115  5.4945953863067407 7.3217054658137384  5.540846581685174 7.3390919977785378  5.5873968210486336 7.3562286986866772  5.6342829318156733 7.3729882871408812  5.681542046426804 7.3892447626584508  5.7292116871812535 7.4048732047256998  5.7773313400224833 7.4197499635672628  5.8259375272349034 7.4337509680400471  5.8750836688994008 7.4467571733382316  5.9248124942455442 7.458644723878912  5.975026180976541 7.4692621281004712  6.0256632048406331 7.4784820807904078  6.0766601560984963 7.4861917242302125  6.1279606001453626 7.4922960623763721  6.179511522231337 7.4967184388003929  6.2312629582237404 7.4993988060275516  6.2658661481725275 7.5000015788983392  6.2831853071795862 7.5 
 0 4 0.015151515151515152 1 0.030303030303030304 1 0.045454545454545456 1 0.060606060606060608 1 0.07575757575757576 1 0.090909090909090912 1 0.10606060606060606 1 0.12121212121212122 1 0.13636363636363635 1 0.15151515151515152 1 0.16666666666666669 1 0.18181818181818182 1 0.19696969696969696 1 0.21212121212121213 1 0.22727272727272729 1 0.24242424242424243 1 0.25757575757575757 1 0.27272727272727271 1 0.2878787878787879 1 0.30303030303030304 1 0.31818181818181818 1 0.33333333333333337 1 0.34848484848484851 1 0.36363636363636365 1 0.37878787878787878 1 0.39393939393939392 1 0.40909090909090912 1 0.42424242424242425 1 0.43939393939393939 1 0.45454545454545459 1 0.46969696969696972 1 0.48484848484848486 1 0.5 1 0.51515151515151514 1 0.53030303030303028 1 0.54545454545454541 1 0.56060606060606066 1 0.5757575757575758 1 0.59090909090909094 1 0.60606060606060608 1 0.62121212121212122 1 0.63636363636363635 1 0.65151515151515149 1 0.66666666666666674 1 0.68181818181818188 1 0.69696969696969702 1 0.71212121212121215 1 0.72727272727272729 1 0.74242424242424243 1 0.75757575757575757 1 0.77272727272727271 1 0.78787878787878785 1 0.80303030303030309 1 0.81818181818181823 1 0.83333333333333337 1 0.84848484848484851 1 0.86363636363636365 1 0.87878787878787878 1 0.89393939393939392 1 0.90909090909090917 1 0.92424242424242431 1 0.93939393939393945 1 0.95454545454545459 1 0.96969696969696972 1 0.98484848484848486 1 1 4
7 0 0  3 69 67  0 8  0.011566783542230397 7.9999985941648601  0.034676406353163713 8.0009042077652097  0.069185932096273106 8.0049440832171186  0.10345771067314935 8.0116282200338578  0.13740807403167032 8.0208962297700346  0.1709521721368219 8.0326722699643209  0.20400405090270013 8.0468630202651461  0.23647466223440006 8.0633566739183742  0.2682781834389214 8.0820271519818689  0.29930772215008261 8.1027159307108132  0.32954763084796213 8.1253131214858492  0.35898976583603392 8.1497250175545908  0.38761195849490093 8.1758547119834013  0.41539258006807067 8.2036126864354308  0.4423063551291051 8.2329137038161146  0.46832519683570872 8.2636773561369044  0.49341770252222439 8.2958276877041168  0.51754900185104624 8.329292861828602  0.54068056510389795 8.3640055781365934  0.56276985965677717 8.3999004440491074  0.58380553940181201 8.4369815759099502  0.60372455570466421 8.4751853886161737  0.62246792365461801 8.5144629520133694  0.63997037062045159 8.5547650347317319  0.65616340371357396 8.5960464599151631  0.67097465144782475 8.6382651049704009  0.68432880416765585 8.6813829173248074  0.6961460195581175 8.7253641262397093  0.70632460205067105 8.7700835821009466  0.71478354239738806 8.8154556357242839  0.72144728170833972 8.8613950935540196  0.72624415011841847 8.9077565450637159  0.72912348935536464 8.9543972647410257  0.73005378390743658 9.0012018612289459  0.72902346977456567 9.0479748026467206  0.72605017173135877 9.0945520774634865  0.72116663199778941 9.1408382106444588  0.71442139459958653 9.1867137164804564  0.70587954840109646 9.2320563778599674  0.69562084155818837 9.2767411540557969  0.68374854186331646 9.3206125778587072  0.67035207221191939 9.3636114855184598  0.65550582888666398 9.4057165101897251  0.63928592493485858 9.4468854550030734  0.62176392262263214 9.4870770726045706  0.60300807028267833 9.5262456607655341  0.58308312663186612 9.5643422193954386  0.56204846143020504 9.6013166440441875  0.5399645739980734 9.6371093101520149  0.51684081436272855 9.671726023632095  0.492722877466786 9.7050960804559576  0.4676480623341881 9.7371539472436268  0.44165122330040063 9.7678276870629137  0.41476345378976376 9.7970417779270669  0.38701265259230588 9.824716129536867  0.35842386835899553 9.8507659144148541  0.32901867891300007 9.8751019432318916  0.29881866842968208 9.8976280490214972  0.26783347423932646 9.9182498916903334  0.23607792730017785 9.9368588470089723  0.20365789659635958 9.9532975622602997  0.17065910415172958 9.9674404739289102  0.13717026616550854 9.9791763823095003  0.10327708183307216 9.9884124695229648  0.069064138707503275 9.9950733443305513  0.034614854239045201 9.9990990127167905  0.0115461649393378 10.000001400895233  0 10 
 0 4 0.015151515151515152 1 0.030303030303030304 1 0.045454545454545456 1 0.060606060606060608 1 0.07575757575757576 1 0.090909090909090912 1 0.10606060606060606 1 0.12121212121212122 1 0.13636363636363635 1 0.15151515151515152 1 0.16666666666666669 1 0.18181818181818182 1 0.19696969696969696 1 0.21212121212121213 1 0.22727272727272729 1 0.24242424242424243 1 0.25757575757575757 1 0.27272727272727271 1 0.2878787878787879 1 0.30303030303030304 1 0.31818181818181818 1 0.33333333333333337 1 0.34848484848484851 1 0.36363636363636365 1 0.37878787878787878 1 0.39393939393939392 1 0.40909090909090912 1 0.42424242424242425 1 0.43939393939393939 1 0.45454545454545459 1 0.46969696969696972 1 0.48484848484848486 1 0.5 1 0.51515151515151514 1 0.53030303030303028 1 0.54545454545454541 1 0.56060606060606066 1 0.5757575757575758 1 0.59090909090909094 1 0.60606060606060608 1 0.62121212121212122 1 0.63636363636363635 1 0.65151515151515149 1 0.66666666666666674 1 0.68181818181818188 1 0.69696969696969702 1 0.71212121212121215 1 0.72727272727272729 1 0.74242424242424243 1 0.75757575757575757 1 0.77272727272727271 1 0.78787878787878785 1 0.80303030303030309 1 0.81818181818181823 1 0.83333333333333337 1 0.84848484848484851 1 0.86363636363636365 1 0.87878787878787878 1 0.89393939393939392 1 0.90909090909090917 1 0.92424242424242431 1 0.93939393939393945 1 0.95454545454545459 1 0.96969696969696972 1 0.98484848484848486 1 1 4
1 0 1 1 0 
1 0 0 1 0 
7 0 0  3 135 133  0 4.5  0.017365577076246003 4.4999984077877953  0.052061088911799912 4.5006044251184338  0.10394935973947873 4.5032990202810801  0.15563537231705457 4.5077445958112534  0.20706903504372245 4.5138804973622326  0.25819716869395076 4.521629322387291  0.30896316260271295 4.5308951852475214  0.35930327955966956 4.5415641727808902  0.40915599804355546 4.5535079020011286  0.45842197960073827 4.5665732904744463  0.50714438520099503 4.58063535392467  0.55537891027484065 4.5955745855635595  0.60316180988450685 4.6112657412531632  0.65053298251598324 4.6275841786774627  0.69753016496101927 4.6444039166222364  0.74419080803583959 4.6615979138829928  0.79055184219712538 4.6790377494623216  0.8366499845524803 4.6965934779597118  0.88252183085858982 4.7141333828447554  0.92820416515948456 4.7315239630125694  0.97381129592806903 4.748658624925862  1.0193648399545707 4.7653918946787535  1.0649044143506263 4.781582032943378  1.1104668715908539 4.7970833058352662  1.1560927376116297 4.8117488690003585  1.2018248657251622 4.8254307775453906  1.2477109728713649 4.8379816766471091  1.2937985437142185 4.8492534410922961  1.3400459855692808 4.8590820436140678  1.3864585961788383 4.8673294796038098  1.4330428742704528 4.8738703305730997  1.4797481023173928 4.8785925543410338  1.5265306312327678 4.8814158322437686  1.5733776025720436 4.8822905445577618  1.6201903496313796 4.8812002560778645  1.6669131120888816 4.8781703956498967  1.7135491323410761 4.873253876302762  1.7600778832651398 4.8665311911789901  1.8064726393145951 4.8581098305904513  1.8527004658337349 4.84812081017638  1.8986908494572656 4.8367251261433726  1.9444743461337217 4.8240735395178049  1.9901133862996927 4.8103088849453464  2.0356505175785364 4.7955790817360997  2.0811289392629408 4.7800309762138706  2.1265879260839085 4.7638107732749129  2.172064253039911 4.7470631397536653  2.2175946304752596 4.7299298142594521  2.2632081611606298 4.7125523022527167  2.3090217881427271 4.6950350649464507  2.3550615970894588 4.6775147588586083  2.4013668215250985 4.660121172604482  2.4479732599171697 4.6429837167261985  2.4949178893536503 4.6262299338758641  2.5422379757271418 4.6099861034420266  2.5899711064546684 4.5943774480874335  2.6381571995445485 4.5795278381900744  2.6868319056288161 4.5655619028525827  2.7360527393170955 4.5525980166666891  2.7858534144575069 4.5407626979563664  2.8361360368457551 4.5302070073065295  2.8868392641594056 4.5210577258386158  2.9379000099097574 4.5134271167979412  2.9892611169294248 4.5074093430207984  3.0408726684939698 4.5030806636259131  3.0926733428642588 4.5004986623294965  3.1446583976712268 4.4997023746251035  3.1966191584530033 4.5007105875666307  3.2484000511809308 4.5035004885877816  3.2999828195982701 4.5080312225648216  3.3513097608040034 4.5142428869737357  3.4023298684677274 4.5220571452653804  3.4529860435443149 4.5313778256022124  3.5032148075369651 4.5420907629589555  3.5529544819525314 4.5540674855598811  3.602106424245056 4.5671550835275969  3.6507212569509666 4.5812312463348022  3.6988508768946358 4.5961762144404288  3.746532212412379 4.6118656179489577  3.7938046652786945 4.6281753843226019  3.840705807102228 4.64498018171283  3.8872728638341378 4.6621536032219435  3.9335425228215879 4.6795678518196393  3.9795514478085754 4.6970936816714026  4.0253354838415145 4.714599813156374  4.0709332965602529 4.7319541965709009  4.1164576406501805 4.749050358104272  4.1619292409680835 4.7657432262959984  4.2073877504312858 4.7818918445918293  4.2528698046476237 4.7973511944201892  4.2984157989998675 4.8119752033796725  4.3440683320065601 4.8256166887531302  4.389875213333962 4.8381291635372001  4.4358826617661737 4.8493650458965138  4.4820492412349759 4.8591613186934612  4.528380499299212 4.8673809016063316  4.5748826398190134 4.8738991296360856  4.6215050200745562 4.8786047039640801  4.6682043168263627 4.8814178795783034  4.7149677775528165 4.8822893821823143  4.7616971309666347 4.8812028922038309  4.8083368333295677 4.8781836757129211  4.854890148311183 4.8732842876000557  4.9013366879083025 4.8665846699916102  4.9476499353466101 4.8581915747962245  4.9937972287822037 4.8482351284650731  5.0397085950689577 4.8368752208102608  5.0854127112489085 4.8242621698078656  5.1309723202359887 4.8105378973559807  5.1764296460661967 4.7958495592059309  5.2218277456253448 4.7803432192819724  5.2672057533876746 4.7641643162132175  5.3126001756218093 4.7474568289941041  5.3580479955355482 4.7303616284613659  5.4035765456499423 4.7130201609685702  5.4493025181445285 4.6955362730056338  5.495253092899798 4.6780454729784049  5.5414669643540471 4.6606770364203696  5.5879798216067371 4.6435596996200053  5.6348284140263063 4.6268203792818126  5.6820497796195593 4.6105847253670769  5.7296813390175894 4.5949773152366298  5.7777625235383425 4.5801214493594662  5.8263296178841282 4.5661408995405335  5.8754364826801924 4.5531542454841407  5.9251244866628543 4.5412853330669591  5.975296032720137 4.5306851559376957  6.0258898218240375 4.5214805827497946  6.0768426336417827 4.5137840869294124  6.128098203549456 4.5076903395797965  6.1796036687140425 4.5032757359674198  6.2313092045919971 4.5006001204216375  6.2658815841212316 4.4999984266860338  6.2831853071795862 4.5 
 0 4 0.007575757575757576 1 0.015151515151515152 1 0.022727272727272728 1 0.030303030303030304 1 0.03787878787878788 1 0.045454545454545456 1 0.053030303030303032 1 0.060606060606060608 1 0.068181818181818177 1 0.07575757575757576 1 0.083333333333333343 1 0.090909090909090912 1 0.098484848484848481 1 0.10606060606060606 1 0.11363636363636365 1 0.12121212121212122 1 0.12878787878787878 1 0.13636363636363635 1 0.14393939393939395 1 0.15151515151515152 1 0.15909090909090909 1 0.16666666666666669 1 0.17424242424242425 1 0.18181818181818182 1 0.18939393939393939 1 0.19696969696969696 1 0.20454545454545456 1 0.21212121212121213 1 0.2196969696969697 1 0.22727272727272729 1 0.23484848484848486 1 0.24242424242424243 1 0.25 1 0.25757575757575757 1 0.26515151515151514 1 0.27272727272727271 1 0.28030303030303033 1 0.2878787878787879 1 0.29545454545454547 1 0.30303030303030304 1 0.31060606060606061 1 0.31818181818181818 1 0.32575757575757575 1 0.33333333333333337 1 0.34090909090909094 1 0.34848484848484851 1 0.35606060606060608 1 0.36363636363636365 1 0.37121212121212122 1 0.37878787878787878 1 0.38636363636363635 1 0.39393939393939392 1 0.40151515151515155 1 0.40909090909090912 1 0.41666666666666669 1 0.42424242424242425 1 0.43181818181818182 1 0.43939393939393939 1 0.44696969696969696 1 0.45454545454545459 1 0.46212121212121215 1 0.46969696969696972 1 0.47727272727272729 1 0.48484848484848486 1 0.49242424242424243 1 0.5 1 0.50757575757575757 1 0.51515151515151514 1 0.52272727272727271 1 0.53030303030303028 1 0.53787878787878785 1 0.54545454545454541 1 0.55303030303030309 1 0.56060606060606066 1 0.56818181818181823 1 0.5757575757575758 1 0.58333333333333337 1 0.59090909090909094 1 0.59848484848484851 1 0.60606060606060608 1 0.61363636363636365 1 0.62121212121212122 1 0.62878787878787878 1 0.63636363636363635 1 0.64393939393939392 1 0.65151515151515149 1 0.65909090909090906 1 0.66666666666666674 1 0.67424242424242431 1 0.68181818181818188 1 0.68939393939393945 1 0.69696969696969702 1 0.70454545454545459 1 0.71212121212121215 1 0.71969696969696972 1 0.72727272727272729 1 0.73484848484848486 1 0.74242424242424243 1 0.75 1 0.75757575757575757 1 0.76515151515151514 1 0.77272727272727271 1 0.78030303030303028 1 0.78787878787878785 1 0.79545454545454553 1 0.80303030303030309 1 0.81060606060606066 1 0.81818181818181823 1 0.8257575757575758 1 0.83333333333333337 1 0.84090909090909094 1 0.84848484848484851 1 0.85606060606060608 1 0.86363636363636365 1 0.87121212121212122 1 0.87878787878787878 1 0.88636363636363635 1 0.89393939393939392 1 0.90151515151515149 1 0.90909090909090917 1 0.91666666666666674 1 0.92424242424242431 1 0.93181818181818188 1 0.93939393939393945 1 0.94696969696969702 1 0.95454545454545459 1 0.96212121212121215 1 0.96969696969696972 1 0.97727272727272729 1 0.98484848484848486 1 0.99242424242424243 1 1 4
7 0 0  3 135 133  3.1415926535897931 10  3.1531697647715049 10.000001410857195  3.1763000004009072 9.9990941746828312  3.21084009437496 9.9950471093339104  3.2451418677138602 9.9883511446776918  3.279121425892396 9.9790668702899961  3.3126936875719597 9.9672703854587095  3.3457724609736745 9.9530553309377705  3.3782684532283724 9.9365339010590414  3.410095589206986 9.9178326176135556  3.4411467178428405 9.8971105592963067  3.4714069808311074 9.8744773207560037  3.500867797947758 9.8500270602303885  3.529507023776397 9.8238568297043685  3.557302915620153 9.796056353425179  3.584230104350135 9.7667110400799135  3.6102603908884277 9.7359014542072781  3.6353622335292508 9.7037037170482368  3.6595006622794783 9.6701897303877669  3.6826368252665933 9.6354271790097492  3.704728621498556 9.5994805957394469  3.7257642008127498 9.5623462100410954  3.7456800178547245 9.5240881794894428  3.7644169215685075 9.4847553922160461  3.7819093674675495 9.4443971945704703  3.7980886187379941 9.4030587738259577  3.8128819974969801 9.3607824284887275  3.8262140621382774 9.3176057296438977  3.8380041654887695 9.2735663270263018  3.8481505357827803 9.2287898722394743  3.8565722525367159 9.1833616196557681  3.8631935915066489 9.1373680360405896  3.8679430622583379 9.0909556140983216  3.8707704648413181 9.0442674176162452  3.8716446727319895 8.9974177809496521  3.8705549029206958 8.9506080452871206  3.8675194840871581 8.903996270747399  3.862571678791257 8.8576800609351007  3.8557606799936344 8.8117789368611863  3.8471522873781954 8.7664158019394325  3.8368269901239636 8.7217162362133323  3.8248890434017651 8.6778365490073774  3.8114267402755333 8.6348307877560995  3.796514966144346 8.5927222106917753  3.7802298160289127 8.5515528136449213  3.7626429352260637 8.5113641976260315  3.7438226284280089 8.4722023211176509  3.7238335852251394 8.4341162946890371  3.7027355024625588 8.3971570229125998  3.6805876129192865 8.361382316126905  3.6573990523391444 8.3267870298223663  3.633216517941054 8.29344384664277  3.6080769608958008 8.2614182122686106  3.582015243075158 8.2307825589900432  3.5550623705751097 8.2016127816704696  3.5272461631632108 8.1739893995334221  3.4985916438425013 8.1479977221893005  3.4691201417751554 8.1237273128574436  3.4388538362754777 8.1012752585684602  3.4077998179513678 8.080734915138315  3.3759787158254455 8.0622191913372419  3.343496751111656 8.0458848044872475  3.3104397637582652 8.0318567038803401  3.2768964757546706 8.0202454496619229  3.2429532737714752 8.0111430515681565  3.208692853332431 8.0046245280048183  3.1742064461263784 8.0007476448920976  3.1395483147916834 7.9995537362101379  3.1049094465656122 8.0010655320872743  3.070445348318334 8.00525569340207  3.0362192002332034 8.0120815105618615  3.0023197164557929 8.0214830429562696  2.9688301936096697 8.0333833631420148  2.9358368265119457 8.047688534759267  2.9034283952202613 8.0642860728516386  2.8716907285378603 8.0830492629159991  2.8407301339868773 8.1038190846835185  2.8105565531573506 8.1264899681971361  2.7811807942461186 8.1509671204842888  2.7526243998042981 8.1771545813015827  2.7249092558644934 8.2049631987716936  2.6980606623304486 8.2343082180596472  2.6721067830823966 8.2651096639912129  2.6470791187683007 8.2972919349548899  2.6230124926928502 8.3307837577382546  2.5999459305325723 8.365517487421096  2.5779204102246811 8.4014306660728728  2.5569484215570153 8.4385265437695853  2.5370936403653541 8.4767407109204171  2.5184148955878785 8.5160247794266457  2.5009774900249258 8.5563296763982493  2.4848498505134646 8.5976105493731758  2.4701043478059308 8.639825307908831  2.4568159932869325 8.6829369126931955  2.4450653246318277 8.7269069427983865  2.4349534857469561 8.7716102948881254  2.4265608420401219 8.816962410054586  2.4199626944488806 8.8628770039960241  2.4152300678245067 8.9092081480184664  2.4124127975149134 8.9558136222434843  2.4115417955691383 9.0025797361726081  2.4126277706368975 9.049306091726141  2.4156525066616523 9.0958353906087641  2.4205829613382139 9.142070584484145  2.4273702755308859 9.1878928101647919  2.4359491050906255 9.2331798655163428  2.4462395164116351 9.2778069042737563  2.4581380098103565 9.3216185398866767  2.4715563252446309 9.3645593443134967  2.4864200715652065 9.4066068009691772  2.5026534770387858 9.4477190442632999  2.5201852260887194 9.4878547880780939  2.5389473222989185 9.526968394127822  2.5588752859941217 9.5650109852353946  2.579909857579139 9.6019323366631841  2.6019912337363178 9.637673707927032  2.625110262624426 9.6722407574295257  2.6492210003387262 9.7055622388742009  2.6742864184183466 9.7375729172721304  2.700271773653999 9.7682009428837322  2.7271461065554847 9.7973709523448864  2.7548816299566412 9.8250030124947916  2.7834533879702192 9.8510124662356873  2.8128399135486659 9.87531032756611  2.8430196061851789 9.8978005779768807  2.8739832347714498 9.9183893082197407  2.9057152233449308 9.93696763015474  2.9381099380420763 9.9533787254888875  2.9710819132725446 9.9674974736767137  3.0045426743417298 9.9792130579220508  3.0384067585311154 9.9884329780547727  3.0725898079284906 9.995082097089993  3.1070086301001205 9.9991006200683046  3.1300567794996823 10.000001395901702  3.1415926535897931 10 
 0 4 0.007575757575757576 1 0.015151515151515152 1 0.022727272727272728 1 0.030303030303030304 1 0.03787878787878788 1 0.045454545454545456 1 0.053030303030303032 1 0.060606060606060608 1 0.068181818181818177 1 0.07575757575757576 1 0.083333333333333343 1 0.090909090909090912 1 0.098484848484848481 1 0.10606060606060606 1 0.11363636363636365 1 0.12121212121212122 1 0.12878787878787878 1 0.13636363636363635 1 0.14393939393939395 1 0.15151515151515152 1 0.15909090909090909 1 0.16666666666666669 1 0.17424242424242425 1 0.18181818181818182 1 0.18939393939393939 1 0.19696969696969696 1 0.20454545454545456 1 0.21212121212121213 1 0.2196969696969697 1 0.22727272727272729 1 0.23484848484848486 1 0.24242424242424243 1 0.25 1 0.25757575757575757 1 0.26515151515151514 1 0.27272727272727271 1 0.28030303030303033 1 0.2878787878787879 1 0.29545454545454547 1 0.30303030303030304 1 0.31060606060606061 1 0.31818181818181818 1 0.32575757575757575 1 0.33333333333333337 1 0.34090909090909094 1 0.34848484848484851 1 0.35606060606060608 1 0.36363636363636365 1 0.37121212121212122 1 0.37878787878787878 1 0.38636363636363635 1 0.39393939393939392 1 0.40151515151515155 1 0.40909090909090912 1 0.41666666666666669 1 0.42424242424242425 1 0.43181818181818182 1 0.43939393939393939 1 0.44696969696969696 1 0.45454545454545459 1 0.46212121212121215 1 0.46969696969696972 1 0.47727272727272729 1 0.48484848484848486 1 0.49242424242424243 1 0.5 1 0.50757575757575757 1 0.51515151515151514 1 0.52272727272727271 1 0.53030303030303028 1 0.53787878787878785 1 0.54545454545454541 1 0.55303030303030309 1 0.56060606060606066 1 0.56818181818181823 1 0.5757575757575758 1 0.58333333333333337 1 0.59090909090909094 1 0.59848484848484851 1 0.60606060606060608 1 0.61363636363636365 1 0.62121212121212122 1 0.62878787878787878 1 0.63636363636363635 1 0.64393939393939392 1 0.65151515151515149 1 0.65909090909090906 1 0.66666666666666674 1 0.67424242424242431 1 0.68181818181818188 1 0.68939393939393945 1 0.69696969696969702 1 0.70454545454545459 1 0.71212121212121215 1 0.71969696969696972 1 0.72727272727272729 1 0.73484848484848486 1 0.74242424242424243 1 0.75 1 0.75757575757575757 1 0.76515151515151514 1 0.77272727272727271 1 0.78030303030303028 1 0.78787878787878785 1 0.79545454545454553 1 0.80303030303030309 1 0.81060606060606066 1 0.81818181818181823 1 0.8257575757575758 1 0.83333333333333337 1 0.84090909090909094 1 0.84848484848484851 1 0.85606060606060608 1 0.86363636363636365 1 0.87121212121212122 1 0.87878787878787878 1 0.88636363636363635 1 0.89393939393939392 1 0.90151515151515149 1 0.90909090909090917 1 0.91666666666666674 1 0.92424242424242431 1 0.93181818181818188 1 0.93939393939393945 1 0.94696969696969702 1 0.95454545454545459 1 0.96212121212121215 1 0.96969696969696972 1 0.97727272727272729 1 0.98484848484848486 1 0.99242424242424243 1 1 4
1 6.2831853071795862 0 0 1 
1 0 0 0 1 
1 6.2831853071795862 0 0 1 
1 0 0 0 1 
1 0 10 1 0 
1 0 10 1 0 
1 0 2 1 0 
1 6.2831853071795862 0 0 1 
1 0 0 0 1 
Curves 19
1 2249.2303627830001 -9.7999999999999995e-16 1299.645910901 0 0 1 
2 2245.2303627830001 0 1309.645910901 0 0 1 1 0 -0 -0 1 0 4
7 0 0  7 26 5  2249.2303627830001 3.8000000000000001e-16 1306.645910901  2249.2303627830001 0.128311151746 1306.645910901  2249.2255606200001 0.25457271407799997 1306.665118504  2249.2162341200001 0.37533530707399998 1306.702429919  2249.2033851880001 0.48748615172300003 1306.7559907550001  2249.188590194 0.58840845160499999 1306.8232158149999  2249.173509407 0.67620678534900003 1306.9007710799999  2249.1457699120001 0.82150461089500004 1307.065579112  2249.1328292150001 0.88106992245000004 1307.1537033229999  2249.1215136989999 0.92869060101599998 1307.247153586  2249.1125475640001 0.96436140703200002 1307.34439858  2249.1064136260002 0.98812025596999997 1307.4440948209999  2249.1033461289999 1 1307.5450017610001  2249.1033461289999 1 1307.7468200400001  2249.1064136260002 0.98812025596999997 1307.8477269800001  2249.1125475640001 0.96436140703200002 1307.947423221  2249.1215136989999 0.92869060101599998 1308.044668215  2249.1328292150001 0.88106992244899995 1308.138118478  2249.1457699120001 0.82150461089500004 1308.2262426889999  2249.1735061210002 0.67622399949400003 1308.3910311960001  2249.1885878809999 0.58842465057600002 1308.468597886  2249.2033866810002 0.48748418377699998 1308.535839721  2249.216238253 0.37530845429600002 1308.5894083779999  2249.2255635060001 0.254528620032 1308.6267148429999  2249.2303627830001 0.128272584611 1308.645910901  2249.2303627830001 1.2e-16 1308.645910901 
 0 8 0.254335060296 6 0.50002962047900001 6 0.74572418066199997 6 1 8
1 2249.2303627830001 -9.7999999999999995e-16 1299.645910901 0 0 1 
2 2245.2303627830001 0 1299.645910901 0 0 1 1 0 -0 -0 1 0 4
7 0 0  7 26 5  2249.2303627830001 -4.4e-16 1308.645910901  2249.2303627830001 -0.128311151746 1308.645910901  2249.2255606200001 -0.25457271407799997 1308.6267032969999  2249.2162341200001 -0.37533530707399998 1308.589391882  2249.2033851880001 -0.48748615172300003 1308.5358310460001  2249.188590194 -0.58840845160499999 1308.4686059860001  2249.173509407 -0.67620678534900003 1308.391050722  2249.1457697579999 -0.82150541907200003 1308.2262417720001  2249.1328291069999 -0.88107026272800004 1308.1381176530001  2249.121513738 -0.92869045473 1308.044668047  2249.112547658 -0.96436109131400005 1307.9474238329999  2249.1064136619998 -0.98812004446900004 1307.847728061  2249.1033461289999 -1 1307.7468209379999  2249.1033461289999 -1 1307.5450017610001  2249.1064136260002 -0.98812025596999997 1307.4440948209999  2249.1125475640001 -0.96436140703200002 1307.34439858  2249.1215136989999 -0.92869060101599998 1307.247153586  2249.1328292150001 -0.88106992245000004 1307.1537033229999  2249.1457699120001 -0.82150461089500004 1307.065579112  2249.1735059440002 -0.67622492610499996 1306.9007916559999  2249.188587393 -0.58842739052000004 1306.823226469  2249.2033862019998 -0.48748789973899997 1306.7559839390001  2249.2162382060001 -0.37531070590900001 1306.702413473  2249.225563726 -0.25452780268699998 1306.665106144  2249.2303627830001 -0.12826983605100001 1306.645910901  2249.2303627830001 0 1306.645910901 
 0 8 0.25433485584499999 6 0.50003199979000001 6 0.745726957799 6 1 8
7 0 1  7 49 9  2241.2303627830001 4.4e-16 1308.645910901  2241.2303627830001 -0.128311151746 1308.645910901  2241.2351649450002 -0.25457271407799997 1308.6267032969999  2241.2444914450002 -0.37533530707399998 1308.589391882  2241.2573403780002 -0.48748615172199999 1308.5358310460001  2241.2721353719999 -0.58840845160599997 1308.4686059860001  2241.2872161579999 -0.67620678534900003 1308.391050722  2241.3149558069999 -0.82150541907200003 1308.2262417720001  2241.3278964589999 -0.88107026272800004 1308.1381176530001  2241.3392118279999 -0.92869045473 1308.044668047  2241.3481779079998 -0.96436109131400005 1307.9474238329999  2241.354311904 -0.98812004446900004 1307.847728061  2241.357379437 -1 1307.7468209379999  2241.357379437 -1 1307.5450017610001  2241.3543119390001 -0.98812025596999997 1307.4440948209999  2241.3481780020002 -0.96436140703200002 1307.34439858  2241.3392118659999 -0.92869060101599998 1307.247153586  2241.3278963510002 -0.88106992245000004 1307.1537033229999  2241.3149556530002 -0.82150461089500004 1307.065579112  2241.2872196220001 -0.67622492610499996 1306.9007916559999  2241.2721381719998 -0.58842739052000004 1306.823226469  2241.257339364 -0.48748789973899997 1306.7559839390001  2241.2444873589998 -0.37531070590799998 1306.702413473  2241.2351618399998 -0.25452780268800002 1306.665106144  2241.2303627830001 -0.12826983605 1306.645910901  2241.2303627830001 0.128311151746 1306.645910901  2241.2351649450002 0.254572714077 1306.665118504  2241.2444914450002 0.37533530707500001 1306.702429919  2241.2573403780002 0.48748615172199999 1306.7559907550001  2241.2721353719999 0.58840845160599997 1306.8232158149999  2241.2872161579999 0.67620678534900003 1306.9007710799999  2241.3149556530002 0.82150461089500004 1307.065579112  2241.3278963510002 0.88106992244899995 1307.1537033229999  2241.3392118659999 0.92869060101599998 1307.247153586  2241.3481780020002 0.96436140703200002 1307.34439858  2241.3543119390001 0.98812025596999997 1307.4440948209999  2241.357379437 1 1307.5450017610001  2241.357379437 1 1307.7468200400001  2241.3543119390001 0.98812025596999997 1307.8477269800001  2241.3481780020002 0.96436140703200002 1307.947423221  2241.3392118659999 0.92869060101599998 1308.044668215  2241.3278963510002 0.88106992245000004 1308.138118478  2241.3149556530002 0.82150461089500004 1308.2262426889999  2241.2872194450001 0.67622399949400003 1308.3910311960001  2241.272137685 0.58842465057600002 1308.468597886  2241.2573388850001 0.48748418377699998 1308.535839721  2241.2444873129998 0.37530845429499998 1308.5894083779999  2241.2351620600002 0.25452862003299997 1308.6267148429999  2241.2303627830001 0.128272584611 1308.645910901 
 0 7 0.12716245731699999 6 0.25000622749599999 6 0.37284890474900001 6 0.49998045645200001 6 0.62715295720899999 6 0.75000503904399995 6 0.87285712088 6 1 7
1 2239.2303627830001 2.4e-16 1308.645910901 1 0 0 
7 0 0  6 47 10  2246.7303627830001 0 1308.645910901  2246.7303627830001 -0.074899081900080003 1308.645910901  2246.7258747619999 -0.14952930123399999 1308.6391790759999  2246.7169599529998 -0.22288895042500001 1308.6258059039999  2246.7039751530001 -0.29399327747699999 1308.6061422  2246.6875728119999 -0.36192888177499999 1308.5807955830001  2246.6471911210001 -0.49829199658599999 1308.516602569  2246.622439706 -0.56582130427400001 1308.4763262009999  2246.5953231200001 -0.628240951672 1308.43066045  2246.5668032150002 -0.68538330084099996 1308.3802800010001  2246.5378734579999 -0.73712330695399997 1308.325744255  2246.4867091729998 -0.82067789517300005 1308.2204530920001  2246.4641992060001 -0.85449914792500004 1308.170862557  2246.4426121930001 -0.88468005643299996 1308.1189849279999  2246.4225431770001 -0.91110518235600002 1308.065028983  2246.4046131079999 -0.93365380619600002 1308.009167125  2246.3848838550002 -0.95767011446399997 1307.9343440319999  2246.3805981559999 -0.96282277578700004 1307.9170121080001  2246.376574508 -0.96760710216900003 1307.899540544  2246.3728286270002 -0.97201789106500003 1307.881938646  2246.3693753070002 -0.97605004180199995 1307.864216942  2246.360444596 -0.986404336903 1307.813617002  2246.355691841 -0.99181847122900002 1307.7804616440001  2246.352061991 -0.99590247019300004 1307.747020797  2246.3496190149999 -0.99863332008500005 1307.7133896570001  2246.3483967719999 -1 1307.6796582740001  2246.3483967719999 -1 1307.5939176540001  2246.351298217 -0.99675606210099998 1307.542034155  2246.357078391 -0.990293738516 1307.4905213219999  2246.3655600980001 -0.980668594369 1307.4396515890001  2246.3764110870002 -0.96797641287900005 1307.389738184  2246.404240848 -0.93411570954300005 1307.283918738  2246.4219890109998 -0.91181346866799995 1307.2284373299999  2246.441855176 -0.88568917966299998 1307.1748299339999  2246.4632319819998 -0.85586164856500002 1307.123265725  2246.485536272 -0.82244483829100001 1307.073949309  2246.5368506579998 -0.73897121351200001 1306.9679827120001  2246.566171679 -0.68670870486400004 1306.9126235010001  2246.5950909630001 -0.62890135899900002 1306.861517346  2246.6225757860002 -0.56567856871599997 1306.8152438540001  2246.647626895 -0.49721429693399999 1306.7745038850001  2246.6880256640002 -0.36004695877600001 1306.710326594  2246.7042617309999 -0.29241920984300002 1306.6852456300001  2246.7171077419998 -0.22167052440500001 1306.6657941870001  2246.725924549 -0.14870156165000001 1306.6525680520001  2246.7303627830001 -0.074482508640670006 1306.645910901  2246.7303627830001 -2.2e-16 1306.645910901 
 0 7 0.13081500431400001 5 0.27877462334899999 5 0.39839912103300001 5 0.43406343898600003 5 0.49961262741500001 5 0.60060167534599995 5 0.71954413936100003 5 0.86968025668799998 5 1 7
7 0 0  6 47 10  2246.7303627830001 -6.0000000000000001e-17 1306.645910901  2246.7303627830001 0.074899081900080003 1306.645910901  2246.7258747619999 0.14952930123399999 1306.6526427250001  2246.7169599529998 0.22288895042500001 1306.6660158970001  2246.7039751530001 0.29399327747699999 1306.6856796009999  2246.6875728119999 0.36192888177499999 1306.7110262179999  2246.6471911210001 0.49829199658599999 1306.7752192329999  2246.622439706 0.56582130427400001 1306.8154956000001  2246.5953231200001 0.628240951672 1306.861161351  2246.5668032150002 0.68538330084099996 1306.9115418010001  2246.5378734579999 0.73712330695399997 1306.966077546  2246.4867091729998 0.82067789517300005 1307.0713687089999  2246.4641992060001 0.85449914792500004 1307.120959244  2246.4426121930001 0.88468005643299996 1307.1728368730001  2246.4225431770001 0.91110518235600002 1307.2267928179999  2246.4046131079999 0.93365380619600002 1307.282654676  2246.3848838550002 0.95767011446399997 1307.3574777690001  2246.3805981559999 0.96282277578700004 1307.3748096930001  2246.376574508 0.96760710216900003 1307.3922812569999  2246.3728286270002 0.97201789106500003 1307.409883155  2246.3693753070002 0.97605004180199995 1307.427604859  2246.360444596 0.986404336903 1307.478204799  2246.355691841 0.99181847122900002 1307.5113601569999  2246.352061991 0.99590247019300004 1307.544801004  2246.3496190149999 0.99863332008500005 1307.5784321440001  2246.3483967719999 1 1307.6121635269999  2246.3483967719999 1 1307.6979041469999  2246.351298217 0.99675606210099998 1307.7497876469999  2246.357078391 0.990293738516 1307.801300479  2246.3655600980001 0.980668594369 1307.8521702119999  2246.3764110870002 0.96797641287900005 1307.902083617  2246.404240848 0.93411570954300005 1308.007903063  2246.4219890109998 0.91181346866799995 1308.0633844710001  2246.441855176 0.88568917966299998 1308.116991867  2246.4632319819998 0.85586164856500002 1308.168556076  2246.485536272 0.82244483829100001 1308.217872492  2246.5368506579998 0.73897121351200001 1308.3238390890001  2246.566171679 0.68670870486400004 1308.3791983000001  2246.5950909630001 0.62890135899900002 1308.4303044549999  2246.6225757860002 0.56567856871599997 1308.4765779469999  2246.647626895 0.49721429693399999 1308.5173179159999  2246.6880256640002 0.36004695877600001 1308.581495207  2246.7042617309999 0.29241920984300002 1308.6065761709999  2246.7171077419998 0.22167052440500001 1308.6260276139999  2246.725924549 0.14870156165000001 1308.6392537490001  2246.7303627830001 0.074482508640719994 1308.645910901  2246.7303627830001 1.2e-16 1308.645910901 
 0 7 0.13081500431400001 5 0.27877462334899999 5 0.39839912103300001 5 0.43406343898600003 5 0.49961262741500001 5 0.60060167534599995 5 0.71954413936100003 5 0.86968025668799998 5 1 7
2 2245.2303627830001 0 1299.645910901 0 0 1 1 0 -0 -0 1 0 1.5
2 2245.2303627830001 0 1309.645910901 0 0 1 1 0 -0 -0 1 0 7
7 0 1  6 91 19  2243.7303627830001 2.2e-16 1308.645910901  2243.7303627830001 -0.074899081908539999 1308.645910901  2243.734850803 -0.14952930123200001 1308.6391790759999  2243.7437656120001 -0.22288895041599999 1308.6258059039999  2243.7567504120002 -0.29399327747499998 1308.6061422  2243.773152754 -0.361928881782 1308.5807955830001  2243.8135344440002 -0.49829199658599999 1308.516602569  2243.8382858599998 -0.56582130427400001 1308.4763262009999  2243.8654024460002 -0.628240951672 1308.43066045  2243.8939223500001 -0.68538330084099996 1308.3802800010001  2243.9228521069999 -0.73712330695399997 1308.325744255  2243.9740163930001 -0.82067789517300005 1308.2204530920001  2243.9965263590002 -0.85449914792500004 1308.170862557  2244.0181133729998 -0.88468005643299996 1308.1189849279999  2244.0381823890002 -0.91110518235600002 1308.065028983  2244.0561124569999 -0.93365380619600002 1308.009167125  2244.0758417110001 -0.95767011446399997 1307.9343440319999  2244.0801274089999 -0.96282277578700004 1307.9170121080001  2244.0841510569999 -0.96760710216900003 1307.899540544  2244.0878969380001 -0.97201789106500003 1307.881938646  2244.0913502580001 -0.97605004180199995 1307.864216942  2244.1002809699999 -0.986404336903 1307.813617002  2244.1050337249999 -0.99181847122900002 1307.7804616440001  2244.1086635739998 -0.99590247019300004 1307.747020797  2244.1111065509999 -0.99863332008500005 1307.7133896570001  2244.1123287939999 -1 1307.6796582740001  2244.1123287939999 -1 1307.5939176540001  2244.1094273489998 -0.99675606210099998 1307.542034155  2244.1036471739999 -0.990293738516 1307.4905213219999  2244.0951654669998 -0.980668594369 1307.4396515890001  2244.0843144780001 -0.96797641287900005 1307.389738184  2244.0564847179999 -0.93411570954300005 1307.283918738  2244.038736555 -0.91181346866799995 1307.2284373299999  2244.0188703899998 -0.88568917966299998 1307.1748299339999  2243.997493584 -0.85586164856500002 1307.123265725  2243.9751892939998 -0.82244483829100001 1307.073949309  2243.923874908 -0.73897121351200001 1306.9679827120001  2243.8945538859998 -0.68670870486400004 1306.9126235010001  2243.8656346019998 -0.62890135899900002 1306.861517346  2243.8381497800001 -0.56567856871599997 1306.8152438540001  2243.8130986699998 -0.49721429693399999 1306.7745038850001  2243.7726999010001 -0.36004695877600001 1306.710326594  2243.756463834 -0.29241920984300002 1306.6852456300001  2243.743617824 -0.22167052440500001 1306.6657941870001  2243.7348010159999 -0.14870156165000001 1306.6525680520001  2243.7303627830001 -0.07448250864066 1306.645910901  2243.7303627830001 0.074899081899999997 1306.645910901  2243.734850803 0.14952930123399999 1306.6526427250001  2243.7437656120001 0.222888950424 1306.6660158970001  2243.7567504120002 0.29399327747699999 1306.6856796009999  2243.773152754 0.36192888177499999 1306.7110262179999  2243.8135344440002 0.49829199658599999 1306.7752192329999  2243.8382858599998 0.56582130427400001 1306.8154956000001  2243.8654024460002 0.628240951672 1306.861161351  2243.8939223500001 0.68538330084099996 1306.9115418010001  2243.9228521069999 0.73712330695399997 1306.966077546  2243.9740163930001 0.82067789517300005 1307.0713687089999  2243.9965263590002 0.85449914792500004 1307.120959244  2244.0181133729998 0.88468005643299996 1307.1728368730001  2244.0381823890002 0.91110518235600002 1307.2267928179999  2244.0561124569999 0.93365380619600002 1307.282654676  2244.0758417110001 0.95767011446399997 1307.3574777690001  2244.0801274089999 0.96282277578700004 1307.3748096930001  2244.0841510569999 0.96760710216900003 1307.3922812569999  2244.0878969380001 0.97201789106500003 1307.409883155  2244.0913502580001 0.97605004180199995 1307.427604859  2244.1002809699999 0.986404336903 1307.478204799  2244.1050337249999 0.99181847122900002 1307.5113601569999  2244.1086635739998 0.99590247019300004 1307.544801004  2244.1111065509999 0.99863332008500005 1307.5784321440001  2244.1123287939999 1 1307.6121635269999  2244.1123287939999 1 1307.6979041469999  2244.1094273489998 0.99675606210099998 1307.7497876469999  2244.1036471739999 0.990293738516 1307.801300479  2244.0951654669998 0.980668594369 1307.8521702119999  2244.0843144780001 0.96797641287900005 1307.902083617  2244.0564847179999 0.93411570954300005 1308.007903063  2244.038736555 0.91181346866799995 1308.0633844710001  2244.0188703899998 0.88568917966299998 1308.116991867  2243.997493584 0.85586164856500002 1308.168556076  2243.9751892939998 0.82244483829100001 1308.217872492  2243.923874908 0.73897121351200001 1308.3238390890001  2243.8945538859998 0.68670870486400004 1308.3791983000001  2243.8656346019998 0.62890135899900002 1308.4303044549999  2243.8381497800001 0.56567856871599997 1308.4765779469999  2243.8130986699998 0.49721429693399999 1308.5173179159999  2243.7726999010001 0.36004695877600001 1308.581495207  2243.756463834 0.29241920984300002 1308.6065761709999  2243.743617824 0.22167052440500001 1308.6260276139999  2243.7348010159999 0.14870156165000001 1308.6392537490001  2243.7303627830001 0.074482508640810005 1308.645910901 
 0 6 0.065349153160029996 5 0.13926296647 5 0.199021857759 5 0.21683810895 5 0.249583465473 5 0.300032944079 5 0.35945112274899998 5 0.434452214394 5 0.49955395796800001 5 0.56501980911600003 5 0.63906561484299995 5 0.69893122123899998 5 0.71677928800000001 5 0.74958311990799997 5 0.80012268923300001 5 0.85964697457899997 5 0.934782000261 5 1 6
1 2239.2303627830001 2.4e-16 1308.645910901 1 0 0 
1 2246.7303627830001 -3.7e-16 1298.645910901 0 0 1 
2 2245.2303627830001 0 1308.645910901 0 0 1 1 0 -0 -0 1 0 1.5
2 2245.2303627830001 0 1308.645910901 0 0 1 1 0 -0 -0 1 0 1.5
2 2245.2303627830001 0 1311.645910901 0 0 1 1 0 -0 -0 1 0 7
1 2252.2303627830001 -1.71e-15 1309.645910901 0 0 1 
Polygon3D 0
PolygonOnTriangulations 0
Surfaces 9
2 2245.2303627830001 0 1299.645910901 0 0 1 1 0 -0 -0 1 0 4
1 2245.2303627830001 0 1309.645910901 0 0 1 1 0 -0 -0 1 0 
2 2239.2303627830001 0 1307.645910901 1 0 0 0 0 1 0 -1 0 1
1 2245.2303627830001 0 1299.645910901 0 0 1 1 0 -0 -0 1 0 
2 2239.2303627830001 0 1307.645910901 1 0 0 0 0 1 0 -1 0 1
2 2245.2303627830001 0 1298.645910901 0 0 1 1 0 -0 -0 1 0 1.5
2 2245.2303627830001 0 1309.645910901 0 0 1 1 0 -0 -0 1 0 7
1 2245.2303627830001 0 1308.645910901 0 0 1 1 0 -0 -0 1 0 
1 2245.2303627830001 0 1311.645910901 0 0 1 1 0 -0 -0 1 0 
Triangulations 0

TShapes 54
Ve
1e-07
2249.230362783 0 1308.645910901
0 0

0101101
*
Ve
1e-07
2249.230362783 -1e-15 1309.645910901
0 0

0101101
*
Ed
 1e-07 1 1 0
1  1 0 9 10
3  1 2CN 1 0 9 10
0

0101000
+54 0 -53 0 *
Ed
 1e-07 1 1 0
1  2 0 0 6.28318530717959
2  3 1 0 0 6.28318530717959
4 C0 1 0 2 0
0

0101100
+53 0 -53 0 *
Ve
1e-07
2249.230362783 -1e-15 1306.645910901
0 0

0101101
*
Ed
 1e-07 1 1 0
1  3 0 0 1
2  4 1 0 0 1
2  5 3 0 0 1
4 C0 1 0 3 0
0

0101000
+50 0 -54 0 *
Ve
1e-07
2249.230362783 -1e-15 1299.645910901
0 0

0101101
*
Ed
 1e-07 1 1 0
1  4 0 0 7
3  6 7CN 1 0 0 7
0

0101000
+48 0 -50 0 *
Ed
 1e-07 1 1 0
1  5 0 0 6.28318530717959
2  8 1 0 0 6.28318530717959
4 C0 1 0 4 0
0

0101100
+48 0 -48 0 *
Ed
 1e-07 1 1 0
1  6 0 0 1
2  9 1 0 0 1
2  10 3 0 0 1
4 C0 1 0 3 0
0

0101000
+54 0 -50 0 *
Wi

0101100
+52 0 -51 0 -52 0 -49 0 -47 0 +46 0 +47 0 -45 0 *
Ve
1e-07
2241.230362783 0 1308.645910901
0 0

0101101
*
Ed
 1e-07 1 1 0
1  7 0 0 1
2  11 1 0 0 1
2  12 5 0 0 1
4 C0 1 0 5 0
0

0101100
+43 0 -43 0 *
Wi

0101100
+42 0 *
Fa
0  1e-07 1 0

0111000
+44 0 +41 0 *
Ve
1e-07
2246.730362783 0 1308.645910901
0 0

0101101
*
Ed
 1e-07 1 1 0
1  8 0 7.5 10
3  13 14CN 3 0 7.5 10
0

0101000
+39 0 -54 0 *
Ve
1e-07
2246.730362783 0 1306.645910901
0 0

0101101
*
Ed
 1e-07 1 1 0
1  9 0 0 1
2  15 3 0 0 1
2  16 6 0 0 1
4 C0 3 0 6 0
0

0101000
+39 0 -37 0 *
Ed
 1e-07 1 1 0
1  10 0 0 1
2  17 3 0 0 1
2  18 6 0 0 1
4 C0 3 0 6 0
0

0101000
+37 0 -39 0 *
Wi

0101100
-45 0 -38 0 +36 0 +35 0 +38 0 -49 0 *
Fa
0  1e-07 3 0

0111000
+34 0 *
Wi

0101100
+46 0 *
Ve
1e-07
2246.730362783 0 1299.645910901
0 0

0101101
*
Ed
 1e-07 1 1 0
1  11 0 0 6.28318530717959
2  19 6 0 0 6.28318530717959
4 C0 4 0 6 0
0

0101100
+31 0 -31 0 *
Wi

0101100
-30 0 *
Fa
0  1e-07 4 0

0111000
+32 0 +29 0 *
Ve
1e-07
2252.230362783 -2e-15 1309.645910901
0 0

0101101
*
Ed
 1e-07 1 1 0
1  12 0 0 6.28318530717959
2  20 7 0 0 6.28318530717959
4 C0 2 0 7 0
0

0101100
+27 0 -27 0 *
Wi

0101100
+26 0 *
Wi

0101100
-51 0 *
Fa
0  1e-07 2 0

0111000
+25 0 +24 0 *
Ve
1e-07
2243.730362783 1.9e-14 1308.645910901
0 0

0101101
*
Ed
 1e-07 1 1 0
1  13 0 0 1
2  21 5 0 0 1
2  22 6 0 0 1
4 C0 5 0 6 0
0

0101100
+22 0 -22 0 *
Ed
 1e-07 1 1 0
1  14 0 2 4.5
3  23 24CN 5 0 2 4.5
0

0101000
+43 0 -22 0 *
Wi

0101100
-21 0 -20 0 +42 0 +20 0 *
Fa
0  1e-07 5 0

0111000
+19 0 *
Ed
 1e-07 1 1 0
1  15 0 1 8
3  25 26CN 6 0 1 8
0

0101000
+31 0 -37 0 *
Ed
 1e-07 1 1 0
1  16 0 3.14159265358979 6.28318530717959
2  27 6 0 3.14159265358979 6.28318530717959
4 C0 6 0 8 0
0

0101000
+22 0 -39 0 *
Ed
 1e-07 1 1 0
1  17 0 0 3.14159265358979
2  28 6 0 0 3.14159265358979
4 C0 6 0 8 0
0

0101000
+39 0 -22 0 *
Wi

0101100
+30 0 +17 0 -36 0 -16 0 -15 0 -35 0 -17 0 *
Wi

0101100
+21 0 *
Fa
0  1e-07 6 0

0111000
+14 0 +13 0 *
Ve
1e-07
2252.230362783 -2e-15 1311.645910901
0 0

0101101
*
Ed
 1e-07 1 1 0
1  18 0 0 6.28318530717959
2  29 7 0 0 6.28318530717959
4 C0 7 0 9 0
0

0101100
+11 0 -11 0 *
Ed
 1e-07 1 1 0
1  19 0 0 2
3  30 31CN 7 0 0 2
0

0101000
+27 0 -11 0 *
Wi

0101100
-10 0 -9 0 +26 0 +9 0 *
Fa
0  1e-07 7 0

0111000
+8 0 *
Wi

0101100
+10 0 *
Fa
0  1e-07 9 0

0111000
+6 0 *
Wi

0101100
-15 0 -16 0 *
Fa
0  1e-07 8 0

0111000
-4 0 *
Sh

0101100
+40 0 -33 0 -28 0 -23 0 -18 0 -12 0 +7 0 +5 0 -3 0 *
So

0100000
+2 0 *

+1 0 