DBRep_DrawableShape

CASCADE Topology V1, (c) Matra-Datavision
Locations 5
1
              1               0               0               0 
              0               1               0               0 
              0               0               1               0 
1
              1               0               0               0 
              0               1               0               0 
              0               0               1               0 
2  2 -1 0
1
              1               0               0          8.4667 
              0               1               0               0 
              0               0               1               0 
2  2 -1 4 -1 0
Curve2ds 4
1 0 0 1 0 
1 0 73.025000000000006 1 0 
1 6.2831853071795862 -0 0 1 
1 0 -0 0 1 
Curves 21
1 -8.4666999999999994 10.998522628062371 0 1 0 0 
1 -8.4666999999999994 5.4992613140311866 9.5250000000000004 1 0 0 
1 -8.4666999999999994 10.998522628062371 0 0 -0.5 0.86602540378443871 
1 -8.4666999999999994 10.998522628062371 0 0 -0.5 0.86602540378443871 
1 -8.4666999999999994 5.4992613140311866 -9.5250000000000004 1 0 0 
1 -8.4666999999999994 5.4992613140311866 -9.5250000000000004 0 0.5 0.86602540378443871 
1 -8.4666999999999994 5.4992613140311866 -9.5250000000000004 0 0.5 0.86602540378443871 
1 -8.4666999999999994 -5.499261314031183 9.5250000000000004 1 0 0 
1 -8.4666999999999994 5.4992613140311866 9.5250000000000004 0 -1 0 
1 -8.4666999999999994 5.4992613140311866 9.5250000000000004 0 -1 0 
1 -8.4666999999999994 -5.499261314031183 9.5250000000000004 0 -0.50000000000000033 -0.8660254037844386 
1 -8.4666999999999994 -10.998522628062371 1.35e-15 0 0.49999999999999983 -0.86602540378443882 
1 -8.4666999999999994 -5.4992613140311901 -9.5249999999999968 0 1 -3.2000000000000002e-16 
1 -8.4666999999999994 -5.4992613140311901 -9.5249999999999968 0 1 -3.2000000000000002e-16 
1 -8.4666999999999994 -5.499261314031183 9.5250000000000004 0 -0.50000000000000033 -0.8660254037844386 
1 -8.4666999999999994 -10.998522628062371 1.35e-15 0 0.49999999999999983 -0.86602540378443882 
2 0 0 0 1 0 -0 0 0 1 0 -1 0 6.3499999999999996
1 -8.4666999999999994 -5.4992613140311901 -9.5249999999999968 1 0 0 
1 -8.4666999999999994 -10.998522628062371 1.35e-15 1 0 0 
2 73.025000000000006 0 0 1 0 -0 0 0 1 0 -1 0 6.3499999999999996
1 0 1.5599999999999999e-15 6.3499999999999996 1 0 0 
Polygon3D 0
PolygonOnTriangulations 0
Surfaces 10
1 -8.4666999999999994 10.998522628062371 0 0 -0.86602540378443871 -0.5 0 -0.5 0.86602540378443871 -1 -0 0 
1 -8.4666999999999994 5.4992613140311866 -9.5250000000000004 0 -0.86602540378443871 0.5 0 0.5 0.86602540378443871 -1 0 0 
1 -8.4666999999999994 5.4992613140311866 9.5250000000000004 0 0 -1 0 -1 0 -1 -0 -0 
1 -8.4666999999999977 5.4e-16 0 1 0 0 0 0 1 0 -1 0 
1 -8.4666999999999977 5.4e-16 0 1 0 0 0 0 1 0 -1 0 
2 0 0 0 1 0 0 0 0 1 0 -1 0 6.3499999999999996
1 -8.4666999999999994 -5.4992613140311901 -9.5249999999999968 0 3.2000000000000002e-16 1 0 1 -3.2000000000000002e-16 -1 0 0 
1 -8.4666999999999994 -5.499261314031183 9.5250000000000004 0 0.8660254037844386 -0.50000000000000033 0 -0.50000000000000022 -0.86602540378443849 -1 0 -0 
1 -8.4666999999999994 -10.998522628062371 1.35e-15 0 0.86602540378443882 0.49999999999999983 0 0.49999999999999983 -0.86602540378443882 -1 0 0 
1 73.025000000000006 0 0 1 0 0 0 0 1 0 -1 0 
Triangulations 0

TShapes 58
Ve
1e-07
-8.4667 10.9985226280624 0
0 0

0101101
*
Ve
1e-07
0 10.9985226280624 0
0 0

0101101
*
Ed
 1e-07 1 1 0
1  1 0 0 8.4667
0

0101000
+58 3 -57 3 *
Ve
1e-07
-8.4667 5.49926131403119 9.525
0 0

0101101
*
Ve
1e-07
0 5.49926131403119 9.525
0 0

0101101
*
Ed
 1e-07 1 1 0
1  2 0 0 8.4667
0

0101000
+55 3 -54 3 *
Ed
 1e-07 1 1 0
1  3 0 0 10.9985226280624
0

0101000
+58 3 -55 3 *
Ed
 1e-07 1 1 0
1  4 0 0 10.9985226280624
0

0101000
+57 5 -54 5 *
Wi

0101100
+56 0 -53 0 -52 0 +51 4 *
Fa
0  1e-07 1 0

0101000
+50 0 *
Ve
1e-07
-8.4667 5.49926131403119 -9.525
0 0

0101101
*
Ve
1e-07
0 5.49926131403119 -9.525
0 0

0101101
*
Ed
 1e-07 1 1 0
1  5 0 0 8.4667
0

0101000
+48 3 -47 3 *
Ed
 1e-07 1 1 0
1  6 0 0 10.9985226280624
0

0101000
+48 3 -58 3 *
Ed
 1e-07 1 1 0
1  7 0 0 10.9985226280624
0

0101000
+47 5 -57 5 *
Wi

0101100
+46 0 -56 0 -45 0 +44 4 *
Fa
0  1e-07 2 0

0101000
+43 0 *
Ve
1e-07
-8.4667 -5.49926131403118 9.525
0 0

0101101
*
Ve
1e-07
0 -5.49926131403118 9.525
0 0

0101101
*
Ed
 1e-07 1 1 0
1  8 0 0 8.4667
0

0101000
+41 3 -40 3 *
Ed
 1e-07 1 1 0
1  9 0 0 10.9985226280624
0

0101000
+55 3 -41 3 *
Ed
 1e-07 1 1 0
1  10 0 0 10.9985226280624
0

0101000
+54 5 -40 5 *
Wi

0101100
+53 0 -39 0 -38 0 +37 4 *
Fa
0  1e-07 3 0

0101000
+36 0 *
Ve
1e-07
-8.4667 -10.9985226280624 1e-15
0 0

0101101
*
Ed
 1e-07 1 1 0
1  11 0 0 10.9985226280624
0

0101000
+41 3 -34 3 *
Ve
1e-07
-8.4667 -5.49926131403119 -9.525
0 0

0101101
*
Ed
 1e-07 1 1 0
1  12 0 0 10.9985226280624
0

0101000
+34 3 -32 3 *
Ed
 1e-07 1 1 0
1  13 0 0 10.9985226280624
0

0101000
+32 3 -48 3 *
Wi

0101100
+52 0 +38 0 +33 0 +31 0 +30 0 +45 0 *
Fa
0  1e-07 4 0

0101000
+29 0 *
Ve
1e-07
0 -5.49926131403119 -9.525
0 0

0101101
*
Ed
 1e-07 1 1 0
1  14 0 0 10.9985226280624
0

0101000
+27 5 -47 5 *
Ve
1e-07
0 -10.9985226280624 1e-15
0 0

0101101
*
Ed
 1e-07 1 1 0
1  15 0 0 10.9985226280624
0

0101000
+40 5 -25 5 *
Ed
 1e-07 1 1 0
1  16 0 0 10.9985226280624
0

0101000
+25 5 -27 5 *
Wi

0101100
+51 4 +44 4 +37 4 +26 4 +24 4 +23 4 *
Ve
1.00000002e-07
0 2e-15 6.35
0 0

0101101
*
Ed
 1.00000002e-07 1 1 0
1  17 0 0 6.28318530717959
2  1 6 0 0 6.28318530717959
0

0101000
+21 3 -21 3 *
Wi

0101100
-20 0 *
Fa
0  1e-07 5 4

0101000
+22 0 +19 0 *
Ed
 1e-07 1 1 0
1  18 0 0 8.4667
0

0101000
+32 3 -27 3 *
Wi

0101100
+17 0 -46 0 -30 0 +26 4 *
Fa
0  1e-07 7 0

0101000
+16 0 *
Ed
 1e-07 1 1 0
1  19 0 0 8.4667
0

0101000
+34 3 -25 3 *
Wi

0101100
+39 0 -14 0 -33 0 +24 4 *
Fa
0  1e-07 8 0

0101000
+13 0 *
Wi

0101100
+14 0 -17 0 -31 0 +23 4 *
Fa
0  1e-07 9 0

0101000
+11 0 *
Ve
1e-07
73.025 2e-15 6.35
0 0

0101101
*
Ed
 1e-07 1 1 0
1  20 0 0 6.28318530717959
2  2 6 0 0 6.28318530717959
0

0101000
+9 3 -9 3 *
Ed
 1e-07 1 1 0
1  21 0 0 73.025
3  3 4CN 6 0 0 73.025
0

0101000
+21 3 -9 3 *
Wi

0101100
-8 0 +7 0 +20 0 -7 0 *
Fa
0  1e-07 6 0

0101000
+6 0 *
Wi

0101100
+8 0 *
Fa
0  1e-07 10 0

0101000
+4 0 *
Sh

0101100
-49 0 -42 0 -35 0 -28 0 +18 0 -15 0 -12 0 -10 0 +5 0 +3 0 
*
So

0100000
+2 0 *

+1 1 