DBRep_DrawableShape

CASCADE Topology V1, (c) Matra-Datavision
Locations 0
Curve2ds 84
1 0 15 1 0 
1 6.2831853071795862 0 0 1 
1 0 0 0 1 
1 0 0 1 0 
1 0 1 1 0 
1 0 1 1 0 
1 0 1 1 0 
1 0 1 1 0 
1 0 1 1 0 
1 0 1 1 0 
1 0 123.54199999999997 1 0 
1 0 1 1 0 
1 0 1 1 0 
1 0 16 1 0 
1 6.2831853071795862 0 0 1 
1 0 0 0 1 
1 0 16 1 0 
1 6.2831853071795862 0 0 1 
1 0 0 0 1 
1 0 16 1 0 
1 6.2831853071795862 0 0 1 
1 0 0 0 1 
1 0 16 1 0 
1 6.2831853071795862 0 0 1 
1 0 0 0 1 
1 0 16 1 0 
1 6.2831853071795862 0 0 1 
1 0 0 0 1 
1 0 16 1 0 
1 6.2831853071795862 0 0 1 
1 0 0 0 1 
1 0 16 1 0 
1 6.2831853071795862 0 0 1 
1 0 0 0 1 
1 0 16 1 0 
1 6.2831853071795862 0 0 1 
1 0 0 0 1 
1 6.2831853071795862 0 0 1 
1 0 0 0 1 
1 0 0 1 0 
1 -9.9920072216264089e-16 1 1 0 
1 -1.3322676295501878e-15 1 1 0 
1 -1.7763568394002505e-15 1 1 0 
1 -8.8817841970012523e-16 1 1 0 
1 0 1 1 0 
1 8.8817841970012523e-16 1 1 0 
1 1.3322676295501878e-15 1 1 0 
1 1.3322676295501878e-15 1 1 0 
1 4.4408920985006262e-16 1 1 0 
1 -2.2204460492503131e-16 1 1 0 
1 0 24 1 0 
1 6.2831853071795862 0 0 1 
1 0 0 0 1 
1 0 0 1 0 
1 0 115.54199999999997 1 0 
1 -2.7755575615628914e-17 115.54199999999997 1 0 
1 0 115.54199999999997 1 0 
1 0 115.54199999999997 1 0 
1 0 115.54199999999997 1 0 
1 -4.4408920985006262e-16 115.54199999999997 1 0 
1 -4.4408920985006262e-16 115.54199999999997 1 0 
1 0 115.54199999999997 1 0 
1 0 115.54199999999997 1 0 
1 0 115.54199999999997 1 0 
1 0.81099061896366076 0 0 1 
1 1.0739649731899812 0 0 1 
1 1.4393091496817811 0 0 1 
1 1.7022835039080122 0 0 1 
1 2.0676276803995641 0 0 1 
1 2.3306020346260303 0 0 1 
1 2.6959462111178181 0 0 1 
1 2.9589205653438677 0 0 1 
1 3.3242647418357185 0 0 1 
1 3.5872390960619591 0 0 1 
1 3.9525832725537504 0 0 1 
1 4.2155576267800559 0 0 1 
1 4.5809018032715922 0 0 1 
1 4.8438761574977871 0 0 1 
1 5.2092203339895713 0 0 1 
1 5.4721946882157315 0 0 1 
1 5.8375388647075113 0 0 1 
1 6.1005132189336928 0 0 1 
1 0.18267208824589365 0 0 1 
1 0.4456464424718839 0 0 1 
Curves 153
2 490 0 0 1 0 -0 0 0 1 0 -1 0 82.5
1 475 2.021e-14 82.5 1 0 0 
2 475 0 0 1 0 -0 0 0 1 0 -1 0 82.5
2 475 62.823808210768 -26.022473400820001 1 0 -0 0 0 1 0 -1 0 6.5
2 475 26.022473400826001 -62.823808210759999 1 0 -0 0 0 1 0 -1 0 6.5
2 475 62.823808210766998 26.022473400826001 1 0 -0 0 0 1 0 -1 0 6.5
2 475 26.022473400826001 62.823808210766998 1 0 -0 0 0 1 0 -1 0 6.5
2 475 -26.022473400820001 -62.823808210759999 1 0 -0 0 0 1 0 -1 0 6.5
2 475 -62.823808210759999 -26.022473400820001 1 0 -0 0 0 1 0 -1 0 6.5
2 475 0 0 1 0 -0 0 0 1 0 -1 0 46.5
2 475 -26.022473400820001 62.823808210766998 1 0 -0 0 0 1 0 -1 0 6.5
2 475 -62.823808210759999 26.022473400826001 1 0 -0 0 0 1 0 -1 0 6.5
2 490 62.823808210768 -26.022473400820001 1 0 -0 0 0 1 0 -1 0 6.5
1 474 62.823808210768 -19.522473400820001 1 0 0 
2 490 26.022473400826001 -62.823808210759999 1 0 -0 0 0 1 0 -1 0 6.5
1 474 26.022473400826001 -56.323808210759999 1 0 0 
2 490 62.823808210766998 26.022473400826001 1 0 -0 0 0 1 0 -1 0 6.5
1 474 62.823808210766998 32.522473400826001 1 0 0 
2 490 26.022473400826001 62.823808210766998 1 0 -0 0 0 1 0 -1 0 6.5
1 474 26.022473400826001 69.323808210767993 1 0 0 
2 490 -26.022473400820001 -62.823808210759999 1 0 -0 0 0 1 0 -1 0 6.5
1 474 -26.022473400820001 -56.323808210759999 1 0 0 
2 490 -62.823808210759999 -26.022473400820001 1 0 -0 0 0 1 0 -1 0 6.5
1 474 -62.823808210759999 -19.522473400820001 1 0 0 
2 490 -26.022473400820001 62.823808210766998 1 0 -0 0 0 1 0 -1 0 6.5
1 474 -26.022473400820001 69.323808210766998 1 0 0 
2 490 -62.823808210759999 26.022473400826001 1 0 -0 0 0 1 0 -1 0 6.5
1 474 -62.823808210759999 32.522473400826001 1 0 0 
1 351.45800000000003 1.1389999999999999e-14 46.5 1 0 0 
2 351.45800000000003 0 0 1 0 -0 0 0 1 0 -1 0 46.5
2 351.45800000000003 3.9020000000000001e-14 0 1 1.1e-16 -0 0 0 1 1.1e-16 -1 0 28.350000000000001
1 351.45800000000003 -11.910508219980001 7.6317048515839998 0 0.5877852522921384 -0.80901699437519059 
1 351.45800000000003 -18.107204655730001 29.303280781432999 0 -0.80901699437519059 -0.5877852522921384 
1 351.45800000000003 -3.5776331779219999 13.685892950195999 0 0.5877852522921384 -0.80901699437519059 
2 351.45800000000003 3.9020000000000001e-14 0 1 1.1e-16 -0 0 0 1 1.1e-16 -1 0 28.350000000000001
1 351.45800000000003 -5.1500000000000004 13.175000000000001 0 0 -1 
1 351.45800000000003 2.5750000000000002 34.350000000000001 0 -1 0 
1 351.45800000000003 5.1500000000000004 13.175000000000001 0 0 -1 
2 351.45800000000003 3.9020000000000001e-14 0 1 1.1e-16 -0 0 0 1 1.1e-16 -1 0 28.350000000000001
1 351.45800000000003 3.5776331779219999 13.685892950195999 0 -0.5877852522921384 -0.80901699437519059 
1 351.45800000000003 22.273642176761999 26.276186732126 0 -0.80901699437519059 0.5877852522921384 
1 351.45800000000003 11.910508219983999 7.6317048515839998 0 -0.5877852522921384 -0.80901699437519059 
2 351.45800000000003 3.9020000000000001e-14 0 1 1.1e-16 -0 0 0 1 1.1e-16 -1 0 28.350000000000001
1 351.45800000000003 10.938732081157999 8.9692399598100003 0 -0.95105651629512344 -0.3090169943750401 
1 351.45800000000003 33.464510095253999 8.1657632273189993 0 -0.3090169943750401 0.95105651629512344 
1 351.45800000000003 14.12160712322 -0.82664215802999996 0 -0.95105651629512344 -0.3090169943750401 
2 351.45800000000003 3.9020000000000001e-14 0 1 1.1e-16 -0 0 0 1 1.1e-16 -1 0 28.350000000000001
1 351.45800000000003 14.12160712322 0.82664215802999996 0 -0.95105651629512344 0.3090169943750401 
1 351.45800000000003 31.873072574222999 -13.063704286229999 0 0.3090169943750401 0.95105651629512344 
1 351.45800000000003 10.938732081157999 -8.9692399598100003 0 -0.95105651629512344 0.3090169943750401 
2 351.45800000000003 3.9020000000000001e-14 0 1 1.1e-16 -0 0 0 1 1.1e-16 -1 0 28.350000000000001
1 351.45800000000003 11.910508219983999 -7.6317048515839998 0 -0.5877852522921384 0.80901699437519059 
1 351.45800000000003 18.107204655731 -29.303280781430001 0 0.80901699437519059 0.5877852522921384 
1 351.45800000000003 3.5776331779219999 -13.68589295019 0 -0.5877852522921384 0.80901699437519059 
2 351.45800000000003 3.9020000000000001e-14 0 1 1.1e-16 -0 0 0 1 1.1e-16 -1 0 28.350000000000001
1 351.45800000000003 5.1500000000000004 -13.175000000000001 0 1.2e-16 1 
1 351.45800000000003 -2.5750000000000002 -34.350000000000001 0 1 -1.2e-16 
1 351.45800000000003 -5.1500000000000004 -13.175000000000001 0 1.2e-16 1 
2 351.45800000000003 3.9020000000000001e-14 0 1 1.1e-16 -0 0 0 1 1.1e-16 -1 0 28.350000000000001
1 351.45800000000003 -3.5776331779219999 -13.68589295019 0 0.5877852522921384 0.80901699437519059 
1 351.45800000000003 -22.273642176759999 -26.276186732119999 0 0.80901699437519059 -0.5877852522921384 
1 351.45800000000003 -11.910508219980001 -7.6317048515839998 0 0.5877852522921384 0.80901699437519059 
2 351.45800000000003 3.9020000000000001e-14 0 1 1.1e-16 -0 0 0 1 1.1e-16 -1 0 28.350000000000001
1 351.45800000000003 -10.93873208115 -8.9692399598100003 0 0.95105651629512344 0.3090169943750401 
1 351.45800000000003 -33.464510095249999 -8.1657632273189993 0 0.3090169943750401 -0.95105651629512344 
1 351.45800000000003 -14.12160712322 0.82664215802999996 0 0.95105651629512344 0.3090169943750401 
2 351.45800000000003 3.9020000000000001e-14 0 1 1.1e-16 -0 0 0 1 1.1e-16 -1 0 28.350000000000001
1 351.45800000000003 -14.12160712322 -0.82664215802999996 0 0.95105651629512344 -0.3090169943750401 
1 351.45800000000003 -31.87307257422 13.063704286239 0 -0.3090169943750401 -0.95105651629512344 
1 351.45800000000003 -10.93873208115 8.9692399598100003 0 0.95105651629512344 -0.3090169943750401 
2 490 0 0 1 0 -0 0 0 1 0 -1 0 40
1 466 9.7999999999999999e-15 40 1 0 0 
2 466 0 0 1 0 -0 0 0 1 0 -1 0 40
2 466 0 0 1 0 -0 0 0 1 0 -1 0 28.350000000000001
1 466 -19.65457891893 18.290503752473999 0 -0.5877852522921384 0.80901699437519059 
1 466 -16.02398589521 30.816827806086 0 -0.80901699437519059 -0.5877852522921384 
1 466 -11.32170387687 24.344691851086001 0 -0.5877852522921384 0.80901699437519059 
2 466 0 0 1 0 -0 0 0 1 0 -1 0 28.350000000000001
1 466 -5.1500000000000004 26.350000000000001 0 0 1 
1 466 5.1500000000000004 34.350000000000001 0 -1 0 
1 466 5.1500000000000004 26.350000000000001 0 0 1 
2 466 0 0 1 0 -0 0 0 1 0 -1 0 28.350000000000001
1 466 11.321703876876001 24.344691851086001 0 0.5877852522921384 0.80901699437519059 
1 466 24.356860937276998 24.762639707472999 0 -0.80901699437519059 0.5877852522921384 
1 466 19.654578918938 18.290503752473999 0 0.5877852522921384 0.80901699437519059 
2 466 0 0 1 0 -0 0 0 1 0 -1 0 28.350000000000001
1 466 23.468901683346001 13.0405388607 0 0.95105651629512344 0.3090169943750401 
1 466 34.260228855770002 5.7167926978589998 0 -0.3090169943750401 0.95105651629512344 
1 466 26.651776725407998 3.2446567428600002 0 0.95105651629512344 0.3090169943750401 
2 466 0 0 1 0 -0 0 0 1 0 -1 0 28.350000000000001
1 466 26.651776725407998 -3.2446567428600002 0 0.95105651629512344 -0.3090169943750401 
1 466 31.077353813708001 -15.51267481569 0 0.3090169943750401 0.95105651629512344 
1 466 23.468901683346001 -13.0405388607 0 0.95105651629512344 -0.3090169943750401 
2 466 0 0 1 0 -0 0 0 1 0 -1 0 28.350000000000001
1 466 19.654578918938 -18.290503752469998 0 0.5877852522921384 -0.80901699437519059 
1 466 16.023985895214999 -30.816827806079999 0 0.80901699437519059 0.5877852522921384 
1 466 11.321703876876001 -24.34469185108 0 0.5877852522921384 -0.80901699437519059 
2 466 0 0 1 0 -0 0 0 1 0 -1 0 28.350000000000001
1 466 5.1500000000000004 -26.350000000000001 0 0 -1 
1 466 -5.1500000000000004 -34.350000000000001 0 1 0 
1 466 -5.1500000000000004 -26.350000000000001 0 0 -1 
2 466 0 0 1 0 -0 0 0 1 0 -1 0 28.350000000000001
1 466 -11.32170387687 -24.34469185108 0 -0.5877852522921384 -0.80901699437519059 
1 466 -24.35686093727 -24.762639707470001 0 0.80901699437519059 -0.5877852522921384 
1 466 -19.65457891893 -18.290503752469998 0 -0.5877852522921384 -0.80901699437519059 
2 466 0 0 1 0 -0 0 0 1 0 -1 0 28.350000000000001
1 466 -23.46890168334 -13.0405388607 0 -0.95105651629512344 -0.3090169943750401 
1 466 -34.260228855770002 -5.7167926978589998 0 0.3090169943750401 -0.95105651629512344 
1 466 -26.651776725400001 -3.2446567428600002 0 -0.95105651629512344 -0.3090169943750401 
2 466 0 0 1 0 -0 0 0 1 0 -1 0 28.350000000000001
1 466 -26.651776725400001 3.2446567428600002 0 -0.95105651629512344 0.3090169943750401 
1 466 -31.0773538137 15.512674815699 0 -0.3090169943750401 -0.95105651629512344 
1 466 -23.46890168334 13.0405388607 0 -0.95105651629512344 0.3090169943750401 
1 350.45800000000003 -20.552895222 19.526930070883999 1 0 0 
1 350.45800000000003 -24.92240799436 13.512811689748 1 0 0 
1 350.45800000000003 -31.0773538137 15.512674815699 1 0 0 
1 350.45800000000003 -34.260228855770002 5.7167926978589998 1 0 0 
1 350.45800000000003 -28.105283036420001 3.716929571908 1 0 0 
1 350.45800000000003 -28.105283036420001 -3.716929571908 1 0 0 
1 350.45800000000003 -34.260228855770002 -5.7167926978589998 1 0 0 
1 350.45800000000003 -31.0773538137 -15.51267481569 1 0 0 
1 350.45800000000003 -24.92240799436 -13.512811689739999 1 0 0 
1 350.45800000000003 -20.552895222 -19.526930070879999 1 0 0 
1 350.45800000000003 -24.35686093727 -24.762639707470001 1 0 0 
1 350.45800000000003 -16.02398589521 -30.816827806079999 1 0 0 
1 350.45800000000003 -12.220020179940001 -25.581118169490001 1 0 0 
1 350.45800000000003 -5.1500000000000004 -27.878306978720001 1 0 0 
1 350.45800000000003 -5.1500000000000004 -34.350000000000001 1 0 0 
1 350.45800000000003 5.1500000000000004 -34.350000000000001 1 0 0 
1 350.45800000000003 5.1500000000000004 -27.878306978720001 1 0 0 
1 350.45800000000003 12.220020179945999 -25.581118169490001 1 0 0 
1 350.45800000000003 16.023985895214999 -30.816827806079999 1 0 0 
1 350.45800000000003 24.356860937276998 -24.762639707470001 1 0 0 
1 350.45800000000003 20.552895222008001 -19.526930070879999 1 0 0 
1 350.45800000000003 24.922407994362 -13.512811689739999 1 0 0 
1 350.45800000000003 31.077353813708001 -15.51267481569 1 0 0 
1 350.45800000000003 34.260228855770002 -5.7167926978589998 1 0 0 
1 350.45800000000003 28.105283036424002 -3.716929571908 1 0 0 
1 350.45800000000003 28.105283036424002 3.716929571908 1 0 0 
1 350.45800000000003 34.260228855770002 5.7167926978589998 1 0 0 
1 350.45800000000003 31.077353813708001 15.512674815699 1 0 0 
1 350.45800000000003 24.922407994362 13.512811689748 1 0 0 
1 350.45800000000003 20.552895222008001 19.526930070883999 1 0 0 
1 350.45800000000003 24.356860937276998 24.762639707472999 1 0 0 
1 350.45800000000003 16.023985895214999 30.816827806086 1 0 0 
1 350.45800000000003 12.220020179945999 25.581118169496001 1 0 0 
1 350.45800000000003 5.1500000000000004 27.878306978725 1 0 0 
1 350.45800000000003 5.1500000000000004 34.350000000000001 1 0 0 
1 350.45800000000003 -5.1500000000000004 34.350000000000001 1 0 0 
1 350.45800000000003 -5.1500000000000004 27.878306978725 1 0 0 
1 350.45800000000003 -12.220020179940001 25.581118169496001 1 0 0 
1 350.45800000000003 -16.02398589521 30.816827806086 1 0 0 
1 350.45800000000003 -24.35686093727 24.762639707472999 1 0 0 
Polygon3D 0
PolygonOnTriangulations 0
Surfaces 55
2 475 0 0 1 0 0 0 0 1 0 -1 0 82.5
1 490 0 0 1 0 0 0 0 1 0 -1 0 
1 475 0 0 1 0 0 0 0 1 0 -1 0 
2 474 62.823808210768 -26.022473400820001 1 0 0 0 0 1 0 -1 0 6.5
2 474 26.022473400826001 -62.823808210759999 1 0 0 0 0 1 0 -1 0 6.5
2 474 62.823808210766998 26.022473400826001 1 0 0 0 0 1 0 -1 0 6.5
2 474 26.022473400826001 62.823808210766998 1 0 0 0 0 1 0 -1 0 6.5
2 474 -26.022473400820001 -62.823808210759999 1 0 0 0 0 1 0 -1 0 6.5
2 474 -62.823808210759999 -26.022473400820001 1 0 0 0 0 1 0 -1 0 6.5
2 351.45800000000003 0 0 1 0 0 0 0 1 0 -1 0 46.5
2 474 -26.022473400820001 62.823808210766998 1 0 0 0 0 1 0 -1 0 6.5
2 474 -62.823808210759999 26.022473400826001 1 0 0 0 0 1 0 -1 0 6.5
1 351.45800000000003 0 0 1 0 0 0 0 1 0 -1 0 
2 350.45800000000003 0 0 1 0 0 0 0 1 0 -1 0 28.350000000000001
1 350.45800000000003 -19.65457891893 18.290503752473999 0 -0.80901699437519059 -0.5877852522921384 0 -0.5877852522921384 0.80901699437519059 -1 -0 0 
1 350.45800000000003 -16.02398589521 30.816827806086 0 -0.5877852522921384 0.80901699437519059 0 -0.80901699437519059 -0.5877852522921384 1 0 0 
1 350.45800000000003 -11.32170387687 24.344691851086001 0 -0.80901699437519059 -0.5877852522921384 0 -0.5877852522921384 0.80901699437519059 -1 -0 0 
2 350.45800000000003 0 0 1 0 0 0 0 1 0 -1 0 28.350000000000001
1 350.45800000000003 -5.1500000000000004 26.350000000000001 0 -1 0 0 0 1 -1 0 0 
1 350.45800000000003 5.1500000000000004 34.350000000000001 0 0 1 0 -1 0 1 0 -0 
1 350.45800000000003 5.1500000000000004 26.350000000000001 0 -1 0 0 0 1 -1 0 0 
2 350.45800000000003 0 0 1 0 0 0 0 1 0 -1 0 28.350000000000001
1 350.45800000000003 11.321703876876001 24.344691851086001 0 -0.80901699437519059 0.5877852522921384 0 0.5877852522921384 0.80901699437519059 -1 0 0 
1 350.45800000000003 24.356860937276998 24.762639707472999 0 0.5877852522921384 0.80901699437519059 0 -0.80901699437519059 0.5877852522921384 1 0 -0 
1 350.45800000000003 19.654578918938 18.290503752473999 0 -0.80901699437519059 0.5877852522921384 0 0.5877852522921384 0.80901699437519059 -1 0 0 
2 350.45800000000003 0 0 1 0 0 0 0 1 0 -1 0 28.350000000000001
1 350.45800000000003 23.468901683346001 13.0405388607 0 -0.3090169943750401 0.95105651629512344 0 0.95105651629512344 0.3090169943750401 -1 0 0 
1 350.45800000000003 34.260228855770002 5.7167926978589998 0 0.95105651629512344 0.3090169943750401 0 -0.3090169943750401 0.95105651629512344 1 0 -0 
1 350.45800000000003 26.651776725407998 3.2446567428600002 0 -0.3090169943750401 0.95105651629512344 0 0.95105651629512344 0.3090169943750401 -1 0 0 
2 350.45800000000003 0 0 1 0 0 0 0 1 0 -1 0 28.350000000000001
1 350.45800000000003 26.651776725407998 -3.2446567428600002 0 0.3090169943750401 0.95105651629512344 0 0.95105651629512344 -0.3090169943750401 -1 0 0 
1 350.45800000000003 31.077353813708001 -15.51267481569 0 0.95105651629512344 -0.3090169943750401 0 0.3090169943750401 0.95105651629512344 1 -0 0 
1 350.45800000000003 23.468901683346001 -13.0405388607 0 0.3090169943750401 0.95105651629512344 0 0.95105651629512344 -0.3090169943750401 -1 0 0 
2 350.45800000000003 0 0 1 0 0 0 0 1 0 -1 0 28.350000000000001
1 350.45800000000003 19.654578918938 -18.290503752469998 0 0.80901699437519059 0.5877852522921384 0 0.5877852522921384 -0.80901699437519059 -1 0 0 
1 350.45800000000003 16.023985895214999 -30.816827806079999 0 0.5877852522921384 -0.80901699437519059 0 0.80901699437519059 0.5877852522921384 1 -0 0 
1 350.45800000000003 11.321703876876001 -24.34469185108 0 0.80901699437519059 0.5877852522921384 0 0.5877852522921384 -0.80901699437519059 -1 0 0 
2 350.45800000000003 0 0 1 0 0 0 0 1 0 -1 0 28.350000000000001
1 350.45800000000003 5.1500000000000004 -26.350000000000001 0 1 0 0 0 -1 -1 0 0 
1 350.45800000000003 -5.1500000000000004 -34.350000000000001 0 0 -1 0 1 0 1 -0 0 
1 350.45800000000003 -5.1500000000000004 -26.350000000000001 0 1 0 0 0 -1 -1 0 0 
2 350.45800000000003 0 0 1 0 0 0 0 1 0 -1 0 28.350000000000001
1 350.45800000000003 -11.32170387687 -24.34469185108 0 0.80901699437519059 -0.5877852522921384 0 -0.5877852522921384 -0.80901699437519059 -1 0 -0 
1 350.45800000000003 -24.35686093727 -24.762639707470001 0 -0.5877852522921384 -0.80901699437519059 0 0.80901699437519059 -0.5877852522921384 1 0 0 
1 350.45800000000003 -19.65457891893 -18.290503752469998 0 0.80901699437519059 -0.5877852522921384 0 -0.5877852522921384 -0.80901699437519059 -1 0 -0 
2 350.45800000000003 0 0 1 0 0 0 0 1 0 -1 0 28.350000000000001
1 350.45800000000003 -23.46890168334 -13.0405388607 0 0.3090169943750401 -0.95105651629512344 0 -0.95105651629512344 -0.3090169943750401 -1 0 -0 
1 350.45800000000003 -34.260228855770002 -5.7167926978589998 0 -0.95105651629512344 -0.3090169943750401 0 0.3090169943750401 -0.95105651629512344 1 0 0 
1 350.45800000000003 -26.651776725400001 -3.2446567428600002 0 0.3090169943750401 -0.95105651629512344 0 -0.95105651629512344 -0.3090169943750401 -1 0 -0 
2 350.45800000000003 0 0 1 0 0 0 0 1 0 -1 0 28.350000000000001
1 350.45800000000003 -26.651776725400001 3.2446567428600002 0 -0.3090169943750401 -0.95105651629512344 0 -0.95105651629512344 0.3090169943750401 -1 -0 0 
1 350.45800000000003 -31.0773538137 15.512674815699 0 -0.95105651629512344 0.3090169943750401 0 -0.3090169943750401 -0.95105651629512344 1 0 0 
1 350.45800000000003 -23.46890168334 13.0405388607 0 -0.3090169943750401 -0.95105651629512344 0 -0.95105651629512344 0.3090169943750401 -1 -0 0 
2 466 0 0 1 0 0 0 0 1 0 -1 0 40
1 466 0 0 1 0 0 0 0 1 0 -1 0 
Triangulations 0

TShapes 387
Ve
1e-07
490 2e-14 82.5
0 0

0101101
*
Ed
 1e-07 1 1 0
1  1 0 0 6.28318530717959
2  1 1 0 0 6.28318530717959
4 C0 1 0 2 0
0

0101100
+387 0 -387 0 *
Ve
1e-07
475 2e-14 82.5
0 0

0101101
*
Ed
 1e-07 1 1 0
1  2 0 0 15
3  2 3CN 1 0 0 15
0

0101000
+385 0 -387 0 *
Ed
 1e-07 1 1 0
1  3 0 0 6.28318530717959
2  4 1 0 0 6.28318530717959
4 C0 1 0 3 0
0

0101100
+385 0 -385 0 *
Wi

0101100
-386 0 -384 0 +383 0 +384 0 *
Fa
0  1e-07 1 0

0111000
+382 0 *
Wi

0101100
+383 0 *
Ve
1e-07
475 62.823808210768 -19.52247340082
0 0

0101101
*
Ed
 1e-07 1 1 0
1  4 0 0 6.28318530717959
2  5 4 0 0 6.28318530717959
4 C0 3 0 4 0
0

0101100
+379 0 -379 0 *
Wi

0101100
-378 0 *
Ve
1e-07
475 26.022473400826 -56.32380821076
0 0

0101101
*
Ed
 1e-07 1 1 0
1  5 0 0 6.28318530717959
2  6 5 0 0 6.28318530717959
4 C0 3 0 5 0
0

0101100
+376 0 -376 0 *
Wi

0101100
-375 0 *
Ve
1e-07
475 62.823808210767 32.522473400826
0 0

0101101
*
Ed
 1e-07 1 1 0
1  6 0 0 6.28318530717959
2  7 6 0 0 6.28318530717959
4 C0 3 0 6 0
0

0101100
+373 0 -373 0 *
Wi

0101100
-372 0 *
Ve
1e-07
475 26.022473400826 69.323808210768
0 0

0101101
*
Ed
 1e-07 1 1 0
1  7 0 0 6.28318530717959
2  8 7 0 0 6.28318530717959
4 C0 3 0 7 0
0

0101100
+370 0 -370 0 *
Wi

0101100
-369 0 *
Ve
1e-07
475 -26.02247340082 -56.32380821076
0 0

0101101
*
Ed
 1e-07 1 1 0
1  8 0 0 6.28318530717959
2  9 8 0 0 6.28318530717959
4 C0 3 0 8 0
0

0101100
+367 0 -367 0 *
Wi

0101100
-366 0 *
Ve
1e-07
475 -62.82380821076 -19.52247340082
0 0

0101101
*
Ed
 1e-07 1 1 0
1  9 0 0 6.28318530717959
2  10 9 0 0 6.28318530717959
4 C0 3 0 9 0
0

0101100
+364 0 -364 0 *
Wi

0101100
-363 0 *
Ve
1e-07
475 1.1e-14 46.5
0 0

0101101
*
Ed
 1e-07 1 1 0
1  10 0 0 6.28318530717959
2  11 10 0 0 6.28318530717959
4 C0 3 0 10 0
0

0101100
+361 0 -361 0 *
Wi

0101100
-360 0 *
Ve
1e-07
475 -26.02247340082 69.323808210767
0 0

0101101
*
Ed
 1e-07 1 1 0
1  11 0 0 6.28318530717959
2  12 11 0 0 6.28318530717959
4 C0 3 0 11 0
0

0101100
+358 0 -358 0 *
Wi

0101100
-357 0 *
Ve
1e-07
475 -62.82380821076 32.522473400826
0 0

0101101
*
Ed
 1e-07 1 1 0
1  12 0 0 6.28318530717959
2  13 12 0 0 6.28318530717959
4 C0 3 0 12 0
0

0101100
+355 0 -355 0 *
Wi

0101100
-354 0 *
Fa
0  1e-07 3 0

0111000
+380 0 +377 0 +374 0 +371 0 +368 0 +365 0 +362 0 +359 0 +356 0 +353 0 
*
Ve
1e-07
490 62.823808210768 -19.52247340082
0 0

0101101
*
Ed
 1e-07 1 1 0
1  13 0 0 6.28318530717959
2  14 4 0 0 6.28318530717959
4 C0 4 0 2 0
0

0101100
+351 0 -351 0 *
Ed
 1e-07 1 1 0
1  14 0 1 16
3  15 16CN 4 0 1 16
0

0101000
+379 0 -351 0 *
Wi

0101100
-350 0 -349 0 +378 0 +349 0 *
Fa
0  1e-07 4 0

0111000
+348 0 *
Ve
1e-07
490 26.022473400826 -56.32380821076
0 0

0101101
*
Ed
 1e-07 1 1 0
1  15 0 0 6.28318530717959
2  17 5 0 0 6.28318530717959
4 C0 5 0 2 0
0

0101100
+346 0 -346 0 *
Ed
 1e-07 1 1 0
1  16 0 1 16
3  18 19CN 5 0 1 16
0

0101000
+376 0 -346 0 *
Wi

0101100
-345 0 -344 0 +375 0 +344 0 *
Fa
0  1e-07 5 0

0111000
+343 0 *
Ve
1e-07
490 62.823808210767 32.522473400826
0 0

0101101
*
Ed
 1e-07 1 1 0
1  17 0 0 6.28318530717959
2  20 6 0 0 6.28318530717959
4 C0 6 0 2 0
0

0101100
+341 0 -341 0 *
Ed
 1e-07 1 1 0
1  18 0 1 16
3  21 22CN 6 0 1 16
0

0101000
+373 0 -341 0 *
Wi

0101100
-340 0 -339 0 +372 0 +339 0 *
Fa
0  1e-07 6 0

0111000
+338 0 *
Ve
1e-07
490 26.022473400826 69.323808210768
0 0

0101101
*
Ed
 1e-07 1 1 0
1  19 0 0 6.28318530717959
2  23 7 0 0 6.28318530717959
4 C0 7 0 2 0
0

0101100
+336 0 -336 0 *
Ed
 1e-07 1 1 0
1  20 0 1 16
3  24 25CN 7 0 1 16
0

0101000
+370 0 -336 0 *
Wi

0101100
-335 0 -334 0 +369 0 +334 0 *
Fa
0  1e-07 7 0

0111000
+333 0 *
Ve
1e-07
490 -26.02247340082 -56.32380821076
0 0

0101101
*
Ed
 1e-07 1 1 0
1  21 0 0 6.28318530717959
2  26 8 0 0 6.28318530717959
4 C0 8 0 2 0
0

0101100
+331 0 -331 0 *
Ed
 1e-07 1 1 0
1  22 0 1 16
3  27 28CN 8 0 1 16
0

0101000
+367 0 -331 0 *
Wi

0101100
-330 0 -329 0 +366 0 +329 0 *
Fa
0  1e-07 8 0

0111000
+328 0 *
Ve
1e-07
490 -62.82380821076 -19.52247340082
0 0

0101101
*
Ed
 1e-07 1 1 0
1  23 0 0 6.28318530717959
2  29 9 0 0 6.28318530717959
4 C0 9 0 2 0
0

0101100
+326 0 -326 0 *
Ed
 1e-07 1 1 0
1  24 0 1 16
3  30 31CN 9 0 1 16
0

0101000
+364 0 -326 0 *
Wi

0101100
-325 0 -324 0 +363 0 +324 0 *
Fa
0  1e-07 9 0

0111000
+323 0 *
Ve
1e-07
490 -26.02247340082 69.323808210767
0 0

0101101
*
Ed
 1e-07 1 1 0
1  25 0 0 6.28318530717959
2  32 11 0 0 6.28318530717959
4 C0 11 0 2 0
0

0101100
+321 0 -321 0 *
Ed
 1e-07 1 1 0
1  26 0 1 16
3  33 34CN 11 0 1 16
0

0101000
+358 0 -321 0 *
Wi

0101100
-320 0 -319 0 +357 0 +319 0 *
Fa
0  1e-07 11 0

0111000
+318 0 *
Ve
1e-07
490 -62.82380821076 32.522473400826
0 0

0101101
*
Ed
 1e-07 1 1 0
1  27 0 0 6.28318530717959
2  35 12 0 0 6.28318530717959
4 C0 12 0 2 0
0

0101100
+316 0 -316 0 *
Ed
 1e-07 1 1 0
1  28 0 1 16
3  36 37CN 12 0 1 16
0

0101000
+355 0 -316 0 *
Wi

0101100
-315 0 -314 0 +354 0 +314 0 *
Fa
0  1e-07 12 0

0111000
+313 0 *
Ve
1e-07
351.458 1.1e-14 46.5
0 0

0101101
*
Ed
 1e-07 1 1 0
1  29 0 0 123.542
3  38 39CN 10 0 0 123.542
0

0101000
+311 0 -361 0 *
Ed
 1e-07 1 1 0
1  30 0 0 6.28318530717959
2  40 10 0 0 6.28318530717959
4 C0 10 0 13 0
0

0101100
+311 0 -311 0 *
Wi

0101100
-360 0 -310 0 +309 0 +310 0 *
Fa
0  1e-07 10 0

0111000
+308 0 *
Wi

0101100
+309 0 *
Ve
1e-07
351.458 -20.552895222 19.526930070884
0 0

0101101
*
Ve
1e-07
351.458 -24.92240799436 13.512811689748
0 0

0101101
*
Ed
 1e-07 1 1 0
1  31 0 0.810990618963662 1.07396497318998
2  41 14 0 0.810990618963662 1.07396497318998
4 C0 13 0 14 0
0

0101000
+305 0 -304 0 *
Ve
1e-07
351.458 -24.35686093727 24.762639707473
0 0

0101101
*
Ed
 1e-07 1 1 0
1  32 0 -21.1749999999978 -14.7033069787227
4 C0 13 0 15 0
0

0101000
+302 0 -305 0 *
Ve
1e-07
351.458 -16.02398589521 30.816827806086
0 0

0101101
*
Ed
 1e-07 1 1 0
1  33 0 -2.57500000000358 7.72499999999514
4 C0 13 0 16 0
0

0101000
+300 0 -302 0 *
Ve
1e-07
351.458 -12.22002017994 25.581118169496
0 0

0101101
*
Ed
 1e-07 1 1 0
1  34 0 -21.1749999999974 -14.7033069787215
4 C0 13 0 17 0
0

0101000
+300 0 -298 0 *
Ve
1e-07
351.458 -5.15 27.878306978725
0 0

0101101
*
Ed
 1e-07 1 1 0
1  35 0 0.182672088245895 0.445646442471885
2  42 18 0 0.182672088245895 0.445646442471885
4 C0 13 0 18 0
0

0101000
+296 0 -298 0 *
Ve
1e-07
351.458 -5.15 34.35
0 0

0101101
*
Ed
 1e-07 1 1 0
1  36 0 -21.175 -14.703306978725
4 C0 13 0 19 0
0

0101000
+294 0 -296 0 *
Ve
1e-07
351.458 5.15 34.35
0 0

0101101
*
Ed
 1e-07 1 1 0
1  37 0 -2.575 7.725
4 C0 13 0 20 0
0

0101000
+292 0 -294 0 *
Ve
1e-07
351.458 5.15 27.878306978725
0 0

0101101
*
Ed
 1e-07 1 1 0
1  38 0 -21.175 -14.703306978725
4 C0 13 0 21 0
0

0101000
+292 0 -290 0 *
Ve
1e-07
351.458 12.220020179946 25.581118169496
0 0

0101101
*
Ed
 1e-07 1 1 0
1  39 0 5.83753886470751 6.10051321893369
2  43 22 0 5.83753886470751 6.10051321893369
4 C0 13 0 22 0
0

0101000
+288 0 -290 0 *
Ve
1e-07
351.458 16.023985895216 30.816827806086
0 0

0101101
*
Ed
 1e-07 1 1 0
1  40 0 -21.1750000000009 -14.703306978725
4 C0 13 0 23 0
0

0101000
+286 0 -288 0 *
Ve
1e-07
351.458 24.356860937277 24.762639707473
0 0

0101101
*
Ed
 1e-07 1 1 0
1  41 0 -2.57499999999953 7.725
4 C0 13 0 24 0
0

0101000
+284 0 -286 0 *
Ve
1e-07
351.458 20.552895222008 19.526930070884
0 0

0101101
*
Ed
 1e-07 1 1 0
1  42 0 -21.1749999999995 -14.703306978725
4 C0 13 0 25 0
0

0101000
+284 0 -282 0 *
Ve
1e-07
351.458 24.922407994362 13.512811689748
0 0

0101101
*
Ed
 1e-07 1 1 0
1  43 0 5.20922033398957 5.47219468821573
2  44 26 0 5.20922033398957 5.47219468821573
4 C0 13 0 26 0
0

0101000
+280 0 -282 0 *
Ve
1e-07
351.458 31.077353813708 15.512674815699
0 0

0101101
*
Ed
 1e-07 1 1 0
1  44 0 -21.175 -14.7033069787247
4 C0 13 0 27 0
0

0101000
+278 0 -280 0 *
Ve
1e-07
351.458 34.26022885577 5.716792697859
0 0

0101101
*
Ed
 1e-07 1 1 0
1  45 0 -2.57500000000014 7.7249999999998
4 C0 13 0 28 0
0

0101000
+276 0 -278 0 *
Ve
1e-07
351.458 28.105283036424 3.716929571908
0 0

0101101
*
Ed
 1e-07 1 1 0
1  46 0 -21.175 -14.7033069787247
4 C0 13 0 29 0
0

0101000
+276 0 -274 0 *
Ve
1e-07
351.458 28.105283036424 -3.716929571908
0 0

0101101
*
Ed
 1e-07 1 1 0
1  47 0 4.58090180327159 4.84387615749779
2  45 30 0 4.58090180327159 4.84387615749779
4 C0 13 0 30 0
0

0101000
+272 0 -274 0 *
Ve
1e-07
351.458 34.26022885577 -5.716792697859
0 0

0101101
*
Ed
 1e-07 1 1 0
1  48 0 -21.175 -14.7033069787247
4 C0 13 0 31 0
0

0101000
+270 0 -272 0 *
Ve
1e-07
351.458 31.077353813708 -15.51267481569
0 0

0101101
*
Ed
 1e-07 1 1 0
1  49 0 -2.57499999999983 7.72499999999155
4 C0 13 0 32 0
0

0101000
+268 0 -270 0 *
Ve
1e-07
351.458 24.922407994362 -13.51281168974
0 0

0101101
*
Ed
 1e-07 1 1 0
1  50 0 -21.1749999999972 -14.7033069787222
4 C0 13 0 33 0
0

0101000
+268 0 -266 0 *
Ve
1e-07
351.458 20.552895222008 -19.52693007088
0 0

0101101
*
Ed
 1e-07 1 1 0
1  51 0 3.95258327255375 4.21555762678006
2  46 34 0 3.95258327255375 4.21555762678006
4 C0 13 0 34 0
0

0101000
+264 0 -266 0 *
Ve
1e-07
351.458 24.356860937277 -24.76263970747
0 0

0101101
*
Ed
 1e-07 1 1 0
1  52 0 -21.1749999999971 -14.7033069787218
4 C0 13 0 35 0
0

0101000
+262 0 -264 0 *
Ve
1e-07
351.458 16.023985895216 -30.81682780608
0 0

0101101
*
Ed
 1e-07 1 1 0
1  53 0 -2.57499999999777 7.725
4 C0 13 0 36 0
0

0101000
+260 0 -262 0 *
Ve
1e-07
351.458 12.220020179946 -25.58111816949
0 0

0101101
*
Ed
 1e-07 1 1 0
1  54 0 -21.1750000000009 -14.703306978725
4 C0 13 0 37 0
0

0101000
+260 0 -258 0 *
Ve
1e-07
351.458 5.15 -27.87830697872
0 0

0101101
*
Ed
 1e-07 1 1 0
1  55 0 3.32426474183572 3.58723909606196
2  47 38 0 3.32426474183572 3.58723909606196
4 C0 13 0 38 0
0

0101000
+256 0 -258 0 *
Ve
1e-07
351.458 5.15 -34.35
0 0

0101101
*
Ed
 1e-07 1 1 0
1  56 0 -21.175 -14.70330697872
4 C0 13 0 39 0
0

0101000
+254 0 -256 0 *
Ve
1e-07
351.458 -5.15 -34.35
0 0

0101101
*
Ed
 1e-07 1 1 0
1  57 0 -2.575 7.725
4 C0 13 0 40 0
0

0101000
+252 0 -254 0 *
Ve
1e-07
351.458 -5.15 -27.87830697872
0 0

0101101
*
Ed
 1e-07 1 1 0
1  58 0 -21.175 -14.70330697872
4 C0 13 0 41 0
0

0101000
+252 0 -250 0 *
Ve
1e-07
351.458 -12.22002017994 -25.58111816949
0 0

0101101
*
Ed
 1e-07 1 1 0
1  59 0 2.69594621111782 2.95892056534387
2  48 42 0 2.69594621111782 2.95892056534387
4 C0 13 0 42 0
0

0101000
+248 0 -250 0 *
Ve
1e-07
351.458 -16.02398589521 -30.81682780608
0 0

0101101
*
Ed
 1e-07 1 1 0
1  60 0 -21.1749999999974 -14.7033069787215
4 C0 13 0 43 0
0

0101000
+246 0 -248 0 *
Ve
1e-07
351.458 -24.35686093727 -24.76263970747
0 0

0101101
*
Ed
 1e-07 1 1 0
1  61 0 -2.57499999999373 7.72500000000324
4 C0 13 0 44 0
0

0101000
+244 0 -246 0 *
Ve
1e-07
351.458 -20.552895222 -19.52693007088
0 0

0101101
*
Ed
 1e-07 1 1 0
1  62 0 -21.1749999999953 -14.7033069787194
4 C0 13 0 45 0
0

0101000
+244 0 -242 0 *
Ve
1e-07
351.458 -24.92240799436 -13.51281168974
0 0

0101101
*
Ed
 1e-07 1 1 0
1  63 0 2.06762768039956 2.33060203462603
2  49 46 0 2.06762768039956 2.33060203462603
4 C0 13 0 46 0
0

0101000
+240 0 -242 0 *
Ve
1e-07
351.458 -31.0773538137 -15.51267481569
0 0

0101101
*
Ed
 1e-07 1 1 0
1  64 0 -21.1749999999972 -14.7033069787279
4 C0 13 0 47 0
0

0101000
+238 0 -240 0 *
Ve
1e-07
351.458 -34.26022885576 -5.716792697859
0 0

0101101
*
Ed
 1e-07 1 1 0
1  65 0 -2.57499999999828 7.72499999999247
4 C0 13 0 48 0
0

0101000
+236 0 -238 0 *
Ve
1e-07
351.458 -28.10528303642 -3.716929571908
0 0

0101101
*
Ed
 1e-07 1 1 0
1  66 0 -21.1749999999904 -14.7033069787209
4 C0 13 0 49 0
0

0101000
+236 0 -234 0 *
Ve
1e-07
351.458 -28.10528303642 3.716929571908
0 0

0101101
*
Ed
 1e-07 1 1 0
1  67 0 1.43930914968178 1.70228350390801
2  50 50 0 1.43930914968178 1.70228350390801
4 C0 13 0 50 0
0

0101000
+232 0 -234 0 *
Ve
1e-07
351.458 -34.26022885576 5.716792697859
0 0

0101101
*
Ed
 1e-07 1 1 0
1  68 0 -21.1749999999904 -14.7033069787209
4 C0 13 0 51 0
0

0101000
+230 0 -232 0 *
Ve
1e-07
351.458 -31.0773538137 15.512674815699
0 0

0101101
*
Ed
 1e-07 1 1 0
1  69 0 -2.57500000000137 7.72499999999794
4 C0 13 0 52 0
0

0101000
+228 0 -230 0 *
Ed
 1e-07 1 1 0
1  70 0 -21.175 -14.7033069787304
4 C0 13 0 53 0
0

0101000
+228 0 -304 0 *
Wi

0101100
-303 0 -301 0 -299 0 +297 0 -295 0 -293 0 -291 0 +289 0 -287 0 -285 0 
-283 0 +281 0 -279 0 -277 0 -275 0 +273 0 -271 0 -269 0 -267 0 +265 0 
-263 0 -261 0 -259 0 +257 0 -255 0 -253 0 -251 0 +249 0 -247 0 -245 0 
-243 0 +241 0 -239 0 -237 0 -235 0 +233 0 -231 0 -229 0 -227 0 +226 0 
*
Fa
0  1e-07 13 0

0111000
+306 0 +225 0 *
Ve
1e-07
490 1e-14 40
0 0

0101101
*
Ed
 1e-07 1 1 0
1  71 0 0 6.28318530717959
2  51 54 0 0 6.28318530717959
4 C0 54 0 2 0
0

0101100
+223 0 -223 0 *
Ve
1e-07
466 1e-14 40
0 0

0101101
*
Ed
 1e-07 1 1 0
1  72 0 0 24
3  52 53CN 54 0 0 24
0

0101000
+221 0 -223 0 *
Ed
 1e-07 1 1 0
1  73 0 0 6.28318530717959
2  54 54 0 0 6.28318530717959
4 C0 54 0 55 0
0

0101100
+221 0 -221 0 *
Wi

0101100
-222 0 -220 0 +219 0 +220 0 *
Fa
0  1e-07 54 0

0111000
+218 0 *
Wi

0101100
+219 0 *
Ve
1e-07
466 -20.552895222 19.526930070883
0 0

0101101
*
Ve
1e-07
466 -24.92240799436 13.512811689747
0 0

0101101
*
Ed
 1e-07 1 1 0
1  74 0 0.810990618963686 1.07396497319001
2  55 14 0 0.810990618963686 1.07396497319001
4 C0 55 0 14 0
0

0101000
+215 0 -214 0 *
Ve
1e-07
466 -24.35686093727 24.762639707473
0 0

0101101
*
Ed
 1e-07 1 1 0
1  75 0 1.52830697872377 7.99999999999966
4 C0 55 0 15 0
0

0101000
+215 0 -212 0 *
Ve
1e-07
466 -16.02398589521 30.816827806086
0 0

0101101
*
Ed
 1e-07 1 1 0
1  76 0 0 10.2999999999987
4 C0 55 0 16 0
0

0101000
+210 0 -212 0 *
Ve
1e-07
466 -12.22002017994 25.581118169496
0 0

0101101
*
Ed
 1e-07 1 1 0
1  77 0 1.52830697872458 8.00000000000047
4 C0 55 0 17 0
0

0101000
+208 0 -210 0 *
Ve
1e-07
466 -5.15 27.878306978725
0 0

0101101
*
Ed
 1e-07 1 1 0
1  78 0 0.182672088245894 0.445646442471884
2  56 18 0 0.182672088245894 0.445646442471884
4 C0 55 0 18 0
0

0101000
+206 0 -208 0 *
Ve
1e-07
466 -5.15 34.35
0 0

0101101
*
Ed
 1e-07 1 1 0
1  79 0 1.528306978725 8
4 C0 55 0 19 0
0

0101000
+206 0 -204 0 *
Ve
1e-07
466 5.15 34.35
0 0

0101101
*
Ed
 1e-07 1 1 0
1  80 0 0 10.3
4 C0 55 0 20 0
0

0101000
+202 0 -204 0 *
Ve
1e-07
466 5.15 27.878306978725
0 0

0101101
*
Ed
 1e-07 1 1 0
1  81 0 1.528306978725 8
4 C0 55 0 21 0
0

0101000
+200 0 -202 0 *
Ve
1e-07
466 12.220020179946 25.581118169496
0 0

0101101
*
Ed
 1e-07 1 1 0
1  82 0 5.83753886470751 6.10051321893369
2  57 22 0 5.83753886470751 6.10051321893369
4 C0 55 0 22 0
0

0101000
+198 0 -200 0 *
Ve
1e-07
466 16.023985895216 30.816827806086
0 0

0101101
*
Ed
 1e-07 1 1 0
1  83 0 1.52830697872458 8.00000000000047
4 C0 55 0 23 0
0

0101000
+198 0 -196 0 *
Ve
1e-07
466 24.356860937277 24.762639707473
0 0

0101101
*
Ed
 1e-07 1 1 0
1  84 0 0 10.2999999999995
4 C0 55 0 24 0
0

0101000
+194 0 -196 0 *
Ve
1e-07
466 20.552895222008 19.526930070883
0 0

0101101
*
Ed
 1e-07 1 1 0
1  85 0 1.52830697872377 7.99999999999907
4 C0 55 0 25 0
0

0101000
+192 0 -194 0 *
Ve
1e-07
466 24.922407994362 13.512811689747
0 0

0101101
*
Ed
 1e-07 1 1 0
1  86 0 5.20922033398954 5.47219468821571
2  58 26 0 5.20922033398954 5.47219468821571
4 C0 55 0 26 0
0

0101000
+190 0 -192 0 *
Ve
1e-07
466 31.077353813708 15.512674815699
0 0

0101101
*
Ed
 1e-07 1 1 0
1  87 0 1.52830697872495 8.00000000000055
4 C0 55 0 27 0
0

0101000
+190 0 -188 0 *
Ve
1e-07
466 34.26022885577 5.716792697859
0 0

0101101
*
Ed
 1e-07 1 1 0
1  88 0 0 10.2999999999999
4 C0 55 0 28 0
0

0101000
+186 0 -188 0 *
Ve
1e-07
466 28.105283036424 3.716929571908
0 0

0101101
*
Ed
 1e-07 1 1 0
1  89 0 1.52830697872527 8.00000000000056
4 C0 55 0 29 0
0

0101000
+184 0 -186 0 *
Ve
1e-07
466 28.105283036424 -3.716929571908
0 0

0101101
*
Ed
 1e-07 1 1 0
1  90 0 4.58090180327159 4.84387615749779
2  59 30 0 4.58090180327159 4.84387615749779
4 C0 55 0 30 0
0

0101000
+182 0 -184 0 *
Ve
1e-07
466 34.26022885577 -5.716792697859
0 0

0101101
*
Ed
 1e-07 1 1 0
1  91 0 1.52830697872527 8.00000000000056
4 C0 55 0 31 0
0

0101000
+182 0 -180 0 *
Ve
1e-07
466 31.077353813708 -15.51267481569
0 0

0101101
*
Ed
 1e-07 1 1 0
1  92 0 0 10.2999999999914
4 C0 55 0 32 0
0

0101000
+178 0 -180 0 *
Ve
1e-07
466 24.922407994362 -13.51281168974
0 0

0101101
*
Ed
 1e-07 1 1 0
1  93 0 1.52830697872279 7.99999999999777
4 C0 55 0 33 0
0

0101000
+176 0 -178 0 *
Ve
1e-07
466 20.552895222008 -19.52693007088
0 0

0101101
*
Ed
 1e-07 1 1 0
1  94 0 3.95258327255375 4.21555762678006
2  60 34 0 3.95258327255375 4.21555762678006
4 C0 55 0 34 0
0

0101000
+174 0 -176 0 *
Ve
1e-07
466 24.356860937277 -24.76263970747
0 0

0101101
*
Ed
 1e-07 1 1 0
1  95 0 1.52830697872458 7.99999999999988
4 C0 55 0 35 0
0

0101000
+174 0 -172 0 *
Ve
1e-07
466 16.023985895216 -30.81682780608
0 0

0101101
*
Ed
 1e-07 1 1 0
1  96 0 8.10526019328264e-13 10.2999999999986
4 C0 55 0 36 0
0

0101000
+170 0 -172 0 *
Ve
1e-07
466 12.220020179946 -25.58111816949
0 0

0101101
*
Ed
 1e-07 1 1 0
1  97 0 1.52830697872458 8.00000000000047
4 C0 55 0 37 0
0

0101000
+168 0 -170 0 *
Ve
1e-07
466 5.15 -27.87830697872
0 0

0101101
*
Ed
 1e-07 1 1 0
1  98 0 3.32426474183572 3.58723909606196
2  61 38 0 3.32426474183572 3.58723909606196
4 C0 55 0 38 0
0

0101000
+166 0 -168 0 *
Ve
1e-07
466 5.15 -34.35
0 0

0101101
*
Ed
 1e-07 1 1 0
1  99 0 1.52830697872 8
4 C0 55 0 39 0
0

0101000
+166 0 -164 0 *
Ve
1e-07
466 -5.15 -34.35
0 0

0101101
*
Ed
 1e-07 1 1 0
1  100 0 0 10.3
4 C0 55 0 40 0
0

0101000
+162 0 -164 0 *
Ve
1e-07
466 -5.15 -27.87830697872
0 0

0101101
*
Ed
 1e-07 1 1 0
1  101 0 1.52830697872 8
4 C0 55 0 41 0
0

0101000
+160 0 -162 0 *
Ve
1e-07
466 -12.22002017994 -25.58111816949
0 0

0101101
*
Ed
 1e-07 1 1 0
1  102 0 2.69594621111782 2.95892056534387
2  62 42 0 2.69594621111782 2.95892056534387
4 C0 55 0 42 0
0

0101000
+158 0 -160 0 *
Ve
1e-07
466 -16.02398589521 -30.81682780608
0 0

0101101
*
Ed
 1e-07 1 1 0
1  103 0 1.52830697872458 8.00000000000047
4 C0 55 0 43 0
0

0101000
+158 0 -156 0 *
Ve
1e-07
466 -24.35686093727 -24.76263970747
0 0

0101101
*
Ed
 1e-07 1 1 0
1  104 0 0 10.299999999997
4 C0 55 0 44 0
0

0101000
+154 0 -156 0 *
Ve
1e-07
466 -20.552895222 -19.52693007088
0 0

0101101
*
Ed
 1e-07 1 1 0
1  105 0 1.52830697872458 8.00000000000047
4 C0 55 0 45 0
0

0101000
+152 0 -154 0 *
Ve
1e-07
466 -24.92240799436 -13.51281168974
0 0

0101101
*
Ed
 1e-07 1 1 0
1  106 0 2.06762768039956 2.33060203462603
2  63 46 0 2.06762768039956 2.33060203462603
4 C0 55 0 46 0
0

0101000
+150 0 -152 0 *
Ve
1e-07
466 -31.0773538137 -15.51267481569
0 0

0101101
*
Ed
 1e-07 1 1 0
1  107 0 1.5283069787266 7.99999999999587
4 C0 55 0 47 0
0

0101000
+150 0 -148 0 *
Ve
1e-07
466 -34.26022885576 -5.716792697859
0 0

0101101
*
Ed
 1e-07 1 1 0
1  108 0 3.09154251056083e-12 10.2999999999938
4 C0 55 0 48 0
0

0101000
+146 0 -148 0 *
Ve
1e-07
466 -28.10528303642 -3.716929571908
0 0

0101101
*
Ed
 1e-07 1 1 0
1  109 0 1.52830697872907 7.99999999999865
4 C0 55 0 49 0
0

0101000
+144 0 -146 0 *
Ve
1e-07
466 -28.10528303642 3.716929571908
0 0

0101101
*
Ed
 1e-07 1 1 0
1  110 0 1.43930914968178 1.70228350390801
2  64 50 0 1.43930914968178 1.70228350390801
4 C0 55 0 50 0
0

0101000
+142 0 -144 0 *
Ve
1e-07
466 -34.26022885576 5.716792697859
0 0

0101101
*
Ed
 1e-07 1 1 0
1  111 0 1.52830697872907 7.99999999999865
4 C0 55 0 51 0
0

0101000
+142 0 -140 0 *
Ve
1e-07
466 -31.0773538137 15.512674815699
0 0

0101101
*
Ed
 1e-07 1 1 0
1  112 0 0 10.2999999999993
4 C0 55 0 52 0
0

0101000
+138 0 -140 0 *
Ed
 1e-07 1 1 0
1  113 0 1.52830697872876 7.99999999999865
4 C0 55 0 53 0
0

0101000
+214 0 -138 0 *
Wi

0101100
-213 0 +211 0 -209 0 -207 0 -205 0 +203 0 -201 0 -199 0 -197 0 +195 0 
-193 0 -191 0 -189 0 +187 0 -185 0 -183 0 -181 0 +179 0 -177 0 -175 0 
-173 0 +171 0 -169 0 -167 0 -165 0 +163 0 -161 0 -159 0 -157 0 +155 0 
-153 0 -151 0 -149 0 +147 0 -145 0 -143 0 -141 0 +139 0 -137 0 -136 0 
*
Fa
0  1e-07 55 0

0111000
+216 0 +135 0 *
Ed
 1e-07 1 1 0
1  114 0 1 115.542
2  65 14 0 1 115.542
4 C0 14 0 15 0
0

0101000
+305 0 -215 0 *
Ed
 1e-07 1 1 0
1  115 0 1 115.542
2  66 14 0 1 115.542
4 C0 14 0 53 0
0

0101000
+304 0 -214 0 *
Wi

0101100
-213 0 -133 0 +303 0 +132 0 *
Fa
0  1e-07 14 0

0111000
+131 0 *
Ed
 1e-07 1 1 0
1  116 0 1 115.542
4 C0 53 0 52 0
0

0101000
+228 0 -138 0 *
Wi

0101100
+226 0 +132 0 +136 0 -129 0 *
Fa
0  1e-07 53 0

0111000
+128 0 *
Ed
 1e-07 1 1 0
1  117 0 1 115.542
4 C0 52 0 51 0
0

0101000
+230 0 -140 0 *
Wi

0101100
-129 0 +227 0 +126 0 -137 0 *
Fa
0  1e-07 52 0

0111000
+125 0 *
Ed
 1e-07 1 1 0
1  118 0 1 115.542
2  67 50 0 1 115.542
4 C0 51 0 50 0
0

0101000
+232 0 -142 0 *
Wi

0101100
+229 0 +123 0 +139 0 -126 0 *
Fa
0  1e-07 51 0

0111000
+122 0 *
Ed
 1e-07 1 1 0
1  119 0 1 115.542
2  68 50 0 1 115.542
4 C0 50 0 49 0
0

0101000
+234 0 -144 0 *
Wi

0101100
-141 0 -123 0 +231 0 +120 0 *
Fa
0  1e-07 50 0

0111000
+119 0 *
Ed
 1e-07 1 1 0
1  120 0 1 115.542
4 C0 49 0 48 0
0

0101000
+236 0 -146 0 *
Wi

0101100
+233 0 +120 0 +143 0 -117 0 *
Fa
0  1e-07 49 0

0111000
+116 0 *
Ed
 1e-07 1 1 0
1  121 0 1 115.542
4 C0 48 0 47 0
0

0101000
+238 0 -148 0 *
Wi

0101100
-117 0 +235 0 +114 0 -145 0 *
Fa
0  1e-07 48 0

0111000
+113 0 *
Ed
 1e-07 1 1 0
1  122 0 1 115.542
2  69 46 0 1 115.542
4 C0 47 0 46 0
0

0101000
+240 0 -150 0 *
Wi

0101100
+237 0 +111 0 +147 0 -114 0 *
Fa
0  1e-07 47 0

0111000
+110 0 *
Ed
 1e-07 1 1 0
1  123 0 1 115.542
2  70 46 0 1 115.542
4 C0 46 0 45 0
0

0101000
+242 0 -152 0 *
Wi

0101100
-149 0 -111 0 +239 0 +108 0 *
Fa
0  1e-07 46 0

0111000
+107 0 *
Ed
 1e-07 1 1 0
1  124 0 1 115.542
4 C0 45 0 44 0
0

0101000
+244 0 -154 0 *
Wi

0101100
+241 0 +108 0 +151 0 -105 0 *
Fa
0  1e-07 45 0

0111000
+104 0 *
Ed
 1e-07 1 1 0
1  125 0 1 115.542
4 C0 44 0 43 0
0

0101000
+246 0 -156 0 *
Wi

0101100
-105 0 +243 0 +102 0 -153 0 *
Fa
0  1e-07 44 0

0111000
+101 0 *
Ed
 1e-07 1 1 0
1  126 0 1 115.542
2  71 42 0 1 115.542
4 C0 43 0 42 0
0

0101000
+248 0 -158 0 *
Wi

0101100
+245 0 +99 0 +155 0 -102 0 *
Fa
0  1e-07 43 0

0111000
+98 0 *
Ed
 1e-07 1 1 0
1  127 0 1 115.542
2  72 42 0 1 115.542
4 C0 42 0 41 0
0

0101000
+250 0 -160 0 *
Wi

0101100
-157 0 -99 0 +247 0 +96 0 *
Fa
0  1e-07 42 0

0111000
+95 0 *
Ed
 1e-07 1 1 0
1  128 0 1 115.542
4 C0 41 0 40 0
0

0101000
+252 0 -162 0 *
Wi

0101100
+249 0 +96 0 +159 0 -93 0 *
Fa
0  1e-07 41 0

0111000
+92 0 *
Ed
 1e-07 1 1 0
1  129 0 1 115.542
4 C0 40 0 39 0
0

0101000
+254 0 -164 0 *
Wi

0101100
-93 0 +251 0 +90 0 -161 0 *
Fa
0  1e-07 40 0

0111000
+89 0 *
Ed
 1e-07 1 1 0
1  130 0 1 115.542
2  73 38 0 1 115.542
4 C0 39 0 38 0
0

0101000
+256 0 -166 0 *
Wi

0101100
+253 0 +87 0 +163 0 -90 0 *
Fa
0  1e-07 39 0

0111000
+86 0 *
Ed
 1e-07 1 1 0
1  131 0 1 115.542
2  74 38 0 1 115.542
4 C0 38 0 37 0
0

0101000
+258 0 -168 0 *
Wi

0101100
+255 0 +84 0 -165 0 -87 0 *
Fa
0  1e-07 38 0

0111000
+83 0 *
Ed
 1e-07 1 1 0
1  132 0 1 115.542
4 C0 37 0 36 0
0

0101000
+260 0 -170 0 *
Wi

0101100
+257 0 +84 0 +167 0 -81 0 *
Fa
0  1e-07 37 0

0111000
+80 0 *
Ed
 1e-07 1 1 0
1  133 0 1 115.542
4 C0 36 0 35 0
0

0101000
+262 0 -172 0 *
Wi

0101100
-81 0 +259 0 +78 0 -169 0 *
Fa
0  1e-07 36 0

0111000
+77 0 *
Ed
 1e-07 1 1 0
1  134 0 1 115.542
2  75 34 0 1 115.542
4 C0 35 0 34 0
0

0101000
+264 0 -174 0 *
Wi

0101100
+261 0 +75 0 +171 0 -78 0 *
Fa
0  1e-07 35 0

0111000
+74 0 *
Ed
 1e-07 1 1 0
1  135 0 1 115.542
2  76 34 0 1 115.542
4 C0 34 0 33 0
0

0101000
+266 0 -176 0 *
Wi

0101100
+263 0 +72 0 -173 0 -75 0 *
Fa
0  1e-07 34 0

0111000
+71 0 *
Ed
 1e-07 1 1 0
1  136 0 1 115.542
4 C0 33 0 32 0
0

0101000
+268 0 -178 0 *
Wi

0101100
+265 0 +72 0 +175 0 -69 0 *
Fa
0  1e-07 33 0

0111000
+68 0 *
Ed
 1e-07 1 1 0
1  137 0 1 115.542
4 C0 32 0 31 0
0

0101000
+270 0 -180 0 *
Wi

0101100
-69 0 +267 0 +66 0 -177 0 *
Fa
0  1e-07 32 0

0111000
+65 0 *
Ed
 1e-07 1 1 0
1  138 0 1 115.542
2  77 30 0 1 115.542
4 C0 31 0 30 0
0

0101000
+272 0 -182 0 *
Wi

0101100
+269 0 +63 0 +179 0 -66 0 *
Fa
0  1e-07 31 0

0111000
+62 0 *
Ed
 1e-07 1 1 0
1  139 0 1 115.542
2  78 30 0 1 115.542
4 C0 30 0 29 0
0

0101000
+274 0 -184 0 *
Wi

0101100
+271 0 +60 0 -181 0 -63 0 *
Fa
0  1e-07 30 0

0111000
+59 0 *
Ed
 1e-07 1 1 0
1  140 0 1 115.542
4 C0 29 0 28 0
0

0101000
+276 0 -186 0 *
Wi

0101100
+273 0 +60 0 +183 0 -57 0 *
Fa
0  1e-07 29 0

0111000
+56 0 *
Ed
 1e-07 1 1 0
1  141 0 1 115.542
4 C0 28 0 27 0
0

0101000
+278 0 -188 0 *
Wi

0101100
-57 0 +275 0 +54 0 -185 0 *
Fa
0  1e-07 28 0

0111000
+53 0 *
Ed
 1e-07 1 1 0
1  142 0 1 115.542
2  79 26 0 1 115.542
4 C0 27 0 26 0
0

0101000
+280 0 -190 0 *
Wi

0101100
+277 0 +51 0 +187 0 -54 0 *
Fa
0  1e-07 27 0

0111000
+50 0 *
Ed
 1e-07 1 1 0
1  143 0 1 115.542
2  80 26 0 1 115.542
4 C0 26 0 25 0
0

0101000
+282 0 -192 0 *
Wi

0101100
+279 0 +48 0 -189 0 -51 0 *
Fa
0  1e-07 26 0

0111000
+47 0 *
Ed
 1e-07 1 1 0
1  144 0 1 115.542
4 C0 25 0 24 0
0

0101000
+284 0 -194 0 *
Wi

0101100
+281 0 +48 0 +191 0 -45 0 *
Fa
0  1e-07 25 0

0111000
+44 0 *
Ed
 1e-07 1 1 0
1  145 0 1 115.542
4 C0 24 0 23 0
0

0101000
+286 0 -196 0 *
Wi

0101100
-45 0 +283 0 +42 0 -193 0 *
Fa
0  1e-07 24 0

0111000
+41 0 *
Ed
 1e-07 1 1 0
1  146 0 1 115.542
2  81 22 0 1 115.542
4 C0 23 0 22 0
0

0101000
+288 0 -198 0 *
Wi

0101100
+285 0 +39 0 +195 0 -42 0 *
Fa
0  1e-07 23 0

0111000
+38 0 *
Ed
 1e-07 1 1 0
1  147 0 1 115.542
2  82 22 0 1 115.542
4 C0 22 0 21 0
0

0101000
+290 0 -200 0 *
Wi

0101100
+287 0 +36 0 -197 0 -39 0 *
Fa
0  1e-07 22 0

0111000
+35 0 *
Ed
 1e-07 1 1 0
1  148 0 1 115.542
4 C0 21 0 20 0
0

0101000
+292 0 -202 0 *
Wi

0101100
+289 0 +36 0 +199 0 -33 0 *
Fa
0  1e-07 21 0

0111000
+32 0 *
Ed
 1e-07 1 1 0
1  149 0 1 115.542
4 C0 20 0 19 0
0

0101000
+294 0 -204 0 *
Wi

0101100
-33 0 +291 0 +30 0 -201 0 *
Fa
0  1e-07 20 0

0111000
+29 0 *
Ed
 1e-07 1 1 0
1  150 0 1 115.542
2  83 18 0 1 115.542
4 C0 19 0 18 0
0

0101000
+296 0 -206 0 *
Wi

0101100
+293 0 +27 0 +203 0 -30 0 *
Fa
0  1e-07 19 0

0111000
+26 0 *
Ed
 1e-07 1 1 0
1  151 0 1 115.542
2  84 18 0 1 115.542
4 C0 18 0 17 0
0

0101000
+298 0 -208 0 *
Wi

0101100
-205 0 -27 0 +295 0 +24 0 *
Fa
0  1e-07 18 0

0111000
+23 0 *
Ed
 1e-07 1 1 0
1  152 0 1 115.542
4 C0 17 0 16 0
0

0101000
+300 0 -210 0 *
Wi

0101100
+297 0 +24 0 +207 0 -21 0 *
Fa
0  1e-07 17 0

0111000
+20 0 *
Ed
 1e-07 1 1 0
1  153 0 1 115.542
4 C0 16 0 15 0
0

0101000
+302 0 -212 0 *
Wi

0101100
-21 0 +299 0 +18 0 -209 0 *
Fa
0  1e-07 16 0

0111000
+17 0 *
Wi

0101100
+301 0 +133 0 +211 0 -18 0 *
Fa
0  1e-07 15 0

0111000
+15 0 *
Wi

0101100
+386 0 *
Wi

0101100
-222 0 *
Wi

0101100
-325 0 *
Wi

0101100
-330 0 *
Wi

0101100
-350 0 *
Wi

0101100
-315 0 *
Wi

0101100
-335 0 *
Wi

0101100
-320 0 *
Wi

0101100
-340 0 *
Wi

0101100
-345 0 *
Fa
0  1e-07 2 0

0111000
+13 0 +12 0 +11 0 +10 0 +9 0 +8 0 +7 0 +6 0 +5 0 +4 0 
*
Sh

0101100
+381 0 -352 0 -347 0 -342 0 -337 0 -332 0 -327 0 -322 0 -317 0 -312 0 
+307 0 -224 0 -217 0 +134 0 -130 0 +127 0 -124 0 -121 0 -118 0 +115 0 
-112 0 -109 0 -106 0 +103 0 -100 0 -97 0 -94 0 +91 0 -88 0 -85 0 
-82 0 +79 0 -76 0 -73 0 -70 0 +67 0 -64 0 -61 0 -58 0 +55 0 
-52 0 -49 0 -46 0 +43 0 -40 0 -37 0 -34 0 +31 0 -28 0 -25 0 
-22 0 +19 0 -16 0 -14 0 +3 0 *
So

0100000
+2 0 *

+1 0 