
CASCADE Topology V1, (c) Matra-Datavision
Locations 5
1
1.000000000000000 0.000000000000000 0.000000000000000 0.000000000000000 
0.000000000000000 1.000000000000000 0.000000000000000 0.000000000000000 
0.000000000000000 0.000000000000000 1.000000000000000 0.000000000000000 
1
1.000000000000000 0.000000000000000 0.000000000000000 0.000000000000000 
0.000000000000000 1.000000000000000 0.000000000000000 0.000000000000000 
0.000000000000000 0.000000000000000 1.000000000000000 0.000000000000000 
2  2 -1 0
1
1.000000000000000 0.000000000000000 0.000000000000000 0.000000000000000 
0.000000000000000 -1.000000000000000 -0.000000000000000 0.000000000000000 
0.000000000000000 0.000000000000000 -1.000000000000000 -15.875000000000000 
2  2 -1 4 -1 0
Curve2ds 12
1 6.28318530717958623 -6.28318530717958623 0.00000000000000000 1.00000000000000000 
1 0.00000000000000000 -6.28318530717958623 0.00000000000000000 1.00000000000000000 
1 0.00000000000000000 0.64350110879328437 1.00000000000000000 0.00000000000000000 
1 0.00000000000000000 1.57079632679489656 1.00000000000000000 0.00000000000000000 
1 0.00000000000000000 15.87500000000000000 1.00000000000000000 0.00000000000000000 
1 6.28318530717958623 -0.00000000000000000 0.00000000000000000 1.00000000000000000 
1 0.00000000000000000 -0.00000000000000000 0.00000000000000000 1.00000000000000000 
1 0.00000000000000000 0.00000000000000000 1.00000000000000000 0.00000000000000000 
1 0.00000000000000000 0.11613351589130604 1.00000000000000000 0.00000000000000000 
1 6.28318530717958623 -6.28318530717958623 0.00000000000000000 1.00000000000000000 
1 0.00000000000000000 -6.28318530717958623 0.00000000000000000 1.00000000000000000 
1 0.00000000000000000 1.57079632679489656 1.00000000000000000 0.00000000000000000 
Curves 7
2 0.00000000000000000 0.00000000000000000 -6.00000000000000000 -0.00000000000000024 -1.00000000000000000 0.00000000000000000 1.00000000000000000 -0.00000000000000024 0.00000000000000000 0.00000000000000000 0.00000000000000000 1.00000000000000000 10.00000000000000000
2 0.00000000000000000 0.00000000000000000 0.00000000000000000 0.00000000000000000 0.00000000000000000 1.00000000000000000 1.00000000000000000 0.00000000000000000 0.00000000000000000 0.00000000000000000 1.00000000000000000 0.00000000000000000 8.00000000000000000
2 0.00000000000000000 0.00000000000000000 0.00000000000000000 0.00000000000000000 0.00000000000000000 1.00000000000000000 1.00000000000000000 0.00000000000000000 0.00000000000000000 0.00000000000000000 1.00000000000000000 0.00000000000000000 4.76250000000000018
1 4.76250000000000018 -0.00000000000000117 -15.87500000000000000 0.00000000000000000 0.00000000000000000 1.00000000000000000 
2 0.00000000000000000 0.00000000000000000 -15.87500000000000000 0.00000000000000000 0.00000000000000000 1.00000000000000000 1.00000000000000000 0.00000000000000000 0.00000000000000000 0.00000000000000000 1.00000000000000000 0.00000000000000000 4.76250000000000018
2 0.00000000000000000 0.00000000000000000 0.00000000000000000 0.00000000000000000 0.00000000000000000 1.00000000000000000 1.00000000000000000 0.00000000000000000 0.00000000000000000 0.00000000000000000 1.00000000000000000 0.00000000000000000 8.00000000000000000
2 0.00000000000000000 0.00000000000000000 -0.93326756228955077 -0.00000000000000024 -1.00000000000000000 0.00000000000000000 1.00000000000000000 -0.00000000000000024 0.00000000000000000 0.00000000000000000 0.00000000000000000 1.00000000000000000 8.05425281095781642
Polygon3D 0
PolygonOnTriangulations 0
Surfaces 7
4 0.00000000000000000 0.00000000000000000 -6.00000000000000000 0.00000000000000000 0.00000000000000000 1.00000000000000000 1.00000000000000000 0.00000000000000000 0.00000000000000000 0.00000000000000000 1.00000000000000000 0.00000000000000000 10.00000000000000000
4 0.00000000000000000 0.00000000000000000 -6.00000000000000000 0.00000000000000000 0.00000000000000000 1.00000000000000000 1.00000000000000000 0.00000000000000000 -0.00000000000000000 -0.00000000000000000 1.00000000000000000 0.00000000000000000 10.00000000000000000
1 -11.00000000000000000 -11.00000000000000000 0.00000000000000000 0.00000000000000000 0.00000000000000000 1.00000000000000000 1.00000000000000000 0.00000000000000000 0.00000000000000000 0.00000000000000000 1.00000000000000000 0.00000000000000000 
2 0.00000000000000000 0.00000000000000000 -15.87500000000000000 0.00000000000000000 0.00000000000000000 1.00000000000000000 1.00000000000000000 0.00000000000000000 0.00000000000000000 0.00000000000000000 1.00000000000000000 0.00000000000000000 4.76250000000000018
1 -9.05425281095781642 -9.05425281095781642 0.00000000000000000 0.00000000000000000 0.00000000000000000 1.00000000000000000 1.00000000000000000 0.00000000000000000 0.00000000000000000 0.00000000000000000 1.00000000000000000 0.00000000000000000 
4 0.00000000000000000 0.00000000000000000 -0.93326756228955077 0.00000000000000000 0.00000000000000000 1.00000000000000000 1.00000000000000000 0.00000000000000000 0.00000000000000000 0.00000000000000000 1.00000000000000000 0.00000000000000000 8.05425281095781642
4 0.00000000000000000 0.00000000000000000 -0.93326756228955077 0.00000000000000000 0.00000000000000000 1.00000000000000000 1.00000000000000000 0.00000000000000000 -0.00000000000000000 -0.00000000000000000 1.00000000000000000 0.00000000000000000 8.05425281095781642
Triangulations 0

TShapes 30
Ve
0.000000100000006
7.999999999999997 -0.000000000000002 0.000000000000004
0 0

0101101
*
Ve
0.000000100000000
0.000000000000001 -0.000000000000000 4.000000000000000
0 0

0101101
*
Ed
 0.000000100000000 1 1 0
1  1 0 6.926686415972871 7.853981633974483
3  1 2CN 1 0 6.926686415972871 7.853981633974483
0

0101000
+30 3 -29 3 *
Ed
 0.000000100000000 1 1 0
1  2 0 0.000000000000000 6.283185307179586
2  3 1 0 0.000000000000000 6.283185307179586
0

0101100
+30 3 -30 3 *
Ed
 0.000000100000000 1 1 1
2  4 2 0 0.000000000000000 6.283185307179586
2  4 1 0 0.000000000000000 6.283185307179586
0

0101000
+29 3 -29 3 *
Wi

0101100
+28 0 +27 0 -28 0 -26 0 *
Fa
0  0.000000100000000 1 0

0101000
+25 0 *
Wi

0101100
+27 0 *
Ve
0.000000100000000
4.762500000000000 -0.000000000000001 0.000000000000000
0 0

0101101
*
Ed
 0.000000100000000 1 1 0
1  3 0 0.000000000000000 6.283185307179586
2  5 4 0 0.000000000000000 6.283185307179586
0

0101000
+22 3 -22 3 *
Wi

0101100
-21 0 *
Fa
0  0.000000100000000 3 0

0101000
+23 0 +20 0 *
Ve
0.000000100000002
4.762500000000000 -0.000000000000001 -15.875000000000000
0 0

0101101
*
Ed
 0.000000100000000 1 1 0
1  4 0 0.000000000000000 15.875000000000000
3  6 7CN 4 0 0.000000000000000 15.875000000000000
0

0101000
+18 3 -22 3 *
Ed
 0.000000100000002 1 1 0
1  5 0 0.000000000000000 6.283185307179586
2  8 4 0 0.000000000000000 6.283185307179586
0

0101000
+18 3 -18 3 *
Wi

0101100
-21 0 +17 0 +16 0 -17 0 *
Fa
0  0.000000100000000 4 0

0101000
+15 0 *
Ve
0.000000100000002
8.000000000000000 0.000000000000002 -15.875000000000000
0 0

0101101
*
Ed
 0.000000100000000 1 1 0
1  6 0 0.000000000000000 6.283185307179586
2  9 6 0 0.000000000000000 6.283185307179586
0

0101100
+13 5 -13 5 *
Wi

0101100
+12 4 *
Wi

0101100
+16 0 *
Fa
0  0.000000100000000 5 4

0101000
+11 0 +10 0 *
Ve
0.000000100000000
0.000000000000000 -0.000000000000001 -22.995985248668266
0 0

0101101
*
Ed
 0.000000100000000 1 1 0
1  7 0 6.399318823070892 7.853981633974483
3  10 11CN 6 0 6.399318823070892 7.853981633974483
0

0101000
+13 5 -8 5 *
Ed
 0.000000100000000 1 1 1
2  12 7 0 0.000000000000000 6.283185307179586
2  12 6 0 0.000000000000000 6.283185307179586
0

0101000
+8 5 -8 5 *
Wi

0101100
+7 0 +12 0 -7 0 -6 0 *
Fa
0  0.000000100000000 6 0

0101000
+5 0 *
Sh

0101100
+24 0 -19 0 +14 0 -9 0 +4 4 *
So

0100000
+3 0 *
Co

1100000
+2 0 *

+1 1 