
CASCADE Topology V1, (c) Matra-Datavision
Locations 9
1
1.000000000000000 0.000000000000000 0.000000000000000 0.000000000000000 
0.000000000000000 1.000000000000000 0.000000000000000 0.000000000000000 
0.000000000000000 0.000000000000000 1.000000000000000 0.000000000000000 
1
1.000000000000000 0.000000000000000 0.000000000000000 0.000000000000000 
0.000000000000000 1.000000000000000 0.000000000000000 0.000000000000000 
0.000000000000000 0.000000000000000 1.000000000000000 0.000000000000000 
2  2 -1 0
1
1.000000000000000 0.000000000000000 0.000000000000000 0.000000000000000 
0.000000000000000 1.000000000000000 0.000000000000000 0.000000000000000 
0.000000000000000 0.000000000000000 1.000000000000000 0.000000000000000 
1
1.000000000000000 0.000000000000000 0.000000000000000 0.000000000000000 
0.000000000000000 1.000000000000000 0.000000000000000 0.000000000000000 
0.000000000000000 0.000000000000000 1.000000000000000 0.000000000000000 
1
1.000000000000000 0.000000000000000 0.000000000000000 0.000000000000000 
0.000000000000000 1.000000000000000 0.000000000000000 0.000000000000000 
0.000000000000000 0.000000000000000 1.000000000000000 0.000000000000000 
2  4 1 5 1 6 -1 0
2  6 1 5 -1 4 -1 0
2  2 -1 6 1 5 -1 4 -1 0
Curve2ds 12
1 0.00000000000000000 0.00000000000000000 1.00000000000000000 0.00000000000000000 
1 0.00000000000000000 3.36759604540093305 1.00000000000000000 0.00000000000000000 
1 0.00000000000000000 0.00000000000000000 1.00000000000000000 0.00000000000000000 
1 6.28318530717958623 0.00000000000000000 0.00000000000000000 1.00000000000000000 
1 0.00000000000000000 0.00000000000000000 0.00000000000000000 1.00000000000000000 
1 0.00000000000000000 3.61874999999999947 1.00000000000000000 0.00000000000000000 
1 6.28318530717958623 0.00000000000000000 0.00000000000000000 1.00000000000000000 
1 0.00000000000000000 0.00000000000000000 0.00000000000000000 1.00000000000000000 
1 0.00000000000000000 -0.15072878416914937 1.00000000000000000 0.00000000000000000 
1 0.00000000000000000 1.57079632679489656 1.00000000000000000 0.00000000000000000 
1 6.28318530717958623 -0.15072878416914937 0.00000000000000000 1.00000000000000000 
1 0.00000000000000000 -0.15072878416914937 0.00000000000000000 1.00000000000000000 
Curves 7
2 0.00000000000000000 3.00000000000000000 0.00000000000000000 -0.00000000000000000 1.00000000000000000 0.00000000000000000 1.00000000000000000 0.00000000000000000 0.00000000000000000 0.00000000000000000 0.00000000000000000 -1.00000000000000000 4.76250000000000018
2 0.00000000000000000 0.61874999999999947 0.00000000000000000 -0.00000000000000000 1.00000000000000000 0.00000000000000000 1.00000000000000000 0.00000000000000000 0.00000000000000000 0.00000000000000000 0.00000000000000000 -1.00000000000000000 2.38125000000000009
1 4.76250000000000018 3.00000000000000000 0.00000000000000000 -0.70710678118654746 -0.70710678118654757 0.00000000000000000 
2 0.00000000000000000 -3.00000000000000000 0.00000000000000000 -0.00000000000000000 1.00000000000000000 0.00000000000000000 1.00000000000000000 0.00000000000000000 0.00000000000000000 0.00000000000000000 0.00000000000000000 -1.00000000000000000 2.38125000000000009
1 2.38125000000000009 0.61874999999999947 0.00000000000000000 0.00000000000000000 -1.00000000000000000 0.00000000000000000 
2 0.00000000000000000 -3.00000000000000000 0.00000000000000000 -0.00000000000000000 1.00000000000000000 0.00000000000000000 1.00000000000000000 0.00000000000000000 0.00000000000000000 0.00000000000000000 0.00000000000000000 -1.00000000000000000 4.04812499999999975
2 -0.00000000000000056 -3.61483218521423044 0.00000000000000000 0.00000000000000000 0.00000000000000000 -1.00000000000000000 0.98866190721928637 0.15015869343305913 0.00000000000000000 0.15015869343305913 -0.98866190721928637 0.00000000000000000 4.09454938077443487
Polygon3D 0
PolygonOnTriangulations 0
Surfaces 6
1 0.00000000000000000 3.00000000000000000 0.00000000000000000 0.00000000000000000 1.00000000000000000 0.00000000000000000 -1.00000000000000000 0.00000000000000000 0.00000000000000000 -0.00000000000000000 0.00000000000000000 -1.00000000000000000 
3 0.00000000000000000 3.00000000000000000 0.00000000000000000 -0.00000000000000000 -1.00000000000000000 -0.00000000000000000 1.00000000000000000 -0.00000000000000000 0.00000000000000000 0.00000000000000000 -0.00000000000000000 -1.00000000000000000 4.76250000000000018
-0.78539816339744828
2 0.00000000000000000 0.61874999999999947 0.00000000000000000 -0.00000000000000000 -1.00000000000000000 -0.00000000000000000 1.00000000000000000 -0.00000000000000000 0.00000000000000000 0.00000000000000000 -0.00000000000000000 -1.00000000000000000 2.38125000000000009
1 0.00000000000000000 -3.00000000000000000 0.00000000000000000 0.00000000000000000 1.00000000000000000 0.00000000000000000 -1.00000000000000000 0.00000000000000000 0.00000000000000000 -0.00000000000000000 0.00000000000000000 -1.00000000000000000 
4 -0.00000000000000056 -3.61483218521423044 0.00000000000000000 -0.00000000000000000 -1.00000000000000000 -0.00000000000000000 1.00000000000000000 -0.00000000000000000 0.00000000000000000 0.00000000000000000 -0.00000000000000000 -1.00000000000000000 4.09454938077443487
4 -0.00000000000000056 -3.61483218521423044 0.00000000000000000 -0.00000000000000000 -1.00000000000000000 -0.00000000000000000 1.00000000000000000 -0.00000000000000000 0.00000000000000000 0.00000000000000000 -0.00000000000000000 -1.00000000000000000 4.09454938077443487
Triangulations 0

TShapes 26
Ve
0.000000100000000
4.762500000000000 3.000000000000000 0.000000000000000
0 0

0101101
*
Ed
 0.000000100000000 1 1 0
1  1 0 0.000000000000000 6.283185307179586
2  1 2 0 0.000000000000000 6.283185307179586
0

0101000
+26 3 -26 3 *
Wi

0101100
-25 0 *
Fa
0  0.000000100000000 1 0

0111000
+24 0 *
Ve
0.000000100000000
2.381250000000000 0.618749999999999 0.000000000000000
0 0

0101101
*
Ed
 0.000000100000000 1 1 0
1  2 0 0.000000000000000 6.283185307179586
2  2 2 0 0.000000000000000 6.283185307179586
2  3 3 0 0.000000000000000 6.283185307179586
0

0101000
+22 3 -22 3 *
Ed
 0.000000100000000 1 1 0
1  3 0 0.000000000000000 3.367596045400933
3  4 5CN 2 8 0.000000000000000 3.367596045400933
0

0101000
+26 9 -22 9 *
Wi

0101100
+25 0 -21 0 -20 7 +20 7 *
Fa
0  0.000000100000000 2 0

0111000
+19 0 *
Ve
0.000000100000000
2.381250000000000 -3.000000000000000 0.000000000000000
0 0

0101101
*
Ed
 0.000000100000000 1 1 0
1  4 0 0.000000000000000 6.283185307179586
2  6 3 0 0.000000000000000 6.283185307179586
0

0101000
+17 3 -17 3 *
Ed
 0.000000100000000 1 1 0
1  5 0 0.000000000000000 3.618749999999999
3  7 8CN 3 8 0.000000000000000 3.618749999999999
0

0101000
+22 9 -17 9 *
Wi

0101100
+21 0 -16 0 -15 7 +15 7 *
Fa
0  0.000000100000000 3 0

0111000
+14 0 *
Wi

0101100
+16 0 *
Ve
0.000000100000000
4.048125000000000 -3.000000000000000 0.000000000000000
0 0

0101101
*
Ed
 0.000000100000000 1 1 0
1  6 0 0.000000000000000 6.283185307179586
2  9 5 0 0.000000000000000 6.283185307179586
0

0101000
+11 3 -11 3 *
Wi

0101100
-10 0 *
Fa
0  0.000000100000000 4 0

0111000
+12 0 +9 0 *
Ve
0.000000100000001
-0.000000000000000 -7.709381565988664 0.000000000000000
0 0

0101101
*
Ed
 0.000000100000001 1 1 1
2  10 6 0 0.000000000000000 6.283185307179586
2  10 5 0 0.000000000000000 6.283185307179586
0

0101000
+7 3 -7 3 *
Ed
 0.000000100000000 1 1 0
1  7 0 0.000000000000000 1.721525110964046
3  11 12CN 5 8 0.000000000000000 1.721525110964046
0

0101000
+11 9 -7 9 *
Wi

0101100
+10 0 -6 0 -5 7 +5 7 *
Fa
0  0.000000100000000 5 0

0111000
+4 0 *
Sh

0101100
-23 0 -18 0 -13 0 -8 0 -3 0 *
So

1100000
+2 0 *

+1 1 