
CASCADE Topology V1, (c) Matra-Datavision
Locations 15
1
1.000000000000000 0.000000000000000 0.000000000000000 0.000000000000000 
0.000000000000000 1.000000000000000 0.000000000000000 0.000000000000000 
0.000000000000000 0.000000000000000 1.000000000000000 0.000000000000000 
1
1.000000000000000 0.000000000000000 0.000000000000000 0.000000000000000 
0.000000000000000 1.000000000000000 0.000000000000000 0.000000000000000 
0.000000000000000 0.000000000000000 1.000000000000000 0.000000000000000 
2  2 -1 0
1
-0.000000000000000 0.000000000000000 1.000000000000000 0.000000000000000 
1.000000000000000 -0.000000000000000 0.000000000000000 0.000000000000000 
0.000000000000000 1.000000000000000 -0.000000000000000 0.000000000000000 
1
1.000000000000000 0.000000000000000 0.000000000000000 0.000000000000000 
0.000000000000000 0.866025403784439 -0.500000000000000 0.000000000000000 
0.000000000000000 0.500000000000000 0.866025403784439 0.000000000000000 
1
1.000000000000000 0.000000000000000 0.000000000000000 0.000000000000000 
0.000000000000000 1.000000000000000 0.000000000000000 0.000000000000000 
0.000000000000000 0.000000000000000 1.000000000000000 0.000000000000000 
2  4 1 5 1 6 1 0
2  2 -1 6 -1 5 -1 4 -1 0
1
-0.000000000000000 0.000000000000000 1.000000000000000 0.000000000000000 
1.000000000000000 -0.000000000000000 0.000000000000000 0.000000000000000 
0.000000000000000 1.000000000000000 -0.000000000000000 0.000000000000000 
1
1.000000000000000 0.000000000000000 0.000000000000000 0.000000000000000 
0.000000000000000 1.000000000000000 0.000000000000000 0.000000000000000 
0.000000000000000 0.000000000000000 1.000000000000000 0.000000000000000 
1
1.000000000000000 0.000000000000000 0.000000000000000 0.000000000000000 
0.000000000000000 1.000000000000000 0.000000000000000 36.500000000000000 
0.000000000000000 0.000000000000000 1.000000000000000 0.000000000000000 
2  9 1 10 1 11 1 6 -1 5 -1 4 -1 0
2  9 1 10 1 11 1 0
2  2 -1 11 -1 10 -1 9 -1 0
2  11 -1 10 -1 9 -1 0
Curve2ds 18
1 6.28318530717958623 -0.00000000000000000 0.00000000000000000 1.00000000000000000 
1 0.00000000000000000 -0.00000000000000000 0.00000000000000000 1.00000000000000000 
1 0.00000000000000000 0.00000000000000000 1.00000000000000000 0.00000000000000000 
1 0.00000000000000000 3.00000000000000000 1.00000000000000000 0.00000000000000000 
1 0.00000000000000000 -0.00000000000000000 -0.00000000000000000 -1.00000000000000000 
1 0.00000000000000000 3.00000000000000000 1.00000000000000000 0.00000000000000000 
1 0.00000000000000000 6.28318530717958623 -0.00000000000000000 -1.00000000000000000 
1 0.00000000000000000 -3.14159265358979312 1.00000000000000000 0.00000000000000000 
1 0.00000000000000000 3.14159265358979312 1.00000000000000000 0.00000000000000000 
1 5.75958653158128708 -0.00000000000000000 0.00000000000000000 1.00000000000000000 
1 0.00000000000000000 -0.00000000000000000 0.00000000000000000 1.00000000000000000 
1 0.00000000000000000 -3.14159265358979312 1.00000000000000000 0.00000000000000000 
1 0.00000000000000000 3.14159265358979312 1.00000000000000000 0.00000000000000000 
1 1.57079632679489656 -0.00000000000000000 0.00000000000000000 1.00000000000000000 
1 3.14159265358979312 0.00000000000000000 -1.00000000000000000 -0.00000000000000000 
1 0.00000000000000000 1.70000000000000284 1.00000000000000000 0.00000000000000000 
1 6.28318530717958623 -0.00000000000000000 0.00000000000000000 1.00000000000000000 
1 0.00000000000000000 -0.00000000000000000 0.00000000000000000 1.00000000000000000 
Curves 10
1 0.00000000000000009 34.27906153324100558 16.32692378864668115 0.00000000000000000 -0.49999999999999994 0.86602540378443871 
2 0.00000000000000000 33.97595264191645015 16.15192378864668044 0.00000000000000000 -0.49999999999999994 0.86602540378443871 0.00000000000000000 0.86602540378443871 0.49999999999999994 -1.00000000000000000 0.00000000000000000 0.00000000000000000 0.34999999999999998
2 0.00000000000000000 32.47595264191645015 18.74999999999999645 0.00000000000000000 -0.49999999999999994 0.86602540378443871 0.00000000000000000 0.86602540378443871 0.49999999999999994 -1.00000000000000000 0.00000000000000000 0.00000000000000000 0.34999999999999998
2 0.00000000000000000 32.47595264191645015 18.74999999999999645 0.00000000000000000 -0.49999999999999994 0.86602540378443871 0.00000000000000000 0.86602540378443871 0.49999999999999994 -1.00000000000000000 0.00000000000000000 0.00000000000000000 0.34999999999999998
2 -0.00000000000000000 -0.00000000000000000 0.00000000000000004 0.00000000000000022 0.00000000000000022 1.00000000000000000 1.00000000000000000 -0.00000000000000022 -0.00000000000000022 0.00000000000000022 1.00000000000000000 -0.00000000000000022 37.14999999999999858
2 32.47595264191645725 -18.75000000000003197 -0.00000000000000305 -0.50000000000000067 -0.86602540378443837 -0.00000000000000030 0.86602540378443837 -0.50000000000000067 -0.00000000000000008 -0.00000000000000008 -0.00000000000000030 1.00000000000000000 0.34999999999999998
2 -0.00000000000000000 -0.00000000000000000 0.00000000000000004 0.00000000000000022 0.00000000000000022 1.00000000000000000 1.00000000000000000 -0.00000000000000022 -0.00000000000000022 0.00000000000000022 1.00000000000000000 -0.00000000000000022 0.65000000000000002
2 -0.00000000000000011 1.00000000000000044 -0.00000000000000022 1.00000000000000000 0.00000000000000011 0.00000000000000022 -0.00000000000000011 1.00000000000000000 -0.00000000000000022 -0.00000000000000022 0.00000000000000022 1.00000000000000000 0.34999999999999998
2 0.00000000000000000 34.79999999999999716 1.00000000000000000 0.00000000000000000 -1.00000000000000000 0.00000000000000000 0.00000000000000000 0.00000000000000000 -1.00000000000000000 1.00000000000000000 0.00000000000000000 0.00000000000000000 0.34999999999999998
1 -0.00000000000000009 36.50000000000000000 0.65000000000000002 0.00000000000000000 -1.00000000000000000 0.00000000000000000 
Polygon3D 0
PolygonOnTriangulations 0
Surfaces 6
2 0.00000000000000000 33.97595264191645015 16.15192378864668044 0.00000000000000000 -0.49999999999999994 0.86602540378443871 0.00000000000000000 0.86602540378443871 0.49999999999999994 -1.00000000000000000 0.00000000000000000 0.00000000000000000 0.34999999999999998
5 0.00000000000000000 0.00000000000000000 0.00000000000000000 -0.00000000000000022 -0.00000000000000022 1.00000000000000000 1.00000000000000000 -0.00000000000000022 0.00000000000000022 0.00000000000000022 1.00000000000000000 0.00000000000000022 37.50000000000000000 0.34999999999999998
1 0.00000000000000000 33.97595264191645015 16.15192378864668044 0.00000000000000000 -0.49999999999999994 0.86602540378443871 0.00000000000000000 0.86602540378443871 0.49999999999999994 -1.00000000000000000 0.00000000000000000 0.00000000000000000 
5 0.00000000000000000 0.00000000000000000 0.00000000000000000 -0.00000000000000022 -0.00000000000000022 1.00000000000000000 1.00000000000000000 -0.00000000000000022 0.00000000000000022 0.00000000000000022 1.00000000000000000 0.00000000000000022 1.00000000000000000 0.34999999999999998
2 0.00000000000000000 36.50000000000000000 1.00000000000000000 -0.00000000000000000 -1.00000000000000000 -0.00000000000000000 0.00000000000000000 0.00000000000000000 -1.00000000000000000 1.00000000000000000 -0.00000000000000000 0.00000000000000000 0.34999999999999998
1 0.00000000000000000 34.79999999999999716 1.00000000000000000 -0.00000000000000000 -1.00000000000000000 -0.00000000000000000 0.00000000000000000 0.00000000000000000 -1.00000000000000000 1.00000000000000000 -0.00000000000000000 0.00000000000000000 
Triangulations 0

TShapes 31
Ve
0.000000100000000
0.000000000000000 34.279061533241006 16.326923788646681
0 0

0101101
*
Ve
0.000000100000016
0.000000000000000 32.779061533241006 18.924999999999997
0 0

0101101
*
Ed
 0.000000100000000 1 1 0
1  1 0 0.000000000000000 3.000000000000000
3  1 2CN 1 0 0.000000000000000 3.000000000000000
0

0101000
+31 3 -30 3 *
Ed
 0.000000100000000 1 1 0
1  2 0 0.000000000000000 6.283185307179586
2  3 1 0 0.000000000000000 6.283185307179586
0

0101000
+31 3 -31 3 *
Ve
0.000000100000016
-0.000000000000008 32.172843750591902 18.574999999999999
0 0

0101101
*
Ed
 0.000000100000013 1 1 0
1  3 0 0.000000000000000 3.141592653589793
2  4 1 0 0.000000000000000 3.141592653589793
2  5 2 7 0.000000000000000 3.141592653589793
0

0101000
+30 3 -27 3 *
Ed
 0.000000100000016 1 1 0
1  4 0 3.141592653589793 6.283185307179586
2  6 1 0 3.141592653589793 6.283185307179586
2  7 2 7 3.141592653589793 6.283185307179586
0

0101000
+27 3 -30 3 *
Wi

0101100
+29 0 +28 0 -29 0 -26 0 -25 0 *
Fa
0  0.000000100000000 1 0

0111000
+24 0 *
Wi

0101100
-28 0 *
Fa
0  0.000000100000000 3 0

0111000
-22 0 *
Ve
0.000000100000027
-0.000000000000004 37.150000000000006 -0.000000000000011
0 0

0101101
*
Ed
 0.000000100000000 1 1 0
1  5 0 0.000000000000000 5.759586531581287
3  8 9CN 2 0 0.000000000000000 5.759586531581287
0

0101000
+27 8 -20 8 *
Ed
 0.000000100000027 1 1 0
1  6 0 -3.141592653589793 3.141592653589793
2  10 2 0 -3.141592653589793 3.141592653589793
2  11 4 12 -3.141592653589793 3.141592653589793
0

0101000
+20 8 -20 8 *
Wi

0101100
+25 0 -19 7 +18 7 +19 7 +26 0 *
Fa
0  0.000000100000000 2 7

0111000
+17 0 *
Ve
0.000000100000000
0.000000000000000 36.500000000000000 0.650000000000000
0 0

0101101
*
Ed
 0.000000100000000 1 1 0
1  7 0 0.000000000000000 1.570796326794897
3  12 13CN 4 0 0.000000000000000 1.570796326794897
0

0101000
+20 14 -15 14 *
Ed
 0.000000100000000 1 1 0
1  8 0 -3.141592653589793 3.141592653589793
2  14 4 0 -3.141592653589793 3.141592653589793
2  15 5 15 -3.141592653589793 3.141592653589793
0

0101000
+15 14 -15 14 *
Wi

0101100
-14 13 +13 13 +14 13 -18 7 *
Fa
0  0.000000100000000 4 13

0111000
+12 0 *
Ve
0.000000100000000
-0.000000000000000 34.799999999999997 0.650000000000000
0 0

0101101
*
Ed
 0.000000100000000 1 1 0
1  9 0 0.000000000000000 6.283185307179586
2  16 5 0 0.000000000000000 6.283185307179586
0

0101000
+10 3 -10 3 *
Ed
 0.000000100000000 1 1 0
1  10 0 0.000000000000000 1.700000000000003
3  17 18CN 5 0 0.000000000000000 1.700000000000003
0

0101000
+15 3 -10 3 *
Wi

0101100
-9 0 +8 0 -13 13 -8 0 *
Fa
0  0.000000100000000 5 0

0111000
+7 0 *
Wi

0101100
+9 0 *
Fa
0  0.000000100000000 6 0

0111000
+5 0 *
Sh

0101100
+23 0 -21 0 +16 0 +11 0 +6 0 +4 0 *
So

0100000
+3 0 *
Co

1100000
+2 0 *

+1 1 