
CASCADE Topology V1, (c) Matra-Datavision
Locations 3
1
1.000000000000000 0.000000000000000 0.000000000000000 0.000000000000000 
0.000000000000000 1.000000000000000 0.000000000000000 0.000000000000000 
0.000000000000000 0.000000000000000 1.000000000000000 0.000000000000000 
1
1.000000000000000 0.000000000000000 0.000000000000000 0.000000000000000 
0.000000000000000 1.000000000000000 0.000000000000000 0.000000000000000 
0.000000000000000 0.000000000000000 1.000000000000000 0.000000000000000 
2  2 -1 0
Curve2ds 20
1 0.00000000000000000 7.00000000000034106 1.00000000000000000 0.00000000000000000 
1 0.00000000000000000 7.00000000000034106 1.00000000000000000 0.00000000000000000 
1 0.00000000000000000 7.00000000000034106 1.00000000000000000 0.00000000000000000 
1 0.00000000000000000 7.00000000000034106 1.00000000000000000 0.00000000000000000 
1 0.00000000000000000 7.00000000000034106 1.00000000000000000 0.00000000000000000 
1 6.28318530717958623 -0.00000000000000000 0.00000000000000000 1.00000000000000000 
1 0.00000000000000000 -0.00000000000000000 0.00000000000000000 1.00000000000000000 
1 0.00000000000000000 1.00000000000011369 1.00000000000000000 0.00000000000000000 
1 6.28318530717958623 -0.00000000000000000 0.00000000000000000 1.00000000000000000 
1 0.00000000000000000 -0.00000000000000000 0.00000000000000000 1.00000000000000000 
1 0.00000000000000000 1.00000000000011369 1.00000000000000000 0.00000000000000000 
1 6.28318530717958623 -0.00000000000000000 0.00000000000000000 1.00000000000000000 
1 0.00000000000000000 -0.00000000000000000 0.00000000000000000 1.00000000000000000 
1 0.00000000000000000 1.00000000000011369 1.00000000000000000 0.00000000000000000 
1 6.28318530717958623 -0.00000000000000000 0.00000000000000000 1.00000000000000000 
1 0.00000000000000000 -0.00000000000000000 0.00000000000000000 1.00000000000000000 
1 0.00000000000000000 1.00000000000011369 1.00000000000000000 0.00000000000000000 
1 6.28318530717958623 -0.00000000000000000 0.00000000000000000 1.00000000000000000 
1 0.00000000000000000 -0.00000000000000000 0.00000000000000000 1.00000000000000000 
1 0.00000000000000000 1.00000000000011369 1.00000000000000000 0.00000000000000000 
Curves 27
1 3831.75700867095520152 -1165.22499999999990905 533.04999999999995453 1.00000000000000000 0.00000000000000000 0.00000000000000000 
1 3190.00000000000000000 -583.11249999999995453 533.05000000000029559 0.00000000000000000 1.00000000000000000 0.00000000000000000 
1 3970.00000000000000000 -583.11249999999995453 533.05000000000029559 0.00000000000000000 1.00000000000000000 0.00000000000000000 
1 2227.63566955698479433 1165.22499999999990905 533.05000000000018190 1.00000000000000000 0.00000000000000000 0.00000000000000000 
2 3840.00000000000000000 -850.00000000000000000 533.05000000000029559 0.00000000000000000 0.00000000000000000 1.00000000000000000 1.00000000000000000 0.00000000000000000 -0.00000000000000000 -0.00000000000000000 1.00000000000000000 0.00000000000000000 8.83124999999999893
2 3840.00000000000000000 -425.00000000000000000 533.05000000000029559 0.00000000000000000 0.00000000000000000 1.00000000000000000 1.00000000000000000 0.00000000000000000 -0.00000000000000000 -0.00000000000000000 1.00000000000000000 0.00000000000000000 8.83124999999999893
2 3840.00000000000000000 0.00000000000000000 533.05000000000029559 0.00000000000000000 0.00000000000000000 1.00000000000000000 1.00000000000000000 0.00000000000000000 -0.00000000000000000 -0.00000000000000000 1.00000000000000000 0.00000000000000000 8.83124999999999893
2 3840.00000000000000000 425.00000000000000000 533.05000000000029559 0.00000000000000000 0.00000000000000000 1.00000000000000000 1.00000000000000000 0.00000000000000000 -0.00000000000000000 -0.00000000000000000 1.00000000000000000 0.00000000000000000 8.83124999999999893
2 3840.00000000000000000 850.00000000000000000 533.05000000000029559 0.00000000000000000 0.00000000000000000 1.00000000000000000 1.00000000000000000 0.00000000000000000 -0.00000000000000000 -0.00000000000000000 1.00000000000000000 0.00000000000000000 8.83124999999999893
1 4633.81767822794063250 -1165.22499999999990905 527.04999999999995453 -1.00000000000000000 0.00000000000000000 0.00000000000000000 
1 3190.00000000000000000 -1165.22499999999990905 528.04999999999995453 0.00000000000000000 0.00000000000000000 1.00000000000000000 
1 3970.00000000000000000 -1165.22499999999990905 528.04999999999995453 0.00000000000000000 0.00000000000000000 1.00000000000000000 
1 3190.00000000000000000 -583.11249999999995453 527.05000000000006821 0.00000000000000000 -1.00000000000000000 0.00000000000000000 
1 3190.00000000000000000 1165.22499999999945430 528.04999999999995453 0.00000000000000000 0.00000000000000000 -1.00000000000000000 
1 3970.00000000000000000 -583.11249999999995453 527.05000000000006821 0.00000000000000000 -1.00000000000000000 0.00000000000000000 
1 3970.00000000000000000 1165.22499999999945430 528.04999999999995453 0.00000000000000000 0.00000000000000000 -1.00000000000000000 
1 3029.69633911397022530 1165.22499999999990905 527.05000000000018190 -1.00000000000000000 0.00000000000000000 0.00000000000000000 
1 3848.83125000000018190 -850.00000000000000000 526.04999999999995453 0.00000000000000000 0.00000000000000000 1.00000000000000000 
2 3840.00000000000000000 -850.00000000000000000 527.05000000000006821 0.00000000000000000 0.00000000000000000 1.00000000000000000 1.00000000000000000 0.00000000000000000 -0.00000000000000000 -0.00000000000000000 1.00000000000000000 0.00000000000000000 8.83124999999999893
1 3848.83125000000018190 -425.00000000000000000 526.04999999999995453 0.00000000000000000 0.00000000000000000 1.00000000000000000 
2 3840.00000000000000000 -425.00000000000000000 527.05000000000006821 0.00000000000000000 0.00000000000000000 1.00000000000000000 1.00000000000000000 0.00000000000000000 -0.00000000000000000 -0.00000000000000000 1.00000000000000000 0.00000000000000000 8.83124999999999893
1 3848.83125000000018190 -0.00000000000000216 526.04999999999995453 0.00000000000000000 0.00000000000000000 1.00000000000000000 
2 3840.00000000000000000 0.00000000000000000 527.05000000000006821 0.00000000000000000 0.00000000000000000 1.00000000000000000 1.00000000000000000 0.00000000000000000 -0.00000000000000000 -0.00000000000000000 1.00000000000000000 0.00000000000000000 8.83124999999999893
1 3848.83125000000018190 425.00000000000000000 526.04999999999995453 0.00000000000000000 0.00000000000000000 1.00000000000000000 
2 3840.00000000000000000 425.00000000000000000 527.05000000000006821 0.00000000000000000 0.00000000000000000 1.00000000000000000 1.00000000000000000 0.00000000000000000 -0.00000000000000000 -0.00000000000000000 1.00000000000000000 0.00000000000000000 8.83124999999999893
1 3848.83125000000018190 850.00000000000000000 526.04999999999995453 0.00000000000000000 0.00000000000000000 1.00000000000000000 
2 3840.00000000000000000 850.00000000000000000 527.05000000000006821 0.00000000000000000 0.00000000000000000 1.00000000000000000 1.00000000000000000 0.00000000000000000 -0.00000000000000000 -0.00000000000000000 1.00000000000000000 0.00000000000000000 8.83124999999999893
Polygon3D 0
PolygonOnTriangulations 0
Surfaces 11
1 3430.72667389246316816 0.00000000000002458 533.05000000000029559 0.00000000000000000 0.00000000000000000 1.00000000000000000 1.00000000000000000 0.00000000000000000 -0.00000000000000000 -0.00000000000000000 1.00000000000000000 0.00000000000000000 
2 3840.00000000000000000 -850.00000000000000000 526.04999999999995453 0.00000000000000000 0.00000000000000000 1.00000000000000000 1.00000000000000000 0.00000000000000000 -0.00000000000000000 -0.00000000000000000 1.00000000000000000 0.00000000000000000 8.83124999999999893
2 3840.00000000000000000 -425.00000000000000000 526.04999999999995453 0.00000000000000000 0.00000000000000000 1.00000000000000000 1.00000000000000000 0.00000000000000000 -0.00000000000000000 -0.00000000000000000 1.00000000000000000 0.00000000000000000 8.83124999999999893
2 3840.00000000000000000 0.00000000000000000 526.04999999999995453 0.00000000000000000 0.00000000000000000 1.00000000000000000 1.00000000000000000 0.00000000000000000 -0.00000000000000000 -0.00000000000000000 1.00000000000000000 0.00000000000000000 8.83124999999999893
2 3840.00000000000000000 425.00000000000000000 526.04999999999995453 0.00000000000000000 0.00000000000000000 1.00000000000000000 1.00000000000000000 0.00000000000000000 -0.00000000000000000 -0.00000000000000000 1.00000000000000000 0.00000000000000000 8.83124999999999893
2 3840.00000000000000000 850.00000000000000000 526.04999999999995453 0.00000000000000000 0.00000000000000000 1.00000000000000000 1.00000000000000000 0.00000000000000000 -0.00000000000000000 -0.00000000000000000 1.00000000000000000 0.00000000000000000 8.83124999999999893
1 3430.72667389246225866 -1165.22499999999990905 530.04999999999995453 -0.00000000000000000 -1.00000000000000000 -0.00000000000000000 0.00000000000000000 0.00000000000000000 -1.00000000000000000 1.00000000000000000 -0.00000000000000000 0.00000000000000000 
1 3190.00000000000000000 -1166.22499999999990905 526.04999999999995453 1.00000000000000000 0.00000000000000000 0.00000000000000000 0.00000000000000000 0.00000000000000000 1.00000000000000000 0.00000000000000000 -1.00000000000000000 0.00000000000000000 
1 3970.00000000000000000 -1166.22499999999990905 526.04999999999995453 1.00000000000000000 0.00000000000000000 0.00000000000000000 0.00000000000000000 0.00000000000000000 1.00000000000000000 0.00000000000000000 -1.00000000000000000 0.00000000000000000 
1 3430.72667389246225866 1165.22499999999945430 530.04999999999995453 0.00000000000000000 1.00000000000000000 0.00000000000000000 0.00000000000000000 -0.00000000000000000 1.00000000000000000 1.00000000000000000 0.00000000000000000 -0.00000000000000000 
1 3430.72667389246316816 -0.00000000000002458 527.05000000000006821 -0.00000000000000000 -0.00000000000000000 -1.00000000000000000 -1.00000000000000000 0.00000000000000000 0.00000000000000000 0.00000000000000000 1.00000000000000000 -0.00000000000000000 
Triangulations 0

TShapes 80
Ve
0.000000150000341
3190.000000000000000 -1165.224999999999909 533.049999999999955
0 0

0101101
*
Ve
0.000000150000341
3970.000000000000000 -1165.224999999999909 533.049999999999955
0 0

0101101
*
Ed
 0.000000100000000 1 1 0
1  1 0 -641.757008670955202 138.242991329044798
0

0101000
+80 3 -79 3 *
Ve
0.000000150000455
3190.000000000000000 1165.224999999999909 533.050000000000182
0 0

0101101
*
Ed
 0.000000150000000 1 1 0
1  2 0 -582.112499999999955 1748.337499999999864
0

0101000
+80 3 -77 3 *
Ve
0.000000150000455
3970.000000000000000 1165.224999999999909 533.050000000000182
0 0

0101101
*
Ed
 0.000000150000000 1 1 0
1  3 0 -582.112499999999955 1748.337499999999864
0

0101000
+79 3 -75 3 *
Ed
 0.000000100000000 1 1 0
1  4 0 962.364330443015206 1742.364330443015206
0

0101000
+77 3 -75 3 *
Wi

0101100
+78 0 -76 0 +74 0 -73 0 *
Ve
0.000000100000000
3848.831250000000182 -850.000000000000000 533.050000000000296
0 0

0101101
*
Ed
 0.000000100000000 1 1 0
1  5 0 0.000000000000000 6.283185307179586
2  1 2 0 0.000000000000000 6.283185307179586
0

0101100
+71 3 -71 3 *
Wi

0101100
-70 0 *
Ve
0.000000100000000
3848.831250000000182 -425.000000000000000 533.050000000000296
0 0

0101101
*
Ed
 0.000000100000000 1 1 0
1  6 0 0.000000000000000 6.283185307179586
2  2 3 0 0.000000000000000 6.283185307179586
0

0101100
+68 3 -68 3 *
Wi

0101100
-67 0 *
Ve
0.000000100000002
3848.831250000000182 -0.000000000000002 533.050000000000296
0 0

0101101
*
Ed
 0.000000100000000 1 1 0
1  7 0 0.000000000000000 6.283185307179586
2  3 4 0 0.000000000000000 6.283185307179586
0

0101100
+65 3 -65 3 *
Wi

0101100
-64 0 *
Ve
0.000000100000000
3848.831250000000182 425.000000000000000 533.050000000000296
0 0

0101101
*
Ed
 0.000000100000000 1 1 0
1  8 0 0.000000000000000 6.283185307179586
2  4 5 0 0.000000000000000 6.283185307179586
0

0101100
+62 3 -62 3 *
Wi

0101100
-61 0 *
Ve
0.000000100000000
3848.831250000000182 850.000000000000000 533.050000000000296
0 0

0101101
*
Ed
 0.000000100000000 1 1 0
1  9 0 0.000000000000000 6.283185307179586
2  5 6 0 0.000000000000000 6.283185307179586
0

0101100
+59 3 -59 3 *
Wi

0101100
-58 0 *
Fa
0  0.000000100000000 1 0

0111000
+72 0 +69 0 +66 0 +63 0 +60 0 +57 0 *
Ve
0.000000150000114
3970.000000000000000 -1165.224999999999909 527.049999999999955
0 0

0101101
*
Ve
0.000000150000114
3190.000000000000000 -1165.224999999999909 527.049999999999955
0 0

0101101
*
Ed
 0.000000100000000 1 1 0
1  10 0 663.817678227940632 1443.817678227940632
0

0101000
+55 3 -54 3 *
Ed
 0.000000150000000 1 1 0
1  11 0 -1.000000000000000 5.000000000000000
0

0101000
+54 3 -80 3 *
Ed
 0.000000150000000 1 1 0
1  12 0 -1.000000000000000 5.000000000000000
0

0101000
+55 3 -79 3 *
Wi

0101100
-53 0 -52 0 -78 0 +51 0 *
Fa
0  0.000000100000000 7 0

0111000
+50 0 *
Ve
0.000000150000455
3190.000000000000000 1165.224999999999909 527.050000000000182
0 0

0101101
*
Ed
 0.000000150000000 1 1 0
1  13 0 -1748.337499999999864 582.112499999999955
0

0101000
+48 3 -54 3 *
Ed
 0.000000150000000 1 1 0
1  14 0 -5.000000000000227 0.999999999999773
0

0101000
+77 3 -48 3 *
Wi

0101100
-47 0 -52 0 -76 0 -46 0 *
Fa
0  0.000000100000000 8 0

0111000
+45 0 *
Ve
0.000000150000455
3970.000000000000000 1165.224999999999909 527.050000000000182
0 0

0101101
*
Ed
 0.000000150000000 1 1 0
1  15 0 -1748.337499999999864 582.112499999999955
0

0101000
+43 3 -55 3 *
Ed
 0.000000150000000 1 1 0
1  16 0 -5.000000000000227 0.999999999999773
0

0101000
+75 3 -43 3 *
Wi

0101100
-42 0 -51 0 -74 0 -41 0 *
Fa
0  0.000000100000000 9 0

0111000
+40 0 *
Ed
 0.000000100000000 1 1 0
1  17 0 -940.303660886029775 -160.303660886029775
0

0101000
+43 3 -48 3 *
Wi

0101100
+41 0 +73 0 -46 0 +38 0 *
Fa
0  0.000000100000000 10 0

0111000
+37 0 *
Ve
0.000000100000000
3848.831250000000182 -850.000000000000000 527.050000000000068
0 0

0101101
*
Ed
 0.000000100000000 1 1 0
1  18 0 1.000000000000114 7.000000000000341
3  6 7CN 2 0 1.000000000000114 7.000000000000341
0

0101000
+35 3 -71 3 *
Ed
 0.000000100000000 1 1 0
1  19 0 0.000000000000000 6.283185307179586
2  8 2 0 0.000000000000000 6.283185307179586
0

0101100
+35 3 -35 3 *
Wi

0101100
-70 0 +34 0 +33 0 -34 0 *
Fa
0  0.000000100000000 2 0

0111000
+32 0 *
Ve
0.000000100000000
3848.831250000000182 -425.000000000000000 527.050000000000068
0 0

0101101
*
Ed
 0.000000100000000 1 1 0
1  20 0 1.000000000000114 7.000000000000341
3  9 10CN 3 0 1.000000000000114 7.000000000000341
0

0101000
+30 3 -68 3 *
Ed
 0.000000100000000 1 1 0
1  21 0 0.000000000000000 6.283185307179586
2  11 3 0 0.000000000000000 6.283185307179586
0

0101100
+30 3 -30 3 *
Wi

0101100
-67 0 +29 0 +28 0 -29 0 *
Fa
0  0.000000100000000 3 0

0111000
+27 0 *
Ve
0.000000100000002
3848.831250000000182 -0.000000000000002 527.050000000000068
0 0

0101101
*
Ed
 0.000000100000000 1 1 0
1  22 0 1.000000000000114 7.000000000000341
3  12 13CN 4 0 1.000000000000114 7.000000000000341
0

0101000
+25 3 -65 3 *
Ed
 0.000000100000000 1 1 0
1  23 0 0.000000000000000 6.283185307179586
2  14 4 0 0.000000000000000 6.283185307179586
0

0101100
+25 3 -25 3 *
Wi

0101100
-64 0 +24 0 +23 0 -24 0 *
Fa
0  0.000000100000000 4 0

0111000
+22 0 *
Ve
0.000000100000000
3848.831250000000182 425.000000000000000 527.050000000000068
0 0

0101101
*
Ed
 0.000000100000000 1 1 0
1  24 0 1.000000000000114 7.000000000000341
3  15 16CN 5 0 1.000000000000114 7.000000000000341
0

0101000
+20 3 -62 3 *
Ed
 0.000000100000000 1 1 0
1  25 0 0.000000000000000 6.283185307179586
2  17 5 0 0.000000000000000 6.283185307179586
0

0101100
+20 3 -20 3 *
Wi

0101100
-61 0 +19 0 +18 0 -19 0 *
Fa
0  0.000000100000000 5 0

0111000
+17 0 *
Ve
0.000000100000000
3848.831250000000182 850.000000000000000 527.050000000000068
0 0

0101101
*
Ed
 0.000000100000000 1 1 0
1  26 0 1.000000000000114 7.000000000000341
3  18 19CN 6 0 1.000000000000114 7.000000000000341
0

0101000
+15 3 -59 3 *
Ed
 0.000000100000000 1 1 0
1  27 0 0.000000000000000 6.283185307179586
2  20 6 0 0.000000000000000 6.283185307179586
0

0101100
+15 3 -15 3 *
Wi

0101100
-58 0 +14 0 +13 0 -14 0 *
Fa
0  0.000000100000000 6 0

0111000
+12 0 *
Wi

0101100
+42 0 -38 0 +53 0 -47 0 *
Wi

0101100
+33 0 *
Wi

0101100
+28 0 *
Wi

0101100
+23 0 *
Wi

0101100
+18 0 *
Wi

0101100
+13 0 *
Fa
0  0.000000100000000 11 0

0111000
+10 0 +9 0 +8 0 +7 0 +6 0 +5 0 *
Sh

0101100
+56 0 +49 0 -44 0 +39 0 +36 0 -31 0 -26 0 -21 0 -16 0 -11 0 
+4 0 *
So

0100000
+3 0 *
Co

1100000
+2 0 *

+1 1 