
CASCADE Topology V1, (c) Matra-Datavision
Locations 74
1
1.000000000000000 0.000000000000000 0.000000000000000 0.000000000000000 
0.000000000000000 1.000000000000000 0.000000000000000 0.000000000000000 
0.000000000000000 0.000000000000000 1.000000000000000 0.000000000000000 
1
1.000000000000000 0.000000000000000 0.000000000000000 0.000000000000000 
0.000000000000000 1.000000000000000 0.000000000000000 0.000000000000000 
0.000000000000000 0.000000000000000 1.000000000000000 0.000000000000000 
1
1.000000000000000 0.000000000000000 0.000000000000000 0.000000000000000 
0.000000000000000 1.000000000000000 0.000000000000000 0.000000000000000 
0.000000000000000 0.000000000000000 1.000000000000000 0.000000000000000 
1
1.000000000000000 0.000000000000000 0.000000000000000 0.000000000000000 
0.000000000000000 1.000000000000000 0.000000000000000 0.000000000000000 
0.000000000000000 0.000000000000000 1.000000000000000 0.000000000000000 
2  2 1 3 1 4 1 0
1
1.000000000000000 0.000000000000000 0.000000000000000 0.000000000000000 
0.000000000000000 1.000000000000000 0.000000000000000 0.000000000000000 
0.000000000000000 0.000000000000000 1.000000000000000 0.000000000000000 
2  6 -1 4 -1 3 -1 2 -1 0
2  3 1 4 1 0
2  6 -1 4 -1 3 -1 0
1
1.000000000000000 0.000000000000000 0.000000000000000 0.000000000000000 
0.000000000000000 1.000000000000000 0.000000000000000 2290.000000000000000 
0.000000000000000 0.000000000000000 1.000000000000000 0.000000000000000 
2  10 1 2 1 3 1 4 1 0
2  6 -1 4 -1 3 -1 2 -1 10 -1 0
1
1.000000000000000 0.000000000000000 0.000000000000000 0.000000000000000 
0.000000000000000 1.000000000000000 0.000000000000000 1145.000000000000000 
0.000000000000000 0.000000000000000 1.000000000000000 0.000000000000000 
2  6 -1 0
1
1.000000000000000 0.000000000000000 0.000000000000000 0.000000000000000 
0.000000000000000 1.000000000000000 0.000000000000000 674.370000000000005 
0.000000000000000 0.000000000000000 1.000000000000000 0.000000000000000 
1
1.000000000000000 0.000000000000000 0.000000000000000 0.000000000000000 
0.000000000000000 1.000000000000000 0.000000000000000 1145.000000000000000 
0.000000000000000 0.000000000000000 1.000000000000000 0.000000000000000 
1
1.000000000000000 0.000000000000000 0.000000000000000 0.000000000000000 
0.000000000000000 1.000000000000000 0.000000000000000 674.370000000000005 
0.000000000000000 0.000000000000000 1.000000000000000 0.000000000000000 
1
1.000000000000000 0.000000000000000 0.000000000000000 0.000000000000000 
0.000000000000000 1.000000000000000 0.000000000000000 1145.000000000000000 
0.000000000000000 0.000000000000000 1.000000000000000 0.000000000000000 
1
1.000000000000000 0.000000000000000 0.000000000000000 0.000000000000000 
0.000000000000000 1.000000000000000 0.000000000000000 1145.000000000000000 
0.000000000000000 0.000000000000000 1.000000000000000 0.000000000000000 
1
1.000000000000000 0.000000000000000 0.000000000000000 0.000000000000000 
0.000000000000000 1.000000000000000 0.000000000000000 674.370000000000005 
0.000000000000000 0.000000000000000 1.000000000000000 0.000000000000000 
1
1.000000000000000 0.000000000000000 0.000000000000000 0.000000000000000 
0.000000000000000 1.000000000000000 0.000000000000000 674.370000000000005 
0.000000000000000 0.000000000000000 1.000000000000000 0.000000000000000 
1
1.000000000000000 0.000000000000000 0.000000000000000 0.000000000000000 
0.000000000000000 1.000000000000000 0.000000000000000 -674.370000000000005 
0.000000000000000 0.000000000000000 1.000000000000000 0.000000000000000 
1
1.000000000000000 0.000000000000000 0.000000000000000 0.000000000000000 
0.000000000000000 1.000000000000000 0.000000000000000 -1145.000000000000000 
0.000000000000000 0.000000000000000 1.000000000000000 0.000000000000000 
1
1.000000000000000 0.000000000000000 0.000000000000000 0.000000000000000 
0.000000000000000 1.000000000000000 0.000000000000000 -674.370000000000005 
0.000000000000000 0.000000000000000 1.000000000000000 0.000000000000000 
1
1.000000000000000 0.000000000000000 0.000000000000000 0.000000000000000 
0.000000000000000 1.000000000000000 0.000000000000000 -1145.000000000000000 
0.000000000000000 0.000000000000000 1.000000000000000 0.000000000000000 
1
1.000000000000000 0.000000000000000 0.000000000000000 0.000000000000000 
0.000000000000000 1.000000000000000 0.000000000000000 -674.370000000000005 
0.000000000000000 0.000000000000000 1.000000000000000 0.000000000000000 
1
1.000000000000000 0.000000000000000 0.000000000000000 0.000000000000000 
0.000000000000000 1.000000000000000 0.000000000000000 -674.370000000000005 
0.000000000000000 0.000000000000000 1.000000000000000 0.000000000000000 
1
1.000000000000000 0.000000000000000 0.000000000000000 0.000000000000000 
0.000000000000000 1.000000000000000 0.000000000000000 -1145.000000000000000 
0.000000000000000 0.000000000000000 1.000000000000000 0.000000000000000 
1
1.000000000000000 0.000000000000000 0.000000000000000 0.000000000000000 
0.000000000000000 1.000000000000000 0.000000000000000 -1145.000000000000000 
0.000000000000000 0.000000000000000 1.000000000000000 0.000000000000000 
1
1.000000000000000 0.000000000000000 0.000000000000000 0.000000000000000 
0.000000000000000 1.000000000000000 0.000000000000000 2290.000000000000000 
0.000000000000000 0.000000000000000 1.000000000000000 0.000000000000000 
2  30 1 3 1 0
2  6 -1 4 -1 3 -1 30 -1 0
2  2 1 3 1 0
1
1.000000000000000 0.000000000000000 0.000000000000000 227.148571428571358 
0.000000000000000 1.000000000000000 0.000000000000000 1017.632857142857119 
0.000000000000000 0.000000000000000 1.000000000000000 -318.636318786245056 
2  6 -1 4 -1 0
1
1.000000000000000 0.000000000000000 0.000000000000000 227.148571428571358 
0.000000000000000 1.000000000000000 0.000000000000000 1017.632857142857119 
0.000000000000000 0.000000000000000 1.000000000000000 -318.636318786245056 
1
1.000000000000000 0.000000000000000 0.000000000000000 227.148571428571358 
0.000000000000000 1.000000000000000 0.000000000000000 1017.632857142857119 
0.000000000000000 0.000000000000000 1.000000000000000 -318.636318786245056 
1
1.000000000000000 0.000000000000000 0.000000000000000 227.148571428571358 
0.000000000000000 1.000000000000000 0.000000000000000 674.370000000000005 
0.000000000000000 0.000000000000000 1.000000000000000 -318.636318786245056 
1
1.000000000000000 0.000000000000000 0.000000000000000 227.148571428571358 
0.000000000000000 1.000000000000000 0.000000000000000 674.370000000000005 
0.000000000000000 0.000000000000000 1.000000000000000 -318.636318786245056 
1
1.000000000000000 0.000000000000000 0.000000000000000 227.148571428571358 
0.000000000000000 1.000000000000000 0.000000000000000 -674.369999999999891 
0.000000000000000 0.000000000000000 1.000000000000000 -318.636318786245056 
1
1.000000000000000 0.000000000000000 0.000000000000000 227.148571428571358 
0.000000000000000 1.000000000000000 0.000000000000000 -674.369999999999891 
0.000000000000000 0.000000000000000 1.000000000000000 -318.636318786245056 
1
1.000000000000000 0.000000000000000 0.000000000000000 227.148571428571358 
0.000000000000000 1.000000000000000 0.000000000000000 -1017.632857142857119 
0.000000000000000 0.000000000000000 1.000000000000000 -318.636318786245056 
1
1.000000000000000 0.000000000000000 0.000000000000000 227.148571428571358 
0.000000000000000 1.000000000000000 0.000000000000000 -1017.632857142857119 
0.000000000000000 0.000000000000000 1.000000000000000 -318.636318786245056 
1
1.000000000000000 0.000000000000000 0.000000000000000 227.148571428571358 
0.000000000000000 1.000000000000000 0.000000000000000 -1017.632857142857119 
0.000000000000000 0.000000000000000 1.000000000000000 -318.636318786245056 
1
1.000000000000000 0.000000000000000 0.000000000000000 0.000000000000000 
0.000000000000000 1.000000000000000 0.000000000000000 2290.000000000000000 
0.000000000000000 0.000000000000000 1.000000000000000 0.000000000000000 
2  6 -1 4 -1 3 -1 45 -1 0
2  10 1 2 1 0
2  6 -1 13 -1 0
2  6 -1 15 -1 0
2  6 -1 16 -1 0
2  6 -1 17 -1 0
2  6 -1 18 -1 0
2  6 -1 19 -1 0
2  6 -1 20 -1 0
2  6 -1 21 -1 0
2  6 -1 22 -1 0
2  6 -1 23 -1 0
2  6 -1 24 -1 0
2  6 -1 25 -1 0
2  6 -1 26 -1 0
2  6 -1 27 -1 0
2  6 -1 28 -1 0
2  6 -1 29 -1 0
2  10 1 2 1 3 1 0
2  6 -1 4 -1 34 -1 0
2  6 -1 4 -1 36 -1 0
2  6 -1 4 -1 37 -1 0
2  6 -1 4 -1 38 -1 0
2  6 -1 4 -1 39 -1 0
2  6 -1 4 -1 40 -1 0
2  6 -1 4 -1 41 -1 0
2  6 -1 4 -1 42 -1 0
2  6 -1 4 -1 43 -1 0
2  6 -1 4 -1 44 -1 0
Curve2ds 112
1 0.00000000000000000 17.00000000000000000 1.00000000000000000 0.00000000000000000 
1 0.00000000000000000 17.00000000000000000 1.00000000000000000 0.00000000000000000 
1 0.00000000000000000 17.00000000000000000 1.00000000000000000 0.00000000000000000 
1 0.00000000000000000 17.00000000000000000 1.00000000000000000 0.00000000000000000 
1 0.00000000000000000 17.00000000000000000 1.00000000000000000 0.00000000000000000 
1 0.00000000000000000 17.00000000000000000 1.00000000000000000 0.00000000000000000 
1 0.00000000000000000 17.00000000000000000 1.00000000000000000 0.00000000000000000 
1 0.00000000000000000 17.00000000000000000 1.00000000000000000 0.00000000000000000 
1 0.00000000000000000 17.00000000000000000 1.00000000000000000 0.00000000000000000 
1 0.00000000000000000 17.00000000000000000 1.00000000000000000 0.00000000000000000 
1 0.00000000000000000 17.00000000000000000 1.00000000000000000 0.00000000000000000 
1 0.00000000000000000 17.00000000000000000 1.00000000000000000 0.00000000000000000 
1 0.00000000000000000 17.00000000000000000 1.00000000000000000 0.00000000000000000 
1 0.00000000000000000 17.00000000000000000 1.00000000000000000 0.00000000000000000 
1 0.00000000000000000 17.00000000000000000 1.00000000000000000 0.00000000000000000 
1 0.00000000000000000 17.00000000000000000 1.00000000000000000 0.00000000000000000 
7 0 0  8 30 5  0.00000000000000000 3.54047619047619211  0.19634954084936207 3.54047619047619211  0.39269908169888135 3.49987666136880771  0.58904862254779289 3.41868251117514887  0.78539816339747404 3.30021798912434861  0.98174770424713387 3.15118739033417228  1.17809724509601121 2.98089114319862603  1.37444678594553449 2.79996969597310574  1.86532063806893955 2.34766450365939683  2.15984494934264148 2.07628040485474230  2.45436926060028782 1.84077664313281275  2.74889357190477313 1.67698243845734396  3.04341788314377482 1.61094738767042145  3.33794219443871043 1.64829854462936964  3.63246650571319840 1.77560238662090075  4.07425297262426334 2.06344764840671901  4.22151512826098774 2.17554417333875350  4.36877728389993081 2.30061796884733383  4.51603943953659837 2.43475183424084207  4.66330159517258380 2.57349990562555320  4.81056375081021059 2.71219849744867147  4.95782590644639143 2.84630041455300375  5.25235021772043531 3.09702572032933299  5.39961237335759403 3.21364901724228513  5.54687452899483446 3.31739079925675640  5.69413668463221256 3.40451120923989947  5.84139884026882328 3.47196599959055163  5.98866099590493839 3.51763927265711196  6.13592315154255807 3.54047619047619211  6.28318530717958001 3.54047619047619211 
 0.00000000000000000 9 1.57079632679489967 7 3.92699081698724894 7 5.10508806208342225 7 6.28318530717958623 9
7 0 0  8 30 5  0.00000000000000000 3.54047619047614504  0.19634954084936207 3.54047619047614504  0.39269908169879608 3.49987666136939257  0.58904862254796342 3.41868251117544730  0.78539816339741719 3.30021798912457598  0.98174770424688163 3.15118739033420070  1.17809724509607516 2.98089114319810289  1.37444678594553449 2.79996969597305778  1.86532063806893955 2.34766450365934887  2.15984494934446047 2.07628040485701604  2.45436926059664984 1.84077664311917033  2.74889357190113515 1.67698243847644335  3.04341788314923178 1.61094738765768852  3.33794219444007467 1.64829854463278025  3.63246650571320284 1.77560238662085279  4.07425297262426778 2.06344764840667105  4.22151512826081809 2.17554417333865624  4.36877728390012976 2.30061796884729119  4.51603943953568887 2.43475183424061470  4.66330159517107745 2.57349990562526898  4.81056375081004006 2.71219849744865904  4.95782590644639143 2.84630041455295535  5.25235021772043531 3.09702572032928591  5.39961237335776456 3.21364901724227359  5.54687452899435129 3.31739079925618796  5.69413668463039357 3.40451120923944472  5.84139884026788536 3.47196599959029584  5.98866099590645717 3.51763927265658882  6.13592315154249413 3.54047619047614504  6.28318530717951607 3.54047619047614504 
 0.00000000000000000 9 1.57079632679489767 7 3.92699081698724406 7 5.10508806208341959 7 6.28318530717958623 9
7 0 0  8 30 5  0.00000000000000000 3.54047619047614504  0.19634954084936207 3.54047619047614504  0.39269908169862555 3.49987666136939257  0.58904862254823342 3.41868251117544730  0.78539816339741719 3.30021798912457598  0.98174770424657964 3.15118739033420070  1.17809724509618174 2.98089114319810289  1.37444678594553449 2.79996969597305778  1.86532063806893955 2.34766450365934887  2.15984494934173199 2.07628040485701604  2.45436926061120175 1.84077664311917033  2.74889357189385919 1.67698243847644335  3.04341788315468875 1.61094738765768852  3.33794219443780094 1.64829854463278025  3.63246650571320284 1.77560238662085279  4.07425297262426778 2.06344764840667105  4.22151512826081809 2.17554417333865624  4.36877728390012976 2.30061796884729119  4.51603943953568887 2.43475183424061470  4.66330159517107745 2.57349990562526898  4.81056375081004006 2.71219849744865904  4.95782590644639143 2.84630041455295535  5.25235021772043531 3.09702572032928591  5.39961237335725297 3.21364901724227359  5.54687452899494815 3.31739079925618796  5.69413668463107570 3.40451120923944472  5.84139884026754430 3.47196599959029584  5.98866099590578926 3.51763927265658882  6.13592315154255363 3.54047619047614504  6.28318530717957380 3.54047619047614504 
 0.00000000000000000 9 1.57079632679489767 7 3.92699081698724406 7 5.10508806208341959 7 6.28318530717958623 9
7 0 0  8 30 5  0.00000000000000000 3.54047619047614504  0.19634954084936207 3.54047619047614504  0.39269908169862555 3.49987666136939257  0.58904862254823342 3.41868251117544730  0.78539816339741719 3.30021798912457598  0.98174770424657964 3.15118739033420070  1.17809724509618174 2.98089114319810289  1.37444678594553449 2.79996969597305778  1.86532063806893955 2.34766450365934887  2.15984494934082250 2.07628040485701604  2.45436926062393468 1.84077664311917033  2.74889357187566929 1.67698243847644335  3.04341788317287865 1.61094738765768852  3.33794219443643669 1.64829854463278025  3.63246650571319440 1.77560238662085279  4.07425297262425801 2.06344764840667105  4.22151512826064490 2.17554417333865624  4.36877728389862341 2.30061796884729119  4.51603943953523412 2.43475183424061470  4.66330159517184484 2.57349990562526898  4.81056375080986953 2.71219849744865904  4.95782590644639143 2.84630041455295535  5.25235021772043531 3.09702572032928591  5.39961237335691191 3.21364901724227359  5.54687452899477762 3.31739079925618796  5.69413668463107570 3.40451120923944472  5.84139884026720324 3.47196599959029584  5.98866099590510714 3.51763927265658882  6.13592315154255363 3.54047619047614504  6.28318530717957380 3.54047619047614504 
 0.00000000000000000 9 1.57079632679490322 7 3.92699081698725827 7 5.10508806208342669 7 6.28318530717958623 9
7 0 0  8 30 5  0.00000000000000000 3.54047619047614504  0.19634954084936207 3.54047619047614504  0.39269908169862555 3.49987666136939257  0.58904862254823342 3.41868251117544730  0.78539816339741719 3.30021798912457598  0.98174770424657964 3.15118739033420070  1.17809724509618174 2.98089114319810289  1.37444678594553449 2.79996969597305778  1.86532063806893955 2.34766450365934887  2.15984494934082250 2.07628040485701604  2.45436926062393468 1.84077664311917033  2.74889357187566929 1.67698243847644335  3.04341788317287865 1.61094738765768852  3.33794219443643669 1.64829854463278025  3.63246650571319440 1.77560238662085279  4.07425297262425801 2.06344764840667105  4.22151512826064490 2.17554417333865624  4.36877728389862341 2.30061796884729119  4.51603943953523412 2.43475183424061470  4.66330159517184484 2.57349990562526898  4.81056375080986953 2.71219849744865904  4.95782590644639143 2.84630041455295535  5.25235021772043531 3.09702572032928591  5.39961237335691191 3.21364901724227359  5.54687452899477762 3.31739079925618796  5.69413668463107570 3.40451120923944472  5.84139884026720324 3.47196599959029584  5.98866099590510714 3.51763927265658882  6.13592315154255363 3.54047619047614504  6.28318530717957380 3.54047619047614504 
 0.00000000000000000 9 1.57079632679490322 7 3.92699081698725827 7 5.10508806208342669 7 6.28318530717958623 9
7 0 0  8 30 5  0.00000000000000000 3.54047619047614504  0.19634954084936207 3.54047619047614504  0.39269908169862555 3.49987666136939257  0.58904862254823342 3.41868251117544730  0.78539816339741719 3.30021798912457598  0.98174770424657964 3.15118739033420070  1.17809724509618174 2.98089114319810289  1.37444678594553449 2.79996969597305778  1.86532063806893955 2.34766450365934887  2.15984494934082250 2.07628040485701604  2.45436926062393468 1.84077664311917033  2.74889357187566929 1.67698243847644335  3.04341788317287865 1.61094738765768852  3.33794219443643669 1.64829854463278025  3.63246650571319440 1.77560238662085279  4.07425297262425801 2.06344764840667105  4.22151512826064490 2.17554417333865624  4.36877728389862341 2.30061796884729119  4.51603943953523412 2.43475183424061470  4.66330159517184484 2.57349990562526898  4.81056375080986953 2.71219849744865904  4.95782590644639143 2.84630041455295535  5.25235021772043531 3.09702572032928591  5.39961237335691191 3.21364901724227359  5.54687452899477762 3.31739079925618796  5.69413668463107570 3.40451120923944472  5.84139884026720324 3.47196599959029584  5.98866099590510714 3.51763927265658882  6.13592315154255363 3.54047619047614504  6.28318530717957380 3.54047619047614504 
 0.00000000000000000 9 1.57079632679490322 7 3.92699081698725827 7 5.10508806208342669 7 6.28318530717958623 9
7 0 0  8 30 5  0.00000000000000000 3.54047619047619211  0.19634954084936207 3.54047619047619211  0.39269908169888135 3.49987666136880771  0.58904862254779289 3.41868251117514887  0.78539816339747404 3.30021798912434861  0.98174770424713387 3.15118739033417228  1.17809724509601121 2.98089114319862603  1.37444678594553449 2.79996969597310574  1.86532063806893955 2.34766450365939683  2.15984494934264148 2.07628040485474230  2.45436926060028782 1.84077664313281275  2.74889357190477313 1.67698243845734396  3.04341788314377482 1.61094738767042145  3.33794219443871043 1.64829854462936964  3.63246650571319840 1.77560238662090075  4.07425297262426334 2.06344764840671901  4.22151512826098774 2.17554417333875350  4.36877728389993081 2.30061796884733383  4.51603943953659837 2.43475183424084207  4.66330159517258380 2.57349990562555320  4.81056375081021059 2.71219849744867147  4.95782590644639143 2.84630041455300375  5.25235021772043531 3.09702572032933299  5.39961237335759403 3.21364901724228513  5.54687452899483446 3.31739079925675640  5.69413668463221256 3.40451120923989947  5.84139884026882328 3.47196599959055163  5.98866099590493839 3.51763927265711196  6.13592315154255807 3.54047619047619211  6.28318530717958001 3.54047619047619211 
 0.00000000000000000 9 1.57079632679489967 7 3.92699081698724894 7 5.10508806208342225 7 6.28318530717958623 9
7 0 0  8 30 5  0.00000000000000000 3.54047619047614504  0.19634954084936207 3.54047619047614504  0.39269908169862555 3.49987666136939257  0.58904862254823342 3.41868251117544730  0.78539816339741719 3.30021798912457598  0.98174770424657964 3.15118739033420070  1.17809724509618174 2.98089114319810289  1.37444678594553449 2.79996969597305778  1.86532063806893955 2.34766450365934887  2.15984494934082250 2.07628040485701604  2.45436926062393468 1.84077664311917033  2.74889357187566929 1.67698243847644335  3.04341788317287865 1.61094738765768852  3.33794219443643669 1.64829854463278025  3.63246650571319440 1.77560238662085279  4.07425297262425801 2.06344764840667105  4.22151512826064490 2.17554417333865624  4.36877728389862341 2.30061796884729119  4.51603943953523412 2.43475183424061470  4.66330159517184484 2.57349990562526898  4.81056375080986953 2.71219849744865904  4.95782590644639143 2.84630041455295535  5.25235021772043531 3.09702572032928591  5.39961237335691191 3.21364901724227359  5.54687452899477762 3.31739079925618796  5.69413668463107570 3.40451120923944472  5.84139884026720324 3.47196599959029584  5.98866099590510714 3.51763927265658882  6.13592315154255363 3.54047619047614504  6.28318530717957380 3.54047619047614504 
 0.00000000000000000 9 1.57079632679490322 7 3.92699081698725827 7 5.10508806208342669 7 6.28318530717958623 9
7 0 0  8 30 5  0.00000000000000000 3.54047619047614504  0.19634954084936207 3.54047619047614504  0.39269908169862555 3.49987666136939257  0.58904862254823342 3.41868251117544730  0.78539816339741719 3.30021798912457598  0.98174770424657964 3.15118739033420070  1.17809724509618174 2.98089114319810289  1.37444678594553449 2.79996969597305778  1.86532063806893955 2.34766450365934887  2.15984494934082250 2.07628040485701604  2.45436926062393468 1.84077664311917033  2.74889357187566929 1.67698243847644335  3.04341788317287865 1.61094738765768852  3.33794219443643669 1.64829854463278025  3.63246650571319440 1.77560238662085279  4.07425297262425801 2.06344764840667105  4.22151512826064490 2.17554417333865624  4.36877728389862341 2.30061796884729119  4.51603943953523412 2.43475183424061470  4.66330159517184484 2.57349990562526898  4.81056375080986953 2.71219849744865904  4.95782590644639143 2.84630041455295535  5.25235021772043531 3.09702572032928591  5.39961237335691191 3.21364901724227359  5.54687452899477762 3.31739079925618796  5.69413668463107570 3.40451120923944472  5.84139884026720324 3.47196599959029584  5.98866099590510714 3.51763927265658882  6.13592315154255363 3.54047619047614504  6.28318530717957380 3.54047619047614504 
 0.00000000000000000 9 1.57079632679490322 7 3.92699081698725827 7 5.10508806208342669 7 6.28318530717958623 9
7 0 0  8 30 5  0.00000000000000000 3.54047619047614504  0.19634954084936207 3.54047619047614504  0.39269908169862555 3.49987666136939257  0.58904862254823342 3.41868251117544730  0.78539816339741719 3.30021798912457598  0.98174770424657964 3.15118739033420070  1.17809724509618174 2.98089114319810289  1.37444678594553449 2.79996969597305778  1.86532063806893955 2.34766450365934887  2.15984494934082250 2.07628040485701604  2.45436926062393468 1.84077664311917033  2.74889357187566929 1.67698243847644335  3.04341788317287865 1.61094738765768852  3.33794219443643669 1.64829854463278025  3.63246650571319440 1.77560238662085279  4.07425297262425801 2.06344764840667105  4.22151512826064490 2.17554417333865624  4.36877728389862341 2.30061796884729119  4.51603943953523412 2.43475183424061470  4.66330159517184484 2.57349990562526898  4.81056375080986953 2.71219849744865904  4.95782590644639143 2.84630041455295535  5.25235021772043531 3.09702572032928591  5.39961237335691191 3.21364901724227359  5.54687452899477762 3.31739079925618796  5.69413668463107570 3.40451120923944472  5.84139884026720324 3.47196599959029584  5.98866099590510714 3.51763927265658882  6.13592315154255363 3.54047619047614504  6.28318530717957380 3.54047619047614504 
 0.00000000000000000 9 1.57079632679490322 7 3.92699081698725827 7 5.10508806208342669 7 6.28318530717958623 9
7 0 0  8 30 5  0.00000000000000000 3.54047619047614504  0.19634954084936207 3.54047619047614504  0.39269908169871082 3.49987666136939257  0.58904862254806289 3.41868251117544730  0.78539816339741719 3.30021798912457598  0.98174770424675017 3.15118739033420070  1.17809724509609648 2.98089114319810289  1.37444678594553449 2.79996969597305778  1.86532063806893955 2.34766450365934887  2.15984494934264148 2.07628040485701604  2.45436926062029670 1.84077664311917033  2.74889357187566929 1.67698243847644335  3.04341788316560269 1.61094738765768852  3.33794219443734619 1.64829854463278025  3.63246650571319440 1.77560238662085279  4.07425297262425801 2.06344764840667105  4.22151512826064490 2.17554417333865624  4.36877728389862341 2.30061796884729119  4.51603943953523412 2.43475183424061470  4.66330159517184484 2.57349990562526898  4.81056375080986953 2.71219849744865904  4.95782590644639143 2.84630041455295535  5.25235021772043531 3.09702572032928591  5.39961237335691191 3.21364901724227359  5.54687452899477762 3.31739079925618796  5.69413668463107570 3.40451120923944472  5.84139884026720324 3.47196599959029584  5.98866099590510714 3.51763927265658882  6.13592315154255363 3.54047619047614504  6.28318530717957380 3.54047619047614504 
 0.00000000000000000 9 1.57079632679490322 7 3.92699081698725827 7 5.10508806208342669 7 6.28318530717958623 9
7 0 0  8 30 5  0.00000000000000000 3.54047619047614504  0.19634954084936207 3.54047619047614504  0.39269908169879608 3.49987666136939257  0.58904862254796342 3.41868251117544730  0.78539816339741719 3.30021798912457598  0.98174770424688163 3.15118739033420070  1.17809724509607516 2.98089114319810289  1.37444678594553449 2.79996969597305778  1.86532063806893955 2.34766450365934887  2.15984494934446047 2.07628040485701604  2.45436926059664984 1.84077664311917033  2.74889357190113515 1.67698243847644335  3.04341788314923178 1.61094738765768852  3.33794219444007467 1.64829854463278025  3.63246650571320284 1.77560238662085279  4.07425297262426778 2.06344764840667105  4.22151512826081809 2.17554417333865624  4.36877728390012976 2.30061796884729119  4.51603943953568887 2.43475183424061470  4.66330159517107745 2.57349990562526898  4.81056375081004006 2.71219849744865904  4.95782590644639143 2.84630041455295535  5.25235021772043531 3.09702572032928591  5.39961237335776456 3.21364901724227359  5.54687452899435129 3.31739079925618796  5.69413668463039357 3.40451120923944472  5.84139884026788536 3.47196599959029584  5.98866099590645717 3.51763927265658882  6.13592315154249413 3.54047619047614504  6.28318530717951607 3.54047619047614504 
 0.00000000000000000 9 1.57079632679489767 7 3.92699081698724406 7 5.10508806208341959 7 6.28318530717958623 9
1 6.28318530717958623 -0.00000000000000000 0.00000000000000000 1.00000000000000000 
1 0.00000000000000000 -0.00000000000000000 0.00000000000000000 1.00000000000000000 
1 0.00000000000000000 9.00000000000000000 1.00000000000000000 0.00000000000000000 
1 6.28318530717958623 -0.00000000000000000 0.00000000000000000 1.00000000000000000 
1 0.00000000000000000 -0.00000000000000000 0.00000000000000000 1.00000000000000000 
1 0.00000000000000000 9.00000000000000000 1.00000000000000000 0.00000000000000000 
1 6.28318530717958623 -0.00000000000000000 0.00000000000000000 1.00000000000000000 
1 0.00000000000000000 -0.00000000000000000 0.00000000000000000 1.00000000000000000 
1 0.00000000000000000 9.00000000000000000 1.00000000000000000 0.00000000000000000 
1 6.28318530717958623 -0.00000000000000000 0.00000000000000000 1.00000000000000000 
1 0.00000000000000000 -0.00000000000000000 0.00000000000000000 1.00000000000000000 
1 0.00000000000000000 9.00000000000000000 1.00000000000000000 0.00000000000000000 
1 6.28318530717958623 -0.00000000000000000 0.00000000000000000 1.00000000000000000 
1 0.00000000000000000 -0.00000000000000000 0.00000000000000000 1.00000000000000000 
1 0.00000000000000000 9.00000000000000000 1.00000000000000000 0.00000000000000000 
1 6.28318530717958623 -0.00000000000000000 0.00000000000000000 1.00000000000000000 
1 0.00000000000000000 -0.00000000000000000 0.00000000000000000 1.00000000000000000 
1 0.00000000000000000 9.00000000000000000 1.00000000000000000 0.00000000000000000 
1 6.28318530717958623 -0.00000000000000000 0.00000000000000000 1.00000000000000000 
1 0.00000000000000000 -0.00000000000000000 0.00000000000000000 1.00000000000000000 
1 0.00000000000000000 9.00000000000000000 1.00000000000000000 0.00000000000000000 
1 6.28318530717958623 -0.00000000000000000 0.00000000000000000 1.00000000000000000 
1 0.00000000000000000 -0.00000000000000000 0.00000000000000000 1.00000000000000000 
1 0.00000000000000000 9.00000000000000000 1.00000000000000000 0.00000000000000000 
1 6.28318530717958623 -0.00000000000000000 0.00000000000000000 1.00000000000000000 
1 0.00000000000000000 -0.00000000000000000 0.00000000000000000 1.00000000000000000 
1 0.00000000000000000 9.00000000000000000 1.00000000000000000 0.00000000000000000 
1 6.28318530717958623 -0.00000000000000000 0.00000000000000000 1.00000000000000000 
1 0.00000000000000000 -0.00000000000000000 0.00000000000000000 1.00000000000000000 
1 0.00000000000000000 9.00000000000000000 1.00000000000000000 0.00000000000000000 
1 6.28318530717958623 -0.00000000000000000 0.00000000000000000 1.00000000000000000 
1 0.00000000000000000 -0.00000000000000000 0.00000000000000000 1.00000000000000000 
1 0.00000000000000000 9.00000000000000000 1.00000000000000000 0.00000000000000000 
1 6.28318530717958623 -0.00000000000000000 0.00000000000000000 1.00000000000000000 
1 0.00000000000000000 -0.00000000000000000 0.00000000000000000 1.00000000000000000 
1 0.00000000000000000 9.00000000000000000 1.00000000000000000 0.00000000000000000 
1 6.28318530717958623 -0.00000000000000000 0.00000000000000000 1.00000000000000000 
1 0.00000000000000000 -0.00000000000000000 0.00000000000000000 1.00000000000000000 
1 0.00000000000000000 9.00000000000000000 1.00000000000000000 0.00000000000000000 
1 6.28318530717958623 -0.00000000000000000 0.00000000000000000 1.00000000000000000 
1 0.00000000000000000 -0.00000000000000000 0.00000000000000000 1.00000000000000000 
1 0.00000000000000000 9.00000000000000000 1.00000000000000000 0.00000000000000000 
1 6.28318530717958623 -0.00000000000000000 0.00000000000000000 1.00000000000000000 
1 0.00000000000000000 -0.00000000000000000 0.00000000000000000 1.00000000000000000 
1 0.00000000000000000 9.00000000000000000 1.00000000000000000 0.00000000000000000 
1 6.28318530717958623 -0.00000000000000000 0.00000000000000000 1.00000000000000000 
1 0.00000000000000000 -0.00000000000000000 0.00000000000000000 1.00000000000000000 
1 0.00000000000000000 9.00000000000000000 1.00000000000000000 0.00000000000000000 
1 0.00000000000000000 13.00000000000000000 1.00000000000000000 0.00000000000000000 
1 0.00000000000000000 12.99999999999994316 1.00000000000000000 0.00000000000000000 
1 0.00000000000000000 12.99999999999994316 1.00000000000000000 0.00000000000000000 
1 0.00000000000000000 12.99999999999994316 1.00000000000000000 0.00000000000000000 
1 0.00000000000000000 12.99999999999994316 1.00000000000000000 0.00000000000000000 
1 0.00000000000000000 12.99999999999994316 1.00000000000000000 0.00000000000000000 
1 0.00000000000000000 13.00000000000000000 1.00000000000000000 0.00000000000000000 
1 0.00000000000000000 12.99999999999994316 1.00000000000000000 0.00000000000000000 
1 0.00000000000000000 12.99999999999994316 1.00000000000000000 0.00000000000000000 
1 0.00000000000000000 12.99999999999994316 1.00000000000000000 0.00000000000000000 
1 0.00000000000000000 12.99999999999994316 1.00000000000000000 0.00000000000000000 
1 0.00000000000000000 12.99999999999994316 1.00000000000000000 0.00000000000000000 
1 6.28318530717958623 -0.00000000000000000 0.00000000000000000 1.00000000000000000 
1 0.00000000000000000 -0.00000000000000000 0.00000000000000000 1.00000000000000000 
1 6.28318530717958623 -0.00000000000000000 0.00000000000000000 1.00000000000000000 
1 0.00000000000000000 -0.00000000000000000 0.00000000000000000 1.00000000000000000 
1 6.28318530717958623 -0.00000000000000000 0.00000000000000000 1.00000000000000000 
1 0.00000000000000000 -0.00000000000000000 0.00000000000000000 1.00000000000000000 
1 6.28318530717958623 -0.00000000000000000 0.00000000000000000 1.00000000000000000 
1 0.00000000000000000 -0.00000000000000000 0.00000000000000000 1.00000000000000000 
1 6.28318530717958623 -0.00000000000000000 0.00000000000000000 1.00000000000000000 
1 0.00000000000000000 -0.00000000000000000 0.00000000000000000 1.00000000000000000 
1 6.28318530717958623 -0.00000000000000000 0.00000000000000000 1.00000000000000000 
1 0.00000000000000000 -0.00000000000000000 0.00000000000000000 1.00000000000000000 
1 6.28318530717958623 -0.00000000000000000 0.00000000000000000 1.00000000000000000 
1 0.00000000000000000 -0.00000000000000000 0.00000000000000000 1.00000000000000000 
1 6.28318530717958623 -0.00000000000000000 0.00000000000000000 1.00000000000000000 
1 0.00000000000000000 -0.00000000000000000 0.00000000000000000 1.00000000000000000 
1 6.28318530717958623 -0.00000000000000000 0.00000000000000000 1.00000000000000000 
1 0.00000000000000000 -0.00000000000000000 0.00000000000000000 1.00000000000000000 
1 6.28318530717958623 -0.00000000000000000 0.00000000000000000 1.00000000000000000 
1 0.00000000000000000 -0.00000000000000000 0.00000000000000000 1.00000000000000000 
1 6.28318530717958623 -0.00000000000000000 0.00000000000000000 1.00000000000000000 
1 0.00000000000000000 -0.00000000000000000 0.00000000000000000 1.00000000000000000 
1 6.28318530717958623 -0.00000000000000000 0.00000000000000000 1.00000000000000000 
1 0.00000000000000000 -0.00000000000000000 0.00000000000000000 1.00000000000000000 
Curves 108
1 -8.00000000000000000 -1145.00000000000000000 8.00000000000000000 -1.00000000000000000 0.00000000000000000 0.00000000000000000 
1 -12.00000000000000000 -1145.00000000000000000 8.00000000000000000 0.00000000000000000 1.00000000000000000 0.00000000000000000 
1 -136.00000000000000000 -1145.00000000000000000 8.00000000000000000 0.00000000000000000 1.00000000000000000 0.00000000000000000 
1 -8.00000000000000000 -1145.00000000000000000 8.00000000000000000 -1.00000000000000000 0.00000000000000000 0.00000000000000000 
2 -66.00000000000000000 1123.00000000000000000 8.00000000000000000 0.00000000000000000 0.00000000000000000 1.00000000000000000 1.00000000000000000 0.00000000000000000 0.00000000000000000 0.00000000000000000 1.00000000000000000 0.00000000000000000 8.88124999999999964
2 -66.00000000000000000 652.37000000000000455 8.00000000000000000 0.00000000000000000 0.00000000000000000 1.00000000000000000 1.00000000000000000 0.00000000000000000 0.00000000000000000 0.00000000000000000 1.00000000000000000 0.00000000000000000 8.88124999999999964
2 -90.00000000000000000 1096.00000000000000000 8.00000000000000000 0.00000000000000000 0.00000000000000000 1.00000000000000000 1.00000000000000000 0.00000000000000000 0.00000000000000000 0.00000000000000000 1.00000000000000000 0.00000000000000000 8.88124999999999964
2 -90.00000000000000000 625.37000000000000455 8.00000000000000000 0.00000000000000000 0.00000000000000000 1.00000000000000000 1.00000000000000000 0.00000000000000000 0.00000000000000000 0.00000000000000000 1.00000000000000000 0.00000000000000000 8.88124999999999964
2 -118.00000000000000000 1123.00000000000000000 8.00000000000000000 0.00000000000000000 0.00000000000000000 1.00000000000000000 1.00000000000000000 0.00000000000000000 0.00000000000000000 0.00000000000000000 1.00000000000000000 0.00000000000000000 8.88124999999999964
2 -118.00000000000000000 1071.00000000000000000 8.00000000000000000 0.00000000000000000 0.00000000000000000 1.00000000000000000 1.00000000000000000 0.00000000000000000 0.00000000000000000 0.00000000000000000 1.00000000000000000 0.00000000000000000 8.88124999999999964
2 -118.00000000000000000 652.37000000000000455 8.00000000000000000 0.00000000000000000 0.00000000000000000 1.00000000000000000 1.00000000000000000 0.00000000000000000 0.00000000000000000 0.00000000000000000 1.00000000000000000 0.00000000000000000 8.88124999999999964
2 -118.00000000000000000 600.37000000000000455 8.00000000000000000 0.00000000000000000 0.00000000000000000 1.00000000000000000 1.00000000000000000 0.00000000000000000 0.00000000000000000 0.00000000000000000 1.00000000000000000 0.00000000000000000 8.88124999999999964
2 -66.00000000000000000 -652.37000000000000455 8.00000000000000000 0.00000000000000000 0.00000000000000000 1.00000000000000000 1.00000000000000000 0.00000000000000000 0.00000000000000000 0.00000000000000000 1.00000000000000000 0.00000000000000000 8.88124999999999964
2 -66.00000000000000000 -1123.00000000000000000 8.00000000000000000 0.00000000000000000 0.00000000000000000 1.00000000000000000 1.00000000000000000 0.00000000000000000 0.00000000000000000 0.00000000000000000 1.00000000000000000 0.00000000000000000 8.88124999999999964
2 -90.00000000000000000 -625.37000000000000455 8.00000000000000000 0.00000000000000000 0.00000000000000000 1.00000000000000000 1.00000000000000000 0.00000000000000000 0.00000000000000000 0.00000000000000000 1.00000000000000000 0.00000000000000000 8.88124999999999964
2 -90.00000000000000000 -1096.00000000000000000 8.00000000000000000 0.00000000000000000 0.00000000000000000 1.00000000000000000 1.00000000000000000 0.00000000000000000 0.00000000000000000 0.00000000000000000 1.00000000000000000 0.00000000000000000 8.88124999999999964
2 -118.00000000000000000 -600.37000000000000455 8.00000000000000000 0.00000000000000000 0.00000000000000000 1.00000000000000000 1.00000000000000000 0.00000000000000000 0.00000000000000000 0.00000000000000000 1.00000000000000000 0.00000000000000000 8.88124999999999964
2 -118.00000000000000000 -652.37000000000000455 8.00000000000000000 0.00000000000000000 0.00000000000000000 1.00000000000000000 1.00000000000000000 0.00000000000000000 0.00000000000000000 0.00000000000000000 1.00000000000000000 0.00000000000000000 8.88124999999999964
2 -118.00000000000000000 -1071.00000000000000000 8.00000000000000000 0.00000000000000000 0.00000000000000000 1.00000000000000000 1.00000000000000000 0.00000000000000000 0.00000000000000000 0.00000000000000000 1.00000000000000000 0.00000000000000000 8.88124999999999964
2 -118.00000000000000000 -1123.00000000000000000 8.00000000000000000 0.00000000000000000 0.00000000000000000 1.00000000000000000 1.00000000000000000 0.00000000000000000 0.00000000000000000 0.00000000000000000 1.00000000000000000 0.00000000000000000 8.88124999999999964
1 -148.00000000000000000 -1145.00000000000000000 0.00000000000000000 1.00000000000000000 0.00000000000000000 0.00000000000000000 
1 0.00000000000000000 -1145.00000000000000000 0.00000000000000000 0.00000000000000000 0.00000000000000000 1.00000000000000000 
1 0.00000000000000000 -1145.00000000000000000 50.00000000000000000 -1.00000000000000000 0.00000000000000000 0.00000000000000000 
1 -12.00000000000000000 -1145.00000000000000000 8.00000000000000000 0.09480909262799546 0.00000000000000000 0.99549547259395221 
1 -136.00000000000000000 -1145.00000000000000000 8.00000000000000000 -0.09480909262799546 0.00000000000000000 0.99549547259395221 
1 -140.00000000000000000 -1145.00000000000000000 50.00000000000000000 -1.00000000000000000 0.00000000000000000 0.00000000000000000 
1 -148.00000000000000000 -1145.00000000000000000 50.00000000000000000 0.00000000000000000 0.00000000000000000 -1.00000000000000000 
1 -12.00000000000000000 -1145.00000000000000000 8.00000000000000000 0.09480909262799546 0.00000000000000000 0.99549547259395221 
1 -8.00000000000000000 -1145.00000000000000000 50.00000000000000000 0.00000000000000000 1.00000000000000000 0.00000000000000000 
3 -10.38095238095237782 118.00000000000000000 25.00000000000000000 0.99549547259395221 0.00000000000000000 -0.09480909262799546 0.09480909262799546 0.00000000000000000 0.99549547259395221 0.00000000000000000 -1.00000000000000000 0.00000000000000000 9.71877850412514022 9.67500000000000071
3 -10.38095238095236894 1093.63285714285711947 25.00000000000011369 0.99549547259395221 0.00000000000000000 -0.09480909262799546 0.09480909262799546 0.00000000000000000 0.99549547259395221 0.00000000000000000 -1.00000000000000000 0.00000000000000000 9.71877850412514022 9.67500000000000071
3 -10.38095238095236894 1017.63285714285711947 25.00000000000011369 0.99549547259395221 0.00000000000000000 -0.09480909262799546 0.09480909262799546 0.00000000000000000 0.99549547259395221 0.00000000000000000 -1.00000000000000000 0.00000000000000000 9.71877850412514022 9.67500000000000071
3 -10.38095238095236894 941.63285714285711947 25.00000000000011369 0.99549547259395221 0.00000000000000000 -0.09480909262799546 0.09480909262799546 0.00000000000000000 0.99549547259395221 0.00000000000000000 -1.00000000000000000 0.00000000000000000 9.71877850412514022 9.67500000000000071
3 -10.38095238095236894 714.37000000000000455 25.00000000000011369 0.99549547259395221 0.00000000000000000 -0.09480909262799546 0.09480909262799546 0.00000000000000000 0.99549547259395221 0.00000000000000000 -1.00000000000000000 0.00000000000000000 9.71877850412514022 9.67500000000000071
3 -10.38095238095236894 634.37000000000000455 25.00000000000011369 0.99549547259395221 0.00000000000000000 -0.09480909262799546 0.09480909262799546 0.00000000000000000 0.99549547259395221 0.00000000000000000 -1.00000000000000000 0.00000000000000000 9.71877850412514022 9.67500000000000071
3 -10.38095238095237782 -118.00000000000000000 25.00000000000000000 0.99549547259395221 0.00000000000000000 -0.09480909262799546 0.09480909262799546 0.00000000000000000 0.99549547259395221 0.00000000000000000 -1.00000000000000000 0.00000000000000000 9.71877850412514022 9.67500000000000071
3 -10.38095238095236894 -634.36999999999989086 25.00000000000011369 0.99549547259395221 0.00000000000000000 -0.09480909262799546 0.09480909262799546 0.00000000000000000 0.99549547259395221 0.00000000000000000 -1.00000000000000000 0.00000000000000000 9.71877850412514022 9.67500000000000071
3 -10.38095238095236894 -714.36999999999989086 25.00000000000011369 0.99549547259395221 0.00000000000000000 -0.09480909262799546 0.09480909262799546 0.00000000000000000 0.99549547259395221 0.00000000000000000 -1.00000000000000000 0.00000000000000000 9.71877850412514022 9.67500000000000071
3 -10.38095238095236894 -941.63285714285711947 25.00000000000011369 0.99549547259395221 0.00000000000000000 -0.09480909262799546 0.09480909262799546 0.00000000000000000 0.99549547259395221 0.00000000000000000 -1.00000000000000000 0.00000000000000000 9.71877850412514022 9.67500000000000071
3 -10.38095238095236894 -1017.63285714285711947 25.00000000000011369 0.99549547259395221 0.00000000000000000 -0.09480909262799546 0.09480909262799546 0.00000000000000000 0.99549547259395221 0.00000000000000000 -1.00000000000000000 0.00000000000000000 9.71877850412514022 9.67500000000000071
3 -10.38095238095236894 -1093.63285714285711947 25.00000000000011369 0.99549547259395221 0.00000000000000000 -0.09480909262799546 0.09480909262799546 0.00000000000000000 0.99549547259395221 0.00000000000000000 -1.00000000000000000 0.00000000000000000 9.71877850412514022 9.67500000000000071
1 -140.00000000000000000 -1145.00000000000000000 50.00000000000000000 0.00000000000000000 1.00000000000000000 0.00000000000000000 
1 -136.00000000000000000 -1145.00000000000000000 8.00000000000000000 -0.09480909262799546 0.00000000000000000 0.99549547259395221 
1 -148.00000000000000000 -1145.00000000000000000 0.00000000000000000 1.00000000000000000 0.00000000000000000 0.00000000000000000 
1 -148.00000000000000000 -1145.00000000000000000 50.00000000000000000 0.00000000000000000 0.00000000000000000 -1.00000000000000000 
1 -140.00000000000000000 -1145.00000000000000000 50.00000000000000000 -1.00000000000000000 0.00000000000000000 0.00000000000000000 
1 0.00000000000000000 -1145.00000000000000000 50.00000000000000000 -1.00000000000000000 0.00000000000000000 0.00000000000000000 
1 0.00000000000000000 -1145.00000000000000000 0.00000000000000000 0.00000000000000000 0.00000000000000000 1.00000000000000000 
1 -57.11875000000000568 -22.00000000000000355 -9.00000000000000000 0.00000000000000000 0.00000000000000000 1.00000000000000000 
2 -66.00000000000000000 1123.00000000000000000 0.00000000000000000 0.00000000000000000 0.00000000000000000 1.00000000000000000 1.00000000000000000 0.00000000000000000 0.00000000000000000 0.00000000000000000 1.00000000000000000 0.00000000000000000 8.88124999999999964
1 -57.11875000000000568 -22.00000000000000355 -9.00000000000000000 0.00000000000000000 0.00000000000000000 1.00000000000000000 
2 -66.00000000000000000 652.37000000000000455 0.00000000000000000 0.00000000000000000 0.00000000000000000 1.00000000000000000 1.00000000000000000 0.00000000000000000 0.00000000000000000 0.00000000000000000 1.00000000000000000 0.00000000000000000 8.88124999999999964
1 -81.11875000000000568 -49.00000000000000000 -9.00000000000000000 0.00000000000000000 0.00000000000000000 1.00000000000000000 
2 -90.00000000000000000 1096.00000000000000000 0.00000000000000000 0.00000000000000000 0.00000000000000000 1.00000000000000000 1.00000000000000000 0.00000000000000000 0.00000000000000000 0.00000000000000000 1.00000000000000000 0.00000000000000000 8.88124999999999964
1 -81.11875000000000568 -49.00000000000000000 -9.00000000000000000 0.00000000000000000 0.00000000000000000 1.00000000000000000 
2 -90.00000000000000000 625.37000000000000455 0.00000000000000000 0.00000000000000000 0.00000000000000000 1.00000000000000000 1.00000000000000000 0.00000000000000000 0.00000000000000000 0.00000000000000000 1.00000000000000000 0.00000000000000000 8.88124999999999964
1 -109.11875000000000568 -22.00000000000000000 -9.00000000000000000 0.00000000000000000 0.00000000000000000 1.00000000000000000 
2 -118.00000000000000000 1123.00000000000000000 0.00000000000000000 0.00000000000000000 0.00000000000000000 1.00000000000000000 1.00000000000000000 0.00000000000000000 0.00000000000000000 0.00000000000000000 1.00000000000000000 0.00000000000000000 8.88124999999999964
1 -109.11875000000000568 -74.00000000000000000 -9.00000000000000000 0.00000000000000000 0.00000000000000000 1.00000000000000000 
2 -118.00000000000000000 1071.00000000000000000 0.00000000000000000 0.00000000000000000 0.00000000000000000 1.00000000000000000 1.00000000000000000 0.00000000000000000 0.00000000000000000 0.00000000000000000 1.00000000000000000 0.00000000000000000 8.88124999999999964
1 -109.11875000000000568 -22.00000000000000000 -9.00000000000000000 0.00000000000000000 0.00000000000000000 1.00000000000000000 
2 -118.00000000000000000 652.37000000000000455 0.00000000000000000 0.00000000000000000 0.00000000000000000 1.00000000000000000 1.00000000000000000 0.00000000000000000 0.00000000000000000 0.00000000000000000 1.00000000000000000 0.00000000000000000 8.88124999999999964
1 -109.11875000000000568 -74.00000000000000000 -9.00000000000000000 0.00000000000000000 0.00000000000000000 1.00000000000000000 
2 -118.00000000000000000 600.37000000000000455 0.00000000000000000 0.00000000000000000 0.00000000000000000 1.00000000000000000 1.00000000000000000 0.00000000000000000 0.00000000000000000 0.00000000000000000 1.00000000000000000 0.00000000000000000 8.88124999999999964
1 -57.11874999999999147 21.99999999999999645 -9.00000000000000000 0.00000000000000000 0.00000000000000000 1.00000000000000000 
2 -66.00000000000000000 -652.37000000000000455 0.00000000000000000 0.00000000000000000 0.00000000000000000 1.00000000000000000 1.00000000000000000 0.00000000000000000 0.00000000000000000 0.00000000000000000 1.00000000000000000 0.00000000000000000 8.88124999999999964
1 -57.11874999999999147 21.99999999999999645 -9.00000000000000000 0.00000000000000000 0.00000000000000000 1.00000000000000000 
2 -66.00000000000000000 -1123.00000000000000000 0.00000000000000000 0.00000000000000000 0.00000000000000000 1.00000000000000000 1.00000000000000000 0.00000000000000000 0.00000000000000000 0.00000000000000000 1.00000000000000000 0.00000000000000000 8.88124999999999964
1 -81.11875000000000568 49.00000000000000000 -9.00000000000000000 0.00000000000000000 0.00000000000000000 1.00000000000000000 
2 -90.00000000000000000 -625.37000000000000455 0.00000000000000000 0.00000000000000000 0.00000000000000000 1.00000000000000000 1.00000000000000000 0.00000000000000000 0.00000000000000000 0.00000000000000000 1.00000000000000000 0.00000000000000000 8.88124999999999964
1 -81.11875000000000568 49.00000000000000000 -9.00000000000000000 0.00000000000000000 0.00000000000000000 1.00000000000000000 
2 -90.00000000000000000 -1096.00000000000000000 0.00000000000000000 0.00000000000000000 0.00000000000000000 1.00000000000000000 1.00000000000000000 0.00000000000000000 0.00000000000000000 0.00000000000000000 1.00000000000000000 0.00000000000000000 8.88124999999999964
1 -109.11875000000000568 74.00000000000000000 -9.00000000000000000 0.00000000000000000 0.00000000000000000 1.00000000000000000 
2 -118.00000000000000000 -600.37000000000000455 0.00000000000000000 0.00000000000000000 0.00000000000000000 1.00000000000000000 1.00000000000000000 0.00000000000000000 0.00000000000000000 0.00000000000000000 1.00000000000000000 0.00000000000000000 8.88124999999999964
1 -109.11875000000000568 22.00000000000000000 -9.00000000000000000 0.00000000000000000 0.00000000000000000 1.00000000000000000 
2 -118.00000000000000000 -652.37000000000000455 0.00000000000000000 0.00000000000000000 0.00000000000000000 1.00000000000000000 1.00000000000000000 0.00000000000000000 0.00000000000000000 0.00000000000000000 1.00000000000000000 0.00000000000000000 8.88124999999999964
1 -109.11875000000000568 74.00000000000000000 -9.00000000000000000 0.00000000000000000 0.00000000000000000 1.00000000000000000 
2 -118.00000000000000000 -1071.00000000000000000 0.00000000000000000 0.00000000000000000 0.00000000000000000 1.00000000000000000 1.00000000000000000 0.00000000000000000 0.00000000000000000 0.00000000000000000 1.00000000000000000 0.00000000000000000 8.88124999999999964
1 -109.11875000000000568 22.00000000000000000 -9.00000000000000000 0.00000000000000000 0.00000000000000000 1.00000000000000000 
2 -118.00000000000000000 -1123.00000000000000000 0.00000000000000000 0.00000000000000000 0.00000000000000000 1.00000000000000000 1.00000000000000000 0.00000000000000000 0.00000000000000000 0.00000000000000000 1.00000000000000000 0.00000000000000000 8.88124999999999964
1 -148.00000000000000000 -1145.00000000000000000 0.00000000000000000 0.00000000000000000 1.00000000000000000 0.00000000000000000 
1 0.00000000000000000 -1145.00000000000000000 0.00000000000000000 0.00000000000000000 1.00000000000000000 0.00000000000000000 
1 0.00000000000000000 -1145.00000000000000000 50.00000000000000000 0.00000000000000000 1.00000000000000000 0.00000000000000000 
2 0.00000000000000000 118.00000000000000000 25.00000000000000000 1.00000000000000000 0.00000000000000000 -0.00000000000000000 0.00000000000000000 0.00000000000000000 1.00000000000000000 0.00000000000000000 -1.00000000000000000 0.00000000000000000 9.67500000000000071
2 0.00000000000000000 1093.63285714285711947 25.00000000000011369 1.00000000000000000 0.00000000000000000 -0.00000000000000000 0.00000000000000000 0.00000000000000000 1.00000000000000000 0.00000000000000000 -1.00000000000000000 0.00000000000000000 9.67500000000000071
2 0.00000000000000000 1017.63285714285711947 25.00000000000011369 1.00000000000000000 0.00000000000000000 -0.00000000000000000 0.00000000000000000 0.00000000000000000 1.00000000000000000 0.00000000000000000 -1.00000000000000000 0.00000000000000000 9.67500000000000071
2 0.00000000000000000 941.63285714285711947 25.00000000000011369 1.00000000000000000 0.00000000000000000 -0.00000000000000000 0.00000000000000000 0.00000000000000000 1.00000000000000000 0.00000000000000000 -1.00000000000000000 0.00000000000000000 9.67500000000000071
2 0.00000000000000000 714.37000000000000455 25.00000000000011369 1.00000000000000000 0.00000000000000000 -0.00000000000000000 0.00000000000000000 0.00000000000000000 1.00000000000000000 0.00000000000000000 -1.00000000000000000 0.00000000000000000 9.67500000000000071
2 0.00000000000000000 634.37000000000000455 25.00000000000011369 1.00000000000000000 0.00000000000000000 -0.00000000000000000 0.00000000000000000 0.00000000000000000 1.00000000000000000 0.00000000000000000 -1.00000000000000000 0.00000000000000000 9.67500000000000071
2 0.00000000000000000 -118.00000000000000000 25.00000000000000000 1.00000000000000000 0.00000000000000000 -0.00000000000000000 0.00000000000000000 0.00000000000000000 1.00000000000000000 0.00000000000000000 -1.00000000000000000 0.00000000000000000 9.67500000000000071
2 0.00000000000000000 -634.36999999999989086 25.00000000000011369 1.00000000000000000 0.00000000000000000 -0.00000000000000000 0.00000000000000000 0.00000000000000000 1.00000000000000000 0.00000000000000000 -1.00000000000000000 0.00000000000000000 9.67500000000000071
2 0.00000000000000000 -714.36999999999989086 25.00000000000011369 1.00000000000000000 0.00000000000000000 -0.00000000000000000 0.00000000000000000 0.00000000000000000 1.00000000000000000 0.00000000000000000 -1.00000000000000000 0.00000000000000000 9.67500000000000071
2 0.00000000000000000 -941.63285714285711947 25.00000000000011369 1.00000000000000000 0.00000000000000000 -0.00000000000000000 0.00000000000000000 0.00000000000000000 1.00000000000000000 0.00000000000000000 -1.00000000000000000 0.00000000000000000 9.67500000000000071
2 0.00000000000000000 -1017.63285714285711947 25.00000000000011369 1.00000000000000000 0.00000000000000000 -0.00000000000000000 0.00000000000000000 0.00000000000000000 1.00000000000000000 0.00000000000000000 -1.00000000000000000 0.00000000000000000 9.67500000000000071
2 0.00000000000000000 -1093.63285714285711947 25.00000000000011369 1.00000000000000000 0.00000000000000000 -0.00000000000000000 0.00000000000000000 0.00000000000000000 1.00000000000000000 0.00000000000000000 -1.00000000000000000 0.00000000000000000 9.67500000000000071
1 -148.00000000000000000 -1145.00000000000000000 50.00000000000000000 0.00000000000000000 1.00000000000000000 0.00000000000000000 
1 -13.00000000000000000 118.00000000000001421 34.67499999999999716 1.00000000000000000 0.00000000000000000 0.00000000000000000 
1 -240.14857142857130157 76.00000000000000000 353.31131878624518095 1.00000000000000000 0.00000000000000000 0.00000000000000000 
1 -240.14857142857130157 0.00000000000000237 353.31131878624518095 1.00000000000000000 0.00000000000000000 0.00000000000000000 
1 -240.14857142857130157 -76.00000000000000000 353.31131878624518095 1.00000000000000000 0.00000000000000000 0.00000000000000000 
1 -240.14857142857130157 40.00000000000000000 353.31131878624518095 1.00000000000000000 0.00000000000000000 0.00000000000000000 
1 -240.14857142857130157 -40.00000000000000000 353.31131878624518095 1.00000000000000000 0.00000000000000000 0.00000000000000000 
1 -13.00000000000000000 -117.99999999999998579 34.67499999999999716 1.00000000000000000 0.00000000000000000 0.00000000000000000 
1 -240.14857142857130157 40.00000000000000000 353.31131878624518095 1.00000000000000000 0.00000000000000000 0.00000000000000000 
1 -240.14857142857130157 -40.00000000000000000 353.31131878624518095 1.00000000000000000 0.00000000000000000 0.00000000000000000 
1 -240.14857142857130157 76.00000000000000000 353.31131878624518095 1.00000000000000000 0.00000000000000000 0.00000000000000000 
1 -240.14857142857130157 0.00000000000000237 353.31131878624518095 1.00000000000000000 0.00000000000000000 0.00000000000000000 
1 -240.14857142857130157 -76.00000000000000000 353.31131878624518095 1.00000000000000000 0.00000000000000000 0.00000000000000000 
Polygon3D 0
PolygonOnTriangulations 0
Surfaces 38
1 -8.00000000000000000 -1145.00000000000000000 8.00000000000000000 0.00000000000000000 0.00000000000000000 1.00000000000000000 -1.00000000000000000 0.00000000000000000 0.00000000000000000 0.00000000000000000 -1.00000000000000000 0.00000000000000000 
2 -66.00000000000000000 -22.00000000000000000 -9.00000000000000000 0.00000000000000000 0.00000000000000000 1.00000000000000000 1.00000000000000000 0.00000000000000000 0.00000000000000000 0.00000000000000000 1.00000000000000000 0.00000000000000000 8.88124999999999964
2 -66.00000000000000000 -22.00000000000000000 -9.00000000000000000 0.00000000000000000 0.00000000000000000 1.00000000000000000 1.00000000000000000 0.00000000000000000 0.00000000000000000 0.00000000000000000 1.00000000000000000 0.00000000000000000 8.88124999999999964
2 -90.00000000000000000 -49.00000000000000000 -9.00000000000000000 0.00000000000000000 0.00000000000000000 1.00000000000000000 1.00000000000000000 0.00000000000000000 0.00000000000000000 0.00000000000000000 1.00000000000000000 0.00000000000000000 8.88124999999999964
2 -90.00000000000000000 -49.00000000000000000 -9.00000000000000000 0.00000000000000000 0.00000000000000000 1.00000000000000000 1.00000000000000000 0.00000000000000000 0.00000000000000000 0.00000000000000000 1.00000000000000000 0.00000000000000000 8.88124999999999964
2 -118.00000000000000000 -22.00000000000000000 -9.00000000000000000 0.00000000000000000 0.00000000000000000 1.00000000000000000 1.00000000000000000 0.00000000000000000 0.00000000000000000 0.00000000000000000 1.00000000000000000 0.00000000000000000 8.88124999999999964
2 -118.00000000000000000 -74.00000000000000000 -9.00000000000000000 0.00000000000000000 0.00000000000000000 1.00000000000000000 1.00000000000000000 0.00000000000000000 0.00000000000000000 0.00000000000000000 1.00000000000000000 0.00000000000000000 8.88124999999999964
2 -118.00000000000000000 -22.00000000000000000 -9.00000000000000000 0.00000000000000000 0.00000000000000000 1.00000000000000000 1.00000000000000000 0.00000000000000000 0.00000000000000000 0.00000000000000000 1.00000000000000000 0.00000000000000000 8.88124999999999964
2 -118.00000000000000000 -74.00000000000000000 -9.00000000000000000 0.00000000000000000 0.00000000000000000 1.00000000000000000 1.00000000000000000 0.00000000000000000 0.00000000000000000 0.00000000000000000 1.00000000000000000 0.00000000000000000 8.88124999999999964
2 -66.00000000000000000 22.00000000000000000 -9.00000000000000000 0.00000000000000000 0.00000000000000000 1.00000000000000000 1.00000000000000000 0.00000000000000000 0.00000000000000000 0.00000000000000000 1.00000000000000000 0.00000000000000000 8.88124999999999964
2 -66.00000000000000000 22.00000000000000000 -9.00000000000000000 0.00000000000000000 0.00000000000000000 1.00000000000000000 1.00000000000000000 0.00000000000000000 0.00000000000000000 0.00000000000000000 1.00000000000000000 0.00000000000000000 8.88124999999999964
2 -90.00000000000000000 49.00000000000000000 -9.00000000000000000 0.00000000000000000 0.00000000000000000 1.00000000000000000 1.00000000000000000 0.00000000000000000 0.00000000000000000 0.00000000000000000 1.00000000000000000 0.00000000000000000 8.88124999999999964
2 -90.00000000000000000 49.00000000000000000 -9.00000000000000000 0.00000000000000000 0.00000000000000000 1.00000000000000000 1.00000000000000000 0.00000000000000000 0.00000000000000000 0.00000000000000000 1.00000000000000000 0.00000000000000000 8.88124999999999964
2 -118.00000000000000000 74.00000000000000000 -9.00000000000000000 0.00000000000000000 0.00000000000000000 1.00000000000000000 1.00000000000000000 0.00000000000000000 0.00000000000000000 0.00000000000000000 1.00000000000000000 0.00000000000000000 8.88124999999999964
2 -118.00000000000000000 22.00000000000000000 -9.00000000000000000 0.00000000000000000 0.00000000000000000 1.00000000000000000 1.00000000000000000 0.00000000000000000 0.00000000000000000 0.00000000000000000 1.00000000000000000 0.00000000000000000 8.88124999999999964
2 -118.00000000000000000 74.00000000000000000 -9.00000000000000000 0.00000000000000000 0.00000000000000000 1.00000000000000000 1.00000000000000000 0.00000000000000000 0.00000000000000000 0.00000000000000000 1.00000000000000000 0.00000000000000000 8.88124999999999964
2 -118.00000000000000000 22.00000000000000000 -9.00000000000000000 0.00000000000000000 0.00000000000000000 1.00000000000000000 1.00000000000000000 0.00000000000000000 0.00000000000000000 0.00000000000000000 1.00000000000000000 0.00000000000000000 8.88124999999999964
1 -74.00000000000000000 -1145.00000000000000000 14.26610221005448942 -0.00000000000000000 -1.00000000000000000 -0.00000000000000000 0.00000000000000000 0.00000000000000000 -1.00000000000000000 1.00000000000000000 0.00000000000000000 0.00000000000000000 
1 -12.00000000000000000 -1145.00000000000000000 8.00000000000000000 0.99549547259395221 0.00000000000000000 -0.09480909262799546 0.09480909262799546 0.00000000000000000 0.99549547259395221 0.00000000000000000 -1.00000000000000000 0.00000000000000000 
2 -13.00000000000000000 118.00000000000000000 25.00000000000000000 1.00000000000000000 0.00000000000000000 0.00000000000000000 0.00000000000000000 0.00000000000000000 1.00000000000000000 0.00000000000000000 -1.00000000000000000 0.00000000000000000 9.67500000000000071
2 -240.14857142857130157 76.00000000000000000 343.63631878624516958 1.00000000000000000 0.00000000000000000 0.00000000000000000 0.00000000000000000 0.00000000000000000 1.00000000000000000 0.00000000000000000 -1.00000000000000000 0.00000000000000000 9.67500000000000071
2 -240.14857142857130157 0.00000000000000000 343.63631878624516958 1.00000000000000000 0.00000000000000000 0.00000000000000000 0.00000000000000000 0.00000000000000000 1.00000000000000000 0.00000000000000000 -1.00000000000000000 0.00000000000000000 9.67500000000000071
2 -240.14857142857130157 -76.00000000000000000 343.63631878624516958 1.00000000000000000 0.00000000000000000 0.00000000000000000 0.00000000000000000 0.00000000000000000 1.00000000000000000 0.00000000000000000 -1.00000000000000000 0.00000000000000000 9.67500000000000071
2 -240.14857142857130157 40.00000000000000000 343.63631878624516958 1.00000000000000000 0.00000000000000000 0.00000000000000000 0.00000000000000000 0.00000000000000000 1.00000000000000000 0.00000000000000000 -1.00000000000000000 0.00000000000000000 9.67500000000000071
2 -240.14857142857130157 -40.00000000000000000 343.63631878624516958 1.00000000000000000 0.00000000000000000 0.00000000000000000 0.00000000000000000 0.00000000000000000 1.00000000000000000 0.00000000000000000 -1.00000000000000000 0.00000000000000000 9.67500000000000071
2 -13.00000000000000000 -118.00000000000000000 25.00000000000000000 1.00000000000000000 0.00000000000000000 0.00000000000000000 0.00000000000000000 0.00000000000000000 1.00000000000000000 0.00000000000000000 -1.00000000000000000 0.00000000000000000 9.67500000000000071
2 -240.14857142857130157 40.00000000000000000 343.63631878624516958 1.00000000000000000 0.00000000000000000 0.00000000000000000 0.00000000000000000 0.00000000000000000 1.00000000000000000 0.00000000000000000 -1.00000000000000000 0.00000000000000000 9.67500000000000071
2 -240.14857142857130157 -40.00000000000000000 343.63631878624516958 1.00000000000000000 0.00000000000000000 0.00000000000000000 0.00000000000000000 0.00000000000000000 1.00000000000000000 0.00000000000000000 -1.00000000000000000 0.00000000000000000 9.67500000000000071
2 -240.14857142857130157 76.00000000000000000 343.63631878624516958 1.00000000000000000 0.00000000000000000 0.00000000000000000 0.00000000000000000 0.00000000000000000 1.00000000000000000 0.00000000000000000 -1.00000000000000000 0.00000000000000000 9.67500000000000071
2 -240.14857142857130157 0.00000000000000000 343.63631878624516958 1.00000000000000000 0.00000000000000000 0.00000000000000000 0.00000000000000000 0.00000000000000000 1.00000000000000000 0.00000000000000000 -1.00000000000000000 0.00000000000000000 9.67500000000000071
2 -240.14857142857130157 -76.00000000000000000 343.63631878624516958 1.00000000000000000 0.00000000000000000 0.00000000000000000 0.00000000000000000 0.00000000000000000 1.00000000000000000 0.00000000000000000 -1.00000000000000000 0.00000000000000000 9.67500000000000071
1 -136.00000000000000000 -1145.00000000000000000 8.00000000000000000 0.99549547259395221 0.00000000000000000 0.09480909262799546 -0.09480909262799546 0.00000000000000000 0.99549547259395221 0.00000000000000000 -1.00000000000000000 0.00000000000000000 
1 -74.00000000000000000 1145.00000000000000000 14.26610221005448942 0.00000000000000000 1.00000000000000000 0.00000000000000000 0.00000000000000000 0.00000000000000000 1.00000000000000000 1.00000000000000000 0.00000000000000000 0.00000000000000000 
1 -148.00000000000000000 -1145.00000000000000000 0.00000000000000000 0.00000000000000000 0.00000000000000000 -1.00000000000000000 1.00000000000000000 0.00000000000000000 0.00000000000000000 0.00000000000000000 -1.00000000000000000 0.00000000000000000 
1 0.00000000000000000 -1145.00000000000000000 0.00000000000000000 1.00000000000000000 0.00000000000000000 0.00000000000000000 0.00000000000000000 0.00000000000000000 1.00000000000000000 0.00000000000000000 -1.00000000000000000 0.00000000000000000 
1 0.00000000000000000 -1145.00000000000000000 50.00000000000000000 0.00000000000000000 0.00000000000000000 1.00000000000000000 -1.00000000000000000 0.00000000000000000 0.00000000000000000 0.00000000000000000 -1.00000000000000000 0.00000000000000000 
1 -140.00000000000000000 -1145.00000000000000000 50.00000000000000000 0.00000000000000000 0.00000000000000000 1.00000000000000000 -1.00000000000000000 0.00000000000000000 0.00000000000000000 0.00000000000000000 -1.00000000000000000 0.00000000000000000 
1 -148.00000000000000000 -1145.00000000000000000 50.00000000000000000 -1.00000000000000000 0.00000000000000000 0.00000000000000000 0.00000000000000000 0.00000000000000000 -1.00000000000000000 -0.00000000000000000 -1.00000000000000000 -0.00000000000000000 
Triangulations 0

TShapes 341
Ve
0.000000100000000
-12.000000000000000 -1145.000000000000000 8.000000000000000
0 0

0101101
*
Ve
0.000000100000000
-136.000000000000000 -1145.000000000000000 8.000000000000000
0 0

0101101
*
Ed
 0.000000100000000 1 1 0
1  1 0 4.000000000000000 128.000000000000000
0

0101000
+341 7 -340 7 *
Ve
0.000000100000000
-12.000000000000000 1145.000000000000000 8.000000000000000
0 0

0101101
*
Ed
 0.000000100000000 1 1 0
1  2 0 0.000000000000000 2290.000000000000000
0

0101000
+341 9 -338 9 *
Ve
0.000000100000000
-136.000000000000000 1145.000000000000000 8.000000000000000
0 0

0101101
*
Ed
 0.000000100000000 1 1 0
1  3 0 0.000000000000000 2290.000000000000000
0

0101000
+340 9 -336 9 *
Ed
 0.000000100000000 1 1 0
1  4 0 4.000000000000000 128.000000000000000
0

0101000
+338 12 -336 12 *
Wi

0101100
-339 5 +337 8 -335 8 +334 11 *
Ve
0.000000100000007
-57.118750000000006 1123.000000000000000 8.000000000000000
0 0

0101101
*
Ed
 0.000000100000000 1 1 0
1  5 0 0.000000000000000 6.283185307179586
2  1 2 13 0.000000000000000 6.283185307179586
0

0101100
+332 14 -332 14 *
Wi

0101100
-331 0 *
Ve
0.000000100000007
-57.118750000000006 652.370000000000005 8.000000000000000
0 0

0101101
*
Ed
 0.000000100000000 1 1 0
1  6 0 0.000000000000000 6.283185307179586
2  2 3 15 0.000000000000000 6.283185307179586
0

0101100
+329 14 -329 14 *
Wi

0101100
-328 0 *
Ve
0.000000100000000
-81.118750000000006 1096.000000000000000 8.000000000000000
0 0

0101101
*
Ed
 0.000000100000000 1 1 0
1  7 0 0.000000000000000 6.283185307179586
2  3 4 16 0.000000000000000 6.283185307179586
0

0101100
+326 14 -326 14 *
Wi

0101100
-325 0 *
Ve
0.000000100000000
-81.118750000000006 625.370000000000005 8.000000000000000
0 0

0101101
*
Ed
 0.000000100000000 1 1 0
1  8 0 0.000000000000000 6.283185307179586
2  4 5 17 0.000000000000000 6.283185307179586
0

0101100
+323 14 -323 14 *
Wi

0101100
-322 0 *
Ve
0.000000100000000
-109.118750000000006 1123.000000000000000 8.000000000000000
0 0

0101101
*
Ed
 0.000000100000000 1 1 0
1  9 0 0.000000000000000 6.283185307179586
2  5 6 18 0.000000000000000 6.283185307179586
0

0101100
+320 14 -320 14 *
Wi

0101100
-319 0 *
Ve
0.000000100000000
-109.118750000000006 1071.000000000000000 8.000000000000000
0 0

0101101
*
Ed
 0.000000100000000 1 1 0
1  10 0 0.000000000000000 6.283185307179586
2  6 7 19 0.000000000000000 6.283185307179586
0

0101100
+317 14 -317 14 *
Wi

0101100
-316 0 *
Ve
0.000000100000000
-109.118750000000006 652.370000000000005 8.000000000000000
0 0

0101101
*
Ed
 0.000000100000000 1 1 0
1  11 0 0.000000000000000 6.283185307179586
2  7 8 20 0.000000000000000 6.283185307179586
0

0101100
+314 14 -314 14 *
Wi

0101100
-313 0 *
Ve
0.000000100000000
-109.118750000000006 600.370000000000005 8.000000000000000
0 0

0101101
*
Ed
 0.000000100000000 1 1 0
1  12 0 0.000000000000000 6.283185307179586
2  8 9 21 0.000000000000000 6.283185307179586
0

0101100
+311 14 -311 14 *
Wi

0101100
-310 0 *
Ve
0.000000100000007
-57.118749999999991 -652.370000000000005 8.000000000000000
0 0

0101101
*
Ed
 0.000000100000000 1 1 0
1  13 0 0.000000000000000 6.283185307179586
2  9 10 22 0.000000000000000 6.283185307179586
0

0101100
+308 14 -308 14 *
Wi

0101100
-307 0 *
Ve
0.000000100000007
-57.118749999999991 -1123.000000000000000 8.000000000000000
0 0

0101101
*
Ed
 0.000000100000000 1 1 0
1  14 0 0.000000000000000 6.283185307179586
2  10 11 23 0.000000000000000 6.283185307179586
0

0101100
+305 14 -305 14 *
Wi

0101100
-304 0 *
Ve
0.000000100000000
-81.118750000000006 -625.370000000000005 8.000000000000000
0 0

0101101
*
Ed
 0.000000100000000 1 1 0
1  15 0 0.000000000000000 6.283185307179586
2  11 12 24 0.000000000000000 6.283185307179586
0

0101100
+302 14 -302 14 *
Wi

0101100
-301 0 *
Ve
0.000000100000000
-81.118750000000006 -1096.000000000000000 8.000000000000000
0 0

0101101
*
Ed
 0.000000100000000 1 1 0
1  16 0 0.000000000000000 6.283185307179586
2  12 13 25 0.000000000000000 6.283185307179586
0

0101100
+299 14 -299 14 *
Wi

0101100
-298 0 *
Ve
0.000000100000000
-109.118750000000006 -600.370000000000005 8.000000000000000
0 0

0101101
*
Ed
 0.000000100000000 1 1 0
1  17 0 0.000000000000000 6.283185307179586
2  13 14 26 0.000000000000000 6.283185307179586
0

0101100
+296 14 -296 14 *
Wi

0101100
-295 0 *
Ve
0.000000100000000
-109.118750000000006 -652.370000000000005 8.000000000000000
0 0

0101101
*
Ed
 0.000000100000000 1 1 0
1  18 0 0.000000000000000 6.283185307179586
2  14 15 27 0.000000000000000 6.283185307179586
0

0101100
+293 14 -293 14 *
Wi

0101100
-292 0 *
Ve
0.000000100000000
-109.118750000000006 -1071.000000000000000 8.000000000000000
0 0

0101101
*
Ed
 0.000000100000000 1 1 0
1  19 0 0.000000000000000 6.283185307179586
2  15 16 28 0.000000000000000 6.283185307179586
0

0101100
+290 14 -290 14 *
Wi

0101100
-289 0 *
Ve
0.000000100000000
-109.118750000000006 -1123.000000000000000 8.000000000000000
0 0

0101101
*
Ed
 0.000000100000000 1 1 0
1  20 0 0.000000000000000 6.283185307179586
2  16 17 29 0.000000000000000 6.283185307179586
0

0101100
+287 14 -287 14 *
Wi

0101100
-286 0 *
Fa
0  0.000000100000000 1 5

0101000
+333 0 +330 0 +327 0 +324 0 +321 0 +318 0 +315 0 +312 0 +309 0 +306 0 
+303 0 +300 0 +297 0 +294 0 +291 0 +288 0 +285 0 *
Ve
0.000000100000000
-148.000000000000000 -1145.000000000000000 0.000000000000000
0 0

0101101
*
Ve
0.000000100000000
0.000000000000000 -1145.000000000000000 0.000000000000000
0 0

0101101
*
Ed
 0.000000100000000 1 1 0
1  21 0 0.000000000000000 148.000000000000000
0

0101000
+283 7 -282 7 *
Ve
0.000000100000000
0.000000000000000 -1145.000000000000000 50.000000000000000
0 0

0101101
*
Ed
 0.000000100000000 1 1 0
1  22 0 0.000000000000000 50.000000000000000
0

0101000
+282 7 -280 7 *
Ve
0.000000100000000
-8.000000000000000 -1145.000000000000000 50.000000000000000
0 0

0101101
*
Ed
 0.000000100000000 1 1 0
1  23 0 0.000000000000000 8.000000000000000
0

0101000
+280 7 -278 7 *
Ed
 0.000000100000000 1 1 0
1  24 0 0.000000000000000 42.190046219457976
0

0101000
+341 9 -278 9 *
Ve
0.000000100000000
-140.000000000000000 -1145.000000000000000 50.000000000000000
0 0

0101101
*
Ed
 0.000000100000000 1 1 0
1  25 0 0.000000000000000 42.190046219457976
0

0101000
+340 9 -275 9 *
Ve
0.000000100000000
-148.000000000000000 -1145.000000000000000 50.000000000000000
0 0

0101101
*
Ed
 0.000000100000000 1 1 0
1  26 0 0.000000000000000 8.000000000000000
0

0101000
+275 7 -273 7 *
Ed
 0.000000100000000 1 1 0
1  27 0 0.000000000000000 50.000000000000000
0

0101000
+273 7 -283 7 *
Wi

0101100
+281 2 +279 2 +277 2 -276 0 +339 2 +274 0 +272 2 +271 2 *
Fa
0  0.000000100000000 18 0

0111000
+270 0 *
Ve
0.000000100000000
-8.000000000000000 1145.000000000000000 50.000000000000000
0 0

0101101
*
Ed
 0.000000100000000 1 1 0
1  28 0 0.000000000000000 42.190046219457976
0

0101000
+338 32 -268 32 *
Ed
 0.000000100000000 1 1 0
1  29 0 0.000000000000000 2290.000000000000000
0

0101000
+278 7 -268 7 *
Wi

0101100
+337 3 -276 3 +267 31 -266 33 *
Ve
0.000000100000015
-9.459523809523811 118.000000000000014 34.674999999999997
0 0

0101101
*
Ed
 0.000000100000000 1 1 0
1  30 0 0.000000000000000 6.283185307179586
2  17 20 0 0.000000000000000 6.283185307179586
0

0101100
+264 9 -264 9 *
Wi

0101100
-263 3 *
Ve
0.000000100000014
-9.459523809523798 1093.632857142857119 34.675000000000125
0 0

0101101
*
Ed
 0.000000100000000 1 1 0
1  31 0 0.000000000000000 6.283185307179586
2  18 21 34 0.000000000000000 6.283185307179586
0

0101100
+261 35 -261 35 *
Wi

0101100
-260 0 *
Ve
0.000000100000014
-9.459523809523798 1017.632857142857119 34.675000000000125
0 0

0101101
*
Ed
 0.000000100000000 1 1 0
1  32 0 0.000000000000000 6.283185307179586
2  19 22 36 0.000000000000000 6.283185307179586
0

0101100
+258 35 -258 35 *
Wi

0101100
-257 0 *
Ve
0.000000100000014
-9.459523809523798 941.632857142857119 34.675000000000125
0 0

0101101
*
Ed
 0.000000100000000 1 1 0
1  33 0 0.000000000000000 6.283185307179586
2  20 23 37 0.000000000000000 6.283185307179586
0

0101100
+255 35 -255 35 *
Wi

0101100
-254 0 *
Ve
0.000000100000014
-9.459523809523796 714.370000000000005 34.675000000000125
0 0

0101101
*
Ed
 0.000000100000000 1 1 0
1  34 0 0.000000000000000 6.283185307179586
2  21 24 38 0.000000000000000 6.283185307179586
0

0101100
+252 35 -252 35 *
Wi

0101100
-251 0 *
Ve
0.000000100000014
-9.459523809523796 634.370000000000005 34.675000000000125
0 0

0101101
*
Ed
 0.000000100000000 1 1 0
1  35 0 0.000000000000000 6.283185307179586
2  22 25 39 0.000000000000000 6.283185307179586
0

0101100
+249 35 -249 35 *
Wi

0101100
-248 0 *
Ve
0.000000100000015
-9.459523809523811 -117.999999999999986 34.674999999999997
0 0

0101101
*
Ed
 0.000000100000000 1 1 0
1  36 0 0.000000000000000 6.283185307179586
2  23 26 0 0.000000000000000 6.283185307179586
0

0101100
+246 9 -246 9 *
Wi

0101100
-245 3 *
Ve
0.000000100000014
-9.459523809523798 -634.369999999999891 34.675000000000125
0 0

0101101
*
Ed
 0.000000100000000 1 1 0
1  37 0 0.000000000000000 6.283185307179586
2  24 27 40 0.000000000000000 6.283185307179586
0

0101100
+243 35 -243 35 *
Wi

0101100
-242 0 *
Ve
0.000000100000014
-9.459523809523798 -714.369999999999891 34.675000000000125
0 0

0101101
*
Ed
 0.000000100000000 1 1 0
1  38 0 0.000000000000000 6.283185307179586
2  25 28 41 0.000000000000000 6.283185307179586
0

0101100
+240 35 -240 35 *
Wi

0101100
-239 0 *
Ve
0.000000100000014
-9.459523809523798 -941.632857142857119 34.675000000000125
0 0

0101101
*
Ed
 0.000000100000000 1 1 0
1  39 0 0.000000000000000 6.283185307179586
2  26 29 42 0.000000000000000 6.283185307179586
0

0101100
+237 35 -237 35 *
Wi

0101100
-236 0 *
Ve
0.000000100000014
-9.459523809523798 -1017.632857142857119 34.675000000000125
0 0

0101101
*
Ed
 0.000000100000000 1 1 0
1  40 0 0.000000000000000 6.283185307179586
2  27 30 43 0.000000000000000 6.283185307179586
0

0101100
+234 35 -234 35 *
Wi

0101100
-233 0 *
Ve
0.000000100000014
-9.459523809523798 -1093.632857142857119 34.675000000000125
0 0

0101101
*
Ed
 0.000000100000000 1 1 0
1  41 0 0.000000000000000 6.283185307179586
2  28 31 44 0.000000000000000 6.283185307179586
0

0101100
+231 35 -231 35 *
Wi

0101100
-230 0 *
Fa
0  0.000000100000000 19 3

0111000
+265 0 +262 0 +259 0 +256 0 +253 0 +250 0 +247 0 +244 0 +241 0 +238 0 
+235 0 +232 0 +229 0 *
Ve
0.000000100000000
-140.000000000000000 1145.000000000000000 50.000000000000000
0 0

0101101
*
Ed
 0.000000100000000 1 1 0
1  42 0 0.000000000000000 2290.000000000000000
0

0101000
+275 7 -227 7 *
Ed
 0.000000100000000 1 1 0
1  43 0 0.000000000000000 42.190046219457976
0

0101000
+336 46 -227 46 *
Wi

0101100
+335 0 -226 2 -274 0 +225 45 *
Fa
0  0.000000100000000 32 0

0111000
+224 0 *
Ve
0.000000100000000
-148.000000000000000 1145.000000000000000 0.000000000000000
0 0

0101101
*
Ve
0.000000100000000
0.000000000000000 1145.000000000000000 0.000000000000000
0 0

0101101
*
Ed
 0.000000100000000 1 1 0
1  44 0 0.000000000000000 148.000000000000000
0

0101000
+222 12 -221 12 *
Ve
0.000000100000000
-148.000000000000000 1145.000000000000000 50.000000000000000
0 0

0101101
*
Ed
 0.000000100000000 1 1 0
1  45 0 0.000000000000000 50.000000000000000
0

0101000
+219 12 -222 12 *
Ed
 0.000000100000000 1 1 0
1  46 0 0.000000000000000 8.000000000000000
0

0101000
+227 12 -219 12 *
Ve
0.000000100000000
0.000000000000000 1145.000000000000000 50.000000000000000
0 0

0101101
*
Ed
 0.000000100000000 1 1 0
1  47 0 0.000000000000000 8.000000000000000
0

0101000
+216 12 -268 12 *
Ed
 0.000000100000000 1 1 0
1  48 0 0.000000000000000 50.000000000000000
0

0101000
+221 12 -216 12 *
Wi

0101100
-220 47 -218 47 -217 47 -225 45 -334 47 +267 30 -215 47 -214 47 *
Fa
0  0.000000100000000 33 0

0111000
+213 0 *
Ve
0.000000100000007
-57.118750000000006 1123.000000000000000 0.000000000000000
0 0

0101101
*
Ed
 0.000000100000000 1 1 0
1  49 0 9.000000000000000 17.000000000000000
3  29 30CN 2 0 9.000000000000000 17.000000000000000
0

0101000
+211 48 -332 48 *
Ed
 0.000000100000000 1 1 0
1  50 0 0.000000000000000 6.283185307179586
2  31 2 13 0.000000000000000 6.283185307179586
0

0101100
+211 14 -211 14 *
Wi

0101100
-331 0 +210 13 +209 0 -210 13 *
Fa
0  0.000000100000000 2 13

0101000
+208 0 *
Ve
0.000000100000007
-57.118750000000006 652.370000000000005 0.000000000000000
0 0

0101101
*
Ed
 0.000000100000000 1 1 0
1  51 0 9.000000000000000 17.000000000000000
3  32 33CN 3 0 9.000000000000000 17.000000000000000
0

0101000
+206 49 -329 49 *
Ed
 0.000000100000000 1 1 0
1  52 0 0.000000000000000 6.283185307179586
2  34 3 15 0.000000000000000 6.283185307179586
0

0101100
+206 14 -206 14 *
Wi

0101100
-328 0 +205 15 +204 0 -205 15 *
Fa
0  0.000000100000000 3 15

0101000
+203 0 *
Ve
0.000000100000000
-81.118750000000006 1096.000000000000000 0.000000000000000
0 0

0101101
*
Ed
 0.000000100000000 1 1 0
1  53 0 9.000000000000000 17.000000000000000
3  35 36CN 4 0 9.000000000000000 17.000000000000000
0

0101000
+201 50 -326 50 *
Ed
 0.000000100000000 1 1 0
1  54 0 0.000000000000000 6.283185307179586
2  37 4 16 0.000000000000000 6.283185307179586
0

0101100
+201 14 -201 14 *
Wi

0101100
-325 0 +200 16 +199 0 -200 16 *
Fa
0  0.000000100000000 4 16

0101000
+198 0 *
Ve
0.000000100000000
-81.118750000000006 625.370000000000005 0.000000000000000
0 0

0101101
*
Ed
 0.000000100000000 1 1 0
1  55 0 9.000000000000000 17.000000000000000
3  38 39CN 5 0 9.000000000000000 17.000000000000000
0

0101000
+196 51 -323 51 *
Ed
 0.000000100000000 1 1 0
1  56 0 0.000000000000000 6.283185307179586
2  40 5 17 0.000000000000000 6.283185307179586
0

0101100
+196 14 -196 14 *
Wi

0101100
-322 0 +195 17 +194 0 -195 17 *
Fa
0  0.000000100000000 5 17

0101000
+193 0 *
Ve
0.000000100000000
-109.118750000000006 1123.000000000000000 0.000000000000000
0 0

0101101
*
Ed
 0.000000100000000 1 1 0
1  57 0 9.000000000000000 17.000000000000000
3  41 42CN 6 0 9.000000000000000 17.000000000000000
0

0101000
+191 52 -320 52 *
Ed
 0.000000100000000 1 1 0
1  58 0 0.000000000000000 6.283185307179586
2  43 6 18 0.000000000000000 6.283185307179586
0

0101100
+191 14 -191 14 *
Wi

0101100
-319 0 +190 18 +189 0 -190 18 *
Fa
0  0.000000100000000 6 18

0101000
+188 0 *
Ve
0.000000100000000
-109.118750000000006 1071.000000000000000 0.000000000000000
0 0

0101101
*
Ed
 0.000000100000000 1 1 0
1  59 0 9.000000000000000 17.000000000000000
3  44 45CN 7 0 9.000000000000000 17.000000000000000
0

0101000
+186 53 -317 53 *
Ed
 0.000000100000000 1 1 0
1  60 0 0.000000000000000 6.283185307179586
2  46 7 19 0.000000000000000 6.283185307179586
0

0101100
+186 14 -186 14 *
Wi

0101100
-316 0 +185 19 +184 0 -185 19 *
Fa
0  0.000000100000000 7 19

0101000
+183 0 *
Ve
0.000000100000000
-109.118750000000006 652.370000000000005 0.000000000000000
0 0

0101101
*
Ed
 0.000000100000000 1 1 0
1  61 0 9.000000000000000 17.000000000000000
3  47 48CN 8 0 9.000000000000000 17.000000000000000
0

0101000
+181 54 -314 54 *
Ed
 0.000000100000000 1 1 0
1  62 0 0.000000000000000 6.283185307179586
2  49 8 20 0.000000000000000 6.283185307179586
0

0101100
+181 14 -181 14 *
Wi

0101100
-313 0 +180 20 +179 0 -180 20 *
Fa
0  0.000000100000000 8 20

0101000
+178 0 *
Ve
0.000000100000000
-109.118750000000006 600.370000000000005 0.000000000000000
0 0

0101101
*
Ed
 0.000000100000000 1 1 0
1  63 0 9.000000000000000 17.000000000000000
3  50 51CN 9 0 9.000000000000000 17.000000000000000
0

0101000
+176 55 -311 55 *
Ed
 0.000000100000000 1 1 0
1  64 0 0.000000000000000 6.283185307179586
2  52 9 21 0.000000000000000 6.283185307179586
0

0101100
+176 14 -176 14 *
Wi

0101100
-310 0 +175 21 +174 0 -175 21 *
Fa
0  0.000000100000000 9 21

0101000
+173 0 *
Ve
0.000000100000007
-57.118749999999991 -652.370000000000005 0.000000000000000
0 0

0101101
*
Ed
 0.000000100000000 1 1 0
1  65 0 9.000000000000000 17.000000000000000
3  53 54CN 10 0 9.000000000000000 17.000000000000000
0

0101000
+171 56 -308 56 *
Ed
 0.000000100000000 1 1 0
1  66 0 0.000000000000000 6.283185307179586
2  55 10 22 0.000000000000000 6.283185307179586
0

0101100
+171 14 -171 14 *
Wi

0101100
-307 0 +170 22 +169 0 -170 22 *
Fa
0  0.000000100000000 10 22

0101000
+168 0 *
Ve
0.000000100000007
-57.118749999999991 -1123.000000000000000 0.000000000000000
0 0

0101101
*
Ed
 0.000000100000000 1 1 0
1  67 0 9.000000000000000 17.000000000000000
3  56 57CN 11 0 9.000000000000000 17.000000000000000
0

0101000
+166 57 -305 57 *
Ed
 0.000000100000000 1 1 0
1  68 0 0.000000000000000 6.283185307179586
2  58 11 23 0.000000000000000 6.283185307179586
0

0101100
+166 14 -166 14 *
Wi

0101100
-304 0 +165 23 +164 0 -165 23 *
Fa
0  0.000000100000000 11 23

0101000
+163 0 *
Ve
0.000000100000000
-81.118750000000006 -625.370000000000005 0.000000000000000
0 0

0101101
*
Ed
 0.000000100000000 1 1 0
1  69 0 9.000000000000000 17.000000000000000
3  59 60CN 12 0 9.000000000000000 17.000000000000000
0

0101000
+161 58 -302 58 *
Ed
 0.000000100000000 1 1 0
1  70 0 0.000000000000000 6.283185307179586
2  61 12 24 0.000000000000000 6.283185307179586
0

0101100
+161 14 -161 14 *
Wi

0101100
-301 0 +160 24 +159 0 -160 24 *
Fa
0  0.000000100000000 12 24

0101000
+158 0 *
Ve
0.000000100000000
-81.118750000000006 -1096.000000000000000 0.000000000000000
0 0

0101101
*
Ed
 0.000000100000000 1 1 0
1  71 0 9.000000000000000 17.000000000000000
3  62 63CN 13 0 9.000000000000000 17.000000000000000
0

0101000
+156 59 -299 59 *
Ed
 0.000000100000000 1 1 0
1  72 0 0.000000000000000 6.283185307179586
2  64 13 25 0.000000000000000 6.283185307179586
0

0101100
+156 14 -156 14 *
Wi

0101100
-298 0 +155 25 +154 0 -155 25 *
Fa
0  0.000000100000000 13 25

0101000
+153 0 *
Ve
0.000000100000000
-109.118750000000006 -600.370000000000005 0.000000000000000
0 0

0101101
*
Ed
 0.000000100000000 1 1 0
1  73 0 9.000000000000000 17.000000000000000
3  65 66CN 14 0 9.000000000000000 17.000000000000000
0

0101000
+151 60 -296 60 *
Ed
 0.000000100000000 1 1 0
1  74 0 0.000000000000000 6.283185307179586
2  67 14 26 0.000000000000000 6.283185307179586
0

0101100
+151 14 -151 14 *
Wi

0101100
-295 0 +150 26 +149 0 -150 26 *
Fa
0  0.000000100000000 14 26

0101000
+148 0 *
Ve
0.000000100000000
-109.118750000000006 -652.370000000000005 0.000000000000000
0 0

0101101
*
Ed
 0.000000100000000 1 1 0
1  75 0 9.000000000000000 17.000000000000000
3  68 69CN 15 0 9.000000000000000 17.000000000000000
0

0101000
+146 61 -293 61 *
Ed
 0.000000100000000 1 1 0
1  76 0 0.000000000000000 6.283185307179586
2  70 15 27 0.000000000000000 6.283185307179586
0

0101100
+146 14 -146 14 *
Wi

0101100
-292 0 +145 27 +144 0 -145 27 *
Fa
0  0.000000100000000 15 27

0101000
+143 0 *
Ve
0.000000100000000
-109.118750000000006 -1071.000000000000000 0.000000000000000
0 0

0101101
*
Ed
 0.000000100000000 1 1 0
1  77 0 9.000000000000000 17.000000000000000
3  71 72CN 16 0 9.000000000000000 17.000000000000000
0

0101000
+141 62 -290 62 *
Ed
 0.000000100000000 1 1 0
1  78 0 0.000000000000000 6.283185307179586
2  73 16 28 0.000000000000000 6.283185307179586
0

0101100
+141 14 -141 14 *
Wi

0101100
-289 0 +140 28 +139 0 -140 28 *
Fa
0  0.000000100000000 16 28

0101000
+138 0 *
Ve
0.000000100000000
-109.118750000000006 -1123.000000000000000 0.000000000000000
0 0

0101101
*
Ed
 0.000000100000000 1 1 0
1  79 0 9.000000000000000 17.000000000000000
3  74 75CN 17 0 9.000000000000000 17.000000000000000
0

0101000
+136 63 -287 63 *
Ed
 0.000000100000000 1 1 0
1  80 0 0.000000000000000 6.283185307179586
2  76 17 29 0.000000000000000 6.283185307179586
0

0101100
+136 14 -136 14 *
Wi

0101100
-286 0 +135 29 +134 0 -135 29 *
Fa
0  0.000000100000000 17 29

0101000
+133 0 *
Ed
 0.000000100000000 1 1 0
1  81 0 0.000000000000000 2290.000000000000000
0

0101000
+283 7 -222 7 *
Ed
 0.000000100000000 1 1 0
1  82 0 0.000000000000000 2290.000000000000000
0

0101000
+282 7 -221 7 *
Wi

0101100
+131 5 -281 5 +220 11 -130 5 *
Wi

0101100
+189 0 *
Wi

0101100
+184 0 *
Wi

0101100
+179 0 *
Wi

0101100
+174 0 *
Wi

0101100
+199 0 *
Wi

0101100
+194 0 *
Wi

0101100
+209 0 *
Wi

0101100
+204 0 *
Wi

0101100
+149 0 *
Wi

0101100
+144 0 *
Wi

0101100
+139 0 *
Wi

0101100
+134 0 *
Wi

0101100
+159 0 *
Wi

0101100
+154 0 *
Wi

0101100
+169 0 *
Wi

0101100
+164 0 *
Fa
0  0.000000100000000 34 5

0101000
+129 0 +128 0 +127 0 +126 0 +125 0 +124 0 +123 0 +122 0 +121 0 +120 0 
+119 0 +118 0 +117 0 +116 0 +115 0 +114 0 +113 0 *
Ed
 0.000000100000000 1 1 0
1  83 0 0.000000000000000 2290.000000000000000
0

0101000
+280 7 -216 7 *
Wi

0101100
+130 33 -279 33 +214 64 -111 33 *
Ve
0.000000100000014
0.000000000000000 118.000000000000014 34.674999999999997
0 0

0101101
*
Ed
 0.000000100000000 1 1 0
1  84 0 0.000000000000000 6.283185307179586
2  77 20 0 0.000000000000000 6.283185307179586
0

0101100
+109 9 -109 9 *
Wi

0101100
-108 3 *
Ve
0.000000100000014
0.000000000000000 1093.632857142857119 34.675000000000125
0 0

0101101
*
Ed
 0.000000100000000 1 1 0
1  85 0 0.000000000000000 6.283185307179586
2  78 21 34 0.000000000000000 6.283185307179586
0

0101100
+106 35 -106 35 *
Wi

0101100
-105 0 *
Ve
0.000000100000014
0.000000000000000 1017.632857142857119 34.675000000000125
0 0

0101101
*
Ed
 0.000000100000000 1 1 0
1  86 0 0.000000000000000 6.283185307179586
2  79 22 36 0.000000000000000 6.283185307179586
0

0101100
+103 35 -103 35 *
Wi

0101100
-102 0 *
Ve
0.000000100000014
0.000000000000000 941.632857142857119 34.675000000000125
0 0

0101101
*
Ed
 0.000000100000000 1 1 0
1  87 0 0.000000000000000 6.283185307179586
2  80 23 37 0.000000000000000 6.283185307179586
0

0101100
+100 35 -100 35 *
Wi

0101100
-99 0 *
Ve
0.000000100000014
0.000000000000000 714.370000000000005 34.675000000000125
0 0

0101101
*
Ed
 0.000000100000000 1 1 0
1  88 0 0.000000000000000 6.283185307179586
2  81 24 38 0.000000000000000 6.283185307179586
0

0101100
+97 35 -97 35 *
Wi

0101100
-96 0 *
Ve
0.000000100000014
0.000000000000000 634.370000000000005 34.675000000000125
0 0

0101101
*
Ed
 0.000000100000000 1 1 0
1  89 0 0.000000000000000 6.283185307179586
2  82 25 39 0.000000000000000 6.283185307179586
0

0101100
+94 35 -94 35 *
Wi

0101100
-93 0 *
Ve
0.000000100000014
0.000000000000000 -117.999999999999986 34.674999999999997
0 0

0101101
*
Ed
 0.000000100000000 1 1 0
1  90 0 0.000000000000000 6.283185307179586
2  83 26 0 0.000000000000000 6.283185307179586
0

0101100
+91 9 -91 9 *
Wi

0101100
-90 3 *
Ve
0.000000100000014
0.000000000000000 -634.369999999999891 34.675000000000125
0 0

0101101
*
Ed
 0.000000100000000 1 1 0
1  91 0 0.000000000000000 6.283185307179586
2  84 27 40 0.000000000000000 6.283185307179586
0

0101100
+88 35 -88 35 *
Wi

0101100
-87 0 *
Ve
0.000000100000014
0.000000000000000 -714.369999999999891 34.675000000000125
0 0

0101101
*
Ed
 0.000000100000000 1 1 0
1  92 0 0.000000000000000 6.283185307179586
2  85 28 41 0.000000000000000 6.283185307179586
0

0101100
+85 35 -85 35 *
Wi

0101100
-84 0 *
Ve
0.000000100000014
0.000000000000000 -941.632857142857119 34.675000000000125
0 0

0101101
*
Ed
 0.000000100000000 1 1 0
1  93 0 0.000000000000000 6.283185307179586
2  86 29 42 0.000000000000000 6.283185307179586
0

0101100
+82 35 -82 35 *
Wi

0101100
-81 0 *
Ve
0.000000100000014
0.000000000000000 -1017.632857142857119 34.675000000000125
0 0

0101101
*
Ed
 0.000000100000000 1 1 0
1  94 0 0.000000000000000 6.283185307179586
2  87 30 43 0.000000000000000 6.283185307179586
0

0101100
+79 35 -79 35 *
Wi

0101100
-78 0 *
Ve
0.000000100000014
0.000000000000000 -1093.632857142857119 34.675000000000125
0 0

0101101
*
Ed
 0.000000100000000 1 1 0
1  95 0 0.000000000000000 6.283185307179586
2  88 31 44 0.000000000000000 6.283185307179586
0

0101100
+76 35 -76 35 *
Wi

0101100
-75 0 *
Fa
0  0.000000100000000 35 33

0111000
+110 0 +107 0 +104 0 +101 0 +98 0 +95 0 +92 0 +89 0 +86 0 +83 0 
+80 0 +77 0 +74 0 *
Wi

0101100
+111 2 -266 2 -277 2 +215 47 *
Fa
0  0.000000100000000 36 2

0111000
+72 0 *
Ed
 0.000000100000000 1 1 0
1  96 0 0.000000000000000 2290.000000000000000
0

0101000
+273 7 -219 7 *
Wi

0101100
+226 2 -70 2 -272 2 +217 47 *
Fa
0  0.000000100000000 37 2

0111000
+69 0 *
Wi

0101100
+70 0 -131 0 -271 0 +218 10 *
Fa
0  0.000000100000000 38 0

0111000
+67 0 *
Ed
 0.000000100000000 1 1 0
1  97 0 3.540476190476189 13.000000000000000
3  89 90CN 20 0 3.540476190476189 13.000000000000000
0

0101000
+264 9 -109 9 *
Wi

0101100
-108 0 +65 0 +263 0 -65 0 *
Fa
0  0.000000100000000 20 0

0111000
+64 0 *
Ed
 0.000000100000000 1 1 0
1  98 0 3.540476190476145 12.999999999999943
3  91 92CN 21 0 3.540476190476145 12.999999999999943
0

0101000
+261 65 -106 65 *
Wi

0101100
-105 0 +62 34 +260 0 -62 34 *
Fa
0  0.000000100000000 21 34

0111000
+61 0 *
Ed
 0.000000100000000 1 1 0
1  99 0 3.540476190476145 12.999999999999943
3  93 94CN 22 0 3.540476190476145 12.999999999999943
0

0101000
+258 66 -103 66 *
Wi

0101100
-102 0 +59 36 +257 0 -59 36 *
Fa
0  0.000000100000000 22 36

0111000
+58 0 *
Ed
 0.000000100000000 1 1 0
1  100 0 3.540476190476145 12.999999999999943
3  95 96CN 23 0 3.540476190476145 12.999999999999943
0

0101000
+255 67 -100 67 *
Wi

0101100
-99 0 +56 37 +254 0 -56 37 *
Fa
0  0.000000100000000 23 37

0111000
+55 0 *
Ed
 0.000000100000000 1 1 0
1  101 0 3.540476190476147 12.999999999999943
3  97 98CN 24 0 3.540476190476147 12.999999999999943
0

0101000
+252 68 -97 68 *
Wi

0101100
-96 0 +53 38 +251 0 -53 38 *
Fa
0  0.000000100000000 24 38

0111000
+52 0 *
Ed
 0.000000100000000 1 1 0
1  102 0 3.540476190476147 12.999999999999943
3  99 100CN 25 0 3.540476190476147 12.999999999999943
0

0101000
+249 69 -94 69 *
Wi

0101100
-93 0 +50 39 +248 0 -50 39 *
Fa
0  0.000000100000000 25 39

0111000
+49 0 *
Ed
 0.000000100000000 1 1 0
1  103 0 3.540476190476189 13.000000000000000
3  101 102CN 26 0 3.540476190476189 13.000000000000000
0

0101000
+246 9 -91 9 *
Wi

0101100
-90 0 +47 0 +245 0 -47 0 *
Fa
0  0.000000100000000 26 0

0111000
+46 0 *
Ed
 0.000000100000000 1 1 0
1  104 0 3.540476190476145 12.999999999999943
3  103 104CN 27 0 3.540476190476145 12.999999999999943
0

0101000
+243 70 -88 70 *
Wi

0101100
-87 0 +44 40 +242 0 -44 40 *
Fa
0  0.000000100000000 27 40

0111000
+43 0 *
Ed
 0.000000100000000 1 1 0
1  105 0 3.540476190476145 12.999999999999943
3  105 106CN 28 0 3.540476190476145 12.999999999999943
0

0101000
+240 71 -85 71 *
Wi

0101100
-84 0 +41 41 +239 0 -41 41 *
Fa
0  0.000000100000000 28 41

0111000
+40 0 *
Ed
 0.000000100000000 1 1 0
1  106 0 3.540476190476145 12.999999999999943
3  107 108CN 29 0 3.540476190476145 12.999999999999943
0

0101000
+237 72 -82 72 *
Wi

0101100
-81 0 +38 42 +236 0 -38 42 *
Fa
0  0.000000100000000 29 42

0111000
+37 0 *
Ed
 0.000000100000000 1 1 0
1  107 0 3.540476190476145 12.999999999999943
3  109 110CN 30 0 3.540476190476145 12.999999999999943
0

0101000
+234 73 -79 73 *
Wi

0101100
-78 0 +35 43 +233 0 -35 43 *
Fa
0  0.000000100000000 30 43

0111000
+34 0 *
Ed
 0.000000100000000 1 1 0
1  108 0 3.540476190476145 12.999999999999943
3  111 112CN 31 0 3.540476190476145 12.999999999999943
0

0101000
+231 74 -76 74 *
Wi

0101100
-75 0 +32 44 +230 0 -32 44 *
Fa
0  0.000000100000000 31 44

0111000
+31 0 *
Sh

0101100
+284 0 +269 8 -228 4 +223 8 +212 8 -207 0 -202 0 -197 0 -192 0 -187 0 
-182 0 -177 0 -172 0 -167 0 -162 0 -157 0 -152 0 -147 0 -142 0 -137 0 
-132 0 +112 0 +73 4 +71 8 +68 8 +66 5 -63 8 -60 4 -57 4 -54 4 
-51 4 -48 4 -45 8 -42 4 -39 4 -36 4 -33 4 -30 4 *
So

0100000
+29 0 *
Co

0100000
+28 0 *
Co

0100000
+27 0 *
Co

0100000
+26 0 *
Co

0100000
+25 0 *
Co

0100000
+24 0 *
Co

0100000
+23 0 *
Co

0100000
+22 0 *
Co

0100000
+21 0 *
Co

0100000
+20 0 *
Co

0100000
+19 0 *
Co

0100000
+18 0 *
Co

0100000
+17 0 *
Co

0100000
+16 0 *
Co

0100000
+15 0 *
Co

0100000
+14 0 *
Co

0100000
+13 0 *
Co

0100000
+12 0 *
Co

0100000
+11 0 *
Co

0100000
+10 0 *
Co

0100000
+9 0 *
Co

0100000
+8 0 *
Co

0100000
+7 0 *
Co

0100000
+6 0 *
Co

0100000
+5 0 *
Co

0100000
+4 0 *
Co

0100000
+3 0 *
Co

1100000
+2 0 *

+1 1 