
CASCADE Topology V1, (c) Matra-Datavision
Locations 3
1
1.000000000000000 0.000000000000000 0.000000000000000 0.000000000000000 
0.000000000000000 1.000000000000000 0.000000000000000 0.000000000000000 
0.000000000000000 0.000000000000000 1.000000000000000 0.000000000000000 
1
1.000000000000000 0.000000000000000 0.000000000000000 0.000000000000000 
0.000000000000000 1.000000000000000 0.000000000000000 0.000000000000000 
0.000000000000000 0.000000000000000 1.000000000000000 0.000000000000000 
2  2 -1 0
Curve2ds 16
1 6.28318530717958623 -0.00000000000000000 0.00000000000000000 1.00000000000000000 
1 0.00000000000000000 -0.00000000000000000 0.00000000000000000 1.00000000000000000 
1 0.00000000000000000 10.21893538788621214 1.00000000000000000 0.00000000000000000 
1 0.00000000000000000 2.32104157078141871 1.00000000000000000 0.00000000000000000 
1 0.00000000000000000 14.00047999999999604 1.00000000000000000 0.00000000000000000 
1 6.28318530717958623 -0.00000000000000000 0.00000000000000000 1.00000000000000000 
1 0.00000000000000000 -0.00000000000000000 0.00000000000000000 1.00000000000000000 
1 0.00000000000000000 3.96214373639816753 1.00000000000000000 0.00000000000000000 
1 0.00000000000000000 3.78154461211378390 1.00000000000000000 0.00000000000000000 
1 0.00000000000000000 15.00047999999999604 1.00000000000000000 0.00000000000000000 
1 6.28318530717958623 -0.00000000000000000 0.00000000000000000 1.00000000000000000 
1 0.00000000000000000 -0.00000000000000000 0.00000000000000000 1.00000000000000000 
1 0.00000000000000000 0.00000000000000000 1.00000000000000000 0.00000000000000000 
1 6.28318530717958623 -0.00000000000000000 0.00000000000000000 1.00000000000000000 
1 0.00000000000000000 -0.00000000000000000 0.00000000000000000 1.00000000000000000 
1 0.00000000000000000 1.00000000000000000 1.00000000000000000 0.00000000000000000 
Curves 10
1 41.00000000000000000 0.00000000000000318 13.00000000000000000 1.00000000000000000 0.00000000000000000 0.00000000000000000 
2 51.21893538788621214 0.00000000000000000 0.00000000000000000 1.00000000000000000 0.00000000000000000 -0.00000000000000000 0.00000000000000000 0.00000000000000000 1.00000000000000000 0.00000000000000000 -1.00000000000000000 0.00000000000000000 13.00000000000000000
2 55.00047999999999604 0.00000000000000000 0.00000000000000000 1.00000000000000000 0.00000000000000000 -0.00000000000000000 0.00000000000000000 0.00000000000000000 1.00000000000000000 0.00000000000000000 -1.00000000000000000 0.00000000000000000 13.00000000000000000
2 48.00023999999999802 0.00000000000000392 16.00000000000000000 0.00000000000000000 1.00000000000000000 -0.00000000000000024 0.00000000000000000 0.00000000000000024 1.00000000000000000 1.00000000000000000 -0.00000000000000000 0.00000000000000000 4.39999999999999947
2 44.78154461211378390 0.00000000000000000 0.00000000000000000 1.00000000000000000 0.00000000000000000 -0.00000000000000000 0.00000000000000000 0.00000000000000000 1.00000000000000000 0.00000000000000000 -1.00000000000000000 0.00000000000000000 13.00000000000000000
2 55.00047999999999604 0.00000000000000000 0.00000000000000000 1.00000000000000000 0.00000000000000000 -0.00000000000000000 0.00000000000000000 0.00000000000000000 1.00000000000000000 0.00000000000000000 -1.00000000000000000 0.00000000000000000 8.50010999999999939
1 41.00000000000000000 0.00000000000000318 13.00000000000000000 1.00000000000000000 0.00000000000000000 0.00000000000000000 
2 41.00000000000000000 0.00000000000000000 0.00000000000000000 1.00000000000000000 0.00000000000000000 -0.00000000000000000 0.00000000000000000 0.00000000000000000 1.00000000000000000 0.00000000000000000 -1.00000000000000000 0.00000000000000000 13.00000000000000000
1 40.00000000000000000 0.00000000000000208 8.50010999999999939 1.00000000000000000 0.00000000000000000 0.00000000000000000 
2 41.00000000000000000 0.00000000000000000 0.00000000000000000 1.00000000000000000 0.00000000000000000 -0.00000000000000000 0.00000000000000000 0.00000000000000000 1.00000000000000000 0.00000000000000000 -1.00000000000000000 0.00000000000000000 8.50010999999999939
Polygon3D 0
PolygonOnTriangulations 0
Surfaces 6
2 41.00000000000000000 0.00000000000000000 0.00000000000000000 1.00000000000000000 0.00000000000000000 0.00000000000000000 0.00000000000000000 0.00000000000000000 1.00000000000000000 0.00000000000000000 -1.00000000000000000 0.00000000000000000 13.00000000000000000
5 48.00023999999999802 0.00000000000000000 0.00000000000000000 1.00000000000000000 0.00000000000000000 0.00000000000000000 0.00000000000000000 0.00000000000000000 1.00000000000000000 0.00000000000000000 -1.00000000000000000 0.00000000000000000 16.00000000000000000 4.39999999999999947
2 41.00000000000000000 0.00000000000000000 0.00000000000000000 1.00000000000000000 0.00000000000000000 0.00000000000000000 0.00000000000000000 0.00000000000000000 1.00000000000000000 0.00000000000000000 -1.00000000000000000 0.00000000000000000 13.00000000000000000
1 55.00047999999999604 0.00000000000000000 0.00000000000000000 1.00000000000000000 0.00000000000000000 0.00000000000000000 0.00000000000000000 0.00000000000000000 1.00000000000000000 0.00000000000000000 -1.00000000000000000 0.00000000000000000 
2 40.00000000000000000 0.00000000000000000 0.00000000000000000 1.00000000000000000 0.00000000000000000 0.00000000000000000 0.00000000000000000 0.00000000000000000 1.00000000000000000 0.00000000000000000 -1.00000000000000000 0.00000000000000000 8.50010999999999939
1 41.00000000000000000 0.00000000000000000 0.00000000000000000 1.00000000000000000 0.00000000000000000 0.00000000000000000 0.00000000000000000 0.00000000000000000 1.00000000000000000 0.00000000000000000 -1.00000000000000000 0.00000000000000000 
Triangulations 0

TShapes 33
Ve
0.000000100000138
51.218935387886091 0.000000000000003 12.999999999999932
0 0

0101101
*
Ve
0.000000100000000
55.000479999999996 0.000000000000003 13.000000000000000
0 0

0101101
*
Ed
 0.000000100000000 1 1 0
1  1 0 10.218935387886091 14.000479999999996
3  1 2CN 1 0 10.218935387886091 14.000479999999996
0

0101000
+33 3 -32 3 *
Ed
 0.000000100000000 1 1 0
1  2 0 0.000000000000000 6.283185307179586
2  3 1 0 0.000000000000000 6.283185307179586
2  4 2 0 0.000000000000000 6.283185307179586
0

0101100
+33 3 -33 3 *
Ed
 0.000000100000000 1 1 0
1  3 0 0.000000000000000 6.283185307179586
2  5 1 0 0.000000000000000 6.283185307179586
0

0101000
+32 3 -32 3 *
Wi

0101100
+31 0 +30 0 -31 0 -29 0 *
Fa
0  0.000000100000000 1 0

0111000
+28 0 *
Ve
0.000000100000138
44.781544612113905 0.000000000000003 12.999999999999932
0 0

0101101
*
Ed
 0.000000100000000 1 1 0
1  4 0 2.321041570781448 3.962143736398138
3  6 7CN 2 0 2.321041570781448 3.962143736398138
0

0101000
+33 3 -26 3 *
Ed
 0.000000100000000 1 1 0
1  5 0 0.000000000000000 6.283185307179586
2  8 2 0 0.000000000000000 6.283185307179586
2  9 3 0 0.000000000000000 6.283185307179586
0

0101100
+26 3 -26 3 *
Wi

0101100
+30 0 -25 0 -24 0 +25 0 *
Fa
0  0.000000100000000 2 0

0111000
+23 0 *
Wi

0101100
+29 0 *
Ve
0.000000100000002
55.000479999999996 0.000000000000002 8.500109999999999
0 0

0101101
*
Ed
 0.000000100000000 1 1 0
1  6 0 0.000000000000000 6.283185307179586
2  10 5 0 0.000000000000000 6.283185307179586
0

0101100
+20 3 -20 3 *
Wi

0101100
-19 0 *
Fa
0  0.000000100000000 4 0

0111000
+21 0 +18 0 *
Ve
0.000000100000000
41.000000000000000 0.000000000000003 13.000000000000000
0 0

0101101
*
Ed
 0.000000100000000 1 1 0
1  7 0 0.000000000000000 3.781544612113905
3  11 12CN 3 0 0.000000000000000 3.781544612113905
0

0101000
+16 3 -26 3 *
Ed
 0.000000100000000 1 1 0
1  8 0 0.000000000000000 6.283185307179586
2  13 3 0 0.000000000000000 6.283185307179586
0

0101000
+16 3 -16 3 *
Wi

0101100
-24 0 +15 0 +14 0 -15 0 *
Fa
0  0.000000100000000 3 0

0111000
+13 0 *
Ve
0.000000100000002
41.000000000000000 0.000000000000002 8.500109999999999
0 0

0101101
*
Ed
 0.000000100000000 1 1 0
1  9 0 1.000000000000000 15.000479999999996
3  14 15CN 5 0 1.000000000000000 15.000479999999996
0

0101000
+11 3 -20 3 *
Ed
 0.000000100000000 1 1 0
1  10 0 0.000000000000000 6.283185307179586
2  16 5 0 0.000000000000000 6.283185307179586
0

0101100
+11 3 -11 3 *
Wi

0101100
-19 0 +10 0 +9 0 -10 0 *
Fa
0  0.000000100000000 5 0

0111000
+8 0 *
Wi

0101100
+14 0 *
Wi

0101100
-9 0 *
Fa
0  0.000000100000000 6 0

0111000
+6 0 +5 0 *
Sh

0101100
+27 0 -22 0 +17 0 +12 0 -7 0 -4 0 *
So

0100000
+3 0 *
Co

1100000
+2 0 *

+1 1 