DBRep_DrawableShape

CASCADE Topology V1, (c) Matra-Datavision
Locations 35
1
              1               0               0               0 
              0               1               0               0 
              0               0               1               0 
1
              1               0               0               0 
              0               1               0               0 
              0               0               1               0 
2  2 -1 0
1
              0               1               0               0 
             -1               0               0               0 
              0               0               1               0 
2  2 -1 4 -1 0
1
0.309016994374947               0 0.951056516295154               0 
              0               1               0               0 
-0.951056516295154               0 0.309016994374947               0 
2  6 1 4 1 0
2  2 -1 4 -1 6 -1 0
1
-0.309016994374947               0 0.951056516295154               0 
              0               1               0               0 
-0.951056516295154               0 -0.309016994374947               0 
2  9 1 4 1 0
2  2 -1 4 -1 9 -1 0
1
-0.809016994374947               0 0.587785252292473               0 
              0               1               0               0 
-0.587785252292473               0 -0.809016994374947               0 
2  12 1 4 1 0
2  2 -1 4 -1 12 -1 0
1
             -1               0               0               0 
              0               1               0               0 
             -0               0              -1               0 
2  15 1 4 1 0
2  2 -1 4 -1 15 -1 0
1
-0.809016994374947               0 -0.587785252292473               0 
              0               1               0               0 
0.587785252292473               0 -0.809016994374947               0 
2  18 1 4 1 0
2  2 -1 4 -1 18 -1 0
1
-0.309016994374947               0 -0.951056516295154               0 
              0               1               0               0 
0.951056516295154               0 -0.309016994374947               0 
2  21 1 4 1 0
2  2 -1 4 -1 21 -1 0
1
0.309016994374947               0 -0.951056516295154               0 
              0               1               0               0 
0.951056516295154               0 0.309016994374947               0 
2  24 1 4 1 0
2  2 -1 4 -1 24 -1 0
1
0.809016994374947               0 -0.587785252292473               0 
              0               1               0               0 
0.587785252292473               0 0.809016994374947               0 
2  27 1 4 1 0
2  2 -1 4 -1 27 -1 0
1
              1               0               0               0 
              0               1               0               0 
              0               0               1               0 
2  30 1 4 1 0
2  2 -1 4 -1 30 -1 0
1
0.809016994374947               0 0.587785252292473               0 
              0               1               0               0 
-0.587785252292473               0 0.809016994374947               0 
2  33 1 4 1 0
2  2 -1 4 -1 33 -1 0
Curve2ds 85
1 6.2831853071795862 -0 0 1 
1 0 -0 0 1 
1 0 27.950000000000045 1 0 
1 0 3.1415926535897931 1 0 
1 0 96.950000000000045 1 0 
1 0 3.1415926535897931 1 0 
1 6.2831853071795862 0 0 1 
1 0 0 0 1 
1 0 4.7123889803846897 1 0 
1 6.2831853071795862 0 0 1 
1 0 0 0 1 
1 0 4.7123889803846897 1 0 
1 0 10 1 0 
1 0 0 1 0 
1 6.2831853071795862 -0 0 1 
1 0 -0 0 1 
1 0 0 1 0 
1 0 13 1 0 
1 6.2831853071795862 -0 0 1 
1 0 -0 0 1 
1 0 1.5707963267948966 1 0 
1 0 10.524999999999977 1 0 
1 0 10.524999999999977 1 0 
1 0 10.524999999999977 1 0 
1 0 10.524999999999977 1 0 
1 0 46.800000000000068 1 0 
1 0 10.524999999999977 1 0 
1 0 10.524999999999977 1 0 
1 6.2831853071795862 0 0 1 
1 0 0 0 1 
1 0 3.1415926535897931 1 0 
1 0 9.9500000000000455 1 0 
1 6.2831853071795862 -0 0 1 
1 0 -0 0 1 
1 0 0 1 0 
1 6.2831853071795862 -0 0 1 
1 0 -0 0 1 
1 0 0 1 0 
1 6.2831853071795862 -0 0 1 
1 0 -0 0 1 
1 0 0 1 0 
1 6.2831853071795862 -0 0 1 
1 0 -0 0 1 
1 0 0 1 0 
1 6.2831853071795862 -0 0 1 
1 0 -0 0 1 
1 0 0 1 0 
1 6.2831853071795862 -0 0 1 
1 0 -0 0 1 
1 0 0 1 0 
1 6.2831853071795862 -0 0 1 
1 0 -0 0 1 
1 0 0 1 0 
1 0 0 1 0 
1 0 68.149999999999977 1 0 
1 0 1 1 0 
1 0 1 1 0 
1 0 1 1 0 
1 0 1 1 0 
1 0 1 1 0 
1 -8.9000000000000007e-16 1 1 0 
1 0 1 1 0 
1 0 1 1 0 
1 0 1 1 0 
1 0 1 1 0 
1 1.1311810622360823 0 0 1 
1 0.75377452991779359 0 0 1 
1 1.3820930606357522 0 0 1 
1 1.7594995929540409 0 0 1 
1 2.0104115913537108 0 0 1 
1 2.3878181236719995 0 0 1 
1 2.6387301220716695 0 0 1 
1 3.0161366543899581 0 0 1 
1 3.2670486527896281 0 0 1 
1 3.6444551851079163 0 0 1 
1 3.8953671835075867 0 0 1 
1 4.2727737158258758 0 0 1 
1 4.5236857142255449 0 0 1 
1 4.9010922465438336 0 0 1 
1 5.1520042449435035 0 0 1 
1 5.5294107772617922 0 0 1 
1 5.7803227756614621 0 0 1 
1 6.1577293079797508 0 0 1 
1 0.12545599919983499 0 0 1 
1 0.50286253151812355 0 0 1 
Curves 159
1 721 1.5550000000000001e-14 63.5 1 0 0 
2 748.95000000000005 0 0 1 0 -0 0 0 1 0 -1 0 63.5
2 817.95000000000005 0 0 1 0 -0 0 0 1 0 -1 0 63.5
2 748.95000000000005 0 67.5 0 1 0 0 -0 1 1 0 -0 4
2 744.95000000000005 0 0 1 0 -0 0 0 1 0 -1 0 67.5
2 817.95000000000005 0 67.5 0 -1 0 0 0 1 -1 0 0 4
2 821.95000000000005 0 0 1 0 -0 0 0 1 0 -1 0 67.5
2 744.95000000000005 0 0 1 0 -0 0 0 1 0 -1 0 114.3
2 821.95000000000005 0 0 1 0 -0 0 0 1 0 -1 0 114.3
1 734.95000000000005 2.8000000000000001e-14 114.3 1 0 0 
2 734.95000000000005 0 0 1 0 -0 0 0 1 0 -1 0 114.3
2 834.95000000000005 0 0 1 0 -0 0 0 1 0 -1 0 114.3
1 821.95000000000005 2.8000000000000001e-14 114.3 1 0 0 
2 734.95000000000005 0 0 1 0 -0 0 0 1 0 -1 0 67.5
2 834.95000000000005 50.000000000000014 -86.602540378443862 1 0 -0 0 0 1 0 -1 0 4.8624999999999998
2 834.95000000000005 100 0 1 0 -0 0 0 1 0 -1 0 4.8624999999999998
2 834.95000000000005 50.000000000000014 86.602540378443862 1 0 -0 0 0 1 0 -1 0 4.8624999999999998
2 834.95000000000005 -50.000000000000043 -86.602540378443834 1 0 -0 0 0 1 0 -1 0 4.8624999999999998
2 834.95000000000005 0 0 1 0 -0 0 0 1 0 -1 0 59.649999999999999
2 834.95000000000005 -49.999999999999979 86.602540378443877 1 0 -0 0 0 1 0 -1 0 4.8624999999999998
2 834.95000000000005 -100 1.225e-14 1 0 -0 0 0 1 0 -1 0 4.8624999999999998
2 730.95000000000005 0 67.5 0 1 0 0 -0 1 1 0 -0 4
2 730.95000000000005 0 0 1 0 -0 0 0 1 0 -1 0 63.5
1 824.42500000000007 50.000000000000014 -81.740040378443865 1 0 0 
2 824.42500000000007 50.000000000000014 -86.602540378443862 1 0 -0 0 0 1 0 -1 0 4.8624999999999998
1 824.42500000000007 100 4.8624999999999998 1 0 0 
2 824.42500000000007 100 0 1 0 -0 0 0 1 0 -1 0 4.8624999999999998
1 824.42500000000007 50.000000000000014 91.465040378443859 1 0 0 
2 824.42500000000007 50.000000000000014 86.602540378443862 1 0 -0 0 0 1 0 -1 0 4.8624999999999998
1 824.42500000000007 -50.000000000000043 -81.740040378443837 1 0 0 
2 824.42500000000007 -50.000000000000043 -86.602540378443834 1 0 -0 0 0 1 0 -1 0 4.8624999999999998
1 788.14999999999998 1.461e-14 59.649999999999999 1 0 0 
2 788.14999999999998 0 0 1 0 -0 0 0 1 0 -1 0 59.649999999999999
1 824.42500000000007 -49.999999999999979 91.465040378443874 1 0 0 
2 824.42500000000007 -49.999999999999979 86.602540378443877 1 0 -0 0 0 1 0 -1 0 4.8624999999999998
1 824.42500000000007 -100 4.8625000000000123 1 0 0 
2 824.42500000000007 -100 1.225e-14 1 0 -0 0 0 1 0 -1 0 4.8624999999999998
1 721 1.5550000000000001e-14 63.5 1 0 0 
2 721 0 0 1 0 -0 0 0 1 0 -1 0 63.5
2 0 788.14999999999998 0 0 1 0 0 -0 1 1 0 -0 49.149999999999999
1 -6.1499999999999995 788.14999999999998 47.149999999999991 0 0 1 
1 -6.1499999999999995 788.14999999999998 55.509299999999989 1 0 0 
1 6.1499999999999995 788.14999999999998 47.149999999999991 0 0 1 
2 0 788.14999999999998 0 0 1 0 0 -0 1 1 0 -0 49.149999999999999
1 -6.1500000000000021 788.14999999999998 47.150000000000006 0 0 1 
1 -6.1500000000000021 788.14999999999998 55.50930000000001 1 0 0 
1 6.1500000000000021 788.14999999999998 47.150000000000006 0 0 1 
2 0 788.14999999999998 0 0 1 0 0 -0 1 1 0 -0 49.149999999999999
1 -6.1500000000000021 788.14999999999998 47.150000000000006 0 0 1 
1 -6.1500000000000021 788.14999999999998 55.50930000000001 1 0 0 
1 6.1500000000000021 788.14999999999998 47.150000000000006 0 0 1 
2 0 788.14999999999998 0 0 1 0 0 -0 1 1 0 -0 49.149999999999999
1 -6.1500000000000004 788.14999999999998 47.149999999999999 0 0 1 
1 -6.1500000000000004 788.14999999999998 55.509299999999996 1 0 0 
1 6.1500000000000004 788.14999999999998 47.149999999999999 0 0 1 
2 0 788.14999999999998 0 0 1 0 0 -0 1 1 0 -0 49.149999999999999
1 -6.1499999999999995 788.14999999999998 47.149999999999991 0 0 1 
1 -6.1499999999999995 788.14999999999998 55.509299999999989 1 0 0 
1 6.1499999999999995 788.14999999999998 47.149999999999991 0 0 1 
2 0 788.14999999999998 0 0 1 0 0 -0 1 1 0 -0 49.149999999999999
1 -6.1499999999999995 788.14999999999998 47.149999999999991 0 0 1 
1 -6.1499999999999995 788.14999999999998 55.509299999999989 1 0 0 
1 6.1499999999999995 788.14999999999998 47.149999999999991 0 0 1 
2 0 788.14999999999998 0 0 1 0 0 -0 1 1 0 -0 49.149999999999999
1 -6.1500000000000004 788.14999999999998 47.149999999999999 0 0 1 
1 -6.1500000000000004 788.14999999999998 55.509299999999996 1 0 0 
1 6.1500000000000004 788.14999999999998 47.149999999999999 0 0 1 
2 0 788.14999999999998 0 0 1 0 0 -0 1 1 0 -0 49.149999999999999
1 -6.1500000000000021 788.14999999999998 47.150000000000006 0 0 1 
1 -6.1500000000000021 788.14999999999998 55.50930000000001 1 0 0 
1 6.1500000000000021 788.14999999999998 47.150000000000006 0 0 1 
2 0 788.14999999999998 0 0 1 0 0 -0 1 1 0 -0 49.149999999999999
1 -6.1500000000000004 788.14999999999998 47.149999999999999 0 0 1 
1 -6.1500000000000004 788.14999999999998 55.509299999999996 1 0 0 
1 6.1500000000000004 788.14999999999998 47.149999999999999 0 0 1 
2 0 788.14999999999998 0 0 1 0 0 -0 1 1 0 -0 49.149999999999999
1 -6.1500000000000004 788.14999999999998 47.149999999999999 0 0 1 
1 -6.1500000000000004 788.14999999999998 55.509299999999996 1 0 0 
1 6.1500000000000004 788.14999999999998 47.149999999999999 0 0 1 
2 721 8.0049999999999997e-14 0 1 1.1e-16 -0 0 0 1 1.1e-16 -1 0 49.149999999999999
1 721 -20.520702856252274 13.134073217604595 0 0.95105651629515364 -0.30901699437494751 
1 721 -51.842254222279529 20.077815833464854 0 -0.30901699437494751 -0.95105651629515364 
1 721 -24.321611887064126 1.4360780671742019 0 0.95105651629515364 -0.30901699437494751 
2 721 8.0049999999999997e-14 0 1 1.1e-16 -0 0 0 1 1.1e-16 -1 0 49.149999999999999
1 721 -24.32161188706413 -1.4360780671742019 0 0.95105651629515364 0.30901699437494745 
1 721 -53.742708737685462 -14.22881825824966 0 0.30901699437494745 -0.95105651629515364 
1 721 -20.520702856252278 -13.134073217604595 0 0.95105651629515364 0.30901699437494745 
2 721 8.0049999999999997e-14 0 1 1.1e-16 -0 0 0 1 1.1e-16 -1 0 49.149999999999999
1 721 -18.832491838200919 -15.457696340790692 0 0.58778525229247325 0.80901699437494745 
1 721 -35.115275162781494 -43.100527395057895 0 0.80901699437494745 -0.58778525229247325 
1 721 -8.8815828073890621 -22.687454943988115 0 0.58778525229247325 0.80901699437494745 
2 721 8.0049999999999997e-14 0 1 1.1e-16 -0 0 0 1 1.1e-16 -1 0 49.149999999999999
1 721 -6.149999999999924 -23.574999999999999 0 1.2e-16 1 
1 721 -3.0749999999999673 -55.509299999999996 0 1 -1.2e-16 
1 721 6.1500000000000767 -23.574999999999999 0 1.2e-16 1 
2 721 8.0049999999999997e-14 0 1 1.1e-16 -0 0 0 1 1.1e-16 -1 0 49.149999999999999
1 721 8.88158280738919 -22.687454943988076 0 -0.58778525229247314 0.80901699437494756 
1 721 30.139820647375672 -46.715406696656657 0 0.80901699437494756 0.58778525229247314 
1 721 18.832491838201044 -15.457696340790655 0 -0.58778525229247314 0.80901699437494756 
2 721 8.0049999999999997e-14 0 1 1.1e-16 -0 0 0 1 1.1e-16 -1 0 49.149999999999999
1 721 20.52070285625236 -13.134073217604572 0 -0.95105651629515364 0.30901699437494751 
1 721 51.842254222279678 -20.077815833464879 0 0.30901699437494751 0.95105651629515364 
1 721 24.321611887064211 -1.4360780671741789 0 -0.95105651629515364 0.30901699437494751 
2 721 8.0049999999999997e-14 0 1 1.1e-16 -0 0 0 1 1.1e-16 -1 0 49.149999999999999
1 721 24.321611887064215 1.4360780671741744 0 -0.95105651629515364 -0.30901699437494723 
1 721 53.742708737685604 14.228818258249671 0 -0.30901699437494723 0.95105651629515364 
1 721 20.520702856252363 13.134073217604564 0 -0.95105651629515364 -0.30901699437494723 
2 721 8.0049999999999997e-14 0 1 1.1e-16 -0 0 0 1 1.1e-16 -1 0 49.149999999999999
1 721 18.832491838201051 15.457696340790649 0 -0.58778525229247336 -0.80901699437494734 
1 721 35.115275162781607 43.100527395057924 0 -0.80901699437494734 0.58778525229247336 
1 721 8.8815828073891971 22.687454943988076 0 -0.58778525229247336 -0.80901699437494734 
2 721 8.0049999999999997e-14 0 1 1.1e-16 -0 0 0 1 1.1e-16 -1 0 49.149999999999999
1 721 6.1500000000000803 23.574999999999999 0 0 -1 
1 721 3.0750000000000401 55.509299999999996 0 -1 0 
1 721 -6.1499999999999204 23.574999999999999 0 0 -1 
2 721 8.0049999999999997e-14 0 1 1.1e-16 -0 0 0 1 1.1e-16 -1 0 49.149999999999999
1 721 -8.8815828073890586 22.687454943988115 0 0.58778525229247314 -0.80901699437494745 
1 721 -30.139820647375561 46.715406696656608 0 -0.80901699437494745 -0.58778525229247314 
1 721 -18.832491838200916 15.457696340790692 0 0.58778525229247314 -0.80901699437494745 
1 44.476595363409068 720 20.917814534018113 0 1 0 
1 33.638047638462787 720 35.835795666798148 0 1 0 
1 -6.1499999999999995 720 55.509299999999989 0 1 0 
1 6.1499999999999995 720 55.509299999999989 0 1 0 
1 48.277504394220919 720 9.2198193835877174 0 1 0 
1 48.277504394220919 720 -9.2198193835877174 0 1 0 
1 -6.1500000000000021 720 55.50930000000001 0 1 0 
1 6.1500000000000021 720 55.50930000000001 0 1 0 
1 44.476595363409068 720 -20.91781453401811 0 1 0 
1 33.638047638462794 720 -35.835795666798134 0 1 0 
1 -6.1500000000000021 720 55.50930000000001 0 1 0 
1 6.1500000000000021 720 55.50930000000001 0 1 0 
1 23.68713860765094 720 -43.065554269995566 0 1 0 
1 6.1500000000000066 720 -48.763716019187868 0 1 0 
1 -6.1500000000000004 720 55.509299999999996 0 1 0 
1 6.1500000000000004 720 55.509299999999996 0 1 0 
1 -6.1499999999999941 720 -48.763716019187868 0 1 0 
1 -23.687138607650926 720 -43.065554269995566 0 1 0 
1 -6.1499999999999995 720 55.509299999999989 0 1 0 
1 6.1499999999999995 720 55.509299999999989 0 1 0 
1 -33.638047638462787 720 -35.835795666798141 0 1 0 
1 -44.476595363409068 720 -20.917814534018113 0 1 0 
1 -6.1499999999999995 720 55.509299999999989 0 1 0 
1 6.1499999999999995 720 55.509299999999989 0 1 0 
1 -48.277504394220919 720 -9.2198193835877174 0 1 0 
1 -48.277504394220919 720 9.2198193835877067 0 1 0 
1 -6.1500000000000004 720 55.509299999999996 0 1 0 
1 6.1500000000000004 720 55.509299999999996 0 1 0 
1 -44.476595363409068 720 20.917814534018099 0 1 0 
1 -33.638047638462794 720 35.835795666798127 0 1 0 
1 -6.1500000000000021 720 55.50930000000001 0 1 0 
1 6.1500000000000021 720 55.50930000000001 0 1 0 
1 -23.687138607650937 720 43.065554269995552 0 1 0 
1 -6.1500000000000004 720 48.763716019187868 0 1 0 
1 -6.1500000000000004 720 55.509299999999996 0 1 0 
1 6.1500000000000004 720 55.509299999999996 0 1 0 
1 6.1500000000000004 720 48.763716019187868 0 1 0 
1 23.687138607650926 720 43.065554269995559 0 1 0 
1 -6.1500000000000004 720 55.509299999999996 0 1 0 
1 6.1500000000000004 720 55.509299999999996 0 1 0 
Polygon3D 0
PolygonOnTriangulations 0
Surfaces 66
2 721 0 0 1 0 0 0 0 1 0 -1 0 63.5
5 748.95000000000005 0 0 1 0 0 0 0 1 0 -1 0 67.5 4
5 817.95000000000005 0 0 -1 -0 -0 -0 0 1 -0 -1 0 67.5 4
1 744.95000000000005 0 0 1 0 0 0 0 1 0 -1 0 
1 821.95000000000005 0 0 1 0 0 0 0 1 0 -1 0 
2 734.95000000000005 0 0 1 0 0 0 0 1 0 -1 0 114.3
2 821.95000000000005 0 0 1 0 0 0 0 1 0 -1 0 114.3
1 734.95000000000005 0 0 1 0 0 0 0 1 0 -1 0 
5 730.95000000000005 0 0 1 0 0 0 0 1 0 -1 0 67.5 4
1 834.95000000000005 0 0 1 0 0 0 0 1 0 -1 0 
2 824.42500000000007 50.000000000000014 -86.602540378443862 1 0 0 0 0 1 0 -1 0 4.8624999999999998
2 824.42500000000007 100 0 1 0 0 0 0 1 0 -1 0 4.8624999999999998
2 824.42500000000007 50.000000000000014 86.602540378443862 1 0 0 0 0 1 0 -1 0 4.8624999999999998
2 824.42500000000007 -50.000000000000043 -86.602540378443834 1 0 0 0 0 1 0 -1 0 4.8624999999999998
2 788.14999999999998 0 0 1 0 0 0 0 1 0 -1 0 59.649999999999999
2 824.42500000000007 -49.999999999999979 86.602540378443877 1 0 0 0 0 1 0 -1 0 4.8624999999999998
2 824.42500000000007 -100 1.225e-14 1 0 0 0 0 1 0 -1 0 4.8624999999999998
2 721 0 0 1 0 0 0 0 1 0 -1 0 63.5
1 824.42500000000007 50.000000000000014 -86.602540378443862 1 0 0 0 0 1 0 -1 0 
1 824.42500000000007 100 0 1 0 0 0 0 1 0 -1 0 
1 824.42500000000007 50.000000000000014 86.602540378443862 1 0 0 0 0 1 0 -1 0 
1 824.42500000000007 -50.000000000000043 -86.602540378443834 1 0 0 0 0 1 0 -1 0 
1 788.14999999999998 0 0 1 0 0 0 0 1 0 -1 0 
2 0 720 0 0 1 0 0 -0 1 1 0 -0 49.149999999999999
2 0 720 0 0 1 0 0 -0 1 1 0 -0 49.149999999999999
2 0 720 0 0 1 0 0 -0 1 1 0 -0 49.149999999999999
2 0 720 0 0 1 0 0 -0 1 1 0 -0 49.149999999999999
2 0 720 0 0 1 0 0 -0 1 1 0 -0 49.149999999999999
2 0 720 0 0 1 0 0 -0 1 1 0 -0 49.149999999999999
2 0 720 0 0 1 0 0 -0 1 1 0 -0 49.149999999999999
2 0 720 0 0 1 0 0 -0 1 1 0 -0 49.149999999999999
2 0 720 0 0 1 0 0 -0 1 1 0 -0 49.149999999999999
2 0 720 0 0 1 0 0 -0 1 1 0 -0 49.149999999999999
1 824.42500000000007 -49.999999999999979 86.602540378443877 1 0 0 0 0 1 0 -1 0 
1 824.42500000000007 -100 1.225e-14 1 0 0 0 0 1 0 -1 0 
1 721 0 0 1 0 0 0 0 1 0 -1 0 
1 -6.1499999999999995 720 47.149999999999991 1 0 0 0 0 1 0 -1 0 
1 -6.1499999999999995 720 55.509299999999989 0 0 1 1 0 -0 -0 1 0 
1 6.1499999999999995 720 47.149999999999991 1 0 0 0 0 1 0 -1 0 
1 -6.1500000000000021 720 47.150000000000006 1 0 0 0 0 1 0 -1 0 
1 -6.1500000000000021 720 55.50930000000001 0 0 1 1 0 -0 -0 1 0 
1 6.1500000000000021 720 47.150000000000006 1 0 0 0 0 1 0 -1 0 
1 -6.1500000000000021 720 47.150000000000006 1 0 0 0 0 1 0 -1 0 
1 -6.1500000000000021 720 55.50930000000001 0 0 1 1 0 -0 -0 1 0 
1 6.1500000000000021 720 47.150000000000006 1 0 0 0 0 1 0 -1 0 
1 -6.1500000000000004 720 47.149999999999999 1 0 0 0 0 1 0 -1 0 
1 -6.1500000000000004 720 55.509299999999996 0 0 1 1 0 -0 -0 1 0 
1 6.1500000000000004 720 47.149999999999999 1 0 0 0 0 1 0 -1 0 
1 -6.1499999999999995 720 47.149999999999991 1 0 0 0 0 1 0 -1 0 
1 -6.1499999999999995 720 55.509299999999989 0 0 1 1 0 -0 -0 1 0 
1 6.1499999999999995 720 47.149999999999991 1 0 0 0 0 1 0 -1 0 
1 -6.1499999999999995 720 47.149999999999991 1 0 0 0 0 1 0 -1 0 
1 -6.1499999999999995 720 55.509299999999989 0 0 1 1 0 -0 -0 1 0 
1 6.1499999999999995 720 47.149999999999991 1 0 0 0 0 1 0 -1 0 
1 -6.1500000000000004 720 47.149999999999999 1 0 0 0 0 1 0 -1 0 
1 -6.1500000000000004 720 55.509299999999996 0 0 1 1 0 -0 -0 1 0 
1 6.1500000000000004 720 47.149999999999999 1 0 0 0 0 1 0 -1 0 
1 -6.1500000000000021 720 47.150000000000006 1 0 0 0 0 1 0 -1 0 
1 -6.1500000000000021 720 55.50930000000001 0 0 1 1 0 -0 -0 1 0 
1 6.1500000000000021 720 47.150000000000006 1 0 0 0 0 1 0 -1 0 
1 -6.1500000000000004 720 47.149999999999999 1 0 0 0 0 1 0 -1 0 
1 -6.1500000000000004 720 55.509299999999996 0 0 1 1 0 -0 -0 1 0 
1 6.1500000000000004 720 47.149999999999999 1 0 0 0 0 1 0 -1 0 
1 -6.1500000000000004 720 47.149999999999999 1 0 0 0 0 1 0 -1 0 
1 -6.1500000000000004 720 55.509299999999996 0 0 1 1 0 -0 -0 1 0 
1 6.1500000000000004 720 47.149999999999999 1 0 0 0 0 1 0 -1 0 
Triangulations 0

TShapes 410
Ve
1e-07
748.95 0 63.5
0 0

0101101
*
Ve
1e-07
817.95 0 63.5
0 0

0101101
*
Ed
 1e-07 1 1 0
1  1 0 27.95 96.95
3  1 2CN 1 0 27.95 96.95
0

0101000
+410 3 -409 3 *
Ed
 1e-07 1 1 0
1  2 0 0 6.28318530717959
2  3 1 0 0 6.28318530717959
2  4 2 0 0 6.28318530717959
4 G1 1 0 2 0
0

0101000
+410 3 -410 3 *
Ed
 1e-07 1 1 0
1  3 0 0 6.28318530717959
2  5 1 0 0 6.28318530717959
2  6 3 0 0 6.28318530717959
4 G1 1 0 3 0
0

0101000
+409 3 -409 3 *
Wi

0101100
-408 0 +407 0 -406 0 +408 0 *
Fa
0  1e-07 1 0

0101000
+405 0 *
Ve
1e-07
744.95 0 67.5
0 0

0101101
*
Ed
 1e-07 1 1 0
1  4 0 3.14159265358979 4.71238898038469
3  7 8CN 2 0 3.14159265358979 4.71238898038469
0

0101000
+410 3 -403 3 *
Ed
 1e-07 1 1 0
1  5 0 0 6.28318530717959
2  9 2 0 0 6.28318530717959
4 G1 2 0 4 0
0

0101000
+403 3 -403 3 *
Wi

0101100
-402 0 +407 0 -401 0 +402 0 *
Fa
0  1e-07 2 0

0101000
+400 0 *
Ve
1e-07
821.95 0 67.5
0 0

0101101
*
Ed
 1e-07 1 1 0
1  6 0 3.14159265358979 4.71238898038469
3  10 11CN 3 0 3.14159265358979 4.71238898038469
0

0101000
+409 3 -398 3 *
Ed
 1e-07 1 1 0
1  7 0 0 6.28318530717959
2  12 3 0 0 6.28318530717959
4 G1 3 0 5 0
0

0101000
+398 3 -398 3 *
Wi

0101100
-397 0 +406 0 -396 0 +397 0 *
Fa
0  1e-07 3 0

0101000
+395 0 *
Wi

0101100
-401 0 *
Ve
1e-07
744.95 2.8e-14 114.3
0 0

0101101
*
Ed
 1e-07 1 1 0
1  8 0 0 6.28318530717959
2  13 6 0 0 6.28318530717959
0

0101000
+392 3 -392 3 *
Wi

0101100
+391 0 *
Fa
0  1e-07 4 0

0101000
+393 0 +390 0 *
Wi

0101100
-396 0 *
Ve
1e-07
821.95 2.8e-14 114.3
0 0

0101101
*
Ed
 1e-07 1 1 0
1  9 0 0 6.28318530717959
2  14 7 0 0 6.28318530717959
0

0101000
+387 3 -387 3 *
Wi

0101100
+386 0 *
Fa
0  1e-07 5 0

0101000
+388 0 +385 0 *
Ve
1e-07
734.95 2.8e-14 114.3
0 0

0101101
*
Ed
 1e-07 1 1 0
1  10 0 0 10
3  15 16CN 6 0 0 10
0

0101000
-392 3 +383 3 *
Ed
 1e-07 1 1 0
1  11 0 0 6.28318530717959
2  17 6 0 0 6.28318530717959
0

0101000
+383 3 -383 3 *
Wi

0101100
-391 0 +382 0 +381 0 -382 0 *
Fa
0  1e-07 6 0

0101000
+380 0 *
Ve
1e-07
834.95 2.8e-14 114.3
0 0

0101101
*
Ed
 1e-07 1 1 0
1  12 0 0 6.28318530717959
2  18 7 0 0 6.28318530717959
0

0101000
+378 3 -378 3 *
Ed
 1e-07 1 1 0
1  13 0 0 13
3  19 20CN 7 0 0 13
0

0101000
-378 3 +387 3 *
Wi

0101100
-377 0 +376 0 +386 0 -376 0 *
Fa
0  1e-07 7 0

0101000
+375 0 *
Ve
1e-07
734.95 0 67.5
0 0

0101101
*
Ed
 1e-07 1 1 0
1  14 0 0 6.28318530717959
2  21 9 0 0 6.28318530717959
4 G1 8 0 9 0
0

0101000
+373 3 -373 3 *
Wi

0101100
-372 0 *
Wi

0101100
+381 0 *
Fa
0  1e-07 8 0

0101000
+371 0 +370 0 *
Wi

0101100
+377 0 *
Ve
1e-07
834.95 50 -81.7400403784439
0 0

0101101
*
Ed
 1e-07 1 1 0
1  15 0 0 6.28318530717959
2  22 11 0 0 6.28318530717959
0

0101100
+367 3 -367 3 *
Wi

0101100
-366 0 *
Ve
1e-07
834.95 100 4.8625
0 0

0101101
*
Ed
 1e-07 1 1 0
1  16 0 0 6.28318530717959
2  23 12 0 0 6.28318530717959
0

0101100
+364 3 -364 3 *
Wi

0101100
-363 0 *
Ve
1e-07
834.95 50 91.4650403784439
0 0

0101101
*
Ed
 1e-07 1 1 0
1  17 0 0 6.28318530717959
2  24 13 0 0 6.28318530717959
0

0101100
+361 3 -361 3 *
Wi

0101100
-360 0 *
Ve
1e-07
834.95 -50 -81.7400403784438
0 0

0101101
*
Ed
 1e-07 1 1 0
1  18 0 0 6.28318530717959
2  25 14 0 0 6.28318530717959
0

0101100
+358 3 -358 3 *
Wi

0101100
-357 0 *
Ve
1.00000015e-07
834.95 1.5e-14 59.65
0 0

0101101
*
Ed
 1e-07 1 1 0
1  19 0 0 6.28318530717959
2  26 15 0 0 6.28318530717959
0

0101100
+355 3 -355 3 *
Wi

0101100
-354 0 *
Ve
1e-07
834.95 -50 91.4650403784439
0 0

0101101
*
Ed
 1e-07 1 1 0
1  20 0 0 6.28318530717959
2  27 16 0 0 6.28318530717959
0

0101100
+352 3 -352 3 *
Wi

0101100
-351 0 *
Ve
1e-07
834.95 -100 4.86250000000001
0 0

0101101
*
Ed
 1e-07 1 1 0
1  21 0 0 6.28318530717959
2  28 17 0 0 6.28318530717959
0

0101100
+349 3 -349 3 *
Wi

0101100
-348 0 *
Fa
0  1e-07 10 0

0101000
+368 0 +365 0 +362 0 +359 0 +356 0 +353 0 +350 0 +347 0 *
Ve
1e-07
730.95 0 63.5
0 0

0101101
*
Ed
 1e-07 1 1 0
1  22 0 1.5707963267949 3.14159265358979
3  29 30CN 9 0 1.5707963267949 3.14159265358979
0

0101000
+373 3 -345 3 *
Ed
 1e-07 1 1 0
1  23 0 0 6.28318530717959
2  31 9 0 0 6.28318530717959
2  32 18 0 0 6.28318530717959
4 G1 9 0 18 0
0

0101000
+345 3 -345 3 *
Wi

0101100
-344 0 +372 0 -343 0 +344 0 *
Fa
0  1e-07 9 0

0101000
+342 0 *
Ve
1e-07
824.425 50 -81.7400403784439
0 0

0101101
*
Ed
 1e-07 1 1 0
1  24 0 0 10.525
3  33 34CN 11 0 0 10.525
0

0101000
+340 3 -367 3 *
Ed
 1e-07 1 1 0
1  25 0 0 6.28318530717959
2  35 11 0 0 6.28318530717959
0

0101000
+340 3 -340 3 *
Wi

0101100
-366 0 +339 0 +338 0 -339 0 *
Fa
0  1e-07 11 0

0101000
+337 0 *
Ve
1e-07
824.425 100 4.8625
0 0

0101101
*
Ed
 1e-07 1 1 0
1  26 0 0 10.525
3  36 37CN 12 0 0 10.525
0

0101000
+335 3 -364 3 *
Ed
 1e-07 1 1 0
1  27 0 0 6.28318530717959
2  38 12 0 0 6.28318530717959
0

0101000
+335 3 -335 3 *
Wi

0101100
-363 0 +334 0 +333 0 -334 0 *
Fa
0  1e-07 12 0

0101000
+332 0 *
Ve
1e-07
824.425 50 91.4650403784439
0 0

0101101
*
Ed
 1e-07 1 1 0
1  28 0 0 10.525
3  39 40CN 13 0 0 10.525
0

0101000
+330 3 -361 3 *
Ed
 1e-07 1 1 0
1  29 0 0 6.28318530717959
2  41 13 0 0 6.28318530717959
0

0101000
+330 3 -330 3 *
Wi

0101100
-360 0 +329 0 +328 0 -329 0 *
Fa
0  1e-07 13 0

0101000
+327 0 *
Ve
1e-07
824.425 -50 -81.7400403784438
0 0

0101101
*
Ed
 1e-07 1 1 0
1  30 0 0 10.525
3  42 43CN 14 0 0 10.525
0

0101000
+325 3 -358 3 *
Ed
 1e-07 1 1 0
1  31 0 0 6.28318530717959
2  44 14 0 0 6.28318530717959
0

0101000
+325 3 -325 3 *
Wi

0101100
-357 0 +324 0 +323 0 -324 0 *
Fa
0  1e-07 14 0

0101000
+322 0 *
Ve
1e-07
788.15 1.5e-14 59.65
0 0

0101101
*
Ed
 1e-07 1 1 0
1  32 0 0 46.8000000000001
3  45 46CN 15 0 0 46.8000000000001
0

0101000
+320 3 -355 3 *
Ed
 1e-07 1 1 0
1  33 0 0 6.28318530717959
2  47 15 0 0 6.28318530717959
0

0101000
+320 3 -320 3 *
Wi

0101100
-354 0 +319 0 +318 0 -319 0 *
Fa
0  1e-07 15 0

0101000
+317 0 *
Ve
1e-07
824.425 -50 91.4650403784439
0 0

0101101
*
Ed
 1e-07 1 1 0
1  34 0 0 10.525
3  48 49CN 16 0 0 10.525
0

0101000
+315 3 -352 3 *
Ed
 1e-07 1 1 0
1  35 0 0 6.28318530717959
2  50 16 0 0 6.28318530717959
0

0101000
+315 3 -315 3 *
Wi

0101100
-351 0 +314 0 +313 0 -314 0 *
Fa
0  1e-07 16 0

0101000
+312 0 *
Ve
1e-07
824.425 -100 4.86250000000001
0 0

0101101
*
Ed
 1e-07 1 1 0
1  36 0 0 10.525
3  51 52CN 17 0 0 10.525
0

0101000
+310 3 -349 3 *
Ed
 1e-07 1 1 0
1  37 0 0 6.28318530717959
2  53 17 0 0 6.28318530717959
0

0101000
+310 3 -310 3 *
Wi

0101100
-348 0 +309 0 +308 0 -309 0 *
Fa
0  1e-07 17 0

0101000
+307 0 *
Ve
1e-07
721 1.6e-14 63.5
0 0

0101101
*
Ed
 1e-07 1 1 0
1  38 0 0 9.95000000000005
3  1 2CN 18 0 0 9.95000000000005
0

0101000
-345 3 +305 3 *
Ed
 1e-07 1 1 0
1  39 0 0 6.28318530717959
2  54 18 0 0 6.28318530717959
0

0101000
+305 3 -305 3 *
Wi

0101100
+304 0 -343 0 +303 0 -304 0 *
Fa
0  1e-07 18 0

0101000
+302 0 *
Wi

0101100
-338 0 *
Fa
0  1e-07 19 0

0101000
-300 0 *
Wi

0101100
-333 0 *
Fa
0  1e-07 20 0

0101000
-298 0 *
Wi

0101100
-328 0 *
Fa
0  1e-07 21 0

0101000
-296 0 *
Wi

0101100
-323 0 *
Fa
0  1e-07 22 0

0101000
-294 0 *
Wi

0101100
+318 0 *
Ve
1.00001286e-07
788.15 -33.6380476384619 35.8357956667991
0 0

0101101
*
Ve
1.00000249e-07
788.15 -44.4765953634088 20.9178145340183
0 0

0101101
*
Ed
 1e-07 1 1 0
1  40 0 0.753774529917767 1.13118106223608
2  55 24 0 0.753774529917767 1.13118106223608
0

0101000
+291 5 -290 5 *
Ve
1e-07
788.15 -50.8920269645766 23.0023146210725
0 0

0101101
*
Ed
 1e-07 1 1 0
1  41 0 1.61371601918782 8.3593
0

0101000
+290 8 -288 8 *
Ve
1e-07
788.15 -54.6929359953884 11.3043194706421
0 0

0101101
*
Ed
 1e-07 1 1 0
1  42 0 0 12.3
0

0101000
+288 8 -286 8 *
Ve
1.00001733e-07
788.15 -48.277504394221 9.21981938358599
0 0

0101101
*
Ed
 1e-07 1 1 0
1  43 0 1.61371601918746 8.3593
0

0101000
+284 8 -286 8 *
Ve
1.00001733e-07
788.15 -48.277504394221 -9.21981938358599
0 0

0101101
*
Ed
 1e-07 1 1 0
1  44 0 1.38209306063579 1.75949959295401
2  55 25 0 1.38209306063579 1.75949959295401
0

0101000
+284 5 -282 5 *
Ve
1e-07
788.15 -54.6929359953884 -11.3043194706421
0 0

0101101
*
Ed
 1e-07 1 1 0
1  45 0 1.61371601918745 8.3593
0

0101000
+282 11 -280 11 *
Ve
1e-07
788.15 -50.8920269645766 -23.0023146210725
0 0

0101101
*
Ed
 1e-07 1 1 0
1  46 0 0 12.3
0

0101000
+280 11 -278 11 *
Ve
1.00000243e-07
788.15 -44.4765953634088 -20.9178145340183
0 0

0101101
*
Ed
 1e-07 1 1 0
1  47 0 1.61371601918781 8.3593
0

0101000
+276 11 -278 11 *
Ve
1.00001286e-07
788.15 -33.6380476384619 -35.8357956667991
0 0

0101101
*
Ed
 1e-07 1 1 0
1  48 0 2.01041159135372 2.38781812367202
2  55 26 0 2.01041159135372 2.38781812367202
0

0101000
+276 5 -274 5 *
Ve
1e-07
788.15 -37.6030024204844 -41.2930877442586
0 0

0101101
*
Ed
 1e-07 1 1 0
1  49 0 1.61371601918819 8.3593
0

0101000
+274 14 -272 14 *
Ve
1e-07
788.15 -27.6520933896726 -48.522846347456
0 0

0101101
*
Ed
 1e-07 1 1 0
1  50 0 0 12.3
0

0101000
+272 14 -270 14 *
Ve
1.0000058e-07
788.15 -23.6871386076514 -43.0655542699953
0 0

0101101
*
Ed
 1e-07 1 1 0
1  51 0 1.61371601918802 8.3593
0

0101000
+268 14 -270 14 *
Ve
1.00000235e-07
788.15 -6.14999999999969 -48.7637160191879
0 0

0101101
*
Ed
 1e-07 1 1 0
1  52 0 2.63873012207166 3.01613665438996
2  55 27 0 2.63873012207166 3.01613665438996
0

0101000
+268 5 -266 5 *
Ve
1e-07
788.15 -6.14999999999992 -55.5093
0 0

0101101
*
Ed
 1e-07 1 1 0
1  53 0 1.61371601918793 8.3593
0

0101000
+266 17 -264 17 *
Ve
1e-07
788.15 6.15000000000008 -55.5093
0 0

0101101
*
Ed
 1e-07 1 1 0
1  54 0 0 12.3
0

0101000
+264 17 -262 17 *
Ve
1.00000237e-07
788.15 6.14999999999985 -48.7637160191879
0 0

0101101
*
Ed
 1e-07 1 1 0
1  55 0 1.61371601918793 8.3593
0

0101000
+260 17 -262 17 *
Ve
1.00000583e-07
788.15 23.6871386076516 -43.0655542699953
0 0

0101101
*
Ed
 1e-07 1 1 0
1  56 0 3.26704865278962 3.64445518510793
2  55 28 0 3.26704865278962 3.64445518510793
0

0101000
+260 5 -258 5 *
Ve
1e-07
788.15 27.6520933896727 -48.522846347456
0 0

0101101
*
Ed
 1e-07 1 1 0
1  57 0 1.61371601918802 8.3593
0

0101000
+258 20 -256 20 *
Ve
1e-07
788.15 37.6030024204846 -41.2930877442586
0 0

0101101
*
Ed
 1e-07 1 1 0
1  58 0 0 12.3
0

0101000
+256 20 -254 20 *
Ve
1.00001276e-07
788.15 33.638047638462 -35.8357956667991
0 0

0101101
*
Ed
 1e-07 1 1 0
1  59 0 1.61371601918818 8.3593
0

0101000
+252 20 -254 20 *
Ve
1.0000135e-07
788.15 44.4765953634099 -20.917814534017
0 0

0101101
*
Ed
 1e-07 1 1 0
1  60 0 3.89536718350756 4.2727737158259
2  55 29 0 3.89536718350756 4.2727737158259
0

0101000
+252 5 -250 5 *
Ve
1e-07
788.15 50.8920269645767 -23.0023146210725
0 0

0101101
*
Ed
 1e-07 1 1 0
1  61 0 1.61371601918821 8.3593
0

0101000
+250 23 -248 23 *
Ve
1e-07
788.15 54.6929359953886 -11.3043194706421
0 0

0101101
*
Ed
 1e-07 1 1 0
1  62 0 0 12.3
0

0101000
+248 23 -246 23 *
Ve
1.00001725e-07
788.15 48.2775043942211 -9.219819383586
0 0

0101101
*
Ed
 1e-07 1 1 0
1  63 0 1.61371601918746 8.3593
0

0101000
+244 23 -246 23 *
Ve
1.00001729e-07
788.15 48.2775043942211 9.21981938358598
0 0

0101101
*
Ed
 1e-07 1 1 0
1  64 0 4.52368571422558 4.9010922465438
2  55 30 0 4.52368571422558 4.9010922465438
0

0101000
+244 5 -242 5 *
Ve
1e-07
788.15 54.6929359953886 11.3043194706421
0 0

0101101
*
Ed
 1e-07 1 1 0
1  65 0 1.61371601918745 8.3593
0

0101000
+242 26 -240 26 *
Ve
1e-07
788.15 50.8920269645767 23.0023146210725
0 0

0101101
*
Ed
 1e-07 1 1 0
1  66 0 0 12.3
0

0101000
+240 26 -238 26 *
Ve
1.0000135e-07
788.15 44.4765953634099 20.917814534017
0 0

0101101
*
Ed
 1e-07 1 1 0
1  67 0 1.6137160191882 8.3593
0

0101000
+236 26 -238 26 *
Ve
1.00001286e-07
788.15 33.6380476384621 35.8357956667991
0 0

0101101
*
Ed
 1e-07 1 1 0
1  68 0 5.15200424494348 5.52941077726182
2  55 31 0 5.15200424494348 5.52941077726182
0

0101000
+236 5 -234 5 *
Ve
1e-07
788.15 37.6030024204846 41.2930877442585
0 0

0101101
*
Ed
 1e-07 1 1 0
1  69 0 1.61371601918819 8.3593
0

0101000
+234 29 -232 29 *
Ve
1e-07
788.15 27.6520933896727 48.522846347456
0 0

0101101
*
Ed
 1e-07 1 1 0
1  70 0 0 12.3
0

0101000
+232 29 -230 29 *
Ve
1.00000618e-07
788.15 23.6871386076516 43.0655542699953
0 0

0101101
*
Ed
 1e-07 1 1 0
1  71 0 1.61371601918802 8.3593
0

0101000
+228 29 -230 29 *
Ve
1.00000274e-07
788.15 6.14999999999982 48.7637160191879
0 0

0101101
*
Ed
 1e-07 1 1 0
1  72 0 5.78032277566145 6.15772930797976
2  55 32 0 5.78032277566145 6.15772930797976
0

0101000
+228 5 -226 5 *
Ve
1e-07
788.15 6.15000000000009 55.5093
0 0

0101101
*
Ed
 1e-07 1 1 0
1  73 0 1.61371601918794 8.3593
0

0101000
+226 32 -224 32 *
Ve
1e-07
788.15 -6.14999999999991 55.5093
0 0

0101101
*
Ed
 1e-07 1 1 0
1  74 0 0 12.3
0

0101000
+224 32 -222 32 *
Ve
1.00000249e-07
788.15 -6.14999999999967 48.7637160191879
0 0

0101101
*
Ed
 1e-07 1 1 0
1  75 0 1.61371601918793 8.3593
0

0101000
+220 32 -222 32 *
Ve
1.00000584e-07
788.15 -23.6871386076514 43.0655542699953
0 0

0101101
*
Ed
 1e-07 1 1 0
1  76 0 0.12545599919983 0.502862531518135
2  55 33 0 0.12545599919983 0.502862531518135
0

0101000
+220 5 -218 5 *
Ve
1e-07
788.15 -27.6520933896726 48.522846347456
0 0

0101101
*
Ed
 1e-07 1 1 0
1  77 0 1.61371601918802 8.3593
0

0101000
+218 35 -216 35 *
Ve
1e-07
788.15 -37.6030024204844 41.2930877442586
0 0

0101101
*
Ed
 1e-07 1 1 0
1  78 0 0 12.3
0

0101000
+216 35 -214 35 *
Ed
 1e-07 1 1 0
1  79 0 1.61371601918819 8.3593
0

0101000
+291 35 -214 35 *
Wi

0101100
-289 4 -287 7 -285 7 +283 7 -281 4 -279 10 -277 10 +275 10 -273 4 -271 13 
-269 13 +267 13 -265 4 -263 16 -261 16 +259 16 -257 4 -255 19 -253 19 +251 19 
-249 4 -247 22 -245 22 +243 22 -241 4 -239 25 -237 25 +235 25 -233 4 -231 28 
-229 28 +227 28 -225 4 -223 31 -221 31 +219 31 -217 4 -215 34 -213 34 +212 34 
*
Fa
0  1e-07 23 0

0101000
+292 0 +211 0 *
Wi

0101100
-313 0 *
Fa
0  1e-07 34 0

0101000
-209 0 *
Wi

0101100
-308 0 *
Fa
0  1e-07 35 0

0101000
-207 0 *
Wi

0101100
+303 0 *
Ve
1.5e-07
721 -33.6380476384627 35.8357956667981
0 0

0101101
*
Ve
1.50000061e-07
721 -44.476595363409 20.9178145340181
0 0

0101101
*
Ed
 1e-07 1 1 0
1  80 0 0.753774529917767 1.13118106223608
2  56 24 4 0.753774529917767 1.13118106223608
0

0101000
+204 3 -203 3 *
Ve
1.50000007e-07
721 -50.8920269645766 23.0023146210725
0 0

0101101
*
Ed
 1.5e-07 1 1 0
1  81 0 -31.9343 -25.1887160191878
0

0101000
+201 3 -203 3 *
Ve
1.50000007e-07
721 -54.6929359953884 11.3043194706421
0 0

0101101
*
Ed
 1.5e-07 1 1 0
1  82 0 -3.07500000000001 9.22499999999999
0

0101000
+201 3 -199 3 *
Ve
1.50000417e-07
721 -48.2775043942208 9.21981938358772
0 0

0101101
*
Ed
 1.5e-07 1 1 0
1  83 0 -31.9343 -25.1887160191874
0

0101000
+199 3 -197 3 *
Ve
1.50000418e-07
721 -48.2775043942208 -9.21981938358772
0 0

0101101
*
Ed
 1e-07 1 1 0
1  84 0 1.38209306063575 1.75949959295404
2  57 25 4 1.38209306063575 1.75949959295404
0

0101000
+197 3 -195 3 *
Ve
1.50000007e-07
721 -54.6929359953884 -11.3043194706421
0 0

0101101
*
Ed
 1.5e-07 1 1 0
1  85 0 -31.9343 -25.1887160191874
0

0101000
+193 3 -195 3 *
Ve
1.5e-07
721 -50.8920269645766 -23.0023146210725
0 0

0101101
*
Ed
 1.5e-07 1 1 0
1  86 0 -3.07499999999999 9.22500000000001
0

0101000
+193 3 -191 3 *
Ve
1.5000006e-07
721 -44.476595363409 -20.9178145340181
0 0

0101101
*
Ed
 1.5e-07 1 1 0
1  87 0 -31.9343 -25.1887160191878
0

0101000
+191 3 -189 3 *
Ve
1.50000007e-07
721 -33.6380476384627 -35.8357956667981
0 0

0101101
*
Ed
 1e-07 1 1 0
1  88 0 2.01041159135371 2.38781812367202
2  58 26 4 2.01041159135371 2.38781812367202
0

0101000
+189 3 -187 3 *
Ve
1.50000007e-07
721 -37.6030024204844 -41.2930877442586
0 0

0101101
*
Ed
 1.5e-07 1 1 0
1  89 0 -31.9343 -25.1887160191879
0

0101000
+185 3 -187 3 *
Ve
1.50000004e-07
721 -27.6520933896726 -48.522846347456
0 0

0101101
*
Ed
 1.5e-07 1 1 0
1  90 0 -3.07499999999997 9.22500000000003
0

0101000
+185 3 -183 3 *
Ve
1.50000008e-07
721 -23.6871386076509 -43.0655542699956
0 0

0101101
*
Ed
 1.5e-07 1 1 0
1  91 0 -31.9343 -25.1887160191879
0

0101000
+183 3 -181 3 *
Ve
1.5e-07
721 -6.14999999999993 -48.7637160191879
0 0

0101101
*
Ed
 1e-07 1 1 0
1  92 0 2.63873012207166 3.01613665438996
2  59 27 4 2.63873012207166 3.01613665438996
0

0101000
+181 3 -179 3 *
Ve
1.5e-07
721 -6.14999999999993 -55.5093
0 0

0101101
*
Ed
 1.5e-07 1 1 0
1  93 0 -31.9343 -25.1887160191879
0

0101000
+177 3 -179 3 *
Ve
1.5e-07
721 6.15000000000007 -55.5093
0 0

0101101
*
Ed
 1.5e-07 1 1 0
1  94 0 -3.07499999999996 9.22500000000004
0

0101000
+177 3 -175 3 *
Ve
1.5e-07
721 6.15000000000007 -48.7637160191879
0 0

0101101
*
Ed
 1.5e-07 1 1 0
1  95 0 -31.9343 -25.1887160191879
0

0101000
+175 3 -173 3 *
Ve
1.50000008e-07
721 23.687138607651 -43.0655542699956
0 0

0101101
*
Ed
 1e-07 1 1 0
1  96 0 3.26704865278962 3.64445518510793
2  60 28 4 3.26704865278962 3.64445518510793
0

0101000
+173 3 -171 3 *
Ve
1.50000016e-07
721 27.6520933896727 -48.522846347456
0 0

0101101
*
Ed
 1.5e-07 1 1 0
1  97 0 -31.9343 -25.1887160191879
0

0101000
+169 3 -171 3 *
Ve
1.50000016e-07
721 37.6030024204846 -41.2930877442586
0 0

0101101
*
Ed
 1.5e-07 1 1 0
1  98 0 -3.07499999999997 9.22500000000003
0

0101000
+169 3 -167 3 *
Ve
1.50000007e-07
721 33.6380476384629 -35.8357956667981
0 0

0101101
*
Ed
 1.5e-07 1 1 0
1  99 0 -31.9343 -25.1887160191879
0

0101000
+167 3 -165 3 *
Ve
1.5e-07
721 44.4765953634091 -20.9178145340181
0 0

0101101
*
Ed
 1e-07 1 1 0
1  100 0 3.89536718350756 4.2727737158259
2  61 29 4 3.89536718350756 4.2727737158259
0

0101000
+165 3 -163 3 *
Ve
1.50000007e-07
721 50.8920269645767 -23.0023146210725
0 0

0101101
*
Ed
 1.5e-07 1 1 0
1  101 0 -31.9343 -25.1887160191879
0

0101000
+161 3 -163 3 *
Ve
1.50000007e-07
721 54.6929359953886 -11.3043194706421
0 0

0101101
*
Ed
 1.5e-07 1 1 0
1  102 0 -3.07499999999999 9.22500000000001
0

0101000
+161 3 -159 3 *
Ve
1.50000418e-07
721 48.277504394221 -9.21981938358772
0 0

0101101
*
Ed
 1.5e-07 1 1 0
1  103 0 -31.9343 -25.1887160191875
0

0101000
+159 3 -157 3 *
Ve
1.50000419e-07
721 48.277504394221 9.21981938358771
0 0

0101101
*
Ed
 1e-07 1 1 0
1  104 0 4.52368571422554 4.90109224654383
2  62 30 4 4.52368571422554 4.90109224654383
0

0101000
+157 3 -155 3 *
Ve
1.50000007e-07
721 54.6929359953886 11.3043194706421
0 0

0101101
*
Ed
 1.5e-07 1 1 0
1  105 0 -31.9343 -25.1887160191875
0

0101000
+153 3 -155 3 *
Ve
1.50000007e-07
721 50.8920269645767 23.0023146210725
0 0

0101101
*
Ed
 1.5e-07 1 1 0
1  106 0 -3.07500000000001 9.22499999999999
0

0101000
+153 3 -151 3 *
Ve
1.5e-07
721 44.4765953634091 20.9178145340181
0 0

0101101
*
Ed
 1.5e-07 1 1 0
1  107 0 -31.9343 -25.1887160191879
0

0101000
+151 3 -149 3 *
Ve
1.5000001e-07
721 33.6380476384629 35.8357956667981
0 0

0101101
*
Ed
 1e-07 1 1 0
1  108 0 5.15200424494348 5.52941077726182
2  63 31 4 5.15200424494348 5.52941077726182
0

0101000
+149 3 -147 3 *
Ve
1.50000007e-07
721 37.6030024204846 41.2930877442585
0 0

0101101
*
Ed
 1.5e-07 1 1 0
1  109 0 -31.9343 -25.1887160191879
0

0101000
+145 3 -147 3 *
Ve
1.50000004e-07
721 27.6520933896727 48.522846347456
0 0

0101101
*
Ed
 1.5e-07 1 1 0
1  110 0 -3.07500000000003 9.22499999999997
0

0101000
+145 3 -143 3 *
Ve
1.5000001e-07
721 23.687138607651 43.0655542699956
0 0

0101101
*
Ed
 1.5e-07 1 1 0
1  111 0 -31.9343 -25.1887160191879
0

0101000
+143 3 -141 3 *
Ve
1.5e-07
721 6.15000000000008 48.7637160191879
0 0

0101101
*
Ed
 1e-07 1 1 0
1  112 0 5.78032277566145 6.15772930797976
2  64 32 4 5.78032277566145 6.15772930797976
0

0101000
+141 3 -139 3 *
Ve
1.5e-07
721 6.15000000000008 55.5093
0 0

0101101
*
Ed
 1.5e-07 1 1 0
1  113 0 -31.9343 -25.1887160191879
0

0101000
+137 3 -139 3 *
Ve
1.5e-07
721 -6.14999999999992 55.5093
0 0

0101101
*
Ed
 1.5e-07 1 1 0
1  114 0 -3.07500000000004 9.22499999999996
0

0101000
+137 3 -135 3 *
Ve
1.5e-07
721 -6.14999999999992 48.7637160191879
0 0

0101101
*
Ed
 1.5e-07 1 1 0
1  115 0 -31.9343 -25.1887160191879
0

0101000
+135 3 -133 3 *
Ve
1.5e-07
721 -23.6871386076508 43.0655542699956
0 0

0101101
*
Ed
 1e-07 1 1 0
1  116 0 0.12545599919983 0.502862531518136
2  65 33 4 0.12545599919983 0.502862531518136
0

0101000
+133 3 -131 3 *
Ve
1.50000004e-07
721 -27.6520933896726 48.522846347456
0 0

0101101
*
Ed
 1.5e-07 1 1 0
1  117 0 -31.9343 -25.1887160191878
0

0101000
+129 3 -131 3 *
Ve
1.50000007e-07
721 -37.6030024204844 41.2930877442586
0 0

0101101
*
Ed
 1.5e-07 1 1 0
1  118 0 -3.07500000000003 9.22499999999997
0

0101000
+129 3 -127 3 *
Ed
 1.5e-07 1 1 0
1  119 0 -31.9343 -25.1887160191879
0

0101000
+127 3 -204 3 *
Wi

0101100
-202 0 +200 0 -198 0 -196 0 -194 0 +192 0 -190 0 -188 0 -186 0 +184 0 
-182 0 -180 0 -178 0 +176 0 -174 0 -172 0 -170 0 +168 0 -166 0 -164 0 
-162 0 +160 0 -158 0 -156 0 -154 0 +152 0 -150 0 -148 0 -146 0 +144 0 
-142 0 -140 0 -138 0 +136 0 -134 0 -132 0 -130 0 +128 0 -126 0 -125 0 
*
Fa
0  1e-07 36 0

0101000
+205 0 +124 0 *
Ed
 1e-07 1 1 0
1  120 0 1 68.15
2  66 24 0 1 68.15
0

0101000
+203 5 -290 5 *
Ed
 1e-07 1 1 0
1  121 0 1 68.15
2  67 24 0 1 68.15
0

0101000
+204 5 -291 5 *
Wi

0101100
-289 4 +122 4 +202 0 -121 4 *
Fa
0  1e-07 24 4

0101000
+120 0 *
Ed
 1e-07 1 1 0
1  122 0 1 68.15
0

0101000
+201 8 -288 8 *
Wi

0101100
+200 0 -118 7 +287 7 +122 4 *
Fa
0  1e-07 37 7

0101000
+117 0 *
Ed
 1e-07 1 1 0
1  123 0 1 68.15
0

0101000
+199 8 -286 8 *
Wi

0101100
-118 7 -285 7 +115 7 +198 0 *
Fa
0  1e-07 38 7

0101000
+114 0 *
Ed
 1e-07 1 1 0
1  124 0 1 68.15
2  68 25 0 1 68.15
0

0101000
+197 5 -284 5 *
Wi

0101100
+196 0 -115 7 +283 7 +112 4 *
Fa
0  1e-07 39 7

0101000
+111 0 *
Ed
 1e-07 1 1 0
1  125 0 1 68.15
2  69 25 0 1 68.15
0

0101000
+195 5 -282 5 *
Wi

0101100
-281 4 +109 4 +194 0 -112 4 *
Fa
0  1e-07 25 4

0101000
+108 0 *
Ed
 1e-07 1 1 0
1  126 0 1 68.15
0

0101000
+193 11 -280 11 *
Wi

0101100
+192 0 -106 10 +279 10 +109 4 *
Fa
0  1e-07 40 10

0101000
+105 0 *
Ed
 1e-07 1 1 0
1  127 0 1 68.15
0

0101000
+191 11 -278 11 *
Wi

0101100
-106 10 -277 10 +103 10 +190 0 *
Fa
0  1e-07 41 10

0101000
+102 0 *
Ed
 1e-07 1 1 0
1  128 0 1 68.15
2  70 26 0 1 68.15
0

0101000
+189 5 -276 5 *
Wi

0101100
+188 0 -103 10 +275 10 +100 4 *
Fa
0  1e-07 42 10

0101000
+99 0 *
Ed
 1e-07 1 1 0
1  129 0 1 68.15
2  71 26 0 1 68.15
0

0101000
+187 5 -274 5 *
Wi

0101100
-273 4 +97 4 +186 0 -100 4 *
Fa
0  1e-07 26 4

0101000
+96 0 *
Ed
 1e-07 1 1 0
1  130 0 1 68.15
0

0101000
+185 14 -272 14 *
Wi

0101100
+184 0 -94 13 +271 13 +97 4 *
Fa
0  1e-07 43 13

0101000
+93 0 *
Ed
 1e-07 1 1 0
1  131 0 1 68.15
0

0101000
+183 14 -270 14 *
Wi

0101100
-94 13 -269 13 +91 13 +182 0 *
Fa
0  1e-07 44 13

0101000
+90 0 *
Ed
 1e-07 1 1 0
1  132 0 1 68.15
2  72 27 0 1 68.15
0

0101000
+181 5 -268 5 *
Wi

0101100
+180 0 -91 13 +267 13 +88 4 *
Fa
0  1e-07 45 13

0101000
+87 0 *
Ed
 1e-07 1 1 0
1  133 0 1 68.15
2  73 27 0 1 68.15
0

0101000
+179 5 -266 5 *
Wi

0101100
-265 4 +85 4 +178 0 -88 4 *
Fa
0  1e-07 27 4

0101000
+84 0 *
Ed
 1e-07 1 1 0
1  134 0 1 68.15
0

0101000
+177 17 -264 17 *
Wi

0101100
+176 0 -82 16 +263 16 +85 4 *
Fa
0  1e-07 46 16

0101000
+81 0 *
Ed
 1e-07 1 1 0
1  135 0 1 68.15
0

0101000
+175 17 -262 17 *
Wi

0101100
-82 16 -261 16 +79 16 +174 0 *
Fa
0  1e-07 47 16

0101000
+78 0 *
Ed
 1e-07 1 1 0
1  136 0 1 68.15
2  74 28 0 1 68.15
0

0101000
+173 5 -260 5 *
Wi

0101100
+172 0 -79 16 +259 16 +76 4 *
Fa
0  1e-07 48 16

0101000
+75 0 *
Ed
 1e-07 1 1 0
1  137 0 1 68.15
2  75 28 0 1 68.15
0

0101000
+171 5 -258 5 *
Wi

0101100
+170 0 -76 4 -257 4 +73 4 *
Fa
0  1e-07 28 4

0101000
+72 0 *
Ed
 1e-07 1 1 0
1  138 0 1 68.15
0

0101000
+169 20 -256 20 *
Wi

0101100
+168 0 -70 19 +255 19 +73 4 *
Fa
0  1e-07 49 19

0101000
+69 0 *
Ed
 1e-07 1 1 0
1  139 0 1 68.15
0

0101000
+167 20 -254 20 *
Wi

0101100
-70 19 -253 19 +67 19 +166 0 *
Fa
0  1e-07 50 19

0101000
+66 0 *
Ed
 1e-07 1 1 0
1  140 0 1 68.15
2  76 29 0 1 68.15
0

0101000
+165 5 -252 5 *
Wi

0101100
+164 0 -67 19 +251 19 +64 4 *
Fa
0  1e-07 51 19

0101000
+63 0 *
Ed
 1e-07 1 1 0
1  141 0 1 68.15
2  77 29 0 1 68.15
0

0101000
+163 5 -250 5 *
Wi

0101100
+162 0 -64 4 -249 4 +61 4 *
Fa
0  1e-07 29 4

0101000
+60 0 *
Ed
 1e-07 1 1 0
1  142 0 1 68.15
0

0101000
+161 23 -248 23 *
Wi

0101100
+160 0 -58 22 +247 22 +61 4 *
Fa
0  1e-07 52 22

0101000
+57 0 *
Ed
 1e-07 1 1 0
1  143 0 1 68.15
0

0101000
+159 23 -246 23 *
Wi

0101100
-58 22 -245 22 +55 22 +158 0 *
Fa
0  1e-07 53 22

0101000
+54 0 *
Ed
 1e-07 1 1 0
1  144 0 1 68.15
2  78 30 0 1 68.15
0

0101000
+157 5 -244 5 *
Wi

0101100
+156 0 -55 22 +243 22 +52 4 *
Fa
0  1e-07 54 22

0101000
+51 0 *
Ed
 1e-07 1 1 0
1  145 0 1 68.15
2  79 30 0 1 68.15
0

0101000
+155 5 -242 5 *
Wi

0101100
+154 0 -52 4 -241 4 +49 4 *
Fa
0  1e-07 30 4

0101000
+48 0 *
Ed
 1e-07 1 1 0
1  146 0 1 68.15
0

0101000
+153 26 -240 26 *
Wi

0101100
+152 0 -46 25 +239 25 +49 4 *
Fa
0  1e-07 55 25

0101000
+45 0 *
Ed
 1e-07 1 1 0
1  147 0 1 68.15
0

0101000
+151 26 -238 26 *
Wi

0101100
-46 25 -237 25 +43 25 +150 0 *
Fa
0  1e-07 56 25

0101000
+42 0 *
Ed
 1e-07 1 1 0
1  148 0 1 68.15
2  80 31 0 1 68.15
0

0101000
+149 5 -236 5 *
Wi

0101100
+148 0 -43 25 +235 25 +40 4 *
Fa
0  1e-07 57 25

0101000
+39 0 *
Ed
 1e-07 1 1 0
1  149 0 1 68.15
2  81 31 0 1 68.15
0

0101000
+147 5 -234 5 *
Wi

0101100
+146 0 -40 4 -233 4 +37 4 *
Fa
0  1e-07 31 4

0101000
+36 0 *
Ed
 1e-07 1 1 0
1  150 0 1 68.15
0

0101000
+145 29 -232 29 *
Wi

0101100
+144 0 -34 28 +231 28 +37 4 *
Fa
0  1e-07 58 28

0101000
+33 0 *
Ed
 1e-07 1 1 0
1  151 0 1 68.15
0

0101000
+143 29 -230 29 *
Wi

0101100
-34 28 -229 28 +31 28 +142 0 *
Fa
0  1e-07 59 28

0101000
+30 0 *
Ed
 1e-07 1 1 0
1  152 0 1 68.15
2  82 32 0 1 68.15
0

0101000
+141 5 -228 5 *
Wi

0101100
+140 0 -31 28 +227 28 +28 4 *
Fa
0  1e-07 60 28

0101000
+27 0 *
Ed
 1e-07 1 1 0
1  153 0 1 68.15
2  83 32 0 1 68.15
0

0101000
+139 5 -226 5 *
Wi

0101100
+138 0 -28 4 -225 4 +25 4 *
Fa
0  1e-07 32 4

0101000
+24 0 *
Ed
 1e-07 1 1 0
1  154 0 1 68.15
0

0101000
+137 32 -224 32 *
Wi

0101100
+136 0 -22 31 +223 31 +25 4 *
Fa
0  1e-07 61 31

0101000
+21 0 *
Ed
 1e-07 1 1 0
1  155 0 1 68.15
0

0101000
+135 32 -222 32 *
Wi

0101100
-22 31 -221 31 +19 31 +134 0 *
Fa
0  1e-07 62 31

0101000
+18 0 *
Ed
 1e-07 1 1 0
1  156 0 1 68.15
2  84 33 0 1 68.15
0

0101000
+133 5 -220 5 *
Wi

0101100
+132 0 -19 31 +219 31 +16 4 *
Fa
0  1e-07 63 31

0101000
+15 0 *
Ed
 1e-07 1 1 0
1  157 0 1 68.15
2  85 33 0 1 68.15
0

0101000
+131 5 -218 5 *
Wi

0101100
-217 4 +13 4 +130 0 -16 4 *
Fa
0  1e-07 33 4

0101000
+12 0 *
Ed
 1e-07 1 1 0
1  158 0 1 68.15
0

0101000
+129 35 -216 35 *
Wi

0101100
+128 0 -10 34 +215 34 +13 4 *
Fa
0  1e-07 64 34

0101000
+9 0 *
Ed
 1e-07 1 1 0
1  159 0 1 68.15
0

0101000
+127 35 -214 35 *
Wi

0101100
-10 34 -213 34 +7 34 +126 0 *
Fa
0  1e-07 65 34

0101000
+6 0 *
Wi

0101100
+125 0 -7 34 +212 34 +121 4 *
Fa
0  1e-07 66 34

0101000
+4 0 *
Sh

0101100
+404 0 -399 0 +394 0 +389 0 -384 0 +379 0 +374 0 -369 0 +346 0 -341 0 
-336 0 -331 0 -326 0 -321 0 -316 0 -311 0 -306 0 +301 0 +299 0 +297 0 
+295 0 +293 0 +210 0 +208 0 +206 0 -123 0 -119 0 +116 0 -113 0 -110 0 
-107 0 +104 0 -101 0 -98 0 -95 0 +92 0 -89 0 -86 0 -83 0 +80 0 
-77 0 -74 0 -71 0 +68 0 -65 0 -62 0 -59 0 +56 0 -53 0 -50 0 
-47 0 +44 0 -41 0 -38 0 -35 0 +32 0 -29 0 -26 0 -23 0 +20 0 
-17 0 -14 0 -11 0 +8 0 -5 0 -3 0 *
So

0100000
+2 0 *

+1 1 