DBRep_DrawableShape

CASCADE Topology V1, (c) Matra-Datavision
Locations 3
1
              1               0               0               0 
              0               1               0               0 
              0               0               1               0 
1
              1               0               0               0 
              0               1               0               0 
              0               0               1               0 
2  2 -1 0
Curve2ds 12
1 0 6 1 0 
1 6.2831853071795862 -0 0 1 
1 0 -0 0 1 
1 0 0 1 0 
1 0 40.800000000000068 1 0 
1 6.2831853071795862 -0 0 1 
1 0 -0 0 1 
1 0 0 1 0 
1 0 47.800000000000068 1 0 
1 6.2831853071795862 -0 0 1 
1 0 -0 0 1 
1 0 1 1 0 
Curves 9
2 834.95000000000005 0 0 1 0 -0 0 0 1 0 -1 0 59.649999999999999
1 828.95000000000005 1.461e-14 59.649999999999999 1 0 0 
2 828.95000000000005 0 0 1 0 -0 0 0 1 0 -1 0 59.649999999999999
2 828.95000000000005 0 0 1 0 -0 0 0 1 0 -1 0 55
1 788.14999999999998 1.347e-14 55 1 0 0 
2 788.14999999999998 0 0 1 0 -0 0 0 1 0 -1 0 55
2 834.95000000000005 0 0 1 0 -0 0 0 1 0 -1 0 52.5
1 787.14999999999998 1.286e-14 52.5 1 0 0 
2 788.14999999999998 0 0 1 0 -0 0 0 1 0 -1 0 52.5
Polygon3D 0
PolygonOnTriangulations 0
Surfaces 6
2 828.95000000000005 0 0 1 0 0 0 0 1 0 -1 0 59.649999999999999
1 828.95000000000005 0 0 1 0 0 0 0 1 0 -1 0 
2 788.14999999999998 0 0 1 0 0 0 0 1 0 -1 0 55
2 787.14999999999998 0 0 1 0 0 0 0 1 0 -1 0 52.5
1 788.14999999999998 0 0 1 0 0 0 0 1 0 -1 0 
1 834.95000000000005 0 0 1 0 0 0 0 1 0 -1 0 
Triangulations 0

TShapes 32
Ve
1e-07
834.95 1.5e-14 59.65
0 0

0101101
*
Ed
 1e-07 1 1 0
1  1 0 0 6.28318530717959
2  1 1 0 0 6.28318530717959
0

0101000
+32 3 -32 3 *
Ve
1e-07
828.95 1.5e-14 59.65
0 0

0101101
*
Ed
 1e-07 1 1 0
1  2 0 0 6
3  2 3CN 1 0 0 6
0

0101000
-32 3 +30 3 *
Ed
 1e-07 1 1 0
1  3 0 0 6.28318530717959
2  4 1 0 0 6.28318530717959
0

0101000
+30 3 -30 3 *
Wi

0101100
-31 0 +29 0 +28 0 -29 0 *
Fa
0  1e-07 1 0

0101000
+27 0 *
Wi

0101100
+28 0 *
Ve
1.00000013e-07
828.95 1.3e-14 55
0 0

0101101
*
Ed
 1e-07 1 1 0
1  4 0 0 6.28318530717959
2  5 3 0 0 6.28318530717959
0

0101100
+24 3 -24 3 *
Wi

0101100
-23 0 *
Fa
0  1e-07 2 0

0101000
+25 0 +22 0 *
Ve
1e-07
788.15 1.3e-14 55
0 0

0101101
*
Ed
 1e-07 1 1 0
1  5 0 0 40.8000000000001
3  6 7CN 3 0 0 40.8000000000001
0

0101000
+20 3 -24 3 *
Ed
 1e-07 1 1 0
1  6 0 0 6.28318530717959
2  8 3 0 0 6.28318530717959
0

0101000
+20 3 -20 3 *
Wi

0101100
-23 0 +19 0 +18 0 -19 0 *
Fa
0  1e-07 3 0

0101000
+17 0 *
Ve
1.00000013e-07
834.95 1.3e-14 52.5
0 0

0101101
*
Ed
 1e-07 1 1 0
1  7 0 0 6.28318530717959
2  9 4 0 0 6.28318530717959
0

0101100
+15 3 -15 3 *
Ve
1.00000013e-07
788.15 1.3e-14 52.5
0 0

0101101
*
Ed
 1e-07 1 1 0
1  8 0 1 47.8000000000001
3  10 11CN 4 0 1 47.8000000000001
0

0101000
+13 3 -15 3 *
Ed
 1e-07 1 1 0
1  9 0 0 6.28318530717959
2  12 4 0 0 6.28318530717959
0

0101100
+13 3 -13 3 *
Wi

0101100
-14 0 +12 0 +11 0 -12 0 *
Fa
0  1e-07 4 0

0101000
+10 0 *
Wi

0101100
+18 0 *
Wi

0101100
-11 0 *
Fa
0  1e-07 5 0

0101000
+8 0 +7 0 *
Wi

0101100
+31 0 *
Wi

0101100
-14 0 *
Fa
0  1e-07 6 0

0101000
+5 0 +4 0 *
Sh

0101100
+26 0 -21 0 +16 0 -9 0 -6 0 +3 0 *
So

0100000
+2 0 *

+1 1 