DBRep_DrawableShape

CASCADE Topology V1, (c) Matra-Datavision
Locations 3
1
              1               0               0 2428.23036278275 
              0               1               0              40 
              0               0               1 807.958510435766 
1
              1               0               0               0 
              0               1               0               0 
              0               0               1               0 
2  2 -1 0
Curve2ds 24
1 0 3.1749999999999998 1 0 
2 0 0 1 0 -0 1 15
1 6.249845797918284 0 0 1 
1 1 14.99166435056495 1 0 
1 0 0 1 0 
2 0 0 1 0 -0 1 15
1 0.033339509261302087 0 0 1 
1 1 14.99166435056495 1 0 
1 0 0.5 -1 0 
1 4.1749999999999998 0 0 -1 
2 0 0 1 0 -0 1 8.0999999999999996
1 0 4.1749999999999998 1 0 
1 0 -0.5 -1 0 
1 4.1749999999999998 0 0 -1 
1 0 8.0845531725630941 1 0 
1 6.2214176431547621 0 0 1 
1 1 0 0 -1 
1 0 -0.5 -1 0 
1 0 0.5 -1 0 
1 1 0 0 -1 
2 0 0 1 0 -0 1 8.0999999999999996
1 0 1 1 0 
1 0 8.0845531725630941 1 0 
1 0.061767664024824358 0 0 1 
Curves 12
2 0 0 3.1749999999999998 0 0 1 1 0 -0 -0 1 0 15
1 14.99166435056495 -0.5 0 0 0 1 
2 0 0 0 0 0 1 1 0 -0 -0 1 0 15
1 14.99166435056495 0.5 0 0 0 1 
1 0 0.5 3.1749999999999998 -1 0 0 
2 0 0 3.1749999999999998 0 0 1 1 0 -0 -0 1 0 8.0999999999999996
1 0 -0.5 3.1749999999999998 -1 0 0 
1 8.0845531725630941 -0.5 -1 0 0 1 
1 0 -0.5 0 -1 0 0 
1 0 0.5 0 -1 0 0 
2 0 0 0 0 0 1 1 0 -0 -0 1 0 8.0999999999999996
1 8.0845531725630941 0.5 -1 0 0 1 
Polygon3D 0
PolygonOnTriangulations 0
Surfaces 6
2 0 0 0 0 0 1 1 0 -0 -0 1 0 15
1 0 0 3.1749999999999998 0 0 1 1 0 -0 -0 1 0 
1 0 -0.5 -1 0 1 0 0 -0 1 1 0 -0 
1 0 0 0 0 0 1 1 0 -0 -0 1 0 
1 0 0.5 -1 0 1 0 0 -0 1 1 0 -0 
2 0 0 -1 0 0 1 1 0 -0 -0 1 0 8.0999999999999996
Triangulations 0

TShapes 34
Ve
1.5e-07
14.9916643505649 0.5 3.175
0 0

0101101
*
Ve
1.50000006e-07
14.9916643505649 -0.500000000000006 3.175
0 0

0101101
*
Ed
 1e-07 1 1 0
1  1 0 0.033339509261302 6.24984579791828
2  1 1 0 0.033339509261302 6.24984579791828
2  2 2 0 0.033339509261302 6.24984579791828
0

0101000
+34 3 -33 3 *
Ve
1.50000006e-07
14.9916643505649 -0.500000000000006 0
0 0

0101101
*
Ed
 1e-07 1 1 0
1  2 0 0 3.175
2  3 1 0 0 3.175
2  4 3 0 0 3.175
0

0101000
+31 3 -33 3 *
Ve
1.5e-07
14.9916643505649 0.5 0
0 0

0101101
*
Ed
 1e-07 1 1 0
1  3 0 0.033339509261302 6.24984579791828
2  5 1 0 0.033339509261302 6.24984579791828
2  6 4 0 0.033339509261302 6.24984579791828
0

0101000
+29 3 -31 3 *
Ed
 1e-07 1 1 0
1  4 0 0 3.175
2  7 1 0 0 3.175
2  8 5 0 0 3.175
0

0101000
+29 3 -34 3 *
Wi

0101100
-32 0 +30 0 +28 0 -27 0 *
Fa
0  1e-07 1 0

0101000
+26 0 *
Ve
1.5e-07
8.08455317256309 0.5 3.175
0 0

0101101
*
Ed
 1.5e-07 1 1 0
1  5 0 -14.9916643505649 -8.08455317256309
2  9 2 0 -14.9916643505649 -8.08455317256309
2  10 5 0 -14.9916643505649 -8.08455317256309
0

0101000
+34 3 -24 3 *
Ve
1.5e-07
8.08455317256309 -0.5 3.175
0 0

0101101
*
Ed
 1e-07 1 1 0
1  6 0 0.061767664024824 6.22141764315476
2  11 2 0 0.061767664024824 6.22141764315476
2  12 6 0 0.061767664024824 6.22141764315476
0

0101000
+24 3 -22 3 *
Ed
 1.5e-07 1 1 0
1  7 0 -14.9916643505649 -8.08455317256309
2  13 2 0 -14.9916643505649 -8.08455317256309
2  14 3 0 -14.9916643505649 -8.08455317256309
0

0101000
+33 3 -22 3 *
Wi

0101100
-23 0 -21 0 +20 0 +32 0 *
Fa
0  1e-07 2 0

0101000
+19 0 *
Ve
1.5e-07
8.08455317256309 -0.5 0
0 0

0101101
*
Ed
 1e-07 1 1 0
1  8 0 1 4.175
2  15 3 0 1 4.175
2  16 6 0 1 4.175
0

0101000
+17 3 -22 3 *
Ed
 1.5e-07 1 1 0
1  9 0 -14.9916643505649 -8.08455317256309
2  17 3 0 -14.9916643505649 -8.08455317256309
2  18 4 0 -14.9916643505649 -8.08455317256309
0

0101000
+31 3 -17 3 *
Wi

0101100
-30 0 -20 0 +16 0 +15 0 *
Fa
0  1e-07 3 0

0101000
+14 0 *
Ve
1.5e-07
8.08455317256309 0.5 0
0 0

0101101
*
Ed
 1.5e-07 1 1 0
1  10 0 -14.9916643505649 -8.08455317256309
2  19 4 0 -14.9916643505649 -8.08455317256309
2  20 5 0 -14.9916643505649 -8.08455317256309
0

0101000
+29 3 -12 3 *
Ed
 1e-07 1 1 0
1  11 0 0.061767664024824 6.22141764315476
2  21 4 0 0.061767664024824 6.22141764315476
2  22 6 0 0.061767664024824 6.22141764315476
0

0101000
+12 3 -17 3 *
Wi

0101100
-11 0 -10 0 +15 0 +28 0 *
Fa
0  1e-07 4 0

0101000
+9 0 *
Ed
 1e-07 1 1 0
1  12 0 1 4.175
2  23 5 0 1 4.175
2  24 6 0 1 4.175
0

0101000
+12 3 -24 3 *
Wi

0101100
-27 0 -23 0 +7 0 +11 0 *
Fa
0  1e-07 5 0

0101000
+6 0 *
Wi

0101100
-21 0 +16 0 +10 0 -7 0 *
Fa
0  1e-07 6 0

0101000
+4 0 *
Sh

0101100
+25 0 +18 0 +13 0 -8 0 -5 0 -3 0 *
So

0100000
+2 0 *

+1 1 