DBRep_DrawableShape

CASCADE Topology V1, (c) Matra-Datavision
Locations 18
1
              1               0               0               0 
              0               1               0               0 
              0               0               1               0 
1
              1              -0               0 6237.93901734191 
              0               0               1       -1165.225 
             -0              -1               0          527.05 
1
              1               0               0               0 
              0               1               0               0 
              0               0               1               0 
2  3 -1 2 -1 0
1
              1               0               0               0 
              0               1               0               0 
              0               0               1               0 
1
              1               0               0 6237.93901734191 
              0               0               1       -1165.225 
              0              -1               0          527.05 
1
              1               0               0 6237.93901734191 
              0               0               1       -1165.225 
              0              -1               0          527.05 
2  5 1 6 1 7 -1 0
2  7 1 6 -1 5 -1 0
2  6 -1 5 -1 0
2  3 -1 2 -1 7 1 6 -1 5 -1 0
1
              1               0               0               0 
              0               1               0       -2.59e-13 
              0               0               1         2330.45 
2  5 1 6 1 7 -1 12 1 0
2  12 -1 7 1 6 -1 5 -1 0
2  3 -1 2 -1 12 -1 7 1 6 -1 5 -1 0
2  7 -1 0
2  5 1 6 1 0
2  7 -1 12 1 0
Curve2ds 24
1 0 0 0 -1 
1 6 -1.0000000000000064e-17 0 -1 
1 802.06066955698498 0 0 -1 
1 0 0 0 -1 
1 0 0 1 0 
1 -3.0000000000001137 401.03033477849385 0 -1 
1 0 -2330.4499999999998 1 0 
1 -3.0000000000001137 401.03033477849385 0 -1 
1 6 1.0000000000000064e-17 0 -1 
1 0 0 0 -1 
1 0 0 1 -1.1e-16 
1 -3.0000000000001137 -401.03033477849112 1 0 
1 -2.8975824556767918e-14 -2330.4499999999998 1 -1.1e-16 
1 -3.0000000000001137 -401.03033477849112 1 0 
1 802.06066955698498 0 0 -1 
1 0 0 0 -1 
1 0 -6.7000000000000004e-16 1 0 
1 2.9999999999998863 -401.03033477849112 0 1 
1 0 -2330.4499999999998 1 0 
1 2.9999999999998863 -401.03033477849112 0 1 
1 7.3700000000000005e-32 -6.7000000000000004e-16 1 1.1e-16 
1 2.9999999999998863 401.03033477849385 -1 0 
1 2.8975824556767918e-14 -2330.4499999999998 1 1.1e-16 
1 2.9999999999998863 401.03033477849385 -1 0 
Curves 12
1 0 0 0 0 -1.1e-16 1 
1 -802.06066955698498 0 0 0 -1.1e-16 1 
1 0 0 0 -1 0 0 
1 0 0 0 -1 0 0 
1 -802.06066955698498 -6 -6.7000000000000004e-16 0 -1.1e-16 1 
1 -802.06066955698498 0 0 0 -1 0 
1 -802.06066955698498 0 0 0 -1 0 
1 0 -6 -6.7000000000000004e-16 0 -1.1e-16 1 
1 -802.06066955698498 -6 0 1 0 0 
1 -802.06066955698498 -6 0 1 0 0 
1 0 -6 0 0 1 0 
1 0 -6 0 0 1 0 
Polygon3D 0
PolygonOnTriangulations 0
Surfaces 6
1 0 0 0 -0 -1 -1.1e-16 -1 0 0 0 1.1e-16 -1 
1 0 -6 -6.7000000000000004e-16 -1 0 0 0 1 1.1e-16 0 1.1e-16 -1 
1 -802.06066955698498 0 0 1 0 0 0 -1 -1.1e-16 0 1.1e-16 -1 
1 5836.9086825634167 -1165.2249999999999 530.05000000000007 0 1 0 0 -0 1 1 0 -0 
1 5836.9086825634167 -1165.2249999999999 530.05000000000007 0 1 0 0 -0 1 1 0 -0 
1 -802.06066955698498 -6 -6.7000000000000004e-16 0 1 1.1e-16 1 0 -0 -0 1.1e-16 -1 
Triangulations 0

TShapes 34
Ve
1e-07
6237.93901734191 -1165.225 527.05
0 0

0101101
*
Ve
1e-07
6237.93901734191 1165.225 527.050000000001
0 0

0101101
*
Ed
 1e-07 1 1 0
1  1 0 0 2330.45
2  1 1 0 0 2330.45
2  2 2 0 0 2330.45
0

0101000
+34 4 -33 4 *
Ve
1e-07
5435.87834778493 -1165.225 527.05
0 0

0101101
*
Ve
1e-07
5435.87834778493 1165.225 527.050000000001
0 0

0101101
*
Ed
 1e-07 1 1 0
1  2 0 0 2330.45
2  3 1 0 0 2330.45
2  4 3 0 0 2330.45
0

0101000
+31 4 -30 4 *
Ed
 1e-07 1 1 0
1  3 0 0 802.060669556985
2  5 1 9 0 802.060669556985
2  6 4 10 0 802.060669556985
0

0101000
+34 11 -31 11 *
Ed
 1e-07 1 1 0
1  4 0 0 802.060669556985
2  7 1 14 0 802.060669556985
2  8 5 10 0 802.060669556985
0

0101000
+33 15 -30 15 *
Wi

0101100
+32 0 -29 0 -28 8 +27 13 *
Fa
0  1e-07 1 0

0111000
+26 0 *
Ve
1e-07
5435.87834778493 -1165.225 533.05
0 0

0101101
*
Ve
1e-07
5435.87834778493 1165.225 533.050000000001
0 0

0101101
*
Ed
 1e-07 1 1 0
1  5 0 0 2330.45
2  9 3 0 0 2330.45
2  10 6 0 0 2330.45
0

0101000
+24 4 -23 4 *
Ed
 1e-07 1 1 0
1  6 0 0 6
2  11 3 9 0 6
2  12 4 10 0 6
0

0101000
+31 11 -24 11 *
Ed
 1e-07 1 1 0
1  7 0 0 6
2  13 3 14 0 6
2  14 5 10 0 6
0

0101000
+30 15 -23 15 *
Wi

0101100
+29 0 -22 0 -21 8 +20 13 *
Fa
0  1e-07 3 0

0111000
+19 0 *
Ve
1e-07
6237.93901734191 -1165.225 533.05
0 0

0101101
*
Ve
1e-07
6237.93901734191 1165.225 533.050000000001
0 0

0101101
*
Ed
 1e-07 1 1 0
1  8 0 0 2330.45
2  15 6 0 0 2330.45
2  16 2 0 0 2330.45
0

0101000
+17 4 -16 4 *
Ed
 1e-07 1 1 0
1  9 0 0 802.060669556985
2  17 6 9 0 802.060669556985
2  18 4 10 0 802.060669556985
0

0101000
+24 11 -17 11 *
Ed
 1e-07 1 1 0
1  10 0 0 802.060669556985
2  19 6 14 0 802.060669556985
2  20 5 10 0 802.060669556985
0

0101000
+23 15 -16 15 *
Wi

0101100
+22 0 -15 0 -14 8 +13 13 *
Fa
0  1e-07 6 0

0111000
+12 0 *
Ed
 1e-07 1 1 0
1  11 0 0 6
2  21 2 9 0 6
2  22 4 10 0 6
0

0101000
+17 11 -34 11 *
Ed
 1e-07 1 1 0
1  12 0 0 6
2  23 2 14 0 6
2  24 5 10 0 6
0

0101000
+16 15 -33 15 *
Wi

0101100
+15 0 -32 0 -10 8 +9 13 *
Fa
0  1e-07 2 0

0111000
+8 0 *
Wi

0101100
+28 0 +21 0 +14 0 +10 0 *
Fa
0  1e-07 4 0

0111000
+6 17 *
Wi

0101100
+27 0 +20 0 +13 0 +9 0 *
Fa
0  1e-07 5 0

0111000
+4 17 *
Sh

0101100
+25 0 +18 0 +11 0 +7 0 +5 16 -3 18 *
So

1100000
-2 2 *

+1 1 