DBRep_DrawableShape

CASCADE Topology V1, (c) Matra-Datavision
Locations 0
Curve2ds 12
1 -6.2831853071795862 0 1 0 
1 0 0 1 0 
1 0 1 1 0 
1 -6.2831853071795862 1 1 0 
1 -0.77452838413341496 0 0 1 
1 -0.77376999437332472 0 0 1 
1 -6.2831853071795862 3 1 0 
1 0 3 1 0 
1 0 4 1 0 
1 -6.2831853071795862 4 1 0 
1 5.4869173645181126 0 0 1 
1 5.4861589747580402 0 0 1 
Curves 16
2 2813.180362783 0 849.23351043575997 1 0 -0 0 0 1 0 -1 0 92
2 2813.180362783 0 849.23351043575997 1 0 -0 0 0 1 0 -1 0 92
1 2813.180362783 0.70710678118699999 848.52640365458001 0 -0.70710678118654757 -0.70710678118654757 
2 2813.180362783 0 849.23351043575997 1 0 -0 0 0 1 0 -1 0 86
2 2813.180362783 0 849.23351043575997 1 0 -0 0 0 1 0 -1 0 86
1 2813.180362783 -0.70710678118699999 849.94061721695005 0 -0.70710678118654757 -0.70710678118654757 
1 2813.180362783 64.342874002822995 914.99059800095995 1 0 0 
1 2812.180362783 60.099965175946998 910.74768917408005 1 0 0 
1 2816.180362783 -0.70710678118699999 849.94061721695005 0 -0.70710678118654757 -0.70710678118654757 
2 2816.180362783 0 849.23351043575997 1 0 -0 0 0 1 0 -1 0 92
2 2816.180362783 0 849.23351043575997 1 0 -0 0 0 1 0 -1 0 92
1 2816.180362783 0.70710678118699999 848.52640365458001 0 -0.70710678118654757 -0.70710678118654757 
2 2816.180362783 0 849.23351043575997 1 0 -0 0 0 1 0 -1 0 86
2 2816.180362783 0 849.23351043575997 1 0 -0 0 0 1 0 -1 0 86
1 2813.180362783 65.757087565196002 913.57638443858002 1 0 0 
1 2812.180362783 61.514178738319998 909.33347561171001 1 0 0 
Polygon3D 0
PolygonOnTriangulations 0
Surfaces 6
1 2813.180362783 0 849.23351043575997 1 0 0 0 0 1 0 -1 0 
2 2813.180362783 0 849.23351043575997 1 0 0 0 0 1 0 -1 0 92
1 2812.180362783 0.70710678118699999 848.52640365458001 0 -0.70710678118654757 0.70710678118654757 1 0 0 -0 0.70710678118654757 0.70710678118654757 
2 2812.180362783 0 849.23351043575997 1 0 0 0 0 1 0 -1 0 86
1 2812.180362783 -0.70710678118699999 849.94061721695005 0 -0.70710678118654757 0.70710678118654757 1 0 0 -0 0.70710678118654757 0.70710678118654757 
1 2816.180362783 0 849.23351043575997 1 0 0 0 0 1 0 -1 0 
Triangulations 0

TShapes 42
Ve
1e-07
2813.180362783 64.342874002823 914.99059800096
0 0

0101101
*
Ve
1e-07
2813.180362783 2.3e-14 941.23351043576
0 0

0101101
*
Ed
 1e-07 1 1 0
1  1 0 5.50865692304617 6.28318530717959
2  1 2 0 5.50865692304617 6.28318530717959
4 C0 1 0 2 0
0

0101000
+42 0 -41 0 *
Ve
1e-07
2813.180362783 65.757087565196 913.57638443858
0 0

0101101
*
Ed
 1e-07 1 1 0
1  2 0 0 5.48691736451811
2  2 2 0 0 5.48691736451811
4 C0 1 0 2 0
0

0101000
+41 0 -39 0 *
Ve
1e-07
2813.180362783 61.51417873832 909.33347561171
0 0

0101101
*
Ed
 1e-07 1 1 0
1  3 0 -91.9945650568484 -85.9941858499721
4 C0 1 0 3 0
0

0101000
+39 0 -37 0 *
Ve
1e-07
2813.180362783 2.1e-14 935.23351043576
0 0

0101101
*
Ed
 1e-07 1 1 0
1  4 0 0 5.48615897475804
2  3 4 0 0 5.48615897475804
4 C0 1 0 4 0
0

0101000
+35 0 -37 0 *
Ve
1e-07
2813.180362783 60.099965175947 910.74768917408
0 0

0101101
*
Ed
 1e-07 1 1 0
1  5 0 5.50941531280626 6.28318530717959
2  4 4 0 5.50941531280626 6.28318530717959
4 C0 1 0 4 0
0

0101000
+33 0 -35 0 *
Ed
 1e-07 1 1 0
1  6 0 -91.9945650568561 -85.9941858499728
4 C0 1 0 5 0
0

0101000
+42 0 -33 0 *
Wi

0101100
+40 0 +38 0 +36 0 -34 0 -32 0 -31 0 *
Fa
0  1e-07 1 0

0111000
+30 0 *
Ve
1e-07
2816.180362783 64.342874002823 914.99059800096
0 0

0101101
*
Ed
 1e-07 1 1 0
1  7 0 0 3
2  5 2 0 0 3
4 C0 5 0 2 0
0

0101000
+42 0 -28 0 *
Ve
1e-07
2816.180362783 60.099965175947 910.74768917408
0 0

0101101
*
Ed
 1e-07 1 1 0
1  8 0 1 4
2  6 4 0 1 4
4 C0 5 0 4 0
0

0101000
+33 0 -26 0 *
Ed
 1e-07 1 1 0
1  9 0 -91.9945650568561 -85.9941858499728
4 C0 5 0 6 0
0

0101000
+28 0 -26 0 *
Wi

0101100
-27 0 +31 0 +25 0 -24 0 *
Fa
0  1e-07 5 0

0111000
+23 0 *
Ve
1e-07
2816.180362783 2.3e-14 941.23351043576
0 0

0101101
*
Ed
 1e-07 1 1 0
1  10 0 5.50865692304617 6.28318530717959
2  7 2 0 5.50865692304617 6.28318530717959
4 C0 6 0 2 0
0

0101000
+28 0 -21 0 *
Ve
1e-07
2816.180362783 65.757087565196 913.57638443858
0 0

0101101
*
Ed
 1e-07 1 1 0
1  11 0 0 5.48691736451811
2  8 2 0 0 5.48691736451811
4 C0 6 0 2 0
0

0101000
+21 0 -19 0 *
Ve
1e-07
2816.180362783 61.51417873832 909.33347561171
0 0

0101101
*
Ed
 1e-07 1 1 0
1  12 0 -91.9945650568484 -85.9941858499721
4 C0 6 0 3 0
0

0101000
+19 0 -17 0 *
Ve
1e-07
2816.180362783 2.1e-14 935.23351043576
0 0

0101101
*
Ed
 1e-07 1 1 0
1  13 0 0 5.48615897475804
2  9 4 0 0 5.48615897475804
4 C0 6 0 4 0
0

0101000
+15 0 -17 0 *
Ed
 1e-07 1 1 0
1  14 0 5.50941531280626 6.28318530717959
2  10 4 0 5.50941531280626 6.28318530717959
4 C0 6 0 4 0
0

0101000
+26 0 -15 0 *
Wi

0101100
+20 0 +18 0 +16 0 -14 0 -13 0 -24 0 *
Fa
0  1e-07 6 0

0111000
+12 0 *
Ed
 1e-07 1 1 0
1  15 0 0 3
2  11 2 0 0 3
4 C0 3 0 2 0
0

0101000
+39 0 -19 0 *
Ed
 1e-07 1 1 0
1  16 0 1 4
2  12 4 0 1 4
4 C0 3 0 4 0
0

0101000
+37 0 -17 0 *
Wi

0101100
-10 0 +36 0 +9 0 -16 0 *
Fa
0  1e-07 3 0

0111000
+8 0 *
Wi

0101100
+38 0 +10 0 -18 0 -20 0 -27 0 +40 0 *
Fa
0  1e-07 2 0

0111000
+6 0 *
Wi

0101100
+9 0 -14 0 -13 0 -25 0 +32 0 +34 0 *
Fa
0  1e-07 4 0

0111000
+4 0 *
Sh

0101100
-29 0 -22 0 +11 0 +7 0 +5 0 -3 0 *
So

0100000
+2 0 *

+1 0 