DBRep_DrawableShape

CASCADE Topology V1, (c) Matra-Datavision
Locations 0
Curve2ds 16
1 0 17 1 0 
1 6.2831853071795862 0 0 1 
1 0 0 0 1 
1 0 1 1 0 
1 0 0 1 0 
1 0 8 1 0 
1 6.2831853071795862 0 0 1 
1 0 0 0 1 
1 0 12 1 0 
1 6.2831853071795862 0 0 1 
1 0 0 0 1 
1 0 1 1 0 
1 0 -11 1 0 
1 0 8 1 0 
1 6.2831853071795862 0 0 1 
1 0 0 0 1 
Curves 12
2 2836.180362783 0 849.23351043575997 1 0 -0 0 0 1 0 -1 0 50.825400000000002
1 2819.180362783 1.245e-14 900.05891043576003 1 0 0 
2 2820.180362783 0 849.23351043575997 1 0 -0 0 0 1 0 -1 0 50.825400000000002
2 2820.180362783 0 849.23351043575997 1 0 -0 0 0 1 0 -1 0 76
2 2828.180362783 0 849.23351043575997 1 0 -0 0 0 1 0 -1 0 76
1 2820.180362783 1.8609999999999999e-14 925.23351043575997 1 0 0 
2 2828.180362783 0 849.23351043575997 1 0 -0 0 0 1 0 -1 0 88.150000000000006
1 2816.180362783 2.1589999999999999e-14 937.38351043575994 1 0 0 
2 2817.180362783 0 849.23351043575997 1 0 -0 0 0 1 0 -1 0 88.150000000000006
2 2817.180362783 0 849.23351043575997 1 0 -0 0 0 1 0 -1 0 96
2 2836.180362783 0 849.23351043575997 1 0 -0 0 0 1 0 -1 0 96
7 0 0  1 2 2  2817.180362783 0 945.23351043575997  2836.180362783 0 945.23351043575997 
 -11 2 8 2
Polygon3D 0
PolygonOnTriangulations 0
Surfaces 8
2 2819.180362783 0 849.23351043575997 1 0 0 0 0 1 0 -1 0 50.825400000000002
1 2836.180362783 0 849.23351043575997 1 0 0 0 0 1 0 -1 0 
1 2820.180362783 0 849.23351043575997 1 0 0 0 0 1 0 -1 0 
2 2820.180362783 0 849.23351043575997 1 0 0 0 0 1 0 -1 0 76
1 2828.180362783 0 849.23351043575997 1 0 0 0 0 1 0 -1 0 
2 2816.180362783 0 849.23351043575997 1 0 0 0 0 1 0 -1 0 88.150000000000006
1 2817.180362783 0 849.23351043575997 1 0 0 0 0 1 0 -1 0 
2 2828.180362783 0 849.23351043575997 1 0 0 0 0 1 0 -1 0 96
Triangulations 0

TShapes 42
Ve
1e-07
2836.180362783 1.2e-14 900.05891043576
0 0

0101101
*
Ed
 1e-07 1 1 0
1  1 0 0 6.28318530717959
2  1 1 0 0 6.28318530717959
4 C0 1 0 2 0
0

0101100
+42 0 -42 0 *
Ve
1e-07
2820.180362783 1.2e-14 900.05891043576
0 0

0101101
*
Ed
 1e-07 1 1 0
1  2 0 1 17
3  2 3CN 1 0 1 17
0

0101000
+40 0 -42 0 *
Ed
 1e-07 1 1 0
1  3 0 0 6.28318530717959
2  4 1 0 0 6.28318530717959
4 C0 1 0 3 0
0

0101100
+40 0 -40 0 *
Wi

0101100
-41 0 -39 0 +38 0 +39 0 *
Fa
0  1e-07 1 0

0111000
+37 0 *
Ve
1e-07
2820.180362783 1.9e-14 925.23351043576
0 0

0101101
*
Ed
 1e-07 1 1 0
1  4 0 0 6.28318530717959
2  5 4 0 0 6.28318530717959
4 C0 3 0 4 0
0

0101100
+35 0 -35 0 *
Wi

0101100
+34 0 *
Wi

0101100
-38 0 *
Fa
0  1e-07 3 0

0111000
+33 0 +32 0 *
Ve
1e-07
2828.180362783 1.9e-14 925.23351043576
0 0

0101101
*
Ed
 1e-07 1 1 0
1  5 0 0 6.28318530717959
2  6 4 0 0 6.28318530717959
4 C0 4 0 5 0
0

0101100
+30 0 -30 0 *
Ed
 1e-07 1 1 0
1  6 0 0 8
3  7 8CN 4 0 0 8
0

0101000
+35 0 -30 0 *
Wi

0101100
-29 0 -28 0 +34 0 +28 0 *
Fa
0  1e-07 4 0

0111000
+27 0 *
Ve
1e-07
2828.180362783 2.2e-14 937.38351043576
0 0

0101101
*
Ed
 1e-07 1 1 0
1  7 0 0 6.28318530717959
2  9 6 0 0 6.28318530717959
4 C0 5 0 6 0
0

0101100
+25 0 -25 0 *
Wi

0101100
+24 0 *
Wi

0101100
-29 0 *
Fa
0  1e-07 5 0

0111000
+23 0 +22 0 *
Ve
1e-07
2817.180362783 2.2e-14 937.38351043576
0 0

0101101
*
Ed
 1e-07 1 1 0
1  8 0 1 12
3  10 11CN 6 0 1 12
0

0101000
+20 0 -25 0 *
Ed
 1e-07 1 1 0
1  9 0 0 6.28318530717959
2  12 6 0 0 6.28318530717959
4 C0 6 0 7 0
0

0101100
+20 0 -20 0 *
Wi

0101100
-24 0 -19 0 +18 0 +19 0 *
Fa
0  1e-07 6 0

0111000
+17 0 *
Ve
1e-07
2817.180362783 2.4e-14 945.23351043576
0 0

0101101
*
Ed
 1e-07 1 1 0
1  10 0 0 6.28318530717959
2  13 8 0 0 6.28318530717959
4 C0 7 0 8 0
0

0101100
+15 0 -15 0 *
Wi

0101100
+14 0 *
Wi

0101100
-18 0 *
Fa
0  1e-07 7 0

0111000
+13 0 +12 0 *
Ve
1e-07
2836.180362783 2.4e-14 945.23351043576
0 0

0101101
*
Ed
 1e-07 1 1 0
1  11 0 0 6.28318530717959
2  14 8 0 0 6.28318530717959
4 C0 2 0 8 0
0

0101100
+10 0 -10 0 *
Wi

0101100
+9 0 *
Wi

0101100
-41 0 *
Fa
0  1e-07 2 0

0111000
+8 0 +7 0 *
Ed
 1e-07 1 1 0
1  12 0 -11 8
3  15 16CN 8 0 -11 8
0

0101000
+15 0 -10 0 *
Wi

0101100
+14 0 +5 0 -9 0 -5 0 *
Fa
0  1e-07 8 0

0111000
+4 0 *
Sh

0101100
-36 0 -31 0 +26 0 -21 0 -16 0 -11 0 +6 0 +3 0 *
So

0100000
+2 0 *

+1 0 