DBRep_DrawableShape

CASCADE Topology V1, (c) Matra-Datavision
Locations 0
Curve2ds 18
1 6.2831853071795862 -0 0 1 
1 0 -0 0 1 
1 0 0 1 0 
2 0 0 1 0 -0 1 7.9375
1 0 57.149999999999999 1 0 
2 0 0 1 0 -0 1 7.9375
7 0 0  8 51 8  1.2528690066606847 50.756250000000009  1.2528690066606847 50.495364103064254  1.25702687992321 50.235225234367782  1.2653007314357225 49.978047978355534  1.2777143940864026 49.726167952412325  1.2943272169062281 49.482457489453253  1.3152211200870274 49.250612449537634  1.3404874188411819 49.035582101596376  1.39385778922434 48.692154740897152  1.4212928981099422 48.548884754697674  1.4520893739980645 48.425754439270506  1.4855845530511285 48.331160572563476  1.520955606464057 48.270953315898552  1.5573285942391779 48.248590256280387  1.5937838696378854 48.265106341353793  1.6682095232507455 48.377605130293617  1.7041696498320726 48.477753893962955  1.7369182597730486 48.610965055047281  1.7662615332645055 48.770298865866891  1.7920806461430498 48.949783270398882  1.8143300985207509 49.144256475334309  1.8330334911453687 49.349248883421978  1.8660749638330656 49.808062165202458  1.8793572041997599 50.067125931658417  1.8881746299058912 50.333779165145792  1.8925518261411303 50.60462747273472  1.8924997657785303 50.876664395983234  1.8880208152312103 51.14698880970176  1.8791026136749791 51.412544605894318  1.8545229559805532 51.884040952724568  1.8402217563952847 52.09268335851592  1.8227511532546026 52.293659526060551  1.8020441527644859 52.484444776863455  1.7780408425800032 52.661714376769396  1.7507018403703563 52.821193940055295  1.7200302386024844 52.957418689015107  1.6549809857780189 53.16048951741044  1.6210859408282658 53.232144671963574  1.585422358170913 53.269791377560018  1.5491110455073054 53.269152765388654  1.5132976933133202 53.229763545754452  1.4791173372346105 53.154803893578425  1.4476131273609061 53.05132093166732  1.3772744452058943 52.747886054903987  1.3412224459793942 52.518114255483184  1.3115024858894113 52.257097171408141  1.2879615132682987 51.975195296246888  1.2704325240156418 51.679686904508898  1.2587595754851892 51.375667430254438  1.2528690066606845 51.0667742504898  1.2528690066606845 50.756250000000001 
 0 9 0.15449337160652366 7 0.27754240877320835 7 0.41158826330047243 7 0.5681262634732569 7 0.69864757856529358 7 0.818553963447475 7 1 9
7 0 0  8 51 8  0 16.477215159573337  0.10514293075496391 16.477215159573337  0.20998444081876905 16.487531625760663  0.31540518187038696 16.50806202965693  0.42218807383343665 16.538132527471255  0.53111382248248729 16.576468920542734  0.64300158453087142 16.621035392286139  0.75877651641687194 16.668843044066428  0.97591458165234335 16.753254063480973  1.0793023969710442 16.791668336296237  1.1874344760614131 16.827613557488032  1.2988342571980032 16.857053969591931  1.4124967615753032 16.876346456052723  1.5276123477629642 16.883392208085475  1.6434846186570808 16.877933022885177  1.8854487781751508 16.843329567918218  2.0054998819882237 16.812973856136928  2.1205169026366657 16.774016141580379  2.2311739300125755 16.730462500122037  2.3379966273659551 16.68586523620084  2.4413663954125102 16.643164961639972  2.5415978513882895 16.60452416352334  2.752610911173405 16.532680901622204  2.8636387475596794 16.501037075522571  2.9729368222694164 16.478809390824448  3.0812469223507382 16.467467793443561  3.1892565512120505 16.467667606751647  3.2976464571092938 16.479285906019626  3.4071344614961934 16.501419331664245  3.6115101576884974 16.558124796282478  3.7058556765201445 16.590032977895909  3.8022191360699096 16.627106197496129  3.90116223744046 16.667972215763971  4.0032625280323169 16.71075369744576  4.1091413629449125 16.75292780390507  4.219525113574452 16.791301966800553  4.4418470067142728 16.850718542788652  4.5530038631885628 16.872937260818464  4.6665354625244628 16.885286283424929  4.7808601764912666 16.885198456913347  4.8945855426140259 16.872245040540143  5.0062611196895475 16.84856524533361  5.1140400402765653 16.81793130490971  5.3678858141358852 16.73385186948358  5.5115451790906951 16.674671039222641  5.6484213739334415 16.61549153875275  5.7800989189529233 16.562832178937342  5.908035942966654 16.520791229436501  6.0335452998273116 16.491831835779507  6.158036994639617 16.477215159573337  6.2831853071795862 16.477215159573337 
 0 9 0.15449337160652366 7 0.27754240877320835 7 0.41158826330047243 7 0.5681262634732569 7 0.69864757856529358 7 0.818553963447475 7 1 9
7 0 0  8 51 8  5.0303163005189013 50.756250000000009  5.0303163005189013 50.495364108341953  5.0261584267915564 50.235225219162849  5.0178845767687239 49.97804799389165  5.0054709126777519 49.726167953406708  4.9888580892700132 49.482457473856826  4.9679641884691259 49.250612462550883  4.9426978877438792 49.035582097770728  4.8893275179552393 48.692154740897109  4.8618924090697027 48.548884754697795  4.8310959331813477 48.425754439270328  4.7976007541287204 48.33116057256359  4.7622297007153058 48.270953315898581  4.7258567129405176 48.248590256280309  4.6894014375416742 48.265106341353835  4.6149757839288554 48.377605130293595  4.5790156573474166 48.477753893963161  4.5462670474067766 48.610965055046663  4.5169237739147796 48.770298865867794  4.4911046610367391 48.949783270398164  4.4688552086587716 49.144256475334586  4.4501518160342197 49.34924888342195  4.4171103433465158 49.80806216520255  4.4038281029798361 50.067125931658126  4.3950106772736923 50.333779165146161  4.3906334810384493 50.604627472734741  4.3906855414010595 50.876664395982878  4.395164491948381 51.146988809702052  4.4040826935046029 51.412544605894247  4.4286623511990522 51.884040952724916  4.4429635507842518 52.092683358514968  4.4604341539250072 52.293659526061219  4.4811411544151412 52.484444776863839  4.5051444645995629 52.661714376768735  4.5324834668091984 52.821193940055437  4.5631550685771307 52.957418689015206  4.6282043214015749 53.160489517410461  4.6620993663512902 53.232144671963013  4.6977629490087223 53.269791377561702  4.734074261672319 53.269152765386266  4.7698876138661124 53.22976354575637  4.8040679699451072 53.154803893577558  4.8355721798186364 53.051320931667505  4.905910861973676 52.747886054904058  4.9419628612001674 52.518114255483837  4.9716828212902788 52.257097171405931  4.9952237939111814 51.975195296249822  5.0127527831639886 51.679686904506909  5.0244257316943921 51.375667430255064  5.0303163005189013 51.066774250489772  5.0303163005189013 50.756250000000001 
 0 9 0.15449336899228311 7 0.27754240653929713 7 0.41158826148092786 7 0.56812626213763373 7 0.6986475776333283 7 0.81855396288647209 7 1 9
7 0 0  8 51 8  0 1.3977848404266604  0.10514292862792857 1.3977848404266604  0.20998444751736656 1.3874683734121376  0.31540517429440279 1.3669379721275747  0.42218807404193326 1.3368674718643154  0.53111383004959989 1.2985310777038244  0.64300157737666064 1.253964609995599  0.75877651883570663 1.2061569549932649  0.97591458165237222 1.1217459365190154  1.0793023969707969 1.0833316637037991  1.1874344760621134 1.0473864425119348  1.2988342571970111 1.0179460304080432  1.4124967615760973 0.99865354394734673  1.5276123477625974 0.99160779191447235  1.6434846186571659 0.99706697711483772  1.8854487781751028 1.0316704320817764  2.0054998819885679 1.0620261438631076  2.1205169026358024 1.100983858419516  2.231173930013667 1.1445374998781257  2.3379966273652091 1.1891347637990237  2.4413663954127505 1.23183503836008  2.5415978513882744 1.2704758364766531  2.7526109111734423 1.3423190983778079  2.8636387475596288 1.3739629244774159  2.9729368222694479 1.3961906091755616  3.0812469223507435 1.4075322065564511  3.189256551212023 1.4073323932483426  3.2976464571093427 1.3957140939803707  3.4071344614961578 1.3735806683357663  3.611510157688647 1.3168752037174811  3.7058556765198567 1.2849670221042011  3.802219136069986 1.2478938025038055  3.9011622374406643 1.2070277842359614  4.0032625280322476 1.1642463025543002  4.1091413629447766 1.1220721960949518  4.2195251135745515 1.0836980331994197  4.4418470067142986 1.0242814572113388  4.5530038631882483 1.0020627391815617  4.6665354625253066 0.98971371657498231  4.7808601764904637 0.98980154308682899  4.8945855426141325 1.002754959459627  5.0062611196898317 1.0264347546665518  5.1140400402764081 1.0570686950902366  5.3678858141358283 1.1411481305164008  5.5115451790907466 1.2003289607772949  5.6484213739333562 1.2595084612474781  5.7800989189531755 1.3121678210623926  5.9080359429663911 1.354208770563647  6.0335452998273986 1.3831681642204607  6.1580369946396285 1.3977848404266604  6.2831853071795862 1.3977848404266604 
 0 9 0.15449336899228311 7 0.27754240653929713 7 0.41158826148092786 7 0.56812626213763373 7 0.6986475776333283 7 0.81855396288647209 7 1 9
1 0 3.1749999999999998 1 0 
2 0 0 1 0 -0 1 11.112500000000001
1 6.2831853071795862 -0 0 1 
1 0 -0 0 1 
1 6.2831853071795862 -0 0 1 
1 0 -0 0 1 
1 0 0 1 0 
2 0 0 1 0 -0 1 11.112500000000001
Curves 9
1 -1.9441267936464232e-15 -23.8125 7.9375 0 1 0 
2 0 -23.8125 0 0 1 0 0 -0 1 1 0 -0 7.9375
2 0 33.337499999999999 0 0 1 0 0 -0 1 1 0 -0 7.9375
7 0 0  8 51 8  7.5397151595733352 26.943749999999998 2.4812500000000011  7.5397151595733352 26.682864103064247 2.4812500000000011  7.5500316257606661 26.422725234367782 2.4499007644330364  7.5705620296569238 26.165547978355544 2.3875185266696537  7.6006325274712569 25.913667952412336 2.2936823350361166  7.6389689205427409 25.66995748945325 2.1674782270811752  7.6835353922861369 25.438112449537634 2.0076250509973357  7.7313430440664286 25.223082101596379 1.8126907936370142  7.8157540634809726 24.879654740897152 1.3975584271024282  7.8541683362962358 24.736384754697674 1.1831468930754365  7.8901135574880215 24.613254439270502 0.94117090308975015  7.9195539695919628 24.51866057256348 0.67655600753649825  7.9388464560526923 24.458453315898549 0.39593024523718601  7.9458922080854872 24.436090256280391 0.10685851396384471  7.9404330228851752 24.452606341353796 -0.18268280620130462  7.905829567918218 24.565105130293613 -0.77242211047673881  7.8754738561369102 24.665253893962952 -1.0565654731076104  7.8365161415804323 24.798465055047284 -1.3139603360075345  7.7929625001219609 24.957798865866888 -1.5430313130626809  7.7483652362008995 25.137283270398886 -1.7432018668522256  7.705664961639954 25.331756475334306 -1.9146236293001453  7.6670241635233412 25.536748883421978 -2.0579804806840598  7.5951809016222036 25.995562165202468 -2.3102152168307155  7.5635370755225617 26.254625931658421 -2.4108229950265385  7.5413093908244528 26.521279165145788 -2.4771933479467889  7.529967793443558 26.79212747273472 -2.5100264044171912  7.5301676067516405 27.064164395983223 -2.5096618438209672  7.5417859060196308 27.334488809701753 -2.4760653628801723  7.5639193316642412 27.600044605894318 -2.4088067140525307  7.6206247962824749 28.071540952724561 -2.2221281042966354  7.6525329778959135 28.28018335851592 -2.1131836725653308  7.6896061974961283 28.481159526060555 -1.9795315129223248  7.7304722157639718 28.671944776863441 -1.8202646929897974  7.7732536974457593 28.849214376769389 -1.634459944214514  7.8154278039050693 29.008693940055291 -1.421367331578657  7.8538019668005532 29.144918689015121 -1.1807283929050609  7.9132185427886537 29.347989517410436 -0.66783002784126366  7.9354372608184631 29.419644671963574 -0.3995623573400926  7.9477862834249384 29.457291377560018 -0.11639048350885739  7.9476984569133355 29.45665276538865 0.17239946942334061  7.9347450405401547 29.417263545754455 0.45689321792892912  7.9110652453336057 29.342303893578428 0.72745192349078236  7.8804313049097114 29.23882093166732 0.97573518724465869  7.7963518694835798 28.93538605490399 1.5276811790667146  7.7371710392226358 28.705614255483187 1.808130297463526  7.6779915387527637 28.444597171408144 2.0368072323688109  7.6253321789373274 28.162695296246891 2.2161785101783362  7.5832912294365071 27.867186904508895 2.3488268406366153  7.5543318357795064 27.563167430254435 2.4368366257606375  7.5397151595733369 27.2542742504898 2.4812500000000011  7.5397151595733369 26.943750000000001 2.4812500000000011 
 0 9 0.15449337160652366 7 0.27754240877320835 7 0.41158826330047243 7 0.5681262634732569 7 0.69864757856529358 7 0.818553963447475 7 1 9
7 0 0  8 51 8  -7.5397151595733396 26.943749999999998 2.4812499999999975  -7.5397151595733396 26.682864108341956 2.4812499999999975  -7.5500316265878613 26.42272521916286 2.4499007608406145  -7.5705620278724268 26.165547993891661 2.3875185346009742  -7.6006325281356855 25.913667953406698 2.2936823318059041  -7.6389689222961765 25.669957473856815 2.1674782193176814  -7.6835353900044003 25.438112462550876 2.00762506167968  -7.7313430450067342 25.223082097770732 1.8126907890125981  -7.815754063480985 24.879654740897109 1.3975584271023722  -7.8541683362962011 24.736384754697795 1.1831468930757798  -7.890113557488065 24.613254439270328 0.94117090308871898  -7.9195539695919575 24.518660572563586 0.67655600753808631  -7.9388464560526533 24.458453315898581 0.39593024523578357  -7.9458922080855272 24.436090256280306 0.10685851396458546  -7.9404330228851618 24.452606341353835 -0.18268280620151334  -7.9058295679182233 24.565105130293592 -0.77242211047662224  -7.8754738561368924 24.665253893963161 -1.0565654731082421  -7.8365161415804838 24.798465055046666 -1.3139603360060843  -7.7929625001218747 24.957798865867797 -1.5430313130644504  -7.7483652362009758 25.137283270398164 -1.7432018668510485  -7.7056649616399202 25.331756475334583 -1.9146236293005146  -7.6670241635233474 25.536748883421946 -2.0579804806840416  -7.5951809016221912 25.995562165202546 -2.3102152168307613  -7.5635370755225839 26.254625931658119 -2.410822995026459  -7.5413093908244377 26.521279165146158 -2.4771933479468204  -7.5299677934435501 26.792127472734741 -2.510026404417244  -7.5301676067516556 27.064164395982878 -2.5096618438209366  -7.5417859060196299 27.334488809702041 -2.4760653628801421  -7.563919331664235 27.600044605894237 -2.4088067140525635  -7.6206247962825175 28.071540952724899 -2.2221281042964969  -7.652532977895798 28.280183358514975 -2.113183672565679  -7.689606197496194 28.481159526061223 -1.9795315129222009  -7.7304722157640393 28.671944776863839 -1.8202646929894908  -7.7732536974456998 28.849214376768749 -1.6344599442146237  -7.8154278039050471 29.008693940055448 -1.4213673315789417  -7.8538019668005807 29.144918689015213 -1.1807283929048318  -7.9132185427886608 29.347989517410461 -0.6678300278412046  -7.9354372608184383 29.419644671963013 -0.39956235734020762  -7.9477862834250175 29.457291377561702 -0.11639048350891779  -7.9476984569131712 29.456652765386263 0.17239946942433004  -7.9347450405403732 29.41726354575637 0.4568932179271723  -7.9110652453334485 29.342303893577562 0.72745192349200849  -7.880431304909763 29.238820931667505 0.97573518724431629  -7.7963518694835994 28.935386054904058 1.5276811790665885  -7.7371710392227051 28.705614255483837 1.8081302974633369  -7.6779915387525222 28.444597171405928 2.0368072323696227  -7.6253321789376072 28.162695296249822 2.2161785101774836  -7.5832912294363535 27.867186904506909 2.348826840636967  -7.5543318357795393 27.563167430255067 2.4368366257606011  -7.5397151595733396 27.254274250489772 2.4812499999999975  -7.5397151595733396 26.943750000000001 2.4812499999999975 
 0 9 0.15449336899228311 7 0.27754240653929713 7 0.41158826148092786 7 0.56812626213763373 7 0.6986475776333283 7 0.81855396288647209 7 1 9
2 0 -23.8125 0 0 1 0 0 -0 1 1 0 -0 11.112500000000001
1 -8.9375 26.943750000000001 2.4812500000000002 1 0 0 
1 -2.7217775111049928e-15 -26.987500000000001 11.112500000000001 0 1 0 
2 0 -26.987500000000001 0 0 1 0 0 -0 1 1 0 -0 11.112500000000001
Polygon3D 0
PolygonOnTriangulations 0
Surfaces 7
2 0 -23.8125 0 0 1 0 0 -0 1 1 0 -0 7.9375
1 0 -23.8125 0 0 1 0 0 -0 1 1 0 -0 
1 0 33.337499999999999 0 0 1 0 0 -0 1 1 0 -0 
2 -8.9375 26.943750000000001 0 1 0 0 -0 0 1 0 -1 0 2.4812500000000002
1 0 -23.8125 0 0 1 0 0 -0 1 1 0 -0 
2 0 -26.987500000000001 0 0 1 0 0 -0 1 1 0 -0 11.112500000000001
1 0 -26.987500000000001 0 0 1 0 0 -0 1 1 0 -0 
Triangulations 0

TShapes 34
Ve
1e-07
-1.94412679364642e-15 -23.8125 7.9375
0 0

0101101
*
Ve
1e-07
-1.94412679364642e-15 33.3375 7.9375
0 0

0101101
*
Ed
 1e-07 1 1 0
1  1 0 0 57.15
3  1 2CN 1 0 0 57.15
0

0101000
+34 0 -33 0 *
Ed
 1e-07 1 1 0
1  2 0 0 6.28318530717959
2  3 1 0 0 6.28318530717959
2  4 2 0 0 6.28318530717959
0

0101000
+34 0 -34 0 *
Ed
 1e-07 1 1 0
1  3 0 0 6.28318530717959
2  5 1 0 0 6.28318530717959
2  6 3 0 0 6.28318530717959
0

0101000
+33 0 -33 0 *
Wi

0101100
+32 0 +31 0 -32 0 -30 0 *
Ve
1.00000004070145e-07
7.53971515957334 26.94375 2.48125
0 0

0101101
*
Ed
 1e-07 1 1 0
1  4 0 0 1
2  7 1 0 0 1
2  8 4 0 0 1
0

0101100
+28 0 -28 0 *
Wi

0101100
-27 0 *
Ve
1.00000004782987e-07
-7.53971515957334 26.94375 2.48125
0 0

0101101
*
Ed
 1e-07 1 1 0
1  5 0 0 1
2  9 1 0 0 1
2  10 4 0 0 1
0

0101100
+25 0 -25 0 *
Wi

0101100
+24 0 *
Fa
0  1e-07 1 0

0101000
+29 0 +26 0 +23 0 *
Ve
1e-07
-2.72177751110499e-15 -23.8125 11.1125
0 0

0101101
*
Ed
 1e-07 1 1 0
1  6 0 0 6.28318530717959
2  11 6 0 0 6.28318530717959
2  12 5 0 0 6.28318530717959
0

0101000
+21 0 -21 0 *
Wi

0101100
+20 0 *
Wi

0101100
-31 0 *
Fa
0  1e-07 5 0

0101000
+19 0 +18 0 *
Wi

0101100
+30 0 *
Fa
0  1e-07 3 0

0111000
+16 0 *
Ed
 1e-07 1 1 0
1  7 0 1.39778484042666 16.4772151595733
3  13 14CN 4 0 1.39778484042666 16.4772151595733
0

0101000
+25 0 -28 0 *
Wi

0101100
-27 0 +14 0 +24 0 -14 0 *
Fa
0  1e-07 4 0

0101000
+13 0 *
Ve
1e-07
-2.72177751110499e-15 -26.9875 11.1125
0 0

0101101
*
Ed
 1e-07 1 1 0
1  8 0 0 3.175
3  15 16CN 6 0 0 3.175
0

0101000
-21 0 +11 0 *
Ed
 1e-07 1 1 0
1  9 0 0 6.28318530717959
2  17 6 0 0 6.28318530717959
2  18 7 0 0 6.28318530717959
0

0101000
+11 0 -11 0 *
Wi

0101100
-20 0 +10 0 +9 0 -10 0 *
Fa
0  1e-07 6 0

0111000
+8 0 *
Wi

0101100
-9 0 *
Fa
0  1e-07 7 0

0111000
-6 0 *
Sh

0101100
+22 0 +17 0 +15 0 -12 0 +7 0 -5 0 *
So

0100000
+4 0 *
Co

0100000
+3 0 *
Co

1100000
+2 0 *

+1 0 