DBRep_DrawableShape

CASCADE Topology V1, (c) Matra-Datavision
Locations 6
1
              1               0               0               0 
              0               1               0               0 
              0               0               1               0 
1
              1               0               0               0 
              0               1               0               0 
              0               0               1               0 
2  2 -1 0
1
              1               0               0               0 
              0               1               0               0 
              0               0               1             0.4 
2  4 -1 0
2  2 -1 4 -1 0
Curve2ds 148
1 6.2831853071795862 -0 0 1 
1 0 -0 0 1 
1 0 0 1 0 
2 0 0 1 0 -0 1 84.5
1 3.3635516149847606 0 0 1 
1 20.395199962712553 0 0 -1 
1 0 0.40000000000000002 1 0 
2 0 0 1 0 -0 1 84.5
1 0 0.40000000000000002 1 0 
2 0 0 1 0 -0 1 84.5
1 2.9196336921948256 0 0 1 
1 12.380553270432216 0 0 -1 
1 0 0 1 0 
2 0 0 1 0 -0 1 84.5
1 -98.780458310998554 -6.4146097571718874 0.80182621964648593 -0.5975572888748204 
1 -98.780458310998554 -6.4146097571718874 0.80182621964648593 -0.5975572888748204 
1 -72.5 -26 0 1 
1 -72.5 -26 0 1 
2 -72 -9 1 0 -0 1 4.75
1 0 1 1 0 
1 -72.5 26 -0.80182621964648593 -0.5975572888748204 
1 -72.5 26 -0.80182621964648593 -0.5975572888748204 
2 -72 -9 1 0 -0 1 4.75
1 0 1 1 0 
1 -72.5 -26 0 1 
1 -72.5 -26 0 1 
1 -72.5 -26 0 1 
1 -72.5 -26 0 1 
2 -72 9 1 0 -0 1 4.75
1 0 1 1 0 
2 -72 9 1 0 -0 1 4.75
1 0 1 1 0 
2 -62.698817064058439 -45.553357052666662 1 0 -0 1 3.25
1 0 18.262499999999999 1 0 
2 -23.948817064058435 -73.706880012874393 1 0 -0 1 3.25
1 0 18.262499999999999 1 0 
2 23.94881706405841 -73.706880012874407 1 0 -0 1 3.25
1 0 18.262499999999999 1 0 
2 62.698817064058417 -45.553357052666684 1 0 -0 1 3.25
1 0 18.262499999999999 1 0 
2 0 0 1 0 -0 1 65.5
1 0 1 1 0 
2 -62.698817064058417 45.553357052666676 1 0 -0 1 3.25
1 0 18.262499999999999 1 0 
2 -23.948817064058417 73.706880012874407 1 0 -0 1 3.25
1 0 18.262499999999999 1 0 
2 77.5 0 1 0 -0 1 3.25
1 0 18.262499999999999 1 0 
2 23.948817064058428 73.706880012874393 1 0 -0 1 3.25
1 0 18.262499999999999 1 0 
2 62.698817064058424 45.553357052666669 1 0 -0 1 3.2500000000000071
1 0 18.262499999999999 1 0 
1 0 0 1 0 
1 -16.643261562824961 -6.4146097571718874 0.80182621964648593 -0.5975572888748204 
1 0 -0.40000000000000002 1 0 
1 -16.643261562824961 -6.4146097571718874 0.80182621964648593 -0.5975572888748204 
1 0 0 0 -1 
1 1.8606902468359541 0 0 -1 
1 -98.780458310998554 -6.4146097571718874 0.80182621964648593 -0.5975572888748204 
1 -98.780458310998554 -6.4146097571718874 0.80182621964648593 -0.5975572888748204 
1 -72.5 -26 0 1 
1 -72.5 -26 0 1 
2 -72 -9 1 0 -0 1 4.75
1 0 1.3999999999999999 1 0 
1 -72.5 26 -0.80182621964648593 -0.5975572888748204 
1 -72.5 26 -0.80182621964648593 -0.5975572888748204 
2 -72 -9 1 0 -0 1 4.75
1 0 1.3999999999999999 1 0 
1 -72.5 -26 0 1 
1 -72.5 -26 0 1 
1 -72.5 -26 0 1 
1 -72.5 -26 0 1 
2 -72 9 1 0 -0 1 4.75
1 0 1.3999999999999999 1 0 
2 -72 9 1 0 -0 1 4.75
1 0 1.3999999999999999 1 0 
2 -62.698817064058439 -45.553357052666662 1 0 -0 1 3.25
1 0 18.662499999999998 1 0 
2 -23.948817064058435 -73.706880012874393 1 0 -0 1 3.25
1 0 18.662499999999998 1 0 
2 23.94881706405841 -73.706880012874407 1 0 -0 1 3.25
1 0 18.662499999999998 1 0 
2 62.698817064058417 -45.553357052666684 1 0 -0 1 3.25
1 0 18.662499999999998 1 0 
2 0 0 1 0 -0 1 65.5
1 0 1.3999999999999999 1 0 
2 -62.698817064058417 45.553357052666676 1 0 -0 1 3.25
1 0 18.662499999999998 1 0 
2 -23.948817064058417 73.706880012874407 1 0 -0 1 3.25
1 0 18.662499999999998 1 0 
2 77.5 0 1 0 -0 1 3.25
1 0 18.662499999999998 1 0 
2 23.948817064058428 73.706880012874393 1 0 -0 1 3.25
1 0 18.662499999999998 1 0 
2 62.698817064058424 45.553357052666669 1 0 -0 1 3.2500000000000071
1 0 18.662499999999998 1 0 
1 0 0 1 0 
1 9.6371967481735936 26 -0.80182621964648593 -0.5975572888748204 
1 32.775753233144769 0 0 -1 
1 0 0 0 -1 
1 0 -0.40000000000000002 1 0 
1 9.6371967481735936 26 -0.80182621964648593 -0.5975572888748204 
2 -72 -9 1 0 -0 1 4.75
1 0 1 1 0 
2 0 0 1 0 -0 1 84.5
2 82.137196748173594 0 1 0 -0 1 84.5
2 -72 9 1 0 -0 1 4.75
1 0 1 1 0 
1 0 1.3999999999999999 1 0 
2 -72 -9 1 0 -0 1 4.75
1 6.2831853071795862 -0 0 1 
1 0 -0 0 1 
1 0 1.3999999999999999 1 0 
2 -72 9 1 0 -0 1 4.75
1 6.2831853071795862 -0 0 1 
1 0 -0 0 1 
1 6.2831853071795862 -0 0 1 
1 0 -0 0 1 
1 6.2831853071795862 -0 0 1 
1 0 -0 0 1 
1 6.2831853071795862 -0 0 1 
1 0 -0 0 1 
1 6.2831853071795862 -0 0 1 
1 0 -0 0 1 
1 6.2831853071795862 -0 0 1 
1 0 -0 0 1 
1 6.2831853071795862 -0 0 1 
1 0 -0 0 1 
1 6.2831853071795862 -0 0 1 
1 0 -0 0 1 
1 6.2831853071795862 -0 0 1 
1 0 -0 0 1 
1 6.2831853071795862 -0 0 1 
1 0 -0 0 1 
1 6.2831853071795862 -0 0 1 
1 0 -0 0 1 
2 -11.862803251826406 0 -0.59755728887481963 0.80182621964648637 -0.80182621964648637 -0.59755728887481963 7.9999999999999973
1 0 0 1 0 
2 -11.862803251826406 0 1 0 -0 1 3.25
1 0 18.262499999999999 1 0 
2 82.137196748173594 0 1 0 -0 1 84.5
2 0 0 1 0 -0 1 84.5
2 -11.862803251826406 0 -0.59755728887481963 0.80182621964648637 -0.80182621964648637 -0.59755728887481963 7.9999999999999973
1 0 -0.40000000000000002 1 0 
2 -11.862803251826406 0 1 0 -0 1 3.25
1 0 18.662499999999998 1 0 
1 6.2831853071795862 -0 0 1 
1 0 -0 0 1 
Curves 74
1 84.5 -2.07e-14 0 0 0 1 
2 0 0 0 0 0 1 1 0 -0 -0 1 0 84.5
1 -82.427052225962612 -18.601910152950246 0 0 0 1 
2 0 0 0.40000000000000002 0 0 1 1 0 -0 -0 1 0 84.5
2 0 0 0.40000000000000002 0 0 1 1 0 -0 -0 1 0 84.5
1 -82.427052225962612 18.601910152950246 0 0 0 1 
2 0 0 0 0 0 1 1 0 -0 -0 1 0 84.5
1 -98.780458310998554 -6.4146097571718874 0 0.80182621964648593 -0.5975572888748204 0 
1 -72.5 -26 0 0 1 0 
2 -72 -9 0 0 0 1 1 0 -0 -0 1 0 4.75
1 -72.5 26 0 -0.80182621964648593 -0.5975572888748204 0 
2 -72 -9 0 0 0 1 1 0 -0 -0 1 0 4.75
1 -72.5 -26 0 0 1 0 
1 -72.5 -26 0 0 1 0 
2 -72 9 0 0 0 1 1 0 -0 -0 1 0 4.75
2 -72 9 0 0 0 1 1 0 -0 -0 1 0 4.75
2 -62.698817064058439 -45.553357052666662 0 0 0 1 1 0 -0 -0 1 0 3.25
2 -23.948817064058435 -73.706880012874393 0 0 0 1 1 0 -0 -0 1 0 3.25
2 23.94881706405841 -73.706880012874407 0 0 0 1 1 0 -0 -0 1 0 3.25
2 62.698817064058417 -45.553357052666684 0 0 0 1 1 0 -0 -0 1 0 3.25
2 0 0 0 0 0 1 1 0 -0 -0 1 0 65.5
2 -62.698817064058417 45.553357052666676 0 0 0 1 1 0 -0 -0 1 0 3.25
2 -23.948817064058417 73.706880012874407 0 0 0 1 1 0 -0 -0 1 0 3.25
2 77.5 0 0 0 0 1 1 0 -0 -0 1 0 3.25
2 23.948817064058428 73.706880012874393 0 0 0 1 1 0 -0 -0 1 0 3.25
2 62.698817064058424 45.553357052666669 0 0 0 1 1 0 -0 -0 1 0 3.25
1 -98.780458310998554 -6.4146097571718874 0 0.80182621964648593 -0.5975572888748204 0 
1 -98.780458310998554 -6.4146097571718874 0 0.80182621964648593 -0.5975572888748204 0 
1 -98.780458310998554 -6.4146097571718883 0 0 0 1 
1 -98.780458310998554 -6.4146097571718874 0 0.80182621964648593 -0.5975572888748204 0 
1 -72.5 -26 0 0 1 0 
2 -72 -9 0.39999999999999991 0 0 1 1 0 -0 -0 1 0 4.75
1 -72.5 26 0 -0.80182621964648593 -0.5975572888748204 0 
2 -72 -9 0.39999999999999991 0 0 1 1 0 -0 -0 1 0 4.75
1 -72.5 -26 0 0 1 0 
1 -72.5 -26 0 0 1 0 
2 -72 9 0.39999999999999991 0 0 1 1 0 -0 -0 1 0 4.75
2 -72 9 0.39999999999999991 0 0 1 1 0 -0 -0 1 0 4.75
2 -62.698817064058439 -45.553357052666662 0.39999999999999858 0 0 1 1 0 -0 -0 1 0 3.25
2 -23.948817064058435 -73.706880012874393 0.39999999999999858 0 0 1 1 0 -0 -0 1 0 3.25
2 23.94881706405841 -73.706880012874407 0.39999999999999858 0 0 1 1 0 -0 -0 1 0 3.25
2 62.698817064058417 -45.553357052666684 0.39999999999999858 0 0 1 1 0 -0 -0 1 0 3.25
2 0 0 0.39999999999999991 0 0 1 1 0 -0 -0 1 0 65.5
2 -62.698817064058417 45.553357052666676 0.39999999999999858 0 0 1 1 0 -0 -0 1 0 3.25
2 -23.948817064058417 73.706880012874407 0.39999999999999858 0 0 1 1 0 -0 -0 1 0 3.25
2 77.5 0 0.39999999999999858 0 0 1 1 0 -0 -0 1 0 3.25
2 23.948817064058428 73.706880012874393 0.39999999999999858 0 0 1 1 0 -0 -0 1 0 3.25
2 62.698817064058424 45.553357052666669 0.39999999999999858 0 0 1 1 0 -0 -0 1 0 3.25
1 -72.5 26 0 -0.80182621964648593 -0.5975572888748204 0 
1 -98.780458310998554 6.4146097571718883 0 0 0 1 
1 -72.5 26 0 -0.80182621964648593 -0.5975572888748204 0 
2 -72 -9 0 0 0 1 1 0 -0 -0 1 0 4.75
2 0 0 0 0 0 1 1 0 -0 -0 1 0 84.5
2 -72 9 0 0 0 1 1 0 -0 -0 1 0 4.75
2 -72 -9 0.39999999999999991 0 0 1 1 0 -0 -0 1 0 4.75
1 -67.25 -9.0000000000000018 -1 0 0 1 
2 -72 9 0.39999999999999991 0 0 1 1 0 -0 -0 1 0 4.75
1 -67.25 8.9999999999999982 -1 0 0 1 
1 -59.448817064058439 -45.553357052666662 -18.262499999999999 0 0 1 
1 -20.698817064058435 -73.706880012874393 -18.262499999999999 0 0 1 
1 27.19881706405841 -73.706880012874407 -18.262499999999999 0 0 1 
1 65.948817064058417 -45.553357052666684 -18.262499999999999 0 0 1 
1 65.5 -1.604e-14 -1 0 0 1 
1 -59.448817064058417 45.553357052666676 -18.262499999999999 0 0 1 
1 -20.698817064058417 73.706880012874407 -18.262499999999999 0 0 1 
1 80.75 -7.9999999999999998e-16 -18.262499999999999 0 0 1 
1 27.198817064058428 73.706880012874393 -18.262499999999999 0 0 1 
1 65.948817064058431 45.553357052666669 -18.262499999999999 0 0 1 
2 -94 0 0 0 0 1 -0.59755728887481963 0.80182621964648637 0 -0.80182621964648637 -0.59755728887481963 0 7.9999999999999973
2 -94 0 0 0 0 1 1 0 -0 -0 1 0 3.25
2 0 0 0.40000000000000002 0 0 1 1 0 -0 -0 1 0 84.5
2 -94 0 0 0 0 1 -0.59755728887481963 0.80182621964648637 0 -0.80182621964648637 -0.59755728887481963 0 7.9999999999999973
2 -94 0 0.39999999999999858 0 0 1 1 0 -0 -0 1 0 3.25
1 -90.75 -7.9999999999999998e-16 -18.262499999999999 0 0 1 
Polygon3D 0
PolygonOnTriangulations 0
Surfaces 24
2 0 0 0 0 0 1 1 0 -0 -0 1 0 84.5
2 0 0 0 0 0 1 1 0 -0 -0 1 0 84.5
1 0 0 0 0 0 1 1 0 -0 -0 1 0 
1 -98.780458310998554 -6.4146097571718874 0 0.5975572888748204 0.80182621964648593 0 0.80182621964648593 -0.5975572888748204 0 0 0 -1 
1 0 0 0.40000000000000002 0 0 1 1 0 -0 -0 1 0 
1 -72.5 26 0 0.5975572888748204 -0.80182621964648593 0 -0.80182621964648593 -0.5975572888748204 0 0 -0 -1 
1 0 0 0 0 0 1 1 0 -0 -0 1 0 
2 -72 -9 -1 0 0 1 1 0 -0 -0 1 0 4.75
2 -72 9 -1 0 0 1 1 0 -0 -0 1 0 4.75
2 -62.698817064058439 -45.553357052666662 -18.262499999999999 0 0 1 1 0 -0 -0 1 0 3.25
2 -23.948817064058435 -73.706880012874393 -18.262499999999999 0 0 1 1 0 -0 -0 1 0 3.25
2 23.94881706405841 -73.706880012874407 -18.262499999999999 0 0 1 1 0 -0 -0 1 0 3.25
2 62.698817064058417 -45.553357052666684 -18.262499999999999 0 0 1 1 0 -0 -0 1 0 3.25
2 0 0 -1 0 0 1 1 0 -0 -0 1 0 65.5
2 -62.698817064058417 45.553357052666676 -18.262499999999999 0 0 1 1 0 -0 -0 1 0 3.25
2 -23.948817064058417 73.706880012874407 -18.262499999999999 0 0 1 1 0 -0 -0 1 0 3.25
2 77.5 0 -18.262499999999999 0 0 1 1 0 -0 -0 1 0 3.25
2 23.948817064058428 73.706880012874393 -18.262499999999999 0 0 1 1 0 -0 -0 1 0 3.25
2 62.698817064058424 45.553357052666669 -18.262499999999999 0 0 1 1 0 -0 -0 1 0 3.25
1 -82.137196748173594 0 0 0 0 1 1 0 -0 -0 1 0 
1 -82.137196748173594 0 0 0 0 1 1 0 -0 -0 1 0 
2 -94 0 0 -0 -0 -1 -0.59755728887481963 0.80182621964648637 0 -0.80182621964648637 -0.59755728887481963 0 7.9999999999999973
1 0 0 0.40000000000000002 0 0 1 1 0 -0 -0 1 0 
2 -94 0 -18.262499999999999 0 0 1 1 0 -0 -0 1 0 3.25
Triangulations 0

TShapes 194
Ve
1e-07
84.5 -2.1e-14 0.4
0 0

0101101
*
Ve
1e-07
84.5 -2.1e-14 0
0 0

0101101
*
Ed
 1e-07 1 1 0
1  1 0 0 0.4
2  1 1 0 0 0.4
2  2 2 0 0 0.4
4 CN 1 0 2 0
0

0101000
-194 3 +193 3 *
Ve
1.00001699e-07
-82.4270522259635 -18.6019101529488 0
0 0

0101101
*
Ed
 1e-07 1 1 0
1  2 0 3.36355161498474 6.28318530717959
2  3 1 0 3.36355161498474 6.28318530717959
2  4 3 0 3.36355161498474 6.28318530717959
0

0101000
+191 3 -193 3 *
Ve
1.00001699e-07
-82.4270522259635 -18.6019101529488 0.4
0 0

0101101
*
Ed
 1e-07 1 1 0
1  3 0 0 0.4
2  5 1 0 0 0.4
2  6 4 0 0 0.4
0

0101000
+191 3 -189 3 *
Ed
 1e-07 1 1 0
1  4 0 3.36355161498474 6.28318530717959
2  7 1 0 3.36355161498474 6.28318530717959
2  8 5 0 3.36355161498474 6.28318530717959
0

0101000
+189 3 -194 3 *
Wi

0101100
+192 0 +190 0 -188 0 -187 0 *
Fa
0  1e-07 1 0

0111000
+186 0 *
Ve
1.0000169e-07
-82.4270522259635 18.6019101529488 0.4
0 0

0101101
*
Ed
 1e-07 1 1 0
1  5 0 0 2.91963369219485
2  9 2 0 0 2.91963369219485
2  10 5 0 0 2.91963369219485
0

0101000
+194 3 -184 3 *
Ve
1.0000169e-07
-82.4270522259635 18.6019101529488 0
0 0

0101101
*
Ed
 1e-07 1 1 0
1  6 0 0 0.4
2  11 2 0 0 0.4
2  12 6 0 0 0.4
0

0101000
+182 3 -184 3 *
Ed
 1e-07 1 1 0
1  7 0 0 2.91963369219485
2  13 2 0 0 2.91963369219485
2  14 3 0 0 2.91963369219485
0

0101000
+193 3 -182 3 *
Wi

0101100
-183 0 +181 0 +180 0 -192 0 *
Fa
0  1e-07 2 0

0111000
+179 0 *
Ve
1e-07
-72.5 -26 0
0 0

0101101
*
Ed
 1e-07 1 1 0
1  8 0 20.395199962711 32.7757532331448
2  15 3 0 20.395199962711 32.7757532331448
2  16 7 0 20.395199962711 32.7757532331448
0

0101000
+191 3 -177 3 *
Ve
1e-07
-72.5 -13.7236109069228 0
0 0

0101101
*
Ed
 1e-07 1 1 0
1  9 0 0 12.2763890930772
2  17 3 0 0 12.2763890930772
2  18 7 0 0 12.2763890930772
0

0101000
+177 3 -175 3 *
Ve
1.00000002e-07
-67.25 -9 0
0 0

0101101
*
Ed
 1e-07 1 1 0
1  10 0 4.60693045498537 6.28318530717959
2  19 3 0 4.60693045498537 6.28318530717959
2  20 8 0 4.60693045498537 6.28318530717959
0

0101000
+175 3 -173 3 *
Ve
1e-07
-72.5 26 0
0 0

0101101
*
Ed
 1e-07 1 1 0
1  11 0 0 12.3805532704338
2  21 3 0 0 12.3805532704338
2  22 7 0 0 12.3805532704338
0

0101000
+171 3 -182 3 *
Ve
1.00000001e-07
-72.5 -4.2763890930772 0
0 0

0101101
*
Ed
 1e-07 1 1 0
1  12 0 0 1.67625485219421
2  23 3 0 0 1.67625485219421
2  24 8 0 0 1.67625485219421
0

0101000
+173 3 -169 3 *
Ve
1.00000004e-07
-72.5 13.7236109069228 0
0 0

0101101
*
Ed
 1e-07 1 1 0
1  13 0 39.7236109069228 52
2  25 3 0 39.7236109069228 52
2  26 7 0 39.7236109069228 52
0

0101000
+167 3 -171 3 *
Ve
1.00000003e-07
-72.5 4.27638909307721 0
0 0

0101101
*
Ed
 1e-07 1 1 0
1  14 0 21.7236109069228 30.2763890930772
2  27 3 0 21.7236109069228 30.2763890930772
2  28 7 0 21.7236109069228 30.2763890930772
0

0101000
+169 3 -165 3 *
Ve
1.00000002e-07
-67.25 9 0
0 0

0101101
*
Ed
 1e-07 1 1 0
1  15 0 0 1.67625485219421
2  29 3 0 0 1.67625485219421
2  30 9 0 0 1.67625485219421
0

0101000
+163 3 -167 3 *
Ed
 1e-07 1 1 0
1  16 0 4.60693045498537 6.28318530717959
2  31 3 0 4.60693045498537 6.28318530717959
2  32 9 0 4.60693045498537 6.28318530717959
0

0101000
+165 3 -163 3 *
Wi

0101100
-176 0 +190 0 -174 0 +180 0 -172 0 -170 0 -168 0 -166 0 -164 0 -162 0 
-161 0 *
Ve
1e-07
-59.4488170640584 -45.5533570526667 0
0 0

0101101
*
Ed
 1e-07 1 1 0
1  17 0 0 6.28318530717959
2  33 3 0 0 6.28318530717959
2  34 10 0 0 6.28318530717959
0

0101100
+159 3 -159 3 *
Wi

0101100
-158 0 *
Ve
1e-07
-20.6988170640584 -73.7068800128744 0
0 0

0101101
*
Ed
 1e-07 1 1 0
1  18 0 0 6.28318530717959
2  35 3 0 0 6.28318530717959
2  36 11 0 0 6.28318530717959
0

0101100
+156 3 -156 3 *
Wi

0101100
-155 0 *
Ve
1e-07
27.1988170640584 -73.7068800128744 0
0 0

0101101
*
Ed
 1e-07 1 1 0
1  19 0 0 6.28318530717959
2  37 3 0 0 6.28318530717959
2  38 12 0 0 6.28318530717959
0

0101100
+153 3 -153 3 *
Wi

0101100
-152 0 *
Ve
1e-07
65.9488170640584 -45.5533570526667 0
0 0

0101101
*
Ed
 1e-07 1 1 0
1  20 0 0 6.28318530717959
2  39 3 0 0 6.28318530717959
2  40 13 0 0 6.28318530717959
0

0101100
+150 3 -150 3 *
Wi

0101100
-149 0 *
Ve
1.00000016e-07
65.5 -1.6e-14 0
0 0

0101101
*
Ed
 1e-07 1 1 0
1  21 0 0 6.28318530717959
2  41 3 0 0 6.28318530717959
2  42 14 0 0 6.28318530717959
0

0101100
+147 3 -147 3 *
Wi

0101100
-146 0 *
Ve
1e-07
-59.4488170640584 45.5533570526667 0
0 0

0101101
*
Ed
 1e-07 1 1 0
1  22 0 0 6.28318530717959
2  43 3 0 0 6.28318530717959
2  44 15 0 0 6.28318530717959
0

0101100
+144 3 -144 3 *
Wi

0101100
-143 0 *
Ve
1e-07
-20.6988170640584 73.7068800128744 0
0 0

0101101
*
Ed
 1e-07 1 1 0
1  23 0 0 6.28318530717959
2  45 3 0 0 6.28318530717959
2  46 16 0 0 6.28318530717959
0

0101100
+141 3 -141 3 *
Wi

0101100
-140 0 *
Ve
1.00000001e-07
80.75 -1e-15 0
0 0

0101101
*
Ed
 1e-07 1 1 0
1  24 0 0 6.28318530717959
2  47 3 0 0 6.28318530717959
2  48 17 0 0 6.28318530717959
0

0101100
+138 3 -138 3 *
Wi

0101100
-137 0 *
Ve
1e-07
27.1988170640584 73.7068800128744 0
0 0

0101101
*
Ed
 1e-07 1 1 0
1  25 0 0 6.28318530717959
2  49 3 0 0 6.28318530717959
2  50 18 0 0 6.28318530717959
0

0101100
+135 3 -135 3 *
Wi

0101100
-134 0 *
Ve
1e-07
65.9488170640584 45.5533570526667 0
0 0

0101101
*
Ed
 1e-07 1 1 0
1  26 0 0 6.28318530717959
2  51 3 0 0 6.28318530717959
2  52 19 0 0 6.28318530717959
0

0101100
+132 3 -132 3 *
Wi

0101100
-131 0 *
Fa
0  1e-07 3 0

0111000
+160 0 +157 0 +154 0 +151 0 +148 0 +145 0 +142 0 +139 0 +136 0 +133 0 
+130 0 *
Ve
1e-07
-98.7804583109986 -6.41460975717189 0
0 0

0101101
*
Ed
 1e-07 1 1 0
1  27 0 0 20.395199962711
2  53 4 0 0 20.395199962711
2  54 20 0 0 20.395199962711
0

0101000
+128 3 -191 3 *
Ve
1e-07
-98.7804583109986 -6.41460975717189 0.4
0 0

0101101
*
Ed
 1e-07 1 1 0
1  28 0 0 20.395199962711
2  55 4 5 0 20.395199962711
2  56 21 0 0 20.395199962711
0

0101000
+126 6 -189 6 *
Ed
 1e-07 1 1 0
1  29 0 0 0.4
2  57 4 0 0 0.4
2  58 22 0 0 0.4
4 G1 4 0 22 0
0

0101000
+128 3 -126 3 *
Wi

0101100
-127 0 -188 0 +125 4 +124 0 *
Fa
0  1e-07 4 0

0111000
+123 0 *
Ve
1e-07
-72.5 -26 0.4
0 0

0101101
*
Ed
 1e-07 1 1 0
1  30 0 20.395199962711 32.7757532331448
2  59 5 5 20.395199962711 32.7757532331448
2  60 23 5 20.395199962711 32.7757532331448
0

0101000
+189 6 -121 6 *
Ve
1e-07
-72.5 -13.7236109069228 0.4
0 0

0101101
*
Ed
 1e-07 1 1 0
1  31 0 0 12.2763890930772
2  61 5 5 0 12.2763890930772
2  62 23 5 0 12.2763890930772
0

0101000
+121 6 -119 6 *
Ve
1.00000002e-07
-67.25 -9 0.4
0 0

0101101
*
Ed
 1e-07 1 1 0
1  32 0 4.60693045498537 6.28318530717959
2  63 5 0 4.60693045498537 6.28318530717959
2  64 8 0 4.60693045498537 6.28318530717959
0

0101000
+119 3 -117 3 *
Ve
1e-07
-72.5 26 0.4
0 0

0101101
*
Ed
 1e-07 1 1 0
1  33 0 0 12.3805532704338
2  65 5 5 0 12.3805532704338
2  66 23 5 0 12.3805532704338
0

0101000
+115 6 -184 6 *
Ve
1.00000001e-07
-72.5 -4.2763890930772 0.4
0 0

0101101
*
Ed
 1e-07 1 1 0
1  34 0 0 1.67625485219421
2  67 5 0 0 1.67625485219421
2  68 8 0 0 1.67625485219421
0

0101000
+117 3 -113 3 *
Ve
1.00000004e-07
-72.5 13.7236109069228 0.4
0 0

0101101
*
Ed
 1e-07 1 1 0
1  35 0 39.7236109069228 52
2  69 5 5 39.7236109069228 52
2  70 23 5 39.7236109069228 52
0

0101000
+111 6 -115 6 *
Ve
1.00000003e-07
-72.5 4.27638909307721 0.4
0 0

0101101
*
Ed
 1e-07 1 1 0
1  36 0 21.7236109069228 30.2763890930772
2  71 5 5 21.7236109069228 30.2763890930772
2  72 23 5 21.7236109069228 30.2763890930772
0

0101000
+113 6 -109 6 *
Ve
1.00000002e-07
-67.25 9 0.4
0 0

0101101
*
Ed
 1e-07 1 1 0
1  37 0 0 1.67625485219421
2  73 5 0 0 1.67625485219421
2  74 9 0 0 1.67625485219421
0

0101000
+107 3 -111 3 *
Ed
 1e-07 1 1 0
1  38 0 4.60693045498537 6.28318530717959
2  75 5 0 4.60693045498537 6.28318530717959
2  76 9 0 4.60693045498537 6.28318530717959
0

0101000
+109 3 -107 3 *
Wi

0101100
-120 4 +187 0 -118 4 +183 0 -116 0 -114 4 -112 0 -110 4 -108 4 -106 0 
-105 0 *
Ve
1e-07
-59.4488170640584 -45.5533570526667 0.399999999999999
0 0

0101101
*
Ed
 1e-07 1 1 0
1  39 0 0 6.28318530717959
2  77 5 0 0 6.28318530717959
2  78 10 0 0 6.28318530717959
0

0101100
+103 3 -103 3 *
Wi

0101100
-102 0 *
Ve
1e-07
-20.6988170640584 -73.7068800128744 0.399999999999999
0 0

0101101
*
Ed
 1e-07 1 1 0
1  40 0 0 6.28318530717959
2  79 5 0 0 6.28318530717959
2  80 11 0 0 6.28318530717959
0

0101100
+100 3 -100 3 *
Wi

0101100
-99 0 *
Ve
1e-07
27.1988170640584 -73.7068800128744 0.399999999999999
0 0

0101101
*
Ed
 1e-07 1 1 0
1  41 0 0 6.28318530717959
2  81 5 0 0 6.28318530717959
2  82 12 0 0 6.28318530717959
0

0101100
+97 3 -97 3 *
Wi

0101100
-96 0 *
Ve
1e-07
65.9488170640584 -45.5533570526667 0.399999999999999
0 0

0101101
*
Ed
 1e-07 1 1 0
1  42 0 0 6.28318530717959
2  83 5 0 0 6.28318530717959
2  84 13 0 0 6.28318530717959
0

0101100
+94 3 -94 3 *
Wi

0101100
-93 0 *
Ve
1.00000016e-07
65.5 -1.6e-14 0.4
0 0

0101101
*
Ed
 1e-07 1 1 0
1  43 0 0 6.28318530717959
2  85 5 0 0 6.28318530717959
2  86 14 0 0 6.28318530717959
0

0101100
+91 3 -91 3 *
Wi

0101100
-90 0 *
Ve
1e-07
-59.4488170640584 45.5533570526667 0.399999999999999
0 0

0101101
*
Ed
 1e-07 1 1 0
1  44 0 0 6.28318530717959
2  87 5 0 0 6.28318530717959
2  88 15 0 0 6.28318530717959
0

0101100
+88 3 -88 3 *
Wi

0101100
-87 0 *
Ve
1e-07
-20.6988170640584 73.7068800128744 0.399999999999999
0 0

0101101
*
Ed
 1e-07 1 1 0
1  45 0 0 6.28318530717959
2  89 5 0 0 6.28318530717959
2  90 16 0 0 6.28318530717959
0

0101100
+85 3 -85 3 *
Wi

0101100
-84 0 *
Ve
1.00000001e-07
80.75 -1e-15 0.399999999999999
0 0

0101101
*
Ed
 1e-07 1 1 0
1  46 0 0 6.28318530717959
2  91 5 0 0 6.28318530717959
2  92 17 0 0 6.28318530717959
0

0101100
+82 3 -82 3 *
Wi

0101100
-81 0 *
Ve
1e-07
27.1988170640584 73.7068800128744 0.399999999999999
0 0

0101101
*
Ed
 1e-07 1 1 0
1  47 0 0 6.28318530717959
2  93 5 0 0 6.28318530717959
2  94 18 0 0 6.28318530717959
0

0101100
+79 3 -79 3 *
Wi

0101100
-78 0 *
Ve
1e-07
65.9488170640584 45.5533570526667 0.399999999999999
0 0

0101101
*
Ed
 1e-07 1 1 0
1  48 0 0 6.28318530717959
2  95 5 0 0 6.28318530717959
2  96 19 0 0 6.28318530717959
0

0101100
+76 3 -76 3 *
Wi

0101100
-75 0 *
Fa
0  1e-07 5 0

0111000
+104 0 +101 0 +98 0 +95 0 +92 0 +89 0 +86 0 +83 0 +80 0 +77 0 
+74 0 *
Ve
1.00000001e-07
-98.7804583109986 6.41460975717189 0
0 0

0101101
*
Ed
 1e-07 1 1 0
1  49 0 12.3805532704338 32.7757532331448
2  97 6 0 12.3805532704338 32.7757532331448
2  98 20 0 12.3805532704338 32.7757532331448
0

0101000
+182 3 -72 3 *
Ve
1.00000001e-07
-98.7804583109986 6.41460975717189 0.4
0 0

0101101
*
Ed
 1.00000001e-07 1 1 0
1  50 0 0 0.4
2  99 6 0 0 0.4
2  100 22 0 0 0.4
4 G1 6 0 22 0
0

0101000
+72 3 -70 3 *
Ed
 1e-07 1 1 0
1  51 0 12.3805532704338 32.7757532331448
2  101 6 5 12.3805532704338 32.7757532331448
2  102 21 0 12.3805532704338 32.7757532331448
0

0101000
+184 6 -70 6 *
Wi

0101100
-71 0 -69 0 +68 4 +181 0 *
Fa
0  1e-07 6 0

0111000
+67 0 *
Ed
 1e-07 1 1 0
1  52 0 1.67625485219421 4.60693045498537
2  103 7 0 1.67625485219421 4.60693045498537
2  104 8 0 1.67625485219421 4.60693045498537
0

0101000
+169 3 -175 3 *
Ed
 1e-07 1 1 0
1  53 0 2.91963369219485 3.36355161498474
2  105 7 0 2.91963369219485 3.36355161498474
2  106 20 0 2.91963369219485 3.36355161498474
0

0101000
+182 3 -191 3 *
Ed
 1e-07 1 1 0
1  54 0 1.67625485219421 4.60693045498537
2  107 7 0 1.67625485219421 4.60693045498537
2  108 9 0 1.67625485219421 4.60693045498537
0

0101000
+167 3 -165 3 *
Wi

0101100
-65 0 +174 0 +176 0 +64 0 +170 0 +166 0 -63 0 +164 0 *
Fa
0  1e-07 7 0

0111000
+62 0 *
Ed
 1e-07 1 1 0
1  55 0 1.67625485219421 4.60693045498537
2  109 8 0 1.67625485219421 4.60693045498537
2  110 23 0 1.67625485219421 4.60693045498537
0

0101000
+113 3 -119 3 *
Ed
 1e-07 1 1 0
1  56 0 1 1.4
3  111 112CN 8 0 1 1.4
0

0101000
+173 3 -117 3 *
Wi

0101100
-112 0 -60 0 -116 0 +59 0 +172 0 +65 0 +168 0 -59 0 *
Fa
0  1e-07 8 0

0111000
+58 0 *
Ed
 1e-07 1 1 0
1  57 0 1.67625485219421 4.60693045498537
2  113 9 0 1.67625485219421 4.60693045498537
2  114 23 0 1.67625485219421 4.60693045498537
0

0101000
+111 3 -109 3 *
Ed
 1e-07 1 1 0
1  58 0 1 1.4
3  115 116CN 9 0 1 1.4
0

0101000
+163 3 -107 3 *
Wi

0101100
-106 0 -56 0 -105 0 +55 0 +161 0 +63 0 +162 0 -55 0 *
Fa
0  1e-07 9 0

0111000
+54 0 *
Ed
 1e-07 1 1 0
1  59 0 18.2625 18.6625
3  117 118CN 10 0 18.2625 18.6625
0

0101000
+159 3 -103 3 *
Wi

0101100
-102 0 +52 0 +158 0 -52 0 *
Fa
0  1e-07 10 0

0111000
+51 0 *
Ed
 1e-07 1 1 0
1  60 0 18.2625 18.6625
3  119 120CN 11 0 18.2625 18.6625
0

0101000
+156 3 -100 3 *
Wi

0101100
-99 0 +49 0 +155 0 -49 0 *
Fa
0  1e-07 11 0

0111000
+48 0 *
Ed
 1e-07 1 1 0
1  61 0 18.2625 18.6625
3  121 122CN 12 0 18.2625 18.6625
0

0101000
+153 3 -97 3 *
Wi

0101100
-96 0 +46 0 +152 0 -46 0 *
Fa
0  1e-07 12 0

0111000
+45 0 *
Ed
 1e-07 1 1 0
1  62 0 18.2625 18.6625
3  123 124CN 13 0 18.2625 18.6625
0

0101000
+150 3 -94 3 *
Wi

0101100
-93 0 +43 0 +149 0 -43 0 *
Fa
0  1e-07 13 0

0111000
+42 0 *
Ed
 1e-07 1 1 0
1  63 0 1 1.4
3  125 126CN 14 0 1 1.4
0

0101000
+147 3 -91 3 *
Wi

0101100
-90 0 +40 0 +146 0 -40 0 *
Fa
0  1e-07 14 0

0111000
+39 0 *
Ed
 1e-07 1 1 0
1  64 0 18.2625 18.6625
3  127 128CN 15 0 18.2625 18.6625
0

0101000
+144 3 -88 3 *
Wi

0101100
-87 0 +37 0 +143 0 -37 0 *
Fa
0  1e-07 15 0

0111000
+36 0 *
Ed
 1e-07 1 1 0
1  65 0 18.2625 18.6625
3  129 130CN 16 0 18.2625 18.6625
0

0101000
+141 3 -85 3 *
Wi

0101100
-84 0 +34 0 +140 0 -34 0 *
Fa
0  1e-07 16 0

0111000
+33 0 *
Ed
 1e-07 1 1 0
1  66 0 18.2625 18.6625
3  131 132CN 17 0 18.2625 18.6625
0

0101000
+138 3 -82 3 *
Wi

0101100
-81 0 +31 0 +137 0 -31 0 *
Fa
0  1e-07 17 0

0111000
+30 0 *
Ed
 1e-07 1 1 0
1  67 0 18.2625 18.6625
3  133 134CN 18 0 18.2625 18.6625
0

0101000
+135 3 -79 3 *
Wi

0101100
-78 0 +28 0 +134 0 -28 0 *
Fa
0  1e-07 18 0

0111000
+27 0 *
Ed
 1e-07 1 1 0
1  68 0 18.2625 18.6625
3  135 136CN 19 0 18.2625 18.6625
0

0101000
+132 3 -76 3 *
Wi

0101100
-75 0 +25 0 +131 0 -25 0 *
Fa
0  1e-07 19 0

0111000
+24 0 *
Ed
 1e-07 1 1 0
1  69 0 0 1.86069024683595
2  137 20 0 0 1.86069024683595
2  138 22 0 0 1.86069024683595
0

0101000
+72 3 -128 3 *
Wi

0101100
-64 0 +71 0 +127 0 +22 0 *
Ve
1.00000001e-07
-90.75 -1e-15 0
0 0

0101101
*
Ed
 1e-07 1 1 0
1  70 0 0 6.28318530717959
2  139 20 0 0 6.28318530717959
2  140 24 0 0 6.28318530717959
0

0101100
+20 3 -20 3 *
Wi

0101100
-19 0 *
Fa
0  1e-07 20 0

0111000
+21 0 +18 0 *
Ed
 1e-07 1 1 0
1  71 0 2.91963369219485 3.36355161498474
2  141 21 4 2.91963369219485 3.36355161498474
2  142 23 0 2.91963369219485 3.36355161498474
0

0101000
+184 3 -189 3 *
Ed
 1e-07 1 1 0
1  72 0 0 1.86069024683595
2  143 21 0 0 1.86069024683595
2  144 22 5 0 1.86069024683595
0

0101000
+70 6 -126 6 *
Wi

0101100
-16 0 +68 4 +125 4 +15 4 *
Ve
1.00000001e-07
-90.75 -1e-15 0.399999999999999
0 0

0101101
*
Ed
 1e-07 1 1 0
1  73 0 0 6.28318530717959
2  145 21 4 0 6.28318530717959
2  146 24 0 0 6.28318530717959
0

0101100
+13 3 -13 3 *
Wi

0101100
-12 0 *
Fa
0  1e-07 21 4

0111000
+14 0 +11 0 *
Wi

0101100
+69 0 -124 0 -22 0 +15 4 *
Fa
0  1e-07 22 0

0111000
+9 0 *
Wi

0101100
-60 0 +118 4 +120 4 +16 0 +114 4 +110 4 -56 0 +108 4 *
Fa
0  1e-07 23 0

0111000
+7 0 *
Ed
 1e-07 1 1 0
1  74 0 18.2625 18.6625
3  147 148CN 24 0 18.2625 18.6625
0

0101000
+20 3 -13 3 *
Wi

0101100
-12 0 +5 0 +19 0 -5 0 *
Fa
0  1e-07 24 0

0111000
+4 0 *
Sh

0101100
+185 0 +178 0 -129 0 -122 0 +73 0 -66 0 -61 0 -57 0 -53 0 -50 0 
-47 0 -44 0 -41 0 -38 0 -35 0 -32 0 -29 0 -26 0 -23 0 -17 0 
+10 0 -8 0 +6 0 -3 0 *
So

0100000
+2 0 *

+1 1 