DBRep_DrawableShape

CASCADE Topology V1, (c) Matra-Datavision
Locations 6
1
2.22044604925031e-16               0               1 -23.9488170640584 
              0               1               0 -73.7068800128744 
             -1               0 2.22044604925031e-16           -56.5 
1
              1               0               0               0 
              0               1               0               0 
              0               0               1               0 
2  2 -1 0
1
              1               0               0         3.96875 
              0               1               0               0 
              0               0               1               0 
2  4 -1 0
2  2 -1 4 -1 0
Curve2ds 48
1 0 0 0 -1 
1 6.4158048663697169 0 0 -1 
1 6.4158048663697169 0 0 -1 
1 0 0 0 -1 
1 0 0 1 0 
1 -1.7999999999999999e-16 -6.4158048663697169 0.86602540378443871 0.49999999999999994 
1 0 -3.96875 1 0 
1 -1.7999999999999999e-16 -6.4158048663697169 0.86602540378443871 0.49999999999999994 
1 0 0 0 -1 
1 6.4158048663697205 0 0 -1 
1 0 0 1 0 
1 -5.5562500000000004 -3.2079024331848593 0.86602540378443871 -0.49999999999999994 
1 0 -3.96875 1 0 
1 -5.5562500000000004 -3.2079024331848593 0.86602540378443871 -0.49999999999999994 
1 6.4158048663697169 0 0 -1 
1 0 0 0 -1 
1 0 0 1 0 
1 5.5562500000000004 -3.2079024331848593 1.4000000000000001e-16 1 
1 0 -3.96875 1 0 
1 5.5562500000000004 -3.2079024331848593 1.4000000000000001e-16 1 
1 5.5562500000000012 3.2079024331848571 -0.8660254037844386 0.50000000000000022 
1 0 0 1 0 
1 6.1000000000000005e-16 6.4158048663697169 -0.86602540378443882 -0.49999999999999978 
1 0 0 1 0 
1 -5.5562499999999986 3.2079024331848611 -2.8000000000000001e-16 -1 
1 0 0 1 0 
1 -5.5562499999999986 3.2079024331848611 -2.8000000000000001e-16 -1 
1 0 -3.96875 1 0 
1 5.5562500000000012 3.2079024331848571 -0.8660254037844386 0.50000000000000022 
1 0 -3.96875 1 0 
1 6.1000000000000005e-16 6.4158048663697169 -0.86602540378443882 -0.49999999999999978 
1 0 -3.96875 1 0 
2 -1.7999999999999999e-16 0 1 0 -0 1 3.1749999999999998
1 0 0 1 0 
1 0 0 0 -1 
1 6.4158048663697151 0 0 -1 
1 6.4158048663697178 0 0 -1 
1 0 0 0 -1 
1 6.2831853071795862 -0 0 1 
1 0 -0 0 1 
1 0 23.8125 1 0 
2 0 0 1 0 -0 1 3.1749999999999998
7 0 0  7 50 9  1.2920018739308829 18.049999999999997  1.2920018739308829 18.144151261565028  1.2958794450130142 18.238244638868334  1.3036264043800678 18.33053020666194  1.3151050790314476 18.419282772487197  1.3300560853446464 18.502814771881866  1.3481118568424384 18.579544979165806  1.3898184055106491 18.717689551633669  1.4142624049302122 18.781240850506585  1.4418293853164281 18.835752477486857  1.4719574467615 18.878797126492739  1.5039833853825335 18.908546552585012  1.5371878787736262 18.923749999999998  1.600445159712953 18.923750000000002  1.6300840802760865 18.911917771428417  1.6591979544528617 18.888268528270284  1.6872804654406084 18.853138245551328  1.7138212493151015 18.807175296452677  1.7383180625044938 18.751343465554619  1.7853085796193875 18.613748656389735  1.8064881773182102 18.531203634303189  1.8236345046743037 18.44161280024159  1.8365902041305351 18.346971678659745  1.8452571336359884 18.249061134200652  1.8495907796589104 18.149535858532854  1.8495907796589104 17.955848738434941  1.8457132085767836 17.861755361131728  1.8379662492097133 17.769469793337993  1.8264875745583449 17.680717227512755  1.8115365682451663 17.597185228118224  1.7934807967473396 17.520455020834131  1.7517742481335365 17.382310448546491  1.7273302485516522 17.318759149045562  1.6997632682895891 17.264247522969178  1.6696352069728109 17.221202873297937  1.6376092680534464 17.19145344744889  1.604404774868843 17.176249999999996  1.5411474938768424 17.176249999999996  1.5115085733136948 17.188082228571595  1.4823946991369386 17.211731471729696  1.4543121881491921 17.246861754448663  1.4277714042746796 17.292824703547343  1.4032745910853028 17.348656534445368  1.3562840739704114 17.486251343610245  1.3351044762715663 17.568796365696862  1.3179581489154959 17.658387199758369  1.30500244945927 17.753028321340206  1.2963355199537958 17.850938865799389  1.2920018739308829 17.95046414146713  1.2920018739308829 18.049999999999997 
 0 8 0.12982302137934346 6 0.26151727224173582 6 0.3776958246585681 6 0.50971287430885592 6 0.6345881901586532 6 0.76126342044321471 6 0.87301427336267279 6 1 8
7 0 0  7 50 9  0 6.9475934187104107  0.10775537804295365 6.9475934187104107  0.21544391947921968 6.9442059742999911  0.32310974694872596 6.9374351003523813  0.43080234807162926 6.9276972135139223  0.53854708592253442 6.9157863117989038  0.64631361988146019 6.9027310781365401  0.86320275648843148 6.8761666617484556  0.97604838390293558 6.8621982720048065  1.091461303125741 6.8487942139361468  1.2088888467847774 6.8373701738102204  1.328014149616642 6.8291841161179274  1.4486712080909956 6.8250000000000002  1.678533144551497 6.8250000000000011  1.7862329028816153 6.8282563601841391  1.8939173175335877 6.8347639802481126  2.0016148803587321 6.8441756928804045  2.1093460407211899 6.8557993228262077  2.217096492067578 6.8686914231512342  2.4471408163757773 6.8967975338080691  2.566547557200384 6.9117384225452287  2.6837360367200902 6.9252746078552807  2.7992988905360359 6.936234810989018  2.9137676812856674 6.9438066403543823  3.0276746466852331 6.9475934187104107  3.2493480316327825 6.9475934187104107  3.35703657306891 6.9442059742999973  3.4647024005386213 6.9374351003523698  3.572395001661484 6.9276972135139179  3.6801397395121711 6.9157863117989189  3.7879062734713309 6.9027310781365303  4.0047954097953626 6.8761666617830999  4.1176410380941233 6.8621982719180501  4.2330539564318288 6.8487942140214493  4.3504814999718633 6.8373701737758257  4.4696068037357488 6.8291841161211755  4.590263861489376 6.8250000000000002  4.8201257981412793 6.8250000000000011  4.9278255564714444 6.82825636018414  5.0355099711233544 6.8347639802481099  5.1432075339485044 6.8441756928804045  5.2509386943110261 6.8557993228262104  5.358689145657352 6.8686914231512324  5.5887334699655407 6.8967975338080674  5.7081402107902468 6.9117384225452367  5.82532869030985 6.9252746078552816  5.940891544125777 6.9362348109890126  6.0553603348755063 6.9438066403543832  6.1692673002750178 6.9475934187104107  6.2831853071795862 6.9475934187104107 
 0 8 0.12982302137934346 6 0.26151727224173582 6 0.3776958246585681 6 0.50971287430885592 6 0.6345881901586532 6 0.76126342044321471 6 0.87301427336267279 6 1 8
7 0 0  7 50 9  4.9911834332487031 18.049999999999997  4.9911834332487031 18.144151261565078  4.9873058621665738 18.238244638868263  4.9795589027995151 18.330530206661965  4.9680802281481391 18.419282772487236  4.9531292218349474 18.502814771881813  4.9350734503371418 18.579544979165831  4.8933669016689283 18.717689551633697  4.8689229022494267 18.781240850506467  4.8413559218630597 18.835752477487024  4.8112278604181835 18.878797126492621  4.7792019217969992 18.908546552585047  4.7459974284059721 18.923749999999998  4.6827401474666308 18.923750000000002  4.6531012269035079 18.911917771428417  4.6239873527267203 18.888268528270284  4.5959048417389718 18.853138245551328  4.5693640578644894 18.807175296452677  4.5448672446750917 18.751343465554619  4.4978767275601896 18.61374865638971  4.4766971298613836 18.531203634303242  4.4595508025052846 18.44161280024155  4.4465951030490478 18.34697167865972  4.4379281735436003 18.249061134200726  4.4335945275206763 18.149535858532818  4.4335945275206763 17.955848738434963  4.4374720986028056 17.861755361131724  4.4452190579698589 17.769469793338025  4.4566977326212447 17.680717227512741  4.4716487389344453 17.59718522811815  4.4897045104322215 17.520455020834213  4.5314110591004013 17.382310448366464  4.5558550585201392 17.31875914949304  4.5834220389060301 17.264247522513546  4.6135501003514712 17.221202873507035  4.6455760389721954 17.191453447415039  4.6787805323634712 17.176249999999996  4.7420378133027494 17.176249999999996  4.7716767338658812 17.188082228571584  4.8007906080426546 17.211731471729713  4.8288731190303986 17.246861754448656  4.8554139029048926 17.292824703547318  4.8799107160942912 17.348656534445389  4.9269012332091808 17.486251343610267  4.9480808309079967 17.568796365696766  4.9652271582640966 17.658387199758405  4.9781828577203315 17.75302832134027  4.98684978722578 17.850938865799328  4.9911834332487031 17.950464141467137  4.9911834332487031 18.049999999999997 
 0 8 0.12982302120790012 6 0.26151727189647656 6 0.37769582415993913 6 0.50971287363599038 6 0.63458818932099303 6 0.76126341976605161 6 0.87301427300244949 6 1 8
7 0 0  7 50 9  0 13.05240658128959  0.10775537804300997 13.05240658128959  0.21544391947914679 13.055794025700008  0.32310974694875622 13.06256489964762  0.43080234807166773 13.072302786486077  0.53854708592246636 13.084213688201091  0.64631361988149016 13.097268921863462  0.86320275648847922 13.123833338251551  0.97604838390267423 13.137801727995171  1.0914613031262075 13.15120578606388  1.2088888467843426 13.162629826189766  1.3280141496168603 13.170815883882076  1.4486712080909525 13.175000000000001  1.6785331445515048 13.174999999999999  1.7862329028815886 13.171743639815856  1.8939173175336066 13.165236019751891  2.0016148803587561 13.1558243071196  2.1093460407211699 13.144200677173789  2.2170964920675775 13.131308576848765  2.447140816375815 13.103202466191926  2.5665475572003129 13.088261577454778  2.6837360367201275 13.074725392144714  2.7992988905360643 13.063765189010976  2.9137676812855835 13.056193359645627  3.0276746466852762 13.052406581289588  3.2493480316327537 13.052406581289588  3.3570365730689611 13.055794025700008  3.4647024005385272 13.062564899647615  3.5723950016614738 13.072302786486079  3.6801397395123323 13.084213688201102  3.787906273471207 13.097268921863456  4.0047954100780094 13.123833338251519  4.1176410374934438 13.13780172799526  4.233053956714488 13.151205786063782  4.3504815003754942 13.16262982618982  4.4696068032058545 13.17081588388206  4.5902638616809801 13.175000000000001  4.8201257981413033 13.174999999999999  4.9278255564714115 13.171743639815858  5.0355099711233802 13.165236019751886  5.1432075339485195 13.155824307119598  5.2509386943109773 13.144200677173796  5.3586891456573875 13.131308576848763  5.5887334699655709 13.103202466191931  5.7081402107901189 13.088261577454782  5.8253286903098962 13.074725392144712  5.9408915441258614 13.063765189010978  6.0553603348754308 13.056193359645622  6.169267300275024 13.05240658128959  6.2831853071795862 13.05240658128959 
 0 8 0.12982302120790012 6 0.26151727189647656 6 0.37769582415993913 6 0.50971287363599038 6 0.63458818932099303 6 0.76126341976605161 6 0.87301427300244949 6 1 8
1 6.2831853071795862 -0 0 1 
1 0 -0 0 1 
Curves 24
1 -3.96875 6.4158048663697169 0 1 0 0 
1 -3.96875 3.2079024331848593 5.5562500000000004 1 0 0 
1 -3.96875 6.4158048663697169 0 0 -0.49999999999999994 0.86602540378443871 
1 -3.96875 6.4158048663697169 0 0 -0.49999999999999994 0.86602540378443871 
1 -3.96875 3.2079024331848593 -5.5562500000000004 1 0 0 
1 -3.96875 3.2079024331848593 -5.5562500000000004 0 0.49999999999999994 0.86602540378443871 
1 -3.96875 3.2079024331848593 -5.5562500000000004 0 0.49999999999999994 0.86602540378443871 
1 -3.96875 -3.2079024331848571 5.5562500000000012 1 0 0 
1 -3.96875 3.2079024331848593 5.5562500000000004 0 -1 1.4000000000000001e-16 
1 -3.96875 3.2079024331848593 5.5562500000000004 0 -1 1.4000000000000001e-16 
1 -3.96875 -3.2079024331848571 5.5562500000000012 0 -0.50000000000000022 -0.8660254037844386 
1 -3.96875 -6.4158048663697169 7.9000000000000002e-16 0 0.49999999999999978 -0.86602540378443882 
1 -3.96875 -3.2079024331848611 -5.5562499999999986 0 1 -2.8000000000000001e-16 
1 -3.96875 -3.2079024331848611 -5.5562499999999986 0 1 -2.8000000000000001e-16 
1 -3.96875 -3.2079024331848571 5.5562500000000012 0 -0.50000000000000022 -0.8660254037844386 
1 -3.96875 -6.4158048663697169 7.9000000000000002e-16 0 0.49999999999999978 -0.86602540378443882 
2 0 0 0 1 0 -0 0 0 1 0 -1 0 3.1749999999999998
1 -3.96875 -3.2079024331848611 -5.5562499999999986 1 0 0 
1 -3.96875 -6.4158048663697169 7.9000000000000002e-16 1 0 0 
1 0 7.7999999999999995e-16 3.1749999999999998 1 0 0 
2 23.8125 0 0 1 0 -0 0 0 1 0 -1 0 3.1749999999999998
7 0 0  7 50 9  18.049999999999997 -3.0524065812895889 0.87375000000000014  18.144151261565028 -3.0524065812895889 0.87375000000000014  18.238244638868334 -3.0557940257000089 0.86191332609180493  18.33053020666194 -3.0625648996476178 0.83826900148549688  18.419282772487197 -3.0723027864860777 0.80314545089121658  18.502814771881866 -3.0842136882010971 0.75717938882004965  18.579544979165806 -3.0972689218634599 0.70133541804319954  18.717689551633669 -3.1238333382515444 0.57160902965644889  18.781240850506585 -3.1378017279951931 0.4952490825572351  18.835752477486857 -3.1512057860638532 0.4087023341903846  18.878797126492739 -3.1626298261897801 0.31361724473598707  18.908546552585012 -3.170815883882073 0.21213093442019781  18.923749999999998 -3.1749999999999998 0.1067068224675336  18.923750000000002 -3.1750000000000003 -0.094135044514829569  18.911917771428417 -3.1717436398158609 -0.18823819889013602  18.888268528270284 -3.1652360197518874 -0.28054109557541873  18.853138245551328 -3.1558243071195955 -0.3692957477658827  18.807175296452677 -3.1442006771737927 -0.45281435828600369  18.751343465554619 -3.1313085768487658 -0.52953640943656854  18.613748656389735 -3.1032024661919304 -0.67605999898730218  18.531203634303189 -3.0882615774547695 -0.74166569351527856  18.44161280024159 -3.0747253921447188 -0.79441709187837983  18.346971678659745 -3.063765189010982 -0.83406770243677975  18.249061134200652 -3.0561933596456177 -0.86052161782185321  18.149535858532854 -3.0524065812895906 -0.87374999999999947  17.955848738434941 -3.0524065812895906 -0.87374999999999947  17.861755361131728 -3.0557940257000018 -0.86191332609183147  17.769469793337993 -3.0625648996476289 -0.83826900148545047  17.680717227512755 -3.0723027864860817 -0.80314545089120537  17.597185228118224 -3.0842136882010811 -0.75717938882011881  17.520455020834131 -3.0972689218634697 -0.70133541804315247  17.382310448546491 -3.1238333382168997 -0.57160902982563466  17.318759149045562 -3.1378017280819495 -0.49524908222317321  17.264247522969178 -3.1512057859785507 -0.40870233423303104  17.221202873297937 -3.1626298262241748 -0.31361724519922451  17.19145344744889 -3.1708158838788245 -0.21213093393092586  17.176249999999996 -3.1749999999999998 -0.10670682263478037  17.176249999999996 -3.1750000000000003 0.09413504451482084  17.188082228571595 -3.1717436398158587 0.18823819889017498  17.211731471729696 -3.1652360197518896 0.28054109557539275  17.246861754448663 -3.1558243071195955 0.36929574776585777  17.292824703547343 -3.1442006771737896 0.45281435828604355  17.348656534445368 -3.1313085768487672 0.52953640943655722  17.486251343610245 -3.1032024661919335 0.67605999898728353  17.568796365696862 -3.0882615774547628 0.74166569351532829  17.658387199758369 -3.0747253921447197 0.79441709187836163  17.753028321340206 -3.0637651890109869 0.83406770243674333  17.850938865799389 -3.0561933596456163 0.86052161782187941  17.95046414146713 -3.0524065812895889 0.87375000000000014  18.049999999999997 -3.0524065812895889 0.87375000000000014 
 0 8 0.12982302137934346 6 0.26151727224173582 6 0.3776958246585681 6 0.50971287430885592 6 0.6345881901586532 6 0.76126342044321471 6 0.87301427336267279 6 1 8
7 0 0  7 50 9  18.049999999999997 3.0524065812895906 0.87374999999999925  18.144151261565078 3.0524065812895906 0.87374999999999925  18.238244638868263 3.0557940257000071 0.86191332609180904  18.330530206661965 3.0625648996476214 0.83826900148548467  18.419282772487236 3.0723027864860781 0.80314545089121836  18.502814771881813 3.0842136882010918 0.75717938882007074  18.579544979165831 3.0972689218634635 0.701335418043181  18.717689551633697 3.1238333382515506 0.57160902965641991  18.781240850506467 3.1378017279951709 0.49524908255736533  18.835752477487024 3.1512057860638838 0.40870233419017243  18.878797126492621 3.1626298261897605 0.31361724473618746  18.908546552585047 3.1708158838820788 0.21213093442007203  18.923749999999998 3.1750000000000003 0.10670682246757046  18.923750000000002 3.1750000000000003 -0.094135044514837576  18.911917771428417 3.1717436398158592 -0.18823819889012464  18.888268528270284 3.1652360197518878 -0.28054109557542406  18.853138245551328 3.1558243071195955 -0.36929574776589325  18.807175296452677 3.1442006771737918 -0.45281435828599853  18.751343465554619 3.1313085768487658 -0.52953640943656877  18.61374865638971 3.103202466191926 -0.67605999898732683  18.531203634303242 3.0882615774547779 -0.74166569351524891  18.44161280024155 3.0747253921447149 -0.79441709187838083  18.34697167865972 3.0637651890109767 -0.83406770243679618  18.249061134200726 3.0561933596456248 -0.86052161782184144  18.149535858532818 3.0524065812895889 -0.87375000000000003  17.955848738434963 3.0524065812895889 -0.87375000000000003  17.861755361131724 3.0557940257000089 -0.86191332609181326  17.769469793338025 3.0625648996476165 -0.83826900148550032  17.680717227512741 3.0723027864860804 -0.8031454508912016  17.59718522811815 3.0842136882010993 -0.75717938882003633  17.520455020834213 3.0972689218634541 -0.70133541804322763  17.382310448366464 3.1238333382515182 -0.57160902965657778  17.31875914949304 3.1378017279952637 -0.49524908255680877  17.26424752251355 3.1512057860637754 -0.40870233419101853  17.221202873507035 3.1626298261898231 -0.313617244735381  17.191453447415039 3.1708158838820601 -0.21213093442063735  17.176249999999996 3.1750000000000003 -0.10670682246736751  17.176249999999996 3.1750000000000003 0.094135044514840407  17.188082228571584 3.1717436398158587 0.18823819889014898  17.211731471729713 3.1652360197518865 0.2805410955754134  17.246861754448656 3.1558243071195973 0.36929574776587065  17.292824703547318 3.1442006771737949 0.45281435828600541  17.348656534445389 3.1313085768487627 0.52953640943657976  17.486251343610267 3.1032024661919304 0.67605999898730285  17.568796365696766 3.0882615774547788 0.74166569351525435  17.658387199758405 3.0747253921447153 0.79441709187838472  17.75302832134027 3.0637651890109758 0.83406770243679296  17.850938865799328 3.0561933596456226 0.86052161782184278  17.950464141467137 3.0524065812895906 0.87374999999999925  18.049999999999997 3.0524065812895906 0.87374999999999925 
 0 8 0.12982302120790012 6 0.26151727189647656 6 0.37769582415993913 6 0.50971287363599038 6 0.63458818932099303 6 0.76126341976605161 6 0.87301427300244949 6 1 8
1 18.049999999999997 -10 0.87374999999999992 0 1 0 
Polygon3D 0
PolygonOnTriangulations 0
Surfaces 11
1 -3.96875 6.4158048663697169 0 0 -0.86602540378443871 -0.49999999999999994 0 -0.49999999999999994 0.86602540378443871 -1 -0 0 
1 -3.96875 3.2079024331848593 -5.5562500000000004 0 -0.86602540378443871 0.49999999999999994 0 0.49999999999999994 0.86602540378443871 -1 0 0 
1 -3.96875 3.2079024331848593 5.5562500000000004 0 -1.4000000000000001e-16 -1 0 -1 1.4000000000000001e-16 -1 -0 0 
1 -3.9687500000000009 0 1.7999999999999999e-16 1 0 0 0 0 1 0 -1 0 
1 -3.9687500000000009 0 1.7999999999999999e-16 1 0 0 0 0 1 0 -1 0 
1 -3.96875 -3.2079024331848611 -5.5562499999999986 0 2.8000000000000001e-16 1 0 1 -2.8000000000000001e-16 -1 0 0 
1 -3.96875 -3.2079024331848571 5.5562500000000012 0 0.8660254037844386 -0.50000000000000022 0 -0.50000000000000022 -0.8660254037844386 -1 0 -0 
1 -3.96875 -6.4158048663697169 7.9000000000000002e-16 0 0.86602540378443882 0.49999999999999978 0 0.49999999999999978 -0.86602540378443882 -1 0 0 
2 0 0 0 1 0 0 0 0 1 0 -1 0 3.1749999999999998
1 23.8125 0 0 1 0 0 0 0 1 0 -1 0 
2 18.049999999999997 -10 0 0 1 0 0 -0 1 1 0 -0 0.87374999999999992
Triangulations 0

TShapes 67
Ve
1e-07
-3.96875 6.41580486636972 0
0 0

0101101
*
Ve
1e-07
0 6.41580486636972 0
0 0

0101101
*
Ed
 1e-07 1 1 0
1  1 0 0 3.96875
2  1 1 0 0 3.96875
2  2 2 0 0 3.96875
0

0101000
+67 3 -66 3 *
Ve
1e-07
-3.96875 3.20790243318486 5.55625
0 0

0101101
*
Ve
1e-07
0 3.20790243318486 5.55625
0 0

0101101
*
Ed
 1e-07 1 1 0
1  2 0 0 3.96875
2  3 1 0 0 3.96875
2  4 3 0 0 3.96875
0

0101000
+64 3 -63 3 *
Ed
 1e-07 1 1 0
1  3 0 0 6.41580486636972
2  5 1 0 0 6.41580486636972
2  6 4 0 0 6.41580486636972
0

0101000
+67 3 -64 3 *
Ed
 1e-07 1 1 0
1  4 0 0 6.41580486636972
2  7 1 5 0 6.41580486636972
2  8 5 0 0 6.41580486636972
0

0101000
+66 6 -63 6 *
Wi

0101100
+65 0 -62 0 -61 0 +60 4 *
Fa
0  1e-07 1 0

0111000
+59 0 *
Ve
1e-07
-3.96875 3.20790243318486 -5.55625
0 0

0101101
*
Ve
1e-07
0 3.20790243318486 -5.55625
0 0

0101101
*
Ed
 1e-07 1 1 0
1  5 0 0 3.96875
2  9 2 0 0 3.96875
2  10 6 0 0 3.96875
0

0101000
+57 3 -56 3 *
Ed
 1e-07 1 1 0
1  6 0 0 6.41580486636972
2  11 2 0 0 6.41580486636972
2  12 4 0 0 6.41580486636972
0

0101000
+57 3 -67 3 *
Ed
 1e-07 1 1 0
1  7 0 0 6.41580486636972
2  13 2 5 0 6.41580486636972
2  14 5 0 0 6.41580486636972
0

0101000
+56 6 -66 6 *
Wi

0101100
+55 0 -65 0 -54 0 +53 4 *
Fa
0  1e-07 2 0

0111000
+52 0 *
Ve
1e-07
-3.96875 -3.20790243318486 5.55625
0 0

0101101
*
Ve
1e-07
0 -3.20790243318486 5.55625
0 0

0101101
*
Ed
 1e-07 1 1 0
1  8 0 0 3.96875
2  15 3 0 0 3.96875
2  16 7 0 0 3.96875
0

0101000
+50 3 -49 3 *
Ed
 1e-07 1 1 0
1  9 0 0 6.41580486636972
2  17 3 0 0 6.41580486636972
2  18 4 0 0 6.41580486636972
0

0101000
+64 3 -50 3 *
Ed
 1e-07 1 1 0
1  10 0 0 6.41580486636972
2  19 3 5 0 6.41580486636972
2  20 5 0 0 6.41580486636972
0

0101000
+63 6 -49 6 *
Wi

0101100
+62 0 -48 0 -47 0 +46 4 *
Fa
0  1e-07 3 0

0111000
+45 0 *
Ve
1e-07
-3.96875 -6.41580486636972 1e-15
0 0

0101101
*
Ed
 1e-07 1 1 0
1  11 0 0 6.41580486636972
2  21 4 0 0 6.41580486636972
2  22 7 0 0 6.41580486636972
0

0101000
+50 3 -43 3 *
Ve
1e-07
-3.96875 -3.20790243318486 -5.55625
0 0

0101101
*
Ed
 1e-07 1 1 0
1  12 0 0 6.41580486636971
2  23 4 0 0 6.41580486636971
2  24 8 0 0 6.41580486636971
0

0101000
+43 3 -41 3 *
Ed
 1e-07 1 1 0
1  13 0 0 6.41580486636972
2  25 4 0 0 6.41580486636972
2  26 6 0 0 6.41580486636972
0

0101000
+41 3 -57 3 *
Wi

0101100
+61 0 +47 0 +42 0 +40 0 +39 0 +54 0 *
Fa
0  1e-07 4 0

0111000
+38 0 *
Ve
1e-07
0 -3.20790243318486 -5.55625
0 0

0101101
*
Ed
 1e-07 1 1 0
1  14 0 0 6.41580486636972
2  27 5 0 0 6.41580486636972
2  28 6 5 0 6.41580486636972
0

0101000
+36 6 -56 6 *
Ve
1e-07
0 -6.41580486636972 1e-15
0 0

0101101
*
Ed
 1e-07 1 1 0
1  15 0 0 6.41580486636972
2  29 5 0 0 6.41580486636972
2  30 7 5 0 6.41580486636972
0

0101000
+49 6 -34 6 *
Ed
 1e-07 1 1 0
1  16 0 0 6.41580486636971
2  31 5 0 0 6.41580486636971
2  32 8 5 0 6.41580486636971
0

0101000
+34 6 -36 6 *
Wi

0101100
+60 4 +53 4 +46 4 +35 4 +33 4 +32 4 *
Ve
1.00000001e-07
0 1e-15 3.175
0 0

0101101
*
Ed
 1.00000001e-07 1 1 0
1  17 0 0 6.28318530717959
2  33 5 4 0 6.28318530717959
2  34 9 0 0 6.28318530717959
0

0101000
+30 3 -30 3 *
Wi

0101100
-29 0 *
Fa
0  1e-07 5 4

0111000
+31 0 +28 0 *
Ed
 1e-07 1 1 0
1  18 0 0 3.96875
2  35 6 0 0 3.96875
2  36 8 0 0 3.96875
0

0101000
+41 3 -36 3 *
Wi

0101100
+26 0 -55 0 -39 0 +35 4 *
Fa
0  1e-07 6 0

0111000
+25 0 *
Ed
 1e-07 1 1 0
1  19 0 0 3.96875
2  37 7 0 0 3.96875
2  38 8 0 0 3.96875
0

0101000
+43 3 -34 3 *
Wi

0101100
+48 0 -23 0 -42 0 +33 4 *
Fa
0  1e-07 7 0

0111000
+22 0 *
Wi

0101100
+23 0 -26 0 -40 0 +32 4 *
Fa
0  1e-07 8 0

0111000
+20 0 *
Ve
1e-07
23.8125 1e-15 3.175
0 0

0101101
*
Ed
 1e-07 1 1 0
1  20 0 0 23.8125
3  39 40CN 9 0 0 23.8125
0

0101000
+30 3 -18 3 *
Ed
 1e-07 1 1 0
1  21 0 0 6.28318530717959
2  41 9 0 0 6.28318530717959
2  42 10 0 0 6.28318530717959
0

0101000
+18 3 -18 3 *
Wi

0101100
+17 0 +29 0 -17 0 -16 0 *
Ve
1.00000001e-07
18.05 -3.05240658128959 0.87375
0 0

0101101
*
Ed
 1e-07 1 1 0
1  22 0 0 1
2  43 9 0 0 1
2  44 11 0 0 1
0

0101100
+14 3 -14 3 *
Wi

0101100
+13 0 *
Ve
1.00000001e-07
18.05 3.05240658128959 0.87375
0 0

0101101
*
Ed
 1e-07 1 1 0
1  23 0 0 1
2  45 9 0 0 1
2  46 11 0 0 1
0

0101100
+11 3 -11 3 *
Wi

0101100
-10 0 *
Fa
0  1e-07 9 0

0111000
+15 0 +12 0 +9 0 *
Wi

0101100
+16 0 *
Fa
0  1e-07 10 0

0111000
+7 0 *
Ed
 1e-07 1 1 0
1  24 0 6.94759341871041 13.0524065812896
3  47 48CN 11 0 6.94759341871041 13.0524065812896
0

0101000
+14 3 -11 3 *
Wi

0101100
-10 0 +5 0 +13 0 -5 0 *
Fa
0  1e-07 11 0

0111000
+4 0 *
Sh

0101100
-58 0 -51 0 -44 0 -37 0 +27 0 -24 0 -21 0 -19 0 +8 0 +6 0 
-3 0 *
So

0100000
+2 0 *

+1 1 