DBRep_DrawableShape

CASCADE Topology V1, (c) Matra-Datavision
Locations 0
Curve2ds 70
1 6.2831853071795862 0 0 1 
1 4.1389114358025836e-13 0 0 1 
1 0 63.063460101812915 1 0 
7 0 0  8 86 13  0 47.491437679132233  0.01307534848822 47.491437679132233  0.026152808630220001 47.470132419478709  0.03919648913907 47.427511648260264  0.05217529523377 47.363826185195116  0.065061260370100002 47.279529059482307  0.077828252876230006 47.175240009519676  0.090451057493070003 47.051733344362361  0.10913400267999999 46.839031078855392  0.115321800175 46.763529674465715  0.121465632761 46.683554094687672  0.127563166236 46.599218156978246  0.133612298799 46.51063928308011  0.13961113611500001 46.417937426781116  0.145557966378 46.321234001567518  0.16286327140599999 46.025876222833432  0.17407403500599999 45.816560412676949  0.18507310468800001 45.5935779451477  0.195852489101 45.357800390451452  0.20640608577899999 45.110078893631005  0.216729313964 44.851228458257268  0.22681892151899999 44.582013942076408  0.249799549289 43.931646501722284  0.26250626907399999 43.543062835960363  0.27479078292699999 43.138995597629311  0.286650864718 42.720934357347133  0.29808459964200001 42.290242906200632  0.30909043565900002 41.848146973742395  0.319667091239 41.395716183717902  0.33769196242900001 40.575189175908598  0.345310365008 40.210875118181228  0.352667682559 39.841331667751618  0.35976234101100002 39.46696433052356  0.36659213079800002 39.088150116731015  0.37315423623400001 38.705236523882171  0.37944520031099999 38.318539910719338  0.40040033130800001 36.959309167952846  0.41363282521700001 35.969261970703087  0.42510622161 34.962021142625801  0.43471644851699998 33.941236948238576  0.44231806930299999 32.910383915026351  0.44770896143400002 31.872789576197817  0.45062045056700001 30.831637651519646  0.450659310343 29.221581407126806  0.44981314864100003 28.65313209623627  0.448041755012 28.085274241870703  0.44526804266499997 27.51865871148598  0.44140068340400002 26.954059976699057  0.43633159676099997 26.392391554514127  0.429930817375 25.834740041706379  0.41962064660199999 25.113452656291614  0.41706538371000001 24.944973842904144  0.41436572354899998 24.777040178050207  0.41151680191200002 24.609694948792306  0.40851347887200001 24.442985141739889  0.40535031355899998 24.276961731501611  0.40202153892300002 24.111679969125777  0.39461293778099998 23.763567388689498  0.390490836156 23.580936101174128  0.38614618621899999 23.399388056868908  0.38156994970800001 23.219015179690413  0.376752548199 23.039920032936401  0.37168381578499998 22.862216783565511  0.36635295175499999 22.686032166492769  0.35472753919400002 22.324012135854669  0.34839103283299999 22.138439223622729  0.34172461556099998 21.954957972617592  0.33471325567499999 21.773765410982872  0.32734126616100001 21.595087765705365  0.319592342453 21.419182893711426  0.31144960019700002 21.246342713010666  0.29370197477499999 20.894777621347433  0.28403440810899999 20.716601445164041  0.273870779806 20.542760336292769  0.26318962629499998 20.373729068375326  0.25197082733800003 20.210065282331875  0.24019657335700001 20.052409298384671  0.22785262637600001 19.901482415437521  0.193146499444 19.516362111585735  0.16968285356099999 19.295635824422121  0.14452029880700001 19.100236227821057  0.11772015472 18.935246753838356  0.089454888408560002 18.806048744041135  0.060056771640279998 18.717691721944583  0.03003031788465 18.673504067033555  0 18.673504067033555 
 0 9 0.087539287253940001 7 0.13132498330100001 7 0.216113908046 7 0.32906132791499998 7 0.416766077141 7 0.63457648770300001 7 0.75346054213199998 7 0.78983460198199995 7 0.83044403465500005 7 0.87407105872299995 7 0.92096042943400003 7 1 9
7 0 0  8 86 13  0 18.049180327868999  0.043095879546389999 18.049180327868999  0.086198706224019997 18.043774913164999  0.12922365005799999 18.032961482720001  0.172101569062 18.016803672676001  0.21477277907 17.995416422289999  0.25718213229600001 17.968956967057  0.29927540461300001 17.937621759009001  0.36186543566099999 17.883656495406001  0.38264395314999999 17.864500831122999  0.40332733882299998 17.844210011773999  0.42391110198499998 17.822812914292001  0.44439138795799998 17.800339330063  0.46476489960299999 17.776819692884999  0.48502881884999999 17.752284806900001  0.54420394540600003 17.677348790827999  0.58280568996299997 17.624242713916001  0.620971325159 17.567669232621  0.65869272572500004 17.507849475362999  0.69596669641300002 17.444999388439001  0.73279406800799995 17.379325748595999  0.76917947081399995 17.311022609948999  0.85302390363699998 17.146016138232  0.90014075011200001 17.047427531737  0.946511126235 16.944910546420001  0.99216352960099996 16.838843105247001  1.0371274867010001 16.729571219320999  1.0814349951710001 16.617405871782999  1.1251220757539999 16.502618439746001  1.201704485497 16.294440326718998  1.234826595548 16.202009227724002  1.267614977939 16.108251365448002  1.300086668379 16.013269621884  1.3322580889060001 15.917159649312  1.3641455393799999 15.820009612259  1.3957656160509999 15.721899774952  1.5050412558540001 15.377045689097001  1.5813581865849999 15.125858153076001  1.6563984762690001 14.870308374748999  1.7303992610550001 14.611322472559999  1.8035822405319999 14.349781978186  1.876175876762 14.086531129055  1.948437448437 13.822377675247999  2.060177358886 13.413885977065  2.0996271560570001 13.2696631742  2.1391281917809999 13.125590431359999  2.1787370177960002 12.981832881877001  2.2185145442350001 12.838587019027001  2.2585289665960002 12.696084613665001  2.2988614690509999 12.55460134918  2.3520882924789999 12.371601587542999  2.3645977140780001 12.328856374866  2.3771494302130001 12.286249473289001  2.389746468482 12.243791865288999  2.4023920047490002 12.201495471965  2.4150894016679998 12.159373226222  2.427842247209 12.117439145952  2.4549583774529999 12.029118567316001  2.4693361119000001 11.982782692381001  2.4837930747720001 11.936721649993  2.4983349309129999 11.890958762416  2.5129676446340001 11.845520051259999  2.5276975925779999 11.800434482130999  2.5425316765920001 11.755734209285  2.573533780849 11.66388513407  2.5897184176939998 11.616802931620001  2.6060411104500001 11.570251410162999  2.622511705894 11.524280558239001  2.6391403915149998 11.478947772505  2.6559379527910001 11.434318474535001  2.6729160304519999 11.390466727632001  2.7085427660330001 11.301270203091001  2.7272191844089999 11.256064646429  2.7461338442979999 11.211958951349001  2.7653025448939998 11.169073573947999  2.7847399685630001 11.127549994802999  2.8044599092119999 11.087550671279001  2.824475433625 11.049258606061001  2.8790575725130001 10.951548698426  2.9142474622419998 10.895547638717  2.9503787079700001 10.845972281758  2.987412422467 10.804112358762  3.02525785533 10.771333184365  3.0637611848319999 10.748915886753  3.102674438932 10.737704918033  3.1415926535900001 10.737704918033 
 0 9 0.087539287253940001 7 0.13132498330100001 7 0.216113908046 7 0.32906132791499998 7 0.416766077141 7 0.63457648770300001 7 0.75346054213199998 7 0.78983460198199995 7 0.83044403465500005 7 0.87407105872299995 7 0.92096042943400003 7 1 9
1 6.2831853071800001 -0 0 1 
1 0 -0 0 1 
1 0 0 1 0 
7 0 0  8 86 13  6.2831853071800001 18.673504067033555  6.2529814832430004 18.673504067033555  6.2227822507069996 18.718203795159514  6.1932227252279999 18.807581167714961  6.1648150926970002 18.938228586268089  6.1378949560810003 19.104991456271701  6.112634850219 19.302392872183713  6.0890944739549999 19.525272474881209  6.0544943224600001 19.911759895092985  6.0423031718260001 20.061607947896622  6.0306700338550003 20.218020378921683  6.0195809197710002 20.380300124820103  6.0090184617929996 20.547827916090565  5.9989631014910003 20.720063777764203  5.9893940034430004 20.896547150734765  5.9717357076199997 21.246342700394031  5.963592965708 21.419182872557574  5.9558440421230001 21.595087739928172  5.9484720525660002 21.773765384243966  5.9414606925170004 21.954957948271154  5.9347942749970004 22.138439204715517  5.9284577683300004 22.324012125141767  5.9168323556060001 22.686032160844647  5.9115014916749997 22.862216774169056  5.9064327592970001 23.039920021549506  5.9016153577769996 23.219015167921196  5.8970391212199997 23.399388046179649  5.8926944712119997 23.580936092889164  5.8885723694980001 23.763567383999156  5.88121915364 24.109077541441703  5.8779403728929998 24.271731732865938  5.8748220960569997 24.435105205348506  5.8718588203959996 24.599145211988624  5.8690453494639998 24.763803030910861  5.8663767697619997 24.929033697726268  5.8638484273860003 25.094795737950189  5.8534720636520001 25.815843873178487  5.8470013747580003 26.376077676234406  5.841878485824 26.940394350953852  5.8379711126689999 27.507687374896772  5.8351693444289996 28.077027576299944  5.8333803729950002 28.647628100452685  5.8325259303969998 29.218828630135231  5.8325648566129997 30.831637665732572  5.8354763458249996 31.872789604501484  5.8408672380970001 32.91038395497705  5.8484688590390004 33.941236995240558  5.8580790860679999 34.962021190494902  5.8695524824899996 35.969262011781048  5.8827849762640003 36.959309193406824  5.903740106981 38.318539918046525  5.9100310711540001 38.705236536628874  5.9165931766630004 39.0881501328792  5.9234229664900004 39.466964347960605  5.9305176249439997 39.841331684270301  5.9378749424480004 40.210875131515209  5.9454933449230003 40.575189183748172  5.9635182163360003 41.395716201714642  5.9740948722539997 41.84814700485633  5.9851007085249996 42.290242945154134  5.9965344435920001 42.720934398720708  6.0083945253879998 43.138995636027083  6.0206790390779998 43.543062866175646  6.0333857584989996 43.93164651893467  6.0563663860899997 44.582013954235833  6.0664559939840004 44.851228478571585  6.0767792223979997 45.110078918154805  6.0873328191800002 45.357800415483709  6.0981122035590003 45.593577967377577  6.1091112730530002 45.816560429345408  6.1203220363010002 46.025876231835738  6.1376830600980004 46.322184988991729  6.1436866285990002 46.419765710537789  6.1497431774290003 46.513267667514874  6.1558509435759996 46.60256596263384  6.1620079747309999 46.687537231556043  6.1682121031120003 46.768060767645999  6.1744609193009996 46.844019646727801  6.1931522426100001 47.055813547984307  6.205719398996 47.178192797816664  6.2184288513119998 47.281518555495502  6.2312557741930004 47.365030101991586  6.2441743420859996 47.428117599602281  6.257156832063 47.470335339034413  6.2701723681469996 47.491437679132233  6.2831853071800001 47.491437679132233 
 0 9 0.079493312217390005 7 0.12592714062800001 7 0.169554211289 7 0.21016368369800001 7 0.245962262776 7 0.365422013421 7 0.58323249321500004 7 0.67093727426899996 7 0.78388474199699998 7 0.86867371029399998 7 0.91287341323500004 7 1 9
7 0 0  8 86 13  3.1415926535900001 10.737704918033  3.1807357258670002 10.737704918033  3.219872897073 10.749045806225  3.258592449464 10.771721979695  3.2966435044760001 10.804868887484  3.3338710848619999 10.847178743552  3.370184313127 10.897261987469999  3.4055450469980002 10.953809370651999  3.460070500899 11.051866133053  3.4798745194870002 11.089884485376  3.4993892611790001 11.129568303745  3.5186274879020001 11.170740734343999  3.5376026380379999 11.213244660642999  3.5563289857460001 11.256943084141  3.5748218608709998 11.301719155149  3.6102692754489998 11.390466724431001  3.627247352325 11.434318469168  3.6440449132319999 11.478947765965  3.6606735988339998 11.524280551455  3.677144194552 11.570251403985999  3.6934668878319998 11.616802926823  3.7096515254129998 11.663885131352  3.7406536301040001 11.755734207852001  3.7554877138139999 11.800434479747  3.7702176616080001 11.845520048371  3.7848503753120002 11.890958759429999  3.7993922315540001 11.936721647281001  3.8138491946270001 11.982782690279  3.8282269293610001 12.029118566126  3.8551403446069998 12.116778877028  3.867692337672 12.158046309208  3.8801905640109999 12.199496232118999  3.8926384472510001 12.241115263203  3.9050391995329998 12.282891041101999  3.9173958572340002 12.32481215778  3.929711316678 12.366868090634  3.982956859363 12.549807151463  4.0234939487870003 12.691945575748001  4.0637079114230001 12.835119876382  4.103681319364 12.979049314576001  4.1434834570600003 13.123498147667  4.1831761800480001 13.268266740633001  4.2228169021389999 13.413187562614  4.3347478597290001 13.822377678854  4.4070094323819999 14.086531136236999  4.479603069445 14.349781988322  4.5527860494750003 14.611322484484001  4.6267868344209999 14.870308386894999  4.7018271237239997 15.125858163497  4.7781440533720003 15.377045695554999  4.8874196917179997 15.721899776811  4.9190397688449998 15.820009615492999  4.9509272196260001 15.917159653409  4.9830986402940001 16.013269626307999  5.0155703306930004 16.108251369639  5.0483587128379996 16.202009231106999  5.0814808224150001 16.294440328707999  5.1580632331049996 16.502618444311999  5.2017503150259996 16.617405879675999  5.2460578244249998 16.729571229204002  5.2910217819799996 16.838843115745  5.3366741852609998 16.944910556162  5.3830445606859998 17.047427539402999  5.4301614057609999 17.146016142598999  5.5140058379339996 17.311022613034002  5.5503912419369996 17.379325753749999  5.5872186143139997 17.444999394661  5.6244925853280003 17.507849481714  5.6622139857329996 17.567669238261001  5.7003796202470003 17.624242718144998  5.7389813635770004 17.677348793111999  5.7983470192909996 17.752526084475999  5.8188036021479999 17.777283551671999  5.8393718367709999 17.801006184544001  5.8600488182810002 17.823662295064999  5.8808311452500002 17.845220584137  5.9017148372759998 17.865650426955  5.9226952525470002 17.884922158372  5.9853037077389999 17.938656958439001  6.0272067644309999 17.969706126914001  6.0694218522299996 17.995921182671999  6.1118956560609998 18.017109121642999  6.1545736145400003 18.033115220264001  6.1973963991370002 18.043826396431999  6.2402951269590003 18.049180327868999  6.2831853071800001 18.049180327868999 
 0 9 0.079493312217390005 7 0.12592714062800001 7 0.169554211289 7 0.21016368369800001 7 0.245962262776 7 0.365422013421 7 0.58323249321500004 7 0.67093727426899996 7 0.78388474199699998 7 0.86867371029399998 7 0.91287341323500004 7 1 9
1 6.2831853071800001 -0 0 1 
1 0 -0 0 1 
1 0 0 1 0 
1 0 0 1 0 
1 0 1 1 0 
1 0 1 1 0 
1 0 1 1 0 
1 0 1 1 0 
1 0 1 1 0 
1 0 1 1 0 
1 0 1 1 0 
1 0 1 1 0 
1 0 1 1 0 
1 0 1 1 0 
1 0 1 1 0 
1 0 4.2999999999999998 1 0 
1 6.2831853071800001 -0 0 1 
1 0 -0 0 1 
1 0 5.2999999999999998 1 0 
1 6.2831853071800001 -0 0 1 
1 0 -0 0 1 
1 0 5.2999999999999998 1 0 
1 6.2831853071800001 -0 0 1 
1 0 -0 0 1 
1 0 5.2999999999999998 1 0 
1 6.2831853071800001 -0 0 1 
1 0 -0 0 1 
1 0 5.2999999999999998 1 0 
1 6.2831853071800001 -0 0 1 
1 0 -0 0 1 
1 0 5.2999999999999998 1 0 
1 6.2831853071800001 -0 0 1 
1 0 -0 0 1 
1 0 5.2999999999999998 1 0 
1 6.2831853071800001 -0 0 1 
1 0 -0 0 1 
1 0 5.2999999999999998 1 0 
1 6.2831853071800001 -0 0 1 
1 0 -0 0 1 
1 0 5.2999999999999998 1 0 
1 6.2831853071800001 -0 0 1 
1 0 -0 0 1 
1 0 5.2999999999999998 1 0 
1 6.2831853071800001 -0 0 1 
1 0 -0 0 1 
1 0 5.2999999999999998 1 0 
1 6.2831853071800001 -0 0 1 
1 0 -0 0 1 
7 0 0  3 113 111  0 21.788524590169999  0.011915399111811917 21.788525462532032  0.035747950814586926 21.787809785195989  0.071464449141053848 21.784599749575676  0.10710940726669095 21.779265131092068  0.14264928879631175 21.771831200837006  0.17805342367477564 21.762330532849347  0.21329403063258329 21.750803390333186  0.24834558423059033 21.737296579944147  0.28318445734859843 21.721862871630311  0.31778852897901483 21.704560436105535  0.35213700192752467 21.685452286631687  0.38620970638553842 21.66460621880077  0.41998849575955371 21.642093179357797  0.45345099961675034 21.617991738681198  0.48660374291582614 21.592361955109897  0.51944082712979811 21.565272514847646  0.55195810103539433 21.536791781859069  0.58415310412605947 21.506986914449755  0.61602490368866603 21.475923610578239  0.64757407402092471 21.443665632630886  0.67880242164814875 21.410274716219583  0.70971377007659919 21.375809294029988  0.74031030552421151 21.340328402487611  0.77059840322428252 21.303884873883145  0.80058468959423601 21.266529347215496  0.8302758748586726 21.228310523427822  0.85967885624571871 21.189275021581327  0.88880074710953783 21.149467337096223  0.91764893040365347 21.108929758983724  0.94623108997704253 21.067702317247274  0.97455530984215222 21.025822618814498  1.0026299297229868 20.983326067374581  1.0304643157730271 20.940244627263802  1.0580652900040766 20.896612465775306  1.0854413750434155 20.852459487705353  1.1126009256866756 20.80781423719899  1.1395521063550385 20.762704024821502  1.1663029665634126 20.717154875921931  1.1928614885107283 20.671191526217729  1.219235637648646 20.624837407203621  1.2454334174113804 20.578114625042922  1.2714628914089612 20.53104397570235  1.2973313467356182 20.48364652170055  1.323046578375253 20.435941407971171  1.3486160734334194 20.387947323511995  1.3740472786262388 20.339682123096924  1.3993474634992411 20.291163166272394  1.4245242745389883 20.242406339657446  1.4495838252719393 20.193429805885796  1.4745334274179451 20.144248774578234  1.4993807181832415 20.094877231751727  1.5241329902496474 20.045329313462265  1.5487974221839245 19.995618938519922  1.573381064669765 19.945759907773763  1.5978908897649897 19.895765878478208  1.6223338214130301 19.845650372201003  1.6467167696132792 19.795426773916795  1.6710466629793244 19.74510833325262  1.6953304809685168 19.694708166373417  1.7195752885262794 19.644239253594009  1.7437882634745314 19.593714453876043  1.7679767551261032 19.543146456496835  1.7921482323477989 19.492547967578084  1.8163106520933174 19.441931020441451  1.840471268385482 19.391309556229157  1.8646350831582075 19.340702764580406  1.8888115805482764 19.290121056735238  1.9130091256007955 19.239577903329252  1.9372363738298444 19.189086997215163  1.9615019537616294 19.138663035080221  1.9858146140018249 19.088321531340998  2.0101832482787532 19.038078894082023  2.0346169565453152 18.987952434285795  2.059125100815788 18.937960397386131  2.0837173683885437 18.888121993565594  2.1084038395348639 18.838457435867568  2.1331950658997738 18.788987977222046  2.1581021455486069 18.739735976698704  2.1831368533703031 18.690724886434857  2.2083116153422098 18.641979566922721  2.2336401236815484 18.593525412262924  2.2591356263678515 18.545391955063028  2.2848103535540294 18.497614141107796  2.3106793352253736 18.450225447660067  2.3367575656869564 18.403263696593225  2.3630610091306847 18.356769589841139  2.3896063563345669 18.31078757154792  2.4164106791986755 18.265366949897611  2.4434927879152024 18.220560081582345  2.4708715393382343 18.176425793773916  2.4985664521638449 18.133028921728759  2.5265980116788564 18.090440426626522  2.5549873202158708 18.048738540796926  2.5837542171394356 18.008011979079818  2.6129221994473855 17.968353505602469  2.6425123201460559 17.929869314222984  2.6725447839596392 17.892676609013296  2.7030385758517084 17.856904125324593  2.7340122945691547 17.822691089441403  2.7654821187205827 17.790189483302868  2.7974566695360963 17.759567608488382  2.8299415616367756 17.731003115291536  2.8629353126699182 17.704684714185191  2.8964250146655353 17.680810447190634  2.9304040243134439 17.659572186027457  2.9648326982438049 17.641176196286292  2.9996583026223691 17.625816875433433  3.0348216870103832 17.613667416112708  3.0702536442361485 17.604873255219434  3.1058757976879541 17.599551046215812  3.1296866806960115 17.598356768987376  3.1415926535897931 17.598360655740009 
 0 4 0.0090909090909090905 1 0.018181818181818181 1 0.027272727272727271 1 0.036363636363636362 1 0.045454545454545456 1 0.054545454545454543 1 0.06363636363636363 1 0.072727272727272724 1 0.081818181818181818 1 0.090909090909090912 1 0.099999999999999992 1 0.10909090909090909 1 0.11818181818181818 1 0.12727272727272726 1 0.13636363636363635 1 0.14545454545454545 1 0.15454545454545454 1 0.16363636363636364 1 0.17272727272727273 1 0.18181818181818182 1 0.19090909090909089 1 0.19999999999999998 1 0.20909090909090908 1 0.21818181818181817 1 0.22727272727272727 1 0.23636363636363636 1 0.24545454545454545 1 0.25454545454545452 1 0.26363636363636361 1 0.27272727272727271 1 0.2818181818181818 1 0.29090909090909089 1 0.29999999999999999 1 0.30909090909090908 1 0.31818181818181818 1 0.32727272727272727 1 0.33636363636363636 1 0.34545454545454546 1 0.35454545454545455 1 0.36363636363636365 1 0.37272727272727268 1 0.38181818181818178 1 0.39090909090909087 1 0.39999999999999997 1 0.40909090909090906 1 0.41818181818181815 1 0.42727272727272725 1 0.43636363636363634 1 0.44545454545454544 1 0.45454545454545453 1 0.46363636363636362 1 0.47272727272727272 1 0.48181818181818181 1 0.49090909090909091 1 0.5 1 0.50909090909090904 1 0.51818181818181819 1 0.52727272727272723 1 0.53636363636363638 1 0.54545454545454541 1 0.55454545454545456 1 0.5636363636363636 1 0.57272727272727275 1 0.58181818181818179 1 0.59090909090909083 1 0.59999999999999998 1 0.60909090909090902 1 0.61818181818181817 1 0.6272727272727272 1 0.63636363636363635 1 0.64545454545454539 1 0.65454545454545454 1 0.66363636363636358 1 0.67272727272727273 1 0.68181818181818177 1 0.69090909090909092 1 0.69999999999999996 1 0.70909090909090911 1 0.71818181818181814 1 0.72727272727272729 1 0.73636363636363633 1 0.74545454545454537 1 0.75454545454545452 1 0.76363636363636356 1 0.77272727272727271 1 0.78181818181818175 1 0.79090909090909089 1 0.79999999999999993 1 0.80909090909090908 1 0.81818181818181812 1 0.82727272727272727 1 0.83636363636363631 1 0.84545454545454546 1 0.8545454545454545 1 0.86363636363636365 1 0.87272727272727268 1 0.88181818181818172 1 0.89090909090909087 1 0.89999999999999991 1 0.90909090909090906 1 0.9181818181818181 1 0.92727272727272725 1 0.93636363636363629 1 0.94545454545454544 1 0.95454545454545447 1 0.96363636363636362 1 0.97272727272727266 1 0.98181818181818181 1 0.99090909090909085 1 1 4
7 0 0  7 74 13  0 41.340165751168186  0.01281625658681 41.340165751168186  0.025639776988309999 41.30842734844223  0.038343648640079997 41.244888266778965  0.050833912991960002 41.150911586579419  0.06303259927681 41.028514220408347  0.074873776267849995 40.880254713327822  0.093714909676759994 40.598035822122334  0.100959772122 40.477263638852662  0.10802511266299999 40.347474494970008  0.114903576769 40.209370968757483  0.12159020919999999 40.06362872411313  0.12808199586300001 39.910875598146809  0.14279702081199999 39.538775247444761  0.15086432125499999 39.314378909602951  0.15857831685099999 39.079802958350207  0.16593905957499999 38.83623869363273  0.17294797809599999 38.58474145685156  0.17960767382500001 38.326212701743501  0.190954921661 37.850242257031269  0.195768007938 37.635122470008312  0.20036212921499999 37.416396546170127  0.204738251132 37.194412355548643  0.208896935389 36.969483753881676  0.212838375926 36.741889498287975  0.21936645485600001 36.338681264196744  0.22204716287199999 36.164120858694403  0.22460444720200001 35.988297143406236  0.22703800088600001 35.811310165914271  0.229347321947 35.63325382446282  0.231531713385 35.454215867923033  0.23874125258100001 34.824035699167403  0.24310363335900001 34.368228871907561  0.24666490654199999 33.908047796358623  0.249401305415 33.444635215687555  0.251280124883 32.979087042660062  0.25225821149400002 32.512454261224626  0.25229558270399999 31.565714562456041  0.25129929099300002 31.085802152525403  0.249224935186 30.607011040898115  0.24599125615699999 30.130638477668835  0.24149633004099999 29.658310641278472  0.23561726434999999 29.192003714294909  0.22587594473 28.591907774023099  0.22341561854799999 28.450412095322861  0.22080055322700001 28.309836146497016  0.218025548106 28.170271398627072  0.21508508455399999 28.031820331230982  0.211973293979 27.894597201120995  0.20491337213300001 27.602984900640777  0.20090963576500001 27.449027127752899  0.19666320268000001 27.297042249619416  0.19216415864200001 27.147251056163626  0.18740221892299999 26.999910715059791  0.182366758007 26.855317116570575  0.17102128843 26.553527497010872  0.164631628655 26.397226467048096  0.15786157634699999 26.245374918024872  0.150695719713 26.098565128001741  0.14312075610300001 25.957505654280897  0.135126729325 25.823016124056952  0.120809766762 25.607042032693137  0.11470355333899999 25.521751330097647  0.108388279632 25.440472530988586  0.101864783689 25.363565395697957  0.095136650272460002 25.291419383576951  0.088210863695380004 25.224440664910805  0.070454851568400007 25.071136823223874  0.059387411214040002 24.991666269051077  0.047942616763340003 24.926087477508357  0.036185451947570002 24.875751930968203  0.02420199377984 24.841760920051122  0.012098915931680001 24.824775994997598  2.0368279663070001e-17 24.824775994997598 
 0 8 0.11422574570000001 6 0.188334291131 6 0.28744076252299999 6 0.36645005807499997 6 0.42593988256499998 6 0.57479578519899999 6 0.72790104377800002 6 0.77550683512999996 6 0.83007664435600004 6 0.891884573929 6 0.93519106727800005 6 1 8
1 6.2831853071800001 -0 0 1 
1 0 -0 0 1 
7 0 0  3 113 111  3.1415926535897931 17.598360655740009  3.1534987326986945 17.598356767850731  3.1773098317706694 17.599551068305082  3.2129322902045465 17.604873370650946  3.2483644851898688 17.613667666704362  3.2835280553347279 17.625817281737135  3.3183538844474669 17.641176813998914  3.352782815027965 17.659573054812284  3.3867626573662721 17.680812014085912  3.4202524156767122 17.704686546211967  3.4532461687960994 17.73100514701559  3.4857310668348309 17.75956983953046  3.5177056540491902 17.790191938144368  3.5491754663750217 17.822693710162469  3.5801493498260282 17.856907104476033  3.6106431250428872 17.892679748610973  3.640675598316216 17.929872630324311  3.670265753426988 17.968357024069551  3.6994337975470599 18.008015734346653  3.7282007348725368 18.048742506043599  3.7565899871590216 18.090444449925272  3.7846216133932749 18.133033177260103  3.8123165286952991 18.176430181892499  3.8396953113541539 18.220564642998518  3.8667774638828307 18.265371700153715  3.8935818261416348 18.310792496586249  3.9201271476894277 18.356774578345323  3.9464306607463975 18.403268904670867  3.9725089229628394 18.450230807984866  3.9983779458953288 18.497619666584683  4.024052750071399 18.54539770926479  4.0495481985800028 18.593531141568974  4.0748770850562268 18.641986096952941  4.1000520005149736 18.690731792156495  4.1250868411907859 18.739743216327824  4.1499940069294468 18.788995457621898  4.1747853030270194 18.838465121006436  4.1994718380185514 18.888129867653756  4.2240641748931012 18.937968467082907  4.2485724008511783 18.987960720520277  4.2730062073678328 19.038087426697643  4.2973749576368014 19.088330343004912  4.3216877499970776 19.138672155367349  4.3459534738468069 19.189096446711613  4.3701808706406355 19.23958768745231  4.394378559454486 19.290131160667073  4.4185551820483235 19.340713144114741  4.4427190927164917 19.391320144071315  4.4668797403158917 19.441941675190893  4.4910421794210063 19.49255865806208  4.515213681339711 19.543157187710953  4.5394021983462238 19.593725221038618  4.5636152005230306 19.644250054456542  4.5878600368284186 19.694718997920717  4.6121438851595276 19.745119192586532  4.6364738104306209 19.795437658018507  4.6608567921051236 19.845661277994406  4.6852997588012766 19.895776802811817  4.7098096205325355 19.945770847425408  4.7343933012618491 19.995629890193776  4.7590577730778714 20.045340273794558  4.7838100866889777 20.094888197286483  4.8086574207464334 20.144259741855809  4.8336070678330199 20.193440771110776  4.8586666657832547 20.242417299934523  4.8838435242765375 20.291174114992021  4.9091437564445117 20.339693052691267  4.9345750115661682 20.387958230664307  4.9601445593285352 20.435952289362792  4.9858598465987907 20.48365737431843  5.0117283557647347 20.53105478845664  5.0377578890502726 20.578125400579452  5.0639557476336812 20.624848169579305  5.0903299548710352 20.671202229973847  5.1168885374356119 20.717165515588842  5.1436394623352024 20.762714597213343  5.1705907153119925 20.807824744722041  5.1977503416230286 20.852469925542163  5.2251265088714485 20.896622833279455  5.2527275311089872 20.940254859358078  5.2805620363879102 20.983336262451065  5.3086367671149466 21.025832749096359  5.3369610617869307 21.067712315202936  5.3655432932010676 21.108939608160831  5.3943915544629952 21.149477033433648  5.4235135373557926 21.189284570752012  5.4529166250455985 21.228319929340543  5.4826079263789573 21.266538605745055  5.5125943229830403 21.303893960563219  5.5428825193868096 21.340337285299306  5.5734790664891571 21.375817858153418  5.6043904893310836 21.410283022283124  5.6356189474694558 21.443673702939751  5.6671682223195505 21.475931420261606  5.6990401387171348 21.506994456979978  5.7312352619515607 21.536799041254579  5.7637526685219376 21.565279480044644  5.7965898332639467 21.592368566252876  5.8297427912506663 21.617998072782523  5.8632048752786314 21.642098757712688  5.8969828039837253 21.664610808395707  5.9310548491221011 21.685456097545789  5.965402755979909 21.704563583684237  6.0000064064970031 21.721865484998563  6.034844973953863 21.737298750063658  6.0698962942030077 21.750805173711225  6.10513666890665 21.762331952374119  6.1405404820191292 21.771832258372456  6.1760798460740043 21.779265825997825  6.2117239775111548 21.784600103570675  6.2474392251753663 21.787809866957556  6.2712705992444242 21.788525464647709  6.2831853071795862 21.788524590169999 
 0 4 0.0090909090909090905 1 0.018181818181818181 1 0.027272727272727271 1 0.036363636363636362 1 0.045454545454545456 1 0.054545454545454543 1 0.06363636363636363 1 0.072727272727272724 1 0.081818181818181818 1 0.090909090909090912 1 0.099999999999999992 1 0.10909090909090909 1 0.11818181818181818 1 0.12727272727272726 1 0.13636363636363635 1 0.14545454545454545 1 0.15454545454545454 1 0.16363636363636364 1 0.17272727272727273 1 0.18181818181818182 1 0.19090909090909089 1 0.19999999999999998 1 0.20909090909090908 1 0.21818181818181817 1 0.22727272727272727 1 0.23636363636363636 1 0.24545454545454545 1 0.25454545454545452 1 0.26363636363636361 1 0.27272727272727271 1 0.2818181818181818 1 0.29090909090909089 1 0.29999999999999999 1 0.30909090909090908 1 0.31818181818181818 1 0.32727272727272727 1 0.33636363636363636 1 0.34545454545454546 1 0.35454545454545455 1 0.36363636363636365 1 0.37272727272727268 1 0.38181818181818178 1 0.39090909090909087 1 0.39999999999999997 1 0.40909090909090906 1 0.41818181818181815 1 0.42727272727272725 1 0.43636363636363634 1 0.44545454545454544 1 0.45454545454545453 1 0.46363636363636362 1 0.47272727272727272 1 0.48181818181818181 1 0.49090909090909091 1 0.5 1 0.50909090909090904 1 0.51818181818181819 1 0.52727272727272723 1 0.53636363636363638 1 0.54545454545454541 1 0.55454545454545456 1 0.5636363636363636 1 0.57272727272727275 1 0.58181818181818179 1 0.59090909090909083 1 0.59999999999999998 1 0.60909090909090902 1 0.61818181818181817 1 0.6272727272727272 1 0.63636363636363635 1 0.64545454545454539 1 0.65454545454545454 1 0.66363636363636358 1 0.67272727272727273 1 0.68181818181818177 1 0.69090909090909092 1 0.69999999999999996 1 0.70909090909090911 1 0.71818181818181814 1 0.72727272727272729 1 0.73636363636363633 1 0.74545454545454537 1 0.75454545454545452 1 0.76363636363636356 1 0.77272727272727271 1 0.78181818181818175 1 0.79090909090909089 1 0.79999999999999993 1 0.80909090909090908 1 0.81818181818181812 1 0.82727272727272727 1 0.83636363636363631 1 0.84545454545454546 1 0.8545454545454545 1 0.86363636363636365 1 0.87272727272727268 1 0.88181818181818172 1 0.89090909090909087 1 0.89999999999999991 1 0.90909090909090906 1 0.9181818181818181 1 0.92727272727272725 1 0.93636363636363629 1 0.94545454545454544 1 0.95454545454545447 1 0.96363636363636362 1 0.97272727272727266 1 0.98181818181818181 1 0.99090909090909085 1 1 4
7 0 0  7 74 13  6.2831853071800001 24.824775994997598  6.2710068044770004 24.824775994997598  6.2588240573110001 24.841985111148411  6.2467633808069998 24.876425051844031  6.2349334503109999 24.927416088998672  6.2234217262350002 24.993829075481994  6.2122939825949999 25.0742814504246  6.1944902905659998 25.22905957023065  6.1875710149090004 25.296401875221925  6.1808500839310003 25.368898880643954  6.1743343439549996 25.446144113597544  6.168027260793 25.527748245568482  6.1619295721279999 25.613351947145265  6.1476337473829998 25.830059836555208  6.1396526094760002 25.964958224730523  6.1320908371270004 26.106404604095037  6.1249383159950002 26.253581338860268  6.118181638017 26.405781945526499  6.1118053254660003 26.562416073768844  6.1004328958720002 26.866193849846265  6.0953627394070002 27.012506032095761  6.0905712913409999 27.161605344403903  6.086047595418 27.313188589711459  6.0817810614549996 27.466992595279894  6.0777614933989996 27.622791744363866  6.0707108213570002 27.916578625368835  6.0676197374090002 28.05410447441454  6.064699627415 28.192847244931496  6.0619446368469996 28.332693548022267  6.0593492624409997 28.473541653567771  6.0569083198470004 28.615300727786106  6.0473088940409996 29.212651999427081  6.0415238602250003 29.675736568162538  6.0370990256230002 30.144695611405389  6.0339146391360003 30.617606232645631  6.031871364243 31.092883185530027  6.0308898643419999 31.569257852650928  6.0309270956859997 32.512454264677345  6.0319051823120002 32.97908704954974  6.0337840018059996 33.444635225257436  6.0365204007089996 33.908047807181894  6.0400816739099996 34.368228881922832  6.0444440546739999 34.824035705749658  6.0516726458100001 35.45588118961318  6.0538784286789999 35.636567705169448  6.056211455923 35.816253585697822  6.0586710130009997 35.994848577284905  6.0612565875130002 36.172256028867821  6.0639678691969996 36.34837289224992  6.0705362681170003 36.752905174074691  6.0744849662949996 36.980290851321989  6.0786507225220001 37.205003825432634  6.0830337433409998 37.426764894469763  6.087634599886 37.645259674251335  6.092454263994 37.860139689675208  6.1038155193000003 38.335528839916321  6.1104825032779999 38.593711729775912  6.1174984190170001 38.844848211060018  6.1248658575180004 39.08803544725513  6.1325862225109997 39.322216654746164  6.1406595223349996 39.546199161255075  6.1553844189279996 39.917544887550136  6.1618802838160001 40.069965897560635  6.1685707245039998 40.215363902874422  6.1754526857140002 40.353110754398806  6.1825211641960003 40.482530789847807  6.1897687485309998 40.602921839625012  6.2085784195259999 40.88358978642745  6.2203817147829996 41.030807166857933  6.2325390284250002 41.152321326211698  6.2449850434479997 41.245606053028339  6.2576423931159999 41.30866774919393  6.2704176742489999 41.340165751168186  6.2831853071800001 41.340165751168186 
 0 8 0.065234691124749999 6 0.10857377217 6 0.170429405166 6 0.22557596548700001 6 0.27322730534799999 6 0.425202304029 6 0.574058077517 6 0.63409842771699998 6 0.71307307617899995 6 0.81212867582500003 6 0.88620103516000004 6 1 8
1 0 63.063460101812915 1 0 
1 6.2831853071795862 0 0 1 
1 4.1389114358025836e-13 0 0 1 
1 6.2831853071800001 -0 0 1 
1 0 -0 0 1 
1 0 0 1 0 
Curves 47
1 0 0 -84.200000000000003 0.96727962439129522 -2.3691517917837232e-16 0.25371268836507743 
2 0 0 -68.200000000000003 0 0 1 1 0 -0 -0 1 0 61
7 0 0  8 86 13  45.9375 -3.4137029526230001e-15 -72.150819672129998  45.9375 0.600648821178 -72.150819672129998  45.907916133832998 1.201394948051 -72.156225086830005  45.848733733829 1.7993539152519999 -72.167038517280005  45.760376217328997 2.3918638609179999 -72.183196327320005  45.643620806834001 2.9764661384750002 -72.204583577709997  45.499540178408999 3.5508928060680001 -72.231043032939994  45.329470038349001 4.1130609936380003 -72.262378240990003  45.037733262726 4.9351812159569999 -72.316343504589994  44.934345591910997 5.2057873022500001 -72.335499168870001  44.825027352832997 5.4726769770679997 -72.355789988219996  44.709974642276002 5.735656243847 -72.377187085700001  44.589389983922999 5.9945513088349998 -72.39966066993  44.463480395662998 6.2492073510060004 -72.423180307110002  44.332455456887999 6.4994872919780002 -72.447715193099995  43.933303217488998 7.2212182246439998 -72.522651209169993  43.651697458820003 7.6802862084700001 -72.575757286080005  43.353221200843997 8.1216353238369994 -72.632330767369993  43.039386386914998 8.5446622194219994 -72.692150524629994  42.711669672882003 8.9489632872830001 -72.755000611560007  42.37148419407 9.3343034411379993 -72.820674251400007  42.020157229036997 9.7005897717970004 -72.888977390050002  41.177700938005998 10.510435917704999 -73.053983861760003  40.678958920119001 10.939194762736999 -73.152572468260004  40.165514279939998 11.334280688755999 -73.255089453579998  39.639975226716999 11.696069966490001 -73.361156894749996  39.104713405273003 12.025123317365001 -73.470428780670005  38.561847918571999 12.322143517941001 -73.582594128210005  38.013231573055002 12.587928354871 -73.697381560249994  37.031190908460999 13.006101958298 -73.905559673279996  36.599463012308 13.170541888886 -73.997990772270001  36.166012130566003 13.317030316167999 -74.091748634550001  35.731537290009001 13.445960414685 -74.186730378109999  35.296680482501003 13.557726223041 -74.282840350680004  34.862027094052998 13.652720035050001 -74.379990387739994  34.428106352317002 13.731327898517 -74.478100225039995  32.920766566874001 13.949375613301999 -74.822954310900002  31.854216435222 14.005978418766 -75.07414184692  30.802358709734001 13.969746257904999 -75.329691625250007  29.771001830713001 13.845686619869999 -75.588677527439998  28.765124034014999 13.638363803896 -75.850218021809994  27.788912314442001 13.351638703183999 -76.113468870939997  26.845802637513 12.988578407575 -76.377622324750007  25.443419102652001 12.311276910738 -76.786114022929993  24.959090602998 12.049827965772 -76.930336825799998  24.486073434373001 11.766316809434 -77.074409568639993  24.024873904132999 11.460875288719 -77.218167118119993  23.576029311628002 11.133511461269 -77.361412980970002  23.140102077952999 10.784089249711 -77.503915386329993  22.717682568506 10.412260437925999 -77.645398650819999  22.184493340391999 9.8964610917289999 -77.828398412449999  22.060904825851001 9.7734571795859999 -77.871143625130003  21.938663498592 9.6482721036159997 -77.913750526710004  21.817790160520001 9.5208844410999998 -77.956208134709996  21.698306973270999 9.3912702497739993 -77.998504528029997  21.580237496992002 9.2594026211520006 -78.040626773770001  21.463606729112001 9.1252512338339997 -78.082560854039997  21.219865748195001 8.8364221765740005 -78.170881432680005  21.093118028871 8.6811750452710008 -78.217217307609999  20.968234050422002 8.5229916417990008 -78.263278349999993  20.845254038256002 8.3618194696640007 -78.309041237580004  20.724222539525002 8.1976011310520001 -78.354479948740007  20.605188584733 8.0302730508840003 -78.399565517859997  20.488205849338001 7.8597642008659996 -78.444265790710006  20.249923836499001 7.4993130526450003 -78.536114865919998  20.128954203959001 7.3088751487080001 -78.583197068380002  20.010493875432999 7.1145774376419997 -78.629748589830001  19.894625028174001 6.9163133399900003 -78.675719441759995  19.781442461251 6.7139708108159999 -78.721052227490006  19.671053997807 6.5074297795970004 -78.765681525459996  19.563580887314998 6.296559590108 -78.80953327236  19.346926997183001 5.8497703356119999 -78.8987297969  19.238233274549 5.6131851709780003 -78.943935353569998  19.133235302426002 5.3712659526479998 -78.988041048650004  19.032131029258 5.123835299185 -79.030926426050002  18.935155269521999 4.8707336412539997 -79.072450005190007  18.842577559489001 4.611820181054 -79.112449328720004  18.75470068864 4.3469746114239998 -79.150741393930005  18.532218454443001 3.6194962177269998 -79.24845130157  18.406658283946999 3.1450130917010002 -79.304452361279999  18.297088446564 2.6528125825919999 -79.354027718240005  18.205726701166 2.143880403941 -79.395887641230004  18.134867305916998 1.6201643916640001 -79.428666815629995  18.086625755370001 1.0847760888339999 -79.45108411324  18.0625 0.54242261679199999 -79.462295081959994  18.0625 -1.358592542804e-15 -79.462295081959994 
 0 9 0.087539287253940001 7 0.13132498330100001 7 0.216113908046 7 0.32906132791499998 7 0.416766077141 7 0.63457648770300001 7 0.75346054213199998 7 0.78983460198199995 7 0.83044403465500005 7 0.87407105872299995 7 0.92096042943400003 7 1 9
1 0 0 -84.200000000000003 0.96727962439129522 -2.3691517917837232e-16 0.25371268836507743 
7 0 0  8 86 13  18.0625 -1.7763568394e-15 -79.462295081959994  18.0625 -0.54555656986400003 -79.462295081959994  18.086905341091001 -1.0910308870580001 -79.450954193770002  18.135703977018 -1.629410969159 -79.428278020299999  18.207362196999 -2.1559276385769999 -79.395131112510001  18.299721867310001 -2.6674399489690002 -79.352821256439995  18.410447805303999 -3.1619911834829999 -79.30273801253  18.537288111100999 -3.6386033275099998 -79.246190629340006  18.760686284201999 -4.3649744446260001 -79.14813386694  18.847980362430999 -4.626904620466 -79.110115514620006  18.939869804394 -4.88302273514 -79.070431696249997  19.036062017898999 -5.1334469896349999 -79.029259265649998  19.136296365481002 -5.3783148598089996 -78.986755339349997  19.240345521508999 -5.6177815545929999 -78.943056915849994  19.348017479241999 -5.8520191559130001 -78.898280844850007  19.563580879539 -6.296559574072 -78.80953327556  19.671053984627999 -6.5074297540200003 -78.765681530829994  19.781442445014999 -6.7139707810290004 -78.721052234029997  19.894625011142999 -6.9163133103390004 -78.675719448539994  20.010493859752 -7.1145774116530003 -78.629748596010003  20.128954191645999 -7.3088751292299996 -78.583197073169998  20.249923829446001 -7.4993130419770004 -78.536114868639999  20.488205845623 -7.859764195246 -78.444265792140001  20.605188578482998 -8.0302730418469999 -78.399565520249993  20.724222531870002 -8.1976011204490007 -78.354479951619993  20.845254030261 -8.3618194590369992 -78.309041240569996  20.968234043087001 -8.5229916324260007 -78.263278352710003  21.093118023125999 -8.6811750382049997 -78.217217309719999  21.219865744911001 -8.8364221726819991 -78.170881433869994  21.461784564925999 -9.1230919992149992 -78.083221122970002  21.576547183142999 -9.2551569335190003 -78.041953690789995  21.692703749151001 -9.3850092834069994 -78.000503767880005  21.810230405073 -9.5126780045809998 -77.958884736789997  21.929104647763001 -9.6381888488849992 -77.917108958889997  22.049305292779 -9.7615647784099995 -77.875187842220001  22.170812438369001 -9.8828263795990008 -77.833131909360006  22.703373945102001 -10.399648519519999 -77.650192848529997  23.127444128263999 -10.773931763529999 -77.508054424250005  23.565167908593999 -11.125582564809999 -77.364880123610007  24.015945240206001 -11.4549578924 -77.220950685419993  24.47920485917 -11.762197924640001 -77.076501852329997  24.954401379554 -12.047295933519999 -76.931733259360001  25.441021391922 -12.31011890151 -76.786812437379993  26.845802649892999 -12.98857841355 -76.377622321139995  27.788912340075001 -13.35163871304 -76.113468863760005  28.765124071805001 -13.638363814590001 -75.850218011669995  29.771001877006 -13.84568662829 -75.58867751551  30.802358758962001 -13.969746261779999 -75.329691613099996  31.854216479112999 -14.00597841754 -75.074141836500004  32.920766595102002 -13.94937560921 -74.822954304440003  34.428106360443003 -13.73132789734 -74.478100223179993  34.862027108381 -13.65272003238 -74.379990384500005  35.296680500895 -13.557726218819999 -74.282840346590007  35.731537310124999 -13.44596040916 -74.186730373689997  36.166012149865999 -13.317030309950001 -74.091748630360001  36.599463028080997 -13.170541883009999 -73.997990768890006  37.031190917845997 -13.0061019543 -73.905559671290007  38.013231594593996 -12.587928345690001 -73.697381555679996  38.561847956363003 -12.322143499339999 -73.582594120319996  39.104713453278997 -12.025123290230001 -73.470428770789994  39.639975278412997 -11.69606993309 -73.361156884249993  40.165514328542002 -11.33428065296 -73.255089443830002  40.678958958829 -10.939194730220001 -73.152572460589994  41.177700960298999 -10.51043589627 -73.053983857399999  42.020157244788997 -9.7005897566540007 -72.888977386959994  42.37148422061 -9.3343034131360003 -72.820674246249993  42.711669705186999 -8.9489632497329996 -72.755000605329997  43.039386420135997 -8.5446621766989992 -72.692150518280002  43.353221230549998 -8.1216352813470003 -72.632330761730003  43.651697481226002 -7.6802861725870004 -72.575757281850002  43.933303229658001 -7.2212182026400002 -72.522651206879999  44.333740639769999 -6.4971634762789998 -72.447473915520007  44.465957596081999 -6.244474233559 -72.422716448320003  44.592959995708 -5.9873268993720004 -72.398993815449998  44.714532249176997 -5.7258626663639998 -72.376337704929995  44.830461454260004 -5.4602411451570001 -72.354779415859994  44.940539423673002 -5.19064165127 -72.334349573040001  45.044564712764 -4.9172644920500002 -72.315077841619996  45.335088746742002 -4.0944425960809996 -72.261343041559996  45.503619700176003 -3.5345881409720001 -72.230293873080001  45.646376378745003 -2.962637217967 -72.204078817319996  45.762046536436998 -2.3806441480620002 -72.182890878349994  45.849575141167001 -1.7908490120039999 -72.166884779729997  45.908197903080001 -1.195683363446 -72.156173603560006  45.9375 -0.59778188683 -72.150819672129998  45.9375 -3.5527136788010003e-15 -72.150819672129998 
 0 9 0.079493312217390005 7 0.12592714062800001 7 0.169554211289 7 0.21016368369800001 7 0.245962262776 7 0.365422013421 7 0.58323249321500004 7 0.67093727426899996 7 0.78388474199699998 7 0.86867371029399998 7 0.91287341323500004 7 1 9
1 45.9375 -3.4137029526230001e-15 -90.200000000000003 0 0 1 
2 32 0 -90.200000000000003 0 0 1 1 0 -0 -0 1 0 13.9375
2 0 0 -68.200000000000003 0 0 1 1 0 -0 -0 1 0 84.5
2 -62.698817064049997 -45.553357052659997 -68.200000000000003 0 0 1 1 0 -0 -0 1 0 3.25
2 -23.948817064050001 -73.706880012870002 -68.200000000000003 0 0 1 1 0 -0 -0 1 0 3.25
2 23.948817064058002 -73.706880012870002 -68.200000000000003 0 0 1 1 0 -0 -0 1 0 3.25
2 62.698817064057998 -45.553357052659997 -68.200000000000003 0 0 1 1 0 -0 -0 1 0 3.25
2 -77.5 9.4910126933919992e-15 -68.200000000000003 0 0 1 1 0 -0 -0 1 0 3.25
2 -62.698817064049997 45.553357052667003 -68.200000000000003 0 0 1 1 0 -0 -0 1 0 3.25
2 -23.948817064050001 73.706880012873995 -68.200000000000003 0 0 1 1 0 -0 -0 1 0 3.25
2 77.5 0 -68.200000000000003 0 0 1 1 0 -0 -0 1 0 3.25
2 23.948817064058002 73.706880012873995 -68.200000000000003 0 0 1 1 0 -0 -0 1 0 3.25
2 62.698817064057998 45.553357052667003 -68.200000000000003 0 0 1 1 0 -0 -0 1 0 3.25
2 32 0 -90.200000000000003 0 0 1 1 0 -0 -0 1 0 7.9874999999999998
2 0 0 -63.899999999999999 0 0 1 1 0 -0 -0 1 0 84.5
1 84.5 -2.069653090559e-14 -68.200000000000003 0 0 1 
2 -62.698817064049997 -45.553357052659997 -63.899999999999999 0 0 1 1 0 -0 -0 1 0 3.25
1 -59.448817064049997 -45.553357052659997 -69.200000000000003 0 0 1 
2 -23.948817064050001 -73.706880012870002 -63.899999999999999 0 0 1 1 0 -0 -0 1 0 3.25
1 -20.698817064050001 -73.706880012870002 -69.200000000000003 0 0 1 
2 23.948817064058002 -73.706880012870002 -63.899999999999999 0 0 1 1 0 -0 -0 1 0 3.25
1 27.198817064058002 -73.706880012870002 -69.200000000000003 0 0 1 
2 62.698817064057998 -45.553357052659997 -63.899999999999999 0 0 1 1 0 -0 -0 1 0 3.25
1 65.948817064058005 -45.553357052659997 -69.200000000000003 0 0 1 
2 -77.5 9.4910126933919992e-15 -63.899999999999999 0 0 1 1 0 -0 -0 1 0 3.25
1 -74.25 8.6949922739459999e-15 -69.200000000000003 0 0 1 
2 -62.698817064049997 45.553357052667003 -63.899999999999999 0 0 1 1 0 -0 -0 1 0 3.25
1 -59.448817064049997 45.553357052667003 -69.200000000000003 0 0 1 
2 -23.948817064050001 73.706880012873995 -63.899999999999999 0 0 1 1 0 -0 -0 1 0 3.25
1 -20.698817064050001 73.706880012873995 -69.200000000000003 0 0 1 
2 77.5 0 -63.899999999999999 0 0 1 1 0 -0 -0 1 0 3.25
1 80.75 -7.9602041944579996e-16 -69.200000000000003 0 0 1 
2 23.948817064058002 73.706880012873995 -63.899999999999999 0 0 1 1 0 -0 -0 1 0 3.25
1 27.198817064058002 73.706880012873995 -69.200000000000003 0 0 1 
2 62.698817064057998 45.553357052667003 -63.899999999999999 0 0 1 1 0 -0 -0 1 0 3.25
1 65.948817064058005 45.553357052667003 -69.200000000000003 0 0 1 
7 0 0  7 74 13  39.987499999999997 -1.9563732616379999e-15 -69.411475409830004  39.987499999999997 0.51249006026499999 -69.411475409830004  39.949137166779003 1.025270706058 -69.41952784531  39.872335747504003 1.531476089124 -69.435648516539999  39.758930739847997 2.0255534400430002 -69.459491592709995  39.611727753426003 2.5029489392270001 -69.490545357529996  39.434259467235997 2.9600386982160001 -69.52816067565  39.098342802775001 3.6756566229779999 -69.599763189249998  38.955011984214003 3.9477382207730001 -69.630404624540006  38.801501776522002 4.209734737632 -69.663333777160005  38.638782457563998 4.4612655878140002 -69.698372394070006  38.467786586510996 4.7021058650179999 -69.735349050759993  38.289380641115997 4.932155840179 -69.774104457009997  37.856897063866001 5.4446417726960004 -69.868511037329995  37.597632576047999 5.7185263499980001 -69.925443235459994  37.328383298786001 5.9731426596750001 -69.984958130679999  37.050801315827997 6.2087320947800002 -70.046753475070005  36.766341465876003 6.4256710571750002 -70.110561515130001  36.476243902196998 6.6244285164979999 -70.176153540610002  35.946557820225003 6.9498838624810002 -70.296913281719995  35.708681227271001 7.0830059557220002 -70.351491901200006  35.468415653838001 7.2051370583940004 -70.406985443349996  35.226237792138001 7.316529704043 -70.463305649130007  34.982574081179003 7.417432790856 -70.52037288935  34.737801129041998 7.5080890970369998 -70.578116439789994  34.307356200542003 7.6494532402040001 -70.680415484829993  34.122027554658999 7.7044955587370003 -70.724703674599994  33.936402392641 7.7539589110699998 -70.769312382080003  33.750613290396998 7.7979376664459998 -70.814216223949998  33.564783204613001 7.8365214040579998 -70.859391377020003  33.379025472747003 7.8697949130489997 -70.904815578289998  32.729079937267997 7.9680083050209998 -71.064700283060006  32.265891903739004 8.0054201789949992 -71.180344258580007  31.805415167618001 8.0113534145339997 -71.297098036389997  31.349031835626 7.9868111560259996 -71.414671688050007  30.897972630939002 7.932602060832 -71.532787166589998  30.453322855574001 7.8493147582910003 -71.651177824049995  29.566258611296998 7.6218538911140001 -71.891377698209993  29.124456666090001 7.476058272875 -72.01313756591  28.691558486032001 7.3000725494710004 -72.134612946009995  28.268674753987 7.0938330629840003 -72.255474709690006  27.857075150355001 6.8569433909880004 -72.375310274849994  27.458162137001001 6.58867043412 -72.493618258889995  26.953994999988002 6.19363130228 -72.645870213180004  26.835809289034 6.0967447159620001 -72.681769462209999  26.719072692097001 5.9966227653650002 -72.717435364110003  26.603845168591999 5.8932147843839999 -72.752844711489999  26.490193255377001 5.7864645580870002 -72.787971504010002  26.378190273247 5.6763090280719997 -72.82278675325  26.141511388723 5.4324222948690002 -72.896772493970005  26.017383311284 5.2976047926819998 -72.935833534419999  25.895649772266999 5.1581130524579999 -72.974394026439995  25.776450385594 5.0138317378439998 -73.01239795283  25.659947487947999 4.8646387452809998 -73.049780066880004  25.546326718759001 4.7104023343200003 -73.086465297469999  25.310607938126001 4.3704082280409997 -73.163033153170005  25.189401954076999 4.1832079941620002 -73.202688707670006  25.072470066133 3.9891511827069999 -73.241215372409997  24.960182888755 3.7880387672759999 -73.278462878910005  24.852985584572998 3.5797064950849999 -73.314251457210005  24.751392216184001 3.3640323133679999 -73.348373157479998  24.589128412541001 2.9846340557689999 -73.403168524820003  24.525318609483001 2.8247015077230002 -73.42480785827  24.464752753677001 2.6611329999710001 -73.44542932089  24.407657474191002 2.4939544987229998 -73.464941636939997  24.354278383604999 2.32323681008 -73.48324599563  24.304871657539 2.1491048651110001 -73.500239346409998  24.192081777121999 1.706336727731 -73.539134476219999  24.133900957929999 1.4335567401539999 -73.559297164170005  24.086089436659002 1.1542861135010001 -73.575935335669996  24.049499676966001 0.869668790887 -73.588706102499998  24.024828517227999 0.58115025034800005 -73.597330053259995  24.012499999999999 0.29052521880900001 -73.601639344259993  24.012499999999999 4.8909331540949998e-16 -73.601639344259993 
 0 8 0.11422574570000001 6 0.188334291131 6 0.28744076252299999 6 0.36645005807499997 6 0.42593988256499998 6 0.57479578519899999 6 0.72790104377800002 6 0.77550683512999996 6 0.83007664435600004 6 0.891884573929 6 0.93519106727800005 6 1 8
1 39.987499999999997 -1.9563732616379999e-15 -91.200000000000003 0 0 1 
7 0 0  7 74 13  24.012499999999999 8.8817841970009999e-16 -73.601639344259993  24.012499999999999 -0.29243629614400002 -73.601639344259993  24.024991253641002 -0.58497437677599995 -73.597273173139996  24.049988226797002 -0.87536235917100003 -73.588535323190001  24.087055234845 -1.161772629031 -73.575598250070001  24.135477859249999 -1.4427368413070001 -73.558748432729999  24.194384091006 -1.717096290402 -73.538336644400005  24.308277843115 -2.1612653309779999 -73.499067471519993  24.357962002232 -2.3353258619139998 -73.481981874279995  24.411611645791002 -2.505959995939 -73.463588464140003  24.468970425782999 -2.6730450547969999 -73.443990368420003  24.529792826257999 -2.836512139951 -73.423286364719999  24.593852504145001 -2.9963368931269998 -73.401567619459996  24.756709508665999 -3.3754655962690001 -73.346586078249999  24.858639888679001 -3.590972504332 -73.312360645530006  24.966162752054998 -3.7991303697349998 -73.276473904360003  25.078765310386999 -4.0000635649499996 -73.239133299320002  25.196003709862001 -4.1939377846220003 -73.200518074230004  25.317508542917999 -4.3809528347290003 -73.160778008459999  25.554861991551999 -4.7221530988840001 -73.083705732230001  25.669880694698001 -4.8776791892259999 -73.046584475130004  25.787831532378998 -5.028062585791 -73.008756087769996  25.90852425344 -5.1734389459910002 -72.970297495089994  26.031792676633 -5.3139337275939997 -72.931275467359995  26.157494074713 -5.4496652246829997 -72.891747246400001  26.396124010148998 -5.6940139787539996 -72.81720978701  26.508462728969999 -5.8038051058119997 -72.782317734130004  26.622444981181999 -5.9101917863939999 -72.747116932829996  26.737997943955001 -6.0132366787300002 -72.711636151319993  26.855055501207001 -6.1129955882870002 -72.675901199809999  26.973558039373 -6.2095187583699998 -72.63993512399  27.475832287856001 -6.6005215178130001 -72.488379526960003  27.872264869156002 -6.8656651214000002 -72.370889096089996  28.281156131909 -7.0999083619389998 -72.2519082365  28.701139384687998 -7.3039620961900003 -72.131924811420006  29.130975749901001 -7.4782080200880001 -72.011341017990006  29.569578558735 -7.6227051914880004 -71.890478720529998  30.453322858810001 -7.8493147591200003 -71.651177823180006  30.897972637502999 -7.932602062061 -71.532787164850006  31.349031844921001 -7.9868111570489999 -71.414671685619993  31.805415178341001 -8.0113534148440007 -71.297098033639998  32.265891913867002 -8.0054201784169994 -71.180344256040001  32.729079944058 -7.968008303995 -71.064700281390003  33.380743026634001 -7.8695353731589996 -70.904393065050002  33.568221555200999 -7.8359050731710003 -70.858550603430004  33.755772810887002 -7.7968650414000003 -70.812962015620002  33.943280203886999 -7.7523280633880001 -70.76765020018  34.130617142441999 -7.7022019613749997 -70.722639678700006  34.317647032834998 -7.6463895942929998 -70.677956595829997  34.749638128477997 -7.5037617402440002 -70.575321623069996  34.994259824745001 -7.4127227611480002 -70.517630991600001  35.237760582992003 -7.3114376939400003 -70.460618458829998  35.479763098086998 -7.1996638152679999 -70.404354861830001  35.719840131439 -7.0771524131600003 -70.348919963859998  35.957514097468 -6.9436512952080003 -70.294402177470005  36.486687391646001 -6.6173591184299996 -70.173789918140002  36.776466892857997 -6.4181475884100001 -70.108285643070005  37.060583936950998 -6.2007612042920002 -70.044569131260005  37.337796405603001 -5.9647328509069997 -69.982869443780004  37.606647422818 -5.7096887913080003 -69.923454700069996  37.865482997988998 -5.4353913409989998 -69.866627496190006  38.297165385873001 -4.9222132976099999 -69.772412373660003  38.475212992911999 -4.6918746831030003 -69.733741229450004  38.645831550223001 -4.45075870273 -69.696851910640007  38.808154162469997 -4.1989678276519999 -69.661903786630006  38.961248286653998 -3.9367301244849999 -69.629068281499997  39.104144237973998 -3.6644297910630002 -69.598523544610003  39.438251737582 -2.9497349273359998 -69.527314525289995  39.614485469248002 -2.4939859310000001 -69.489963607920004  39.760631891166 -2.0181310653289999 -69.459133923880003  39.873203363031998 -1.525762828113 -69.435466405059998  39.949427741423001 -1.021397388824 -69.419466852590006  39.987499999999997 -0.51054572181799995 -69.411475409830004  39.987499999999997 -1.7763568394e-15 -69.411475409830004 
 0 8 0.065234691124749999 6 0.10857377217 6 0.170429405166 6 0.22557596548700001 6 0.27322730534799999 6 0.425202304029 6 0.574058077517 6 0.63409842771699998 6 0.71307307617899995 6 0.81212867582500003 6 0.88620103516000004 6 1 8
2 0 0 -63.899999999999999 0 0 1 1 0 -0 -0 1 0 61
1 0 0 -79.900000000000006 0.96727962439129522 -2.3691517917837232e-16 0.25371268836507743 
1 0 0 -79.900000000000006 0.96727962439129522 -2.3691517917837232e-16 0.25371268836507743 
Polygon3D 0
PolygonOnTriangulations 0
Surfaces 18
3 0 0 -84.200000000000003 0 0 1 1 0 -0 -0 1 0 0
1.3142797141510001
1 0 0 -68.200000000000003 0 0 1 1 0 -0 -0 1 0 
2 32 0 -90.200000000000003 0 0 1 1 0 -0 -0 1 0 13.9375
1 32 0 -90.200000000000003 0 0 1 1 0 -0 -0 1 0 
2 0 0 -68.200000000000003 0 0 1 1 0 -0 -0 1 0 84.5
2 -62.698817064049997 -45.553357052659997 -69.200000000000003 0 0 1 1 0 -0 -0 1 0 3.25
2 -23.948817064050001 -73.706880012870002 -69.200000000000003 0 0 1 1 0 -0 -0 1 0 3.25
2 23.948817064058002 -73.706880012870002 -69.200000000000003 0 0 1 1 0 -0 -0 1 0 3.25
2 62.698817064057998 -45.553357052659997 -69.200000000000003 0 0 1 1 0 -0 -0 1 0 3.25
2 -77.5 9.4910126933919992e-15 -69.200000000000003 0 0 1 1 0 -0 -0 1 0 3.25
2 -62.698817064049997 45.553357052667003 -69.200000000000003 0 0 1 1 0 -0 -0 1 0 3.25
2 -23.948817064050001 73.706880012873995 -69.200000000000003 0 0 1 1 0 -0 -0 1 0 3.25
2 77.5 0 -69.200000000000003 0 0 1 1 0 -0 -0 1 0 3.25
2 23.948817064058002 73.706880012873995 -69.200000000000003 0 0 1 1 0 -0 -0 1 0 3.25
2 62.698817064057998 45.553357052667003 -69.200000000000003 0 0 1 1 0 -0 -0 1 0 3.25
2 32 0 -91.200000000000003 0 0 1 1 0 -0 -0 1 0 7.9874999999999998
1 0 0 -63.899999999999999 0 0 1 1 0 -0 -0 1 0 
3 0 0 -79.900000000000006 0 0 1 1 0 -0 -0 1 0 0
1.3142797141510001
Triangulations 0

TShapes 142
Ve
1e-07
45.9375 -7.332572709895e-15 -72.15081967213
0 0

0101101
*
Ve
1e-07
61 -1.49406909496e-14 -68.2
0 0

0101101
*
Ed
 1e-07 1 1 0
1  1 0 47.4914376790546 63.0634601017102
3  1 2CN 1 0 47.4914376790546 63.0634601017102
0

0101000
+142 0 -141 0 *
Ed
 1e-07 1 1 0
1  2 0 0 6.28318530717959
2  3 1 0 0 6.28318530717959
4 C0 1 0 2 0
0

0101100
+141 0 -141 0 *
Ve
1e-07
18.0625 -4.42403656192e-15 -79.46229508196
0 0

0101101
*
Ed
 1e-07 1 1 0
1  3 0 0 1
2  4 1 0 0 1
2  5 3 0 0 1
4 C0 1 0 3 0
0

0101000
+142 0 -138 0 *
Ve
1e-07
0 0 -84.2
0 0

0101101
*
Ed
 1e-07 1 1 0
1  4 0 0 18.6735040670041
3  6 7CN 1 0 0 18.6735040670041
0

0101000
+136 0 -138 0 *
Ed
 1e-07 1 1 1
2  8 1 0 0 6.28318530718
0

0101000
+136 0 -136 0 *
Ed
 1e-07 1 1 0
1  5 0 0 1
2  9 1 0 0 1
2  10 3 0 0 1
4 C0 1 0 3 0
0

0101000
+138 0 -142 0 *
Wi

0101100
+140 0 -139 0 -140 0 +137 0 -135 0 +134 0 +135 0 +133 0 *
Fa
0  1e-07 1 0

0111000
+132 0 *
Ve
1e-07
45.9375 -3.413702952623e-15 -90.2
0 0

0101101
*
Ed
 1e-07 1 1 0
1  6 0 0 18.04918032787
3  11 12CN 3 0 0 18.04918032787
0

0101000
+130 0 -142 0 *
Ed
 1e-07 1 1 0
1  7 0 0 6.28318530717959
2  13 3 0 0 6.28318530717959
4 C0 3 0 4 0
0

0101100
+130 0 -130 0 *
Wi

0101100
-137 0 -129 0 +128 0 +129 0 -133 0 *
Fa
0  1e-07 3 0

0111000
+127 0 *
Ve
1e-07
84.5 -2.069653090559e-14 -68.2
0 0

0101101
*
Ed
 1e-07 1 1 0
1  8 0 0 6.28318530717959
2  14 5 0 0 6.28318530717959
4 C0 2 0 5 0
0

0101100
+125 0 -125 0 *
Wi

0101100
+124 0 *
Ve
1e-07
-59.44881706405 -45.55335705266 -68.2
0 0

0101101
*
Ed
 1e-07 1 1 0
1  9 0 0 6.28318530717959
2  15 6 0 0 6.28318530717959
4 C0 2 0 6 0
0

0101100
+122 0 -122 0 *
Wi

0101100
-121 0 *
Ve
1e-07
-20.69881706405 -73.70688001287 -68.2
0 0

0101101
*
Ed
 1e-07 1 1 0
1  10 0 0 6.28318530717959
2  16 7 0 0 6.28318530717959
4 C0 2 0 7 0
0

0101100
+119 0 -119 0 *
Wi

0101100
-118 0 *
Ve
1e-07
27.198817064058 -73.70688001287 -68.2
0 0

0101101
*
Ed
 1e-07 1 1 0
1  11 0 0 6.28318530717959
2  17 8 0 0 6.28318530717959
4 C0 2 0 8 0
0

0101100
+116 0 -116 0 *
Wi

0101100
-115 0 *
Ve
1e-07
65.948817064058 -45.55335705266 -68.2
0 0

0101101
*
Ed
 1e-07 1 1 0
1  12 0 0 6.28318530717959
2  18 9 0 0 6.28318530717959
4 C0 2 0 9 0
0

0101100
+113 0 -113 0 *
Wi

0101100
-112 0 *
Ve
1e-07
-74.25 8.694992273946e-15 -68.2
0 0

0101101
*
Ed
 1e-07 1 1 0
1  13 0 0 6.28318530717959
2  19 10 0 0 6.28318530717959
4 C0 2 0 10 0
0

0101100
+110 0 -110 0 *
Wi

0101100
-109 0 *
Ve
1e-07
-59.44881706405 45.553357052667 -68.2
0 0

0101101
*
Ed
 1e-07 1 1 0
1  14 0 0 6.28318530717959
2  20 11 0 0 6.28318530717959
4 C0 2 0 11 0
0

0101100
+107 0 -107 0 *
Wi

0101100
-106 0 *
Ve
1e-07
-20.69881706405 73.706880012874 -68.2
0 0

0101101
*
Ed
 1e-07 1 1 0
1  15 0 0 6.28318530717959
2  21 12 0 0 6.28318530717959
4 C0 2 0 12 0
0

0101100
+104 0 -104 0 *
Wi

0101100
-103 0 *
Wi

0101100
-139 0 *
Ve
1e-07
80.75 -7.960204194458e-16 -68.2
0 0

0101101
*
Ed
 1e-07 1 1 0
1  16 0 0 6.28318530717959
2  22 13 0 0 6.28318530717959
4 C0 2 0 13 0
0

0101100
+100 0 -100 0 *
Wi

0101100
-99 0 *
Ve
1e-07
27.198817064058 73.706880012874 -68.2
0 0

0101101
*
Ed
 1e-07 1 1 0
1  17 0 0 6.28318530717959
2  23 14 0 0 6.28318530717959
4 C0 2 0 14 0
0

0101100
+97 0 -97 0 *
Wi

0101100
-96 0 *
Ve
1e-07
65.948817064058 45.553357052667 -68.2
0 0

0101101
*
Ed
 1e-07 1 1 0
1  18 0 0 6.28318530717959
2  24 15 0 0 6.28318530717959
4 C0 2 0 15 0
0

0101100
+94 0 -94 0 *
Wi

0101100
-93 0 *
Fa
0  1e-07 2 0

0111000
+123 0 +120 0 +117 0 +114 0 +111 0 +108 0 +105 0 +102 0 +101 0 +98 0 
+95 0 +92 0 *
Wi

0101100
+128 0 *
Ve
1e-07
39.9875 -1.956373261638e-15 -90.2
0 0

0101101
*
Ed
 1e-07 1 1 0
1  19 0 0 6.28318530717959
2  25 16 0 0 6.28318530717959
4 C0 4 0 16 0
0

0101100
+89 0 -89 0 *
Wi

0101100
-88 0 *
Fa
0  1e-07 4 0

0111000
+90 0 +87 0 *
Ve
1e-07
84.5 -2.069653090559e-14 -63.9
0 0

0101101
*
Ed
 1e-07 1 1 0
1  20 0 0 6.28318530717959
2  26 5 0 0 6.28318530717959
4 C0 5 0 17 0
0

0101100
+85 0 -85 0 *
Ed
 1e-07 1 1 0
1  21 0 0 4.3
3  27 28CN 5 0 0 4.3
0

0101000
+125 0 -85 0 *
Wi

0101100
-84 0 -83 0 +124 0 +83 0 *
Fa
0  1e-07 5 0

0111000
+82 0 *
Ve
1e-07
-59.44881706405 -45.55335705266 -63.9
0 0

0101101
*
Ed
 1e-07 1 1 0
1  22 0 0 6.28318530717959
2  29 6 0 0 6.28318530717959
4 C0 6 0 17 0
0

0101100
+80 0 -80 0 *
Ed
 1e-07 1 1 0
1  23 0 1 5.3
3  30 31CN 6 0 1 5.3
0

0101000
+122 0 -80 0 *
Wi

0101100
-79 0 -78 0 +121 0 +78 0 *
Fa
0  1e-07 6 0

0111000
+77 0 *
Ve
1e-07
-20.69881706405 -73.70688001287 -63.9
0 0

0101101
*
Ed
 1e-07 1 1 0
1  24 0 0 6.28318530717959
2  32 7 0 0 6.28318530717959
4 C0 7 0 17 0
0

0101100
+75 0 -75 0 *
Ed
 1e-07 1 1 0
1  25 0 1 5.3
3  33 34CN 7 0 1 5.3
0

0101000
+119 0 -75 0 *
Wi

0101100
-74 0 -73 0 +118 0 +73 0 *
Fa
0  1e-07 7 0

0111000
+72 0 *
Ve
1e-07
27.198817064058 -73.70688001287 -63.9
0 0

0101101
*
Ed
 1e-07 1 1 0
1  26 0 0 6.28318530717959
2  35 8 0 0 6.28318530717959
4 C0 8 0 17 0
0

0101100
+70 0 -70 0 *
Ed
 1e-07 1 1 0
1  27 0 1 5.3
3  36 37CN 8 0 1 5.3
0

0101000
+116 0 -70 0 *
Wi

0101100
-69 0 -68 0 +115 0 +68 0 *
Fa
0  1e-07 8 0

0111000
+67 0 *
Ve
1e-07
65.948817064058 -45.55335705266 -63.9
0 0

0101101
*
Ed
 1e-07 1 1 0
1  28 0 0 6.28318530717959
2  38 9 0 0 6.28318530717959
4 C0 9 0 17 0
0

0101100
+65 0 -65 0 *
Ed
 1e-07 1 1 0
1  29 0 1 5.3
3  39 40CN 9 0 1 5.3
0

0101000
+113 0 -65 0 *
Wi

0101100
-64 0 -63 0 +112 0 +63 0 *
Fa
0  1e-07 9 0

0111000
+62 0 *
Ve
1e-07
-74.25 8.694992273946e-15 -63.9
0 0

0101101
*
Ed
 1e-07 1 1 0
1  30 0 0 6.28318530717959
2  41 10 0 0 6.28318530717959
4 C0 10 0 17 0
0

0101100
+60 0 -60 0 *
Ed
 1e-07 1 1 0
1  31 0 1 5.3
3  42 43CN 10 0 1 5.3
0

0101000
+110 0 -60 0 *
Wi

0101100
-59 0 -58 0 +109 0 +58 0 *
Fa
0  1e-07 10 0

0111000
+57 0 *
Ve
1e-07
-59.44881706405 45.553357052667 -63.9
0 0

0101101
*
Ed
 1e-07 1 1 0
1  32 0 0 6.28318530717959
2  44 11 0 0 6.28318530717959
4 C0 11 0 17 0
0

0101100
+55 0 -55 0 *
Ed
 1e-07 1 1 0
1  33 0 1 5.3
3  45 46CN 11 0 1 5.3
0

0101000
+107 0 -55 0 *
Wi

0101100
-54 0 -53 0 +106 0 +53 0 *
Fa
0  1e-07 11 0

0111000
+52 0 *
Ve
1e-07
-20.69881706405 73.706880012874 -63.9
0 0

0101101
*
Ed
 1e-07 1 1 0
1  34 0 0 6.28318530717959
2  47 12 0 0 6.28318530717959
4 C0 12 0 17 0
0

0101100
+50 0 -50 0 *
Ed
 1e-07 1 1 0
1  35 0 1 5.3
3  48 49CN 12 0 1 5.3
0

0101000
+104 0 -50 0 *
Wi

0101100
-49 0 -48 0 +103 0 +48 0 *
Fa
0  1e-07 12 0

0111000
+47 0 *
Ve
1e-07
80.75 -7.960204194458e-16 -63.9
0 0

0101101
*
Ed
 1e-07 1 1 0
1  36 0 0 6.28318530717959
2  50 13 0 0 6.28318530717959
4 C0 13 0 17 0
0

0101100
+45 0 -45 0 *
Ed
 1e-07 1 1 0
1  37 0 1 5.3
3  51 52CN 13 0 1 5.3
0

0101000
+100 0 -45 0 *
Wi

0101100
-44 0 -43 0 +99 0 +43 0 *
Fa
0  1e-07 13 0

0111000
+42 0 *
Ve
1e-07
27.198817064058 73.706880012874 -63.9
0 0

0101101
*
Ed
 1e-07 1 1 0
1  38 0 0 6.28318530717959
2  53 14 0 0 6.28318530717959
4 C0 14 0 17 0
0

0101100
+40 0 -40 0 *
Ed
 1e-07 1 1 0
1  39 0 1 5.3
3  54 55CN 14 0 1 5.3
0

0101000
+97 0 -40 0 *
Wi

0101100
-39 0 -38 0 +96 0 +38 0 *
Fa
0  1e-07 14 0

0111000
+37 0 *
Ve
1e-07
65.948817064058 45.553357052667 -63.9
0 0

0101101
*
Ed
 1e-07 1 1 0
1  40 0 0 6.28318530717959
2  56 15 0 0 6.28318530717959
4 C0 15 0 17 0
0

0101100
+35 0 -35 0 *
Ed
 1e-07 1 1 0
1  41 0 1 5.3
3  57 58CN 15 0 1 5.3
0

0101000
+94 0 -35 0 *
Wi

0101100
-34 0 -33 0 +93 0 +33 0 *
Fa
0  1e-07 15 0

0111000
+32 0 *
Ve
1e-07
39.9875 -5.875243018909e-15 -69.41147540983
0 0

0101101
*
Ve
1e-07
24.0125 -5.881366252905e-15 -73.60163934426
0 0

0101101
*
Ed
 1e-07 1 1 0
1  42 0 0 1
2  59 16 0 0 1
2  60 18 0 0 1
4 C0 16 0 18 0
0

0101000
+30 0 -29 0 *
Ed
 1e-07 1 1 0
1  43 0 1 21.78852459017
3  61 62CN 16 0 1 21.78852459017
0

0101000
+89 0 -30 0 *
Ed
 1e-07 1 1 0
1  44 0 0 1
2  63 16 0 0 1
2  64 18 0 0 1
4 C0 16 0 18 0
0

0101000
+29 0 -30 0 *
Wi

0101100
-28 0 -27 0 +88 0 +27 0 -26 0 *
Fa
0  1e-07 16 0

0111000
+25 0 *
Wi

0101100
+84 0 *
Wi

0101100
-79 0 *
Wi

0101100
-74 0 *
Wi

0101100
-69 0 *
Wi

0101100
-64 0 *
Wi

0101100
-59 0 *
Wi

0101100
-54 0 *
Wi

0101100
-49 0 *
Ve
1e-07
61 -1.49406909496e-14 -63.9
0 0

0101101
*
Ed
 1e-07 1 1 0
1  45 0 0 6.28318530717959
2  65 18 0 0 6.28318530717959
4 C0 17 0 18 0
0

0101100
+15 0 -15 0 *
Wi

0101100
-14 0 *
Wi

0101100
-44 0 *
Wi

0101100
-39 0 *
Wi

0101100
-34 0 *
Fa
0  1e-07 17 0

0111000
+23 0 +22 0 +21 0 +20 0 +19 0 +18 0 +17 0 +16 0 +13 0 +12 0 
+11 0 +10 0 *
Ed
 1e-07 1 1 0
1  46 0 41.3401657511022 63.0634601017102
3  66 67CN 18 0 41.3401657511022 63.0634601017102
0

0101000
+30 0 -15 0 *
Ve
1e-07
0 0 -79.9
0 0

0101101
*
Ed
 1e-07 1 1 0
1  47 0 0 24.8247759949566
3  68 69CN 18 0 0 24.8247759949566
0

0101000
+7 0 -29 0 *
Ed
 1e-07 1 1 1
2  70 18 0 0 6.28318530718
0

0101000
+7 0 -7 0 *
Wi

0101100
+8 0 -14 0 -8 0 +28 0 -6 0 +5 0 +6 0 +26 0 *
Fa
0  1e-07 18 0

0111000
+4 0 *
Sh

0101100
+131 0 +126 0 -91 0 -86 0 +81 0 -76 0 -71 0 -66 0 -61 0 -56 0 
-51 0 -46 0 -41 0 -36 0 -31 0 -24 0 +9 0 -3 0 *
So

0100000
+2 0 *

+1 0 