DBRep_DrawableShape

CASCADE Topology V1, (c) Matra-Datavision
Locations 22
1
              1               0               0               0 
              0               1               0               0 
              0               0               1               0 
1
              1               0               0               0 
              0               0              -1               0 
              0               1               0               0 
1
              1               0               0               0 
              0               1               0               0 
              0               0               1               0 
2  3 -1 2 -1 0
2  3 -1 0
2  2 -1 0
1
              1               0               0               0 
              0               1               0               0 
              0               0               1            24.9 
2  3 -1 7 -1 0
1
              1               0               0               0 
              0               1               0               0 
              0               0               1            24.9 
2  3 -1 9 -1 0
1
              1               0               0               0 
              0               1               0               0 
              0               0               1            24.9 
2  3 -1 11 -1 0
1
              1               0               0               0 
              0               1               0               0 
              0               0               1            24.9 
2  3 -1 13 -1 0
1
              1               0               0               0 
              0               1               0               0 
              0               0               1            24.9 
2  3 -1 15 -1 0
1
              1               0               0               0 
              0               1               0               0 
              0               0               1            24.9 
2  3 -1 17 -1 0
1
              1               0               0               0 
              0               1               0               0 
              0               0               1            24.9 
2  3 -1 19 -1 0
1
              1               0               0               0 
              0               1               0               0 
              0               0               1            24.9 
2  3 -1 21 -1 0
Curve2ds 148
1 6.2831853071795862 0 0 1 
1 0 0 0 1 
1 0 63.063460101710248 1 0 
1 0 0 1 0 
1 0 0 1 0 
1 1.5707963267948966 20.676544295642714 -1 0 
1 -0.087266462599716377 -35.345901639344262 1 0 
1 1.4835298641951802 6.7000000000000004e-16 0 1 
1 0.087266462599716446 6.7000000000000004e-16 0 1 
7 0 0  8 16 3  0.087266462599716599 58.928151242581698  0.17644877767256367 58.928151242581698  0.26566952841030561 58.928151242581706  0.35486853945703845 58.928151242581727  0.44405090613553821 58.928151242581635  0.53323342620497294 58.928151242581791  0.62243289783298861 58.928151242581663  0.71165341470326471 58.928151242581713  0.88615914950762598 58.928151242581713  0.97151590792315656 58.928151242581649  1.05685585863572 58.928151242581826  1.1421820527866984 58.928151242581585  1.2275082470019452 58.92815124258177  1.3128481978472351 58.928151242581656  1.3982049563479446 58.928151242581698  1.4835298641951802 58.928151242581698 
 0 9 0.51104811312218268 7 1 9
7 0 0  8 16 3  1.0000000000000001e-17 -45.050819672131126  0.08918231507284706 -45.050819672131126  0.17840306581052479 -45.050819672131105  0.2676020768575097 -45.050819672131219  0.35678444353558569 -45.050819672130977  0.44596696360540555 -45.050819672131183  0.53516643523323226 -45.050819672131098  0.62438695210354844 -45.050819672131126  0.79889268690790982 -45.050819672131126  0.8842494453234595 -45.050819672131041  0.96958939603593941 -45.050819672131411  1.0549155901870724 -45.050819672130729  1.1402417844021708 -45.050819672131411  1.2255817352475344 -45.05081967213092  1.3109384937482287 -45.050819672131126  1.3962634015954642 -45.050819672131126 
 0 9 0.51104811312218268 7 1 9
1 7.8539816339744828 20.676544295642714 -1 0 
1 -4.7996554429844061 -35.345901639344262 1 0 
1 3.0543261909900767 6.7000000000000004e-16 0 1 
1 1.6580627893946132 6.7000000000000004e-16 0 1 
7 0 0  8 16 3  1.6580627893946132 58.928151242581698  1.7472451044665855 58.928151242581698  1.8364658552082811 58.928151242581698  1.9256648662462525 58.92815124258172  2.0148472329369804 58.928151242581649  2.1040297529949892 58.928151242581755  2.1932292246301763 58.928151242581677  2.2824497414975911 58.928151242581713  2.4569554763026842 58.928151242581713  2.5423122347167353 58.928151242581677  2.6276521854340777 58.928151242581713  2.7129783795769455 58.928151242581748  2.7983045738003138 58.928151242581642  2.8836445246407942 58.928151242581713  2.9690012831430188 58.928151242581691  3.0543261909900767 58.928151242581691 
 0 9 0.51104811312330789 7 1 9
7 0 0  8 16 3  1.0000000000000001e-17 -45.050819672131098  0.089182315071972371 -45.050819672131098  0.17840306581363341 -45.050819672131091  0.26760207685176352 -45.050819672131105  0.35678444354217365 -45.050819672131141  0.44596696360052945 -45.050819672130984  0.53516643523551111 -45.050819672131183  0.62438695210297823 -45.050819672131126  0.79889268690807114 -45.050819672131126  0.88424944532222427 -45.050819672131148  0.96958939603915062 -45.050819672130977  1.0549155901827563 -45.050819672131354  1.1402417844054131 -45.050819672130899  1.2255817352462659 -45.050819672131148  1.3109384937484065 -45.050819672131126  1.3962634015954642 -45.050819672131126 
 0 9 0.51104811312330789 7 1 9
1 7.8539816339744828 20.676544295642714 -1 0 
1 -3.2288591161895095 -35.345901639344262 1 0 
1 4.6251225177849733 4.4e-16 0 1 
1 3.2288591161895095 6.7000000000000004e-16 0 1 
7 0 0  8 16 3  3.228859116189509 58.928151242581691  3.318041431261979 58.928151242581691  3.4072621820018734 58.928151242581784  3.4964611930428915 58.928151242581542  3.5856435597303506 58.928151242581855  3.6748260797909449 58.92815124258162  3.7640255514244547 58.92815124258172  3.8532460682927101 58.928151242581698  4.0277518030976145 58.928151242581698  4.1131085615117504 58.928151242581713  4.1984485122287758 58.928151242581677  4.2837747063715721 58.928151242581706  4.3691009005959991 58.928151242581698  4.4544408514350202 58.928151242581684  4.5397976099381427 58.928151242581691  4.6251225177849733 58.928151242581691 
 0 9 0.51104811312258303 7 1 9
7 0 0  8 16 3  1.0000000000000001e-17 -45.050819672131126  0.089182315072470042 -45.050819672131126  0.17840306581230994 -45.050819672131126  0.26760207685353954 -45.050819672131034  0.35678444354064454 -45.050819672131198  0.44596696360155952 -45.050819672131126  0.53516643523491292 -45.050819672131112  0.62438695210320128 -45.050819672131126  0.79889268690810544 -45.050819672131126  0.88424944532213945 -45.050819672131084  0.96958939603959249 -45.050819672131169  1.0549155901816172 -45.05081967213102  1.140241784406792 -45.050819672131219  1.2255817352454268 -45.050819672131098  1.3109384937486337 -45.050819672131126  1.3962634015954642 -45.050819672131126 
 0 9 0.51104811312258303 7 1 9
1 7.8539816339744828 20.676544295642714 -1 0 
1 -1.6580627893946129 -35.345901639344262 1 0 
1 6.1959188445798699 6.7000000000000004e-16 0 1 
1 4.7996554429844061 6.7000000000000004e-16 0 1 
7 0 0  8 16 3  4.7996554429844061 58.928151242581691  4.8888377580571021 58.928151242581691  4.9780585087957494 58.928151242581741  5.0672575198398953 58.92815124258162  5.1564398865228602 58.928151242581755  5.2456224065873194 58.928151242581677  5.3348218782189241 58.928151242581691  5.4240423950876266 58.928151242581698  5.5985481298928805 58.928151242581698  5.6839048883051833 58.928151242581677  5.7692448390264088 58.928151242581748  5.8545710331635483 58.928151242581642  5.9398972273928221 58.928151242581727  6.0252371782290943 58.928151242581691  6.110593936733256 58.928151242581706  6.1959188445798699 58.928151242581706 
 0 9 0.51104811312144627 7 1 9
7 0 0  8 16 3  0 -45.050819672131126  0.089182315072696305 -45.050819672131126  0.17840306581133727 -45.050819672131148  0.26760207685551207 -45.050819672131055  0.35678444353841809 -45.050819672131219  0.44596696360294397 -45.050819672131084  0.53516643523450635 -45.050819672131119  0.62438695210322104 -45.050819672131112  0.79889268690847426 -45.050819672131112  0.88424944532071748 -45.050819672131141  0.96958939604221572 -45.050819672131155  1.0549155901788132 -45.050819672131041  1.1402417844086692 -45.050819672131219  1.2255817352446041 -45.050819672131084  1.3109384937488495 -45.050819672131126  1.3962634015954634 -45.050819672131126 
 0 9 0.51104811312144627 7 1 9
1 6.2831853071795862 0 0 1 
1 0 0 0 1 
1 0 2 1 0 
1 0 2 1 0 
1 1.3962634015954629 0 0 -1 
1 -0.087266462599716377 -37.345901639344262 1 0 
1 1.5707963267948966 42.38691580606752 -1 0 
1 0 0 0 -1 
1 1.4835298641951802 63.063460101710241 0 -1 
1 1.3962634015954642 0 0 -1 
1 0 0 0 -1 
1 0.087266462599716446 63.063460101710241 0 -1 
7 0 0  8 16 3  1.0000000000000001e-17 -47.050819672131084  0.08918231507284706 -47.050819672131084  0.17840306581052479 -47.050819672131091  0.2676020768575097 -47.050819672131162  0.35678444353558569 -47.050819672130991  0.44596696360540555 -47.050819672131126  0.53516643523323226 -47.050819672131077  0.62438695210354844 -47.050819672131084  0.79889268690790982 -47.050819672131084  0.8842494453234595 -47.050819672130935  0.96958939603593941 -47.050819672131659  1.0549155901870724 -47.050819672130089  1.1402417844021708 -47.050819672132036  1.2255817352475344 -47.050819672130565  1.3109384937482287 -47.050819672131148  1.3962634015954642 -47.050819672131148 
 0 9 0.51104811312218268 7 1 9
7 0 0  8 16 3  0.087266462599716599 4.1353088591285569  0.17644877767256367 4.1353088591285552  0.26566952841030561 4.1353088591285552  0.35486853945703845 4.1353088591285028  0.44405090613553821 4.135308859128644  0.53323342620497294 4.1353088591284628  0.62243289783298861 4.1353088591285871  0.71165341470326471 4.135308859128541  0.88615914950762598 4.135308859128541  0.97151590792315701 4.13530885912862  1.0568558586357202 4.1353088591283518  1.1421820527866962 4.1353088591288216  1.2275082470019474 4.1353088591283145  1.3128481978472342 4.1353088591286751  1.3982049563479446 4.1353088591285374  1.4835298641951802 4.1353088591285392 
 0 9 0.51104811312218268 7 1 9
1 1.3962634015954634 0 0 -1 
1 -4.7996554429844061 -37.345901639344262 1 0 
1 7.8539816339744828 42.38691580606752 -1 0 
1 0 0 0 -1 
1 3.0543261909900767 63.063460101710241 0 -1 
1 1.3962634015954642 0 0 -1 
1 0 0 0 -1 
1 1.6580627893946132 63.063460101710241 0 -1 
7 0 0  8 16 3  1.0000000000000001e-17 -47.050819672131077  0.089182315071972371 -47.050819672131077  0.17840306581363341 -47.050819672131077  0.26760207685176352 -47.05081967213107  0.35678444354217365 -47.050819672131105  0.44596696360052945 -47.050819672131034  0.53516643523551111 -47.050819672131105  0.62438695210297823 -47.050819672131084  0.79889268690807114 -47.050819672131084  0.88424944532222427 -47.050819672130963  0.96958939603915062 -47.05081967213156  1.0549155901827563 -47.050819672130231  1.1402417844054131 -47.050819672131944  1.2255817352462659 -47.050819672130608  1.3109384937484065 -47.050819672131148  1.3962634015954642 -47.050819672131148 
 0 9 0.51104811312330789 7 1 9
7 0 0  8 16 3  1.6580627893946132 4.1353088591285507  1.7472451044665855 4.1353088591285498  1.8364658552082815 4.1353088591285481  1.9256648662462506 4.1353088591285303  2.0148472329369831 4.1353088591286022  2.104029752994987 4.1353088591284797  2.1932292246301772 4.1353088591285845  2.2824497414975911 4.1353088591285418  2.4569554763026842 4.135308859128541  2.5423122347167353 4.1353088591286111  2.6276521854340782 4.13530885912839  2.7129783795769447 4.1353088591287968  2.7983045738003147 4.1353088591283313  2.8836445246407933 4.1353088591286742  2.9690012831430188 4.1353088591285454  3.0543261909900767 4.1353088591285472 
 0 9 0.51104811312330789 7 1 9
1 1.3962634015954642 0 0 -1 
1 -3.2288591161895095 -37.345901639344262 1 0 
1 7.8539816339744828 42.38691580606752 -1 0 
1 0 0 0 -1 
1 4.6251225177849733 63.063460101710241 0 -1 
1 1.3962634015954642 0 0 -1 
1 0 0 0 -1 
1 3.2288591161895095 63.063460101710241 0 -1 
7 0 0  8 16 3  1.0000000000000001e-17 -47.050819672131077  0.089182315072470042 -47.050819672131077  0.17840306581230994 -47.050819672131091  0.26760207685353954 -47.050819672131006  0.35678444354064454 -47.050819672131198  0.44596696360155952 -47.050819672131034  0.53516643523491292 -47.050819672131091  0.62438695210320128 -47.050819672131084  0.79889268690810544 -47.050819672131084  0.88424944532213945 -47.050819672130963  0.96958939603959249 -47.050819672131482  1.0549155901816172 -47.050819672130324  1.140241784406792 -47.05081967213188  1.2255817352454268 -47.0508196721307  1.3109384937486337 -47.050819672131148  1.3962634015954642 -47.050819672131148 
 0 9 0.51104811312258303 7 1 9
7 0 0  8 16 3  3.228859116189509 4.1353088591285658  3.318041431261979 4.1353088591285667  3.4072621820018734 4.1353088591284779  3.4964611930428915 4.1353088591287159  3.5856435597303506 4.1353088591283926  3.6748260797909449 4.135308859128636  3.7640255514244547 4.1353088591285392  3.8532460682927101 4.1353088591285561  4.0277518030976145 4.1353088591285614  4.1131085615117504 4.1353088591285783  4.1984485122287758 4.1353088591284743  4.2837747063715721 4.1353088591287523  4.3691009005959991 4.1353088591283482  4.4544408514350202 4.1353088591286715  4.5397976099381427 4.1353088591285481  4.6251225177849733 4.135308859128549 
 0 9 0.51104811312258303 7 1 9
1 1.396263401595464 0 0 -1 
1 -1.6580627893946129 -37.345901639344262 1 0 
1 7.8539816339744828 42.38691580606752 -1 0 
1 0 0 0 -1 
1 6.1959188445798699 63.063460101710241 0 -1 
1 1.3962634015954634 0 0 -1 
1 0 0 0 -1 
1 4.7996554429844061 63.063460101710241 0 -1 
7 0 0  8 16 3  0 -47.050819672131098  0.089182315072696305 -47.050819672131098  0.17840306581133727 -47.050819672131112  0.26760207685551207 -47.050819672131055  0.35678444353841809 -47.050819672131126  0.44596696360294397 -47.050819672131134  0.53516643523450635 -47.050819672131055  0.62438695210322104 -47.050819672131077  0.79889268690847426 -47.050819672131077  0.88424944532071748 -47.050819672130935  0.96958939604221572 -47.050819672131702  1.0549155901788132 -47.050819672129954  1.1402417844086692 -47.050819672132214  1.2255817352446041 -47.050819672130544  1.3109384937488495 -47.050819672131148  1.3962634015954634 -47.050819672131148 
 0 9 0.51104811312144627 7 1 9
7 0 0  8 16 3  4.7996554429844061 4.1353088591285623  4.8888377580571021 4.1353088591285632  4.9780585087957494 4.135308859128509  5.0672575198398944 4.1353088591286467  5.156439886522862 4.1353088591284886  5.2456224065873176 4.1353088591285747  5.334821878218925 4.1353088591285703  5.4240423950876266 4.1353088591285605  5.5985481298928805 4.1353088591285605  5.6839048883051841 4.1353088591286271  5.7692448390264035 4.1353088591283313  5.8545710331635554 4.1353088591289158  5.9398972273928177 4.1353088591282283  6.0252371782290952 4.1353088591287062  6.110593936733256 4.1353088591285347  6.1959188445798699 4.1353088591285339 
 0 9 0.51104811312144627 7 1 9
1 6.2831853071795862 -0 0 1 
1 0 -0 0 1 
1 0 32.899999999999999 1 0 
1 0 3.9999999999999929 1 0 
1 2.4085543677521746 0 0 1 
1 3.0892327760299634 0 0 1 
1 0 28.899999999999991 1 0 
1 0 3.9999999999999929 1 0 
1 3.1939525311496224 0 0 1 
1 3.8746309394274112 0 0 1 
1 0 28.899999999999991 1 0 
1 0 4 1 0 
1 0.05235987755982989 0 0 1 
1 0.73303828583761843 0 0 1 
1 0 28.899999999999999 1 0 
1 0 4.0000000000000071 1 0 
1 0.83775804095727813 0 0 1 
1 1.5184364492350666 0 0 1 
1 0 28.900000000000006 1 0 
1 0 4.0000000000000071 1 0 
1 1.6231562043547265 0 0 1 
1 2.3038346126325151 0 0 1 
1 0 28.900000000000006 1 0 
1 0 4.0000000000000071 1 0 
1 3.9793506945470711 0 0 1 
1 4.6600291028248595 0 0 1 
1 0 28.900000000000006 1 0 
1 0 4 1 0 
1 4.7647488579445199 0 0 1 
1 5.4454272662223078 0 0 1 
1 0 28.899999999999999 1 0 
1 0 4.0000000000000071 1 0 
1 5.5501470213419681 0 0 1 
1 6.2308254296197561 0 0 1 
1 0 28.900000000000006 1 0 
1 -1.5707963267948966 2.0676544295642714 1 0 
1 -1.5707963267948966 2.4754098360655803 1 0 
1 6.2831853071795862 0 0 1 
1 0 0 0 1 
1 0 63.063460101710248 1 0 
1 0 33.900000000000006 1 0 
1 0 5 1 0 
1 2.4085543677521746 0 0 1 
1 3.0892327760299634 0 0 1 
1 0 29.899999999999999 1 0 
1 0 5 1 0 
1 3.1939525311496224 0 0 1 
1 3.8746309394274112 0 0 1 
1 0 29.899999999999999 1 0 
1 0 5.0000000000000071 1 0 
1 0.05235987755982989 0 0 1 
1 0.73303828583761843 0 0 1 
1 0 29.900000000000006 1 0 
1 0 5.0000000000000142 1 0 
1 0.83775804095727824 0 0 1 
1 1.5184364492350666 0 0 1 
1 0 29.900000000000013 1 0 
1 0 5.0000000000000142 1 0 
1 1.6231562043547265 0 0 1 
1 2.3038346126325151 0 0 1 
1 0 29.900000000000013 1 0 
1 0 5.0000000000000142 1 0 
1 3.9793506945470716 0 0 1 
1 4.6600291028248595 0 0 1 
1 0 29.900000000000013 1 0 
1 0 5.0000000000000071 1 0 
1 4.7647488579445199 0 0 1 
1 5.4454272662223069 0 0 1 
1 0 29.900000000000006 1 0 
1 0 5.0000000000000142 1 0 
1 5.5501470213419681 0 0 1 
1 6.2308254296197561 0 0 1 
1 0 29.900000000000013 1 0 
1 6.2831853071795862 -0 0 1 
1 0 -0 0 1 
Curves 154
1 0 -79.900000000000006 0 0.96727962439133142 0.25371268836493954 0 
2 0 -63.899999999999999 0 -0 1 0 1 0 0 0 0 -1 61
2 0 -8.8699999999999994e-15 -74.654098360655738 0 0 -1 0 1 0 1 -0 0 20.000000000000007
1 0 -8.8699999999999994e-15 -79.900000000000006 0.084303974108502266 0.96359883339081942 0.25371268836493949 
1 0 -8.8699999999999994e-15 -79.900000000000006 0.96359883339081942 0.084303974108502308 0.2537126883649396 
7 0 0  8 16 3  56.783097791229494 4.9678773366165156 -64.949180327868874  56.340050989352108 10.031925454646229 -64.949180327868874  55.3806714757931 15.053001507835539 -64.949180327868902  53.909853778447861 19.966230706101371 -64.949180327868774  51.94287363836677 24.711236068287953 -64.949180327869016  49.502279753697032 29.230938082256863 -64.949180327868817  46.618121316003268 33.471814545933753 -64.949180327868902  43.327651656683088 37.383881728590381 -64.949180327868874  36.186455980992939 44.307947685725502 -64.949180327868874  32.363312688381818 47.354256974699297 -64.949180327868959  28.249032454999394 50.021399940980622 -64.949180327868589  23.888063746688879 52.277777654979168 -64.949180327869271  19.327763323829458 54.097928349946166 -64.949180327868589  14.618377755194198 55.462714446362064 -64.949180327869072  9.812889922933735 56.359214115286314 -64.949180327868874  4.9678773366165192 56.783097791229487 -64.949180327868874 
 0 9 0.51104811312218268 7 1 9
2 0 -8.8699999999999994e-15 -74.654098360655738 0 0 -1 0 1 0 1 -0 0 20.000000000000004
1 0 -8.8699999999999994e-15 -79.900000000000006 -0.96359883339081942 0.084303974108502336 0.2537126883649396 
1 0 -8.8699999999999994e-15 -79.900000000000006 -0.084303974108502364 0.96359883339081942 0.25371268836493949 
7 0 0  8 16 3  -4.9678773366165174 56.783097791229494 -64.949180327868874  -10.031925454596561 56.340050989356449 -64.949180327868874  -15.053001508037319 55.380671475763805 -64.949180327869101  -19.966230705698052 53.90985377853459 -64.949180327868532  -24.711236068759874 51.942873638223524 -64.949180327869215  -29.230938081925679 49.502279753837932 -64.949180327868817  -33.471814546064714 46.618121315921854 -64.949180327868859  -37.383881728567758 43.327651656706422 -64.949180327868874  -44.307947685731904 36.186455980986338 -64.949180327868874  -47.354256974677028 32.363312688418262 -64.949180327868845  -50.021399941019226 28.24903245491214 -64.94918032786903  -52.277777654940309 23.888063746806061 -64.949180327868646  -54.097928349969138 19.32776332373485 -64.949180327869101  -55.462714446354788 14.618377755238766 -64.949180327868845  -56.359214115287202 9.8128899229236346 -64.949180327868874  -56.783097791229487 4.9678773366165156 -64.949180327868874 
 0 9 0.51104811312330789 7 1 9
2 0 -8.8699999999999994e-15 -74.654098360655738 0 0 -1 0 1 0 1 -0 0 19.999999999999996
1 0 -8.8699999999999994e-15 -79.900000000000006 -0.084303974108502364 -0.96359883339081931 0.25371268836493971 
1 0 -8.8699999999999994e-15 -79.900000000000006 -0.96359883339081942 -0.084303974108502086 0.2537126883649396 
7 0 0  8 16 3  -56.783097791229494 -4.9678773366165032 -64.949180327868874  -56.340050989353976 -10.031925454624805 -64.949180327868874  -55.380671475761922 -15.053001507924165 -64.949180327868874  -53.90985377854981 -19.966230705920836 -64.949180327868959  -51.94287363820586 -24.711236068504121 -64.949180327868802  -49.502279753837939 -29.230938082099577 -64.949180327868874  -46.618121315935973 -33.471814546000587 -64.949180327868888  -43.327651656697299 -37.383881728576597 -64.949180327868874  -36.186455980984938 -44.307947685733254 -64.949180327868874  -32.363312688437688 -47.35425697467403 -64.949180327868916  -28.249032454844951 -50.02139994102783 -64.949180327868831  -23.888063746920253 -52.277777654923639 -64.949180327868973  -19.327763323628076 -54.09792834998521 -64.949180327868788  -14.618377755293317 -55.462714446347519 -64.949180327868902  -9.8128899229107418 -56.359214115288331 -64.949180327868874  -4.9678773366165245 -56.783097791229494 -64.949180327868874 
 0 9 0.51104811312258303 7 1 9
2 0 -8.8699999999999994e-15 -74.654098360655738 0 0 -1 0 1 0 1 -0 0 19.999999999999996
1 0 -8.8699999999999994e-15 -79.900000000000006 0.96359883339081931 -0.084303974108502447 0.25371268836493954 
1 0 -8.8699999999999994e-15 -79.900000000000006 0.084303974108502031 -0.96359883339081942 0.25371268836493976 
7 0 0  8 16 3  4.9678773366164997 -56.783097791229501 -64.949180327868874  10.031925454637657 -56.340050989352861 -64.949180327868874  15.053001507876289 -55.38067147577469 -64.949180327868845  19.966230706006563 -53.909853778513131 -64.949180327868945  24.711236068418035 -51.942873638256088 -64.949180327868774  29.230938082147194 -49.502279753802277 -64.949180327868916  33.47181454598811 -46.618121315947697 -64.949180327868874  37.383881728577407 -43.327651656696474 -64.949180327868888  44.307947685747919 -36.186455980969825 -64.949180327868888  47.354256974616945 -32.363312688504166 -64.949180327868859  50.021399941133097 -28.249032454703865 -64.949180327868845  52.277777654814415 -23.888063747093817 -64.949180327868959  54.09792835004906 -19.327763323498296 -64.949180327868774  55.4627144463294 -14.618377755350423 -64.949180327868916  56.359214115289404 -9.8128899228984494 -64.949180327868874  56.783097791229494 -4.9678773366165245 -64.949180327868874 
 0 9 0.51104811312144627 7 1 9
1 61 -63.899999999999999 0 0 1 0 
2 0 -61.899999999999999 0 -0 1 0 1 0 0 0 0 -1 61
1 19.923893961834914 1.7431148549531641 -110 0 0 1 
2 0 -8.6499999999999997e-15 -72.654098360655738 0 0 -1 0 1 0 1 -0 0 20.000000000000007
1 1.7431148549531628 19.92389396183491 -110 0 0 1 
1 0 -8.6499999999999997e-15 -77.900000000000006 0.084303974108502266 0.96359883339081942 0.25371268836493949 
1 4.9678773366165165 56.783097791229494 -110 0 0 1 
1 56.783097791229494 4.9678773366165156 -110 0 0 1 
1 0 -8.6499999999999997e-15 -77.900000000000006 0.96359883339081942 0.084303974108502308 0.2537126883649396 
7 0 0  8 16 3  56.783097791229494 4.9678773366165156 -62.949180327868852  56.340050989352108 10.031925454646229 -62.949180327868852  55.3806714757931 15.053001507835539 -62.94918032786935  53.909853778447861 19.966230706101371 -62.949180327868028  51.94287363836677 24.711236068287953 -62.949180327869811  49.502279753697032 29.230938082256863 -62.949180327868426  46.618121316003268 33.471814545933753 -62.949180327869037  43.327651656683088 37.383881728590381 -62.949180327868916  36.186455980992939 44.307947685725502 -62.949180327868916  32.363312688381818 47.354256974699297 -62.949180327869065  28.249032454999394 50.021399940980622 -62.949180327868341  23.888063746688879 52.277777654979168 -62.949180327869911  19.327763323829458 54.097928349946166 -62.949180327867964  14.618377755194198 55.462714446362064 -62.949180327869435  9.812889922933735 56.359214115286314 -62.949180327868852  4.9678773366165192 56.783097791229487 -62.949180327868852 
 0 9 0.51104811312218268 7 1 9
1 -1.7431148549531641 19.92389396183491 -110 0 0 1 
2 0 -8.6499999999999997e-15 -72.654098360655738 0 0 -1 0 1 0 1 -0 0 20.000000000000004
1 -19.92389396183491 1.7431148549531639 -110 0 0 1 
1 0 -8.6499999999999997e-15 -77.900000000000006 -0.96359883339081942 0.084303974108502336 0.2537126883649396 
1 -56.783097791229494 4.9678773366165165 -110 0 0 1 
1 -4.9678773366165192 56.783097791229494 -110 0 0 1 
1 0 -8.6499999999999997e-15 -77.900000000000006 -0.084303974108502364 0.96359883339081942 0.25371268836493949 
7 0 0  8 16 3  -4.9678773366165174 56.783097791229494 -62.949180327868852  -10.031925454596561 56.340050989356449 -62.949180327868852  -15.053001508037319 55.380671475763805 -62.949180327869406  -19.966230705698052 53.90985377853459 -62.949180327868035  -24.711236068759874 51.942873638223524 -62.94918032786979  -29.230938081925679 49.502279753837932 -62.949180327868476  -33.471814546064714 46.618121315921854 -62.949180327869023  -37.383881728567758 43.327651656706422 -62.949180327868916  -44.307947685731904 36.186455980986338 -62.949180327868916  -47.354256974677028 32.363312688418262 -62.949180327869037  -50.021399941019226 28.24903245491214 -62.94918032786844  -52.277777654940309 23.888063746806061 -62.949180327869769  -54.097928349969138 19.32776332373485 -62.949180327868056  -55.462714446354788 14.618377755238766 -62.949180327869392  -56.359214115287202 9.8128899229236346 -62.949180327868852  -56.783097791229487 4.9678773366165156 -62.949180327868852 
 0 9 0.51104811312330789 7 1 9
1 -19.923893961834914 -1.7431148549531579 -110 0 0 1 
2 0 -8.6499999999999997e-15 -72.654098360655738 0 0 -1 0 1 0 1 -0 0 19.999999999999996
1 -1.743114854953165 -19.92389396183491 -110 0 0 1 
1 0 -8.6499999999999997e-15 -77.900000000000006 -0.084303974108502364 -0.96359883339081931 0.25371268836493971 
1 -4.9678773366165228 -56.783097791229494 -110 0 0 1 
1 -56.783097791229494 -4.9678773366165032 -110 0 0 1 
1 0 -8.6499999999999997e-15 -77.900000000000006 -0.96359883339081942 -0.084303974108502086 0.2537126883649396 
7 0 0  8 16 3  -56.783097791229494 -4.9678773366165032 -62.949180327868852  -56.340050989353976 -10.031925454624805 -62.949180327868852  -55.380671475761922 -15.053001507924165 -62.949180327869392  -53.90985377854981 -19.966230705920836 -62.949180327868099  -51.94287363820586 -24.711236068504121 -62.949180327869698  -49.502279753837939 -29.230938082099577 -62.949180327868476  -46.618121315935973 -33.471814546000587 -62.949180327869037  -43.327651656697299 -37.383881728576597 -62.949180327868916  -36.186455980984938 -44.307947685733254 -62.949180327868916  -32.363312688437688 -47.35425697467403 -62.949180327869037  -28.249032454844951 -50.02139994102783 -62.949180327868518  -23.888063746920253 -52.277777654923639 -62.949180327869676  -19.327763323628076 -54.09792834998521 -62.94918032786812  -14.618377755293317 -55.462714446347519 -62.9491803278693  -9.8128899229107418 -56.359214115288331 -62.949180327868852  -4.9678773366165245 -56.783097791229494 -62.949180327868852 
 0 9 0.51104811312258303 7 1 9
1 1.7431148549531592 -19.923893961834914 -110 0 0 1 
2 0 -8.6499999999999997e-15 -72.654098360655738 0 0 -1 0 1 0 1 -0 0 19.999999999999996
1 19.92389396183491 -1.7431148549531663 -110 0 0 1 
1 0 -8.6499999999999997e-15 -77.900000000000006 0.96359883339081931 -0.084303974108502447 0.25371268836493954 
1 56.783097791229494 -4.9678773366165254 -110 0 0 1 
1 4.9678773366164997 -56.783097791229494 -110 0 0 1 
1 0 -8.6499999999999997e-15 -77.900000000000006 0.084303974108502031 -0.96359883339081942 0.25371268836493976 
7 0 0  8 16 3  4.9678773366164997 -56.783097791229501 -62.949180327868852  10.031925454637657 -56.340050989352861 -62.949180327868852  15.053001507876289 -55.38067147577469 -62.949180327869229  19.966230706006563 -53.909853778513131 -62.949180327868312  24.711236068418035 -51.942873638256088 -62.949180327869499  29.230938082147194 -49.502279753802277 -62.949180327868525  33.47181454598811 -46.618121315947697 -62.94918032786903  37.383881728577407 -43.327651656696474 -62.949180327868923  44.307947685747919 -36.186455980969825 -62.949180327868923  47.354256974616945 -32.363312688504166 -62.949180327869065  50.021399941133097 -28.249032454703865 -62.949180327868298  52.277777654814415 -23.888063747093817 -62.949180327870046  54.09792835004906 -19.327763323498296 -62.949180327867786  55.4627144463294 -14.618377755350423 -62.949180327869456  56.359214115289404 -9.8128899228984494 -62.949180327868852  56.783097791229494 -4.9678773366165245 -62.949180327868852 
 0 9 0.51104811312144627 7 1 9
1 61 -1.4940000000000001e-14 -63.899999999999999 0 0 1 
2 0 0 -31 0 0 1 1 0 -0 -0 1 0 61
2 0 0 -59.900000000000006 0 0 1 1 0 -0 -0 1 0 61
1 -45.331834354121042 40.81696698789036 -63.899999999999999 0 0 1 
1 -60.916401620029013 3.1924933308195724 -63.899999999999999 0 0 1 
2 0 0 -35.000000000000007 0 0 1 1 0 -0 -0 1 0 61
2 0 0 -59.900000000000006 0 0 1 1 0 -0 -0 1 0 61
1 -60.916401620029013 -3.1924933308195578 -63.899999999999999 0 0 1 
1 -45.33183435412105 -40.816966987890353 -63.899999999999999 0 0 1 
2 0 0 -35.000000000000007 0 0 1 1 0 -0 -0 1 0 61
2 0 0 -59.899999999999999 0 0 1 1 0 -0 -0 1 0 61
1 60.916401620029013 3.1924933308195742 -63.899999999999999 0 0 1 
1 45.33183435412105 40.816966987890353 -63.899999999999999 0 0 1 
2 0 0 -35 0 0 1 1 0 -0 -0 1 0 61
2 0 0 -59.899999999999991 0 0 1 1 0 -0 -0 1 0 61
1 40.816966987890353 45.33183435412105 -63.899999999999999 0 0 1 
1 3.1924933308195826 60.916401620029013 -63.899999999999999 0 0 1 
2 0 0 -34.999999999999993 0 0 1 1 0 -0 -0 1 0 61
2 0 0 -59.899999999999991 0 0 1 1 0 -0 -0 1 0 61
1 -3.1924933308195746 60.916401620029013 -63.899999999999999 0 0 1 
1 -40.816966987890353 45.33183435412105 -63.899999999999999 0 0 1 
2 0 0 -34.999999999999993 0 0 1 1 0 -0 -0 1 0 61
2 0 0 -59.899999999999991 0 0 1 1 0 -0 -0 1 0 61
1 -40.816966987890346 -45.331834354121057 -63.899999999999999 0 0 1 
1 -3.1924933308196031 -60.916401620029013 -63.899999999999999 0 0 1 
2 0 0 -34.999999999999993 0 0 1 1 0 -0 -0 1 0 61
2 0 0 -59.899999999999999 0 0 1 1 0 -0 -0 1 0 61
1 3.1924933308195813 -60.916401620029013 -63.899999999999999 0 0 1 
1 40.816966987890325 -45.331834354121078 -63.899999999999999 0 0 1 
2 0 0 -35 0 0 1 1 0 -0 -0 1 0 61
2 0 0 -59.899999999999991 0 0 1 1 0 -0 -0 1 0 61
1 45.331834354121057 -40.816966987890353 -63.899999999999999 0 0 1 
1 60.916401620029013 -3.1924933308196071 -63.899999999999999 0 0 1 
2 0 0 -34.999999999999993 0 0 1 1 0 -0 -0 1 0 61
2 0 -8.6499999999999997e-15 -62.424590163934425 -0 0 1 0 -1 0 1 0 0 59
1 61 -61.899999999999999 0 -0.96727962439133142 -0.25371268836493954 0 
2 0 0 -31 0 0 1 1 0 -0 -0 1 0 59
2 0 0 -59.900000000000006 0 0 1 1 0 -0 -0 1 0 59
1 -61.915031154783577 3.2448292870625162 -59.899999999999999 0.99862953475457394 -0.052335956242943828 0 
1 -43.102399877688853 38.809575168813787 -59.899999999999999 -0.74314482547739458 0.6691306063588579 0 
1 -43.102399877688853 38.809575168813787 -59.899999999999999 -0.74314482547739458 0.6691306063588579 0 
1 -43.845544703166254 39.478705775172642 -64.900000000000006 0 0 1 
1 -58.919142550519865 3.087821418333685 -64.900000000000006 0 0 1 
1 -61.915031154783577 3.2448292870625162 -59.899999999999999 0.99862953475457394 -0.052335956242943828 0 
2 0 0 -35.000000000000007 0 0 1 1 0 -0 -0 1 0 59
2 0 0 -59.900000000000006 0 0 1 1 0 -0 -0 1 0 59
1 -46.074979179598444 -41.486097594249209 -59.899999999999999 0.74314482547739458 0.6691306063588579 0 
1 -57.92051301576528 -3.0354854620907266 -59.899999999999999 -0.99862953475457394 -0.052335956242943613 0 
1 -57.92051301576528 -3.0354854620907266 -59.899999999999999 -0.99862953475457394 -0.052335956242943613 0 
1 -58.919142550519865 -3.0878214183336703 -64.900000000000006 0 0 1 
1 -43.845544703166262 -39.478705775172635 -64.900000000000006 0 0 1 
1 -46.074979179598444 -41.486097594249209 -59.899999999999999 0.74314482547739458 0.6691306063588579 0 
2 0 0 -35.000000000000007 0 0 1 1 0 -0 -0 1 0 59
2 0 0 -59.899999999999999 0 0 1 1 0 -0 -0 1 0 59
1 46.074979179598444 41.486097594249209 -59.899999999999999 -0.74314482547739458 -0.6691306063588579 0 
1 57.92051301576528 3.0354854620907425 -59.899999999999999 0.99862953475457394 0.052335956242943828 0 
1 57.92051301576528 3.0354854620907425 -59.899999999999999 0.99862953475457394 0.052335956242943828 0 
1 58.919142550519865 3.0878214183336867 -64.900000000000006 0 0 1 
1 43.845544703166262 39.478705775172635 -64.900000000000006 0 0 1 
1 46.074979179598444 41.486097594249209 -59.899999999999999 -0.74314482547739458 -0.6691306063588579 0 
2 0 0 -35 0 0 1 1 0 -0 -0 1 0 59
2 0 0 -59.899999999999991 0 0 1 1 0 -0 -0 1 0 59
1 3.2448292870625259 61.915031154783577 -59.899999999999999 -0.052335956242943953 -0.99862953475457394 0 
1 38.80957516881378 43.102399877688867 -59.899999999999999 0.6691306063588579 0.74314482547739458 0 
1 38.80957516881378 43.102399877688867 -59.899999999999999 0.6691306063588579 0.74314482547739458 0 
1 39.478705775172635 43.845544703166262 -64.900000000000006 0 0 1 
1 3.0878214183336947 58.919142550519865 -64.900000000000006 0 0 1 
1 3.2448292870625259 61.915031154783577 -59.899999999999999 -0.052335956242943953 -0.99862953475457394 0 
2 0 0 -34.999999999999993 0 0 1 1 0 -0 -0 1 0 59
2 0 0 -59.899999999999991 0 0 1 1 0 -0 -0 1 0 59
1 -41.486097594249209 46.074979179598444 -59.899999999999999 0.6691306063588579 -0.74314482547739458 0 
1 -3.035485462090743 57.92051301576528 -59.899999999999999 -0.052335956242943828 0.99862953475457394 0 
1 -3.035485462090743 57.92051301576528 -59.899999999999999 -0.052335956242943828 0.99862953475457394 0 
1 -3.0878214183336872 58.919142550519865 -64.900000000000006 0 0 1 
1 -39.478705775172635 43.845544703166262 -64.900000000000006 0 0 1 
1 -41.486097594249209 46.074979179598444 -59.899999999999999 0.6691306063588579 -0.74314482547739458 0 
2 0 0 -34.999999999999993 0 0 1 1 0 -0 -0 1 0 59
2 0 0 -59.899999999999991 0 0 1 1 0 -0 -0 1 0 59
1 -3.2448292870625468 -61.915031154783577 -59.899999999999999 0.052335956242944279 0.99862953475457394 0 
1 -38.809575168813772 -43.102399877688875 -59.899999999999999 -0.6691306063588579 -0.74314482547739458 0 
1 -38.809575168813772 -43.102399877688875 -59.899999999999999 -0.6691306063588579 -0.74314482547739458 0 
1 -39.478705775172628 -43.845544703166269 -64.900000000000006 0 0 1 
1 -3.0878214183337147 -58.919142550519865 -64.900000000000006 0 0 1 
1 -3.2448292870625468 -61.915031154783577 -59.899999999999999 0.052335956242944279 0.99862953475457394 0 
2 0 0 -34.999999999999993 0 0 1 1 0 -0 -0 1 0 59
2 0 0 -59.899999999999999 0 0 1 1 0 -0 -0 1 0 59
1 41.486097594249181 -46.074979179598465 -59.899999999999999 -0.6691306063588579 0.74314482547739458 0 
1 3.0354854620907488 -57.92051301576528 -59.899999999999999 0.052335956242943953 -0.99862953475457394 0 
1 3.0354854620907488 -57.92051301576528 -59.899999999999999 0.052335956242943953 -0.99862953475457394 0 
1 3.0878214183336934 -58.919142550519865 -64.900000000000006 0 0 1 
1 39.478705775172607 -43.84554470316629 -64.900000000000006 0 0 1 
1 41.486097594249181 -46.074979179598465 -59.899999999999999 -0.6691306063588579 0.74314482547739458 0 
2 0 0 -35 0 0 1 1 0 -0 -0 1 0 59
2 0 0 -59.899999999999991 0 0 1 1 0 -0 -0 1 0 59
1 61.915031154783577 -3.2448292870625508 -59.899999999999999 -0.99862953475457394 0.05233595624294439 0 
1 43.102399877688867 -38.809575168813772 -59.899999999999999 0.74314482547739458 -0.6691306063588579 0 
1 43.102399877688867 -38.809575168813772 -59.899999999999999 0.74314482547739458 -0.6691306063588579 0 
1 43.845544703166269 -39.478705775172635 -64.900000000000006 0 0 1 
1 58.919142550519865 -3.0878214183337183 -64.900000000000006 0 0 1 
1 61.915031154783577 -3.2448292870625508 -59.899999999999999 -0.99862953475457394 0.05233595624294439 0 
2 0 0 -34.999999999999993 0 0 1 1 0 -0 -0 1 0 59
1 59 -1.4450000000000001e-14 -64.900000000000006 0 0 1 
Polygon3D 0
PolygonOnTriangulations 0
Surfaces 56
3 0 -79.900000000000006 0 0 1 0 1 0 0 0 0 -1 0
1.3142797141505729
2 0 -63.899999999999999 0 0 1 0 1 0 0 0 0 -1 61
3 0 -79.900000000000006 0 0 1 0 1 0 0 0 0 -1 0
1.3142797141505729
2 -7.55e-15 -7.55e-15 -110 0 0 -1 0.087155742747658485 0.99619469809174555 0 0.99619469809174555 -0.087155742747658485 0 20.000000000000007
2 2.3089999999999999e-14 1.599e-14 -110 -0 -0 -1 0.99619469809174555 0.087155742747657916 -0 -0.087155742747657916 0.99619469809174555 -0 56.999999999999979
2 2.2200000000000002e-15 -3.5500000000000001e-15 -110 0 0 -1 -0.99619469809174555 0.08715574274765836 0 0.08715574274765836 0.99619469809174555 0 20.000000000000004
2 -1.599e-14 2.3089999999999999e-14 -110 -0 -0 -1 -0.087155742747657985 0.99619469809174555 0 -0.99619469809174555 -0.087155742747657985 0 56.999999999999979
2 -4.4400000000000004e-15 -3.11e-15 -110 0 0 -1 -0.087155742747658041 -0.99619469809174555 -0 -0.99619469809174555 0.087155742747658041 0 19.999999999999996
2 -1.7760000000000001e-14 -1.421e-14 -110 -0 -0 -1 -0.99619469809174566 -0.087155742747657736 0 0.087155742747657736 -0.99619469809174566 -0 56.999999999999979
2 4.0000000000000003e-15 -3.5500000000000001e-15 -110 0 0 -1 0.99619469809174555 -0.087155742747658152 0 -0.087155742747658152 -0.99619469809174555 -0 19.999999999999996
2 -1.421e-14 1.243e-14 -110 -0 -0 -1 0.08715574274765811 -0.99619469809174555 0 0.99619469809174555 0.08715574274765811 -0 57.000000000000021
2 0 0 -63.899999999999999 0 0 1 1 0 -0 -0 1 0 61
3 0 -61.899999999999999 0 -0 -1 -0 1 -0 0 0 -0 -1 61
-1.3142797141505729
1 4.9678773366165139 56.783097791229494 -110 0.99619469809174566 -0.087155742747658138 0 -0.087155742747658138 -0.99619469809174566 0 0 -0 -1 
1 19.92389396183491 1.7431148549531632 -110 -0.08715574274765818 0.99619469809174566 0 0.99619469809174566 0.08715574274765818 0 0 0 -1 
1 -56.783097791229494 4.9678773366165174 -110 0.087155742747658208 0.99619469809174566 0 0.99619469809174566 -0.087155742747658208 0 0 0 -1 
1 -1.7431148549531648 19.92389396183491 -110 -0.99619469809174555 -0.087155742747658235 0 -0.087155742747658235 0.99619469809174555 0 -0 0 -1 
1 -4.9678773366165201 -56.783097791229494 -110 -0.99619469809174555 0.087155742747658249 0 0.087155742747658249 0.99619469809174555 0 0 0 -1 
1 -19.92389396183491 -1.7431148549531588 -110 0.087155742747657958 -0.99619469809174566 0 -0.99619469809174566 -0.087155742747657958 0 0 -0 -1 
1 56.783097791229494 -4.9678773366165245 -110 -0.087155742747658332 -0.99619469809174555 0 -0.99619469809174555 0.087155742747658332 0 -0 0 -1 
1 1.7431148549531579 -19.92389396183491 -110 0.99619469809174566 0.087155742747657888 0 0.087155742747657888 -0.99619469809174566 0 0 0 -1 
2 0 0 -64.900000000000006 0 0 1 1 0 -0 -0 1 0 59
3 0 -61.899999999999999 0 -0 -1 -0 1 -0 0 0 -0 -1 61
-1.3142797141505729
1 0 0 -31 0 0 1 1 0 -0 -0 1 0 
1 -54.021921696260463 22.376612632048449 -59.900000000000006 0 0 1 1 0 -0 -0 1 0 
1 -43.102399877688853 38.809575168813787 -59.899999999999999 -0.6691306063588579 -0.74314482547739458 0 -0.74314482547739458 0.6691306063588579 0 -0 0 -1 
1 -61.915031154783577 3.2448292870625162 -59.899999999999999 0.052335956242943828 0.99862953475457394 0 0.99862953475457394 -0.052335956242943828 0 0 0 -1 
1 -54.021921696260463 22.376612632048449 -59.900000000000006 0 0 1 1 0 -0 -0 1 0 
1 -54.021921696260456 -22.376612632048424 -59.900000000000006 0 0 1 1 0 -0 -0 1 0 
1 -57.92051301576528 -3.0354854620907266 -59.899999999999999 0.052335956242943613 -0.99862953475457394 0 -0.99862953475457394 -0.052335956242943613 0 0 -0 -1 
1 -46.074979179598444 -41.486097594249209 -59.899999999999999 -0.6691306063588579 0.74314482547739458 0 0.74314482547739458 0.6691306063588579 0 0 0 -1 
1 -54.021921696260456 -22.376612632048424 -59.900000000000006 0 0 1 1 0 -0 -0 1 0 
1 54.021921696260449 22.376612632048428 -59.899999999999999 0 0 1 1 0 -0 -0 1 0 
1 57.92051301576528 3.0354854620907425 -59.899999999999999 -0.052335956242943828 0.99862953475457394 0 0.99862953475457394 0.052335956242943828 0 0 0 -1 
1 46.074979179598444 41.486097594249209 -59.899999999999999 0.6691306063588579 -0.74314482547739458 0 -0.74314482547739458 -0.6691306063588579 0 0 -0 -1 
1 54.021921696260449 22.376612632048428 -59.899999999999999 0 0 1 1 0 -0 -0 1 0 
1 22.376612632048438 54.021921696260442 -59.899999999999991 0 0 1 1 0 -0 -0 1 0 
1 38.80957516881378 43.102399877688867 -59.899999999999999 -0.74314482547739458 0.6691306063588579 0 0.6691306063588579 0.74314482547739458 0 0 0 -1 
1 3.2448292870625259 61.915031154783577 -59.899999999999999 0.99862953475457394 -0.052335956242943953 0 -0.052335956242943953 -0.99862953475457394 0 0 -0 -1 
1 22.376612632048438 54.021921696260442 -59.899999999999991 0 0 1 1 0 -0 -0 1 0 
1 -22.376612632048438 54.021921696260463 -59.899999999999991 0 0 1 1 0 -0 -0 1 0 
1 -3.035485462090743 57.92051301576528 -59.899999999999999 -0.99862953475457394 -0.052335956242943828 0 -0.052335956242943828 0.99862953475457394 0 -0 0 -1 
1 -41.486097594249209 46.074979179598444 -59.899999999999999 0.74314482547739458 0.6691306063588579 0 0.6691306063588579 -0.74314482547739458 0 0 0 -1 
1 -22.376612632048438 54.021921696260463 -59.899999999999991 0 0 1 1 0 -0 -0 1 0 
1 -22.376612632048445 -54.021921696260442 -59.899999999999991 0 0 1 1 0 -0 -0 1 0 
1 -38.809575168813772 -43.102399877688875 -59.899999999999999 0.74314482547739458 -0.6691306063588579 0 -0.6691306063588579 -0.74314482547739458 0 0 -0 -1 
1 -3.2448292870625468 -61.915031154783577 -59.899999999999999 -0.99862953475457394 0.052335956242944279 0 0.052335956242944279 0.99862953475457394 0 0 0 -1 
1 -22.376612632048445 -54.021921696260442 -59.899999999999991 0 0 1 1 0 -0 -0 1 0 
1 22.376612632048431 -54.021921696260463 -59.899999999999999 0 0 1 1 0 -0 -0 1 0 
1 3.0354854620907488 -57.92051301576528 -59.899999999999999 0.99862953475457394 0.052335956242943953 0 0.052335956242943953 -0.99862953475457394 0 0 0 -1 
1 41.486097594249181 -46.074979179598465 -59.899999999999999 -0.74314482547739458 -0.6691306063588579 0 -0.6691306063588579 0.74314482547739458 0 -0 0 -1 
1 22.376612632048431 -54.021921696260463 -59.899999999999999 0 0 1 1 0 -0 -0 1 0 
1 54.021921696260442 -22.376612632048445 -59.899999999999991 0 0 1 1 0 -0 -0 1 0 
1 43.102399877688867 -38.809575168813772 -59.899999999999999 0.6691306063588579 0.74314482547739458 0 0.74314482547739458 -0.6691306063588579 0 0 0 -1 
1 61.915031154783577 -3.2448292870625508 -59.899999999999999 -0.05233595624294439 -0.99862953475457394 0 -0.99862953475457394 0.05233595624294439 0 -0 0 -1 
1 54.021921696260442 -22.376612632048445 -59.899999999999991 0 0 1 1 0 -0 -0 1 0 
Triangulations 0

TShapes 394
Ve
1e-07
0 -9e-15 -79.9
0 0

0101101
*
Ve
1.00000059e-07
61 -1.1e-14 -63.9
0 0

0101101
*
Ed
 1e-07 1 1 0
1  1 0 0 63.0634601017102
3  1 2CN 1 0 0 63.0634601017102
0

0101000
+394 4 -393 4 *
Ed
 1.00000059e-07 1 1 0
1  2 0 0 6.28318530717959
2  3 1 0 0 6.28318530717959
2  4 2 0 0 6.28318530717959
0

0101000
+393 4 -393 4 *
Ed
 1e-07 1 1 1
2  5 3 0 0 6.28318530717959
2  5 1 0 0 6.28318530717959
0

0101000
+394 4 -394 4 *
Wi

0101100
-392 2 -391 2 +392 2 +390 2 *
Ve
1.00000004e-07
1.74311485495316 19.9238939618349 -74.6540983606557
0 0

0101101
*
Ve
1.0000001e-07
19.9238939618349 1.74311485495316 -74.6540983606557
0 0

0101101
*
Ed
 1e-07 1 1 0
1  3 0 0.087266462599716 1.48352986419518
2  6 1 2 0.087266462599716 1.48352986419518
2  7 4 0 0.087266462599716 1.48352986419518
0

0101000
+388 5 -387 5 *
Ve
1.00000029e-07
4.96787733661652 56.7830977912295 -64.9491803278688
0 0

0101101
*
Ed
 1e-07 1 1 0
1  4 0 20.6765442956427 58.9281512425817
2  8 1 2 20.6765442956427 58.9281512425817
0

0101000
+388 5 -385 5 *
Ve
1.00000028e-07
56.7830977912295 4.96787733661652 -64.9491803278688
0 0

0101101
*
Ed
 1e-07 1 1 0
1  5 0 20.6765442956427 58.9281512425817
2  9 1 2 20.6765442956427 58.9281512425817
0

0101000
+387 5 -383 5 *
Ed
 1e-07 1 1 0
1  6 0 0 1
2  10 1 2 0 1
2  11 5 0 0 1
0

0101000
+383 5 -385 5 *
Wi

0101100
+386 0 -384 0 +382 0 +381 0 *
Ve
1.00000015e-07
-19.9238939618349 1.74311485495316 -74.6540983606557
0 0

0101101
*
Ve
1.00000004e-07
-1.74311485495316 19.9238939618349 -74.6540983606557
0 0

0101101
*
Ed
 1e-07 1 1 0
1  7 0 4.79965544298441 6.19591884457987
2  12 1 2 4.79965544298441 6.19591884457987
2  13 6 0 4.79965544298441 6.19591884457987
0

0101000
+379 5 -378 5 *
Ve
1.00000029e-07
-56.7830977912295 4.96787733661652 -64.9491803278688
0 0

0101101
*
Ed
 1e-07 1 1 0
1  8 0 20.6765442956427 58.9281512425817
2  14 1 2 20.6765442956427 58.9281512425817
0

0101000
+379 5 -376 5 *
Ve
1.00000028e-07
-4.96787733661652 56.7830977912295 -64.9491803278688
0 0

0101101
*
Ed
 1e-07 1 1 0
1  9 0 20.6765442956427 58.9281512425817
2  15 1 2 20.6765442956427 58.9281512425817
0

0101000
+378 5 -374 5 *
Ed
 1e-07 1 1 0
1  10 0 0 1
2  16 1 2 0 1
2  17 7 0 0 1
0

0101000
+374 5 -376 5 *
Wi

0101100
+377 0 -375 0 +373 0 +372 0 *
Ve
1.00000007e-07
-1.74311485495316 -19.9238939618349 -74.6540983606557
0 0

0101101
*
Ve
1.0000001e-07
-19.9238939618349 -1.74311485495316 -74.6540983606557
0 0

0101101
*
Ed
 1e-07 1 1 0
1  11 0 3.22885911618951 4.62512251778497
2  18 1 2 3.22885911618951 4.62512251778497
2  19 8 0 3.22885911618951 4.62512251778497
0

0101000
+370 5 -369 5 *
Ve
1.00000036e-07
-4.96787733661652 -56.7830977912295 -64.9491803278689
0 0

0101101
*
Ed
 1e-07 1 1 0
1  12 0 20.6765442956427 58.9281512425817
2  20 1 2 20.6765442956427 58.9281512425817
0

0101000
+370 5 -367 5 *
Ve
1.00000028e-07
-56.7830977912295 -4.9678773366165 -64.9491803278688
0 0

0101101
*
Ed
 1e-07 1 1 0
1  13 0 20.6765442956427 58.9281512425817
2  21 1 2 20.6765442956427 58.9281512425817
0

0101000
+369 5 -365 5 *
Ed
 1e-07 1 1 0
1  14 0 0 1
2  22 1 2 0 1
2  23 9 0 0 1
0

0101000
+365 5 -367 5 *
Wi

0101100
+368 0 -366 0 +364 0 +363 0 *
Ve
1.00000009e-07
19.9238939618349 -1.74311485495317 -74.6540983606557
0 0

0101101
*
Ve
1.00000015e-07
1.74311485495316 -19.9238939618349 -74.6540983606557
0 0

0101101
*
Ed
 1e-07 1 1 0
1  15 0 1.65806278939461 3.05432619099008
2  24 1 2 1.65806278939461 3.05432619099008
2  25 10 0 1.65806278939461 3.05432619099008
0

0101000
+361 5 -360 5 *
Ve
1.0000003e-07
56.7830977912295 -4.96787733661653 -64.9491803278689
0 0

0101101
*
Ed
 1e-07 1 1 0
1  16 0 20.6765442956427 58.9281512425817
2  26 1 2 20.6765442956427 58.9281512425817
0

0101000
+361 5 -358 5 *
Ve
1.00000029e-07
4.9678773366165 -56.7830977912295 -64.9491803278688
0 0

0101101
*
Ed
 1e-07 1 1 0
1  17 0 20.6765442956427 58.9281512425817
2  27 1 2 20.6765442956427 58.9281512425817
0

0101000
+360 5 -356 5 *
Ed
 1e-07 1 1 0
1  18 0 0 1
2  28 1 2 0 1
2  29 11 0 0 1
0

0101000
+356 5 -358 5 *
Wi

0101100
+359 0 -357 0 +355 0 +354 0 *
Fa
0  1e-07 1 2

0111000
+389 0 +380 0 +371 0 +362 0 +353 0 *
Ve
1.00000058e-07
61 -7e-15 -61.9
0 0

0101101
*
Ed
 1.00000008e-07 1 1 0
1  19 0 0 2
3  30 31CN 2 0 0 2
0

0101000
+393 4 -351 4 *
Ed
 1.00000058e-07 1 1 0
1  20 0 0 6.28318530717959
2  32 2 0 0 6.28318530717959
2  33 12 6 0 6.28318530717959
0

0101000
+351 4 -351 4 *
Wi

0101100
-350 2 -349 2 +350 2 +391 2 *
Fa
0  1e-07 2 2

0111000
+348 0 *
Ve
1.00000017e-07
19.9238939618349 1.74311485495316 -72.6540983606558
0 0

0101101
*
Ed
 1.00000002e-07 1 1 0
1  21 0 35.3459016393443 37.3459016393442
2  34 4 0 35.3459016393443 37.3459016393442
0

0101000
+387 5 -346 5 *
Ve
1.00000014e-07
1.74311485495316 19.9238939618349 -72.6540983606558
0 0

0101101
*
Ed
 1e-07 1 1 0
1  22 0 0.087266462599716 1.48352986419518
2  35 4 0 0.087266462599716 1.48352986419518
2  36 13 2 0.087266462599716 1.48352986419518
0

0101000
+344 5 -346 5 *
Ed
 1e-07 1 1 0
1  23 0 35.3459016393443 37.3459016393442
2  37 4 0 35.3459016393443 37.3459016393442
0

0101000
+388 5 -344 5 *
Wi

0101100
-386 0 -345 0 +343 0 +342 0 *
Fa
0  1e-07 4 0

0111000
+341 0 *
Ve
1.00000008e-07
4.96787733661652 56.7830977912295 -62.9491803278689
0 0

0101101
*
Ed
 1e-07 1 1 0
1  24 0 20.6765442956427 58.9281512425817
2  38 13 2 20.6765442956427 58.9281512425817
0

0101000
+344 5 -339 5 *
Ed
 1.00000004e-07 1 1 0
1  25 0 45.0508196721312 47.0508196721311
2  39 5 0 45.0508196721312 47.0508196721311
0

0101000
+385 5 -339 5 *
Wi

0101100
+384 0 -342 0 -338 0 +337 0 *
Fa
0  1e-07 14 0

0111000
+336 0 *
Ve
1.00000013e-07
56.7830977912295 4.96787733661652 -62.9491803278689
0 0

0101101
*
Ed
 1e-07 1 1 0
1  26 0 45.0508196721312 47.0508196721311
2  40 5 0 45.0508196721312 47.0508196721311
0

0101000
+383 5 -334 5 *
Ed
 1e-07 1 1 0
1  27 0 20.6765442956427 58.9281512425817
2  41 13 2 20.6765442956427 58.9281512425817
0

0101000
+346 5 -334 5 *
Wi

0101100
-382 0 -333 0 +332 0 +345 0 *
Fa
0  1e-07 15 0

0111000
+331 0 *
Ed
 1e-07 1 1 0
1  28 0 0 1
2  42 5 0 0 1
2  43 13 2 0 1
0

0101000
+334 5 -339 5 *
Wi

0101100
-381 0 -337 0 +329 0 +333 0 *
Fa
0  1e-07 5 0

0111000
+328 0 *
Ve
1.00000015e-07
-1.74311485495316 19.9238939618349 -72.6540983606558
0 0

0101101
*
Ed
 1.00000001e-07 1 1 0
1  29 0 35.3459016393443 37.3459016393442
2  44 6 0 35.3459016393443 37.3459016393442
0

0101000
+378 5 -326 5 *
Ve
1.00000021e-07
-19.9238939618349 1.74311485495316 -72.6540983606558
0 0

0101101
*
Ed
 1e-07 1 1 0
1  30 0 4.79965544298441 6.19591884457987
2  45 6 0 4.79965544298441 6.19591884457987
2  46 13 2 4.79965544298441 6.19591884457987
0

0101000
+324 5 -326 5 *
Ed
 1e-07 1 1 0
1  31 0 35.3459016393443 37.3459016393442
2  47 6 0 35.3459016393443 37.3459016393442
0

0101000
+379 5 -324 5 *
Wi

0101100
-377 0 -325 0 +323 0 +322 0 *
Fa
0  1e-07 6 0

0111000
+321 0 *
Ve
1.00000012e-07
-56.7830977912295 4.96787733661652 -62.9491803278689
0 0

0101101
*
Ed
 1e-07 1 1 0
1  32 0 20.6765442956427 58.9281512425817
2  48 13 2 20.6765442956427 58.9281512425817
0

0101000
+324 5 -319 5 *
Ed
 1.00000004e-07 1 1 0
1  33 0 45.0508196721312 47.0508196721311
2  49 7 0 45.0508196721312 47.0508196721311
0

0101000
+376 5 -319 5 *
Wi

0101100
+375 0 -322 0 -318 0 +317 0 *
Fa
0  1e-07 16 0

0111000
+316 0 *
Ve
1.00000007e-07
-4.96787733661652 56.7830977912295 -62.9491803278689
0 0

0101101
*
Ed
 1e-07 1 1 0
1  34 0 45.0508196721312 47.0508196721311
2  50 7 0 45.0508196721312 47.0508196721311
0

0101000
+374 5 -314 5 *
Ed
 1e-07 1 1 0
1  35 0 20.6765442956427 58.9281512425817
2  51 13 2 20.6765442956427 58.9281512425817
0

0101000
+326 5 -314 5 *
Wi

0101100
-373 0 -313 0 +312 0 +325 0 *
Fa
0  1e-07 17 0

0111000
+311 0 *
Ed
 1e-07 1 1 0
1  36 0 0 1
2  52 7 0 0 1
2  53 13 2 0 1
0

0101000
+314 5 -319 5 *
Wi

0101100
-372 0 -317 0 +309 0 +313 0 *
Fa
0  1e-07 7 0

0111000
+308 0 *
Ve
1.00000018e-07
-19.9238939618349 -1.74311485495316 -72.6540983606558
0 0

0101101
*
Ed
 1.00000002e-07 1 1 0
1  37 0 35.3459016393443 37.3459016393442
2  54 8 0 35.3459016393443 37.3459016393442
0

0101000
+369 5 -306 5 *
Ve
1.00000016e-07
-1.74311485495316 -19.9238939618349 -72.6540983606558
0 0

0101101
*
Ed
 1e-07 1 1 0
1  38 0 3.22885911618951 4.62512251778497
2  55 8 0 3.22885911618951 4.62512251778497
2  56 13 2 3.22885911618951 4.62512251778497
0

0101000
+304 5 -306 5 *
Ed
 1e-07 1 1 0
1  39 0 35.3459016393443 37.3459016393442
2  57 8 0 35.3459016393443 37.3459016393442
0

0101000
+370 5 -304 5 *
Wi

0101100
-368 0 -305 0 +303 0 +302 0 *
Fa
0  1e-07 8 0

0111000
+301 0 *
Ve
1.00000017e-07
-4.96787733661652 -56.7830977912295 -62.9491803278689
0 0

0101101
*
Ed
 1e-07 1 1 0
1  40 0 20.6765442956427 58.9281512425817
2  58 13 2 20.6765442956427 58.9281512425817
0

0101000
+304 5 -299 5 *
Ed
 1.00000002e-07 1 1 0
1  41 0 45.0508196721311 47.0508196721311
2  59 9 0 45.0508196721311 47.0508196721311
0

0101000
+367 5 -299 5 *
Wi

0101100
+366 0 -302 0 -298 0 +297 0 *
Fa
0  1e-07 18 0

0111000
+296 0 *
Ve
1.00000009e-07
-56.7830977912295 -4.9678773366165 -62.9491803278688
0 0

0101101
*
Ed
 1e-07 1 1 0
1  42 0 45.0508196721312 47.0508196721312
2  60 9 0 45.0508196721312 47.0508196721312
0

0101000
+365 5 -294 5 *
Ed
 1e-07 1 1 0
1  43 0 20.6765442956427 58.9281512425817
2  61 13 2 20.6765442956427 58.9281512425817
0

0101000
+306 5 -294 5 *
Wi

0101100
-364 0 -293 0 +292 0 +305 0 *
Fa
0  1e-07 19 0

0111000
+291 0 *
Ed
 1e-07 1 1 0
1  44 0 0 1
2  62 9 0 0 1
2  63 13 2 0 1
0

0101000
+294 5 -299 5 *
Wi

0101100
-363 0 -297 0 +289 0 +293 0 *
Fa
0  1e-07 9 0

0111000
+288 0 *
Ve
1.00000015e-07
1.74311485495316 -19.9238939618349 -72.6540983606558
0 0

0101101
*
Ed
 1.00000002e-07 1 1 0
1  45 0 35.3459016393443 37.3459016393442
2  64 10 0 35.3459016393443 37.3459016393442
0

0101000
+360 5 -286 5 *
Ve
1.00000017e-07
19.9238939618349 -1.74311485495317 -72.6540983606558
0 0

0101101
*
Ed
 1e-07 1 1 0
1  46 0 1.65806278939461 3.05432619099008
2  65 10 0 1.65806278939461 3.05432619099008
2  66 13 2 1.65806278939461 3.05432619099008
0

0101000
+284 5 -286 5 *
Ed
 1e-07 1 1 0
1  47 0 35.3459016393443 37.3459016393442
2  67 10 0 35.3459016393443 37.3459016393442
0

0101000
+361 5 -284 5 *
Wi

0101100
-359 0 -285 0 +283 0 +282 0 *
Fa
0  1e-07 10 0

0111000
+281 0 *
Ve
1.00000011e-07
56.7830977912295 -4.96787733661653 -62.9491803278689
0 0

0101101
*
Ed
 1e-07 1 1 0
1  48 0 20.6765442956427 58.9281512425817
2  68 13 2 20.6765442956427 58.9281512425817
0

0101000
+284 5 -279 5 *
Ed
 1.00000004e-07 1 1 0
1  49 0 45.0508196721311 47.0508196721311
2  69 11 0 45.0508196721311 47.0508196721311
0

0101000
+358 5 -279 5 *
Wi

0101100
+357 0 -282 0 -278 0 +277 0 *
Fa
0  1e-07 20 0

0111000
+276 0 *
Ve
1.0000001e-07
4.9678773366165 -56.7830977912295 -62.9491803278689
0 0

0101101
*
Ed
 1.00000004e-07 1 1 0
1  50 0 45.0508196721312 47.0508196721311
2  70 11 0 45.0508196721312 47.0508196721311
0

0101000
+356 5 -274 5 *
Ed
 1e-07 1 1 0
1  51 0 20.6765442956427 58.9281512425817
2  71 13 2 20.6765442956427 58.9281512425817
0

0101000
+286 5 -274 5 *
Wi

0101100
-355 0 -273 0 +272 0 +285 0 *
Fa
0  1e-07 21 0

0111000
+271 0 *
Ed
 1e-07 1 1 0
1  52 0 0 1
2  72 11 0 0 1
2  73 13 2 0 1
0

0101000
+274 5 -279 5 *
Wi

0101100
-354 0 -277 0 +269 0 +273 0 *
Fa
0  1e-07 11 0

0111000
+268 0 *
Ve
1e-07
61 -1.5e-14 -31
0 0

0101101
*
Ed
 1e-07 1 1 0
1  53 0 2 32.9
3  74 75CN 12 0 2 32.9
0

0101000
+351 5 -266 5 *
Ed
 1e-07 1 1 0
1  54 0 0 6.28318530717959
2  76 12 0 0 6.28318530717959
0

0101000
+266 5 -266 5 *
Wi

0101100
+265 0 +349 2 -265 0 -264 0 *
Ve
1.00000027e-07
-45.331834354121 40.8169669878904 -59.9
0 0

0101101
*
Ve
1.00000007e-07
-60.916401620029 3.19249333081957 -59.9
0 0

0101101
*
Ed
 1e-07 1 1 0
1  55 0 2.40855436775217 3.08923277602996
2  77 12 0 2.40855436775217 3.08923277602996
0

0101000
+262 5 -261 5 *
Ve
1.00000027e-07
-45.331834354121 40.8169669878904 -35
0 0

0101101
*
Ed
 1e-07 1 1 0
1  56 0 4 28.9
2  78 12 0 4 28.9
0

0101000
+262 5 -259 5 *
Ve
1.00000007e-07
-60.916401620029 3.19249333081957 -35
0 0

0101101
*
Ed
 1e-07 1 1 0
1  57 0 4 28.9
2  79 12 0 4 28.9
0

0101000
+261 5 -257 5 *
Ed
 1e-07 1 1 0
1  58 0 2.40855436775217 3.08923277602996
2  80 12 0 2.40855436775217 3.08923277602996
0

0101000
+259 5 -257 5 *
Wi

0101100
-260 0 +258 0 -256 0 +255 0 *
Ve
1.00000007e-07
-60.916401620029 -3.19249333081956 -59.9
0 0

0101101
*
Ve
1.00000007e-07
-45.331834354121 -40.8169669878904 -59.9
0 0

0101101
*
Ed
 1e-07 1 1 0
1  59 0 3.19395253114962 3.87463093942741
2  81 12 0 3.19395253114962 3.87463093942741
0

0101000
+253 5 -252 5 *
Ve
1.00000007e-07
-60.916401620029 -3.19249333081956 -35
0 0

0101101
*
Ed
 1e-07 1 1 0
1  60 0 4 28.9
2  82 12 0 4 28.9
0

0101000
+253 5 -250 5 *
Ve
1.00000007e-07
-45.331834354121 -40.8169669878904 -35
0 0

0101101
*
Ed
 1e-07 1 1 0
1  61 0 4 28.9
2  83 12 0 4 28.9
0

0101000
+252 5 -248 5 *
Ed
 1e-07 1 1 0
1  62 0 3.19395253114962 3.87463093942741
2  84 12 0 3.19395253114962 3.87463093942741
0

0101000
+250 5 -248 5 *
Wi

0101100
-251 0 +249 0 -247 0 +246 0 *
Ve
1.00000007e-07
60.916401620029 3.19249333081957 -59.9
0 0

0101101
*
Ve
1e-07
45.331834354121 40.8169669878904 -59.9
0 0

0101101
*
Ed
 1e-07 1 1 0
1  63 0 0.05235987755983 0.733038285837618
2  85 12 0 0.05235987755983 0.733038285837618
0

0101000
+244 5 -243 5 *
Ve
1.00000007e-07
60.916401620029 3.19249333081957 -35
0 0

0101101
*
Ed
 1e-07 1 1 0
1  64 0 4 28.9
2  86 12 0 4 28.9
0

0101000
+244 5 -241 5 *
Ve
1e-07
45.331834354121 40.8169669878904 -35
0 0

0101101
*
Ed
 1e-07 1 1 0
1  65 0 4 28.9
2  87 12 0 4 28.9
0

0101000
+243 5 -239 5 *
Ed
 1e-07 1 1 0
1  66 0 0.05235987755983 0.733038285837618
2  88 12 0 0.05235987755983 0.733038285837618
0

0101000
+241 5 -239 5 *
Wi

0101100
-242 0 +240 0 -238 0 +237 0 *
Ve
1.0000001e-07
40.8169669878904 45.331834354121 -59.9
0 0

0101101
*
Ve
1.00000007e-07
3.19249333081958 60.916401620029 -59.9
0 0

0101101
*
Ed
 1e-07 1 1 0
1  67 0 0.837758040957278 1.51843644923507
2  89 12 0 0.837758040957278 1.51843644923507
0

0101000
+235 5 -234 5 *
Ve
1.0000001e-07
40.8169669878904 45.331834354121 -35
0 0

0101101
*
Ed
 1e-07 1 1 0
1  68 0 4 28.9
2  90 12 0 4 28.9
0

0101000
+235 5 -232 5 *
Ve
1.00000007e-07
3.19249333081958 60.916401620029 -35
0 0

0101101
*
Ed
 1e-07 1 1 0
1  69 0 4 28.9
2  91 12 0 4 28.9
0

0101000
+234 5 -230 5 *
Ed
 1e-07 1 1 0
1  70 0 0.837758040957278 1.51843644923507
2  92 12 0 0.837758040957278 1.51843644923507
0

0101000
+232 5 -230 5 *
Wi

0101100
-233 0 +231 0 -229 0 +228 0 *
Ve
1.00000007e-07
-3.19249333081958 60.916401620029 -59.9
0 0

0101101
*
Ve
1.00000007e-07
-40.8169669878904 45.331834354121 -59.9
0 0

0101101
*
Ed
 1e-07 1 1 0
1  71 0 1.62315620435473 2.30383461263252
2  93 12 0 1.62315620435473 2.30383461263252
0

0101000
+226 5 -225 5 *
Ve
1.00000007e-07
-3.19249333081958 60.916401620029 -35
0 0

0101101
*
Ed
 1e-07 1 1 0
1  72 0 4 28.9
2  94 12 0 4 28.9
0

0101000
+226 5 -223 5 *
Ve
1.00000007e-07
-40.8169669878904 45.331834354121 -35
0 0

0101101
*
Ed
 1e-07 1 1 0
1  73 0 4 28.9
2  95 12 0 4 28.9
0

0101000
+225 5 -221 5 *
Ed
 1e-07 1 1 0
1  74 0 1.62315620435473 2.30383461263252
2  96 12 0 1.62315620435473 2.30383461263252
0

0101000
+223 5 -221 5 *
Wi

0101100
-224 0 +222 0 -220 0 +219 0 *
Ve
1.00000031e-07
-40.8169669878903 -45.3318343541211 -59.9
0 0

0101101
*
Ve
1.00000007e-07
-3.1924933308196 -60.916401620029 -59.9
0 0

0101101
*
Ed
 1e-07 1 1 0
1  75 0 3.97935069454707 4.66002910282486
2  97 12 0 3.97935069454707 4.66002910282486
0

0101000
+217 5 -216 5 *
Ve
1.00000031e-07
-40.8169669878903 -45.3318343541211 -35
0 0

0101101
*
Ed
 1e-07 1 1 0
1  76 0 4 28.9
2  98 12 0 4 28.9
0

0101000
+217 5 -214 5 *
Ve
1.00000007e-07
-3.1924933308196 -60.916401620029 -35
0 0

0101101
*
Ed
 1e-07 1 1 0
1  77 0 4 28.9
2  99 12 0 4 28.9
0

0101000
+216 5 -212 5 *
Ed
 1e-07 1 1 0
1  78 0 3.97935069454707 4.66002910282486
2  100 12 0 3.97935069454707 4.66002910282486
0

0101000
+214 5 -212 5 *
Wi

0101100
-215 0 +213 0 -211 0 +210 0 *
Ve
1.00000007e-07
3.19249333081958 -60.916401620029 -59.9
0 0

0101101
*
Ve
1.00000007e-07
40.8169669878903 -45.3318343541211 -59.9
0 0

0101101
*
Ed
 1e-07 1 1 0
1  79 0 4.76474885794452 5.44542726622231
2  101 12 0 4.76474885794452 5.44542726622231
0

0101000
+208 5 -207 5 *
Ve
1.00000007e-07
3.19249333081958 -60.916401620029 -35
0 0

0101101
*
Ed
 1e-07 1 1 0
1  80 0 4 28.9
2  102 12 0 4 28.9
0

0101000
+208 5 -205 5 *
Ve
1.00000007e-07
40.8169669878903 -45.3318343541211 -35
0 0

0101101
*
Ed
 1e-07 1 1 0
1  81 0 4 28.9
2  103 12 0 4 28.9
0

0101000
+207 5 -203 5 *
Ed
 1e-07 1 1 0
1  82 0 4.76474885794452 5.44542726622231
2  104 12 0 4.76474885794452 5.44542726622231
0

0101000
+205 5 -203 5 *
Wi

0101100
-206 0 +204 0 -202 0 +201 0 *
Ve
1.0000001e-07
45.331834354121 -40.8169669878903 -59.9
0 0

0101101
*
Ve
1.00000007e-07
60.916401620029 -3.19249333081961 -59.9
0 0

0101101
*
Ed
 1e-07 1 1 0
1  83 0 5.55014702134197 6.23082542961976
2  105 12 0 5.55014702134197 6.23082542961976
0

0101000
+199 5 -198 5 *
Ve
1.0000001e-07
45.331834354121 -40.8169669878903 -35
0 0

0101101
*
Ed
 1e-07 1 1 0
1  84 0 4 28.9
2  106 12 0 4 28.9
0

0101000
+199 5 -196 5 *
Ve
1.00000007e-07
60.916401620029 -3.19249333081961 -35
0 0

0101101
*
Ed
 1e-07 1 1 0
1  85 0 4 28.9
2  107 12 0 4 28.9
0

0101000
+198 5 -194 5 *
Ed
 1e-07 1 1 0
1  86 0 5.55014702134197 6.23082542961976
2  108 12 0 5.55014702134197 6.23082542961976
0

0101000
+196 5 -194 5 *
Wi

0101100
-197 0 +195 0 -193 0 +192 0 *
Fa
0  1e-07 12 0

0111000
+263 0 +254 0 +245 0 +236 0 +227 0 +218 0 +209 0 +200 0 +191 0 *
Ve
1.00000016e-07
59 -1.1e-14 -62.4245901639344
0 0

0101101
*
Ed
 1e-07 1 1 0
1  87 0 1.5707963267949 7.85398163397448
2  109 13 2 1.5707963267949 7.85398163397448
2  110 22 0 1.5707963267949 7.85398163397448
0

0101100
+189 5 -189 5 *
Ve
1e-07
0 -9e-15 -77.9
0 0

0101101
*
Ed
 1e-07 1 1 0
1  88 0 2.06765442956427 63.0634601017102
3  111 112CN 13 0 2.06765442956427 63.0634601017102
0

0101000
+189 4 -187 4 *
Ed
 1e-07 1 1 1
2  113 23 0 0 6.28318530717959
2  113 13 0 0 6.28318530717959
0

0101000
+187 4 -187 4 *
Wi

0101100
+188 0 -186 2 -185 2 +186 2 *
Wi

0101100
-332 0 -343 0 -329 0 +338 0 *
Wi

0101100
-312 0 -323 0 -309 0 +318 0 *
Wi

0101100
-292 0 -303 0 -289 0 +298 0 *
Wi

0101100
-272 0 -283 0 -269 0 +278 0 *
Fa
0  1e-07 13 2

0111000
+184 0 +183 0 +182 0 +181 0 +180 0 *
Wi

0101100
+264 0 *
Ve
1.00000014e-07
59 -1.4e-14 -31
0 0

0101101
*
Ed
 1e-07 1 1 0
1  89 0 0 6.28318530717959
2  114 22 0 0 6.28318530717959
0

0101100
+177 5 -177 5 *
Wi

0101100
-176 0 *
Fa
0  1e-07 24 0

0111000
+178 0 +175 0 *
Ve
1.00000021e-07
-43.8455447031662 39.4787057751726 -59.9
0 0

0101101
*
Ve
1.00000007e-07
-58.9191425505199 3.08782141833368 -59.9
0 0

0101101
*
Ed
 1e-07 1 1 0
1  90 0 2.40855436775217 3.08923277602996
2  115 22 0 2.40855436775217 3.08923277602996
0

0101000
+173 5 -172 5 *
Ed
 1e-07 1 1 0
1  91 0 0.999999999999997 3
0

0101000
+261 5 -172 5 *
Ed
 1e-07 1 1 0
1  92 0 1 3
0

0101000
+173 5 -262 5 *
Wi

0101100
-171 0 +170 0 +260 0 +169 0 *
Fa
0  1e-07 25 0

0111000
+168 0 *
Ve
1.00000021e-07
-43.8455447031662 39.4787057751726 -35
0 0

0101101
*
Ed
 1e-07 1 1 0
1  93 0 1 3
0

0101000
+166 8 -259 8 *
Ed
 1e-07 1 1 0
1  94 0 5.00000000000001 29.9
2  116 22 0 5.00000000000001 29.9
0

0101000
+173 5 -166 5 *
Wi

0101100
-169 0 -258 0 +165 7 +164 0 *
Fa
0  1e-07 26 0

0111000
+163 0 *
Ve
1.00000007e-07
-58.9191425505199 3.08782141833368 -35
0 0

0101101
*
Ed
 1e-07 1 1 0
1  95 0 5.00000000000001 29.9
2  117 22 0 5.00000000000001 29.9
0

0101000
+172 5 -161 5 *
Ed
 1e-07 1 1 0
1  96 0 0.999999999999997 3
0

0101000
+257 8 -161 8 *
Wi

0101100
-170 0 -160 0 +159 7 +256 0 *
Fa
0  1e-07 27 0

0111000
+158 0 *
Ed
 1e-07 1 1 0
1  97 0 2.40855436775217 3.08923277602996
2  118 22 0 2.40855436775217 3.08923277602996
0

0101000
+166 5 -161 5 *
Wi

0101100
-156 0 +159 7 +255 0 +165 7 *
Fa
0  1e-07 28 7

0111000
+155 0 *
Ve
1.00000007e-07
-58.9191425505199 -3.08782141833367 -59.9
0 0

0101101
*
Ve
1.00000007e-07
-43.8455447031663 -39.4787057751726 -59.9
0 0

0101101
*
Ed
 1e-07 1 1 0
1  98 0 3.19395253114962 3.87463093942741
2  119 22 0 3.19395253114962 3.87463093942741
0

0101000
+153 5 -152 5 *
Ed
 1e-07 1 1 0
1  99 0 0.999999999999998 3
0

0101000
+252 5 -152 5 *
Ed
 1e-07 1 1 0
1  100 0 1 3
0

0101000
+153 5 -253 5 *
Wi

0101100
-151 0 +150 0 +251 0 +149 0 *
Fa
0  1e-07 29 0

0111000
+148 0 *
Ve
1.00000007e-07
-58.9191425505199 -3.08782141833367 -35
0 0

0101101
*
Ed
 1e-07 1 1 0
1  101 0 1 3
0

0101000
+146 10 -250 10 *
Ed
 1e-07 1 1 0
1  102 0 5.00000000000001 29.9
2  120 22 0 5.00000000000001 29.9
0

0101000
+153 5 -146 5 *
Wi

0101100
-149 0 -249 0 +145 9 +144 0 *
Fa
0  1e-07 30 0

0111000
+143 0 *
Ve
1.00000007e-07
-43.8455447031663 -39.4787057751726 -35
0 0

0101101
*
Ed
 1e-07 1 1 0
1  103 0 5.00000000000001 29.9
2  121 22 0 5.00000000000001 29.9
0

0101000
+152 5 -141 5 *
Ed
 1e-07 1 1 0
1  104 0 0.999999999999998 3
0

0101000
+248 10 -141 10 *
Wi

0101100
-150 0 -140 0 +139 9 +247 0 *
Fa
0  1e-07 31 0

0111000
+138 0 *
Ed
 1e-07 1 1 0
1  105 0 3.19395253114962 3.87463093942741
2  122 22 0 3.19395253114962 3.87463093942741
0

0101000
+146 5 -141 5 *
Wi

0101100
-136 0 +139 9 +246 0 +145 9 *
Fa
0  1e-07 32 9

0111000
+135 0 *
Ve
1.00000007e-07
58.9191425505199 3.08782141833369 -59.9
0 0

0101101
*
Ve
1e-07
43.8455447031663 39.4787057751726 -59.9
0 0

0101101
*
Ed
 1e-07 1 1 0
1  106 0 0.05235987755983 0.733038285837618
2  123 22 0 0.05235987755983 0.733038285837618
0

0101000
+133 5 -132 5 *
Ed
 1e-07 1 1 0
1  107 0 0.999999999999998 3
0

0101000
+243 5 -132 5 *
Ed
 1e-07 1 1 0
1  108 0 1 3
0

0101000
+133 5 -244 5 *
Wi

0101100
-131 0 +130 0 +242 0 +129 0 *
Fa
0  1e-07 33 0

0111000
+128 0 *
Ve
1.00000007e-07
58.9191425505199 3.08782141833369 -35
0 0

0101101
*
Ed
 1e-07 1 1 0
1  109 0 1 3
0

0101000
+126 12 -241 12 *
Ed
 1e-07 1 1 0
1  110 0 5.00000000000001 29.9
2  124 22 0 5.00000000000001 29.9
0

0101000
+133 5 -126 5 *
Wi

0101100
-129 0 -240 0 +125 11 +124 0 *
Fa
0  1e-07 34 0

0111000
+123 0 *
Ve
1e-07
43.8455447031663 39.4787057751726 -35
0 0

0101101
*
Ed
 1e-07 1 1 0
1  111 0 5.00000000000001 29.9
2  125 22 0 5.00000000000001 29.9
0

0101000
+132 5 -121 5 *
Ed
 1e-07 1 1 0
1  112 0 0.999999999999998 3
0

0101000
+239 12 -121 12 *
Wi

0101100
-130 0 -120 0 +119 11 +238 0 *
Fa
0  1e-07 35 0

0111000
+118 0 *
Ed
 1e-07 1 1 0
1  113 0 0.05235987755983 0.733038285837618
2  126 22 0 0.05235987755983 0.733038285837618
0

0101000
+126 5 -121 5 *
Wi

0101100
-116 0 +119 11 +237 0 +125 11 *
Fa
0  1e-07 36 11

0111000
+115 0 *
Ve
1.0000001e-07
39.4787057751726 43.8455447031663 -59.9
0 0

0101101
*
Ve
1.00000007e-07
3.08782141833369 58.9191425505199 -59.9
0 0

0101101
*
Ed
 1e-07 1 1 0
1  114 0 0.837758040957278 1.51843644923507
2  127 22 0 0.837758040957278 1.51843644923507
0

0101000
+113 5 -112 5 *
Ed
 1e-07 1 1 0
1  115 0 0.999999999999997 3
0

0101000
+234 5 -112 5 *
Ed
 1e-07 1 1 0
1  116 0 0.999999999999998 3
0

0101000
+113 5 -235 5 *
Wi

0101100
-111 0 +110 0 +233 0 +109 0 *
Fa
0  1e-07 37 0

0111000
+108 0 *
Ve
1.0000001e-07
39.4787057751726 43.8455447031663 -35
0 0

0101101
*
Ed
 1e-07 1 1 0
1  117 0 0.999999999999998 3
0

0101000
+106 14 -232 14 *
Ed
 1e-07 1 1 0
1  118 0 5.00000000000001 29.9
2  128 22 0 5.00000000000001 29.9
0

0101000
+113 5 -106 5 *
Wi

0101100
-109 0 -231 0 +105 13 +104 0 *
Fa
0  1e-07 38 0

0111000
+103 0 *
Ve
1.00000007e-07
3.08782141833369 58.9191425505199 -35
0 0

0101101
*
Ed
 1e-07 1 1 0
1  119 0 5.00000000000001 29.9
2  129 22 0 5.00000000000001 29.9
0

0101000
+112 5 -101 5 *
Ed
 1e-07 1 1 0
1  120 0 0.999999999999997 3
0

0101000
+230 14 -101 14 *
Wi

0101100
-110 0 -100 0 +99 13 +229 0 *
Fa
0  1e-07 39 0

0111000
+98 0 *
Ed
 1e-07 1 1 0
1  121 0 0.837758040957278 1.51843644923507
2  130 22 0 0.837758040957278 1.51843644923507
0

0101000
+106 5 -101 5 *
Wi

0101100
-96 0 +99 13 +228 0 +105 13 *
Fa
0  1e-07 40 13

0111000
+95 0 *
Ve
1.00000007e-07
-3.08782141833369 58.9191425505199 -59.9
0 0

0101101
*
Ve
1.00000007e-07
-39.4787057751726 43.8455447031663 -59.9
0 0

0101101
*
Ed
 1e-07 1 1 0
1  122 0 1.62315620435473 2.30383461263252
2  131 22 0 1.62315620435473 2.30383461263252
0

0101000
+93 5 -92 5 *
Ed
 1e-07 1 1 0
1  123 0 0.999999999999998 3
0

0101000
+225 5 -92 5 *
Ed
 1e-07 1 1 0
1  124 0 1 3
0

0101000
+93 5 -226 5 *
Wi

0101100
-91 0 +90 0 +224 0 +89 0 *
Fa
0  1e-07 41 0

0111000
+88 0 *
Ve
1.00000007e-07
-3.08782141833369 58.9191425505199 -35
0 0

0101101
*
Ed
 1e-07 1 1 0
1  125 0 1 3
0

0101000
+86 16 -223 16 *
Ed
 1e-07 1 1 0
1  126 0 5.00000000000001 29.9
2  132 22 0 5.00000000000001 29.9
0

0101000
+93 5 -86 5 *
Wi

0101100
-89 0 -222 0 +85 15 +84 0 *
Fa
0  1e-07 42 0

0111000
+83 0 *
Ve
1.00000007e-07
-39.4787057751726 43.8455447031663 -35
0 0

0101101
*
Ed
 1e-07 1 1 0
1  127 0 5.00000000000001 29.9
2  133 22 0 5.00000000000001 29.9
0

0101000
+92 5 -81 5 *
Ed
 1e-07 1 1 0
1  128 0 0.999999999999998 3
0

0101000
+221 16 -81 16 *
Wi

0101100
-90 0 -80 0 +79 15 +220 0 *
Fa
0  1e-07 43 0

0111000
+78 0 *
Ed
 1e-07 1 1 0
1  129 0 1.62315620435473 2.30383461263252
2  134 22 0 1.62315620435473 2.30383461263252
0

0101000
+86 5 -81 5 *
Wi

0101100
-76 0 +79 15 +219 0 +85 15 *
Fa
0  1e-07 44 15

0111000
+75 0 *
Ve
1.00000031e-07
-39.4787057751726 -43.8455447031663 -59.9
0 0

0101101
*
Ve
1.00000007e-07
-3.08782141833371 -58.9191425505199 -59.9
0 0

0101101
*
Ed
 1e-07 1 1 0
1  130 0 3.97935069454707 4.66002910282486
2  135 22 0 3.97935069454707 4.66002910282486
0

0101000
+73 5 -72 5 *
Ed
 1e-07 1 1 0
1  131 0 0.999999999999997 3
0

0101000
+216 5 -72 5 *
Ed
 1e-07 1 1 0
1  132 0 0.999999999999998 3
0

0101000
+73 5 -217 5 *
Wi

0101100
-71 0 +70 0 +215 0 +69 0 *
Fa
0  1e-07 45 0

0111000
+68 0 *
Ve
1.00000031e-07
-39.4787057751726 -43.8455447031663 -35
0 0

0101101
*
Ed
 1e-07 1 1 0
1  133 0 0.999999999999998 3
0

0101000
+66 18 -214 18 *
Ed
 1e-07 1 1 0
1  134 0 5.00000000000001 29.9
2  136 22 0 5.00000000000001 29.9
0

0101000
+73 5 -66 5 *
Wi

0101100
-69 0 -213 0 +65 17 +64 0 *
Fa
0  1e-07 46 0

0111000
+63 0 *
Ve
1.00000007e-07
-3.08782141833371 -58.9191425505199 -35
0 0

0101101
*
Ed
 1e-07 1 1 0
1  135 0 5.00000000000001 29.9
2  137 22 0 5.00000000000001 29.9
0

0101000
+72 5 -61 5 *
Ed
 1e-07 1 1 0
1  136 0 0.999999999999997 3
0

0101000
+212 18 -61 18 *
Wi

0101100
-70 0 -60 0 +59 17 +211 0 *
Fa
0  1e-07 47 0

0111000
+58 0 *
Ed
 1e-07 1 1 0
1  137 0 3.97935069454707 4.66002910282486
2  138 22 0 3.97935069454707 4.66002910282486
0

0101000
+66 5 -61 5 *
Wi

0101100
-56 0 +59 17 +210 0 +65 17 *
Fa
0  1e-07 48 17

0111000
+55 0 *
Ve
1.00000052e-07
3.08782141833369 -58.9191425505199 -59.9
0 0

0101101
*
Ve
1.00000055e-07
39.4787057751726 -43.8455447031663 -59.9
0 0

0101101
*
Ed
 1e-07 1 1 0
1  138 0 4.76474885794452 5.44542726622231
2  139 22 0 4.76474885794452 5.44542726622231
0

0101000
+53 5 -52 5 *
Ed
 1e-07 1 1 0
1  139 0 0.999999999999998 3
0

0101000
+207 5 -52 5 *
Ed
 1e-07 1 1 0
1  140 0 1 3
0

0101000
+53 5 -208 5 *
Wi

0101100
-51 0 +50 0 +206 0 +49 0 *
Fa
0  1e-07 49 0

0111000
+48 0 *
Ve
1.00000052e-07
3.08782141833369 -58.9191425505199 -35
0 0

0101101
*
Ed
 1e-07 1 1 0
1  141 0 1 3
0

0101000
+46 20 -205 20 *
Ed
 1e-07 1 1 0
1  142 0 5.00000000000001 29.9
2  140 22 0 5.00000000000001 29.9
0

0101000
+53 5 -46 5 *
Wi

0101100
-49 0 -204 0 +45 19 +44 0 *
Fa
0  1e-07 50 0

0111000
+43 0 *
Ve
1.00000055e-07
39.4787057751726 -43.8455447031663 -35
0 0

0101101
*
Ed
 1e-07 1 1 0
1  143 0 5.00000000000001 29.9
2  141 22 0 5.00000000000001 29.9
0

0101000
+52 5 -41 5 *
Ed
 1e-07 1 1 0
1  144 0 0.999999999999998 3
0

0101000
+203 20 -41 20 *
Wi

0101100
-50 0 -40 0 +39 19 +202 0 *
Fa
0  1e-07 51 0

0111000
+38 0 *
Ed
 1e-07 1 1 0
1  145 0 4.76474885794452 5.44542726622231
2  142 22 0 4.76474885794452 5.44542726622231
0

0101000
+46 5 -41 5 *
Wi

0101100
-36 0 +39 19 +201 0 +45 19 *
Fa
0  1e-07 52 19

0111000
+35 0 *
Ve
1.0000001e-07
43.8455447031663 -39.4787057751726 -59.9
0 0

0101101
*
Ve
1.00000007e-07
58.9191425505199 -3.08782141833372 -59.9
0 0

0101101
*
Ed
 1e-07 1 1 0
1  146 0 5.55014702134197 6.23082542961976
2  143 22 0 5.55014702134197 6.23082542961976
0

0101000
+33 5 -32 5 *
Ed
 1e-07 1 1 0
1  147 0 0.999999999999997 3
0

0101000
+198 5 -32 5 *
Ed
 1e-07 1 1 0
1  148 0 1 3
0

0101000
+33 5 -199 5 *
Wi

0101100
-31 0 +30 0 +197 0 +29 0 *
Fa
0  1e-07 53 0

0111000
+28 0 *
Ve
1.0000001e-07
43.8455447031663 -39.4787057751726 -35
0 0

0101101
*
Ed
 1e-07 1 1 0
1  149 0 1 3
0

0101000
+26 22 -196 22 *
Ed
 1e-07 1 1 0
1  150 0 5.00000000000001 29.9
2  144 22 0 5.00000000000001 29.9
0

0101000
+33 5 -26 5 *
Wi

0101100
-29 0 -195 0 +25 21 +24 0 *
Fa
0  1e-07 54 0

0111000
+23 0 *
Ve
1.00000007e-07
58.9191425505199 -3.08782141833372 -35
0 0

0101101
*
Ed
 1e-07 1 1 0
1  151 0 5.00000000000001 29.9
2  145 22 0 5.00000000000001 29.9
0

0101000
+32 5 -21 5 *
Ed
 1e-07 1 1 0
1  152 0 0.999999999999997 3
0

0101000
+194 22 -21 22 *
Wi

0101100
-30 0 -20 0 +19 21 +193 0 *
Fa
0  1e-07 55 0

0111000
+18 0 *
Ed
 1e-07 1 1 0
1  153 0 5.55014702134197 6.23082542961976
2  146 22 0 5.55014702134197 6.23082542961976
0

0101000
+26 5 -21 5 *
Wi

0101100
-16 0 +19 21 +192 0 +25 21 *
Fa
0  1e-07 56 21

0111000
+15 0 *
Ed
 1e-07 1 1 0
1  154 0 2.47540983606558 33.9
3  147 148CN 22 0 2.47540983606558 33.9
0

0101000
+189 5 -177 5 *
Wi

0101100
+188 0 -13 0 -176 0 +13 0 *
Wi

0101100
-171 0 +164 0 -160 0 +156 0 *
Wi

0101100
-151 0 +144 0 -140 0 +136 0 *
Wi

0101100
-131 0 +124 0 -120 0 +116 0 *
Wi

0101100
-111 0 +104 0 -100 0 +96 0 *
Wi

0101100
-91 0 +84 0 -80 0 +76 0 *
Wi

0101100
-71 0 +64 0 -60 0 +56 0 *
Wi

0101100
-51 0 +44 0 -40 0 +36 0 *
Wi

0101100
-31 0 +24 0 -20 0 +16 0 *
Fa
0  1e-07 22 0

0111000
+12 0 +11 0 +10 0 +9 0 +8 0 +7 0 +6 0 +5 0 +4 0 *
Sh

0101100
+352 0 +347 0 +340 0 +335 0 +330 0 +327 0 +320 0 +315 0 +310 0 +307 0 
+300 0 +295 0 +290 0 +287 0 +280 0 +275 0 +270 0 +267 0 +190 0 +179 0 
+174 0 +167 0 +162 0 +157 0 -154 0 +147 0 +142 0 +137 0 -134 0 +127 0 
+122 0 +117 0 -114 0 +107 0 +102 0 +97 0 -94 0 +87 0 +82 0 +77 0 
-74 0 +67 0 +62 0 +57 0 -54 0 +47 0 +42 0 +37 0 -34 0 +27 0 
+22 0 +17 0 -14 0 -3 0 *
So

0100000
+2 0 *

+1 1 