DBRep_DrawableShape

CASCADE Topology V1, (c) Matra-Datavision
Locations 0
Curve2ds 8
1 0 3.1749999999999998 1 0 
1 0.033339509261301976 0 0 1 
1 0 0 1 0 
1 6.249845797918284 0 0 1 
1 0 4.1749999999999998 1 0 
1 6.2214176431547612 0 0 1 
1 0 1 1 0 
1 0.061767664024825086 0 0 1 
Curves 12
2 0 0 3.1749999999999998 0 0 1 1 0 -0 -0 1 0 15
1 14.991664350564999 0.5 0 0 0 1 
2 0 0 0 0 0 1 1 0 -0 -0 1 0 15
1 14.991664350564999 -0.5 0 0 0 1 
1 0 0.5 3.1749999999999998 -1 0 0 
1 0 -0.5 3.1749999999999998 -1 0 0 
2 0 0 3.1749999999999998 0 0 1 1 0 -0 -0 1 0 8.0999999999999996
1 0 -0.5 0 -1 0 0 
1 8.084553172563 -0.5 -1 0 0 1 
1 0 0.5 0 -1 0 0 
2 0 0 0 0 0 1 1 0 -0 -0 1 0 8.0999999999999996
1 8.084553172563 0.5 -1 0 0 1 
Polygon3D 0
PolygonOnTriangulations 0
Surfaces 6
2 0 0 0 0 0 1 1 0 -0 -0 1 0 15
1 0 0 3.1749999999999998 0 0 1 1 0 -0 -0 1 0 
1 0 0.5 -1 0 1 0 0 -0 1 1 0 -0 
1 0 0 0 0 0 1 1 0 -0 -0 1 0 
1 0 -0.5 -1 0 1 0 0 -0 1 1 0 -0 
2 0 0 -1 0 0 1 1 0 -0 -0 1 0 8.0999999999999996
Triangulations 0

TShapes 34
Ve
1e-07
14.991664350565 0.5 3.175
0 0

0101101
*
Ve
1e-07
14.991664350565 -0.5 3.175
0 0

0101101
*
Ed
 1e-07 1 1 0
1  1 0 0.033339509261302 6.24984579791828
2  1 1 0 0.033339509261302 6.24984579791828
4 C0 1 0 2 0
0

0101000
+34 0 -33 0 *
Ve
1e-07
14.991664350565 0.5 0
0 0

0101101
*
Ed
 1e-07 1 1 0
1  2 0 0 3.175
2  2 1 0 0 3.175
4 C0 1 0 3 0
0

0101000
+31 0 -34 0 *
Ve
1e-07
14.991664350565 -0.5 0
0 0

0101101
*
Ed
 1e-07 1 1 0
1  3 0 0.033339509261302 6.24984579791828
2  3 1 0 0.033339509261302 6.24984579791828
4 C0 1 0 4 0
0

0101000
+31 0 -29 0 *
Ed
 1e-07 1 1 0
1  4 0 0 3.175
2  4 1 0 0 3.175
4 C0 1 0 5 0
0

0101000
+29 0 -33 0 *
Wi

0101100
-32 0 -30 0 +28 0 +27 0 *
Fa
0  1e-07 1 0

0111000
+26 0 *
Ve
1e-07
8.084553172563 0.5 3.175
0 0

0101101
*
Ed
 1e-07 1 1 0
1  5 0 -14.991664350565 -8.084553172563
4 C0 2 0 3 0
0

0101000
+34 0 -24 0 *
Ve
1e-07
8.084553172563 -0.5 3.175
0 0

0101101
*
Ed
 1e-07 1 1 0
1  6 0 -14.991664350565 -8.084553172563
4 C0 2 0 5 0
0

0101000
+33 0 -22 0 *
Ed
 1e-07 1 1 0
1  7 0 0.0617676640248251 6.22141764315476
2  5 6 0 0.0617676640248251 6.22141764315476
4 C0 2 0 6 0
0

0101000
+24 0 -22 0 *
Wi

0101100
-23 0 +32 0 +21 0 -20 0 *
Fa
0  1e-07 2 0

0111000
+19 0 *
Ve
1e-07
8.084553172563 -0.5 0
0 0

0101101
*
Ed
 1e-07 1 1 0
1  8 0 -14.991664350565 -8.084553172563
4 C0 5 0 4 0
0

0101000
+29 0 -17 0 *
Ed
 1e-07 1 1 0
1  9 0 1 4.175
2  6 6 0 1 4.175
4 C0 5 0 6 0
0

0101000
+17 0 -22 0 *
Wi

0101100
-27 0 +16 0 +15 0 -21 0 *
Fa
0  1e-07 5 0

0111000
+14 0 *
Ve
1e-07
8.084553172563 0.5 0
0 0

0101101
*
Ed
 1e-07 1 1 0
1  10 0 -14.991664350565 -8.084553172563
4 C0 4 0 3 0
0

0101000
+31 0 -12 0 *
Ed
 1e-07 1 1 0
1  11 0 0.0617676640248251 6.22141764315476
2  7 6 0 0.0617676640248251 6.22141764315476
4 C0 4 0 6 0
0

0101000
+12 0 -17 0 *
Wi

0101100
-11 0 +28 0 +16 0 -10 0 *
Fa
0  1e-07 4 0

0111000
+9 0 *
Ed
 1e-07 1 1 0
1  12 0 1 4.175
2  8 6 0 1 4.175
4 C0 3 0 6 0
0

0101000
+12 0 -24 0 *
Wi

0101100
-30 0 +11 0 +7 0 -23 0 *
Fa
0  1e-07 3 0

0111000
+6 0 *
Wi

0101100
-20 0 -7 0 +10 0 +15 0 *
Fa
0  1e-07 6 0

0111000
+4 0 *
Sh

0101100
+25 0 +18 0 +13 0 -8 0 -5 0 -3 0 *
So

0100000
+2 0 *

+1 0 