
CASCADE Topology V1, (c) Matra-Datavision
Locations 18
1
1.000000000000000 0.000000000000000 0.000000000000000 0.000000000000000 
0.000000000000000 1.000000000000000 0.000000000000000 0.000000000000000 
0.000000000000000 0.000000000000000 1.000000000000000 0.000000000000000 
1
1.000000000000000 -0.000000000000000 0.000000000000000 4774.322745664739159 
0.000000000000000 0.000000000000000 1.000000000000000 473.074999999999989 
-0.000000000000000 -1.000000000000000 0.000000000000000 2122.321821631878265 
1
1.000000000000000 0.000000000000000 0.000000000000000 0.000000000000000 
0.000000000000000 1.000000000000000 0.000000000000000 0.000000000000000 
0.000000000000000 0.000000000000000 1.000000000000000 0.000000000000000 
2  3 -1 2 -1 0
1
1.000000000000000 0.000000000000000 0.000000000000000 0.000000000000000 
0.000000000000000 1.000000000000000 0.000000000000000 0.000000000000000 
0.000000000000000 0.000000000000000 1.000000000000000 0.000000000000000 
1
1.000000000000000 0.000000000000000 0.000000000000000 4774.322745664739159 
0.000000000000000 0.000000000000000 1.000000000000000 473.074999999999989 
0.000000000000000 -1.000000000000000 0.000000000000000 2122.321821631878265 
1
1.000000000000000 0.000000000000000 0.000000000000000 4774.322745664739159 
0.000000000000000 0.000000000000000 1.000000000000000 473.074999999999989 
0.000000000000000 -1.000000000000000 0.000000000000000 2122.321821631878265 
2  5 1 6 1 7 -1 0
2  3 -1 2 -1 7 1 6 -1 5 -1 0
1
1.000000000000000 0.000000000000000 0.000000000000000 0.000000000000000 
0.000000000000000 1.000000000000000 0.000000000000000 -0.000000000000077 
0.000000000000000 0.000000000000000 1.000000000000000 692.149999999999864 
2  5 1 6 1 7 -1 10 1 0
2  3 -1 2 -1 10 -1 7 1 6 -1 5 -1 0
2  5 1 6 1 7 -1 2 1 0
2  5 1 6 1 7 -1 10 1 2 1 0
2  3 -1 0
2  7 -1 2 1 0
2  5 1 6 1 0
2  7 -1 10 1 2 1 0
Curve2ds 16
1 0.68419458468442784 0.00000000000000000 0.00000000000000000 1.00000000000000000 
1 5.19740927478163961 0.00000000000000000 0.00000000000000000 1.00000000000000000 
1 0.68419458468443417 0.00000000000000000 0.00000000000000000 1.00000000000000000 
1 5.19740927478163961 0.00000000000000000 0.00000000000000000 1.00000000000000000 
1 0.00000000000000000 0.00000000000000000 1.00000000000000000 0.00000000000000000 
1 0.00000000000000000 0.00000000000000000 1.00000000000000000 0.00000000000000000 
1 0.00000000000000000 125.82499999999998863 1.00000000000000000 0.00000000000000000 
1 0.75153570264444935 0.00000000000000000 0.00000000000000000 1.00000000000000000 
1 5.13006815682163086 0.00000000000000000 0.00000000000000000 1.00000000000000000 
1 0.00000000000000000 125.82499999999998863 1.00000000000000000 0.00000000000000000 
1 0.00000000000000000 0.00000000000000000 1.00000000000000000 0.00000000000000000 
1 0.00000000000000000 0.00000000000000000 1.00000000000000000 0.00000000000000000 
1 0.00000000000000000 125.82499999999998863 1.00000000000000000 0.00000000000000000 
1 0.75153570264444935 0.00000000000000000 0.00000000000000000 1.00000000000000000 
1 5.13006815682162909 0.00000000000000000 0.00000000000000000 1.00000000000000000 
1 0.00000000000000000 125.82499999999998863 1.00000000000000000 0.00000000000000000 
Curves 54
1 0.00000000000000000 0.00000000000000000 0.00000000000000000 0.00000000000000000 -0.00000000000000011 1.00000000000000000 
1 -494.32274566473915911 0.00000000000000000 0.00000000000000000 0.00000000000000000 -0.00000000000000011 1.00000000000000000 
1 0.00000000000000000 0.00000000000000000 0.00000000000000000 -1.00000000000000000 0.00000000000000000 0.00000000000000000 
1 0.00000000000000000 0.00000000000000000 0.00000000000000000 -1.00000000000000000 0.00000000000000000 0.00000000000000000 
1 0.00000000000000000 6.00000000000000000 0.00000000000000067 0.00000000000000000 -0.00000000000000011 1.00000000000000000 
1 0.00000000000000000 6.00000000000000000 0.00000000000000000 0.00000000000000000 -1.00000000000000000 0.00000000000000000 
1 0.00000000000000000 6.00000000000000000 0.00000000000000000 0.00000000000000000 -1.00000000000000000 0.00000000000000000 
1 -494.32274566473915911 0.00000000000000000 0.00000000000000000 -0.97990917888768203 0.19944423063019093 0.00000000000000000 
1 -494.32274566473915911 0.00000000000000000 0.00000000000000000 -0.97990917888768203 0.19944423063019093 0.00000000000000000 
1 -3348.74774566473934101 580.97077798863665521 0.00000000000006450 0.00000000000000000 -0.00000000000000011 1.00000000000000000 
1 4212.23185203496177564 1009.73750000000018190 2108.52874118797217307 -0.97990917888768203 0.00000000000000000 -0.19944423063019093 
1 4229.49451436608433141 1009.73750000000006821 2112.04226925918374036 0.00000000000000000 1.00000000000000000 0.00000000000000000 
1 4059.43289377376413540 1009.73750000000006821 2077.42905222894842154 0.00000000000000000 1.00000000000000000 0.00000000000000000 
1 4212.23185203496177564 1135.56250000000000000 2108.52874118797217307 -0.97990917888768203 0.00000000000000000 -0.19944423063019093 
1 4212.23185203496177564 629.73749999999995453 2108.52874118797217307 -0.97990917888768203 0.00000000000000000 -0.19944423063019093 
1 4229.49451436608524091 629.73749999999995453 2112.04226925918374036 0.00000000000000000 1.00000000000000000 0.00000000000000000 
1 4059.43289377376413540 629.73749999999995453 2077.42905222894842154 0.00000000000000000 1.00000000000000000 0.00000000000000000 
1 4212.23185203496177564 755.56250000000000000 2108.52874118797217307 -0.97990917888768203 0.00000000000000000 -0.19944423063019093 
1 4174.41776585828392854 553.07500000000004547 2100.83231228723252570 -0.97990917888768203 0.00000000000000000 -0.19944423063019093 
1 4171.08226666248810943 513.07500000000004547 2100.15342685049381544 -0.00000000000000164 1.00000000000000000 0.00000000000000000 
1 4174.41776585828392854 589.07500000000004547 2100.83231228723252570 -0.97990917888768203 0.00000000000000000 -0.19944423063019093 
1 4077.62601156069285935 513.07500000000004547 2081.13195904720805629 0.00000000000000000 1.00000000000000000 0.00000000000000033 
1 -3348.74774566473934101 580.97077798863665521 0.00000000000000000 0.00000000000000000 1.00000000000000000 0.00000000000000000 
1 -3348.74774566473934101 587.09379441635360308 0.00000000000000000 0.97990917888768203 -0.19944423063019090 0.00000000000000000 
1 -493.71834148471862136 6.00000000000000000 0.00000000000000000 1.00000000000000000 0.00000000000000000 0.00000000000000000 
1 -3348.74774566473934101 580.97077798863665521 0.00000000000000000 0.00000000000000000 1.00000000000000000 0.00000000000000000 
1 -3348.74774566473934101 587.09379441635360308 0.00000000000000000 0.97990917888768203 -0.19944423063019090 0.00000000000000000 
1 -493.71834148471862136 6.00000000000000000 0.00000000000000000 1.00000000000000000 0.00000000000000000 0.00000000000000000 
1 -493.71834148471862136 6.00000000000000000 0.00000000000000067 0.00000000000000000 -0.00000000000000011 1.00000000000000000 
1 -3348.74774566473934101 587.09379441635360308 0.00000000000006518 0.00000000000000000 -0.00000000000000011 1.00000000000000000 
2 4158.62601156069285935 1009.73750000000006821 2025.15342685049381544 0.00000000000000000 1.00000000000000000 0.00000000000000000 0.00000000000000000 0.00000000000000000 1.00000000000000000 1.00000000000000000 0.00000000000000000 0.00000000000000000 112.12500000000000000
1 2785.61768472685298548 1009.73750000000006821 1812.04211644313249963 0.97990917888768203 0.00000000000000000 0.19944423063019090 
2 4158.62601156069285935 1009.73750000000006821 2025.15342685049381544 0.00000000000000000 1.00000000000000000 0.00000000000000000 0.00000000000000000 0.00000000000000000 1.00000000000000000 1.00000000000000000 0.00000000000000000 0.00000000000000000 112.12500000000000000
2 4158.62601156069285935 1135.56250000000000000 2025.15342685049381544 0.00000000000000000 1.00000000000000000 0.00000000000000000 0.00000000000000000 0.00000000000000000 1.00000000000000000 1.00000000000000000 0.00000000000000000 0.00000000000000000 112.12500000000000000
1 4235.18065734321316995 1009.73750000000006821 2107.07657275025121635 0.00000000000000000 1.00000000000000000 0.00000000000000000 
1 4056.14008156419959050 1009.73750000000006821 2070.63583859122900321 0.00000000000000000 1.00000000000000000 0.00000000000000000 
2 4158.62601156069285935 1135.56250000000000000 2025.15342685049381544 0.00000000000000000 1.00000000000000000 0.00000000000000000 0.00000000000000000 0.00000000000000000 1.00000000000000000 1.00000000000000000 0.00000000000000000 0.00000000000000000 112.12500000000000000
1 2785.61768472685298548 1135.56250000000000000 1812.04211644313249963 0.97990917888768203 0.00000000000000000 0.19944423063019090 
2 4158.62601156069285935 629.73749999999995453 2025.15342685049381544 0.00000000000000000 1.00000000000000000 0.00000000000000000 0.00000000000000000 0.00000000000000000 1.00000000000000000 1.00000000000000000 0.00000000000000000 0.00000000000000000 112.12500000000000000
1 2785.61768472685298548 629.73749999999995453 1812.04211644313227225 0.97990917888768203 0.00000000000000000 0.19944423063019090 
2 4158.62601156069285935 629.73749999999995453 2025.15342685049381544 0.00000000000000000 1.00000000000000000 0.00000000000000000 0.00000000000000000 0.00000000000000000 1.00000000000000000 1.00000000000000000 0.00000000000000000 0.00000000000000000 112.12500000000000000
2 4158.62601156069285935 755.56250000000000000 2025.15342685049381544 0.00000000000000000 1.00000000000000000 0.00000000000000000 0.00000000000000000 0.00000000000000000 1.00000000000000000 1.00000000000000000 0.00000000000000000 0.00000000000000000 112.12500000000000000
1 4235.18065734321316995 629.73749999999995453 2107.07657275025121635 0.00000000000000000 1.00000000000000000 0.00000000000000000 
1 4056.14008156419913576 629.73749999999995453 2070.63583859122900321 0.00000000000000000 1.00000000000000000 0.00000000000000000 
2 4158.62601156069285935 755.56250000000000000 2025.15342685049381544 0.00000000000000000 1.00000000000000000 0.00000000000000000 0.00000000000000000 0.00000000000000000 1.00000000000000000 1.00000000000000000 0.00000000000000000 0.00000000000000000 112.12500000000000000
1 2785.61768472685298548 755.56250000000000000 1812.04211644313227225 0.97990917888768203 0.00000000000000000 0.19944423063019090 
1 2747.80359855017422888 553.07500000000004547 1804.34568754239262489 0.97990917888768203 0.00000000000000000 0.19944423063019090 
1 4077.62601156069285935 553.07500000000004547 2100.15342685049381544 1.00000000000000000 0.00000000000000000 0.00000000000000000 
1 4077.62601156069285935 553.07500000000004547 2036.15342685049381544 0.00000000000000000 0.00000000000000000 1.00000000000000000 
1 2747.80359855017422888 589.07500000000004547 1804.34568754239262489 0.97990917888768203 0.00000000000000000 0.19944423063019090 
1 4077.62601156069285935 589.07500000000004547 2100.15342685049381544 1.00000000000000000 0.00000000000000000 0.00000000000000000 
1 4077.62601156069285935 589.07500000000004547 2036.15342685049381544 0.00000000000000000 0.00000000000000000 1.00000000000000000 
1 4077.62601156069285935 513.07500000000004547 2075.00894261949088104 0.00000000000000000 -1.00000000000000000 -0.00000000000000033 
1 4201.16586437319529068 513.07500000000254659 2100.15342685049381544 0.00000000000000164 -1.00000000000000000 0.00000000000000000 
Polygon3D 0
PolygonOnTriangulations 0
Surfaces 20
1 0.00000000000000000 0.00000000000000000 0.00000000000000000 -0.00000000000000000 -1.00000000000000000 -0.00000000000000011 -1.00000000000000000 0.00000000000000000 0.00000000000000000 0.00000000000000000 0.00000000000000011 -1.00000000000000000 
1 0.00000000000000000 6.00000000000000000 0.00000000000000067 1.00000000000000000 0.00000000000000000 0.00000000000000000 0.00000000000000000 -1.00000000000000000 -0.00000000000000011 0.00000000000000000 0.00000000000000011 -1.00000000000000000 
1 -494.32274566473915911 0.00000000000000000 0.00000000000000000 -0.19944423063019093 -0.97990917888768203 -0.00000000000000011 -0.97990917888768203 0.19944423063019093 0.00000000000000002 0.00000000000000000 0.00000000000000011 -1.00000000000000000 
2 4158.62601156069285935 1009.73750000000006821 2025.15342685049381544 0.00000000000000000 1.00000000000000000 0.00000000000000000 0.00000000000000000 0.00000000000000000 1.00000000000000000 1.00000000000000000 0.00000000000000000 0.00000000000000000 112.12500000000000000
2 4158.62601156069285935 1009.73750000000006821 2025.15342685049381544 0.00000000000000000 1.00000000000000000 0.00000000000000000 0.00000000000000000 0.00000000000000000 1.00000000000000000 1.00000000000000000 0.00000000000000000 0.00000000000000000 112.12500000000000000
2 4158.62601156069285935 629.73749999999995453 2025.15342685049381544 0.00000000000000000 1.00000000000000000 0.00000000000000000 0.00000000000000000 0.00000000000000000 1.00000000000000000 1.00000000000000000 0.00000000000000000 0.00000000000000000 112.12500000000000000
2 4158.62601156069285935 629.73749999999995453 2025.15342685049381544 0.00000000000000000 1.00000000000000000 0.00000000000000000 0.00000000000000000 0.00000000000000000 1.00000000000000000 1.00000000000000000 0.00000000000000000 0.00000000000000000 112.12500000000000000
1 3095.68312897367104597 473.07499999999998863 1870.84751693903785963 0.00000000000000000 1.00000000000000000 0.00000000000000000 0.00000000000000000 0.00000000000000000 1.00000000000000000 1.00000000000000000 0.00000000000000000 0.00000000000000000 
1 3095.68312897367104597 473.07499999999998863 1870.84751693903785963 0.00000000000000000 1.00000000000000000 0.00000000000000000 0.00000000000000000 0.00000000000000000 1.00000000000000000 1.00000000000000000 0.00000000000000000 0.00000000000000000 
1 -493.71834148471862136 6.00000000000000000 0.00000000000000067 0.00000000000000000 1.00000000000000000 0.00000000000000011 1.00000000000000000 0.00000000000000000 0.00000000000000000 0.00000000000000000 0.00000000000000011 -1.00000000000000000 
1 -3348.74774566473934101 580.97077798863665521 0.00000000000006450 -1.00000000000000000 0.00000000000000000 0.00000000000000000 0.00000000000000000 1.00000000000000000 0.00000000000000011 0.00000000000000000 0.00000000000000011 -1.00000000000000000 
1 4158.62601156069285935 1009.73750000000006821 2025.15342685049381544 0.00000000000000000 1.00000000000000000 0.00000000000000000 0.00000000000000000 0.00000000000000000 1.00000000000000000 1.00000000000000000 0.00000000000000000 0.00000000000000000 
1 4158.62601156069285935 1135.56250000000000000 2025.15342685049381544 0.00000000000000000 1.00000000000000000 0.00000000000000000 0.00000000000000000 0.00000000000000000 1.00000000000000000 1.00000000000000000 0.00000000000000000 0.00000000000000000 
1 4158.62601156069285935 629.73749999999995453 2025.15342685049381544 0.00000000000000000 1.00000000000000000 0.00000000000000000 0.00000000000000000 0.00000000000000000 1.00000000000000000 1.00000000000000000 0.00000000000000000 0.00000000000000000 
1 4158.62601156069285935 755.56250000000000000 2025.15342685049381544 0.00000000000000000 1.00000000000000000 0.00000000000000000 0.00000000000000000 0.00000000000000000 1.00000000000000000 1.00000000000000000 0.00000000000000000 0.00000000000000000 
1 4077.62601156069285935 553.07500000000004547 2036.15342685049381544 0.00000000000000000 1.00000000000000000 0.00000000000000000 0.00000000000000000 0.00000000000000000 1.00000000000000000 1.00000000000000000 0.00000000000000000 0.00000000000000000 
1 4077.62601156069285935 589.07500000000004547 2036.15342685049381544 0.00000000000000000 1.00000000000000000 0.00000000000000000 0.00000000000000000 0.00000000000000000 1.00000000000000000 1.00000000000000000 0.00000000000000000 0.00000000000000000 
1 4077.62601156069285935 553.07500000000004547 2036.15342685049381544 1.00000000000000000 0.00000000000000000 0.00000000000000000 0.00000000000000000 0.00000000000000000 1.00000000000000000 0.00000000000000000 -1.00000000000000000 0.00000000000000000 
1 -3348.74774566473934101 587.09379441635360308 0.00000000000006518 0.19944423063019090 0.97990917888768203 0.00000000000000011 0.97990917888768203 -0.19944423063019090 -0.00000000000000002 0.00000000000000000 0.00000000000000011 -1.00000000000000000 
1 4077.62601156069285935 553.07500000000004547 2100.15342685049381544 0.00000000000000000 0.00000000000000000 1.00000000000000000 1.00000000000000000 0.00000000000000000 0.00000000000000000 0.00000000000000000 1.00000000000000000 0.00000000000000000 
Triangulations 0

TShapes 139
Ve
0.000000100000000
4774.322745664739159 473.074999999999989 2122.321821631878265
0 0

0101101
*
Ve
0.000000100000000
4774.322745664739159 1165.224999999999909 2122.321821631878720
0 0

0101101
*
Ed
 0.000000100000000 1 1 0
1  1 0 0.000000000000000 692.149999999999864
0

0101000
+139 4 -138 4 *
Ve
0.000000100000000
4280.000000000000000 473.074999999999989 2122.321821631878265
0 0

0101101
*
Ve
0.000000100000000
4280.000000000000000 1165.224999999999909 2122.321821631878720
0 0

0101101
*
Ed
 0.000000100000000 1 1 0
1  2 0 0.000000000000000 692.149999999999864
0

0101000
+136 4 -135 4 *
Ed
 0.000000100000000 1 1 0
1  3 0 0.000000000000000 494.322745664739159
0

0101000
+139 9 -136 9 *
Ed
 0.000000100000000 1 1 0
1  4 0 0.000000000000000 494.322745664739159
0

0101000
+138 12 -135 12 *
Wi

0101100
+137 0 -134 0 -133 8 +132 11 *
Fa
0  0.000000100000000 1 0

0111000
+131 0 *
Ve
0.000000100000000
4774.322745664739159 473.074999999999989 2116.321821631878265
0 0

0101101
*
Ve
0.000000100000000
4774.322745664739159 1165.224999999999909 2116.321821631878720
0 0

0101101
*
Ed
 0.000000100000000 1 1 0
1  5 0 0.000000000000000 692.149999999999864
0

0101000
+129 4 -128 4 *
Ed
 0.000000100000000 1 1 0
1  6 0 0.000000000000000 6.000000000000000
0

0101000
+129 9 -139 9 *
Ed
 0.000000100000000 1 1 0
1  7 0 0.000000000000000 6.000000000000000
0

0101000
+128 12 -138 12 *
Wi

0101100
+127 0 -137 0 -126 8 +125 11 *
Fa
0  0.000000100000000 2 0

0111000
+124 0 *
Ve
0.000000100000000
1425.574999999999818 473.075000000000159 1541.351043643241610
0 0

0101101
*
Ed
 0.000000100000000 1 1 0
1  8 0 0.000000000000000 2912.948527781039047
0

0101000
+136 9 -122 9 *
Ve
0.000000100000000
1425.574999999999818 1165.225000000000136 1541.351043643242065
0 0

0101101
*
Ed
 0.000000100000000 1 1 0
1  9 0 0.000000000000000 2912.948527781039047
0

0101000
+135 12 -120 12 *
Ed
 0.000000100000000 1 1 0
1  10 0 0.000000000000000 692.149999999999864
0

0101000
+122 4 -120 4 *
Wi

0101100
+134 2 -121 13 +119 14 -118 2 *
Ve
0.000000150000114
4229.494514366085241 1009.737500000000068 2112.042269259183740
0 0

0101101
*
Ve
0.000000150000114
4059.432893773764590 1009.737500000000068 2077.429052228948422
0 0

0101101
*
Ed
 0.000000150000000 1 1 0
1  11 0 -17.616594173266886 155.931755261893670
0

0101000
+116 15 -115 15 *
Ve
0.000000150000000
4229.494514366085241 1135.562500000000000 2112.042269259183740
0 0

0101101
*
Ed
 0.000000100000000 1 1 0
1  12 0 0.000000000000000 125.824999999999932
2  1 4 0 0.000000000000000 125.824999999999932
0

0101000
+116 15 -113 15 *
Ve
0.000000150000000
4059.432893773764590 1135.562500000000000 2077.429052228948422
0 0

0101101
*
Ed
 0.000000100000000 1 1 0
1  13 0 0.000000000000000 125.824999999999932
2  2 5 0 0.000000000000000 125.824999999999932
0

0101000
+115 15 -111 15 *
Ed
 0.000000150000000 1 1 0
1  14 0 -17.616594173266886 155.931755261893670
0

0101000
+113 15 -111 15 *
Wi

0101100
+114 0 -112 0 +110 0 -109 0 *
Ve
0.000000150000000
4229.494514366085241 629.737499999999955 2112.042269259183740
0 0

0101101
*
Ve
0.000000150000000
4059.432893773764590 629.737499999999955 2077.429052228948422
0 0

0101101
*
Ed
 0.000000150000000 1 1 0
1  15 0 -17.616594173266886 155.931755261893670
0

0101000
+107 15 -106 15 *
Ve
0.000000150000000
4229.494514366085241 755.562500000000000 2112.042269259183740
0 0

0101101
*
Ed
 0.000000100000000 1 1 0
1  16 0 0.000000000000000 125.825000000000045
2  3 6 0 0.000000000000000 125.825000000000045
0

0101000
+107 15 -104 15 *
Ve
0.000000150000000
4059.432893773764590 755.562500000000000 2077.429052228948422
0 0

0101101
*
Ed
 0.000000100000000 1 1 0
1  17 0 0.000000000000000 125.825000000000045
2  4 7 0 0.000000000000000 125.825000000000045
0

0101000
+106 15 -102 15 *
Ed
 0.000000150000000 1 1 0
1  18 0 -17.616594173266886 155.931755261893670
0

0101000
+104 15 -102 15 *
Wi

0101100
+105 0 -103 0 +101 0 -100 0 *
Ve
0.000000150000909
4171.082266662487200 553.075000000000045 2100.153426850493815
0 0

0101101
*
Ve
0.000000150000000
4077.626011560692859 553.075000000000045 2081.131959047208056
0 0

0101101
*
Ed
 0.000000150000000 1 1 0
1  19 0 3.403886061750785 98.776250271950374
0

0101000
+98 15 -97 15 *
Ve
0.000000150000909
4171.082266662487200 589.075000000000045 2100.153426850493815
0 0

0101101
*
Ed
 0.000000150000000 1 1 0
1  20 0 40.000000000000000 76.000000000000000
0

0101000
+98 15 -95 15 *
Ve
0.000000150000000
4077.626011560692859 589.075000000000045 2081.131959047208056
0 0

0101101
*
Ed
 0.000000150000000 1 1 0
1  21 0 3.403886061750785 98.776250271950374
0

0101000
+95 15 -93 15 *
Ed
 0.000000150000000 1 1 0
1  22 0 40.000000000000000 76.000000000000000
0

0101000
+97 15 -93 15 *
Wi

0101100
+96 0 -94 0 -92 0 +91 0 *
Fa
0  0.000000100000000 3 2

0111000
+117 0 +108 0 +99 0 +90 0 *
Ve
0.000000100000000
1425.574999999999818 473.075000000000159 1535.228027215524662
0 0

0101101
*
Ed
 0.000000100000000 1 1 0
1  23 0 0.000000000000000 6.123016427716948
0

0101000
+122 9 -88 9 *
Ve
0.000000100000000
4280.604404180020538 473.074999999999989 2116.321821631878265
0 0

0101101
*
Ed
 0.000000100000000 1 1 0
1  24 0 0.000000000000000 2913.565323901580086
0

0101000
+88 9 -86 9 *
Ed
 0.000000100000000 1 1 0
1  25 0 0.000000000000000 493.718341484718621
0

0101000
+86 9 -129 9 *
Wi

0101100
+133 0 +121 0 +87 0 +85 0 +84 0 +126 0 *
Fa
0  0.000000100000000 8 0

0111000
-83 17 *
Ve
0.000000100000000
1425.574999999999818 1165.225000000000136 1535.228027215525117
0 0

0101101
*
Ed
 0.000000100000000 1 1 0
1  26 0 0.000000000000000 6.123016427716948
0

0101000
+120 12 -81 12 *
Ve
0.000000100000000
4280.604404180020538 1165.224999999999909 2116.321821631878720
0 0

0101101
*
Ed
 0.000000100000000 1 1 0
1  27 0 0.000000000000000 2913.565323901580086
0

0101000
+81 12 -79 12 *
Ed
 0.000000100000000 1 1 0
1  28 0 0.000000000000000 493.718341484718621
0

0101000
+79 12 -128 12 *
Wi

0101100
+132 0 +119 0 +80 0 +78 0 +77 0 +125 0 *
Fa
0  0.000000100000000 9 0

0111000
-76 17 *
Ed
 0.000000100000000 1 1 0
1  29 0 0.000000000000000 692.149999999999864
0

0101000
+86 4 -79 4 *
Wi

0101100
+74 0 -127 0 -84 8 +77 11 *
Fa
0  0.000000100000000 10 0

0111000
+73 0 *
Ed
 0.000000100000000 1 1 0
1  30 0 0.000000000000000 692.149999999999864
0

0101000
+88 4 -81 4 *
Wi

0101100
+118 0 -71 0 -87 8 +80 11 *
Fa
0  0.000000100000000 11 0

0111000
+70 0 *
Ve
0.000000150000000
4056.140081564199136 1009.737500000000068 2070.635838591229003
0 0

0101101
*
Ed
 0.000000100000000 1 1 0
1  31 0 5.130068156821629 5.197409274781641
2  5 5 0 5.130068156821629 5.197409274781641
0

0101000
+68 15 -115 15 *
Ve
0.000000150000000
4235.180657343212260 1009.737500000000068 2107.076572750251216
0 0

0101101
*
Ed
 0.000000150000000 1 1 0
1  32 0 1296.571584602918165 1479.282982390054030
0

0101000
+68 15 -66 15 *
Ed
 0.000000100000000 1 1 0
1  33 0 0.684194584684434 0.751535702644443
2  6 4 0 0.684194584684434 0.751535702644443
0

0101000
+116 15 -66 15 *
Wi

0101100
-114 0 +67 0 -65 0 +64 0 *
Fa
0  0.000000100000000 12 0

0111000
+63 0 *
Ve
0.000000150000000
4235.180657343212260 1135.562500000000000 2107.076572750251216
0 0

0101101
*
Ed
 0.000000100000000 1 1 0
1  34 0 0.684194584684434 0.751535702644443
2  7 4 0 0.684194584684434 0.751535702644443
0

0101000
+113 15 -61 15 *
Ed
 0.000000100000000 1 1 0
1  35 0 0.000000000000000 125.824999999999932
2  8 4 0 0.000000000000000 125.824999999999932
0

0101000
+66 15 -61 15 *
Wi

0101100
-60 0 +59 0 +64 0 -112 0 *
Fa
0  0.000000100000000 4 0

0111000
+58 0 *
Ve
0.000000150000000
4056.140081564199136 1135.562500000000000 2070.635838591229003
0 0

0101101
*
Ed
 0.000000100000000 1 1 0
1  36 0 0.000000000000000 125.824999999999932
2  9 5 0 0.000000000000000 125.824999999999932
0

0101000
+68 15 -56 15 *
Ed
 0.000000100000000 1 1 0
1  37 0 5.130068156821629 5.197409274781641
2  10 5 0 5.130068156821629 5.197409274781641
0

0101000
+56 15 -111 15 *
Wi

0101100
+110 0 +67 0 -55 0 -54 0 *
Fa
0  0.000000100000000 5 0

0111000
+53 0 *
Ed
 0.000000150000000 1 1 0
1  38 0 1296.571584602918165 1479.282982390054030
0

0101000
+56 15 -61 15 *
Wi

0101100
-109 0 +54 0 -51 0 +60 0 *
Fa
0  0.000000100000000 13 0

0111000
+50 0 *
Ve
0.000000150000000
4056.140081564198681 629.737499999999955 2070.635838591228548
0 0

0101101
*
Ed
 0.000000100000000 1 1 0
1  39 0 5.130068156821624 5.197409274781641
2  11 7 0 5.130068156821624 5.197409274781641
0

0101000
+48 15 -106 15 *
Ve
0.000000150000455
4235.180657343213170 629.737499999999955 2107.076572750250762
0 0

0101101
*
Ed
 0.000000150000000 1 1 0
1  40 0 1296.571584602917483 1479.282982390054940
0

0101000
+48 15 -46 15 *
Ed
 0.000000100000000 1 1 0
1  41 0 0.684194584684434 0.751535702644452
2  12 6 0 0.684194584684434 0.751535702644452
0

0101000
+107 15 -46 15 *
Wi

0101100
-105 0 +47 0 -45 0 +44 0 *
Fa
0  0.000000100000000 14 0

0111000
+43 0 *
Ve
0.000000150000455
4235.180657343213170 755.562500000000000 2107.076572750250762
0 0

0101101
*
Ed
 0.000000100000000 1 1 0
1  42 0 0.684194584684434 0.751535702644452
2  13 6 0 0.684194584684434 0.751535702644452
0

0101000
+104 15 -41 15 *
Ed
 0.000000100000000 1 1 0
1  43 0 0.000000000000000 125.825000000000045
2  14 6 0 0.000000000000000 125.825000000000045
0

0101000
+46 15 -41 15 *
Wi

0101100
-40 0 +39 0 +44 0 -103 0 *
Fa
0  0.000000100000000 6 0

0111000
+38 0 *
Ve
0.000000150000000
4056.140081564198681 755.562500000000000 2070.635838591228548
0 0

0101101
*
Ed
 0.000000100000000 1 1 0
1  44 0 0.000000000000000 125.825000000000045
2  15 7 0 0.000000000000000 125.825000000000045
0

0101000
+48 15 -36 15 *
Ed
 0.000000100000000 1 1 0
1  45 0 5.130068156821624 5.197409274781641
2  16 7 0 5.130068156821624 5.197409274781641
0

0101000
+36 15 -102 15 *
Wi

0101100
+101 0 +47 0 -35 0 -34 0 *
Fa
0  0.000000100000000 7 0

0111000
+33 0 *
Ed
 0.000000150000000 1 1 0
1  46 0 1296.571584602917483 1479.282982390054940
0

0101000
+36 15 -41 15 *
Wi

0101100
-100 0 +34 0 -31 0 +40 0 *
Fa
0  0.000000100000000 15 0

0111000
+30 0 *
Ve
0.000000150000455
4077.626011560692859 553.075000000000045 2075.008942619491336
0 0

0101101
*
Ve
0.000000150001819
4201.165864373195291 553.075000000000045 2100.153426850493815
0 0

0101101
*
Ed
 0.000000150000000 1 1 0
1  47 0 1357.087413468288105 1483.160171509735846
0

0101000
+28 15 -27 15 *
Ed
 0.000000150000000 1 1 0
1  48 0 93.456255101794341 123.539852812502431
0

0101000
+98 15 -27 15 *
Ed
 0.000000100000000 1 1 0
1  49 0 38.855515768997520 44.978532196714241
0

0101000
+28 15 -97 15 *
Wi

0101100
-26 0 +25 0 -96 0 +24 0 *
Fa
0  0.000000100000000 16 0

0111000
+23 0 *
Ve
0.000000150000455
4077.626011560692859 589.075000000000045 2075.008942619491336
0 0

0101101
*
Ve
0.000000150001819
4201.165864373195291 589.075000000000045 2100.153426850493815
0 0

0101101
*
Ed
 0.000000150000000 1 1 0
1  50 0 1357.087413468288105 1483.160171509735846
0

0101000
+21 15 -20 15 *
Ed
 0.000000150000000 1 1 0
1  51 0 93.456255101794341 123.539852812502431
0

0101000
+95 15 -20 15 *
Ed
 0.000000100000000 1 1 0
1  52 0 38.855515768997520 44.978532196714241
0

0101000
+21 15 -93 15 *
Wi

0101100
-19 0 +18 0 -92 0 +17 0 *
Fa
0  0.000000100000000 17 0

0111000
+16 0 *
Ed
 0.000000150000000 1 1 0
1  53 0 -76.000000000000000 -40.000000000000000
0

0101000
+21 15 -28 15 *
Wi

0101100
-24 0 -91 0 +17 0 -14 0 *
Fa
0  0.000000100000000 18 0

0111000
+13 0 *
Wi

0101100
+71 2 -85 13 +78 14 -74 2 *
Wi

0101100
+65 0 -55 0 +59 0 -51 0 *
Ed
 0.000000100000000 1 1 0
1  54 0 -75.999999999997499 -39.999999999997499
0

0101000
+20 15 -27 15 *
Wi

0101000
-19 0 -9 0 +26 0 +14 0 *
Wi

0101100
+45 0 -35 0 +39 0 -31 0 *
Fa
0  0.000000100000000 19 2

0111000
+11 0 +10 0 +8 0 +7 0 *
Wi

0101000
+18 0 +9 0 -25 0 +94 0 *
Fa
0  0.000000150000000 20 0

0111000
-5 0 *
Sh

0101000
+130 2 +123 2 +89 0 -82 16 +75 18 +72 2 +69 2 +62 0 -57 0 -52 0 
-49 0 +42 0 -37 0 -32 0 -29 0 +22 0 -15 0 +12 0 +6 0 -4 0 
*
So

0100000
+3 0 *
Co

1100000
+2 0 *

+1 1 