DBRep_DrawableShape

CASCADE Topology V1, (c) Matra-Datavision
Locations 3
1
              1               0               0 1530.23036278275 
              0               1               0            -179 
              0               0               1 1031.23351043577 
1
              1               0               0               0 
              0               1               0               0 
              0               0               1               0 
2  2 -1 0
Curve2ds 98
1 -10 -18 0 1 
1 -15.999999999999996 -16.819654574029265 0 -1 
1 -31 -27.753788748764677 1 0 
1 5.80730305751917 0 0 1 
2 0 0 1 0 -0 1 30
1 0 32 1 0 
1 -31 27.753788748764677 1 0 
1 0.47588224966041665 0 0 1 
1 -10 18 0 1 
1 -16 16.819654574029265 0 -1 
2 0 0 1 0 -0 1 30
1 0 32 1 0 
2 0 0 1 0 -0 1 30
1 -6.2831853071795862 32 1 0 
7 0 0  6 72 15  3.6174748304895177 19.610217496869193  3.6381876890140128 18.802672179287306  3.6609672325543743 18.005175150767528  3.6858488034416754 17.221407586459343  3.712864048298671 16.454806029466624  3.7420494005898881 15.708611090973887  3.7877061433758921 14.658102573586561  3.8024036340639067 14.335293004746802  3.8175456124983085 14.017995977318449  3.8331252081141667 13.706679556579152  3.8491353953477394 13.401759976172878  3.875323136094833 12.926645297413037  3.8852251604649681 12.75208753704579  3.8952723997859398 12.580034865453692  3.905461665583474 12.410583287078611  3.9157896986168819 12.243819651481546  3.9498503640454961 11.709973727939042  3.9741397685521012 11.354139782018661  3.9990680323988985 11.013464748255345  4.0245786897462681 10.68879474110428  4.0506115611949136 10.380721754108345  4.1213186160216244 9.603753291343665  4.1667165832244981 9.1662122792141396  4.2130776820056521 8.7773940925738358  4.2601686698511116 8.4366948614801593  4.3077312180351637 8.1428997608048252  4.3739404343873778 7.7980749554308746  4.3924542043879065 7.7085540622379964  4.4110028623773907 7.6255835496704707  4.4295800609943257 7.5490369201855385  4.4481793678294297 7.4787973189374917  4.5076302265933386 7.2742718734909202  4.548531279610124 7.1636563095709347  4.5894761116767926 7.0815888008179924  4.6304459140467769 7.0271870053309113  4.6714229262613216 6.9999999999999973  4.7531428169553047 6.9999999999999973  4.7939073252491733 7.0269060603860583  4.8346647303928609 7.0807451093705218  4.8753976507959473 7.1619589879769192  4.9160876786578429 7.2714124988412294  4.9752905368600695 7.4739548703296199  4.9938517726030707 7.5436767926417074  5.0123912465285727 7.6196734911231871  5.0309026193203925 7.7020609114474921  5.0493796335211831 7.7909646757876745  5.1160424290735218 8.1364748034687207  5.1640965309618263 8.4324885163309773  5.2116714146487233 8.7763472652721468  5.2585009715871074 9.1693062167464472  5.3043451609535071 9.6119867899864726  5.3753090864868271 10.394198621867902  5.4011838554810758 10.70120752569067  5.4265403058423241 11.02461945347374  5.4513193430804376 11.363847721253142  5.4754654957597912 11.718056700206267  5.5094597941434946 12.251370624462018  5.5198557714792358 12.41942568332191  5.530110883675774 12.590204072657338  5.5402218149385503 12.763617017164583  5.5501853226171747 12.939566352067168  5.5762818530657521 13.413946448853991  5.5921481792410477 13.716588490387792  5.6075906806970819 14.025513021568379  5.6226025385273317 14.340313626724571  5.6371770827717675 14.660533818125272  5.682720557649688 15.708406498340144  5.7119079842975085 16.454637818369356  5.7389250608956965 17.221278557281952  5.763808226971836 18.005087588592232  5.7865891341057569 18.802627825022327  5.8073031302798634 19.610217496869243 
 0 7 0.10880294143238511 5 0.15815304596557678 5 0.1874425840763278 5 0.25349628612891412 5 0.3637490337917092 5 0.40641351389621955 5 0.50000763891266509 5 0.59311691576425651 5 0.63569161165771348 5 0.74705889635469735 5 0.81275476125652302 5 0.84225090024741189 5 0.8911969898491493 5 1 7
7 0 0  6 72 15  4.3229608595395366 -5.9999999999999997e-07  4.2938641012187748 0.1708019828966259  4.2647124658969577 0.36688421440012503  4.2355912840076346 0.59148705356917863  4.2065855121622571 0.84828815091849141  4.1777858108327308 1.1413834025221075  4.1363754642366102 1.6267939347992033  4.1235240444677155 1.7865914407313739  4.1107621328182518 1.9550168692557486  4.0981083962949922 2.1323532580702795  4.0855810060594031 2.3188666367680342  4.0658481616842188 2.6310938001489781  4.0585501071884869 2.7506914920666028  4.0513084723928543 2.8736281624366886  4.0441280507227413 2.9999288867331759  4.0370135037111554 3.1296127155602584  4.0140834258164757 3.5628143062671764  3.9985533371104673 3.8802503853362187  3.9834416550807834 4.2149598085702884  3.9688058255041399 4.5666711067622474  3.9546982650843945 4.9348469622386864  3.9185799739782547 5.9592668556810917  3.8976453274623868 6.6420627881823906  3.8785228684093158 7.3641279641497484  3.8613518862993579 8.120881837327925  3.8462422748261567 8.9058545958992976  3.8282210906423431 10.022511804654327  3.8235059118643622 10.337333116410226  3.8191047892622447 10.655147328031907  3.8150187092537746 10.975665776824806  3.8112483877012857 11.298587999722299  3.8002168863028305 12.336592397573126  3.7941629405033992 13.059477277660905  3.7896265111377345 13.789795705205114  3.7866041316682941 14.525024916401199  3.7850937623830774 15.262611025779373  3.7850937623830774 16.733569058271073  3.78658852434828 17.467330100085835  3.7895796379889188 18.198770592585742  3.7940691149296382 18.925378143063693  3.8000603830293187 19.644670463686989  3.8109881902435525 20.678672952390595  3.814731970138745 21.001049999652082  3.8187901942344724 21.321046935290784  3.8231621715447548 21.638365773665299  3.827846946249652 21.952720086206842  3.8459128001829122 23.077652284404746  3.861142857460107 23.871081689697728  3.8784775427250264 24.635768574527688  3.89780360309009 25.365037107983721  3.9189773078337984 26.054179961539329  3.9553158030715672 27.081332552435352  3.9693664891762608 27.446950357772504  3.9839383421182419 27.796263792209711  3.9989797168695742 28.12875005322952  4.0144340539112093 28.444145969710657  4.0373362487099946 28.87632956540379  4.0445039856860054 29.006801218750869  4.0517383762016896 29.133841964364205  4.0590346629672167 29.257471575433911  4.0663879540719927 29.377716001688764  4.0860815755665838 29.688577683926052  4.0985110708230366 29.873283479154143  4.1110644009996582 30.048966738803596  4.1237238506656402 30.215887739142328  4.1364712264455585 30.37432309807534  4.1777779144075673 30.858536229114407  4.2065791475178873 31.151655495375561  4.235586489826888 31.40847596734929  4.2647092651338641 31.633094254911907  4.2938625030851467 31.829188635805675  4.3229608595395383 32.0000006 
 0 7 0.10880294143238511 5 0.15815304596557678 5 0.1874425840763278 5 0.25349628612891412 5 0.3637490337917092 5 0.40641351389621955 5 0.50000763891266509 5 0.59311691576425651 5 0.63569161165771348 5 0.74705889635469735 5 0.81275476125652302 5 0.84225090024741189 5 0.8911969898491493 5 1 7
1 3.6174749032502098 0 0 1 
1 -31 -27.753788748764677 1 0 
1 0 21 1 0 
2 3.5527136788005009e-15 1.1803454259707351 -1 0 0 1 18
1 -10 -18 0 1 
1 16.000000000000004 -16.819654574029265 0 -1 
2 0 0 1 0 -0 1 30
1 0 0 1 0 
1 -31 27.753788748764677 1 0 
1 2.6657104039293764 0 0 1 
1 -10 18 0 1 
1 16 16.819654574029265 0 -1 
2 0 0 1 0 -0 1 30
1 0 0 1 0 
2 0 0 1 0 -0 1 30
1 -6.2831853071795862 0 1 0 
2 0 0 1 0 -0 1 19.199999999999999
1 0 1 1 0 
7 0 0  6 72 15  1.9602244476400492 32.0000006  1.9893212059587464 31.829198017115498  2.0184728412835575 31.633115785598196  2.0475940231737013 31.408512946415758  2.0765997950176307 31.151711849072885  2.1053994963450018 30.858616597499591  2.1468098429431666 30.373206065198588  2.1596612627117882 30.213408559269308  2.1724231743611004 30.044983130747443  2.1850769108845012 29.86764674193142  2.1976043011203301 29.68113336322963  2.2173371454952613 29.36890619985272  2.2246351999910012 29.249308507935069  2.231876834786684 29.126371837564182  2.2390572564568503 29.000071113266745  2.2461718034684512 28.870387284439332  2.2691018812043939 28.437185696731419  2.2846319703147624 28.119749609116038  2.2997436521046253 27.785040191958487  2.314379481432093 27.433328899044454  2.3284870422402135 27.065153033647949  2.3646053332012653 26.040733144320978  2.3855399797171741 25.357937211818964  2.4046624387701825 24.635872035852852  2.4218334208801813 23.879118162674899  2.4369430323533936 23.09414540410258  2.4549642165372076 21.977488195348041  2.4596793953151894 21.662666883592227  2.4640805179173113 21.344852671970425  2.4681665979257867 21.024334223177238  2.4719369194782783 20.701412000279554  2.4829684208767384 19.663407602428947  2.4890223666761737 18.94052272234158  2.4935587960418459 18.210204294796128  2.4965811755112921 17.474975083598938  2.4980915447965089 16.737388974221361  2.4980915447965089 15.266430941726108  2.4965967828312965 14.532669899915227  2.4936056691906878 13.801229407417862  2.4891161922499712 13.074621856937496  2.4831249241502298 12.355329536309412  2.4721971171576489 11.321327068578976  2.4684533369249455 10.998949995016474  2.4643951126703154 10.678953043972811  2.4600231356043083 10.361634220583282  2.4553383612582649 10.047279934237755  2.4372725069967358 8.9223477155991198  2.4220424497193895 8.1289183102951998  2.4047077644544572 7.3642314254724397  2.3853817040897294 6.6349628920221404  2.3642079993456488 5.9458200384567341  2.3278695042500126 4.918667451578286  2.3138188177654806 4.5530496365656585  2.2992469650668723 4.2037362072745008  2.2842055905500813 3.8712499521811528  2.2687512531135186 3.55585402736703  2.245849058469505 3.1236704345945818  2.2386813214935088 2.9931987812478837  2.2314469309778842 2.8661580356356642  2.2241506442124193 2.742528424566943  2.216797353107657 2.6222839983122213  2.1971037316129811 2.3114223160736374  2.1846742363565146 2.1267165208453682  2.1721209061799081 1.9510332611961279  2.1594614565139367 1.7841122608575581  2.1467140807339962 1.6256769019242701  2.1054073927923502 1.1414637711239677  2.0766061596591836 0.8483445045316218  2.0475988173312172 0.591524032475372  2.0184760420367227 0.36690574507410562  1.9893228041170554 0.17081136432707006  1.9602244476400488 -6.0000000500999996e-07 
 0 7 0.10880294701231288 5 0.15815305407404603 5 0.18744259368563798 5 0.25349629846375576 5 0.36374905185788831 5 0.40641353418025622 5 0.50000766406220298 5 0.59311694575435481 5 0.63569164110971943 5 0.74705891708021865 5 0.81275477614275093 5 0.84225091280118414 5 0.89119699853189505 5 1 7
7 0 0  6 72 15  0.47588217689972412 19.610217496869211  0.49659503542274958 18.802672179344626  0.51937457896497374 18.005175150740186  0.54425614985349624 17.221407586412933  0.57127139470952393 16.454806029460919  0.60045674699805274 15.708611091020932  0.64611348978630656 14.658102573581756  0.66081098047403908 14.335293004748957  0.67595295890823237 14.01799597732427  0.69153255452423557 13.706679556581342  0.70754274175814225 13.401759976169368  0.73373048250489747 12.926645297415604  0.74363250687503879 12.752087537048126  0.75367974619607792 12.580034865454806  0.76386901199368795 12.410583287078479  0.77419704502711983 12.243819651481077  0.80825771021993853 11.709973731634202  0.83254711537246984 11.354139776473424  0.85747537878590385 11.013464748000322  0.88298603573464718 10.688794746539536  0.90901890788902817 10.380721750988686  0.97972596243169208 9.6037532913450594  1.0251239296346399 9.1662122792147649  1.0714850284156516 8.7773940925754577  1.1185760162611671 8.4366948614811541  1.1661385644452569 8.1428997608055322  1.2323477807974441 7.7980749554315691  1.2508615507979692 7.7085540622386519  1.2694102087874624 7.6255835496710516  1.2879874074044155 7.5490369201860199  1.3065867142395302 7.4787973189379047  1.3660375730034282 7.2742718734912541  1.4069386260201926 7.1636563095711914  1.4478834580869309 7.0815888008181078  1.488853260456974 7.0271870053309113  1.5298302726714876 7  1.6115501633656681 7  1.6523146716593196 7.0269060603863167  1.6930720768028646 7.080745109370155  1.73380499720609 7.1619589879764556  1.7744950250682558 7.2714124988419373  1.8336978820696432 7.4739548662220665  1.8522591193401077 7.5436767948905086  1.8707985941461354 7.6196734963093959  1.8893099660487092 7.7020609119588839  1.9077869787198563 7.7909646695083588  1.9744497754834995 8.1364748034675465  2.0225038773725048 8.4324885163326293  2.0700787610588574 8.776347265274449  2.1169083179969594 9.1693062167414539  2.1627525073639853 9.6119867899894711  2.2337164326197385 10.394198618811403  2.2595912023028908 10.701207531005048  2.2849476522752479 11.02461945322869  2.3097266890903492 11.36384771583185  2.3338728423998578 11.718056703812385  2.3678671405538299 12.251370624464053  2.3782631178895439 12.419425683323638  2.3885182300859937 12.590204072657661  2.3986291613486874 12.763617017163442  2.4085926690272976 12.939566352065654  2.4346891994759852 13.413946448854498  2.4505555256513003 13.716588490388654  2.4659980271073128 14.025513021568889  2.4810098849375462 14.340313626724827  2.4955844291820095 14.660533818126071  2.541127904037475 15.708406497824393  2.5703153307140894 16.454637818410429  2.5973324073256587 17.221278557852489  2.6222155733853048 18.005087588860345  2.6449964804998647 18.802627824394669  2.6657104766900694 19.610217496869225 
 0 7 0.10880294701231288 5 0.15815305407404603 5 0.18744259368563798 5 0.25349629846375576 5 0.36374905185788831 5 0.40641353418025622 5 0.50000766406220298 5 0.59311694575435481 5 0.63569164110971943 5 0.74705891708021865 5 0.81275477614275093 5 0.84225091280118414 5 0.89119699853189505 5 1 7
1 0 21 1 0 
2 0 -1.1803454259707351 -1 0 0 1 18
1 6.2831853071795862 -0 0 1 
1 0 -0 0 1 
1 0 26 1 0 
2 0 0 1 0 -0 1 19.199999999999999
1 16.000000000000004 -6.5353833265673629 -1 0 
1 -1.9106332362490184 0 0 1 
1 12.000000000000004 15.180345425970735 0 -1 
1 0 0 0 1 
1 12.000000000000004 15.180345425970735 -1 0 
1 0 0 1 0 
1 -11.999999999999996 15.180345425970735 0 -1 
1 0 0 0 1 
1 16.000000000000004 -6.5353833265673629 -1 0 
1 -1.9106332362490184 0 0 1 
2 3.5527136788005009e-15 1.1803454259707351 -1 0 0 1 6.5
1 0 21 1 0 
2 10 50 1 0 -0 1 30
1 -6.2831853071795862 28 1 0 
2 10 50 1 0 -0 1 30
1 0 28 1 0 
1 0 0 0 1 
1 -12 84.819654574029272 0 -1 
1 0 100 1 0 
1 24 0 0 1 
1 52 0 0 1 
1 24 0 0 -1 
1 0 0 1 0 
1 24 0 0 1 
1 0 0 0 1 
1 0 100 1 0 
1 0 52 1 0 
1 0 -100 1 0 
1 0 0 1 0 
1 12 -15.180345425970735 -1 0 
1 0 0 1 0 
1 0 52 1 0 
1 0 0 0 -1 
1 52 0 0 1 
2 12 -86 1 0 -0 1 6.5
1 0 73 1 0 
2 12 -14 1 0 -0 1 6.5
1 0 73 1 0 
1 0 0 0 1 
1 0 0 1 0 
2 10 50 1 0 -0 1 30
1 -6.2831853071795862 4 1 0 
2 10 50 1 0 -0 1 30
1 0 4 1 0 
1 0 0 0 1 
1 12 84.819654574029272 0 -1 
1 6.2831853071795862 -0 0 1 
1 0 -0 0 1 
1 0 21 1 0 
2 0 -1.1803454259707351 -1 0 0 1 6.5
1 6.2831853071795862 -0 0 1 
1 0 -0 0 1 
1 16 6.5353833265673629 -1 0 
1 1.9106332362490186 0 0 1 
1 16 6.5353833265673629 -1 0 
1 1.9106332362490186 0 0 1 
Curves 49
1 -10 -18 32 0 1 0 
1 -31 -27.753788748764677 32 1 0 0 
2 0 0 32 0 0 1 1 0 -0 -0 1 0 30
1 -31 27.753788748764677 32 1 0 0 
1 -10 18 32 0 1 0 
2 0 0 32 0 0 1 1 0 -0 -0 1 0 30
2 0 0 32 0 0 1 1 0 -0 -0 1 0 30
7 0 0  6 72 15  -11.389782503130807 -27.753789912935773 -5.9999999817999997e-07  -12.197327820712692 -27.422384164116135 0.17080198289662771  -12.994824849232474 -27.062157046853372 0.36688421440011121  -13.778592413540657 -26.674385991837617 0.59148705356919806  -14.545193970533379 -26.260976399506823 0.84828815091848153  -15.291388909026113 -25.824481956751505 1.1413834025221075  -16.341897426413439 -25.161332667687194 1.6267939347992033  -16.664706995253198 -24.950445901170113 1.7865914407313743  -16.982004022681554 -24.736075481687905 1.9550168692557488  -17.29332044342085 -24.518734886241223 2.1323532580702795  -17.59824002382712 -24.298970337658393 2.3188666367680342  -18.073354702586965 -23.945823520528936 2.6310938001489781  -18.247912462954211 -23.813653779708201 2.7506914920666028  -18.419965134546306 -23.680987250676605 2.8736281624366895  -18.589416712921391 -23.547968982368413 2.9999288867331764  -18.756180348518456 -23.414746564627777 3.1296127155602584  -19.29002627206096 -22.980905401357674 3.5628143062671764  -19.64586021798134 -22.680022650782636 3.8802503853362236  -19.986535251744659 -22.380735463003507 4.2149598085702857  -20.311205258895722 -22.084995104516981 4.5666711067622403  -20.619278245891653 -21.794727888044349 4.9348469622386864  -21.396246708656335 -21.0394809979123 5.9592668556810917  -21.83378772078586 -20.588560763232582 6.6420627881823222  -22.222605907426164 -20.166410054520799 7.364127964149878  -22.563305138519841 -19.779873657080874 8.1208818373278522  -22.857100239195173 -19.434631710482169 8.9058545958992976  -23.201925044569123 -19.018239317363534 10.022511804654327  -23.291445937762006 -18.908711344862368 10.337333116410226  -23.374416450329534 -18.805999919146103 10.655147328031907  -23.450963079814461 -18.71025239011885 10.975665776824806  -23.521202681062508 -18.621593977775163 11.298587999722299  -23.725728126509082 -18.361413342526117 12.336592397573126  -23.836343690429064 -18.217353038921271 13.059477277660918  -23.918411199182007 -18.10878445588224 13.78979570520511  -23.972812994669088 -18.036249721118825 14.525024916401179  -24.000000000000004 -17.999999999999996 15.262611025779373  -24.000000000000004 -17.999999999999996 16.733569058271073  -23.973093939613943 -18.035875120753367 17.467330100085835  -23.919254890629478 -18.107659543626024 18.198770592585742  -23.83804101202308 -18.215107537455612 18.925378143063693  -23.728587501158771 -18.357688997243418 19.644670463686989  -23.526045129670383 -18.615471582404215 20.678672952390595  -23.456323207358295 -18.703524249249238 21.001049999652082  -23.380326508876809 -18.798641456314979 21.321046935290784  -23.297939088552507 -18.900699816881808 21.638365773665299  -23.209035324212326 -19.009554084576937 21.952720086206842  -22.863525196531278 -19.427118836650138 23.077652284404746  -22.567511483669023 -19.775218249159753 23.871081689697728  -22.223652734727853 -20.165520193165989 24.635768574527688  -21.830693783253551 -20.592172552014659 25.365037107983721  -21.388013210013526 -21.048112496657453 26.054179961539329  -20.605801378132096 -21.807442637370631 27.081332552435352  -20.298792474309327 -22.096350248483812 27.446950357772504  -19.975380546526264 -22.390619644713734 27.796263792209711  -19.636152278746859 -22.688355297372706 28.12875005322952  -19.281943299793735 -22.987638018921988 28.444145969710657  -18.748629375537977 -23.420807422430887 28.87632956540379  -18.580574316678092 -23.554970099582651 29.006801218750869  -18.40979592734266 -23.688920645280437 29.133841964364205  -18.236382982835419 -23.822508511727737 29.257471575433911  -18.060433647932836 -23.9555857923683 29.377716001688764  -17.586053551146009 -24.307748224475347 29.688577683926052  -17.283411509612208 -24.525648295788415 29.873283479154143  -16.974486978431617 -24.741150214818983 30.048966738803596  -16.659686373275431 -24.953721942105876 30.215887739142328  -16.33946618187473 -25.16286316553888 30.37432309807534  -15.291593501659856 -25.824362273180778 30.858536229114407  -14.545362181630638 -26.260885682875756 31.151655495375596  -13.778721442718048 -26.674322150811182 31.408475967349247  -12.994912411407769 -27.062117493403679 31.633094254911907  -12.197372174977671 -27.422365961721699 31.829188635805682  -11.389782503130757 -27.753789912935794 32.000000600000007 
 0 7 0.10880294143238511 5 0.15815304596557678 5 0.1874425840763278 5 0.25349628612891412 5 0.3637490337917092 5 0.40641351389621955 5 0.50000763891266509 5 0.59311691576425651 5 0.63569161165771348 5 0.74705889635469735 5 0.81275476125652302 5 0.84225090024741189 5 0.8911969898491493 5 1 7
1 -31 -27.753788748764677 0 1 0 0 
2 -10 -36 16 1 0 -0 0 0 1 0 -1 0 18
1 -10 -18 0 0 1 0 
2 0 0 0 0 0 1 1 0 -0 -0 1 0 30
1 -31 27.753788748764677 0 1 0 0 
1 -10 18 0 0 1 0 
2 0 0 0 0 0 1 1 0 -0 -0 1 0 30
2 0 0 0 0 0 1 1 0 -0 -0 1 0 30
2 0 0 0 0 0 1 1 0 -0 -0 1 0 19.199999999999999
7 0 0  6 72 15  -11.389782503130789 27.75378991293578 32.0000006  -12.197327820655376 27.422384164139658 31.829198017115491  -12.994824849259816 27.062157046846693 31.633115785598381  -13.778592413587065 26.674385991811846 31.408512946415467  -14.545193970539083 26.260976399499071 31.151711849073035  -15.291388908979068 25.824481956781177 30.858616597499591  -16.341897426418246 25.161332667684167 30.373206065198588  -16.664706995251041 24.950445901171278 30.213408559269308  -16.982004022675728 24.736075481691881 30.044983130747443  -17.293320443418658 24.518734886243028 29.86764674193142  -17.59824002383063 24.298970337655771 29.68113336322963  -18.073354702584396 23.945823520530855 29.36890619985272  -18.247912462951874 23.813653779709995 29.249308507935069  -18.41996513454519 23.680987250677493 29.126371837564182  -18.589416712921523 23.547968982368314 29.000071113266745  -18.756180348518924 23.414746564627382 28.870387284439332  -19.290026268365796 22.980905404360659 28.437185696731419  -19.645860223526576 22.680022645937971 28.119749609116038  -19.98653525199968 22.380735463027737 27.785040191958487  -20.311205253460464 22.084995109382032 27.433328899044454  -20.619278249011312 21.794727885011877 27.065153033647949  -21.396246708654939 21.039480997913714 26.040733144320978  -21.833787720785235 20.588560763233218 25.357937211818964  -22.222605907424544 20.166410054522633 24.635872035852852  -22.563305138518846 19.779873657081989 23.879118162674899  -22.857100239194466 19.434631710482996 23.09414540410258  -23.201925044568426 19.01823931736438 21.977488195348041  -23.291445937761349 18.908711344863175 21.662666883592227  -23.374416450328948 18.805999919146824 21.344852671970425  -23.450963079813977 18.71025239011945 21.024334223177238  -23.521202681062096 18.621593977775678 20.701412000279554  -23.725728126508745 18.361413342526539 19.663407602428947  -23.836343690428809 18.217353038921651 18.94052272234158  -23.91841119918189 18.10878445588239 18.210204294796128  -23.972812994669088 18.036249721118772 17.474975083598938  -24 18 16.737388974221361  -24 18 15.266430941726114  -23.973093939613687 18.035875120753712 14.532669899915229  -23.919254890629844 18.107659543625545 13.801229407417857  -23.838041012023549 18.215107537454987 13.07462185693749  -23.728587501158064 18.357688997244313 12.355329536309412  -23.526045133777927 18.615471577176386 11.321327068578976  -23.456323205109488 18.703524251902028 10.998949995016474  -23.380326503690608 18.798641462722546 10.678953043972811  -23.297939088041119 18.90069981764578 10.361634220583282  -23.209035330491641 19.009554076988092 10.047279934237755  -22.863525196532454 19.42711883664871 8.9223477155991198  -22.567511483667371 19.775218249162108 8.1289183102951608  -22.223652734725551 20.165520193167634 7.3642314254725063  -21.830693783258546 20.592172552009984 6.634962892022112  -21.388013210010531 21.048112496660362 5.9458200384567341  -20.605801381188595 21.807442634403529 4.918667451578286  -20.29879246899495 22.096350253236409 4.5530496365656612  -19.975380546771309 22.390619644740156 4.2037362072745035  -19.636152284168151 22.688355292640065 3.8712499521811519  -19.281943296187617 22.987638021850955 3.55585402736703  -18.748629375535952 23.420807422432528 3.1236704345945818  -18.580574316676365 23.554970099583993 2.9931987812478837  -18.409795927342341 23.688920645280646 2.8661580356356642  -18.23638298283656 23.822508511726848 2.742528424566943  -18.060433647934346 23.955585792367177 2.6222839983122213  -17.586053551145501 24.307748224475713 2.3114223160736369  -17.283411509611344 24.525648295789022 2.1267165208453656  -16.974486978431113 24.741150214819331 1.9510332611961279  -16.659686373275175 24.953721942106029 1.7841122608575599  -16.339466181873931 25.162863165539395 1.6256769019242701  -15.291593502175607 25.824362272855158 1.1414637711239675  -14.545362181589571 26.260885682951319 0.84834450453162369  -13.778721442147511 26.674322151122773 0.591524032475372  -12.994912411139655 27.062117493462257 0.36690574507410179  -12.197372175605329 27.422365961464116 0.17081136432707261  -11.389782503130775 27.753789912935787 -6.0000000245999996e-07 
 0 7 0.10880294701231288 5 0.15815305407404603 5 0.18744259368563798 5 0.25349629846375576 5 0.36374905185788831 5 0.40641353418025622 5 0.50000766406220298 5 0.59311694575435481 5 0.63569164110971943 5 0.74705891708021865 5 0.81275477614275093 5 0.84225091280118414 5 0.89119699853189505 5 1 7
2 -10 36 16 1 0 -0 0 0 1 0 -1 0 18
1 19.199999999999999 -4.6999999999999999e-15 -1 0 0 1 
2 0 0 25 0 0 1 1 0 -0 -0 1 0 19.199999999999999
1 -10 -28.284271247461902 0 0 0 1 
1 -10 -50 4 0 1 0 
1 -10 -50 4 0 0 1 
1 -10 -50 28 0 1 0 
1 -10 -28.284271247461902 0 0 0 1 
2 -10 -36 16 1 0 -0 0 0 1 0 -1 0 6.5
2 0 0 28 0 0 1 1 0 -0 -0 1 0 30
2 0 0 28 0 0 1 1 0 -0 -0 1 0 30
1 -10 -50 28 0 1 0 
1 -10 50 28 1 0 0 
1 42 -50 28 0 1 0 
1 -10 -50 28 1 0 0 
1 -10 50 4 1 0 0 
1 42 50 4 0 0 1 
1 -10 50 4 0 0 1 
1 42 -50 4 0 0 1 
1 42 -50 4 0 1 0 
2 42 36 16 1 0 -0 0 0 1 0 -1 0 6.5
2 42 -36 16 1 0 -0 0 0 1 0 -1 0 6.5
1 -10 -50 4 1 0 0 
2 0 0 4 0 0 1 1 0 -0 -0 1 0 30
2 0 0 4 0 0 1 1 0 -0 -0 1 0 30
1 -10 -50 4 0 1 0 
1 -31 -36 22.5 1 0 0 
2 -10 36 16 1 0 -0 0 0 1 0 -1 0 6.5
1 -31 36 22.5 1 0 0 
1 -10 28.284271247461902 0 0 0 1 
1 -10 28.284271247461902 0 0 0 1 
Polygon3D 0
PolygonOnTriangulations 0
Surfaces 18
1 0 0 32 0 0 1 1 0 -0 -0 1 0 
1 -9.9999999999999982 -34.819654574029265 16.000000000000004 -1 -0 -0 0 0 -1 0 -1 0 
2 -31 -36 16 1 0 0 0 0 1 0 -1 0 18
2 0 0 0 0 0 1 1 0 -0 -0 1 0 30
2 -31 36 16 1 0 0 0 0 1 0 -1 0 18
1 -9.9999999999999982 34.819654574029265 16 -1 -0 -0 0 0 -1 0 -1 0 
2 0 0 0 0 0 1 1 0 -0 -0 1 0 30
1 0 0 0 0 0 1 1 0 -0 -0 1 0 
2 0 0 0 0 0 1 1 0 -0 -0 1 0 30
2 0 0 -1 0 0 1 1 0 -0 -0 1 0 19.199999999999999
1 0 0 25 0 0 1 1 0 -0 -0 1 0 
1 -10 -50 4 0 0 1 1 0 -0 -0 1 0 
1 -10 -50 4 0 1 0 0 -0 1 1 0 -0 
1 -10 -50 28 0 0 1 1 0 -0 -0 1 0 
2 -31 -36 16 1 0 0 0 0 1 0 -1 0 6.5
1 -10 50 4 0 1 0 0 -0 1 1 0 -0 
1 42 -50 4 1 0 0 0 0 1 0 -1 0 
2 -31 36 16 1 0 0 0 0 1 0 -1 0 6.5
Triangulations 0

TShapes 126
Ve
1.50000002e-07
-10 -28.2842712474619 32
0 0

0101101
*
Ve
1.5e-07
-10 -27.7537887487647 32
0 0

0101101
*
Ed
 1.5e-07 1 1 0
1  1 0 -10.2842712474619 -9.75378874876468
2  1 1 0 -10.2842712474619 -9.75378874876468
2  2 2 0 -10.2842712474619 -9.75378874876468
0

0101000
+126 3 -125 3 *
Ve
1.57219083e-07
-11.3897853398975 -27.7537887487647 32
0 0

0101101
*
Ed
 1e-07 1 1 0
1  2 0 19.6102146601025 21
2  3 1 0 19.6102146601025 21
2  4 3 0 19.6102146601025 21
0

0101000
+123 3 -125 3 *
Ve
1.57219071e-07
-11.3897853398975 27.7537887487647 32
0 0

0101101
*
Ed
 1e-07 1 1 0
1  3 0 1.96022454985192 4.32296075732767
2  5 1 0 1.96022454985192 4.32296075732767
2  6 4 0 1.96022454985192 4.32296075732767
0

0101000
+121 3 -123 3 *
Ve
1.5e-07
-10 27.7537887487647 32
0 0

0101101
*
Ed
 1e-07 1 1 0
1  4 0 19.6102146601025 21
2  7 1 0 19.6102146601025 21
2  8 5 0 19.6102146601025 21
0

0101000
+121 3 -119 3 *
Ve
1.50000002e-07
-10 28.2842712474619 32
0 0

0101101
*
Ed
 1.5e-07 1 1 0
1  5 0 9.75378874876468 10.2842712474619
2  9 1 0 9.75378874876468 10.2842712474619
2  10 6 0 9.75378874876468 10.2842712474619
0

0101000
+119 3 -117 3 *
Ve
1e-07
30 -7e-15 32
0 0

0101101
*
Ed
 1e-07 1 1 0
1  6 0 0 1.91063323624902
2  11 1 0 0 1.91063323624902
2  12 7 0 0 1.91063323624902
0

0101000
+115 3 -117 3 *
Ed
 1e-07 1 1 0
1  7 0 4.37255207093057 6.28318530717959
2  13 1 0 4.37255207093057 6.28318530717959
2  14 7 0 4.37255207093057 6.28318530717959
0

0101000
+126 3 -115 3 *
Wi

0101100
-124 0 +122 0 +120 0 -118 0 -116 0 +114 0 +113 0 *
Fa
0  1e-07 1 0

0101000
+112 0 *
Ve
1.57219081e-07
-11.3897853398975 -27.7537887487647 0
0 0

0101101
*
Ed
 1.57219075e-07 1 1 0
1  8 0 6.3700979e-08 0.999999936302479
2  15 3 0 6.3700979e-08 0.999999936302479
2  16 4 0 6.3700979e-08 0.999999936302479
0

0101000
+110 3 -123 3 *
Ve
1.5e-07
-10 -27.7537887487647 0
0 0

0101101
*
Ed
 1e-07 1 1 0
1  9 0 19.6102146601025 21
2  17 3 0 19.6102146601025 21
2  18 8 0 19.6102146601025 21
0

0101000
+110 3 -108 3 *
Ed
 1.5e-07 1 1 0
1  10 0 3.61747490325021 5.80730305751917
2  19 3 0 3.61747490325021 5.80730305751917
2  20 2 0 3.61747490325021 5.80730305751917
0

0101000
+108 3 -125 3 *
Wi

0101100
+122 0 +109 0 -107 0 -106 0 *
Fa
0  1e-07 3 0

0101000
+105 0 *
Ve
1.50000002e-07
-10 -28.2842712474619 0
0 0

0101101
*
Ed
 1.5e-07 1 1 0
1  11 0 -10.2842712474619 -9.75378874876468
2  21 8 0 -10.2842712474619 -9.75378874876468
2  22 2 0 -10.2842712474619 -9.75378874876468
0

0101000
+103 3 -108 3 *
Ve
1.57219082e-07
-11.3897853398975 27.7537887487647 0
0 0

0101101
*
Ed
 1e-07 1 1 0
1  12 0 1.96022454985192 4.32296075732767
2  23 8 0 1.96022454985192 4.32296075732767
2  24 4 0 1.96022454985192 4.32296075732767
0

0101000
+101 3 -110 3 *
Ve
1.50000004e-07
-10 27.7537887487647 4e-15
0 0

0101101
*
Ed
 1e-07 1 1 0
1  13 0 19.6102146601025 21
2  25 8 0 19.6102146601025 21
2  26 5 0 19.6102146601025 21
0

0101000
+101 3 -99 3 *
Ve
1.50000002e-07
-10 28.2842712474619 0
0 0

0101101
*
Ed
 1.5e-07 1 1 0
1  14 0 9.75378874876467 10.2842712474619
2  27 8 0 9.75378874876467 10.2842712474619
2  28 6 0 9.75378874876467 10.2842712474619
0

0101000
+99 3 -97 3 *
Ve
1e-07
30 -7e-15 0
0 0

0101101
*
Ed
 1e-07 1 1 0
1  15 0 0 1.91063323624902
2  29 8 0 0 1.91063323624902
2  30 9 0 0 1.91063323624902
0

0101000
+95 3 -97 3 *
Ed
 1e-07 1 1 0
1  16 0 4.37255207093057 6.28318530717959
2  31 8 0 4.37255207093057 6.28318530717959
2  32 9 0 4.37255207093057 6.28318530717959
0

0101000
+103 3 -95 3 *
Wi

0101100
-102 0 +107 0 +100 0 -98 0 -96 0 +94 0 +93 0 *
Ve
1.00000005e-07
19.2 -5e-15 0
0 0

0101101
*
Ed
 1e-07 1 1 0
1  17 0 0 6.28318530717959
2  33 8 0 0 6.28318530717959
2  34 10 0 0 6.28318530717959
0

0101100
+91 3 -91 3 *
Wi

0101100
-90 0 *
Fa
0  1e-07 8 0

0101000
+92 0 +89 0 *
Ed
 1.57219067e-07 1 1 0
1  18 0 6.3700982e-08 0.999999936302484
2  35 4 0 6.3700982e-08 0.999999936302484
2  36 5 0 6.3700982e-08 0.999999936302484
0

0101000
+121 3 -101 3 *
Wi

0101100
-120 0 +109 0 +100 0 +87 0 *
Fa
0  1e-07 4 0

0101000
+86 0 *
Ed
 1.5e-07 1 1 0
1  19 0 0.475882249660417 2.66571040392938
2  37 5 0 0.475882249660417 2.66571040392938
2  38 6 0 0.475882249660417 2.66571040392938
0

0101000
+119 3 -99 3 *
Wi

0101100
+98 0 +87 0 -118 0 -84 0 *
Fa
0  1e-07 5 0

0101000
+83 0 *
Ve
1e-07
19.2 -5e-15 25
0 0

0101101
*
Ed
 1e-07 1 1 0
1  20 0 1 26
3  39 40CN 10 0 1 26
0

0101000
+91 3 -81 3 *
Ed
 1e-07 1 1 0
1  21 0 0 6.28318530717959
2  41 10 0 0 6.28318530717959
2  42 11 0 0 6.28318530717959
0

0101000
+81 3 -81 3 *
Wi

0101100
+80 0 +90 0 -80 0 -79 0 *
Fa
0  1e-07 10 0

0101000
+78 0 *
Wi

0101100
+79 0 *
Fa
0  1e-07 11 0

0101000
+76 0 *
Ve
1.5e-07
-10 -28.2842712474619 4
0 0

0101101
*
Ed
 1.5e-07 1 1 0
1  22 0 0 4
2  43 2 0 0 4
2  44 9 0 0 4
0

0101000
+103 3 -74 3 *
Ve
1.5e-07
-10 -50 4
0 0

0101101
*
Ed
 1e-07 1 1 0
1  23 0 0 21.7157287525381
2  45 2 0 0 21.7157287525381
2  46 12 0 0 21.7157287525381
0

0101000
+72 3 -74 3 *
Ve
1.5e-07
-10 -50 28
0 0

0101101
*
Ed
 1e-07 1 1 0
1  24 0 0 24
2  47 2 0 0 24
2  48 13 0 0 24
0

0101000
+72 3 -70 3 *
Ve
1.5e-07
-10 -28.2842712474619 28
0 0

0101101
*
Ed
 1e-07 1 1 0
1  25 0 0 21.7157287525381
2  49 2 0 0 21.7157287525381
2  50 14 0 0 21.7157287525381
0

0101000
+70 3 -68 3 *
Ed
 1.5e-07 1 1 0
1  26 0 28 32
2  51 2 0 28 32
2  52 7 0 28 32
0

0101000
+68 3 -126 3 *
Wi

0101000
-106 0 -102 0 +73 0 -71 0 +69 0 +67 0 +66 0 +124 0 *
Ve
1e-07
-10 -36 22.5
0 0

0101101
*
Ed
 1e-07 1 1 0
1  27 0 0 6.28318530717959
2  53 2 0 0 6.28318530717959
2  54 15 0 0 6.28318530717959
0

0101000
+64 3 -64 3 *
Wi

0101100
+63 0 *
Fa
0  1.5e-07 2 0

0101000
+65 0 +62 0 *
Ve
1.00000007e-07
30 -7e-15 28
0 0

0101101
*
Ed
 1e-07 1 1 0
1  28 0 4.37255207093057 6.28318530717959
2  55 14 0 4.37255207093057 6.28318530717959
2  56 7 0 4.37255207093057 6.28318530717959
0

0101000
+68 3 -60 3 *
Ve
1.5e-07
-10 28.2842712474619 28
0 0

0101101
*
Ed
 1e-07 1 1 0
1  29 0 0 1.91063323624902
2  57 14 0 0 1.91063323624902
2  58 7 0 0 1.91063323624902
0

0101000
+60 3 -58 3 *
Ve
1.5e-07
-10 50 28
0 0

0101101
*
Ed
 1e-07 1 1 0
1  30 0 78.2842712474619 100
2  59 14 0 78.2842712474619 100
2  60 6 0 78.2842712474619 100
0

0101000
+58 3 -56 3 *
Ve
1e-07
42 50 28
0 0

0101101
*
Ed
 1e-07 1 1 0
1  31 0 0 52
2  61 14 0 0 52
2  62 16 0 0 52
0

0101000
-54 3 +56 3 *
Ve
1e-07
42 -50 28
0 0

0101101
*
Ed
 1e-07 1 1 0
1  32 0 0 100
2  63 14 0 0 100
2  64 17 0 0 100
0

0101000
-54 3 +52 3 *
Ed
 1e-07 1 1 0
1  33 0 0 52
2  65 14 0 0 52
2  66 13 0 0 52
0

0101000
-52 3 +70 3 *
Wi

0101000
-67 0 -59 0 -57 0 -55 0 -53 0 +51 0 +50 0 *
Fa
0  1e-07 14 0

0101000
+49 0 *
Ve
1e-07
42 50 4
0 0

0101101
*
Ve
1.5e-07
-10 50 4
0 0

0101101
*
Ed
 1e-07 1 1 0
1  34 0 0 52
2  67 16 0 0 52
2  68 12 0 0 52
0

0101000
-47 3 +46 3 *
Ed
 1e-07 1 1 0
1  35 0 0 24
2  69 16 0 0 24
2  70 17 0 0 24
0

0101000
-54 3 +47 3 *
Ed
 1e-07 1 1 0
1  36 0 0 24
2  71 16 0 0 24
2  72 6 0 0 24
0

0101000
+46 3 -56 3 *
Wi

0101000
-45 0 -44 0 +53 0 +43 0 *
Fa
0  1e-07 16 0

0101000
+42 0 *
Ve
1e-07
42 -50 4
0 0

0101101
*
Ed
 1e-07 1 1 0
1  37 0 0 24
2  73 17 0 0 24
2  74 13 0 0 24
0

0101000
-52 3 +40 3 *
Ed
 1e-07 1 1 0
1  38 0 0 100
2  75 17 0 0 100
2  76 12 0 0 100
0

0101000
-47 3 +40 3 *
Wi

0101100
-39 0 -51 0 +38 0 +44 0 *
Ve
1e-07
42 36 22.5
0 0

0101101
*
Ed
 1e-07 1 1 0
1  39 0 0 6.28318530717959
2  77 17 0 0 6.28318530717959
2  78 18 0 0 6.28318530717959
0

0101100
+36 3 -36 3 *
Wi

0101100
-35 0 *
Ve
1e-07
42 -36 22.5
0 0

0101101
*
Ed
 1e-07 1 1 0
1  40 0 0 6.28318530717959
2  79 17 0 0 6.28318530717959
2  80 15 0 0 6.28318530717959
0

0101100
+33 3 -33 3 *
Wi

0101100
-32 0 *
Fa
0  1e-07 17 0

0101000
+37 0 +34 0 +31 0 *
Ed
 1e-07 1 1 0
1  41 0 0 52
2  81 13 0 0 52
2  82 12 0 0 52
0

0101000
-40 3 +72 3 *
Wi

0101000
-29 0 -39 0 +50 0 +69 0 *
Fa
0  1e-07 13 0

0101000
+28 0 *
Ve
1.00000007e-07
30 -7e-15 4
0 0

0101101
*
Ed
 1e-07 1 1 0
1  42 0 4.37255207093057 6.28318530717959
2  83 12 0 4.37255207093057 6.28318530717959
2  84 9 0 4.37255207093057 6.28318530717959
0

0101000
+74 3 -26 3 *
Ve
1.5e-07
-10 28.2842712474619 4
0 0

0101101
*
Ed
 1e-07 1 1 0
1  43 0 0 1.91063323624902
2  85 12 0 0 1.91063323624902
2  86 9 0 0 1.91063323624902
0

0101000
+26 3 -24 3 *
Ed
 1e-07 1 1 0
1  44 0 78.2842712474619 100
2  87 12 0 78.2842712474619 100
2  88 6 0 78.2842712474619 100
0

0101000
+24 3 -46 3 *
Wi

0101000
-71 0 -25 0 -23 0 -22 0 -45 0 +38 0 +29 0 *
Fa
0  1e-07 12 0

0101000
+21 0 *
Ed
 1e-07 1 1 0
1  45 0 21 73
3  89 90CN 15 0 21 73
0

0101000
+64 3 -33 3 *
Wi

0101100
+63 0 -19 0 -32 0 +19 0 *
Fa
0  1e-07 15 0

0101000
+18 0 *
Ve
1e-07
-10 36 22.5
0 0

0101101
*
Ed
 1e-07 1 1 0
1  46 0 0 6.28318530717959
2  91 18 0 0 6.28318530717959
2  92 6 0 0 6.28318530717959
0

0101000
+16 3 -16 3 *
Ed
 1e-07 1 1 0
1  47 0 21 73
3  93 94CN 18 0 21 73
0

0101000
+16 3 -36 3 *
Wi

0101100
+15 0 -14 0 -35 0 +14 0 *
Fa
0  1e-07 18 0

0101000
+13 0 *
Ed
 1.5e-07 1 1 0
1  48 0 0 4
2  95 6 0 0 4
2  96 9 0 0 4
0

0101000
+97 3 -24 3 *
Ed
 1.5e-07 1 1 0
1  49 0 28 32
2  97 6 0 28 32
2  98 7 0 28 32
0

0101000
+58 3 -117 3 *
Wi

0101000
+55 0 -43 0 -22 0 -11 0 -96 0 -84 0 +116 0 -10 0 *
Wi

0101100
+15 0 *
Fa
0  1.5e-07 6 0

0101000
+9 0 +8 0 *
Wi

0101100
+57 0 +10 0 -114 0 -113 0 -66 0 +59 0 *
Fa
0  1e-07 7 0

0101000
+6 0 *
Wi

0101100
-23 0 -25 0 -73 0 +93 0 +94 0 +11 0 *
Fa
0  1e-07 9 0

0101000
+4 0 *
Sh

0101000
+111 0 -104 0 -88 0 +85 0 -82 0 -77 0 -75 0 +61 0 +48 0 +41 0 
+30 0 -27 0 -20 0 -17 0 -12 0 +7 0 +5 0 +3 0 *
So

0100000
+2 0 *

+1 1 