DBRep_DrawableShape

CASCADE Topology V1, (c) Matra-Datavision
Locations 0
Curve2ds 4
1 6.2831853071795862 0 0 1 
1 0 6.3500000000000227 1 0 
1 3.1415926535897931 0 0 1 
1 0 0 1 0 
Curves 6
1 1552.2803627830001 -182.17500000000001 1028.7835104359999 0 1 0 
2 1552.2803627830001 -175.82499999999999 1016.083510436 0 1 0 0 -0 1 1 0 -0 12.699999999999999
1 1552.2803627830001 -182.17500000000001 1003.3835104360001 0 1 0 
2 1552.2803627830001 -182.17500000000001 1016.083510436 0 1 0 0 -0 1 1 0 -0 12.699999999999999
1 1552.2803627830001 -182.17500000000001 1009.233510436 0 0 -1 
1 1552.2803627830001 -175.82499999999999 1009.233510436 0 0 -1 
Polygon3D 0
PolygonOnTriangulations 0
Surfaces 4
2 1552.2803627830001 -182.17500000000001 1016.083510436 0 1 0 0 -0 1 1 0 -0 12.699999999999999
1 1552.2803627830001 -185.34999999999999 1002.3835104360001 1 0 0 0 0 1 0 -1 0 
1 1552.2803627830001 -175.82499999999999 1016.083510436 0 1 0 0 -0 1 1 0 -0 
1 1552.2803627830001 -182.17500000000001 1016.083510436 0 1 0 0 -0 1 1 0 -0 
Triangulations 0

TShapes 20
Ve
1e-07
1552.280362783 -182.175 1028.783510436
0 0

0101101
*
Ve
1e-07
1552.280362783 -175.825 1028.783510436
0 0

0101101
*
Ed
 1e-07 1 1 0
1  1 0 0 6.35000000000002
2  1 1 0 0 6.35000000000002
4 C0 1 0 2 0
0

0101000
+20 0 -19 0 *
Ve
1e-07
1552.280362783 -175.825 1003.383510436
0 0

0101101
*
Ed
 1e-07 1 1 0
1  2 0 3.14159265358979 6.28318530717959
2  2 1 0 3.14159265358979 6.28318530717959
4 C0 1 0 3 0
0

0101000
+17 0 -19 0 *
Ve
1e-07
1552.280362783 -182.175 1003.383510436
0 0

0101101
*
Ed
 1e-07 1 1 0
1  3 0 0 6.35000000000002
2  3 1 0 0 6.35000000000002
4 C0 1 0 2 0
0

0101000
+15 0 -17 0 *
Ed
 1e-07 1 1 0
1  4 0 3.14159265358979 6.28318530717959
2  4 1 0 3.14159265358979 6.28318530717959
4 C0 1 0 4 0
0

0101000
+15 0 -20 0 *
Wi

0101100
+18 0 -16 0 -14 0 +13 0 *
Fa
0  1e-07 1 0

0111000
+12 0 *
Ed
 1e-07 1 1 0
1  5 0 -19.55 5.84999999999991
4 C0 2 0 4 0
0

0101000
+20 0 -15 0 *
Ed
 1e-07 1 1 0
1  6 0 -19.55 5.84999999999991
4 C0 2 0 3 0
0

0101000
+19 0 -17 0 *
Wi

0101100
-18 0 +10 0 +14 0 -9 0 *
Fa
0  1e-07 2 0

0111000
+8 0 *
Wi

0101100
+13 0 +10 0 *
Fa
0  1e-07 4 0

0111000
+6 0 *
Wi

0101100
+16 0 +9 0 *
Fa
0  1e-07 3 0

0111000
+4 0 *
Sh

0101100
+11 0 +7 0 -5 0 +3 0 *
So

0100000
+2 0 *

+1 0 