DBRep_DrawableShape

CASCADE Topology V1, (c) Matra-Datavision
Locations 0
Curve2ds 46
1 6.2831853071795862 0 0 1 
1 0 0 0 1 
1 0 30 1 0 
1 0 21 1 0 
7 0 0  1 2 2  0.4863651301602841 21  0.4863651301602841 9.0000000000001137 
 4.9999996558265251e-08 2 0.99999995000001241 2
7 0 0  1 2 2  7.9914348755972506 -12.000000000000018  7.9914348755972533 -1.3500311979441904e-13 
 4.9999996558265251e-08 2 0.99999995000001241 2
1 0 9 1 0 
1 6.2831853071795862 0 0 1 
1 0 0 0 1 
1 0 0 1 0 
1 -2.6645352591003757e-15 9 1 0 
7 0 0  1 2 2  5.7968201769853085 21  5.7968201769853085 9.0000000000001137 
 4.9999996558265251e-08 2 0.99999995000001241 2
7 0 0  1 2 2  7.9914348755517137 -12.000000000000018  7.9914348755517297 -1.3500311979441904e-13 
 4.9999996558265251e-08 2 0.99999995000001241 2
1 -2.6645352591003757e-15 21 1 0 
1 2.6645352591003757e-14 -2.1316282072803006e-14 1 0 
1 1.5099033134902129e-14 -12.000000000000041 1 2.9519659524590302e-15 
7 0 0  1 2 2  86.219433721428601 -12.000000000000014  86.219433721428572 -1.4210854715202004e-13 
 4.9999996558265251e-08 2 0.99999995000001241 2
7 0 0  1 2 2  -2.5743763092668708 12  -2.5743763092668708 1.1368683772161603e-13 
 4.9999996558265251e-08 2 0.99999995000001241 2
1 0 1 1 0 
1 4.4408920985006262e-15 -2.1316282072803006e-14 1 0 
1 1.2434497875801753e-14 -12.000000000000018 1 0 
7 0 0  1 2 2  86.219433721515117 -12.000000000000018  86.219433721515102 -1.4210854715202004e-13 
 4.9999996558265251e-08 2 0.99999995000001241 2
7 0 0  1 2 2  2.5743763093317322 12  2.5743763093317322 1.1368683772161603e-13 
 4.9999996558265251e-08 2 0.99999995000001241 2
1 0 31 1 0 
1 6.2831853071795862 0 0 1 
1 0 0 0 1 
1 0 28.75 1 0 
1 0.16876878054283934 0 0 1 
1 0 3.25 1 0 
1 6.2831853071795862 0 0 1 
1 0 0 0 1 
1 8.8817841970012523e-16 3.25 1 0 
1 6.1144165266367585 0 0 1 
1 8.8817841970012523e-16 28.75 1 0 
1 -6.2831853071795791 12 1 0 
1 0 12 1 0 
1 -1.1102230246251565e-15 18 1 0 
1 0 18 1 0 
1 3.5527136788005009e-15 18 1 0 
1 6.2831853071795862 0 0 1 
1 0 0 0 1 
1 0 6 1 0 
1 -1.1102230246251565e-15 6 1 0 
1 3.5527136788005009e-15 6 1 0 
1 0 0 1 0 
1 -6.2831853071795791 0 1 0 
Curves 45
1 1530.2303627829999 -205 644.38351043575994 0 0 1 
2 1530.2303627829999 -179 674.38351043575994 -0 0 1 0 -1 0 1 0 0 26
2 1530.2303627829999 -179 665.38351043575994 -0 0 1 0 -1 0 1 0 0 26
7 0 0  4 5 2  1542.383168932 -201.9849799367 665.38351103575997  1542.383168932 -201.9849799367 662.38351073575996  1542.383168932 -201.9849799367 659.38351043575994  1542.383168932 -201.9849799367 656.38351013576005  1542.383168932 -201.9849799367 653.38350983576004 
 0 5 1 5
2 1530.2303627829999 -179 653.38351043575994 -0 0 1 0 -1 0 1 0 0 26
1 1530.2303627829999 -205 644.38351043575994 0 0 1 
2 1530.2303627829999 -179 644.38351043575994 -0 0 1 0 -1 0 1 0 0 26
2 1530.2303627829999 -179 653.38351043575994 -0 0 1 0 -1 0 1 0 0 26
7 0 0  4 5 2  1518.0775566330001 -201.9849799367 665.38351103575997  1518.0775566330001 -201.9849799367 662.38351073575996  1518.0775566330001 -201.9849799367 659.38351043575994  1518.0775566330001 -201.9849799367 656.38351013576005  1518.0775566330001 -201.9849799367 653.38350983576004 
 0 5 1 5
2 1530.2303627829999 -179 665.38351043575994 -0 0 1 0 -1 0 1 0 0 26
7 0 0  2 3 2  1517.7303627829999 -194 653.38351043575994  1519.7404583980001 -242.5798777018 653.38351043575994  1524.2303627829999 -291 653.38351043575994 
 0 3 97.225156170964993 3
7 0 0  2 3 2  1517.7303627829999 -194 665.38351043575994  1519.7404583980001 -242.5798777018 665.38351043575994  1524.2303627829999 -291 665.38351043575994 
 0 3 97.225156170964993 3
7 0 0  4 5 2  1523.245639601 -280.03580180400002 665.38351103575997  1523.245639601 -280.03580180400002 662.38351073575996  1523.245639601 -280.03580180400002 659.38351043575994  1523.245639601 -280.03580180400002 656.38351013576005  1523.245639601 -280.03580180400002 653.38350983576004 
 0 5 1 5
2 1530.2303627829999 -179 644.38351043575994 -0 0 1 0 -1 0 1 0 0 19.199999999999999
7 0 0  2 3 2  1542.7303627829999 -194 653.38351043575994  1540.720267168 -242.5798777018 653.38351043575994  1536.2303627829999 -291 653.38351043575994 
 0 3 97.225156170964993 3
7 0 0  2 3 2  1542.7303627829999 -194 665.38351043575994  1540.720267168 -242.5798777018 665.38351043575994  1536.2303627829999 -291 665.38351043575994 
 0 3 97.225156170964993 3
7 0 0  4 5 2  1537.2150859640001 -280.03580180400002 665.38351103575997  1537.2150859640001 -280.03580180400002 662.38351073575996  1537.2150859640001 -280.03580180400002 659.38351043575994  1537.2150859640001 -280.03580180400002 656.38351013576005  1537.2150859640001 -280.03580180400002 653.38350983576004 
 0 5 1 5
2 1530.2303627829999 -179 674.38351043575994 -0 0 1 0 -1 0 1 0 0 19.199999999999999
1 1530.2303627829999 -198.19999999999999 643.38351043575994 0 0 1 
2 1530.2303627829999 -179 672.13351043575994 -0 0 1 0 -1 0 1 0 0 19.199999999999999
1 1533.4553627830001 -197.92721255230001 643.38351043575994 0 0 1 
2 1530.2303627829999 -179 646.63351043575994 -0 0 1 0 -1 0 1 0 0 19.199999999999999
1 1530.2303627829999 -198.19999999999999 643.38351043575994 0 0 1 
2 1530.2303627829999 -179 646.63351043575994 -0 0 1 0 -1 0 1 0 0 19.199999999999999
1 1527.005362783 -197.92721255230001 643.38351043575994 0 0 1 
2 1530.2303627829999 -179 672.13351043575994 -0 0 1 0 -1 0 1 0 0 19.199999999999999
1 1533.4553627830001 -197.05000000000001 672.13351043575994 0 -1 0 
1 1527.005362783 -197.05000000000001 672.13351043575994 0 -1 0 
1 1527.005362783 -201.09999999999999 672.13351043575994 1 0 0 
1 1527.005362783 -197.05000000000001 646.63351043575994 0 -1 0 
1 1527.005362783 -201.09999999999999 646.63351043575994 0 0 1 
1 1533.4553627830001 -197.05000000000001 646.63351043575994 0 -1 0 
1 1527.005362783 -201.09999999999999 646.63351043575994 1 0 0 
1 1533.4553627830001 -201.09999999999999 646.63351043575994 0 0 1 
2 1530.2303627829999 -291 665.38351043575994 -0 0 1 0 -1 0 1 0 0 13
2 1530.2303627829999 -291 665.38351043575994 -0 0 1 0 -1 0 1 0 0 13
2 1530.2303627829999 -291 665.38351043575994 -0 0 1 0 -1 0 1 0 0 6.5
2 1530.2303627829999 -291 665.38351043575994 -0 0 1 0 -1 0 1 0 0 6.5
2 1530.2303627829999 -291 665.38351043575994 -0 0 1 0 -1 0 1 0 0 6.5
1 1530.2303627829999 -297.5 647.38351043575994 0 0 1 
2 1530.2303627829999 -291 653.38351043575994 -0 0 1 0 -1 0 1 0 0 6.5
2 1530.2303627829999 -291 653.38351043575994 -0 0 1 0 -1 0 1 0 0 6.5
2 1530.2303627829999 -291 653.38351043575994 -0 0 1 0 -1 0 1 0 0 6.5
2 1530.2303627829999 -291 653.38351043575994 -0 0 1 0 -1 0 1 0 0 13
2 1530.2303627829999 -291 653.38351043575994 -0 0 1 0 -1 0 1 0 0 13
Polygon3D 0
PolygonOnTriangulations 0
Surfaces 15
2 1530.2303627829999 -179 644.38351043575994 0 0 1 0 -1 0 1 0 -0 26
1 1530.2303627829999 -179 674.38351043575994 0 0 1 0 -1 0 1 0 -0 
1 1530.2303627829999 -251.04544647739999 665.38351043575994 0 -2.8000000000000001e-16 1 0 1 2.8000000000000001e-16 -1 0 0 
6 -0 0 -1 
7 0 0  2 3 2  1542.7303627829999 -194 653.38351043575994  1540.720267168 -242.5798777018 653.38351043575994  1536.2303627829999 -291 653.38351043575994 
 0 3 97.225156170964993 3
1 1530.2303627829999 -251.04544647739999 653.38351043575994 0 2.8000000000000001e-16 -1 0 -1 -2.8000000000000001e-16 -1 0 -0 
1 1530.2303627829999 -179 644.38351043575994 0 0 1 0 -1 0 1 0 -0 
6 -0 0 -1 
7 0 0  2 3 2  1517.7303627829999 -194 653.38351043575994  1519.7404583980001 -242.5798777018 653.38351043575994  1524.2303627829999 -291 653.38351043575994 
 0 3 97.225156170964993 3
2 1530.2303627829999 -291 653.38351043575994 0 0 1 1.1e-16 -1 0 1 1.1e-16 -0 13
2 1530.2303627829999 -179 643.38351043575994 0 0 1 0 -1 0 1 0 -0 19.199999999999999
1 1527.005362783 -197.05000000000001 672.13351043575994 0 0 1 0 -1 0 1 0 -0 
1 1533.4553627830001 -197.05000000000001 646.63351043575994 1 0 0 0 0 1 0 -1 0 
1 1527.005362783 -197.05000000000001 646.63351043575994 0 0 1 0 -1 0 1 0 -0 
1 1527.005362783 -197.05000000000001 646.63351043575994 1 0 0 0 0 1 0 -1 0 
1 1527.005362783 -201.09999999999999 646.63351043575994 0 -1 0 0 0 1 -1 0 0 
2 1530.2303627829999 -291 647.38351043575994 0 0 1 0 -1 0 1 0 -0 6.5
Triangulations 0

TShapes 113
Ve
1e-07
1530.230362783 -205 665.38351043576
0 0

0101101
*
Ve
1e-07
1530.230362783 -205 674.38351043576
0 0

0101101
*
Ed
 1e-07 1 1 0
1  1 0 21 30
3  1 2CN 1 0 21 30
0

0101000
+113 0 -112 0 *
Ed
 1e-07 1 1 0
1  2 0 0 6.28318530717959
2  3 1 0 0 6.28318530717959
4 C0 1 0 2 0
0

0101100
+112 0 -112 0 *
Ve
1e-07
1542.383168932 -201.9849799367 665.38351043576
0 0

0101101
*
Ed
 1e-07 1 1 0
1  3 0 0 0.486365130160284
2  4 1 0 0 0.486365130160284
4 C0 1 0 3 0
0

0101000
+113 0 -109 0 *
Ve
1e-07
1542.383168932 -201.9849799367 653.38351043576
0 0

0101101
*
Ed
 1e-07 1 1 0
1  4 0 4.99999965582653e-08 0.999999950000012
2  5 1 0 4.99999965582653e-08 0.999999950000012
2  6 4 0 4.99999965582653e-08 0.999999950000012
4 C0 1 0 4 0
0

0101000
+109 0 -107 0 *
Ve
1e-07
1530.230362783 -205 653.38351043576
0 0

0101101
*
Ed
 1e-07 1 1 0
1  5 0 0 0.486365130160284
2  7 1 0 0 0.486365130160284
4 C0 1 0 5 0
0

0101000
+105 0 -107 0 *
Ve
1e-07
1530.230362783 -205 644.38351043576
0 0

0101101
*
Ed
 1e-07 1 1 0
1  6 0 0 9
3  8 9CN 1 0 0 9
0

0101000
+103 0 -105 0 *
Ed
 1e-07 1 1 0
1  7 0 0 6.28318530717959
2  10 1 0 0 6.28318530717959
4 C0 1 0 6 0
0

0101100
+103 0 -103 0 *
Ve
1e-07
1518.077556633 -201.9849799367 653.38351043576
0 0

0101101
*
Ed
 1e-07 1 1 0
1  8 0 5.79682017698531 6.28318530717959
2  11 1 0 5.79682017698531 6.28318530717959
4 C0 1 0 5 0
0

0101000
+100 0 -105 0 *
Ve
1e-07
1518.077556633 -201.9849799367 665.38351043576
0 0

0101101
*
Ed
 1e-07 1 1 0
1  9 0 4.99999965582653e-08 0.999999950000012
2  12 1 0 4.99999965582653e-08 0.999999950000012
2  13 7 0 4.99999965582653e-08 0.999999950000012
4 C0 1 0 7 0
0

0101000
+98 0 -100 0 *
Ed
 1e-07 1 1 0
1  10 0 5.79682017698531 6.28318530717959
2  14 1 0 5.79682017698531 6.28318530717959
4 C0 1 0 3 0
0

0101000
+98 0 -113 0 *
Wi

0101100
+111 0 -110 0 -111 0 +108 0 +106 0 -104 0 -102 0 +101 0 +102 0 -99 0 
-97 0 +96 0 *
Fa
0  1e-07 1 0

0111000
+95 0 *
Ve
1e-07
1523.245639601 -280.035801804 653.38351043576
0 0

0101101
*
Ed
 1e-07 1 1 0
1  11 0 7.99143487555173 86.2194337214286
2  15 7 0 7.99143487555173 86.2194337214286
4 C0 7 0 5 0
0

0101000
+100 0 -93 0 *
Ve
1e-07
1523.245639601 -280.035801804 665.38351043576
0 0

0101101
*
Ed
 1e-07 1 1 0
1  12 0 7.99143487555173 86.2194337214286
2  16 7 0 7.99143487555173 86.2194337214286
4 C0 7 0 3 0
0

0101000
+98 0 -91 0 *
Ed
 1e-07 1 1 0
1  13 0 4.99999965582653e-08 0.999999950000012
2  17 7 0 4.99999965582653e-08 0.999999950000012
2  18 8 0 4.99999965582653e-08 0.999999950000012
4 C0 7 0 8 0
0

0101000
+91 0 -93 0 *
Wi

0101100
-92 0 -97 0 +90 0 +89 0 *
Fa
0  1e-07 7 0

0111000
+88 0 *
Wi

0101100
+101 0 *
Ve
1e-07
1530.230362783 -198.2 644.38351043576
0 0

0101101
*
Ed
 1e-07 1 1 0
1  14 0 0 6.28318530717959
2  19 9 0 0 6.28318530717959
4 C0 6 0 9 0
0

0101100
+85 0 -85 0 *
Wi

0101100
-84 0 *
Fa
0  1e-07 6 0

0111000
+86 0 +83 0 *
Ve
1e-07
1537.215085964 -280.035801804 653.38351043576
0 0

0101101
*
Ed
 1e-07 1 1 0
1  15 0 7.99143487559724 86.2194337215151
2  20 4 0 7.99143487559724 86.2194337215151
4 C0 4 0 5 0
0

0101000
+107 0 -81 0 *
Ve
1e-07
1537.215085964 -280.035801804 665.38351043576
0 0

0101101
*
Ed
 1e-07 1 1 0
1  16 0 7.99143487559724 86.2194337215151
2  21 4 0 7.99143487559724 86.2194337215151
4 C0 4 0 3 0
0

0101000
+109 0 -79 0 *
Ed
 1e-07 1 1 0
1  17 0 4.99999965582653e-08 0.999999950000012
2  22 4 0 4.99999965582653e-08 0.999999950000012
2  23 8 0 4.99999965582653e-08 0.999999950000012
4 C0 4 0 8 0
0

0101000
+79 0 -81 0 *
Wi

0101100
-80 0 -106 0 +78 0 +77 0 *
Fa
0  1e-07 4 0

0111000
+76 0 *
Wi

0101100
+110 0 *
Ve
1e-07
1530.230362783 -198.2 674.38351043576
0 0

0101101
*
Ed
 1e-07 1 1 0
1  18 0 0 6.28318530717959
2  24 9 0 0 6.28318530717959
4 C0 2 0 9 0
0

0101100
+73 0 -73 0 *
Wi

0101100
-72 0 *
Fa
0  1e-07 2 0

0111000
+74 0 +71 0 *
Ve
1e-07
1530.230362783 -198.2 672.13351043576
0 0

0101101
*
Ed
 1e-07 1 1 0
1  19 0 28.75 31
3  25 26CN 9 0 28.75 31
0

0101000
+69 0 -73 0 *
Ve
1e-07
1533.455362783 -197.9272125523 672.13351043576
0 0

0101101
*
Ed
 1e-07 1 1 0
1  20 0 0 0.168768780542839
2  27 9 0 0 0.168768780542839
4 C0 9 0 10 0
0

0101000
+69 0 -67 0 *
Ve
1e-07
1533.455362783 -197.9272125523 646.63351043576
0 0

0101101
*
Ed
 1e-07 1 1 0
1  21 0 3.25 28.75
2  28 9 0 3.25 28.75
4 C0 9 0 11 0
0

0101000
+65 0 -67 0 *
Ve
1e-07
1530.230362783 -198.2 646.63351043576
0 0

0101101
*
Ed
 1e-07 1 1 0
1  22 0 0 0.168768780542839
2  29 9 0 0 0.168768780542839
4 C0 9 0 12 0
0

0101000
+63 0 -65 0 *
Ed
 1e-07 1 1 0
1  23 0 1 3.25
3  30 31CN 9 0 1 3.25
0

0101000
+85 0 -63 0 *
Ve
1e-07
1527.005362783 -197.9272125523 646.63351043576
0 0

0101101
*
Ed
 1e-07 1 1 0
1  24 0 6.11441652663676 6.28318530717959
2  32 9 0 6.11441652663676 6.28318530717959
4 C0 9 0 12 0
0

0101000
+60 0 -63 0 *
Ve
1e-07
1527.005362783 -197.9272125523 672.13351043576
0 0

0101101
*
Ed
 1e-07 1 1 0
1  25 0 3.25 28.75
2  33 9 0 3.25 28.75
4 C0 9 0 13 0
0

0101000
+60 0 -58 0 *
Ed
 1e-07 1 1 0
1  26 0 6.11441652663676 6.28318530717959
2  34 9 0 6.11441652663676 6.28318530717959
4 C0 9 0 10 0
0

0101000
+58 0 -69 0 *
Wi

0101100
+68 0 -72 0 -68 0 +66 0 -64 0 -62 0 -61 0 +84 0 +61 0 -59 0 
+57 0 +56 0 *
Fa
0  1e-07 9 0

0111000
+55 0 *
Ve
1e-07
1533.455362783 -201.1 672.13351043576
0 0

0101101
*
Ed
 1e-07 1 1 0
1  27 0 0.877212552299994 4.04999999999998
4 C0 10 0 11 0
0

0101000
+67 0 -53 0 *
Ve
1e-07
1527.005362783 -201.1 672.13351043576
0 0

0101101
*
Ed
 1e-07 1 1 0
1  28 0 0.877212552299994 4.04999999999998
4 C0 10 0 13 0
0

0101000
+58 0 -51 0 *
Ed
 1e-07 1 1 0
1  29 0 0 6.45000000000005
4 C0 10 0 14 0
0

0101000
+51 0 -53 0 *
Wi

0101100
-52 0 -66 0 -56 0 +50 0 +49 0 *
Fa
0  1e-07 10 0

0111000
+48 0 *
Ve
1e-07
1527.005362783 -201.1 646.63351043576
0 0

0101101
*
Ed
 1e-07 1 1 0
1  30 0 0.877212552299994 4.04999999999998
4 C0 13 0 12 0
0

0101000
+60 0 -46 0 *
Ed
 1e-07 1 1 0
1  31 0 0 25.5
4 C0 13 0 14 0
0

0101000
+46 0 -51 0 *
Wi

0101100
-45 0 +57 0 +50 0 -44 0 *
Fa
0  1e-07 13 0

0111000
+43 0 *
Ve
1e-07
1533.455362783 -201.1 646.63351043576
0 0

0101101
*
Ed
 1e-07 1 1 0
1  32 0 0.877212552299994 4.04999999999998
4 C0 12 0 11 0
0

0101000
+65 0 -41 0 *
Ed
 1e-07 1 1 0
1  33 0 0 6.45000000000005
4 C0 12 0 14 0
0

0101000
+46 0 -41 0 *
Wi

0101100
-40 0 -62 0 -59 0 +45 0 +39 0 *
Fa
0  1e-07 12 0

0111000
+38 0 *
Ed
 1e-07 1 1 0
1  34 0 0 25.5
4 C0 11 0 14 0
0

0101000
+41 0 -53 0 *
Wi

0101100
-40 0 +64 0 +52 0 -36 0 *
Fa
0  1e-07 11 0

0111000
+35 0 *
Wi

0101100
-44 0 +39 0 +36 0 -49 0 *
Fa
0  1e-07 14 0

0111000
+33 0 *
Ve
1e-07
1530.230362783 -304 665.38351043576
0 0

0101101
*
Ed
 1e-07 1 1 0
1  35 0 3.70880899791272 6.28318530717959
2  35 8 0 3.70880899791272 6.28318530717959
4 C0 3 0 8 0
0

0101000
+91 0 -31 0 *
Ed
 1e-07 1 1 0
1  36 0 0 2.57437630933173
2  36 8 0 0 2.57437630933173
4 C0 3 0 8 0
0

0101000
+31 0 -79 0 *
Wi

0101100
-96 0 +90 0 +30 0 +29 0 -78 0 -108 0 *
Ve
1e-07
1536.414813759 -288.9993585714 665.38351043576
0 0

0101101
*
Ve
1e-07
1524.045911807 -288.9993585714 665.38351043576
0 0

0101101
*
Ed
 1e-07 1 1 0
1  37 0 1.88366676333204 4.39951854384753
2  37 15 0 1.88366676333204 4.39951854384753
4 C0 3 0 15 0
0

0101000
+27 0 -26 0 *
Ve
1e-07
1530.230362783 -297.5 665.38351043576
0 0

0101101
*
Ed
 1e-07 1 1 0
1  38 0 0 1.88366676333204
2  38 15 0 0 1.88366676333204
4 C0 3 0 15 0
0

0101000
+24 0 -27 0 *
Ed
 1e-07 1 1 0
1  39 0 4.39951854384753 6.28318530717959
2  39 15 0 4.39951854384753 6.28318530717959
4 C0 3 0 15 0
0

0101000
+26 0 -24 0 *
Wi

0101100
-25 0 -23 0 -22 0 *
Fa
0  1e-07 3 0

0111000
+28 0 +21 0 *
Ve
1e-07
1530.230362783 -297.5 653.38351043576
0 0

0101101
*
Ed
 1e-07 1 1 0
1  40 0 6 18
3  40 41CN 15 0 6 18
0

0101000
+19 0 -24 0 *
Ve
1e-07
1536.414813759 -288.9993585714 653.38351043576
0 0

0101101
*
Ed
 1e-07 1 1 0
1  41 0 0 1.88366676333204
2  42 15 0 0 1.88366676333204
4 C0 15 0 5 0
0

0101000
+19 0 -17 0 *
Ve
1e-07
1524.045911807 -288.9993585714 653.38351043576
0 0

0101101
*
Ed
 1e-07 1 1 0
1  42 0 1.88366676333204 4.39951854384753
2  43 15 0 1.88366676333204 4.39951854384753
4 C0 15 0 5 0
0

0101000
+17 0 -15 0 *
Ed
 1e-07 1 1 0
1  43 0 4.39951854384753 6.28318530717959
2  44 15 0 4.39951854384753 6.28318530717959
4 C0 15 0 5 0
0

0101000
+15 0 -19 0 *
Wi

0101100
-23 0 -18 0 +16 0 +14 0 +13 0 +18 0 -22 0 -25 0 *
Fa
0  1e-07 15 0

0111000
+12 0 *
Ve
1e-07
1530.230362783 -304 653.38351043576
0 0

0101101
*
Ed
 1e-07 1 1 0
1  44 0 0 2.57437630933173
2  45 8 0 0 2.57437630933173
4 C0 5 0 8 0
0

0101000
+10 0 -81 0 *
Ed
 1e-07 1 1 0
1  45 0 3.70880899791272 6.28318530717959
2  46 8 0 3.70880899791272 6.28318530717959
4 C0 5 0 8 0
0

0101000
+93 0 -10 0 *
Wi

0101100
+99 0 +104 0 +80 0 -9 0 -8 0 -92 0 *
Wi

0101100
+14 0 +13 0 +16 0 *
Fa
0  1e-07 5 0

0111000
+7 0 +6 0 *
Wi

0101100
+9 0 -77 0 -29 0 -30 0 +89 0 +8 0 *
Fa
0  1e-07 8 0

0111000
+4 0 *
Sh

0101100
+94 0 -87 0 -82 0 +75 0 +70 0 -54 0 -47 0 +42 0 +37 0 -34 0 
-32 0 +20 0 -11 0 +5 0 +3 0 *
So

0100000
+2 0 *

+1 0 