
CASCADE Topology V1, (c) Matra-Datavision
Locations 5
1
1.000000000000000 0.000000000000000 0.000000000000000 0.000000000000000 
0.000000000000000 1.000000000000000 0.000000000000000 0.000000000000000 
0.000000000000000 0.000000000000000 1.000000000000000 0.000000000000000 
1
1.000000000000000 0.000000000000000 0.000000000000000 0.000000000000000 
0.000000000000000 1.000000000000000 0.000000000000000 0.000000000000000 
0.000000000000000 0.000000000000000 1.000000000000000 0.000000000000000 
2  2 -1 0
1
1.000000000000000 0.000000000000000 0.000000000000000 0.000000000000000 
0.000000000000000 1.000000000000000 0.000000000000000 0.000000000000000 
0.000000000000000 0.000000000000000 1.000000000000000 12.699999999999999 
2  2 -1 4 -1 0
Curve2ds 41
1 0.00000000000000000 0.00000000000000000 1.00000000000000000 0.00000000000000000 
1 2.49809154479650886 0.00000000000000000 0.00000000000000000 1.00000000000000000 
1 12.70000000000000284 0.00000000000000000 0.00000000000000000 1.00000000000000000 
1 0.00000000000000000 1.00000000000000000 1.00000000000000000 0.00000000000000000 
1 0.00000000000000000 0.00000000000000000 0.00000000000000000 1.00000000000000000 
1 7.01291428652339732 0.00000000000000000 0.00000000000000000 1.00000000000000000 
1 12.69999999999999929 0.00000000000000000 -1.00000000000000000 -0.00000000000000000 
1 12.70000000000000284 0.00000000000000000 0.00000000000000000 1.00000000000000000 
1 0.00000000000000000 1.00000000000000000 1.00000000000000000 0.00000000000000000 
1 0.00000000000000000 0.00000000000000000 0.00000000000000000 1.00000000000000000 
1 0.00000000000000000 0.00000000000000000 1.00000000000000000 0.00000000000000000 
1 12.70000000000000284 0.00000000000000000 0.00000000000000000 1.00000000000000000 
1 0.00000000000000000 1.00000000000000000 1.00000000000000000 0.00000000000000000 
1 0.00000000000000000 0.00000000000000000 0.00000000000000000 1.00000000000000000 
1 0.00000000000000000 0.00000000000000000 1.00000000000000000 0.00000000000000000 
1 12.70000000000000284 0.00000000000000000 0.00000000000000000 1.00000000000000000 
1 0.00000000000000000 0.00000000000000000 0.00000000000000000 1.00000000000000000 
1 0.00000000000000000 1.00000000000000000 1.00000000000000000 0.00000000000000000 
1 0.00000000000000000 0.00000000000000000 1.00000000000000000 0.00000000000000000 
1 6.28318530717958623 -0.00000000000000000 0.00000000000000000 1.00000000000000000 
1 0.00000000000000000 -0.00000000000000000 0.00000000000000000 1.00000000000000000 
1 0.00000000000000000 109.50000000000000000 1.00000000000000000 0.00000000000000000 
1 4.71238898038468967 1.57079632679489656 0.00000000000000000 -1.00000000000000000 
1 0.00000000000000000 109.50000000000000000 1.00000000000000000 0.00000000000000000 
1 1.57079632679489656 -4.71238898038468967 -0.00000000000000000 1.00000000000000000 
1 6.28318530717958623 -6.28318530717958623 0.00000000000000000 1.00000000000000000 
1 0.00000000000000000 -6.28318530717958623 0.00000000000000000 1.00000000000000000 
1 0.00000000000000000 -1.57079632679489656 1.00000000000000000 0.00000000000000000 
1 0.00000000000000000 1.57079632679489656 1.00000000000000000 0.00000000000000000 
1 0.00000000000000000 -1.57079632679489656 1.00000000000000000 0.00000000000000000 
1 0.00000000000000000 1.57079632679489656 1.00000000000000000 0.00000000000000000 
1 6.28318530717958623 0.00000000000000000 1.00000000000000000 0.00000000000000000 
1 0.00000000000000000 0.00000000000000000 1.00000000000000000 0.00000000000000000 
1 0.00000000000000000 93.65000000000000568 1.00000000000000000 0.00000000000000000 
1 0.00000000000000000 93.65000000000000568 1.00000000000000000 0.00000000000000000 
1 0.00000000000000000 106.34999999999999432 1.00000000000000000 0.00000000000000000 
1 0.00000000000000000 106.34999999999999432 1.00000000000000000 0.00000000000000000 
1 6.28318530717958623 -0.00000000000000000 0.00000000000000000 1.00000000000000000 
1 0.00000000000000000 -0.00000000000000000 0.00000000000000000 1.00000000000000000 
1 6.28318530717958623 12.69999999999999929 1.00000000000000000 0.00000000000000000 
1 0.00000000000000000 12.69999999999999929 1.00000000000000000 0.00000000000000000 
Curves 71
1 50.00000000000000000 88.00000000000000000 -6.34999999999999964 0.00000000000000000 0.00000000000000000 1.00000000000000000 
1 140.00000000000000000 89.34999999999999432 -6.34999999999999964 0.00000000000000000 0.00000000000000000 1.00000000000000000 
1 50.00000000000000000 88.00000000000000000 -6.34999999999999964 0.99988751898081618 0.01499831278471218 0.00000000000000000 
1 50.00000000000000000 88.00000000000000000 -6.34999999999999964 0.99988751898081618 0.01499831278471218 0.00000000000000000 
1 15.00000000000000000 77.00000000000000000 -6.34999999999999964 0.00000000000000000 0.00000000000000000 1.00000000000000000 
1 15.00000000000000000 77.00000000000000000 -6.34999999999999964 0.95399371690125556 0.29982659674039458 0.00000000000000000 
1 15.00000000000000000 77.00000000000000000 -6.34999999999999964 0.95399371690125556 0.29982659674039458 0.00000000000000000 
1 -20.00000000000000000 55.00000000000000000 -6.34999999999999964 0.00000000000000000 0.00000000000000000 1.00000000000000000 
1 -20.00000000000000000 55.00000000000000000 -6.34999999999999964 0.84663654921100473 0.53217154521834587 0.00000000000000000 
1 -20.00000000000000000 55.00000000000000000 -6.34999999999999964 0.84663654921100473 0.53217154521834587 0.00000000000000000 
1 -20.00000000000000000 0.00000000000000000 -6.34999999999999964 0.00000000000000000 1.00000000000000000 0.00000000000000000 
1 -20.00000000000000000 0.00000000000000000 -6.34999999999999964 0.00000000000000000 1.00000000000000000 0.00000000000000000 
1 -20.00000000000000000 15.00000000000000000 -6.34999999999999964 0.00000000000000000 0.00000000000000000 1.00000000000000000 
7 0 0  1 2 2  140.00000000000000000 89.34999999999999432 6.34999999999999964  205.00000000000000000 89.34999999999999432 38.44999999999999574 
 0.00000000000000000 2 1.00000000000000000 2
1 205.00000000000000000 89.34999999999999432 25.74999999999999289 0.00000000000000000 0.00000000000000000 1.00000000000000000 
6 0 1 140.00000000000000000 89.34999999999999432 -6.34999999999999964  205.00000000000000000 89.34999999999999432 25.74999999999999289  
1 15.00000000000000000 61.00000000000000000 -6.34999999999999964 0.08169323944527151 -0.99665752123231255 0.00000000000000000 
1 18.63387776053452427 16.66669132147880461 -6.34999999999999964 0.00000000000000000 0.00000000000000000 1.00000000000000000 
1 15.00000000000000000 61.00000000000000000 -6.34999999999999964 0.08169323944527151 -0.99665752123231255 0.00000000000000000 
1 15.00000000000000000 61.00000000000000000 -6.34999999999999964 0.00000000000000000 0.00000000000000000 1.00000000000000000 
1 50.00000000000000000 72.00000000000000000 -6.34999999999999964 0.00000000000000000 0.00000000000000000 1.00000000000000000 
1 50.00000000000000000 72.00000000000000000 -6.34999999999999964 -0.95399371690125556 -0.29982659674039458 0.00000000000000000 
1 50.00000000000000000 72.00000000000000000 -6.34999999999999964 -0.95399371690125556 -0.29982659674039458 0.00000000000000000 
1 140.00000000000000000 76.65000000000000568 -6.34999999999999964 0.00000000000000000 0.00000000000000000 1.00000000000000000 
1 140.00000000000000000 76.65000000000000568 -6.34999999999999964 -0.99866794407228143 -0.05159784377706794 0.00000000000000000 
1 140.00000000000000000 76.65000000000000568 -6.34999999999999964 -0.99866794407228143 -0.05159784377706794 0.00000000000000000 
6 0 1 140.00000000000000000 76.65000000000000568 -6.34999999999999964  205.00000000000000000 76.65000000000000568 25.74999999999999289  
1 205.00000000000000000 76.65000000000000568 38.44999999999999574 0.00000000000000000 0.00000000000000000 -1.00000000000000000 
6 0 1 140.00000000000000000 76.65000000000000568 6.34999999999999964  205.00000000000000000 76.65000000000000568 38.44999999999999574  
1 140.00000000000000000 89.34999999999999432 -6.34999999999999964 0.00000000000000000 -1.00000000000000000 0.00000000000000000 
1 205.00000000000000000 76.65000000000000568 25.74999999999999289 0.00000000000000000 1.00000000000000000 0.00000000000000000 
6 0 1 205.00000000000000000 89.34999999999999432 25.74999999999999289  276.00000000000000000 89.34999999999999432 25.74999999999999289  
1 276.00000000000000000 76.65000000000000568 25.74999999999999289 0.00000000000000000 1.00000000000000000 0.00000000000000000 
6 0 1 205.00000000000000000 76.65000000000000568 25.74999999999999289  276.00000000000000000 76.65000000000000568 25.74999999999999289  
1 140.00000000000000000 89.34999999999999432 -6.34999999999999964 0.00000000000000000 -1.00000000000000000 0.00000000000000000 
1 205.00000000000000000 89.34999999999999432 38.44999999999999574 0.00000000000000000 -1.00000000000000000 0.00000000000000000 
1 276.00000000000000000 76.65000000000000568 38.44999999999999574 0.00000000000000000 0.00000000000000000 -1.00000000000000000 
6 0 1 205.00000000000000000 76.65000000000000568 38.44999999999999574  276.00000000000000000 76.65000000000000568 38.44999999999999574  
6 0 1 205.00000000000000000 89.34999999999999432 38.44999999999999574  276.00000000000000000 89.34999999999999432 38.44999999999999574  
1 276.00000000000000000 89.34999999999999432 25.74999999999999289 0.00000000000000000 0.00000000000000000 1.00000000000000000 
7 0 0  1 2 2  276.00000000000000000 89.34999999999999432 25.74999999999999289  305.00000000000000000 52.35000000000000142 25.74999999999999289 
 0.00000000000000000 2 1.00000000000000000 2
1 305.00000000000000000 39.64999999999999858 25.74999999999999289 0.00000000000000000 1.00000000000000000 0.00000000000000000 
7 0 0  1 2 2  276.00000000000000000 76.65000000000000568 25.74999999999999289  305.00000000000000000 39.64999999999999858 25.74999999999999289 
 0.00000000000000000 2 1.00000000000000000 2
1 276.00000000000000000 89.34999999999999432 38.44999999999999574 0.00000000000000000 -1.00000000000000000 0.00000000000000000 
1 305.00000000000000000 39.64999999999999858 38.44999999999999574 0.00000000000000000 0.00000000000000000 -1.00000000000000000 
7 0 0  1 2 2  276.00000000000000000 76.65000000000000568 38.44999999999999574  305.00000000000000000 39.64999999999999858 38.44999999999999574 
 0.00000000000000000 2 1.00000000000000000 2
6 0 1 276.00000000000000000 89.34999999999999432 38.44999999999999574  305.00000000000000000 52.35000000000000142 38.44999999999999574  
1 305.00000000000000000 52.35000000000000142 25.74999999999999289 0.00000000000000000 0.00000000000000000 1.00000000000000000 
6 0 1 305.00000000000000000 39.64999999999999858 25.74999999999999289  815.00000000000000000 39.64999999999999858 25.74999999999999289  
1 794.79999999999995453 42.82500000000000284 25.74999999999999289 0.00000000000000000 -1.00000000000000000 0.00000000000000000 
6 0 1 305.00000000000000000 52.35000000000000142 25.74999999999999289  815.00000000000000000 52.35000000000000142 25.74999999999999289  
1 305.00000000000000000 52.35000000000000142 38.44999999999999574 0.00000000000000000 -1.00000000000000000 0.00000000000000000 
6 0 1 305.00000000000000000 39.64999999999999858 38.44999999999999574  815.00000000000000000 39.64999999999999858 38.44999999999999574  
1 794.79999999999995453 39.64999999999999858 35.27499999999999147 0.00000000000000000 0.00000000000000000 1.00000000000000000 
1 794.79999999999995453 52.35000000000000142 28.92499999999999361 0.00000000000000000 0.00000000000000000 -1.00000000000000000 
6 0 1 305.00000000000000000 52.35000000000000142 38.44999999999999574  815.00000000000000000 52.35000000000000142 38.44999999999999574  
2 794.79999999999995453 46.00000000000000000 32.09999999999999432 1.00000000000000000 0.00000000000000000 -0.00000000000000000 0.00000000000000000 0.00000000000000000 1.00000000000000000 0.00000000000000000 -1.00000000000000000 0.00000000000000000 10.50000000000000000
1 794.79999999999995453 49.17499999999999716 38.44999999999999574 0.00000000000000000 1.00000000000000000 0.00000000000000000 
1 794.79999999999995453 46.00000000000000000 42.59999999999999432 1.00000000000000000 0.00000000000000000 0.00000000000000000 
2 904.29999999999995453 46.00000000000000000 32.09999999999999432 1.00000000000000000 0.00000000000000000 -0.00000000000000000 0.00000000000000000 0.00000000000000000 1.00000000000000000 0.00000000000000000 -1.00000000000000000 0.00000000000000000 10.50000000000000000
2 904.29999999999995453 46.00000000000000000 32.09999999999999432 1.00000000000000000 0.00000000000000000 -0.00000000000000000 0.00000000000000000 0.00000000000000000 1.00000000000000000 0.00000000000000000 -1.00000000000000000 0.00000000000000000 10.50000000000000000
2 904.29999999999995453 46.00000000000000000 32.09999999999999432 -0.00000000000000024 -1.00000000000000000 0.00000000000000000 1.00000000000000000 -0.00000000000000024 0.00000000000000000 0.00000000000000000 0.00000000000000000 1.00000000000000000 10.50000000000000000
2 0.00000000000000000 0.00000000000000000 -6.34999999999999964 0.00000000000000000 0.00000000000000000 1.00000000000000000 1.00000000000000000 0.00000000000000000 0.00000000000000000 0.00000000000000000 1.00000000000000000 0.00000000000000000 25.00000000000000000
2 0.00000000000000000 0.00000000000000000 -6.34999999999999964 0.00000000000000000 0.00000000000000000 1.00000000000000000 1.00000000000000000 0.00000000000000000 0.00000000000000000 0.00000000000000000 1.00000000000000000 0.00000000000000000 25.00000000000000000
2 0.00000000000000000 0.00000000000000000 -6.34999999999999432 0.00000000000000000 0.00000000000000000 1.00000000000000000 1.00000000000000000 0.00000000000000000 0.00000000000000000 0.00000000000000000 1.00000000000000000 0.00000000000000000 11.21250000000000036
2 0.00000000000000000 0.00000000000000000 -6.34999999999999432 0.00000000000000000 0.00000000000000000 1.00000000000000000 1.00000000000000000 0.00000000000000000 0.00000000000000000 0.00000000000000000 1.00000000000000000 0.00000000000000000 11.21250000000000036
2 0.00000000000000000 0.00000000000000000 6.34999999999999432 0.00000000000000000 0.00000000000000000 1.00000000000000000 1.00000000000000000 0.00000000000000000 0.00000000000000000 0.00000000000000000 1.00000000000000000 0.00000000000000000 11.21250000000000036
2 0.00000000000000000 0.00000000000000000 6.34999999999999432 0.00000000000000000 0.00000000000000000 1.00000000000000000 1.00000000000000000 0.00000000000000000 0.00000000000000000 0.00000000000000000 1.00000000000000000 0.00000000000000000 11.21250000000000036
1 11.21250000000000036 -0.00000000000000275 -100.00000000000000000 0.00000000000000000 0.00000000000000000 1.00000000000000000 
2 0.00000000000000000 0.00000000000000000 6.34999999999999964 0.00000000000000000 0.00000000000000000 1.00000000000000000 1.00000000000000000 0.00000000000000000 0.00000000000000000 0.00000000000000000 1.00000000000000000 0.00000000000000000 25.00000000000000000
2 0.00000000000000000 0.00000000000000000 6.34999999999999964 0.00000000000000000 0.00000000000000000 1.00000000000000000 1.00000000000000000 0.00000000000000000 0.00000000000000000 0.00000000000000000 1.00000000000000000 0.00000000000000000 25.00000000000000000
Polygon3D 0
PolygonOnTriangulations 0
Surfaces 33
1 50.00000000000000000 88.00000000000000000 -6.34999999999999964 -0.01499831278471218 0.99988751898081618 0.00000000000000000 0.99988751898081618 0.01499831278471218 0.00000000000000000 0.00000000000000000 0.00000000000000000 -1.00000000000000000 
9 0 0 0 0 1 1 2 2 2 2 140.00000000000000000 89.34999999999999432 -6.34999999999999964  205.00000000000000000 89.34999999999999432 25.74999999999999289  
140.00000000000000000 89.34999999999999432 6.34999999999999964  205.00000000000000000 89.34999999999999432 38.44999999999999574  

0.00000000000000000 2
12.70000000000000284 2

0.00000000000000000 2
1.00000000000000000 2

1 15.00000000000000000 77.00000000000000000 -6.34999999999999964 -0.29982659674039458 0.95399371690125556 0.00000000000000000 0.95399371690125556 0.29982659674039458 0.00000000000000000 0.00000000000000000 0.00000000000000000 -1.00000000000000000 
1 -20.00000000000000000 55.00000000000000000 -6.34999999999999964 -0.53217154521834587 0.84663654921100473 0.00000000000000000 0.84663654921100473 0.53217154521834587 0.00000000000000000 0.00000000000000000 0.00000000000000000 -1.00000000000000000 
1 -20.00000000000000000 0.00000000000000000 -6.34999999999999964 -1.00000000000000000 0.00000000000000000 0.00000000000000000 0.00000000000000000 1.00000000000000000 0.00000000000000000 0.00000000000000000 0.00000000000000000 -1.00000000000000000 
2 0.00000000000000000 0.00000000000000000 -6.34999999999999964 0.00000000000000000 0.00000000000000000 1.00000000000000000 1.00000000000000000 0.00000000000000000 0.00000000000000000 0.00000000000000000 1.00000000000000000 0.00000000000000000 25.00000000000000000
1 15.00000000000000000 61.00000000000000000 -6.34999999999999964 0.99665752123231255 0.08169323944527151 0.00000000000000000 0.08169323944527151 -0.99665752123231255 0.00000000000000000 0.00000000000000000 0.00000000000000000 -1.00000000000000000 
1 50.00000000000000000 72.00000000000000000 -6.34999999999999964 0.29982659674039458 -0.95399371690125556 0.00000000000000000 -0.95399371690125556 -0.29982659674039458 0.00000000000000000 0.00000000000000000 0.00000000000000000 -1.00000000000000000 
1 140.00000000000000000 76.65000000000000568 -6.34999999999999964 0.05159784377706794 -0.99866794407228143 0.00000000000000000 -0.99866794407228143 -0.05159784377706794 0.00000000000000000 0.00000000000000000 0.00000000000000000 -1.00000000000000000 
9 0 0 0 0 1 1 2 2 2 2 140.00000000000000000 76.65000000000000568 6.34999999999999964  205.00000000000000000 76.65000000000000568 38.44999999999999574  
140.00000000000000000 76.65000000000000568 -6.34999999999999964  205.00000000000000000 76.65000000000000568 25.74999999999999289  

0.00000000000000000 2
12.70000000000000284 2

0.00000000000000000 2
1.00000000000000000 2

1 205.00000000000000000 76.65000000000000568 25.74999999999999289 0.44279400350290771 0.00000000000000000 -0.89662337157909677 0.00000000000000000 1.00000000000000000 0.00000000000000000 0.89662337157909677 0.00000000000000000 0.44279400350290771 
1 276.00000000000000000 76.65000000000000568 25.74999999999999289 0.00000000000000000 0.00000000000000000 -1.00000000000000000 0.00000000000000000 1.00000000000000000 0.00000000000000000 1.00000000000000000 0.00000000000000000 0.00000000000000000 
9 0 0 0 0 1 1 2 2 2 2 276.00000000000000000 76.65000000000000568 25.74999999999999289  305.00000000000000000 39.64999999999999858 25.74999999999999289  
276.00000000000000000 89.34999999999999432 25.74999999999999289  305.00000000000000000 52.35000000000000142 25.74999999999999289  

0.00000000000000000 2
12.70000000000000284 2

0.00000000000000000 2
1.00000000000000000 2

1 205.00000000000000000 89.34999999999999432 38.44999999999999574 -0.44279400350290771 0.00000000000000000 0.89662337157909677 0.00000000000000000 -1.00000000000000000 0.00000000000000000 0.89662337157909677 0.00000000000000000 0.44279400350290771 
1 276.00000000000000000 76.65000000000000568 38.44999999999999574 0.00000000000000000 -1.00000000000000000 0.00000000000000000 0.00000000000000000 0.00000000000000000 -1.00000000000000000 1.00000000000000000 0.00000000000000000 0.00000000000000000 
1 276.00000000000000000 89.34999999999999432 25.74999999999999289 0.00000000000000000 1.00000000000000000 0.00000000000000000 0.00000000000000000 0.00000000000000000 1.00000000000000000 1.00000000000000000 0.00000000000000000 0.00000000000000000 
1 276.00000000000000000 89.34999999999999432 38.44999999999999574 0.00000000000000000 0.00000000000000000 1.00000000000000000 0.00000000000000000 -1.00000000000000000 0.00000000000000000 1.00000000000000000 0.00000000000000000 0.00000000000000000 
9 0 0 0 0 1 1 2 2 2 2 276.00000000000000000 89.34999999999999432 38.44999999999999574  305.00000000000000000 52.35000000000000142 38.44999999999999574  
276.00000000000000000 76.65000000000000568 38.44999999999999574  305.00000000000000000 39.64999999999999858 38.44999999999999574  

0.00000000000000000 2
12.70000000000000284 2

0.00000000000000000 2
1.00000000000000000 2

1 305.00000000000000000 39.64999999999999858 38.44999999999999574 -0.78705591515130668 -0.61688166322669968 -0.00000000000000000 0.00000000000000000 0.00000000000000000 -1.00000000000000000 0.61688166322669968 -0.78705591515130668 0.00000000000000000 
1 305.00000000000000000 52.35000000000000142 25.74999999999999289 0.78705591515130646 0.61688166322669979 0.00000000000000000 0.00000000000000000 0.00000000000000000 1.00000000000000000 0.61688166322669979 -0.78705591515130646 0.00000000000000000 
1 815.00000000000000000 39.64999999999999858 25.74999999999999289 0.00000000000000000 0.00000000000000000 -1.00000000000000000 0.00000000000000000 1.00000000000000000 0.00000000000000000 1.00000000000000000 0.00000000000000000 0.00000000000000000 
1 815.00000000000000000 39.64999999999999858 38.44999999999999574 0.00000000000000000 -1.00000000000000000 0.00000000000000000 0.00000000000000000 0.00000000000000000 -1.00000000000000000 1.00000000000000000 0.00000000000000000 0.00000000000000000 
1 815.00000000000000000 52.35000000000000142 25.74999999999999289 0.00000000000000000 1.00000000000000000 0.00000000000000000 0.00000000000000000 0.00000000000000000 1.00000000000000000 1.00000000000000000 0.00000000000000000 0.00000000000000000 
1 794.79999999999995453 46.00000000000000000 32.09999999999999432 1.00000000000000000 0.00000000000000000 0.00000000000000000 0.00000000000000000 0.00000000000000000 1.00000000000000000 0.00000000000000000 -1.00000000000000000 0.00000000000000000 
2 794.79999999999995453 46.00000000000000000 32.09999999999999432 1.00000000000000000 0.00000000000000000 0.00000000000000000 0.00000000000000000 0.00000000000000000 1.00000000000000000 0.00000000000000000 -1.00000000000000000 0.00000000000000000 10.50000000000000000
1 815.00000000000000000 52.35000000000000142 38.44999999999999574 0.00000000000000000 0.00000000000000000 1.00000000000000000 0.00000000000000000 -1.00000000000000000 0.00000000000000000 1.00000000000000000 0.00000000000000000 0.00000000000000000 
4 904.29999999999995453 46.00000000000000000 32.09999999999999432 0.00000000000000000 0.00000000000000000 1.00000000000000000 1.00000000000000000 0.00000000000000000 0.00000000000000000 0.00000000000000000 1.00000000000000000 0.00000000000000000 10.50000000000000000
4 904.29999999999995453 46.00000000000000000 32.09999999999999432 0.00000000000000000 0.00000000000000000 1.00000000000000000 1.00000000000000000 0.00000000000000000 0.00000000000000000 0.00000000000000000 1.00000000000000000 0.00000000000000000 10.50000000000000000
4 904.29999999999995453 46.00000000000000000 32.09999999999999432 0.00000000000000000 0.00000000000000000 1.00000000000000000 1.00000000000000000 0.00000000000000000 -0.00000000000000000 -0.00000000000000000 1.00000000000000000 0.00000000000000000 10.50000000000000000
4 904.29999999999995453 46.00000000000000000 32.09999999999999432 0.00000000000000000 0.00000000000000000 1.00000000000000000 1.00000000000000000 0.00000000000000000 -0.00000000000000000 -0.00000000000000000 1.00000000000000000 0.00000000000000000 10.50000000000000000
1 42.57170747243772269 52.74856107429309304 -6.35000000000000053 -0.00000000000000000 -0.00000000000000000 -1.00000000000000000 -1.00000000000000000 0.00000000000000000 0.00000000000000000 0.00000000000000000 1.00000000000000000 0.00000000000000000 
2 0.00000000000000000 0.00000000000000000 -100.00000000000000000 0.00000000000000000 0.00000000000000000 1.00000000000000000 1.00000000000000000 0.00000000000000000 0.00000000000000000 0.00000000000000000 1.00000000000000000 0.00000000000000000 11.21250000000000036
1 42.57170747243772979 52.74856107429309304 6.35000000000000053 0.00000000000000000 0.00000000000000000 1.00000000000000000 1.00000000000000000 0.00000000000000000 0.00000000000000000 0.00000000000000000 1.00000000000000000 0.00000000000000000 
Triangulations 0

TShapes 186
Ve
0.000000100000000
50.000000000000000 88.000000000000000 -6.350000000000000
0 0

0101101
*
Ve
0.000000100000000
50.000000000000000 88.000000000000000 6.350000000000000
0 0

0101101
*
Ed
 0.000000100000000 1 1 0
1  1 0 0.000000000000000 12.699999999999999
0

0101000
+186 3 -185 3 *
Ve
0.000000100000000
140.000000000000000 89.349999999999994 -6.350000000000000
0 0

0101101
*
Ve
0.000000100000000
140.000000000000000 89.349999999999994 6.350000000000000
0 0

0101101
*
Ed
 0.000000100000000 1 1 0
1  2 0 0.000000000000000 12.699999999999999
2  1 2 0 0.000000000000000 12.699999999999999
0

0101000
+183 3 -182 3 *
Ed
 0.000000100000000 1 1 0
1  3 0 0.000000000000000 90.010124430532812
0

0101000
+186 3 -183 3 *
Ed
 0.000000100000000 1 1 0
1  4 0 0.000000000000000 90.010124430532812
0

0101000
+185 5 -182 5 *
Wi

0101100
+184 0 -181 0 -180 0 +179 4 *
Fa
0  0.000000100000000 1 0

0101000
+178 0 *
Ve
0.000000100000000
15.000000000000000 77.000000000000000 -6.350000000000000
0 0

0101101
*
Ve
0.000000100000000
15.000000000000000 77.000000000000000 6.350000000000000
0 0

0101101
*
Ed
 0.000000100000000 1 1 0
1  5 0 0.000000000000000 12.699999999999999
0

0101000
+176 3 -175 3 *
Ed
 0.000000100000000 1 1 0
1  6 0 0.000000000000000 36.687872655688281
0

0101000
+176 3 -186 3 *
Ed
 0.000000100000000 1 1 0
1  7 0 0.000000000000000 36.687872655688281
0

0101000
+175 5 -185 5 *
Wi

0101100
+174 0 -184 0 -173 0 +172 4 *
Fa
0  0.000000100000000 3 0

0101000
+171 0 *
Ve
0.000000100000000
-20.000000000000000 55.000000000000000 -6.350000000000000
0 0

0101101
*
Ve
0.000000100000000
-20.000000000000000 55.000000000000000 6.350000000000000
0 0

0101101
*
Ed
 0.000000100000000 1 1 0
1  8 0 0.000000000000000 12.699999999999999
0

0101000
+169 3 -168 3 *
Ed
 0.000000100000000 1 1 0
1  9 0 0.000000000000000 41.340053217188775
0

0101000
+169 3 -176 3 *
Ed
 0.000000100000000 1 1 0
1  10 0 0.000000000000000 41.340053217188775
0

0101000
+168 5 -175 5 *
Wi

0101100
+167 0 -174 0 -166 0 +165 4 *
Fa
0  0.000000100000000 4 0

0101000
+164 0 *
Ve
0.000000100000853
-20.000000000000298 14.999999999999201 -6.350000000000000
0 0

0101101
*
Ed
 0.000000100000000 1 1 0
1  11 0 14.999999999999201 55.000000000000000
0

0101000
+162 3 -169 3 *
Ve
0.000000100000853
-20.000000000000298 14.999999999999201 6.350000000000000
0 0

0101101
*
Ed
 0.000000100000000 1 1 0
1  12 0 14.999999999999201 55.000000000000000
0

0101000
+160 5 -168 5 *
Ed
 0.000000100000000 1 1 0
1  13 0 0.000000000000000 12.699999999999999
2  2 6 0 0.000000000000000 12.699999999999999
0

0101000
+162 3 -160 3 *
Wi

0101100
-161 0 -167 0 +159 4 +158 0 *
Fa
0  0.000000100000000 5 0

0101000
+157 0 *
Ve
0.000000100000000
205.000000000000000 89.349999999999994 38.449999999999996
0 0

0101101
*
Ed
 0.000000100000000 1 1 0
1  14 0 0.000000000000000 1.000000000000000
2  3 2 0 0.000000000000000 1.000000000000000
0

0101000
+182 3 -155 3 *
Ve
0.000000100000000
205.000000000000000 89.349999999999994 25.749999999999993
0 0

0101101
*
Ed
 0.000000100000000 1 1 0
1  15 0 0.000000000000000 12.700000000000003
2  4 2 0 0.000000000000000 12.700000000000003
0

0101000
+153 3 -155 3 *
Ed
 0.000000100000000 1 1 0
1  16 0 0.000000000000000 1.000000000000000
2  5 2 0 0.000000000000000 1.000000000000000
0

0101000
+183 3 -153 3 *
Wi

0101100
+181 0 +154 0 -152 0 -151 0 *
Fa
0  0.000000100000000 2 0

0101000
+150 0 *
Ve
0.000000100000000
15.000000000000000 61.000000000000000 -6.350000000000000
0 0

0101101
*
Ve
0.000000100000540
18.633877760534290 16.666691321479291 -6.350000000000000
0 0

0101101
*
Ed
 0.000000100000000 1 1 0
1  17 0 0.000000000000000 44.481988781567594
0

0101000
+148 3 -147 3 *
Ve
0.000000100000540
18.633877760534290 16.666691321479291 6.350000000000000
0 0

0101101
*
Ed
 0.000000100000000 1 1 0
1  18 0 0.000000000000000 12.699999999999999
2  6 6 0 0.000000000000000 12.699999999999999
0

0101000
+147 3 -145 3 *
Ve
0.000000100000000
15.000000000000000 61.000000000000000 6.350000000000000
0 0

0101101
*
Ed
 0.000000100000000 1 1 0
1  19 0 0.000000000000000 44.481988781567594
0

0101000
+143 5 -145 5 *
Ed
 0.000000100000000 1 1 0
1  20 0 0.000000000000000 12.699999999999999
0

0101000
+148 3 -143 3 *
Wi

0101100
-146 0 -144 0 +142 4 +141 0 *
Fa
0  0.000000100000000 7 0

0101000
+140 0 *
Ve
0.000000100000000
50.000000000000000 72.000000000000000 -6.350000000000000
0 0

0101101
*
Ve
0.000000100000000
50.000000000000000 72.000000000000000 6.350000000000000
0 0

0101101
*
Ed
 0.000000100000000 1 1 0
1  21 0 0.000000000000000 12.699999999999999
0

0101000
+138 3 -137 3 *
Ed
 0.000000100000000 1 1 0
1  22 0 0.000000000000000 36.687872655688281
0

0101000
+138 3 -148 3 *
Ed
 0.000000100000000 1 1 0
1  23 0 0.000000000000000 36.687872655688281
0

0101000
+137 5 -143 5 *
Wi

0101100
+136 0 -141 0 -135 0 +134 4 *
Fa
0  0.000000100000000 8 0

0101000
+133 0 *
Ve
0.000000100000002
140.000000000000000 76.650000000000006 -6.349999999999999
0 0

0101101
*
Ve
0.000000100000002
140.000000000000000 76.650000000000006 6.349999999999999
0 0

0101101
*
Ed
 0.000000100000001 1 1 0
1  24 0 0.000000000000000 12.699999999999999
2  7 10 0 0.000000000000000 12.699999999999999
0

0101000
+131 3 -130 3 *
Ed
 0.000000100000000 1 1 0
1  25 0 0.000000000000000 90.120044940068695
0

0101000
+131 3 -138 3 *
Ed
 0.000000100000000 1 1 0
1  26 0 0.000000000000000 90.120044940068695
0

0101000
+130 5 -137 5 *
Wi

0101100
+129 0 -136 0 -128 0 +127 4 *
Fa
0  0.000000100000000 9 0

0101000
+126 0 *
Ve
0.000000100000000
205.000000000000000 76.650000000000006 25.749999999999993
0 0

0101101
*
Ed
 0.000000100000000 1 1 0
1  27 0 0.000000000000000 1.000000000000000
2  8 10 0 0.000000000000000 1.000000000000000
0

0101000
+131 3 -124 3 *
Ve
0.000000100000000
205.000000000000000 76.650000000000006 38.449999999999996
0 0

0101101
*
Ed
 0.000000100000000 1 1 0
1  28 0 0.000000000000000 12.700000000000003
2  9 10 0 0.000000000000000 12.700000000000003
0

0101000
+122 3 -124 3 *
Ed
 0.000000100000000 1 1 0
1  29 0 0.000000000000000 1.000000000000000
2  10 10 0 0.000000000000000 1.000000000000000
0

0101000
+130 3 -122 3 *
Wi

0101100
-129 0 +123 0 -121 0 -120 0 *
Fa
0  0.000000100000000 10 0

0101000
+119 0 *
Ed
 0.000000100000000 1 1 0
1  30 0 0.000000000000000 12.699999999999989
0

0101000
+183 3 -131 3 *
Ed
 0.000000100000000 1 1 0
1  31 0 0.000000000000000 12.699999999999989
0

0101000
+124 3 -153 3 *
Wi

0101100
-117 0 +151 0 -116 0 -123 0 *
Fa
0  0.000000100000000 11 0

0101000
+115 0 *
Ve
0.000000100000000
276.000000000000000 89.349999999999994 25.749999999999993
0 0

0101101
*
Ed
 0.000000100000000 1 1 0
1  32 0 0.000000000000000 1.000000000000000
0

0101000
+153 3 -113 3 *
Ve
0.000000100000000
276.000000000000000 76.650000000000006 25.749999999999993
0 0

0101101
*
Ed
 0.000000100000000 1 1 0
1  33 0 0.000000000000000 12.699999999999989
2  11 13 0 0.000000000000000 12.699999999999989
0

0101000
+111 3 -113 3 *
Ed
 0.000000100000000 1 1 0
1  34 0 0.000000000000000 1.000000000000000
0

0101000
+124 3 -111 3 *
Wi

0101000
+116 0 +112 0 -110 0 -109 0 *
Fa
0  0.000000100000000 12 0

0101000
+108 0 *
Ed
 0.000000100000000 1 1 0
1  35 0 0.000000000000000 12.699999999999989
0

0101000
+182 5 -130 5 *
Ed
 0.000000100000000 1 1 0
1  36 0 0.000000000000000 12.699999999999989
0

0101000
+155 3 -122 3 *
Wi

0101100
+106 4 +120 0 -105 0 -154 0 *
Fa
0  0.000000100000000 14 0

0101000
+104 0 *
Ve
0.000000100000000
276.000000000000000 76.650000000000006 38.449999999999996
0 0

0101101
*
Ed
 0.000000100000000 1 1 0
1  37 0 0.000000000000000 12.700000000000003
0

0101000
+102 3 -111 3 *
Ed
 0.000000100000000 1 1 0
1  38 0 0.000000000000000 1.000000000000000
0

0101000
+122 3 -102 3 *
Wi

0101000
+121 0 +109 0 -101 0 -100 0 *
Fa
0  0.000000100000000 15 0

0101000
+99 0 *
Ve
0.000000100000000
276.000000000000000 89.349999999999994 38.449999999999996
0 0

0101101
*
Ed
 0.000000100000000 1 1 0
1  39 0 0.000000000000000 1.000000000000000
0

0101000
+155 3 -97 3 *
Ed
 0.000000100000000 1 1 0
1  40 0 0.000000000000000 12.700000000000003
0

0101000
+113 3 -97 3 *
Wi

0101000
+152 0 +96 0 -95 0 -112 0 *
Fa
0  0.000000100000000 16 0

0101000
+94 0 *
Ve
0.000000100000000
305.000000000000000 52.350000000000001 25.749999999999993
0 0

0101101
*
Ed
 0.000000100000000 1 1 0
1  41 0 0.000000000000000 1.000000000000000
2  12 13 0 0.000000000000000 1.000000000000000
0

0101000
+113 3 -92 3 *
Ve
0.000000100000000
305.000000000000000 39.649999999999999 25.749999999999993
0 0

0101101
*
Ed
 0.000000100000000 1 1 0
1  42 0 0.000000000000000 12.700000000000003
2  13 13 0 0.000000000000000 12.700000000000003
0

0101000
+90 3 -92 3 *
Ed
 0.000000100000000 1 1 0
1  43 0 0.000000000000000 1.000000000000000
2  14 13 0 0.000000000000000 1.000000000000000
0

0101000
+111 3 -90 3 *
Wi

0101000
+110 0 +91 0 -89 0 -88 0 *
Fa
0  0.000000100000000 13 0

0101000
+87 0 *
Ed
 0.000000100000000 1 1 0
1  44 0 0.000000000000000 12.699999999999989
2  15 18 0 0.000000000000000 12.699999999999989
0

0101000
+97 3 -102 3 *
Wi

0101000
+105 0 +100 0 -85 0 -96 0 *
Fa
0  0.000000100000000 17 0

0101000
+84 0 *
Ve
0.000000100000000
305.000000000000000 39.649999999999999 38.449999999999996
0 0

0101101
*
Ed
 0.000000100000000 1 1 0
1  45 0 0.000000000000000 12.700000000000003
0

0101000
+82 3 -90 3 *
Ed
 0.000000100000000 1 1 0
1  46 0 0.000000000000000 1.000000000000000
2  16 18 0 0.000000000000000 1.000000000000000
0

0101000
+102 3 -82 3 *
Wi

0101000
+101 0 +88 0 -81 0 -80 0 *
Fa
0  0.000000100000000 19 0

0101000
+79 0 *
Ve
0.000000100000000
305.000000000000000 52.350000000000001 38.449999999999996
0 0

0101101
*
Ed
 0.000000100000000 1 1 0
1  47 0 0.000000000000000 1.000000000000000
2  17 18 0 0.000000000000000 1.000000000000000
0

0101000
+97 3 -77 3 *
Ed
 0.000000100000000 1 1 0
1  48 0 0.000000000000000 12.700000000000003
0

0101000
+92 3 -77 3 *
Wi

0101000
+95 0 +76 0 -75 0 -91 0 *
Fa
0  0.000000100000000 20 0

0101000
+74 0 *
Ve
0.000000150000000
794.799999999999955 39.649999999999999 25.749999999999993
0 0

0101101
*
Ed
 0.000000100000000 1 1 0
1  49 0 0.000000000000000 0.960392156862745
0

0101000
+90 3 -72 3 *
Ve
0.000000150000000
794.799999999999955 52.350000000000001 25.749999999999993
0 0

0101101
*
Ed
 0.000000150000000 1 1 0
1  50 0 -9.524999999999999 3.175000000000004
0

0101000
+70 3 -72 3 *
Ed
 0.000000100000000 1 1 0
1  51 0 0.000000000000000 0.960392156862745
0

0101000
+92 3 -70 3 *
Wi

0101100
-71 0 +69 0 +68 0 +89 0 *
Fa
0  0.000000100000000 21 0

0101000
+67 0 *
Ed
 0.000000100000000 1 1 0
1  52 0 0.000000000000000 12.700000000000003
2  18 18 0 0.000000000000000 12.700000000000003
0

0101000
+77 3 -82 3 *
Wi

0101000
+85 0 +80 0 -65 0 -76 0 *
Fa
0  0.000000100000000 18 0

0101000
+64 0 *
Ve
0.000000150000000
794.799999999999955 39.649999999999999 38.449999999999996
0 0

0101101
*
Ed
 0.000000100000000 1 1 0
1  53 0 0.000000000000000 0.960392156862745
0

0101000
+82 3 -62 3 *
Ed
 0.000000150000000 1 1 0
1  54 0 -9.524999999999999 3.175000000000004
0

0101000
+72 3 -62 3 *
Wi

0101100
-61 0 +60 0 +71 0 +81 0 *
Fa
0  0.000000100000000 22 0

0101000
+59 0 *
Ve
0.000000150000000
794.799999999999955 52.350000000000001 38.449999999999996
0 0

0101101
*
Ed
 0.000000150000000 1 1 0
1  55 0 -9.525000000000002 3.175000000000001
0

0101000
+57 3 -70 3 *
Ed
 0.000000100000000 1 1 0
1  56 0 0.000000000000000 0.960392156862745
0

0101000
+77 3 -57 3 *
Wi

0101100
-68 0 +56 0 +55 0 +75 0 *
Fa
0  0.000000100000000 23 0

0101000
+54 0 *
Ve
0.000000100000000
794.799999999999955 46.000000000000000 42.599999999999994
0 0

0101101
*
Ed
 0.000000100000000 1 1 0
1  57 0 0.000000000000000 6.283185307179586
2  19 25 0 0.000000000000000 6.283185307179586
0

0101000
+52 3 -52 3 *
Wi

0101100
+51 0 *
Ed
 0.000000150000000 1 1 0
1  58 0 -9.524999999999999 3.175000000000004
0

0101000
+62 3 -57 3 *
Wi

0101100
+56 0 +49 0 +60 0 +69 0 *
Fa
0  0.000000100000000 24 0

0101000
+50 0 +48 0 *
Wi

0101100
-55 0 +49 0 +61 0 +65 0 *
Fa
0  0.000000100000000 26 0

0101000
+46 0 *
Ve
0.000000100000117
904.299999999999841 46.000000000000000 42.599999999999994
0 0

0101101
*
Ed
 0.000000100000000 1 1 0
1  59 0 0.000000000000000 109.500000000000000
3  20 21CN 25 0 0.000000000000000 109.500000000000000
0

0101000
+52 3 -44 3 *
Ve
0.000000100000004
904.299999999999955 46.000000000000000 21.599999999999994
0 0

0101101
*
Ed
 0.000000100000004 1 1 0
1  60 0 0.000000000000000 3.141592653589793
2  22 25 0 0.000000000000000 3.141592653589793
2  23 27 0 0.000000000000000 3.141592653589793
0

0101000
+44 3 -42 3 *
Ed
 0.000000100000004 1 1 0
1  61 0 3.141592653589793 6.283185307179586
2  24 25 0 3.141592653589793 6.283185307179586
2  25 28 0 3.141592653589793 6.283185307179586
0

0101000
+42 3 -44 3 *
Wi

0101100
+43 0 +51 0 -43 0 -41 0 -40 0 *
Fa
0  0.000000100000000 25 0

0101000
+39 0 *
Ed
 0.000000100000000 1 1 0
1  62 0 4.712388980384690 7.853981633974483
2  26 27 0 4.712388980384690 7.853981633974483
2  27 28 0 4.712388980384690 7.853981633974483
4 CN 27 0 28 0
0

0101000
+42 3 -44 3 *
Ed
 0.000000100000000 1 1 1
2  28 29 0 4.712388980384690 6.283185307179586
2  28 27 0 4.712388980384690 6.283185307179586
0

0101000
+42 3 -42 3 *
Ed
 0.000000100000000 1 1 1
2  29 29 0 4.712388980384690 6.283185307179586
2  29 27 0 4.712388980384690 6.283185307179586
0

0101000
+44 3 -44 3 *
Wi

0101100
+37 0 +36 0 +41 0 -35 0 *
Fa
0  0.000000100000000 27 0

0101000
+34 0 *
Ed
 0.000000100000000 1 1 1
2  30 30 0 0.000000000000000 1.570796326794897
2  30 28 0 0.000000000000000 1.570796326794897
0

0101000
+42 3 -42 3 *
Ed
 0.000000100000000 1 1 1
2  31 30 0 0.000000000000000 1.570796326794897
2  31 28 0 0.000000000000000 1.570796326794897
0

0101000
+44 3 -44 3 *
Wi

0101100
+40 0 +32 0 -37 0 -31 0 *
Fa
0  0.000000100000000 28 0

0101000
+30 0 *
Ve
0.000000100000000
25.000000000000000 -0.000000000000006 -6.350000000000000
0 0

0101101
*
Ed
 0.000000100000000 1 1 0
1  63 0 0.000000000000000 0.729728979343832
2  32 6 0 0.000000000000000 0.729728979343832
0

0101000
+28 3 -147 3 *
Ed
 0.000000100000000 1 1 0
1  64 0 2.498091544796542 6.283185307179586
2  33 6 0 2.498091544796542 6.283185307179586
0

0101000
+162 3 -28 3 *
Wi

0101100
-27 0 -26 0 +161 0 +166 0 +173 0 +180 0 +117 0 +128 0 +135 0 +146 0 
*
Ve
0.000000100000003
11.212500000000000 -0.000000000000001 -6.349999999999997
0 0

0101101
*
Ve
0.000000100000006
-11.212499999999999 0.000000000000000 -6.350000000000000
0 0

0101101
*
Ed
 0.000000100000000 1 1 0
1  65 0 0.000000000000000 3.141592653589793
2  34 32 0 0.000000000000000 3.141592653589793
0

0101000
+24 3 -23 3 *
Ed
 0.000000100000000 1 1 0
1  66 0 3.141592653589793 6.283185307179586
2  35 32 0 3.141592653589793 6.283185307179586
0

0101000
+23 3 -24 3 *
Wi

0101100
+22 0 +21 0 *
Fa
0  0.000000100000000 31 0

0111000
+25 0 +20 0 *
Ve
0.000000100000003
11.212500000000000 -0.000000000000001 6.349999999999997
0 0

0101101
*
Ve
0.000000100000006
-11.212499999999999 0.000000000000000 6.350000000000000
0 0

0101101
*
Ed
 0.000000100000000 1 1 0
1  67 0 0.000000000000000 3.141592653589793
2  36 32 0 0.000000000000000 3.141592653589793
0

0101000
+18 3 -17 3 *
Ed
 0.000000100000000 1 1 0
1  68 0 3.141592653589793 6.283185307179586
2  37 32 0 3.141592653589793 6.283185307179586
0

0101000
+17 3 -18 3 *
Ed
 0.000000100000000 1 1 0
1  69 0 93.650000000000006 106.349999999999994
3  38 39CN 32 0 93.650000000000006 106.349999999999994
0

0101000
+24 3 -18 3 *
Wi

0101100
-16 0 -15 0 +14 0 +21 0 +22 0 -14 0 *
Fa
0  0.000000100000000 32 0

0101000
+13 0 *
Ve
0.000000100000000
25.000000000000000 -0.000000000000006 6.350000000000000
0 0

0101101
*
Ed
 0.000000100000000 1 1 0
1  70 0 0.000000000000000 0.729728979343832
2  40 6 0 0.000000000000000 0.729728979343832
0

0101000
+11 3 -145 3 *
Ed
 0.000000100000000 1 1 0
1  71 0 2.498091544796542 6.283185307179586
2  41 6 0 2.498091544796542 6.283185307179586
0

0101000
+160 3 -11 3 *
Wi

0101100
+10 0 -142 4 -134 4 -127 4 -106 4 -179 4 -172 4 -165 4 -159 4 +9 0 
*
Wi

0101100
-16 0 -15 0 *
Fa
0  0.000000100000000 33 0

0111000
+8 0 +7 0 *
Wi

0101100
-9 0 -158 0 +26 0 +27 0 +144 0 -10 0 *
Fa
0  0.000000100000000 6 0

0111000
+5 0 *
Sh

0101000
+177 0 +170 0 +163 0 +156 0 +149 0 +139 0 +132 0 +125 0 +118 0 +114 0 
+107 0 +103 0 +98 0 +93 0 +86 0 +83 0 +78 0 +73 0 +66 0 +63 0 
+58 0 +53 0 -47 0 +45 0 +38 0 +33 0 +29 0 +19 0 -12 0 +6 0 
+4 0 *
So

0100000
+3 0 *
Co

1100000
+2 0 *

+1 1 