
CASCADE Topology V1, (c) Matra-Datavision
Locations 3
1
1.000000000000000 0.000000000000000 0.000000000000000 0.000000000000000 
0.000000000000000 1.000000000000000 0.000000000000000 0.000000000000000 
0.000000000000000 0.000000000000000 1.000000000000000 0.000000000000000 
1
1.000000000000000 0.000000000000000 0.000000000000000 0.000000000000000 
0.000000000000000 1.000000000000000 0.000000000000000 0.000000000000000 
0.000000000000000 0.000000000000000 1.000000000000000 0.000000000000000 
2  2 -1 0
Curve2ds 24
1 0.00000000000000000 539.75000000000000000 1.00000000000000000 0.00000000000000000 
1 6.28318530717958623 -0.00000000000000000 0.00000000000000000 1.00000000000000000 
1 0.00000000000000000 -0.00000000000000000 0.00000000000000000 1.00000000000000000 
1 0.00000000000000000 0.00000000000000000 1.00000000000000000 0.00000000000000000 
1 0.00000000000000000 0.00000000000000000 1.00000000000000000 0.00000000000000000 
1 0.00000000000000000 0.00000000000000000 1.00000000000000000 0.00000000000000000 
1 6.28318530717958623 -0.00000000000000000 0.00000000000000000 1.00000000000000000 
1 0.00000000000000000 -0.00000000000000000 0.00000000000000000 1.00000000000000000 
1 0.00000000000000000 44.45000000000000284 1.00000000000000000 0.00000000000000000 
7 0 0  8 51 8  4.89192333176088834 35.55000000000001137  4.89192333176088834 35.28891911792673142  4.88966121408963428 35.02828684799698777  4.88515072475026013 34.77012203494263076  4.87835025766633290 34.51662588579635127  4.86918236184026743 34.27064742782914664  4.85754600168814221 34.03598781431448828  4.84333322966018187 33.81784707311165050  4.81215293880217398 33.45906999653124814  4.79533878866392005 33.30487161724015976  4.77628406102800618 33.17502370652970711  4.75546444587012118 33.07984482584063812  4.73351563722583002 33.02614752340668502  4.71114076541013027 33.01723349312369749  4.68906626770592272 33.05276820215657096  4.64614286013321376 33.20690799412836469  4.62615588584957038 33.32546028684676997  4.60820505061357899 33.47553870359018902  4.59237529393685673 33.65006398208731042  4.57868855432333444 33.84304911531711468  4.56712315724141860 34.04939055679241733  4.55762072193319323 34.26477680305480789  4.54145360674776022 34.73945278449063068  4.53530502242825673 35.00410565607911195  4.53162619910346987 35.27544619943180493  4.53040154534484785 35.55000000000336513  4.53162619910369724 35.82455380056969574  4.53530502242807998 36.09589434391545382  4.54145360674775755 36.36054721550925706  4.55715731985718531 36.82161744027771988  4.56594375817081843 37.02358300599095742  4.57652259166767639 37.21762273857591907  4.58894530656605326 37.40043616575469088  4.60324430251229888 37.56807163551586370  4.61942353266052841 37.71581509049167380  4.63744144871735298 37.83799291907889994  4.67581236718882831 38.01227151200085075  4.69570602922071956 38.06667471676583148  4.71630322271742219 38.08474736028902186  4.73696819404988823 38.06397695324268682  4.75705224215482492 38.00527548391377763  4.77593994139338385 37.91287697349904562  4.79311734495266961 37.79437692441844376  4.82984754515689563 37.46953849683659143  4.84810071719920987 37.23956632547975687  4.86300778760646324 36.98377714998976984  4.87470346860318315 36.71094151833915475  4.88334019671619313 36.42733692109251820  4.88905339867167132 36.13736587013190160  4.89192333176088834 35.84407275592545972  4.89192333176088834 35.55000000000001137 
 0.00000000000000000 9 0.15511228965209262 7 0.28666709013724184 7 0.42272199314985104 7 0.57919117106998796 7 0.70686138300854884 7 0.82738513692733928 7 1.00000000000000000 9
7 0 0  8 51 8  0.00000000000000000 1.22502268604408826  0.10443235282930940 1.22502268604408826  0.20868482623386272 1.21936770121377558  0.31368788129949310 1.20809030461944444  0.42026591900514831 1.19148550577423884  0.52923351214659842 1.17013267188008863  0.64143626490141936 1.14504914280445758  0.75782424619222832 1.11787516042554014  0.98296611869806272 1.06818749692495119  1.09447663802656203 1.04464775549067235  1.21122826225330327 1.02279406285229046  1.33138992609463358 1.00554437232113392  1.45367344662580145 0.99556694320437933  1.57697361211234188 0.99408554420674189  1.70024681696722268 1.00069297878173513  1.94816971198967481 1.02737952224670526  2.06813652145490101 1.04741863724822459  2.18307325455898216 1.07154974189281216  2.29366861929678123 1.09735162261419683  2.40044637600235822 1.12279249110828627  2.50383232534660660 1.14634556122002129  2.60417093437921654 1.16694732167169946  2.81401257434440044 1.20351842962198141  2.92423344387072603 1.21860767330691711  3.03321627475365396 1.22809473036843908  3.14159265359116624 1.23132801991016794  3.24996903242653268 1.22809473036790462  3.35895186330661266 1.21860767330733499  3.46917273283513294 1.20351842962199052  3.67299962926217960 1.16799556850805097  3.76679333774278868 1.14890646659079909  3.86314871847873187 1.12722350851431741  3.96241492981319166 1.10378362020432585  4.06500462672162577 1.07976177885651570  4.17139899580176454 1.05672340802674447  4.28218642512143877 1.03657967117391303  4.50777737460882566 1.00693650643025978  4.62040945486728916 0.99711435550672345  4.73438501673657619 0.99361650554043024  4.84842743808017929 0.99744992264588517  4.96133538535056218 1.00834448690771428  5.07181139590579910 1.02462676835518307  5.17817395448418782 1.04400488987378970  5.42066905224769791 1.09320745350970827  5.55562710016334194 1.12510944523217837  5.68462058078237753 1.15588756794589087  5.80893810956882106 1.18260526584060965  5.92977256361557004 1.20356602299195847  6.04823849586870210 1.21784761534361641  6.16555620480940814 1.22502268604408826  6.28318530717958623 1.22502268604408826 
 0.00000000000000000 9 0.15511228965209262 7 0.28666709013724184 7 0.42272199314985104 7 0.57919117106998796 7 0.70686138300854884 7 0.82738513692733928 7 1.00000000000000000 9
7 0 0  8 51 8  1.39126197541869745 35.55000000000001137  1.39126197541869745 35.28891911792550928  1.39352409308989733 35.02828684800053338  1.39803458242945200 34.77012203493901410  1.40483504951319715 34.51662588579616653  1.41400294533919846 34.27064742783279172  1.42563930549162321 34.03598781431139031  1.43985207751932043 33.81784707311261684  1.47103236837742157 33.45906999653114156  1.48784651851563288 33.30487161724057898  1.50690124615163068 33.17502370652903920  1.52772086130941953 33.07984482584118524  1.54966966995379174 33.02614752340647897  1.57204454176943020 33.01723349312368327  1.59411903947367395 33.05276820215660649  1.63704244704636692 33.20690799412834338  1.65702942133002518 33.32546028684680550  1.67498025656600258 33.47553870359018902  1.69081001324272417 33.65006398208727489  1.70449675285625690 33.84304911531712889  1.71606214993816897 34.04939055679248128  1.72556458524639256 34.26477680305475815  1.74173170043211423 34.73945278449910035  1.74788028475156909 35.00410565609195856  1.75155910807596094 35.27544619943750348  1.75278376183461249 35.54999999999938609  1.75155910807596404 35.82455380056168792  1.74788028475158530 36.09589434390794338  1.74173170043211578 36.36054721550087265  1.72602798732240381 36.82161744027765593  1.71724154900876602 37.02358300599114926  1.70666271551191340 37.21762273857572723  1.69424000061352542 37.40043616575469798  1.67994100466728402 37.56807163551607687  1.66376177451907203 37.71581509049151038  1.64574385846222326 37.83799291907894968  1.60737293999076303 38.01227151200083654  1.58747927795883403 38.06667471676562542  1.56688208446223221 38.08474736029000240  1.54621711312958365 38.06397695324078967  1.52613306502490742 38.00527548391579558  1.50724536578608848 37.91287697349781638  1.49006796222695836 37.79437692441880614  1.45333776202269305 37.46953849683660565  1.43508458998033239 37.23956632547903922  1.42017751957316896 36.98377714999111987  1.40848183857637110 36.71094151833707286  1.39984511046340998 36.42733692109451482  1.39413190850791335 36.13736587013102053  1.39126197541869767 35.84407275592578657  1.39126197541869767 35.55000000000001137 
 0.00000000000000000 9 0.15511228965191215 7 0.28666709013632419 7 0.42272199314820569 7 0.57919117107265916 7 0.70686138301053081 7 0.82738513692870053 7 1.00000000000000000 9
7 0 0  8 51 8  0.00000000000000000 28.77497731395590819  0.10443235282980219 28.77497731395590819  0.20868482623232018 28.78063229878611295  0.31368788130123459 28.79190969538079159  0.42026591900507781 28.80851449422566546  0.52923351214485836 28.82986732811968267  0.64143626490310790 28.85495085719585617  0.75782424619161937 28.88212483957432397  0.98296611869813000 28.93181250307506147  1.09447663802623141 28.95535224450927814  1.21122826225393654 28.97720593714777593  1.33138992609397722 28.99445562767882123  1.45367344662623665 29.00443305679563721  1.57697361211214004 29.00591445579325978  1.70024681696728086 28.99930702121826087  1.94816971198964306 28.97262047775329563  2.06813652145497606 28.95258136275175431  2.18307325455892753 28.92845025810720472  2.29366861929674792 28.90264837738580539  2.40044637600241906 28.87720750889169352  2.50383232534661104 28.85365443877998715  2.60417093437919345 28.83305267832830410  2.81401257434813923 28.79648157037736667  2.92423344387581308 28.78139232669244407  3.03321627475588418 28.77190526963195083  3.14159265358954976 28.76867198009018622  3.24996903242336588 28.77190526963189754  3.35895186330370299 28.78139232669242986  3.46917273283142302 28.79648157037736311  3.67299962926215517 28.83200443149194214  3.76679333774300229 28.85109353340923022  3.86314871847842900 28.87277649148564862  3.96241492981321253 28.89621637979568192  4.06500462672192775 28.92023822114351361  4.17139899580150786 28.94327659197322333  4.28218642512149916 28.96342032882610340  4.50777737460879901 28.99306349356973911  4.62040945486719146 29.00288564449328987  4.73438501673693857 29.00638349445956976  4.84842743807998566 29.00255007735404789  4.96133538535014296 28.99165551309242517  5.07181139590641461 28.97537323164468859  5.17817395448391693 28.95599511012626692  5.42066905224768458 28.90679254649029417  5.55562710016417949 28.87489055476774169  5.68462058078027610 28.84411243205421371  5.80893810957181245 28.81739473415928998  5.92977256361319149 28.79643397700811391  6.04823849586957607 28.78215238465636716  6.16555620480927580 28.77497731395591174  6.28318530717958623 28.77497731395591174 
 0.00000000000000000 9 0.15511228965191215 7 0.28666709013632419 7 0.42272199314820569 7 0.57919117107265916 7 0.70686138301053081 7 0.82738513692870053 7 1.00000000000000000 9
1 6.28318530717958623 -0.00000000000000000 0.00000000000000000 1.00000000000000000 
1 0.00000000000000000 -0.00000000000000000 0.00000000000000000 1.00000000000000000 
1 0.00000000000000000 44.45000000000000284 1.00000000000000000 0.00000000000000000 
7 0 0  8 51 8  1.75033067817109567 35.55000000000001137  1.75033067817109567 35.81108088207430740  1.74806856049988868 36.07171315199988015  1.74355807116035222 36.32987796506083811  1.73675760407659396 36.58337411420375673  1.72758970825058467 36.82935257216742997  1.71595334809818190 37.06401218568849032  1.70174057607046669 37.28215292688747695  1.67056028521236732 37.64093000346893092  1.65374613507417756 37.79512838275934428  1.63469140743811359 37.92497629347121801  1.61387179228044908 38.02015517415843959  1.59192298363594098 38.07385247659388483  1.56954811182038689 38.08276650687623288  1.54747361411611406 38.04723179784339493  1.50455020654343685 37.89309200587171489  1.48456323225975262 37.77453971315312486  1.46661239702379342 37.62446129640989056  1.45078264034707516 37.44993601791276205  1.43709590073353310 37.25695088468285121  1.42553050365162548 37.05060944320762673  1.41602806834339878 36.83522319694521485  1.39986095315785120 36.36054721550597435  1.39371236883828864 36.09589434391304508  1.39003354551385216 35.82455380056768490  1.38880889175511335 35.55000000000202931  1.39003354551375069 35.27544619943405024  1.39371236883831418 35.00410565608472524  1.39986095315792536 34.73945278449187413  1.41556466626739019 34.27838255972234549  1.42435110458102865 34.07641699400899427  1.43492993807788372 33.88237726142406103  1.44735265297625948 33.69956383424537449  1.46165164892250399 33.53192836448420167  1.47783087907073374 33.38418490950834183  1.49584879512756452 33.26200708092110858  1.53421971359905918 33.08772848799905830  1.55411337563088225 33.03332528323511497  1.57471056912766194 33.01525263970839319  1.59537554046011509 33.03602304676111601  1.61545958856495719 33.09472451608315424  1.63434728780366645 33.18712302650236268  1.65152469136284497 33.30562307558130897  1.68825489156710606 33.63046150316346683  1.70650806360947316 33.86043367452111852  1.72141513401654223 34.11622285000828469  1.73311081501352882 34.38905848166311330  1.74174754312631985 34.67266307890609767  1.74746074508189952 34.96263412986857588  1.75033067817109544 35.25592724407446354  1.75033067817109544 35.55000000000001137 
 0.00000000000000000 9 0.15511228965154147 7 0.28666709013575531 7 0.42272199314741854 7 0.57919117106859752 7 0.70686138300753876 7 0.82738513692687554 7 1.00000000000000000 9
7 0 0  8 51 8  0.00000000000000000 28.77497731395590819  0.10443235282971872 28.77497731395590819  0.20868482623246670 28.78063229878613072  0.31368788130117142 28.79190969538077738  0.42026591900504229 28.80851449422567612  0.52923351214492353 28.82986732811968977  0.64143626490304295 28.85495085719582420  0.75782424619166322 28.88212483957433463  0.98296611869816053 28.93181250307507213  1.09447663802617812 28.95535224450923195  1.21122826225406310 28.97720593714786830  1.33138992609372764 28.99445562767872531  1.45367344662647913 29.00443305679568695  1.57697361211202525 29.00591445579325267  1.70024681696731017 28.99930702121825732  1.94816971198958133 28.97262047775330984  2.06813652145505955 28.95258136275175787  2.18307325455892576 28.92845025810718695  2.29366861929671106 28.90264837738581605  2.40044637600241639 28.87720750889171484  2.50383232534660038 28.85365443877997293  2.60417093437921832 28.83305267832830054  2.81401257434590679 28.79648157037776102  2.92423344387393902 28.78139232669264302  3.03321627475373745 28.77190526963198280  3.14159265358900086 28.76867198008999438  3.24996903242514756 28.77190526963171990  3.35895186330649720 28.78139232669271763  3.46917273283463867 28.79648157037792089  3.67299962926216450 28.83200443149194214  3.76679333774293923 28.85109353340919469  3.86314871847857821 28.87277649148570191  3.96241492981315702 28.89621637979567126  4.06500462672176255 28.92023822114346743  4.17139899580167217 28.94327659197325531  4.28218642512146985 28.96342032882608919  4.50777737460896955 28.99306349356976042  4.62040945486689303 29.00288564449320106  4.73438501673712242 29.00638349445975095  4.84842743807989507 29.00255007735384183  4.96133538535030993 28.99165551309253885  5.07181139590624142 28.97537323164467438  5.17817395448398443 28.95599511012625271  5.42066905224772366 28.90679254649028707  5.55562710016395922 28.87489055476772748  5.68462058078091559 28.84411243205431319  5.80893810957041801 28.81739473415919051  5.92977256361467653 28.79643397700813878  6.04823849586894369 28.78215238465636361  6.16555620480936639 28.77497731395591174  6.28318530717958623 28.77497731395591174 
 0.00000000000000000 9 0.15511228965154147 7 0.28666709013575531 7 0.42272199314741854 7 0.57919117106859752 7 0.70686138300753876 7 0.82738513692687554 7 1.00000000000000000 9
7 0 0  8 51 8  4.53285462900849101 35.55000000000001137  4.53285462900849101 35.81108088207366791  4.53511674667974862 36.07171315200216810  4.53962723601911833 36.32987796505798173  4.54642770310304467 36.58337411420395568  4.55559559892911636 36.82935257217031477  4.56723195908123802 37.06401218568581868  4.58144473110919215 37.28215292688830829  4.61262502196719026 37.64093000346859696  4.62943917210550904 37.79512838276074405  4.64849389974127547 37.92497629346838295  4.66931351489938073 38.02015517416169388  4.69126232354346051 38.07385247659182426  4.71363719535927661 38.08276650687677289  4.73571169306345663 38.04723179784345177  4.77863510063616914 37.89309200587163673  4.79862207491980008 37.77453971315316039  4.81657291015580302 37.62446129641000425  4.83240266683252262 37.44993601791270521  4.84608940644604136 37.25695088468272331  4.85765480352796608 37.05060944320769778  4.86715723883618523 36.83522319694522906  4.88332435402165821 36.36054721550820545  4.88947293834130203 36.09589434391472906  4.89315176166573362 35.82455380056810412  4.89437641542448709 35.55000000000141824  4.89315176166584997 35.27544619943281390  4.88947293834123276 35.00410565608343916  4.88332435402164311 34.73945278449139096  4.86762064091218782 34.27838255972213943  4.85883420259858667 34.07641699400942059  4.84825536910167454 33.88237726142387629  4.83583265420332520 33.69956383424523239  4.82153365825710623 33.53192836448437220  4.80535442810881985 33.38418490950817841  4.78733651205204147 33.26200708092119385  4.74896559358051640 33.08772848799900856  4.72907193154878147 33.03332528323523576  4.70847473805174221 33.01525263970845714  4.68780976671969807 33.03602304676056889  4.66772571861445318 33.09472451608399268  4.64883801937600971 33.18712302650175161  4.63166061581671684 33.30562307558152213  4.59493041561249083 33.63046150316337446  4.57667724357016326 33.86043367452040798  4.56177017316290279 34.11622285000998289  4.55007449216624060 34.38905848166123747  4.54143776405314448 34.67266307890663057  4.53572456209771868 34.96263412986927221  4.53285462900849101 35.25592724407419354  4.53285462900849101 35.55000000000001137 
 0.00000000000000000 9 0.15511228965186369 7 0.28666709013663516 7 0.42272199314890363 7 0.57919117106940987 7 0.70686138300808643 7 0.82738513692712157 7 1.00000000000000000 9
7 0 0  8 51 8  0.00000000000000000 1.22502268604408826  0.10443235282946003 1.22502268604408826  0.20868482623350504 1.21936770121379157  0.31368788129974479 1.20809030461942490  0.42026591900525478 1.19148550577423684  0.52923351214635639 1.17013267188010373  0.64143626490156080 1.14504914280444159  0.75782424619218425 1.11787516042555191  0.98296611869795114 1.06818749692497739  1.09447663802700346 1.04464775549060218  1.21122826225238001 1.02279406285238617  1.33138992609580242 1.00554437232105265  1.45367344662495146 0.99556694320442030  1.57697361211261944 0.99408554420673301  1.70024681696722069 1.00069297878173513  1.94816971198970235 1.02737952224670837  2.06813652145485127 1.04741863724822482  2.18307325455898660 1.07154974189280283  2.29366861929680876 1.09735162261419639  2.40044637600235911 1.12279249110829360  2.50383232534660616 1.14634556122001863  2.60417093437921299 1.16694732167169901  2.81401257434492447 1.20351842962207289  2.92423344387334083 1.21860767330732411  3.03321627475352074 1.22809473036805827  3.14159265358923090 1.23132801991005736  3.24996903242570534 1.22809473036826255  3.35895186330698747 1.21860767330719821  3.46917273283485406 1.20351842962203870  3.67299962926225643 1.16799556850803787  3.76679333774249425 1.14890646659083195  3.86314871847908492 1.12722350851429298  3.96241492981318988 1.10378362020431786  4.06500462672127760 1.07976177885653524  4.17139899580206919 1.05672340802672204  4.28218642512134817 1.03657967117392524  4.50777737460903261 1.00693650643023269  4.62040945486645782 0.99711435550681760  4.73438501673814827 0.99361650554026737  4.84842743807854504 0.99744992264605414  4.96133538535143970 1.00834448690760259  5.07181139590564989 1.02462676835522926  5.17817395448414164 1.04400488987378037  5.42066905224765083 1.09320745350969895  5.55562710016269090 1.12510944523220391  5.68462058078477561 1.15588756794585779  5.80893810956519374 1.18260526584060943  5.92977256361806049 1.20356602299197046  6.04823849586824913 1.21784761534362396  6.16555620480925892 1.22502268604408826  6.28318530717958623 1.22502268604408826 
 0.00000000000000000 9 0.15511228965186369 7 0.28666709013663516 7 0.42272199314890363 7 0.57919117106940987 7 0.70686138300808643 7 0.82738513692712157 7 1.00000000000000000 9
1 6.28318530717958623 -0.00000000000000000 0.00000000000000000 1.00000000000000000 
1 0.00000000000000000 -0.00000000000000000 0.00000000000000000 1.00000000000000000 
1 6.28318530717958623 -0.00000000000000000 0.00000000000000000 1.00000000000000000 
1 0.00000000000000000 -0.00000000000000000 0.00000000000000000 1.00000000000000000 
Curves 15
2 0.00000000000000000 269.87500000000000000 0.00000000000000000 0.00000000000000000 1.00000000000000000 0.00000000000000000 0.00000000000000000 0.00000000000000000 1.00000000000000000 1.00000000000000000 0.00000000000000000 0.00000000000000000 19.01190000000000069
1 -0.00000000000000466 -269.87500000000000000 19.01190000000000069 0.00000000000000000 1.00000000000000000 0.00000000000000000 
2 0.00000000000000000 -269.87500000000000000 0.00000000000000000 0.00000000000000000 1.00000000000000000 0.00000000000000000 0.00000000000000000 0.00000000000000000 1.00000000000000000 1.00000000000000000 0.00000000000000000 0.00000000000000000 19.01190000000000069
2 0.00000000000000000 269.87500000000000000 0.00000000000000000 0.00000000000000000 1.00000000000000000 0.00000000000000000 0.00000000000000000 0.00000000000000000 1.00000000000000000 1.00000000000000000 0.00000000000000000 0.00000000000000000 14.00000000000000000
2 0.00000000000000000 -269.87500000000000000 0.00000000000000000 0.00000000000000000 -1.00000000000000000 0.00000000000000000 0.00000000000000000 0.00000000000000000 -1.00000000000000000 1.00000000000000000 0.00000000000000000 0.00000000000000000 14.00000000000000000
1 -0.00000000000000343 269.87500000000000000 14.00000000000000000 0.00000000000000000 1.00000000000000000 0.00000000000000000 
2 0.00000000000000000 314.32499999999998863 0.00000000000000000 0.00000000000000000 1.00000000000000000 0.00000000000000000 0.00000000000000000 0.00000000000000000 1.00000000000000000 1.00000000000000000 0.00000000000000000 0.00000000000000000 14.00000000000000000
7 0 0  8 51 8  -13.77497731395591352 305.42500000000001137 2.49999999999999689  -13.77497731395591352 305.16391911792675273 2.49999999999999689  -13.78063229878622309 304.90328684799703751 2.46883932606194545  -13.79190969538055711 304.64512203494268761 2.40670767679902653  -13.80851449422575783 304.39162588579625890 2.31295928023056341  -13.82986732811991182 304.14564742782908979 2.18638790456617604  -13.85495085719554176 303.91098781431463749 2.02539022300767257  -13.88212483957445720 303.69284707311163629 1.82822305100114146  -13.93181250307504904 303.33406999653124103 1.39453606532843200  -13.95535224450932787 303.17987161724016687 1.16029487924217678  -13.97720593714771020 303.05002370652960053 0.89435090661828909  -13.99445562767886564 302.95484482584072339 0.60322537635497753  -14.00443305679562123 302.90114752340650739 0.29587151712078885  -14.00591445579325800 302.89223349312379696 -0.01755028504681810  -13.99930702121826442 302.92776820215652833 -0.32660488168554558  -13.97262047775329208 303.08190799412830074 -0.92693973512806738  -13.95258136275177385 303.20046028684691919 -1.20614320357903759  -13.92845025810718695 303.35053870359013217 -1.45640715539673704  -13.90264837738580361 303.52506398208726068 -1.67658933572995195  -13.87720750889171484 303.71804911531717153 -1.86653959001477610  -13.85365443877997826 303.92439055679233206 -2.02674680749527614  -13.83305267832830054 304.13977680305481499 -2.15817881702316727  -13.79648157037801681 304.61445278449065199 -2.38154437903624139  -13.78139232669308178 304.87910565607899116 -2.46630013178739560  -13.77190526963156003 305.15044619943176940 -2.51692229255287980  -13.76867198008983451 305.42500000000336513 -2.53375805982620239  -13.77190526963209471 305.69955380056978811 -2.51692229254973743  -13.78139232669266612 305.97089434391540408 -2.46630013178984031  -13.79648157037800971 306.23554721550925706 -2.38154437903629557  -13.83200443149195102 306.69661744027769146 -2.16458120012975641  -13.85109353340920357 306.89858300599087215 -2.04305881109171361  -13.87277649148568415 307.09262273857609671 -1.89654015496516837  -13.89621637979567303 307.27543616575462693 -1.72418384097911748  -13.92023822114348341 307.44307163551576423 -1.52539104154698557  -13.94327659197325531 307.59081509049190117 -1.29997447634731067  -13.96342032882608741 307.71299291907888573 -1.04845180352682910  -13.99306349356974088 307.88727151200083654 -0.51207744720885517  -14.00288564449327566 307.94167471676604464 -0.23368384858840763  -14.00638349445956976 307.95974736028875895 0.05478442860463861  -14.00255007735411361 307.93897695324272945 0.34425711133187598  -13.99165551309228661 307.88027548391397659 0.62537821634983537  -13.97537323164481649 307.78787697349895325 0.88938511204061665  -13.95599511012621008 307.66937692441842955 1.12911465613606099  -13.90679254649029239 307.34453849683660565 1.64097811323374199  -13.87489055476782163 307.11456632547987056 1.89463394956254394  -13.84411243205410891 306.85877714998963484 2.10111889214552416  -13.81739473415938946 306.58594151833926844 2.26268084405942993  -13.79643397700804286 306.30233692109243293 2.38176776898339071  -13.78215238465638315 306.01236587013193002 2.46046668082419639  -13.77497731395591174 305.71907275592548103 2.49999999999999734  -13.77497731395591174 305.42500000000001137 2.49999999999999734 
 0.00000000000000000 9 0.15511228965209262 7 0.28666709013724184 7 0.42272199314985104 7 0.57919117106998796 7 0.70686138300854884 7 0.82738513692733928 7 1.00000000000000000 9
7 0 0  8 51 8  13.77497731395591352 305.42500000000001137 2.50000000000000044  13.77497731395591352 305.16391911792550218 2.50000000000000044  13.78063229878611295 304.90328684800050496 2.46883932606265954  13.79190969538078981 304.64512203493916331 2.40670767679738473  13.80851449422567079 304.39162588579614521 2.31295928023134945  13.82986732811968089 304.14564742783267093 2.18638790456777388  13.85495085719585262 303.91098781431151110 2.02539022300524119  13.88212483957432219 303.69284707311265947 1.82822305100231541  13.93181250307506147 303.33406999653112734 1.39453606532830365  13.95535224450927814 303.17987161724062162 1.16029487924295482  13.97720593714777770 303.05002370652891841 0.89435090661665617  13.99445562767882123 302.95484482584134867 0.60322537635677476  14.00443305679563721 302.90114752340628002 0.29587151711958226  14.00591445579325800 302.89223349312379696 -0.01755028504628253  13.99930702121826087 302.92776820215658518 -0.32660488168568635  13.97262047775330096 303.08190799412830074 -0.92693973512798933  13.95258136275175431 303.20046028684691919 -1.20614320357917970  13.92845025810721182 303.35053870359013217 -1.45640715539667487  13.90264837738580717 303.52506398208726068 -1.67658933572988178  13.87720750889169352 303.71804911531717153 -1.86653959001484337  13.85365443877999247 303.92439055679244575 -2.02674680749528946  13.83305267832830410 304.13977680305481499 -2.15817881702314018  13.79648157037736667 304.61445278449900798 -2.38154437904021865  13.78139232669243874 304.87910565609183777 -2.46630013179076979  13.77190526963194550 305.15044619943756743 -2.51692229255061095  13.76867198009018445 305.42499999999944293 -2.53375805982445845  13.77190526963189576 305.69955380056165950 -2.51692229255088229  13.78139232669242809 305.97089434390801443 -2.46630013179084218  13.79648157037736311 306.23554721550090107 -2.38154437904024352  13.83200443149194214 306.69661744027769146 -2.16458120012978261  13.85109353340922489 306.89858300599098584 -2.04305881109157106  13.87277649148565395 307.09262273857592618 -1.89654015496537998  13.89621637979568192 307.27543616575468377 -1.72418384097903621  13.92023822114351894 307.44307163551587792 -1.52539104154676619  13.94327659197322333 307.59081509049167380 -1.29997447634760865  13.96342032882609629 307.71299291907888573 -1.04845180352668588  13.99306349356973911 307.88727151200083654 -0.51207744720891801  14.00288564449328987 307.94167471676564674 -0.23368384858759450  14.00638349445956976 307.95974736029018004 0.05478442860244881  14.00255007735404789 307.93897695324028518 0.34425711133531633  13.99165551309242517 307.88027548391625032 0.62537821634639146  13.97537323164468859 307.78787697349770269 0.88938511204267501  13.95599511012626515 307.66937692441877061 1.12911465613548900  13.90679254649029417 307.34453849683660565 1.64097811323371490  13.87489055476774169 307.11456632547970003 1.89463394956356046  13.84411243205421194 306.85877714998906640 2.10111889214351732  13.81739473415928821 306.58594151834012109 2.26268084406192260  13.79643397700811391 306.30233692109226240 2.38176776898158460  13.78215238465636716 306.01236587013175949 2.46046668082474307  13.77497731395591174 305.71907275592576525 2.50000000000000044  13.77497731395591174 305.42500000000001137 2.50000000000000044 
 0.00000000000000000 9 0.15511228965191215 7 0.28666709013632419 7 0.42272199314820569 7 0.57919117107265916 7 0.70686138301053081 7 0.82738513692870053 7 1.00000000000000000 9
1 -0.00000000000000343 -269.87500000000000000 -14.00000000000000000 0.00000000000000000 -1.00000000000000000 0.00000000000000000 
2 0.00000000000000000 -314.32499999999998863 0.00000000000000000 0.00000000000000000 -1.00000000000000000 0.00000000000000000 0.00000000000000000 0.00000000000000000 -1.00000000000000000 1.00000000000000000 0.00000000000000000 0.00000000000000000 14.00000000000000000
7 0 0  8 51 8  13.77497731395591352 -305.42500000000001137 2.49999999999999956  13.77497731395591352 -305.68608088207435003 2.49999999999999956  13.78063229878612539 -305.94671315199997252 2.46883932606263290  13.79190969538077738 -306.20487796506068889 2.40670767679743802  13.80851449422567612 -306.45837411420382068 2.31295928023131081  13.82986732811969333 -306.70435257216763603 2.18638790456772591  13.85495085719582775 -306.93901218568834111 2.02539022300535043  13.88212483957433463 -307.15715292688753379 1.82822305100223104  13.93181250307507213 -307.51593000346895224 1.39453606532824370  13.95535224450923018 -307.67012838275928743 1.16029487924337849  13.97720593714787007 -307.79997629347127486 0.89435090661535321  13.99445562767872531 -307.89515517415850354 0.60322537635878204  14.00443305679568695 -307.94885247659379957 0.29587151711799065  14.00591445579325267 -307.95776650687622578 -0.01755028504569456  13.99930702121825732 -307.92223179784343756 -0.32660488168575830  13.97262047775330451 -307.76809200587166515 -0.92693973512784067  13.95258136275175787 -307.64953971315304670 -1.20614320357941507  13.92845025810718518 -307.49946129640989056 -1.45640715539660515  13.90264837738581605 -307.32493601791281890 -1.67658933572978808  13.87720750889171484 -307.13195088468285121 -1.86653959001491265  13.85365443877997293 -306.92560944320763383 -2.02674680749525349  13.83305267832830054 -306.71022319694526459 -2.15817881702316727  13.79648157037775391 -306.23554721550596014 -2.38154437903784277  13.78139232669263592 -305.97089434391307350 -2.46630013178980967  13.77190526963198813 -305.69955380056779859 -2.51692229255045996  13.76867198008998905 -305.42500000000194404 -2.53375805982537727  13.77190526963172701 -305.15044619943392945 -2.51692229255184285  13.78139232669272118 -304.87910565608484603 -2.46630013178946861  13.79648157037792444 -304.61445278449184570 -2.38154437903682226  13.83200443149194392 -304.15338255972227444 -2.16458120012977329  13.85109353340920180 -303.95141699400909374 -2.04305881109167187  13.87277649148569836 -303.75737726142392603 -1.89654015496515949  13.89621637979567126 -303.57456383424539581 -1.72418384097912303  13.92023822114346743 -303.40692836448431535 -1.52539104154700600  13.94327659197325531 -303.25918490950817841 -1.29997447634734598  13.96342032882608919 -303.13700708092113700 -1.04845180352675693  13.99306349356976042 -302.96272848799907251 -0.51207744720851345  14.00288564449319928 -302.90832528323471706 -0.23368384858860392  14.00638349445975273 -302.89025263970938795 0.05478442860369048  14.00255007735384183 -302.91102304676007861 0.34425711133415549  13.99165551309254063 -302.96972451608371557 0.62537821634734092  13.97537323164467615 -303.06212302650220636 0.88938511204213277  13.95599511012625094 -303.18062307558130897 1.12911465613563156  13.90679254649028707 -303.50546150316347394 1.64097811323379661  13.87489055476772570 -303.73543367452072061 1.89463394956351960  13.84411243205431319 -303.99122285000942156 2.10111889214317005  13.81739473415919051 -304.26405848166155010 2.26268084406214731  13.79643397700814056 -304.54766307890724875 2.38176776898170983  13.78215238465636361 -304.83763412986820640 2.46046668082467024  13.77497731395591174 -305.13092724407448486 2.49999999999999956  13.77497731395591174 -305.42500000000001137 2.49999999999999956 
 0.00000000000000000 9 0.15511228965154147 7 0.28666709013575531 7 0.42272199314741854 7 0.57919117106859752 7 0.70686138300753876 7 0.82738513692687554 7 1.00000000000000000 9
7 0 0  8 51 8  -13.77497731395591352 -305.42500000000001137 2.50000000000000000  -13.77497731395591352 -305.68608088207361106 2.50000000000000000  -13.78063229878620888 -305.94671315200218942 2.46883932606181844  -13.79190969538057843 -306.20487796505790357 2.40670767679923259  -13.80851449422575961 -306.45837411420404806 2.31295928023058472  -13.82986732811989583 -306.70435257217042135 2.18638790456595800  -13.85495085719555775 -306.93901218568572631 2.02539022300774851  -13.88212483957444654 -307.15715292688832960 1.82822305100122895  -13.93181250307502239 -307.51593000346861118 1.39453606532864960  -13.95535224450939005 -307.67012838276031061 1.16029487924172292  -13.97720593714763204 -307.79997629346974009 0.89435090661882111  -13.99445562767893136 -307.89515517415981094 0.60322537635448015  -14.00443305679558392 -307.94885247659323113 0.29587151712117432  -14.00591445579326688 -307.95776650687628262 -0.01755028504695622  -13.99930702121826442 -307.92223179784349441 -0.32660488168553847  -13.97262047775329030 -307.76809200587160831 -0.92693973512813010  -13.95258136275177385 -307.64953971315310355 -1.20614320357898364  -13.92845025810719584 -307.49946129640989056 -1.45640715539670396  -13.90264837738580894 -307.32493601791276205 -1.67658933572996238  -13.87720750889170773 -307.13195088468285121 -1.86653959001479275  -13.85365443877997293 -306.92560944320763383 -2.02674680749528591  -13.83305267832830054 -306.71022319694526459 -2.15817881702315351  -13.79648157037792622 -306.23554721550817703 -2.38154437903678939  -13.78139232669266434 -305.97089434391472196 -2.46630013178973373  -13.77190526963194728 -305.69955380056825334 -2.51692229255067668  -13.76867198008994464 -305.42500000000137561 -2.53375805982557267  -13.77190526963173234 -305.15044619943262205 -2.51692229255180644  -13.78139232669279757 -304.87910565608353863 -2.46630013178904894  -13.79648157037796352 -304.61445278449139096 -2.38154437903658289  -13.83200443149196524 -304.15338255972221759 -2.16458120012966493  -13.85109353340915916 -303.95141699400954849 -2.04305881109200405  -13.87277649148571435 -303.75737726142358497 -1.89654015496485151  -13.89621637979568725 -303.57456383424528212 -1.72418384097913524  -13.92023822114346210 -303.40692836448465641 -1.52539104154725758  -13.94327659197327840 -303.25918490950795103 -1.29997447634692098  -13.96342032882607498 -303.13700708092119385 -1.04845180352704337  -13.99306349356976753 -302.96272848799901567 -0.51207744720836157  -14.00288564449317974 -302.90832528323511497 -0.23368384859013913  -14.00638349445974029 -302.89025263970842161 0.05478442860772059  -14.00255007735393598 -302.91102304676093127 0.34425711132888459  -13.99165551309240207 -302.96972451608354504 0.62537821635131241  -13.97537323164477208 -303.06212302650192214 0.88938511204042436  -13.95599511012621896 -303.18062307558153634 1.12911465613596640  -13.90679254649030128 -303.50546150316336025 1.64097811323364606  -13.87489055476779853 -303.73543367452037955 1.89463394956290276  -13.84411243205413733 -303.99122285000981947 2.10111889214477721  -13.81739473415939301 -304.26405848166149326 2.26268084406022130  -13.79643397700802687 -304.54766307890639609 2.38176776898287823  -13.78215238465637960 -304.83763412986934327 2.46046668082442377  -13.77497731395591174 -305.13092724407420064 2.50000000000000000  -13.77497731395591174 -305.42500000000001137 2.50000000000000000 
 0.00000000000000000 9 0.15511228965186369 7 0.28666709013663516 7 0.42272199314890363 7 0.57919117106940987 7 0.70686138300808643 7 0.82738513692712157 7 1.00000000000000000 9
1 -15.00000000000000000 305.42500000000001137 2.50000000000000000 1.00000000000000000 0.00000000000000000 0.00000000000000000 
1 -15.00000000000000000 -305.42500000000001137 2.50000000000000000 1.00000000000000000 0.00000000000000000 0.00000000000000000 
Polygon3D 0
PolygonOnTriangulations 0
Surfaces 9
2 0.00000000000000000 -269.87500000000000000 0.00000000000000000 0.00000000000000000 1.00000000000000000 0.00000000000000000 0.00000000000000000 0.00000000000000000 1.00000000000000000 1.00000000000000000 0.00000000000000000 0.00000000000000000 19.01190000000000069
1 0.00000000000000000 269.87500000000000000 0.00000000000000000 0.00000000000000000 1.00000000000000000 0.00000000000000000 0.00000000000000000 0.00000000000000000 1.00000000000000000 1.00000000000000000 0.00000000000000000 0.00000000000000000 
2 0.00000000000000000 269.87500000000000000 0.00000000000000000 0.00000000000000000 1.00000000000000000 0.00000000000000000 0.00000000000000000 0.00000000000000000 1.00000000000000000 1.00000000000000000 0.00000000000000000 0.00000000000000000 14.00000000000000000
1 0.00000000000000000 -269.87500000000000000 0.00000000000000000 0.00000000000000000 1.00000000000000000 0.00000000000000000 0.00000000000000000 0.00000000000000000 1.00000000000000000 1.00000000000000000 0.00000000000000000 0.00000000000000000 
2 0.00000000000000000 -269.87500000000000000 0.00000000000000000 -0.00000000000000000 -1.00000000000000000 -0.00000000000000000 0.00000000000000000 0.00000000000000000 -1.00000000000000000 1.00000000000000000 0.00000000000000000 0.00000000000000000 14.00000000000000000
2 -15.00000000000000000 305.42500000000001137 0.00000000000000000 1.00000000000000000 0.00000000000000000 0.00000000000000000 0.00000000000000000 0.00000000000000000 1.00000000000000000 0.00000000000000000 -1.00000000000000000 0.00000000000000000 2.50000000000000000
2 -15.00000000000000000 -305.42500000000001137 0.00000000000000000 1.00000000000000000 0.00000000000000000 0.00000000000000000 0.00000000000000000 0.00000000000000000 1.00000000000000000 0.00000000000000000 -1.00000000000000000 0.00000000000000000 2.50000000000000000
1 0.00000000000000000 314.32499999999998863 0.00000000000000000 0.00000000000000000 1.00000000000000000 0.00000000000000000 0.00000000000000000 0.00000000000000000 1.00000000000000000 1.00000000000000000 0.00000000000000000 0.00000000000000000 
1 0.00000000000000000 -314.32499999999998863 0.00000000000000000 -0.00000000000000000 -1.00000000000000000 -0.00000000000000000 0.00000000000000000 0.00000000000000000 -1.00000000000000000 1.00000000000000000 0.00000000000000000 0.00000000000000000 
Triangulations 0

TShapes 52
Ve
0.000000100000000
-0.000000000000005 269.875000000000000 19.011900000000001
0 0

0101101
*
Ed
 0.000000100000000 1 1 0
1  1 0 0.000000000000000 6.283185307179586
2  1 1 0 0.000000000000000 6.283185307179586
0

0101000
+52 3 -52 3 *
Ve
0.000000100000000
-0.000000000000005 -269.875000000000000 19.011900000000001
0 0

0101101
*
Ed
 0.000000100000000 1 1 0
1  2 0 0.000000000000000 539.750000000000000
3  2 3CN 1 0 0.000000000000000 539.750000000000000
0

0101000
-52 3 +50 3 *
Ed
 0.000000100000000 1 1 0
1  3 0 0.000000000000000 6.283185307179586
2  4 1 0 0.000000000000000 6.283185307179586
0

0101000
+50 3 -50 3 *
Wi

0101100
-51 0 +49 0 +48 0 -49 0 *
Fa
0  0.000000100000000 1 0

0111000
+47 0 *
Wi

0101100
+51 0 *
Ve
0.000000100000000
-0.000000000000003 269.875000000000000 14.000000000000000
0 0

0101101
*
Ed
 0.000000100000000 1 1 0
1  4 0 0.000000000000000 6.283185307179586
2  5 3 0 0.000000000000000 6.283185307179586
0

0101000
+44 3 -44 3 *
Wi

0101100
-43 0 *
Fa
0  0.000000100000000 2 0

0101000
+45 0 +42 0 *
Wi

0101100
+48 0 *
Ve
0.000000100000000
-0.000000000000003 -269.875000000000000 -14.000000000000000
0 0

0101101
*
Ed
 0.000000100000000 1 1 0
1  5 0 0.000000000000000 6.283185307179586
2  6 5 0 0.000000000000000 6.283185307179586
0

0101000
+39 3 -39 3 *
Wi

0101100
+38 0 *
Fa
0  0.000000100000000 4 0

0101000
+40 0 +37 0 *
Ve
0.000000100000000
-0.000000000000003 314.324999999999989 14.000000000000000
0 0

0101101
*
Ed
 0.000000100000000 1 1 0
1  6 0 0.000000000000000 44.450000000000003
3  7 8CN 3 0 0.000000000000000 44.450000000000003
0

0101000
+44 3 -35 3 *
Ed
 0.000000100000000 1 1 0
1  7 0 0.000000000000000 6.283185307179586
2  9 3 0 0.000000000000000 6.283185307179586
0

0101000
+35 3 -35 3 *
Wi

0101100
+34 0 +43 0 -34 0 -33 0 *
Ve
0.000000143353660
-13.774977313955910 305.425000000000011 2.500000000000000
0 0

0101101
*
Ed
 0.000000143353656 1 1 0
1  8 0 0.000000000000000 1.000000000000000
2  10 3 0 0.000000000000000 1.000000000000000
2  11 6 0 0.000000000000000 1.000000000000000
0

0101100
+31 3 -31 3 *
Wi

0101100
+30 0 *
Ve
0.000000143353668
13.774977313955908 305.425000000000011 2.500000000000000
0 0

0101101
*
Ed
 0.000000143353663 1 1 0
1  9 0 0.000000000000000 1.000000000000000
2  12 3 0 0.000000000000000 1.000000000000000
2  13 6 0 0.000000000000000 1.000000000000000
0

0101100
+28 3 -28 3 *
Wi

0101100
-27 0 *
Fa
0  0.000000100000000 3 0

0101000
+32 0 +29 0 +26 0 *
Ve
0.000000100000000
-0.000000000000003 -314.324999999999989 -14.000000000000000
0 0

0101101
*
Ed
 0.000000100000000 1 1 0
1  10 0 0.000000000000000 44.450000000000003
3  14 15CN 5 0 0.000000000000000 44.450000000000003
0

0101000
+39 3 -24 3 *
Ed
 0.000000100000000 1 1 0
1  11 0 0.000000000000000 6.283185307179586
2  16 5 0 0.000000000000000 6.283185307179586
0

0101000
+24 3 -24 3 *
Wi

0101100
+23 0 +38 0 -23 0 -22 0 *
Ve
0.000000143353656
13.774977313955908 -305.425000000000011 2.500000000000000
0 0

0101101
*
Ed
 0.000000143353651 1 1 0
1  12 0 0.000000000000000 1.000000000000000
2  17 5 0 0.000000000000000 1.000000000000000
2  18 7 0 0.000000000000000 1.000000000000000
0

0101100
+20 3 -20 3 *
Wi

0101100
-19 0 *
Ve
0.000000143353648
-13.774977313955910 -305.425000000000011 2.500000000000000
0 0

0101101
*
Ed
 0.000000143353644 1 1 0
1  13 0 0.000000000000000 1.000000000000000
2  19 5 0 0.000000000000000 1.000000000000000
2  20 7 0 0.000000000000000 1.000000000000000
0

0101100
+17 3 -17 3 *
Wi

0101100
+16 0 *
Fa
0  0.000000100000000 5 0

0101000
+21 0 +18 0 +15 0 *
Wi

0101100
+33 0 *
Fa
0  0.000000100000000 8 0

0111000
+13 0 *
Ed
 0.000000100000000 1 1 0
1  14 0 1.225022686044090 28.774977313955908
3  21 22CN 6 0 1.225022686044090 28.774977313955908
0

0101000
+31 3 -28 3 *
Wi

0101100
-27 0 +11 0 +30 0 -11 0 *
Fa
0  0.000000100000000 6 0

0101000
+10 0 *
Wi

0101100
+22 0 *
Fa
0  0.000000100000000 9 0

0111000
+8 0 *
Ed
 0.000000100000000 1 1 0
1  15 0 1.225022686044090 28.774977313955908
3  23 24CN 7 0 1.225022686044090 28.774977313955908
0

0101000
+17 3 -20 3 *
Wi

0101100
-19 0 +6 0 +16 0 -6 0 *
Fa
0  0.000000100000000 7 0

0101000
+5 0 *
Sh

0101100
+46 0 +41 0 -36 0 +25 0 +14 0 +12 0 -9 0 +7 0 -4 0 *
So

0100000
+3 0 *
Co

1100000
+2 0 *

+1 1 