
CASCADE Topology V1, (c) Matra-Datavision
Locations 16
1
1.000000000000000 0.000000000000000 0.000000000000000 0.000000000000000 
0.000000000000000 1.000000000000000 0.000000000000000 0.000000000000000 
0.000000000000000 0.000000000000000 1.000000000000000 0.000000000000000 
1
1.000000000000000 0.000000000000000 0.000000000000000 0.000000000000000 
0.000000000000000 1.000000000000000 0.000000000000000 0.000000000000000 
0.000000000000000 0.000000000000000 1.000000000000000 0.000000000000000 
2  2 -1 0
1
1.000000000000000 0.000000000000000 0.000000000000000 340.000000000000000 
0.000000000000000 1.000000000000000 0.000000000000000 58.000000000000000 
0.000000000000000 0.000000000000000 1.000000000000000 0.000000000000000 
2  2 -1 4 -1 0
1
1.000000000000000 0.000000000000000 0.000000000000000 478.000000000000000 
0.000000000000000 1.000000000000000 0.000000000000000 90.500000000000000 
0.000000000000000 0.000000000000000 1.000000000000000 0.000000000000000 
2  6 -1 0
2  2 -1 6 -1 0
1
1.000000000000000 0.000000000000000 0.000000000000000 340.000000000000000 
0.000000000000000 1.000000000000000 0.000000000000000 58.000000000000000 
0.000000000000000 0.000000000000000 1.000000000000000 0.000000000000000 
1
1.000000000000000 0.000000000000000 0.000000000000000 369.000000000000000 
0.000000000000000 1.000000000000000 0.000000000000000 90.500000000000000 
0.000000000000000 0.000000000000000 1.000000000000000 0.000000000000000 
1
1.000000000000000 0.000000000000000 0.000000000000000 471.000000000000000 
0.000000000000000 1.000000000000000 0.000000000000000 90.500000000000000 
0.000000000000000 0.000000000000000 1.000000000000000 0.000000000000000 
2  2 -1 9 -1 0
2  2 -1 10 -1 0
2  2 -1 11 -1 0
1
1.000000000000000 0.000000000000000 0.000000000000000 0.000000000000000 
0.000000000000000 1.000000000000000 0.000000000000000 8.000000000000000 
0.000000000000000 0.000000000000000 1.000000000000000 0.000000000000000 
2  2 -1 15 -1 0
Curve2ds 32
1 0.00000000000000000 1.00000000000000000 1.00000000000000000 0.00000000000000000 
1 0.00000000000000000 1.00000000000000000 1.00000000000000000 0.00000000000000000 
1 5.54329331841136064 0.00000000000000000 0.00000000000000000 1.00000000000000000 
1 0.00000000000000000 10.00000000000000000 1.00000000000000000 0.00000000000000000 
1 -6.28318530717958623 10.00000000000000000 1.00000000000000000 0.00000000000000000 
1 0.00000000000000000 10.00000000000000000 1.00000000000000000 0.00000000000000000 
1 0.00000000000000000 11.00000000000000000 1.00000000000000000 0.00000000000000000 
1 0.00000000000000000 11.00000000000000000 1.00000000000000000 0.00000000000000000 
1 0.00000000000000000 11.00000000000000000 1.00000000000000000 0.00000000000000000 
1 0.00000000000000000 11.00000000000000000 1.00000000000000000 0.00000000000000000 
1 5.50891600842797136 0.00000000000000000 0.00000000000000000 1.00000000000000000 
1 0.00000000000000000 30.62500000000000000 1.00000000000000000 0.00000000000000000 
1 0.00000000000000000 30.62500000000000000 1.00000000000000000 0.00000000000000000 
1 6.28318530717958623 -0.00000000000000000 0.00000000000000000 1.00000000000000000 
1 0.00000000000000000 -0.00000000000000000 0.00000000000000000 1.00000000000000000 
1 3.14159265358979312 0.00000000000000000 0.00000000000000000 1.00000000000000000 
1 6.28318530717958623 -0.00000000000000000 0.00000000000000000 1.00000000000000000 
1 0.00000000000000000 0.00000000000000000 1.00000000000000000 0.00000000000000000 
1 -1.57079632679489656 0.00000000000000000 0.00000000000000000 1.00000000000000000 
1 -6.28318530717958623 0.00000000000000000 1.00000000000000000 0.00000000000000000 
1 0.00000000000000000 0.00000000000000000 1.00000000000000000 0.00000000000000000 
1 1.57079632679489656 0.00000000000000000 0.00000000000000000 1.00000000000000000 
1 6.28318530717958623 -0.00000000000000000 0.00000000000000000 1.00000000000000000 
1 0.00000000000000000 -0.00000000000000000 0.00000000000000000 1.00000000000000000 
1 0.00000000000000000 1.00000000000000000 1.00000000000000000 0.00000000000000000 
1 0.00000000000000000 1.00000000000000000 1.00000000000000000 0.00000000000000000 
1 6.28318530717958623 -0.00000000000000000 0.00000000000000000 1.00000000000000000 
1 0.00000000000000000 -0.00000000000000000 0.00000000000000000 1.00000000000000000 
1 0.00000000000000000 1.00000000000000000 1.00000000000000000 0.00000000000000000 
1 6.28318530717958623 -0.00000000000000000 0.00000000000000000 1.00000000000000000 
1 0.00000000000000000 -0.00000000000000000 0.00000000000000000 1.00000000000000000 
1 0.00000000000000000 1.00000000000000000 1.00000000000000000 0.00000000000000000 
Curves 66
1 220.00000000000000000 74.50000000000000000 79.00000000000000000 0.00000000000000000 0.00000000000000000 1.00000000000000000 
1 220.00000000000000000 74.50000000000000000 340.63132589366114189 0.00000000000000000 1.00000000000000000 0.00000000000000000 
1 220.00000000000000000 74.50000000000000000 340.63132589366114189 0.00000000000000000 1.00000000000000000 0.00000000000000000 
1 220.00000000000000000 106.50000000000000000 79.00000000000000000 0.00000000000000000 0.00000000000000000 1.00000000000000000 
1 220.00000000000000000 74.50000000000000000 79.00000000000000000 0.00000000000000000 1.00000000000000000 0.00000000000000000 
2 220.00000000000000000 0.00000000000000000 0.00000000000000000 1.00000000000000000 0.00000000000000000 -0.00000000000000000 0.00000000000000000 0.00000000000000000 1.00000000000000000 0.00000000000000000 -1.00000000000000000 0.00000000000000000 110.50000000000000000
2 220.00000000000000000 90.50000000000000000 95.00000000000000000 1.00000000000000000 0.00000000000000000 -0.00000000000000000 0.00000000000000000 0.00000000000000000 1.00000000000000000 0.00000000000000000 -1.00000000000000000 0.00000000000000000 6.50000000000000000
1 220.00000000000000000 90.50000000000000000 330.63132589366114189 0.00000000000000000 0.00000000000000000 1.00000000000000000 
1 249.62500000000000000 74.50000000000000000 79.00000000000000000 0.00000000000000000 0.00000000000000000 1.00000000000000000 
1 220.00000000000000000 74.50000000000000000 340.63132589366114189 1.00000000000000000 0.00000000000000000 0.00000000000000000 
1 219.00000000000000000 74.50000000000000000 81.60882305241266010 1.00000000000000000 0.00000000000000000 0.00000000000000000 
1 249.62500000000000000 74.50000000000000000 340.63132589366114189 0.00000000000000000 1.00000000000000000 0.00000000000000000 
1 235.00000000000000000 75.50000000000000000 340.63132589366114189 1.00000000000000000 0.00000000000000000 0.00000000000000000 
1 325.00000000000000000 58.00000000000000000 340.63132589366114189 0.00000000000000000 1.00000000000000000 0.00000000000000000 
2 0.00000000000000000 0.00000000000000000 340.63132589366114189 0.00000000000000000 0.00000000000000000 1.00000000000000000 1.00000000000000000 0.00000000000000000 -0.00000000000000000 -0.00000000000000000 1.00000000000000000 0.00000000000000000 15.00000000000000000
1 355.00000000000000000 58.00000000000000000 340.63132589366114189 0.00000000000000000 1.00000000000000000 0.00000000000000000 
1 235.00000000000000000 75.50000000000000000 340.63132589366114189 1.00000000000000000 0.00000000000000000 0.00000000000000000 
2 0.00000000000000000 0.00000000000000000 340.63132589366114189 0.00000000000000000 0.00000000000000000 1.00000000000000000 1.00000000000000000 0.00000000000000000 -0.00000000000000000 -0.00000000000000000 1.00000000000000000 0.00000000000000000 15.00000000000000000
2 0.00000000000000000 0.00000000000000000 340.63132589366114189 0.00000000000000000 0.00000000000000000 1.00000000000000000 1.00000000000000000 0.00000000000000000 -0.00000000000000000 -0.00000000000000000 1.00000000000000000 0.00000000000000000 15.00000000000000000
1 235.00000000000000000 105.50000000000000000 340.63132589366114189 1.00000000000000000 0.00000000000000000 0.00000000000000000 
1 249.62500000000000000 74.50000000000000000 340.63132589366114189 0.00000000000000000 1.00000000000000000 0.00000000000000000 
1 220.00000000000000000 106.50000000000000000 340.63132589366114189 1.00000000000000000 0.00000000000000000 0.00000000000000000 
2 340.00000000000000000 58.00000000000000000 340.63132589366114189 0.00000000000000000 0.00000000000000000 1.00000000000000000 1.00000000000000000 0.00000000000000000 -0.00000000000000000 -0.00000000000000000 1.00000000000000000 0.00000000000000000 4.91250000000000053
2 340.00000000000000000 58.00000000000000000 340.63132589366114189 0.00000000000000000 0.00000000000000000 1.00000000000000000 1.00000000000000000 0.00000000000000000 -0.00000000000000000 -0.00000000000000000 1.00000000000000000 0.00000000000000000 4.91250000000000053
2 369.00000000000000000 90.50000000000000000 340.63132589366114189 0.00000000000000000 0.00000000000000000 1.00000000000000000 1.00000000000000000 0.00000000000000000 -0.00000000000000000 -0.00000000000000000 1.00000000000000000 0.00000000000000000 4.91250000000000053
2 471.00000000000000000 90.50000000000000000 340.63132589366114189 0.00000000000000000 0.00000000000000000 1.00000000000000000 1.00000000000000000 0.00000000000000000 -0.00000000000000000 -0.00000000000000000 1.00000000000000000 0.00000000000000000 4.91250000000000053
1 220.00000000000000000 106.50000000000000000 79.00000000000000000 1.00000000000000000 0.00000000000000000 0.00000000000000000 
1 249.62500000000000000 106.50000000000000000 79.00000000000000000 0.00000000000000000 0.00000000000000000 1.00000000000000000 
1 249.62500000000000000 74.50000000000000000 79.00000000000000000 0.00000000000000000 1.00000000000000000 0.00000000000000000 
1 219.00000000000000000 77.26092155805547179 79.00000000000000000 1.00000000000000000 0.00000000000000000 0.00000000000000000 
2 249.62500000000000000 0.00000000000000000 0.00000000000000000 1.00000000000000000 0.00000000000000000 -0.00000000000000000 0.00000000000000000 0.00000000000000000 1.00000000000000000 0.00000000000000000 -1.00000000000000000 0.00000000000000000 110.50000000000000000
2 249.62500000000000000 90.50000000000000000 95.00000000000000000 1.00000000000000000 0.00000000000000000 -0.00000000000000000 0.00000000000000000 0.00000000000000000 1.00000000000000000 0.00000000000000000 -1.00000000000000000 0.00000000000000000 6.50000000000000000
1 219.00000000000000000 90.50000000000000000 101.50000000000000000 1.00000000000000000 0.00000000000000000 0.00000000000000000 
1 249.62500000000000000 75.50000000000000000 204.81566294683057095 0.00000000000000000 0.00000000000000000 -1.00000000000000000 
1 249.62500000000000000 82.50000000000000000 330.63132589366114189 0.00000000000000000 -1.00000000000000000 0.00000000000000000 
1 249.62500000000000000 86.50000000000001421 160.51507419250526709 0.00000000000000000 0.00000000000000000 -1.00000000000000000 
1 249.62500000000000000 80.50000000000000000 155.28931553260503051 0.00000000000000000 1.00000000000000000 0.00000000000000000 
1 249.62500000000000000 94.50000000000001421 160.51507419250526709 0.00000000000000000 0.00000000000000000 -1.00000000000000000 
1 249.62500000000000000 82.50000000000000000 330.63132589366114189 0.00000000000000000 -1.00000000000000000 0.00000000000000000 
1 249.62500000000000000 105.50000000000000000 204.81566294683057095 0.00000000000000000 0.00000000000000000 -1.00000000000000000 
1 235.00000000000000000 75.50000000000000000 330.63132589366114189 1.00000000000000000 0.00000000000000000 0.00000000000000000 
1 325.00000000000000000 75.50000000000000000 330.63132589366114189 0.00000000000000000 0.00000000000000000 -1.00000000000000000 
1 325.00000000000000000 58.00000000000000000 330.63132589366114189 0.00000000000000000 0.00000000000000000 1.00000000000000000 
1 325.00000000000000000 58.00000000000000000 330.63132589366114189 0.00000000000000000 1.00000000000000000 0.00000000000000000 
1 355.00000000000000000 58.00000000000000000 330.63132589366114189 0.00000000000000000 0.00000000000000000 1.00000000000000000 
2 0.00000000000000000 0.00000000000000000 330.63132589366114189 0.00000000000000000 0.00000000000000000 1.00000000000000000 1.00000000000000000 0.00000000000000000 -0.00000000000000000 -0.00000000000000000 1.00000000000000000 0.00000000000000000 15.00000000000000000
1 355.00000000000000000 75.50000000000000000 330.63132589366114189 0.00000000000000000 0.00000000000000000 -1.00000000000000000 
1 355.00000000000000000 58.00000000000000000 330.63132589366114189 0.00000000000000000 1.00000000000000000 0.00000000000000000 
1 235.00000000000000000 75.50000000000000000 330.63132589366114189 1.00000000000000000 0.00000000000000000 0.00000000000000000 
1 478.00000000000000000 75.50000000000000000 330.63132589366114189 0.00000000000000000 0.00000000000000000 1.00000000000000000 
2 0.00000000000000000 0.00000000000000000 330.63132589366114189 0.00000000000000000 0.00000000000000000 1.00000000000000000 1.00000000000000000 0.00000000000000000 -0.00000000000000000 -0.00000000000000000 1.00000000000000000 0.00000000000000000 15.00000000000000000
2 0.00000000000000000 0.00000000000000000 330.63132589366114189 0.00000000000000000 0.00000000000000000 1.00000000000000000 1.00000000000000000 0.00000000000000000 -0.00000000000000000 -0.00000000000000000 1.00000000000000000 0.00000000000000000 15.00000000000000000
1 478.00000000000000000 105.50000000000000000 330.63132589366114189 0.00000000000000000 0.00000000000000000 1.00000000000000000 
1 235.00000000000000000 105.50000000000000000 330.63132589366114189 1.00000000000000000 0.00000000000000000 0.00000000000000000 
1 4.91250000000000053 -0.00000000000000120 329.63132589366114189 0.00000000000000000 0.00000000000000000 1.00000000000000000 
2 340.00000000000000000 58.00000000000000000 330.63132589366114189 0.00000000000000000 0.00000000000000000 1.00000000000000000 1.00000000000000000 0.00000000000000000 -0.00000000000000000 -0.00000000000000000 1.00000000000000000 0.00000000000000000 4.91250000000000053
2 340.00000000000000000 58.00000000000000000 330.63132589366114189 0.00000000000000000 0.00000000000000000 1.00000000000000000 1.00000000000000000 0.00000000000000000 -0.00000000000000000 -0.00000000000000000 1.00000000000000000 0.00000000000000000 4.91250000000000053
1 4.91250000000000053 -0.00000000000000120 329.63132589366114189 0.00000000000000000 0.00000000000000000 1.00000000000000000 
2 369.00000000000000000 90.50000000000000000 330.63132589366114189 0.00000000000000000 0.00000000000000000 1.00000000000000000 1.00000000000000000 0.00000000000000000 -0.00000000000000000 -0.00000000000000000 1.00000000000000000 0.00000000000000000 4.91250000000000053
1 4.91250000000000053 -0.00000000000000120 329.63132589366114189 0.00000000000000000 0.00000000000000000 1.00000000000000000 
2 471.00000000000000000 90.50000000000000000 330.63132589366114189 0.00000000000000000 0.00000000000000000 1.00000000000000000 1.00000000000000000 0.00000000000000000 -0.00000000000000000 -0.00000000000000000 1.00000000000000000 0.00000000000000000 4.91250000000000053
1 309.34863754677206771 86.50000000000001421 330.63132589366114189 -1.00000000000000000 0.00000000000000000 0.00000000000000000 
1 349.43079360502645159 88.50000000000000000 330.63132589366114189 0.00000000000000000 -1.00000000000000000 0.00000000000000000 
1 309.34863754677206771 94.50000000000001421 330.63132589366114189 -1.00000000000000000 0.00000000000000000 0.00000000000000000 
1 221.00000000000000000 86.50000000000000000 105.00000000000000000 0.49468238649032875 0.00000000000000000 0.86907383834530028 
1 221.00000000000000000 86.50000000000000000 105.00000000000000000 0.49468238649032875 0.00000000000000000 0.86907383834530028 
Polygon3D 0
PolygonOnTriangulations 0
Surfaces 22
1 220.00000000000000000 74.50000000000000000 79.00000000000000000 1.00000000000000000 0.00000000000000000 0.00000000000000000 0.00000000000000000 0.00000000000000000 1.00000000000000000 0.00000000000000000 -1.00000000000000000 0.00000000000000000 
2 219.00000000000000000 0.00000000000000000 0.00000000000000000 1.00000000000000000 0.00000000000000000 0.00000000000000000 0.00000000000000000 0.00000000000000000 1.00000000000000000 0.00000000000000000 -1.00000000000000000 0.00000000000000000 110.50000000000000000
2 219.00000000000000000 90.50000000000000000 95.00000000000000000 1.00000000000000000 0.00000000000000000 0.00000000000000000 0.00000000000000000 0.00000000000000000 1.00000000000000000 0.00000000000000000 -1.00000000000000000 0.00000000000000000 6.50000000000000000
1 220.00000000000000000 74.50000000000000000 79.00000000000000000 0.00000000000000000 1.00000000000000000 0.00000000000000000 0.00000000000000000 -0.00000000000000000 1.00000000000000000 1.00000000000000000 0.00000000000000000 -0.00000000000000000 
1 351.57922560289114244 87.04577040230692830 340.63132589366119873 0.00000000000000000 0.00000000000000000 1.00000000000000000 1.00000000000000000 0.00000000000000000 -0.00000000000000000 -0.00000000000000000 1.00000000000000000 0.00000000000000000 
2 0.00000000000000000 0.00000000000000000 330.63132589366114189 0.00000000000000000 0.00000000000000000 1.00000000000000000 1.00000000000000000 0.00000000000000000 -0.00000000000000000 -0.00000000000000000 1.00000000000000000 0.00000000000000000 15.00000000000000000
2 478.00000000000000000 90.50000000000000000 330.63132589366114189 0.00000000000000000 0.00000000000000000 1.00000000000000000 1.00000000000000000 0.00000000000000000 -0.00000000000000000 -0.00000000000000000 1.00000000000000000 0.00000000000000000 15.00000000000000000
2 0.00000000000000000 0.00000000000000000 329.63132589366114189 0.00000000000000000 0.00000000000000000 1.00000000000000000 1.00000000000000000 0.00000000000000000 -0.00000000000000000 -0.00000000000000000 1.00000000000000000 0.00000000000000000 4.91250000000000053
2 0.00000000000000000 0.00000000000000000 329.63132589366114189 0.00000000000000000 0.00000000000000000 1.00000000000000000 1.00000000000000000 0.00000000000000000 -0.00000000000000000 -0.00000000000000000 1.00000000000000000 0.00000000000000000 4.91250000000000053
2 0.00000000000000000 0.00000000000000000 329.63132589366114189 0.00000000000000000 0.00000000000000000 1.00000000000000000 1.00000000000000000 0.00000000000000000 -0.00000000000000000 -0.00000000000000000 1.00000000000000000 0.00000000000000000 4.91250000000000053
1 220.00000000000000000 106.50000000000000000 79.00000000000000000 0.00000000000000000 1.00000000000000000 0.00000000000000000 0.00000000000000000 -0.00000000000000000 1.00000000000000000 1.00000000000000000 0.00000000000000000 -0.00000000000000000 
1 220.00000000000000000 74.50000000000000000 79.00000000000000000 0.00000000000000000 0.00000000000000000 1.00000000000000000 1.00000000000000000 0.00000000000000000 -0.00000000000000000 -0.00000000000000000 1.00000000000000000 0.00000000000000000 
1 249.62500000000000000 74.50000000000000000 79.00000000000000000 1.00000000000000000 0.00000000000000000 0.00000000000000000 0.00000000000000000 0.00000000000000000 1.00000000000000000 0.00000000000000000 -1.00000000000000000 0.00000000000000000 
1 235.00000000000000000 75.50000000000000000 330.63132589366114189 0.00000000000000000 1.00000000000000000 0.00000000000000000 0.00000000000000000 -0.00000000000000000 1.00000000000000000 1.00000000000000000 0.00000000000000000 -0.00000000000000000 
1 325.00000000000000000 58.00000000000000000 330.63132589366114189 1.00000000000000000 0.00000000000000000 0.00000000000000000 0.00000000000000000 0.00000000000000000 1.00000000000000000 0.00000000000000000 -1.00000000000000000 0.00000000000000000 
1 355.00000000000000000 58.00000000000000000 330.63132589366114189 1.00000000000000000 0.00000000000000000 0.00000000000000000 0.00000000000000000 0.00000000000000000 1.00000000000000000 0.00000000000000000 -1.00000000000000000 0.00000000000000000 
1 235.00000000000000000 75.50000000000000000 330.63132589366114189 0.00000000000000000 1.00000000000000000 0.00000000000000000 0.00000000000000000 -0.00000000000000000 1.00000000000000000 1.00000000000000000 0.00000000000000000 -0.00000000000000000 
1 235.00000000000000000 105.50000000000000000 330.63132589366114189 0.00000000000000000 1.00000000000000000 0.00000000000000000 0.00000000000000000 -0.00000000000000000 1.00000000000000000 1.00000000000000000 0.00000000000000000 -0.00000000000000000 
1 349.89666825979264786 87.64737308818776285 330.63132589366091452 -0.00000000000000000 -0.00000000000000000 -1.00000000000000000 -1.00000000000000000 0.00000000000000000 0.00000000000000000 0.00000000000000000 1.00000000000000000 -0.00000000000000000 
1 261.78551456182003676 86.50000000000001421 242.03014838501056261 -0.00000000000000000 -1.00000000000000000 -0.00000000000000000 0.00000000000000000 0.00000000000000000 -1.00000000000000000 1.00000000000000000 -0.00000000000000000 0.00000000000000000 
1 221.00000000000000000 86.50000000000000000 105.00000000000000000 0.86907383834530028 0.00000000000000000 -0.49468238649032875 0.49468238649032875 0.00000000000000000 0.86907383834530028 0.00000000000000000 -1.00000000000000000 0.00000000000000000 
1 261.78551456182003676 86.50000000000001421 242.03014838501056261 -0.00000000000000000 -1.00000000000000000 -0.00000000000000000 0.00000000000000000 0.00000000000000000 -1.00000000000000000 1.00000000000000000 -0.00000000000000000 0.00000000000000000 
Triangulations 0

TShapes 168
Ve
0.000000100000080
220.000000000000000 74.500000000000000 81.608823052412660
0 0

0101101
*
Ve
0.000000100000000
220.000000000000000 74.500000000000000 340.631325893661142
0 0

0101101
*
Ed
 0.000000100000000 1 1 0
1  1 0 2.608823052412660 261.631325893661142
0

0101000
+168 3 -167 3 *
Ve
0.000000100000028
220.000000000000000 90.499999999999972 340.631325893661142
0 0

0101101
*
Ed
 0.000000100000000 1 1 0
1  2 0 0.000000000000000 15.999999999999972
0

0101000
+167 3 -165 3 *
Ve
0.000000100000000
220.000000000000000 106.500000000000000 340.631325893661142
0 0

0101101
*
Ed
 0.000000100000000 1 1 0
1  3 0 15.999999999999972 32.000000000000000
0

0101000
+165 3 -163 3 *
Ve
0.000000100000000
220.000000000000000 106.500000000000000 79.000000000000000
0 0

0101101
*
Ed
 0.000000100000000 1 1 0
1  4 0 0.000000000000000 261.631325893661142
0

0101000
-163 3 +161 3 *
Ve
0.000000100000080
220.000000000000000 77.260921558055472 79.000000000000000
0 0

0101101
*
Ed
 0.000000100000000 1 1 0
1  5 0 2.760921558055472 32.000000000000000
0

0101000
+159 3 -161 3 *
Ed
 0.000000100000000 1 1 0
1  6 0 5.508916008427972 5.543293318411362
2  1 2 0 5.508916008427972 5.543293318411362
0

0101000
+159 3 -168 3 *
Wi

0101100
-166 0 -164 0 -162 0 +160 0 +158 0 -157 0 *
Ve
0.000000100000000
220.000000000000000 90.500000000000000 101.500000000000000
0 0

0101101
*
Ed
 0.000000100000000 1 1 0
1  7 0 0.000000000000000 6.283185307179586
2  2 3 0 0.000000000000000 6.283185307179586
0

0101100
+155 3 -155 3 *
Wi

0101100
-154 0 *
Ve
0.000000100000000
220.000000000000000 90.500000000000000 330.631325893661142
0 0

0101101
*
Ed
 0.000000100000000 1 1 0
1  8 0 0.000000000000000 10.000000000000000
0

0101000
+152 3 -165 3 *
Wi

0101000
i151 0 *
Fa
0  0.000000100000000 1 0

0111000
+156 0 +153 0 +150 0 *
Ve
0.000000100000080
249.625000000000000 74.500000000000000 81.608823052412660
0 0

0101101
*
Ve
0.000000100000000
249.625000000000000 74.500000000000000 340.631325893661142
0 0

0101101
*
Ed
 0.000000100000000 1 1 0
1  9 0 2.608823052412660 261.631325893661142
0

0101000
+148 3 -147 3 *
Ed
 0.000000100000000 1 1 0
1  10 0 0.000000000000000 29.625000000000000
0

0101000
-147 3 +167 3 *
Ed
 0.000000100000000 1 1 0
1  11 0 1.000000000000000 30.625000000000000
2  3 2 0 1.000000000000000 30.625000000000000
0

0101000
+168 3 -148 3 *
Wi

0101100
-146 0 +145 0 +166 0 -144 0 *
Fa
0  0.000000100000000 4 0

0111000
+143 0 *
Ve
0.000000150000000
249.625000000000000 75.500000000000000 340.631325893661142
0 0

0101101
*
Ed
 0.000000100000000 1 1 0
1  12 0 0.000000000000000 1.000000000000000
0

0101000
+147 3 -141 3 *
Ve
0.000000150000000
325.000000000000000 75.500000000000000 340.631325893661142
0 0

0101101
*
Ed
 0.000000100000000 1 1 0
1  13 0 14.625000000000000 90.000000000000000
0

0101000
+141 3 -139 3 *
Ve
0.000000100000001
325.000000000000000 58.000000000000000 340.631325893661142
0 0

0101101
*
Ed
 0.000000100000000 1 1 0
1  14 0 0.000000000000000 17.500000000000000
0

0101000
+137 3 -139 3 *
Ve
0.000000100000007
355.000000000000000 58.000000000000000 340.631325893661142
0 0

0101101
*
Ed
 0.000000100000000 1 1 0
1  15 0 3.141592653589793 6.283185307179586
2  4 6 0 3.141592653589793 6.283185307179586
0

0101000
+137 5 -135 5 *
Ve
0.000000150000000
355.000000000000000 75.500000000000000 340.631325893661142
0 0

0101101
*
Ed
 0.000000100000000 1 1 0
1  16 0 0.000000000000000 17.500000000000000
0

0101000
+135 3 -133 3 *
Ve
0.000000100000022
478.000000000000000 75.500000000000000 340.631325893661142
0 0

0101101
*
Ed
 0.000000100000000 1 1 0
1  17 0 120.000000000000000 243.000000000000000
0

0101000
+133 3 -131 3 *
Ve
0.000000100000000
493.000000000000000 90.500000000000000 340.631325893661142
0 0

0101101
*
Ed
 0.000000100000000 1 1 0
1  18 0 4.712388980384690 6.283185307179586
2  5 7 7 4.712388980384690 6.283185307179586
0

0101000
+131 8 -129 8 *
Ve
0.000000100000022
478.000000000000000 105.500000000000000 340.631325893661142
0 0

0101101
*
Ed
 0.000000100000000 1 1 0
1  19 0 0.000000000000000 1.570796326794897
2  6 7 7 0.000000000000000 1.570796326794897
0

0101000
+129 8 -127 8 *
Ve
0.000000150000000
249.625000000000000 105.500000000000000 340.631325893661142
0 0

0101101
*
Ed
 0.000000100000000 1 1 0
1  20 0 14.625000000000000 243.000000000000000
0

0101000
+125 3 -127 3 *
Ve
0.000000100000000
249.625000000000000 106.500000000000000 340.631325893661142
0 0

0101101
*
Ed
 0.000000100000000 1 1 0
1  21 0 31.000000000000000 32.000000000000000
0

0101000
+125 3 -123 3 *
Ed
 0.000000100000000 1 1 0
1  22 0 0.000000000000000 29.625000000000000
0

0101000
-123 3 +163 3 *
Wi

0101100
-162 0 -164 0 +145 0 +140 0 +138 0 -136 0 +134 4 +132 0 +130 0 +128 6 
+126 6 -124 0 +122 0 -121 0 *
Ve
0.000000100000000
344.912500000000023 58.000000000000000 340.631325893661142
0 0

0101101
*
Ve
0.000000100000341
335.087499999999636 58.000000000000000 340.631325893661142
0 0

0101101
*
Ed
 0.000000100000000 1 1 0
1  23 0 0.000000000000000 3.141592653589793
2  7 8 9 0.000000000000000 3.141592653589793
0

0101000
+119 3 -118 3 *
Ed
 0.000000100000000 1 1 0
1  24 0 3.141592653589793 6.283185307179586
2  8 8 9 3.141592653589793 6.283185307179586
0

0101000
+118 3 -119 3 *
Wi

0101100
-117 0 -116 0 *
Ve
0.000000100000000
373.912500000000023 90.500000000000000 340.631325893661142
0 0

0101101
*
Ed
 0.000000100000000 1 1 0
1  25 0 0.000000000000000 6.283185307179586
2  9 9 10 0.000000000000000 6.283185307179586
0

0101100
+114 3 -114 3 *
Wi

0101100
-113 0 *
Ve
0.000000100000000
475.912500000000023 90.500000000000000 340.631325893661142
0 0

0101101
*
Ed
 0.000000100000000 1 1 0
1  26 0 0.000000000000000 6.283185307179586
2  10 10 11 0.000000000000000 6.283185307179586
0

0101100
+111 3 -111 3 *
Wi

0101100
-110 0 *
Fa
0  0.000000100000000 5 0

0111000
+120 0 +115 0 +112 0 +109 0 *
Ve
0.000000100000000
249.625000000000000 106.500000000000000 79.000000000000000
0 0

0101101
*
Ed
 0.000000100000000 1 1 0
1  27 0 0.000000000000000 29.625000000000000
0

0101000
-107 3 +161 3 *
Ed
 0.000000100000000 1 1 0
1  28 0 0.000000000000000 261.631325893661142
0

0101000
-123 3 +107 3 *
Wi

0101100
-106 0 -105 0 +121 0 +160 0 *
Fa
0  0.000000100000000 11 0

0111000
+104 0 *
Ve
0.000000100000080
249.625000000000000 77.260921558055472 79.000000000000000
0 0

0101101
*
Ed
 0.000000100000000 1 1 0
1  29 0 2.760921558055472 32.000000000000000
0

0101000
+102 3 -107 3 *
Ed
 0.000000100000000 1 1 0
1  30 0 1.000000000000000 30.625000000000000
2  11 2 0 1.000000000000000 30.625000000000000
0

0101000
+159 3 -102 3 *
Wi

0101100
-158 0 -106 0 +101 0 +100 0 *
Fa
0  0.000000100000000 12 0

0111000
+99 0 *
Ed
 0.000000100000000 1 1 0
1  31 0 5.508916008427972 5.543293318411362
2  12 2 0 5.508916008427972 5.543293318411362
0

0101000
+102 3 -148 3 *
Wi

0101100
-100 0 -97 0 +144 0 +157 0 *
Fa
0  0.000000100000000 2 0

0111000
+96 0 *
Ve
0.000000100000000
249.625000000000000 90.500000000000000 101.500000000000000
0 0

0101101
*
Ed
 0.000000100000000 1 1 0
1  32 0 0.000000000000000 6.283185307179586
2  13 3 0 0.000000000000000 6.283185307179586
0

0101100
+94 3 -94 3 *
Ed
 0.000000100000000 1 1 0
1  33 0 1.000000000000000 30.625000000000000
3  14 15CN 3 0 1.000000000000000 30.625000000000000
0

0101000
+155 3 -94 3 *
Wi

0101100
-93 0 +92 0 +154 0 -92 0 *
Fa
0  0.000000100000000 3 0

0111000
+91 0 *
Ve
0.000000150000000
249.625000000000000 75.500000000000000 330.631325893661142
0 0

0101101
*
Ed
 0.000000150000000 1 1 0
1  34 0 -135.815662946830571 -125.815662946830571
0

0101000
+141 3 -89 3 *
Ve
0.000000150000000
249.625000000000000 86.500000000000014 330.631325893661142
0 0

0101101
*
Ed
 0.000000150000000 1 1 0
1  35 0 -4.000000000000014 7.000000000000000
0

0101000
+87 3 -89 3 *
Ve
0.000000150000014
249.625000000000000 86.500000000000000 155.289315532605031
0 0

0101101
*
Ed
 0.000000150000000 1 1 0
1  36 0 -170.116251701155875 5.225758659900237
0

0101000
+87 3 -85 3 *
Ve
0.000000150000014
249.625000000000000 94.500000000000000 155.289315532605031
0 0

0101101
*
Ed
 0.000000150000000 1 1 0
1  37 0 6.000000000000000 14.000000000000000
0

0101000
+85 3 -83 3 *
Ve
0.000000150000000
249.625000000000000 94.500000000000014 330.631325893661142
0 0

0101101
*
Ed
 0.000000150000000 1 1 0
1  38 0 -170.116251701155875 5.225758659900237
0

0101000
+81 3 -83 3 *
Ve
0.000000150000000
249.625000000000000 105.500000000000000 330.631325893661142
0 0

0101101
*
Ed
 0.000000150000000 1 1 0
1  39 0 -23.000000000000000 -12.000000000000014
0

0101000
+79 3 -81 3 *
Ed
 0.000000150000000 1 1 0
1  40 0 -135.815662946830571 -125.815662946830571
0

0101000
+125 3 -79 3 *
Wi

0101100
-140 0 -88 0 +86 0 -84 0 -82 0 +80 0 +78 0 +77 0 -122 0 +105 0 
+101 0 -97 0 -146 0 *
Wi

0101100
-93 0 *
Fa
0  0.000000100000000 13 0

0111000
+76 0 +75 0 *
Ve
0.000000150000000
325.000000000000000 75.500000000000000 330.631325893661142
0 0

0101101
*
Ed
 0.000000150000000 1 1 0
1  41 0 14.625000000000000 90.000000000000000
0

0101000
+89 3 -73 3 *
Ed
 0.000000150000000 1 1 0
1  42 0 -10.000000000000000 0.000000000000000
0

0101000
+139 3 -73 3 *
Wi

0101100
-72 0 +71 0 +138 0 -88 0 *
Fa
0  0.000000100000000 14 0

0111000
+70 0 *
Ve
0.000000150000000
325.000000000000000 58.000000000000000 330.631325893661142
0 0

0101101
*
Ed
 0.000000100000000 1 1 0
1  43 0 0.000000000000000 10.000000000000000
2  16 6 4 0.000000000000000 10.000000000000000
0

0101000
+68 3 -137 3 *
Ed
 0.000000150000000 1 1 0
1  44 0 0.000000000000000 17.500000000000000
0

0101000
+68 3 -73 3 *
Wi

0101100
-67 0 -136 0 -71 0 +66 0 *
Fa
0  0.000000100000000 15 0

0111000
+65 0 *
Ve
0.000000150000000
355.000000000000000 58.000000000000000 330.631325893661142
0 0

0101101
*
Ed
 0.000000100000007 1 1 0
1  45 0 0.000000000000000 10.000000000000000
2  17 6 4 0.000000000000000 10.000000000000000
0

0101000
+63 3 -135 3 *
Ed
 0.000000150000000 1 1 0
1  46 0 3.141592653589793 6.283185307179586
2  18 6 0 3.141592653589793 6.283185307179586
0

0101000
+68 5 -63 5 *
Wi

0101100
+62 0 +61 4 -67 0 -134 4 *
Fa
0  0.000000100000000 6 4

0111000
+60 0 *
Ve
0.000000150000000
355.000000000000000 75.500000000000000 330.631325893661142
0 0

0101101
*
Ed
 0.000000150000000 1 1 0
1  47 0 -10.000000000000000 0.000000000000000
0

0101000
+133 3 -58 3 *
Ed
 0.000000150000000 1 1 0
1  48 0 0.000000000000000 17.500000000000000
0

0101000
+63 3 -58 3 *
Wi

0101100
-62 0 -132 0 -57 0 +56 0 *
Fa
0  0.000000100000000 16 0

0111000
+55 0 *
Ve
0.000000150000000
478.000000000000000 75.500000000000000 330.631325893661142
0 0

0101101
*
Ed
 0.000000150000000 1 1 0
1  49 0 120.000000000000000 243.000000000000000
0

0101000
+58 3 -53 3 *
Ed
 0.000000100000000 1 1 0
1  50 0 0.000000000000000 10.000000000000000
2  19 7 0 0.000000000000000 10.000000000000000
0

0101000
+53 3 -131 3 *
Wi

0101100
-52 0 -51 0 +130 0 -57 0 *
Fa
0  0.000000100000000 17 0

0111000
+50 0 *
Ve
0.000000150000000
493.000000000000000 90.500000000000000 330.631325893661142
0 0

0101101
*
Ed
 0.000000150000000 1 1 0
1  51 0 4.712388980384690 6.283185307179586
2  20 7 7 4.712388980384690 6.283185307179586
0

0101000
+53 8 -48 8 *
Ve
0.000000150000000
478.000000000000000 105.500000000000000 330.631325893661142
0 0

0101101
*
Ed
 0.000000150000000 1 1 0
1  52 0 0.000000000000000 1.570796326794897
2  21 7 7 0.000000000000000 1.570796326794897
0

0101000
+48 8 -46 8 *
Ed
 0.000000100000000 1 1 0
1  53 0 0.000000000000000 10.000000000000000
2  22 7 0 0.000000000000000 10.000000000000000
0

0101000
+46 3 -127 3 *
Wi

0101100
-128 6 -51 0 +47 6 +45 6 +44 0 -126 6 *
Fa
0  0.000000100000000 7 0

0111000
+43 0 *
Ed
 0.000000150000000 1 1 0
1  54 0 14.625000000000000 243.000000000000000
0

0101000
+79 3 -46 3 *
Wi

0101100
-41 0 -44 0 +124 0 -77 0 *
Fa
0  0.000000100000000 18 0

0111000
+40 0 *
Ve
0.000000100000000
344.912500000000023 58.000000000000000 330.631325893661142
0 0

0101101
*
Ed
 0.000000100000000 1 1 0
1  55 0 1.000000000000000 11.000000000000000
3  23 24CN 8 0 1.000000000000000 11.000000000000000
0

0101000
+38 12 -119 12 *
Ve
0.000000100000341
335.087499999999636 58.000000000000000 330.631325893661142
0 0

0101101
*
Ed
 0.000000100000000 1 1 0
1  56 0 3.141592653589793 6.283185307179586
2  25 8 9 3.141592653589793 6.283185307179586
0

0101000
+36 3 -38 3 *
Ed
 0.000000100000000 1 1 0
1  57 0 0.000000000000000 3.141592653589793
2  26 8 9 0.000000000000000 3.141592653589793
0

0101000
+38 3 -36 3 *
Wi

0101100
-117 0 -116 0 +37 9 +35 0 +34 0 -37 9 *
Fa
0  0.000000100000000 8 9

0111000
+33 0 *
Ve
0.000000100000000
373.912500000000023 90.500000000000000 330.631325893661142
0 0

0101101
*
Ed
 0.000000100000000 1 1 0
1  58 0 1.000000000000000 11.000000000000000
3  27 28CN 9 0 1.000000000000000 11.000000000000000
0

0101000
+31 13 -114 13 *
Ed
 0.000000100000000 1 1 0
1  59 0 0.000000000000000 6.283185307179586
2  29 9 10 0.000000000000000 6.283185307179586
0

0101100
+31 3 -31 3 *
Wi

0101100
-113 0 +30 10 +29 0 -30 10 *
Fa
0  0.000000100000000 9 10

0111000
+28 0 *
Ve
0.000000100000000
475.912500000000023 90.500000000000000 330.631325893661142
0 0

0101101
*
Ed
 0.000000100000000 1 1 0
1  60 0 1.000000000000000 11.000000000000000
3  30 31CN 10 0 1.000000000000000 11.000000000000000
0

0101000
+26 14 -111 14 *
Ed
 0.000000100000000 1 1 0
1  61 0 0.000000000000000 6.283185307179586
2  32 10 11 0.000000000000000 6.283185307179586
0

0101100
+26 3 -26 3 *
Wi

0101100
-110 0 +25 11 +24 0 -25 11 *
Fa
0  0.000000100000000 10 11

0111000
+23 0 *
Ve
0.000000150000014
349.430793605026452 86.500000000000000 330.631325893661142
0 0

0101101
*
Ed
 0.000000100000000 1 1 0
1  62 0 -40.082156058254384 59.723637546772068
0

0101000
+21 3 -87 3 *
Ve
0.000000150000014
349.430793605026452 94.500000000000000 330.631325893661142
0 0

0101101
*
Ed
 0.000000100000000 1 1 0
1  63 0 -6.000000000000000 2.000000000000000
0

0101000
+19 3 -21 3 *
Ed
 0.000000150000000 1 1 0
1  64 0 -40.082156058254384 59.723637546772068
0

0101000
+19 3 -81 3 *
Wi

0101000
-20 0 -18 0 +17 0 -78 0 +41 0 -45 6 -47 6 -52 0 -56 0 -61 4 
+66 0 -72 0 -86 0 *
Wi

0101100
+34 0 +35 0 *
Wi

0101100
+24 0 *
Wi

0101100
+29 0 *
Fa
0  0.000000150000000 19 0

0111000
+16 0 +15 0 +14 0 +13 0 *
Ed
 0.000000100000000 1 1 0
1  65 0 57.865411790964643 259.622733924724798
0

0101000
+85 3 -21 3 *
Wi

0101000
+84 0 +20 0 +11 0 *
Fa
0  0.000000100000000 20 0

0111000
+10 0 *
Ed
 0.000000100000000 1 1 0
1  66 0 57.865411790964643 259.622733924724798
0

0101000
+83 16 -19 16 *
Wi

0101000
-11 0 +18 0 +8 15 +82 0 *
Fa
0  0.000000100000000 21 0

0111000
+7 0 *
Wi

0101100
+80 0 +17 0 +8 15 *
Fa
0  0.000000100000000 22 15

0111000
+5 0 *
Sh

0101100
-149 0 -142 0 +108 0 +103 0 -98 0 -95 0 -90 0 +74 0 -69 0 -64 0 
+59 0 +54 0 -49 0 +42 0 +39 0 -32 0 -27 0 -22 0 +12 0 +9 0 
+6 0 -4 0 *
So

0100000
+3 0 *
Co

1100000
+2 0 *

+1 1 