
CASCADE Topology V1, (c) Matra-Datavision
Locations 5
1
1.000000000000000 0.000000000000000 0.000000000000000 0.000000000000000 
0.000000000000000 1.000000000000000 0.000000000000000 0.000000000000000 
0.000000000000000 0.000000000000000 1.000000000000000 0.000000000000000 
1
1.000000000000000 0.000000000000000 0.000000000000000 0.000000000000000 
0.000000000000000 1.000000000000000 0.000000000000000 0.000000000000000 
0.000000000000000 0.000000000000000 1.000000000000000 0.015000000000000 
1
1.000000000000000 0.000000000000000 0.000000000000000 0.000000000000000 
0.000000000000000 1.000000000000000 0.000000000000000 0.000000000000000 
0.000000000000000 0.000000000000000 1.000000000000000 0.000000000000000 
2  3 -1 2 -1 0
2  3 -1 0
Curve2ds 8
1 0.00000000000000000 0.00000000000000000 1.00000000000000000 0.00000000000000000 
7 0 0  8 121 18  0.02348231392220740 0.00000000000000000  0.06584036144742264 0.07221978943342068  0.10816989194425534 0.14445549325887233  0.15059516443553805 0.21671457664635335  0.19324774078431720 0.28901396647363836  0.23626727291540597 0.36137546671775500  0.27980683959182512 0.43382122877335655  0.32404283274613072 0.50636927669798959  0.38521832635718462 0.60482638446712400  0.40136258497455596 0.63063863116426433  0.41763210919963839 0.65646667142815407  0.43403752598247086 0.68231138589334950  0.45059035757245941 0.70817367808687348  0.46730322984860034 0.73405446063859936  0.48419008064970320 0.75995464149163638  0.51996503475960953 0.81425822345433341  0.53889072652810299 0.84266560024772552  0.55806418567809579 0.87109853930181946  0.57750796580459030 0.89955825539252854  0.59724747858882987 0.92804589727063924  0.61731204055753774 0.95656256566970355  0.63773591984215550 0.98510933131393108  0.67758058236865348 1.03979176511945126  0.69693500856199475 1.06592183440581678  0.71665370499467584 1.09207863127729854  0.73677259222332336 1.11826289676479451  0.75733290377423390 1.14447495732531657  0.77838328440620541 1.17071478332894707  0.79998355074658622 1.19698209114541809  0.83880928077723449 1.24291358133524987  0.85575726411667896 1.26256509135819761  0.87308598646977853 1.28223122655616684  0.89083293682975606 1.30191149426977026  0.90904145403808334 1.32160472720272537  0.92776331283286950 1.34130910164257910  0.94706361293970431 1.36102214822266188  0.98066111714775095 1.39420608396177981  0.99460337374811925 1.40767336586264613  1.00888212752067297 1.42114191202963869  1.02352953491062570 1.43461028053654061  1.03858273746412033 1.44807629075291722  1.05408610236572153 1.46153697352369338  1.07009548834308132 1.47498845720454663  1.10514111356177125 1.50337584245514511  1.12430161445521870 1.51829707764667154  1.14427748405117513 1.53319357243221388  1.16520909375521819 1.54805858067501889  1.18724854846014605 1.56287671403006545  1.21064456078410165 1.57761685875539315  1.23567715628548735 1.59223773685037595  1.27723356928318421 1.61416002772967504  1.29203884902797106 1.62158742458126959  1.30754991501141515 1.62894767646306704  1.32390077570812759 1.63622765400448023  1.34122493594656467 1.64340091905826480  1.35973294699123248 1.65041401147300659  1.37964201313353563 1.65719873884107027  1.41782296632270466 1.66841691424826966  1.43517812319445559 1.67299489089567266  1.45390567112675306 1.67733564204338537  1.47423725850194032 1.68132522840043697  1.49630819759663902 1.68473685910506976  1.52007540440009836 1.68730157280142556  1.54539190321201603 1.68864055667955504  1.59617478194344731 1.68866170745233046  1.62065645561779204 1.68744199808222040  1.64385097497826926 1.68506571630968782  1.66554745696891393 1.68184267226306039  1.68566597984681676 1.67802811611264779  1.70430626597319179 1.67383134701045799  1.72167337299670131 1.66936429273873466  1.75493015199451241 1.65980377353130848  1.77071065768051206 1.65471308457516275  1.78563514195934281 1.64943880428094625  1.79982657008823921 1.64402191034599476  1.81338019274057283 1.63849198859314260  1.82637846389656078 1.63286980677113958  1.83888943515073344 1.62716692918806882  1.87566011149097456 1.60958937819568759  1.89852415957128984 1.59750178022278355  1.92004253004954539 1.58520650306964983  1.94045239160525451 1.57274846469269614  1.95992616716321844 1.56015890944150959  1.97860562549985608 1.54745985767000915  1.99659066677239894 1.53466263901377209  2.03819050819036107 1.50381537276732669  2.06122248047223788 1.48568995337162191  2.08329073141453192 1.46742561075993105  2.10454277464853989 1.44904179297116031  2.12508457788312066 1.43055227992608525  2.14500080373557811 1.41196773858791769  2.16436318811604256 1.39329682504825980  2.20741126851502045 1.35050633330156766  2.23077641061507492 1.32633584755437650  2.25344116312577336 1.30204924489680174  2.27549385819506167 1.27765732925542719  2.29700328402438858 1.25316846040430985  2.31802592991453515 1.22858967529323793  2.33860967179144597 1.20392731018344423  2.38407126888860255 1.14820417412926901  2.40872313171918551 1.11709814874554381  2.43282764159670295 1.08588019587549645  2.45644684687709969 1.05455887749489774  2.47963151927370085 1.02314121758598442  2.50242452558977524 0.99163349394380684  2.52486274128933408 0.96004177332233009  2.56740075698571557 0.89912494878471649  2.58754872282838644 0.86981058541348621  2.60744626872271290 0.84043361954405438  2.62711529584772574 0.81099795067159031  2.64657514009028283 0.78150705591431358  2.66584297086240296 0.75196418787883623  2.68493418991860189 0.72237257252550446  2.75860022119210546 0.60703213616031548  2.81199981307342695 0.52091495149281619  2.86436944687566619 0.43450715181442989  2.91596050088514103 0.34787131689012318  2.96698631501719667 0.26105141591687653  3.01763476896654970 0.17408949188404055  3.06807251414713500 0.08703941520733371  3.11843835946174464 0.00000000000000000 
 0.00000000000000000 9 0.18645136368670678 7 0.25264946102692803 7 0.32513688890773168 7 0.39135055450111095 7 0.44080001867709673 7 0.47456778385877518 7 0.51213698753359538 7 0.53167034850235750 7 0.54625590322872475 7 0.56029038938654396 7 0.57470096907381185 7 0.60412329700789114 7 0.64511259162548407 7 0.69766246116993680 7 0.76347239134993727 7 0.82424865331253971 7 1.00000000000000000 9
1 0.00000000000000000 0.00000000000000000 1.00000000000000000 0.00000000000000000 
1 6.28318530717958623 0.00000000000000000 0.00000000000000000 1.00000000000000000 
1 0.00000000000000000 0.00000000000000000 0.00000000000000000 1.00000000000000000 
1 0.00000000000000000 37.27442866808037536 1.00000000000000000 0.00000000000000000 
7 0 0  8 121 18  6.25969932676777940 37.27442866808036825  6.21734128112014517 37.20220887075811333  6.17501175197317487 37.12997315904881646  6.13258648031115605 37.05771406778092825  6.08993390426595660 36.98541467007032679  6.04691437189747116 36.91305316193133734  6.00337480441499505 36.84060739196064560  5.95913880983953170 36.76805933609418986  5.89796331437699894 36.66960221915019247  5.88181905594737930 36.64378997124695303  5.86554953183556549 36.61796192977462283  5.84914411508949073 36.59211721409850071  5.83259128345729128 36.56625492069139938  5.81587841105697390 36.54037413692331171  5.79899156004606287 36.51447395485099889  5.76321660598201468 36.46017037135076322  5.74429091446773121 36.43176299424033004  5.72511745547652140 36.40333005486725426  5.70567367540893855 36.37487033845554407  5.68593416257823847 36.34638269625445872  5.66586960045062327 36.31786602753054183  5.64544572088549579 36.28931926155971865  5.60560105829214450 36.23463682812123210  5.58624663236008789 36.20850675953101216  5.56652793609730168 36.18234996335651488  5.54640904894007036 36.15616569856720020  5.52584873735349280 36.12995363870657428  5.50479835656774785 36.10371381340520713  5.48319808994038649 36.07744650629419425  5.44437235973305267 36.03151501804826040  5.42742437659757382 36.01186350926318624  5.41009565438174977 35.99219737530706453  5.39234870408500644 35.97251710883990938  5.37414018685710282 35.95282387715884909  5.35541832794885320 35.93311950397749399  5.33611802761912291 35.91340645866402781  5.30252052324821044 35.88022252550418756  5.28857826679882592 35.86675524491089107  5.27429951313047951 35.85328670005709739  5.25965210579164566 35.83981833286966889  5.24459890322873434 35.82635232398006764  5.22909553824780815 35.81289164254482671  5.21308615210800586 35.79944016021023856  5.17804052706556561 35.77105277842888142  5.15888002655275990 35.75613154536830507  5.13890415725425242 35.74123505273180967  5.11797254773518961 35.72637004665735816  5.09593309308133513 35.71155191549664920  5.07253708061551567 35.69681177300619623  5.04750448473807012 35.68219089720384574  5.00594807122569474 35.66026861035619078  4.99114279176197861 35.65284121517353810  4.97563172599544146 35.64548096498754859  4.95928086541796898 35.63820098917359758  4.94195670519045738 35.63102772589163436  4.92344869401118679 35.62401463531902124  4.90353962759361828 35.61722990989762394  4.86535867343356720 35.60601173815602749  4.84800351549343667 35.60143376301758877  4.82927596618913935 35.59709301351957578  4.80894437743408165 35.59310342911209091  4.78687343736529591 35.58969180072728022  4.76310623037529890 35.58712708976661787  4.73778973299957062 35.58578810883204113  4.68700683539012530 35.58576696304252351  4.66252514278959040 35.58698667705465368  4.63933060861556434 35.58936296480766970  4.61763411483499553 35.59258601521427323  4.59751558262702975 35.59640057775812494  4.57887528882590900 35.60059735303712358  4.56150817499077732 35.60506441337118133  4.52825139007169408 35.61462494292642589  4.51247088494241488 35.61971563573973754  4.49754640094370828 35.62498991971317963  4.48335497284736739 35.63040681720163150  4.46980135000625012 35.63593674242191156  4.45680307847636126 35.64155892765163003  4.44429210670891450 35.64726180859099003  4.40752143157026932 35.66483936818438849  4.38465738433573815 35.67692697121915302  4.36313901416956007 35.68922225330524611  4.34272915251722402 35.70168029653407160  4.32325537654620806 35.71426985658780495  4.30457591756867419 35.72696891313278655  4.28659087547169992 35.73976613653614720  4.24499103420726698 35.77061341227177138  4.22195906250902464 35.78873883637192677  4.19989081179698509 35.80700318364461765  4.17863876852821292 35.82538700606588833  4.15809696504599735 35.84387652372403466  4.13818073877278003 35.86246106966192571  4.11881835383339556 35.88113198779187485  4.07577027346847398 35.92392248842777036  4.05240513177783512 35.94809297845436191  4.02974037944726593 35.97237958537142077  4.00768768437375300 35.99677150525766933  3.98617825838630679 36.02126037834247541  3.96515561220734281 36.04583916767842311  3.94457186992987152 36.07050153700600248  3.89911027287400058 36.12622468111902663  3.87445841037197125 36.15733071032938284  3.85035390065008221 36.18854866700917938  3.82673469537897004 36.21986998918502110  3.80355002286456712 36.25128765287629307  3.78075701631858152 36.28279538028893825  3.75831880028913323 36.31438710466969866  3.71578078444406801 36.37530393547179131  3.69563281877833472 36.40461830134537990  3.67573527297555946 36.43399526970441826  3.65606624586456297 36.46343094105424854  3.63660640156476500 36.49292183827699887  3.61733857066919073 36.52246470876630013  3.59824735142747754 36.55205632656191028  3.52458134173767679 36.66739673710650038  3.47118177011350415 36.75351389305698291  3.41881215544143080 36.83992166373085553  3.36722111975132776 36.92655746942784134  3.31619532337313672 37.01337734098935783  3.26554688681594785 37.10033923546276924  3.21510915883429149 37.18738928248534137  3.16474333064503810 37.27442866808036825 
 0.00000000000000000 9 0.18645138425792548 7 0.25264948472910864 7 0.32513691342492212 7 0.39135057723887584 7 0.44080003831317166 7 0.47456780029715112 7 0.51213699891321118 7 0.53167035623367009 7 0.54625590834952198 7 0.56029040719129886 7 0.57470099314537648 7 0.60412333025101950 7 0.64511263354598403 7 0.69766251079194497 7 0.76347244758461363 7 0.82424871368801744 7 1.00000000000000000 9
1 0.00000000000000000 37.27442866808037536 1.00000000000000000 0.00000000000000000 
Curves 9
7 1 1  6 6 2  5.65000000000000124 -0.00000000000000004 -0.00000000000000178  1.66907846106823654 5.64999999999999769 0.08703500697616331 -1.07649030913957588  1.03672962320961215 4.31454367614370948 0.09953175271994646 -1.23105599662951448  1.03834669984750638 3.21307400134450072 -0.00000000000000064 -0.00000000000000355  0.85353433019614966 4.31454367614370948 -0.09953175271994490 1.23105599662951626  1.03834669984750683 5.65000000000000124 -0.08703500697616522 1.07649030913957677  1.03672962320961148
 0.00000000000000000 6 6.28318530717958623 6
7 0 0  8 121 18  5.64982576834991956 0.00121276066635940 0.00000000000000000  5.64911568733775926 0.38169091454686704 0.00000000000000000  5.61782180518072849 0.76215811467116346 0.00000000000000000  5.55593402285081428 1.13966445337237099 0.00000000000000000  5.46376348031949899 1.51131960373493279 0.00000000000000000  5.34191125865726502 1.87428670143637532 0.00000000000000000  5.19126026816212338 2.22578242247289326 0.00000000000000000  5.01299032251716259 2.56308325676874471 0.00000000000000000  4.73605503703912767 2.99731291815723866 0.00000000000000000  4.66020067780242275 3.10896819297004834 0.00000000000000000  4.58111953013237994 3.21838683492519007 0.00000000000000000  4.49888227407404084 3.32545367756192256 0.00000000000000000  4.41356408402319556 3.43005534513780352 0.00000000000000000  4.32524465189744234 3.53208024262501707 0.00000000000000000  4.23400821030725361 3.63141854570672207 0.00000000000000000  4.03694203243592753 3.83367822779410083 0.00000000000000000  3.93054959570919005 3.93604317942664750 0.00000000000000000  3.82088241555365249 4.03491545076468494 0.00000000000000000  3.70806339445917832 4.13015595896566801 0.00000000000000000  3.59222219440266644 4.22162790103131513 0.00000000000000000  3.47349526385203689 4.30919652158805722 0.00000000000000000  3.35202586477022280 4.39272888066749267 0.00000000000000000  3.11463983814661471 4.54458937091747117 0.00000000000000000  2.99915444289954491 4.61360637698037568 0.00000000000000000  2.88162086415625396 4.67904568815116395 0.00000000000000000  2.76215852836131326 4.74080729274121815 0.00000000000000000  2.64089366159010686 4.79879069174775275 0.00000000000000000  2.51795942318706256 4.85289438592471978 0.00000000000000000  2.39349584957759065 4.90301427707459325 0.00000000000000000  2.17366554701408887 4.98341449170532691 0.00000000000000000  2.07891363920838845 5.01550381258697886 0.00000000000000000  1.98345327813722472 5.04526442732187430 0.00000000000000000  1.88734908176238747 5.07264813280300775 0.00000000000000000  1.79067105874998345 5.09760362609222017 0.00000000000000000  1.69349485916966347 5.12007555254083879 0.00000000000000000  1.59590210984992598 5.14000201763913722 0.00000000000000000  1.43111291799975660 5.16913012204658706 0.00000000000000000  1.36409498510826777 5.17972827821010462 0.00000000000000000  1.29695358878791578 5.18908249821209111 0.00000000000000000  1.22971972627410553 5.19716671291493082 0.00000000000000000  1.16242888293507685 5.20395163180209686 0.00000000000000000  1.09512142214325103 5.20940372883111991 0.00000000000000000  1.02784332104761811 5.21348289925400810 0.00000000000000000  0.88588652167086690 5.21909366470734071 0.00000000000000000  0.81128384411014132 5.22028432711648094 0.00000000000000000  0.73685726384422545 5.21964903634495059 0.00000000000000000  0.66268067741792169 5.21709571765404512 0.00000000000000000  0.58887420954675251 5.21252011174752994 0.00000000000000000  0.51563900337787738 5.20575680042319533 0.00000000000000000  0.44323008136539016 5.19662829430324802 0.00000000000000000  0.33509792948553430 5.17852760426689684 0.00000000000000000  0.29854083132833670 5.17159900523476601 0.00000000000000000  0.26240050373077639 5.16387022479865809 0.00000000000000000  0.22674901642593170 5.15525823734171773 0.00000000000000000  0.19172496922760129 5.14567797770642343 0.00000000000000000  0.15759629052276941 5.13499726307867377 0.00000000000000000  0.12470148967261356 5.12308765728802129 0.00000000000000000  0.07052221956318289 5.09956397412394136 0.00000000000000000  0.04848349659694277 5.08867255157685427 0.00000000000000000  0.02765845176555061 5.07674225671936252 0.00000000000000000  0.00859631803597059 5.06363154025174822 0.00000000000000000  -0.00763153451949079 5.04926838763326380 0.00000000000000000  -0.01976403303356193 5.03374302296765563 0.00000000000000000  -0.02609850015933995 5.01722258545222211 0.00000000000000000  -0.02637010860817540 4.98415102267949006 0.00000000000000000  -0.02076167645744357 4.96823869020891973 0.00000000000000000  -0.00982591124143701 4.95321056235383317 0.00000000000000000  0.00493036375659116 4.93916929184092091 0.00000000000000000  0.02231420977669015 4.92610970219056199 0.00000000000000000  0.04135783823194113 4.91394590633266226 0.00000000000000000  0.06155145240525237 4.90252777513240190 0.00000000000000000  0.10461213911786943 4.88044785208014797 0.00000000000000000  0.12746273942823197 4.86985234708326509 0.00000000000000000  0.15105663741591935 4.85969366533610003 0.00000000000000000  0.17520823859073420 4.84988096999096907 0.00000000000000000  0.19978479200614735 4.84034490232925485 0.00000000000000000  0.22469365222215557 4.83102640703494401 0.00000000000000000  0.24988358243282233 4.82187635517213220 0.00000000000000000  0.32729359036099259 4.79441055016666517 0.00000000000000000  0.38021389203466827 4.77651939927289870 0.00000000000000000  0.43373404478025085 4.75883080591923591 0.00000000000000000  0.48765678463378875 4.74117011464991389 0.00000000000000000  0.54184437453882739 4.72341211728480115 0.00000000000000000  0.59619827924004742 4.70545489765390013 0.00000000000000000  0.65066561765209485 4.68722459681550330 0.00000000000000000  0.78121304180829132 4.64277279004079624 0.00000000000000000  0.85732165057006249 4.61624460961007976 0.00000000000000000  0.93340253492718261 4.58890328822653082 0.00000000000000000  1.00935477421477926 4.56064188943187876 0.00000000000000000  1.08509948928624111 4.53138525422203653 0.00000000000000000  1.16056926317461828 4.50107515252170387 0.00000000000000000  1.23570371198658080 4.46966392715096461 0.00000000000000000  1.40628039990372100 4.39538973011769318 0.00000000000000000  1.50147103431665707 4.35179588250121263 0.00000000000000000  1.59590785410375835 4.30626143421962837 0.00000000000000000  1.68948984313052364 4.25873838342066069 0.00000000000000000  1.78212416563992138 4.20919640864912559 0.00000000000000000  1.87372218047063122 4.15761768695872824 0.00000000000000000  1.96419752814554793 4.10399450110110831 0.00000000000000000  2.16526049870359127 3.97861869395304213 0.00000000000000000  2.27516606564120361 3.90570317384072796 0.00000000000000000  2.38301842628329119 3.82958715241602121 0.00000000000000000  2.48866294177299885 3.75029402383759169 0.00000000000000000  2.59195156208495670 3.66786295171507915 0.00000000000000000  2.69274073812115589 3.58234669906537695 0.00000000000000000  2.79089058357442443 3.49381083597204078 0.00000000000000000  2.97434497175858947 3.31785466690496689 0.00000000000000000  3.06005992326586629 3.23086482112490314 0.00000000000000000  3.14330399109907566 3.14142595596579755 0.00000000000000000  3.22397561024759050 3.04960603282567266 0.00000000000000000  3.30197763374038811 2.95547964810922226 0.00000000000000000  3.37721716571401132 2.85912787519461009 0.00000000000000000  3.44960539448053805 2.76063810640026208 0.00000000000000000  3.71989715486602535 2.36938145695234414 0.00000000000000000  3.89626417414845605 2.06144601074682621 0.00000000000000000  4.04597892192136577 1.73868323204066755 0.00000000000000000  4.16737957760385491 1.40373216065350692 0.00000000000000000  4.25919495774783918 1.05942001716609768 0.00000000000000000  4.32051392275441160 0.70874531110783223 0.00000000000000000  4.35083428779900938 0.35488641276204197 0.00000000000000000  4.35017423165007333 0.00121276066636021 0.00000000000000000 
 0.00000000000000000 9 0.18645136368670678 7 0.25264946102692803 7 0.32513688890773168 7 0.39135055450111095 7 0.44080001867709673 7 0.47456778385877518 7 0.51213698753359538 7 0.53167034850235750 7 0.54625590322872475 7 0.56029038938654396 7 0.57470096907381185 7 0.60412329700789114 7 0.64511259162548407 7 0.69766246116993680 7 0.76347239134993727 7 0.82424865331253971 7 1.00000000000000000 9
7 1 1  6 6 2  5.65000000000000124 -0.00000000000000004 -0.00000000000000178  1.66907846106823654 5.64999999999999769 0.08703500697616331 -1.07649030913957588  1.03672962320961215 4.31454367614370948 0.09953175271994646 -1.23105599662951448  1.03834669984750638 3.21307400134450072 -0.00000000000000064 -0.00000000000000355  0.85353433019614966 4.31454367614370948 -0.09953175271994490 1.23105599662951626  1.03834669984750683 5.65000000000000124 -0.08703500697616522 1.07649030913957677  1.03672962320961148
 0.00000000000000000 6 6.28318530717958623 6
7 1 0  9 69 9  5.65000000000000124 -0.00000000000000004 -0.00000000000000178  1.66907846106823654 5.65000000000130242 2.71181687831148599 0.19402024913532134  1.66907846106826563 4.18552276002638468 5.42398842950902527 0.38807128938853097  1.66907846106814084 1.25822962236141955 7.22950813245940083 0.58205596091052225  1.66907846106842173 -2.48754603654773909 7.24001214428332585 0.77613556667951666  1.66907846106798941 -5.73699398326068177 5.06887209151670781 0.97012138702406236  1.66907846106845792 -7.16065923578432528 1.60412792377352331 1.16417210147410177  1.66907846106810398 -6.61287147622979266 -1.79123278566462885 1.35819200599430712  1.66907846106828051 -4.66754167303742395 -4.18215681379483506 1.55222090152195769  1.66907846106823876 0.34321913530328341 -6.25768179998632501 1.94027675503871500  1.66907846106821434 3.40941361381418151 -5.94259899904841404 2.13430565056613109  1.66907846106837576 6.19764056793026175 -3.92906076278226246 2.32832555508702743  1.66907846106791302 7.64090119392511902 -0.47243326402769636 2.52237626953580296  1.66907846106870617 6.87842224135064395 3.36050124272002471 2.71636208988226402  1.66907846106777646 4.22233132557259161 6.00173706504565097 2.91044169564840072  1.66907846106854874 0.87572724531162016 6.79495055532249914 3.10442636717461884  1.66907846106809377 -2.07760940801065086 5.91269734803883829 3.29847740742267659  1.66907846106827540 -3.99515344767471214 3.99515317972581130 3.49249765656254851  1.66907846106823565 -5.91269717296017472 2.07760945446218370 3.68652453009459702  1.66907846106828917 -6.79495087490456040 -0.87572782207016264 3.88056518640143278  1.66907846106804802 -6.00173652699247118 -4.22233113045203101 4.07456289441539887  1.66907846106861846 -3.36050137245015623 -6.87842271437951336 4.26862926399509135  1.66907846106773228 0.47243377934575964 -7.64090091902160573 4.46262591815062670  1.66907846106869751 3.92906082839878179 -6.19764057838739024 4.65666961406566049  1.66907846106794300 5.94259916776517017 -3.40941336014584584 4.85069295724689376  1.66907846106836200 6.25768180142194286 -0.34321893553006255 5.04472072531054572  1.66907846106820701 4.18215666208362347 4.66754181809608237 5.43277683920891974  1.66907846106826430 1.79123255703107809 6.61287152941103162 5.62680553030164443  1.66907846106814017 -1.60412815605743164 7.16065918988767969 5.82082569226150692  1.66907846106842839 -5.06887229109697390 5.73699380597095399 6.01487614396385872  1.66907846106799007 -7.24001222244291132 2.48754579916990171 6.20886218133471335  1.66907846106844460 -7.22950809324386334 -1.25822986791123137 6.40294164410541633  1.66907846106811841 -5.42398828793220833 -4.18552294061796371 6.59692638821401012  1.66907846106828117 -2.71181668913703966 -5.65000009125867564 6.79097740231468983  1.66907846106822566 0.00000018946553313 -5.64999999999516334 6.98499765655785154  1.66907846106823810 2.71181653248735177 -5.65000000030034144 7.17902453521588324  1.66907846106820057 5.42398892173738734 -4.18552275881746638 7.37306516533990308  1.66907846106837243 7.22950757482476636 -1.25822962531085691 7.56706294598998763  1.66907846106794566 7.24001264863386940 2.48754604177564298 7.76112917250823653  1.66907846106864510 5.06887173234973698 5.73699397608251171 7.95512604374983834  1.66907846106783664 1.60412811704020597 7.16065924362703754 8.14916947687599347  1.66907846106851587 -1.79123285569829616 6.61287146935342474 8.34319307751666983  1.66907846106810331 -4.18215680436019088 4.66754167784973184 8.53722064113991053  1.66907846106827251 -6.25768179671714631 -0.34321914537731263 8.92527701541930263  1.66907846106820479 -5.94259904372252201 -3.40941355942400648 9.11930457905765479  1.66907846106834867 -3.92906063160630348 -6.19764071016781948 9.31332817964478288  1.66907846106802560 -0.47243351304799880 -7.64090093481117982 9.50737161288480870  1.66907846106849500 3.36050159581312791 -6.87842260176204956 9.70136848395511997  1.66907846106801050 6.00173667269509981 -4.22233092911956742 9.89543471066444269  1.66907846106837932 6.79495090259249501 -0.87572759424469471 10.08943249115309904  1.66907846106817459 5.91269710369675039 2.07760965274957154 10.28347312138294889  1.66907846106825253 3.99515331370295002 3.99515331370562343 10.47749999998338133  1.66907846106823654 2.07760920971586138 5.91269741769466695 10.67152024916466679  1.66907846106821989 -0.87572747315819954 6.79495052600532201 10.86557128936038197  1.66907846106830093 -4.22233152684455071 6.00173692337376163 11.05955596092421267  1.66907846106812685 -6.87842235405119329 3.36050101213176866 11.25363556668000342  1.66907846106834779 -7.64090117806919800 -0.47243352030693231 11.44762138701922538  1.66907846106815771 -6.19764043618038230 -3.92906097059954229 11.64167210147669174  1.66907846106827917 -3.40941341452977742 -5.94259911338426416 11.83569200599386839  1.66907846106821967 -0.34321892545581489 -6.25768181149541292 12.02972090152195506  1.66907846106823898 4.66754181328397522 -4.18215665727189201 12.41777675503868394  1.66907846106824076 6.61287153629668722 -1.79123256390965779 12.61180565056591973  1.66907846106821633 7.16065918199937190 1.60412816391581625 12.80582555508801690  1.66907846106828872 5.73699381325006463 5.06887228388163447 12.99987626953497610  1.66907846106814617 2.48754579381197738 7.24001222771881547 13.19386208987867981  1.66907846106833446 -1.25822986486275812 7.22950809026016827 13.38794169566131487  1.66907846106816371 -4.18552294186731988 5.42398828915042674 13.58192636715313029  1.66907846106827495 -5.65000009096407574 2.71181668884325688 13.77597740744419497  1.66907846106822544 -5.64999999999591918 -0.00000018946848317 13.96999765654958203  1.66907846106823654
 0.00000000000000000 10 4.65930358351004692 8 9.31860716702009384 9 13.97791075053014076 8 18.63721433404018768 9 23.29651791755023282 8 27.95582150106028152 9 32.61512508457033022 8 37.27442866808037536 10
7 1 1  6 6 2  -5.64999999999591918 -0.00000018946848317 13.96999765654958203  1.66907846106823654 -5.64999609354644505 -0.08703519644589741 12.89350734741719151  1.03672962320961215 -4.31453920879923025 -0.09953155291531091 12.73894647466010710  1.03834669984750638 -3.21307400135636367 0.00000052087542698 13.97000644241919787  0.85353433019614966 -4.31454814349750304 0.09953195252744079 15.20105846790269233  1.03834669984750683 -5.65000390644539685 0.08703481750892939 15.04648796568196722  1.03672962320961148
 0.00000000000000000 6 6.28318530717958623 6
7 0 0  8 121 18  -5.64982576835009009 0.00121276066753540 14.00000000000000000  -5.64911568725999214 0.38169095610889298 14.00000000000000000  -5.61782179834391471 0.76215819774724225 14.00000000000000000  -5.55593400258318848 1.13966457694362755 14.00000000000000000  -5.46376344010047355 1.51131976584437000 14.00000000000000000  -5.34191119224003952 1.87428689921847047 14.00000000000000000  -5.19126016969094461 2.22578265218314941 14.00000000000000000  -5.01299018665312079 2.56308351381752431 14.00000000000000000  -4.73605484874672111 2.99731319777237237 14.00000000000000000  -4.66020047897298006 3.10896847279445421 14.00000000000000000  -4.58111932060678573 3.21838711453493298 14.00000000000000000  -4.49888205371023275 3.32545395652042908 14.00000000000000000  -4.41356385269694851 3.43005562299623890 14.00000000000000000  -4.32524440950315636 3.53208051892267427 14.00000000000000000  -4.23400795675873809 3.63141881997137972 14.00000000000000000  -4.03694175909448028 3.83367849297553320 14.00000000000000000  -3.93054931396071972 3.93604343770302334 14.00000000000000000  -3.82088212557751650 4.03491570179857284 14.00000000000000000  -3.70806309644890497 4.13015620242033421 14.00000000000000000  -3.59222188856647140 4.22162813657044644 14.00000000000000000  -3.47349495041337741 4.30919674887530491 14.00000000000000000  -3.35202554396837016 4.39272909936584277 14.00000000000000000  -3.11463950806451795 4.54458956977035466 14.00000000000000000  -2.99915411102427187 4.61360656489719645 14.00000000000000000  -2.88162053086545011 4.67904586512493559 14.00000000000000000  -2.76215819403234919 4.74080745877384935 14.00000000000000000  -2.64089332660069953 4.79879084684872304 14.00000000000000000  -2.51795908791562129 4.85289453010965310 14.00000000000000000  -2.39349551440401731 4.90301441036279506 14.00000000000000000  -2.17366521605055185 4.98341460475909237 14.00000000000000000  -2.07891331224401199 5.01550391645828242 14.00000000000000000  -1.98345295543611067 5.04526452218968036 14.00000000000000000  -1.88734876358384884 5.07264821884959716 14.00000000000000000  -1.79067074534977166 5.09760370350195746 14.00000000000000000  -1.69349455080131195 5.12007562149858231 14.00000000000000000  -1.59590180676661242 5.14000207832739697 14.00000000000000000  -1.43111262637853698 5.16913016873518139 14.00000000000000000  -1.36409469953852880 5.17972831915313137 14.00000000000000000  -1.29695330939737286 5.18908253356932203 14.00000000000000000  -1.22971945318893150 5.19716674284510649 14.00000000000000000  -1.16242861628156824 5.20395165646206781 14.00000000000000000  -1.09512116205005650 5.20940374837458631 14.00000000000000000  -1.02784306764818734 5.21348291382919005 14.00000000000000000  -0.88588628569651551 5.21909366896165050 14.00000000000000000  -0.81128361892441969 5.22028432619559535 14.00000000000000000  -0.73685704961225262 5.21964903055357787 14.00000000000000000  -0.66268047431371535 5.21709570730372096 14.00000000000000000  -0.58887401774145509 5.21252009710869313 14.00000000000000000  -0.51563882312430120 5.20575678176527745 14.00000000000000000  -0.44322991297212688 5.19662827185789933 14.00000000000000000  -0.33509778182754335 5.17852757656429841 14.00000000000000000  -0.29854069218654011 5.17159897607069308 14.00000000000000000  -0.26240037322136267 5.16387019428356986 14.00000000000000000  -0.22674889469976911 5.15525820555756109 14.00000000000000000  -0.19172485646765125 5.14567794474600415 14.00000000000000000  -0.15759618705426615 5.13499722899886635 14.00000000000000000  -0.12470139596143248 5.12308762216829106 14.00000000000000000  -0.07052214407704671 5.09956393719168766 14.00000000000000000  -0.04848342859010124 5.08867251356355954 14.00000000000000000  -0.02765839188172770 5.07674221751753763 14.00000000000000000  -0.00859626767713273 5.06363149995622752 14.00000000000000000  0.00763157366722034 5.04926834664356061 14.00000000000000000  0.01976405910563184 5.03374298197525860 14.00000000000000000  0.02609851235444172 5.01722254562867054 14.00000000000000000  0.02637009761135989 4.98415097106534244 14.00000000000000000  0.02076164398731084 4.96823862659448601 14.00000000000000000  0.00982585136444314 4.95321048946575715 14.00000000000000000  -0.00493045247171864 4.93916921146874000 14.00000000000000000  -0.02231432723716154 4.92610961567940198 14.00000000000000000  -0.04135798325170725 4.91394581448719592 14.00000000000000000  -0.06155162429717187 4.90252767825953661 14.00000000000000000  -0.10461235638691302 4.88044774964102146 14.00000000000000000  -0.12746297333867984 4.86985224398211347 14.00000000000000000  -0.15105688708104847 4.85969356119518636 14.00000000000000000  -0.17520850336889726 4.84988086446136002 14.00000000000000000  -0.19978507143979507 4.84034479508341420 14.00000000000000000  -0.22469394597536385 4.83102629777090886 14.00000000000000000  -0.24988389020790103 4.82187624362144085 14.00000000000000000  -0.32729393349439506 4.79441043321771776 14.00000000000000000  -0.38021425555970589 4.77651927824615541 14.00000000000000000  -0.43373442793436734 4.75883067992032416 14.00000000000000000  -0.48765718686249837 4.74116998287941982 14.00000000000000000  -0.54184479542061470 4.72341197900958143 14.00000000000000000  -0.59619871843415795 4.70545475220266418 14.00000000000000000  -0.65066607482027683 4.68722444355193790 14.00000000000000000  -0.78121353350848544 4.64277261926795859 14.00000000000000000  -0.85732215856978145 4.61624442868312013 14.00000000000000000  -0.93340305868985252 4.58890309622846626 14.00000000000000000  -1.00935531324633065 4.56064168551706839 14.00000000000000000  -1.08510004310927766 4.53138503759046607 14.00000000000000000  -1.16056983131548375 4.50107492241085261 14.00000000000000000  -1.23570429396658610 4.46966368283405213 14.00000000000000000  -1.40628100608830464 4.39538945450823348 14.00000000000000000  -1.50147165064281451 4.35179558959534329 14.00000000000000000  -1.59590847985105522 4.30626112318330900 14.00000000000000000  -1.68949047756686399 4.25873805347555834 14.00000000000000000  -1.78212480801483553 4.20919605906370453 14.00000000000000000  -1.87372283001221063 4.15761731704491933 14.00000000000000000  -1.96419818405920621 4.10399411021325378 14.00000000000000000  -2.16526116197489360 3.97861825767319699 14.00000000000000000  -2.27516672960783639 3.90570271309319361 14.00000000000000000  -2.38301908981179000 3.82958666662563108 14.00000000000000000  -2.48866360370377215 3.75029351250193077 14.00000000000000000  -2.59195222123233604 3.66786241440149707 14.00000000000000000  -2.69274139327476325 3.58234613541048574 14.00000000000000000  -2.79089123350176660 3.49381024568204079 14.00000000000000000  -2.97434560637770451 3.31785402768262161 14.00000000000000000  -3.06006054813947781 3.23086415980066732 14.00000000000000000  -3.14330460530779687 3.14142527255921600 14.00000000000000000  -3.22397621286867420 3.04960532740432511 14.00000000000000000  -3.30197822384956252 2.95547892078802654 14.00000000000000000  -3.37721774238754735 2.85912712613530706 14.00000000000000000  -3.44960595679754878 2.76063733581110204 14.00000000000000000  -3.71989757507008312 2.36938072324352067 14.00000000000000000  -3.89626447991311320 2.06144535157781927 14.00000000000000000  -4.04597912857818987 1.73868266192124254 14.00000000000000000  -4.16737970265478275 1.40373169174705592 14.00000000000000000  -4.25919502037439379 1.05941965897430346 14.00000000000000000  -4.32051394338593564 0.70874507019204391 14.00000000000000000  -4.35083428757419899 0.35488629243827491 14.00000000000000000  -4.35017423165024919 0.00121276066758755 14.00000000000000000 
 0.00000000000000000 9 0.18645138425792548 7 0.25264948472910864 7 0.32513691342492212 7 0.39135057723887584 7 0.44080003831317166 7 0.47456780029715112 7 0.51213699891321118 7 0.53167035623367009 7 0.54625590834952198 7 0.56029040719129886 7 0.57470099314537648 7 0.60412333025101950 7 0.64511263354598403 7 0.69766251079194497 7 0.76347244758461363 7 0.82424871368801744 7 1.00000000000000000 9
7 1 1  6 6 2  -5.64999999999591918 -0.00000018946848317 13.96999765654958203  1.66907846106823654 -5.64999609354644505 -0.08703519644589741 12.89350734741719151  1.03672962320961215 -4.31453920879923025 -0.09953155291531091 12.73894647466010710  1.03834669984750638 -3.21307400135636367 0.00000052087542698 13.97000644241919787  0.85353433019614966 -4.31454814349750304 0.09953195252744079 15.20105846790269233  1.03834669984750683 -5.65000390644539685 0.08703481750892939 15.04648796568196722  1.03672962320961148
 0.00000000000000000 6 6.28318530717958623 6
1 2.50005148755133133 0.00121276066636049 0.00000000000000000 1.00000000000000000 -0.00000000000000018 0.00000000000000000 
1 -2.50005148755141837 0.00121276066767208 14.00000000000000000 -1.00000000000000000 -0.00000000000004335 0.00000000000000000 
Polygon3D 0
PolygonOnTriangulations 0
Surfaces 5
9 1 1 1 0 6 9 6 69 2 9 5.65000000000000124 -0.00000000000000004 -0.00000000000000178  1.66907846106823654 5.65000000000130242 2.71181687831148599 0.19402024913532134  1.66907846106826563 4.18552276002638468 5.42398842950902527 0.38807128938853097  1.66907846106814084 1.25822962236141955 7.22950813245940083 0.58205596091052225  1.66907846106842173 -2.48754603654773909 7.24001214428332585 0.77613556667951666  1.66907846106798941 -5.73699398326068177 5.06887209151670781 0.97012138702406236  1.66907846106845792 -7.16065923578432528 1.60412792377352309 1.16417210147410177  1.66907846106810398 -6.61287147622979266 -1.79123278566462885 1.35819200599430712  1.66907846106828051 -4.66754167303742395 -4.18215681379483506 1.55222090152195769  1.66907846106823876 0.34321913530328341 -6.25768179998632412 1.94027675503871500  1.66907846106821434 3.40941361381418151 -5.94259899904841493 2.13430565056613109  1.66907846106837576 6.19764056793026175 -3.92906076278226246 2.32832555508702743  1.66907846106791302 7.64090119392511902 -0.47243326402769636 2.52237626953580296  1.66907846106870617 6.87842224135064395 3.36050124272002471 2.71636208988226446  1.66907846106777646 4.22233132557259161 6.00173706504565097 2.91044169564840072  1.66907846106854874 0.87572724531162027 6.79495055532249914 3.10442636717461884  1.66907846106809377 -2.07760940801065086 5.91269734803883829 3.29847740742267659  1.66907846106827540 -3.99515344767471170 3.99515317972581174 3.49249765656254851  1.66907846106823565 -5.91269717296017561 2.07760945446218370 3.68652453009459702  1.66907846106828917 -6.79495087490456040 -0.87572782207016264 3.88056518640143278  1.66907846106804802 -6.00173652699247118 -4.22233113045203101 4.07456289441539887  1.66907846106861846 -3.36050137245015623 -6.87842271437951336 4.26862926399509135  1.66907846106773228 0.47243377934575964 -7.64090091902160573 4.46262591815062670  1.66907846106869751 3.92906082839878179 -6.19764057838739024 4.65666961406566049  1.66907846106794300 5.94259916776517017 -3.40941336014584540 4.85069295724689376  1.66907846106836200 6.25768180142194286 -0.34321893553006255 5.04472072531054572  1.66907846106820701 4.18215666208362347 4.66754181809608237 5.43277683920891974  1.66907846106826430 1.79123255703107831 6.61287152941103162 5.62680553030164354  1.66907846106814017 -1.60412815605743164 7.16065918988767969 5.82082569226150692  1.66907846106842839 -5.06887229109697390 5.73699380597095399 6.01487614396385872  1.66907846106799007 -7.24001222244291043 2.48754579916990171 6.20886218133471335  1.66907846106844460 -7.22950809324386334 -1.25822986791123137 6.40294164410541633  1.66907846106811841 -5.42398828793220922 -4.18552294061796371 6.59692638821401101  1.66907846106828117 -2.71181668913703966 -5.65000009125867564 6.79097740231468983  1.66907846106822566 0.00000018946553313 -5.64999999999516334 6.98499765655785154  1.66907846106823810 2.71181653248735133 -5.65000000030034144 7.17902453521588324  1.66907846106820057 5.42398892173738734 -4.18552275881746638 7.37306516533990308  1.66907846106837243 7.22950757482476636 -1.25822962531085691 7.56706294598998763  1.66907846106794566 7.24001264863386940 2.48754604177564298 7.76112917250823653  1.66907846106864510 5.06887173234973698 5.73699397608251171 7.95512604374983834  1.66907846106783664 1.60412811704020597 7.16065924362703754 8.14916947687599347  1.66907846106851587 -1.79123285569829616 6.61287146935342474 8.34319307751666983  1.66907846106810331 -4.18215680436019088 4.66754167784973184 8.53722064113991053  1.66907846106827251 -6.25768179671714631 -0.34321914537731257 8.92527701541930263  1.66907846106820479 -5.94259904372252201 -3.40941355942400603 9.11930457905765479  1.66907846106834867 -3.92906063160630348 -6.19764071016781948 9.31332817964478288  1.66907846106802560 -0.47243351304799880 -7.64090093481117982 9.50737161288480870  1.66907846106849500 3.36050159581312791 -6.87842260176204956 9.70136848395512175  1.66907846106801050 6.00173667269509981 -4.22233092911956742 9.89543471066444269  1.66907846106837932 6.79495090259249501 -0.87572759424469471 10.08943249115309904  1.66907846106817459 5.91269710369675039 2.07760965274957154 10.28347312138294889  1.66907846106825253 3.99515331370294957 3.99515331370562299 10.47749999998338133  1.66907846106823654 2.07760920971586138 5.91269741769466695 10.67152024916466679  1.66907846106821989 -0.87572747315819954 6.79495052600532201 10.86557128936038197  1.66907846106830093 -4.22233152684455071 6.00173692337376163 11.05955596092421267  1.66907846106812685 -6.87842235405119418 3.36050101213176866 11.25363556668000342  1.66907846106834779 -7.64090117806919800 -0.47243352030693231 11.44762138701922538  1.66907846106815771 -6.19764043618038230 -3.92906097059954229 11.64167210147669174  1.66907846106827917 -3.40941341452977698 -5.94259911338426416 11.83569200599386662  1.66907846106821967 -0.34321892545581489 -6.25768181149541292 12.02972090152195506  1.66907846106823898 4.66754181328397522 -4.18215665727189201 12.41777675503868394  1.66907846106824076 6.61287153629668634 -1.79123256390965779 12.61180565056591973  1.66907846106821633 7.16065918199937190 1.60412816391581625 12.80582555508801690  1.66907846106828872 5.73699381325006463 5.06887228388163447 12.99987626953497610  1.66907846106814617 2.48754579381197694 7.24001222771881547 13.19386208987868159  1.66907846106833446 -1.25822986486275812 7.22950809026016916 13.38794169566131487  1.66907846106816371 -4.18552294186731988 5.42398828915042674 13.58192636715313029  1.66907846106827495 -5.65000009096407574 2.71181668884325688 13.77597740744419497  1.66907846106822544 -5.64999999999591918 -0.00000018946848317 13.96999765654958026  1.66907846106823654 
5.64999999999999769 0.08703500697616331 -1.07649030913957588  1.03672962320961215 5.60821218007635380 2.79885095386716154 -0.88247013531030394  1.03672962320962325 4.10199883812889432 5.48846356326149021 -0.68841864871364766  1.03672962320957485 1.14681653241869119 7.24888647281469289 -0.49443518502612882  1.03672962320968587 -2.59902919510875074 7.20168783527833600 -0.30035366467991853  1.03672962320950512 -5.81510258382082323 4.98050096618247018 -0.10636976063960546  1.03672962320971807 -7.18535728163554133 1.49381737054709851 0.08768218429515695  1.03672962320954176 -6.58527806080388434 -1.89309846340122356 0.28170159708654641  1.03672962320963902 -4.60311621759077472 -4.25405600152293584 0.47573059587337863  1.03672962320961193 0.43961497763104079 -6.25239274662423750 0.86378644938933036  1.03672962320960105 3.50095265916108822 -5.89007647001373069 1.05781524165044694  1.03672962320968609 6.25817346754114112 -3.83359255012292088 1.25183563794829666  1.03672962320943873 7.64815261149205661 -0.35471399463891962 1.44588512177345230  1.03672962320986262 6.82668636739199108 3.46642879589970709 1.63987285867719823  1.03672962320936879 4.12984489860340886 6.06681131060565360 1.83395054955418413  1.03672962320977757 0.77107550414130965 6.80841538471332441 2.02793642917398476  1.03672962320953488 -2.16869880744188892 5.88069932575087417 2.22198702293891692  1.03672962320963347 -4.05669372904595349 3.93360737383151760 2.41600734742997947  1.03672962320961148 -5.94469615320321942 1.98652366466508346 2.61003414563629832  1.03672962320964279 -6.78147415390613784 -0.98038615166432119 2.80407524831725929  1.03672962320950446 -5.93666630413020879 -4.31480646504253595 2.99807174845820246  1.03672962320982376 -3.25456406714961188 -6.93016126213966555 3.19214003265459034  1.03672962320934059 0.59014738151833090 -7.63363887720721479 3.38613477047302824  1.03672962320985507 4.02452925628735780 -6.13710632583780047 3.58017969689457694  1.03672962320945805 5.99511646683703781 -3.31787083622070522 3.77420254833603686  1.03672962320968032 6.26296673590319486 -0.24682306360260628 3.96823041966256129  1.03672962320959439 4.11025448358380974 4.73196414559906753 4.35628653355922868  1.03672962320963147 1.68936578263653780 6.64046023091559068 4.55031512138649852  1.03672962320953621 -1.71443776211026289 7.13595635481831447 4.74433577512207094  1.03672962320977224 -5.15723976327022093 5.65888109082931035 4.93838499620219462  1.03672962320939210 -7.27833163411406936 2.37606102849814738 5.13237295012918882  1.03672962320981776 -7.21012469311310245 -1.36964214867353062 5.32645049801133830  1.03672962320947937 -5.35950942906890049 -4.26904394381255692 5.52043645021347551  1.03672962320966966 -2.62478073253191058 -5.69178401078732055 5.71448701783079027  1.03672962320959772 0.08703519644209654 -5.64999609355854560 5.90850734742539530  1.03672962320961304 2.79885061407196201 -5.60821931056586465 6.10253415075699390  1.03672962320958839 5.48846403067065491 -4.10198868824421137 6.29657522725691088  1.03672962320970385 7.24888597596905626 -1.14682803254605958 6.49057180003129641  1.03672962320941564 7.20168823179360906 2.59903959892667880 6.68463994116903937  1.03672962320988660 4.98050075505685719 5.81509517139535603 6.87863489607141698  1.03672962320935236 1.49381740211231651 7.18536127423315740 7.07267955970536555  1.03672962320978290 -1.89309839167511607 6.58527660997046205 7.26670266860550917  1.03672962320953710 -4.25405609130068996 4.60311641693089157 7.46073033549215658  1.03672962320962969 -6.25239253565266484 -0.43961492031235860 7.84878670976909643  1.03672962320959994 -5.89007763593901501 -3.50095352554859662 8.04281417014536437  1.03672962320964523 -3.83358948701465740 -6.25817090649173036 8.23683826249775386  1.03672962320956863 -0.35471958454106017 -7.64815748398295359 8.43088046513719824  1.03672962320963369 3.46643657802969773 -6.82667945115035035 8.62487925272981215  1.03672962320962458 6.06680274565640421 -4.12985258888045870 8.81894356459228135  1.03672962320958617 6.80842292564997198 -0.77106869446040160 9.01294255313325543  1.03672962320962969 5.88069403538355573 2.16869401467522316 9.20698273691250790  1.03672962320960704 3.93361027005225727 4.05669635731881151 9.40100969084363136  1.03672962320961215 1.98651837389962815 5.94469135191471398 9.59502986471996167  1.03672962320960260 -0.98037860910113861 6.78148099869593501 9.78908135125634082  1.03672962320964634 -4.31481503401176436 5.93665852785073600 9.98306481498994636  1.03672962320955753 -6.93015347279153016 3.25457113595177283 10.17714633531849699  1.03672962320966167 -7.63364447713346284 -0.59015246343156524 10.37113023935670597  1.03672962320958773 -6.13710325169177295 -4.02452646651738100 10.56518218429743250  1.03672962320961437 -3.31787201186217873 -5.99511753372025069 10.75920159708606150  1.03672962320961703 -0.24682284582410979 -6.26296653827244221 10.95323059587342840  1.03672962320960904 4.73196404157368278 -4.11025457798534610 11.34128644938925845  1.03672962320961792 6.64046037955719548 -1.68936564775994857 11.53531524165031463  1.03672962320958684 7.13595618525221465 1.71443760829366987 11.72933563794937406  1.03672962320967521 5.65888124609025045 5.15723990403367427 11.92338512177212628  1.03672962320950224 2.37606091539544328 7.27833153164032876 12.11737285867459946  1.03672962320973849 -1.36964208492774198 7.21012475084763249 12.31145054956586549  1.03672962320951378 -4.26904396981635870 5.35950940549913302 12.50543642915355491  1.03672962320966278 -5.69178400449681021 2.62478073826461689 12.69948702295984333  1.03672962320959794 -5.64999609354644505 -0.08703519644589741 12.89350734741719151  1.03672962320961215 
4.31454367614370948 0.09953175271994646 -1.23105599662951448  1.03834669984750638 4.26675583647023426 2.17035080826103011 -1.03702036565354927  1.03834669984751637 3.10069818262889019 4.21577004074513351 -0.84301660884872298  1.03834669984747374 0.83342058789009432 5.54270136536887392 -0.64894475470155388  1.03834669984756944 -2.02706658202930479 5.48512452867729294 -0.45496944256516425  1.03834669984741601 -4.47030223296409090 3.76954077894544781 -0.26089961010137408  1.03834669984759342 -5.49638157855281761 1.09890109796364133 -0.06689461298985755  1.03834669984745265 -5.01827195121503866 -1.48435809402978069 0.12714090518469501  1.03834669984752215 -3.49062698044502895 -3.27586838065653785 0.32116762232714535  1.03834669984751105 0.37233060174067889 -4.77254277182866193 0.70922286366709830  1.03834669984748684 2.70822192688196095 -4.47793087911175558 0.90324934463117756  1.03834669984761940 4.80202265311182597 -2.89113994751891612 1.09728598752314443  1.03834669984724570 5.84304009036829086 -0.22627031348118490 1.29128817016084874  1.03834669984788608 5.19359830282133927 2.68749253119740672 1.48536238580649638  1.03834669984712824 3.11843611586399128 4.65743926673268316 1.67933331864673008  1.03834669984777039 0.54911990457455706 5.20432593603375970 1.87340793559271646  1.03834669984738093 -1.69072021897552083 4.47854172083350655 2.06741067138769186  1.03834669984754080 -3.12121936826170199 2.98046049624615694 2.26144647464599657  1.03834669984750572 -4.55172778839399417 1.48238772405052299 2.45547511985207034  1.03834669984754413 -5.17351570051746901 -0.78848273106071753 2.64948982707222047  1.03834669984737049 -4.50860883497073761 -3.32995544414607192 2.84354793354980906  1.03834669984777594 -2.44520734801824702 -5.31192939178042511 3.03753720395108218  1.03834669984715799 0.49550679514546697 -5.82644303499999072 3.23159561158496489  1.03834669984781858 3.10949177086673556 -4.66357230738782746 3.42560801011347804  1.03834669984731032 4.59805246093367970 -2.49885322763870166 3.61963990203927999  1.03834669984758854 4.78463500285290078 -0.15185748913185493 3.81366780815114437  1.03834669984748817 3.11141974559547796 3.63797495918091496 4.20172277490530632  1.03834669984752237 1.25137337021955952 5.08137722488959032 4.39574947145536754  1.03834669984745243 -1.35119831238773647 5.43988762035785722 4.58978584286969848  1.03834669984761074 -3.97165582069157042 4.29165038189243475 4.78378830257310561  1.03834669984737271 -5.57277290076286125 1.77208450338011758 4.97786228938003550  1.03834669984762185 -5.49837414003271352 -1.08823963073076602 5.17183337298630885  1.03834669984743710 -4.06830059875557648 -3.29172772550784209 5.36590791341612761  1.03834669984753503 -1.97128748149601196 -4.36232695915722601 5.55991067676949235  1.03834669984749906 0.09953155291109470 -4.31453920881318176 5.75394647465231834  1.03834669984750727 2.17035117985466774 -4.26676399011716878 5.94797511445777438  1.03834669984748063 4.21576949327420802 -3.10068657806030634 6.14198984926038438  1.03834669984760275 5.54270202294594050 -0.83343373274013177 6.33604787919927404  1.03834669984730099 5.48512387349072661 2.02707846814776227 6.53003730038911989  1.03834669984779593 3.76954132700684630 4.47029377203311817 6.72409547916107719  1.03834669984722150 1.09890070923229310 5.49638612717397734 6.91810815477583585  1.03834669984770822 -1.48435785806004450 5.01827030718296285 7.11213977521090168  1.03834669984740824 -3.27586850406388264 3.49062719782907749 7.30616789691339541  1.03834669984753325 -4.77254253775065429 -0.37233051404824880 7.69422258908239520  1.03834669984748218 -4.47793211427154070 -2.70822303720817015 7.88825047459353268  1.03834669984759209 -2.89113673282556283 -4.80201941175394786 8.08228321978394249  1.03834669984733763 -0.22627615886321803 -5.84304623188071215 8.27629308085847981  1.03834669984773087 2.68750065487114220 -5.19358960148649818 8.47035564289838305  1.03834669984728811 4.65743033420127350 -3.11844578163927100 8.66434068470073626  1.03834669984766093 5.20433379648743877 -0.54911135020713242 8.85840147752299778  1.03834669984743111 4.47853620793908291 1.69071420008675211 9.05241519124528793  1.03834669984752725 2.98046351381601626 3.12122266839518669 9.24644400338637595  1.03834669984750638 1.48238221160967854 4.55172175975900295 9.44047963430497106  1.03834669984749373 -0.78847487248052173 5.17352429503214317 9.63448339121617536  1.03834669984755568 -3.32996437213113916 4.50859907085035250 9.82855524522569368  1.03834669984741512 -5.31192127608273612 2.44521622380966130 10.02253055749504185  1.03834669984761563 -5.82644886954667562 -0.49551317614140322 10.21660038986299135  1.03834669984740935 -4.66356910444239059 -3.10948826795213629 10.41060538702389771  1.03834669984757144 -2.49885445253767369 -4.59805380054229929 10.60464090518201097  1.03834669984747707 -0.15185726222861995 -4.78463475470225852 10.79866762232711963  1.03834669984751260 3.63797485079698646 -3.11141986412861504 11.18672286366714985  1.03834669984750483 5.08137737975861992 -1.25137320085962300 11.38074934462851928  1.03834669984750683 5.43988744368911181 1.35119811922669775 11.57478598753589338  1.03834669984750927 4.29165054365423337 3.97165599749310916 11.76878817012877931  1.03834669984749439 1.77208438554464442 5.57277277202097743 11.96286238585899753  1.03834669984752193 -1.08823956431915114 5.49837421258483516 12.15683331858547511  1.03834669984749484 -3.29172775259725459 4.06830056913419114 12.35090793564564571  1.03834669984751149 -4.36232695260657533 1.97128748869778514 12.54491067135417381  1.03834669984750527 -4.31453920879923025 -0.09953155291531091 12.73894647466010710  1.03834669984750638 
3.21307400134450072 -0.00000000000000064 -0.00000000000000355  0.85353433019614966 3.21307400134582588 1.54213305130901923 0.19404847489726684  0.85353433019616443 2.38024433592708107 3.08469825752886528 0.38801230140589205  0.85353433019610014 0.71553934524502327 4.11100303794890909 0.58215858332899817  0.85353433019624803 -1.41462540545680371 4.11768761905207992 0.77604387988934853  0.85353433019601255 -3.26255197856414192 2.88227927109552384 0.97018700356457988  0.85353433019628011 -4.07216386409008901 0.91239137527531089 1.16415172574463366  0.85353433019606639 -3.76064569087121869 -1.01867817119126980 1.35820114802898662  0.85353433019618064 -2.65436358587216370 -2.37833260282628123 1.55222585298172966  0.85353433019614844 0.19518280303350452 -3.55865363432058190 1.94028058940701431  0.85353433019613933 1.93886327913050160 -3.37949262666325323 2.13430529436068284  0.85353433019621983 3.52461244863975054 -2.23429712520218970 2.32835471664042259  0.85353433019598723 4.34505180254153700 -0.26889411461839430 2.52231943883289134  0.85353433019638070 3.91193636478828077 1.91135298720516866 2.71646256248591644  0.85353433019592773 2.40095595595092259 3.41288045942294227 2.91034785907513260  0.85353433019629965 0.49812477126280019 3.86429788600979229 3.10449414096892129  0.85353433019607960 -1.18153313158365081 3.36243934436768743 3.29845796750163389  0.85353433019616909 -2.27198604649995506 2.27198678312490632 3.49250644238313379  0.85353433019614910 -3.36243982569556232 1.18153300388851901 3.68653670603599748  0.85353433019617830 -3.86429700744605942 -0.49812318577691139 3.88052907924268142  0.85353433019604730 -3.41288193855765121 -2.40095649214528217 4.07463952229456439  0.85353433019635394 -1.91135263062595717 -3.91193506466011653 4.26856120672500161  0.85353433019588243 0.26889269800574839 -4.34505255805540713 4.46267454695526045  0.85353433019639446 2.23429694478588692 -3.52461242000058350 4.65665856392616107  0.85353433019599112 3.37949216284654730 -1.93886397646922437 4.85069853292367448  0.85353433019621971 3.55865363037465876 -0.19518335223410099 5.04472633740744048  0.85353433019613223 2.37833301989753121 2.65436318708911756 5.43278035801328585  0.85353433019616665 1.01867879972773867 3.76064554464289413 5.62680562498053671  0.85353433019608727 -0.91239073667208970 4.07216399038741805 5.82085433953827547  0.85353433019627867 -2.88227872249306216 3.26255246569329982 6.01481978402851247  0.85353433019597202 -4.11768740409165801 1.41462605836618960 6.20896231109769037  0.85353433019631830 -4.11100314582882032 -0.71553867044756714 6.40284800074681204  0.85353433019603842 -3.08469864671165706 -2.38024383935209993 6.59699408314728863  0.85353433019619951 -1.54213357137942864 -3.21307375046780974 6.79095798153580432  0.85353433019613623 -0.00000052087890328 -3.21307400135560650 6.98500644239830848  0.85353433019615044 1.54213400203959616 -3.21307400051980840 7.17903669196979966  0.85353433019613667 3.08469690431875643 -2.38024433926736512 7.37302913710018792  0.85353433019619929 4.11100457096339422 -0.71553933710737783 7.56713938058141977  0.85353433019604275 4.11768623252445121 1.41462539105178320 7.76106145815847803  0.85353433019630010 2.88228025849466540 3.26255199832141551 7.95517420171865730  0.85353433019600700 0.91239084395780856 4.07216384251973817 8.14915894105598859  0.85353433019624425 -1.01867797865769383 3.76064570977664747 8.34319820229203124  0.85353433019610592 -2.37833262876397811 2.65436357264299350 8.53722656880238340  0.85353433019616176 -3.55865364330685541 -0.19518277533935410 8.92527987359034825  0.85353433019613656 -3.37949250389837230 -1.93886342862537697 9.11930824006570973  0.85353433019620006 -2.23429748560669461 -3.52461205774184005 9.31334750140957546  0.85353433019605318 -0.26889343047845027 -4.34505251460066599 9.50733224054621573  0.85353433019626745 1.91135201707096058 -3.91193537432565774 9.70144498438001612  0.85353433019605063 3.41288153760506852 -2.40095704557310263 9.89536706166328628  0.85353433019620661 3.86429693152743159 -0.49812381212961632 10.08947730540344168  0.85353433019612812 3.36244001606299436 1.18153245877845703 10.28346975033889166  0.85353433019615454 2.27198641480688446 2.27198641480348362 10.47750000004306337  0.85353433019614966 1.18153367673195842 3.36243915288331907 10.67154847479552160  0.85353433019613656 -0.49812414499925967 3.86429796661696656 10.86551230155130376  0.85353433019619895 -2.40095540238021510 3.41288084885615639 11.05965858317999206  0.85353433019605585 -3.91193605528042898 1.91135362118794161 11.25354388000335781  0.85353433019626723 -4.34505184587904392 -0.26889341014257639 11.44768700350060620  0.85353433019604497 -3.52461281095526946 -2.23429655385070625 11.64165172576893426  0.85353433019621572 -1.93886382695866333 -3.37949231235058267 11.83570114802405904  0.85353433019612168 -0.19518337992936297 -3.55865360268035857 12.02972585298175012  0.85353433019615543 2.65436320031823803 -2.37833303312619471 12.41778058940706586  0.85353433019614655 3.76064552575121969 -1.01867878082223351 12.61180529435643649  0.85353433019615810 4.07216401189896704 0.91239071509482395 12.80585471666150177  0.85353433019613889 3.26255244606294825 2.88227874226845149 12.99981943877783408  0.85353433019615299 1.41462607260163531 4.11768738966472903 13.19396256258078992  0.85353433019615443 -0.71553867843749086 4.11100315397559335 13.38784785895662921  0.85353433019614056 -2.38024383609667378 3.08469864338151600 13.58199414108034908  0.85353433019615776 -3.21307375126949513 1.54213357218742120 13.77595796742415857  0.85353433019614644 -3.21307400135636367 0.00000052087542698 13.97000644241919787  0.85353433019614966 
4.31454367614370948 -0.09953175271994490 1.23105599662951626  1.03834669984750683 4.36233151581988743 1.97128943313438665 1.42509179984285073  1.03834669984752082 3.29173125378812159 4.06830470944452216 1.61909453578628693  1.03834669984746020 1.08824081490397018 5.49837988491293750 1.81316915245128296  1.03834669984759831 -1.77208609645437454 5.57277858374170432 2.00714008563150870  1.03834669984737848 -4.29165490044169928 3.97166020881547732 2.20121430100203419  1.03834669984762762 -5.43989304875812518 1.35119964052885111 2.39521648378950225  1.03834669984743400 -5.08138267174704517 -1.25137438323601868 2.58925312663054097  1.03834669984752881 -3.63797868921529455 -3.11142300580461129 2.78327960760155069  1.03834669984751127 0.15185731231076888 -4.78463971464849980 3.17133484894362550  1.03834669984748618 2.49885693818963306 -4.59805861974696395 3.36536156609412052  1.03834669984762717 4.66357386555398179 -3.10949159394616137 3.55939708421241363  1.03834669984722727 5.82645489493395186 -0.49551381947347373 3.75340208148760812  1.03834669984791694 5.31192683274339128 2.44521863714868326 3.94747191365216432  1.03834669984709516 3.32996792355494353 4.50860366729937745 4.14144722615864858  1.03834669984779637 0.78847580482139157 5.17352963656949871 4.33551907999601127  1.03834669984736805 -1.48238364511670517 4.55172650825513969 4.52952283697119107  1.03834669984754502 -2.98046653143051454 3.12122596857841783 4.72355846788899925  1.03834669984750616 -4.47854080997014758 1.69071604207716564 4.91758728537752265  1.03834669984754391 -5.20433919806154588 -0.54911176199566136 5.11160097166600735  1.03834669984737515 -4.65743523382747870 -3.11844900656518398 5.30566184074943514  1.03834669984776617 -2.68750354678503367 -5.19359474643148022 5.49964673210511101  1.03834669984717332 0.22627625101699375 -5.84305252985055823 5.69370952271921826  1.03834669984780503 2.89113963217423686 -4.80202418934195929 5.88771910687576394  1.03834669984732120 4.47793668209159712 -2.70822617241620289 6.08175212349171002  1.03834669984758343 4.77254748059708689 -0.37233084626129520 6.27577979342432712  1.03834669984749017 3.27587196083864640 3.49063040453688389 6.66383476018240017  1.03834669984752148 1.48435958925211908 5.01827728587873523 6.85786169291763859  1.03834669984745731 -1.09890193616563114 5.49638710388730178 7.05189693955943930  1.03834669984760231 -3.76954474620783486 4.47030712514848005 7.24590221389989253  1.03834669984738759 -5.48513004671215487 2.02706867611747299 7.43997181722514611  1.03834669984760586 -5.54270719303610360 -0.83342125444581838 7.63394728049906846  1.03834669984745154 -4.21577445000249629 -3.10070132990669345 7.82801905781863727  1.03834669984752703 -2.17035315889493985 -4.26676020066120820 8.02202284235347740  1.03834669984750216 -0.09953195252970078 -4.31454814348203630 8.21605846789506344  1.03834669984750771 1.97128979093865242 -4.36232336153790268 8.41008727998459449  1.03834669984747685 4.06830421873994208 -3.29174286092498924 8.60410099385133265  1.03834669984762162 5.49838040345404799 -1.08822766380089675 8.79816178640271218  1.03834669984726080 5.57277817519415386 1.77207419927313903 8.99214682853948233  1.03834669984785499 3.97166041827993244 4.29166337653886121 9.18620939029798222  1.03834669984716488 1.35119962163683982 5.43988848358443278 9.38021925153653946  1.03834669984774641 -1.25137447149494663 5.08138433028403291 9.57425199666424831  1.03834669984739358 -3.11142290229667662 3.63797846168201566 9.76827988218601462  1.03834669984753591 -4.78463995562025524 -0.15185737875664060 10.15633457436068454  1.03834669984748285 -4.59805729041978850 -2.49885594254482957 10.35036269604923120  1.03834669984758676 -3.10949508506743699 -4.66357680706071243 10.54439431649116443  1.03834669984735295 -0.49550744937326946 -5.82644929961692704 10.73840699215292815  1.03834669984770533 2.44520976938198986 -5.31193477431920957 10.93246517078897817  1.03834669984732320 4.50861342685824695 -3.32995909363780340 11.12645459216318500  1.03834669984762917 5.17352104391319489 -0.78848362339191569 11.32051262196977603  1.03834669984744998 4.55173253645797526 1.48238914783927256 11.51452735679845318  1.03834669984752259 3.12122266843872609 2.98046351385824826 11.70855599664580282  1.03834669984750683 1.69072207071946701 4.47854632242728989 11.90259179979940285  1.03834669984748929 -0.54912035648947444 5.20433133941523440 12.09659453585511457  1.03834669984757122 -3.11843924251132432 4.65744416193908073 12.29066915237352475  1.03834669984738359 -5.19360362213469440 2.68749543094398780 12.48464008569611039  1.03834669984766115 -5.84304614892169472 -0.22627041636798004 12.67871430096372620  1.03834669984736672 -4.80202769222729220 -2.89114283516448234 12.87271648380434996  1.03834669984759920 -2.70822483281335158 -4.47793545718244612 13.06675312662757094  1.03834669984746863 -0.37233109441207635 -4.77254770750058910 13.26077960760157382  1.03834669984751149 3.49063052307012267 -3.27587185245458512 13.64883484894361132  1.03834669984751327 5.01827711652862440 -1.48435974410946758 13.84286156609193696  1.03834669984746353 5.49638729700205264 1.09890211278111583 14.03689708422362159  1.03834669984761119 4.47030694845168597 3.76954458455910535 14.23090208145863578  1.03834669984734718 2.02706880471225181 5.48513016440954448 14.42497191370037690  1.03834669984766759 -0.83342132685951220 5.54270712671699872 14.61894722610168529  1.03834669984739691 -3.10070130037817560 4.21577447707472253 14.81301908004582657  1.03834669984755634 -4.26676020782437249 2.17035315231328418 15.00702283693921757  1.03834669984749461 -4.31454814349750304 0.09953195252744079 15.20105846790269233  1.03834669984750683 
5.65000000000000124 -0.08703500697616522 1.07649030913957677  1.03672962320961148 5.69178781992623772 2.62478280275586151 1.27051063358086935  1.03672962320962347 4.26904668192403847 5.35951329575621127 1.46456122749086948  1.03672962320957196 1.36964271230349266 7.21012979210497207 1.65854710684704809  1.03672962320969053 -2.37606287798539872 7.27833645328718237 1.85262479803886837  1.03672962320949757 -5.65888538270202091 5.15724321685177145 2.04661253468807303  1.03672962320972251 -7.13596118993214557 1.71443847699956775 2.24066201865265491  1.03672962320954021 -6.64046489165604648 -1.68936710792791556 2.43468241490230852  1.03672962320963724 -4.73196712848403322 -4.11025762606674760 2.62871120717047191  1.03672962320961237 0.24682329297551603 -6.26297085334840720 3.01676706068815781  1.03672962320959750 3.31787456846728190 -5.99512152808316934 3.21079605948158298  1.03672962320969830 6.13710766831926069 -4.02452897544145038 3.40481547222622183  1.03672962320941209 7.63364977635854913 -0.59015253341659912 3.59886741729747195  1.03672962320989748 6.93015811530885539 3.25457368954030546 3.79285132108806966  1.03672962320933282 4.31481775254202304 5.93666281948573449 3.98693284174205465  1.03672962320980400 0.98037898648184041 6.78148572593164811 4.18091630517553892  1.03672962320952022 -1.98652000857938438 5.94469537032679352 4.37496779190634744  1.03672962320963680 -3.93361316630346636 4.05669898562010633 4.56898796569511578  1.03672962320961082 -5.88069819271702077 2.16869524425935101 4.76301491455287884  1.03672962320964945 -6.80842759590332403 -0.77106949247626411 4.95705512448570929  1.03672962320947737 -6.06680674985422730 -4.12985579586096296 5.15105404037228176  1.03672962320987483 -3.46643867775118597 -6.82668416662007083 5.34511849533615280  1.03672962320927420 0.35472017717360560 -7.64816296083534919 5.53911706582758434  1.03672962320991346 3.83359240050992067 -6.25817483093744364 5.73315953123719790  1.03672962320941942 5.89008186869339223 -3.50095588407077907 5.92718336615755881  1.03672962320969586 6.25239686694069263 -0.43961480745752246 6.12121103095856078  1.03672962320958950 4.25405884058340611 4.60311949059297554 6.50926714485860014  1.03672962320963524 1.89309933142574160 6.58528282790717334 6.70329593921678946  1.03672962320952000 -1.49381855000455199 7.18536202495541243 6.89731560940095534  1.03672962320980222 -4.98050481892438235 5.81510652111469906 7.09136729172549618  1.03672962320935191 -7.20169281077060131 2.59903056984012526 7.28535141254025476  1.03672962320985307 -7.24889149337550798 -1.14681758714838034 7.47943279019949347  1.03672962320945516 -5.48846714679520975 -4.10200193742341845 7.67341632621453940  1.03672962320967987 -2.79885264574219450 -5.60821617173002984 7.86746778679859204  1.03672962320959372 -0.08703481751102707 -5.65000390643177397 8.06148796569030779  1.03672962320961237 2.62478245090261586 -5.69178069003475251 8.25551491967476991  1.03672962320958884 5.35951381280454076 -4.26905682939087594 8.44955510342290239  1.03672962320969653 7.21012917367965134 -1.36963121807541555 8.64355409194864777  1.03672962320943229 7.27833706547529680 2.37605248462436114 8.83761840384749320  1.03672962320985573 5.15724270964140885 5.65889278076977309 9.03161719142817887  1.03672962320938788 1.71443883196888192 7.13595721302097807 9.22565939404670843  1.03672962320975293 -1.68936731972172560 6.64046632873632792 9.41968348642777187  1.03672962320955042 -4.11025751741967849 4.73196693876858543 9.61371094678768046  1.03672962320962814 -6.26297105778157270 -0.24682337044225330 10.00176732106949906  1.03672962320959305 -5.99512045150632122 -3.31787359329953624 10.19579498796996297  1.03672962320968365 -4.02453177619737890 -6.13711051384345829 10.38981809679179946  1.03672962320947093 -0.59014744155538090 -7.63364438564024095 10.58386276063240317  1.03672962320978779 3.25456661359648969 -6.93016575237299826 10.77785771518047753  1.03672962320945383 5.93667059973413203 -4.31480926935895681 10.97192585673656495  1.03672962320971318 6.78147887953479600 -0.98038649402901767 11.16592242917296929  1.03672962320956663 5.94470017201000367 1.98652529082396656 11.35996350585337566  1.03672962320962325 4.05669635735363432 3.93361027009243402 11.55399030912313307  1.03672962320961148 2.16870004553215834 5.88070348347465277 11.74801063360935593  1.03672962320960460 -0.77107633721550961 6.80842005331453226 11.94206122746447463  1.03672962320963813 -4.12984801967681392 6.06681531889721182 12.13604710685837773  1.03672962320956841 -6.82669123531155986 3.46643088831099178 12.33012479804166261  1.03672962320964901 -7.64815787900426791 -0.35471457718133004 12.52411253468150676  1.03672962320959394 -6.25817762066938332 -3.83359547468256334 12.71816201865622453  1.03672962320961282 -3.50095481719725754 -5.89008069304778203 12.91218241490147278  1.03672962320961548 -0.43961500508752310 -6.25239708471849731 13.10621120717054922  1.03672962320960882 4.60311958499422236 -4.25405873655839173 13.49426706068807036  1.03672962320961703 6.58528269303643299 -1.89309948005938411 13.68829605948166162  1.03672962320958684 7.18536217874593497 1.49381871953774836 13.88231547222634710  1.03672962320967277 5.81510638041064176 4.98050466373034428 14.07636741729839436  1.03672962320950601 2.59903067222809137 7.20169292379610493 14.27035132108203186  1.03672962320973228 -1.14681764479790482 7.24889142967367750 14.46443284175738953  1.03672962320951689 -4.10200191391802438 5.48846717280131013 14.65841630515239125  1.03672962320965967 -5.60821617743144163 2.79885263942196927 14.85246779192861943  1.03672962320959838 -5.65000390644539685 0.08703481750892939 15.04648796568196722  1.03672962320961148 

0.00000000000000000 6
6.28318530717958623 6

0.00000000000000000 10
4.65930358351004692 8
9.31860716702009384 9
13.97791075053014076 8
18.63721433404018768 9
23.29651791755023282 8
27.95582150106028152 9
32.61512508457033022 8
37.27442866808037536 10

1 5.00010297510266266 -0.00000000000000019 -0.00000000000000042 0.00000000000000018 0.99674751830830999 0.08058774563310074 0.00000000000000000 -0.08058774563310074 0.99674751830830999 1.00000000000000000 -0.00000000000000018 -0.00000000000000001 
1 0.00000000000000000 0.00000000000000000 0.00000000000000000 0.00000000000000000 0.00000000000000000 1.00000000000000000 1.00000000000000000 0.00000000000000000 0.00000000000000000 0.00000000000000000 1.00000000000000000 0.00000000000000000 
1 -5.00010297510283674 -0.00000000002883934 13.96999999962873318 0.00000000000004321 -0.99674751830817365 0.08058774563478603 0.00000000000000000 -0.08058774563478603 -0.99674751830817365 1.00000000000000000 0.00000000000004307 -0.00000000000000348 
1 0.00000000000000000 0.00000000000000000 14.00000000000000000 0.00000000000000000 0.00000000000000000 1.00000000000000000 1.00000000000000000 0.00000000000000000 0.00000000000000000 0.00000000000000000 1.00000000000000000 0.00000000000000000 
Triangulations 0

TShapes 28
Ve
0.000005000000005
4.350174231650079 0.001212760666360 0.000000000000000
0 0

0101101
*
Ve
0.000017161602645
5.650000000000001 0.000000000000000 0.014999999999998
0 0

0101101
*
Ed
 0.000000100000000 1 1 0
1  1 0 3.118438359461744 6.283185307179586
2  1 1 0 3.118438359461744 6.283185307179586
0

0101000
+28 4 -27 4 *
Ve
0.000005000000005
5.649825768349924 0.001212760666360 0.000000000000000
0 0

0101101
*
Ed
 0.000005000000000 1 1 0
1  2 0 0.000000000000000 1.000000000000000
2  2 1 2 0.000000000000000 1.000000000000000
0

0101000
+25 5 -28 5 *
Ed
 0.000000100000000 1 1 0
1  3 0 0.000000000000000 0.023482313922208
2  3 1 0 0.000000000000000 0.023482313922208
0

0101000
+27 4 -25 4 *
Ve
0.000017161602645
-5.649999999995919 -0.000000189468483 13.984997656549583
0 0

0101101
*
Ed
 0.000000100000000 1 1 0
1  4 0 0.000000000000000 37.274428668080375
3  4 5G1 1 0 0.000000000000000 37.274428668080375
0

0101000
+27 4 -22 4 *
Ve
0.000005000000007
-4.350174231650252 0.001212760667591 14.000000000000005
0 0

0101101
*
Ed
 0.000000100000000 1 1 0
1  5 0 0.000000000000000 3.164743330645064
2  6 1 0 0.000000000000000 3.164743330645064
0

0101000
+22 4 -20 4 *
Ve
0.000005000000023
-5.649825768350093 0.001212760667537 14.000000000000023
0 0

0101101
*
Ed
 0.000005000000000 1 1 0
1  6 0 0.000000000000000 1.000000000000000
2  7 1 2 0.000000000000000 1.000000000000000
0

0101000
+18 5 -20 5 *
Ed
 0.000000100000000 1 1 0
1  7 0 6.259699326767694 6.283185307179586
2  8 1 0 6.259699326767694 6.283185307179586
0

0101000
+18 4 -22 4 *
Wi

0101100
+26 2 +24 0 +23 2 -21 2 -19 2 +17 0 -16 2 +21 2 *
Fa
0  0.000000100000000 1 2

0111000
+15 0 *
Ed
 0.000000150000000 1 1 0
1  8 0 1.850122744098747 3.149774280798593
0

0101000
+28 5 -25 5 *
Wi

0101100
+26 2 -13 0 +23 2 *
Fa
0  0.000000100000000 2 2

0111000
+12 0 *
Wi

0101100
+13 0 +24 0 *
Fa
0  0.000000100000000 3 0

0111000
+10 0 *
Ed
 0.000000150000000 1 1 0
1  9 0 1.850122744098833 3.149774280798674
0

0101000
+20 5 -18 5 *
Wi

0101100
+16 2 +8 0 +19 2 *
Fa
0  0.000000100000000 4 2

0111000
+7 0 *
Wi

0101100
-17 0 -8 0 *
Fa
0  0.000000100000000 5 0

0111000
+5 0 *
Sh

0101100
+14 0 -11 0 -9 0 +6 0 +4 0 *
So

0100000
+3 0 *
Co

1100000
+2 0 *

+1 1 