
CASCADE Topology V1, (c) Matra-Datavision
Locations 65
1
1.000000000000000 0.000000000000000 0.000000000000000 0.000000000000000 
0.000000000000000 1.000000000000000 0.000000000000000 0.000000000000000 
0.000000000000000 0.000000000000000 1.000000000000000 0.000000000000000 
1
0.000000000000000 0.000000000000000 1.000000000000000 1425.575000000000045 
0.000000000000000 1.000000000000000 0.000000000000000 -1165.224999999999909 
-1.000000000000000 0.000000000000000 0.000000000000000 533.049999999999955 
1
1.000000000000000 0.000000000000000 0.000000000000000 0.000000000000000 
0.000000000000000 1.000000000000000 0.000000000000000 0.000000000000000 
0.000000000000000 0.000000000000000 1.000000000000000 0.000000000000000 
1
1.000000000000000 0.000000000000000 0.000000000000000 0.000000000000000 
0.000000000000000 1.000000000000000 0.000000000000000 0.000000000000000 
0.000000000000000 0.000000000000000 1.000000000000000 0.000000000000000 
2  2 1 3 1 4 1 0
1
1.000000000000000 0.000000000000000 0.000000000000000 0.000000000000000 
0.000000000000000 1.000000000000000 0.000000000000000 0.000000000000000 
0.000000000000000 0.000000000000000 1.000000000000000 0.000000000000000 
2  6 -1 4 -1 3 -1 2 -1 0
1
1.000000000000000 0.000000000000000 0.000000000000000 0.000000000000000 
0.000000000000000 1.000000000000000 0.000000000000000 0.000000000000000 
0.000000000000000 0.000000000000000 1.000000000000000 0.000000000000000 
1
0.000000000000000 0.000000000000000 1.000000000000000 1425.575000000000045 
0.000000000000000 1.000000000000000 0.000000000000000 -1165.224999999999909 
-1.000000000000000 0.000000000000000 0.000000000000000 533.049999999999955 
1
0.000000000000000 0.000000000000000 1.000000000000000 1425.575000000000045 
0.000000000000000 1.000000000000000 0.000000000000000 -1165.224999999999909 
-1.000000000000000 0.000000000000000 0.000000000000000 533.049999999999955 
2  8 1 9 1 10 -1 0
2  6 -1 4 -1 3 -1 2 -1 10 1 9 -1 8 -1 0
1
1.000000000000000 0.000000000000000 0.000000000000000 -0.000000000000001 
0.000000000000000 1.000000000000000 0.000000000000000 0.000000000000000 
0.000000000000000 0.000000000000000 1.000000000000000 12.000000000000000 
2  8 1 9 1 10 -1 13 1 0
2  6 -1 4 -1 3 -1 2 -1 13 -1 10 1 9 -1 8 -1 0
2  10 -1 2 1 3 1 4 1 0
2  8 1 9 1 10 -1 2 1 3 1 4 1 0
1
1.000000000000000 0.000000000000000 0.000000000000000 0.000000000000000 
0.000000000000000 1.000000000000000 0.000000000000000 882.649999999999977 
0.000000000000000 0.000000000000000 1.000000000000000 0.000000000000000 
2  6 -1 0
1
1.000000000000000 0.000000000000000 0.000000000000000 0.000000000000000 
0.000000000000000 1.000000000000000 0.000000000000000 882.649999999999977 
0.000000000000000 0.000000000000000 1.000000000000000 0.000000000000000 
1
1.000000000000000 0.000000000000000 0.000000000000000 0.000000000000000 
0.000000000000000 1.000000000000000 0.000000000000000 882.649999999999977 
0.000000000000000 0.000000000000000 1.000000000000000 0.000000000000000 
1
1.000000000000000 0.000000000000000 0.000000000000000 0.000000000000000 
0.000000000000000 1.000000000000000 0.000000000000000 882.649999999999977 
0.000000000000000 0.000000000000000 1.000000000000000 0.000000000000000 
1
1.000000000000000 0.000000000000000 0.000000000000000 0.000000000000000 
0.000000000000000 1.000000000000000 0.000000000000000 882.649999999999977 
0.000000000000000 0.000000000000000 1.000000000000000 0.000000000000000 
1
1.000000000000000 0.000000000000000 0.000000000000000 0.000000000000000 
0.000000000000000 1.000000000000000 0.000000000000000 882.649999999999977 
0.000000000000000 0.000000000000000 1.000000000000000 0.000000000000000 
2  6 -1 4 -1 0
1
1.000000000000000 0.000000000000000 0.000000000000000 0.000000000000000 
0.000000000000000 1.000000000000000 0.000000000000000 882.649999999999977 
0.000000000000000 0.000000000000000 1.000000000000000 0.000000000000000 
1
1.000000000000000 0.000000000000000 0.000000000000000 0.000000000000000 
0.000000000000000 1.000000000000000 0.000000000000000 882.649999999999977 
0.000000000000000 0.000000000000000 1.000000000000000 0.000000000000000 
1
1.000000000000000 0.000000000000000 0.000000000000000 0.000000000000000 
0.000000000000000 1.000000000000000 0.000000000000000 882.649999999999977 
0.000000000000000 0.000000000000000 1.000000000000000 0.000000000000000 
1
1.000000000000000 0.000000000000000 0.000000000000000 0.000000000000000 
0.000000000000000 1.000000000000000 0.000000000000000 882.649999999999977 
0.000000000000000 0.000000000000000 1.000000000000000 0.000000000000000 
1
1.000000000000000 0.000000000000000 0.000000000000000 0.000000000000000 
0.000000000000000 1.000000000000000 0.000000000000000 882.649999999999977 
0.000000000000000 0.000000000000000 1.000000000000000 0.000000000000000 
1
1.000000000000000 0.000000000000000 0.000000000000000 0.000000000000000 
0.000000000000000 1.000000000000000 0.000000000000000 -882.649999999999977 
0.000000000000000 0.000000000000000 1.000000000000000 0.000000000000000 
1
1.000000000000000 0.000000000000000 0.000000000000000 0.000000000000000 
0.000000000000000 1.000000000000000 0.000000000000000 -882.649999999999977 
0.000000000000000 0.000000000000000 1.000000000000000 0.000000000000000 
1
1.000000000000000 0.000000000000000 0.000000000000000 0.000000000000000 
0.000000000000000 1.000000000000000 0.000000000000000 -882.649999999999977 
0.000000000000000 0.000000000000000 1.000000000000000 0.000000000000000 
1
1.000000000000000 0.000000000000000 0.000000000000000 0.000000000000000 
0.000000000000000 1.000000000000000 0.000000000000000 -882.649999999999977 
0.000000000000000 0.000000000000000 1.000000000000000 0.000000000000000 
1
1.000000000000000 0.000000000000000 0.000000000000000 0.000000000000000 
0.000000000000000 1.000000000000000 0.000000000000000 -882.649999999999977 
0.000000000000000 0.000000000000000 1.000000000000000 0.000000000000000 
1
1.000000000000000 0.000000000000000 0.000000000000000 0.000000000000000 
0.000000000000000 1.000000000000000 0.000000000000000 -882.649999999999977 
0.000000000000000 0.000000000000000 1.000000000000000 0.000000000000000 
1
1.000000000000000 0.000000000000000 0.000000000000000 0.000000000000000 
0.000000000000000 1.000000000000000 0.000000000000000 -882.649999999999977 
0.000000000000000 0.000000000000000 1.000000000000000 0.000000000000000 
1
1.000000000000000 0.000000000000000 0.000000000000000 0.000000000000000 
0.000000000000000 1.000000000000000 0.000000000000000 -882.649999999999977 
0.000000000000000 0.000000000000000 1.000000000000000 0.000000000000000 
1
1.000000000000000 0.000000000000000 0.000000000000000 0.000000000000000 
0.000000000000000 1.000000000000000 0.000000000000000 -882.649999999999977 
0.000000000000000 0.000000000000000 1.000000000000000 0.000000000000000 
1
1.000000000000000 0.000000000000000 0.000000000000000 0.000000000000000 
0.000000000000000 1.000000000000000 0.000000000000000 -882.649999999999977 
0.000000000000000 0.000000000000000 1.000000000000000 0.000000000000000 
1
1.000000000000000 0.000000000000000 0.000000000000000 0.000000000000000 
0.000000000000000 1.000000000000000 0.000000000000000 -882.649999999999977 
0.000000000000000 0.000000000000000 1.000000000000000 0.000000000000000 
2  10 -1 13 1 2 1 3 1 4 1 0
2  8 1 9 1 10 -1 13 1 2 1 3 1 4 1 0
2  6 -1 18 -1 0
2  6 -1 20 -1 0
2  6 -1 21 -1 0
2  6 -1 22 -1 0
2  6 -1 23 -1 0
2  6 -1 24 -1 0
2  6 -1 26 -1 0
2  6 -1 27 -1 0
2  6 -1 28 -1 0
2  6 -1 29 -1 0
2  6 -1 30 -1 0
2  6 -1 31 -1 0
2  6 -1 32 -1 0
2  6 -1 33 -1 0
2  6 -1 34 -1 0
2  6 -1 35 -1 0
2  6 -1 36 -1 0
2  6 -1 37 -1 0
2  6 -1 38 -1 0
2  6 -1 39 -1 0
2  6 -1 40 -1 0
2  6 -1 41 -1 0
Curve2ds 120
1 0.00000000000000000 7.00000000000000000 1.00000000000000000 0.00000000000000000 
1 0.00000000000000000 7.00000000000000000 1.00000000000000000 0.00000000000000000 
1 0.00000000000000000 7.00000000000000000 1.00000000000000000 0.00000000000000000 
1 0.00000000000000000 7.00000000000000000 1.00000000000000000 0.00000000000000000 
1 0.00000000000000000 7.00000000000000000 1.00000000000000000 0.00000000000000000 
1 0.00000000000000000 7.00000000000000000 1.00000000000000000 0.00000000000000000 
1 0.00000000000000000 1.00000000000000000 1.00000000000000000 0.00000000000000000 
1 0.00000000000000000 1.00000000000000000 1.00000000000000000 0.00000000000000000 
1 0.00000000000000000 1.00000000000000000 1.00000000000000000 0.00000000000000000 
1 0.00000000000000000 1.00000000000000000 1.00000000000000000 0.00000000000000000 
1 0.00000000000000000 7.00000000000000000 1.00000000000000000 0.00000000000000000 
1 0.00000000000000000 7.00000000000000000 1.00000000000000000 0.00000000000000000 
1 0.00000000000000000 7.00000000000000000 1.00000000000000000 0.00000000000000000 
1 0.00000000000000000 7.00000000000000000 1.00000000000000000 0.00000000000000000 
1 0.00000000000000000 7.00000000000000000 1.00000000000000000 0.00000000000000000 
1 0.00000000000000000 7.00000000000000000 1.00000000000000000 0.00000000000000000 
1 0.00000000000000000 7.00000000000000000 1.00000000000000000 0.00000000000000000 
1 0.00000000000000000 7.00000000000000000 1.00000000000000000 0.00000000000000000 
1 0.00000000000000000 7.00000000000000000 1.00000000000000000 0.00000000000000000 
1 0.00000000000000000 7.00000000000000000 1.00000000000000000 0.00000000000000000 
1 0.00000000000000000 7.00000000000000000 1.00000000000000000 0.00000000000000000 
1 0.00000000000000000 7.00000000000000000 1.00000000000000000 0.00000000000000000 
1 0.00000000000000000 1.00000000000000000 1.00000000000000000 0.00000000000000000 
1 0.00000000000000000 1.00000000000000000 1.00000000000000000 0.00000000000000000 
1 0.00000000000000000 1.00000000000000000 1.00000000000000000 0.00000000000000000 
1 0.00000000000000000 1.00000000000000000 1.00000000000000000 0.00000000000000000 
1 0.00000000000000000 7.00000000000000000 1.00000000000000000 0.00000000000000000 
1 0.00000000000000000 7.00000000000000000 1.00000000000000000 0.00000000000000000 
1 0.00000000000000000 7.00000000000000000 1.00000000000000000 0.00000000000000000 
1 0.00000000000000000 7.00000000000000000 1.00000000000000000 0.00000000000000000 
1 0.00000000000000000 19.00000000000000000 1.00000000000000000 0.00000000000000000 
1 0.00000000000000000 19.00000000000000000 1.00000000000000000 0.00000000000000000 
1 0.00000000000000000 19.00000000000000000 1.00000000000000000 0.00000000000000000 
1 0.00000000000000000 19.00000000000000000 1.00000000000000000 0.00000000000000000 
1 0.00000000000000000 19.00000000000000000 1.00000000000000000 0.00000000000000000 
1 0.00000000000000000 19.00000000000000000 1.00000000000000000 0.00000000000000000 
1 0.00000000000000000 13.00000000000000000 1.00000000000000000 0.00000000000000000 
1 0.00000000000000000 13.00000000000000000 1.00000000000000000 0.00000000000000000 
1 0.00000000000000000 13.00000000000000000 1.00000000000000000 0.00000000000000000 
1 0.00000000000000000 13.00000000000000000 1.00000000000000000 0.00000000000000000 
1 0.00000000000000000 19.00000000000000000 1.00000000000000000 0.00000000000000000 
1 0.00000000000000000 19.00000000000000000 1.00000000000000000 0.00000000000000000 
1 0.00000000000000000 19.00000000000000000 1.00000000000000000 0.00000000000000000 
1 0.00000000000000000 19.00000000000000000 1.00000000000000000 0.00000000000000000 
1 0.00000000000000000 19.00000000000000000 1.00000000000000000 0.00000000000000000 
1 0.00000000000000000 19.00000000000000000 1.00000000000000000 0.00000000000000000 
1 0.00000000000000000 19.00000000000000000 1.00000000000000000 0.00000000000000000 
1 0.00000000000000000 19.00000000000000000 1.00000000000000000 0.00000000000000000 
1 0.00000000000000000 19.00000000000000000 1.00000000000000000 0.00000000000000000 
1 0.00000000000000000 19.00000000000000000 1.00000000000000000 0.00000000000000000 
1 0.00000000000000000 19.00000000000000000 1.00000000000000000 0.00000000000000000 
1 0.00000000000000000 19.00000000000000000 1.00000000000000000 0.00000000000000000 
1 0.00000000000000000 13.00000000000000000 1.00000000000000000 0.00000000000000000 
1 0.00000000000000000 13.00000000000000000 1.00000000000000000 0.00000000000000000 
1 0.00000000000000000 13.00000000000000000 1.00000000000000000 0.00000000000000000 
1 0.00000000000000000 13.00000000000000000 1.00000000000000000 0.00000000000000000 
1 0.00000000000000000 19.00000000000000000 1.00000000000000000 0.00000000000000000 
1 0.00000000000000000 19.00000000000000000 1.00000000000000000 0.00000000000000000 
1 0.00000000000000000 19.00000000000000000 1.00000000000000000 0.00000000000000000 
1 0.00000000000000000 19.00000000000000000 1.00000000000000000 0.00000000000000000 
1 6.28318530717958623 -0.00000000000000000 0.00000000000000000 1.00000000000000000 
1 0.00000000000000000 -0.00000000000000000 0.00000000000000000 1.00000000000000000 
1 6.28318530717958623 -0.00000000000000000 0.00000000000000000 1.00000000000000000 
1 0.00000000000000000 -0.00000000000000000 0.00000000000000000 1.00000000000000000 
1 6.28318530717958623 -0.00000000000000000 0.00000000000000000 1.00000000000000000 
1 0.00000000000000000 -0.00000000000000000 0.00000000000000000 1.00000000000000000 
1 6.28318530717958623 -0.00000000000000000 0.00000000000000000 1.00000000000000000 
1 0.00000000000000000 -0.00000000000000000 0.00000000000000000 1.00000000000000000 
1 6.28318530717958623 -0.00000000000000000 0.00000000000000000 1.00000000000000000 
1 0.00000000000000000 -0.00000000000000000 0.00000000000000000 1.00000000000000000 
1 6.28318530717958623 -0.00000000000000000 0.00000000000000000 1.00000000000000000 
1 0.00000000000000000 -0.00000000000000000 0.00000000000000000 1.00000000000000000 
1 4.71238898038468967 0.00000000000000000 0.00000000000000000 1.00000000000000000 
1 3.14159265358979312 0.00000000000000000 0.00000000000000000 1.00000000000000000 
1 3.14159265358979312 0.00000000000000000 0.00000000000000000 1.00000000000000000 
1 4.71238898038468967 0.00000000000000000 0.00000000000000000 1.00000000000000000 
1 1.57079632679489656 0.00000000000000000 0.00000000000000000 1.00000000000000000 
1 6.28318530717958623 -0.00000000000000000 0.00000000000000000 1.00000000000000000 
1 1.57079632679489656 0.00000000000000000 0.00000000000000000 1.00000000000000000 
1 0.00000000000000000 0.00000000000000000 0.00000000000000000 1.00000000000000000 
1 6.28318530717958623 -0.00000000000000000 0.00000000000000000 1.00000000000000000 
1 0.00000000000000000 -0.00000000000000000 0.00000000000000000 1.00000000000000000 
1 6.28318530717958623 -0.00000000000000000 0.00000000000000000 1.00000000000000000 
1 0.00000000000000000 -0.00000000000000000 0.00000000000000000 1.00000000000000000 
1 6.28318530717958623 -0.00000000000000000 0.00000000000000000 1.00000000000000000 
1 0.00000000000000000 -0.00000000000000000 0.00000000000000000 1.00000000000000000 
1 6.28318530717958623 -0.00000000000000000 0.00000000000000000 1.00000000000000000 
1 0.00000000000000000 -0.00000000000000000 0.00000000000000000 1.00000000000000000 
1 6.28318530717958623 -0.00000000000000000 0.00000000000000000 1.00000000000000000 
1 0.00000000000000000 -0.00000000000000000 0.00000000000000000 1.00000000000000000 
1 6.28318530717958623 -0.00000000000000000 0.00000000000000000 1.00000000000000000 
1 0.00000000000000000 -0.00000000000000000 0.00000000000000000 1.00000000000000000 
1 6.28318530717958623 -0.00000000000000000 0.00000000000000000 1.00000000000000000 
1 0.00000000000000000 -0.00000000000000000 0.00000000000000000 1.00000000000000000 
1 6.28318530717958623 -0.00000000000000000 0.00000000000000000 1.00000000000000000 
1 0.00000000000000000 -0.00000000000000000 0.00000000000000000 1.00000000000000000 
1 6.28318530717958623 -0.00000000000000000 0.00000000000000000 1.00000000000000000 
1 0.00000000000000000 -0.00000000000000000 0.00000000000000000 1.00000000000000000 
1 6.28318530717958623 -0.00000000000000000 0.00000000000000000 1.00000000000000000 
1 0.00000000000000000 -0.00000000000000000 0.00000000000000000 1.00000000000000000 
1 6.28318530717958623 -0.00000000000000000 0.00000000000000000 1.00000000000000000 
1 0.00000000000000000 -0.00000000000000000 0.00000000000000000 1.00000000000000000 
1 6.28318530717958623 -0.00000000000000000 0.00000000000000000 1.00000000000000000 
1 0.00000000000000000 -0.00000000000000000 0.00000000000000000 1.00000000000000000 
1 4.71238898038468967 0.00000000000000000 0.00000000000000000 1.00000000000000000 
1 3.14159265358979312 0.00000000000000000 0.00000000000000000 1.00000000000000000 
1 3.14159265358979312 0.00000000000000000 0.00000000000000000 1.00000000000000000 
1 4.71238898038468967 0.00000000000000000 0.00000000000000000 1.00000000000000000 
1 1.57079632679489656 0.00000000000000000 0.00000000000000000 1.00000000000000000 
1 6.28318530717958623 -0.00000000000000000 0.00000000000000000 1.00000000000000000 
1 1.57079632679489656 0.00000000000000000 0.00000000000000000 1.00000000000000000 
1 0.00000000000000000 0.00000000000000000 0.00000000000000000 1.00000000000000000 
1 6.28318530717958623 -0.00000000000000000 0.00000000000000000 1.00000000000000000 
1 0.00000000000000000 -0.00000000000000000 0.00000000000000000 1.00000000000000000 
1 6.28318530717958623 -0.00000000000000000 0.00000000000000000 1.00000000000000000 
1 0.00000000000000000 -0.00000000000000000 0.00000000000000000 1.00000000000000000 
1 6.28318530717958623 -0.00000000000000000 0.00000000000000000 1.00000000000000000 
1 0.00000000000000000 -0.00000000000000000 0.00000000000000000 1.00000000000000000 
1 6.28318530717958623 -0.00000000000000000 0.00000000000000000 1.00000000000000000 
1 0.00000000000000000 -0.00000000000000000 0.00000000000000000 1.00000000000000000 
Curves 126
1 0.00000000000000000 0.00000000000000000 0.00000000000000000 -0.00000000000000011 0.00000000000000000 1.00000000000000000 
1 0.00000000000000000 2330.44999999999981810 0.00000000000000000 -0.00000000000000011 0.00000000000000000 1.00000000000000000 
1 0.00000000000000000 0.00000000000000000 0.00000000000000000 0.00000000000000000 1.00000000000000000 0.00000000000000000 
1 0.00000000000000000 0.00000000000000000 0.00000000000000000 0.00000000000000000 1.00000000000000000 0.00000000000000000 
1 -996.30104364324176913 0.00000000000000000 -0.00000000000011061 -0.00000000000000011 0.00000000000000000 1.00000000000000000 
1 -996.30104364324176913 0.00000000000000000 0.00000000000000000 1.00000000000000000 0.00000000000000000 0.00000000000000000 
1 -996.30104364324176913 0.00000000000000000 0.00000000000000000 1.00000000000000000 0.00000000000000000 0.00000000000000000 
1 -996.30104364324176913 2330.44999999999981810 -0.00000000000011061 -0.00000000000000011 0.00000000000000000 1.00000000000000000 
1 0.00000000000000000 2330.44999999999981810 0.00000000000000000 -1.00000000000000000 0.00000000000000000 0.00000000000000000 
1 0.00000000000000000 2330.44999999999981810 0.00000000000000000 -1.00000000000000000 0.00000000000000000 0.00000000000000000 
1 -996.30104364324176913 2330.44999999999981810 0.00000000000000000 0.00000000000000000 -1.00000000000000000 0.00000000000000000 
2 1425.57500000000004547 926.71875000000000000 646.63555595655043362 1.00000000000000000 0.00000000000000000 -0.00000000000000000 0.00000000000000000 0.00000000000000000 1.00000000000000000 0.00000000000000000 -1.00000000000000000 0.00000000000000000 6.59999999999999964
2 1425.57500000000004547 838.58124999999995453 646.63555595655043362 1.00000000000000000 0.00000000000000000 -0.00000000000000000 0.00000000000000000 0.00000000000000000 1.00000000000000000 0.00000000000000000 -1.00000000000000000 0.00000000000000000 6.59999999999999964
2 1425.57500000000004547 985.78750000000002274 711.63555595655043362 1.00000000000000000 0.00000000000000000 -0.00000000000000000 0.00000000000000000 0.00000000000000000 1.00000000000000000 0.00000000000000000 -1.00000000000000000 0.00000000000000000 6.59999999999999964
2 1425.57500000000004547 779.51249999999993179 711.63555595655043362 1.00000000000000000 0.00000000000000000 -0.00000000000000000 0.00000000000000000 0.00000000000000000 1.00000000000000000 0.00000000000000000 -1.00000000000000000 0.00000000000000000 6.59999999999999964
2 1425.57500000000004547 985.78750000000002274 844.23399744716664372 1.00000000000000000 0.00000000000000000 -0.00000000000000000 0.00000000000000000 0.00000000000000000 1.00000000000000000 0.00000000000000000 -1.00000000000000000 0.00000000000000000 6.59999999999999964
2 1425.57500000000004547 779.51249999999993179 844.23399744716664372 1.00000000000000000 0.00000000000000000 -0.00000000000000000 0.00000000000000000 0.00000000000000000 1.00000000000000000 0.00000000000000000 -1.00000000000000000 0.00000000000000000 6.59999999999999964
2 1425.57500000000004547 962.78750000000002274 669.63555595655043362 1.00000000000000000 0.00000000000000000 -0.00000000000000000 0.00000000000000000 0.00000000000000000 1.00000000000000000 0.00000000000000000 -1.00000000000000000 0.00000000000000000 8.00000000000000000
1 1425.57500000000004547 401.25624999999996589 661.63555595655043362 0.00000000000000000 -1.00000000000000000 0.00000000000000000 
1 1425.57500000000004547 970.78750000000002274 850.41803888908566478 -0.00000000000000023 0.00000000000000000 1.00000000000000000 
2 1425.57500000000004547 802.51249999999993179 669.63555595655043362 1.00000000000000000 0.00000000000000000 -0.00000000000000000 0.00000000000000000 0.00000000000000000 1.00000000000000000 0.00000000000000000 -1.00000000000000000 0.00000000000000000 8.00000000000000000
2 1425.57500000000004547 962.78750000000002274 1151.43088042839895024 1.00000000000000000 0.00000000000000000 -0.00000000000000000 0.00000000000000000 0.00000000000000000 1.00000000000000000 0.00000000000000000 -1.00000000000000000 0.00000000000000000 8.00000000000000000
1 1425.57500000000004547 794.51249999999993179 850.41803888908566478 -0.00000000000000023 0.00000000000000000 1.00000000000000000 
1 1425.57500000000004547 401.25624999999996589 1159.43088042839895024 0.00000000000000000 -1.00000000000000000 0.00000000000000000 
2 1425.57500000000004547 802.51249999999993179 1151.43088042839895024 1.00000000000000000 0.00000000000000000 -0.00000000000000000 0.00000000000000000 0.00000000000000000 1.00000000000000000 0.00000000000000000 -1.00000000000000000 0.00000000000000000 8.00000000000000000
2 1425.57500000000004547 985.78750000000002274 976.83243893778285383 1.00000000000000000 0.00000000000000000 -0.00000000000000000 0.00000000000000000 0.00000000000000000 1.00000000000000000 0.00000000000000000 -1.00000000000000000 0.00000000000000000 6.59999999999999964
2 1425.57500000000004547 779.51249999999993179 976.83243893778285383 1.00000000000000000 0.00000000000000000 -0.00000000000000000 0.00000000000000000 0.00000000000000000 1.00000000000000000 0.00000000000000000 -1.00000000000000000 0.00000000000000000 6.59999999999999964
2 1425.57500000000004547 985.78750000000002274 1109.43088042839895024 1.00000000000000000 0.00000000000000000 -0.00000000000000000 0.00000000000000000 0.00000000000000000 1.00000000000000000 0.00000000000000000 -1.00000000000000000 0.00000000000000000 6.59999999999999964
2 1425.57500000000004547 779.51249999999993179 1109.43088042839895024 1.00000000000000000 0.00000000000000000 -0.00000000000000000 0.00000000000000000 0.00000000000000000 1.00000000000000000 0.00000000000000000 -1.00000000000000000 0.00000000000000000 6.59999999999999964
2 1425.57500000000004547 882.64999999999997726 1174.43088042839895024 1.00000000000000000 0.00000000000000000 -0.00000000000000000 0.00000000000000000 0.00000000000000000 1.00000000000000000 0.00000000000000000 -1.00000000000000000 0.00000000000000000 6.59999999999999964
2 1425.57500000000004547 -838.58124999999995453 646.63555595655043362 1.00000000000000000 0.00000000000000000 -0.00000000000000000 0.00000000000000000 0.00000000000000000 1.00000000000000000 0.00000000000000000 -1.00000000000000000 0.00000000000000000 6.59999999999999964
2 1425.57500000000004547 -926.71875000000000000 646.63555595655043362 1.00000000000000000 0.00000000000000000 -0.00000000000000000 0.00000000000000000 0.00000000000000000 1.00000000000000000 0.00000000000000000 -1.00000000000000000 0.00000000000000000 6.59999999999999964
2 1425.57500000000004547 -779.51249999999993179 711.63555595655043362 1.00000000000000000 0.00000000000000000 -0.00000000000000000 0.00000000000000000 0.00000000000000000 1.00000000000000000 0.00000000000000000 -1.00000000000000000 0.00000000000000000 6.59999999999999964
2 1425.57500000000004547 -985.78750000000002274 711.63555595655043362 1.00000000000000000 0.00000000000000000 -0.00000000000000000 0.00000000000000000 0.00000000000000000 1.00000000000000000 0.00000000000000000 -1.00000000000000000 0.00000000000000000 6.59999999999999964
2 1425.57500000000004547 -779.51249999999993179 844.23399744716664372 1.00000000000000000 0.00000000000000000 -0.00000000000000000 0.00000000000000000 0.00000000000000000 1.00000000000000000 0.00000000000000000 -1.00000000000000000 0.00000000000000000 6.59999999999999964
2 1425.57500000000004547 -985.78750000000002274 844.23399744716664372 1.00000000000000000 0.00000000000000000 -0.00000000000000000 0.00000000000000000 0.00000000000000000 1.00000000000000000 0.00000000000000000 -1.00000000000000000 0.00000000000000000 6.59999999999999964
2 1425.57500000000004547 -779.51249999999993179 976.83243893778285383 1.00000000000000000 0.00000000000000000 -0.00000000000000000 0.00000000000000000 0.00000000000000000 1.00000000000000000 0.00000000000000000 -1.00000000000000000 0.00000000000000000 6.59999999999999964
2 1425.57500000000004547 -802.51249999999993179 669.63555595655043362 1.00000000000000000 0.00000000000000000 -0.00000000000000000 0.00000000000000000 0.00000000000000000 1.00000000000000000 0.00000000000000000 -1.00000000000000000 0.00000000000000000 8.00000000000000000
1 1425.57500000000004547 -481.39375000000001137 661.63555595655043362 0.00000000000000000 -1.00000000000000000 0.00000000000000000 
1 1425.57500000000004547 -794.51249999999993179 850.41803888908566478 -0.00000000000000023 0.00000000000000000 1.00000000000000000 
2 1425.57500000000004547 -962.78750000000002274 669.63555595655043362 1.00000000000000000 0.00000000000000000 -0.00000000000000000 0.00000000000000000 0.00000000000000000 1.00000000000000000 0.00000000000000000 -1.00000000000000000 0.00000000000000000 8.00000000000000000
2 1425.57500000000004547 -802.51249999999993179 1151.43088042839895024 1.00000000000000000 0.00000000000000000 -0.00000000000000000 0.00000000000000000 0.00000000000000000 1.00000000000000000 0.00000000000000000 -1.00000000000000000 0.00000000000000000 8.00000000000000000
1 1425.57500000000004547 -970.78750000000002274 850.41803888908566478 -0.00000000000000023 0.00000000000000000 1.00000000000000000 
1 1425.57500000000004547 -481.39375000000001137 1159.43088042839895024 0.00000000000000000 -1.00000000000000000 0.00000000000000000 
2 1425.57500000000004547 -962.78750000000002274 1151.43088042839895024 1.00000000000000000 0.00000000000000000 -0.00000000000000000 0.00000000000000000 0.00000000000000000 1.00000000000000000 0.00000000000000000 -1.00000000000000000 0.00000000000000000 8.00000000000000000
2 1425.57500000000004547 -985.78750000000002274 976.83243893778285383 1.00000000000000000 0.00000000000000000 -0.00000000000000000 0.00000000000000000 0.00000000000000000 1.00000000000000000 0.00000000000000000 -1.00000000000000000 0.00000000000000000 6.59999999999999964
2 1425.57500000000004547 -779.51249999999993179 1109.43088042839895024 1.00000000000000000 0.00000000000000000 -0.00000000000000000 0.00000000000000000 0.00000000000000000 1.00000000000000000 0.00000000000000000 -1.00000000000000000 0.00000000000000000 6.59999999999999964
2 1425.57500000000004547 -985.78750000000002274 1109.43088042839895024 1.00000000000000000 0.00000000000000000 -0.00000000000000000 0.00000000000000000 0.00000000000000000 1.00000000000000000 0.00000000000000000 -1.00000000000000000 0.00000000000000000 6.59999999999999964
2 1425.57500000000004547 -882.64999999999997726 1174.43088042839895024 1.00000000000000000 0.00000000000000000 -0.00000000000000000 0.00000000000000000 0.00000000000000000 1.00000000000000000 0.00000000000000000 -1.00000000000000000 0.00000000000000000 6.59999999999999964
1 -996.30104364324176913 2330.44999999999981810 0.00000000000000000 0.00000000000000000 -1.00000000000000000 0.00000000000000000 
2 1437.57500000000004547 926.71875000000000000 646.63555595655043362 1.00000000000000000 0.00000000000000000 -0.00000000000000000 0.00000000000000000 0.00000000000000000 1.00000000000000000 0.00000000000000000 -1.00000000000000000 0.00000000000000000 6.59999999999999964
2 1437.57500000000004547 838.58124999999995453 646.63555595655043362 1.00000000000000000 0.00000000000000000 -0.00000000000000000 0.00000000000000000 0.00000000000000000 1.00000000000000000 0.00000000000000000 -1.00000000000000000 0.00000000000000000 6.59999999999999964
2 1437.57500000000004547 985.78750000000002274 711.63555595655043362 1.00000000000000000 0.00000000000000000 -0.00000000000000000 0.00000000000000000 0.00000000000000000 1.00000000000000000 0.00000000000000000 -1.00000000000000000 0.00000000000000000 6.59999999999999964
2 1437.57500000000004547 779.51249999999993179 711.63555595655043362 1.00000000000000000 0.00000000000000000 -0.00000000000000000 0.00000000000000000 0.00000000000000000 1.00000000000000000 0.00000000000000000 -1.00000000000000000 0.00000000000000000 6.59999999999999964
2 1437.57500000000004547 985.78750000000002274 844.23399744716664372 1.00000000000000000 0.00000000000000000 -0.00000000000000000 0.00000000000000000 0.00000000000000000 1.00000000000000000 0.00000000000000000 -1.00000000000000000 0.00000000000000000 6.59999999999999964
2 1437.57500000000004547 779.51249999999993179 844.23399744716664372 1.00000000000000000 0.00000000000000000 -0.00000000000000000 0.00000000000000000 0.00000000000000000 1.00000000000000000 0.00000000000000000 -1.00000000000000000 0.00000000000000000 6.59999999999999964
2 1437.57500000000004547 962.78750000000002274 669.63555595655043362 1.00000000000000000 0.00000000000000000 -0.00000000000000000 0.00000000000000000 0.00000000000000000 1.00000000000000000 0.00000000000000000 -1.00000000000000000 0.00000000000000000 8.00000000000000000
1 1437.57500000000004547 401.25624999999996589 661.63555595655043362 0.00000000000000000 -1.00000000000000000 0.00000000000000000 
1 1437.57500000000004547 970.78750000000002274 850.41803888908566478 -0.00000000000000023 0.00000000000000000 1.00000000000000000 
2 1437.57500000000004547 802.51249999999993179 669.63555595655043362 1.00000000000000000 0.00000000000000000 -0.00000000000000000 0.00000000000000000 0.00000000000000000 1.00000000000000000 0.00000000000000000 -1.00000000000000000 0.00000000000000000 8.00000000000000000
2 1437.57500000000004547 962.78750000000002274 1151.43088042839895024 1.00000000000000000 0.00000000000000000 -0.00000000000000000 0.00000000000000000 0.00000000000000000 1.00000000000000000 0.00000000000000000 -1.00000000000000000 0.00000000000000000 8.00000000000000000
1 1437.57500000000004547 794.51249999999993179 850.41803888908566478 -0.00000000000000023 0.00000000000000000 1.00000000000000000 
1 1437.57500000000004547 401.25624999999996589 1159.43088042839895024 0.00000000000000000 -1.00000000000000000 0.00000000000000000 
2 1437.57500000000004547 802.51249999999993179 1151.43088042839895024 1.00000000000000000 0.00000000000000000 -0.00000000000000000 0.00000000000000000 0.00000000000000000 1.00000000000000000 0.00000000000000000 -1.00000000000000000 0.00000000000000000 8.00000000000000000
2 1437.57500000000004547 985.78750000000002274 976.83243893778285383 1.00000000000000000 0.00000000000000000 -0.00000000000000000 0.00000000000000000 0.00000000000000000 1.00000000000000000 0.00000000000000000 -1.00000000000000000 0.00000000000000000 6.59999999999999964
2 1437.57500000000004547 779.51249999999993179 976.83243893778285383 1.00000000000000000 0.00000000000000000 -0.00000000000000000 0.00000000000000000 0.00000000000000000 1.00000000000000000 0.00000000000000000 -1.00000000000000000 0.00000000000000000 6.59999999999999964
2 1437.57500000000004547 985.78750000000002274 1109.43088042839895024 1.00000000000000000 0.00000000000000000 -0.00000000000000000 0.00000000000000000 0.00000000000000000 1.00000000000000000 0.00000000000000000 -1.00000000000000000 0.00000000000000000 6.59999999999999964
2 1437.57500000000004547 779.51249999999993179 1109.43088042839895024 1.00000000000000000 0.00000000000000000 -0.00000000000000000 0.00000000000000000 0.00000000000000000 1.00000000000000000 0.00000000000000000 -1.00000000000000000 0.00000000000000000 6.59999999999999964
2 1437.57500000000004547 882.64999999999997726 1174.43088042839895024 1.00000000000000000 0.00000000000000000 -0.00000000000000000 0.00000000000000000 0.00000000000000000 1.00000000000000000 0.00000000000000000 -1.00000000000000000 0.00000000000000000 6.59999999999999964
2 1437.57500000000004547 -838.58124999999995453 646.63555595655043362 1.00000000000000000 0.00000000000000000 -0.00000000000000000 0.00000000000000000 0.00000000000000000 1.00000000000000000 0.00000000000000000 -1.00000000000000000 0.00000000000000000 6.59999999999999964
2 1437.57500000000004547 -926.71875000000000000 646.63555595655043362 1.00000000000000000 0.00000000000000000 -0.00000000000000000 0.00000000000000000 0.00000000000000000 1.00000000000000000 0.00000000000000000 -1.00000000000000000 0.00000000000000000 6.59999999999999964
2 1437.57500000000004547 -779.51249999999993179 711.63555595655043362 1.00000000000000000 0.00000000000000000 -0.00000000000000000 0.00000000000000000 0.00000000000000000 1.00000000000000000 0.00000000000000000 -1.00000000000000000 0.00000000000000000 6.59999999999999964
2 1437.57500000000004547 -985.78750000000002274 711.63555595655043362 1.00000000000000000 0.00000000000000000 -0.00000000000000000 0.00000000000000000 0.00000000000000000 1.00000000000000000 0.00000000000000000 -1.00000000000000000 0.00000000000000000 6.59999999999999964
2 1437.57500000000004547 -779.51249999999993179 844.23399744716664372 1.00000000000000000 0.00000000000000000 -0.00000000000000000 0.00000000000000000 0.00000000000000000 1.00000000000000000 0.00000000000000000 -1.00000000000000000 0.00000000000000000 6.59999999999999964
2 1437.57500000000004547 -985.78750000000002274 844.23399744716664372 1.00000000000000000 0.00000000000000000 -0.00000000000000000 0.00000000000000000 0.00000000000000000 1.00000000000000000 0.00000000000000000 -1.00000000000000000 0.00000000000000000 6.59999999999999964
2 1437.57500000000004547 -779.51249999999993179 976.83243893778285383 1.00000000000000000 0.00000000000000000 -0.00000000000000000 0.00000000000000000 0.00000000000000000 1.00000000000000000 0.00000000000000000 -1.00000000000000000 0.00000000000000000 6.59999999999999964
2 1437.57500000000004547 -802.51249999999993179 669.63555595655043362 1.00000000000000000 0.00000000000000000 -0.00000000000000000 0.00000000000000000 0.00000000000000000 1.00000000000000000 0.00000000000000000 -1.00000000000000000 0.00000000000000000 8.00000000000000000
1 1437.57500000000004547 -481.39375000000001137 661.63555595655043362 0.00000000000000000 -1.00000000000000000 0.00000000000000000 
1 1437.57500000000004547 -794.51249999999993179 850.41803888908566478 -0.00000000000000023 0.00000000000000000 1.00000000000000000 
2 1437.57500000000004547 -962.78750000000002274 669.63555595655043362 1.00000000000000000 0.00000000000000000 -0.00000000000000000 0.00000000000000000 0.00000000000000000 1.00000000000000000 0.00000000000000000 -1.00000000000000000 0.00000000000000000 8.00000000000000000
2 1437.57500000000004547 -802.51249999999993179 1151.43088042839895024 1.00000000000000000 0.00000000000000000 -0.00000000000000000 0.00000000000000000 0.00000000000000000 1.00000000000000000 0.00000000000000000 -1.00000000000000000 0.00000000000000000 8.00000000000000000
1 1437.57500000000004547 -970.78750000000002274 850.41803888908566478 -0.00000000000000023 0.00000000000000000 1.00000000000000000 
1 1437.57500000000004547 -481.39375000000001137 1159.43088042839895024 0.00000000000000000 -1.00000000000000000 0.00000000000000000 
2 1437.57500000000004547 -962.78750000000002274 1151.43088042839895024 1.00000000000000000 0.00000000000000000 -0.00000000000000000 0.00000000000000000 0.00000000000000000 1.00000000000000000 0.00000000000000000 -1.00000000000000000 0.00000000000000000 8.00000000000000000
2 1437.57500000000004547 -985.78750000000002274 976.83243893778285383 1.00000000000000000 0.00000000000000000 -0.00000000000000000 0.00000000000000000 0.00000000000000000 1.00000000000000000 0.00000000000000000 -1.00000000000000000 0.00000000000000000 6.59999999999999964
2 1437.57500000000004547 -779.51249999999993179 1109.43088042839895024 1.00000000000000000 0.00000000000000000 -0.00000000000000000 0.00000000000000000 0.00000000000000000 1.00000000000000000 0.00000000000000000 -1.00000000000000000 0.00000000000000000 6.59999999999999964
2 1437.57500000000004547 -985.78750000000002274 1109.43088042839895024 1.00000000000000000 0.00000000000000000 -0.00000000000000000 0.00000000000000000 0.00000000000000000 1.00000000000000000 0.00000000000000000 -1.00000000000000000 0.00000000000000000 6.59999999999999964
2 1437.57500000000004547 -882.64999999999997726 1174.43088042839895024 1.00000000000000000 0.00000000000000000 -0.00000000000000000 0.00000000000000000 0.00000000000000000 1.00000000000000000 0.00000000000000000 -1.00000000000000000 0.00000000000000000 6.59999999999999964
1 1418.57500000000004547 44.06875000000002984 653.23555595655045636 1.00000000000000000 0.00000000000000000 0.00000000000000000 
1 1418.57500000000004547 -44.06875000000001563 653.23555595655045636 1.00000000000000000 0.00000000000000000 0.00000000000000000 
1 1418.57500000000004547 103.13750000000004547 718.23555595655045636 1.00000000000000000 0.00000000000000000 0.00000000000000000 
1 1418.57500000000004547 -103.13750000000004547 718.23555595655045636 1.00000000000000000 0.00000000000000000 0.00000000000000000 
1 1418.57500000000004547 103.13750000000004547 850.83399744716666646 1.00000000000000000 0.00000000000000000 0.00000000000000000 
1 1418.57500000000004547 -103.13750000000004547 850.83399744716666646 1.00000000000000000 0.00000000000000000 0.00000000000000000 
1 1424.57500000000004547 970.78750000000002274 669.63555595655043362 1.00000000000000000 0.00000000000000000 0.00000000000000000 
1 1424.57500000000004547 962.78750000000002274 661.63555595655043362 1.00000000000000000 0.00000000000000000 0.00000000000000000 
1 1424.57500000000004547 802.51249999999993179 661.63555595655043362 1.00000000000000000 0.00000000000000000 0.00000000000000000 
1 1424.57500000000004547 970.78750000000002274 1151.43088042839895024 1.00000000000000000 0.00000000000000000 0.00000000000000000 
1 1424.57500000000004547 794.51249999999993179 669.63555595655043362 1.00000000000000000 0.00000000000000000 0.00000000000000000 
1 1424.57500000000004547 962.78750000000002274 1159.43088042839895024 1.00000000000000000 0.00000000000000000 0.00000000000000000 
1 1424.57500000000004547 794.51249999999993179 1151.43088042839895024 1.00000000000000000 0.00000000000000000 0.00000000000000000 
1 1424.57500000000004547 802.51249999999993179 1159.43088042839895024 1.00000000000000000 0.00000000000000000 0.00000000000000000 
1 1418.57500000000004547 103.13750000000004547 983.43243893778287656 1.00000000000000000 0.00000000000000000 0.00000000000000000 
1 1418.57500000000004547 -103.13750000000004547 983.43243893778287656 1.00000000000000000 0.00000000000000000 0.00000000000000000 
1 1418.57500000000004547 103.13750000000004547 1116.03088042839885929 1.00000000000000000 0.00000000000000000 0.00000000000000000 
1 1418.57500000000004547 -103.13750000000004547 1116.03088042839885929 1.00000000000000000 0.00000000000000000 0.00000000000000000 
1 1418.57500000000004547 0.00000000000000162 1181.03088042839885929 1.00000000000000000 0.00000000000000000 0.00000000000000000 
1 1418.57500000000004547 44.06875000000002984 653.23555595655045636 1.00000000000000000 0.00000000000000000 0.00000000000000000 
1 1418.57500000000004547 -44.06875000000001563 653.23555595655045636 1.00000000000000000 0.00000000000000000 0.00000000000000000 
1 1418.57500000000004547 103.13750000000004547 718.23555595655045636 1.00000000000000000 0.00000000000000000 0.00000000000000000 
1 1418.57500000000004547 -103.13750000000004547 718.23555595655045636 1.00000000000000000 0.00000000000000000 0.00000000000000000 
1 1418.57500000000004547 103.13750000000004547 850.83399744716666646 1.00000000000000000 0.00000000000000000 0.00000000000000000 
1 1418.57500000000004547 -103.13750000000004547 850.83399744716666646 1.00000000000000000 0.00000000000000000 0.00000000000000000 
1 1418.57500000000004547 103.13750000000004547 983.43243893778287656 1.00000000000000000 0.00000000000000000 0.00000000000000000 
1 1424.57500000000004547 -794.51249999999993179 669.63555595655043362 1.00000000000000000 0.00000000000000000 0.00000000000000000 
1 1424.57500000000004547 -802.51249999999993179 661.63555595655043362 1.00000000000000000 0.00000000000000000 0.00000000000000000 
1 1424.57500000000004547 -962.78750000000002274 661.63555595655043362 1.00000000000000000 0.00000000000000000 0.00000000000000000 
1 1424.57500000000004547 -794.51249999999993179 1151.43088042839895024 1.00000000000000000 0.00000000000000000 0.00000000000000000 
1 1424.57500000000004547 -970.78750000000002274 669.63555595655043362 1.00000000000000000 0.00000000000000000 0.00000000000000000 
1 1424.57500000000004547 -802.51249999999993179 1159.43088042839895024 1.00000000000000000 0.00000000000000000 0.00000000000000000 
1 1424.57500000000004547 -970.78750000000002274 1151.43088042839895024 1.00000000000000000 0.00000000000000000 0.00000000000000000 
1 1424.57500000000004547 -962.78750000000002274 1159.43088042839895024 1.00000000000000000 0.00000000000000000 0.00000000000000000 
1 1418.57500000000004547 -103.13750000000004547 983.43243893778287656 1.00000000000000000 0.00000000000000000 0.00000000000000000 
1 1418.57500000000004547 103.13750000000004547 1116.03088042839885929 1.00000000000000000 0.00000000000000000 0.00000000000000000 
1 1418.57500000000004547 -103.13750000000004547 1116.03088042839885929 1.00000000000000000 0.00000000000000000 0.00000000000000000 
1 1418.57500000000004547 0.00000000000000162 1181.03088042839885929 1.00000000000000000 0.00000000000000000 0.00000000000000000 
Polygon3D 0
PolygonOnTriangulations 0
Surfaces 44
1 0.00000000000000000 0.00000000000000000 0.00000000000000000 -1.00000000000000000 0.00000000000000000 -0.00000000000000011 0.00000000000000000 1.00000000000000000 0.00000000000000000 0.00000000000000011 0.00000000000000000 -1.00000000000000000 
1 -996.30104364324176913 0.00000000000000000 -0.00000000000011061 0.00000000000000000 1.00000000000000000 0.00000000000000000 1.00000000000000000 -0.00000000000000000 0.00000000000000011 0.00000000000000011 0.00000000000000000 -1.00000000000000000 
1 0.00000000000000000 2330.44999999999981810 0.00000000000000000 0.00000000000000000 -1.00000000000000000 0.00000000000000000 -1.00000000000000000 -0.00000000000000000 -0.00000000000000011 0.00000000000000011 0.00000000000000000 -1.00000000000000000 
1 1425.57500000000004547 -0.00000000000003499 1031.20052182162089593 1.00000000000000000 0.00000000000000000 0.00000000000000023 -0.00000000000000023 0.00000000000000000 1.00000000000000000 0.00000000000000000 -1.00000000000000000 0.00000000000000000 
2 1418.57500000000004547 44.06875000000002274 646.63555595655043362 1.00000000000000000 0.00000000000000000 0.00000000000000000 0.00000000000000000 0.00000000000000000 1.00000000000000000 0.00000000000000000 -1.00000000000000000 0.00000000000000000 6.59999999999999964
2 1418.57500000000004547 -44.06875000000002274 646.63555595655043362 1.00000000000000000 0.00000000000000000 0.00000000000000000 0.00000000000000000 0.00000000000000000 1.00000000000000000 0.00000000000000000 -1.00000000000000000 0.00000000000000000 6.59999999999999964
2 1418.57500000000004547 103.13750000000004547 711.63555595655043362 1.00000000000000000 0.00000000000000000 0.00000000000000000 0.00000000000000000 0.00000000000000000 1.00000000000000000 0.00000000000000000 -1.00000000000000000 0.00000000000000000 6.59999999999999964
2 1418.57500000000004547 -103.13750000000004547 711.63555595655043362 1.00000000000000000 0.00000000000000000 0.00000000000000000 0.00000000000000000 0.00000000000000000 1.00000000000000000 0.00000000000000000 -1.00000000000000000 0.00000000000000000 6.59999999999999964
2 1418.57500000000004547 103.13750000000004547 844.23399744716664372 1.00000000000000000 0.00000000000000000 0.00000000000000000 0.00000000000000000 0.00000000000000000 1.00000000000000000 0.00000000000000000 -1.00000000000000000 0.00000000000000000 6.59999999999999964
2 1418.57500000000004547 -103.13750000000004547 844.23399744716664372 1.00000000000000000 0.00000000000000000 0.00000000000000000 0.00000000000000000 0.00000000000000000 1.00000000000000000 0.00000000000000000 -1.00000000000000000 0.00000000000000000 6.59999999999999964
2 1424.57500000000004547 962.78750000000002274 669.63555595655043362 1.00000000000000000 0.00000000000000000 0.00000000000000000 0.00000000000000000 0.00000000000000000 1.00000000000000000 0.00000000000000000 -1.00000000000000000 0.00000000000000000 8.00000000000000000
2 1424.57500000000004547 802.51249999999993179 669.63555595655043362 1.00000000000000000 0.00000000000000000 0.00000000000000000 0.00000000000000000 0.00000000000000000 1.00000000000000000 0.00000000000000000 -1.00000000000000000 0.00000000000000000 8.00000000000000000
2 1424.57500000000004547 962.78750000000002274 1151.43088042839895024 1.00000000000000000 0.00000000000000000 0.00000000000000000 0.00000000000000000 0.00000000000000000 1.00000000000000000 0.00000000000000000 -1.00000000000000000 0.00000000000000000 8.00000000000000000
2 1424.57500000000004547 802.51249999999993179 1151.43088042839895024 1.00000000000000000 0.00000000000000000 0.00000000000000000 0.00000000000000000 0.00000000000000000 1.00000000000000000 0.00000000000000000 -1.00000000000000000 0.00000000000000000 8.00000000000000000
2 1418.57500000000004547 103.13750000000004547 976.83243893778285383 1.00000000000000000 0.00000000000000000 0.00000000000000000 0.00000000000000000 0.00000000000000000 1.00000000000000000 0.00000000000000000 -1.00000000000000000 0.00000000000000000 6.59999999999999964
2 1418.57500000000004547 -103.13750000000004547 976.83243893778285383 1.00000000000000000 0.00000000000000000 0.00000000000000000 0.00000000000000000 0.00000000000000000 1.00000000000000000 0.00000000000000000 -1.00000000000000000 0.00000000000000000 6.59999999999999964
2 1418.57500000000004547 103.13750000000004547 1109.43088042839895024 1.00000000000000000 0.00000000000000000 0.00000000000000000 0.00000000000000000 0.00000000000000000 1.00000000000000000 0.00000000000000000 -1.00000000000000000 0.00000000000000000 6.59999999999999964
2 1418.57500000000004547 -103.13750000000004547 1109.43088042839895024 1.00000000000000000 0.00000000000000000 0.00000000000000000 0.00000000000000000 0.00000000000000000 1.00000000000000000 0.00000000000000000 -1.00000000000000000 0.00000000000000000 6.59999999999999964
2 1418.57500000000004547 0.00000000000000000 1174.43088042839895024 1.00000000000000000 0.00000000000000000 0.00000000000000000 0.00000000000000000 0.00000000000000000 1.00000000000000000 0.00000000000000000 -1.00000000000000000 0.00000000000000000 6.59999999999999964
2 1418.57500000000004547 44.06875000000002274 646.63555595655043362 1.00000000000000000 0.00000000000000000 0.00000000000000000 0.00000000000000000 0.00000000000000000 1.00000000000000000 0.00000000000000000 -1.00000000000000000 0.00000000000000000 6.59999999999999964
2 1418.57500000000004547 -44.06875000000002274 646.63555595655043362 1.00000000000000000 0.00000000000000000 0.00000000000000000 0.00000000000000000 0.00000000000000000 1.00000000000000000 0.00000000000000000 -1.00000000000000000 0.00000000000000000 6.59999999999999964
2 1418.57500000000004547 103.13750000000004547 711.63555595655043362 1.00000000000000000 0.00000000000000000 0.00000000000000000 0.00000000000000000 0.00000000000000000 1.00000000000000000 0.00000000000000000 -1.00000000000000000 0.00000000000000000 6.59999999999999964
2 1418.57500000000004547 -103.13750000000004547 711.63555595655043362 1.00000000000000000 0.00000000000000000 0.00000000000000000 0.00000000000000000 0.00000000000000000 1.00000000000000000 0.00000000000000000 -1.00000000000000000 0.00000000000000000 6.59999999999999964
2 1418.57500000000004547 103.13750000000004547 844.23399744716664372 1.00000000000000000 0.00000000000000000 0.00000000000000000 0.00000000000000000 0.00000000000000000 1.00000000000000000 0.00000000000000000 -1.00000000000000000 0.00000000000000000 6.59999999999999964
2 1418.57500000000004547 -103.13750000000004547 844.23399744716664372 1.00000000000000000 0.00000000000000000 0.00000000000000000 0.00000000000000000 0.00000000000000000 1.00000000000000000 0.00000000000000000 -1.00000000000000000 0.00000000000000000 6.59999999999999964
2 1418.57500000000004547 103.13750000000004547 976.83243893778285383 1.00000000000000000 0.00000000000000000 0.00000000000000000 0.00000000000000000 0.00000000000000000 1.00000000000000000 0.00000000000000000 -1.00000000000000000 0.00000000000000000 6.59999999999999964
2 1424.57500000000004547 -802.51249999999993179 669.63555595655043362 1.00000000000000000 0.00000000000000000 0.00000000000000000 0.00000000000000000 0.00000000000000000 1.00000000000000000 0.00000000000000000 -1.00000000000000000 0.00000000000000000 8.00000000000000000
2 1424.57500000000004547 -962.78750000000002274 669.63555595655043362 1.00000000000000000 0.00000000000000000 0.00000000000000000 0.00000000000000000 0.00000000000000000 1.00000000000000000 0.00000000000000000 -1.00000000000000000 0.00000000000000000 8.00000000000000000
2 1424.57500000000004547 -802.51249999999993179 1151.43088042839895024 1.00000000000000000 0.00000000000000000 0.00000000000000000 0.00000000000000000 0.00000000000000000 1.00000000000000000 0.00000000000000000 -1.00000000000000000 0.00000000000000000 8.00000000000000000
2 1424.57500000000004547 -962.78750000000002274 1151.43088042839895024 1.00000000000000000 0.00000000000000000 0.00000000000000000 0.00000000000000000 0.00000000000000000 1.00000000000000000 0.00000000000000000 -1.00000000000000000 0.00000000000000000 8.00000000000000000
2 1418.57500000000004547 -103.13750000000004547 976.83243893778285383 1.00000000000000000 0.00000000000000000 0.00000000000000000 0.00000000000000000 0.00000000000000000 1.00000000000000000 0.00000000000000000 -1.00000000000000000 0.00000000000000000 6.59999999999999964
2 1418.57500000000004547 103.13750000000004547 1109.43088042839895024 1.00000000000000000 0.00000000000000000 0.00000000000000000 0.00000000000000000 0.00000000000000000 1.00000000000000000 0.00000000000000000 -1.00000000000000000 0.00000000000000000 6.59999999999999964
2 1418.57500000000004547 -103.13750000000004547 1109.43088042839895024 1.00000000000000000 0.00000000000000000 0.00000000000000000 0.00000000000000000 0.00000000000000000 1.00000000000000000 0.00000000000000000 -1.00000000000000000 0.00000000000000000 6.59999999999999964
2 1418.57500000000004547 0.00000000000000000 1174.43088042839895024 1.00000000000000000 0.00000000000000000 0.00000000000000000 0.00000000000000000 0.00000000000000000 1.00000000000000000 0.00000000000000000 -1.00000000000000000 0.00000000000000000 6.59999999999999964
1 1425.57500000000004547 -0.00000000000003499 1031.20052182162089593 1.00000000000000000 0.00000000000000000 0.00000000000000023 -0.00000000000000023 0.00000000000000000 1.00000000000000000 0.00000000000000000 -1.00000000000000000 0.00000000000000000 
1 -996.30104364324176913 2330.44999999999981810 -0.00000000000011061 1.00000000000000000 0.00000000000000000 0.00000000000000011 0.00000000000000000 -1.00000000000000000 0.00000000000000000 0.00000000000000011 0.00000000000000000 -1.00000000000000000 
1 1424.57500000000004547 802.51249999999993179 661.63555595655043362 0.00000000000000000 0.00000000000000000 1.00000000000000000 1.00000000000000000 0.00000000000000000 -0.00000000000000000 -0.00000000000000000 1.00000000000000000 0.00000000000000000 
1 1424.57500000000004547 970.78750000000002274 669.63555595655043362 0.00000000000000000 1.00000000000000000 0.00000000000000000 0.00000000000000000 -0.00000000000000000 1.00000000000000000 1.00000000000000000 0.00000000000000000 -0.00000000000000000 
1 1424.57500000000004547 794.51249999999993179 669.63555595655043362 0.00000000000000000 1.00000000000000000 0.00000000000000000 0.00000000000000000 -0.00000000000000000 1.00000000000000000 1.00000000000000000 0.00000000000000000 -0.00000000000000000 
1 1424.57500000000004547 802.51249999999993179 1159.43088042839895024 0.00000000000000000 0.00000000000000000 1.00000000000000000 1.00000000000000000 0.00000000000000000 -0.00000000000000000 -0.00000000000000000 1.00000000000000000 0.00000000000000000 
1 1424.57500000000004547 -962.78750000000002274 661.63555595655043362 0.00000000000000000 0.00000000000000000 1.00000000000000000 1.00000000000000000 0.00000000000000000 -0.00000000000000000 -0.00000000000000000 1.00000000000000000 0.00000000000000000 
1 1424.57500000000004547 -794.51249999999993179 669.63555595655043362 0.00000000000000000 1.00000000000000000 0.00000000000000000 0.00000000000000000 -0.00000000000000000 1.00000000000000000 1.00000000000000000 0.00000000000000000 -0.00000000000000000 
1 1424.57500000000004547 -970.78750000000002274 669.63555595655043362 0.00000000000000000 1.00000000000000000 0.00000000000000000 0.00000000000000000 -0.00000000000000000 1.00000000000000000 1.00000000000000000 0.00000000000000000 -0.00000000000000000 
1 1424.57500000000004547 -962.78750000000002274 1159.43088042839895024 0.00000000000000000 0.00000000000000000 1.00000000000000000 1.00000000000000000 0.00000000000000000 -0.00000000000000000 -0.00000000000000000 1.00000000000000000 0.00000000000000000 
Triangulations 0

TShapes 349
Ve
0.000000100000000
1425.575000000000273 -1165.224999999999909 533.049999999999841
0 0

0101101
*
Ve
0.000000100000000
1437.575000000000273 -1165.224999999999909 533.049999999999841
0 0

0101101
*
Ed
 0.000000100000000 1 1 0
1  1 0 0.000000000000000 12.000000000000000
0

0101000
+349 7 -348 7 *
Ve
0.000000100000000
1425.575000000000273 1165.224999999999909 533.049999999999841
0 0

0101101
*
Ve
0.000000100000000
1437.575000000000273 1165.224999999999909 533.049999999999841
0 0

0101101
*
Ed
 0.000000100000000 1 1 0
1  2 0 0.000000000000000 12.000000000000000
0

0101000
+346 7 -345 7 *
Ed
 0.000000100000000 1 1 0
1  3 0 0.000000000000000 2330.449999999999818
0

0101000
+349 12 -346 12 *
Ed
 0.000000100000000 1 1 0
1  4 0 0.000000000000000 2330.449999999999818
0

0101000
+348 15 -345 15 *
Wi

0101100
+347 0 -344 0 -343 11 +342 14 *
Fa
0  0.000000100000000 1 0

0111000
+341 0 *
Ve
0.000000100000000
1425.575000000000045 -1165.224999999999909 1529.351043643241610
0 0

0101101
*
Ve
0.000000100000000
1437.575000000000045 -1165.224999999999909 1529.351043643241610
0 0

0101101
*
Ed
 0.000000100000000 1 1 0
1  5 0 0.000000000000000 12.000000000000000
0

0101000
+339 7 -338 7 *
Ed
 0.000000100000000 1 1 0
1  6 0 0.000000000000000 996.301043643241769
0

0101000
+339 12 -349 12 *
Ed
 0.000000100000000 1 1 0
1  7 0 0.000000000000000 996.301043643241769
0

0101000
+338 15 -348 15 *
Wi

0101100
+337 0 -347 0 -336 11 +335 14 *
Fa
0  0.000000100000000 2 0

0111000
+334 0 *
Ve
0.000000100000000
1425.575000000000045 1165.224999999999909 1529.351043643241610
0 0

0101101
*
Ve
0.000000100000000
1437.575000000000045 1165.224999999999909 1529.351043643241610
0 0

0101101
*
Ed
 0.000000100000000 1 1 0
1  8 0 0.000000000000000 12.000000000000000
0

0101000
+332 7 -331 7 *
Ed
 0.000000100000000 1 1 0
1  9 0 0.000000000000000 996.301043643241769
0

0101000
+346 12 -332 12 *
Ed
 0.000000100000000 1 1 0
1  10 0 0.000000000000000 996.301043643241769
0

0101000
+345 15 -331 15 *
Wi

0101100
+344 0 -330 0 -329 11 +328 14 *
Fa
0  0.000000100000000 3 0

0111000
+327 0 *
Ed
 0.000000100000000 1 1 0
1  11 0 0.000000000000000 2330.449999999999818
0

0101000
+332 12 -339 12 *
Wi

0101100
+343 17 +336 17 +329 17 +325 17 *
Ve
0.000000100000000
1425.575000000000045 926.718750000000000 653.235555956550456
0 0

0101101
*
Ed
 0.000000100000000 1 1 0
1  12 0 0.000000000000000 6.283185307179586
2  1 5 18 0.000000000000000 6.283185307179586
0

0101100
+323 19 -323 19 *
Wi

0101100
-322 0 *
Ve
0.000000100000000
1425.575000000000045 838.581249999999955 653.235555956550456
0 0

0101101
*
Ed
 0.000000100000000 1 1 0
1  13 0 0.000000000000000 6.283185307179586
2  2 6 20 0.000000000000000 6.283185307179586
0

0101100
+320 19 -320 19 *
Wi

0101100
-319 0 *
Ve
0.000000100000000
1425.575000000000045 985.787500000000023 718.235555956550456
0 0

0101101
*
Ed
 0.000000100000000 1 1 0
1  14 0 0.000000000000000 6.283185307179586
2  3 7 21 0.000000000000000 6.283185307179586
0

0101100
+317 19 -317 19 *
Wi

0101100
-316 0 *
Ve
0.000000100000000
1425.575000000000045 779.512499999999932 718.235555956550456
0 0

0101101
*
Ed
 0.000000100000000 1 1 0
1  15 0 0.000000000000000 6.283185307179586
2  4 8 22 0.000000000000000 6.283185307179586
0

0101100
+314 19 -314 19 *
Wi

0101100
-313 0 *
Ve
0.000000100000000
1425.575000000000045 985.787500000000023 850.833997447166666
0 0

0101101
*
Ed
 0.000000100000000 1 1 0
1  16 0 0.000000000000000 6.283185307179586
2  5 9 23 0.000000000000000 6.283185307179586
0

0101100
+311 19 -311 19 *
Wi

0101100
-310 0 *
Ve
0.000000100000000
1425.575000000000045 779.512499999999932 850.833997447166666
0 0

0101101
*
Ed
 0.000000100000000 1 1 0
1  17 0 0.000000000000000 6.283185307179586
2  6 10 24 0.000000000000000 6.283185307179586
0

0101100
+308 19 -308 19 *
Wi

0101100
-307 0 *
Ve
0.000000150000114
1425.575000000000045 962.787500000000023 661.635555956550434
0 0

0101101
*
Ve
0.000000150000000
1425.575000000000045 970.787500000000023 669.635555956550434
0 0

0101101
*
Ed
 0.000000100000000 1 1 0
1  18 0 3.141592653589793 4.712388980384690
2  7 11 0 3.141592653589793 4.712388980384690
0

0101000
+305 25 -304 25 *
Ve
0.000000150000000
1425.575000000000045 802.512499999999932 661.635555956550434
0 0

0101101
*
Ed
 0.000000150000000 1 1 0
1  19 0 -561.531250000000000 -401.256249999999966
0

0101000
+305 25 -302 25 *
Ve
0.000000150000000
1425.575000000000045 970.787500000000023 1151.430880428398950
0 0

0101101
*
Ed
 0.000000150000000 1 1 0
1  20 0 -180.782482932535231 301.012841539313285
0

0101000
+304 25 -300 25 *
Ve
0.000000150000000
1425.575000000000045 794.512499999999932 669.635555956550434
0 0

0101101
*
Ed
 0.000000100000000 1 1 0
1  21 0 1.570796326794897 3.141592653589793
2  8 12 0 1.570796326794897 3.141592653589793
0

0101000
+298 25 -302 25 *
Ve
0.000000150000114
1425.575000000000045 962.787500000000023 1159.430880428398950
0 0

0101101
*
Ed
 0.000000100000000 1 1 0
1  22 0 4.712388980384690 6.283185307179586
2  9 13 0 4.712388980384690 6.283185307179586
0

0101000
+300 25 -296 25 *
Ve
0.000000150000000
1425.575000000000045 794.512499999999932 1151.430880428398950
0 0

0101101
*
Ed
 0.000000150000000 1 1 0
1  23 0 -180.782482932535231 301.012841539313285
0

0101000
+298 25 -294 25 *
Ve
0.000000150000000
1425.575000000000045 802.512499999999932 1159.430880428398950
0 0

0101101
*
Ed
 0.000000150000000 1 1 0
1  24 0 -561.531250000000000 -401.256249999999966
0

0101000
+296 25 -292 25 *
Ed
 0.000000100000000 1 1 0
1  25 0 0.000000000000000 1.570796326794897
2  10 14 0 0.000000000000000 1.570796326794897
0

0101000
+292 25 -294 25 *
Wi

0101100
-303 4 +301 4 -299 4 -297 4 -295 4 +293 4 -291 4 -290 4 *
Ve
0.000000100000000
1425.575000000000045 985.787500000000023 983.432438937782877
0 0

0101101
*
Ed
 0.000000100000000 1 1 0
1  26 0 0.000000000000000 6.283185307179586
2  11 15 26 0.000000000000000 6.283185307179586
0

0101100
+288 19 -288 19 *
Wi

0101100
-287 0 *
Ve
0.000000100000000
1425.575000000000045 779.512499999999932 983.432438937782877
0 0

0101101
*
Ed
 0.000000100000000 1 1 0
1  27 0 0.000000000000000 6.283185307179586
2  12 16 27 0.000000000000000 6.283185307179586
0

0101100
+285 19 -285 19 *
Wi

0101100
-284 0 *
Ve
0.000000100000000
1425.575000000000045 985.787500000000023 1116.030880428398859
0 0

0101101
*
Ed
 0.000000100000000 1 1 0
1  28 0 0.000000000000000 6.283185307179586
2  13 17 28 0.000000000000000 6.283185307179586
0

0101100
+282 19 -282 19 *
Wi

0101100
-281 0 *
Ve
0.000000100000000
1425.575000000000045 779.512499999999932 1116.030880428398859
0 0

0101101
*
Ed
 0.000000100000000 1 1 0
1  29 0 0.000000000000000 6.283185307179586
2  14 18 29 0.000000000000000 6.283185307179586
0

0101100
+279 19 -279 19 *
Wi

0101100
-278 0 *
Ve
0.000000100000000
1425.575000000000045 882.649999999999977 1181.030880428398859
0 0

0101101
*
Ed
 0.000000100000000 1 1 0
1  30 0 0.000000000000000 6.283185307179586
2  15 19 30 0.000000000000000 6.283185307179586
0

0101100
+276 19 -276 19 *
Wi

0101100
-275 0 *
Ve
0.000000100000000
1425.575000000000045 -838.581249999999955 653.235555956550456
0 0

0101101
*
Ed
 0.000000100000000 1 1 0
1  31 0 0.000000000000000 6.283185307179586
2  16 20 31 0.000000000000000 6.283185307179586
0

0101100
+273 19 -273 19 *
Wi

0101100
-272 0 *
Ve
0.000000100000000
1425.575000000000045 -926.718750000000000 653.235555956550456
0 0

0101101
*
Ed
 0.000000100000000 1 1 0
1  32 0 0.000000000000000 6.283185307179586
2  17 21 32 0.000000000000000 6.283185307179586
0

0101100
+270 19 -270 19 *
Wi

0101100
-269 0 *
Ve
0.000000100000000
1425.575000000000045 -779.512499999999932 718.235555956550456
0 0

0101101
*
Ed
 0.000000100000000 1 1 0
1  33 0 0.000000000000000 6.283185307179586
2  18 22 33 0.000000000000000 6.283185307179586
0

0101100
+267 19 -267 19 *
Wi

0101100
-266 0 *
Ve
0.000000100000000
1425.575000000000045 -985.787500000000023 718.235555956550456
0 0

0101101
*
Ed
 0.000000100000000 1 1 0
1  34 0 0.000000000000000 6.283185307179586
2  19 23 34 0.000000000000000 6.283185307179586
0

0101100
+264 19 -264 19 *
Wi

0101100
-263 0 *
Ve
0.000000100000000
1425.575000000000045 -779.512499999999932 850.833997447166666
0 0

0101101
*
Ed
 0.000000100000000 1 1 0
1  35 0 0.000000000000000 6.283185307179586
2  20 24 35 0.000000000000000 6.283185307179586
0

0101100
+261 19 -261 19 *
Wi

0101100
-260 0 *
Ve
0.000000100000000
1425.575000000000045 -985.787500000000023 850.833997447166666
0 0

0101101
*
Ed
 0.000000100000000 1 1 0
1  36 0 0.000000000000000 6.283185307179586
2  21 25 36 0.000000000000000 6.283185307179586
0

0101100
+258 19 -258 19 *
Wi

0101100
-257 0 *
Ve
0.000000100000000
1425.575000000000045 -779.512499999999932 983.432438937782877
0 0

0101101
*
Ed
 0.000000100000000 1 1 0
1  37 0 0.000000000000000 6.283185307179586
2  22 26 37 0.000000000000000 6.283185307179586
0

0101100
+255 19 -255 19 *
Wi

0101100
-254 0 *
Ve
0.000000150000000
1425.575000000000045 -802.512499999999932 661.635555956550434
0 0

0101101
*
Ve
0.000000150000000
1425.575000000000045 -794.512499999999932 669.635555956550434
0 0

0101101
*
Ed
 0.000000100000000 1 1 0
1  38 0 3.141592653589793 4.712388980384690
2  23 27 0 3.141592653589793 4.712388980384690
0

0101000
+252 25 -251 25 *
Ve
0.000000150000000
1425.575000000000045 -962.787500000000023 661.635555956550434
0 0

0101101
*
Ed
 0.000000150000000 1 1 0
1  39 0 321.118749999999920 481.393750000000011
0

0101000
+252 25 -249 25 *
Ve
0.000000150000000
1425.575000000000045 -794.512499999999932 1151.430880428398950
0 0

0101101
*
Ed
 0.000000150000000 1 1 0
1  40 0 -180.782482932535231 301.012841539313285
0

0101000
+251 25 -247 25 *
Ve
0.000000150000000
1425.575000000000045 -970.787500000000023 669.635555956550434
0 0

0101101
*
Ed
 0.000000100000000 1 1 0
1  41 0 1.570796326794897 3.141592653589793
2  24 28 0 1.570796326794897 3.141592653589793
0

0101000
+245 25 -249 25 *
Ve
0.000000150000000
1425.575000000000045 -802.512499999999932 1159.430880428398950
0 0

0101101
*
Ed
 0.000000100000000 1 1 0
1  42 0 4.712388980384690 6.283185307179586
2  25 29 0 4.712388980384690 6.283185307179586
0

0101000
+247 25 -243 25 *
Ve
0.000000150000000
1425.575000000000045 -970.787500000000023 1151.430880428398950
0 0

0101101
*
Ed
 0.000000150000000 1 1 0
1  43 0 -180.782482932535231 301.012841539313285
0

0101000
+245 25 -241 25 *
Ve
0.000000150000000
1425.575000000000045 -962.787500000000023 1159.430880428398950
0 0

0101101
*
Ed
 0.000000150000000 1 1 0
1  44 0 321.118749999999920 481.393750000000011
0

0101000
+243 25 -239 25 *
Ed
 0.000000100000000 1 1 0
1  45 0 0.000000000000000 1.570796326794897
2  26 30 0 0.000000000000000 1.570796326794897
0

0101000
+239 25 -241 25 *
Wi

0101100
-250 4 +248 4 -246 4 -244 4 -242 4 +240 4 -238 4 -237 4 *
Ve
0.000000100000000
1425.575000000000045 -985.787500000000023 983.432438937782877
0 0

0101101
*
Ed
 0.000000100000000 1 1 0
1  46 0 0.000000000000000 6.283185307179586
2  27 31 38 0.000000000000000 6.283185307179586
0

0101100
+235 19 -235 19 *
Wi

0101100
-234 0 *
Ve
0.000000100000000
1425.575000000000045 -779.512499999999932 1116.030880428398859
0 0

0101101
*
Ed
 0.000000100000000 1 1 0
1  47 0 0.000000000000000 6.283185307179586
2  28 32 39 0.000000000000000 6.283185307179586
0

0101100
+232 19 -232 19 *
Wi

0101100
-231 0 *
Ve
0.000000100000000
1425.575000000000045 -985.787500000000023 1116.030880428398859
0 0

0101101
*
Ed
 0.000000100000000 1 1 0
1  48 0 0.000000000000000 6.283185307179586
2  29 33 40 0.000000000000000 6.283185307179586
0

0101100
+229 19 -229 19 *
Wi

0101100
-228 0 *
Ve
0.000000100000000
1425.575000000000045 -882.649999999999977 1181.030880428398859
0 0

0101101
*
Ed
 0.000000100000000 1 1 0
1  49 0 0.000000000000000 6.283185307179586
2  30 34 41 0.000000000000000 6.283185307179586
0

0101100
+226 19 -226 19 *
Wi

0101100
-225 0 *
Fa
0  0.000000100000000 4 16

0111000
+324 0 +321 0 +318 0 +315 0 +312 0 +309 0 +306 0 +289 0 +286 0 +283 0 
+280 0 +277 0 +274 0 +271 0 +268 0 +265 0 +262 0 +259 0 +256 0 +253 0 
+236 0 +233 0 +230 0 +227 0 +224 0 *
Ed
 0.000000100000000 1 1 0
1  50 0 0.000000000000000 2330.449999999999818
0

0101000
+331 15 -338 15 *
Wi

0101100
+342 43 +335 43 +328 43 +222 43 *
Ve
0.000000100000000
1437.575000000000045 926.718750000000000 653.235555956550456
0 0

0101101
*
Ed
 0.000000100000000 1 1 0
1  51 0 0.000000000000000 6.283185307179586
2  31 5 18 0.000000000000000 6.283185307179586
0

0101100
+220 19 -220 19 *
Wi

0101100
-219 0 *
Ve
0.000000100000000
1437.575000000000045 838.581249999999955 653.235555956550456
0 0

0101101
*
Ed
 0.000000100000000 1 1 0
1  52 0 0.000000000000000 6.283185307179586
2  32 6 20 0.000000000000000 6.283185307179586
0

0101100
+217 19 -217 19 *
Wi

0101100
-216 0 *
Ve
0.000000100000000
1437.575000000000045 985.787500000000023 718.235555956550456
0 0

0101101
*
Ed
 0.000000100000000 1 1 0
1  53 0 0.000000000000000 6.283185307179586
2  33 7 21 0.000000000000000 6.283185307179586
0

0101100
+214 19 -214 19 *
Wi

0101100
-213 0 *
Ve
0.000000100000000
1437.575000000000045 779.512499999999932 718.235555956550456
0 0

0101101
*
Ed
 0.000000100000000 1 1 0
1  54 0 0.000000000000000 6.283185307179586
2  34 8 22 0.000000000000000 6.283185307179586
0

0101100
+211 19 -211 19 *
Wi

0101100
-210 0 *
Ve
0.000000100000000
1437.575000000000045 985.787500000000023 850.833997447166666
0 0

0101101
*
Ed
 0.000000100000000 1 1 0
1  55 0 0.000000000000000 6.283185307179586
2  35 9 23 0.000000000000000 6.283185307179586
0

0101100
+208 19 -208 19 *
Wi

0101100
-207 0 *
Ve
0.000000100000000
1437.575000000000045 779.512499999999932 850.833997447166666
0 0

0101101
*
Ed
 0.000000100000000 1 1 0
1  56 0 0.000000000000000 6.283185307179586
2  36 10 24 0.000000000000000 6.283185307179586
0

0101100
+205 19 -205 19 *
Wi

0101100
-204 0 *
Ve
0.000000150000114
1437.575000000000045 962.787500000000023 661.635555956550434
0 0

0101101
*
Ve
0.000000150000000
1437.575000000000045 970.787500000000023 669.635555956550434
0 0

0101101
*
Ed
 0.000000100000000 1 1 0
1  57 0 3.141592653589793 4.712388980384690
2  37 11 0 3.141592653589793 4.712388980384690
0

0101000
+202 25 -201 25 *
Ve
0.000000150000000
1437.575000000000045 802.512499999999932 661.635555956550434
0 0

0101101
*
Ed
 0.000000150000000 1 1 0
1  58 0 -561.531250000000000 -401.256249999999966
0

0101000
+202 25 -199 25 *
Ve
0.000000150000000
1437.575000000000045 970.787500000000023 1151.430880428398950
0 0

0101101
*
Ed
 0.000000150000000 1 1 0
1  59 0 -180.782482932535231 301.012841539313285
0

0101000
+201 25 -197 25 *
Ve
0.000000150000000
1437.575000000000045 794.512499999999932 669.635555956550434
0 0

0101101
*
Ed
 0.000000100000000 1 1 0
1  60 0 1.570796326794897 3.141592653589793
2  38 12 0 1.570796326794897 3.141592653589793
0

0101000
+195 25 -199 25 *
Ve
0.000000150000114
1437.575000000000045 962.787500000000023 1159.430880428398950
0 0

0101101
*
Ed
 0.000000100000000 1 1 0
1  61 0 4.712388980384690 6.283185307179586
2  39 13 0 4.712388980384690 6.283185307179586
0

0101000
+197 25 -193 25 *
Ve
0.000000150000000
1437.575000000000045 794.512499999999932 1151.430880428398950
0 0

0101101
*
Ed
 0.000000150000000 1 1 0
1  62 0 -180.782482932535231 301.012841539313285
0

0101000
+195 25 -191 25 *
Ve
0.000000150000000
1437.575000000000045 802.512499999999932 1159.430880428398950
0 0

0101101
*
Ed
 0.000000150000000 1 1 0
1  63 0 -561.531250000000000 -401.256249999999966
0

0101000
+193 25 -189 25 *
Ed
 0.000000100000000 1 1 0
1  64 0 0.000000000000000 1.570796326794897
2  40 14 0 0.000000000000000 1.570796326794897
0

0101000
+189 25 -191 25 *
Wi

0101100
-200 4 +198 4 -196 4 -194 4 -192 4 +190 4 -188 4 -187 4 *
Ve
0.000000100000000
1437.575000000000045 985.787500000000023 983.432438937782877
0 0

0101101
*
Ed
 0.000000100000000 1 1 0
1  65 0 0.000000000000000 6.283185307179586
2  41 15 26 0.000000000000000 6.283185307179586
0

0101100
+185 19 -185 19 *
Wi

0101100
-184 0 *
Ve
0.000000100000000
1437.575000000000045 779.512499999999932 983.432438937782877
0 0

0101101
*
Ed
 0.000000100000000 1 1 0
1  66 0 0.000000000000000 6.283185307179586
2  42 16 27 0.000000000000000 6.283185307179586
0

0101100
+182 19 -182 19 *
Wi

0101100
-181 0 *
Ve
0.000000100000000
1437.575000000000045 985.787500000000023 1116.030880428398859
0 0

0101101
*
Ed
 0.000000100000000 1 1 0
1  67 0 0.000000000000000 6.283185307179586
2  43 17 28 0.000000000000000 6.283185307179586
0

0101100
+179 19 -179 19 *
Wi

0101100
-178 0 *
Ve
0.000000100000000
1437.575000000000045 779.512499999999932 1116.030880428398859
0 0

0101101
*
Ed
 0.000000100000000 1 1 0
1  68 0 0.000000000000000 6.283185307179586
2  44 18 29 0.000000000000000 6.283185307179586
0

0101100
+176 19 -176 19 *
Wi

0101100
-175 0 *
Ve
0.000000100000000
1437.575000000000045 882.649999999999977 1181.030880428398859
0 0

0101101
*
Ed
 0.000000100000000 1 1 0
1  69 0 0.000000000000000 6.283185307179586
2  45 19 30 0.000000000000000 6.283185307179586
0

0101100
+173 19 -173 19 *
Wi

0101100
-172 0 *
Ve
0.000000100000000
1437.575000000000045 -838.581249999999955 653.235555956550456
0 0

0101101
*
Ed
 0.000000100000000 1 1 0
1  70 0 0.000000000000000 6.283185307179586
2  46 20 31 0.000000000000000 6.283185307179586
0

0101100
+170 19 -170 19 *
Wi

0101100
-169 0 *
Ve
0.000000100000000
1437.575000000000045 -926.718750000000000 653.235555956550456
0 0

0101101
*
Ed
 0.000000100000000 1 1 0
1  71 0 0.000000000000000 6.283185307179586
2  47 21 32 0.000000000000000 6.283185307179586
0

0101100
+167 19 -167 19 *
Wi

0101100
-166 0 *
Ve
0.000000100000000
1437.575000000000045 -779.512499999999932 718.235555956550456
0 0

0101101
*
Ed
 0.000000100000000 1 1 0
1  72 0 0.000000000000000 6.283185307179586
2  48 22 33 0.000000000000000 6.283185307179586
0

0101100
+164 19 -164 19 *
Wi

0101100
-163 0 *
Ve
0.000000100000000
1437.575000000000045 -985.787500000000023 718.235555956550456
0 0

0101101
*
Ed
 0.000000100000000 1 1 0
1  73 0 0.000000000000000 6.283185307179586
2  49 23 34 0.000000000000000 6.283185307179586
0

0101100
+161 19 -161 19 *
Wi

0101100
-160 0 *
Ve
0.000000100000000
1437.575000000000045 -779.512499999999932 850.833997447166666
0 0

0101101
*
Ed
 0.000000100000000 1 1 0
1  74 0 0.000000000000000 6.283185307179586
2  50 24 35 0.000000000000000 6.283185307179586
0

0101100
+158 19 -158 19 *
Wi

0101100
-157 0 *
Ve
0.000000100000000
1437.575000000000045 -985.787500000000023 850.833997447166666
0 0

0101101
*
Ed
 0.000000100000000 1 1 0
1  75 0 0.000000000000000 6.283185307179586
2  51 25 36 0.000000000000000 6.283185307179586
0

0101100
+155 19 -155 19 *
Wi

0101100
-154 0 *
Ve
0.000000100000000
1437.575000000000045 -779.512499999999932 983.432438937782877
0 0

0101101
*
Ed
 0.000000100000000 1 1 0
1  76 0 0.000000000000000 6.283185307179586
2  52 26 37 0.000000000000000 6.283185307179586
0

0101100
+152 19 -152 19 *
Wi

0101100
-151 0 *
Ve
0.000000150000000
1437.575000000000045 -802.512499999999932 661.635555956550434
0 0

0101101
*
Ve
0.000000150000000
1437.575000000000045 -794.512499999999932 669.635555956550434
0 0

0101101
*
Ed
 0.000000100000000 1 1 0
1  77 0 3.141592653589793 4.712388980384690
2  53 27 0 3.141592653589793 4.712388980384690
0

0101000
+149 25 -148 25 *
Ve
0.000000150000000
1437.575000000000045 -962.787500000000023 661.635555956550434
0 0

0101101
*
Ed
 0.000000150000000 1 1 0
1  78 0 321.118749999999920 481.393750000000011
0

0101000
+149 25 -146 25 *
Ve
0.000000150000000
1437.575000000000045 -794.512499999999932 1151.430880428398950
0 0

0101101
*
Ed
 0.000000150000000 1 1 0
1  79 0 -180.782482932535231 301.012841539313285
0

0101000
+148 25 -144 25 *
Ve
0.000000150000000
1437.575000000000045 -970.787500000000023 669.635555956550434
0 0

0101101
*
Ed
 0.000000100000000 1 1 0
1  80 0 1.570796326794897 3.141592653589793
2  54 28 0 1.570796326794897 3.141592653589793
0

0101000
+142 25 -146 25 *
Ve
0.000000150000000
1437.575000000000045 -802.512499999999932 1159.430880428398950
0 0

0101101
*
Ed
 0.000000100000000 1 1 0
1  81 0 4.712388980384690 6.283185307179586
2  55 29 0 4.712388980384690 6.283185307179586
0

0101000
+144 25 -140 25 *
Ve
0.000000150000000
1437.575000000000045 -970.787500000000023 1151.430880428398950
0 0

0101101
*
Ed
 0.000000150000000 1 1 0
1  82 0 -180.782482932535231 301.012841539313285
0

0101000
+142 25 -138 25 *
Ve
0.000000150000000
1437.575000000000045 -962.787500000000023 1159.430880428398950
0 0

0101101
*
Ed
 0.000000150000000 1 1 0
1  83 0 321.118749999999920 481.393750000000011
0

0101000
+140 25 -136 25 *
Ed
 0.000000100000000 1 1 0
1  84 0 0.000000000000000 1.570796326794897
2  56 30 0 0.000000000000000 1.570796326794897
0

0101000
+136 25 -138 25 *
Wi

0101100
-147 4 +145 4 -143 4 -141 4 -139 4 +137 4 -135 4 -134 4 *
Ve
0.000000100000000
1437.575000000000045 -985.787500000000023 983.432438937782877
0 0

0101101
*
Ed
 0.000000100000000 1 1 0
1  85 0 0.000000000000000 6.283185307179586
2  57 31 38 0.000000000000000 6.283185307179586
0

0101100
+132 19 -132 19 *
Wi

0101100
-131 0 *
Ve
0.000000100000000
1437.575000000000045 -779.512499999999932 1116.030880428398859
0 0

0101101
*
Ed
 0.000000100000000 1 1 0
1  86 0 0.000000000000000 6.283185307179586
2  58 32 39 0.000000000000000 6.283185307179586
0

0101100
+129 19 -129 19 *
Wi

0101100
-128 0 *
Ve
0.000000100000000
1437.575000000000045 -985.787500000000023 1116.030880428398859
0 0

0101101
*
Ed
 0.000000100000000 1 1 0
1  87 0 0.000000000000000 6.283185307179586
2  59 33 40 0.000000000000000 6.283185307179586
0

0101100
+126 19 -126 19 *
Wi

0101100
-125 0 *
Ve
0.000000100000000
1437.575000000000045 -882.649999999999977 1181.030880428398859
0 0

0101101
*
Ed
 0.000000100000000 1 1 0
1  88 0 0.000000000000000 6.283185307179586
2  60 34 41 0.000000000000000 6.283185307179586
0

0101100
+123 19 -123 19 *
Wi

0101100
-122 0 *
Fa
0  0.000000100000000 35 42

0111000
+221 0 +218 0 +215 0 +212 0 +209 0 +206 0 +203 0 +186 0 +183 0 +180 0 
+177 0 +174 0 +171 0 +168 0 +165 0 +162 0 +159 0 +156 0 +153 0 +150 0 
+133 0 +130 0 +127 0 +124 0 +121 0 *
Wi

0101100
+330 0 -337 0 -325 11 +222 14 *
Fa
0  0.000000100000000 36 0

0111000
+119 0 *
Ed
 0.000000100000000 1 1 0
1  89 0 7.000000000000000 19.000000000000000
3  61 62CN 5 0 7.000000000000000 19.000000000000000
0

0101000
+323 44 -220 44 *
Wi

0101100
-219 0 +117 18 +322 0 -117 18 *
Fa
0  0.000000100000000 5 18

0111000
+116 0 *
Ed
 0.000000100000000 1 1 0
1  90 0 7.000000000000000 19.000000000000000
3  63 64CN 6 0 7.000000000000000 19.000000000000000
0

0101000
+320 45 -217 45 *
Wi

0101100
-216 0 +114 20 +319 0 -114 20 *
Fa
0  0.000000100000000 6 20

0111000
+113 0 *
Ed
 0.000000100000000 1 1 0
1  91 0 7.000000000000000 19.000000000000000
3  65 66CN 7 0 7.000000000000000 19.000000000000000
0

0101000
+317 46 -214 46 *
Wi

0101100
-213 0 +111 21 +316 0 -111 21 *
Fa
0  0.000000100000000 7 21

0111000
+110 0 *
Ed
 0.000000100000000 1 1 0
1  92 0 7.000000000000000 19.000000000000000
3  67 68CN 8 0 7.000000000000000 19.000000000000000
0

0101000
+314 47 -211 47 *
Wi

0101100
-210 0 +108 22 +313 0 -108 22 *
Fa
0  0.000000100000000 8 22

0111000
+107 0 *
Ed
 0.000000100000000 1 1 0
1  93 0 7.000000000000000 19.000000000000000
3  69 70CN 9 0 7.000000000000000 19.000000000000000
0

0101000
+311 48 -208 48 *
Wi

0101100
-207 0 +105 23 +310 0 -105 23 *
Fa
0  0.000000100000000 9 23

0111000
+104 0 *
Ed
 0.000000100000000 1 1 0
1  94 0 7.000000000000000 19.000000000000000
3  71 72CN 10 0 7.000000000000000 19.000000000000000
0

0101000
+308 49 -205 49 *
Wi

0101100
-204 0 +102 24 +307 0 -102 24 *
Fa
0  0.000000100000000 10 24

0111000
+101 0 *
Ed
 0.000000100000000 1 1 0
1  95 0 1.000000000000000 13.000000000000000
2  73 11 0 1.000000000000000 13.000000000000000
0

0101000
+304 25 -201 25 *
Ed
 0.000000100000000 1 1 0
1  96 0 1.000000000000000 13.000000000000000
2  74 11 0 1.000000000000000 13.000000000000000
0

0101000
+305 25 -202 25 *
Wi

0101100
-200 0 +99 0 +303 0 -98 0 *
Fa
0  0.000000100000000 11 0

0111000
+97 0 *
Ed
 0.000000100000000 1 1 0
1  97 0 1.000000000000000 13.000000000000000
2  75 12 0 1.000000000000000 13.000000000000000
0

0101000
+302 25 -199 25 *
Wi

0101100
+301 0 -98 0 -198 0 +95 0 *
Fa
0  0.000000100000000 37 0

0111000
+94 0 *
Ed
 0.000000100000000 1 1 0
1  98 0 1.000000000000000 13.000000000000000
2  76 13 0 1.000000000000000 13.000000000000000
0

0101000
+300 25 -197 25 *
Wi

0101100
-99 0 -196 0 +92 0 +299 0 *
Fa
0  0.000000100000000 38 0

0111000
+91 0 *
Ed
 0.000000100000000 1 1 0
1  99 0 1.000000000000000 13.000000000000000
2  77 12 0 1.000000000000000 13.000000000000000
0

0101000
+298 25 -195 25 *
Wi

0101100
-194 0 +95 0 +297 0 -89 0 *
Fa
0  0.000000100000000 12 0

0111000
+88 0 *
Ed
 0.000000100000000 1 1 0
1  100 0 1.000000000000000 13.000000000000000
2  78 13 0 1.000000000000000 13.000000000000000
0

0101000
+296 25 -193 25 *
Wi

0101100
-192 0 +86 0 +295 0 -92 0 *
Fa
0  0.000000100000000 13 0

0111000
+85 0 *
Ed
 0.000000100000000 1 1 0
1  101 0 1.000000000000000 13.000000000000000
2  79 14 0 1.000000000000000 13.000000000000000
0

0101000
+294 25 -191 25 *
Wi

0101100
-89 0 -190 0 +83 0 +293 0 *
Fa
0  0.000000100000000 39 0

0111000
+82 0 *
Ed
 0.000000100000000 1 1 0
1  102 0 1.000000000000000 13.000000000000000
2  80 14 0 1.000000000000000 13.000000000000000
0

0101000
+292 25 -189 25 *
Wi

0101100
+291 0 -86 0 -188 0 +80 0 *
Fa
0  0.000000100000000 40 0

0111000
+79 0 *
Wi

0101100
-187 0 +83 0 +290 0 -80 0 *
Fa
0  0.000000100000000 14 0

0111000
+77 0 *
Ed
 0.000000100000000 1 1 0
1  103 0 7.000000000000000 19.000000000000000
3  81 82CN 15 0 7.000000000000000 19.000000000000000
0

0101000
+288 50 -185 50 *
Wi

0101100
-184 0 +75 26 +287 0 -75 26 *
Fa
0  0.000000100000000 15 26

0111000
+74 0 *
Ed
 0.000000100000000 1 1 0
1  104 0 7.000000000000000 19.000000000000000
3  83 84CN 16 0 7.000000000000000 19.000000000000000
0

0101000
+285 51 -182 51 *
Wi

0101100
-181 0 +72 27 +284 0 -72 27 *
Fa
0  0.000000100000000 16 27

0111000
+71 0 *
Ed
 0.000000100000000 1 1 0
1  105 0 7.000000000000000 19.000000000000000
3  85 86CN 17 0 7.000000000000000 19.000000000000000
0

0101000
+282 52 -179 52 *
Wi

0101100
-178 0 +69 28 +281 0 -69 28 *
Fa
0  0.000000100000000 17 28

0111000
+68 0 *
Ed
 0.000000100000000 1 1 0
1  106 0 7.000000000000000 19.000000000000000
3  87 88CN 18 0 7.000000000000000 19.000000000000000
0

0101000
+279 53 -176 53 *
Wi

0101100
-175 0 +66 29 +278 0 -66 29 *
Fa
0  0.000000100000000 18 29

0111000
+65 0 *
Ed
 0.000000100000000 1 1 0
1  107 0 7.000000000000000 19.000000000000000
3  89 90CN 19 0 7.000000000000000 19.000000000000000
0

0101000
+276 54 -173 54 *
Wi

0101100
-172 0 +63 30 +275 0 -63 30 *
Fa
0  0.000000100000000 19 30

0111000
+62 0 *
Ed
 0.000000100000000 1 1 0
1  108 0 7.000000000000000 19.000000000000000
3  91 92CN 20 0 7.000000000000000 19.000000000000000
0

0101000
+273 55 -170 55 *
Wi

0101100
-169 0 +60 31 +272 0 -60 31 *
Fa
0  0.000000100000000 20 31

0111000
+59 0 *
Ed
 0.000000100000000 1 1 0
1  109 0 7.000000000000000 19.000000000000000
3  93 94CN 21 0 7.000000000000000 19.000000000000000
0

0101000
+270 56 -167 56 *
Wi

0101100
-166 0 +57 32 +269 0 -57 32 *
Fa
0  0.000000100000000 21 32

0111000
+56 0 *
Ed
 0.000000100000000 1 1 0
1  110 0 7.000000000000000 19.000000000000000
3  95 96CN 22 0 7.000000000000000 19.000000000000000
0

0101000
+267 57 -164 57 *
Wi

0101100
-163 0 +54 33 +266 0 -54 33 *
Fa
0  0.000000100000000 22 33

0111000
+53 0 *
Ed
 0.000000100000000 1 1 0
1  111 0 7.000000000000000 19.000000000000000
3  97 98CN 23 0 7.000000000000000 19.000000000000000
0

0101000
+264 58 -161 58 *
Wi

0101100
-160 0 +51 34 +263 0 -51 34 *
Fa
0  0.000000100000000 23 34

0111000
+50 0 *
Ed
 0.000000100000000 1 1 0
1  112 0 7.000000000000000 19.000000000000000
3  99 100CN 24 0 7.000000000000000 19.000000000000000
0

0101000
+261 59 -158 59 *
Wi

0101100
-157 0 +48 35 +260 0 -48 35 *
Fa
0  0.000000100000000 24 35

0111000
+47 0 *
Ed
 0.000000100000000 1 1 0
1  113 0 7.000000000000000 19.000000000000000
3  101 102CN 25 0 7.000000000000000 19.000000000000000
0

0101000
+258 60 -155 60 *
Wi

0101100
-154 0 +45 36 +257 0 -45 36 *
Fa
0  0.000000100000000 25 36

0111000
+44 0 *
Ed
 0.000000100000000 1 1 0
1  114 0 7.000000000000000 19.000000000000000
3  103 104CN 26 0 7.000000000000000 19.000000000000000
0

0101000
+255 61 -152 61 *
Wi

0101100
-151 0 +42 37 +254 0 -42 37 *
Fa
0  0.000000100000000 26 37

0111000
+41 0 *
Ed
 0.000000100000000 1 1 0
1  115 0 1.000000000000000 13.000000000000000
2  105 27 0 1.000000000000000 13.000000000000000
0

0101000
+251 25 -148 25 *
Ed
 0.000000100000000 1 1 0
1  116 0 1.000000000000000 13.000000000000000
2  106 27 0 1.000000000000000 13.000000000000000
0

0101000
+252 25 -149 25 *
Wi

0101100
-147 0 +39 0 +250 0 -38 0 *
Fa
0  0.000000100000000 27 0

0111000
+37 0 *
Ed
 0.000000100000000 1 1 0
1  117 0 1.000000000000000 13.000000000000000
2  107 28 0 1.000000000000000 13.000000000000000
0

0101000
+249 25 -146 25 *
Wi

0101100
+248 0 -38 0 -145 0 +35 0 *
Fa
0  0.000000100000000 41 0

0111000
+34 0 *
Ed
 0.000000100000000 1 1 0
1  118 0 1.000000000000000 13.000000000000000
2  108 29 0 1.000000000000000 13.000000000000000
0

0101000
+247 25 -144 25 *
Wi

0101100
-39 0 -143 0 +32 0 +246 0 *
Fa
0  0.000000100000000 42 0

0111000
+31 0 *
Ed
 0.000000100000000 1 1 0
1  119 0 1.000000000000000 13.000000000000000
2  109 28 0 1.000000000000000 13.000000000000000
0

0101000
+245 25 -142 25 *
Wi

0101100
-141 0 +35 0 +244 0 -29 0 *
Fa
0  0.000000100000000 28 0

0111000
+28 0 *
Ed
 0.000000100000000 1 1 0
1  120 0 1.000000000000000 13.000000000000000
2  110 29 0 1.000000000000000 13.000000000000000
0

0101000
+243 25 -140 25 *
Wi

0101100
-139 0 +26 0 +242 0 -32 0 *
Fa
0  0.000000100000000 29 0

0111000
+25 0 *
Ed
 0.000000100000000 1 1 0
1  121 0 1.000000000000000 13.000000000000000
2  111 30 0 1.000000000000000 13.000000000000000
0

0101000
+241 25 -138 25 *
Wi

0101100
-29 0 -137 0 +23 0 +240 0 *
Fa
0  0.000000100000000 43 0

0111000
+22 0 *
Ed
 0.000000100000000 1 1 0
1  122 0 1.000000000000000 13.000000000000000
2  112 30 0 1.000000000000000 13.000000000000000
0

0101000
+239 25 -136 25 *
Wi

0101100
+238 0 -26 0 -135 0 +20 0 *
Fa
0  0.000000100000000 44 0

0111000
+19 0 *
Wi

0101100
-134 0 +23 0 +237 0 -20 0 *
Fa
0  0.000000100000000 30 0

0111000
+17 0 *
Ed
 0.000000100000000 1 1 0
1  123 0 7.000000000000000 19.000000000000000
3  113 114CN 31 0 7.000000000000000 19.000000000000000
0

0101000
+235 62 -132 62 *
Wi

0101100
-131 0 +15 38 +234 0 -15 38 *
Fa
0  0.000000100000000 31 38

0111000
+14 0 *
Ed
 0.000000100000000 1 1 0
1  124 0 7.000000000000000 19.000000000000000
3  115 116CN 32 0 7.000000000000000 19.000000000000000
0

0101000
+232 63 -129 63 *
Wi

0101100
-128 0 +12 39 +231 0 -12 39 *
Fa
0  0.000000100000000 32 39

0111000
+11 0 *
Ed
 0.000000100000000 1 1 0
1  125 0 7.000000000000000 19.000000000000000
3  117 118CN 33 0 7.000000000000000 19.000000000000000
0

0101000
+229 64 -126 64 *
Wi

0101100
-125 0 +9 40 +228 0 -9 40 *
Fa
0  0.000000100000000 33 40

0111000
+8 0 *
Ed
 0.000000100000000 1 1 0
1  126 0 7.000000000000000 19.000000000000000
3  119 120CN 34 0 7.000000000000000 19.000000000000000
0

0101000
+226 65 -123 65 *
Wi

0101100
-122 0 +6 41 +225 0 -6 41 *
Fa
0  0.000000100000000 34 41

0111000
+5 0 *
Sh

0101100
-340 5 -333 5 -326 5 -223 0 +120 0 -118 5 -115 0 -112 0 -109 0 -106 0 
-103 0 -100 0 -96 4 +93 4 -90 4 -87 4 -84 4 +81 4 -78 4 -76 4 
-73 0 -70 0 -67 0 -64 0 -61 0 -58 0 -55 0 -52 0 -49 0 -46 0 
-43 0 -40 0 -36 4 +33 4 -30 4 -27 4 -24 4 +21 4 -18 4 -16 4 
-13 0 -10 0 -7 0 -4 0 *
So

0100000
+3 0 *
Co

1100000
+2 0 *

+1 1 