
CASCADE Topology V1, (c) Matra-Datavision
Locations 5
1
1.000000000000000 0.000000000000000 0.000000000000000 0.000000000000000 
0.000000000000000 1.000000000000000 0.000000000000000 0.000000000000000 
0.000000000000000 0.000000000000000 1.000000000000000 0.000000000000000 
1
1.000000000000000 0.000000000000000 0.000000000000000 0.000000000000000 
0.000000000000000 1.000000000000000 0.000000000000000 0.000000000000000 
0.000000000000000 0.000000000000000 1.000000000000000 0.000000000000000 
2  2 -1 0
1
1.000000000000000 0.000000000000000 0.000000000000000 0.000000000000000 
0.000000000000000 1.000000000000000 0.000000000000000 6.350000000000023 
0.000000000000000 0.000000000000000 1.000000000000000 0.000000000000000 
2  2 -1 4 -1 0
Curve2ds 40
1 4.20457428153033241 0.00000000000000000 0.00000000000000000 1.00000000000000000 
1 0.00000000000000000 6.34999999999999964 1.00000000000000000 0.00000000000000000 
1 0.00000000000000000 6.34999999999999964 1.00000000000000000 0.00000000000000000 
1 0.00000000000000000 7.35000000000002274 1.00000000000000000 0.00000000000000000 
1 0.00000000000000000 7.35000000000002274 1.00000000000000000 0.00000000000000000 
1 0.00000000000000000 7.35000000000002274 1.00000000000000000 0.00000000000000000 
1 0.00000000000000000 7.35000000000002274 1.00000000000000000 0.00000000000000000 
1 0.00000000000000000 7.35000000000002274 1.00000000000000000 0.00000000000000000 
1 0.00000000000000000 7.35000000000002274 1.00000000000000000 0.00000000000000000 
1 0.00000000000000000 7.35000000000002274 1.00000000000000000 0.00000000000000000 
1 0.00000000000000000 7.35000000000002274 1.00000000000000000 0.00000000000000000 
1 4.25174715848653761 0.00000000000000000 0.00000000000000000 1.00000000000000000 
1 0.00000000000000000 0.00000000000000000 1.00000000000000000 0.00000000000000000 
1 0.00000000000000000 0.00000000000000000 1.00000000000000000 0.00000000000000000 
1 0.00000000000000000 1.00000000000000000 1.00000000000000000 0.00000000000000000 
1 0.00000000000000000 1.00000000000000000 1.00000000000000000 0.00000000000000000 
1 0.00000000000000000 1.00000000000000000 1.00000000000000000 0.00000000000000000 
1 0.00000000000000000 1.00000000000000000 1.00000000000000000 0.00000000000000000 
1 0.00000000000000000 1.00000000000000000 1.00000000000000000 0.00000000000000000 
1 0.00000000000000000 1.00000000000000000 1.00000000000000000 0.00000000000000000 
1 0.00000000000000000 1.00000000000000000 1.00000000000000000 0.00000000000000000 
1 0.00000000000000000 1.00000000000000000 1.00000000000000000 0.00000000000000000 
1 0.28149099899766478 0.00000000000000000 0.00000000000000000 1.00000000000000000 
1 2.41648301185278447 0.00000000000000000 0.00000000000000000 1.00000000000000000 
1 6.28318530717958623 -0.00000000000000000 0.00000000000000000 1.00000000000000000 
1 0.00000000000000000 -0.00000000000000000 0.00000000000000000 1.00000000000000000 
1 6.28318530717958623 -0.00000000000000000 0.00000000000000000 1.00000000000000000 
1 0.00000000000000000 -0.00000000000000000 0.00000000000000000 1.00000000000000000 
1 6.28318530717958623 -0.00000000000000000 0.00000000000000000 1.00000000000000000 
1 0.00000000000000000 -0.00000000000000000 0.00000000000000000 1.00000000000000000 
1 6.28318530717958623 -0.00000000000000000 0.00000000000000000 1.00000000000000000 
1 0.00000000000000000 -0.00000000000000000 0.00000000000000000 1.00000000000000000 
1 6.28318530717958623 -0.00000000000000000 0.00000000000000000 1.00000000000000000 
1 0.00000000000000000 -0.00000000000000000 0.00000000000000000 1.00000000000000000 
1 6.28318530717958623 -0.00000000000000000 0.00000000000000000 1.00000000000000000 
1 0.00000000000000000 -0.00000000000000000 0.00000000000000000 1.00000000000000000 
1 6.28318530717958623 -0.00000000000000000 0.00000000000000000 1.00000000000000000 
1 0.00000000000000000 -0.00000000000000000 0.00000000000000000 1.00000000000000000 
1 6.28318530717958623 -0.00000000000000000 0.00000000000000000 1.00000000000000000 
1 0.00000000000000000 -0.00000000000000000 0.00000000000000000 1.00000000000000000 
Curves 60
1 108.15143163449829444 -288.92500000000001137 610.47497748278237850 -0.46552548197142440 0.00000000000000000 -0.88503447708847649 
1 -20.97142169233767461 -282.57499999999998863 364.99286876912208299 -0.00000000000000000 -1.00000000000000000 -0.00000000000000000 
1 108.15143163449829444 -288.92500000000001137 610.47497748278237850 -0.46552548197142440 0.00000000000000000 -0.88503447708847649 
1 108.15143163449829444 -288.92500000000001137 610.47497748278237850 0.00000000000000000 1.00000000000000000 0.00000000000000000 
1 -35.00000000000000000 -288.92500000000001137 338.32241581295329524 -0.81373347120673500 0.00000000000000000 -0.58123819371909646 
1 108.15143163449829444 -288.92500000000001137 610.47497748278237850 -0.46552548197142440 0.00000000000000000 -0.88503447708847649 
1 -70.00000000000000000 -288.92500000000001137 313.32241581295329524 0.00000000000000000 0.00000000000000000 -1.00000000000000000 
2 0.00000000000000000 -288.92500000000001137 353.32241581295329524 0.00000000000000000 -1.00000000000000000 0.00000000000000000 0.00000000000000000 0.00000000000000000 -1.00000000000000000 1.00000000000000000 0.00000000000000000 0.00000000000000000 24.00000000000000000
1 -70.00000000000000000 -288.92500000000001137 -1.34543180812954688 0.99395165860284163 0.00000000000000000 0.10981848824610607 
1 38.61562401064384176 -288.92500000000001137 10.65515546944800462 0.92215154186775472 0.00000000000000000 0.38682881721883478 
1 466.58212527611703990 -288.92500000000001137 604.54670423800052959 -0.99986325012030175 0.00000000000000000 0.01653726273803842 
1 381.53038412734986196 -288.92500000000001137 154.50278250280280190 0.21999497702423540 0.00000000000000000 0.97550100465561096 
1 475.58212527611703990 -288.92500000000001137 571.54670423800052959 -0.26311740579210879 0.00000000000000000 0.96476382123773219 
2 406.53038412734986196 -288.92500000000001137 333.32241581295329524 0.00000000000000000 -1.00000000000000000 0.00000000000000000 0.00000000000000000 0.00000000000000000 -1.00000000000000000 1.00000000000000000 0.00000000000000000 0.00000000000000000 31.00000000000000000
1 381.53038412734986196 -288.92500000000001137 154.50278250280280190 0.21999497702423540 0.00000000000000000 0.97550100465561096 
2 0.00000000000000000 -288.92500000000001137 353.32241581295329524 0.00000000000000000 -1.00000000000000000 0.00000000000000000 0.00000000000000000 0.00000000000000000 -1.00000000000000000 1.00000000000000000 0.00000000000000000 0.00000000000000000 12.15000000000000036
2 132.15143163449829444 -288.92500000000001137 585.47497748278237850 0.00000000000000000 -1.00000000000000000 0.00000000000000000 0.00000000000000000 0.00000000000000000 -1.00000000000000000 1.00000000000000000 0.00000000000000000 0.00000000000000000 6.50000000000000000
2 -40.00000000000000000 -288.92500000000001137 29.96917068673849371 0.00000000000000000 -1.00000000000000000 0.00000000000000000 0.00000000000000000 0.00000000000000000 -1.00000000000000000 1.00000000000000000 0.00000000000000000 0.00000000000000000 6.50000000000000000
2 -10.00000000000000000 -288.92500000000001137 33.28377318160653431 0.00000000000000000 -1.00000000000000000 0.00000000000000000 0.00000000000000000 0.00000000000000000 -1.00000000000000000 1.00000000000000000 0.00000000000000000 0.00000000000000000 6.50000000000000000
2 451.58212527611703990 -288.92500000000001137 579.54670423800052959 0.00000000000000000 -1.00000000000000000 0.00000000000000000 0.00000000000000000 0.00000000000000000 -1.00000000000000000 1.00000000000000000 0.00000000000000000 0.00000000000000000 6.50000000000000000
2 406.53038412734986196 -288.92500000000001137 333.32241581295329524 0.00000000000000000 -1.00000000000000000 0.00000000000000000 0.00000000000000000 0.00000000000000000 -1.00000000000000000 1.00000000000000000 0.00000000000000000 0.00000000000000000 14.15000000000000036
2 326.53038412734986196 -288.92500000000001137 159.43110286981789159 0.00000000000000000 -1.00000000000000000 0.00000000000000000 0.00000000000000000 0.00000000000000000 -1.00000000000000000 1.00000000000000000 0.00000000000000000 0.00000000000000000 6.50000000000000000
2 356.53038412734986196 -288.92500000000001137 172.01565539690056994 0.00000000000000000 -1.00000000000000000 0.00000000000000000 0.00000000000000000 0.00000000000000000 -1.00000000000000000 1.00000000000000000 0.00000000000000000 0.00000000000000000 6.50000000000000000
1 -21.49841705689322779 -282.57499999999998863 363.99097073139853364 -0.00000000000000000 -1.00000000000000000 -0.00000000000000000 
2 0.00000000000000000 -282.57499999999998863 353.32241581295329524 0.00000000000000000 -1.00000000000000000 0.00000000000000000 0.00000000000000000 0.00000000000000000 -1.00000000000000000 1.00000000000000000 0.00000000000000000 0.00000000000000000 24.00000000000000000
1 -35.00000000000000000 -288.92500000000001137 338.32241581295329524 -0.81373347120673500 0.00000000000000000 -0.58123819371909646 
1 108.15143163449829444 -288.92500000000001137 610.47497748278237850 -0.46552548197142440 0.00000000000000000 -0.88503447708847649 
1 -70.00000000000000000 -288.92500000000001137 313.32241581295329524 0.00000000000000000 0.00000000000000000 -1.00000000000000000 
1 -70.00000000000000000 -288.92500000000001137 -1.34543180812954688 0.99395165860284163 0.00000000000000000 0.10981848824610607 
1 38.61562401064384176 -288.92500000000001137 10.65515546944800462 0.92215154186775472 0.00000000000000000 0.38682881721883478 
1 466.58212527611703990 -288.92500000000001137 604.54670423800052959 -0.99986325012030175 0.00000000000000000 0.01653726273803842 
1 381.53038412734986196 -288.92500000000001137 154.50278250280280190 0.21999497702423540 0.00000000000000000 0.97550100465561096 
1 475.58212527611703990 -288.92500000000001137 571.54670423800052959 -0.26311740579210879 0.00000000000000000 0.96476382123773219 
2 406.53038412734986196 -282.57499999999998863 333.32241581295329524 0.00000000000000000 -1.00000000000000000 0.00000000000000000 0.00000000000000000 0.00000000000000000 -1.00000000000000000 1.00000000000000000 0.00000000000000000 0.00000000000000000 31.00000000000000000
1 381.53038412734986196 -288.92500000000001137 154.50278250280280190 0.21999497702423540 0.00000000000000000 0.97550100465561096 
2 -40.00000000000000000 -282.57499999999998863 29.96917068673849371 0.00000000000000000 -1.00000000000000000 0.00000000000000000 0.00000000000000000 0.00000000000000000 -1.00000000000000000 1.00000000000000000 0.00000000000000000 0.00000000000000000 6.50000000000000000
2 -10.00000000000000000 -282.57499999999998863 33.28377318160653431 0.00000000000000000 -1.00000000000000000 0.00000000000000000 0.00000000000000000 0.00000000000000000 -1.00000000000000000 1.00000000000000000 0.00000000000000000 0.00000000000000000 6.50000000000000000
2 0.00000000000000000 -282.57499999999998863 353.32241581295329524 0.00000000000000000 -1.00000000000000000 0.00000000000000000 0.00000000000000000 0.00000000000000000 -1.00000000000000000 1.00000000000000000 0.00000000000000000 0.00000000000000000 12.15000000000000036
2 132.15143163449829444 -282.57499999999998863 585.47497748278237850 0.00000000000000000 -1.00000000000000000 0.00000000000000000 0.00000000000000000 0.00000000000000000 -1.00000000000000000 1.00000000000000000 0.00000000000000000 0.00000000000000000 6.50000000000000000
2 326.53038412734986196 -282.57499999999998863 159.43110286981789159 0.00000000000000000 -1.00000000000000000 0.00000000000000000 0.00000000000000000 0.00000000000000000 -1.00000000000000000 1.00000000000000000 0.00000000000000000 0.00000000000000000 6.50000000000000000
2 356.53038412734986196 -282.57499999999998863 172.01565539690056994 0.00000000000000000 -1.00000000000000000 0.00000000000000000 0.00000000000000000 0.00000000000000000 -1.00000000000000000 1.00000000000000000 0.00000000000000000 0.00000000000000000 6.50000000000000000
2 406.53038412734986196 -282.57499999999998863 333.32241581295329524 0.00000000000000000 -1.00000000000000000 0.00000000000000000 0.00000000000000000 0.00000000000000000 -1.00000000000000000 1.00000000000000000 0.00000000000000000 0.00000000000000000 14.15000000000000036
2 451.58212527611703990 -282.57499999999998863 579.54670423800052959 0.00000000000000000 -1.00000000000000000 0.00000000000000000 0.00000000000000000 0.00000000000000000 -1.00000000000000000 1.00000000000000000 0.00000000000000000 0.00000000000000000 6.50000000000000000
1 466.58212527611703990 -288.92500000000001137 604.54670423800052959 0.00000000000000000 1.00000000000000000 0.00000000000000000 
1 -35.00000000000000000 -288.92500000000001137 338.32241581295329524 0.00000000000000000 1.00000000000000000 0.00000000000000000 
1 -70.00000000000000000 -288.92500000000001137 313.32241581295329524 0.00000000000000000 1.00000000000000000 0.00000000000000000 
1 -70.00000000000000000 -288.92500000000001137 -1.34543180812954688 0.00000000000000000 1.00000000000000000 0.00000000000000000 
1 38.61562401064384176 -288.92500000000001137 10.65515546944800462 0.00000000000000000 1.00000000000000000 0.00000000000000000 
1 381.53038412734986196 -288.92500000000001137 154.50278250280280190 0.00000000000000000 1.00000000000000000 0.00000000000000000 
1 415.14182060734992774 -282.57499999999998863 303.54250376219459895 -0.00000000000000000 -1.00000000000000000 -0.00000000000000000 
1 475.58212527611703990 -288.92500000000001137 571.54670423800052959 0.00000000000000000 1.00000000000000000 0.00000000000000000 
1 427.09012679642637522 -282.57499999999998863 356.52364382746480942 -0.00000000000000000 -1.00000000000000000 -0.00000000000000000 
1 -0.00000000000000298 -281.57499999999998863 341.17241581295331798 0.00000000000000000 -1.00000000000000000 0.00000000000000000 
1 132.15143163449829444 -281.57499999999998863 578.97497748278237850 0.00000000000000000 -1.00000000000000000 0.00000000000000000 
1 -40.00000000000000000 -281.57499999999998863 23.46917068673849371 0.00000000000000000 -1.00000000000000000 0.00000000000000000 
1 -10.00000000000000178 -281.57499999999998863 26.78377318160653786 0.00000000000000000 -1.00000000000000000 0.00000000000000000 
1 451.58212527611703990 -281.57499999999998863 573.04670423800052959 0.00000000000000000 -1.00000000000000000 0.00000000000000000 
1 406.53038412734986196 -281.57499999999998863 319.17241581295331798 0.00000000000000000 -1.00000000000000000 0.00000000000000000 
1 326.53038412734986196 -281.57499999999998863 152.93110286981789159 0.00000000000000000 -1.00000000000000000 0.00000000000000000 
1 356.53038412734986196 -281.57499999999998863 165.51565539690056994 0.00000000000000000 -1.00000000000000000 0.00000000000000000 
Polygon3D 0
PolygonOnTriangulations 0
Surfaces 22
1 108.15143163449829444 -288.92500000000001137 610.47497748278237850 -0.88503447708847649 0.00000000000000000 0.46552548197142440 -0.46552548197142440 0.00000000000000000 -0.88503447708847649 0.00000000000000000 -1.00000000000000000 0.00000000000000000 
2 0.00000000000000000 -282.57499999999998863 353.32241581295329524 -0.00000000000000000 -1.00000000000000000 -0.00000000000000000 0.00000000000000000 0.00000000000000000 -1.00000000000000000 1.00000000000000000 0.00000000000000000 0.00000000000000000 24.00000000000000000
1 187.51524098367161741 -288.92500000000001137 322.00906346062413377 -0.00000000000000000 -1.00000000000000000 -0.00000000000000000 0.00000000000000000 0.00000000000000000 -1.00000000000000000 1.00000000000000000 0.00000000000000000 0.00000000000000000 
2 406.53038412734986196 -282.57499999999998863 333.32241581295329524 -0.00000000000000000 -1.00000000000000000 -0.00000000000000000 0.00000000000000000 0.00000000000000000 -1.00000000000000000 1.00000000000000000 0.00000000000000000 0.00000000000000000 31.00000000000000000
2 0.00000000000000000 -281.57499999999998863 353.32241581295329524 -0.00000000000000000 -1.00000000000000000 -0.00000000000000000 0.00000000000000000 0.00000000000000000 -1.00000000000000000 1.00000000000000000 0.00000000000000000 0.00000000000000000 12.15000000000000036
2 132.15143163449829444 -281.57499999999998863 585.47497748278237850 -0.00000000000000000 -1.00000000000000000 -0.00000000000000000 0.00000000000000000 0.00000000000000000 -1.00000000000000000 1.00000000000000000 0.00000000000000000 0.00000000000000000 6.50000000000000000
2 -40.00000000000000000 -281.57499999999998863 29.96917068673849371 -0.00000000000000000 -1.00000000000000000 -0.00000000000000000 0.00000000000000000 0.00000000000000000 -1.00000000000000000 1.00000000000000000 0.00000000000000000 0.00000000000000000 6.50000000000000000
2 -10.00000000000000000 -281.57499999999998863 33.28377318160653431 -0.00000000000000000 -1.00000000000000000 -0.00000000000000000 0.00000000000000000 0.00000000000000000 -1.00000000000000000 1.00000000000000000 0.00000000000000000 0.00000000000000000 6.50000000000000000
2 451.58212527611703990 -281.57499999999998863 579.54670423800052959 -0.00000000000000000 -1.00000000000000000 -0.00000000000000000 0.00000000000000000 0.00000000000000000 -1.00000000000000000 1.00000000000000000 0.00000000000000000 0.00000000000000000 6.50000000000000000
2 406.53038412734986196 -281.57499999999998863 333.32241581295329524 -0.00000000000000000 -1.00000000000000000 -0.00000000000000000 0.00000000000000000 0.00000000000000000 -1.00000000000000000 1.00000000000000000 0.00000000000000000 0.00000000000000000 14.15000000000000036
2 326.53038412734986196 -281.57499999999998863 159.43110286981789159 -0.00000000000000000 -1.00000000000000000 -0.00000000000000000 0.00000000000000000 0.00000000000000000 -1.00000000000000000 1.00000000000000000 0.00000000000000000 0.00000000000000000 6.50000000000000000
2 356.53038412734986196 -281.57499999999998863 172.01565539690056994 -0.00000000000000000 -1.00000000000000000 -0.00000000000000000 0.00000000000000000 0.00000000000000000 -1.00000000000000000 1.00000000000000000 0.00000000000000000 0.00000000000000000 6.50000000000000000
1 187.51524098367156057 -282.57499999999998863 322.00906346062430430 0.00000000000000000 1.00000000000000000 0.00000000000000000 0.00000000000000000 0.00000000000000000 1.00000000000000000 1.00000000000000000 0.00000000000000000 0.00000000000000000 
1 466.58212527611703990 -288.92500000000001137 604.54670423800052959 0.01653726273803842 0.00000000000000000 0.99986325012030175 -0.99986325012030175 0.00000000000000000 0.01653726273803842 0.00000000000000000 -1.00000000000000000 0.00000000000000000 
1 -35.00000000000000000 -288.92500000000001137 338.32241581295329524 -0.58123819371909646 0.00000000000000000 0.81373347120673500 -0.81373347120673500 0.00000000000000000 -0.58123819371909646 0.00000000000000000 -1.00000000000000000 0.00000000000000000 
1 108.15143163449829444 -288.92500000000001137 610.47497748278237850 -0.88503447708847649 0.00000000000000000 0.46552548197142440 -0.46552548197142440 0.00000000000000000 -0.88503447708847649 0.00000000000000000 -1.00000000000000000 0.00000000000000000 
1 -70.00000000000000000 -288.92500000000001137 313.32241581295329524 -1.00000000000000000 0.00000000000000000 0.00000000000000000 0.00000000000000000 0.00000000000000000 -1.00000000000000000 -0.00000000000000000 -1.00000000000000000 -0.00000000000000000 
1 -70.00000000000000000 -288.92500000000001137 -1.34543180812954688 0.10981848824610607 0.00000000000000000 -0.99395165860284163 0.99395165860284163 0.00000000000000000 0.10981848824610607 0.00000000000000000 -1.00000000000000000 0.00000000000000000 
1 38.61562401064384176 -288.92500000000001137 10.65515546944800462 0.38682881721883478 0.00000000000000000 -0.92215154186775472 0.92215154186775472 0.00000000000000000 0.38682881721883478 0.00000000000000000 -1.00000000000000000 0.00000000000000000 
1 381.53038412734986196 -288.92500000000001137 154.50278250280280190 0.97550100465561096 0.00000000000000000 -0.21999497702423540 0.21999497702423540 0.00000000000000000 0.97550100465561096 0.00000000000000000 -1.00000000000000000 0.00000000000000000 
1 475.58212527611703990 -288.92500000000001137 571.54670423800052959 0.96476382123773219 0.00000000000000000 0.26311740579210879 -0.26311740579210879 0.00000000000000000 0.96476382123773219 0.00000000000000000 -1.00000000000000000 0.00000000000000000 
1 381.53038412734986196 -288.92500000000001137 154.50278250280280190 0.97550100465561096 0.00000000000000000 -0.21999497702423540 0.21999497702423540 0.00000000000000000 0.97550100465561096 0.00000000000000000 -1.00000000000000000 0.00000000000000000 
Triangulations 0

TShapes 163
Ve
0.000000100000000
108.151431634498294 -288.925000000000011 610.474977482782379
0 0

0101101
*
Ve
0.000000100000391
-20.971421692337866 -288.925000000000011 364.992868769121742
0 0

0101101
*
Ed
 0.000000100000000 1 1 0
1  1 0 0.000000000000000 277.370108248472150
0

0101000
+163 3 -162 3 *
Ve
0.000000100000391
-20.971421692337866 -282.574999999999989 364.992868769121742
0 0

0101101
*
Ed
 0.000000100000000 1 1 0
1  2 0 0.000000000000000 6.350000000000023
2  1 2 0 0.000000000000000 6.350000000000023
0

0101000
+160 3 -162 3 *
Ve
0.000000100000000
108.151431634498294 -282.574999999999989 610.474977482782379
0 0

0101101
*
Ed
 0.000000100000000 1 1 0
1  3 0 0.000000000000000 277.370108248472150
0

0101000
+158 5 -160 5 *
Ed
 0.000000100000000 1 1 0
1  4 0 0.000000000000000 6.350000000000023
0

0101000
+163 3 -158 3 *
Wi

0101100
-161 0 +159 0 +157 4 +156 0 *
Fa
0  0.000000100000000 1 0

0101000
+155 0 *
Ve
0.000000100000000
-35.000000000000000 -288.925000000000011 338.322415812953295
0 0

0101101
*
Ve
0.000000100000000
-70.000000000000000 -288.925000000000011 313.322415812953295
0 0

0101101
*
Ed
 0.000000100000000 1 1 0
1  5 0 0.000000000000000 43.011626335213137
0

0101000
+153 3 -152 3 *
Ve
0.000000100000383
-21.498417056893054 -288.925000000000011 363.990970731398875
0 0

0101101
*
Ed
 0.000000100000000 1 1 0
1  6 0 278.502152325465431 307.505039312295764
0

0101000
+150 3 -153 3 *
Ve
0.000000100000000
-70.000000000000000 -288.925000000000011 -1.345431808129547
0 0

0101101
*
Ed
 0.000000100000000 1 1 0
1  7 0 0.000000000000000 314.667847621082842
0

0101000
+152 3 -148 3 *
Ed
 0.000000100000000 1 1 0
1  8 0 4.204574281530348 4.251747158486522
2  2 2 0 4.204574281530348 4.251747158486522
0

0101000
+162 3 -150 3 *
Ve
0.000000100000000
38.615624010643842 -288.925000000000011 10.655155469448005
0 0

0101101
*
Ed
 0.000000100000000 1 1 0
1  9 0 0.000000000000000 109.276565988451097
0

0101000
+148 3 -145 3 *
Ve
0.000000100000000
381.530384127349862 -288.925000000000011 154.502782502802802
0 0

0101101
*
Ed
 0.000000100000000 1 1 0
1  10 0 0.000000000000000 371.863782195880390
0

0101000
+145 3 -143 3 *
Ve
0.000000100000000
466.582125276117040 -288.925000000000011 604.546704238000530
0 0

0101101
*
Ed
 0.000000100000000 1 1 0
1  11 0 0.000000000000000 358.479715699614928
0

0101000
+141 3 -163 3 *
Ve
0.000000100000364
415.141820607349644 -288.925000000000011 303.542503762194372
0 0

0101101
*
Ed
 0.000000100000000 1 1 0
1  12 0 0.000000000000000 152.782745018297760
0

0101000
+143 3 -139 3 *
Ve
0.000000100000000
475.582125276117040 -288.925000000000011 571.546704238000530
0 0

0101101
*
Ed
 0.000000100000000 1 1 0
1  13 0 0.000000000000000 34.205262752974143
0

0101000
+137 3 -141 3 *
Ve
0.000000100000458
427.090126796426148 -288.925000000000011 356.523643827465207
0 0

0101101
*
Ed
 0.000000100000000 1 1 0
1  14 0 0.281490998997654 2.416483011852798
2  3 4 0 0.281490998997654 2.416483011852798
0

0101000
+139 3 -135 3 *
Ed
 0.000000100000000 1 1 0
1  15 0 207.094467725313507 427.517675271313692
0

0101000
+135 3 -137 3 *
Wi

0101100
+151 0 +149 0 +147 0 +146 0 +144 0 +161 0 +142 0 +140 0 +138 0 +136 0 
+134 0 +133 0 *
Ve
0.000000100000003
-0.000000000000003 -288.925000000000011 341.172415812953318
0 0

0101101
*
Ed
 0.000000100000000 1 1 0
1  16 0 0.000000000000000 6.283185307179586
2  4 5 0 0.000000000000000 6.283185307179586
0

0101100
+131 3 -131 3 *
Wi

0101100
-130 0 *
Ve
0.000000100000000
132.151431634498294 -288.925000000000011 578.974977482782379
0 0

0101101
*
Ed
 0.000000100000000 1 1 0
1  17 0 0.000000000000000 6.283185307179586
2  5 6 0 0.000000000000000 6.283185307179586
0

0101100
+128 3 -128 3 *
Wi

0101100
-127 0 *
Ve
0.000000100000000
-40.000000000000000 -288.925000000000011 23.469170686738494
0 0

0101101
*
Ed
 0.000000100000000 1 1 0
1  18 0 0.000000000000000 6.283185307179586
2  6 7 0 0.000000000000000 6.283185307179586
0

0101100
+125 3 -125 3 *
Wi

0101100
-124 0 *
Ve
0.000000100000004
-10.000000000000002 -288.925000000000011 26.783773181606538
0 0

0101101
*
Ed
 0.000000100000000 1 1 0
1  19 0 0.000000000000000 6.283185307179586
2  7 8 0 0.000000000000000 6.283185307179586
0

0101100
+122 3 -122 3 *
Wi

0101100
-121 0 *
Ve
0.000000100000000
451.582125276117040 -288.925000000000011 573.046704238000530
0 0

0101101
*
Ed
 0.000000100000000 1 1 0
1  20 0 0.000000000000000 6.283185307179586
2  8 9 0 0.000000000000000 6.283185307179586
0

0101100
+119 3 -119 3 *
Wi

0101100
-118 0 *
Ve
0.000000100000000
406.530384127349862 -288.925000000000011 319.172415812953318
0 0

0101101
*
Ed
 0.000000100000000 1 1 0
1  21 0 0.000000000000000 6.283185307179586
2  9 10 0 0.000000000000000 6.283185307179586
0

0101100
+116 3 -116 3 *
Wi

0101100
-115 0 *
Ve
0.000000100000000
326.530384127349862 -288.925000000000011 152.931102869817892
0 0

0101101
*
Ed
 0.000000100000000 1 1 0
1  22 0 0.000000000000000 6.283185307179586
2  10 11 0 0.000000000000000 6.283185307179586
0

0101100
+113 3 -113 3 *
Wi

0101100
-112 0 *
Ve
0.000000100000000
356.530384127349862 -288.925000000000011 165.515655396900570
0 0

0101101
*
Ed
 0.000000100000000 1 1 0
1  23 0 0.000000000000000 6.283185307179586
2  11 12 0 0.000000000000000 6.283185307179586
0

0101100
+110 3 -110 3 *
Wi

0101100
-109 0 *
Fa
0  0.000000100000000 3 0

0101000
+132 0 +129 0 +126 0 +123 0 +120 0 +117 0 +114 0 +111 0 +108 0 *
Ve
0.000000100000383
-21.498417056893054 -282.574999999999989 363.990970731398875
0 0

0101101
*
Ed
 0.000000100000000 1 1 0
1  24 0 -0.000000000000000 6.350000000000023
2  12 2 0 -0.000000000000000 6.350000000000023
0

0101000
+106 3 -150 3 *
Ed
 0.000000100000000 1 1 0
1  25 0 4.204574281530348 4.251747158486522
2  13 2 0 4.204574281530348 4.251747158486522
0

0101000
+160 3 -106 3 *
Wi

0101100
-146 0 +105 0 +104 0 -159 0 *
Fa
0  0.000000100000000 2 0

0101000
+103 0 *
Ve
0.000000100000000
-35.000000000000000 -282.574999999999989 338.322415812953295
0 0

0101101
*
Ve
0.000000100000000
-70.000000000000000 -282.574999999999989 313.322415812953295
0 0

0101101
*
Ed
 0.000000100000000 1 1 0
1  26 0 0.000000000000000 43.011626335213137
0

0101000
+101 5 -100 5 *
Ed
 0.000000100000000 1 1 0
1  27 0 278.502152325465431 307.505039312295764
0

0101000
+106 5 -101 5 *
Ve
0.000000100000000
-70.000000000000000 -282.574999999999989 -1.345431808129547
0 0

0101101
*
Ed
 0.000000100000000 1 1 0
1  28 0 0.000000000000000 314.667847621082842
0

0101000
+100 5 -97 5 *
Ve
0.000000100000000
38.615624010643842 -282.574999999999989 10.655155469448005
0 0

0101101
*
Ed
 0.000000100000000 1 1 0
1  29 0 0.000000000000000 109.276565988451097
0

0101000
+97 5 -95 5 *
Ve
0.000000100000000
381.530384127349862 -282.574999999999989 154.502782502802802
0 0

0101101
*
Ed
 0.000000100000000 1 1 0
1  30 0 0.000000000000000 371.863782195880390
0

0101000
+95 5 -93 5 *
Ve
0.000000100000000
466.582125276117040 -282.574999999999989 604.546704238000530
0 0

0101101
*
Ed
 0.000000100000000 1 1 0
1  31 0 0.000000000000000 358.479715699614928
0

0101000
+91 5 -158 5 *
Ve
0.000000100000364
415.141820607349644 -282.574999999999989 303.542503762194372
0 0

0101101
*
Ed
 0.000000100000000 1 1 0
1  32 0 0.000000000000000 152.782745018297760
0

0101000
+93 5 -89 5 *
Ve
0.000000100000000
475.582125276117040 -282.574999999999989 571.546704238000530
0 0

0101101
*
Ed
 0.000000100000000 1 1 0
1  33 0 0.000000000000000 34.205262752974143
0

0101000
+87 5 -91 5 *
Ve
0.000000100000458
427.090126796426148 -282.574999999999989 356.523643827465207
0 0

0101101
*
Ed
 0.000000100000000 1 1 0
1  34 0 0.281490998997654 2.416483011852798
2  14 4 0 0.281490998997654 2.416483011852798
0

0101000
+89 3 -85 3 *
Ed
 0.000000100000000 1 1 0
1  35 0 207.094467725313507 427.517675271313692
0

0101000
+85 5 -87 5 *
Wi

0101100
-99 4 -98 4 -96 4 -104 0 -94 4 -157 4 -92 4 -90 4 -88 4 -86 4 
-84 0 -83 4 *
Ve
0.000000100000000
-40.000000000000000 -282.574999999999989 23.469170686738494
0 0

0101101
*
Ed
 0.000000100000000 1 1 0
1  36 0 0.000000000000000 6.283185307179586
2  15 7 0 0.000000000000000 6.283185307179586
0

0101100
+81 3 -81 3 *
Wi

0101100
+80 0 *
Ve
0.000000100000004
-10.000000000000002 -282.574999999999989 26.783773181606538
0 0

0101101
*
Ed
 0.000000100000000 1 1 0
1  37 0 0.000000000000000 6.283185307179586
2  16 8 0 0.000000000000000 6.283185307179586
0

0101100
+78 3 -78 3 *
Wi

0101100
+77 0 *
Ve
0.000000100000003
-0.000000000000003 -282.574999999999989 341.172415812953318
0 0

0101101
*
Ed
 0.000000100000000 1 1 0
1  38 0 0.000000000000000 6.283185307179586
2  17 5 0 0.000000000000000 6.283185307179586
0

0101100
+75 3 -75 3 *
Wi

0101100
+74 0 *
Ve
0.000000100000000
132.151431634498294 -282.574999999999989 578.974977482782379
0 0

0101101
*
Ed
 0.000000100000000 1 1 0
1  39 0 0.000000000000000 6.283185307179586
2  18 6 0 0.000000000000000 6.283185307179586
0

0101100
+72 3 -72 3 *
Wi

0101100
+71 0 *
Ve
0.000000100000000
326.530384127349862 -282.574999999999989 152.931102869817892
0 0

0101101
*
Ed
 0.000000100000000 1 1 0
1  40 0 0.000000000000000 6.283185307179586
2  19 11 0 0.000000000000000 6.283185307179586
0

0101100
+69 3 -69 3 *
Wi

0101100
+68 0 *
Ve
0.000000100000000
356.530384127349862 -282.574999999999989 165.515655396900570
0 0

0101101
*
Ed
 0.000000100000000 1 1 0
1  41 0 0.000000000000000 6.283185307179586
2  20 12 0 0.000000000000000 6.283185307179586
0

0101100
+66 3 -66 3 *
Wi

0101100
+65 0 *
Ve
0.000000100000000
406.530384127349862 -282.574999999999989 319.172415812953318
0 0

0101101
*
Ed
 0.000000100000000 1 1 0
1  42 0 0.000000000000000 6.283185307179586
2  21 10 0 0.000000000000000 6.283185307179586
0

0101100
+63 3 -63 3 *
Wi

0101100
+62 0 *
Ve
0.000000100000000
451.582125276117040 -282.574999999999989 573.046704238000530
0 0

0101101
*
Ed
 0.000000100000000 1 1 0
1  43 0 0.000000000000000 6.283185307179586
2  22 9 0 0.000000000000000 6.283185307179586
0

0101100
+60 3 -60 3 *
Wi

0101100
+59 0 *
Fa
0  0.000000100000000 13 0

0101000
+82 0 +79 0 +76 0 +73 0 +70 0 +67 0 +64 0 +61 0 +58 0 *
Ed
 0.000000100000000 1 1 0
1  44 0 0.000000000000000 6.350000000000023
0

0101000
+141 3 -91 3 *
Wi

0101100
+56 0 -156 0 -140 0 +90 4 *
Fa
0  0.000000100000000 14 0

0101000
+55 0 *
Ed
 0.000000100000000 1 1 0
1  45 0 0.000000000000000 6.350000000000023
0

0101000
+153 3 -101 3 *
Ed
 0.000000100000000 1 1 0
1  46 0 0.000000000000000 6.350000000000023
0

0101000
+152 3 -100 3 *
Wi

0101100
+53 0 -52 0 -151 0 +99 4 *
Fa
0  0.000000100000000 15 0

0101000
+51 0 *
Wi

0101100
-149 0 -53 0 +98 4 -105 0 *
Fa
0  0.000000100000000 16 0

0101000
+49 0 *
Ed
 0.000000100000000 1 1 0
1  47 0 0.000000000000000 6.350000000000023
0

0101000
+148 3 -97 3 *
Wi

0101100
+52 0 -47 0 -147 0 +96 4 *
Fa
0  0.000000100000000 17 0

0101000
+46 0 *
Ed
 0.000000100000000 1 1 0
1  48 0 0.000000000000000 6.350000000000023
0

0101000
+145 3 -95 3 *
Wi

0101100
+47 0 -44 0 -144 0 +94 4 *
Fa
0  0.000000100000000 18 0

0101000
+43 0 *
Ed
 0.000000100000000 1 1 0
1  49 0 0.000000000000000 6.350000000000023
0

0101000
+143 3 -93 3 *
Wi

0101100
+44 0 -41 0 -142 0 +92 4 *
Fa
0  0.000000100000000 19 0

0101000
+40 0 *
Ed
 0.000000100000000 1 1 0
1  50 0 0.000000000000000 6.350000000000023
2  23 4 0 0.000000000000000 6.350000000000023
0

0101000
+89 3 -139 3 *
Wi

0101100
-138 0 +38 0 +88 4 +41 0 *
Fa
0  0.000000100000000 20 0

0101000
+37 0 *
Ed
 0.000000100000000 1 1 0
1  51 0 0.000000000000000 6.350000000000023
0

0101000
+137 3 -87 3 *
Wi

0101100
+35 0 -56 0 -136 0 +86 4 *
Fa
0  0.000000100000000 21 0

0101000
+34 0 *
Ed
 0.000000100000000 1 1 0
1  52 0 0.000000000000000 6.350000000000023
2  24 4 0 0.000000000000000 6.350000000000023
0

0101000
+85 3 -135 3 *
Wi

0101100
-134 0 +32 0 +84 0 -38 0 *
Fa
0  0.000000100000000 4 0

0101000
+31 0 *
Wi

0101100
-133 0 -35 0 +83 4 -32 0 *
Fa
0  0.000000100000000 22 0

0101000
+29 0 *
Ed
 0.000000100000000 1 1 0
1  53 0 1.000000000000000 7.350000000000023
3  25 26CN 5 0 1.000000000000000 7.350000000000023
0

0101000
+75 3 -131 3 *
Wi

0101100
-130 0 +27 0 +74 0 -27 0 *
Fa
0  0.000000100000000 5 0

0101000
+26 0 *
Ed
 0.000000100000000 1 1 0
1  54 0 1.000000000000000 7.350000000000023
3  27 28CN 6 0 1.000000000000000 7.350000000000023
0

0101000
+72 3 -128 3 *
Wi

0101100
-127 0 +24 0 +71 0 -24 0 *
Fa
0  0.000000100000000 6 0

0101000
+23 0 *
Ed
 0.000000100000000 1 1 0
1  55 0 1.000000000000000 7.350000000000023
3  29 30CN 7 0 1.000000000000000 7.350000000000023
0

0101000
+81 3 -125 3 *
Wi

0101100
-124 0 +21 0 +80 0 -21 0 *
Fa
0  0.000000100000000 7 0

0101000
+20 0 *
Ed
 0.000000100000000 1 1 0
1  56 0 1.000000000000000 7.350000000000023
3  31 32CN 8 0 1.000000000000000 7.350000000000023
0

0101000
+78 3 -122 3 *
Wi

0101100
-121 0 +18 0 +77 0 -18 0 *
Fa
0  0.000000100000000 8 0

0101000
+17 0 *
Ed
 0.000000100000000 1 1 0
1  57 0 1.000000000000000 7.350000000000023
3  33 34CN 9 0 1.000000000000000 7.350000000000023
0

0101000
+60 3 -119 3 *
Wi

0101100
-118 0 +15 0 +59 0 -15 0 *
Fa
0  0.000000100000000 9 0

0101000
+14 0 *
Ed
 0.000000100000000 1 1 0
1  58 0 1.000000000000000 7.350000000000023
3  35 36CN 10 0 1.000000000000000 7.350000000000023
0

0101000
+63 3 -116 3 *
Wi

0101100
-115 0 +12 0 +62 0 -12 0 *
Fa
0  0.000000100000000 10 0

0101000
+11 0 *
Ed
 0.000000100000000 1 1 0
1  59 0 1.000000000000000 7.350000000000023
3  37 38CN 11 0 1.000000000000000 7.350000000000023
0

0101000
+69 3 -113 3 *
Wi

0101100
-112 0 +9 0 +68 0 -9 0 *
Fa
0  0.000000100000000 11 0

0101000
+8 0 *
Ed
 0.000000100000000 1 1 0
1  60 0 1.000000000000000 7.350000000000023
3  39 40CN 12 0 1.000000000000000 7.350000000000023
0

0101000
+66 3 -110 3 *
Wi

0101100
-109 0 +6 0 +65 0 -6 0 *
Fa
0  0.000000100000000 12 0

0101000
+5 0 *
Sh

0101100
+154 0 +107 0 +102 0 +57 0 +54 0 +50 0 +48 0 +45 0 +42 0 +39 0 
+36 0 +33 0 +30 0 +28 0 -25 0 -22 0 -19 0 -16 0 -13 0 -10 0 
-7 0 -4 0 *
So

0100000
+3 0 *
Co

1100000
+2 0 *

+1 1 