DBRep_DrawableShape

CASCADE Topology V1, (c) Matra-Datavision
Locations 35
1
              1               0               0               0 
              0               1               0               0 
              0               0               1               0 
1
              1               0               0               0 
              0               1               0               0 
              0               0               1               0 
2  2 -1 0
1
              0               1               0               0 
             -1               0               0               0 
              0               0               1               0 
2  2 -1 4 -1 0
1
              1               0               0               0 
              0               1               0               0 
              0               0               1               0 
2  6 1 4 1 0
2  2 -1 4 -1 6 -1 0
1
0.809016994374947               0 0.587785252292473               0 
              0               1               0               0 
-0.587785252292473               0 0.809016994374947               0 
2  9 1 4 1 0
2  2 -1 4 -1 9 -1 0
1
0.809016994374947               0 -0.587785252292473               0 
              0               1               0               0 
0.587785252292473               0 0.809016994374947               0 
2  12 1 4 1 0
2  2 -1 4 -1 12 -1 0
1
0.309016994374947               0 0.951056516295154               0 
              0               1               0               0 
-0.951056516295154               0 0.309016994374947               0 
2  15 1 4 1 0
2  2 -1 4 -1 15 -1 0
1
0.309016994374947               0 -0.951056516295154               0 
              0               1               0               0 
0.951056516295154               0 0.309016994374947               0 
2  18 1 4 1 0
2  2 -1 4 -1 18 -1 0
1
-0.309016994374947               0 0.951056516295154               0 
              0               1               0               0 
-0.951056516295154               0 -0.309016994374947               0 
2  21 1 4 1 0
2  2 -1 4 -1 21 -1 0
1
-0.309016994374947               0 -0.951056516295154               0 
              0               1               0               0 
0.951056516295154               0 -0.309016994374947               0 
2  24 1 4 1 0
2  2 -1 4 -1 24 -1 0
1
-0.809016994374947               0 0.587785252292473               0 
              0               1               0               0 
-0.587785252292473               0 -0.809016994374947               0 
2  27 1 4 1 0
2  2 -1 4 -1 27 -1 0
1
-0.809016994374947               0 -0.587785252292473               0 
              0               1               0               0 
0.587785252292473               0 -0.809016994374947               0 
2  30 1 4 1 0
2  2 -1 4 -1 30 -1 0
1
             -1               0               0               0 
              0               1               0               0 
             -0               0              -1               0 
2  33 1 4 1 0
2  2 -1 4 -1 33 -1 0
Curve2ds 66
1 1.5707963267948966 0 0 1 
1 1.5707963267948966 0 0 1 
1 0 43.599999999999966 1 0 
1 3.1415926535897931 0 0 1 
1 0 0 1 0 
1 0 43.599999999999966 1 0 
1 0 43.599999999999966 1 0 
1 0 43.599999999999966 1 0 
1 0 0.10000000000025011 1 0 
1 0 0 1 0 
1 0 0 0 1 
1 0 0 1 0 
1 0 0 1 0 
1 3.1415926535897931 0 0 1 
1 6.2831853071795862 -0 0 1 
1 4.7123889803846897 0 0 1 
1 4.7123889803846897 0 0 1 
1 6.2831853071795862 -0 0 1 
1 0 -0 0 1 
1 0 202.25000000000091 1 0 
1 0 0 1 0 
1 6.2831853071795862 0 1 0 
1 0 0 1 0 
1 0 40 1 0 
1 0.50556147295294573 0 0 1 
1 0.12275705776501292 0 0 1 
1 6.3917815029353244 0 0 1 
1 0.51972233496221809 0 0 1 
1 6.1745891114238454 0 0 1 
1 6.160428249414573 0 0 1 
1 0.73691472647369671 0 0 1 
1 0.75107558848297162 0 0 1 
1 5.7776238342266399 0 0 1 
1 1.1338800036709042 0 0 1 
1 5.7634629722173658 0 0 1 
1 1.1480408656801775 0 0 1 
1 5.5462705807058867 0 0 1 
1 5.5321097186966144 0 0 1 
1 1.3652332571916561 0 0 1 
1 1.3793941192009302 0 0 1 
1 5.1493053035086813 0 0 1 
1 1.7621985343888631 0 0 1 
1 5.1351444414994081 0 0 1 
1 1.776359396398137 0 0 1 
1 4.917952049987929 0 0 1 
1 4.9037911879786558 0 0 1 
1 1.9935517879096158 0 0 1 
1 2.0077126499188891 0 0 1 
1 4.5209867727907227 0 0 1 
1 2.3905170651068213 0 0 1 
1 4.5068259107814503 0 0 1 
1 2.4046779271160963 0 0 1 
1 4.2896335192699713 0 0 1 
1 4.2754726572606971 0 0 1 
1 2.6218703186275749 0 0 1 
1 2.6360311806368473 0 0 1 
1 3.8926682420727645 0 0 1 
1 3.0188355958247803 0 0 1 
1 3.8785073800634922 0 0 1 
1 3.0329964578340554 0 0 1 
1 3.6613149885520135 0 0 1 
1 3.6471541265427385 0 0 1 
1 3.2501888493455335 0 0 1 
1 3.2643497113548059 0 0 1 
1 0 40 1 0 
1 6.2831853071795862 40 1 0 
Curves 167
1 502.19999999999999 -50 -14 1 0 0 
1 545.79999999999995 -50 -14 0 0 1 
1 502.19999999999999 -50 14 1 0 0 
1 502.19999999999999 -50 -14 0 0 1 
2 545.79999999999995 -14 -14 1 0 -0 0 0 1 0 -1 0 36
1 502.19999999999999 -14 -50 1 0 0 
2 502.19999999999999 -14 -14 1 0 -0 0 0 1 0 -1 0 36
2 545.79999999999995 -14 14 1 0 -0 0 0 1 0 -1 0 36
1 545.79999999999995 -14 -50 0 1 0 
1 545.79999999999995 -14 50 0 1 0 
2 545.79999999999995 14 -14 1 0 -0 0 0 1 0 -1 0 36
2 545.79999999999995 14 14 1 0 -0 0 0 1 0 -1 0 36
1 545.79999999999995 50 -14 0 0 1 
2 545.80000000000018 0 0 1 0 -0 0 0 1 0 -1 0 25.399999999999999
2 502.19999999999999 -14 14 1 0 -0 0 0 1 0 -1 0 36
1 502.19999999999999 -14 50 1 0 0 
1 502.19999999999999 -14 50 0 1 0 
2 502.19999999999999 14 14 1 0 -0 0 0 1 0 -1 0 36
1 502.19999999999999 50 -14 0 0 1 
2 502.19999999999999 14 -14 1 0 -0 0 0 1 0 -1 0 36
1 502.19999999999999 -14 -50 0 1 0 
1 502.19999999999999 14 -50 1 0 0 
1 502.19999999999999 14 50 1 0 0 
1 502.19999999999999 50 -14 1 0 0 
1 502.19999999999999 50 14 1 0 0 
1 545.69999999999993 6.2200000000000001e-15 25.399999999999999 1 0 0 
2 747.95000000000084 0 0 1 0 -0 0 0 1 0 -1 0 25.399999999999999
2 0 747.95000000000005 0 0 1 0 0 -0 1 1 0 -0 49
1 6 747.95000000000005 47 0 0 1 
1 -6 747.95000000000005 47 0 0 1 
2 747.95000000000005 0 0 1 0 -0 0 0 1 0 -1 0 55.359299999999998
2 747.95000000000005 0 0 1 0 -0 0 0 1 0 -1 0 55.359299999999998
2 747.95000000000005 0 0 1 0 -0 0 0 1 0 -1 0 55.359299999999998
2 747.95000000000005 0 0 1 0 -0 0 0 1 0 -1 0 55.359299999999998
1 -6 747.95000000000005 47 0 0 1 
1 6 747.95000000000005 47 0 0 1 
2 0 747.95000000000005 0 0 1 0 0 -0 1 1 0 -0 49
2 0 747.95000000000005 0 0 1 0 0 -0 1 1 0 -0 49
1 6.0000000000000018 747.95000000000005 47.000000000000007 0 0 1 
1 -5.9999999999999991 747.95000000000005 46.999999999999993 0 0 1 
2 747.95000000000005 0 0 1 0 -0 0 0 1 0 -1 0 55.359299999999998
2 747.95000000000005 0 0 1 0 -0 0 0 1 0 -1 0 55.359299999999998
2 747.95000000000005 0 0 1 0 -0 0 0 1 0 -1 0 55.359299999999998
2 747.95000000000005 0 0 1 0 -0 0 0 1 0 -1 0 55.359299999999998
1 -6.0000000000000018 747.95000000000005 47.000000000000007 0 0 1 
1 5.9999999999999991 747.95000000000005 46.999999999999993 0 0 1 
2 0 747.95000000000005 0 0 1 0 0 -0 1 1 0 -0 49
2 0 747.95000000000005 0 0 1 0 0 -0 1 1 0 -0 49
1 6 747.95000000000005 47 0 0 1 
1 -6.0000000000000018 747.95000000000005 47.000000000000007 0 0 1 
2 747.95000000000005 0 0 1 0 -0 0 0 1 0 -1 0 55.359299999999998
2 747.95000000000005 0 0 1 0 -0 0 0 1 0 -1 0 55.359299999999998
2 747.95000000000005 0 0 1 0 -0 0 0 1 0 -1 0 55.359299999999998
2 747.95000000000005 0 0 1 0 -0 0 0 1 0 -1 0 55.359299999999998
1 -6 747.95000000000005 47 0 0 1 
1 6.0000000000000018 747.95000000000005 47.000000000000007 0 0 1 
2 0 747.95000000000005 0 0 1 0 0 -0 1 1 0 -0 49
2 0 747.95000000000005 0 0 1 0 0 -0 1 1 0 -0 49
1 5.9999999999999991 747.95000000000005 46.999999999999993 0 0 1 
1 -6.0000000000000018 747.95000000000005 47.000000000000007 0 0 1 
2 747.95000000000005 0 0 1 0 -0 0 0 1 0 -1 0 55.359299999999998
2 747.95000000000005 0 0 1 0 -0 0 0 1 0 -1 0 55.359299999999998
2 747.95000000000005 0 0 1 0 -0 0 0 1 0 -1 0 55.359299999999998
2 747.95000000000005 0 0 1 0 -0 0 0 1 0 -1 0 55.359299999999998
1 -5.9999999999999991 747.95000000000005 46.999999999999993 0 0 1 
1 6.0000000000000018 747.95000000000005 47.000000000000007 0 0 1 
2 0 747.95000000000005 0 0 1 0 0 -0 1 1 0 -0 49
2 0 747.95000000000005 0 0 1 0 0 -0 1 1 0 -0 49
1 5.9999999999999991 747.95000000000005 46.999999999999993 0 0 1 
1 -6 747.95000000000005 47 0 0 1 
2 747.95000000000005 0 0 1 0 -0 0 0 1 0 -1 0 55.359299999999998
2 747.95000000000005 0 0 1 0 -0 0 0 1 0 -1 0 55.359299999999998
2 747.95000000000005 0 0 1 0 -0 0 0 1 0 -1 0 55.359299999999998
2 747.95000000000005 0 0 1 0 -0 0 0 1 0 -1 0 55.359299999999998
1 -5.9999999999999991 747.95000000000005 46.999999999999993 0 0 1 
1 6 747.95000000000005 47 0 0 1 
2 0 747.95000000000005 0 0 1 0 0 -0 1 1 0 -0 49
2 0 787.95000000000005 0 0 1 0 0 -0 1 1 0 -0 49
1 23.730638790867992 747.95000000000005 42.870231893207098 0 1 0 
1 6 747.95000000000005 48.631265663151311 0 1 0 
1 747.95000000000005 -5.9999999999999174 55.033190862333257 1 0 0 
1 6 787.95000000000005 47 0 0 1 
1 747.95000000000005 -27.493596009226632 48.049498176062535 1 0 0 
1 -6 787.95000000000005 47 0 0 1 
1 747.95000000000005 6.0000000000000826 55.033190862333242 1 0 0 
1 -6 787.95000000000005 47 0 0 1 
1 -6 747.95000000000005 48.631265663151311 0 1 0 
1 747.95000000000005 -37.201799941726009 40.996075148552876 1 0 0 
1 6 787.95000000000005 47 0 0 1 
1 33.438842723367365 747.95000000000005 35.816808865697418 0 1 0 
1 -23.730638790868007 747.95000000000005 42.870231893207091 0 1 0 
2 0 787.95000000000005 0 0 1 0 0 -0 1 1 0 -0 49
2 0 787.95000000000005 0 0 1 0 0 -0 1 1 0 -0 49
1 44.396980138371127 747.95000000000005 20.734226645647531 0 1 0 
1 747.95000000000005 27.493596009226763 48.049498176062464 1 0 0 
1 6.0000000000000018 787.95000000000005 47.000000000000007 0 0 1 
1 747.95000000000005 -50.485572815887245 22.712530328911992 1 0 0 
1 -5.9999999999999991 787.95000000000005 46.999999999999993 0 0 1 
1 747.95000000000005 37.201799941726122 40.996075148552777 1 0 0 
1 -6.0000000000000018 787.95000000000005 47.000000000000007 0 0 1 
1 -33.438842723367372 747.95000000000005 35.816808865697411 0 1 0 
1 747.95000000000005 -54.193776748386625 11.299852133370148 1 0 0 
1 5.9999999999999991 787.95000000000005 46.999999999999993 0 0 1 
1 48.1051840708705 747.95000000000005 9.3215484501056842 0 1 0 
1 -44.396980138371127 747.95000000000005 20.734226645647517 0 1 0 
2 0 787.95000000000005 0 0 1 0 0 -0 1 1 0 -0 49
2 0 787.95000000000005 0 0 1 0 0 -0 1 1 0 -0 49
1 48.1051840708705 747.95000000000005 -9.3215484501056824 0 1 0 
1 747.95000000000005 50.485572815887274 22.712530328911928 1 0 0 
1 6 787.95000000000005 47 0 0 1 
1 747.95000000000005 -54.193776748386625 -11.299852133370145 1 0 0 
1 -6.0000000000000018 787.95000000000005 47.000000000000007 0 0 1 
1 747.95000000000005 54.193776748386632 11.299852133370081 1 0 0 
1 -6 787.95000000000005 47 0 0 1 
1 -48.1051840708705 747.95000000000005 9.3215484501056718 0 1 0 
1 747.95000000000005 -50.485572815887245 -22.712530328911988 1 0 0 
1 6.0000000000000018 787.95000000000005 47.000000000000007 0 0 1 
1 44.396980138371127 747.95000000000005 -20.734226645647531 0 1 0 
1 -48.1051840708705 747.95000000000005 -9.3215484501056842 0 1 0 
2 0 787.95000000000005 0 0 1 0 0 -0 1 1 0 -0 49
2 0 787.95000000000005 0 0 1 0 0 -0 1 1 0 -0 49
1 33.438842723367372 747.95000000000005 -35.816808865697411 0 1 0 
1 747.95000000000005 54.193776748386632 -11.299852133370099 1 0 0 
1 5.9999999999999991 787.95000000000005 46.999999999999993 0 0 1 
1 747.95000000000005 -37.201799941726023 -40.996075148552869 1 0 0 
1 -6.0000000000000018 787.95000000000005 47.000000000000007 0 0 1 
1 747.95000000000005 50.485572815887267 -22.712530328911946 1 0 0 
1 -5.9999999999999991 787.95000000000005 46.999999999999993 0 0 1 
1 -44.396980138371127 747.95000000000005 -20.734226645647531 0 1 0 
1 747.95000000000005 -27.493596009226643 -48.049498176062535 1 0 0 
1 6.0000000000000018 787.95000000000005 47.000000000000007 0 0 1 
1 23.730638790867999 747.95000000000005 -42.870231893207098 0 1 0 
1 -33.438842723367365 747.95000000000005 -35.816808865697425 0 1 0 
2 0 787.95000000000005 0 0 1 0 0 -0 1 1 0 -0 49
2 0 787.95000000000005 0 0 1 0 0 -0 1 1 0 -0 49
1 6.0000000000000062 747.95000000000005 -48.631265663151311 0 1 0 
1 747.95000000000005 37.201799941726115 -40.996075148552784 1 0 0 
1 5.9999999999999991 787.95000000000005 46.999999999999993 0 0 1 
1 747.95000000000005 -5.9999999999999245 -55.033190862333257 1 0 0 
1 -6 787.95000000000005 47 0 0 1 
1 747.95000000000005 27.493596009226749 -48.049498176062478 1 0 0 
1 -5.9999999999999991 787.95000000000005 46.999999999999993 0 0 1 
1 -23.730638790867992 747.95000000000005 -42.870231893207105 0 1 0 
1 747.95000000000005 6.0000000000000755 -55.033190862333242 1 0 0 
1 6 787.95000000000005 47 0 0 1 
1 -5.9999999999999938 747.95000000000005 -48.631265663151311 0 1 0 
2 0 787.95000000000005 0 0 1 0 0 -0 1 1 0 -0 49
2 787.95000000000005 0 0 1 0 -0 0 0 1 0 -1 0 55.359299999999998
2 787.95000000000005 0 0 1 0 -0 0 0 1 0 -1 0 55.359299999999998
2 787.95000000000005 0 0 1 0 -0 0 0 1 0 -1 0 55.359299999999998
2 787.95000000000005 0 0 1 0 -0 0 0 1 0 -1 0 55.359299999999998
2 787.95000000000005 0 0 1 0 -0 0 0 1 0 -1 0 55.359299999999998
2 787.95000000000005 0 0 1 0 -0 0 0 1 0 -1 0 55.359299999999998
2 787.95000000000005 0 0 1 0 -0 0 0 1 0 -1 0 55.359299999999998
2 787.95000000000005 0 0 1 0 -0 0 0 1 0 -1 0 55.359299999999998
2 787.95000000000005 0 0 1 0 -0 0 0 1 0 -1 0 55.359299999999998
2 787.95000000000005 0 0 1 0 -0 0 0 1 0 -1 0 55.359299999999998
2 787.95000000000005 0 0 1 0 -0 0 0 1 0 -1 0 55.359299999999998
2 787.95000000000005 0 0 1 0 -0 0 0 1 0 -1 0 55.359299999999998
2 787.95000000000005 0 0 1 0 -0 0 0 1 0 -1 0 55.359299999999998
2 787.95000000000005 0 0 1 0 -0 0 0 1 0 -1 0 55.359299999999998
2 787.95000000000005 0 0 1 0 -0 0 0 1 0 -1 0 55.359299999999998
2 787.95000000000005 0 0 1 0 -0 0 0 1 0 -1 0 55.359299999999998
2 787.95000000000005 0 0 1 0 -0 0 0 1 0 -1 0 55.359299999999998
2 787.95000000000005 0 0 1 0 -0 0 0 1 0 -1 0 55.359299999999998
2 787.95000000000005 0 0 1 0 -0 0 0 1 0 -1 0 55.359299999999998
2 787.95000000000005 0 0 1 0 -0 0 0 1 0 -1 0 55.359299999999998
Polygon3D 0
PolygonOnTriangulations 0
Surfaces 53
1 502.19999999999999 -50 -14 0 1 0 0 -0 1 1 0 -0 
2 502.19999999999999 -14 -14 1 0 0 0 0 1 0 -1 0 36
2 502.19999999999999 -14 14 1 0 0 0 0 1 0 -1 0 36
1 545.80000000000018 -1.8599999999999999e-15 -2.8799999999999999e-15 1 0 0 0 0 1 0 -1 0 
2 502.19999999999999 14 -14 1 0 0 0 0 1 0 -1 0 36
2 502.19999999999999 14 14 1 0 0 0 0 1 0 -1 0 36
2 545.69999999999993 0 0 1 0 0 0 0 1 0 -1 0 25.399999999999999
1 502.20000000000016 -8.5000000000000001e-16 2.1999999999999999e-15 -1 -0 -0 0 0 -1 0 -1 0 
1 502.19999999999999 -14 -50 0 0 1 1 0 -0 -0 1 0 
1 502.19999999999999 -14 50 0 0 1 1 0 -0 -0 1 0 
1 502.19999999999999 50 -14 0 1 0 0 -0 1 1 0 -0 
1 -1.8000000000000001e-15 747.95000000000084 1.6815e-13 -0 -1 -0 0 0 -1 1 -0 0 
2 0 747.95000000000005 0 0 1 0 0 -0 1 1 0 -0 49
2 747.95000000000005 0 0 1 0 0 0 0 1 0 -1 0 55.359299999999998
2 747.95000000000005 0 0 1 0 0 0 0 1 0 -1 0 55.359299999999998
2 0 747.95000000000005 0 0 1 0 0 -0 1 1 0 -0 49
2 0 747.95000000000005 0 0 1 0 0 -0 1 1 0 -0 49
2 747.95000000000005 0 0 1 0 0 0 0 1 0 -1 0 55.359299999999998
2 747.95000000000005 0 0 1 0 0 0 0 1 0 -1 0 55.359299999999998
2 0 747.95000000000005 0 0 1 0 0 -0 1 1 0 -0 49
2 0 747.95000000000005 0 0 1 0 0 -0 1 1 0 -0 49
2 747.95000000000005 0 0 1 0 0 0 0 1 0 -1 0 55.359299999999998
2 747.95000000000005 0 0 1 0 0 0 0 1 0 -1 0 55.359299999999998
2 0 747.95000000000005 0 0 1 0 0 -0 1 1 0 -0 49
2 0 747.95000000000005 0 0 1 0 0 -0 1 1 0 -0 49
2 747.95000000000005 0 0 1 0 0 0 0 1 0 -1 0 55.359299999999998
2 747.95000000000005 0 0 1 0 0 0 0 1 0 -1 0 55.359299999999998
2 0 747.95000000000005 0 0 1 0 0 -0 1 1 0 -0 49
2 0 747.95000000000005 0 0 1 0 0 -0 1 1 0 -0 49
2 747.95000000000005 0 0 1 0 0 0 0 1 0 -1 0 55.359299999999998
2 747.95000000000005 0 0 1 0 0 0 0 1 0 -1 0 55.359299999999998
2 0 747.95000000000005 0 0 1 0 0 -0 1 1 0 -0 49
1 6 747.95000000000005 47 1 0 0 0 0 1 0 -1 0 
1 -6 747.95000000000005 47 1 0 0 0 0 1 0 -1 0 
1 -6 747.95000000000005 47 1 0 0 0 0 1 0 -1 0 
1 6 747.95000000000005 47 1 0 0 0 0 1 0 -1 0 
1 6.0000000000000018 747.95000000000005 47.000000000000007 1 0 0 0 0 1 0 -1 0 
1 -5.9999999999999991 747.95000000000005 46.999999999999993 1 0 0 0 0 1 0 -1 0 
1 -6.0000000000000018 747.95000000000005 47.000000000000007 1 0 0 0 0 1 0 -1 0 
1 5.9999999999999991 747.95000000000005 46.999999999999993 1 0 0 0 0 1 0 -1 0 
1 6 747.95000000000005 47 1 0 0 0 0 1 0 -1 0 
1 -6.0000000000000018 747.95000000000005 47.000000000000007 1 0 0 0 0 1 0 -1 0 
1 -6 747.95000000000005 47 1 0 0 0 0 1 0 -1 0 
1 6.0000000000000018 747.95000000000005 47.000000000000007 1 0 0 0 0 1 0 -1 0 
1 5.9999999999999991 747.95000000000005 46.999999999999993 1 0 0 0 0 1 0 -1 0 
1 -6.0000000000000018 747.95000000000005 47.000000000000007 1 0 0 0 0 1 0 -1 0 
1 -5.9999999999999991 747.95000000000005 46.999999999999993 1 0 0 0 0 1 0 -1 0 
1 6.0000000000000018 747.95000000000005 47.000000000000007 1 0 0 0 0 1 0 -1 0 
1 5.9999999999999991 747.95000000000005 46.999999999999993 1 0 0 0 0 1 0 -1 0 
1 -6 747.95000000000005 47 1 0 0 0 0 1 0 -1 0 
1 -5.9999999999999991 747.95000000000005 46.999999999999993 1 0 0 0 0 1 0 -1 0 
1 6 747.95000000000005 47 1 0 0 0 0 1 0 -1 0 
1 787.94999999999948 6.08732e-12 -1.4732e-13 1 0 0 0 0 1 0 -1 0 
Triangulations 0

TShapes 396
Ve
1.00000003e-07
502.2 -50 -14
0 0

0101101
*
Ve
1.00000003e-07
545.8 -50 -14
0 0

0101101
*
Ed
 1.00000002e-07 1 1 0
1  1 0 0 43.6
2  1 2 0 0 43.6
0

0101000
+396 3 -395 3 *
Ve
1.00000002e-07
545.8 -50 14
0 0

0101101
*
Ed
 1e-07 1 1 0
1  2 0 0 28
0

0101000
+395 3 -393 3 *
Ve
1.00000002e-07
502.2 -50 14
0 0

0101101
*
Ed
 1.00000002e-07 1 1 0
1  3 0 0 43.6
2  2 3 0 0 43.6
0

0101000
+391 3 -393 3 *
Ed
 1e-07 1 1 0
1  4 0 0 28
0

0101000
+396 3 -391 3 *
Wi

0101100
-394 0 -392 0 +390 0 +389 0 *
Fa
0  1e-07 1 0

0101000
+388 0 *
Ve
1.00000004e-07
545.8 -14 -50
0 0

0101101
*
Ed
 1e-07 1 1 0
1  5 0 1.5707963267949 3.14159265358979
2  3 2 0 1.5707963267949 3.14159265358979
0

0101000
+395 3 -386 3 *
Ve
1.00000004e-07
502.2 -14 -50
0 0

0101101
*
Ed
 1.00000004e-07 1 1 0
1  6 0 0 43.6
2  4 2 0 0 43.6
0

0101000
+384 3 -386 3 *
Ed
 1e-07 1 1 0
1  7 0 1.5707963267949 3.14159265358979
2  5 2 0 1.5707963267949 3.14159265358979
0

0101000
+396 3 -384 3 *
Wi

0101100
-385 0 +383 0 +382 0 -394 0 *
Fa
0  1e-07 2 0

0101000
+381 0 *
Ve
1.00000015e-07
545.8 -14 50
0 0

0101101
*
Ed
 1e-07 1 1 0
1  8 0 0 1.5707963267949
2  6 3 0 0 1.5707963267949
0

0101000
+379 3 -393 3 *
Ve
1.00000004e-07
545.8 14 -50
0 0

0101101
*
Ed
 1e-07 1 1 0
1  9 0 0 28
0

0101000
+386 3 -377 3 *
Ve
1.00000011e-07
545.8 14 50
0 0

0101101
*
Ed
 1e-07 1 1 0
1  10 0 0 28
0

0101000
+379 3 -375 3 *
Ve
1.00000007e-07
545.8 50 -14
0 0

0101101
*
Ed
 1e-07 1 1 0
1  11 0 3.14159265358979 4.71238898038469
2  7 5 0 3.14159265358979 4.71238898038469
0

0101000
+377 3 -373 3 *
Ve
1.00000015e-07
545.8 50 14
0 0

0101101
*
Ed
 1e-07 1 1 0
1  12 0 4.71238898038469 6.28318530717959
2  8 6 0 4.71238898038469 6.28318530717959
0

0101000
+371 3 -375 3 *
Ed
 1e-07 1 1 0
1  13 0 0 28
0

0101000
+373 3 -371 3 *
Wi

0101100
-392 0 +385 0 +378 0 +376 0 -374 0 +372 0 +370 0 +369 0 *
Ve
1.00000006e-07
545.8 6e-15 25.4
0 0

0101101
*
Ed
 1e-07 1 1 0
1  14 0 0 6.28318530717959
2  9 7 0 0 6.28318530717959
0

0101100
+367 3 -367 3 *
Wi

0101100
-366 0 *
Fa
0  1e-07 4 0

0101000
+368 0 +365 0 *
Ve
1.00000015e-07
502.2 -14 50
0 0

0101101
*
Ed
 1e-07 1 1 0
1  15 0 0 1.5707963267949
2  10 3 0 0 1.5707963267949
0

0101000
+363 3 -391 3 *
Ed
 1.00000009e-07 1 1 0
1  16 0 0 43.6
2  11 3 0 0 43.6
0

0101000
+363 3 -379 3 *
Wi

0101100
-378 0 +390 0 +362 0 -361 0 *
Fa
0  1e-07 3 0

0101000
+360 0 *
Ve
1.00000011e-07
502.2 14 50
0 0

0101101
*
Ed
 1e-07 1 1 0
1  17 0 0 28
0

0101000
+363 3 -358 3 *
Ve
1.00000015e-07
502.2 50 14
0 0

0101101
*
Ed
 1e-07 1 1 0
1  18 0 4.71238898038469 6.28318530717959
2  12 6 0 4.71238898038469 6.28318530717959
0

0101000
+356 3 -358 3 *
Ve
1.00000007e-07
502.2 50 -14
0 0

0101101
*
Ed
 1e-07 1 1 0
1  19 0 0 28
0

0101000
+354 3 -356 3 *
Ve
1.00000004e-07
502.2 14 -50
0 0

0101101
*
Ed
 1e-07 1 1 0
1  20 0 3.14159265358979 4.71238898038469
2  13 5 0 3.14159265358979 4.71238898038469
0

0101000
+352 3 -354 3 *
Ed
 1e-07 1 1 0
1  21 0 0 28
0

0101000
+384 3 -352 3 *
Wi

0101100
+389 0 -362 0 +357 0 -355 0 -353 0 -351 0 -350 0 -382 0 *
Fa
0  1e-07 8 0

0101000
+349 0 *
Ed
 1.00000004e-07 1 1 0
1  22 0 0 43.6
2  14 5 0 0 43.6
0

0101000
+352 3 -377 3 *
Wi

0101100
-350 0 -347 0 +376 0 +383 0 *
Fa
0  1e-07 9 0

0101000
+346 0 *
Ed
 1.00000009e-07 1 1 0
1  23 0 0 43.6
2  15 6 0 0 43.6
0

0101000
+358 3 -375 3 *
Wi

0101100
-357 0 -344 0 +374 0 +361 0 *
Fa
0  1e-07 10 0

0101000
+343 0 *
Ed
 1.00000007e-07 1 1 0
1  24 0 0 43.6
2  16 5 0 0 43.6
0

0101000
+354 3 -373 3 *
Wi

0101100
-372 0 +341 0 +351 0 -347 0 *
Fa
0  1e-07 5 0

0101000
+340 0 *
Ed
 1.00000007e-07 1 1 0
1  25 0 0 43.6
2  17 6 0 0 43.6
0

0101000
+356 3 -371 3 *
Wi

0101100
-370 0 +344 0 +355 0 -338 0 *
Fa
0  1e-07 6 0

0101000
+337 0 *
Wi

0101100
-341 0 -369 0 +338 0 +353 0 *
Fa
0  1e-07 11 0

0101000
+335 0 *
Ve
1.00000006e-07
747.950000000001 6e-15 25.4
0 0

0101101
*
Ed
 1e-07 1 1 0
1  26 0 0.10000000000025 202.250000000001
3  18 19CN 7 0 0.10000000000025 202.250000000001
0

0101000
+367 3 -333 3 *
Ed
 1e-07 1 1 0
1  27 0 0 6.28318530717959
2  20 7 0 0 6.28318530717959
0

0101100
+333 3 -333 3 *
Wi

0101100
+366 0 -332 0 -331 0 +332 0 *
Fa
0  1e-07 7 0

0101000
+330 0 *
Ve
1.00000696e-07
747.95 -5.99999999999924 48.6312656631515
0 0

0101101
*
Ve
1.00000036e-07
747.95 -23.7306387908679 42.8702318932071
0 0

0101101
*
Ed
 1e-07 1 1 0
1  28 0 0.122757057764999 0.505561472952946
2  21 13 0 0.122757057764999 0.505561472952946
0

0101000
+328 5 -327 5 *
Ve
1.00000989e-07
747.95 -6.00000000000088 55.0331908623331
0 0

0101101
*
Ed
 1e-07 1 1 0
1  29 0 1.63126566315148 8.03319086233305
0

0101000
+328 8 -325 8 *
Ve
1.0000082e-07
747.95 -27.4935960092264 48.0494981760626
0 0

0101101
*
Ed
 1e-07 1 1 0
1  30 0 1.63126566315133 8.03319086233324
0

0101000
+327 11 -323 11 *
Ve
1.00000796e-07
747.95 1.4e-14 55.3593
0 0

0101101
*
Ed
 1.00000796e-07 1 1 0
1  31 0 0 0.108596195755756
2  22 14 0 0 0.108596195755756
0

0101000
+321 3 -325 3 *
Ve
7.0089646e-07
747.95 -32.539380143779 44.7866144774155
0 0

0101101
*
Ed
 1.00000796e-07 1 1 0
1  32 0 0.519722334962213 0.628318531310642
2  23 15 0 0.519722334962213 0.628318531310642
0

0101000
+323 3 -319 3 *
Ve
1.00000983e-07
747.95 6.00000000000104 55.033190862333
0 0

0101101
*
Ed
 1.00000796e-07 1 1 0
1  33 0 6.17458911142383 6.28318530717959
2  23 14 0 6.17458911142383 6.28318530717959
0

0101000
+317 3 -321 3 *
Ve
1.00000846e-07
747.95 -37.2017999417263 40.9960751485525
0 0

0101101
*
Ed
 1.00000796e-07 1 1 0
1  34 0 0.628318531310642 0.736914726473705
2  23 15 0 0.628318531310642 0.736914726473705
0

0101000
+319 3 -315 3 *
Ve
1.00000676e-07
747.95 5.99999999999943 48.6312656631515
0 0

0101101
*
Ed
 1e-07 1 1 0
1  35 0 1.63126566315147 8.03319086233303
0

0101000
+313 8 -317 8 *
Ve
1.00000656e-07
747.95 -33.4388427233669 35.8168088656979
0 0

0101101
*
Ed
 1e-07 1 1 0
1  36 0 1.63126566315147 8.03319086233321
0

0101000
+311 11 -315 11 *
Ve
1.00000038e-07
747.95 23.7306387908681 42.8702318932071
0 0

0101101
*
Ed
 1e-07 1 1 0
1  37 0 5.77762383422664 6.16042824941459
2  21 16 0 5.77762383422664 6.16042824941459
0

0101000
+309 5 -313 5 *
Ve
1.00000871e-07
747.95 -44.3969801383706 20.7342266456483
0 0

0101101
*
Ed
 1e-07 1 1 0
1  38 0 0.751075588482958 1.13388000367089
2  21 17 0 0.751075588482958 1.13388000367089
0

0101000
+311 5 -307 5 *
Ve
1.00000821e-07
747.95 27.4935960092265 48.0494981760626
0 0

0101101
*
Ed
 1e-07 1 1 0
1  39 0 1.63126566315132 8.03319086233315
0

0101000
+309 14 -305 14 *
Ve
1.00000806e-07
747.95 -50.4855728158873 22.7125303289119
0 0

0101101
*
Ed
 1e-07 1 1 0
1  40 0 1.63126566315111 8.03319086233334
0

0101000
+307 17 -303 17 *
Ve
1.38832685e-07
747.95 32.5393800858184 44.7866145195263
0 0

0101101
*
Ed
 1.00000796e-07 1 1 0
1  41 0 5.65486677716309 5.76346297221737
2  23 18 0 5.65486677716309 5.76346297221737
0

0101000
+301 3 -305 3 *
Ve
3.126296642e-06
747.95 -52.6498220859253 17.1069673177455
0 0

0101101
*
Ed
 1.00000796e-07 1 1 0
1  42 0 1.14804086568018 1.25663700785464
2  23 19 0 1.14804086568018 1.25663700785464
0

0101000
+303 3 -299 3 *
Ve
1.00000848e-07
747.95 37.2017999417264 40.9960751485524
0 0

0101101
*
Ed
 1.00000796e-07 1 1 0
1  43 0 5.54627058070588 5.65486677716309
2  23 18 0 5.54627058070588 5.65486677716309
0

0101000
+297 3 -301 3 *
Ve
1.00001766e-07
747.95 -54.1937767483864 11.2998521333719
0 0

0101101
*
Ed
 1.00000796e-07 1 1 0
1  44 0 1.25663700785464 1.36523325719162
2  23 19 0 1.25663700785464 1.36523325719162
0

0101000
+299 3 -295 3 *
Ve
1.0000064e-07
747.95 33.438842723367 35.8168088656979
0 0

0101101
*
Ed
 1e-07 1 1 0
1  45 0 1.63126566315146 8.03319086233309
0

0101000
+293 14 -297 14 *
Ve
1.00000738e-07
747.95 -48.1051840708704 9.32154845010642
0 0

0101101
*
Ed
 1e-07 1 1 0
1  46 0 1.63126566315149 8.03319086233372
0

0101000
+291 17 -295 17 *
Ve
1.00000874e-07
747.95 44.3969801383708 20.7342266456483
0 0

0101101
*
Ed
 1e-07 1 1 0
1  47 0 5.1493053035087 5.53210971869663
2  21 20 0 5.1493053035087 5.53210971869663
0

0101000
+289 5 -293 5 *
Ve
1.00000736e-07
747.95 -48.1051840708704 -9.32154845010642
0 0

0101101
*
Ed
 1e-07 1 1 0
1  48 0 1.37939411920091 1.76219853438888
2  21 21 0 1.37939411920091 1.76219853438888
0

0101000
+291 5 -287 5 *
Ve
1.00000814e-07
747.95 50.4855728158873 22.7125303289119
0 0

0101101
*
Ed
 1e-07 1 1 0
1  49 0 1.63126566315111 8.03319086233319
0

0101000
+289 20 -285 20 *
Ve
1.0000177e-07
747.95 -54.1937767483864 -11.2998521333719
0 0

0101101
*
Ed
 1e-07 1 1 0
1  50 0 1.63126566315149 8.0331908623337
0

0101000
+287 23 -283 23 *
Ve
7.7836487e-07
747.95 52.649823243066 17.106963756433
0 0

0101101
*
Ed
 1.00000796e-07 1 1 0
1  51 0 5.02654823168345 5.13514444149941
2  23 22 0 5.02654823168345 5.13514444149941
0

0101000
+281 3 -285 3 *
Ve
2.831020552e-06
747.95 -52.6498221277051 -17.1069671891606
0 0

0101101
*
Ed
 1.00000796e-07 1 1 0
1  52 0 1.77635939639817 1.88495564329288
2  23 23 0 1.77635939639817 1.88495564329288
0

0101000
+283 3 -279 3 *
Ve
1.0000175e-07
747.95 54.1937767483865 11.2998521333718
0 0

0101101
*
Ed
 1.00000796e-07 1 1 0
1  53 0 4.91795204998796 5.02654823168345
2  23 22 0 4.91795204998796 5.02654823168345
0

0101000
+277 3 -281 3 *
Ve
1.00000806e-07
747.95 -50.4855728158873 -22.7125303289119
0 0

0101101
*
Ed
 1.00000796e-07 1 1 0
1  54 0 1.88495564329288 1.99355178790961
2  23 23 0 1.88495564329288 1.99355178790961
0

0101000
+279 3 -275 3 *
Ve
1.00000704e-07
747.95 48.1051840708705 9.32154845010637
0 0

0101101
*
Ed
 1e-07 1 1 0
1  55 0 1.63126566315148 8.03319086233354
0

0101000
+273 20 -277 20 *
Ve
1.00000862e-07
747.95 -44.3969801383706 -20.7342266456483
0 0

0101101
*
Ed
 1e-07 1 1 0
1  56 0 1.6312656631511 8.03319086233333
0

0101000
+271 23 -275 23 *
Ve
1.00000708e-07
747.95 48.1051840708705 -9.32154845010639
0 0

0101101
*
Ed
 1e-07 1 1 0
1  57 0 4.52098677279071 4.90379118797867
2  21 24 0 4.52098677279071 4.90379118797867
0

0101000
+269 5 -273 5 *
Ve
1.00000666e-07
747.95 -33.4388427233669 -35.8168088656979
0 0

0101101
*
Ed
 1e-07 1 1 0
1  58 0 2.00771264991891 2.39051706510684
2  21 25 0 2.00771264991891 2.39051706510684
0

0101000
+271 5 -267 5 *
Ve
1.0000175e-07
747.95 54.1937767483865 -11.2998521333718
0 0

0101101
*
Ed
 1e-07 1 1 0
1  59 0 1.63126566315149 8.03319086233355
0

0101000
+269 26 -265 26 *
Ve
1.00000843e-07
747.95 -37.2017999417263 -40.9960751485525
0 0

0101101
*
Ed
 1e-07 1 1 0
1  60 0 1.63126566315147 8.03319086233321
0

0101000
+267 29 -263 29 *
Ve
1.43797272e-07
747.95 52.6498230160724 -17.1069644550474
0 0

0101101
*
Ed
 1.00000796e-07 1 1 0
1  61 0 4.39822971581686 4.50682591078142
2  23 26 0 4.39822971581686 4.50682591078142
0

0101000
+261 3 -265 3 *
Ve
7.00692556e-07
747.95 -32.5393800939058 -44.7866145136504
0 0

0101101
*
Ed
 1.00000796e-07 1 1 0
1  62 0 2.40467792711609 2.51327412339272
2  23 27 0 2.40467792711609 2.51327412339272
0

0101000
+263 3 -259 3 *
Ve
1.0000081e-07
747.95 50.4855728158873 -22.7125303289119
0 0

0101101
*
Ed
 1.00000796e-07 1 1 0
1  63 0 4.28963351926997 4.39822971581686
2  23 26 0 4.28963351926997 4.39822971581686
0

0101000
+257 3 -261 3 *
Ve
1.00000818e-07
747.95 -27.4935960092264 -48.0494981760626
0 0

0101101
*
Ed
 1.00000796e-07 1 1 0
1  64 0 2.51327412339272 2.62187031862758
2  23 27 0 2.51327412339272 2.62187031862758
0

0101000
+259 3 -255 3 *
Ve
1.00000878e-07
747.95 44.3969801383707 -20.7342266456483
0 0

0101101
*
Ed
 1e-07 1 1 0
1  65 0 1.63126566315111 8.03319086233319
0

0101000
+253 26 -257 26 *
Ve
1.0000004e-07
747.95 -23.730638790868 -42.8702318932071
0 0

0101101
*
Ed
 1e-07 1 1 0
1  66 0 1.63126566315132 8.03319086233324
0

0101000
+251 29 -255 29 *
Ve
1.0000064e-07
747.95 33.438842723367 -35.8168088656979
0 0

0101101
*
Ed
 1e-07 1 1 0
1  67 0 3.89266824207275 4.27547265726068
2  21 28 0 3.89266824207275 4.27547265726068
0

0101000
+249 5 -253 5 *
Ve
1.00000296e-07
747.95 -6.00000000000021 -48.6312656631512
0 0

0101101
*
Ed
 1e-07 1 1 0
1  68 0 2.63603118063685 3.01883559582477
2  21 29 0 2.63603118063685 3.01883559582477
0

0101000
+251 5 -247 5 *
Ve
1.00000841e-07
747.95 37.2017999417264 -40.9960751485525
0 0

0101101
*
Ed
 1e-07 1 1 0
1  69 0 1.63126566315147 8.03319086233311
0

0101000
+249 32 -245 32 *
Ve
1.00001472e-07
747.95 -6.00000000000136 -55.0331908623329
0 0

0101101
*
Ed
 1e-07 1 1 0
1  70 0 1.63126566315124 8.03319086233294
0

0101000
+247 35 -243 35 *
Ve
1.28835497e-07
747.95 32.5393800939063 -44.7866145136501
0 0

0101101
*
Ed
 1.00000796e-07 1 1 0
1  71 0 3.76991118378687 3.8785073800635
2  23 30 0 3.76991118378687 3.8785073800635
0

0101000
+241 3 -245 3 *
Ve
1.00000845e-07
747.95 -5.6e-14 -55.3593
0 0

0101101
*
Ed
 1.00000796e-07 1 1 0
1  72 0 3.03299645783403 3.14159265358979
2  23 31 0 3.03299645783403 3.14159265358979
0

0101000
+243 3 -239 3 *
Ve
1.00000834e-07
747.95 27.4935960092265 -48.0494981760626
0 0

0101101
*
Ed
 1.00000796e-07 1 1 0
1  73 0 3.66131498855201 3.76991118378687
2  23 30 0 3.66131498855201 3.76991118378687
0

0101000
+237 3 -241 3 *
Ve
1.00001478e-07
747.95 6.00000000000152 -55.0331908623329
0 0

0101101
*
Ed
 1.00000796e-07 1 1 0
1  74 0 3.14159265358979 3.25018884934556
2  23 31 0 3.14159265358979 3.25018884934556
0

0101000
+239 3 -235 3 *
Ve
1.00000038e-07
747.95 23.7306387908681 -42.8702318932071
0 0

0101101
*
Ed
 1e-07 1 1 0
1  75 0 1.63126566315133 8.03319086233314
0

0101000
+233 32 -237 32 *
Ve
1.00000296e-07
747.95 6.00000000000037 -48.6312656631512
0 0

0101101
*
Ed
 1e-07 1 1 0
1  76 0 1.63126566315125 8.03319086233292
0

0101000
+231 35 -235 35 *
Ed
 1e-07 1 1 0
1  77 0 3.26434971135481 3.64715412654274
2  21 32 0 3.26434971135481 3.64715412654274
0

0101000
+231 5 -233 5 *
Wi

0101100
-326 4 +324 7 -322 10 -320 0 -318 0 -316 0 -314 0 -312 7 +310 10 -308 4 
-306 4 +304 13 -302 16 -300 0 -298 0 -296 0 -294 0 -292 13 +290 16 -288 4 
-286 4 +284 19 -282 22 -280 0 -278 0 -276 0 -274 0 -272 19 +270 22 -268 4 
-266 4 +264 25 -262 28 -260 0 -258 0 -256 0 -254 0 -252 25 +250 28 -248 4 
-246 4 +244 31 -242 34 -240 0 -238 0 -236 0 -234 0 -232 31 +230 34 -229 4 
*
Wi

0101100
+331 0 *
Fa
0  1e-07 12 4

0101000
+228 0 +227 0 *
Ve
1.00000696e-07
787.95 -5.99999999999924 48.6312656631515
0 0

0101101
*
Ve
1.00000682e-07
787.95 -23.7306387908679 42.8702318932071
0 0

0101101
*
Ed
 1.00000682e-07 1 1 0
1  78 0 0.122757057764999 0.505561472952946
2  24 13 0 0.122757057764999 0.505561472952946
0

0101000
+225 5 -224 5 *
Ed
 1e-07 1 1 0
1  79 0 0 40
2  25 13 0 0 40
0

0101000
+327 5 -224 5 *
Ed
 1e-07 1 1 0
1  80 0 0 40
2  26 13 0 0 40
0

0101000
+328 5 -225 5 *
Wi

0101100
-223 4 +222 4 +326 4 -221 4 *
Fa
0  1e-07 13 4

0101000
+220 0 *
Ve
1.00000985e-07
787.95 -6.00000000000088 55.0331908623331
0 0

0101101
*
Ed
 1e-07 1 1 0
1  81 0 0 40
2  27 14 0 0 40
0

0101000
+325 3 -218 3 *
Ed
 1.00000682e-07 1 1 0
1  82 0 1.63126566315148 8.03319086233305
0

0101000
+225 8 -218 8 *
Wi

0101100
-324 7 -217 0 +216 7 +221 4 *
Fa
0  1e-07 33 7

0101000
+215 0 *
Ve
1.00000708e-07
787.95 -27.4935960092264 48.0494981760626
0 0

0101101
*
Ed
 1e-07 1 1 0
1  83 0 0 40
2  28 15 0 0 40
0

0101000
+323 3 -213 3 *
Ed
 1.00000682e-07 1 1 0
1  84 0 1.63126566315133 8.03319086233324
0

0101000
+224 11 -213 11 *
Wi

0101100
-322 10 -212 0 +211 10 +222 4 *
Fa
0  1e-07 34 10

0101000
+210 0 *
Ve
1.00000985e-07
787.95 6.00000000000104 55.033190862333
0 0

0101101
*
Ed
 1e-07 1 1 0
1  85 0 0 40
2  29 14 0 0 40
0

0101000
+317 3 -208 3 *
Ve
1.00000682e-07
787.95 5.99999999999943 48.6312656631515
0 0

0101101
*
Ed
 1.00000682e-07 1 1 0
1  86 0 1.63126566315147 8.03319086233303
0

0101000
+206 8 -208 8 *
Ed
 1e-07 1 1 0
1  87 0 0 40
2  30 16 0 0 40
0

0101000
+313 5 -206 5 *
Wi

0101100
-312 7 -207 0 +205 7 +204 4 *
Fa
0  1e-07 35 7

0101000
+203 0 *
Ve
1.00000738e-07
787.95 -37.2017999417263 40.9960751485525
0 0

0101101
*
Ed
 1e-07 1 1 0
1  88 0 0 40
2  31 15 0 0 40
0

0101000
+315 3 -201 3 *
Ve
1.00000682e-07
787.95 -33.4388427233669 35.8168088656979
0 0

0101101
*
Ed
 1.00000682e-07 1 1 0
1  89 0 1.63126566315147 8.03319086233321
0

0101000
+199 11 -201 11 *
Ed
 1e-07 1 1 0
1  90 0 0 40
2  32 17 0 0 40
0

0101000
+311 5 -199 5 *
Wi

0101100
-310 10 -200 0 +198 10 +197 4 *
Fa
0  1e-07 36 10

0101000
+196 0 *
Ve
1.00000682e-07
787.95 23.7306387908681 42.8702318932071
0 0

0101101
*
Ed
 1e-07 1 1 0
1  91 0 0 40
2  33 16 0 0 40
0

0101000
+309 5 -194 5 *
Ed
 1.00000682e-07 1 1 0
1  92 0 5.77762383422664 6.16042824941459
2  24 16 0 5.77762383422664 6.16042824941459
0

0101000
+194 5 -206 5 *
Wi

0101100
+204 4 +308 4 -193 4 -192 4 *
Fa
0  1e-07 16 4

0101000
+191 0 *
Ve
1.00000871e-07
787.95 -44.3969801383706 20.7342266456483
0 0

0101101
*
Ed
 1.00000682e-07 1 1 0
1  93 0 0.751075588482958 1.13388000367089
2  24 17 0 0.751075588482958 1.13388000367089
0

0101000
+199 5 -189 5 *
Ed
 1e-07 1 1 0
1  94 0 0 40
2  34 17 0 0 40
0

0101000
+307 5 -189 5 *
Wi

0101100
-188 4 +187 4 +306 4 -197 4 *
Fa
0  1e-07 17 4

0101000
+186 0 *
Ve
1.00000708e-07
787.95 27.4935960092265 48.0494981760626
0 0

0101101
*
Ed
 1e-07 1 1 0
1  95 0 0 40
2  35 18 0 0 40
0

0101000
+305 3 -184 3 *
Ed
 1.00000682e-07 1 1 0
1  96 0 1.63126566315132 8.03319086233315
0

0101000
+194 14 -184 14 *
Wi

0101100
-304 13 -183 0 +182 13 +193 4 *
Fa
0  1e-07 37 13

0101000
+181 0 *
Ve
1.00000692e-07
787.95 -50.4855728158873 22.7125303289119
0 0

0101101
*
Ed
 1e-07 1 1 0
1  97 0 0 40
2  36 19 0 0 40
0

0101000
+303 3 -179 3 *
Ed
 1.00000682e-07 1 1 0
1  98 0 1.63126566315111 8.03319086233335
0

0101000
+189 17 -179 17 *
Wi

0101100
-302 16 -178 0 +177 16 +187 4 *
Fa
0  1e-07 38 16

0101000
+176 0 *
Ve
1.00000734e-07
787.95 37.2017999417264 40.9960751485524
0 0

0101101
*
Ed
 1e-07 1 1 0
1  99 0 0 40
2  37 18 0 0 40
0

0101000
+297 3 -174 3 *
Ve
1.00000682e-07
787.95 33.438842723367 35.8168088656979
0 0

0101101
*
Ed
 1.00000682e-07 1 1 0
1  100 0 1.63126566315146 8.03319086233309
0

0101000
+172 14 -174 14 *
Ed
 1e-07 1 1 0
1  101 0 0 40
2  38 20 0 0 40
0

0101000
+293 5 -172 5 *
Wi

0101100
-292 13 -173 0 +171 13 +170 4 *
Fa
0  1e-07 39 13

0101000
+169 0 *
Ve
1.00001774e-07
787.95 -54.1937767483864 11.2998521333719
0 0

0101101
*
Ed
 1e-07 1 1 0
1  102 0 0 40
2  39 19 0 0 40
0

0101000
+295 3 -167 3 *
Ve
1.00000738e-07
787.95 -48.1051840708704 9.32154845010642
0 0

0101101
*
Ed
 1.00000682e-07 1 1 0
1  103 0 1.63126566315149 8.03319086233372
0

0101000
+165 17 -167 17 *
Ed
 1e-07 1 1 0
1  104 0 0 40
2  40 21 0 0 40
0

0101000
+291 5 -165 5 *
Wi

0101100
-290 16 -166 0 +164 16 +163 4 *
Fa
0  1e-07 40 16

0101000
+162 0 *
Ve
1.00000874e-07
787.95 44.3969801383708 20.7342266456483
0 0

0101101
*
Ed
 1e-07 1 1 0
1  105 0 0 40
2  41 20 0 0 40
0

0101000
+289 5 -160 5 *
Ed
 1.00000682e-07 1 1 0
1  106 0 5.1493053035087 5.53210971869663
2  24 20 0 5.1493053035087 5.53210971869663
0

0101000
+160 5 -172 5 *
Wi

0101100
+170 4 +288 4 -159 4 -158 4 *
Fa
0  1e-07 20 4

0101000
+157 0 *
Ve
1.00000736e-07
787.95 -48.1051840708704 -9.32154845010642
0 0

0101101
*
Ed
 1.00000682e-07 1 1 0
1  107 0 1.37939411920091 1.76219853438888
2  24 21 0 1.37939411920091 1.76219853438888
0

0101000
+165 5 -155 5 *
Ed
 1e-07 1 1 0
1  108 0 0 40
2  42 21 0 0 40
0

0101000
+287 5 -155 5 *
Wi

0101100
-154 4 +153 4 +286 4 -163 4 *
Fa
0  1e-07 21 4

0101000
+152 0 *
Ve
1.000007e-07
787.95 50.4855728158873 22.7125303289119
0 0

0101101
*
Ed
 1e-07 1 1 0
1  109 0 0 40
2  43 22 0 0 40
0

0101000
+285 3 -150 3 *
Ed
 1.00000682e-07 1 1 0
1  110 0 1.63126566315111 8.03319086233318
0

0101000
+160 20 -150 20 *
Wi

0101100
-284 19 -149 0 +148 19 +159 4 *
Fa
0  1e-07 41 19

0101000
+147 0 *
Ve
1.00001772e-07
787.95 -54.1937767483864 -11.2998521333719
0 0

0101101
*
Ed
 1e-07 1 1 0
1  111 0 0 40
2  44 23 0 0 40
0

0101000
+283 3 -145 3 *
Ed
 1.00000682e-07 1 1 0
1  112 0 1.63126566315149 8.03319086233371
0

0101000
+155 23 -145 23 *
Wi

0101100
-282 22 -144 0 +143 22 +153 4 *
Fa
0  1e-07 42 22

0101000
+142 0 *
Ve
1.0000175e-07
787.95 54.1937767483865 11.2998521333718
0 0

0101101
*
Ed
 1e-07 1 1 0
1  113 0 0 40
2  45 22 0 0 40
0

0101000
+277 3 -140 3 *
Ve
1.00000704e-07
787.95 48.1051840708705 9.32154845010637
0 0

0101101
*
Ed
 1.00000682e-07 1 1 0
1  114 0 1.63126566315148 8.03319086233353
0

0101000
+138 20 -140 20 *
Ed
 1e-07 1 1 0
1  115 0 0 40
2  46 24 0 0 40
0

0101000
+273 5 -138 5 *
Wi

0101100
-272 19 -139 0 +137 19 +136 4 *
Fa
0  1e-07 43 19

0101000
+135 0 *
Ve
1.00000692e-07
787.95 -50.4855728158873 -22.7125303289119
0 0

0101101
*
Ed
 1e-07 1 1 0
1  116 0 0 40
2  47 23 0 0 40
0

0101000
+275 3 -133 3 *
Ve
1.00000862e-07
787.95 -44.3969801383706 -20.7342266456483
0 0

0101101
*
Ed
 1.00000682e-07 1 1 0
1  117 0 1.6312656631511 8.03319086233334
0

0101000
+131 23 -133 23 *
Ed
 1e-07 1 1 0
1  118 0 0 40
2  48 25 0 0 40
0

0101000
+271 5 -131 5 *
Wi

0101100
-270 22 -132 0 +130 22 +129 4 *
Fa
0  1e-07 44 22

0101000
+128 0 *
Ve
1.00000708e-07
787.95 48.1051840708705 -9.32154845010639
0 0

0101101
*
Ed
 1e-07 1 1 0
1  119 0 0 40
2  49 24 0 0 40
0

0101000
+269 5 -126 5 *
Ed
 1.00000682e-07 1 1 0
1  120 0 4.52098677279071 4.90379118797867
2  24 24 0 4.52098677279071 4.90379118797867
0

0101000
+126 5 -138 5 *
Wi

0101100
+136 4 +268 4 -125 4 -124 4 *
Fa
0  1e-07 24 4

0101000
+123 0 *
Ve
1.00000682e-07
787.95 -33.4388427233669 -35.8168088656979
0 0

0101101
*
Ed
 1.00000682e-07 1 1 0
1  121 0 2.00771264991891 2.39051706510684
2  24 25 0 2.00771264991891 2.39051706510684
0

0101000
+131 5 -121 5 *
Ed
 1e-07 1 1 0
1  122 0 0 40
2  50 25 0 0 40
0

0101000
+267 5 -121 5 *
Wi

0101100
-120 4 +119 4 +266 4 -129 4 *
Fa
0  1e-07 25 4

0101000
+118 0 *
Ve
1.0000175e-07
787.95 54.1937767483865 -11.2998521333718
0 0

0101101
*
Ed
 1e-07 1 1 0
1  123 0 0 40
2  51 26 0 0 40
0

0101000
+265 3 -116 3 *
Ed
 1.00000682e-07 1 1 0
1  124 0 1.63126566315149 8.03319086233354
0

0101000
+126 26 -116 26 *
Wi

0101100
-264 25 -115 0 +114 25 +125 4 *
Fa
0  1e-07 45 25

0101000
+113 0 *
Ve
1.0000073e-07
787.95 -37.2017999417263 -40.9960751485525
0 0

0101101
*
Ed
 1e-07 1 1 0
1  125 0 0 40
2  52 27 0 0 40
0

0101000
+263 3 -111 3 *
Ed
 1.00000682e-07 1 1 0
1  126 0 1.63126566315147 8.03319086233321
0

0101000
+121 29 -111 29 *
Wi

0101100
-262 28 -110 0 +109 28 +119 4 *
Fa
0  1e-07 46 28

0101000
+108 0 *
Ve
1.00000698e-07
787.95 50.4855728158873 -22.7125303289119
0 0

0101101
*
Ed
 1e-07 1 1 0
1  127 0 0 40
2  53 26 0 0 40
0

0101000
+257 3 -106 3 *
Ve
1.00000878e-07
787.95 44.3969801383707 -20.7342266456483
0 0

0101101
*
Ed
 1.00000682e-07 1 1 0
1  128 0 1.63126566315111 8.03319086233319
0

0101000
+104 26 -106 26 *
Ed
 1e-07 1 1 0
1  129 0 0 40
2  54 28 0 0 40
0

0101000
+253 5 -104 5 *
Wi

0101100
-252 25 -105 0 +103 25 +102 4 *
Fa
0  1e-07 47 25

0101000
+101 0 *
Ve
1.00000705e-07
787.95 -27.4935960092264 -48.0494981760626
0 0

0101101
*
Ed
 1e-07 1 1 0
1  130 0 0 40
2  55 27 0 0 40
0

0101000
+255 3 -99 3 *
Ve
1.00000682e-07
787.95 -23.7306387908679 -42.8702318932071
0 0

0101101
*
Ed
 1.00000682e-07 1 1 0
1  131 0 1.63126566315132 8.03319086233324
0

0101000
+97 29 -99 29 *
Ed
 1e-07 1 1 0
1  132 0 0 40
2  56 29 0 0 40
0

0101000
+251 5 -97 5 *
Wi

0101100
-250 28 -98 0 +96 28 +95 4 *
Fa
0  1e-07 48 28

0101000
+94 0 *
Ve
1.00000682e-07
787.95 33.438842723367 -35.8168088656979
0 0

0101101
*
Ed
 1e-07 1 1 0
1  133 0 0 40
2  57 28 0 0 40
0

0101000
+249 5 -92 5 *
Ed
 1.00000682e-07 1 1 0
1  134 0 3.89266824207275 4.27547265726068
2  24 28 0 3.89266824207275 4.27547265726068
0

0101000
+92 5 -104 5 *
Wi

0101100
+102 4 +248 4 -91 4 -90 4 *
Fa
0  1e-07 28 4

0101000
+89 0 *
Ve
1.00000682e-07
787.95 -6.00000000000021 -48.6312656631512
0 0

0101101
*
Ed
 1.00000682e-07 1 1 0
1  135 0 2.63603118063685 3.01883559582477
2  24 29 0 2.63603118063685 3.01883559582477
0

0101000
+97 5 -87 5 *
Ed
 1e-07 1 1 0
1  136 0 0 40
2  58 29 0 0 40
0

0101000
+247 5 -87 5 *
Wi

0101100
-86 4 +85 4 +246 4 -95 4 *
Fa
0  1e-07 29 4

0101000
+84 0 *
Ve
1.00000727e-07
787.95 37.2017999417264 -40.9960751485525
0 0

0101101
*
Ed
 1e-07 1 1 0
1  137 0 0 40
2  59 30 0 0 40
0

0101000
+245 3 -82 3 *
Ed
 1.00000682e-07 1 1 0
1  138 0 1.63126566315147 8.03319086233311
0

0101000
+92 32 -82 32 *
Wi

0101100
-244 31 -81 0 +80 31 +91 4 *
Fa
0  1e-07 49 31

0101000
+79 0 *
Ve
1.0000147e-07
787.95 -6.00000000000136 -55.0331908623329
0 0

0101101
*
Ed
 1e-07 1 1 0
1  139 0 0 40
2  60 31 0 0 40
0

0101000
+243 3 -77 3 *
Ed
 1.00000682e-07 1 1 0
1  140 0 1.63126566315124 8.03319086233294
0

0101000
+87 35 -77 35 *
Wi

0101100
-242 34 -76 0 +75 34 +85 4 *
Fa
0  1e-07 50 34

0101000
+74 0 *
Ve
1.0000072e-07
787.95 27.4935960092265 -48.0494981760626
0 0

0101101
*
Ed
 1e-07 1 1 0
1  141 0 0 40
2  61 30 0 0 40
0

0101000
+237 3 -72 3 *
Ve
1.00000682e-07
787.95 23.7306387908681 -42.8702318932071
0 0

0101101
*
Ed
 1.00000682e-07 1 1 0
1  142 0 1.63126566315133 8.03319086233314
0

0101000
+70 32 -72 32 *
Ed
 1e-07 1 1 0
1  143 0 0 40
2  62 32 0 0 40
0

0101000
+233 5 -70 5 *
Wi

0101100
-232 31 -71 0 +69 31 +68 4 *
Fa
0  1e-07 51 31

0101000
+67 0 *
Ve
1.0000148e-07
787.95 6.00000000000152 -55.0331908623329
0 0

0101101
*
Ed
 1e-07 1 1 0
1  144 0 0 40
2  63 31 0 0 40
0

0101000
+235 3 -65 3 *
Ve
1.00000682e-07
787.95 6.00000000000037 -48.6312656631512
0 0

0101101
*
Ed
 1.00000682e-07 1 1 0
1  145 0 1.63126566315125 8.03319086233292
0

0101000
+63 35 -65 35 *
Ed
 1e-07 1 1 0
1  146 0 0 40
2  64 32 0 0 40
0

0101000
+231 5 -63 5 *
Wi

0101100
-230 34 -64 0 +62 34 +61 4 *
Fa
0  1e-07 52 34

0101000
+60 0 *
Ed
 1.00000682e-07 1 1 0
1  147 0 3.26434971135481 3.64715412654274
2  24 32 0 3.26434971135481 3.64715412654274
0

0101000
+63 5 -70 5 *
Wi

0101100
+68 4 +229 4 -61 4 -58 4 *
Fa
0  1e-07 32 4

0101000
+57 0 *
Ve
7.00896438e-07
787.95 -32.5393801437786 44.7866144774157
0 0

0101101
*
Ed
 1.00000682e-07 1 1 0
1  148 0 0.519722334962213 0.628318531310634
2  65 15 0 0.519722334962213 0.628318531310634
0

0101000
+213 3 -55 3 *
Ed
 1.00000682e-07 1 1 0
1  149 0 0.628318531310634 0.736914726473705
2  65 15 0 0.628318531310634 0.736914726473705
0

0101000
+55 3 -201 3 *
Ve
3.068927746e-06
787.95 -52.6498221040195 17.1069672620574
0 0

0101101
*
Ed
 1.00000682e-07 1 1 0
1  150 0 1.14804086568018 1.25663700891235
2  65 19 0 1.14804086568018 1.25663700891235
0

0101000
+179 3 -52 3 *
Ed
 1.00000682e-07 1 1 0
1  151 0 1.25663700891235 1.36523325719162
2  65 19 0 1.25663700891235 1.36523325719162
0

0101000
+52 3 -167 3 *
Ve
2.984317455e-06
787.95 -52.6498220803337 -17.1069673349546
0 0

0101101
*
Ed
 1.00000682e-07 1 1 0
1  152 0 1.77635939639817 1.88495564606201
2  65 23 0 1.77635939639817 1.88495564606201
0

0101000
+145 3 -49 3 *
Ed
 1.00000682e-07 1 1 0
1  153 0 1.88495564606201 1.99355178790961
2  65 23 0 1.88495564606201 1.99355178790961
0

0101000
+49 3 -133 3 *
Ve
7.00692532e-07
787.95 -32.5393800939062 -44.7866145136502
0 0

0101101
*
Ed
 1.00000682e-07 1 1 0
1  154 0 2.40467792711609 2.51327412339272
2  65 27 0 2.40467792711609 2.51327412339272
0

0101000
+111 3 -46 3 *
Ed
 1.00000682e-07 1 1 0
1  155 0 2.51327412339272 2.62187031862758
2  65 27 0 2.51327412339272 2.62187031862758
0

0101000
+46 3 -99 3 *
Ve
1.00000731e-07
787.95 -5.6e-14 -55.3593
0 0

0101101
*
Ed
 1.00000682e-07 1 1 0
1  156 0 3.03299645783403 3.14159265358979
2  65 31 0 3.03299645783403 3.14159265358979
0

0101000
+77 3 -43 3 *
Ed
 1.00000682e-07 1 1 0
1  157 0 3.14159265358979 3.25018884934556
2  65 31 0 3.14159265358979 3.25018884934556
0

0101000
+43 3 -65 3 *
Ve
2.51875121e-07
787.95 32.5393799134643 -44.7866146447489
0 0

0101101
*
Ed
 1.00000682e-07 1 1 0
1  158 0 3.66131498855201 3.76991117975794
2  65 30 0 3.66131498855201 3.76991117975794
0

0101000
+72 3 -40 3 *
Ed
 1.00000682e-07 1 1 0
1  159 0 3.76991117975794 3.8785073800635
2  65 30 0 3.76991117975794 3.8785073800635
0

0101000
+40 3 -82 3 *
Ve
1.43797571e-07
787.95 52.6498230160725 -17.1069644550471
0 0

0101101
*
Ed
 1.00000682e-07 1 1 0
1  160 0 4.28963351926997 4.39822971581686
2  65 26 0 4.28963351926997 4.39822971581686
0

0101000
+106 3 -37 3 *
Ed
 1.00000682e-07 1 1 0
1  161 0 4.39822971581686 4.50682591078142
2  65 26 0 4.39822971581686 4.50682591078142
0

0101000
+37 3 -116 3 *
Ve
1.43797572e-07
787.95 52.6498230160725 17.1069644550471
0 0

0101101
*
Ed
 1.00000682e-07 1 1 0
1  162 0 4.91795204998796 5.02654824495252
2  65 22 0 4.91795204998796 5.02654824495252
0

0101000
+140 3 -34 3 *
Ed
 1.00000682e-07 1 1 0
1  163 0 5.02654824495252 5.13514444149941
2  65 22 0 5.02654824495252 5.13514444149941
0

0101000
+34 3 -150 3 *
Ve
3.51621226e-07
787.95 32.539379832768 44.7866147033782
0 0

0101101
*
Ed
 1.00000682e-07 1 1 0
1  164 0 5.54627058070588 5.65486678281323
2  65 18 0 5.54627058070588 5.65486678281323
0

0101000
+174 3 -31 3 *
Ed
 1.00000682e-07 1 1 0
1  165 0 5.65486678281323 5.76346297221737
2  65 18 0 5.65486678281323 5.76346297221737
0

0101000
+31 3 -184 3 *
Ve
1.00000682e-07
787.95 1.4e-14 55.3593
0 0

0101101
*
Ed
 1.00000682e-07 1 1 0
1  166 0 6.17458911142383 6.28318530717959
2  65 14 0 6.17458911142383 6.28318530717959
0

0101000
+208 3 -28 3 *
Ed
 1.00000682e-07 1 1 0
1  167 0 0 0.108596195755756
2  66 14 0 0 0.108596195755756
0

0101000
+28 3 -218 3 *
Wi

0101100
-216 7 +223 4 +211 10 +54 0 +53 0 -198 10 +188 4 +177 16 +51 0 +50 0 
-164 16 +154 4 +143 22 +48 0 +47 0 -130 22 +120 4 +109 28 +45 0 +44 0 
-96 28 +86 4 +75 34 +42 0 +41 0 -62 34 +58 4 +69 31 +39 0 +38 0 
-80 31 +90 4 +103 25 +36 0 +35 0 -114 25 +124 4 +137 19 +33 0 +32 0 
-148 19 +158 4 +171 13 +30 0 +29 0 -182 13 +192 4 +205 7 +27 0 +26 0 
*
Fa
0  1.00000682e-07 53 0

0101000
+25 0 *
Wi

0101100
-27 0 -207 0 +316 0 +320 0 +217 0 -26 0 *
Fa
0  1e-07 14 0

0101000
+23 0 *
Wi

0101100
+314 0 +200 0 -53 0 -54 0 -212 0 +318 0 *
Fa
0  1e-07 15 0

0101000
+21 0 *
Wi

0101100
-30 0 -173 0 +296 0 +300 0 +183 0 -29 0 *
Fa
0  1e-07 18 0

0101000
+19 0 *
Wi

0101100
+294 0 +166 0 -50 0 -51 0 -178 0 +298 0 *
Fa
0  1e-07 19 0

0101000
+17 0 *
Wi

0101100
-33 0 -139 0 +276 0 +280 0 +149 0 -32 0 *
Fa
0  1e-07 22 0

0101000
+15 0 *
Wi

0101100
+274 0 +132 0 -47 0 -48 0 -144 0 +278 0 *
Fa
0  1e-07 23 0

0101000
+13 0 *
Wi

0101100
-36 0 -105 0 +256 0 +260 0 +115 0 -35 0 *
Fa
0  1e-07 26 0

0101000
+11 0 *
Wi

0101100
+254 0 +98 0 -44 0 -45 0 -110 0 +258 0 *
Fa
0  1e-07 27 0

0101000
+9 0 *
Wi

0101100
-39 0 -71 0 +236 0 +240 0 +81 0 -38 0 *
Fa
0  1e-07 30 0

0101000
+7 0 *
Wi

0101100
-41 0 -42 0 -76 0 +238 0 +234 0 +64 0 *
Fa
0  1e-07 31 0

0101000
+5 0 *
Sh

0101100
-387 0 +380 0 +364 0 +359 0 +348 0 -345 0 +342 0 +339 0 +336 0 +334 0 
+329 0 +226 0 +219 0 +214 0 -209 0 -202 0 +195 0 +190 0 +185 0 +180 0 
-175 0 -168 0 +161 0 +156 0 +151 0 +146 0 -141 0 -134 0 +127 0 +122 0 
+117 0 +112 0 -107 0 -100 0 +93 0 +88 0 +83 0 +78 0 -73 0 -66 0 
+59 0 +56 0 +24 0 +22 0 +20 0 +18 0 +16 0 +14 0 +12 0 +10 0 
+8 0 +6 0 +4 0 *
So

0100000
+3 0 *
Co

1100000
+2 0 *

+1 1 