
CASCADE Topology V1, (c) Matra-Datavision
Locations 13
1
1.000000000000000 0.000000000000000 0.000000000000000 0.000000000000000 
0.000000000000000 1.000000000000000 0.000000000000000 0.000000000000000 
0.000000000000000 0.000000000000000 1.000000000000000 0.000000000000000 
1
1.000000000000000 0.000000000000000 0.000000000000000 0.000000000000000 
0.000000000000000 1.000000000000000 0.000000000000000 0.000000000000000 
0.000000000000000 0.000000000000000 1.000000000000000 0.000000000000000 
2  2 -1 0
1
0.000000000000000 0.000000000000000 1.000000000000000 0.000000000000000 
0.000000000000000 1.000000000000000 0.000000000000000 0.000000000000000 
-1.000000000000000 0.000000000000000 0.000000000000000 0.000000000000000 
1
1.000000000000000 0.000000000000000 0.000000000000000 0.000000000000000 
0.000000000000000 1.000000000000000 0.000000000000000 14.500000000000000 
0.000000000000000 0.000000000000000 1.000000000000000 2.843750000000000 
2  4 1 5 1 0
1
0.000000000000000 0.000000000000000 -1.000000000000000 0.000000000000000 
0.000000000000000 1.000000000000000 0.000000000000000 0.000000000000000 
1.000000000000000 0.000000000000000 0.000000000000000 0.000000000000000 
1
1.000000000000000 0.000000000000000 0.000000000000000 0.000000000000000 
0.000000000000000 1.000000000000000 0.000000000000000 14.500000000000000 
0.000000000000000 0.000000000000000 1.000000000000000 -2.843750000000000 
2  7 1 8 1 0
2  2 -1 5 -1 4 -1 0
2  5 -1 4 -1 0
2  2 -1 8 -1 7 -1 0
2  8 -1 7 -1 0
Curve2ds 94
1 0.00000000000000000 -0.00000000000000000 0.00000000000000000 1.00000000000000000 
7 0 0  6 22 5  0.28141719438511542 2.68635291052043756  0.27644234173822285 2.65773158838183265  0.27123036985172333 2.62923765682523314  0.26581267517439294 2.60086651669162627  0.26021849103302858 2.57261188974627641  0.25447488763244813 2.54446581867872146  0.24442021501468666 2.49640866587413512  0.24017025099599243 2.47644916299816176  0.23586583718720289 2.45653678242550333  0.23151530935485931 2.43666806503121558  0.22712638184424905 2.41683946861476118  0.20973129079434116 2.33895097371295835  0.19648761151267438 2.28117329165045968  0.18315305046114938 2.22361463165621176  0.16986431433799562 2.16619318835242192  0.15672450105219013 2.10883659591787609  0.11529723429877715 1.92481629344410221  0.08788751800046085 1.79813414508469549  0.06242490607936708 1.67072181047790647  0.03922583417534631 1.54227582165827304  0.01840704915917562 1.41253888934377736  0.00000000000000000 1.28145328153748306 
 0.00000000000000000 7 0.11860179520963798 5 0.20321723508551565 5 0.45159167598939814 5 1.00000000000000000 7
7 0 0  4 5 2  0.03979567165888545 1.53569431502456366  0.02994780187130499 1.54478574853071193  0.02003154763532091 1.55366808872128592  0.01004839996440925 1.56233913182632911  0.00000000000000000 1.57079634120081590 
 0.00000000000000000 5 1.00000000000000000 5
7 0 0  4 5 2  1.60589833856523145 -0.00000060000000000  1.59680690505908340 0.02487612120525981  1.58792458854636886 0.04983686244409977  1.57925347982891151 0.07487899227477340  1.57079633950103670 0.10000000504899020 
 0.00000000000000000 5 1.00000000000000000 5
7 0 0  6 32 7  0.00000000000000000 1.57079632676361869  0.00232414216214371 1.60199666346362402  0.00468745969716992 1.63319099178620619  0.00708740135582329 1.66438068837696207  0.00952101648640557 1.69556720696363783  0.01198495503477564 1.72675207835613320  0.02473262331539920 1.88637139098626450  0.03544174839166208 2.01481416633161725  0.04633427963484214 2.14336357286144263  0.05703432058762482 2.27214719082041139  0.06693581836399594 2.40128481392438875  0.08207016636788096 2.63190799419501387  0.08785175631217466 2.73327511846361570  0.09249092436271997 2.83484016536346850  0.09570108015638759 2.93657246634446212  0.09731387032066625 3.03841746665654266  0.09734897246376566 3.24208828628659695  0.09577101848899754 3.34394355756280870  0.09259335587151282 3.44568756812154842  0.08798232213067417 3.54726537014999632  0.08222378461390256 3.64864579918405241  0.06706234082672312 3.88033907633023034  0.05708464323034707 4.01052784468136547  0.04629206053688754 4.14035559308886025  0.03530708396544583 4.26994565324791964  0.02451308703244651 4.39942896457798938  0.01174426272295407 4.55948102345584516  0.00933081844126528 4.59005646596488059  0.00694671197023350 4.62063357831159305  0.00459508552741102 4.65121380059999456  0.00227871301102951 4.68179850131734998  0.00000000000000000 4.71238897733417428 
 0.00000000000000000 7 0.05993574825382486 5 0.30678064613353551 5 0.49957579669158236 5 0.69238728792364679 5 0.94123570655507316 5 1.00000000000000000 7
7 0 0  6 32 7  1.57079632676731085 0.09999999998903775  1.60199666346115932 0.10581033830644271  1.63319099178472804 0.11165395118222861  1.66438068837770081 0.11752164234730712  1.69556720696486996 0.12340390639804355  1.72675207835613365 0.12929092879625706  1.88637139098626494 0.15939614329259028  2.01481416633162036 0.18353073072200235  2.14336357286144352 0.20686479055850684  2.27214719082041139 0.22861285051525215  2.40128481392439008 0.24789641483258029  2.63190799419501431 0.27651147533457082  2.73327511846360593 0.28709983832342123  2.83484016536348360 0.29536586811822108  2.93657246634445501 0.30100230385838911  3.03841746665654266 0.30383521292709093  3.24208828628659695 0.30389686108949165  3.34394355756288819 0.30112513382109302  3.44568756812140276 0.29554722080014273  3.54726537015007626 0.28733497830743138  3.64864579918405241 0.27679445241292022  3.88033907633023034 0.24814506315894647  4.01052784468137968 0.22872312073889767  4.14035559308882029 0.20679111440302020  4.26994565324794983 0.18325032420808229  4.39942896457798849 0.15890490756860046  4.55948102345584516 0.12871559205549496  4.59005646608500317 0.12294402777831583  4.62063357838371846 0.11717759035451573  4.65121380045595600 0.11142551871202167  4.68179850107713058 0.10569676629605758  4.71238897769410769 0.10000000106914442 
 0.00000000000000000 7 0.05993574825382486 5 0.30678064613353551 5 0.49957579669158236 5 0.69238728792364679 5 0.94123570655507316 5 1.00000000000000000 7
7 0 0  4 5 2  0.03979567165888544 4.74749099215502390  0.02994780261417368 4.73839955933468282  0.02003154648713738 4.72951724271872909  0.01004840623720251 4.72084613612600545  0.00000000000000000 4.71238899479141082 
 0.00000000000000000 5 1.00000000000000000 5
7 0 0  4 5 2  4.67728696861435544 -0.00000060000000000  4.68637840143469653 0.02487611932869782  4.69526074173019126 0.04983685647520705  4.70393178270609447 0.07487899219365125  4.71238899309153325 0.09999999495072487 
 0.00000000000000000 5 1.00000000000000000 5
7 0 0  6 22 5  0.00000000000000000 5.00173202564210317  0.01832177631878181 4.87125368747559317  0.03903310202893487 4.74211081467545981  0.06210289783127418 4.61424722945846266  0.08741635094014272 4.48741052820256048  0.11466313115539872 4.36130178320714723  0.15615539416347446 4.17682524534802102  0.16952941909279709 4.11842975715514026  0.18306047747688228 4.05996870107496388  0.19664024492098608 4.00136594295708736  0.21012430158105824 3.94253521985601685  0.22773989665654645 3.86357653758897479  0.23212403501548073 3.84374534403741031  0.23646907599825240 3.82387370510639535  0.24076726472612964 3.80395808328853313  0.24501022420846286 3.78399502905484875  0.25494974899748052 3.73639011408941490  0.26058853041461810 3.70870278780186302  0.26608149609596732 3.68091008470927994  0.27140282458614001 3.65300447785456583  0.27652467647249074 3.62498003060638174  0.28141719438511620 3.59683239665914956 
 0.00000000000000000 7 0.54586924783543000 5 0.79875437420864492 5 0.88336117181425688 5 1.00000000000000000 7
1 0.00000000000000000 0.00000000000000000 1.00000000000000000 0.00000000000000000 
1 0.00000000000000000 6.28318530717958623 1.00000000000000000 0.00000000000000000 
1 3.14159265358979312 9.42477796076937935 -0.00000000000000000 -1.00000000000000000 
7 0 0  6 22 5  2.86017545920467819 3.59683239665914867  2.86515031185148894 3.62545371879728195  2.87036228373789859 3.65394765035340763  2.87577997841513211 3.68231879048654642  2.88137416255639378 3.71057341743143843  2.88711776595686898 3.73871948849853952  2.89717243857451257 3.78677664130266400  2.90142240259320117 3.80673614417864270  2.90572681640198516 3.82664852475130202  2.91007734423432352 3.84651724214558710  2.91446627174492789 3.86634583856203529  2.93186136279482179 3.94423433346385854  2.94510504207647017 4.00201201552631947  2.95843960312799936 4.05957067552059669  2.97172833925116153 4.11699211882440785  2.98486815253696003 4.17434871125889728  3.02629541929054113 4.35836901373328622  3.05370513558888002 4.48505116209251931  3.07916774751025279 4.61246349670090883  3.10236681941424886 4.74090948551998181  3.12318560443055970 4.87064641783539898  3.14159265358979312 5.00173202564210317 
 0.00000000000000000 7 0.11860179520762713 5 0.20321723508344719 5 0.45159167598719446 5 1.00000000000000000 7
7 0 0  4 5 2  3.10179698193090880 4.74749099215502479  3.11164485171851002 4.73839955864885809  3.12156110595444192 4.72951721845763107  3.13154425362555688 4.72084617535432560  3.14159265358979312 4.71238896597796497 
 0.00000000000000000 5 1.00000000000000000 5
7 0 0  4 5 2  4.74749099215502124 -0.00000060000000000  4.73839955864885365 0.02487612120531171  4.72951724213679547 0.04983686244426848  4.72084613341748760 0.07487899227477883  4.71238899309153858 0.10000000504927442 
 0.00000000000000000 5 1.00000000000000000 5
7 0 0  6 17 4  3.14159265358979312 4.71238898057273214  3.13929508905988053 4.68154543018875735  3.13695923928018905 4.65070775076960086  3.13458756987218123 4.61987461322480097  3.13218292729914261 4.58904461431879440  3.12974853886617232 4.55821627667091800  3.11695411354637875 4.39791338354763539  3.10615787980770719 4.26843124971001231  3.09517352667319479 4.13884136806865222  3.08438539080242036 4.00901290851718173  3.07441702555653285 3.87882277826528910  3.05931147757553790 3.64760078464767101  3.05358956287421446 3.54669544663820613  3.04900586135561547 3.44559465468540393  3.04584167633266967 3.34432931909375020  3.04426111711582870 3.24295378273298684  3.04426111711582870 3.14159265358979356 
 0.00000000000000000 7 0.11850083129944783 5 0.61618936212863851 5 1.00000000000000000 7
7 0 0  6 17 4  4.71238898021883923 0.09999999993409503  4.74323253056570326 0.10574389521239393  4.77407020999086118 0.11152030827982289  4.80490334754907078 0.11732035490349096  4.83573334645804565 0.12313485551406256  4.86656168409846490 0.12895433520575730  5.02686457722174662 0.15918998146539148  5.15634671105936171 0.18352856492633920  5.28593659270073335 0.20705639249787927  5.41576505225220028 0.22896887556618012  5.54595518250408936 0.24836459570096678  5.77717717612170834 0.27689863112393309  5.87808251413118743 0.28737073162950810  5.97918330608395721 0.29553491876329885  6.08044864167563581 0.30108995362184648  6.18182417803639339 0.30386623912065247  6.28318530717958623 0.30386623912065247 
 0.00000000000000000 7 0.11850083129944783 5 0.61618936212863851 5 1.00000000000000000 7
7 0 0  6 17 4  3.04426111711582870 3.14159265358979356  3.04426111711582870 3.04031626766125118  3.04583903595959793 2.93902546835624534  3.04899792655785395 2.83784460111966652  3.05357424576000858 2.73682790138262000  3.05928757072299318 2.63600624329391797  3.07437943866032493 2.40486580952800466  3.08434479698330843 2.27467398886871042  3.09513156230421593 2.14484406180301868  3.10611581096729461 2.01525301065562346  3.11691287864689004 1.88577003771715668  3.12971579320657822 1.72538368299759370  3.13215705121656418 1.69447243274821191  3.13456842926027024 1.66355952427487952  3.13694667178050635 1.63264346785855685  3.13928890833367769 1.60172284873055948  3.14159265358979312 1.57079632707255690 
 0.00000000000000000 7 0.38348982825703970 5 0.88118039994099928 5 1.00000000000000000 7
7 0 0  6 17 4  0.00000000000000000 0.30386623912065247  0.10127638592854256 0.30386623912065247  0.20256718523354961 0.30109459325367310  0.30374805247012338 0.29554884455791008  0.40476475220717373 0.28739801786822489  0.50558641029587559 0.27694238118019038  0.73672684406178868 0.24843741754444670  0.86691866472108681 0.22905022041579515  0.99674859178676245 0.20714399109129383  1.12633964293417455 0.18362022009635953  1.25582261587263733 0.15928366065834612  1.41620897059220141 0.12903260970517327  1.44712022085258241 0.12319742193856426  1.47803312932153719 0.11736716314728753  1.50894918571808301 0.11155138648983222  1.53986980483723279 0.10575934670208172  1.57079632654999735 0.10000000009731380 
 0.00000000000000000 7 0.38348982825703970 5 0.88118039994099928 5 1.00000000000000000 7
7 0 0  4 5 2  3.10179698193090791 1.53569431502456299  3.11164485097564114 1.54478574784492362  3.12156110710262436 1.55366806446153727  3.13154424735276882 1.56233917105247966  3.14159265358979312 1.57079631238900297 
 0.00000000000000000 5 1.00000000000000000 5
7 0 0  4 5 2  1.53569431502456277 -0.00000060000000000  1.54478574784492317 0.02487611932875185  1.55366808813975354 0.04983685647537636  1.56233912911755746 0.07487899219365736  1.57079633950101050 0.09999999495101619 
 0.00000000000000000 5 1.00000000000000000 5
7 0 0  6 22 5  3.14159265358979312 1.28145328153748328  3.12327087727100805 1.41193161970401482  3.10255955156085728 1.54107449250411244  3.07948975575852257 1.66893807772115665  3.05417630264962892 1.79577477897709326  3.02692952243439262 1.92188352397245499  2.98543725942630767 2.10636006183161983  2.97206323449697996 2.16475555002449704  2.95853217611289709 2.22321660610468186  2.94495240866879593 2.28181936422256548  2.93146835200871969 2.34065008732362978  2.91385275693323109 2.41960876959067450  2.90946861857429795 2.43943996314224165  2.90512357759152673 2.45931160207325705  2.90082538886365038 2.47922722389111927  2.89658242938131671 2.49919027812480188  2.88664290459230166 2.54679519309022639  2.88100412317516552 2.57448251937776629  2.87551115749381836 2.60227522247033782  2.87018982900364916 2.63018082932504349  2.86506797711730110 2.65820527657321870  2.86017545920467775 2.68635291052043845 
 0.00000000000000000 7 0.54586924783552304 5 0.79875437420873219 5 0.88336117181432638 5 1.00000000000000000 7
1 0.00000000000000000 0.00000000000000000 1.00000000000000000 0.00000000000000000 
1 6.28318530717958623 -0.00000000000000000 0.00000000000000000 1.00000000000000000 
1 0.00000000000000000 -0.00000000000000000 0.00000000000000000 1.00000000000000000 
7 0 0  7 8 2  -0.00000000000000089 3.42847998635284590  0.22439947525641296 3.42847998635284590  0.44879895051289509 3.43942056590105949  0.67319842576921474 3.46130013788661017  0.89759790102596071 3.49277539336617338  1.12199737628199614 3.53112858469501134  1.34639685153848276 3.57291761977566757  1.57079632679489656 3.61470682454454639 
 3.14159265358979267 8 4.71238898038468967 8
7 0 0  7 8 2  -0.00000000000000089 0.28622683819170369  0.22439947525641296 0.28622683819170369  0.44879895051278140 0.27528625864357537  0.67319842576944211 0.25340668665722887  0.89759790102550596 0.22193143117991099  1.12199737628202456 0.18357823984901955  1.34639685153848276 0.14178920476888032  1.57079632679489656 0.10000000000000142 
 3.14159265358979267 8 4.71238898038468967 8
7 0 0  5 6 2  1.57079632679489656 3.61470682454454639  1.57753079002139707 3.59470292460562879  1.58426525324790646 3.57469902466670675  1.59099971647439631 3.55469701480441813  1.59773417970089837 3.53469878509530311  1.60446864292739888 3.51470622454457882 
 1.57079632679489656 6 1.60446864292739866 6
7 0 0  5 6 2  1.57079632679489656 0.10000000000000142  1.56406186356839605 0.07999610006108362  1.55732740034190087 0.05999220012216788  1.55059293711539681 0.03999019025986195  1.54385847388889519 0.01999196055075971  1.53712401066239468 -0.00000059999996438 
 1.57079632679489656 6 1.60446864292739866 6
7 0 0  7 8 2  0.09953439673696649 3.10592950277412072  0.39069386231179493 3.11742632833251587  0.68185332788652886 3.16803147524603901  0.97301279346186220 3.25613446540319273  1.26417225903628605 3.37209933616895796  1.55533172461116465 3.49840263868429702  1.84649119018593710 3.61710609528504667  2.13765065576076552 3.71470742454454594 
 3.24112705032675974 8 5.27924330935055863 8
1 0.00000000000000000 3.71470682454454515 1.00000000000000000 0.00000000000000000 
7 0 0  7 8 2  4.14553465141882072 3.71470742454454594  4.43669411699364868 3.61710609528504667  4.72785358256987820 3.49840263868577495  5.01901304814100513 3.37209933616577473  5.31017251372168175 3.25613446540683071  5.60133197929167181 3.16803147524467477  5.89249144486779119 3.11742632833251587  6.18365091044261916 3.10592950277412072 
 1.00394199782902804 8 3.04205825685282649 8
7 0 0  5 6 2  4.67871666425218713 3.51470622454457704  4.68545112747868764 3.53469878509530133  4.69218559070519348 3.55469701480441103  4.69892005393168688 3.57469902466671385  4.70565451715818917 3.59470292460562835  4.71238898038468967 3.61470682454454639 
 4.67871666425218713 6 4.71238898038468967 6
7 0 0  5 6 2  4.74606129651719222 -0.00000059999996616  4.73932683329069171 0.01999196055075820  4.73259237006419653 0.03999019025986594  4.72585790683770313 0.05999220012215833  4.71912344361119018 0.07999610006108338  4.71238898038468967 0.10000000000000142 
 4.67871666425218713 6 4.71238898038468967 6
7 0 0  7 8 2  4.71238898038468967 3.61470682454454639  4.93678845564110347 3.57291761977566757  5.16118793089731298 3.53112858469523871  5.38558740615326315 3.49277539336526388  5.60998688140989543 3.46130013788797442  5.83438635666630034 3.43942056590083212  6.05878583192317155 3.42847998635284590  6.28318530717958534 3.42847998635284590 
 1.57079632679489656 8 3.14159265358979267 8
7 0 0  7 8 2  4.71238898038468967 0.10000000000000142  4.93678845564110347 0.14178920476888029  5.16118793089731298 0.18357823984904087  5.38558740615508214 0.22193143117976888  5.60998688140807644 0.25340668665734256  5.83438635666720984 0.27528625864353273  6.05878583192317155 0.28622683819170369  6.28318530717958534 0.28622683819170369 
 1.57079632679489656 8 3.14159265358979267 8
1 0.00000000000000000 0.00000000000000000 1.00000000000000000 0.00000000000000000 
1 6.28318530717958623 -0.00000000000000000 0.00000000000000000 1.00000000000000000 
1 0.00000000000000000 -0.00000000000000000 0.00000000000000000 1.00000000000000000 
1 0.00000000000000000 3.71470682454454515 1.00000000000000000 0.00000000000000000 
7 0 0  7 8 2  1.00394199782902760 3.71470742454454594  1.29510146340385601 3.61710609528504667  1.58626092897867466 3.49840263868577495  1.87742039455429222 3.37209933616577473  2.16857986012860238 3.25613446540683071  2.45973932570302622 3.16803147524467477  2.75089879127799808 3.11742632833251587  3.04205825685282649 3.10592950277412072 
 1.00394199782902804 8 3.04205825685282649 8
7 0 0  5 6 2  1.53712401066239446 3.51470622454457882  1.54385847388889474 3.53469878509530266  1.55059293711540391 3.55469701480442524  1.55732740034189021 3.57469902466669964  1.56406186356839627 3.59470292460562879  1.57079632679489656 3.61470682454454639 
 4.67871666425218802 6 4.71238898038468967 6
7 0 0  5 6 2  1.60446864292739844 -0.00000059999996438  1.59773417970089815 0.01999196055075944  1.59099971647440341 0.03999019025986605  1.58426525324789935 0.05999220012215567  1.57753079002139707 0.07999610006108390  1.57079632679489678 0.10000000000000142 
 4.67871666425218802 6 4.71238898038468967 6
7 0 0  8 9 2  1.57079632679489656 3.61470682454454639  1.96349540849362070 3.54157571619900846  2.35619449018895466 3.46844402473743685  2.74889357190295414 3.41250371125534002  3.14159265355738171 3.39089968110783957  3.53429173529912077 3.41250371126443497  3.92699081698219743 3.46844402473607261  4.31968989868596509 3.54157571619900846  4.71238898038468967 3.61470682454454639 
 1.57079632679489656 9 4.71238898038468967 9
7 0 0  8 9 2  1.57079632679489656 0.10000000000000142  1.96349540849362070 0.17313110834553946  2.35619449018849991 0.24626279980319055  2.74889357189749717 0.30220311328810112  3.14159265357739059 0.32380714342184547  3.53429173528638785 0.30220311328844218  3.92699081698174268 0.24626279980304844  4.31968989868596509 0.17313110834553946  4.71238898038468967 0.10000000000000142 
 1.57079632679489656 9 4.71238898038468967 9
7 0 0  5 6 2  4.71238898038468967 3.61470682454454639  4.71912344361119018 3.59470292460562879  4.72585790683771023 3.57469902466671385  4.73259237006418942 3.55469701480441813  4.73932683329069171 3.53469878509530266  4.74606129651719222 3.51470622454457882 
 1.57079632679489656 6 1.60446864292739844 6
7 0 0  5 6 2  4.71238898038468967 0.10000000000000142  4.70565451715818917 0.07999610006108376  4.69892005393169399 0.05999220012216311  4.69218559070518637 0.03999019025986983  4.68545112747868853 0.01999196055075957  4.67871666425218802 -0.00000059999996438 
 1.57079632679489656 6 1.60446864292739844 6
7 0 0  7 8 2  3.24112705032675930 3.10592950277412072  3.53228651590158771 3.11742632833251587  3.82344598147642500 3.16803147524603901  4.11460544705278153 3.25613446540319273  4.40576491262527270 3.37209933616895796  4.69692437820140185 3.49840263868429702  4.98808384377572978 3.61710609528504667  5.27924330935055863 3.71470742454454594 
 3.24112705032675974 8 5.27924330935055863 8
1 6.28318530717958623 -0.00000000000000000 0.00000000000000000 1.00000000000000000 
1 0.00000000000000000 -0.00000000000000000 0.00000000000000000 1.00000000000000000 
7 0 0  5 6 2  4.71238898038468967 0.10000000000000142  4.70565451715818739 0.12000389993892581  4.69892005393169399 0.14000779987784862  4.69218559070518637 0.16000980974016121  4.68545112747867876 0.18000803944926852  4.67871666425217647 0.20000059999999920 
 4.71238898038468967 6 4.74606129651720288 6
7 0 0  5 6 2  4.71238898038468967 3.61470682454454639  4.71912344361119196 3.63471072448347066  4.72585790683769602 3.65471462442240380  4.73259237006420364 3.67471663428469952  4.73932683329070059 3.69471486399381188  4.74606129651720288 3.71470742454454239 
 4.71238898038468967 6 4.74606129651720288 6
7 0 0  7 8 2  4.14553465141882072 -0.00000059999999991  4.43669411699364069 0.09760072925949685  4.72785358256783184 0.21630418585969835  5.01901304814509786 0.34260748837664323  5.31017251371849852 0.45857235914104422  5.60133197929326343 0.54667534929893691  5.89249144486774323 0.59728049621202217  6.18365091044256321 0.60877732177042354 
 4.14553465141882072 8 6.18365091044256321 8
1 0.00000000000000000 0.00000000000000000 1.00000000000000000 0.00000000000000000 
7 0 0  7 8 2  0.09953439673702280 0.60877732177042354  0.39069386231184317 0.59728049621202217  0.68185332788669939 0.54667534929880901  0.97301279346140745 0.45857235914141370  1.26417225903639974 0.34260748837647270  1.55533172461110780 0.21630418585968414  1.84649119018594510 0.09760072925949688  2.13765065576076552 -0.00000059999999991 
 0.09953439673702281 8 2.13765065576076552 8
7 0 0  5 6 2  1.60446864292740998 0.20000060000000097  1.59773417970090725 0.18000803944927019  1.59099971647440697 0.16000980974015433  1.58426525324790290 0.14000779987785639  1.57753079002139929 0.12000389993892593  1.57079632679489656 0.10000000000000142 
 1.53712401066238313 6 1.57079632679489656 6
7 0 0  5 6 2  1.53712401066238358 3.71470742454454417  1.54385847388888631 3.69471486399381321  1.55059293711538970 3.67471663428471373  1.55732740034189732 3.65471462442240380  1.56406186356839383 3.63471072448347110  1.57079632679489656 3.61470682454454639 
 1.53712401066238313 6 1.57079632679489656 6
1 0.00000000000000000 28.50000000000000000 1.00000000000000000 0.00000000000000000 
1 0.00000000000000000 3.14159265358979312 -0.00000000000000000 -1.00000000000000000 
7 0 0  5 6 2  1.57079632679489656 0.10000000000000142  1.68416759845542297 0.07888722653688916  1.79753887011594671 0.05777440650098686  1.91091014177647978 0.03722716745722821  2.02428141343700174 0.01780999259416696  2.13765268509752815 -0.00000059999999991 
 4.71238898038468967 6 5.27924533868732127 6
7 0 0  5 6 2  1.57079632679489656 3.61470682454454639  1.68416759845542297 3.63581959800765864  1.79753887011594671 3.65693241804354585  1.91091014177647978 3.67747965708733915  2.02428141343700174 3.69689683195037899  2.13765268509752815 3.71470742454454594 
 4.71238898038468967 6 5.27924533868732127 6
7 0 0  5 6 2  4.14553262208205808 -0.00000059999999991  4.25890389374258405 0.01780999259416697  4.37227516540310290 0.03722716745722809  4.48564643706365018 0.05777440650098697  4.59901770872416282 0.07888722653688915  4.71238898038468967 0.10000000000000142 
 1.00393996849226452 6 1.57079632679489656 6
7 0 0  5 6 2  4.14553262208205631 3.71470742454454594  4.25890389374258227 3.69689683195037899  4.37227516540311711 3.67747965708733204  4.48564643706363597 3.65693241804355296  4.59901770872416371 3.63581959800765864  4.71238898038468967 3.61470682454454639 
 1.00393996849226452 6 1.57079632679489656 6
1 0.00000000000000000 0.00000000000000000 1.00000000000000000 0.00000000000000000 
7 0 0  5 6 2  1.00393996849226452 -0.00000059999999991  1.11731124015279093 0.01780999259416697  1.23068251181331689 0.03722716745722809  1.34405378347384818 0.05777440650098697  1.45742505513437015 0.07888722653688915  1.57079632679489656 0.10000000000000142 
 1.00393996849226452 6 1.57079632679489656 6
7 0 0  5 6 2  1.00393996849226386 3.71470742454454594  1.11731124015279026 3.69689683195037899  1.23068251181332222 3.67747965708733204  1.34405378347384108 3.65693241804355296  1.45742505513437015 3.63581959800765864  1.57079632679489656 3.61470682454454639 
 1.00393996849226452 6 1.57079632679489656 6
7 0 0  7 8 2  3.24112705032681570 0.60877732177042354  3.53228651590163611 0.59728049621202217  3.82344598147653869 0.54667534929888006  4.11460544705369102 0.45857235914115790  4.40576491262572745 0.34260748837658639  4.69692437820071973 0.21630418585962730  4.98808384377573777 0.09760072925949691  5.27924330935055774 -0.00000059999999991 
 0.09953439673702281 8 2.13765065576076507 8
7 0 0  5 6 2  4.74606129651720288 0.20000060000000097  4.73932683329070059 0.18000803944927019  4.73259237006419653 0.16000980974015433  4.72585790683770313 0.14000779987785639  4.71912344361119196 0.12000389993892593  4.71238898038468967 0.10000000000000142 
 1.53712401066238313 6 1.57079632679489656 6
7 0 0  5 6 2  4.67871666425217647 3.71470742454454417  4.68545112747867876 3.69471486399381321  4.69218559070520058 3.67471663428471373  4.69892005393167977 3.65471462442240380  4.70565451715818739 3.63471072448347110  4.71238898038468967 3.61470682454454639 
 1.53712401066238313 6 1.57079632679489656 6
7 0 0  5 6 2  1.57079632679489678 0.10000000000000142  1.56406186356839405 0.12000389993892581  1.55732740034189021 0.14000779987784862  1.55059293711539681 0.16000980974016121  1.54385847388888631 0.18000803944926852  1.53712401066238358 0.20000059999999920 
 4.71238898038468967 6 4.74606129651720288 6
7 0 0  5 6 2  1.57079632679489656 3.61470682454454639  1.57753079002139929 3.63471072448347066  1.58426525324789935 3.65471462442240380  1.59099971647441052 3.67471663428469952  1.59773417970090681 3.69471486399381188  1.60446864292740954 3.71470742454454239 
 4.71238898038468967 6 4.74606129651720288 6
7 0 0  7 8 2  1.00394199782902738 -0.00000059999999991  1.29510146340384780 0.09760072925949685  1.58626092897878834 0.21630418585969835  1.87742039455406484 0.34260748837664323  2.16857986012860238 0.45857235914104422  2.45973932570325360 0.54667534929893691  2.75089879127794967 0.59728049621202217  3.04205825685277009 0.60877732177042354 
 4.14553465141882072 8 6.18365091044256321 8
1 6.28318530717958623 -0.00000000000000000 0.00000000000000000 1.00000000000000000 
1 0.00000000000000000 -0.00000000000000000 0.00000000000000000 1.00000000000000000 
1 0.00000000000000000 28.50000000000000000 1.00000000000000000 0.00000000000000000 
1 0.00000000000000000 -0.00000000000000000 -0.00000000000000000 -1.00000000000000000 
1 0.00000000000000000 6.28318530717958623 -0.00000000000000000 -1.00000000000000000 
7 0 0  5 6 2  4.71238898038468967 0.10000000000000142  4.82576025204521564 0.07888722653688916  4.93913152370576114 0.05777440650098686  5.05250279536626579 0.03722716745722821  5.16587406702679530 0.01780999259416696  5.27924533868732127 -0.00000059999999991 
 4.71238898038468967 6 5.27924533868732127 6
7 0 0  5 6 2  4.71238898038468967 3.61470682454454639  4.82576025204521564 3.63581959800765864  4.93913152370575403 3.65693241804354585  5.05250279536627289 3.67747965708733915  5.16587406702679530 3.69689683195037899  5.27924533868732127 3.71470742454454594 
 4.71238898038468967 6 5.27924533868732127 6
1 0.00000000000000000 -3.14159265358979312 1.00000000000000000 0.00000000000000000 
1 0.00000000000000000 3.14159265358979312 1.00000000000000000 0.00000000000000000 
1 0.78539816339744828 -0.00000000000000000 0.00000000000000000 1.00000000000000000 
1 3.14159265358979312 0.00000000000000000 -1.00000000000000000 -0.00000000000000000 
1 0.00000000000000000 -3.14159265358979312 1.00000000000000000 0.00000000000000000 
1 0.00000000000000000 3.14159265358979312 1.00000000000000000 0.00000000000000000 
1 0.78539816339744828 -0.00000000000000000 0.00000000000000000 1.00000000000000000 
1 6.28318530717958712 0.00000000000000000 -1.00000000000000000 -0.00000000000000000 
1 0.00000000000000000 0.00000000000000000 -1.00000000000000000 -0.00000000000000000 
1 0.00000000000000000 8.02920367320510486 1.00000000000000000 0.00000000000000000 
1 6.28318530717958623 -0.00000000000000000 0.00000000000000000 1.00000000000000000 
1 0.00000000000000000 -0.00000000000000000 0.00000000000000000 1.00000000000000000 
1 6.28318530717958623 -0.00000000000000000 0.00000000000000000 1.00000000000000000 
1 0.00000000000000000 -0.00000000000000000 0.00000000000000000 1.00000000000000000 
1 0.00000000000000000 8.02920367320510486 1.00000000000000000 0.00000000000000000 
Curves 76
2 0.00000000000000000 -17.00000000000000000 2.50000000000000000 0.00000000000000000 1.00000000000000000 -0.00000000000000024 0.00000000000000000 0.00000000000000024 1.00000000000000000 1.00000000000000000 0.00000000000000000 0.00000000000000000 0.74374999999999991
7 0 0  6 22 5  0.32701025444131365 -17.50877732177042034 1.75993116073427602  0.34612939094868583 -17.50262120984107028 1.77145354381713460  0.36484188361903680 -17.49609627228248598 1.78366625713433691  0.38312824377046639 -17.48922533895703424 1.79652657007555705  0.40097134195337364 -17.48202990548281122 1.80999424933297082  0.41835640795045670 -17.47453013323362825 1.82403155890125834  0.44733862425831622 -17.46119050490317903 1.84899931607824408  0.45916661344159865 -17.45549083254759282 1.85966738207209947  0.47075034850416975 -17.44965261796271960 1.87059475729510738  0.48208540289122798 -17.44368230585260804 1.88176937920686216  0.49316757331556144 -17.43758599993487834 1.89317982349061564  0.53576875232980470 -17.41312186058175726 1.93896930695909742  0.56532904073871360 -17.39383973964877583 1.97505961632799742  0.59257713068337925 -17.37366642113460813 2.01281797852810174  0.61741427437557805 -17.35272785803425677 2.05200864757630796  0.63974287221671566 -17.33113786553894897 2.09241859579393941  0.70302651658658433 -17.26013056121734479 2.22532283331663638  0.73389744602176776 -17.20860589904526350 2.32176144628777736  0.75105354248653478 -17.15559789068647234 2.42097643551781605  0.75348269414013658 -17.10226065687327690 2.52080763540968489  0.74065095599723052 -17.04992375912734204 2.61876650817188850  0.71283344774930013 -17.00000000000000000 2.71220871393476148 
 0.00000000000000000 7 0.11860179520963798 5 0.20321723508551565 5 0.45159167598939814 5 1.00000000000000000 7
7 0 0  4 5 2  0.74329184080757238 -17.10050138406163356 2.52410173626413892  0.74352914322540786 -17.07537550704160267 2.51833922273639788  0.74367907258138832 -17.05024741482985107 2.51240255754611352  0.74374999990397317 -17.02512099992582151 2.50629003925810334  0.74374999999999980 -17.00000000000000000 2.49999998928559775 
 0.00000000000000000 5 1.00000000000000000 5
7 0 0  6 32 7  0.74374999999999991 -17.00000000000000000 2.50000000002326317  0.74375000637770816 -17.00581033098605488 2.47679477026092121  0.74288117849322299 -17.01158924174580278 2.45357773816447411  0.74114418218332656 -17.01732609939175234 2.43038832057372778  0.73854191441272354 -17.02301069837816883 2.40726579048420586  0.73507950327404192 -17.02863326050102799 2.38424927704715417  0.71299221085400344 -17.05704690207452856 2.26718162921470956  0.68075368736466735 -17.07870023715575414 2.17543742520111971  0.63456030318317658 -17.09849048215374978 2.08887915269061786  0.57555852496413040 -17.11590385883802412 2.01013529006614622  0.50546215880866852 -17.13063110806026401 1.94164892164554237  0.36495181685044953 -17.15175093745573776 1.84139532493184244  0.29795666602440241 -17.15926423703389148 1.80486326736207814  0.22669540120870102 -17.16493701377619985 1.77670430631580434  0.15247133576057947 -17.16873729946771121 1.75763031096143041  0.07673647656807325 -17.17064782151502556 1.74804271054857518  -0.07474355870091332 -17.17068939217375600 1.74783408005246521  -0.15051093742795507 -17.16882012695075588 1.75721462703351450  -0.22479312928995843 -17.16506054241112267 1.77608825180889096  -0.29613627092119738 -17.15942774665034420 1.80405823918546382  -0.36323430876708684 -17.15195322939126754 1.84041619347910035  -0.50465491744429980 -17.13082290651992423 1.94076227941488311  -0.57542883420593982 -17.11599892375395271 2.00972335421890858  -0.63493390847692799 -17.09844274388468932 2.08912485154080052  -0.68141319730404215 -17.07847041162488111 2.17646263627059033  -0.71369534498654330 -17.05660980156632078 2.26904219442347710  -0.73541460744578024 -17.02808351562041267 2.38649914820132070  -0.73874339253160048 -17.02256612079021991 2.40907380802133275  -0.74124504451216067 -17.01698964286685012 2.43174817392573095  -0.74291481184557995 -17.01136331420177328 2.45448535992959149  -0.74375000570928318 -17.00569676033597588 2.47724834993502530  -0.74374999999999991 -17.00000000000000000 2.49999999773117887 
 0.00000000000000000 7 0.05993574825382486 5 0.30678064613353551 5 0.49957579669158236 5 0.69238728792364679 5 0.94123570655507316 5 1.00000000000000000 7
7 0 0  4 5 2  -0.74329184080757238 -17.10050138406163356 2.52410173626413936  -0.74352914320750707 -17.07537550893695766 2.51833922317109060  -0.74367907256375454 -17.05024741199936855 2.51240257551042756  -0.74374999988845392 -17.02512101564441238 2.50629001000979246  -0.74374999999999980 -17.00000000000000000 2.50000001071499867 
 0.00000000000000000 5 1.00000000000000000 5
7 0 0  6 22 5  -0.71283344774930013 -17.00000000000000000 2.71220871393476148  -0.74052208808796016 -17.04969248138656468 2.61919939028292958  -0.75336366105167929 -17.10177608785586045 2.52171460232530409  -0.75108626884716934 -17.15485728111328356 2.42236263305857680  -0.73421318472971986 -17.20762435096229481 2.32359860798269713  -0.70373819325358689 -17.25893746785896354 2.22755594390440459  -0.64072610196815272 -17.33020947542623347 2.09415626181622816  -0.61807546029698701 -17.35221423473405622 2.05296999533818703  -0.59282197235325118 -17.37354644824952032 2.01304253155075852  -0.56506868039071378 -17.39408617042905192 1.97459837230151880  -0.53491987755607262 -17.41370042548517105 1.93788640812100943  -0.49162341130202541 -17.43843936364727654 1.89158258424023762  -0.48051286431465517 -17.44452049065239052 1.88020055029859079  -0.46914986968136280 -17.45047508834929317 1.86905534102438642  -0.45753864263703575 -17.45629703184646431 1.85815842036552992  -0.44568362694833480 -17.46197985383559725 1.84752189317077997  -0.41691653921313959 -17.47514989544765029 1.82287155113463406  -0.39978941117917072 -17.48250570396821502 1.80910369820557437  -0.38221999472325968 -17.48956619518139988 1.79588859012353885  -0.36422240045705978 -17.49631214788282207 1.78326220318049700  -0.34581296569240588 -17.50272309463561626 1.77126284623941954  -0.32701025444131432 -17.50877732177042034 1.75993116073427602 
 0.00000000000000000 7 0.54586924783543000 5 0.79875437420864492 5 0.88336117181425688 5 1.00000000000000000 7
2 0.00000000000000000 -17.00000000000000000 2.50000000000000000 0.00000000000000000 1.00000000000000000 -0.00000000000000024 0.00000000000000000 0.00000000000000024 1.00000000000000000 1.00000000000000000 0.00000000000000000 0.00000000000000000 0.74374999999999991
2 -0.00000000000000018 -17.00000000000000000 0.00000000000000000 1.00000000000000000 0.00000000000000000 -0.00000000000000000 0.00000000000000000 0.00000000000000000 1.00000000000000000 0.00000000000000000 -1.00000000000000000 0.00000000000000000 3.24374999999999991
2 0.00000000000000000 -17.00000000000000000 -2.50000000000000000 0.00000000000000000 1.00000000000000000 0.00000000000000000 0.00000000000000000 0.00000000000000000 1.00000000000000000 1.00000000000000000 0.00000000000000000 0.00000000000000000 0.74374999999999991
7 0 0  6 22 5  -0.32701025444131376 -17.50877732177042034 -1.75993116073427602  -0.34612939094837120 -17.50262120984117331 -1.77145354381694498  -0.36484188361841646 -17.49609627228270270 -1.78366625713393390  -0.38312824376955601 -17.48922533895737530 -1.79652657007491889  -0.40097134195219164 -17.48202990548329083 -1.80999424933207864  -0.41835640794902013 -17.47453013323424997 -1.82403155890009439  -0.44733862425665949 -17.46119050490397484 -1.84899931607675727  -0.45916661343996940 -17.45549083254840284 -1.85966738207058402  -0.47075034850256731 -17.44965261796354383 -1.87059475729356306  -0.48208540288965024 -17.44368230585345003 -1.88176937920528653  -0.49316757331400796 -17.43758599993573810 -1.89317982348900715  -0.53576875232837162 -17.41312186058267031 -1.93896930695738678  -0.56532904073735069 -17.39383973964974572 -1.97505961632618310  -0.59257713068211848 -17.37366642113559934 -2.01281797852624278  -0.61741427437442298 -17.35272785803527285 -2.05200864757440637  -0.63974287221564197 -17.33113786554001123 -2.09241859579194678  -0.70302651658606219 -17.26013056121824363 -2.22532283331495595  -0.73389744602142160 -17.20860589904618365 -2.32176144628605874  -0.75105354248657241 -17.15559789068690577 -2.42097643551701092  -0.75348269414022984 -17.10226065687376007 -2.52080763540878161  -0.74065095599731745 -17.04992375912749836 -2.61876650817159584  -0.71283344774930013 -17.00000000000000000 -2.71220871393476148 
 0.00000000000000000 7 0.11860179520762713 5 0.20321723508344719 5 0.45159167598719446 5 1.00000000000000000 7
7 0 0  4 5 2  -0.74329184080757238 -17.10050138406163001 -2.52410173626414114  -0.74352914322540842 -17.07537550704154583 -2.51833922273638855  -0.74367907258138899 -17.05024741482992923 -2.51240255754561659  -0.74374999990397361 -17.02512099992538808 -2.50629003925890137  -0.74374999999999980 -17.00000000000000000 -2.49999998928499823 
 0.00000000000000000 5 1.00000000000000000 5
7 0 0  6 17 4  -0.74374999999999991 -17.00000000000000000 -2.50000000013985568  -0.74375000604004271 -17.00574388823944716 -2.47706012905977380  -0.74290093565379378 -17.01145707002464746 -2.45410872561004290  -0.74120343125881816 -17.01712927405217712 -2.43118386768628758  -0.73866026665616780 -17.02275063646898090 -2.40832349728968564  -0.73527634703038436 -17.02831170087237922 -2.38556542052697429  -0.71334516148296501 -17.05686793822389191 -2.26795408887840333  -0.68092412807114289 -17.07871107439425984 -2.17542173716937182  -0.63431425855534762 -17.09866160402718194 -2.08815226819159605  -0.57469041786046338 -17.11619276537980738 -2.00883902805512227  -0.50381301851660965 -17.13098961928791297 -1.93998437625750153  -0.36253110386104936 -17.15202631732179483 -1.84005831863460045  -0.29571796565668002 -17.15945120440609273 -1.80393846168331828  -0.22470675894696834 -17.16505160641142425 -1.77613108329685665  -0.15078553758089230 -17.16879641420482372 -1.75733366558370019  -0.07538733980025014 -17.17066874313299252 -1.74793771130936060  -0.00000000000000011 -17.17066874313299252 -1.74793771130936060 
 0.00000000000000000 7 0.11850083129944783 5 0.61618936212863851 5 1.00000000000000000 7
7 0 0  6 17 4  -0.00000000000000009 -17.17066874313299252 -1.74793771130936060  0.07532431203435343 -17.17066874313299252 -1.74793771130936060  0.15065948621776382 -17.16879954411994547 -1.75731796162445253  0.22452138018278014 -17.16506099175504829 -1.77608396501725041  0.29548052161895955 -17.15946992428326823 -1.80384551994826459  0.36225183645605680 -17.15205733435360713 -1.83990742268295082  0.50353339305582623 -17.13104490625556409 -1.93972636144694954  0.57444578018801551 -17.11625691448749720 -2.00854633943208860  0.63410946311317395 -17.09873386452642663 -2.08783112650296010  0.68076283056581999 -17.07879033815726899 -2.17507887907615771  0.71322982769323950 -17.05695274569188413 -2.26759655948998251  0.73523077129923953 -17.02838649477999056 -2.38525932360265935  0.73863286471179990 -17.02281112179187161 -2.40807751562016348  0.74118971351278307 -17.01717504921842661 -2.43099885922181214  0.74289636134308423 -17.01148780767598723 -2.45398524333624835  0.74375000611255437 -17.00575933975099829 -2.47699841908720320  0.74374999999999991 -17.00000000000000000 -2.49999999979349008 
 0.00000000000000000 7 0.38348982825703970 5 0.88118039994099928 5 1.00000000000000000 7
7 0 0  4 5 2  0.74329184080757238 -17.10050138406163356 -2.52410173626413936  0.74352914320750763 -17.07537550893690437 -2.51833922317107772  0.74367907256375509 -17.05024741199944671 -2.51240257550992485  0.74374999988845447 -17.02512101564396829 -2.50629001001061269  0.74374999999999980 -17.00000000000000000 -2.50000001071438360 
 0.00000000000000000 5 1.00000000000000000 5
7 0 0  6 22 5  0.71283344774930024 -17.00000000000000000 -2.71220871393476148  0.74052208808796494 -17.04969248138657179 -2.61919939028291404  0.75336366105169639 -17.10177608785585690 -2.52171460232530942  0.75108626884714280 -17.15485728111329422 -2.42236263305856214  0.73421318472972052 -17.20762435096232323 -2.32359860798263895  0.70373819325358566 -17.25893746785896710 -2.22755594390439216  0.64072610196813207 -17.33020947542625478 -2.09415626181619041  0.61807546029696647 -17.35221423473407754 -2.05296999533814706  0.59282197235322387 -17.37354644824953809 -2.01304253155072077  0.56506868039068092 -17.39408617042906968 -1.97459837230148239  0.53491987755604165 -17.41370042548519237 -1.93788640812096924  0.49162341130198989 -17.43843936364729785 -1.89158258424019787  0.48051286431461820 -17.44452049065241184 -1.88020055029855326  0.46914986968132472 -17.45047508834931449 -1.86905534102435089  0.45753864263699717 -17.45629703184648562 -1.85815842036549528  0.44568362694829627 -17.46197985383561502 -1.84752189317074578  0.41691653921310540 -17.47514989544766451 -1.82287155113460653  0.39978941117914335 -17.48250570396822923 -1.80910369820555239  0.38221999472323898 -17.48956619518141054 -1.79588859012352220  0.36422240045704513 -17.49631214788282918 -1.78326220318048678  0.34581296569239722 -17.50272309463561982 -1.77126284623941466  0.32701025444131343 -17.50877732177042034 -1.75993116073427602 
 0.00000000000000000 7 0.54586924783552304 5 0.79875437420873219 5 0.88336117181432638 5 1.00000000000000000 7
2 0.00000000000000000 -17.00000000000000000 -2.50000000000000000 0.00000000000000000 1.00000000000000000 0.00000000000000000 0.00000000000000000 0.00000000000000000 1.00000000000000000 1.00000000000000000 0.00000000000000000 0.00000000000000000 0.74374999999999991
1 -4.24375000000000036 -17.00000000000000000 2.71220871393476726 -1.00000000000000000 0.00000000000000000 0.00000000000000000 
2 0.00000000000000000 -17.08820081317598039 2.54712341832990941 0.00000000000000000 0.88200813175981330 -0.47123418329909383 0.00000000000000000 0.47123418329909383 0.88200813175981330 1.00000000000000000 0.00000000000000000 0.00000000000000000 0.74374999999999991
2 0.00000000000000000 -17.08820081317598039 2.54712341832990941 0.00000000000000000 0.88200813175981330 -0.47123418329909383 0.00000000000000000 0.47123418329909383 0.88200813175981330 1.00000000000000000 0.00000000000000000 0.00000000000000000 0.74374999999999991
1 -0.00000000000000018 -16.73772038934728101 3.20311696632627063 0.00000000000000000 0.88200813175981330 -0.47123418329909383 
3 0.00000000000000000 -13.89999999999999858 0.84375000000000000 0.00000000000000000 0.97005364072297917 -0.24289078640428788 0.00000000000000000 -0.24289078640428788 -0.97005364072297917 -1.00000000000000000 0.00000000000000000 0.00000000000000000 0.76671017846568212 0.74374999999999991
3 0.00000000000000000 -13.89999999999999858 0.84375000000000000 0.00000000000000000 -0.24289078640428771 -0.97005364072297917 0.00000000000000000 0.97005364072297917 -0.24289078640428771 1.00000000000000000 0.00000000000000000 0.00000000000000000 3.06207580374020338 0.74374999999999991
3 0.00000000000000000 -14.00000000000000000 0.89717741935483919 0.00000000000000000 1.00000000000000000 0.00000000000000000 0.00000000000000000 0.00000000000000000 -1.00000000000000000 -1.00000000000000000 0.00000000000000000 0.00000000000000000 0.84324619379193710 0.74374999999999991
2 0.00000000000000000 -13.81179918682401819 0.79662658167009037 0.00000000000000000 0.88200813175981330 -0.47123418329909383 0.00000000000000000 0.47123418329909383 0.88200813175981330 1.00000000000000000 0.00000000000000000 0.00000000000000000 0.74374999999999991
3 0.00000000000000000 -14.00000000000000000 0.89717741935483919 0.00000000000000000 1.00000000000000000 0.00000000000000000 0.00000000000000000 0.00000000000000000 -1.00000000000000000 -1.00000000000000000 0.00000000000000000 0.00000000000000000 0.84324619379193710 0.74374999999999991
3 0.00000000000000000 -13.89999999999999858 0.84375000000000000 0.00000000000000000 -0.24289078640428771 -0.97005364072297917 0.00000000000000000 0.97005364072297917 -0.24289078640428771 1.00000000000000000 0.00000000000000000 0.00000000000000000 3.06207580374020338 0.74374999999999991
3 0.00000000000000000 -13.89999999999999858 0.84375000000000000 0.00000000000000000 0.97005364072297917 -0.24289078640428788 0.00000000000000000 -0.24289078640428788 -0.97005364072297917 -1.00000000000000000 0.00000000000000000 0.00000000000000000 0.76671017846568212 0.74374999999999991
1 -4.24375000000000036 -17.00000000000000000 -2.71220871393476148 1.00000000000000000 0.00000000000000000 0.00000000000000000 
2 0.00000000000000000 -17.08820081317598039 -2.54712341832990941 -0.00000000000000000 0.88200813175981330 0.47123418329909383 0.00000000000000000 -0.47123418329909383 0.88200813175981330 1.00000000000000000 0.00000000000000000 0.00000000000000000 0.74374999999999991
1 -0.00000000000000018 -17.43868123700467976 -1.89112987033354818 -0.00000000000000000 0.88200813175981330 0.47123418329909383 
2 0.00000000000000000 -13.81179918682401819 -0.79662658167009037 -0.00000000000000000 0.88200813175981330 0.47123418329909383 0.00000000000000000 -0.47123418329909383 0.88200813175981330 1.00000000000000000 0.00000000000000000 0.00000000000000000 0.74374999999999991
3 0.00000000000000000 -14.00000000000000000 -0.89717741935483919 0.00000000000000000 1.00000000000000000 0.00000000000000000 0.00000000000000000 0.00000000000000000 1.00000000000000000 1.00000000000000000 0.00000000000000000 0.00000000000000000 0.84324619379193710 0.74374999999999991
3 0.00000000000000000 -13.89999999999999858 -0.84375000000000000 0.00000000000000000 -0.24289078640428771 0.97005364072297917 0.00000000000000000 0.97005364072297917 0.24289078640428771 -1.00000000000000000 0.00000000000000000 0.00000000000000000 3.06207580374020338 0.74374999999999991
3 0.00000000000000000 -13.89999999999999858 -0.84375000000000000 -0.00000000000000000 0.97005364072297917 0.24289078640428788 0.00000000000000000 -0.24289078640428788 0.97005364072297917 1.00000000000000000 0.00000000000000000 0.00000000000000000 0.76671017846568212 0.74374999999999991
3 0.00000000000000000 -13.89999999999999858 -0.84375000000000000 0.00000000000000000 -0.24289078640428771 0.97005364072297917 0.00000000000000000 0.97005364072297917 0.24289078640428771 -1.00000000000000000 0.00000000000000000 0.00000000000000000 3.06207580374020338 0.74374999999999991
3 0.00000000000000000 -14.00000000000000000 -0.89717741935483919 0.00000000000000000 1.00000000000000000 0.00000000000000000 0.00000000000000000 0.00000000000000000 1.00000000000000000 1.00000000000000000 0.00000000000000000 0.00000000000000000 0.84324619379193710 0.74374999999999991
2 0.00000000000000000 -13.81179918682401819 -0.79662658167009037 -0.00000000000000000 0.88200813175981330 0.47123418329909383 0.00000000000000000 -0.47123418329909383 0.88200813175981330 1.00000000000000000 0.00000000000000000 0.00000000000000000 0.74374999999999991
1 -0.00000000000000018 -14.00000000000000000 1.58749999999999991 0.00000000000000000 1.00000000000000000 0.00000000000000000 
3 0.00000000000000000 -13.89999999999999858 0.84375000000000000 0.00000000000000000 -0.24289078640428771 -0.97005364072297917 0.00000000000000000 0.97005364072297917 -0.24289078640428771 1.00000000000000000 0.00000000000000000 0.00000000000000000 3.06207580374020338 0.74374999999999991
3 0.00000000000000000 -13.78662236049856205 0.84375000000000000 0.00000000000000000 0.88200813175981330 -0.47123418329909383 0.00000000000000000 0.47123418329909383 0.88200813175981330 1.00000000000000000 0.00000000000000000 0.00000000000000000 0.84324619379193710 0.74374999999999991
2 0.00000000000000000 -14.00000000000000000 0.84375000000000000 0.00000000000000000 1.00000000000000000 0.00000000000000000 0.00000000000000000 0.00000000000000000 1.00000000000000000 1.00000000000000000 0.00000000000000000 0.00000000000000000 0.74374999999999991
3 0.00000000000000000 -13.78662236049856205 0.84375000000000000 0.00000000000000000 0.88200813175981330 -0.47123418329909383 0.00000000000000000 0.47123418329909383 0.88200813175981330 1.00000000000000000 0.00000000000000000 0.00000000000000000 0.84324619379193710 0.74374999999999991
3 0.00000000000000000 -13.89999999999999858 0.84375000000000000 0.00000000000000000 -0.24289078640428771 -0.97005364072297917 0.00000000000000000 0.97005364072297917 -0.24289078640428771 1.00000000000000000 0.00000000000000000 0.00000000000000000 3.06207580374020338 0.74374999999999991
2 0.00000000000000000 14.50000000000000000 0.84375000000000000 0.00000000000000000 1.00000000000000000 0.00000000000000000 0.00000000000000000 0.00000000000000000 1.00000000000000000 1.00000000000000000 0.00000000000000000 0.00000000000000000 0.74374999999999991
3 0.00000000000000000 -13.89999999999999858 0.84375000000000000 0.00000000000000000 0.97005364072297917 -0.24289078640428788 0.00000000000000000 -0.24289078640428788 -0.97005364072297917 -1.00000000000000000 0.00000000000000000 0.00000000000000000 0.76671017846568212 0.74374999999999991
2 0.00000000000000000 -14.00000000000000000 0.84375000000000000 0.00000000000000000 1.00000000000000000 0.00000000000000000 0.00000000000000000 0.00000000000000000 1.00000000000000000 1.00000000000000000 0.00000000000000000 0.00000000000000000 0.74374999999999991
1 0.00000000000000000 -14.00000000000000000 0.44437147474447897 1.00000000000000000 0.00000000000000000 0.00000000000000000 
2 0.00000000000000000 -14.00000000000000000 0.84375000000000000 0.00000000000000000 1.00000000000000000 0.00000000000000000 0.00000000000000000 0.00000000000000000 1.00000000000000000 1.00000000000000000 0.00000000000000000 0.00000000000000000 0.74374999999999991
3 0.00000000000000000 -13.89999999999999858 0.84375000000000000 0.00000000000000000 0.97005364072297917 -0.24289078640428788 0.00000000000000000 -0.24289078640428788 -0.97005364072297917 -1.00000000000000000 0.00000000000000000 0.00000000000000000 0.76671017846568212 0.74374999999999991
1 0.00000000000000000 -14.00000000000000000 -0.44437147474447897 -1.00000000000000000 0.00000000000000000 0.00000000000000000 
2 0.00000000000000000 -14.00000000000000000 -0.84375000000000000 0.00000000000000000 1.00000000000000000 0.00000000000000000 0.00000000000000000 0.00000000000000000 1.00000000000000000 1.00000000000000000 0.00000000000000000 0.00000000000000000 0.74374999999999991
3 0.00000000000000000 -13.89999999999999858 -0.84375000000000000 -0.00000000000000000 0.97005364072297917 0.24289078640428788 0.00000000000000000 -0.24289078640428788 0.97005364072297917 1.00000000000000000 0.00000000000000000 0.00000000000000000 0.76671017846568212 0.74374999999999991
2 0.00000000000000000 -14.00000000000000000 -0.84375000000000000 0.00000000000000000 1.00000000000000000 0.00000000000000000 0.00000000000000000 0.00000000000000000 1.00000000000000000 1.00000000000000000 0.00000000000000000 0.00000000000000000 0.74374999999999991
3 0.00000000000000000 -13.78662236049856205 -0.84375000000000000 0.00000000000000000 0.88200813175981330 0.47123418329909383 0.00000000000000000 0.47123418329909383 -0.88200813175981330 -1.00000000000000000 0.00000000000000000 0.00000000000000000 0.84324619379193710 0.74374999999999991
3 0.00000000000000000 -13.89999999999999858 -0.84375000000000000 0.00000000000000000 -0.24289078640428771 0.97005364072297917 0.00000000000000000 0.97005364072297917 0.24289078640428771 -1.00000000000000000 0.00000000000000000 0.00000000000000000 3.06207580374020338 0.74374999999999991
3 0.00000000000000000 -13.89999999999999858 -0.84375000000000000 0.00000000000000000 -0.24289078640428771 0.97005364072297917 0.00000000000000000 0.97005364072297917 0.24289078640428771 -1.00000000000000000 0.00000000000000000 0.00000000000000000 3.06207580374020338 0.74374999999999991
3 0.00000000000000000 -13.78662236049856205 -0.84375000000000000 0.00000000000000000 0.88200813175981330 0.47123418329909383 0.00000000000000000 0.47123418329909383 -0.88200813175981330 -1.00000000000000000 0.00000000000000000 0.00000000000000000 0.84324619379193710 0.74374999999999991
2 0.00000000000000000 -14.00000000000000000 -0.84375000000000000 0.00000000000000000 1.00000000000000000 0.00000000000000000 0.00000000000000000 0.00000000000000000 1.00000000000000000 1.00000000000000000 0.00000000000000000 0.00000000000000000 0.74374999999999991
1 -0.00000000000000018 -14.00000000000000000 -0.10000000000000009 0.00000000000000000 1.00000000000000000 0.00000000000000000 
2 0.00000000000000000 14.50000000000000000 -0.84375000000000000 0.00000000000000000 1.00000000000000000 0.00000000000000000 0.00000000000000000 0.00000000000000000 1.00000000000000000 1.00000000000000000 0.00000000000000000 0.00000000000000000 0.74374999999999991
2 0.00000000000000000 14.50000000000000000 -0.84375000000000000 0.00000000000000000 1.00000000000000000 0.00000000000000000 0.00000000000000000 0.00000000000000000 1.00000000000000000 1.00000000000000000 0.00000000000000000 0.00000000000000000 0.74374999999999991
2 0.00000000000000000 -14.00000000000000000 -0.84375000000000000 0.00000000000000000 1.00000000000000000 0.00000000000000000 0.00000000000000000 0.00000000000000000 1.00000000000000000 1.00000000000000000 0.00000000000000000 0.00000000000000000 0.74374999999999991
3 0.00000000000000000 -13.89999999999999858 -0.84375000000000000 -0.00000000000000000 0.97005364072297917 0.24289078640428788 0.00000000000000000 -0.24289078640428788 0.97005364072297917 1.00000000000000000 0.00000000000000000 0.00000000000000000 0.76671017846568212 0.74374999999999991
2 0.00000000000000000 -13.81179918682401819 0.79662658167009037 0.00000000000000000 0.88200813175981330 -0.47123418329909383 0.00000000000000000 0.47123418329909383 0.88200813175981330 1.00000000000000000 0.00000000000000000 0.00000000000000000 0.74374999999999991
2 0.00000000000000000 -13.81179918682401819 0.79662658167009037 0.00000000000000000 0.88200813175981330 -0.47123418329909383 0.00000000000000000 0.47123418329909383 0.88200813175981330 1.00000000000000000 0.00000000000000000 0.00000000000000000 0.74374999999999991
2 0.00000000000000000 0.00000000000000000 0.00000000000000009 0.00000000000000000 0.00000000000000000 1.00000000000000000 1.00000000000000000 0.00000000000000000 0.00000000000000000 0.00000000000000000 1.00000000000000000 0.00000000000000000 1.25625000000000009
2 1.41421356237309515 1.41421356237309492 0.00000000000000000 0.70710678118654746 -0.70710678118654757 0.00000000000000000 0.70710678118654757 0.70710678118654746 0.00000000000000000 0.00000000000000000 0.00000000000000000 1.00000000000000000 0.74374999999999991
2 0.00000000000000000 -13.81179918682401819 -0.79662658167009037 -0.00000000000000000 0.88200813175981330 0.47123418329909383 0.00000000000000000 -0.47123418329909383 0.88200813175981330 1.00000000000000000 0.00000000000000000 0.00000000000000000 0.74374999999999991
2 0.00000000000000000 -13.81179918682401819 -0.79662658167009037 -0.00000000000000000 0.88200813175981330 0.47123418329909383 0.00000000000000000 -0.47123418329909383 0.88200813175981330 1.00000000000000000 0.00000000000000000 0.00000000000000000 0.74374999999999991
2 0.00000000000000000 0.00000000000000000 0.00000000000000009 0.00000000000000000 0.00000000000000000 1.00000000000000000 1.00000000000000000 0.00000000000000000 0.00000000000000000 0.00000000000000000 1.00000000000000000 0.00000000000000000 1.25625000000000009
2 1.41421356237309515 1.41421356237309492 0.00000000000000000 0.70710678118654746 -0.70710678118654757 0.00000000000000000 0.70710678118654757 0.70710678118654746 0.00000000000000000 0.00000000000000000 0.00000000000000000 1.00000000000000000 0.74374999999999991
2 1.41421356237309515 1.41421356237309492 0.00000000000000000 0.70710678118654746 -0.70710678118654757 0.00000000000000000 0.70710678118654757 0.70710678118654746 0.00000000000000000 0.00000000000000000 0.00000000000000000 1.00000000000000000 0.74374999999999991
2 0.00000000000000000 21.59171792722436223 7.10704080247817060 -0.00000000000000000 0.70710678118654757 0.70710678118654746 0.00000000000000000 -0.70710678118654746 0.70710678118654757 1.00000000000000000 0.00000000000000000 0.00000000000000000 0.74374999999999991
1 -0.00000000000000018 15.38830289386560146 1.95544710613439943 0.00000000000000000 0.70710678118654757 0.70710678118654746 
1 -0.00000000000000018 16.44012423088059194 -0.90362576911941017 0.00000000000000000 0.70710678118654757 -0.70710678118654746 
2 0.00000000000000000 21.59171792722436223 -7.10704080247817060 0.00000000000000000 0.70710678118654757 -0.70710678118654746 0.00000000000000000 0.70710678118654746 0.70710678118654757 1.00000000000000000 0.00000000000000000 0.00000000000000000 0.74374999999999991
Polygon3D 0
PolygonOnTriangulations 0
Surfaces 35
5 0.00000000000000000 -17.00000000000000000 0.00000000000000000 1.00000000000000000 0.00000000000000000 0.00000000000000000 0.00000000000000000 0.00000000000000000 1.00000000000000000 0.00000000000000000 -1.00000000000000000 0.00000000000000000 2.50000000000000000 0.74374999999999991
2 0.00000000000000000 -17.08820081317598039 2.54712341832990941 0.00000000000000000 0.88200813175981330 -0.47123418329909383 0.00000000000000000 0.47123418329909383 0.88200813175981330 1.00000000000000000 0.00000000000000000 0.00000000000000000 0.74374999999999991
2 0.00000000000000000 -17.08820081317598039 -2.54712341832990941 0.00000000000000000 0.88200813175981330 0.47123418329909383 0.00000000000000000 -0.47123418329909383 0.88200813175981330 1.00000000000000000 0.00000000000000000 0.00000000000000000 0.74374999999999991
1 -8.48750000000000071 -17.00000000000000000 -8.48750000000000071 0.00000000000000000 1.00000000000000000 0.00000000000000000 0.00000000000000000 0.00000000000000000 1.00000000000000000 1.00000000000000000 0.00000000000000000 0.00000000000000000 
1 0.00000000000000000 -17.08820081317598039 2.54712341832990941 0.00000000000000000 0.88200813175981330 -0.47123418329909383 0.00000000000000000 0.47123418329909383 0.88200813175981330 1.00000000000000000 0.00000000000000000 0.00000000000000000 
2 0.00000000000000000 -14.00000000000000000 0.84375000000000000 0.00000000000000000 1.00000000000000000 0.00000000000000000 0.00000000000000000 0.00000000000000000 1.00000000000000000 1.00000000000000000 0.00000000000000000 0.00000000000000000 0.74374999999999991
2 0.00000000000000000 -14.00000000000000000 0.84375000000000000 0.00000000000000000 1.00000000000000000 0.00000000000000000 0.00000000000000000 0.00000000000000000 1.00000000000000000 1.00000000000000000 0.00000000000000000 0.00000000000000000 0.74374999999999991
2 0.00000000000000000 -14.00000000000000000 0.84375000000000000 0.00000000000000000 1.00000000000000000 0.00000000000000000 0.00000000000000000 0.00000000000000000 1.00000000000000000 1.00000000000000000 0.00000000000000000 0.00000000000000000 0.74374999999999991
1 -8.48750000000000071 -17.00000000000000000 -8.48750000000000071 0.00000000000000000 1.00000000000000000 0.00000000000000000 0.00000000000000000 0.00000000000000000 1.00000000000000000 1.00000000000000000 0.00000000000000000 0.00000000000000000 
1 0.00000000000000000 -17.08820081317598039 -2.54712341832990941 0.00000000000000000 0.88200813175981330 0.47123418329909383 0.00000000000000000 -0.47123418329909383 0.88200813175981330 1.00000000000000000 0.00000000000000000 0.00000000000000000 
2 0.00000000000000000 -14.00000000000000000 -0.84375000000000000 0.00000000000000000 1.00000000000000000 0.00000000000000000 0.00000000000000000 0.00000000000000000 1.00000000000000000 1.00000000000000000 0.00000000000000000 0.00000000000000000 0.74374999999999991
2 0.00000000000000000 -14.00000000000000000 -0.84375000000000000 0.00000000000000000 1.00000000000000000 0.00000000000000000 0.00000000000000000 0.00000000000000000 1.00000000000000000 1.00000000000000000 0.00000000000000000 0.00000000000000000 0.74374999999999991
2 0.00000000000000000 -14.00000000000000000 -0.84375000000000000 0.00000000000000000 1.00000000000000000 0.00000000000000000 0.00000000000000000 0.00000000000000000 1.00000000000000000 1.00000000000000000 0.00000000000000000 0.00000000000000000 0.74374999999999991
2 0.00000000000000000 -17.08820081317598039 2.54712341832990941 0.00000000000000000 0.88200813175981330 -0.47123418329909383 0.00000000000000000 0.47123418329909383 0.88200813175981330 1.00000000000000000 0.00000000000000000 0.00000000000000000 0.74374999999999991
2 0.00000000000000000 -17.08820081317598039 2.54712341832990941 0.00000000000000000 0.88200813175981330 -0.47123418329909383 0.00000000000000000 0.47123418329909383 0.88200813175981330 1.00000000000000000 0.00000000000000000 0.00000000000000000 0.74374999999999991
5 0.00000000000000000 0.00000000000000000 0.00000000000000000 0.00000000000000000 0.00000000000000000 1.00000000000000000 1.00000000000000000 0.00000000000000000 0.00000000000000000 0.00000000000000000 1.00000000000000000 0.00000000000000000 2.00000000000000000 0.74374999999999991
1 0.00000000000000000 -14.00000000000000000 0.84375000000000000 0.00000000000000000 1.00000000000000000 0.00000000000000000 0.00000000000000000 0.00000000000000000 1.00000000000000000 1.00000000000000000 0.00000000000000000 0.00000000000000000 
1 0.00000000000000000 -13.81179918682401819 0.79662658167009037 0.00000000000000000 0.88200813175981330 -0.47123418329909383 0.00000000000000000 0.47123418329909383 0.88200813175981330 1.00000000000000000 0.00000000000000000 0.00000000000000000 
1 0.00000000000000000 -14.00000000000000000 0.84375000000000000 0.00000000000000000 1.00000000000000000 0.00000000000000000 0.00000000000000000 0.00000000000000000 1.00000000000000000 1.00000000000000000 0.00000000000000000 0.00000000000000000 
1 0.00000000000000000 -13.81179918682401819 -0.79662658167009037 0.00000000000000000 0.88200813175981330 0.47123418329909383 0.00000000000000000 -0.47123418329909383 0.88200813175981330 1.00000000000000000 0.00000000000000000 0.00000000000000000 
1 0.00000000000000000 -14.00000000000000000 -0.84375000000000000 0.00000000000000000 1.00000000000000000 0.00000000000000000 0.00000000000000000 0.00000000000000000 1.00000000000000000 1.00000000000000000 0.00000000000000000 0.00000000000000000 
2 0.00000000000000000 -17.08820081317598039 -2.54712341832990941 0.00000000000000000 0.88200813175981330 0.47123418329909383 0.00000000000000000 -0.47123418329909383 0.88200813175981330 1.00000000000000000 0.00000000000000000 0.00000000000000000 0.74374999999999991
2 0.00000000000000000 -17.08820081317598039 -2.54712341832990941 0.00000000000000000 0.88200813175981330 0.47123418329909383 0.00000000000000000 -0.47123418329909383 0.88200813175981330 1.00000000000000000 0.00000000000000000 0.00000000000000000 0.74374999999999991
5 0.00000000000000000 0.00000000000000000 0.00000000000000000 0.00000000000000000 0.00000000000000000 1.00000000000000000 1.00000000000000000 0.00000000000000000 0.00000000000000000 0.00000000000000000 1.00000000000000000 0.00000000000000000 2.00000000000000000 0.74374999999999991
1 0.00000000000000000 -14.00000000000000000 -0.84375000000000000 0.00000000000000000 1.00000000000000000 0.00000000000000000 0.00000000000000000 0.00000000000000000 1.00000000000000000 1.00000000000000000 0.00000000000000000 0.00000000000000000 
1 0.00000000000000000 -13.81179918682401819 0.79662658167009037 0.00000000000000000 0.88200813175981330 -0.47123418329909383 0.00000000000000000 0.47123418329909383 0.88200813175981330 1.00000000000000000 0.00000000000000000 0.00000000000000000 
1 0.00000000000000000 -14.00000000000000000 0.84375000000000000 0.00000000000000000 1.00000000000000000 0.00000000000000000 0.00000000000000000 0.00000000000000000 1.00000000000000000 1.00000000000000000 0.00000000000000000 0.00000000000000000 
1 0.00000000000000000 -13.81179918682401819 0.79662658167009037 0.00000000000000000 0.88200813175981330 -0.47123418329909383 0.00000000000000000 0.47123418329909383 0.88200813175981330 1.00000000000000000 0.00000000000000000 0.00000000000000000 
2 0.00000000000000000 15.91421356237309581 1.42953643762690485 0.00000000000000000 0.70710678118654757 0.70710678118654746 0.00000000000000000 -0.70710678118654746 0.70710678118654757 1.00000000000000000 0.00000000000000000 0.00000000000000000 0.74374999999999991
1 0.00000000000000000 -14.00000000000000000 -0.84375000000000000 0.00000000000000000 1.00000000000000000 0.00000000000000000 0.00000000000000000 0.00000000000000000 1.00000000000000000 1.00000000000000000 0.00000000000000000 0.00000000000000000 
1 0.00000000000000000 -13.81179918682401819 -0.79662658167009037 0.00000000000000000 0.88200813175981330 0.47123418329909383 0.00000000000000000 -0.47123418329909383 0.88200813175981330 1.00000000000000000 0.00000000000000000 0.00000000000000000 
1 0.00000000000000000 -13.81179918682401819 -0.79662658167009037 0.00000000000000000 0.88200813175981330 0.47123418329909383 0.00000000000000000 -0.47123418329909383 0.88200813175981330 1.00000000000000000 0.00000000000000000 0.00000000000000000 
2 0.00000000000000000 15.91421356237309581 -1.42953643762690485 0.00000000000000000 0.70710678118654757 -0.70710678118654746 0.00000000000000000 0.70710678118654746 0.70710678118654757 1.00000000000000000 0.00000000000000000 0.00000000000000000 0.74374999999999991
1 0.00000000000000000 21.59171792722436223 7.10704080247817060 0.00000000000000000 0.70710678118654757 0.70710678118654746 0.00000000000000000 -0.70710678118654746 0.70710678118654757 1.00000000000000000 0.00000000000000000 0.00000000000000000 
1 0.00000000000000000 21.59171792722436223 -7.10704080247817060 0.00000000000000000 0.70710678118654757 -0.70710678118654746 0.00000000000000000 0.70710678118654746 0.70710678118654757 1.00000000000000000 0.00000000000000000 0.00000000000000000 
Triangulations 0

TShapes 192
Ve
0.000000100000000
-0.000000000000000 -17.000000000000000 3.243750000000000
0 0

0101101
*
Ve
0.000001000000000
0.712833447749300 -17.000000000000000 2.712208713934762
0 0

0101101
*
Ed
 0.000000100000000 1 1 0
1  1 0 0.000000000000000 1.281453281537483
2  1 1 0 0.000000000000000 1.281453281537483
0

0101000
+192 3 -191 3 *
Ve
0.000001000001000
0.743291846531035 -17.100500778052279 2.524101597278422
0 0

0101101
*
Ed
 0.000001000000000 1 1 0
1  2 0 0.821277888901688 1.000000000000000
2  2 1 0 0.821277888901688 1.000000000000000
0

0101000
+189 3 -191 3 *
Ve
0.000000110714402
0.743750000000000 -17.000000000000000 2.500000000000000
0 0

0101101
*
Ed
 0.000000100000000 1 1 0
1  3 0 0.000006029733356 1.000000000000000
2  3 1 0 0.000006029733356 1.000000000000000
2  4 2 0 0.000006029733356 1.000000000000000
0

0101000
+189 3 -187 3 *
Ve
0.000000110714999
-0.743750000000000 -17.000000000000000 2.500000000000000
0 0

0101101
*
Ed
 0.000000100000000 1 1 0
1  4 0 0.000000000000000 1.000000000000000
2  5 1 0 0.000000000000000 1.000000000000000
2  6 2 0 0.000000000000000 1.000000000000000
0

0101000
+187 3 -185 3 *
Ve
0.000001000001000
-0.743291846531035 -17.100500778052279 2.524101597278422
0 0

0101101
*
Ed
 0.000000100000000 1 1 0
1  5 0 0.000006029733815 1.000000000000000
2  7 1 0 0.000006029733815 1.000000000000000
2  8 2 0 0.000006029733815 1.000000000000000
0

0101000
+183 3 -185 3 *
Ve
0.000001000000000
-0.712833447749300 -17.000000000000000 2.712208713934762
0 0

0101101
*
Ed
 0.000001000000000 1 1 0
1  6 0 0.000000000000000 0.178722084621862
2  9 1 0 0.000000000000000 0.178722084621862
0

0101000
+181 3 -183 3 *
Ed
 0.000000100000000 1 1 0
1  7 0 5.001732025642103 6.283185307179586
2  1 1 0 5.001732025642103 6.283185307179586
0

0101000
+181 3 -192 3 *
Ve
0.000000100000000
-0.000000000000000 -17.000000000000000 -3.243750000000000
0 0

0101101
*
Ed
 0.000000100000000 1 1 0
1  8 0 0.000000000000000 3.141592653589793
3  10 11CN 1 0 0.000000000000000 3.141592653589793
0

0101000
+192 3 -178 3 *
Ve
0.000001000000001
-0.712833447749300 -17.000000000000000 -2.712208713934762
0 0

0101101
*
Ed
 0.000000100000000 1 1 0
1  9 0 3.141592653589793 4.423045935127275
2  12 1 0 3.141592653589793 4.423045935127275
0

0101000
+178 3 -176 3 *
Ve
0.000001000001000
-0.743291846531035 -17.100500778052279 -2.524101597278422
0 0

0101101
*
Ed
 0.000001000000000 1 1 0
1  10 0 0.821277888901629 1.000000000000000
2  13 1 0 0.821277888901629 1.000000000000000
0

0101000
+174 3 -176 3 *
Ve
0.000000110715002
-0.743750000000000 -17.000000000000000 -2.500000000000000
0 0

0101101
*
Ed
 0.000000100000000 1 1 0
1  11 0 0.000006029733302 1.000000000000000
2  14 1 0 0.000006029733302 1.000000000000000
2  15 3 0 0.000006029733302 1.000000000000000
0

0101000
+174 3 -172 3 *
Ve
0.000000100000000
-0.000000000000000 -17.170668743132993 -1.747937711309360
0 0

0101101
*
Ed
 0.000000100000000 1 1 0
1  12 0 0.000000000000000 1.000000000000000
2  16 1 0 0.000000000000000 1.000000000000000
2  17 3 0 0.000000000000000 1.000000000000000
0

0101000
+172 3 -170 3 *
Ve
0.000000110714384
0.743750000000000 -17.000000000000000 -2.500000000000000
0 0

0101101
*
Ed
 0.000000100000000 1 1 0
1  13 0 0.000000000000000 1.000000000000000
2  18 1 0 0.000000000000000 1.000000000000000
2  19 3 0 0.000000000000000 1.000000000000000
0

0101000
+170 3 -168 3 *
Ve
0.000001000001000
0.743291846531035 -17.100500778052279 -2.524101597278422
0 0

0101101
*
Ed
 0.000000100000000 1 1 0
1  14 0 0.000006029733815 1.000000000000000
2  20 1 0 0.000006029733815 1.000000000000000
2  21 3 0 0.000006029733815 1.000000000000000
0

0101000
+166 3 -168 3 *
Ve
0.000001000000000
0.712833447749300 -17.000000000000000 -2.712208713934761
0 0

0101101
*
Ed
 0.000001000000000 1 1 0
1  15 0 0.000000000000000 0.178722084621883
2  22 1 0 0.000000000000000 0.178722084621883
0

0101000
+164 3 -166 3 *
Ed
 0.000000100000000 1 1 0
1  16 0 8.143324679231895 9.424777960769379
2  12 1 0 8.143324679231895 9.424777960769379
0

0101000
+164 3 -178 3 *
Wi

0101100
-190 0 +188 0 -186 0 -184 0 +182 0 +180 0 -179 0 -177 0 -175 0 +173 0 
-171 0 -169 0 -167 0 +165 0 +163 0 -162 0 +177 0 *
Fa
0  0.000000100000000 1 0

0101000
+161 0 *
Ed
 0.000000150000000 1 1 0
1  17 0 -4.956583447749301 -3.530916552250700
0

0101000
+191 3 -181 3 *
Wi

0101100
+179 0 +159 0 +190 0 *
Fa
0  0.000000100000000 4 0

0101000
+158 0 *
Ve
0.000000100000000
-0.000000000000000 -16.737720389347281 3.203116966326271
0 0

0101101
*
Ed
 0.000000100000000 1 1 0
1  18 0 4.677287187889990 6.283185307179586
2  23 2 0 4.677287187889990 6.283185307179586
0

0101000
+183 3 -156 3 *
Ed
 0.000000100000000 1 1 0
1  19 0 0.000000000000000 1.605898119289596
2  23 2 0 0.000000000000000 1.605898119289596
0

0101000
+156 3 -189 3 *
Wi

0101100
+155 0 +180 0 +159 0 +188 0 +154 0 *
Fa
0  0.000000100000000 5 0

0101000
+153 0 *
Ve
0.000000100000001
-0.000000000000000 -13.713773161808296 1.587499999999999
0 0

0101101
*
Ed
 0.000000100000000 1 1 0
1  20 0 0.000000000000000 3.428479986352847
3  24 25CN 2 0 0.000000000000000 3.428479986352847
0

0101000
+156 3 -151 3 *
Ve
0.000000100000000
0.743750000000000 -13.899999999999999 0.843750000000000
0 0

0101101
*
Ed
 0.000000100000000 1 1 0
1  21 0 3.141592653589793 4.712388980384690
2  26 2 0 3.141592653589793 4.712388980384690
2  27 6 0 3.141592653589793 4.712388980384690
0

0101000
+151 3 -149 3 *
Ve
0.000000128915990
0.743328403773116 -14.000000000000000 0.868788902613952
0 0

0101101
*
Ed
 0.000000100000000 1 1 0
1  22 0 1.570796326794897 1.604468440818331
2  28 2 0 1.570796326794897 1.604468440818331
2  29 7 0 1.570796326794897 1.604468440818331
0

0101000
+149 3 -147 3 *
Ve
0.000000150000088
0.627423984291844 -14.000000000000021 0.444371474744393
0 0

0101101
*
Ed
 0.000000128915986 1 1 0
1  23 0 4.746061094408198 5.279241519461334
2  30 2 0 4.746061094408198 5.279241519461334
0

0101000
+147 3 -145 3 *
Ve
0.000000150000088
-0.627423984291844 -14.000000000000021 0.444371474744394
0 0

0101101
*
Ed
 0.000000100000000 1 1 0
1  24 0 2.137648865871554 4.145536441308034
2  31 2 0 2.137648865871554 4.145536441308034
0

0101000
+145 3 -143 3 *
Ve
0.000000128916143
-0.743328403773116 -14.000000000000000 0.868788902613952
0 0

0101101
*
Ed
 0.000000128916139 1 1 0
1  25 0 1.003943787718252 1.537124212771388
2  32 2 0 1.003943787718252 1.537124212771388
0

0101000
+143 3 -141 3 *
Ve
0.000000100000000
-0.743750000000000 -13.899999999999999 0.843750000000000
0 0

0101101
*
Ed
 0.000000100000000 1 1 0
1  26 0 4.678716866361255 4.712388980384690
2  33 2 0 4.678716866361255 4.712388980384690
2  34 8 0 4.678716866361255 4.712388980384690
0

0101000
+141 3 -139 3 *
Ed
 0.000000100000000 1 1 0
1  27 0 1.570796326794897 3.141592653589793
2  35 2 0 1.570796326794897 3.141592653589793
2  36 6 0 1.570796326794897 3.141592653589793
0

0101000
+139 3 -151 3 *
Wi

0101100
+155 0 -182 0 +184 0 +186 0 +154 0 -150 0 -148 0 -146 0 -144 0 -142 0 
-140 0 -138 0 -137 0 +150 0 *
Fa
0  0.000000100000000 2 0

0101000
+136 0 *
Ed
 0.000000150000000 1 1 0
1  28 0 3.530916552250700 4.956583447749301
0

0101000
+176 3 -164 3 *
Wi

0101100
+162 0 +134 0 +175 0 *
Fa
0  0.000000100000000 9 0

0101000
+133 0 *
Ed
 0.000000100000000 1 1 0
1  29 0 1.535694534300197 4.747490772879390
2  37 3 0 1.535694534300197 4.747490772879390
0

0101000
+166 3 -174 3 *
Wi

0101100
+163 0 +134 0 +173 0 +131 0 *
Fa
0  0.000000100000000 10 0

0101000
+130 0 *
Ve
0.000000100000000
-0.000000000000000 -14.162279610652719 -0.140633033673729
0 0

0101101
*
Ed
 0.000000100000000 1 1 0
1  30 0 0.303866239120652 3.714706824544545
3  38 39CN 3 0 0.303866239120652 3.714706824544545
0

0101000
+170 3 -128 3 *
Ve
0.000000150000095
0.627423984291840 -14.000000000000025 -0.444371474744388
0 0

0101101
*
Ed
 0.000000100000000 1 1 0
1  31 0 0.000000000000000 1.003943787718230
2  40 3 0 0.000000000000000 1.003943787718230
0

0101000
+128 3 -126 3 *
Ve
0.000000128916143
0.743328403773116 -14.000000000000000 -0.868788902613952
0 0

0101101
*
Ed
 0.000000128916139 1 1 0
1  32 0 1.003943787718244 1.537124212771388
2  41 3 0 1.003943787718244 1.537124212771388
0

0101000
+126 3 -124 3 *
Ve
0.000000100000000
0.743750000000000 -13.899999999999999 -0.843750000000000
0 0

0101101
*
Ed
 0.000000100000000 1 1 0
1  33 0 4.678716866361255 4.712388980384690
2  42 3 0 4.678716866361255 4.712388980384690
2  43 11 0 4.678716866361255 4.712388980384690
0

0101000
+124 3 -122 3 *
Ve
0.000000100000000
-0.743750000000000 -13.899999999999999 -0.843750000000000
0 0

0101101
*
Ed
 0.000000100000000 1 1 0
1  34 0 1.570796326794897 4.712388980384690
2  44 3 0 1.570796326794897 4.712388980384690
2  45 12 0 1.570796326794897 4.712388980384690
0

0101000
+122 3 -120 3 *
Ve
0.000000128915990
-0.743328403773116 -14.000000000000000 -0.868788902613952
0 0

0101101
*
Ed
 0.000000100000000 1 1 0
1  35 0 1.570796326794897 1.604468440818331
2  46 3 0 1.570796326794897 1.604468440818331
2  47 13 0 1.570796326794897 1.604468440818331
0

0101000
+120 3 -118 3 *
Ve
0.000000150000094
-0.627423984291841 -14.000000000000025 -0.444371474744389
0 0

0101101
*
Ed
 0.000000128915987 1 1 0
1  36 0 4.746061094408198 5.279241519461341
2  48 3 0 4.746061094408198 5.279241519461341
0

0101000
+118 3 -116 3 *
Ed
 0.000000100000000 1 1 0
1  37 0 5.279241519461355 6.283185307179586
2  40 3 0 5.279241519461355 6.283185307179586
0

0101000
+116 3 -128 3 *
Wi

0101100
+169 0 +171 0 +131 0 -165 0 +167 0 -127 0 -125 0 -123 0 -121 0 -119 0 
-117 0 -115 0 -114 0 +127 0 *
Fa
0  0.000000100000000 3 0

0101000
+113 0 *
Ve
0.000000100000001
0.000000000000000 14.500000000000000 1.587500000000000
0 0

0101101
*
Ed
 0.000000100000000 1 1 0
1  38 0 0.286226838191704 28.500000000000000
3  49 50CN 6 0 0.286226838191704 28.500000000000000
0

0101000
+151 3 -111 3 *
Ve
0.000000128915790
-0.743328403773114 -13.799999999999999 0.818711097385991
0 0

0101101
*
Ed
 0.000000100000000 1 1 0
1  39 0 4.712388980384690 4.746061094408128
2  51 6 0 4.712388980384690 4.746061094408128
2  52 14 0 4.712388980384690 4.746061094408128
0

0101000
+139 3 -109 3 *
Ed
 0.000000128915790 1 1 0
1  40 0 4.145536441308045 4.678716866361253
2  53 6 0 4.145536441308045 4.678716866361253
0

0101000
+143 3 -109 3 *
Ed
 0.000000100000000 1 1 0
1  41 0 2.137648865871554 4.145536441308034
2  54 6 0 2.137648865871554 4.145536441308034
0

0101000
+145 3 -143 3 *
Ve
0.000000128915758
0.743328403773114 -13.799999999999999 0.818711097385991
0 0

0101101
*
Ed
 0.000000128915758 1 1 0
1  42 0 1.604468440818334 2.137648865871542
2  55 6 0 1.604468440818334 2.137648865871542
0

0101000
+105 3 -145 3 *
Ed
 0.000000100000000 1 1 0
1  43 0 1.537124212771458 1.570796326794897
2  56 6 0 1.537124212771458 1.570796326794897
2  57 15 0 1.537124212771458 1.570796326794897
0

0101000
+105 3 -149 3 *
Ed
 0.000000100000000 1 1 0
1  44 0 0.000000000000000 6.283185307179586
2  58 6 0 0.000000000000000 6.283185307179586
2  59 16 6 0.000000000000000 6.283185307179586
0

0101000
+111 3 -111 3 *
Wi

0101100
+110 0 +137 0 -108 0 +107 0 +106 0 +104 0 -103 0 +148 0 -110 0 -102 0 
*
Fa
0  0.000000100000000 6 0

0101000
+101 0 *
Ed
 0.000000100000000 1 1 0
1  45 0 4.712388980384690 5.279241519461346
2  60 7 0 4.712388980384690 5.279241519461346
2  61 15 0 4.712388980384690 5.279241519461346
0

0101000
+149 3 -145 3 *
Ed
 0.000000100000000 1 1 0
1  46 0 1.537124212771537 2.137648865871554
2  54 7 0 1.537124212771537 2.137648865871554
0

0101000
+147 3 -145 3 *
Wi

0101100
-99 0 +98 0 +146 0 *
Fa
0  0.000000100000000 7 0

0101000
+97 0 *
Wi

0101100
+98 0 -144 0 *
Fa
0  0.000000100000000 17 0

0101000
+95 0 *
Ed
 0.000000150000000 1 1 0
1  47 0 -0.627423984291844 0.627423984291844
0

0101000
+143 3 -145 3 *
Wi

0101100
+93 0 +142 0 *
Fa
0  0.000000100000000 18 0

0101000
+92 0 *
Ed
 0.000000100000000 1 1 0
1  48 0 4.145536441308034 4.746061094408049
2  54 8 0 4.145536441308034 4.746061094408049
0

0101000
+143 3 -141 3 *
Wi

0101100
-140 0 +90 0 *
Fa
0  0.000000100000000 19 0

0101000
+89 0 *
Ed
 0.000000100000000 1 1 0
1  49 0 1.003943787718240 1.570796326794897
2  62 8 0 1.003943787718240 1.570796326794897
2  63 14 0 1.003943787718240 1.570796326794897
0

0101000
+143 3 -139 3 *
Wi

0101100
+138 0 +90 0 -87 0 *
Fa
0  0.000000100000000 8 0

0101000
+86 0 *
Ed
 0.000000150000000 1 1 0
1  50 0 -0.627423984291840 0.627423984291841
0

0101000
+126 3 -116 3 *
Wi

0101100
+114 0 +84 0 +125 0 *
Fa
0  0.000000100000000 20 0

0101000
+83 0 *
Ed
 0.000000100000000 1 1 0
1  51 0 1.003943787718230 1.604468440818257
2  64 11 0 1.003943787718230 1.604468440818257
0

0101000
+126 3 -124 3 *
Wi

0101100
-123 0 +81 0 *
Fa
0  0.000000100000000 21 0

0101000
+80 0 *
Ed
 0.000000100000000 1 1 0
1  52 0 1.003943787718230 1.570796326794897
2  65 11 0 1.003943787718230 1.570796326794897
2  66 22 0 1.003943787718230 1.570796326794897
0

0101000
+126 3 -122 3 *
Wi

0101100
-78 0 +121 0 +81 0 *
Fa
0  0.000000100000000 11 0

0101000
+77 0 *
Ve
0.000000100000000
-0.000000000000000 -14.000000000000000 -0.100000000000000
0 0

0101101
*
Ed
 0.000000100000000 1 1 0
1  53 0 5.279241519461354 6.283185307179586
2  64 12 0 5.279241519461354 6.283185307179586
0

0101000
+116 3 -75 3 *
Ve
0.000000128915795
-0.743328403773114 -13.799999999999999 -0.818711097385991
0 0

0101101
*
Ed
 0.000000128915795 1 1 0
1  54 0 1.604468440818334 2.137648865871549
2  67 12 0 1.604468440818334 2.137648865871549
0

0101000
+73 3 -116 3 *
Ed
 0.000000100000000 1 1 0
1  55 0 1.537124212771458 1.570796326794897
2  68 12 0 1.537124212771458 1.570796326794897
2  69 23 0 1.537124212771458 1.570796326794897
0

0101000
+73 3 -120 3 *
Ve
0.000000128915790
0.743328403773114 -13.799999999999999 -0.818711097385991
0 0

0101101
*
Ed
 0.000000100000000 1 1 0
1  56 0 4.712388980384690 4.746061094408128
2  70 12 0 4.712388980384690 4.746061094408128
2  71 22 0 4.712388980384690 4.746061094408128
0

0101000
+122 3 -70 3 *
Ed
 0.000000128915790 1 1 0
1  57 0 4.145536441308036 4.678716866361253
2  72 12 0 4.145536441308036 4.678716866361253
0

0101000
+126 3 -70 3 *
Ed
 0.000000100000000 1 1 0
1  58 0 0.000000000000000 1.003943787718230
2  64 12 0 0.000000000000000 1.003943787718230
0

0101000
+75 3 -126 3 *
Ve
0.000000100000000
-0.000000000000000 14.500000000000000 -0.100000000000000
0 0

0101101
*
Ed
 0.000000100000000 1 1 0
1  59 0 0.000000000000000 28.500000000000000
3  73 74CN 12 0 0.000000000000000 28.500000000000000
0

0101000
+75 3 -66 3 *
Ve
0.000000100000000
0.000000000000000 14.500000000000000 -1.587500000000000
0 0

0101101
*
Ed
 0.000000100000000 1 1 0
1  60 0 0.000000000000000 3.141592653589793
2  75 12 0 0.000000000000000 3.141592653589793
2  76 24 9 0.000000000000000 3.141592653589793
0

0101000
+66 3 -64 3 *
Ed
 0.000000100000000 1 1 0
1  61 0 3.141592653589793 6.283185307179586
2  75 12 0 3.141592653589793 6.283185307179586
2  77 24 9 3.141592653589793 6.283185307179586
0

0101000
+64 3 -66 3 *
Wi

0101100
+74 0 +72 0 -71 0 +119 0 -69 0 +68 0 +67 0 -65 0 -63 0 -62 0 
+65 0 *
Fa
0  0.000000100000000 12 0

0101000
+61 0 *
Ed
 0.000000100000000 1 1 0
1  62 0 4.678716866361330 5.279241519461354
2  64 13 0 4.678716866361330 5.279241519461354
0

0101000
+118 3 -116 3 *
Ed
 0.000000100000000 1 1 0
1  63 0 4.712388980384690 5.279241519461355
2  78 13 0 4.712388980384690 5.279241519461355
2  79 23 0 4.712388980384690 5.279241519461355
0

0101000
+120 3 -116 3 *
Wi

0101100
+59 0 +117 0 -58 0 *
Fa
0  0.000000100000000 13 0

0101000
+57 0 *
Wi

0101100
+59 0 -115 0 *
Fa
0  0.000000100000000 25 0

0101000
+55 0 *
Ed
 0.000000100000000 1 1 0
1  64 0 4.145536441308034 4.746061094408130
2  31 14 0 4.145536441308034 4.746061094408130
0

0101000
+143 3 -109 3 *
Wi

0101100
+87 0 -53 0 +108 0 *
Fa
0  0.000000100000000 14 0

0101000
+52 0 *
Wi

0101100
-107 0 +53 0 *
Fa
0  0.000000100000000 26 0

0101000
+50 0 *
Wi

0101100
+93 0 +106 0 *
Fa
0  0.000000100000000 27 0

0101000
+48 0 *
Ed
 0.000000100000000 1 1 0
1  65 0 1.537124212771456 2.137648865871554
2  31 15 0 1.537124212771456 2.137648865871554
0

0101000
+105 3 -145 3 *
Wi

0101100
+46 0 -104 0 *
Fa
0  0.000000100000000 28 0

0101000
+45 0 *
Wi

0101100
+103 0 -46 0 +99 0 *
Fa
0  0.000000100000000 15 0

0101000
+43 0 *
Ve
0.000000100000001
0.000000000000000 15.388302893865600 1.955447106134399
0 0

0101101
*
Ed
 0.000000100000000 1 1 0
1  66 0 0.000000000000000 0.785398163397448
3  80 81CN 16 0 0.000000000000000 0.785398163397448
0

0101000
+111 10 -41 10 *
Ed
 0.000000100000001 1 1 0
1  67 0 -3.141592653589793 3.141592653589793
2  82 16 0 -3.141592653589793 3.141592653589793
2  83 29 11 -3.141592653589793 3.141592653589793
0

0101000
+41 10 -41 10 *
Wi

0101100
-40 6 +39 6 +40 6 +102 0 *
Fa
0  0.000000100000000 16 6

0101000
+38 0 *
Wi

0101100
+74 0 +84 0 +67 0 *
Fa
0  0.000000100000000 30 0

0101000
+36 0 *
Ed
 0.000000100000000 1 1 0
1  68 0 1.003943787718230 1.604468440818337
2  40 22 0 1.003943787718230 1.604468440818337
0

0101000
+126 3 -70 3 *
Wi

0101100
-34 0 +69 0 +78 0 *
Fa
0  0.000000100000000 22 0

0101000
+33 0 *
Ed
 0.000000100000000 1 1 0
1  69 0 4.678716866361249 5.279241519461355
2  40 23 0 4.678716866361249 5.279241519461355
0

0101000
+73 3 -116 3 *
Wi

0101100
+31 0 -72 0 *
Fa
0  0.000000100000000 31 0

0101000
+30 0 *
Wi

0101100
+58 0 +71 0 -31 0 *
Fa
0  0.000000100000000 23 0

0101000
+28 0 *
Wi

0101100
-68 0 +34 0 *
Fa
0  0.000000100000000 32 0

0101000
+26 0 *
Ve
0.000000100000002
0.000000000000000 15.388302893865600 -1.955447106134399
0 0

0101101
*
Ed
 0.000000100000000 1 1 0
1  70 0 0.000000000000000 0.785398163397448
3  84 85CN 24 0 0.000000000000000 0.785398163397448
0

0101000
+64 12 -24 12 *
Ve
0.000000100000001
-0.000000000000000 16.440124230880592 -0.903625769119410
0 0

0101101
*
Ed
 0.000000100000001 1 1 0
1  71 0 0.000000000000001 3.141592653589793
2  86 24 0 0.000000000000001 3.141592653589793
2  87 33 13 0.000000000000001 3.141592653589793
0

0101000
+22 12 -24 12 *
Ed
 0.000000100000001 1 1 0
1  72 0 -3.141592653589793 0.000000000000001
2  86 24 0 -3.141592653589793 0.000000000000001
2  88 33 13 -3.141592653589793 0.000000000000001
0

0101000
+24 12 -22 12 *
Wi

0101100
+62 0 -23 9 +21 9 +20 9 +23 9 +63 0 *
Fa
0  0.000000100000000 24 9

0101000
+19 0 *
Ve
0.000000100000000
-0.000000000000000 21.065807258716866 7.632951470985665
0 0

0101101
*
Ed
 0.000000100000000 1 1 0
1  73 0 0.000000000000000 6.283185307179586
2  89 29 0 0.000000000000000 6.283185307179586
0

0101000
+17 3 -17 3 *
Ed
 0.000000100000000 1 1 0
1  74 0 0.000000000000000 8.029203673205105
3  90 91CN 29 0 0.000000000000000 8.029203673205105
0

0101000
+41 3 -17 3 *
Wi

0101100
-16 0 +15 0 -39 6 -15 0 *
Fa
0  0.000000100000000 29 0

0101000
+14 0 *
Ve
0.000000100000000
-0.000000000000000 22.117628595731858 -6.581130133970676
0 0

0101101
*
Ed
 0.000000100000000 1 1 0
1  75 0 0.000000000000000 8.029203673205105
3  92 93CN 33 0 0.000000000000000 8.029203673205105
0

0101000
+22 3 -12 3 *
Ed
 0.000000100000000 1 1 0
1  76 0 0.000000000000000 6.283185307179586
2  94 33 0 0.000000000000000 6.283185307179586
0

0101000
+12 3 -12 3 *
Wi

0101100
+11 0 -21 9 -20 9 -11 0 -10 0 *
Fa
0  0.000000100000000 33 0

0101000
+9 0 *
Wi

0101100
+16 0 *
Fa
0  0.000000100000000 34 0

0111000
+7 0 *
Wi

0101100
+10 0 *
Fa
0  0.000000100000000 35 0

0111000
+5 0 *
Sh

0101100
+160 0 +157 0 -152 0 +135 0 +132 0 -129 0 +112 0 +100 0 +96 0 -94 0 
+91 0 -88 0 +85 0 +82 0 -79 0 +76 0 +60 0 +56 0 -54 0 +51 0 
+49 0 -47 0 +44 0 +42 0 +37 0 -35 0 +32 0 +29 0 +27 0 +25 0 
+18 0 +13 0 +8 0 +6 0 +4 0 *
So

0100000
+3 0 *
Co

1100000
+2 0 *

+1 1 