
CASCADE Topology V1, (c) Matra-Datavision
Locations 13
1
1.000000000000000 0.000000000000000 0.000000000000000 0.000000000000000 
0.000000000000000 1.000000000000000 0.000000000000000 0.000000000000000 
0.000000000000000 0.000000000000000 1.000000000000000 0.000000000000000 
1
1.000000000000000 0.000000000000000 0.000000000000000 0.000000000000000 
0.000000000000000 1.000000000000000 0.000000000000000 0.000000000000000 
0.000000000000000 0.000000000000000 1.000000000000000 0.000000000000000 
2  2 -1 0
1
1.000000000000000 0.000000000000000 0.000000000000000 0.000000000000000 
0.000000000000000 1.000000000000000 0.000000000000000 50.799999999999997 
0.000000000000000 0.000000000000000 1.000000000000000 0.000000000000000 
2  2 -1 4 -1 0
1
-0.838670567945424 0.000000000000000 0.544639035015027 -123.966154257398742 
0.000000000000000 1.000000000000000 0.000000000000000 0.000000000000000 
-0.544639035015027 0.000000000000000 -0.838670567945424 -231.582654996448326 
1
-0.838670567945424 0.000000000000000 0.544639035015027 -174.286388334124155 
0.000000000000000 1.000000000000000 0.000000000000000 0.000000000000000 
-0.544639035015027 0.000000000000000 -0.838670567945424 -264.260997097349957 
2  2 -1 6 -1 0
2  2 -1 7 -1 0
1
1.000000000000000 0.000000000000000 0.000000000000000 0.000000000000000 
0.000000000000000 1.000000000000000 0.000000000000000 14.037500000000000 
0.000000000000000 0.000000000000000 1.000000000000000 0.000000000000000 
2  2 -1 10 -1 0
1
1.000000000000000 0.000000000000000 0.000000000000000 0.000000000000000 
0.000000000000000 1.000000000000000 0.000000000000000 14.037500000000000 
0.000000000000000 0.000000000000000 1.000000000000000 0.000000000000000 
2  2 -1 12 -1 0
Curve2ds 38
1 0.00000000000000000 1.00000000000003308 1.00000000000000000 0.00000000000000000 
1 0.00000000000000000 1.00000000000000178 1.00000000000000000 0.00000000000000000 
1 0.00000000000000000 7.35000000000002007 1.00000000000000000 0.00000000000000000 
1 6.28318530717958623 -0.00000000000000000 0.00000000000000000 1.00000000000000000 
1 0.00000000000000000 -0.00000000000000000 0.00000000000000000 1.00000000000000000 
1 0.00000000000000000 7.34999999999995701 1.00000000000000000 0.00000000000000000 
1 6.28318530717958623 -0.00000000000000000 0.00000000000000000 1.00000000000000000 
1 0.00000000000000000 -0.00000000000000000 0.00000000000000000 1.00000000000000000 
1 3.24530781933990387 0.00000000000000000 0.00000000000000000 1.00000000000000000 
1 0.00000000000000000 2.58749999999999858 1.00000000000000000 0.00000000000000000 
1 5.02755283511321149 0.00000000000000000 0.00000000000000000 1.00000000000000000 
1 3.24530781933990387 0.00000000000000000 0.00000000000000000 1.00000000000000000 
1 0.00000000000000000 50.21249999999999858 1.00000000000000000 0.00000000000000000 
1 5.02755283511321149 0.00000000000000000 0.00000000000000000 1.00000000000000000 
1 0.00000000000000000 16.62500000000000000 1.00000000000000000 0.00000000000000000 
1 0.00000000000000000 36.17499999999999716 1.00000000000000000 0.00000000000000000 
1 0.00000000000000000 14.03749999999999964 1.00000000000000000 0.00000000000000000 
1 0.00000000000000000 0.00000000000000000 1.00000000000000000 0.00000000000000000 
1 1.03963351601371978 0.00000000000000000 0.00000000000000000 1.00000000000000000 
1 3.44775381061246611 2.58749999999999858 0.00000000000000000 1.00000000000000000 
1 0.00000000000000000 2.58749999999999858 1.00000000000000000 0.00000000000000000 
1 0.00000000000000000 2.58749999999999858 1.00000000000000000 0.00000000000000000 
1 0.00000000000000000 16.62500000000000000 1.00000000000000000 0.00000000000000000 
1 6.28318530717958623 -0.00000000000000000 0.00000000000000000 1.00000000000000000 
1 0.00000000000000000 -0.00000000000000000 0.00000000000000000 1.00000000000000000 
1 5.94168349196359724 0.00000000000000000 0.00000000000000000 1.00000000000000000 
1 3.53356319736485069 2.58749999999999858 0.00000000000000000 1.00000000000000000 
1 0.00000000000000000 14.03749999999999964 1.00000000000000000 0.00000000000000000 
1 0.00000000000000000 0.00000000000000000 1.00000000000000000 0.00000000000000000 
1 1.03963351601371978 0.00000000000000000 0.00000000000000000 1.00000000000000000 
1 3.44775381061246611 36.17499999999999716 0.00000000000000000 1.00000000000000000 
1 0.00000000000000000 50.21249999999999858 1.00000000000000000 0.00000000000000000 
1 0.00000000000000000 50.21249999999999858 1.00000000000000000 0.00000000000000000 
1 0.00000000000000000 36.17499999999999716 1.00000000000000000 0.00000000000000000 
1 5.94168349196359724 0.00000000000000000 0.00000000000000000 1.00000000000000000 
1 3.53356319736485069 36.17499999999999716 0.00000000000000000 1.00000000000000000 
1 0.00000000000000000 16.62500000000000000 1.00000000000000000 0.00000000000000000 
1 0.00000000000000000 36.17499999999999716 1.00000000000000000 0.00000000000000000 
Curves 114
1 -101.32204892287228404 -25.39999999999999858 -216.87740105104259669 -0.83867056794542394 0.00000000000000000 -0.54463903501502731 
1 -101.32204892287228404 -25.39999999999999858 -216.87740105104259669 0.00000000000000000 1.00000000000000000 0.00000000000000000 
1 -195.25315253275974214 -25.39999999999999858 -277.87697297272563901 0.00000000000000000 1.00000000000000000 0.00000000000000000 
1 -97.54803136711788625 -23.81249999999999645 -214.42652539347497509 -0.83867056794542394 0.00000000000000000 -0.54463903501502731 
1 -101.32204892287228404 -25.39999999999999858 -216.87740105104259669 -0.83867056794542394 0.00000000000000000 -0.54463903501502731 
1 -107.19274289849028037 -24.60624999999999929 -220.68987429614776374 0.00000000000000000 1.00000000000000000 0.00000000000000000 
1 -101.32204892287228404 -25.39999999999999858 -216.87740105104259669 0.00000000000000000 1.00000000000000000 0.00000000000000000 
1 -97.54803136711788625 -9.77499999999999680 -214.42652539347497509 -0.83867056794542394 0.00000000000000000 -0.54463903501502731 
1 -97.54803136711788625 23.81250000000000000 -214.42652539347497509 -0.83867056794542394 0.00000000000000000 -0.54463903501502731 
1 -101.32204892287228404 -25.39999999999999858 -216.87740105104259669 0.00000000000000000 1.00000000000000000 0.00000000000000000 
1 -107.19274289849028037 -7.81249999999999911 -220.68987429614776374 0.00000000000000000 1.00000000000000000 0.00000000000000000 
1 -97.54803136711788625 9.77500000000000036 -214.42652539347497509 -0.83867056794542394 0.00000000000000000 -0.54463903501502731 
2 -123.96615425739872762 0.00000000000000000 -231.58265499644835472 0.54463903501502708 0.00000000000000000 -0.83867056794542405 -0.83867056794542405 0.00000000000000000 -0.54463903501502708 0.00000000000000000 1.00000000000000000 0.00000000000000000 8.08750000000000036
2 -174.28638833412415465 0.00000000000000000 -264.26099709734995713 0.54463903501502708 0.00000000000000000 -0.83867056794542405 -0.83867056794542405 0.00000000000000000 -0.54463903501502708 0.00000000000000000 1.00000000000000000 0.00000000000000000 8.08750000000000036
1 -195.25315253275974214 -25.39999999999999858 -277.87697297272563901 0.54463903501502842 0.00000000000000000 -0.83867056794542316 
1 -191.79469466041433634 -25.39999999999999858 -283.20253107917903890 0.83867056794542416 0.00000000000000000 0.54463903501502686 
1 -97.86359105052686402 -25.39999999999999858 -222.20295915749605342 -0.54463903501502586 0.00000000000000000 0.83867056794542494 
1 -97.55042360539322033 -23.81249999999999645 -222.68519473406468023 -0.54463903501502586 0.00000000000000000 0.83867056794542494 
1 -97.86359105052686402 -25.39999999999999858 -222.20295915749605342 0.00000000000000000 1.00000000000000000 0.00000000000000000 
1 -191.79469466041433634 -25.39999999999999858 -283.20253107917903890 0.00000000000000000 1.00000000000000000 0.00000000000000000 
1 -195.25315253275974214 -25.39999999999999858 -277.87697297272563901 0.54463903501502842 0.00000000000000000 -0.83867056794542316 
1 -101.32204892287228404 -26.39999999999999858 -216.87740105104259669 0.00000000000000000 1.00000000000000000 0.00000000000000000 
1 -191.79469466041433634 -25.39999999999999858 -283.20253107917903890 0.83867056794542416 0.00000000000000000 0.54463903501502686 
1 -97.86359105052686402 -25.39999999999999858 -222.20295915749605342 -0.54463903501502586 0.00000000000000000 0.83867056794542494 
1 -97.55042360539322033 23.81250000000000711 -222.68519473406468023 -0.54463903501502586 0.00000000000000000 0.83867056794542494 
1 -97.86359105052686402 -25.39999999999999858 -222.20295915749605342 0.00000000000000000 1.00000000000000000 0.00000000000000000 
1 -101.32204892287228404 -26.39999999999999858 -216.87740105104259669 0.00000000000000000 1.00000000000000000 0.00000000000000000 
1 -97.55042360539322033 -9.77499999999999503 -222.68519473406468023 -0.54463903501502586 0.00000000000000000 0.83867056794542494 
1 -97.55042360539322033 9.77500000000000391 -222.68519473406468023 -0.54463903501502586 0.00000000000000000 0.83867056794542494 
1 -97.86359105052686402 -25.39999999999999858 -222.20295915749605342 0.00000000000000000 1.00000000000000000 0.00000000000000000 
2 -120.50769638505330761 0.00000000000000000 -236.90821310290178303 0.54463903501502708 0.00000000000000000 -0.83867056794542405 -0.83867056794542405 0.00000000000000000 -0.54463903501502708 0.00000000000000000 1.00000000000000000 0.00000000000000000 8.08750000000000036
1 8.08750000000000036 -0.00000000000000198 -1.00000000000000000 0.00000000000000000 0.00000000000000000 1.00000000000000000 
2 -170.82793046177874885 0.00000000000000000 -269.58655520380335702 0.54463903501502708 0.00000000000000000 -0.83867056794542405 -0.83867056794542405 0.00000000000000000 -0.54463903501502708 0.00000000000000000 1.00000000000000000 0.00000000000000000 8.08750000000000036
1 8.08750000000000036 -0.00000000000000198 -1.00000000000000000 0.00000000000000000 0.00000000000000000 1.00000000000000000 
1 -141.05512529971619529 -23.81249999999999645 -250.25186946076991035 0.83867056794542416 0.00000000000000000 0.54463903501502686 
1 -103.73428502614481772 -24.60624999999999929 -226.01543240260122047 0.00000000000000000 -1.00000000000000000 0.00000000000000000 
1 -141.05512529971619529 23.81250000000000000 -250.25186946076991035 0.83867056794542416 0.00000000000000000 0.54463903501502686 
1 -141.05512529971619529 -9.77499999999999680 -250.25186946076991035 0.83867056794542416 0.00000000000000000 0.54463903501502686 
1 -103.73428502614481772 -7.81249999999999911 -226.01543240260122047 0.00000000000000000 -1.00000000000000000 0.00000000000000000 
1 -141.05512529971619529 9.77500000000000036 -250.25186946076991035 0.83867056794542416 0.00000000000000000 0.54463903501502686 
1 -99.27965254156592323 -23.81249999999999645 -220.02241568083795187 0.54463903501502708 0.00000000000000000 -0.83867056794542405 
1 -97.05564885927304886 -23.81250000000000000 -236.29963024203200916 -0.54463903501502720 0.00000000000000000 0.83867056794542405 
1 -70.21819068501947925 -23.81250000000000000 -218.87118112155113181 -0.83867056794542394 0.00000000000000000 -0.54463903501502742 
2 -76.27049196162397493 -23.81250000000000000 -209.55145443525759674 0.00000000000000000 1.00000000000000000 0.00000000000000000 0.00000000000000000 0.00000000000000000 1.00000000000000000 1.00000000000000000 0.00000000000000000 0.00000000000000000 14.28749999999999964
1 -109.16025141248204022 -23.81250000000000000 -217.66017686944493903 0.83867056794542394 0.00000000000000000 0.54463903501502742 
1 -103.28955743686407232 -25.10624999999999929 -213.84770362433974356 0.00000000000000000 -1.00000000000000000 0.00000000000000000 
1 -99.27965254156592323 -9.77499999999999858 -220.02241568083795187 0.54463903501502708 0.00000000000000000 -0.83867056794542405 
1 -99.27965254156592323 23.81250000000000000 -220.02241568083795187 0.54463903501502708 0.00000000000000000 -0.83867056794542405 
1 -97.05564885927304886 9.77500000000000036 -236.29963024203200916 -0.54463903501502720 0.00000000000000000 0.83867056794542405 
1 -70.21819068501947925 9.77500000000000036 -218.87118112155113181 -0.83867056794542394 0.00000000000000000 -0.54463903501502742 
2 -76.27049196162397493 23.81250000000000000 -209.55145443525759674 0.00000000000000000 1.00000000000000000 0.00000000000000000 0.00000000000000000 0.00000000000000000 1.00000000000000000 1.00000000000000000 0.00000000000000000 0.00000000000000000 14.28749999999999964
1 -109.16025141248204022 9.77500000000000036 -217.66017686944493903 0.83867056794542394 0.00000000000000000 0.54463903501502742 
1 -99.27965254156592323 9.77500000000000036 -220.02241568083795187 0.54463903501502708 0.00000000000000000 -0.83867056794542405 
1 -103.28955743686407232 -8.31250000000000000 -213.84770362433974356 0.00000000000000000 -1.00000000000000000 0.00000000000000000 
1 -97.05564885927304886 -23.81250000000000000 -236.29963024203200916 -0.54463903501502720 0.00000000000000000 0.83867056794542405 
1 -70.21819068501947925 -23.81250000000000000 -218.87118112155113181 -0.83867056794542394 0.00000000000000000 -0.54463903501502742 
2 -76.27049196162397493 -9.77500000000000036 -209.55145443525759674 0.00000000000000000 1.00000000000000000 0.00000000000000000 0.00000000000000000 0.00000000000000000 1.00000000000000000 1.00000000000000000 0.00000000000000000 0.00000000000000000 14.28749999999999964
1 -109.16025141248204022 -23.81250000000000000 -217.66017686944493903 0.83867056794542394 0.00000000000000000 0.54463903501502742 
1 -97.05564885927304886 9.77500000000000036 -236.29963024203200916 -0.54463903501502720 0.00000000000000000 0.83867056794542405 
1 -70.21819068501947925 9.77500000000000036 -218.87118112155113181 -0.83867056794542394 0.00000000000000000 -0.54463903501502742 
2 -76.27049196162397493 9.77500000000000036 -209.55145443525759674 0.00000000000000000 1.00000000000000000 0.00000000000000000 0.00000000000000000 0.00000000000000000 1.00000000000000000 1.00000000000000000 0.00000000000000000 0.00000000000000000 14.28749999999999964
1 -109.16025141248204022 9.77500000000000036 -217.66017686944493903 0.83867056794542394 0.00000000000000000 0.54463903501502742 
1 -97.05564885927304886 -23.81250000000000000 -236.29963024203200916 0.00000000000000000 1.00000000000000000 0.00000000000000000 
1 -97.05564885927304886 9.77500000000000036 -236.29963024203200916 0.00000000000000000 1.00000000000000000 0.00000000000000000 
1 -77.74966718637186602 -23.81250000000000000 -223.76217914951803323 0.00000000000000000 1.00000000000000000 0.00000000000000000 
1 -82.32279323822847061 -23.81250000000000000 -200.23172774896406167 0.54463903501502720 0.00000000000000000 -0.83867056794542405 
2 -76.27049196162397493 -23.81250000000000000 -209.55145443525759674 0.00000000000000000 1.00000000000000000 0.00000000000000000 0.00000000000000000 0.00000000000000000 1.00000000000000000 1.00000000000000000 0.00000000000000000 0.00000000000000000 8.08750000000000036
1 -82.32279323822847061 -23.81250000000000000 -200.23172774896406167 0.54463903501502720 0.00000000000000000 -0.83867056794542405 
1 -109.16025141248204022 -23.81250000000000000 -217.66017686944493903 0.83867056794542394 0.00000000000000000 0.54463903501502742 
1 -70.21819068501947925 -23.81250000000000000 -218.87118112155113181 -0.83867056794542394 0.00000000000000000 -0.54463903501502742 
1 -89.85426973958091423 -23.81250000000000000 -205.12272577693099151 0.00000000000000000 1.00000000000000000 0.00000000000000000 
1 -77.74966718637186602 9.77500000000000036 -223.76217914951803323 0.00000000000000000 1.00000000000000000 0.00000000000000000 
1 -82.32279323822847061 9.77500000000000036 -200.23172774896406167 0.54463903501502720 0.00000000000000000 -0.83867056794542405 
2 -76.27049196162397493 23.81250000000000000 -209.55145443525759674 0.00000000000000000 1.00000000000000000 0.00000000000000000 0.00000000000000000 0.00000000000000000 1.00000000000000000 1.00000000000000000 0.00000000000000000 0.00000000000000000 8.08750000000000036
1 -82.32279323822847061 9.77500000000000036 -200.23172774896406167 0.54463903501502720 0.00000000000000000 -0.83867056794542405 
1 -109.16025141248204022 9.77500000000000036 -217.66017686944493903 0.83867056794542394 0.00000000000000000 0.54463903501502742 
1 -70.21819068501947925 9.77500000000000036 -218.87118112155113181 -0.83867056794542394 0.00000000000000000 -0.54463903501502742 
1 -89.85426973958091423 9.77500000000000036 -205.12272577693099151 0.00000000000000000 1.00000000000000000 0.00000000000000000 
1 -82.32279323822847061 -23.81250000000000000 -200.23172774896406167 0.54463903501502720 0.00000000000000000 -0.83867056794542405 
2 -76.27049196162397493 -9.77499999999999858 -209.55145443525759674 0.00000000000000000 1.00000000000000000 0.00000000000000000 0.00000000000000000 0.00000000000000000 1.00000000000000000 1.00000000000000000 0.00000000000000000 0.00000000000000000 8.08750000000000036
1 -82.32279323822847061 -23.81250000000000000 -200.23172774896406167 0.54463903501502720 0.00000000000000000 -0.83867056794542405 
1 -109.16025141248204022 -23.81250000000000000 -217.66017686944493903 0.83867056794542394 0.00000000000000000 0.54463903501502742 
1 -70.21819068501947925 -23.81250000000000000 -218.87118112155113181 -0.83867056794542394 0.00000000000000000 -0.54463903501502742 
1 -82.32279323822847061 9.77500000000000036 -200.23172774896406167 0.54463903501502720 0.00000000000000000 -0.83867056794542405 
2 -76.27049196162397493 9.77499999999999858 -209.55145443525759674 0.00000000000000000 1.00000000000000000 0.00000000000000000 0.00000000000000000 0.00000000000000000 1.00000000000000000 1.00000000000000000 0.00000000000000000 0.00000000000000000 8.08750000000000036
1 -82.32279323822847061 9.77500000000000036 -200.23172774896406167 0.54463903501502720 0.00000000000000000 -0.83867056794542405 
1 -109.16025141248204022 9.77500000000000036 -217.66017686944493903 0.83867056794542394 0.00000000000000000 0.54463903501502742 
1 -70.21819068501947925 9.77500000000000036 -218.87118112155113181 -0.83867056794542394 0.00000000000000000 -0.54463903501502742 
2 -76.27049196162397493 -9.77500000000000036 -209.55145443525759674 0.00000000000000000 1.00000000000000000 0.00000000000000000 0.00000000000000000 0.00000000000000000 1.00000000000000000 1.00000000000000000 0.00000000000000000 0.00000000000000000 14.28749999999999964
2 -76.27049196162397493 -23.81250000000000000 -209.55145443525759674 0.00000000000000000 1.00000000000000000 0.00000000000000000 0.00000000000000000 0.00000000000000000 1.00000000000000000 1.00000000000000000 0.00000000000000000 0.00000000000000000 14.28749999999999964
1 -63.95154303240007465 -23.81250000000000000 -202.31431732662318268 0.00000000000000000 1.00000000000000000 0.00000000000000000 
2 -76.27049196162397493 -23.81250000000000000 -209.55145443525759674 0.00000000000000000 1.00000000000000000 0.00000000000000000 0.00000000000000000 0.00000000000000000 1.00000000000000000 1.00000000000000000 0.00000000000000000 0.00000000000000000 8.08750000000000036
2 -76.27049196162397493 -23.81250000000000000 -209.55145443525759674 0.00000000000000000 1.00000000000000000 0.00000000000000000 0.00000000000000000 0.00000000000000000 1.00000000000000000 1.00000000000000000 0.00000000000000000 0.00000000000000000 8.08750000000000036
2 0.00000000000000000 -23.81250000000000000 0.00000000000000000 0.00000000000000000 1.00000000000000000 0.00000000000000000 0.00000000000000000 0.00000000000000000 1.00000000000000000 1.00000000000000000 0.00000000000000000 0.00000000000000000 212.18125000000000568
2 -76.27049196162397493 -23.81250000000000000 -209.55145443525759674 0.00000000000000000 1.00000000000000000 0.00000000000000000 0.00000000000000000 0.00000000000000000 1.00000000000000000 1.00000000000000000 0.00000000000000000 0.00000000000000000 14.28749999999999964
2 -76.27049196162397493 -9.77499999999999858 -209.55145443525759674 0.00000000000000000 1.00000000000000000 0.00000000000000000 0.00000000000000000 0.00000000000000000 1.00000000000000000 1.00000000000000000 0.00000000000000000 0.00000000000000000 8.08750000000000036
2 -76.27049196162397493 -9.77499999999999858 -209.55145443525759674 0.00000000000000000 1.00000000000000000 0.00000000000000000 0.00000000000000000 0.00000000000000000 1.00000000000000000 1.00000000000000000 0.00000000000000000 0.00000000000000000 8.08750000000000036
1 -76.27049196162398914 -26.39999999999999858 -201.46395443525759106 0.00000000000000000 1.00000000000000000 0.00000000000000000 
1 -81.05541227088957612 -23.81250000000000000 -196.08901803303166389 0.00000000000000000 1.00000000000000000 0.00000000000000000 
2 -76.27049196162397493 -9.77500000000000036 -209.55145443525759674 0.00000000000000000 1.00000000000000000 0.00000000000000000 0.00000000000000000 0.00000000000000000 1.00000000000000000 1.00000000000000000 0.00000000000000000 0.00000000000000000 14.28749999999999964
2 -76.27049196162397493 23.81250000000000000 -209.55145443525759674 0.00000000000000000 1.00000000000000000 0.00000000000000000 0.00000000000000000 0.00000000000000000 1.00000000000000000 1.00000000000000000 0.00000000000000000 0.00000000000000000 14.28749999999999964
2 -76.27049196162397493 9.77500000000000036 -209.55145443525759674 0.00000000000000000 1.00000000000000000 0.00000000000000000 0.00000000000000000 0.00000000000000000 1.00000000000000000 1.00000000000000000 0.00000000000000000 0.00000000000000000 14.28749999999999964
1 -63.95154303240007465 9.77500000000000036 -202.31431732662318268 0.00000000000000000 1.00000000000000000 0.00000000000000000 
2 -76.27049196162397493 23.81250000000000000 -209.55145443525759674 0.00000000000000000 1.00000000000000000 0.00000000000000000 0.00000000000000000 0.00000000000000000 1.00000000000000000 1.00000000000000000 0.00000000000000000 0.00000000000000000 8.08750000000000036
2 -76.27049196162397493 23.81250000000000000 -209.55145443525759674 0.00000000000000000 1.00000000000000000 0.00000000000000000 0.00000000000000000 0.00000000000000000 1.00000000000000000 1.00000000000000000 0.00000000000000000 0.00000000000000000 8.08750000000000036
2 0.00000000000000000 23.81250000000000000 0.00000000000000000 0.00000000000000000 1.00000000000000000 0.00000000000000000 0.00000000000000000 0.00000000000000000 1.00000000000000000 1.00000000000000000 0.00000000000000000 0.00000000000000000 212.18125000000000568
2 -76.27049196162397493 23.81250000000000000 -209.55145443525759674 0.00000000000000000 1.00000000000000000 0.00000000000000000 0.00000000000000000 0.00000000000000000 1.00000000000000000 1.00000000000000000 0.00000000000000000 0.00000000000000000 14.28749999999999964
1 -76.27049196162398914 -26.39999999999999858 -201.46395443525759106 0.00000000000000000 1.00000000000000000 0.00000000000000000 
2 -76.27049196162397493 9.77499999999999858 -209.55145443525759674 0.00000000000000000 1.00000000000000000 0.00000000000000000 0.00000000000000000 0.00000000000000000 1.00000000000000000 1.00000000000000000 0.00000000000000000 0.00000000000000000 8.08750000000000036
2 -76.27049196162397493 9.77499999999999858 -209.55145443525759674 0.00000000000000000 1.00000000000000000 0.00000000000000000 0.00000000000000000 0.00000000000000000 1.00000000000000000 1.00000000000000000 0.00000000000000000 0.00000000000000000 8.08750000000000036
1 -81.05541227088957612 9.77500000000000036 -196.08901803303166389 0.00000000000000000 1.00000000000000000 0.00000000000000000 
2 -76.27049196162397493 9.77500000000000036 -209.55145443525759674 0.00000000000000000 1.00000000000000000 0.00000000000000000 0.00000000000000000 0.00000000000000000 1.00000000000000000 1.00000000000000000 0.00000000000000000 0.00000000000000000 14.28749999999999964
2 0.00000000000000000 -9.77499999999999858 0.00000000000000000 0.00000000000000000 1.00000000000000000 0.00000000000000000 0.00000000000000000 0.00000000000000000 1.00000000000000000 1.00000000000000000 0.00000000000000000 0.00000000000000000 212.18125000000000568
2 0.00000000000000000 9.77499999999999858 0.00000000000000000 0.00000000000000000 1.00000000000000000 0.00000000000000000 0.00000000000000000 0.00000000000000000 1.00000000000000000 1.00000000000000000 0.00000000000000000 0.00000000000000000 212.18125000000000568
Polygon3D 0
PolygonOnTriangulations 0
Surfaces 40
1 -101.32204892287228404 -25.39999999999999858 -216.87740105104259669 -0.54463903501502731 0.00000000000000000 0.83867056794542394 -0.83867056794542394 0.00000000000000000 -0.54463903501502731 0.00000000000000000 -1.00000000000000000 0.00000000000000000 
2 0.00000000000000000 0.00000000000000000 -1.00000000000000000 0.00000000000000000 0.00000000000000000 1.00000000000000000 1.00000000000000000 0.00000000000000000 0.00000000000000000 0.00000000000000000 1.00000000000000000 0.00000000000000000 8.08750000000000036
2 0.00000000000000000 0.00000000000000000 -1.00000000000000000 0.00000000000000000 0.00000000000000000 1.00000000000000000 1.00000000000000000 0.00000000000000000 0.00000000000000000 0.00000000000000000 1.00000000000000000 0.00000000000000000 8.08750000000000036
1 -146.55837179164331019 -25.40000000000000213 -250.03996606511080358 -0.00000000000000000 -1.00000000000000000 -0.00000000000000000 0.00000000000000000 0.00000000000000000 -1.00000000000000000 1.00000000000000000 0.00000000000000000 0.00000000000000000 
1 -97.86359105052686402 -25.39999999999999858 -222.20295915749605342 0.83867056794542494 0.00000000000000000 0.54463903501502586 -0.54463903501502586 0.00000000000000000 0.83867056794542494 0.00000000000000000 -1.00000000000000000 0.00000000000000000 
1 -195.25315253275974214 -25.39999999999999858 -277.87697297272563901 -0.83867056794542316 0.00000000000000000 -0.54463903501502842 0.54463903501502842 0.00000000000000000 -0.83867056794542316 0.00000000000000000 -1.00000000000000000 0.00000000000000000 
1 -237.18668093003097397 -26.39999999999999858 -305.10892472347700277 0.54463903501502720 0.00000000000000000 -0.83867056794542405 0.83867056794542405 0.00000000000000000 0.54463903501502720 0.00000000000000000 -1.00000000000000000 0.00000000000000000 
1 -146.55837179164331019 -25.40000000000000213 -250.03996606511080358 -0.00000000000000000 -1.00000000000000000 -0.00000000000000000 0.00000000000000000 0.00000000000000000 -1.00000000000000000 1.00000000000000000 0.00000000000000000 0.00000000000000000 
1 -97.86359105052686402 -25.39999999999999858 -222.20295915749605342 0.83867056794542494 0.00000000000000000 0.54463903501502586 -0.54463903501502586 0.00000000000000000 0.83867056794542494 0.00000000000000000 -1.00000000000000000 0.00000000000000000 
1 -237.18668093003097397 -26.39999999999999858 -305.10892472347700277 0.54463903501502720 0.00000000000000000 -0.83867056794542405 0.83867056794542405 0.00000000000000000 0.54463903501502720 0.00000000000000000 -1.00000000000000000 0.00000000000000000 
1 -97.86359105052686402 -25.39999999999999858 -222.20295915749605342 0.83867056794542494 0.00000000000000000 0.54463903501502586 -0.54463903501502586 0.00000000000000000 0.83867056794542494 0.00000000000000000 -1.00000000000000000 0.00000000000000000 
1 -191.79469466041433634 -25.39999999999999858 -283.20253107917903890 0.54463903501502686 0.00000000000000000 -0.83867056794542416 0.83867056794542416 0.00000000000000000 0.54463903501502686 0.00000000000000000 -1.00000000000000000 0.00000000000000000 
1 -89.68922104875075263 -23.81249999999999645 -218.26567899549806384 0.00000000000000000 1.00000000000000000 0.00000000000000000 0.00000000000000000 0.00000000000000000 1.00000000000000000 1.00000000000000000 0.00000000000000000 0.00000000000000000 
1 -101.32204892287228404 -26.39999999999999858 -216.87740105104259669 0.83867056794542405 0.00000000000000000 0.54463903501502708 -0.54463903501502708 0.00000000000000000 0.83867056794542405 0.00000000000000000 -1.00000000000000000 0.00000000000000000 
1 -89.68922104875075263 9.77500000000000213 -218.26567899549806384 0.00000000000000000 1.00000000000000000 0.00000000000000000 0.00000000000000000 0.00000000000000000 1.00000000000000000 1.00000000000000000 0.00000000000000000 0.00000000000000000 
1 -101.32204892287228404 -26.39999999999999858 -216.87740105104259669 0.83867056794542405 0.00000000000000000 0.54463903501502708 -0.54463903501502708 0.00000000000000000 0.83867056794542405 0.00000000000000000 -1.00000000000000000 0.00000000000000000 
1 -89.68922104875075263 -23.81249999999999645 -218.26567899549806384 0.00000000000000000 1.00000000000000000 0.00000000000000000 0.00000000000000000 0.00000000000000000 1.00000000000000000 1.00000000000000000 0.00000000000000000 0.00000000000000000 
1 -89.68922104875075263 9.77500000000000213 -218.26567899549806384 0.00000000000000000 1.00000000000000000 0.00000000000000000 0.00000000000000000 0.00000000000000000 1.00000000000000000 1.00000000000000000 0.00000000000000000 0.00000000000000000 
1 -97.05564885927304886 -23.81250000000000000 -236.29963024203200916 0.83867056794542405 0.00000000000000000 0.54463903501502720 -0.54463903501502720 0.00000000000000000 0.83867056794542405 0.00000000000000000 -1.00000000000000000 0.00000000000000000 
1 -97.05564885927304886 9.77500000000000036 -236.29963024203200916 0.83867056794542405 0.00000000000000000 0.54463903501502720 -0.54463903501502720 0.00000000000000000 0.83867056794542405 0.00000000000000000 -1.00000000000000000 0.00000000000000000 
1 -70.21819068501947925 -23.81250000000000000 -218.87118112155113181 -0.54463903501502742 0.00000000000000000 0.83867056794542394 -0.83867056794542394 0.00000000000000000 -0.54463903501502742 0.00000000000000000 -1.00000000000000000 0.00000000000000000 
2 -76.27049196162397493 -23.81250000000000000 -209.55145443525759674 0.00000000000000000 1.00000000000000000 0.00000000000000000 0.00000000000000000 0.00000000000000000 1.00000000000000000 1.00000000000000000 0.00000000000000000 0.00000000000000000 14.28749999999999964
1 -76.27049196162397493 -23.81250000000000000 -209.55145443525759674 0.00000000000000000 1.00000000000000000 0.00000000000000000 0.00000000000000000 0.00000000000000000 1.00000000000000000 1.00000000000000000 0.00000000000000000 0.00000000000000000 
2 -76.27049196162397493 -26.39999999999999858 -209.55145443525759674 0.00000000000000000 1.00000000000000000 0.00000000000000000 0.00000000000000000 0.00000000000000000 1.00000000000000000 1.00000000000000000 0.00000000000000000 0.00000000000000000 8.08750000000000036
1 -109.16025141248204022 -23.81250000000000000 -217.66017686944493903 0.54463903501502742 0.00000000000000000 -0.83867056794542394 0.83867056794542394 0.00000000000000000 0.54463903501502742 0.00000000000000000 -1.00000000000000000 0.00000000000000000 
2 -76.27049196162397493 -23.81250000000000000 -209.55145443525759674 0.00000000000000000 1.00000000000000000 0.00000000000000000 0.00000000000000000 0.00000000000000000 1.00000000000000000 1.00000000000000000 0.00000000000000000 0.00000000000000000 14.28749999999999964
1 -70.21819068501947925 9.77500000000000036 -218.87118112155113181 -0.54463903501502742 0.00000000000000000 0.83867056794542394 -0.83867056794542394 0.00000000000000000 -0.54463903501502742 0.00000000000000000 -1.00000000000000000 0.00000000000000000 
2 -76.27049196162397493 9.77500000000000036 -209.55145443525759674 0.00000000000000000 1.00000000000000000 0.00000000000000000 0.00000000000000000 0.00000000000000000 1.00000000000000000 1.00000000000000000 0.00000000000000000 0.00000000000000000 14.28749999999999964
1 -76.27049196162397493 23.81250000000000000 -209.55145443525759674 0.00000000000000000 1.00000000000000000 0.00000000000000000 0.00000000000000000 0.00000000000000000 1.00000000000000000 1.00000000000000000 0.00000000000000000 0.00000000000000000 
2 -76.27049196162397493 -26.39999999999999858 -209.55145443525759674 0.00000000000000000 1.00000000000000000 0.00000000000000000 0.00000000000000000 0.00000000000000000 1.00000000000000000 1.00000000000000000 0.00000000000000000 0.00000000000000000 8.08750000000000036
1 -109.16025141248204022 9.77500000000000036 -217.66017686944493903 0.54463903501502742 0.00000000000000000 -0.83867056794542394 0.83867056794542394 0.00000000000000000 0.54463903501502742 0.00000000000000000 -1.00000000000000000 0.00000000000000000 
2 -76.27049196162397493 9.77500000000000036 -209.55145443525759674 0.00000000000000000 1.00000000000000000 0.00000000000000000 0.00000000000000000 0.00000000000000000 1.00000000000000000 1.00000000000000000 0.00000000000000000 0.00000000000000000 14.28749999999999964
1 -76.27049196162397493 -9.77500000000000036 -209.55145443525759674 0.00000000000000000 1.00000000000000000 0.00000000000000000 0.00000000000000000 0.00000000000000000 1.00000000000000000 1.00000000000000000 0.00000000000000000 0.00000000000000000 
1 -76.27049196162397493 9.77500000000000036 -209.55145443525759674 0.00000000000000000 1.00000000000000000 0.00000000000000000 0.00000000000000000 0.00000000000000000 1.00000000000000000 1.00000000000000000 0.00000000000000000 0.00000000000000000 
2 0.00000000000000000 -26.39999999999999858 0.00000000000000000 0.00000000000000000 1.00000000000000000 0.00000000000000000 0.00000000000000000 0.00000000000000000 1.00000000000000000 1.00000000000000000 0.00000000000000000 0.00000000000000000 212.18125000000000568
1 -76.27049196162397493 -23.81250000000000000 -209.55145443525759674 0.00000000000000000 1.00000000000000000 0.00000000000000000 0.00000000000000000 0.00000000000000000 1.00000000000000000 1.00000000000000000 0.00000000000000000 0.00000000000000000 
2 0.00000000000000000 -26.39999999999999858 0.00000000000000000 0.00000000000000000 1.00000000000000000 0.00000000000000000 0.00000000000000000 0.00000000000000000 1.00000000000000000 1.00000000000000000 0.00000000000000000 0.00000000000000000 212.18125000000000568
1 -76.27049196162397493 23.81250000000000000 -209.55145443525759674 0.00000000000000000 1.00000000000000000 0.00000000000000000 0.00000000000000000 0.00000000000000000 1.00000000000000000 1.00000000000000000 0.00000000000000000 0.00000000000000000 
1 -76.27049196162397493 -9.77500000000000036 -209.55145443525759674 0.00000000000000000 1.00000000000000000 0.00000000000000000 0.00000000000000000 0.00000000000000000 1.00000000000000000 1.00000000000000000 0.00000000000000000 0.00000000000000000 
1 -76.27049196162397493 9.77500000000000036 -209.55145443525759674 0.00000000000000000 1.00000000000000000 0.00000000000000000 0.00000000000000000 0.00000000000000000 1.00000000000000000 1.00000000000000000 0.00000000000000000 0.00000000000000000 
Triangulations 0

TShapes 277
Ve
0.000000100000014
-101.322048922872284 -25.399999999999999 -216.877401051042597
0 0

0101101
*
Ve
0.000000100000014
-195.253152532759742 -25.399999999999999 -277.876972972725639
0 0

0101101
*
Ed
 0.000000100000014 1 1 0
1  1 0 0.000000000000000 111.999999999999986
0

0101000
+277 3 -276 3 *
Ve
0.000000212133034
-101.322048922872284 -23.812499999999996 -216.877401051042597
0 0

0101101
*
Ed
 0.000000100000000 1 1 0
1  2 0 0.000000000000000 1.587500000000002
0

0101000
+277 3 -274 3 *
Ve
0.000000100000014
-195.253152532759742 25.399999999999999 -277.876972972725639
0 0

0101101
*
Ed
 0.000000100000000 1 1 0
1  3 0 0.000000000000000 50.799999999999997
0

0101000
+276 3 -272 3 *
Ve
0.000000150000040
-107.192742898490252 -23.812500000000000 -220.689874296147792
0 0

0101101
*
Ed
 0.000000150000000 1 1 0
1  4 0 4.499999999999991 11.499999999999995
0

0101000
+274 3 -270 3 *
Ve
0.000000100000014
-101.322048922872284 25.399999999999999 -216.877401051042597
0 0

0101101
*
Ed
 0.000000100000014 1 1 0
1  5 0 0.000000000000000 111.999999999999986
0

0101000
+268 5 -272 5 *
Ve
0.000000150000040
-107.192742898490252 -9.775000000000000 -220.689874296147792
0 0

0101101
*
Ed
 0.000000150000000 1 1 0
1  6 0 0.793749999999999 14.831249999999999
0

0101000
+270 3 -266 3 *
Ve
0.000000212133034
-101.322048922872284 23.812500000000000 -216.877401051042597
0 0

0101101
*
Ed
 0.000000100000000 1 1 0
1  7 0 49.212499999999999 50.799999999999997
0

0101000
+264 3 -268 3 *
Ve
0.000000212133034
-101.322048922872284 -9.774999999999997 -216.877401051042597
0 0

0101101
*
Ed
 0.000000150000000 1 1 0
1  8 0 4.499999999999991 11.499999999999995
0

0101000
+262 3 -266 3 *
Ve
0.000000150000040
-107.192742898490252 23.812500000000000 -220.689874296147792
0 0

0101101
*
Ed
 0.000000150000000 1 1 0
1  9 0 4.499999999999991 11.499999999999995
0

0101000
+264 3 -260 3 *
Ve
0.000000212133034
-101.322048922872284 9.774999999999999 -216.877401051042597
0 0

0101101
*
Ed
 0.000000100000004 1 1 0
1  10 0 15.625000000000002 35.174999999999997
0

0101000
+262 3 -258 3 *
Ve
0.000000150000040
-107.192742898490252 9.775000000000000 -220.689874296147792
0 0

0101101
*
Ed
 0.000000150000000 1 1 0
1  11 0 17.587499999999999 31.625000000000000
0

0101000
+256 3 -260 3 *
Ed
 0.000000150000000 1 1 0
1  12 0 4.499999999999991 11.499999999999995
0

0101000
+258 3 -256 3 *
Wi

0101100
-275 0 +273 0 -271 0 +269 0 +267 4 +265 0 +263 0 -261 0 -259 0 +257 0 
+255 0 +254 0 *
Ve
0.000000100000040
-130.748902475657360 -0.000000000000002 -235.987423192132354
0 0

0101101
*
Ed
 0.000000100000000 1 1 0
1  13 0 0.000000000000000 6.283185307179586
2  1 2 6 0.000000000000000 6.283185307179586
0

0101100
+252 3 -252 3 *
Wi

0101100
+251 0 *
Ve
0.000000100000002
-181.069136552382759 -0.000000000000002 -268.665765293033985
0 0

0101101
*
Ed
 0.000000100000000 1 1 0
1  14 0 0.000000000000000 6.283185307179586
2  2 3 7 0.000000000000000 6.283185307179586
0

0101100
+249 3 -249 3 *
Wi

0101100
+248 0 *
Fa
0  0.000000100000000 1 0

0101000
+253 0 +250 0 +247 0 *
Ve
0.000000100000000
-191.794694660414336 -25.399999999999999 -283.202531079179039
0 0

0101101
*
Ed
 0.000000100000000 1 1 0
1  15 0 0.000000000000000 6.349999999999955
0

0101000
+276 3 -245 3 *
Ve
0.000000100000000
-97.863591050526864 -25.399999999999999 -222.202959157496053
0 0

0101101
*
Ed
 0.000000100000000 1 1 0
1  16 0 0.000000000000000 111.999999999999957
0

0101000
+245 3 -243 3 *
Ed
 0.000000100000000 1 1 0
1  17 0 0.000000000000000 6.350000000000010
0

0101000
+243 3 -277 3 *
Wi

0101100
+275 0 +244 0 +242 0 +241 0 *
Fa
0  0.000000100000000 4 0

0101000
+240 0 *
Ve
0.000000150000014
-97.863591050526864 -23.812499999999996 -222.202959157496053
0 0

0101101
*
Ed
 0.000000150000000 1 1 0
1  18 0 0.575000000000008 6.925000000000019
0

0101000
+238 3 -274 3 *
Ed
 0.000000100000000 1 1 0
1  19 0 0.000000000000000 1.587500000000002
0

0101000
+243 3 -238 3 *
Wi

0101100
-241 0 -273 0 +237 0 +236 0 *
Fa
0  0.000000100000000 5 0

0101000
+235 0 *
Ve
0.000000100000000
-191.794694660414336 25.399999999999999 -283.202531079179039
0 0

0101101
*
Ed
 0.000000100000000 1 1 0
1  20 0 0.000000000000000 50.799999999999997
0

0101000
+245 3 -233 3 *
Ed
 0.000000100000000 1 1 0
1  21 0 0.000000000000000 6.349999999999955
0

0101000
+272 5 -233 5 *
Wi

0101100
+271 0 -232 0 -244 0 +231 4 *
Fa
0  0.000000100000000 6 0

0101000
+230 0 *
Ed
 0.000000100000000 1 1 0
1  22 0 2.587500000000002 16.625000000000000
0

0101000
+274 3 -262 3 *
Wi

0101100
-228 0 -261 0 +265 0 +269 0 *
Fa
0  0.000000100000000 7 0

0101000
+227 0 *
Ve
0.000000100000000
-97.863591050526864 25.399999999999999 -222.202959157496053
0 0

0101101
*
Ed
 0.000000100000000 1 1 0
1  23 0 0.000000000000000 111.999999999999957
0

0101000
+233 5 -225 5 *
Ed
 0.000000100000000 1 1 0
1  24 0 0.000000000000000 6.350000000000010
0

0101000
+225 5 -268 5 *
Wi

0101100
+267 4 +231 4 +224 4 +223 4 *
Fa
0  0.000000100000000 8 4

0101000
+222 0 *
Ve
0.000000150000014
-97.863591050526864 23.812500000000000 -222.202959157496053
0 0

0101101
*
Ed
 0.000000150000000 1 1 0
1  25 0 0.575000000000008 6.925000000000019
0

0101000
+220 3 -264 3 *
Ed
 0.000000100000000 1 1 0
1  26 0 49.212499999999999 50.799999999999997
0

0101000
+220 3 -225 3 *
Wi

0101100
-219 0 -263 0 +223 4 +218 0 *
Fa
0  0.000000100000000 9 0

0101000
+217 0 *
Ed
 0.000000100000000 1 1 0
1  27 0 36.174999999999997 50.212499999999999
0

0101000
+258 3 -264 3 *
Wi

0101100
-259 0 +255 0 +254 0 -215 0 *
Fa
0  0.000000100000000 10 0

0101000
+214 0 *
Ve
0.000000150000014
-97.863591050526864 -9.774999999999997 -222.202959157496053
0 0

0101101
*
Ed
 0.000000150000000 1 1 0
1  28 0 0.575000000000008 6.925000000000019
0

0101000
+212 3 -262 3 *
Ve
0.000000150000014
-97.863591050526864 9.774999999999999 -222.202959157496053
0 0

0101101
*
Ed
 0.000000150000000 1 1 0
1  29 0 0.575000000000008 6.925000000000019
0

0101000
+210 3 -258 3 *
Ed
 0.000000100000000 1 1 0
1  30 0 15.625000000000002 35.174999999999997
0

0101000
+212 3 -210 3 *
Wi

0101100
-211 0 -257 0 +209 0 +208 0 *
Fa
0  0.000000100000000 11 0

0101000
+207 0 *
Ve
0.000000100000032
-127.290444603311940 -0.000000000000002 -241.312981298585782
0 0

0101101
*
Ed
 0.000000100000000 1 1 0
1  31 0 0.000000000000000 6.283185307179586
2  3 2 6 0.000000000000000 6.283185307179586
0

0101100
+205 3 -205 3 *
Ed
 0.000000100000000 1 1 0
1  32 0 1.000000000000002 7.349999999999989
3  4 5CN 2 0 1.000000000000002 7.349999999999989
0

0101000
+252 8 -205 8 *
Wi

0101100
-204 0 +203 6 +251 0 -203 6 *
Fa
0  0.000000100000000 2 6

0101000
+202 0 *
Ve
0.000000100000028
-177.610678680037381 -0.000000000000002 -273.991323399487385
0 0

0101101
*
Ed
 0.000000100000000 1 1 0
1  33 0 0.000000000000000 6.283185307179586
2  6 3 7 0.000000000000000 6.283185307179586
0

0101100
+200 3 -200 3 *
Ed
 0.000000100000000 1 1 0
1  34 0 1.000000000000017 7.349999999999957
3  7 8CN 3 0 1.000000000000017 7.349999999999957
0

0101000
+249 9 -200 9 *
Wi

0101100
-199 0 +198 7 +248 0 -198 7 *
Fa
0  0.000000100000000 3 7

0101000
+197 0 *
Ve
0.000000150000032
-103.734285026144818 -23.812500000000000 -226.015432402601249
0 0

0101101
*
Ed
 0.000000150000000 1 1 0
1  35 0 44.499999999999986 51.499999999999972
0

0101000
+195 3 -238 3 *
Ve
0.000000150000032
-103.734285026144818 -9.775000000000000 -226.015432402601249
0 0

0101101
*
Ed
 0.000000150000000 1 1 0
1  36 0 -14.831249999999999 -0.793749999999999
0

0101000
+193 3 -195 3 *
Ve
0.000000150000032
-103.734285026144818 23.812500000000000 -226.015432402601249
0 0

0101101
*
Ed
 0.000000150000000 1 1 0
1  37 0 44.499999999999986 51.499999999999972
0

0101000
+191 3 -220 3 *
Ed
 0.000000150000000 1 1 0
1  38 0 44.499999999999986 51.499999999999972
0

0101000
+193 3 -212 3 *
Ve
0.000000150000032
-103.734285026144818 9.775000000000000 -226.015432402601249
0 0

0101101
*
Ed
 0.000000150000000 1 1 0
1  39 0 -31.625000000000000 -17.587499999999999
0

0101000
+191 3 -188 3 *
Ed
 0.000000150000000 1 1 0
1  40 0 44.499999999999986 51.499999999999972
0

0101000
+188 3 -210 3 *
Wi

0101100
-242 0 +232 0 -236 0 +224 4 +194 0 -218 0 +192 0 -190 0 -189 0 +187 0 
-208 0 +186 0 *
Wi

0101100
-199 0 *
Wi

0101100
-204 0 *
Fa
0  0.000000100000000 12 0

0101000
+185 0 +184 0 +183 0 *
Ve
0.000000150000004
-103.289557436864072 -23.812500000000000 -213.847703624339744
0 0

0101101
*
Ed
 0.000000150000000 1 1 0
1  41 0 -7.362500000000026 -3.750000000000018
0

0101000
+181 3 -274 3 *
Ve
0.000000100000000
-97.055648859273049 -23.812500000000000 -236.299630242032009
0 0

0101101
*
Ed
 0.000000100000000 1 1 0
1  42 0 0.000000000000000 12.262499999999998
0

0101000
+179 3 -195 3 *
Ve
0.000000100000400
-77.749667186371482 -23.812500000000000 -223.762179149517920
0 0

0101101
*
Ed
 0.000000100000000 1 1 0
1  43 0 8.980256121068731 32.000000000000007
0

0101000
+177 3 -179 3 *
Ve
0.000000100000182
-89.854269739581028 -23.812500000000000 -205.122725776931134
0 0

0101101
*
Ed
 0.000000100000004 1 1 0
1  44 0 3.245307819339878 5.027552835113200
0

0101000
+177 3 -175 3 *
Ed
 0.000000100000000 1 1 0
1  45 0 7.000000000000003 23.019743878930655
0

0101000
+181 3 -175 3 *
Wi

0101100
-180 0 +237 0 +194 0 +178 0 +176 0 -174 0 +173 0 *
Fa
0  0.000000100000000 13 0

0101000
+172 0 *
Ve
0.000000150000002
-103.289557436864072 -9.775000000000000 -213.847703624339744
0 0

0101101
*
Ed
 0.000000150000000 1 1 0
1  46 0 -15.331249999999999 -1.293749999999999
0

0101000
+170 3 -181 3 *
Ed
 0.000000150000000 1 1 0
1  47 0 -7.362500000000026 -3.750000000000018
0

0101000
+170 3 -262 3 *
Wi

0101100
+180 0 +169 0 -168 0 +228 0 *
Fa
0  0.000000100000000 14 0

0101000
+167 0 *
Ve
0.000000150000000
-103.289557436864072 23.812500000000000 -213.847703624339744
0 0

0101101
*
Ed
 0.000000150000000 1 1 0
1  48 0 -7.362500000000026 -3.750000000000018
0

0101000
+165 3 -264 3 *
Ve
0.000000100000000
-97.055648859273049 23.812500000000000 -236.299630242032009
0 0

0101101
*
Ed
 0.000000100000000 1 1 0
1  49 0 0.000000000000000 12.262499999999998
0

0101000
+163 11 -191 11 *
Ve
0.000000100000400
-77.749667186371482 23.812500000000000 -223.762179149517920
0 0

0101101
*
Ed
 0.000000100000000 1 1 0
1  50 0 8.980256121068731 32.000000000000007
0

0101000
+161 11 -163 11 *
Ve
0.000000100000182
-89.854269739581028 23.812500000000000 -205.122725776931134
0 0

0101101
*
Ed
 0.000000100000000 1 1 0
1  51 0 3.245307819339878 5.027552835113200
0

0101000
+161 3 -159 3 *
Ed
 0.000000100000000 1 1 0
1  52 0 7.000000000000003 23.019743878930655
0

0101000
+165 11 -159 11 *
Wi

0101100
-164 0 +219 0 +190 0 +162 10 +160 10 -158 0 +157 10 *
Fa
0  0.000000100000000 15 10

0101000
+156 0 *
Ve
0.000000150000002
-103.289557436864072 9.775000000000000 -213.847703624339744
0 0

0101101
*
Ed
 0.000000150000000 1 1 0
1  53 0 -7.362500000000026 -3.750000000000018
0

0101000
+154 3 -258 3 *
Ed
 0.000000150000000 1 1 0
1  54 0 -32.125000000000000 -18.087499999999999
0

0101000
+165 3 -154 3 *
Wi

0101100
+153 0 +152 0 -164 0 +215 0 *
Fa
0  0.000000100000000 16 0

0101000
+151 0 *
Ve
0.000000100000000
-97.055648859273049 -9.775000000000000 -236.299630242032009
0 0

0101101
*
Ed
 0.000000100000000 1 1 0
1  55 0 0.000000000000000 12.262499999999998
0

0101000
+149 13 -193 13 *
Ve
0.000000100000400
-77.749667186371482 -9.775000000000000 -223.762179149517920
0 0

0101101
*
Ed
 0.000000100000000 1 1 0
1  56 0 8.980256121068731 32.000000000000007
0

0101000
+147 13 -149 13 *
Ve
0.000000100000182
-89.854269739581028 -9.775000000000000 -205.122725776931134
0 0

0101101
*
Ed
 0.000000100000004 1 1 0
1  57 0 3.245307819339878 5.027552835113200
0

0101000
+147 3 -145 3 *
Ed
 0.000000100000000 1 1 0
1  58 0 7.000000000000003 23.019743878930655
0

0101000
+170 13 -145 13 *
Wi

0101100
-168 0 +211 0 +189 0 +148 12 +146 12 -144 0 +143 12 *
Fa
0  0.000000100000000 17 12

0101000
+142 0 *
Ve
0.000000100000000
-97.055648859273049 9.775000000000000 -236.299630242032009
0 0

0101101
*
Ed
 0.000000100000000 1 1 0
1  59 0 0.000000000000000 12.262499999999998
0

0101000
+140 3 -188 3 *
Ve
0.000000100000400
-77.749667186371482 9.775000000000000 -223.762179149517920
0 0

0101101
*
Ed
 0.000000100000000 1 1 0
1  60 0 8.980256121068731 32.000000000000007
0

0101000
+138 3 -140 3 *
Ve
0.000000100000182
-89.854269739581028 9.775000000000000 -205.122725776931134
0 0

0101101
*
Ed
 0.000000100000002 1 1 0
1  61 0 3.245307819339878 5.027552835113200
0

0101000
+138 3 -136 3 *
Ed
 0.000000100000000 1 1 0
1  62 0 7.000000000000003 23.019743878930655
0

0101000
+154 3 -136 3 *
Wi

0101100
-153 0 +209 0 +186 0 +139 0 +137 0 -135 0 +134 0 *
Fa
0  0.000000100000000 18 0

0101000
+133 0 *
Ed
 0.000000100000000 1 1 0
1  63 0 0.000000000000000 14.037500000000000
0

0101000
+179 3 -149 3 *
Wi

0101100
-178 0 +192 0 +148 12 +131 0 *
Fa
0  0.000000100000000 19 0

0101000
+130 0 *
Ed
 0.000000100000000 1 1 0
1  64 0 0.000000000000000 14.037500000000000
0

0101000
+140 3 -163 3 *
Wi

0101100
-139 0 +187 0 +162 10 +128 0 *
Fa
0  0.000000100000000 20 0

0101000
+127 0 *
Ed
 0.000000100000000 1 1 0
1  65 0 0.000000000000000 14.037500000000000
2  9 22 0 0.000000000000000 14.037500000000000
0

0101000
+177 3 -147 3 *
Wi

0101100
-176 0 -131 0 +146 12 +125 0 *
Fa
0  0.000000100000000 21 0

0101000
+124 0 *
Ve
0.000000100000071
-71.865723765939990 -23.812500000000000 -216.334202653516144
0 0

0101101
*
Ve
0.000000100000000
-70.218190685019479 -23.812500000000000 -218.871181121551132
0 0

0101101
*
Ed
 0.000000100000000 1 1 0
1  66 0 19.199999999999928 22.225000000000026
0

0101000
+122 3 -121 3 *
Ve
0.000000100000071
-80.675260157307960 -23.812500000000000 -202.768706216999050
0 0

0101101
*
Ed
 0.000000100000000 1 1 0
1  67 0 2.565634000431664 5.707226654021458
2  10 24 0 2.565634000431664 5.707226654021458
0

0101000
+122 3 -119 3 *
Ve
0.000000100000000
-82.322793238228471 -23.812500000000000 -200.231727748964062
0 0

0101101
*
Ed
 0.000000100000000 1 1 0
1  68 0 0.000000000000000 3.025000000000096
0

0101000
+117 3 -119 3 *
Ed
 0.000000100000000 1 1 0
1  69 0 23.019743878930655 32.000000000000007
0

0101000
+175 3 -117 3 *
Ed
 0.000000100000000 1 1 0
1  70 0 0.000000000000000 8.980256121068731
0

0101000
+121 3 -177 3 *
Wi

0101100
+120 0 -118 0 +116 0 +115 0 +174 0 +114 0 *
Fa
0  0.000000100000000 23 0

0101000
+113 0 *
Ed
 0.000000100000000 1 1 0
1  71 0 0.000000000000000 14.037500000000000
2  11 26 0 0.000000000000000 14.037500000000000
0

0101000
+175 3 -145 3 *
Wi

0101100
-173 0 -111 0 +143 12 -169 0 *
Fa
0  0.000000100000000 25 0

0101000
+110 0 *
Ed
 0.000000100000000 1 1 0
1  72 0 0.000000000000000 14.037500000000000
2  12 28 0 0.000000000000000 14.037500000000000
0

0101000
+138 3 -161 3 *
Wi

0101100
-137 0 -128 0 +160 10 +108 0 *
Fa
0  0.000000100000000 27 0

0101000
+107 0 *
Ve
0.000000100000071
-71.865723765939990 23.812500000000000 -216.334202653516144
0 0

0101101
*
Ve
0.000000100000000
-70.218190685019479 23.812500000000000 -218.871181121551132
0 0

0101101
*
Ed
 0.000000100000000 1 1 0
1  73 0 19.199999999999928 22.225000000000026
0

0101000
+105 11 -104 11 *
Ve
0.000000100000071
-80.675260157307960 23.812500000000000 -202.768706216999050
0 0

0101101
*
Ed
 0.000000100000000 1 1 0
1  74 0 2.565634000431664 5.707226654021458
2  13 30 0 2.565634000431664 5.707226654021458
0

0101000
+105 3 -102 3 *
Ve
0.000000100000000
-82.322793238228471 23.812500000000000 -200.231727748964062
0 0

0101101
*
Ed
 0.000000100000000 1 1 0
1  75 0 0.000000000000000 3.025000000000096
0

0101000
+100 11 -102 11 *
Ed
 0.000000100000000 1 1 0
1  76 0 23.019743878930655 32.000000000000007
0

0101000
+159 11 -100 11 *
Ed
 0.000000100000000 1 1 0
1  77 0 0.000000000000000 8.980256121068731
0

0101000
+104 11 -161 11 *
Wi

0101100
+103 10 -101 0 +99 10 +98 10 +158 0 +97 10 *
Fa
0  0.000000100000000 29 0

0101000
+96 0 *
Ed
 0.000000100000000 1 1 0
1  78 0 0.000000000000000 14.037500000000000
2  14 32 0 0.000000000000000 14.037500000000000
0

0101000
+136 3 -159 3 *
Wi

0101100
-134 0 -94 0 +157 10 -152 0 *
Fa
0  0.000000100000000 31 0

0101000
+93 0 *
Ve
0.000000100000071
-71.865723765939990 -9.775000000000000 -216.334202653516144
0 0

0101101
*
Ve
0.000000100000000
-70.218190685019479 -9.775000000000000 -218.871181121551132
0 0

0101101
*
Ed
 0.000000100000000 1 1 0
1  79 0 19.199999999999928 22.225000000000026
0

0101000
+91 13 -90 13 *
Ve
0.000000100000071
-80.675260157307960 -9.775000000000000 -202.768706216999050
0 0

0101101
*
Ed
 0.000000100000000 1 1 0
1  80 0 2.565634000431664 5.707226654021458
2  15 24 0 2.565634000431664 5.707226654021458
0

0101000
+91 3 -88 3 *
Ve
0.000000100000000
-82.322793238228471 -9.775000000000000 -200.231727748964062
0 0

0101101
*
Ed
 0.000000100000000 1 1 0
1  81 0 0.000000000000000 3.025000000000096
0

0101000
+86 13 -88 13 *
Ed
 0.000000100000000 1 1 0
1  82 0 23.019743878930655 32.000000000000007
0

0101000
+145 13 -86 13 *
Ed
 0.000000100000000 1 1 0
1  83 0 0.000000000000000 8.980256121068731
0

0101000
+90 13 -147 13 *
Wi

0101100
+89 12 -87 0 +85 12 +84 12 +144 0 +83 12 *
Fa
0  0.000000100000000 33 0

0101000
+82 0 *
Ve
0.000000100000071
-71.865723765939990 9.775000000000000 -216.334202653516144
0 0

0101101
*
Ve
0.000000100000000
-70.218190685019479 9.775000000000000 -218.871181121551132
0 0

0101101
*
Ed
 0.000000100000000 1 1 0
1  84 0 19.199999999999928 22.225000000000026
0

0101000
+80 3 -79 3 *
Ve
0.000000100000071
-80.675260157307960 9.775000000000000 -202.768706216999050
0 0

0101101
*
Ed
 0.000000100000000 1 1 0
1  85 0 2.565634000431664 5.707226654021458
2  16 30 0 2.565634000431664 5.707226654021458
0

0101000
+80 3 -77 3 *
Ve
0.000000100000000
-82.322793238228471 9.775000000000000 -200.231727748964062
0 0

0101101
*
Ed
 0.000000100000000 1 1 0
1  86 0 0.000000000000000 3.025000000000096
0

0101000
+75 3 -77 3 *
Ed
 0.000000100000000 1 1 0
1  87 0 23.019743878930655 32.000000000000007
0

0101000
+136 3 -75 3 *
Ed
 0.000000100000000 1 1 0
1  88 0 0.000000000000000 8.980256121068731
0

0101000
+79 3 -138 3 *
Wi

0101100
+78 0 -76 0 +74 0 +73 0 +135 0 +72 0 *
Fa
0  0.000000100000000 34 0

0101000
+71 0 *
Ve
0.000000100000007
-63.951543032400068 -9.775000000000000 -202.314317326623183
0 0

0101101
*
Ed
 0.000000100000000 1 1 0
1  89 0 1.039633516013720 3.245307819339878
2  17 22 0 1.039633516013720 3.245307819339878
0

0101000
+69 3 -147 3 *
Ve
0.000000100000007
-63.951543032400068 -23.812500000000000 -202.314317326623183
0 0

0101101
*
Ed
 0.000000100000000 1 1 0
1  90 0 1.039633516013720 3.245307819339878
2  18 22 0 1.039633516013720 3.245307819339878
0

0101000
+67 3 -177 3 *
Ed
 0.000000100000000 1 1 0
1  91 0 0.000000000000000 14.037500000000000
2  19 22 0 0.000000000000000 14.037500000000000
2  20 35 0 0.000000000000000 14.037500000000000
0

0101000
+67 3 -69 3 *
Wi

0101100
-68 0 +125 0 +66 0 -65 0 *
Fa
0  0.000000100000000 22 0

0101000
+64 0 *
Ve
0.000000100000014
-76.270491961623989 -23.812500000000000 -201.463954435257591
0 0

0101101
*
Ed
 0.000000100000000 1 1 0
1  92 0 5.707226654021458 6.283185307179586
2  21 24 0 5.707226654021458 6.283185307179586
0

0101000
+119 3 -62 3 *
Ed
 0.000000100000000 1 1 0
1  93 0 0.000000000000000 2.565634000431664
2  21 24 0 0.000000000000000 2.565634000431664
0

0101000
+62 3 -122 3 *
Ve
0.000000100000040
-81.055412270889605 -23.812500000000000 -196.089018033031692
0 0

0101101
*
Ed
 0.000000100000000 1 1 0
1  94 0 3.447753810612466 3.533563197364851
2  22 35 0 3.447753810612466 3.533563197364851
0

0101000
+67 3 -59 3 *
Ed
 0.000000100000000 1 1 0
1  95 0 5.027552835113200 5.941683491963595
2  18 26 0 5.027552835113200 5.941683491963595
0

0101000
+175 3 -59 3 *
Wi

0101100
-115 0 -116 0 -61 0 -60 0 -120 0 -114 0 +66 0 -58 0 +57 0 *
Fa
0  0.000000100000000 36 0

0101000
+56 0 *
Ve
0.000000100000014
-76.270491961623989 -9.774999999999999 -201.463954435257591
0 0

0101101
*
Ed
 0.000000100000000 1 1 0
1  96 0 0.000000000000000 2.565634000431664
2  23 24 0 0.000000000000000 2.565634000431664
0

0101000
+54 3 -91 3 *
Ed
 0.000000100000000 1 1 0
1  97 0 5.707226654021458 6.283185307179586
2  23 24 0 5.707226654021458 6.283185307179586
0

0101000
+88 3 -54 3 *
Ed
 0.000000100000000 1 1 0
1  98 0 2.587499999999999 16.625000000000000
3  24 25CN 24 0 2.587499999999999 16.625000000000000
0

0101000
+62 3 -54 3 *
Wi

0101100
-53 0 -87 0 -52 0 +51 0 +61 0 +118 0 +60 0 -51 0 *
Fa
0  0.000000100000000 24 0

0101000
+50 0 *
Ve
0.000000100000040
-81.055412270889605 -9.775000000000000 -196.089018033031692
0 0

0101101
*
Ed
 0.000000100000000 1 1 0
1  99 0 0.000000000000000 14.037500000000000
2  26 26 0 0.000000000000000 14.037500000000000
2  27 35 0 0.000000000000000 14.037500000000000
0

0101000
+59 3 -48 3 *
Ed
 0.000000100000000 1 1 0
1  100 0 5.027552835113200 5.941683491963595
2  17 26 0 5.027552835113200 5.941683491963595
0

0101000
+145 3 -48 3 *
Wi

0101100
+47 0 +57 0 -111 0 -46 0 *
Fa
0  0.000000100000000 26 0

0101000
+45 0 *
Ve
0.000000100000007
-63.951543032400068 23.812500000000000 -202.314317326623183
0 0

0101101
*
Ed
 0.000000100000000 1 1 0
1  101 0 1.039633516013720 3.245307819339878
2  28 28 0 1.039633516013720 3.245307819339878
0

0101000
+43 3 -161 3 *
Ve
0.000000100000007
-63.951543032400068 9.775000000000000 -202.314317326623183
0 0

0101101
*
Ed
 0.000000100000000 1 1 0
1  102 0 1.039633516013720 3.245307819339878
2  29 28 0 1.039633516013720 3.245307819339878
0

0101000
+41 3 -138 3 *
Ed
 0.000000100000000 1 1 0
1  103 0 0.000000000000000 14.037500000000000
2  30 28 0 0.000000000000000 14.037500000000000
2  31 37 0 0.000000000000000 14.037500000000000
0

0101000
+41 3 -43 3 *
Wi

0101100
-42 0 +108 0 +40 0 -39 0 *
Fa
0  0.000000100000000 28 0

0101000
+38 0 *
Ve
0.000000100000014
-76.270491961623989 23.812500000000000 -201.463954435257591
0 0

0101101
*
Ed
 0.000000100000000 1 1 0
1  104 0 5.707226654021458 6.283185307179586
2  32 30 0 5.707226654021458 6.283185307179586
0

0101000
+102 3 -36 3 *
Ed
 0.000000100000000 1 1 0
1  105 0 0.000000000000000 2.565634000431664
2  32 30 0 0.000000000000000 2.565634000431664
0

0101000
+36 3 -105 3 *
Ve
0.000000100000040
-81.055412270889605 23.812500000000000 -196.089018033031692
0 0

0101101
*
Ed
 0.000000100000000 1 1 0
1  106 0 3.447753810612466 3.533563197364851
2  33 37 0 3.447753810612466 3.533563197364851
0

0101000
+43 3 -33 3 *
Ed
 0.000000100000000 1 1 0
1  107 0 5.027552835113200 5.941683491963595
2  28 32 0 5.027552835113200 5.941683491963595
0

0101000
+159 3 -33 3 *
Wi

0101100
-98 10 -99 10 -35 0 -34 0 -103 10 -97 10 +42 0 -32 0 +31 0 *
Fa
0  0.000000100000000 38 0

0101000
+30 0 *
Ve
0.000000100000014
-76.270491961623989 9.774999999999999 -201.463954435257591
0 0

0101101
*
Ed
 0.000000100000000 1 1 0
1  108 0 36.174999999999997 50.212499999999999
3  24 25CN 30 0 36.174999999999997 50.212499999999999
0

0101000
+28 3 -36 3 *
Ed
 0.000000100000000 1 1 0
1  109 0 5.707226654021458 6.283185307179586
2  34 30 0 5.707226654021458 6.283185307179586
0

0101000
+77 3 -28 3 *
Ed
 0.000000100000000 1 1 0
1  110 0 0.000000000000000 2.565634000431664
2  34 30 0 0.000000000000000 2.565634000431664
0

0101000
+28 3 -80 3 *
Wi

0101100
-34 0 -101 0 -35 0 +27 0 +26 0 +76 0 +25 0 -27 0 *
Fa
0  0.000000100000000 30 0

0101000
+24 0 *
Ve
0.000000100000040
-81.055412270889605 9.775000000000000 -196.089018033031692
0 0

0101101
*
Ed
 0.000000100000000 1 1 0
1  111 0 0.000000000000000 14.037500000000000
2  35 32 0 0.000000000000000 14.037500000000000
2  36 37 0 0.000000000000000 14.037500000000000
0

0101000
+22 3 -33 3 *
Ed
 0.000000100000000 1 1 0
1  112 0 5.027552835113200 5.941683491963595
2  29 32 0 5.027552835113200 5.941683491963595
0

0101000
+136 3 -22 3 *
Wi

0101100
+21 0 +20 0 -94 0 -31 0 *
Fa
0  0.000000100000000 32 0

0101000
+19 0 *
Ed
 0.000000100000000 1 1 0
1  113 0 3.447753810612466 3.533563197364851
2  37 35 0 3.447753810612466 3.533563197364851
0

0101000
+69 3 -48 3 *
Wi

0101100
-84 12 -85 12 -52 0 -53 0 -89 12 -83 12 +68 0 -17 0 +46 0 *
Fa
0  0.000000100000000 39 0

0101000
+16 0 *
Ed
 0.000000100000000 1 1 0
1  114 0 3.447753810612466 3.533563197364851
2  38 37 0 3.447753810612466 3.533563197364851
0

0101000
+41 3 -22 3 *
Wi

0101100
-73 0 -74 0 -26 0 -25 0 -78 0 -72 0 +40 0 -14 0 +20 0 *
Fa
0  0.000000100000000 40 0

0101000
+13 0 *
Wi

0101100
-65 0 -17 0 +47 0 +58 0 *
Fa
0  0.000000100000000 35 0

0101000
+11 0 *
Wi

0101100
-39 0 -32 0 +21 0 +14 0 *
Fa
0  0.000000100000000 37 0

0101000
+9 0 *
Sh

0101100
+246 0 +239 0 +234 0 +229 0 -226 0 -221 0 +216 0 -213 0 +206 0 -201 0 
-196 0 +182 0 -171 0 -166 0 +155 0 -150 0 +141 0 -132 0 -129 0 -126 0 
-123 0 -112 0 -109 0 -106 0 +95 0 -92 0 +81 0 -70 0 +63 0 -55 0 
-49 0 +44 0 +37 0 +29 0 -23 0 +18 0 +15 0 -12 0 -10 0 -8 0 
*
So

0100000
+7 0 *
Co

0100000
+6 0 *
Co

0100000
+5 0 *
Co

0100000
+4 0 *
Co

0100000
+3 0 *
Co

1100000
+2 0 *

+1 1 