
CASCADE Topology V1, (c) Matra-Datavision
Locations 6
1
1.000000000000000 0.000000000000000 0.000000000000000 0.000000000000000 
0.000000000000000 1.000000000000000 0.000000000000000 0.000000000000000 
0.000000000000000 0.000000000000000 1.000000000000000 0.000000000000000 
1
1.000000000000000 0.000000000000000 0.000000000000000 0.000000000000000 
0.000000000000000 1.000000000000000 0.000000000000000 0.000000000000000 
0.000000000000000 0.000000000000000 1.000000000000000 0.000000000000000 
1
1.000000000000000 0.000000000000000 0.000000000000000 0.000000000000000 
0.000000000000000 1.000000000000000 0.000000000000000 0.000000000000000 
0.000000000000000 0.000000000000000 1.000000000000000 0.000000000000000 
2  3 -1 2 -1 0
2  2 -1 0
2  3 -1 0
Curve2ds 36
1 0.00000000000000000 51.84999999999999432 1.00000000000000000 0.00000000000000000 
1 0.00000000000000000 51.84999999999999432 1.00000000000000000 0.00000000000000000 
1 0.25810558067836720 0.00000000000000000 0.00000000000000000 1.00000000000000000 
1 6.28318530717958623 0.00000000000000000 0.00000000000000000 1.00000000000000000 
1 0.00000000000000000 0.00000000000000000 0.00000000000000000 1.00000000000000000 
1 0.00000000000000000 0.00000000000000000 1.00000000000000000 0.00000000000000000 
1 0.00000000000000000 90.15000000000000568 1.00000000000000000 0.00000000000000000 
1 6.28318530717958623 0.00000000000000000 0.00000000000000000 1.00000000000000000 
1 0.00000000000000000 0.00000000000000000 0.00000000000000000 1.00000000000000000 
1 0.00000000000000000 319.85000000000002274 1.00000000000000000 0.00000000000000000 
1 0.25810558067836720 0.00000000000000000 0.00000000000000000 1.00000000000000000 
1 0.00000000000000000 358.14999999999997726 1.00000000000000000 0.00000000000000000 
1 6.28318530717958623 0.00000000000000000 0.00000000000000000 1.00000000000000000 
1 0.00000000000000000 0.00000000000000000 0.00000000000000000 1.00000000000000000 
1 0.00000000000000000 414.85000000000002274 1.00000000000000000 0.00000000000000000 
1 0.25810558067836720 0.00000000000000000 0.00000000000000000 1.00000000000000000 
1 0.00000000000000000 453.14999999999997726 1.00000000000000000 0.00000000000000000 
1 6.28318530717958623 0.00000000000000000 0.00000000000000000 1.00000000000000000 
1 0.00000000000000000 0.00000000000000000 0.00000000000000000 1.00000000000000000 
1 0.00000000000000000 470.00000000000000000 1.00000000000000000 0.00000000000000000 
1 0.00000000000000000 453.14999999999997726 1.00000000000000000 0.00000000000000000 
1 6.02507972650121904 0.00000000000000000 0.00000000000000000 1.00000000000000000 
1 0.00000000000000000 414.85000000000002274 1.00000000000000000 0.00000000000000000 
1 0.00000000000000000 358.14999999999997726 1.00000000000000000 0.00000000000000000 
1 6.02507972650121904 0.00000000000000000 0.00000000000000000 1.00000000000000000 
1 0.00000000000000000 319.85000000000002274 1.00000000000000000 0.00000000000000000 
1 0.00000000000000000 90.15000000000000568 1.00000000000000000 0.00000000000000000 
1 6.02507972650121904 0.00000000000000000 0.00000000000000000 1.00000000000000000 
1 5.15674626905934019 0.00000000000000000 0.00000000000000000 1.00000000000000000 
1 0.00000000000000000 347.43750000000000000 1.00000000000000000 0.00000000000000000 
1 4.26803169171003915 0.00000000000000000 0.00000000000000000 1.00000000000000000 
1 0.00000000000000000 330.56250000000000000 1.00000000000000000 0.00000000000000000 
1 0.00000000000000000 8.00000000000000000 1.00000000000000000 0.00000000000000000 
1 6.28318530717958623 -0.00000000000000000 0.00000000000000000 1.00000000000000000 
1 0.00000000000000000 -0.00000000000000000 0.00000000000000000 1.00000000000000000 
1 0.00000000000000000 0.00000000000000000 1.00000000000000000 0.00000000000000000 
Curves 57
1 4.86249999999999982 -153.15000000000000568 14.18750000000000178 0.00000000000000000 0.00000000000000000 1.00000000000000000 
2 0.00000000000000000 -153.15000000000000568 0.00000000000000000 0.00000000000000000 1.00000000000000000 0.00000000000000000 0.00000000000000000 -0.00000000000000000 1.00000000000000000 1.00000000000000000 0.00000000000000000 -0.00000000000000000 19.05000000000000071
2 0.00000000000000000 -153.15000000000000568 0.00000000000000000 0.00000000000000000 1.00000000000000000 0.00000000000000000 0.00000000000000000 -0.00000000000000000 1.00000000000000000 1.00000000000000000 0.00000000000000000 -0.00000000000000000 19.05000000000000071
1 -4.86249999999999982 -153.15000000000000568 14.18750000000000178 0.00000000000000000 0.00000000000000000 1.00000000000000000 
1 -4.86249999999999982 -153.15000000000000568 14.18750000000000178 1.00000000000000000 0.00000000000000000 0.00000000000000000 
1 4.86249999999999982 -205.00000000000000000 18.41897374312695135 0.00000000000000000 1.00000000000000000 0.00000000000000000 
1 4.86249999999999982 -114.84999999999999432 14.18750000000000178 0.00000000000000000 0.00000000000000000 1.00000000000000000 
1 4.86249999999999982 -153.15000000000000568 14.18750000000000178 0.00000000000000000 1.00000000000000000 0.00000000000000000 
7 0 0  1 2 2  -0.00000000000000467 -205.00000000000000000 19.05000000000000071  -0.00000000000000467 -153.15000000000000568 19.05000000000000071 
 0.00000000000000000 2 51.84999999999999432 2
2 0.00000000000000000 -205.00000000000000000 0.00000000000000000 0.00000000000000000 1.00000000000000000 0.00000000000000000 0.00000000000000000 -0.00000000000000000 1.00000000000000000 1.00000000000000000 0.00000000000000000 -0.00000000000000000 19.05000000000000071
2 0.00000000000000000 -114.84999999999999432 0.00000000000000000 0.00000000000000000 1.00000000000000000 0.00000000000000000 0.00000000000000000 -0.00000000000000000 1.00000000000000000 1.00000000000000000 0.00000000000000000 -0.00000000000000000 19.05000000000000071
7 0 0  1 2 2  0.00000000000000000 -114.84999999999999432 19.05000000000000071  0.00000000000000000 114.85000000000002274 19.05000000000000071 
 90.15000000000000568 2 319.85000000000002274 2
2 0.00000000000000000 114.85000000000002274 0.00000000000000000 0.00000000000000000 1.00000000000000000 0.00000000000000000 0.00000000000000000 -0.00000000000000000 1.00000000000000000 1.00000000000000000 0.00000000000000000 -0.00000000000000000 19.05000000000000071
1 4.86249999999999982 -205.00000000000000000 18.41897374312695135 0.00000000000000000 1.00000000000000000 0.00000000000000000 
2 0.00000000000000000 153.14999999999997726 0.00000000000000000 0.00000000000000000 1.00000000000000000 0.00000000000000000 0.00000000000000000 -0.00000000000000000 1.00000000000000000 1.00000000000000000 0.00000000000000000 -0.00000000000000000 19.05000000000000071
7 0 0  1 2 2  0.00000000000000000 153.14999999999997726 19.05000000000000071  0.00000000000000000 209.85000000000002274 19.05000000000000071 
 358.14999999999997726 2 414.85000000000002274 2
2 0.00000000000000000 209.85000000000002274 0.00000000000000000 0.00000000000000000 1.00000000000000000 0.00000000000000000 0.00000000000000000 -0.00000000000000000 1.00000000000000000 1.00000000000000000 0.00000000000000000 -0.00000000000000000 19.05000000000000071
1 4.86249999999999982 -205.00000000000000000 18.41897374312695135 0.00000000000000000 1.00000000000000000 0.00000000000000000 
2 0.00000000000000000 248.14999999999997726 0.00000000000000000 0.00000000000000000 1.00000000000000000 0.00000000000000000 0.00000000000000000 -0.00000000000000000 1.00000000000000000 1.00000000000000000 0.00000000000000000 -0.00000000000000000 19.05000000000000071
7 0 0  1 2 2  0.00000000000000000 248.14999999999997726 19.05000000000000071  0.00000000000000000 265.00000000000000000 19.05000000000000071 
 453.14999999999997726 2 470.00000000000000000 2
2 0.00000000000000000 265.00000000000000000 0.00000000000000000 0.00000000000000000 1.00000000000000000 0.00000000000000000 0.00000000000000000 -0.00000000000000000 1.00000000000000000 1.00000000000000000 0.00000000000000000 -0.00000000000000000 19.05000000000000071
2 0.00000000000000000 248.14999999999997726 0.00000000000000000 0.00000000000000000 1.00000000000000000 0.00000000000000000 0.00000000000000000 -0.00000000000000000 1.00000000000000000 1.00000000000000000 0.00000000000000000 -0.00000000000000000 19.05000000000000071
1 -4.86249999999999982 -205.00000000000000000 18.41897374312695135 0.00000000000000000 1.00000000000000000 0.00000000000000000 
2 0.00000000000000000 209.85000000000002274 0.00000000000000000 0.00000000000000000 1.00000000000000000 0.00000000000000000 0.00000000000000000 -0.00000000000000000 1.00000000000000000 1.00000000000000000 0.00000000000000000 -0.00000000000000000 19.05000000000000071
2 0.00000000000000000 153.14999999999997726 0.00000000000000000 0.00000000000000000 1.00000000000000000 0.00000000000000000 0.00000000000000000 -0.00000000000000000 1.00000000000000000 1.00000000000000000 0.00000000000000000 -0.00000000000000000 19.05000000000000071
1 -4.86249999999999982 -205.00000000000000000 18.41897374312695135 0.00000000000000000 1.00000000000000000 0.00000000000000000 
2 0.00000000000000000 114.85000000000002274 0.00000000000000000 0.00000000000000000 1.00000000000000000 0.00000000000000000 0.00000000000000000 -0.00000000000000000 1.00000000000000000 1.00000000000000000 0.00000000000000000 -0.00000000000000000 19.05000000000000071
2 0.00000000000000000 -114.84999999999999432 0.00000000000000000 0.00000000000000000 1.00000000000000000 0.00000000000000000 0.00000000000000000 -0.00000000000000000 1.00000000000000000 1.00000000000000000 0.00000000000000000 -0.00000000000000000 19.05000000000000071
1 -4.86249999999999982 -205.00000000000000000 18.41897374312695135 0.00000000000000000 1.00000000000000000 0.00000000000000000 
1 -17.19999999999999929 -205.00000000000000000 8.18916967707960275 0.00000000000000000 1.00000000000000000 0.00000000000000000 
2 0.00000000000000000 142.43750000000000000 0.00000000000000000 0.00000000000000000 1.00000000000000000 0.00000000000000000 0.00000000000000000 -0.00000000000000000 1.00000000000000000 1.00000000000000000 0.00000000000000000 -0.00000000000000000 19.05000000000000071
1 -17.19999999999999929 -205.00000000000000000 -8.18916967707960275 0.00000000000000000 1.00000000000000000 0.00000000000000000 
2 0.00000000000000000 125.56250000000000000 0.00000000000000000 0.00000000000000000 1.00000000000000000 0.00000000000000000 0.00000000000000000 -0.00000000000000000 1.00000000000000000 1.00000000000000000 0.00000000000000000 -0.00000000000000000 19.05000000000000071
1 -4.86249999999999982 -114.84999999999999432 14.18750000000000178 0.00000000000000000 0.00000000000000000 1.00000000000000000 
1 -4.86249999999999982 -153.15000000000000568 14.18750000000000178 0.00000000000000000 1.00000000000000000 0.00000000000000000 
1 -4.86249999999999982 -114.84999999999999432 14.18750000000000178 1.00000000000000000 0.00000000000000000 0.00000000000000000 
2 0.00000000000000000 -205.00000000000000000 0.00000000000000000 0.00000000000000000 1.00000000000000000 0.00000000000000000 0.00000000000000000 -0.00000000000000000 1.00000000000000000 1.00000000000000000 0.00000000000000000 -0.00000000000000000 25.00000000000000000
1 4.86249999999999982 114.85000000000000853 14.18750000000000178 0.00000000000000000 0.00000000000000000 1.00000000000000000 
1 -4.86249999999999982 114.85000000000000853 14.18750000000000178 0.00000000000000000 0.00000000000000000 1.00000000000000000 
1 -4.86249999999999982 114.85000000000000853 14.18750000000000178 1.00000000000000000 0.00000000000000000 0.00000000000000000 
1 4.86249999999999982 153.15000000000000568 14.18750000000000178 0.00000000000000000 0.00000000000000000 1.00000000000000000 
1 4.86249999999999982 114.85000000000000853 14.18750000000000178 0.00000000000000000 1.00000000000000000 0.00000000000000000 
1 -4.86249999999999982 153.15000000000000568 14.18750000000000178 0.00000000000000000 0.00000000000000000 1.00000000000000000 
1 -4.86249999999999982 153.15000000000000568 14.18750000000000178 1.00000000000000000 0.00000000000000000 0.00000000000000000 
1 4.86249999999999982 209.84999999999999432 14.18750000000000178 0.00000000000000000 0.00000000000000000 1.00000000000000000 
1 -4.86249999999999982 209.84999999999999432 14.18750000000000178 0.00000000000000000 0.00000000000000000 1.00000000000000000 
1 -4.86249999999999982 209.84999999999999432 14.18750000000000178 1.00000000000000000 0.00000000000000000 0.00000000000000000 
1 4.86249999999999982 248.15000000000000568 14.18750000000000178 0.00000000000000000 0.00000000000000000 1.00000000000000000 
1 4.86249999999999982 209.84999999999999432 14.18750000000000178 0.00000000000000000 1.00000000000000000 0.00000000000000000 
1 -4.86249999999999982 248.15000000000000568 14.18750000000000178 0.00000000000000000 0.00000000000000000 1.00000000000000000 
1 -4.86249999999999982 248.15000000000000568 14.18750000000000178 1.00000000000000000 0.00000000000000000 0.00000000000000000 
1 -4.86249999999999982 209.84999999999999432 14.18750000000000178 0.00000000000000000 1.00000000000000000 0.00000000000000000 
1 -4.86249999999999982 114.85000000000000853 14.18750000000000178 0.00000000000000000 1.00000000000000000 0.00000000000000000 
1 -17.19999999999999929 125.56250000000000000 -8.43750000000000000 0.00000000000000000 0.00000000000000000 1.00000000000000000 
1 -17.19999999999999929 142.43750000000000000 -8.43750000000000000 0.00000000000000000 0.00000000000000000 1.00000000000000000 
1 -0.00000000000000612 -213.00000000000000000 25.00000000000000000 0.00000000000000000 1.00000000000000000 0.00000000000000000 
2 0.00000000000000000 -213.00000000000000000 0.00000000000000000 0.00000000000000000 1.00000000000000000 0.00000000000000000 0.00000000000000000 -0.00000000000000000 1.00000000000000000 1.00000000000000000 0.00000000000000000 -0.00000000000000000 25.00000000000000000
Polygon3D 0
PolygonOnTriangulations 0
Surfaces 23
1 -4.86249999999999982 -153.15000000000000568 14.18750000000000178 0.00000000000000000 1.00000000000000000 0.00000000000000000 0.00000000000000000 -0.00000000000000000 1.00000000000000000 1.00000000000000000 0.00000000000000000 -0.00000000000000000 
10 0.00000000000000000 6.28318530717958623 0.00000000000000000 470.00000000000000000
2 0.00000000000000000 -205.00000000000000000 0.00000000000000000 0.00000000000000000 1.00000000000000000 0.00000000000000000 0.00000000000000000 -0.00000000000000000 1.00000000000000000 1.00000000000000000 0.00000000000000000 -0.00000000000000000 19.05000000000000071
1 4.86249999999999982 -153.15000000000000568 14.18750000000000178 1.00000000000000000 0.00000000000000000 0.00000000000000000 0.00000000000000000 0.00000000000000000 1.00000000000000000 0.00000000000000000 -1.00000000000000000 0.00000000000000000 
1 -4.86249999999999982 -153.15000000000000568 14.18750000000000178 1.00000000000000000 0.00000000000000000 0.00000000000000000 0.00000000000000000 0.00000000000000000 1.00000000000000000 0.00000000000000000 -1.00000000000000000 0.00000000000000000 
1 -4.86249999999999982 -153.15000000000000568 14.18750000000000178 0.00000000000000000 0.00000000000000000 1.00000000000000000 1.00000000000000000 0.00000000000000000 -0.00000000000000000 -0.00000000000000000 1.00000000000000000 0.00000000000000000 
1 -4.86249999999999982 -114.84999999999999432 14.18750000000000178 0.00000000000000000 1.00000000000000000 0.00000000000000000 0.00000000000000000 -0.00000000000000000 1.00000000000000000 1.00000000000000000 0.00000000000000000 -0.00000000000000000 
1 0.00000000000000000 -205.00000000000000000 0.00000000000000000 0.00000000000000000 1.00000000000000000 0.00000000000000000 0.00000000000000000 -0.00000000000000000 1.00000000000000000 1.00000000000000000 0.00000000000000000 -0.00000000000000000 
2 0.00000000000000000 -213.00000000000000000 0.00000000000000000 0.00000000000000000 1.00000000000000000 0.00000000000000000 0.00000000000000000 -0.00000000000000000 1.00000000000000000 1.00000000000000000 0.00000000000000000 -0.00000000000000000 25.00000000000000000
1 -4.86249999999999982 114.85000000000000853 14.18750000000000178 0.00000000000000000 1.00000000000000000 0.00000000000000000 0.00000000000000000 -0.00000000000000000 1.00000000000000000 1.00000000000000000 0.00000000000000000 -0.00000000000000000 
1 4.86249999999999982 114.85000000000000853 14.18750000000000178 1.00000000000000000 0.00000000000000000 0.00000000000000000 0.00000000000000000 0.00000000000000000 1.00000000000000000 0.00000000000000000 -1.00000000000000000 0.00000000000000000 
1 -4.86249999999999982 153.15000000000000568 14.18750000000000178 0.00000000000000000 1.00000000000000000 0.00000000000000000 0.00000000000000000 -0.00000000000000000 1.00000000000000000 1.00000000000000000 0.00000000000000000 -0.00000000000000000 
1 -4.86249999999999982 209.84999999999999432 14.18750000000000178 0.00000000000000000 1.00000000000000000 0.00000000000000000 0.00000000000000000 -0.00000000000000000 1.00000000000000000 1.00000000000000000 0.00000000000000000 -0.00000000000000000 
1 4.86249999999999982 209.84999999999999432 14.18750000000000178 1.00000000000000000 0.00000000000000000 0.00000000000000000 0.00000000000000000 0.00000000000000000 1.00000000000000000 0.00000000000000000 -1.00000000000000000 0.00000000000000000 
1 -4.86249999999999982 248.15000000000000568 14.18750000000000178 0.00000000000000000 1.00000000000000000 0.00000000000000000 0.00000000000000000 -0.00000000000000000 1.00000000000000000 1.00000000000000000 0.00000000000000000 -0.00000000000000000 
1 0.00000000000000000 265.00000000000000000 0.00000000000000000 0.00000000000000000 1.00000000000000000 0.00000000000000000 0.00000000000000000 -0.00000000000000000 1.00000000000000000 1.00000000000000000 0.00000000000000000 -0.00000000000000000 
1 -4.86249999999999982 209.84999999999999432 14.18750000000000178 1.00000000000000000 0.00000000000000000 0.00000000000000000 0.00000000000000000 0.00000000000000000 1.00000000000000000 0.00000000000000000 -1.00000000000000000 0.00000000000000000 
1 -4.86249999999999982 114.85000000000000853 14.18750000000000178 1.00000000000000000 0.00000000000000000 0.00000000000000000 0.00000000000000000 0.00000000000000000 1.00000000000000000 0.00000000000000000 -1.00000000000000000 0.00000000000000000 
1 -17.19999999999999929 125.56250000000000000 -8.43750000000000000 1.00000000000000000 0.00000000000000000 0.00000000000000000 0.00000000000000000 0.00000000000000000 1.00000000000000000 0.00000000000000000 -1.00000000000000000 0.00000000000000000 
1 -40.00000000000000000 142.43750000000000000 -8.43750000000000000 0.00000000000000000 1.00000000000000000 0.00000000000000000 0.00000000000000000 -0.00000000000000000 1.00000000000000000 1.00000000000000000 0.00000000000000000 -0.00000000000000000 
1 -40.00000000000000000 125.56250000000000000 -8.43750000000000000 0.00000000000000000 1.00000000000000000 0.00000000000000000 0.00000000000000000 -0.00000000000000000 1.00000000000000000 1.00000000000000000 0.00000000000000000 -0.00000000000000000 
1 -4.86249999999999982 114.85000000000000853 14.18750000000000178 0.00000000000000000 0.00000000000000000 1.00000000000000000 1.00000000000000000 0.00000000000000000 -0.00000000000000000 -0.00000000000000000 1.00000000000000000 0.00000000000000000 
1 -4.86249999999999982 209.84999999999999432 14.18750000000000178 0.00000000000000000 0.00000000000000000 1.00000000000000000 1.00000000000000000 0.00000000000000000 -0.00000000000000000 -0.00000000000000000 1.00000000000000000 0.00000000000000000 
1 0.00000000000000000 -213.00000000000000000 0.00000000000000000 0.00000000000000000 1.00000000000000000 0.00000000000000000 0.00000000000000000 -0.00000000000000000 1.00000000000000000 1.00000000000000000 0.00000000000000000 -0.00000000000000000 
Triangulations 0

TShapes 146
Ve
0.000000100000000
4.862500000000000 -153.150000000000006 14.187500000000002
0 0

0101101
*
Ve
0.000000100000000
4.862500000000000 -153.150000000000006 18.418973743126951
0 0

0101101
*
Ed
 0.000000100000000 1 1 0
1  1 0 0.000000000000000 4.231473743126950
0

0101000
+146 4 -145 4 *
Ve
0.000010000000000
-0.000000000000005 -153.150000000000006 19.050000000000001
0 0

0101101
*
Ed
 0.000000100000000 1 1 0
1  2 0 0.000000000000000 0.258105580678367
2  1 2 0 0.000000000000000 0.258105580678367
0

0101000
+143 6 -145 6 *
Ve
0.000000100000005
-4.862500000000000 -153.150000000000006 18.418973743126951
0 0

0101101
*
Ed
 0.000000100000000 1 1 0
1  3 0 6.025079726501220 6.283185307179586
2  2 2 0 6.025079726501220 6.283185307179586
0

0101000
+141 6 -143 6 *
Ve
0.000000100000000
-4.862500000000000 -153.150000000000006 14.187500000000002
0 0

0101101
*
Ed
 0.000000100000000 1 1 0
1  4 0 0.000000000000000 4.231473743126950
0

0101000
+139 4 -141 4 *
Ed
 0.000000100000000 1 1 0
1  5 0 0.000000000000000 9.725000000000000
0

0101000
-146 4 +139 4 *
Wi

0101100
-144 0 +142 5 +140 5 +138 0 -137 0 *
Fa
0  0.000000100000000 1 0

0111000
+136 0 *
Ve
0.000000100000000
4.862500000000000 -114.849999999999994 18.418973743126951
0 0

0101101
*
Ed
 0.000000100000000 1 1 0
1  6 0 51.849999999999994 90.150000000000006
2  3 2 0 51.849999999999994 90.150000000000006
0

0101000
+145 6 -134 6 *
Ve
0.000000100000000
4.862500000000000 -114.849999999999994 14.187500000000002
0 0

0101101
*
Ed
 0.000000100000000 1 1 0
1  7 0 0.000000000000000 4.231473743126950
0

0101000
+132 4 -134 4 *
Ed
 0.000000100000000 1 1 0
1  8 0 0.000000000000000 38.300000000000011
0

0101000
-132 4 +146 4 *
Wi

0101100
-144 0 -133 5 +131 0 +130 0 *
Fa
0  0.000000100000000 3 0

0111000
+129 0 *
Ve
0.000010000000000
-0.000000000000005 -205.000000000000000 19.050000000000001
0 0

0101101
*
Ed
 0.000010000000000 1 1 0
1  9 0 0.000000000000000 51.849999999999994
3  4 5C0 2 0 0.000000000000000 51.849999999999994
0

0101000
-143 6 +127 6 *
Ed
 0.000000100000000 1 1 0
1  10 0 0.000000000000000 6.283185307179586
2  6 2 0 0.000000000000000 6.283185307179586
0

0101000
+127 6 -127 6 *
Ve
0.000010000000000
-0.000000000000005 -114.849999999999994 19.050000000000001
0 0

0101101
*
Ed
 0.000000100000000 1 1 0
1  11 0 0.000000000000000 0.258105580678367
2  7 2 0 0.000000000000000 0.258105580678367
0

0101000
+124 6 -134 6 *
Ve
0.000010000000000
-0.000000000000005 114.850000000000023 19.050000000000001
0 0

0101101
*
Ed
 0.000010000000000 1 1 0
1  12 0 90.150000000000006 319.850000000000023
3  8 9C0 2 0 90.150000000000006 319.850000000000023
0

0101000
+124 6 -122 6 *
Ve
0.000000100000014
4.862500000000000 114.850000000000009 18.418973743126951
0 0

0101101
*
Ed
 0.000000100000000 1 1 0
1  13 0 0.000000000000000 0.258105580678367
2  10 2 0 0.000000000000000 0.258105580678367
0

0101000
+122 6 -120 6 *
Ve
0.000000100000028
4.862500000000000 153.150000000000006 18.418973743126951
0 0

0101101
*
Ed
 0.000000100000000 1 1 0
1  14 0 319.850000000000023 358.149999999999977
2  11 2 0 319.850000000000023 358.149999999999977
0

0101000
+120 6 -118 6 *
Ve
0.000010000000000
-0.000000000000005 153.149999999999977 19.050000000000001
0 0

0101101
*
Ed
 0.000000100000000 1 1 0
1  15 0 0.000000000000000 0.258105580678367
2  12 2 0 0.000000000000000 0.258105580678367
0

0101000
+116 6 -118 6 *
Ve
0.000010000000000
-0.000000000000005 209.850000000000023 19.050000000000001
0 0

0101101
*
Ed
 0.000010000000000 1 1 0
1  16 0 358.149999999999977 414.850000000000023
3  13 14C0 2 0 358.149999999999977 414.850000000000023
0

0101000
+116 6 -114 6 *
Ve
0.000000100000028
4.862500000000000 209.849999999999994 18.418973743126951
0 0

0101101
*
Ed
 0.000000100000000 1 1 0
1  17 0 0.000000000000000 0.258105580678367
2  15 2 0 0.000000000000000 0.258105580678367
0

0101000
+114 6 -112 6 *
Ve
0.000000100000028
4.862500000000000 248.150000000000006 18.418973743126951
0 0

0101101
*
Ed
 0.000000100000000 1 1 0
1  18 0 414.850000000000023 453.149999999999977
2  16 2 0 414.850000000000023 453.149999999999977
0

0101000
+112 6 -110 6 *
Ve
0.000010000000000
-0.000000000000005 248.149999999999977 19.050000000000001
0 0

0101101
*
Ed
 0.000000100000000 1 1 0
1  19 0 0.000000000000000 0.258105580678367
2  17 2 0 0.000000000000000 0.258105580678367
0

0101000
+108 6 -110 6 *
Ve
0.000010000000000
-0.000000000000005 265.000000000000000 19.050000000000001
0 0

0101101
*
Ed
 0.000010000000000 1 1 0
1  20 0 453.149999999999977 470.000000000000000
3  18 19C0 2 0 453.149999999999977 470.000000000000000
0

0101000
+108 6 -106 6 *
Ed
 0.000000100000000 1 1 0
1  21 0 0.000000000000000 6.283185307179586
2  20 2 0 0.000000000000000 6.283185307179586
0

0101000
+106 6 -106 6 *
Ve
0.000000100000029
-4.862500000000000 248.150000000000006 18.418973743126951
0 0

0101101
*
Ed
 0.000000100000000 1 1 0
1  22 0 6.025079726501220 6.283185307179586
2  21 2 0 6.025079726501220 6.283185307179586
0

0101000
+103 6 -108 6 *
Ve
0.000000100000029
-4.862500000000000 209.849999999999994 18.418973743126951
0 0

0101101
*
Ed
 0.000000100000000 1 1 0
1  23 0 414.850000000000023 453.149999999999977
2  22 2 0 414.850000000000023 453.149999999999977
0

0101000
+101 6 -103 6 *
Ed
 0.000000100000000 1 1 0
1  24 0 6.025079726501220 6.283185307179586
2  23 2 0 6.025079726501220 6.283185307179586
0

0101000
+101 6 -114 6 *
Ve
0.000000100000029
-4.862500000000000 153.150000000000006 18.418973743126951
0 0

0101101
*
Ed
 0.000000100000000 1 1 0
1  25 0 6.025079726501220 6.283185307179586
2  24 2 0 6.025079726501220 6.283185307179586
0

0101000
+98 6 -116 6 *
Ve
0.000000100000015
-4.862500000000000 114.850000000000009 18.418973743126951
0 0

0101101
*
Ed
 0.000000100000000 1 1 0
1  26 0 319.850000000000023 358.149999999999977
2  25 2 0 319.850000000000023 358.149999999999977
0

0101000
+96 6 -98 6 *
Ed
 0.000000100000000 1 1 0
1  27 0 6.025079726501220 6.283185307179586
2  26 2 0 6.025079726501220 6.283185307179586
0

0101000
+96 6 -122 6 *
Ve
0.000000100000005
-4.862500000000000 -114.849999999999994 18.418973743126951
0 0

0101101
*
Ed
 0.000000100000000 1 1 0
1  28 0 6.025079726501220 6.283185307179586
2  27 2 0 6.025079726501220 6.283185307179586
0

0101000
+93 6 -124 6 *
Ed
 0.000000100000000 1 1 0
1  29 0 51.849999999999994 90.150000000000006
2  28 2 0 51.849999999999994 90.150000000000006
0

0101000
+141 6 -93 6 *
Wi

0101100
-140 0 +126 0 +125 0 -126 0 -142 0 -133 0 +123 0 -121 0 -119 0 -117 0 
+115 0 -113 0 -111 0 -109 0 +107 0 -105 0 -104 0 +105 0 +102 0 +100 0 
-99 0 +113 0 +97 0 +95 0 -94 0 +121 0 +92 0 +91 0 *
Ve
0.000000100000016
-17.199999999999999 125.562500000000000 8.189169677079605
0 0

0101101
*
Ve
0.000000100000016
-17.199999999999999 142.437500000000000 8.189169677079605
0 0

0101101
*
Ed
 0.000000100000000 1 1 0
1  30 0 330.562500000000000 347.437500000000000
2  29 2 0 330.562500000000000 347.437500000000000
0

0101000
+89 6 -88 6 *
Ve
0.000000100000025
-17.199999999999999 142.437500000000000 -8.189169677079603
0 0

0101101
*
Ed
 0.000000100000000 1 1 0
1  31 0 4.268031691710041 5.156746269059341
2  30 2 0 4.268031691710041 5.156746269059341
0

0101000
+86 6 -88 6 *
Ve
0.000000100000025
-17.199999999999999 125.562500000000000 -8.189169677079603
0 0

0101101
*
Ed
 0.000000100000000 1 1 0
1  32 0 330.562500000000000 347.437500000000000
2  31 2 0 330.562500000000000 347.437500000000000
0

0101000
+84 6 -86 6 *
Ed
 0.000000100000000 1 1 0
1  33 0 4.268031691710041 5.156746269059341
2  32 2 0 4.268031691710041 5.156746269059341
0

0101000
+84 6 -89 6 *
Wi

0101100
-87 0 +85 0 +83 0 -82 0 *
Fa
0  0.000000100000000 2 0

0111000
+90 0 +81 0 *
Ve
0.000000100000000
-4.862500000000000 -114.849999999999994 14.187500000000002
0 0

0101101
*
Ed
 0.000000100000000 1 1 0
1  34 0 0.000000000000000 4.231473743126950
0

0101000
+79 4 -93 4 *
Ed
 0.000000100000000 1 1 0
1  35 0 0.000000000000000 38.300000000000011
0

0101000
-79 4 +139 4 *
Wi

0101100
-138 0 -91 5 +78 0 +77 0 *
Fa
0  0.000000100000000 4 0

0111000
+76 0 *
Ed
 0.000000100000000 1 1 0
1  36 0 0.000000000000000 9.725000000000000
0

0101000
-132 4 +79 4 *
Wi

0101100
-77 0 -74 0 +130 0 +137 0 *
Fa
0  0.000000100000000 5 0

0111000
+73 0 *
Wi

0101100
-131 0 +123 5 +92 5 +78 0 -74 0 *
Fa
0  0.000000100000000 6 0

0111000
+71 0 *
Ve
0.000000100000000
-0.000000000000006 -205.000000000000000 25.000000000000000
0 0

0101101
*
Ed
 0.000000100000000 1 1 0
1  37 0 0.000000000000000 6.283185307179586
2  33 8 0 0.000000000000000 6.283185307179586
0

0101000
+69 4 -69 4 *
Wi

0101100
+68 0 *
Wi

0101100
-125 5 *
Fa
0  0.000000100000000 7 0

0111000
+67 0 +66 0 *
Ve
0.000000100000000
4.862500000000000 114.850000000000009 14.187500000000002
0 0

0101101
*
Ed
 0.000000100000000 1 1 0
1  38 0 0.000000000000000 4.231473743126950
0

0101000
+64 4 -120 4 *
Ve
0.000000100000000
-4.862500000000000 114.850000000000009 14.187500000000002
0 0

0101101
*
Ed
 0.000000100000000 1 1 0
1  39 0 0.000000000000000 4.231473743126950
0

0101000
+62 4 -96 4 *
Ed
 0.000000100000000 1 1 0
1  40 0 0.000000000000000 9.725000000000000
0

0101000
-64 4 +62 4 *
Wi

0101100
-63 0 +119 5 +94 5 +61 0 -60 0 *
Fa
0  0.000000100000000 9 0

0111000
+59 0 *
Ve
0.000000100000000
4.862500000000000 153.150000000000006 14.187500000000002
0 0

0101101
*
Ed
 0.000000100000000 1 1 0
1  41 0 0.000000000000000 4.231473743126950
0

0101000
+57 4 -118 4 *
Ed
 0.000000100000000 1 1 0
1  42 0 0.000000000000000 38.299999999999997
0

0101000
-57 4 +64 4 *
Wi

0101100
-63 0 -117 5 +56 0 +55 0 *
Fa
0  0.000000100000000 10 0

0111000
+54 0 *
Ve
0.000000100000000
-4.862500000000000 153.150000000000006 14.187500000000002
0 0

0101101
*
Ed
 0.000000100000000 1 1 0
1  43 0 0.000000000000000 4.231473743126950
0

0101000
+52 4 -98 4 *
Ed
 0.000000100000000 1 1 0
1  44 0 0.000000000000000 9.725000000000000
0

0101000
-57 4 +52 4 *
Wi

0101100
-56 0 +115 5 +97 5 +51 0 -50 0 *
Fa
0  0.000000100000000 11 0

0111000
+49 0 *
Ve
0.000000100000000
4.862500000000000 209.849999999999994 14.187500000000002
0 0

0101101
*
Ed
 0.000000100000000 1 1 0
1  45 0 0.000000000000000 4.231473743126950
0

0101000
+47 4 -112 4 *
Ve
0.000000100000000
-4.862500000000000 209.849999999999994 14.187500000000002
0 0

0101101
*
Ed
 0.000000100000000 1 1 0
1  46 0 0.000000000000000 4.231473743126950
0

0101000
+45 4 -101 4 *
Ed
 0.000000100000000 1 1 0
1  47 0 0.000000000000000 9.725000000000000
0

0101000
-47 4 +45 4 *
Wi

0101100
-46 0 +111 5 +99 5 +44 0 -43 0 *
Fa
0  0.000000100000000 12 0

0111000
+42 0 *
Ve
0.000000100000000
4.862500000000000 248.150000000000006 14.187500000000002
0 0

0101101
*
Ed
 0.000000100000000 1 1 0
1  48 0 0.000000000000000 4.231473743126950
0

0101000
+40 4 -110 4 *
Ed
 0.000000100000000 1 1 0
1  49 0 0.000000000000000 38.300000000000011
0

0101000
-40 4 +47 4 *
Wi

0101100
-46 0 -109 5 +39 0 +38 0 *
Fa
0  0.000000100000000 13 0

0111000
+37 0 *
Ve
0.000000100000000
-4.862500000000000 248.150000000000006 14.187500000000002
0 0

0101101
*
Ed
 0.000000100000000 1 1 0
1  50 0 0.000000000000000 4.231473743126950
0

0101000
+35 4 -103 4 *
Ed
 0.000000100000000 1 1 0
1  51 0 0.000000000000000 9.725000000000000
0

0101000
-40 4 +35 4 *
Wi

0101100
-39 0 +107 5 +102 5 +34 0 -33 0 *
Fa
0  0.000000100000000 14 0

0111000
+32 0 *
Wi

0101100
+104 5 *
Fa
0  0.000000100000000 15 0

0111000
+30 0 *
Ed
 0.000000100000000 1 1 0
1  52 0 0.000000000000000 38.300000000000011
0

0101000
-35 4 +45 4 *
Wi

0101100
-44 0 -100 5 +34 0 +28 0 *
Fa
0  0.000000100000000 16 0

0111000
+27 0 *
Ed
 0.000000100000000 1 1 0
1  53 0 0.000000000000000 38.299999999999997
0

0101000
-52 4 +62 4 *
Wi

0101100
-61 0 -95 5 +51 0 +25 0 *
Fa
0  0.000000100000000 17 0

0111000
+24 0 *
Ed
 0.000000100000000 1 1 0
1  54 0 0.248330322920397 16.626669677079605
0

0101000
+84 6 -89 6 *
Ed
 0.000000100000000 1 1 0
1  55 0 0.248330322920397 16.626669677079605
0

0101000
+86 6 -88 6 *
Wi

0101100
-22 0 -87 0 +21 0 +83 0 *
Fa
0  0.000000100000000 18 0

0111000
+20 0 *
Wi

0101100
-21 0 +85 0 *
Fa
0  0.000000100000000 19 0

0111000
+18 0 *
Wi

0101100
-22 0 +82 0 *
Fa
0  0.000000100000000 20 0

0111000
+16 0 *
Ve
0.000000100000000
-0.000000000000006 -213.000000000000000 25.000000000000000
0 0

0101101
*
Ed
 0.000000100000000 1 1 0
1  56 0 0.000000000000000 8.000000000000000
3  34 35CN 8 0 0.000000000000000 8.000000000000000
0

0101000
-69 4 +14 4 *
Ed
 0.000000100000000 1 1 0
1  57 0 0.000000000000000 6.283185307179586
2  36 8 0 0.000000000000000 6.283185307179586
0

0101000
+14 4 -14 4 *
Wi

0101100
-68 0 +13 0 +12 0 -13 0 *
Fa
0  0.000000100000000 8 0

0111000
+11 0 *
Wi

0101100
-25 0 -50 0 +55 0 +60 0 *
Fa
0  0.000000100000000 21 0

0111000
+9 0 *
Wi

0101100
-28 0 -33 0 +38 0 +43 0 *
Fa
0  0.000000100000000 22 0

0111000
+7 0 *
Wi

0101100
-12 0 *
Fa
0  0.000000100000000 23 0

0111000
-5 0 *
Sh

0101100
+135 2 -128 2 +80 0 +75 2 +72 2 -70 2 +65 2 +58 2 -53 2 -48 2 
+41 2 -36 2 -31 2 +29 2 +26 2 +23 2 -19 0 -17 0 +15 0 +10 2 
+8 2 +6 2 -4 2 *
So

0100000
+3 0 *
Co

1100000
+2 0 *

+1 1 