
CASCADE Topology V1, (c) Matra-Datavision
Locations 13
1
1.000000000000000 0.000000000000000 0.000000000000000 0.000000000000000 
0.000000000000000 1.000000000000000 0.000000000000000 0.000000000000000 
0.000000000000000 0.000000000000000 1.000000000000000 0.000000000000000 
1
1.000000000000000 0.000000000000000 0.000000000000000 0.000000000000000 
0.000000000000000 1.000000000000000 0.000000000000000 16.000000000000000 
0.000000000000000 0.000000000000000 1.000000000000000 0.000000000000000 
1
1.000000000000000 0.000000000000000 0.000000000000000 0.000000000000000 
0.000000000000000 1.000000000000000 0.000000000000000 0.000000000000000 
0.000000000000000 0.000000000000000 1.000000000000000 0.000000000000000 
2  3 -1 2 -1 0
2  3 -1 0
1
1.000000000000000 0.000000000000000 0.000000000000000 0.000000000000000 
0.000000000000000 1.000000000000000 0.000000000000000 514.350000000000023 
0.000000000000000 0.000000000000000 1.000000000000000 0.000000000000000 
2  3 -1 6 -1 0
1
1.000000000000000 0.000000000000000 0.000000000000000 -12.682847136759323 
0.000000000000000 1.000000000000000 0.000000000000000 9.754249766414421 
0.000000000000000 0.000000000000000 1.000000000000000 0.000000000000000 
2  3 -1 8 -1 0
1
1.000000000000000 0.000000000000000 0.000000000000000 -16.000000000000000 
0.000000000000000 1.000000000000000 0.000000000000000 0.000000000000000 
0.000000000000000 0.000000000000000 1.000000000000000 0.000000000000000 
2  3 -1 10 -1 0
1
1.000000000000000 0.000000000000000 0.000000000000000 0.000000000000000 
0.000000000000000 1.000000000000000 0.000000000000000 498.350000000000023 
0.000000000000000 0.000000000000000 1.000000000000000 0.000000000000000 
2  3 -1 12 -1 0
Curve2ds 0
Curves 48
1 -865.55000000000018190 -514.35000000000002274 571.50000000000000000 -0.95782628522115143 0.00000000000000000 -0.28734788556634544 
1 -865.55000000000018190 -514.35000000000002274 571.50000000000000000 0.00000000000000000 1.00000000000000000 0.00000000000000000 
1 -1115.55000000000018190 -514.35000000000002274 496.50000000000000000 0.95782628522115143 0.00000000000000000 0.28734788556634544 
1 -1115.55000000000018190 -514.35000000000002274 496.50000000000000000 0.00000000000000000 1.00000000000000000 0.00000000000000000 
1 1015.55000000000018190 -514.35000000000002274 571.50000000000000000 0.60964061040090145 0.79267794604745778 0.00000000000000000 
1 1225.55000000000018190 241.30000000000001137 571.50000000000000000 0.00000000000000000 -1.00000000000000000 0.00000000000000000 
1 -865.55000000000018190 -514.35000000000002274 571.50000000000000000 1.00000000000000000 0.00000000000000000 0.00000000000000000 
1 509.89554655870455235 -371.47500000000002274 571.50000000000000000 0.00000000000000000 -1.00000000000000000 0.00000000000000000 
1 -406.42722672064786593 -228.60000000000002274 571.50000000000000000 1.00000000000000000 0.00000000000000000 0.00000000000000000 
1 52.69554655870446425 -371.47500000000002274 571.50000000000000000 0.00000000000000000 -1.00000000000000000 0.00000000000000000 
1 -865.55000000000018190 -514.35000000000002274 571.50000000000000000 1.00000000000000000 0.00000000000000000 0.00000000000000000 
1 -253.89473684210531701 -357.98125000000004547 571.50000000000000000 0.00000000000000000 -1.00000000000000000 0.00000000000000000 
1 -813.72236842105280630 -201.61250000000001137 571.50000000000000000 1.00000000000000000 0.00000000000000000 0.00000000000000000 
1 -761.89473684210531701 -357.98125000000004547 571.50000000000000000 0.00000000000000000 -1.00000000000000000 0.00000000000000000 
1 -865.55000000000018190 -514.35000000000002274 571.50000000000000000 1.00000000000000000 0.00000000000000000 0.00000000000000000 
1 349.51998866396758103 -498.35000000000002274 571.50000000000000000 -1.00000000000000000 0.00000000000000000 0.00000000000000000 
1 -1209.16202562430521539 -498.35000000000002274 0.00000000000000000 0.21630578707325868 0.00000000000000000 0.97632566619884487 
1 -864.66938698217904857 -514.35000000000002274 565.50000000000000000 -0.95782628522115143 0.00000000000000000 -0.28734788556634544 
1 1225.55000000000018190 -514.35000000000002274 565.50000000000000000 -1.00000000000000000 0.00000000000000000 0.00000000000000000 
1 -761.89473684210531701 0.00000000000000000 517.86755753648526479 0.00000000000000000 0.00000000000000000 -1.00000000000000000 
1 -1099.16202562430521539 -498.35000000000002274 496.50000000000000000 -1.00000000000000000 0.00000000000000000 0.00000000000000000 
1 -1099.16202562430521539 -498.35000000000002274 496.50000000000000000 0.00000000000000000 1.00000000000000000 0.00000000000000000 
1 -1099.16202562430521539 -498.35000000000002274 496.50000000000000000 -1.00000000000000000 0.00000000000000000 0.00000000000000000 
1 -864.66938698217904857 -514.35000000000002274 565.50000000000000000 0.00000000000000000 1.00000000000000000 0.00000000000000000 
1 -761.89473684210543070 -357.98125000000004547 565.50000000000000000 0.00000000000000000 1.00000000000000000 0.00000000000000000 
1 231.82763157894743244 -201.61250000000001137 565.50000000000000000 -1.00000000000000000 0.00000000000000000 0.00000000000000000 
1 -253.89473684210537385 -357.98125000000004547 565.50000000000000000 0.00000000000000000 1.00000000000000000 0.00000000000000000 
1 1225.55000000000018190 -514.35000000000002274 565.50000000000000000 -1.00000000000000000 0.00000000000000000 0.00000000000000000 
1 52.69554655870452109 -371.47500000000002274 565.50000000000000000 0.00000000000000000 1.00000000000000000 0.00000000000000000 
1 639.12277327935237281 -228.60000000000002274 565.50000000000000000 -1.00000000000000000 0.00000000000000000 0.00000000000000000 
1 509.89554655870449551 -371.47500000000002274 565.50000000000000000 0.00000000000000000 1.00000000000000000 0.00000000000000000 
1 1225.55000000000018190 -514.35000000000002274 565.50000000000000000 -1.00000000000000000 0.00000000000000000 0.00000000000000000 
1 1209.55000000000018190 -257.17500000000001137 565.50000000000000000 0.00000000000000000 1.00000000000000000 0.00000000000000000 
1 1094.39162861748900468 -385.59214021121647420 565.50000000000000000 -0.60964061040090134 -0.79267794604745778 0.00000000000000000 
1 1072.29869716599205276 -498.35000000000002274 565.50000000000000000 1.00000000000000000 0.00000000000000000 0.00000000000000000 
1 -1099.48188986419791036 -506.35000000000002274 495.05624913539446652 0.00000000000000000 1.00000000000000000 0.00000000000000000 
1 -692.47441769908573406 -498.35000000000013642 617.15849078492806257 0.95782628522115143 0.00000000000000000 0.28734788556634544 
1 -1209.16202562430521539 -498.35000000000002274 0.00000000000000000 0.21630578707325868 0.00000000000000000 0.97632566619884487 
1 1007.67069634997528738 -498.35000000000002274 285.75000000000000000 0.00000000000000000 0.00000000000000000 -1.00000000000000000 
1 1209.55000000000018190 -235.85883875409874122 368.29999999999995453 0.00000000000000000 0.00000000000000000 1.00000000000000000 
1 1209.55000000000018190 0.00000000000000000 507.54255753648521932 0.00000000000000000 0.00000000000000000 -1.00000000000000000 
1 509.89554655870449551 0.00000000000000000 517.86755753648526479 0.00000000000000000 0.00000000000000000 -1.00000000000000000 
1 509.89554655870449551 -228.59999999999999432 471.50000000000000000 0.00000000000000000 0.00000000000000000 1.00000000000000000 
1 52.69554655870447846 -228.59999999999999432 471.50000000000000000 0.00000000000000000 0.00000000000000000 1.00000000000000000 
1 52.69554655870447846 0.00000000000000000 517.86755753648526479 0.00000000000000000 0.00000000000000000 -1.00000000000000000 
1 -253.89473684210531701 0.00000000000000000 517.86755753648526479 0.00000000000000000 0.00000000000000000 -1.00000000000000000 
1 -253.89473684210531701 -201.61250000000001137 471.50000000000000000 0.00000000000000000 0.00000000000000000 1.00000000000000000 
1 -761.89473684210531701 -201.61250000000001137 471.50000000000000000 0.00000000000000000 0.00000000000000000 1.00000000000000000 
Polygon3D 0
PolygonOnTriangulations 0
Surfaces 18
1 -1115.55000000000018190 -514.35000000000002274 496.50000000000000000 0.28734788556634544 0.00000000000000000 -0.95782628522115143 0.95782628522115143 0.00000000000000000 0.28734788556634544 0.00000000000000000 -1.00000000000000000 0.00000000000000000 
1 -865.55000000000018190 -514.35000000000002274 571.50000000000000000 0.00000000000000000 0.00000000000000000 -1.00000000000000000 1.00000000000000000 0.00000000000000000 0.00000000000000000 0.00000000000000000 -1.00000000000000000 0.00000000000000000 
1 50.04654940635293059 -514.35000000000002274 564.23511507297052958 0.00000000000000000 1.00000000000000000 0.00000000000000000 0.00000000000000000 0.00000000000000000 1.00000000000000000 1.00000000000000000 0.00000000000000000 0.00000000000000000 
1 -1099.16202562430521539 -498.35000000000002274 496.50000000000000000 0.00000000000000000 0.00000000000000000 1.00000000000000000 -1.00000000000000000 0.00000000000000000 0.00000000000000000 0.00000000000000000 -1.00000000000000000 0.00000000000000000 
1 1225.55000000000018190 -514.35000000000002274 565.50000000000000000 0.00000000000000000 0.00000000000000000 1.00000000000000000 -1.00000000000000000 0.00000000000000000 0.00000000000000000 0.00000000000000000 -1.00000000000000000 0.00000000000000000 
1 -864.66938698217904857 -514.35000000000002274 565.50000000000000000 -0.28734788556634544 0.00000000000000000 0.95782628522115143 -0.95782628522115143 0.00000000000000000 -0.28734788556634544 0.00000000000000000 -1.00000000000000000 0.00000000000000000 
1 -1209.16202562430521539 -498.35000000000002274 0.00000000000000000 0.97632566619884487 0.00000000000000000 -0.21630578707325868 0.21630578707325868 0.00000000000000000 0.97632566619884487 0.00000000000000000 -1.00000000000000000 0.00000000000000000 
1 1120.54999999999995453 -377.82499999999993179 285.75000000000000000 -0.79267794604745778 0.60964061040090134 0.00000000000000000 -0.60964061040090134 -0.79267794604745778 0.00000000000000000 0.00000000000000000 0.00000000000000000 1.00000000000000000 
1 1225.55000000000018190 0.00000000000000000 450.84999999999996589 1.00000000000000000 0.00000000000000000 0.00000000000000000 0.00000000000000000 0.00000000000000000 1.00000000000000000 0.00000000000000000 -1.00000000000000000 0.00000000000000000 
1 50.04654940635293059 -514.35000000000002274 564.23511507297052958 0.00000000000000000 1.00000000000000000 0.00000000000000000 0.00000000000000000 0.00000000000000000 1.00000000000000000 1.00000000000000000 0.00000000000000000 0.00000000000000000 
1 509.89554655870449551 -228.59999999999999432 471.50000000000000000 1.00000000000000000 0.00000000000000000 0.00000000000000000 0.00000000000000000 0.00000000000000000 1.00000000000000000 0.00000000000000000 -1.00000000000000000 0.00000000000000000 
1 52.69554655870447846 -228.59999999999999432 471.50000000000000000 0.00000000000000000 1.00000000000000000 0.00000000000000000 0.00000000000000000 0.00000000000000000 1.00000000000000000 1.00000000000000000 0.00000000000000000 0.00000000000000000 
1 52.69554655870447846 -228.59999999999999432 471.50000000000000000 1.00000000000000000 0.00000000000000000 0.00000000000000000 0.00000000000000000 0.00000000000000000 1.00000000000000000 0.00000000000000000 -1.00000000000000000 0.00000000000000000 
1 50.04654940635293059 -514.35000000000002274 564.23511507297052958 0.00000000000000000 1.00000000000000000 0.00000000000000000 0.00000000000000000 0.00000000000000000 1.00000000000000000 1.00000000000000000 0.00000000000000000 0.00000000000000000 
1 -253.89473684210531701 -201.61250000000001137 471.50000000000000000 1.00000000000000000 0.00000000000000000 0.00000000000000000 0.00000000000000000 0.00000000000000000 1.00000000000000000 0.00000000000000000 -1.00000000000000000 0.00000000000000000 
1 -761.89473684210531701 -201.61250000000001137 471.50000000000000000 0.00000000000000000 1.00000000000000000 0.00000000000000000 0.00000000000000000 0.00000000000000000 1.00000000000000000 1.00000000000000000 0.00000000000000000 0.00000000000000000 
1 -761.89473684210531701 -201.61250000000001137 471.50000000000000000 1.00000000000000000 0.00000000000000000 0.00000000000000000 0.00000000000000000 0.00000000000000000 1.00000000000000000 0.00000000000000000 -1.00000000000000000 0.00000000000000000 
1 -57.54533885843108720 -498.35000000000013642 563.90186066740579918 -0.00000000000000000 -1.00000000000000000 -0.00000000000000000 0.00000000000000000 0.00000000000000000 -1.00000000000000000 1.00000000000000000 0.00000000000000000 0.00000000000000000 
Triangulations 0

TShapes 119
Ve
0.000000150000000
-865.550000000000182 -498.350000000000023 571.500000000000000
0 0

0101101
*
Ve
0.000000150000114
-1115.550000000000182 -498.350000000000023 496.500000000000000
0 0

0101101
*
Ed
 0.000000150000000 1 1 0
1  1 0 0.000000000000000 261.007662722763769
0

0101000
+119 4 -118 4 *
Ve
0.000000100000000
-865.550000000000182 0.000000000000000 571.500000000000000
0 0

0101101
*
Ed
 0.000000100000000 1 1 0
1  2 0 16.000000000000000 514.350000000000023
0

0101000
+119 5 -116 5 *
Ve
0.000000100000057
-1115.550000000000182 0.000000000000000 496.500000000000000
0 0

0101101
*
Ed
 0.000000100000000 1 1 0
1  3 0 0.000000000000000 261.007662722763769
0

0101000
+114 7 -116 7 *
Ed
 0.000000100000000 1 1 0
1  4 0 16.000000000000000 514.350000000000023
0

0101000
+118 5 -114 5 *
Wi

0101100
+117 2 -115 0 +113 6 +112 0 *
Fa
0  0.000000100000000 1 0

0111000
+111 0 *
Ve
0.000000150000568
1007.670696349975856 -498.350000000000023 571.500000000000000
0 0

0101101
*
Ve
0.000000150000540
1209.550000000000182 -235.858838754099281 571.500000000000000
0 0

0101101
*
Ed
 0.000000100000000 1 1 0
1  5 0 7.879303650024408 339.024080106546762
0

0101000
+109 9 -108 9 *
Ve
0.000000150000000
1209.550000000000182 0.000000000000000 571.500000000000000
0 0

0101101
*
Ed
 0.000000100000000 1 1 0
1  6 0 241.300000000000011 477.158838754099293
0

0101000
+106 11 -108 11 *
Ve
0.000000150000127
509.895546558704609 0.000000000000000 571.500000000000000
0 0

0101101
*
Ed
 0.000000100000000 1 1 0
1  7 0 1375.445546558704791 2075.100000000000364
0

0101000
+104 7 -106 7 *
Ve
0.000000150000064
509.895546558704496 -228.599999999999994 571.500000000000000
0 0

0101101
*
Ed
 0.000000150000000 1 1 0
1  8 0 -371.475000000000136 -142.875000000000028
0

0101000
+104 5 -102 5 *
Ve
0.000000150000040
52.695546558704478 -228.599999999999994 571.500000000000000
0 0

0101101
*
Ed
 0.000000150000000 1 1 0
1  9 0 459.122773279352373 916.322773279352418
0

0101000
+100 5 -102 5 *
Ve
0.000000150000115
52.695546558704450 0.000000000000000 571.500000000000000
0 0

0101101
*
Ed
 0.000000150000000 1 1 0
1  10 0 -371.475000000000136 -142.875000000000028
0

0101000
+98 5 -100 5 *
Ve
0.000000150000114
-253.894736842105317 0.000000000000000 571.500000000000000
0 0

0101101
*
Ed
 0.000000100000000 1 1 0
1  11 0 611.655263157894865 918.245546558704632
0

0101000
+96 7 -98 7 *
Ve
0.000000150000000
-253.894736842105317 -201.612500000000011 571.500000000000000
0 0

0101101
*
Ed
 0.000000150000000 1 1 0
1  12 0 -357.981250000000159 -156.368750000000034
0

0101000
+96 5 -94 5 *
Ve
0.000000150000000
-761.894736842105317 -201.612500000000011 571.500000000000000
0 0

0101101
*
Ed
 0.000000150000000 1 1 0
1  13 0 51.827631578947489 559.827631578947489
0

0101000
+92 5 -94 5 *
Ve
0.000000150000114
-761.894736842105317 0.000000000000000 571.500000000000000
0 0

0101101
*
Ed
 0.000000150000000 1 1 0
1  14 0 -357.981250000000159 -156.368750000000034
0

0101000
+90 5 -92 5 *
Ed
 0.000000100000000 1 1 0
1  15 0 0.000000000000000 103.655263157894865
0

0101000
+116 7 -90 7 *
Ed
 0.000000100000000 1 1 0
1  16 0 -658.150707686008218 1215.069988663967706
0

0101000
+109 5 -119 5 *
Wi

0101000
-107 8 +105 10 +103 6 -101 0 +99 0 +97 0 +95 6 -93 0 +91 0 +89 0 
+88 6 +115 0 +87 0 *
Fa
0  0.000000100000000 2 0

0111000
+86 0 *
Ve
0.000000150000227
-1099.481889864197683 0.000000000000000 495.056249135394467
0 0

0101101
*
Ve
0.000000100000000
-1099.162025624305215 0.000000000000000 496.500000000000000
0 0

0101101
*
Ed
 0.000000100000000 1 1 0
1  17 0 507.060570334907197 508.539329845784891
0

0101000
+84 13 -83 13 *
Ve
0.000000100000000
-864.669386982179049 0.000000000000000 565.500000000000000
0 0

0101101
*
Ed
 0.000000100000000 1 1 0
1  18 0 0.000000000000000 245.151450221271602
0

0101000
+81 7 -84 7 *
Ve
0.000000150000114
-761.894736842105431 0.000000000000000 565.500000000000000
0 0

0101101
*
Ed
 0.000000100000000 1 1 0
1  19 0 1987.444736842105613 2090.219386982179458
0

0101000
+79 7 -81 7 *
Ed
 0.000000150000000 1 1 0
1  20 0 -53.632442463514749 -47.632442463514735
0

0101000
+90 5 -79 5 *
Ed
 0.000000100000000 1 1 0
1  21 0 0.000000000000000 16.387974375694967
0

0101000
+83 13 -114 13 *
Wi

0101100
+82 12 +80 6 +78 6 +77 0 +88 6 +113 6 +76 12 *
Fa
0  0.000000100000000 3 6

0111000
+75 0 *
Ve
0.000000150000000
-1099.162025624305215 -498.350000000000023 496.500000000000000
0 0

0101101
*
Ed
 0.000000100000000 1 1 0
1  22 0 0.000000000000000 498.350000000000023
0

0101000
+73 5 -83 5 *
Ed
 0.000000150000000 1 1 0
1  23 0 0.000000000000000 16.387974375694967
0

0101000
+73 5 -118 5 *
Wi

0101100
+72 0 -112 0 -71 0 +76 12 *
Fa
0  0.000000100000000 4 0

0111000
+70 0 *
Ve
0.000000150000227
-864.669386982179049 -498.350000000000136 565.500000000000000
0 0

0101101
*
Ed
 0.000000100000000 1 1 0
1  24 0 15.999999999999886 514.350000000000023
0

0101000
+68 5 -81 5 *
Ve
0.000000150000114
-761.894736842105317 -201.612500000000011 565.500000000000000
0 0

0101101
*
Ed
 0.000000150000000 1 1 0
1  25 0 156.368750000000034 357.981250000000045
0

0101000
+66 5 -79 5 *
Ve
0.000000150000057
-253.894736842105317 -201.612500000000011 565.500000000000000
0 0

0101101
*
Ed
 0.000000150000000 1 1 0
1  26 0 485.722368421052806 993.722368421052806
0

0101000
+64 5 -66 5 *
Ve
0.000000150000114
-253.894736842105431 0.000000000000000 565.500000000000000
0 0

0101101
*
Ed
 0.000000150000000 1 1 0
1  27 0 156.368750000000034 357.981250000000045
0

0101000
+64 5 -62 5 *
Ve
0.000000150000085
52.695546558704564 0.000000000000000 565.500000000000000
0 0

0101101
*
Ed
 0.000000100000000 1 1 0
1  28 0 1172.854453441295618 1479.444736842105613
0

0101000
+60 7 -62 7 *
Ve
0.000000150000043
52.695546558704478 -228.599999999999994 565.500000000000000
0 0

0101101
*
Ed
 0.000000150000000 1 1 0
1  29 0 142.875000000000028 371.475000000000023
0

0101000
+58 5 -60 5 *
Ve
0.000000150000028
509.895546558704496 -228.599999999999994 565.500000000000000
0 0

0101101
*
Ed
 0.000000150000000 1 1 0
1  30 0 129.227226720647877 586.427226720647923
0

0101000
+56 5 -58 5 *
Ve
0.000000150000000
509.895546558704496 0.000000000000000 565.500000000000000
0 0

0101101
*
Ed
 0.000000150000000 1 1 0
1  31 0 142.875000000000028 371.475000000000023
0

0101000
+56 5 -54 5 *
Ve
0.000000150000000
1209.550000000000182 0.000000000000000 565.500000000000000
0 0

0101101
*
Ed
 0.000000100000000 1 1 0
1  32 0 16.000000000000000 715.654453441295686
0

0101000
+52 7 -54 7 *
Ve
0.000000150000057
1209.550000000000182 -235.858838754098770 565.500000000000000
0 0

0101101
*
Ed
 0.000000150000000 1 1 0
1  33 0 21.316161245901242 257.175000000000011
0

0101000
+50 5 -52 5 *
Ve
0.000000150000227
1007.670696349975515 -498.350000000000023 565.500000000000000
0 0

0101101
*
Ed
 0.000000150000000 1 1 0
1  34 0 -188.895505676340690 142.249270780182314
0

0101000
+50 5 -48 5 *
Ed
 0.000000100000000 1 1 0
1  35 0 -1936.968084148171101 -64.628000816016538
0

0101000
+68 5 -48 5 *
Wi

0101000
-67 0 +78 6 +65 0 +63 0 -61 0 +59 6 +57 0 +55 0 -53 0 +51 6 
+49 0 -47 0 +46 0 *
Fa
0  0.000000100000000 5 0

0111000
+45 0 *
Ve
0.000000150000241
-1099.481889864197683 -498.350000000000080 495.056249135394410
0 0

0101101
*
Ed
 0.000000150000000 1 1 0
1  36 0 8.000000000000000 506.350000000000023
0

0101000
+43 5 -84 5 *
Ed
 0.000000150000000 1 1 0
1  37 0 -424.928276082064826 -179.776825860793167
0

0101000
+43 5 -68 5 *
Wi

0101100
-42 0 +80 6 +67 0 +41 0 *
Fa
0  0.000000100000000 6 0

0111000
+40 0 *
Ed
 0.000000150000000 1 1 0
1  38 0 507.060570334907140 508.539329845784891
0

0101000
+43 5 -73 5 *
Wi

0101100
-38 0 -72 0 +82 12 +42 0 *
Fa
0  0.000000100000000 7 0

0111000
+37 0 *
Ed
 0.000000150000000 1 1 0
1  39 0 -285.750000000000000 -279.750000000000000
0

0101000
+109 5 -48 5 *
Ed
 0.000000150000000 1 1 0
1  40 0 197.200000000000045 203.200000000000045
0

0101000
+50 5 -108 5 *
Wi

0101100
+107 8 -35 0 +47 0 -34 0 *
Fa
0  0.000000100000000 8 8

0111000
+33 0 *
Ed
 0.000000150000000 1 1 0
1  41 0 -63.957442463514781 -57.957442463514781
0

0101000
+106 5 -52 5 *
Wi

0101100
+105 10 -31 0 +49 0 -34 0 *
Fa
0  0.000000100000000 9 10

0111000
+30 0 *
Ed
 0.000000150000000 1 1 0
1  42 0 -53.632442463514749 -47.632442463514735
0

0101000
+104 5 -54 5 *
Wi

0101100
-28 0 +51 6 +31 0 +103 6 *
Fa
0  0.000000100000000 10 6

0111000
+27 0 *
Ed
 0.000000100000000 1 1 0
1  43 0 94.000000000000000 100.000000000000000
0

0101000
+56 5 -102 5 *
Wi

0101100
-25 0 +101 0 -28 0 +53 0 *
Fa
0  0.000000100000000 11 0

0111000
+24 0 *
Ed
 0.000000100000000 1 1 0
1  44 0 94.000000000000000 100.000000000000000
0

0101000
+58 5 -100 5 *
Wi

0101100
-25 0 +99 0 +22 0 +55 0 *
Fa
0  0.000000100000000 12 0

0111000
+21 0 *
Ed
 0.000000150000000 1 1 0
1  45 0 -53.632442463514749 -47.632442463514735
0

0101000
+98 5 -60 5 *
Wi

0101100
-22 0 +97 0 -19 0 +57 0 *
Fa
0  0.000000100000000 13 0

0111000
+18 0 *
Ed
 0.000000150000000 1 1 0
1  46 0 -53.632442463514749 -47.632442463514735
0

0101000
+96 5 -62 5 *
Wi

0101100
-16 0 +59 6 +19 0 +95 6 *
Fa
0  0.000000100000000 14 6

0111000
+15 0 *
Ed
 0.000000100000000 1 1 0
1  47 0 94.000000000000000 100.000000000000000
0

0101000
+64 5 -94 5 *
Wi

0101100
-13 0 +93 0 -16 0 +61 0 *
Fa
0  0.000000100000000 15 0

0111000
+12 0 *
Ed
 0.000000100000000 1 1 0
1  48 0 94.000000000000000 100.000000000000000
0

0101000
+66 5 -92 5 *
Wi

0101100
-13 0 +91 0 +10 0 +63 0 *
Fa
0  0.000000100000000 16 0

0111000
+9 0 *
Wi

0101100
-10 0 +89 0 -77 0 +65 0 *
Fa
0  0.000000100000000 17 0

0111000
+7 0 *
Wi

0101000
+87 0 +117 2 -71 0 -38 0 +41 0 +46 0 -35 0 *
Fa
0  0.000000150000000 18 0

0111000
+5 0 *
Sh

0101000
-110 0 -85 0 +74 0 -69 0 -44 0 -39 0 -36 0 -32 0 +29 0 +26 0 
-23 0 +20 0 +17 0 +14 0 -11 0 +8 0 +6 0 +4 0 *
So

0100000
+3 0 *
Co

1100000
+2 0 *

+1 1 