
CASCADE Topology V1, (c) Matra-Datavision
Locations 3
1
1.000000000000000 0.000000000000000 0.000000000000000 0.000000000000000 
0.000000000000000 1.000000000000000 0.000000000000000 0.000000000000000 
0.000000000000000 0.000000000000000 1.000000000000000 0.000000000000000 
1
1.000000000000000 0.000000000000000 0.000000000000000 0.000000000000000 
0.000000000000000 1.000000000000000 0.000000000000000 0.000000000000000 
0.000000000000000 0.000000000000000 1.000000000000000 0.000000000000000 
2  2 -1 0
Curve2ds 4
1 6.28318530717958623 -0.00000000000000000 0.00000000000000000 1.00000000000000000 
1 0.00000000000000000 -0.00000000000000000 0.00000000000000000 1.00000000000000000 
1 0.00000000000000000 0.00000000000000000 1.00000000000000000 0.00000000000000000 
1 0.00000000000000000 7.51348787182091638 1.00000000000000000 0.00000000000000000 
Curves 31
1 4.40000000000000036 -0.00000000000000108 0.00000000000000000 0.05989229072794663 -0.00000000000000001 0.99820484546577870 
2 0.00000000000000000 0.00000000000000000 0.00000000000000000 0.00000000000000000 0.00000000000000000 1.00000000000000000 1.00000000000000000 0.00000000000000000 -0.00000000000000000 -0.00000000000000000 1.00000000000000000 0.00000000000000000 4.40000000000000036
2 0.00000000000000000 0.00000000000000000 7.50000000000000000 0.00000000000000000 0.00000000000000000 1.00000000000000000 1.00000000000000000 0.00000000000000000 -0.00000000000000000 -0.00000000000000000 1.00000000000000000 0.00000000000000000 4.84999999999999964
2 0.00000000000000000 0.00000000000000000 7.50000000000000000 0.00000000000000000 0.00000000000000000 1.00000000000000000 1.00000000000000000 0.00000000000000000 -0.00000000000000000 -0.00000000000000000 1.00000000000000000 0.00000000000000000 4.84999999999999964
2 0.00000000000000000 0.00000000000000000 7.50000000000000000 0.00000000000000000 0.00000000000000000 1.00000000000000000 1.00000000000000000 0.00000000000000000 -0.00000000000000000 -0.00000000000000000 1.00000000000000000 0.00000000000000000 4.84999999999999964
2 0.00000000000000000 0.00000000000000000 7.50000000000000000 0.00000000000000000 0.00000000000000000 1.00000000000000000 1.00000000000000000 0.00000000000000000 -0.00000000000000000 -0.00000000000000000 1.00000000000000000 0.00000000000000000 4.84999999999999964
2 0.00000000000000000 0.00000000000000000 7.50000000000000000 0.00000000000000000 0.00000000000000000 1.00000000000000000 1.00000000000000000 0.00000000000000000 -0.00000000000000000 -0.00000000000000000 1.00000000000000000 0.00000000000000000 4.84999999999999964
2 0.00000000000000000 0.00000000000000000 7.50000000000000000 0.00000000000000000 0.00000000000000000 1.00000000000000000 1.00000000000000000 0.00000000000000000 -0.00000000000000000 -0.00000000000000000 1.00000000000000000 0.00000000000000000 4.84999999999999964
2 0.00000000000000000 0.00000000000000000 7.50000000000000000 0.00000000000000000 0.00000000000000000 1.00000000000000000 1.00000000000000000 0.00000000000000000 -0.00000000000000000 -0.00000000000000000 1.00000000000000000 0.00000000000000000 4.84999999999999964
2 0.00000000000000000 0.00000000000000000 7.50000000000000000 0.00000000000000000 0.00000000000000000 1.00000000000000000 1.00000000000000000 0.00000000000000000 -0.00000000000000000 -0.00000000000000000 1.00000000000000000 0.00000000000000000 4.84999999999999964
2 0.00000000000000000 0.00000000000000000 7.50000000000000000 0.00000000000000000 0.00000000000000000 1.00000000000000000 1.00000000000000000 0.00000000000000000 -0.00000000000000000 -0.00000000000000000 1.00000000000000000 0.00000000000000000 4.84999999999999964
1 4.50000000000000000 -4.50000000000000000 7.50000000000000000 0.00000000000000000 1.00000000000000000 0.00000000000000000 
1 -4.50000000000000000 4.50000000000000000 7.50000000000000000 1.00000000000000000 0.00000000000000000 0.00000000000000000 
1 4.50000000000000000 -4.50000000000000000 7.50000000000000000 0.00000000000000000 1.00000000000000000 0.00000000000000000 
1 -4.50000000000000000 4.50000000000000000 7.50000000000000000 1.00000000000000000 0.00000000000000000 0.00000000000000000 
1 -4.50000000000000000 -4.50000000000000000 7.50000000000000000 0.00000000000000000 1.00000000000000000 0.00000000000000000 
1 -4.50000000000000000 4.50000000000000000 7.50000000000000000 1.00000000000000000 0.00000000000000000 0.00000000000000000 
1 -4.50000000000000000 -4.50000000000000000 7.50000000000000000 0.00000000000000000 1.00000000000000000 0.00000000000000000 
1 -4.50000000000000000 -4.50000000000000000 7.50000000000000000 0.00000000000000000 1.00000000000000000 0.00000000000000000 
1 -4.50000000000000000 -4.50000000000000000 7.50000000000000000 1.00000000000000000 0.00000000000000000 0.00000000000000000 
1 -4.50000000000000000 -4.50000000000000000 7.50000000000000000 1.00000000000000000 0.00000000000000000 0.00000000000000000 
1 4.50000000000000000 -4.50000000000000000 7.50000000000000000 0.00000000000000000 1.00000000000000000 0.00000000000000000 
1 -4.50000000000000000 -4.50000000000000000 7.50000000000000000 1.00000000000000000 0.00000000000000000 0.00000000000000000 
1 4.50000000000000000 -4.50000000000000000 7.50000000000000000 0.00000000000000000 0.00000000000000000 1.00000000000000000 
1 4.50000000000000000 -4.50000000000000000 12.00000000000000000 0.00000000000000000 1.00000000000000000 0.00000000000000000 
1 4.50000000000000000 4.50000000000000000 7.50000000000000000 0.00000000000000000 0.00000000000000000 1.00000000000000000 
1 -4.50000000000000000 4.50000000000000000 12.00000000000000000 1.00000000000000000 0.00000000000000000 0.00000000000000000 
1 -4.50000000000000000 4.50000000000000000 7.50000000000000000 0.00000000000000000 0.00000000000000000 1.00000000000000000 
1 -4.50000000000000000 -4.50000000000000000 7.50000000000000000 0.00000000000000000 0.00000000000000000 1.00000000000000000 
1 -4.50000000000000000 -4.50000000000000000 12.00000000000000000 0.00000000000000000 1.00000000000000000 0.00000000000000000 
1 -4.50000000000000000 -4.50000000000000000 12.00000000000000000 1.00000000000000000 0.00000000000000000 0.00000000000000000 
Polygon3D 0
PolygonOnTriangulations 0
Surfaces 15
3 0.00000000000000000 0.00000000000000000 0.00000000000000000 0.00000000000000000 0.00000000000000000 1.00000000000000000 1.00000000000000000 0.00000000000000000 -0.00000000000000000 -0.00000000000000000 1.00000000000000000 0.00000000000000000 4.40000000000000036
0.05992815512120779
1 0.00000000000000000 0.00000000000000000 0.00000000000000000 0.00000000000000000 0.00000000000000000 1.00000000000000000 1.00000000000000000 0.00000000000000000 -0.00000000000000000 -0.00000000000000000 1.00000000000000000 0.00000000000000000 
1 0.00000000000000000 0.00000000000000000 7.50000000000000000 0.00000000000000000 0.00000000000000000 1.00000000000000000 1.00000000000000000 0.00000000000000000 -0.00000000000000000 -0.00000000000000000 1.00000000000000000 0.00000000000000000 
1 -4.50000000000000000 -4.50000000000000000 7.50000000000000000 0.00000000000000000 0.00000000000000000 1.00000000000000000 1.00000000000000000 0.00000000000000000 -0.00000000000000000 -0.00000000000000000 1.00000000000000000 0.00000000000000000 
1 0.00000000000000000 0.00000000000000000 7.50000000000000000 0.00000000000000000 0.00000000000000000 1.00000000000000000 1.00000000000000000 0.00000000000000000 -0.00000000000000000 -0.00000000000000000 1.00000000000000000 0.00000000000000000 
1 -4.50000000000000000 -4.50000000000000000 7.50000000000000000 0.00000000000000000 0.00000000000000000 1.00000000000000000 1.00000000000000000 0.00000000000000000 -0.00000000000000000 -0.00000000000000000 1.00000000000000000 0.00000000000000000 
1 0.00000000000000000 0.00000000000000000 7.50000000000000000 0.00000000000000000 0.00000000000000000 1.00000000000000000 1.00000000000000000 0.00000000000000000 -0.00000000000000000 -0.00000000000000000 1.00000000000000000 0.00000000000000000 
1 -4.50000000000000000 -4.50000000000000000 7.50000000000000000 0.00000000000000000 0.00000000000000000 1.00000000000000000 1.00000000000000000 0.00000000000000000 -0.00000000000000000 -0.00000000000000000 1.00000000000000000 0.00000000000000000 
1 0.00000000000000000 0.00000000000000000 7.50000000000000000 0.00000000000000000 0.00000000000000000 1.00000000000000000 1.00000000000000000 0.00000000000000000 -0.00000000000000000 -0.00000000000000000 1.00000000000000000 0.00000000000000000 
1 -4.50000000000000000 -4.50000000000000000 7.50000000000000000 0.00000000000000000 0.00000000000000000 1.00000000000000000 1.00000000000000000 0.00000000000000000 -0.00000000000000000 -0.00000000000000000 1.00000000000000000 0.00000000000000000 
1 4.50000000000000000 -4.50000000000000000 7.50000000000000000 1.00000000000000000 0.00000000000000000 0.00000000000000000 0.00000000000000000 0.00000000000000000 1.00000000000000000 0.00000000000000000 -1.00000000000000000 0.00000000000000000 
1 -4.50000000000000000 4.50000000000000000 7.50000000000000000 0.00000000000000000 1.00000000000000000 0.00000000000000000 0.00000000000000000 -0.00000000000000000 1.00000000000000000 1.00000000000000000 0.00000000000000000 -0.00000000000000000 
1 -4.50000000000000000 -4.50000000000000000 7.50000000000000000 1.00000000000000000 0.00000000000000000 0.00000000000000000 0.00000000000000000 0.00000000000000000 1.00000000000000000 0.00000000000000000 -1.00000000000000000 0.00000000000000000 
1 -4.50000000000000000 -4.50000000000000000 7.50000000000000000 0.00000000000000000 1.00000000000000000 0.00000000000000000 0.00000000000000000 -0.00000000000000000 1.00000000000000000 1.00000000000000000 0.00000000000000000 -0.00000000000000000 
1 -4.50000000000000000 -4.50000000000000000 12.00000000000000000 0.00000000000000000 0.00000000000000000 1.00000000000000000 1.00000000000000000 0.00000000000000000 -0.00000000000000000 -0.00000000000000000 1.00000000000000000 0.00000000000000000 
Triangulations 0

TShapes 82
Ve
0.000000100000000
4.850000000000000 -0.000000000000001 7.500000000000000
0 0

0101101
*
Ve
0.000000100000000
4.400000000000000 -0.000000000000001 0.000000000000000
0 0

0101101
*
Ed
 0.000000100000000 1 1 0
1  1 0 0.000000000000000 7.513487871820916
3  1 2CN 1 0 0.000000000000000 7.513487871820916
0

0101000
-82 3 +81 3 *
Ed
 0.000000100000000 1 1 0
1  2 0 0.000000000000000 6.283185307179586
2  3 1 0 0.000000000000000 6.283185307179586
0

0101000
+81 3 -81 3 *
Ve
0.000000100000012
4.500000000000012 1.809005251512494 7.500000000000000
0 0

0101101
*
Ed
 0.000000100000000 1 1 0
1  3 0 0.000000000000000 0.382230329744631
2  4 1 0 0.000000000000000 0.382230329744631
0

0101000
+82 3 -78 3 *
Ve
0.000000100000082
1.809005251512146 4.500000000000082 7.500000000000000
0 0

0101101
*
Ed
 0.000000100000000 1 1 0
1  4 0 0.382230329744631 1.188565997050338
2  4 1 0 0.382230329744631 1.188565997050338
0

0101000
+78 3 -76 3 *
Ve
0.000000100000080
-1.809005251512156 4.500000000000080 7.500000000000000
0 0

0101101
*
Ed
 0.000000100000000 1 1 0
1  5 0 1.188565997050338 1.953026656539457
2  4 1 0 1.188565997050338 1.953026656539457
0

0101000
+76 3 -74 3 *
Ve
0.000000100000027
-4.500000000000027 1.809005251512419 7.500000000000000
0 0

0101101
*
Ed
 0.000000100000000 1 1 0
1  6 0 1.953026656539457 2.759362323845178
2  4 1 0 1.953026656539457 2.759362323845178
0

0101000
+74 3 -72 3 *
Ve
0.000000100000028
-4.500000000000028 -1.809005251512417 7.500000000000000
0 0

0101101
*
Ed
 0.000000100000000 1 1 0
1  7 0 2.759362323845178 3.523822983334408
2  4 1 0 2.759362323845178 3.523822983334408
0

0101000
+72 3 -70 3 *
Ve
0.000000100000080
-1.809005251512159 -4.500000000000080 7.500000000000000
0 0

0101101
*
Ed
 0.000000100000000 1 1 0
1  8 0 3.523822983334408 4.330158650640128
2  4 1 0 3.523822983334408 4.330158650640128
0

0101000
+70 3 -68 3 *
Ve
0.000000100000082
1.809005251512145 -4.500000000000082 7.500000000000000
0 0

0101101
*
Ed
 0.000000100000000 1 1 0
1  9 0 4.330158650640128 5.094619310129248
2  4 1 0 4.330158650640128 5.094619310129248
0

0101000
+68 3 -66 3 *
Ve
0.000000100000012
4.500000000000012 -1.809005251512495 7.500000000000000
0 0

0101101
*
Ed
 0.000000100000000 1 1 0
1  10 0 5.094619310129248 5.900954977434956
2  4 1 0 5.094619310129248 5.900954977434956
0

0101000
+66 3 -64 3 *
Ed
 0.000000100000000 1 1 0
1  11 0 5.900954977434956 6.283185307179586
2  4 1 0 5.900954977434956 6.283185307179586
0

0101000
+64 3 -82 3 *
Wi

0101100
+80 0 +79 0 -80 0 -77 0 -75 0 -73 0 -71 0 -69 0 -67 0 -65 0 
-63 0 -62 0 *
Fa
0  0.000000100000000 1 0

0111000
+61 0 *
Wi

0101100
-79 0 *
Fa
0  0.000000100000000 2 0

0111000
-59 0 *
Ed
 0.000000100000000 1 1 0
1  12 0 2.690994748487505 6.309005251512494
0

0101000
+64 3 -78 3 *
Wi

0101100
+62 0 -57 0 +77 0 *
Fa
0  0.000000100000000 3 0

0111000
+56 0 *
Ve
0.000000100000000
4.500000000000000 4.500000000000000 7.500000000000000
0 0

0101101
*
Ed
 0.000000100000000 1 1 0
1  13 0 6.309005251512146 9.000000000000000
0

0101000
+76 3 -54 3 *
Ed
 0.000000100000000 1 1 0
1  14 0 6.309005251512494 9.000000000000000
0

0101000
+78 3 -54 3 *
Wi

0101100
-53 0 +52 0 -75 0 *
Fa
0  0.000000100000000 4 0

0111000
+51 0 *
Ed
 0.000000100000000 1 1 0
1  15 0 2.690994748487844 6.309005251512146
0

0101000
+74 3 -76 3 *
Wi

0101100
+49 0 +73 0 *
Fa
0  0.000000100000000 5 0

0111000
+48 0 *
Ve
0.000000100000000
-4.500000000000000 4.500000000000000 7.500000000000000
0 0

0101101
*
Ed
 0.000000100000000 1 1 0
1  16 0 6.309005251512419 9.000000000000000
0

0101000
+72 3 -46 3 *
Ed
 0.000000100000000 1 1 0
1  17 0 0.000000000000000 2.690994748487844
0

0101000
+46 3 -74 3 *
Wi

0101100
-45 0 -44 0 -71 0 *
Fa
0  0.000000100000000 6 0

0111000
+43 0 *
Ed
 0.000000100000000 1 1 0
1  18 0 2.690994748487583 6.309005251512419
0

0101000
+70 3 -72 3 *
Wi

0101100
+41 0 +69 0 *
Fa
0  0.000000100000000 7 0

0111000
+40 0 *
Ve
0.000000100000000
-4.500000000000000 -4.500000000000000 7.500000000000000
0 0

0101101
*
Ed
 0.000000100000000 1 1 0
1  19 0 0.000000000000000 2.690994748487583
0

0101000
+38 3 -70 3 *
Ed
 0.000000100000000 1 1 0
1  20 0 0.000000000000000 2.690994748487841
0

0101000
+38 3 -68 3 *
Wi

0101100
-37 0 -67 0 +36 0 *
Fa
0  0.000000100000000 8 0

0111000
+35 0 *
Ed
 0.000000100000000 1 1 0
1  21 0 2.690994748487841 6.309005251512145
0

0101000
+68 3 -66 3 *
Wi

0101100
+65 0 -33 0 *
Fa
0  0.000000100000000 9 0

0111000
+32 0 *
Ve
0.000000100000000
4.500000000000000 -4.500000000000000 7.500000000000000
0 0

0101101
*
Ed
 0.000000100000000 1 1 0
1  22 0 0.000000000000000 2.690994748487505
0

0101000
+30 3 -64 3 *
Ed
 0.000000100000000 1 1 0
1  23 0 6.309005251512145 9.000000000000000
0

0101000
+66 3 -30 3 *
Wi

0101100
-63 0 +29 0 +28 0 *
Fa
0  0.000000100000000 10 0

0111000
+27 0 *
Ve
0.000000100000000
4.500000000000000 -4.500000000000000 12.000000000000000
0 0

0101101
*
Ed
 0.000000100000000 1 1 0
1  24 0 0.000000000000000 4.500000000000000
0

0101000
-25 3 +30 3 *
Ve
0.000000100000000
4.500000000000000 4.500000000000000 12.000000000000000
0 0

0101101
*
Ed
 0.000000100000000 1 1 0
1  25 0 0.000000000000000 9.000000000000000
0

0101000
-23 3 +25 3 *
Ed
 0.000000100000000 1 1 0
1  26 0 0.000000000000000 4.500000000000000
0

0101000
-23 3 +54 3 *
Wi

0101100
-24 0 -22 0 +21 0 +29 0 +57 0 +52 0 *
Fa
0  0.000000100000000 11 0

0111000
+20 0 *
Ve
0.000000100000000
-4.500000000000000 4.500000000000000 12.000000000000000
0 0

0101101
*
Ed
 0.000000100000000 1 1 0
1  27 0 0.000000000000000 9.000000000000000
0

0101000
-23 3 +18 3 *
Ed
 0.000000100000000 1 1 0
1  28 0 0.000000000000000 4.500000000000000
0

0101000
-18 3 +46 3 *
Wi

0101100
-44 0 -49 0 -53 0 -21 0 +17 0 +16 0 *
Fa
0  0.000000100000000 12 0

0111000
+15 0 *
Ve
0.000000100000000
-4.500000000000000 -4.500000000000000 12.000000000000000
0 0

0101101
*
Ed
 0.000000100000000 1 1 0
1  29 0 0.000000000000000 4.500000000000000
0

0101000
-13 3 +38 3 *
Ed
 0.000000100000000 1 1 0
1  30 0 0.000000000000000 9.000000000000000
0

0101000
-18 3 +13 3 *
Wi

0101100
-12 0 -11 0 +16 0 +37 0 +41 0 +45 0 *
Fa
0  0.000000100000000 13 0

0111000
+10 0 *
Ed
 0.000000100000000 1 1 0
1  31 0 0.000000000000000 9.000000000000000
0

0101000
-25 3 +13 3 *
Wi

0101100
-36 0 -33 0 -28 0 -24 0 +8 0 +12 0 *
Fa
0  0.000000100000000 14 0

0111000
+7 0 *
Wi

0101100
-11 0 -17 0 +22 0 +8 0 *
Fa
0  0.000000100000000 15 0

0111000
+5 0 *
Sh

0101100
+60 0 -58 0 +55 0 -50 0 +47 0 -42 0 +39 0 -34 0 +31 0 -26 0 
+19 0 +14 0 -9 0 -6 0 +4 0 *
So

0100000
+3 0 *
Co

1100000
+2 0 *

+1 1 