
CASCADE Topology V1, (c) Matra-Datavision
Locations 36
1
1.000000000000000 0.000000000000000 0.000000000000000 0.000000000000000 
0.000000000000000 1.000000000000000 0.000000000000000 0.000000000000000 
0.000000000000000 0.000000000000000 1.000000000000000 0.000000000000000 
1
1.000000000000000 0.000000000000000 0.000000000000000 0.000000000000000 
0.000000000000000 1.000000000000000 0.000000000000000 0.000000000000000 
0.000000000000000 0.000000000000000 1.000000000000000 0.000000000000000 
1
1.000000000000000 0.000000000000000 0.000000000000000 0.000000000000000 
0.000000000000000 1.000000000000000 0.000000000000000 0.000000000000000 
0.000000000000000 0.000000000000000 1.000000000000000 0.000000000000000 
2  2 1 3 1 0
1
1.000000000000000 0.000000000000000 0.000000000000000 0.000000000000000 
0.000000000000000 1.000000000000000 0.000000000000000 0.000000000000000 
0.000000000000000 0.000000000000000 1.000000000000000 0.000000000000000 
2  5 -1 3 -1 2 -1 0
1
1.000000000000000 0.000000000000000 0.000000000000000 0.000000000000000 
0.000000000000000 1.000000000000000 0.000000000000000 2200.000000000000000 
0.000000000000000 0.000000000000000 1.000000000000000 0.000000000000000 
2  7 1 2 1 3 1 0
2  5 -1 3 -1 2 -1 7 -1 0
1
1.000000000000000 0.000000000000000 0.000000000000000 -2400.000000000000000 
0.000000000000000 1.000000000000000 0.000000000000000 0.000000000000000 
0.000000000000000 0.000000000000000 1.000000000000000 -533.049999999999955 
2  5 -1 0
1
1.000000000000000 0.000000000000000 0.000000000000000 -2400.000000000000000 
0.000000000000000 1.000000000000000 0.000000000000000 0.000000000000000 
0.000000000000000 0.000000000000000 1.000000000000000 -533.049999999999955 
1
1.000000000000000 0.000000000000000 0.000000000000000 -2400.000000000000000 
0.000000000000000 1.000000000000000 0.000000000000000 0.000000000000000 
0.000000000000000 0.000000000000000 1.000000000000000 -533.049999999999955 
1
1.000000000000000 0.000000000000000 0.000000000000000 -2400.000000000000000 
0.000000000000000 1.000000000000000 0.000000000000000 0.000000000000000 
0.000000000000000 0.000000000000000 1.000000000000000 -533.049999999999955 
2  7 1 2 1 0
1
1.000000000000000 0.000000000000000 0.000000000000000 -2400.000000000000000 
0.000000000000000 1.000000000000000 0.000000000000000 0.000000000000000 
0.000000000000000 0.000000000000000 1.000000000000000 -533.049999999999955 
2  5 -1 3 -1 0
1
1.000000000000000 0.000000000000000 0.000000000000000 -2400.000000000000000 
0.000000000000000 1.000000000000000 0.000000000000000 0.000000000000000 
0.000000000000000 0.000000000000000 1.000000000000000 -533.049999999999955 
1
1.000000000000000 0.000000000000000 0.000000000000000 -2400.000000000000000 
0.000000000000000 1.000000000000000 0.000000000000000 0.000000000000000 
0.000000000000000 0.000000000000000 1.000000000000000 -533.049999999999955 
1
1.000000000000000 0.000000000000000 0.000000000000000 -2400.000000000000000 
0.000000000000000 1.000000000000000 0.000000000000000 0.000000000000000 
0.000000000000000 0.000000000000000 1.000000000000000 -533.049999999999955 
1
1.000000000000000 0.000000000000000 0.000000000000000 -2400.000000000000000 
0.000000000000000 1.000000000000000 0.000000000000000 0.000000000000000 
0.000000000000000 0.000000000000000 1.000000000000000 -533.049999999999955 
1
1.000000000000000 0.000000000000000 0.000000000000000 -2400.000000000000000 
0.000000000000000 1.000000000000000 0.000000000000000 0.000000000000000 
0.000000000000000 0.000000000000000 1.000000000000000 -533.049999999999955 
1
1.000000000000000 0.000000000000000 0.000000000000000 -2400.000000000000000 
0.000000000000000 1.000000000000000 0.000000000000000 0.000000000000000 
0.000000000000000 0.000000000000000 1.000000000000000 -533.049999999999955 
1
1.000000000000000 0.000000000000000 0.000000000000000 -2400.000000000000000 
0.000000000000000 1.000000000000000 0.000000000000000 0.000000000000000 
0.000000000000000 0.000000000000000 1.000000000000000 -533.049999999999955 
2  5 -1 10 -1 0
2  5 -1 12 -1 0
2  5 -1 13 -1 0
2  5 -1 14 -1 0
2  5 -1 3 -1 16 -1 0
2  5 -1 3 -1 18 -1 0
2  5 -1 3 -1 19 -1 0
2  5 -1 3 -1 20 -1 0
2  5 -1 3 -1 21 -1 0
2  5 -1 3 -1 22 -1 0
2  5 -1 3 -1 23 -1 0
2  5 -1 3 -1 24 -1 0
Curve2ds 96
1 0.00000000000000000 0.99999999999981526 1.00000000000000000 0.00000000000000000 
1 0.00000000000000000 0.99999999999981526 1.00000000000000000 0.00000000000000000 
1 0.00000000000000000 1.00000000000000000 1.00000000000000000 0.00000000000000000 
1 0.00000000000000000 1.00000000000000000 1.00000000000000000 0.00000000000000000 
1 0.00000000000000000 1.00000000000000000 1.00000000000000000 0.00000000000000000 
1 0.00000000000000000 1.00000000000000000 1.00000000000000000 0.00000000000000000 
1 0.00000000000000000 1.00000000000000000 1.00000000000000000 0.00000000000000000 
1 0.00000000000000000 1.00000000000000000 1.00000000000000000 0.00000000000000000 
1 0.00000000000000000 0.99999999999981526 1.00000000000000000 0.00000000000000000 
1 0.00000000000000000 0.99999999999981526 1.00000000000000000 0.00000000000000000 
1 0.00000000000000000 1.00000000000000000 1.00000000000000000 0.00000000000000000 
1 0.00000000000000000 1.00000000000000000 1.00000000000000000 0.00000000000000000 
1 0.00000000000000000 1.00000000000000000 1.00000000000000000 0.00000000000000000 
1 0.00000000000000000 1.00000000000000000 1.00000000000000000 0.00000000000000000 
1 0.00000000000000000 1.00000000000000000 1.00000000000000000 0.00000000000000000 
1 0.00000000000000000 1.00000000000000000 1.00000000000000000 0.00000000000000000 
1 0.00000000000000000 7.34999999999995168 1.00000000000000000 0.00000000000000000 
1 0.00000000000000000 7.34999999999995168 1.00000000000000000 0.00000000000000000 
1 0.00000000000000000 7.34999999999995168 1.00000000000000000 0.00000000000000000 
1 0.00000000000000000 7.34999999999995168 1.00000000000000000 0.00000000000000000 
1 0.00000000000000000 7.34999999999995168 1.00000000000000000 0.00000000000000000 
1 0.00000000000000000 7.34999999999995168 1.00000000000000000 0.00000000000000000 
1 0.00000000000000000 7.34999999999995168 1.00000000000000000 0.00000000000000000 
1 0.00000000000000000 7.34999999999995168 1.00000000000000000 0.00000000000000000 
1 0.00000000000000000 7.34999999999980957 1.00000000000000000 0.00000000000000000 
1 6.28318530717958623 -0.00000000000000000 0.00000000000000000 1.00000000000000000 
1 0.00000000000000000 -0.00000000000000000 0.00000000000000000 1.00000000000000000 
1 0.00000000000000000 7.34999999999980957 1.00000000000000000 0.00000000000000000 
1 6.28318530717958623 -0.00000000000000000 0.00000000000000000 1.00000000000000000 
1 0.00000000000000000 -0.00000000000000000 0.00000000000000000 1.00000000000000000 
1 0.00000000000000000 7.34999999999999432 1.00000000000000000 0.00000000000000000 
1 6.28318530717958623 -0.00000000000000000 0.00000000000000000 1.00000000000000000 
1 0.00000000000000000 -0.00000000000000000 0.00000000000000000 1.00000000000000000 
1 0.00000000000000000 7.34999999999999432 1.00000000000000000 0.00000000000000000 
1 6.28318530717958623 -0.00000000000000000 0.00000000000000000 1.00000000000000000 
1 0.00000000000000000 -0.00000000000000000 0.00000000000000000 1.00000000000000000 
1 0.00000000000000000 7.34999999999999432 1.00000000000000000 0.00000000000000000 
1 6.28318530717958623 -0.00000000000000000 0.00000000000000000 1.00000000000000000 
1 0.00000000000000000 -0.00000000000000000 0.00000000000000000 1.00000000000000000 
1 0.00000000000000000 7.34999999999999432 1.00000000000000000 0.00000000000000000 
1 6.28318530717958623 -0.00000000000000000 0.00000000000000000 1.00000000000000000 
1 0.00000000000000000 -0.00000000000000000 0.00000000000000000 1.00000000000000000 
1 0.00000000000000000 7.34999999999999432 1.00000000000000000 0.00000000000000000 
1 6.28318530717958623 -0.00000000000000000 0.00000000000000000 1.00000000000000000 
1 0.00000000000000000 -0.00000000000000000 0.00000000000000000 1.00000000000000000 
1 0.00000000000000000 7.34999999999999432 1.00000000000000000 0.00000000000000000 
1 6.28318530717958623 -0.00000000000000000 0.00000000000000000 1.00000000000000000 
1 0.00000000000000000 -0.00000000000000000 0.00000000000000000 1.00000000000000000 
1 0.00000000000000000 7.34999999999980957 1.00000000000000000 0.00000000000000000 
1 6.28318530717958623 -0.00000000000000000 0.00000000000000000 1.00000000000000000 
1 0.00000000000000000 -0.00000000000000000 0.00000000000000000 1.00000000000000000 
1 0.00000000000000000 7.34999999999980957 1.00000000000000000 0.00000000000000000 
1 6.28318530717958623 -0.00000000000000000 0.00000000000000000 1.00000000000000000 
1 0.00000000000000000 -0.00000000000000000 0.00000000000000000 1.00000000000000000 
1 0.00000000000000000 7.34999999999999432 1.00000000000000000 0.00000000000000000 
1 6.28318530717958623 -0.00000000000000000 0.00000000000000000 1.00000000000000000 
1 0.00000000000000000 -0.00000000000000000 0.00000000000000000 1.00000000000000000 
1 0.00000000000000000 7.34999999999999432 1.00000000000000000 0.00000000000000000 
1 6.28318530717958623 -0.00000000000000000 0.00000000000000000 1.00000000000000000 
1 0.00000000000000000 -0.00000000000000000 0.00000000000000000 1.00000000000000000 
1 0.00000000000000000 7.34999999999999432 1.00000000000000000 0.00000000000000000 
1 6.28318530717958623 -0.00000000000000000 0.00000000000000000 1.00000000000000000 
1 0.00000000000000000 -0.00000000000000000 0.00000000000000000 1.00000000000000000 
1 0.00000000000000000 7.34999999999999432 1.00000000000000000 0.00000000000000000 
1 6.28318530717958623 -0.00000000000000000 0.00000000000000000 1.00000000000000000 
1 0.00000000000000000 -0.00000000000000000 0.00000000000000000 1.00000000000000000 
1 0.00000000000000000 7.34999999999999432 1.00000000000000000 0.00000000000000000 
1 6.28318530717958623 -0.00000000000000000 0.00000000000000000 1.00000000000000000 
1 0.00000000000000000 -0.00000000000000000 0.00000000000000000 1.00000000000000000 
1 0.00000000000000000 7.34999999999999432 1.00000000000000000 0.00000000000000000 
1 6.28318530717958623 -0.00000000000000000 0.00000000000000000 1.00000000000000000 
1 0.00000000000000000 -0.00000000000000000 0.00000000000000000 1.00000000000000000 
1 0.00000000000000000 0.99999999999995026 1.00000000000000000 0.00000000000000000 
1 0.00000000000000000 0.99999999999995026 1.00000000000000000 0.00000000000000000 
1 0.00000000000000000 0.99999999999995026 1.00000000000000000 0.00000000000000000 
1 0.00000000000000000 0.99999999999995026 1.00000000000000000 0.00000000000000000 
1 0.00000000000000000 0.99999999999995026 1.00000000000000000 0.00000000000000000 
1 0.00000000000000000 0.99999999999995026 1.00000000000000000 0.00000000000000000 
1 0.00000000000000000 0.99999999999995026 1.00000000000000000 0.00000000000000000 
1 0.00000000000000000 0.99999999999995026 1.00000000000000000 0.00000000000000000 
1 6.28318530717958623 -0.00000000000000000 0.00000000000000000 1.00000000000000000 
1 0.00000000000000000 -0.00000000000000000 0.00000000000000000 1.00000000000000000 
1 6.28318530717958623 -0.00000000000000000 0.00000000000000000 1.00000000000000000 
1 0.00000000000000000 -0.00000000000000000 0.00000000000000000 1.00000000000000000 
1 6.28318530717958623 -0.00000000000000000 0.00000000000000000 1.00000000000000000 
1 0.00000000000000000 -0.00000000000000000 0.00000000000000000 1.00000000000000000 
1 6.28318530717958623 -0.00000000000000000 0.00000000000000000 1.00000000000000000 
1 0.00000000000000000 -0.00000000000000000 0.00000000000000000 1.00000000000000000 
1 6.28318530717958623 -0.00000000000000000 0.00000000000000000 1.00000000000000000 
1 0.00000000000000000 -0.00000000000000000 0.00000000000000000 1.00000000000000000 
1 6.28318530717958623 -0.00000000000000000 0.00000000000000000 1.00000000000000000 
1 0.00000000000000000 -0.00000000000000000 0.00000000000000000 1.00000000000000000 
1 6.28318530717958623 -0.00000000000000000 0.00000000000000000 1.00000000000000000 
1 0.00000000000000000 -0.00000000000000000 0.00000000000000000 1.00000000000000000 
1 6.28318530717958623 -0.00000000000000000 0.00000000000000000 1.00000000000000000 
1 0.00000000000000000 -0.00000000000000000 0.00000000000000000 1.00000000000000000 
Curves 96
1 -76.20000000000000284 -1100.00000000000000000 0.00000000000000000 0.00000000000000000 1.00000000000000000 0.00000000000000000 
1 -76.20000000000000284 -1100.00000000000000000 0.00000000000000000 0.00000000000000000 0.00000000000000000 1.00000000000000000 
1 -76.20000000000000284 -1100.00000000000000000 0.00000000000000000 0.00000000000000000 0.00000000000000000 1.00000000000000000 
1 -76.20000000000000284 -1100.00000000000000000 50.79999999999999716 0.00000000000000000 1.00000000000000000 0.00000000000000000 
2 -76.20000000000000284 292.10000000000002274 25.39999999999997726 1.00000000000000000 0.00000000000000000 -0.00000000000000000 0.00000000000000000 0.00000000000000000 1.00000000000000000 0.00000000000000000 -1.00000000000000000 0.00000000000000000 6.50000000000000000
2 -76.20000000000000284 254.00000000000000000 25.39999999999997726 1.00000000000000000 0.00000000000000000 -0.00000000000000000 0.00000000000000000 0.00000000000000000 1.00000000000000000 0.00000000000000000 -1.00000000000000000 0.00000000000000000 6.50000000000000000
2 -76.20000000000000284 741.75000000000000000 25.39999999999999858 1.00000000000000000 0.00000000000000000 -0.00000000000000000 0.00000000000000000 0.00000000000000000 1.00000000000000000 0.00000000000000000 -1.00000000000000000 0.00000000000000000 6.50000000000000000
2 -76.20000000000000284 710.00000000000000000 25.39999999999999858 1.00000000000000000 0.00000000000000000 -0.00000000000000000 0.00000000000000000 0.00000000000000000 1.00000000000000000 0.00000000000000000 -1.00000000000000000 0.00000000000000000 6.50000000000000000
2 -76.20000000000000284 678.25000000000000000 25.39999999999999858 1.00000000000000000 0.00000000000000000 -0.00000000000000000 0.00000000000000000 0.00000000000000000 1.00000000000000000 0.00000000000000000 -1.00000000000000000 0.00000000000000000 6.50000000000000000
2 -76.20000000000000284 481.75000000000000000 25.39999999999999858 1.00000000000000000 0.00000000000000000 -0.00000000000000000 0.00000000000000000 0.00000000000000000 1.00000000000000000 0.00000000000000000 -1.00000000000000000 0.00000000000000000 6.50000000000000000
2 -76.20000000000000284 450.00000000000000000 25.39999999999999858 1.00000000000000000 0.00000000000000000 -0.00000000000000000 0.00000000000000000 0.00000000000000000 1.00000000000000000 0.00000000000000000 -1.00000000000000000 0.00000000000000000 6.50000000000000000
2 -76.20000000000000284 418.25000000000000000 25.39999999999999858 1.00000000000000000 0.00000000000000000 -0.00000000000000000 0.00000000000000000 0.00000000000000000 1.00000000000000000 0.00000000000000000 -1.00000000000000000 0.00000000000000000 6.50000000000000000
2 -76.20000000000000284 -203.19999999999998863 25.39999999999997726 1.00000000000000000 0.00000000000000000 -0.00000000000000000 0.00000000000000000 0.00000000000000000 1.00000000000000000 0.00000000000000000 -1.00000000000000000 0.00000000000000000 6.50000000000000000
2 -76.20000000000000284 -241.30000000000001137 25.39999999999997726 1.00000000000000000 0.00000000000000000 -0.00000000000000000 0.00000000000000000 0.00000000000000000 1.00000000000000000 0.00000000000000000 -1.00000000000000000 0.00000000000000000 6.50000000000000000
2 -76.20000000000000284 -418.25000000000000000 25.39999999999999858 1.00000000000000000 0.00000000000000000 -0.00000000000000000 0.00000000000000000 0.00000000000000000 1.00000000000000000 0.00000000000000000 -1.00000000000000000 0.00000000000000000 6.50000000000000000
2 -76.20000000000000284 -450.00000000000000000 25.39999999999999858 1.00000000000000000 0.00000000000000000 -0.00000000000000000 0.00000000000000000 0.00000000000000000 1.00000000000000000 0.00000000000000000 -1.00000000000000000 0.00000000000000000 6.50000000000000000
2 -76.20000000000000284 -481.75000000000000000 25.39999999999999858 1.00000000000000000 0.00000000000000000 -0.00000000000000000 0.00000000000000000 0.00000000000000000 1.00000000000000000 0.00000000000000000 -1.00000000000000000 0.00000000000000000 6.50000000000000000
2 -76.20000000000000284 -678.25000000000000000 25.39999999999999858 1.00000000000000000 0.00000000000000000 -0.00000000000000000 0.00000000000000000 0.00000000000000000 1.00000000000000000 0.00000000000000000 -1.00000000000000000 0.00000000000000000 6.50000000000000000
2 -76.20000000000000284 -710.00000000000000000 25.39999999999999858 1.00000000000000000 0.00000000000000000 -0.00000000000000000 0.00000000000000000 0.00000000000000000 1.00000000000000000 0.00000000000000000 -1.00000000000000000 0.00000000000000000 6.50000000000000000
2 -76.20000000000000284 -741.75000000000000000 25.39999999999999858 1.00000000000000000 0.00000000000000000 -0.00000000000000000 0.00000000000000000 0.00000000000000000 1.00000000000000000 0.00000000000000000 -1.00000000000000000 0.00000000000000000 6.50000000000000000
1 -69.85000000000000853 -1100.00000000000000000 0.00000000000000000 0.00000000000000000 1.00000000000000000 0.00000000000000000 
1 -69.85000000000000853 -1100.00000000000000000 0.00000000000000000 -1.00000000000000000 0.00000000000000000 0.00000000000000000 
1 -69.85000000000000853 -1100.00000000000000000 0.00000000000000000 -1.00000000000000000 0.00000000000000000 0.00000000000000000 
1 -76.20000000000000284 -1100.00000000000000000 50.79999999999999716 1.00000000000000000 0.00000000000000000 0.00000000000000000 
1 76.20000000000000284 -1100.00000000000000000 50.79999999999999716 0.00000000000000000 0.00000000000000000 -1.00000000000000000 
1 76.20000000000000284 -1100.00000000000000000 0.00000000000000000 -1.00000000000000000 0.00000000000000000 0.00000000000000000 
1 69.85000000000000853 -1100.00000000000000000 0.00000000000000000 0.00000000000000000 0.00000000000000000 1.00000000000000000 
1 69.85000000000000853 -1100.00000000000000000 44.44999999999999574 -1.00000000000000000 0.00000000000000000 0.00000000000000000 
1 -69.85000000000000853 -1100.00000000000000000 44.44999999999999574 0.00000000000000000 0.00000000000000000 -1.00000000000000000 
1 -76.20000000000000284 -1100.00000000000000000 50.79999999999999716 1.00000000000000000 0.00000000000000000 0.00000000000000000 
1 76.20000000000000284 -1100.00000000000000000 50.79999999999999716 0.00000000000000000 0.00000000000000000 -1.00000000000000000 
1 76.20000000000000284 -1100.00000000000000000 0.00000000000000000 -1.00000000000000000 0.00000000000000000 0.00000000000000000 
1 69.85000000000000853 -1100.00000000000000000 0.00000000000000000 0.00000000000000000 0.00000000000000000 1.00000000000000000 
1 69.85000000000000853 -1100.00000000000000000 44.44999999999999574 -1.00000000000000000 0.00000000000000000 0.00000000000000000 
1 -69.85000000000000853 -1100.00000000000000000 44.44999999999999574 0.00000000000000000 0.00000000000000000 -1.00000000000000000 
1 76.20000000000000284 -1100.00000000000000000 50.79999999999999716 0.00000000000000000 1.00000000000000000 0.00000000000000000 
2 -31.75000000000000000 470.63749999999998863 50.79999999999999716 0.00000000000000000 0.00000000000000000 1.00000000000000000 1.00000000000000000 0.00000000000000000 0.00000000000000000 0.00000000000000000 1.00000000000000000 0.00000000000000000 6.50000000000000000
2 -31.75000000000000000 429.36250000000001137 50.79999999999999716 0.00000000000000000 0.00000000000000000 1.00000000000000000 1.00000000000000000 0.00000000000000000 0.00000000000000000 0.00000000000000000 1.00000000000000000 0.00000000000000000 6.50000000000000000
2 6.34999999999990905 730.63750000000004547 50.79999999999999716 0.00000000000000000 0.00000000000000000 1.00000000000000000 1.00000000000000000 0.00000000000000000 0.00000000000000000 0.00000000000000000 1.00000000000000000 0.00000000000000000 6.50000000000000000
2 6.34999999999990905 689.36249999999995453 50.79999999999999716 0.00000000000000000 0.00000000000000000 1.00000000000000000 1.00000000000000000 0.00000000000000000 0.00000000000000000 0.00000000000000000 1.00000000000000000 0.00000000000000000 6.50000000000000000
2 -31.75000000000000000 -429.36250000000001137 50.79999999999999716 0.00000000000000000 0.00000000000000000 1.00000000000000000 1.00000000000000000 0.00000000000000000 0.00000000000000000 0.00000000000000000 1.00000000000000000 0.00000000000000000 6.50000000000000000
2 -31.75000000000000000 -470.63749999999998863 50.79999999999999716 0.00000000000000000 0.00000000000000000 1.00000000000000000 1.00000000000000000 0.00000000000000000 0.00000000000000000 0.00000000000000000 1.00000000000000000 0.00000000000000000 6.50000000000000000
2 6.34999999999990905 -689.36249999999995453 50.79999999999999716 0.00000000000000000 0.00000000000000000 1.00000000000000000 1.00000000000000000 0.00000000000000000 0.00000000000000000 0.00000000000000000 1.00000000000000000 0.00000000000000000 6.50000000000000000
2 6.34999999999990905 -730.63750000000004547 50.79999999999999716 0.00000000000000000 0.00000000000000000 1.00000000000000000 1.00000000000000000 0.00000000000000000 0.00000000000000000 0.00000000000000000 1.00000000000000000 0.00000000000000000 6.50000000000000000
2 -69.85000000000000853 292.10000000000002274 25.39999999999997726 1.00000000000000000 0.00000000000000000 -0.00000000000000000 0.00000000000000000 0.00000000000000000 1.00000000000000000 0.00000000000000000 -1.00000000000000000 0.00000000000000000 6.50000000000000000
1 2322.80000000000018190 292.10000000000002274 564.94999999999993179 1.00000000000000000 0.00000000000000000 0.00000000000000000 
2 -69.85000000000000853 254.00000000000000000 25.39999999999997726 1.00000000000000000 0.00000000000000000 -0.00000000000000000 0.00000000000000000 0.00000000000000000 1.00000000000000000 0.00000000000000000 -1.00000000000000000 0.00000000000000000 6.50000000000000000
1 2322.80000000000018190 254.00000000000000000 564.94999999999993179 1.00000000000000000 0.00000000000000000 0.00000000000000000 
2 -69.85000000000000853 741.75000000000000000 25.39999999999999858 1.00000000000000000 0.00000000000000000 -0.00000000000000000 0.00000000000000000 0.00000000000000000 1.00000000000000000 0.00000000000000000 -1.00000000000000000 0.00000000000000000 6.50000000000000000
1 -77.20000000000000284 741.75000000000000000 31.89999999999999858 1.00000000000000000 0.00000000000000000 0.00000000000000000 
2 -69.85000000000000853 710.00000000000000000 25.39999999999999858 1.00000000000000000 0.00000000000000000 -0.00000000000000000 0.00000000000000000 0.00000000000000000 1.00000000000000000 0.00000000000000000 -1.00000000000000000 0.00000000000000000 6.50000000000000000
1 -77.20000000000000284 710.00000000000000000 31.89999999999999858 1.00000000000000000 0.00000000000000000 0.00000000000000000 
2 -69.85000000000000853 678.25000000000000000 25.39999999999999858 1.00000000000000000 0.00000000000000000 -0.00000000000000000 0.00000000000000000 0.00000000000000000 1.00000000000000000 0.00000000000000000 -1.00000000000000000 0.00000000000000000 6.50000000000000000
1 -77.20000000000000284 678.25000000000000000 31.89999999999999858 1.00000000000000000 0.00000000000000000 0.00000000000000000 
2 -69.85000000000000853 481.75000000000000000 25.39999999999999858 1.00000000000000000 0.00000000000000000 -0.00000000000000000 0.00000000000000000 0.00000000000000000 1.00000000000000000 0.00000000000000000 -1.00000000000000000 0.00000000000000000 6.50000000000000000
1 -77.20000000000000284 481.75000000000000000 31.89999999999999858 1.00000000000000000 0.00000000000000000 0.00000000000000000 
2 -69.85000000000000853 450.00000000000000000 25.39999999999999858 1.00000000000000000 0.00000000000000000 -0.00000000000000000 0.00000000000000000 0.00000000000000000 1.00000000000000000 0.00000000000000000 -1.00000000000000000 0.00000000000000000 6.50000000000000000
1 -77.20000000000000284 450.00000000000000000 31.89999999999999858 1.00000000000000000 0.00000000000000000 0.00000000000000000 
2 -69.85000000000000853 418.25000000000000000 25.39999999999999858 1.00000000000000000 0.00000000000000000 -0.00000000000000000 0.00000000000000000 0.00000000000000000 1.00000000000000000 0.00000000000000000 -1.00000000000000000 0.00000000000000000 6.50000000000000000
1 -77.20000000000000284 418.25000000000000000 31.89999999999999858 1.00000000000000000 0.00000000000000000 0.00000000000000000 
2 -69.85000000000000853 -203.19999999999998863 25.39999999999997726 1.00000000000000000 0.00000000000000000 -0.00000000000000000 0.00000000000000000 0.00000000000000000 1.00000000000000000 0.00000000000000000 -1.00000000000000000 0.00000000000000000 6.50000000000000000
1 2322.80000000000018190 -203.19999999999998863 564.94999999999993179 1.00000000000000000 0.00000000000000000 0.00000000000000000 
2 -69.85000000000000853 -241.30000000000001137 25.39999999999997726 1.00000000000000000 0.00000000000000000 -0.00000000000000000 0.00000000000000000 0.00000000000000000 1.00000000000000000 0.00000000000000000 -1.00000000000000000 0.00000000000000000 6.50000000000000000
1 2322.80000000000018190 -241.30000000000001137 564.94999999999993179 1.00000000000000000 0.00000000000000000 0.00000000000000000 
2 -69.85000000000000853 -418.25000000000000000 25.39999999999999858 1.00000000000000000 0.00000000000000000 -0.00000000000000000 0.00000000000000000 0.00000000000000000 1.00000000000000000 0.00000000000000000 -1.00000000000000000 0.00000000000000000 6.50000000000000000
1 -77.20000000000000284 -418.25000000000000000 31.89999999999999858 1.00000000000000000 0.00000000000000000 0.00000000000000000 
2 -69.85000000000000853 -450.00000000000000000 25.39999999999999858 1.00000000000000000 0.00000000000000000 -0.00000000000000000 0.00000000000000000 0.00000000000000000 1.00000000000000000 0.00000000000000000 -1.00000000000000000 0.00000000000000000 6.50000000000000000
1 -77.20000000000000284 -450.00000000000000000 31.89999999999999858 1.00000000000000000 0.00000000000000000 0.00000000000000000 
2 -69.85000000000000853 -481.75000000000000000 25.39999999999999858 1.00000000000000000 0.00000000000000000 -0.00000000000000000 0.00000000000000000 0.00000000000000000 1.00000000000000000 0.00000000000000000 -1.00000000000000000 0.00000000000000000 6.50000000000000000
1 -77.20000000000000284 -481.75000000000000000 31.89999999999999858 1.00000000000000000 0.00000000000000000 0.00000000000000000 
2 -69.85000000000000853 -678.25000000000000000 25.39999999999999858 1.00000000000000000 0.00000000000000000 -0.00000000000000000 0.00000000000000000 0.00000000000000000 1.00000000000000000 0.00000000000000000 -1.00000000000000000 0.00000000000000000 6.50000000000000000
1 -77.20000000000000284 -678.25000000000000000 31.89999999999999858 1.00000000000000000 0.00000000000000000 0.00000000000000000 
2 -69.85000000000000853 -710.00000000000000000 25.39999999999999858 1.00000000000000000 0.00000000000000000 -0.00000000000000000 0.00000000000000000 0.00000000000000000 1.00000000000000000 0.00000000000000000 -1.00000000000000000 0.00000000000000000 6.50000000000000000
1 -77.20000000000000284 -710.00000000000000000 31.89999999999999858 1.00000000000000000 0.00000000000000000 0.00000000000000000 
2 -69.85000000000000853 -741.75000000000000000 25.39999999999999858 1.00000000000000000 0.00000000000000000 -0.00000000000000000 0.00000000000000000 0.00000000000000000 1.00000000000000000 0.00000000000000000 -1.00000000000000000 0.00000000000000000 6.50000000000000000
1 -77.20000000000000284 -741.75000000000000000 31.89999999999999858 1.00000000000000000 0.00000000000000000 0.00000000000000000 
1 -69.85000000000000853 -1100.00000000000000000 44.44999999999999574 0.00000000000000000 1.00000000000000000 0.00000000000000000 
1 76.20000000000000284 -1100.00000000000000000 0.00000000000000000 0.00000000000000000 1.00000000000000000 0.00000000000000000 
1 69.85000000000000853 -1100.00000000000000000 0.00000000000000000 0.00000000000000000 1.00000000000000000 0.00000000000000000 
1 69.85000000000000853 -1100.00000000000000000 44.44999999999999574 0.00000000000000000 1.00000000000000000 0.00000000000000000 
2 6.34999999999990905 730.63750000000004547 44.44999999999999574 0.00000000000000000 0.00000000000000000 1.00000000000000000 1.00000000000000000 0.00000000000000000 0.00000000000000000 0.00000000000000000 1.00000000000000000 0.00000000000000000 6.50000000000000000
2 6.34999999999990905 689.36249999999995453 44.44999999999999574 0.00000000000000000 0.00000000000000000 1.00000000000000000 1.00000000000000000 0.00000000000000000 0.00000000000000000 0.00000000000000000 1.00000000000000000 0.00000000000000000 6.50000000000000000
2 -31.75000000000000000 470.63749999999998863 44.44999999999999574 0.00000000000000000 0.00000000000000000 1.00000000000000000 1.00000000000000000 0.00000000000000000 0.00000000000000000 0.00000000000000000 1.00000000000000000 0.00000000000000000 6.50000000000000000
2 -31.75000000000000000 429.36250000000001137 44.44999999999999574 0.00000000000000000 0.00000000000000000 1.00000000000000000 1.00000000000000000 0.00000000000000000 0.00000000000000000 0.00000000000000000 1.00000000000000000 0.00000000000000000 6.50000000000000000
2 6.34999999999990905 -689.36249999999995453 44.44999999999999574 0.00000000000000000 0.00000000000000000 1.00000000000000000 1.00000000000000000 0.00000000000000000 0.00000000000000000 0.00000000000000000 1.00000000000000000 0.00000000000000000 6.50000000000000000
2 6.34999999999990905 -730.63750000000004547 44.44999999999999574 0.00000000000000000 0.00000000000000000 1.00000000000000000 1.00000000000000000 0.00000000000000000 0.00000000000000000 0.00000000000000000 1.00000000000000000 0.00000000000000000 6.50000000000000000
2 -31.75000000000000000 -429.36250000000001137 44.44999999999999574 0.00000000000000000 0.00000000000000000 1.00000000000000000 1.00000000000000000 0.00000000000000000 0.00000000000000000 0.00000000000000000 1.00000000000000000 0.00000000000000000 6.50000000000000000
2 -31.75000000000000000 -470.63749999999998863 44.44999999999999574 0.00000000000000000 0.00000000000000000 1.00000000000000000 1.00000000000000000 0.00000000000000000 0.00000000000000000 0.00000000000000000 1.00000000000000000 0.00000000000000000 6.50000000000000000
1 2374.75000000000000000 470.63749999999998863 576.50000000000000000 0.00000000000000000 0.00000000000000000 1.00000000000000000 
1 2374.75000000000000000 429.36250000000001137 576.50000000000000000 0.00000000000000000 0.00000000000000000 1.00000000000000000 
1 2412.84999999999990905 730.63750000000004547 576.50000000000000000 0.00000000000000000 0.00000000000000000 1.00000000000000000 
1 2412.84999999999990905 689.36249999999995453 576.50000000000000000 0.00000000000000000 0.00000000000000000 1.00000000000000000 
1 2374.75000000000000000 -429.36250000000001137 576.50000000000000000 0.00000000000000000 0.00000000000000000 1.00000000000000000 
1 2374.75000000000000000 -470.63749999999998863 576.50000000000000000 0.00000000000000000 0.00000000000000000 1.00000000000000000 
1 2412.84999999999990905 -689.36249999999995453 576.50000000000000000 0.00000000000000000 0.00000000000000000 1.00000000000000000 
1 2412.84999999999990905 -730.63750000000004547 576.50000000000000000 0.00000000000000000 0.00000000000000000 1.00000000000000000 
Polygon3D 0
PolygonOnTriangulations 0
Surfaces 34
1 -76.20000000000000284 -1100.00000000000000000 0.00000000000000000 1.00000000000000000 0.00000000000000000 0.00000000000000000 0.00000000000000000 0.00000000000000000 1.00000000000000000 0.00000000000000000 -1.00000000000000000 0.00000000000000000 
2 2322.80000000000018190 292.10000000000002274 558.44999999999993179 1.00000000000000000 0.00000000000000000 0.00000000000000000 0.00000000000000000 0.00000000000000000 1.00000000000000000 0.00000000000000000 -1.00000000000000000 0.00000000000000000 6.50000000000000000
2 2322.80000000000018190 254.00000000000000000 558.44999999999993179 1.00000000000000000 0.00000000000000000 0.00000000000000000 0.00000000000000000 0.00000000000000000 1.00000000000000000 0.00000000000000000 -1.00000000000000000 0.00000000000000000 6.50000000000000000
2 -77.20000000000000284 741.75000000000000000 25.39999999999999858 1.00000000000000000 0.00000000000000000 0.00000000000000000 0.00000000000000000 0.00000000000000000 1.00000000000000000 0.00000000000000000 -1.00000000000000000 0.00000000000000000 6.50000000000000000
2 -77.20000000000000284 710.00000000000000000 25.39999999999999858 1.00000000000000000 0.00000000000000000 0.00000000000000000 0.00000000000000000 0.00000000000000000 1.00000000000000000 0.00000000000000000 -1.00000000000000000 0.00000000000000000 6.50000000000000000
2 -77.20000000000000284 678.25000000000000000 25.39999999999999858 1.00000000000000000 0.00000000000000000 0.00000000000000000 0.00000000000000000 0.00000000000000000 1.00000000000000000 0.00000000000000000 -1.00000000000000000 0.00000000000000000 6.50000000000000000
2 -77.20000000000000284 481.75000000000000000 25.39999999999999858 1.00000000000000000 0.00000000000000000 0.00000000000000000 0.00000000000000000 0.00000000000000000 1.00000000000000000 0.00000000000000000 -1.00000000000000000 0.00000000000000000 6.50000000000000000
2 -77.20000000000000284 450.00000000000000000 25.39999999999999858 1.00000000000000000 0.00000000000000000 0.00000000000000000 0.00000000000000000 0.00000000000000000 1.00000000000000000 0.00000000000000000 -1.00000000000000000 0.00000000000000000 6.50000000000000000
2 -77.20000000000000284 418.25000000000000000 25.39999999999999858 1.00000000000000000 0.00000000000000000 0.00000000000000000 0.00000000000000000 0.00000000000000000 1.00000000000000000 0.00000000000000000 -1.00000000000000000 0.00000000000000000 6.50000000000000000
2 2322.80000000000018190 -203.19999999999998863 558.44999999999993179 1.00000000000000000 0.00000000000000000 0.00000000000000000 0.00000000000000000 0.00000000000000000 1.00000000000000000 0.00000000000000000 -1.00000000000000000 0.00000000000000000 6.50000000000000000
2 2322.80000000000018190 -241.30000000000001137 558.44999999999993179 1.00000000000000000 0.00000000000000000 0.00000000000000000 0.00000000000000000 0.00000000000000000 1.00000000000000000 0.00000000000000000 -1.00000000000000000 0.00000000000000000 6.50000000000000000
2 -77.20000000000000284 -418.25000000000000000 25.39999999999999858 1.00000000000000000 0.00000000000000000 0.00000000000000000 0.00000000000000000 0.00000000000000000 1.00000000000000000 0.00000000000000000 -1.00000000000000000 0.00000000000000000 6.50000000000000000
2 -77.20000000000000284 -450.00000000000000000 25.39999999999999858 1.00000000000000000 0.00000000000000000 0.00000000000000000 0.00000000000000000 0.00000000000000000 1.00000000000000000 0.00000000000000000 -1.00000000000000000 0.00000000000000000 6.50000000000000000
2 -77.20000000000000284 -481.75000000000000000 25.39999999999999858 1.00000000000000000 0.00000000000000000 0.00000000000000000 0.00000000000000000 0.00000000000000000 1.00000000000000000 0.00000000000000000 -1.00000000000000000 0.00000000000000000 6.50000000000000000
2 -77.20000000000000284 -678.25000000000000000 25.39999999999999858 1.00000000000000000 0.00000000000000000 0.00000000000000000 0.00000000000000000 0.00000000000000000 1.00000000000000000 0.00000000000000000 -1.00000000000000000 0.00000000000000000 6.50000000000000000
2 -77.20000000000000284 -710.00000000000000000 25.39999999999999858 1.00000000000000000 0.00000000000000000 0.00000000000000000 0.00000000000000000 0.00000000000000000 1.00000000000000000 0.00000000000000000 -1.00000000000000000 0.00000000000000000 6.50000000000000000
2 -77.20000000000000284 -741.75000000000000000 25.39999999999999858 1.00000000000000000 0.00000000000000000 0.00000000000000000 0.00000000000000000 0.00000000000000000 1.00000000000000000 0.00000000000000000 -1.00000000000000000 0.00000000000000000 6.50000000000000000
1 -69.85000000000000853 -1100.00000000000000000 0.00000000000000000 0.00000000000000000 0.00000000000000000 1.00000000000000000 -1.00000000000000000 0.00000000000000000 0.00000000000000000 0.00000000000000000 -1.00000000000000000 0.00000000000000000 
1 -0.00000000000000247 -1099.99999999999954525 37.36730769230766924 0.00000000000000000 1.00000000000000000 0.00000000000000000 0.00000000000000000 0.00000000000000000 1.00000000000000000 1.00000000000000000 0.00000000000000000 0.00000000000000000 
1 -0.00000000000000247 -1099.99999999999954525 37.36730769230766924 0.00000000000000000 1.00000000000000000 0.00000000000000000 0.00000000000000000 0.00000000000000000 1.00000000000000000 1.00000000000000000 0.00000000000000000 0.00000000000000000 
1 -76.20000000000000284 -1100.00000000000000000 50.79999999999999716 0.00000000000000000 0.00000000000000000 -1.00000000000000000 1.00000000000000000 0.00000000000000000 0.00000000000000000 0.00000000000000000 -1.00000000000000000 0.00000000000000000 
2 2368.25000000000000000 470.63749999999998863 576.50000000000000000 0.00000000000000000 0.00000000000000000 1.00000000000000000 1.00000000000000000 0.00000000000000000 0.00000000000000000 0.00000000000000000 1.00000000000000000 0.00000000000000000 6.50000000000000000
2 2368.25000000000000000 429.36250000000001137 576.50000000000000000 0.00000000000000000 0.00000000000000000 1.00000000000000000 1.00000000000000000 0.00000000000000000 0.00000000000000000 0.00000000000000000 1.00000000000000000 0.00000000000000000 6.50000000000000000
2 2406.34999999999990905 730.63750000000004547 576.50000000000000000 0.00000000000000000 0.00000000000000000 1.00000000000000000 1.00000000000000000 0.00000000000000000 0.00000000000000000 0.00000000000000000 1.00000000000000000 0.00000000000000000 6.50000000000000000
2 2406.34999999999990905 689.36249999999995453 576.50000000000000000 0.00000000000000000 0.00000000000000000 1.00000000000000000 1.00000000000000000 0.00000000000000000 0.00000000000000000 0.00000000000000000 1.00000000000000000 0.00000000000000000 6.50000000000000000
2 2368.25000000000000000 -429.36250000000001137 576.50000000000000000 0.00000000000000000 0.00000000000000000 1.00000000000000000 1.00000000000000000 0.00000000000000000 0.00000000000000000 0.00000000000000000 1.00000000000000000 0.00000000000000000 6.50000000000000000
2 2368.25000000000000000 -470.63749999999998863 576.50000000000000000 0.00000000000000000 0.00000000000000000 1.00000000000000000 1.00000000000000000 0.00000000000000000 0.00000000000000000 0.00000000000000000 1.00000000000000000 0.00000000000000000 6.50000000000000000
2 2406.34999999999990905 -689.36249999999995453 576.50000000000000000 0.00000000000000000 0.00000000000000000 1.00000000000000000 1.00000000000000000 0.00000000000000000 0.00000000000000000 0.00000000000000000 1.00000000000000000 0.00000000000000000 6.50000000000000000
2 2406.34999999999990905 -730.63750000000004547 576.50000000000000000 0.00000000000000000 0.00000000000000000 1.00000000000000000 1.00000000000000000 0.00000000000000000 0.00000000000000000 0.00000000000000000 1.00000000000000000 0.00000000000000000 6.50000000000000000
1 -69.85000000000000853 -1100.00000000000000000 44.44999999999999574 -1.00000000000000000 0.00000000000000000 0.00000000000000000 0.00000000000000000 0.00000000000000000 -1.00000000000000000 -0.00000000000000000 -1.00000000000000000 -0.00000000000000000 
1 76.20000000000000284 -1100.00000000000000000 50.79999999999999716 -1.00000000000000000 0.00000000000000000 0.00000000000000000 0.00000000000000000 0.00000000000000000 -1.00000000000000000 -0.00000000000000000 -1.00000000000000000 -0.00000000000000000 
1 76.20000000000000284 -1100.00000000000000000 0.00000000000000000 0.00000000000000000 0.00000000000000000 1.00000000000000000 -1.00000000000000000 0.00000000000000000 0.00000000000000000 0.00000000000000000 -1.00000000000000000 0.00000000000000000 
1 69.85000000000000853 -1100.00000000000000000 0.00000000000000000 1.00000000000000000 0.00000000000000000 0.00000000000000000 0.00000000000000000 0.00000000000000000 1.00000000000000000 0.00000000000000000 -1.00000000000000000 0.00000000000000000 
1 69.85000000000000853 -1100.00000000000000000 44.44999999999999574 0.00000000000000000 0.00000000000000000 1.00000000000000000 -1.00000000000000000 0.00000000000000000 0.00000000000000000 0.00000000000000000 -1.00000000000000000 0.00000000000000000 
Triangulations 0

TShapes 281
Ve
0.000000100000000
-76.200000000000003 -1100.000000000000000 0.000000000000000
0 0

0101101
*
Ve
0.000000100000000
-76.200000000000003 1100.000000000000000 0.000000000000000
0 0

0101101
*
Ed
 0.000000100000000 1 1 0
1  1 0 0.000000000000000 2200.000000000000000
0

0101000
+281 6 -280 6 *
Ve
0.000000100000000
-76.200000000000003 -1100.000000000000000 50.799999999999997
0 0

0101101
*
Ed
 0.000000100000000 1 1 0
1  2 0 0.000000000000000 50.799999999999997
0

0101000
+281 6 -278 6 *
Ve
0.000000100000000
-76.200000000000003 1100.000000000000000 50.799999999999997
0 0

0101101
*
Ed
 0.000000100000000 1 1 0
1  3 0 0.000000000000000 50.799999999999997
0

0101000
+280 9 -276 9 *
Ed
 0.000000100000000 1 1 0
1  4 0 0.000000000000000 2200.000000000000000
0

0101000
+278 6 -276 6 *
Wi

0101100
+279 4 -277 4 +275 8 -274 4 *
Ve
0.000000100000185
-76.200000000000003 292.100000000000023 31.899999999999977
0 0

0101101
*
Ed
 0.000000100000000 1 1 0
1  5 0 0.000000000000000 6.283185307179586
2  1 2 10 0.000000000000000 6.283185307179586
0

0101100
+272 11 -272 11 *
Wi

0101100
-271 0 *
Ve
0.000000100000185
-76.200000000000003 254.000000000000000 31.899999999999977
0 0

0101101
*
Ed
 0.000000100000000 1 1 0
1  6 0 0.000000000000000 6.283185307179586
2  2 3 12 0.000000000000000 6.283185307179586
0

0101100
+269 11 -269 11 *
Wi

0101100
-268 0 *
Ve
0.000000100000000
-76.200000000000003 741.750000000000000 31.899999999999999
0 0

0101101
*
Ed
 0.000000100000000 1 1 0
1  7 0 0.000000000000000 6.283185307179586
2  3 4 0 0.000000000000000 6.283185307179586
0

0101100
+266 6 -266 6 *
Wi

0101100
-265 4 *
Ve
0.000000100000000
-76.200000000000003 710.000000000000000 31.899999999999999
0 0

0101101
*
Ed
 0.000000100000000 1 1 0
1  8 0 0.000000000000000 6.283185307179586
2  4 5 0 0.000000000000000 6.283185307179586
0

0101100
+263 6 -263 6 *
Wi

0101100
-262 4 *
Ve
0.000000100000000
-76.200000000000003 678.250000000000000 31.899999999999999
0 0

0101101
*
Ed
 0.000000100000000 1 1 0
1  9 0 0.000000000000000 6.283185307179586
2  5 6 0 0.000000000000000 6.283185307179586
0

0101100
+260 6 -260 6 *
Wi

0101100
-259 4 *
Ve
0.000000100000000
-76.200000000000003 481.750000000000000 31.899999999999999
0 0

0101101
*
Ed
 0.000000100000000 1 1 0
1  10 0 0.000000000000000 6.283185307179586
2  6 7 0 0.000000000000000 6.283185307179586
0

0101100
+257 6 -257 6 *
Wi

0101100
-256 4 *
Ve
0.000000100000000
-76.200000000000003 450.000000000000000 31.899999999999999
0 0

0101101
*
Ed
 0.000000100000000 1 1 0
1  11 0 0.000000000000000 6.283185307179586
2  7 8 0 0.000000000000000 6.283185307179586
0

0101100
+254 6 -254 6 *
Wi

0101100
-253 4 *
Ve
0.000000100000000
-76.200000000000003 418.250000000000000 31.899999999999999
0 0

0101101
*
Ed
 0.000000100000000 1 1 0
1  12 0 0.000000000000000 6.283185307179586
2  8 9 0 0.000000000000000 6.283185307179586
0

0101100
+251 6 -251 6 *
Wi

0101100
-250 4 *
Ve
0.000000100000185
-76.200000000000003 -203.199999999999989 31.899999999999977
0 0

0101101
*
Ed
 0.000000100000000 1 1 0
1  13 0 0.000000000000000 6.283185307179586
2  9 10 13 0.000000000000000 6.283185307179586
0

0101100
+248 11 -248 11 *
Wi

0101100
-247 0 *
Ve
0.000000100000185
-76.200000000000003 -241.300000000000011 31.899999999999977
0 0

0101101
*
Ed
 0.000000100000000 1 1 0
1  14 0 0.000000000000000 6.283185307179586
2  10 11 14 0.000000000000000 6.283185307179586
0

0101100
+245 11 -245 11 *
Wi

0101100
-244 0 *
Ve
0.000000100000000
-76.200000000000003 -418.250000000000000 31.899999999999999
0 0

0101101
*
Ed
 0.000000100000000 1 1 0
1  15 0 0.000000000000000 6.283185307179586
2  11 12 0 0.000000000000000 6.283185307179586
0

0101100
+242 6 -242 6 *
Wi

0101100
-241 4 *
Ve
0.000000100000000
-76.200000000000003 -450.000000000000000 31.899999999999999
0 0

0101101
*
Ed
 0.000000100000000 1 1 0
1  16 0 0.000000000000000 6.283185307179586
2  12 13 0 0.000000000000000 6.283185307179586
0

0101100
+239 6 -239 6 *
Wi

0101100
-238 4 *
Ve
0.000000100000000
-76.200000000000003 -481.750000000000000 31.899999999999999
0 0

0101101
*
Ed
 0.000000100000000 1 1 0
1  17 0 0.000000000000000 6.283185307179586
2  13 14 0 0.000000000000000 6.283185307179586
0

0101100
+236 6 -236 6 *
Wi

0101100
-235 4 *
Ve
0.000000100000000
-76.200000000000003 -678.250000000000000 31.899999999999999
0 0

0101101
*
Ed
 0.000000100000000 1 1 0
1  18 0 0.000000000000000 6.283185307179586
2  14 15 0 0.000000000000000 6.283185307179586
0

0101100
+233 6 -233 6 *
Wi

0101100
-232 4 *
Ve
0.000000100000000
-76.200000000000003 -710.000000000000000 31.899999999999999
0 0

0101101
*
Ed
 0.000000100000000 1 1 0
1  19 0 0.000000000000000 6.283185307179586
2  15 16 0 0.000000000000000 6.283185307179586
0

0101100
+230 6 -230 6 *
Wi

0101100
-229 4 *
Ve
0.000000100000000
-76.200000000000003 -741.750000000000000 31.899999999999999
0 0

0101101
*
Ed
 0.000000100000000 1 1 0
1  20 0 0.000000000000000 6.283185307179586
2  16 17 0 0.000000000000000 6.283185307179586
0

0101100
+227 6 -227 6 *
Wi

0101100
-226 4 *
Fa
0  0.000000100000000 1 4

0101000
+273 0 +270 0 +267 0 +264 0 +261 0 +258 0 +255 0 +252 0 +249 0 +246 0 
+243 0 +240 0 +237 0 +234 0 +231 0 +228 0 +225 0 *
Ve
0.000000100000000
-69.850000000000009 -1100.000000000000000 0.000000000000000
0 0

0101101
*
Ve
0.000000100000000
-69.850000000000009 1100.000000000000000 0.000000000000000
0 0

0101101
*
Ed
 0.000000100000000 1 1 0
1  21 0 0.000000000000000 2200.000000000000000
0

0101000
+223 6 -222 6 *
Ed
 0.000000100000000 1 1 0
1  22 0 0.000000000000000 6.349999999999994
0

0101000
+223 6 -281 6 *
Ed
 0.000000100000000 1 1 0
1  23 0 0.000000000000000 6.349999999999994
0

0101000
+222 9 -280 9 *
Wi

0101100
+221 0 -279 0 -220 0 +219 7 *
Fa
0  0.000000100000000 18 0

0111000
+218 0 *
Ve
0.000000100000000
76.200000000000003 -1100.000000000000000 50.799999999999997
0 0

0101101
*
Ed
 0.000000100000000 1 1 0
1  24 0 0.000000000000000 152.400000000000006
0

0101000
+278 6 -216 6 *
Ve
0.000000100000000
76.200000000000003 -1100.000000000000000 0.000000000000000
0 0

0101101
*
Ed
 0.000000100000000 1 1 0
1  25 0 0.000000000000000 50.799999999999997
0

0101000
+216 6 -214 6 *
Ve
0.000000100000000
69.850000000000009 -1100.000000000000000 0.000000000000000
0 0

0101101
*
Ed
 0.000000100000000 1 1 0
1  26 0 0.000000000000000 6.349999999999994
0

0101000
+214 6 -212 6 *
Ve
0.000000100000000
69.850000000000009 -1100.000000000000000 44.449999999999996
0 0

0101101
*
Ed
 0.000000100000000 1 1 0
1  27 0 0.000000000000000 44.449999999999996
0

0101000
+212 6 -210 6 *
Ve
0.000000100000000
-69.850000000000009 -1100.000000000000000 44.449999999999996
0 0

0101101
*
Ed
 0.000000100000000 1 1 0
1  28 0 0.000000000000000 139.700000000000017
0

0101000
+210 6 -208 6 *
Ed
 0.000000100000000 1 1 0
1  29 0 0.000000000000000 44.449999999999996
0

0101000
+208 6 -223 6 *
Wi

0101100
+277 0 +215 0 +213 0 +211 0 +209 0 +207 0 +206 0 +220 0 *
Fa
0  0.000000100000000 19 0

0111000
+205 0 *
Ve
0.000000100000000
76.200000000000003 1100.000000000000000 50.799999999999997
0 0

0101101
*
Ed
 0.000000100000000 1 1 0
1  30 0 0.000000000000000 152.400000000000006
0

0101000
+276 9 -203 9 *
Ve
0.000000100000000
76.200000000000003 1100.000000000000000 0.000000000000000
0 0

0101101
*
Ed
 0.000000100000000 1 1 0
1  31 0 0.000000000000000 50.799999999999997
0

0101000
+203 9 -201 9 *
Ve
0.000000100000000
69.850000000000009 1100.000000000000000 0.000000000000000
0 0

0101101
*
Ed
 0.000000100000000 1 1 0
1  32 0 0.000000000000000 6.349999999999994
0

0101000
+201 9 -199 9 *
Ve
0.000000100000000
69.850000000000009 1100.000000000000000 44.449999999999996
0 0

0101101
*
Ed
 0.000000100000000 1 1 0
1  33 0 0.000000000000000 44.449999999999996
0

0101000
+199 9 -197 9 *
Ve
0.000000100000000
-69.850000000000009 1100.000000000000000 44.449999999999996
0 0

0101101
*
Ed
 0.000000100000000 1 1 0
1  34 0 0.000000000000000 139.700000000000017
0

0101000
+197 9 -195 9 *
Ed
 0.000000100000000 1 1 0
1  35 0 0.000000000000000 44.449999999999996
0

0101000
+195 9 -222 9 *
Wi

0101100
+275 0 +202 0 +200 0 +198 0 +196 0 +194 0 +193 0 +219 0 *
Fa
0  0.000000100000000 20 0

0111000
+192 0 *
Ed
 0.000000100000000 1 1 0
1  36 0 0.000000000000000 2200.000000000000000
0

0101000
+216 6 -203 6 *
Wi

0101100
+274 2 -215 2 +202 15 -190 2 *
Ve
0.000000100000043
-25.250000000000000 470.637499999999989 50.799999999999997
0 0

0101101
*
Ed
 0.000000100000000 1 1 0
1  37 0 0.000000000000000 6.283185307179586
2  17 22 16 0.000000000000000 6.283185307179586
0

0101100
+188 17 -188 17 *
Wi

0101100
+187 0 *
Ve
0.000000100000043
-25.250000000000000 429.362500000000011 50.799999999999997
0 0

0101101
*
Ed
 0.000000100000000 1 1 0
1  38 0 0.000000000000000 6.283185307179586
2  18 23 18 0.000000000000000 6.283185307179586
0

0101100
+185 17 -185 17 *
Wi

0101100
+184 0 *
Ve
0.000000100000043
12.849999999999909 730.637500000000045 50.799999999999997
0 0

0101101
*
Ed
 0.000000100000000 1 1 0
1  39 0 0.000000000000000 6.283185307179586
2  19 24 19 0.000000000000000 6.283185307179586
0

0101100
+182 17 -182 17 *
Wi

0101100
+181 0 *
Ve
0.000000100000043
12.849999999999909 689.362499999999955 50.799999999999997
0 0

0101101
*
Ed
 0.000000100000000 1 1 0
1  40 0 0.000000000000000 6.283185307179586
2  20 25 20 0.000000000000000 6.283185307179586
0

0101100
+179 17 -179 17 *
Wi

0101100
+178 0 *
Ve
0.000000100000043
-25.250000000000000 -429.362500000000011 50.799999999999997
0 0

0101101
*
Ed
 0.000000100000000 1 1 0
1  41 0 0.000000000000000 6.283185307179586
2  21 26 21 0.000000000000000 6.283185307179586
0

0101100
+176 17 -176 17 *
Wi

0101100
+175 0 *
Ve
0.000000100000043
-25.250000000000000 -470.637499999999989 50.799999999999997
0 0

0101101
*
Ed
 0.000000100000000 1 1 0
1  42 0 0.000000000000000 6.283185307179586
2  22 27 22 0.000000000000000 6.283185307179586
0

0101100
+173 17 -173 17 *
Wi

0101100
+172 0 *
Ve
0.000000100000043
12.849999999999909 -689.362499999999955 50.799999999999997
0 0

0101101
*
Ed
 0.000000100000000 1 1 0
1  43 0 0.000000000000000 6.283185307179586
2  23 28 23 0.000000000000000 6.283185307179586
0

0101100
+170 17 -170 17 *
Wi

0101100
+169 0 *
Ve
0.000000100000043
12.849999999999909 -730.637500000000045 50.799999999999997
0 0

0101101
*
Ed
 0.000000100000000 1 1 0
1  44 0 0.000000000000000 6.283185307179586
2  24 29 24 0.000000000000000 6.283185307179586
0

0101100
+167 17 -167 17 *
Wi

0101100
+166 0 *
Fa
0  0.000000100000000 21 2

0111000
+189 0 +186 0 +183 0 +180 0 +177 0 +174 0 +171 0 +168 0 +165 0 *
Ve
0.000000100000099
-69.850000000000009 292.100000000000023 31.899999999999977
0 0

0101101
*
Ed
 0.000000100000000 1 1 0
1  45 0 0.000000000000000 6.283185307179586
2  25 2 10 0.000000000000000 6.283185307179586
0

0101100
+163 11 -163 11 *
Ed
 0.000000100000000 1 1 0
1  46 0 0.999999999999815 7.349999999999810
3  26 27CN 2 0 0.999999999999815 7.349999999999810
0

0101000
+272 25 -163 25 *
Wi

0101100
-162 0 +161 10 +271 0 -161 10 *
Fa
0  0.000000100000000 2 10

0101000
+160 0 *
Ve
0.000000100000099
-69.850000000000009 254.000000000000000 31.899999999999977
0 0

0101101
*
Ed
 0.000000100000000 1 1 0
1  47 0 0.000000000000000 6.283185307179586
2  28 3 12 0.000000000000000 6.283185307179586
0

0101100
+158 11 -158 11 *
Ed
 0.000000100000000 1 1 0
1  48 0 0.999999999999815 7.349999999999810
3  29 30CN 3 0 0.999999999999815 7.349999999999810
0

0101000
+269 26 -158 26 *
Wi

0101100
-157 0 +156 12 +268 0 -156 12 *
Fa
0  0.000000100000000 3 12

0101000
+155 0 *
Ve
0.000000100000000
-69.850000000000009 741.750000000000000 31.899999999999999
0 0

0101101
*
Ed
 0.000000100000000 1 1 0
1  49 0 0.000000000000000 6.283185307179586
2  31 4 0 0.000000000000000 6.283185307179586
0

0101100
+153 6 -153 6 *
Ed
 0.000000100000000 1 1 0
1  50 0 1.000000000000000 7.349999999999994
3  32 33CN 4 0 1.000000000000000 7.349999999999994
0

0101000
+266 6 -153 6 *
Wi

0101100
-152 0 +151 0 +265 0 -151 0 *
Fa
0  0.000000100000000 4 0

0111000
+150 0 *
Ve
0.000000100000000
-69.850000000000009 710.000000000000000 31.899999999999999
0 0

0101101
*
Ed
 0.000000100000000 1 1 0
1  51 0 0.000000000000000 6.283185307179586
2  34 5 0 0.000000000000000 6.283185307179586
0

0101100
+148 6 -148 6 *
Ed
 0.000000100000000 1 1 0
1  52 0 1.000000000000000 7.349999999999994
3  35 36CN 5 0 1.000000000000000 7.349999999999994
0

0101000
+263 6 -148 6 *
Wi

0101100
-147 0 +146 0 +262 0 -146 0 *
Fa
0  0.000000100000000 5 0

0111000
+145 0 *
Ve
0.000000100000000
-69.850000000000009 678.250000000000000 31.899999999999999
0 0

0101101
*
Ed
 0.000000100000000 1 1 0
1  53 0 0.000000000000000 6.283185307179586
2  37 6 0 0.000000000000000 6.283185307179586
0

0101100
+143 6 -143 6 *
Ed
 0.000000100000000 1 1 0
1  54 0 1.000000000000000 7.349999999999994
3  38 39CN 6 0 1.000000000000000 7.349999999999994
0

0101000
+260 6 -143 6 *
Wi

0101100
-142 0 +141 0 +259 0 -141 0 *
Fa
0  0.000000100000000 6 0

0111000
+140 0 *
Ve
0.000000100000000
-69.850000000000009 481.750000000000000 31.899999999999999
0 0

0101101
*
Ed
 0.000000100000000 1 1 0
1  55 0 0.000000000000000 6.283185307179586
2  40 7 0 0.000000000000000 6.283185307179586
0

0101100
+138 6 -138 6 *
Ed
 0.000000100000000 1 1 0
1  56 0 1.000000000000000 7.349999999999994
3  41 42CN 7 0 1.000000000000000 7.349999999999994
0

0101000
+257 6 -138 6 *
Wi

0101100
-137 0 +136 0 +256 0 -136 0 *
Fa
0  0.000000100000000 7 0

0111000
+135 0 *
Ve
0.000000100000000
-69.850000000000009 450.000000000000000 31.899999999999999
0 0

0101101
*
Ed
 0.000000100000000 1 1 0
1  57 0 0.000000000000000 6.283185307179586
2  43 8 0 0.000000000000000 6.283185307179586
0

0101100
+133 6 -133 6 *
Ed
 0.000000100000000 1 1 0
1  58 0 1.000000000000000 7.349999999999994
3  44 45CN 8 0 1.000000000000000 7.349999999999994
0

0101000
+254 6 -133 6 *
Wi

0101100
-132 0 +131 0 +253 0 -131 0 *
Fa
0  0.000000100000000 8 0

0111000
+130 0 *
Ve
0.000000100000000
-69.850000000000009 418.250000000000000 31.899999999999999
0 0

0101101
*
Ed
 0.000000100000000 1 1 0
1  59 0 0.000000000000000 6.283185307179586
2  46 9 0 0.000000000000000 6.283185307179586
0

0101100
+128 6 -128 6 *
Ed
 0.000000100000000 1 1 0
1  60 0 1.000000000000000 7.349999999999994
3  47 48CN 9 0 1.000000000000000 7.349999999999994
0

0101000
+251 6 -128 6 *
Wi

0101100
-127 0 +126 0 +250 0 -126 0 *
Fa
0  0.000000100000000 9 0

0111000
+125 0 *
Ve
0.000000100000099
-69.850000000000009 -203.199999999999989 31.899999999999977
0 0

0101101
*
Ed
 0.000000100000000 1 1 0
1  61 0 0.000000000000000 6.283185307179586
2  49 10 13 0.000000000000000 6.283185307179586
0

0101100
+123 11 -123 11 *
Ed
 0.000000100000000 1 1 0
1  62 0 0.999999999999815 7.349999999999810
3  50 51CN 10 0 0.999999999999815 7.349999999999810
0

0101000
+248 27 -123 27 *
Wi

0101100
-122 0 +121 13 +247 0 -121 13 *
Fa
0  0.000000100000000 10 13

0101000
+120 0 *
Ve
0.000000100000099
-69.850000000000009 -241.300000000000011 31.899999999999977
0 0

0101101
*
Ed
 0.000000100000000 1 1 0
1  63 0 0.000000000000000 6.283185307179586
2  52 11 14 0.000000000000000 6.283185307179586
0

0101100
+118 11 -118 11 *
Ed
 0.000000100000000 1 1 0
1  64 0 0.999999999999815 7.349999999999810
3  53 54CN 11 0 0.999999999999815 7.349999999999810
0

0101000
+245 28 -118 28 *
Wi

0101100
-117 0 +116 14 +244 0 -116 14 *
Fa
0  0.000000100000000 11 14

0101000
+115 0 *
Ve
0.000000100000000
-69.850000000000009 -418.250000000000000 31.899999999999999
0 0

0101101
*
Ed
 0.000000100000000 1 1 0
1  65 0 0.000000000000000 6.283185307179586
2  55 12 0 0.000000000000000 6.283185307179586
0

0101100
+113 6 -113 6 *
Ed
 0.000000100000000 1 1 0
1  66 0 1.000000000000000 7.349999999999994
3  56 57CN 12 0 1.000000000000000 7.349999999999994
0

0101000
+242 6 -113 6 *
Wi

0101100
-112 0 +111 0 +241 0 -111 0 *
Fa
0  0.000000100000000 12 0

0111000
+110 0 *
Ve
0.000000100000000
-69.850000000000009 -450.000000000000000 31.899999999999999
0 0

0101101
*
Ed
 0.000000100000000 1 1 0
1  67 0 0.000000000000000 6.283185307179586
2  58 13 0 0.000000000000000 6.283185307179586
0

0101100
+108 6 -108 6 *
Ed
 0.000000100000000 1 1 0
1  68 0 1.000000000000000 7.349999999999994
3  59 60CN 13 0 1.000000000000000 7.349999999999994
0

0101000
+239 6 -108 6 *
Wi

0101100
-107 0 +106 0 +238 0 -106 0 *
Fa
0  0.000000100000000 13 0

0111000
+105 0 *
Ve
0.000000100000000
-69.850000000000009 -481.750000000000000 31.899999999999999
0 0

0101101
*
Ed
 0.000000100000000 1 1 0
1  69 0 0.000000000000000 6.283185307179586
2  61 14 0 0.000000000000000 6.283185307179586
0

0101100
+103 6 -103 6 *
Ed
 0.000000100000000 1 1 0
1  70 0 1.000000000000000 7.349999999999994
3  62 63CN 14 0 1.000000000000000 7.349999999999994
0

0101000
+236 6 -103 6 *
Wi

0101100
-102 0 +101 0 +235 0 -101 0 *
Fa
0  0.000000100000000 14 0

0111000
+100 0 *
Ve
0.000000100000000
-69.850000000000009 -678.250000000000000 31.899999999999999
0 0

0101101
*
Ed
 0.000000100000000 1 1 0
1  71 0 0.000000000000000 6.283185307179586
2  64 15 0 0.000000000000000 6.283185307179586
0

0101100
+98 6 -98 6 *
Ed
 0.000000100000000 1 1 0
1  72 0 1.000000000000000 7.349999999999994
3  65 66CN 15 0 1.000000000000000 7.349999999999994
0

0101000
+233 6 -98 6 *
Wi

0101100
-97 0 +96 0 +232 0 -96 0 *
Fa
0  0.000000100000000 15 0

0111000
+95 0 *
Ve
0.000000100000000
-69.850000000000009 -710.000000000000000 31.899999999999999
0 0

0101101
*
Ed
 0.000000100000000 1 1 0
1  73 0 0.000000000000000 6.283185307179586
2  67 16 0 0.000000000000000 6.283185307179586
0

0101100
+93 6 -93 6 *
Ed
 0.000000100000000 1 1 0
1  74 0 1.000000000000000 7.349999999999994
3  68 69CN 16 0 1.000000000000000 7.349999999999994
0

0101000
+230 6 -93 6 *
Wi

0101100
-92 0 +91 0 +229 0 -91 0 *
Fa
0  0.000000100000000 16 0

0111000
+90 0 *
Ve
0.000000100000000
-69.850000000000009 -741.750000000000000 31.899999999999999
0 0

0101101
*
Ed
 0.000000100000000 1 1 0
1  75 0 0.000000000000000 6.283185307179586
2  70 17 0 0.000000000000000 6.283185307179586
0

0101100
+88 6 -88 6 *
Ed
 0.000000100000000 1 1 0
1  76 0 1.000000000000000 7.349999999999994
3  71 72CN 17 0 1.000000000000000 7.349999999999994
0

0101000
+227 6 -88 6 *
Wi

0101100
-87 0 +86 0 +226 0 -86 0 *
Fa
0  0.000000100000000 17 0

0111000
+85 0 *
Ed
 0.000000100000000 1 1 0
1  77 0 0.000000000000000 2200.000000000000000
0

0101000
+208 6 -195 6 *
Wi

0101100
+83 4 -206 4 +193 8 -221 4 *
Wi

0101100
+152 4 *
Wi

0101100
+147 4 *
Wi

0101100
+142 4 *
Wi

0101100
+137 4 *
Wi

0101100
+132 4 *
Wi

0101100
+127 4 *
Wi

0101100
+162 0 *
Wi

0101100
+157 0 *
Wi

0101100
+112 4 *
Wi

0101100
+107 4 *
Wi

0101100
+102 4 *
Wi

0101100
+97 4 *
Wi

0101100
+92 4 *
Wi

0101100
+87 4 *
Wi

0101100
+122 0 *
Wi

0101100
+117 0 *
Fa
0  0.000000100000000 30 4

0101000
+82 0 +81 0 +80 0 +79 0 +78 0 +77 0 +76 0 +75 0 +74 0 +73 0 
+72 0 +71 0 +70 0 +69 0 +68 0 +67 0 +66 0 *
Ed
 0.000000100000000 1 1 0
1  78 0 0.000000000000000 2200.000000000000000
0

0101000
+214 6 -201 6 *
Wi

0101100
+190 0 -64 0 -213 0 +200 7 *
Fa
0  0.000000100000000 31 0

0111000
+63 0 *
Ed
 0.000000100000000 1 1 0
1  79 0 0.000000000000000 2200.000000000000000
0

0101000
+212 6 -199 6 *
Wi

0101100
+64 0 -61 0 -211 0 +198 7 *
Fa
0  0.000000100000000 32 0

0111000
+60 0 *
Ed
 0.000000100000000 1 1 0
1  80 0 0.000000000000000 2200.000000000000000
0

0101000
+210 6 -197 6 *
Wi

0101100
+61 0 -58 0 -209 0 +196 7 *
Fa
0  0.000000100000000 33 0

0111000
+57 0 *
Wi

0101100
+58 2 -207 2 +194 15 -83 2 *
Ve
0.000000100000050
12.849999999999909 730.637500000000045 44.449999999999996
0 0

0101101
*
Ed
 0.000000100000000 1 1 0
1  81 0 0.000000000000000 6.283185307179586
2  73 24 19 0.000000000000000 6.283185307179586
0

0101100
+54 17 -54 17 *
Wi

0101100
-53 0 *
Ve
0.000000100000050
12.849999999999909 689.362499999999955 44.449999999999996
0 0

0101101
*
Ed
 0.000000100000000 1 1 0
1  82 0 0.000000000000000 6.283185307179586
2  74 25 20 0.000000000000000 6.283185307179586
0

0101100
+51 17 -51 17 *
Wi

0101100
-50 0 *
Ve
0.000000100000050
-25.250000000000000 470.637499999999989 44.449999999999996
0 0

0101101
*
Ed
 0.000000100000000 1 1 0
1  83 0 0.000000000000000 6.283185307179586
2  75 22 16 0.000000000000000 6.283185307179586
0

0101100
+48 17 -48 17 *
Wi

0101100
-47 0 *
Ve
0.000000100000050
-25.250000000000000 429.362500000000011 44.449999999999996
0 0

0101101
*
Ed
 0.000000100000000 1 1 0
1  84 0 0.000000000000000 6.283185307179586
2  76 23 18 0.000000000000000 6.283185307179586
0

0101100
+45 17 -45 17 *
Wi

0101100
-44 0 *
Ve
0.000000100000050
12.849999999999909 -689.362499999999955 44.449999999999996
0 0

0101101
*
Ed
 0.000000100000000 1 1 0
1  85 0 0.000000000000000 6.283185307179586
2  77 28 23 0.000000000000000 6.283185307179586
0

0101100
+42 17 -42 17 *
Wi

0101100
-41 0 *
Ve
0.000000100000050
12.849999999999909 -730.637500000000045 44.449999999999996
0 0

0101101
*
Ed
 0.000000100000000 1 1 0
1  86 0 0.000000000000000 6.283185307179586
2  78 29 24 0.000000000000000 6.283185307179586
0

0101100
+39 17 -39 17 *
Wi

0101100
-38 0 *
Ve
0.000000100000050
-25.250000000000000 -429.362500000000011 44.449999999999996
0 0

0101101
*
Ed
 0.000000100000000 1 1 0
1  87 0 0.000000000000000 6.283185307179586
2  79 26 21 0.000000000000000 6.283185307179586
0

0101100
+36 17 -36 17 *
Wi

0101100
-35 0 *
Ve
0.000000100000050
-25.250000000000000 -470.637499999999989 44.449999999999996
0 0

0101101
*
Ed
 0.000000100000000 1 1 0
1  88 0 0.000000000000000 6.283185307179586
2  80 27 22 0.000000000000000 6.283185307179586
0

0101100
+33 17 -33 17 *
Wi

0101100
-32 0 *
Fa
0  0.000000100000000 34 2

0111000
+55 0 +52 0 +49 0 +46 0 +43 0 +40 0 +37 0 +34 0 +31 0 *
Ed
 0.000000100000000 1 1 0
1  89 0 0.999999999999950 7.349999999999952
3  81 82CN 22 0 0.999999999999950 7.349999999999952
0

0101000
+48 29 -188 29 *
Wi

0101100
-187 0 +29 16 +47 0 -29 16 *
Fa
0  0.000000100000000 22 16

0111000
+28 0 *
Ed
 0.000000100000000 1 1 0
1  90 0 0.999999999999950 7.349999999999952
3  83 84CN 23 0 0.999999999999950 7.349999999999952
0

0101000
+45 30 -185 30 *
Wi

0101100
-184 0 +26 18 +44 0 -26 18 *
Fa
0  0.000000100000000 23 18

0111000
+25 0 *
Ed
 0.000000100000000 1 1 0
1  91 0 0.999999999999950 7.349999999999952
3  85 86CN 24 0 0.999999999999950 7.349999999999952
0

0101000
+54 31 -182 31 *
Wi

0101100
-181 0 +23 19 +53 0 -23 19 *
Fa
0  0.000000100000000 24 19

0111000
+22 0 *
Ed
 0.000000100000000 1 1 0
1  92 0 0.999999999999950 7.349999999999952
3  87 88CN 25 0 0.999999999999950 7.349999999999952
0

0101000
+51 32 -179 32 *
Wi

0101100
-178 0 +20 20 +50 0 -20 20 *
Fa
0  0.000000100000000 25 20

0111000
+19 0 *
Ed
 0.000000100000000 1 1 0
1  93 0 0.999999999999950 7.349999999999952
3  89 90CN 26 0 0.999999999999950 7.349999999999952
0

0101000
+36 33 -176 33 *
Wi

0101100
-175 0 +17 21 +35 0 -17 21 *
Fa
0  0.000000100000000 26 21

0111000
+16 0 *
Ed
 0.000000100000000 1 1 0
1  94 0 0.999999999999950 7.349999999999952
3  91 92CN 27 0 0.999999999999950 7.349999999999952
0

0101000
+33 34 -173 34 *
Wi

0101100
-172 0 +14 22 +32 0 -14 22 *
Fa
0  0.000000100000000 27 22

0111000
+13 0 *
Ed
 0.000000100000000 1 1 0
1  95 0 0.999999999999950 7.349999999999952
3  93 94CN 28 0 0.999999999999950 7.349999999999952
0

0101000
+42 35 -170 35 *
Wi

0101100
-169 0 +11 23 +41 0 -11 23 *
Fa
0  0.000000100000000 28 23

0111000
+10 0 *
Ed
 0.000000100000000 1 1 0
1  96 0 0.999999999999950 7.349999999999952
3  95 96CN 29 0 0.999999999999950 7.349999999999952
0

0101000
+39 36 -167 36 *
Wi

0101100
-166 0 +8 24 +38 0 -8 24 *
Fa
0  0.000000100000000 29 24

0111000
+7 0 *
Sh

0101100
-224 0 -217 4 -204 4 +191 8 -164 3 -159 0 -154 0 -149 4 -144 4 -139 4 
-134 4 -129 4 -124 4 -119 0 -114 0 -109 4 -104 4 -99 4 -94 4 -89 4 
-84 4 -65 0 -62 4 -59 4 -56 4 -30 3 -27 3 -24 3 -21 3 -18 3 
-15 3 -12 3 -9 3 -6 3 *
So

0100000
+5 0 *
Co

0100000
+4 0 *
Co

0100000
+3 0 *
Co

1100000
+2 0 *

+1 1 