
CASCADE Topology V1, (c) Matra-Datavision
Locations 5
1
1.000000000000000 0.000000000000000 0.000000000000000 0.000000000000000 
0.000000000000000 1.000000000000000 0.000000000000000 0.000000000000000 
0.000000000000000 0.000000000000000 1.000000000000000 0.000000000000000 
1
1.000000000000000 0.000000000000000 0.000000000000000 0.000000000000000 
0.000000000000000 1.000000000000000 0.000000000000000 0.000000000000000 
0.000000000000000 0.000000000000000 1.000000000000000 0.000000000000000 
2  2 -1 0
1
1.000000000000000 0.000000000000000 0.000000000000000 6.350000000000000 
0.000000000000000 1.000000000000000 0.000000000000000 0.000000000000000 
0.000000000000000 0.000000000000000 1.000000000000000 0.000000000000000 
2  2 -1 4 -1 0
Curve2ds 8
1 0.00000000000000000 21.43124999999999858 1.00000000000000000 0.00000000000000000 
1 0.00000000000000000 15.87500000000000000 1.00000000000000000 0.00000000000000000 
1 0.00000000000000000 7.14375000000000160 1.00000000000000000 0.00000000000000000 
1 6.28318530717958623 -0.00000000000000000 0.00000000000000000 1.00000000000000000 
1 0.00000000000000000 -0.00000000000000000 0.00000000000000000 1.00000000000000000 
1 6.28318530717958623 -0.00000000000000000 0.00000000000000000 1.00000000000000000 
1 0.00000000000000000 -0.00000000000000000 0.00000000000000000 1.00000000000000000 
1 0.00000000000000000 0.00000000000000000 1.00000000000000000 0.00000000000000000 
Curves 24
1 0.00000000000000000 8.24889197104677763 0.00000000000000000 1.00000000000000000 0.00000000000000000 0.00000000000000000 
1 0.00000000000000000 4.12444598552338970 7.14374999999999893 1.00000000000000000 0.00000000000000000 0.00000000000000000 
1 0.00000000000000000 8.24889197104677763 0.00000000000000000 0.00000000000000000 -0.50000000000000000 0.86602540378443871 
1 0.00000000000000000 8.24889197104677763 0.00000000000000000 0.00000000000000000 -0.50000000000000000 0.86602540378443871 
1 0.00000000000000000 4.12444598552338970 -7.14374999999999893 1.00000000000000000 0.00000000000000000 0.00000000000000000 
1 0.00000000000000000 4.12444598552338970 -7.14374999999999893 0.00000000000000000 0.50000000000000000 0.86602540378443871 
1 0.00000000000000000 4.12444598552338970 -7.14374999999999893 0.00000000000000000 0.50000000000000000 0.86602540378443871 
1 0.00000000000000000 4.12444598552338970 7.14374999999999893 0.00000000000000000 -1.00000000000000000 0.00000000000000011 
1 0.00000000000000000 4.12444598552338970 7.14374999999999893 0.00000000000000000 -1.00000000000000000 0.00000000000000011 
1 0.00000000000000000 -4.12444598552338704 7.14374999999999982 1.00000000000000000 0.00000000000000000 0.00000000000000000 
2 3.17499999999999982 0.00000000000000000 7.14374999999999893 0.00000000000000000 0.00000000000000000 1.00000000000000000 1.00000000000000000 0.00000000000000000 -0.00000000000000000 -0.00000000000000000 1.00000000000000000 0.00000000000000000 1.35000000000000009
1 0.00000000000000000 -4.12444598552339237 -7.14374999999999716 0.00000000000000000 1.00000000000000000 -0.00000000000000022 
1 0.00000000000000000 -4.12444598552338704 7.14374999999999982 0.00000000000000000 -0.50000000000000022 -0.86602540378443860 
1 0.00000000000000000 -8.24889197104677763 0.00000000000000101 0.00000000000000000 0.49999999999999978 -0.86602540378443882 
2 0.00000000000000000 0.00000000000000000 0.00000000000000000 1.00000000000000000 0.00000000000000000 -0.00000000000000000 0.00000000000000000 0.00000000000000000 1.00000000000000000 0.00000000000000000 -1.00000000000000000 0.00000000000000000 4.76250000000000018
1 0.00000000000000000 -4.12444598552338704 7.14374999999999982 0.00000000000000000 -0.50000000000000022 -0.86602540378443860 
1 0.00000000000000000 -8.24889197104677763 0.00000000000000101 0.00000000000000000 0.49999999999999978 -0.86602540378443882 
1 0.00000000000000000 -4.12444598552339237 -7.14374999999999716 0.00000000000000000 1.00000000000000000 -0.00000000000000022 
1 0.00000000000000000 -4.12444598552339237 -7.14374999999999716 1.00000000000000000 0.00000000000000000 0.00000000000000000 
2 3.17499999999999982 0.00000000000000000 -7.14374999999999805 0.00000000000000000 0.00000000000000000 1.00000000000000000 1.00000000000000000 0.00000000000000000 -0.00000000000000000 -0.00000000000000000 1.00000000000000000 0.00000000000000000 1.35000000000000009
1 0.00000000000000000 -8.24889197104677763 0.00000000000000101 1.00000000000000000 0.00000000000000000 0.00000000000000000 
1 4.52500000000000036 -0.00000000000000033 -14.28749999999999964 0.00000000000000000 0.00000000000000000 1.00000000000000000 
1 -15.87500000000000000 0.00000000000000117 4.76250000000000018 1.00000000000000000 0.00000000000000000 0.00000000000000000 
2 -15.87500000000000000 0.00000000000000000 0.00000000000000000 1.00000000000000000 0.00000000000000000 -0.00000000000000000 0.00000000000000000 0.00000000000000000 1.00000000000000000 0.00000000000000000 -1.00000000000000000 0.00000000000000000 4.76250000000000018
Polygon3D 0
PolygonOnTriangulations 0
Surfaces 11
1 0.00000000000000000 8.24889197104677763 0.00000000000000000 0.00000000000000000 -0.86602540378443871 -0.50000000000000000 0.00000000000000000 -0.50000000000000000 0.86602540378443871 -1.00000000000000000 -0.00000000000000000 0.00000000000000000 
1 0.00000000000000000 4.12444598552338970 -7.14374999999999893 0.00000000000000000 -0.86602540378443871 0.50000000000000000 0.00000000000000000 0.50000000000000000 0.86602540378443871 -1.00000000000000000 0.00000000000000000 0.00000000000000000 
1 0.00000000000000000 4.12444598552338970 7.14374999999999893 0.00000000000000000 -0.00000000000000011 -1.00000000000000000 0.00000000000000000 -1.00000000000000000 0.00000000000000011 -1.00000000000000000 -0.00000000000000000 0.00000000000000000 
2 3.17499999999999982 0.00000000000000000 -14.28749999999999964 0.00000000000000000 0.00000000000000000 1.00000000000000000 1.00000000000000000 0.00000000000000000 -0.00000000000000000 -0.00000000000000000 1.00000000000000000 0.00000000000000000 1.35000000000000009
1 0.00000000000000000 -0.00000000000000014 0.00000000000000014 1.00000000000000000 0.00000000000000000 0.00000000000000000 0.00000000000000000 0.00000000000000000 1.00000000000000000 0.00000000000000000 -1.00000000000000000 0.00000000000000000 
2 -15.87500000000000000 0.00000000000000000 0.00000000000000000 1.00000000000000000 0.00000000000000000 0.00000000000000000 0.00000000000000000 0.00000000000000000 1.00000000000000000 0.00000000000000000 -1.00000000000000000 0.00000000000000000 4.76250000000000018
1 0.00000000000000000 -0.00000000000000014 0.00000000000000014 1.00000000000000000 0.00000000000000000 0.00000000000000000 0.00000000000000000 0.00000000000000000 1.00000000000000000 0.00000000000000000 -1.00000000000000000 0.00000000000000000 
1 0.00000000000000000 -4.12444598552339237 -7.14374999999999716 0.00000000000000000 0.00000000000000022 1.00000000000000000 0.00000000000000000 1.00000000000000000 -0.00000000000000022 -1.00000000000000000 0.00000000000000000 0.00000000000000000 
1 0.00000000000000000 -4.12444598552338704 7.14374999999999982 0.00000000000000000 0.86602540378443860 -0.50000000000000022 0.00000000000000000 -0.50000000000000022 -0.86602540378443860 -1.00000000000000000 0.00000000000000000 -0.00000000000000000 
1 0.00000000000000000 -8.24889197104677763 0.00000000000000101 0.00000000000000000 0.86602540378443882 0.49999999999999978 0.00000000000000000 0.49999999999999978 -0.86602540378443882 -1.00000000000000000 0.00000000000000000 0.00000000000000000 
1 -15.87500000000000000 0.00000000000000000 0.00000000000000000 1.00000000000000000 0.00000000000000000 0.00000000000000000 0.00000000000000000 0.00000000000000000 1.00000000000000000 0.00000000000000000 -1.00000000000000000 0.00000000000000000 
Triangulations 0

TShapes 68
Ve
0.000000100000000
0.000000000000000 8.248891971046778 0.000000000000000
0 0

0101101
*
Ve
0.000000100000000
6.350000000000000 8.248891971046778 0.000000000000000
0 0

0101101
*
Ed
 0.000000100000000 1 1 0
1  1 0 0.000000000000000 6.350000000000000
0

0101000
+68 3 -67 3 *
Ve
0.000000100000000
0.000000000000000 4.124445985523390 7.143749999999999
0 0

0101101
*
Ve
0.000000100000000
6.350000000000000 4.124445985523390 7.143749999999999
0 0

0101101
*
Ed
 0.000000100000000 1 1 0
1  2 0 0.000000000000000 6.350000000000000
0

0101000
+65 3 -64 3 *
Ed
 0.000000100000000 1 1 0
1  3 0 0.000000000000000 8.248891971046776
0

0101000
+68 3 -65 3 *
Ed
 0.000000100000000 1 1 0
1  4 0 0.000000000000000 8.248891971046776
0

0101000
+67 5 -64 5 *
Wi

0101100
+66 0 -63 0 -62 0 +61 4 *
Fa
0  0.000000100000000 1 0

0111000
+60 0 *
Ve
0.000000100000000
0.000000000000000 4.124445985523390 -7.143749999999999
0 0

0101101
*
Ve
0.000000100000000
6.350000000000000 4.124445985523390 -7.143749999999999
0 0

0101101
*
Ed
 0.000000100000000 1 1 0
1  5 0 0.000000000000000 6.350000000000000
0

0101000
+58 3 -57 3 *
Ed
 0.000000100000000 1 1 0
1  6 0 0.000000000000000 8.248891971046776
0

0101000
+58 3 -68 3 *
Ed
 0.000000100000000 1 1 0
1  7 0 0.000000000000000 8.248891971046776
0

0101000
+57 5 -67 5 *
Wi

0101100
+56 0 -66 0 -55 0 +54 4 *
Fa
0  0.000000100000000 2 0

0111000
+53 0 *
Ve
0.000000100000000
0.000000000000000 -4.124445985523387 7.143750000000000
0 0

0101101
*
Ed
 0.000000100000000 1 1 0
1  8 0 0.000000000000000 8.248891971046778
0

0101000
+65 3 -51 3 *
Ve
0.000000100000000
6.350000000000000 -4.124445985523387 7.143750000000000
0 0

0101101
*
Ed
 0.000000100000000 1 1 0
1  9 0 0.000000000000000 8.248891971046778
0

0101000
+64 5 -49 5 *
Ed
 0.000000100000000 1 1 0
1  10 0 0.000000000000000 6.350000000000000
0

0101000
+51 3 -49 3 *
Wi

0101100
+63 0 -50 0 +48 4 -47 0 *
Ve
0.000000100000000
4.525000000000000 -0.000000000000000 7.143749999999999
0 0

0101101
*
Ed
 0.000000100000000 1 1 0
1  11 0 0.000000000000000 6.283185307179586
2  1 4 0 0.000000000000000 6.283185307179586
0

0101100
+45 3 -45 3 *
Wi

0101100
+44 0 *
Fa
0  0.000000100000000 3 0

0111000
+46 0 +43 0 *
Ve
0.000000100000000
0.000000000000000 -4.124445985523392 -7.143749999999997
0 0

0101101
*
Ed
 0.000000100000000 1 1 0
1  12 0 0.000000000000000 8.248891971046781
0

0101000
+41 3 -58 3 *
Ve
0.000000100000000
0.000000000000000 -8.248891971046778 0.000000000000001
0 0

0101101
*
Ed
 0.000000100000000 1 1 0
1  13 0 0.000000000000000 8.248891971046778
0

0101000
+51 3 -39 3 *
Ed
 0.000000100000000 1 1 0
1  14 0 0.000000000000000 8.248891971046774
0

0101000
+39 3 -41 3 *
Wi

0101100
+62 0 +55 0 +50 0 +40 0 +38 0 +37 0 *
Ve
0.000000100000000
0.000000000000000 0.000000000000001 4.762500000000000
0 0

0101101
*
Ed
 0.000000100000000 1 1 0
1  15 0 0.000000000000000 6.283185307179586
2  2 6 0 0.000000000000000 6.283185307179586
0

0101000
+35 3 -35 3 *
Wi

0101100
-34 0 *
Fa
0  0.000000100000000 5 0

0111000
+36 0 +33 0 *
Ve
0.000000100000000
6.350000000000000 -8.248891971046778 0.000000000000001
0 0

0101101
*
Ed
 0.000000100000000 1 1 0
1  16 0 0.000000000000000 8.248891971046778
0

0101000
+49 5 -31 5 *
Ve
0.000000100000000
6.350000000000000 -4.124445985523392 -7.143749999999997
0 0

0101101
*
Ed
 0.000000100000000 1 1 0
1  17 0 0.000000000000000 8.248891971046774
0

0101000
+31 5 -29 5 *
Ed
 0.000000100000000 1 1 0
1  18 0 0.000000000000000 8.248891971046781
0

0101000
+29 5 -57 5 *
Wi

0101100
+61 0 +48 0 +30 0 +28 0 +27 0 +54 0 *
Fa
0  0.000000100000000 7 0

0111000
+26 0 *
Ed
 0.000000100000000 1 1 0
1  19 0 0.000000000000000 6.350000000000000
0

0101000
+41 3 -29 3 *
Wi

0101100
+24 0 -40 0 +27 4 -56 0 *
Ve
0.000000100000000
4.525000000000000 -0.000000000000000 -7.143749999999998
0 0

0101101
*
Ed
 0.000000100000000 1 1 0
1  20 0 0.000000000000000 6.283185307179586
2  3 4 0 0.000000000000000 6.283185307179586
0

0101100
+22 3 -22 3 *
Wi

0101100
-21 0 *
Fa
0  0.000000100000000 8 0

0111000
+23 0 +20 0 *
Ed
 0.000000100000000 1 1 0
1  21 0 0.000000000000000 6.350000000000000
0

0101000
+39 3 -31 3 *
Wi

0101100
+47 0 -18 0 -38 0 +30 4 *
Fa
0  0.000000100000000 9 0

0111000
+17 0 *
Ed
 0.000000100000000 1 1 0
1  22 0 7.143750000000002 21.431249999999999
3  4 5CN 4 0 7.143750000000002 21.431249999999999
0

0101000
+22 3 -45 3 *
Wi

0101100
-44 0 +15 0 +21 0 -15 0 *
Fa
0  0.000000100000000 4 0

0111000
+14 0 *
Wi

0101100
+18 0 -24 0 -37 0 +28 4 *
Fa
0  0.000000100000000 10 0

0111000
+12 0 *
Ve
0.000000100000000
-15.875000000000000 0.000000000000001 4.762500000000000
0 0

0101101
*
Ed
 0.000000100000000 1 1 0
1  23 0 0.000000000000000 15.875000000000000
3  6 7CN 6 0 0.000000000000000 15.875000000000000
0

0101000
+10 3 -35 3 *
Ed
 0.000000100000000 1 1 0
1  24 0 0.000000000000000 6.283185307179586
2  8 6 0 0.000000000000000 6.283185307179586
0

0101000
+10 3 -10 3 *
Wi

0101100
-34 0 +9 0 +8 0 -9 0 *
Fa
0  0.000000100000000 6 0

0111000
+7 0 *
Wi

0101100
-8 0 *
Fa
0  0.000000100000000 11 0

0111000
-5 0 *
Sh

0101100
-59 0 -52 0 -42 0 -32 0 +25 4 -19 0 -16 0 -13 0 -11 0 +6 0 
-4 0 *
So

0100000
+3 0 *
Co

1100000
+2 0 *

+1 1 