
CASCADE Topology V1, (c) Matra-Datavision
Locations 3
1
1.000000000000000 0.000000000000000 0.000000000000000 0.000000000000000 
0.000000000000000 1.000000000000000 0.000000000000000 0.000000000000000 
0.000000000000000 0.000000000000000 1.000000000000000 0.000000000000000 
1
1.000000000000000 0.000000000000000 0.000000000000000 0.000000000000000 
0.000000000000000 1.000000000000000 0.000000000000000 0.000000000000000 
0.000000000000000 0.000000000000000 1.000000000000000 0.000000000000000 
2  2 -1 0
Curve2ds 10
1 6.28318530717958623 -0.00000000000000000 0.00000000000000000 1.00000000000000000 
1 0.00000000000000000 -0.00000000000000000 0.00000000000000000 1.00000000000000000 
1 0.00000000000000000 0.00000000000000000 1.00000000000000000 0.00000000000000000 
1 0.00000000000000000 50.00625000000000853 1.00000000000000000 0.00000000000000000 
7 0 0  8 51 8  4.98245794304812595 45.93125000000002700  4.98245794304812595 46.06554174935823198  4.97892394154777307 46.19998828225212151  4.97184140334951863 46.33296862920654036  4.96120230140699814 46.46281970343549261  4.94700899496566215 46.58774554517553668  4.92927259186260436 46.70570852679200158  4.90801488688980925 46.81426194031993049  4.86095828314815748 46.99695877468261074  4.83518063513812368 47.07583854540344959  4.80639573498911332 47.14095496124605233  4.77532308195957711 47.18797759956058968  4.74282871419348329 47.21412393198751545  4.70982306705445808 47.21809237024598360  4.67724656015634199 47.20009202687848671  4.61447210638145577 47.12350043763932916  4.58513327245276425 47.06559193112140349  4.55832396173096388 46.99147589457079732  4.53428973738432184 46.90405286378423710  4.51321199895785519 46.80599518311099416  4.49521228139108064 46.69980311522191840  4.48034141489823412 46.58782371283366075  4.45559637219206461 46.34479036781343808  4.44615662327671934 46.21062503974778224  4.44042339968403610 46.07203672585248455  4.43850060930209889 45.93125000000021174  4.44042339968401212 45.79046327414773288  4.44615662327671668 45.65187496025200886  4.45559637219211435 45.51770963218612565  4.47958956277471909 45.28206060000462685  4.49330334629798855 45.17723014797543613  4.50972995571317359 45.07741723919966859  4.52883785469426403 44.98442743403955291  4.55054970203958842 44.90021972318756838  4.57474593987771971 44.82692759708447738  4.60125966210018778 44.76690506904522238  4.65776154531091091 44.67977001203293241  4.68731655892935883 44.65242709806254595  4.71777805220390789 44.64328802692934772  4.74833159300843910 44.65337660958419974  4.77815664263673590 44.68234379695466174  4.80646196263680814 44.72848868113779019  4.83253287007470966 44.78871273729716762  4.88731813050489272 44.95259359027830470  4.91447244482352463 45.06623235867677124  4.93714869301198256 45.19411700822426781  4.95529002926353179 45.33228055595780148  4.96888129010326995 45.47755679791890771  4.97793076020435432 45.62731055879705622  4.98245794304812595 45.77925432121602967  4.98245794304812595 45.93125000000002700 
 0.00000000000000000 9 0.15095814878623107 7 0.28722307624296500 7 0.42462959514531162 7 0.57618191148342823 7 0.70480871978062498 7 0.83037980760451702 7 1.00000000000000000 9
7 0 0  8 51 8  0.00000000000000000 16.58987127917276538  0.10568952236750963 16.58987127917276538  0.21150047943715483 16.59436154961374399  0.31795829559703592 16.60336127478775126  0.42556548608637912 16.61655783194303382  0.53487010666072454 16.63330187594165466  0.64647804369578699 16.65259615180714903  0.76109023892492389 16.67309421799619074  0.98666225544647967 16.71120662516455724  1.09987467592691868 16.72941134499131977  1.21698990055248712 16.74591861727165210  1.33661355653277214 16.75865154788085221  1.45777022181891791 16.76588855819251123  1.57963939927470953 16.76687050042373173  1.70143683084696917 16.76188215311466578  1.94382173024667626 16.74204595378811433  2.06115977738366629 16.72737985550157092  2.17487051647110974 16.70944029431203859  2.28543248277651134 16.68983249523099843  2.39319621829096185 16.67009357791300062  2.49841657799066574 16.65153900134601272  2.60124927216962298 16.63517361858846400  2.81263851919891339 16.60672434509862327  2.92272380778366037 16.59498191192984962  3.03228822455805025 16.58746370605034670  3.14159265358964079 16.58487495501751141  3.25089708262139032 16.58746370605031828  3.36046149939613503 16.59498191192984251  3.47054678798108540 16.60672434509867301  3.67551319484134975 16.63430921730454770  3.77145571506274724 16.64943490053105890  3.86939346719260868 16.66648750452614536  3.96951894864657895 16.68467882373564493  4.07208751564438298 16.70298960329401439  4.17742151843659570 16.72021608062473064  4.28593671071973414 16.73506066067643161  4.50785503258109266 16.75724582670316565  4.61976228364379882 16.76462415619062796  4.73267054736094384 16.76725124913183507  4.84563310601972930 16.76446856331294555  4.95777845768670034 16.75646753333823469  5.06814552908811500 16.74427414655943736  5.17548212595180068 16.72945045421202082  5.41618783571669482 16.69215073573479202  5.54865022863447610 16.66832417244798492  5.67670466569852472 16.64481042363599883  5.80136258562115259 16.62386383355729791  5.92351187169894811 16.60712307686914713  6.04398145493024774 16.59562329007303205  6.16356253981392932 16.58987127917276538  6.28318530717958623 16.58987127917276538 
 0.00000000000000000 9 0.15095814878623107 7 0.28722307624296500 7 0.42462959514531162 7 0.57618191148342823 7 0.70480871978062498 7 0.83037980760451702 7 1.00000000000000000 9
7 0 0  8 51 8  1.30072736413146006 45.93125000000002700  1.30072736413146006 46.06554174935820356  1.30426136563182427 46.19998828225242704  1.31134390383005539 46.33296862920634140  1.32198300577259809 46.46281970343545709  1.33617631221393562 46.58774554517573563  1.35391271531694568 46.70570852679175999  1.37517042028978120 46.81426194031993759  1.42222702403139944 46.99695877468249705  1.44800467204148653 47.07583854540384039  1.47678957219055551 47.14095496124538442  1.50786222521985103 47.18797759956132865  1.54035659298622085 47.21412393198701807  1.57336224012506909 47.21809237024616834  1.60593874702326689 47.20009202687846539  1.66871320079811536 47.12350043763933627  1.69805203472683552 47.06559193112137507  1.72486134544862812 46.99147589457081864  1.74889556979526350 46.90405286378420158  1.76997330822172905 46.80599518311096574  1.78797302578849804 46.69980311522202499  1.80284389228136033 46.58782371283358259  1.82758893498729647 46.34479036781563366  1.83702868390275187 46.21062503975033309  1.84276190749558988 46.07203672585396959  1.84468469787757949 45.93125000000002700  1.84276190749559321 45.79046327414614126  1.83702868390275631 45.65187496024983460  1.82758893498729913 45.51770963218442745  1.80359574440487558 45.28206060000471922  1.78988196088156371 45.17723014797525849  1.77345535146644551 45.07741723919978227  1.75434745248532775 44.98442743403958843  1.73263560513996273 44.90021972318743337  1.70843936730188872 44.82692759708454133  1.68192564507939557 44.76690506904522238  1.62542376186869397 44.67977001203296794  1.59586874825016301 44.65242709806250332  1.56540725497574451 44.64328802692932641  1.53485371417115268 44.65337660958427080  1.50502866454278528 44.68234379695468306  1.47672334454283316 44.72848868113769782  1.45065243710485881 44.78871273729721736  1.39586717667469906 44.95259359027829760  1.36871286235604628 45.06623235867685651  1.34603661416762055 45.19411700822412570  1.32789527791605533 45.33228055595789385  1.31430401707629718 45.47755679791906402  1.30525454697524435 45.62731055879680042  1.30072736413146006 45.77925432121612914  1.30072736413146006 45.93125000000002700 
 0.00000000000000000 9 0.15095814878700037 7 0.28722307624426802 7 0.42462959514718485 7 0.57618191148341613 7 0.70480871978063797 7 0.83037980760448094 7 1.00000000000000000 9
7 0 0  8 51 8  0.00000000000000000 7.41012872082723906  0.10568952236748369 7.41012872082723906  0.21150047943741512 7.40563845038624535  0.31795829559684546 7.39663872521226384  0.42556548608636807 7.38344216805695464  0.53487010666090828 7.36669812405832847  0.64647804369553852 7.34740384819288561  0.76109023892494143 7.32690578200380838  0.98666225544633690 7.28879337483546941  1.09987467592737831 7.27058865500860740  1.21698990055179790 7.25408138272843761  1.33661355653346803 7.24134845211907852  1.45777022181849070 7.23411144180752785  1.57963939927474395 7.23312949957625229  1.70143683084705755 7.23811784688534132  1.94382173024661586 7.25795404621188212  2.06115977738375289 7.27262014449842642  2.17487051647106933 7.29055970568796319  2.28543248277652022 7.31016750476900690  2.39319621829100670 7.32990642208699406  2.49841657799056760 7.34846099865397839  2.60124927216968693 7.36482638141154666  2.81263851919699626 7.39327565490112537  2.92272380778164509 7.40501808806999318  3.03228822455696756 7.41253629394969593  3.14159265358979001 7.41512504498261293  3.25089708262256494 7.41253629394970304  3.36046149939783367 7.40501808806999851  3.47054678798256555 7.39327565490112626  3.67551319484128447 7.36569078269546651  3.77145571506298927 7.35056509946892156  3.86939346719237731 7.33351249547386885  3.96951894864652566 7.31532117626436218  4.07208751564461569 7.29701039670597407  4.17742151843647402 7.27978391937527469  4.28593671071974303 7.26493933932356928  4.50785503258101894 7.24275417329684679  4.61976228364424113 7.23537584380935783  4.73267054736038428 7.23274875086816316  4.84563310601971509 7.23553143668707044  4.95777845768725456 7.24353246666177064  5.06814552908770022 7.25572585344053778  5.17548212595187707 7.27054954578798984  5.41618783571667617 7.30784926426520443  5.54865022863460311 7.33167582755202663  5.67670466569831156 7.35518957636398607  5.80136258562122631 7.37613616644270920  5.92351187169917370 7.39287692313086886  6.04398145492997596 7.40437670992695729  6.16356253981400659 7.41012872082723906  6.28318530717958623 7.41012872082723906 
 0.00000000000000000 9 0.15095814878700037 7 0.28722307624426802 7 0.42462959514718485 7 0.57618191148341613 7 0.70480871978063797 7 0.83037980760448094 7 1.00000000000000000 9
1 6.28318530717958623 -0.00000000000000000 0.00000000000000000 1.00000000000000000 
1 0.00000000000000000 -0.00000000000000000 0.00000000000000000 1.00000000000000000 
Curves 6
1 -16.66874999999999929 0.00000000000000117 4.76250000000000018 1.00000000000000000 0.00000000000000000 0.00000000000000000 
2 -16.66874999999999929 0.00000000000000000 0.00000000000000000 1.00000000000000000 0.00000000000000000 -0.00000000000000000 0.00000000000000000 0.00000000000000000 1.00000000000000000 0.00000000000000000 -1.00000000000000000 0.00000000000000000 4.76250000000000018
2 33.33750000000000568 0.00000000000000000 0.00000000000000000 1.00000000000000000 0.00000000000000000 -0.00000000000000000 0.00000000000000000 0.00000000000000000 1.00000000000000000 0.00000000000000000 -1.00000000000000000 0.00000000000000000 4.76250000000000018
7 0 0  8 51 8  29.26250000000001705 4.58987127917276183 1.27062499999999878  29.39679174935823625 4.58987127917276183 1.27062499999999878  29.53123828225212222 4.59436154961374221 1.25440440051297242  29.66421862920652686 4.60336127478775126 1.22189641084315248  29.79406970343549688 4.61655783194303559 1.17297552880689082  29.91899554517554805 4.63330187594165732 1.10747267040958697  30.03695852679198097 4.65259615180714903 1.02519575929403728  30.14551194031992409 4.67309421799618896 0.92599684973745755  30.32820877468261145 4.71120662516455635 0.70515431391578920  30.40708854540350714 4.72941134499131355 0.58371513991239410  30.47220496124582567 4.74591861727167963 0.44753185870167234  30.51922759956092435 4.75865154788080602 0.29990889318165270  30.54537393198725326 4.76588855819254942 0.14507414141123642  30.54934237024607668 4.76687050042371840 -0.01230481985346654  30.53134202687848742 4.76188215311466578 -0.16746148831370622  30.45475043763931922 4.74204595378811256 -0.46576603325067489  30.39684193112143262 4.72737985550157269 -0.60482564564131258  30.32272589457073764 4.70944029431204214 -0.73136596081862937  30.23530286378424492 4.68983249523100110 -0.84422773472964097  30.13724518311104106 4.67009357791300062 -0.94269512567298708  30.03105311522188359 4.65153900134601006 -1.02640400425732969  29.91907371283366857 4.63517361858846222 -1.09531374751492616  29.67604036781343879 4.60672434509861883 -1.20967655882497804  29.54187503974776874 4.59498191192984784 -1.25308260897037882  29.40328672585248526 4.58746370605034670 -1.27933191129867030  29.26250000000021600 4.58487495501751408 -1.28811401653192070  29.12171327414772648 4.58746370605031917 -1.27933191129878931  28.98312496025199181 4.59498191192984429 -1.25308260897040213  28.84895963218611925 4.60672434509867390 -1.20967655882475422  28.61331060000463111 4.63430921730454592 -1.09878854137790705  28.50848014797544749 4.64943490053105535 -1.03524892183739370  28.40866723919964443 4.66648750452614713 -0.95888464127391315  28.31567743403954296 4.68467882373564581 -0.86968625889250384  28.23146972318757264 4.70298960329401083 -0.76785129216679371  28.15817759708446744 4.72021608062473241 -0.65381861658229667  28.09815506904522309 4.73506066067643072 -0.52834364831763192  28.01102001203293668 4.75724582670316387 -0.26016951784008302  27.98367709806253600 4.76462415619062973 -0.11954361846983114  27.97453802692934843 4.76725124913183063 0.02565021277588206  27.98462660958420400 4.76446856331294377 0.17133411111684582  28.01359379695465179 4.75646753333823558 0.31332682522069022  28.05973868113778735 4.74427414655944002 0.44767423726158828  28.11996273729716833 4.72945045421202082 0.57098466526919334  28.28384359027830186 4.69215073573479380 0.82921956864405599  28.39748235867677550 4.66832417244798314 0.95644281307838541  28.52536700822428273 4.64481042363600061 1.06193283197080124  28.66353055595779153 4.62386383355729524 1.14578251770710438  28.80880679791888710 4.60712307686914446 1.20830941494347233  28.95856055879707114 4.59562329007303116 1.24984598033176697  29.11050432121602682 4.58987127917276183 1.27062499999999878  29.26250000000001705 4.58987127917276183 1.27062499999999878 
 0.00000000000000000 9 0.15095814878623107 7 0.28722307624296500 7 0.42462959514531162 7 0.57618191148342823 7 0.70480871978062498 7 0.83037980760451702 7 1.00000000000000000 9
7 0 0  8 51 8  29.26250000000001705 -4.58987127917276094 1.27062500000000056  29.39679174935820072 -4.58987127917276094 1.27062500000000056  29.53123828225247749 -4.59436154961375465 1.25440440051292512  29.66421862920626396 -4.60336127478773616 1.22189641084321399  29.79406970343545424 -4.61655783194304536 1.17297552880683997  29.91899554517580029 -4.63330187594167153 1.10747267040952679  30.03695852679170741 -4.65259615180711350 1.02519575929420959  30.14551194031994186 -4.67309421799619162 0.92599684973744056  30.32820877468249421 -4.71120662516453059 0.70515431391592931  30.40708854540384820 -4.72941134499139260 0.58371513991222579  30.47220496124534250 -4.74591861727156239 0.44753185870147227  30.51922759956136844 -4.75865154788092148 0.29990889318212632  30.54537393198699036 -4.76588855819247215 0.14507414141088848  30.54934237024617261 -4.76687050042374771 -0.01230481985325826  30.53134202687845900 -4.76188215311465868 -0.16746148831381413  30.45475043763934053 -4.74204595378811788 -0.46576603325060006  30.39684193112132959 -4.72737985550157358 -0.60482564564141950  30.32272589457089040 -4.70944029431203504 -0.73136596081858418  30.23530286378421295 -4.68983249523099399 -0.84422773472962920  30.13724518311089895 -4.67009357791300417 -0.94269512567304070  30.03105311522205412 -4.65153900134602072 -1.02640400425725753  29.91907371283359396 -4.63517361858845334 -1.09531374751496036  29.67604036781563437 -4.60672434509887463 -1.20967655882394132  29.54187503975033735 -4.59498191193000682 -1.25308260896986612  29.40328672585396674 -4.58746370605030318 -1.27933191129885082  29.26250000000003126 -4.58487495501738795 -1.28811401653232971  29.12171327414614552 -4.58746370605029785 -1.27933191129887036  28.98312496024983531 -4.59498191193000061 -1.25308260896989077  28.84895963218442105 -4.60672434509887285 -1.20967655882395309  28.61331060000470572 -4.63430921730453438 -1.09878854137794280  28.50848014797526275 -4.64943490053107844 -1.03524892183728756  28.40866723919977588 -4.66648750452613115 -0.95888464127400930  28.31567743403958914 -4.68467882373563782 -0.86968625889251483  28.23146972318744119 -4.70298960329402593 -0.76785129216668946  28.15817759708453494 -4.72021608062472531 -0.65381861658236662  28.09815506904521243 -4.73506066067643072 -0.52834364831762237  28.01102001203296510 -4.75724582670315410 -0.26016951784017012  27.98367709806249692 -4.76462415619064217 -0.11954361846953449  27.97453802692932356 -4.76725124913183596 0.02565021277558252  27.98462660958426795 -4.76446856331292867 0.17133411111682739  28.01359379695468022 -4.75646753333823025 0.31332682522098643  28.05973868113769853 -4.74427414655946222 0.44767423726132971  28.11996273729721807 -4.72945045421201016 0.57098466526927627  28.28384359027828765 -4.69215073573479557 0.82921956864403745  28.39748235867686077 -4.66832417244797426 0.95644281307833579  28.52536700822410509 -4.64481042363601304 1.06193283197092669  28.66353055595788035 -4.62386383355729169 1.14578251770709749  28.80880679791907184 -4.60712307686913025 1.20830941494335309  28.95856055879680113 -4.59562329007304182 1.24984598033184158  29.11050432121612630 -4.58987127917276094 1.27062500000000056  29.26250000000001705 -4.58987127917276094 1.27062500000000056 
 0.00000000000000000 9 0.15095814878700037 7 0.28722307624426802 7 0.42462959514718485 7 0.57618191148341613 7 0.70480871978063797 7 0.83037980760448094 7 1.00000000000000000 9
1 29.26250000000001705 -12.00000000000000000 1.27062500000000012 0.00000000000000000 1.00000000000000000 0.00000000000000000 
Polygon3D 0
PolygonOnTriangulations 0
Surfaces 4
2 -16.66874999999999929 0.00000000000000000 0.00000000000000000 1.00000000000000000 0.00000000000000000 0.00000000000000000 0.00000000000000000 0.00000000000000000 1.00000000000000000 0.00000000000000000 -1.00000000000000000 0.00000000000000000 4.76250000000000018
2 29.26250000000001705 -12.00000000000000000 0.00000000000000000 0.00000000000000000 1.00000000000000000 0.00000000000000000 0.00000000000000000 -0.00000000000000000 1.00000000000000000 1.00000000000000000 0.00000000000000000 -0.00000000000000000 1.27062500000000012
1 -16.66874999999999929 0.00000000000000000 0.00000000000000000 1.00000000000000000 0.00000000000000000 0.00000000000000000 0.00000000000000000 0.00000000000000000 1.00000000000000000 0.00000000000000000 -1.00000000000000000 0.00000000000000000 
1 33.33750000000000568 0.00000000000000000 0.00000000000000000 1.00000000000000000 0.00000000000000000 0.00000000000000000 0.00000000000000000 0.00000000000000000 1.00000000000000000 0.00000000000000000 -1.00000000000000000 0.00000000000000000 
Triangulations 0

TShapes 23
Ve
0.000000100000000
33.337500000000006 0.000000000000001 4.762500000000000
0 0

0101101
*
Ve
0.000000100000000
-16.668749999999999 0.000000000000001 4.762500000000000
0 0

0101101
*
Ed
 0.000000100000000 1 1 0
1  1 0 0.000000000000000 50.006250000000009
3  1 2CN 1 0 0.000000000000000 50.006250000000009
0

0101000
-23 3 +22 3 *
Ed
 0.000000100000000 1 1 0
1  2 0 0.000000000000000 6.283185307179586
2  3 1 0 0.000000000000000 6.283185307179586
0

0101000
+22 3 -22 3 *
Ed
 0.000000100000000 1 1 0
1  3 0 0.000000000000000 6.283185307179586
2  4 1 0 0.000000000000000 6.283185307179586
0

0101000
+23 3 -23 3 *
Wi

0101100
+21 0 +20 0 -21 0 -19 0 *
Ve
0.000000100000001
29.262500000000017 4.589871279172762 1.270625000000000
0 0

0101101
*
Ed
 0.000000100000000 1 1 0
1  4 0 0.000000000000000 1.000000000000000
2  5 1 0 0.000000000000000 1.000000000000000
2  6 2 0 0.000000000000000 1.000000000000000
0

0101100
+17 3 -17 3 *
Wi

0101100
-16 0 *
Ve
0.000000100000001
29.262500000000017 -4.589871279172762 1.270625000000000
0 0

0101101
*
Ed
 0.000000100000000 1 1 0
1  5 0 0.000000000000000 1.000000000000000
2  7 1 0 0.000000000000000 1.000000000000000
2  8 2 0 0.000000000000000 1.000000000000000
0

0101100
+14 3 -14 3 *
Wi

0101100
+13 0 *
Fa
0  0.000000100000000 1 0

0111000
+18 0 +15 0 +12 0 *
Wi

0101100
-20 0 *
Fa
0  0.000000100000000 3 0

0111000
-10 0 *
Wi

0101100
+19 0 *
Fa
0  0.000000100000000 4 0

0111000
+8 0 *
Ed
 0.000000100000000 1 1 0
1  6 0 7.410128720827238 16.589871279172762
3  9 10CN 2 0 7.410128720827238 16.589871279172762
0

0101000
+14 3 -17 3 *
Wi

0101100
-16 0 +6 0 +13 0 -6 0 *
Fa
0  0.000000100000000 2 0

0111000
+5 0 *
Sh

0101100
+11 0 -9 0 +7 0 -4 0 *
So

0100000
+3 0 *
Co

1100000
+2 0 *

+1 1 