DBRep_DrawableShape

CASCADE Topology V1, (c) Matra-Datavision
Locations 0
Curve2ds 10
1 6.2831853071795862 0 0 1 
1 0 0 0 1 
1 0 48 1 0 
1 0 0 1 0 
7 0 0  3 69 67  1.3693379501761209 42.5  1.369338161876499 42.535900851767224  1.3698269243368066 42.60771119818785  1.3720297548712423 42.714928020394389  1.3757061272721143 42.82113317532027  1.3808627478118853 42.925772896315692  1.3875073763220216 43.0282566980826  1.3956479428784951 43.12794291901583  1.4052934472134633 43.224138367625564  1.4164466342683479 43.316055448161769  1.4291274414182613 43.402919492646276  1.4432810675867642 43.48351088311297  1.4591178052246132 43.557818690243494  1.4766202204757992 43.624082521759654  1.4955244624665234 43.6799787681393  1.5155835986052881 43.723839881423032  1.5365084526331698 43.754324551175607  1.5579908726323388 43.770510601330351  1.5797156311971206 43.771854984570759  1.6013318917275972 43.758272835078003  1.6225953300425509 43.729884650997825  1.6428573181700779 43.688001037245364  1.6618241670708804 43.634405115015632  1.679448167589666 43.570359585928827  1.6956382974328092 43.497191916025457  1.7103356442991573 43.416148259172019  1.723492364948271 43.328433862283184  1.7350749875797316 43.235229636694982  1.7450693617198039 43.137609420734968  1.7534566284708155 43.036871153600572  1.7603053432789315 42.933299133049353  1.7656497648586715 42.826971874054891  1.7694696202760483 42.718682020636827  1.771759504809201 42.609025438364334  1.7725116154181446 42.498654608151682  1.7717215662783603 42.388217930577468  1.7693882262019887 42.278384466609957  1.76551408440983 42.169834861993408  1.7601091982236137 42.063296400378192  1.7531800307764904 41.959430117566434  1.744774935986078 41.859260762403821  1.7347899520613996 41.762278078299452  1.723208953892484 41.669510962411401  1.7100557807836818 41.582169710745937  1.6953639705045245 41.501449225052134  1.6791856727584602 41.428585998111949  1.6615849908873532 41.36483746149235  1.6426564028034134 41.3115250024575  1.622461009482677 41.269907741336283  1.6012696046288428 41.241678299747939  1.5796783988188789 41.228136999886367  1.5579598153060852 41.229502038674589  1.5364735712098376 41.245712738615069  1.5155493249441581 41.276223773359291  1.4955081748318819 41.320070962491435  1.476649928380761 41.375833525676292  1.45923619536323 41.441726090730398  1.443520625020168 41.515264179051307  1.4292935137776381 41.596024309183043  1.4165894612010583 41.682871907121296  1.4054009973725914 41.774877003868689  1.3957269730880675 41.871176858044848  1.3875610430696226 41.970996333839999  1.380896036996671 42.073627771630072  1.375723922266308 42.178422866318719  1.3720369620142863 42.28478360147006  1.3698281454470718 42.39215037758219  1.3693381545807086 42.464054511640214  1.3693379501761209 42.5 
 0 4 0.015151515151515152 1 0.030303030303030304 1 0.045454545454545456 1 0.060606060606060608 1 0.07575757575757576 1 0.090909090909090912 1 0.10606060606060606 1 0.12121212121212122 1 0.13636363636363635 1 0.15151515151515152 1 0.16666666666666669 1 0.18181818181818182 1 0.19696969696969696 1 0.21212121212121213 1 0.22727272727272729 1 0.24242424242424243 1 0.25757575757575757 1 0.27272727272727271 1 0.2878787878787879 1 0.30303030303030304 1 0.31818181818181818 1 0.33333333333333337 1 0.34848484848484851 1 0.36363636363636365 1 0.37878787878787878 1 0.39393939393939392 1 0.40909090909090912 1 0.42424242424242425 1 0.43939393939393939 1 0.45454545454545459 1 0.46969696969696972 1 0.48484848484848486 1 0.5 1 0.51515151515151514 1 0.53030303030303028 1 0.54545454545454541 1 0.56060606060606066 1 0.5757575757575758 1 0.59090909090909094 1 0.60606060606060608 1 0.62121212121212122 1 0.63636363636363635 1 0.65151515151515149 1 0.66666666666666674 1 0.68181818181818188 1 0.69696969696969702 1 0.71212121212121215 1 0.72727272727272729 1 0.74242424242424243 1 0.75757575757575757 1 0.77272727272727271 1 0.78787878787878785 1 0.80303030303030309 1 0.81818181818181823 1 0.83333333333333337 1 0.84848484848484851 1 0.86363636363636365 1 0.87878787878787878 1 0.89393939393939392 1 0.90909090909090917 1 0.92424242424242431 1 0.93939393939393945 1 0.95454545454545459 1 0.96969696969696972 1 0.98484848484848486 1 1 4
7 0 0  3 69 67  0 1.1284236636999907  0.028255599106690839 1.1284267833972033  0.084769650789890155 1.1277996819825049  0.16976155004165153 1.1250177710390823  0.25518801939456737 1.1204383290629281  0.3412576025244406 1.1141577092034121  0.42818113538151331 1.1063088931886857  0.51617163331170068 1.0970685637516908  0.6054590337898712 1.0866563870923001  0.69625321379101934 1.07534221991337  0.78890104373828418 1.0634282470594245  0.88332352041702122 1.0513213161169903  0.98115739663747858 1.0392650142805402  1.0824645168313496 1.0277881540438869  1.1862326644571282 1.0175784697177781  1.2919091768886479 1.0092305547012981  1.3989479127096662 1.0032546471998463  1.5068787597503839 1.0000238767847835  1.6153017607051845 0.99975372521934347  1.723682026479435 1.0024705256644708  1.832028722997975 1.0080574005448197  1.9381864078792406 1.0160734783866716  2.0415108400773385 1.025937279868586  2.1424810553341258 1.0371438223292142  2.2412207796148778 1.0491694831523926  2.3379016297435431 1.0615178139715373  2.4326457696324626 1.0737251278461075  2.5255367552770047 1.0853715494716107  2.6166901119775869 1.0960969013702515  2.7059709530520539 1.1055791995669839  2.7940642318857192 1.1136467985337508  2.8816714789527045 1.1201456029791959  2.9688458492270677 1.1248997291890963  3.055790703790608 1.1277932202205205  3.1426501749976485 1.1287507146984994  3.229569397186371 1.1277450135792975  3.3166793231305318 1.1247974134066485  3.4041103710518117 1.1199783509919381  3.4919641672665693 1.1134112746772293  3.5804227978505474 1.1052595000172603  3.6693489674205453 1.0957730667781447  3.7600582277829893 1.0850759534257597  3.8526755919718334 1.0734516729942492  3.9471967255475082 1.0612710024553966  4.0436921990269044 1.0489530441805204  4.1422475120041202 1.0369638963710983  4.2430034957384084 1.0258005008982867  4.3460656822954054 1.0159838670667232  4.4518453316617101 1.0080167539886236  4.5598161681117384 1.0024607275069721  4.6680695019392768 0.99975211298153932  4.7764617563504723 1.0000264441209621  4.884413764270632 1.0032620510314567  4.9914538940880746 1.0092428539023328  5.0970423725445846 1.0175875421204514  5.2005588971952221 1.0277728167825366  5.3013412544933214 1.039185918402981  5.3983343006431195 1.0511287224626318  5.4931179448345153 1.0632772646691659  5.5858332105337594 1.0752025060038579  5.6767889095421635 1.0865430548054209  5.7662202102623281 1.0969806926061731  5.8543607463813858 1.1062464254816566  5.9414291626370268 1.1141175871912281  6.0276376269692289 1.1204162998827603  6.1131943656156054 1.1250086927600313  6.1983067444305817 1.1277981211093466  6.2548945425833224 1.1284268173536236  6.2831853071795862 1.1284236636999907 
 0 4 0.015151515151515152 1 0.030303030303030304 1 0.045454545454545456 1 0.060606060606060608 1 0.07575757575757576 1 0.090909090909090912 1 0.10606060606060606 1 0.12121212121212122 1 0.13636363636363635 1 0.15151515151515152 1 0.16666666666666669 1 0.18181818181818182 1 0.19696969696969696 1 0.21212121212121213 1 0.22727272727272729 1 0.24242424242424243 1 0.25757575757575757 1 0.27272727272727271 1 0.2878787878787879 1 0.30303030303030304 1 0.31818181818181818 1 0.33333333333333337 1 0.34848484848484851 1 0.36363636363636365 1 0.37878787878787878 1 0.39393939393939392 1 0.40909090909090912 1 0.42424242424242425 1 0.43939393939393939 1 0.45454545454545459 1 0.46969696969696972 1 0.48484848484848486 1 0.5 1 0.51515151515151514 1 0.53030303030303028 1 0.54545454545454541 1 0.56060606060606066 1 0.5757575757575758 1 0.59090909090909094 1 0.60606060606060608 1 0.62121212121212122 1 0.63636363636363635 1 0.65151515151515149 1 0.66666666666666674 1 0.68181818181818188 1 0.69696969696969702 1 0.71212121212121215 1 0.72727272727272729 1 0.74242424242424243 1 0.75757575757575757 1 0.77272727272727271 1 0.78787878787878785 1 0.80303030303030309 1 0.81818181818181823 1 0.83333333333333337 1 0.84848484848484851 1 0.86363636363636365 1 0.87878787878787878 1 0.89393939393939392 1 0.90909090909090917 1 0.92424242424242431 1 0.93939393939393945 1 0.95454545454545459 1 0.96969696969696972 1 0.98484848484848486 1 1 4
7 0 0  3 69 67  4.9138473570003143 42.5  4.9138471452999521 42.535900852408673  4.9133583828222251 42.607711200111666  4.9111555522090562 42.714928024213059  4.9074791796768258 42.821133180980958  4.9023225589522417 42.925772903731087  4.8956779302039637 43.028256707133664  4.8875373633546939 43.127942929538875  4.8778918586729381 43.224138379425732  4.8667386712169565 43.316055460972116  4.8540578636074301 43.4029195061837  4.8399042369418188 43.483510896932387  4.8240674986767571 43.557818704205161  4.8065650828037834 43.624082534967172  4.7876608401859633 43.67997877984876  4.7676017034442157 43.723839890840772  4.7466768488564899 43.754324557544955  4.7251944283619682 43.77051060393687  4.7034696693850435 43.771854982792924  4.6818534085531276 43.75827282842198  4.6605899700276643 43.729884639001803  4.640327982007201 43.688001020205448  4.6213611332330835 43.634405092935062  4.6037371329386492 43.570359558952724  4.5875470033939312 43.497191884324572  4.5728496569031174 43.416148222972765  4.5596929367009782 43.328433821850233  4.5481103145853252 43.235229592362622  4.5381159410191172 43.137609372798956  4.529728674910106 43.036871102689609  4.5228799607329808 42.933299078620159  4.5175355398611545 42.82697181654968  4.5137156852057778 42.71868196027193  4.5114258014950153 42.609025375459851  4.5106736917662582 42.498654543044381  4.5114637418431158 42.388217863656095  4.5137970829117098 42.278384398303345  4.5176712257457066 42.169834792796294  4.5230761130283206 42.06329633076146  4.5300052815900216 41.959430048361718  4.538410377623852 41.859260693353995  4.5483953624673426 41.762278013713249  4.5599763615752726 41.669510901975208  4.5731295357088548 41.582169654384941  4.5878213469347893 41.5014491738172  4.6039996454423964 41.428585953263116  4.6216003279845319 41.364837423705254  4.640528916868325 41.311524971900475  4.6607243110177308 41.269907718926355  4.6819157153455464 41.241678287464502  4.703506920653532 41.228136996572715  4.7252255033943458 41.229502043552564  4.7467117465718029 41.24571275049157  4.7676359917875653 41.27622379091455  4.7876771407642789 41.32007098427821  4.8065353860400393 41.37583355021404  4.823949117859601 41.441726116444606  4.8396646871160085 41.515264204824291  4.8538917974161064 41.596024334399786  4.8665958491379948 41.682871931014567  4.8777843122166002 41.774877025872669  4.8874583358521697 41.871176877681357  4.8956242653236268 41.970996350726665  4.9022892709508561 42.07362778546905  4.9074613853357638 42.178422876882848  4.9111483453418785 42.284783608597635  4.9133571617618923 42.392150381168967  4.913847152595693 42.464054512834778  4.9138473570003143 42.5 
 0 4 0.015151515151515152 1 0.030303030303030304 1 0.045454545454545456 1 0.060606060606060608 1 0.07575757575757576 1 0.090909090909090912 1 0.10606060606060606 1 0.12121212121212122 1 0.13636363636363635 1 0.15151515151515152 1 0.16666666666666669 1 0.18181818181818182 1 0.19696969696969696 1 0.21212121212121213 1 0.22727272727272729 1 0.24242424242424243 1 0.25757575757575757 1 0.27272727272727271 1 0.2878787878787879 1 0.30303030303030304 1 0.31818181818181818 1 0.33333333333333337 1 0.34848484848484851 1 0.36363636363636365 1 0.37878787878787878 1 0.39393939393939392 1 0.40909090909090912 1 0.42424242424242425 1 0.43939393939393939 1 0.45454545454545459 1 0.46969696969696972 1 0.48484848484848486 1 0.5 1 0.51515151515151514 1 0.53030303030303028 1 0.54545454545454541 1 0.56060606060606066 1 0.5757575757575758 1 0.59090909090909094 1 0.60606060606060608 1 0.62121212121212122 1 0.63636363636363635 1 0.65151515151515149 1 0.66666666666666674 1 0.68181818181818188 1 0.69696969696969702 1 0.71212121212121215 1 0.72727272727272729 1 0.74242424242424243 1 0.75757575757575757 1 0.77272727272727271 1 0.78787878787878785 1 0.80303030303030309 1 0.81818181818181823 1 0.83333333333333337 1 0.84848484848484851 1 0.86363636363636365 1 0.87878787878787878 1 0.89393939393939392 1 0.90909090909090917 1 0.92424242424242431 1 0.93939393939393945 1 0.95454545454545459 1 0.96969696969696972 1 0.98484848484848486 1 1 4
7 0 0  3 69 67  0 13.5715763364  0.028255599611599277 13.571573216702559  0.084769652303882018 13.572200318139835  0.1697615530797543 13.574982229182032  0.25518802398133833 13.579561671318835  0.34125760869365923 13.585842291393572  0.42818114317927941 13.593691107668555  0.51617164279371575 13.602931437398308  0.60545904503102221 13.613343614365974  0.69625322686537949 13.624657781849114  0.78890105877693939 13.636571754982734  0.88332353743994008 13.648678686140046  0.98115741623889263 13.660734988160707  1.082464538798048 13.672211848408105  1.1862326887769099 13.682421532569194  1.2919092034849142 13.690769447221548  1.3989479415104065 13.696745354162745  1.5068787906674004 13.699976123839283  1.6153017936436171 13.7002462745229  1.7236820612726089 13.69752947311088  1.8320287596502316 13.691942597219226  1.9381864452084945 13.683926518504991  2.0415108783974856 13.674062716255479  2.142481094552882 13.66285617317978  2.2412208197434604 13.650830511911854  2.3379016707578297 13.638482180835023  2.4326458115162071 13.626274866897583  2.5255367979845755 13.614628445405589  2.616690155525041 13.603903093825586  2.705970997202694 13.594420796137964  2.7940642774027511 13.586353197765192  2.8816715257332506 13.57985439408564  2.9688458973995249 13.575100268774211  3.0557907534213422 13.572206778763157  3.1426502261736995 13.571249285403642  3.2295694499879204 13.572254987713494  3.316679377645753 13.575202589119074  3.4041104273550093 13.580021652771688  3.4919642255077878 13.586588730299985  3.5804228578991402 13.594740506075906  3.6693490302167686 13.604226940408431  3.7600582901085522 13.614924054323172  3.8526756546268293 13.626548335166841  3.9471967894072755 13.638729005919473  4.0436922638337789 13.651046964063069  4.1422475770358416 13.663036111353282  4.2430035609691963 13.674199505988778  4.3460657489141683 13.684016138763987  4.4518454003131369 13.691983250484604  4.5598162326261225 13.697539275037983  4.6680695633119473 13.700247887785451  4.7764618139406334 13.699973554999369  4.8844138179442185 13.696737946713895  4.9914539436258609 13.690757142799715  5.0970424177794582 13.682412453911255  5.2005589380063038 13.672227178947601  5.301341290638808 13.660814077383183  5.3983343324616984 13.648871273608865  5.4931179728762194 13.636722731808732  5.5858332349398676 13.624797490992055  5.6767889305192574 13.613456942757452  5.7662202279621688 13.603019305532344  5.8543607609347452 13.593753573203122  5.9414291741520389 13.585882411979918  6.0276376355301293 13.579583699690883  6.1131943712863102 13.574991307113471  6.1983067472533024 13.572201878948949  6.2548945435236272 13.571573182746869  6.2831853071795862 13.5715763364 
 0 4 0.015151515151515152 1 0.030303030303030304 1 0.045454545454545456 1 0.060606060606060608 1 0.07575757575757576 1 0.090909090909090912 1 0.10606060606060606 1 0.12121212121212122 1 0.13636363636363635 1 0.15151515151515152 1 0.16666666666666669 1 0.18181818181818182 1 0.19696969696969696 1 0.21212121212121213 1 0.22727272727272729 1 0.24242424242424243 1 0.25757575757575757 1 0.27272727272727271 1 0.2878787878787879 1 0.30303030303030304 1 0.31818181818181818 1 0.33333333333333337 1 0.34848484848484851 1 0.36363636363636365 1 0.37878787878787878 1 0.39393939393939392 1 0.40909090909090912 1 0.42424242424242425 1 0.43939393939393939 1 0.45454545454545459 1 0.46969696969696972 1 0.48484848484848486 1 0.5 1 0.51515151515151514 1 0.53030303030303028 1 0.54545454545454541 1 0.56060606060606066 1 0.5757575757575758 1 0.59090909090909094 1 0.60606060606060608 1 0.62121212121212122 1 0.63636363636363635 1 0.65151515151515149 1 0.66666666666666674 1 0.68181818181818188 1 0.69696969696969702 1 0.71212121212121215 1 0.72727272727272729 1 0.74242424242424243 1 0.75757575757575757 1 0.77272727272727271 1 0.78787878787878785 1 0.80303030303030309 1 0.81818181818181823 1 0.83333333333333337 1 0.84848484848484851 1 0.86363636363636365 1 0.87878787878787878 1 0.89393939393939392 1 0.90909090909090917 1 0.92424242424242431 1 0.93939393939393945 1 0.95454545454545459 1 0.96969696969696972 1 0.98484848484848486 1 1 4
1 6.2831853071795862 0 0 1 
1 0 0 0 1 
Curves 24
1 1809.2303627829999 -119 980.58351043575999 1 0 0 
2 1857.2303627829999 -119 974.23351043575997 1 0 -0 0 0 1 0 -1 0 6.3499999999999996
2 1809.2303627829999 -119 974.23351043575997 1 0 -0 0 0 1 0 -1 0 6.3499999999999996
7 0 1  7 43 8  1851.7303627829999 -125.2215763363 975.50413543575996  1851.883550558 -125.2215763363 975.50413543575996  1852.036745204 -125.2259765548 975.48258931074997  1852.1876504940001 -125.2347791728 975.43949058904002  1852.333788869 -125.2475645042 975.37448220193005  1852.4722003540001 -125.2634617038 975.28705985883005  1852.5991379009999 -125.2809966717 975.17671664689999  1852.8085791640001 -125.3135539212 974.92354565091  1852.8972024879999 -125.3291070871 974.78154451019998  1852.9658959200001 -125.3426497496 974.62043328002005  1853.0083820130001 -125.35158092020001 974.44601743802002  1853.021384058 -125.3541718199 974.26565281222997  1853.0046184529999 -125.3505837893 974.08713369763996  1852.9170919600001 -125.333599065 973.74624051395995  1852.8471222779999 -125.3203633633 973.58917720446004  1852.7563296210001 -125.3041616231 973.44931008591004  1852.6492722999999 -125.2870145822 973.32831417979003  1852.5301749580001 -125.2706859064 973.22707036981001  1852.4029845289999 -125.2564558154 973.14574831975006  1852.114749568 -125.23148616909999 973.01011524231001  1851.948986893 -125.2216742929 972.96251602210998  1851.777999204 -125.2169554594 972.94107023311005  1851.605376706 -125.2180391269 972.94608125376999  1851.4349615629999 -125.2249188442 972.97778051756995  1851.2710163060001 -125.2366571825 973.03606076301003  1850.99945716 -125.26324694829999 973.18535166691004  1850.885296749 -125.277032451 973.26736171301002  1850.7789068930001 -125.2922801333 973.36639774415005  1850.683594611 -125.3078845223 973.48216357106003  1850.60280911 -125.3224063964 973.61377372439995  1850.540175179 -125.33427018090001 973.75971019572  1850.4593390570001 -125.34995662270001 974.07454610356001  1850.4418395130001 -125.3536394807 974.23974037121002  1850.4498907350001 -125.3520687517 974.40728450372001  1850.4835755189999 -125.3450095148 974.57068844629998  1850.540529698 -125.3336605293 974.72374958264004  1850.615926341 -125.3200237951 974.86133663245005  1850.812441238 -125.28798902440001 975.13181618424005  1850.9434654429999 -125.2688102235 975.25741284380001  1851.0887202490001 -125.2510191352 975.35687161010003  1851.243447025 -125.23656368020001 975.43075507453  1851.403942957 -125.2265698171 975.47968386746004  1851.5671725249999 -125.2215763363 975.50413543575996 
 0 7 0.150843671402 6 0.28653532100099999 6 0.42355775567199999 6 0.58661035656899996 6 0.7133725715 6 0.83950711774700004 6 1 7
7 0 1  7 43 8  1851.7303627829999 -112.77842366359999 975.50413543575996  1851.883550558 -112.77842366359999 975.50413543575996  1852.036745204 -112.7740234451 975.48258931074997  1852.1876504940001 -112.76522082709999 975.43949058904002  1852.333788869 -112.7524354957 975.37448220193005  1852.4722003540001 -112.73653829609999 975.28705985883005  1852.5991379009999 -112.7190033282 975.17671664689999  1852.8085791640001 -112.6864460787 974.92354565091  1852.8972024879999 -112.6708929128 974.78154451019998  1852.9658959200001 -112.6573502503 974.62043328002005  1853.0083820130001 -112.64841907970001 974.44601743802002  1853.021384058 -112.64582818 974.26565281222997  1853.0046184529999 -112.64941621059999 974.08713369763996  1852.9170919600001 -112.6664009349 973.74624051395995  1852.8471222779999 -112.67963663659999 973.58917720446004  1852.7563296210001 -112.6958383768 973.44931008591004  1852.6492722999999 -112.7129854177 973.32831417979003  1852.5301749580001 -112.72931409349999 973.22707036981001  1852.4029845289999 -112.7435441845 973.14574831975006  1852.114749568 -112.7685138308 973.01011524231001  1851.948986893 -112.77832570699999 972.96251602210998  1851.777999204 -112.7830445405 972.94107023311005  1851.605376706 -112.781960873 972.94608125376999  1851.4349615629999 -112.77508115569999 972.97778051756995  1851.2710163060001 -112.7633428174 973.03606076301003  1850.9994571570001 -112.7367530513 973.18535166855997  1850.8852967570001 -112.7229675496 973.26736170979996  1850.778906885 -112.7077198659 973.36639774316995  1850.683594613 -112.6921154775 973.48216357993999  1850.6028091109999 -112.67759360389999 973.61377371438005  1850.540175178 -112.6657298188 973.7597101998  1850.4593390570001 -112.65004337720001 974.07454610356001  1850.4418395130001 -112.6463605192 974.23974037121002  1850.4498907350001 -112.6479312482 974.40728450372001  1850.4835755189999 -112.6549904851 974.57068844629998  1850.540529698 -112.66633947059999 974.72374958264004  1850.615926341 -112.6799762048 974.86133663245005  1850.812441238 -112.71201097549999 975.13181618424005  1850.9434654429999 -112.7311897764 975.25741284380001  1851.0887202490001 -112.7489808647 975.35687161010003  1851.243447025 -112.76343631970001 975.43075507453  1851.403942957 -112.7734301828 975.47968386746004  1851.5671725249999 -112.77842366359999 975.50413543575996 
 0 7 0.15084366870900001 6 0.28653531588499997 6 0.42355774811000002 6 0.58661034609700002 6 0.71337256196599996 6 0.83950711240800002 6 1 7
1 1809.2303627829999 -108.00147737189999 974.23351043575997 0 -0.50000000000018996 0.86602540378432902 
1 1809.2303627829999 -113.5007386859 983.75851043575994 0 -1 0 
1 1809.2303627829999 -124.49926131399999 983.75851043575994 0 -0.50000000000018996 -0.86602540378432902 
1 1809.2303627829999 -129.99852262799999 974.23351043575997 0 0.50000000000018996 -0.86602540378432902 
1 1809.2303627829999 -124.49926131399999 964.70851043575999 0 1 -3.2000000000000002e-16 
1 1809.2303627829999 -113.5007386859 964.70851043575999 0 0.50000000000018996 0.86602540378432902 
1 1851.7303627829999 -126.34999999999999 975.50413543575996 0 1 0 
1 1801.2303627829999 -108.00147737189999 974.23351043575997 1 0 0 
1 1801.2303627829999 -113.5007386859 983.75851043575994 1 0 0 
1 1801.2303627829999 -108.00147737189999 974.23351043575997 0 -0.50000000000018996 0.86602540378432902 
1 1801.2303627829999 -113.5007386859 964.70851043575999 1 0 0 
1 1801.2303627829999 -113.5007386859 964.70851043575999 0 0.50000000000018996 0.86602540378432902 
1 1801.2303627829999 -124.49926131399999 983.75851043575994 1 0 0 
1 1801.2303627829999 -113.5007386859 983.75851043575994 0 -1 0 
1 1801.2303627829999 -124.49926131399999 964.70851043575999 1 0 0 
1 1801.2303627829999 -124.49926131399999 964.70851043575999 0 1 -3.2000000000000002e-16 
1 1801.2303627829999 -129.99852262799999 974.23351043575997 1 0 0 
1 1801.2303627829999 -124.49926131399999 983.75851043575994 0 -0.50000000000018996 -0.86602540378432902 
1 1801.2303627829999 -129.99852262799999 974.23351043575997 0 0.50000000000018996 -0.86602540378432902 
Polygon3D 0
PolygonOnTriangulations 0
Surfaces 11
2 1809.2303627829999 -119 974.23351043575997 1 0 0 0 0 1 0 -1 0 6.3499999999999996
1 1857.2303627829999 -119 974.23351043575997 1 0 0 0 0 1 0 -1 0 
1 1809.2303627829999 -119 974.23351043575997 1 0 0 0 0 1 0 -1 0 
2 1851.7303627829999 -126.34999999999999 974.23351043575997 0 1 0 0 -0 1 1 0 -0 1.2706249999999999
1 1801.2303627829999 -108.00147737189999 974.23351043575997 0 -0.86602540378432902 -0.50000000000018996 0 -0.50000000000018996 0.86602540378432902 -1 -0 0 
1 1801.2303627829999 -113.5007386859 983.75851043575994 0 0 -1 0 -1 0 -1 -0 -0 
1 1801.2303627829999 -124.49926131399999 983.75851043575994 0 0.86602540378432902 -0.50000000000018996 0 -0.50000000000018996 -0.86602540378432902 -1 0 -0 
1 1801.2303627829999 -129.99852262799999 974.23351043575997 0 0.86602540378432902 0.50000000000018996 0 0.50000000000018996 -0.86602540378432902 -1 0 0 
1 1801.2303627829999 -124.49926131399999 964.70851043575999 0 3.2000000000000002e-16 1 0 1 -3.2000000000000002e-16 -1 0 0 
1 1801.2303627829999 -113.5007386859 964.70851043575999 0 -0.86602540378432902 0.50000000000018996 0 0.50000000000018996 0.86602540378432902 -1 0 0 
1 1801.2303627829999 -119 974.23351043575997 1 0 0 0 0 1 0 -1 0 
Triangulations 0

TShapes 67
Ve
1e-07
1809.230362783 -119 980.58351043576
0 0

0101101
*
Ve
1e-07
1857.230362783 -119 980.58351043576
0 0

0101101
*
Ed
 1e-07 1 1 0
1  1 0 0 48
3  1 2CN 1 0 0 48
0

0101000
+67 0 -66 0 *
Ed
 1e-07 1 1 0
1  2 0 0 6.28318530717959
2  3 1 0 0 6.28318530717959
4 C0 1 0 2 0
0

0101100
+66 0 -66 0 *
Ed
 1e-07 1 1 0
1  3 0 0 6.28318530717959
2  4 1 0 0 6.28318530717959
4 C0 1 0 3 0
0

0101100
+67 0 -67 0 *
Wi

0101100
+65 0 -64 0 -65 0 +63 0 *
Ve
1e-07
1851.730362783 -125.2215763363 975.50413543576
0 0

0101101
*
Ed
 1e-07 1 1 0
1  4 0 0 1
2  5 1 0 0 1
2  6 4 0 0 1
4 C0 1 0 4 0
0

0101100
+61 0 -61 0 *
Wi

0101100
+60 0 *
Ve
1e-07
1851.730362783 -112.7784236636 975.50413543576
0 0

0101101
*
Ed
 1e-07 1 1 0
1  5 0 0 1
2  7 1 0 0 1
2  8 4 0 0 1
4 C0 1 0 4 0
0

0101100
+58 0 -58 0 *
Wi

0101100
-57 0 *
Fa
0  1e-07 1 0

0111000
+62 0 +59 0 +56 0 *
Ve
1e-07
1809.230362783 -108.0014773719 974.23351043576
0 0

0101101
*
Ve
1e-07
1809.230362783 -113.5007386859 983.75851043576
0 0

0101101
*
Ed
 1e-07 1 1 0
1  6 0 0 10.9985226280468
4 C0 3 0 5 0
0

0101000
+54 0 -53 0 *
Ve
1e-07
1809.230362783 -124.499261314 983.75851043576
0 0

0101101
*
Ed
 1e-07 1 1 0
1  7 0 0 10.9985226281
4 C0 3 0 6 0
0

0101000
+53 0 -51 0 *
Ve
1e-07
1809.230362783 -129.998522628 974.23351043576
0 0

0101101
*
Ed
 1e-07 1 1 0
1  8 0 0 10.9985226280468
4 C0 3 0 7 0
0

0101000
+51 0 -49 0 *
Ve
1e-07
1809.230362783 -124.499261314 964.70851043576
0 0

0101101
*
Ed
 1e-07 1 1 0
1  9 0 0 10.9985226280468
4 C0 3 0 8 0
0

0101000
+49 0 -47 0 *
Ve
1e-07
1809.230362783 -113.5007386859 964.70851043576
0 0

0101101
*
Ed
 1e-07 1 1 0
1  10 0 0 10.9985226281
4 C0 3 0 9 0
0

0101000
+47 0 -45 0 *
Ed
 1e-07 1 1 0
1  11 0 0 10.9985226280468
4 C0 3 0 10 0
0

0101000
+45 0 -54 0 *
Wi

0101100
+52 0 +50 0 +48 0 +46 0 +44 0 +43 0 *
Wi

0101100
-63 0 *
Fa
0  1e-07 3 0

0111000
+42 0 +41 0 *
Wi

0101100
+64 0 *
Fa
0  1e-07 2 0

0111000
+39 0 *
Ed
 1e-07 1 1 0
1  12 0 1.12842366369999 13.5715763364
3  9 10CN 4 0 1.12842366369999 13.5715763364
0

0101000
+61 0 -58 0 *
Wi

0101100
-57 0 -37 0 +60 0 +37 0 *
Fa
0  1e-07 4 0

0111000
+36 0 *
Ve
1e-07
1801.230362783 -108.0014773719 974.23351043576
0 0

0101101
*
Ed
 1e-07 1 1 0
1  13 0 0 8
4 C0 5 0 10 0
0

0101000
+34 0 -54 0 *
Ve
1e-07
1801.230362783 -113.5007386859 983.75851043576
0 0

0101101
*
Ed
 1e-07 1 1 0
1  14 0 0 8
4 C0 5 0 6 0
0

0101000
+32 0 -53 0 *
Ed
 1e-07 1 1 0
1  15 0 0 10.9985226280468
4 C0 5 0 11 0
0

0101000
+34 0 -32 0 *
Wi

0101100
+33 0 +52 0 -31 0 -30 0 *
Fa
0  1e-07 5 0

0111000
+29 0 *
Ve
1e-07
1801.230362783 -113.5007386859 964.70851043576
0 0

0101101
*
Ed
 1e-07 1 1 0
1  16 0 0 8
4 C0 10 0 9 0
0

0101000
+27 0 -45 0 *
Ed
 1e-07 1 1 0
1  17 0 0 10.9985226280468
4 C0 10 0 11 0
0

0101000
+27 0 -34 0 *
Wi

0101100
+26 0 +43 0 -33 0 -25 0 *
Fa
0  1e-07 10 0

0111000
+24 0 *
Ve
1e-07
1801.230362783 -124.499261314 983.75851043576
0 0

0101101
*
Ed
 1e-07 1 1 0
1  18 0 0 8
4 C0 6 0 7 0
0

0101000
+22 0 -51 0 *
Ed
 1e-07 1 1 0
1  19 0 0 10.9985226281
4 C0 6 0 11 0
0

0101000
+32 0 -22 0 *
Wi

0101100
+31 0 +50 0 -21 0 -20 0 *
Fa
0  1e-07 6 0

0111000
+19 0 *
Ve
1e-07
1801.230362783 -124.499261314 964.70851043576
0 0

0101101
*
Ed
 1e-07 1 1 0
1  20 0 0 8
4 C0 9 0 8 0
0

0101000
+17 0 -47 0 *
Ed
 1e-07 1 1 0
1  21 0 0 10.9985226281
4 C0 9 0 11 0
0

0101000
+17 0 -27 0 *
Wi

0101100
+16 0 +44 0 -26 0 -15 0 *
Fa
0  1e-07 9 0

0111000
+14 0 *
Ve
1e-07
1801.230362783 -129.998522628 974.23351043576
0 0

0101101
*
Ed
 1e-07 1 1 0
1  22 0 0 8
4 C0 7 0 8 0
0

0101000
+12 0 -49 0 *
Ed
 1e-07 1 1 0
1  23 0 0 10.9985226280468
4 C0 7 0 11 0
0

0101000
+22 0 -12 0 *
Wi

0101100
+21 0 +48 0 -11 0 -10 0 *
Fa
0  1e-07 7 0

0111000
+9 0 *
Ed
 1e-07 1 1 0
1  24 0 0 10.9985226280468
4 C0 8 0 11 0
0

0101000
+12 0 -17 0 *
Wi

0101100
+11 0 +46 0 -16 0 -7 0 *
Fa
0  1e-07 8 0

0111000
+6 0 *
Wi

0101100
+30 0 +20 0 +10 0 +7 0 +15 0 +25 0 *
Fa
0  1e-07 11 0

0111000
+4 0 *
Sh

0101100
+55 0 +40 0 +38 0 -35 0 -28 0 -23 0 -18 0 -13 0 -8 0 -5 0 
-3 0 *
So

0100000
+2 0 *

+1 0 