DBRep_DrawableShape

CASCADE Topology V1, (c) Matra-Datavision
Locations 0
Curve2ds 10
1 6.2831853071795862 0 0 1 
1 0 0 0 1 
1 0 48 1 0 
1 0 0 1 0 
7 0 0  3 69 67  1.3693379501785787 42.5  1.3693381618788842 42.535900851767224  1.3698269243389554 42.60771119818785  1.3720297548729761 42.714928020394389  1.375706127273618 42.82113317532027  1.3808627478134758 42.925772896315692  1.3875073763235279 43.0282566980826  1.395647942879789 43.12794291901583  1.4052934472142926 43.224138367625564  1.4164466342687847 43.316055448161769  1.429127441418558 43.402919492646276  1.4432810675872298 43.48351088311297  1.4591178052253435 43.557818690243494  1.4766202204765717 43.624082521759654  1.495524462467207 43.6799787681393  1.5155835986057038 43.723839881423032  1.5365084526333437 43.754324551175607  1.557990872632522 43.770510601330351  1.5797156311970313 43.771854984570759  1.6013318917272854 43.758272835078003  1.6225953300420493 43.729884650997825  1.6428573181694597 43.688001037245364  1.661824167070028 43.634405115015632  1.6794481675886652 43.570359585928827  1.6956382974315456 43.497191916025457  1.7103356442977569 43.416148259172019  1.7234923649469107 43.328433862283184  1.7350749875782605 43.235229636694982  1.7450693617183148 43.137609420734968  1.7534566284692548 43.036871153600572  1.7603053432774529 42.933299133049353  1.7656497648571772 42.826971874054891  1.7694696202743616 42.718682020636827  1.7717595048072241 42.609025438364334  1.7725116154162137 42.498654608151682  1.7717215662764043 42.388217930577468  1.769388226200258 42.278384466609957  1.7655140844084178 42.169834861993408  1.76010919822242 42.063296400378192  1.7531800307753047 41.959430117566434  1.7447749359841367 41.859260762403821  1.7347899520592087 41.762278078299452  1.7232089538902955 41.669510962411401  1.7100557807817258 41.582169710745937  1.6953639705028321 41.501449225052134  1.6791856727572287 41.428585998111949  1.6615849908862983 41.36483746149235  1.6426564028028616 41.3115250024575  1.6224610094821852 41.269907741336283  1.6012696046285164 41.241678299747939  1.5796783988188068 41.228136999886367  1.5579598153061998 41.229502038674589  1.5364735712101163 41.245712738615069  1.5155493249445853 41.276223773359291  1.4955081748324619 41.320070962491435  1.4766499283817898 41.375833525676292  1.4592361953648982 41.441726090730398  1.4435206250220693 41.515264179051307  1.4292935137794118 41.596024309183043  1.4165894612025578 41.682871907121296  1.4054009973738297 41.774877003868689  1.3957269730891293 41.871176858044848  1.3875610430707388 41.970996333839999  1.3808960369979844 42.073627771630072  1.3757239222680269 42.178422866318719  1.372036962016483 42.28478360147006  1.3698281454494809 42.39215037758219  1.369338154583166 42.464054511640214  1.3693379501785787 42.5 
 0 4 0.015151515151515152 1 0.030303030303030304 1 0.045454545454545456 1 0.060606060606060608 1 0.07575757575757576 1 0.090909090909090912 1 0.10606060606060606 1 0.12121212121212122 1 0.13636363636363635 1 0.15151515151515152 1 0.16666666666666669 1 0.18181818181818182 1 0.19696969696969696 1 0.21212121212121213 1 0.22727272727272729 1 0.24242424242424243 1 0.25757575757575757 1 0.27272727272727271 1 0.2878787878787879 1 0.30303030303030304 1 0.31818181818181818 1 0.33333333333333337 1 0.34848484848484851 1 0.36363636363636365 1 0.37878787878787878 1 0.39393939393939392 1 0.40909090909090912 1 0.42424242424242425 1 0.43939393939393939 1 0.45454545454545459 1 0.46969696969696972 1 0.48484848484848486 1 0.5 1 0.51515151515151514 1 0.53030303030303028 1 0.54545454545454541 1 0.56060606060606066 1 0.5757575757575758 1 0.59090909090909094 1 0.60606060606060608 1 0.62121212121212122 1 0.63636363636363635 1 0.65151515151515149 1 0.66666666666666674 1 0.68181818181818188 1 0.69696969696969702 1 0.71212121212121215 1 0.72727272727272729 1 0.74242424242424243 1 0.75757575757575757 1 0.77272727272727271 1 0.78787878787878785 1 0.80303030303030309 1 0.81818181818181823 1 0.83333333333333337 1 0.84848484848484851 1 0.86363636363636365 1 0.87878787878787878 1 0.89393939393939392 1 0.90909090909090917 1 0.92424242424242431 1 0.93939393939393945 1 0.95454545454545459 1 0.96969696969696972 1 0.98484848484848486 1 1 4
7 0 0  3 69 67  0 1.1284236636219998  0.028255599106678238 1.1284267833208061  0.084769650789875792 1.127799681913259  0.16976155004167526 1.1250177709840157  0.25518801939448693 1.1204383290116031  0.34125760252446713 1.1141577091505834  0.42818113538148744 1.1063088931357374  0.51617163331177796 1.0970685637055104  0.60545903378985311 1.0866563870597226  0.69625321379101435 1.0753422198950138  0.78890104373832304 1.0634282470466321  0.8833235204168709 1.0513213160924846  0.98115739663721135 1.039265014236098  1.0824645168312295 1.0277881539902129  1.1862326644574013 1.0175784696647077  1.2919091768886712 1.0092305546532978  1.3989479127092994 1.0032546471541046  1.5068787597507693 1.0000238767356231  1.6153017607050804 0.99975372516184968  1.7236820264794654 1.0024705255980908  1.8320287229979573 1.0080574004849512  1.9381864078792832 1.0160734783313488  2.0415108400771875 1.0259372798112378  2.1424810553342111 1.037143822269309  2.2412207796146895 1.049169483090272  2.3379016297433703 1.061517813909959  2.4326457696325696 1.0737251277880511  2.5255367552767507 1.0853715494178422  2.6166901119775665 1.0960969013161554  2.7059709530521219 1.1055791995113176  2.7940642318856912 1.1136467984844749  2.8816714789527462 1.1201456029292545  2.9688458492270628 1.1248997291344294  3.0557907037905845 1.127793220159979  3.1426501749976556 1.1287507146349181  3.2295693971863644 1.1277450135175162  3.3166793231305518 1.124797413351504  3.4041103710518321 1.1199783509460866  3.4919641672666035 1.1134112746375069  3.5804227978505745 1.10525949997648  3.6693489674206297 1.095773066708577  3.7600582277828964 1.0850759533394718  3.8526755919718134 1.0734516729025312  3.9471967255473346 1.0612710023636751  4.0436921990268493 1.0489530440929695  4.1422475120036681 1.0369638962921823  4.2430034957389147 1.025800500831328  4.3460656822952695 1.0159838670146237  4.4518453316617466 1.0080167539310565  4.5598161681117277 1.0024607274384578  4.6680695019392804 0.9997521129229161  4.7764617563504679 1.0000264440658875  4.8844137642706444 1.0032620509804022  4.9914538940880311 1.0092428538542606  5.0970423725447418 1.0175875420677962  5.2005588971951306 1.0277728167126388  5.3013412544935283 1.0391859183043031  5.3983343006432811 1.0511287223659409  5.4931179448344913 1.0632772645902056  5.5858332105336963 1.0752025059430723  5.6767889095420969 1.0865430547588271  5.7662202102623503 1.096980692567227  5.8543607463813681 1.1062464254430109  5.9414291626370765 1.11411758714604  6.027637626969228 1.120416299826112  6.1131943656155592 1.1250086926911569  6.1983067444305888 1.1277981210324326  6.2548945425833367 1.128426817275096  6.2831853071795862 1.1284236636219998 
 0 4 0.015151515151515152 1 0.030303030303030304 1 0.045454545454545456 1 0.060606060606060608 1 0.07575757575757576 1 0.090909090909090912 1 0.10606060606060606 1 0.12121212121212122 1 0.13636363636363635 1 0.15151515151515152 1 0.16666666666666669 1 0.18181818181818182 1 0.19696969696969696 1 0.21212121212121213 1 0.22727272727272729 1 0.24242424242424243 1 0.25757575757575757 1 0.27272727272727271 1 0.2878787878787879 1 0.30303030303030304 1 0.31818181818181818 1 0.33333333333333337 1 0.34848484848484851 1 0.36363636363636365 1 0.37878787878787878 1 0.39393939393939392 1 0.40909090909090912 1 0.42424242424242425 1 0.43939393939393939 1 0.45454545454545459 1 0.46969696969696972 1 0.48484848484848486 1 0.5 1 0.51515151515151514 1 0.53030303030303028 1 0.54545454545454541 1 0.56060606060606066 1 0.5757575757575758 1 0.59090909090909094 1 0.60606060606060608 1 0.62121212121212122 1 0.63636363636363635 1 0.65151515151515149 1 0.66666666666666674 1 0.68181818181818188 1 0.69696969696969702 1 0.71212121212121215 1 0.72727272727272729 1 0.74242424242424243 1 0.75757575757575757 1 0.77272727272727271 1 0.78787878787878785 1 0.80303030303030309 1 0.81818181818181823 1 0.83333333333333337 1 0.84848484848484851 1 0.86363636363636365 1 0.87878787878787878 1 0.89393939393939392 1 0.90909090909090917 1 0.92424242424242431 1 0.93939393939393945 1 0.95454545454545459 1 0.96969696969696972 1 0.98484848484848486 1 1 4
7 0 0  3 69 67  4.9138473570010071 42.5  4.9138471453007035 42.535900852408673  4.913358382823195 42.607711200111666  4.9111555522104338 42.714928024213059  4.9074791796782851 42.821133180980958  4.9023225589536725 42.925772903731087  4.8956779302052258 43.028256707133664  4.8875373633562811 43.127942929538875  4.8778918586745847 43.224138379425732  4.866738671219057 43.316055460972116  4.8540578636093334 43.4029195061837  4.8399042369433269 43.483510896932387  4.8240674986777066 43.557818704205161  4.8065650828044966 43.624082534967172  4.7876608401865148 43.67997877984876  4.7676017034446758 43.723839890840772  4.7466768488567777 43.754324557544955  4.7251944283620837 43.77051060393687  4.7034696693850124 43.771854982792924  4.6818534085528913 43.75827282842198  4.6605899700273836 43.729884639001803  4.6403279820066228 43.688001020205448  4.6213611332325071 43.634405092935062  4.6037371329378862 43.570359558952724  4.5875470033932366 43.497191884324572  4.5728496569022692 43.416148222972765  4.5596929366999586 43.328433821850233  4.5481103145840978 43.235229592362622  4.5381159410178151 43.137609372798956  4.5297286749088448 43.036871102689609  4.5228799607314949 42.933299078620159  4.5175355398596562 42.82697181654968  4.5137156852043399 42.71868196027193  4.5114258014937514 42.609025375459851  4.5106736917651231 42.498654543044381  4.5114637418418768 42.388217863656095  4.5137970829103393 42.278384398303345  4.5176712257440563 42.169834792796294  4.5230761130265158 42.06329633076146  4.5300052815881919 41.959430048361718  4.5384103776230127 41.859260693353995  4.548395362466346 41.762278013713249  4.559976361574118 41.669510901975208  4.5731295357078965 41.582169654384941  4.5878213469338895 41.5014491738172  4.6039996454415926 41.428585953263116  4.6216003279838027 41.364837423705254  4.6405289168676385 41.311524971900475  4.6607243110174572 41.269907718926355  4.6819157153453848 41.241678287464502  4.7035069206534663 41.228136996572715  4.7252255033944381 41.229502043552564  4.7467117465720383 41.24571275049157  4.7676359917879987 41.27622379091455  4.7876771407648429 41.32007098427821  4.8065353860405535 41.37583355021404  4.8239491178595877 41.441726116444606  4.8396646871160174 41.515264204824291  4.8538917974165736 41.596024334399786  4.8665958491389301 41.682871931014567  4.8777843122179805 41.774877025872669  4.8874583358538359 41.871176877681357  4.8956242653254192 41.970996350726665  4.9022892709524744 42.07362778546905  4.9074613853371014 42.178422876882848  4.9111483453428182 42.284783608597635  4.9133571617627183 42.392150381168967  4.9138471525964418 42.464054512834778  4.9138473570010071 42.5 
 0 4 0.015151515151515152 1 0.030303030303030304 1 0.045454545454545456 1 0.060606060606060608 1 0.07575757575757576 1 0.090909090909090912 1 0.10606060606060606 1 0.12121212121212122 1 0.13636363636363635 1 0.15151515151515152 1 0.16666666666666669 1 0.18181818181818182 1 0.19696969696969696 1 0.21212121212121213 1 0.22727272727272729 1 0.24242424242424243 1 0.25757575757575757 1 0.27272727272727271 1 0.2878787878787879 1 0.30303030303030304 1 0.31818181818181818 1 0.33333333333333337 1 0.34848484848484851 1 0.36363636363636365 1 0.37878787878787878 1 0.39393939393939392 1 0.40909090909090912 1 0.42424242424242425 1 0.43939393939393939 1 0.45454545454545459 1 0.46969696969696972 1 0.48484848484848486 1 0.5 1 0.51515151515151514 1 0.53030303030303028 1 0.54545454545454541 1 0.56060606060606066 1 0.5757575757575758 1 0.59090909090909094 1 0.60606060606060608 1 0.62121212121212122 1 0.63636363636363635 1 0.65151515151515149 1 0.66666666666666674 1 0.68181818181818188 1 0.69696969696969702 1 0.71212121212121215 1 0.72727272727272729 1 0.74242424242424243 1 0.75757575757575757 1 0.77272727272727271 1 0.78787878787878785 1 0.80303030303030309 1 0.81818181818181823 1 0.83333333333333337 1 0.84848484848484851 1 0.86363636363636365 1 0.87878787878787878 1 0.89393939393939392 1 0.90909090909090917 1 0.92424242424242431 1 0.93939393939393945 1 0.95454545454545459 1 0.96969696969696972 1 0.98484848484848486 1 1 4
7 0 0  3 69 67  0 13.571576336378  0.028255599611594226 13.571573216678967  0.084769652303880894 13.572200318109102  0.16976155307976584 13.574982229137142  0.25518802398138407 13.579561671270083  0.34125760869360022 13.58584229134641  0.42818114317946987 13.59369110762165  0.51617164279345873 13.602931437344338  0.60545904503132908 13.613343614298724  0.69625322686501989 13.624657781767363  0.78890105877703831 13.636571754895668  0.88332353743990444 13.648678686064535  0.98115741623893638 13.660734988105174  1.0824645387979088 13.672211848361814  1.186232688776949 13.682421532522229  1.2919092034848978 13.690769447169613  1.3989479415104333 13.696745354108403  1.50687879066731 13.699976123788487  1.6153017936434162 13.700246274480467  1.723682061272968 13.697529473077209  1.8320287596500582 13.691942597179112  1.9381864452088287 13.683926518460341  2.0415108783973235 13.674062716212793  2.1424810945531969 13.662856173139692  2.2412208197432673 13.650830511873957  2.3379016707578661 13.638482180796652  2.4326458115162564 13.626274866855507  2.5255367979846901 13.614628445359404  2.6166901555251521 13.603903093779584  2.705970997202674 13.594420796093639  2.79406427740272 13.586353197714462  2.8816715257332164 13.579854394035594  2.9688458973995555 13.575100268728887  3.0557907534213453 13.572206778723682  3.1426502261737035 13.571249285367232  3.2295694499879026 13.572254987675279  3.3166793776457761 13.575202589073974  3.4041104273550302 13.580021652717079  3.4919642255078189 13.586588730238747  3.5804228578989936 13.594740506013878  3.6693490302168641 13.604226940375847  3.7600582901085851 13.614924054284522  3.8526756546266037 13.626548335121425  3.9471967894074447 13.638729005873516  4.0436922638337149 13.651046964018001  4.1422475770359259 13.663036111305091  4.2430035609693739 13.674199505935448  4.346065748913853 13.684016138708451  4.4518454003132204 13.691983250446421  4.559816232626102 13.697539275006358  4.6680695633119456 13.70024788774446  4.7764618139406627 13.699973554954507  4.8844138179441039 13.696737946664966  4.991453943625765 13.690757142747881  5.0970424177794387 13.682412453863851  5.2005589380064849 13.672227178917485  5.301341290638578 13.660814077381804  5.3983343324615385 13.648871273605653  5.493117972876262 13.63672273178766  5.5858332349398552 13.624797490952846  5.6767889305192654 13.613456942704083  5.7662202279621519 13.603019305471289  5.8543607609348101 13.593753573141747  5.9414291741520211 13.585882411925221  6.0276376355301364 13.579583699647507  6.1131943712862968 13.574991307082469  6.1983067472533442 13.572201878925776  6.2548945435236583 13.571573182725324  6.2831853071795862 13.571576336378 
 0 4 0.015151515151515152 1 0.030303030303030304 1 0.045454545454545456 1 0.060606060606060608 1 0.07575757575757576 1 0.090909090909090912 1 0.10606060606060606 1 0.12121212121212122 1 0.13636363636363635 1 0.15151515151515152 1 0.16666666666666669 1 0.18181818181818182 1 0.19696969696969696 1 0.21212121212121213 1 0.22727272727272729 1 0.24242424242424243 1 0.25757575757575757 1 0.27272727272727271 1 0.2878787878787879 1 0.30303030303030304 1 0.31818181818181818 1 0.33333333333333337 1 0.34848484848484851 1 0.36363636363636365 1 0.37878787878787878 1 0.39393939393939392 1 0.40909090909090912 1 0.42424242424242425 1 0.43939393939393939 1 0.45454545454545459 1 0.46969696969696972 1 0.48484848484848486 1 0.5 1 0.51515151515151514 1 0.53030303030303028 1 0.54545454545454541 1 0.56060606060606066 1 0.5757575757575758 1 0.59090909090909094 1 0.60606060606060608 1 0.62121212121212122 1 0.63636363636363635 1 0.65151515151515149 1 0.66666666666666674 1 0.68181818181818188 1 0.69696969696969702 1 0.71212121212121215 1 0.72727272727272729 1 0.74242424242424243 1 0.75757575757575757 1 0.77272727272727271 1 0.78787878787878785 1 0.80303030303030309 1 0.81818181818181823 1 0.83333333333333337 1 0.84848484848484851 1 0.86363636363636365 1 0.87878787878787878 1 0.89393939393939392 1 0.90909090909090917 1 0.92424242424242431 1 0.93939393939393945 1 0.95454545454545459 1 0.96969696969696972 1 0.98484848484848486 1 1 4
1 6.2831853071795862 0 0 1 
1 0 0 0 1 
Curves 24
1 1809.2303627829999 1.5599999999999999e-15 637.58351043575999 1 0 0 
2 1857.2303627829999 0 631.23351043575997 1 0 -0 0 0 1 0 -1 0 6.3499999999999996
2 1809.2303627829999 0 631.23351043575997 1 0 -0 0 0 1 0 -1 0 6.3499999999999996
7 0 1  7 43 8  1851.7303627829999 -6.2215763363779999 632.50413543575996  1851.883550558 -6.2215763363779999 632.50413543575996  1852.036745204 -6.2259765548050003 632.48258931074997  1852.1876504940001 -6.2347791728670003 632.43949058904002  1852.333788869 -6.2475645042989996 632.37448220193005  1852.4722003540001 -6.2634617038030003 632.28705985883005  1852.5991379009999 -6.2809966717019998 632.17671664689999  1852.8085791640001 -6.3135539212460001 631.92354565091  1852.8972024879999 -6.329107087183 631.78154451019998  1852.9658959200001 -6.3426497496409997 631.62043328002005  1853.0083820130001 -6.3515809202240003 631.44601743802002  1853.021384058 -6.3541718199519996 631.26565281222997  1853.0046184529999 -6.3505837893740003 631.08713369763996  1852.9170919600001 -6.3335990650480003 630.74624051395995  1852.8471222779999 -6.3203633633659999 630.58917720446004  1852.7563296210001 -6.3041616231470003 630.44931008591004  1852.6492722999999 -6.2870145822970001 630.32831417979003  1852.5301749580001 -6.2706859064289997 630.22707036981001  1852.4029845289999 -6.2564558154599998 630.14574831975006  1852.114749568 -6.2314861691479999 630.01011524231001  1851.948986893 -6.2216742929339999 629.96251602210998  1851.777999204 -6.2169554594880001 629.94107023311005  1851.605376706 -6.2180391269769997 629.94608125376999  1851.4349615629999 -6.224918844247 629.97778051756995  1851.2710163060001 -6.2366571825149997 630.03606076301003  1850.99945716 -6.2632469483950004 630.18535166691004  1850.885296749 -6.277032451098 630.26736171301002  1850.7789068930001 -6.2922801333910003 630.36639774415005  1850.683594611 -6.3078845223920004 630.48216357106003  1850.60280911 -6.322406396481 630.61377372439995  1850.540175179 -6.3342701809350004 630.75971019572  1850.4593390570001 -6.3499566227850002 631.07454610356001  1850.4418395130001 -6.3536394807240004 631.23974037121002  1850.4498907350001 -6.3520687517830003 631.40728450372001  1850.4835755189999 -6.3450095148379999 631.57068844629998  1850.540529698 -6.3336605293139998 631.72374958264004  1850.615926341 -6.3200237951959997 631.86133663245005  1850.812441238 -6.2879890244989998 632.13181618424005  1850.9434654429999 -6.268810223529 632.25741284380001  1851.0887202490001 -6.2510191352379998 632.35687161010003  1851.243447025 -6.236563680203 632.43075507453  1851.403942957 -6.226569817174 632.47968386746004  1851.5671725249999 -6.2215763363779999 632.50413543575996 
 0 7 0.150843671402 6 0.28653532100099999 6 0.42355775567199999 6 0.58661035656899996 6 0.7133725715 6 0.83950711774700004 6 1 7
7 0 1  7 43 8  1851.7303627829999 6.2215763363779999 632.50413543575996  1851.883550558 6.2215763363779999 632.50413543575996  1852.036745204 6.2259765548050003 632.48258931074997  1852.1876504940001 6.2347791728670003 632.43949058904002  1852.333788869 6.2475645042989996 632.37448220193005  1852.4722003540001 6.2634617038030003 632.28705985883005  1852.5991379009999 6.2809966717019998 632.17671664689999  1852.8085791640001 6.3135539212460001 631.92354565091  1852.8972024879999 6.329107087183 631.78154451019998  1852.9658959200001 6.3426497496409997 631.62043328002005  1853.0083820130001 6.3515809202240003 631.44601743802002  1853.021384058 6.3541718199519996 631.26565281222997  1853.0046184529999 6.3505837893740003 631.08713369763996  1852.9170919600001 6.3335990650480003 630.74624051395995  1852.8471222779999 6.3203633633659999 630.58917720446004  1852.7563296210001 6.3041616231470003 630.44931008591004  1852.6492722999999 6.2870145822970001 630.32831417979003  1852.5301749580001 6.2706859064289997 630.22707036981001  1852.4029845289999 6.2564558154599998 630.14574831975006  1852.114749568 6.2314861691479999 630.01011524231001  1851.948986893 6.2216742929339999 629.96251602210998  1851.777999204 6.2169554594880001 629.94107023311005  1851.605376706 6.2180391269769997 629.94608125376999  1851.4349615629999 6.224918844247 629.97778051756995  1851.2710163060001 6.2366571825149997 630.03606076301003  1850.9994571570001 6.2632469486879998 630.18535166855997  1850.8852967570001 6.2770324503179999 630.26736170979996  1850.778906885 6.2922801340639998 630.36639774316995  1850.683594613 6.3078845224759998 630.48216357993999  1850.6028091109999 6.3224063960320001 630.61377371438005  1850.540175178 6.3342701811379998 630.7597101998  1850.4593390570001 6.3499566227850002 631.07454610356001  1850.4418395130001 6.3536394807240004 631.23974037121002  1850.4498907350001 6.3520687517830003 631.40728450372001  1850.4835755189999 6.3450095148379999 631.57068844629998  1850.540529698 6.3336605293139998 631.72374958264004  1850.615926341 6.3200237951959997 631.86133663245005  1850.812441238 6.2879890244989998 632.13181618424005  1850.9434654429999 6.268810223529 632.25741284380001  1851.0887202490001 6.2510191352379998 632.35687161010003  1851.243447025 6.236563680203 632.43075507453  1851.403942957 6.226569817174 632.47968386746004  1851.5671725249999 6.2215763363779999 632.50413543575996 
 0 7 0.15084366870900001 6 0.28653531588499997 6 0.42355774811000002 6 0.58661034609700002 6 0.71337256196599996 6 0.83950711240800002 6 1 7
1 1809.2303627829999 10.998522628062 631.23351043575997 0 -0.50000000000018996 0.86602540378432902 
1 1809.2303627829999 5.499261314031 640.75851043575994 0 -1 0 
1 1809.2303627829999 -5.499261314031 640.75851043575994 0 -0.50000000000018996 -0.86602540378432902 
1 1809.2303627829999 -10.99852262806 631.23351043575997 0 0.50000000000018996 -0.86602540378432902 
1 1809.2303627829999 -5.499261314031 621.70851043575999 0 1 -3.2000000000000002e-16 
1 1809.2303627829999 5.499261314031 621.70851043575999 0 0.50000000000018996 0.86602540378432902 
1 1851.7303627829999 -7.3499999999999996 632.50413543575996 0 1 0 
1 1801.2303627829999 10.998522628062 631.23351043575997 1 0 0 
1 1801.2303627829999 5.499261314031 640.75851043575994 1 0 0 
1 1801.2303627829999 10.998522628062 631.23351043575997 0 -0.50000000000018996 0.86602540378432902 
1 1801.2303627829999 5.499261314031 621.70851043575999 1 0 0 
1 1801.2303627829999 5.499261314031 621.70851043575999 0 0.50000000000018996 0.86602540378432902 
1 1801.2303627829999 -5.499261314031 640.75851043575994 1 0 0 
1 1801.2303627829999 5.499261314031 640.75851043575994 0 -1 0 
1 1801.2303627829999 -5.499261314031 621.70851043575999 1 0 0 
1 1801.2303627829999 -5.499261314031 621.70851043575999 0 1 -3.2000000000000002e-16 
1 1801.2303627829999 -10.99852262806 631.23351043575997 1 0 0 
1 1801.2303627829999 -5.499261314031 640.75851043575994 0 -0.50000000000018996 -0.86602540378432902 
1 1801.2303627829999 -10.99852262806 631.23351043575997 0 0.50000000000018996 -0.86602540378432902 
Polygon3D 0
PolygonOnTriangulations 0
Surfaces 11
2 1809.2303627829999 0 631.23351043575997 1 0 0 0 0 1 0 -1 0 6.3499999999999996
1 1857.2303627829999 0 631.23351043575997 1 0 0 0 0 1 0 -1 0 
1 1809.2303627829999 5.4e-16 631.23351043575997 1 0 0 0 0 1 0 -1 0 
2 1851.7303627829999 -7.3499999999999996 631.23351043575997 0 1 0 0 -0 1 1 0 -0 1.2706249999999999
1 1801.2303627829999 10.998522628062 631.23351043575997 0 -0.86602540378432902 -0.50000000000018996 0 -0.50000000000018996 0.86602540378432902 -1 -0 0 
1 1801.2303627829999 5.499261314031 640.75851043575994 0 0 -1 0 -1 0 -1 -0 -0 
1 1801.2303627829999 -5.499261314031 640.75851043575994 0 0.86602540378432902 -0.50000000000018996 0 -0.50000000000018996 -0.86602540378432902 -1 0 -0 
1 1801.2303627829999 -10.99852262806 631.23351043575997 0 0.86602540378432902 0.50000000000018996 0 0.50000000000018996 -0.86602540378432902 -1 0 0 
1 1801.2303627829999 -5.499261314031 621.70851043575999 0 3.2000000000000002e-16 1 0 1 -3.2000000000000002e-16 -1 0 0 
1 1801.2303627829999 5.499261314031 621.70851043575999 0 -0.86602540378432902 0.50000000000018996 0 0.50000000000018996 0.86602540378432902 -1 0 0 
1 1801.2303627829999 5.4e-16 631.23351043575997 1 0 0 0 0 1 0 -1 0 
Triangulations 0

TShapes 67
Ve
1e-07
1809.230362783 2e-15 637.58351043576
0 0

0101101
*
Ve
1e-07
1857.230362783 2e-15 637.58351043576
0 0

0101101
*
Ed
 1e-07 1 1 0
1  1 0 0 48
3  1 2CN 1 0 0 48
0

0101000
+67 0 -66 0 *
Ed
 1e-07 1 1 0
1  2 0 0 6.28318530717959
2  3 1 0 0 6.28318530717959
4 C0 1 0 2 0
0

0101100
+66 0 -66 0 *
Ed
 1e-07 1 1 0
1  3 0 0 6.28318530717959
2  4 1 0 0 6.28318530717959
4 C0 1 0 3 0
0

0101100
+67 0 -67 0 *
Wi

0101100
+65 0 -64 0 -65 0 +63 0 *
Ve
1e-07
1851.730362783 -6.221576336378 632.50413543576
0 0

0101101
*
Ed
 1e-07 1 1 0
1  4 0 0 1
2  5 1 0 0 1
2  6 4 0 0 1
4 C0 1 0 4 0
0

0101100
+61 0 -61 0 *
Wi

0101100
+60 0 *
Ve
1e-07
1851.730362783 6.221576336378 632.50413543576
0 0

0101101
*
Ed
 1e-07 1 1 0
1  5 0 0 1
2  7 1 0 0 1
2  8 4 0 0 1
4 C0 1 0 4 0
0

0101100
+58 0 -58 0 *
Wi

0101100
-57 0 *
Fa
0  1e-07 1 0

0111000
+62 0 +59 0 +56 0 *
Ve
1e-07
1809.230362783 10.998522628062 631.23351043576
0 0

0101101
*
Ve
1e-07
1809.230362783 5.499261314031 640.75851043576
0 0

0101101
*
Ed
 1e-07 1 1 0
1  6 0 0 10.9985226280623
4 C0 3 0 5 0
0

0101000
+54 0 -53 0 *
Ve
1e-07
1809.230362783 -5.499261314031 640.75851043576
0 0

0101101
*
Ed
 1e-07 1 1 0
1  7 0 0 10.998522628062
4 C0 3 0 6 0
0

0101000
+53 0 -51 0 *
Ve
1e-07
1809.230362783 -10.99852262806 631.23351043576
0 0

0101101
*
Ed
 1e-07 1 1 0
1  8 0 0 10.9985226280613
4 C0 3 0 7 0
0

0101000
+51 0 -49 0 *
Ve
1e-07
1809.230362783 -5.499261314031 621.70851043576
0 0

0101101
*
Ed
 1e-07 1 1 0
1  9 0 0 10.9985226280613
4 C0 3 0 8 0
0

0101000
+49 0 -47 0 *
Ve
1e-07
1809.230362783 5.499261314031 621.70851043576
0 0

0101101
*
Ed
 1e-07 1 1 0
1  10 0 0 10.998522628062
4 C0 3 0 9 0
0

0101000
+47 0 -45 0 *
Ed
 1e-07 1 1 0
1  11 0 0 10.9985226280623
4 C0 3 0 10 0
0

0101000
+45 0 -54 0 *
Wi

0101100
+52 0 +50 0 +48 0 +46 0 +44 0 +43 0 *
Wi

0101100
-63 0 *
Fa
0  1e-07 3 0

0111000
+42 0 +41 0 *
Wi

0101100
+64 0 *
Fa
0  1e-07 2 0

0111000
+39 0 *
Ed
 1e-07 1 1 0
1  12 0 1.128423663622 13.571576336378
3  9 10CN 4 0 1.128423663622 13.571576336378
0

0101000
+61 0 -58 0 *
Wi

0101100
-57 0 -37 0 +60 0 +37 0 *
Fa
0  1e-07 4 0

0111000
+36 0 *
Ve
1e-07
1801.230362783 10.998522628062 631.23351043576
0 0

0101101
*
Ed
 1e-07 1 1 0
1  13 0 0 8
4 C0 5 0 10 0
0

0101000
+34 0 -54 0 *
Ve
1e-07
1801.230362783 5.499261314031 640.75851043576
0 0

0101101
*
Ed
 1e-07 1 1 0
1  14 0 0 8
4 C0 5 0 6 0
0

0101000
+32 0 -53 0 *
Ed
 1e-07 1 1 0
1  15 0 0 10.9985226280623
4 C0 5 0 11 0
0

0101000
+34 0 -32 0 *
Wi

0101100
+33 0 +52 0 -31 0 -30 0 *
Fa
0  1e-07 5 0

0111000
+29 0 *
Ve
1e-07
1801.230362783 5.499261314031 621.70851043576
0 0

0101101
*
Ed
 1e-07 1 1 0
1  16 0 0 8
4 C0 10 0 9 0
0

0101000
+27 0 -45 0 *
Ed
 1e-07 1 1 0
1  17 0 0 10.9985226280623
4 C0 10 0 11 0
0

0101000
+27 0 -34 0 *
Wi

0101100
+26 0 +43 0 -33 0 -25 0 *
Fa
0  1e-07 10 0

0111000
+24 0 *
Ve
1e-07
1801.230362783 -5.499261314031 640.75851043576
0 0

0101101
*
Ed
 1e-07 1 1 0
1  18 0 0 8
4 C0 6 0 7 0
0

0101000
+22 0 -51 0 *
Ed
 1e-07 1 1 0
1  19 0 0 10.998522628062
4 C0 6 0 11 0
0

0101000
+32 0 -22 0 *
Wi

0101100
+31 0 +50 0 -21 0 -20 0 *
Fa
0  1e-07 6 0

0111000
+19 0 *
Ve
1e-07
1801.230362783 -5.499261314031 621.70851043576
0 0

0101101
*
Ed
 1e-07 1 1 0
1  20 0 0 8
4 C0 9 0 8 0
0

0101000
+17 0 -47 0 *
Ed
 1e-07 1 1 0
1  21 0 0 10.998522628062
4 C0 9 0 11 0
0

0101000
+17 0 -27 0 *
Wi

0101100
+16 0 +44 0 -26 0 -15 0 *
Fa
0  1e-07 9 0

0111000
+14 0 *
Ve
1e-07
1801.230362783 -10.99852262806 631.23351043576
0 0

0101101
*
Ed
 1e-07 1 1 0
1  22 0 0 8
4 C0 7 0 8 0
0

0101000
+12 0 -49 0 *
Ed
 1e-07 1 1 0
1  23 0 0 10.9985226280613
4 C0 7 0 11 0
0

0101000
+22 0 -12 0 *
Wi

0101100
+21 0 +48 0 -11 0 -10 0 *
Fa
0  1e-07 7 0

0111000
+9 0 *
Ed
 1e-07 1 1 0
1  24 0 0 10.9985226280613
4 C0 8 0 11 0
0

0101000
+12 0 -17 0 *
Wi

0101100
+11 0 +46 0 -16 0 -7 0 *
Fa
0  1e-07 8 0

0111000
+6 0 *
Wi

0101100
+30 0 +20 0 +10 0 +7 0 +15 0 +25 0 *
Fa
0  1e-07 11 0

0111000
+4 0 *
Sh

0101100
+55 0 +40 0 +38 0 -35 0 -28 0 -23 0 -18 0 -13 0 -8 0 -5 0 
-3 0 *
So

0100000
+2 0 *

+1 0 