
CASCADE Topology V1, (c) Matra-Datavision
Locations 3
1
1.000000000000000 0.000000000000000 0.000000000000000 0.000000000000000 
0.000000000000000 1.000000000000000 0.000000000000000 0.000000000000000 
0.000000000000000 0.000000000000000 1.000000000000000 0.000000000000000 
1
1.000000000000000 0.000000000000000 0.000000000000000 0.000000000000000 
0.000000000000000 1.000000000000000 0.000000000000000 0.000000000000000 
0.000000000000000 0.000000000000000 1.000000000000000 0.000000000000000 
2  2 -1 0
Curve2ds 32
1 0.00000000000000000 6.34999999999999964 1.00000000000000000 0.00000000000000000 
1 5.39206279929293331 0.00000000000000000 0.00000000000000000 1.00000000000000000 
1 0.00000000000000000 0.00000000000000000 1.00000000000000000 0.00000000000000000 
1 0.89112250788665270 0.00000000000000000 0.00000000000000000 1.00000000000000000 
1 0.00000000000000000 0.00000000000000000 1.00000000000000000 0.00000000000000000 
1 0.00000000000000000 0.00000000000000000 1.00000000000000000 0.00000000000000000 
1 6.35000000000000142 0.00000000000000000 0.00000000000000000 1.00000000000000000 
1 0.00000000000000000 1.00000000000000000 1.00000000000000000 0.00000000000000000 
1 0.00000000000000000 0.00000000000000000 0.00000000000000000 1.00000000000000000 
1 0.00000000000000000 0.00000000000000000 0.00000000000000000 1.00000000000000000 
1 6.35000000000000142 0.00000000000000000 0.00000000000000000 1.00000000000000000 
1 0.00000000000000000 1.00000000000000000 1.00000000000000000 0.00000000000000000 
1 -2.36619515697904026 0.00000000000000000 0.00000000000000000 1.00000000000000000 
1 2.36619515697904026 0.00000000000000000 0.00000000000000000 1.00000000000000000 
1 0.00000000000000000 1.00000000000000000 1.00000000000000000 0.00000000000000000 
1 0.00000000000000000 1.00000000000000000 1.00000000000000000 0.00000000000000000 
1 0.00000000000000000 1.00000000000000000 1.00000000000000000 0.00000000000000000 
1 0.00000000000000000 7.34999999999999964 1.00000000000000000 0.00000000000000000 
1 0.00000000000000000 7.34999999999999964 1.00000000000000000 0.00000000000000000 
1 0.00000000000000000 7.34999999999999964 1.00000000000000000 0.00000000000000000 
1 6.28318530717958623 -0.00000000000000000 0.00000000000000000 1.00000000000000000 
1 0.00000000000000000 -0.00000000000000000 0.00000000000000000 1.00000000000000000 
1 0.00000000000000000 0.00000000000000000 1.00000000000000000 0.00000000000000000 
1 -6.28318530717958623 0.00000000000000000 1.00000000000000000 0.00000000000000000 
1 0.00000000000000000 1.00000000000000000 1.00000000000000000 0.00000000000000000 
1 0.00000000000000000 1.00000000000000000 1.00000000000000000 0.00000000000000000 
1 0.00000000000000000 7.35000000000000142 1.00000000000000000 0.00000000000000000 
1 0.00000000000000000 7.35000000000000142 1.00000000000000000 0.00000000000000000 
1 6.28318530717958623 -0.00000000000000000 0.00000000000000000 1.00000000000000000 
1 0.00000000000000000 -0.00000000000000000 0.00000000000000000 1.00000000000000000 
1 -6.28318530717958623 6.34999999999999964 1.00000000000000000 0.00000000000000000 
1 0.00000000000000000 6.34999999999999964 1.00000000000000000 0.00000000000000000 
Curves 44
2 0.00000000000000000 6.34999999999999964 0.00000000000000000 0.00000000000000000 1.00000000000000000 0.00000000000000000 0.00000000000000000 0.00000000000000000 1.00000000000000000 1.00000000000000000 0.00000000000000000 0.00000000000000000 18.00000000000000000
1 -14.00000000000000000 0.00000000000000000 11.31370849898476116 0.00000000000000000 1.00000000000000000 0.00000000000000000 
2 0.00000000000000000 0.00000000000000000 0.00000000000000000 0.00000000000000000 1.00000000000000000 0.00000000000000000 0.00000000000000000 0.00000000000000000 1.00000000000000000 1.00000000000000000 0.00000000000000000 0.00000000000000000 18.00000000000000000
1 14.00000000000000000 0.00000000000000000 11.31370849898476116 0.00000000000000000 1.00000000000000000 0.00000000000000000 
6 0 1 -14.00000000000000000 6.34999999999999964 0.00000000000000000  -14.00000000000000000 6.34999999999999964 30.00000000000000000  
1 -14.00000000000000000 6.34999999999999964 30.00000000000000000 0.00000000000000000 -1.00000000000000000 0.00000000000000000 
6 0 1 -14.00000000000000000 0.00000000000000000 0.00000000000000000  -14.00000000000000000 0.00000000000000000 30.00000000000000000  
6 0 1 14.00000000000000000 0.00000000000000000 0.00000000000000000  14.00000000000000000 0.00000000000000000 30.00000000000000000  
1 14.00000000000000000 0.00000000000000000 30.00000000000000000 0.00000000000000000 1.00000000000000000 0.00000000000000000 
6 0 1 14.00000000000000000 6.34999999999999964 0.00000000000000000  14.00000000000000000 6.34999999999999964 30.00000000000000000  
6 0 1 -14.00000000000000000 0.00000000000000000 30.00000000000000000  -14.00000000000000000 -41.22499999999996589 226.69077864095606856  
1 -14.00000000000000000 -34.87499999999996447 226.69077864095606856 0.00000000000000000 -1.00000000000000000 0.00000000000000000 
6 0 1 -14.00000000000000000 6.34999999999999964 30.00000000000000000  -14.00000000000000000 -34.87499999999996447 226.69077864095606856  
1 -14.00000000000000000 0.00000000000000000 30.00000000000000000 1.00000000000000000 0.00000000000000000 0.00000000000000000 
6 0 1 14.00000000000000000 0.00000000000000000 30.00000000000000000  14.00000000000000000 -41.22499999999996589 226.69077864095606856  
1 -14.00000000000000000 -41.22499999999996589 226.69077864095606856 1.00000000000000000 0.00000000000000000 0.00000000000000000 
7 0 0  1 2 2  14.00000000000000000 6.34999999999999964 30.00000000000000000  14.00000000000000000 -34.87499999999996447 226.69077864095606856 
 0.00000000000000000 2 1.00000000000000000 2
1 14.00000000000000000 -41.22499999999996589 226.69077864095606856 0.00000000000000000 1.00000000000000000 0.00000000000000000 
1 14.00000000000000000 6.34999999999999964 30.00000000000000000 -1.00000000000000000 0.00000000000000000 0.00000000000000000 
1 14.00000000000000000 -34.87499999999996447 226.69077864095606856 -1.00000000000000000 0.00000000000000000 0.00000000000000000 
6 0 1 -14.00000000000000000 -34.87499999999996447 226.69077864095606856  -14.00000000000000000 -34.87499999999996447 256.69077864095606856  
1 -14.00000000000000000 -41.22499999999996589 242.40792178387036415 0.00000000000000000 1.00000000000000000 0.00000000000000000 
6 0 1 -14.00000000000000000 -41.22499999999996589 226.69077864095606856  -14.00000000000000000 -41.22499999999996589 256.69077864095606856  
6 0 1 14.00000000000000000 -41.22499999999996589 226.69077864095606856  14.00000000000000000 -41.22499999999996589 256.69077864095606856  
1 14.00000000000000000 -41.22499999999996589 242.40792178387036415 0.00000000000000000 1.00000000000000000 0.00000000000000000 
6 0 1 14.00000000000000000 -34.87499999999996447 226.69077864095606856  14.00000000000000000 -34.87499999999996447 256.69077864095606856  
2 0.00000000000000000 0.00000000000000000 0.00000000000000000 0.00000000000000000 1.00000000000000000 0.00000000000000000 0.00000000000000000 0.00000000000000000 1.00000000000000000 1.00000000000000000 0.00000000000000000 0.00000000000000000 6.50000000000000000
2 0.00000000000000000 0.00000000000000000 0.00000000000000000 0.00000000000000000 1.00000000000000000 0.00000000000000000 0.00000000000000000 0.00000000000000000 1.00000000000000000 1.00000000000000000 0.00000000000000000 0.00000000000000000 6.50000000000000000
2 0.00000000000000000 0.00000000000000000 0.00000000000000000 0.00000000000000000 1.00000000000000000 0.00000000000000000 0.00000000000000000 0.00000000000000000 1.00000000000000000 1.00000000000000000 0.00000000000000000 0.00000000000000000 6.50000000000000000
2 0.00000000000000000 6.34999999999999964 0.00000000000000000 0.00000000000000000 1.00000000000000000 0.00000000000000000 0.00000000000000000 0.00000000000000000 1.00000000000000000 1.00000000000000000 0.00000000000000000 0.00000000000000000 6.50000000000000000
2 0.00000000000000000 6.34999999999999964 0.00000000000000000 0.00000000000000000 1.00000000000000000 0.00000000000000000 0.00000000000000000 0.00000000000000000 1.00000000000000000 1.00000000000000000 0.00000000000000000 0.00000000000000000 6.50000000000000000
2 0.00000000000000000 6.34999999999999964 0.00000000000000000 0.00000000000000000 1.00000000000000000 0.00000000000000000 0.00000000000000000 0.00000000000000000 1.00000000000000000 1.00000000000000000 0.00000000000000000 0.00000000000000000 6.50000000000000000
1 -0.00000000000000159 -1.00000000000000000 6.50000000000000000 0.00000000000000000 1.00000000000000000 0.00000000000000000 
2 0.00000000000000000 -41.22499999999996589 256.69077864095606856 0.00000000000000000 1.00000000000000000 0.00000000000000000 0.00000000000000000 0.00000000000000000 1.00000000000000000 1.00000000000000000 0.00000000000000000 0.00000000000000000 20.00000000000000000
2 0.00000000000000000 -41.22499999999996589 256.69077864095606856 0.00000000000000000 1.00000000000000000 0.00000000000000000 0.00000000000000000 0.00000000000000000 1.00000000000000000 1.00000000000000000 0.00000000000000000 0.00000000000000000 20.00000000000000000
2 0.00000000000000000 -41.22499999999996589 256.69077864095606856 0.00000000000000000 1.00000000000000000 0.00000000000000000 0.00000000000000000 0.00000000000000000 1.00000000000000000 1.00000000000000000 0.00000000000000000 0.00000000000000000 9.65000000000000036
2 0.00000000000000000 -41.22499999999996589 256.69077864095606856 0.00000000000000000 1.00000000000000000 0.00000000000000000 0.00000000000000000 0.00000000000000000 1.00000000000000000 1.00000000000000000 0.00000000000000000 0.00000000000000000 9.65000000000000036
2 0.00000000000000000 -41.22499999999996589 256.69077864095606856 0.00000000000000000 1.00000000000000000 0.00000000000000000 0.00000000000000000 0.00000000000000000 1.00000000000000000 1.00000000000000000 0.00000000000000000 0.00000000000000000 9.65000000000000036
2 0.00000000000000000 -34.87499999999996447 256.69077864095606856 0.00000000000000000 1.00000000000000000 0.00000000000000000 0.00000000000000000 0.00000000000000000 1.00000000000000000 1.00000000000000000 0.00000000000000000 0.00000000000000000 9.65000000000000036
2 0.00000000000000000 -34.87499999999996447 256.69077864095606856 0.00000000000000000 1.00000000000000000 0.00000000000000000 0.00000000000000000 0.00000000000000000 1.00000000000000000 1.00000000000000000 0.00000000000000000 0.00000000000000000 9.65000000000000036
2 0.00000000000000000 -34.87499999999996447 256.69077864095606856 0.00000000000000000 1.00000000000000000 0.00000000000000000 0.00000000000000000 0.00000000000000000 1.00000000000000000 1.00000000000000000 0.00000000000000000 0.00000000000000000 9.65000000000000036
1 -0.00000000000000236 -42.22499999999996589 266.34077864095604582 0.00000000000000000 1.00000000000000000 0.00000000000000000 
2 0.00000000000000000 -34.87499999999996447 256.69077864095606856 0.00000000000000000 1.00000000000000000 0.00000000000000000 0.00000000000000000 0.00000000000000000 1.00000000000000000 1.00000000000000000 0.00000000000000000 0.00000000000000000 20.00000000000000000
2 0.00000000000000000 -34.87499999999996447 256.69077864095606856 0.00000000000000000 1.00000000000000000 0.00000000000000000 0.00000000000000000 0.00000000000000000 1.00000000000000000 1.00000000000000000 0.00000000000000000 0.00000000000000000 20.00000000000000000
Polygon3D 0
PolygonOnTriangulations 0
Surfaces 16
2 0.00000000000000000 0.00000000000000000 0.00000000000000000 0.00000000000000000 1.00000000000000000 0.00000000000000000 0.00000000000000000 0.00000000000000000 1.00000000000000000 1.00000000000000000 0.00000000000000000 0.00000000000000000 18.00000000000000000
1 -14.00000000000000000 6.34999999999999964 30.00000000000000000 -1.00000000000000000 0.00000000000000000 0.00000000000000000 0.00000000000000000 -1.00000000000000000 0.00000000000000000 0.00000000000000000 0.00000000000000000 1.00000000000000000 
9 0 0 0 0 1 1 2 2 2 2 -14.00000000000000000 6.34999999999999964 30.00000000000000000  -14.00000000000000000 -34.87499999999996447 226.69077864095606856  
-14.00000000000000000 0.00000000000000000 30.00000000000000000  -14.00000000000000000 -41.22499999999996589 226.69077864095606856  

0.00000000000000000 2
6.35000000000000142 2

0.00000000000000000 2
1.00000000000000000 2

1 14.00000000000000000 0.00000000000000000 30.00000000000000000 1.00000000000000000 0.00000000000000000 0.00000000000000000 0.00000000000000000 1.00000000000000000 0.00000000000000000 0.00000000000000000 0.00000000000000000 1.00000000000000000 
9 0 0 0 0 1 1 2 2 2 2 14.00000000000000000 0.00000000000000000 30.00000000000000000  14.00000000000000000 -41.22499999999996589 226.69077864095606856  
14.00000000000000000 6.34999999999999964 30.00000000000000000  14.00000000000000000 -34.87499999999996447 226.69077864095606856  

0.00000000000000000 2
6.35000000000000142 2

0.00000000000000000 2
1.00000000000000000 2

1 -14.00000000000000000 -41.22499999999996589 226.69077864095606856 0.00000000000000000 -0.97873355169707399 -0.20513564971118728 1.00000000000000000 0.00000000000000000 0.00000000000000000 0.00000000000000000 -0.20513564971118728 0.97873355169707399 
1 14.00000000000000000 -34.87499999999996447 226.69077864095606856 0.00000000000000000 0.97873355169707399 0.20513564971118728 -1.00000000000000000 0.00000000000000000 0.00000000000000000 0.00000000000000000 -0.20513564971118728 0.97873355169707399 
1 -14.00000000000000000 -34.87499999999996447 256.69077864095606856 -1.00000000000000000 0.00000000000000000 0.00000000000000000 0.00000000000000000 -1.00000000000000000 0.00000000000000000 0.00000000000000000 0.00000000000000000 1.00000000000000000 
2 0.00000000000000000 -41.22499999999996589 256.69077864095606856 0.00000000000000000 1.00000000000000000 0.00000000000000000 0.00000000000000000 0.00000000000000000 1.00000000000000000 1.00000000000000000 0.00000000000000000 0.00000000000000000 20.00000000000000000
1 14.00000000000000000 -41.22499999999996589 256.69077864095606856 1.00000000000000000 0.00000000000000000 0.00000000000000000 0.00000000000000000 1.00000000000000000 0.00000000000000000 0.00000000000000000 0.00000000000000000 1.00000000000000000 
1 0.00000000000000082 0.00000000000000000 8.94435390203371838 -0.00000000000000000 -1.00000000000000000 -0.00000000000000000 0.00000000000000000 0.00000000000000000 -1.00000000000000000 1.00000000000000000 0.00000000000000000 0.00000000000000000 
2 0.00000000000000000 -1.00000000000000000 0.00000000000000000 0.00000000000000000 1.00000000000000000 0.00000000000000000 0.00000000000000000 0.00000000000000000 1.00000000000000000 1.00000000000000000 0.00000000000000000 0.00000000000000000 6.50000000000000000
1 0.00000000000000082 6.34999999999999964 8.94435390203371838 0.00000000000000000 1.00000000000000000 0.00000000000000000 0.00000000000000000 0.00000000000000000 1.00000000000000000 1.00000000000000000 0.00000000000000000 0.00000000000000000 
1 -0.00000000000000044 -41.22499999999996589 249.97135605496598032 -0.00000000000000000 -1.00000000000000000 -0.00000000000000000 0.00000000000000000 0.00000000000000000 -1.00000000000000000 1.00000000000000000 0.00000000000000000 0.00000000000000000 
2 0.00000000000000000 -42.22499999999996589 256.69077864095606856 0.00000000000000000 1.00000000000000000 0.00000000000000000 0.00000000000000000 0.00000000000000000 1.00000000000000000 1.00000000000000000 0.00000000000000000 0.00000000000000000 9.65000000000000036
1 0.00000000000000028 -34.87499999999995737 249.97135605496592348 0.00000000000000000 1.00000000000000000 0.00000000000000000 0.00000000000000000 0.00000000000000000 1.00000000000000000 1.00000000000000000 0.00000000000000000 0.00000000000000000 
Triangulations 0

TShapes 113
Ve
0.000000100000791
14.000000000000231 6.350000000000000 11.313708498984004
0 0

0101101
*
Ve
0.000000100000779
-14.000000000000224 6.350000000000000 11.313708498984015
0 0

0101101
*
Ed
 0.000000100000000 1 1 0
1  1 0 0.891122507886693 5.392062799292893
2  1 1 0 0.891122507886693 5.392062799292893
0

0101000
+113 3 -112 3 *
Ve
0.000000100000779
-14.000000000000224 0.000000000000000 11.313708498984015
0 0

0101101
*
Ed
 0.000000100000000 1 1 0
1  2 0 0.000000000000000 6.350000000000000
2  2 1 0 0.000000000000000 6.350000000000000
0

0101000
+110 3 -112 3 *
Ve
0.000000100000791
14.000000000000231 0.000000000000000 11.313708498984004
0 0

0101101
*
Ed
 0.000000100000000 1 1 0
1  3 0 0.891122507886693 5.392062799292893
2  3 1 0 0.891122507886693 5.392062799292893
0

0101000
+108 3 -110 3 *
Ed
 0.000000100000000 1 1 0
1  4 0 0.000000000000000 6.350000000000000
2  4 1 0 0.000000000000000 6.350000000000000
0

0101000
+108 3 -113 3 *
Wi

0101100
-111 0 +109 0 +107 0 -106 0 *
Fa
0  0.000000100000000 1 0

0101000
+105 0 *
Ve
0.000000100000000
-14.000000000000000 6.350000000000000 30.000000000000000
0 0

0101101
*
Ed
 0.000000100000000 1 1 0
1  5 0 0.377123616632801 1.000000000000000
0

0101000
+112 3 -103 3 *
Ve
0.000000100000000
-14.000000000000000 0.000000000000000 30.000000000000000
0 0

0101101
*
Ed
 0.000000100000000 1 1 0
1  6 0 0.000000000000000 6.350000000000000
2  5 3 0 0.000000000000000 6.350000000000000
0

0101000
+103 3 -101 3 *
Ed
 0.000000100000000 1 1 0
1  7 0 0.377123616632801 1.000000000000000
0

0101000
+110 3 -101 3 *
Wi

0101100
-102 0 -100 0 +99 0 -109 0 *
Fa
0  0.000000100000000 2 0

0101000
+98 0 *
Ve
0.000000100000000
14.000000000000000 0.000000000000000 30.000000000000000
0 0

0101101
*
Ed
 0.000000100000000 1 1 0
1  8 0 0.377123616632800 1.000000000000000
0

0101000
+108 3 -96 3 *
Ve
0.000000100000000
14.000000000000000 6.350000000000000 30.000000000000000
0 0

0101101
*
Ed
 0.000000100000000 1 1 0
1  9 0 0.000000000000000 6.350000000000000
2  6 5 0 0.000000000000000 6.350000000000000
0

0101000
+96 3 -94 3 *
Ed
 0.000000100000000 1 1 0
1  10 0 0.377123616632800 1.000000000000000
0

0101000
+113 3 -94 3 *
Wi

0101100
-95 0 -93 0 +92 0 +106 0 *
Fa
0  0.000000100000000 4 0

0101000
+91 0 *
Ve
0.000000100000000
-14.000000000000000 -41.224999999999966 226.690778640956069
0 0

0101101
*
Ed
 0.000000100000000 1 1 0
1  11 0 0.000000000000000 1.000000000000000
2  7 3 0 0.000000000000000 1.000000000000000
0

0101000
+101 3 -89 3 *
Ve
0.000000100000000
-14.000000000000000 -34.874999999999964 226.690778640956069
0 0

0101101
*
Ed
 0.000000100000000 1 1 0
1  12 0 0.000000000000000 6.350000000000001
2  8 3 0 0.000000000000000 6.350000000000001
0

0101000
+87 3 -89 3 *
Ed
 0.000000100000000 1 1 0
1  13 0 0.000000000000000 1.000000000000000
2  9 3 0 0.000000000000000 1.000000000000000
0

0101000
+103 3 -87 3 *
Wi

0101000
+100 0 +88 0 -86 0 -85 0 *
Fa
0  0.000000100000000 3 0

0101000
+84 0 *
Ed
 0.000000100000000 1 1 0
1  14 0 0.000000000000000 28.000000000000000
0

0101000
+101 3 -96 3 *
Ve
0.000000100000000
14.000000000000000 -41.224999999999966 226.690778640956069
0 0

0101101
*
Ed
 0.000000100000000 1 1 0
1  15 0 0.000000000000000 1.000000000000000
2  10 5 0 0.000000000000000 1.000000000000000
0

0101000
+96 3 -81 3 *
Ed
 0.000000100000000 1 1 0
1  16 0 0.000000000000000 28.000000000000000
0

0101000
+89 3 -81 3 *
Wi

0101000
+82 0 +80 0 -79 0 -88 0 *
Fa
0  0.000000100000000 6 0

0101000
+78 0 *
Ve
0.000000100000000
14.000000000000000 -34.874999999999964 226.690778640956069
0 0

0101101
*
Ed
 0.000000100000000 1 1 0
1  17 0 0.000000000000000 1.000000000000000
2  11 5 0 0.000000000000000 1.000000000000000
0

0101000
+94 3 -76 3 *
Ed
 0.000000100000000 1 1 0
1  18 0 0.000000000000000 6.350000000000001
2  12 5 0 0.000000000000000 6.350000000000001
0

0101000
+81 3 -76 3 *
Wi

0101000
+93 0 +75 0 -74 0 -80 0 *
Fa
0  0.000000100000000 5 0

0101000
+73 0 *
Ed
 0.000000100000000 1 1 0
1  19 0 0.000000000000000 28.000000000000000
0

0101000
+94 3 -103 3 *
Ed
 0.000000100000000 1 1 0
1  20 0 0.000000000000000 28.000000000000000
0

0101000
+76 3 -87 3 *
Wi

0101000
+71 0 +85 0 -70 0 -75 0 *
Fa
0  0.000000100000000 7 0

0101000
+69 0 *
Ve
0.000000100000866
-14.000000000000266 -34.874999999999964 242.407921783871188
0 0

0101101
*
Ed
 0.000000100000000 1 1 0
1  21 0 0.000000000000000 0.523904771430504
0

0101000
+87 3 -67 3 *
Ve
0.000000100000866
-14.000000000000266 -41.224999999999966 242.407921783871188
0 0

0101101
*
Ed
 0.000000100000000 1 1 0
1  22 0 0.000000000000000 6.350000000000001
2  13 9 0 0.000000000000000 6.350000000000001
0

0101000
+65 3 -67 3 *
Ed
 0.000000100000000 1 1 0
1  23 0 0.000000000000000 0.523904771430504
0

0101000
+89 3 -65 3 *
Wi

0101100
-66 0 +64 0 +63 0 +86 0 *
Fa
0  0.000000100000000 8 0

0101000
+62 0 *
Ve
0.000000100000867
14.000000000000270 -41.224999999999966 242.407921783871188
0 0

0101101
*
Ed
 0.000000100000000 1 1 0
1  24 0 0.000000000000000 0.523904771430504
0

0101000
+81 3 -60 3 *
Ve
0.000000100000867
14.000000000000270 -34.874999999999964 242.407921783871188
0 0

0101101
*
Ed
 0.000000100000000 1 1 0
1  25 0 0.000000000000000 6.350000000000001
2  14 9 0 0.000000000000000 6.350000000000001
0

0101000
+60 3 -58 3 *
Ed
 0.000000100000000 1 1 0
1  26 0 0.000000000000000 0.523904771430504
0

0101000
+76 3 -58 3 *
Wi

0101100
-59 0 -57 0 +56 0 +74 0 *
Fa
0  0.000000100000000 10 0

0101000
+55 0 *
Wi

0101100
-107 0 +95 0 -82 0 -99 0 *
Ve
0.000000100000002
-0.000000000000002 0.000000000000000 6.500000000000000
0 0

0101101
*
Ve
0.000000100000000
6.500000000000000 0.000000000000000 0.000000000000000
0 0

0101101
*
Ed
 0.000000100000000 1 1 0
1  27 0 0.000000000000000 1.570796326794897
2  15 12 0 0.000000000000000 1.570796326794897
0

0101000
+52 3 -51 3 *
Ve
0.000000100000005
-6.500000000000000 0.000000000000000 0.000000000000000
0 0

0101101
*
Ed
 0.000000100000000 1 1 0
1  28 0 1.570796326794897 4.712388980384690
2  16 12 0 1.570796326794897 4.712388980384690
0

0101000
+51 3 -49 3 *
Ed
 0.000000100000000 1 1 0
1  29 0 4.712388980384691 6.283185307179586
2  17 12 0 4.712388980384691 6.283185307179586
0

0101000
+49 3 -52 3 *
Wi

0101100
+50 0 +48 0 +47 0 *
Fa
0  0.000000100000000 11 0

0111000
+53 0 +46 0 *
Ve
0.000000100000002
-0.000000000000002 6.350000000000000 6.500000000000000
0 0

0101101
*
Ve
0.000000100000000
6.500000000000000 6.350000000000000 0.000000000000000
0 0

0101101
*
Ed
 0.000000100000000 1 1 0
1  30 0 0.000000000000000 1.570796326794897
2  18 12 0 0.000000000000000 1.570796326794897
0

0101000
+44 3 -43 3 *
Ve
0.000000100000005
-6.500000000000000 6.350000000000000 0.000000000000000
0 0

0101101
*
Ed
 0.000000100000000 1 1 0
1  31 0 1.570796326794897 4.712388980384690
2  19 12 0 1.570796326794897 4.712388980384690
0

0101000
+43 3 -41 3 *
Ed
 0.000000100000000 1 1 0
1  32 0 4.712388980384691 6.283185307179586
2  20 12 0 4.712388980384691 6.283185307179586
0

0101000
+41 3 -44 3 *
Ed
 0.000000100000000 1 1 0
1  33 0 1.000000000000000 7.350000000000000
3  21 22CN 12 0 1.000000000000000 7.350000000000000
0

0101000
+52 3 -44 3 *
Wi

0101100
-42 0 -40 0 -39 0 +38 0 +47 0 +48 0 +50 0 -38 0 *
Fa
0  0.000000100000000 12 0

0101000
+37 0 *
Wi

0101100
+111 0 +102 0 -71 0 -92 0 *
Wi

0101100
-39 0 -40 0 -42 0 *
Fa
0  0.000000100000000 13 0

0111000
+35 0 +34 0 *
Ve
0.000000100000000
-0.000000000000005 -41.224999999999966 276.690778640956069
0 0

0101101
*
Ed
 0.000000100000000 1 1 0
1  34 0 0.000000000000000 2.366195156979002
2  23 9 0 0.000000000000000 2.366195156979002
0

0101000
+32 3 -60 3 *
Ed
 0.000000100000000 1 1 0
1  35 0 3.916990150200585 6.283185307179586
2  24 9 0 3.916990150200585 6.283185307179586
0

0101000
+65 3 -32 3 *
Wi

0101100
-63 0 +79 0 +59 0 -31 0 -30 0 *
Ve
0.000000100000123
9.649999999999878 -41.224999999999966 256.690778640956069
0 0

0101101
*
Ve
0.000000100000123
-9.649999999999878 -41.224999999999966 256.690778640956069
0 0

0101101
*
Ed
 0.000000100000000 1 1 0
1  36 0 1.570796326794897 4.712388980384690
2  25 15 0 1.570796326794897 4.712388980384690
0

0101000
+28 3 -27 3 *
Ve
0.000000100000002
-0.000000000000002 -41.224999999999966 266.340778640956046
0 0

0101101
*
Ed
 0.000000100000000 1 1 0
1  37 0 4.712388980384690 6.283185307179586
2  26 15 0 4.712388980384690 6.283185307179586
0

0101000
+27 3 -25 3 *
Ed
 0.000000100000000 1 1 0
1  38 0 0.000000000000000 1.570796326794897
2  26 15 0 0.000000000000000 1.570796326794897
0

0101000
+25 3 -28 3 *
Wi

0101100
+26 0 +24 0 +23 0 *
Fa
0  0.000000100000000 14 0

0111000
+29 0 +22 0 *
Ve
0.000000100000002
-0.000000000000002 -34.874999999999964 266.340778640956046
0 0

0101101
*
Ve
0.000000100000123
9.649999999999878 -34.874999999999964 256.690778640956069
0 0

0101101
*
Ed
 0.000000100000000 1 1 0
1  39 0 0.000000000000000 1.570796326794897
2  27 15 0 0.000000000000000 1.570796326794897
0

0101000
+20 3 -19 3 *
Ve
0.000000100000123
-9.649999999999878 -34.874999999999964 256.690778640956069
0 0

0101101
*
Ed
 0.000000100000000 1 1 0
1  40 0 1.570796326794897 4.712388980384690
2  28 15 0 1.570796326794897 4.712388980384690
0

0101000
+19 3 -17 3 *
Ed
 0.000000100000000 1 1 0
1  41 0 4.712388980384690 6.283185307179586
2  27 15 0 4.712388980384690 6.283185307179586
0

0101000
+17 3 -20 3 *
Ed
 0.000000100000000 1 1 0
1  42 0 1.000000000000000 7.350000000000001
3  29 30CN 15 0 1.000000000000000 7.350000000000001
0

0101000
+25 3 -20 3 *
Wi

0101100
-18 0 -16 0 -15 0 +14 0 +24 0 +26 0 +23 0 -14 0 *
Fa
0  0.000000100000000 15 0

0101000
+13 0 *
Ve
0.000000100000000
-0.000000000000005 -34.874999999999964 276.690778640956069
0 0

0101101
*
Ed
 0.000000100000000 1 1 0
1  43 0 3.916990150200585 6.283185307179586
2  31 9 0 3.916990150200585 6.283185307179586
0

0101000
+67 3 -11 3 *
Ed
 0.000000100000000 1 1 0
1  44 0 0.000000000000000 2.366195156979002
2  32 9 0 0.000000000000000 2.366195156979002
0

0101000
+11 3 -58 3 *
Wi

0101100
-56 0 +70 0 +66 0 +10 0 +9 0 *
Wi

0101100
-16 0 -18 0 -15 0 *
Fa
0  0.000000100000000 16 0

0111000
+8 0 +7 0 *
Wi

0101100
+31 0 +57 0 -9 0 -10 0 -64 0 +30 0 *
Fa
0  0.000000100000000 9 0

0111000
+5 0 *
Sh

0101100
+104 0 +97 0 +90 0 +83 0 +77 0 +72 0 +68 0 +61 0 +54 0 +45 0 
-36 0 +33 0 +21 0 -12 0 +6 0 +4 0 *
So

0100000
+3 0 *
Co

1100000
+2 0 *

+1 1 