
CASCADE Topology V1, (c) Matra-Datavision
Locations 5
1
1.000000000000000 0.000000000000000 0.000000000000000 0.000000000000000 
0.000000000000000 1.000000000000000 0.000000000000000 0.000000000000000 
0.000000000000000 0.000000000000000 1.000000000000000 0.000000000000000 
1
1.000000000000000 0.000000000000000 0.000000000000000 0.000000000000000 
0.000000000000000 1.000000000000000 0.000000000000000 0.000000000000000 
0.000000000000000 0.000000000000000 1.000000000000000 0.000000000000000 
2  2 -1 0
1
1.000000000000000 0.000000000000000 0.000000000000000 0.000000000000000 
0.000000000000000 1.000000000000000 0.000000000000000 12.699999999999999 
0.000000000000000 0.000000000000000 1.000000000000000 0.000000000000000 
2  2 -1 4 -1 0
Curve2ds 92
7 0 0  4 5 2  3.00000000000000000 0.04319193484671656  2.87940359425418269 0.04319193484671656  2.75880718850836804 0.04319193484671656  2.63821078276255028 0.04319193484671656  2.51761437701673385 0.04319193484671656 
 0.00000000000000000 5 1.00000000000000000 5
7 0 0  4 5 2  3.16031502417353760 0.04319193484671656  3.12023626813015342 0.04319193484671656  3.08015751208676969 0.04319193484671641  3.04007875604338418 0.04319193484671668  3.00000000000000000 0.04319193484671668 
 0.00000000000000000 5 1.00000000000000000 5
7 0 0  6 7 2  2.00000000000000000 0.04319193484671656  1.96658958411829143 0.04319193484671656  1.94494211398355987 0.04319193484671656  1.91908153876470000 0.04319193484671656  1.88367998890430877 0.04319193484671656  1.84787731111823916 0.04319193484671656  1.83968497582646284 0.04319193484671656 
 0.00000000000000000 7 1.00000000000000000 7
7 0 0  4 5 2  2.48238562298326659 0.04319193484671656  2.36178921723744883 0.04319193484671656  2.24119281149163463 0.04319193484671641  2.12059640574581509 0.04319193484671668  2.00000000000000000 0.04319193484671668 
 0.00000000000000000 5 1.00000000000000000 5
7 0 0  5 6 2  2.50000000000000044 0.00000000000000000  2.49586895172681844 0.00880812563982601  2.49204751341514452 0.01752290709090397  2.48852922901743590 0.02615352903651169  2.48530963685664252 0.03470763060518968  2.48238562298326615 0.04319193484671640 
 0.00000000000000000 6 1.00000000000000000 6
7 0 0  5 6 2  2.50000000000000044 0.00000000000000000  2.50413104827318245 0.00880812563982596  2.50795248658485459 0.01752290709090391  2.51147077098256366 0.02615352903651181  2.51469036314335792 0.03470763060518956  2.51761437701673430 0.04319193484671641 
 0.00000000000000000 6 1.00000000000000000 6
1 2.00000000000000000 0.00000000000000000 0.00000000000000000 1.00000000000000000 
1 2.00000000000000000 0.00000000000000000 0.00000000000000000 1.00000000000000000 
7 0 0  4 5 2  3.00000000000000000 0.96429299775333233  2.75000000000000000 0.96429299775333233  2.49999999999999556 0.96429299775333333  2.25000000000000000 0.96429299775333244  2.00000000000000000 0.96429299775333244 
 0.00000000000000000 5 1.00000000000000000 5
7 0 0  4 5 2  1.59060473567075356 196.05846391858841571  1.59060473567075356 199.23346391858842708  1.59060473567073091 202.40846391858841002  1.59060473567075111 205.58346391858839297  1.59060473567075111 208.75846391858840434 
 0.00000000000000000 5 1.00000000000000000 5
7 0 0  6 7 2  2.37057183290924911 0.92803744340218430  2.30951330642832753 0.94067479834528389  2.24801381860099569 0.95305904646241213  2.18620759975749612 0.96518346276878431  2.12420997392091992 0.97704653340612257  2.06211602494819024 0.98865036302800913  2.00000000000000000 1.00000000000000000 
 0.00000000000000000 7 1.00000000000000000 7
7 0 0  4 5 2  3.00000000000000000 0.93009606168694514  2.84015174461105557 0.93009606168694514  2.68030348922210848 0.93009606168694514  2.52045523383316450 0.93009606168694514  2.36060697844421963 0.93009606168694514 
 0.00000000000000000 5 1.00000000000000000 5
7 0 0  4 5 2  1.80956962248093389 4.57970922624159726  1.80956962248093389 6.60978206968119331  1.80956962248093411 8.63985491312080534  1.80956962248093367 10.66992775656040138  1.80956962248093367 12.70000059999999920 
 0.00000000000000000 5 1.00000000000000000 5
1 3.00000000000000000 0.00000000000000000 0.00000000000000000 1.00000000000000000 
1 3.00000000000000000 0.00000000000000000 0.00000000000000000 1.00000000000000000 
1 0.00000000000000000 0.00000000000000000 1.00000000000000000 0.00000000000000000 
7 0 0  4 11 4  4.00000000000000000 0.00000000000000000  3.90678297876806546 0.00485068179405459  3.81439520929524312 0.00963911910904118  3.72280860963118299 0.01436934462246329  3.52723069693060154 0.02443870107341246  3.42349692076173673 0.02975965348741107  3.32076303555131513 0.03501253634751358  3.20429843124307068 0.04095102388762006  3.18961714133024010 0.04169931465324038  3.17495605145483895 0.04244627987356869  3.16031503192939445 0.04319193434267010 
 0.00000000000000000 5 0.43095725800860524 3 0.92816868486731563 3 1.00000000000000000 5
7 0 0  5 18 5  4.00000000000000000 0.94795868068600586  3.95076086988489195 0.94664932677771318  3.90109241607328538 0.94538300623158555  3.85104221000459734 0.94416193721634634  3.80066022855738428 0.94298824610530319  3.70043016293742166 0.94076384307894811  3.65059385586367657 0.93971102400913364  3.60054098257597222 0.93870737568372076  3.55032440774077296 0.93775465319348739  3.45010055587152564 0.93596190719926065  3.40009504767326343 0.93512099522163017  3.35003782654669635 0.93433332257665458  3.29998610680071147 0.93360030449403375  3.19974311049968074 0.93224241230381533  3.14955246173996972 0.93161814110902674  3.09948896169551125 0.93105164688431008  3.04961613656926334 0.93054399806393240  3.00000000000000000 0.93009606168694514 
 0.00000000000000000 6 0.25483286501625335 4 0.50418027093508311 4 0.75142111263952283 4 1.00000000000000000 6
7 0 0  5 18 5  2.33079158793340246 3.46188490893602108  2.30447562984155052 3.54512564707238464  2.27812410710475977 3.62539082188286832  2.25173742780467245 3.70257131479622092  2.22531614947385714 3.77656487852393274  2.17297601650508820 3.91646541426081152  2.14705854588279132 3.98251234152936195  2.12110990349792328 4.04532763856693034  2.09513133149826691 4.10482941865313045  2.04333708879586506 4.21658302187643663  2.01752187031140107 4.26889199624444071  1.99168020288132053 4.31779758109595946  1.96581382592020160 4.36323541318060926  1.91389548959506550 4.44729014503987941  1.88784325279962628 4.48586892856262764  1.86177002588000029 4.52082864867936074  1.83567801774037664 4.55212155815939745  1.80956962248093522 4.57970922624159016 
 0.00000000000000000 6 0.25483286501625335 4 0.50418027093508311 4 0.75142111263952283 4 1.00000000000000000 6
1 4.00000000000000000 0.00000000000000000 0.00000000000000000 1.00000000000000000 
1 0.00000000000000000 0.00000000000000000 0.00000000000000000 1.00000000000000000 
1 0.00000000000000000 0.00000000000000000 1.00000000000000000 0.00000000000000000 
7 0 0  4 11 4  1.00000000000000000 0.00000000000000000  1.09321702123193720 0.00485068179405472  1.18560479070475533 0.00963911910904108  1.27719139036881590 0.01436934462246325  1.47276930306939624 0.02443870107341235  1.57650307923826172 0.02975965348741111  1.67923696444868309 0.03501253634751346  1.79570156875692777 0.04095102388761995  1.81038285866976256 0.04169931465324055  1.82504394854515839 0.04244627987356853  1.83968496807060400 0.04319193434266999 
 0.00000000000000000 5 0.43095725800860968 3 0.92816868486731086 3 1.00000000000000000 5
1 0.00000000000000000 0.00000000000000000 1.00000000000000000 0.00000000000000000 
1 1.00000000000000000 0.00000000000000000 0.00000000000000000 1.00000000000000000 
1 1.00000000000000000 0.00000000000000000 0.00000000000000000 1.00000000000000000 
7 0 0  5 18 5  2.00000000000000000 0.93009606168694514  1.95018639443175057 0.93054578082160133  1.90011405255742938 0.93105568866771882  1.84984978009201306 0.93162490774763607  1.79945785462785102 0.93225235601964973  1.69901240595667913 0.93361475999554178  1.64896002270392228 0.93434866317161558  1.59890283633987695 0.93513720525661026  1.54889804006093512 0.93597896966972272  1.44867424361660957 0.93777343937074598  1.39845703524693943 0.93872703843931071  1.34840419308702986 0.93973154892030553  1.29856856793301723 0.94078521433780204  1.19854420258951211 0.94300678471100352  1.14836503682844637 0.94417640109760503  1.09851542397514979 0.94539300537472193  1.04904474206652498 0.94665449589322226  1.00000000000000000 0.94795868068600575 
 0.00000000000000000 6 0.24956821491212619 4 0.49681073920748486 4 0.74617317358953561 4 1.00000000000000000 6
7 0 0  5 18 5  1.80956962248093522 8.12029077375841268  1.83578192745672131 8.14798823896664715  1.86197771474957108 8.17942049807619576  1.88815456147119920 8.21454865845292659  1.91431023296284186 8.25332436328297447  1.96633160805307550 8.33766042247582817  1.99219777302635603 8.38315431275060874  2.01803920630393741 8.43211526102363962  2.04385417037753392 8.48447883700659311  2.09564925606381625 8.59634345430377422  2.12162892208991849 8.65590199499099811  2.14757863888436651 8.71877349869724938  2.17349716640537638 8.78487600442744210  2.22573337409929861 8.92460387828306523  2.25204993752882876 8.99834291877676407  2.27833216997226717 9.07524297330874674  2.30457952094864593 9.15520297377470627  2.33079158793340246 9.23811509106396755 
 0.00000000000000000 6 0.24956821491212619 4 0.49681073920748486 4 0.74617317358953561 4 1.00000000000000000 6
1 2.00000000000000000 0.00000000000000000 0.00000000000000000 1.00000000000000000 
1 2.00000000000000000 0.00000000000000000 0.00000000000000000 1.00000000000000000 
7 0 0  4 5 2  2.63939302155578037 0.93009606168694514  2.47954476616683550 0.93009606168694514  2.31969651077788841 0.93009606168694514  2.15984825538894665 0.93009606168694514  2.00000000000000000 0.93009606168694514 
 0.00000000000000000 5 1.00000000000000000 5
7 0 0  4 5 2  1.80956962248093389 -0.00000060000000000  1.80956962248093389 2.03007224343959702  1.80956962248093389 4.06014508687923303  1.80956962248093389 6.09021793031878467  1.80956962248093389 8.12029077375840558 
 0.00000000000000000 5 1.00000000000000000 5
7 0 0  6 7 2  3.00000000000000000 1.00000000000000000  2.93788397505153531 0.98865036302795894  2.87579002607916534 0.97704653340613445  2.81379240024255450 0.96518346276879807  2.75198618139888662 0.95305904646238926  2.69048669357133852 0.94067479834521472  2.62942816709075045 0.92803744340218419 
 0.00000000000000000 7 1.00000000000000000 7
7 0 0  4 5 2  3.00000000000000000 0.96429299775333233  2.74999999999999734 0.96429299775333233  2.50000000000000799 0.96429299775333333  2.24999999999999689 0.96429299775333244  2.00000000000000000 0.96429299775333244 
 0.00000000000000000 5 1.00000000000000000 5
7 0 0  4 5 2  1.59060473567075356 91.24153608141158145  1.59060473567075356 94.41653608141162124  1.59060473567073091 97.59153608141153313  1.59060473567075111 100.76653608141162977  1.59060473567075111 103.94153608141159850 
 0.00000000000000000 5 1.00000000000000000 5
1 3.00000000000000000 0.00000000000000000 0.00000000000000000 1.00000000000000000 
1 3.00000000000000000 0.00000000000000000 0.00000000000000000 1.00000000000000000 
1 0.00000000000000000 0.00000000000000000 1.00000000000000000 0.00000000000000000 
1 1.00000000000000000 0.00000000000000000 0.00000000000000000 1.00000000000000000 
1 1.00000000000000000 0.00000000000000000 0.00000000000000000 1.00000000000000000 
7 0 0  6 17 4  2.00000000000000000 0.96429299775333233  1.93995385532734765 0.96434080386407939  1.87747168513568052 0.96458353103855454  1.81309934983165699 0.96502052650823034  1.74737781283180293 0.96564725640966265  1.68083532008801462 0.96645639255271476  1.57728731831435387 0.96797626144367532  1.54048320235067249 0.96856703073211836  1.50367266596106686 0.96920800758833836  1.46693700481182820 0.96989728820170029  1.43035434118155025 0.97063278616961535  1.32464597789473126 0.97289928301232320  1.25612002564351144 0.97454641778958739  1.18894875066287664 0.97633803951596432  1.12359532956212060 0.97825696155060060  1.06048218096779512 0.98028525936618327  1.00000000000000000 0.98240436157116162 
 0.00000000000000000 7 0.38502664967135147 5 0.59652250128874185 5 1.00000000000000000 7
7 0 0  6 17 4  1.59060473567075356 208.75846391858840434  1.65792244673078026 208.75533681239369344  1.72522152159202347 208.73945916124213795  1.79243897338694214 208.71086895609496992  1.85954357978979390 208.66982563499485082  1.92650703019843372 208.61674087531599753  2.02996534732964751 208.51678115112096634  2.06659315110103670 208.47788751420503672  2.10316286994189561 208.43563795728462651  2.13967137798776141 208.39014188862793731  2.17611646657392699 208.34151995387810530  2.28189823201245900 208.19143184584089568  2.35106489944119001 208.08205614113842330  2.41997851838265676 207.96268814870006736  2.48864940505999988 207.83434226325411487  2.55709350492093312 207.69809883946018658  2.62532732218663067 207.55511030744116852 
 0.00000000000000000 7 0.38502664967135147 5 0.59652250128874185 5 1.00000000000000000 7
1 0.00000000000000000 0.00000000000000000 1.00000000000000000 0.00000000000000000 
1 0.00000000000000000 206.34999999999999432 1.00000000000000000 0.00000000000000000 
7 0 0  4 5 2  2.62532732218662934 207.55511030744116852  2.62532732218662934 204.38011030744118557  2.62532732218662934 201.20511030744114578  2.62532732218662934 198.03011030744113441  2.62532732218662934 194.85511030744115146 
 0.00000000000000000 5 1.00000000000000000 5
7 0 0  4 5 2  1.00000000000000000 0.98240436157116151  0.75000000000000167 0.98240436157116151  0.49999999999999956 0.98240436157116151  0.24999999999999928 0.98240436157116151  0.00000000000000000 0.98240436157116151 
 0.00000000000000000 5 1.00000000000000000 5
1 0.00000000000000000 206.34999999999999432 1.00000000000000000 0.00000000000000000 
1 6.28318530717958623 -0.00000000000000000 0.00000000000000000 1.00000000000000000 
1 0.00000000000000000 -0.00000000000000000 0.00000000000000000 1.00000000000000000 
1 0.00000000000000000 193.65000000000000568 1.00000000000000000 0.00000000000000000 
7 0 0  6 7 2  1.00000000000000000 1.00000000000000000  0.93788397505152976 0.98865036302795795  0.87579002607917711 0.97704653340613579  0.81379240024253774 0.96518346276879718  0.75198618139889750 0.95305904646239015  0.69048669357133541 0.94067479834521406  0.62942816709075067 0.92803744340218430 
 0.00000000000000000 7 1.00000000000000000 7
1 0.00000000000000000 12.69999999999999929 1.00000000000000000 0.00000000000000000 
1 0.00000000000000000 12.69999999999999929 1.00000000000000000 0.00000000000000000 
1 6.28318530717958623 -0.00000000000000000 0.00000000000000000 1.00000000000000000 
1 0.00000000000000000 -0.00000000000000000 0.00000000000000000 1.00000000000000000 
1 0.00000000000000000 0.00000000000000000 1.00000000000000000 0.00000000000000000 
7 0 0  4 5 2  2.33079158793340024 12.70000059999999920  2.33079158793340024 10.39047167723399667  2.33079158793340113 8.08094275446802435  2.33079158793340069 5.77141383170202360  2.33079158793340069 3.46188490893603529 
 0.00000000000000000 5 1.00000000000000000 5
7 0 0  4 5 2  0.72741068433574507 0.94795868068600564  0.54555801325180775 0.94795868068600564  0.36370534216787265 0.94795868068600564  0.18185267108393613 0.94795868068600564  0.00000000000000000 0.94795868068600564 
 0.00000000000000000 5 1.00000000000000000 5
1 0.00000000000000000 0.00000000000000000 1.00000000000000000 0.00000000000000000 
1 0.00000000000000000 0.00000000000000000 0.00000000000000000 1.00000000000000000 
1 4.00000000000000000 0.00000000000000000 0.00000000000000000 1.00000000000000000 
7 0 0  4 5 2  1.00000000000000000 0.98240436157116151  0.75000000000000167 0.98240436157116151  0.49999999999999956 0.98240436157116151  0.24999999999999928 0.98240436157116151  0.00000000000000000 0.98240436157116151 
 0.00000000000000000 5 1.00000000000000000 5
7 0 0  4 5 2  2.62532732218662934 105.14488969255884854  2.62532732218662934 101.96988969255886559  2.62532732218662934 98.79488969255884001  2.62532732218662934 95.61988969255881443  2.62532732218662934 92.44488969255883148 
 0.00000000000000000 5 1.00000000000000000 5
7 0 0  6 7 2  0.37057183290924878 0.92803744340218430  0.30951330642832359 0.94067479834528456  0.24801381860097987 0.95305904646241457  0.18620759975753753 0.96518346276877687  0.12420997392088289 0.97704653340612890  0.06211602494819916 0.98865036302800746  0.00000000000000000 1.00000000000000000 
 0.00000000000000000 7 1.00000000000000000 7
7 0 0  4 5 2  1.00000000000000000 0.94795868068600564  0.81814732891606479 0.94795868068600564  0.63629465783212402 0.94795868068600564  0.45444198674819264 0.94795868068600564  0.27258931566425454 0.94795868068600564 
 0.00000000000000000 5 1.00000000000000000 5
7 0 0  4 5 2  2.33079158793340069 9.23811509106396755  2.33079158793340069 6.92858616829798812  2.33079158793340024 4.61905724553194830  2.33079158793340113 2.30952832276601372  2.33079158793340113 -0.00000060000000000 
 0.00000000000000000 5 1.00000000000000000 5
1 0.00000000000000000 0.00000000000000000 1.00000000000000000 0.00000000000000000 
1 6.28318530717958623 -0.00000000000000000 0.00000000000000000 1.00000000000000000 
1 0.00000000000000000 -0.00000000000000000 0.00000000000000000 1.00000000000000000 
1 0.00000000000000000 0.00000000000000000 1.00000000000000000 0.00000000000000000 
1 0.00000000000000000 0.00000000000000000 1.00000000000000000 0.00000000000000000 
1 0.00000000000000000 12.69999999999999929 1.00000000000000000 0.00000000000000000 
1 0.00000000000000000 93.65000000000000568 1.00000000000000000 0.00000000000000000 
1 0.00000000000000000 93.65000000000000568 1.00000000000000000 0.00000000000000000 
1 0.00000000000000000 106.34999999999999432 1.00000000000000000 0.00000000000000000 
1 6.28318530717958623 -0.00000000000000000 0.00000000000000000 1.00000000000000000 
1 0.00000000000000000 -0.00000000000000000 0.00000000000000000 1.00000000000000000 
7 0 0  6 17 4  2.62532732218663067 92.44488969255884570  2.55709349233253569 92.30190113416000486  2.48864937980166445 92.16565768646647427  2.41997848036827357 92.03731178025145709  2.35106484857775389 91.91794377075935074  2.28189816820217750 91.80856805325348091  2.17611636958418408 91.65847991394336702  2.13967126077287340 91.60985795951445709  2.10316273243661600 91.56436187486836786  2.06659299324501022 91.52211230583127133  2.02996516906931523 91.48321866082689269  1.92650686416387118 91.38325899306440192  1.85954344667773741 91.33017428358638767  1.79243887337791286 91.28913100136605863  1.72522145483828426 91.26054082301062920  1.65792241334970059 91.24466318605566073  1.59060473567075111 91.24153608141159566 
 0.00000000000000000 7 0.40347757314486277 5 0.61497354125638948 5 1.00000000000000000 7
7 0 0  6 17 4  4.00000000000000000 0.98240436157116162  3.93951780787390016 0.98028525897523189  3.87640464714694177 0.97825696080207680  3.81105121315927065 0.97633803845370570  3.74387992477886922 0.97454641646724027  3.67535395888613792 0.97289928149274330  3.56964556160935365 0.97063278417136811  3.53306287740504610 0.96989728590306656  3.49632719566407246 0.96920800504446891  3.45951663879944649 0.96856702800135486  3.42271250261822457 0.96797625858709091  3.31916451492146702 0.96645639054652299  3.25262205679917971 0.96564725516640204  3.18690055439242448 0.96502052585803033  3.12252825288864244 0.96458353079782122  3.06004611489735279 0.96434080384037368  3.00000000000000000 0.96429299775333244 
 0.00000000000000000 7 0.40347757314486277 5 0.61497354125638948 5 1.00000000000000000 7
1 0.00000000000000000 0.00000000000000000 1.00000000000000000 0.00000000000000000 
1 -0.84106867056793089 0.00000000000000000 0.00000000000000000 1.00000000000000000 
1 3.98266132415772356 0.00000000000000000 0.00000000000000000 1.00000000000000000 
1 -6.28318530717958623 12.69999999999999929 1.00000000000000000 0.00000000000000000 
1 0.00000000000000000 12.69999999999999929 1.00000000000000000 0.00000000000000000 
1 0.00000000000000000 156.34999999999999432 1.00000000000000000 0.00000000000000000 
1 0.00000000000000000 156.34999999999999432 1.00000000000000000 0.00000000000000000 
1 6.28318530717958623 -0.00000000000000000 0.00000000000000000 1.00000000000000000 
1 0.00000000000000000 -0.00000000000000000 0.00000000000000000 1.00000000000000000 
1 0.00000000000000000 143.65000000000000568 1.00000000000000000 0.00000000000000000 
1 0.00000000000000000 143.65000000000000568 1.00000000000000000 0.00000000000000000 
1 0.00000000000000000 0.00000000000000000 1.00000000000000000 0.00000000000000000 
1 -6.28318530717958623 0.00000000000000000 1.00000000000000000 0.00000000000000000 
Curves 105
1 -146.34999999999999432 -75.00000000000000000 -96.34999999999999432 0.00000000000000000 0.00000000000000000 1.00000000000000000 
1 -146.34999999999999432 -75.00000000000000000 -83.64999999999999147 0.00000000000000000 1.00000000000000000 0.00000000000000000 
1 -146.34999999999999432 75.00000000000000000 -96.34999999999999432 0.00000000000000000 0.00000000000000000 1.00000000000000000 
7 0 0  4 5 2  -146.34999999999999432 68.87370258811250778 -94.31399919299603596  -146.34999999999999432 70.40527694108439505 -94.31399919299603596  -146.34999999999999432 71.93685129405625389 -94.31399919299603596  -146.34999999999999432 73.46842564702814116 -94.31399919299603596  -146.34999999999999432 75.00000000000000000 -94.31399919299603596 
 0.00000000000000000 5 1.00000000000000000 5
7 0 0  4 5 2  -146.34999999999999432 68.87370258811250778 -96.34999999999999432  -146.34999999999999432 68.87370258811250778 -95.84099979824901538  -146.34999999999999432 68.87370258811250778 -95.33199959649803645  -146.34999999999999432 68.87370258811250778 -94.82299939474705752  -146.34999999999999432 68.87370258811250778 -94.31399919299607859 
 0.00000000000000000 5 1.00000000000000000 5
1 -146.34999999999999432 -75.00000000000000000 -96.34999999999999432 0.00000000000000000 1.00000000000000000 0.00000000000000000 
7 0 0  6 7 2  -146.34999999999999432 -68.87370258811252199 -94.31399919299606438  -146.34999999999999432 -68.87370258811252199 -94.73831147469375935  -146.34999999999999432 -68.87370258811252199 -95.01323434540485380  -146.34999999999999432 -68.87370258811252199 -95.34166365068440996  -146.34999999999999432 -68.87370258811252199 -95.79126333391131709  -146.34999999999999432 -68.87370258811252199 -96.24595734179443696  -146.34999999999999432 -68.87370258811252199 -96.34999999999999432 
 0.00000000000000000 7 1.00000000000000000 7
7 0 0  4 5 2  -146.34999999999999432 -75.00000000000000000 -94.31399919299603596  -146.34999999999999432 -73.46842564702811273 -94.31399919299603596  -146.34999999999999432 -71.93685129405628231 -94.31399919299599333  -146.34999999999999432 -70.40527694108436663 -94.31399919299606438  -146.34999999999999432 -68.87370258811252199 -94.31399919299606438 
 0.00000000000000000 5 1.00000000000000000 5
7 0 0  5 6 2  -140.00000000000002842 -75.00000000000000000 -83.64999999999997726  -141.24130892801625237 -75.00000000000000000 -85.79970891195173976  -142.49712273654341743 -75.00000000000000000 -87.94104260976847343  -143.76724894487253437 -75.00000000000000000 -90.07394002439959024  -145.05156516390465526 -75.00000000000000000 -92.19830132053097316  -146.34999999999999432 -75.00000000000000000 -94.31399919299597912 
 0.00000000000000000 6 1.00000000000000000 6
1 -146.34999999999999432 -75.00000000000000000 -83.64999999999999147 1.00000000000000000 0.00000000000000000 0.00000000000000000 
1 -146.34999999999999432 75.00000000000000000 -83.64999999999999147 1.00000000000000000 0.00000000000000000 0.00000000000000000 
1 -146.34999999999999432 75.00000000000000000 -83.64999999999999147 1.00000000000000000 0.00000000000000000 0.00000000000000000 
1 -133.65000000000000568 -75.00000000000000000 -83.64999999999999147 0.00000000000000000 1.00000000000000000 0.00000000000000000 
1 -146.34999999999999432 -75.00000000000000000 -83.64999999999999147 1.00000000000000000 0.00000000000000000 0.00000000000000000 
1 -135.67500000000001137 6.34999999999999698 -83.64999999999999147 -1.00000000000000000 0.00000000000000000 0.00000000000000000 
1 -133.65000000000000568 -75.00000000000000000 -83.64999999999999147 0.00000000000000000 1.00000000000000000 0.00000000000000000 
1 -140.00000000000000000 -40.67499999999999716 -83.64999999999999147 0.00000000000000000 1.00000000000000000 0.00000000000000000 
1 -135.67500000000001137 -6.34999999999999698 -83.64999999999999147 -1.00000000000000000 0.00000000000000000 0.00000000000000000 
7 0 0  1 2 2  -140.00000000000000000 -68.65000000000000568 -83.65000000000000568  -140.00000000000000000 -81.34999999999999432 -83.65000000000000568 
 2.00000000000000000 2 3.00000000000000000 2
7 0 0  1 2 2  -140.00000000000000000 81.34999999999999432 -83.65000000000000568  -140.00000000000000000 68.65000000000000568 -83.65000000000000568 
 2.00000000000000000 2 3.00000000000000000 2
7 0 0  5 6 2  -140.00000000000002842 75.00000000000000000 -83.64999999999997726  -141.24130892801625237 75.00000000000000000 -85.79970891195173976  -142.49712273654341743 75.00000000000000000 -87.94104260976847343  -143.76724894487253437 75.00000000000000000 -90.07394002439963288  -145.05156516390462684 75.00000000000000000 -92.19830132053094474  -146.34999999999999432 75.00000000000000000 -94.31399919299597912 
 0.00000000000000000 6 1.00000000000000000 6
7 1 0  3 4 2  -140.00000000000000000 81.34999999999999432 -83.65000000000000568  1.00000000000000000 -186.97590152452082179 83.33545128346015929 -165.00324887706881327  0.99999999999999944 -281.48782779321516045 79.51883258876711125 -271.11565242421016819  1.00000000000000000 -386.53038412734986196 56.35000000000000142 -203.65000000000000568  1.00000000000000000
 0.00000000000000000 4 1.00000000000000000 4
7 0 0  4 5 2  -375.32008379690398669 46.05846391858841571 -210.22208726034594406  -375.32008379690398669 49.23346391858841997 -210.22208726034594406  -375.32008379690432776 52.40846391858841002 -210.22208726034568826  -375.32008379690404354 55.58346391858840008 -210.22208726034591564  -375.32008379690404354 58.75846391858840434 -210.22208726034591564 
 0.00000000000000000 5 1.00000000000000000 5
7 0 0  6 7 2  -364.03038412734986196 56.34999999999999432 -215.59223708846329259  -367.94803863364955987 56.34999999999999432 -213.94266335598140927  -371.80239945246967181 56.34999999999999432 -212.14294909781540355  -375.58943511929470560 56.34999999999999432 -210.20340915577432384  -379.30687838293152936 56.34999999999999432 -208.13472497670395001  -382.95379948434288053 56.34999999999999432 -205.94713198927988174  -386.53038412734986196 56.34999999999999432 -203.64999999999997726 
 0.00000000000000000 7 1.00000000000000000 7
7 0 0  4 5 2  -364.66873534480237140 48.22970922624159584 -215.32149532636637446  -364.66873534480237140 50.25978206968119366 -215.32149532636637446  -364.66873534480237140 52.28985491312079859 -215.32149532636637446  -364.66873534480237140 54.31992775656040351 -215.32149532636637446  -364.66873534480237140 56.35000060000000133 -215.32149532636637446 
 0.00000000000000000 5 1.00000000000000000 5
7 1 0  3 4 2  -140.00000000000000000 68.65000000000000568 -83.65000000000000568  1.00000000000000000 -186.97590152452082179 70.63545128346014224 -165.00324887706881327  0.99999999999999944 -281.48782779321516045 66.81883258876715104 -271.11565242421016819  1.00000000000000000 -386.53038412734986196 43.64999999999999858 -203.65000000000000568  1.00000000000000000
 0.00000000000000000 4 1.00000000000000000 4
7 0 0  1 2 2  -140.00000000000000000 81.34999999999999432 -83.65000000000000568  -140.00000000000000000 68.65000000000000568 -83.65000000000000568 
 2.00000000000000000 2 3.00000000000000000 2
7 0 0  4 11 4  -140.00000000000002842 68.65000000000000568 -96.34999999999999432  -140.68359545085291984 68.67889237718100048 -96.34999999999999432  -141.36736624048546673 68.70632189505383280 -96.34999999999999432  -142.05129965066552700 68.73235070696176763 -96.34999999999999432  -143.52464061553087049 68.78550301354903240 -96.34999999999999432  -144.31409857242550743 68.81217974635146106 -96.34999999999999432  -145.10374349860492771 68.83713834057542158 -96.34999999999999432  -146.00766665790087018 68.86380897072189100 -96.34999999999999432  -146.12177418298188059 68.86714112078982453 -96.34999999999999432  -146.23588531128413592 68.87043893085891000 -96.34999999999999432  -146.34999999999999432 68.87370258811250778 -96.34999999999999432 
 0.00000000000000000 5 0.43095725800860524 3 0.92816868486731563 3 1.00000000000000000 5
7 0 0  5 18 5  -370.22150043003819064 47.11188490893601966 -225.50065522962046316  -369.81358583661926787 47.19512564707238056 -225.07147132971712722  -369.41923797189446077 47.27539082188286557 -224.62828907459766015  -369.03912786715619632 47.35257131479622217 -224.17166183890975617  -368.67389674463424853 47.42656487852393354 -223.70219546491605911  -367.98193122940995181 47.56646541426080432 -222.74927873464554295  -367.65453627603852738 47.63251234152936320 -222.26634594199290973  -367.34253310120175229 47.69532763856692270 -221.77237603275997913  -367.04644861427794922 47.75482941865313080 -221.26803734754511765  -366.48945097624755363 47.86658302187644409 -220.24439583698432443  -366.22826056357433799 47.91889199624444018 -219.72525438376806051  -365.98367062677573358 47.96779758109595093 -219.19731938091945267  -365.75610443901325652 48.01323541318060961 -218.66132874129567654  -365.33462827166783882 48.09729014503987088 -217.57185105724835239  -365.14090600396576747 48.13586892856262267 -217.01828357204448139  -364.96514736416986580 48.17082864867936109 -216.45814845375221580  -364.80767104815441826 48.20212155815939781 -215.89226789380427363  -364.66873534480237140 48.22970922624158874 -215.32149532636640288 
 0.00000000000000000 6 0.25483286501625335 4 0.50418027093508311 4 0.75142111263952283 4 1.00000000000000000 6
7 1 0  3 4 2  -140.00000000000000000 68.65000000000000568 -96.34999999999999432  1.00000000000000000 -186.97590152452082179 70.63545128346014224 -177.70324887706897243  0.99999999999999944 -281.48782779321516045 66.81883258876715104 -283.81565242420992945  1.00000000000000000 -386.53038412734986196 43.64999999999999858 -216.34999999999999432  1.00000000000000000
 0.00000000000000000 4 1.00000000000000000 4
1 -135.67500000000001137 6.34999999999999698 -96.34999999999999432 -1.00000000000000000 0.00000000000000000 0.00000000000000000 
1 -140.00000000000000000 -40.67499999999999716 -96.34999999999999432 0.00000000000000000 1.00000000000000000 0.00000000000000000 
1 -135.67500000000001137 -6.34999999999999698 -96.34999999999999432 -1.00000000000000000 0.00000000000000000 0.00000000000000000 
1 -133.65000000000000568 -75.00000000000000000 -96.34999999999999432 0.00000000000000000 1.00000000000000000 0.00000000000000000 
1 -146.34999999999999432 -75.00000000000000000 -96.34999999999999432 1.00000000000000000 0.00000000000000000 0.00000000000000000 
7 0 0  1 2 2  -140.00000000000000000 -81.34999999999999432 -96.34999999999999432  -140.00000000000000000 -68.65000000000000568 -96.34999999999999432 
 0.00000000000000000 2 1.00000000000000000 2
7 0 0  4 11 4  -140.00000000000002842 -68.65000000000000568 -96.34999999999999432  -140.68359545085291984 -68.67889237718100048 -96.34999999999999432  -141.36736624048546673 -68.70632189505383280 -96.34999999999999432  -142.05129965066552700 -68.73235070696176763 -96.34999999999999432  -143.52464061553084207 -68.78550301354903240 -96.34999999999999432  -144.31409857242550743 -68.81217974635148948 -96.34999999999999432  -145.10374349860489929 -68.83713834057540737 -96.34999999999999432  -146.00766665790084176 -68.86380897072187679 -96.34999999999999432  -146.12177418298185216 -68.86714112078982453 -96.34999999999999432  -146.23588531128410750 -68.87043893085892421 -96.34999999999999432  -146.34999999999999432 -68.87370258811252199 -96.34999999999999432 
 0.00000000000000000 5 0.43095725800860968 3 0.92816868486731086 3 1.00000000000000000 5
7 0 0  1 2 2  -140.00000000000000000 68.65000000000000568 -96.34999999999999432  -140.00000000000000000 81.34999999999999432 -96.34999999999999432 
 0.00000000000000000 2 1.00000000000000000 2
1 -146.34999999999999432 75.00000000000000000 -96.34999999999999432 1.00000000000000000 0.00000000000000000 0.00000000000000000 
1 -133.65000000000000568 -75.00000000000000000 -96.34999999999999432 0.00000000000000000 1.00000000000000000 0.00000000000000000 
7 1 0  3 4 2  -140.00000000000000000 -68.65000000000000568 -96.34999999999999432  1.00000000000000000 -186.97590152452082179 -70.63545128346014224 -177.70324887706897243  0.99999999999999944 -281.48782779321516045 -66.81883258876715104 -283.81565242420992945  1.00000000000000000 -386.53038412734986196 -43.64999999999999858 -216.34999999999999432  1.00000000000000000
 0.00000000000000000 4 1.00000000000000000 4
7 0 0  5 18 5  -364.66873534480237140 -48.22970922624158874 -215.32149532636640288  -364.80822400322432486 -48.20201176103335428 -215.89453953152806776  -364.96640115423821271 -48.17057950192380389 -216.46265272052514206  -365.14300540009537599 -48.13545134154706773 -217.02497121181266948  -365.33771398450988954 -48.09667563671702339 -217.58066308707498138  -365.76059200702718499 -48.01233957752417325 -218.67208409103059807  -365.98843381290458865 -47.96684568724939624 -219.20795243738152180  -366.23329469898430943 -47.91788473897635470 -219.73575600649374451  -366.49475098249814664 -47.86552116299340298 -220.25475718873380515  -367.05228664736796418 -47.75365654569623075 -221.27812735693086665  -367.34864495113117755 -47.69409800500899621 -221.78233379051789598  -367.66091769430028080 -47.63122650130274849 -222.27616199359022175  -367.98857754256169983 -47.56512399557256288 -222.75894388399856894  -368.67966563104073430 -47.42539612171693619 -223.70960777560156885  -369.04363037763664579 -47.35165708122323736 -224.17706928771994512  -369.42235183120720876 -47.27475702669125468 -224.63178808547229437  -369.81519621685174570 -47.19479702622529516 -225.07316567769993298  -370.22150043003819064 -47.11188490893603387 -225.50065522962046316 
 0.00000000000000000 6 0.24956821491212619 4 0.49681073920748486 4 0.74617317358953561 4 1.00000000000000000 6
7 1 0  3 4 2  -140.00000000000000000 -68.65000000000000568 -83.65000000000000568  1.00000000000000000 -186.97590152452082179 -70.63545128346014224 -165.00324887706881327  0.99999999999999944 -281.48782779321516045 -66.81883258876715104 -271.11565242421016819  1.00000000000000000 -386.53038412734986196 -43.64999999999999858 -203.65000000000000568  1.00000000000000000
 0.00000000000000000 4 1.00000000000000000 4
7 0 0  4 5 2  -364.66873534480237140 -56.35000060000000133 -215.32149532636637446  -364.66873534480237140 -54.31992775656040351 -215.32149532636637446  -364.66873534480237140 -52.28985491312077016 -215.32149532636637446  -364.66873534480237140 -50.25978206968121498 -215.32149532636637446  -364.66873534480237140 -48.22970922624159584 -215.32149532636637446 
 0.00000000000000000 5 1.00000000000000000 5
7 0 0  6 7 2  -386.53038412734986196 -56.35000000000000142 -203.64999999999997726  -382.95379948432707806 -56.35000000000000142 -205.94713198929002829  -379.30687838293488312 -56.35000000000000142 -208.13472497670099415  -375.58943511929982151 -56.35000000000000142 -210.20340915577136798  -371.80239945246194111 -56.35000000000000142 -212.14294909782105947  -367.94803863362812990 -56.35000000000000142 -213.94266335599041895  -364.03038412734986196 -56.35000000000000142 -215.59223708846329259 
 0.00000000000000000 7 1.00000000000000000 7
7 0 0  4 5 2  -375.32008379690398669 -58.75846391858841855 -210.22208726034594406  -375.32008379690398669 -55.58346391858838587 -210.22208726034594406  -375.32008379690432776 -52.40846391858847397 -210.22208726034568826  -375.32008379690404354 -49.23346391858836313 -210.22208726034591564  -375.32008379690404354 -46.05846391858840150 -210.22208726034591564 
 0.00000000000000000 5 1.00000000000000000 5
7 1 0  3 4 2  -140.00000000000000000 -81.34999999999999432 -83.65000000000000568  1.00000000000000000 -186.97590152452082179 -83.33545128346015929 -165.00324887706881327  0.99999999999999944 -281.48782779321516045 -79.51883258876711125 -271.11565242421016819  1.00000000000000000 -386.53038412734986196 -56.35000000000000142 -203.65000000000000568  1.00000000000000000
 0.00000000000000000 4 1.00000000000000000 4
7 0 0  1 2 2  -140.00000000000000000 -68.65000000000000568 -83.65000000000000568  -140.00000000000000000 -81.34999999999999432 -83.65000000000000568 
 2.00000000000000000 2 3.00000000000000000 2
1 -133.65000000000000568 75.00000000000000000 -96.34999999999999432 0.00000000000000000 0.00000000000000000 1.00000000000000000 
1 -140.00000000000000000 75.00000000000000000 -96.34999999999999432 0.00000000000000000 0.00000000000000000 1.00000000000000000 
1 -133.65000000000000568 6.34999999999999698 -93.17499999999999716 0.00000000000000000 0.00000000000000000 1.00000000000000000 
1 -133.65000000000000568 -75.00000000000000000 -96.34999999999999432 0.00000000000000000 0.00000000000000000 1.00000000000000000 
1 -140.00000000000000000 -75.00000000000000000 -96.34999999999999432 0.00000000000000000 0.00000000000000000 1.00000000000000000 
1 -133.65000000000000568 -6.34999999999999698 -93.17499999999999716 0.00000000000000000 0.00000000000000000 1.00000000000000000 
1 -140.00000000000000000 -6.34999999999999964 -102.00000000000000000 0.00000000000000000 0.00000000000000000 1.00000000000000000 
1 -140.00000000000000000 -6.34999999999999964 -78.00000000000000000 0.00000000000000000 1.00000000000000000 0.00000000000000000 
1 -140.00000000000000000 -6.34999999999999964 -102.00000000000000000 0.00000000000000000 0.00000000000000000 1.00000000000000000 
7 1 0  3 4 2  -140.00000000000000000 81.34999999999999432 -96.34999999999999432  1.00000000000000000 -186.97590152452082179 83.33545128346015929 -177.70324887706897243  0.99999999999999944 -281.48782779321516045 79.51883258876711125 -283.81565242420992945  1.00000000000000000 -386.53038412734986196 56.35000000000000142 -216.34999999999999432  1.00000000000000000
 0.00000000000000000 4 1.00000000000000000 4
7 0 0  6 17 4  -375.32008379690398669 58.75846391858841855 -210.22208726034594406  -375.33503420292606734 58.75533681239370765 -210.97673901888700243  -375.41094247709315823 58.73945916124211664 -211.72997488154112489  -375.54760742709152055 58.71086895609500544 -212.47492919885328888  -375.74363453017758729 58.66982563499480818 -213.20515660208334907  -375.99677441830289126 58.61674087531602595 -213.91456720172368478  -376.47242122916389917 58.51678115112093082 -214.97259428811983639  -376.65732850746644544 58.47788751420503672 -215.33974923711662086  -376.85798170442132005 58.43563795728462651 -215.69801898580783472  -377.07379467149252150 58.39014188862794441 -216.04655312539310330  -377.30412448937437375 58.34151995387812661 -216.38456542568178520  -378.01406078778279607 58.19143184584089568 -217.33470835229053364  -378.53017840052598331 58.08205614113843751 -217.91717915778841075  -379.09181142657769215 57.96268814870000341 -218.45367387592011710  -379.69364874535676790 57.83434226325418592 -218.94018429550038718  -380.33013528310647189 57.69809883946017237 -219.37349482258443345  -380.99549425412374148 57.55511030744115430 -219.75116148677989258 
 0.00000000000000000 7 0.38502664967135147 5 0.59652250128874185 5 1.00000000000000000 7
7 0 0  1 2 2  -140.00000000000000000 81.34999999999999432 -96.34999999999999432  -140.00000000000000000 81.34999999999999432 -83.65000000000000568 
 1.00000000000000000 2 2.00000000000000000 2
2 -386.53038412734986196 56.34999999999999432 -210.00000000000000000 0.00000000000000000 1.00000000000000000 0.00000000000000000 0.00000000000000000 0.00000000000000000 1.00000000000000000 1.00000000000000000 0.00000000000000000 0.00000000000000000 11.21250000000000036
7 0 0  4 5 2  -380.99549425412374148 57.55511030744116141 -219.75116148677986416  -380.99549425412374148 54.38011030744118557 -219.75116148677986416  -380.99549425412374148 51.20511030744115999 -219.75116148677986416  -380.99549425412374148 48.03011030744114862 -219.75116148677986416  -380.99549425412374148 44.85511030744115857 -219.75116148677986416 
 0.00000000000000000 5 1.00000000000000000 5
2 -386.53038412734986196 56.34999999999999432 -210.00000000000000000 0.00000000000000000 1.00000000000000000 0.00000000000000000 0.00000000000000000 0.00000000000000000 1.00000000000000000 1.00000000000000000 0.00000000000000000 0.00000000000000000 11.21250000000000036
1 -386.53038412734986196 -150.00000000000000000 -198.78749999999999432 0.00000000000000000 1.00000000000000000 0.00000000000000000 
2 -386.53038412734986196 43.65000000000000568 -210.00000000000000000 0.00000000000000000 1.00000000000000000 0.00000000000000000 0.00000000000000000 0.00000000000000000 1.00000000000000000 1.00000000000000000 0.00000000000000000 0.00000000000000000 11.21250000000000036
7 0 0  6 7 2  -386.53038412734986196 56.34999999999999432 -216.34999999999996589  -382.95379948432673700 56.34999999999999432 -218.64713198929021587  -379.30687838293550840 56.34999999999999432 -220.83472497670032908  -375.58943511929913939 56.34999999999999432 -222.90340915577212400  -371.80239945246245270 56.34999999999999432 -224.84294909782053651  -367.94803863362790253 56.34999999999999432 -226.64266335599046442  -364.03038412734986196 56.34999999999999432 -228.29223708846322438 
 0.00000000000000000 7 1.00000000000000000 7
2 -386.53038412734986196 56.34999999999999432 -210.00000000000000000 0.00000000000000000 1.00000000000000000 0.00000000000000000 0.00000000000000000 0.00000000000000000 1.00000000000000000 1.00000000000000000 0.00000000000000000 0.00000000000000000 22.50000000000000000
2 -386.53038412734986196 56.34999999999999432 -210.00000000000000000 0.00000000000000000 1.00000000000000000 0.00000000000000000 0.00000000000000000 0.00000000000000000 1.00000000000000000 1.00000000000000000 0.00000000000000000 0.00000000000000000 22.50000000000000000
1 -386.53038412734986196 43.64999999999999858 -187.50000000000000000 0.00000000000000000 1.00000000000000000 0.00000000000000000 
2 -386.53038412734986196 43.64999999999999858 -210.00000000000000000 0.00000000000000000 1.00000000000000000 0.00000000000000000 0.00000000000000000 0.00000000000000000 1.00000000000000000 1.00000000000000000 0.00000000000000000 0.00000000000000000 22.50000000000000000
7 0 0  4 5 2  -370.22150043003813380 56.35000060000000133 -225.50065522962046316  -370.22150043003813380 54.04047167723399525 -225.50065522962046316  -370.22150043003813380 51.73094275446801760 -225.50065522962046316  -370.22150043003813380 49.42141383170202573 -225.50065522962046316  -370.22150043003813380 47.11188490893603387 -225.50065522962046316 
 0.00000000000000000 5 1.00000000000000000 5
7 0 0  1 2 2  -140.00000000000000000 68.65000000000000568 -96.34999999999999432  -140.00000000000000000 81.34999999999999432 -96.34999999999999432 
 0.00000000000000000 2 1.00000000000000000 2
1 -140.00000000000000000 -6.34999999999999964 -102.00000000000000000 0.00000000000000000 0.00000000000000000 1.00000000000000000 
1 -140.00000000000000000 -6.34999999999999964 -102.00000000000000000 0.00000000000000000 0.00000000000000000 1.00000000000000000 
1 -140.00000000000000000 -6.34999999999999964 -102.00000000000000000 0.00000000000000000 1.00000000000000000 0.00000000000000000 
7 1 0  3 4 2  -140.00000000000000000 -81.34999999999999432 -96.34999999999999432  1.00000000000000000 -186.97590152452082179 -83.33545128346015929 -177.70324887706897243  0.99999999999999944 -281.48782779321516045 -79.51883258876711125 -283.81565242420992945  1.00000000000000000 -386.53038412734986196 -56.35000000000000142 -216.34999999999999432  1.00000000000000000
 0.00000000000000000 4 1.00000000000000000 4
7 0 0  4 5 2  -380.99549425412374148 -44.85511030744115857 -219.75116148677986416  -380.99549425412374148 -48.03011030744113441 -219.75116148677986416  -380.99549425412374148 -51.20511030744115999 -219.75116148677986416  -380.99549425412374148 -54.38011030744117136 -219.75116148677986416  -380.99549425412374148 -57.55511030744116141 -219.75116148677986416 
 0.00000000000000000 5 1.00000000000000000 5
7 0 0  6 7 2  -364.03038412734986196 -56.35000000000000142 -228.29223708846322438  -367.94803863364978724 -56.35000000000000142 -226.64266335598122737  -371.80239945246955813 -56.35000000000000142 -224.84294909781507954  -375.58943511929390979 -56.35000000000000142 -222.90340915577536407  -379.30687838293266623 -56.35000000000000142 -220.83472497670283019  -382.95379948434236894 -56.35000000000000142 -218.64713198928018301  -386.53038412734986196 -56.35000000000000142 -216.34999999999996589 
 0.00000000000000000 7 1.00000000000000000 7
7 0 0  4 5 2  -370.22150043003813380 -47.11188490893603387 -225.50065522962046316  -370.22150043003813380 -49.42141383170201152 -225.50065522962046316  -370.22150043003813380 -51.73094275446805312 -225.50065522962046316  -370.22150043003813380 -54.04047167723398815 -225.50065522962046316  -370.22150043003813380 -56.35000060000000133 -225.50065522962046316 
 0.00000000000000000 5 1.00000000000000000 5
7 0 0  1 2 2  -140.00000000000000000 -81.34999999999999432 -96.34999999999999432  -140.00000000000000000 -68.65000000000000568 -96.34999999999999432 
 0.00000000000000000 2 1.00000000000000000 2
1 -386.53038412734986196 -56.35000000000000142 -187.50000000000000000 0.00000000000000000 1.00000000000000000 0.00000000000000000 
2 -386.53038412734986196 -56.35000000000000142 -210.00000000000000000 0.00000000000000000 1.00000000000000000 0.00000000000000000 0.00000000000000000 0.00000000000000000 1.00000000000000000 1.00000000000000000 0.00000000000000000 0.00000000000000000 22.50000000000000000
2 -386.53038412734986196 -56.35000000000000142 -210.00000000000000000 0.00000000000000000 1.00000000000000000 0.00000000000000000 0.00000000000000000 0.00000000000000000 1.00000000000000000 1.00000000000000000 0.00000000000000000 0.00000000000000000 22.50000000000000000
2 -386.53038412734986196 -43.65000000000000568 -210.00000000000000000 0.00000000000000000 1.00000000000000000 0.00000000000000000 0.00000000000000000 0.00000000000000000 1.00000000000000000 1.00000000000000000 0.00000000000000000 0.00000000000000000 22.50000000000000000
2 -386.53038412734986196 -56.34999999999999432 -210.00000000000000000 0.00000000000000000 1.00000000000000000 0.00000000000000000 0.00000000000000000 0.00000000000000000 1.00000000000000000 1.00000000000000000 0.00000000000000000 0.00000000000000000 11.21250000000000036
2 -386.53038412734986196 -56.34999999999999432 -210.00000000000000000 0.00000000000000000 1.00000000000000000 0.00000000000000000 0.00000000000000000 0.00000000000000000 1.00000000000000000 1.00000000000000000 0.00000000000000000 0.00000000000000000 11.21250000000000036
2 -386.53038412734986196 -43.65000000000000568 -210.00000000000000000 0.00000000000000000 1.00000000000000000 0.00000000000000000 0.00000000000000000 0.00000000000000000 1.00000000000000000 1.00000000000000000 0.00000000000000000 0.00000000000000000 11.21250000000000036
1 -386.53038412734986196 -150.00000000000000000 -198.78749999999999432 0.00000000000000000 1.00000000000000000 0.00000000000000000 
7 0 0  6 17 4  -380.99549425412374148 -57.55511030744115430 -219.75116148677989258  -380.33013516035498469 -57.69809886584000225 -219.37349475290903911  -379.69364851046759668 -57.83434231353353994 -218.94018413559595615  -379.09181109341807314 -57.96268821974850027 -218.45367360660102918  -378.53017798600018295 -58.08205622924067768 -217.91717876181164115  -378.01406031163350008 -58.19143194674650488 -217.33470781492837887  -377.30412386355129684 -58.34152008605661877 -216.38456453575000182  -377.07379395170937642 -58.39014204048555001 -216.04655202428946836  -376.85798090797669602 -58.43563812513161793 -215.69801766342834526  -376.65732765264073123 -58.47788769416871446 -215.33974768476244321  -376.47242033507785663 -58.51678133917310021 -214.97259249863205355  -375.99677379066173444 -58.61674100693560518 -213.91456544274970497  -375.74363414131317995 -58.66982571641361943 -213.20515515357021741  -375.54760722374976467 -58.71086899863394137 -212.47492809048088702  -375.41094240180831321 -58.73945917698937080 -211.72997413440711512  -375.33503419551260549 -58.75533681394434637 -210.97673864467509475  -375.32008379690404354 -58.75846391858840434 -210.22208726034591564 
 0.00000000000000000 7 0.40347757314486277 5 0.61497354125638948 5 1.00000000000000000 7
7 0 0  1 2 2  -140.00000000000000000 -81.34999999999999432 -83.65000000000000568  -140.00000000000000000 -81.34999999999999432 -96.34999999999999432 
 3.00000000000000000 2 4.00000000000000000 2
1 -140.00000000000000000 -6.34999999999999964 -78.00000000000000000 1.00000000000000000 0.00000000000000000 0.00000000000000000 
1 -123.41640786499874594 -6.34999999999999964 -78.00000000000000000 0.00000000000000000 1.00000000000000000 0.00000000000000000 
1 -140.00000000000000000 -6.34999999999999964 -78.00000000000000000 1.00000000000000000 0.00000000000000000 0.00000000000000000 
1 -110.00000000000000000 -6.34999999999999964 -102.00000000000000000 -1.00000000000000000 0.00000000000000000 0.00000000000000000 
1 -110.00000000000000000 -6.34999999999999964 -102.00000000000000000 -1.00000000000000000 0.00000000000000000 0.00000000000000000 
1 -123.41640786499874594 -6.34999999999999964 -102.00000000000000000 0.00000000000000000 1.00000000000000000 0.00000000000000000 
2 -110.00000000000000000 6.34999999999999964 -90.00000000000000000 0.00000000000000000 1.00000000000000000 0.00000000000000000 0.00000000000000000 0.00000000000000000 1.00000000000000000 1.00000000000000000 0.00000000000000000 0.00000000000000000 18.00000000000000000
2 -110.00000000000000000 6.34999999999999964 -90.00000000000000000 0.00000000000000000 1.00000000000000000 0.00000000000000000 0.00000000000000000 0.00000000000000000 1.00000000000000000 1.00000000000000000 0.00000000000000000 0.00000000000000000 18.00000000000000000
2 -110.00000000000000000 6.34999999999999432 -90.00000000000000000 0.00000000000000000 1.00000000000000000 0.00000000000000000 0.00000000000000000 0.00000000000000000 1.00000000000000000 1.00000000000000000 0.00000000000000000 0.00000000000000000 9.62500000000000000
2 -110.00000000000000000 6.34999999999999432 -90.00000000000000000 0.00000000000000000 1.00000000000000000 0.00000000000000000 0.00000000000000000 0.00000000000000000 1.00000000000000000 1.00000000000000000 0.00000000000000000 0.00000000000000000 9.62500000000000000
1 -110.00000000000001421 -150.00000000000000000 -80.37500000000000000 0.00000000000000000 1.00000000000000000 0.00000000000000000 
2 -110.00000000000000000 -6.34999999999999432 -90.00000000000000000 0.00000000000000000 1.00000000000000000 0.00000000000000000 0.00000000000000000 0.00000000000000000 1.00000000000000000 1.00000000000000000 0.00000000000000000 0.00000000000000000 9.62500000000000000
2 -110.00000000000000000 -6.34999999999999432 -90.00000000000000000 0.00000000000000000 1.00000000000000000 0.00000000000000000 0.00000000000000000 0.00000000000000000 1.00000000000000000 1.00000000000000000 0.00000000000000000 0.00000000000000000 9.62500000000000000
2 -110.00000000000000000 -6.34999999999999964 -90.00000000000000000 0.00000000000000000 1.00000000000000000 0.00000000000000000 0.00000000000000000 0.00000000000000000 1.00000000000000000 1.00000000000000000 0.00000000000000000 0.00000000000000000 18.00000000000000000
2 -110.00000000000000000 -6.34999999999999964 -90.00000000000000000 0.00000000000000000 1.00000000000000000 0.00000000000000000 0.00000000000000000 0.00000000000000000 1.00000000000000000 1.00000000000000000 0.00000000000000000 0.00000000000000000 18.00000000000000000
Polygon3D 0
PolygonOnTriangulations 0
Surfaces 35
1 -146.34999999999999432 -75.00000000000000000 -96.34999999999999432 1.00000000000000000 0.00000000000000000 0.00000000000000000 0.00000000000000000 0.00000000000000000 1.00000000000000000 0.00000000000000000 -1.00000000000000000 0.00000000000000000 
9 1 0 0 0 1 3 2 4 2 2 -140.00000000000000000 81.34999999999999432 -83.65000000000000568  1.00000000000000000 -186.97590152452082179 83.33545128346015929 -165.00324887706881327  0.99999999999999944 -281.48782779321516045 79.51883258876711125 -271.11565242421016819  1.00000000000000000 -386.53038412734986196 56.35000000000000142 -203.65000000000000568  1.00000000000000000 
-140.00000000000000000 68.65000000000000568 -83.65000000000000568  1.00000000000000000 -186.97590152452082179 70.63545128346014224 -165.00324887706881327  0.99999999999999944 -281.48782779321516045 66.81883258876715104 -271.11565242421016819  1.00000000000000000 -386.53038412734986196 43.64999999999999858 -203.65000000000000568  1.00000000000000000 

2.00000000000000000 2
3.00000000000000000 2

0.00000000000000000 4
1.00000000000000000 4

9 1 0 0 0 1 3 2 4 2 2 -140.00000000000000000 68.65000000000000568 -83.65000000000000568  1.00000000000000000 -186.97590152452082179 70.63545128346014224 -165.00324887706881327  0.99999999999999944 -281.48782779321516045 66.81883258876715104 -271.11565242421016819  1.00000000000000000 -386.53038412734986196 43.64999999999999858 -203.65000000000000568  1.00000000000000000 
-140.00000000000000000 68.65000000000000568 -96.34999999999999432  1.00000000000000000 -186.97590152452082179 70.63545128346014224 -177.70324887706897243  0.99999999999999944 -281.48782779321516045 66.81883258876715104 -283.81565242420992945  1.00000000000000000 -386.53038412734986196 43.64999999999999858 -216.34999999999999432  1.00000000000000000 

3.00000000000000000 2
4.00000000000000000 2

0.00000000000000000 4
1.00000000000000000 4

9 1 0 0 0 1 3 2 4 2 2 -140.00000000000000000 -68.65000000000000568 -96.34999999999999432  1.00000000000000000 -186.97590152452082179 -70.63545128346014224 -177.70324887706897243  0.99999999999999944 -281.48782779321516045 -66.81883258876715104 -283.81565242420992945  1.00000000000000000 -386.53038412734986196 -43.64999999999999858 -216.34999999999999432  1.00000000000000000 
-140.00000000000000000 -68.65000000000000568 -83.65000000000000568  1.00000000000000000 -186.97590152452082179 -70.63545128346014224 -165.00324887706881327  0.99999999999999944 -281.48782779321516045 -66.81883258876715104 -271.11565242421016819  1.00000000000000000 -386.53038412734986196 -43.64999999999999858 -203.65000000000000568  1.00000000000000000 

1.00000000000000000 2
2.00000000000000000 2

0.00000000000000000 4
1.00000000000000000 4

9 1 0 0 0 1 3 2 4 2 2 -140.00000000000000000 -68.65000000000000568 -83.65000000000000568  1.00000000000000000 -186.97590152452082179 -70.63545128346014224 -165.00324887706881327  0.99999999999999944 -281.48782779321516045 -66.81883258876715104 -271.11565242421016819  1.00000000000000000 -386.53038412734986196 -43.64999999999999858 -203.65000000000000568  1.00000000000000000 
-140.00000000000000000 -81.34999999999999432 -83.65000000000000568  1.00000000000000000 -186.97590152452082179 -83.33545128346015929 -165.00324887706881327  0.99999999999999944 -281.48782779321516045 -79.51883258876711125 -271.11565242421016819  1.00000000000000000 -386.53038412734986196 -56.35000000000000142 -203.65000000000000568  1.00000000000000000 

2.00000000000000000 2
3.00000000000000000 2

0.00000000000000000 4
1.00000000000000000 4

1 -146.34999999999999432 -75.00000000000000000 -96.34999999999999432 0.00000000000000000 1.00000000000000000 0.00000000000000000 0.00000000000000000 0.00000000000000000 1.00000000000000000 1.00000000000000000 0.00000000000000000 0.00000000000000000 
1 -146.34999999999999432 -75.00000000000000000 -83.64999999999999147 0.00000000000000000 0.00000000000000000 1.00000000000000000 1.00000000000000000 0.00000000000000000 0.00000000000000000 0.00000000000000000 1.00000000000000000 0.00000000000000000 
1 -146.34999999999999432 75.00000000000000000 -96.34999999999999432 0.00000000000000000 1.00000000000000000 0.00000000000000000 0.00000000000000000 0.00000000000000000 1.00000000000000000 1.00000000000000000 0.00000000000000000 0.00000000000000000 
9 1 0 0 0 1 3 2 4 2 2 -140.00000000000000000 81.34999999999999432 -96.34999999999999432  1.00000000000000000 -186.97590152452082179 83.33545128346015929 -177.70324887706897243  0.99999999999999944 -281.48782779321516045 79.51883258876711125 -283.81565242420992945  1.00000000000000000 -386.53038412734986196 56.35000000000000142 -216.34999999999999432  1.00000000000000000 
-140.00000000000000000 81.34999999999999432 -83.65000000000000568  1.00000000000000000 -186.97590152452082179 83.33545128346015929 -165.00324887706881327  0.99999999999999944 -281.48782779321516045 79.51883258876711125 -271.11565242421016819  1.00000000000000000 -386.53038412734986196 56.35000000000000142 -203.65000000000000568  1.00000000000000000 

1.00000000000000000 2
2.00000000000000000 2

0.00000000000000000 4
1.00000000000000000 4

2 -386.53038412734986196 -150.00000000000000000 -210.00000000000000000 0.00000000000000000 1.00000000000000000 0.00000000000000000 0.00000000000000000 0.00000000000000000 1.00000000000000000 1.00000000000000000 0.00000000000000000 0.00000000000000000 11.21250000000000036
2 -386.53038412734986196 43.64999999999999858 -210.00000000000000000 0.00000000000000000 1.00000000000000000 0.00000000000000000 0.00000000000000000 0.00000000000000000 1.00000000000000000 1.00000000000000000 0.00000000000000000 0.00000000000000000 22.50000000000000000
9 1 0 0 0 1 3 2 4 2 2 -140.00000000000000000 68.65000000000000568 -96.34999999999999432  1.00000000000000000 -186.97590152452082179 70.63545128346014224 -177.70324887706897243  0.99999999999999944 -281.48782779321516045 66.81883258876715104 -283.81565242420992945  1.00000000000000000 -386.53038412734986196 43.64999999999999858 -216.34999999999999432  1.00000000000000000 
-140.00000000000000000 81.34999999999999432 -96.34999999999999432  1.00000000000000000 -186.97590152452082179 83.33545128346015929 -177.70324887706897243  0.99999999999999944 -281.48782779321516045 79.51883258876711125 -283.81565242420992945  1.00000000000000000 -386.53038412734986196 56.35000000000000142 -216.34999999999999432  1.00000000000000000 

0.00000000000000000 2
1.00000000000000000 2

0.00000000000000000 4
1.00000000000000000 4

1 -146.34999999999999432 -75.00000000000000000 -96.34999999999999432 0.00000000000000000 0.00000000000000000 1.00000000000000000 1.00000000000000000 0.00000000000000000 0.00000000000000000 0.00000000000000000 1.00000000000000000 0.00000000000000000 
9 1 0 0 0 1 3 2 4 2 2 -140.00000000000000000 -81.34999999999999432 -96.34999999999999432  1.00000000000000000 -186.97590152452082179 -83.33545128346015929 -177.70324887706897243  0.99999999999999944 -281.48782779321516045 -79.51883258876711125 -283.81565242420992945  1.00000000000000000 -386.53038412734986196 -56.35000000000000142 -216.34999999999999432  1.00000000000000000 
-140.00000000000000000 -68.65000000000000568 -96.34999999999999432  1.00000000000000000 -186.97590152452082179 -70.63545128346014224 -177.70324887706897243  0.99999999999999944 -281.48782779321516045 -66.81883258876715104 -283.81565242420992945  1.00000000000000000 -386.53038412734986196 -43.64999999999999858 -216.34999999999999432  1.00000000000000000 

0.00000000000000000 2
1.00000000000000000 2

0.00000000000000000 4
1.00000000000000000 4

2 -386.53038412734986196 -56.35000000000000142 -210.00000000000000000 0.00000000000000000 1.00000000000000000 0.00000000000000000 0.00000000000000000 0.00000000000000000 1.00000000000000000 1.00000000000000000 0.00000000000000000 0.00000000000000000 22.50000000000000000
2 -386.53038412734986196 -150.00000000000000000 -210.00000000000000000 0.00000000000000000 1.00000000000000000 0.00000000000000000 0.00000000000000000 0.00000000000000000 1.00000000000000000 1.00000000000000000 0.00000000000000000 0.00000000000000000 11.21250000000000036
9 1 0 0 0 1 3 2 4 2 2 -140.00000000000000000 -81.34999999999999432 -83.65000000000000568  1.00000000000000000 -186.97590152452082179 -83.33545128346015929 -165.00324887706881327  0.99999999999999944 -281.48782779321516045 -79.51883258876711125 -271.11565242421016819  1.00000000000000000 -386.53038412734986196 -56.35000000000000142 -203.65000000000000568  1.00000000000000000 
-140.00000000000000000 -81.34999999999999432 -96.34999999999999432  1.00000000000000000 -186.97590152452082179 -83.33545128346015929 -177.70324887706897243  0.99999999999999944 -281.48782779321516045 -79.51883258876711125 -283.81565242420992945  1.00000000000000000 -386.53038412734986196 -56.35000000000000142 -216.34999999999999432  1.00000000000000000 

3.00000000000000000 2
4.00000000000000000 2

0.00000000000000000 4
1.00000000000000000 4

1 -146.34999999999999432 75.00000000000000000 -96.34999999999999432 0.00000000000000000 1.00000000000000000 0.00000000000000000 0.00000000000000000 0.00000000000000000 1.00000000000000000 1.00000000000000000 0.00000000000000000 0.00000000000000000 
1 -133.65000000000000568 -75.00000000000000000 -96.34999999999999432 1.00000000000000000 0.00000000000000000 0.00000000000000000 0.00000000000000000 0.00000000000000000 1.00000000000000000 0.00000000000000000 -1.00000000000000000 0.00000000000000000 
1 -146.34999999999999432 -75.00000000000000000 -96.34999999999999432 0.00000000000000000 1.00000000000000000 0.00000000000000000 0.00000000000000000 0.00000000000000000 1.00000000000000000 1.00000000000000000 0.00000000000000000 0.00000000000000000 
1 -133.65000000000000568 -75.00000000000000000 -96.34999999999999432 1.00000000000000000 0.00000000000000000 0.00000000000000000 0.00000000000000000 0.00000000000000000 1.00000000000000000 0.00000000000000000 -1.00000000000000000 0.00000000000000000 
1 -140.00000000000000000 -6.34999999999999964 -102.00000000000000000 1.00000000000000000 0.00000000000000000 0.00000000000000000 0.00000000000000000 0.00000000000000000 1.00000000000000000 0.00000000000000000 -1.00000000000000000 0.00000000000000000 
1 -386.53038412734986196 56.34999999999999432 -210.00000000000000000 0.00000000000000000 1.00000000000000000 0.00000000000000000 0.00000000000000000 0.00000000000000000 1.00000000000000000 1.00000000000000000 0.00000000000000000 0.00000000000000000 
1 -140.00000000000000000 68.65000000000000568 -96.34999999999999432 -1.00000000000000000 0.00000000000000000 0.00000000000000000 0.00000000000000000 0.70710678118654757 0.70710678118654757 0.00000000000000000 0.70710678118654757 -0.70710678118654757 
1 -140.00000000000000000 -6.34999999999999964 -102.00000000000000000 1.00000000000000000 0.00000000000000000 0.00000000000000000 0.00000000000000000 0.00000000000000000 1.00000000000000000 0.00000000000000000 -1.00000000000000000 0.00000000000000000 
1 -386.53038412734986196 -56.35000000000000142 -210.00000000000000000 0.00000000000000000 1.00000000000000000 0.00000000000000000 0.00000000000000000 0.00000000000000000 1.00000000000000000 1.00000000000000000 0.00000000000000000 0.00000000000000000 
1 -140.00000000000000000 -81.34999999999999432 -96.34999999999999432 -1.00000000000000000 0.00000000000000000 0.00000000000000000 0.00000000000000000 0.70710678118654757 0.70710678118654757 0.00000000000000000 0.70710678118654757 -0.70710678118654757 
1 -140.00000000000000000 -6.34999999999999964 -78.00000000000000000 0.00000000000000000 0.00000000000000000 -1.00000000000000000 1.00000000000000000 0.00000000000000000 0.00000000000000000 0.00000000000000000 -1.00000000000000000 0.00000000000000000 
2 -110.00000000000000000 -6.34999999999999964 -90.00000000000000000 0.00000000000000000 1.00000000000000000 0.00000000000000000 0.00000000000000000 0.00000000000000000 1.00000000000000000 1.00000000000000000 0.00000000000000000 0.00000000000000000 18.00000000000000000
1 -110.00000000000000000 -6.34999999999999964 -102.00000000000000000 0.00000000000000000 0.00000000000000000 1.00000000000000000 -1.00000000000000000 0.00000000000000000 0.00000000000000000 0.00000000000000000 -1.00000000000000000 0.00000000000000000 
1 -386.53038412734986196 43.64999999999999858 -210.00000000000000000 0.00000000000000000 1.00000000000000000 0.00000000000000000 0.00000000000000000 0.00000000000000000 1.00000000000000000 1.00000000000000000 0.00000000000000000 0.00000000000000000 
1 -386.53038412734986196 -43.65000000000000568 -210.00000000000000000 0.00000000000000000 1.00000000000000000 0.00000000000000000 0.00000000000000000 0.00000000000000000 1.00000000000000000 1.00000000000000000 0.00000000000000000 0.00000000000000000 
1 -119.11995987906766459 6.35000000000000142 -89.67716693596338473 0.00000000000000000 1.00000000000000000 0.00000000000000000 0.00000000000000000 0.00000000000000000 1.00000000000000000 1.00000000000000000 0.00000000000000000 0.00000000000000000 
2 -110.00000000000000000 -150.00000000000000000 -90.00000000000000000 0.00000000000000000 1.00000000000000000 0.00000000000000000 0.00000000000000000 0.00000000000000000 1.00000000000000000 1.00000000000000000 0.00000000000000000 0.00000000000000000 9.62500000000000000
1 -119.11995987906763617 -6.35000000000000142 -89.67716693596339894 -0.00000000000000000 -1.00000000000000000 -0.00000000000000000 0.00000000000000000 0.00000000000000000 -1.00000000000000000 1.00000000000000000 0.00000000000000000 0.00000000000000000 
Triangulations 0

TShapes 254
Ve
0.000005000001000
-146.349999999999994 -75.000000000000000 -94.313999192996022
0 0

0101101
*
Ve
0.000000100000000
-146.349999999999994 -75.000000000000000 -83.649999999999991
0 0

0101101
*
Ed
 0.000000100000000 1 1 0
1  1 0 2.036000807003973 12.700000000000003
0

0101000
+254 3 -253 3 *
Ve
0.000000100000000
-146.349999999999994 75.000000000000000 -83.649999999999991
0 0

0101101
*
Ed
 0.000000100000000 1 1 0
1  2 0 0.000000000000000 150.000000000000000
0

0101000
-251 3 +253 3 *
Ve
0.000005000001000
-146.349999999999994 75.000000000000000 -94.313999192996022
0 0

0101101
*
Ed
 0.000000100000000 1 1 0
1  3 0 2.036000807003973 12.700000000000003
0

0101000
+249 3 -251 3 *
Ve
0.000005000001000
-146.349999999999937 68.873702588112536 -94.313999192996022
0 0

0101101
*
Ed
 0.000005000000000 1 1 0
1  4 0 0.000000000000000 1.000000000000000
2  1 2 0 0.000000000000000 1.000000000000000
0

0101000
+247 3 -249 3 *
Ve
0.000005000001000
-146.349999999999994 68.873702588112536 -96.349999999999994
0 0

0101101
*
Ed
 0.000005000000000 1 1 0
1  5 0 0.000000000000000 1.000000000000000
2  2 3 0 0.000000000000000 1.000000000000000
0

0101000
+245 3 -247 3 *
Ve
0.000005000001000
-146.349999999999994 -68.873702588112536 -96.349999999999994
0 0

0101101
*
Ed
 0.000000100000000 1 1 0
1  6 0 6.126297411887464 143.873702588112536
0

0101000
+243 3 -245 3 *
Ve
0.000005000001000
-146.349999999999937 -68.873702588112536 -94.313999192996022
0 0

0101101
*
Ed
 0.000005000000000 1 1 0
1  7 0 0.000000000000000 1.000000000000000
2  3 4 0 0.000000000000000 1.000000000000000
0

0101000
+241 3 -243 3 *
Ed
 0.000005000000000 1 1 0
1  8 0 0.000000000000000 1.000000000000000
2  4 5 0 0.000000000000000 1.000000000000000
0

0101000
+254 3 -241 3 *
Wi

0101100
-252 0 -250 0 +248 0 +246 0 +244 0 +242 0 +240 0 +239 0 *
Fa
0  0.000000100000000 1 0

0101000
+238 0 *
Ve
0.000005000000343
-140.000000000000000 -74.999999999999659 -83.650000000000006
0 0

0101101
*
Ed
 0.000005000000000 1 1 0
1  9 0 0.000000000000000 1.000000000000000
2  5 5 0 0.000000000000000 1.000000000000000
0

0101000
+236 3 -254 3 *
Ed
 0.000000100000000 1 1 0
1  10 0 0.000000000000000 6.349999999999994
0

0101000
+253 3 -236 3 *
Wi

0101100
+235 0 +234 0 +252 0 *
Fa
0  0.000000100000000 6 0

0101000
+233 0 *
Ve
0.000005000000343
-140.000000000000000 75.000000000000341 -83.650000000000006
0 0

0101101
*
Ed
 0.000000100000000 1 1 0
1  11 0 0.000000000000000 6.349999999999994
0

0101000
+251 3 -231 3 *
Ve
0.000000100000000
-133.650000000000006 75.000000000000000 -83.649999999999991
0 0

0101101
*
Ed
 0.000000100000000 1 1 0
1  12 0 6.349999999999994 12.699999999999989
0

0101000
+231 3 -229 3 *
Ve
0.000000150000003
-133.650000000000006 6.349999999999994 -83.649999999999991
0 0

0101101
*
Ed
 0.000000100000000 1 1 0
1  13 0 81.349999999999994 150.000000000000000
0

0101000
+227 3 -229 3 *
Ve
0.000000100000000
-133.650000000000006 -75.000000000000000 -83.649999999999991
0 0

0101101
*
Ed
 0.000000100000000 1 1 0
1  14 0 6.349999999999994 12.699999999999989
0

0101000
+236 3 -225 3 *
Ve
0.000000150000005
-140.000000000000000 6.350000000000000 -83.649999999999991
0 0

0101101
*
Ed
 0.000000150000000 1 1 0
1  15 0 -2.025000000000006 4.324999999999989
0

0101000
+227 3 -223 3 *
Ve
0.000000150000003
-133.650000000000006 -6.349999999999994 -83.649999999999991
0 0

0101101
*
Ed
 0.000000100000000 1 1 0
1  16 0 0.000000000000000 68.650000000000006
0

0101000
+225 3 -221 3 *
Ve
0.000000150000003
-140.000000000000000 -6.350000000000000 -83.649999999999991
0 0

0101101
*
Ed
 0.000000150000000 1 1 0
1  17 0 34.324999999999996 47.024999999999991
0

0101000
+219 3 -223 3 *
Ed
 0.000000150000000 1 1 0
1  18 0 -2.025000000000006 4.324999999999989
0

0101000
+221 3 -219 3 *
Wi

0101100
-230 0 -250 0 -228 0 +234 0 +226 0 +224 0 -222 0 +220 0 +218 0 +217 0 
*
Ve
0.000000100000014
-140.000000000000000 -68.650000000000006 -83.650000000000006
0 0

0101101
*
Ed
 0.000000100000014 1 1 0
1  19 0 2.000000000000000 2.499999999999974
0

0101000
+215 3 -236 3 *
Wi

0101000
i214 0 *
Ve
0.000000100000014
-140.000000000000000 68.650000000000006 -83.650000000000006
0 0

0101101
*
Ed
 0.000000100000014 1 1 0
1  20 0 2.499999999999974 3.000000000000000
0

0101000
+231 3 -212 3 *
Wi

0101000
i211 0 *
Fa
0  0.000000100000000 7 0

0101000
+216 0 +213 0 +210 0 *
Ed
 0.000005000000000 1 1 0
1  21 0 0.000000000000000 1.000000000000000
2  6 2 0 0.000000000000000 1.000000000000000
0

0101000
+231 3 -249 3 *
Wi

0101100
+208 0 +230 0 +248 0 *
Fa
0  0.000000100000000 8 0

0101000
+207 0 *
Ve
0.000000100000000
-140.000000000000000 81.349999999999994 -83.650000000000006
0 0

0101101
*
Ve
0.000005000001000
-375.320083796903987 58.758463918588404 -210.222087260345916
0 0

0101101
*
Ed
 0.000000100000000 1 1 0
1  22 0 0.000000000000000 0.964292997753332
2  7 2 0 0.000000000000000 0.964292997753332
2  8 9 0 0.000000000000000 0.964292997753332
0

0101000
+205 3 -204 3 *
Ve
0.000005001406752
-375.320083796931954 56.349999999999994 -210.222087261752336
0 0

0101101
*
Ed
 0.000005000000000 1 1 0
1  23 0 0.810357171764692 1.000000000000000
2  9 2 0 0.810357171764692 1.000000000000000
2  10 10 0 0.810357171764692 1.000000000000000
0

0101000
+202 3 -204 3 *
Ve
0.000005000001000
-364.668735344802371 56.349999999999994 -215.321495326366346
0 0

0101101
*
Ed
 0.000005000000000 1 1 0
1  24 0 0.027186953986346 0.490345225743516
2  11 2 0 0.027186953986346 0.490345225743516
0

0101000
+200 3 -202 3 *
Ve
0.000005000001000
-364.668735344802371 48.229709226241567 -215.321495326366374
0 0

0101101
*
Ed
 0.000005000000000 1 1 0
1  25 0 0.000000000000000 0.999999926111025
2  12 2 0 0.000000000000000 0.999999926111025
2  13 11 0 0.000000000000000 0.999999926111025
0

0101000
+198 3 -200 3 *
Ed
 0.000000100000000 1 1 0
1  26 0 0.043191934846716 0.930096061686945
2  14 2 0 0.043191934846716 0.930096061686945
2  15 3 0 0.043191934846716 0.930096061686945
0

0101000
+247 3 -198 3 *
Ed
 0.000000100000000 1 1 0
1  27 0 2.000000000000000 2.499999999999974
2  16 2 0 2.000000000000000 2.499999999999974
0

0101000
+205 3 -231 3 *
Wi

0101100
-203 0 +201 0 +199 0 +197 0 +196 0 -246 0 +208 0 +195 0 *
Fa
0  0.000000100000000 2 0

0101000
+194 0 *
Ve
0.000005000001000
-140.000000000000000 68.650000000000006 -96.349999999999994
0 0

0101101
*
Ed
 0.000005000000000 1 1 0
1  28 0 0.000000000000000 1.000000000000000
2  17 3 0 0.000000000000000 1.000000000000000
0

0101000
+192 3 -245 3 *
Ve
0.000005000001000
-370.221500430038191 47.111884908936020 -225.500655229620492
0 0

0101101
*
Ed
 0.000005000000000 1 1 0
1  29 0 0.000000000000000 1.000000000000000
2  18 3 0 0.000000000000000 1.000000000000000
2  19 11 0 0.000000000000000 1.000000000000000
0

0101000
+190 3 -198 3 *
Ed
 0.000000100000000 1 1 0
1  30 0 0.000000000000000 0.947958680686006
2  20 3 0 0.000000000000000 0.947958680686006
2  21 12 0 0.000000000000000 0.947958680686006
0

0101000
+192 3 -190 3 *
Wi

0101100
-191 0 -244 0 -196 0 +189 0 +188 0 *
Fa
0  0.000000100000000 3 0

0101000
+187 0 *
Ve
0.000000150000003
-133.650000000000006 6.349999999999994 -96.349999999999994
0 0

0101101
*
Ve
0.000000150000005
-140.000000000000000 6.350000000000000 -96.349999999999994
0 0

0101101
*
Ed
 0.000000150000000 1 1 0
1  31 0 -2.025000000000006 4.324999999999989
0

0101000
+185 3 -184 3 *
Ve
0.000000150000003
-140.000000000000000 -6.350000000000000 -96.349999999999994
0 0

0101101
*
Ed
 0.000000150000000 1 1 0
1  32 0 34.324999999999996 47.024999999999991
0

0101000
+182 3 -184 3 *
Ve
0.000000150000003
-133.650000000000006 -6.349999999999994 -96.349999999999994
0 0

0101101
*
Ed
 0.000000150000000 1 1 0
1  33 0 -2.025000000000006 4.324999999999989
0

0101000
+180 3 -182 3 *
Ve
0.000000100000000
-133.650000000000006 -75.000000000000000 -96.349999999999994
0 0

0101101
*
Ed
 0.000000100000000 1 1 0
1  34 0 0.000000000000000 68.650000000000006
0

0101000
+178 3 -180 3 *
Ve
0.000000150000341
-140.000000000000000 -75.000000000000341 -96.349999999999994
0 0

0101101
*
Ed
 0.000000100000000 1 1 0
1  35 0 6.349999999999994 12.699999999999989
0

0101000
+176 3 -178 3 *
Ve
0.000005000001000
-140.000000000000000 -68.650000000000006 -96.349999999999994
0 0

0101101
*
Ed
 0.000000100000000 1 1 0
1  36 0 0.499999999999973 1.000000000000000
2  22 14 0 0.499999999999973 1.000000000000000
0

0101000
+176 3 -174 3 *
Ed
 0.000005000000000 1 1 0
1  37 0 0.000000000000000 1.000000000000000
2  23 4 0 0.000000000000000 1.000000000000000
0

0101000
+174 3 -243 3 *
Ve
0.000000150000341
-140.000000000000000 74.999999999999659 -96.349999999999994
0 0

0101101
*
Ed
 0.000000100000000 1 1 0
1  38 0 0.000000000000000 0.499999999999973
2  24 12 0 0.000000000000000 0.499999999999973
0

0101000
+192 3 -171 3 *
Ve
0.000000100000000
-133.650000000000006 75.000000000000000 -96.349999999999994
0 0

0101101
*
Ed
 0.000000100000000 1 1 0
1  39 0 6.349999999999994 12.699999999999989
0

0101000
+171 3 -169 3 *
Ed
 0.000000100000000 1 1 0
1  40 0 81.349999999999994 150.000000000000000
0

0101000
+185 3 -169 3 *
Wi

0101100
-183 0 +181 0 +179 0 +177 0 +175 0 -173 0 -172 0 -242 0 +191 0 -170 0 
-168 0 +167 0 *
Fa
0  0.000000100000000 13 0

0101000
+166 0 *
Ve
0.000005000001000
-370.221500430038191 -47.111884908936020 -225.500655229620492
0 0

0101101
*
Ed
 0.000000100000000 1 1 0
1  41 0 0.000000000000000 0.947958680686006
2  25 4 0 0.000000000000000 0.947958680686006
2  26 14 0 0.000000000000000 0.947958680686006
0

0101000
+174 3 -164 3 *
Ve
0.000005000001000
-364.668735344802371 -48.229709226241567 -215.321495326366374
0 0

0101101
*
Ed
 0.000005000000000 1 1 0
1  42 0 0.000000000000000 1.000000000000000
2  27 4 0 0.000000000000000 1.000000000000000
2  28 15 0 0.000000000000000 1.000000000000000
0

0101000
+162 3 -164 3 *
Ed
 0.000000100000000 1 1 0
1  43 0 0.043191934846716 0.930096061686945
2  29 4 0 0.043191934846716 0.930096061686945
2  30 5 0 0.043191934846716 0.930096061686945
0

0101000
+241 3 -162 3 *
Wi

0101100
-163 0 +161 0 +160 0 -240 0 +172 0 *
Fa
0  0.000000100000000 4 0

0101000
+159 0 *
Ve
0.000005000001000
-364.668735344802371 -56.350000000000001 -215.321495326366346
0 0

0101101
*
Ed
 0.000005000000000 1 1 0
1  44 0 0.000000073888974 1.000000000000000
2  31 5 0 0.000000073888974 1.000000000000000
2  32 15 0 0.000000073888974 1.000000000000000
0

0101000
+157 3 -162 3 *
Ve
0.000005001406610
-375.320083796931897 -56.350000000000001 -210.222087261752279
0 0

0101101
*
Ed
 0.000005000000000 1 1 0
1  45 0 0.509654774256351 0.972813046013521
2  33 5 0 0.509654774256351 0.972813046013521
0

0101000
+155 3 -157 3 *
Ve
0.000005000001000
-375.320083796903987 -58.758463918588404 -210.222087260345916
0 0

0101101
*
Ed
 0.000005000000000 1 1 0
1  46 0 0.000000000000000 0.189642828235308
2  34 5 0 0.000000000000000 0.189642828235308
2  35 16 0 0.000000000000000 0.189642828235308
0

0101000
+153 3 -155 3 *
Ve
0.000000100000000
-140.000000000000000 -81.349999999999994 -83.650000000000006
0 0

0101101
*
Ed
 0.000000100000000 1 1 0
1  47 0 0.000000000000000 0.964292997753332
2  36 5 0 0.000000000000000 0.964292997753332
2  37 17 0 0.000000000000000 0.964292997753332
0

0101000
+151 3 -153 3 *
Ed
 0.000000100000000 1 1 0
1  48 0 2.499999999999974 3.000000000000000
2  38 5 0 2.499999999999974 3.000000000000000
0

0101000
+236 3 -151 3 *
Wi

0101100
-235 0 -239 0 -160 0 +156 0 +154 0 +152 0 +150 0 +149 0 *
Fa
0  0.000000100000000 5 0

0101000
+148 0 *
Ed
 0.000000100000000 1 1 0
1  49 0 0.000000000000000 12.700000000000003
0

0101000
-229 3 +169 3 *
Ed
 0.000000150000000 1 1 0
1  50 0 0.000000000000000 12.700000000000003
0

0101000
+171 3 -231 3 *
Wi

0101100
-168 0 -146 0 +228 0 +145 0 *
Fa
0  0.000000100000000 18 0

0101000
+144 0 *
Ed
 0.000000150000000 1 1 0
1  51 0 -3.174999999999997 9.525000000000006
0

0101000
+185 3 -227 3 *
Wi

0101100
-226 0 +146 0 +167 0 -142 0 *
Fa
0  0.000000100000000 19 0

0101000
+141 0 *
Ed
 0.000000100000000 1 1 0
1  52 0 0.000000000000000 12.700000000000003
0

0101000
-225 3 +178 3 *
Ed
 0.000000150000000 1 1 0
1  53 0 0.000000000000000 12.700000000000003
0

0101000
+176 3 -236 3 *
Wi

0101100
-175 0 -139 0 +224 0 +138 0 *
Fa
0  0.000000100000000 20 0

0101000
+137 0 *
Ed
 0.000000150000000 1 1 0
1  54 0 -3.174999999999997 9.525000000000006
0

0101000
+180 3 -221 3 *
Wi

0101100
-220 0 +135 0 +177 0 -139 0 *
Fa
0  0.000000100000000 21 0

0101000
+134 0 *
Ve
0.000000150000000
-140.000000000000000 -6.350000000000000 -78.000000000000000
0 0

0101101
*
Ed
 0.000000150000000 1 1 0
1  55 0 18.350000000000009 24.000000000000000
0

0101000
+219 3 -132 3 *
Ve
0.000000150000000
-140.000000000000000 6.350000000000000 -78.000000000000000
0 0

0101101
*
Ed
 0.000000100000000 1 1 0
1  56 0 0.000000000000000 12.699999999999999
0

0101000
+132 3 -130 3 *
Ed
 0.000000150000000 1 1 0
1  57 0 18.350000000000009 24.000000000000000
0

0101000
+223 5 -130 5 *
Wi

0101100
-131 0 -129 0 +128 4 +218 0 *
Fa
0  0.000000100000000 22 0

0101000
+127 0 *
Ve
0.000000100000000
-140.000000000000000 81.349999999999994 -96.349999999999994
0 0

0101101
*
Ve
0.000005000001000
-380.995494254123798 57.555110307441154 -219.751161486779836
0 0

0101101
*
Ed
 0.000000100000000 1 1 0
1  58 0 0.000000000000000 0.982404361571162
2  39 9 0 0.000000000000000 0.982404361571162
2  40 12 0 0.000000000000000 0.982404361571162
0

0101000
+125 3 -124 3 *
Ed
 0.000005000000000 1 1 0
1  59 0 0.000000000000000 1.000000000000000
2  41 9 0 0.000000000000000 1.000000000000000
2  42 10 0 0.000000000000000 1.000000000000000
0

0101000
+204 3 -124 3 *
Ed
 0.000000100000000 1 1 0
1  60 0 1.000000000000000 2.000000000000000
2  43 9 0 1.000000000000000 2.000000000000000
0

0101000
+125 3 -205 3 *
Wi

0101100
-123 0 +122 0 +203 0 +121 0 *
Fa
0  0.000000100000000 9 0

0101000
+120 0 *
Ve
0.000000100000000
-386.530384127349862 56.349999999999994 -198.787499999999994
0 0

0101101
*
Ed
 0.000000100000000 1 1 0
1  61 0 0.000000000000000 1.590604735796209
2  44 10 0 0.000000000000000 1.590604735796209
0

0101000
+118 3 -202 3 *
Ve
0.000005001097960
-380.995494255078597 56.349999999999994 -219.751161487321866
0 0

0101101
*
Ed
 0.000005000000000 1 1 0
1  62 0 0.000000000000000 0.094890575389069
2  45 10 0 0.000000000000000 0.094890575389069
2  46 12 0 0.000000000000000 0.094890575389069
0

0101000
+124 3 -116 3 *
Ed
 0.000000100000000 1 1 0
1  63 0 2.625327322284552 6.283185307179586
2  47 10 0 2.625327322284552 6.283185307179586
0

0101000
+116 3 -118 3 *
Ve
0.000000100000000
-386.530384127349862 43.650000000000006 -198.787499999999994
0 0

0101101
*
Ed
 0.000000100000000 1 1 0
1  64 0 193.650000000000006 206.349999999999994
3  48 49CN 10 0 193.650000000000006 206.349999999999994
0

0101000
+113 3 -118 3 *
Ed
 0.000000100000000 1 1 0
1  65 0 0.000000000000000 6.283185307179586
2  50 10 0 0.000000000000000 6.283185307179586
0

0101100
+113 3 -113 3 *
Wi

0101100
-117 0 -201 0 -122 0 -115 0 -114 0 +112 0 +111 0 -112 0 *
Fa
0  0.000000100000000 10 0

0101000
+110 0 *
Ve
0.000005000001000
-370.221500430038134 56.349999999999994 -225.500655229620463
0 0

0101101
*
Ed
 0.000005000000000 1 1 0
1  66 0 0.254732762190892 0.733690924131448
2  51 12 0 0.254732762190892 0.733690924131448
0

0101000
+116 3 -108 3 *
Ve
0.000000100000000
-386.530384127349862 56.349999999999994 -187.500000000000000
0 0

0101101
*
Ed
 0.000000100000000 1 1 0
1  67 0 0.000000000000000 1.809569622480933
2  52 11 0 0.000000000000000 1.809569622480933
0

0101000
+106 3 -200 3 *
Ed
 0.000000100000000 1 1 0
1  68 0 2.330791587933401 6.283185307179586
2  53 11 0 2.330791587933401 6.283185307179586
0

0101000
+108 3 -106 3 *
Wi

0101100
+107 0 -114 0 -117 0 +199 0 +105 0 +104 0 *
Fa
0  0.000000100000000 23 0

0101000
+103 0 *
Ve
0.000000100000000
-386.530384127349862 43.649999999999999 -187.500000000000000
0 0

0101101
*
Ed
 0.000000100000000 1 1 0
1  69 0 0.000000000000000 12.699999999999999
3  54 55CN 11 0 0.000000000000000 12.699999999999999
0

0101000
-106 3 +101 3 *
Ed
 0.000000100000000 1 1 0
1  70 0 0.000000000000000 6.283185307179586
2  56 11 0 0.000000000000000 6.283185307179586
0

0101000
+101 3 -101 3 *
Ed
 0.000005000000000 1 1 0
1  71 0 0.000000064948311 1.000000000000000
2  57 11 0 0.000000064948311 1.000000000000000
2  58 12 0 0.000000064948311 1.000000000000000
0

0101000
+108 3 -190 3 *
Wi

0101100
+100 0 +99 0 -100 0 -105 0 +197 0 +189 0 +98 0 -104 0 *
Fa
0  0.000000100000000 11 0

0101000
+97 0 *
Ed
 0.000000100000000 1 1 0
1  72 0 0.499999999999973 1.000000000000000
2  59 12 0 0.499999999999973 1.000000000000000
0

0101000
+171 3 -125 3 *
Wi

0101100
-95 0 -121 0 -195 0 +145 0 *
Fa
0  0.000000100000000 24 0

0101000
+94 0 *
Wi

0101100
-188 0 +98 0 +107 0 +115 0 +123 0 +95 0 +170 0 *
Fa
0  0.000000100000000 12 0

0101000
+92 0 *
Ve
0.000000150000000
-140.000000000000000 -6.350000000000000 -102.000000000000000
0 0

0101101
*
Ed
 0.000000150000000 1 1 0
1  73 0 0.000000000000000 5.650000000000006
0

0101000
+90 3 -182 3 *
Ve
0.000000150000000
-140.000000000000000 6.350000000000000 -102.000000000000000
0 0

0101101
*
Ed
 0.000000150000000 1 1 0
1  74 0 0.000000000000000 5.650000000000006
0

0101000
+88 5 -184 5 *
Ed
 0.000000100000000 1 1 0
1  75 0 0.000000000000000 12.699999999999999
0

0101000
+90 3 -88 3 *
Wi

0101100
-89 0 -181 0 +87 4 +86 0 *
Fa
0  0.000000100000000 25 0

0101000
+85 0 *
Ve
0.000000100000000
-140.000000000000000 -81.349999999999994 -96.349999999999994
0 0

0101101
*
Ve
0.000005000001000
-380.995494254123798 -57.555110307441154 -219.751161486779836
0 0

0101101
*
Ed
 0.000000100000000 1 1 0
1  76 0 0.000000000000000 0.982404361571162
2  60 14 0 0.000000000000000 0.982404361571162
2  61 17 0 0.000000000000000 0.982404361571162
0

0101000
+83 3 -82 3 *
Ve
0.000005001097946
-380.995494255078597 -56.350000000000001 -219.751161487321866
0 0

0101101
*
Ed
 0.000005000000000 1 1 0
1  77 0 0.905109424610932 1.000000000000000
2  62 14 0 0.905109424610932 1.000000000000000
2  63 16 0 0.905109424610932 1.000000000000000
0

0101000
+80 3 -82 3 *
Ve
0.000005000001000
-370.221500430038134 -56.350000000000001 -225.500655229620463
0 0

0101101
*
Ed
 0.000005000000000 1 1 0
1  78 0 0.266309075868168 0.745267237808912
2  64 14 0 0.266309075868168 0.745267237808912
0

0101000
+78 3 -80 3 *
Ed
 0.000005000000000 1 1 0
1  79 0 0.000000000000000 0.999999935051690
2  65 14 0 0.000000000000000 0.999999935051690
2  66 15 0 0.000000000000000 0.999999935051690
0

0101000
+164 3 -78 3 *
Ed
 0.000000100000000 1 1 0
1  80 0 0.000000000000000 0.499999999999973
2  67 14 0 0.000000000000000 0.499999999999973
0

0101000
+83 3 -176 3 *
Wi

0101100
-81 0 +79 0 +77 0 +76 0 +163 0 +173 0 +75 0 *
Fa
0  0.000000100000000 14 0

0101000
+74 0 *
Ve
0.000000100000000
-386.530384127349862 -43.650000000000006 -187.500000000000000
0 0

0101101
*
Ve
0.000000100000000
-386.530384127349862 -56.350000000000001 -187.500000000000000
0 0

0101101
*
Ed
 0.000000100000000 1 1 0
1  81 0 0.000000000000000 12.699999999999999
3  68 69CN 15 0 0.000000000000000 12.699999999999999
0

0101000
-72 3 +71 3 *
Ed
 0.000000100000000 1 1 0
1  82 0 2.330791587933401 6.283185307179586
2  70 15 0 2.330791587933401 6.283185307179586
0

0101000
+78 3 -71 3 *
Ed
 0.000000100000000 1 1 0
1  83 0 0.000000000000000 1.809569622480933
2  71 15 0 0.000000000000000 1.809569622480933
0

0101000
+71 3 -157 3 *
Ed
 0.000000100000000 1 1 0
1  84 0 0.000000000000000 6.283185307179586
2  72 15 0 0.000000000000000 6.283185307179586
0

0101000
+72 3 -72 3 *
Wi

0101100
+70 0 +69 0 +76 0 +161 0 +156 0 +68 0 -70 0 -67 0 *
Fa
0  0.000000100000000 15 0

0101000
+66 0 *
Ve
0.000000100000000
-386.530384127349862 -56.349999999999994 -198.787499999999994
0 0

0101101
*
Ed
 0.000000100000000 1 1 0
1  85 0 2.625327322284552 6.283185307179586
2  73 16 0 2.625327322284552 6.283185307179586
0

0101000
+80 3 -64 3 *
Ed
 0.000000100000000 1 1 0
1  86 0 0.000000000000000 1.590604735796204
2  74 16 0 0.000000000000000 1.590604735796204
0

0101000
+64 3 -155 3 *
Wi

0101100
-77 0 -63 0 -62 0 -154 0 +68 0 +69 0 *
Fa
0  0.000000100000000 26 0

0101000
+61 0 *
Ve
0.000000100000000
-386.530384127349862 -43.650000000000006 -198.787499999999994
0 0

0101101
*
Ed
 0.000000100000000 1 1 0
1  87 0 0.000000000000000 6.283185307179586
2  75 16 0 0.000000000000000 6.283185307179586
0

0101100
+59 3 -59 3 *
Ed
 0.000000100000000 1 1 0
1  88 0 93.650000000000006 106.349999999999994
3  76 77CN 16 0 93.650000000000006 106.349999999999994
0

0101000
+64 3 -59 3 *
Ed
 0.000005000000000 1 1 0
1  89 0 0.000000000000000 1.000000000000000
2  78 16 0 0.000000000000000 1.000000000000000
2  79 17 0 0.000000000000000 1.000000000000000
0

0101000
+82 3 -153 3 *
Wi

0101100
-58 0 +57 0 +63 0 -79 0 -56 0 -152 0 +62 0 -57 0 *
Fa
0  0.000000100000000 16 0

0101000
+55 0 *
Ed
 0.000000100000000 1 1 0
1  90 0 3.000000000000000 4.000000000000000
2  80 17 0 3.000000000000000 4.000000000000000
0

0101000
+151 3 -83 3 *
Wi

0101100
-150 0 +56 0 +81 0 +53 0 *
Fa
0  0.000000100000000 17 0

0101000
+52 0 *
Wi

0101100
-75 0 -138 0 -149 0 -53 0 *
Fa
0  0.000000100000000 27 0

0101000
+50 0 *
Ve
0.000000150000000
-123.416407864998320 -6.350000000000000 -77.999999999999773
0 0

0101101
*
Ed
 0.000000150000000 1 1 0
1  91 0 0.000000000000000 16.583592135001680
0

0101000
+132 3 -48 3 *
Ve
0.000000150000000
-123.416407864998320 6.350000000000000 -77.999999999999773
0 0

0101101
*
Ed
 0.000000100000000 1 1 0
1  92 0 0.000000000000000 12.699999999999999
2  81 29 0 0.000000000000000 12.699999999999999
0

0101000
+48 3 -46 3 *
Ed
 0.000000150000000 1 1 0
1  93 0 0.000000000000000 16.583592135001680
0

0101000
+130 5 -46 5 *
Wi

0101100
-47 0 -45 0 +44 4 +129 0 *
Fa
0  0.000000100000000 28 0

0101000
+43 0 *
Ve
0.000000150000000
-123.416407864998675 -6.350000000000000 -102.000000000000028
0 0

0101101
*
Ed
 0.000000150000000 1 1 0
1  94 0 13.416407864998675 30.000000000000000
0

0101000
+41 3 -90 3 *
Ve
0.000000150000000
-123.416407864998675 6.350000000000000 -102.000000000000028
0 0

0101101
*
Ed
 0.000000150000000 1 1 0
1  95 0 13.416407864998675 30.000000000000000
0

0101000
+39 5 -88 5 *
Ed
 0.000000100000000 1 1 0
1  96 0 0.000000000000000 12.699999999999999
2  82 29 0 0.000000000000000 12.699999999999999
0

0101000
+41 3 -39 3 *
Wi

0101100
-40 0 -86 0 +38 4 +37 0 *
Fa
0  0.000000100000000 30 0

0101000
+36 0 *
Wi

0101100
+99 0 *
Wi

0101100
-111 0 *
Fa
0  0.000000100000000 31 0

0101000
+34 0 +33 0 *
Wi

0101100
+67 0 *
Wi

0101100
-58 0 *
Fa
0  0.000000100000000 32 0

0101000
+31 0 +30 0 *
Ve
0.000000150000000
-110.000000000000014 6.350000000000000 -72.000000000000000
0 0

0101101
*
Ed
 0.000000150000000 1 1 0
1  97 0 5.442116636611681 6.283185307179586
2  83 29 0 5.442116636611681 6.283185307179586
0

0101000
+46 3 -28 3 *
Ed
 0.000000150000000 1 1 0
1  98 0 0.000000000000000 3.982661324157720
2  84 29 0 0.000000000000000 3.982661324157720
0

0101000
+28 3 -39 3 *
Wi

0101100
+44 4 +27 0 +26 0 +38 4 +87 4 -183 0 +142 0 +222 0 +128 4 *
Ve
0.000000100000005
-110.000000000000000 6.350000000000000 -99.625000000000000
0 0

0101101
*
Ve
0.000000100000014
-110.000000000000000 6.349999999999997 -80.375000000000000
0 0

0101101
*
Ed
 0.000000100000000 1 1 0
1  99 0 3.141592653589793 6.283185307179586
2  85 34 0 3.141592653589793 6.283185307179586
0

0101000
+24 3 -23 3 *
Ed
 0.000000100000000 1 1 0
1  100 0 0.000000000000000 3.141592653589793
2  86 34 0 0.000000000000000 3.141592653589793
0

0101000
+23 3 -24 3 *
Wi

0101100
-22 0 -21 0 *
Fa
0  0.000000150000000 33 0

0111000
+25 0 +20 0 *
Ve
0.000000100000014
-110.000000000000000 -6.349999999999997 -80.375000000000000
0 0

0101101
*
Ed
 0.000000100000000 1 1 0
1  101 0 143.650000000000006 156.349999999999994
3  87 88CN 34 0 143.650000000000006 156.349999999999994
0

0101000
+18 3 -23 3 *
Ve
0.000000100000005
-110.000000000000000 -6.350000000000000 -99.625000000000000
0 0

0101101
*
Ed
 0.000000100000000 1 1 0
1  102 0 3.141592653589793 6.283185307179586
2  89 34 0 3.141592653589793 6.283185307179586
0

0101000
+16 3 -18 3 *
Ed
 0.000000100000000 1 1 0
1  103 0 0.000000000000000 3.141592653589793
2  90 34 0 0.000000000000000 3.141592653589793
0

0101000
+18 3 -16 3 *
Wi

0101100
-21 0 -22 0 +17 0 +15 0 +14 0 -17 0 *
Fa
0  0.000000100000000 34 0

0101000
+13 0 *
Ve
0.000000150000000
-110.000000000000014 -6.350000000000000 -72.000000000000000
0 0

0101101
*
Ed
 0.000000150000000 1 1 0
1  104 0 0.000000000000000 3.982661324157720
2  91 29 0 0.000000000000000 3.982661324157720
0

0101000
+11 3 -41 3 *
Ed
 0.000000150000000 1 1 0
1  105 0 5.442116636611681 6.283185307179586
2  92 29 0 5.442116636611681 6.283185307179586
0

0101000
+48 3 -11 3 *
Wi

0101100
-47 0 -131 0 -217 0 -135 0 +179 0 -89 0 -40 0 -10 0 -9 0 *
Wi

0101100
+15 0 +14 0 *
Fa
0  0.000000150000000 35 0

0111000
+8 0 +7 0 *
Wi

0101100
+10 0 +37 0 -26 0 -27 0 -45 0 +9 0 *
Fa
0  0.000000100000000 29 0

0111000
+5 0 *
Sh

0101000
-237 0 -232 0 +209 0 +206 0 -193 0 -186 0 -165 0 -158 0 -147 0 +143 0 
+140 0 -136 0 +133 0 -126 0 -119 0 -109 0 +102 0 +96 0 -93 0 -91 0 
-84 0 -73 0 +65 0 -60 0 -54 0 -51 0 -49 0 -42 0 -35 0 -32 0 
+29 0 +19 0 -12 0 +6 0 +4 0 *
So

0100000
+3 0 *
Co

1100000
+2 0 *

+1 1 