
CASCADE Topology V1, (c) Matra-Datavision
Locations 5
1
1.000000000000000 0.000000000000000 0.000000000000000 0.000000000000000 
0.000000000000000 1.000000000000000 0.000000000000000 0.000000000000000 
0.000000000000000 0.000000000000000 1.000000000000000 0.000000000000000 
1
1.000000000000000 0.000000000000000 0.000000000000000 0.000000000000000 
0.000000000000000 1.000000000000000 0.000000000000000 0.000000000000000 
0.000000000000000 0.000000000000000 1.000000000000000 0.000000000000000 
2  2 -1 0
1
1.000000000000000 0.000000000000000 0.000000000000000 0.000000000000000 
0.000000000000000 1.000000000000000 0.000000000000000 6.350000000000023 
0.000000000000000 0.000000000000000 1.000000000000000 0.000000000000000 
2  2 -1 4 -1 0
Curve2ds 40
1 0.00000000000000000 0.00000000000000000 1.00000000000000000 0.00000000000000000 
1 6.28318530717958623 0.00000000000000000 1.00000000000000000 0.00000000000000000 
1 0.00000000000000000 1.00000000000000000 1.00000000000000000 0.00000000000000000 
1 0.00000000000000000 1.00000000000000000 1.00000000000000000 0.00000000000000000 
1 0.00000000000000000 1.00000000000000000 1.00000000000000000 0.00000000000000000 
1 0.00000000000000000 1.00000000000000000 1.00000000000000000 0.00000000000000000 
1 0.00000000000000000 1.00000000000000000 1.00000000000000000 0.00000000000000000 
1 0.00000000000000000 1.00000000000000000 1.00000000000000000 0.00000000000000000 
1 0.00000000000000000 1.00000000000000000 1.00000000000000000 0.00000000000000000 
1 0.00000000000000000 1.00000000000000000 1.00000000000000000 0.00000000000000000 
1 0.00000000000000000 1.00000000000000000 1.00000000000000000 0.00000000000000000 
1 0.00000000000000000 6.34999999999999964 1.00000000000000000 0.00000000000000000 
1 6.28318530717958623 6.34999999999999964 1.00000000000000000 0.00000000000000000 
1 0.00000000000000000 7.35000000000002274 1.00000000000000000 0.00000000000000000 
1 0.00000000000000000 7.35000000000002274 1.00000000000000000 0.00000000000000000 
1 0.00000000000000000 7.35000000000002274 1.00000000000000000 0.00000000000000000 
1 0.00000000000000000 7.35000000000002274 1.00000000000000000 0.00000000000000000 
1 0.00000000000000000 7.35000000000002274 1.00000000000000000 0.00000000000000000 
1 0.00000000000000000 7.35000000000002274 1.00000000000000000 0.00000000000000000 
1 0.00000000000000000 7.35000000000002274 1.00000000000000000 0.00000000000000000 
1 0.00000000000000000 7.35000000000002274 1.00000000000000000 0.00000000000000000 
1 0.00000000000000000 7.35000000000002274 1.00000000000000000 0.00000000000000000 
1 4.48775116965218679 0.00000000000000000 0.00000000000000000 1.00000000000000000 
1 6.69069507224581272 0.00000000000000000 0.00000000000000000 1.00000000000000000 
1 6.28318530717958623 -0.00000000000000000 0.00000000000000000 1.00000000000000000 
1 0.00000000000000000 -0.00000000000000000 0.00000000000000000 1.00000000000000000 
1 6.28318530717958623 -0.00000000000000000 0.00000000000000000 1.00000000000000000 
1 0.00000000000000000 -0.00000000000000000 0.00000000000000000 1.00000000000000000 
1 6.28318530717958623 -0.00000000000000000 0.00000000000000000 1.00000000000000000 
1 0.00000000000000000 -0.00000000000000000 0.00000000000000000 1.00000000000000000 
1 6.28318530717958623 -0.00000000000000000 0.00000000000000000 1.00000000000000000 
1 0.00000000000000000 -0.00000000000000000 0.00000000000000000 1.00000000000000000 
1 6.28318530717958623 -0.00000000000000000 0.00000000000000000 1.00000000000000000 
1 0.00000000000000000 -0.00000000000000000 0.00000000000000000 1.00000000000000000 
1 6.28318530717958623 -0.00000000000000000 0.00000000000000000 1.00000000000000000 
1 0.00000000000000000 -0.00000000000000000 0.00000000000000000 1.00000000000000000 
1 6.28318530717958623 -0.00000000000000000 0.00000000000000000 1.00000000000000000 
1 0.00000000000000000 -0.00000000000000000 0.00000000000000000 1.00000000000000000 
1 6.28318530717958623 -0.00000000000000000 0.00000000000000000 1.00000000000000000 
1 0.00000000000000000 -0.00000000000000000 0.00000000000000000 1.00000000000000000 
Curves 63
1 -70.00000000000000000 282.57499999999998863 -1.34543180812966057 0.00000000000000000 1.00000000000000000 0.00000000000000000 
1 204.50868054973761900 282.57499999999998863 28.98414010563999454 0.00000000000000000 1.00000000000000000 0.00000000000000000 
1 -70.00000000000000000 282.57499999999998863 -1.34543180812966057 0.99395165860284163 0.00000000000000000 0.10981848824610629 
1 -70.00000000000000000 282.57499999999998863 -1.34543180812966057 0.99395165860284163 0.00000000000000000 0.10981848824610629 
1 -70.00000000000000000 282.57499999999998863 346.67303232770302657 0.00000000000000000 1.00000000000000000 0.00000000000000000 
1 -70.00000000000000000 282.57499999999998863 346.67303232770302657 0.00000000000000000 0.00000000000000000 -1.00000000000000000 
1 -70.00000000000000000 282.57499999999998863 346.67303232770302657 0.00000000000000000 0.00000000000000000 -1.00000000000000000 
1 612.25023417682496074 282.57499999999998863 200.02564007545265667 0.00000000000000000 1.00000000000000000 0.00000000000000000 
1 204.50868054973761900 282.57499999999998863 28.98414010563999454 0.92215154186775472 0.00000000000000000 0.38682881721883478 
1 204.50868054973761900 282.57499999999998863 28.98414010563999454 0.92215154186775472 0.00000000000000000 0.38682881721883478 
1 -35.00000000000000000 282.57499999999998863 371.67303232770302657 -0.81373347120673500 0.00000000000000000 -0.58123819371909646 
1 274.04448817359207169 282.57499999999998863 628.80396211897436842 -0.76871788888071191 0.00000000000000000 -0.63958799810095057 
2 0.00000000000000000 282.57499999999998863 386.67303232770302657 0.00000000000000000 1.00000000000000000 0.00000000000000000 0.00000000000000000 0.00000000000000000 1.00000000000000000 1.00000000000000000 0.00000000000000000 0.00000000000000000 24.00000000000000000
1 612.25023417682496074 282.57499999999998863 200.02564007545265667 0.88894628591879576 0.00000000000000000 0.45801146355869587 
2 0.00000000000000000 282.57499999999998863 386.67303232770302657 0.00000000000000000 1.00000000000000000 0.00000000000000000 0.00000000000000000 0.00000000000000000 1.00000000000000000 1.00000000000000000 0.00000000000000000 0.00000000000000000 24.00000000000000000
1 641.47518181521081715 282.57499999999998863 215.08319895421948331 0.00000000000000000 0.00000000000000000 1.00000000000000000 
1 274.04448817359207169 282.57499999999998863 628.80396211897436842 -0.76871788888071191 0.00000000000000000 -0.63958799810095057 
1 641.47518181521081715 282.57499999999998863 589.87568887419251951 -0.26311740579210879 0.00000000000000000 0.96476382123773219 
1 632.47518181521081715 282.57499999999998863 622.87568887419251951 -0.99986325012030175 0.00000000000000000 0.01653726273803842 
2 0.00000000000000000 282.57499999999998863 386.67303232770302657 0.00000000000000000 1.00000000000000000 0.00000000000000000 0.00000000000000000 0.00000000000000000 1.00000000000000000 1.00000000000000000 0.00000000000000000 0.00000000000000000 12.15000000000000036
2 0.00000000000000000 282.57499999999998863 386.67303232770302657 0.00000000000000000 1.00000000000000000 0.00000000000000000 0.00000000000000000 0.00000000000000000 1.00000000000000000 1.00000000000000000 0.00000000000000000 0.00000000000000000 12.15000000000000036
2 0.00000000000000000 282.57499999999998863 386.67303232770302657 0.00000000000000000 1.00000000000000000 0.00000000000000000 0.00000000000000000 0.00000000000000000 1.00000000000000000 1.00000000000000000 0.00000000000000000 0.00000000000000000 12.15000000000000036
2 -40.00000000000000000 282.57499999999998863 29.96917068673838003 0.00000000000000000 1.00000000000000000 0.00000000000000000 0.00000000000000000 0.00000000000000000 1.00000000000000000 1.00000000000000000 0.00000000000000000 0.00000000000000000 6.50000000000000000
2 -10.00000000000000000 282.57499999999998863 33.28377318160642062 0.00000000000000000 1.00000000000000000 0.00000000000000000 0.00000000000000000 0.00000000000000000 1.00000000000000000 1.00000000000000000 0.00000000000000000 0.00000000000000000 6.50000000000000000
2 298.04448817359207169 282.57499999999998863 603.80396211897436842 0.00000000000000000 1.00000000000000000 0.00000000000000000 0.00000000000000000 0.00000000000000000 1.00000000000000000 1.00000000000000000 0.00000000000000000 0.00000000000000000 6.50000000000000000
2 406.53038412734986196 282.57499999999998863 366.67303232770302657 0.00000000000000000 1.00000000000000000 0.00000000000000000 0.00000000000000000 0.00000000000000000 1.00000000000000000 1.00000000000000000 0.00000000000000000 0.00000000000000000 14.15000000000000036
2 617.47518181521081715 282.57499999999998863 597.87568887419251951 0.00000000000000000 1.00000000000000000 0.00000000000000000 0.00000000000000000 0.00000000000000000 1.00000000000000000 1.00000000000000000 0.00000000000000000 0.00000000000000000 6.50000000000000000
2 586.47518181521081715 282.57499999999998863 217.21339006435130159 0.00000000000000000 1.00000000000000000 0.00000000000000000 0.00000000000000000 0.00000000000000000 1.00000000000000000 1.00000000000000000 0.00000000000000000 0.00000000000000000 6.50000000000000000
2 616.47518181521081715 282.57499999999998863 230.20245827242160885 0.00000000000000000 1.00000000000000000 0.00000000000000000 0.00000000000000000 0.00000000000000000 1.00000000000000000 1.00000000000000000 0.00000000000000000 0.00000000000000000 6.50000000000000000
1 -35.00000000000000000 282.57499999999998863 371.67303232770302657 -0.81373347120673500 0.00000000000000000 -0.58123819371909646 
1 274.04448817359207169 282.57499999999998863 628.80396211897436842 -0.76871788888071191 0.00000000000000000 -0.63958799810095057 
2 0.00000000000000000 288.92500000000001137 386.67303232770302657 0.00000000000000000 1.00000000000000000 0.00000000000000000 0.00000000000000000 0.00000000000000000 1.00000000000000000 1.00000000000000000 0.00000000000000000 0.00000000000000000 24.00000000000000000
1 612.25023417682496074 282.57499999999998863 200.02564007545265667 0.88894628591879576 0.00000000000000000 0.45801146355869587 
2 0.00000000000000000 288.92500000000001137 386.67303232770302657 0.00000000000000000 1.00000000000000000 0.00000000000000000 0.00000000000000000 0.00000000000000000 1.00000000000000000 1.00000000000000000 0.00000000000000000 0.00000000000000000 24.00000000000000000
1 641.47518181521081715 282.57499999999998863 215.08319895421948331 0.00000000000000000 0.00000000000000000 1.00000000000000000 
1 274.04448817359207169 282.57499999999998863 628.80396211897436842 -0.76871788888071191 0.00000000000000000 -0.63958799810095057 
1 641.47518181521081715 282.57499999999998863 589.87568887419251951 -0.26311740579210879 0.00000000000000000 0.96476382123773219 
1 632.47518181521081715 282.57499999999998863 622.87568887419251951 -0.99986325012030175 0.00000000000000000 0.01653726273803842 
2 -40.00000000000000000 288.92500000000001137 29.96917068673838003 0.00000000000000000 1.00000000000000000 0.00000000000000000 0.00000000000000000 0.00000000000000000 1.00000000000000000 1.00000000000000000 0.00000000000000000 0.00000000000000000 6.50000000000000000
2 -10.00000000000000000 288.92500000000001137 33.28377318160642062 0.00000000000000000 1.00000000000000000 0.00000000000000000 0.00000000000000000 0.00000000000000000 1.00000000000000000 1.00000000000000000 0.00000000000000000 0.00000000000000000 6.50000000000000000
2 0.00000000000000000 288.92500000000001137 386.67303232770302657 0.00000000000000000 1.00000000000000000 0.00000000000000000 0.00000000000000000 0.00000000000000000 1.00000000000000000 1.00000000000000000 0.00000000000000000 0.00000000000000000 12.15000000000000036
2 0.00000000000000000 288.92500000000001137 386.67303232770302657 0.00000000000000000 1.00000000000000000 0.00000000000000000 0.00000000000000000 0.00000000000000000 1.00000000000000000 1.00000000000000000 0.00000000000000000 0.00000000000000000 12.15000000000000036
2 0.00000000000000000 288.92500000000001137 386.67303232770302657 0.00000000000000000 1.00000000000000000 0.00000000000000000 0.00000000000000000 0.00000000000000000 1.00000000000000000 1.00000000000000000 0.00000000000000000 0.00000000000000000 12.15000000000000036
2 586.47518181521081715 288.92500000000001137 217.21339006435130159 0.00000000000000000 1.00000000000000000 0.00000000000000000 0.00000000000000000 0.00000000000000000 1.00000000000000000 1.00000000000000000 0.00000000000000000 0.00000000000000000 6.50000000000000000
2 616.47518181521081715 288.92500000000001137 230.20245827242160885 0.00000000000000000 1.00000000000000000 0.00000000000000000 0.00000000000000000 0.00000000000000000 1.00000000000000000 1.00000000000000000 0.00000000000000000 0.00000000000000000 6.50000000000000000
2 406.53038412734986196 288.92500000000001137 366.67303232770302657 0.00000000000000000 1.00000000000000000 0.00000000000000000 0.00000000000000000 0.00000000000000000 1.00000000000000000 1.00000000000000000 0.00000000000000000 0.00000000000000000 14.15000000000000036
2 298.04448817359207169 288.92500000000001137 603.80396211897436842 0.00000000000000000 1.00000000000000000 0.00000000000000000 0.00000000000000000 0.00000000000000000 1.00000000000000000 1.00000000000000000 0.00000000000000000 0.00000000000000000 6.50000000000000000
2 617.47518181521081715 288.92500000000001137 597.87568887419251951 0.00000000000000000 1.00000000000000000 0.00000000000000000 0.00000000000000000 0.00000000000000000 1.00000000000000000 1.00000000000000000 0.00000000000000000 0.00000000000000000 6.50000000000000000
1 -35.00000000000000000 282.57499999999998863 371.67303232770302657 0.00000000000000000 1.00000000000000000 0.00000000000000000 
1 641.47518181521081715 282.57499999999998863 215.08319895421948331 0.00000000000000000 1.00000000000000000 0.00000000000000000 
1 -23.39699639663488639 282.57499999999998863 381.32695342669023830 0.00000000000000000 1.00000000000000000 0.00000000000000000 
1 9.51178195420828487 282.57499999999998863 408.70768694391153986 0.00000000000000000 1.00000000000000000 0.00000000000000000 
1 641.47518181521081715 282.57499999999998863 589.87568887419251951 0.00000000000000000 1.00000000000000000 0.00000000000000000 
1 274.04448817359207169 282.57499999999998863 628.80396211897436842 0.00000000000000000 1.00000000000000000 0.00000000000000000 
1 632.47518181521081715 282.57499999999998863 622.87568887419251951 0.00000000000000000 1.00000000000000000 0.00000000000000000 
1 -0.00000000000000298 281.57499999999998863 398.82303232770300383 0.00000000000000000 1.00000000000000000 0.00000000000000000 
1 -40.00000000000000000 281.57499999999998863 36.46917068673838003 0.00000000000000000 1.00000000000000000 0.00000000000000000 
1 -10.00000000000000000 281.57499999999998863 39.78377318160642062 0.00000000000000000 1.00000000000000000 0.00000000000000000 
1 298.04448817359207169 281.57499999999998863 610.30396211897436842 0.00000000000000000 1.00000000000000000 0.00000000000000000 
1 406.53038412734986196 281.57499999999998863 380.82303232770300383 0.00000000000000000 1.00000000000000000 0.00000000000000000 
1 617.47518181521081715 281.57499999999998863 604.37568887419251951 0.00000000000000000 1.00000000000000000 0.00000000000000000 
1 586.47518181521081715 281.57499999999998863 223.71339006435130159 0.00000000000000000 1.00000000000000000 0.00000000000000000 
1 616.47518181521070346 281.57499999999998863 236.70245827242160885 0.00000000000000000 1.00000000000000000 0.00000000000000000 
Polygon3D 0
PolygonOnTriangulations 0
Surfaces 21
1 -70.00000000000000000 282.57499999999998863 -1.34543180812966057 0.10981848824610629 0.00000000000000000 -0.99395165860284163 0.99395165860284163 0.00000000000000000 0.10981848824610629 0.00000000000000000 -1.00000000000000000 0.00000000000000000 
1 -70.00000000000000000 282.57499999999998863 346.67303232770302657 -1.00000000000000000 0.00000000000000000 0.00000000000000000 0.00000000000000000 0.00000000000000000 -1.00000000000000000 -0.00000000000000000 -1.00000000000000000 -0.00000000000000000 
1 204.50868054973761900 282.57499999999998863 28.98414010563999454 0.38682881721883478 0.00000000000000000 -0.92215154186775472 0.92215154186775472 0.00000000000000000 0.38682881721883478 0.00000000000000000 -1.00000000000000000 0.00000000000000000 
1 286.73048197983104046 282.57499999999998863 317.90199460361026240 -0.00000000000000000 -1.00000000000000000 -0.00000000000000000 0.00000000000000000 0.00000000000000000 -1.00000000000000000 1.00000000000000000 0.00000000000000000 0.00000000000000000 
2 0.00000000000000000 282.57499999999998863 386.67303232770302657 0.00000000000000000 1.00000000000000000 0.00000000000000000 0.00000000000000000 0.00000000000000000 1.00000000000000000 1.00000000000000000 0.00000000000000000 0.00000000000000000 24.00000000000000000
2 0.00000000000000000 281.57499999999998863 386.67303232770302657 0.00000000000000000 1.00000000000000000 0.00000000000000000 0.00000000000000000 0.00000000000000000 1.00000000000000000 1.00000000000000000 0.00000000000000000 0.00000000000000000 12.15000000000000036
2 -40.00000000000000000 281.57499999999998863 29.96917068673838003 0.00000000000000000 1.00000000000000000 0.00000000000000000 0.00000000000000000 0.00000000000000000 1.00000000000000000 1.00000000000000000 0.00000000000000000 0.00000000000000000 6.50000000000000000
2 -10.00000000000000000 281.57499999999998863 33.28377318160642062 0.00000000000000000 1.00000000000000000 0.00000000000000000 0.00000000000000000 0.00000000000000000 1.00000000000000000 1.00000000000000000 0.00000000000000000 0.00000000000000000 6.50000000000000000
2 298.04448817359207169 281.57499999999998863 603.80396211897436842 0.00000000000000000 1.00000000000000000 0.00000000000000000 0.00000000000000000 0.00000000000000000 1.00000000000000000 1.00000000000000000 0.00000000000000000 0.00000000000000000 6.50000000000000000
2 406.53038412734986196 281.57499999999998863 366.67303232770302657 0.00000000000000000 1.00000000000000000 0.00000000000000000 0.00000000000000000 0.00000000000000000 1.00000000000000000 1.00000000000000000 0.00000000000000000 0.00000000000000000 14.15000000000000036
2 617.47518181521081715 281.57499999999998863 597.87568887419251951 0.00000000000000000 1.00000000000000000 0.00000000000000000 0.00000000000000000 0.00000000000000000 1.00000000000000000 1.00000000000000000 0.00000000000000000 0.00000000000000000 6.50000000000000000
2 586.47518181521081715 281.57499999999998863 217.21339006435130159 0.00000000000000000 1.00000000000000000 0.00000000000000000 0.00000000000000000 0.00000000000000000 1.00000000000000000 1.00000000000000000 0.00000000000000000 0.00000000000000000 6.50000000000000000
2 616.47518181521081715 281.57499999999998863 230.20245827242160885 0.00000000000000000 1.00000000000000000 0.00000000000000000 0.00000000000000000 0.00000000000000000 1.00000000000000000 1.00000000000000000 0.00000000000000000 0.00000000000000000 6.50000000000000000
1 286.73048197983098362 288.92500000000001137 317.90199460361026240 0.00000000000000000 1.00000000000000000 0.00000000000000000 0.00000000000000000 0.00000000000000000 1.00000000000000000 1.00000000000000000 0.00000000000000000 0.00000000000000000 
1 -35.00000000000000000 282.57499999999998863 371.67303232770302657 -0.58123819371909646 0.00000000000000000 0.81373347120673500 -0.81373347120673500 0.00000000000000000 -0.58123819371909646 0.00000000000000000 -1.00000000000000000 0.00000000000000000 
1 612.25023417682496074 282.57499999999998863 200.02564007545265667 0.45801146355869587 0.00000000000000000 -0.88894628591879576 0.88894628591879576 0.00000000000000000 0.45801146355869587 0.00000000000000000 -1.00000000000000000 0.00000000000000000 
1 274.04448817359207169 282.57499999999998863 628.80396211897436842 -0.63958799810095057 0.00000000000000000 0.76871788888071191 -0.76871788888071191 0.00000000000000000 -0.63958799810095057 0.00000000000000000 -1.00000000000000000 0.00000000000000000 
1 641.47518181521081715 282.57499999999998863 215.08319895421948331 1.00000000000000000 0.00000000000000000 0.00000000000000000 0.00000000000000000 0.00000000000000000 1.00000000000000000 0.00000000000000000 -1.00000000000000000 0.00000000000000000 
1 274.04448817359207169 282.57499999999998863 628.80396211897436842 -0.63958799810095057 0.00000000000000000 0.76871788888071191 -0.76871788888071191 0.00000000000000000 -0.63958799810095057 0.00000000000000000 -1.00000000000000000 0.00000000000000000 
1 641.47518181521081715 282.57499999999998863 589.87568887419251951 0.96476382123773219 0.00000000000000000 0.26311740579210879 -0.26311740579210879 0.00000000000000000 0.96476382123773219 0.00000000000000000 -1.00000000000000000 0.00000000000000000 
1 632.47518181521081715 282.57499999999998863 622.87568887419251951 0.01653726273803842 0.00000000000000000 0.99986325012030175 -0.99986325012030175 0.00000000000000000 0.01653726273803842 0.00000000000000000 -1.00000000000000000 0.00000000000000000 
Triangulations 0

TShapes 168
Ve
0.000000100000000
-70.000000000000000 282.574999999999989 -1.345431808129661
0 0

0101101
*
Ve
0.000000100000000
-70.000000000000000 288.925000000000011 -1.345431808129661
0 0

0101101
*
Ed
 0.000000100000000 1 1 0
1  1 0 0.000000000000000 6.350000000000023
0

0101000
+168 3 -167 3 *
Ve
0.000000100000000
204.508680549737619 282.574999999999989 28.984140105639995
0 0

0101101
*
Ve
0.000000100000000
204.508680549737619 288.925000000000011 28.984140105639995
0 0

0101101
*
Ed
 0.000000100000000 1 1 0
1  2 0 0.000000000000000 6.350000000000023
0

0101000
+165 3 -164 3 *
Ed
 0.000000100000000 1 1 0
1  3 0 0.000000000000000 276.179106070011073
0

0101000
+168 3 -165 3 *
Ed
 0.000000100000000 1 1 0
1  4 0 0.000000000000000 276.179106070011073
0

0101000
+167 5 -164 5 *
Wi

0101100
+166 0 -163 0 -162 0 +161 4 *
Fa
0  0.000000100000000 1 0

0101000
+160 0 *
Ve
0.000000100000000
-70.000000000000000 282.574999999999989 346.673032327703027
0 0

0101101
*
Ve
0.000000100000000
-70.000000000000000 288.925000000000011 346.673032327703027
0 0

0101101
*
Ed
 0.000000100000000 1 1 0
1  5 0 0.000000000000000 6.350000000000023
0

0101000
+158 3 -157 3 *
Ed
 0.000000100000000 1 1 0
1  6 0 0.000000000000000 348.018464135832687
0

0101000
+158 3 -168 3 *
Ed
 0.000000100000000 1 1 0
1  7 0 0.000000000000000 348.018464135832687
0

0101000
+157 5 -167 5 *
Wi

0101100
+156 0 -166 0 -155 0 +154 4 *
Fa
0  0.000000100000000 2 0

0101000
+153 0 *
Ve
0.000000100000000
612.250234176824961 282.574999999999989 200.025640075452657
0 0

0101101
*
Ve
0.000000100000000
612.250234176824961 288.925000000000011 200.025640075452657
0 0

0101101
*
Ed
 0.000000100000000 1 1 0
1  8 0 0.000000000000000 6.350000000000023
0

0101000
+151 3 -150 3 *
Ed
 0.000000100000000 1 1 0
1  9 0 0.000000000000000 442.163283489430341
0

0101000
+165 3 -151 3 *
Ed
 0.000000100000000 1 1 0
1  10 0 0.000000000000000 442.163283489430341
0

0101000
+164 5 -150 5 *
Wi

0101100
+163 0 -149 0 -148 0 +147 4 *
Fa
0  0.000000100000000 3 0

0101000
+146 0 *
Ve
0.000000100000000
-35.000000000000000 282.574999999999989 371.673032327703027
0 0

0101101
*
Ed
 0.000000100000000 1 1 0
1  11 0 0.000000000000000 43.011626335213137
0

0101000
+144 3 -158 3 *
Ve
0.000000100000572
-23.396996396634819 282.574999999999989 381.326953426690807
0 0

0101101
*
Ed
 0.000000100000000 1 1 0
1  12 0 386.931914649878763 402.025883154059159
0

0101000
+142 3 -144 3 *
Ve
0.000000100000000
-0.000000000000006 282.574999999999989 410.673032327703027
0 0

0101101
*
Ed
 0.000000100000000 1 1 0
1  13 0 4.487751169652210 6.283185307179586
2  1 5 0 4.487751169652210 6.283185307179586
0

0101000
+142 3 -140 3 *
Ve
0.000000100000000
641.475181815210817 282.574999999999989 215.083198954219483
0 0

0101101
*
Ed
 0.000000100000000 1 1 0
1  14 0 0.000000000000000 32.875943238999618
0

0101000
+151 3 -138 3 *
Ve
0.000000100000494
9.511781954207791 282.574999999999989 408.707686943911540
0 0

0101101
*
Ed
 0.000000100000000 1 1 0
1  15 0 0.000000000000000 0.407509765066208
2  2 5 0 0.000000000000000 0.407509765066208
0

0101000
+140 3 -136 3 *
Ve
0.000000100000000
641.475181815210817 282.574999999999989 589.875688874192520
0 0

0101101
*
Ed
 0.000000100000000 1 1 0
1  16 0 0.000000000000000 374.792489919973036
0

0101000
+138 3 -134 3 *
Ve
0.000000100000000
274.044488173592072 282.574999999999989 628.803962118974368
0 0

0101101
*
Ed
 0.000000100000000 1 1 0
1  17 0 0.000000000000000 344.121959493561008
0

0101000
+132 3 -136 3 *
Ve
0.000000100000000
632.475181815210817 282.574999999999989 622.875688874192520
0 0

0101101
*
Ed
 0.000000100000000 1 1 0
1  18 0 0.000000000000000 34.205262752974143
0

0101000
+134 3 -130 3 *
Ed
 0.000000100000000 1 1 0
1  19 0 0.000000000000000 358.479715699614928
0

0101000
+130 3 -132 3 *
Wi

0101100
+155 0 +143 0 +162 0 +141 0 +148 0 -139 0 +137 0 -135 0 +133 0 +131 0 
+129 0 +128 0 *
Ve
0.000000100000003
-0.000000000000003 282.574999999999989 398.823032327703004
0 0

0101101
*
Ve
0.000000100001844
-11.138677960809162 282.574999999999989 391.526109010111782
0 0

0101101
*
Ed
 0.000000100000000 1 1 0
1  20 0 0.000000000000000 5.123284185736336
2  3 6 0 0.000000000000000 5.123284185736336
0

0101000
+126 3 -125 3 *
Ve
0.000000100001809
-2.746536481617397 282.574999999999989 398.508531360489997
0 0

0101101
*
Ed
 0.000000100000000 1 1 0
1  21 0 6.055162056161667 6.283185307179586
2  3 6 0 6.055162056161667 6.283185307179586
0

0101000
+123 3 -126 3 *
Ed
 0.000000100000000 1 1 0
1  22 0 5.123284185736336 6.055162056161667
2  4 6 0 5.123284185736336 6.055162056161667
0

0101000
+125 3 -123 3 *
Wi

0101100
+124 0 +122 0 +121 0 *
Ve
0.000000100000000
-40.000000000000000 282.574999999999989 36.469170686738380
0 0

0101101
*
Ed
 0.000000100000000 1 1 0
1  23 0 0.000000000000000 6.283185307179586
2  5 7 0 0.000000000000000 6.283185307179586
0

0101100
+119 3 -119 3 *
Wi

0101100
+118 0 *
Ve
0.000000100000002
-10.000000000000000 282.574999999999989 39.783773181606421
0 0

0101101
*
Ed
 0.000000100000000 1 1 0
1  24 0 0.000000000000000 6.283185307179586
2  6 8 0 0.000000000000000 6.283185307179586
0

0101100
+116 3 -116 3 *
Wi

0101100
+115 0 *
Ve
0.000000100000000
298.044488173592072 282.574999999999989 610.303962118974368
0 0

0101101
*
Ed
 0.000000100000000 1 1 0
1  25 0 0.000000000000000 6.283185307179586
2  7 9 0 0.000000000000000 6.283185307179586
0

0101100
+113 3 -113 3 *
Wi

0101100
+112 0 *
Ve
0.000000100000000
406.530384127349862 282.574999999999989 380.823032327703004
0 0

0101101
*
Ed
 0.000000100000000 1 1 0
1  26 0 0.000000000000000 6.283185307179586
2  8 10 0 0.000000000000000 6.283185307179586
0

0101100
+110 3 -110 3 *
Wi

0101100
+109 0 *
Ve
0.000000100000000
617.475181815210817 282.574999999999989 604.375688874192520
0 0

0101101
*
Ed
 0.000000100000000 1 1 0
1  27 0 0.000000000000000 6.283185307179586
2  9 11 0 0.000000000000000 6.283185307179586
0

0101100
+107 3 -107 3 *
Wi

0101100
+106 0 *
Ve
0.000000100000000
586.475181815210817 282.574999999999989 223.713390064351302
0 0

0101101
*
Ed
 0.000000100000000 1 1 0
1  28 0 0.000000000000000 6.283185307179586
2  10 12 0 0.000000000000000 6.283185307179586
0

0101100
+104 3 -104 3 *
Wi

0101100
+103 0 *
Ve
0.000000100000114
616.475181815210703 282.574999999999989 236.702458272421609
0 0

0101101
*
Ed
 0.000000100000000 1 1 0
1  29 0 0.000000000000000 6.283185307179586
2  11 13 0 0.000000000000000 6.283185307179586
0

0101100
+101 3 -101 3 *
Wi

0101100
+100 0 *
Fa
0  0.000000100000000 4 0

0101000
+127 0 +120 0 +117 0 +114 0 +111 0 +108 0 +105 0 +102 0 +99 0 *
Ve
0.000000100000000
-35.000000000000000 288.925000000000011 371.673032327703027
0 0

0101101
*
Ed
 0.000000100000000 1 1 0
1  30 0 0.000000000000000 43.011626335213137
0

0101000
+97 5 -157 5 *
Ve
0.000000100000572
-23.396996396634819 288.925000000000011 381.326953426690807
0 0

0101101
*
Ed
 0.000000100000000 1 1 0
1  31 0 386.931914649878763 402.025883154059159
0

0101000
+95 5 -97 5 *
Ve
0.000000100000000
-0.000000000000006 288.925000000000011 410.673032327703027
0 0

0101101
*
Ed
 0.000000100000000 1 1 0
1  32 0 4.487751169652210 6.283185307179586
2  12 5 0 4.487751169652210 6.283185307179586
0

0101000
+95 3 -93 3 *
Ve
0.000000100000000
641.475181815210817 288.925000000000011 215.083198954219483
0 0

0101101
*
Ed
 0.000000100000000 1 1 0
1  33 0 0.000000000000000 32.875943238999618
0

0101000
+150 5 -91 5 *
Ve
0.000000100000494
9.511781954207791 288.925000000000011 408.707686943911540
0 0

0101101
*
Ed
 0.000000100000000 1 1 0
1  34 0 0.000000000000000 0.407509765066208
2  13 5 0 0.000000000000000 0.407509765066208
0

0101000
+93 3 -89 3 *
Ve
0.000000100000000
641.475181815210817 288.925000000000011 589.875688874192520
0 0

0101101
*
Ed
 0.000000100000000 1 1 0
1  35 0 0.000000000000000 374.792489919973036
0

0101000
+91 5 -87 5 *
Ve
0.000000100000000
274.044488173592072 288.925000000000011 628.803962118974368
0 0

0101101
*
Ed
 0.000000100000000 1 1 0
1  36 0 0.000000000000000 344.121959493561008
0

0101000
+85 5 -89 5 *
Ve
0.000000100000000
632.475181815210817 288.925000000000011 622.875688874192520
0 0

0101101
*
Ed
 0.000000100000000 1 1 0
1  37 0 0.000000000000000 34.205262752974143
0

0101000
+87 5 -83 5 *
Ed
 0.000000100000000 1 1 0
1  38 0 0.000000000000000 358.479715699614928
0

0101000
+83 5 -85 5 *
Wi

0101100
-154 4 -96 4 -161 4 -94 4 -147 4 +92 0 -90 4 +88 0 -86 4 -84 4 
-82 4 -81 4 *
Ve
0.000000100000000
-40.000000000000000 288.925000000000011 36.469170686738380
0 0

0101101
*
Ed
 0.000000100000000 1 1 0
1  39 0 0.000000000000000 6.283185307179586
2  14 7 0 0.000000000000000 6.283185307179586
0

0101100
+79 3 -79 3 *
Wi

0101100
-78 0 *
Ve
0.000000100000002
-10.000000000000000 288.925000000000011 39.783773181606421
0 0

0101101
*
Ed
 0.000000100000000 1 1 0
1  40 0 0.000000000000000 6.283185307179586
2  15 8 0 0.000000000000000 6.283185307179586
0

0101100
+76 3 -76 3 *
Wi

0101100
-75 0 *
Ve
0.000000100000003
-0.000000000000003 288.925000000000011 398.823032327703004
0 0

0101101
*
Ve
0.000000100001844
-11.138677960809162 288.925000000000011 391.526109010111782
0 0

0101101
*
Ed
 0.000000100000000 1 1 0
1  41 0 0.000000000000000 5.123284185736336
2  16 6 0 0.000000000000000 5.123284185736336
0

0101000
+73 3 -72 3 *
Ve
0.000000100001809
-2.746536481617397 288.925000000000011 398.508531360489997
0 0

0101101
*
Ed
 0.000000100000000 1 1 0
1  42 0 6.055162056161667 6.283185307179586
2  16 6 0 6.055162056161667 6.283185307179586
0

0101000
+70 3 -73 3 *
Ed
 0.000000100000000 1 1 0
1  43 0 5.123284185736336 6.055162056161667
2  17 6 0 5.123284185736336 6.055162056161667
0

0101000
+72 3 -70 3 *
Wi

0101100
-71 0 -69 0 -68 0 *
Ve
0.000000100000000
586.475181815210817 288.925000000000011 223.713390064351302
0 0

0101101
*
Ed
 0.000000100000000 1 1 0
1  44 0 0.000000000000000 6.283185307179586
2  18 12 0 0.000000000000000 6.283185307179586
0

0101100
+66 3 -66 3 *
Wi

0101100
-65 0 *
Ve
0.000000100000114
616.475181815210703 288.925000000000011 236.702458272421609
0 0

0101101
*
Ed
 0.000000100000000 1 1 0
1  45 0 0.000000000000000 6.283185307179586
2  19 13 0 0.000000000000000 6.283185307179586
0

0101100
+63 3 -63 3 *
Wi

0101100
-62 0 *
Ve
0.000000100000000
406.530384127349862 288.925000000000011 380.823032327703004
0 0

0101101
*
Ed
 0.000000100000000 1 1 0
1  46 0 0.000000000000000 6.283185307179586
2  20 10 0 0.000000000000000 6.283185307179586
0

0101100
+60 3 -60 3 *
Wi

0101100
-59 0 *
Ve
0.000000100000000
298.044488173592072 288.925000000000011 610.303962118974368
0 0

0101101
*
Ed
 0.000000100000000 1 1 0
1  47 0 0.000000000000000 6.283185307179586
2  21 9 0 0.000000000000000 6.283185307179586
0

0101100
+57 3 -57 3 *
Wi

0101100
-56 0 *
Ve
0.000000100000000
617.475181815210817 288.925000000000011 604.375688874192520
0 0

0101101
*
Ed
 0.000000100000000 1 1 0
1  48 0 0.000000000000000 6.283185307179586
2  22 11 0 0.000000000000000 6.283185307179586
0

0101100
+54 3 -54 3 *
Wi

0101100
-53 0 *
Fa
0  0.000000100000000 14 0

0101000
+80 0 +77 0 +74 0 +67 0 +64 0 +61 0 +58 0 +55 0 +52 0 *
Ed
 0.000000100000000 1 1 0
1  49 0 0.000000000000000 6.350000000000023
0

0101000
+144 3 -97 3 *
Wi

0101100
+50 0 -156 0 -143 0 +96 4 *
Fa
0  0.000000100000000 15 0

0101000
+49 0 *
Ed
 0.000000100000000 1 1 0
1  50 0 0.000000000000000 6.350000000000023
0

0101000
+138 3 -91 3 *
Wi

0101100
+149 0 -47 0 -137 0 +90 4 *
Fa
0  0.000000100000000 16 0

0101000
+46 0 *
Ed
 0.000000100000000 1 1 0
1  51 0 0.000000000000000 6.350000000000023
2  23 5 0 0.000000000000000 6.350000000000023
0

0101000
+142 3 -95 3 *
Wi

0101100
-141 0 -50 0 +94 4 +44 0 *
Fa
0  0.000000100000000 17 0

0101000
+43 0 *
Ed
 0.000000100000000 1 1 0
1  52 0 0.000000000000000 6.350000000000023
2  24 5 0 0.000000000000000 6.350000000000023
0

0101000
+136 3 -89 3 *
Wi

0101100
+135 0 +41 0 -88 0 -92 0 -44 0 +139 0 *
Fa
0  0.000000100000000 5 0

0111000
+40 0 *
Ed
 0.000000100000000 1 1 0
1  53 0 0.000000000000000 6.350000000000023
0

0101000
+134 3 -87 3 *
Wi

0101100
+47 0 -38 0 -133 0 +86 4 *
Fa
0  0.000000100000000 18 0

0101000
+37 0 *
Ed
 0.000000100000000 1 1 0
1  54 0 0.000000000000000 6.350000000000023
0

0101000
+132 3 -85 3 *
Wi

0101100
-131 0 -41 0 +84 4 +35 0 *
Fa
0  0.000000100000000 19 0

0101000
+34 0 *
Ed
 0.000000100000000 1 1 0
1  55 0 0.000000000000000 6.350000000000023
0

0101000
+130 3 -83 3 *
Wi

0101100
+38 0 -32 0 -129 0 +82 4 *
Fa
0  0.000000100000000 20 0

0101000
+31 0 *
Wi

0101100
+32 0 -35 0 -128 0 +81 4 *
Fa
0  0.000000100000000 21 0

0101000
+29 0 *
Ed
 0.000000100000000 1 1 0
1  56 0 1.000000000000000 7.350000000000023
3  25 26CN 6 0 1.000000000000000 7.350000000000023
0

0101000
+126 3 -73 3 *
Wi

0101100
-71 0 -68 0 -69 0 +27 0 +122 0 +121 0 +124 0 -27 0 *
Fa
0  0.000000100000000 6 0

0101000
+26 0 *
Ed
 0.000000100000000 1 1 0
1  57 0 1.000000000000000 7.350000000000023
3  27 28CN 7 0 1.000000000000000 7.350000000000023
0

0101000
+119 3 -79 3 *
Wi

0101100
-78 0 +24 0 +118 0 -24 0 *
Fa
0  0.000000100000000 7 0

0101000
+23 0 *
Ed
 0.000000100000000 1 1 0
1  58 0 1.000000000000000 7.350000000000023
3  29 30CN 8 0 1.000000000000000 7.350000000000023
0

0101000
+116 3 -76 3 *
Wi

0101100
-75 0 +21 0 +115 0 -21 0 *
Fa
0  0.000000100000000 8 0

0101000
+20 0 *
Ed
 0.000000100000000 1 1 0
1  59 0 1.000000000000000 7.350000000000023
3  31 32CN 9 0 1.000000000000000 7.350000000000023
0

0101000
+113 3 -57 3 *
Wi

0101100
-56 0 +18 0 +112 0 -18 0 *
Fa
0  0.000000100000000 9 0

0101000
+17 0 *
Ed
 0.000000100000000 1 1 0
1  60 0 1.000000000000000 7.350000000000023
3  33 34CN 10 0 1.000000000000000 7.350000000000023
0

0101000
+110 3 -60 3 *
Wi

0101100
-59 0 +15 0 +109 0 -15 0 *
Fa
0  0.000000100000000 10 0

0101000
+14 0 *
Ed
 0.000000100000000 1 1 0
1  61 0 1.000000000000000 7.350000000000023
3  35 36CN 11 0 1.000000000000000 7.350000000000023
0

0101000
+107 3 -54 3 *
Wi

0101100
-53 0 +12 0 +106 0 -12 0 *
Fa
0  0.000000100000000 11 0

0101000
+11 0 *
Ed
 0.000000100000000 1 1 0
1  62 0 1.000000000000000 7.350000000000023
3  37 38CN 12 0 1.000000000000000 7.350000000000023
0

0101000
+104 3 -66 3 *
Wi

0101100
-65 0 +9 0 +103 0 -9 0 *
Fa
0  0.000000100000000 12 0

0101000
+8 0 *
Ed
 0.000000100000000 1 1 0
1  63 0 1.000000000000000 7.350000000000023
3  39 40CN 13 0 1.000000000000000 7.350000000000023
0

0101000
+101 3 -63 3 *
Wi

0101100
-62 0 +6 0 +100 0 -6 0 *
Fa
0  0.000000100000000 13 0

0101000
+5 0 *
Sh

0101100
+159 0 +152 0 +145 0 +98 0 +51 0 +48 0 +45 0 +42 0 +39 0 +36 0 
+33 0 +30 0 +28 0 -25 0 -22 0 -19 0 -16 0 -13 0 -10 0 -7 0 
-4 0 *
So

0100000
+3 0 *
Co

1100000
+2 0 *

+1 1 