DBRep_DrawableShape

CASCADE Topology V1, (c) Matra-Datavision
Locations 0
Curve2ds 78
1 6.3499999999999996 0 0 -1 
1 0 0 0 1 
1 6.3499999999999996 0 0 1 
1 0 0 1 0 
1 6.3499999999999996 0 0 -1 
1 63.5 0 0 1 
1 6.3499999999999996 0 0 1 
1 0 63.5 1 0 
1 0 0 0 -1 
1 6.3499999999999996 0 0 1 
1 3.1415926535897931 1 0 1 
1 0 50.799999999999997 -1 0 
2 44.450000000000003 12.699999999999999 1 0 -0 1 6.5
1 0 7.3499999999999996 1 0 
2 44.450000000000003 50.799999999999997 1 0 -0 1 6.5
1 0 7.3499999999999996 1 0 
1 0 0 0 1 
1 0 0 1 0 
1 0 0 1 0 
1 0 63.5 1 0 
1 0 0 1 0 
1 0 0 1 0 
1 0 -63.5 1 0 
1 0 63.5 1 0 
1 0 0 0 -1 
1 63.5 0 0 1 
1 0 0 0 1 
1 0 63.5 1 0 
1 0 -63.5 1 0 
1 0 0 1 0 
2 6.3499999999999996 6.3499999999999996 1 0 -0 1 6.3499999999999996
1 0 1 1 0 
2 6.3499999999999996 6.3499999999999996 1 0 -0 1 6.3499999999999996
1 0 39.100000000000001 1 0 
1 4.7123889803846897 1 0 1 
1 6.2831853071795862 -0 0 1 
1 0 -0 0 1 
2 44.450000000000003 12.699999999999999 1 0 -0 1 6.5
1 0 1 1 0 
1 6.2831853071795862 -0 0 1 
1 0 -0 0 1 
2 44.450000000000003 50.799999999999997 1 0 -0 1 6.5
1 0 1 1 0 
1 0 0 1 0 
1 0 0 1 0 
2 0 0 1 0 -0 1 19.050000000000001
1 6.2831853071795862 0 1 0 
1 0 0 1 0 
1 0 -38.100000000000001 1 0 
1 0 0 1 0 
1 0 0 0 1 
2 23.077941176470631 -19.050000000000001 1 0 -0 1 10
1 0 1 1 0 
2 0 0 1 0 -0 1 10
1 0 1 1 0 
2 0 0 1 0 -0 1 10
1 0 1 1 0 
2 0 0 1 0 -0 1 10
1 0 7.3499999999999996 1 0 
2 23.077941176470631 -19.050000000000001 1 0 -0 1 10
1 0 7.3499999999999996 1 0 
2 0 0 1 0 -0 1 10
1 0 7.3499999999999996 1 0 
1 6.2831853071795862 -0 0 1 
1 0 -0 0 1 
1 0 0 1 0 
1 0 6.3499999999999996 1 0 
1 23.077941176470631 0 0 1 
1 0 0 1 0 
1 7.8539816339744828 0 0 1 
1 23.077941176470631 0 0 1 
1 0 38.100000000000001 1 0 
1 4.7123889803846897 0 0 1 
1 0 -38.100000000000001 1 0 
1 0 6.3499999999999996 1 0 
1 0 6.3499999999999996 1 0 
2 0 0 1 0 -0 1 19.050000000000001
1 6.2831853071795862 6.3499999999999996 1 0 
Curves 39
1 0 -31.75 6.3499999999999996 -0 1 0 
1 0 -31.75 6.3499999999999996 1 0 -0 
1 63.5 -31.75 6.3499999999999996 -0 1 0 
1 6.3499999999999996 -19.050000000000001 6.3499999999999996 1 0 -0 
1 0 31.75 6.3499999999999996 1 0 -0 
1 12.699999999999999 -19.050000000000001 6.3499999999999996 -0 1 0 
1 0 19.049999999999997 6.3499999999999996 -1 -0 0 
2 44.450000000000003 -19.050000000000001 6.3499999999999996 0 0 1 1 0 -0 -0 1 0 6.5
2 44.450000000000003 19.050000000000001 6.3499999999999996 0 0 1 1 0 -0 -0 1 0 6.5
1 0 -31.75 0 1 0 -0 
1 63.5 -31.75 0 0 0 1 
1 0 -31.75 0 0 0 1 
1 63.5 31.75 0 0 0 1 
1 63.5 -31.75 0 -0 1 0 
1 0 31.75 0 1 0 -0 
1 0 31.75 0 0 0 1 
2 12.699999999999999 -19.050000000000001 12.699999999999999 0 1 0 0 -0 1 1 0 -0 6.3499999999999996
2 12.699999999999999 19.050000000000001 12.699999999999999 0 1 0 0 -0 1 1 0 -0 6.3499999999999996
1 6.3499999999999996 -19.050000000000001 12.699999999999999 -0 1 0 
1 50.950000000000003 -19.050000000000004 -1 0 0 1 
2 44.450000000000003 -19.050000000000001 0 0 0 1 1 0 -0 -0 1 0 6.5
1 50.950000000000003 19.049999999999997 -1 0 0 1 
2 44.450000000000003 19.050000000000001 0 0 0 1 1 0 -0 -0 1 0 6.5
1 0 -19.050000000000001 0 0 0 1 
2 0 0 23.077941176470631 1 0 0 -0 0 1 0 -1 0 19.050000000000001
1 0 19.050000000000001 0 0 0 1 
1 0 -31.75 0 -0 1 0 
2 0 0 23.077941176470631 1 0 0 -0 0 1 0 -1 0 10
2 0 0 23.077941176470631 1 0 0 -0 0 1 0 -1 0 10
2 0 0 23.077941176470631 1 0 0 -0 0 1 0 -1 0 10
2 6.3499999999999996 0 23.077941176470631 1 0 0 -0 0 1 0 -1 0 10
2 6.3499999999999996 0 23.077941176470631 1 0 0 -0 0 1 0 -1 0 10
2 6.3499999999999996 0 23.077941176470631 1 0 0 -0 0 1 0 -1 0 10
1 -1 2.4492935982947061e-15 33.077941176470631 1 0 0 
1 6.3499999999999996 -19.050000000000001 0 0 0 1 
1 0 -19.050000000000001 23.077941176470631 1 0 -0 
1 0 19.050000000000001 23.077941176470631 1 0 -0 
1 6.3499999999999996 19.050000000000001 0 0 0 1 
2 6.3499999999999996 0 23.077941176470631 1 0 0 -0 0 1 0 -1 0 19.050000000000001
Polygon3D 0
PolygonOnTriangulations 0
Surfaces 26
1 0 -31.75 6.3499999999999996 0 0 1 1 0 -0 -0 1 0 
1 0 -31.75 0 1 0 -0 0 0 1 0 -1 0 
1 0 -31.75 0 -0 1 0 0 0 1 1 0 -0 
1 63.5 -31.75 0 1 0 -0 0 0 1 0 -1 0 
1 0 31.75 0 -0 1 0 0 0 1 1 0 -0 
1 12.699999999999999 -19.050000000000001 6.3499999999999996 1 0 -0 0 0 1 0 -1 0 
1 6.3499999999999996 -19.050000000000001 6.3499999999999996 0 0 1 1 0 -0 -0 1 0 
2 12.699999999999999 -20.050000000000001 12.699999999999999 0 1 0 0 -0 1 1 0 -0 6.3499999999999996
2 44.450000000000003 -19.050000000000001 -1 0 0 1 1 0 -0 -0 1 0 6.5
2 44.450000000000003 19.050000000000001 -1 0 0 1 1 0 -0 -0 1 0 6.5
1 0 -31.75 0 0 0 1 1 0 -0 -0 1 0 
1 6.3499999999999996 -19.050000000000001 6.3499999999999996 -0 1 0 0 0 1 1 0 -0 
1 6.3499999999999996 19.050000000000001 6.3499999999999996 -0 1 0 0 0 1 1 0 -0 
1 0 8.7801757926627343e-16 14.212533090282911 -1 -0 -0 0 0 -1 0 -1 0 
1 0 -19.050000000000001 0 1 0 -0 0 0 1 0 -1 0 
1 0 -19.050000000000001 0 -0 1 0 0 0 1 1 0 -0 
1 0 0 23.077941176470631 1 0 0 -0 0 1 0 -1 0 
2 0 0 23.077941176470631 1 0 0 -0 0 1 0 -1 0 19.050000000000001
1 0 19.050000000000001 0 -0 1 0 0 0 1 1 0 -0 
2 -1 0 23.077941176470631 1 0 0 -0 0 1 0 -1 0 10
1 6.3499999999999996 0 23.077941176470631 1 0 0 -0 0 1 0 -1 0 
1 6.3499999999999996 -19.050000000000001 0 1 0 -0 0 0 1 0 -1 0 
1 4.5163594918591361 -19.050000000000001 13.304224844115668 -0 -1 -0 0 0 -1 1 -0 0 
1 0 -19.050000000000001 23.077941176470631 0 0 1 1 0 -0 -0 1 0 
1 4.516359491859137 19.050000000000004 13.304224844115668 0 1 0 0 -0 1 1 0 -0 
1 6.3500000000000023 6.020430437500612e-16 24.755363294898284 1 0 0 -0 0 1 0 -1 0 
Triangulations 0

TShapes 109
Ve
1.00000003552714e-07
0 -31.75 6.35
0 0

0101101
*
Ve
1.5e-07
0 -19.05 6.35
0 0

0101101
*
Ed
 1.00000003552714e-07 1 1 0
1  1 0 0 12.7
2  1 2 0 0 12.7
2  2 1 0 0 12.7
0

0101000
+109 0 -108 0 *
Ve
1e-07
63.5 -31.75 6.35
0 0

0101101
*
Ed
 1e-07 1 1 0
1  2 0 0 63.5
2  3 3 0 0 63.5
2  4 1 0 0 63.5
0

0101000
-106 0 +109 0 *
Ve
1e-07
63.5 31.75 6.35
0 0

0101101
*
Ed
 1e-07 1 1 0
1  3 0 0 63.5
2  5 4 0 0 63.5
2  6 1 0 0 63.5
0

0101000
-104 0 +106 0 *
Ve
1.5e-07
12.7 -19.05 6.35
0 0

0101101
*
Ed
 1e-07 1 1 0
1  4 0 -6.35 6.35
0

0101000
+108 0 -102 0 *
Ve
1.00000003552714e-07
0 31.75 6.35
0 0

0101101
*
Ed
 1e-07 1 1 0
1  5 0 0 63.5
2  7 5 0 0 63.5
2  8 1 0 0 63.5
0

0101000
-104 0 +100 0 *
Ve
1.5e-07
12.7 19.05 6.35
0 0

0101101
*
Ed
 1.00000005024296e-07 1 1 0
1  6 0 0 38.1
2  9 6 0 0 38.1
2  10 7 0 0 38.1
2  11 8 0 0 38.1
0

0101000
+102 0 -98 0 *
Ve
1.5e-07
0 19.05 6.35
0 0

0101101
*
Ed
 1.00000003552714e-07 1 1 0
1  1 0 50.8 63.5
2  1 2 0 50.8 63.5
2  2 1 0 50.8 63.5
0

0101000
+96 0 -100 0 *
Ed
 1e-07 1 1 0
1  7 0 -12.7 0
2  12 1 0 -12.7 0
0

0101000
+98 0 -96 0 *
Wi

0101000
-107 0 +105 0 +103 0 -101 0 -99 0 -97 0 -95 0 -94 0 *
Ve
1.00000003552714e-07
50.95 -19.05 6.35
0 0

0101101
*
Ed
 1e-07 1 1 0
1  8 0 0 6.28318530717959
2  13 1 0 0 6.28318530717959
2  14 9 0 0 6.28318530717959
0

0101100
+92 0 -92 0 *
Wi

0101100
-91 0 *
Ve
1.00000003552714e-07
50.95 19.05 6.35
0 0

0101101
*
Ed
 1e-07 1 1 0
1  9 0 0 6.28318530717959
2  15 1 0 0 6.28318530717959
2  16 10 0 0 6.28318530717959
0

0101100
+89 0 -89 0 *
Wi

0101100
-88 0 *
Fa
0  1e-07 1 0

0101000
+93 0 +90 0 +87 0 *
Ve
1.00000003552714e-07
63.5 -31.75 0
0 0

0101101
*
Ve
1.00000003552714e-07
0 -31.75 0
0 0

0101101
*
Ed
 1.00000003552714e-07 1 1 0
1  10 0 0 63.5
2  17 3 0 0 63.5
2  18 11 0 0 63.5
0

0101000
-85 0 +84 0 *
Ed
 1e-07 1 1 0
1  11 0 0 6.35
2  19 4 0 0 6.35
2  20 3 0 0 6.35
0

0101000
-106 0 +85 0 *
Ed
 1.00000003552714e-07 1 1 0
1  12 0 0 6.35
2  21 2 0 0 6.35
2  22 3 0 0 6.35
0

0101000
-109 0 +84 0 *
Wi

0101100
-83 0 -82 0 +105 0 +81 0 *
Fa
0  1e-07 3 0

0111000
+80 0 *
Ve
1.00000003552714e-07
63.5 31.75 0
0 0

0101101
*
Ed
 1e-07 1 1 0
1  13 0 0 6.35
2  23 4 0 0 6.35
2  24 5 0 0 6.35
0

0101000
-104 0 +78 0 *
Ed
 1.00000003552714e-07 1 1 0
1  14 0 0 63.5
2  25 4 0 0 63.5
2  26 11 0 0 63.5
0

0101000
-78 0 +85 0 *
Wi

0101100
-82 0 -103 0 +77 0 +76 0 *
Fa
0  1e-07 4 0

0111000
+75 0 *
Ve
1.00000003552714e-07
0 31.75 0
0 0

0101101
*
Ed
 1.00000003552714e-07 1 1 0
1  15 0 0 63.5
2  27 5 0 0 63.5
2  28 11 0 0 63.5
0

0101000
-78 0 +73 0 *
Ed
 1.00000003552714e-07 1 1 0
1  16 0 0 6.35
2  29 2 0 0 6.35
2  30 5 0 0 6.35
0

0101000
-100 0 +73 0 *
Wi

0101100
-72 0 -77 0 +99 0 +71 0 *
Fa
0  1e-07 5 0

0111000
+70 0 *
Ve
1.5e-07
6.35 -19.05 12.7
0 0

0101101
*
Ed
 1.5e-07 1 1 0
1  17 0 3.14159265358979 4.71238898038469
2  31 12 0 3.14159265358979 4.71238898038469
2  32 8 0 3.14159265358979 4.71238898038469
0

0101000
+102 0 -68 0 *
Ve
1.5e-07
6.35 19.05 12.7
0 0

0101101
*
Ed
 1.5e-07 1 1 0
1  18 0 3.14159265358979 4.71238898038469
2  33 13 0 3.14159265358979 4.71238898038469
2  34 8 0 3.14159265358979 4.71238898038469
0

0101000
+98 0 -66 0 *
Ed
 1e-07 1 1 0
1  19 0 0 38.1
2  35 8 0 0 38.1
0

0101000
+68 0 -66 0 *
Wi

0101000
+67 0 -97 0 -65 0 +64 0 *
Fa
0  1e-07 8 0

0101000
+63 0 *
Ve
1.00000003552714e-07
50.95 -19.05 0
0 0

0101101
*
Ed
 1e-07 1 1 0
1  20 0 1 7.35
3  36 37CN 9 0 1 7.35
0

0101000
+61 0 -92 0 *
Ed
 1e-07 1 1 0
1  21 0 0 6.28318530717959
2  38 11 0 0 6.28318530717959
2  39 9 0 0 6.28318530717959
0

0101100
+61 0 -61 0 *
Wi

0101100
-91 0 +60 0 +59 0 -60 0 *
Fa
0  1e-07 9 0

0101000
+58 0 *
Ve
1.00000003552714e-07
50.95 19.05 0
0 0

0101101
*
Ed
 1e-07 1 1 0
1  22 0 1 7.35
3  40 41CN 10 0 1 7.35
0

0101000
+56 0 -89 0 *
Ed
 1e-07 1 1 0
1  23 0 0 6.28318530717959
2  42 11 0 0 6.28318530717959
2  43 10 0 0 6.28318530717959
0

0101100
+56 0 -56 0 *
Wi

0101100
-88 0 +55 0 +54 0 -55 0 *
Fa
0  1e-07 10 0

0101000
+53 0 *
Ve
1.5e-07
0 -19.05 23.0779411764706
0 0

0101101
*
Ed
 1.5e-07 1 1 0
1  24 0 6.35 23.0779411764706
2  44 15 0 6.35 23.0779411764706
2  45 16 0 6.35 23.0779411764706
0

0101000
+108 0 -51 0 *
Ve
1.00000003552714e-07
0 4.66590430475141e-15 42.1279411764706
0 0

0101101
*
Ed
 1.00000003552714e-07 1 1 0
1  25 0 0 1.5707963267949
2  46 17 0 0 1.5707963267949
2  47 18 0 0 1.5707963267949
0

0101000
+49 0 -51 0 *
Ve
1.5e-07
0 19.05 23.0779411764706
0 0

0101101
*
Ed
 1.00000003552714e-07 1 1 0
1  25 0 4.71238898038469 6.28318530717959
2  48 18 0 4.71238898038469 6.28318530717959
2  46 17 0 4.71238898038469 6.28318530717959
0

0101000
+47 0 -49 0 *
Ed
 1.5e-07 1 1 0
1  26 0 6.35 23.0779411764706
2  49 15 0 6.35 23.0779411764706
2  50 19 0 6.35 23.0779411764706
0

0101000
+96 0 -47 0 *
Ed
 1e-07 1 1 0
1  27 0 0 63.5
2  51 11 0 0 63.5
0

0101000
+84 0 -73 0 *
Wi

0101000
+107 0 +50 0 -48 0 -46 0 -45 0 +95 0 -71 0 -44 0 +81 0 *
Ve
1.00000005329071e-07
0 -10 23.0779411764706
0 0

0101101
*
Ve
1.00000007944109e-07
0 10 23.0779411764706
0 0

0101101
*
Ed
 1e-07 1 1 0
1  28 0 1.5707963267949 4.71238898038469
2  52 15 0 1.5707963267949 4.71238898038469
2  53 20 0 1.5707963267949 4.71238898038469
0

0101000
+42 0 -41 0 *
Ve
1.00000002449294e-07
0 2.44929359829471e-15 33.0779411764706
0 0

0101101
*
Ed
 1e-07 1 1 0
1  29 0 4.71238898038469 6.28318530717959
2  54 17 0 4.71238898038469 6.28318530717959
2  55 20 0 4.71238898038469 6.28318530717959
0

0101000
+41 0 -39 0 *
Ed
 1e-07 1 1 0
1  30 0 0 1.5707963267949
2  56 17 0 0 1.5707963267949
2  57 20 0 0 1.5707963267949
0

0101000
+39 0 -42 0 *
Wi

0101100
+40 0 +38 0 +37 0 *
Fa
0  1.00000003552714e-07 14 0

0111000
+43 0 +36 0 *
Ve
1.00000002449294e-07
6.35 2.44929359829471e-15 33.0779411764706
0 0

0101101
*
Ve
1.00000005329071e-07
6.35 -10 23.0779411764706
0 0

0101101
*
Ed
 1e-07 1 1 0
1  31 0 0 1.5707963267949
2  58 21 0 0 1.5707963267949
2  59 20 0 0 1.5707963267949
0

0101000
+34 0 -33 0 *
Ve
1.00000007944109e-07
6.35 10 23.0779411764706
0 0

0101101
*
Ed
 1e-07 1 1 0
1  32 0 1.5707963267949 4.71238898038469
2  60 22 0 1.5707963267949 4.71238898038469
2  61 20 0 1.5707963267949 4.71238898038469
0

0101000
+33 0 -31 0 *
Ed
 1e-07 1 1 0
1  33 0 4.71238898038469 6.28318530717959
2  62 21 0 4.71238898038469 6.28318530717959
2  63 20 0 4.71238898038469 6.28318530717959
0

0101000
+31 0 -34 0 *
Ed
 1e-07 1 1 0
1  34 0 1 7.35
3  64 65CN 20 0 1 7.35
0

0101000
+39 0 -34 0 *
Wi

0101100
-32 0 -30 0 -29 0 +28 0 +38 0 +40 0 +37 0 -28 0 *
Fa
0  1e-07 20 0

0101000
+27 0 *
Wi

0101000
+44 0 +72 0 -76 0 -83 0 *
Wi

0101100
-59 0 *
Wi

0101100
-54 0 *
Fa
0  1.00000003552714e-07 11 0

0111000
-25 0 +24 0 +23 0 *
Ve
1.5e-07
6.35 -19.05 23.0779411764706
0 0

0101101
*
Ed
 1.5e-07 1 1 0
1  35 0 12.7 23.0779411764706
2  66 22 0 12.7 23.0779411764706
2  67 16 0 12.7 23.0779411764706
0

0101000
+68 0 -21 0 *
Ed
 1.5e-07 1 1 0
1  36 0 0 6.35
2  68 16 0 0 6.35
2  69 24 0 0 6.35
2  70 18 0 0 6.35
0

0101000
+51 0 -21 0 *
Wi

0101000
+101 0 +67 0 +20 0 -19 0 -50 0 *
Fa
0  1.5e-07 23 0

0111000
+18 0 *
Ve
1.5e-07
6.35 19.05 23.0779411764706
0 0

0101101
*
Ed
 1.5e-07 1 1 0
1  37 0 0 6.35
2  71 19 0 0 6.35
2  72 24 0 0 6.35
2  73 18 0 0 6.35
0

0101000
+47 0 -16 0 *
Ed
 1.5e-07 1 1 0
1  38 0 12.7 23.0779411764706
2  74 22 0 12.7 23.0779411764706
2  75 19 0 12.7 23.0779411764706
0

0101000
+66 0 -16 0 *
Wi

0101000
+94 0 +45 0 +15 0 -14 0 -65 0 *
Fa
0  1.5e-07 25 0

0111000
+13 0 *
Ve
1.5e-07
6.35 4.66590430475141e-15 42.1279411764706
0 0

0101101
*
Ed
 1.5e-07 1 1 0
1  39 0 4.71238898038469 6.28318530717959
2  76 18 0 4.71238898038469 6.28318530717959
2  77 21 0 4.71238898038469 6.28318530717959
0

0101000
+16 0 -11 0 *
Ed
 1.5e-07 1 1 0
1  39 0 0 1.5707963267949
2  77 21 0 0 1.5707963267949
2  78 18 0 0 1.5707963267949
0

0101000
+11 0 -21 0 *
Wi

0101000
-20 0 +64 0 +14 0 +10 0 +9 0 *
Wi

0101100
-30 0 -32 0 -29 0 *
Fa
0  1.5e-07 26 0

0111000
+8 0 +7 0 *
Wi

0101100
-10 0 -15 0 +46 0 +48 0 +19 0 -9 0 *
Fa
0  1e-07 18 0

0111000
+5 0 *
Sh

0101000
+86 0 -79 0 +74 0 +69 0 -62 0 -57 0 -52 0 +35 0 -26 0 -22 0 
+17 0 +12 0 +6 0 +4 0 *
So

0100000
+3 0 *
Co

1100000
+2 0 *

+1 0 