DBRep_DrawableShape

CASCADE Topology V1, (c) Matra-Datavision
Locations 1
1
              1               0               0               0 
              0               1               0               0 
              0               0               1           12.15 
Curve2ds 17
1 0 4.277996026178613 1 0 
2 0 0 1 0 -0 1 3.3249999999999997
1 6.2831853071795862 -0 0 1 
1 0 -0 0 1 
1 0 0 1 0 
2 0 0 1 0 -0 1 6.3499999999999996
1 0 0 1 0 
2 0 0 1 0 -0 1 3.1749999999999998
1 0 9.1249999999999982 1 0 
2 0 0 1 0 -0 1 3.1749999999999998
1 6.2831853071795862 -0 0 1 
1 0 -0 0 1 
1 0 0.092844342120040863 1 0 
2 8.1437500000000007 8.1437500000000007 1 0 -0 1 7.1437500000000007
1 6.2831853071795862 -6.2831853071795862 0 1 
1 0 -6.2831853071795862 0 1 
1 0 1.5707963267948966 1 0 
Curves 8
2 0 0 3.0250000000000004 0 0 1 1 0 -0 -0 1 0 3.3249999999999997
1 6.3499999999999996 -1.5553014349171384e-15 0 -0.70710678118654746 1.7319121124709863e-16 0.70710678118654757 
2 0 0 0 0 0 1 1 0 -0 -0 1 0 6.3499999999999996
2 0 0 3.0250000000000004 0 0 1 1 0 -0 -0 1 0 3.1749999999999998
2 0 0 12.149999999999999 0 0 1 1 0 -0 -0 1 0 3.1749999999999998
1 3.1749999999999998 -7.7765071745856922e-16 3.0250000000000004 0 0 1 
2 0 0 0 0 0 1 1 0 -0 -0 1 0 7.1437500000000007
2 0 0 -0.66516913686111323 -2.4492935982947064e-16 -1 0 1 -2.4492935982947064e-16 0 0 0 1 7.1746507959016768
Polygon3D 0
PolygonOnTriangulations 0
Surfaces 8
3 0 0 0 0 0 1 1 0 -0 -0 1 0 6.3499999999999996
-0.78539816339744828
1 0 0 3.0250000000000004 0 0 1 1 0 -0 -0 1 0 
1 0 0 0 0 0 1 1 0 -0 -0 1 0 
2 0 0 3.0250000000000004 0 0 1 1 0 -0 -0 1 0 3.1749999999999998
1 0 0 3.0250000000000004 0 0 1 1 0 -0 -0 1 0 
1 0 0 12.149999999999999 0 0 1 1 0 -0 -0 1 0 
1 -8.1437500000000007 -8.1437500000000007 0 0 0 1 1 0 -0 -0 1 0 
4 0 0 -0.66516913686111323 0 0 1 1 0 -0 -0 1 0 7.1746507959016768
Triangulations 0

TShapes 32
Ve
1e-07
3.325 -8.1439012143299e-16 3.025
0 0

0101101
*
Ed
 1e-07 1 1 0
1  1 0 0 6.28318530717959
2  1 1 0 0 6.28318530717959
2  2 2 0 0 6.28318530717959
0

0101000
+32 0 -32 0 *
Ve
1e-07
6.35 -1.55530143491714e-15 0
0 0

0101101
*
Ed
 1e-07 1 1 0
1  2 0 0 4.27799602617861
3  3 4CN 1 0 0 4.27799602617861
0

0101000
-32 0 +30 0 *
Ed
 1e-07 1 1 0
1  3 0 0 6.28318530717959
2  5 1 0 0 6.28318530717959
2  6 3 0 0 6.28318530717959
0

0101000
+30 0 -30 0 *
Wi

0101100
-31 0 +29 0 +28 0 -29 0 *
Fa
0  1e-07 1 0

0111000
+27 0 *
Wi

0101100
+31 0 *
Ve
1e-07
3.175 -7.77650717458569e-16 3.025
0 0

0101101
*
Ed
 1e-07 1 1 0
1  4 0 0 6.28318530717959
2  7 4 0 0 6.28318530717959
2  8 5 0 0 6.28318530717959
0

0101000
+24 0 -24 0 *
Wi

0101100
-23 0 *
Fa
0  1e-07 2 0

0101000
+25 0 +22 0 *
Wi

0101100
-28 0 *
Fa
0  1e-07 3 0

0111000
-20 0 *
Ve
1e-07
3.175 -7.77650717458569e-16 12.15
0 0

0101101
*
Ed
 1e-07 1 1 0
1  5 0 0 6.28318530717959
2  9 4 0 0 6.28318530717959
2  10 6 0 0 6.28318530717959
0

0101000
+18 0 -18 0 *
Ed
 1e-07 1 1 0
1  6 0 0 9.125
3  11 12CN 4 0 0 9.125
0

0101000
+24 0 -18 0 *
Wi

0101100
-17 0 +16 0 +23 0 -16 0 *
Fa
0  1e-07 4 0

0101000
+15 0 *
Ve
1.00000001749714e-07
7.14375 -1.74971411428178e-15 0
0 0

0101101
*
Ed
 1e-07 1 1 0
1  7 0 0 6.28318530717959
2  13 8 0 0 6.28318530717959
2  14 7 0 0 6.28318530717959
0

0101100
+13 0 -13 0 *
Wi

0101100
+12 1 *
Wi

0101100
-17 0 *
Fa
0  1e-07 7 1

0101000
+11 0 +10 0 *
Ve
1e-07
4.3932065661005e-16 -1.07602527183362e-31 6.50948165904056
0 0

0101101
*
Ed
 1e-07 1 1 0
1  8 0 6.37602964929963 7.85398163397448
3  15 16CN 8 0 6.37602964929963 7.85398163397448
0

0101000
+13 0 -8 0 *
Ed
 1e-07 1 1 1
2  17 8 0 0 6.28318530717959
0

0101000
+8 0 -8 0 *
Wi

0101100
+7 0 +12 0 -7 0 -6 0 *
Fa
0  1e-07 8 0

0101000
+5 0 *
Sh

0101100
+26 0 +21 0 -19 0 +14 0 -9 0 +4 1 *
So

0100000
+3 0 *
Co

1100000
+2 0 *

+1 0 