
CASCADE Topology V1, (c) Matra-Datavision
Locations 8
1
1.000000000000000 0.000000000000000 0.000000000000000 0.000000000000000 
0.000000000000000 1.000000000000000 0.000000000000000 0.000000000000000 
0.000000000000000 0.000000000000000 1.000000000000000 0.000000000000000 
1
1.000000000000000 0.000000000000000 0.000000000000000 0.000000000000000 
0.000000000000000 1.000000000000000 0.000000000000000 0.000000000000000 
0.000000000000000 0.000000000000000 1.000000000000000 0.000000000000000 
2  2 -1 0
1
1.000000000000000 0.000000000000000 0.000000000000000 0.000000000000000 
0.000000000000000 1.000000000000000 0.000000000000000 0.000000000000000 
0.000000000000000 0.000000000000000 1.000000000000000 8.000000000000000 
1
1.000000000000000 0.000000000000000 0.000000000000000 -0.000000000000000 
0.000000000000000 1.000000000000000 0.000000000000000 -0.000000000000000 
0.000000000000000 0.000000000000000 1.000000000000000 -8.000000000000000 
2  4 1 5 1 0
2  2 -1 5 -1 4 -1 0
2  2 -1 5 -1 0
Curve2ds 14
1 6.28318530717958623 -0.00000000000000000 0.00000000000000000 1.00000000000000000 
1 0.00000000000000000 -0.00000000000000000 0.00000000000000000 1.00000000000000000 
7 0 0  7 26 5  6.28318530717958623 127.73125000000000284  6.25454833527912246 127.73125000000000284  6.22671783672849788 127.68363447942070366  6.20038832826317776 127.59322674538748288  6.17613617018434713 127.46621833771284571  6.15443302005272308 127.31020011404976344  6.13559084288050993 127.13418254664368590  6.10169902107368411 126.73846831289398551  6.08693312941804709 126.50975630596289534  6.07527846711082731 126.26858882778351756  6.06662327875251073 126.01918127572287176  6.06088013650841884 125.76464040754417795  6.05800246751781835 125.50747855413756326  6.05800246751781835 124.99249753170151678  6.06088066330218211 124.73533708849527102  6.06662387897899524 124.48080900584349706  6.07527858242818208 124.23141395530667808  6.08693270827308286 123.99025134625152589  6.10169859657740865 123.76153664344087701  6.13558361077146763 123.36590189403655415  6.15442594561538137 123.18984242201443635  6.17613585842466772 123.03375295074125972  6.20039779102739352 122.90670605710320729  6.22673449182029604 122.81631536547372718  6.25456343904332446 122.76874999999999716  6.28318530717958623 122.76874999999999716 
 0.00000000000000000 8 0.23459132917693218 6 0.50003290083052809 6 0.76549912623628069 6 1.00000000000000000 8
7 0 0  7 26 5  0.00000000000000000 31.11250000000000071  0.12825323939300734 31.11250000000000071  0.25289438178266965 31.10186767699474331  0.37408845704919225 31.08168375059748456  0.49169377207270304 31.05453856044428207  0.60531852332921621 31.02391521496430116  0.71417431639579676 30.99306871406333386  0.93295164240626072 30.93176676590793761  1.04462253556166940 30.90091828462346868  1.15300305869970399 30.87424671156680844  1.25897287075849951 30.85333655099828931  1.36338480300500531 30.83908620923481791  1.46702663243215148 30.83194602495322556  1.67457565910663031 30.83194602495322556  1.77821689595501797 30.83908751004361193  1.88262424104126680 30.85333805992913980  1.98858891289065820 30.87424675767057280  2.09696661477972857 30.90091732761573340  2.20863827098972898 30.93176599809885374  2.42737165273168509 30.99305563296146460  2.53624012770514540 31.02390534741595118  2.64990367435356955 31.05454244598127289  2.76755167528100010 31.08169870042995342  2.88877286855770787 31.10187890674097133  3.01340705775535289 31.11250000000000071  3.14159265358979400 31.11250000000000071 
 0.00000000000000000 8 0.23459132917693218 6 0.50003290083052809 6 0.76549912623628069 6 1.00000000000000000 8
1 6.28318530717958623 -0.00000000000000000 0.00000000000000000 1.00000000000000000 
1 0.00000000000000000 -0.00000000000000000 0.00000000000000000 1.00000000000000000 
1 0.00000000000000000 0.00000000000000000 1.00000000000000000 0.00000000000000000 
7 0 0  7 26 5  0.00000000000000000 122.76874999999999716  0.02863697190046018 122.76874999999999716  0.05646747045109762 122.81636552057915424  0.08279697891640661 122.90677325461294345  0.10704913699522584 123.03378166228660007  0.12875228712688347 123.18979988595064867  0.14759446429906459 123.36581745335617200  0.18148671060215435 123.76153664344060701  0.19625259890656838 123.99025134625239275  0.20790672475132105 124.23141395530524278  0.21656142820064866 124.48080900584497499  0.22230464387738641 124.73533708849436152  0.22518283966176789 124.99249753170180099  0.22518283966176789 125.50750246829875323  0.22230464387739490 125.76466291150441634  0.21656142820061419 126.01919099415640346  0.20790672475138872 126.26858604469356351  0.19625259890649560 126.50974865374851674  0.18148671060218854 126.73846335655899509  0.14760094142961078 127.13410692094375065  0.12875801953353799 127.31016907529098603  0.10704816096182304 127.46625261392131279  0.08278717653667698 127.59329143000239526  0.05645174753186794 127.68367966933124080  0.02862338257311708 127.73125000000000284  0.00000000000000000 127.73125000000000284 
 0.00000000000000000 8 0.23459537236217845 6 0.50004778194271426 6 0.76550019152382143 6 1.00000000000000000 8
7 0 0  7 26 5  3.14159265358979400 31.11250000000000071  3.26984589298278694 31.11250000000000071  3.39448703537249541 31.10186767699475041  3.51568111063900801 31.08168375059745614  3.63328642566238358 31.05453856044432825  3.74691117691915521 31.02391521496426563  3.85576696998551149 30.99306871406335162  4.07454703618970271 30.93176599809889282  4.18621869240033817 30.90091732761565879  4.29459639428820061 30.87424675767063320  4.40056106613899267 30.85333805992912559  4.50496841122418346 30.83908751004360838  4.60860964807307383 30.83194602495322911  4.81616831269653023 30.83194602495322911  4.91980954954469141 30.83908751004361548  5.02421689463101018 30.85333805992912204  5.13018156648056411 30.87424675767058346  5.23855926836955010 30.90091732761575827  5.35023092457945282 30.93176599809883243  5.56896917983285800 30.99305699853141149  5.67784022132047639 31.02390747835595164  5.79150218926833293 31.05454384356353970  5.90914532606933296 31.08169822047810982  6.03036135924529404 31.10187776189270892  6.15499292880426552 31.11250000000000071  6.28318530717958623 31.11250000000000071 
 0.00000000000000000 8 0.23459537236217845 6 0.50004778194271426 6 0.76550019152382143 6 1.00000000000000000 8
1 0.00000000000000000 132.00000000000000000 1.00000000000000000 0.00000000000000000 
7 0 0  7 50 9  3.14159265358979312 127.73125000000000284  3.17022962549026532 127.73125000000000284  3.19806012404085260 127.68363447942090261  3.22438963250624688 127.59322674538687181  3.24864179058497449 127.46621833771372678  3.27034494071671267 127.31020011404901027  3.28918711788884366 127.13418254664398432  3.32307893969568280 126.73846831289412762  3.33784483135135357 126.50975630596261112  3.34949949365853650 126.26858882778385862  3.35815468201687661 126.01918127572250228  3.36389782426095740 125.76464040754444795  3.36677549325156145 125.50747855413744958  3.36677549325156145 124.99249753170147414  3.36389729746717725 124.73533708849508628  3.35815408179043651 124.48080900584419339  3.34949937834114131 124.23141395530593911  3.33784525249632402 123.99025134625185274  3.32307936419196581 123.76153664344082017  3.28919434999791216 123.36590189403655415  3.27035201515398510 123.18984242201440793  3.24864210234474982 123.03375295074134499  3.22438016974194275 122.90670605710313623  3.19804346894910463 122.81631536547374139  3.17021452172605134 122.76874999999999716  3.11295568168934045 122.76874999999999716  3.08512518313867634 122.81636552057915424  3.05879567467340907 122.90677325461291503  3.03454351659454602 123.03378166228668533  3.01284036646292286 123.18979988595053499  2.99399818929072570 123.36581745335621463  2.96010594298761109 123.76153664344093386  2.94534005468330173 123.99025134625132694  2.93368592883838453 124.23141395530679176  2.92503122538919502 124.48080900584345443  2.91928800971239255 124.73533708849554102  2.91640981392802479 124.99249753170131783  2.91640981392802479 125.50750246829832690  2.91928800971239166 125.76466291150515531  2.92503122538919369 126.01919099415597714  2.93368592883840540 126.26858604469374825  2.94534005468327109 126.50974865374818989  2.96010594298762353 126.73846335655922246  2.99399171216018178 127.13410692094375065  3.01283463405624330 127.31016907529092919  3.03454449262799741 127.46625261392144068  3.05880547705309080 127.59329143000229578  3.08514090605794333 127.68367966933126922  3.11296927101666610 127.73125000000000284  3.14159265358979312 127.73125000000000284 
 0.00000000000000000 8 0.11728835328328950 6 0.25000086632176682 6 0.38272570546804086 6 0.49996883386370533 6 0.61727383147616199 6 0.75000830939266394 6 0.88274278730898281 6 1.00000000000000000 8
7 0 0  7 50 9  0.00000000000000000 8.88749999999999929  0.12825323939304659 8.88749999999999929  0.25289438178257262 8.89813232300524959  0.37408845704935434 8.91831624940254919  0.49169377207242104 8.94546143955564155  0.60531852332954872 8.97608478503578766  0.71417431639563111 9.00693128593662351  0.93295164240618189 9.06823323409204107  1.04462253556185014 9.09908171537654908  1.15300305869947262 9.12575328843320932  1.25897287075873043 9.14666344900167871  1.36338480300486697 9.16091379076519630  1.46702663243219478 9.16805397504677266  1.67457565910664652 9.16805397504677266  1.77821689595505505 9.16091248995637919  1.88262424104108783 9.14666194007088684  1.98858891289086603 9.12575324232939522  2.09696661477961399 9.09908267238428259  2.20863827098976184 9.06823400190113915  2.42737165273168598 9.00694436703853896  2.53624012770519514 8.97609465258403993  2.64990367435341323 8.94545755401873066  2.76755167528117507 8.91830129957005013  2.88877286855762083 8.89812109325902689  3.01340705775536755 8.88749999999999929  3.26984589298275408 8.88749999999999929  3.39448703537262286 8.89813232300525669  3.51568111063879218 8.91831624940252787  3.63328642566260562 8.94546143955569839  3.74691117691902997 8.97608478503571661  3.85576696998553325 9.00693128593665548  4.07454703618988479 9.06823400190115869  4.18621869239978217 9.09908267238421686  4.29459639428893425 9.12575324232948404  4.40056106613834430 9.14666194007082822  4.50496841122465685 9.16091248995640406  4.60860964807287843 9.16805397504677266  4.81616831269635792 9.16805397504677266  4.91980954954510796 9.16091248995642538  5.02421689463053056 9.14666194007077671  5.13018156648096557 9.12575324232949647  5.23855926836925168 9.09908267238425594  5.35023092457957450 9.06823400190113560  5.56896917983285356 9.00694300146859206  5.67784022132065935 8.97609252164405902  5.79150218926791638 8.94545615643644254  5.90914532606970155 8.91830177952189374  6.03036135924520700 8.89812223810729463  6.15499292880422111 8.88749999999999929  6.28318530717958623 8.88749999999999929 
 0.00000000000000000 8 0.11728835328328950 6 0.25000086632176682 6 0.38272570546804086 6 0.49996883386370533 6 0.61727383147616199 6 0.75000830939266394 6 0.88274278730898281 6 1.00000000000000000 8
1 6.28318530717958623 -0.00000000000000000 0.00000000000000000 1.00000000000000000 
1 0.00000000000000000 -0.00000000000000000 0.00000000000000000 1.00000000000000000 
Curves 26
1 11.11250000000000071 -0.00000000000000272 0.00000000000000000 0.00000000000000000 0.00000000000000000 1.00000000000000000 
7 0 0  7 26 5  11.11250000000000071 -0.00000000000000089 127.73125000000000284  11.11250000000000071 -0.31822835024390050 127.73125000000000284  11.10186767699474331 -0.62749441152749319 127.68363447942070366  11.08168375059748456 -0.91965676701018073 127.59322674538748288  11.05453856044428385 -1.18798251557956469 127.46621833771284571  11.02391521496430116 -1.42729111091653960 127.31020011404976344  10.99306871406333208 -1.63441641496726953 127.13418254664368590  10.93176676590793761 -2.00601681489990824 126.73846831289398551  10.90091828462346690 -2.16723152442408562 126.50975630596289534  10.87424671156680844 -2.29398743471604583 126.26858882778351756  10.85333655099828931 -2.38786998868171851 126.01918127572287176  10.83908620923481614 -2.45007921405598639 125.76464040754417795  10.83194602495322556 -2.48124999999999885 125.50747855413756326  10.83194602495322556 -2.48124999999999885 124.99249753170151678  10.83908751004361193 -2.45007350498739074 124.73533708849527102  10.85333805992913803 -2.38786349428661282 124.48080900584349706  10.87424675767057458 -2.29398612850963834 124.23141395530667808  10.90091732761573518 -2.16723611180360054 123.99025134625152589  10.93176599809885197 -2.00602146920815994 123.76153664344087701  10.99305563296146282 -1.63449571004405847 123.36590189403655415  11.02390534741595296 -1.42736913924606212 123.18984242201443635  11.05454244598127289 -1.18798664540366605 123.03375295074125972  11.08169870042995342 -0.91955229761585988 122.90670605710320729  11.10187890674096955 -0.62730934263196314 122.81631536547372718  11.11250000000000071 -0.31806050966420774 122.76874999999999716  11.11250000000000071 -0.00000000000000044 122.76874999999999716 
 0.00000000000000000 8 0.23459132917693218 6 0.50003290083052809 6 0.76549912623628069 6 1.00000000000000000 8
1 11.11250000000000071 -0.00000000000000272 0.00000000000000000 0.00000000000000000 0.00000000000000000 1.00000000000000000 
2 0.00000000000000000 0.00000000000000000 0.00000000000000000 0.00000000000000000 0.00000000000000000 1.00000000000000000 1.00000000000000000 0.00000000000000000 0.00000000000000000 0.00000000000000000 1.00000000000000000 0.00000000000000000 11.11250000000000071
7 0 0  7 26 5  11.11250000000000071 0.00000000000000095 122.76874999999999716  11.11250000000000071 0.31822835024386475 122.76874999999999716  11.10186767699475219 0.62749441152761087 122.81636552057915424  11.08168375059745259 0.91965676701013421 122.90677325461294345  11.05453856044433358 1.18798251557942591 123.03378166228660007  11.02391521496426208 1.42729111091677052 123.18979988595064867  10.99306871406335162 1.63441641496713919 123.36581745335617200  10.93176599809889282 2.00602146920789837 123.76153664344060701  10.90091732761565702 2.16723611180435283 123.99025134625239275  10.87424675767063675 2.29398612850864936 124.23141395530524278  10.85333805992912026 2.38786349428729627 124.48080900584497499  10.83908751004361015 2.45007350498718113 124.73533708849436152  10.83194602495322911 2.48124999999999751 124.99249753170180099  10.83194602495322911 2.48124999999999751 125.50750246829875323  10.83908751004361548 2.45007350498731968 125.76466291150441634  10.85333805992912204 2.38786349428681488 126.01919099415640346  10.87424675767058169 2.29398612850949180 126.26858604469356351  10.90091732761575827 2.16723611180351394 126.50974865374851674  10.93176599809883243 2.00602146920827584 126.73846335655899509  10.99305699853141149 1.63448743222655857 127.13410692094375065  11.02390747835595164 1.42735438673012949 127.31016907529098603  11.05454384356353614 1.18797234804662555 127.46625261392131279  11.08169822047811870 0.91954848863366412 127.59329143000239526  11.10187776189270537 0.62731968139262995 127.68367966933124080  11.11250000000000071 0.31807733884376382 127.73125000000000284  11.11250000000000071 0.00000000000000030 127.73125000000000284 
 0.00000000000000000 8 0.23459537236217845 6 0.50004778194271426 6 0.76550019152382143 6 1.00000000000000000 8
2 0.00000000000000000 0.00000000000000000 132.00000000000000000 0.00000000000000000 0.00000000000000000 1.00000000000000000 1.00000000000000000 0.00000000000000000 0.00000000000000000 0.00000000000000000 1.00000000000000000 0.00000000000000000 11.11250000000000071
7 0 0  7 50 9  -11.11250000000000071 0.00000000000000089 127.73125000000000284  -11.11250000000000071 -0.31822835024399598 127.73125000000000284  -11.10186767699475041 -0.62749441152735153 127.68363447942090261  -11.08168375059745081 -0.91965676701029397 127.59322674538687181  -11.05453856044435845 -1.18798251557925472 127.46621833771372678  -11.02391521496421234 -1.42729111091704830 127.31020011404901027  -10.99306871406337649 -1.63441641496698642 127.13418254664398432  -10.93176676590795893 -2.00601681489977279 126.73846831289412762  -10.90091828462345092 -2.16723152442433609 126.50975630596261112  -10.87424671156679068 -2.29398743471583000 126.26858882778385862  -10.85333655099832129 -2.38786998868183442 126.01918127572250228  -10.83908620923480370 -2.45007921405594820 125.76464040754444795  -10.83194602495322734 -2.48124999999999929 125.50747855413744958  -10.83194602495322734 -2.48124999999999929 124.99249753170147414  -10.83908751004362081 -2.45007350498728194 124.73533708849508628  -10.85333805992911316 -2.38786349428692279 124.48080900584419339  -10.87424675767060478 -2.29398612850927641 124.23141395530593911  -10.90091732761571741 -2.16723611180380260 123.99025134625185274  -10.93176599809886085 -2.00602146920810132 123.76153664344082017  -10.99305563296146104 -1.63449571004405536 123.36590189403655415  -11.02390534741596007 -1.42736913924592712 123.18984242201440793  -11.05454244598126934 -1.18798664540406973 123.03375295074134499  -11.08169870042994987 -0.91955229761539847 122.90670605710313623  -11.10187890674097311 -0.62730934263218963 122.81631536547374139  -11.11250000000000071 -0.31806050966416866 122.76874999999999716  -11.11250000000000071 0.31822835024378415 122.76874999999999716  -11.10186767699474331 0.62749441152810403 122.81636552057915424  -11.08168375059747213 0.91965676700916887 122.90677325461291503  -11.05453856044430161 1.18798251558038714 123.03378166228668533  -11.02391521496428339 1.42729111091632888 123.18979988595053499  -10.99306871406334452 1.63441641496717427 123.36581745335621463  -10.93176599809884131 2.00602146920820612 123.76153664344093386  -10.90091732761578314 2.16723611180353792 123.99025134625132694  -10.87424675767051596 2.29398612850953398 124.23141395530679176  -10.85333805992917178 2.38786349428680467 124.48080900584345443  -10.83908751004359594 2.45007350498732279 124.73533708849554102  -10.83194602495322734 2.48125000000000107 124.99249753170131783  -10.83194602495322734 2.48125000000000107 125.50750246829832690  -10.83908751004357462 2.45007350498736454 125.76466291150515531  -10.85333805992922329 2.38786349428671762 126.01919099415597714  -10.87424675767050353 2.29398612850942563 126.26858604469374825  -10.90091732761574406 2.16723611180381859 126.50974865374818989  -10.93176599809886440 2.00602146920807023 126.73846335655922246  -10.99305699853140794 1.63448743222656567 127.13410692094375065  -11.02390747835594098 1.42735438673024939 127.31016907529092919  -11.05454384356355746 1.18797234804635288 127.46625261392144068  -11.08169822047810626 0.91954848863391714 127.59329143000229578  -11.10187776189270537 0.62731968139243932 127.68367966933126922  -11.11250000000000071 0.31807733884387535 127.73125000000000284  -11.11250000000000071 0.00000000000000089 127.73125000000000284 
 0.00000000000000000 8 0.11728835328328950 6 0.25000086632176682 6 0.38272570546804086 6 0.49996883386370533 6 0.61727383147616199 6 0.75000830939266394 6 0.88274278730898281 6 1.00000000000000000 8
1 -20.00000000000000000 0.00000000000000061 127.73125000000000284 1.00000000000000000 0.00000000000000000 0.00000000000000000 
1 21.08050170378621502 0.00000000000000000 0.00000000000000000 -0.50000000000000000 0.86602540378443871 0.00000000000000000 
1 10.54025085189310929 -18.25625000000000142 0.00000000000000000 0.50000000000000000 0.86602540378443871 0.00000000000000000 
1 10.54025085189310929 18.25625000000000142 0.00000000000000000 -1.00000000000000000 0.00000000000000017 0.00000000000000000 
1 -10.54025085189311639 -18.25624999999999787 0.00000000000000000 1.00000000000000000 -0.00000000000000017 0.00000000000000000 
1 -10.54025085189310218 18.25625000000000497 0.00000000000000000 -0.50000000000000033 -0.86602540378443860 0.00000000000000000 
1 -21.08050170378621502 0.00000000000000258 0.00000000000000000 0.49999999999999972 -0.86602540378443882 0.00000000000000000 
1 21.08050170378621502 0.00000000000000000 0.00000000000000000 0.00000000000000000 0.00000000000000000 1.00000000000000000 
1 10.54025085189310929 18.25625000000000142 0.00000000000000000 0.00000000000000000 0.00000000000000000 1.00000000000000000 
1 21.08050170378621502 0.00000000000000000 0.00000000000000000 -0.50000000000000000 0.86602540378443871 0.00000000000000000 
1 10.54025085189310929 -18.25625000000000142 0.00000000000000000 0.00000000000000000 0.00000000000000000 1.00000000000000000 
1 10.54025085189310929 -18.25625000000000142 0.00000000000000000 0.50000000000000000 0.86602540378443871 0.00000000000000000 
1 -10.54025085189310218 18.25625000000000497 0.00000000000000000 0.00000000000000000 0.00000000000000000 1.00000000000000000 
1 10.54025085189310929 18.25625000000000142 0.00000000000000000 -1.00000000000000000 0.00000000000000017 0.00000000000000000 
1 -10.54025085189311639 -18.25624999999999787 0.00000000000000000 0.00000000000000000 0.00000000000000000 1.00000000000000000 
1 -10.54025085189311639 -18.25624999999999787 0.00000000000000000 1.00000000000000000 -0.00000000000000017 0.00000000000000000 
1 -21.08050170378621502 0.00000000000000258 0.00000000000000000 0.00000000000000000 0.00000000000000000 1.00000000000000000 
1 -10.54025085189310218 18.25625000000000497 0.00000000000000000 -0.50000000000000033 -0.86602540378443860 0.00000000000000000 
1 -21.08050170378621502 0.00000000000000258 0.00000000000000000 0.49999999999999972 -0.86602540378443882 0.00000000000000000 
Polygon3D 0
PolygonOnTriangulations 0
Surfaces 11
2 0.00000000000000000 0.00000000000000000 0.00000000000000000 0.00000000000000000 0.00000000000000000 1.00000000000000000 1.00000000000000000 0.00000000000000000 0.00000000000000000 0.00000000000000000 1.00000000000000000 0.00000000000000000 11.11250000000000071
2 -20.00000000000000000 0.00000000000000000 125.25000000000000000 1.00000000000000000 0.00000000000000000 0.00000000000000000 0.00000000000000000 0.00000000000000000 1.00000000000000000 0.00000000000000000 -1.00000000000000000 0.00000000000000000 2.48125000000000018
1 -0.00000000000000022 0.00000000000000045 0.00000000000000000 0.00000000000000000 0.00000000000000000 1.00000000000000000 1.00000000000000000 0.00000000000000000 0.00000000000000000 0.00000000000000000 1.00000000000000000 0.00000000000000000 
1 0.00000000000000000 0.00000000000000000 132.00000000000000000 0.00000000000000000 0.00000000000000000 1.00000000000000000 1.00000000000000000 0.00000000000000000 0.00000000000000000 0.00000000000000000 1.00000000000000000 0.00000000000000000 
1 21.08050170378621502 0.00000000000000000 0.00000000000000000 -0.86602540378443871 -0.50000000000000000 0.00000000000000000 -0.50000000000000000 0.86602540378443871 0.00000000000000000 0.00000000000000000 0.00000000000000000 -1.00000000000000000 
1 10.54025085189310929 -18.25625000000000142 0.00000000000000000 -0.86602540378443871 0.50000000000000000 0.00000000000000000 0.50000000000000000 0.86602540378443871 0.00000000000000000 0.00000000000000000 0.00000000000000000 -1.00000000000000000 
1 10.54025085189310929 18.25625000000000142 0.00000000000000000 -0.00000000000000017 -1.00000000000000000 0.00000000000000000 -1.00000000000000000 0.00000000000000017 0.00000000000000000 0.00000000000000000 0.00000000000000000 -1.00000000000000000 
1 -10.54025085189311639 -18.25624999999999787 0.00000000000000000 0.00000000000000017 1.00000000000000000 0.00000000000000000 1.00000000000000000 -0.00000000000000017 0.00000000000000000 0.00000000000000000 0.00000000000000000 -1.00000000000000000 
1 -10.54025085189310218 18.25625000000000497 0.00000000000000000 0.86602540378443860 -0.50000000000000033 0.00000000000000000 -0.50000000000000033 -0.86602540378443860 0.00000000000000000 0.00000000000000000 0.00000000000000000 -1.00000000000000000 
1 -21.08050170378621502 0.00000000000000258 0.00000000000000000 0.86602540378443882 0.49999999999999972 0.00000000000000000 0.49999999999999972 -0.86602540378443882 0.00000000000000000 0.00000000000000000 0.00000000000000000 -1.00000000000000000 
1 -0.00000000000000022 0.00000000000000045 0.00000000000000000 0.00000000000000000 0.00000000000000000 1.00000000000000000 1.00000000000000000 0.00000000000000000 0.00000000000000000 0.00000000000000000 1.00000000000000000 0.00000000000000000 
Triangulations 0

TShapes 70
Ve
0.000000100000002
11.112500000000001 -0.000000000000001 127.731250000000003
0 0

0101101
*
Ve
0.000000100000000
11.112500000000001 -0.000000000000003 132.000000000000000
0 0

0101101
*
Ed
 0.000000100000000 1 1 0
1  1 0 127.731250000000003 132.000000000000000
3  1 2CN 1 0 127.731250000000003 132.000000000000000
0

0101000
+70 3 -69 3 *
Ve
0.000000100000114
11.112500000000001 -0.000000000000003 122.768750000000111
0 0

0101101
*
Ed
 0.000000100000000 1 1 0
1  2 0 0.000000000000000 1.000000000000000
2  3 1 0 0.000000000000000 1.000000000000000
2  4 2 0 0.000000000000000 1.000000000000000
0

0101000
+70 3 -67 3 *
Ve
0.000000100000000
11.112500000000001 -0.000000000000003 0.000000000000000
0 0

0101101
*
Ed
 0.000000100000000 1 1 0
1  3 0 0.000000000000000 122.768750000000111
3  5 6CN 1 0 0.000000000000000 122.768750000000111
0

0101000
+65 3 -67 3 *
Ed
 0.000000100000000 1 1 0
1  4 0 0.000000000000000 6.283185307179586
2  7 1 0 0.000000000000000 6.283185307179586
0

0101000
+65 3 -65 3 *
Ed
 0.000000100000000 1 1 0
1  5 0 0.000000000000000 1.000000000000000
2  8 1 0 0.000000000000000 1.000000000000000
2  9 2 0 0.000000000000000 1.000000000000000
0

0101000
+67 3 -70 3 *
Ed
 0.000000100000000 1 1 0
1  6 0 0.000000000000000 6.283185307179586
2  10 1 0 0.000000000000000 6.283185307179586
0

0101000
+69 3 -69 3 *
Wi

0101100
+68 0 -66 0 +64 0 +63 0 -64 0 -62 0 -68 0 -61 0 *
Ve
0.000000100000002
-11.112499999999999 0.000000000000001 127.731250000000003
0 0

0101101
*
Ed
 0.000000100000000 1 1 0
1  7 0 0.000000000000000 1.000000000000000
2  11 1 0 0.000000000000000 1.000000000000000
2  12 2 0 0.000000000000000 1.000000000000000
0

0101100
+59 3 -59 3 *
Wi

0101100
+58 0 *
Fa
0  0.000000100000000 1 0

0101000
+60 0 +57 0 *
Ed
 0.000000100000000 1 1 0
1  8 0 8.887500000000001 31.112500000000001
3  13 14CN 2 0 8.887500000000001 31.112500000000001
0

0101000
+59 3 -70 3 *
Wi

0101100
-66 0 -62 0 +55 0 +58 0 -55 0 *
Fa
0  0.000000100000000 2 0

0101000
+54 0 *
Ve
0.000000100000000
21.080501703786215 0.000000000000000 0.000000000000000
0 0

0101101
*
Ve
0.000000100000000
10.540250851893109 18.256250000000001 0.000000000000000
0 0

0101101
*
Ed
 0.000000100000000 1 1 0
1  9 0 0.000000000000000 21.080501703786211
0

0101000
+52 7 -51 7 *
Ve
0.000000100000000
10.540250851893109 -18.256250000000001 0.000000000000000
0 0

0101101
*
Ed
 0.000000100000000 1 1 0
1  10 0 0.000000000000000 21.080501703786211
0

0101000
+49 7 -52 7 *
Ve
0.000000100000000
-10.540250851893102 18.256250000000005 0.000000000000000
0 0

0101101
*
Ed
 0.000000100000000 1 1 0
1  11 0 0.000000000000000 21.080501703786211
0

0101000
+51 7 -47 7 *
Ve
0.000000100000000
-10.540250851893116 -18.256249999999998 0.000000000000000
0 0

0101101
*
Ed
 0.000000100000000 1 1 0
1  12 0 0.000000000000000 21.080501703786226
0

0101000
+45 7 -49 7 *
Ve
0.000000100000000
-21.080501703786215 0.000000000000003 0.000000000000000
0 0

0101101
*
Ed
 0.000000100000000 1 1 0
1  13 0 0.000000000000000 21.080501703786215
0

0101000
+47 7 -43 7 *
Ed
 0.000000100000000 1 1 0
1  14 0 0.000000000000000 21.080501703786208
0

0101000
+43 7 -45 7 *
Wi

0101100
+50 6 +48 6 +46 6 +44 6 +42 6 +41 6 *
Wi

0101100
-63 0 *
Fa
0  0.000000100000000 3 6

0101000
+40 0 +39 0 *
Wi

0101100
+61 0 *
Fa
0  0.000000100000000 4 0

0111000
+37 0 *
Ve
0.000000100000000
21.080501703786215 0.000000000000000 -8.000000000000000
0 0

0101101
*
Ed
 0.000000100000000 1 1 0
1  15 0 0.000000000000000 8.000000000000000
0

0101000
+35 8 -52 8 *
Ve
0.000000100000000
10.540250851893109 18.256250000000001 -8.000000000000000
0 0

0101101
*
Ed
 0.000000100000000 1 1 0
1  16 0 0.000000000000000 8.000000000000000
0

0101000
+33 8 -51 8 *
Ed
 0.000000100000000 1 1 0
1  17 0 0.000000000000000 21.080501703786211
0

0101000
+35 8 -33 8 *
Wi

0101100
+34 0 -32 0 -31 0 +50 4 *
Fa
0  0.000000100000000 5 0

0101000
+30 0 *
Ve
0.000000100000000
10.540250851893109 -18.256250000000001 -8.000000000000000
0 0

0101101
*
Ed
 0.000000100000000 1 1 0
1  18 0 0.000000000000000 8.000000000000000
0

0101000
+28 8 -49 8 *
Ed
 0.000000100000000 1 1 0
1  19 0 0.000000000000000 21.080501703786211
0

0101000
+28 8 -35 8 *
Wi

0101100
+27 0 -34 0 -26 0 +48 4 *
Fa
0  0.000000100000000 6 0

0101000
+25 0 *
Ve
0.000000100000000
-10.540250851893102 18.256250000000005 -8.000000000000000
0 0

0101101
*
Ed
 0.000000100000000 1 1 0
1  20 0 0.000000000000000 8.000000000000000
0

0101000
+23 8 -47 8 *
Ed
 0.000000100000000 1 1 0
1  21 0 0.000000000000000 21.080501703786211
0

0101000
+33 8 -23 8 *
Wi

0101100
+32 0 -22 0 -21 0 +46 4 *
Fa
0  0.000000100000000 7 0

0101000
+20 0 *
Ve
0.000000100000000
-10.540250851893116 -18.256249999999998 -8.000000000000000
0 0

0101101
*
Ed
 0.000000100000000 1 1 0
1  22 0 0.000000000000000 8.000000000000000
0

0101000
+18 8 -45 8 *
Ed
 0.000000100000000 1 1 0
1  23 0 0.000000000000000 21.080501703786226
0

0101000
+18 8 -28 8 *
Wi

0101100
+17 0 -27 0 -16 0 +44 4 *
Fa
0  0.000000100000000 8 0

0101000
+15 0 *
Ve
0.000000100000000
-21.080501703786215 0.000000000000003 -8.000000000000000
0 0

0101101
*
Ed
 0.000000100000000 1 1 0
1  24 0 0.000000000000000 8.000000000000000
0

0101000
+13 8 -43 8 *
Ed
 0.000000100000000 1 1 0
1  25 0 0.000000000000000 21.080501703786215
0

0101000
+23 8 -13 8 *
Wi

0101100
+22 0 -12 0 -11 0 +42 4 *
Fa
0  0.000000100000000 9 0

0101000
+10 0 *
Ed
 0.000000100000000 1 1 0
1  26 0 0.000000000000000 21.080501703786208
0

0101000
+13 8 -18 8 *
Wi

0101100
+12 0 -17 0 -8 0 +41 4 *
Fa
0  0.000000100000000 10 0

0101000
+7 0 *
Wi

0101100
+31 0 +21 0 +11 0 +8 0 +16 0 +26 0 *
Fa
0  0.000000100000000 11 0

0101000
+5 0 *
Sh

0101100
+56 0 -53 0 +38 0 +36 0 -29 5 -24 5 -19 5 -14 5 -9 5 -6 5 
-4 5 *
So

0100000
+3 0 *
Co

1100000
+2 0 *

+1 1 