DBRep_DrawableShape

CASCADE Topology V1, (c) Matra-Datavision
Locations 2
1
              1               0               0               0 
              0               1               0               0 
              0               0               1       -0.396875 
2  1 -1 0
Curve2ds 16
7 0 0  5 6 2  6.026748468720875 0  6.0790597915846982 0.10144111617397282  6.1304990986758954 0.20272427041089841  6.1814630996135858 0.30390384482581723  6.2322540862165532 0.40503414198314019  6.2831853071795862 0.50616271121650358 
 0 6 1 6
7 0 0  5 6 2  14.23658321638313 -0.039477886274751975  14.259815323235447 0.86477667217897136  14.205684049337908 1.7710955933440014  14.074512274621291 2.6705863775443186  13.867802908135269 3.554663827952564  13.588247064770371 4.4150532003144392 
 0 6 1 6
1 0 0 1 0 
7 0 0  8 149 22  3.3955472526213986 0  3.3635578831508353 0.062385172331054228  3.3318259574788893 0.1248594128741011  3.3003021290612584 0.18740528354042132  3.2689410012964029 0.25000800958544672  3.2377000829428835 0.3126541865257258  3.2065389832098696 0.37533053791269511  3.1754188465207971 0.43802272396325714  3.1085762278625477 0.57269145147678724  3.0728519915641002 0.64467337804813596  3.0370729327433241 0.71663382988456725  3.0011803486253172 0.78855099618811397  2.9651126787237292 0.86040516936941991  2.9288043574406784 0.93217633974447933  2.8921840595146451 1.0038416217981785  2.8420105950915464 1.1008096216434009  2.8287990942519663 1.1262301641475756  2.8155342087171302 1.1516330787342115  2.802212074707243 1.1770172819225677  2.7888285917431932 1.2023816675441152  2.775379422646552 1.227725106742537  2.7618599935395709 1.2530464479737284  2.7314411532326051 1.3096530123387962  2.7145017350540663 1.340925964109996  2.6974380058199636 1.3721609994358017  2.6802400002336575 1.4033557996404558  2.6628968377953628 1.434508021815788  2.6453965394060313 1.4656152203809678  2.6277258439712377 1.4966747686422577  2.5896420510629112 1.5628123556390847  2.5691763526303433 1.597876507440642  2.5484512207599019 1.6328717467768992  2.5274426552554954 1.6677937612175984  2.5061231964781641 1.702638121883699  2.4844607571518389 1.7373999904483173  2.4624174541691008 1.7720738261376656  2.4194575361623203 1.8381880967812529  2.3986119550005394 1.8696451174054383  2.3773777790270749 1.9010188473376057  2.3557145382507083 1.9323038357556557  2.333574804222855 1.9634943413848884  2.3109015613435528 1.9945838718436339  2.2876233558241159 2.0255644092319582  2.2401320253779162 2.0866929395399083  2.2159446704803085 2.1168468527410802  2.1909956726540667 2.1468761793401803  2.1651800252639388 2.1767693598271145  2.1383518031567865 2.2065114443191116  2.1103264217301647 2.2360840097283639  2.0808483337785928 2.2654613631893752  2.0336330795491051 2.3092902919960783  2.0173204678732888 2.3239208867550727  2.0004631118401166 2.3384836831438274  1.9829903496449472 2.352971750631232  1.9648080218951269 2.3673746026951656  1.9457984605962513 2.3816781337252304  1.9258013665812359 2.3958626775868748  1.8934991099444001 2.4171859977226955  1.8821179040617964 2.4244333799823261  1.870358429086209 2.4316347950346473  1.858174515636585 2.4387847222407424  1.8455080277154481 2.4458746445293347  1.8322878169181107 2.4528929290915156  1.8184197071607913 2.459823687302066  1.7948507393360844 2.4707821509453809  1.7856597085493442 2.4748777019172952  1.7761426616554346 2.4789261007541086  1.7662591323287797 2.4829207421715647  1.7559608486842746 2.4868510556718251  1.7451911018437996 2.4907024433914118  1.7338771540823144 2.4944551478792993  1.7132032718235404 2.5007147830043732  1.7041736970795398 2.5032759372377593  1.6947582124855121 2.5057581864828666  1.6849029781261209 2.5081466918827156  1.674558663253306 2.5104175460753413  1.6636789329951882 2.5125375177636462  1.6522167125246072 2.5144632499190531  1.6222727343388841 2.5186130195961129  1.6022889587540083 2.5206486024682531  1.5811809242985588 2.5217971340662464  1.5598103095680314 2.5218105213854356  1.5388873535523468 2.5207146143395951  1.519006943566672 2.5187037857292078  1.50071441748885 2.5160915536617665  1.4711804239358939 2.510901324911313  1.4587083850948188 2.5082979718056619  1.4469829317850025 2.5055106784055456  1.4359136228529372 2.5025872036309873  1.4254237634975404 2.4995623083608076  1.415440380451646 2.4964598235409188  1.4058956891181904 2.4932921171590654  1.3837251697954722 2.4854884348733277  1.3715154175170201 2.4808059409494931  1.3599389115387157 2.4760436047643708  1.348904303921892 2.4712203802886443  1.3383420711627092 2.4663499809741634  1.3281940527263627 2.4614420659983649  1.3184133037591885 2.4565021976848929  1.2819410066693215 2.4373358452988412  1.2576290623477073 2.4229278628524575  1.2350904215512739 2.4084028500623584  1.2140256453800315 2.3938041739801692  1.1941180045941762 2.3791668975627545  1.1752107074595075 2.3645045542261451  1.1571390780520465 2.3498219180184456  1.1240066780237368 2.3217398385691173  1.1088364284679826 2.3083585525281358  1.0941876402641866 2.2949707203968877  1.079999032261951 2.2815799738103957  1.066222868678155 2.2681890699104521  1.0528195885708629 2.2547999761270181  1.0397551178082649 2.2414138998997015  1.0078196055996564 2.2079049746405723  0.9893412989158058 2.1877881646808195  0.97146900906084466 2.1676835078145413  0.95413083019318756 2.1475932284883075  0.9372706378639859 2.1275189754835413  0.92084190381558106 2.1074617250551633  0.90480457276434545 2.0874217129660777  0.86764762536032869 2.0399710952990406  0.84684259290235975 2.0125768222377882  0.82662358460560192 1.985215377711373  0.80692452809509863 1.9578867772214144  0.78769260771645067 1.930590908095559  0.76888348888931446 1.9033272840261233  0.75045875690728125 1.8760948963453652  0.7105257732108734 1.8159900370165261  0.68918091715900831 1.7831324495221321  0.66829301757852611 1.7503173747533931  0.64781528096092977 1.7175431891118633  0.62770872453119964 1.6848083832194749  0.60793977501700835 1.6521113543920372  0.58847884639518777 1.6194502785682117  0.55045316338450845 1.5547610113961488  0.5318788950290716 1.5227320548227963  0.51355259010348697 1.4907345002099388  0.49545276528467241 1.458766784871836  0.47756046964316762 1.426827426906923  0.45985879891418435 1.3949149769037712  0.4423324097686574 1.3630279696470473  0.36845047030053718 1.2274646963882729  0.31363948762166605 1.1240176366112229  0.26004926543409479 1.0207746049957827  0.20733919168485407 0.91769379099303694  0.15522643563864205 0.81473309328859578  0.10345643193725132 0.71184998157424684  0.051794147149526452 0.6090046988392922  0 0.50616271121650247 
 0 9 0.096256715724284958 7 0.20677084069771678 7 0.24607078375684321 7 0.29470777981745216 7 0.34980622648084564 7 0.40005395900283081 7 0.44933568846085564 7 0.47418958112318699 7 0.48710073585509872 7 0.49493770471695037 7 0.5006333750123827 7 0.50903459730059442 7 0.51597880048901323 7 0.52581240151956676 7 0.55390588721182754 7 0.57943694451035033 7 0.61783337167588814 7 0.67042756985471463 7 0.73404106047882256 7 0.79655264226251921 7 1 9
7 0 0  8 149 22  11.163416783616869 -0.039477886274743183  11.152186417579987 0.39763795944765179  11.123302584239767 0.83431860469312402  11.076698612788693 1.269710637060536  11.012379660103557 1.7029652252870955  10.930416340278498 2.1332373826392703  10.830942312219454 2.5596858852320996  10.714155825299876 2.981473845276903  10.426671820424856 3.8757272247302255  10.250539218495158 4.3464827891467861  10.052329746271337 4.8087687085368289  9.8325512482316881 5.2613844948963608  9.5918048537785072 5.7031915277901426  9.3307810220470895 6.1331118260175819  9.0502638620954965 6.5501311593420226  8.6447735769496514 7.0966797382803817  8.5360490608135802 7.2383048414530045  8.4250092622622432 7.3781403472562666  8.3116944362526972 7.5161464971721017  8.1961460105036466 7.652285236709389  8.0784065854954559 7.786520215403959  7.9585199344701385 7.9188167868185912  7.6855594066164823 8.2104304685815706  7.5313673229584097 8.368700242224195  7.3740404175342364 8.5238887245922381  7.2136662546067534 8.6759382962008278  7.0503344699148451 8.8247965206843322  6.8841369429638704 8.9704163425218066  6.7151679693160391 9.1127562847624652  6.3490779620171693 9.4092744686228489  6.1511966670854274 9.5625149218724488  5.9500230783267396 9.711449857434248  5.7457006570516853 9.8560383540080796  5.5383748793780185 9.9962523264739218  5.3281943199684303 10.132078134306525  5.11531173576833 10.263518189990048  4.7034241217435939 10.506479669788648  4.5048431778630222 10.618738833345844  4.3042642138705762 10.727384071263268  4.1018096786376343 10.8324469545543  3.8976025546058044 10.933976409619659  3.6917684819848033 11.032042576295892  3.4844400266806814 11.126744726419453  3.0710979314556583 11.307943102379689  2.8651263959723448 11.394565681762403  2.6579916488864601 11.478224741038986  2.4498373811579541 11.559087431906727  2.2408252136732685 11.6373958455822  2.0311328029465243 11.713462813218806  1.8209776506568387 11.787726283137806  1.5046696933286521 11.897903349690365  1.398610036701347 11.934576138854439  1.292569209531079 11.971090607120903  1.1865976851985667 12.007567952857448  1.0807705377401748 12.044168313242396  0.97518762938015424 12.081091814780356  0.86998784273374441 12.118610984294891  0.71107137091091233 12.177228393973506  0.65692018074171732 12.197549043774716  0.60297177385599199 12.218219093162999  0.54926571913880029 12.239316255693103  0.49586401735037666 12.260937857550619  0.44285211809829184 12.283203099550098  0.39034796400282612 12.306269830766066  0.30708072307744777 12.345029008330341  0.27590240786615478 12.360047641172784  0.24502368643345951 12.375507331743774  0.21449453812249714 12.391475411657456  0.18439561679790761 12.408032147302357  0.15483900115825136 12.42527222585035  0.12597759070921072 12.443317371168586  0.077732346634880031 12.476195898763594  0.057959871963967589 12.490528463724349  0.03876429855667015 12.505450697843433  0.020262068387605327 12.521051784068597  0.0026408988252403414 12.537414974016251  -0.013836837038639943 12.554620467853523  -0.028825911354861285 12.572751140373935  -0.061147958611613137 12.620147688426583  -0.077025030272515643 12.651805436939219  -0.085973367657136715 12.685300903947789  -0.085960412758841337 12.719307026340987  -0.077063468753411191 12.752676632799579  -0.060754353237311438 12.784371453887138  -0.039520725900473203 12.813473808516736  0.0027547848666194478 12.860328060746278  0.023989444376177449 12.880058300435719  0.046766510125069397 12.898535433541079  0.070701949828199176 12.915895113546192  0.095513756978918313 12.93225486568976  0.12100741002585703 12.947728353581606  0.14708119530456187 12.962421194788023  0.21141961459697894 12.996294865255347  0.25011073936088879 13.01472960148298  0.28954558282330367 13.031980871403727  0.32956511068367145 13.048191345741628  0.37005276475212545 13.063470456732887  0.41092532625624517 13.077910121627589  0.45213347489607797 13.091584166054169  0.61227431635015139 13.141626372593954  0.73319606122096914 13.172908634151826  0.85556843457784149 13.19986752840533  0.97896610942395046 13.222980915016775  1.1030401702967407 13.242763119284556  1.2276270536236122 13.259473346586955  1.3526433285749593 13.273374671151752  1.5921653217677378 13.29488359737819  1.7064783761931703 13.302940516386226  1.8209966731289529 13.308948775453018  1.9356613862782046 13.313009949646881  2.0504228063227927 13.315204601430121  2.1652393080176737 13.315600358056896  2.2800768901006401 13.314255667809389  2.5676069460620821 13.306652711756481  2.740278281350824 13.298260756799769  2.9128233122631317 13.286211428246054  3.0851507162959786 13.270634813084586  3.2571779154912601 13.251637093224113  3.4288311383741643 13.229309590112836  3.600045458402525 13.20373278800402  4.0046107164055593 13.135584297470025  4.2375133764716422 13.090228374187687  4.4693185763471357 13.039088056041695  4.6998778080882531 12.982315398392473  4.9290499660637419 12.920044290459606  5.1567024186794317 12.852396998354783  5.3827114543493444 12.779486982627633  5.8781967045308194 12.606992344875334  6.1468493575922603 12.505023025619201  6.4127104578853835 12.395697361382542  6.6755757340243731 12.279190905341482  6.9352478567447466 12.155671944545031  7.1915374376650645 12.025304348359711  7.4442634163154242 11.888248755835424  7.9379292756615207 11.603562647039288  8.1789944470443974 11.456158323212925  8.4162821028355612 11.302599525926036  8.6496307960962895 11.143036298209983  8.8788840709479473 10.977618709699055  9.1038906538249016 10.806497235614438  9.3245046447274529 10.629823135748232  10.243833334308414 9.8551780704300302  10.899068729941568 9.2054063503944619  11.501428780769096 8.5036958899112634  12.04657997335755 7.7554986819487652  12.530761077678555 6.9665042610778478  12.950770754298178 6.142632372667963  13.303954714931344 5.2900201246366141  13.588247064770369 4.4150532003144214 
 0 9 0.096256715724284958 7 0.20677084069771678 7 0.24607078375684321 7 0.29470777981745216 7 0.34980622648084564 7 0.40005395900283081 7 0.44933568846085564 7 0.47418958112318699 7 0.48710073585509872 7 0.49493770471695037 7 0.5006333750123827 7 0.50903459730059442 7 0.51597880048901323 7 0.52581240151956676 7 0.55390588721182754 7 0.57943694451035033 7 0.61783337167588814 7 0.67042756985471463 7 0.73404106047882256 7 0.79655264226251921 7 1 9
8 0 65.801809875159222
1 6.2831853071795862 0 0 1 
1 0 0 0 1 
7 0 0  5 6 2  0.25644071256931322 65.801809875159222  0.20412863320643387 65.700367188646268  0.15268855726948094 65.599082471907721  0.10172378445750857 65.497901337884798  0.050932018382682964 65.396769480874184  0 65.295639349295953 
 0 6 1 6
7 0 0  5 6 2  -14.236583216383099 -0.039477886274152101  -14.259815677853899 0.86479064834280772  -14.205682374271248 1.7711236080802912  -14.07450619473992 2.6706280815687817  -13.867790133674529 3.554718479247565  -13.588225467171229 4.4151196839667763 
 0 6 1 6
1 0 65.801809875159222 1 0 
7 0 0  8 142 21  6.2831853071795862 65.295639349295939  6.2311066255444576 65.192232414063  6.1791612648297463 65.08882217018774  6.1271056375635213 64.98537349641893  6.0747009050679424 64.881845948365026  6.0216880044665064 64.778196241493703  5.9677789074897145 64.674381572302408  5.9126261594645841 64.570359457746562  5.8383300222340244 64.434182395857889  5.8207644464510579 64.402260907940658  5.8030215857566336 64.370313769363079  5.7850859136533224 64.338339506878853  5.7669403127323351 64.306336664357318  5.7485655764916306 64.274303753249043  5.7299399111540268 64.242239203051639  5.691805635542516 64.177480769189287  5.6722874531701244 64.144786131351239  5.6524574517788402 64.1120552836489  5.6322855639397078 64.079286391277151  5.6117376461878425 64.046477849812177  5.5907740127831973 64.013628153870258  5.5693469504283124 63.980735683850853  5.5292618694194351 63.920584927107733  5.5107701909155455 63.893341679877558  5.4918886920923677 63.866067065992489  5.4725781379300038 63.838760080290513  5.4527932154840064 63.811420262885548  5.4324798716055573 63.784047546843929  5.411570317625463 63.756642006180364  5.3742353773851752 63.709203570454761  5.3581316933159311 63.689187076373706  5.3416301845644689 63.669153473180067  5.3246897150300292 63.649103031490064  5.3072624709232885 63.629036800606876  5.2892906830645279 63.608956540770016  5.2707000772975698 63.588864628332907  5.2385845633114139 63.555434109298673  5.225463316012906 63.542101220460815  5.2119968732478457 63.528765709642791  5.1981500467661839 63.515428854692459  5.1838819567944352 63.50209274044353  5.1691431820811085 63.488760294049904  5.1538700011371708 63.475435384229073  5.1273629970020567 63.453234195160121  5.1164741014822921 63.444351719293927  5.1052830465217243 63.435476627375053  5.0937587591919948 63.426610923927278  5.0818652404828892 63.417757517399593  5.0695589813193633 63.408920329838438  5.0567836393395806 63.400104546271777  5.0288052736008391 63.381648811516946  5.0135166024638789 63.372034746128215  4.9974729236629596 63.362464038895375  4.9805114274609235 63.352944672064105  4.9624913449866543 63.343494239958851  4.9431079071929922 63.334162410400303  4.9221071653732826 63.325005950525785  4.8844635903414257 63.310846714564995  4.869712696512801 63.305752620517325  4.8539100282740186 63.300787155122599  4.8366789040290552 63.29596794853218  4.8177222899633758 63.291405717038948  4.7967388046924064 63.287339631721743  4.7735043315092396 63.284101397250801  4.7228848392269489 63.280423437571137  4.696823462318533 63.27994128766661  4.6715766874510116 63.281201510238184  4.6478537419291115 63.283843980825495  4.6260802755717823 63.287429847097464  4.6063375256934673 63.291560434751887  4.5885230727832225 63.295961482690707  4.5581882881280444 63.304477081602961  4.5449935836175932 63.308637688871528  4.5325424801195728 63.312939215141895  4.5207247688241496 63.317349026476869  4.5094558265322622 63.321843738728532  4.4986625883117739 63.326407111890411  4.488285864933113 63.331030540801549  4.46369624099892 63.342519910023178  4.4499090804264032 63.349438334197814  4.4367607363628796 63.356442856122435  4.4241589054250454 63.363517976623903  4.4120337597117194 63.370652328353664  4.4003282355820623 63.377837572150867  4.3889969244249416 63.38506827005709  4.3568835015993717 63.406306501791647  4.3370096592780278 63.420420824059178  4.3181106397387525 63.434652582995312  4.3000290084205997 63.448982489068115  4.2826490600102272 63.463396686765385  4.2658781964330741 63.477884864172353  4.2496467310457211 63.492440173178849  4.2026921510698934 63.536013067434695  4.1733764784984837 63.565207527042439  4.1454995553436351 63.594595208294557  4.1188091467691628 63.624150739766939  4.0931229188567384 63.653855915260202  4.0682967212198689 63.683695971056238  4.0442265731294853 63.713659482265896  3.9969513303764348 63.774415908492308  3.9737724970848776 63.805214770627003  3.9511952677346573 63.836121784570395  3.9291487684511055 63.867129009944051  3.9075764199327456 63.898230015056569  3.8864311434812517 63.929419114057922  3.86567275993086 63.96069091297106  3.8228697430748109 64.026450815486669  3.8008967225290564 64.060955573600609  3.7793038460426382 64.095547952830429  3.7580533775346123 64.130222454836982  3.7371133549308944 64.164974279074599  3.7164564264547608 64.199799032811626  3.6960586869173317 64.234692441150969  3.6572492757500363 64.301987721553019  3.6388031961888907 64.334380706846048  3.6205434098008702 64.366825711014101  3.6024548015237685 64.39931974645495  3.584523780722126 64.431860043282498  3.5667380551524457 64.464443952729297  3.5490864049283881 64.497068850549056  3.5179902545896184 64.555016274691525  3.5044961104194217 64.580323528145357  3.4910712709817115 64.605652633712367  3.4777112150721403 64.631002446558639  3.4644116532756941 64.656371844084504  3.4511685279666855 64.681759725924408  3.4379780133087579 64.707165013947019  3.3886795757280188 64.802530629358642  3.3528918498096285 64.872601404678363  3.3173995198949338 64.942772592677258  3.2821360893802218 65.013022833288233  3.2470402948098238 65.083333345839876  3.2120545474557525 65.153685630377637  3.1771239043299966 65.224059316379453  3.1106653101687454 65.357954824649227  3.0791347974782552 65.421481436818198  3.0475648944527691 65.484992724163831  3.0159152302813066 65.548473769027083  2.9841438552591035 65.611910790311867  2.9522066412569763 65.675289872272998  2.9200564268480629 65.738595639080387  2.8876419070919508 65.801809875159222 
 0 9 0.1989457892937985 7 0.25979991337581171 7 0.32172076337853317 7 0.37288110185226153 7 0.41017189047636876 7 0.43490136792584205 7 0.45141342559292275 7 0.46958025086864391 7 0.48049603781481048 7 0.49091237818067296 7 0.50000052288390506 7 0.51322202031772546 7 0.53860996678061002 7 0.58889923040890868 7 0.64019833926393532 7 0.69650704310268574 7 0.74859560596453556 7 0.78891681866797325 7 0.89985482918939896 7 1 9
7 0 0  8 142 21  -13.588225467171197 4.4151196839668927  -13.302366792695274 5.2948916200087721  -12.946857726913963 6.15206204222393  -12.52379841987068 6.9801394933997347  -12.035890519540477 7.7728868122683838  -11.486394437055438 8.5242885841895379  -10.879143030500245 9.2285648464886894  -10.218554490188808 9.8801787635692104  -9.2927262076891086 10.655360313036429  -9.0713386105772305 10.831507375516679  -8.8455655883418967 11.002074434741042  -8.6155539202663878 11.166909892924469  -8.3814557974390134 11.325862902527421  -8.1434286266195475 11.478782974670722  -7.9016348341056313 11.625519587550363  -7.4065469519393456 11.908785144699918  -7.1531288197304344 12.045088058070675  -6.8961611566206802 12.174673111872872  -6.6358260696567077 12.297379002212557  -6.3723141219095272 12.41304104350159  -6.1058239357970656 12.521489937725713  -5.836561167103322 12.622548813872747  -5.340149750462782 12.793263496376476  -5.1138208187878407 12.865322122969539  -4.8858654276268174 12.932099951510686  -4.6564079352589527 12.993482429999005  -4.4255818723049067 13.049345904527142  -4.1935294884224739 13.099554680692627  -3.9604006586782563 13.143954162115447  -3.555752380487057 13.210354142893619  -3.3846725934916373 13.235162291790784  -3.2131679219822669 13.256714812127369  -3.0413037388848876 13.274929661855452  -2.869154632038768 13.289713589063989  -2.6968043834479571 13.300957901542748  -2.5243459524235621 13.308528874351282  -2.2375112154628738 13.314722322716493  -2.1231451575316314 13.315499650234315  -2.008809677498185 13.3145348676175  -1.8945393491553262 13.311767836326522  -1.7803767908277164 13.307128886257685  -1.6663731768033363 13.300534829176417  -1.5525894007822576 13.291880288937461  -1.3633187588309259 13.273775755591796  -1.287676205192773 13.265546085892614  -1.2121882783348636 13.256293675120657  -1.1368814371420379 13.245968125071339  -1.0617903198160621 13.234510927056485  -0.9869587054340806 13.221851717304601  -0.91244166872684751 13.207900164314184  -0.75674692207154237 13.17562682962072  -0.6758182941268398 13.157040714519827  -0.59544721791326793 13.136596902927725  -0.51571762321147574 13.114039040052067  -0.43679876950445262 13.089139396384187  -0.35912417959835352 13.061410805443526  -0.28319014314030255 13.030455510543581  -0.16623519090881267 12.973497390486083  -0.12426701350372937 12.950881604201898  -0.083465047158981065 12.92639015822855  -0.043977864001817579 12.899426218311419  -0.0067215563567053493 12.869514796561877  0.026363061198487969 12.836192199808416  0.052624848371733535 12.799184508204092  0.082596963883263541 12.718565520065969  0.086641804245859433 12.677061802047438  0.07676265756128231 12.636949250333299  0.056065994563461174 12.599424438743632  0.028094945760361867 12.565016001428116  -0.0039994455153191666 12.533811418777368  -0.038082121437062355 12.505608365844289  -0.10383081645982051 12.457459616354267  -0.13587685206934452 12.436460684474204  -0.16892601995836132 12.416571672757646  -0.20272532862008497 12.397607586315921  -0.23709511410920991 12.37942701921922  -0.27191139940902298 12.361908732440227  -0.3071092754403002 12.344954332090564  -0.39439193386433313 12.304486077295282  -0.44679224700788289 12.281535498621427  -0.49969043677214908 12.259372700805429  -0.55297150536105377 12.237842969985262  -0.60655198780625152 12.216829307201285  -0.66037120175839226 12.196236165674051  -0.7143901748859256 12.175987106485268  -0.87265182110390493 12.11766275870467  -0.97732013389755412 12.080348009128869  -1.0823652983197967 12.043618395732747  -1.1876510851532505 12.007206266124685  -1.293079395126467 11.97091482466459  -1.3985764016971998 11.934586575595873  -1.5040922302468276 11.898102003257588  -1.8185653769625174 11.788571431428389  -2.0274320287502703 11.714778300677946  -2.2358446988474876 11.639210334400648  -2.4435889458184761 11.561435245587658  -2.6504896841756058 11.481143950783759  -2.8563878135970997 11.398097172033991  -3.0611419024805571 11.312129152379088  -3.4721663587486447 11.132297568272298  -3.6783939242385464 11.038306502031148  -3.8831501689413517 10.940994493414999  -4.0863045168774903 10.840262682599827  -4.2877332473932208 10.736040999059247  -4.4873152842424844 10.628280332670558  -4.6849300941261456 10.516948708242751  -5.0950794687915293 10.275892018815547  -5.3071913642907633 10.145429041576472  -5.516637354236785 10.010621584612148  -5.7232666125475902 9.8714662170046914  -5.9269324348492542 9.7279754176875759  -6.1274911593164783 9.5801759690776809  -6.3248010875131468 9.4281073507073625  -6.6981080714338574 9.1272460969341491  -6.8745962780611363 8.9790606280930074  -7.0480758141520434 8.8273036405885517  -7.2184395490419639 8.6720219020589191  -7.3855832211733423 8.5132687894836483  -7.5494052269047174 8.3511040451424119  -7.7098064093197332 8.1855935325737583  -7.9881316782992933 7.8861546422103572  -8.1074660595892585 7.7535379765722654  -8.224648311992647 7.6189921586114853  -8.3396349319016174 7.4825520373185359  -8.4523835910138914 7.3442541476825483  -8.562853136332766 7.2041367106912562  -8.6710035901671052 7.0622396333309947  -9.067869144803467 6.5234131462303875  -9.3411060937124031 6.1150466635662708  -9.5956800572519256 5.6943900473489109  -9.8308607265944481 5.2623930462913364  -10.046003403031531 4.8200636597208222  -10.240545210685744 4.3684654174478865  -10.414008542593875 3.9087184508485606  -10.703226984175753 3.0206955304140171  -10.822963833026735 2.5936807827017625  -10.924938605249054 2.1618240132503339  -11.008941585414764 1.7259952757785153  -11.074831078020164 1.2870694379833005  -11.12253173557589 0.8459255577838567  -11.152037160900413 0.40344697432284882  -11.163416783616841 -0.039477886274884681 
 0 9 0.1989457892937985 7 0.25979991337581171 7 0.32172076337853317 7 0.37288110185226153 7 0.41017189047636876 7 0.43490136792584205 7 0.45141342559292275 7 0.46958025086864391 7 0.48049603781481048 7 0.49091237818067296 7 0.50000052288390506 7 0.51322202031772546 7 0.53860996678061002 7 0.58889923040890868 7 0.64019833926393532 7 0.69650704310268574 7 0.74859560596453556 7 0.78891681866797325 7 0.89985482918939896 7 1 9
8 1.9856511394563965 7.9373742515573307
1 0.39883363590565163 -6.3501257484426743 2.756428451320815e-16 1 
8 1.9856511394563965 7.9373742515573307
1 6.3501257484426743 -0.039477886274733962 1 -2.7847397241662431e-15 
8 1.9856511394887626 7.937384413395403
1 0.39883363687467543 6.350125748442645 -2.3974753324857591e-14 -1 
8 1.9856511394887626 7.937384413395403
1 -6.3501257484426628 -0.039477886276062184 -1 2.4220997983496415e-13 
Curves 9
7 0 0  5 6 2  14.23658321638313 -0.039477886274751975 0  14.259815323235447 0.86477667217897136 0  14.205684049337908 1.7710955933440014 0  14.074512274621291 2.6705863775443186 0  13.867802908135269 3.554663827952564 0  13.588247064770371 4.4150532003144392 0 
 0 6 1 6
7 1 1  6 6 2  14.287500000000005 -9.6589403142388619e-15 0  1.6690784610682365 14.287499999999991 0.26108832541442728 -2.6247461281921503  1.0367296232096121 11.025904747504821 0.29857616545410726 -3.0016150013683855  1.0383466998475064 8.3357768878990708 -2.2204460492503131e-16 -1.4210854715202004e-14  0.85353433019614966 11.025904747504827 -0.29857616545410021 3.0016150013683927  1.0383466998475068 14.287499999999991 -0.26108832541443794 2.6247461281921467  1.0367296232096115
 0 6 6.2831853071795862 6
7 0 0  8 149 22  11.163416783616869 -0.039477886274743183 0  11.152186417579987 0.39763795944765179 0  11.123302584239767 0.83431860469312402 0  11.076698612788693 1.269710637060536 0  11.012379660103557 1.7029652252870955 0  10.930416340278498 2.1332373826392703 0  10.830942312219454 2.5596858852320996 0  10.714155825299876 2.981473845276903 0  10.426671820424856 3.8757272247302255 0  10.250539218495158 4.3464827891467861 0  10.052329746271337 4.8087687085368289 0  9.8325512482316881 5.2613844948963608 0  9.5918048537785072 5.7031915277901426 0  9.3307810220470895 6.1331118260175819 0  9.0502638620954965 6.5501311593420226 0  8.6447735769496514 7.0966797382803817 0  8.5360490608135802 7.2383048414530045 0  8.4250092622622432 7.3781403472562666 0  8.3116944362526972 7.5161464971721017 0  8.1961460105036466 7.652285236709389 0  8.0784065854954559 7.786520215403959 0  7.9585199344701385 7.9188167868185912 0  7.6855594066164823 8.2104304685815706 0  7.5313673229584097 8.368700242224195 0  7.3740404175342364 8.5238887245922381 0  7.2136662546067534 8.6759382962008278 0  7.0503344699148451 8.8247965206843322 0  6.8841369429638704 8.9704163425218066 0  6.7151679693160391 9.1127562847624652 0  6.3490779620171693 9.4092744686228489 0  6.1511966670854274 9.5625149218724488 0  5.9500230783267396 9.711449857434248 0  5.7457006570516853 9.8560383540080796 0  5.5383748793780185 9.9962523264739218 0  5.3281943199684303 10.132078134306525 0  5.11531173576833 10.263518189990048 0  4.7034241217435939 10.506479669788648 0  4.5048431778630222 10.618738833345844 0  4.3042642138705762 10.727384071263268 0  4.1018096786376343 10.8324469545543 0  3.8976025546058044 10.933976409619659 0  3.6917684819848033 11.032042576295892 0  3.4844400266806814 11.126744726419453 0  3.0710979314556583 11.307943102379689 0  2.8651263959723448 11.394565681762403 0  2.6579916488864601 11.478224741038986 0  2.4498373811579541 11.559087431906727 0  2.2408252136732685 11.6373958455822 0  2.0311328029465243 11.713462813218806 0  1.8209776506568387 11.787726283137806 0  1.5046696933286521 11.897903349690365 0  1.398610036701347 11.934576138854439 0  1.292569209531079 11.971090607120903 0  1.1865976851985667 12.007567952857448 0  1.0807705377401748 12.044168313242396 0  0.97518762938015424 12.081091814780356 0  0.86998784273374441 12.118610984294891 0  0.71107137091091233 12.177228393973506 0  0.65692018074171732 12.197549043774716 0  0.60297177385599199 12.218219093162999 0  0.54926571913880029 12.239316255693103 0  0.49586401735037666 12.260937857550619 0  0.44285211809829184 12.283203099550098 0  0.39034796400282612 12.306269830766066 0  0.30708072307744777 12.345029008330341 0  0.27590240786615478 12.360047641172784 0  0.24502368643345951 12.375507331743774 0  0.21449453812249714 12.391475411657456 0  0.18439561679790761 12.408032147302357 0  0.15483900115825136 12.42527222585035 0  0.12597759070921072 12.443317371168586 0  0.077732346634880031 12.476195898763594 0  0.057959871963967589 12.490528463724349 0  0.03876429855667015 12.505450697843433 0  0.020262068387605327 12.521051784068597 0  0.0026408988252403414 12.537414974016251 0  -0.013836837038639943 12.554620467853523 0  -0.028825911354861285 12.572751140373935 0  -0.061147958611613137 12.620147688426583 0  -0.077025030272515643 12.651805436939219 0  -0.085973367657136715 12.685300903947789 0  -0.085960412758841337 12.719307026340987 0  -0.077063468753411191 12.752676632799579 0  -0.060754353237311438 12.784371453887138 0  -0.039520725900473203 12.813473808516736 0  0.0027547848666194478 12.860328060746278 0  0.023989444376177449 12.880058300435719 0  0.046766510125069397 12.898535433541079 0  0.070701949828199176 12.915895113546192 0  0.095513756978918313 12.93225486568976 0  0.12100741002585703 12.947728353581606 0  0.14708119530456187 12.962421194788023 0  0.21141961459697894 12.996294865255347 0  0.25011073936088879 13.01472960148298 0  0.28954558282330367 13.031980871403727 0  0.32956511068367145 13.048191345741628 0  0.37005276475212545 13.063470456732887 0  0.41092532625624517 13.077910121627589 0  0.45213347489607797 13.091584166054169 0  0.61227431635015139 13.141626372593954 0  0.73319606122096914 13.172908634151826 0  0.85556843457784149 13.19986752840533 0  0.97896610942395046 13.222980915016775 0  1.1030401702967407 13.242763119284556 0  1.2276270536236122 13.259473346586955 0  1.3526433285749593 13.273374671151752 0  1.5921653217677378 13.29488359737819 0  1.7064783761931703 13.302940516386226 0  1.8209966731289529 13.308948775453018 0  1.9356613862782046 13.313009949646881 0  2.0504228063227927 13.315204601430121 0  2.1652393080176737 13.315600358056896 0  2.2800768901006401 13.314255667809389 0  2.5676069460620821 13.306652711756481 0  2.740278281350824 13.298260756799769 0  2.9128233122631317 13.286211428246054 0  3.0851507162959786 13.270634813084586 0  3.2571779154912601 13.251637093224113 0  3.4288311383741643 13.229309590112836 0  3.600045458402525 13.20373278800402 0  4.0046107164055593 13.135584297470025 0  4.2375133764716422 13.090228374187687 0  4.4693185763471357 13.039088056041695 0  4.6998778080882531 12.982315398392473 0  4.9290499660637419 12.920044290459606 0  5.1567024186794317 12.852396998354783 0  5.3827114543493444 12.779486982627633 0  5.8781967045308194 12.606992344875334 0  6.1468493575922603 12.505023025619201 0  6.4127104578853835 12.395697361382542 0  6.6755757340243731 12.279190905341482 0  6.9352478567447466 12.155671944545031 0  7.1915374376650645 12.025304348359711 0  7.4442634163154242 11.888248755835424 0  7.9379292756615207 11.603562647039288 0  8.1789944470443974 11.456158323212925 0  8.4162821028355612 11.302599525926036 0  8.6496307960962895 11.143036298209983 0  8.8788840709479473 10.977618709699055 0  9.1038906538249016 10.806497235614438 0  9.3245046447274529 10.629823135748232 0  10.243833334308414 9.8551780704300302 0  10.899068729941568 9.2054063503944619 0  11.501428780769096 8.5036958899112634 0  12.04657997335755 7.7554986819487652 0  12.530761077678555 6.9665042610778478 0  12.950770754298178 6.142632372667963 0  13.303954714931344 5.2900201246366141 0  13.588247064770369 4.4150532003144214 0 
 0 9 0.096256715724284958 7 0.20677084069771678 7 0.24607078375684321 7 0.29470777981745216 7 0.34980622648084564 7 0.40005395900283081 7 0.44933568846085564 7 0.47418958112318699 7 0.48710073585509872 7 0.49493770471695037 7 0.5006333750123827 7 0.50903459730059442 7 0.51597880048901323 7 0.52581240151956676 7 0.55390588721182754 7 0.57943694451035033 7 0.61783337167588814 7 0.67042756985471463 7 0.73404106047882256 7 0.79655264226251921 7 1 9
7 1 0  10 81 9  14.287500000000005 -9.6589403142388619e-15 0  1.6690784610682365 14.287499944068992 7.2938743260660122 0.64494626353110363  1.6690784610682914 10.150702001282536 14.588467648232465 1.2897821554216193  1.6690784610680218 1.8720773786187836 19.237824449500199 1.9348769965372803  1.6690784610686769 -8.5991099360231971 18.625602452290732 2.5795929896650378  1.6690784610676197 -17.488192980772183 11.685235616457474 3.2246313638754707  1.6690784610688769 -20.498547667851341 0.81683519506690894 3.8695963531725575  1.6690784610677354 -17.057021699017646 -9.0915714627817525 4.5143769030807306  1.6690784610685288 -9.5934801709812483 -14.960789342044706 5.1594221052198677  1.6690784610681162 -1.2710734404389097 -15.991174085037898 5.8042909203732158  1.6690784610682654 5.4675895399162462 -13.199928820755325 6.449218749998761  1.6690784610682368 12.20625072107576 -10.408683906745354 7.0941650135348553  1.6690784610681491 17.362492153662838 -3.7952609470247944 7.7390009054140307  1.6690784610685725 18.489845255861486 5.6324227181756363 8.3840957465487485  1.6690784610675065 13.917075980733809 15.072251144024236 9.0288117396523404  1.6690784610693117 4.1033083028937254 20.628729629245043 9.6738501138848783  1.6690784610671012 -7.0897972618855345 19.250777932655506 10.318815103169522  1.6690784610691263 -14.926956402530811 12.279439460355155 10.96359565307816  1.669078461067717 -17.493232983486227 3.1379737592182568 11.608640855224325  1.669078461068453 -15.260337184966582 -4.9452386504705306 12.253509670370288  1.6690784610681835 -10.102788136202955 -10.102788136202582 12.898437499999407  1.6690784610682368 -4.9452401227389 -15.260336149668458 13.543383154945039  1.6690784610681364 3.1379742815887153 -17.493234380342926 14.188222264186395  1.6690784610686227 12.279437257710448 -14.926955352029367 14.833307759116719  1.6690784610673937 19.250779231289119 -7.0897996773052832 15.47804324756798  1.669078461069502 20.628728470341439 4.1033087621137581 16.123049917922788  1.6690784610668568 15.072252631431382 13.917074444211556 16.768056588319979  1.6690784610693579 5.6324230273269276 18.489845491426653 17.412792076738924  1.6690784610675617 -3.795260027633824 17.362492130845645 18.05787757168844  1.6690784610685205 -10.408683432442929 12.206251204938972 18.702716680920759  1.6690784610681668 -13.199928589078016 5.4675900992034263 19.347662335869565  1.6690784610682363 -15.99117407832029 -1.2710727628958483 19.992590774084153  1.6690784610681721 -14.960790008220531 -9.5934795370346873 20.637456371879171  1.6690784610684735 -9.0915715148955663 -17.057021313813955 21.282510920208988  1.6690784610677267 0.81683305690239305 -20.498547702609319 21.927271974803112  1.6690784610690002 11.685236760588628 -17.488193475497731 22.572268667923975  1.6690784610674199 18.625599826089793 -8.5991107257363915 23.217265361079928  1.6690784610688811 19.237826749805727 1.8720765639532073 23.862026415655532  1.6690784610678588 14.588466291141424 10.150701382914967 24.507080963986695  1.6690784610683937 7.2938760991813565 14.287499635087737 25.151946561787089  1.6690784610681983 1.7375684224774093e-13 14.287500000000069 25.796874999997531  1.669078461068237 -7.2938743260665575 14.287499944071621 26.441821263536806  1.6690784610682341 -14.588467648230745 10.150702001271233 27.086657155413725  1.669078461068265 -19.237824449506117 1.8720773786430327 27.731751996542688  1.6690784610681089 -18.625602452279207 -8.5991099360558625 28.376467989669461  1.669078461068519 -11.685235616470361 -17.488192980742326 29.021506363857437  1.6690784610678537 -0.81683519505740654 -20.498547667872579 29.666471353200091  1.6690784610685965 9.0915714627764537 -17.057021699004903 30.311251903052508  1.6690784610679932 14.960789342047143 -9.5934801709875082 30.956297105241593  1.6690784610683502 15.991174085037239 -1.2710734404365642 31.601165920360494  1.6690784610682068 13.199928820755186 5.4675895399156111 32.24609375000405  1.669078461068237 10.408683949551357 12.206250763882322 32.891039404933636  1.6690784610681835 3.7952607635314126 17.362491970172524 33.535878514202608  1.6690784610684251 -5.6324222442771106 18.489845729742147 34.180964009102951  1.6690784610678371 -15.072252041401168 13.917075083399023 34.825699497571676  1.6690784610688487 -20.628728296603274 4.1033096354703709 35.470706167931105  1.6690784610675469 -19.250779531823717 -7.0897988609781883 36.115712838302869  1.6690784610688172 -12.279437889947086 -14.926954832191559 36.760448326759679  1.6690784610678762 -3.1379750229544543 -17.493234247170797 37.405533821669842  1.6690784610683915 4.9452394762056864 -15.260336359263578 38.050372930932774  1.6690784610681992 10.102787708131531 -10.102788564257308 38.69531858586457  1.6690784610682361 15.260336919475032 -4.9452392738679585 39.340247024092456  1.6690784610681741 17.493233356353798 3.1379729185955672 39.985112621863891  1.6690784610684581 14.926956303263395 12.279439084520824 40.630167170235232  1.6690784610677836 7.0897992505927787 19.250777146547907 41.274928224765027  1.6690784610688767 -4.10330917060032 20.628730524129299 41.919924917971137  1.6690784610675762 -13.917073252245661 15.072250868630515 42.564921611028787  1.669078461068751 -18.489847069296644 5.6324243511212311 43.209682665703248  1.6690784610679346 -17.362490663238198 -3.7952608950706868 43.85473721395028  1.6690784610683624 -12.206252240979477 -10.40868294273935 44.499602811808302  1.6690784610682057 -5.4675895399156609 -13.199928820755288 45.144531249989157  1.6690784610682365 1.2710716840443095 -15.991173691957689 45.789476904973775  1.6690784610681704 9.5934811881519462 -14.96079043267623 46.434316014143747  1.6690784610684841 17.057019262016251 -9.0915713351491423 47.079401509151253  1.6690784610676892 20.498549791987561 0.81683346046198002 47.724136997563889  1.6690784610690392 17.488191734335533 11.685235597240057 48.369143667893979  1.6690784610673972 8.5991118982237165 18.625601601929869 49.014150338365397  1.66907846106889 -1.8720771831585539 19.237824785438402 49.658885826695055  1.669078461067854 -10.150701143137956 14.588467978993618 50.303971321720461  1.6690784610683971 -14.287499691038672 7.293874954601554 50.94881043090291  1.6690784610681977 -14.287499999988182 6.05373770112827e-07 51.593756085876464  1.6690784610682365
 0 11 8.2252262343949027 10 16.450452468789805 10 24.675678703184708 10 32.900904937579611 10 41.126131171974514 10 49.351357406369416 10 57.576583640764319 10 65.801809875159222 11
7 0 0  5 6 2  -14.236583216383099 -0.039477886274152101 50.799999999999997  -14.259815677853899 0.86479064834280772 50.799999999999997  -14.205682374271248 1.7711236080802912 50.799999999999997  -14.07450619473992 2.6706280815687817 50.799999999999997  -13.867790133674529 3.554718479247565 50.799999999999997  -13.588225467171229 4.4151196839667763 50.799999999999997 
 0 6 1 6
7 1 1  6 6 2  -14.287499999988182 6.05373770112827e-07 51.593756085876464  1.6690784610682365 -14.287510161838066 -0.26108772003764891 48.96900995770369  1.0367296232096121 -11.02591636843581 -0.29857680384634655 48.592128580803752  1.0383466998475064 -8.3357768879314253 -1.6642430574753675e-06 51.593733269214027  0.85353433019614977 -11.025893126598637 0.29857552705496526 54.595358583496235  1.0383466998475068 -14.28748983813829 0.26108893078517648 54.218502214049238  1.0367296232096115
 0 6 6.2831853071795862 6
7 0 0  8 142 21  -13.588225467171197 4.4151196839668927 50.799999999999997  -13.302366792695274 5.2948916200087721 50.799999999999997  -12.946857726913963 6.15206204222393 50.799999999999997  -12.52379841987068 6.9801394933997347 50.799999999999997  -12.035890519540477 7.7728868122683838 50.799999999999997  -11.486394437055438 8.5242885841895379 50.799999999999997  -10.879143030500245 9.2285648464886894 50.799999999999997  -10.218554490188808 9.8801787635692104 50.799999999999997  -9.2927262076891086 10.655360313036429 50.799999999999997  -9.0713386105772305 10.831507375516679 50.799999999999997  -8.8455655883418967 11.002074434741042 50.799999999999997  -8.6155539202663878 11.166909892924469 50.799999999999997  -8.3814557974390134 11.325862902527421 50.799999999999997  -8.1434286266195475 11.478782974670722 50.799999999999997  -7.9016348341056313 11.625519587550363 50.799999999999997  -7.4065469519393456 11.908785144699918 50.799999999999997  -7.1531288197304344 12.045088058070675 50.799999999999997  -6.8961611566206802 12.174673111872872 50.799999999999997  -6.6358260696567077 12.297379002212557 50.799999999999997  -6.3723141219095272 12.41304104350159 50.799999999999997  -6.1058239357970656 12.521489937725713 50.799999999999997  -5.836561167103322 12.622548813872747 50.799999999999997  -5.340149750462782 12.793263496376476 50.799999999999997  -5.1138208187878407 12.865322122969539 50.799999999999997  -4.8858654276268174 12.932099951510686 50.799999999999997  -4.6564079352589527 12.993482429999005 50.799999999999997  -4.4255818723049067 13.049345904527142 50.799999999999997  -4.1935294884224739 13.099554680692627 50.799999999999997  -3.9604006586782563 13.143954162115447 50.799999999999997  -3.555752380487057 13.210354142893619 50.799999999999997  -3.3846725934916373 13.235162291790784 50.799999999999997  -3.2131679219822669 13.256714812127369 50.799999999999997  -3.0413037388848876 13.274929661855452 50.799999999999997  -2.869154632038768 13.289713589063989 50.799999999999997  -2.6968043834479571 13.300957901542748 50.799999999999997  -2.5243459524235621 13.308528874351282 50.799999999999997  -2.2375112154628738 13.314722322716493 50.799999999999997  -2.1231451575316314 13.315499650234315 50.799999999999997  -2.008809677498185 13.3145348676175 50.799999999999997  -1.8945393491553262 13.311767836326522 50.799999999999997  -1.7803767908277164 13.307128886257685 50.799999999999997  -1.6663731768033363 13.300534829176417 50.799999999999997  -1.5525894007822576 13.291880288937461 50.799999999999997  -1.3633187588309259 13.273775755591796 50.799999999999997  -1.287676205192773 13.265546085892614 50.799999999999997  -1.2121882783348636 13.256293675120657 50.799999999999997  -1.1368814371420379 13.245968125071339 50.799999999999997  -1.0617903198160621 13.234510927056485 50.799999999999997  -0.9869587054340806 13.221851717304601 50.799999999999997  -0.91244166872684751 13.207900164314184 50.799999999999997  -0.75674692207154237 13.17562682962072 50.799999999999997  -0.6758182941268398 13.157040714519827 50.799999999999997  -0.59544721791326793 13.136596902927725 50.799999999999997  -0.51571762321147574 13.114039040052067 50.799999999999997  -0.43679876950445262 13.089139396384187 50.799999999999997  -0.35912417959835352 13.061410805443526 50.799999999999997  -0.28319014314030255 13.030455510543581 50.799999999999997  -0.16623519090881267 12.973497390486083 50.799999999999997  -0.12426701350372937 12.950881604201898 50.799999999999997  -0.083465047158981065 12.92639015822855 50.799999999999997  -0.043977864001817579 12.899426218311419 50.799999999999997  -0.0067215563567053493 12.869514796561877 50.799999999999997  0.026363061198487969 12.836192199808416 50.799999999999997  0.052624848371733535 12.799184508204092 50.799999999999997  0.082596963883263541 12.718565520065969 50.799999999999997  0.086641804245859433 12.677061802047438 50.799999999999997  0.07676265756128231 12.636949250333299 50.799999999999997  0.056065994563461174 12.599424438743632 50.799999999999997  0.028094945760361867 12.565016001428116 50.799999999999997  -0.0039994455153191666 12.533811418777368 50.799999999999997  -0.038082121437062355 12.505608365844289 50.799999999999997  -0.10383081645982051 12.457459616354267 50.799999999999997  -0.13587685206934452 12.436460684474204 50.799999999999997  -0.16892601995836132 12.416571672757646 50.799999999999997  -0.20272532862008497 12.397607586315921 50.799999999999997  -0.23709511410920991 12.37942701921922 50.799999999999997  -0.27191139940902298 12.361908732440227 50.799999999999997  -0.3071092754403002 12.344954332090564 50.799999999999997  -0.39439193386433313 12.304486077295282 50.799999999999997  -0.44679224700788289 12.281535498621427 50.799999999999997  -0.49969043677214908 12.259372700805429 50.799999999999997  -0.55297150536105377 12.237842969985262 50.799999999999997  -0.60655198780625152 12.216829307201285 50.799999999999997  -0.66037120175839226 12.196236165674051 50.799999999999997  -0.7143901748859256 12.175987106485268 50.799999999999997  -0.87265182110390493 12.11766275870467 50.799999999999997  -0.97732013389755412 12.080348009128869 50.799999999999997  -1.0823652983197967 12.043618395732747 50.799999999999997  -1.1876510851532505 12.007206266124685 50.799999999999997  -1.293079395126467 11.97091482466459 50.799999999999997  -1.3985764016971998 11.934586575595873 50.799999999999997  -1.5040922302468276 11.898102003257588 50.799999999999997  -1.8185653769625174 11.788571431428389 50.799999999999997  -2.0274320287502703 11.714778300677946 50.799999999999997  -2.2358446988474876 11.639210334400648 50.799999999999997  -2.4435889458184761 11.561435245587658 50.799999999999997  -2.6504896841756058 11.481143950783759 50.799999999999997  -2.8563878135970997 11.398097172033991 50.799999999999997  -3.0611419024805571 11.312129152379088 50.799999999999997  -3.4721663587486447 11.132297568272298 50.799999999999997  -3.6783939242385464 11.038306502031148 50.799999999999997  -3.8831501689413517 10.940994493414999 50.799999999999997  -4.0863045168774903 10.840262682599827 50.799999999999997  -4.2877332473932208 10.736040999059247 50.799999999999997  -4.4873152842424844 10.628280332670558 50.799999999999997  -4.6849300941261456 10.516948708242751 50.799999999999997  -5.0950794687915293 10.275892018815547 50.799999999999997  -5.3071913642907633 10.145429041576472 50.799999999999997  -5.516637354236785 10.010621584612148 50.799999999999997  -5.7232666125475902 9.8714662170046914 50.799999999999997  -5.9269324348492542 9.7279754176875759 50.799999999999997  -6.1274911593164783 9.5801759690776809 50.799999999999997  -6.3248010875131468 9.4281073507073625 50.799999999999997  -6.6981080714338574 9.1272460969341491 50.799999999999997  -6.8745962780611363 8.9790606280930074 50.799999999999997  -7.0480758141520434 8.8273036405885517 50.799999999999997  -7.2184395490419639 8.6720219020589191 50.799999999999997  -7.3855832211733423 8.5132687894836483 50.799999999999997  -7.5494052269047174 8.3511040451424119 50.799999999999997  -7.7098064093197332 8.1855935325737583 50.799999999999997  -7.9881316782992933 7.8861546422103572 50.799999999999997  -8.1074660595892585 7.7535379765722654 50.799999999999997  -8.224648311992647 7.6189921586114853 50.799999999999997  -8.3396349319016174 7.4825520373185359 50.799999999999997  -8.4523835910138914 7.3442541476825483 50.799999999999997  -8.562853136332766 7.2041367106912562 50.799999999999997  -8.6710035901671052 7.0622396333309947 50.799999999999997  -9.067869144803467 6.5234131462303875 50.799999999999997  -9.3411060937124031 6.1150466635662708 50.799999999999997  -9.5956800572519256 5.6943900473489109 50.799999999999997  -9.8308607265944481 5.2623930462913364 50.799999999999997  -10.046003403031531 4.8200636597208222 50.799999999999997  -10.240545210685744 4.3684654174478865 50.799999999999997  -10.414008542593875 3.9087184508485606 50.799999999999997  -10.703226984175753 3.0206955304140171 50.799999999999997  -10.822963833026735 2.5936807827017625 50.799999999999997  -10.924938605249054 2.1618240132503339 50.799999999999997  -11.008941585414764 1.7259952757785153 50.799999999999997  -11.074831078020164 1.2870694379833005 50.799999999999997  -11.12253173557589 0.8459255577838567 50.799999999999997  -11.152037160900413 0.40344697432284882 50.799999999999997  -11.163416783616841 -0.039477886274884681 50.799999999999997 
 0 9 0.1989457892937985 7 0.25979991337581171 7 0.32172076337853317 7 0.37288110185226153 7 0.41017189047636876 7 0.43490136792584205 7 0.45141342559292275 7 0.46958025086864391 7 0.48049603781481048 7 0.49091237818067296 7 0.50000052288390506 7 0.51322202031772546 7 0.53860996678061002 7 0.58889923040890868 7 0.64019833926393532 7 0.69650704310268574 7 0.74859560596453556 7 0.78891681866797325 7 0.89985482918939896 7 1 9
1 6.3501257484426743 -0.039477886274733962 0 1 -2.7847397241662431e-15 0 
1 -6.3501257484426628 -0.039477886276062184 50.799999999999997 -1 2.4220997983496415e-13 0 
Polygon3D 0
PolygonOnTriangulations 0
Surfaces 5
9 1 1 1 0 6 10 6 81 2 9 14.287500000000005 -9.6589403142388619e-15 0  1.6690784610682365 14.287499944068992 7.2938743260660122 0.64494626353110363  1.6690784610682914 10.150702001282536 14.588467648232465 1.2897821554216193  1.6690784610680218 1.8720773786187836 19.237824449500199 1.9348769965372803  1.6690784610686769 -8.5991099360231971 18.625602452290732 2.5795929896650378  1.6690784610676197 -17.488192980772183 11.685235616457474 3.2246313638754707  1.6690784610688769 -20.498547667851341 0.81683519506690905 3.8695963531725575  1.6690784610677354 -17.057021699017646 -9.0915714627817525 4.5143769030807306  1.6690784610685288 -9.5934801709812483 -14.960789342044706 5.1594221052198677  1.6690784610681162 -1.2710734404389097 -15.991174085037898 5.8042909203732158  1.6690784610682654 5.4675895399162462 -13.199928820755325 6.4492187499987601  1.6690784610682368 12.20625072107576 -10.408683906745354 7.0941650135348553  1.6690784610681491 17.362492153662838 -3.7952609470247944 7.7390009054140307  1.6690784610685725 18.489845255861486 5.6324227181756363 8.3840957465487485  1.6690784610675065 13.917075980733809 15.072251144024236 9.0288117396523404  1.6690784610693117 4.1033083028937254 20.628729629245043 9.6738501138848783  1.6690784610671012 -7.0897972618855345 19.250777932655506 10.318815103169522  1.6690784610691263 -14.926956402530811 12.279439460355155 10.96359565307816  1.669078461067717 -17.493232983486227 3.1379737592182568 11.608640855224326  1.669078461068453 -15.260337184966584 -4.9452386504705306 12.25350967037029  1.6690784610681835 -10.102788136202955 -10.102788136202582 12.898437499999407  1.6690784610682368 -4.9452401227389 -15.260336149668458 13.543383154945039  1.6690784610681364 3.1379742815887153 -17.493234380342926 14.188222264186395  1.6690784610686227 12.279437257710448 -14.926955352029367 14.833307759116719  1.6690784610673937 19.250779231289119 -7.0897996773052832 15.47804324756798  1.669078461069502 20.628728470341439 4.1033087621137581 16.123049917922788  1.6690784610668568 15.072252631431382 13.917074444211554 16.768056588319979  1.6690784610693579 5.6324230273269276 18.489845491426653 17.412792076738924  1.6690784610675617 -3.795260027633824 17.362492130845645 18.05787757168844  1.6690784610685205 -10.408683432442929 12.206251204938972 18.702716680920759  1.6690784610681668 -13.199928589078016 5.4675900992034263 19.347662335869565  1.6690784610682363 -15.99117407832029 -1.271072762895848 19.992590774084153  1.6690784610681721 -14.960790008220531 -9.5934795370346873 20.637456371879171  1.6690784610684735 -9.0915715148955663 -17.057021313813955 21.282510920208992  1.6690784610677267 0.81683305690239305 -20.498547702609319 21.927271974803112  1.6690784610690002 11.685236760588626 -17.488193475497731 22.572268667923975  1.6690784610674199 18.625599826089793 -8.5991107257363915 23.217265361079928  1.6690784610688811 19.237826749805727 1.8720765639532073 23.862026415655528  1.6690784610678588 14.588466291141424 10.150701382914967 24.507080963986695  1.6690784610683937 7.2938760991813565 14.287499635087737 25.151946561787089  1.6690784610681983 1.7375684224774091e-13 14.287500000000069 25.796874999997531  1.669078461068237 -7.2938743260665566 14.287499944071621 26.441821263536806  1.6690784610682341 -14.588467648230745 10.150702001271233 27.086657155413725  1.669078461068265 -19.237824449506117 1.8720773786430327 27.731751996542688  1.6690784610681089 -18.625602452279207 -8.5991099360558625 28.376467989669461  1.669078461068519 -11.685235616470361 -17.488192980742326 29.021506363857437  1.6690784610678537 -0.81683519505740654 -20.498547667872579 29.666471353200095  1.6690784610685965 9.0915714627764537 -17.057021699004903 30.311251903052508  1.6690784610679932 14.960789342047143 -9.5934801709875082 30.956297105241593  1.6690784610683502 15.991174085037239 -1.2710734404365642 31.601165920360494  1.6690784610682068 13.199928820755186 5.4675895399156111 32.24609375000405  1.669078461068237 10.408683949551357 12.206250763882322 32.891039404933636  1.6690784610681835 3.7952607635314126 17.362491970172524 33.535878514202608  1.6690784610684251 -5.6324222442771106 18.489845729742147 34.180964009102951  1.6690784610678371 -15.072252041401168 13.917075083399022 34.825699497571676  1.6690784610688487 -20.628728296603271 4.1033096354703709 35.470706167931105  1.6690784610675469 -19.250779531823717 -7.0897988609781883 36.115712838302869  1.6690784610688172 -12.279437889947086 -14.926954832191559 36.760448326759679  1.6690784610678762 -3.1379750229544543 -17.493234247170797 37.405533821669842  1.6690784610683915 4.9452394762056864 -15.260336359263578 38.050372930932774  1.6690784610681992 10.102787708131533 -10.102788564257308 38.69531858586457  1.6690784610682361 15.260336919475032 -4.9452392738679594 39.340247024092456  1.6690784610681741 17.493233356353798 3.1379729185955672 39.985112621863891  1.6690784610684581 14.926956303263395 12.279439084520826 40.630167170235232  1.6690784610677836 7.0897992505927787 19.250777146547907 41.274928224765027  1.6690784610688767 -4.10330917060032 20.628730524129299 41.919924917971137  1.6690784610675762 -13.917073252245661 15.072250868630514 42.564921611028787  1.669078461068751 -18.489847069296644 5.6324243511212311 43.209682665703255  1.6690784610679346 -17.362490663238198 -3.7952608950706868 43.85473721395028  1.6690784610683624 -12.206252240979477 -10.40868294273935 44.499602811808302  1.6690784610682057 -5.4675895399156609 -13.199928820755288 45.144531249989157  1.6690784610682365 1.2710716840443095 -15.991173691957689 45.789476904973782  1.6690784610681704 9.5934811881519462 -14.96079043267623 46.434316014143747  1.6690784610684841 17.057019262016251 -9.0915713351491423 47.079401509151253  1.6690784610676892 20.498549791987561 0.81683346046198002 47.724136997563889  1.6690784610690392 17.488191734335533 11.685235597240057 48.369143667893979  1.6690784610673972 8.5991118982237165 18.625601601929869 49.014150338365397  1.66907846106889 -1.8720771831585539 19.237824785438402 49.658885826695055  1.669078461067854 -10.150701143137956 14.588467978993616 50.303971321720461  1.6690784610683971 -14.287499691038672 7.293874954601554 50.94881043090291  1.6690784610681977 -14.287499999988183 6.05373770112827e-07 51.593756085876464  1.6690784610682365 
14.287499999999991 0.26108832541442728 -2.6247461281921503  1.0367296232096121 14.15425508638427 7.55496428103213 -1.9797996091769754  1.0367296232096572 9.8840006508139702 14.773954455117584 -1.3349655548950459  1.0367296232094347 1.5207390209598231 19.272100110447514 -0.68986439353127338  1.0367296232099856 -8.9397194973979239 18.468327147548926 -0.04516184492202413  1.0367296232090735 -17.701552577511105 11.365886531239212 0.59989582928870888  1.0367296232101892 -20.513555877363476 0.44200199278607588 1.2448415190966742  1.0367296232091461 -16.890890363512529 -9.4030899606330536 1.8896355124113775  1.0367296232098913 -9.3200731782758481 -15.136189458116283 2.5346743952513364  1.0367296232094951 -0.9788595618613426 -16.014390965016787 3.1795450475679488  1.0367296232096406 5.708803699943485 -13.100014644233566 3.8244726218065956  1.0367296232096121 12.396475787131827 -10.185666909801924 4.4694191408268722  1.0367296232095684 17.431797429878586 -3.4778783001029803 5.1142531950968646  1.0367296232097751 18.387060468842183 5.9701337633629477 5.7593543564814951  1.0367296232092695 13.641426909678565 15.326746692923042 6.4040569050631184  1.0367296232100951 3.7266190365145495 20.703638589686364 7.0491145793006815  1.0367296232091328 -7.4418413787013611 19.121201253813215 7.694060269091306  1.036729623209963 -15.151186256998425 12.006741151789525 8.3388542624103295  1.0367296232094168 -17.550653234329168 2.8182559161446159 8.9838931452551307  1.0367296232096934 -15.169961375145222 -5.2240937873188802 9.6287637975651705  1.0367296232095913 -9.9181708108130966 -10.28740546159084 10.273691371807246  1.0367296232096124 -4.6664023638263297 -15.350736673776343 10.918637282235006  1.0367296232095651 3.4577155696396304 -17.435805358882906 11.56347455387805  1.0367296232097889 12.552117938609014 -14.70276247422723 12.208566369026817  1.0367296232092365 19.380396446508737 -6.7377337601349563 12.853288413021177  1.0367296232101577 20.553811811117757 4.4799785773771603 13.498314383276151  1.0367296232090375 14.817782866819313 14.192748477453062 14.143301754316273  1.0367296232100673 5.2947080326705693 18.592635473662796 14.78805068599841  1.0367296232093424 -4.1126422935133489 17.293202284047208 15.43312986177731  1.0367296232097258 -10.631708551048703 12.016034101796942 16.077970808077957  1.0367296232095842 -13.299852153911765 5.2263798279445455 16.722916207696876  1.0367296232096119 -15.967968571860313 -1.5632865292265874 17.367844901338358  1.0367296232095655 -14.785400532945928 -9.8668977094197476 18.012708661620444  1.0367296232097849 -8.7800594833259638 -17.223153530194946 18.657769530068215  1.0367296232092351 1.1916668405024735 -20.483575376276587 19.302517140289748  1.0367296232101832 12.004594155964055 -17.274814680877409 19.947533133275709  1.0367296232089938 18.782888379193597 -8.2585452430906336 20.592510527045508  1.0367296232101058 19.203564770671672 2.2234535327087812 21.237285024964272  1.0367296232093215 14.402989860593355 10.41737995351486 21.882333254026634  1.0367296232097338 7.0327913317992792 14.420774256471555 22.527200688979875  1.036729623209582 -0.26108832541396332 14.287499999996093 23.172128871805352  1.0367296232096124 -7.5549642810330591 14.154255086398168 23.817075390828624  1.0367296232096188 -14.773954455117382 9.8840006507824612 24.461909445097589  1.0367296232095942 -19.272100110449102 1.5207390210071379 25.107010606472898  1.0367296232096213 -18.468327147539483 -8.9397194974437042 25.751713155084342  1.036729623209637 -11.365886531262795 -17.701552577486606 26.396770829268341  1.0367296232095606 -0.44200199274787144 -20.513555877364702 27.041716519126357  1.0367296232096668 9.4030899605897265 -16.890890363522296 27.686510512381659  1.0367296232095737 15.136189458151222 -9.320073178266318 28.331549395273811  1.0367296232096299 16.014390964997094 -0.97885956186694911 28.976420047554996  1.0367296232096073 13.10001464424068 5.7088036999462064 29.621347621811925  1.0367296232096124 10.185666234033535 12.396476548479443 30.266293532222932  1.0367296232095835 3.47788119679291 17.431794166259781 30.911130803896679  1.036729623209707 -5.9701412443121251 18.387068897520631 31.556222619007702  1.0367296232094221 -15.32673252716598 13.641410949217443 32.200944663033304  1.0367296232098828 -20.703659626276018 3.7266427383695717 32.845970633274554  1.0367296232093348 -19.12117600994824 -7.4418698209001546 33.490958004307871  1.0367296232098251 -12.006765941728149 -15.151158326254938 34.135706936013456  1.0367296232094889 -2.818235967160347 -17.550675710760416 34.780786111761373  1.0367296232096632 5.2240807524629904 -15.169946688844538 35.425627058089191  1.0367296232096004 10.287412219018609 -9.9181784243680298 36.070572457691952  1.0367296232096119 15.350723194106587 -4.6663885931827851 36.715501151346693  1.0367296232095509 17.435827214592667 3.45769701828244 37.360364911604449  1.0367296232098431 14.702732759990514 12.552135732386583 38.005425780096807  1.0367296232091083 6.7377683285480714 19.380387199586796 38.650173390247033  1.0367296232103782 -4.4800134612127716 20.553807007271175 39.295189383328974  1.0367296232087577 -14.192717695028076 14.817801113188791 39.940166776988761  1.0367296232103238 -18.592659272488667 5.2946828696321528 40.584941275015559  1.0367296232091761 -17.293186256013033 -4.1126185252099177 41.229989503988662  1.0367296232097993 -12.016043357715184 -10.631725452591596 41.874856939001511  1.0367296232095653 -5.2263753798819055 -13.299842997259766 42.519785121796929  1.0367296232096121 1.5632789652276053 -15.967986295304303 43.164731032264875  1.0367296232095498 9.866906484887993 -14.785373241511808 43.809568303831519  1.0367296232098526 17.223148461918377 -8.7800937451964707 44.454660119069359  1.0367296232090755 20.483570690703115 1.1917023162892091 45.099382163005387  1.0367296232104186 17.274832468395211 12.004563765802011 45.744408133260265  1.0367296232087411 8.25851660578879 18.782909835880911 46.38939550435078  1.0367296232103103 -2.22342117769688 19.203552412897594 47.034144435961458  1.036729623209198 -10.417408046225914 14.402995572831744 47.679223611806208  1.0367296232097862 -14.420755099395569 7.0327892483846401 48.324064558060996  1.0367296232095693 -14.287510161838066 -0.26108772003764891 48.96900995770369  1.0367296232096121 
11.025904747504821 0.29857616545410726 -3.0016150013683855  1.0383466998475064 10.873528254944278 5.9274208458338151 -2.3567185530829775  1.0383466998475321 7.5284964524998399 11.470141477288053 -1.7117081062058155  1.0383466998474054 1.0428137450800652 14.885642980335207 -1.0669614045894811  1.0383466998477049 -7.0253242990669644 14.193474245232174 -0.42183779214079919  1.0383466998472435 -13.740338781825571 8.6527682473684315 0.22298329995673427  1.0383466998477677 -15.835806423937163 0.20159620598356176 0.86783763831046556  1.038346699847305 -12.973516135997308 -7.3723701059371542 1.5129239210609313  1.038346699847623 -7.0906460745810591 -11.746047018916338 2.1577085150182462  1.0383466998474578 -0.64676890341440352 -12.367222617978509 2.8026884451279201  1.0383466998475184 4.4952794818637791 -10.072347571818604 3.4476037486327371  1.0383466998475064 9.6373419145681289 -7.7775044465808714 4.0925001969128445  1.0383466998474609 13.478059808868588 -2.5659906727790558 4.7375106438027679  1.0383466998476754 14.151608421074622 4.7330546733353005 5.3822573453997435  1.0383466998471482 10.424585134179607 11.922160770543451 6.0273809578651836  1.038346699848018 2.7359154763792919 16.005688822660534 6.6722020499622161  1.0383466998469866 -5.8738501480073646 14.707524963920482 7.3170563882943824  1.0383466998478963 -11.775931531756305 9.1646821259757179 7.9621426710791496  1.0383466998472861 -13.565405206197465 2.05588519064798 8.6069272650059645  1.0383466998475959 -11.673331594664299 -4.1351946481354167 9.2519071951326488  1.0383466998474851 -7.5853667843833676 -8.0076172469699554 9.8968224986324369  1.0383466998475066 -3.4974249914010418 -11.880065425265919 10.541719588697338  1.0383466998474493 2.7871592191170258 -13.434064059971963 11.186726642736632  1.0383466998477215 9.7883705792609419 -11.263124034685621 11.831483200321181  1.0383466998470421 15.00393332043717 -5.0686393493040276 12.476586254077523  1.0383466998481929 15.834352016049825 3.5974436164044752 13.121440779317096  1.0383466998467759 11.340115131584621 11.055070473539446 13.766251163073806  1.0383466998480817 3.9606486233166494 14.386699980096164 14.41138496519131  1.0383466998471707 -3.2918979934765344 13.319564809010144 15.056127068572822  1.0383466998476447 -8.28759111885776 9.20227421440371 15.701138324904287  1.0383466998474726 -10.300878856087605 3.9435865228819891 16.346034830811053  1.0383466998475062 -12.314134774000655 -1.3151111261968336 16.990950076685735  1.038346699847452 -11.344889309857018 -7.7159866954313241 17.635929197367929  1.038346699847714 -6.6598829409680693 -13.353487485322169 18.280718389512707  1.0383466998470436 1.0589048671806267 -15.801521156730773 18.92579448264712  1.0383466998482276 9.3831809018201344 -13.252327498457111 19.570659529309005  1.0383466998466935 14.553206888922848 -6.2463432789401683 20.215480434520106  1.0383466998481825 14.807262075802111 1.8464278919040871 20.860587275985672  1.0383466998470934 11.045915663544051 8.138461304671317 21.505362013951512  1.0383466998476818 5.3302688504656626 11.178315721122614 22.150345336910863  1.0383466998474631 -0.29857616545382515 11.025904747500341 22.795259998634066  1.0383466998475068 -5.9274208458317839 10.873528254959503 23.440156446909789  1.0383466998474946 -11.470141477299165 7.5284964524677251 24.085166893807333  1.0383466998475628 -14.88564298031112 1.0428137451230042 24.729913595396365  1.0383466998473432 -14.193474245261342 -7.0253242990989238 25.37503720786318  1.038346699847807 -8.6527682473526912 -13.740338781824548 26.019858299972078  1.0383466998471333 -0.20159620597218911 -15.835806423910677 26.664712638278758  1.0383466998478348 7.3723701059051523 -12.973516136030764 27.309798921095631  1.0383466998473012 11.746047018949435 -7.0906460745570277 27.954583514992713  1.0383466998475925 12.367222617957889 -0.64676890342614635 28.599563445141165  1.038346699847486 10.072347571826375 4.4952794818679864 29.244478748628218  1.0383466998475068 7.7775035796877985 9.6373426911387678 29.889375838712347  1.0383466998474784 2.5659943887381007 13.478056479983222 30.53438289270678  1.0383466998475988 -4.733064270128045 14.151617018321248 31.179139450359202  1.0383466998473239 -11.922142598264136 10.424568854514311 31.824242504049796  1.0383466998477622 -16.005715809062657 2.7359396522613055 32.469097029317176  1.0383466998472481 -14.707492580296867 -5.8738791590289079 33.113907413101472  1.0383466998477002 -9.1647139272813796 -11.775903042429837 33.759041215152898  1.0383466998473976 -2.0558595994746232 -13.565428132123779 34.403783318603615  1.0383466998475499 4.1351779266218358 -11.673316614662959 35.048794574888035  1.0383466998474964 8.0076259156057219 -7.5853745501954775 35.693691080816478  1.0383466998475059 11.880048318007914 -3.4974111094574321 36.338606326680051  1.0383466998474626 13.43409130465824 2.7871410001441372 36.983585447373194  1.0383466998476634 11.263087963041928 9.7883869123296119 37.62837463950251  1.0383466998471862 5.0686798191276186 15.003927328400215 38.27345073267378  1.0383466998479547 -3.5974826110439357 15.834342007894232 38.918315779257988  1.0383466998470556 -11.05503789140756 11.340139872736133 39.563136684588216  1.038346699847835 -14.38672372763909 3.9606169374014151 40.208243525920281  1.038346699847335 -13.319549705628239 -3.2918689057056847 40.853018263997207  1.0383466998475688 -9.2022825219583169 -8.2876115236077403 41.498001586888186  1.0383466998474924 -3.9435826655412258 -10.300867875439026 42.142916248641114  1.0383466998475064 1.3151048475914058 -12.314155891503022 42.787813338663199  1.0383466998474631 7.7159931015439183 -11.344857166836208 43.432820392806029  1.0383466998476678 13.35348619942579 -6.6599225173541985 44.07757695023237  1.0383466998471549 15.801511205695338 1.0589445496004171 44.722680004143406  1.03834669984801 13.252351667229213 9.383148705341176 45.367534529310632  1.0383466998469995 6.2463079525473582 14.553227522901258 46.012344913024521  1.038346699847875 -1.8463895301722888 14.807252261593518 46.657478715258328  1.0383466998473141 -8.1384939580798488 11.04591848584484 47.302220818522713  1.0383466998475761 -11.178293690428237 5.3302689838442614 47.947232074928593  1.0383466998474917 -11.02591636843581 -0.29857680384634655 48.592128580803752  1.0383466998475064 
8.3357768878990708 -2.2204460492503131e-16 -1.4210854715202004e-14  0.85353433019614966 8.3357770416546497 4.2555431572359144 0.6448548280773494  0.8535343301961813 5.9222819292250275 8.5111069491348683 1.2900130806947381  0.85353433019602754 1.0920182826420315 11.224485246537739 1.9344594516269815  0.85353433019640002 -5.0165000034253575 10.86610542421746 2.5799473199570748  0.85353433019580427 -10.203911594266867 6.8180394593340452 3.224548925011117  0.85353433019649605 -11.958709678759636 0.47635490042244788 3.8693522737691879  0.85353433019588942 -9.9521681780765885 -5.3043156878520383 4.5146626679648456  0.8535343301962951 -5.5968811295118597 -8.7285383923536823 5.1592455022446728  0.85353433019609259 -0.74164062443314049 -9.3297784113057673 5.8043132449650905  0.85353433019616276 3.1899637108912722 -7.7012536543107064 6.4492187500030873  0.85353433019614966 7.1215729924144409 -6.0727279343776122 7.094073578064922  0.85353433019611358 10.129596685445348 -2.214415439638131 7.7392318307233374  0.853534330196285 10.787969486824286 3.2865312001968485 8.3836782015831517  0.85353433019586367 8.1192409598291437 8.7929201981989493 9.0291660700008123  0.85353433019655667 2.3941791958219336 12.036335815802067 9.6737676749883654  0.85353433019573755 -4.1363055237545154 11.230700235750074 10.31857102376325  0.85353433019645775 -8.7090785758826268 7.1647307500788262 10.963881417987407  0.85353433019597758 -10.205951650599856 1.8305768899267465 11.60846425222392  0.85353433019621838 -8.903404896814779 -2.8851650322476416 12.253531994974873  0.85353433019613356 -5.894284363891046 -5.8942843638919422 12.898437500002029  0.85353433019614977 -2.8851609848128863 -8.9034077429705167 13.543294001149347  0.85353433019611713 1.8305754538774168 -10.205947810478428 14.188443408900449  0.85353433019627101 7.164736805399694 -8.7090814638258163 14.832915473577993  0.85353433019589664 11.230696665649901 -4.1362988835099008 15.478349746992169  0.85353433019650826 12.036339001778998 2.3941779334136974 16.12303850965553  0.85353433019578606 8.792916109123885 8.1192451838718007 16.767727272180004  0.85353433019642078 3.2865303503204082 10.787968839249352 17.413161545698998  0.85353433019600022 -2.2144179671606765 10.129596748163006 18.057633610316479  0.85353433019620784 -6.0727292382876188 7.1215716622212719 18.702783018093765  0.85353433019613623 -7.7012542912180191 3.1899621733451013 19.347639519232864  0.85353433019614955 -9.3297784297775923 -0.74164248707722602 19.992543351186942  0.85353433019611347 -8.7285365609450611 -5.5968828723055966 20.6376199388123  0.85353433019628633 -5.304315544606216 -9.9521692370520878 21.282177079295565  0.85353433019584923 0.4763607784996664 -11.958709583194326 21.927541068423871  0.85353433019661507 6.8180363139892304 -10.203910234208141 22.57225725963735  0.85353433019562519 10.866112643940125 -5.0164978324378806 23.21697345078573  0.85353433019658786 11.224478922729626 1.092020522289072 23.862337439945371  0.85353433019588076 8.5111106799427052 5.9222836291668592 24.506894580431709  0.85353433019626501 4.2555382827309769 8.3357778910867442 25.151971168042049  0.85353433019612102 -2.4158106071148211e-13 8.3357768878991312 25.796875000006569  0.85353433019614988 -4.2555431572308864 8.3357770416563941 26.441729828058037  0.85353433019615854 -8.5111069491536586 5.9222819292195066 27.086888080730418  0.85353433019612457 -11.224485246497204 1.0920182826485263 27.731334451585251  0.85353433019617653 -10.86610542427721 -5.0165000034237019 28.376822319978213  0.85353433019614799 -6.8180394592707598 -10.203911594284174 29.021423925034547  0.85353433019612179 -0.47635490047072726 -11.958709678731051 29.666227273704447  0.85353433019618941 5.304315687878395 -9.952168178104122 30.31153766804206  0.85353433019611902 8.7285383923435038 -5.5968811294943714 30.956120502183907  0.85353433019616365 9.3297784113087232 -0.74164062444023537 31.601188244998969  0.85353433019614666 7.7012536543098085 3.1899637108924432 32.246093749990408  0.85353433019614988 6.0727278166950294 7.1215728747357474 32.890950251186545  0.85353433019613656 2.2144159440995286 10.129597189878051 33.536099658831468  0.85353433019619063 -3.2865325030187007 10.787968184079462 34.180571723661025  0.85353433019607028 -8.7929177312034028 8.1192434266856708 34.82600599693474  0.85353433019626757 -12.036339479364283 2.3941755324496139 35.470694759653945  0.85353433019601987 -11.230695839486582 -4.1363011276979167 36.115383522239114  0.85353433019625613 -7.1647350672877801 -8.7090828929051085 36.760817795616276  0.85353433019608482 -1.8305734157789191 -10.205948176593102 37.405289860385352  0.85353433019617686 2.88516276220615 -8.9034071667669288 38.050439268055165  0.853534330196144 5.8942855407093955 -5.8942831871193473 38.695295769246727  0.85353433019614944 8.9034056266809216 -2.8851633184590506 39.340199601169878  0.85353433019611546 10.205950625550601 1.8305792009134321 39.985276188835059  0.85353433019627234 8.7090788487621609 7.1647317832530177 40.62983332925301  0.85353433019589808 4.1363000565928862 11.230702396911573 41.275197318508155  0.85353433019650593 -2.3941768104165644 12.036333355597527 41.91991350950083  0.85353433019578351 -8.1192484607591151 8.7929209553281726 42.564629700955024  0.85353433019643055 -10.787964501470954 3.286526711029536 43.209993689785833  0.85353433019598912 -10.129600782802507 -2.2144155824699894 43.854550830545065  0.85353433019621561 -7.1215688140202991 -6.0727305845411026 44.499627417983213  0.85353433019613356 -3.1899637108927577 -7.7012536543098129 45.144531250026418  0.85353433019614966 0.74164545296272211 -9.3297794919310366 45.789387751060829  0.85353433019610503 5.5968783332042449 -8.7285353940753367 46.434537159070729  0.85353433019632163 9.9521748776540697 -5.3043160387388451 47.079009223370534  0.8535343301957663 11.958703839292195 0.4763596690588221 47.724443497139148  0.8535343301967222 10.203915020824994 6.818039512172362 48.369132259643685  0.85353433019553671 5.016494609159003 10.866107761950564 49.013821022070914  0.85353433019663383 -1.0920188200281382 11.224484323000333 49.659255295846989  0.85353433019586722 -5.922284288341543 8.5111060398433107 50.303727360202963  0.8535343301962669 -8.3357777372703534 4.2555414293137614 50.948876768151592  0.85353433019612102 -8.3357768879314253 -1.6642430574753675e-06 51.593733269214027  0.85353433019614977 
11.025904747504827 -0.29857616545410021 3.0016150013683927  1.0383466998475068 11.178281358023463 5.330264787870826 3.646510865320888  1.038346699847547 8.1384867032561949 11.045902366219339 4.2915255151063292  1.0383466998473485 1.8463828777874189 14.807248855297612 4.9362577612855425  1.0383466998478361 -6.2462937040355113 14.553188968869158 5.5814121235457641  1.0383466998470372 -13.252349974532549 9.3831726050095963 6.2261890733827769  1.0383466998480089 -15.801480158004978 1.0589019475817245 6.8710875528288433  1.0383466998470938 -13.353486071744712 -6.6598756011768314 7.5161430883088798  1.0383466998477617 -7.7159732420135034 -11.344877843747822 8.1609421355349454  1.0383466998473949 -1.3151105400590735 -12.314121760350782 8.8059178637537769  1.0383466998475352 3.9435826655481279 -10.300867875459286 9.4508337513695331  1.0383466998475068 9.2022656184057094 -8.2875813308893562 10.095729615315243  1.0383466998474502 13.319547140136283 -3.2918974596839119 10.740744265120652  1.0383466998477229 14.386694287332645 3.9606534658685923 11.385476511261789  1.038346699847037 11.055040306898576 11.340087213668721 12.03063087357223  1.0383466998481989 3.5974663446121009 15.834359598112194 12.675407823364351  1.0383466998467801 -5.0686668269811133 15.003888333204831 13.320306302833679  1.0383466998480682 -11.263080640997849 9.7883884151688605 13.965361838313672  1.0383466998471849 -13.434075562953804 2.7871329586997087 14.610160885528567  1.0383466998476374 -11.880036070656415 -3.4974066708653124 15.255136613757022  1.038346699847476 -8.0076172469714564 -7.5853667843855055 15.900052501369258  1.038346699847507 -4.1351732224472419 -11.673304423598699 16.544949007104936  1.0383466998474518 2.0558578285099749 -13.565413763074153 17.189960264032472  1.0383466998477162 9.1647046074660903 -11.775890353670205 17.834702366239089  1.038346699847053 14.707477237739353 -5.8738725313579554 18.479836169681001  1.0383466998481825 16.00569884897925 2.7359372360897805 19.124646552869688  1.0383466998467821 11.922129715522408 10.424558208175219 19.769501077436427  1.0383466998480813 4.7330588638748647 14.151602231502244 20.414604132595827  1.0383466998471707 -2.5659920780803938 13.478042188109313 21.059360688961025  1.038346699847646 -7.7774956589589754 9.637332298059281 21.704367743615318  1.0383466998474729 -10.072337079819304 4.4952744449390076 22.349264833503327  1.0383466998475066 -12.367209618501638 -0.64676974627949979 22.994179495174553  1.0383466998474535 -11.74603414776268 -7.090633958216177 23.639162818552258  1.038346699847708 -7.3723626562571702 -12.973515534863413 24.283937555542874  1.0383466998470612 0.20159779599357819 -15.835765351880877 24.929044398180139  1.0383466998481972 8.6527575374841437 -13.740360214486897 25.57386530285908  1.038346699846733 14.193461864073502 -7.0252730586037604 26.218730348957518  1.0383466998481496 14.885624908267999 1.0427704492089396 26.863806443275184  1.0383466998471129 11.470131042204844 7.5285231552567948 27.508595634452469  1.0383466998476751 5.927413043564 10.873494543523455 28.153574755540319  1.0383466998474651 0.29857616545371646 11.025904747509426 28.798490001370908  1.0383466998475073 -5.3302647878677849 11.178281358012567 29.443385865312404  1.0383466998475033 -11.045902366227196 8.1384867032722052 30.088400515124096  1.0383466998475288 -14.807248855282882 1.8463828777720843 30.733132761261068  1.0383466998474298 -14.553188968895268 -6.2462937040273721 31.378287123565848  1.0383466998476565 -9.3831726049659565 -13.252349974531436 32.023064073379651  1.0383466998473301 -1.0589019476401933 -15.801480158013874 32.667962552812909  1.0383466998476474 6.659875601235278 -13.353486071733077 33.313018088333713  1.0383466998474282 11.34487784370466 -7.7159732420228258 33.957817135513622  1.0383466998475364 12.314121760374301 -1.3151105400532592 34.602792863766048  1.0383466998475008 10.300867875450411 3.9435826655446258 35.247708751364939  1.0383466998475073 8.2875821074962381 9.202264751553642 35.892605257120245  1.0383466998474857 3.2918941307479757 13.319550856016384 36.537616514002274  1.0383466998475721 -3.9606448685935294 14.386684690635366 37.182358616277092  1.0383466998473811 -11.340103493294947 11.055058479105478 37.827492419653922  1.0383466998476829 -15.834335422347481 3.597439358239086 38.472302802868931  1.0383466998473267 -15.003917344072374 -5.0686344433614581 39.117157327464319  1.0383466998476454 -9.7883599259748877 -11.263112442292362 39.76226038255799  1.0383466998474262 -2.7871558845434743 -13.434049971807173 40.407016938990985  1.0383466998475395 3.4974216508248439 -11.880052792142507 41.052023993599583  1.0383466998474995 7.5853590185929596 -8.0076085783512276 41.696921083508585  1.0383466998475064 11.673319907258849 -4.1351888947421109 42.341835745170002  1.0383466998474509 13.565388678087157 2.0558789221753599 42.986819068554226  1.0383466998477118 11.77592441905694 9.1646844214463368 43.631593805539239  1.0383466998470725 5.873832961516583 14.707487626762424 44.276700648196915  1.0383466998481463 -2.7358973798977209 16.005704525417269 44.921521552819705  1.0383466998468198 -10.424593304307802 11.922108692348994 45.566386599015118  1.0383466998480535 -14.151575156052145 4.7330877577532657 46.211462693216845  1.038346699847188 -13.478060386831238 -2.5660193363375798 46.856251884494874  1.0383466998476369 -9.637321805390977 -7.7774762870421856 47.501231005518477  1.0383466998474755 -4.4952794818717887 -10.072347571837851 48.146146251378042  1.0383466998475068 0.64677830028239469 -12.367189315872537 48.791042757068944  1.038346699847458 7.0906240697550764 -11.746065395574849 49.436054014107917  1.0383466998476909 12.973521148158927 -7.3723234589619908 50.080796116138352  1.0383466998471023 15.835770896276278 0.20155726242267058 50.725929919763644  1.0383466998480968 13.740339717933733 8.6527921875700056 51.370740302845704  1.038346699846896 7.0253059121454173 14.193437484691403 52.015594827401031  1.0383466998479718 -1.0428075049876693 14.885638865503362 52.660697882654532  1.0383466998472459 -7.5284910075605413 11.470124660068262 53.305454438914651  1.0383466998476092 -10.873516456210979 5.9274153242129159 53.950461493638414  1.0383466998474837 -11.025893126598637 0.29857552705496526 54.595358583496235  1.0383466998475068 
14.287499999999991 -0.26108832541443794 2.6247461281921467  1.0367296232096115 14.420744801753601 7.0327843711003313 3.2696921362393745  1.0367296232096426 10.417403351751206 14.402980841345917 3.9145298657377019  1.03672962320949 2.2234157362783287 19.203548788555771 4.5596183866070845  1.0367296232098606 -8.2585003746510512 18.782877757028121 5.2043478242499965  1.0367296232092551 -17.274833384028273 12.004584701681367 5.8493668984650355  1.0367296232100014 -20.483539458344517 1.1916683973416289 6.4943511872456909  1.0367296232092831 -17.223153034519605 -8.7800529649255914 7.1391182937519844  1.0367296232098169 -9.8668871636875579 -14.785389225975514 7.7841698151875143  1.0367296232095229 -1.5632873190164422 -15.967957205058436 8.4290367931787173  1.036729623209633 5.2263753798890136 -13.29984299727707 9.0739648781909104  1.0367296232096115 12.016025655019378 -10.63170090368795 9.7189108862435383  1.0367296232095851 17.293186877449251 -4.1126435939491106 10.363748615728326  1.0367296232097076 18.592630042874958 5.2947116729907897 11.008837136622548  1.0367296232094187 14.192725051796343 14.817755595127098 11.653566574231466  1.0367296232098593 4.479997569270445 20.553820668797549 12.298585648480506  1.0367296232094059 -6.7377531450740538 19.380354611502781 12.943569937238005  1.0367296232097216 -14.702726548057514 12.552137768920145 13.588337043752002  1.036729623209574 -17.435812732646102 3.4576916022906659 14.233388565191014  1.0367296232096206 -15.350712994787349 -4.6663835136215699 14.878255543175962  1.0367296232096093 -10.287405461592821 -9.918170810814301 15.523183628191573  1.0367296232096117 -5.2240778816513584 -15.169935625560502 16.168129027655713  1.0367296232095695 2.8182329935386905 -17.550663401803948 16.812969974492226  1.0367296232097669 12.00675657680654 -15.151148229829589 17.458049149212165  1.036729623209284 19.121162016082049 -7.4418655944746961 18.102798082106425  1.0367296232100833 20.703645129549393 3.7266389468421295 18.747785452578434  1.0367296232091223 15.32672239605413 13.641400410982753 19.392811422316665  1.0367296232099883 5.9701380219796958 18.387055509180737 20.03753346748341  1.0367296232093963 -3.4778777617540855 17.431781977648175 20.682625281598011  1.0367296232096983 -10.185658313836978 12.396468308080168 21.32746255376393  1.0367296232095911 -13.10000502424427 5.7088003704622947 21.972408464042253  1.0367296232096113 -16.014379584780094 -0.97885899656530784 22.617336646830019  1.0367296232095682 -15.136179483495924 -9.3200613646486214 23.262204082137465  1.036729623209772 -9.4030835464628701 -16.890889097435565 23.907252310350867  1.0367296232092615 0.44199927329730304 -20.513520028937805 24.552026809314743  1.0367296232101451 11.36587936522092 -17.701572270122202 25.197004202574206  1.0367296232090262 18.468311272978205 -8.9396762083800247 25.842020195112656  1.0367296232100878 19.272088728944684 1.5206995951973428 26.486767806347888  1.0367296232093237 14.773942721687567 9.8840228123147664 27.131828673946252  1.0367296232097352 7.554960866563853 14.154225013704073 27.776692434594441  1.0367296232095802 0.26108832541430349 14.28750000000403 28.421621128189713  1.0367296232096117 -7.0327843710999796 14.42074480174433 29.066567136245087  1.0367296232096193 -14.402980841344997 10.417403351762756 29.711404865729531  1.0367296232095875 -19.203548788559864 2.2234157362739175 30.35649338661306  1.0367296232096403 -18.782877757024572 -8.2585003746633454 31.001222824253983  1.0367296232095946 -12.004584701673426 -17.274833383999567 31.646241898446785  1.0367296232096197 -1.191668397367279 -20.483539458380733 32.291226187274049  1.0367296232096053 8.7800529649611576 -17.223153034487833 32.935993293722859  1.0367296232096164 14.785389225944545 -9.8668871637077924 33.581044815209793  1.0367296232096084 15.967957205077031 -1.5632873190066465 34.225911793165842  1.0367296232096121 13.299842997269659 5.2263753798850017 34.870839878196172  1.0367296232096117 10.631701665069453 12.0160249792853 35.515785277644156  1.0367296232095842 4.1126403302685306 17.29318977408543 36.160626224509407  1.0367296232097021 -5.294703244237656 18.592622561962536 36.805705399195908  1.0367296232094316 -14.817771555645926 14.192739217582371 37.450454332114191  1.0367296232098653 -20.55379696691675 4.4799765325712286 38.095441702581986  1.0367296232093544 -19.380383053711618 -6.7377279010593822 38.740467672303524  1.0367296232098073 -12.552109838159156 -14.702751338124529 39.385189717501902  1.0367296232094971 -3.4577140787508185 -17.435792783582993 40.030281531580144  1.0367296232096601 4.6663981999487794 -15.35072602968221 40.675118803775895  1.0367296232095999 9.9181631972444322 -10.287398704146593 41.320064714037187  1.0367296232096113 15.169950644844151 -5.2240899545532349 41.964992896838972  1.0367296232095571 17.550639498111941 2.8182488189081312 42.60986033212  1.0367296232098129 15.151179846542378 12.006742436659625 43.254908560381836  1.0367296232091809 7.4418301726319385 19.121167093497508 43.899683059269279  1.036729623210253 -3.7266048799888898 20.703654041002213 44.544660452629813  1.0367296232089069 -13.641428809456402 15.326700624062562 45.189676445054459  1.0367296232101935 -18.387034866110664 5.9701658326128921 45.834424056399868  1.0367296232092558 -17.431795070460854 -3.4779032649310571 46.479484923908032  1.0367296232097643 -12.396461124244206 -10.185640432887444 47.124348684616116  1.0367296232095733 -5.7088036999494172 -13.100014644250782 47.769277378181364  1.0367296232096115 0.97886440286108867 -16.014361088611714 48.414222777683804  1.036729623209558 9.3200558914144533 -15.136207623838331 49.059063724451477  1.0367296232098155 16.890890062119457 -9.403048925104919 49.704142899243152  1.0367296232091574 20.513528893262411 0.44196460463474407 50.348891832107228  1.0367296232102881 17.701551000284681 11.365907428683814 50.993879202544633  1.036729623208889 8.9397071906555929 18.468293367971256 51.638905172365902  1.036729623210185 -1.5207331886213302 19.272097157983655 52.283627217437271  1.0367296232092735 -9.8839942400485992 14.773940385154255 52.92871903163109  1.0367296232097529 -14.154244282682251 7.5549606608185487 53.573556303745704  1.0367296232095764 -14.28748983813829 0.26108893078517648 54.218502214049238  1.0367296232096115 

0 6
6.2831853071795862 6

0 11
8.2252262343949027 10
16.450452468789805 10
24.675678703184708 10
32.900904937579611 10
41.126131171974514 10
49.351357406369416 10
57.576583640764319 10
65.801809875159222 11

1 0 0 0 0 0 1 1 0 -0 -0 1 0 
1 0 0 50.799999999999997 0 0 1 1 0 -0 -0 1 0 
1 12.700251496885349 -4.0292261918063622e-15 -1.678447982107126e-15 2.7710641193009183e-15 0.9950890904644889 0.098983342227650928 0 -0.098983342227650928 0.9950890904644889 1 -2.757455674093931e-15 -2.7428918805552691e-16 
1 -12.700251496885308 9.5962187024577681e-11 51.593750000964128 -2.4102050853540654e-13 -0.99508909046452965 0.098983342227241797 0 -0.098983342227241797 -0.99508909046452965 1 -2.398368786217961e-13 2.3857015480143998e-14 
Triangulations 0

TShapes 28
Ve
5.00000000985078e-06
14.2365832163831 -0.0394778862747562 0
0 0

0101101
*
Ve
5.000001e-06
13.5882470647704 4.41505320031442 -8.73037280037695e-17
0 0

0101101
*
Ed
 5e-06 1 1 0
1  1 0 0 1
2  1 1 1 0 1
2  2 2 0 0 1
0

0101000
+28 0 -27 0 *
Ve
5.00000001686785e-06
11.1634167836169 -0.0394778862747473 -3.43119348374273e-15
0 0

0101101
*
Ed
 1e-07 1 1 0
1  2 0 3.3955472526214 6.02674846872088
2  3 1 0 3.3955472526214 6.02674846872088
0

0101000
+25 2 -28 2 *
Ed
 5e-06 1 1 0
1  3 0 0 1
2  4 1 1 0 1
2  5 2 0 0 1
0

0101000
+25 0 -27 0 *
Ve
5.000001e-06
-13.5882254671712 4.4151196839669 50.8
0 0

0101101
*
Ed
 1e-07 1 1 0
1  4 0 0.506162711216503 65.2956393492959
3  6 7G1 1 0 0.506162711216503 65.2956393492959
0

0101000
+27 2 -22 2 *
Ve
5.00000001067118e-06
-14.2365832163831 -0.0394778862741516 50.8
0 0

0101101
*
Ed
 5e-06 1 1 0
1  5 0 0 1
2  8 1 1 0 1
2  9 3 0 0 1
0

0101000
+20 0 -22 0 *
Ve
5.00000002299107e-06
-11.1634167836169 -0.0394778862748968 50.8
0 0

0101101
*
Ed
 1e-07 1 1 0
1  6 0 0.256440712569333 2.88764190709194
2  10 1 0 0.256440712569333 2.88764190709194
0

0101000
+20 2 -18 2 *
Ed
 5e-06 1 1 0
1  7 0 0 1
2  11 1 1 0 1
2  12 3 0 0 1
0

0101000
+22 0 -18 0 *
Wi

0101100
+26 0 +24 1 -23 0 -21 1 +19 0 -17 1 +16 0 +21 1 *
Fa
0  1e-07 1 1

0101000
+15 0 *
Ed
 1.5e-07 1 1 0
1  8 0 4.81329103517421 7.88645746794045
2  13 4 1 4.81329103517421 7.88645746794045
2  14 2 0 4.81329103517421 7.88645746794045
0

0101000
+25 0 -28 0 *
Wi

0101100
-23 0 +26 0 +13 0 *
Fa
0  1e-07 2 0

0101000
+12 0 *
Wi

0101100
-13 0 +24 1 *
Fa
0  1e-07 4 1

0101000
+10 0 *
Ed
 1.5e-07 1 1 0
1  9 0 4.8132910351742 7.88645746794043
2  15 5 1 4.8132910351742 7.88645746794043
2  16 3 0 4.8132910351742 7.88645746794043
0

0101000
+18 0 -20 0 *
Wi

0101100
-16 0 -8 0 -19 0 *
Fa
0  1e-07 3 0

0101000
+7 0 *
Wi

0101100
+8 0 +17 1 *
Fa
0  1e-07 5 1

0101000
+5 0 *
Sh

0101100
+14 0 -11 0 -9 0 +6 0 +4 0 *
So

0100000
+3 0 *
Co

1100000
+2 0 *

+1 0 