
CASCADE Topology V1, (c) Matra-Datavision
Locations 15
1
1.000000000000000 0.000000000000000 0.000000000000000 0.000000000000000 
0.000000000000000 1.000000000000000 0.000000000000000 0.000000000000000 
0.000000000000000 0.000000000000000 1.000000000000000 0.000000000000000 
1
-1.000000000000000 0.000000000000000 0.000000000000000 4774.322745664739159 
0.000000000000000 1.000000000000000 0.000000000000000 -498.350000000000023 
0.000000000000000 0.000000000000000 -1.000000000000000 2122.321821631878265 
1
1.000000000000000 0.000000000000000 0.000000000000000 0.000000000000000 
0.000000000000000 1.000000000000000 0.000000000000000 0.000000000000000 
0.000000000000000 0.000000000000000 1.000000000000000 0.000000000000000 
2  3 -1 2 -1 0
1
1.000000000000000 0.000000000000000 0.000000000000000 0.000000000000000 
0.000000000000000 1.000000000000000 0.000000000000000 0.000000000000000 
0.000000000000000 0.000000000000000 1.000000000000000 0.000000000000000 
1
-1.000000000000000 0.000000000000000 0.000000000000000 4774.322745664739159 
0.000000000000000 1.000000000000000 0.000000000000000 -498.350000000000023 
0.000000000000000 0.000000000000000 -1.000000000000000 2122.321821631878265 
1
-1.000000000000000 0.000000000000000 0.000000000000000 4774.322745664739159 
0.000000000000000 1.000000000000000 0.000000000000000 -498.350000000000023 
-0.000000000000000 0.000000000000000 -1.000000000000000 2122.321821631878265 
2  5 1 6 1 7 -1 0
2  3 -1 2 -1 7 1 6 -1 5 -1 0
1
1.000000000000000 0.000000000000000 0.000000000000000 0.000000000000001 
0.000000000000000 1.000000000000000 0.000000000000000 0.000000000000000 
0.000000000000000 0.000000000000000 1.000000000000000 6.000000000000000 
2  5 1 6 1 7 -1 10 1 0
2  3 -1 2 -1 10 -1 7 1 6 -1 5 -1 0
2  7 -1 0
2  5 1 6 1 0
2  7 -1 10 1 0
Curve2ds 0
Curves 18
1 0.00000000000000000 0.00000000000000000 0.00000000000000000 0.00000000000000012 0.00000000000000000 1.00000000000000000 
1 -2451.10000000000036380 0.00000000000000000 0.00000000000030017 0.00000000000000012 0.00000000000000000 1.00000000000000000 
1 0.00000000000000000 0.00000000000000000 0.00000000000000000 -1.00000000000000000 0.00000000000000000 0.00000000000000000 
1 0.00000000000000000 0.00000000000000000 0.00000000000000000 -1.00000000000000000 0.00000000000000000 0.00000000000000000 
1 -2451.10000000000036380 -89.72500000000002274 0.00000000000030017 0.00000000000000012 0.00000000000000000 1.00000000000000000 
1 -2451.10000000000036380 0.00000000000000000 0.00000000000000000 0.00000000000000000 -1.00000000000000000 0.00000000000000000 
1 -2451.10000000000036380 0.00000000000000000 0.00000000000000000 0.00000000000000000 -1.00000000000000000 0.00000000000000000 
1 -3136.90000000000054570 -89.72500000000002274 0.00000000000038416 0.00000000000000012 0.00000000000000000 1.00000000000000000 
1 -2451.10000000000036380 -89.72500000000002274 0.00000000000000000 -1.00000000000000000 0.00000000000000000 0.00000000000000000 
1 -2451.10000000000036380 -89.72500000000002274 0.00000000000000000 -1.00000000000000000 0.00000000000000000 0.00000000000000000 
1 -3136.90000000000054570 -666.87499999999988631 0.00000000000038416 0.00000000000000012 0.00000000000000000 1.00000000000000000 
1 -3136.90000000000054570 -89.72500000000002274 0.00000000000000000 0.00000000000000000 -1.00000000000000000 0.00000000000000000 
1 -3136.90000000000054570 -89.72500000000002274 0.00000000000000000 0.00000000000000000 -1.00000000000000000 0.00000000000000000 
1 0.00000000000000000 -666.87499999999988631 0.00000000000000000 0.00000000000000012 0.00000000000000000 1.00000000000000000 
1 -3136.90000000000054570 -666.87499999999988631 0.00000000000000000 1.00000000000000000 0.00000000000000000 0.00000000000000000 
1 -3136.90000000000054570 -666.87499999999988631 0.00000000000000000 1.00000000000000000 0.00000000000000000 0.00000000000000000 
1 0.00000000000000000 -666.87499999999988631 0.00000000000000000 0.00000000000000000 1.00000000000000000 0.00000000000000000 
1 0.00000000000000000 -666.87499999999988631 0.00000000000000000 0.00000000000000000 1.00000000000000000 0.00000000000000000 
Polygon3D 0
PolygonOnTriangulations 0
Surfaces 8
1 0.00000000000000000 0.00000000000000000 0.00000000000000000 0.00000000000000000 -1.00000000000000000 0.00000000000000000 -1.00000000000000000 0.00000000000000000 0.00000000000000012 -0.00000000000000012 -0.00000000000000000 -1.00000000000000000 
1 -2451.10000000000036380 0.00000000000000000 0.00000000000030017 1.00000000000000000 0.00000000000000000 -0.00000000000000012 0.00000000000000000 -1.00000000000000000 0.00000000000000000 -0.00000000000000012 -0.00000000000000000 -1.00000000000000000 
1 -2451.10000000000036380 -89.72500000000002274 0.00000000000030017 0.00000000000000000 -1.00000000000000000 0.00000000000000000 -1.00000000000000000 0.00000000000000000 0.00000000000000012 -0.00000000000000012 -0.00000000000000000 -1.00000000000000000 
1 -3136.90000000000054570 -89.72500000000002274 0.00000000000038416 1.00000000000000000 0.00000000000000000 -0.00000000000000012 0.00000000000000000 -1.00000000000000000 0.00000000000000000 -0.00000000000000012 -0.00000000000000000 -1.00000000000000000 
1 -3136.90000000000054570 -666.87499999999988631 0.00000000000038416 0.00000000000000000 1.00000000000000000 0.00000000000000000 1.00000000000000000 0.00000000000000000 -0.00000000000000012 -0.00000000000000012 0.00000000000000000 -1.00000000000000000 
1 0.00000000000000000 -666.87499999999988631 0.00000000000000000 -1.00000000000000000 0.00000000000000000 0.00000000000000012 0.00000000000000000 1.00000000000000000 0.00000000000000000 -0.00000000000000012 0.00000000000000000 -1.00000000000000000 
1 6334.68428025866251119 -839.87596540607671614 2122.32182163187826518 0.00000000000000000 0.00000000000000000 1.00000000000000000 1.00000000000000000 0.00000000000000000 0.00000000000000000 0.00000000000000000 1.00000000000000000 0.00000000000000000 
1 6334.68428025866251119 -839.87596540607671614 2122.32182163187826518 0.00000000000000000 0.00000000000000000 1.00000000000000000 1.00000000000000000 0.00000000000000000 0.00000000000000000 0.00000000000000000 1.00000000000000000 0.00000000000000000 
Triangulations 0

TShapes 48
Ve
0.000000100000000
4774.322745664739159 -498.350000000000023 2122.321821631878265
0 0

0101101
*
Ve
0.000000100000000
4774.322745664739159 -498.350000000000023 2116.321821631878265
0 0

0101101
*
Ed
 0.000000100000000 1 1 0
1  1 0 0.000000000000000 6.000000000000000
0

0101000
+48 4 -47 4 *
Ve
0.000000100000000
7225.422745664739523 -498.350000000000023 2122.321821631877810
0 0

0101101
*
Ve
0.000000100000000
7225.422745664739523 -498.350000000000023 2116.321821631877810
0 0

0101101
*
Ed
 0.000000100000000 1 1 0
1  2 0 0.000000000000000 6.000000000000000
0

0101000
+45 4 -44 4 *
Ed
 0.000000100000000 1 1 0
1  3 0 0.000000000000000 2451.100000000000364
0

0101000
+48 9 -45 9 *
Ed
 0.000000100000000 1 1 0
1  4 0 0.000000000000000 2451.100000000000364
0

0101000
+47 12 -44 12 *
Wi

0101100
+46 0 -43 0 -42 8 +41 11 *
Fa
0  0.000000100000000 1 0

0111000
+40 0 *
Ve
0.000000100000000
7225.422745664739523 -588.075000000000045 2122.321821631877810
0 0

0101101
*
Ve
0.000000100000000
7225.422745664739523 -588.075000000000045 2116.321821631877810
0 0

0101101
*
Ed
 0.000000100000000 1 1 0
1  5 0 0.000000000000000 6.000000000000000
0

0101000
+38 4 -37 4 *
Ed
 0.000000100000000 1 1 0
1  6 0 0.000000000000000 89.725000000000023
0

0101000
+45 9 -38 9 *
Ed
 0.000000100000000 1 1 0
1  7 0 0.000000000000000 89.725000000000023
0

0101000
+44 12 -37 12 *
Wi

0101100
+43 0 -36 0 -35 8 +34 11 *
Fa
0  0.000000100000000 2 0

0111000
+33 0 *
Ve
0.000000100000000
7911.222745664739705 -588.075000000000045 2122.321821631877810
0 0

0101101
*
Ve
0.000000100000000
7911.222745664739705 -588.075000000000045 2116.321821631877810
0 0

0101101
*
Ed
 0.000000100000000 1 1 0
1  8 0 0.000000000000000 6.000000000000000
0

0101000
+31 4 -30 4 *
Ed
 0.000000100000000 1 1 0
1  9 0 0.000000000000000 685.800000000000182
0

0101000
+38 9 -31 9 *
Ed
 0.000000100000000 1 1 0
1  10 0 0.000000000000000 685.800000000000182
0

0101000
+37 12 -30 12 *
Wi

0101100
+36 0 -29 0 -28 8 +27 11 *
Fa
0  0.000000100000000 3 0

0111000
+26 0 *
Ve
0.000000100000000
7911.222745664739705 -1165.224999999999909 2122.321821631877810
0 0

0101101
*
Ve
0.000000100000000
7911.222745664739705 -1165.224999999999909 2116.321821631877810
0 0

0101101
*
Ed
 0.000000100000000 1 1 0
1  11 0 0.000000000000000 6.000000000000000
0

0101000
+24 4 -23 4 *
Ed
 0.000000100000000 1 1 0
1  12 0 0.000000000000000 577.149999999999864
0

0101000
+31 9 -24 9 *
Ed
 0.000000100000000 1 1 0
1  13 0 0.000000000000000 577.149999999999864
0

0101000
+30 12 -23 12 *
Wi

0101100
+29 0 -22 0 -21 8 +20 11 *
Fa
0  0.000000100000000 4 0

0111000
+19 0 *
Ve
0.000000100000000
4774.322745664739159 -1165.224999999999909 2122.321821631878265
0 0

0101101
*
Ve
0.000000100000000
4774.322745664739159 -1165.224999999999909 2116.321821631878265
0 0

0101101
*
Ed
 0.000000100000000 1 1 0
1  14 0 0.000000000000000 6.000000000000000
0

0101000
+17 4 -16 4 *
Ed
 0.000000100000000 1 1 0
1  15 0 0.000000000000000 3136.900000000000546
0

0101000
+24 9 -17 9 *
Ed
 0.000000100000000 1 1 0
1  16 0 0.000000000000000 3136.900000000000546
0

0101000
+23 12 -16 12 *
Wi

0101100
+22 0 -15 0 -14 8 +13 11 *
Fa
0  0.000000100000000 5 0

0111000
+12 0 *
Ed
 0.000000100000000 1 1 0
1  17 0 0.000000000000000 666.874999999999886
0

0101000
+17 9 -48 9 *
Ed
 0.000000100000000 1 1 0
1  18 0 0.000000000000000 666.874999999999886
0

0101000
+16 12 -47 12 *
Wi

0101100
+15 0 -46 0 -10 8 +9 11 *
Fa
0  0.000000100000000 6 0

0111000
+8 0 *
Wi

0101100
+42 0 +35 0 +28 0 +21 0 +14 0 +10 0 *
Fa
0  0.000000100000000 7 0

0111000
-6 14 *
Wi

0101100
+41 0 +34 0 +27 0 +20 0 +13 0 +9 0 *
Fa
0  0.000000100000000 8 0

0111000
-4 14 *
Sh

0101100
-39 0 -32 0 -25 0 -18 0 -11 0 -7 0 +5 13 -3 15 *
So

1100000
+2 2 *

+1 1 