
CASCADE Topology V1, (c) Matra-Datavision
Locations 5
1
1.000000000000000 0.000000000000000 0.000000000000000 0.000000000000000 
0.000000000000000 1.000000000000000 0.000000000000000 0.000000000000000 
0.000000000000000 0.000000000000000 1.000000000000000 0.000000000000000 
1
1.000000000000000 0.000000000000000 0.000000000000000 0.000000000000000 
0.000000000000000 1.000000000000000 0.000000000000000 0.000000000000000 
0.000000000000000 0.000000000000000 1.000000000000000 0.000000000000000 
2  2 -1 0
1
1.000000000000000 0.000000000000000 0.000000000000000 12.699999999999999 
0.000000000000000 1.000000000000000 0.000000000000000 0.000000000000000 
0.000000000000000 0.000000000000000 1.000000000000000 0.000000000000000 
2  2 -1 4 -1 0
Curve2ds 10
1 6.28318530717958623 -0.00000000000000000 0.00000000000000000 1.00000000000000000 
1 0.00000000000000000 -0.00000000000000000 0.00000000000000000 1.00000000000000000 
1 0.00000000000000000 0.00000000000000000 1.00000000000000000 0.00000000000000000 
1 0.00000000000000000 63.50000000000000000 1.00000000000000000 0.00000000000000000 
7 0 0  8 51 8  1.38735452822844429 55.49857142857132430  1.38735452822844429 55.68026957870645077  1.38967318173630128 55.86235376163337918  1.39432822375317622 56.04288107796310925  1.40135359233404344 56.21981628609975701  1.41079808929278117 56.39088624811662243  1.42272289852613842 56.55337413674890712  1.43719296129096796 56.70378798850458679  1.46911971096616489 56.95365684678938578  1.48645470061370233 57.06113119919469057  1.50598786549454178 57.15083296266109159  1.52723637652251565 57.21615105447244787  1.54957179686732571 57.25275098609547797  1.57230516637521500 57.25856991387344408  1.59472641797275561 57.23388930221005921  1.63813745956046053 57.12783236975874956  1.65838848560284768 57.04681178261392915  1.67670022892784920 56.94370924429789937  1.69294376071075447 56.82304801841268471  1.70705294768198379 56.68881047044774135  1.71900968609310745 56.54455386241841097  1.72883999016355028 56.39346049808325034  1.74538201541918614 56.06321496995929010  1.75169558019569704 55.87958071913286062  1.75550328503388076 55.69043447057036644  1.75677585716411500 55.49857142857071324  1.75550328503386299 55.30670838657142951  1.75169558019564975 55.11756213801017168  1.74538201541928140 54.93392788718528408  1.72932582612872920 54.61338160400811859  1.72024683984808568 54.47181606785471075  1.70932322635652567 54.33621464453864291  1.69652776621660228 54.20901294403857662  1.68186028710840008 54.09298289950028504  1.66535294602626238 53.99128385765559557  1.64708232238161156 53.90755991746632958  1.60815537061797564 53.78727800137569659  1.58789235119436567 53.74966308821421279  1.56694689909613749 53.73712548525956834  1.54593310410921303 53.75126092959914814  1.52547624408771854 53.79150578767583113  1.50617199596816542 53.85519550099024144  1.48852538251150968 53.93753639107617204  1.45103462081398504 54.16307349750616851  1.43247470649685971 54.32133879400200982  1.41721766433132146 54.49803721295828041  1.40517284835223788 54.68739932833275219  1.39623722877974488 54.88511533927858466  1.39031746434388870 55.08790608498217978  1.38735452822844429 55.29317856849429091  1.38735452822844429 55.49857142857132430 
 0.00000000000000000 9 0.15324233986425975 7 0.28671232748255898 7 0.42336002112610233 7 0.57767301404868587 7 0.70577525066229008 7 0.82842299934470864 7 1.00000000000000000 9
7 0 0  8 51 8  0.00000000000000000 1.15981346955651965  0.10457447489791179 1.15981346955651965  0.20937046104328783 1.15578500469640710  0.31501614733007427 1.14769607634718418  0.42210529436588562 1.13577277177236602  0.53130042896967522 1.12050064460894139  0.64333666149745838 1.10268162945366144  0.75906148847359545 1.08350715060050207  0.98467178421548396 1.04814750327654727  1.09695005316340821 1.03133686097465826  1.21386901408607883 1.01587612787685999  1.33380152560021292 1.00377931413464605  1.45559298702757633 0.99683619472283025  1.57825540640360229 0.99585269107426966  1.70084442551137771 1.00053746744764371  1.94629051830966349 1.01929532116948862  2.06517295767596343 1.03329055866945385  2.17966012826806255 1.05025499109859921  2.29032119346536911 1.06854895511093728  2.39758416355083437 1.08671970147844577  2.50177537281474827 1.10361940532700697  2.60311571614368820 1.11842574999131528  2.81317726126043688 1.14443208001117425  2.92330798666939273 1.15518420636984187  3.03264434086264778 1.16201081133520012  3.14159265359010931 1.16435042433537039  3.25054096631744294 1.16201081133513906  3.35987732051006649 1.15518420636979147  3.47000804591794143 1.14443208001132346  3.67390012557192414 1.11918955068988213  3.76854614775735364 1.10548577569221251  3.86558232026758652 1.08994314625083888  3.96526318930657862 1.07320663144307726  4.06791039351453421 1.05616067994805496  4.17391729960270741 1.03993071266676584  4.28378151766076520 1.02582243628375869  4.50780480222665680 1.00492189304437551  4.62009410778499152 0.99798237716799321  4.73357329292721740 0.99550809147025110  4.84711691207555972 0.99817253538150974  4.95966840911932039 1.00579690555018497  5.07008457882630381 1.01727563862515824  5.17689245477019799 1.03105867084224090  5.41914523140795712 1.06596253460170542  5.55320126260289104 1.08842017436173966  5.68183059658843881 1.11022717769293799  5.80626329427272481 1.12931272735381150  5.92760158403802073 1.14438047976513269  6.04683078562645981 1.15466522394948812  6.16497358914963733 1.15981346955651965  6.28318530717958623 1.15981346955651965 
 0.00000000000000000 9 0.15324233986425975 7 0.28671232748255898 7 0.42336002112610233 7 0.57767301404868587 7 0.70577525066229008 7 0.82842299934470864 7 1.00000000000000000 9
7 0 0  8 51 8  4.89583077895114283 55.49857142857132430  4.89583077895114283 55.68026957870711158  4.89351212544325964 55.86235376163436683  4.88885708342640424 56.04288107796303819  4.88183171484553480 56.21981628609948700  4.87238721788681861 56.39088624811634531  4.86046240865351820 56.55337413674806157  4.84599234588865357 56.70378798850430258  4.81406559621342911 56.95365684678932894  4.79673060656584571 57.06113119919551480  4.77719744168513127 57.15083296265880364  4.75594893065695512 57.21615105447537530  4.73361351031235955 57.25275098609355950  4.71088014080431616 57.25856991387394146  4.68845888920684839 57.23388930221010185  4.64504784761911971 57.12783236975872114  4.62479682157675409 57.04681178261400021  4.60648507825172349 56.94370924429777858  4.59024154646882732 56.82304801841267761  4.57613235949761510 56.68881047044783372  4.56417562108647168 56.54455386241834702  4.55434531701603706 56.39346049808327876  4.53780329176023756 56.06321496995605003  4.53148972698388164 55.87958071913028846  4.52768202214573279 55.69043447057025276  4.52640945001551565 55.49857142857186432  4.52768202214571769 55.30670838657317745  4.53148972698383634 55.11756213801209725  4.53780329176032282 54.93392788718491460  4.55385948105085525 54.61338160400811859  4.56293846733149877 54.47181606785466812  4.57386208082306212 54.33621464453869976  4.58665754096298350 54.20901294403858373  4.60132502007118394 54.09298289950022109  4.61783236115332585 53.99128385765561688  4.63610298479797400 53.90755991746632958  4.67502993656154509 53.78727800137590265  4.69529295598548657 53.74966308821381489  4.71623840808286676 53.73712548525964650  4.73725220307113037 53.75126092959991553  4.75770906309129149 53.79150578767460189  4.77701331121166195 53.85519550099110120  4.79465992466803304 53.93753639107591624  4.83215068636569267 54.16307349750671563  4.85071060068243121 54.32133879399970056  4.86596764284874972 54.49803721296332526  4.87801245882688761 54.68739932832610151  4.88694807840009116 54.88511533928407005  4.89286784283563581 55.08790608497950103  4.89583077895114194 55.29317856849493751  4.89583077895114194 55.49857142857132430 
 0.00000000000000000 9 0.15324233986302063 7 0.28671232747989500 7 0.42336002112190785 7 0.57767301404558957 7 0.70577525066037161 7 0.82842299934348851 7 1.00000000000000000 9
7 0 0  8 51 8  0.00000000000000000 19.89018653044348284  0.10457447489829878 19.89018653044348284  0.20937046104386836 19.89421499530365267  0.31501614733001976 19.90230392365282341  0.42210529436576921 19.91422722822764158  0.53130042896954444 19.92949935539104445  0.64333666149683666 19.94731837054623469  0.75906148847334354 19.96649284939945801  0.98467178421543333 20.00185249672344412  1.09695005316376482 20.01866313902538153  1.21386901408521375 20.03412387212307877  1.33380152560131693 20.04622068586541417  1.45559298702673878 20.05316380527714060  1.57825540640398687 20.05414730892573516  1.70084442551127935 20.04946253255236144  1.94629051830969679 20.03070467883051009  2.06517295767582620 20.01670944133056551  2.17966012826820998 19.99974500890137818  2.29032119346539886 19.98145104488906654  2.39758416355069537 19.96328029852158537  2.50177537281483220 19.94638059467296998  2.60311571614367310 19.93157425000869054  2.81317726126249568 19.90556791998857733  2.92330798667075031 19.89481579363010155  3.03264434086270818 19.88798918866487142  3.14159265358952045 19.88564957566471847  3.25054096631640865 19.88798918866482524  3.35987732050888743 19.89481579363004826  3.47000804591816836 19.90556791998870878  3.67390012557191303 19.93081044931012258  3.76854614775730878 19.94451422430778464  3.86558232026766913 19.96005685374915473  3.96526318930656796 19.97679336855693322  4.06791039351444894 19.99383932005195419  4.17391729960276869 20.01006928733321999  4.28378151766076076 20.02417756371623980  4.50780480222627755 20.04507810695559300  4.62009410778660712 20.05201762283205369  4.73357329292365847 20.05449190852977637  4.84711691208013029 20.05182746461833787  4.95966840911586893 20.04420309445000825  5.07008457882777019 20.03272436137472212  5.17689245476991999 20.01894132915779778  5.41914523140854598 19.98403746539820958  5.55320126259996716 19.96157982563858369  5.68183059659516054 19.93977282230648740  5.80626329426404908 19.92068727264677008  5.92760158404451154 19.90561952023453429  6.04683078562388943 19.89533477605060341  6.16497358915001303 19.89018653044347928  6.28318530717958623 19.89018653044347928 
 0.00000000000000000 9 0.15324233986302063 7 0.28671232747989500 7 0.42336002112190785 7 0.57767301404558957 7 0.70577525066037161 7 0.82842299934348851 7 1.00000000000000000 9
1 6.28318530717958623 -0.00000000000000000 0.00000000000000000 1.00000000000000000 
1 0.00000000000000000 -0.00000000000000000 0.00000000000000000 1.00000000000000000 
Curves 24
1 0.00000000000000000 0.00000000000000233 9.52500000000000036 1.00000000000000000 0.00000000000000000 0.00000000000000000 
2 0.00000000000000000 0.00000000000000000 0.00000000000000000 1.00000000000000000 0.00000000000000000 -0.00000000000000000 0.00000000000000000 0.00000000000000000 1.00000000000000000 0.00000000000000000 -1.00000000000000000 0.00000000000000000 9.52500000000000036
2 63.50000000000000000 0.00000000000000000 0.00000000000000000 1.00000000000000000 0.00000000000000000 -0.00000000000000000 0.00000000000000000 0.00000000000000000 1.00000000000000000 0.00000000000000000 -1.00000000000000000 0.00000000000000000 9.52500000000000036
7 0 0  8 51 8  55.49857142857132430 -9.36518653044348071 1.73750000000000071  55.68026957870645077 -9.36518653044348071 1.73750000000000071  55.86235376163337918 -9.36921499530359370 1.71578534692799067  56.04288107796310925 -9.37730392365281595 1.67219014602245197  56.21981628609975701 -9.38922722822763411 1.60634367376216725  56.39088624811662243 -9.40449935539105830 1.51768329007382041  56.55337413674890712 -9.42231837054633914 1.40548251766848797  56.70378798850458679 -9.44149284939949851 1.26895864160627170  56.95365684678938578 -9.47685249672345265 0.96691907710601477  57.06113119919469057 -9.49366313902534209 0.80264360819837588  57.15083296266108448 -9.50912387212314059 0.61717799042799815  57.21615105447244787 -9.52122068586535342 0.41502967399894608  57.25275098609547086 -9.52816380527717044 0.20223288046610577  57.25856991387344408 -9.52914730892573125 -0.01442624250009206  57.23388930221005921 -9.52446253255235575 -0.22799611610422010  57.12783236975874956 -9.50570467883051151 -0.64106059598476528  57.04681178261392915 -9.49170944133054739 -0.83351501520873694  56.94370924429789937 -9.47474500890140092 -1.00718919134103491  56.82304801841268471 -9.45645104488906441 -1.16087783223119723  56.68881047044774135 -9.43828029852155481 -1.29405859023285008  56.54455386241841097 -9.42138059467299271 -1.40669590221485374  56.39346049808325034 -9.40657425000868486 -1.49915363632966114  56.06321496995929010 -9.38056791998882566 -1.65455538589488094  55.87958071913286062 -9.36981579363015804 -1.71372904678924076  55.69043447057036644 -9.36298918866480001 -1.74934924345382337  55.49857142857071324 -9.36064957566462930 -1.76124144019475670  55.30670838657142951 -9.36298918866486041 -1.74934924345356624  55.11756213801017168 -9.36981579363020955 -1.71372904678885485  54.93392788718528408 -9.38056791998867645 -1.65455538589577467  54.61338160400811859 -9.40581044931011867 -1.50371775455725598  54.47181606785471075 -9.41951422430778607 -1.41833125838132479  54.33621464453864291 -9.43505685374916148 -1.31544325600349099  54.20901294403857662 -9.45179336855692398 -1.19470202366218481  54.09298289950028504 -9.46883932005194673 -1.05599830505756942  53.99128385765559557 -9.48506928733323385 -0.89954656925839671  53.90755991746632958 -9.49917756371624122 -0.72603817572173213  53.78727800137569659 -9.52007810695562462 -0.35584850274967517  53.74966308821421279 -9.52701762283200715 -0.16292757786695544  53.73712548525956834 -9.52949190852974937 0.03665496256007827  53.75126092959914814 -9.52682746461849028 0.23692717413799969  53.79150578767583113 -9.51920309444981605 0.43174146877003317  53.85519550099024144 -9.50772436137484256 0.61531559067150710  53.93753639107617204 -9.49394132915776012 0.78285470059817364  54.16307349750616851 -9.45903746539829449 1.13824431339876009  54.32133879400200982 -9.43657982563826003 1.31367248297624339  54.49803721295828041 -9.41477282230706258 1.45740051039716967  54.68739932833275219 -9.39568727264618886 1.57054235842544898  54.88511533927858466 -9.38061952023486789 1.65431199038818910  55.08790608498217978 -9.37033477605051246 1.70975152085124193  55.29317856849429091 -9.36518653044348071 1.73750000000000071  55.49857142857132430 -9.36518653044348071 1.73750000000000071 
 0.00000000000000000 9 0.15324233986425975 7 0.28671232748255898 7 0.42336002112610233 7 0.57767301404868587 7 0.70577525066229008 7 0.82842299934470864 7 1.00000000000000000 9
7 0 0  8 51 8  55.49857142857132430 9.36518653044348071 1.73749999999999916  55.68026957870711158 9.36518653044348071 1.73749999999999916  55.86235376163436683 9.36921499530363810 1.71578534692771978  56.04288107796304530 9.37730392365283016 1.67219014602243377  56.21981628609950832 9.38922722822764122 1.60634367376208220  56.39088624811635952 9.40449935539103343 1.51768329007389857  56.55337413674806157 9.42231837054623966 1.40548251766918519  56.70378798850430258 9.44149284939945943 1.26895864160660898  56.95365684678932894 9.47685249672344554 0.96691907710608271  57.06113119919551480 9.49366313902536696 0.80264360819792646  57.15083296265881074 9.50912387212311216 0.61717799042910704  57.21615105447537530 9.52122068586536230 0.41502967399743840  57.25275098609355950 9.52816380527718465 0.20223288046734522  57.25856991387394146 9.52914730892571349 -0.01442624250071400  57.23388930221010185 9.52446253255236464 -0.22799611610405468  57.12783236975872114 9.50570467883050796 -0.64106059598482168  57.04681178261400021 9.49170944133055983 -0.83351501520853388  56.94370924429777858 9.47474500890138138 -1.00718919134124074  56.82304801841267761 9.45645104488906441 -1.16087783223124963  56.68881047044783372 9.43828029852157435 -1.29405859023265357  56.54455386241834702 9.42138059467297673 -1.40669590221495810  56.39346049808327876 9.40657425000868663 -1.49915363632965382  56.06321496995605003 9.38056791998856987 -1.65455538589640661  55.87958071913028846 9.36981579363011008 -1.71372904678933713  55.69043447057025276 9.36298918866486751 -1.74934924345352139  55.49857142857186432 9.36064957566471456 -1.76124144019435280  55.30670838657317745 9.36298918866482666 -1.74934924345366860  55.11756213801209725 9.36981579363005146 -1.71372904678975657  54.93392788718491460 9.38056791998870487 -1.65455538589560902  54.61338160400811859 9.40581044931011867 -1.50371775455726575  54.47181606785466812 9.41951422430778251 -1.41833125838132723  54.33621464453869976 9.43505685374916148 -1.31544325600348300  54.20901294403858373 9.45179336855692576 -1.19470202366219569  54.09298289950022109 9.46883932005194673 -1.05599830505758119  53.99128385765561688 9.48506928733323029 -0.89954656925837839  53.90755991746632958 9.49917756371624122 -0.72603817572173979  53.78727800137590265 9.52007810695558909 -0.35584850275030155  53.74966308821381489 9.52701762283207820 -0.16292757786439149  53.73712548525964650 9.52949190852972627 0.03665496255443390  53.75126092959991553 9.52682746461838370 0.23692717414531872  53.79150578767460189 9.51920309444999369 0.43174146876447717  53.85519550099110120 9.50772436137471821 0.61531559067381947  53.93753639107591624 9.49394132915779920 0.78285470059776374  54.16307349750671563 9.45903746539821100 1.13824431339962251  54.32133879399970056 9.43657982563856379 1.31367248297252903  54.49803721296332526 9.41477282230653501 1.45740051040469654  54.68739932832610151 9.39568727264670933 1.57054235841693623  54.88511533928407005 9.38061952023457835 1.65431199039353372  55.08790608497950103 9.37033477605058529 1.70975152084971871  55.29317856849493751 9.36518653044348071 1.73749999999999938  55.49857142857132430 9.36518653044348071 1.73749999999999938 
 0.00000000000000000 9 0.15324233986302063 7 0.28671232747989500 7 0.42336002112190785 7 0.57767301404558957 7 0.70577525066037161 7 0.82842299934348851 7 1.00000000000000000 9
1 -12.69999999999999929 16.49778394209355525 0.00000000000000000 0.00000000000000000 -0.50000000000000000 0.86602540378443871 
1 -12.69999999999999929 8.24889197104677940 -14.28749999999999787 0.00000000000000000 0.50000000000000000 0.86602540378443871 
1 -12.69999999999999929 8.24889197104677940 14.28749999999999787 0.00000000000000000 -1.00000000000000000 0.00000000000000011 
1 -12.69999999999999929 -8.24889197104678473 -14.28749999999999432 0.00000000000000000 1.00000000000000000 -0.00000000000000022 
1 -12.69999999999999929 -8.24889197104677407 14.28749999999999964 0.00000000000000000 -0.50000000000000022 -0.86602540378443860 
1 -12.69999999999999929 -16.49778394209355525 0.00000000000000202 0.00000000000000000 0.49999999999999978 -0.86602540378443882 
1 55.49857142857132430 -10.52500000000000036 1.73749999999999982 0.00000000000000000 1.00000000000000000 0.00000000000000000 
1 -12.69999999999999929 16.49778394209355525 0.00000000000000000 1.00000000000000000 0.00000000000000000 0.00000000000000000 
1 -12.69999999999999929 8.24889197104677940 14.28749999999999787 1.00000000000000000 0.00000000000000000 0.00000000000000000 
1 -12.69999999999999929 16.49778394209355525 0.00000000000000000 0.00000000000000000 -0.50000000000000000 0.86602540378443871 
1 -12.69999999999999929 8.24889197104677940 -14.28749999999999787 1.00000000000000000 0.00000000000000000 0.00000000000000000 
1 -12.69999999999999929 8.24889197104677940 -14.28749999999999787 0.00000000000000000 0.50000000000000000 0.86602540378443871 
1 -12.69999999999999929 -8.24889197104677407 14.28749999999999964 1.00000000000000000 0.00000000000000000 0.00000000000000000 
1 -12.69999999999999929 8.24889197104677940 14.28749999999999787 0.00000000000000000 -1.00000000000000000 0.00000000000000011 
1 -12.69999999999999929 -8.24889197104678473 -14.28749999999999432 1.00000000000000000 0.00000000000000000 0.00000000000000000 
1 -12.69999999999999929 -8.24889197104678473 -14.28749999999999432 0.00000000000000000 1.00000000000000000 -0.00000000000000022 
1 -12.69999999999999929 -16.49778394209355525 0.00000000000000202 1.00000000000000000 0.00000000000000000 0.00000000000000000 
1 -12.69999999999999929 -8.24889197104677407 14.28749999999999964 0.00000000000000000 -0.50000000000000022 -0.86602540378443860 
1 -12.69999999999999929 -16.49778394209355525 0.00000000000000202 0.00000000000000000 0.49999999999999978 -0.86602540378443882 
Polygon3D 0
PolygonOnTriangulations 0
Surfaces 11
2 0.00000000000000000 0.00000000000000000 0.00000000000000000 1.00000000000000000 0.00000000000000000 0.00000000000000000 0.00000000000000000 0.00000000000000000 1.00000000000000000 0.00000000000000000 -1.00000000000000000 0.00000000000000000 9.52500000000000036
2 55.49857142857132430 -10.52500000000000036 0.00000000000000000 0.00000000000000000 1.00000000000000000 0.00000000000000000 0.00000000000000000 -0.00000000000000000 1.00000000000000000 1.00000000000000000 0.00000000000000000 -0.00000000000000000 1.73749999999999982
1 -12.69999999999999929 -0.00000000000000029 0.00000000000000029 1.00000000000000000 0.00000000000000000 0.00000000000000000 0.00000000000000000 0.00000000000000000 1.00000000000000000 0.00000000000000000 -1.00000000000000000 0.00000000000000000 
1 63.50000000000000000 0.00000000000000000 0.00000000000000000 1.00000000000000000 0.00000000000000000 0.00000000000000000 0.00000000000000000 0.00000000000000000 1.00000000000000000 0.00000000000000000 -1.00000000000000000 0.00000000000000000 
1 -12.69999999999999929 16.49778394209355525 0.00000000000000000 0.00000000000000000 -0.86602540378443871 -0.50000000000000000 0.00000000000000000 -0.50000000000000000 0.86602540378443871 -1.00000000000000000 -0.00000000000000000 0.00000000000000000 
1 -12.69999999999999929 8.24889197104677940 -14.28749999999999787 0.00000000000000000 -0.86602540378443871 0.50000000000000000 0.00000000000000000 0.50000000000000000 0.86602540378443871 -1.00000000000000000 0.00000000000000000 0.00000000000000000 
1 -12.69999999999999929 8.24889197104677940 14.28749999999999787 0.00000000000000000 -0.00000000000000011 -1.00000000000000000 0.00000000000000000 -1.00000000000000000 0.00000000000000011 -1.00000000000000000 -0.00000000000000000 0.00000000000000000 
1 -12.69999999999999929 -8.24889197104678473 -14.28749999999999432 0.00000000000000000 0.00000000000000022 1.00000000000000000 0.00000000000000000 1.00000000000000000 -0.00000000000000022 -1.00000000000000000 0.00000000000000000 0.00000000000000000 
1 -12.69999999999999929 -8.24889197104677407 14.28749999999999964 0.00000000000000000 0.86602540378443860 -0.50000000000000022 0.00000000000000000 -0.50000000000000022 -0.86602540378443860 -1.00000000000000000 0.00000000000000000 -0.00000000000000000 
1 -12.69999999999999929 -16.49778394209355525 0.00000000000000202 0.00000000000000000 0.86602540378443882 0.49999999999999978 0.00000000000000000 0.49999999999999978 -0.86602540378443882 -1.00000000000000000 0.00000000000000000 0.00000000000000000 
1 -12.69999999999999929 -0.00000000000000029 0.00000000000000029 1.00000000000000000 0.00000000000000000 0.00000000000000000 0.00000000000000000 0.00000000000000000 1.00000000000000000 0.00000000000000000 -1.00000000000000000 0.00000000000000000 
Triangulations 0

TShapes 69
Ve
0.000000100000000
0.000000000000000 0.000000000000002 9.525000000000000
0 0

0101101
*
Ve
0.000000100000000
63.500000000000000 0.000000000000002 9.525000000000000
0 0

0101101
*
Ed
 0.000000100000000 1 1 0
1  1 0 0.000000000000000 63.500000000000000
3  1 2CN 1 0 0.000000000000000 63.500000000000000
0

0101000
+69 3 -68 3 *
Ed
 0.000000100000000 1 1 0
1  2 0 0.000000000000000 6.283185307179586
2  3 1 0 0.000000000000000 6.283185307179586
0

0101000
+69 3 -69 3 *
Ed
 0.000000100000000 1 1 0
1  3 0 0.000000000000000 6.283185307179586
2  4 1 0 0.000000000000000 6.283185307179586
0

0101000
+68 3 -68 3 *
Wi

0101100
+67 0 +66 0 -67 0 -65 0 *
Ve
0.000000100000001
55.498571428571324 -9.365186530443481 1.737500000000000
0 0

0101101
*
Ed
 0.000000100000000 1 1 0
1  4 0 0.000000000000000 1.000000000000000
2  5 1 0 0.000000000000000 1.000000000000000
2  6 2 0 0.000000000000000 1.000000000000000
0

0101100
+63 3 -63 3 *
Wi

0101100
+62 0 *
Ve
0.000000100000002
55.498571428571324 9.365186530443479 1.737500000000000
0 0

0101101
*
Ed
 0.000000100000000 1 1 0
1  5 0 0.000000000000000 1.000000000000000
2  7 1 0 0.000000000000000 1.000000000000000
2  8 2 0 0.000000000000000 1.000000000000000
0

0101100
+60 3 -60 3 *
Wi

0101100
-59 0 *
Fa
0  0.000000100000000 1 0

0111000
+64 0 +61 0 +58 0 *
Ve
0.000000100000000
0.000000000000000 16.497783942093555 0.000000000000000
0 0

0101101
*
Ve
0.000000100000000
0.000000000000000 8.248891971046779 14.287499999999998
0 0

0101101
*
Ed
 0.000000100000000 1 1 0
1  6 0 0.000000000000000 16.497783942093552
0

0101000
+56 5 -55 5 *
Ve
0.000000100000000
0.000000000000000 8.248891971046779 -14.287499999999998
0 0

0101101
*
Ed
 0.000000100000000 1 1 0
1  7 0 0.000000000000000 16.497783942093552
0

0101000
+53 5 -56 5 *
Ve
0.000000100000000
0.000000000000000 -8.248891971046774 14.287500000000000
0 0

0101101
*
Ed
 0.000000100000000 1 1 0
1  8 0 0.000000000000000 16.497783942093555
0

0101000
+55 5 -51 5 *
Ve
0.000000100000000
0.000000000000000 -8.248891971046785 -14.287499999999994
0 0

0101101
*
Ed
 0.000000100000000 1 1 0
1  9 0 0.000000000000000 16.497783942093562
0

0101000
+49 5 -53 5 *
Ve
0.000000100000000
0.000000000000000 -16.497783942093555 0.000000000000002
0 0

0101101
*
Ed
 0.000000100000000 1 1 0
1  10 0 0.000000000000000 16.497783942093555
0

0101000
+51 5 -47 5 *
Ed
 0.000000100000000 1 1 0
1  11 0 0.000000000000000 16.497783942093548
0

0101000
+47 5 -49 5 *
Wi

0101100
+54 4 +52 4 +50 4 +48 4 +46 4 +45 4 *
Wi

0101100
-66 0 *
Fa
0  0.000000100000000 3 4

0111000
+44 0 +43 0 *
Wi

0101100
+65 0 *
Fa
0  0.000000100000000 4 0

0111000
+41 0 *
Ed
 0.000000100000000 1 1 0
1  12 0 1.159813469556520 19.890186530443479
3  9 10CN 2 0 1.159813469556520 19.890186530443479
0

0101000
+63 3 -60 3 *
Wi

0101100
-59 0 +39 0 +62 0 -39 0 *
Fa
0  0.000000100000000 2 0

0111000
+38 0 *
Ve
0.000000100000000
-12.699999999999999 16.497783942093555 0.000000000000000
0 0

0101101
*
Ed
 0.000000100000000 1 1 0
1  13 0 0.000000000000000 12.699999999999999
0

0101000
+36 3 -56 3 *
Ve
0.000000100000000
-12.699999999999999 8.248891971046779 14.287499999999998
0 0

0101101
*
Ed
 0.000000100000000 1 1 0
1  14 0 0.000000000000000 12.699999999999999
0

0101000
+34 3 -55 3 *
Ed
 0.000000100000000 1 1 0
1  15 0 0.000000000000000 16.497783942093552
0

0101000
+36 3 -34 3 *
Wi

0101100
+35 0 -33 0 -32 0 +54 4 *
Fa
0  0.000000100000000 5 0

0111000
+31 0 *
Ve
0.000000100000000
-12.699999999999999 8.248891971046779 -14.287499999999998
0 0

0101101
*
Ed
 0.000000100000000 1 1 0
1  16 0 0.000000000000000 12.699999999999999
0

0101000
+29 3 -53 3 *
Ed
 0.000000100000000 1 1 0
1  17 0 0.000000000000000 16.497783942093552
0

0101000
+29 3 -36 3 *
Wi

0101100
+28 0 -35 0 -27 0 +52 4 *
Fa
0  0.000000100000000 6 0

0111000
+26 0 *
Ve
0.000000100000000
-12.699999999999999 -8.248891971046774 14.287500000000000
0 0

0101101
*
Ed
 0.000000100000000 1 1 0
1  18 0 0.000000000000000 12.699999999999999
0

0101000
+24 3 -51 3 *
Ed
 0.000000100000000 1 1 0
1  19 0 0.000000000000000 16.497783942093555
0

0101000
+34 3 -24 3 *
Wi

0101100
+33 0 -23 0 -22 0 +50 4 *
Fa
0  0.000000100000000 7 0

0111000
+21 0 *
Ve
0.000000100000000
-12.699999999999999 -8.248891971046785 -14.287499999999994
0 0

0101101
*
Ed
 0.000000100000000 1 1 0
1  20 0 0.000000000000000 12.699999999999999
0

0101000
+19 3 -49 3 *
Ed
 0.000000100000000 1 1 0
1  21 0 0.000000000000000 16.497783942093562
0

0101000
+19 3 -29 3 *
Wi

0101100
+18 0 -28 0 -17 0 +48 4 *
Fa
0  0.000000100000000 8 0

0111000
+16 0 *
Ve
0.000000100000000
-12.699999999999999 -16.497783942093555 0.000000000000002
0 0

0101101
*
Ed
 0.000000100000000 1 1 0
1  22 0 0.000000000000000 12.699999999999999
0

0101000
+14 3 -47 3 *
Ed
 0.000000100000000 1 1 0
1  23 0 0.000000000000000 16.497783942093555
0

0101000
+24 3 -14 3 *
Wi

0101100
+23 0 -13 0 -12 0 +46 4 *
Fa
0  0.000000100000000 9 0

0111000
+11 0 *
Ed
 0.000000100000000 1 1 0
1  24 0 0.000000000000000 16.497783942093548
0

0101000
+14 3 -19 3 *
Wi

0101100
+13 0 -18 0 -9 0 +45 4 *
Fa
0  0.000000100000000 10 0

0111000
+8 0 *
Wi

0101100
+32 0 +22 0 +12 0 +9 0 +17 0 +27 0 *
Fa
0  0.000000100000000 11 0

0111000
+6 0 *
Sh

0101100
+57 0 +42 0 +40 0 -37 0 -30 0 -25 0 -20 0 -15 0 -10 0 -7 0 
-5 0 *
So

0100000
+4 0 *
Co

0100000
+3 0 *
Co

1100000
+2 0 *

+1 1 