DBRep_DrawableShape

CASCADE Topology V1, (c) Matra-Datavision
Locations 0
Curve2ds 58
1 0 0 1 0 
1 0 0 1 0 
1 13.949999999999999 0 0 -1 
1 0 0 0 1 
1 0 0 0 -1 
1 0 0 0 1 
1 0 -38.600000000000001 1 0 
1 0 0 1 0 
8 -33.837499999999999 -1.5874999999999986
1 3.1749999999999998 -1.5875000000000021 0 1 
8 -33.837499999999999 -1.5874999999999986
1 1 -1.5874999999999986 0 -1 
8 1.5874999999999995 9.1875
1 1.5875000000000004 -35.424999999999997 1 0 
8 1.5874999999999995 9.1875
1 -1.5874999999999995 1 1 0 
8 -33.837499999999999 -1.5874999999999986
1 10.774999999999999 -1.5875000000000021 0 1 
8 -33.837499999999999 -1.5874999999999986
1 1 -1.5874999999999986 0 -1 
8 1.5874999999999995 9.1875
1 1.5875000000000004 -3.1750000000000007 1 0 
8 1.5874999999999995 9.1875
1 -1.5874999999999995 1 1 0 
1 0 0 0 1 
1 0 0 1 0 
1 0 0 1 0 
1 0 25.399999999999999 1 0 
1 13.949999999999999 0 0 1 
1 0 0 1 0 
1 13.949999999999999 0 0 1 
1 0 38.600000000000001 1 0 
1 13.949999999999999 0 0 -1 
1 25.399999999999999 0 0 1 
2 12.699999999999999 19.300000000000001 1 0 -0 1 4.8624999999999998
1 0 14.949999999999999 1 0 
1 0 0 0 1 
1 0 38.600000000000001 1 0 
1 0 0 0 -1 
1 25.399999999999999 0 0 1 
2 12.699999999999999 19.300000000000001 1 0 -0 1 4.8624999999999998
1 0 1 1 0 
1 0 -38.600000000000001 1 0 
1 0 25.399999999999999 1 0 
1 0 0 0 1 
1 0 32.25 1 0 
8 -33.837499999999999 -1.5874999999999986
1 3.1749999999999998 -1.5875000000000021 0 1 
8 -33.837499999999999 -1.5874999999999986
1 26.399999999999999 -1.5874999999999986 0 -1 
1 0 0 0 1 
1 0 0 1 0 
2 13.699999999999999 16.125 1 0 -0 1 4.8624999999999998
1 0 4.1749999999999998 1 0 
8 1.5874999999999995 9.1875
1 1.5875000000000004 -35.424999999999997 1 0 
8 1.5874999999999995 9.1875
1 -1.5874999999999995 26.399999999999999 1 0 
1 7.5999999999999996 0 0 1 
1 0 32.25 1 0 
8 -33.837499999999999 -1.5874999999999986
1 10.774999999999999 -1.5875000000000021 0 1 
8 -33.837499999999999 -1.5874999999999986
1 26.399999999999999 -1.5874999999999986 0 -1 
1 7.5999999999999996 0 0 1 
1 0 0 1 0 
2 13.699999999999999 16.125 1 0 -0 1 4.8624999999999998
1 0 11.774999999999999 1 0 
8 1.5874999999999995 9.1875
1 1.5875000000000004 -3.1750000000000007 1 0 
8 1.5874999999999995 9.1875
1 -1.5874999999999995 26.399999999999999 1 0 
1 6.2831853071795862 -0 0 1 
1 0 -0 0 1 
Curves 29
1 -12.699999999999999 -19.300000000000001 -6.8499999999999996 0 0 1 
1 -12.699999999999999 -19.300000000000001 7.0999999999999996 -0 1 0 
1 -12.699999999999999 -19.300000000000001 -6.8499999999999996 -0 1 0 
1 -12.699999999999999 19.300000000000001 -6.8499999999999996 0 0 1 
1 -12.699999999999999 -17.712499999999999 -3.6749999999999998 0 -1 0 
1 -12.699999999999999 16.125 -5.2624999999999993 0 0 1 
1 -12.699999999999999 -17.712499999999999 3.9249999999999994 0 -1 0 
1 -12.699999999999999 -16.125 -5.2624999999999993 0 0 1 
1 -12.699999999999999 -19.300000000000001 -6.8499999999999996 1 0 -0 
1 12.699999999999999 -19.300000000000001 -6.8499999999999996 0 0 1 
1 -12.699999999999999 -19.300000000000001 7.0999999999999996 1 0 -0 
1 -12.699999999999999 19.300000000000001 7.0999999999999996 1 0 -0 
1 12.699999999999999 -19.300000000000001 7.0999999999999996 -0 1 0 
2 0 0 7.0999999999999996 0 0 1 1 0 -0 -0 1 0 4.8624999999999998
1 -12.699999999999999 19.300000000000001 -6.8499999999999996 1 0 -0 
1 12.699999999999999 -19.300000000000001 -6.8499999999999996 -0 1 0 
2 0 0 -6.8499999999999996 0 0 1 1 0 -0 -0 1 0 4.8624999999999998
1 12.699999999999999 19.300000000000001 -6.8499999999999996 0 0 1 
1 -13.699999999999999 16.125 -3.6749999999999998 1 0 -0 
1 12.699999999999999 -17.712499999999999 -3.6749999999999998 0 -1 0 
1 -13.699999999999999 -16.125 -3.6749999999999998 1 0 -0 
2 0 0 -3.6749999999999998 0 0 1 1 0 -0 -0 1 0 4.8624999999999998
1 12.699999999999999 16.125 -5.2624999999999993 0 0 1 
1 -13.699999999999999 16.125 3.9249999999999998 1 0 -0 
1 12.699999999999999 -17.712499999999999 3.9249999999999994 0 -1 0 
1 -13.699999999999999 -16.125 3.9249999999999998 1 0 -0 
2 0 0 3.9249999999999989 0 0 1 1 0 -0 -0 1 0 4.8624999999999998
1 12.699999999999999 -16.125 -5.2624999999999993 0 0 1 
1 4.8624999999999998 -1.1909690121708009e-15 -7.8499999999999996 0 0 1 
Polygon3D 0
PolygonOnTriangulations 0
Surfaces 11
1 -12.699999999999999 -19.300000000000001 -6.8499999999999996 1 0 -0 0 0 1 0 -1 0 
1 -12.699999999999999 -19.300000000000001 -6.8499999999999996 -0 1 0 0 0 1 1 0 -0 
1 -12.699999999999999 -19.300000000000001 7.0999999999999996 0 0 1 1 0 -0 -0 1 0 
1 -12.699999999999999 -19.300000000000001 -6.8499999999999996 0 0 1 1 0 -0 -0 1 0 
1 -12.699999999999999 19.300000000000001 -6.8499999999999996 -0 1 0 0 0 1 1 0 -0 
1 -13.699999999999999 -16.125 -3.6749999999999998 0 0 1 1 0 -0 -0 1 0 
1 -13.699999999999999 16.125 -3.6749999999999998 -0 1 0 0 0 1 1 0 -0 
1 -13.699999999999999 -16.125 3.9249999999999998 0 0 1 1 0 -0 -0 1 0 
1 -13.699999999999999 -16.125 -3.6749999999999998 -0 1 0 0 0 1 1 0 -0 
1 12.699999999999999 -19.300000000000001 -6.8499999999999996 1 0 -0 0 0 1 0 -1 0 
2 0 0 -7.8499999999999996 0 0 1 1 0 -0 -0 1 0 4.8624999999999998
Triangulations 0

TShapes 84
Ve
1e-07
-12.7 -19.3 7.1
0 0

0101101
*
Ve
1e-07
-12.7 -19.3 -6.85
0 0

0101101
*
Ed
 1e-07 1 1 0
1  1 0 0 13.95
2  1 1 0 0 13.95
2  2 2 0 0 13.95
0

0101000
-84 0 +83 0 *
Ve
1e-07
-12.7 19.3 7.1
0 0

0101101
*
Ed
 1e-07 1 1 0
1  2 0 0 38.6
2  3 1 0 0 38.6
2  4 3 0 0 38.6
0

0101000
-81 0 +84 0 *
Ve
1e-07
-12.7 19.3 -6.85
0 0

0101101
*
Ed
 1e-07 1 1 0
1  3 0 0 38.6
2  5 1 0 0 38.6
2  6 4 0 0 38.6
0

0101000
-79 0 +83 0 *
Ed
 1e-07 1 1 0
1  4 0 0 13.95
2  7 1 0 0 13.95
2  8 5 0 0 13.95
0

0101000
-81 0 +79 0 *
Wi

0101100
-82 0 -80 0 +78 0 +77 0 *
Ve
1.5e-07
-12.7 16.125 -3.675
0 0

0101101
*
Ve
1.5e-07
-12.7 -16.125 -3.675
0 0

0101101
*
Ed
 1.5e-07 1 1 0
1  5 0 -33.8375 -1.5875
2  9 1 0 -33.8375 -1.5875
2  10 6 0 -33.8375 -1.5875
0

0101000
+75 0 -74 0 *
Ve
1.50000000888178e-07
-12.7 16.125 3.925
0 0

0101101
*
Ed
 1.5e-07 1 1 0
1  6 0 1.5875 9.1875
2  11 1 0 1.5875 9.1875
2  12 7 0 1.5875 9.1875
0

0101000
+75 0 -72 0 *
Ve
1.50000000888178e-07
-12.7 -16.125 3.925
0 0

0101101
*
Ed
 1.5e-07 1 1 0
1  7 0 -33.8375 -1.5875
2  13 1 0 -33.8375 -1.5875
2  14 8 0 -33.8375 -1.5875
0

0101000
+72 0 -70 0 *
Ed
 1.5e-07 1 1 0
1  8 0 1.5875 9.1875
2  15 1 0 1.5875 9.1875
2  16 9 0 1.5875 9.1875
0

0101000
+74 0 -70 0 *
Wi

0101100
+73 0 -71 0 -69 0 +68 0 *
Fa
0  1e-07 1 0

0101000
+76 0 +67 0 *
Ve
1e-07
12.7 -19.3 -6.85
0 0

0101101
*
Ed
 1e-07 1 1 0
1  9 0 0 25.4
2  17 2 0 0 25.4
2  18 4 0 0 25.4
0

0101000
-65 0 +83 0 *
Ve
1e-07
12.7 -19.3 7.1
0 0

0101101
*
Ed
 1e-07 1 1 0
1  10 0 0 13.95
2  19 10 0 0 13.95
2  20 2 0 0 13.95
0

0101000
-63 0 +65 0 *
Ed
 1e-07 1 1 0
1  11 0 0 25.4
2  21 2 0 0 25.4
2  22 3 0 0 25.4
0

0101000
-63 0 +84 0 *
Wi

0101100
-64 0 -62 0 +61 0 +82 0 *
Fa
0  1e-07 2 0

0111000
+60 0 *
Ve
1e-07
12.7 19.3 7.1
0 0

0101101
*
Ed
 1e-07 1 1 0
1  12 0 0 25.4
2  23 5 0 0 25.4
2  24 3 0 0 25.4
0

0101000
-58 0 +81 0 *
Ed
 1e-07 1 1 0
1  13 0 0 38.6
2  25 10 0 0 38.6
2  26 3 0 0 38.6
0

0101000
-58 0 +63 0 *
Wi

0101100
-80 0 -57 0 +61 0 +56 0 *
Ve
1.00000001190969e-07
4.8625 -1.1909690121708e-15 7.1
0 0

0101101
*
Ed
 1e-07 1 1 0
1  14 0 0 6.28318530717959
2  27 3 0 0 6.28318530717959
2  28 11 0 0 6.28318530717959
0

0101100
+54 0 -54 0 *
Wi

0101100
-53 0 *
Fa
0  1e-07 3 0

0101000
+55 0 +52 0 *
Ve
1e-07
12.7 19.3 -6.85
0 0

0101101
*
Ed
 1e-07 1 1 0
1  15 0 0 25.4
2  29 5 0 0 25.4
2  30 4 0 0 25.4
0

0101000
-50 0 +79 0 *
Ed
 1e-07 1 1 0
1  16 0 0 38.6
2  31 10 0 0 38.6
2  32 4 0 0 38.6
0

0101000
-50 0 +65 0 *
Wi

0101100
-78 0 -49 0 +64 0 +48 0 *
Ve
1.00000001190969e-07
4.8625 -1.1909690121708e-15 -6.85
0 0

0101101
*
Ed
 1e-07 1 1 0
1  17 0 0 6.28318530717959
2  33 4 0 0 6.28318530717959
2  34 11 0 0 6.28318530717959
0

0101100
+46 0 -46 0 *
Wi

0101100
-45 0 *
Fa
0  1e-07 4 0

0101000
+47 0 +44 0 *
Ed
 1e-07 1 1 0
1  18 0 0 13.95
2  35 10 0 0 13.95
2  36 5 0 0 13.95
0

0101000
-58 0 +50 0 *
Wi

0101100
-49 0 -42 0 +57 0 +77 0 *
Fa
0  1e-07 5 0

0111000
+41 0 *
Ve
1.5e-07
12.7 16.125 -3.675
0 0

0101101
*
Ed
 1e-07 1 1 0
1  19 0 1 26.4
2  37 7 0 1 26.4
2  38 6 0 1 26.4
0

0101000
+75 0 -39 0 *
Ve
1.5e-07
12.7 -16.125 -3.675
0 0

0101101
*
Ed
 1.5e-07 1 1 0
1  20 0 -33.8375 -1.5875
2  39 10 0 -33.8375 -1.5875
2  40 6 0 -33.8375 -1.5875
0

0101000
+39 0 -37 0 *
Ed
 1e-07 1 1 0
1  21 0 1 26.4
2  41 9 0 1 26.4
2  42 6 0 1 26.4
0

0101000
+74 0 -37 0 *
Wi

0101100
-38 0 +73 0 -36 0 +35 0 *
Ve
1.00000001190969e-07
4.8625 -1.1909690121708e-15 -3.675
0 0

0101101
*
Ed
 1e-07 1 1 0
1  22 0 0 6.28318530717959
2  43 6 0 0 6.28318530717959
2  44 11 0 0 6.28318530717959
0

0101100
+33 0 -33 0 *
Wi

0101100
-32 0 *
Fa
0  1e-07 6 0

0101000
+34 0 +31 0 *
Ve
1.50000000888178e-07
12.7 16.125 3.925
0 0

0101101
*
Ed
 1.5e-07 1 1 0
1  23 0 1.5875 9.1875
2  45 10 0 1.5875 9.1875
2  46 7 0 1.5875 9.1875
0

0101000
+39 0 -29 0 *
Ed
 1e-07 1 1 0
1  24 0 1 26.4
2  47 7 0 1 26.4
2  48 8 0 1 26.4
0

0101000
+72 0 -29 0 *
Wi

0101100
-38 0 -28 0 +27 0 +71 0 *
Fa
0  1e-07 7 0

0101000
+26 0 *
Ve
1.50000000888178e-07
12.7 -16.125 3.925
0 0

0101101
*
Ed
 1.5e-07 1 1 0
1  25 0 -33.8375 -1.5875
2  49 10 0 -33.8375 -1.5875
2  50 8 0 -33.8375 -1.5875
0

0101000
+29 0 -24 0 *
Ed
 1e-07 1 1 0
1  26 0 1 26.4
2  51 9 0 1 26.4
2  52 8 0 1 26.4
0

0101000
+70 0 -24 0 *
Wi

0101100
-27 0 +69 0 -23 0 +22 0 *
Ve
1.00000001190969e-07
4.8625 -1.1909690121708e-15 3.925
0 0

0101101
*
Ed
 1e-07 1 1 0
1  27 0 0 6.28318530717959
2  53 8 0 0 6.28318530717959
2  54 11 0 0 6.28318530717959
0

0101100
+20 0 -20 0 *
Wi

0101100
-19 0 *
Fa
0  1e-07 8 0

0101000
+21 0 +18 0 *
Ed
 1.5e-07 1 1 0
1  28 0 1.5875 9.1875
2  55 10 0 1.5875 9.1875
2  56 9 0 1.5875 9.1875
0

0101000
+37 0 -24 0 *
Wi

0101100
-35 0 -16 0 +22 0 +68 0 *
Fa
0  1e-07 9 0

0101000
+15 0 *
Wi

0101100
-62 0 -56 0 +48 0 +42 0 *
Wi

0101100
+36 0 -28 0 -23 0 +16 0 *
Fa
0  1e-07 10 0

0101000
+13 0 +12 0 *
Ed
 1e-07 1 1 0
1  29 0 11.775 14.95
3  57 58CN 11 0 11.775 14.95
0

0101000
+20 0 -54 0 *
Wi

0101100
-53 0 +10 0 +19 0 -10 0 *
Fa
0  1e-07 11 0

0101000
+9 0 *
Ed
 1e-07 1 1 0
1  29 0 1 4.175
3  57 58CN 11 0 1 4.175
0

0101000
+46 0 -33 0 *
Wi

0101100
-32 0 +7 0 +45 0 -7 0 *
Fa
0  1e-07 11 0

0101000
+6 0 *
Sh

0101100
-66 0 -59 0 +51 0 -43 0 +40 0 +30 0 -25 0 -17 0 +14 0 +11 0 
-8 0 -5 0 *
So

0100000
+4 0 *
Co

0100000
+3 0 *
Co

1100000
+2 0 *

+1 0 