DBRep_DrawableShape

CASCADE Topology V1, (c) Matra-Datavision
Locations 0
Curve2ds 10
1 0 0 1 0 
1 6.2831853071795862 0 0 1 
1 4.1389114358025836e-13 0 0 1 
1 0 33.337499999999999 1 0 
7 0 1  7 49 9  1.292001873931 27.574999999999999  1.292001873931 27.669151261564998  1.295879445013 27.763244638867999  1.3036264043800001 27.855530206661999  1.3151050790309999 27.944282772487  1.3300560853450001 28.027814771881999  1.3481118568420001 28.104544979166  1.3898184055110001 28.242689551634001  1.4142624049300001 28.306240850506999  1.441829385316 28.360752477487001  1.4719574467609999 28.403797126493  1.503983385383 28.433546552585  1.5371878787740001 28.44875  1.6004451597130001 28.44875  1.6300840802759999 28.436917771428  1.659197954453 28.413268528269999  1.6872804654410001 28.378138245551  1.713821249315 28.332175296452998  1.738318062504 28.276343465555001  1.785308579619 28.13874865639  1.8064881773179999 28.056203634302999  1.8236345046739999 27.966612800242  1.836590204131 27.87197167866  1.845257133636 27.774061134200998  1.8495907796590001 27.674535858533002  1.8495907796590001 27.480848738435  1.8457132085770001 27.386755361132  1.83796624921 27.294469793337999  1.826487574558 27.205717227512999  1.811536568245 27.122185228117999  1.7934807967469999 27.045455020834002  1.751774248079 26.907310448366001  1.72733024866 26.843759149494002  1.6997632682729999 26.789247522513001  1.669635206828 26.746202873506999  1.637609268207 26.716453447414999  1.604404774816 26.701250000000002  1.541147493877 26.701250000000002  1.5115085733139999 26.713082228571999  1.4823946991370001 26.73673147173  1.454312188149 26.771861754448999  1.427771404275 26.817824703547  1.403274591085 26.873656534445001  1.3562840739699999 27.011251343609999  1.3351044762719999 27.093796365696999  1.3179581489150001 27.183387199757998  1.305002449459 27.278028321339999  1.2963355199540001 27.375938865799  1.292001873931 27.475464141467 
 0 7 0.12982302120799999 6 0.26151727189599999 6 0.37769582416000003 6 0.50971287363600004 6 0.63458818932100003 6 0.76126341976599998 6 0.87301427300199996 6 1 7
7 0 0  7 50 9  0 6.9475934187100004  0.10775537804300001 6.9475934187100004  0.21544391947899999 6.9442059743  0.32310974694900002 6.9374351003520003  0.43080234807200002 6.9276972135139996  0.53854708592199996 6.9157863117989997  0.64631361988199998 6.9027310781370002  0.86320275648800004 6.876166661748  0.97604838390299997 6.8621982720050001  1.0914613031260001 6.8487942139360003  1.2088888467850001 6.8373701738100001  1.3280141496169999 6.8291841161180002  1.448671208091 6.8250000000000002  1.6785331445509999 6.8250000000000002  1.7862329028820001 6.8282563601839996  1.8939173175340001 6.8347639802479998  2.0016148803589999 6.8441756928800004  2.1093460407209998 6.8557993228259999  2.2170964920679999 6.8686914231509997  2.4471408163759998 6.8967975338079999  2.5665475571999998 6.9117384225449996  2.6837360367200001 6.925274607855  2.7992988905359999 6.9362348109890002  2.9137676812860001 6.9438066403540004  3.027674646685 6.9475934187100004  3.2493480316330001 6.9475934187100004  3.3570365730690002 6.9442059743  3.464702400538 6.9374351003520003  3.5723950016620001 6.9276972135139996  3.6801397395120001 6.9157863117989997  3.7879062734710001 6.9027310781370002  4.0047954100779997 6.876166661748  4.1176410374919996 6.8621982720050001  4.2330539567159997 6.8487942139360003  4.3504815003740003 6.8373701738100001  4.4696068032070002 6.8291841161180002  4.5902638616809996 6.8250000000000002  4.8201257981410004 6.8250000000000002  4.9278255564710003 6.8282563601839996  5.035509971123 6.8347639802479998  5.143207533949 6.8441756928800004  5.2509386943110004 6.8557993228259999  5.3586891456570003 6.8686914231509997  5.5887334699659998 6.8967975338079999  5.7081402107899999 6.9117384225449996  5.8253286903100001 6.925274607855  5.940891544126 6.9362348109890002  6.0553603348760001 6.9438066403540004  6.169267300275 6.9475934187100004  6.2831853071800001 6.9475934187100004 
 0 8 0.12982302120799999 6 0.26151727189599999 6 0.37769582416000003 6 0.50971287363600004 6 0.63458818932100003 6 0.76126341976599998 6 0.87301427300199996 6 1 8
7 0 1  7 49 9  4.9911834332489997 27.574999999999999  4.9911834332489997 27.669151261564998  4.9873058621670001 27.763244638867999  4.9795589028 27.855530206661999  4.9680802281479997 27.944282772487  4.9531292218349998 28.027814771881999  4.9350734503369997 28.104544979166  4.8933669016690002 28.242689551634001  4.8689229022490004 28.306240850506999  4.8413559218630002 28.360752477487001  4.8112278604179997 28.403797126493  4.7792019217970001 28.433546552585  4.7459974284059996 28.44875  4.6827401474670003 28.44875  4.653101226904 28.436917771428  4.6239873527270001 28.413268528269999  4.5959048417390003 28.378138245551  4.569364057864 28.332175296452998  4.5448672446750003 28.276343465555001  4.4978767275599996 28.13874865639  4.4766971298609999 28.056203634302999  4.4595508025050004 27.966612800242  4.4465951030489999 27.87197167866  4.4379281735439999 27.774061134200998  4.4335945275209996 27.674535858533002  4.4335945275209996 27.480848738435  4.4374720986030001 27.386755361132  4.4452190579700002 27.294469793337999  4.4566977326210004 27.205717227512999  4.4716487389340003 27.122185228117999  4.4897045104320004 27.045455020834002  4.5314110590460004 26.907310448545999  4.5558550586280004 26.843759149046001  4.5834220388900002 26.789247522968999  4.6135501002070001 26.746202873298  4.6455760391260004 26.716453447448998  4.6787805323110003 26.701250000000002  4.7420378133029999 26.701250000000002  4.7716767338660002 26.713082228571999  4.8007906080430001 26.73673147173  4.8288731190299998 26.771861754448999  4.8554139029050001 26.817824703547  4.8799107160939998 26.873656534445001  4.9269012332089996 27.011251343609999  4.9480808309080002 27.093796365696999  4.9652271582639997 27.183387199757998  4.9781828577200002 27.278028321339999  4.9868497872260003 27.375938865799  4.9911834332489997 27.475464141467 
 0 7 0.12982302137900001 6 0.261517272242 6 0.37769582465899998 6 0.50971287430900003 6 0.63458819015900003 6 0.76126342044299999 6 0.87301427336299997 6 1 7
7 0 0  7 50 9  0 13.052406581290001  0.10775537804300001 13.052406581290001  0.21544391947899999 13.055794025699999  0.32310974694900002 13.062564899648001  0.43080234807200002 13.072302786486  0.53854708592199996 13.084213688201  0.646313619881 13.097268921863  0.86320275648800004 13.123833338252  0.97604838390299997 13.137801727995001  1.0914613031260001 13.151205786064001  1.2088888467850001 13.162629826190001  1.3280141496169999 13.170815883882  1.448671208091 13.175000000000001  1.678533144552 13.175000000000001  1.7862329028820001 13.171743639816  1.8939173175340001 13.165236019751999  2.0016148803589999 13.15582430712  2.1093460407209998 13.144200677174  2.2170964920679999 13.131308576848999  2.4471408163759998 13.103202466192  2.5665475571999998 13.088261577455  2.6837360367200001 13.074725392145  2.7992988905359999 13.063765189011001  2.9137676812860001 13.056193359646  3.027674646685 13.052406581290001  3.2493480316330001 13.052406581290001  3.3570365730690002 13.055794025699999  3.4647024005390001 13.062564899648001  3.572395001661 13.072302786486  3.6801397395120001 13.084213688201  3.7879062734710001 13.097268921863  4.0047954097950003 13.123833338217  4.1176410380939998 13.137801728082  4.2330539564320002 13.151205785979  4.350481499971 13.162629826224  4.4696068037360002 13.170815883878999  4.5902638614890003 13.175000000000001  4.8201257981410004 13.175000000000001  4.9278255564710003 13.171743639816  5.035509971123 13.165236019751999  5.143207533949 13.15582430712  5.2509386943110004 13.144200677174  5.3586891456570003 13.131308576848999  5.5887334699659998 13.103202466192  5.7081402107899999 13.088261577455  5.8253286903100001 13.074725392145  5.940891544126 13.063765189011001  6.055360334875 13.056193359646  6.169267300275 13.052406581290001  6.2831853071800001 13.052406581290001 
 0 8 0.12982302137900001 6 0.261517272242 6 0.37769582465899998 6 0.50971287430900003 6 0.63458819015900003 6 0.76126342044299999 6 0.87301427336299997 6 1 8
1 6.2831853071800001 -0 0 1 
1 0 -0 0 1 
Curves 24
1 34 59.415804866370003 10.96875 2.22044604925e-16 0 -1 
1 34 59.415804866370003 7 0.86602540378432902 -0.50000000000018996 1.9229626863847306e-16 
1 39.556249999999999 56.207902433184998 10.96875 2.22044604925e-16 0 -1 
1 34 59.415804866370003 10.96875 0.86602540378432902 -0.50000000000018996 1.9229626863847306e-16 
1 28.443750000000001 56.207902433184998 10.96875 2.22044604925e-16 0 -1 
1 28.443750000000001 56.207902433184998 7 0.86602540378432902 0.50000000000018996 1.9229626863847306e-16 
1 28.443750000000001 56.207902433184998 10.96875 0.86602540378432902 0.50000000000018996 1.9229626863847306e-16 
1 39.556249999999999 56.207902433184998 7 1.3843600891849999e-16 -1 3.0738968907709999e-32 
1 39.556249999999999 49.792097566815002 10.96875 2.22044604925e-16 0 -1 
1 39.556249999999999 56.207902433184998 10.96875 1.3843600891849999e-16 -1 3.0738968907709999e-32 
1 39.556249999999999 49.792097566815002 10.96875 -0.86602540378432902 -0.50000000000018996 -1.9229626863847306e-16 
1 34 46.584195133629997 10.96875 -0.86602540378432902 0.50000000000018996 -1.9229626863847306e-16 
1 28.443750000000001 49.792097566815002 10.96875 -2.7687201783699998e-16 1 -6.1477937815410003e-32 
1 39.556249999999999 49.792097566815002 7 -0.86602540378432902 -0.50000000000018996 -1.9229626863847306e-16 
1 34 46.584195133629997 7 -0.86602540378432902 0.50000000000018996 -1.9229626863847306e-16 
1 28.443750000000001 49.792097566815002 7 -2.7687201783699998e-16 1 -6.1477937815410003e-32 
2 34 53 7 2.22044604925e-16 0 -1 1 0 2.22044604925e-16 0 -1 0 3.1749999999999998
1 28.443750000000001 49.792097566815002 10.96875 2.22044604925e-16 0 -1 
1 34 46.584195133629997 10.96875 2.22044604925e-16 0 -1 
1 37.174999999999997 53 7 2.22044604925e-16 0 -1 
2 34 53 -26.337499999999999 2.22044604925e-16 0 -1 1 0 2.22044604925e-16 0 -1 0 3.1749999999999998
7 0 1  7 49 9  34.873750000000001 49.947593418709999 -20.574999999999999  34.873750000000001 49.947593418709999 -20.66915126156  34.861913326092001 49.944205974299997 -20.763244638860002  34.838269001485003 49.937435100351998 -20.855530206659999  34.803145450891002 49.927697213514001 -20.944282772480001  34.757179388819999 49.915786311799003 -21.027814771879999  34.701335418043001 49.902731078137002 -21.10454497916  34.571609029656003 49.876166661748002 -21.242689551630001  34.495249082557002 49.862198272005003 -21.3062408505  34.408702334189996 49.848794213936003 -21.360752477479998  34.313617244736001 49.837370173810001 -21.403797126490002  34.212130934420003 49.829184116118 -21.433546552580001  34.106706822467999 49.825000000000003 -21.44875  33.905864955485001 49.825000000000003 -21.44875  33.811761801110002 49.828256360184 -21.436917771419999  33.719458904424997 49.834763980247999 -21.413268528269999  33.630704252233997 49.84417569288 -21.378138245550002  33.547185641714002 49.855799322826002 -21.33217529645  33.470463590563 49.868691423150999 -21.276343465549999  33.323940001013 49.896797533807998 -21.13874865639  33.258334306484997 49.911738422545 -21.056203634300001  33.205582908121997 49.925274607855002 -20.96661280024  33.165932297563003 49.936234810988999 -20.87197167866  33.139478382177998 49.943806640353998 -20.7740611342  33.126249999999999 49.947593418709999 -20.67453585853  33.126249999999999 49.947593418709999 -20.480848738430002  33.138086673907999 49.944205974299997 -20.38675536113  33.161730998514003 49.937435100351998 -20.294469793329998  33.196854549108998 49.927697213514001 -20.20571722751  33.242820611180001 49.915786311799003 -20.122185228109998  33.298664581956999 49.902731078137002 -20.045455020830001  33.428390970343997 49.876166661748002 -19.907310448360001  33.504750917442998 49.862198272005003 -19.843759149490001  33.591297665810004 49.848794213936003 -19.789247522509999  33.686382755263999 49.837370173810001 -19.7462028735  33.787869065579997 49.829184116118 -19.71645344741  33.893293177532001 49.825000000000003 -19.701250000000002  34.094135044514999 49.825000000000003 -19.701250000000002  34.188238198889998 49.828256360184 -19.713082228569998  34.280541095575003 49.834763980247999 -19.73673147173  34.369295747766003 49.84417569288 -19.77186175444  34.452814358285998 49.855799322826002 -19.817824703540001  34.529536409437 49.868691423150999 -19.873656534439998  34.676059998987 49.896797533807998 -20.011251343609999  34.741665693515003 49.911738422545 -20.09379636569  34.794417091878003 49.925274607855002 -20.183387199750001  34.834067702436997 49.936234810988999 -20.278028321339999  34.860521617822002 49.943806640353998 -20.375938865790001  34.873750000000001 49.947593418709999 -20.475464141460002 
 0 7 0.12982302120799999 6 0.26151727189599999 6 0.37769582416000003 6 0.50971287363600004 6 0.63458818932100003 6 0.76126341976599998 6 0.87301427300199996 6 1 7
7 0 1  7 49 9  34.873750000000001 56.052406581290001 -20.574999999999999  34.873750000000001 56.052406581290001 -20.66915126156  34.861913326092001 56.055794025700003 -20.763244638860002  34.838269001485003 56.062564899648002 -20.855530206659999  34.803145450891002 56.072302786485999 -20.944282772480001  34.757179388819999 56.084213688200997 -21.027814771879999  34.701335418043001 56.097268921862998 -21.10454497916  34.571609029656003 56.123833338251998 -21.242689551630001  34.495249082557002 56.137801727994997 -21.3062408505  34.408702334189996 56.151205786063997 -21.360752477479998  34.313617244736001 56.162629826189999 -21.403797126490002  34.212130934420003 56.170815883882 -21.433546552580001  34.106706822467999 56.174999999999997 -21.44875  33.905864955485001 56.174999999999997 -21.44875  33.811761801110002 56.171743639816 -21.436917771419999  33.719458904424997 56.165236019752001 -21.413268528269999  33.630704252233997 56.15582430712 -21.378138245550002  33.547185641714002 56.144200677173998 -21.33217529645  33.470463590563 56.131308576849001 -21.276343465549999  33.323940001013 56.103202466192002 -21.13874865639  33.258334306484997 56.088261577455 -21.056203634300001  33.205582908121997 56.074725392144998 -20.96661280024  33.165932297563003 56.063765189011001 -20.87197167866  33.139478382177998 56.056193359646002 -20.7740611342  33.126249999999999 56.052406581290001 -20.67453585853  33.126249999999999 56.052406581290001 -20.480848738430002  33.138086673907999 56.055794025700003 -20.38675536113  33.161730998514997 56.062564899648002 -20.294469793329998  33.196854549108998 56.072302786485999 -20.20571722751  33.242820611180001 56.084213688200997 -20.122185228109998  33.298664581956999 56.097268921862998 -20.045455020830001  33.428390970174 56.123833338216997 -19.907310448539999  33.504750917777002 56.137801728082003 -19.84375914904  33.591297665767001 56.151205785979002 -19.78924752296  33.6863827548 56.162629826223998 -19.746202873289999  33.787869066069 56.170815883879001 -19.716453447439999  33.893293177365003 56.174999999999997 -19.701250000000002  34.094135044514999 56.174999999999997 -19.701250000000002  34.188238198889998 56.171743639816 -19.713082228569998  34.280541095575003 56.165236019752001 -19.73673147173  34.369295747766003 56.15582430712 -19.77186175444  34.452814358285998 56.144200677173998 -19.817824703540001  34.529536409437 56.131308576849001 -19.873656534439998  34.676059998987 56.103202466192002 -20.011251343609999  34.741665693515003 56.088261577455 -20.09379636569  34.794417091878003 56.074725392144998 -20.183387199750001  34.834067702436997 56.063765189011001 -20.278028321339999  34.860521617822002 56.056193359646002 -20.375938865790001  34.873750000000001 56.052406581290001 -20.475464141460002 
 0 7 0.12982302137900001 6 0.261517272242 6 0.37769582465899998 6 0.50971287430900003 6 0.63458819015900003 6 0.76126342044299999 6 0.87301427336299997 6 1 7
1 34.873750000000001 43 -20.574999999999999 0 1 0 
Polygon3D 0
PolygonOnTriangulations 0
Surfaces 11
1 34 59.415804866370003 10.96875 -0.50000000000018996 -0.86602540378432902 -1.1102230246254218e-16 0.86602540378432902 -0.50000000000018996 1.9229626863847306e-16 -2.2204460492514559e-16 8.4062990212614071e-29 1 
1 28.443750000000001 56.207902433184998 10.96875 0.50000000000018996 -0.86602540378432902 1.1102230246254218e-16 0.86602540378432902 0.50000000000018996 1.9229626863847306e-16 -2.2204460492514559e-16 -8.4062990212614071e-29 1 
1 34 53 7 2.22044604925e-16 0 -1 1 0 2.22044604925e-16 0 -1 0 
1 39.556249999999999 56.207902433184998 10.96875 -1 -1.3843600891849999e-16 -2.22044604925e-16 1.3843600891849999e-16 -1 3.0738968907709999e-32 -2.22044604925e-16 7.8932515060796337e-45 1 
1 34 53 10.96875 2.22044604925e-16 0 -1 1 0 2.22044604925e-16 0 -1 0 
1 28.443750000000001 49.792097566815002 10.96875 1 2.7687201783699998e-16 2.22044604925e-16 -2.7687201783699998e-16 1 -6.1477937815410003e-32 -2.22044604925e-16 5.7913038095924081e-45 1 
1 39.556249999999999 49.792097566815002 10.96875 -0.50000000000018996 0.86602540378432902 -1.1102230246254218e-16 -0.86602540378432902 -0.50000000000018996 -1.9229626863847306e-16 -2.2204460492514559e-16 -8.4062990212614071e-29 1 
1 34 46.584195133629997 10.96875 0.50000000000018996 0.86602540378432902 1.1102230246254218e-16 -0.86602540378432902 0.50000000000018996 -1.9229626863847306e-16 -2.2204460492514559e-16 8.4062990212614071e-29 1 
2 34 53 7 2.22044604925e-16 0 -1 1 0 2.22044604925e-16 0 -1 0 3.1749999999999998
1 34 53 -26.337499999999999 2.22044604925e-16 0 -1 1 0 2.22044604925e-16 0 -1 0 
2 34 43 -20.574999999999999 0 1 0 1 -0 2.22044604925e-16 2.22044604925e-16 0 -1 0.87375000000000003
Triangulations 0

TShapes 67
Ve
1e-07
34 59.41580486637 10.96875
0 0

0101101
*
Ve
1e-07
34 59.41580486637 7
0 0

0101101
*
Ed
 1e-07 1 1 0
1  1 0 0 3.96875
4 C0 1 0 2 0
0

0101000
+67 0 -66 0 *
Ve
1e-07
39.55625 56.207902433185 7
0 0

0101101
*
Ed
 1e-07 1 1 0
1  2 0 0 6.41580486636979
4 C0 1 0 3 0
0

0101000
+66 0 -64 0 *
Ve
1e-07
39.55625 56.207902433185 10.96875
0 0

0101101
*
Ed
 1e-07 1 1 0
1  3 0 0 3.96875
4 C0 1 0 4 0
0

0101000
+62 0 -64 0 *
Ed
 1e-07 1 1 0
1  4 0 0 6.41580486636979
4 C0 1 0 5 0
0

0101000
+67 0 -62 0 *
Wi

0101100
+65 0 +63 0 -61 0 -60 0 *
Fa
0  1e-07 1 0

0111000
+59 0 *
Ve
1e-07
28.44375 56.207902433185 10.96875
0 0

0101101
*
Ve
1e-07
28.44375 56.207902433185 7
0 0

0101101
*
Ed
 1e-07 1 1 0
1  5 0 0 3.96875
4 C0 2 0 6 0
0

0101000
+57 0 -56 0 *
Ed
 1e-07 1 1 0
1  6 0 0 6.41580486636979
4 C0 2 0 3 0
0

0101000
+56 0 -66 0 *
Ed
 1e-07 1 1 0
1  7 0 0 6.41580486636979
4 C0 2 0 5 0
0

0101000
+57 0 -67 0 *
Wi

0101100
+55 0 +54 0 -65 0 -53 0 *
Fa
0  1e-07 2 0

0111000
+52 0 *
Ve
1e-07
39.55625 49.792097566815 7
0 0

0101101
*
Ed
 1e-07 1 1 0
1  8 0 0 6.41580486637
4 C0 4 0 3 0
0

0101000
+64 0 -50 0 *
Ve
1e-07
39.55625 49.792097566815 10.96875
0 0

0101101
*
Ed
 1e-07 1 1 0
1  9 0 0 3.96875
4 C0 4 0 7 0
0

0101000
+48 0 -50 0 *
Ed
 1e-07 1 1 0
1  10 0 0 6.41580486637
4 C0 4 0 5 0
0

0101000
+62 0 -48 0 *
Wi

0101100
+61 0 +49 0 -47 0 -46 0 *
Fa
0  1e-07 4 0

0111000
+45 0 *
Ve
1e-07
34 46.58419513363 10.96875
0 0

0101101
*
Ed
 1e-07 1 1 0
1  11 0 -0 6.41580486636979
4 C0 5 0 7 0
0

0101000
+48 0 -43 0 *
Ve
1e-07
28.44375 49.792097566815 10.96875
0 0

0101101
*
Ed
 1e-07 1 1 0
1  12 0 0 6.41580486636979
4 C0 5 0 8 0
0

0101000
+43 0 -41 0 *
Ed
 1e-07 1 1 0
1  13 0 0 6.41580486637
4 C0 5 0 6 0
0

0101000
+41 0 -57 0 *
Wi

0101100
+60 0 +46 0 +42 0 +40 0 +39 0 +53 0 *
Fa
0  1e-07 5 0

0111000
+38 0 *
Ve
1e-07
34 46.58419513363 7
0 0

0101101
*
Ed
 1e-07 1 1 0
1  14 0 -0 6.41580486636979
4 C0 3 0 7 0
0

0101000
+50 0 -36 0 *
Ve
1e-07
28.44375 49.792097566815 7
0 0

0101101
*
Ed
 1e-07 1 1 0
1  15 0 0 6.41580486636979
4 C0 3 0 8 0
0

0101000
+36 0 -34 0 *
Ed
 1e-07 1 1 0
1  16 0 0 6.41580486637
4 C0 3 0 6 0
0

0101000
+34 0 -56 0 *
Wi

0101100
+63 0 +49 0 +35 0 +33 0 +32 0 +54 0 *
Ve
1e-07
37.175 53 7
0 0

0101101
*
Ed
 1e-07 1 1 0
1  17 0 0 6.28318530717959
2  1 9 0 0 6.28318530717959
4 C0 3 0 9 0
0

0101100
+30 0 -30 0 *
Wi

0101100
-29 0 *
Fa
0  1e-07 3 0

0111000
+31 0 +28 0 *
Ed
 1e-07 1 1 0
1  18 0 0 3.96875
4 C0 6 0 8 0
0

0101000
+41 0 -34 0 *
Wi

0101100
+26 0 +32 0 -55 0 -39 0 *
Fa
0  1e-07 6 0

0111000
+25 0 *
Ed
 1e-07 1 1 0
1  19 0 0 3.96875
4 C0 7 0 8 0
0

0101000
+43 0 -36 0 *
Wi

0101100
+47 0 +35 0 -23 0 -42 0 *
Fa
0  1e-07 7 0

0111000
+22 0 *
Wi

0101100
+23 0 +33 0 -26 0 -40 0 *
Fa
0  1e-07 8 0

0111000
+20 0 *
Ve
1e-07
37.175 53 -26.3375
0 0

0101101
*
Ed
 1e-07 1 1 0
1  20 0 0 33.3375
3  2 3CN 9 0 0 33.3375
0

0101000
+30 0 -18 0 *
Ed
 1e-07 1 1 0
1  21 0 0 6.28318530717959
2  4 9 0 0 6.28318530717959
4 C0 9 0 10 0
0

0101100
+18 0 -18 0 *
Wi

0101100
+17 0 -16 0 -17 0 +29 0 *
Ve
1e-07
34.87375 49.94759341871 -20.575
0 0

0101101
*
Ed
 1e-07 1 1 0
1  22 0 0 1
2  5 9 0 0 1
2  6 11 0 0 1
4 C0 9 0 11 0
0

0101100
+14 0 -14 0 *
Wi

0101100
+13 0 *
Ve
1e-07
34.87375 56.05240658129 -20.575
0 0

0101101
*
Ed
 1e-07 1 1 0
1  23 0 0 1
2  7 9 0 0 1
2  8 11 0 0 1
4 C0 9 0 11 0
0

0101100
+11 0 -11 0 *
Wi

0101100
-10 0 *
Fa
0  1e-07 9 0

0111000
+15 0 +12 0 +9 0 *
Wi

0101100
+16 0 *
Fa
0  1e-07 10 0

0111000
+7 0 *
Ed
 1e-07 1 1 0
1  24 0 6.94759341871 13.05240658129
3  9 10CN 11 0 6.94759341871 13.05240658129
0

0101000
+14 0 -11 0 *
Wi

0101100
-10 0 -5 0 +13 0 +5 0 *
Fa
0  1e-07 11 0

0111000
+4 0 *
Sh

0101100
-58 0 -51 0 -44 0 -37 0 +27 0 -24 0 -21 0 -19 0 +8 0 +6 0 
-3 0 *
So

0100000
+2 0 *

+1 0 