DBRep_DrawableShape

CASCADE Topology V1, (c) Matra-Datavision
Locations 0
Curve2ds 12
1 0 0 1 0 
1 0 0 1 0 
1 0 1 1 0 
1 6.1748655006639996 0 0 1 
1 0 0.5 1 0 
1 3.249912460105 0 0 1 
1 0 0.5 1 0 
1 0.10831980651500001 0 0 1 
1 3.0332728470750001 0 0 1 
1 0 1.5 1 0 
1 0.088709880751439998 0 0 1 
1 6.1944754264280002 0 0 1 
Curves 70
2 0 0 55 0 0 1 1 0 -0 -0 1 0 18.5
2 0 0 55 0 0 1 1 0 -0 -0 1 0 18.5
1 18 2 55 1 0 0 
1 18 -2 55 0 1 0 
1 18 -2 55 1 0 0 
1 18 -2 55 1 0 0 
1 18.5 -2 55 0 1 0 
2 0 0 55 0 0 1 1 0 -0 -0 1 0 18.5
1 -18.5 2 55 1 0 0 
1 -18 -2 55 0 1 0 
1 -18.5 -2 55 1 0 0 
2 0 0 55 0 0 1 1 0 -0 -0 1 0 18.5
2 0 0 55 0 0 1 1 0 -0 -0 1 0 15.050000000000001
1 14.6 1.333333333333 55 1 0 0 
1 16 -1.333333333333 55 0 1 0 
1 14.6 -1.333333333333 55 1 0 0 
1 18 2 55 1 0 0 
1 18.5 -2 55 0 1 0 
1 18.5 -2 55 0 0 1 
1 18.5 2 55 0 0 1 
1 18.5 -2 61 0 1 0 
1 18.39157415775 -2 55 0 0 1 
1 9 -2 55.5 -1 0 0 
1 18 -2 55 0 0 1 
1 18 -2 61 1 0 0 
2 0 0 55.5 0 0 1 1 0 -0 -0 1 0 18.5
1 -18.39157415775 -2 55 0 0 1 
2 0 0 55 0 0 1 1 0 -0 -0 1 0 18.5
2 0 0 55 0 0 1 1 0 -0 -0 1 0 18.5
2 0 0 55.5 0 0 1 1 0 -0 -0 1 0 18.5
1 18.39157415775 2 55 0 0 1 
1 -18.39157415775 2 55 0 0 1 
2 0 0 55.5 0 0 1 1 0 -0 -0 1 0 15.050000000000001
1 14.990821265769 1.333333333333 54 0 0 1 
1 14.990821265769 -1.333333333333 54 0 0 1 
2 0 0 55 0 0 1 1 0 -0 -0 1 0 15.050000000000001
2 0 0 55 0 0 1 1 0 -0 -0 1 0 15.050000000000001
1 9 2 55.5 -1 0 0 
1 18 2 55 0 0 1 
1 18 2 61 1 0 0 
1 18 -2 61 0 1 0 
1 18 -1 55.5 0 1 0 
1 -9.25 2 55.5 -1 0 0 
1 -18 -1 55.5 0 1 0 
1 -9.25 -2 55.5 -1 0 0 
1 14.6 1.333333333333 55.5 1 0 0 
1 16 -1.333333333333 55.5 0 1 0 
1 14.6 -1.333333333333 55.5 1 0 0 
1 -18.5 -2 55 1 0 0 
1 -18.5 -2 55 0 0 1 
1 -18.5 -2 61 1 0 0 
1 -18 -2 55 0 0 1 
1 -18.5 -2 55 0 1 0 
1 -18.5 -2 55 0 1 0 
1 -18.5 2 55 1 0 0 
1 -18.5 2 55 0 0 1 
1 -18.5 2 61 1 0 0 
1 -18 2 55 0 0 1 
1 14.6 -1.333333333333 55 1 0 0 
1 14.6 -1.333333333333 55 0 0 1 
1 14.6 -1.333333333333 55.5 1 0 0 
1 14.6 1.333333333333 55 1 0 0 
1 14.6 1.333333333333 55 0 0 1 
1 14.6 1.333333333333 55.5 1 0 0 
1 14.6 -1.333333333333 55 0 1 0 
1 -18 -2 61 0 1 0 
2 0 0 55.5 0 0 1 1 0 -0 -0 1 0 15.050000000000001
2 0 0 55.5 0 0 1 1 0 -0 -0 1 0 15.050000000000001
1 -18.5 -2 61 0 1 0 
1 14.6 -1.333333333333 55.5 0 1 0 
Polygon3D 0
PolygonOnTriangulations 0
Surfaces 28
1 0 0 55 0 0 1 1 0 -0 -0 1 0 
1 18 -2 55 0 0 1 1 0 -0 -0 1 0 
1 18 -2 55 0 0 1 1 0 -0 -0 1 0 
1 0 0 55 0 0 1 1 0 -0 -0 1 0 
1 18 -2 55 0 1 0 0 -0 1 1 0 -0 
1 18.5 -2 55 1 0 0 0 0 1 0 -1 0 
2 0 0 55 0 0 1 1 0 -0 -0 1 0 18.5
1 0 0 55 0 0 1 1 0 -0 -0 1 0 
2 0 0 55 0 0 1 1 0 -0 -0 1 0 18.5
2 0 0 54 0 0 1 1 0 -0 -0 1 0 15.050000000000001
1 0 0 55 0 0 1 1 0 -0 -0 1 0 
1 18 2 55 0 1 0 0 -0 1 1 0 -0 
1 18 -2 61 0 0 1 1 0 -0 -0 1 0 
1 0 0 55.5 0 0 1 1 0 -0 -0 1 0 
1 18 -2 55 1 0 0 0 0 1 0 -1 0 
1 -18.5 -2 55 0 1 0 0 -0 1 1 0 -0 
1 -18.5 -2 55 0 0 1 1 0 -0 -0 1 0 
1 -18.5 -2 55 0 0 1 1 0 -0 -0 1 0 
1 -18.5 2 55 0 1 0 0 -0 1 1 0 -0 
1 14.6 1.333333333333 55 0 1 0 0 -0 1 1 0 -0 
1 14.6 -1.333333333333 55 0 1 0 0 -0 1 1 0 -0 
1 14.6 -1.333333333333 55 0 0 1 1 0 -0 -0 1 0 
1 -18 -2 55 1 0 0 0 0 1 0 -1 0 
1 0 0 55.5 0 0 1 1 0 -0 -0 1 0 
1 -18.5 -2 55 1 0 0 0 0 1 0 -1 0 
1 -18.5 -2 61 0 0 1 1 0 -0 -0 1 0 
1 14.6 -1.333333333333 55 1 0 0 0 0 1 0 -1 0 
1 14.6 -1.333333333333 55.5 0 0 1 1 0 -0 -0 1 0 
Triangulations 0

TShapes 174
Ve
1e-07
18.39157415775 -2 55
0 0

0101101
*
Ve
1e-07
18.5 -4.531193156845e-15 55
0 0

0101101
*
Ed
 1e-07 1 1 0
1  1 0 6.17486550066447 6.28318530717959
4 CN 1 0 2 0
0

0101000
+174 0 -173 0 *
Ve
1e-07
18.39157415775 2 55
0 0

0101101
*
Ed
 1e-07 1 1 0
1  2 0 0 0.108319806515115
4 CN 1 0 3 0
0

0101000
+173 0 -171 0 *
Ve
1e-07
18 2 55
0 0

0101101
*
Ed
 1e-07 1 1 0
1  3 0 0 0.39157415775
4 CN 1 0 4 0
0

0101000
+169 0 -171 0 *
Ve
1e-07
18 -2 55
0 0

0101101
*
Ed
 1e-07 1 1 0
1  4 0 0 4
4 CN 1 0 4 0
0

0101000
+167 0 -169 0 *
Ed
 1e-07 1 1 0
1  5 0 0 0.39157415775
4 CN 1 0 4 0
0

0101000
+167 0 -174 0 *
Wi

0101100
+172 0 +170 0 -168 0 -166 0 +165 0 *
Fa
0  1e-07 1 0

0111000
+164 0 *
Ve
1e-07
18.5 -2 55
0 0

0101101
*
Ed
 1e-07 1 1 0
1  6 0 0.39157415775 0.5
4 C0 2 0 5 0
0

0101000
+174 0 -162 0 *
Ed
 1e-07 1 1 0
1  7 0 0 2
4 C0 2 0 6 0
0

0101000
+162 0 -173 0 *
Wi

0101100
-172 0 +161 0 +160 0 *
Fa
0  1e-07 2 0

0111000
+159 0 *
Ve
1e-07
-18.39157415774 2 55
0 0

0101101
*
Ed
 1e-07 1 1 0
1  8 0 0.108319806515115 3.03327284707462
2  1 7 0 0.108319806515115 3.03327284707462
4 C0 4 0 7 0
0

0101000
+171 0 -157 0 *
Ve
1e-07
-18 2 55
0 0

0101101
*
Ed
 1e-07 1 1 0
1  9 0 0.108425842260001 0.5
4 CN 4 0 8 0
0

0101000
+157 0 -155 0 *
Ve
1e-07
-18 -2 55
0 0

0101101
*
Ed
 1e-07 1 1 0
1  10 0 0 4
4 CN 4 0 8 0
0

0101000
+153 0 -155 0 *
Ve
1e-07
-18.39157415774 -2 55
0 0

0101101
*
Ed
 1e-07 1 1 0
1  11 0 0.108425842260001 0.5
4 CN 4 0 8 0
0

0101000
+151 0 -153 0 *
Ed
 1e-07 1 1 0
1  12 0 3.24991246010497 6.17486550066447
2  2 9 0 3.24991246010497 6.17486550066447
4 C0 4 0 9 0
0

0101000
+151 0 -174 0 *
Wi

0101100
+168 0 +156 0 +154 0 -152 0 -150 0 +149 0 -165 0 +166 0 *
Ve
1e-07
14.990821265769 1.333333333333 55
0 0

0101101
*
Ve
1e-07
14.990821265769 -1.333333333333 55
0 0

0101101
*
Ed
 1e-07 1 1 0
1  13 0 0.0887098807514206 6.19447542642817
2  3 10 0 0.0887098807514206 6.19447542642817
4 C0 4 0 10 0
0

0101000
+147 0 -146 0 *
Ve
1e-07
16 1.333333333333 55
0 0

0101101
*
Ed
 1e-07 1 1 0
1  14 0 0.390821265769 1.4
4 CN 4 0 11 0
0

0101000
+147 0 -144 0 *
Ve
1e-07
16 -1.333333333333 55
0 0

0101101
*
Ed
 1e-07 1 1 0
1  15 0 0 2.666666666666
4 CN 4 0 11 0
0

0101000
+142 0 -144 0 *
Ed
 1e-07 1 1 0
1  16 0 0.390821265769 1.4
4 CN 4 0 11 0
0

0101000
+146 0 -142 0 *
Wi

0101100
-145 0 +143 0 -141 0 -140 0 *
Fa
0  1e-07 4 0

0111000
+148 0 +139 0 *
Ve
1e-07
18.5 2 55
0 0

0101101
*
Ed
 1e-07 1 1 0
1  17 0 0.39157415775 0.5
4 C0 3 0 12 0
0

0101000
+171 0 -137 0 *
Ed
 1e-07 1 1 0
1  18 0 2 4
4 C0 3 0 6 0
0

0101000
+173 0 -137 0 *
Wi

0101100
-136 0 -170 0 +135 0 *
Fa
0  1e-07 3 0

0111000
+134 0 *
Ve
1e-07
18.5 -2 61
0 0

0101101
*
Ed
 1e-07 1 1 0
1  19 0 0 6
4 C0 6 0 5 0
0

0101000
+162 0 -132 0 *
Ve
1e-07
18.5 2 61
0 0

0101101
*
Ed
 1e-07 1 1 0
1  20 0 0 6
4 C0 6 0 12 0
0

0101000
+137 0 -130 0 *
Ed
 1e-07 1 1 0
1  21 0 0 4
4 C0 6 0 13 0
0

0101000
+132 0 -130 0 *
Wi

0101100
-131 0 +160 0 +135 0 +129 0 -128 0 *
Fa
0  1e-07 6 0

0111000
+127 0 *
Ve
1e-07
18.39157415775 -2 55.5
0 0

0101101
*
Ed
 1e-07 1 1 0
1  22 0 0 0.5
2  4 9 0 0 0.5
4 C0 5 0 9 0
0

0101000
+174 0 -125 0 *
Ve
1e-07
18 -2 55.5
0 0

0101101
*
Ed
 1e-07 1 1 0
1  23 0 -9.39157415775 -9
4 C0 5 0 14 0
0

0101000
+125 0 -123 0 *
Ve
1e-07
18 -2 61
0 0

0101101
*
Ed
 1e-07 1 1 0
1  24 0 0.5 6
4 C0 5 0 15 0
0

0101000
+123 0 -121 0 *
Ed
 1e-07 1 1 0
1  25 0 0 0.5
4 C0 5 0 13 0
0

0101000
+121 0 -132 0 *
Wi

0101100
-161 0 +124 0 +122 0 +120 0 +119 0 -131 0 *
Fa
0  1e-07 5 0

0111000
+118 0 *
Ve
1e-07
-18.39157415775 -2 55.5
0 0

0101101
*
Ed
 1e-07 1 1 0
1  26 0 3.24991246010491 6.17486550066447
2  5 9 0 3.24991246010491 6.17486550066447
4 C0 9 0 14 0
0

0101000
+116 0 -125 0 *
Ed
 1e-07 1 1 0
1  27 0 0 0.5
2  6 9 0 0 0.5
4 C0 9 0 16 0
0

0101000
+151 0 -116 0 *
Wi

0101100
+124 0 -115 0 -114 0 +149 0 *
Fa
0  1e-07 9 0

0111000
+113 0 *
Ve
1e-07
-18.5 2.243021313836e-15 55
0 0

0101101
*
Ed
 1e-07 1 1 0
1  28 0 3.03327284707462 3.14159265358979
4 CN 8 0 17 0
0

0101000
+157 0 -111 0 *
Ed
 1e-07 1 1 0
1  29 0 3.14159265358979 3.24991246010497
4 CN 8 0 18 0
0

0101000
+111 0 -151 0 *
Wi

0101100
-154 0 +110 0 +109 0 +150 0 +152 0 *
Fa
0  1e-07 8 0

0111000
+108 0 *
Ve
1e-07
18.39157415775 2 55.5
0 0

0101101
*
Ve
1e-07
-18.39157415775 2 55.5
0 0

0101101
*
Ed
 1e-07 1 1 0
1  30 0 0.108319806515115 3.03327284707468
2  7 7 0 0.108319806515115 3.03327284707468
4 C0 7 0 14 0
0

0101000
+106 0 -105 0 *
Ed
 1e-07 1 1 0
1  31 0 0 0.5
2  8 7 0 0 0.5
4 C0 7 0 12 0
0

0101000
+171 0 -106 0 *
Ed
 1e-07 1 1 0
1  32 0 0 0.5
2  9 7 0 0 0.5
4 C0 7 0 19 0
0

0101000
+157 0 -105 0 *
Wi

0101100
-104 0 -103 0 +156 0 +102 0 *
Fa
0  1e-07 7 0

0111000
+101 0 *
Ve
1e-07
14.990821265769 1.333333333333 55.5
0 0

0101101
*
Ve
1e-07
14.990821265769 -1.333333333333 55.5
0 0

0101101
*
Ed
 1e-07 1 1 0
1  33 0 0.0887098807514206 6.19447542642817
2  10 10 0 0.0887098807514206 6.19447542642817
4 C0 10 0 14 0
0

0101000
+99 0 -98 0 *
Ed
 1e-07 1 1 0
1  34 0 1 1.5
2  11 10 0 1 1.5
4 C0 10 0 20 0
0

0101000
+147 0 -99 0 *
Ed
 1e-07 1 1 0
1  35 0 1 1.5
2  12 10 0 1 1.5
4 C0 10 0 21 0
0

0101000
+146 0 -98 0 *
Wi

0101100
-97 0 -96 0 +145 0 +95 0 *
Fa
0  1e-07 10 0

0111000
+94 0 *
Ve
1e-07
15.05 -3.686186865434e-15 55
0 0

0101101
*
Ed
 1e-07 1 1 0
1  36 0 0 0.0887098807514206
4 CN 11 0 22 0
0

0101000
+92 0 -147 0 *
Ed
 1e-07 1 1 0
1  37 0 6.19447542642817 6.28318530717959
4 CN 11 0 22 0
0

0101000
+146 0 -92 0 *
Wi

0101100
-91 0 -90 0 +140 0 +141 0 -143 0 *
Fa
0  1e-07 11 0

0111000
+89 0 *
Ve
1e-07
18 2 55.5
0 0

0101101
*
Ed
 1e-07 1 1 0
1  38 0 -9.39157415775 -9
4 C0 12 0 14 0
0

0101000
+106 0 -87 0 *
Ve
1e-07
18 2 61
0 0

0101101
*
Ed
 1e-07 1 1 0
1  39 0 0.5 6
4 C0 12 0 15 0
0

0101000
+87 0 -85 0 *
Ed
 1e-07 1 1 0
1  40 0 0 0.5
4 C0 12 0 13 0
0

0101000
+85 0 -130 0 *
Wi

0101100
-136 0 +103 0 +86 0 +84 0 +83 0 -129 0 *
Fa
0  1e-07 12 0

0111000
+82 0 *
Ed
 1e-07 1 1 0
1  41 0 0 4
4 C0 13 0 15 0
0

0101000
+121 0 -85 0 *
Wi

0101100
-80 0 +119 0 +128 0 -83 0 *
Fa
0  1e-07 13 0

0111000
+79 0 *
Ed
 1e-07 1 1 0
1  42 0 -1 3
4 C0 15 0 14 0
0

0101000
+123 0 -87 0 *
Wi

0101100
-120 0 +77 0 +84 0 -80 0 *
Fa
0  1e-07 15 0

0111000
+76 0 *
Ve
1e-07
-18 2 55.5
0 0

0101101
*
Ed
 1e-07 1 1 0
1  43 0 8.75 9.14157415775
4 C0 14 0 19 0
0

0101000
+74 0 -105 0 *
Ve
1e-07
-18 -2 55.5
0 0

0101101
*
Ed
 1e-07 1 1 0
1  44 0 -1 3
4 C0 14 0 23 0
0

0101000
+72 0 -74 0 *
Ed
 1e-07 1 1 0
1  45 0 8.75 9.14157415775
4 C0 14 0 16 0
0

0101000
+72 0 -116 0 *
Wi

0101100
-86 0 +104 0 -73 0 -71 0 +70 0 +115 0 +122 0 +77 0 *
Ve
1e-07
16 1.333333333333 55.5
0 0

0101101
*
Ed
 1e-07 1 1 0
1  46 0 0.390821265769 1.4
4 CN 14 0 24 0
0

0101000
+99 0 -68 0 *
Ve
1e-07
16 -1.333333333333 55.5
0 0

0101101
*
Ed
 1e-07 1 1 0
1  47 0 0 2.666666666666
4 CN 14 0 24 0
0

0101000
+66 0 -68 0 *
Ed
 1e-07 1 1 0
1  48 0 0.390821265769 1.4
4 CN 14 0 24 0
0

0101000
+98 0 -66 0 *
Wi

0101100
-97 0 +67 0 -65 0 -64 0 *
Fa
0  1e-07 14 0

0111000
+69 0 +63 0 *
Ve
1e-07
-18.5 -2 55
0 0

0101101
*
Ed
 1e-07 1 1 0
1  49 0 0 0.108425842260001
4 C0 16 0 18 0
0

0101000
+61 0 -151 0 *
Ve
1e-07
-18.5 -2 61
0 0

0101101
*
Ed
 1e-07 1 1 0
1  50 0 0 6
4 C0 16 0 25 0
0

0101000
+61 0 -59 0 *
Ve
1e-07
-18 -2 61
0 0

0101101
*
Ed
 1e-07 1 1 0
1  51 0 0 0.5
4 C0 16 0 26 0
0

0101000
+59 0 -57 0 *
Ed
 1e-07 1 1 0
1  52 0 0.5 6
4 C0 16 0 23 0
0

0101000
+72 0 -57 0 *
Wi

0101100
-60 0 +58 0 +56 0 -55 0 +70 0 -114 0 *
Fa
0  1e-07 16 0

0111000
+54 0 *
Ed
 1e-07 1 1 0
1  53 0 0 2
4 C0 18 0 25 0
0

0101000
+61 0 -111 0 *
Wi

0101100
-52 0 +60 0 -109 0 *
Fa
0  1e-07 18 0

0111000
+51 0 *
Ve
1e-07
-18.5 2 55
0 0

0101101
*
Ed
 1e-07 1 1 0
1  54 0 2 4
4 C0 17 0 25 0
0

0101000
+111 0 -49 0 *
Ed
 1e-07 1 1 0
1  55 0 0 0.108425842260001
4 C0 17 0 19 0
0

0101000
+49 0 -157 0 *
Wi

0101100
-48 0 -110 0 -47 0 *
Fa
0  1e-07 17 0

0111000
+46 0 *
Ve
1e-07
-18.5 2 61
0 0

0101101
*
Ed
 1e-07 1 1 0
1  56 0 0 6
4 C0 19 0 25 0
0

0101000
+49 0 -44 0 *
Ve
1e-07
-18 2 61
0 0

0101101
*
Ed
 1e-07 1 1 0
1  57 0 0 0.5
4 C0 19 0 26 0
0

0101000
+44 0 -42 0 *
Ed
 1e-07 1 1 0
1  58 0 0.5 6
4 C0 19 0 23 0
0

0101000
+74 0 -42 0 *
Wi

0101100
-47 0 +43 0 +41 0 -40 0 +73 0 -102 0 *
Fa
0  1e-07 19 0

0111000
+39 0 *
Ve
1e-07
14.6 -1.333333333333 55
0 0

0101101
*
Ed
 1e-07 1 1 0
1  59 0 0 0.390821265769
4 C0 21 0 22 0
0

0101000
+37 0 -146 0 *
Ve
1e-07
14.6 -1.333333333333 55.5
0 0

0101101
*
Ed
 1e-07 1 1 0
1  60 0 0 0.5
4 C0 21 0 27 0
0

0101000
+37 0 -35 0 *
Ed
 1e-07 1 1 0
1  61 0 0 0.390821265769
4 C0 21 0 28 0
0

0101000
+35 0 -98 0 *
Wi

0101100
-36 0 +34 0 +33 0 -95 0 *
Fa
0  1e-07 21 0

0111000
+32 0 *
Ve
1e-07
14.6 1.333333333333 55
0 0

0101101
*
Ed
 1e-07 1 1 0
1  62 0 0 0.390821265769
4 C0 20 0 22 0
0

0101000
+30 0 -147 0 *
Ve
1e-07
14.6 1.333333333333 55.5
0 0

0101101
*
Ed
 1e-07 1 1 0
1  63 0 0 0.5
4 C0 20 0 27 0
0

0101000
+30 0 -28 0 *
Ed
 1e-07 1 1 0
1  64 0 0 0.390821265769
4 C0 20 0 28 0
0

0101000
+28 0 -99 0 *
Wi

0101100
-29 0 +27 0 +26 0 -96 0 *
Fa
0  1e-07 20 0

0111000
+25 0 *
Ed
 1e-07 1 1 0
1  65 0 0 2.666666666666
4 C0 22 0 27 0
0

0101000
+37 0 -30 0 *
Wi

0101100
-29 0 -23 0 +36 0 +90 0 +91 0 *
Fa
0  1e-07 22 0

0111000
+22 0 *
Ed
 1e-07 1 1 0
1  66 0 0 4
4 C0 23 0 26 0
0

0101000
+57 0 -42 0 *
Wi

0101100
-55 0 +71 0 +40 0 -20 0 *
Fa
0  1e-07 23 0

0111000
+19 0 *
Ve
1e-07
15.05 -3.686186865434e-15 55.5
0 0

0101101
*
Ed
 1e-07 1 1 0
1  67 0 0 0.0887098807514206
4 CN 24 0 28 0
0

0101000
+17 0 -99 0 *
Ed
 1e-07 1 1 0
1  68 0 6.19447542642817 6.28318530717959
4 CN 24 0 28 0
0

0101000
+98 0 -17 0 *
Wi

0101100
-16 0 -15 0 +64 0 +65 0 -67 0 *
Fa
0  1e-07 24 0

0111000
+14 0 *
Ed
 1e-07 1 1 0
1  69 0 0 4
4 C0 26 0 25 0
0

0101000
+59 0 -44 0 *
Wi

0101100
-12 0 +56 0 +20 0 -41 0 *
Fa
0  1e-07 26 0

0111000
+11 0 *
Wi

0101100
-58 0 +52 0 +48 0 +43 0 -12 0 *
Fa
0  1e-07 25 0

0111000
+9 0 *
Ed
 1e-07 1 1 0
1  70 0 0 2.666666666666
4 C0 28 0 27 0
0

0101000
+35 0 -28 0 *
Wi

0101100
-26 0 -7 0 +33 0 +15 0 +16 0 *
Fa
0  1e-07 28 0

0111000
+6 0 *
Wi

0101100
-34 0 +23 0 +27 0 -7 0 *
Fa
0  1e-07 27 0

0111000
+4 0 *
Sh

0101100
-163 0 -158 0 -138 0 -133 0 +126 0 -117 0 +112 0 -107 0 +100 0 -93 0 
-88 0 +81 0 +78 0 -75 0 +62 0 -53 0 -50 0 -45 0 +38 0 -31 0 
+24 0 -21 0 +18 0 +13 0 +10 0 -8 0 +5 0 -3 0 *
So

0100000
+2 0 *

+1 0 