DBRep_DrawableShape

CASCADE Topology V1, (c) Matra-Datavision
Locations 20
1
              1               0               0              18 
              0               1               0             -18 
              0               0               1               0 
1
              0               0              -1               0 
              0               1               0               0 
              1               0               0               0 
1
              1               0               0               0 
              0               1               0               0 
              0               0               1               0 
2  3 -1 0
1
              1               0               0               3 
              0               1               0               0 
              0               0               1               0 
2  5 1 2 1 0
1
              1               0               0               0 
              0               1               0               0 
              0               0               1               0 
1
           -0.5 -0.866025403784439               0               0 
0.866025403784439            -0.5               0               0 
              0               0               1               0 
1
              1               0               0               0 
              0               1               0               0 
              0               0               1               0 
2  8 1 9 1 0
1
           -0.5 0.866025403784438               0               0 
-0.866025403784438            -0.5               0               0 
              0               0               1               0 
1
              1               0               0               0 
              0               1               0               0 
              0               0               1               0 
2  11 1 12 1 0
2  3 -1 2 -1 0
2  5 -1 0
2  3 -1 2 -1 5 -1 0
2  2 -1 0
2  3 -1 7 -1 0
2  3 -1 9 -1 8 -1 0
2  3 -1 12 -1 11 -1 0
Curve2ds 242
1 6.0151221843571463 0 0 1 
1 4.0861293905120935 0 0 -1 
1 0 2.9999999999999929 1 0 
2 -1.5e-16 -1.5e-16 -1 0 -0 -1 14
1 5.5040508788054261 0 0 1 
1 11.502327877607776 0 0 -1 
1 0 0 1 0 
2 0 0 1 0 -0 1 14
1 4.9679246331605498 0 0 1 
1 4.0861293905121148 0 0 -1 
1 0 2.9999999999999929 1 0 
2 -1.5e-16 -1.5e-16 -1 0 -0 -1 14
1 4.4568533276088278 0 0 1 
1 11.502327877607767 0 0 -1 
1 0 0 1 0 
2 0 0 1 0 -0 1 14
1 3.9207270819639533 0 0 1 
1 4.0861293905121254 0 0 -1 
1 0 2.9999999999999929 1 0 
2 -1.5e-16 -1.5e-16 -1 0 -0 -1 14
1 3.4096557764122291 0 0 1 
1 11.502327877607753 0 0 -1 
1 0 0 1 0 
2 0 0 1 0 -0 1 14
1 2.8735295307673572 0 0 1 
1 4.0861293905121432 0 0 -1 
1 0 2.9999999999999929 1 0 
2 -1.5e-16 -1.5e-16 -1 0 -0 -1 14
1 2.3624582252156325 0 0 1 
1 11.502327877607767 0 0 -1 
1 0 0 1 0 
2 0 0 1 0 -0 1 14
1 1.8263319795707582 0 0 1 
1 4.0861293905121263 0 0 -1 
1 0 2.9999999999999929 1 0 
2 -1.5e-16 -1.5e-16 -1 0 -0 -1 14
1 1.3152606740190365 0 0 1 
1 11.502327877607788 0 0 -1 
1 0 0 1 0 
2 0 0 1 0 -0 1 14
1 0.77913442837415914 0 0 1 
1 4.0861293905121094 0 0 -1 
1 0 2.9999999999999929 1 0 
2 -1.5e-16 -1.5e-16 -1 0 -0 -1 14
1 0.26806312282243988 0 0 1 
1 11.50232787760781 0 0 -1 
1 0 0 1 0 
2 0 0 1 0 -0 1 14
1 6.2831853071795862 -0 0 1 
1 0 -0 0 1 
1 0 4 1 0 
2 0 5 1 0 -0 1 14
1 0.36520722129036676 0 0 1 
1 -4 13.076696830622021 1 0 
1 0 11.249999999999996 1 0 
2 0 5 1 0 -0 1 14
1 6.2831853071795862 -0 0 1 
1 0 -0 0 1 
1 0 19.249999999999996 1 0 
2 0 0 1 0 -0 1 14
1 0 11.249999999999996 1 0 
2 0 5 1 0 -0 1 14
1 5.917978085889219 0 0 1 
1 -4 13.076696830622021 1 0 
1 0 4 1 0 
2 0 5 1 0 -0 1 14
1 0 0 1 0 
2 0 0 1 0 -0 1 14
7 0 0  6 92 19  0.8725738534323364 2.25  0.86870588945274141 2.25  0.8648359262028823 2.2472471514291197  0.86098205907863712 2.24177630528879  0.85716239674359329 2.2336329610907928  0.85339506112904895 2.2228732668572562  0.84444372276903101 2.1906472322032866  0.839329208938007 2.1665710881959246  0.83440587158815072 2.1375152663740868  0.82972514106942896 2.1036930080042295  0.82533914257950591 2.0653535376627272  0.81951947748871723 2.0040013050716818  0.81780567054980935 1.9843961427768981  0.81616487356541745 1.9639999000844524  0.81460204261861602 1.9428459530529925  0.81312198180210116 1.9209701513858661  0.81045562609610788 1.8777778925743143  0.80925500924494254 1.856572662919209  0.8081314813023216 1.8348313682211146  0.80708871825875717 1.8125922332855247  0.80613008345764392 1.7898954689681117  0.80367187941297702 1.724700548501126  0.80237337643114348 1.6812194760471233  0.8013846170474207 1.6366607016099028  0.80072017404704388 1.5913669936457528  0.80038765346835883 1.5456938323938421  0.80038765346835883 1.4683564874880817  0.80054711846160587 1.436716474632769  0.80086597837700291 1.4052022197095113  0.80134243671780203 1.3739354564049016  0.8019729752029946 1.3430357956845962  0.80370870541862927 1.2752961659871054  0.80488889231509442 1.2387110707648248  0.80628395728912461 1.2030391196236918  0.80788271798426592 1.1684469954571706  0.8096717967660414 1.135090281590027  0.81394130750700988 1.065565560295157  0.81648818305785464 1.0299136844644847  0.81925517153920102 0.99632079092213832  0.82222050957094606 0.96493589393779278  0.82536174846503074 0.93589086350732764  0.83181473559252395 0.88379822443821243  0.83511542822839202 0.86054382482047798  0.83853970000560263 0.83962281428717012  0.84206974494828835 0.82111320594067871  0.845687962433184 0.80508519985485838  0.85583392457958229 0.76799994918868797  0.86251517493465124 0.75216638077280762  0.86931963175271298 0.74450135917845461  0.876145719475389 0.74527069454714934  0.88289251148789449 0.75460651988468863  0.89337641101956755 0.78318230393438071  0.89722754492237977 0.79690092975901916  0.90098712789228452 0.81364312487269352  0.90463049348771596 0.83335306253847896  0.90813407935684209 0.85593824017490971  0.91480489442251089 0.90650907237092948  0.91797275811548973 0.93447021884177983  0.92095605396989599 0.9650149165541998  0.92373365310014599 0.99796428777308377  0.92628683701616277 1.0331023248864795  0.93046467470321348 1.1000769330816962  0.93217333477593944 1.1312346370208566  0.93371750637927942 1.1635237271377517  0.93509026265960571 1.196804830897048  0.9362859462307922 1.2309284934310825  0.93839142240521933 1.303181896726392  0.93927273905669828 1.3414210854199056  0.9399390489007925 1.3802640658208263  0.94038686763132873 1.4195144460135902  0.94061442824559627 1.4589713183738373  0.94062917813370206 1.5387295641244998  0.9404069073793826 1.5790359881949947  0.93995484487297298 1.619133643950958  0.93927483949886315 1.6588084627114286  0.9383706082171912 1.6978512615093913  0.93625171461316781 1.7699489212422892  0.93508366784959029 1.803183024022202  0.93374755788079644 1.8356160070699301  0.93224861705914874 1.8671096304431247  0.9305932226601682 1.8975347212475964  0.92589324340647072 1.9736906986702933  0.92261412081760286 2.0175479646010124  0.91898330873060752 2.0578396761737019  0.91503949063144219 2.0941489479481947  0.91082709403676443 2.1261545720064934  0.90125129181179597 2.1855394381444602  0.89581509311419671 2.2113282520557824  0.89015571990477127 2.2307355273843896  0.88434560192902767 2.2436256152931837  0.8784595561269154 2.25  0.8725738534323364 2.25 
 0 7 0.054170493712580772 5 0.1311644536305428 5 0.16513728747757425 5 0.19620908216748215 5 0.25278465400377426 5 0.29196389814861112 5 0.34003903335132879 5 0.39648175189728102 5 0.45061160349329321 5 0.54536078721944181 5 0.60187991245088068 5 0.65819007716996092 5 0.70359854832916191 5 0.75244773120535546 5 0.80233495264277588 5 0.8465822866430498 5 0.91758730671559718 5 1 7
7 0 0  6 92 19  0 30.723805294763611  0.05530572347244711 30.688993618947251  0.11042498209482882 30.653971339118726  0.16540040861832347 30.618902106169667  0.22027311616208656 30.583955392228578  0.27508269821325088 30.549306490660772  0.407733935199242 30.466569824612368  0.4855861657515666 30.418948377906517  0.56355227373001437 30.372782544923513  0.64176487304182206 30.328605984400159  0.72036844515494458 30.28697380141142  0.83445486270394553 30.231467175327563  0.86948803611926095 30.215082193144468  0.90462989641381231 30.199360289876832  0.93988528107507729 30.18435467828057  0.97526043510779292 30.170117251385737  1.0432339186746751 30.14442577279759  1.0758120363603771 30.132837503542845  1.1084926011645113 30.121976614862067  1.141272198985857 30.111882722790366  1.1741487645485233 30.102592219268161  1.2671585373342467 30.078745312135158  1.3275440278039174 30.066118036260487  1.3881751546590619 30.056486174773948  1.4489735529033172 30.050007653051114  1.509871216936441 30.046765648705058  1.612987676810788 30.046765648705058  1.6551743700718802 30.048320423609638  1.6973285436559378 30.051429332532489  1.7394229864339603 30.056072860012122  1.7814287132972246 30.062212961775042  1.8747063486804196 30.079095047252341  1.9259020211575788 30.090562735813947  1.9768903568454712 30.104099651310907  2.0276582260353258 30.119584073774917  2.0781845952800473 30.136871328270981  2.1874349756820126 30.17801395478654  2.246063126545407 30.202491834586755  2.3043686486276624 30.229000364059811  2.3623913732430668 30.257303555355595  2.4201620765823875 30.287160737858969  2.5328825991842945 30.348219804146719  2.5878720686811061 30.379327862646601  2.6427243051488829 30.411460332902617  2.6974904343078676 30.444430414656953  2.7522195778090519 30.478057249648945  2.9027789864477227 30.571870025779294  2.99874654158292 30.63312103118918  3.0950035709910679 30.694912336495502  3.1917085187803655 30.756281156192419  3.2890311628632896 30.816334710779437  3.4457394291562342 30.908778065364732  3.5045586613612301 30.942535813883648  3.5636271398680357 30.975297680480235  3.6229340094171363 31.006866610438262  3.6824722574652982 31.037062038959714  3.8017770086519662 31.094271753136322  3.8615318966565408 31.121292558606992  3.9214688156620139 31.146609469305606  3.9815623254532011 31.170072487806987  4.0417868713500678 31.191553873486054  4.1507566029816907 31.226586644189183  4.1994652703386874 31.240867613108161  4.2482264232947067 31.253737125415828  4.2970304318932895 31.26515104541744  4.3458667187444187 31.275074239759423  4.4472785659008043 31.292523426243957  4.4998596132234114 31.299811224046916  4.5524577007654727 31.305312687737146  4.6050677338974317 31.309007234549952  4.6576839549210796 31.31088462545749  4.7640285152412192 31.311006312058566  4.8177632782817348 31.309172560476583  4.8714916947987366 31.305443177040193  4.925207677955715 31.299828865060615  4.9789058572603357 31.292351578612259  5.0801834252424189 31.274789938017808  5.1277700578071439 31.265095592141208  5.1753260163335639 31.253986222179833  5.2228415110516035 31.241494332731161  5.2703076072092827 31.227660540147884  5.3937895598870043 31.188259381333296  5.4697071205006553 31.160656841445373  5.5454040204566359 31.129937464791254  5.6208334150341512 31.096366317563298  5.6959474998412958 31.06026370065733  5.8574197020977392 30.97760318731244  5.943588818988645 30.930326910797579  6.0292274896354501 30.880700938321322  6.1143696605238178 30.829305467457129  6.199029134220214 30.776776619014822  6.2831853071795862 30.723805294763611 
 0 7 0.054170493712580772 5 0.1311644536305428 5 0.16513728747757425 5 0.19620908216748215 5 0.25278465400377426 5 0.29196389814861112 5 0.34003903335132879 5 0.39648175189728102 5 0.45061160349329321 5 0.54536078721944181 5 0.60187991245088068 5 0.65819007716996092 5 0.70359854832916191 5 0.75244773120535546 5 0.80233495264277588 5 0.8465822866430498 5 0.91758730671559718 5 1 7
7 0 0  6 92 19  5.4106114537472498 2.25  5.4144794183145493 2.25  5.4183493808308585 2.247247152513919  5.4222032475222131 2.2417763063076883  5.4260229102705608 2.2336329605534555  5.4297902466137566 2.2228732648295857  5.4387415844105549 2.1906472322032844  5.4438560982415796 2.1665710881959224  5.4487794355914341 2.13751526637409  5.4534601661101574 2.103693008004234  5.4578461646000802 2.0653535376627246  5.4636658299010028 2.0040013028564068  5.4653796366009457 1.9843961435707802  5.4670204334296457 1.9639999024940049  5.4685832644916159 1.9428459535523794  5.4700633255369633 1.9209701488024713  5.4727296809211365 1.8777778952040751  5.4739302979497415 1.8565726620647707  5.4750538260131414 1.8348313654446378  5.4760965889781259 1.8125922326525192  5.47705522361235 1.7898954718746636  5.4795134277666087 1.7247005485011375  5.480811930748442 1.6812194760471249  5.4818006901321672 1.6366607016098917  5.4824651331325427 1.5913669936457444  5.4827976537112271 1.5456938323938516  5.4827976537112271 1.468356487488051  5.4826381887179814 1.436716474632771  5.4823193288025829 1.405202219709544  5.4818428704617839 1.373935456404914  5.4812123319765904 1.3430357956845558  5.4794766017609575 1.2752961659871491  5.4782964148644915 1.2387110707648177  5.4769013498904586 1.203039119623641  5.4753025891953193 1.1684469954571488  5.4735135104135475 1.1350902815900801  5.4692439996721083 1.0655655602875267  5.4666971241217892 1.0299136844676038  5.4639301356409717 0.99632079092880799  5.460964797608896 0.96493589393823875  5.4578235587138506 0.93589086350163819  5.451370571587062 0.88379822443820932  5.4480698789511948 0.86054382482048242  5.4446456071739844 0.83962281428717078  5.441115562231297 0.82111320594067461  5.4374973447464034 0.80508519985486016  5.4273513826006541 0.76799994919106607  5.4206701322447639 0.7521663807704968  5.4138656754261953 0.74450135917814808  5.4070395877040518 0.74527069454926753  5.4002927956923328 0.75460651988294125  5.3898088961600168 0.7831823039343826  5.3859577622572097 0.79690092975900573  5.3821981792873039 0.81364312487268686  5.3785548136918679 0.83335306253848529  5.3750512278227438 0.85593824017491194  5.3683804127570758 0.9065090723709206  5.3652125490640934 0.93447021884181114  5.362229253209688 0.96501491655421578  5.359451654079443 0.99796428777306512  5.3568984701634248 1.0331023248864666  5.3527206324763732 1.1000769330816857  5.3510119724036462 1.1312346370208628  5.3494678008003076 1.1635237271377457  5.3480950445199804 1.1968048308970471  5.3468993609487923 1.2309284934311266  5.3447938847743677 1.3031818967263724  5.3439125681228861 1.3414210854199926  5.3432462582787936 1.3802640658208369  5.3427984395482584 1.4195144460135118  5.3425708789339899 1.4589713183738431  5.3425561290458843 1.5387295641245011  5.3427783998002027 1.5790359881949971  5.3432304623066136 1.619133643950972  5.3439104676807245 1.6588084627114441  5.344814698962395 1.6978512615093873  5.3469335925087726 1.7699489192807913  5.348101639328612 1.8031830247187648  5.3494377493827328 1.8356160089501072  5.3509366901663382 1.8671096307502648  5.3525920844085464 1.8975347194510939  5.3572920637731167 1.9736906986703096  5.3605711863619776 2.0175479646009644  5.3642019984489773 2.0578396761736908  5.3681458165481466 2.0941489479482325  5.37235821314282 2.1261545720064885  5.3819340153677926 2.1855394381444779  5.3873702140653883 2.2113282520557767  5.3930295872748166 2.2307355273843861  5.3988397052505617 2.2436256152931917  5.4047257510526689 2.25  5.4106114537472498 2.25 
 0 7 0.054170487538395692 5 0.1311644504109003 5 0.16513728956833434 5 0.19620908871314091 5 0.25278466154603396 5 0.29196390638104552 5 0.34003904243064903 5 0.39648176198226215 5 0.45061161455431248 5 0.5453607999793586 5 0.60187992621870245 5 0.65819009194195266 5 0.70359856391089015 5 0.75244774765820821 5 0.80233496998527332 5 0.84658230221358755 5 0.91758731507974156 5 1 7
7 0 0  6 92 19  0 9.2761947052363922  0.055305731875676743 9.3110063863420809  0.11042497986429306 9.3460286594952393  0.16540040021354832 9.3810978885526151  0.22027311388612766 9.4160446063185628  0.27508270655970152 9.4506935145450317  0.40773393519925277 9.5334301753876307  0.48558616575155417 9.5810516220934847  0.56355227373000261 9.6272174550764849  0.6417648730418255 9.6713940155998284  0.72036844515495024 9.7130261985885742  0.83445486682332026 9.7685328266766387  0.86948803504637573 9.7849178065719098  0.90462989231672675 9.8006397083549448  0.93988527995917082 9.8156453210617602  0.97526043917339089 9.8298827501509081  1.04323391453611 9.8555742256381809  1.075812037472498 9.8671624966066265  1.1084926053134188 9.878023386451007  1.1412722000915438 9.8881172777599797  1.1741487604019158 9.8974077796686846  1.2671585373342305 9.9212546878648329  1.3275440278039163 9.9338819637395144  1.3881751546590779 9.9435138252260504  1.4489735529033281 9.9499923469488838  1.5098712169364277 9.9532343512949364  1.6129876768108289 9.9532343512949364  1.6551743700718831 9.9516795763903652  1.6973285436558936 9.948570667467509  1.7394229864339374 9.9439271399878724  1.7814287132972808 9.937787038224954  1.8747063486803599 9.9209049527476747  1.9259020211575804 9.9094372641860424  1.976890356845546 9.8959003486890698  2.0276582260353666 9.8804159262250817  2.0781845952799638 9.8631286717290454  2.187434975694003 9.8219860452089378  2.2460631265418058 9.7975081654138396  2.3043686486155348 9.7709996359457847  2.3623913732402175 9.7426964446467839  2.420162076594699 9.7128392621343576  2.5328825991843007 9.6517801958532701  2.5878720686810959 9.6206721373534041  2.6427243051488851 9.5885396670973808  2.6974904343078792 9.5555695853430311  2.7522195778090439 9.521942750351057  2.9027789864380678 9.4281299742267173  2.9987465415860899 9.366878968809127  3.095003570999868 9.305087663498357  3.1917085187832224 9.243718843806418  3.289031162853707 9.1836652892262123  3.4457394291562449 9.091221934635259  3.5045586613611692 9.0574641861163823  3.5636271398680086 9.0247023195197809  3.6229340094171683 8.9931333895617254  3.6824722574653035 8.9629379610402768  3.8017770086519458 8.9057282468636814  3.8615318966566101 8.8787074413929847  3.9214688156620476 8.8533905306943819  3.9815623254531598 8.8299275121930219  4.0417868713500473 8.8084461265139531  4.1507566029816729 8.7734133558108223  4.1994652703386945 8.759132386891828  4.2482264232946987 8.7462628745841666  4.2970304318932895 8.7348489545825618  4.3458667187444808 8.7249257602405645  4.4472785659007776 8.707476573756054  4.4998596132235393 8.7001887759530678  4.5524577007654896 8.694687312262845  4.6050677338973163 8.6909927654500567  4.6576839549210876 8.6891153745425083  4.7640285152412218 8.6889936879414353  4.8177632782817321 8.690827439523412  4.8714916947987561 8.6945568229598074  4.9252076779557408 8.7001711349393904  4.9789058572603295 8.7076484213877343  5.0801834224870497 8.7252100615044039  5.127770058635579 8.7349044078431195  5.17532601916293 8.7460137785208563  5.2228415117283449 8.7585056676558768  5.270307604296371 8.7723394589226533  5.3937895598870318 8.8117406186667129  5.4697071205005789 8.8393431585545859  5.54540402045662 8.8700625352087332  5.6208334150342125 8.9036336824367304  5.6959474998412807 8.939736299342659  5.8574197020977863 9.0223968126875782  5.9435888189886192 9.0696730892024124  6.0292274896354607 9.1192990616786798  6.114369660523864 9.1706945325428872  6.1990291342201802 9.2232233809851607  6.2831853071795862 9.2761947052363922 
 0 7 0.054170487538395692 5 0.1311644504109003 5 0.16513728956833434 5 0.19620908871314091 5 0.25278466154603396 5 0.29196390638104552 5 0.34003904243064903 5 0.39648176198226215 5 0.45061161455431248 5 0.5453607999793586 5 0.60187992621870245 5 0.65819009194195266 5 0.70359856391089015 5 0.75244774765820821 5 0.80233496998527332 5 0.84658230221358755 5 0.91758731507974156 5 1 7
1 0 4 1 0 
2 0 4.9999999999999991 -0.49999999999999989 -0.86602540378443882 0.86602540378443882 -0.49999999999999989 13.999999999999998
1 1.7291878811028285 0 0 1 
1 -3.9999999999999929 13.076696830622021 1 0 
1 2.459602323683562 0 0 1 
1 -3.9999999999999929 13.076696830622019 1 0 
1 0 11.249999999999996 1 0 
2 0 4.9999999999999991 -0.49999999999999989 -0.86602540378443882 0.86602540378443882 -0.49999999999999989 13.999999999999998
1 0 4 1 0 
2 0 5 -0.50000000000000033 0.86602540378443849 -0.86602540378443849 -0.50000000000000033 14.000000000000007
1 3.8235829834960233 0 0 1 
1 -4.0000000000000213 13.076696830622025 1 0 
1 4.5539974260767568 0 0 1 
1 -4.0000000000000213 13.076696830622026 1 0 
1 0 11.249999999999996 1 0 
2 0 5 -0.50000000000000033 0.86602540378443849 -0.86602540378443849 -0.50000000000000033 14.000000000000007
1 0 0 1 0 
1 -13.499999999999996 7.7942286340599551 -2.2999999999999999e-16 -1 
1 0 -3 1 0 
1 -13.499999999999996 7.7942286340599551 -2.2999999999999999e-16 -1 
1 0 0 0 -1 
1 15.588457268119891 0 0 -1 
1 1.7599999999999998e-15 15.588457268119896 -0.86602540378443882 -0.49999999999999972 
1 0 -3 1 0 
1 0 0 1 0 
1 1.7599999999999998e-15 15.588457268119896 -0.86602540378443882 -0.49999999999999972 
1 -1.9099999999999999e-15 -15.588457268119896 0.86602540378443882 0.49999999999999972 
1 -1.9099999999999999e-15 -15.588457268119896 0.86602540378443882 0.49999999999999972 
1 0 0 1 0 
1 1.7599999999999998e-15 15.588457268119896 -0.86602540378443882 -0.49999999999999972 
1 0 -3 1 0 
1 1.7599999999999998e-15 15.588457268119896 -0.86602540378443882 -0.49999999999999972 
1 0 0 0 -1 
1 15.588457268119896 0 0 -1 
1 13.500000000000002 7.7942286340599445 -0.8660254037844386 0.50000000000000033 
1 0 -3 1 0 
1 0 0 1 0 
1 13.500000000000002 7.7942286340599445 -0.8660254037844386 0.50000000000000033 
1 -13.500000000000002 -7.7942286340599445 0.8660254037844386 -0.50000000000000033 
1 -13.500000000000002 -7.7942286340599445 0.8660254037844386 -0.50000000000000033 
1 0 0 1 0 
1 13.500000000000002 7.7942286340599445 -0.8660254037844386 0.50000000000000033 
1 0 -3 1 0 
1 13.500000000000002 7.7942286340599445 -0.8660254037844386 0.50000000000000033 
1 0 0 0 -1 
1 15.588457268119894 0 0 -1 
1 13.5 -7.7942286340599498 1.1e-16 1 
1 0 -3 1 0 
1 0 0 1 0 
1 13.5 -7.7942286340599498 1.1e-16 1 
1 -13.5 7.7942286340599498 -1.1e-16 -1 
1 -13.5 7.7942286340599498 -1.1e-16 -1 
1 0 0 1 0 
1 13.5 -7.7942286340599498 1.1e-16 1 
1 0 -3 1 0 
1 13.5 -7.7942286340599498 1.1e-16 1 
1 0 0 0 -1 
1 15.588457268119894 0 0 -1 
1 -1.5e-16 -15.588457268119896 0.86602540378443871 0.49999999999999994 
1 0 -3 1 0 
1 0 0 1 0 
1 -1.5e-16 -15.588457268119896 0.86602540378443871 0.49999999999999994 
1 0 15.588457268119896 -0.86602540378443871 -0.49999999999999994 
1 0 15.588457268119896 -0.86602540378443871 -0.49999999999999994 
1 0 0 1 0 
1 -1.5e-16 -15.588457268119896 0.86602540378443871 0.49999999999999994 
1 0 -3 1 0 
1 -1.5e-16 -15.588457268119896 0.86602540378443871 0.49999999999999994 
1 0 0 0 -1 
1 15.588457268119894 0 0 -1 
1 -13.5 -7.7942286340599498 0.86602540378443871 -0.49999999999999994 
1 0 -3 1 0 
1 0 0 1 0 
1 -13.5 -7.7942286340599498 0.86602540378443871 -0.49999999999999994 
1 13.5 7.7942286340599498 -0.86602540378443871 0.49999999999999994 
1 13.5 7.7942286340599498 -0.86602540378443871 0.49999999999999994 
1 0 0 1 0 
1 -13.5 -7.7942286340599498 0.86602540378443871 -0.49999999999999994 
1 0 -3 1 0 
1 -13.5 -7.7942286340599498 0.86602540378443871 -0.49999999999999994 
1 0 0 0 -1 
1 15.588457268119905 0 0 -1 
1 -13.499999999999996 7.7942286340599551 -2.2999999999999999e-16 -1 
1 0 -3 1 0 
1 0 0 1 0 
1 -13.499999999999996 7.7942286340599551 -2.2999999999999999e-16 -1 
1 13.499999999999996 -7.7942286340599551 2.2999999999999999e-16 1 
1 13.499999999999996 -7.7942286340599551 2.2999999999999999e-16 1 
1 0 10 1 0 
1 0 0 0 1 
1 0 0 1 0 
1 0 0 0 1 
2 0 5 1 0 -0 1 12
1 0 5 1 0 
2 0 5 1 0 -0 1 12
1 0 5 1 0 
1 7.2499999999999964 0 0 1 
1 0 10 1 0 
1 -5 10.908712114635714 1 0 
1 0.42977543130452772 0 0 1 
1 0 0 1 0 
1 7.2499999999999964 0 0 1 
2 0 5 1 0 -0 1 12
1 0 12.249999999999996 1 0 
2 0 5 1 0 -0 1 12
1 0 12.249999999999996 1 0 
2 0 0 1 0 -0 1 12
1 0 20.249999999999996 1 0 
1 -5 10.908712114635714 1 0 
1 5.8534098758750588 0 0 1 
1 6.2831853071795862 -0 0 1 
1 0 -0 0 1 
1 0 9.9999999999999982 1 0 
1 0 0 0 1 
1 0 0 1 0 
1 0 0 0 1 
2 0 4.9999999999999991 -0.49999999999999989 -0.86602540378443882 0.86602540378443882 -0.49999999999999989 11.999999999999998
1 0 5 1 0 
1 7.2499999999999964 0 0 1 
1 0 0 1 0 
1 -4.9999999999999929 10.908712114635716 1 0 
1 1.6646196710886676 0 0 1 
1 7.2499999999999964 0 0 1 
1 0 9.9999999999999982 1 0 
1 -4.9999999999999929 10.908712114635716 1 0 
1 2.5241705336977232 0 0 1 
2 0 4.9999999999999991 -0.49999999999999989 -0.86602540378443882 0.86602540378443882 -0.49999999999999989 11.999999999999998
1 0 12.249999999999996 1 0 
1 0 10 1 0 
1 0 0 0 1 
1 0 0 1 0 
1 0 0 0 1 
2 0 5 -0.50000000000000033 0.86602540378443849 -0.86602540378443849 -0.50000000000000033 12.000000000000005
1 0 5 1 0 
1 7.2499999999999964 0 0 1 
1 0 0 1 0 
1 -5.0000000000000213 10.908712114635721 1 0 
1 3.7590147734818626 0 0 1 
1 7.2499999999999964 0 0 1 
1 0 10 1 0 
1 -5.0000000000000213 10.908712114635719 1 0 
1 4.618565636090918 0 0 1 
2 0 5 -0.50000000000000033 0.86602540378443849 -0.86602540378443849 -0.50000000000000033 12.000000000000005
1 0 12.249999999999996 1 0 
2 -1.5e-16 -1.5e-16 -1 0 -0 -1 14
2 0 0 1 0 -0 1 14
2 0 0 1 0 -0 1 14
2 -1.5e-16 -1.5e-16 -1 0 -0 -1 14
2 0 0 1 0 -0 1 14
2 -1.5e-16 -1.5e-16 -1 0 -0 -1 14
2 0 0 1 0 -0 1 14
2 -1.5e-16 -1.5e-16 -1 0 -0 -1 14
2 0 0 1 0 -0 1 14
2 -1.5e-16 -1.5e-16 -1 0 -0 -1 14
2 0 0 1 0 -0 1 14
2 -1.5e-16 -1.5e-16 -1 0 -0 -1 14
2 0 0 1 0 -0 1 12
2 -1.5e-16 -1.5e-16 -1 0 -0 -1 12
1 0 3.9999999999999929 1 0 
2 -1.5e-16 -1.5e-16 -1 0 -0 -1 12
1 6.2831853071795862 -0 0 1 
1 0 -0 0 1 
1 6.2831853071795862 -0 0 1 
1 0 -0 0 1 
2 -1.5e-16 -1.5e-16 -1 0 -0 -1 2.6000000000000001
1 0 0.99999999999999289 1 0 
2 -1.5e-16 -1.5e-16 -1 0 -0 -1 2.6000000000000001
1 0 3.9999999999999929 1 0 
1 6.2831853071795862 -0 0 1 
1 0 -0 0 1 
Curves 121
1 13.499999999999993 -3.7080992435478612 -42.376199999999997 0 0 1 
2 0 0 -39.376200000000004 0 0 1 1 0 -0 -0 1 0 14
1 9.9613081446662797 -9.8372933293160099 -42.376199999999997 0 0 1 
2 0 0 -42.376199999999997 0 0 1 1 0 -0 -0 1 0 14
1 3.5386918553337137 -13.545392572863838 -42.376199999999997 0 0 1 
2 0 0 -39.376200000000004 0 0 1 1 0 -0 -0 1 0 14
1 -3.5386918553337341 -13.545392572863836 -42.376199999999997 0 0 1 
2 0 0 -42.376199999999997 0 0 1 1 0 -0 -0 1 0 14
1 -9.9613081446662779 -9.8372933293160116 -42.376199999999997 0 0 1 
2 0 0 -39.376200000000004 0 0 1 1 0 -0 -0 1 0 14
1 -13.500000000000007 -3.7080992435478035 -42.376199999999997 0 0 1 
2 0 0 -42.376199999999997 0 0 1 1 0 -0 -0 1 0 14
1 -13.500000000000007 3.7080992435478062 -42.376199999999997 0 0 1 
2 0 0 -39.376200000000004 0 0 1 1 0 -0 -0 1 0 14
1 -9.9613081446662726 9.8372933293160152 -42.376199999999997 0 0 1 
2 0 0 -42.376199999999997 0 0 1 1 0 -0 -0 1 0 14
1 -3.5386918553337283 13.545392572863836 -42.376199999999997 0 0 1 
2 0 0 -39.376200000000004 0 0 1 1 0 -0 -0 1 0 14
1 3.5386918553337092 13.54539257286384 -42.376199999999997 0 0 1 
2 0 0 -42.376199999999997 0 0 1 1 0 -0 -0 1 0 14
1 9.9613081446662868 9.837293329316001 -42.376199999999997 0 0 1 
2 0 0 -39.376200000000004 0 0 1 1 0 -0 -0 1 0 14
1 13.499999999999993 3.708099243547855 -42.376199999999997 0 0 1 
2 0 0 -42.376199999999997 0 0 1 1 0 -0 -0 1 0 14
1 14 -3.4300000000000001e-15 -42.376199999999997 0 0 1 
2 0 0 -38.376199999999997 0 0 1 1 0 -0 -0 1 0 14
1 13.076696830622021 5 -42.376199999999997 0 0 1 
2 0 0 -31.126200000000001 0 0 1 1 0 -0 -0 1 0 14
1 14 -3.4300000000000001e-15 -42.376199999999997 0 0 1 
2 0 0 -23.126200000000001 0 0 1 1 0 -0 -0 1 0 14
2 0 0 -31.126200000000001 0 0 1 1 0 -0 -0 1 0 14
1 13.076696830622021 -5 -42.376199999999997 0 0 1 
2 0 0 -38.376199999999997 0 0 1 1 0 -0 -0 1 0 14
2 0 0 -42.376199999999997 0 0 1 1 0 -0 -0 1 0 14
7 0 0  6 92 19  9.0000000000000018 10.723805294763608 -40.12619999999999  9.0414792926043361 10.688993618947253 -40.12619999999999  9.0828184315246521 10.653971339118725 -40.128952848570883  9.1238219571970074 10.618902106169669 -40.134423694711209  9.1642993303615778 10.583955392228576 -40.142567038909213  9.2040649320626446 10.549306490660774 -40.153326733142741  9.2981894769197542 10.466569824612369 -40.1855527677967  9.3516631470863274 10.418948377906517 -40.209628911804081  9.4028478547781127 10.372782544923512 -40.238684733625909  9.4512507190650759 10.328605984400165 -40.272506991995762  9.4963869870009301 10.286973801411426 -40.310846462337267  9.5560295959939925 10.231467175327566 -40.372198694928315  9.5735571019805157 10.21508219314447 -40.391803857223096  9.5903052101607908 10.199360289876829 -40.412200099915545  9.606228537705606 10.18435467828057 -40.433354046947002  9.6212834499219699 10.170117251385738 -40.455229848614131  9.648364821141465 10.144425772797591 -40.498422107425682  9.6605403272230408 10.13283750354285 -40.519627337080792  9.6719181834793719 10.121976614862065 -40.54136863177888  9.6824650008223028 10.111882722790357 -40.563607766714476  9.6921503960940019 10.102592219268159 -40.586304531031892  9.7169638476220062 10.078745312135162 -40.651499451498871  9.7300417364077845 10.066118036260486 -40.694980523952871  9.7399838756720722 10.05648617477395 -40.739539298390092  9.7466591707326486 10.050007653051114 -40.784833006354241  9.75 10.046765648705062 -40.83050616760616  9.75 10.046765648705062 -40.907843512511917  9.7483978835235305 10.048320423609633 -40.93948352536723  9.7451943982694065 10.051429332532491 -40.970997780290489  9.7404056471905047 10.056072860012122 -41.002264543595096  9.7340633534906633 10.062212961775037 -41.033164204315405  9.7165849088028651 10.079095047252341 -41.100903834012904  9.7046899857804174 10.090562735813947 -41.137488929235168  9.6906112964550548 10.104099651310909 -41.173160880376308  9.6744490360819384 10.119584073774917 -41.20775300454283  9.6563241240142013 10.136871328270978 -41.241109718409973  9.6129638450831205 10.178013954786538 -41.310634439704842  9.5870368357164875 10.202491834586754 -41.346286315535515  9.5587889936518096 10.229000364059809 -41.379879209077849  9.5284173391017948 10.2573035553556 -41.411264106062205  9.4961281908263189 10.287160737858969 -41.440309136492665  9.429544147496733 10.348219804146717 -41.492401775561781  9.3953732139792994 10.379327862646603 -41.515656175179522  9.3597953301252197 10.411460332902619 -41.536577185712822  9.3229790159852346 10.444430414656955 -41.555086794059321  9.2850946916784753 10.478057249648943 -41.571114800145139  9.1784386537882465 10.571870025779292 -41.608200050811305  9.1077416354177512 10.633121031189182 -41.624033619227198  9.0352316398954198 10.694912336495502 -41.631698640821533  8.9619681109915668 10.756281156192419 -41.63092930545286  8.8890581825359707 10.816334710779437 -41.621593480115308  8.7750537638781871 10.908778065364729 -41.593017696065608  8.7330132723578267 10.942535813883643 -41.579299070240985  8.6918173552300875 10.975297680480233 -41.562556875127306  8.6517523868580657 11.00686661043826 -41.542846937461512  8.6130975915229477 11.037062038959712 -41.520261759825082  8.5392802206855887 11.094271753136319 -41.469690927629074  8.5041114594710194 11.12129255860699 -41.441729781158216  8.4708924814926547 11.146609469305604 -41.411185083445801  8.439881826521896 11.170072487806991 -41.378235712226918  8.4113120444000238 11.191553873486052 -41.343097675113512  8.3644745251043471 11.226586644189183 -41.276123066918302  8.3452838210193523 11.240867613108165 -41.244965362979144  8.3279133409377764 11.253737125415832 -41.212676272862254  8.3124512040448977 11.26515104541744 -41.179395169102953  8.2989699684633145 11.275074239759425 -41.145271506568911  8.2752128694072464 11.292523426243951 -41.073018103273604  8.2652566999737864 11.299811224046914 -41.034778914580102  8.2577233157744434 11.305312687737148 -40.995935934179165  8.2526580970099239 11.309007234549952 -40.956685553986404  8.250084181390319 11.310884625457492 -40.917228681626156  8.2499173462197177 11.311006312058566 -40.837470435875495  8.2524314272307482 11.309172560476583 -40.797164011804995  8.2575447738807473 11.305443177040194 -40.757066356049044  8.2652331700549908 11.299828865060617 -40.71739153728857  8.2754482036765307 11.292351578612262 -40.678348738490605  8.2993557748673705 11.274789938017811 -40.606251078757715  8.3125250287636927 11.265095592141202 -40.573016975977794  8.3275742855416031 11.253986222179838 -40.540583992930067  8.3444364452340061 11.241494332731156 -40.509090369556866  8.3630303685263243 11.227660540147886 -40.478665278752402  8.4157290446118225 11.188259381333298 -40.402509301329708  8.4524119620931852 11.160656841445372 -40.358652035398983  8.4929115226000107 11.129937464791256 -40.31836032382629  8.5367477330057664 11.096366317563295 -40.282051052051798  8.5833802566696082 11.06026370065733 -40.250045427993498  8.688924812336376 10.977603187312445 -40.19066056185553  8.7485686676079197 10.930326910797577 -40.164871747944211  8.8103366841046338 10.88070093832132 -40.145464472615615  8.8733880809857411 10.829305467457127 -40.132574384706821  8.9368828702804723 10.776776619014818 -40.12619999999999  9.0000000000000018 10.723805294763608 -40.12619999999999 
 0 7 0.054170493712580772 5 0.1311644536305428 5 0.16513728747757425 5 0.19620908216748215 5 0.25278465400377426 5 0.29196389814861112 5 0.34003903335132879 5 0.39648175189728102 5 0.45061160349329321 5 0.54536078721944181 5 0.60187991245088068 5 0.65819007716996092 5 0.70359854832916191 5 0.75244773120535546 5 0.80233495264277588 5 0.8465822866430498 5 0.91758730671559718 5 1 7
7 0 0  6 92 19  9 -10.723805294763608 -40.12619999999999  9.0414792989067578 -10.688993613657919 -40.12619999999999  9.0828184300236323 -10.653971340504761 -40.128952847486083  9.1238219510500027 -10.618902111447385 -40.134423693692305  9.1642993285564938 -10.583955393681437 -40.14256703944654  9.2040649379849828 -10.549306485454968 -40.153326735170403  9.2981894769197577 -10.466569824612369 -40.1855527677967  9.3516631470863185 -10.418948377906515 -40.209628911804081  9.4028478547781056 -10.372782544923515 -40.238684733625909  9.4512507190650776 -10.328605984400172 -40.272506991995755  9.4963869870009301 -10.286973801411426 -40.310846462337274  9.5560295981475374 -10.231467173323361 -40.372198697143595  9.5735571016931562 -10.21508219342809 -40.39180385642922  9.5903052082774938 -10.199360291645055 -40.412200097505995  9.6062285369912335 -10.18435467893824 -40.433354046447619  9.6212834515417445 -10.170117249849092 -40.455229851197522  9.648364819492615 -10.144425774361819 -40.498422104795928  9.6605403273725692 -10.132837503393374 -40.519627337935226  9.6719181848557536 -10.121976613548993 -40.541368634555369  9.6824650014059106 -10.11188272224002 -40.563607767347484  9.6921503949877561 -10.102592220331315 -40.586304528125332  9.7169638476220026 -10.078745312135167 -40.651499451498857  9.7300417364077738 -10.066118036260486 -40.694980523952879  9.7399838756720722 -10.05648617477395 -40.739539298390106  9.7466591707326558 -10.050007653051116 -40.784833006354255  9.7499999999999982 -10.046765648705064 -40.830506167606138  9.7499999999999982 -10.046765648705064 -40.907843512511946  9.748397883523527 -10.048320423609635 -40.93948352536723  9.7451943982694083 -10.051429332532491 -40.970997780290453  9.7404056471905083 -10.056072860012128 -41.002264543595082  9.7340633534906562 -10.062212961775046 -41.033164204315447  9.7165849088028775 -10.079095047252325 -41.100903834012854  9.7046899857804156 -10.090562735813958 -41.137488929235182  9.6906112964550335 -10.10409965131093 -41.173160880376351  9.674449036081926 -10.119584073774918 -41.207753004542852  9.6563241240142297 -10.136871328270955 -41.241109718409923  9.6129638450783599 -10.178013954791062 -41.310634439712466  9.5870368357170204 -10.20249183458616 -41.346286315532389  9.5587889936578208 -10.229000364054215 -41.379879209071191  9.5284173391044629 -10.257303555353216 -41.411264106061758  9.4961281908190411 -10.287160737865642 -41.440309136498357  9.4295441474967259 -10.34821980414673 -41.492401775561781  9.3953732139793118 -10.379327862646596 -41.515656175179515  9.3597953301252179 -10.411460332902619 -41.536577185712822  9.3229790159852204 -10.444430414656969 -41.555086794059328  9.2850946916784789 -10.478057249648943 -41.571114800145132  9.1784386537950819 -10.571870025773283 -41.608200050808925  9.1077416354160476 -10.633121031190873 -41.624033619229508  9.0352316398881527 -10.694912336501643 -41.631698640821838  8.9619681109898934 -10.756281156193582 -41.630929305450742  8.8890581825429393 -10.816334710773788 -41.621593480117056  8.7750537638781747 -10.908778065364741 -41.593017696065608  8.7330132723578657 -10.942535813883618 -41.579299070240992  8.6918173552301052 -10.975297680480219 -41.562556875127314  8.6517523868580426 -11.006866610438275 -41.542846937461512  8.6130975915229424 -11.037062038959723 -41.520261759825082  8.5392802206855958 -11.094271753136319 -41.469690927629074  8.5041114594709786 -11.121292558607015 -41.44172978115818  8.4708924814926387 -11.146609469305616 -41.411185083445787  8.4398818265219173 -11.170072487806976 -41.378235712226939  8.4113120444000291 -11.191553873486049 -41.343097675113533  8.3644745251043542 -11.226586644189178 -41.276123066918302  8.3452838210193452 -11.240867613108172 -41.24496536297913  8.3279133409377764 -11.253737125415833 -41.212676272862261  8.3124512040448995 -11.265151045417438 -41.179395169102953  8.2989699684632985 -11.275074239759434 -41.145271506568868  8.27521286940725 -11.292523426243946 -41.073018103273625  8.2652566999737687 -11.299811224046932 -41.034778914580009  8.2577233157744399 -11.305312687737155 -40.995935934179158  8.2526580970099399 -11.309007234549945 -40.956685553986482  8.2500841813903154 -11.310884625457492 -40.917228681626149  8.249917346219716 -11.311006312058566 -40.837470435875495  8.2524314272307517 -11.309172560476588 -40.797164011804995  8.2575447738807508 -11.305443177040194 -40.75706635604903  8.2652331700549908 -11.29982886506061 -40.717391537288563  8.2754482036765307 -11.292351578612267 -40.678348738490612  8.2993557742169362 -11.2747899384956 -40.606251080719197  8.3125250287511907 -11.26509559215688 -40.573016975281242  8.3275742864850653 -11.253986221479144 -40.540583991049886  8.3444364457470233 -11.241494332344123 -40.509090369249726  8.363030367283173 -11.227660541077347 -40.478665280548903  8.4157290446118314 -11.188259381333287 -40.402509301329687  8.4524119620931391 -11.160656841445414 -40.358652035399025  8.4929115226000018 -11.129937464791267 -40.318360323826312  8.5367477330057984 -11.096366317563271 -40.282051052051777  8.583380256669594 -11.060263700657339 -40.250045427993506  8.6889248123364009 -10.977603187312424 -40.190660561855516  8.7485686676079109 -10.930326910797589 -40.164871747944225  8.8103366841046409 -10.88070093832132 -40.145464472615608  8.8733880809857624 -10.829305467457111 -40.1325743847068  8.9368828702804457 -10.776776619014839 -40.12619999999999  9 -10.723805294763608 -40.12619999999999 
 0 7 0.054170487538395692 5 0.1311644504109003 5 0.16513728956833434 5 0.19620908871314091 5 0.25278466154603396 5 0.29196390638104552 5 0.34003904243064903 5 0.39648176198226215 5 0.45061161455431248 5 0.5453607999793586 5 0.60187992621870245 5 0.65819009194195266 5 0.70359856391089015 5 0.75244774765820821 5 0.80233496998527332 5 0.84658230221358755 5 0.91758731507974156 5 1 7
2 0 0 -38.376199999999997 0 0 1 1 0 -0 -0 1 0 14
1 -2.2082213963888142 13.824751652906127 -42.376199999999997 0 0 1 
1 -10.868475434233204 8.8247516529061265 -42.376199999999997 0 0 1 
2 0 0 -31.126200000000001 0 0 1 1 0 -0 -0 1 0 14
2 0 0 -38.376199999999997 0 0 1 1 0 -0 -0 1 0 14
1 -10.868475434233208 -8.8247516529061194 -42.376199999999997 0 0 1 
1 -2.2082213963888249 -13.824751652906123 -42.376199999999997 0 0 1 
2 0 0 -31.126200000000001 0 0 1 1 0 -0 -0 1 0 14
1 -42.376199999999997 -7.7942286340599551 -13.499999999999996 0 1 -2.2999999999999999e-16 
1 -42.376199999999997 -7.7942286340599551 -13.499999999999996 0 1 -2.2999999999999999e-16 
1 -42.376199999999997 -7.7942286340599551 -13.499999999999996 1 0 0 
1 -42.376199999999997 -15.588457268119896 1.9099999999999999e-15 0 0.49999999999999972 -0.86602540378443882 
1 -42.376199999999997 -15.588457268119896 1.9099999999999999e-15 0 0.49999999999999972 -0.86602540378443882 
1 -42.376199999999997 -15.588457268119896 1.9099999999999999e-15 0 0.49999999999999972 -0.86602540378443882 
1 -42.376199999999997 -15.588457268119896 1.9099999999999999e-15 0 0.49999999999999972 -0.86602540378443882 
1 -42.376199999999997 -15.588457268119896 1.9099999999999999e-15 0 0.49999999999999972 -0.86602540378443882 
1 -42.376199999999997 -15.588457268119896 1.9099999999999999e-15 1 0 0 
1 -42.376199999999997 -7.7942286340599445 13.500000000000002 0 -0.50000000000000033 -0.8660254037844386 
1 -42.376199999999997 -7.7942286340599445 13.500000000000002 0 -0.50000000000000033 -0.8660254037844386 
1 -42.376199999999997 -7.7942286340599445 13.500000000000002 0 -0.50000000000000033 -0.8660254037844386 
1 -42.376199999999997 -7.7942286340599445 13.500000000000002 0 -0.50000000000000033 -0.8660254037844386 
1 -42.376199999999997 -7.7942286340599445 13.500000000000002 0 -0.50000000000000033 -0.8660254037844386 
1 -42.376199999999997 -7.7942286340599445 13.500000000000002 1 0 0 
1 -42.376199999999997 7.7942286340599498 13.5 0 -1 1.1e-16 
1 -42.376199999999997 7.7942286340599498 13.5 0 -1 1.1e-16 
1 -42.376199999999997 7.7942286340599498 13.5 0 -1 1.1e-16 
1 -42.376199999999997 7.7942286340599498 13.5 0 -1 1.1e-16 
1 -42.376199999999997 7.7942286340599498 13.5 0 -1 1.1e-16 
1 -42.376199999999997 7.7942286340599498 13.5 1 0 0 
1 -42.376199999999997 15.588457268119896 0 0 -0.49999999999999994 0.86602540378443871 
1 -42.376199999999997 15.588457268119896 0 0 -0.49999999999999994 0.86602540378443871 
1 -42.376199999999997 15.588457268119896 0 0 -0.49999999999999994 0.86602540378443871 
1 -42.376199999999997 15.588457268119896 0 0 -0.49999999999999994 0.86602540378443871 
1 -42.376199999999997 15.588457268119896 0 0 -0.49999999999999994 0.86602540378443871 
1 -42.376199999999997 15.588457268119896 0 1 0 0 
1 -42.376199999999997 7.7942286340599498 -13.5 0 0.49999999999999994 0.86602540378443871 
1 -42.376199999999997 7.7942286340599498 -13.5 0 0.49999999999999994 0.86602540378443871 
1 -42.376199999999997 7.7942286340599498 -13.5 0 0.49999999999999994 0.86602540378443871 
1 -42.376199999999997 7.7942286340599498 -13.5 0 0.49999999999999994 0.86602540378443871 
1 -42.376199999999997 7.7942286340599498 -13.5 0 0.49999999999999994 0.86602540378443871 
1 -42.376199999999997 7.7942286340599498 -13.5 1 0 0 
1 -42.376199999999997 -7.7942286340599551 -13.499999999999996 0 1 -2.2999999999999999e-16 
1 -42.376199999999997 -7.7942286340599551 -13.499999999999996 0 1 -2.2999999999999999e-16 
1 -42.376199999999997 -7.7942286340599551 -13.499999999999996 0 1 -2.2999999999999999e-16 
1 0 5 -38.376199999999997 1 0 0 
1 0 -5 -38.376199999999997 1 0 0 
2 0 0 -38.376199999999997 0 0 1 1 0 -0 -0 1 0 12
2 0 0 -38.376199999999997 0 0 1 1 0 -0 -0 1 0 12
1 0 5 -31.126200000000001 1 0 0 
1 10.908712114635714 5 -43.376199999999997 0 0 1 
1 0 -5 -31.126200000000001 1 0 0 
2 0 0 -31.126200000000001 0 0 1 1 0 -0 -0 1 0 12
2 0 0 -31.126200000000001 0 0 1 1 0 -0 -0 1 0 12
2 0 0 -23.126200000000001 0 0 1 1 0 -0 -0 1 0 12
1 10.908712114635714 -5 -43.376199999999997 0 0 1 
1 9 -20 -40.126199999999997 0 1 0 
1 0 4.9999999999999991 -38.376199999999997 1 0 0 
1 0 -4.9999999999999991 -38.376199999999997 1 0 0 
2 0 0 -38.376199999999997 0 0 1 1 0 -0 -0 1 0 12
1 0 -4.9999999999999991 -31.126200000000001 1 0 0 
1 -1.1242290383956606 11.947221813845594 -43.376199999999997 0 0 1 
1 0 4.9999999999999991 -31.126200000000001 1 0 0 
1 -9.7844830762400505 6.9472218138455952 -43.376199999999997 0 0 1 
2 0 0 -31.126200000000001 0 0 1 1 0 -0 -0 1 0 12
1 0 5 -38.376199999999997 1 0 0 
1 0 -5 -38.376199999999997 1 0 0 
2 0 0 -38.376199999999997 0 0 1 1 0 -0 -0 1 0 12
1 0 -5 -31.126200000000001 1 0 0 
1 -9.7844830762400541 -6.9472218138455872 -43.376199999999997 0 0 1 
1 0 5 -31.126200000000001 1 0 0 
1 -1.1242290383956695 -11.947221813845591 -43.376199999999997 0 0 1 
2 0 0 -31.126200000000001 0 0 1 1 0 -0 -0 1 0 12
2 0 0 -42.376199999999997 0 0 1 1 0 -0 -0 1 0 14
2 0 0 -42.376199999999997 0 0 1 1 0 -0 -0 1 0 14
2 0 0 -42.376199999999997 0 0 1 1 0 -0 -0 1 0 14
2 0 0 -42.376199999999997 0 0 1 1 0 -0 -0 1 0 14
2 0 0 -42.376199999999997 0 0 1 1 0 -0 -0 1 0 14
2 0 0 -42.376199999999997 0 0 1 1 0 -0 -0 1 0 14
2 0 0 -42.376199999999997 0 0 1 1 0 -0 -0 1 0 12
2 0 0 -39.376200000000004 0 0 1 1 0 -0 -0 1 0 12
1 12 -2.94e-15 -43.376199999999997 0 0 1 
1 12 -2.94e-15 -43.376199999999997 0 0 1 
2 0 0 -42.376200000000004 0 0 1 1 0 -0 -0 1 0 2.6000000000000001
2 0 0 -39.376200000000004 0 0 1 1 0 -0 -0 1 0 2.6000000000000001
1 2.6000000000000001 -6.4000000000000005e-16 -43.376199999999997 0 0 1 
Polygon3D 0
PolygonOnTriangulations 0
Surfaces 50
2 0 0 -42.376199999999997 0 0 1 1 0 -0 -0 1 0 14
1 -42.376199999999997 -7.7942286340599551 -13.499999999999996 0 2.2999999999999999e-16 1 0 1 -2.2999999999999999e-16 -1 0 0 
1 -42.376200000000004 -1.5e-16 1.5e-16 1 0 0 0 0 1 0 -1 0 
1 -42.376199999999997 -15.588457268119896 1.9099999999999999e-15 0 0.86602540378443882 0.49999999999999972 0 0.49999999999999972 -0.86602540378443882 -1 0 0 
1 0 0 -42.376199999999997 0 0 1 1 0 -0 -0 1 0 
1 -42.376199999999997 -15.588457268119896 1.9099999999999999e-15 0 0.86602540378443882 0.49999999999999972 0 0.49999999999999972 -0.86602540378443882 -1 0 0 
1 -42.376200000000004 -1.5e-16 1.5e-16 1 0 0 0 0 1 0 -1 0 
1 -42.376199999999997 -7.7942286340599445 13.500000000000002 0 0.8660254037844386 -0.50000000000000033 0 -0.50000000000000022 -0.86602540378443849 -1 0 -0 
1 0 0 -42.376199999999997 0 0 1 1 0 -0 -0 1 0 
1 -42.376199999999997 -7.7942286340599445 13.500000000000002 0 0.8660254037844386 -0.50000000000000033 0 -0.50000000000000022 -0.86602540378443849 -1 0 -0 
1 -42.376200000000004 -1.5e-16 1.5e-16 1 0 0 0 0 1 0 -1 0 
1 -42.376199999999997 7.7942286340599498 13.5 0 -1.1e-16 -1 0 -1 1.1e-16 -1 -0 0 
1 0 0 -42.376199999999997 0 0 1 1 0 -0 -0 1 0 
1 -42.376199999999997 7.7942286340599498 13.5 0 -1.1e-16 -1 0 -1 1.1e-16 -1 -0 0 
1 -42.376200000000004 -1.5e-16 1.5e-16 1 0 0 0 0 1 0 -1 0 
1 -42.376199999999997 15.588457268119896 0 0 -0.86602540378443871 -0.49999999999999994 0 -0.49999999999999994 0.86602540378443871 -1 -0 0 
1 0 0 -42.376199999999997 0 0 1 1 0 -0 -0 1 0 
1 -42.376199999999997 15.588457268119896 0 0 -0.86602540378443871 -0.49999999999999994 0 -0.49999999999999994 0.86602540378443871 -1 -0 0 
1 -42.376200000000004 -1.5e-16 1.5e-16 1 0 0 0 0 1 0 -1 0 
1 -42.376199999999997 7.7942286340599498 -13.5 0 -0.86602540378443871 0.49999999999999994 0 0.49999999999999994 0.86602540378443871 -1 0 0 
1 0 0 -42.376199999999997 0 0 1 1 0 -0 -0 1 0 
1 -42.376199999999997 7.7942286340599498 -13.5 0 -0.86602540378443871 0.49999999999999994 0 0.49999999999999994 0.86602540378443871 -1 0 0 
1 -42.376200000000004 -1.5e-16 1.5e-16 1 0 0 0 0 1 0 -1 0 
1 -42.376199999999997 -7.7942286340599551 -13.499999999999996 0 2.2999999999999999e-16 1 0 1 -2.2999999999999999e-16 -1 0 0 
1 0 0 -42.376199999999997 0 0 1 1 0 -0 -0 1 0 
1 0 -5 -38.376199999999997 0 0 1 1 0 -0 -0 1 0 
1 0 5 -38.376199999999997 0 1 0 0 -0 1 1 0 -0 
1 0 -5 -31.126200000000001 0 0 1 1 0 -0 -0 1 0 
1 0 0 -23.126200000000001 0 0 1 1 0 -0 -0 1 0 
1 0 -5 -38.376199999999997 0 1 0 0 -0 1 1 0 -0 
2 9 -20 -40.876199999999997 0 1 0 0 -0 1 1 0 -0 0.75
1 0 -4.9999999999999991 -38.376199999999997 0 0 1 1 0 -0 -0 1 0 
1 0 -4.9999999999999991 -38.376199999999997 0 1 0 0 -0 1 1 0 -0 
1 0 4.9999999999999991 -38.376199999999997 0 1 0 0 -0 1 1 0 -0 
1 0 -4.9999999999999991 -31.126200000000001 0 0 1 1 0 -0 -0 1 0 
1 0 -5 -38.376199999999997 0 0 1 1 0 -0 -0 1 0 
1 0 -5 -38.376199999999997 0 1 0 0 -0 1 1 0 -0 
1 0 5 -38.376199999999997 0 1 0 0 -0 1 1 0 -0 
1 0 -5 -31.126200000000001 0 0 1 1 0 -0 -0 1 0 
1 -42.376200000000004 -1.5e-16 1.5e-16 1 0 0 0 0 1 0 -1 0 
1 0 0 -42.376199999999997 0 0 1 1 0 -0 -0 1 0 
1 -42.376200000000004 -1.5e-16 1.5e-16 1 0 0 0 0 1 0 -1 0 
1 -42.376200000000004 -1.5e-16 1.5e-16 1 0 0 0 0 1 0 -1 0 
1 -42.376200000000004 -1.5e-16 1.5e-16 1 0 0 0 0 1 0 -1 0 
1 -42.376200000000004 -1.5e-16 1.5e-16 1 0 0 0 0 1 0 -1 0 
1 -42.376200000000004 -1.5e-16 1.5e-16 1 0 0 0 0 1 0 -1 0 
2 0 0 -43.376199999999997 0 0 1 1 0 -0 -0 1 0 12
1 -42.376200000000004 -1.5e-16 1.5e-16 1 0 0 0 0 1 0 -1 0 
1 -42.376200000000004 -1.5e-16 1.5e-16 1 0 0 0 0 1 0 -1 0 
2 0 0 -43.376199999999997 0 0 1 1 0 -0 -0 1 0 2.6000000000000001
Triangulations 0

TShapes 306
Ve
1.00000824e-07
13.5000000000001 -3.70809924354705 -42.3762
0 0

0101101
*
Ve
1.00000007e-07
13.5 -3.70809924354786 -39.3762
0 0

0101101
*
Ed
 1e-07 1 1 0
1  1 0 0 3
2  1 1 0 0 3
2  2 2 2 0 3
0

0101000
+306 4 -305 4 *
Ve
1.0000001e-07
9.96130814466628 -9.83729332931601 -39.3762
0 0

0101101
*
Ed
 1e-07 1 1 0
1  2 0 5.50405087880543 6.01512218435715
2  3 1 0 5.50405087880543 6.01512218435715
2  4 3 6 5.50405087880543 6.01512218435715
0

0101000
+303 4 -305 4 *
Ve
1.00000527e-07
9.9613081446667 -9.83729332931569 -42.3762
0 0

0101101
*
Ed
 1e-07 1 1 0
1  3 0 0 3
2  5 1 0 0 3
2  6 4 2 0 3
0

0101000
+301 4 -303 4 *
Ve
1.00000247e-07
3.53869185533394 -13.5453925728637 -42.3762
0 0

0101101
*
Ed
 1e-07 1 1 0
1  4 0 4.96792463316057 5.50405087880546
2  7 1 0 4.96792463316057 5.50405087880546
2  8 5 0 4.96792463316057 5.50405087880546
0

0101000
+299 4 -301 4 *
Ve
1.00000008e-07
3.53869185533371 -13.5453925728638 -39.3762
0 0

0101101
*
Ed
 1e-07 1 1 0
1  5 0 0 3
2  9 1 0 0 3
2  10 6 2 0 3
0

0101000
+299 4 -297 4 *
Ve
1.00000008e-07
-3.53869185533373 -13.5453925728638 -39.3762
0 0

0101101
*
Ed
 1e-07 1 1 0
1  6 0 4.45685332760883 4.96792463316055
2  11 1 0 4.45685332760883 4.96792463316055
2  12 7 6 4.45685332760883 4.96792463316055
0

0101000
+295 4 -297 4 *
Ve
1.00000231e-07
-3.53869185533395 -13.5453925728637 -42.3762
0 0

0101101
*
Ed
 1e-07 1 1 0
1  7 0 0 3
2  13 1 0 0 3
2  14 8 2 0 3
0

0101000
+293 4 -295 4 *
Ve
1.00000548e-07
-9.96130814466671 -9.83729332931567 -42.3762
0 0

0101101
*
Ed
 1e-07 1 1 0
1  8 0 3.92072708196391 4.45685332760881
2  15 1 0 3.92072708196391 4.45685332760881
2  16 9 0 3.92072708196391 4.45685332760881
0

0101000
+291 4 -293 4 *
Ve
1.00000009e-07
-9.96130814466628 -9.83729332931601 -39.3762
0 0

0101101
*
Ed
 1e-07 1 1 0
1  9 0 0 3
2  17 1 0 0 3
2  18 10 2 0 3
0

0101000
+291 4 -289 4 *
Ve
1.00000007e-07
-13.5 -3.70809924354781 -39.3762
0 0

0101101
*
Ed
 1e-07 1 1 0
1  10 0 3.40965577641223 3.92072708196395
2  19 1 0 3.40965577641223 3.92072708196395
2  20 11 6 3.40965577641223 3.92072708196395
0

0101000
+287 4 -289 4 *
Ve
1.00000015e-07
-13.5 -3.70809924354782 -42.3762
0 0

0101101
*
Ed
 1e-07 1 1 0
1  11 0 0 3
2  21 1 0 0 3
2  22 12 2 0 3
0

0101000
+285 4 -287 4 *
Ve
1.00000017e-07
-13.5 3.70809924354782 -42.3762
0 0

0101101
*
Ed
 1e-07 1 1 0
1  12 0 2.87352953076736 3.40965577641223
2  23 1 0 2.87352953076736 3.40965577641223
2  24 13 0 2.87352953076736 3.40965577641223
0

0101000
+283 4 -285 4 *
Ve
1.00000007e-07
-13.5 3.70809924354781 -39.3762
0 0

0101101
*
Ed
 1e-07 1 1 0
1  13 0 0 3
2  25 1 0 0 3
2  26 14 2 0 3
0

0101000
+283 4 -281 4 *
Ve
1.00000007e-07
-9.96130814466628 9.83729332931601 -39.3762
0 0

0101101
*
Ed
 1e-07 1 1 0
1  14 0 2.36245822521563 2.87352953076736
2  27 1 0 2.36245822521563 2.87352953076736
2  28 15 6 2.36245822521563 2.87352953076736
0

0101000
+279 4 -281 4 *
Ve
1.00000549e-07
-9.96130814466671 9.83729332931568 -42.3762
0 0

0101101
*
Ed
 1e-07 1 1 0
1  15 0 0 3
2  29 1 0 0 3
2  30 16 2 0 3
0

0101000
+277 4 -279 4 *
Ve
1.00000274e-07
-3.53869185533398 13.5453925728637 -42.3762
0 0

0101101
*
Ed
 1e-07 1 1 0
1  16 0 1.82633197957078 2.36245822521567
2  31 1 0 1.82633197957078 2.36245822521567
2  32 17 0 1.82633197957078 2.36245822521567
0

0101000
+275 4 -277 4 *
Ve
1.00000007e-07
-3.53869185533373 13.5453925728638 -39.3762
0 0

0101101
*
Ed
 1e-07 1 1 0
1  17 0 0 3
2  33 1 0 0 3
2  34 18 2 0 3
0

0101000
+275 4 -273 4 *
Ve
1.00000007e-07
3.53869185533371 13.5453925728638 -39.3762
0 0

0101101
*
Ed
 1e-07 1 1 0
1  18 0 1.31526067401904 1.82633197957076
2  35 1 0 1.31526067401904 1.82633197957076
2  36 19 6 1.31526067401904 1.82633197957076
0

0101000
+271 4 -273 4 *
Ve
1.00000273e-07
3.53869185533396 13.5453925728637 -42.3762
0 0

0101101
*
Ed
 1e-07 1 1 0
1  19 0 0 3
2  37 1 0 0 3
2  38 20 2 0 3
0

0101000
+269 4 -271 4 *
Ve
1.00000509e-07
9.96130814466669 9.83729332931569 -42.3762
0 0

0101101
*
Ed
 1e-07 1 1 0
1  20 0 0.779134428374123 1.31526067401902
2  39 1 0 0.779134428374123 1.31526067401902
2  40 21 0 0.779134428374123 1.31526067401902
0

0101000
+267 4 -269 4 *
Ve
1.00000007e-07
9.96130814466629 9.837293329316 -39.3762
0 0

0101101
*
Ed
 1e-07 1 1 0
1  21 0 0 3
2  41 1 0 0 3
2  42 22 2 0 3
0

0101000
+267 4 -265 4 *
Ve
1.00000007e-07
13.5 3.70809924354785 -39.3762
0 0

0101101
*
Ed
 1e-07 1 1 0
1  22 0 0.26806312282244 0.779134428374159
2  43 1 0 0.26806312282244 0.779134428374159
2  44 23 6 0.26806312282244 0.779134428374159
0

0101000
+263 4 -265 4 *
Ve
1.00000818e-07
13.5000000000001 3.70809924354705 -42.3762
0 0

0101101
*
Ed
 1e-07 1 1 0
1  23 0 0 3
2  45 1 0 0 3
2  46 24 2 0 3
0

0101000
+261 4 -263 4 *
Ve
1e-07
14 -3e-15 -42.3762
0 0

0101101
*
Ed
 1e-07 1 1 0
1  24 0 0 0.268063122822382
2  47 1 0 0 0.268063122822382
2  48 25 0 0 0.268063122822382
0

0101000
+259 4 -261 4 *
Ve
1.00000003e-07
14 -3e-15 -38.3762
0 0

0101101
*
Ed
 1e-07 1 1 0
1  25 0 0 4
3  49 50CN 1 0 0 4
0

0101000
+259 4 -257 4 *
Ve
1e-07
13.076696830622 5 -38.3762
0 0

0101101
*
Ed
 1e-07 1 1 0
1  26 0 0 0.365207221290367
2  51 1 0 0 0.365207221290367
2  52 26 7 0 0.365207221290367
0

0101000
+257 4 -255 4 *
Ve
1e-07
13.076696830622 5 -31.1262
0 0

0101101
*
Ed
 1e-07 1 1 0
1  27 0 4 11.25
2  53 1 0 4 11.25
2  54 27 7 4 11.25
0

0101000
+255 4 -253 4 *
Ve
1.00000003e-07
14 -3e-15 -31.1262
0 0

0101101
*
Ed
 1e-07 1 1 0
1  28 0 0 0.365207221290367
2  55 1 0 0 0.365207221290367
2  56 28 7 0 0.365207221290367
0

0101000
+251 4 -253 4 *
Ve
1e-07
14 -3e-15 -23.1262
0 0

0101101
*
Ed
 1e-07 1 1 0
1  29 0 11.25 19.25
3  57 58CN 1 0 11.25 19.25
0

0101000
+251 4 -249 4 *
Ed
 1e-07 1 1 0
1  30 0 0 6.28318530717959
2  59 1 0 0 6.28318530717959
2  60 29 0 0 6.28318530717959
0

0101000
+249 4 -249 4 *
Ve
1.0000001e-07
13.076696830622 -5 -31.1262
0 0

0101101
*
Ed
 1e-07 1 1 0
1  31 0 5.91797808588922 6.28318530717959
2  61 1 0 5.91797808588922 6.28318530717959
2  62 28 7 5.91797808588922 6.28318530717959
0

0101000
+246 4 -251 4 *
Ve
1.0000001e-07
13.076696830622 -5 -38.3762
0 0

0101101
*
Ed
 1e-07 1 1 0
1  32 0 4 11.25
2  63 1 0 4 11.25
2  64 30 7 4 11.25
0

0101000
+244 4 -246 4 *
Ed
 1e-07 1 1 0
1  33 0 5.91797808588922 6.28318530717959
2  65 1 0 5.91797808588922 6.28318530717959
2  66 26 7 5.91797808588922 6.28318530717959
0

0101000
+244 4 -257 4 *
Ed
 1e-07 1 1 0
1  34 0 6.0151221843572 6.28318530717959
2  67 1 0 6.0151221843572 6.28318530717959
2  68 25 0 6.0151221843572 6.28318530717959
0

0101000
+306 4 -259 4 *
Wi

0101100
-304 0 +302 0 +300 0 +298 0 -296 0 +294 0 +292 0 +290 0 -288 0 +286 0 
+284 0 +282 0 -280 0 +278 0 +276 0 +274 0 -272 0 +270 0 +268 0 +266 0 
-264 0 +262 0 +260 0 +258 0 -256 0 -254 0 -252 0 +250 0 -248 0 -247 0 
+248 0 +245 0 +243 0 -242 0 +256 0 +241 0 *
Ve
1.00000007e-07
9 10.7238052947636 -40.1262
0 0

0101101
*
Ed
 1e-07 1 1 0
1  35 0 0 1
2  69 1 0 0 1
2  70 31 0 0 1
0

0101100
+239 4 -239 4 *
Wi

0101100
-238 0 *
Ve
1.00000007e-07
9 -10.7238052947636 -40.1262
0 0

0101101
*
Ed
 1e-07 1 1 0
1  36 0 0 1
2  71 1 0 0 1
2  72 31 0 0 1
0

0101100
+236 4 -236 4 *
Wi

0101100
+235 0 *
Ve
1.00000004e-07
-2.20822139638881 13.8247516529061 -38.3762
0 0

0101101
*
Ve
1.00000004e-07
-10.8684754342332 8.82475165290613 -38.3762
0 0

0101101
*
Ed
 1e-07 1 1 0
1  37 0 1.72918788110283 2.45960232368356
2  73 1 0 1.72918788110283 2.45960232368356
2  74 32 10 1.72918788110283 2.45960232368356
0

0101000
+233 4 -232 4 *
Ve
1.00000004e-07
-2.20822139638881 13.8247516529061 -31.1262
0 0

0101101
*
Ed
 1e-07 1 1 0
1  38 0 4 11.25
2  75 1 0 4 11.25
2  76 33 10 4 11.25
0

0101000
+233 4 -230 4 *
Ve
1.00000004e-07
-10.8684754342332 8.82475165290613 -31.1262
0 0

0101101
*
Ed
 1e-07 1 1 0
1  39 0 4 11.25
2  77 1 0 4 11.25
2  78 34 10 4 11.25
0

0101000
+232 4 -228 4 *
Ed
 1e-07 1 1 0
1  40 0 1.72918788110283 2.45960232368356
2  79 1 0 1.72918788110283 2.45960232368356
2  80 35 10 1.72918788110283 2.45960232368356
0

0101000
+230 4 -228 4 *
Wi

0101100
-231 0 +229 0 -227 0 +226 0 *
Ve
1.00000011e-07
-10.8684754342332 -8.82475165290612 -38.3762
0 0

0101101
*
Ve
1.00000017e-07
-2.20822139638882 -13.8247516529061 -38.3762
0 0

0101101
*
Ed
 1e-07 1 1 0
1  41 0 3.82358298349602 4.55399742607676
2  81 1 0 3.82358298349602 4.55399742607676
2  82 36 13 3.82358298349602 4.55399742607676
0

0101000
+224 4 -223 4 *
Ve
1.00000011e-07
-10.8684754342332 -8.82475165290612 -31.1262
0 0

0101101
*
Ed
 1e-07 1 1 0
1  42 0 4 11.25
2  83 1 0 4 11.25
2  84 37 13 4 11.25
0

0101000
+224 4 -221 4 *
Ve
1.00000017e-07
-2.20822139638882 -13.8247516529061 -31.1262
0 0

0101101
*
Ed
 1e-07 1 1 0
1  43 0 4 11.25
2  85 1 0 4 11.25
2  86 38 13 4 11.25
0

0101000
+223 4 -219 4 *
Ed
 1e-07 1 1 0
1  44 0 3.82358298349602 4.55399742607676
2  87 1 0 3.82358298349602 4.55399742607676
2  88 39 13 3.82358298349602 4.55399742607676
0

0101000
+221 4 -219 4 *
Wi

0101100
-222 0 +220 0 -218 0 +217 0 *
Fa
0  1e-07 1 0

0111000
+240 0 +237 0 +234 0 +225 0 +216 0 *
Ve
1e-07
13.5 -7.79422863405996 -42.3762
0 0

0101101
*
Ed
 1e-07 1 1 0
1  45 0 0 4.08612939051291
2  89 2 0 0 4.08612939051291
2  90 40 0 0 4.08612939051291
0

0101000
+214 14 -306 14 *
Ve
1e-07
13.5 -7.79422863405996 -39.3762
0 0

0101101
*
Ed
 1e-07 1 1 0
1  46 0 0 4.0861293905121
2  91 2 15 0 4.0861293905121
2  92 3 0 0 4.0861293905121
0

0101000
+212 16 -305 16 *
Ed
 1e-07 1 1 0
1  47 0 0 3
2  93 2 0 0 3
2  94 4 0 0 3
0

0101000
+214 14 -212 14 *
Wi

0101100
-213 2 -304 0 +211 6 +210 2 *
Fa
0  1e-07 2 2

0111000
+209 0 *
Ed
 1e-07 1 1 0
1  48 0 11.5023278776078 15.5884572681199
2  95 3 0 11.5023278776078 15.5884572681199
2  96 4 15 11.5023278776078 15.5884572681199
0

0101000
+303 16 -212 16 *
Wi

0101100
+211 6 +207 6 -302 0 *
Fa
0  1e-07 3 6

0111000
+206 0 *
Ed
 1e-07 1 1 0
1  49 0 11.5023278776083 15.5884572681199
2  97 4 0 11.5023278776083 15.5884572681199
2  98 40 0 11.5023278776083 15.5884572681199
0

0101000
+301 14 -214 14 *
Wi

0101100
-204 2 -210 2 +207 6 +300 0 *
Fa
0  1e-07 4 2

0111000
+203 0 *
Ed
 1e-07 1 1 0
1  50 0 4.08612939051236 11.5023278776083
2  99 5 17 4.08612939051236 11.5023278776083
2  100 41 17 4.08612939051236 11.5023278776083
0

0101000
+299 14 -301 14 *
Wi

0101100
+298 0 -201 2 *
Fa
0  1e-07 5 0

0111000
+200 0 *
Ve
1e-07
-7e-15 -15.5884572681199 -42.3762
0 0

0101101
*
Ed
 1e-07 1 1 0
1  51 0 0 4.08612939051236
2  101 6 0 0 4.08612939051236
2  102 42 0 0 4.08612939051236
0

0101000
+198 14 -299 14 *
Ve
1e-07
-6e-15 -15.5884572681199 -39.3762
0 0

0101101
*
Ed
 1e-07 1 1 0
1  52 0 0 4.08612939051211
2  103 6 15 0 4.08612939051211
2  104 7 0 0 4.08612939051211
0

0101000
+196 16 -297 16 *
Ed
 1e-07 1 1 0
1  53 0 0 3
2  105 6 0 0 3
2  106 8 0 0 3
0

0101000
+198 14 -196 14 *
Wi

0101100
-197 2 -296 0 +195 6 +194 2 *
Fa
0  1e-07 6 2

0111000
+193 0 *
Ed
 1e-07 1 1 0
1  54 0 11.5023278776078 15.5884572681199
2  107 7 0 11.5023278776078 15.5884572681199
2  108 8 15 11.5023278776078 15.5884572681199
0

0101000
+295 16 -196 16 *
Wi

0101100
-294 0 +195 6 +191 6 *
Fa
0  1e-07 7 6

0111000
+190 0 *
Ed
 1e-07 1 1 0
1  55 0 11.5023278776075 15.5884572681199
2  109 8 0 11.5023278776075 15.5884572681199
2  110 42 0 11.5023278776075 15.5884572681199
0

0101000
+293 14 -198 14 *
Wi

0101100
-188 2 -194 2 +191 6 +292 0 *
Fa
0  1e-07 8 2

0111000
+187 0 *
Ed
 1e-07 1 1 0
1  56 0 4.08612939051159 11.5023278776075
2  111 9 17 4.08612939051159 11.5023278776075
2  112 41 17 4.08612939051159 11.5023278776075
0

0101000
+291 14 -293 14 *
Wi

0101100
+290 0 -185 2 *
Fa
0  1e-07 9 0

0111000
+184 0 *
Ve
1e-07
-13.5 -7.79422863405994 -42.3762
0 0

0101101
*
Ed
 1e-07 1 1 0
1  57 0 0 4.08612939051159
2  113 10 0 0 4.08612939051159
2  114 43 0 0 4.08612939051159
0

0101000
+182 14 -291 14 *
Ve
1e-07
-13.5 -7.79422863405994 -39.3762
0 0

0101101
*
Ed
 1e-07 1 1 0
1  58 0 0 4.08612939051213
2  115 10 15 0 4.08612939051213
2  116 11 0 0 4.08612939051213
0

0101000
+180 16 -289 16 *
Ed
 1e-07 1 1 0
1  59 0 0 3
2  117 10 0 0 3
2  118 12 0 0 3
0

0101000
+182 14 -180 14 *
Wi

0101100
-181 2 -288 0 +179 6 +178 2 *
Fa
0  1e-07 10 2

0111000
+177 0 *
Ed
 1e-07 1 1 0
1  60 0 11.5023278776078 15.5884572681199
2  119 11 0 11.5023278776078 15.5884572681199
2  120 12 15 11.5023278776078 15.5884572681199
0

0101000
+287 16 -180 16 *
Wi

0101100
-286 0 +179 6 +175 6 *
Fa
0  1e-07 11 6

0111000
+174 0 *
Ed
 1e-07 1 1 0
1  61 0 11.5023278776078 15.5884572681199
2  121 12 0 11.5023278776078 15.5884572681199
2  122 43 0 11.5023278776078 15.5884572681199
0

0101000
+285 14 -182 14 *
Wi

0101100
-172 2 -178 2 +175 6 +284 0 *
Fa
0  1e-07 12 2

0111000
+171 0 *
Ed
 1e-07 1 1 0
1  62 0 4.08612939051213 11.5023278776078
2  123 13 17 4.08612939051213 11.5023278776078
2  124 41 17 4.08612939051213 11.5023278776078
0

0101000
+283 14 -285 14 *
Wi

0101100
-169 2 +282 0 *
Fa
0  1e-07 13 0

0111000
+168 0 *
Ve
1e-07
-13.5 7.79422863405995 -42.3762
0 0

0101101
*
Ed
 1e-07 1 1 0
1  63 0 0 4.08612939051213
2  125 14 0 0 4.08612939051213
2  126 44 0 0 4.08612939051213
0

0101000
+166 14 -283 14 *
Ve
1e-07
-13.5 7.79422863405995 -39.3762
0 0

0101101
*
Ed
 1e-07 1 1 0
1  64 0 0 4.08612939051214
2  127 14 15 0 4.08612939051214
2  128 15 0 0 4.08612939051214
0

0101000
+164 16 -281 16 *
Ed
 1e-07 1 1 0
1  65 0 0 3
2  129 14 0 0 3
2  130 16 0 0 3
0

0101000
+166 14 -164 14 *
Wi

0101100
-165 2 -280 0 +163 6 +162 2 *
Fa
0  1e-07 14 2

0111000
+161 0 *
Ed
 1e-07 1 1 0
1  66 0 11.5023278776078 15.5884572681199
2  131 15 0 11.5023278776078 15.5884572681199
2  132 16 15 11.5023278776078 15.5884572681199
0

0101000
+279 16 -164 16 *
Wi

0101100
-278 0 +163 6 +159 6 *
Fa
0  1e-07 15 6

0111000
+158 0 *
Ed
 1e-07 1 1 0
1  67 0 11.5023278776083 15.5884572681199
2  133 16 0 11.5023278776083 15.5884572681199
2  134 44 0 11.5023278776083 15.5884572681199
0

0101000
+277 14 -166 14 *
Wi

0101100
-156 2 -162 2 +159 6 +276 0 *
Fa
0  1e-07 16 2

0111000
+155 0 *
Ed
 1e-07 1 1 0
1  68 0 4.08612939051239 11.5023278776083
2  135 17 17 4.08612939051239 11.5023278776083
2  136 41 17 4.08612939051239 11.5023278776083
0

0101000
+275 14 -277 14 *
Wi

0101100
-153 2 +274 0 *
Fa
0  1e-07 17 0

0111000
+152 0 *
Ve
1e-07
-5e-15 15.5884572681199 -42.3762
0 0

0101101
*
Ed
 1e-07 1 1 0
1  69 0 0 4.08612939051239
2  137 18 0 0 4.08612939051239
2  138 45 0 0 4.08612939051239
0

0101000
+150 14 -275 14 *
Ve
1e-07
-4e-15 15.5884572681199 -39.3762
0 0

0101101
*
Ed
 1e-07 1 1 0
1  70 0 0 4.08612939051212
2  139 18 15 0 4.08612939051212
2  140 19 0 0 4.08612939051212
0

0101000
+148 16 -273 16 *
Ed
 1e-07 1 1 0
1  71 0 0 3
2  141 18 0 0 3
2  142 20 0 0 3
0

0101000
+150 14 -148 14 *
Wi

0101100
-149 2 -272 0 +147 6 +146 2 *
Fa
0  1e-07 18 2

0111000
+145 0 *
Ed
 1e-07 1 1 0
1  72 0 11.5023278776078 15.5884572681199
2  143 19 0 11.5023278776078 15.5884572681199
2  144 20 15 11.5023278776078 15.5884572681199
0

0101000
+271 16 -148 16 *
Wi

0101100
+143 6 -270 0 +147 6 *
Fa
0  1e-07 19 6

0111000
+142 0 *
Ed
 1e-07 1 1 0
1  73 0 11.5023278776075 15.5884572681199
2  145 20 0 11.5023278776075 15.5884572681199
2  146 45 0 11.5023278776075 15.5884572681199
0

0101000
+269 14 -150 14 *
Wi

0101100
-140 2 -146 2 +143 6 +268 0 *
Fa
0  1e-07 20 2

0111000
+139 0 *
Ed
 1e-07 1 1 0
1  74 0 4.0861293905116 11.5023278776075
2  147 21 17 4.0861293905116 11.5023278776075
2  148 41 17 4.0861293905116 11.5023278776075
0

0101000
+267 14 -269 14 *
Wi

0101100
-137 2 +266 0 *
Fa
0  1e-07 21 0

0111000
+136 0 *
Ve
1e-07
13.5 7.79422863405995 -42.3762
0 0

0101101
*
Ed
 1e-07 1 1 0
1  75 0 0 4.0861293905116
2  149 22 0 0 4.0861293905116
2  150 46 0 0 4.0861293905116
0

0101000
+134 14 -267 14 *
Ve
1e-07
13.5 7.79422863405995 -39.3762
0 0

0101101
*
Ed
 1e-07 1 1 0
1  76 0 0 4.0861293905121
2  151 22 15 0 4.0861293905121
2  152 23 0 0 4.0861293905121
0

0101000
+132 16 -265 16 *
Ed
 1e-07 1 1 0
1  77 0 0 3
2  153 22 0 0 3
2  154 24 0 0 3
0

0101000
+134 14 -132 14 *
Wi

0101100
-133 2 -264 0 +131 6 +130 2 *
Fa
0  1e-07 22 2

0111000
+129 0 *
Ed
 1e-07 1 1 0
1  78 0 11.5023278776078 15.5884572681199
2  155 23 0 11.5023278776078 15.5884572681199
2  156 24 15 11.5023278776078 15.5884572681199
0

0101000
+263 16 -132 16 *
Wi

0101100
+131 6 +127 6 -262 0 *
Fa
0  1e-07 23 6

0111000
+126 0 *
Ed
 1e-07 1 1 0
1  79 0 11.502327877607 15.5884572681199
2  157 24 0 11.502327877607 15.5884572681199
2  158 46 0 11.502327877607 15.5884572681199
0

0101000
+261 14 -134 14 *
Wi

0101100
-124 2 -130 2 +127 6 +260 0 *
Fa
0  1e-07 24 2

0111000
+123 0 *
Ed
 1e-07 1 1 0
1  80 0 4.08612939051291 11.502327877607
2  159 25 17 4.08612939051291 11.502327877607
2  160 41 17 4.08612939051291 11.502327877607
0

0101000
+306 14 -261 14 *
Wi

0101100
+241 0 -121 2 +258 0 *
Fa
0  1e-07 25 0

0111000
+120 0 *
Ve
1e-07
10.9087121146357 5 -38.3762
0 0

0101101
*
Ed
 1e-07 1 1 0
1  81 0 10.9087121146357 13.076696830622
2  161 26 0 10.9087121146357 13.076696830622
2  162 27 0 10.9087121146357 13.076696830622
0

0101000
+118 18 -255 18 *
Ve
1.00000011e-07
10.9087121146357 -5 -38.3762
0 0

0101101
*
Ed
 1e-07 1 1 0
1  82 0 10.9087121146357 13.076696830622
2  163 26 0 10.9087121146357 13.076696830622
2  164 30 0 10.9087121146357 13.076696830622
0

0101000
+116 18 -244 18 *
Ve
1.00000003e-07
12 -3e-15 -38.3762
0 0

0101101
*
Ed
 1e-07 1 1 0
1  83 0 5.85340987587506 6.28318530717959
2  165 26 7 5.85340987587506 6.28318530717959
2  166 47 0 5.85340987587506 6.28318530717959
0

0101000
+116 4 -114 4 *
Ed
 1e-07 1 1 0
1  84 0 0 0.429775431304528
2  167 26 7 0 0.429775431304528
2  168 47 0 0 0.429775431304528
0

0101000
+114 4 -118 4 *
Wi

0101100
-117 7 +254 0 +242 0 +115 7 -113 0 -112 0 *
Fa
0  1e-07 26 7

0111000
+111 0 *
Ve
1e-07
10.9087121146357 5 -31.1262
0 0

0101101
*
Ed
 1e-07 1 1 0
1  85 0 10.9087121146357 13.076696830622
2  169 27 0 10.9087121146357 13.076696830622
2  170 28 0 10.9087121146357 13.076696830622
0

0101000
+109 18 -253 18 *
Ed
 1e-07 1 1 0
1  86 0 5 12.25
2  171 27 7 5 12.25
2  172 47 0 5 12.25
0

0101000
+118 4 -109 4 *
Wi

0101100
-117 7 -252 0 +108 7 +107 0 *
Fa
0  1e-07 27 7

0111000
+106 0 *
Ve
1.00000011e-07
10.9087121146357 -5 -31.1262
0 0

0101101
*
Ed
 1e-07 1 1 0
1  87 0 10.9087121146357 13.076696830622
2  173 28 0 10.9087121146357 13.076696830622
2  174 30 0 10.9087121146357 13.076696830622
0

0101000
+104 18 -246 18 *
Ve
1.00000003e-07
12 -3e-15 -31.1262
0 0

0101101
*
Ed
 1e-07 1 1 0
1  88 0 5.85340987587506 6.28318530717959
2  175 28 7 5.85340987587506 6.28318530717959
2  176 47 0 5.85340987587506 6.28318530717959
0

0101000
+104 4 -102 4 *
Ed
 1e-07 1 1 0
1  89 0 0 0.429775431304528
2  177 28 7 0 0.429775431304528
2  178 47 0 0 0.429775431304528
0

0101000
+102 4 -109 4 *
Wi

0101100
-108 7 +250 0 +245 0 +103 7 -101 0 -100 0 *
Fa
0  1e-07 28 7

0111000
+99 0 *
Wi

0101100
+247 0 *
Ve
1.00000003e-07
12 -3e-15 -23.1262
0 0

0101101
*
Ed
 1e-07 1 1 0
1  90 0 0 6.28318530717959
2  179 29 0 0 6.28318530717959
2  180 47 0 0 6.28318530717959
0

0101100
+96 4 -96 4 *
Wi

0101100
-95 0 *
Fa
0  1e-07 29 0

0111000
+97 0 +94 0 *
Ed
 1e-07 1 1 0
1  91 0 5 12.25
2  181 30 7 5 12.25
2  182 47 0 5 12.25
0

0101000
+116 4 -104 4 *
Wi

0101100
-115 7 -243 0 +103 7 +92 0 *
Fa
0  1e-07 30 7

0111000
+91 0 *
Ed
 1e-07 1 1 0
1  92 0 9.27619470523639 30.7238052947636
3  183 184CN 31 0 9.27619470523639 30.7238052947636
0

0101000
+236 4 -239 4 *
Wi

0101100
-238 0 +89 0 +235 0 -89 0 *
Fa
0  1e-07 31 0

0111000
+88 0 *
Ve
1.00000002e-07
-9.78448307624005 6.9472218138456 -38.3762
0 0

0101101
*
Ed
 1e-07 1 1 0
1  93 0 10.9087121146357 13.076696830622
2  185 32 0 10.9087121146357 13.076696830622
2  186 34 0 10.9087121146357 13.076696830622
0

0101000
+86 19 -232 19 *
Ve
1.00000002e-07
-1.12422903839566 11.9472218138456 -38.3762
0 0

0101101
*
Ed
 1e-07 1 1 0
1  94 0 10.9087121146357 13.076696830622
2  187 32 0 10.9087121146357 13.076696830622
2  188 33 0 10.9087121146357 13.076696830622
0

0101000
+84 19 -233 19 *
Ed
 1e-07 1 1 0
1  95 0 1.66461967108867 2.52417053369772
2  189 32 10 1.66461967108867 2.52417053369772
2  190 47 0 1.66461967108867 2.52417053369772
0

0101000
+84 4 -86 4 *
Wi

0101100
-85 10 +231 0 +83 10 -82 0 *
Fa
0  1e-07 32 10

0111000
+81 0 *
Ve
1.00000002e-07
-1.12422903839566 11.9472218138456 -31.1262
0 0

0101101
*
Ed
 1e-07 1 1 0
1  96 0 10.9087121146357 13.076696830622
2  191 33 0 10.9087121146357 13.076696830622
2  192 35 0 10.9087121146357 13.076696830622
0

0101000
+79 19 -230 19 *
Ed
 1e-07 1 1 0
1  97 0 5 12.25
2  193 33 10 5 12.25
2  194 47 0 5 12.25
0

0101000
+84 4 -79 4 *
Wi

0101100
-83 10 -229 0 +78 10 +77 0 *
Fa
0  1e-07 33 10

0111000
+76 0 *
Ve
1.00000002e-07
-9.78448307624005 6.9472218138456 -31.1262
0 0

0101101
*
Ed
 1e-07 1 1 0
1  98 0 10.9087121146357 13.076696830622
2  195 34 0 10.9087121146357 13.076696830622
2  196 35 0 10.9087121146357 13.076696830622
0

0101000
+74 19 -228 19 *
Ed
 1e-07 1 1 0
1  99 0 5 12.25
2  197 34 10 5 12.25
2  198 47 0 5 12.25
0

0101000
+86 4 -74 4 *
Wi

0101100
-85 10 -227 0 +73 10 +72 0 *
Fa
0  1e-07 34 10

0111000
+71 0 *
Ed
 1e-07 1 1 0
1  100 0 1.66461967108867 2.52417053369772
2  199 35 10 1.66461967108867 2.52417053369772
2  200 47 0 1.66461967108867 2.52417053369772
0

0101000
+79 4 -74 4 *
Wi

0101100
-73 10 +226 0 +78 10 -69 0 *
Fa
0  1e-07 35 10

0111000
+68 0 *
Ve
1.00000003e-07
-1.12422903839567 -11.9472218138456 -38.3762
0 0

0101101
*
Ed
 1e-07 1 1 0
1  101 0 10.9087121146357 13.076696830622
2  201 36 0 10.9087121146357 13.076696830622
2  202 38 0 10.9087121146357 13.076696830622
0

0101000
+66 20 -223 20 *
Ve
1.00000003e-07
-9.78448307624005 -6.94722181384559 -38.3762
0 0

0101101
*
Ed
 1e-07 1 1 0
1  102 0 10.9087121146357 13.076696830622
2  203 36 0 10.9087121146357 13.076696830622
2  204 37 0 10.9087121146357 13.076696830622
0

0101000
+64 20 -224 20 *
Ed
 1e-07 1 1 0
1  103 0 3.75901477348186 4.61856563609092
2  205 36 13 3.75901477348186 4.61856563609092
2  206 47 0 3.75901477348186 4.61856563609092
0

0101000
+64 4 -66 4 *
Wi

0101100
-65 13 +222 0 +63 13 -62 0 *
Fa
0  1e-07 36 13

0111000
+61 0 *
Ve
1.00000003e-07
-9.78448307624005 -6.94722181384559 -31.1262
0 0

0101101
*
Ed
 1e-07 1 1 0
1  104 0 10.9087121146357 13.076696830622
2  207 37 0 10.9087121146357 13.076696830622
2  208 39 0 10.9087121146357 13.076696830622
0

0101000
+59 20 -221 20 *
Ed
 1e-07 1 1 0
1  105 0 5 12.25
2  209 37 13 5 12.25
2  210 47 0 5 12.25
0

0101000
+64 4 -59 4 *
Wi

0101100
-63 13 -220 0 +58 13 +57 0 *
Fa
0  1e-07 37 13

0111000
+56 0 *
Ve
1.00000003e-07
-1.12422903839567 -11.9472218138456 -31.1262
0 0

0101101
*
Ed
 1e-07 1 1 0
1  106 0 10.9087121146357 13.076696830622
2  211 38 0 10.9087121146357 13.076696830622
2  212 39 0 10.9087121146357 13.076696830622
0

0101000
+54 20 -219 20 *
Ed
 1e-07 1 1 0
1  107 0 5 12.25
2  213 38 13 5 12.25
2  214 47 0 5 12.25
0

0101000
+66 4 -54 4 *
Wi

0101100
-65 13 -218 0 +53 13 +52 0 *
Fa
0  1e-07 38 13

0111000
+51 0 *
Ed
 1e-07 1 1 0
1  108 0 3.75901477348186 4.61856563609092
2  215 39 13 3.75901477348186 4.61856563609092
2  216 47 0 3.75901477348186 4.61856563609092
0

0101000
+59 4 -54 4 *
Wi

0101100
-53 13 +217 0 +58 13 -49 0 *
Fa
0  1e-07 39 13

0111000
+48 0 *
Ed
 1.00000007e-07 1 1 0
1  109 0 5.50405087880546 6.0151221843572
2  217 40 2 5.50405087880546 6.0151221843572
2  218 41 0 5.50405087880546 6.0151221843572
0

0101000
+301 4 -306 4 *
Wi

0101100
+213 2 +204 2 -46 0 *
Fa
0  1e-07 40 2

0111000
+45 0 *
Ed
 1.00000007e-07 1 1 0
1  110 0 4.45685332760881 4.96792463316057
2  219 41 0 4.45685332760881 4.96792463316057
2  220 42 2 4.45685332760881 4.96792463316057
0

0101000
+293 4 -299 4 *
Ed
 1.00000007e-07 1 1 0
1  111 0 3.40965577641223 3.92072708196391
2  221 41 0 3.40965577641223 3.92072708196391
2  222 43 2 3.40965577641223 3.92072708196391
0

0101000
+285 4 -291 4 *
Ed
 1.00000007e-07 1 1 0
1  112 0 2.36245822521567 2.87352953076736
2  223 41 0 2.36245822521567 2.87352953076736
2  224 44 2 2.36245822521567 2.87352953076736
0

0101000
+277 4 -283 4 *
Ed
 1.00000007e-07 1 1 0
1  113 0 1.31526067401902 1.82633197957078
2  225 41 0 1.31526067401902 1.82633197957078
2  226 45 2 1.31526067401902 1.82633197957078
0

0101000
+269 4 -275 4 *
Ed
 1.00000007e-07 1 1 0
1  114 0 0.268063122822382 0.779134428374123
2  227 41 0 0.268063122822382 0.779134428374123
2  228 46 2 0.268063122822382 0.779134428374123
0

0101000
+261 4 -267 4 *
Wi

0101100
+121 2 +46 0 +201 2 +43 0 +185 2 +42 0 +169 2 +41 0 +153 2 +40 0 
+137 2 +39 0 *
Ve
1.00000007e-07
12 -3e-15 -42.3762
0 0

0101101
*
Ed
 1.00000007e-07 1 1 0
1  115 0 0 6.28318530717959
2  229 41 0 0 6.28318530717959
2  230 48 2 0 6.28318530717959
0

0101000
+37 4 -37 4 *
Wi

0101100
-36 0 *
Fa
0  1e-07 41 0

0111000
+38 0 +35 0 *
Wi

0101100
-43 0 +197 2 +188 2 *
Fa
0  1e-07 42 2

0111000
+33 0 *
Wi

0101100
-42 0 +181 2 +172 2 *
Fa
0  1e-07 43 2

0111000
+31 0 *
Wi

0101100
-41 0 +165 2 +156 2 *
Fa
0  1e-07 44 2

0111000
+29 0 *
Wi

0101100
+140 2 -40 0 +149 2 *
Fa
0  1e-07 45 2

0111000
+27 0 *
Wi

0101100
+133 2 +124 2 -39 0 *
Fa
0  1e-07 46 2

0111000
+25 0 *
Ve
1.00000003e-07
12 -3e-15 -39.3762
0 0

0101101
*
Ed
 1e-07 1 1 0
1  116 0 0 6.28318530717959
2  231 47 0 0 6.28318530717959
2  232 49 6 0 6.28318530717959
0

0101100
+23 4 -23 4 *
Ed
 1e-07 1 1 0
1  117 0 3.99999999999999 5
3  233 234CN 47 0 3.99999999999999 5
0

0101000
+23 4 -114 4 *
Ed
 1e-07 1 1 0
1  118 0 12.25 20.25
3  235 236CN 47 0 12.25 20.25
0

0101000
+102 4 -96 4 *
Wi

0101100
+22 0 -21 0 -112 0 -107 0 +100 0 -20 0 -95 0 +20 0 +101 0 +92 0 
-113 0 +21 0 *
Wi

0101100
-82 0 +77 0 -72 0 +69 0 *
Wi

0101100
-62 0 -52 0 +49 0 +57 0 *
Fa
0  1e-07 47 0

0111000
+19 0 +18 0 +17 0 *
Wi

0101100
+36 0 *
Ve
1.00000001e-07
2.6 -1e-15 -42.3762
0 0

0101101
*
Ed
 1e-07 1 1 0
1  119 0 0 6.28318530717959
2  237 48 2 0 6.28318530717959
2  238 50 0 0 6.28318530717959
0

0101100
+14 4 -14 4 *
Wi

0101100
-13 0 *
Fa
0  1e-07 48 2

0111000
+15 0 +12 0 *
Wi

0101100
+22 0 *
Ve
1.00000001e-07
2.6 -1e-15 -39.3762
0 0

0101101
*
Ed
 1e-07 1 1 0
1  120 0 0 6.28318530717959
2  239 49 6 0 6.28318530717959
2  240 50 0 0 6.28318530717959
0

0101100
+9 4 -9 4 *
Wi

0101100
-8 0 *
Fa
0  1e-07 49 6

0111000
+10 0 +7 0 *
Ed
 1e-07 1 1 0
1  121 0 0.999999999999993 3.99999999999999
3  241 242CN 50 0 0.999999999999993 3.99999999999999
0

0101000
+14 4 -9 4 *
Wi

0101100
-8 0 +5 0 +13 0 -5 0 *
Fa
0  1e-07 50 0

0111000
+4 0 *
Sh

0101100
+215 0 -208 0 +205 0 -202 0 -199 0 -192 0 +189 0 -186 0 -183 0 -176 0 
+173 0 -170 0 -167 0 -160 0 +157 0 -154 0 -151 0 -144 0 +141 0 -138 0 
-135 0 -128 0 +125 0 -122 0 -119 0 +110 0 -105 0 -98 0 +93 0 +90 0 
-87 0 +80 0 +75 0 -70 0 -67 0 +60 0 +55 0 -50 0 -47 0 -44 0 
-34 0 -32 0 -30 0 -28 0 -26 0 -24 0 -16 0 -11 0 +6 0 -3 0 
*
So

0100000
+2 0 *

+1 1 