
CASCADE Topology V1, (c) Matra-Datavision
Locations 13
1
1.000000000000000 0.000000000000000 0.000000000000000 0.000000000000000 
0.000000000000000 1.000000000000000 0.000000000000000 0.000000000000000 
0.000000000000000 0.000000000000000 1.000000000000000 0.000000000000000 
1
1.000000000000000 0.000000000000000 0.000000000000000 0.000000000000000 
0.000000000000000 1.000000000000000 0.000000000000000 0.000000000000000 
0.000000000000000 0.000000000000000 1.000000000000000 0.000000000000000 
2  2 -1 0
1
0.000000000000000 0.000000000000000 1.000000000000000 0.000000000000000 
0.000000000000000 1.000000000000000 0.000000000000000 0.000000000000000 
-1.000000000000000 0.000000000000000 0.000000000000000 0.000000000000000 
1
1.000000000000000 0.000000000000000 0.000000000000000 0.000000000000000 
0.000000000000000 1.000000000000000 0.000000000000000 13.500000000000000 
0.000000000000000 0.000000000000000 1.000000000000000 5.240000000000000 
2  4 1 5 1 0
1
0.000000000000000 0.000000000000000 -1.000000000000000 0.000000000000000 
0.000000000000000 1.000000000000000 0.000000000000000 0.000000000000000 
1.000000000000000 0.000000000000000 0.000000000000000 0.000000000000000 
1
1.000000000000000 0.000000000000000 0.000000000000000 0.000000000000000 
0.000000000000000 1.000000000000000 0.000000000000000 13.500000000000000 
0.000000000000000 0.000000000000000 1.000000000000000 -5.240000000000000 
2  7 1 8 1 0
2  2 -1 5 -1 4 -1 0
2  5 -1 4 -1 0
2  2 -1 8 -1 7 -1 0
2  8 -1 7 -1 0
Curve2ds 99
1 0.00000000000000000 -0.00000000000000000 0.00000000000000000 1.00000000000000000 
7 0 0  6 32 7  0.26793074126386246 2.73103654697492404  0.26347070965628222 2.69554824024389594  0.25867647231091823 2.66025196845491552  0.25359140504058908 2.62514826314349525  0.24825820235485063 2.59023196559521507  0.24271701754594041 2.55549303995651345  0.23299327981216147 2.49664826828311703  0.22889815128660815 2.47245985004949409  0.22473069679749047 2.44834734552607713  0.22050247869010750 2.42430562237622693  0.21622414205562923 2.40032920204518918  0.20867732398442343 2.35853522000335536  0.20542667374990164 2.34069146133867312  0.20215752024867975 2.32287858775612976  0.19887365430602635 2.30509420203866311  0.19557860135132946 2.28733590576206991  0.18305357268142722 2.22008558667460187  0.17377005171541701 2.17075620194198127  0.16449558734116934 2.12155771306138741  0.15528667354019984 2.07244262864894102  0.14618800012303404 2.02336758024928232  0.11943281021414483 1.87670760223996780  0.10220712707944718 1.77912208991578935  0.08583470028135710 1.68120187330232485  0.07046697687613124 1.58275075901986151  0.05618648722235463 1.48360249099552677  0.03469096203667495 1.32016229819570685  0.02679983228609796 1.25635733406804095  0.01937991738955733 1.19221248585773387  0.01243806004829297 1.12771466098749928  0.00597741831199921 1.06286021114400864  0.00000000000000000 0.99765917837909779 
 0.00000000000000000 7 0.11829006611809303 5 0.20131946051562144 5 0.26338089658590408 5 0.43665884549175960 5 0.78118726625627244 5 1.00000000000000000 7
7 0 0  4 5 2  0.06207085501270550 1.52098528593014559  0.04672977676325495 1.53428680509181281  0.03126689436525052 1.54702433974381459  0.01568814269134886 1.55919584697659275  0.00000000000000000 1.57079632679489212 
 0.00000000000000000 5 1.00000000000000000 5
7 0 0  4 5 2  1.62060736765964708 -0.00000060000000000  1.60730584849797964 0.06223544439220605  1.59456831384600828 0.12465549887571802  1.58239680661314241 0.18724742786818332  1.57079632679489190 0.24999999999999648 
 0.00000000000000000 5 1.00000000000000000 5
7 0 0  6 47 10  0.00000000000000000 1.57079632680805759  0.00162737031334729 1.59783214280702457  0.00327737289719950 1.62486312060059390  0.00494860643920096 1.65189039477558186  0.00663949845951460 1.67891514615467874  0.00834830531082196 1.70593860179644974  0.01421331501714291 1.79782871482642537  0.01844569404837862 1.86269573712271463  0.02274374164599172 1.92757966026598271  0.02707448126063823 1.99249974549368436  0.03139783159126159 2.05747474271626496  0.03991214481485811 2.18722986947499853  0.04410370764614235 2.25201056331014060  0.04819410544168810 2.31687538249841873  0.05212881334918833 2.38183770216749569  0.05584886771905051 2.44690605143692430  0.06122779865979733 2.54865048723102383  0.06307488504901411 2.58525472747672369  0.06482490860435536 2.62189222440022007  0.06646758916410599 2.65856222962942246  0.06799311531869877 2.69526325969793179  0.07197798086325173 2.79988114087850093  0.07413225083569784 2.86787203155505965  0.07579673853951287 2.93594249573711741  0.07692610069934074 3.00407318667008605  0.07749458342519311 3.07223949847725208  0.07751103455172763 3.20973374049378313  0.07693963745074277 3.27906956058396659  0.07578748749887060 3.34836846008689371  0.07408177270894449 3.41760467383278899  0.07187059578771215 3.48675806887537476  0.06780332234436658 3.59253361195503018  0.06626525139139623 3.62923406553804639  0.06461082881167211 3.66590335164176784  0.06284990619750469 3.70254003530825271  0.06099278559704106 3.73914341597575772  0.05216484195618874 3.90533538553111015  0.04420415184216602 4.03454452477002334  0.03563978266068803 4.16331989531861524  0.02693367087791439 4.29181679465789134  0.01837649826559701 4.42019178776317467  0.00843684952151717 4.57584675442339961  0.00670958840405033 4.60315014528056565  0.00500056032602138 4.63045481921694257  0.00331156749394162 4.65776204227316892  0.00164423283558738 4.68507303406032971  0.00000000000000000 4.71238896775994842 
 0.00000000000000000 7 0.05201603045429852 5 0.17687459926496607 5 0.30109060893009604 5 0.37079228834660416 5 0.49962244953973889 5 0.63066107012914085 5 0.70036779199045374 5 0.94744154799103841 5 1.00000000000000000 7
7 0 0  6 47 10  1.57079632680693648 0.25000000000606448  1.59783214280775798 0.25650947141888392  1.62486312060103599 0.26304924919367684  1.65189039477536070 0.26961158547314379  1.67891514615430903 0.27618852112846332  1.70593860179644796 0.28277188575929124  1.79782871482642381 0.30515122897983632  1.86269573712271641 0.32093798085637659  1.92757966026598226 0.33659765903065719  1.99249974549368170 0.35200727553850880  2.05747474271626452 0.36703819527427400  2.18722986947499853 0.39600224870363854  2.25201056331014193 0.40994087665294870  2.31687538249841918 0.42324313703378552  2.38183770216749391 0.43577487634906836  2.44690605143692386 0.44740426086766588  2.54865048723102339 0.46395798198169930  2.58525472747672325 0.46958525109966365  2.62189222440021874 0.47486768847584776  2.65856222962942201 0.47978483892786666  2.69526325969793268 0.48431783152151264  2.79988114087850093 0.49608575226101287  2.86787203155506099 0.50235165472413978  2.93594249573711652 0.50713851450889236  3.00407318667008427 0.51036644981817203  3.07223949847725208 0.51199189179190518  3.20973374049378313 0.51203892146318541  3.27906956058397014 0.51040511792741683  3.34836846008689415 0.50711260790084911  3.41760467383278410 0.50220733188252087  3.48675806887537432 0.49577403628174160  3.59253361195502974 0.48375418167306350  3.62923406553804639 0.47918033451024594  3.66590335164176784 0.47422383474766555  3.70254003530825271 0.46890366817895551  3.73914341597575772 0.46324038070282203  3.90533538553111015 0.43604486616826221  4.03454452477004821 0.41079783218591681  4.16331989531857438 0.38249020780557663  4.29181679465791266 0.35223426183501627  4.42019178776317467 0.32102124047152103  4.57584675442339961 0.28311294425186223  4.60315014563241665 0.27646110680523933  4.63045481942604287 0.26981557179050414  4.65776204184695519 0.26318477080293778  4.68507303335673786 0.25657691714379666  4.71238896883589575 0.25000000582031134 
 0.00000000000000000 7 0.05201603045429852 5 0.17687459926496607 5 0.30109060893009604 5 0.37079228834660416 5 0.49962244953973889 5 0.63066107012914085 5 0.70036779199045374 5 0.94744154799103841 5 1.00000000000000000 7
7 0 0  4 5 2  0.06207085501270540 4.76220002124944042  0.04672977676325503 4.74889850208777364  0.03126689436525132 4.73616096743576520  0.01568814269134729 4.72398946020300059  0.00000000000000000 4.71238898038469411 
 0.00000000000000000 5 1.00000000000000000 5
7 0 0  4 5 2  4.66257793951993982 -0.00000060000000000  4.67587945868160748 0.06223544439220530  4.68861699333357063 0.12465549887572035  4.70078850056645248 0.18724742786818122  4.71238898038469323 0.24999999999999648 
 0.00000000000000000 5 1.00000000000000000 5
7 0 0  6 32 7  0.00000000000000000 5.28552612880048844  0.00603324483202948 5.21971614639015336  0.01255878230225854 5.15425925705843468  0.01957454221520912 5.08916579111881706  0.02707726952395003 5.02443187225937304  0.03505986327958734 4.96004383130203497  0.05654795720533082 4.79711598297352637  0.07069627859894553 4.69903808901058540  0.08590750700225083 4.60164038882572157  0.10210108352188060 4.50476175813667989  0.11913029168439399 4.40821158540507430  0.14567567761546876 4.26258922274789853  0.15476942509756100 4.21351223994105784  0.16397501089207325 4.16439686293252009  0.17324803845400796 4.11519984421684093  0.18253236390907160 4.06587378466249749  0.19506273323003240 3.99862708621075091  0.19836001308470264 3.98086739460746797  0.20164645950149948 3.96308185002188784  0.20491856452328819 3.94526805291950211  0.20817255535140242 3.92742360326765771  0.21572867484076988 3.88562555978345481  0.22001328384849009 3.86164593385326960  0.22424853544625664 3.83760138533262074  0.22842382496120173 3.81348641381604070  0.23252762897013809 3.78929585590496787  0.24234838889259683 3.73000065456809038  0.24797439449893952 3.69480952281775776  0.25338848741972614 3.65943668691131974  0.25854896515955844 3.62387159049200847  0.26341142661513117 3.58810877990399746  0.26793074126386318 3.55214876020466486 
 0.00000000000000000 7 0.22085691542229732 5 0.56170873552714096 5 0.73499821242986174 5 0.79707607025120575 5 0.88013777915265035 5 1.00000000000000000 7
1 0.00000000000000000 -0.00000000000000000 0.00000000000000000 1.00000000000000000 
1 0.00000000000000000 0.00000000000000000 1.00000000000000000 0.00000000000000000 
1 0.00000000000000000 6.28318530717958623 1.00000000000000000 0.00000000000000000 
1 3.14159265358979312 9.42477796076937935 -0.00000000000000000 -1.00000000000000000 
7 0 0  6 32 7  2.87366191232593016 3.55214876020466397  2.87812194393334808 3.58763706693440598  2.88291618127852445 3.62293333872207191  2.88800124854864615 3.65803704403223584  2.89333445123416233 3.69295334157928101  2.89887563604283827 3.72769226721672098  2.90859937377635269 3.78653703888888771  2.91269450230188376 3.81072545712251065  2.91686195679098104 3.83483796164592627  2.92109017489834644 3.85887968479577692  2.92536851153280830 3.88285610512681423  2.93291532960399026 3.92465008716864583  2.93616597983850225 3.94249384583332763  2.93943513333971618 3.96030671941587142  2.94271899928236325 3.97809110513333808  2.94601405223705504 3.99584940140993039  2.95853908090694473 4.06309972049742285  2.96782260187294566 4.11242910522999772  2.97709706624719717 4.16162759411061689  2.98630598004817882 4.21074267852308903  2.99540465346535401 4.25981772692269534  3.02215984337430665 4.40647770493204760  3.03938552650905214 4.50406321725621961  3.05575795330720279 4.60198343386960751  3.07112567671251524 4.70043454815219874  3.08540616636635345 4.79958281617640203  3.10690169155232887 4.96302300897748605  3.11479282130309398 5.02682797310637408  3.12221273619981643 5.09097282131796103  3.12915459354124481 5.15547064618949502  3.13561523527767294 5.22032509603425954  3.14159265358979312 5.28552612880048844 
 0.00000000000000000 7 0.11829006611372464 5 0.20131946051116067 5 0.26338089658139047 5 0.43665884548723061 5 0.78118726625185564 5 1.00000000000000000 7
7 0 0  4 5 2  3.07952179857708774 4.76220002124944131  3.09486287682653805 4.74889850208777453  3.11032575922454413 4.73616096743578296  3.12590451089844290 4.72398946020297572  3.14159265358979312 4.71238898038469411 
 0.00000000000000000 5 1.00000000000000000 5
7 0 0  4 5 2  4.76220002124943864 -0.00000060000000000  4.74889850208777098 0.06223544439220416  4.73616096743579273 0.12465549887571979  4.72398946020295085 0.18724742786818419  4.71238898038468612 0.24999999999999648 
 0.00000000000000000 5 1.00000000000000000 5
7 0 0  6 17 4  3.14159265358979312 4.71238896797522333  3.13994846481189649 4.68507376590456559  3.13828117535709517 4.65776350431163966  3.13659222884171607 4.63045701122322129  3.13488324809524022 4.60315306760606902  3.13315603516030494 4.57585040736692505  3.12321644497914841 4.42019616374954882  3.11465927739679227 4.29182116676660996  3.10595316431307333 4.16332426690178359  3.09738878548488517 4.03454889871586264  3.08942807512141382 3.90533976403995453  3.07695928275300012 3.67060742491753089  3.07208085105068252 3.56518618147816291  3.06815914688223756 3.45951921586293931  3.06544518306735281 3.35363965442890111  3.06408984329736267 3.24760285235254331  3.06408984329736267 3.14159265358979356 
 0.00000000000000000 7 0.10511763009528857 5 0.59928179951137661 5 1.00000000000000000 7
7 0 0  6 17 4  4.71238899173655401 0.25000000572106629  4.73970419556261202 0.25657674095027277  4.76701445687855863 0.26318441707881418  4.79432094933784558 0.26981503952034802  4.82162489281436901 0.27646039554854235  4.84892755340245252 0.28311205429707514  5.00458179701983141 0.32102017622166445  5.13295679400273652 0.35223322121405615  5.26145369386765616 0.38248921291104665  5.39022906205347940 0.41079690659296653  5.51943819672942482 0.43604403405669256  5.75417053585184846 0.47445564655704009  5.85959177929122088 0.48900876940036148  5.96525874490642849 0.50038483507566300  6.07113830634048668 0.50814017162591685  6.17717510841683648 0.51201541035524434  6.28318530717958623 0.51201541035524423 
 0.00000000000000000 7 0.10511763009528857 5 0.59928179951137661 5 1.00000000000000000 7
7 0 0  6 22 5  3.06408984329736267 3.14159265358979356  3.06408984329736267 3.03584001459567077  3.06543860878421892 2.93006103188922129  3.06813937430063266 2.82443797483733938  3.07204278686851406 2.71902608757697628  3.07690007553272826 2.61385853954993186  3.08591781243146057 2.44382704882909652  3.08964698981224073 2.37875919621909349  3.09358896058473531 2.31379719687717822  3.09768484460345839 2.24893238722640332  3.10188025943171120 2.18415129225180005  3.11039918343049893 2.05439666239046259  3.11472327290880280 1.98942255888143937  3.11905342073881586 1.92450281034932646  3.12334972203175054 1.85961863994968701  3.12757936872135600 1.79475078849319192  3.13340654866739454 1.70337250285483655  3.13508156353555512 1.67686216795846943  3.13673924214999333 1.65035051855626391  3.13837794464972930 1.62383639763764065  3.13999618951950765 1.59731869161831597  3.14159265358979312 1.57079633034030697 
 0.00000000000000000 7 0.39974886926735692 5 0.64820579644622045 5 0.89793918810292739 5 1.00000000000000000 7
7 0 0  6 22 5  0.00000000000000000 0.51201541035524423  0.10575263899412263 0.51201541035524412  0.21153162170053924 0.50815897701781987  0.31715467875250969 0.50044131638777412  0.42256656601278847 0.48911920329955472  0.52773411403986203 0.47463224227612655  0.69776560476069716 0.44686135601544996  0.76283345737069841 0.43519482078075017  0.82779545671261479 0.42262994414387789  0.89266026636339169 0.40929867065553632  0.95744136133799318 0.39533516060548229  1.08719599119933119 0.36632990110960145  1.15217009470835574 0.35128273654243297  1.21708984324046887 0.33586096429970419  1.28197401364010655 0.32019309800956824  1.34684186509660098 0.30440197563206722  1.43822015073495568 0.28214676625194263  1.46473048573291109 0.27568892714923726  1.49124213509475090 0.26923772253062800  1.51775625583079177 0.26280085853523505  1.54427396176833120 0.25638584623496624  1.57079632355164556 0.25000000163451830 
 0.00000000000000000 7 0.39974886926735692 5 0.64820579644622045 5 0.89793918810292739 5 1.00000000000000000 7
7 0 0  4 5 2  3.07952179857708774 1.52098528593014559  3.09486287682653805 1.53428680509181259  3.11032575922454235 1.54702433974381282  3.12590451089844468 1.55919584697659541  3.14159265358979312 1.57079632679489212 
 0.00000000000000000 5 1.00000000000000000 5
7 0 0  4 5 2  1.52098528593014692 -0.00000060000000000  1.53428680509181437 0.06223544439220533  1.54702433974378506 0.12465549887571871  1.55919584697664915 0.18724742786818285  1.57079632679490122 0.24999999999999648 
 0.00000000000000000 5 1.00000000000000000 5
7 0 0  6 32 7  3.14159265358979312 0.99765917837909812  3.13555940875776429 1.06346916078942755  3.12903387128753252 1.12892605012117020  3.12201811137458263 1.19401951606078627  3.11451538406584261 1.25875343492022407  3.10653279031020135 1.32314147587757769  3.08504469638445933 1.48606932420607318  3.07089637499083867 1.58414721816911008  3.05568514658754165 1.68154491835380693  3.03949157006789594 1.77842354904303113  3.02246236190539319 1.87497372177454658  2.99591697597431095 2.02059608443175875  2.98682322849221960 2.06967306723858213  2.97761764269770657 2.11878844424713675  2.96834461513577130 2.16798546296283234  2.95906028968070878 2.21731152251715802  2.94652992035974526 2.28455822096891570  2.94323264050507527 2.30231791257219909  2.93994619408827917 2.32010345715778099  2.93667408906649063 2.33791725426016583  2.93342009823837691 2.35576170391200934  2.92586397874900905 2.39755974739621314  2.92157936974128907 2.42153937332639702  2.91734411814352290 2.44558392184704410  2.91316882862857796 2.46969889336362591  2.90906502461964189 2.49388945127469963  2.89924426469718632 2.55318465261156335  2.89361825909084436 2.58837578436188087  2.88820416617006037 2.62374862026830868  2.88304368843023129 2.65931371668760841  2.87818122697466094 2.69507652727560165  2.87366191232593060 2.73103654697492360 
 0.00000000000000000 7 0.22085691542235814 5 0.56170873552724676 5 0.73499821242997143 5 0.79707607025130345 5 0.88013777915272406 5 1.00000000000000000 7
1 3.14159265358979312 9.42477796076937935 -0.00000000000000000 -1.00000000000000000 
1 0.00000000000000000 0.00000000000000000 1.00000000000000000 0.00000000000000000 
1 0.00000000000000000 0.00000000000000000 1.00000000000000000 0.00000000000000000 
1 6.28318530717958623 -0.00000000000000000 0.00000000000000000 1.00000000000000000 
1 0.00000000000000000 -0.00000000000000000 0.00000000000000000 1.00000000000000000 
7 0 0  7 8 2  -0.00000000000000089 6.84151147585401631  0.22439947525641296 6.84151147585401631  0.44879895051309404 6.85565652202785714  0.67319842576898736 6.88394456240712316  0.89759790102630177 6.92463883642631117  1.12199737628188245 6.97422557540107846  1.34639685153848276 7.02825450761379855  1.57079632679489656 7.08228365921673308 
 3.14159265358979267 8 4.71238898038468967 8
7 0 0  7 8 2  -0.00000000000000089 0.49077218336271677  0.22439947525641296 0.49077218336271683  0.44879895051283825 0.47662713718874272  0.67319842576921474 0.44833909681091200  0.89759790102573334 0.40764482279149661  1.12199737628202456 0.35805808381570614  1.34639685153848254 0.30402915160293464  1.57079632679489634 0.25000000000000000 
 3.14159265358979267 8 4.71238898038468967 8
7 0 0  5 6 2  1.57079632679489656 7.08228365921673308  1.58004268035912032 7.03226572326186172  1.58928903392334320 6.98224778730698858  1.59853538748757273 6.93223876028167751  1.60778174105179184 6.88224755111495057  1.61702809461601560 6.83228305921672963 
 1.57079632679489656 6 1.61702809461601582 6
7 0 0  5 6 2  1.57079632679489634 0.25000000000000000  1.56154997323067257 0.19998206404512903  1.55230361966645702 0.14996412809022663  1.54305726610222393 0.09995510106496264  1.53381091253800106 0.04996389189821548  1.52456455897377730 -0.00000060000000524 
 1.57079632679489656 6 1.61702809461601582 6
7 0 0  8 23 4  -0.00000000000000089 6.30501631284806674  0.19634954084936052 6.30501631284806674  0.39269908169954704 6.32722225361847279  0.58904862254903634 6.37163145071298231  0.78539816339773694 6.43642570370002431  0.98174770424694913 6.51793809368450638  1.17809724509680613 6.61108174486501987  1.37444678594553604 6.71003685664896743  1.86532063806894044 6.95742549714671288  2.15984494934739502 7.10585921932397468  2.45436926058093974 7.23466816606742213  2.74889357191270989 7.32425552060158225  3.04341788315353057 7.36037343769203289  3.33794219444164497 7.33994419637019746  3.63246650571319840 7.27031527117402288  4.22151512826128616 7.06039904883265113  4.51603943952498099 6.92011099100727733  4.81056375080945742 6.75837687284729327  5.10508806206483001 6.59556330401028390  5.39961237333475452 6.45489750124033890  5.69413668462650691 6.35497986468908493  5.98866099590553169 6.30501631284806585  6.28318530717957557 6.30501631284806585 
 3.14159265358979267 9 4.71238898038468612 7 7.06858347057703185 7 9.42477796076937935 9
7 0 0  5 6 2  4.66615721256357041 6.83228305921672785  4.67540356612779462 6.88224755111494879  4.68464991969202060 6.93223876028170594  4.69389627325625725 6.98224778730696016  4.70314262682046547 7.03226572326185995  4.71238898038468967 7.08228365921673131 
 4.66615721256357041 6 4.71238898038468967 6
7 0 0  5 6 2  4.75862074820580894 -0.00000060000000701  4.74937439464158473 0.04996389189821371  4.74012804107736230 0.09995510106495953  4.73088168751315408 0.14996412809022974  4.72163533394891388 0.19998206404512725  4.71238898038468967 0.24999999999999822 
 4.66615721256357041 6 4.71238898038468967 6
7 0 0  7 8 2  4.71238898038468967 7.08228365921673308  4.93678845564110347 7.02825450761379855  5.16118793089731298 6.97422557540221533  5.38558740615508214 6.92463883642085420  5.60998688140807644 6.88394456241076114  5.83438635666720984 6.85565652202649289  6.05878583192317155 6.84151147585401631  6.28318530717958534 6.84151147585401631 
 1.57079632679489656 8 3.14159265358979267 8
7 0 0  7 8 2  4.71238898038468967 0.25000000000000000  4.93678845564110347 0.30402915160293459  5.16118793089776773 0.35805808381572035  5.38558740615326315 0.40764482279143976  5.60998688140989543 0.44833909681079831  5.83438635666720984 0.47662713718874272  6.05878583192317155 0.49077218336271672  6.28318530717958534 0.49077218336271677 
 1.57079632679489656 8 3.14159265358979267 8
1 0.00000000000000000 0.00000000000000000 1.00000000000000000 0.00000000000000000 
7 0 0  8 23 4  0.00000000000000000 7.31296831284806448  0.19634954084936207 7.31296831284806448  0.39269908169873213 7.29076237207905997  0.58904862254793144 7.24635317497890696  0.78539816339736035 7.18155892199729351  0.98174770424684255 7.10004653201730207  1.17809724509613911 7.00690288082961388  1.37444678594553449 6.90794776904716379  1.86532063806893955 6.66055912854941834  2.15984494934264148 6.51212540635788173  2.45436926060756377 6.38331645961807226  2.74889357189749717 6.29372910504025640  3.04341788315105077 6.25761118797890958  3.33794219443871043 6.27804042931256845  3.63246650571319840 6.34766935452210834  4.22151512826128439 6.55758557686348009  4.51603943953796261 6.69787363468731201  4.81056375076695986 6.85960775282728719  5.10508806210054900 7.02242132167157251  5.39961237332681776 7.16308712442332762  5.69413668463676004 7.26300476101096137  5.98866099590554324 7.31296831284806537  6.28318530717958623 7.31296831284806537 
 0.00000000000000000 9 1.57079632679489700 7 3.92699081698724139 7 6.28318530717958623 9
7 0 0  5 6 2  1.52456455897377774 6.83228305921672785  1.53381091253800150 6.88224755111494879  1.54305726610222393 6.93223876028170594  1.55230361966645347 6.98224778730696016  1.56154997323067279 7.03226572326185995  1.57079632679489656 7.08228365921673131 
 4.66615721256357041 6 4.71238898038468967 6
7 0 0  5 6 2  7.90021340179560205 -0.00000060000000701  7.89096704823137873 0.04996389189821371  7.88172069466715541 0.09995510106495953  7.87247434110293653 0.14996412809022974  7.86322798753870700 0.19998206404512725  7.85398163397448279 0.24999999999999822 
 4.66615721256357041 6 4.71238898038468967 6
7 0 0  8 9 2  1.57079632679489656 7.08228365921673308  1.96349540849362070 6.98773264391159721  2.35619449018668092 6.89318087469200691  2.74889357190477313 6.82085579233171302  3.14159265357011463 6.79292399922269396  3.53429173530093976 6.82085579232443706  3.92699081697810470 6.89318087469655438  4.31968989868596598 6.98773264391159721  4.71238898038468967 7.08228365921673308 
 1.57079632679489656 9 4.71238898038468967 9
7 0 0  8 9 2  1.57079632679489678 0.25000000000000000  1.96349540849362092 0.34455101530513554  2.35619449019031890 0.43910278451301110  2.74889357189022121 0.51142786691161746  3.14159265358466655 0.53935965994878643  3.53429173528638785 0.51142786691207220  3.92699081698356167 0.43910278451295426  4.31968989868596509 0.34455101530513554  4.71238898038468967 0.25000000000000000 
 1.57079632679489656 9 4.71238898038468967 9
7 0 0  5 6 2  4.71238898038468967 7.08228365921673308  4.72163533394891388 7.03226572326186172  4.73088168751312566 6.98224778730698858  4.74012804107737651 6.93223876028167751  4.74937439464158473 6.88224755111495057  4.75862074820580894 6.83228305921672963 
 1.57079632679489656 6 1.61702809461601582 6
7 0 0  5 6 2  4.71238898038468967 0.25000000000000000  4.70314262682046547 0.19998206404512903  4.69389627325625014 0.14996412809022663  4.68464991969202771 0.09995510106496264  4.67540356612779462 0.04996389189821548  4.66615721256357041 -0.00000060000000524 
 1.57079632679489656 6 1.61702809461601582 6
7 0 0  8 23 4  0.00000000000000000 7.31296831284806448  0.19634954084936207 7.31296831284806448  0.39269908169873213 7.29076237207905997  0.58904862254793144 7.24635317497890696  0.78539816339736035 7.18155892199729351  0.98174770424684255 7.10004653201730207  1.17809724509613911 7.00690288082961388  1.37444678594553449 6.90794776904716379  1.86532063806893955 6.66055912854941834  2.15984494934264148 6.51212540635788173  2.45436926060756377 6.38331645961807226  2.74889357189749717 6.29372910504025640  3.04341788315105077 6.25761118797890958  3.33794219443871043 6.27804042931256845  3.63246650571319840 6.34766935452210834  4.22151512826128439 6.55758557686348009  4.51603943953796261 6.69787363468731201  4.81056375076695986 6.85960775282728719  5.10508806210054900 7.02242132167157251  5.39961237332681776 7.16308712442332762  5.69413668463676004 7.26300476101096137  5.98866099590554324 7.31296831284806537  6.28318530717958623 7.31296831284806537 
 0.00000000000000000 9 1.57079632679489700 7 3.92699081698724139 7 6.28318530717958623 9
1 6.28318530717958623 -0.00000000000000000 0.00000000000000000 1.00000000000000000 
1 0.00000000000000000 -0.00000000000000000 0.00000000000000000 1.00000000000000000 
1 6.28318530717958623 -0.00000000000000000 0.00000000000000000 1.00000000000000000 
1 0.00000000000000000 -0.00000000000000000 0.00000000000000000 1.00000000000000000 
7 0 0  5 6 2  4.71238898038468967 0.24999999999999822  4.70314262682046635 0.30001793595486825  4.69389627325625725 0.35003587190978092  4.68464991969202771 0.40004489893503870  4.67540356612779462 0.45003610810178013  4.66615721256357130 0.50000059999999991 
 4.71238898038468967 6 4.75862074820580805 6
7 0 0  5 6 2  4.71238898038468967 7.08228365921673131  4.72163533394891299 7.13230159517160089  4.73088168751313276 7.18231953112652377  4.74012804107738361 7.23232855815177800  4.74937439464158473 7.28231976731851471  4.75862074820580805 7.33228425921673477 
 4.71238898038468967 6 4.75862074820580805 6
7 0 0  8 23 4  0.00000000000000000 1.02726734636866901  0.19634954084936207 1.02726734636866901  0.39269908169888135 1.00506140559817192  0.58904862254793500 0.96065220850299227  0.78539816339758772 0.89585795551732872  0.98174770424713387 0.81434556553392667  1.17809724509601121 0.72120191435213532  1.37444678594553449 0.62224680256776732  1.86532063806893955 0.37485816207002209  2.15984494934264148 0.22642443989242267  2.45436926060756377 0.09761549310906048  2.74889357189749717 0.00802813859812090  3.04341788315105077 -0.02808977851097438  3.33794219443871043 -0.00766053714946580  3.63246650571319796 0.06196838804271192  4.22151512826128439 0.27188461038408379  4.51603943953796261 0.41217266820842724  4.81056375076695986 0.57390678634465075  5.10508806210054900 0.73672035521622092  5.39961237332681776 0.87738615795115038  5.69413668463676004 0.97730379453048499  5.98866099590554324 1.02726734636866901  6.28318530717958623 1.02726734636866901 
 0.00000000000000000 9 1.57079632679489589 7 3.92699081698723962 7 6.28318530717958623 9
7 0 0  5 6 2  1.61702809461601471 0.50000059999999991  1.60778174105179117 0.45003610810178041  1.59853538748756208 0.40004489893503514  1.58928903392335386 0.35003587190977647  1.58004268035911988 0.30001793595486981  1.57079632679489634 0.25000000000000000 
 1.52456455897377841 6 1.57079632679489656 6
7 0 0  5 6 2  1.52456455897377841 7.33228425921673477  1.53381091253800195 7.28231976731851560  1.54305726610222393 7.23232855815174958  1.55230361966645347 7.18231953112655219  1.56154997323067302 7.13230159517160267  1.57079632679489656 7.08228365921673308 
 1.52456455897377841 6 1.57079632679489656 6
1 0.00000000000000000 27.00000000000000000 1.00000000000000000 0.00000000000000000 
1 0.00000000000000000 3.14159265358979312 -0.00000000000000000 -1.00000000000000000 
1 0.00000000000000000 0.00000000000000000 1.00000000000000000 0.00000000000000000 
7 0 0  7 8 2  1.57079632679489634 0.25000000000000000  1.79519580205131013 0.19597084839706538  2.01959527730741684 0.14194191618425123  2.24399475256450387 0.09235517720866682  2.46839422782022666 0.05166090318902405  2.69279370307697263 0.02337286281126438  2.91719317833337932 0.00922781663728324  3.14159265358979312 0.00922781663728323 
 4.71238898038468967 8 6.28318530717958623 8
7 0 0  7 8 2  1.57079632679489656 7.08228365921673308  1.79519580205131035 7.13631281081966762  2.01959527730741684 7.19034174303260443  2.24399475256473124 7.23992848200668959  2.46839422781954454 7.28062275602951559  2.69279370307708632 7.30891079640468888  2.91719317833337932 7.32305584257944808  3.14159265358979312 7.32305584257944808 
 4.71238898038468967 8 6.28318530717958623 8
7 0 0  7 8 2  3.14159265358979312 0.00922781663728323  3.36599212884620691 0.00922781663728323  3.59039160410281966 0.02337286281125728  3.81479107935865613 0.05166090318904537  4.03919055461574317 0.09235517720866682  4.26359002987169333 0.14194191618426188  4.48798950512827588 0.19597084839706538  4.71238898038468967 0.25000000000000000 
 0.00000000000000000 8 1.57079632679489656 8
7 0 0  7 8 2  3.14159265358979312 7.32305584257944808  3.36599212884620691 7.32305584257944808  3.59039160410281966 7.30891079640582575  3.81479107935865613 7.28062275602678710  4.03919055461574317 7.23992848201032757  4.26359002987169333 7.19034174303146756  4.48798950512827588 7.13631281081966762  4.71238898038468967 7.08228365921673308 
 0.00000000000000000 8 1.57079632679489656 8
1 0.00000000000000000 0.00000000000000000 1.00000000000000000 0.00000000000000000 
1 6.28318530717958623 0.00000000000000000 1.00000000000000000 0.00000000000000000 
7 0 0  8 23 4  -0.00000000000000089 0.01931534636866949  0.19634954084936052 0.01931534636866944  0.39269908169954704 0.04152128713911328  0.58904862254903634 0.08593048423454608  0.78539816339773694 0.15072473722007373  0.98174770424694913 0.23223712720333189  1.17809724509680613 0.32538077838533641  1.37444678594553604 0.42433589016957113  1.86532063806894044 0.67172453066731641  2.15984494934739502 0.82015825284383936  2.45436926058093974 0.94896719963389842  2.74889357191270989 1.03855455413304298  3.04341788315353057 1.07467247125305221  3.33794219444164497 1.05424322988585573  3.63246650571319840 0.98461430469462652  4.22151512826128616 0.77469808235325477  4.51603943952861897 0.63441002452856310  4.81056375080945742 0.47267590639216905  5.10508806206483001 0.30986233751900727  5.39961237332020261 0.16919653478578311  5.69413668462650691 0.06927889820616429  5.98866099590553169 0.01931534636866955  6.28318530717957557 0.01931534636866949 
 3.14159265358979267 9 4.71238898038468612 7 7.06858347057703185 7 9.42477796076937935 9
7 0 0  5 6 2  4.75862074820580716 0.50000059999999991  4.74937439464158384 0.45003610810178041  4.74012804107738361 0.40004489893503514  4.73088168751313276 0.35003587190977647  4.72163533394891299 0.30001793595486981  4.71238898038468967 0.25000000000000000 
 1.52456455897377841 6 1.57079632679489656 6
7 0 0  5 6 2  -1.61702809461601493 7.33228425921673477  -1.60778174105179161 7.28231976731851560  -1.59853538748755852 7.23232855815174958  -1.58928903392333609 7.18231953112655219  -1.58004268035911988 7.13230159517160267  -1.57079632679489656 7.08228365921673308 
 1.52456455897377841 6 1.57079632679489656 6
7 0 0  5 6 2  1.57079632679489700 0.24999999999999822  1.56154997323067324 0.30001793595486825  1.55230361966645347 0.35003587190978092  1.54305726610222749 0.40004489893503870  1.53381091253800239 0.45003610810178013  1.52456455897377863 0.50000059999999991 
 4.71238898038468967 6 4.75862074820580805 6
7 0 0  5 6 2  1.57079632679489656 7.08228365921673131  1.58004268035912032 7.13230159517160089  1.58928903392333964 7.18231953112652377  1.59853538748757629 7.23232855815177800  1.60778174105179117 7.28231976731851471  1.61702809461601493 7.33228425921673477 
 4.71238898038468967 6 4.75862074820580805 6
7 0 0  8 23 4  -0.00000000000000089 0.01931534636866949  0.19634954084936052 0.01931534636866944  0.39269908169954704 0.04152128713911328  0.58904862254903634 0.08593048423454608  0.78539816339773694 0.15072473722007373  0.98174770424694913 0.23223712720333189  1.17809724509680613 0.32538077838533641  1.37444678594553604 0.42433589016957113  1.86532063806894044 0.67172453066731641  2.15984494934739502 0.82015825284383936  2.45436926058093974 0.94896719963389842  2.74889357191270989 1.03855455413304298  3.04341788315353057 1.07467247125305221  3.33794219444164497 1.05424322988585573  3.63246650571319840 0.98461430469462652  4.22151512826128616 0.77469808235325477  4.51603943952861897 0.63441002452856310  4.81056375080945742 0.47267590639216905  5.10508806206483001 0.30986233751900727  5.39961237332020261 0.16919653478578311  5.69413668462650691 0.06927889820616429  5.98866099590553169 0.01931534636866955  6.28318530717957557 0.01931534636866949 
 3.14159265358979267 9 4.71238898038468612 7 7.06858347057703185 7 9.42477796076937935 9
1 6.28318530717958623 -0.00000000000000000 0.00000000000000000 1.00000000000000000 
1 0.00000000000000000 -0.00000000000000000 0.00000000000000000 1.00000000000000000 
1 0.00000000000000000 27.00000000000000000 1.00000000000000000 0.00000000000000000 
1 0.00000000000000000 -0.00000000000000000 -0.00000000000000000 -1.00000000000000000 
1 0.00000000000000000 27.00000000000000000 1.00000000000000000 0.00000000000000000 
1 0.00000000000000000 6.28318530717958623 -0.00000000000000000 -1.00000000000000000 
1 0.00000000000000000 7.33228365921673308 1.00000000000000000 0.00000000000000000 
1 0.00000000000000000 -3.14159265358979312 1.00000000000000000 0.00000000000000000 
1 0.00000000000000000 3.14159265358979312 1.00000000000000000 0.00000000000000000 
1 0.61086523819801530 -0.00000000000000000 0.00000000000000000 1.00000000000000000 
1 3.14159265358979312 0.00000000000000000 -1.00000000000000000 -0.00000000000000000 
1 -6.28318530717958623 7.33228365921673308 1.00000000000000000 0.00000000000000000 
1 0.00000000000000000 7.33228365921673308 1.00000000000000000 0.00000000000000000 
1 0.00000000000000000 -3.14159265358979312 1.00000000000000000 0.00000000000000000 
1 0.00000000000000000 3.14159265358979312 1.00000000000000000 0.00000000000000000 
1 0.61086523819801530 -0.00000000000000000 0.00000000000000000 1.00000000000000000 
1 6.28318530717958712 0.00000000000000000 -1.00000000000000000 -0.00000000000000000 
1 0.61086523819801530 -0.00000000000000000 0.00000000000000000 1.00000000000000000 
1 0.00000000000000000 0.00000000000000000 -1.00000000000000000 -0.00000000000000000 
1 0.00000000000000000 21.35653904720793506 1.00000000000000000 0.00000000000000000 
1 6.28318530717958623 -0.00000000000000000 0.00000000000000000 1.00000000000000000 
1 0.00000000000000000 -0.00000000000000000 0.00000000000000000 1.00000000000000000 
1 6.28318530717958623 -0.00000000000000000 0.00000000000000000 1.00000000000000000 
1 0.00000000000000000 -0.00000000000000000 0.00000000000000000 1.00000000000000000 
1 0.00000000000000000 21.35653904720793506 1.00000000000000000 0.00000000000000000 
7 0 0  7 8 2  -1.57079632679489656 7.08228365921673308  -1.34639685153848276 7.13631281081966762  -1.12199737628227325 7.19034174303260443  -0.89759790102632309 7.23992848200668959  -0.67319842576969080 7.28062275602951559  -0.44879895051328589 7.30891079640468888  -0.22439947525641379 7.32305584257944808  0.00000000000000000 7.32305584257944808 
 4.71238898038468967 8 6.28318530717958623 8
7 0 0  7 8 2  4.71238898038468967 0.25000000000000000  4.93678845564110347 0.19597084839706538  5.16118793089731298 0.14194191618425123  5.38558740615326315 0.09235517720866682  5.60998688140989543 0.05166090318902405  5.83438635666630034 0.02337286281126438  6.05878583192317244 0.00922781663728324  6.28318530717958623 0.00922781663728323 
 4.71238898038468967 8 6.28318530717958623 8
7 0 0  7 8 2  0.00000000000000000 7.32305584257944808  0.22439947525641379 7.32305584257944808  0.44879895051283825 7.30891079640582575  0.67319842576875999 7.28062275602678710  0.89759790102573334 7.23992848201032757  1.12199737628191087 7.19034174303146756  1.34639685153848276 7.13631281081966762  1.57079632679489656 7.08228365921673308 
 0.00000000000000000 8 1.57079632679489656 8
7 0 0  7 8 2  6.28318530717958623 0.00922781663728323  6.50758478243600003 0.00922781663728323  6.73198425769239606 0.02337286281125728  6.95638373294891466 0.05166090318904537  7.18078320820543325 0.09235517720866682  7.40518268346166764 0.14194191618426188  7.62958215871806900 0.19597084839706538  7.85398163397448279 0.25000000000000000 
 0.00000000000000000 8 1.57079632679489656 8
Curves 64
2 0.00000000000000000 -19.50000000000000000 3.99999999999999956 0.00000000000000000 1.00000000000000000 -0.00000000000000024 0.00000000000000000 0.00000000000000024 1.00000000000000000 1.00000000000000000 0.00000000000000000 0.00000000000000000 1.14125000000000010
7 0 0  6 32 7  0.45549488204154426 -20.28192303868900837 2.84820721847749514  0.49263023647474397 -20.27349934293744482 2.86728261646563443  0.52887626819104827 -20.26433382243292058 2.88803787123131972  0.56416212662708887 -20.25447380489942262 2.91036580948652013  0.59843026228568885 -20.24396646446041004 2.93415960577051571  0.63163372132393003 -20.23285692213770304 2.95931708385635428  0.68626466614518045 -20.21299461164529276 3.00429514203663350  0.70825180470408433 -20.20452655711531875 3.02347099015704401  0.72968140386863711 -20.19579655176480770 3.04324002401237159  0.75054107205277798 -20.18681826384413824 3.06357129194866973  0.77081947803367756 -20.17760466084975590 3.08443542916420688  0.80522156854297322 -20.16111445774037136 3.12177737461118676  0.81960622082015977 -20.15393630595647778 3.13803224731021846  0.83365595059389375 -20.14663867632657457 3.15455767672576259  0.84736654001008105 -20.13922651700126210 3.17134245780662916  0.86073391054993909 -20.13170460212767665 3.18837577953123885  0.91010706385314821 -20.10278245429965693 3.25386977370700370  0.94375250930287791 -20.08066840405664877 3.30394688023555805  0.97460685635565092 -20.05783424205627341 3.35565467462046163  1.00258656858980189 -20.03437257570226393 3.40878344806704492  1.02761046325347394 -20.01037148609246330 3.46313374156749809  1.09332775166024732 -19.93729193739920191 3.62862185002144422  1.12506193401653198 -19.88687641682455620 3.74278743103286970  1.14419997697631870 -19.83534224552719039 3.85948618849973224  1.15015552636219609 -19.78338147065333530 3.97715098667421652  1.14254685326083227 -19.73174676913264491 4.09407739410331573  1.10784179105304470 -19.64916965057042475 4.28107268070255298  1.08887042308677251 -19.61755420950325401 4.35266561790175732  1.06439899002679117 -19.58660890083512740 4.42274104513936717  1.03447801841199660 -19.55655279549926462 4.49080287787456278  0.99923345442764255 -19.52760889584377324 4.55634612890601343  0.95888273425338966 -19.50000000000000000 4.61886627347977630 
 0.00000000000000000 7 0.11829006611809303 5 0.20131946051562144 5 0.26338089658590408 5 0.43665884549175960 5 0.78118726625627244 5 1.00000000000000000 7
7 0 0  4 5 2  1.13983449231518819 -19.75164882932003252 4.04901080830585691  1.14059032913825553 -19.68859215271230312 4.03773904007511675  1.14104522481477311 -19.62562142836941703 4.02581712300552574  1.14125000089986028 -19.56275257244647747 4.01323905628969335  1.14125000000000010 -19.50000000000000000 4.00000000000000533 
 0.00000000000000000 5 1.00000000000000000 5
7 0 0  6 47 10  1.14124999999999965 -19.50000000000000000 3.99999999998497957  1.14125000462678350 -19.50650946719158441 3.96914538943740114  1.14024897844890449 -19.51298900026893079 3.93828354213339926  1.13824762158654580 -19.51942977247445654 3.90745362575186972  1.13524851109101488 -19.52582325408132391 3.87669465834299443  1.13125610094474349 -19.53216121239345426 3.84604550832824721  1.11432428902238434 -19.55349693426213165 3.74233163779601741  1.09668487334111475 -19.56819268231019748 3.66997366961536464  1.07344630777489791 -19.58241304900853308 3.59900676557068033  1.04475661778796414 -19.59605976412119688 3.52995791031142891  1.01082355982219685 -19.60904714385959124 3.46333956586988689  0.93320499860225914 -19.63349586503755617 3.33627611068424335  0.88956986689333772 -19.64496495347994198 3.27579985607014690  0.84127261876441450 -19.65563874243034093 3.21869985709529027  0.78863419561018555 -19.66545960779583524 3.16543869539974665  0.73203418982749202 -19.67438228287075574 3.11644522691008641  0.63817610436627170 -19.68685572371972725 3.04722105170258928  0.60333065133466868 -19.69104548565905688 3.02380325787596371  0.56745385800945602 -19.69493554123832268 3.00191776586997117  0.53062888011473530 -19.69852080226400304 2.98162673395194622  0.49294422074040889 -19.70179711316415805 2.96298628672336628  0.38342538711965651 -19.71023989019614575 2.91473660229532072  0.30973584954558064 -19.71465219753236653 2.88923394147632484  0.23402450460715596 -19.71797691908446026 2.86985542930715765  0.15693652937734082 -19.72020222922288113 2.85682558944058584  0.07914923284640756 -19.72132320109717440 2.85026343188606157  -0.07776595970026816 -19.72135562874879255 2.85007357939432637  -0.15690337928420309 -19.72022887002650293 2.85666953997916595  -0.23532131426412617 -19.71795950667342368 2.86995899048968361  -0.31230688624819947 -19.71455268134233663 2.88981656132418907  -0.38718173715471554 -19.71002093959367230 2.91600405637393933  -0.49768957160024935 -19.70138998820438303 2.96530351376962598  -0.53528849694571123 -19.69808104175288577 2.98411899802763969  -0.57202009639256957 -19.69446343014438483 3.00458069545079587  -0.60779617678859166 -19.69054136553846490 3.02663206896481851  -0.64253391265301629 -19.68631999861412041 3.05021059423938690  -0.79532796011113083 -19.66580360097529123 3.16399137496443617  -0.90048857107994285 -19.64611760820661601 3.27106831428526990  -0.98817157601696048 -19.62302521418522616 3.39343540925580189  -1.05591564615202960 -19.59696411505504798 3.52734811752119626  -1.10207251664905259 -19.56861162149881039 3.66881887858752265  -1.13104820771160219 -19.53248949086548691 3.84445784571382410  -1.13512357268096498 -19.52608819491859649 3.87541992540888636  -1.13818509039159999 -19.51962995949008572 3.90649534269736121  -1.14022812700947251 -19.51312326935270036 3.93764401175297785  -1.14125000437438984 -19.50657691647073833 3.96882569149575870  -1.14124999999999965 -19.50000000000000000 3.99999998559201364 
 0.00000000000000000 7 0.05201603045429852 5 0.17687459926496607 5 0.30109060893009604 5 0.37079228834660416 5 0.49962244953973889 5 0.63066107012914085 5 0.70036779199045374 5 0.94744154799103841 5 1.00000000000000000 7
7 0 0  4 5 2  -1.13983449231518819 -19.75164882932003252 4.04901080830585780  -1.14059032913825553 -19.68859215271230312 4.03773904007511764  -1.14104522481477333 -19.62562142836942058 4.02581712300551686  -1.14125000089986006 -19.56275257244647392 4.01323905628970223  -1.14125000000000010 -19.50000000000000000 4.00000000000000444 
 0.00000000000000000 5 1.00000000000000000 5
7 0 0  6 32 7  -0.95888273425338977 -19.50000000000000000 4.61886627347977630  -0.99961031282544344 -19.52786675107430980 4.55576221760498612  -1.03513590717803594 -19.55709356156853218 4.48957831702929866  -1.06523593054146137 -19.58745131205567347 4.42083341103487015  -1.08978175962509760 -19.61871070452077603 4.35004674331497654  -1.10872289515200340 -19.65064657238926671 4.27772820194611292  -1.14266910019742540 -19.73303883835858841 4.09115151270398947  -1.14994207674730053 -19.78412491846252763 3.97546745449760808  -1.14394512060004816 -19.83552068148284064 3.85908212157117214  -1.12504883691318436 -19.88649772840889085 3.74364496820602621  -1.09381930163260366 -19.93638558854044618 3.63067427044435043  -1.02899134516269819 -20.00901110472532451 3.46621431531554602  -1.00410560214937683 -20.03303835058714810 3.41180479117192359  -0.97626062899611943 -20.05652937966961957 3.35860952603951457  -0.94553757945987404 -20.07939617873388372 3.30682782525993302  -0.91201994729606062 -20.10154628575532954 3.25666906841789183  -0.86281294711916312 -20.13052386294641849 3.19104955485111441  -0.84948690104693192 -20.13806193562964353 3.17397964388366471  -0.83581703320362466 -20.14549068685108324 3.15715729057424710  -0.82180741598789042 -20.15280535152488284 3.14059328542524696  -0.80746225834179108 -20.16000099170799231 3.12429881037291146  -0.77314858304942613 -20.17653434501866627 3.08685915160779789  -0.75291845148629821 -20.18577392090484679 3.06593619896699332  -0.73210575875532768 -20.19477898130226734 3.04554430495109507  -0.71072179683738212 -20.20353658307220357 3.02571277920395953  -0.68877890200028435 -20.21203308289365097 3.00647251692712825  -0.63383849515787916 -20.23211753193086437 2.96099142762184009  -0.60025110213266653 -20.24340714246108419 2.93542618638493602  -0.56556862557527277 -20.25408027422303903 2.91125695685152364  -0.52983964441973397 -20.26409004072047892 2.88858991315260738  -0.49312384211227278 -20.27338737460497242 2.86753616794316102  -0.45549488204154676 -20.28192303868900837 2.84820721847749514 
 0.00000000000000000 7 0.22085691542229732 5 0.56170873552714096 5 0.73499821242986174 5 0.79707607025120575 5 0.88013777915265035 5 1.00000000000000000 7
2 0.00000000000000000 -19.50000000000000000 3.99999999999999956 0.00000000000000000 1.00000000000000000 -0.00000000000000024 0.00000000000000000 0.00000000000000024 1.00000000000000000 1.00000000000000000 0.00000000000000000 0.00000000000000000 1.14125000000000010
2 -0.00000000000000028 -19.50000000000000000 0.00000000000000000 1.00000000000000000 0.00000000000000000 -0.00000000000000000 0.00000000000000000 0.00000000000000000 1.00000000000000000 0.00000000000000000 -1.00000000000000000 0.00000000000000000 5.14125000000000032
2 0.00000000000000000 -19.50000000000000000 -4.00000000000000000 0.00000000000000000 1.00000000000000000 0.00000000000000000 0.00000000000000000 0.00000000000000000 1.00000000000000000 1.00000000000000000 0.00000000000000000 0.00000000000000000 1.14125000000000010
7 0 0  6 32 7  -0.45549488204154626 -20.28192303868900837 -2.84820721847749514  -0.49263023647339871 -20.27349934293775036 -2.86728261646494254  -0.52887626818838929 -20.26433382243359205 -2.88803787122979783  -0.56416212662321441 -20.25447380490050620 -2.91036580948406831  -0.59843026228068441 -20.24396646446194836 -2.93415960576703760  -0.63163372131785800 -20.23285692213973519 -2.95931708385175174  -0.68626466613826365 -20.21299461164793243 -3.00429514203065740  -0.70825180469729387 -20.20452655711803658 -3.02347099015089604  -0.72968140386197688 -20.19579655176759658 -3.04324002400605709  -0.75054107204625298 -20.18681826384699818 -3.06357129194219624  -0.77081947802729200 -20.17760466085268334 -3.08443542915758062  -0.80522156853683635 -20.16111445774341249 -3.12177737460430160  -0.81960622081413292 -20.15393630595956509 -3.13803224730322405  -0.83365595058797826 -20.14663867632970806 -3.15455767671866383  -0.84736654000427869 -20.13922651700444177 -3.17134245779943047  -0.86073391054425141 -20.13170460213089541 -3.18837577952394424  -0.91010706384792484 -20.10278245430302491 -3.25386977369937958  -0.94375250929797083 -20.08066840406013398 -3.30394688022766125  -0.97460685635111111 -20.05783424205984389 -3.35565467461237876  -1.00258656858564454 -20.03437257570590546 -3.40878344805879951  -1.02761046324967276 -20.01037148609619720 -3.46313374155904574  -1.09332775165763429 -19.93729193740308858 -3.62862185001263793  -1.12506193401471211 -19.88687641682850327 -3.74278743102392575  -1.14419997697537212 -19.83534224553123693 -3.85948618849056269  -1.15015552636207485 -19.78338147065728947 -3.97715098666526856  -1.14254685326160010 -19.73174676913661330 -4.09407739409433535  -1.10784179105494718 -19.64916965057359022 -4.28107268069538183  -1.08887042308874649 -19.61755420950575157 -4.35266561789609874  -1.06439899002859417 -19.58660890083694284 -4.42274104513525668  -1.03447801841340592 -19.55655279550041570 -4.49080287787195065  -0.99923345442845879 -19.52760889584433457 -4.55634612890474955  -0.95888273425338977 -19.50000000000000000 -4.61886627347977630 
 0.00000000000000000 7 0.11829006611372464 5 0.20131946051116067 5 0.26338089658139047 5 0.43665884548723061 5 0.78118726625185564 5 1.00000000000000000 7
7 0 0  4 5 2  -1.13983449231518819 -19.75164882932003252 -4.04901080830585869  -1.14059032913825531 -19.68859215271230312 -4.03773904007511941  -1.14104522481477311 -19.62562142836941348 -4.02581712300553640  -1.14125000089986028 -19.56275257244648458 -4.01323905628967470  -1.14125000000000010 -19.50000000000000000 -4.00000000000000444 
 0.00000000000000000 5 1.00000000000000000 5
7 0 0  6 17 4  -1.14124999999999965 -19.50000000000000000 -3.99999998583769711  -1.14125000441914670 -19.50657674025000787 -3.96882652670724267  -1.14022818171450879 -19.51312291889173522 -3.93764568100100787  -1.13818525439052842 -19.51962943718566024 -3.90649784306812498  -1.13512390036342725 -19.52608750372423785 -3.87542325130463849  -1.13104875296120455 -19.53248863443189265 -3.84446198815349716  -1.10207396469721242 -19.56861064693463703 -3.66882371999439538  -1.05591770843017940 -19.59696320219778798 -3.52735276070070780  -0.98817421857196441 -19.62302437921763243 -3.39343976286054927  -0.90049174502523277 -19.64611686352650111 -3.27107229188103821  -0.79533160147263271 -19.66580295519863597 -3.16399489718413296  -0.57952340902699417 -19.69478085164063330 -3.00328805473022875  -0.47363631981203835 -19.70533945255085584 -2.94335243187447126  -0.36038407105011494 -19.71332129011258871 -2.89711656507003656  -0.24199920507520389 -19.71866704109563884 -2.86581308578440375  -0.12098413933798846 -19.72133941749326169 -2.85016849059204613  -0.00000000000000022 -19.72133941749326169 -2.85016849059204613 
 0.00000000000000000 7 0.10511763009528857 5 0.59928179951137661 5 1.00000000000000000 7
7 0 0  6 22 5  -0.00000000000000014 -19.72133941749326169 -2.85016849059204613  0.12069019925204233 -19.72133941749326169 -2.85016849059204613  0.24141101936764939 -19.71868001360468980 -2.86573715754047420  0.35952099114836950 -19.71336021174633402 -2.89688860979580198  0.47253547216703756 -19.70541694531209487 -2.94290357481558207  0.57823665299801508 -19.69490895406140041 -3.00256081118834173  0.73473620688668639 -19.67396671573753864 -3.11873021768287595  0.79118642210025081 -19.66500787143253959 -3.16789755643287529  0.84366216114560721 -19.65515207887794347 -3.22131984077795108  0.89178516302076416 -19.64444490201015725 -3.27856726738468707  0.93523583178846881 -19.63294428330760155 -3.33917651681630057  1.01246537524865321 -19.60843713633643404 -3.46647428096660803  1.04619413029319652 -19.59542293519487899 -3.53319357579433957  1.07467229564914457 -19.58175197003296475 -3.60232743621177720  1.09769349929785842 -19.56751024399535410 -3.67336297772044551  1.11511112067179452 -19.55279632793328659 -3.74577290625973980  1.13163162896466774 -19.53155917307968537 -3.84895628351165398  1.13547418342334794 -19.52533746190621500 -3.87903145866000232  1.13836056630249005 -19.51906276861934941 -3.90921018798641029  1.14028663955151055 -19.51274287670529972 -3.93945576956437016  1.14125000412845590 -19.50638584346216930 -3.96973136430435325  1.14125000000000010 -19.50000000000000000 -3.99999999595380062 
 0.00000000000000000 7 0.39974886926735692 5 0.64820579644622045 5 0.89793918810292739 5 1.00000000000000000 7
7 0 0  4 5 2  1.13983449231518819 -19.75164882932003252 -4.04901080830585780  1.14059032913825553 -19.68859215271230312 -4.03773904007511764  1.14104522481477355 -19.62562142836941703 -4.02581712300552663  1.14125000089986006 -19.56275257244647747 -4.01323905628968980  1.14125000000000010 -19.50000000000000000 -4.00000000000000533 
 0.00000000000000000 5 1.00000000000000000 5
7 0 0  6 32 7  0.95888273425338977 -19.50000000000000000 -4.61886627347977630  0.99961031282544033 -19.52786675107430625 -4.55576221760499145  1.03513590717804749 -19.55709356156854284 -4.48957831702927468  1.06523593054147070 -19.58745131205568057 -4.42083341103485417  1.08978175962509960 -19.61871070452077959 -4.35004674331497032  1.10872289515201095 -19.65064657238928092 -4.27772820194608094  1.14266910019742496 -19.73303883835859551 -4.09115151270397170  1.14994207674727345 -19.78412491846258092 -3.97546745449748729  1.14394512060011233 -19.83552068148281577 -3.85908212157122854  1.12504883691311997 -19.88649772840895125 -3.74364496820588410  1.09381930163259500 -19.93638558854046394 -3.63067427044430957  1.02899134516266400 -20.00901110472536004 -3.46621431531546786  1.00410560214934286 -20.03303835058718008 -3.41180479117185609  0.97626062899607635 -20.05652937966965510 -3.35860952603943863  0.94553757945982353 -20.07939617873392280 -3.30682782525984909  0.91201994729601277 -20.10154628575536151 -3.25666906841782033  0.86281294711910361 -20.13052386294645402 -3.19104955485103670  0.84948690104687008 -20.13806193562967550 -3.17397964388358966  0.83581703320356115 -20.14549068685111521 -3.15715729057417382  0.82180741598782603 -20.15280535152491481 -3.14059328542517413  0.80746225834172580 -20.16000099170802429 -3.12429881037283774  0.77314858304935719 -20.17653434501869825 -3.08685915160772595  0.75291845148622905 -20.18577392090487521 -3.06593619896692404  0.73210575875525785 -20.19477898130229576 -3.04554430495102846  0.71072179683731040 -20.20353658307223199 -3.02571277920389470  0.68877890200021030 -20.21203308289367939 -3.00647251692706519  0.63383849515781465 -20.23211753193088569 -2.96099142762179302  0.60025110213262056 -20.24340714246110196 -2.93542618638489561  0.56556862557523113 -20.25408027422304968 -2.91125695685149655  0.52983964441969855 -20.26409004072048603 -2.88858991315259361  0.49312384211225968 -20.27338737460497242 -2.86753616794315480  0.45549488204154526 -20.28192303868900837 -2.84820721847749514 
 0.00000000000000000 7 0.22085691542235814 5 0.56170873552724676 5 0.73499821242997143 5 0.79707607025130345 5 0.88013777915272406 5 1.00000000000000000 7
2 0.00000000000000000 -19.50000000000000000 -4.00000000000000000 0.00000000000000000 1.00000000000000000 0.00000000000000000 0.00000000000000000 0.00000000000000000 1.00000000000000000 1.00000000000000000 0.00000000000000000 0.00000000000000000 1.14125000000000010
1 -6.14125000000000032 -19.50000000000000000 4.61886627347978695 -1.00000000000000000 0.00000000000000000 0.00000000000000000 
2 0.00000000000000000 -19.72869366641301525 4.10099112308798741 0.00000000000000000 0.91477466565205712 -0.40396449235194837 0.00000000000000000 0.40396449235194837 0.91477466565205712 1.00000000000000000 0.00000000000000000 0.00000000000000000 1.14125000000000010
2 0.00000000000000000 -19.72869366641301525 4.10099112308798741 0.00000000000000000 0.91477466565205712 -0.40396449235194837 0.00000000000000000 0.40396449235194837 0.91477466565205712 1.00000000000000000 0.00000000000000000 0.00000000000000000 1.14125000000000010
1 -0.00000000000000028 -19.26766918951635432 5.14497771026339734 0.00000000000000000 0.91477466565205712 -0.40396449235194837 
3 0.00000000000000000 -13.25000000000000000 1.24000000000000021 0.00000000000000000 0.97846171760883349 -0.20642835845389923 0.00000000000000000 -0.20642835845389923 -0.97846171760883349 -1.00000000000000000 0.00000000000000000 0.00000000000000000 1.16637164179400799 1.14125000000000010
3 0.00000000000000000 -13.25000000000000000 1.24000000000000021 0.00000000000000000 -0.20642835845389892 -0.97846171760883349 0.00000000000000000 0.97846171760883349 -0.20642835845389892 1.00000000000000000 0.00000000000000000 0.00000000000000000 5.52855241667229880 1.14125000000000010
3 0.00000000000000000 -13.50000000000000000 1.35040000000000004 0.00000000000000000 1.00000000000000000 0.00000000000000000 0.00000000000000000 0.00000000000000000 -1.00000000000000000 -1.00000000000000000 0.00000000000000000 0.00000000000000000 1.24757499617297540 1.14125000000000010
3 0.00000000000000000 -13.25000000000000000 1.24000000000000021 0.00000000000000000 -0.20642835845389892 -0.97846171760883349 0.00000000000000000 0.97846171760883349 -0.20642835845389892 1.00000000000000000 0.00000000000000000 0.00000000000000000 5.52855241667229880 1.14125000000000010
3 0.00000000000000000 -13.25000000000000000 1.24000000000000021 0.00000000000000000 0.97846171760883349 -0.20642835845389923 0.00000000000000000 -0.20642835845389923 -0.97846171760883349 -1.00000000000000000 0.00000000000000000 0.00000000000000000 1.16637164179400799 1.14125000000000010
1 -6.14125000000000032 -19.50000000000000000 -4.61886627347976919 1.00000000000000000 0.00000000000000000 0.00000000000000000 
2 0.00000000000000000 -19.72869366641301525 -4.10099112308798741 -0.00000000000000000 0.91477466565205712 0.40396449235194837 0.00000000000000000 -0.40396449235194837 0.91477466565205712 1.00000000000000000 0.00000000000000000 0.00000000000000000 1.14125000000000010
3 0.00000000000000000 -13.50000000000000000 -1.35040000000000004 0.00000000000000000 1.00000000000000000 0.00000000000000000 0.00000000000000000 0.00000000000000000 1.00000000000000000 1.00000000000000000 0.00000000000000000 0.00000000000000000 1.24757499617297540 1.14125000000000010
3 0.00000000000000000 -13.25000000000000000 -1.24000000000000021 0.00000000000000000 -0.20642835845389892 0.97846171760883349 0.00000000000000000 0.97846171760883349 0.20642835845389892 -1.00000000000000000 0.00000000000000000 0.00000000000000000 5.52855241667229880 1.14125000000000010
3 0.00000000000000000 -13.25000000000000000 -1.24000000000000021 -0.00000000000000000 0.97846171760883349 0.20642835845389923 0.00000000000000000 -0.20642835845389923 0.97846171760883349 1.00000000000000000 0.00000000000000000 0.00000000000000000 1.16637164179400799 1.14125000000000010
3 0.00000000000000000 -13.25000000000000000 -1.24000000000000021 0.00000000000000000 -0.20642835845389892 0.97846171760883349 0.00000000000000000 0.97846171760883349 0.20642835845389892 -1.00000000000000000 0.00000000000000000 0.00000000000000000 5.52855241667229880 1.14125000000000010
3 0.00000000000000000 -13.50000000000000000 -1.35040000000000004 0.00000000000000000 1.00000000000000000 0.00000000000000000 0.00000000000000000 0.00000000000000000 1.00000000000000000 1.00000000000000000 0.00000000000000000 0.00000000000000000 1.24757499617297540 1.14125000000000010
1 -0.00000000000000028 -20.18971814330967618 -3.05700453591257704 0.00000000000000000 0.91477466565205712 0.40396449235194837 
1 -0.00000000000000028 -13.50000000000000000 2.38125000000000009 0.00000000000000000 1.00000000000000000 0.00000000000000000 
3 0.00000000000000000 -13.25000000000000000 1.24000000000000021 0.00000000000000000 -0.20642835845389892 -0.97846171760883349 0.00000000000000000 0.97846171760883349 -0.20642835845389892 1.00000000000000000 0.00000000000000000 0.00000000000000000 5.52855241667229880 1.14125000000000010
3 0.00000000000000000 -12.97670865363133075 1.23999999999999999 0.00000000000000000 0.91477466565205712 -0.40396449235194837 0.00000000000000000 0.40396449235194837 0.91477466565205712 1.00000000000000000 0.00000000000000000 0.00000000000000000 1.24757499617297540 1.14125000000000010
3 0.00000000000000000 -13.25000000000000000 1.24000000000000021 0.00000000000000000 -0.20642835845389892 -0.97846171760883349 0.00000000000000000 0.97846171760883349 -0.20642835845389892 1.00000000000000000 0.00000000000000000 0.00000000000000000 5.52855241667229880 1.14125000000000010
2 0.00000000000000000 13.50000000000000000 1.23999999999999999 0.00000000000000000 1.00000000000000000 0.00000000000000000 0.00000000000000000 0.00000000000000000 1.00000000000000000 1.00000000000000000 0.00000000000000000 0.00000000000000000 1.14125000000000010
2 0.00000000000000000 -13.50000000000000000 1.23999999999999999 0.00000000000000000 1.00000000000000000 0.00000000000000000 0.00000000000000000 0.00000000000000000 1.00000000000000000 1.00000000000000000 0.00000000000000000 0.00000000000000000 1.14125000000000010
3 0.00000000000000000 -13.25000000000000000 1.24000000000000021 0.00000000000000000 0.97846171760883349 -0.20642835845389923 0.00000000000000000 -0.20642835845389923 -0.97846171760883349 -1.00000000000000000 0.00000000000000000 0.00000000000000000 1.16637164179400799 1.14125000000000010
3 0.00000000000000000 -13.25000000000000000 1.24000000000000021 0.00000000000000000 0.97846171760883349 -0.20642835845389923 0.00000000000000000 -0.20642835845389923 -0.97846171760883349 -1.00000000000000000 0.00000000000000000 0.00000000000000000 1.16637164179400799 1.14125000000000010
2 0.00000000000000000 -13.50000000000000000 -1.23999999999999999 0.00000000000000000 1.00000000000000000 0.00000000000000000 0.00000000000000000 0.00000000000000000 1.00000000000000000 1.00000000000000000 0.00000000000000000 0.00000000000000000 1.14125000000000010
2 0.00000000000000000 -13.50000000000000000 -1.23999999999999999 0.00000000000000000 1.00000000000000000 0.00000000000000000 0.00000000000000000 0.00000000000000000 1.00000000000000000 1.00000000000000000 0.00000000000000000 0.00000000000000000 1.14125000000000010
3 0.00000000000000000 -12.97670865363133075 -1.23999999999999999 0.00000000000000000 0.91477466565205712 0.40396449235194837 0.00000000000000000 0.40396449235194837 -0.91477466565205712 -1.00000000000000000 0.00000000000000000 0.00000000000000000 1.24757499617297540 1.14125000000000010
3 0.00000000000000000 -13.25000000000000000 -1.24000000000000021 0.00000000000000000 -0.20642835845389892 0.97846171760883349 0.00000000000000000 0.97846171760883349 0.20642835845389892 -1.00000000000000000 0.00000000000000000 0.00000000000000000 5.52855241667229880 1.14125000000000010
3 0.00000000000000000 -13.25000000000000000 -1.24000000000000021 0.00000000000000000 -0.20642835845389892 0.97846171760883349 0.00000000000000000 0.97846171760883349 0.20642835845389892 -1.00000000000000000 0.00000000000000000 0.00000000000000000 5.52855241667229880 1.14125000000000010
3 0.00000000000000000 -12.97670865363133075 -1.23999999999999999 0.00000000000000000 0.91477466565205712 0.40396449235194837 0.00000000000000000 0.40396449235194837 -0.91477466565205712 -1.00000000000000000 0.00000000000000000 0.00000000000000000 1.24757499617297540 1.14125000000000010
1 -0.00000000000000028 -13.50000000000000000 -0.09874999999999989 0.00000000000000000 1.00000000000000000 0.00000000000000000 
2 0.00000000000000000 13.50000000000000000 -1.23999999999999999 0.00000000000000000 1.00000000000000000 0.00000000000000000 0.00000000000000000 0.00000000000000000 1.00000000000000000 1.00000000000000000 0.00000000000000000 0.00000000000000000 1.14125000000000010
2 0.00000000000000000 13.50000000000000000 -1.23999999999999999 0.00000000000000000 1.00000000000000000 0.00000000000000000 0.00000000000000000 0.00000000000000000 1.00000000000000000 1.00000000000000000 0.00000000000000000 0.00000000000000000 1.14125000000000010
2 0.00000000000000000 -13.02130633358698653 1.13900887691201325 0.00000000000000000 0.91477466565205712 -0.40396449235194837 0.00000000000000000 0.40396449235194837 0.91477466565205712 1.00000000000000000 0.00000000000000000 0.00000000000000000 1.14125000000000010
2 0.00000000000000000 0.00000000000000000 0.00000000000000014 0.00000000000000000 0.00000000000000000 1.00000000000000000 1.00000000000000000 0.00000000000000000 0.00000000000000000 0.00000000000000000 1.00000000000000000 0.00000000000000000 2.85874999999999968
2 3.27660817715596719 2.29430574540418419 0.00000000000000000 0.57357643635104616 -0.81915204428899191 0.00000000000000000 0.81915204428899191 0.57357643635104616 0.00000000000000000 0.00000000000000000 0.00000000000000000 1.00000000000000000 1.14125000000000010
2 0.00000000000000000 -13.02130633358698653 -1.13900887691201325 -0.00000000000000000 0.91477466565205712 0.40396449235194837 0.00000000000000000 -0.40396449235194837 0.91477466565205712 1.00000000000000000 0.00000000000000000 0.00000000000000000 1.14125000000000010
2 0.00000000000000000 -13.02130633358698653 -1.13900887691201325 -0.00000000000000000 0.91477466565205712 0.40396449235194837 0.00000000000000000 -0.40396449235194837 0.91477466565205712 1.00000000000000000 0.00000000000000000 0.00000000000000000 1.14125000000000010
2 0.00000000000000000 0.00000000000000000 0.00000000000000014 0.00000000000000000 0.00000000000000000 1.00000000000000000 1.00000000000000000 0.00000000000000000 0.00000000000000000 0.00000000000000000 1.00000000000000000 0.00000000000000000 2.85874999999999968
2 3.27660817715596719 2.29430574540418419 0.00000000000000000 0.57357643635104616 -0.81915204428899191 0.00000000000000000 0.81915204428899191 0.57357643635104616 0.00000000000000000 0.00000000000000000 0.00000000000000000 1.00000000000000000 1.14125000000000010
2 3.27660817715596719 2.29430574540418419 0.00000000000000000 0.57357643635104616 -0.81915204428899191 0.00000000000000000 0.81915204428899191 0.57357643635104616 0.00000000000000000 0.00000000000000000 0.00000000000000000 1.00000000000000000 1.14125000000000010
2 0.00000000000000000 33.28855836486224007 14.21299938233352655 -0.00000000000000000 0.81915204428899191 0.57357643635104616 0.00000000000000000 -0.57357643635104616 0.81915204428899191 1.00000000000000000 0.00000000000000000 0.00000000000000000 1.14125000000000010
1 -0.00000000000000028 15.13971163741855364 2.89824909338884495 0.00000000000000000 0.81915204428899191 0.57357643635104616 
1 -0.00000000000000028 16.44889985338981475 -1.02853455229922064 0.00000000000000000 0.81915204428899191 -0.57357643635104616 
2 0.00000000000000000 33.28855836486224007 -14.21299938233352655 0.00000000000000000 0.81915204428899191 -0.57357643635104616 0.00000000000000000 0.57357643635104616 0.81915204428899191 1.00000000000000000 0.00000000000000000 0.00000000000000000 1.14125000000000010
3 0.00000000000000000 -13.25000000000000000 -1.24000000000000021 -0.00000000000000000 0.97846171760883349 0.20642835845389923 0.00000000000000000 -0.20642835845389923 0.97846171760883349 1.00000000000000000 0.00000000000000000 0.00000000000000000 1.16637164179400799 1.14125000000000010
3 0.00000000000000000 -13.25000000000000000 -1.24000000000000021 -0.00000000000000000 0.97846171760883349 0.20642835845389923 0.00000000000000000 -0.20642835845389923 0.97846171760883349 1.00000000000000000 0.00000000000000000 0.00000000000000000 1.16637164179400799 1.14125000000000010
Polygon3D 0
PolygonOnTriangulations 0
Surfaces 23
5 0.00000000000000000 -19.50000000000000000 0.00000000000000000 1.00000000000000000 0.00000000000000000 0.00000000000000000 0.00000000000000000 0.00000000000000000 1.00000000000000000 0.00000000000000000 -1.00000000000000000 0.00000000000000000 4.00000000000000000 1.14125000000000010
2 0.00000000000000000 -19.72869366641301525 4.10099112308798741 0.00000000000000000 0.91477466565205712 -0.40396449235194837 0.00000000000000000 0.40396449235194837 0.91477466565205712 1.00000000000000000 0.00000000000000000 0.00000000000000000 1.14125000000000010
2 0.00000000000000000 -19.72869366641301525 -4.10099112308798741 0.00000000000000000 0.91477466565205712 0.40396449235194837 0.00000000000000000 -0.40396449235194837 0.91477466565205712 1.00000000000000000 0.00000000000000000 0.00000000000000000 1.14125000000000010
1 -12.28250000000000064 -19.50000000000000000 -12.28250000000000064 0.00000000000000000 1.00000000000000000 0.00000000000000000 0.00000000000000000 0.00000000000000000 1.00000000000000000 1.00000000000000000 0.00000000000000000 0.00000000000000000 
1 0.00000000000000000 -19.72869366641301525 4.10099112308798741 0.00000000000000000 0.91477466565205712 -0.40396449235194837 0.00000000000000000 0.40396449235194837 0.91477466565205712 1.00000000000000000 0.00000000000000000 0.00000000000000000 
2 0.00000000000000000 -13.50000000000000000 1.23999999999999999 0.00000000000000000 1.00000000000000000 0.00000000000000000 0.00000000000000000 0.00000000000000000 1.00000000000000000 1.00000000000000000 0.00000000000000000 0.00000000000000000 1.14125000000000010
2 0.00000000000000000 -13.50000000000000000 1.23999999999999999 0.00000000000000000 1.00000000000000000 0.00000000000000000 0.00000000000000000 0.00000000000000000 1.00000000000000000 1.00000000000000000 0.00000000000000000 0.00000000000000000 1.14125000000000010
1 -12.28250000000000064 -19.50000000000000000 -12.28250000000000064 0.00000000000000000 1.00000000000000000 0.00000000000000000 0.00000000000000000 0.00000000000000000 1.00000000000000000 1.00000000000000000 0.00000000000000000 0.00000000000000000 
1 0.00000000000000000 -19.72869366641301525 -4.10099112308798741 0.00000000000000000 0.91477466565205712 0.40396449235194837 0.00000000000000000 -0.40396449235194837 0.91477466565205712 1.00000000000000000 0.00000000000000000 0.00000000000000000 
2 0.00000000000000000 -13.50000000000000000 -1.23999999999999999 0.00000000000000000 1.00000000000000000 0.00000000000000000 0.00000000000000000 0.00000000000000000 1.00000000000000000 1.00000000000000000 0.00000000000000000 0.00000000000000000 1.14125000000000010
2 0.00000000000000000 -13.50000000000000000 -1.23999999999999999 0.00000000000000000 1.00000000000000000 0.00000000000000000 0.00000000000000000 0.00000000000000000 1.00000000000000000 1.00000000000000000 0.00000000000000000 0.00000000000000000 1.14125000000000010
2 0.00000000000000000 -19.72869366641301525 4.10099112308798741 0.00000000000000000 0.91477466565205712 -0.40396449235194837 0.00000000000000000 0.40396449235194837 0.91477466565205712 1.00000000000000000 0.00000000000000000 0.00000000000000000 1.14125000000000010
5 0.00000000000000000 0.00000000000000000 0.00000000000000000 0.00000000000000000 0.00000000000000000 1.00000000000000000 1.00000000000000000 0.00000000000000000 0.00000000000000000 0.00000000000000000 1.00000000000000000 0.00000000000000000 4.00000000000000000 1.14125000000000010
1 0.00000000000000000 -13.50000000000000000 1.23999999999999999 0.00000000000000000 1.00000000000000000 0.00000000000000000 0.00000000000000000 0.00000000000000000 1.00000000000000000 1.00000000000000000 0.00000000000000000 0.00000000000000000 
1 0.00000000000000000 -13.50000000000000000 -1.23999999999999999 0.00000000000000000 1.00000000000000000 0.00000000000000000 0.00000000000000000 0.00000000000000000 1.00000000000000000 1.00000000000000000 0.00000000000000000 0.00000000000000000 
2 0.00000000000000000 -19.72869366641301525 -4.10099112308798741 0.00000000000000000 0.91477466565205712 0.40396449235194837 0.00000000000000000 -0.40396449235194837 0.91477466565205712 1.00000000000000000 0.00000000000000000 0.00000000000000000 1.14125000000000010
5 0.00000000000000000 0.00000000000000000 0.00000000000000000 0.00000000000000000 0.00000000000000000 1.00000000000000000 1.00000000000000000 0.00000000000000000 0.00000000000000000 0.00000000000000000 1.00000000000000000 0.00000000000000000 4.00000000000000000 1.14125000000000010
1 0.00000000000000000 -13.02130633358698653 1.13900887691201325 0.00000000000000000 0.91477466565205712 -0.40396449235194837 0.00000000000000000 0.40396449235194837 0.91477466565205712 1.00000000000000000 0.00000000000000000 0.00000000000000000 
2 0.00000000000000000 15.79430574540418419 1.96339182284403280 0.00000000000000000 0.81915204428899191 0.57357643635104616 0.00000000000000000 -0.57357643635104616 0.81915204428899191 1.00000000000000000 0.00000000000000000 0.00000000000000000 1.14125000000000010
1 0.00000000000000000 -13.02130633358698653 -1.13900887691201325 0.00000000000000000 0.91477466565205712 0.40396449235194837 0.00000000000000000 -0.40396449235194837 0.91477466565205712 1.00000000000000000 0.00000000000000000 0.00000000000000000 
2 0.00000000000000000 15.79430574540418419 -1.96339182284403280 0.00000000000000000 0.81915204428899191 -0.57357643635104616 0.00000000000000000 0.57357643635104616 0.81915204428899191 1.00000000000000000 0.00000000000000000 0.00000000000000000 1.14125000000000010
1 0.00000000000000000 33.28855836486224007 14.21299938233352655 0.00000000000000000 0.81915204428899191 0.57357643635104616 0.00000000000000000 -0.57357643635104616 0.81915204428899191 1.00000000000000000 0.00000000000000000 0.00000000000000000 
1 0.00000000000000000 33.28855836486224007 -14.21299938233352655 0.00000000000000000 0.81915204428899191 -0.57357643635104616 0.00000000000000000 0.57357643635104616 0.81915204428899191 1.00000000000000000 0.00000000000000000 0.00000000000000000 
Triangulations 0

TShapes 156
Ve
0.000000100000000
0.000000000000000 -19.500000000000000 5.141250000000000
0 0

0101101
*
Ve
0.000001000000002
0.958882734253390 -19.500000000000000 4.618866273479775
0 0

0101101
*
Ed
 0.000000100000000 1 1 0
1  1 0 0.000000000000000 0.997659178379098
2  1 1 0 0.000000000000000 0.997659178379098
0

0101000
+156 3 -155 3 *
Ve
0.000001000001000
1.139834499601986 -19.751648221408562 4.049010699637925
0 0

0101101
*
Ed
 0.000001000000000 1 1 0
1  2 0 0.701939013789114 1.000000000000000
2  2 1 0 0.701939013789114 1.000000000000000
0

0101000
+153 3 -155 3 *
Ve
0.000000137096578
1.141250000000000 -19.500000000000000 4.000000000000000
0 0

0101101
*
Ed
 0.000000100000000 1 1 0
1  3 0 0.000002410178853 1.000000000000000
2  3 1 0 0.000002410178853 1.000000000000000
2  4 2 0 0.000002410178853 1.000000000000000
0

0101000
+153 3 -151 3 *
Ve
0.000000151489544
-1.141250000000000 -19.500000000000000 4.000000000000000
0 0

0101101
*
Ed
 0.000000137081558 1 1 0
1  4 0 0.000000000000000 1.000000000000000
2  5 1 0 0.000000000000000 1.000000000000000
2  6 2 0 0.000000000000000 1.000000000000000
0

0101000
+151 3 -149 3 *
Ve
0.000001000001000
-1.139834499601986 -19.751648221408566 4.049010699637923
0 0

0101101
*
Ed
 0.000000100000000 1 1 0
1  5 0 0.000002410178843 1.000000000000000
2  7 1 0 0.000002410178843 1.000000000000000
2  8 2 0 0.000002410178843 1.000000000000000
0

0101000
+147 3 -149 3 *
Ve
0.000001000000002
-0.958882734253390 -19.500000000000000 4.618866273479775
0 0

0101101
*
Ed
 0.000001000000000 1 1 0
1  6 0 0.000000000000000 0.298061417317987
2  9 1 0 0.000000000000000 0.298061417317987
0

0101000
+145 3 -147 3 *
Ed
 0.000000100000000 1 1 0
1  7 0 5.285526128800488 6.283185307179586
2  10 1 0 5.285526128800488 6.283185307179586
0

0101000
+145 3 -156 3 *
Ve
0.000000100000001
0.000000000000000 -19.500000000000000 -5.141250000000000
0 0

0101101
*
Ed
 0.000000100000000 1 1 0
1  8 0 0.000000000000000 3.141592653589793
3  11 12CN 1 0 0.000000000000000 3.141592653589793
0

0101000
+156 3 -142 3 *
Ve
0.000001000000002
-0.958882734253390 -19.500000000000000 -4.618866273479775
0 0

0101101
*
Ed
 0.000000100000000 1 1 0
1  9 0 3.141592653589793 4.139251831968892
2  13 1 0 3.141592653589793 4.139251831968892
0

0101000
+142 3 -140 3 *
Ve
0.000001000001000
-1.139834499601986 -19.751648221408558 -4.049010699637935
0 0

0101101
*
Ed
 0.000001000000000 1 1 0
1  10 0 0.701939013789090 1.000000000000000
2  14 1 0 0.701939013789090 1.000000000000000
0

0101000
+138 3 -140 3 *
Ve
0.000000151244049
-1.141250000000000 -19.500000000000000 -4.000000000000000
0 0

0101101
*
Ed
 0.000000100000000 1 1 0
1  11 0 0.000002410178862 1.000000000000000
2  15 1 0 0.000002410178862 1.000000000000000
2  16 3 0 0.000002410178862 1.000000000000000
0

0101000
+138 3 -136 3 *
Ve
0.000000137081750
0.000000000000000 -19.721339417493258 -2.850168490592046
0 0

0101101
*
Ed
 0.000000137081746 1 1 0
1  12 0 0.000000000000000 1.000000000000000
2  17 1 0 0.000000000000000 1.000000000000000
2  18 3 0 0.000000000000000 1.000000000000000
0

0101000
+136 3 -134 3 *
Ve
0.000000104046200
1.141250000000000 -19.500000000000000 -4.000000000000001
0 0

0101101
*
Ed
 0.000000100000000 1 1 0
1  13 0 0.000000000000000 1.000000000000000
2  19 1 0 0.000000000000000 1.000000000000000
2  20 3 0 0.000000000000000 1.000000000000000
0

0101000
+134 3 -132 3 *
Ve
0.000001000001000
1.139834499601986 -19.751648221408562 -4.049010699637925
0 0

0101101
*
Ed
 0.000000100000000 1 1 0
1  14 0 0.000002410178855 1.000000000000000
2  21 1 0 0.000002410178855 1.000000000000000
2  22 3 0 0.000002410178855 1.000000000000000
0

0101000
+130 3 -132 3 *
Ve
0.000001000000003
0.958882734253390 -19.500000000000000 -4.618866273479774
0 0

0101101
*
Ed
 0.000001000000000 1 1 0
1  15 0 0.000000000000000 0.298061417318034
2  23 1 0 0.000000000000000 0.298061417318034
0

0101000
+128 3 -130 3 *
Ed
 0.000000100000000 1 1 0
1  16 0 8.427118782390281 9.424777960769379
2  24 1 0 8.427118782390281 9.424777960769379
0

0101000
+128 3 -142 3 *
Wi

0101100
-154 0 +152 0 -150 0 -148 0 +146 0 +144 0 -143 0 -141 0 -139 0 +137 0 
-135 0 -133 0 -131 0 +129 0 +127 0 -126 0 +141 0 *
Fa
0  0.000000100000000 1 0

0111000
+125 0 *
Ed
 0.000000150000000 1 1 0
1  17 0 -7.100132734253390 -5.182367265746611
0

0101000
+155 3 -145 3 *
Wi

0101100
+143 0 +123 0 +154 0 *
Fa
0  0.000000100000000 4 0

0111000
+122 0 *
Ve
0.000000100000000
0.000000000000000 -19.267669189516354 5.144977710263397
0 0

0101101
*
Ed
 0.000000100000000 1 1 0
1  18 0 4.662578067756077 6.283185307179586
2  25 2 0 4.662578067756077 6.283185307179586
0

0101000
+147 3 -120 3 *
Ed
 0.000000100000000 1 1 0
1  19 0 0.000000000000000 1.620607239423505
2  26 2 0 0.000000000000000 1.620607239423505
0

0101000
+120 3 -153 3 *
Wi

0101100
+119 0 +144 0 +123 0 +152 0 +118 0 *
Fa
0  0.000000100000000 5 0

0111000
+117 0 *
Ve
0.000000100000009
0.000000000000000 -13.009227816637274 2.381249999999998
0 0

0101101
*
Ed
 0.000000100000000 1 1 0
1  20 0 0.000000000000000 6.841511475854029
3  27 28CN 2 0 0.000000000000000 6.841511475854029
0

0101000
+120 3 -115 3 *
Ve
0.000000100000000
1.141250000000000 -13.250000000000000 1.240000000000000
0 0

0101101
*
Ed
 0.000000100000000 1 1 0
1  21 0 3.141592653589793 4.712388980384690
2  29 2 0 3.141592653589793 4.712388980384690
2  30 6 0 3.141592653589793 4.712388980384690
0

0101000
+115 3 -113 3 *
Ve
0.000000100000021
1.140030582693674 -13.500000000000000 1.292743085074000
0 0

0101101
*
Ed
 0.000000100000000 1 1 0
1  22 0 1.570796326794897 1.617027983580920
2  31 2 0 1.570796326794897 1.617027983580920
2  32 7 0 1.570796326794897 1.617027983580920
0

0101000
+113 3 -111 3 *
Ve
0.000000100000020
-1.140030582693674 -13.500000000000000 1.292743085074000
0 0

0101101
*
Ed
 0.000000100000000 1 1 0
1  23 0 4.758620637170695 7.807749977188476
2  33 2 0 4.758620637170695 7.807749977188476
0

0101000
+111 3 -109 3 *
Ve
0.000000100000002
-1.141250000000000 -13.250000000000000 1.240000000000000
0 0

0101101
*
Ed
 0.000000100000000 1 1 0
1  24 0 4.666157323598666 4.712388980384690
2  34 2 0 4.666157323598666 4.712388980384690
2  35 7 0 4.666157323598666 4.712388980384690
0

0101000
+109 3 -107 3 *
Ed
 0.000000100000000 1 1 0
1  25 0 1.570796326794897 3.141592653589793
2  36 2 0 1.570796326794897 3.141592653589793
2  37 6 0 1.570796326794897 3.141592653589793
0

0101000
+107 3 -115 3 *
Wi

0101100
+119 0 -146 0 +148 0 +150 0 +118 0 -114 0 -112 0 -110 0 -108 0 -106 0 
-105 0 +114 0 *
Fa
0  0.000000100000000 2 0

0111000
+104 0 *
Ed
 0.000000150000000 1 1 0
1  26 0 5.182367265746610 7.100132734253391
0

0101000
+140 3 -128 3 *
Wi

0101100
+126 0 +102 0 +139 0 *
Fa
0  0.000000100000000 8 0

0111000
+101 0 *
Ed
 0.000000100000000 1 1 0
1  27 0 1.520985414166288 4.762199893013289
2  38 3 0 1.520985414166288 4.762199893013289
0

0101000
+130 3 -138 3 *
Wi

0101100
+127 0 +102 0 +137 0 +99 0 *
Fa
0  0.000000100000000 9 0

0111000
+98 0 *
Ve
0.000000100000002
0.000000000000000 -13.500000000000000 -0.102825003827024
0 0

0101101
*
Ve
0.000000100000021
1.140030582693674 -13.500000000000000 -1.292743085074001
0 0

0101101
*
Ed
 0.000000100000000 1 1 0
1  28 0 0.000000000000000 1.524564670008891
2  39 3 0 0.000000000000000 1.524564670008891
0

0101000
+96 3 -95 3 *
Ve
0.000000100000002
1.141250000000000 -13.250000000000000 -1.240000000000000
0 0

0101101
*
Ed
 0.000000100000000 1 1 0
1  29 0 4.666157323598666 4.712388980384690
2  40 3 0 4.666157323598666 4.712388980384690
2  41 10 0 4.666157323598666 4.712388980384690
0

0101000
+95 3 -93 3 *
Ve
0.000000100000000
-1.141250000000000 -13.250000000000000 -1.240000000000000
0 0

0101101
*
Ed
 0.000000100000000 1 1 0
1  30 0 1.570796326794897 4.712388980384690
2  42 3 0 1.570796326794897 4.712388980384690
2  43 11 0 1.570796326794897 4.712388980384690
0

0101000
+93 3 -91 3 *
Ve
0.000000100000021
-1.140030582693674 -13.500000000000000 -1.292743085074001
0 0

0101101
*
Ed
 0.000000100000000 1 1 0
1  31 0 1.570796326794897 1.617027983580920
2  44 3 0 1.570796326794897 1.617027983580920
2  45 10 0 1.570796326794897 1.617027983580920
0

0101000
+91 3 -89 3 *
Ed
 0.000000100000000 1 1 0
1  32 0 4.758620637170695 6.283185307179586
2  46 3 0 4.758620637170695 6.283185307179586
0

0101000
+89 3 -96 3 *
Ed
 0.000000100000000 1 1 0
1  33 0 0.512015410355243 7.312968312848066
3  47 48CN 3 0 0.512015410355243 7.312968312848066
0

0101000
+134 3 -96 3 *
Wi

0101100
-94 0 -92 0 -90 0 -88 0 -87 0 +86 0 +133 0 +135 0 +99 0 -129 0 
+131 0 -86 0 *
Fa
0  0.000000100000000 3 0

0111000
+85 0 *
Ve
0.000000100000001
0.000000000000000 13.500000000000000 2.381250000000001
0 0

0101101
*
Ed
 0.000000100000000 1 1 0
1  34 0 0.490772183362726 27.000000000000000
3  49 50CN 6 0 0.490772183362726 27.000000000000000
0

0101000
+115 3 -83 3 *
Ve
0.000000100000002
-1.140030582693675 -13.000000000000000 1.187256914926021
0 0

0101101
*
Ed
 0.000000100000000 1 1 0
1  35 0 4.712388980384690 4.758620637170713
2  51 6 0 4.712388980384690 4.758620637170713
2  52 12 0 4.712388980384690 4.758620637170713
0

0101000
+107 3 -81 3 *
Ve
0.000000100000002
1.140030582693675 -13.000000000000000 1.187256914926022
0 0

0101101
*
Ed
 0.000000100000000 1 1 0
1  36 0 1.617027983580919 4.666157323598667
2  53 6 0 1.617027983580919 4.666157323598667
0

0101000
+79 3 -81 3 *
Ed
 0.000000100000000 1 1 0
1  37 0 1.524564670008874 1.570796326794897
2  54 6 0 1.524564670008874 1.570796326794897
2  55 12 0 1.524564670008874 1.570796326794897
0

0101000
+79 3 -113 3 *
Ed
 0.000000100000001 1 1 0
1  38 0 0.000000000000000 6.283185307179586
2  56 6 0 0.000000000000000 6.283185307179586
2  57 13 6 0.000000000000000 6.283185307179586
0

0101000
+83 3 -83 3 *
Wi

0101100
+82 0 +105 0 -80 0 +78 0 -77 0 +112 0 -82 0 -76 0 *
Fa
0  0.000000100000000 6 0

0111000
+75 0 *
Ed
 0.000000100000000 1 1 0
1  39 0 1.524564670008855 4.758620637170731
2  58 7 0 1.524564670008855 4.758620637170731
0

0101000
+111 3 -109 3 *
Ve
0.000000100000000
0.000000000000000 -13.490772183362717 0.098750000000000
0 0

0101101
*
Ed
 0.000000100000000 1 1 0
1  40 0 4.712388980384690 6.283185307179586
2  59 7 0 4.712388980384690 6.283185307179586
2  60 12 0 4.712388980384690 6.283185307179586
0

0101000
+113 3 -72 3 *
Ed
 0.000000100000000 1 1 0
1  41 0 0.000000000000000 1.570796326794897
2  61 7 0 0.000000000000000 1.570796326794897
2  62 12 0 0.000000000000000 1.570796326794897
0

0101000
+72 3 -107 3 *
Wi

0101100
+106 0 +73 0 +110 0 -71 0 -70 0 *
Fa
0  0.000000100000000 7 0

0111000
+69 0 *
Wi

0101100
-108 0 +73 0 *
Fa
0  0.000000100000000 14 0

0111000
+67 0 *
Ve
0.000000100000000
0.000000000000000 -13.500000000000000 -0.098750000000000
0 0

0101101
*
Ed
 0.000000100000000 1 1 0
1  42 0 4.666157323598648 6.283185307179586
2  63 10 0 4.666157323598648 6.283185307179586
0

0101000
+89 3 -65 3 *
Ed
 0.000000100000000 1 1 0
1  43 0 0.000000000000000 1.617027983580938
2  64 10 0 0.000000000000000 1.617027983580938
0

0101000
+65 3 -95 3 *
Wi

0101100
+64 0 -87 0 -94 0 +63 0 *
Fa
0  0.000000100000000 15 0

0111000
+62 0 *
Ve
0.000000100000002
-1.140030582693675 -13.000000000000000 -1.187256914926022
0 0

0101101
*
Ve
0.000000100000000
0.000000000000000 -13.480684653631331 -0.098750000000000
0 0

0101101
*
Ed
 0.000000100000000 1 1 0
1  44 0 7.900213290760504 9.424777960769379
2  65 11 0 7.900213290760504 9.424777960769379
0

0101000
+60 3 -59 3 *
Ed
 0.000000100000000 1 1 0
1  45 0 1.524564670008874 1.570796326794897
2  66 11 0 1.524564670008874 1.570796326794897
2  67 16 0 1.524564670008874 1.570796326794897
0

0101000
+60 3 -91 3 *
Ve
0.000000100000002
1.140030582693675 -13.000000000000000 -1.187256914926022
0 0

0101101
*
Ed
 0.000000100000000 1 1 0
1  46 0 4.712388980384690 4.758620637170713
2  68 11 0 4.712388980384690 4.758620637170713
2  69 16 0 4.712388980384690 4.758620637170713
0

0101000
+93 3 -56 3 *
Ed
 0.000000100000000 1 1 0
1  47 0 3.141592653589793 4.666157323598668
2  70 11 0 3.141592653589793 4.666157323598668
0

0101000
+59 3 -56 3 *
Ve
0.000000100000001
0.000000000000000 13.500000000000000 -0.098750000000000
0 0

0101101
*
Ed
 0.000000100000000 1 1 0
1  48 0 0.019315346368669 27.000000000000000
3  71 72CN 11 0 0.019315346368669 27.000000000000000
0

0101000
+59 3 -53 3 *
Ve
0.000000100000001
0.000000000000000 13.500000000000000 -2.381250000000001
0 0

0101101
*
Ed
 0.000000100000001 1 1 0
1  49 0 0.000000000000000 3.141592653589793
2  73 11 0 0.000000000000000 3.141592653589793
2  74 17 9 0.000000000000000 3.141592653589793
0

0101000
+53 3 -51 3 *
Ed
 0.000000100000001 1 1 0
1  50 0 3.141592653589793 6.283185307179586
2  75 11 0 3.141592653589793 6.283185307179586
2  76 17 9 3.141592653589793 6.283185307179586
0

0101000
+51 3 -53 3 *
Wi

0101100
+58 0 -57 0 +90 0 -55 0 +54 0 -52 0 -50 0 -49 0 +52 0 *
Fa
0  0.000000100000000 11 0

0111000
+48 0 *
Ed
 0.000000100000000 1 1 0
1  51 0 1.524564670008873 4.758620637170713
2  77 12 0 1.524564670008873 4.758620637170713
0

0101000
+79 3 -81 3 *
Wi

0101100
+70 0 +71 0 +77 0 -46 0 +80 0 *
Fa
0  0.000000100000000 12 0

0111000
+45 0 *
Wi

0101100
-78 0 +46 0 *
Fa
0  0.000000100000000 18 0

0111000
+43 0 *
Ve
0.000000100000003
0.000000000000000 15.139711637418552 2.898249093388845
0 0

0101101
*
Ed
 0.000000100000000 1 1 0
1  52 0 0.000000000000000 0.610865238198015
3  78 79CN 13 0 0.000000000000000 0.610865238198015
0

0101000
+83 10 -41 10 *
Ed
 0.000000100000001 1 1 0
1  53 0 -3.141592653589793 3.141592653589793
2  80 13 0 -3.141592653589793 3.141592653589793
2  81 19 11 -3.141592653589793 3.141592653589793
0

0101000
+41 10 -41 10 *
Wi

0101100
-40 6 +39 6 +40 6 +76 0 *
Fa
0  0.000000100000000 13 6

0111000
+38 0 *
Ve
0.000000100000000
0.000000000000000 -13.482330810483647 -0.095022289736603
0 0

0101101
*
Ed
 0.000000100000000 1 1 0
1  54 0 4.666157323598665 6.283185307179586
2  82 16 0 4.666157323598665 6.283185307179586
0

0101000
+60 3 -36 3 *
Ed
 0.000000100000000 1 1 0
1  55 0 0.000000000000000 1.617027983580921
2  83 16 0 0.000000000000000 1.617027983580921
0

0101000
+36 3 -56 3 *
Wi

0101100
+35 0 -58 0 -54 0 +34 0 *
Fa
0  0.000000100000000 20 0

0111000
+33 0 *
Ve
0.000000100000001
0.000000000000000 15.139711637418554 -2.898249093388845
0 0

0101101
*
Ed
 0.000000100000000 1 1 0
1  56 0 0.000000000000000 0.610865238198015
3  84 85CN 17 0 0.000000000000000 0.610865238198015
0

0101000
+51 12 -31 12 *
Ve
0.000000100000001
0.000000000000000 16.448899853389815 -1.028534552299221
0 0

0101101
*
Ed
 0.000000100000001 1 1 0
1  57 0 0.000000000000001 3.141592653589793
2  86 17 0 0.000000000000001 3.141592653589793
2  87 21 13 0.000000000000001 3.141592653589793
0

0101000
+29 12 -31 12 *
Ed
 0.000000100000001 1 1 0
1  58 0 -3.141592653589793 0.000000000000001
2  88 17 0 -3.141592653589793 0.000000000000001
2  89 21 13 -3.141592653589793 0.000000000000001
0

0101000
+31 12 -29 12 *
Wi

0101100
+49 0 -30 9 +28 9 +27 9 +30 9 +50 0 *
Fa
0  0.000000100000000 17 9

0111000
+26 0 *
Ve
0.000000100000000
0.000000000000000 32.633964256876610 15.147856652878339
0 0

0101101
*
Ed
 0.000000100000000 1 1 0
1  59 0 0.000000000000000 6.283185307179586
2  90 19 0 0.000000000000000 6.283185307179586
0

0101000
+24 3 -24 3 *
Ed
 0.000000100000000 1 1 0
1  60 0 0.000000000000000 21.356539047207935
3  91 92CN 19 0 0.000000000000000 21.356539047207935
0

0101000
+41 3 -24 3 *
Wi

0101100
-23 0 +22 0 -39 6 -22 0 *
Fa
0  0.000000100000000 19 0

0111000
+21 0 *
Ve
0.000000100000000
0.000000000000000 33.943152472847871 -13.278142111788714
0 0

0101101
*
Ed
 0.000000100000000 1 1 0
1  61 0 0.000000000000000 21.356539047207935
3  93 94CN 21 0 0.000000000000000 21.356539047207935
0

0101000
+29 3 -19 3 *
Ed
 0.000000100000000 1 1 0
1  62 0 0.000000000000000 6.283185307179586
2  95 21 0 0.000000000000000 6.283185307179586
0

0101000
+19 3 -19 3 *
Wi

0101100
+18 0 -28 9 -27 9 -18 0 -17 0 *
Fa
0  0.000000100000000 21 0

0111000
+16 0 *
Wi

0101100
+23 0 *
Fa
0  0.000000100000000 22 0

0111000
+14 0 *
Wi

0101100
+17 0 *
Fa
0  0.000000100000000 23 0

0111000
+12 0 *
Ve
0.000000100000009
0.000000000000000 -13.490772183362708 -0.098749999999998
0 0

0101101
*
Ed
 0.000000100000000 1 1 0
1  63 0 4.712388980384690 6.283185307179586
2  96 16 0 4.712388980384690 6.283185307179586
2  97 10 0 4.712388980384690 6.283185307179586
0

0101000
+91 3 -10 3 *
Ed
 0.000000100000000 1 1 0
1  64 0 0.000000000000000 1.570796326794897
2  98 16 0 0.000000000000000 1.570796326794897
2  99 10 0 0.000000000000000 1.570796326794897
0

0101000
+10 3 -93 3 *
Wi

0101100
-35 0 +57 0 +9 0 +8 0 +55 0 -34 0 *
Fa
0  0.000000100000000 16 0

0111000
+7 0 *
Wi

0101100
-9 0 +88 0 +64 0 +63 0 +92 0 -8 0 *
Fa
0  0.000000100000000 10 0

0111000
+5 0 *
Sh

0101100
+124 0 +121 0 -116 0 +103 0 +100 0 -97 0 +84 0 +74 0 +68 0 -66 0 
-61 0 +47 0 +44 0 +42 0 +37 0 +32 0 +25 0 +20 0 +15 0 +13 0 
+11 0 +6 0 +4 0 *
So

0100000
+3 0 *
Co

1100000
+2 0 *

+1 1 