
CASCADE Topology V1, (c) Matra-Datavision
Locations 3
1
1.000000000000000 0.000000000000000 0.000000000000000 0.000000000000000 
0.000000000000000 1.000000000000000 0.000000000000000 0.000000000000000 
0.000000000000000 0.000000000000000 1.000000000000000 0.000000000000000 
1
1.000000000000000 0.000000000000000 0.000000000000000 0.000000000000000 
0.000000000000000 1.000000000000000 0.000000000000000 0.000000000000000 
0.000000000000000 0.000000000000000 1.000000000000000 0.000000000000000 
2  2 -1 0
Curve2ds 26
1 3.14159265358979312 1.00000000000000000 0.00000000000000000 1.00000000000000000 
1 0.00000000000000000 7.34999999999999964 1.00000000000000000 0.00000000000000000 
1 0.00000000000000000 7.34999999999999964 1.00000000000000000 0.00000000000000000 
1 0.00000000000000000 1.00000000000000000 1.00000000000000000 0.00000000000000000 
1 0.00000000000000000 39.10000000000000142 1.00000000000000000 0.00000000000000000 
1 4.71238898038468967 1.00000000000000000 0.00000000000000000 1.00000000000000000 
1 6.28318530717958623 -0.00000000000000000 0.00000000000000000 1.00000000000000000 
1 0.00000000000000000 -0.00000000000000000 0.00000000000000000 1.00000000000000000 
1 0.00000000000000000 1.00000000000000000 1.00000000000000000 0.00000000000000000 
1 6.28318530717958623 -0.00000000000000000 0.00000000000000000 1.00000000000000000 
1 0.00000000000000000 -0.00000000000000000 0.00000000000000000 1.00000000000000000 
1 0.00000000000000000 1.00000000000000000 1.00000000000000000 0.00000000000000000 
1 6.28318530717958623 0.00000000000000000 1.00000000000000000 0.00000000000000000 
1 0.00000000000000000 0.00000000000000000 1.00000000000000000 0.00000000000000000 
1 0.00000000000000000 1.00000000000000000 1.00000000000000000 0.00000000000000000 
1 0.00000000000000000 1.00000000000000000 1.00000000000000000 0.00000000000000000 
1 0.00000000000000000 1.00000000000000000 1.00000000000000000 0.00000000000000000 
1 0.00000000000000000 7.34999999999999964 1.00000000000000000 0.00000000000000000 
1 0.00000000000000000 7.34999999999999964 1.00000000000000000 0.00000000000000000 
1 0.00000000000000000 7.34999999999999964 1.00000000000000000 0.00000000000000000 
1 6.28318530717958623 -0.00000000000000000 0.00000000000000000 1.00000000000000000 
1 0.00000000000000000 -0.00000000000000000 0.00000000000000000 1.00000000000000000 
1 7.85398163397448279 0.00000000000000000 0.00000000000000000 1.00000000000000000 
1 4.71238898038468967 0.00000000000000000 0.00000000000000000 1.00000000000000000 
1 0.00000000000000000 6.34999999999999964 1.00000000000000000 0.00000000000000000 
1 6.28318530717958623 6.34999999999999964 1.00000000000000000 0.00000000000000000 
Curves 42
1 0.00000000000000000 -31.75000000000000000 6.34999999999999964 0.00000000000000000 1.00000000000000000 0.00000000000000000 
1 0.00000000000000000 -31.75000000000000000 6.34999999999999964 1.00000000000000000 0.00000000000000000 0.00000000000000000 
1 63.50000000000000000 -31.75000000000000000 6.34999999999999964 0.00000000000000000 1.00000000000000000 0.00000000000000000 
1 6.34999999999999964 -19.05000000000000071 6.34999999999999964 1.00000000000000000 0.00000000000000000 0.00000000000000000 
1 0.00000000000000000 31.75000000000000000 6.34999999999999964 1.00000000000000000 0.00000000000000000 0.00000000000000000 
1 12.69999999999999929 -19.05000000000000071 6.34999999999999964 0.00000000000000000 1.00000000000000000 0.00000000000000000 
1 0.00000000000000000 -31.75000000000000000 6.34999999999999964 0.00000000000000000 1.00000000000000000 0.00000000000000000 
1 0.00000000000000000 19.04999999999999716 6.34999999999999964 -1.00000000000000000 0.00000000000000000 0.00000000000000000 
2 44.45000000000000284 -19.05000000000000071 6.34999999999999964 0.00000000000000000 0.00000000000000000 1.00000000000000000 1.00000000000000000 0.00000000000000000 0.00000000000000000 0.00000000000000000 1.00000000000000000 0.00000000000000000 6.50000000000000000
2 44.45000000000000284 19.05000000000000071 6.34999999999999964 0.00000000000000000 0.00000000000000000 1.00000000000000000 1.00000000000000000 0.00000000000000000 0.00000000000000000 0.00000000000000000 1.00000000000000000 0.00000000000000000 6.50000000000000000
1 0.00000000000000000 -31.75000000000000000 0.00000000000000000 1.00000000000000000 0.00000000000000000 0.00000000000000000 
1 63.50000000000000000 -31.75000000000000000 0.00000000000000000 0.00000000000000000 0.00000000000000000 1.00000000000000000 
1 0.00000000000000000 -31.75000000000000000 0.00000000000000000 0.00000000000000000 0.00000000000000000 1.00000000000000000 
1 63.50000000000000000 31.75000000000000000 0.00000000000000000 0.00000000000000000 0.00000000000000000 1.00000000000000000 
1 63.50000000000000000 -31.75000000000000000 0.00000000000000000 0.00000000000000000 1.00000000000000000 0.00000000000000000 
1 0.00000000000000000 31.75000000000000000 0.00000000000000000 1.00000000000000000 0.00000000000000000 0.00000000000000000 
1 0.00000000000000000 31.75000000000000000 0.00000000000000000 0.00000000000000000 0.00000000000000000 1.00000000000000000 
2 12.69999999999999929 -19.05000000000000071 12.69999999999999929 0.00000000000000000 1.00000000000000000 0.00000000000000000 0.00000000000000000 0.00000000000000000 1.00000000000000000 1.00000000000000000 0.00000000000000000 0.00000000000000000 6.34999999999999964
2 12.69999999999999929 19.05000000000000071 12.69999999999999929 0.00000000000000000 1.00000000000000000 0.00000000000000000 0.00000000000000000 0.00000000000000000 1.00000000000000000 1.00000000000000000 0.00000000000000000 0.00000000000000000 6.34999999999999964
1 6.34999999999999964 -19.05000000000000071 12.69999999999999929 0.00000000000000000 1.00000000000000000 0.00000000000000000 
1 50.95000000000000284 -19.05000000000000426 -1.00000000000000000 0.00000000000000000 0.00000000000000000 1.00000000000000000 
2 44.45000000000000284 -19.05000000000000071 0.00000000000000000 0.00000000000000000 0.00000000000000000 1.00000000000000000 1.00000000000000000 0.00000000000000000 0.00000000000000000 0.00000000000000000 1.00000000000000000 0.00000000000000000 6.50000000000000000
1 50.95000000000000284 19.04999999999999716 -1.00000000000000000 0.00000000000000000 0.00000000000000000 1.00000000000000000 
2 44.45000000000000284 19.05000000000000071 0.00000000000000000 0.00000000000000000 0.00000000000000000 1.00000000000000000 1.00000000000000000 0.00000000000000000 0.00000000000000000 0.00000000000000000 1.00000000000000000 0.00000000000000000 6.50000000000000000
1 0.00000000000000000 -19.05000000000000071 0.00000000000000000 0.00000000000000000 0.00000000000000000 1.00000000000000000 
2 0.00000000000000000 0.00000000000000000 23.07794117647063104 1.00000000000000000 0.00000000000000000 -0.00000000000000000 0.00000000000000000 0.00000000000000000 1.00000000000000000 0.00000000000000000 -1.00000000000000000 0.00000000000000000 19.05000000000000071
2 0.00000000000000000 0.00000000000000000 23.07794117647063104 1.00000000000000000 0.00000000000000000 -0.00000000000000000 0.00000000000000000 0.00000000000000000 1.00000000000000000 0.00000000000000000 -1.00000000000000000 0.00000000000000000 19.05000000000000071
1 0.00000000000000000 19.05000000000000071 0.00000000000000000 0.00000000000000000 0.00000000000000000 1.00000000000000000 
1 0.00000000000000000 -31.75000000000000000 0.00000000000000000 0.00000000000000000 1.00000000000000000 0.00000000000000000 
2 0.00000000000000000 0.00000000000000000 23.07794117647063104 1.00000000000000000 0.00000000000000000 -0.00000000000000000 0.00000000000000000 0.00000000000000000 1.00000000000000000 0.00000000000000000 -1.00000000000000000 0.00000000000000000 10.00000000000000000
2 0.00000000000000000 0.00000000000000000 23.07794117647063104 1.00000000000000000 0.00000000000000000 -0.00000000000000000 0.00000000000000000 0.00000000000000000 1.00000000000000000 0.00000000000000000 -1.00000000000000000 0.00000000000000000 10.00000000000000000
2 0.00000000000000000 0.00000000000000000 23.07794117647063104 1.00000000000000000 0.00000000000000000 -0.00000000000000000 0.00000000000000000 0.00000000000000000 1.00000000000000000 0.00000000000000000 -1.00000000000000000 0.00000000000000000 10.00000000000000000
2 6.34999999999999964 0.00000000000000000 23.07794117647063104 1.00000000000000000 0.00000000000000000 -0.00000000000000000 0.00000000000000000 0.00000000000000000 1.00000000000000000 0.00000000000000000 -1.00000000000000000 0.00000000000000000 10.00000000000000000
2 6.34999999999999964 0.00000000000000000 23.07794117647063104 1.00000000000000000 0.00000000000000000 -0.00000000000000000 0.00000000000000000 0.00000000000000000 1.00000000000000000 0.00000000000000000 -1.00000000000000000 0.00000000000000000 10.00000000000000000
2 6.34999999999999964 0.00000000000000000 23.07794117647063104 1.00000000000000000 0.00000000000000000 -0.00000000000000000 0.00000000000000000 0.00000000000000000 1.00000000000000000 0.00000000000000000 -1.00000000000000000 0.00000000000000000 10.00000000000000000
1 -1.00000000000000000 0.00000000000000245 33.07794117647063104 1.00000000000000000 0.00000000000000000 0.00000000000000000 
1 6.34999999999999964 -19.05000000000000071 0.00000000000000000 0.00000000000000000 0.00000000000000000 1.00000000000000000 
1 0.00000000000000000 -19.05000000000000071 23.07794117647063104 1.00000000000000000 0.00000000000000000 0.00000000000000000 
1 0.00000000000000000 19.05000000000000071 23.07794117647063104 1.00000000000000000 0.00000000000000000 0.00000000000000000 
1 6.34999999999999964 19.05000000000000071 0.00000000000000000 0.00000000000000000 0.00000000000000000 1.00000000000000000 
2 6.34999999999999964 0.00000000000000000 23.07794117647063104 1.00000000000000000 0.00000000000000000 -0.00000000000000000 0.00000000000000000 0.00000000000000000 1.00000000000000000 0.00000000000000000 -1.00000000000000000 0.00000000000000000 19.05000000000000071
2 6.34999999999999964 0.00000000000000000 23.07794117647063104 1.00000000000000000 0.00000000000000000 -0.00000000000000000 0.00000000000000000 0.00000000000000000 1.00000000000000000 0.00000000000000000 -1.00000000000000000 0.00000000000000000 19.05000000000000071
Polygon3D 0
PolygonOnTriangulations 0
Surfaces 14
1 0.00000000000000000 -31.75000000000000000 6.34999999999999964 0.00000000000000000 0.00000000000000000 1.00000000000000000 1.00000000000000000 0.00000000000000000 0.00000000000000000 0.00000000000000000 1.00000000000000000 0.00000000000000000 
2 12.69999999999999929 -20.05000000000000071 12.69999999999999929 0.00000000000000000 1.00000000000000000 0.00000000000000000 0.00000000000000000 0.00000000000000000 1.00000000000000000 1.00000000000000000 0.00000000000000000 0.00000000000000000 6.34999999999999964
2 44.45000000000000284 -19.05000000000000071 -1.00000000000000000 0.00000000000000000 0.00000000000000000 1.00000000000000000 1.00000000000000000 0.00000000000000000 0.00000000000000000 0.00000000000000000 1.00000000000000000 0.00000000000000000 6.50000000000000000
2 44.45000000000000284 19.05000000000000071 -1.00000000000000000 0.00000000000000000 0.00000000000000000 1.00000000000000000 1.00000000000000000 0.00000000000000000 0.00000000000000000 0.00000000000000000 1.00000000000000000 0.00000000000000000 6.50000000000000000
1 0.00000000000000000 -31.75000000000000000 0.00000000000000000 0.00000000000000000 1.00000000000000000 0.00000000000000000 0.00000000000000000 0.00000000000000000 1.00000000000000000 1.00000000000000000 0.00000000000000000 0.00000000000000000 
1 63.50000000000000000 -31.75000000000000000 0.00000000000000000 1.00000000000000000 0.00000000000000000 0.00000000000000000 0.00000000000000000 0.00000000000000000 1.00000000000000000 0.00000000000000000 -1.00000000000000000 0.00000000000000000 
1 0.00000000000000000 31.75000000000000000 0.00000000000000000 0.00000000000000000 1.00000000000000000 0.00000000000000000 0.00000000000000000 0.00000000000000000 1.00000000000000000 1.00000000000000000 0.00000000000000000 0.00000000000000000 
1 0.00000000000000000 0.00000000000000088 14.21253309028291056 -1.00000000000000000 -0.00000000000000000 -0.00000000000000000 0.00000000000000000 0.00000000000000000 -1.00000000000000000 0.00000000000000000 -1.00000000000000000 0.00000000000000000 
2 0.00000000000000000 0.00000000000000000 23.07794117647063104 1.00000000000000000 0.00000000000000000 0.00000000000000000 0.00000000000000000 0.00000000000000000 1.00000000000000000 0.00000000000000000 -1.00000000000000000 0.00000000000000000 19.05000000000000071
2 -1.00000000000000000 0.00000000000000000 23.07794117647063104 1.00000000000000000 0.00000000000000000 0.00000000000000000 0.00000000000000000 0.00000000000000000 1.00000000000000000 0.00000000000000000 -1.00000000000000000 0.00000000000000000 10.00000000000000000
1 0.00000000000000000 -31.75000000000000000 0.00000000000000000 0.00000000000000000 0.00000000000000000 1.00000000000000000 1.00000000000000000 0.00000000000000000 0.00000000000000000 0.00000000000000000 1.00000000000000000 0.00000000000000000 
1 4.51635949185913610 -19.05000000000000071 13.30422484411566764 -0.00000000000000000 -1.00000000000000000 -0.00000000000000000 0.00000000000000000 0.00000000000000000 -1.00000000000000000 1.00000000000000000 0.00000000000000000 0.00000000000000000 
1 4.51635949185913699 19.05000000000000426 13.30422484411566764 0.00000000000000000 1.00000000000000000 0.00000000000000000 0.00000000000000000 0.00000000000000000 1.00000000000000000 1.00000000000000000 0.00000000000000000 0.00000000000000000 
1 6.35000000000000231 0.00000000000000060 24.75536329489828447 1.00000000000000000 0.00000000000000000 0.00000000000000000 0.00000000000000000 0.00000000000000000 1.00000000000000000 0.00000000000000000 -1.00000000000000000 0.00000000000000000 
Triangulations 0

TShapes 109
Ve
0.000000100000004
0.000000000000000 -31.750000000000000 6.350000000000000
0 0

0101101
*
Ve
0.000000150000000
0.000000000000000 -19.050000000000001 6.350000000000000
0 0

0101101
*
Ed
 0.000000100000004 1 1 0
1  1 0 0.000000000000000 12.699999999999999
0

0101000
+109 3 -108 3 *
Ve
0.000000100000000
63.500000000000000 -31.750000000000000 6.350000000000000
0 0

0101101
*
Ed
 0.000000100000000 1 1 0
1  2 0 0.000000000000000 63.500000000000000
0

0101000
-106 3 +109 3 *
Ve
0.000000100000000
63.500000000000000 31.750000000000000 6.350000000000000
0 0

0101101
*
Ed
 0.000000100000000 1 1 0
1  3 0 0.000000000000000 63.500000000000000
0

0101000
-104 3 +106 3 *
Ve
0.000000150000000
12.699999999999999 -19.050000000000001 6.350000000000000
0 0

0101101
*
Ed
 0.000000100000000 1 1 0
1  4 0 -6.350000000000000 6.350000000000000
0

0101000
+108 3 -102 3 *
Ve
0.000000100000004
0.000000000000000 31.750000000000000 6.350000000000000
0 0

0101101
*
Ed
 0.000000100000000 1 1 0
1  5 0 0.000000000000000 63.500000000000000
0

0101000
-104 3 +100 3 *
Ve
0.000000150000000
12.699999999999999 19.050000000000001 6.350000000000000
0 0

0101101
*
Ed
 0.000000100000005 1 1 0
1  6 0 0.000000000000000 38.100000000000001
2  1 2 0 0.000000000000000 38.100000000000001
0

0101000
+102 3 -98 3 *
Ve
0.000000150000000
0.000000000000000 19.049999999999997 6.350000000000000
0 0

0101101
*
Ed
 0.000000100000004 1 1 0
1  7 0 50.799999999999997 63.500000000000000
0

0101000
+96 3 -100 3 *
Ed
 0.000000100000000 1 1 0
1  8 0 -12.699999999999999 0.000000000000000
0

0101000
+98 3 -96 3 *
Wi

0101000
-107 0 +105 0 +103 0 -101 0 -99 0 -97 0 -95 0 -94 0 *
Ve
0.000000100000004
50.950000000000003 -19.050000000000004 6.350000000000000
0 0

0101101
*
Ed
 0.000000100000000 1 1 0
1  9 0 0.000000000000000 6.283185307179586
2  2 3 0 0.000000000000000 6.283185307179586
0

0101100
+92 3 -92 3 *
Wi

0101100
-91 0 *
Ve
0.000000100000004
50.950000000000003 19.049999999999997 6.350000000000000
0 0

0101101
*
Ed
 0.000000100000000 1 1 0
1  10 0 0.000000000000000 6.283185307179586
2  3 4 0 0.000000000000000 6.283185307179586
0

0101100
+89 3 -89 3 *
Wi

0101100
-88 0 *
Fa
0  0.000000100000000 1 0

0101000
+93 0 +90 0 +87 0 *
Ve
0.000000100000004
63.500000000000000 -31.750000000000000 0.000000000000000
0 0

0101101
*
Ve
0.000000100000004
0.000000000000000 -31.750000000000000 0.000000000000000
0 0

0101101
*
Ed
 0.000000100000004 1 1 0
1  11 0 0.000000000000000 63.500000000000000
0

0101000
-85 3 +84 3 *
Ed
 0.000000100000000 1 1 0
1  12 0 0.000000000000000 6.350000000000000
0

0101000
-106 3 +85 3 *
Ed
 0.000000100000004 1 1 0
1  13 0 0.000000000000000 6.350000000000000
0

0101000
-109 3 +84 3 *
Wi

0101100
-83 0 -82 0 +105 0 +81 0 *
Fa
0  0.000000100000000 5 0

0111000
+80 0 *
Ve
0.000000100000004
63.500000000000000 31.750000000000000 0.000000000000000
0 0

0101101
*
Ed
 0.000000100000000 1 1 0
1  14 0 0.000000000000000 6.350000000000000
0

0101000
-104 3 +78 3 *
Ed
 0.000000100000004 1 1 0
1  15 0 0.000000000000000 63.500000000000000
0

0101000
-78 3 +85 3 *
Wi

0101100
-82 0 -103 0 +77 0 +76 0 *
Fa
0  0.000000100000000 6 0

0111000
+75 0 *
Ve
0.000000100000004
0.000000000000000 31.750000000000000 0.000000000000000
0 0

0101101
*
Ed
 0.000000100000004 1 1 0
1  16 0 0.000000000000000 63.500000000000000
0

0101000
-78 3 +73 3 *
Ed
 0.000000100000004 1 1 0
1  17 0 0.000000000000000 6.350000000000000
0

0101000
-100 3 +73 3 *
Wi

0101100
-72 0 -77 0 +99 0 +71 0 *
Fa
0  0.000000100000000 7 0

0111000
+70 0 *
Ve
0.000000150000000
6.350000000000000 -19.050000000000001 12.699999999999999
0 0

0101101
*
Ed
 0.000000150000000 1 1 0
1  18 0 3.141592653589793 4.712388980384690
2  4 2 0 3.141592653589793 4.712388980384690
0

0101000
+102 3 -68 3 *
Ve
0.000000150000000
6.350000000000000 19.050000000000001 12.699999999999999
0 0

0101101
*
Ed
 0.000000150000000 1 1 0
1  19 0 3.141592653589793 4.712388980384690
2  5 2 0 3.141592653589793 4.712388980384690
0

0101000
+98 3 -66 3 *
Ed
 0.000000100000000 1 1 0
1  20 0 0.000000000000000 38.100000000000001
2  6 2 0 0.000000000000000 38.100000000000001
0

0101000
+68 3 -66 3 *
Wi

0101000
+67 0 -97 0 -65 0 +64 0 *
Fa
0  0.000000100000000 2 0

0101000
+63 0 *
Ve
0.000000100000004
50.950000000000003 -19.050000000000004 0.000000000000000
0 0

0101101
*
Ed
 0.000000100000000 1 1 0
1  21 0 1.000000000000000 7.350000000000000
3  7 8CN 3 0 1.000000000000000 7.350000000000000
0

0101000
+61 3 -92 3 *
Ed
 0.000000100000000 1 1 0
1  22 0 0.000000000000000 6.283185307179586
2  9 3 0 0.000000000000000 6.283185307179586
0

0101100
+61 3 -61 3 *
Wi

0101100
-91 0 +60 0 +59 0 -60 0 *
Fa
0  0.000000100000000 3 0

0101000
+58 0 *
Ve
0.000000100000004
50.950000000000003 19.049999999999997 0.000000000000000
0 0

0101101
*
Ed
 0.000000100000000 1 1 0
1  23 0 1.000000000000000 7.350000000000000
3  10 11CN 4 0 1.000000000000000 7.350000000000000
0

0101000
+56 3 -89 3 *
Ed
 0.000000100000000 1 1 0
1  24 0 0.000000000000000 6.283185307179586
2  12 4 0 0.000000000000000 6.283185307179586
0

0101100
+56 3 -56 3 *
Wi

0101100
-88 0 +55 0 +54 0 -55 0 *
Fa
0  0.000000100000000 4 0

0101000
+53 0 *
Ve
0.000000150000000
0.000000000000000 -19.050000000000001 23.077941176470631
0 0

0101101
*
Ed
 0.000000150000000 1 1 0
1  25 0 6.350000000000000 23.077941176470631
0

0101000
+108 3 -51 3 *
Ve
0.000000100000004
0.000000000000000 0.000000000000005 42.127941176470628
0 0

0101101
*
Ed
 0.000000100000004 1 1 0
1  26 0 0.000000000000000 1.570796326794897
2  13 9 0 0.000000000000000 1.570796326794897
0

0101000
+49 3 -51 3 *
Ve
0.000000150000000
0.000000000000000 19.050000000000001 23.077941176470631
0 0

0101101
*
Ed
 0.000000100000004 1 1 0
1  27 0 4.712388980384690 6.283185307179586
2  14 9 0 4.712388980384690 6.283185307179586
0

0101000
+47 3 -49 3 *
Ed
 0.000000150000000 1 1 0
1  28 0 6.350000000000000 23.077941176470631
0

0101000
+96 3 -47 3 *
Ed
 0.000000100000000 1 1 0
1  29 0 0.000000000000000 63.500000000000000
0

0101000
+84 3 -73 3 *
Wi

0101000
+107 0 +50 0 -48 0 -46 0 -45 0 +95 0 -71 0 -44 0 +81 0 *
Ve
0.000000100000005
0.000000000000000 -10.000000000000005 23.077941176470631
0 0

0101101
*
Ve
0.000000100000008
0.000000000000000 10.000000000000004 23.077941176470631
0 0

0101101
*
Ed
 0.000000100000000 1 1 0
1  30 0 1.570796326794897 4.712388980384690
2  15 10 0 1.570796326794897 4.712388980384690
0

0101000
+42 3 -41 3 *
Ve
0.000000100000002
0.000000000000000 0.000000000000002 33.077941176470631
0 0

0101101
*
Ed
 0.000000100000000 1 1 0
1  31 0 4.712388980384691 6.283185307179586
2  16 10 0 4.712388980384691 6.283185307179586
0

0101000
+41 3 -39 3 *
Ed
 0.000000100000000 1 1 0
1  32 0 0.000000000000000 1.570796326794897
2  17 10 0 0.000000000000000 1.570796326794897
0

0101000
+39 3 -42 3 *
Wi

0101100
+40 0 +38 0 +37 0 *
Fa
0  0.000000100000004 8 0

0111000
+43 0 +36 0 *
Ve
0.000000100000002
6.350000000000000 0.000000000000002 33.077941176470631
0 0

0101101
*
Ve
0.000000100000005
6.350000000000000 -10.000000000000005 23.077941176470631
0 0

0101101
*
Ed
 0.000000100000000 1 1 0
1  33 0 0.000000000000000 1.570796326794897
2  18 10 0 0.000000000000000 1.570796326794897
0

0101000
+34 3 -33 3 *
Ve
0.000000100000008
6.350000000000000 10.000000000000004 23.077941176470631
0 0

0101101
*
Ed
 0.000000100000000 1 1 0
1  34 0 1.570796326794897 4.712388980384690
2  19 10 0 1.570796326794897 4.712388980384690
0

0101000
+33 3 -31 3 *
Ed
 0.000000100000000 1 1 0
1  35 0 4.712388980384691 6.283185307179586
2  20 10 0 4.712388980384691 6.283185307179586
0

0101000
+31 3 -34 3 *
Ed
 0.000000100000000 1 1 0
1  36 0 1.000000000000000 7.350000000000000
3  21 22CN 10 0 1.000000000000000 7.350000000000000
0

0101000
+39 3 -34 3 *
Wi

0101100
-32 0 -30 0 -29 0 +28 0 +38 0 +40 0 +37 0 -28 0 *
Fa
0  0.000000100000000 10 0

0101000
+27 0 *
Wi

0101000
+44 0 +72 0 -76 0 -83 0 *
Wi

0101100
-59 0 *
Wi

0101100
-54 0 *
Fa
0  0.000000100000004 11 0

0111000
-25 0 +24 0 +23 0 *
Ve
0.000000150000000
6.350000000000000 -19.050000000000001 23.077941176470631
0 0

0101101
*
Ed
 0.000000150000000 1 1 0
1  37 0 12.699999999999999 23.077941176470631
0

0101000
+68 3 -21 3 *
Ed
 0.000000150000000 1 1 0
1  38 0 0.000000000000000 6.350000000000000
2  23 9 0 0.000000000000000 6.350000000000000
0

0101000
+51 3 -21 3 *
Wi

0101000
+101 0 +67 0 +20 0 -19 0 -50 0 *
Fa
0  0.000000150000000 12 0

0111000
+18 0 *
Ve
0.000000150000000
6.350000000000000 19.050000000000001 23.077941176470631
0 0

0101101
*
Ed
 0.000000150000000 1 1 0
1  39 0 0.000000000000000 6.350000000000000
2  24 9 0 0.000000000000000 6.350000000000000
0

0101000
+47 3 -16 3 *
Ed
 0.000000150000000 1 1 0
1  40 0 12.699999999999999 23.077941176470631
0

0101000
+66 3 -16 3 *
Wi

0101000
+94 0 +45 0 +15 0 -14 0 -65 0 *
Fa
0  0.000000150000000 13 0

0111000
+13 0 *
Ve
0.000000150000000
6.350000000000000 0.000000000000005 42.127941176470628
0 0

0101101
*
Ed
 0.000000150000000 1 1 0
1  41 0 4.712388980384690 6.283185307179586
2  25 9 0 4.712388980384690 6.283185307179586
0

0101000
+16 3 -11 3 *
Ed
 0.000000150000000 1 1 0
1  42 0 0.000000000000000 1.570796326794897
2  26 9 0 0.000000000000000 1.570796326794897
0

0101000
+11 3 -21 3 *
Wi

0101000
-20 0 +64 0 +14 0 +10 0 +9 0 *
Wi

0101100
-30 0 -32 0 -29 0 *
Fa
0  0.000000150000000 14 0

0111000
+8 0 +7 0 *
Wi

0101100
-10 0 -15 0 +46 0 +48 0 +19 0 -9 0 *
Fa
0  0.000000100000000 9 0

0111000
+5 0 *
Sh

0101000
+86 0 -79 0 +74 0 +69 0 -62 0 -57 0 -52 0 +35 0 -26 0 -22 0 
+17 0 +12 0 +6 0 +4 0 *
So

0100000
+3 0 *
Co

1100000
+2 0 *

+1 1 