
CASCADE Topology V1, (c) Matra-Datavision
Locations 35
1
1.000000000000000 0.000000000000000 0.000000000000000 0.000000000000000 
0.000000000000000 1.000000000000000 0.000000000000000 0.000000000000000 
0.000000000000000 0.000000000000000 1.000000000000000 0.000000000000000 
1
1.000000000000000 0.000000000000000 0.000000000000000 0.000000000000000 
0.000000000000000 1.000000000000000 0.000000000000000 0.000000000000000 
0.000000000000000 0.000000000000000 1.000000000000000 0.000000000000000 
1
1.000000000000000 0.000000000000000 0.000000000000000 0.000000000000000 
0.000000000000000 1.000000000000000 0.000000000000000 0.000000000000000 
0.000000000000000 0.000000000000000 1.000000000000000 0.000000000000000 
2  2 1 3 1 0
1
1.000000000000000 0.000000000000000 0.000000000000000 0.000000000000000 
0.000000000000000 1.000000000000000 0.000000000000000 0.000000000000000 
0.000000000000000 0.000000000000000 1.000000000000000 0.000000000000000 
2  5 -1 3 -1 2 -1 0
1
1.000000000000000 0.000000000000000 0.000000000000000 0.000000000000000 
0.000000000000000 1.000000000000000 0.000000000000000 2200.000000000000000 
0.000000000000000 0.000000000000000 1.000000000000000 0.000000000000000 
2  5 -1 3 -1 2 -1 7 -1 0
2  7 1 2 1 3 1 0
1
1.000000000000000 0.000000000000000 0.000000000000000 -2400.000000000000000 
0.000000000000000 1.000000000000000 0.000000000000000 0.000000000000000 
0.000000000000000 0.000000000000000 1.000000000000000 -533.049999999999955 
2  5 -1 3 -1 0
1
1.000000000000000 0.000000000000000 0.000000000000000 -2400.000000000000000 
0.000000000000000 1.000000000000000 0.000000000000000 0.000000000000000 
0.000000000000000 0.000000000000000 1.000000000000000 -533.049999999999955 
1
1.000000000000000 0.000000000000000 0.000000000000000 -2400.000000000000000 
0.000000000000000 1.000000000000000 0.000000000000000 0.000000000000000 
0.000000000000000 0.000000000000000 1.000000000000000 -533.049999999999955 
1
1.000000000000000 0.000000000000000 0.000000000000000 -2400.000000000000000 
0.000000000000000 1.000000000000000 0.000000000000000 0.000000000000000 
0.000000000000000 0.000000000000000 1.000000000000000 -533.049999999999955 
1
1.000000000000000 0.000000000000000 0.000000000000000 -2400.000000000000000 
0.000000000000000 1.000000000000000 0.000000000000000 0.000000000000000 
0.000000000000000 0.000000000000000 1.000000000000000 -533.049999999999955 
2  5 -1 0
1
1.000000000000000 0.000000000000000 0.000000000000000 -2400.000000000000000 
0.000000000000000 1.000000000000000 0.000000000000000 0.000000000000000 
0.000000000000000 0.000000000000000 1.000000000000000 -533.049999999999955 
1
1.000000000000000 0.000000000000000 0.000000000000000 -2400.000000000000000 
0.000000000000000 1.000000000000000 0.000000000000000 0.000000000000000 
0.000000000000000 0.000000000000000 1.000000000000000 -533.049999999999955 
1
1.000000000000000 0.000000000000000 0.000000000000000 -2400.000000000000000 
0.000000000000000 1.000000000000000 0.000000000000000 0.000000000000000 
0.000000000000000 0.000000000000000 1.000000000000000 -533.049999999999955 
1
1.000000000000000 0.000000000000000 0.000000000000000 -2400.000000000000000 
0.000000000000000 1.000000000000000 0.000000000000000 0.000000000000000 
0.000000000000000 0.000000000000000 1.000000000000000 -533.049999999999955 
1
1.000000000000000 0.000000000000000 0.000000000000000 -2400.000000000000000 
0.000000000000000 1.000000000000000 0.000000000000000 0.000000000000000 
0.000000000000000 0.000000000000000 1.000000000000000 -533.049999999999955 
1
1.000000000000000 0.000000000000000 0.000000000000000 -2400.000000000000000 
0.000000000000000 1.000000000000000 0.000000000000000 0.000000000000000 
0.000000000000000 0.000000000000000 1.000000000000000 -533.049999999999955 
1
1.000000000000000 0.000000000000000 0.000000000000000 -2400.000000000000000 
0.000000000000000 1.000000000000000 0.000000000000000 0.000000000000000 
0.000000000000000 0.000000000000000 1.000000000000000 -533.049999999999955 
2  5 -1 3 -1 10 -1 0
2  5 -1 3 -1 12 -1 0
2  5 -1 3 -1 13 -1 0
2  5 -1 3 -1 14 -1 0
2  5 -1 15 -1 0
2  5 -1 17 -1 0
2  5 -1 3 -1 18 -1 0
2  5 -1 3 -1 19 -1 0
2  5 -1 20 -1 0
2  5 -1 21 -1 0
2  5 -1 3 -1 22 -1 0
2  5 -1 3 -1 23 -1 0
Curve2ds 96
1 0.00000000000000000 1.00000000000000000 1.00000000000000000 0.00000000000000000 
1 0.00000000000000000 1.00000000000000000 1.00000000000000000 0.00000000000000000 
1 0.00000000000000000 1.00000000000000000 1.00000000000000000 0.00000000000000000 
1 0.00000000000000000 1.00000000000000000 1.00000000000000000 0.00000000000000000 
1 0.00000000000000000 1.00000000000000000 1.00000000000000000 0.00000000000000000 
1 0.00000000000000000 1.00000000000000000 1.00000000000000000 0.00000000000000000 
1 0.00000000000000000 1.00000000000000000 1.00000000000000000 0.00000000000000000 
1 0.00000000000000000 1.00000000000000000 1.00000000000000000 0.00000000000000000 
1 0.00000000000000000 1.00000000000000000 1.00000000000000000 0.00000000000000000 
1 0.00000000000000000 1.00000000000000000 1.00000000000000000 0.00000000000000000 
1 0.00000000000000000 1.00000000000000000 1.00000000000000000 0.00000000000000000 
1 0.00000000000000000 1.00000000000000000 1.00000000000000000 0.00000000000000000 
1 0.00000000000000000 7.34999999999995168 1.00000000000000000 0.00000000000000000 
1 0.00000000000000000 7.34999999999995168 1.00000000000000000 0.00000000000000000 
1 0.00000000000000000 7.34999999999995168 1.00000000000000000 0.00000000000000000 
1 0.00000000000000000 7.34999999999995168 1.00000000000000000 0.00000000000000000 
1 0.00000000000000000 7.34999999999995168 1.00000000000000000 0.00000000000000000 
1 0.00000000000000000 7.34999999999995168 1.00000000000000000 0.00000000000000000 
1 0.00000000000000000 7.34999999999995168 1.00000000000000000 0.00000000000000000 
1 0.00000000000000000 7.34999999999995168 1.00000000000000000 0.00000000000000000 
1 0.00000000000000000 7.34999999999995168 1.00000000000000000 0.00000000000000000 
1 0.00000000000000000 7.34999999999995168 1.00000000000000000 0.00000000000000000 
1 0.00000000000000000 7.34999999999995168 1.00000000000000000 0.00000000000000000 
1 0.00000000000000000 7.34999999999995168 1.00000000000000000 0.00000000000000000 
1 0.00000000000000000 7.34999999999999432 1.00000000000000000 0.00000000000000000 
1 6.28318530717958623 -0.00000000000000000 0.00000000000000000 1.00000000000000000 
1 0.00000000000000000 -0.00000000000000000 0.00000000000000000 1.00000000000000000 
1 0.00000000000000000 7.34999999999999432 1.00000000000000000 0.00000000000000000 
1 6.28318530717958623 -0.00000000000000000 0.00000000000000000 1.00000000000000000 
1 0.00000000000000000 -0.00000000000000000 0.00000000000000000 1.00000000000000000 
1 0.00000000000000000 7.34999999999999432 1.00000000000000000 0.00000000000000000 
1 6.28318530717958623 -0.00000000000000000 0.00000000000000000 1.00000000000000000 
1 0.00000000000000000 -0.00000000000000000 0.00000000000000000 1.00000000000000000 
1 0.00000000000000000 7.34999999999999432 1.00000000000000000 0.00000000000000000 
1 6.28318530717958623 -0.00000000000000000 0.00000000000000000 1.00000000000000000 
1 0.00000000000000000 -0.00000000000000000 0.00000000000000000 1.00000000000000000 
1 0.00000000000000000 7.34999999999999432 1.00000000000000000 0.00000000000000000 
1 6.28318530717958623 -0.00000000000000000 0.00000000000000000 1.00000000000000000 
1 0.00000000000000000 -0.00000000000000000 0.00000000000000000 1.00000000000000000 
1 0.00000000000000000 7.34999999999999432 1.00000000000000000 0.00000000000000000 
1 6.28318530717958623 -0.00000000000000000 0.00000000000000000 1.00000000000000000 
1 0.00000000000000000 -0.00000000000000000 0.00000000000000000 1.00000000000000000 
1 0.00000000000000000 7.34999999999999432 1.00000000000000000 0.00000000000000000 
1 6.28318530717958623 -0.00000000000000000 0.00000000000000000 1.00000000000000000 
1 0.00000000000000000 -0.00000000000000000 0.00000000000000000 1.00000000000000000 
1 0.00000000000000000 7.34999999999999432 1.00000000000000000 0.00000000000000000 
1 6.28318530717958623 -0.00000000000000000 0.00000000000000000 1.00000000000000000 
1 0.00000000000000000 -0.00000000000000000 0.00000000000000000 1.00000000000000000 
1 0.00000000000000000 7.34999999999999432 1.00000000000000000 0.00000000000000000 
1 6.28318530717958623 -0.00000000000000000 0.00000000000000000 1.00000000000000000 
1 0.00000000000000000 -0.00000000000000000 0.00000000000000000 1.00000000000000000 
1 0.00000000000000000 7.34999999999999432 1.00000000000000000 0.00000000000000000 
1 6.28318530717958623 -0.00000000000000000 0.00000000000000000 1.00000000000000000 
1 0.00000000000000000 -0.00000000000000000 0.00000000000000000 1.00000000000000000 
1 0.00000000000000000 7.34999999999999432 1.00000000000000000 0.00000000000000000 
1 6.28318530717958623 -0.00000000000000000 0.00000000000000000 1.00000000000000000 
1 0.00000000000000000 -0.00000000000000000 0.00000000000000000 1.00000000000000000 
1 0.00000000000000000 7.34999999999999432 1.00000000000000000 0.00000000000000000 
1 6.28318530717958623 -0.00000000000000000 0.00000000000000000 1.00000000000000000 
1 0.00000000000000000 -0.00000000000000000 0.00000000000000000 1.00000000000000000 
1 0.00000000000000000 0.99999999999995026 1.00000000000000000 0.00000000000000000 
1 0.00000000000000000 0.99999999999995026 1.00000000000000000 0.00000000000000000 
1 0.00000000000000000 0.99999999999995026 1.00000000000000000 0.00000000000000000 
1 0.00000000000000000 0.99999999999995026 1.00000000000000000 0.00000000000000000 
1 0.00000000000000000 0.99999999999995026 1.00000000000000000 0.00000000000000000 
1 0.00000000000000000 0.99999999999995026 1.00000000000000000 0.00000000000000000 
1 0.00000000000000000 0.99999999999995026 1.00000000000000000 0.00000000000000000 
1 0.00000000000000000 0.99999999999995026 1.00000000000000000 0.00000000000000000 
1 0.00000000000000000 0.99999999999995026 1.00000000000000000 0.00000000000000000 
1 0.00000000000000000 0.99999999999995026 1.00000000000000000 0.00000000000000000 
1 0.00000000000000000 0.99999999999995026 1.00000000000000000 0.00000000000000000 
1 0.00000000000000000 0.99999999999995026 1.00000000000000000 0.00000000000000000 
1 6.28318530717958623 -0.00000000000000000 0.00000000000000000 1.00000000000000000 
1 0.00000000000000000 -0.00000000000000000 0.00000000000000000 1.00000000000000000 
1 6.28318530717958623 -0.00000000000000000 0.00000000000000000 1.00000000000000000 
1 0.00000000000000000 -0.00000000000000000 0.00000000000000000 1.00000000000000000 
1 6.28318530717958623 -0.00000000000000000 0.00000000000000000 1.00000000000000000 
1 0.00000000000000000 -0.00000000000000000 0.00000000000000000 1.00000000000000000 
1 6.28318530717958623 -0.00000000000000000 0.00000000000000000 1.00000000000000000 
1 0.00000000000000000 -0.00000000000000000 0.00000000000000000 1.00000000000000000 
1 6.28318530717958623 -0.00000000000000000 0.00000000000000000 1.00000000000000000 
1 0.00000000000000000 -0.00000000000000000 0.00000000000000000 1.00000000000000000 
1 6.28318530717958623 -0.00000000000000000 0.00000000000000000 1.00000000000000000 
1 0.00000000000000000 -0.00000000000000000 0.00000000000000000 1.00000000000000000 
1 6.28318530717958623 -0.00000000000000000 0.00000000000000000 1.00000000000000000 
1 0.00000000000000000 -0.00000000000000000 0.00000000000000000 1.00000000000000000 
1 6.28318530717958623 -0.00000000000000000 0.00000000000000000 1.00000000000000000 
1 0.00000000000000000 -0.00000000000000000 0.00000000000000000 1.00000000000000000 
1 6.28318530717958623 -0.00000000000000000 0.00000000000000000 1.00000000000000000 
1 0.00000000000000000 -0.00000000000000000 0.00000000000000000 1.00000000000000000 
1 6.28318530717958623 -0.00000000000000000 0.00000000000000000 1.00000000000000000 
1 0.00000000000000000 -0.00000000000000000 0.00000000000000000 1.00000000000000000 
1 6.28318530717958623 -0.00000000000000000 0.00000000000000000 1.00000000000000000 
1 0.00000000000000000 -0.00000000000000000 0.00000000000000000 1.00000000000000000 
1 6.28318530717958623 -0.00000000000000000 0.00000000000000000 1.00000000000000000 
1 0.00000000000000000 -0.00000000000000000 0.00000000000000000 1.00000000000000000 
Curves 96
1 -76.20000000000000284 -1100.00000000000000000 0.00000000000000000 0.00000000000000000 1.00000000000000000 0.00000000000000000 
1 -76.20000000000000284 -1100.00000000000000000 0.00000000000000000 0.00000000000000000 0.00000000000000000 1.00000000000000000 
1 -76.20000000000000284 -1100.00000000000000000 0.00000000000000000 0.00000000000000000 0.00000000000000000 1.00000000000000000 
1 -76.20000000000000284 -1100.00000000000000000 50.79999999999999716 0.00000000000000000 1.00000000000000000 0.00000000000000000 
2 -76.20000000000000284 741.75000000000000000 25.39999999999999858 1.00000000000000000 0.00000000000000000 -0.00000000000000000 0.00000000000000000 0.00000000000000000 1.00000000000000000 0.00000000000000000 -1.00000000000000000 0.00000000000000000 6.50000000000000000
2 -76.20000000000000284 710.00000000000000000 25.39999999999999858 1.00000000000000000 0.00000000000000000 -0.00000000000000000 0.00000000000000000 0.00000000000000000 1.00000000000000000 0.00000000000000000 -1.00000000000000000 0.00000000000000000 6.50000000000000000
2 -76.20000000000000284 678.25000000000000000 25.39999999999999858 1.00000000000000000 0.00000000000000000 -0.00000000000000000 0.00000000000000000 0.00000000000000000 1.00000000000000000 0.00000000000000000 -1.00000000000000000 0.00000000000000000 6.50000000000000000
2 -76.20000000000000284 481.75000000000000000 25.39999999999999858 1.00000000000000000 0.00000000000000000 -0.00000000000000000 0.00000000000000000 0.00000000000000000 1.00000000000000000 0.00000000000000000 -1.00000000000000000 0.00000000000000000 6.50000000000000000
2 -76.20000000000000284 450.00000000000000000 25.39999999999999858 1.00000000000000000 0.00000000000000000 -0.00000000000000000 0.00000000000000000 0.00000000000000000 1.00000000000000000 0.00000000000000000 -1.00000000000000000 0.00000000000000000 6.50000000000000000
2 -76.20000000000000284 418.25000000000000000 25.39999999999999858 1.00000000000000000 0.00000000000000000 -0.00000000000000000 0.00000000000000000 0.00000000000000000 1.00000000000000000 0.00000000000000000 -1.00000000000000000 0.00000000000000000 6.50000000000000000
2 -76.20000000000000284 -418.25000000000000000 25.39999999999999858 1.00000000000000000 0.00000000000000000 -0.00000000000000000 0.00000000000000000 0.00000000000000000 1.00000000000000000 0.00000000000000000 -1.00000000000000000 0.00000000000000000 6.50000000000000000
2 -76.20000000000000284 -450.00000000000000000 25.39999999999999858 1.00000000000000000 0.00000000000000000 -0.00000000000000000 0.00000000000000000 0.00000000000000000 1.00000000000000000 0.00000000000000000 -1.00000000000000000 0.00000000000000000 6.50000000000000000
2 -76.20000000000000284 -481.75000000000000000 25.39999999999999858 1.00000000000000000 0.00000000000000000 -0.00000000000000000 0.00000000000000000 0.00000000000000000 1.00000000000000000 0.00000000000000000 -1.00000000000000000 0.00000000000000000 6.50000000000000000
2 -76.20000000000000284 -678.25000000000000000 25.39999999999999858 1.00000000000000000 0.00000000000000000 -0.00000000000000000 0.00000000000000000 0.00000000000000000 1.00000000000000000 0.00000000000000000 -1.00000000000000000 0.00000000000000000 6.50000000000000000
2 -76.20000000000000284 -710.00000000000000000 25.39999999999999858 1.00000000000000000 0.00000000000000000 -0.00000000000000000 0.00000000000000000 0.00000000000000000 1.00000000000000000 0.00000000000000000 -1.00000000000000000 0.00000000000000000 6.50000000000000000
2 -76.20000000000000284 -741.75000000000000000 25.39999999999999858 1.00000000000000000 0.00000000000000000 -0.00000000000000000 0.00000000000000000 0.00000000000000000 1.00000000000000000 0.00000000000000000 -1.00000000000000000 0.00000000000000000 6.50000000000000000
1 -69.85000000000000853 -1100.00000000000000000 0.00000000000000000 0.00000000000000000 1.00000000000000000 0.00000000000000000 
1 -69.85000000000000853 -1100.00000000000000000 0.00000000000000000 -1.00000000000000000 0.00000000000000000 0.00000000000000000 
1 -69.85000000000000853 -1100.00000000000000000 0.00000000000000000 -1.00000000000000000 0.00000000000000000 0.00000000000000000 
1 -76.20000000000000284 -1100.00000000000000000 50.79999999999999716 1.00000000000000000 0.00000000000000000 0.00000000000000000 
1 76.20000000000000284 -1100.00000000000000000 50.79999999999999716 0.00000000000000000 0.00000000000000000 -1.00000000000000000 
1 76.20000000000000284 -1100.00000000000000000 0.00000000000000000 -1.00000000000000000 0.00000000000000000 0.00000000000000000 
1 69.85000000000000853 -1100.00000000000000000 0.00000000000000000 0.00000000000000000 0.00000000000000000 1.00000000000000000 
1 69.85000000000000853 -1100.00000000000000000 44.44999999999999574 -1.00000000000000000 0.00000000000000000 0.00000000000000000 
1 -69.85000000000000853 -1100.00000000000000000 44.44999999999999574 0.00000000000000000 0.00000000000000000 -1.00000000000000000 
1 -76.20000000000000284 -1100.00000000000000000 50.79999999999999716 1.00000000000000000 0.00000000000000000 0.00000000000000000 
1 76.20000000000000284 -1100.00000000000000000 50.79999999999999716 0.00000000000000000 0.00000000000000000 -1.00000000000000000 
1 76.20000000000000284 -1100.00000000000000000 0.00000000000000000 -1.00000000000000000 0.00000000000000000 0.00000000000000000 
1 69.85000000000000853 -1100.00000000000000000 0.00000000000000000 0.00000000000000000 0.00000000000000000 1.00000000000000000 
1 69.85000000000000853 -1100.00000000000000000 44.44999999999999574 -1.00000000000000000 0.00000000000000000 0.00000000000000000 
1 -69.85000000000000853 -1100.00000000000000000 44.44999999999999574 0.00000000000000000 0.00000000000000000 -1.00000000000000000 
1 76.20000000000000284 -1100.00000000000000000 50.79999999999999716 0.00000000000000000 1.00000000000000000 0.00000000000000000 
2 -31.75000000000000000 470.63749999999998863 50.79999999999999716 0.00000000000000000 0.00000000000000000 1.00000000000000000 1.00000000000000000 0.00000000000000000 0.00000000000000000 0.00000000000000000 1.00000000000000000 0.00000000000000000 6.50000000000000000
2 -31.75000000000000000 429.36250000000001137 50.79999999999999716 0.00000000000000000 0.00000000000000000 1.00000000000000000 1.00000000000000000 0.00000000000000000 0.00000000000000000 0.00000000000000000 1.00000000000000000 0.00000000000000000 6.50000000000000000
2 6.34999999999990905 730.63750000000004547 50.79999999999999716 0.00000000000000000 0.00000000000000000 1.00000000000000000 1.00000000000000000 0.00000000000000000 0.00000000000000000 0.00000000000000000 1.00000000000000000 0.00000000000000000 6.50000000000000000
2 6.34999999999990905 689.36249999999995453 50.79999999999999716 0.00000000000000000 0.00000000000000000 1.00000000000000000 1.00000000000000000 0.00000000000000000 0.00000000000000000 0.00000000000000000 1.00000000000000000 0.00000000000000000 6.50000000000000000
2 34.44999999999981810 241.30000000000001137 50.79999999999999716 0.00000000000000000 0.00000000000000000 1.00000000000000000 1.00000000000000000 0.00000000000000000 0.00000000000000000 0.00000000000000000 1.00000000000000000 0.00000000000000000 6.50000000000000000
2 34.44999999999981810 203.19999999999998863 50.79999999999999716 0.00000000000000000 0.00000000000000000 1.00000000000000000 1.00000000000000000 0.00000000000000000 0.00000000000000000 0.00000000000000000 1.00000000000000000 0.00000000000000000 6.50000000000000000
2 -31.75000000000000000 -429.36250000000001137 50.79999999999999716 0.00000000000000000 0.00000000000000000 1.00000000000000000 1.00000000000000000 0.00000000000000000 0.00000000000000000 0.00000000000000000 1.00000000000000000 0.00000000000000000 6.50000000000000000
2 -31.75000000000000000 -470.63749999999998863 50.79999999999999716 0.00000000000000000 0.00000000000000000 1.00000000000000000 1.00000000000000000 0.00000000000000000 0.00000000000000000 0.00000000000000000 1.00000000000000000 0.00000000000000000 6.50000000000000000
2 34.44999999999981810 -203.19999999999998863 50.79999999999999716 0.00000000000000000 0.00000000000000000 1.00000000000000000 1.00000000000000000 0.00000000000000000 0.00000000000000000 0.00000000000000000 1.00000000000000000 0.00000000000000000 6.50000000000000000
2 34.44999999999981810 -241.30000000000001137 50.79999999999999716 0.00000000000000000 0.00000000000000000 1.00000000000000000 1.00000000000000000 0.00000000000000000 0.00000000000000000 0.00000000000000000 1.00000000000000000 0.00000000000000000 6.50000000000000000
2 6.34999999999990905 -689.36249999999995453 50.79999999999999716 0.00000000000000000 0.00000000000000000 1.00000000000000000 1.00000000000000000 0.00000000000000000 0.00000000000000000 0.00000000000000000 1.00000000000000000 0.00000000000000000 6.50000000000000000
2 6.34999999999990905 -730.63750000000004547 50.79999999999999716 0.00000000000000000 0.00000000000000000 1.00000000000000000 1.00000000000000000 0.00000000000000000 0.00000000000000000 0.00000000000000000 1.00000000000000000 0.00000000000000000 6.50000000000000000
2 -69.85000000000000853 741.75000000000000000 25.39999999999999858 1.00000000000000000 0.00000000000000000 -0.00000000000000000 0.00000000000000000 0.00000000000000000 1.00000000000000000 0.00000000000000000 -1.00000000000000000 0.00000000000000000 6.50000000000000000
1 -77.20000000000000284 741.75000000000000000 31.89999999999999858 1.00000000000000000 0.00000000000000000 0.00000000000000000 
2 -69.85000000000000853 710.00000000000000000 25.39999999999999858 1.00000000000000000 0.00000000000000000 -0.00000000000000000 0.00000000000000000 0.00000000000000000 1.00000000000000000 0.00000000000000000 -1.00000000000000000 0.00000000000000000 6.50000000000000000
1 -77.20000000000000284 710.00000000000000000 31.89999999999999858 1.00000000000000000 0.00000000000000000 0.00000000000000000 
2 -69.85000000000000853 678.25000000000000000 25.39999999999999858 1.00000000000000000 0.00000000000000000 -0.00000000000000000 0.00000000000000000 0.00000000000000000 1.00000000000000000 0.00000000000000000 -1.00000000000000000 0.00000000000000000 6.50000000000000000
1 -77.20000000000000284 678.25000000000000000 31.89999999999999858 1.00000000000000000 0.00000000000000000 0.00000000000000000 
2 -69.85000000000000853 481.75000000000000000 25.39999999999999858 1.00000000000000000 0.00000000000000000 -0.00000000000000000 0.00000000000000000 0.00000000000000000 1.00000000000000000 0.00000000000000000 -1.00000000000000000 0.00000000000000000 6.50000000000000000
1 -77.20000000000000284 481.75000000000000000 31.89999999999999858 1.00000000000000000 0.00000000000000000 0.00000000000000000 
2 -69.85000000000000853 450.00000000000000000 25.39999999999999858 1.00000000000000000 0.00000000000000000 -0.00000000000000000 0.00000000000000000 0.00000000000000000 1.00000000000000000 0.00000000000000000 -1.00000000000000000 0.00000000000000000 6.50000000000000000
1 -77.20000000000000284 450.00000000000000000 31.89999999999999858 1.00000000000000000 0.00000000000000000 0.00000000000000000 
2 -69.85000000000000853 418.25000000000000000 25.39999999999999858 1.00000000000000000 0.00000000000000000 -0.00000000000000000 0.00000000000000000 0.00000000000000000 1.00000000000000000 0.00000000000000000 -1.00000000000000000 0.00000000000000000 6.50000000000000000
1 -77.20000000000000284 418.25000000000000000 31.89999999999999858 1.00000000000000000 0.00000000000000000 0.00000000000000000 
2 -69.85000000000000853 -418.25000000000000000 25.39999999999999858 1.00000000000000000 0.00000000000000000 -0.00000000000000000 0.00000000000000000 0.00000000000000000 1.00000000000000000 0.00000000000000000 -1.00000000000000000 0.00000000000000000 6.50000000000000000
1 -77.20000000000000284 -418.25000000000000000 31.89999999999999858 1.00000000000000000 0.00000000000000000 0.00000000000000000 
2 -69.85000000000000853 -450.00000000000000000 25.39999999999999858 1.00000000000000000 0.00000000000000000 -0.00000000000000000 0.00000000000000000 0.00000000000000000 1.00000000000000000 0.00000000000000000 -1.00000000000000000 0.00000000000000000 6.50000000000000000
1 -77.20000000000000284 -450.00000000000000000 31.89999999999999858 1.00000000000000000 0.00000000000000000 0.00000000000000000 
2 -69.85000000000000853 -481.75000000000000000 25.39999999999999858 1.00000000000000000 0.00000000000000000 -0.00000000000000000 0.00000000000000000 0.00000000000000000 1.00000000000000000 0.00000000000000000 -1.00000000000000000 0.00000000000000000 6.50000000000000000
1 -77.20000000000000284 -481.75000000000000000 31.89999999999999858 1.00000000000000000 0.00000000000000000 0.00000000000000000 
2 -69.85000000000000853 -678.25000000000000000 25.39999999999999858 1.00000000000000000 0.00000000000000000 -0.00000000000000000 0.00000000000000000 0.00000000000000000 1.00000000000000000 0.00000000000000000 -1.00000000000000000 0.00000000000000000 6.50000000000000000
1 -77.20000000000000284 -678.25000000000000000 31.89999999999999858 1.00000000000000000 0.00000000000000000 0.00000000000000000 
2 -69.85000000000000853 -710.00000000000000000 25.39999999999999858 1.00000000000000000 0.00000000000000000 -0.00000000000000000 0.00000000000000000 0.00000000000000000 1.00000000000000000 0.00000000000000000 -1.00000000000000000 0.00000000000000000 6.50000000000000000
1 -77.20000000000000284 -710.00000000000000000 31.89999999999999858 1.00000000000000000 0.00000000000000000 0.00000000000000000 
2 -69.85000000000000853 -741.75000000000000000 25.39999999999999858 1.00000000000000000 0.00000000000000000 -0.00000000000000000 0.00000000000000000 0.00000000000000000 1.00000000000000000 0.00000000000000000 -1.00000000000000000 0.00000000000000000 6.50000000000000000
1 -77.20000000000000284 -741.75000000000000000 31.89999999999999858 1.00000000000000000 0.00000000000000000 0.00000000000000000 
1 -69.85000000000000853 -1100.00000000000000000 44.44999999999999574 0.00000000000000000 1.00000000000000000 0.00000000000000000 
1 76.20000000000000284 -1100.00000000000000000 0.00000000000000000 0.00000000000000000 1.00000000000000000 0.00000000000000000 
1 69.85000000000000853 -1100.00000000000000000 0.00000000000000000 0.00000000000000000 1.00000000000000000 0.00000000000000000 
1 69.85000000000000853 -1100.00000000000000000 44.44999999999999574 0.00000000000000000 1.00000000000000000 0.00000000000000000 
2 6.34999999999990905 730.63750000000004547 44.44999999999999574 0.00000000000000000 0.00000000000000000 1.00000000000000000 1.00000000000000000 0.00000000000000000 0.00000000000000000 0.00000000000000000 1.00000000000000000 0.00000000000000000 6.50000000000000000
2 6.34999999999990905 689.36249999999995453 44.44999999999999574 0.00000000000000000 0.00000000000000000 1.00000000000000000 1.00000000000000000 0.00000000000000000 0.00000000000000000 0.00000000000000000 1.00000000000000000 0.00000000000000000 6.50000000000000000
2 34.44999999999981810 241.30000000000001137 44.44999999999999574 0.00000000000000000 0.00000000000000000 1.00000000000000000 1.00000000000000000 0.00000000000000000 0.00000000000000000 0.00000000000000000 1.00000000000000000 0.00000000000000000 6.50000000000000000
2 34.44999999999981810 203.19999999999998863 44.44999999999999574 0.00000000000000000 0.00000000000000000 1.00000000000000000 1.00000000000000000 0.00000000000000000 0.00000000000000000 0.00000000000000000 1.00000000000000000 0.00000000000000000 6.50000000000000000
2 -31.75000000000000000 470.63749999999998863 44.44999999999999574 0.00000000000000000 0.00000000000000000 1.00000000000000000 1.00000000000000000 0.00000000000000000 0.00000000000000000 0.00000000000000000 1.00000000000000000 0.00000000000000000 6.50000000000000000
2 -31.75000000000000000 429.36250000000001137 44.44999999999999574 0.00000000000000000 0.00000000000000000 1.00000000000000000 1.00000000000000000 0.00000000000000000 0.00000000000000000 0.00000000000000000 1.00000000000000000 0.00000000000000000 6.50000000000000000
2 34.44999999999981810 -203.19999999999998863 44.44999999999999574 0.00000000000000000 0.00000000000000000 1.00000000000000000 1.00000000000000000 0.00000000000000000 0.00000000000000000 0.00000000000000000 1.00000000000000000 0.00000000000000000 6.50000000000000000
2 34.44999999999981810 -241.30000000000001137 44.44999999999999574 0.00000000000000000 0.00000000000000000 1.00000000000000000 1.00000000000000000 0.00000000000000000 0.00000000000000000 0.00000000000000000 1.00000000000000000 0.00000000000000000 6.50000000000000000
2 6.34999999999990905 -689.36249999999995453 44.44999999999999574 0.00000000000000000 0.00000000000000000 1.00000000000000000 1.00000000000000000 0.00000000000000000 0.00000000000000000 0.00000000000000000 1.00000000000000000 0.00000000000000000 6.50000000000000000
2 6.34999999999990905 -730.63750000000004547 44.44999999999999574 0.00000000000000000 0.00000000000000000 1.00000000000000000 1.00000000000000000 0.00000000000000000 0.00000000000000000 0.00000000000000000 1.00000000000000000 0.00000000000000000 6.50000000000000000
2 -31.75000000000000000 -429.36250000000001137 44.44999999999999574 0.00000000000000000 0.00000000000000000 1.00000000000000000 1.00000000000000000 0.00000000000000000 0.00000000000000000 0.00000000000000000 1.00000000000000000 0.00000000000000000 6.50000000000000000
2 -31.75000000000000000 -470.63749999999998863 44.44999999999999574 0.00000000000000000 0.00000000000000000 1.00000000000000000 1.00000000000000000 0.00000000000000000 0.00000000000000000 0.00000000000000000 1.00000000000000000 0.00000000000000000 6.50000000000000000
1 2374.75000000000000000 470.63749999999998863 576.50000000000000000 0.00000000000000000 0.00000000000000000 1.00000000000000000 
1 2374.75000000000000000 429.36250000000001137 576.50000000000000000 0.00000000000000000 0.00000000000000000 1.00000000000000000 
1 2412.84999999999990905 730.63750000000004547 576.50000000000000000 0.00000000000000000 0.00000000000000000 1.00000000000000000 
1 2412.84999999999990905 689.36249999999995453 576.50000000000000000 0.00000000000000000 0.00000000000000000 1.00000000000000000 
1 2440.94999999999981810 241.30000000000001137 576.50000000000000000 0.00000000000000000 0.00000000000000000 1.00000000000000000 
1 2440.94999999999981810 203.19999999999998863 576.50000000000000000 0.00000000000000000 0.00000000000000000 1.00000000000000000 
1 2374.75000000000000000 -429.36250000000001137 576.50000000000000000 0.00000000000000000 0.00000000000000000 1.00000000000000000 
1 2374.75000000000000000 -470.63749999999998863 576.50000000000000000 0.00000000000000000 0.00000000000000000 1.00000000000000000 
1 2440.94999999999981810 -203.19999999999998863 576.50000000000000000 0.00000000000000000 0.00000000000000000 1.00000000000000000 
1 2440.94999999999981810 -241.30000000000001137 576.50000000000000000 0.00000000000000000 0.00000000000000000 1.00000000000000000 
1 2412.84999999999990905 -689.36249999999995453 576.50000000000000000 0.00000000000000000 0.00000000000000000 1.00000000000000000 
1 2412.84999999999990905 -730.63750000000004547 576.50000000000000000 0.00000000000000000 0.00000000000000000 1.00000000000000000 
Polygon3D 0
PolygonOnTriangulations 0
Surfaces 34
1 -76.20000000000000284 -1100.00000000000000000 0.00000000000000000 1.00000000000000000 0.00000000000000000 0.00000000000000000 0.00000000000000000 0.00000000000000000 1.00000000000000000 0.00000000000000000 -1.00000000000000000 0.00000000000000000 
2 -77.20000000000000284 741.75000000000000000 25.39999999999999858 1.00000000000000000 0.00000000000000000 0.00000000000000000 0.00000000000000000 0.00000000000000000 1.00000000000000000 0.00000000000000000 -1.00000000000000000 0.00000000000000000 6.50000000000000000
2 -77.20000000000000284 710.00000000000000000 25.39999999999999858 1.00000000000000000 0.00000000000000000 0.00000000000000000 0.00000000000000000 0.00000000000000000 1.00000000000000000 0.00000000000000000 -1.00000000000000000 0.00000000000000000 6.50000000000000000
2 -77.20000000000000284 678.25000000000000000 25.39999999999999858 1.00000000000000000 0.00000000000000000 0.00000000000000000 0.00000000000000000 0.00000000000000000 1.00000000000000000 0.00000000000000000 -1.00000000000000000 0.00000000000000000 6.50000000000000000
2 -77.20000000000000284 481.75000000000000000 25.39999999999999858 1.00000000000000000 0.00000000000000000 0.00000000000000000 0.00000000000000000 0.00000000000000000 1.00000000000000000 0.00000000000000000 -1.00000000000000000 0.00000000000000000 6.50000000000000000
2 -77.20000000000000284 450.00000000000000000 25.39999999999999858 1.00000000000000000 0.00000000000000000 0.00000000000000000 0.00000000000000000 0.00000000000000000 1.00000000000000000 0.00000000000000000 -1.00000000000000000 0.00000000000000000 6.50000000000000000
2 -77.20000000000000284 418.25000000000000000 25.39999999999999858 1.00000000000000000 0.00000000000000000 0.00000000000000000 0.00000000000000000 0.00000000000000000 1.00000000000000000 0.00000000000000000 -1.00000000000000000 0.00000000000000000 6.50000000000000000
2 -77.20000000000000284 -418.25000000000000000 25.39999999999999858 1.00000000000000000 0.00000000000000000 0.00000000000000000 0.00000000000000000 0.00000000000000000 1.00000000000000000 0.00000000000000000 -1.00000000000000000 0.00000000000000000 6.50000000000000000
2 -77.20000000000000284 -450.00000000000000000 25.39999999999999858 1.00000000000000000 0.00000000000000000 0.00000000000000000 0.00000000000000000 0.00000000000000000 1.00000000000000000 0.00000000000000000 -1.00000000000000000 0.00000000000000000 6.50000000000000000
2 -77.20000000000000284 -481.75000000000000000 25.39999999999999858 1.00000000000000000 0.00000000000000000 0.00000000000000000 0.00000000000000000 0.00000000000000000 1.00000000000000000 0.00000000000000000 -1.00000000000000000 0.00000000000000000 6.50000000000000000
2 -77.20000000000000284 -678.25000000000000000 25.39999999999999858 1.00000000000000000 0.00000000000000000 0.00000000000000000 0.00000000000000000 0.00000000000000000 1.00000000000000000 0.00000000000000000 -1.00000000000000000 0.00000000000000000 6.50000000000000000
2 -77.20000000000000284 -710.00000000000000000 25.39999999999999858 1.00000000000000000 0.00000000000000000 0.00000000000000000 0.00000000000000000 0.00000000000000000 1.00000000000000000 0.00000000000000000 -1.00000000000000000 0.00000000000000000 6.50000000000000000
2 -77.20000000000000284 -741.75000000000000000 25.39999999999999858 1.00000000000000000 0.00000000000000000 0.00000000000000000 0.00000000000000000 0.00000000000000000 1.00000000000000000 0.00000000000000000 -1.00000000000000000 0.00000000000000000 6.50000000000000000
1 -69.85000000000000853 -1100.00000000000000000 0.00000000000000000 0.00000000000000000 0.00000000000000000 1.00000000000000000 -1.00000000000000000 0.00000000000000000 0.00000000000000000 0.00000000000000000 -1.00000000000000000 0.00000000000000000 
1 -0.00000000000000247 -1099.99999999999954525 37.36730769230766924 0.00000000000000000 1.00000000000000000 0.00000000000000000 0.00000000000000000 0.00000000000000000 1.00000000000000000 1.00000000000000000 0.00000000000000000 0.00000000000000000 
1 -0.00000000000000247 -1099.99999999999954525 37.36730769230766924 0.00000000000000000 1.00000000000000000 0.00000000000000000 0.00000000000000000 0.00000000000000000 1.00000000000000000 1.00000000000000000 0.00000000000000000 0.00000000000000000 
1 -76.20000000000000284 -1100.00000000000000000 50.79999999999999716 0.00000000000000000 0.00000000000000000 -1.00000000000000000 1.00000000000000000 0.00000000000000000 0.00000000000000000 0.00000000000000000 -1.00000000000000000 0.00000000000000000 
2 2368.25000000000000000 470.63749999999998863 576.50000000000000000 0.00000000000000000 0.00000000000000000 1.00000000000000000 1.00000000000000000 0.00000000000000000 0.00000000000000000 0.00000000000000000 1.00000000000000000 0.00000000000000000 6.50000000000000000
2 2368.25000000000000000 429.36250000000001137 576.50000000000000000 0.00000000000000000 0.00000000000000000 1.00000000000000000 1.00000000000000000 0.00000000000000000 0.00000000000000000 0.00000000000000000 1.00000000000000000 0.00000000000000000 6.50000000000000000
2 2406.34999999999990905 730.63750000000004547 576.50000000000000000 0.00000000000000000 0.00000000000000000 1.00000000000000000 1.00000000000000000 0.00000000000000000 0.00000000000000000 0.00000000000000000 1.00000000000000000 0.00000000000000000 6.50000000000000000
2 2406.34999999999990905 689.36249999999995453 576.50000000000000000 0.00000000000000000 0.00000000000000000 1.00000000000000000 1.00000000000000000 0.00000000000000000 0.00000000000000000 0.00000000000000000 1.00000000000000000 0.00000000000000000 6.50000000000000000
2 2434.44999999999981810 241.30000000000001137 576.50000000000000000 0.00000000000000000 0.00000000000000000 1.00000000000000000 1.00000000000000000 0.00000000000000000 0.00000000000000000 0.00000000000000000 1.00000000000000000 0.00000000000000000 6.50000000000000000
2 2434.44999999999981810 203.19999999999998863 576.50000000000000000 0.00000000000000000 0.00000000000000000 1.00000000000000000 1.00000000000000000 0.00000000000000000 0.00000000000000000 0.00000000000000000 1.00000000000000000 0.00000000000000000 6.50000000000000000
2 2368.25000000000000000 -429.36250000000001137 576.50000000000000000 0.00000000000000000 0.00000000000000000 1.00000000000000000 1.00000000000000000 0.00000000000000000 0.00000000000000000 0.00000000000000000 1.00000000000000000 0.00000000000000000 6.50000000000000000
2 2368.25000000000000000 -470.63749999999998863 576.50000000000000000 0.00000000000000000 0.00000000000000000 1.00000000000000000 1.00000000000000000 0.00000000000000000 0.00000000000000000 0.00000000000000000 1.00000000000000000 0.00000000000000000 6.50000000000000000
2 2434.44999999999981810 -203.19999999999998863 576.50000000000000000 0.00000000000000000 0.00000000000000000 1.00000000000000000 1.00000000000000000 0.00000000000000000 0.00000000000000000 0.00000000000000000 1.00000000000000000 0.00000000000000000 6.50000000000000000
2 2434.44999999999981810 -241.30000000000001137 576.50000000000000000 0.00000000000000000 0.00000000000000000 1.00000000000000000 1.00000000000000000 0.00000000000000000 0.00000000000000000 0.00000000000000000 1.00000000000000000 0.00000000000000000 6.50000000000000000
2 2406.34999999999990905 -689.36249999999995453 576.50000000000000000 0.00000000000000000 0.00000000000000000 1.00000000000000000 1.00000000000000000 0.00000000000000000 0.00000000000000000 0.00000000000000000 1.00000000000000000 0.00000000000000000 6.50000000000000000
2 2406.34999999999990905 -730.63750000000004547 576.50000000000000000 0.00000000000000000 0.00000000000000000 1.00000000000000000 1.00000000000000000 0.00000000000000000 0.00000000000000000 0.00000000000000000 1.00000000000000000 0.00000000000000000 6.50000000000000000
1 -69.85000000000000853 -1100.00000000000000000 44.44999999999999574 -1.00000000000000000 0.00000000000000000 0.00000000000000000 0.00000000000000000 0.00000000000000000 -1.00000000000000000 -0.00000000000000000 -1.00000000000000000 -0.00000000000000000 
1 76.20000000000000284 -1100.00000000000000000 50.79999999999999716 -1.00000000000000000 0.00000000000000000 0.00000000000000000 0.00000000000000000 0.00000000000000000 -1.00000000000000000 -0.00000000000000000 -1.00000000000000000 -0.00000000000000000 
1 76.20000000000000284 -1100.00000000000000000 0.00000000000000000 0.00000000000000000 0.00000000000000000 1.00000000000000000 -1.00000000000000000 0.00000000000000000 0.00000000000000000 0.00000000000000000 -1.00000000000000000 0.00000000000000000 
1 69.85000000000000853 -1100.00000000000000000 0.00000000000000000 1.00000000000000000 0.00000000000000000 0.00000000000000000 0.00000000000000000 0.00000000000000000 1.00000000000000000 0.00000000000000000 -1.00000000000000000 0.00000000000000000 
1 69.85000000000000853 -1100.00000000000000000 44.44999999999999574 0.00000000000000000 0.00000000000000000 1.00000000000000000 -1.00000000000000000 0.00000000000000000 0.00000000000000000 0.00000000000000000 -1.00000000000000000 0.00000000000000000 
Triangulations 0

TShapes 281
Ve
0.000000100000000
-76.200000000000003 -1100.000000000000000 0.000000000000000
0 0

0101101
*
Ve
0.000000100000000
-76.200000000000003 1100.000000000000000 0.000000000000000
0 0

0101101
*
Ed
 0.000000100000000 1 1 0
1  1 0 0.000000000000000 2200.000000000000000
0

0101000
+281 6 -280 6 *
Ve
0.000000100000000
-76.200000000000003 -1100.000000000000000 50.799999999999997
0 0

0101101
*
Ed
 0.000000100000000 1 1 0
1  2 0 0.000000000000000 50.799999999999997
0

0101000
+281 6 -278 6 *
Ve
0.000000100000000
-76.200000000000003 1100.000000000000000 50.799999999999997
0 0

0101101
*
Ed
 0.000000100000000 1 1 0
1  3 0 0.000000000000000 50.799999999999997
0

0101000
+280 8 -276 8 *
Ed
 0.000000100000000 1 1 0
1  4 0 0.000000000000000 2200.000000000000000
0

0101000
+278 6 -276 6 *
Wi

0101100
+279 0 -277 0 +275 7 -274 0 *
Ve
0.000000100000000
-76.200000000000003 741.750000000000000 31.899999999999999
0 0

0101101
*
Ed
 0.000000100000000 1 1 0
1  5 0 0.000000000000000 6.283185307179586
2  1 2 0 0.000000000000000 6.283185307179586
0

0101100
+272 6 -272 6 *
Wi

0101100
-271 0 *
Ve
0.000000100000000
-76.200000000000003 710.000000000000000 31.899999999999999
0 0

0101101
*
Ed
 0.000000100000000 1 1 0
1  6 0 0.000000000000000 6.283185307179586
2  2 3 0 0.000000000000000 6.283185307179586
0

0101100
+269 6 -269 6 *
Wi

0101100
-268 0 *
Ve
0.000000100000000
-76.200000000000003 678.250000000000000 31.899999999999999
0 0

0101101
*
Ed
 0.000000100000000 1 1 0
1  7 0 0.000000000000000 6.283185307179586
2  3 4 0 0.000000000000000 6.283185307179586
0

0101100
+266 6 -266 6 *
Wi

0101100
-265 0 *
Ve
0.000000100000000
-76.200000000000003 481.750000000000000 31.899999999999999
0 0

0101101
*
Ed
 0.000000100000000 1 1 0
1  8 0 0.000000000000000 6.283185307179586
2  4 5 0 0.000000000000000 6.283185307179586
0

0101100
+263 6 -263 6 *
Wi

0101100
-262 0 *
Ve
0.000000100000000
-76.200000000000003 450.000000000000000 31.899999999999999
0 0

0101101
*
Ed
 0.000000100000000 1 1 0
1  9 0 0.000000000000000 6.283185307179586
2  5 6 0 0.000000000000000 6.283185307179586
0

0101100
+260 6 -260 6 *
Wi

0101100
-259 0 *
Ve
0.000000100000000
-76.200000000000003 418.250000000000000 31.899999999999999
0 0

0101101
*
Ed
 0.000000100000000 1 1 0
1  10 0 0.000000000000000 6.283185307179586
2  6 7 0 0.000000000000000 6.283185307179586
0

0101100
+257 6 -257 6 *
Wi

0101100
-256 0 *
Ve
0.000000100000000
-76.200000000000003 -418.250000000000000 31.899999999999999
0 0

0101101
*
Ed
 0.000000100000000 1 1 0
1  11 0 0.000000000000000 6.283185307179586
2  7 8 0 0.000000000000000 6.283185307179586
0

0101100
+254 6 -254 6 *
Wi

0101100
-253 0 *
Ve
0.000000100000000
-76.200000000000003 -450.000000000000000 31.899999999999999
0 0

0101101
*
Ed
 0.000000100000000 1 1 0
1  12 0 0.000000000000000 6.283185307179586
2  8 9 0 0.000000000000000 6.283185307179586
0

0101100
+251 6 -251 6 *
Wi

0101100
-250 0 *
Ve
0.000000100000000
-76.200000000000003 -481.750000000000000 31.899999999999999
0 0

0101101
*
Ed
 0.000000100000000 1 1 0
1  13 0 0.000000000000000 6.283185307179586
2  9 10 0 0.000000000000000 6.283185307179586
0

0101100
+248 6 -248 6 *
Wi

0101100
-247 0 *
Ve
0.000000100000000
-76.200000000000003 -678.250000000000000 31.899999999999999
0 0

0101101
*
Ed
 0.000000100000000 1 1 0
1  14 0 0.000000000000000 6.283185307179586
2  10 11 0 0.000000000000000 6.283185307179586
0

0101100
+245 6 -245 6 *
Wi

0101100
-244 0 *
Ve
0.000000100000000
-76.200000000000003 -710.000000000000000 31.899999999999999
0 0

0101101
*
Ed
 0.000000100000000 1 1 0
1  15 0 0.000000000000000 6.283185307179586
2  11 12 0 0.000000000000000 6.283185307179586
0

0101100
+242 6 -242 6 *
Wi

0101100
-241 0 *
Ve
0.000000100000000
-76.200000000000003 -741.750000000000000 31.899999999999999
0 0

0101101
*
Ed
 0.000000100000000 1 1 0
1  16 0 0.000000000000000 6.283185307179586
2  12 13 0 0.000000000000000 6.283185307179586
0

0101100
+239 6 -239 6 *
Wi

0101100
-238 0 *
Fa
0  0.000000100000000 1 0

0111000
+273 0 +270 0 +267 0 +264 0 +261 0 +258 0 +255 0 +252 0 +249 0 +246 0 
+243 0 +240 0 +237 0 *
Ve
0.000000100000000
-69.850000000000009 -1100.000000000000000 0.000000000000000
0 0

0101101
*
Ve
0.000000100000000
-69.850000000000009 1100.000000000000000 0.000000000000000
0 0

0101101
*
Ed
 0.000000100000000 1 1 0
1  17 0 0.000000000000000 2200.000000000000000
0

0101000
+235 6 -234 6 *
Ed
 0.000000100000000 1 1 0
1  18 0 0.000000000000000 6.349999999999994
0

0101000
+235 6 -281 6 *
Ed
 0.000000100000000 1 1 0
1  19 0 0.000000000000000 6.349999999999994
0

0101000
+234 8 -280 8 *
Wi

0101100
+233 0 -279 0 -232 0 +231 7 *
Fa
0  0.000000100000000 14 0

0111000
+230 0 *
Ve
0.000000100000000
76.200000000000003 -1100.000000000000000 50.799999999999997
0 0

0101101
*
Ed
 0.000000100000000 1 1 0
1  20 0 0.000000000000000 152.400000000000006
0

0101000
+278 6 -228 6 *
Ve
0.000000100000000
76.200000000000003 -1100.000000000000000 0.000000000000000
0 0

0101101
*
Ed
 0.000000100000000 1 1 0
1  21 0 0.000000000000000 50.799999999999997
0

0101000
+228 6 -226 6 *
Ve
0.000000100000000
69.850000000000009 -1100.000000000000000 0.000000000000000
0 0

0101101
*
Ed
 0.000000100000000 1 1 0
1  22 0 0.000000000000000 6.349999999999994
0

0101000
+226 6 -224 6 *
Ve
0.000000100000000
69.850000000000009 -1100.000000000000000 44.449999999999996
0 0

0101101
*
Ed
 0.000000100000000 1 1 0
1  23 0 0.000000000000000 44.449999999999996
0

0101000
+224 6 -222 6 *
Ve
0.000000100000000
-69.850000000000009 -1100.000000000000000 44.449999999999996
0 0

0101101
*
Ed
 0.000000100000000 1 1 0
1  24 0 0.000000000000000 139.700000000000017
0

0101000
+222 6 -220 6 *
Ed
 0.000000100000000 1 1 0
1  25 0 0.000000000000000 44.449999999999996
0

0101000
+220 6 -235 6 *
Wi

0101100
+277 0 +227 0 +225 0 +223 0 +221 0 +219 0 +218 0 +232 0 *
Fa
0  0.000000100000000 15 0

0111000
+217 0 *
Ve
0.000000100000000
76.200000000000003 1100.000000000000000 50.799999999999997
0 0

0101101
*
Ed
 0.000000100000000 1 1 0
1  26 0 0.000000000000000 152.400000000000006
0

0101000
+276 8 -215 8 *
Ve
0.000000100000000
76.200000000000003 1100.000000000000000 0.000000000000000
0 0

0101101
*
Ed
 0.000000100000000 1 1 0
1  27 0 0.000000000000000 50.799999999999997
0

0101000
+215 8 -213 8 *
Ve
0.000000100000000
69.850000000000009 1100.000000000000000 0.000000000000000
0 0

0101101
*
Ed
 0.000000100000000 1 1 0
1  28 0 0.000000000000000 6.349999999999994
0

0101000
+213 8 -211 8 *
Ve
0.000000100000000
69.850000000000009 1100.000000000000000 44.449999999999996
0 0

0101101
*
Ed
 0.000000100000000 1 1 0
1  29 0 0.000000000000000 44.449999999999996
0

0101000
+211 8 -209 8 *
Ve
0.000000100000000
-69.850000000000009 1100.000000000000000 44.449999999999996
0 0

0101101
*
Ed
 0.000000100000000 1 1 0
1  30 0 0.000000000000000 139.700000000000017
0

0101000
+209 8 -207 8 *
Ed
 0.000000100000000 1 1 0
1  31 0 0.000000000000000 44.449999999999996
0

0101000
+207 8 -234 8 *
Wi

0101100
+275 0 +214 0 +212 0 +210 0 +208 0 +206 0 +205 0 +231 0 *
Fa
0  0.000000100000000 16 0

0111000
+204 0 *
Ed
 0.000000100000000 1 1 0
1  32 0 0.000000000000000 2200.000000000000000
0

0101000
+228 6 -215 6 *
Wi

0101100
+274 4 -227 4 +214 9 -202 4 *
Ve
0.000000100000043
-25.250000000000000 470.637499999999989 50.799999999999997
0 0

0101101
*
Ed
 0.000000100000000 1 1 0
1  33 0 0.000000000000000 6.283185307179586
2  13 18 10 0.000000000000000 6.283185307179586
0

0101100
+200 11 -200 11 *
Wi

0101100
+199 3 *
Ve
0.000000100000043
-25.250000000000000 429.362500000000011 50.799999999999997
0 0

0101101
*
Ed
 0.000000100000000 1 1 0
1  34 0 0.000000000000000 6.283185307179586
2  14 19 12 0.000000000000000 6.283185307179586
0

0101100
+197 11 -197 11 *
Wi

0101100
+196 3 *
Ve
0.000000100000043
12.849999999999909 730.637500000000045 50.799999999999997
0 0

0101101
*
Ed
 0.000000100000000 1 1 0
1  35 0 0.000000000000000 6.283185307179586
2  15 20 13 0.000000000000000 6.283185307179586
0

0101100
+194 11 -194 11 *
Wi

0101100
+193 3 *
Ve
0.000000100000043
12.849999999999909 689.362499999999955 50.799999999999997
0 0

0101101
*
Ed
 0.000000100000000 1 1 0
1  36 0 0.000000000000000 6.283185307179586
2  16 21 14 0.000000000000000 6.283185307179586
0

0101100
+191 11 -191 11 *
Wi

0101100
+190 3 *
Ve
0.000000100000043
40.949999999999818 241.300000000000011 50.799999999999997
0 0

0101101
*
Ed
 0.000000100000000 1 1 0
1  37 0 0.000000000000000 6.283185307179586
2  17 22 15 0.000000000000000 6.283185307179586
0

0101100
+188 16 -188 16 *
Wi

0101100
+187 0 *
Ve
0.000000100000043
40.949999999999818 203.199999999999989 50.799999999999997
0 0

0101101
*
Ed
 0.000000100000000 1 1 0
1  38 0 0.000000000000000 6.283185307179586
2  18 23 17 0.000000000000000 6.283185307179586
0

0101100
+185 16 -185 16 *
Wi

0101100
+184 0 *
Ve
0.000000100000043
-25.250000000000000 -429.362500000000011 50.799999999999997
0 0

0101101
*
Ed
 0.000000100000000 1 1 0
1  39 0 0.000000000000000 6.283185307179586
2  19 24 18 0.000000000000000 6.283185307179586
0

0101100
+182 11 -182 11 *
Wi

0101100
+181 3 *
Ve
0.000000100000043
-25.250000000000000 -470.637499999999989 50.799999999999997
0 0

0101101
*
Ed
 0.000000100000000 1 1 0
1  40 0 0.000000000000000 6.283185307179586
2  20 25 19 0.000000000000000 6.283185307179586
0

0101100
+179 11 -179 11 *
Wi

0101100
+178 3 *
Ve
0.000000100000043
40.949999999999818 -203.199999999999989 50.799999999999997
0 0

0101101
*
Ed
 0.000000100000000 1 1 0
1  41 0 0.000000000000000 6.283185307179586
2  21 26 20 0.000000000000000 6.283185307179586
0

0101100
+176 16 -176 16 *
Wi

0101100
+175 0 *
Ve
0.000000100000043
40.949999999999818 -241.300000000000011 50.799999999999997
0 0

0101101
*
Ed
 0.000000100000000 1 1 0
1  42 0 0.000000000000000 6.283185307179586
2  22 27 21 0.000000000000000 6.283185307179586
0

0101100
+173 16 -173 16 *
Wi

0101100
+172 0 *
Ve
0.000000100000043
12.849999999999909 -689.362499999999955 50.799999999999997
0 0

0101101
*
Ed
 0.000000100000000 1 1 0
1  43 0 0.000000000000000 6.283185307179586
2  23 28 22 0.000000000000000 6.283185307179586
0

0101100
+170 11 -170 11 *
Wi

0101100
+169 3 *
Ve
0.000000100000043
12.849999999999909 -730.637500000000045 50.799999999999997
0 0

0101101
*
Ed
 0.000000100000000 1 1 0
1  44 0 0.000000000000000 6.283185307179586
2  24 29 23 0.000000000000000 6.283185307179586
0

0101100
+167 11 -167 11 *
Wi

0101100
+166 3 *
Fa
0  0.000000100000000 17 4

0101000
+201 0 +198 0 +195 0 +192 0 +189 0 +186 0 +183 0 +180 0 +177 0 +174 0 
+171 0 +168 0 +165 0 *
Ve
0.000000100000000
-69.850000000000009 741.750000000000000 31.899999999999999
0 0

0101101
*
Ed
 0.000000100000000 1 1 0
1  45 0 0.000000000000000 6.283185307179586
2  25 2 0 0.000000000000000 6.283185307179586
0

0101100
+163 6 -163 6 *
Ed
 0.000000100000000 1 1 0
1  46 0 1.000000000000000 7.349999999999994
3  26 27CN 2 0 1.000000000000000 7.349999999999994
0

0101000
+272 6 -163 6 *
Wi

0101100
-162 0 +161 0 +271 0 -161 0 *
Fa
0  0.000000100000000 2 0

0111000
+160 0 *
Ve
0.000000100000000
-69.850000000000009 710.000000000000000 31.899999999999999
0 0

0101101
*
Ed
 0.000000100000000 1 1 0
1  47 0 0.000000000000000 6.283185307179586
2  28 3 0 0.000000000000000 6.283185307179586
0

0101100
+158 6 -158 6 *
Ed
 0.000000100000000 1 1 0
1  48 0 1.000000000000000 7.349999999999994
3  29 30CN 3 0 1.000000000000000 7.349999999999994
0

0101000
+269 6 -158 6 *
Wi

0101100
-157 0 +156 0 +268 0 -156 0 *
Fa
0  0.000000100000000 3 0

0111000
+155 0 *
Ve
0.000000100000000
-69.850000000000009 678.250000000000000 31.899999999999999
0 0

0101101
*
Ed
 0.000000100000000 1 1 0
1  49 0 0.000000000000000 6.283185307179586
2  31 4 0 0.000000000000000 6.283185307179586
0

0101100
+153 6 -153 6 *
Ed
 0.000000100000000 1 1 0
1  50 0 1.000000000000000 7.349999999999994
3  32 33CN 4 0 1.000000000000000 7.349999999999994
0

0101000
+266 6 -153 6 *
Wi

0101100
-152 0 +151 0 +265 0 -151 0 *
Fa
0  0.000000100000000 4 0

0111000
+150 0 *
Ve
0.000000100000000
-69.850000000000009 481.750000000000000 31.899999999999999
0 0

0101101
*
Ed
 0.000000100000000 1 1 0
1  51 0 0.000000000000000 6.283185307179586
2  34 5 0 0.000000000000000 6.283185307179586
0

0101100
+148 6 -148 6 *
Ed
 0.000000100000000 1 1 0
1  52 0 1.000000000000000 7.349999999999994
3  35 36CN 5 0 1.000000000000000 7.349999999999994
0

0101000
+263 6 -148 6 *
Wi

0101100
-147 0 +146 0 +262 0 -146 0 *
Fa
0  0.000000100000000 5 0

0111000
+145 0 *
Ve
0.000000100000000
-69.850000000000009 450.000000000000000 31.899999999999999
0 0

0101101
*
Ed
 0.000000100000000 1 1 0
1  53 0 0.000000000000000 6.283185307179586
2  37 6 0 0.000000000000000 6.283185307179586
0

0101100
+143 6 -143 6 *
Ed
 0.000000100000000 1 1 0
1  54 0 1.000000000000000 7.349999999999994
3  38 39CN 6 0 1.000000000000000 7.349999999999994
0

0101000
+260 6 -143 6 *
Wi

0101100
-142 0 +141 0 +259 0 -141 0 *
Fa
0  0.000000100000000 6 0

0111000
+140 0 *
Ve
0.000000100000000
-69.850000000000009 418.250000000000000 31.899999999999999
0 0

0101101
*
Ed
 0.000000100000000 1 1 0
1  55 0 0.000000000000000 6.283185307179586
2  40 7 0 0.000000000000000 6.283185307179586
0

0101100
+138 6 -138 6 *
Ed
 0.000000100000000 1 1 0
1  56 0 1.000000000000000 7.349999999999994
3  41 42CN 7 0 1.000000000000000 7.349999999999994
0

0101000
+257 6 -138 6 *
Wi

0101100
-137 0 +136 0 +256 0 -136 0 *
Fa
0  0.000000100000000 7 0

0111000
+135 0 *
Ve
0.000000100000000
-69.850000000000009 -418.250000000000000 31.899999999999999
0 0

0101101
*
Ed
 0.000000100000000 1 1 0
1  57 0 0.000000000000000 6.283185307179586
2  43 8 0 0.000000000000000 6.283185307179586
0

0101100
+133 6 -133 6 *
Ed
 0.000000100000000 1 1 0
1  58 0 1.000000000000000 7.349999999999994
3  44 45CN 8 0 1.000000000000000 7.349999999999994
0

0101000
+254 6 -133 6 *
Wi

0101100
-132 0 +131 0 +253 0 -131 0 *
Fa
0  0.000000100000000 8 0

0111000
+130 0 *
Ve
0.000000100000000
-69.850000000000009 -450.000000000000000 31.899999999999999
0 0

0101101
*
Ed
 0.000000100000000 1 1 0
1  59 0 0.000000000000000 6.283185307179586
2  46 9 0 0.000000000000000 6.283185307179586
0

0101100
+128 6 -128 6 *
Ed
 0.000000100000000 1 1 0
1  60 0 1.000000000000000 7.349999999999994
3  47 48CN 9 0 1.000000000000000 7.349999999999994
0

0101000
+251 6 -128 6 *
Wi

0101100
-127 0 +126 0 +250 0 -126 0 *
Fa
0  0.000000100000000 9 0

0111000
+125 0 *
Ve
0.000000100000000
-69.850000000000009 -481.750000000000000 31.899999999999999
0 0

0101101
*
Ed
 0.000000100000000 1 1 0
1  61 0 0.000000000000000 6.283185307179586
2  49 10 0 0.000000000000000 6.283185307179586
0

0101100
+123 6 -123 6 *
Ed
 0.000000100000000 1 1 0
1  62 0 1.000000000000000 7.349999999999994
3  50 51CN 10 0 1.000000000000000 7.349999999999994
0

0101000
+248 6 -123 6 *
Wi

0101100
-122 0 +121 0 +247 0 -121 0 *
Fa
0  0.000000100000000 10 0

0111000
+120 0 *
Ve
0.000000100000000
-69.850000000000009 -678.250000000000000 31.899999999999999
0 0

0101101
*
Ed
 0.000000100000000 1 1 0
1  63 0 0.000000000000000 6.283185307179586
2  52 11 0 0.000000000000000 6.283185307179586
0

0101100
+118 6 -118 6 *
Ed
 0.000000100000000 1 1 0
1  64 0 1.000000000000000 7.349999999999994
3  53 54CN 11 0 1.000000000000000 7.349999999999994
0

0101000
+245 6 -118 6 *
Wi

0101100
-117 0 +116 0 +244 0 -116 0 *
Fa
0  0.000000100000000 11 0

0111000
+115 0 *
Ve
0.000000100000000
-69.850000000000009 -710.000000000000000 31.899999999999999
0 0

0101101
*
Ed
 0.000000100000000 1 1 0
1  65 0 0.000000000000000 6.283185307179586
2  55 12 0 0.000000000000000 6.283185307179586
0

0101100
+113 6 -113 6 *
Ed
 0.000000100000000 1 1 0
1  66 0 1.000000000000000 7.349999999999994
3  56 57CN 12 0 1.000000000000000 7.349999999999994
0

0101000
+242 6 -113 6 *
Wi

0101100
-112 0 +111 0 +241 0 -111 0 *
Fa
0  0.000000100000000 12 0

0111000
+110 0 *
Ve
0.000000100000000
-69.850000000000009 -741.750000000000000 31.899999999999999
0 0

0101101
*
Ed
 0.000000100000000 1 1 0
1  67 0 0.000000000000000 6.283185307179586
2  58 13 0 0.000000000000000 6.283185307179586
0

0101100
+108 6 -108 6 *
Ed
 0.000000100000000 1 1 0
1  68 0 1.000000000000000 7.349999999999994
3  59 60CN 13 0 1.000000000000000 7.349999999999994
0

0101000
+239 6 -108 6 *
Wi

0101100
-107 0 +106 0 +238 0 -106 0 *
Fa
0  0.000000100000000 13 0

0111000
+105 0 *
Ed
 0.000000100000000 1 1 0
1  69 0 0.000000000000000 2200.000000000000000
0

0101000
+220 6 -207 6 *
Wi

0101100
+103 0 -218 0 +205 7 -233 0 *
Wi

0101100
+162 0 *
Wi

0101100
+157 0 *
Wi

0101100
+152 0 *
Wi

0101100
+147 0 *
Wi

0101100
+142 0 *
Wi

0101100
+137 0 *
Wi

0101100
+132 0 *
Wi

0101100
+127 0 *
Wi

0101100
+122 0 *
Wi

0101100
+117 0 *
Wi

0101100
+112 0 *
Wi

0101100
+107 0 *
Fa
0  0.000000100000000 30 0

0111000
+102 0 +101 0 +100 0 +99 0 +98 0 +97 0 +96 0 +95 0 +94 0 +93 0 
+92 0 +91 0 +90 0 *
Ed
 0.000000100000000 1 1 0
1  70 0 0.000000000000000 2200.000000000000000
0

0101000
+226 6 -213 6 *
Wi

0101100
+202 0 -88 0 -225 0 +212 7 *
Fa
0  0.000000100000000 31 0

0111000
+87 0 *
Ed
 0.000000100000000 1 1 0
1  71 0 0.000000000000000 2200.000000000000000
0

0101000
+224 6 -211 6 *
Wi

0101100
+88 0 -85 0 -223 0 +210 7 *
Fa
0  0.000000100000000 32 0

0111000
+84 0 *
Ed
 0.000000100000000 1 1 0
1  72 0 0.000000000000000 2200.000000000000000
0

0101000
+222 6 -209 6 *
Wi

0101100
+85 0 -82 0 -221 0 +208 7 *
Fa
0  0.000000100000000 33 0

0111000
+81 0 *
Wi

0101100
+82 4 -219 4 +206 9 -103 4 *
Ve
0.000000100000050
12.849999999999909 730.637500000000045 44.449999999999996
0 0

0101101
*
Ed
 0.000000100000000 1 1 0
1  73 0 0.000000000000000 6.283185307179586
2  61 20 13 0.000000000000000 6.283185307179586
0

0101100
+78 11 -78 11 *
Wi

0101100
-77 3 *
Ve
0.000000100000050
12.849999999999909 689.362499999999955 44.449999999999996
0 0

0101101
*
Ed
 0.000000100000000 1 1 0
1  74 0 0.000000000000000 6.283185307179586
2  62 21 14 0.000000000000000 6.283185307179586
0

0101100
+75 11 -75 11 *
Wi

0101100
-74 3 *
Ve
0.000000100000050
40.949999999999818 241.300000000000011 44.449999999999996
0 0

0101101
*
Ed
 0.000000100000000 1 1 0
1  75 0 0.000000000000000 6.283185307179586
2  63 22 15 0.000000000000000 6.283185307179586
0

0101100
+72 16 -72 16 *
Wi

0101100
-71 0 *
Ve
0.000000100000050
40.949999999999818 203.199999999999989 44.449999999999996
0 0

0101101
*
Ed
 0.000000100000000 1 1 0
1  76 0 0.000000000000000 6.283185307179586
2  64 23 17 0.000000000000000 6.283185307179586
0

0101100
+69 16 -69 16 *
Wi

0101100
-68 0 *
Ve
0.000000100000050
-25.250000000000000 470.637499999999989 44.449999999999996
0 0

0101101
*
Ed
 0.000000100000000 1 1 0
1  77 0 0.000000000000000 6.283185307179586
2  65 18 10 0.000000000000000 6.283185307179586
0

0101100
+66 11 -66 11 *
Wi

0101100
-65 3 *
Ve
0.000000100000050
-25.250000000000000 429.362500000000011 44.449999999999996
0 0

0101101
*
Ed
 0.000000100000000 1 1 0
1  78 0 0.000000000000000 6.283185307179586
2  66 19 12 0.000000000000000 6.283185307179586
0

0101100
+63 11 -63 11 *
Wi

0101100
-62 3 *
Ve
0.000000100000050
40.949999999999818 -203.199999999999989 44.449999999999996
0 0

0101101
*
Ed
 0.000000100000000 1 1 0
1  79 0 0.000000000000000 6.283185307179586
2  67 26 20 0.000000000000000 6.283185307179586
0

0101100
+60 16 -60 16 *
Wi

0101100
-59 0 *
Ve
0.000000100000050
40.949999999999818 -241.300000000000011 44.449999999999996
0 0

0101101
*
Ed
 0.000000100000000 1 1 0
1  80 0 0.000000000000000 6.283185307179586
2  68 27 21 0.000000000000000 6.283185307179586
0

0101100
+57 16 -57 16 *
Wi

0101100
-56 0 *
Ve
0.000000100000050
12.849999999999909 -689.362499999999955 44.449999999999996
0 0

0101101
*
Ed
 0.000000100000000 1 1 0
1  81 0 0.000000000000000 6.283185307179586
2  69 28 22 0.000000000000000 6.283185307179586
0

0101100
+54 11 -54 11 *
Wi

0101100
-53 3 *
Ve
0.000000100000050
12.849999999999909 -730.637500000000045 44.449999999999996
0 0

0101101
*
Ed
 0.000000100000000 1 1 0
1  82 0 0.000000000000000 6.283185307179586
2  70 29 23 0.000000000000000 6.283185307179586
0

0101100
+51 11 -51 11 *
Wi

0101100
-50 3 *
Ve
0.000000100000050
-25.250000000000000 -429.362500000000011 44.449999999999996
0 0

0101101
*
Ed
 0.000000100000000 1 1 0
1  83 0 0.000000000000000 6.283185307179586
2  71 24 18 0.000000000000000 6.283185307179586
0

0101100
+48 11 -48 11 *
Wi

0101100
-47 3 *
Ve
0.000000100000050
-25.250000000000000 -470.637499999999989 44.449999999999996
0 0

0101101
*
Ed
 0.000000100000000 1 1 0
1  84 0 0.000000000000000 6.283185307179586
2  72 25 19 0.000000000000000 6.283185307179586
0

0101100
+45 11 -45 11 *
Wi

0101100
-44 3 *
Fa
0  0.000000100000000 34 4

0101000
+79 0 +76 0 +73 0 +70 0 +67 0 +64 0 +61 0 +58 0 +55 0 +52 0 
+49 0 +46 0 +43 0 *
Ed
 0.000000100000000 1 1 0
1  85 0 0.999999999999950 7.349999999999952
3  73 74CN 18 0 0.999999999999950 7.349999999999952
0

0101000
+66 24 -200 24 *
Wi

0101100
-199 0 +41 10 +65 0 -41 10 *
Fa
0  0.000000100000000 18 10

0111000
+40 0 *
Ed
 0.000000100000000 1 1 0
1  86 0 0.999999999999950 7.349999999999952
3  75 76CN 19 0 0.999999999999950 7.349999999999952
0

0101000
+63 25 -197 25 *
Wi

0101100
-196 0 +38 12 +62 0 -38 12 *
Fa
0  0.000000100000000 19 12

0111000
+37 0 *
Ed
 0.000000100000000 1 1 0
1  87 0 0.999999999999950 7.349999999999952
3  77 78CN 20 0 0.999999999999950 7.349999999999952
0

0101000
+78 26 -194 26 *
Wi

0101100
-193 0 +35 13 +77 0 -35 13 *
Fa
0  0.000000100000000 20 13

0111000
+34 0 *
Ed
 0.000000100000000 1 1 0
1  88 0 0.999999999999950 7.349999999999952
3  79 80CN 21 0 0.999999999999950 7.349999999999952
0

0101000
+75 27 -191 27 *
Wi

0101100
-190 0 +32 14 +74 0 -32 14 *
Fa
0  0.000000100000000 21 14

0111000
+31 0 *
Ed
 0.000000100000000 1 1 0
1  89 0 0.999999999999950 7.349999999999952
3  81 82CN 22 0 0.999999999999950 7.349999999999952
0

0101000
+72 28 -188 28 *
Wi

0101100
-187 0 +29 15 +71 0 -29 15 *
Fa
0  0.000000100000000 22 15

0101000
+28 0 *
Ed
 0.000000100000000 1 1 0
1  90 0 0.999999999999950 7.349999999999952
3  83 84CN 23 0 0.999999999999950 7.349999999999952
0

0101000
+69 29 -185 29 *
Wi

0101100
-184 0 +26 17 +68 0 -26 17 *
Fa
0  0.000000100000000 23 17

0101000
+25 0 *
Ed
 0.000000100000000 1 1 0
1  91 0 0.999999999999950 7.349999999999952
3  85 86CN 24 0 0.999999999999950 7.349999999999952
0

0101000
+48 30 -182 30 *
Wi

0101100
-181 0 +23 18 +47 0 -23 18 *
Fa
0  0.000000100000000 24 18

0111000
+22 0 *
Ed
 0.000000100000000 1 1 0
1  92 0 0.999999999999950 7.349999999999952
3  87 88CN 25 0 0.999999999999950 7.349999999999952
0

0101000
+45 31 -179 31 *
Wi

0101100
-178 0 +20 19 +44 0 -20 19 *
Fa
0  0.000000100000000 25 19

0111000
+19 0 *
Ed
 0.000000100000000 1 1 0
1  93 0 0.999999999999950 7.349999999999952
3  89 90CN 26 0 0.999999999999950 7.349999999999952
0

0101000
+60 32 -176 32 *
Wi

0101100
-175 0 +17 20 +59 0 -17 20 *
Fa
0  0.000000100000000 26 20

0101000
+16 0 *
Ed
 0.000000100000000 1 1 0
1  94 0 0.999999999999950 7.349999999999952
3  91 92CN 27 0 0.999999999999950 7.349999999999952
0

0101000
+57 33 -173 33 *
Wi

0101100
-172 0 +14 21 +56 0 -14 21 *
Fa
0  0.000000100000000 27 21

0101000
+13 0 *
Ed
 0.000000100000000 1 1 0
1  95 0 0.999999999999950 7.349999999999952
3  93 94CN 28 0 0.999999999999950 7.349999999999952
0

0101000
+54 34 -170 34 *
Wi

0101100
-169 0 +11 22 +53 0 -11 22 *
Fa
0  0.000000100000000 28 22

0111000
+10 0 *
Ed
 0.000000100000000 1 1 0
1  96 0 0.999999999999950 7.349999999999952
3  95 96CN 29 0 0.999999999999950 7.349999999999952
0

0101000
+51 35 -167 35 *
Wi

0101100
-166 0 +8 23 +50 0 -8 23 *
Fa
0  0.000000100000000 29 23

0111000
+7 0 *
Sh

0101100
-236 4 -229 4 -216 4 +203 9 -164 0 -159 4 -154 4 -149 4 -144 4 -139 4 
-134 4 -129 4 -124 4 -119 4 -114 4 -109 4 -104 4 -89 4 -86 4 -83 4 
-80 4 -42 0 -39 3 -36 3 -33 3 -30 3 -27 0 -24 0 -21 3 -18 3 
-15 0 -12 0 -9 3 -6 3 *
So

0100000
+5 0 *
Co

0100000
+4 0 *
Co

0100000
+3 0 *
Co

1100000
+2 0 *

+1 1 