
CASCADE Topology V1, (c) Matra-Datavision
Locations 7
1
1.000000000000000 0.000000000000000 0.000000000000000 0.000000000000000 
0.000000000000000 1.000000000000000 0.000000000000000 0.000000000000000 
0.000000000000000 0.000000000000000 1.000000000000000 0.000000000000000 
1
1.000000000000000 0.000000000000000 0.000000000000000 0.000000000000000 
0.000000000000000 1.000000000000000 0.000000000000000 0.000000000000000 
0.000000000000000 0.000000000000000 1.000000000000000 0.000000000000000 
2  2 -1 0
1
1.000000000000000 0.000000000000000 0.000000000000000 0.000000000000000 
0.000000000000000 1.000000000000000 0.000000000000000 0.000000000000000 
0.000000000000000 0.000000000000000 1.000000000000000 12.699999999999999 
2  2 -1 4 -1 0
1
1.000000000000000 0.000000000000000 0.000000000000000 0.000000000000000 
0.000000000000000 1.000000000000000 0.000000000000000 8.000000000000000 
0.000000000000000 0.000000000000000 1.000000000000000 0.000000000000000 
2  2 -1 6 -1 0
Curve2ds 39
1 0.00000000000000000 1.00000000000000000 1.00000000000000000 0.00000000000000000 
1 0.00000000000000000 1.00000000000000000 1.00000000000000000 0.00000000000000000 
1 0.00000000000000000 1.00000000000000000 1.00000000000000000 0.00000000000000000 
1 0.00000000000000000 13.69999999999999929 1.00000000000000000 0.00000000000000000 
1 0.00000000000000000 13.69999999999999929 1.00000000000000000 0.00000000000000000 
1 0.00000000000000000 13.69999999999999929 1.00000000000000000 0.00000000000000000 
1 0.00000000000000000 14.69999999999999929 1.00000000000000000 0.00000000000000000 
7 0 0  5 6 2  1.21852938181257087 14.70000060000000985  1.23716730317407531 11.80535678059010607  1.25580522453557997 8.88592289584477157  1.27444314589708796 5.94379376938023540  1.29308106725858885 2.98110013582854894  1.31171898862009328 -0.00000060000000701 
 1.21852938181257087 6 1.31171898862009306 6
1 6.28318530717958623 -0.00000000000000000 0.00000000000000000 1.00000000000000000 
1 0.00000000000000000 -0.00000000000000000 0.00000000000000000 1.00000000000000000 
1 0.74499223393510317 0.00000000000000000 0.00000000000000000 1.00000000000000000 
1 0.00000000000000000 14.69999999999999929 1.00000000000000000 0.00000000000000000 
1 2.39660041965468995 0.00000000000000000 0.00000000000000000 1.00000000000000000 
1 6.28318530717958623 -0.00000000000000000 0.00000000000000000 1.00000000000000000 
1 0.00000000000000000 -0.00000000000000000 0.00000000000000000 1.00000000000000000 
7 0 0  5 6 2  1.82987366496969961 -0.00000060000001412  1.84851158633120405 2.98110013582854227  1.86714950769271582 5.94379376938044857  1.88578742905421137 8.88592289584452999  1.90442535041571759 11.80535678059009186  1.92306327177722203 14.70000059999999564 
 4.97146631855949295 6 5.06465592536701514 6
1 6.28318530717958623 -0.00000000000000000 0.00000000000000000 1.00000000000000000 
1 0.00000000000000000 -0.00000000000000000 0.00000000000000000 1.00000000000000000 
1 3.93457137709322113 0.00000000000000000 0.00000000000000000 1.00000000000000000 
1 2.34861393008636377 0.00000000000000000 0.00000000000000000 1.00000000000000000 
1 0.00000000000000000 8.00000000000000000 1.00000000000000000 0.00000000000000000 
1 6.28318530717958623 -0.00000000000000000 0.00000000000000000 1.00000000000000000 
1 0.00000000000000000 -0.00000000000000000 0.00000000000000000 1.00000000000000000 
1 0.00000000000000000 0.00000000000000000 1.00000000000000000 0.00000000000000000 
1 0.00000000000000000 23.00000000000000000 1.00000000000000000 0.00000000000000000 
1 0.00000000000000000 23.00000000000000000 1.00000000000000000 0.00000000000000000 
1 6.28318530717958623 -0.00000000000000000 0.00000000000000000 1.00000000000000000 
1 0.00000000000000000 -0.00000000000000000 0.00000000000000000 1.00000000000000000 
7 0 0  8 16 3  0.00000000000000000 55.67500000000000426  0.01794419694823972 55.67500000000000426  0.03576222504701977 55.69285094264181168  0.05328830275862511 55.72811252913410840  0.07036192291182283 55.77991564015727732  0.08683054150764230 55.84697066880166005  0.10255317494669754 55.92757037719142232  0.11740490567805212 56.01958727679425465  0.16571500166196634 56.37076556061158072  0.19478580653258071 56.68024699383762766  0.21855426733739847 57.02817912791259403  0.23724306152611052 57.40124735136189571  0.25108260571229268 57.79031959855072387  0.26026760402415761 58.18918993086924729  0.26489820336337466 58.59364113774299199  0.26489820336337466 59.00000000000000000 
 0.00000000000000000 9 0.28725653114402755 7 1.00000000000000000 9
7 0 0  8 16 3  4.71238898038468879 26.39999999999998082  4.78092771760052138 26.39999999999998082  4.84898445229167585 26.39532682887387693  4.91638344082061263 26.38609395967437266  4.98294060253332116 26.37266267208133286  5.04845084763690721 26.35561518753980792  5.11267254158694051 26.33570519202362448  5.17530910598450511 26.31378574642436163  5.38654416391973534 26.23347021185110250  5.52783050957866173 26.16807898697213730  5.66223373627845739 26.10384996066818530  5.79133274273327103 26.04750435606975856  5.91659353936402255 26.00294654468033428  6.03933191411933024 25.97241077698584988  6.16097211552334478 25.95701329851606687  6.28318530717958623 25.95701329851606687 
 0.00000000000000000 9 0.28725653114402755 7 1.00000000000000000 9
7 0 0  7 20 4  0.26489820336337466 59.00000000000000000  0.26489820336337466 59.28658413257561932  0.26254710548063864 59.57293128175962948  0.25785173437540371 59.85720448713829711  0.25079125700723159 60.13746885912153317  0.24132336948588132 60.41150126086606775  0.22938900930064896 60.67649924202510192  0.20241629670386546 61.14648143125307911  0.18796912444038572 61.35566567373306412  0.17152625747083042 61.55315972228471111  0.15306053768909300 61.73529838494275879  0.13257208590935662 61.89776191267658589  0.11009727210985520 62.03543633131767621  0.07432078904897824 62.19211471800264945  0.06250723341950952 62.23523503146230240  0.05036295313290375 62.27063589116217202  0.03796178177928989 62.29766565820629154  0.02538109997397999 62.31587153349808972  0.01270038947681448 62.32499999999999574  0.00000000000000000 62.32499999999999574 
 0.00000000000000000 8 0.44087455724194735 6 0.82161546504935101 6 1.00000000000000000 8
7 0 0  7 20 4  0.00000000000000000 25.95701329851607042  0.08619071656409781 25.95701329851607042  0.17231085998258489 25.96483092905382151  0.25884998147159610 25.98044220738719901  0.34627299055410427 26.00349273778501313  0.43504796513197647 26.03327172726198668  0.52568677988256129 26.06862812196778378  0.69921022662770427 26.14168277108544558  0.78181542872046073 26.17855075160288791  0.86685402591550109 26.21728556055719750  0.95458692430144820 26.25632110542447606  1.04533719387616864 26.29365580377531586  1.13949016806809911 26.32685897604016745  1.28356211820899557 26.36576593635936305  1.33033480810571603 26.37668988141851045  1.37774035075154244 26.38580542600798040  1.42562574500807626 26.39284351042311982  1.47385198573084786 26.39761008996486780  1.52228656849247734 26.39999999999998437  1.57079632679489656 26.39999999999998437 
 0.00000000000000000 8 0.44087455724194735 6 0.82161546504935101 6 1.00000000000000000 8
1 0.00000000000000000 68.57500000000000284 1.00000000000000000 0.00000000000000000 
7 0 0  7 38 7  6.28318530717958623 62.32499999999999574  6.26267765352445327 62.32499999999999574  6.24233822500193636 62.30119874314421224  6.22243227207237926 62.25430070749889921  6.20321449646314971 62.18586801218657456  6.18492188101992646 62.09829819621792524  6.16776288587176236 61.99482390258039288  6.13052831169214585 61.72415638282592454  6.11126830190302339 61.54553654804470852  6.09411063121420504 61.34904858086137835  6.07900860139087929 61.13876831760060782  6.06590273963004645 60.91781788342620274  6.05473428682366421 60.68857959720321560  6.03763844764880808 60.25419541183477889  6.03116042754355597 60.05087185903056479  6.02600027991813114 59.84404138459435529  6.02214134456505068 59.63469587220173906  6.01957219774734487 59.42370553457850235  6.01828710381621246 59.21187535706614824  6.01828710381621246 58.71341586742428120  6.02063820169895259 58.42706871824037762  6.02533357280417636 58.14279551286181658  6.03239405017235075 57.86253114087846683  6.04186193769371460 57.58849873913379014  6.05379629787893414 57.32350075797494782  6.08076901047571639 56.85351856874701326  6.09521618273920573 56.64433432626683640  6.11165904970876639 56.44684027771517520  6.13012476949047258 56.26470161505747569  6.15061322127024912 56.10223808732325068  6.17308803506972215 55.96456366868235932  6.20886451813060880 55.80788528199735055  6.22067807376008908 55.76476496853765497  6.23282235404667606 55.72936410883783509  6.24522352540028702 55.70233434179374399  6.25780420720561636 55.68412846650188897  6.27048491770277128 55.67500000000000426  6.28318530717958623 55.67500000000000426 
 0.00000000000000000 8 0.14352190606649928 6 0.33694950752787045 6 0.49994090223014886 6 0.72040423555434585 6 0.91079719039654505 6 1.00000000000000000 8
7 0 0  7 38 7  1.57079632679489656 26.39999999999998437  1.64912631218442551 26.39999999999998437  1.72681362754103440 26.39376910516517327  1.80357708304468178 26.38148887237989371  1.87911881484237187 26.36383647178275780  1.95309049272171475 26.34191304713487369  2.02504807382348728 26.31708162668986262  2.18785560450286809 26.25517914711625522  2.27764554578274048 26.21644815142543550  2.36436003222558888 26.17691841376859330  2.44846775958852891 26.13853289704356087  2.53040353905752102 26.10272778339644617  2.61057227138324333 26.07056478500791030  2.75581244487439170 26.01943456397706811  2.82129546402056919 25.99917996885353588  2.88605582002339789 25.98253212935648904  2.95028425743953227 25.96982862507312717  3.01416234234024527 25.96128624261986673  3.07787074169019848 25.95701329851607042  3.22778337015391825 25.95701329851607042  3.31390351357237067 25.96483092905382861  3.40044263506135902 25.98044220738717414  3.48786564414390510 26.00349273778499892  3.57664061872181094 26.03327172726201510  3.66727943347233643 26.06862812196777668  3.84080288021746341 26.14168277108542782  3.92340808231031657 26.17855075160291634  4.00844667950528244 26.21728556055717974  4.09617957789118758 26.25632110542447606  4.18692984746603436 26.29365580377531586  4.28108282165785692 26.32685897604016034  4.42515477179879024 26.36576593635936305  4.47192746169555821 26.37668988141851045  4.51933300434131446 26.38580542600798040  4.56721839859783518 26.39284351042312338  4.61544463932066851 26.39761008996486424  4.66387922208226691 26.39999999999998437  4.71238898038468879 26.39999999999998437 
 0.00000000000000000 8 0.14352190606649928 6 0.33694950752787045 6 0.49994090223014886 6 0.72040423555434585 6 0.91079719039654505 6 1.00000000000000000 8
7 0 0  7 68 12  2.87669445022641890 59.00000000000000000  2.87669445022641890 59.28658412732886518  2.87904554830757409 59.57293129380002483  2.88374091892376416 59.85720448021219653  2.89080139648936196 60.13746885178791501  2.90026928454176058 60.41150127241472489  2.91220364402030274 60.67649923734071393  2.93917635688591883 61.14648143125292279  2.95362352914935178 61.35566567373266622  2.97006639611911893 61.55315972228589061  2.98853211590052270 61.73529838494152244  3.00902056768053949 61.89776191267718986  3.03149538147990860 62.03543633131754831  3.07449801440296566 62.22376068779850300  3.09426530429937019 62.28735167345427470  3.11482165506620534 62.32874008397785559  3.13579106834498633 62.34550387540889460  3.15678022328741337 62.33689408616435657  3.17739794713535195 62.30383834122038422  3.21909252258232170 62.18882659334820318  3.23983237037950245 62.10291519046768371  3.25934378072946673 61.99475132221569851  3.27751133674504169 61.86770501559210800  3.29425022572451054 61.72509581883850416  3.30950648182399165 61.57022891834223799  3.33720256241690771 61.24036446011132284  3.34969656715218367 61.06398455665278391  3.36077627361706677 60.87939995821368910  3.37047663375651485 60.68827788378018084  3.37883073444721438 60.49192520825351238  3.38586612110379637 60.29138040155685019  3.39587114343874275 59.93566750813835142  3.39941911733258939 59.78202426030652816  3.40225097741479354 59.62698299609756702  3.40437164192032693 59.47091781403872801  3.40578440150048545 59.31417682578837258  3.40649085695316867 59.15709383230228724  3.40649085695316867 58.71341586742447305  3.40413975907042454 58.42706871824024262  3.39944438796520387 58.14279551286173131  3.39238391059703037 57.86253114087855209  3.38291602307566475 57.58849873913384698  3.37098166289044299 57.32350075797491940  3.34400895029366119 56.85351856874697773  3.32956177803016606 56.64433432626697140  3.31311891106063827 56.44684027771499046  3.29465319127888190 56.26470161505761070  3.27416473949913822 56.10223808732320805  3.25168992569965765 55.96456366868236643  3.20868729277662013 55.77623931220149700  3.18892000288021338 55.71264832654571819  3.16836365211338089 55.67125991602215151  3.14739423883459946 55.65449612459111961  3.12640508389217020 55.66310591383565054  3.10578736004423828 55.69616165877960157  3.06409278459725476 55.81117340665181104  3.04335293680008423 55.89708480953228076  3.02384152645012572 56.00524867778433702  3.00567397043455342 56.13229498440784937  2.98893508145507925 56.27490418116135373  2.97367882535558348 56.42977108165788280  2.93561530540418048 56.88311329175901676  2.91568642637845077 57.20430245002056324  2.89997726372233133 57.54593177096673884  2.88831738477421407 57.90089647211038226  2.88057942630197061 58.26405905060703816  2.87669445022641845 58.63160972472447696  2.87669445022641845 59.00000000000000000 
 0.00000000000000000 8 0.11037711007370331 6 0.20569919119556512 6 0.27863313741387286 6 0.35869980803523893 6 0.43986032919637469 6 0.50030234601690549 6 0.61056589174476461 6 0.70578990004568221 6 0.77864880763958777 6 0.85863310108086266 6 1.00000000000000000 8
7 0 0  7 68 12  0.00000000000000000 1.44298670148391217  0.08619071498612156 1.44298670148391217  0.17231086380893554 1.43516907038637886  0.25884997907010721 1.41955779342136523  0.34627298826499497 1.39650726248729007  0.43504796909510762 1.36672827152716425  0.52568677815302811 1.33137187876034058  0.69921022662764798 1.25831722891455877  0.78181542872024501 1.22144924839716351  0.86685402591612104 1.18271443944255994  0.95458692430074921 1.14367889457573924  1.04533719387657431 1.10634419622454261  1.13949016806798054 1.07314102395984179  1.31266183437949935 1.02637561859813320  1.39012934090892659 1.01000847655651294  1.46905800442382706 0.99903805294884684  1.54869904642820644 0.99455448226402876  1.62838574614129494 0.99690621204496355  1.70742565718952011 1.00563454377505246  1.87015212787904184 1.03510341862144162  1.95281586007924290 1.05680481376912527  2.03317361452323508 1.08341488100569028  2.11131606140272465 1.11338665131124981  2.18726964600669849 1.14518701762122155  2.26100106839877224 1.17743585041088217  2.40476338287034030 1.24098485943652848  2.47522587636750213 1.27248528672791150  2.54408139504481889 1.30250345560695679  2.61158673329419200 1.33026606729654207  2.67798291478079520 1.35518463338139350  2.74350764785014523 1.37681874741252885  2.85671529720899420 1.40825580545265416  2.90467035111927396 1.41966567500156748  2.95233735839271150 1.42892774549018386  2.99979095815786545 1.43594043124817472  3.04710341817318753 1.44063761297246939  3.09434638823572117 1.44298670148391039  3.22778337015386274 1.44298670148391039  3.31390351357242663 1.43516907094615020  3.40044263506137501 1.41955779261279047  3.48786564414387001 1.39650726221496924  3.57664061872180383 1.36672827273797837  3.66727943347234531 1.33137187803219592  3.84080288021747895 1.25831722891454056  3.92340808231026550 1.22144924839707403  4.00844667950534994 1.18271443944278154  4.09617957789114406 1.14367889457550653  4.18692984746605212 1.10634419622465296  4.28108282165785603 1.07314102395981870  4.45425448796929757 1.02637561859813142  4.53172199449869684 1.01000847655651227  4.61065065801364593 0.99903805294884640  4.69029170001802420 0.99455448226403020  4.76997839973105897 0.99690621204496488  4.84901831077929835 1.00563454377504957  5.01174478146887292 1.03510341862144850  5.09440851366907399 1.05680481376913060  5.17476626811298335 1.08341488100568695  5.25290871499244894 1.11338665131123249  5.32886229959649516 1.14518701762121067  5.40259372198862131 1.17743585041090726  5.60017040460949111 1.26477308084770690  5.72067054973309297 1.31911230212891240  5.83703353777759304 1.36673818406244463  5.95040536731732672 1.40433961164414534  6.06184997235799372 1.43006937755303598  6.17239123942754819 1.44298670148391217  6.28318530717958623 1.44298670148391217 
 0.00000000000000000 8 0.11037711007370331 6 0.20569919119556512 6 0.27863313741387286 6 0.35869980803523893 6 0.43986032919637469 6 0.50030234601690549 6 0.61056589174476461 6 0.70578990004568221 6 0.77864880763958777 6 0.85863310108086266 6 1.00000000000000000 8
1 6.28318530717958623 -0.00000000000000000 0.00000000000000000 1.00000000000000000 
1 0.00000000000000000 -0.00000000000000000 0.00000000000000000 1.00000000000000000 
Curves 63
1 -60.00000000000000000 -65.00000000000000000 0.00000000000000000 0.00000000000000000 0.00000000000000000 1.00000000000000000 
1 60.00000000000000000 -65.00000000000000000 0.00000000000000000 0.00000000000000000 0.00000000000000000 1.00000000000000000 
1 -60.00000000000000000 -65.00000000000000000 0.00000000000000000 1.00000000000000000 0.00000000000000000 0.00000000000000000 
1 -60.00000000000000000 -65.00000000000000000 0.00000000000000000 1.00000000000000000 0.00000000000000000 0.00000000000000000 
1 0.00000000000000000 25.00000000000000000 0.00000000000000000 0.00000000000000000 0.00000000000000000 1.00000000000000000 
1 0.00000000000000000 25.00000000000000000 0.00000000000000000 -0.55470019622522915 -0.83205029433784372 0.00000000000000000 
1 0.00000000000000000 25.00000000000000000 0.00000000000000000 -0.55470019622522915 -0.83205029433784372 0.00000000000000000 
1 60.00000000000000000 -65.00000000000000000 0.00000000000000000 -0.55470019622522915 0.83205029433784372 0.00000000000000000 
1 60.00000000000000000 -65.00000000000000000 0.00000000000000000 -0.55470019622522915 0.83205029433784372 0.00000000000000000 
2 -27.00000000000000000 -46.00000000000000000 0.00000000000000000 0.00000000000000000 0.00000000000000000 1.00000000000000000 1.00000000000000000 0.00000000000000000 0.00000000000000000 0.00000000000000000 1.00000000000000000 0.00000000000000000 8.84999999999999964
2 27.00000000000000000 -46.00000000000000000 0.00000000000000000 0.00000000000000000 0.00000000000000000 1.00000000000000000 1.00000000000000000 0.00000000000000000 0.00000000000000000 0.00000000000000000 1.00000000000000000 0.00000000000000000 8.84999999999999964
2 0.00000000000000000 -3.00000000000000000 0.00000000000000000 0.00000000000000000 0.00000000000000000 1.00000000000000000 1.00000000000000000 0.00000000000000000 0.00000000000000000 0.00000000000000000 1.00000000000000000 0.00000000000000000 8.84999999999999964
1 -24.00000000000000000 -40.00000000000000000 12.69999999999999929 1.00000000000000000 0.00000000000000000 0.00000000000000000 
2 -27.00000000000000000 -46.00000000000000000 12.69999999999999929 0.00000000000000000 0.00000000000000000 1.00000000000000000 1.00000000000000000 0.00000000000000000 0.00000000000000000 0.00000000000000000 1.00000000000000000 0.00000000000000000 8.84999999999999964
2 27.00000000000000000 -46.00000000000000000 12.69999999999999929 0.00000000000000000 0.00000000000000000 1.00000000000000000 1.00000000000000000 0.00000000000000000 0.00000000000000000 0.00000000000000000 1.00000000000000000 0.00000000000000000 8.84999999999999964
2 -27.00000000000000000 -46.00000000000000000 12.69999999999999929 0.00000000000000000 0.00000000000000000 1.00000000000000000 1.00000000000000000 0.00000000000000000 0.00000000000000000 0.00000000000000000 1.00000000000000000 0.00000000000000000 8.84999999999999964
2 27.00000000000000000 -46.00000000000000000 12.69999999999999929 0.00000000000000000 0.00000000000000000 1.00000000000000000 1.00000000000000000 0.00000000000000000 0.00000000000000000 0.00000000000000000 1.00000000000000000 0.00000000000000000 8.84999999999999964
1 -24.00000000000000000 -40.00000000000000000 12.69999999999999929 0.00000000000000000 1.00000000000000000 0.00000000000000000 
1 24.00000000000000000 -40.00000000000000000 12.69999999999999929 0.00000000000000000 1.00000000000000000 0.00000000000000000 
1 -24.00000000000000000 -40.00000000000000000 12.69999999999999929 1.00000000000000000 0.00000000000000000 0.00000000000000000 
2 0.00000000000000000 -3.00000000000000000 12.69999999999999929 0.00000000000000000 0.00000000000000000 1.00000000000000000 1.00000000000000000 0.00000000000000000 0.00000000000000000 0.00000000000000000 1.00000000000000000 0.00000000000000000 8.84999999999999964
2 -27.00000000000000000 -46.00000000000000000 13.69999999999999929 0.00000000000000000 0.00000000000000000 1.00000000000000000 1.00000000000000000 0.00000000000000000 0.00000000000000000 0.00000000000000000 1.00000000000000000 0.00000000000000000 8.84999999999999964
3 -27.00000000000000000 -46.00000000000000000 -43.39166666666673677 -0.99857279844148317 0.00000000000000000 0.05340754827498647 0.05340754827498647 0.00000000000000000 0.99857279844148317 0.00000000000000000 1.00000000000000000 0.00000000000000000 165.70691383234520799 8.84999999999999964
1 -18.14999999999999858 -46.00000000000000000 -1.00000000000000000 0.00000000000000000 0.00000000000000000 1.00000000000000000 
1 -20.49442546733956760 -40.00000000000000000 -1.00000000000000000 0.00000000000000000 0.00000000000000000 1.00000000000000000 
2 27.00000000000000000 -46.00000000000000000 13.69999999999999929 0.00000000000000000 0.00000000000000000 1.00000000000000000 1.00000000000000000 0.00000000000000000 0.00000000000000000 0.00000000000000000 1.00000000000000000 0.00000000000000000 8.84999999999999964
1 20.49442546733956760 -40.00000000000000000 -1.00000000000000000 0.00000000000000000 0.00000000000000000 1.00000000000000000 
1 35.84999999999999432 -46.00000000000000000 -1.00000000000000000 0.00000000000000000 0.00000000000000000 1.00000000000000000 
3 27.00000000000000000 -46.00000000000000000 -43.39166666666667282 0.99857279844148317 0.00000000000000000 0.05340754827498647 -0.05340754827498647 0.00000000000000000 0.99857279844148317 0.00000000000000000 -1.00000000000000000 0.00000000000000000 165.70691383234520799 8.84999999999999964
1 8.84999999999999964 -3.00000000000000222 -1.00000000000000000 0.00000000000000000 0.00000000000000000 1.00000000000000000 
1 24.00000000000000000 -40.00000000000000000 12.69999999999999929 -0.05340754827498647 0.00000000000000000 0.99857279844148317 
1 13.50000000000000000 -40.00000000000000000 13.70000000000000107 -1.00000000000000000 0.00000000000000000 0.00000000000000000 
1 -13.50000000000000000 -40.00000000000000000 13.70000000000000107 -1.00000000000000000 0.00000000000000000 0.00000000000000000 
1 -15.00000000000000000 -40.00000000000000000 180.97499999999999432 -0.05340754827498647 0.00000000000000000 -0.99857279844148317 
2 0.00000000000000000 -40.00000000000000000 180.97499999999999432 0.00000000000000000 1.00000000000000000 0.00000000000000000 0.00000000000000000 0.00000000000000000 1.00000000000000000 1.00000000000000000 0.00000000000000000 0.00000000000000000 22.22500000000000142
1 -23.94651611944733105 -43.00000000000000000 13.69999999999999396 0.00000000000000000 1.00000000000000000 0.00000000000000000 
1 -15.00000000000000000 -40.00000000000000000 180.97499999999999432 -0.05340754827498647 0.00000000000000000 -0.99857279844148317 
1 -15.83412742955216146 -40.00000000000000000 165.37913408801216519 0.00000000000000000 1.00000000000000000 0.00000000000000000 
1 15.83412742955216501 -40.00000000000000000 165.37913408801219362 0.00000000000000000 1.00000000000000000 0.00000000000000000 
1 24.00000000000000000 -40.00000000000000000 12.69999999999999929 -0.05340754827498647 0.00000000000000000 0.99857279844148317 
1 23.94651611944733460 -43.00000000000000000 13.69999999999999929 0.00000000000000000 -1.00000000000000000 0.00000000000000000 
2 0.00000000000000000 -32.00000000000000000 180.97499999999999432 0.00000000000000000 1.00000000000000000 0.00000000000000000 0.00000000000000000 0.00000000000000000 1.00000000000000000 1.00000000000000000 0.00000000000000000 0.00000000000000000 22.22500000000000142
1 15.00000000000000000 -40.00000000000000000 180.97499999999999432 -1.00000000000000000 0.00000000000000000 0.00000000000000000 
2 0.00000000000000000 -40.00000000000000000 180.97499999999999432 0.00000000000000000 1.00000000000000000 0.00000000000000000 0.00000000000000000 0.00000000000000000 1.00000000000000000 1.00000000000000000 0.00000000000000000 0.00000000000000000 12.69999999999999929
1 15.00000000000000000 -40.00000000000000000 180.97499999999999432 -1.00000000000000000 0.00000000000000000 0.00000000000000000 
1 24.00000000000000000 -40.00000000000000000 12.69999999999999929 -0.05340754827498647 0.00000000000000000 0.99857279844148317 
1 -15.00000000000000000 -40.00000000000000000 180.97499999999999432 -0.05340754827498647 0.00000000000000000 -0.99857279844148317 
1 -0.00000000000000544 -40.00000000000000000 203.19999999999998863 0.00000000000000000 1.00000000000000000 0.00000000000000000 
2 0.00000000000000000 -40.00000000000000000 180.97499999999999432 0.00000000000000000 1.00000000000000000 0.00000000000000000 0.00000000000000000 0.00000000000000000 1.00000000000000000 1.00000000000000000 0.00000000000000000 0.00000000000000000 22.22500000000000142
2 0.00000000000000000 -40.00000000000000000 180.97499999999999432 0.00000000000000000 1.00000000000000000 0.00000000000000000 0.00000000000000000 0.00000000000000000 1.00000000000000000 1.00000000000000000 0.00000000000000000 0.00000000000000000 22.22500000000000142
2 0.00000000000000000 -17.00000000000000000 180.97499999999999432 0.00000000000000000 1.00000000000000000 0.00000000000000000 0.00000000000000000 0.00000000000000000 1.00000000000000000 1.00000000000000000 0.00000000000000000 0.00000000000000000 22.22500000000000142
2 0.00000000000000000 -40.00000000000000000 180.97499999999999432 0.00000000000000000 1.00000000000000000 0.00000000000000000 0.00000000000000000 0.00000000000000000 1.00000000000000000 1.00000000000000000 0.00000000000000000 0.00000000000000000 12.69999999999999929
2 0.00000000000000000 -40.00000000000000000 180.97499999999999432 0.00000000000000000 1.00000000000000000 0.00000000000000000 0.00000000000000000 0.00000000000000000 1.00000000000000000 1.00000000000000000 0.00000000000000000 0.00000000000000000 12.69999999999999929
1 15.00000000000000000 -40.00000000000000000 180.97499999999999432 -1.00000000000000000 0.00000000000000000 0.00000000000000000 
2 0.00000000000000000 -17.00000000000000000 180.97499999999999432 0.00000000000000000 1.00000000000000000 0.00000000000000000 0.00000000000000000 0.00000000000000000 1.00000000000000000 1.00000000000000000 0.00000000000000000 0.00000000000000000 12.69999999999999929
1 -0.00000000000000311 -40.00000000000000000 193.67499999999998295 0.00000000000000000 1.00000000000000000 0.00000000000000000 
7 0 0  8 16 3  -0.00000000000000031 15.67499999999999893 193.67499999999998295  0.22789130124264403 15.67499999999999893 193.67499999999998295  0.45418011150235837 15.69285094264181879 193.67032682887389683  0.67664990909472056 15.72811252913411373 193.66109395967436058  0.89315563923708319 15.77991564015728443 193.64766267208131012  1.10168419805179507 15.84697066880166361 193.63061518753977452  1.30041401530527678 15.92757037719142765 193.61070519202360174  1.48777373588294637 16.01958727679426175 193.58878574642437798  2.09603236596939224 16.37076556061158072 193.50847021185111885  2.45980217743302143 16.68024699383742515 193.44307898697201153  2.75500152924724206 17.02817912791323707 193.37884996066850363  2.98562936579768978 17.40124735136097911 193.32250435606940187  3.15566285999413543 17.79031959855139178 193.27794654468058866  3.26824250280269535 18.18918993086903768 193.24741077698575964  3.32500000000000107 18.59364113774299554 193.23201329851607966  3.32500000000000107 19.00000000000000000 193.23201329851607966 
 0.00000000000000000 9 0.28725653114402755 7 1.00000000000000000 9
7 0 0  7 20 4  3.32500000000000195 19.00000000000000000 193.23201329851605124  3.32500000000000195 19.28658413257562287 193.23201329851605124  3.29618280533938313 19.57293128175962238 193.23983092905382364  3.23863075478150764 19.85720448713829001 193.25544220738720469  3.15197565246224842 20.13746885912152251 193.27849273778502948  3.03546601373189739 20.41150126086605709 193.30827172726202434  2.88804871399774976 20.67649924202510192 193.34362812196781078  2.55337591209279324 21.14648143125307556 193.41668277108544771  2.37362425268753041 21.35566567373306412 193.45355075160301794  2.16837894277463894 21.55315972228470756 193.49228556055703621  1.93704667323136892 21.73529838494275879 193.53132110542460964  1.67939429322775946 21.89776191267658234 193.56865580377530023  1.39576550732209204 22.03543633131767976 193.60185897604017669  0.94307303878918169 22.19211471800265301 193.64076593635937229  0.79342667098626607 22.23523503146229885 193.65168988141854811  0.63944005878749166 22.27063589116216491 193.66080542600798253  0.48207218824970260 22.29766565820628443 193.66784351042315393  0.32233995013733113 22.31587153349809327 193.67261008996484861  0.16129494635554445 22.32500000000000639 193.67499999999998295  0.00000000000000051 22.32500000000000639 193.67499999999998295 
 0.00000000000000000 8 0.44087455724194735 6 0.82161546504935101 6 1.00000000000000000 8
1 -0.00000000000000311 -40.00000000000000000 193.67499999999998295 0.00000000000000000 1.00000000000000000 0.00000000000000000 
2 0.00000000000000000 28.57500000000000284 180.97499999999999432 0.00000000000000000 1.00000000000000000 0.00000000000000000 0.00000000000000000 0.00000000000000000 1.00000000000000000 1.00000000000000000 0.00000000000000000 0.00000000000000000 12.69999999999999929
7 0 0  7 38 7  -0.00000000000000089 22.32500000000000639 193.67499999999998295  -0.26044720142018540 22.32500000000000639 193.67499999999998295  -0.51875774819640974 22.30119874314422290 193.66876910516518251  -0.77138520563367863 22.25430070749890277 193.65648887237989584  -1.01492607284049852 22.18586801218656390 193.63883647178278125  -1.24628107340406191 22.09829819621792879 193.61691304713485806  -1.46281284100904441 21.99482390258039999 193.59208162668988962  -1.93162273718243993 21.72415638282592454 193.53017914711625735  -2.17323390702325092 21.54553654804446339 193.49144815142548737  -2.38760351244650337 21.34904858086198232 193.45191841376845332  -2.57556533865388593 21.13876831760001807 193.41353289704377971  -2.73813366858074803 20.91781788342642301 193.37772778339632396  -2.87628415578311936 20.68857959720321560 193.34556478500792309  -3.08729496258503344 20.25419541183478245 193.29443456397709156  -3.16703868915464115 20.05087185903057190 193.27417996885350249  -3.23042494145412595 19.84404138459435174 193.25753212935651959  -3.27775847817726440 19.63469587220174617 193.24482862507315417  -3.30924860263404241 19.42370553457850946 193.23628624261982623  -3.32500000000000284 19.21187535706615535 193.23201329851605124  -3.32500000000000284 18.71341586742428120 193.23201329851605124  -3.29618280533931740 18.42706871824037762 193.23983092905382364  -3.23863075478159335 18.14279551286182723 193.25544220738714785  -3.15197565246229328 17.86253114087847749 193.27849273778500105  -3.03546601373177394 17.58849873913379014 193.30827172726202434  -2.88804871399778307 17.32350075797494782 193.34362812196772552  -2.55337591209285675 16.85351856874701681 193.41668277108541929  -2.37362425268748822 16.64433432626683285 193.45355075160301794  -2.16837894277445686 16.44684027771518942 193.49228556055706463  -1.93704667323168822 16.26470161505745793 193.53132110542455280  -1.67939429322748990 16.10223808732326489 193.56865580377532865  -1.39576550732220683 15.96456366868236287 193.60185897604017669  -0.94307303878917714 15.80788528199734522 193.64076593635937229  -0.79342667098610598 15.76476496853766029 193.65168988141854811  -0.63944005878757026 15.72936410883784575 193.66080542600798253  -0.48207218824981402 15.70233434179374221 193.66784351042315393  -0.32233995013723105 15.68412846650188364 193.67261008996484861  -0.16129494635555833 15.67499999999999893 193.67499999999998295  -0.00000000000000178 15.67499999999999893 193.67499999999998295 
 0.00000000000000000 8 0.14352190606649928 6 0.33694950752787045 6 0.49994090223014886 6 0.72040423555434585 6 0.91079719039654505 6 1.00000000000000000 8
7 0 0  7 68 12  3.32500000000000195 19.00000000000000000 168.71798670148390897  3.32500000000000195 19.28658412732885807 168.71798670148390897  3.29618280288279886 19.57293129380004260 168.71016907038639943  3.23863075838244807 19.85720448021217521 168.69455779342138158  3.15197565361387699 20.13746885178789370 168.67150726248726755  3.03546600830503666 20.41150127241476042 168.64172827152717105  2.88804871733348145 20.67649923734072459 168.60637187876037046  2.55337591209290204 21.14648143125292279 168.53331722891456934  2.37362425268840971 21.35566567373265912 168.49644924839714122  2.16837894277222221 21.55315972228587640 168.45771443944255452  1.93704667323407387 21.73529838494157218 168.41867889457580532  1.67939429322626710 21.89776191267716143 168.38134419622451787  1.39576550732246618 22.03543633131754831 168.34814102395984037  0.85163801390092586 22.22376068779848879 168.30137561859814355  0.60107561999128656 22.28735167345425339 168.28500847655655548  0.34012189724059544 22.32874008397787335 168.27403805294883909  0.07369618016369202 22.34550387540891236 168.26955448226405565  -0.19298900661683346 22.33689408616433525 168.27190621204499621  -0.45475307565235851 22.30383834122038778 168.28063454377505082  -0.98345354796136397 22.18882659334821028 168.31010341862139512  -1.24604912658021583 22.10291519046770503 168.33180481376916759  -1.49252867862492766 21.99475132221568430 168.35841488100570018  -1.72139424922959305 21.86770501559209379 168.38838665131126504  -1.93163766557295657 21.72509581883852903 168.42018701762125943  -2.12271032983260133 21.57022891834223444 168.45243585041089318  -2.46866221709556521 21.24036446011132284 168.51598485943651440  -2.62420449952082580 21.06398455665279457 168.54748528672789121  -2.76169994482787207 20.87939995821369266 168.57750345560697269  -2.88173776772446377 20.68827788378018440 168.60526606729655441  -2.98487230173230378 20.49192520825349817 168.63018463338136144  -3.07156436768250218 20.29138040155684664 168.65181874741256252  -3.19467779708077382 19.93566750813834432 168.68325580545268849  -3.23826928418212656 19.78202426030652461 168.69466567500157339  -3.27302132756037389 19.62698299609755281 168.70392774549017645  -3.29902479236806867 19.47091781403872091 168.71094043124821837  -3.31634092279785131 19.31417682578837614 168.71563761297252881  -3.32500000000000018 19.15709383230228724 168.71798670148390897  -3.32500000000000018 18.71341586742446239 168.71798670148390897  -3.29618280533934271 18.42706871824025328 168.71016907094622184  -3.23863075478154716 18.14279551286174197 168.69455779261278394  -3.15197565246226974 17.86253114087854144 168.67150726221493073  -3.03546601373183167 17.58849873913384698 168.64172827273804955  -2.88804871399776397 17.32350075797492295 168.60637187803220627  -2.55337591209282477 16.85351856874697418 168.53331722891454092  -2.37362425268765254 16.64433432626693232 168.49644924839714122  -2.16837894277415977 16.44684027771508994 168.45771443944269663  -1.93704667323193291 16.26470161505750411 168.41867889457560636  -1.67939429322738754 16.10223808732325068 168.38134419622463156  -1.39576550732220639 15.96456366868236287 168.34814102395981195  -0.85163801390090677 15.77623931220151121 168.30137561859814355  -0.60107561999123782 15.71264832654570931 168.28500847655655548  -0.34012189724061676 15.67125991602214086 168.27403805294883909  -0.07369618016370286 15.65449612459112139 168.26955448226405565  0.19298900661687771 15.66310591383565232 168.27190621204502463  0.45475307565230966 15.69616165877961045 168.28063454377505082  0.98345354796149032 15.81117340665181814 168.31010341862139512  1.24604912658020273 15.89708480953227721 168.33180481376916759  1.49252867862486416 16.00524867778434412 168.35841488100567176  1.72139424922949758 16.13229498440785648 168.38838665131120820  1.93163766557289507 16.27490418116135729 168.42018701762123101  2.12271032983273678 16.42977108165789701 168.45243585041089318  2.59816195624185431 16.88311329175902031 168.53977308084770925  2.84551165807781947 17.20430245002055614 168.59411230212890587  3.03930469582619667 17.54593177096674594 168.64173818406251826  3.18253807834335634 17.90089647211039292 168.67933961164408174  3.27738167649756695 18.26405905060702750 168.70506937755308741  3.32500000000000151 18.63160972472447341 168.71798670148390897  3.32500000000000151 19.00000000000000000 168.71798670148390897 
 0.00000000000000000 8 0.11037711007370331 6 0.20569919119556512 6 0.27863313741387286 6 0.35869980803523893 6 0.43986032919637469 6 0.50030234601690549 6 0.61056589174476461 6 0.70578990004568221 6 0.77864880763958777 6 0.85863310108086266 6 1.00000000000000000 8
1 3.32500000000000018 19.00000000000000000 167.27500000000000568 0.00000000000000000 0.00000000000000000 1.00000000000000000 
Polygon3D 0
PolygonOnTriangulations 0
Surfaces 23
1 -60.00000000000000000 -65.00000000000000000 0.00000000000000000 0.00000000000000000 1.00000000000000000 0.00000000000000000 1.00000000000000000 0.00000000000000000 0.00000000000000000 0.00000000000000000 0.00000000000000000 -1.00000000000000000 
1 0.00000000000000000 25.00000000000000000 0.00000000000000000 0.83205029433784372 -0.55470019622522915 0.00000000000000000 -0.55470019622522915 -0.83205029433784372 0.00000000000000000 0.00000000000000000 0.00000000000000000 -1.00000000000000000 
1 60.00000000000000000 -65.00000000000000000 0.00000000000000000 -0.83205029433784372 -0.55470019622522915 0.00000000000000000 -0.55470019622522915 0.83205029433784372 0.00000000000000000 0.00000000000000000 0.00000000000000000 -1.00000000000000000 
1 0.00000000000000000 -36.05551275463989214 0.00000000000000000 0.00000000000000000 0.00000000000000000 1.00000000000000000 1.00000000000000000 0.00000000000000000 0.00000000000000000 0.00000000000000000 1.00000000000000000 0.00000000000000000 
2 -27.00000000000000000 -46.00000000000000000 -1.00000000000000000 0.00000000000000000 0.00000000000000000 1.00000000000000000 1.00000000000000000 0.00000000000000000 0.00000000000000000 0.00000000000000000 1.00000000000000000 0.00000000000000000 8.84999999999999964
2 27.00000000000000000 -46.00000000000000000 -1.00000000000000000 0.00000000000000000 0.00000000000000000 1.00000000000000000 1.00000000000000000 0.00000000000000000 0.00000000000000000 0.00000000000000000 1.00000000000000000 0.00000000000000000 8.84999999999999964
2 0.00000000000000000 -3.00000000000000000 -1.00000000000000000 0.00000000000000000 0.00000000000000000 1.00000000000000000 1.00000000000000000 0.00000000000000000 0.00000000000000000 0.00000000000000000 1.00000000000000000 0.00000000000000000 8.84999999999999964
1 0.00000000000000000 -36.05551275463989214 0.00000000000000000 0.00000000000000000 0.00000000000000000 1.00000000000000000 1.00000000000000000 0.00000000000000000 0.00000000000000000 0.00000000000000000 1.00000000000000000 0.00000000000000000 
1 0.00000000000000000 -40.00000000000000000 93.18843532968068644 -0.00000000000000000 -1.00000000000000000 -0.00000000000000000 0.00000000000000000 0.00000000000000000 -1.00000000000000000 1.00000000000000000 0.00000000000000000 0.00000000000000000 
1 -15.00000000000000000 -40.00000000000000000 180.97499999999999432 -0.99857279844148317 0.00000000000000000 0.05340754827498647 -0.05340754827498647 0.00000000000000000 -0.99857279844148317 0.00000000000000000 -1.00000000000000000 0.00000000000000000 
2 0.00000000000000000 -40.00000000000000000 180.97499999999999432 0.00000000000000000 1.00000000000000000 0.00000000000000000 0.00000000000000000 0.00000000000000000 1.00000000000000000 1.00000000000000000 0.00000000000000000 0.00000000000000000 22.22500000000000142
1 24.00000000000000000 -40.00000000000000000 12.69999999999999929 0.99857279844148317 0.00000000000000000 0.05340754827498647 -0.05340754827498647 0.00000000000000000 0.99857279844148317 0.00000000000000000 -1.00000000000000000 0.00000000000000000 
1 0.00000000000000000 -40.00000000000000000 93.18843532968068644 -0.00000000000000000 -1.00000000000000000 -0.00000000000000000 0.00000000000000000 0.00000000000000000 -1.00000000000000000 1.00000000000000000 0.00000000000000000 0.00000000000000000 
1 -27.00000000000000000 -46.00000000000000000 13.69999999999999929 0.00000000000000000 0.00000000000000000 1.00000000000000000 1.00000000000000000 0.00000000000000000 0.00000000000000000 0.00000000000000000 1.00000000000000000 0.00000000000000000 
1 27.00000000000000000 -46.00000000000000000 13.69999999999999929 0.00000000000000000 0.00000000000000000 1.00000000000000000 1.00000000000000000 0.00000000000000000 0.00000000000000000 0.00000000000000000 1.00000000000000000 0.00000000000000000 
1 0.00000000000000000 -40.00000000000000000 93.18843532968068644 -0.00000000000000000 -1.00000000000000000 -0.00000000000000000 0.00000000000000000 0.00000000000000000 -1.00000000000000000 1.00000000000000000 0.00000000000000000 0.00000000000000000 
1 0.00000000000000000 -40.00000000000000000 180.97499999999999432 0.00000000000000000 1.00000000000000000 0.00000000000000000 0.00000000000000000 0.00000000000000000 1.00000000000000000 1.00000000000000000 0.00000000000000000 0.00000000000000000 
1 0.00000000000000000 -40.00000000000000000 93.18843532968068644 -0.00000000000000000 -1.00000000000000000 -0.00000000000000000 0.00000000000000000 0.00000000000000000 -1.00000000000000000 1.00000000000000000 0.00000000000000000 0.00000000000000000 
1 0.00000000000000000 -17.00000000000000000 180.97499999999999432 0.00000000000000000 1.00000000000000000 0.00000000000000000 0.00000000000000000 0.00000000000000000 1.00000000000000000 1.00000000000000000 0.00000000000000000 0.00000000000000000 
2 0.00000000000000000 -40.00000000000000000 180.97499999999999432 0.00000000000000000 1.00000000000000000 0.00000000000000000 0.00000000000000000 0.00000000000000000 1.00000000000000000 1.00000000000000000 0.00000000000000000 0.00000000000000000 12.69999999999999929
1 0.00000000000000000 -40.00000000000000000 180.97499999999999432 0.00000000000000000 1.00000000000000000 0.00000000000000000 0.00000000000000000 0.00000000000000000 1.00000000000000000 1.00000000000000000 0.00000000000000000 0.00000000000000000 
2 0.00000000000000000 19.00000000000000000 167.27500000000000568 0.00000000000000000 0.00000000000000000 1.00000000000000000 1.00000000000000000 0.00000000000000000 0.00000000000000000 0.00000000000000000 1.00000000000000000 0.00000000000000000 3.32500000000000018
1 0.00000000000000000 28.57500000000000284 180.97499999999999432 0.00000000000000000 1.00000000000000000 0.00000000000000000 0.00000000000000000 0.00000000000000000 1.00000000000000000 1.00000000000000000 0.00000000000000000 0.00000000000000000 
Triangulations 0

TShapes 164
Ve
0.000000100000000
-60.000000000000000 -65.000000000000000 0.000000000000000
0 0

0101101
*
Ve
0.000000100000000
-60.000000000000000 -65.000000000000000 12.699999999999999
0 0

0101101
*
Ed
 0.000000100000000 1 1 0
1  1 0 0.000000000000000 12.699999999999999
0

0101000
+164 3 -163 3 *
Ve
0.000000100000000
60.000000000000000 -65.000000000000000 0.000000000000000
0 0

0101101
*
Ve
0.000000100000000
60.000000000000000 -65.000000000000000 12.699999999999999
0 0

0101101
*
Ed
 0.000000100000000 1 1 0
1  2 0 0.000000000000000 12.699999999999999
0

0101000
+161 3 -160 3 *
Ed
 0.000000100000000 1 1 0
1  3 0 0.000000000000000 120.000000000000000
0

0101000
+164 3 -161 3 *
Ed
 0.000000100000000 1 1 0
1  4 0 0.000000000000000 120.000000000000000
0

0101000
+163 5 -160 5 *
Wi

0101100
+162 0 -159 0 -158 0 +157 4 *
Fa
0  0.000000100000000 1 0

0101000
+156 0 *
Ve
0.000000100000000
0.000000000000000 25.000000000000000 0.000000000000000
0 0

0101101
*
Ve
0.000000100000000
0.000000000000000 25.000000000000000 12.699999999999999
0 0

0101101
*
Ed
 0.000000100000000 1 1 0
1  5 0 0.000000000000000 12.699999999999999
0

0101000
+154 3 -153 3 *
Ed
 0.000000100000000 1 1 0
1  6 0 0.000000000000000 108.166538263919676
0

0101000
+154 3 -164 3 *
Ed
 0.000000100000000 1 1 0
1  7 0 0.000000000000000 108.166538263919676
0

0101000
+153 5 -163 5 *
Wi

0101100
+152 0 -162 0 -151 0 +150 4 *
Fa
0  0.000000100000000 2 0

0101000
+149 0 *
Ed
 0.000000100000000 1 1 0
1  8 0 0.000000000000000 108.166538263919676
0

0101000
+161 3 -154 3 *
Ed
 0.000000100000000 1 1 0
1  9 0 0.000000000000000 108.166538263919676
0

0101000
+160 5 -153 5 *
Wi

0101100
+159 0 -152 0 -147 0 +146 4 *
Fa
0  0.000000100000000 3 0

0101000
+145 0 *
Wi

0101100
+158 0 +151 0 +147 0 *
Ve
0.000000100000000
-18.149999999999999 -46.000000000000000 0.000000000000000
0 0

0101101
*
Ed
 0.000000100000000 1 1 0
1  10 0 0.000000000000000 6.283185307179586
2  1 5 0 0.000000000000000 6.283185307179586
0

0101100
+142 3 -142 3 *
Wi

0101100
-141 0 *
Ve
0.000000100000007
35.849999999999994 -46.000000000000000 0.000000000000000
0 0

0101101
*
Ed
 0.000000100000000 1 1 0
1  11 0 0.000000000000000 6.283185307179586
2  2 6 0 0.000000000000000 6.283185307179586
0

0101100
+139 3 -139 3 *
Wi

0101100
-138 0 *
Ve
0.000000100000002
8.850000000000000 -3.000000000000002 0.000000000000000
0 0

0101101
*
Ed
 0.000000100000000 1 1 0
1  12 0 0.000000000000000 6.283185307179586
2  3 7 0 0.000000000000000 6.283185307179586
0

0101100
+136 3 -136 3 *
Wi

0101100
-135 0 *
Fa
0  0.000000100000000 4 0

0101000
+143 0 +140 0 +137 0 +134 0 *
Wi

0101100
+157 4 +150 4 +146 4 *
Ve
0.000000100000014
-20.494425467339553 -40.000000000000000 12.699999999999999
0 0

0101101
*
Ve
0.000000100000014
20.494425467339553 -40.000000000000000 12.699999999999999
0 0

0101101
*
Ed
 0.000000100000000 1 1 0
1  13 0 3.505574532660447 44.494425467339553
0

0101000
+131 3 -130 3 *
Ve
0.000000100000000
-18.149999999999999 -46.000000000000000 12.699999999999999
0 0

0101101
*
Ed
 0.000000100000000 1 1 0
1  14 0 0.000000000000000 0.744992233935102
2  4 5 0 0.000000000000000 0.744992233935102
0

0101000
+128 3 -131 3 *
Ve
0.000000100000007
35.849999999999994 -46.000000000000000 12.699999999999999
0 0

0101101
*
Ed
 0.000000100000000 1 1 0
1  15 0 2.396600419654691 6.283185307179586
2  5 6 0 2.396600419654691 6.283185307179586
0

0101000
+130 3 -126 3 *
Ve
0.000000100000023
-24.000000000000000 -37.673986548173239 12.699999999999999
0 0

0101101
*
Ed
 0.000000100000000 1 1 0
1  16 0 1.224960589557347 6.283185307179586
2  4 5 0 1.224960589557347 6.283185307179586
0

0101000
+124 3 -128 3 *
Ve
0.000000100000042
24.000000000000000 -37.673986548173239 12.699999999999999
0 0

0101101
*
Ed
 0.000000100000000 1 1 0
1  17 0 0.000000000000000 1.916632064032446
2  5 6 0 0.000000000000000 1.916632064032446
0

0101000
+126 3 -122 3 *
Ve
0.000000100000000
-24.000000000000000 -32.000000000000000 12.699999999999999
0 0

0101101
*
Ed
 0.000000100000000 1 1 0
1  18 0 2.326013451826761 8.000000000000000
0

0101000
+124 3 -120 3 *
Ve
0.000000100000000
24.000000000000000 -32.000000000000000 12.699999999999999
0 0

0101101
*
Ed
 0.000000100000000 1 1 0
1  19 0 2.326013451826761 8.000000000000000
0

0101000
+122 3 -118 3 *
Ed
 0.000000100000000 1 1 0
1  20 0 0.000000000000000 48.000000000000000
0

0101000
+120 7 -118 7 *
Wi

0101100
-129 0 -127 0 -125 0 -123 0 -121 0 +119 0 -117 0 +116 6 *
Ve
0.000000100000002
8.850000000000000 -3.000000000000002 12.699999999999999
0 0

0101101
*
Ed
 0.000000100000000 1 1 0
1  21 0 0.000000000000000 6.283185307179586
2  6 7 0 0.000000000000000 6.283185307179586
0

0101100
+114 3 -114 3 *
Wi

0101100
-113 0 *
Fa
0  0.000000100000000 8 4

0101000
+132 0 +115 0 +112 0 *
Ve
0.000000150000002
-20.494425467339568 -40.000000000000000 13.699999999999999
0 0

0101101
*
Ve
0.000000150000005
-23.946516119447331 -37.693452209780226 13.699999999999999
0 0

0101101
*
Ed
 0.000000100000000 1 1 0
1  22 0 0.744992233935103 1.218529385675828
2  7 5 0 0.744992233935103 1.218529385675828
0

0101000
+110 3 -109 3 *
Ed
 0.000000100000000 1 1 0
1  23 0 1.218529385675828 1.224960589557347
2  8 5 0 1.218529385675828 1.224960589557347
0

0101000
+109 3 -124 3 *
Ed
 0.000000100000000 1 1 0
1  24 0 1.000000000000000 13.699999999999999
3  9 10CN 5 0 1.000000000000000 13.699999999999999
0

0101000
+142 3 -128 3 *
Ed
 0.000000100000000 1 1 0
1  25 0 13.699999999999999 14.699999999999999
2  11 5 0 13.699999999999999 14.699999999999999
0

0101000
+131 3 -110 3 *
Wi

0101100
-108 0 -107 0 -123 0 +106 0 +141 0 -106 0 -127 0 -105 0 *
Fa
0  0.000000100000000 5 0

0101000
+104 0 *
Ve
0.000000150000004
23.946516119447331 -37.693452209780226 13.699999999999999
0 0

0101101
*
Ve
0.000000150000002
20.494425467339568 -40.000000000000000 13.699999999999999
0 0

0101101
*
Ed
 0.000000100000000 1 1 0
1  26 0 1.923063267913965 2.396600419654690
2  12 6 0 1.923063267913965 2.396600419654690
0

0101000
+102 3 -101 3 *
Ed
 0.000000100000000 1 1 0
1  27 0 13.699999999999999 14.699999999999999
2  13 6 0 13.699999999999999 14.699999999999999
0

0101000
+130 3 -101 3 *
Ed
 0.000000100000000 1 1 0
1  28 0 1.000000000000000 13.699999999999999
3  14 15CN 6 0 1.000000000000000 13.699999999999999
0

0101000
+139 3 -126 3 *
Ed
 0.000000100000000 1 1 0
1  29 0 5.058224717622240 5.064655921503758
2  16 6 0 5.058224717622240 5.064655921503758
0

0101000
+122 3 -102 3 *
Wi

0101100
-100 0 +99 0 -125 0 +98 0 +138 0 -98 0 -121 0 -97 0 *
Fa
0  0.000000100000000 6 0

0101000
+96 0 *
Ed
 0.000000100000000 1 1 0
1  30 0 1.000000000000000 13.699999999999999
3  17 18CN 7 0 1.000000000000000 13.699999999999999
0

0101000
+136 3 -114 3 *
Wi

0101100
-113 0 +94 0 +135 0 -94 0 *
Fa
0  0.000000100000000 7 0

0101000
+93 0 *
Ve
0.000000150000002
23.946516119447335 -40.000000000000000 13.699999999999999
0 0

0101101
*
Ve
0.000000100000405
15.834127429551998 -40.000000000000000 165.379134088011824
0 0

0101101
*
Ed
 0.000000100000000 1 1 0
1  31 0 1.001429241374033 152.897349423402005
0

0101000
+91 3 -90 3 *
Ed
 0.000000150000000 1 1 0
1  32 0 -10.446516119447335 -6.994425467339568
0

0101000
+91 3 -101 3 *
Ve
0.000000150000012
-23.946516119447331 -40.000000000000000 13.699999999999989
0 0

0101101
*
Ed
 0.000000150000000 1 1 0
1  33 0 6.994425467339568 10.446516119447331
0

0101000
+110 3 -87 3 *
Ve
0.000000100000380
-15.834127429551994 -40.000000000000000 165.379134088011824
0 0

0101101
*
Ed
 0.000000100000000 1 1 0
1  34 0 15.618156168813449 167.514076350841435
0

0101000
+85 3 -87 3 *
Ed
 0.000000100000000 1 1 0
1  35 0 2.348613930086381 3.934571377093205
0

0101000
+90 3 -85 3 *
Wi

0101100
+89 0 -88 0 +99 0 +129 0 -105 0 -86 0 +84 0 +83 0 *
Fa
0  0.000000100000000 9 0

0101000
+82 0 *
Ed
 0.000000150000000 1 1 0
1  36 0 3.000000000000000 5.306547790219774
0

0101000
+87 3 -109 3 *
Ve
0.000000100000085
-15.834127429552160 -32.000000000000000 165.379134088012250
0 0

0101101
*
Ed
 0.000000100000000 1 1 0
1  37 0 15.618156168813032 168.515505592215476
0

0101000
+79 7 -120 7 *
Ed
 0.000000100000000 1 1 0
1  38 0 0.000000000000000 8.000000000000000
2  19 11 0 0.000000000000000 8.000000000000000
0

0101000
+85 3 -79 3 *
Wi

0101100
-84 0 -80 0 -107 0 -119 0 +78 6 +77 0 *
Fa
0  0.000000100000000 10 0

0101000
+76 0 *
Ve
0.000000100000086
15.834127429552158 -32.000000000000000 165.379134088012279
0 0

0101101
*
Ed
 0.000000100000000 1 1 0
1  39 0 0.000000000000000 8.000000000000000
2  20 11 0 0.000000000000000 8.000000000000000
0

0101000
+90 3 -74 3 *
Ed
 0.000000100000000 1 1 0
1  40 0 0.000000000000000 152.897349423402460
0

0101000
+118 7 -74 7 *
Ed
 0.000000150000000 1 1 0
1  41 0 -5.306547790219774 -3.000000000000000
0

0101000
+102 3 -91 3 *
Wi

0101100
-89 0 -73 0 +72 6 +117 0 -97 0 -71 0 *
Fa
0  0.000000100000000 12 0

0101000
+70 0 *
Ed
 0.000000100000000 1 1 0
1  42 0 2.348613930086362 3.934571377093224
2  21 11 0 2.348613930086362 3.934571377093224
0

0101000
+74 3 -79 3 *
Wi

0101100
+78 6 +68 0 +72 6 +116 6 *
Fa
0  0.000000100000000 13 6

0101000
+67 0 *
Wi

0101100
-86 0 -80 0 +108 0 *
Fa
0  0.000000100000000 14 0

0101000
+65 0 *
Wi

0101100
-71 0 -88 0 +100 0 *
Fa
0  0.000000100000000 15 0

0101000
+63 0 *
Ve
0.000000100000085
-12.699999999999999 -40.000000000000000 180.974999999999909
0 0

0101101
*
Ve
0.000000100000000
-15.000000000000000 -40.000000000000000 180.974999999999994
0 0

0101101
*
Ed
 0.000000100000000 1 1 0
1  43 0 27.699999999999999 30.000000000000000
0

0101000
+61 3 -60 3 *
Ve
0.000000100000085
12.699999999999999 -40.000000000000000 180.974999999999909
0 0

0101101
*
Ed
 0.000000100000000 1 1 0
1  44 0 1.570796326794903 4.712388980384683
0

0101000
+58 3 -61 3 *
Ve
0.000000100000000
15.000000000000000 -40.000000000000000 180.974999999999994
0 0

0101101
*
Ed
 0.000000100000000 1 1 0
1  45 0 0.000000000000000 2.300000000000001
0

0101000
+56 3 -58 3 *
Ed
 0.000000100000000 1 1 0
1  46 0 152.897349423402005 168.515505592215476
0

0101000
+90 3 -56 3 *
Ed
 0.000000100000000 1 1 0
1  47 0 0.000000000000000 15.618156168813449
0

0101000
+60 3 -85 3 *
Wi

0101100
+59 0 +57 0 +55 0 +54 0 -83 0 +53 0 *
Fa
0  0.000000100000000 16 0

0101000
+52 0 *
Ve
0.000000100000000
-0.000000000000005 -17.000000000000000 203.199999999999989
0 0

0101101
*
Ve
0.000000100000000
-0.000000000000005 -40.000000000000000 203.199999999999989
0 0

0101101
*
Ed
 0.000000100000000 1 1 0
1  48 0 0.000000000000000 23.000000000000000
3  22 23CN 11 0 0.000000000000000 23.000000000000000
0

0101000
-50 3 +49 3 *
Ed
 0.000000100000000 1 1 0
1  49 0 3.934571377093205 6.283185307179586
2  24 11 0 3.934571377093205 6.283185307179586
0

0101000
+85 3 -49 3 *
Ed
 0.000000100000000 1 1 0
1  50 0 0.000000000000000 2.348613930086381
2  24 11 0 0.000000000000000 2.348613930086381
0

0101000
+49 3 -90 3 *
Ed
 0.000000100000000 1 1 0
1  51 0 0.000000000000000 6.283185307179586
2  25 11 0 0.000000000000000 6.283185307179586
0

0101000
+50 3 -50 3 *
Wi

0101100
+48 0 +47 0 -77 0 +68 0 +73 0 +46 0 -48 0 -45 0 *
Fa
0  0.000000100000000 11 0

0101000
+44 0 *
Ve
0.000000100000000
-0.000000000000003 -40.000000000000000 193.674999999999983
0 0

0101101
*
Ed
 0.000000100000000 1 1 0
1  52 0 4.712388980384683 6.283185307179586
0

0101000
+61 3 -42 3 *
Ed
 0.000000100000000 1 1 0
1  53 0 0.000000000000000 1.570796326794903
0

0101000
+42 3 -58 3 *
Wi

0101100
+53 0 +59 0 -41 0 -40 0 +55 0 +54 0 +46 0 +47 0 *
Fa
0  0.000000100000000 17 0

0101000
+39 0 *
Ed
 0.000000100000000 1 1 0
1  54 0 2.300000000000001 27.699999999999999
0

0101000
+58 3 -61 3 *
Wi

0101100
+37 0 -57 0 *
Fa
0  0.000000100000000 18 0

0101000
+36 0 *
Wi

0101100
+45 0 *
Ve
0.000000100000003
-0.000000000000003 -17.000000000000000 193.674999999999983
0 0

0101101
*
Ed
 0.000000100000000 1 1 0
1  55 0 0.000000000000000 6.283185307179586
2  26 20 0 0.000000000000000 6.283185307179586
0

0101100
+33 3 -33 3 *
Wi

0101100
-32 0 *
Fa
0  0.000000100000000 19 0

0101000
+34 0 +31 0 *
Wi

0101100
+37 0 +40 0 +41 0 *
Fa
0  0.000000100000000 21 0

0101000
+29 0 *
Ve
0.000000210974875
-0.000000000000003 15.675000000000004 193.674999999999983
0 0

0101101
*
Ed
 0.000000100000000 1 1 0
1  56 0 23.000000000000000 55.675000000000004
3  27 28CN 20 0 23.000000000000000 55.675000000000004
0

0101000
+33 3 -27 3 *
Ve
0.000000210974945
3.325000000000000 19.000000000000000 193.232013298515966
0 0

0101101
*
Ed
 0.000000103636397 1 1 0
1  57 0 0.000000000000000 1.000000000000000
2  29 20 0 0.000000000000000 1.000000000000000
2  30 22 0 0.000000000000000 1.000000000000000
0

0101000
+27 3 -25 3 *
Ve
0.000000210975869
-0.000000000000003 22.324999999999996 193.674999999999983
0 0

0101101
*
Ed
 0.000000210974860 1 1 0
1  58 0 0.000000000000000 1.000000000000000
2  31 20 0 0.000000000000000 1.000000000000000
2  32 22 0 0.000000000000000 1.000000000000000
0

0101000
+25 3 -23 3 *
Ve
0.000000100000000
-0.000000000000003 28.575000000000003 193.674999999999983
0 0

0101101
*
Ed
 0.000000100000000 1 1 0
1  59 0 62.324999999999996 68.575000000000003
3  27 28CN 20 0 62.324999999999996 68.575000000000003
0

0101000
+23 3 -21 3 *
Ed
 0.000000100000000 1 1 0
1  60 0 0.000000000000000 6.283185307179586
2  33 20 0 0.000000000000000 6.283185307179586
0

0101000
+21 3 -21 3 *
Ed
 0.000000210974869 1 1 0
1  61 0 0.000000000000000 1.000000000000000
2  34 20 0 0.000000000000000 1.000000000000000
2  35 22 0 0.000000000000000 1.000000000000000
0

0101000
+23 3 -27 3 *
Wi

0101100
+32 0 -26 0 -24 0 -22 0 -20 0 -19 0 +20 0 -18 0 +26 0 *
Ve
0.000000210975863
3.325000000000000 19.000000000000000 168.717986701484023
0 0

0101101
*
Ed
 0.000000210974863 1 1 0
1  62 0 0.000000000000000 1.000000000000000
2  36 20 0 0.000000000000000 1.000000000000000
2  37 22 0 0.000000000000000 1.000000000000000
0

0101100
+16 3 -16 3 *
Wi

0101100
+15 0 *
Fa
0  0.000000100000000 20 0

0101000
+17 0 +14 0 *
Ed
 0.000000100000000 1 1 0
1  63 0 1.442986701484017 25.957013298515960
3  38 39CN 22 0 1.442986701484017 25.957013298515960
0

0101000
+16 3 -25 3 *
Wi

0101100
-22 0 -18 0 -24 0 +12 0 +15 0 -12 0 *
Fa
0  0.000000100000000 22 0

0101000
+11 0 *
Wi

0101100
+19 0 *
Fa
0  0.000000100000000 23 0

0111000
+9 0 *
Sh

0101100
-155 0 -148 0 -144 0 -133 0 +111 0 -103 0 -95 0 -92 0 +81 0 +75 0 
+69 0 -66 0 -64 0 -62 0 +51 0 +43 0 -38 0 +35 0 +30 0 -28 0 
+13 0 -10 0 +8 0 *
So

0100000
+7 0 *
Co

0100000
+6 0 *
Co

0100000
+5 0 *
Co

0100000
+4 0 *
Co

0100000
+3 0 *
Co

1100000
+2 0 *

+1 1 