
CASCADE Topology V1, (c) Matra-Datavision
Locations 17
1
1.000000000000000 0.000000000000000 0.000000000000000 0.000000000000000 
0.000000000000000 1.000000000000000 0.000000000000000 0.000000000000000 
0.000000000000000 0.000000000000000 1.000000000000000 0.000000000000000 
1
1.000000000000000 0.000000000000000 0.000000000000000 0.000000000000000 
0.000000000000000 1.000000000000000 0.000000000000000 0.000000000000000 
0.000000000000000 0.000000000000000 1.000000000000000 0.000000000000000 
1
1.000000000000000 0.000000000000000 0.000000000000000 0.000000000000000 
0.000000000000000 1.000000000000000 0.000000000000000 0.000000000000000 
0.000000000000000 0.000000000000000 1.000000000000000 0.000000000000000 
2  3 -1 2 -1 0
1
1.000000000000000 0.000000000000000 0.000000000000000 0.000000000000000 
0.000000000000000 1.000000000000000 0.000000000000000 0.000000000000000 
0.000000000000000 0.000000000000000 1.000000000000000 0.000000000000000 
2  3 -1 0
1
1.000000000000000 0.000000000000000 0.000000000000000 0.000000000000000 
0.000000000000000 1.000000000000000 0.000000000000000 0.000000000000000 
0.000000000000000 0.000000000000000 1.000000000000000 0.000000000000000 
1
1.000000000000000 0.000000000000000 0.000000000000000 0.000000000000000 
0.000000000000000 1.000000000000000 0.000000000000000 0.000000000000000 
0.000000000000000 0.000000000000000 1.000000000000000 0.000000000000000 
1
1.000000000000000 0.000000000000000 0.000000000000000 0.000000000000000 
0.000000000000000 1.000000000000000 0.000000000000000 0.000000000000000 
0.000000000000000 0.000000000000000 1.000000000000000 0.000000000000000 
1
1.000000000000000 0.000000000000000 0.000000000000000 0.000000000000000 
0.000000000000000 1.000000000000000 0.000000000000000 0.000000000000000 
0.000000000000000 0.000000000000000 1.000000000000000 0.000000000000000 
1
1.000000000000000 0.000000000000000 0.000000000000000 0.000000000000000 
0.000000000000000 1.000000000000000 0.000000000000000 0.000000000000000 
0.000000000000000 0.000000000000000 1.000000000000000 0.000000000000000 
2  3 -1 5 -1 0
2  3 -1 7 -1 0
2  3 -1 8 -1 0
2  3 -1 9 -1 0
2  3 -1 10 -1 0
2  3 -1 11 -1 0
Curve2ds 44
1 0.00000000000000000 7.00000000000034106 1.00000000000000000 0.00000000000000000 
1 0.00000000000000000 7.00000000000034106 1.00000000000000000 0.00000000000000000 
1 0.00000000000000000 7.00000000000034106 1.00000000000000000 0.00000000000000000 
1 0.00000000000000000 7.00000000000034106 1.00000000000000000 0.00000000000000000 
1 0.00000000000000000 7.00000000000034106 1.00000000000000000 0.00000000000000000 
1 0.00000000000000000 7.00000000000034106 1.00000000000000000 0.00000000000000000 
1 0.00000000000000000 7.00000000000034106 1.00000000000000000 0.00000000000000000 
1 0.00000000000000000 7.00000000000034106 1.00000000000000000 0.00000000000000000 
1 0.00000000000000000 7.00000000000034106 1.00000000000000000 0.00000000000000000 
1 0.00000000000000000 7.00000000000034106 1.00000000000000000 0.00000000000000000 
1 0.00000000000000000 7.00000000000034106 1.00000000000000000 0.00000000000000000 
1 6.28318530717958623 -0.00000000000000000 0.00000000000000000 1.00000000000000000 
1 0.00000000000000000 -0.00000000000000000 0.00000000000000000 1.00000000000000000 
1 0.00000000000000000 1.00000000000011369 1.00000000000000000 0.00000000000000000 
1 6.28318530717958623 -0.00000000000000000 0.00000000000000000 1.00000000000000000 
1 0.00000000000000000 -0.00000000000000000 0.00000000000000000 1.00000000000000000 
1 0.00000000000000000 1.00000000000011369 1.00000000000000000 0.00000000000000000 
1 6.28318530717958623 -0.00000000000000000 0.00000000000000000 1.00000000000000000 
1 0.00000000000000000 -0.00000000000000000 0.00000000000000000 1.00000000000000000 
1 0.00000000000000000 1.00000000000011369 1.00000000000000000 0.00000000000000000 
1 6.28318530717958623 -0.00000000000000000 0.00000000000000000 1.00000000000000000 
1 0.00000000000000000 -0.00000000000000000 0.00000000000000000 1.00000000000000000 
1 0.00000000000000000 1.00000000000011369 1.00000000000000000 0.00000000000000000 
1 6.28318530717958623 -0.00000000000000000 0.00000000000000000 1.00000000000000000 
1 0.00000000000000000 -0.00000000000000000 0.00000000000000000 1.00000000000000000 
1 0.00000000000000000 1.00000000000011369 1.00000000000000000 0.00000000000000000 
1 6.28318530717958623 -0.00000000000000000 0.00000000000000000 1.00000000000000000 
1 0.00000000000000000 -0.00000000000000000 0.00000000000000000 1.00000000000000000 
1 0.00000000000000000 1.00000000000011369 1.00000000000000000 0.00000000000000000 
1 6.28318530717958623 -0.00000000000000000 0.00000000000000000 1.00000000000000000 
1 0.00000000000000000 -0.00000000000000000 0.00000000000000000 1.00000000000000000 
1 0.00000000000000000 1.00000000000011369 1.00000000000000000 0.00000000000000000 
1 6.28318530717958623 -0.00000000000000000 0.00000000000000000 1.00000000000000000 
1 0.00000000000000000 -0.00000000000000000 0.00000000000000000 1.00000000000000000 
1 0.00000000000000000 1.00000000000011369 1.00000000000000000 0.00000000000000000 
1 6.28318530717958623 -0.00000000000000000 0.00000000000000000 1.00000000000000000 
1 0.00000000000000000 -0.00000000000000000 0.00000000000000000 1.00000000000000000 
1 0.00000000000000000 1.00000000000011369 1.00000000000000000 0.00000000000000000 
1 6.28318530717958623 -0.00000000000000000 0.00000000000000000 1.00000000000000000 
1 0.00000000000000000 -0.00000000000000000 0.00000000000000000 1.00000000000000000 
1 0.00000000000000000 1.00000000000011369 1.00000000000000000 0.00000000000000000 
1 6.28318530717958623 -0.00000000000000000 0.00000000000000000 1.00000000000000000 
1 0.00000000000000000 -0.00000000000000000 0.00000000000000000 1.00000000000000000 
1 0.00000000000000000 1.00000000000011369 1.00000000000000000 0.00000000000000000 
Curves 45
1 3831.75700867095520152 -1165.22499999999990905 533.04999999999995453 1.00000000000000000 0.00000000000000000 0.00000000000000000 
1 3190.00000000000000000 -583.11249999999995453 533.05000000000029559 0.00000000000000000 1.00000000000000000 0.00000000000000000 
1 3970.00000000000000000 -583.11249999999995453 533.05000000000029559 0.00000000000000000 1.00000000000000000 0.00000000000000000 
1 2227.63566955698479433 1165.22499999999990905 533.05000000000018190 1.00000000000000000 0.00000000000000000 0.00000000000000000 
2 3323.00000000000000000 -567.39760477830475338 533.05000000000029559 0.00000000000000000 0.00000000000000000 1.00000000000000000 1.00000000000000000 0.00000000000000000 0.00000000000000000 0.00000000000000000 1.00000000000000000 0.00000000000000000 8.84999999999999964
2 3377.00000000000000000 -567.39760477830475338 533.05000000000029559 0.00000000000000000 0.00000000000000000 1.00000000000000000 1.00000000000000000 0.00000000000000000 0.00000000000000000 0.00000000000000000 1.00000000000000000 0.00000000000000000 8.84999999999999964
2 3350.00000000000000000 -524.39760477830475338 533.05000000000029559 0.00000000000000000 0.00000000000000000 1.00000000000000000 1.00000000000000000 0.00000000000000000 0.00000000000000000 0.00000000000000000 1.00000000000000000 0.00000000000000000 8.84999999999999964
2 3840.00000000000000000 -850.00000000000000000 533.05000000000029559 0.00000000000000000 0.00000000000000000 1.00000000000000000 1.00000000000000000 0.00000000000000000 0.00000000000000000 0.00000000000000000 1.00000000000000000 0.00000000000000000 8.83124999999999893
2 3840.00000000000000000 -425.00000000000000000 533.05000000000029559 0.00000000000000000 0.00000000000000000 1.00000000000000000 1.00000000000000000 0.00000000000000000 0.00000000000000000 0.00000000000000000 1.00000000000000000 0.00000000000000000 8.83124999999999893
2 3350.00000000000000000 524.39760477830475338 533.05000000000029559 0.00000000000000000 0.00000000000000000 1.00000000000000000 1.00000000000000000 0.00000000000000000 0.00000000000000000 0.00000000000000000 1.00000000000000000 0.00000000000000000 8.84999999999999964
2 3323.00000000000000000 567.39760477830475338 533.05000000000029559 0.00000000000000000 0.00000000000000000 1.00000000000000000 1.00000000000000000 0.00000000000000000 0.00000000000000000 0.00000000000000000 1.00000000000000000 0.00000000000000000 8.84999999999999964
2 3377.00000000000000000 567.39760477830475338 533.05000000000029559 0.00000000000000000 0.00000000000000000 1.00000000000000000 1.00000000000000000 0.00000000000000000 0.00000000000000000 0.00000000000000000 1.00000000000000000 0.00000000000000000 8.84999999999999964
2 3840.00000000000000000 0.00000000000000000 533.05000000000029559 0.00000000000000000 0.00000000000000000 1.00000000000000000 1.00000000000000000 0.00000000000000000 0.00000000000000000 0.00000000000000000 1.00000000000000000 0.00000000000000000 8.83124999999999893
2 3840.00000000000000000 425.00000000000000000 533.05000000000029559 0.00000000000000000 0.00000000000000000 1.00000000000000000 1.00000000000000000 0.00000000000000000 0.00000000000000000 0.00000000000000000 1.00000000000000000 0.00000000000000000 8.83124999999999893
2 3840.00000000000000000 850.00000000000000000 533.05000000000029559 0.00000000000000000 0.00000000000000000 1.00000000000000000 1.00000000000000000 0.00000000000000000 0.00000000000000000 0.00000000000000000 1.00000000000000000 0.00000000000000000 8.83124999999999893
1 4633.81767822794063250 -1165.22499999999990905 527.04999999999995453 -1.00000000000000000 0.00000000000000000 0.00000000000000000 
1 3190.00000000000000000 -1165.22499999999990905 528.04999999999995453 0.00000000000000000 0.00000000000000000 1.00000000000000000 
1 3970.00000000000000000 -1165.22499999999990905 528.04999999999995453 0.00000000000000000 0.00000000000000000 1.00000000000000000 
1 3190.00000000000000000 -583.11249999999995453 527.05000000000006821 0.00000000000000000 -1.00000000000000000 0.00000000000000000 
1 3190.00000000000000000 1165.22499999999945430 528.04999999999995453 0.00000000000000000 0.00000000000000000 -1.00000000000000000 
1 3970.00000000000000000 -583.11249999999995453 527.05000000000006821 0.00000000000000000 -1.00000000000000000 0.00000000000000000 
1 3970.00000000000000000 1165.22499999999945430 528.04999999999995453 0.00000000000000000 0.00000000000000000 -1.00000000000000000 
1 3029.69633911397022530 1165.22499999999990905 527.05000000000018190 -1.00000000000000000 0.00000000000000000 0.00000000000000000 
1 3331.84999999999990905 -567.39760477830475338 526.04999999999995453 0.00000000000000000 0.00000000000000000 1.00000000000000000 
2 3323.00000000000000000 -567.39760477830475338 527.05000000000006821 0.00000000000000000 0.00000000000000000 1.00000000000000000 1.00000000000000000 0.00000000000000000 0.00000000000000000 0.00000000000000000 1.00000000000000000 0.00000000000000000 8.84999999999999964
1 3385.84999999999990905 -567.39760477830475338 526.04999999999995453 0.00000000000000000 0.00000000000000000 1.00000000000000000 
2 3377.00000000000000000 -567.39760477830475338 527.05000000000006821 0.00000000000000000 0.00000000000000000 1.00000000000000000 1.00000000000000000 0.00000000000000000 0.00000000000000000 0.00000000000000000 1.00000000000000000 0.00000000000000000 8.84999999999999964
1 3358.84999999999990905 -524.39760477830475338 526.04999999999995453 0.00000000000000000 0.00000000000000000 1.00000000000000000 
2 3350.00000000000000000 -524.39760477830475338 527.05000000000006821 0.00000000000000000 0.00000000000000000 1.00000000000000000 1.00000000000000000 0.00000000000000000 0.00000000000000000 0.00000000000000000 1.00000000000000000 0.00000000000000000 8.84999999999999964
1 3848.83125000000018190 -850.00000000000000000 526.04999999999995453 0.00000000000000000 0.00000000000000000 1.00000000000000000 
2 3840.00000000000000000 -850.00000000000000000 527.05000000000006821 0.00000000000000000 0.00000000000000000 1.00000000000000000 1.00000000000000000 0.00000000000000000 0.00000000000000000 0.00000000000000000 1.00000000000000000 0.00000000000000000 8.83124999999999893
1 3848.83125000000018190 -425.00000000000000000 526.04999999999995453 0.00000000000000000 0.00000000000000000 1.00000000000000000 
2 3840.00000000000000000 -425.00000000000000000 527.05000000000006821 0.00000000000000000 0.00000000000000000 1.00000000000000000 1.00000000000000000 0.00000000000000000 0.00000000000000000 0.00000000000000000 1.00000000000000000 0.00000000000000000 8.83124999999999893
1 3358.84999999999990905 524.39760477830475338 526.04999999999995453 0.00000000000000000 0.00000000000000000 1.00000000000000000 
2 3350.00000000000000000 524.39760477830475338 527.05000000000006821 0.00000000000000000 0.00000000000000000 1.00000000000000000 1.00000000000000000 0.00000000000000000 0.00000000000000000 0.00000000000000000 1.00000000000000000 0.00000000000000000 8.84999999999999964
1 3331.84999999999990905 567.39760477830475338 526.04999999999995453 0.00000000000000000 0.00000000000000000 1.00000000000000000 
2 3323.00000000000000000 567.39760477830475338 527.05000000000006821 0.00000000000000000 0.00000000000000000 1.00000000000000000 1.00000000000000000 0.00000000000000000 0.00000000000000000 0.00000000000000000 1.00000000000000000 0.00000000000000000 8.84999999999999964
1 3385.84999999999990905 567.39760477830475338 526.04999999999995453 0.00000000000000000 0.00000000000000000 1.00000000000000000 
2 3377.00000000000000000 567.39760477830475338 527.05000000000006821 0.00000000000000000 0.00000000000000000 1.00000000000000000 1.00000000000000000 0.00000000000000000 0.00000000000000000 0.00000000000000000 1.00000000000000000 0.00000000000000000 8.84999999999999964
1 3848.83125000000018190 -0.00000000000000216 526.04999999999995453 0.00000000000000000 0.00000000000000000 1.00000000000000000 
2 3840.00000000000000000 0.00000000000000000 527.05000000000006821 0.00000000000000000 0.00000000000000000 1.00000000000000000 1.00000000000000000 0.00000000000000000 0.00000000000000000 0.00000000000000000 1.00000000000000000 0.00000000000000000 8.83124999999999893
1 3848.83125000000018190 425.00000000000000000 526.04999999999995453 0.00000000000000000 0.00000000000000000 1.00000000000000000 
2 3840.00000000000000000 425.00000000000000000 527.05000000000006821 0.00000000000000000 0.00000000000000000 1.00000000000000000 1.00000000000000000 0.00000000000000000 0.00000000000000000 0.00000000000000000 1.00000000000000000 0.00000000000000000 8.83124999999999893
1 3848.83125000000018190 850.00000000000000000 526.04999999999995453 0.00000000000000000 0.00000000000000000 1.00000000000000000 
2 3840.00000000000000000 850.00000000000000000 527.05000000000006821 0.00000000000000000 0.00000000000000000 1.00000000000000000 1.00000000000000000 0.00000000000000000 0.00000000000000000 0.00000000000000000 1.00000000000000000 0.00000000000000000 8.83124999999999893
Polygon3D 0
PolygonOnTriangulations 0
Surfaces 17
1 3430.72667389246316816 0.00000000000002458 533.05000000000029559 0.00000000000000000 0.00000000000000000 1.00000000000000000 1.00000000000000000 0.00000000000000000 0.00000000000000000 0.00000000000000000 1.00000000000000000 0.00000000000000000 
2 3323.00000000000000000 -567.39760477830475338 526.04999999999995453 0.00000000000000000 0.00000000000000000 1.00000000000000000 1.00000000000000000 0.00000000000000000 0.00000000000000000 0.00000000000000000 1.00000000000000000 0.00000000000000000 8.84999999999999964
2 3377.00000000000000000 -567.39760477830475338 526.04999999999995453 0.00000000000000000 0.00000000000000000 1.00000000000000000 1.00000000000000000 0.00000000000000000 0.00000000000000000 0.00000000000000000 1.00000000000000000 0.00000000000000000 8.84999999999999964
2 3350.00000000000000000 -524.39760477830475338 526.04999999999995453 0.00000000000000000 0.00000000000000000 1.00000000000000000 1.00000000000000000 0.00000000000000000 0.00000000000000000 0.00000000000000000 1.00000000000000000 0.00000000000000000 8.84999999999999964
2 3840.00000000000000000 -850.00000000000000000 526.04999999999995453 0.00000000000000000 0.00000000000000000 1.00000000000000000 1.00000000000000000 0.00000000000000000 0.00000000000000000 0.00000000000000000 1.00000000000000000 0.00000000000000000 8.83124999999999893
2 3840.00000000000000000 -425.00000000000000000 526.04999999999995453 0.00000000000000000 0.00000000000000000 1.00000000000000000 1.00000000000000000 0.00000000000000000 0.00000000000000000 0.00000000000000000 1.00000000000000000 0.00000000000000000 8.83124999999999893
2 3350.00000000000000000 524.39760477830475338 526.04999999999995453 0.00000000000000000 0.00000000000000000 1.00000000000000000 1.00000000000000000 0.00000000000000000 0.00000000000000000 0.00000000000000000 1.00000000000000000 0.00000000000000000 8.84999999999999964
2 3323.00000000000000000 567.39760477830475338 526.04999999999995453 0.00000000000000000 0.00000000000000000 1.00000000000000000 1.00000000000000000 0.00000000000000000 0.00000000000000000 0.00000000000000000 1.00000000000000000 0.00000000000000000 8.84999999999999964
2 3377.00000000000000000 567.39760477830475338 526.04999999999995453 0.00000000000000000 0.00000000000000000 1.00000000000000000 1.00000000000000000 0.00000000000000000 0.00000000000000000 0.00000000000000000 1.00000000000000000 0.00000000000000000 8.84999999999999964
2 3840.00000000000000000 0.00000000000000000 526.04999999999995453 0.00000000000000000 0.00000000000000000 1.00000000000000000 1.00000000000000000 0.00000000000000000 0.00000000000000000 0.00000000000000000 1.00000000000000000 0.00000000000000000 8.83124999999999893
2 3840.00000000000000000 425.00000000000000000 526.04999999999995453 0.00000000000000000 0.00000000000000000 1.00000000000000000 1.00000000000000000 0.00000000000000000 0.00000000000000000 0.00000000000000000 1.00000000000000000 0.00000000000000000 8.83124999999999893
2 3840.00000000000000000 850.00000000000000000 526.04999999999995453 0.00000000000000000 0.00000000000000000 1.00000000000000000 1.00000000000000000 0.00000000000000000 0.00000000000000000 0.00000000000000000 1.00000000000000000 0.00000000000000000 8.83124999999999893
1 3430.72667389246225866 -1165.22499999999990905 530.04999999999995453 -0.00000000000000000 -1.00000000000000000 -0.00000000000000000 0.00000000000000000 0.00000000000000000 -1.00000000000000000 1.00000000000000000 0.00000000000000000 0.00000000000000000 
1 3190.00000000000000000 -1166.22499999999990905 526.04999999999995453 1.00000000000000000 0.00000000000000000 0.00000000000000000 0.00000000000000000 0.00000000000000000 1.00000000000000000 0.00000000000000000 -1.00000000000000000 0.00000000000000000 
1 3970.00000000000000000 -1166.22499999999990905 526.04999999999995453 1.00000000000000000 0.00000000000000000 0.00000000000000000 0.00000000000000000 0.00000000000000000 1.00000000000000000 0.00000000000000000 -1.00000000000000000 0.00000000000000000 
1 3430.72667389246225866 1165.22499999999945430 530.04999999999995453 0.00000000000000000 1.00000000000000000 0.00000000000000000 0.00000000000000000 0.00000000000000000 1.00000000000000000 1.00000000000000000 0.00000000000000000 0.00000000000000000 
1 3430.72667389246316816 -0.00000000000002458 527.05000000000006821 -0.00000000000000000 -0.00000000000000000 -1.00000000000000000 -1.00000000000000000 0.00000000000000000 0.00000000000000000 0.00000000000000000 1.00000000000000000 0.00000000000000000 
Triangulations 0

TShapes 135
Ve
0.000000150000341
3190.000000000000000 -1165.224999999999909 533.049999999999955
0 0

0101101
*
Ve
0.000000150000341
3970.000000000000000 -1165.224999999999909 533.049999999999955
0 0

0101101
*
Ed
 0.000000100000000 1 1 0
1  1 0 -641.757008670955202 138.242991329044798
0

0101000
+135 4 -134 4 *
Ve
0.000000150000455
3190.000000000000000 1165.224999999999909 533.050000000000182
0 0

0101101
*
Ed
 0.000000150000000 1 1 0
1  2 0 -582.112499999999955 1748.337499999999864
0

0101000
+135 4 -132 4 *
Ve
0.000000150000455
3970.000000000000000 1165.224999999999909 533.050000000000182
0 0

0101101
*
Ed
 0.000000150000000 1 1 0
1  3 0 -582.112499999999955 1748.337499999999864
0

0101000
+134 4 -130 4 *
Ed
 0.000000100000000 1 1 0
1  4 0 962.364330443015206 1742.364330443015206
0

0101000
+132 4 -130 4 *
Wi

0101100
+133 2 -131 2 +129 2 -128 2 *
Ve
0.000000100000000
3331.849999999999909 -567.397604778304753 533.050000000000296
0 0

0101101
*
Ed
 0.000000100000000 1 1 0
1  5 0 0.000000000000000 6.283185307179586
2  1 2 5 0.000000000000000 6.283185307179586
0

0101100
+126 6 -126 6 *
Wi

0101100
-125 0 *
Ve
0.000000100000000
3385.849999999999909 -567.397604778304753 533.050000000000296
0 0

0101101
*
Ed
 0.000000100000000 1 1 0
1  6 0 0.000000000000000 6.283185307179586
2  2 3 7 0.000000000000000 6.283185307179586
0

0101100
+123 6 -123 6 *
Wi

0101100
-122 0 *
Ve
0.000000100000000
3358.849999999999909 -524.397604778304753 533.050000000000296
0 0

0101101
*
Ed
 0.000000100000000 1 1 0
1  7 0 0.000000000000000 6.283185307179586
2  3 4 8 0.000000000000000 6.283185307179586
0

0101100
+120 6 -120 6 *
Wi

0101100
-119 0 *
Ve
0.000000100000000
3848.831250000000182 -850.000000000000000 533.050000000000296
0 0

0101101
*
Ed
 0.000000100000000 1 1 0
1  8 0 0.000000000000000 6.283185307179586
2  4 5 0 0.000000000000000 6.283185307179586
0

0101100
+117 4 -117 4 *
Wi

0101100
-116 2 *
Ve
0.000000100000000
3848.831250000000182 -425.000000000000000 533.050000000000296
0 0

0101101
*
Ed
 0.000000100000000 1 1 0
1  9 0 0.000000000000000 6.283185307179586
2  5 6 0 0.000000000000000 6.283185307179586
0

0101100
+114 4 -114 4 *
Wi

0101100
-113 2 *
Ve
0.000000100000000
3358.849999999999909 524.397604778304753 533.050000000000296
0 0

0101101
*
Ed
 0.000000100000000 1 1 0
1  10 0 0.000000000000000 6.283185307179586
2  6 7 9 0.000000000000000 6.283185307179586
0

0101100
+111 6 -111 6 *
Wi

0101100
-110 0 *
Ve
0.000000100000000
3331.849999999999909 567.397604778304753 533.050000000000296
0 0

0101101
*
Ed
 0.000000100000000 1 1 0
1  11 0 0.000000000000000 6.283185307179586
2  7 8 10 0.000000000000000 6.283185307179586
0

0101100
+108 6 -108 6 *
Wi

0101100
-107 0 *
Ve
0.000000100000000
3385.849999999999909 567.397604778304753 533.050000000000296
0 0

0101101
*
Ed
 0.000000100000000 1 1 0
1  12 0 0.000000000000000 6.283185307179586
2  8 9 11 0.000000000000000 6.283185307179586
0

0101100
+105 6 -105 6 *
Wi

0101100
-104 0 *
Ve
0.000000100000002
3848.831250000000182 -0.000000000000002 533.050000000000296
0 0

0101101
*
Ed
 0.000000100000000 1 1 0
1  13 0 0.000000000000000 6.283185307179586
2  9 10 0 0.000000000000000 6.283185307179586
0

0101100
+102 4 -102 4 *
Wi

0101100
-101 2 *
Ve
0.000000100000000
3848.831250000000182 425.000000000000000 533.050000000000296
0 0

0101101
*
Ed
 0.000000100000000 1 1 0
1  14 0 0.000000000000000 6.283185307179586
2  10 11 0 0.000000000000000 6.283185307179586
0

0101100
+99 4 -99 4 *
Wi

0101100
-98 2 *
Ve
0.000000100000000
3848.831250000000182 850.000000000000000 533.050000000000296
0 0

0101101
*
Ed
 0.000000100000000 1 1 0
1  15 0 0.000000000000000 6.283185307179586
2  11 12 0 0.000000000000000 6.283185307179586
0

0101100
+96 4 -96 4 *
Wi

0101100
-95 2 *
Fa
0  0.000000100000000 1 2

0101000
+127 0 +124 0 +121 0 +118 0 +115 0 +112 0 +109 0 +106 0 +103 0 +100 0 
+97 0 +94 0 *
Ve
0.000000150000114
3970.000000000000000 -1165.224999999999909 527.049999999999955
0 0

0101101
*
Ve
0.000000150000114
3190.000000000000000 -1165.224999999999909 527.049999999999955
0 0

0101101
*
Ed
 0.000000100000000 1 1 0
1  16 0 663.817678227940632 1443.817678227940632
0

0101000
+92 4 -91 4 *
Ed
 0.000000150000000 1 1 0
1  17 0 -1.000000000000000 5.000000000000000
0

0101000
+91 4 -135 4 *
Ed
 0.000000150000000 1 1 0
1  18 0 -1.000000000000000 5.000000000000000
0

0101000
+92 4 -134 4 *
Wi

0101100
-90 0 -89 0 -133 0 +88 0 *
Fa
0  0.000000100000000 13 0

0111000
+87 0 *
Ve
0.000000150000455
3190.000000000000000 1165.224999999999909 527.050000000000182
0 0

0101101
*
Ed
 0.000000150000000 1 1 0
1  19 0 -1748.337499999999864 582.112499999999955
0

0101000
+85 4 -91 4 *
Ed
 0.000000150000000 1 1 0
1  20 0 -5.000000000000227 0.999999999999773
0

0101000
+132 4 -85 4 *
Wi

0101100
-84 0 -89 0 -131 0 -83 0 *
Fa
0  0.000000100000000 14 0

0111000
+82 0 *
Ve
0.000000150000455
3970.000000000000000 1165.224999999999909 527.050000000000182
0 0

0101101
*
Ed
 0.000000150000000 1 1 0
1  21 0 -1748.337499999999864 582.112499999999955
0

0101000
+80 4 -92 4 *
Ed
 0.000000150000000 1 1 0
1  22 0 -5.000000000000227 0.999999999999773
0

0101000
+130 4 -80 4 *
Wi

0101100
-79 0 -88 0 -129 0 -78 0 *
Fa
0  0.000000100000000 15 0

0111000
+77 0 *
Ed
 0.000000100000000 1 1 0
1  23 0 -940.303660886029775 -160.303660886029775
0

0101000
+80 4 -85 4 *
Wi

0101100
+78 0 +128 0 -83 0 +75 0 *
Fa
0  0.000000100000000 16 0

0111000
+74 0 *
Ve
0.000000100000000
3331.849999999999909 -567.397604778304753 527.050000000000068
0 0

0101101
*
Ed
 0.000000100000000 1 1 0
1  24 0 1.000000000000114 7.000000000000341
3  12 13CN 2 0 1.000000000000114 7.000000000000341
0

0101000
+72 12 -126 12 *
Ed
 0.000000100000000 1 1 0
1  25 0 0.000000000000000 6.283185307179586
2  14 2 5 0.000000000000000 6.283185307179586
0

0101100
+72 6 -72 6 *
Wi

0101100
-125 0 +71 5 +70 0 -71 5 *
Fa
0  0.000000100000000 2 5

0101000
+69 0 *
Ve
0.000000100000000
3385.849999999999909 -567.397604778304753 527.050000000000068
0 0

0101101
*
Ed
 0.000000100000000 1 1 0
1  26 0 1.000000000000114 7.000000000000341
3  15 16CN 3 0 1.000000000000114 7.000000000000341
0

0101000
+67 13 -123 13 *
Ed
 0.000000100000000 1 1 0
1  27 0 0.000000000000000 6.283185307179586
2  17 3 7 0.000000000000000 6.283185307179586
0

0101100
+67 6 -67 6 *
Wi

0101100
-122 0 +66 7 +65 0 -66 7 *
Fa
0  0.000000100000000 3 7

0101000
+64 0 *
Ve
0.000000100000000
3358.849999999999909 -524.397604778304753 527.050000000000068
0 0

0101101
*
Ed
 0.000000100000000 1 1 0
1  28 0 1.000000000000114 7.000000000000341
3  18 19CN 4 0 1.000000000000114 7.000000000000341
0

0101000
+62 14 -120 14 *
Ed
 0.000000100000000 1 1 0
1  29 0 0.000000000000000 6.283185307179586
2  20 4 8 0.000000000000000 6.283185307179586
0

0101100
+62 6 -62 6 *
Wi

0101100
-119 0 +61 8 +60 0 -61 8 *
Fa
0  0.000000100000000 4 8

0101000
+59 0 *
Ve
0.000000100000000
3848.831250000000182 -850.000000000000000 527.050000000000068
0 0

0101101
*
Ed
 0.000000100000000 1 1 0
1  30 0 1.000000000000114 7.000000000000341
3  21 22CN 5 0 1.000000000000114 7.000000000000341
0

0101000
+57 4 -117 4 *
Ed
 0.000000100000000 1 1 0
1  31 0 0.000000000000000 6.283185307179586
2  23 5 0 0.000000000000000 6.283185307179586
0

0101100
+57 4 -57 4 *
Wi

0101100
-116 0 +56 0 +55 0 -56 0 *
Fa
0  0.000000100000000 5 0

0111000
+54 0 *
Ve
0.000000100000000
3848.831250000000182 -425.000000000000000 527.050000000000068
0 0

0101101
*
Ed
 0.000000100000000 1 1 0
1  32 0 1.000000000000114 7.000000000000341
3  24 25CN 6 0 1.000000000000114 7.000000000000341
0

0101000
+52 4 -114 4 *
Ed
 0.000000100000000 1 1 0
1  33 0 0.000000000000000 6.283185307179586
2  26 6 0 0.000000000000000 6.283185307179586
0

0101100
+52 4 -52 4 *
Wi

0101100
-113 0 +51 0 +50 0 -51 0 *
Fa
0  0.000000100000000 6 0

0111000
+49 0 *
Ve
0.000000100000000
3358.849999999999909 524.397604778304753 527.050000000000068
0 0

0101101
*
Ed
 0.000000100000000 1 1 0
1  34 0 1.000000000000114 7.000000000000341
3  27 28CN 7 0 1.000000000000114 7.000000000000341
0

0101000
+47 15 -111 15 *
Ed
 0.000000100000000 1 1 0
1  35 0 0.000000000000000 6.283185307179586
2  29 7 9 0.000000000000000 6.283185307179586
0

0101100
+47 6 -47 6 *
Wi

0101100
-110 0 +46 9 +45 0 -46 9 *
Fa
0  0.000000100000000 7 9

0101000
+44 0 *
Ve
0.000000100000000
3331.849999999999909 567.397604778304753 527.050000000000068
0 0

0101101
*
Ed
 0.000000100000000 1 1 0
1  36 0 1.000000000000114 7.000000000000341
3  30 31CN 8 0 1.000000000000114 7.000000000000341
0

0101000
+42 16 -108 16 *
Ed
 0.000000100000000 1 1 0
1  37 0 0.000000000000000 6.283185307179586
2  32 8 10 0.000000000000000 6.283185307179586
0

0101100
+42 6 -42 6 *
Wi

0101100
-107 0 +41 10 +40 0 -41 10 *
Fa
0  0.000000100000000 8 10

0101000
+39 0 *
Ve
0.000000100000000
3385.849999999999909 567.397604778304753 527.050000000000068
0 0

0101101
*
Ed
 0.000000100000000 1 1 0
1  38 0 1.000000000000114 7.000000000000341
3  33 34CN 9 0 1.000000000000114 7.000000000000341
0

0101000
+37 17 -105 17 *
Ed
 0.000000100000000 1 1 0
1  39 0 0.000000000000000 6.283185307179586
2  35 9 11 0.000000000000000 6.283185307179586
0

0101100
+37 6 -37 6 *
Wi

0101100
-104 0 +36 11 +35 0 -36 11 *
Fa
0  0.000000100000000 9 11

0101000
+34 0 *
Ve
0.000000100000002
3848.831250000000182 -0.000000000000002 527.050000000000068
0 0

0101101
*
Ed
 0.000000100000000 1 1 0
1  40 0 1.000000000000114 7.000000000000341
3  36 37CN 10 0 1.000000000000114 7.000000000000341
0

0101000
+32 4 -102 4 *
Ed
 0.000000100000000 1 1 0
1  41 0 0.000000000000000 6.283185307179586
2  38 10 0 0.000000000000000 6.283185307179586
0

0101100
+32 4 -32 4 *
Wi

0101100
-101 0 +31 0 +30 0 -31 0 *
Fa
0  0.000000100000000 10 0

0111000
+29 0 *
Ve
0.000000100000000
3848.831250000000182 425.000000000000000 527.050000000000068
0 0

0101101
*
Ed
 0.000000100000000 1 1 0
1  42 0 1.000000000000114 7.000000000000341
3  39 40CN 11 0 1.000000000000114 7.000000000000341
0

0101000
+27 4 -99 4 *
Ed
 0.000000100000000 1 1 0
1  43 0 0.000000000000000 6.283185307179586
2  41 11 0 0.000000000000000 6.283185307179586
0

0101100
+27 4 -27 4 *
Wi

0101100
-98 0 +26 0 +25 0 -26 0 *
Fa
0  0.000000100000000 11 0

0111000
+24 0 *
Ve
0.000000100000000
3848.831250000000182 850.000000000000000 527.050000000000068
0 0

0101101
*
Ed
 0.000000100000000 1 1 0
1  44 0 1.000000000000114 7.000000000000341
3  42 43CN 12 0 1.000000000000114 7.000000000000341
0

0101000
+22 4 -96 4 *
Ed
 0.000000100000000 1 1 0
1  45 0 0.000000000000000 6.283185307179586
2  44 12 0 0.000000000000000 6.283185307179586
0

0101100
+22 4 -22 4 *
Wi

0101100
-95 0 +21 0 +20 0 -21 0 *
Fa
0  0.000000100000000 12 0

0111000
+19 0 *
Wi

0101100
+79 2 -75 2 +90 2 -84 2 *
Wi

0101100
+55 2 *
Wi

0101100
+50 2 *
Wi

0101100
+65 0 *
Wi

0101100
+70 0 *
Wi

0101100
+60 0 *
Wi

0101100
+30 2 *
Wi

0101100
+25 2 *
Wi

0101100
+20 2 *
Wi

0101100
+45 0 *
Wi

0101100
+35 0 *
Wi

0101100
+40 0 *
Fa
0  0.000000100000000 17 2

0101000
+17 0 +16 0 +15 0 +14 0 +13 0 +12 0 +11 0 +10 0 +9 0 +8 0 
+7 0 +6 0 *
Sh

0101100
+93 0 +86 2 -81 2 +76 2 +73 2 -68 0 -63 0 -58 0 -53 2 -48 2 
-43 0 -38 0 -33 0 -28 2 -23 2 -18 2 +5 0 *
So

0100000
+4 0 *
Co

0100000
+3 0 *
Co

1100000
+2 0 *

+1 1 