DBRep_DrawableShape

CASCADE Topology V1, (c) Matra-Datavision
Locations 2
1
-0.229429910705658 0.246393960180288 0.941621968977078 95.9125000000001 
-0.058328423807407 -0.969169756227811 0.239390431282182               0 
0.971575890525149 2.01111459921667e-17 0.236728301962952              38 
2  1 -1 0
Curve2ds 1
1 0 0 0.89810872112873408 0.43977349287162548 
Curves 7
2 47.912500000000094 -5.5511151231257827e-16 1.1102230246251565e-15 1 -0 0 0 0.50000000000000033 0.8660254037844386 -0 -0.8660254037844386 0.50000000000000033 14.100000000000001
1 47.912500000000094 14.1 -3.453503973595536e-15 0 0 1 
6 0 3 47.912500000000094 14.1 13.999999999999996  47.912500000000094 14.1 34  89.798589688415888 12.865470798377945 45.794253449695319  94.025438984446055 -0.47975128581592519 45.991211699569348  
7 0 0  14 392 31  8.2249999999999943 3.3306690738754696e-15 0  8.224999999998504 3.4606606574690151 0.20602657571632563  6.6570978469432589 6.9212578785257248 0.41205315143275567  3.5200498500211839 9.6125605471900144 0.61807972714887638  -0.77001709179255806 10.763066495336352 0.82410630286550657  -5.3955110349618227 9.8495824440357502 1.0301328785818986  -9.2730965862645185 6.82599162133587 1.2361594542972205  -11.388718812851151 2.2653570204044313 1.4421860300158187  -11.179418041958659 -2.7577335176226372 1.6482126057292796  -8.7540742297230523 -7.0350549417038506 1.8542391814480819  -4.8302502599752 -9.6491040583749665 2.060265757162993  -0.42646565417418042 -10.227912703302104 2.2662923328798561  3.5017057254815991 -8.9419695468528939 2.472318908596133  6.2745716562524878 -6.3448047816062765 2.6783454843124366  8.9232466535574364 0.049662319200037906 3.0903986357451667  8.7990071679449162 3.8468474395473815 3.2964252114613211  6.9306696738943341 7.5337831858600923 3.5024517871783623  3.4074441983668891 10.238449625794633 3.7084783628927682  -1.2155301955075242 11.164600305996633 3.914504938613395  -5.9550302362195584 9.8550543784123281 4.1205315143220806  -9.6548896124876524 6.4511909904226812 4.3265580900498222  -11.383774442543052 1.730364515192691 4.5325846657516555  -10.779908978808862 -3.149504097407319 4.7386112414837536  -8.1551216124535166 -7.0661529978807414 4.9446378171857654  -4.3080556284198854 -9.2861578665943032 5.1506643929128098  -0.18678934964979163 -9.6013474108272732 5.3566909686227486  3.3688966569761418 -8.2630098935426695 5.5627175443420782  8.2630098935427423 -3.3688966569771277 5.9747706957726328  9.6013474108289287 0.18678934965657373 6.1807972714977231  9.2861578665892832 4.3080556283995497 6.3868238471847194  7.0661529978894437 8.1551216124949804 6.5928504229691045  3.1495040973976307 10.779908978743556 6.7988769985634274  -1.7303645151867844 11.383774442626526 7.0049035744566046  -6.451190990420967 9.6548896123988452 7.2109301499617002  -9.8550543784207036 5.9550302362981018 7.4169567258872258  -11.164600305985578 1.2155301954513766 7.6229833014327228  -10.238449625804316 -3.4074441983358339 7.8290098772623082  -7.5337831858537827 -6.9306696739060225 8.0350364529200036  -3.8468474395505456 -8.7990071679433779 8.2410630286577877  -0.049662319198923846 -8.9232466535558697 8.4470896043707224  6.3448047816045481 -6.2745716562568692 8.8591427557997182  8.9419695468624756 -3.5017057254526662 9.065169331539856  10.227912703273905 0.42646565408552234 9.2711959071725403  9.6491040584336982 4.8302502601640596 9.4772224830832812  7.0350549416096326 8.7540742294143765 9.683249058458177  2.7577335177441049 11.1794180423607 9.8892756346505202  -2.265357020533016 11.38871881242609 10.095302209827505  -6.8259916212231309 9.2730965866320219 10.301328786046792  -9.8495824441166722 5.3955110347021416 10.507355361375781  -10.763066495289404 0.77001709194127133 10.713381937336864  -9.6125605472115794 -3.5200498500882365 10.919408512929174  -6.921257878518194 -6.6570978469211779 11.125435088693228  -3.4606606574708287 -8.225000000002499 11.331461664397789  3.4606606574710512 -8.2249999999984382 11.743514815830904  6.9212578785157373 -6.6570978469404469 11.949541391556975  9.6125605472170008 -3.5200498500327932 12.155567967230882  10.763066495283278 0.77001709182188838 12.361594543060693  9.8495824441175639 5.3955110349057751 12.567621118552724  6.8259916212339897 9.2730965863493129 12.773647694617178  2.2653570205080689 11.388718812747516 12.979674269897359  -2.757733517708834 11.179418042060465 13.18570084606066  -7.035054941644864 8.754074229643507 13.391727421401697  -9.6491040584073957 4.8302502600238189 13.597753997374156  -10.227912703288569 0.42646565415211596 13.803780572951455  -8.9419695468564449 -3.5017057254751371 14.009807148724938  -6.3448047816062996 -6.2745716562527036 14.215833724425917  0.049662319201024152 -8.9232466535588948 14.627886875860302  3.8468474395390357 -8.7990071679323041 14.83391345158253  7.5337831858861364 -6.9306696739360438 15.039940027270053  10.238449625739173 -3.4074441982734585 15.245966603067787  11.164600306087403 1.2155301953472228 15.451993178613327  9.8550543782910029 5.9550302364398426 15.658019754611271  6.4511909905584197 9.6548896122399004 15.864046329956457  1.7303645150658216 11.38377444277195 16.070072906066152  -3.1495040973088106 10.779908978635939 16.276099481448064  -7.0661529979438349 8.1551216125588031 16.482126057388726  -9.2861578665616022 4.3080556283699529 16.688152632992416  -9.6013474108401891 0.18678934966690747 16.89417920874417  -8.2630098935392322 -3.3688966569792735 17.100205784460883  -3.3688966569814123 -8.2630098935404153 17.512258935876726  0.18678934967906258 -9.6013474108372385 17.718285511686609  4.3080556283351417 -9.2861578665683258 17.924312087078278  8.155121612627072 -7.0661529979298399 18.130338663546905  10.779908978535454 -3.1495040973356225 18.336365237938377  11.38377444288721 1.7303645151106015 18.542391815518176  9.6548896121351593 6.4511909904969613 18.748418389090542  5.9550302365155439 9.8550543783587496 18.954444966848161  1.2155301953041684 11.164600306027696 19.16047154095191  -3.407444198254463 10.238449625780074 19.366498117718056  -6.9306696739417877 7.5337831858655093 19.57252469288305  -8.7990071679317268 3.846847439545936 19.778551268821325  -8.9232466535581434 0.049662319200227734 19.984577844478515  -6.2745716562547429 -6.344804781606352 20.396630995918283  -3.5017057254623949 -8.9419695468528708 20.60265757165358  0.42646565411179665 -10.227912703300046 20.808684147275343  4.8302502601123516 -9.64910405838347 21.014710723247198  8.7540742294933303 -7.0350549416839812 21.220737298463838  11.179418042262213 -2.7577335176555375 21.426763874944765  11.388718812527554 2.2653570204444224 21.632790449714502  9.273096586546119 6.8259916212969447 21.838817026395333  5.3955110347609114 9.8495824440659661 22.044843601297316  0.77001709190980594 10.76306649531816 22.250870177582438  -3.52004985007598 9.6125605471980649 22.456896752974121  -6.6570978469229978 6.9212578785232326 22.662923328837792  -8.2250000000039005 3.4606606574697842 22.868949904503918  -8.2249999999943437 -3.4606606574699059 23.281003055959037  -6.65709784696804 -6.9212578785200112 23.487029631596791  -3.5200498499472248 -9.6125605472091866 23.693056207580739  0.77001709163529064 -10.763066495290831 23.899082782652723  5.3955110352205677 -9.8495824441174626 24.1051093595695  9.2730965859239856 -6.8259916212209815 24.311135933493507  11.388718813215265 -2.2653570205338536 24.517162511390577  11.17941804163951 2.7577335177403386 24.723189084926595  8.7540742299522964 7.0350549416171422 24.929215662440065  4.8302502598419235 9.6491040584262766 25.135242236937799  0.42646565423527905 10.227912703277678 25.341268813327009  -3.5017057255020028 8.9419695468621647 25.547295388748111  -6.2745716562486002 6.3448047816035995 25.753321964562012  -8.9232466535605255 -0.04966231919611587 26.165375115952475  -8.7990071679329915 -3.8468474395673748 26.371401691809517  -6.9306696739268965 -7.5337831858036379 26.577428267072815  -3.4074441982999391 -10.238449625906505 26.783454843812478  1.2155301953987645 -11.164600305827015 26.989481417745061  5.9550302363601393 -9.8550543786146072 27.195507995960284  9.654889612338927 -6.4511909902302316 27.401534568804397  11.383774442671958 -1.7303645153415117 27.607561147256991  10.779908978717021 3.1495040975007118 27.813587720808655  8.1551216125070045 7.0661529978339814 28.019614297936872  4.308055628395655 9.2861578666112941 28.225640872909967  0.18678934965770236 9.6013474108235375 28.431667448926394  -3.368896656977066 8.2630098935425877 28.63769402456251  -8.2630098935425558 3.3688966569784231 29.049747176004526  -9.6013474108277226 -0.18678934966565411 29.255773751747853  -9.2861578665923208 -4.3080556283698401 29.461800327336963  -7.0661529978878939 -8.1551216125602402 29.66782690337951  -3.1495040973902251 -10.77990897863584 29.873853478495903  1.7303645151633245 -11.383774442763565 30.079880055061558  6.4511909904588629 -9.654889612262112 30.285906629825099  9.8550543783761402 -5.9550302364074685 30.491933206402223  11.164600306026882 -1.2155301953802988 30.697959781486254  10.238449625774255 3.4074441982981551 30.903986357582088  7.5337831858704609 6.930669673922039 31.110012933112696  3.8468474395436814 8.7990071679377504 31.316039508901937  0.049662319201256522 8.9232466535574844 31.522066084596521  -6.3448047816079018 6.2745716562545182 31.934119236037553  -8.9419695468440548 3.5017057254657313 32.140145811729965  -10.227912703326082 -0.42646565412206644 32.346172387511359  -9.6491040583303676 -4.8302502600918791 32.55219896311354  -7.0350549417648862 -8.7540742295224518 32.758225538964808  -2.7577335175588873 -11.179418042232312 32.964252114583438  2.2653570203509488 -11.38871881254941 33.170278690315087  6.8259916213706289 -9.2730965865344785 33.376305266093318  9.8495824440200987 -5.3955110347675843 33.582331841717739  10.763066495340086 -0.77001709190251111 33.788358417508732  9.6125605471902134 3.5200498500684843 33.994384993186479  6.9212578785253589 6.6570978469288526 34.200411568912415  3.4606606574692926 8.2250000000002572 34.406438144632517  -3.4606606574695102 8.225000000001728 34.818491296053871  -6.9212578785226322 6.6570978469213511 35.024517871830575  -9.6125605471996209 3.5200498500901207 35.230544447333152  -10.763066495317362 -0.77001709194378087 35.436571023564419  -9.8495824440612871 -5.3955110347066952 35.642597598327335  -6.8259916213108216 -9.2730965866096167 35.848624175456692  -2.2653570204237035 -11.388718812470415 36.054650749468983  2.7577335176335138 -11.179418042301291 36.260677326870528  7.0350549417013335 -8.7540742294730105 36.466703901217493  9.6491040583721865 -4.8302502601213204 36.672730477843253  10.227912703305684 -0.42646565410798493 36.878757053075084  8.9419695468508795 3.5017057254600505 37.084783628988816  6.3448047816069009 6.2745716562562155 37.290810204651677  -0.04966231920091229 8.9232466535550294 37.702863356091697  -3.8468474395412611 8.7990071679516575 37.90888993181791  -7.5337831858786233 6.9306696738804474 38.114916507484253  -10.238449625752017 3.4074441983876649 38.320943083321794  -11.164600306073394 -1.2155301955274318 38.526969658828499  -9.8550543783027944 -5.955030236207687 38.732996234832825  -6.4511909905472953 -9.6548896124906332 38.939022810218468  -1.7303645150775215 -11.383774442548038 39.145049386258535  3.1495040973197046 -10.779908978796113 39.351075961706123  7.0661529979330968 -8.1551216124690011 39.557102537609033  9.286157866570333 -4.3080556284094831 39.763129113218213  9.6013474108345829 -0.18678934965388508 39.969155688985168  8.2630098935421152 3.3688966569766019 40.1751822646821  3.3688966569763457 8.2630098935423089 40.587235416126518  -0.1867893496484932 9.6013474108308845 40.793261991796086  -4.3080556284251168 9.286157866583828 40.99928856767098  -8.1551216124412527 7.0661529979002049 41.205315143017003  -10.77990897882901 3.1495040973812065 41.411341719396155  -11.383774442517538 -1.730364515165187 41.617368294160173  -9.6548896125134949 -6.4511909904458369 41.823394871002961  -5.9550302361972669 -9.8550543783976607 42.029421445606374  -1.2155301955249835 -11.164600306000983 42.235448022246558  3.4074441983779336 -10.238449625796694 42.441474597321488  6.9306696738881026 -7.5337831858572377 42.647501173404436  8.7990071679482043 -3.846847439548994 42.853527748953319  8.9232466535558252 -0.049662319199405343 43.05955432472765  6.2745716562554668 6.344804781604763 43.471607476133116  3.5017057254644266 8.9419695468610154 43.677634051942618  -0.42646565412161885 10.227912703278058 43.883660627360847  -4.8302502600859514 9.6491040584258929 44.089687203743203  -8.7540742295428142 7.0350549416193635 44.295713778314621  -11.179418042191489 2.7577335177362334 44.50174035561038  -11.388718812606195 -2.2653570205266735 44.70776692953465  -9.2730965864757522 -6.8259916212268514 44.913793506949425  -5.3955110348142812 -9.849582444116999 45.119820081312227  -0.77001709187436407 -10.763066495286399 45.325846657932722  3.5200498500558823 -9.6125605472141107 45.531873233150797  6.6570978469321176 -6.9212578785173537 45.737899809085754  8.2250000000003638 -3.460660657471144 45.943926384731313  8.2250000000003514 3.4606606574713865 46.355979536191157  6.6570978469319062 6.9212578785132157 46.562006111827685  3.5200498500572128 9.6125605472255629 46.768032687786899  -0.77001709187285194 10.763066495264566 46.974059262985122  -5.3955110348198616 9.8495824441449589 47.180085839545562  -9.2730965864674548 6.82599162120537 47.386112414171848  -11.388718812614472 2.2653570205312761 47.592138991028065  -11.179418042181473 -2.757733517722198 47.798165565764265  -8.7540742295550427 -7.0350549416418131 48.004192142179832  -4.8302502600756512 -9.6491040584038252 48.210218717484032  -0.42646565412849879 -10.227912703292819 48.416245293396024  3.50170572546681 -8.9419695468543718 48.622271869042315  6.274571656254766 -6.3448047816067721 48.828298444774049  8.9232466535563066 0.049662319201365976 49.240351596207979  8.799007167946538 3.8468474395368522 49.44637817190474  6.9306696738935072 7.5337831858909938 49.652404747690653  3.4074441983639243 10.238449625728423 49.858431323254742  -1.215530195493294 11.164600306106395 50.064457899209728  -5.9550302362463281 9.8550543782674094 50.270484474648114  -9.6548896124553369 6.4511909905770342 50.476511050602781  -11.383774442573204 1.7303645150582598 50.682537626177755  -10.779908978782144 -3.1495040973097712 50.888564201936873  -8.1551216124753516 -7.0661529979368414 51.094590777670845  -4.3080556284068585 -9.2861578665691429 51.300617353350923  -0.18678934965542013 -9.6013474108348547 51.506643929097834  3.3688966569773893 -8.2630098935420886 51.712670504795916  8.263009893540552 -3.3688966569765033 52.124723656245791  9.6013474108417061 0.1867893496489666 52.330750231884082  9.286157866550182 4.3080556284242446 52.536776807870893  7.0661529979747097 8.1551216124387 52.742803382942029  3.1495040972541566 10.779908978839666 52.94882995984571  -1.7303645149900793 11.383774442496421 53.154856533807212  -6.4511909906437381 9.6548896125427977 53.360883111643304  -9.8550543782123192 5.9550302361662828 53.566909685250117  -11.164600306143653 1.2155301955507696 53.772936262697321  -10.238449625707768 -3.4074441983938182 53.978962837251935  -7.5337831859007824 -6.9306696738812477 54.184989413593073  -3.8468474395334948 -8.799007167949366 54.391015989052569  -0.049662319202884428 -8.9232466535565766 54.597042564839782  6.3448047816081248 -6.2745716562532321 55.009095716260511  8.9419695468457761 -3.5017057254798649 55.215122291977373  10.227912703318617 0.42646565416782906 55.421148867708595  9.6491040583471328 4.8302502599900352 55.627175443399508  7.0350549417372923 8.7540742296927938 55.833202019110978  2.7577335175976638 11.179418042005066 56.039228594931565  -2.2653570203957449 11.388718812795968 56.245255170399979  -6.8259916213271321 9.2730965863156101 56.451281746475154  -9.8495824440546613 5.3955110349241009 56.657308321816927  -10.763066495317231 0.77001709181646882 56.863334897834463  -9.6125605472021665 -3.520049850033514 57.069361473358256  -6.9212578785208461 -6.6570978469372477 57.27538804917323  -3.4606606574704388 -8.2250000000010406 57.481414624849535  3.4606606574703713 -8.2249999999969159 57.89346777630746  6.9212578785178422 -6.6570978469574396 58.099494351917635  9.6125605472148585 -3.520049849976401 58.305520928011425  10.763066495279064 0.77001709169580279 58.511547502799935  9.8495824441366597 5.3955110351207969 58.717574080266147  6.8259916211990683 9.2730965860551766 58.923600653344316  2.2653570205495952 11.388718813074981 59.129627232301786  -2.7577335177477904 11.17941804176375 59.335653804745597  -7.0350549416126951 8.7540742298615761 59.541680383184158  -9.6491040584289216 4.8302502598955819 59.747706957040606  -10.22791270327785 0.42646565421019256 59.953733533788139  -8.9419695468604594 -3.5017057254931498 60.159760109054261  -6.3448047816050392 -6.2745716562503908 60.36578668491449  0.049662319198640496 -8.9232466535586337 60.777839836293673  3.8468474395509071 -8.7990071679422606 60.983866412167679  7.5337831858499298 -6.9306696738997857 61.189892987389079  10.238449625813388 -3.4074441983583506 61.395919564210054  11.164600305972307 1.2155301954954627 61.601946138022093  9.8550543784335254 5.9550302362285876 61.807972716364517  6.4511909904118321 9.6548896124861248 62.013999289137317  1.730364515193066 11.383774442536874 62.220025867553474  -3.149504097398343 10.77990897881689 62.42605244124465  -7.0661529978917947 8.1551216124485464 62.632079018190112  -9.286157866585615 4.3080556284223244 62.838105593321501  -9.6013474108317318 0.1867893496490908 63.044132169236988  -8.2630098935411702 -3.3688966569753842 63.250158744922167  -3.368896656979619 -8.2630098935437051 63.662211896327044  0.18678934967057015 -9.6013474108239762 63.868238472231567  4.308055628356243 -9.2861578666030216 64.074265047257185  8.1551216125927652 -7.0661529978617752 64.280291624656044  10.779908978573557 -3.1495040974394826 64.486318197265106  11.383774442858897 1.7303645152349123 64.692344777543511  9.6548896121440553 6.4511909903759399 64.898371347822518  5.9550302365257419 9.8550543784557565 65.104397928848456  1.215530195285035 11.164600305964221 65.310424500308642  -3.407444198236953 10.23844962581269 65.516451078808217  -6.9306696739528375 7.5337831858530269 65.722477653069006  -8.7990071679266446 3.8468474395494585 65.928504229364634  -8.9232466535597279 0.049662319199459529 66.134530804929355  -6.2745716562525944 -6.3448047816051156 66.546583956378541  -3.5017057254754507 -8.9419695468589637 66.752610532144928  0.42646565415026699 -10.227912703284529 66.958637107637315  4.8302502600334751 -9.6491040584065537 67.164663683911783  8.754074229616192 -7.0350549416627741 67.370690258601499  11.179418042105349 -2.7577335176731186 67.576716835819781  11.388718812691126 2.2653570204640983 67.782743409741983  9.2730965864076627 6.8259916212777307 67.988769987223108  5.3955110348585942 9.8495824440746311 68.194796561511538  0.77001709185146405 10.76306649531957 68.400823138166416  -3.5200498500459285 9.6125605471937305 68.606849713399171  -6.6570978469359448 6.9212578785261609 68.812876289292518  -8.2249999999988201 3.4606606574689192 69.018902864979637  -8.2250000000027832 -3.4606606574682157 69.430956016384485  -6.6570978469177602 -6.9212578785317946 69.636982592288547  -3.5200498500983102 -9.6125605471725581 69.843009167323842  0.7700170919589745 -10.763066495372286 70.049035744682598  5.3955110346837847 -9.8495824439759954 70.255062317379384  9.2730965866387702 -6.8259916214184173 70.461088897541259  11.388718812438908 -2.2653570203099638 70.667115467902406  11.179418042331353 2.7577335175339299 70.873142048946903  8.7540742294502625 7.0350549417735078 71.07916862027767  4.8302502601324369 9.6491040583296162 71.285195198960807  0.42646565410500042 10.227912703326286 71.491221773057688  -3.5017057254603445 8.941969546843211 71.697248349458405  -6.2745716562554703 6.3448047816085076 71.903274924973246  -8.9232466535570385 -0.04966231920247887 72.315328076457519  -8.7990071679389743 -3.8468474395348626 72.521354652086828  -6.930669673918004 -7.5337831858943707 72.727381228014721  -3.4074441983088448 -10.238449625726112 72.933407803340103  1.2155301954002713 -11.164600306104557 73.139434379625087  5.9550302363711252 -9.8550543782736195 73.345460954678217  9.6548896123175254 -6.4511909905683744 73.551487531023938  11.383774442699453 -1.7303645150670668 73.757514106242823  10.7799089786889 3.1495040973158868 73.963540682297591  8.1551216125282426 7.0661529979351245 74.169567257811394  4.3080556283847251 9.2861578665686544 74.375593833632308  0.18678934966166205 9.6013474108356984 74.581620409305799  -3.3688966569779093 8.263009893541426 74.787646985033362  -8.2630098935416978 3.3688966569777588 75.199700136466319  -9.6013474108323553 -0.18678934965674862 75.405726712169255  -9.286157866579769 -4.3080556284005143 75.61175328793594  -7.066152997908091 -8.1551216124922963 75.817779863533062  -3.1495040973677537 -10.779908978749573 76.023806439463556  1.7303645151404259 -11.383774442613886 76.229833014868902  6.4511909904828508 -9.6548896124180761 76.435859590962252  9.8550543783579592 -5.9550302362763894 76.641886166289396  11.164600306032474 -1.215530195470947 76.847912742352875  10.238449625776752 3.4074441983489216 77.053939317798779  7.5337831858673781 6.9306696738993558 77.259965893699842  3.846847439545503 8.799007167945005 77.465992469306173  0.04966231920032111 8.9232466535561858 77.672019045079281  -6.3448047816057311 6.2745716562556568 78.084072196461278  -8.9419695468570151 3.5017057254617874 78.290098772407006  -10.227912703288853 -0.42646565411384468 78.496125347334043  -9.6491040584045802 -4.8302502601027699 78.702151924905024  -7.0350549416516959 -8.754074229513499 78.908178497277788  -2.7577335176976021 -11.179418042233523 79.114205077830349  2.2653570204904887 -11.388718812558574 79.320231647820165  6.8259916212556355 -9.2730965865185837 79.526258229136829  9.8495824440969741 -5.3955110347826061 79.732284800324408  10.76306649529773 -0.77001709189417622 79.938311379046482  9.6125605472094193 3.5200498500659014 80.144337953159408  6.9212578785189312 6.6570978469291617 80.350364529530324  3.4606606574700804 8.2250000000006551 80.556391105068528  -6.9213213149386261 8.225000000000378 81.174470832255992  -13.83365513235738 1.9460631291863617 81.58652398364768  -14.679267013841407 -10.532653407952582 81.998577135125842  -2.7478184611401817 -23.095154761187054 82.410630286541391  18.365088729555044 -20.602505908193159 82.822683437908182  36.600568239154697 0.58301316923112678 83.234736589537064  16.943287305568703 40.904714004185905 83.646789740650959  -25.468257431765036 26.29276256272475 84.05884289244382  -27.554250414820729 -1.5820928594133421 84.470896043582798  -14.387739476896305 -18.273741611489466 84.882949195183642  2.9320985997126892 -17.82751989700586 85.295002346558533  11.157945787940871 -8.4057969174150475 85.707055497990993  10.710066511824802 0.92184003869413134 86.119108649438601  0.92184003869552855 10.710066511825318 86.943214952281679  -8.4057969174186074 11.1579457879388 87.355268103818048  -17.827519896991621 2.9320985997251157 87.767321254906875  -18.273741611536831 -14.387739476930022 88.179374407106707  -1.5820928592896693 -27.554250414758108 88.591427557244771  26.292762562483759 -25.468257431827379 89.003480710405853  40.90471400450393 16.943287305573548 89.415533859965493  0.58301316893983579 36.600568239218511 89.827587013075913  -20.602505908000062 18.36508872946413 90.239640163252005  -23.095154761280845 -2.7478184610707546 90.651693315473935  -10.532653407917531 -14.679267013872145 91.063746466495815  1.9460631291744894 -13.833655132348911 91.475799618099259  8.2250000000029893 -6.9213213149398687 91.887852769479906  8.2250000000000316 -2.4491186503084959e-13 92.299905920921518 
 0 15 6.5587674263732314 13 13.117534852746463 13 19.676302279119696 13 26.235069705492926 13 32.793837131866155 13 39.352604558239392 13 45.911371984612622 13 52.470139410985851 13 59.028906837359081 13 65.58767426373231 13 72.146441690105547 13 78.705209116478784 13 85.263976542852021 13 91.822743969225243 13 98.381511395598466 13 104.9402788219717 13 111.49904624834494 13 118.05781367471816 13 124.61658110109138 13 131.17534852746462 13 137.73411595383786 13 144.29288338021109 13 150.85165080658433 13 157.41041823295757 13 163.9691856593308 13 170.52795308570404 13 177.08672051207725 13 183.64548793845049 13 196.76302279119693 13 209.8805576439434 15
6 0 3 180.9370581341031 21.615962999898525 67.841211699569399  185.76774304385054 6.3642806179636011 68.066306842373578  215.79911914965723 22.526964285714222 69.850000000000023  215.79911914965723 34.526964285714222 69.850000000000023  
1 215.79911914965723 34.526964285714222 69.850000000000023 0 1 0 
6 0 3 215.79911914965723 45.664464285714224 69.850000000000023  215.79911914965723 50.664464285714224 69.850000000000023  213.79911914965723 50.664464285714224 66.850000000000023  213.79911914965723 50.664464285714224 63.850000000000023  
Polygon3D 0
PolygonOnTriangulations 0
Surfaces 1
2 0 0 0 0 0 1 1 0 -0 -0 1 0 8.2249999999999996
Triangulations 0

TShapes 16
Ve
1e-07
47.9125000000001 7.05 12.2109581933606
0 0

0101101
*
Ve
1.00000005780386e-07
47.9125000000001 14.1 -9.16524625790257e-15
0 0

0101101
*
Ed
 1e-07 1 1 0
1  1 0 0 5.23598775598299
0

0101000
+16 0 -15 0 *
Ve
1e-07
47.9125000000001 14.1 14
0 0

0101101
*
Ed
 1e-07 1 1 0
1  2 0 0 14
0

0101000
+15 0 -13 0 *
Ve
1.00000003984545e-07
94.0254389844461 -0.479751285815924 45.9912116995693
0 0

0101101
*
Ed
 1e-07 1 1 0
1  3 0 0 1
0

0101000
+13 0 -11 0 *
Ve
1.00000043836801e-07
8.225 -2.0961010704923e-13 92.2999059209215
0 0

0101101
*
Ed
 1e-05 1 1 0
2  1 1 0 0 209.880557643943
1  4 0 0 209.880557643943
0

0101000
+11 2 -9 0 *
Ve
1.00000003552714e-07
215.799119149657 34.5269642857142 69.85
0 0

0101101
*
Ed
 1e-07 1 1 0
1  5 0 0 1
0

0101000
+9 1 -7 0 *
Ve
1e-07
215.799119149657 45.6644642857142 69.85
0 0

0101101
*
Ed
 1e-07 1 1 0
1  6 0 0 11.1375
0

0101000
+7 0 -5 0 *
Ve
1e-07
213.799119149657 50.6644642857142 63.85
0 0

0101101
*
Ed
 1e-07 1 1 0
1  7 0 0 1
0

0101000
+5 0 -3 0 *
Wi

1101000
+14 0 +12 0 +10 0 +8 1 +6 0 +4 0 +2 0 *

+1 0 