
CASCADE Topology V1, (c) Matra-Datavision
Locations 5
1
1.000000000000000 0.000000000000000 0.000000000000000 0.000000000000000 
0.000000000000000 1.000000000000000 0.000000000000000 0.000000000000000 
0.000000000000000 0.000000000000000 1.000000000000000 0.000000000000000 
1
1.000000000000000 0.000000000000000 0.000000000000000 0.000000000000000 
0.000000000000000 1.000000000000000 0.000000000000000 0.000000000000000 
0.000000000000000 0.000000000000000 1.000000000000000 0.000000000000000 
2  2 -1 0
1
1.000000000000000 0.000000000000000 0.000000000000000 0.000000000000000 
0.000000000000000 1.000000000000000 0.000000000000000 0.000000000000000 
0.000000000000000 0.000000000000000 1.000000000000000 7.937500000000000 
2  2 -1 4 -1 0
Curve2ds 4
1 0.00000000000000000 1.00000000000000000 1.00000000000000000 0.00000000000000000 
1 0.00000000000000000 8.93750000000000000 1.00000000000000000 0.00000000000000000 
1 6.28318530717958623 -0.00000000000000000 0.00000000000000000 1.00000000000000000 
1 0.00000000000000000 -0.00000000000000000 0.00000000000000000 1.00000000000000000 
Curves 21
1 8.24889197104677763 0.00000000000000000 0.00000000000000000 0.00000000000000000 0.00000000000000000 1.00000000000000000 
1 4.12444598552338970 7.14374999999999893 0.00000000000000000 0.00000000000000000 0.00000000000000000 1.00000000000000000 
1 8.24889197104677763 0.00000000000000000 0.00000000000000000 -0.50000000000000000 0.86602540378443871 0.00000000000000000 
1 8.24889197104677763 0.00000000000000000 0.00000000000000000 -0.50000000000000000 0.86602540378443871 0.00000000000000000 
1 4.12444598552338970 -7.14374999999999893 0.00000000000000000 0.00000000000000000 0.00000000000000000 1.00000000000000000 
1 4.12444598552338970 -7.14374999999999893 0.00000000000000000 0.50000000000000000 0.86602540378443871 0.00000000000000000 
1 4.12444598552338970 -7.14374999999999893 0.00000000000000000 0.50000000000000000 0.86602540378443871 0.00000000000000000 
1 -4.12444598552338704 7.14374999999999982 0.00000000000000000 0.00000000000000000 0.00000000000000000 1.00000000000000000 
1 4.12444598552338970 7.14374999999999893 0.00000000000000000 -1.00000000000000000 0.00000000000000011 0.00000000000000000 
1 4.12444598552338970 7.14374999999999893 0.00000000000000000 -1.00000000000000000 0.00000000000000011 0.00000000000000000 
1 -4.12444598552339237 -7.14374999999999716 0.00000000000000000 1.00000000000000000 -0.00000000000000022 0.00000000000000000 
1 -4.12444598552338704 7.14374999999999982 0.00000000000000000 -0.50000000000000022 -0.86602540378443860 0.00000000000000000 
1 -8.24889197104677763 0.00000000000000101 0.00000000000000000 0.49999999999999978 -0.86602540378443882 0.00000000000000000 
2 0.00000000000000000 0.00000000000000000 0.00000000000000000 0.00000000000000000 0.00000000000000000 1.00000000000000000 1.00000000000000000 0.00000000000000000 0.00000000000000000 0.00000000000000000 1.00000000000000000 0.00000000000000000 4.86249999999999982
1 -4.12444598552339237 -7.14374999999999716 0.00000000000000000 1.00000000000000000 -0.00000000000000022 0.00000000000000000 
1 -4.12444598552338704 7.14374999999999982 0.00000000000000000 -0.50000000000000022 -0.86602540378443860 0.00000000000000000 
1 -8.24889197104677763 0.00000000000000101 0.00000000000000000 0.49999999999999978 -0.86602540378443882 0.00000000000000000 
2 0.00000000000000000 0.00000000000000000 7.93750000000000000 0.00000000000000000 0.00000000000000000 1.00000000000000000 1.00000000000000000 0.00000000000000000 0.00000000000000000 0.00000000000000000 1.00000000000000000 0.00000000000000000 4.86249999999999982
1 -4.12444598552339237 -7.14374999999999716 0.00000000000000000 0.00000000000000000 0.00000000000000000 1.00000000000000000 
1 -8.24889197104677763 0.00000000000000101 0.00000000000000000 0.00000000000000000 0.00000000000000000 1.00000000000000000 
1 4.86249999999999982 -0.00000000000000119 -1.00000000000000000 0.00000000000000000 0.00000000000000000 1.00000000000000000 
Polygon3D 0
PolygonOnTriangulations 0
Surfaces 9
1 8.24889197104677763 0.00000000000000000 0.00000000000000000 -0.86602540378443871 -0.50000000000000000 0.00000000000000000 -0.50000000000000000 0.86602540378443871 0.00000000000000000 0.00000000000000000 0.00000000000000000 -1.00000000000000000 
1 4.12444598552338970 -7.14374999999999893 0.00000000000000000 -0.86602540378443871 0.50000000000000000 0.00000000000000000 0.50000000000000000 0.86602540378443871 0.00000000000000000 0.00000000000000000 0.00000000000000000 -1.00000000000000000 
1 4.12444598552338970 7.14374999999999893 0.00000000000000000 -0.00000000000000011 -1.00000000000000000 0.00000000000000000 -1.00000000000000000 0.00000000000000011 0.00000000000000000 0.00000000000000000 0.00000000000000000 -1.00000000000000000 
1 -0.00000000000000014 0.00000000000000014 0.00000000000000000 0.00000000000000000 0.00000000000000000 1.00000000000000000 1.00000000000000000 0.00000000000000000 0.00000000000000000 0.00000000000000000 1.00000000000000000 0.00000000000000000 
2 0.00000000000000000 0.00000000000000000 -1.00000000000000000 0.00000000000000000 0.00000000000000000 1.00000000000000000 1.00000000000000000 0.00000000000000000 0.00000000000000000 0.00000000000000000 1.00000000000000000 0.00000000000000000 4.86249999999999982
1 -0.00000000000000014 0.00000000000000014 0.00000000000000000 0.00000000000000000 0.00000000000000000 1.00000000000000000 1.00000000000000000 0.00000000000000000 0.00000000000000000 0.00000000000000000 1.00000000000000000 0.00000000000000000 
1 -4.12444598552339237 -7.14374999999999716 0.00000000000000000 0.00000000000000022 1.00000000000000000 0.00000000000000000 1.00000000000000000 -0.00000000000000022 0.00000000000000000 0.00000000000000000 0.00000000000000000 -1.00000000000000000 
1 -4.12444598552338704 7.14374999999999982 0.00000000000000000 0.86602540378443860 -0.50000000000000022 0.00000000000000000 -0.50000000000000022 -0.86602540378443860 0.00000000000000000 0.00000000000000000 0.00000000000000000 -1.00000000000000000 
1 -8.24889197104677763 0.00000000000000101 0.00000000000000000 0.86602540378443882 0.49999999999999978 0.00000000000000000 0.49999999999999978 -0.86602540378443882 0.00000000000000000 0.00000000000000000 0.00000000000000000 -1.00000000000000000 
Triangulations 0

TShapes 58
Ve
0.000000100000000
8.248891971046778 0.000000000000000 0.000000000000000
0 0

0101101
*
Ve
0.000000100000000
8.248891971046778 0.000000000000000 7.937500000000000
0 0

0101101
*
Ed
 0.000000100000000 1 1 0
1  1 0 0.000000000000000 7.937500000000000
0

0101000
+58 3 -57 3 *
Ve
0.000000100000000
4.124445985523390 7.143749999999999 0.000000000000000
0 0

0101101
*
Ve
0.000000100000000
4.124445985523390 7.143749999999999 7.937500000000000
0 0

0101101
*
Ed
 0.000000100000000 1 1 0
1  2 0 0.000000000000000 7.937500000000000
0

0101000
+55 3 -54 3 *
Ed
 0.000000100000000 1 1 0
1  3 0 0.000000000000000 8.248891971046776
0

0101000
+58 3 -55 3 *
Ed
 0.000000100000000 1 1 0
1  4 0 0.000000000000000 8.248891971046776
0

0101000
+57 5 -54 5 *
Wi

0101100
+56 0 -53 0 -52 0 +51 4 *
Fa
0  0.000000100000000 1 0

0101000
+50 0 *
Ve
0.000000100000000
4.124445985523390 -7.143749999999999 0.000000000000000
0 0

0101101
*
Ve
0.000000100000000
4.124445985523390 -7.143749999999999 7.937500000000000
0 0

0101101
*
Ed
 0.000000100000000 1 1 0
1  5 0 0.000000000000000 7.937500000000000
0

0101000
+48 3 -47 3 *
Ed
 0.000000100000000 1 1 0
1  6 0 0.000000000000000 8.248891971046776
0

0101000
+48 3 -58 3 *
Ed
 0.000000100000000 1 1 0
1  7 0 0.000000000000000 8.248891971046776
0

0101000
+47 5 -57 5 *
Wi

0101100
+46 0 -56 0 -45 0 +44 4 *
Fa
0  0.000000100000000 2 0

0101000
+43 0 *
Ve
0.000000100000000
-4.124445985523387 7.143750000000000 0.000000000000000
0 0

0101101
*
Ve
0.000000100000000
-4.124445985523387 7.143750000000000 7.937500000000000
0 0

0101101
*
Ed
 0.000000100000000 1 1 0
1  8 0 0.000000000000000 7.937500000000000
0

0101000
+41 3 -40 3 *
Ed
 0.000000100000000 1 1 0
1  9 0 0.000000000000000 8.248891971046778
0

0101000
+55 3 -41 3 *
Ed
 0.000000100000000 1 1 0
1  10 0 0.000000000000000 8.248891971046778
0

0101000
+54 5 -40 5 *
Wi

0101100
+53 0 -39 0 -38 0 +37 4 *
Fa
0  0.000000100000000 3 0

0101000
+36 0 *
Ve
0.000000100000000
-4.124445985523392 -7.143749999999997 0.000000000000000
0 0

0101101
*
Ed
 0.000000100000000 1 1 0
1  11 0 0.000000000000000 8.248891971046781
0

0101000
+34 3 -48 3 *
Ve
0.000000100000000
-8.248891971046778 0.000000000000001 0.000000000000000
0 0

0101101
*
Ed
 0.000000100000000 1 1 0
1  12 0 0.000000000000000 8.248891971046778
0

0101000
+41 3 -32 3 *
Ed
 0.000000100000000 1 1 0
1  13 0 0.000000000000000 8.248891971046774
0

0101000
+32 3 -34 3 *
Wi

0101100
+52 0 +45 0 +38 0 +33 0 +31 0 +30 0 *
Ve
0.000000100000001
4.862500000000000 -0.000000000000001 0.000000000000000
0 0

0101101
*
Ed
 0.000000100000000 1 1 0
1  14 0 0.000000000000000 6.283185307179586
2  1 5 0 0.000000000000000 6.283185307179586
0

0101100
+28 3 -28 3 *
Wi

0101100
-27 0 *
Fa
0  0.000000100000000 4 0

0101000
+29 0 +26 0 *
Ve
0.000000100000000
-4.124445985523392 -7.143749999999997 7.937500000000000
0 0

0101101
*
Ed
 0.000000100000000 1 1 0
1  15 0 0.000000000000000 8.248891971046781
0

0101000
+24 5 -47 5 *
Ve
0.000000100000000
-8.248891971046778 0.000000000000001 7.937500000000000
0 0

0101101
*
Ed
 0.000000100000000 1 1 0
1  16 0 0.000000000000000 8.248891971046778
0

0101000
+40 5 -22 5 *
Ed
 0.000000100000000 1 1 0
1  17 0 0.000000000000000 8.248891971046774
0

0101000
+22 5 -24 5 *
Wi

0101100
+51 4 +44 4 +37 4 +23 4 +21 4 +20 4 *
Ve
0.000000100000001
4.862500000000000 -0.000000000000001 7.937500000000000
0 0

0101101
*
Ed
 0.000000100000000 1 1 0
1  18 0 0.000000000000000 6.283185307179586
2  2 5 0 0.000000000000000 6.283185307179586
0

0101100
+18 3 -18 3 *
Wi

0101100
-17 0 *
Fa
0  0.000000100000000 6 4

0101000
+19 0 +16 0 *
Ed
 0.000000100000000 1 1 0
1  19 0 0.000000000000000 7.937500000000000
0

0101000
+34 3 -24 3 *
Wi

0101100
+14 0 -46 0 -33 0 +23 4 *
Fa
0  0.000000100000000 7 0

0101000
+13 0 *
Ed
 0.000000100000000 1 1 0
1  20 0 0.000000000000000 7.937500000000000
0

0101000
+32 3 -22 3 *
Wi

0101100
+39 0 -11 0 -31 0 +21 4 *
Fa
0  0.000000100000000 8 0

0101000
+10 0 *
Wi

0101100
+11 0 -14 0 -30 0 +20 4 *
Fa
0  0.000000100000000 9 0

0101000
+8 0 *
Ed
 0.000000100000000 1 1 0
1  21 0 1.000000000000000 8.937500000000000
3  3 4CN 5 0 1.000000000000000 8.937500000000000
0

0101000
+28 3 -18 3 *
Wi

0101100
-17 0 +6 0 +27 0 -6 0 *
Fa
0  0.000000100000000 5 0

0101000
+5 0 *
Sh

0101100
-49 0 -42 0 -35 0 -25 0 +15 0 -12 0 -9 0 -7 0 -4 0 *
So

0100000
+3 0 *
Co

1100000
+2 0 *

+1 1 