
CASCADE Topology V1, (c) Matra-Datavision
Locations 25
1
1.000000000000000 0.000000000000000 0.000000000000000 0.000000000000000 
0.000000000000000 1.000000000000000 0.000000000000000 0.000000000000000 
0.000000000000000 0.000000000000000 1.000000000000000 0.000000000000000 
1
1.000000000000000 0.000000000000000 0.000000000000000 0.000000000000000 
0.000000000000000 1.000000000000000 0.000000000000000 0.000000000000000 
0.000000000000000 0.000000000000000 1.000000000000000 0.000000000000000 
1
1.000000000000000 0.000000000000000 0.000000000000000 0.000000000000000 
0.000000000000000 1.000000000000000 0.000000000000000 0.000000000000000 
0.000000000000000 0.000000000000000 1.000000000000000 0.000000000000000 
2  3 -1 2 -1 0
1
1.000000000000000 0.000000000000000 0.000000000000000 0.000000000000000 
0.000000000000000 1.000000000000000 0.000000000000000 0.000000000000000 
0.000000000000000 0.000000000000000 1.000000000000000 0.000000000000000 
2  3 -1 2 -1 5 -1 0
1
0.809016994374947 0.000000000000000 -0.587785252292473 0.000000000000000 
0.000000000000000 1.000000000000000 0.000000000000000 0.000000000000000 
0.587785252292473 0.000000000000000 0.809016994374947 0.000000000000000 
2  3 -1 2 -1 7 -1 0
1
0.309016994374947 0.000000000000000 -0.951056516295154 0.000000000000000 
0.000000000000000 1.000000000000000 0.000000000000000 0.000000000000000 
0.951056516295154 0.000000000000000 0.309016994374947 0.000000000000000 
2  3 -1 2 -1 9 -1 0
1
-0.309016994374947 0.000000000000000 -0.951056516295154 0.000000000000000 
0.000000000000000 1.000000000000000 0.000000000000000 0.000000000000000 
0.951056516295154 0.000000000000000 -0.309016994374947 0.000000000000000 
2  3 -1 2 -1 11 -1 0
1
-0.809016994374947 0.000000000000000 -0.587785252292473 0.000000000000000 
0.000000000000000 1.000000000000000 0.000000000000000 0.000000000000000 
0.587785252292473 0.000000000000000 -0.809016994374947 0.000000000000000 
2  3 -1 2 -1 13 -1 0
1
-1.000000000000000 0.000000000000000 0.000000000000000 0.000000000000000 
0.000000000000000 1.000000000000000 0.000000000000000 0.000000000000000 
-0.000000000000000 0.000000000000000 -1.000000000000000 0.000000000000000 
2  3 -1 2 -1 15 -1 0
1
-0.809016994374947 0.000000000000000 0.587785252292473 0.000000000000000 
0.000000000000000 1.000000000000000 0.000000000000000 0.000000000000000 
-0.587785252292473 0.000000000000000 -0.809016994374947 0.000000000000000 
2  3 -1 2 -1 17 -1 0
1
-0.309016994374947 0.000000000000000 0.951056516295154 0.000000000000000 
0.000000000000000 1.000000000000000 0.000000000000000 0.000000000000000 
-0.951056516295154 0.000000000000000 -0.309016994374947 0.000000000000000 
2  3 -1 2 -1 19 -1 0
1
0.309016994374947 0.000000000000000 0.951056516295154 0.000000000000000 
0.000000000000000 1.000000000000000 0.000000000000000 0.000000000000000 
-0.951056516295154 0.000000000000000 0.309016994374947 0.000000000000000 
2  3 -1 2 -1 21 -1 0
1
0.809016994374947 0.000000000000000 0.587785252292473 0.000000000000000 
0.000000000000000 1.000000000000000 0.000000000000000 0.000000000000000 
-0.587785252292473 0.000000000000000 0.809016994374947 0.000000000000000 
2  3 -1 2 -1 23 -1 0
2  3 -1 0
Curve2ds 64
1 0.00000000000000000 0.00000000000000000 1.00000000000000000 0.00000000000000000 
1 0.00000000000000000 1.00000000000000000 1.00000000000000000 0.00000000000000000 
1 0.00000000000000000 33.54285714285714448 1.00000000000000000 0.00000000000000000 
1 6.28318530717958623 0.00000000000000000 0.00000000000000000 1.00000000000000000 
1 0.00000000000000000 0.00000000000000000 0.00000000000000000 1.00000000000000000 
1 0.12028988239478806 0.00000000000000000 0.00000000000000000 1.00000000000000000 
1 6.16289542478479824 0.00000000000000000 0.00000000000000000 1.00000000000000000 
1 5.77515665885641560 0.00000000000000000 0.00000000000000000 1.00000000000000000 
1 0.00000000000000000 106.22857142857141355 1.00000000000000000 0.00000000000000000 
1 5.53457689406683961 0.00000000000000000 0.00000000000000000 1.00000000000000000 
1 5.14683812813845698 0.00000000000000000 0.00000000000000000 1.00000000000000000 
1 4.90625836334888099 0.00000000000000000 0.00000000000000000 1.00000000000000000 
1 4.51851959742049836 0.00000000000000000 0.00000000000000000 1.00000000000000000 
1 4.27793983263092237 0.00000000000000000 0.00000000000000000 1.00000000000000000 
1 3.89020106670253973 0.00000000000000000 0.00000000000000000 1.00000000000000000 
1 3.64962130191296330 0.00000000000000000 0.00000000000000000 1.00000000000000000 
1 3.26188253598458111 0.00000000000000000 0.00000000000000000 1.00000000000000000 
1 3.02130277119500512 0.00000000000000000 0.00000000000000000 1.00000000000000000 
1 2.63356400526662249 0.00000000000000000 0.00000000000000000 1.00000000000000000 
1 2.39298424047704650 0.00000000000000000 0.00000000000000000 1.00000000000000000 
1 2.00524547454866386 0.00000000000000000 0.00000000000000000 1.00000000000000000 
1 1.76466570975908787 0.00000000000000000 0.00000000000000000 1.00000000000000000 
1 1.37692694383070524 0.00000000000000000 0.00000000000000000 1.00000000000000000 
1 1.13634717904112903 0.00000000000000000 0.00000000000000000 1.00000000000000000 
1 0.74860841311274673 0.00000000000000000 0.00000000000000000 1.00000000000000000 
1 0.50802864832317063 0.00000000000000000 0.00000000000000000 1.00000000000000000 
1 0.00000000000000000 0.00000000000000000 1.00000000000000000 0.00000000000000000 
1 0.00000000000000000 51.68571428571426907 1.00000000000000000 0.00000000000000000 
1 0.00000000000000000 27.43059516343763704 1.00000000000000000 0.00000000000000000 
1 0.00000000000000000 0.00000000000000000 1.00000000000000000 0.00000000000000000 
1 6.28318530717958623 0.00000000000000000 0.00000000000000000 1.00000000000000000 
1 0.00000000000000000 0.00000000000000000 0.00000000000000000 1.00000000000000000 
1 0.00000000000000000 0.00000000000000000 1.00000000000000000 0.00000000000000000 
1 6.28318530717958623 0.00000000000000000 0.00000000000000000 1.00000000000000000 
1 0.00000000000000000 0.00000000000000000 0.00000000000000000 1.00000000000000000 
1 0.00000000000000000 8.00000000000000000 1.00000000000000000 0.00000000000000000 
1 6.28318530717958623 0.00000000000000000 0.00000000000000000 1.00000000000000000 
1 0.00000000000000000 0.00000000000000000 0.00000000000000000 1.00000000000000000 
1 0.00000000000000000 27.43059516343762283 1.00000000000000000 0.00000000000000000 
1 0.00000000000000000 0.00000000000000000 1.00000000000000000 0.00000000000000000 
1 0.00000000000000000 0.00000000000000000 1.00000000000000000 0.00000000000000000 
1 0.00000000000000000 8.00000000000000000 1.00000000000000000 0.00000000000000000 
1 6.28318530717958623 0.00000000000000000 0.00000000000000000 1.00000000000000000 
1 0.00000000000000000 0.00000000000000000 0.00000000000000000 1.00000000000000000 
1 6.28318530717958623 0.00000000000000000 0.00000000000000000 1.00000000000000000 
1 0.00000000000000000 0.00000000000000000 0.00000000000000000 1.00000000000000000 
1 0.00000000000000000 0.50000000000000000 1.00000000000000000 0.00000000000000000 
1 0.00000000000000000 0.00000000000000000 1.00000000000000000 0.00000000000000000 
1 0.00000000000000000 0.00000000000000000 1.00000000000000000 0.00000000000000000 
1 6.28318530717958623 0.00000000000000000 0.00000000000000000 1.00000000000000000 
1 0.00000000000000000 0.00000000000000000 0.00000000000000000 1.00000000000000000 
1 6.28318530717958623 0.00000000000000000 0.00000000000000000 1.00000000000000000 
1 0.00000000000000000 0.00000000000000000 0.00000000000000000 1.00000000000000000 
1 0.00000000000000000 6.28767213826924465 1.00000000000000000 0.00000000000000000 
1 0.00000000000000000 0.00000000000000000 1.00000000000000000 0.00000000000000000 
1 0.00000000000000000 87.08571428571427475 1.00000000000000000 0.00000000000000000 
1 0.00000000000000000 73.85000000000000853 1.00000000000000000 0.00000000000000000 
1 0.00000000000000000 0.00000000000000000 1.00000000000000000 0.00000000000000000 
1 6.28318530717958623 0.00000000000000000 0.00000000000000000 1.00000000000000000 
1 0.00000000000000000 0.00000000000000000 0.00000000000000000 1.00000000000000000 
1 0.00000000000000000 86.58571428571427475 1.00000000000000000 0.00000000000000000 
1 0.00000000000000000 6.28767213826924465 1.00000000000000000 0.00000000000000000 
1 6.28318530717958623 0.00000000000000000 0.00000000000000000 1.00000000000000000 
1 0.00000000000000000 0.00000000000000000 0.00000000000000000 1.00000000000000000 
Curves 147
2 0.00000000000000000 -156.02857142857141071 0.00000000000000000 -0.00000000000000000 1.00000000000000000 0.00000000000000000 1.00000000000000000 0.00000000000000000 0.00000000000000000 0.00000000000000000 0.00000000000000000 -1.00000000000000000 77.00000000000000000
1 6.00000000000000000 -156.02857142857141071 24.00000000000000000 0.00000000000000000 0.00000000000000000 1.00000000000000000 
1 -3.00000000000000000 -156.02857142857141071 54.00000000000000000 -1.00000000000000000 0.00000000000000000 0.00000000000000000 
1 -6.00000000000000000 -156.02857142857141071 24.00000000000000000 0.00000000000000000 0.00000000000000000 1.00000000000000000 
2 0.00000000000000000 -156.02857142857141071 0.00000000000000000 0.00000000000000000 1.00000000000000000 0.00000000000000000 0.00000000000000000 -0.00000000000000000 1.00000000000000000 1.00000000000000000 0.00000000000000000 -0.00000000000000000 50.00000000000000000
1 -9.25274408876967769 -156.02857142857141071 22.94311937875357543 -0.58778525229247336 0.00000000000000000 0.80901699437494734 
1 -34.16745460691841174 -156.02857142857141071 41.92356193936974762 -0.80901699437494734 0.00000000000000000 -0.58778525229247336 
1 -18.96094802126904710 -156.02857142857141071 15.88969635124389335 -0.58778525229247336 0.00000000000000000 0.80901699437494734 
2 0.00000000000000000 -156.02857142857141071 0.00000000000000000 0.00000000000000000 1.00000000000000000 0.00000000000000000 0.00000000000000000 -0.00000000000000000 1.00000000000000000 1.00000000000000000 0.00000000000000000 -0.00000000000000000 50.00000000000000000
1 -20.97125442483400093 -156.02857142857141071 13.12274696276965535 -0.95105651629515364 0.00000000000000000 0.30901699437494723 
1 -52.28410286306313992 -156.02857142857141071 13.83374814736168901 -0.30901699437494723 0.00000000000000000 -0.95105651629515364 
1 -24.67945835733337390 -156.02857142857141071 1.71006876722781165 -0.95105651629515364 0.00000000000000000 0.30901699437494723 
2 0.00000000000000000 -156.02857142857141071 0.00000000000000000 0.00000000000000000 1.00000000000000000 0.00000000000000000 0.00000000000000000 -0.00000000000000000 1.00000000000000000 1.00000000000000000 0.00000000000000000 -0.00000000000000000 50.00000000000000000
1 -24.67945835733337034 -156.02857142857141071 -1.71006876722781609 -0.95105651629515364 0.00000000000000000 -0.30901699437494751 
1 -50.43000089681345344 -156.02857142857141071 -19.54008724513262507 0.30901699437494751 0.00000000000000000 -0.95105651629515364 
1 -20.97125442483399738 -156.02857142857141071 -13.12274696276966068 -0.95105651629515364 0.00000000000000000 -0.30901699437494751 
2 0.00000000000000000 -156.02857142857141071 0.00000000000000000 0.00000000000000000 1.00000000000000000 0.00000000000000000 0.00000000000000000 -0.00000000000000000 1.00000000000000000 1.00000000000000000 0.00000000000000000 -0.00000000000000000 50.00000000000000000
1 -18.96094802126904000 -156.02857142857141071 -15.88969635124389868 -0.58778525229247314 0.00000000000000000 -0.80901699437494756 
1 -29.31335264066870749 -156.02857142857141071 -45.45027345312458777 0.80901699437494756 0.00000000000000000 -0.58778525229247314 
1 -9.25274408876966703 -156.02857142857141071 -22.94311937875357899 -0.58778525229247314 0.00000000000000000 -0.80901699437494756 
2 0.00000000000000000 -156.02857142857141071 0.00000000000000000 0.00000000000000000 1.00000000000000000 0.00000000000000000 0.00000000000000000 -0.00000000000000000 1.00000000000000000 1.00000000000000000 0.00000000000000000 -0.00000000000000000 50.00000000000000000
1 -5.99999999999999645 -156.02857142857141071 -24.00000000000000000 0.00000000000000012 0.00000000000000000 -1.00000000000000000 
1 3.00000000000000622 -156.02857142857141071 -54.00000000000000000 1.00000000000000000 0.00000000000000000 0.00000000000000012 
1 6.00000000000000355 -156.02857142857141071 -24.00000000000000000 0.00000000000000012 0.00000000000000000 -1.00000000000000000 
2 0.00000000000000000 -156.02857142857141071 0.00000000000000000 0.00000000000000000 1.00000000000000000 0.00000000000000000 0.00000000000000000 -0.00000000000000000 1.00000000000000000 1.00000000000000000 0.00000000000000000 -0.00000000000000000 50.00000000000000000
1 9.25274408876966881 -156.02857142857141071 -22.94311937875357899 0.58778525229247325 0.00000000000000000 -0.80901699437494745 
1 34.16745460691840464 -156.02857142857141071 -41.92356193936974762 0.80901699437494745 0.00000000000000000 0.58778525229247325 
1 18.96094802126904355 -156.02857142857141071 -15.88969635124389868 0.58778525229247325 0.00000000000000000 -0.80901699437494745 
2 0.00000000000000000 -156.02857142857141071 0.00000000000000000 0.00000000000000000 1.00000000000000000 0.00000000000000000 0.00000000000000000 -0.00000000000000000 1.00000000000000000 1.00000000000000000 0.00000000000000000 -0.00000000000000000 50.00000000000000000
1 20.97125442483400093 -156.02857142857141071 -13.12274696276966068 0.95105651629515364 0.00000000000000000 -0.30901699437494745 
1 52.28410286306313992 -156.02857142857141071 -13.83374814736170322 0.30901699437494745 0.00000000000000000 0.95105651629515364 
1 24.67945835733337390 -156.02857142857141071 -1.71006876722781609 0.95105651629515364 0.00000000000000000 -0.30901699437494745 
2 0.00000000000000000 -156.02857142857141071 0.00000000000000000 0.00000000000000000 1.00000000000000000 0.00000000000000000 0.00000000000000000 -0.00000000000000000 1.00000000000000000 1.00000000000000000 0.00000000000000000 -0.00000000000000000 50.00000000000000000
1 24.67945835733337034 -156.02857142857141071 1.71006876722781609 0.95105651629515364 0.00000000000000000 0.30901699437494751 
1 50.43000089681345344 -156.02857142857141071 19.54008724513262507 -0.30901699437494751 0.00000000000000000 0.95105651629515364 
1 20.97125442483399738 -156.02857142857141071 13.12274696276966068 0.95105651629515364 0.00000000000000000 0.30901699437494751 
2 0.00000000000000000 -156.02857142857141071 0.00000000000000000 0.00000000000000000 1.00000000000000000 0.00000000000000000 0.00000000000000000 -0.00000000000000000 1.00000000000000000 1.00000000000000000 0.00000000000000000 -0.00000000000000000 50.00000000000000000
1 18.96094802126904000 -156.02857142857141071 15.88969635124389868 0.58778525229247314 0.00000000000000000 0.80901699437494745 
1 29.31335264066871105 -156.02857142857141071 45.45027345312458067 -0.80901699437494745 0.00000000000000000 0.58778525229247314 
1 9.25274408876967058 -156.02857142857141071 22.94311937875357899 0.58778525229247314 0.00000000000000000 0.80901699437494745 
2 0.00000000000000000 -156.02857142857141071 0.00000000000000000 0.00000000000000000 1.00000000000000000 0.00000000000000000 0.00000000000000000 -0.00000000000000000 1.00000000000000000 1.00000000000000000 0.00000000000000000 -0.00000000000000000 50.00000000000000000
2 0.00000000000000000 -122.48571428571426623 0.00000000000000000 -0.00000000000000000 1.00000000000000000 0.00000000000000000 1.00000000000000000 0.00000000000000000 0.00000000000000000 0.00000000000000000 0.00000000000000000 -1.00000000000000000 77.00000000000000000
1 77.00000000000000000 -156.02857142857141071 0.00000000000000000 0.00000000000000000 1.00000000000000000 0.00000000000000000 
1 6.00000000000000000 -157.02857142857141071 54.00000000000000000 0.00000000000000000 1.00000000000000000 0.00000000000000000 
1 6.00000000000000000 -50.79999999999999716 24.00000000000000000 0.00000000000000000 0.00000000000000000 -1.00000000000000000 
1 6.00000000000000000 -157.02857142857141071 49.63869458396342793 0.00000000000000000 1.00000000000000000 0.00000000000000000 
1 -6.00000000000000000 -157.02857142857141071 54.00000000000000000 0.00000000000000000 1.00000000000000000 0.00000000000000000 
1 -3.00000000000000000 -50.79999999999999716 54.00000000000000000 1.00000000000000000 0.00000000000000000 0.00000000000000000 
1 -6.00000000000000000 -50.79999999999999716 24.00000000000000000 0.00000000000000000 0.00000000000000000 -1.00000000000000000 
1 -6.00000000000000000 -157.02857142857141071 49.63869458396342793 0.00000000000000000 1.00000000000000000 0.00000000000000000 
1 -24.32279065325429102 -157.02857142857141071 43.68525901076890960 0.00000000000000000 1.00000000000000000 0.00000000000000000 
2 0.00000000000000000 -50.79999999999999716 0.00000000000000000 0.00000000000000000 1.00000000000000000 0.00000000000000000 0.00000000000000000 -0.00000000000000000 1.00000000000000000 1.00000000000000000 0.00000000000000000 -0.00000000000000000 50.00000000000000000
1 6.00000000000000355 -157.02857142857141071 54.00000000000002842 0.00000000000000000 1.00000000000000000 0.00000000000000000 
1 -9.25274408876967769 -50.79999999999998295 22.94311937875357543 0.58778525229247336 0.00000000000000000 -0.80901699437494734 
1 -6.00000000000000355 -157.02857142857141071 54.00000000000002842 0.00000000000000000 1.00000000000000000 0.00000000000000000 
1 -34.16745460691841174 -50.79999999999998295 41.92356193936974762 0.80901699437494734 0.00000000000000000 0.58778525229247336 
1 -18.96094802126904710 -50.79999999999998295 15.88969635124389335 0.58778525229247336 0.00000000000000000 -0.80901699437494734 
1 -34.03099458575366043 -157.02857142857141071 36.63183598325922929 0.00000000000000000 1.00000000000000000 0.00000000000000000 
1 -45.35510197821368195 -157.02857142857141071 21.04553930280327023 0.00000000000000000 1.00000000000000000 0.00000000000000000 
2 0.00000000000000000 -50.79999999999999716 0.00000000000000000 0.00000000000000000 1.00000000000000000 0.00000000000000000 0.00000000000000000 -0.00000000000000000 1.00000000000000000 1.00000000000000000 0.00000000000000000 -0.00000000000000000 50.00000000000000000
1 6.00000000000000000 -157.02857142857141071 54.00000000000000000 0.00000000000000000 1.00000000000000000 0.00000000000000000 
1 -20.97125442483400093 -50.79999999999999716 13.12274696276965535 0.95105651629515364 0.00000000000000000 -0.30901699437494723 
1 -6.00000000000000000 -157.02857142857141071 54.00000000000000000 0.00000000000000000 1.00000000000000000 0.00000000000000000 
1 -52.28410286306313992 -50.79999999999999716 13.83374814736168901 0.30901699437494723 0.00000000000000000 0.95105651629515364 
1 -24.67945835733337390 -50.79999999999999716 1.71006876722781165 0.95105651629515364 0.00000000000000000 -0.30901699437494723 
1 -49.06330591071305491 -157.02857142857141071 9.63286110726142830 0.00000000000000000 1.00000000000000000 0.00000000000000000 
1 -49.06330591071305491 -157.02857142857141071 -9.63286110726144074 0.00000000000000000 1.00000000000000000 0.00000000000000000 
2 0.00000000000000000 -50.79999999999999716 0.00000000000000000 0.00000000000000000 1.00000000000000000 0.00000000000000000 0.00000000000000000 -0.00000000000000000 1.00000000000000000 1.00000000000000000 0.00000000000000000 -0.00000000000000000 50.00000000000000000
1 5.99999999999999911 -157.02857142857141071 53.99999999999999289 0.00000000000000000 1.00000000000000000 0.00000000000000000 
1 -24.67945835733337034 -50.79999999999998295 -1.71006876722781609 0.95105651629515364 0.00000000000000000 0.30901699437494751 
1 -5.99999999999999911 -157.02857142857141071 53.99999999999999289 0.00000000000000000 1.00000000000000000 0.00000000000000000 
1 -50.43000089681345344 -50.79999999999998295 -19.54008724513262507 -0.30901699437494751 0.00000000000000000 0.95105651629515364 
1 -20.97125442483399738 -50.79999999999998295 -13.12274696276966068 0.95105651629515364 0.00000000000000000 0.30901699437494751 
1 -45.35510197821368195 -157.02857142857141071 -21.04553930280328800 0.00000000000000000 1.00000000000000000 0.00000000000000000 
1 -34.03099458575365333 -157.02857142857141071 -36.63183598325924351 0.00000000000000000 1.00000000000000000 0.00000000000000000 
2 0.00000000000000000 -50.79999999999999716 0.00000000000000000 0.00000000000000000 1.00000000000000000 0.00000000000000000 0.00000000000000000 -0.00000000000000000 1.00000000000000000 1.00000000000000000 0.00000000000000000 -0.00000000000000000 50.00000000000000000
1 6.00000000000000000 -157.02857142857141071 54.00000000000000711 0.00000000000000000 1.00000000000000000 0.00000000000000000 
1 -18.96094802126904000 -50.79999999999998295 -15.88969635124389868 0.58778525229247314 0.00000000000000000 0.80901699437494756 
1 -6.00000000000000000 -157.02857142857141071 54.00000000000000711 0.00000000000000000 1.00000000000000000 0.00000000000000000 
1 -29.31335264066870749 -50.79999999999998295 -45.45027345312458777 -0.80901699437494756 0.00000000000000000 0.58778525229247314 
1 -9.25274408876966703 -50.79999999999998295 -22.94311937875357899 0.58778525229247314 0.00000000000000000 0.80901699437494756 
1 -24.32279065325427680 -157.02857142857141071 -43.68525901076892382 0.00000000000000000 1.00000000000000000 0.00000000000000000 
1 -5.99999999999999378 -157.02857142857141071 -49.63869458396342793 0.00000000000000000 1.00000000000000000 0.00000000000000000 
2 0.00000000000000000 -50.79999999999999716 0.00000000000000000 0.00000000000000000 1.00000000000000000 0.00000000000000000 0.00000000000000000 -0.00000000000000000 1.00000000000000000 1.00000000000000000 0.00000000000000000 -0.00000000000000000 50.00000000000000000
1 6.00000000000000000 -157.02857142857141071 54.00000000000000000 0.00000000000000000 1.00000000000000000 0.00000000000000000 
1 -5.99999999999999645 -50.79999999999999716 -24.00000000000000000 -0.00000000000000012 0.00000000000000000 1.00000000000000000 
1 -6.00000000000000000 -157.02857142857141071 54.00000000000000000 0.00000000000000000 1.00000000000000000 0.00000000000000000 
1 3.00000000000000622 -50.79999999999999716 -54.00000000000000000 -1.00000000000000000 0.00000000000000000 -0.00000000000000012 
1 6.00000000000000355 -50.79999999999999716 -24.00000000000000000 -0.00000000000000012 0.00000000000000000 1.00000000000000000 
1 6.00000000000000622 -157.02857142857141071 -49.63869458396342793 0.00000000000000000 1.00000000000000000 0.00000000000000000 
2 0.00000000000000000 -50.79999999999999716 0.00000000000000000 0.00000000000000000 1.00000000000000000 0.00000000000000000 0.00000000000000000 -0.00000000000000000 1.00000000000000000 1.00000000000000000 0.00000000000000000 -0.00000000000000000 50.00000000000000000
1 24.32279065325428036 -157.02857142857141071 -43.68525901076891671 0.00000000000000000 1.00000000000000000 0.00000000000000000 
1 6.00000000000000355 -157.02857142857141071 54.00000000000002842 0.00000000000000000 1.00000000000000000 0.00000000000000000 
1 9.25274408876966881 -50.79999999999998295 -22.94311937875357899 -0.58778525229247325 0.00000000000000000 0.80901699437494745 
1 -6.00000000000000355 -157.02857142857141071 54.00000000000002842 0.00000000000000000 1.00000000000000000 0.00000000000000000 
1 34.16745460691840464 -50.79999999999998295 -41.92356193936974762 -0.80901699437494745 0.00000000000000000 -0.58778525229247325 
1 18.96094802126904355 -50.79999999999998295 -15.88969635124389868 -0.58778525229247325 0.00000000000000000 0.80901699437494745 
1 34.03099458575366043 -157.02857142857141071 -36.63183598325923640 0.00000000000000000 1.00000000000000000 0.00000000000000000 
2 0.00000000000000000 -50.79999999999999716 0.00000000000000000 0.00000000000000000 1.00000000000000000 0.00000000000000000 0.00000000000000000 -0.00000000000000000 1.00000000000000000 1.00000000000000000 0.00000000000000000 -0.00000000000000000 50.00000000000000000
1 45.35510197821368195 -157.02857142857141071 -21.04553930280328444 0.00000000000000000 1.00000000000000000 0.00000000000000000 
1 6.00000000000000178 -157.02857142857141071 54.00000000000001421 0.00000000000000000 1.00000000000000000 0.00000000000000000 
1 20.97125442483400093 -50.79999999999998295 -13.12274696276966068 -0.95105651629515364 0.00000000000000000 0.30901699437494745 
1 -6.00000000000000178 -157.02857142857141071 54.00000000000001421 0.00000000000000000 1.00000000000000000 0.00000000000000000 
1 52.28410286306313992 -50.79999999999998295 -13.83374814736170322 -0.30901699437494745 0.00000000000000000 -0.95105651629515364 
1 24.67945835733337390 -50.79999999999998295 -1.71006876722781609 -0.95105651629515364 0.00000000000000000 0.30901699437494745 
1 49.06330591071305491 -157.02857142857141071 -9.63286110726143718 0.00000000000000000 1.00000000000000000 0.00000000000000000 
2 0.00000000000000000 -50.79999999999999716 0.00000000000000000 0.00000000000000000 1.00000000000000000 0.00000000000000000 0.00000000000000000 -0.00000000000000000 1.00000000000000000 1.00000000000000000 0.00000000000000000 -0.00000000000000000 50.00000000000000000
1 49.06330591071305491 -157.02857142857141071 9.63286110726144074 0.00000000000000000 1.00000000000000000 0.00000000000000000 
1 5.99999999999999911 -157.02857142857141071 53.99999999999999289 0.00000000000000000 1.00000000000000000 0.00000000000000000 
1 24.67945835733337034 -50.79999999999998295 1.71006876722781609 -0.95105651629515364 0.00000000000000000 -0.30901699437494751 
1 -5.99999999999999911 -157.02857142857141071 53.99999999999999289 0.00000000000000000 1.00000000000000000 0.00000000000000000 
1 50.43000089681345344 -50.79999999999998295 19.54008724513262507 0.30901699437494751 0.00000000000000000 -0.95105651629515364 
1 20.97125442483399738 -50.79999999999998295 13.12274696276966068 -0.95105651629515364 0.00000000000000000 -0.30901699437494751 
1 45.35510197821368195 -157.02857142857141071 21.04553930280328800 0.00000000000000000 1.00000000000000000 0.00000000000000000 
2 0.00000000000000000 -50.79999999999999716 0.00000000000000000 0.00000000000000000 1.00000000000000000 0.00000000000000000 0.00000000000000000 -0.00000000000000000 1.00000000000000000 1.00000000000000000 0.00000000000000000 -0.00000000000000000 50.00000000000000000
1 34.03099458575364622 -157.02857142857141071 36.63183598325923640 0.00000000000000000 1.00000000000000000 0.00000000000000000 
1 6.00000000000000178 -157.02857142857141071 54.00000000000001421 0.00000000000000000 1.00000000000000000 0.00000000000000000 
1 18.96094802126904000 -50.79999999999999716 15.88969635124389868 -0.58778525229247314 0.00000000000000000 -0.80901699437494745 
1 -6.00000000000000178 -157.02857142857141071 54.00000000000001421 0.00000000000000000 1.00000000000000000 0.00000000000000000 
1 29.31335264066871105 -50.79999999999999716 45.45027345312458067 0.80901699437494745 0.00000000000000000 -0.58778525229247314 
1 9.25274408876967058 -50.79999999999999716 22.94311937875357899 -0.58778525229247314 0.00000000000000000 -0.80901699437494745 
1 24.32279065325428036 -157.02857142857141071 43.68525901076891671 0.00000000000000000 1.00000000000000000 0.00000000000000000 
2 0.00000000000000000 -50.79999999999999716 0.00000000000000000 0.00000000000000000 1.00000000000000000 0.00000000000000000 0.00000000000000000 -0.00000000000000000 1.00000000000000000 1.00000000000000000 0.00000000000000000 -0.00000000000000000 50.00000000000000000
2 0.00000000000000000 -122.48571428571426623 0.00000000000000000 -0.00000000000000000 1.00000000000000000 0.00000000000000000 1.00000000000000000 0.00000000000000000 0.00000000000000000 0.00000000000000000 0.00000000000000000 -1.00000000000000000 280.34857142857140389
2 0.00000000000000000 -50.79999999999999716 0.00000000000000000 -0.00000000000000000 1.00000000000000000 0.00000000000000000 1.00000000000000000 0.00000000000000000 0.00000000000000000 0.00000000000000000 0.00000000000000000 -1.00000000000000000 77.00000000000000000
2 0.00000000000000000 -148.02857142857141071 0.00000000000000000 -0.00000000000000000 1.00000000000000000 0.00000000000000000 1.00000000000000000 0.00000000000000000 0.00000000000000000 0.00000000000000000 0.00000000000000000 -1.00000000000000000 290.34857142857140389
1 280.34857142857140389 -122.48571428571426623 0.00000000000000000 0.36455643563027923 -0.93118129558134177 0.00000000000000000 
2 0.00000000000000000 -102.48571428571426623 0.00000000000000000 -0.00000000000000000 1.00000000000000000 0.00000000000000000 1.00000000000000000 0.00000000000000000 0.00000000000000000 0.00000000000000000 0.00000000000000000 -1.00000000000000000 77.00000000000000000
1 77.00000000000000000 -102.48571428571426623 0.00000000000000000 0.00000000000000000 1.00000000000000000 0.00000000000000000 
2 0.00000000000000000 -156.02857142857141071 0.00000000000000000 -0.00000000000000000 1.00000000000000000 0.00000000000000000 1.00000000000000000 0.00000000000000000 0.00000000000000000 0.00000000000000000 0.00000000000000000 -1.00000000000000000 290.34857142857140389
1 290.34857142857140389 -148.02857142857141071 0.00000000000000000 0.00000000000000000 -1.00000000000000000 0.00000000000000000 
2 0.00000000000000000 -102.48571428571426623 0.00000000000000000 -0.00000000000000000 1.00000000000000000 0.00000000000000000 1.00000000000000000 0.00000000000000000 0.00000000000000000 0.00000000000000000 0.00000000000000000 -1.00000000000000000 280.34857142857140389
2 0.00000000000000000 -156.02857142857141071 0.00000000000000000 -0.00000000000000000 1.00000000000000000 0.00000000000000000 1.00000000000000000 0.00000000000000000 0.00000000000000000 0.00000000000000000 0.00000000000000000 -1.00000000000000000 303.34857142857140389
2 0.00000000000000000 -76.94285714285713595 0.00000000000000000 -0.00000000000000000 1.00000000000000000 0.00000000000000000 1.00000000000000000 0.00000000000000000 0.00000000000000000 0.00000000000000000 0.00000000000000000 -1.00000000000000000 290.34857142857140389
1 290.34857142857140389 -76.94285714285713595 0.00000000000000000 -0.36455643563027934 -0.93118129558134166 0.00000000000000000 
1 303.34857142857140389 -156.02857142857141071 0.00000000000000000 0.00000000000000000 1.00000000000000000 0.00000000000000000 
2 0.00000000000000000 -155.52857142857141071 0.00000000000000000 -0.00000000000000000 1.00000000000000000 0.00000000000000000 1.00000000000000000 0.00000000000000000 0.00000000000000000 0.00000000000000000 0.00000000000000000 -1.00000000000000000 303.34857142857140389
2 0.00000000000000000 -68.94285714285713595 0.00000000000000000 -0.00000000000000000 1.00000000000000000 0.00000000000000000 1.00000000000000000 0.00000000000000000 0.00000000000000000 0.00000000000000000 0.00000000000000000 -1.00000000000000000 290.34857142857140389
1 290.34857142857140389 -68.94285714285713595 0.00000000000000000 0.00000000000000000 -1.00000000000000000 0.00000000000000000 
1 303.34857142857140389 -155.52857142857141071 0.00000000000000000 0.23083719053902998 0.97299239023953710 0.00000000000000000 
2 0.00000000000000000 -149.41071428571427759 0.00000000000000000 -0.00000000000000000 1.00000000000000000 0.00000000000000000 1.00000000000000000 0.00000000000000000 0.00000000000000000 0.00000000000000000 0.00000000000000000 -1.00000000000000000 304.80000000000001137
2 0.00000000000000000 -68.94285714285713595 0.00000000000000000 -0.00000000000000000 1.00000000000000000 0.00000000000000000 1.00000000000000000 0.00000000000000000 0.00000000000000000 0.00000000000000000 0.00000000000000000 -1.00000000000000000 303.34857142857140389
2 0.00000000000000000 -75.56071428571426907 0.00000000000000000 -0.00000000000000000 1.00000000000000000 0.00000000000000000 1.00000000000000000 0.00000000000000000 0.00000000000000000 0.00000000000000000 0.00000000000000000 -1.00000000000000000 304.80000000000001137
1 304.80000000000001137 -149.41071428571427759 0.00000000000000000 0.00000000000000000 1.00000000000000000 0.00000000000000000 
2 0.00000000000000000 -69.44285714285713595 0.00000000000000000 -0.00000000000000000 1.00000000000000000 0.00000000000000000 1.00000000000000000 0.00000000000000000 0.00000000000000000 0.00000000000000000 0.00000000000000000 -1.00000000000000000 303.34857142857140389
1 303.34857142857140389 -156.02857142857141071 0.00000000000000000 0.00000000000000000 1.00000000000000000 0.00000000000000000 
1 304.80000000000001137 -75.56071428571426907 0.00000000000000000 -0.23083719053902998 0.97299239023953710 0.00000000000000000 
Polygon3D 0
PolygonOnTriangulations 0
Surfaces 57
1 0.00000000000000000 -156.02857142857141071 0.00000000000000000 0.00000000000000000 1.00000000000000000 0.00000000000000000 -1.00000000000000000 0.00000000000000000 0.00000000000000000 -0.00000000000000000 0.00000000000000000 -1.00000000000000000 
2 0.00000000000000000 -156.02857142857141071 0.00000000000000000 0.00000000000000000 1.00000000000000000 0.00000000000000000 1.00000000000000000 0.00000000000000000 0.00000000000000000 0.00000000000000000 0.00000000000000000 -1.00000000000000000 77.00000000000000000
2 0.00000000000000000 -157.02857142857141071 0.00000000000000000 0.00000000000000000 1.00000000000000000 0.00000000000000000 0.00000000000000000 -0.00000000000000000 1.00000000000000000 1.00000000000000000 0.00000000000000000 -0.00000000000000000 50.00000000000000000
2 0.00000000000000000 -157.02857142857141071 0.00000000000000000 0.00000000000000000 1.00000000000000000 0.00000000000000000 0.00000000000000000 -0.00000000000000000 1.00000000000000000 1.00000000000000000 0.00000000000000000 -0.00000000000000000 50.00000000000000000
2 0.00000000000000000 -157.02857142857141071 0.00000000000000000 0.00000000000000000 1.00000000000000000 0.00000000000000000 0.00000000000000000 -0.00000000000000000 1.00000000000000000 1.00000000000000000 0.00000000000000000 -0.00000000000000000 50.00000000000000000
2 0.00000000000000000 -157.02857142857141071 0.00000000000000000 0.00000000000000000 1.00000000000000000 0.00000000000000000 0.00000000000000000 -0.00000000000000000 1.00000000000000000 1.00000000000000000 0.00000000000000000 -0.00000000000000000 50.00000000000000000
2 0.00000000000000000 -157.02857142857141071 0.00000000000000000 0.00000000000000000 1.00000000000000000 0.00000000000000000 0.00000000000000000 -0.00000000000000000 1.00000000000000000 1.00000000000000000 0.00000000000000000 -0.00000000000000000 50.00000000000000000
2 0.00000000000000000 -157.02857142857141071 0.00000000000000000 0.00000000000000000 1.00000000000000000 0.00000000000000000 0.00000000000000000 -0.00000000000000000 1.00000000000000000 1.00000000000000000 0.00000000000000000 -0.00000000000000000 50.00000000000000000
2 0.00000000000000000 -157.02857142857141071 0.00000000000000000 0.00000000000000000 1.00000000000000000 0.00000000000000000 0.00000000000000000 -0.00000000000000000 1.00000000000000000 1.00000000000000000 0.00000000000000000 -0.00000000000000000 50.00000000000000000
2 0.00000000000000000 -157.02857142857141071 0.00000000000000000 0.00000000000000000 1.00000000000000000 0.00000000000000000 0.00000000000000000 -0.00000000000000000 1.00000000000000000 1.00000000000000000 0.00000000000000000 -0.00000000000000000 50.00000000000000000
2 0.00000000000000000 -157.02857142857141071 0.00000000000000000 0.00000000000000000 1.00000000000000000 0.00000000000000000 0.00000000000000000 -0.00000000000000000 1.00000000000000000 1.00000000000000000 0.00000000000000000 -0.00000000000000000 50.00000000000000000
2 0.00000000000000000 -157.02857142857141071 0.00000000000000000 0.00000000000000000 1.00000000000000000 0.00000000000000000 0.00000000000000000 -0.00000000000000000 1.00000000000000000 1.00000000000000000 0.00000000000000000 -0.00000000000000000 50.00000000000000000
1 6.00000000000000000 -157.02857142857141071 48.00000000000000000 1.00000000000000000 0.00000000000000000 0.00000000000000000 0.00000000000000000 0.00000000000000000 1.00000000000000000 0.00000000000000000 -1.00000000000000000 0.00000000000000000 
1 -6.00000000000000000 -157.02857142857141071 54.00000000000000000 0.00000000000000000 0.00000000000000000 1.00000000000000000 1.00000000000000000 0.00000000000000000 -0.00000000000000000 -0.00000000000000000 1.00000000000000000 0.00000000000000000 
1 -6.00000000000000000 -157.02857142857141071 48.00000000000000000 1.00000000000000000 0.00000000000000000 0.00000000000000000 0.00000000000000000 0.00000000000000000 1.00000000000000000 0.00000000000000000 -1.00000000000000000 0.00000000000000000 
1 6.00000000000000355 -157.02857142857141071 48.00000000000002842 1.00000000000000000 0.00000000000000000 0.00000000000000000 0.00000000000000000 0.00000000000000000 1.00000000000000000 0.00000000000000000 -1.00000000000000000 0.00000000000000000 
1 -6.00000000000000355 -157.02857142857141071 54.00000000000002842 0.00000000000000000 0.00000000000000000 1.00000000000000000 1.00000000000000000 0.00000000000000000 -0.00000000000000000 -0.00000000000000000 1.00000000000000000 0.00000000000000000 
1 -6.00000000000000355 -157.02857142857141071 48.00000000000002842 1.00000000000000000 0.00000000000000000 0.00000000000000000 0.00000000000000000 0.00000000000000000 1.00000000000000000 0.00000000000000000 -1.00000000000000000 0.00000000000000000 
1 6.00000000000000000 -157.02857142857141071 48.00000000000000000 1.00000000000000000 0.00000000000000000 0.00000000000000000 0.00000000000000000 0.00000000000000000 1.00000000000000000 0.00000000000000000 -1.00000000000000000 0.00000000000000000 
1 -6.00000000000000000 -157.02857142857141071 54.00000000000000000 0.00000000000000000 0.00000000000000000 1.00000000000000000 1.00000000000000000 0.00000000000000000 -0.00000000000000000 -0.00000000000000000 1.00000000000000000 0.00000000000000000 
1 -6.00000000000000000 -157.02857142857141071 48.00000000000000000 1.00000000000000000 0.00000000000000000 0.00000000000000000 0.00000000000000000 0.00000000000000000 1.00000000000000000 0.00000000000000000 -1.00000000000000000 0.00000000000000000 
1 5.99999999999999911 -157.02857142857141071 47.99999999999999289 1.00000000000000000 0.00000000000000000 0.00000000000000000 0.00000000000000000 0.00000000000000000 1.00000000000000000 0.00000000000000000 -1.00000000000000000 0.00000000000000000 
1 -5.99999999999999911 -157.02857142857141071 53.99999999999999289 0.00000000000000000 0.00000000000000000 1.00000000000000000 1.00000000000000000 0.00000000000000000 -0.00000000000000000 -0.00000000000000000 1.00000000000000000 0.00000000000000000 
1 -5.99999999999999911 -157.02857142857141071 47.99999999999999289 1.00000000000000000 0.00000000000000000 0.00000000000000000 0.00000000000000000 0.00000000000000000 1.00000000000000000 0.00000000000000000 -1.00000000000000000 0.00000000000000000 
1 6.00000000000000000 -157.02857142857141071 48.00000000000000000 1.00000000000000000 0.00000000000000000 0.00000000000000000 0.00000000000000000 0.00000000000000000 1.00000000000000000 0.00000000000000000 -1.00000000000000000 0.00000000000000000 
1 -6.00000000000000000 -157.02857142857141071 54.00000000000000711 0.00000000000000000 0.00000000000000000 1.00000000000000000 1.00000000000000000 0.00000000000000000 -0.00000000000000000 -0.00000000000000000 1.00000000000000000 0.00000000000000000 
1 -6.00000000000000000 -157.02857142857141071 48.00000000000000000 1.00000000000000000 0.00000000000000000 0.00000000000000000 0.00000000000000000 0.00000000000000000 1.00000000000000000 0.00000000000000000 -1.00000000000000000 0.00000000000000000 
1 6.00000000000000000 -157.02857142857141071 48.00000000000000000 1.00000000000000000 0.00000000000000000 0.00000000000000000 0.00000000000000000 0.00000000000000000 1.00000000000000000 0.00000000000000000 -1.00000000000000000 0.00000000000000000 
1 -6.00000000000000000 -157.02857142857141071 54.00000000000000000 0.00000000000000000 0.00000000000000000 1.00000000000000000 1.00000000000000000 0.00000000000000000 -0.00000000000000000 -0.00000000000000000 1.00000000000000000 0.00000000000000000 
1 -6.00000000000000000 -157.02857142857141071 48.00000000000000000 1.00000000000000000 0.00000000000000000 0.00000000000000000 0.00000000000000000 0.00000000000000000 1.00000000000000000 0.00000000000000000 -1.00000000000000000 0.00000000000000000 
1 6.00000000000000355 -157.02857142857141071 48.00000000000002842 1.00000000000000000 0.00000000000000000 0.00000000000000000 0.00000000000000000 0.00000000000000000 1.00000000000000000 0.00000000000000000 -1.00000000000000000 0.00000000000000000 
1 -6.00000000000000355 -157.02857142857141071 54.00000000000002842 0.00000000000000000 0.00000000000000000 1.00000000000000000 1.00000000000000000 0.00000000000000000 -0.00000000000000000 -0.00000000000000000 1.00000000000000000 0.00000000000000000 
1 -6.00000000000000355 -157.02857142857141071 48.00000000000002842 1.00000000000000000 0.00000000000000000 0.00000000000000000 0.00000000000000000 0.00000000000000000 1.00000000000000000 0.00000000000000000 -1.00000000000000000 0.00000000000000000 
1 6.00000000000000178 -157.02857142857141071 48.00000000000001421 1.00000000000000000 0.00000000000000000 0.00000000000000000 0.00000000000000000 0.00000000000000000 1.00000000000000000 0.00000000000000000 -1.00000000000000000 0.00000000000000000 
1 -6.00000000000000178 -157.02857142857141071 54.00000000000001421 0.00000000000000000 0.00000000000000000 1.00000000000000000 1.00000000000000000 0.00000000000000000 -0.00000000000000000 -0.00000000000000000 1.00000000000000000 0.00000000000000000 
1 -6.00000000000000178 -157.02857142857141071 48.00000000000001421 1.00000000000000000 0.00000000000000000 0.00000000000000000 0.00000000000000000 0.00000000000000000 1.00000000000000000 0.00000000000000000 -1.00000000000000000 0.00000000000000000 
1 5.99999999999999911 -157.02857142857141071 47.99999999999999289 1.00000000000000000 0.00000000000000000 0.00000000000000000 0.00000000000000000 0.00000000000000000 1.00000000000000000 0.00000000000000000 -1.00000000000000000 0.00000000000000000 
1 -5.99999999999999911 -157.02857142857141071 53.99999999999999289 0.00000000000000000 0.00000000000000000 1.00000000000000000 1.00000000000000000 0.00000000000000000 -0.00000000000000000 -0.00000000000000000 1.00000000000000000 0.00000000000000000 
1 -5.99999999999999911 -157.02857142857141071 47.99999999999999289 1.00000000000000000 0.00000000000000000 0.00000000000000000 0.00000000000000000 0.00000000000000000 1.00000000000000000 0.00000000000000000 -1.00000000000000000 0.00000000000000000 
1 6.00000000000000178 -157.02857142857141071 48.00000000000001421 1.00000000000000000 0.00000000000000000 0.00000000000000000 0.00000000000000000 0.00000000000000000 1.00000000000000000 0.00000000000000000 -1.00000000000000000 0.00000000000000000 
1 -6.00000000000000178 -157.02857142857141071 54.00000000000001421 0.00000000000000000 0.00000000000000000 1.00000000000000000 1.00000000000000000 0.00000000000000000 -0.00000000000000000 -0.00000000000000000 1.00000000000000000 0.00000000000000000 
1 -6.00000000000000178 -157.02857142857141071 48.00000000000001421 1.00000000000000000 0.00000000000000000 0.00000000000000000 0.00000000000000000 0.00000000000000000 1.00000000000000000 0.00000000000000000 -1.00000000000000000 0.00000000000000000 
1 0.00000000000000000 -122.48571428571426623 0.00000000000000000 0.00000000000000000 1.00000000000000000 0.00000000000000000 -1.00000000000000000 0.00000000000000000 0.00000000000000000 -0.00000000000000000 0.00000000000000000 -1.00000000000000000 
3 0.00000000000000000 -122.48571428571426623 0.00000000000000000 -0.00000000000000000 -1.00000000000000000 -0.00000000000000000 1.00000000000000000 -0.00000000000000000 0.00000000000000000 0.00000000000000000 -0.00000000000000000 -1.00000000000000000 280.34857142857140389
0.37315641275662548
1 0.00000000000000000 -50.79999999999999716 0.00000000000000000 0.00000000000000000 1.00000000000000000 0.00000000000000000 1.00000000000000000 0.00000000000000000 0.00000000000000000 0.00000000000000000 0.00000000000000000 -1.00000000000000000 
2 0.00000000000000000 -102.48571428571426623 0.00000000000000000 0.00000000000000000 1.00000000000000000 0.00000000000000000 1.00000000000000000 0.00000000000000000 0.00000000000000000 0.00000000000000000 0.00000000000000000 -1.00000000000000000 77.00000000000000000
2 0.00000000000000000 -148.02857142857141071 0.00000000000000000 -0.00000000000000000 -1.00000000000000000 -0.00000000000000000 1.00000000000000000 -0.00000000000000000 0.00000000000000000 0.00000000000000000 -0.00000000000000000 -1.00000000000000000 290.34857142857140389
1 0.00000000000000000 -102.48571428571426623 0.00000000000000000 0.00000000000000000 1.00000000000000000 0.00000000000000000 1.00000000000000000 0.00000000000000000 0.00000000000000000 0.00000000000000000 0.00000000000000000 -1.00000000000000000 
3 0.00000000000000000 -76.94285714285713595 0.00000000000000000 -0.00000000000000000 -1.00000000000000000 -0.00000000000000000 1.00000000000000000 -0.00000000000000000 0.00000000000000000 0.00000000000000000 -0.00000000000000000 -1.00000000000000000 290.34857142857140389
-0.37315641275662570
1 0.00000000000000000 -156.02857142857141071 0.00000000000000000 0.00000000000000000 1.00000000000000000 0.00000000000000000 -1.00000000000000000 0.00000000000000000 0.00000000000000000 -0.00000000000000000 0.00000000000000000 -1.00000000000000000 
2 0.00000000000000000 -156.02857142857141071 0.00000000000000000 0.00000000000000000 1.00000000000000000 0.00000000000000000 1.00000000000000000 0.00000000000000000 0.00000000000000000 0.00000000000000000 0.00000000000000000 -1.00000000000000000 303.34857142857140389
2 0.00000000000000000 -68.94285714285713595 0.00000000000000000 -0.00000000000000000 -1.00000000000000000 -0.00000000000000000 1.00000000000000000 -0.00000000000000000 0.00000000000000000 0.00000000000000000 -0.00000000000000000 -1.00000000000000000 290.34857142857140389
3 0.00000000000000000 -155.52857142857141071 0.00000000000000000 0.00000000000000000 1.00000000000000000 0.00000000000000000 1.00000000000000000 0.00000000000000000 0.00000000000000000 0.00000000000000000 0.00000000000000000 -1.00000000000000000 303.34857142857140389
0.23293802382674014
2 0.00000000000000000 -149.41071428571427759 0.00000000000000000 0.00000000000000000 1.00000000000000000 0.00000000000000000 1.00000000000000000 0.00000000000000000 0.00000000000000000 0.00000000000000000 0.00000000000000000 -1.00000000000000000 304.80000000000001137
1 0.00000000000000000 -68.94285714285713595 0.00000000000000000 0.00000000000000000 1.00000000000000000 0.00000000000000000 1.00000000000000000 0.00000000000000000 0.00000000000000000 0.00000000000000000 0.00000000000000000 -1.00000000000000000 
2 0.00000000000000000 -156.02857142857141071 0.00000000000000000 0.00000000000000000 1.00000000000000000 0.00000000000000000 1.00000000000000000 0.00000000000000000 0.00000000000000000 0.00000000000000000 0.00000000000000000 -1.00000000000000000 303.34857142857140389
3 0.00000000000000000 -75.56071428571426907 0.00000000000000000 0.00000000000000000 1.00000000000000000 0.00000000000000000 1.00000000000000000 0.00000000000000000 0.00000000000000000 0.00000000000000000 0.00000000000000000 -1.00000000000000000 304.80000000000001137
-0.23293802382674014
Triangulations 0

TShapes 366
Ve
0.000000100000000
77.000000000000000 -156.028571428571411 0.000000000000000
0 0

0101101
*
Ed
 0.000000100000000 1 1 0
1  1 0 0.000000000000000 6.283185307179586
2  1 2 0 0.000000000000000 6.283185307179586
0

0101000
+366 4 -366 4 *
Wi

0101100
-365 0 *
Ve
0.000000150000406
6.000000000000406 -156.028571428571411 49.638694583963350
0 0

0101101
*
Ve
0.000000150000000
6.000000000000000 -156.028571428571411 54.000000000000000
0 0

0101101
*
Ed
 0.000000150000000 1 1 0
1  2 0 25.638694583963350 30.000000000000000
0

0101000
+363 4 -362 4 *
Ve
0.000000150000000
-6.000000000000000 -156.028571428571411 54.000000000000000
0 0

0101101
*
Ed
 0.000000150000000 1 1 0
1  3 0 -9.000000000000000 3.000000000000000
0

0101000
+362 4 -360 4 *
Ve
0.000000150000401
-6.000000000000401 -156.028571428571411 49.638694583963364
0 0

0101101
*
Ed
 0.000000150000000 1 1 0
1  4 0 25.638694583963364 30.000000000000000
0

0101000
+358 4 -360 4 *
Ve
0.000000150000111
-24.322790653254376 -156.028571428571411 43.685259010768839
0 0

0101101
*
Ed
 0.000000100000000 1 1 0
1  5 0 5.775156658856413 6.162895424784790
2  2 3 0 5.775156658856413 6.162895424784790
0

0101000
+356 4 -358 4 *
Ve
0.000000150000013
-26.886301657543878 -156.028571428571411 47.213629210001997
0 0

0101101
*
Ed
 0.000000150000000 1 1 0
1  6 0 25.638694583963428 30.000000000000004
0

0101000
+356 4 -354 4 *
Ve
0.000000150000010
-36.594505590043248 -156.028571428571411 40.160206182492317
0 0

0101101
*
Ed
 0.000000150000000 1 1 0
1  7 0 -8.999999999999998 3.000000000000002
0

0101000
+354 4 -352 4 *
Ve
0.000000150000164
-34.030994585753511 -156.028571428571411 36.631835983259300
0 0

0101101
*
Ed
 0.000000150000000 1 1 0
1  8 0 25.638694583963407 30.000000000000007
0

0101000
+350 4 -352 4 *
Ve
0.000000150000183
-45.355101978213611 -156.028571428571411 21.045539302803441
0 0

0101101
*
Ed
 0.000000100000000 1 1 0
1  9 0 5.146838128138461 5.534576894066842
2  2 4 0 5.146838128138461 5.534576894066842
0

0101000
+348 4 -350 4 *
Ve
0.000000150000007
-49.502949913688610 -156.028571428571411 22.393256794018072
0 0

0101101
*
Ed
 0.000000150000000 1 1 0
1  10 0 25.638694583963414 30.000000000000000
0

0101000
+348 4 -346 4 *
Ve
0.000000150000000
-53.211153846187983 -156.028571428571411 10.980578598476228
0 0

0101101
*
Ed
 0.000000150000000 1 1 0
1  11 0 -9.000000000000000 3.000000000000000
0

0101000
+346 4 -344 4 *
Ve
0.000000150000204
-49.063305910713098 -156.028571428571411 9.632861107261229
0 0

0101101
*
Ed
 0.000000150000000 1 1 0
1  12 0 25.638694583963407 30.000000000000000
0

0101000
+342 4 -344 4 *
Ve
0.000000150000298
-49.063305910713126 -156.028571428571411 -9.632861107261149
0 0

0101101
*
Ed
 0.000000100000000 1 1 0
1  13 0 4.518519597420505 4.906258363348877
2  2 5 0 4.518519597420505 4.906258363348877
0

0101000
+340 4 -342 4 *
Ve
0.000000150000008
-53.211153846187976 -156.028571428571411 -10.980578598476242
0 0

0101101
*
Ed
 0.000000150000000 1 1 0
1  14 0 25.638694583963414 30.000000000000000
0

0101000
+340 4 -338 4 *
Ve
0.000000150000008
-49.502949913688603 -156.028571428571411 -22.393256794018086
0 0

0101101
*
Ed
 0.000000150000000 1 1 0
1  15 0 -8.999999999999996 3.000000000000003
0

0101000
+338 4 -336 4 *
Ve
0.000000150000488
-45.355101978213476 -156.028571428571411 -21.045539302803732
0 0

0101101
*
Ed
 0.000000150000000 1 1 0
1  16 0 25.638694583963378 30.000000000000000
0

0101000
+334 4 -336 4 *
Ve
0.000000150000772
-34.030994585754193 -156.028571428571411 -36.631835983258675
0 0

0101101
*
Ed
 0.000000100000000 1 1 0
1  17 0 3.890201066702555 4.277939832630912
2  2 6 0 3.890201066702555 4.277939832630912
0

0101000
+332 4 -334 4 *
Ve
0.000000150000016
-36.594505590043227 -156.028571428571411 -40.160206182492324
0 0

0101101
*
Ed
 0.000000150000000 1 1 0
1  18 0 25.638694583963300 30.000000000000004
0

0101000
+332 4 -330 4 *
Ve
0.000000150000008
-26.886301657543861 -156.028571428571411 -47.213629210002004
0 0

0101101
*
Ed
 0.000000150000000 1 1 0
1  19 0 -8.999999999999996 3.000000000000003
0

0101000
+330 4 -328 4 *
Ve
0.000000150000198
-24.322790653254440 -156.028571428571411 -43.685259010768810
0 0

0101101
*
Ed
 0.000000150000000 1 1 0
1  20 0 25.638694583963442 30.000000000000004
0

0101000
+326 4 -328 4 *
Ve
0.000000150000212
-6.000000000000205 -156.028571428571411 -49.638694583963364
0 0

0101101
*
Ed
 0.000000100000000 1 1 0
1  21 0 3.261882535984586 3.649621301912967
2  2 7 0 3.261882535984586 3.649621301912967
0

0101000
+324 4 -326 4 *
Ve
0.000000150000001
-5.999999999999994 -156.028571428571411 -54.000000000000000
0 0

0101101
*
Ed
 0.000000150000000 1 1 0
1  22 0 25.638694583963364 30.000000000000000
0

0101000
+324 4 -322 4 *
Ve
0.000000150000001
6.000000000000006 -156.028571428571411 -54.000000000000000
0 0

0101101
*
Ed
 0.000000150000000 1 1 0
1  23 0 -9.000000000000000 3.000000000000000
0

0101000
+322 4 -320 4 *
Ve
0.000000150000212
6.000000000000219 -156.028571428571411 -49.638694583963364
0 0

0101101
*
Ed
 0.000000150000000 1 1 0
1  24 0 25.638694583963364 30.000000000000000
0

0101000
+318 4 -320 4 *
Ve
0.000000150000195
24.322790653254440 -156.028571428571411 -43.685259010768810
0 0

0101101
*
Ed
 0.000000100000000 1 1 0
1  25 0 2.633564005266619 3.021302771195001
2  2 8 0 2.633564005266619 3.021302771195001
0

0101000
+316 4 -318 4 *
Ve
0.000000150000010
26.886301657543868 -156.028571428571411 -47.213629210002004
0 0

0101101
*
Ed
 0.000000150000000 1 1 0
1  26 0 25.638694583963442 30.000000000000004
0

0101000
+316 4 -314 4 *
Ve
0.000000150000010
36.594505590043241 -156.028571428571411 -40.160206182492324
0 0

0101101
*
Ed
 0.000000150000000 1 1 0
1  27 0 -9.000000000000002 2.999999999999998
0

0101000
+314 4 -312 4 *
Ve
0.000000150000767
34.030994585754193 -156.028571428571411 -36.631835983258668
0 0

0101101
*
Ed
 0.000000150000000 1 1 0
1  28 0 25.638694583963293 30.000000000000004
0

0101000
+310 4 -312 4 *
Ve
0.000000150000465
45.355101978213497 -156.028571428571411 -21.045539302803711
0 0

0101101
*
Ed
 0.000000100000000 1 1 0
1  29 0 2.005245474548673 2.392984240477031
2  2 9 0 2.005245474548673 2.392984240477031
0

0101000
+308 4 -310 4 *
Ve
0.000000150000000
49.502949913688610 -156.028571428571411 -22.393256794018086
0 0

0101101
*
Ed
 0.000000150000000 1 1 0
1  30 0 25.638694583963389 30.000000000000004
0

0101000
+308 4 -306 4 *
Ve
0.000000150000000
53.211153846187983 -156.028571428571411 -10.980578598476242
0 0

0101101
*
Ed
 0.000000150000000 1 1 0
1  31 0 -9.000000000000000 3.000000000000001
0

0101000
+306 4 -304 4 *
Ve
0.000000150000293
49.063305910713119 -156.028571428571411 -9.632861107261151
0 0

0101101
*
Ed
 0.000000150000000 1 1 0
1  32 0 25.638694583963407 30.000000000000004
0

0101000
+302 4 -304 4 *
Ve
0.000000150000203
49.063305910713098 -156.028571428571411 9.632861107261240
0 0

0101101
*
Ed
 0.000000100000000 1 1 0
1  33 0 1.376926943830709 1.764665709759082
2  2 10 0 1.376926943830709 1.764665709759082
0

0101000
+300 4 -302 4 *
Ve
0.000000150000008
53.211153846187976 -156.028571428571411 10.980578598476242
0 0

0101101
*
Ed
 0.000000150000000 1 1 0
1  34 0 25.638694583963414 30.000000000000000
0

0101000
+300 4 -298 4 *
Ve
0.000000150000008
49.502949913688603 -156.028571428571411 22.393256794018086
0 0

0101101
*
Ed
 0.000000150000000 1 1 0
1  35 0 -8.999999999999996 3.000000000000003
0

0101000
+298 4 -296 4 *
Ve
0.000000150000173
45.355101978213611 -156.028571428571411 21.045539302803444
0 0

0101101
*
Ed
 0.000000150000000 1 1 0
1  36 0 25.638694583963421 30.000000000000000
0

0101000
+294 4 -296 4 *
Ve
0.000000150000152
34.030994585753511 -156.028571428571411 36.631835983259300
0 0

0101101
*
Ed
 0.000000100000000 1 1 0
1  37 0 0.748608413112744 1.136347179041126
2  2 11 0 0.748608413112744 1.136347179041126
0

0101000
+292 4 -294 4 *
Ve
0.000000150000000
36.594505590043234 -156.028571428571411 40.160206182492324
0 0

0101101
*
Ed
 0.000000150000000 1 1 0
1  38 0 25.638694583963400 30.000000000000000
0

0101000
+292 4 -290 4 *
Ve
0.000000150000004
26.886301657543868 -156.028571428571411 47.213629210002004
0 0

0101101
*
Ed
 0.000000150000000 1 1 0
1  39 0 -8.999999999999996 3.000000000000004
0

0101000
+290 4 -288 4 *
Ve
0.000000150000109
24.322790653254362 -156.028571428571411 43.685259010768846
0 0

0101101
*
Ed
 0.000000150000000 1 1 0
1  40 0 25.638694583963421 30.000000000000000
0

0101000
+286 4 -288 4 *
Ed
 0.000000100000000 1 1 0
1  41 0 0.120289882394796 0.508028648323173
2  2 12 0 0.120289882394796 0.508028648323173
0

0101000
+363 4 -286 4 *
Wi

0101100
-361 0 -359 0 +357 0 +355 0 -353 0 -351 0 +349 0 +347 0 -345 0 -343 0 
+341 0 +339 0 -337 0 -335 0 +333 0 +331 0 -329 0 -327 0 +325 0 +323 0 
-321 0 -319 0 +317 0 +315 0 -313 0 -311 0 +309 0 +307 0 -305 0 -303 0 
+301 0 +299 0 -297 0 -295 0 +293 0 +291 0 -289 0 -287 0 +285 0 +284 0 
*
Fa
0  0.000000100000000 1 0

0111000
+364 0 +283 0 *
Ve
0.000000100000000
77.000000000000000 -122.485714285714266 0.000000000000000
0 0

0101101
*
Ed
 0.000000100000000 1 1 0
1  42 0 0.000000000000000 6.283185307179586
2  3 2 0 0.000000000000000 6.283185307179586
0

0101000
+281 4 -281 4 *
Ed
 0.000000100000000 1 1 0
1  43 0 0.000000000000000 33.542857142857144
3  4 5CN 2 0 0.000000000000000 33.542857142857144
0

0101000
+366 4 -281 4 *
Wi

0101100
+365 0 -280 0 -279 0 +279 0 *
Fa
0  0.000000100000000 2 0

0111000
+278 0 *
Ve
0.000000150000000
6.000000000000000 -50.799999999999997 54.000000000000000
0 0

0101101
*
Ed
 0.000000100000000 1 1 0
1  44 0 1.000000000000000 106.228571428571414
0

0101000
+362 6 -276 6 *
Ve
0.000000150000406
6.000000000000406 -50.799999999999990 49.638694583963350
0 0

0101101
*
Ed
 0.000000150000000 1 1 0
1  45 0 -30.000000000000000 -25.638694583963350
0

0101000
+276 4 -274 4 *
Ed
 0.000000100000000 1 1 0
1  46 0 1.000000000000000 106.228571428571428
2  6 12 0 1.000000000000000 106.228571428571428
0

0101000
+363 4 -274 4 *
Wi

0101100
-361 0 -275 5 -273 0 +272 0 *
Fa
0  0.000000100000000 13 5

0111000
+271 0 *
Ve
0.000000150000000
-6.000000000000000 -50.799999999999997 54.000000000000000
0 0

0101101
*
Ed
 0.000000100000000 1 1 0
1  47 0 1.000000000000000 106.228571428571414
0

0101000
+360 6 -269 6 *
Ed
 0.000000150000000 1 1 0
1  48 0 -3.000000000000000 9.000000000000000
0

0101000
+269 4 -276 4 *
Wi

0101100
-268 5 -267 0 +275 5 -359 0 *
Fa
0  0.000000100000000 14 5

0111000
+266 0 *
Ve
0.000000150000401
-6.000000000000401 -50.799999999999990 49.638694583963364
0 0

0101101
*
Ed
 0.000000150000000 1 1 0
1  49 0 -30.000000000000000 -25.638694583963364
0

0101000
+269 4 -264 4 *
Ed
 0.000000100000000 1 1 0
1  50 0 1.000000000000000 106.228571428571428
2  7 3 0 1.000000000000000 106.228571428571428
0

0101000
+358 4 -264 4 *
Wi

0101100
-357 0 -268 5 -263 0 +262 0 *
Fa
0  0.000000100000000 15 5

0111000
+261 0 *
Ve
0.000000150000111
-24.322790653254376 -50.799999999999990 43.685259010768839
0 0

0101101
*
Ed
 0.000000100000000 1 1 0
1  51 0 1.000000000000000 106.228571428571428
2  8 3 0 1.000000000000000 106.228571428571428
0

0101000
+356 4 -259 4 *
Ed
 0.000000100000000 1 1 0
1  52 0 5.775156658856413 6.162895424784790
2  9 3 0 5.775156658856413 6.162895424784790
0

0101000
+259 4 -264 4 *
Wi

0101100
+262 0 +355 0 -258 0 -257 0 *
Fa
0  0.000000100000000 3 0

0111000
+256 0 *
Ve
0.000000150000019
-26.886301657543878 -50.799999999999997 47.213629210001997
0 0

0101101
*
Ed
 0.000000100000000 1 1 0
1  53 0 1.000000000000000 106.228571428571414
0

0101000
+354 8 -254 8 *
Ed
 0.000000150000000 1 1 0
1  54 0 -30.000000000000004 -25.638694583963428
0

0101000
+254 4 -259 4 *
Wi

0101100
-353 0 -253 7 -252 0 +258 0 *
Fa
0  0.000000100000000 16 7

0111000
+251 0 *
Ve
0.000000150000017
-36.594505590043248 -50.799999999999997 40.160206182492317
0 0

0101101
*
Ed
 0.000000100000000 1 1 0
1  55 0 1.000000000000000 106.228571428571414
0

0101000
+352 8 -249 8 *
Ed
 0.000000150000000 1 1 0
1  56 0 -3.000000000000002 8.999999999999998
0

0101000
+249 4 -254 4 *
Wi

0101100
-248 7 -247 0 +253 7 -351 0 *
Fa
0  0.000000100000000 17 7

0111000
+246 0 *
Ve
0.000000150000164
-34.030994585753511 -50.799999999999990 36.631835983259300
0 0

0101101
*
Ed
 0.000000150000000 1 1 0
1  57 0 -30.000000000000007 -25.638694583963407
0

0101000
+249 4 -244 4 *
Ed
 0.000000100000000 1 1 0
1  58 0 1.000000000000000 106.228571428571428
2  10 4 0 1.000000000000000 106.228571428571428
0

0101000
+350 4 -244 4 *
Wi

0101100
-349 0 -248 7 -243 0 +242 0 *
Fa
0  0.000000100000000 18 7

0111000
+241 0 *
Ve
0.000000150000183
-45.355101978213611 -50.799999999999990 21.045539302803441
0 0

0101101
*
Ed
 0.000000100000000 1 1 0
1  59 0 1.000000000000000 106.228571428571428
2  11 4 0 1.000000000000000 106.228571428571428
0

0101000
+348 4 -239 4 *
Ed
 0.000000100000000 1 1 0
1  60 0 5.146838128138461 5.534576894066842
2  9 4 0 5.146838128138461 5.534576894066842
0

0101000
+239 4 -244 4 *
Wi

0101100
+242 0 +347 0 -238 0 -237 0 *
Fa
0  0.000000100000000 4 0

0111000
+236 0 *
Ve
0.000000150000007
-49.502949913688610 -50.799999999999997 22.393256794018072
0 0

0101101
*
Ed
 0.000000100000000 1 1 0
1  61 0 1.000000000000000 106.228571428571414
0

0101000
+346 10 -234 10 *
Ed
 0.000000150000000 1 1 0
1  62 0 -30.000000000000000 -25.638694583963414
0

0101000
+234 4 -239 4 *
Wi

0101100
-345 0 -233 9 -232 0 +238 0 *
Fa
0  0.000000100000000 19 9

0111000
+231 0 *
Ve
0.000000150000000
-53.211153846187983 -50.799999999999997 10.980578598476228
0 0

0101101
*
Ed
 0.000000100000000 1 1 0
1  63 0 1.000000000000000 106.228571428571414
0

0101000
+344 10 -229 10 *
Ed
 0.000000150000000 1 1 0
1  64 0 -3.000000000000000 9.000000000000000
0

0101000
+229 4 -234 4 *
Wi

0101100
-228 9 -227 0 +233 9 -343 0 *
Fa
0  0.000000100000000 20 9

0111000
+226 0 *
Ve
0.000000150000204
-49.063305910713098 -50.799999999999990 9.632861107261229
0 0

0101101
*
Ed
 0.000000150000000 1 1 0
1  65 0 -30.000000000000000 -25.638694583963407
0

0101000
+229 4 -224 4 *
Ed
 0.000000100000000 1 1 0
1  66 0 1.000000000000000 106.228571428571428
2  12 5 0 1.000000000000000 106.228571428571428
0

0101000
+342 4 -224 4 *
Wi

0101100
-341 0 -228 9 -223 0 +222 0 *
Fa
0  0.000000100000000 21 9

0111000
+221 0 *
Ve
0.000000150000299
-49.063305910713126 -50.799999999999990 -9.632861107261149
0 0

0101101
*
Ed
 0.000000100000000 1 1 0
1  67 0 1.000000000000000 106.228571428571428
2  13 5 0 1.000000000000000 106.228571428571428
0

0101000
+340 4 -219 4 *
Ed
 0.000000100000000 1 1 0
1  68 0 4.518519597420505 4.906258363348877
2  9 5 0 4.518519597420505 4.906258363348877
0

0101000
+219 4 -224 4 *
Wi

0101100
+222 0 +339 0 -218 0 -217 0 *
Fa
0  0.000000100000000 5 0

0111000
+216 0 *
Ve
0.000000150000016
-53.211153846187976 -50.799999999999997 -10.980578598476242
0 0

0101101
*
Ed
 0.000000100000000 1 1 0
1  69 0 1.000000000000000 106.228571428571414
0

0101000
+338 12 -214 12 *
Ed
 0.000000150000000 1 1 0
1  70 0 -30.000000000000000 -25.638694583963414
0

0101000
+214 4 -219 4 *
Wi

0101100
-337 0 -213 11 -212 0 +218 0 *
Fa
0  0.000000100000000 22 11

0111000
+211 0 *
Ve
0.000000150000016
-49.502949913688603 -50.799999999999997 -22.393256794018086
0 0

0101101
*
Ed
 0.000000100000000 1 1 0
1  71 0 1.000000000000000 106.228571428571414
0

0101000
+336 12 -209 12 *
Ed
 0.000000150000000 1 1 0
1  72 0 -3.000000000000003 8.999999999999996
0

0101000
+209 4 -214 4 *
Wi

0101100
-208 11 -207 0 +213 11 -335 0 *
Fa
0  0.000000100000000 23 11

0111000
+206 0 *
Ve
0.000000150000488
-45.355101978213476 -50.799999999999990 -21.045539302803732
0 0

0101101
*
Ed
 0.000000150000000 1 1 0
1  73 0 -30.000000000000000 -25.638694583963378
0

0101000
+209 4 -204 4 *
Ed
 0.000000100000000 1 1 0
1  74 0 1.000000000000000 106.228571428571428
2  14 6 0 1.000000000000000 106.228571428571428
0

0101000
+334 4 -204 4 *
Wi

0101100
-333 0 -208 11 -203 0 +202 0 *
Fa
0  0.000000100000000 24 11

0111000
+201 0 *
Ve
0.000000150000772
-34.030994585754193 -50.799999999999990 -36.631835983258675
0 0

0101101
*
Ed
 0.000000100000000 1 1 0
1  75 0 1.000000000000000 106.228571428571428
2  15 6 0 1.000000000000000 106.228571428571428
0

0101000
+332 4 -199 4 *
Ed
 0.000000100000000 1 1 0
1  76 0 3.890201066702555 4.277939832630912
2  9 6 0 3.890201066702555 4.277939832630912
0

0101000
+199 4 -204 4 *
Wi

0101100
+202 0 +331 0 -198 0 -197 0 *
Fa
0  0.000000100000000 6 0

0111000
+196 0 *
Ve
0.000000150000021
-36.594505590043227 -50.799999999999997 -40.160206182492324
0 0

0101101
*
Ed
 0.000000100000000 1 1 0
1  77 0 1.000000000000000 106.228571428571414
0

0101000
+330 14 -194 14 *
Ed
 0.000000150000000 1 1 0
1  78 0 -30.000000000000004 -25.638694583963300
0

0101000
+194 4 -199 4 *
Wi

0101100
-329 0 -193 13 -192 0 +198 0 *
Fa
0  0.000000100000000 25 13

0111000
+191 0 *
Ve
0.000000150000016
-26.886301657543861 -50.799999999999997 -47.213629210002004
0 0

0101101
*
Ed
 0.000000100000000 1 1 0
1  79 0 1.000000000000000 106.228571428571414
0

0101000
+328 14 -189 14 *
Ed
 0.000000150000000 1 1 0
1  80 0 -3.000000000000003 8.999999999999996
0

0101000
+189 4 -194 4 *
Wi

0101100
-188 13 -187 0 +193 13 -327 0 *
Fa
0  0.000000100000000 26 13

0111000
+186 0 *
Ve
0.000000150000198
-24.322790653254440 -50.799999999999990 -43.685259010768810
0 0

0101101
*
Ed
 0.000000150000000 1 1 0
1  81 0 -30.000000000000004 -25.638694583963442
0

0101000
+189 4 -184 4 *
Ed
 0.000000100000000 1 1 0
1  82 0 1.000000000000000 106.228571428571428
2  16 7 0 1.000000000000000 106.228571428571428
0

0101000
+326 4 -184 4 *
Wi

0101100
-325 0 -188 13 -183 0 +182 0 *
Fa
0  0.000000100000000 27 13

0111000
+181 0 *
Ve
0.000000150000212
-6.000000000000205 -50.799999999999990 -49.638694583963364
0 0

0101101
*
Ed
 0.000000100000000 1 1 0
1  83 0 1.000000000000000 106.228571428571428
2  17 7 0 1.000000000000000 106.228571428571428
0

0101000
+324 4 -179 4 *
Ed
 0.000000100000000 1 1 0
1  84 0 3.261882535984586 3.649621301912967
2  9 7 0 3.261882535984586 3.649621301912967
0

0101000
+179 4 -184 4 *
Wi

0101100
+182 0 +323 0 -178 0 -177 0 *
Fa
0  0.000000100000000 7 0

0111000
+176 0 *
Ve
0.000000150000001
-5.999999999999994 -50.799999999999997 -54.000000000000000
0 0

0101101
*
Ed
 0.000000100000000 1 1 0
1  85 0 1.000000000000000 106.228571428571414
0

0101000
+322 16 -174 16 *
Ed
 0.000000150000000 1 1 0
1  86 0 -30.000000000000000 -25.638694583963364
0

0101000
+174 4 -179 4 *
Wi

0101100
-321 0 -173 15 -172 0 +178 0 *
Fa
0  0.000000100000000 28 15

0111000
+171 0 *
Ve
0.000000150000001
6.000000000000006 -50.799999999999997 -54.000000000000000
0 0

0101101
*
Ed
 0.000000100000000 1 1 0
1  87 0 1.000000000000000 106.228571428571414
0

0101000
+320 16 -169 16 *
Ed
 0.000000150000000 1 1 0
1  88 0 -3.000000000000000 9.000000000000000
0

0101000
+169 4 -174 4 *
Wi

0101100
-168 15 -167 0 +173 15 -319 0 *
Fa
0  0.000000100000000 29 15

0111000
+166 0 *
Ve
0.000000150000212
6.000000000000219 -50.799999999999990 -49.638694583963364
0 0

0101101
*
Ed
 0.000000150000000 1 1 0
1  89 0 -30.000000000000000 -25.638694583963364
0

0101000
+169 4 -164 4 *
Ed
 0.000000100000000 1 1 0
1  90 0 1.000000000000000 106.228571428571428
2  18 8 0 1.000000000000000 106.228571428571428
0

0101000
+318 4 -164 4 *
Wi

0101100
-317 0 -168 15 -163 0 +162 0 *
Fa
0  0.000000100000000 30 15

0111000
+161 0 *
Ve
0.000000150000195
24.322790653254440 -50.799999999999990 -43.685259010768810
0 0

0101101
*
Ed
 0.000000100000000 1 1 0
1  91 0 2.633564005266619 3.021302771195001
2  9 8 0 2.633564005266619 3.021302771195001
0

0101000
+159 4 -164 4 *
Ed
 0.000000100000000 1 1 0
1  92 0 1.000000000000000 106.228571428571428
2  19 8 0 1.000000000000000 106.228571428571428
0

0101000
+316 4 -159 4 *
Wi

0101100
-158 0 +162 0 +315 0 -157 0 *
Fa
0  0.000000100000000 8 0

0111000
+156 0 *
Ve
0.000000150000017
26.886301657543868 -50.799999999999997 -47.213629210002004
0 0

0101101
*
Ed
 0.000000100000000 1 1 0
1  93 0 1.000000000000000 106.228571428571414
0

0101000
+314 18 -154 18 *
Ed
 0.000000150000000 1 1 0
1  94 0 -30.000000000000004 -25.638694583963442
0

0101000
+154 4 -159 4 *
Wi

0101100
-313 0 -153 17 -152 0 +157 0 *
Fa
0  0.000000100000000 31 17

0111000
+151 0 *
Ve
0.000000150000017
36.594505590043241 -50.799999999999997 -40.160206182492324
0 0

0101101
*
Ed
 0.000000100000000 1 1 0
1  95 0 1.000000000000000 106.228571428571414
0

0101000
+312 18 -149 18 *
Ed
 0.000000150000000 1 1 0
1  96 0 -2.999999999999998 9.000000000000002
0

0101000
+149 4 -154 4 *
Wi

0101100
-148 17 -147 0 +153 17 -311 0 *
Fa
0  0.000000100000000 32 17

0111000
+146 0 *
Ve
0.000000150000767
34.030994585754193 -50.799999999999990 -36.631835983258668
0 0

0101101
*
Ed
 0.000000150000000 1 1 0
1  97 0 -30.000000000000004 -25.638694583963293
0

0101000
+149 4 -144 4 *
Ed
 0.000000100000000 1 1 0
1  98 0 1.000000000000000 106.228571428571428
2  20 9 0 1.000000000000000 106.228571428571428
0

0101000
+310 4 -144 4 *
Wi

0101100
-309 0 -148 17 -143 0 +142 0 *
Fa
0  0.000000100000000 33 17

0111000
+141 0 *
Ve
0.000000150000465
45.355101978213497 -50.799999999999990 -21.045539302803711
0 0

0101101
*
Ed
 0.000000100000000 1 1 0
1  99 0 2.005245474548673 2.392984240477031
2  9 9 0 2.005245474548673 2.392984240477031
0

0101000
+139 4 -144 4 *
Ed
 0.000000100000000 1 1 0
1  100 0 1.000000000000000 106.228571428571428
2  21 9 0 1.000000000000000 106.228571428571428
0

0101000
+308 4 -139 4 *
Wi

0101100
-138 0 +142 0 +307 0 -137 0 *
Fa
0  0.000000100000000 9 0

0111000
+136 0 *
Ve
0.000000150000014
49.502949913688610 -50.799999999999997 -22.393256794018086
0 0

0101101
*
Ed
 0.000000100000000 1 1 0
1  101 0 1.000000000000000 106.228571428571414
0

0101000
+306 20 -134 20 *
Ed
 0.000000150000000 1 1 0
1  102 0 -30.000000000000004 -25.638694583963389
0

0101000
+134 4 -139 4 *
Wi

0101100
-305 0 -133 19 -132 0 +137 0 *
Fa
0  0.000000100000000 34 19

0111000
+131 0 *
Ve
0.000000150000014
53.211153846187983 -50.799999999999997 -10.980578598476242
0 0

0101101
*
Ed
 0.000000100000000 1 1 0
1  103 0 1.000000000000000 106.228571428571414
0

0101000
+304 20 -129 20 *
Ed
 0.000000150000000 1 1 0
1  104 0 -3.000000000000001 9.000000000000000
0

0101000
+129 4 -134 4 *
Wi

0101100
-128 19 -127 0 +133 19 -303 0 *
Fa
0  0.000000100000000 35 19

0111000
+126 0 *
Ve
0.000000150000293
49.063305910713119 -50.799999999999990 -9.632861107261151
0 0

0101101
*
Ed
 0.000000150000000 1 1 0
1  105 0 -30.000000000000004 -25.638694583963407
0

0101000
+129 4 -124 4 *
Ed
 0.000000100000000 1 1 0
1  106 0 1.000000000000000 106.228571428571428
2  22 10 0 1.000000000000000 106.228571428571428
0

0101000
+302 4 -124 4 *
Wi

0101100
-301 0 -128 19 -123 0 +122 0 *
Fa
0  0.000000100000000 36 19

0111000
+121 0 *
Ve
0.000000150000204
49.063305910713098 -50.799999999999990 9.632861107261240
0 0

0101101
*
Ed
 0.000000100000000 1 1 0
1  107 0 1.376926943830709 1.764665709759082
2  9 10 0 1.376926943830709 1.764665709759082
0

0101000
+119 4 -124 4 *
Ed
 0.000000100000000 1 1 0
1  108 0 1.000000000000000 106.228571428571428
2  23 10 0 1.000000000000000 106.228571428571428
0

0101000
+300 4 -119 4 *
Wi

0101100
-118 0 +122 0 +299 0 -117 0 *
Fa
0  0.000000100000000 10 0

0111000
+116 0 *
Ve
0.000000150000016
53.211153846187976 -50.799999999999997 10.980578598476242
0 0

0101101
*
Ed
 0.000000100000000 1 1 0
1  109 0 1.000000000000000 106.228571428571414
0

0101000
+298 22 -114 22 *
Ed
 0.000000150000000 1 1 0
1  110 0 -30.000000000000000 -25.638694583963414
0

0101000
+114 4 -119 4 *
Wi

0101100
-297 0 -113 21 -112 0 +117 0 *
Fa
0  0.000000100000000 37 21

0111000
+111 0 *
Ve
0.000000150000016
49.502949913688603 -50.799999999999997 22.393256794018086
0 0

0101101
*
Ed
 0.000000100000000 1 1 0
1  111 0 1.000000000000000 106.228571428571414
0

0101000
+296 22 -109 22 *
Ed
 0.000000150000000 1 1 0
1  112 0 -3.000000000000003 8.999999999999996
0

0101000
+109 4 -114 4 *
Wi

0101100
-108 21 -107 0 +113 21 -295 0 *
Fa
0  0.000000100000000 38 21

0111000
+106 0 *
Ve
0.000000150000173
45.355101978213611 -50.799999999999990 21.045539302803444
0 0

0101101
*
Ed
 0.000000150000000 1 1 0
1  113 0 -30.000000000000000 -25.638694583963421
0

0101000
+109 4 -104 4 *
Ed
 0.000000100000000 1 1 0
1  114 0 1.000000000000000 106.228571428571428
2  24 11 0 1.000000000000000 106.228571428571428
0

0101000
+294 4 -104 4 *
Wi

0101100
-293 0 -108 21 -103 0 +102 0 *
Fa
0  0.000000100000000 39 21

0111000
+101 0 *
Ve
0.000000150000152
34.030994585753511 -50.799999999999990 36.631835983259300
0 0

0101101
*
Ed
 0.000000100000000 1 1 0
1  115 0 0.748608413112744 1.136347179041126
2  9 11 0 0.748608413112744 1.136347179041126
0

0101000
+99 4 -104 4 *
Ed
 0.000000100000000 1 1 0
1  116 0 1.000000000000000 106.228571428571428
2  25 11 0 1.000000000000000 106.228571428571428
0

0101000
+292 4 -99 4 *
Wi

0101100
-98 0 +102 0 +291 0 -97 0 *
Fa
0  0.000000100000000 11 0

0111000
+96 0 *
Ve
0.000000150000000
36.594505590043234 -50.799999999999997 40.160206182492324
0 0

0101101
*
Ed
 0.000000100000000 1 1 0
1  117 0 1.000000000000000 106.228571428571414
0

0101000
+290 24 -94 24 *
Ed
 0.000000150000000 1 1 0
1  118 0 -30.000000000000000 -25.638694583963400
0

0101000
+94 4 -99 4 *
Wi

0101100
-289 0 -93 23 -92 0 +97 0 *
Fa
0  0.000000100000000 40 23

0111000
+91 0 *
Ve
0.000000150000004
26.886301657543868 -50.799999999999997 47.213629210002004
0 0

0101101
*
Ed
 0.000000100000000 1 1 0
1  119 0 1.000000000000000 106.228571428571414
0

0101000
+288 24 -89 24 *
Ed
 0.000000150000000 1 1 0
1  120 0 -3.000000000000004 8.999999999999996
0

0101000
+89 4 -94 4 *
Wi

0101100
-88 23 -87 0 +93 23 -287 0 *
Fa
0  0.000000100000000 41 23

0111000
+86 0 *
Ve
0.000000150000110
24.322790653254362 -50.799999999999990 43.685259010768846
0 0

0101101
*
Ed
 0.000000150000000 1 1 0
1  121 0 -30.000000000000000 -25.638694583963421
0

0101000
+89 4 -84 4 *
Ed
 0.000000100000000 1 1 0
1  122 0 1.000000000000000 106.228571428571428
2  26 12 0 1.000000000000000 106.228571428571428
0

0101000
+286 4 -84 4 *
Wi

0101100
-285 0 -88 23 -83 0 +82 0 *
Fa
0  0.000000100000000 42 23

0111000
+81 0 *
Ed
 0.000000100000000 1 1 0
1  123 0 0.120289882394796 0.508028648323173
2  9 12 0 0.120289882394796 0.508028648323173
0

0101000
+274 4 -84 4 *
Wi

0101100
-79 0 +82 0 +284 0 -272 0 *
Fa
0  0.000000100000000 12 0

0111000
+78 0 *
Wi

0101100
+280 0 *
Ve
0.000000100000000
280.348571428571404 -122.485714285714266 0.000000000000000
0 0

0101101
*
Ed
 0.000000100000000 1 1 0
1  124 0 0.000000000000000 6.283185307179586
2  27 44 0 0.000000000000000 6.283185307179586
0

0101000
+75 4 -75 4 *
Wi

0101100
-74 0 *
Fa
0  0.000000100000000 43 0

0111000
+76 0 +73 0 *
Ve
0.000000100000000
77.000000000000000 -50.799999999999997 0.000000000000000
0 0

0101101
*
Ed
 0.000000100000000 1 1 0
1  125 0 0.000000000000000 6.283185307179586
2  28 46 0 0.000000000000000 6.283185307179586
0

0101000
+71 4 -71 4 *
Wi

0101100
+70 0 *
Wi

0101100
-79 0 +83 0 -87 0 -92 0 -98 0 +103 0 -107 0 -112 0 -118 0 +123 0 
-127 0 -132 0 -138 0 +143 0 -147 0 -152 0 -158 0 +163 0 -167 0 -172 0 
-177 0 +183 0 -187 0 -192 0 -197 0 +203 0 -207 0 -212 0 -217 0 +223 0 
-227 0 -232 0 -237 0 +243 0 -247 0 -252 0 -257 0 +263 0 -267 0 -273 0 
*
Fa
0  0.000000100000000 45 0

0111000
+69 0 +68 0 *
Ve
0.000000100000000
290.348571428571404 -148.028571428571411 0.000000000000000
0 0

0101101
*
Ed
 0.000000100000000 1 1 0
1  126 0 0.000000000000000 6.283185307179586
2  29 44 0 0.000000000000000 6.283185307179586
2  30 47 0 0.000000000000000 6.283185307179586
0

0101000
+66 4 -66 4 *
Ed
 0.000000100000000 1 1 0
1  127 0 0.000000000000000 27.430595163437637
3  31 32CN 44 0 0.000000000000000 27.430595163437637
0

0101000
+75 4 -66 4 *
Wi

0101100
+74 0 -65 0 -64 0 +64 0 *
Fa
0  0.000000100000000 44 0

0111000
+63 0 *
Ve
0.000000100000000
77.000000000000000 -102.485714285714266 0.000000000000000
0 0

0101101
*
Ed
 0.000000100000000 1 1 0
1  128 0 0.000000000000000 6.283185307179586
2  33 46 0 0.000000000000000 6.283185307179586
0

0101000
+61 4 -61 4 *
Ed
 0.000000100000000 1 1 0
1  129 0 0.000000000000000 51.685714285714269
3  34 35CN 46 0 0.000000000000000 51.685714285714269
0

0101000
+61 4 -71 4 *
Wi

0101100
+60 0 -70 0 -59 0 +59 0 *
Fa
0  0.000000100000000 46 0

0111000
+58 0 *
Ve
0.000000100000000
290.348571428571404 -156.028571428571411 0.000000000000000
0 0

0101101
*
Ed
 0.000000100000000 1 1 0
1  130 0 0.000000000000000 6.283185307179586
2  36 47 0 0.000000000000000 6.283185307179586
0

0101000
+56 4 -56 4 *
Ed
 0.000000100000000 1 1 0
1  131 0 0.000000000000000 8.000000000000000
3  37 38CN 47 0 0.000000000000000 8.000000000000000
0

0101000
+66 4 -56 4 *
Wi

0101100
+65 0 -55 0 -54 0 +54 0 *
Fa
0  0.000000100000000 47 0

0111000
+53 0 *
Ve
0.000000100000000
280.348571428571404 -102.485714285714266 0.000000000000000
0 0

0101101
*
Ed
 0.000000100000000 1 1 0
1  132 0 0.000000000000000 6.283185307179586
2  39 49 0 0.000000000000000 6.283185307179586
0

0101000
+51 4 -51 4 *
Wi

0101100
+50 0 *
Wi

0101100
-60 0 *
Fa
0  0.000000100000000 48 0

0111000
+49 0 +48 0 *
Wi

0101100
+55 0 *
Ve
0.000000100000000
303.348571428571404 -156.028571428571411 0.000000000000000
0 0

0101101
*
Ed
 0.000000100000000 1 1 0
1  133 0 0.000000000000000 6.283185307179586
2  40 51 0 0.000000000000000 6.283185307179586
0

0101000
+45 4 -45 4 *
Wi

0101100
-44 0 *
Fa
0  0.000000100000000 50 0

0111000
+46 0 +43 0 *
Ve
0.000000100000000
290.348571428571404 -76.942857142857136 0.000000000000000
0 0

0101101
*
Ed
 0.000000100000000 1 1 0
1  134 0 0.000000000000000 6.283185307179586
2  41 49 0 0.000000000000000 6.283185307179586
2  42 52 0 0.000000000000000 6.283185307179586
0

0101000
+41 4 -41 4 *
Ed
 0.000000100000000 1 1 0
1  135 0 0.000000000000000 27.430595163437623
3  43 44CN 49 0 0.000000000000000 27.430595163437623
0

0101000
+41 4 -51 4 *
Wi

0101100
+40 0 -50 0 -39 0 +39 0 *
Fa
0  0.000000100000000 49 0

0111000
+38 0 *
Ve
0.000000100000028
303.348571428571404 -155.528571428571411 0.000000000000000
0 0

0101101
*
Ed
 0.000000100000000 1 1 0
1  136 0 0.000000000000000 0.500000000000000
3  45 46CN 51 0 0.000000000000000 0.500000000000000
0

0101000
+45 4 -36 4 *
Ed
 0.000000100000028 1 1 0
1  137 0 0.000000000000000 6.283185307179586
2  47 51 2 0.000000000000000 6.283185307179586
2  48 53 0 0.000000000000000 6.283185307179586
0

0101000
+36 25 -36 25 *
Wi

0101100
-35 2 -34 0 +35 2 +44 2 *
Fa
0  0.000000100000000 51 2

0111000
+33 0 *
Ve
0.000000100000000
290.348571428571404 -68.942857142857136 0.000000000000000
0 0

0101101
*
Ed
 0.000000100000000 1 1 0
1  138 0 0.000000000000000 6.283185307179586
2  49 52 0 0.000000000000000 6.283185307179586
0

0101000
+31 4 -31 4 *
Ed
 0.000000100000000 1 1 0
1  139 0 0.000000000000000 8.000000000000000
3  50 51CN 52 0 0.000000000000000 8.000000000000000
0

0101000
+31 4 -41 4 *
Wi

0101100
+30 0 -40 0 -29 0 +29 0 *
Fa
0  0.000000100000000 52 0

0111000
+28 0 *
Ve
0.000000100000000
304.800000000000011 -149.410714285714278 0.000000000000000
0 0

0101101
*
Ed
 0.000000100000000 1 1 0
1  140 0 0.000000000000000 6.287672138269245
3  52 53CN 53 0 0.000000000000000 6.287672138269245
0

0101000
+36 25 -26 25 *
Ed
 0.000000100000000 1 1 0
1  141 0 0.000000000000000 6.283185307179586
2  54 53 0 0.000000000000000 6.283185307179586
2  55 54 0 0.000000000000000 6.283185307179586
0

0101000
+26 25 -26 25 *
Wi

0101100
-25 0 -24 0 +25 0 +34 0 *
Fa
0  0.000000100000000 53 0

0111000
+23 0 *
Ve
0.000000100000000
303.348571428571404 -68.942857142857136 0.000000000000000
0 0

0101101
*
Ed
 0.000000100000000 1 1 0
1  142 0 0.000000000000000 6.283185307179586
2  56 56 0 0.000000000000000 6.283185307179586
0

0101000
+21 4 -21 4 *
Wi

0101100
+20 0 *
Wi

0101100
-30 0 *
Fa
0  0.000000100000000 55 0

0111000
+19 0 +18 0 *
Ve
0.000000100000000
304.800000000000011 -75.560714285714269 0.000000000000000
0 0

0101101
*
Ed
 0.000000100000000 1 1 0
1  143 0 0.000000000000000 6.283185307179586
2  57 54 0 0.000000000000000 6.283185307179586
2  58 57 0 0.000000000000000 6.283185307179586
0

0101000
+16 25 -16 25 *
Ed
 0.000000100000000 1 1 0
1  144 0 0.000000000000000 73.850000000000009
3  59 60CN 54 0 0.000000000000000 73.850000000000009
0

0101000
+26 25 -16 25 *
Wi

0101100
+24 0 -15 0 -14 0 +14 0 *
Fa
0  0.000000100000000 54 0

0111000
+13 0 *
Ve
0.000000100000028
303.348571428571404 -69.442857142857136 0.000000000000000
0 0

0101101
*
Ed
 0.000000100000028 1 1 0
1  145 0 0.000000000000000 6.283185307179586
2  61 56 2 0.000000000000000 6.283185307179586
2  62 57 0 0.000000000000000 6.283185307179586
0

0101000
+11 25 -11 25 *
Ed
 0.000000100000000 1 1 0
1  146 0 86.585714285714275 87.085714285714275
3  45 46CN 56 0 86.585714285714275 87.085714285714275
0

0101000
+11 4 -21 4 *
Wi

0101100
+10 0 -9 2 -20 2 +9 2 *
Fa
0  0.000000100000000 56 2

0111000
+8 0 *
Ed
 0.000000100000000 1 1 0
1  147 0 0.000000000000000 6.287672138269245
3  63 64CN 57 0 0.000000000000000 6.287672138269245
0

0101000
+16 25 -11 25 *
Wi

0101100
-6 0 -10 0 +6 0 +15 0 *
Fa
0  0.000000100000000 57 0

0111000
+5 0 *
Sh

0101100
+282 2 +277 2 -270 2 -265 2 +260 2 -255 2 -250 2 -245 2 +240 2 -235 2 
-230 2 -225 2 +220 2 -215 2 -210 2 -205 2 +200 2 -195 2 -190 2 -185 2 
+180 2 -175 2 -170 2 -165 2 +160 2 -155 2 -150 2 -145 2 +140 2 -135 2 
-130 2 -125 2 +120 2 -115 2 -110 2 -105 2 +100 2 -95 2 -90 2 -85 2 
+80 2 -77 2 +72 2 +67 2 +62 2 +57 2 +52 2 +47 2 +42 2 +37 2 
+32 0 +27 2 +22 0 +17 2 +12 0 +7 0 +4 0 *
So

0100000
+3 0 *
Co

1100000
+2 0 *

+1 1 