DBRep_DrawableShape

CASCADE Topology V1, (c) Matra-Datavision
Locations 0
Curve2ds 0
Curves 9
1 2055.2209552753357 -222.25000000000006 636.71967269398021 1 2.4663161429150551e-16 0 
6 0 3 2285.6999999999998 -222.25 636.71967269398021  2310.1349999999998 -222.25 636.71967269398021  2315.5650000000001 -201 645  2340 -201 645  
1 2340 -201 645 1 0 0 
6 0 3 2380 -201 645  2413.3333333333335 -201 645  2446.6666666666665 -125 619  2480 -125 619  
1 2480 -125 619 1 0 0 
6 0 3 2730 -125 619  2783.3333333333335 -125 619  2836.6666666666665 -125 655  2890 -125 655  
1 2890 -125 655 1 0 0 
6 0 3 5770 -125 655  5796.666666666667 -125 655  5823.333333333333 -125 640.74353229395956  5850 -125 640.74353229395956  
1 5850 -125 640.74353229395956 1 0 0 
Polygon3D 0
PolygonOnTriangulations 0
Surfaces 0
Triangulations 0

TShapes 20
Ve
1e-07
2055.22095527534 -222.25 636.71967269398
0 0

0101101
*
Ve
1e-07
2285.7 -222.25 636.71967269398
0 0

0101101
*
Ed
 1e-07 1 1 0
1  1 0 0 230.479044724664
0

0101000
+20 0 -19 0 *
Ve
1e-07
2340 -201 645
0 0

0101101
*
Ed
 1e-07 1 1 0
1  2 0 0 1
0

0101000
+19 0 -17 0 *
Ve
1e-07
2380 -201 645
0 0

0101101
*
Ed
 1e-07 1 1 0
1  3 0 0 40
0

0101000
+17 0 -15 0 *
Ve
1e-07
2480 -125 619
0 0

0101101
*
Ed
 1e-07 1 1 0
1  4 0 0 1
0

0101000
+15 0 -13 0 *
Ve
1e-07
2730 -125 619
0 0

0101101
*
Ed
 1e-07 1 1 0
1  5 0 0 250
0

0101000
+13 0 -11 0 *
Ve
1e-07
2890 -125 655
0 0

0101101
*
Ed
 1e-07 1 1 0
1  6 0 0 1
0

0101000
+11 0 -9 0 *
Ve
1e-07
5770 -125 655
0 0

0101101
*
Ed
 1e-07 1 1 0
1  7 0 0 2880
0

0101000
+9 0 -7 0 *
Ve
1e-07
5850 -125 640.74353229396
0 0

0101101
*
Ed
 1e-07 1 1 0
1  8 0 0 1
0

0101000
+7 0 -5 0 *
Ve
1e-07
5901.45314213546 -125 640.74353229396
0 0

0101101
*
Ed
 1e-07 1 1 0
1  9 0 0 51.4531421354595
0

0101000
+5 0 -3 0 *
Wi

1101000
+18 0 +16 0 +14 0 +12 0 +10 0 +8 0 +6 0 +4 0 +2 0 *

+1 0 