DBRep_DrawableShape

CASCADE Topology V1, (c) Matra-Datavision
Locations 2
1
              1               0               0               0 
              0               1               0           32.25 
              0               0               1               0 
2  1 -1 0
Curve2ds 64
1 3.1415926535897931 0 0 -1 
8 7.6437499999999998 29.868750000000002
1 -7.6437499999999998 -22.725000000000001 1 0 
8 7.6437499999999998 29.868750000000002
1 29.574999999999999 7.6437499999999998 0 1 
8 -17.962499999999999 -4.7625000000000011
1 22.225000000000001 -4.7624999999999993 0 1 
8 -17.962499999999999 -4.7625000000000011
1 29.574999999999999 4.7625000000000011 0 1 
8 7.6437499999999998 29.868750000000002
1 -7.6437499999999998 -9.5250000000000004 1 0 
8 7.6437499999999998 29.868750000000002
1 29.574999999999999 7.6437499999999998 0 1 
1 0 0 1 0 
1 0 -32.25 1 0 
2 -1.1051505562517355e-16 -9.9503693429844056 1 0 -0 1 6.5
1 0 1.0000000000000036 1 0 
2 14.2875 -16.125 -1 0 0 1 12.699999999999999
1 0 6.3499999999999979 1 0 
2 -1.1051505562517355e-16 -9.9503693429844056 1 0 -0 1 6.5
1 0 33.25 1 0 
1 6.2831853071795862 -22.725000000000001 -1 0 
2 15.2875 15.287500000000001 -1 -6.2164718789160124e-17 -6.2164718789160124e-17 1 14.287500000000001
1 0 0 0 -1 
1 0 -13.199999999999999 1 0 
1 0 37.512500000000003 1 0 
8 -5.999999999062311e-07 4.6512499999999974
1 8.2817434384286521 36.512500000000003 0 1 
8 -5.999999999062311e-07 4.6512499999999974
1 3.89717723523226 0 0 1 
8 -17.268750000000001 1.9812500000000002
1 7.6437499999999998 36.512500000000003 -1 0 
8 -17.268750000000001 1.9812500000000002
1 -7.6437499999999998 -6.5999999999999996 -1 0 
8 -5.999999999062311e-07 4.6512499999999974
1 22.293256561571347 36.512500000000003 0 1 
8 -5.999999999062311e-07 4.6512499999999974
1 5.5276007255371189 0 0 1 
8 -15.581250000000004 6.6437500000000007
1 21.931249999999999 -22.725000000000001 1 0 
8 -15.581250000000004 6.6437500000000007
1 1 21.931249999999999 0 -1 
2 15.2875 15.2875 1 0 -0 1 6.5
1 0 23.725000000000001 1 0 
1 0 0 1 0 
1 0 37.512500000000003 1 0 
2 15.2875 -6.5999999999999996 1 0 -0 1 9.625
1 0 1 1 0 
2 15.2875 -6.5999999999999996 1 0 -0 1 9.625
1 0 1 1 0 
8 -5.999999999062311e-07 4.6512499999999974
1 8.2817434384286521 36.512500000000003 0 1 
8 -5.999999999062311e-07 4.6512499999999974
1 2.3860080719473262 0 0 1 
8 -17.268750000000001 1.9812500000000002
1 7.6437499999999998 36.512500000000003 -1 0 
8 -17.268750000000001 1.9812500000000002
1 -7.6437499999999998 6.5999999999999996 -1 0 
8 -5.999999999062311e-07 4.6512499999999974
1 22.293256561571347 36.512500000000003 0 1 
8 -5.999999999062311e-07 4.6512499999999974
1 0.75558458164246711 0 0 1 
1 6.2831853071795862 -9.5250000000000004 -1 0 
2 15.2875 15.287500000000001 -1 -6.2164718789160124e-17 -6.2164718789160124e-17 1 14.287500000000001
8 -15.581250000000004 6.6437500000000007
1 21.931249999999999 -9.5250000000000004 1 0 
8 -15.581250000000004 6.6437500000000007
1 1 21.931249999999999 0 -1 
2 15.2875 15.2875 1 0 -0 1 6.5
1 0 10.525 1 0 
8 4.7625000000000011 17.962499999999999
1 6.3499999999999979 -4.7624999999999993 0 -1 
8 4.7625000000000011 17.962499999999999
1 1 4.7625000000000011 0 -1 
1 6.2831853071795862 -0 0 1 
1 0 -0 0 1 
1 6.2831853071795862 -0 0 1 
1 0 -0 0 1 
1 0 22.225000000000001 1 0 
2 0 0 1 0 -0 1 12.699999999999999
2 15.2875 -6.5999999999999996 1 0 -0 1 9.625
1 0 1 1 0 
2 0 0 1 0 -0 1 9.625
1 0 23.225000000000001 1 0 
1 6.2831853071795862 -0 0 1 
1 0 -0 0 1 
1 0 0 1 0 
2 0 0 1 0 -0 1 9.625
Curves 38
1 0 -16.125 14.2875 1 0 0 
1 28.574999999999999 -16.125 14.2875 0 1 0 
1 1.3321362526260846e-17 -16.125 14.287500000000001 0 1 0 
1 -7.6437499999999998 6.6000000000000005 14.2875 1 0 0 
1 22.225000000000001 -11.362500000000001 14.2875 0 -1 0 
1 -7.6437499999999998 -6.5999999999999996 14.2875 1 0 0 
2 8.8817841970012523e-16 -16.125 0 0 1 -0 -6.2164718789160124e-17 0 -1 -1 0 6.2164718789160124e-17 14.287500000000001
1 28.574999999999999 -16.125 14.2875 0 0 -1 
1 28.574999999999999 -16.125 -14.2875 -1 0 0 
2 0 -16.124999999999996 0 0 1 0 0 -0 1 1 0 -0 6.5
1 28.574999999999999 -16.125 -14.2875 0 1 0 
2 28.574999999999999 0 0 1 0 0 -0 0 1 0 -1 0 12.699999999999999
2 0 16.125 0 0 1 0 0 -0 1 1 0 -0 6.5
2 8.8817841970012523e-16 6.6000000000000014 0 0 -1 -0 -6.2164718789160124e-17 0 -1 1 0 -6.2164718789160124e-17 14.287500000000001
1 -9.8607613152626476e-32 -16.125 -14.287500000000001 0 1 0 
1 22.225000000000001 6.5999999999999996 -15.2875 0 0 1 
1 21.225000000000001 6.5999999999999996 -7.0057565615713484 1 0 0 
1 21.225000000000001 6.5999999999999996 -7.6437499999999998 0 0 -1 
1 21.225000000000001 6.5999999999999996 7.0057565615713484 1 0 0 
1 6.6437499999999998 6.6000000000000005 -14.2875 -1 -0 0 
2 0 6.6000000000000014 0 0 1 0 0 -0 1 1 0 -0 6.5
1 22.225000000000001 -6.5999999999999996 -15.2875 0 0 1 
2 22.225000000000001 0 0 1 0 0 -0 0 1 0 -1 0 9.625
2 22.225000000000001 0 0 1 0 0 -0 0 1 0 -1 0 9.625
1 21.225000000000001 -6.5999999999999996 -7.0057565615713484 1 0 0 
1 21.225000000000001 -6.5999999999999996 -7.6437499999999998 0 0 -1 
1 21.225000000000001 -6.5999999999999996 7.0057565615713484 1 0 0 
2 8.8817841970012523e-16 -6.5999999999999996 0 0 -1 -0 -6.2164718789160124e-17 0 -1 1 0 -6.2164718789160124e-17 14.287500000000001
1 6.6437499999999998 -6.5999999999999996 -14.2875 -1 -0 0 
2 0 -6.5999999999999996 0 0 1 0 0 -0 1 1 0 -0 6.5
1 22.225000000000001 -11.362500000000001 -14.2875 0 1 0 
1 -1.5920408388915591e-15 -17.125 6.5 0 1 0 
1 22.225000000000001 3.1106028698342769e-15 12.699999999999999 1 0 0 
2 44.450000000000003 0 0 1 0 0 -0 0 1 0 -1 0 12.699999999999999
2 22.225000000000001 0 0 1 0 0 -0 0 1 0 -1 0 9.625
2 44.450000000000003 0 0 1 0 0 -0 0 1 0 -1 0 9.625
1 21.225000000000001 2.3574450883586548e-15 9.625 1 0 0 
2 21.225000000000001 0 0 1 0 0 -0 0 1 0 -1 0 9.625
Polygon3D 0
PolygonOnTriangulations 0
Surfaces 13
1 0 -16.125 14.2875 0 0 -1 1 0 0 0 -1 0 
2 8.8817841970012523e-16 -16.125 0 -0 -1 -0 -6.2164718789160124e-17 0 -1 -1 0 6.2164718789160124e-17 14.287500000000001
1 -15.2875 6.5999999999999996 -15.2875 -0 1 0 0 0 1 1 0 -0 
1 22.225000000000001 -6.5999999999999996 -15.2875 1 0 -0 0 0 1 0 -1 0 
1 -15.2875 -6.5999999999999996 -15.2875 -0 1 0 0 0 1 1 0 -0 
1 9.9503693429844056 -16.124999999999996 1.1051505562517355e-16 0 1 0 0 -0 1 1 0 -0 
2 0 -17.125 0 0 1 0 0 -0 1 1 0 -0 6.5
1 28.574999999999999 -16.125 14.2875 -1 0 0 0 0 -1 -0 -1 -0 
2 22.225000000000001 0 0 1 0 0 -0 0 1 0 -1 0 12.699999999999999
1 28.574999999999999 -16.125 -14.2875 0 -0 1 -1 0 0 -0 -1 0 
2 21.225000000000001 0 0 1 0 0 -0 0 1 0 -1 0 9.625
1 21.225000000000001 0 0 1 0 0 -0 0 1 0 -1 0 
1 44.450000000000003 0 0 1 0 0 -0 0 1 0 -1 0 
Triangulations 0

TShapes 120
Ve
1.00000000888278e-07
1.33213625262608e-17 -16.125 14.2875
0 0

0101101
*
Ve
1e-07
28.575 -16.125 14.2875
0 0

0101101
*
Ed
 1e-07 1 1 0
1  1 0 0 28.575
0

0101000
+120 0 -119 0 *
Ed
 1e-07 1 1 0
1  2 0 0 32.25
0

0101000
+119 0 -119 1 *
Ve
1.50000001986072e-07
1.33213625262608e-17 6.6 14.2875
0 0

0101101
*
Ed
 1.00000000888278e-07 1 1 0
1  3 0 22.725 32.25
2  1 2 0 22.725 32.25
4 G1 1 0 2 0
0

0101000
+116 0 -120 1 *
Ve
1.50000001776357e-07
22.225 6.6 14.2875
0 0

0101101
*
Ed
 1.5e-07 1 1 0
1  4 0 7.64375 29.86875
2  2 1 0 7.64375 29.86875
2  3 3 0 7.64375 29.86875
0

0101000
+116 0 -114 0 *
Ve
1.5e-07
22.225 -6.6 14.2875
0 0

0101101
*
Ed
 1.5e-07 1 1 0
1  5 0 -17.9625 -4.7625
2  4 1 0 -17.9625 -4.7625
2  5 4 0 -17.9625 -4.7625
0

0101000
+114 0 -112 0 *
Ve
1.50000001776407e-07
1.33213625262608e-17 -6.6 14.2875
0 0

0101101
*
Ed
 1.5e-07 1 1 0
1  6 0 7.64375 29.86875
2  6 1 0 7.64375 29.86875
2  7 5 0 7.64375 29.86875
0

0101000
+110 0 -112 0 *
Ed
 1.00000000888278e-07 1 1 0
1  3 0 0 9.525
2  1 2 0 0 9.525
4 G1 1 0 2 0
0

0101000
+120 0 -110 0 *
Wi

0101100
-118 0 -117 0 +118 1 +115 0 -113 0 -111 0 +109 0 +108 0 *
Fa
0  1e-07 1 0

0101000
+107 0 *
Ve
1.00000000888178e-07
-9.86076131526265e-32 -16.125 -14.2875
0 0

0101101
*
Ed
 1e-07 1 1 0
1  7 0 0 3.14159265358979
2  8 2 0 0 3.14159265358979
2  9 2 2 0 3.14159265358979
0

0101000
+105 0 -120 0 *
Ve
1e-07
28.575 -16.125 -14.2875
0 0

0101101
*
Ed
 1e-07 1 1 0
1  8 0 0 28.575
0

0101000
+119 0 -103 0 *
Ed
 1e-07 1 1 0
1  9 0 0 28.575
0

0101000
+103 0 -105 0 *
Wi

0101100
+118 0 +104 0 +102 0 +101 0 *
Ve
1.00000001592041e-07
-1.59204083889156e-15 -16.125 6.5
0 0

0101101
*
Ed
 1e-07 1 1 0
1  10 0 0 6.28318530717959
2  10 6 0 0 6.28318530717959
2  11 7 0 0 6.28318530717959
0

0101100
+99 0 -99 0 *
Wi

0101100
-98 0 *
Fa
0  1e-07 6 0

0101000
+100 0 +97 0 *
Ed
 1e-07 1 1 0
1  11 0 0 32.25
0

0101000
+103 0 -103 1 *
Wi

0101100
+117 0 -102 0 +102 1 -95 0 *
Ve
1.00000003110603e-07
28.575 3.11060286983428e-15 12.7
0 0

0101101
*
Ed
 1e-07 1 1 0
1  12 0 0 6.28318530717959
2  12 8 0 0 6.28318530717959
2  13 9 0 0 6.28318530717959
0

0101100
+93 0 -93 0 *
Wi

0101100
+92 0 *
Fa
0  1e-07 8 0

0101000
+94 0 +91 0 *
Wi

0101100
+118 1 +104 1 +102 1 +101 1 *
Ve
1.00000001592041e-07
-1.59204083889156e-15 16.125 6.5
0 0

0101101
*
Ed
 1e-07 1 1 0
1  13 0 0 6.28318530717959
2  14 6 1 0 6.28318530717959
2  15 7 0 0 6.28318530717959
0

0101100
+88 0 -88 0 *
Wi

0101100
-87 0 *
Fa
0  1e-07 6 1

0101000
+89 0 +86 0 *
Ve
1.50000002175584e-07
-9.86076131526265e-32 6.6 -14.2875
0 0

0101101
*
Ed
 1e-07 1 1 0
1  14 0 3.14159265358979 6.28318530717959
2  16 2 0 3.14159265358979 6.28318530717959
2  17 3 0 3.14159265358979 6.28318530717959
0

0101000
+116 0 -84 0 *
Ed
 1.00000000888178e-07 1 1 0
1  15 0 22.725 32.25
2  18 2 0 22.725 32.25
4 G1 10 0 2 0
0

0101000
+84 0 -105 1 *
Wi

0101100
+83 0 -115 0 +104 1 +82 0 *
Fa
0  1e-07 2 0

0101000
+81 0 *
Ve
1.50000003662053e-07
22.225 6.6 -14.2875
0 0

0101101
*
Ve
1.00000000888178e-07
22.225 6.6 -7.00575656157135
0 0

0101101
*
Ed
 1e-07 1 1 0
1  16 0 1 8.28174343842865
2  19 4 0 1 8.28174343842865
2  20 3 0 1 8.28174343842865
0

0101000
+79 0 -78 0 *
Ve
1.5e-07
21.225 6.6 -7.00575656157135
0 0

0101101
*
Ed
 1e-07 1 1 0
1  17 0 0 1
2  21 3 0 0 1
2  22 11 0 0 1
0

0101000
+76 0 -78 0 *
Ve
1.50000002808667e-07
21.225 6.6 7.00575656157135
0 0

0101101
*
Ed
 1.5e-07 1 1 0
1  18 0 -14.6495065615713 -0.637993438428651
2  23 3 0 -14.6495065615713 -0.637993438428651
2  24 12 0 -14.6495065615713 -0.637993438428651
0

0101000
+74 0 -76 0 *
Ve
1.00000003202373e-07
22.225 6.6 7.00575656157135
0 0

0101101
*
Ed
 1e-07 1 1 0
1  19 0 0 1
2  25 3 0 0 1
2  26 11 0 0 1
0

0101000
+74 0 -72 0 *
Ed
 1e-07 1 1 0
1  16 0 22.2932565615713 29.575
2  19 4 0 22.2932565615713 29.575
2  20 3 0 22.2932565615713 29.575
0

0101000
+72 0 -114 0 *
Ed
 1.5e-07 1 1 0
1  20 0 -15.58125 6.64375
2  27 10 0 -15.58125 6.64375
2  28 3 0 -15.58125 6.64375
0

0101000
+79 0 -84 0 *
Wi

0101100
-77 0 +75 0 +73 0 -71 0 -70 0 +113 0 -83 0 +69 0 *
Ve
1.00000001592041e-07
-1.59204083889156e-15 6.6 6.5
0 0

0101101
*
Ed
 1e-07 1 1 0
1  21 0 0 6.28318530717959
2  29 3 0 0 6.28318530717959
2  30 7 0 0 6.28318530717959
0

0101100
+67 0 -67 0 *
Wi

0101100
-66 0 *
Fa
0  1e-07 3 0

0101000
+68 0 +65 0 *
Ve
1.00000000888178e-07
22.225 -6.6 7.00575656157135
0 0

0101101
*
Ed
 1e-07 1 1 0
1  22 0 22.2932565615713 29.575
2  31 4 0 22.2932565615713 29.575
2  32 5 0 22.2932565615713 29.575
0

0101000
+63 0 -112 0 *
Ve
1.00000002357445e-07
22.225 2.35744508835865e-15 9.625
0 0

0101101
*
Ed
 1e-07 1 1 0
1  23 0 5.52760072553712 6.28318530717959
2  33 4 0 5.52760072553712 6.28318530717959
2  34 11 0 5.52760072553712 6.28318530717959
0

0101000
+72 0 -61 0 *
Ed
 1e-07 1 1 0
1  24 0 0 0.755584581642467
2  35 4 0 0 0.755584581642467
2  36 11 0 0 0.755584581642467
0

0101000
+61 0 -63 0 *
Wi

0101100
-62 0 +111 0 +70 0 -60 0 -59 0 *
Fa
0  1e-07 4 0

0101000
+58 0 *
Ve
1.50000003552714e-07
22.225 -6.6 -14.2875
0 0

0101101
*
Ve
1.00000002808667e-07
22.225 -6.6 -7.00575656157135
0 0

0101101
*
Ed
 1e-07 1 1 0
1  22 0 1 8.28174343842865
2  31 4 0 1 8.28174343842865
2  32 5 0 1 8.28174343842865
0

0101000
+56 0 -55 0 *
Ve
1.50000002664535e-07
21.225 -6.6 -7.00575656157135
0 0

0101101
*
Ed
 1e-07 1 1 0
1  25 0 0 1
2  37 5 0 0 1
2  38 11 0 0 1
0

0101000
+53 0 -55 0 *
Ve
1.5e-07
21.225 -6.6 7.00575656157135
0 0

0101101
*
Ed
 1.5e-07 1 1 0
1  26 0 -14.6495065615713 -0.637993438428653
2  39 5 0 -14.6495065615713 -0.637993438428653
2  40 12 0 -14.6495065615713 -0.637993438428653
0

0101000
+51 0 -53 0 *
Ed
 1e-07 1 1 0
1  27 0 0 1
2  41 5 0 0 1
2  42 11 0 0 1
0

0101000
+51 0 -63 0 *
Ve
1.50000001986027e-07
-9.86076131526265e-32 -6.6 -14.2875
0 0

0101101
*
Ed
 1e-07 1 1 0
1  28 0 3.14159265358979 6.28318530717959
2  43 2 0 3.14159265358979 6.28318530717959
2  44 5 0 3.14159265358979 6.28318530717959
0

0101000
+110 0 -48 0 *
Ed
 1.5e-07 1 1 0
1  29 0 -15.58125 6.64375
2  45 10 0 -15.58125 6.64375
2  46 5 0 -15.58125 6.64375
0

0101000
+56 0 -48 0 *
Wi

0101100
-54 0 +52 0 +50 0 -49 0 -62 0 +109 0 -47 0 +46 0 *
Ve
1.00000001592041e-07
-1.59204083889156e-15 -6.6 6.5
0 0

0101101
*
Ed
 1e-07 1 1 0
1  30 0 0 6.28318530717959
2  47 5 0 0 6.28318530717959
2  48 7 0 0 6.28318530717959
0

0101100
+44 0 -44 0 *
Wi

0101100
-43 0 *
Fa
0  1e-07 5 0

0101000
+45 0 +42 0 *
Ed
 1.00000000888178e-07 1 1 0
1  15 0 0 9.525
2  18 2 0 0 9.525
4 G1 10 0 2 0
0

0101000
+105 0 -48 0 *
Wi

0101100
-104 0 -108 0 -47 0 +40 0 *
Fa
0  1e-07 2 0

0101000
+39 0 *
Ed
 1.5e-07 1 1 0
1  31 0 4.7625 17.9625
2  49 10 0 4.7625 17.9625
2  50 4 0 4.7625 17.9625
0

0101000
+56 0 -79 0 *
Wi

0101100
-101 0 -40 0 +46 0 -37 0 -69 0 -82 0 +101 1 +95 0 *
Fa
0  1e-07 10 0

0101000
+36 0 *
Ed
 1e-07 1 1 0
1  32 0 1 10.525
3  51 52CN 7 0 1 10.525
0

0101000
+99 0 -44 0 *
Wi

0101100
-43 0 +34 0 +98 0 -34 0 *
Fa
0  1e-07 7 0

0101000
+33 0 *
Ve
1e-07
44.45 3.11060286983428e-15 12.7
0 0

0101101
*
Ed
 1e-07 1 1 0
1  33 0 6.35 22.225
3  53 54CN 9 0 6.35 22.225
0

0101000
+93 0 -31 0 *
Ed
 1e-07 1 1 0
1  34 0 0 6.28318530717959
2  55 9 0 0 6.28318530717959
2  56 13 0 0 6.28318530717959
0

0101000
+31 0 -31 0 *
Wi

0101100
+30 0 +92 0 -30 0 -29 0 *
Fa
0  1e-07 9 0

0101000
+28 0 *
Ed
 1e-07 1 1 0
1  32 0 23.725 33.25
3  51 52CN 7 0 23.725 33.25
0

0101000
+67 0 -88 0 *
Wi

0101100
-87 0 +26 0 +66 0 -26 0 *
Fa
0  1e-07 7 0

0101000
+25 0 *
Ed
 1e-07 1 1 0
1  35 0 2.38600807194733 3.89717723523226
2  57 4 0 2.38600807194733 3.89717723523226
2  58 11 0 2.38600807194733 3.89717723523226
0

0101000
+55 0 -78 0 *
Wi

0101100
-54 0 -23 0 +77 0 +37 0 *
Fa
0  1e-07 4 0

0101000
+22 0 *
Ve
1.00000002357445e-07
44.45 2.35744508835865e-15 9.625
0 0

0101101
*
Ed
 1e-07 1 1 0
1  36 0 0 6.28318530717959
2  59 13 0 0 6.28318530717959
2  60 11 0 0 6.28318530717959
0

0101100
+20 0 -20 0 *
Ed
 1e-07 1 1 0
1  37 0 1 23.225
3  61 62CN 11 0 1 23.225
0

0101000
+61 0 -20 0 *
Ed
 1e-07 1 1 0
1  38 0 3.89717723523226 5.52760072553712
2  63 11 0 3.89717723523226 5.52760072553712
2  64 12 0 3.89717723523226 5.52760072553712
0

0101000
+76 0 -74 0 *
Ed
 1e-07 1 1 0
1  38 0 0.755584581642467 2.38600807194733
2  63 11 0 0.755584581642467 2.38600807194733
2  64 12 0 0.755584581642467 2.38600807194733
0

0101000
+51 0 -53 0 *
Wi

0101100
-19 0 +18 0 +60 0 +71 0 +17 0 -75 0 +23 0 +52 0 +16 0 -49 0 
+59 0 -18 0 *
Fa
0  1e-07 11 0

0101000
+15 0 *
Wi

0101100
+17 0 +73 0 *
Fa
0  1e-07 12 0

0101000
+13 0 *
Wi

0101100
-50 0 +16 0 *
Fa
0  1e-07 12 0

0101000
+11 0 *
Wi

0101100
+29 0 *
Wi

0101100
-19 0 *
Fa
0  1e-07 13 0

0101000
+9 0 +8 0 *
Sh

0101100
-106 0 -96 0 -90 0 +85 0 -80 0 -64 0 -57 0 +41 0 -38 0 -35 0 
-32 0 +27 0 -24 0 -21 0 -14 0 +12 0 +10 0 +7 0 *
So

0100000
+6 0 *
Co

0100000
+5 0 *
Co

0100000
+4 0 *
Co

0100000
+3 0 *
Co

1100000
+2 0 *

+1 0 