
CASCADE Topology V1, (c) Matra-Datavision
Locations 7
1
1.000000000000000 0.000000000000000 0.000000000000000 0.000000000000000 
0.000000000000000 1.000000000000000 0.000000000000000 0.000000000000000 
0.000000000000000 0.000000000000000 1.000000000000000 0.000000000000000 
1
1.000000000000000 0.000000000000000 0.000000000000000 0.000000000000000 
0.000000000000000 1.000000000000000 0.000000000000000 0.000000000000000 
0.000000000000000 0.000000000000000 1.000000000000000 0.000000000000000 
2  2 -1 0
1
1.000000000000000 0.000000000000000 0.000000000000000 0.000000000000000 
0.000000000000000 1.000000000000000 0.000000000000000 0.000000000000000 
0.000000000000000 0.000000000000000 1.000000000000000 12.699999999999999 
2  2 -1 4 -1 0
1
1.000000000000000 0.000000000000000 0.000000000000000 0.000000000000000 
0.000000000000000 1.000000000000000 0.000000000000000 0.000000000000000 
0.000000000000000 0.000000000000000 1.000000000000000 12.699999999999999 
2  2 -1 6 -1 0
Curve2ds 42
1 0.00000000000000000 19.05000000000000071 1.00000000000000000 0.00000000000000000 
1 6.28318530717958623 -0.00000000000000000 0.00000000000000000 1.00000000000000000 
1 0.00000000000000000 -0.00000000000000000 0.00000000000000000 1.00000000000000000 
1 0.00000000000000000 0.00000000000000000 1.00000000000000000 0.00000000000000000 
1 4.63881109789031054 0.00000000000000000 0.00000000000000000 1.00000000000000000 
1 0.00000000000000000 12.69999999999999929 1.00000000000000000 0.00000000000000000 
1 3.59161354669371358 0.00000000000000000 0.00000000000000000 1.00000000000000000 
1 1.75137116197249210 0.00000000000000000 0.00000000000000000 1.00000000000000000 
1 0.00000000000000000 12.69999999999999929 1.00000000000000000 0.00000000000000000 
1 0.70417361077589458 0.00000000000000000 0.00000000000000000 1.00000000000000000 
1 0.00000000000000000 20.05000000000000071 1.00000000000000000 0.00000000000000000 
1 0.00000000000000000 1.00000000000000000 1.00000000000000000 0.00000000000000000 
1 0.00000000000000000 1.00000000000000000 1.00000000000000000 0.00000000000000000 
1 0.24389201247525369 0.00000000000000000 0.00000000000000000 1.00000000000000000 
1 1.70334732492918484 0.00000000000000000 0.00000000000000000 1.00000000000000000 
1 0.00000000000000000 1.00000000000000000 1.00000000000000000 0.00000000000000000 
1 3.63963738373701995 0.00000000000000000 0.00000000000000000 1.00000000000000000 
1 5.09909269619095262 0.00000000000000000 0.00000000000000000 1.00000000000000000 
1 6.28318530717958623 -0.00000000000000000 0.00000000000000000 1.00000000000000000 
1 0.00000000000000000 -0.00000000000000000 0.00000000000000000 1.00000000000000000 
1 0.00000000000000000 1.00000000000000000 1.00000000000000000 0.00000000000000000 
1 0.00000000000000000 1.00000000000000000 1.00000000000000000 0.00000000000000000 
1 0.00000000000000000 12.69999999999999929 1.00000000000000000 0.00000000000000000 
1 0.00000000000000000 0.00000000000000000 1.00000000000000000 0.00000000000000000 
1 0.00000000000000000 -0.00000000000000000 0.00000000000000000 1.00000000000000000 
1 6.28318530717958623 -0.00000000000000000 0.00000000000000000 1.00000000000000000 
1 0.00000000000000000 13.69999999999999929 1.00000000000000000 0.00000000000000000 
1 0.00000000000000000 12.69999999999999929 1.00000000000000000 0.00000000000000000 
1 0.00000000000000000 0.00000000000000000 1.00000000000000000 0.00000000000000000 
1 0.00000000000000000 -0.00000000000000000 0.00000000000000000 1.00000000000000000 
1 6.28318530717958623 -0.00000000000000000 0.00000000000000000 1.00000000000000000 
1 0.00000000000000000 13.69999999999999929 1.00000000000000000 0.00000000000000000 
1 0.00000000000000000 1.00000000000000000 1.00000000000000000 0.00000000000000000 
1 0.00000000000000000 13.69999999999999929 1.00000000000000000 0.00000000000000000 
1 0.00000000000000000 1.00000000000000000 1.00000000000000000 0.00000000000000000 
1 6.28318530717958623 -0.00000000000000000 0.00000000000000000 1.00000000000000000 
1 0.00000000000000000 -0.00000000000000000 0.00000000000000000 1.00000000000000000 
1 0.00000000000000000 1.00000000000000000 1.00000000000000000 0.00000000000000000 
1 0.00000000000000000 13.69999999999999929 1.00000000000000000 0.00000000000000000 
1 0.00000000000000000 1.00000000000000000 1.00000000000000000 0.00000000000000000 
1 6.28318530717958623 -0.00000000000000000 0.00000000000000000 1.00000000000000000 
1 0.00000000000000000 -0.00000000000000000 0.00000000000000000 1.00000000000000000 
Curves 80
2 0.00000000000000000 0.00000000000000000 19.05000000000000071 0.00000000000000000 0.00000000000000000 1.00000000000000000 1.00000000000000000 0.00000000000000000 0.00000000000000000 0.00000000000000000 1.00000000000000000 0.00000000000000000 25.39999999999999858
1 25.39999999999999858 -0.00000000000000622 0.00000000000000000 0.00000000000000000 0.00000000000000000 1.00000000000000000 
2 0.00000000000000000 0.00000000000000000 0.00000000000000000 0.00000000000000000 0.00000000000000000 1.00000000000000000 1.00000000000000000 0.00000000000000000 0.00000000000000000 0.00000000000000000 1.00000000000000000 0.00000000000000000 25.39999999999999858
1 -1.86719241258538560 -25.33127696138478413 0.00000000000000000 0.00000000000000000 0.00000000000000000 1.00000000000000000 
2 0.00000000000000000 0.00000000000000000 12.69999999999999929 0.00000000000000000 0.00000000000000000 1.00000000000000000 1.00000000000000000 0.00000000000000000 0.00000000000000000 0.00000000000000000 1.00000000000000000 0.00000000000000000 25.39999999999999858
1 -22.87112556515139161 -11.04860241763990558 0.00000000000000000 0.00000000000000000 0.00000000000000000 1.00000000000000000 
2 0.00000000000000000 0.00000000000000000 0.00000000000000000 0.00000000000000000 0.00000000000000000 1.00000000000000000 1.00000000000000000 0.00000000000000000 0.00000000000000000 0.00000000000000000 1.00000000000000000 0.00000000000000000 25.39999999999999858
1 -4.56171533120405481 24.98701169081764917 0.00000000000000000 0.00000000000000000 0.00000000000000000 1.00000000000000000 
2 0.00000000000000000 0.00000000000000000 12.69999999999999929 0.00000000000000000 0.00000000000000000 1.00000000000000000 1.00000000000000000 0.00000000000000000 0.00000000000000000 0.00000000000000000 1.00000000000000000 0.00000000000000000 25.39999999999999858
1 19.35852922330481007 16.44406720706448510 0.00000000000000000 0.00000000000000000 0.00000000000000000 1.00000000000000000 
2 0.00000000000000000 0.00000000000000000 0.00000000000000000 0.00000000000000000 0.00000000000000000 1.00000000000000000 1.00000000000000000 0.00000000000000000 0.00000000000000000 0.00000000000000000 1.00000000000000000 0.00000000000000000 25.39999999999999858
2 0.00000000000000000 0.00000000000000000 19.05000000000000071 0.00000000000000000 0.00000000000000000 1.00000000000000000 1.00000000000000000 0.00000000000000000 0.00000000000000000 0.00000000000000000 1.00000000000000000 0.00000000000000000 16.02499999999999858
2 0.00000000000000000 0.00000000000000000 0.00000000000000000 0.00000000000000000 0.00000000000000000 1.00000000000000000 1.00000000000000000 0.00000000000000000 0.00000000000000000 0.00000000000000000 1.00000000000000000 0.00000000000000000 16.02499999999999858
2 0.00000000000000000 0.00000000000000000 0.00000000000000000 0.00000000000000000 0.00000000000000000 1.00000000000000000 1.00000000000000000 0.00000000000000000 0.00000000000000000 0.00000000000000000 1.00000000000000000 0.00000000000000000 16.02499999999999858
1 43.71012227725443466 84.62852775812342543 0.00000000000000000 -0.33633639699815621 -0.94174191159483744 0.00000000000000000 
1 10.50196657628300656 -7.14133727187244460 0.00000000000000000 -0.56231002140727915 -0.82692650206952811 0.00000000000000000 
1 10.50196657628300656 -7.14133727187244460 0.00000000000000000 -0.56231002140727915 -0.82692650206952811 0.00000000000000000 
1 -89.46377562863715127 -154.14978169087265769 0.00000000000000000 0.00000000000000000 0.00000000000000000 1.00000000000000000 
1 10.50196657628300656 -7.14133727187244460 0.00000000000000000 -0.56231002140727915 -0.82692650206952811 0.00000000000000000 
1 -118.45196657628301296 -151.60866272812756961 0.00000000000000000 0.56231002140727915 0.82692650206952811 0.00000000000000000 
2 -107.95000000000000284 -158.75000000000000000 12.69999999999999929 0.00000000000000000 0.00000000000000000 1.00000000000000000 1.00000000000000000 0.00000000000000000 0.00000000000000000 0.00000000000000000 1.00000000000000000 0.00000000000000000 19.05000000000000071
1 -118.45196657628301296 -151.60866272812756961 0.00000000000000000 0.56231002140727915 0.82692650206952811 0.00000000000000000 
1 -110.46770878120315729 -139.86710714712779691 0.00000000000000000 0.00000000000000000 0.00000000000000000 1.00000000000000000 
2 0.00000000000000000 0.00000000000000000 0.00000000000000000 0.00000000000000000 0.00000000000000000 1.00000000000000000 1.00000000000000000 0.00000000000000000 0.00000000000000000 0.00000000000000000 1.00000000000000000 0.00000000000000000 16.02499999999999858
1 -118.45196657628301296 -151.60866272812756961 0.00000000000000000 0.56231002140727915 0.82692650206952811 0.00000000000000000 
1 -11.96012227725443466 4.27147224187658381 0.00000000000000000 0.33633639699815621 0.94174191159483744 0.00000000000000000 
1 -11.96012227725443466 4.27147224187658381 0.00000000000000000 0.33633639699815621 0.94174191159483744 0.00000000000000000 
1 15.01422657432583208 79.79964902630133849 0.00000000000000000 0.00000000000000000 0.00000000000000000 1.00000000000000000 
1 -11.96012227725443466 4.27147224187658381 0.00000000000000000 0.33633639699815621 0.94174191159483744 0.00000000000000000 
1 43.71012227725443466 84.62852775812342543 0.00000000000000000 -0.33633639699815621 -0.94174191159483744 0.00000000000000000 
2 31.75000000000000000 88.90000000000000568 12.69999999999999929 0.00000000000000000 0.00000000000000000 1.00000000000000000 1.00000000000000000 0.00000000000000000 0.00000000000000000 0.00000000000000000 1.00000000000000000 0.00000000000000000 19.05000000000000071
1 43.71012227725443466 84.62852775812342543 0.00000000000000000 -0.33633639699815621 -0.94174191159483744 0.00000000000000000 
1 38.93447112883469430 71.25670454254816377 0.00000000000000000 0.00000000000000000 0.00000000000000000 1.00000000000000000 
1 16.02499999999999858 -0.00000000000000392 -1.00000000000000000 0.00000000000000000 0.00000000000000000 1.00000000000000000 
2 0.00000000000000000 0.00000000000000000 0.00000000000000000 0.00000000000000000 0.00000000000000000 1.00000000000000000 1.00000000000000000 0.00000000000000000 0.00000000000000000 0.00000000000000000 1.00000000000000000 0.00000000000000000 16.02499999999999858
2 0.00000000000000000 0.00000000000000000 0.00000000000000000 0.00000000000000000 0.00000000000000000 1.00000000000000000 1.00000000000000000 0.00000000000000000 0.00000000000000000 0.00000000000000000 1.00000000000000000 0.00000000000000000 16.02499999999999858
2 0.00000000000000000 0.00000000000000000 0.00000000000000000 0.00000000000000000 0.00000000000000000 1.00000000000000000 1.00000000000000000 0.00000000000000000 0.00000000000000000 0.00000000000000000 1.00000000000000000 0.00000000000000000 25.39999999999999858
2 0.00000000000000000 0.00000000000000000 0.00000000000000000 0.00000000000000000 0.00000000000000000 1.00000000000000000 1.00000000000000000 0.00000000000000000 0.00000000000000000 0.00000000000000000 1.00000000000000000 0.00000000000000000 25.39999999999999858
2 -107.95000000000000284 -158.75000000000000000 0.00000000000000000 0.00000000000000000 0.00000000000000000 1.00000000000000000 1.00000000000000000 0.00000000000000000 0.00000000000000000 0.00000000000000000 1.00000000000000000 0.00000000000000000 19.05000000000000071
2 -107.95000000000000284 -158.75000000000000000 12.69999999999999929 0.00000000000000000 0.00000000000000000 1.00000000000000000 1.00000000000000000 0.00000000000000000 0.00000000000000000 0.00000000000000000 1.00000000000000000 0.00000000000000000 19.05000000000000071
2 -107.95000000000000284 -158.75000000000000000 0.00000000000000000 0.00000000000000000 0.00000000000000000 1.00000000000000000 1.00000000000000000 0.00000000000000000 0.00000000000000000 0.00000000000000000 1.00000000000000000 0.00000000000000000 19.05000000000000071
1 -88.90000000000000568 -158.75000000000000000 0.00000000000000000 0.00000000000000000 0.00000000000000000 1.00000000000000000 
1 -97.44803342371699273 -165.89133727187243039 0.00000000000000000 -0.82692650206952878 0.56231002140727826 0.00000000000000000 
2 -107.95000000000000284 -158.75000000000000000 12.69999999999999929 0.00000000000000000 0.00000000000000000 1.00000000000000000 1.00000000000000000 0.00000000000000000 0.00000000000000000 0.00000000000000000 1.00000000000000000 0.00000000000000000 6.50000000000000000
2 -107.95000000000000284 -158.75000000000000000 12.69999999999999929 0.00000000000000000 0.00000000000000000 1.00000000000000000 1.00000000000000000 0.00000000000000000 0.00000000000000000 0.00000000000000000 1.00000000000000000 0.00000000000000000 6.50000000000000000
1 -97.44803342371699273 -165.89133727187243039 0.00000000000000000 -0.82692650206952878 0.56231002140727826 0.00000000000000000 
1 10.50196657628300656 -7.14133727187244460 0.00000000000000000 -0.56231002140727915 -0.82692650206952811 0.00000000000000000 
1 -118.45196657628301296 -151.60866272812756961 0.00000000000000000 0.56231002140727915 0.82692650206952811 0.00000000000000000 
2 -107.95000000000000284 -158.75000000000000000 0.00000000000000000 0.00000000000000000 0.00000000000000000 1.00000000000000000 1.00000000000000000 0.00000000000000000 0.00000000000000000 0.00000000000000000 1.00000000000000000 0.00000000000000000 19.05000000000000071
2 -107.95000000000000284 -158.75000000000000000 12.69999999999999929 0.00000000000000000 0.00000000000000000 1.00000000000000000 1.00000000000000000 0.00000000000000000 0.00000000000000000 0.00000000000000000 1.00000000000000000 0.00000000000000000 19.05000000000000071
2 31.75000000000000000 88.90000000000000568 0.00000000000000000 0.00000000000000000 0.00000000000000000 1.00000000000000000 1.00000000000000000 0.00000000000000000 0.00000000000000000 0.00000000000000000 1.00000000000000000 0.00000000000000000 19.05000000000000071
2 31.75000000000000000 88.90000000000000568 12.69999999999999929 0.00000000000000000 0.00000000000000000 1.00000000000000000 1.00000000000000000 0.00000000000000000 0.00000000000000000 0.00000000000000000 1.00000000000000000 0.00000000000000000 19.05000000000000071
2 31.75000000000000000 88.90000000000000568 0.00000000000000000 0.00000000000000000 0.00000000000000000 1.00000000000000000 1.00000000000000000 0.00000000000000000 0.00000000000000000 0.00000000000000000 1.00000000000000000 0.00000000000000000 19.05000000000000071
1 50.79999999999999716 88.90000000000000568 0.00000000000000000 0.00000000000000000 0.00000000000000000 1.00000000000000000 
1 19.78987772274556534 93.17147224187658594 0.00000000000000000 0.94174191159483756 -0.33633639699815598 0.00000000000000000 
2 31.75000000000000000 88.90000000000000568 12.69999999999999929 0.00000000000000000 0.00000000000000000 1.00000000000000000 1.00000000000000000 0.00000000000000000 0.00000000000000000 0.00000000000000000 1.00000000000000000 0.00000000000000000 6.50000000000000000
1 19.78987772274556534 93.17147224187658594 0.00000000000000000 0.94174191159483756 -0.33633639699815598 0.00000000000000000 
1 -11.96012227725443466 4.27147224187658381 0.00000000000000000 0.33633639699815621 0.94174191159483744 0.00000000000000000 
1 43.71012227725443466 84.62852775812342543 0.00000000000000000 -0.33633639699815621 -0.94174191159483744 0.00000000000000000 
2 31.75000000000000000 88.90000000000000568 0.00000000000000000 0.00000000000000000 0.00000000000000000 1.00000000000000000 1.00000000000000000 0.00000000000000000 0.00000000000000000 0.00000000000000000 1.00000000000000000 0.00000000000000000 19.05000000000000071
2 31.75000000000000000 88.90000000000000568 12.69999999999999929 0.00000000000000000 0.00000000000000000 1.00000000000000000 1.00000000000000000 0.00000000000000000 0.00000000000000000 0.00000000000000000 1.00000000000000000 0.00000000000000000 19.05000000000000071
1 -97.44803342371699273 -165.89133727187243039 0.00000000000000000 -0.82692650206952878 0.56231002140727826 0.00000000000000000 
2 -107.95000000000000284 -158.75000000000000000 0.00000000000000000 0.00000000000000000 0.00000000000000000 1.00000000000000000 1.00000000000000000 0.00000000000000000 0.00000000000000000 0.00000000000000000 1.00000000000000000 0.00000000000000000 6.50000000000000000
2 -107.95000000000000284 -158.75000000000000000 0.00000000000000000 0.00000000000000000 0.00000000000000000 1.00000000000000000 1.00000000000000000 0.00000000000000000 0.00000000000000000 0.00000000000000000 1.00000000000000000 0.00000000000000000 6.50000000000000000
1 -97.44803342371699273 -165.89133727187243039 0.00000000000000000 -0.82692650206952878 0.56231002140727826 0.00000000000000000 
1 10.50196657628300656 -7.14133727187244460 0.00000000000000000 -0.56231002140727915 -0.82692650206952811 0.00000000000000000 
1 -118.45196657628301296 -151.60866272812756961 0.00000000000000000 0.56231002140727915 0.82692650206952811 0.00000000000000000 
2 -107.95000000000000284 -158.75000000000000000 12.69999999999999929 0.00000000000000000 0.00000000000000000 1.00000000000000000 1.00000000000000000 0.00000000000000000 0.00000000000000000 0.00000000000000000 1.00000000000000000 0.00000000000000000 6.50000000000000000
2 -107.95000000000000284 -158.75000000000000000 0.00000000000000000 0.00000000000000000 0.00000000000000000 1.00000000000000000 1.00000000000000000 0.00000000000000000 0.00000000000000000 0.00000000000000000 1.00000000000000000 0.00000000000000000 6.50000000000000000
1 -101.45000000000000284 -158.75000000000000000 -1.00000000000000000 0.00000000000000000 0.00000000000000000 1.00000000000000000 
1 19.78987772274556534 93.17147224187658594 0.00000000000000000 0.94174191159483756 -0.33633639699815598 0.00000000000000000 
2 31.75000000000000000 88.90000000000000568 0.00000000000000000 0.00000000000000000 0.00000000000000000 1.00000000000000000 1.00000000000000000 0.00000000000000000 0.00000000000000000 0.00000000000000000 1.00000000000000000 0.00000000000000000 6.50000000000000000
1 19.78987772274556534 93.17147224187658594 0.00000000000000000 0.94174191159483756 -0.33633639699815598 0.00000000000000000 
1 -11.96012227725443466 4.27147224187658381 0.00000000000000000 0.33633639699815621 0.94174191159483744 0.00000000000000000 
1 43.71012227725443466 84.62852775812342543 0.00000000000000000 -0.33633639699815621 -0.94174191159483744 0.00000000000000000 
2 31.75000000000000000 88.90000000000000568 12.69999999999999929 0.00000000000000000 0.00000000000000000 1.00000000000000000 1.00000000000000000 0.00000000000000000 0.00000000000000000 0.00000000000000000 1.00000000000000000 0.00000000000000000 6.50000000000000000
2 31.75000000000000000 88.90000000000000568 12.69999999999999929 0.00000000000000000 0.00000000000000000 1.00000000000000000 1.00000000000000000 0.00000000000000000 0.00000000000000000 0.00000000000000000 1.00000000000000000 0.00000000000000000 6.50000000000000000
2 31.75000000000000000 88.90000000000000568 0.00000000000000000 0.00000000000000000 0.00000000000000000 1.00000000000000000 1.00000000000000000 0.00000000000000000 0.00000000000000000 0.00000000000000000 1.00000000000000000 0.00000000000000000 6.50000000000000000
2 31.75000000000000000 88.90000000000000568 0.00000000000000000 0.00000000000000000 0.00000000000000000 1.00000000000000000 1.00000000000000000 0.00000000000000000 0.00000000000000000 0.00000000000000000 1.00000000000000000 0.00000000000000000 6.50000000000000000
1 38.25000000000000000 88.90000000000000568 -1.00000000000000000 0.00000000000000000 0.00000000000000000 1.00000000000000000 
Polygon3D 0
PolygonOnTriangulations 0
Surfaces 29
2 0.00000000000000000 0.00000000000000000 0.00000000000000000 0.00000000000000000 0.00000000000000000 1.00000000000000000 1.00000000000000000 0.00000000000000000 0.00000000000000000 0.00000000000000000 1.00000000000000000 0.00000000000000000 25.39999999999999858
1 0.00000000000000000 0.00000000000000000 19.05000000000000071 0.00000000000000000 0.00000000000000000 1.00000000000000000 1.00000000000000000 0.00000000000000000 0.00000000000000000 0.00000000000000000 1.00000000000000000 0.00000000000000000 
2 0.00000000000000000 0.00000000000000000 -1.00000000000000000 0.00000000000000000 0.00000000000000000 1.00000000000000000 1.00000000000000000 0.00000000000000000 0.00000000000000000 0.00000000000000000 1.00000000000000000 0.00000000000000000 16.02499999999999858
1 0.00000000000000000 0.00000000000000000 0.00000000000000000 0.00000000000000000 0.00000000000000000 1.00000000000000000 1.00000000000000000 0.00000000000000000 0.00000000000000000 0.00000000000000000 1.00000000000000000 0.00000000000000000 
1 10.50196657628300656 -7.14133727187244460 0.00000000000000000 0.82692650206952811 -0.56231002140727915 0.00000000000000000 -0.56231002140727915 -0.82692650206952811 0.00000000000000000 0.00000000000000000 0.00000000000000000 -1.00000000000000000 
2 -107.95000000000000284 -158.75000000000000000 0.00000000000000000 0.00000000000000000 0.00000000000000000 1.00000000000000000 1.00000000000000000 0.00000000000000000 0.00000000000000000 0.00000000000000000 1.00000000000000000 0.00000000000000000 19.05000000000000071
1 -53.97500000000000853 -79.37500000000001421 0.00000000000000000 -0.00000000000000000 -0.00000000000000000 -1.00000000000000000 -1.00000000000000000 0.00000000000000000 0.00000000000000000 0.00000000000000000 1.00000000000000000 0.00000000000000000 
1 -118.45196657628301296 -151.60866272812756961 0.00000000000000000 -0.82692650206952811 0.56231002140727915 0.00000000000000000 0.56231002140727915 0.82692650206952811 0.00000000000000000 0.00000000000000000 0.00000000000000000 -1.00000000000000000 
2 -107.95000000000000284 -158.75000000000000000 0.00000000000000000 0.00000000000000000 0.00000000000000000 1.00000000000000000 1.00000000000000000 0.00000000000000000 0.00000000000000000 0.00000000000000000 1.00000000000000000 0.00000000000000000 19.05000000000000071
1 0.00000000000000000 0.00000000000000000 0.00000000000000000 0.00000000000000000 0.00000000000000000 1.00000000000000000 1.00000000000000000 0.00000000000000000 0.00000000000000000 0.00000000000000000 1.00000000000000000 0.00000000000000000 
1 -11.96012227725443466 4.27147224187658381 0.00000000000000000 -0.94174191159483744 0.33633639699815621 0.00000000000000000 0.33633639699815621 0.94174191159483744 0.00000000000000000 0.00000000000000000 0.00000000000000000 -1.00000000000000000 
2 31.75000000000000000 88.90000000000000568 0.00000000000000000 0.00000000000000000 0.00000000000000000 1.00000000000000000 1.00000000000000000 0.00000000000000000 0.00000000000000000 0.00000000000000000 1.00000000000000000 0.00000000000000000 19.05000000000000071
1 15.87500000000000000 44.45000000000000995 0.00000000000000000 -0.00000000000000000 -0.00000000000000000 -1.00000000000000000 -1.00000000000000000 0.00000000000000000 0.00000000000000000 0.00000000000000000 1.00000000000000000 0.00000000000000000 
1 43.71012227725443466 84.62852775812342543 0.00000000000000000 0.94174191159483744 -0.33633639699815621 0.00000000000000000 -0.33633639699815621 -0.94174191159483744 0.00000000000000000 0.00000000000000000 0.00000000000000000 -1.00000000000000000 
2 31.75000000000000000 88.90000000000000568 0.00000000000000000 0.00000000000000000 0.00000000000000000 1.00000000000000000 1.00000000000000000 0.00000000000000000 0.00000000000000000 0.00000000000000000 1.00000000000000000 0.00000000000000000 19.05000000000000071
1 0.00000000000000000 0.00000000000000000 0.00000000000000000 0.00000000000000000 0.00000000000000000 1.00000000000000000 1.00000000000000000 0.00000000000000000 0.00000000000000000 0.00000000000000000 1.00000000000000000 0.00000000000000000 
1 0.00000000000000000 0.00000000000000000 0.00000000000000000 0.00000000000000000 0.00000000000000000 1.00000000000000000 1.00000000000000000 0.00000000000000000 0.00000000000000000 0.00000000000000000 1.00000000000000000 0.00000000000000000 
1 -53.97500000000000853 -79.37500000000001421 0.00000000000000000 -0.00000000000000000 -0.00000000000000000 -1.00000000000000000 -1.00000000000000000 0.00000000000000000 0.00000000000000000 0.00000000000000000 1.00000000000000000 0.00000000000000000 
1 -53.97500000000000853 -79.37500000000001421 0.00000000000000000 -0.00000000000000000 -0.00000000000000000 -1.00000000000000000 -1.00000000000000000 0.00000000000000000 0.00000000000000000 0.00000000000000000 1.00000000000000000 0.00000000000000000 
2 -107.95000000000000284 -158.75000000000000000 -1.00000000000000000 0.00000000000000000 0.00000000000000000 1.00000000000000000 1.00000000000000000 0.00000000000000000 0.00000000000000000 0.00000000000000000 1.00000000000000000 0.00000000000000000 6.50000000000000000
1 15.87500000000000000 44.45000000000000995 0.00000000000000000 -0.00000000000000000 -0.00000000000000000 -1.00000000000000000 -1.00000000000000000 0.00000000000000000 0.00000000000000000 0.00000000000000000 1.00000000000000000 0.00000000000000000 
1 15.87500000000000000 44.45000000000000995 0.00000000000000000 -0.00000000000000000 -0.00000000000000000 -1.00000000000000000 -1.00000000000000000 0.00000000000000000 0.00000000000000000 0.00000000000000000 1.00000000000000000 0.00000000000000000 
2 31.75000000000000000 88.90000000000000568 -1.00000000000000000 0.00000000000000000 0.00000000000000000 1.00000000000000000 1.00000000000000000 0.00000000000000000 0.00000000000000000 0.00000000000000000 1.00000000000000000 0.00000000000000000 6.50000000000000000
1 -53.97500000000000853 -79.37500000000001421 0.00000000000000000 -0.00000000000000000 -0.00000000000000000 -1.00000000000000000 -1.00000000000000000 0.00000000000000000 0.00000000000000000 0.00000000000000000 1.00000000000000000 0.00000000000000000 
1 -107.95000000000000284 -158.75000000000000000 12.69999999999999929 0.00000000000000000 0.00000000000000000 1.00000000000000000 1.00000000000000000 0.00000000000000000 0.00000000000000000 0.00000000000000000 1.00000000000000000 0.00000000000000000 
1 -107.95000000000000284 -158.75000000000000000 0.00000000000000000 0.00000000000000000 0.00000000000000000 1.00000000000000000 1.00000000000000000 0.00000000000000000 0.00000000000000000 0.00000000000000000 1.00000000000000000 0.00000000000000000 
1 15.87500000000000000 44.45000000000000995 0.00000000000000000 -0.00000000000000000 -0.00000000000000000 -1.00000000000000000 -1.00000000000000000 0.00000000000000000 0.00000000000000000 0.00000000000000000 1.00000000000000000 0.00000000000000000 
1 31.75000000000000000 88.90000000000000568 12.69999999999999929 0.00000000000000000 0.00000000000000000 1.00000000000000000 1.00000000000000000 0.00000000000000000 0.00000000000000000 0.00000000000000000 1.00000000000000000 0.00000000000000000 
1 31.75000000000000000 88.90000000000000568 0.00000000000000000 0.00000000000000000 0.00000000000000000 1.00000000000000000 1.00000000000000000 0.00000000000000000 0.00000000000000000 0.00000000000000000 1.00000000000000000 0.00000000000000000 
Triangulations 0

TShapes 192
Ve
0.000000100000000
25.399999999999999 -0.000000000000006 19.050000000000001
0 0

0101101
*
Ed
 0.000000100000000 1 1 0
1  1 0 0.000000000000000 6.283185307179586
2  1 1 0 0.000000000000000 6.283185307179586
0

0101000
+192 3 -192 3 *
Ve
0.000000100000000
25.399999999999999 -0.000000000000006 0.000000000000000
0 0

0101101
*
Ed
 0.000000100000000 1 1 0
1  2 0 0.000000000000000 19.050000000000001
3  2 3CN 1 0 0.000000000000000 19.050000000000001
0

0101000
-192 3 +190 3 *
Ve
0.000000100000130
-1.867192412585511 -25.331276961384816 0.000000000000000
0 0

0101101
*
Ed
 0.000000100000000 1 1 0
1  3 0 4.638811097890306 6.283185307179586
2  4 1 0 4.638811097890306 6.283185307179586
0

0101000
+188 3 -190 3 *
Ve
0.000000100000007
-1.867192412585384 -25.331276961384781 12.699999999999999
0 0

0101101
*
Ed
 0.000000100000000 1 1 0
1  4 0 0.000000000000000 12.699999999999999
2  5 1 0 0.000000000000000 12.699999999999999
0

0101000
+188 3 -186 3 *
Ve
0.000000100000079
-22.871125565151345 -11.048602417639842 12.699999999999999
0 0

0101101
*
Ed
 0.000000100000000 1 1 0
1  5 0 3.591613546693712 4.638811097890311
2  6 1 0 3.591613546693712 4.638811097890311
0

0101000
+184 3 -186 3 *
Ve
0.000000100000154
-22.871125565151370 -11.048602417640058 0.000000000000000
0 0

0101101
*
Ed
 0.000000100000000 1 1 0
1  6 0 0.000000000000000 12.699999999999999
2  7 1 0 0.000000000000000 12.699999999999999
0

0101000
+182 3 -184 3 *
Ve
0.000000100000301
-4.561715331204319 24.987011690817504 0.000000000000000
0 0

0101101
*
Ed
 0.000000100000000 1 1 0
1  7 0 1.751371161972503 3.591613546693719
2  4 1 0 1.751371161972503 3.591613546693719
0

0101000
+180 3 -182 3 *
Ve
0.000000100000004
-4.561715331204056 24.987011690817646 12.699999999999999
0 0

0101101
*
Ed
 0.000000100000000 1 1 0
1  8 0 0.000000000000000 12.699999999999999
2  8 1 0 0.000000000000000 12.699999999999999
0

0101000
+180 3 -178 3 *
Ve
0.000000100000021
19.358529223304810 16.444067207064464 12.699999999999999
0 0

0101101
*
Ed
 0.000000100000000 1 1 0
1  9 0 0.704173610775894 1.751371161972492
2  9 1 0 0.704173610775894 1.751371161972492
0

0101000
+176 3 -178 3 *
Ve
0.000000100000500
19.358529223304636 16.444067207064954 0.000000000000000
0 0

0101101
*
Ed
 0.000000100000000 1 1 0
1  10 0 0.000000000000000 12.699999999999999
2  10 1 0 0.000000000000000 12.699999999999999
0

0101000
+174 3 -176 3 *
Ed
 0.000000100000000 1 1 0
1  11 0 0.000000000000000 0.704173610775913
2  4 1 0 0.000000000000000 0.704173610775913
0

0101000
+190 3 -174 3 *
Wi

0101100
-191 0 +189 0 +187 0 -185 0 +183 0 +181 0 +179 0 -177 0 +175 0 +173 0 
+172 0 -189 0 *
Fa
0  0.000000100000000 1 0

0101000
+171 0 *
Wi

0101100
+191 0 *
Ve
0.000000100000004
16.024999999999999 -0.000000000000004 19.050000000000001
0 0

0101101
*
Ed
 0.000000100000000 1 1 0
1  12 0 0.000000000000000 6.283185307179586
2  11 3 0 0.000000000000000 6.283185307179586
0

0101100
+168 3 -168 3 *
Wi

0101100
-167 0 *
Fa
0  0.000000100000000 2 0

0101000
+169 0 +166 0 *
Ve
0.000000100000014
5.006536743897774 -15.222851731262493 0.000000000000000
0 0

0101101
*
Ve
0.000000100000004
16.024999999999999 -0.000000000000004 0.000000000000000
0 0

0101101
*
Ed
 0.000000100000000 1 1 0
1  13 0 5.030128877828213 6.283185307179586
2  12 3 0 5.030128877828213 6.283185307179586
0

0101000
+164 3 -163 3 *
Ve
0.000000100000026
15.247122329565251 4.932127904593699 0.000000000000000
0 0

0101101
*
Ed
 0.000000100000000 1 1 0
1  14 0 0.000000000000000 0.312855830837990
2  13 3 0 0.000000000000000 0.312855830837990
0

0101000
+163 3 -161 3 *
Ed
 0.000000100000000 1 1 0
1  15 0 72.402491289347381 84.626582795454098
0

0101000
+174 3 -161 3 *
Ed
 0.000000100000000 1 1 0
1  16 0 9.772953750018466 21.997045256124839
0

0101000
+164 3 -188 3 *
Wi

0101100
-162 0 -160 0 +159 0 +172 0 +187 0 +158 0 *
Fa
0  0.000000100000000 4 0

0101000
+157 0 *
Ve
0.000000100000913
-89.463775628637237 -154.149781690873567 0.000000000000000
0 0

0101101
*
Ed
 0.000000100000000 1 1 0
1  17 0 21.997045256124839 177.776917357330490
0

0101000
+188 3 -155 3 *
Ve
0.000000100000913
-89.463775628637237 -154.149781690873567 12.699999999999999
0 0

0101101
*
Ed
 0.000000100000000 1 1 0
1  18 0 0.000000000000000 12.699999999999999
2  14 6 0 0.000000000000000 12.699999999999999
0

0101000
+155 3 -153 3 *
Ed
 0.000000100000000 1 1 0
1  19 0 21.997045256124739 177.776917357330490
0

0101000
+186 5 -153 5 *
Wi

0101100
-154 0 -152 0 +151 4 +185 0 *
Fa
0  0.000000100000000 5 0

0101000
+150 0 *
Ve
0.000000100000318
-110.467708781203442 -139.867107147127939 12.699999999999999
0 0

0101101
*
Ed
 0.000000100000000 1 1 0
1  20 0 14.199031657123399 169.978903758328727
0

0101000
+148 5 -184 5 *
Ed
 0.000000100000000 1 1 0
1  21 0 0.243892012475208 1.703347324929201
0

0101000
+153 3 -148 3 *
Wi

0101100
+147 4 +146 0 +151 4 +183 0 *
Fa
0  0.000000100000000 7 4

0101000
+145 0 *
Ve
0.000000100000318
-110.467708781203442 -139.867107147127939 0.000000000000000
0 0

0101101
*
Ed
 0.000000100000000 1 1 0
1  22 0 14.199031657123399 169.978903758328499
0

0101000
+143 3 -182 3 *
Ed
 0.000000100000000 1 1 0
1  23 0 0.000000000000000 12.699999999999999
2  15 9 0 0.000000000000000 12.699999999999999
0

0101000
+143 3 -148 3 *
Wi

0101100
-142 0 -181 0 +147 4 +141 0 *
Fa
0  0.000000100000000 8 0

0101000
+140 0 *
Ve
0.000000100000002
-8.673122224943604 13.475072388346907 0.000000000000000
0 0

0101101
*
Ve
0.000000100000140
-15.997396408668109 -0.940177187517406 0.000000000000000
0 0

0101101
*
Ed
 0.000000100000000 1 1 0
1  24 0 2.142688941910394 3.200295766755799
2  16 3 0 2.142688941910394 3.200295766755799
0

0101000
+138 3 -137 3 *
Ed
 0.000000100000000 1 1 0
1  25 0 169.978903758328499 182.202995264435174
0

0101000
+182 3 -137 3 *
Ed
 0.000000100000000 1 1 0
1  26 0 9.772953750018464 21.997045256124515
0

0101000
+138 3 -180 3 *
Wi

0101100
-136 0 +135 0 +179 0 +134 0 *
Fa
0  0.000000100000000 10 0

0101000
+133 0 *
Ve
0.000000100000187
15.014226574325860 79.799649026301154 0.000000000000000
0 0

0101101
*
Ed
 0.000000100000000 1 1 0
1  27 0 21.997045256124515 80.200504888348689
0

0101000
+180 3 -131 3 *
Ve
0.000000100000187
15.014226574325860 79.799649026301154 12.699999999999999
0 0

0101101
*
Ed
 0.000000100000000 1 1 0
1  28 0 0.000000000000000 12.699999999999999
2  17 12 0 0.000000000000000 12.699999999999999
0

0101000
+131 3 -129 3 *
Ed
 0.000000100000000 1 1 0
1  29 0 21.997045256124736 80.200504888348689
0

0101000
+178 7 -129 7 *
Wi

0101100
-130 0 -128 0 +127 6 +177 0 *
Fa
0  0.000000100000000 11 0

0101000
+126 0 *
Ve
0.000000100000393
38.934471128834396 71.256704542547908 12.699999999999999
0 0

0101101
*
Ed
 0.000000100000000 1 1 0
1  30 0 14.199031657124017 72.402491289347793
0

0101000
+124 7 -176 7 *
Ed
 0.000000100000000 1 1 0
1  31 0 3.639637383737029 5.099092696190932
0

0101000
+129 3 -124 3 *
Wi

0101100
+123 6 +122 0 +127 6 +175 0 *
Fa
0  0.000000100000000 13 6

0101000
+121 0 *
Ve
0.000000100000393
38.934471128834396 71.256704542547908 0.000000000000000
0 0

0101101
*
Ed
 0.000000100000000 1 1 0
1  32 0 14.199031657124017 72.402491289347381
0

0101000
+119 3 -174 3 *
Ed
 0.000000100000000 1 1 0
1  33 0 0.000000000000000 12.699999999999999
2  18 15 0 0.000000000000000 12.699999999999999
0

0101000
+119 3 -124 3 *
Wi

0101100
-118 0 -173 0 +123 6 +117 0 *
Fa
0  0.000000100000000 14 0

0101000
+116 0 *
Ed
 0.000000100000000 1 1 0
1  34 0 1.000000000000000 20.050000000000001
3  19 20CN 3 0 1.000000000000000 20.050000000000001
0

0101000
+163 3 -168 3 *
Ed
 0.000000100000000 1 1 0
1  35 0 3.200295766755800 5.030128877828214
2  21 3 0 3.200295766755800 5.030128877828214
0

0101000
+137 3 -164 3 *
Ed
 0.000000100000000 1 1 0
1  36 0 0.312855830837990 2.142688941910394
2  22 3 0 0.312855830837990 2.142688941910394
0

0101000
+161 3 -138 3 *
Wi

0101100
-167 0 +114 0 +162 0 +113 0 +136 0 +112 0 +160 0 -114 0 *
Fa
0  0.000000100000000 3 0

0101000
+111 0 *
Ed
 0.000000100000000 1 1 0
1  37 0 0.704173610775913 1.751371161972503
0

0101000
+174 3 -180 3 *
Wi

0101100
-159 0 -112 0 -134 0 +109 0 *
Fa
0  0.000000100000000 16 0

0101000
+108 0 *
Ed
 0.000000100000000 1 1 0
1  38 0 3.591613546693719 4.638811097890306
0

0101000
+182 3 -188 3 *
Wi

0101100
-135 0 -113 0 -158 0 +106 0 *
Fa
0  0.000000100000000 17 0

0101000
+105 0 *
Ed
 0.000000100000000 1 1 0
1  39 0 0.243892012475208 1.703347324929201
0

0101000
+155 3 -143 3 *
Wi

0101100
+142 0 +103 0 +154 0 +106 0 *
Fa
0  0.000000100000000 18 0

0101000
+102 0 *
Ve
0.000000100000000
-88.900000000000006 -158.750000000000000 12.699999999999999
0 0

0101101
*
Ed
 0.000000100000000 1 1 0
1  40 0 0.000000000000000 0.243892012475208
2  23 6 0 0.000000000000000 0.243892012475208
0

0101000
+100 3 -153 3 *
Ve
0.000000100000000
-88.900000000000006 -158.750000000000000 0.000000000000000
0 0

0101101
*
Ed
 0.000000100000000 1 1 0
1  41 0 0.000000000000000 0.243892012475208
2  24 6 0 0.000000000000000 0.243892012475208
0

0101000
+98 3 -155 3 *
Ed
 0.000000100000000 1 1 0
1  42 0 0.000000000000000 12.699999999999999
2  25 6 0 0.000000000000000 12.699999999999999
2  26 9 0 0.000000000000000 12.699999999999999
4 CN 6 0 9 0
0

0101000
-100 3 +98 3 *
Wi

0101100
-99 0 +152 0 +97 0 -96 0 *
Fa
0  0.000000100000000 6 0

0101000
+95 0 *
Ve
0.000000100000473
-113.325022263452340 -155.094984860852435 12.699999999999999
0 0

0101101
*
Ve
0.000000100000000
-118.451966576283013 -151.608662728127570 12.699999999999999
0 0

0101101
*
Ed
 0.000000100000000 1 1 0
1  43 0 19.200000000000472 25.399999999999988
0

0101000
+93 5 -92 5 *
Ve
0.000000100000000
-101.450000000000003 -158.750000000000000 12.699999999999999
0 0

0101101
*
Ed
 0.000000100000000 1 1 0
1  44 0 0.000000000000000 2.544415995497118
2  27 20 0 0.000000000000000 2.544415995497118
0

0101000
+90 3 -93 3 *
Ve
0.000000100000501
-102.574977736547666 -162.405015139147594 12.699999999999999
0 0

0101101
*
Ed
 0.000000100000000 1 1 0
1  45 0 5.686008649086908 6.283185307179586
2  27 20 0 5.686008649086908 6.283185307179586
0

0101000
+88 3 -90 3 *
Ve
0.000000100000000
-97.448033423716993 -165.891337271872430 12.699999999999999
0 0

0101101
*
Ed
 0.000000100000000 1 1 0
1  46 0 0.000000000000000 6.199999999999504
0

0101000
+86 5 -88 5 *
Ed
 0.000000100000000 1 1 0
1  47 0 177.776917357330490 191.975949014453363
0

0101000
+153 5 -86 5 *
Ed
 0.000000100000000 1 1 0
1  48 0 0.000000000000000 14.199031657123399
0

0101000
+92 5 -148 5 *
Wi

0101100
+91 4 +89 0 +87 0 +85 4 +84 4 -146 0 +83 4 *
Fa
0  0.000000100000000 19 4

0101000
+82 0 *
Ed
 0.000000100000000 1 1 0
1  49 0 1.703347324929201 6.283185307179586
2  24 9 0 1.703347324929201 6.283185307179586
0

0101000
+143 3 -98 3 *
Ed
 0.000000100000000 1 1 0
1  50 0 1.703347324929201 6.283185307179586
2  23 9 0 1.703347324929201 6.283185307179586
0

0101000
+148 3 -100 3 *
Wi

0101100
+96 0 +80 0 -141 0 -79 0 *
Fa
0  0.000000100000000 9 0

0101000
+78 0 *
Ed
 0.000000100000000 1 1 0
1  51 0 3.639637383737029 5.099092696190932
0

0101000
+131 3 -119 3 *
Wi

0101100
+118 0 +76 0 +130 0 +109 0 *
Fa
0  0.000000100000000 21 0

0101000
+75 0 *
Ve
0.000000100000000
50.799999999999997 88.900000000000006 12.699999999999999
0 0

0101101
*
Ed
 0.000000100000000 1 1 0
1  52 0 0.000000000000000 3.639637383737029
2  28 12 0 0.000000000000000 3.639637383737029
0

0101000
+73 3 -129 3 *
Ve
0.000000100000000
50.799999999999997 88.900000000000006 0.000000000000000
0 0

0101101
*
Ed
 0.000000100000000 1 1 0
1  53 0 0.000000000000000 3.639637383737029
2  29 12 0 0.000000000000000 3.639637383737029
0

0101000
+71 3 -131 3 *
Ed
 0.000000100000000 1 1 0
1  54 0 0.000000000000000 12.699999999999999
2  30 12 0 0.000000000000000 12.699999999999999
2  31 15 0 0.000000000000000 12.699999999999999
4 CN 12 0 15 0
0

0101000
-73 3 +71 3 *
Wi

0101100
-72 0 +128 0 +70 0 -69 0 *
Fa
0  0.000000100000000 12 0

0101000
+68 0 *
Ve
0.000000100000211
37.871322425366643 86.713813419511922 12.699999999999999
0 0

0101101
*
Ve
0.000000100000000
43.710122277254435 84.628527758123425 12.699999999999999
0 0

0101101
*
Ed
 0.000000100000000 1 1 0
1  55 0 19.200000000000205 25.399999999999999
0

0101000
+66 7 -65 7 *
Ve
0.000000100000208
25.628677574633361 91.086186580488089 12.699999999999999
0 0

0101101
*
Ed
 0.000000100000000 1 1 0
1  56 0 2.798568713169090 5.940161366758884
2  32 23 0 2.798568713169090 5.940161366758884
0

0101000
+63 3 -66 3 *
Ve
0.000000100000000
19.789877722745565 93.171472241876586 12.699999999999999
0 0

0101101
*
Ed
 0.000000100000000 1 1 0
1  57 0 0.000000000000000 6.199999999999791
0

0101000
+61 7 -63 7 *
Ed
 0.000000100000000 1 1 0
1  58 0 80.200504888348689 94.399536545472515
0

0101000
+129 7 -61 7 *
Ed
 0.000000100000000 1 1 0
1  59 0 0.000000000000000 14.199031657124017
0

0101000
+65 7 -124 7 *
Wi

0101100
+64 6 +62 0 +60 6 +59 6 -122 0 +58 6 *
Fa
0  0.000000100000000 22 6

0101000
+57 0 *
Ed
 0.000000100000000 1 1 0
1  60 0 5.099092696190932 6.283185307179586
2  29 15 0 5.099092696190932 6.283185307179586
0

0101000
+119 3 -71 3 *
Ed
 0.000000100000000 1 1 0
1  61 0 5.099092696190932 6.283185307179586
2  28 15 0 5.099092696190932 6.283185307179586
0

0101000
+124 3 -73 3 *
Wi

0101100
+69 0 +55 0 -117 0 -54 0 *
Fa
0  0.000000100000000 15 0

0101000
+53 0 *
Ve
0.000000100000473
-113.325022263452340 -155.094984860852435 0.000000000000000
0 0

0101101
*
Ve
0.000000100000000
-118.451966576283013 -151.608662728127570 0.000000000000000
0 0

0101101
*
Ed
 0.000000100000000 1 1 0
1  62 0 19.200000000000472 25.399999999999988
0

0101000
+51 3 -50 3 *
Ve
0.000000100000000
-101.450000000000003 -158.750000000000000 0.000000000000000
0 0

0101101
*
Ed
 0.000000100000000 1 1 0
1  63 0 0.000000000000000 2.544415995497118
2  33 20 0 0.000000000000000 2.544415995497118
0

0101000
+48 3 -51 3 *
Ve
0.000000100000501
-102.574977736547666 -162.405015139147594 0.000000000000000
0 0

0101101
*
Ed
 0.000000100000000 1 1 0
1  64 0 5.686008649086908 6.283185307179586
2  33 20 0 5.686008649086908 6.283185307179586
0

0101000
+46 3 -48 3 *
Ve
0.000000100000000
-97.448033423716993 -165.891337271872430 0.000000000000000
0 0

0101101
*
Ed
 0.000000100000000 1 1 0
1  65 0 0.000000000000000 6.199999999999504
0

0101000
+44 3 -46 3 *
Ed
 0.000000100000000 1 1 0
1  66 0 177.776917357330490 191.975949014453363
0

0101000
+155 3 -44 3 *
Ed
 0.000000100000000 1 1 0
1  67 0 0.000000000000000 14.199031657123399
0

0101000
+50 3 -143 3 *
Wi

0101100
+49 0 +47 0 +45 0 +43 0 +42 0 -103 0 +41 0 *
Fa
0  0.000000100000000 24 0

0101000
+40 0 *
Ed
 0.000000100000000 1 1 0
1  68 0 2.544415995497118 5.686008649086908
2  34 20 0 2.544415995497118 5.686008649086908
0

0101000
+93 3 -88 3 *
Wi

0101100
+83 4 +91 4 -38 0 +85 4 +84 4 +99 0 +79 0 *
Fa
0  0.000000100000000 25 0

0101000
+37 0 *
Ed
 0.000000100000000 1 1 0
1  69 0 2.544415995497118 5.686008649086908
2  35 20 0 2.544415995497118 5.686008649086908
0

0101000
+51 3 -46 3 *
Wi

0101100
+41 0 +49 0 -35 0 +43 0 +42 0 +97 0 +80 0 *
Fa
0  0.000000100000000 26 0

0101000
+34 0 *
Ed
 0.000000100000000 1 1 0
1  70 0 1.000000000000000 13.699999999999999
3  36 37CN 20 0 1.000000000000000 13.699999999999999
0

0101000
+48 3 -90 3 *
Wi

0101100
-89 0 -38 0 -87 0 +32 0 +45 0 +35 0 +47 0 -32 0 *
Fa
0  0.000000100000000 20 0

0101000
+31 0 *
Ve
0.000000100000211
37.871322425366643 86.713813419511922 0.000000000000000
0 0

0101101
*
Ve
0.000000100000000
43.710122277254435 84.628527758123425 0.000000000000000
0 0

0101101
*
Ed
 0.000000100000000 1 1 0
1  71 0 19.200000000000205 25.399999999999999
0

0101000
+29 3 -28 3 *
Ve
0.000000100000208
25.628677574633361 91.086186580488089 0.000000000000000
0 0

0101101
*
Ed
 0.000000100000000 1 1 0
1  72 0 2.798568713169090 5.940161366758884
2  38 23 0 2.798568713169090 5.940161366758884
0

0101000
+26 3 -29 3 *
Ve
0.000000100000000
19.789877722745565 93.171472241876586 0.000000000000000
0 0

0101101
*
Ed
 0.000000100000000 1 1 0
1  73 0 0.000000000000000 6.199999999999791
0

0101000
+24 3 -26 3 *
Ed
 0.000000100000000 1 1 0
1  74 0 80.200504888348689 94.399536545472515
0

0101000
+131 3 -24 3 *
Ed
 0.000000100000000 1 1 0
1  75 0 0.000000000000000 14.199031657124017
0

0101000
+28 3 -119 3 *
Wi

0101100
+27 0 +25 0 +23 0 +22 0 -76 0 +21 0 *
Fa
0  0.000000100000000 27 0

0101000
+20 0 *
Ve
0.000000100000000
38.250000000000000 88.900000000000006 12.699999999999999
0 0

0101101
*
Ed
 0.000000100000000 1 1 0
1  76 0 5.940161366758884 6.283185307179586
2  39 23 0 5.940161366758884 6.283185307179586
0

0101000
+66 3 -18 3 *
Ed
 0.000000100000000 1 1 0
1  77 0 0.000000000000000 2.798568713169090
2  39 23 0 0.000000000000000 2.798568713169090
0

0101000
+18 3 -63 3 *
Wi

0101100
+58 6 +64 6 -17 0 -16 0 +60 6 +59 6 +72 0 +54 0 *
Fa
0  0.000000100000000 28 0

0101000
+15 0 *
Ve
0.000000100000000
38.250000000000000 88.900000000000006 0.000000000000000
0 0

0101101
*
Ed
 0.000000100000000 1 1 0
1  78 0 5.940161366758884 6.283185307179586
2  40 23 0 5.940161366758884 6.283185307179586
0

0101000
+29 3 -13 3 *
Ed
 0.000000100000000 1 1 0
1  79 0 0.000000000000000 2.798568713169090
2  40 23 0 0.000000000000000 2.798568713169090
0

0101000
+13 3 -26 3 *
Wi

0101100
+21 0 +27 0 -12 0 -11 0 +23 0 +22 0 +70 0 +55 0 *
Fa
0  0.000000100000000 29 0

0101000
+10 0 *
Ed
 0.000000100000000 1 1 0
1  80 0 1.000000000000000 13.699999999999999
3  41 42CN 23 0 1.000000000000000 13.699999999999999
0

0101000
+13 3 -18 3 *
Wi

0101100
-16 0 -62 0 -17 0 +8 0 +12 0 +25 0 +11 0 -8 0 *
Fa
0  0.000000100000000 23 0

0101000
+7 0 *
Sh

0101100
+170 0 +165 0 -156 0 +149 0 -144 0 +139 0 -132 0 +125 0 -120 0 +115 0 
-110 0 -107 0 -104 0 +101 0 +94 0 -81 0 +77 0 +74 0 +67 0 -56 0 
+52 0 +39 0 +36 0 -33 0 -30 0 +19 0 +14 0 -9 0 -6 0 *
So

0100000
+5 0 *
Co

0100000
+4 0 *
Co

0100000
+3 0 *
Co

1100000
+2 0 *

+1 1 