DBRep_DrawableShape

CASCADE Topology V1, (c) Matra-Datavision
Locations 0
Curve2ds 0
Curves 4
1 1719.4946420457636 222.25 936.60294117647049 1 0 0 
1 1607.4946420457636 222.25 900.60294117647038 0 0 1 
2 1831.4946420457636 222.25 900.60294117647049 0 1 0 0 -0 1 1 0 -0 208
1 1719.4946420457636 222.25 864.60294117647049 1 0 0 
Polygon3D 0
PolygonOnTriangulations 0
Surfaces 0
Triangulations 0

TShapes 9
Ve
2.5e-07
1607.49464204576 222.25 936.60294117647
0 0

0101101
*
Ve
1.5e-07
1626.63371360893 222.25 936.60294117647
0 0

0101101
*
Ed
 1.5e-07 1 1 0
1  1 0 -112 -92.8609284368301
0

0101000
+9 0 -8 0 *
Ve
2.5e-07
1607.49464204576 222.25 864.60294117647
0 0

0101101
*
Ed
 2.5e-07 1 1 0
1  2 0 -35.9999999999999 36.0000000000001
0

0101000
+6 0 -9 0 *
Ve
1.5e-07
1626.63371360893 222.25 864.60294117647
0 0

0101101
*
Ed
 1e-07 1 1 0
1  3 0 4.53843609266861 4.88634186810077
0

0101000
+4 0 -8 0 *
Ed
 1.5e-07 1 1 0
1  4 0 -112 -92.8609284368301
0

0101000
+6 0 -4 0 *
Co

1100000
+7 0 +5 0 +3 0 +2 0 *

+1 0 