DBRep_DrawableShape

CASCADE Topology V1, (c) Matra-Datavision
Locations 1
1
              1               0               0               0 
              0               1               0               0 
              0               0               1          7.9375 
Curve2ds 6
2 1.4356326850807597e-16 -1.4356326850807597e-16 1 0 -0 1 4.8624999999999998
1 0 1 1 0 
2 1.4356326850807597e-16 -1.4356326850807597e-16 1 0 -0 1 4.8624999999999998
1 0 8.9375 1 0 
1 6.2831853071795862 -0 0 1 
1 0 -0 0 1 
Curves 15
1 8.2488919710467776 0 0 0 0 1 
1 4.1244459855233897 7.1437499999999989 0 0 0 1 
1 8.2488919710467776 0 0 -0.5 0.86602540378443871 0 
1 4.1244459855233897 -7.1437499999999989 0 0 0 1 
1 4.1244459855233897 -7.1437499999999989 0 0.5 0.86602540378443871 0 
1 -4.124445985523387 7.1437499999999998 0 0 0 1 
1 4.1244459855233897 7.1437499999999989 0 -1 1.0767245138105696e-16 0 
1 -4.1244459855233924 -7.1437499999999972 0 1 -2.1534490276211382e-16 0 
1 -4.124445985523387 7.1437499999999998 0 -0.50000000000000022 -0.8660254037844386 0 
1 -8.2488919710467776 1.0101979148854737e-15 0 0.49999999999999978 -0.86602540378443882 0 
2 0 0 0 0 0 1 1 0 -0 -0 1 0 4.8624999999999998
2 0 0 7.9375 0 0 1 1 0 -0 -0 1 0 4.8624999999999998
1 -4.1244459855233924 -7.1437499999999972 0 0 0 1 
1 -8.2488919710467776 1.0101979148854737e-15 0 0 0 1 
1 4.8624999999999998 -1.1909690121708009e-15 -1 0 0 1 
Polygon3D 0
PolygonOnTriangulations 0
Surfaces 8
1 8.2488919710467776 0 0 -0.86602540378443871 -0.5 0 -0.5 0.86602540378443871 0 -0 0 -1 
1 4.1244459855233897 -7.1437499999999989 0 -0.86602540378443871 0.5 0 0.5 0.86602540378443871 0 0 0 -1 
1 4.1244459855233897 7.1437499999999989 0 -1.0767245138105696e-16 -1 0 -1 1.0767245138105696e-16 0 -0 0 -1 
1 -1.4356326850807597e-16 1.4356326850807597e-16 0 0 0 1 1 0 -0 -0 1 0 
2 0 0 -1 0 0 1 1 0 -0 -0 1 0 4.8624999999999998
1 -4.1244459855233924 -7.1437499999999972 0 2.1534490276211382e-16 1 -0 1 -2.1534490276211382e-16 0 0 -0 -1 
1 -4.124445985523387 7.1437499999999998 0 0.8660254037844386 -0.50000000000000022 0 -0.50000000000000022 -0.8660254037844386 0 0 -0 -1 
1 -8.2488919710467776 1.0101979148854737e-15 0 0.86602540378443882 0.49999999999999978 -0 0.49999999999999978 -0.86602540378443882 0 0 -0 -1 
Triangulations 0

TShapes 46
Ve
1e-07
8.24889197104678 0 0
0 0

0101101
*
Ed
 1e-07 1 1 0
1  1 0 0 7.9375
0

0101000
+46 0 -46 1 *
Ve
1e-07
4.12444598552339 7.14375 0
0 0

0101101
*
Ed
 1e-07 1 1 0
1  2 0 0 7.9375
0

0101000
+44 0 -44 1 *
Ed
 1e-07 1 1 0
1  3 0 0 8.24889197104678
0

0101000
+46 0 -44 0 *
Wi

0101100
+45 0 -43 0 -42 0 +42 1 *
Fa
0  1e-07 1 0

0101000
+41 0 *
Ve
1e-07
4.12444598552339 -7.14375 0
0 0

0101101
*
Ed
 1e-07 1 1 0
1  4 0 0 7.9375
0

0101000
+39 0 -39 1 *
Ed
 1e-07 1 1 0
1  5 0 0 8.24889197104678
0

0101000
+39 0 -46 0 *
Wi

0101100
+38 0 -45 0 -37 0 +37 1 *
Fa
0  1e-07 2 0

0101000
+36 0 *
Ve
1e-07
-4.12444598552339 7.14375 0
0 0

0101101
*
Ed
 1e-07 1 1 0
1  6 0 0 7.9375
0

0101000
+34 0 -34 1 *
Ed
 1e-07 1 1 0
1  7 0 0 8.24889197104678
0

0101000
+44 0 -34 0 *
Wi

0101100
+43 0 -33 0 -32 0 +32 1 *
Fa
0  1e-07 3 0

0101000
+31 0 *
Ve
1e-07
-4.12444598552339 -7.14375 0
0 0

0101101
*
Ed
 1e-07 1 1 0
1  8 0 0 8.24889197104678
0

0101000
+29 0 -39 0 *
Ve
1e-07
-8.24889197104678 1.01019791488547e-15 0
0 0

0101101
*
Ed
 1e-07 1 1 0
1  9 0 0 8.24889197104678
0

0101000
+34 0 -27 0 *
Ed
 1e-07 1 1 0
1  10 0 0 8.24889197104677
0

0101000
+27 0 -29 0 *
Wi

0101100
+42 0 +37 0 +32 0 +28 0 +26 0 +25 0 *
Ve
1.00000001190969e-07
4.8625 -1.1909690121708e-15 0
0 0

0101101
*
Ed
 1e-07 1 1 0
1  11 0 0 6.28318530717959
2  1 4 0 0 6.28318530717959
2  2 5 0 0 6.28318530717959
0

0101100
+23 0 -23 0 *
Wi

0101100
-22 0 *
Fa
0  1e-07 4 0

0101000
+24 0 +21 0 *
Wi

0101100
+42 1 +37 1 +32 1 +28 1 +26 1 +25 1 *
Ve
1.00000001190969e-07
4.8625 -1.1909690121708e-15 7.9375
0 0

0101101
*
Ed
 1e-07 1 1 0
1  12 0 0 6.28318530717959
2  3 4 1 0 6.28318530717959
2  4 5 0 0 6.28318530717959
0

0101100
+18 0 -18 0 *
Wi

0101100
-17 0 *
Fa
0  1e-07 4 1

0101000
+19 0 +16 0 *
Ed
 1e-07 1 1 0
1  13 0 0 7.9375
0

0101000
+29 0 -29 1 *
Wi

0101100
+14 0 -38 0 -28 0 +28 1 *
Fa
0  1e-07 6 0

0101000
+13 0 *
Ed
 1e-07 1 1 0
1  14 0 0 7.9375
0

0101000
+27 0 -27 1 *
Wi

0101100
+33 0 -11 0 -26 0 +26 1 *
Fa
0  1e-07 7 0

0101000
+10 0 *
Wi

0101100
+11 0 -14 0 -25 0 +25 1 *
Fa
0  1e-07 8 0

0101000
+8 0 *
Ed
 1e-07 1 1 0
1  15 0 1 8.9375
3  5 6CN 5 0 1 8.9375
0

0101000
+23 0 -18 0 *
Wi

0101100
-17 0 +6 0 +22 0 -6 0 *
Fa
0  1e-07 5 0

0101000
+5 0 *
Sh

0101100
-40 0 -35 0 -30 0 -20 0 +15 0 -12 0 -9 0 -7 0 -4 0 *
So

0100000
+3 0 *
Co

1100000
+2 0 *

+1 0 