
CASCADE Topology V1, (c) Matra-Datavision
Locations 5
1
1.000000000000000 0.000000000000000 0.000000000000000 0.000000000000000 
0.000000000000000 1.000000000000000 0.000000000000000 0.000000000000000 
0.000000000000000 0.000000000000000 1.000000000000000 0.000000000000000 
1
1.000000000000000 0.000000000000000 0.000000000000000 0.000000000000000 
0.000000000000000 1.000000000000000 0.000000000000000 0.000000000000000 
0.000000000000000 0.000000000000000 1.000000000000000 0.000000000000000 
2  2 -1 0
1
1.000000000000000 0.000000000000000 0.000000000000000 0.000000000000000 
0.000000000000000 1.000000000000000 0.000000000000000 2200.000000000000000 
0.000000000000000 0.000000000000000 1.000000000000000 0.000000000000000 
2  2 -1 4 -1 0
Curve2ds 48
1 0.00000000000000000 1.00000000000000000 1.00000000000000000 0.00000000000000000 
1 0.00000000000000000 1.00000000000000000 1.00000000000000000 0.00000000000000000 
1 0.00000000000000000 1.00000000000000000 1.00000000000000000 0.00000000000000000 
1 0.00000000000000000 1.00000000000000000 1.00000000000000000 0.00000000000000000 
1 0.00000000000000000 1.00000000000000000 1.00000000000000000 0.00000000000000000 
1 0.00000000000000000 1.00000000000000000 1.00000000000000000 0.00000000000000000 
1 0.00000000000000000 1.00000000000000000 1.00000000000000000 0.00000000000000000 
1 0.00000000000000000 1.00000000000000000 1.00000000000000000 0.00000000000000000 
1 0.00000000000000000 1.00000000000000000 1.00000000000000000 0.00000000000000000 
1 0.00000000000000000 1.00000000000000000 1.00000000000000000 0.00000000000000000 
1 0.00000000000000000 1.00000000000000000 1.00000000000000000 0.00000000000000000 
1 0.00000000000000000 1.00000000000000000 1.00000000000000000 0.00000000000000000 
1 0.00000000000000000 7.34999999999999432 1.00000000000000000 0.00000000000000000 
1 6.28318530717958623 -0.00000000000000000 0.00000000000000000 1.00000000000000000 
1 0.00000000000000000 -0.00000000000000000 0.00000000000000000 1.00000000000000000 
1 0.00000000000000000 7.34999999999999432 1.00000000000000000 0.00000000000000000 
1 6.28318530717958623 -0.00000000000000000 0.00000000000000000 1.00000000000000000 
1 0.00000000000000000 -0.00000000000000000 0.00000000000000000 1.00000000000000000 
1 0.00000000000000000 7.34999999999999432 1.00000000000000000 0.00000000000000000 
1 6.28318530717958623 -0.00000000000000000 0.00000000000000000 1.00000000000000000 
1 0.00000000000000000 -0.00000000000000000 0.00000000000000000 1.00000000000000000 
1 0.00000000000000000 7.34999999999999432 1.00000000000000000 0.00000000000000000 
1 6.28318530717958623 -0.00000000000000000 0.00000000000000000 1.00000000000000000 
1 0.00000000000000000 -0.00000000000000000 0.00000000000000000 1.00000000000000000 
1 0.00000000000000000 7.34999999999999432 1.00000000000000000 0.00000000000000000 
1 6.28318530717958623 -0.00000000000000000 0.00000000000000000 1.00000000000000000 
1 0.00000000000000000 -0.00000000000000000 0.00000000000000000 1.00000000000000000 
1 0.00000000000000000 7.34999999999999432 1.00000000000000000 0.00000000000000000 
1 6.28318530717958623 -0.00000000000000000 0.00000000000000000 1.00000000000000000 
1 0.00000000000000000 -0.00000000000000000 0.00000000000000000 1.00000000000000000 
1 0.00000000000000000 7.34999999999999432 1.00000000000000000 0.00000000000000000 
1 6.28318530717958623 -0.00000000000000000 0.00000000000000000 1.00000000000000000 
1 0.00000000000000000 -0.00000000000000000 0.00000000000000000 1.00000000000000000 
1 0.00000000000000000 7.34999999999999432 1.00000000000000000 0.00000000000000000 
1 6.28318530717958623 -0.00000000000000000 0.00000000000000000 1.00000000000000000 
1 0.00000000000000000 -0.00000000000000000 0.00000000000000000 1.00000000000000000 
1 0.00000000000000000 7.34999999999999432 1.00000000000000000 0.00000000000000000 
1 6.28318530717958623 -0.00000000000000000 0.00000000000000000 1.00000000000000000 
1 0.00000000000000000 -0.00000000000000000 0.00000000000000000 1.00000000000000000 
1 0.00000000000000000 7.34999999999999432 1.00000000000000000 0.00000000000000000 
1 6.28318530717958623 -0.00000000000000000 0.00000000000000000 1.00000000000000000 
1 0.00000000000000000 -0.00000000000000000 0.00000000000000000 1.00000000000000000 
1 0.00000000000000000 7.34999999999999432 1.00000000000000000 0.00000000000000000 
1 6.28318530717958623 -0.00000000000000000 0.00000000000000000 1.00000000000000000 
1 0.00000000000000000 -0.00000000000000000 0.00000000000000000 1.00000000000000000 
1 0.00000000000000000 7.34999999999999432 1.00000000000000000 0.00000000000000000 
1 6.28318530717958623 -0.00000000000000000 0.00000000000000000 1.00000000000000000 
1 0.00000000000000000 -0.00000000000000000 0.00000000000000000 1.00000000000000000 
Curves 60
1 -76.20000000000000284 -1100.00000000000000000 0.00000000000000000 0.00000000000000000 1.00000000000000000 0.00000000000000000 
1 -76.20000000000000284 -1100.00000000000000000 0.00000000000000000 0.00000000000000000 0.00000000000000000 1.00000000000000000 
1 -76.20000000000000284 -1100.00000000000000000 0.00000000000000000 0.00000000000000000 0.00000000000000000 1.00000000000000000 
1 -76.20000000000000284 -1100.00000000000000000 50.79999999999999716 0.00000000000000000 1.00000000000000000 0.00000000000000000 
2 -76.20000000000000284 741.75000000000000000 25.39999999999999858 1.00000000000000000 0.00000000000000000 -0.00000000000000000 0.00000000000000000 0.00000000000000000 1.00000000000000000 0.00000000000000000 -1.00000000000000000 0.00000000000000000 6.50000000000000000
2 -76.20000000000000284 710.00000000000000000 25.39999999999999858 1.00000000000000000 0.00000000000000000 -0.00000000000000000 0.00000000000000000 0.00000000000000000 1.00000000000000000 0.00000000000000000 -1.00000000000000000 0.00000000000000000 6.50000000000000000
2 -76.20000000000000284 678.25000000000000000 25.39999999999999858 1.00000000000000000 0.00000000000000000 -0.00000000000000000 0.00000000000000000 0.00000000000000000 1.00000000000000000 0.00000000000000000 -1.00000000000000000 0.00000000000000000 6.50000000000000000
2 -76.20000000000000284 481.75000000000000000 25.39999999999999858 1.00000000000000000 0.00000000000000000 -0.00000000000000000 0.00000000000000000 0.00000000000000000 1.00000000000000000 0.00000000000000000 -1.00000000000000000 0.00000000000000000 6.50000000000000000
2 -76.20000000000000284 450.00000000000000000 25.39999999999999858 1.00000000000000000 0.00000000000000000 -0.00000000000000000 0.00000000000000000 0.00000000000000000 1.00000000000000000 0.00000000000000000 -1.00000000000000000 0.00000000000000000 6.50000000000000000
2 -76.20000000000000284 418.25000000000000000 25.39999999999999858 1.00000000000000000 0.00000000000000000 -0.00000000000000000 0.00000000000000000 0.00000000000000000 1.00000000000000000 0.00000000000000000 -1.00000000000000000 0.00000000000000000 6.50000000000000000
2 -76.20000000000000284 -418.25000000000000000 25.39999999999999858 1.00000000000000000 0.00000000000000000 -0.00000000000000000 0.00000000000000000 0.00000000000000000 1.00000000000000000 0.00000000000000000 -1.00000000000000000 0.00000000000000000 6.50000000000000000
2 -76.20000000000000284 -450.00000000000000000 25.39999999999999858 1.00000000000000000 0.00000000000000000 -0.00000000000000000 0.00000000000000000 0.00000000000000000 1.00000000000000000 0.00000000000000000 -1.00000000000000000 0.00000000000000000 6.50000000000000000
2 -76.20000000000000284 -481.75000000000000000 25.39999999999999858 1.00000000000000000 0.00000000000000000 -0.00000000000000000 0.00000000000000000 0.00000000000000000 1.00000000000000000 0.00000000000000000 -1.00000000000000000 0.00000000000000000 6.50000000000000000
2 -76.20000000000000284 -678.25000000000000000 25.39999999999999858 1.00000000000000000 0.00000000000000000 -0.00000000000000000 0.00000000000000000 0.00000000000000000 1.00000000000000000 0.00000000000000000 -1.00000000000000000 0.00000000000000000 6.50000000000000000
2 -76.20000000000000284 -710.00000000000000000 25.39999999999999858 1.00000000000000000 0.00000000000000000 -0.00000000000000000 0.00000000000000000 0.00000000000000000 1.00000000000000000 0.00000000000000000 -1.00000000000000000 0.00000000000000000 6.50000000000000000
2 -76.20000000000000284 -741.75000000000000000 25.39999999999999858 1.00000000000000000 0.00000000000000000 -0.00000000000000000 0.00000000000000000 0.00000000000000000 1.00000000000000000 0.00000000000000000 -1.00000000000000000 0.00000000000000000 6.50000000000000000
1 -69.85000000000000853 -1100.00000000000000000 0.00000000000000000 0.00000000000000000 1.00000000000000000 0.00000000000000000 
1 -69.85000000000000853 -1100.00000000000000000 0.00000000000000000 -1.00000000000000000 0.00000000000000000 0.00000000000000000 
1 -69.85000000000000853 -1100.00000000000000000 0.00000000000000000 -1.00000000000000000 0.00000000000000000 0.00000000000000000 
1 -76.20000000000000284 -1100.00000000000000000 50.79999999999999716 1.00000000000000000 0.00000000000000000 0.00000000000000000 
1 76.20000000000000284 -1100.00000000000000000 50.79999999999999716 0.00000000000000000 0.00000000000000000 -1.00000000000000000 
1 76.20000000000000284 -1100.00000000000000000 0.00000000000000000 -1.00000000000000000 0.00000000000000000 0.00000000000000000 
1 69.85000000000000853 -1100.00000000000000000 0.00000000000000000 0.00000000000000000 0.00000000000000000 1.00000000000000000 
1 69.85000000000000853 -1100.00000000000000000 44.44999999999999574 -1.00000000000000000 0.00000000000000000 0.00000000000000000 
1 -69.85000000000000853 -1100.00000000000000000 44.44999999999999574 0.00000000000000000 0.00000000000000000 -1.00000000000000000 
1 -76.20000000000000284 -1100.00000000000000000 50.79999999999999716 1.00000000000000000 0.00000000000000000 0.00000000000000000 
1 76.20000000000000284 -1100.00000000000000000 50.79999999999999716 0.00000000000000000 0.00000000000000000 -1.00000000000000000 
1 76.20000000000000284 -1100.00000000000000000 0.00000000000000000 -1.00000000000000000 0.00000000000000000 0.00000000000000000 
1 69.85000000000000853 -1100.00000000000000000 0.00000000000000000 0.00000000000000000 0.00000000000000000 1.00000000000000000 
1 69.85000000000000853 -1100.00000000000000000 44.44999999999999574 -1.00000000000000000 0.00000000000000000 0.00000000000000000 
1 -69.85000000000000853 -1100.00000000000000000 44.44999999999999574 0.00000000000000000 0.00000000000000000 -1.00000000000000000 
1 76.20000000000000284 -1100.00000000000000000 50.79999999999999716 0.00000000000000000 1.00000000000000000 0.00000000000000000 
2 -69.85000000000000853 741.75000000000000000 25.39999999999999858 1.00000000000000000 0.00000000000000000 -0.00000000000000000 0.00000000000000000 0.00000000000000000 1.00000000000000000 0.00000000000000000 -1.00000000000000000 0.00000000000000000 6.50000000000000000
1 -77.20000000000000284 741.75000000000000000 31.89999999999999858 1.00000000000000000 0.00000000000000000 0.00000000000000000 
2 -69.85000000000000853 710.00000000000000000 25.39999999999999858 1.00000000000000000 0.00000000000000000 -0.00000000000000000 0.00000000000000000 0.00000000000000000 1.00000000000000000 0.00000000000000000 -1.00000000000000000 0.00000000000000000 6.50000000000000000
1 -77.20000000000000284 710.00000000000000000 31.89999999999999858 1.00000000000000000 0.00000000000000000 0.00000000000000000 
2 -69.85000000000000853 678.25000000000000000 25.39999999999999858 1.00000000000000000 0.00000000000000000 -0.00000000000000000 0.00000000000000000 0.00000000000000000 1.00000000000000000 0.00000000000000000 -1.00000000000000000 0.00000000000000000 6.50000000000000000
1 -77.20000000000000284 678.25000000000000000 31.89999999999999858 1.00000000000000000 0.00000000000000000 0.00000000000000000 
2 -69.85000000000000853 481.75000000000000000 25.39999999999999858 1.00000000000000000 0.00000000000000000 -0.00000000000000000 0.00000000000000000 0.00000000000000000 1.00000000000000000 0.00000000000000000 -1.00000000000000000 0.00000000000000000 6.50000000000000000
1 -77.20000000000000284 481.75000000000000000 31.89999999999999858 1.00000000000000000 0.00000000000000000 0.00000000000000000 
2 -69.85000000000000853 450.00000000000000000 25.39999999999999858 1.00000000000000000 0.00000000000000000 -0.00000000000000000 0.00000000000000000 0.00000000000000000 1.00000000000000000 0.00000000000000000 -1.00000000000000000 0.00000000000000000 6.50000000000000000
1 -77.20000000000000284 450.00000000000000000 31.89999999999999858 1.00000000000000000 0.00000000000000000 0.00000000000000000 
2 -69.85000000000000853 418.25000000000000000 25.39999999999999858 1.00000000000000000 0.00000000000000000 -0.00000000000000000 0.00000000000000000 0.00000000000000000 1.00000000000000000 0.00000000000000000 -1.00000000000000000 0.00000000000000000 6.50000000000000000
1 -77.20000000000000284 418.25000000000000000 31.89999999999999858 1.00000000000000000 0.00000000000000000 0.00000000000000000 
2 -69.85000000000000853 -418.25000000000000000 25.39999999999999858 1.00000000000000000 0.00000000000000000 -0.00000000000000000 0.00000000000000000 0.00000000000000000 1.00000000000000000 0.00000000000000000 -1.00000000000000000 0.00000000000000000 6.50000000000000000
1 -77.20000000000000284 -418.25000000000000000 31.89999999999999858 1.00000000000000000 0.00000000000000000 0.00000000000000000 
2 -69.85000000000000853 -450.00000000000000000 25.39999999999999858 1.00000000000000000 0.00000000000000000 -0.00000000000000000 0.00000000000000000 0.00000000000000000 1.00000000000000000 0.00000000000000000 -1.00000000000000000 0.00000000000000000 6.50000000000000000
1 -77.20000000000000284 -450.00000000000000000 31.89999999999999858 1.00000000000000000 0.00000000000000000 0.00000000000000000 
2 -69.85000000000000853 -481.75000000000000000 25.39999999999999858 1.00000000000000000 0.00000000000000000 -0.00000000000000000 0.00000000000000000 0.00000000000000000 1.00000000000000000 0.00000000000000000 -1.00000000000000000 0.00000000000000000 6.50000000000000000
1 -77.20000000000000284 -481.75000000000000000 31.89999999999999858 1.00000000000000000 0.00000000000000000 0.00000000000000000 
2 -69.85000000000000853 -678.25000000000000000 25.39999999999999858 1.00000000000000000 0.00000000000000000 -0.00000000000000000 0.00000000000000000 0.00000000000000000 1.00000000000000000 0.00000000000000000 -1.00000000000000000 0.00000000000000000 6.50000000000000000
1 -77.20000000000000284 -678.25000000000000000 31.89999999999999858 1.00000000000000000 0.00000000000000000 0.00000000000000000 
2 -69.85000000000000853 -710.00000000000000000 25.39999999999999858 1.00000000000000000 0.00000000000000000 -0.00000000000000000 0.00000000000000000 0.00000000000000000 1.00000000000000000 0.00000000000000000 -1.00000000000000000 0.00000000000000000 6.50000000000000000
1 -77.20000000000000284 -710.00000000000000000 31.89999999999999858 1.00000000000000000 0.00000000000000000 0.00000000000000000 
2 -69.85000000000000853 -741.75000000000000000 25.39999999999999858 1.00000000000000000 0.00000000000000000 -0.00000000000000000 0.00000000000000000 0.00000000000000000 1.00000000000000000 0.00000000000000000 -1.00000000000000000 0.00000000000000000 6.50000000000000000
1 -77.20000000000000284 -741.75000000000000000 31.89999999999999858 1.00000000000000000 0.00000000000000000 0.00000000000000000 
1 -69.85000000000000853 -1100.00000000000000000 44.44999999999999574 0.00000000000000000 1.00000000000000000 0.00000000000000000 
1 76.20000000000000284 -1100.00000000000000000 0.00000000000000000 0.00000000000000000 1.00000000000000000 0.00000000000000000 
1 69.85000000000000853 -1100.00000000000000000 0.00000000000000000 0.00000000000000000 1.00000000000000000 0.00000000000000000 
1 69.85000000000000853 -1100.00000000000000000 44.44999999999999574 0.00000000000000000 1.00000000000000000 0.00000000000000000 
Polygon3D 0
PolygonOnTriangulations 0
Surfaces 22
1 -76.20000000000000284 -1100.00000000000000000 0.00000000000000000 1.00000000000000000 0.00000000000000000 0.00000000000000000 0.00000000000000000 0.00000000000000000 1.00000000000000000 0.00000000000000000 -1.00000000000000000 0.00000000000000000 
2 -77.20000000000000284 741.75000000000000000 25.39999999999999858 1.00000000000000000 0.00000000000000000 0.00000000000000000 0.00000000000000000 0.00000000000000000 1.00000000000000000 0.00000000000000000 -1.00000000000000000 0.00000000000000000 6.50000000000000000
2 -77.20000000000000284 710.00000000000000000 25.39999999999999858 1.00000000000000000 0.00000000000000000 0.00000000000000000 0.00000000000000000 0.00000000000000000 1.00000000000000000 0.00000000000000000 -1.00000000000000000 0.00000000000000000 6.50000000000000000
2 -77.20000000000000284 678.25000000000000000 25.39999999999999858 1.00000000000000000 0.00000000000000000 0.00000000000000000 0.00000000000000000 0.00000000000000000 1.00000000000000000 0.00000000000000000 -1.00000000000000000 0.00000000000000000 6.50000000000000000
2 -77.20000000000000284 481.75000000000000000 25.39999999999999858 1.00000000000000000 0.00000000000000000 0.00000000000000000 0.00000000000000000 0.00000000000000000 1.00000000000000000 0.00000000000000000 -1.00000000000000000 0.00000000000000000 6.50000000000000000
2 -77.20000000000000284 450.00000000000000000 25.39999999999999858 1.00000000000000000 0.00000000000000000 0.00000000000000000 0.00000000000000000 0.00000000000000000 1.00000000000000000 0.00000000000000000 -1.00000000000000000 0.00000000000000000 6.50000000000000000
2 -77.20000000000000284 418.25000000000000000 25.39999999999999858 1.00000000000000000 0.00000000000000000 0.00000000000000000 0.00000000000000000 0.00000000000000000 1.00000000000000000 0.00000000000000000 -1.00000000000000000 0.00000000000000000 6.50000000000000000
2 -77.20000000000000284 -418.25000000000000000 25.39999999999999858 1.00000000000000000 0.00000000000000000 0.00000000000000000 0.00000000000000000 0.00000000000000000 1.00000000000000000 0.00000000000000000 -1.00000000000000000 0.00000000000000000 6.50000000000000000
2 -77.20000000000000284 -450.00000000000000000 25.39999999999999858 1.00000000000000000 0.00000000000000000 0.00000000000000000 0.00000000000000000 0.00000000000000000 1.00000000000000000 0.00000000000000000 -1.00000000000000000 0.00000000000000000 6.50000000000000000
2 -77.20000000000000284 -481.75000000000000000 25.39999999999999858 1.00000000000000000 0.00000000000000000 0.00000000000000000 0.00000000000000000 0.00000000000000000 1.00000000000000000 0.00000000000000000 -1.00000000000000000 0.00000000000000000 6.50000000000000000
2 -77.20000000000000284 -678.25000000000000000 25.39999999999999858 1.00000000000000000 0.00000000000000000 0.00000000000000000 0.00000000000000000 0.00000000000000000 1.00000000000000000 0.00000000000000000 -1.00000000000000000 0.00000000000000000 6.50000000000000000
2 -77.20000000000000284 -710.00000000000000000 25.39999999999999858 1.00000000000000000 0.00000000000000000 0.00000000000000000 0.00000000000000000 0.00000000000000000 1.00000000000000000 0.00000000000000000 -1.00000000000000000 0.00000000000000000 6.50000000000000000
2 -77.20000000000000284 -741.75000000000000000 25.39999999999999858 1.00000000000000000 0.00000000000000000 0.00000000000000000 0.00000000000000000 0.00000000000000000 1.00000000000000000 0.00000000000000000 -1.00000000000000000 0.00000000000000000 6.50000000000000000
1 -69.85000000000000853 -1100.00000000000000000 0.00000000000000000 0.00000000000000000 0.00000000000000000 1.00000000000000000 -1.00000000000000000 0.00000000000000000 0.00000000000000000 0.00000000000000000 -1.00000000000000000 0.00000000000000000 
1 -0.00000000000000247 -1099.99999999999954525 37.36730769230766924 0.00000000000000000 1.00000000000000000 0.00000000000000000 0.00000000000000000 0.00000000000000000 1.00000000000000000 1.00000000000000000 0.00000000000000000 0.00000000000000000 
1 -0.00000000000000247 -1099.99999999999954525 37.36730769230766924 0.00000000000000000 1.00000000000000000 0.00000000000000000 0.00000000000000000 0.00000000000000000 1.00000000000000000 1.00000000000000000 0.00000000000000000 0.00000000000000000 
1 -76.20000000000000284 -1100.00000000000000000 50.79999999999999716 0.00000000000000000 0.00000000000000000 -1.00000000000000000 1.00000000000000000 0.00000000000000000 0.00000000000000000 0.00000000000000000 -1.00000000000000000 0.00000000000000000 
1 -69.85000000000000853 -1100.00000000000000000 44.44999999999999574 -1.00000000000000000 0.00000000000000000 0.00000000000000000 0.00000000000000000 0.00000000000000000 -1.00000000000000000 -0.00000000000000000 -1.00000000000000000 -0.00000000000000000 
1 76.20000000000000284 -1100.00000000000000000 50.79999999999999716 -1.00000000000000000 0.00000000000000000 0.00000000000000000 0.00000000000000000 0.00000000000000000 -1.00000000000000000 -0.00000000000000000 -1.00000000000000000 -0.00000000000000000 
1 76.20000000000000284 -1100.00000000000000000 0.00000000000000000 0.00000000000000000 0.00000000000000000 1.00000000000000000 -1.00000000000000000 0.00000000000000000 0.00000000000000000 0.00000000000000000 -1.00000000000000000 0.00000000000000000 
1 69.85000000000000853 -1100.00000000000000000 0.00000000000000000 1.00000000000000000 0.00000000000000000 0.00000000000000000 0.00000000000000000 0.00000000000000000 1.00000000000000000 0.00000000000000000 -1.00000000000000000 0.00000000000000000 
1 69.85000000000000853 -1100.00000000000000000 44.44999999999999574 0.00000000000000000 0.00000000000000000 1.00000000000000000 -1.00000000000000000 0.00000000000000000 0.00000000000000000 0.00000000000000000 -1.00000000000000000 0.00000000000000000 
Triangulations 0

TShapes 171
Ve
0.000000100000000
-76.200000000000003 -1100.000000000000000 0.000000000000000
0 0

0101101
*
Ve
0.000000100000000
-76.200000000000003 1100.000000000000000 0.000000000000000
0 0

0101101
*
Ed
 0.000000100000000 1 1 0
1  1 0 0.000000000000000 2200.000000000000000
0

0101000
+171 3 -170 3 *
Ve
0.000000100000000
-76.200000000000003 -1100.000000000000000 50.799999999999997
0 0

0101101
*
Ed
 0.000000100000000 1 1 0
1  2 0 0.000000000000000 50.799999999999997
0

0101000
+171 3 -168 3 *
Ve
0.000000100000000
-76.200000000000003 1100.000000000000000 50.799999999999997
0 0

0101101
*
Ed
 0.000000100000000 1 1 0
1  3 0 0.000000000000000 50.799999999999997
0

0101000
+170 5 -166 5 *
Ed
 0.000000100000000 1 1 0
1  4 0 0.000000000000000 2200.000000000000000
0

0101000
+168 3 -166 3 *
Wi

0101100
+169 0 -167 0 +165 4 -164 0 *
Ve
0.000000100000000
-76.200000000000003 741.750000000000000 31.899999999999999
0 0

0101101
*
Ed
 0.000000100000000 1 1 0
1  5 0 0.000000000000000 6.283185307179586
2  1 2 0 0.000000000000000 6.283185307179586
0

0101100
+162 3 -162 3 *
Wi

0101100
-161 0 *
Ve
0.000000100000000
-76.200000000000003 710.000000000000000 31.899999999999999
0 0

0101101
*
Ed
 0.000000100000000 1 1 0
1  6 0 0.000000000000000 6.283185307179586
2  2 3 0 0.000000000000000 6.283185307179586
0

0101100
+159 3 -159 3 *
Wi

0101100
-158 0 *
Ve
0.000000100000000
-76.200000000000003 678.250000000000000 31.899999999999999
0 0

0101101
*
Ed
 0.000000100000000 1 1 0
1  7 0 0.000000000000000 6.283185307179586
2  3 4 0 0.000000000000000 6.283185307179586
0

0101100
+156 3 -156 3 *
Wi

0101100
-155 0 *
Ve
0.000000100000000
-76.200000000000003 481.750000000000000 31.899999999999999
0 0

0101101
*
Ed
 0.000000100000000 1 1 0
1  8 0 0.000000000000000 6.283185307179586
2  4 5 0 0.000000000000000 6.283185307179586
0

0101100
+153 3 -153 3 *
Wi

0101100
-152 0 *
Ve
0.000000100000000
-76.200000000000003 450.000000000000000 31.899999999999999
0 0

0101101
*
Ed
 0.000000100000000 1 1 0
1  9 0 0.000000000000000 6.283185307179586
2  5 6 0 0.000000000000000 6.283185307179586
0

0101100
+150 3 -150 3 *
Wi

0101100
-149 0 *
Ve
0.000000100000000
-76.200000000000003 418.250000000000000 31.899999999999999
0 0

0101101
*
Ed
 0.000000100000000 1 1 0
1  10 0 0.000000000000000 6.283185307179586
2  6 7 0 0.000000000000000 6.283185307179586
0

0101100
+147 3 -147 3 *
Wi

0101100
-146 0 *
Ve
0.000000100000000
-76.200000000000003 -418.250000000000000 31.899999999999999
0 0

0101101
*
Ed
 0.000000100000000 1 1 0
1  11 0 0.000000000000000 6.283185307179586
2  7 8 0 0.000000000000000 6.283185307179586
0

0101100
+144 3 -144 3 *
Wi

0101100
-143 0 *
Ve
0.000000100000000
-76.200000000000003 -450.000000000000000 31.899999999999999
0 0

0101101
*
Ed
 0.000000100000000 1 1 0
1  12 0 0.000000000000000 6.283185307179586
2  8 9 0 0.000000000000000 6.283185307179586
0

0101100
+141 3 -141 3 *
Wi

0101100
-140 0 *
Ve
0.000000100000000
-76.200000000000003 -481.750000000000000 31.899999999999999
0 0

0101101
*
Ed
 0.000000100000000 1 1 0
1  13 0 0.000000000000000 6.283185307179586
2  9 10 0 0.000000000000000 6.283185307179586
0

0101100
+138 3 -138 3 *
Wi

0101100
-137 0 *
Ve
0.000000100000000
-76.200000000000003 -678.250000000000000 31.899999999999999
0 0

0101101
*
Ed
 0.000000100000000 1 1 0
1  14 0 0.000000000000000 6.283185307179586
2  10 11 0 0.000000000000000 6.283185307179586
0

0101100
+135 3 -135 3 *
Wi

0101100
-134 0 *
Ve
0.000000100000000
-76.200000000000003 -710.000000000000000 31.899999999999999
0 0

0101101
*
Ed
 0.000000100000000 1 1 0
1  15 0 0.000000000000000 6.283185307179586
2  11 12 0 0.000000000000000 6.283185307179586
0

0101100
+132 3 -132 3 *
Wi

0101100
-131 0 *
Ve
0.000000100000000
-76.200000000000003 -741.750000000000000 31.899999999999999
0 0

0101101
*
Ed
 0.000000100000000 1 1 0
1  16 0 0.000000000000000 6.283185307179586
2  12 13 0 0.000000000000000 6.283185307179586
0

0101100
+129 3 -129 3 *
Wi

0101100
-128 0 *
Fa
0  0.000000100000000 1 0

0111000
+163 0 +160 0 +157 0 +154 0 +151 0 +148 0 +145 0 +142 0 +139 0 +136 0 
+133 0 +130 0 +127 0 *
Ve
0.000000100000000
-69.850000000000009 -1100.000000000000000 0.000000000000000
0 0

0101101
*
Ve
0.000000100000000
-69.850000000000009 1100.000000000000000 0.000000000000000
0 0

0101101
*
Ed
 0.000000100000000 1 1 0
1  17 0 0.000000000000000 2200.000000000000000
0

0101000
+125 3 -124 3 *
Ed
 0.000000100000000 1 1 0
1  18 0 0.000000000000000 6.349999999999994
0

0101000
+125 3 -171 3 *
Ed
 0.000000100000000 1 1 0
1  19 0 0.000000000000000 6.349999999999994
0

0101000
+124 5 -170 5 *
Wi

0101100
+123 0 -169 0 -122 0 +121 4 *
Fa
0  0.000000100000000 14 0

0111000
+120 0 *
Ve
0.000000100000000
76.200000000000003 -1100.000000000000000 50.799999999999997
0 0

0101101
*
Ed
 0.000000100000000 1 1 0
1  20 0 0.000000000000000 152.400000000000006
0

0101000
+168 3 -118 3 *
Ve
0.000000100000000
76.200000000000003 -1100.000000000000000 0.000000000000000
0 0

0101101
*
Ed
 0.000000100000000 1 1 0
1  21 0 0.000000000000000 50.799999999999997
0

0101000
+118 3 -116 3 *
Ve
0.000000100000000
69.850000000000009 -1100.000000000000000 0.000000000000000
0 0

0101101
*
Ed
 0.000000100000000 1 1 0
1  22 0 0.000000000000000 6.349999999999994
0

0101000
+116 3 -114 3 *
Ve
0.000000100000000
69.850000000000009 -1100.000000000000000 44.449999999999996
0 0

0101101
*
Ed
 0.000000100000000 1 1 0
1  23 0 0.000000000000000 44.449999999999996
0

0101000
+114 3 -112 3 *
Ve
0.000000100000000
-69.850000000000009 -1100.000000000000000 44.449999999999996
0 0

0101101
*
Ed
 0.000000100000000 1 1 0
1  24 0 0.000000000000000 139.700000000000017
0

0101000
+112 3 -110 3 *
Ed
 0.000000100000000 1 1 0
1  25 0 0.000000000000000 44.449999999999996
0

0101000
+110 3 -125 3 *
Wi

0101100
+167 0 +117 0 +115 0 +113 0 +111 0 +109 0 +108 0 +122 0 *
Fa
0  0.000000100000000 15 0

0111000
+107 0 *
Ve
0.000000100000000
76.200000000000003 1100.000000000000000 50.799999999999997
0 0

0101101
*
Ed
 0.000000100000000 1 1 0
1  26 0 0.000000000000000 152.400000000000006
0

0101000
+166 5 -105 5 *
Ve
0.000000100000000
76.200000000000003 1100.000000000000000 0.000000000000000
0 0

0101101
*
Ed
 0.000000100000000 1 1 0
1  27 0 0.000000000000000 50.799999999999997
0

0101000
+105 5 -103 5 *
Ve
0.000000100000000
69.850000000000009 1100.000000000000000 0.000000000000000
0 0

0101101
*
Ed
 0.000000100000000 1 1 0
1  28 0 0.000000000000000 6.349999999999994
0

0101000
+103 5 -101 5 *
Ve
0.000000100000000
69.850000000000009 1100.000000000000000 44.449999999999996
0 0

0101101
*
Ed
 0.000000100000000 1 1 0
1  29 0 0.000000000000000 44.449999999999996
0

0101000
+101 5 -99 5 *
Ve
0.000000100000000
-69.850000000000009 1100.000000000000000 44.449999999999996
0 0

0101101
*
Ed
 0.000000100000000 1 1 0
1  30 0 0.000000000000000 139.700000000000017
0

0101000
+99 5 -97 5 *
Ed
 0.000000100000000 1 1 0
1  31 0 0.000000000000000 44.449999999999996
0

0101000
+97 5 -124 5 *
Wi

0101100
+165 0 +104 0 +102 0 +100 0 +98 0 +96 0 +95 0 +121 0 *
Fa
0  0.000000100000000 16 0

0111000
+94 0 *
Ed
 0.000000100000000 1 1 0
1  32 0 0.000000000000000 2200.000000000000000
0

0101000
+118 3 -105 3 *
Wi

0101100
+164 0 -92 0 -117 0 +104 4 *
Fa
0  0.000000100000000 17 0

0111000
+91 0 *
Ve
0.000000100000000
-69.850000000000009 741.750000000000000 31.899999999999999
0 0

0101101
*
Ed
 0.000000100000000 1 1 0
1  33 0 0.000000000000000 6.283185307179586
2  13 2 0 0.000000000000000 6.283185307179586
0

0101100
+89 3 -89 3 *
Ed
 0.000000100000000 1 1 0
1  34 0 1.000000000000000 7.349999999999994
3  14 15CN 2 0 1.000000000000000 7.349999999999994
0

0101000
+162 3 -89 3 *
Wi

0101100
-88 0 +87 0 +161 0 -87 0 *
Fa
0  0.000000100000000 2 0

0111000
+86 0 *
Ve
0.000000100000000
-69.850000000000009 710.000000000000000 31.899999999999999
0 0

0101101
*
Ed
 0.000000100000000 1 1 0
1  35 0 0.000000000000000 6.283185307179586
2  16 3 0 0.000000000000000 6.283185307179586
0

0101100
+84 3 -84 3 *
Ed
 0.000000100000000 1 1 0
1  36 0 1.000000000000000 7.349999999999994
3  17 18CN 3 0 1.000000000000000 7.349999999999994
0

0101000
+159 3 -84 3 *
Wi

0101100
-83 0 +82 0 +158 0 -82 0 *
Fa
0  0.000000100000000 3 0

0111000
+81 0 *
Ve
0.000000100000000
-69.850000000000009 678.250000000000000 31.899999999999999
0 0

0101101
*
Ed
 0.000000100000000 1 1 0
1  37 0 0.000000000000000 6.283185307179586
2  19 4 0 0.000000000000000 6.283185307179586
0

0101100
+79 3 -79 3 *
Ed
 0.000000100000000 1 1 0
1  38 0 1.000000000000000 7.349999999999994
3  20 21CN 4 0 1.000000000000000 7.349999999999994
0

0101000
+156 3 -79 3 *
Wi

0101100
-78 0 +77 0 +155 0 -77 0 *
Fa
0  0.000000100000000 4 0

0111000
+76 0 *
Ve
0.000000100000000
-69.850000000000009 481.750000000000000 31.899999999999999
0 0

0101101
*
Ed
 0.000000100000000 1 1 0
1  39 0 0.000000000000000 6.283185307179586
2  22 5 0 0.000000000000000 6.283185307179586
0

0101100
+74 3 -74 3 *
Ed
 0.000000100000000 1 1 0
1  40 0 1.000000000000000 7.349999999999994
3  23 24CN 5 0 1.000000000000000 7.349999999999994
0

0101000
+153 3 -74 3 *
Wi

0101100
-73 0 +72 0 +152 0 -72 0 *
Fa
0  0.000000100000000 5 0

0111000
+71 0 *
Ve
0.000000100000000
-69.850000000000009 450.000000000000000 31.899999999999999
0 0

0101101
*
Ed
 0.000000100000000 1 1 0
1  41 0 0.000000000000000 6.283185307179586
2  25 6 0 0.000000000000000 6.283185307179586
0

0101100
+69 3 -69 3 *
Ed
 0.000000100000000 1 1 0
1  42 0 1.000000000000000 7.349999999999994
3  26 27CN 6 0 1.000000000000000 7.349999999999994
0

0101000
+150 3 -69 3 *
Wi

0101100
-68 0 +67 0 +149 0 -67 0 *
Fa
0  0.000000100000000 6 0

0111000
+66 0 *
Ve
0.000000100000000
-69.850000000000009 418.250000000000000 31.899999999999999
0 0

0101101
*
Ed
 0.000000100000000 1 1 0
1  43 0 0.000000000000000 6.283185307179586
2  28 7 0 0.000000000000000 6.283185307179586
0

0101100
+64 3 -64 3 *
Ed
 0.000000100000000 1 1 0
1  44 0 1.000000000000000 7.349999999999994
3  29 30CN 7 0 1.000000000000000 7.349999999999994
0

0101000
+147 3 -64 3 *
Wi

0101100
-63 0 +62 0 +146 0 -62 0 *
Fa
0  0.000000100000000 7 0

0111000
+61 0 *
Ve
0.000000100000000
-69.850000000000009 -418.250000000000000 31.899999999999999
0 0

0101101
*
Ed
 0.000000100000000 1 1 0
1  45 0 0.000000000000000 6.283185307179586
2  31 8 0 0.000000000000000 6.283185307179586
0

0101100
+59 3 -59 3 *
Ed
 0.000000100000000 1 1 0
1  46 0 1.000000000000000 7.349999999999994
3  32 33CN 8 0 1.000000000000000 7.349999999999994
0

0101000
+144 3 -59 3 *
Wi

0101100
-58 0 +57 0 +143 0 -57 0 *
Fa
0  0.000000100000000 8 0

0111000
+56 0 *
Ve
0.000000100000000
-69.850000000000009 -450.000000000000000 31.899999999999999
0 0

0101101
*
Ed
 0.000000100000000 1 1 0
1  47 0 0.000000000000000 6.283185307179586
2  34 9 0 0.000000000000000 6.283185307179586
0

0101100
+54 3 -54 3 *
Ed
 0.000000100000000 1 1 0
1  48 0 1.000000000000000 7.349999999999994
3  35 36CN 9 0 1.000000000000000 7.349999999999994
0

0101000
+141 3 -54 3 *
Wi

0101100
-53 0 +52 0 +140 0 -52 0 *
Fa
0  0.000000100000000 9 0

0111000
+51 0 *
Ve
0.000000100000000
-69.850000000000009 -481.750000000000000 31.899999999999999
0 0

0101101
*
Ed
 0.000000100000000 1 1 0
1  49 0 0.000000000000000 6.283185307179586
2  37 10 0 0.000000000000000 6.283185307179586
0

0101100
+49 3 -49 3 *
Ed
 0.000000100000000 1 1 0
1  50 0 1.000000000000000 7.349999999999994
3  38 39CN 10 0 1.000000000000000 7.349999999999994
0

0101000
+138 3 -49 3 *
Wi

0101100
-48 0 +47 0 +137 0 -47 0 *
Fa
0  0.000000100000000 10 0

0111000
+46 0 *
Ve
0.000000100000000
-69.850000000000009 -678.250000000000000 31.899999999999999
0 0

0101101
*
Ed
 0.000000100000000 1 1 0
1  51 0 0.000000000000000 6.283185307179586
2  40 11 0 0.000000000000000 6.283185307179586
0

0101100
+44 3 -44 3 *
Ed
 0.000000100000000 1 1 0
1  52 0 1.000000000000000 7.349999999999994
3  41 42CN 11 0 1.000000000000000 7.349999999999994
0

0101000
+135 3 -44 3 *
Wi

0101100
-43 0 +42 0 +134 0 -42 0 *
Fa
0  0.000000100000000 11 0

0111000
+41 0 *
Ve
0.000000100000000
-69.850000000000009 -710.000000000000000 31.899999999999999
0 0

0101101
*
Ed
 0.000000100000000 1 1 0
1  53 0 0.000000000000000 6.283185307179586
2  43 12 0 0.000000000000000 6.283185307179586
0

0101100
+39 3 -39 3 *
Ed
 0.000000100000000 1 1 0
1  54 0 1.000000000000000 7.349999999999994
3  44 45CN 12 0 1.000000000000000 7.349999999999994
0

0101000
+132 3 -39 3 *
Wi

0101100
-38 0 +37 0 +131 0 -37 0 *
Fa
0  0.000000100000000 12 0

0111000
+36 0 *
Ve
0.000000100000000
-69.850000000000009 -741.750000000000000 31.899999999999999
0 0

0101101
*
Ed
 0.000000100000000 1 1 0
1  55 0 0.000000000000000 6.283185307179586
2  46 13 0 0.000000000000000 6.283185307179586
0

0101100
+34 3 -34 3 *
Ed
 0.000000100000000 1 1 0
1  56 0 1.000000000000000 7.349999999999994
3  47 48CN 13 0 1.000000000000000 7.349999999999994
0

0101000
+129 3 -34 3 *
Wi

0101100
-33 0 +32 0 +128 0 -32 0 *
Fa
0  0.000000100000000 13 0

0111000
+31 0 *
Ed
 0.000000100000000 1 1 0
1  57 0 0.000000000000000 2200.000000000000000
0

0101000
+110 3 -97 3 *
Wi

0101100
+29 0 -108 0 +95 4 -123 0 *
Wi

0101100
+88 0 *
Wi

0101100
+83 0 *
Wi

0101100
+78 0 *
Wi

0101100
+73 0 *
Wi

0101100
+68 0 *
Wi

0101100
+63 0 *
Wi

0101100
+58 0 *
Wi

0101100
+53 0 *
Wi

0101100
+48 0 *
Wi

0101100
+43 0 *
Wi

0101100
+38 0 *
Wi

0101100
+33 0 *
Fa
0  0.000000100000000 18 0

0111000
+28 0 +27 0 +26 0 +25 0 +24 0 +23 0 +22 0 +21 0 +20 0 +19 0 
+18 0 +17 0 +16 0 *
Ed
 0.000000100000000 1 1 0
1  58 0 0.000000000000000 2200.000000000000000
0

0101000
+116 3 -103 3 *
Wi

0101100
+92 0 -14 0 -115 0 +102 4 *
Fa
0  0.000000100000000 19 0

0111000
+13 0 *
Ed
 0.000000100000000 1 1 0
1  59 0 0.000000000000000 2200.000000000000000
0

0101000
+114 3 -101 3 *
Wi

0101100
+14 0 -11 0 -113 0 +100 4 *
Fa
0  0.000000100000000 20 0

0111000
+10 0 *
Ed
 0.000000100000000 1 1 0
1  60 0 0.000000000000000 2200.000000000000000
0

0101000
+112 3 -99 3 *
Wi

0101100
+11 0 -8 0 -111 0 +98 4 *
Fa
0  0.000000100000000 21 0

0111000
+7 0 *
Wi

0101100
+8 0 -29 0 -109 0 +96 4 *
Fa
0  0.000000100000000 22 0

0111000
+5 0 *
Sh

0101100
-126 0 -119 0 -106 0 +93 4 -90 0 -85 0 -80 0 -75 0 -70 0 -65 0 
-60 0 -55 0 -50 0 -45 0 -40 0 -35 0 -30 0 -15 0 -12 0 -9 0 
-6 0 -4 0 *
So

0100000
+3 0 *
Co

1100000
+2 0 *

+1 1 