DBRep_DrawableShape

CASCADE Topology V1, (c) Matra-Datavision
Locations 0
Curve2ds 111
7 0 0  7 8 2  0.016599166988037161 1.5450463203988216  0.01418236614047879 1.5392043184569433  0.011780828169530026 1.53335147546266  0.0093944924918732253 1.5274879009786921  0.007023299637110382 1.5216137014250071  0.0046671912477631227 1.5157289800788178  0.0023261100792727031 1.5098338370745821  0 1.503928369404 
 0.94089044820578172 8 1 8
1 0 -0 0 1 
1 0 4.1389114358025836e-13 1 0 
1 0 6.2831853071795862 1 0 
1 3.1415926535900001 3.141592653589413 -0 -1 
7 0 0  7 8 2  3.124993486600899 1.5450463204008853  3.1274102874486021 1.5392043184586652  3.1298118254196972 1.5333514754640385  3.1321981610975023 1.52748790097973  3.1345693539524175 1.5216137014257154  3.1369254623419214 1.5157289800792235  3.1392665435105709 1.5098338370747377  3.1415926535900001 1.503928369404 
 0.9408904482078958 8 1 8
7 0 0  4 5 2  3.1249930080800001 1.545045612307  3.1291027246229999 1.551515638448  3.133239198439 1.557964228126  3.1374024855110001 1.564391190836  3.1415926535900001 1.57079632681 
 0 5 1 5
7 0 0  4 5 2  4.6866382658959997 -5.9999999999999997e-07  4.6931082920379996 0.0049713759163090001  4.6995568817019997 0.0099622198189200008  4.705983844456 0.01497179829829  4.7123889803749996 0.02000000000465 
 0 5 1 5
7 0 0  6 42 9  3.1415926535900001 4.7123889803620003  3.1339207903420001 4.6626030458820003  3.1260193156680001 4.6128511943549997  3.117905861673 4.5631268021369999  3.109604164372 4.5134220572829999  3.1011440636810002 4.4637279595520001  3.0820825260550002 4.3533602902209996  3.0714214178780002 4.2926874259729999  3.0606441781970002 4.2319965399050004  3.0498341638480002 4.1712673288159996  3.039093298609 4.110478733871  3.017881141762 3.9880929506720002  3.0074143145379999 3.926495263014  2.9972665212099998 3.864793896803  2.9875850419719998 3.8029707844440002  2.9785291611479998 3.74101411988  2.9584029360609998 3.5899101082649998  2.9481594203229999 3.5006065533189998  2.9399953822099998 3.4110270873349999  2.9343755395770001 3.3212189687599998  2.9315716007389998 3.2312713045049999  2.9315822730579999 3.0888972312549998  2.9325416661860002 3.036459533655  2.934457278435 2.984047288283  2.93729781517 2.9316823360150002  2.9410067606879999 2.8793826505390001  2.9524174162030001 2.7470416514920002  2.9611939317479998 2.6671080480380001  2.9715720777580001 2.5874058410749998  2.9831924434129999 2.5079389204839999  2.9957093996180002 2.4286871253940001  3.0220728549759999 2.2697217556089999  3.0359312375549998 2.190014488039  3.0500900929129999 2.110444120415  3.064286834836 2.0309629582980002  3.0783250098789998 1.9515249028320001  3.1007276934850001 1.8219021183540001  3.109277324237 1.771719481536  3.1176663155619999 1.72152625852  3.1258638061099999 1.6713131578010001  3.1338452973540001 1.6210721217849999  3.1415926535900001 1.570796326792 
 0 7 0.0957329300563 5 0.21261917118699999 5 0.33074767146599998 5 0.50008262328300002 5 0.59881065964699998 5 0.750291327658 5 0.90332699233799996 5 1 7
7 0 0  6 42 9  1.5707963268089999 0.020000000006680001  1.620582261304 0.029206034344980002  1.670334112828 0.038513621851919998  1.720058505041 0.047887425249300002  1.7697632498939999 0.057289852078049999  1.819457347628 0.066681054698270001  1.9298250169590001 0.087420118755039994  1.9904978812059999 0.098741678619590004  2.0511887672740001 0.109907240989  2.111917978363 0.120834669623  2.1727065733090001 0.13143707322199999  2.2950923565079999 0.15191882625600001  2.3566900441660001 0.16178903319900001  2.4183914103770001 0.17114160004199999  2.480214522736 0.17987830395099999  2.5421711873000001 0.18790130967999999  2.6932751989149999 0.20546527899600001  2.7825787538609998 0.21415806187799999  2.8721582198450002 0.22092558608900001  2.9619663384199999 0.22552675866499999  3.0519140026740001 0.22782346789899999  3.1942880759240002 0.22781472726999999  3.2467257735250001 0.227028908546  3.2991380188970001 0.225460221997  3.351502971165 0.223124486347  3.4038026566399999 0.220050891814  3.5361436556869998 0.21049242195699999  3.616077259141 0.20306219995300001  3.6957794661040002 0.19413078412400001  3.7752463866950001 0.183894366419  3.854498181786 0.17256133593199999  4.0134635515710002 0.147980789108  4.09317081914 0.134715235174  4.1727411867650002 0.120745485587  4.2522223488810003 0.106275761461  4.3316604043479998 0.091493385966010005  4.461283188825 0.06714305895863  4.5114658256429996 0.057659922364069999  4.5616590486590001 0.048164139580889997  4.6118721493789998 0.038696792186380002  4.6621131853950004 0.029296615783109999  4.7123889803869998 0.01999999999898 
 0 7 0.0957329300563 5 0.21261917118699999 5 0.33074767146599998 5 0.50008262328300002 5 0.59881065964699998 5 0.750291327658 5 0.90332699233799996 5 1 7
7 0 0  4 5 2  3.1249930080800001 4.7381396948730004  3.129102724624 4.7316696687309996  3.133239198439 4.7252210790489997  3.1374024855120002 4.7187941163489997  3.1415926535900001 4.7123889803620003 
 0 5 1 5
7 0 0  4 5 2  1.5965470412830001 -5.9999999999999997e-07  1.5900770151420001 0.004971375916574  1.5836284254799999 0.0099622198199999998  1.577201462716 0.014971798297949999  1.5707963268089999 0.020000000006680001 
 0 5 1 5
7 0 0  8 9 2  3.1415926535900001 4.7792569377760001  3.1395558838235047 4.7740860397537777  3.1375083330599112 4.768924066183529  3.1354499457323475 4.7637709992900428  3.1333806659319423 4.7586268258087907  3.1313004374567797 4.753491536901425  3.1292092038527928 4.7483651280889356  3.1271069084477281 4.7432475992001537  3.1249934943790376 4.738138954333726 
 0 9 0.059072960566670142 9
1 3.1415926535900001 9.4247779607689992 -0 -1 
1 0 -0 0 1 
7 0 0  7 8 2  0.016599166988131162 4.7381389867803758  0.014182366140558851 4.7439809887223214  0.011780828169596361 4.7498338317166882  0.0093944924919260216 4.755697406200758  0.0070232996371497984 4.7615716057545638  0.0046671912477892902 4.7674563271008896  0.0023261100792857309 4.7733514701052719  0 4.7792569377760001 
 0.94089044820472523 8 1 8
7 0 0  4 5 2  0.016599645509760001 4.7381396948730004  0.01248992896649 4.7316696687319997  0.0083534551508809996 4.725221079053  0.0041901680791370001 4.7187941163430001  0 4.712388980369 
 0 5 1 5
7 0 0  4 5 2  1.545045612307 -5.9999999999999997e-07  1.551515638448 0.0049713759163090001  1.5579642281120001 0.009962219818921  1.564391190866 0.01497179829829  1.570796326785 0.02000000000465 
 0 5 1 5
7 0 0  6 22 5  0.21001432086399999 3.1415926535900001  0.21001432086399999 3.193523467096  0.209077197017 3.2454554024240001  0.207202162237 3.2973627190410002  0.204419224939 3.349224156425  0.200782737603 3.4010221428129999  0.18952212049799999 3.5328521428099999  0.180804541894 3.6127757324209999  0.170476851111 3.6924684623870001  0.158897667366 3.7719257683120002  0.14641298235700001 3.851167305438  0.119921364596 4.0111764772529996  0.105885778899 4.0919328381659996  0.091538073909150003 4.1725479546740001  0.077151999293510007 4.2530714455669996  0.062931340848210005 4.3335512198790003  0.04044858991032 4.4637279595450003  0.031988489218400001 4.513422057264  0.023686791918979998 4.5631268021110003  0.01557333793027 4.6128511943279999  0.0076718632589149998 4.662603045849  0 4.7123889803020003 
 0 7 0.19555196607299999 5 0.49844711709099998 5 0.80853731599099998 5 1 7
7 0 0  6 22 5  0 0.22781795440300001  0.051930813506129998 0.22781795440300001  0.103862748834 0.227050378085  0.155770065451 0.225514935331  0.20763150283500001 0.22322679727299999  0.25942948922300002 0.220214031511  0.39125948921999998 0.21078557609099999  0.47118307883100002 0.203409609336  0.55087580879700004 0.194528111118  0.63033311472200004 0.18433657230200001  0.70957465184799995 0.17304314482700001  0.869583823664 0.14836707309899999  0.950340184576 0.13494161093500001  1.0309553010850001 0.12079026556  1.1114787919769999 0.106125635616  1.191958566289 0.091142418783810006  1.3221353059550001 0.066681054699620004  1.371829403684 0.05728985208397  1.4215341485270001 0.047887425255599997  1.4712585407250001 0.038513621854390001  1.5210103922380001 0.029206034346570001  1.5707963267439999 0.02000000002466 
 0 7 0.19555196607299999 5 0.49844711709099998 5 0.80853731599099998 5 1 7
7 0 0  6 22 5  0 1.570796326817  0.0077473562407819998 1.6210721217999999  0.01572884748325 1.671313157813  0.023926338028599999 1.7215262585319999  0.032315329352660002 1.7717194815449999  0.040864960105840002 1.821902118358  0.067758561385200006 1.9775095243230001  0.086521976532850001 2.0829253597780002  0.105476943778 2.188447185147  0.124135520789 2.2941831218619999  0.141765410767 2.400241725875  0.16530499770400001 2.5588254218939999  0.17260389541900001 2.6110449893040002  0.179370672102 2.6633625036440001  0.18550743327499999 2.7157787668490001  0.190921797019 2.7682886007560001  0.200214252186 2.874181185686  0.20407092422699999 2.9275674886249998  0.20702609648500001 2.9810229070799998  0.20901855594499999 3.0345285426680002  0.21001432086399999 3.088061241163  0.21001432086399999 3.1415926535900001 
 0 7 0.19334542018199999 5 0.59953038819000004 5 0.79842145251600005 5 1 7
7 0 0  6 22 5  4.712388980399 0.02000000000669  4.7626647753949998 0.029296615783829999  4.8129058114059999 0.038696792187479997  4.86311891212 0.04816413958363  4.9133121351320002 0.057659922366649997  4.9634947719479996 0.067143058959279994  5.1191021779129997 0.096374734820120003  5.2245180133679998 0.115930335279  5.330039838737 0.13483664824700001  5.435775775452 0.15264568991999999  5.5418343794649996 0.168849337061  5.7004180754830003 0.189875927434  5.7526376428940003 0.19628629753999999  5.8049551572339997 0.20213867297400001  5.8573714204389997 0.20737732705600001  5.9098812543449997 0.21195182448899999  6.015773839275 0.219742868491  6.0691601422149999 0.222940398003  6.1226155606689998 0.22537076317900001  6.1761211962580003 0.22700233814500001  6.2296538947529996 0.22781795440300001  6.2831853071800001 0.22781795440300001 
 0 7 0.19334542018199999 5 0.59953038819000004 5 0.79842145251600005 5 1 7
7 0 0  4 5 2  0.016599645509760001 1.545045612307  0.012489928966270001 1.551515638448  0.0083534551509540002 1.5579642281299999  0.0041901680774190002 1.564391190831  0 1.570796326817 
 0 5 1 5
7 0 0  4 5 2  4.7381396948730004 -5.9999999999999997e-07  4.7316696687309996 0.004971375916574  4.7252210790699998 0.0099622198200019999  4.7187941163060003 0.01497179829794  4.712388980399 0.02000000000669 
 0 5 1 5
1 0 0 1 0 
1 6.2831853071795862 0 0 1 
1 4.1389114358025836e-13 0 0 1 
1 0 1.0420791198799999 1 0 
7 0 0  5 6 2  4.7378686999546096 1.0020790847356482  4.7544470419980076 1.0100967392295113  4.7710253840414021 1.018110161919924  4.7876037260847903 1.0261147582016956  4.8041820681281715 1.0341059358730278  4.8207604101715447 1.0420791198786026 
 4.7378685828605764 6 4.8207604101760397 6
7 0 0  5 6 2  4.7123889803849996 1.0220791198800001  4.7174850537879998 1.0180785670020001  4.722581127192 1.0140780141229999  4.7276772005960002 1.0100776776910001  4.7327732739990003 1.0060777741510001  4.7378693474029996 1.00207851988 
 1.570796326795 6 1.596276693813 6
7 0 0  5 6 2  1.570796326795 0.02  1.5657002533910001 0.01599944712148  1.5606041799879999 0.01199889424295  1.555508106584 0.0079985578107080006  1.55041203318 0.003998654271024  1.5453159597770001 -6.0000007806589995e-07 
 1.570796326795 6 1.596276693813 6
7 0 0  3 25 23  3.1415926535897931 0.83716690054285436  3.1653925979354138 0.83716650176939111  3.2129924866266495 0.83748144269088165  3.2843923196634912 0.83889341203716628  3.355792152700336 0.84123915104638392  3.4271919857371564 0.84450632942710568  3.4985918187739746 0.84867839938879663  3.5699916518107333 0.85373407395598577  3.6413914848475231 0.85964759782149069  3.7127913178842538 0.86638883508017084  3.7841911509209827 0.87392343445282905  3.8555909839575939 0.8822130012085907  3.9269908169942838 0.89121529365291019  3.9983906500308066 0.90088443815668184  4.0697904830674521 0.91117116297948841  4.1411903161038799 0.92202304932557377  4.2125901491403237 0.93338479848193612  4.2839899821767995 0.9451985135336779  4.3553898152130914 0.95740399466682646  4.4267896482494526 0.96993904491288208  4.4981894812856886 0.98273979089661723  4.569589314321937 0.99574099411485939  4.640989147358102 1.0088764363921057  4.6885890360488318 1.0176781851021874  4.7123889803941825 1.0220791198812407 
 3.1415926535897931 4 3.2129924866259247 1 3.2843923196620564 1 3.355792152698188 1 3.4271919857343196 1 3.4985918187704517 1 3.5699916518065828 1 3.6413914848427149 1 3.7127913178788465 1 3.7841911509149782 1 3.8555909839511098 1 3.9269908169872414 1 3.998390650023373 1 4.0697904830595046 1 4.1411903160956367 1 4.2125901491317679 1 4.2839899821678999 1 4.3553898152040311 1 4.4267896482401632 1 4.4981894812762953 1 4.5695893143124264 1 4.6409891473485576 1 4.7123889803846897 4
7 0 0  3 25 23  0 0.20491221933544609  0.023799944345710571 0.20491261810889833  0.071399833037126811 0.20459767718740146  0.14279966607423825 0.20318570784113624  0.21419949911134734 0.20083996883189303  0.28559933214843419 0.19757279045121187  0.35699916518549674 0.19340072048946863  0.42839899822254746 0.18834504592232124  0.4997988312595148 0.1824315220567865  0.57119866429649491 0.17569028479809803  0.64259849733343055 0.16815568542546022  0.71399833037028482 0.15986611866966721  0.78539816340711954 0.15086382622536817  0.85679799644392296 0.14119468172158825  0.92819782948064489 0.1309079568987524  0.9995976625172438 0.12005607055270608  1.0709974955538373 0.10869432139630288  1.1423973285903655 0.096880606344557196  1.2137971616268122 0.084675125211423438  1.285196994663212 0.072140074965354906  1.3565968276995406 0.059339328981613808  1.4279966607357728 0.046338125763366537  1.4993964937719715 0.033202683486102939  1.5469963824627311 0.024400934776014745  1.5707963268081004 0.019999999996962003 
 3.1415926535897931 4 3.2129924866259247 1 3.2843923196620564 1 3.355792152698188 1 3.4271919857343196 1 3.4985918187704517 1 3.5699916518065828 1 3.6413914848427149 1 3.7127913178788465 1 3.7841911509149782 1 3.8555909839511098 1 3.9269908169872414 1 3.998390650023373 1 4.0697904830595046 1 4.1411903160956367 1 4.2125901491317679 1 4.2839899821678999 1 4.3553898152040311 1 4.4267896482401632 1 4.4981894812762953 1 4.5695893143124264 1 4.6409891473485576 1 4.7123889803846897 4
7 0 0  3 25 23  1.5707963267854042 1.0220791198812407  1.5945962711307553 1.0176781851021874  1.6421961598214851 1.0088764363921052  1.7135959928576492 0.99574099411485983  1.784995825893898 0.98273979089661667  1.8563956589301325 0.9699390449128823  1.9277954919664941 0.95740399466682657  1.9991953250027843 0.94519851353367756  2.0705951580392581 0.93338479848193623  2.1419949910757117 0.92202304932557388  2.2133948241121342 0.91117116297948864  2.2847946571487858 0.90088443815668173  2.3561944901852963 0.89121529365291019  2.4275943232220056 0.88221300120859047  2.4989941562586044 0.87392343445282938  2.5703939892953338 0.86638883508017073  2.6417938223320547 0.85964759782149058  2.7131936553688578 0.85373407395598599  2.7845934884056036 0.84867839938879652  2.8559933214424329 0.8445063294271058  2.9273931544792431 0.84123915104638392  2.9987929875160955 0.83889341203716605  3.0701928205529367 0.83748144269088165  3.1177927092441724 0.83716650176939111  3.1415926535897931 0.83716690054285436 
 1.5707963267948966 4 1.6421961598310282 1 1.7135959928671598 1 1.7849958259032914 1 1.8563956589394233 1 1.9277954919755549 1 1.9991953250116865 1 2.0705951580478184 1 2.14199499108395 1 2.2133948241200816 1 2.2847946571562132 1 2.3561944901923448 1 2.4275943232284765 1 2.4989941562646081 1 2.5703939893007397 1 2.6417938223368713 1 2.7131936553730034 1 2.7845934884091346 1 2.8559933214452666 1 2.9273931544813983 1 2.9987929875175299 1 3.0701928205536615 1 3.1415926535897931 4
7 0 0  3 25 23  4.712388980371486 0.019999999996962003  4.7361889247168563 0.024400934776014793  4.7837888134076145 0.033202683486103009  4.855188646443815 0.046338125763366565  4.9265884794800456 0.059339328981613725  4.997988312516374 0.072140074965354878  5.0693881455527734 0.084675125211423577  5.140787978589219 0.096880606344557071  5.2121878116257445 0.10869432139630296  5.2835876446623473 0.12005607055270602  5.3549874776989421 0.13090795689875226  5.4263873107356666 0.14119468172158908  5.4977871437724675 0.15086382622536493  5.5691869768092932 0.15986611866967948  5.6405868098461642 0.16815568542545697  5.7119866428830903 0.17569028479809895  5.7833864759200644 0.18243152205678625  5.8547863089570429 0.18834504592232132  5.9261861419940818 0.19340072048946855  5.9975859750311562 0.19757279045121193  6.0689858080682306 0.20083996883189301  6.1403856411053495 0.20318570784113621  6.2117854741424585 0.20459767718740143  6.2593853628338749 0.20491261810889833  6.2831853071795862 0.20491221933544609 
 1.5707963267948966 4 1.6421961598310282 1 1.7135959928671598 1 1.7849958259032914 1 1.8563956589394233 1 1.9277954919755549 1 1.9991953250116865 1 2.0705951580478184 1 2.14199499108395 1 2.2133948241200816 1 2.2847946571562132 1 2.3561944901923448 1 2.4275943232284765 1 2.4989941562646081 1 2.5703939893007397 1 2.6417938223368713 1 2.7131936553730034 1 2.7845934884091346 1 2.8559933214452666 1 2.9273931544813983 1 2.9987929875175299 1 3.0701928205536615 1 3.1415926535897931 4
7 0 0  5 6 2  1.5453159597770001 1.00207851988  1.55041203318 1.0060777741510001  1.555508106584 1.0100776776910001  1.5606041799879999 1.0140780141229999  1.5657002533910001 1.0180785670020001  1.570796326795 1.0220791198800001 
 4.6869086133659996 6 4.7123889803849996 6
7 0 0  5 6 2  4.7378693474029996 -6.0000007806589995e-07  4.7327732739990003 0.003998654271024  4.7276772005960002 0.0079985578107069997  4.722581127192 0.01199889424295  4.7174850537879998 0.01599944712148  4.7123889803849996 0.02 
 4.6869086133659996 6 4.7123889803849996 6
7 0 0  5 6 2  1.462424897008294 1.0420791198786803  1.4790032390517265 1.0341059358730766  1.4955815810951589 1.0261147582017158  1.5121599231385923 1.0181101619199149  1.5287382651820269 1.0100967392294729  1.5453166072254634 1.0020790847355809 
 1.4624248970035463 6 1.5453167243192663 6
1 0 1.0420791198799999 1 0 
1 0 0 1 0 
1 0 0 1 0 
1 6.2831853071795862 0 0 1 
1 4.1389114358025836e-13 0 0 1 
7 0 0  3 25 23  4.7123889803837944 1.0220791198870813  4.7361889247291646 1.0176781851080163  4.7837888134199025 1.0088764363979159  4.8551886464560088 0.99574099412065342  4.9265884794920778 0.98273979090242092  4.9979883125282063 0.9699390449186609  5.0693881455642691 0.95740399467261117  5.1407879786003976 0.9451985135394636  5.2121878116365226 0.93338479848771094  5.2835876446726671 0.9220230493313063  5.3549874777088098 0.91117116298523171  5.42638731074498 0.90088443816242436  5.4977871437811396 0.89121529365864349  5.5691869768173472 0.88221300121436197  5.6405868098535121 0.87392343445854292  5.7119866428897401 0.86638883508590647  5.7833864759259255 0.85964759782719602  5.8547863089621499 0.85373407396170575  5.9261861419983806 0.84867839939448908  5.9975859750346103 0.84450632943280746  6.0689858080708516 0.84123915105207581  6.1403856411070867 0.83889341204288848  6.2117854741433369 0.83748144269657676  6.2593853628341698 0.83716650177508201  6.2831853071795862 0.83716690054855147 
 1.5707963267948966 4 1.6421961598310282 1 1.7135959928671598 1 1.7849958259032914 1 1.8563956589394233 1 1.9277954919755549 1 1.9991953250116865 1 2.0705951580478184 1 2.14199499108395 1 2.2133948241200816 1 2.2847946571562132 1 2.3561944901923448 1 2.4275943232284765 1 2.4989941562646081 1 2.5703939893007397 1 2.6417938223368713 1 2.7131936553730034 1 2.7845934884091346 1 2.8559933214452666 1 2.9273931544813983 1 2.9987929875175299 1 3.0701928205536615 1 3.1415926535897931 4
7 0 0  3 25 23  1.5707963267853482 0.020000000002028173  1.5945962711306687 0.024400934781086493  1.6421961598213821 0.033202683491189607  1.7135959928575821 0.046338125768480856  1.7849958258937126 0.059339328986722818  1.8563956589299522 0.072140074970499679  1.9277954919662206 0.084675125216558594  1.999195325002602 0.096880606349738232  2.0705951580389499 0.10869432140147985  2.1419949910754439 0.12005607055789642  2.2133948241118979 0.13090795690397833  2.2847946571484603 0.14119468172678679  2.3561944901851231 0.15086382623059755  2.427594323221677 0.15986611867492889  2.4989941562584272 0.16815568543068951  2.5703939892950762 0.17569028480338209  2.6417938223318691 0.18243152206205443  2.7131936553686464 0.18834504592759871  2.784593488405473 0.19340072049476689  2.8559933214422908 0.19757279045650253  2.9273931544791552 0.20083996883719346  2.9987929875160195 0.20318570784644771  3.0701928205529003 0.20459767719270139  3.1177927092441613 0.20491261811419334  3.1415926535897931 0.20491221934074133 
 1.5707963267948966 4 1.6421961598310282 1 1.7135959928671598 1 1.7849958259032914 1 1.8563956589394233 1 1.9277954919755549 1 1.9991953250116865 1 2.0705951580478184 1 2.14199499108395 1 2.2133948241200816 1 2.2847946571562132 1 2.3561944901923448 1 2.4275943232284765 1 2.4989941562646081 1 2.5703939893007397 1 2.6417938223368713 1 2.7131936553730034 1 2.7845934884091346 1 2.8559933214452666 1 2.9273931544813983 1 2.9987929875175299 1 3.0701928205536615 1 3.1415926535897931 4
7 0 0  5 6 2  4.6869086133659996 1.00207851988  4.6920046867699998 1.0060777741510001  4.697100760174 1.0100776776910001  4.7021968335770001 1.0140780141229999  4.7072929069810003 1.0180785670020001  4.7123889803849996 1.0220791198800001 
 4.6869086133659996 6 4.7123889803849996 6
7 0 0  5 6 2  1.596276693813 -6.0000007806589995e-07  1.5911806204100001 0.003998654271024  1.5860845470060001 0.0079985578107069997  1.5809884736019999 0.01199889424295  1.575892400199 0.01599944712148  1.570796326795 0.02 
 4.6869086133659996 6 4.7123889803849996 6
7 0 0  5 6 2  4.6040175505912142 1.042079119881604  4.6205958926372865 1.0341059358747811  4.63717423468335 1.0261147582021943  4.6537525767294063 1.018110161919163  4.6703309187754547 1.0100967392274882  4.6869092608214959 1.0020790847323635 
 1.4624248970035467 6 1.5453167243321553 6
1 0 1.0420791198799999 1 0 
7 0 0  5 6 2  1.5962760463576984 1.0020790847322736  1.6128543884037634 1.0100967392274385  1.6294327304498271 1.0181101619191528  1.6460110724958892 1.0261147582022243  1.6625894145419504 1.0341059358748508  1.6791677565880117 1.0420791198817128 
 4.7378685828471756 6 4.8207604101760397 6
7 0 0  5 6 2  1.570796326795 1.0220791198800001  1.575892400199 1.0180785670020001  1.5809884736019999 1.0140780141229999  1.5860845470060001 1.0100776776910001  1.5911806204100001 1.0060777741510001  1.596276693813 1.00207851988 
 1.570796326795 6 1.596276693813 6
7 0 0  5 6 2  4.7123889803849996 0.02  4.7072929069810003 0.01599944712148  4.7021968335770001 0.01199889424295  4.697100760174 0.0079985578107080006  4.6920046867699998 0.003998654271024  4.6869086133659996 -6.0000007806589995e-07 
 1.570796326795 6 1.596276693813 6
7 0 0  3 25 23  0 0.83716690054855147  0.023799944345416362 0.83716650177508201  0.071399833036249513 0.83748144269657676  0.14279966607249744 0.83889341204288881  0.21419949910874134 0.84123915105207592  0.28559933214497563 0.84450632943280746  0.35699916518122088 0.84867839939448897  0.42839899821743166 0.85373407396170553  0.49979883125366731 0.85964759782719613  0.57119866428984645 0.86638883508590658  0.64259849732606589 0.8739234344585427  0.71399833036224614 0.88221300121436208  0.78539816339844382 0.89121529365864338  0.8567979964346023 0.90088443816242458  0.9281978294707719 0.91117116298523149  0.99959766250691762 0.92202304933130619  1.0709974955430601 0.93338479848771116  1.1423973285791922 0.94519851353946382  1.2137971616153198 0.95740399467261095  1.285196994651379 0.96993904491866068  1.3565968276875053 0.98273979090242114  1.4279966607235777 0.99574099412065287  1.4993964937596842 1.0088764363979161  1.5469963824504223 1.0176781851080163  1.5707963267957918 1.0220791198870813 
 3.1415926535897931 4 3.2129924866259247 1 3.2843923196620564 1 3.355792152698188 1 3.4271919857343196 1 3.4985918187704517 1 3.5699916518065828 1 3.6413914848427149 1 3.7127913178788465 1 3.7841911509149782 1 3.8555909839511098 1 3.9269908169872414 1 3.998390650023373 1 4.0697904830595046 1 4.1411903160956367 1 4.2125901491317679 1 4.2839899821678999 1 4.3553898152040311 1 4.4267896482401632 1 4.4981894812762953 1 4.5695893143124264 1 4.6409891473485576 1 4.7123889803846897 4
7 0 0  3 25 23  3.1415926535897931 0.20491221934074133  3.1653925979354254 0.20491261811419334  3.2129924866266855 0.20459767719270136  3.2843923196635636 0.20318570784644777  3.3557921527004391 0.20083996883719346  3.4271919857372963 0.1975727904565025  3.4985918187741278 0.19340072049476689  3.5699916518109354 0.18834504592759863  3.6413914848477229 0.18243152206205449  3.71279131788451 0.17569028480338206  3.7841911509211514 0.16815568543068957  3.8555909839579168 0.15986611867492867  3.9269908169944574 0.15086382623059841  3.9983906500311357 0.14119468172678357  4.0697904830676332 0.13090795690399054  4.1411903161041552 0.1200560705578932  4.2125901491406283 0.10869432140148065  4.2839899821769887 0.096880606349738108  4.3553898152133677 0.084675125216558511  4.4267896482496329 0.072140074970499707  4.4981894812858716 0.059339328986722895  4.5695893143220037 0.046338125768480821  4.640989147358205 0.033202683491189537  4.6885890360489189 0.024400934781086445  4.7123889803942376 0.020000000002028173 
 3.1415926535897931 4 3.2129924866259247 1 3.2843923196620564 1 3.355792152698188 1 3.4271919857343196 1 3.4985918187704517 1 3.5699916518065828 1 3.6413914848427149 1 3.7127913178788465 1 3.7841911509149782 1 3.8555909839511098 1 3.9269908169872414 1 3.998390650023373 1 4.0697904830595046 1 4.1411903160956367 1 4.2125901491317679 1 4.2839899821678999 1 4.3553898152040311 1 4.4267896482401632 1 4.4981894812762953 1 4.5695893143124264 1 4.6409891473485576 1 4.7123889803846897 4
1 0 0 1 0 
7 0 0  5 6 2  4.6040142866640004 -6.0000000079439999e-07  4.6256892254080002 0.003983847155175  4.647364164152 0.0079800397363959993  4.6690391028959999 0.01198407794513  4.6907140416409998 0.015992038972790001  4.7123889803849996 0.02 
 1.4624216330740001 6 1.570796326795 6
7 0 0  5 6 2  1.4624216330740001 1.04207971988  1.4840965718179999 1.0380952727249999  1.505771510562 1.034099080144  1.5274464493069999 1.0300950419349999  1.549121388051 1.026087080907  1.570796326795 1.0220791198800001 
 1.4624216330740001 6 1.570796326795 6
1 6.2831853071795862 0 0 1 
1 4.1389114358025836e-13 0 0 1 
1 0 10.300000000000001 1 0 
1 0 3.1415926535900001 -0 -1 
7 0 0  5 6 2  1.596276693813 0.040000599999999997  1.591180620409 0.036001345728909999  1.5860845470060001 0.032001442189239997  1.5809884736019999 0.028001105757020001  1.575892400199 0.024000552878509999  1.570796326795 0.02 
 1.5453159597770001 6 1.570796326795 6
7 0 0  5 6 2  4.6869086133659996 1.04207971988  4.6920046867699998 1.0380804656089999  4.697100760174 1.03408056207  4.7021968335770001 1.0300802256370001  4.7072929069810003 1.026079672759  4.7123889803849996 1.0220791198800001 
 1.5453159597770001 6 1.570796326795 6
7 0 0  5 6 2  1.5962760463652956 0.040000035143998997  1.6128543884091013 0.031982380649931946  1.629432730452905 0.023968957959318728  1.6460110724967076 0.015964361677351158  1.6625894145405091 0.0079731840058282176  1.6791677565843106 6.7134759849758009e-14 
 1.5962759292632138 6 1.6791677565807135 6
1 0 0 1 0 
7 0 0  5 6 2  4.604017550594909 1.7306415884697862e-13  4.6205958926388249 0.0079731840059441509  4.6371742346827318 0.015964361677477105  4.6537525767266308 0.023968957959454675  4.6703309187705226 0.031982380650077871  4.6869092608144083 0.040000035144154844 
 4.604017550598873 6 4.6869093779166286 6
7 0 0  5 6 2  4.7123889803849996 0.02  4.7072929069810003 0.024000552878509999  4.7021968335770001 0.028001105757020001  4.697100760174 0.032001442189250003  4.6920046867699998 0.036001345728909999  4.6869086133659996 0.040000599999999997 
 4.7123889803849996 6 4.7378693474029996 6
7 0 0  5 6 2  1.570796326795 1.0220791198800001  1.575892400199 1.026079672759  1.5809884736019999 1.0300802256370001  1.5860845470060001 1.03408056207  1.591180620409 1.0380804656089999  1.596276693813 1.04207971988 
 4.7123889803849996 6 4.7378693474029996 6
7 0 0  5 6 2  1.570796326795 0.02  1.5924712655390001 0.015992038972790001  1.6141462042829999 0.01198407794514  1.635821143027 0.0079800397363950001  1.6574960817719999 0.003983847155175  1.679171020516 -6.0000000079439999e-07 
 4.7123889803849996 6 4.8207636741049997 6
7 0 0  5 6 2  4.7123889803849996 1.0220791198800001  4.7340639191290004 1.026087080907  4.7557388578730002 1.0300950419349999  4.7774137966170001 1.034099080144  4.7990887353609999 1.0380952727249999  4.8207636741049997 1.04207971988 
 4.7123889803849996 6 4.8207636741049997 6
1 0 0 1 0 
1 0 0 1 0 
1 6.2831853071795862 0 0 1 
1 4.1389114358025836e-13 0 0 1 
1 0 10.300000000000001 1 0 
1 0 6.2831853071800001 -0 -1 
1 0 10.300000000000001 1 0 
1 0 0 -0 -1 
1 0 0 1 0 
7 0 0  5 6 2  1.4624248970051428 -1.9557788594454043e-13  1.4790032390505135 0.0079731840063196335  1.4955815810958841 0.0159643616786002  1.5121599231412557 0.023968957961327586  1.5287382651866288 0.031982380652701516  1.5453166072320035 0.04000003514752886 
 4.6040175505954331 6 4.6869093779207764 6
7 0 0  5 6 2  1.570796326795 0.02  1.5657002533910001 0.024000552878509999  1.5606041799879999 0.028001105757020001  1.555508106584 0.032001442189250003  1.55041203318 0.036001345728909999  1.5453159597770001 0.040000599999999997 
 4.7123889803849996 6 4.7378693474029996 6
7 0 0  5 6 2  4.7123889803849996 1.0220791198800001  4.7174850537879998 1.026079672759  4.722581127192 1.0300802256370001  4.7276772005960002 1.03408056207  4.7327732739990003 1.0380804656089999  4.7378693474029996 1.04207971988 
 4.7123889803849996 6 4.7378693474029996 6
7 0 0  5 6 2  4.7378693474029996 0.040000599999999997  4.7327732739990003 0.036001345728909999  4.7276772005960002 0.032001442189239997  4.722581127192 0.028001105757020001  4.7174850537879998 0.024000552878509999  4.7123889803849996 0.02 
 1.5453159597770001 6 1.570796326795 6
7 0 0  5 6 2  1.5453159597770001 1.04207971988  1.55041203318 1.0380804656089999  1.555508106584 1.03408056207  1.5606041799879999 1.0300802256370001  1.5657002533910001 1.026079672759  1.570796326795 1.0220791198800001 
 1.5453159597770001 6 1.570796326795 6
7 0 0  5 6 2  4.7378686999475468 0.040000035147715302  4.7544470419929876 0.031982380652866689  4.7710253840384222 0.023968957961471464  4.7876037260838533 0.015964361678722779  4.8041820681292791 0.0079731840064209379  4.8207604101746888 -1.1547627881130142e-13 
 1.5962759292585535 6 1.6791677565841536 6
1 0 0 1 0 
7 0 0  5 6 2  4.7123889803849996 0.02  4.7340639191290004 0.015992038972790001  4.7557388578730002 0.01198407794514  4.7774137966170001 0.0079800397363950001  4.7990887353609999 0.003983847155175  4.8207636741049997 -6.0000000079439999e-07 
 4.7123889803849996 6 4.8207636741049997 6
7 0 0  5 6 2  1.570796326795 1.0220791198800001  1.5924712655390001 1.026087080907  1.6141462042829999 1.0300950419349999  1.635821143027 1.034099080144  1.6574960817719999 1.0380952727249999  1.679171020516 1.04207971988 
 4.7123889803849996 6 4.8207636741049997 6
1 0 0 1 0 
7 0 0  5 6 2  1.4624216330740001 -6.0000000079439999e-07  1.4840965718179999 0.003983847155175  1.505771510562 0.0079800397363959993  1.5274464493069999 0.01198407794513  1.549121388051 0.015992038972790001  1.570796326795 0.02 
 1.4624216330740001 6 1.570796326795 6
7 0 0  5 6 2  4.6040142866640004 1.04207971988  4.6256892254080002 1.0380952727249999  4.647364164152 1.034099080144  4.6690391028959999 1.0300950419349999  4.6907140416409998 1.026087080907  4.7123889803849996 1.0220791198800001 
 1.4624216330740001 6 1.570796326795 6
1 0 1.0420791198799999 1 0 
1 0 1.0420791198799999 1 0 
1 0 -3.1415926535900001 1 0 
1 0 3.1415926535900001 1 0 
1 0.61086523819799998 -6.2831853071795862 0 1 
1 9.4247779607693793 0 -1 -0 
1 0 1.0420791198799999 1 0 
1 0 1.0420791198799999 1 0 
1 0 -3.1415926535895871 1 0 
1 0 3.1415926535895862 1 0 
1 0.61086523819799998 -6.2831853071795862 0 1 
1 6.2831853071795862 0 -1 -0 
1 6.2831853071800001 0 -1 -0 
1 0.61086523819799998 0 0 1 
1 0 1.9723943332610001 1 0 
1 6.2831853071800001 -0 0 1 
1 0 -0 0 1 
1 6.2831853071795862 0 0 1 
1 4.1389114358025836e-13 0 0 1 
1 0 1.9723943332610001 1 0 
Curves 77
7 0 0  7 14 3  -77.249201373510004 63.691492098411999 -16.389285233110002  -77.302121330770007 63.676539460682001 -16.398650042020002  -77.352970308379994 63.662171982316003 -16.408399984479999  -77.402429448000007 63.648197205396997 -16.417685645639999  -77.450716149729999 63.634553703103997 -16.425943853010001  -77.497974552700001 63.621200748644 -16.432759510779999  -77.544284609979997 63.608115751120003 -16.43783338742  -77.606510586490003 63.590533679395001 -16.44203287146  -77.623164308360003 63.585828137614001 -16.442890928440001  -77.639684499810002 63.581160325112002 -16.44346129717  -77.656067412149994 63.576531301095997 -16.443732209259998  -77.672307854549999 63.571942532237998 -16.443693096890001  -77.68839919413 63.567395892675002 -16.443334592759999  -77.704333355919999 63.562893664005998 -16.44264853016 
 0 8 0.73025822045699995 6 1 8
2 -77.683737635680004 63.547929997361997 -16.0625 -0.5877852522921384 -0.80901699437519059 8.5605079402660161e-17 -0.80901699437519059 0.5877852522921384 2.1226649492515005e-16 -2.2204460492508268e-16 5.551115123115758e-17 -1 0.38100000000000001
2 -76.712917242429995 62.842587694610998 -16.0625 -2.22044604925e-16 5.5511151231259996e-17 -1 -0.80901699437519059 0.5877852522921384 2.1226649492514335e-16 0.5877852522921384 0.80901699437519059 -8.5605079402528705e-17 1.581
2 -75.742096849180001 62.137245391859999 -16.0625 -0.5877852522921384 -0.80901699437519059 8.5605079402660161e-17 -0.80901699437519059 0.5877852522921384 2.1226649492515005e-16 -2.2204460492508268e-16 5.551115123115758e-17 -1 0.38100000000000001
7 0 0  7 14 3  -75.739840267169996 62.594877064537002 -16.389285233110002  -75.737707904580006 62.539926575174 -16.398650042020002  -75.735658990280001 62.487126528693999 -16.408399984479999  -75.733666078260001 62.435769648105001 -16.417685645639999  -75.731720408589993 62.385630191697999 -16.425943853010001  -75.729816173290004 62.336558489753003 -16.432759510779999  -75.72795015074 62.288471521403999 -16.43783338742  -75.725442810390007 62.223857942000002 -16.44203287146  -75.724771763489997 62.206565218922002 -16.442890928440001  -75.724106097079996 62.189411149794999 -16.44346129717  -75.723445962200003 62.172399627175999 -16.443732209259998  -75.722791568030004 62.155536041040001 -16.443693096890001  -75.722143181820002 62.138827278782998 -16.443334592759999  -75.721501128949996 62.122281725214997 -16.44264853016 
 0 8 0.73025822046 6 1 8
7 0 0  4 5 2  -75.722491680979999 62.147823494866003 -16.443373686560001  -75.727364363429999 62.145168292236001 -16.443437157110001  -75.73225619502 62.142519969296998 -16.443479158919999  -75.737167056260006 62.139878886757998 -16.443499999989999  -75.742096849190006 62.137245391862997 -16.4435 
 0 5 1 5
7 0 0  6 42 9  -75.742096849190006 62.137245391865001 -15.6815  -75.752031476100001 62.155842499738 -15.681499930459999  -75.762067088169999 62.174423000813 -15.68263331671  -75.772165167590003 62.192905618226 -15.684896825539999  -75.78228501657 62.211211058191999 -15.68828027581  -75.792383757449997 62.229262010002998 -15.692766638409999  -75.814665722640001 62.268619974419998 -15.705127173979999  -75.826816343250002 62.289765092835999 -15.7135309367  -75.838786477810004 62.310282172217001 -15.723500305170001  -75.850488835679997 62.330039978370003 -15.73497809207  -75.86183161676 62.348913697843003 -15.747893628110001  -75.883723251700005 62.384848778172 -15.77658492682  -75.894262110390002 62.401888343396998 -15.79238931956  -75.904238567120004 62.417784445418 -15.809490466190001  -75.91354988658 62.432422703897998 -15.82778754852  -75.922094084129995 62.445698087822002 -15.847164290869999  -75.940787458559996 62.47446193767 -15.89662204021  -75.950028330730007 62.488417472637998 -15.927706003779999  -75.957215730200005 62.499106302579001 -15.960341605289999  -75.962099972589996 62.506311704917003 -15.994061396059999  -75.96453800962 62.509909144158001 -16.028332435140001  -75.964528731170006 62.509895454149998 -16.08257695523  -75.963694557370005 62.508664596241999 -16.102555412099999  -75.962029354549998 62.506207819452001 -16.1224248913  -75.95954949707 62.502539135676003 -16.142078366540002  -75.956285224029997 62.49768500783 -16.161413185760001  -75.94612926296 62.482473187209997 -16.209363069959998  -75.938231176939993 62.470560551200002 -16.23741697514  -75.928731038899997 62.456077939011998 -16.264151768630001  -75.917832464420002 62.439212850788998 -16.289267630569999  -75.905752487059999 62.420184010214001 -16.31251248769  -75.879518889630006 62.378062025990999 -16.355056076349999  -75.865345704449993 62.354929868470997 -16.374311142429999  -75.850401143599996 62.330080155634001 -16.391224807019999  -75.834900097729999 62.303783877637997 -16.405619434039998  -75.819041314220001 62.276331801011999 -16.41735616611  -75.792880560420002 62.230149803878 -16.432011583760001  -75.782683318669996 62.211931407763998 -16.436585909790001  -75.772463260120006 62.193451162514997 -16.440036028960002  -75.76226458504 62.174788639486998 -16.44234426893  -75.752129226259996 62.156025479305001 -16.44350007297  -75.742096849180001 62.137245391858997 -16.4435 
 0 7 0.0957329300563 5 0.21261917118699999 5 0.33074767146599998 5 0.50008262328300002 5 0.59881065964699998 5 0.750291327658 5 0.90332699233799996 5 1 7
7 0 0  4 5 2  -75.722491680979999 62.147823494866003 -15.68162631343  -75.727364363429999 62.145168292234999 -15.68156284288  -75.732256195030004 62.142519969298 -15.681520841079999  -75.737167056260006 62.139878886755 -15.6815  -75.742096849190006 62.137245391865001 -15.6815 
 0 5 1 5
7 0 0  8 9 2  -75.721501128949996 62.122281725214997 -15.68235146983  -75.723586596480004 62.176023739804997 -15.680123053220001  -75.725729489290003 62.231245590625001 -15.6812884452  -75.727927172920005 62.287879388282001 -15.68553260246  -75.730178922929994 62.345906463711003 -15.69251341865  -75.732483696960003 62.405299956192998 -15.70179563682  -75.734848505629998 62.466240527277002 -15.71273415117  -75.737284012649994 62.52900297843 -15.724488329490001  -75.739840267169996 62.594877064537002 -15.735714766879999 
 0 9 1 9
2 -75.742096849180001 62.137245391859999 -16.0625 -0.5877852522921384 -0.80901699437519059 8.5605079402660161e-17 -0.80901699437519059 0.5877852522921384 2.1226649492515005e-16 -2.2204460492508268e-16 5.551115123115758e-17 -1 0.38100000000000001
2 -77.683737635680004 63.547929997361997 -16.0625 -0.5877852522921384 -0.80901699437519059 8.5605079402660161e-17 -0.80901699437519059 0.5877852522921384 2.1226649492515005e-16 -2.2204460492508268e-16 5.551115123115758e-17 -1 0.38100000000000001
7 0 0  7 14 3  -77.249201373510004 63.691492098411999 -15.735714766879999  -77.302121330770007 63.676539460682001 -15.72634995798  -77.352970308379994 63.662171982316003 -15.71660001551  -77.402429448000007 63.648197205396997 -15.70731435435  -77.450716149729999 63.634553703103997 -15.69905614698  -77.497974552700001 63.621200748644 -15.69224048922  -77.544284609979997 63.608115751120998 -15.68716661257  -77.606510586490003 63.590533679396003 -15.682967128530001  -77.623164308349999 63.585828137615003 -15.68210907155  -77.639684499810002 63.581160325112002 -15.68153870283  -77.656067412149994 63.576531301095997 -15.681267790730001  -77.672307854549999 63.571942532237998 -15.68130690311  -77.68839919413 63.567395892675002 -15.68166540723  -77.704333355919999 63.562893664005998 -15.68235146983 
 0 8 0.73025822045199995 6 1 8
7 0 0  4 5 2  -77.679735592040004 63.569844433931003 -15.68162631343  -77.680755098120002 63.564389734804003 -15.68156284288  -77.681762143810005 63.558918949690998 -15.681520841079999  -77.682756422989996 63.553432303718999 -15.6815  -77.683737635680004 63.547929997357997 -15.6815 
 0 5 1 5
7 0 0  6 22 5  -77.260585268309995 63.451538212660999 -16.0625  -77.260585268309995 63.451538212660999 -16.042714360049999  -77.261980496310002 63.451941616249002 -16.02292827386  -77.264771167459998 63.452748664113997 -16.003247683710001  -77.268939645350002 63.453948574352999 -15.98377657719  -77.274452749290006 63.455521555748 -15.96461477305  -77.291814267429999 63.460413617295998 -15.916799338020001  -77.305479243190007 63.464217297696003 -15.88870891034  -77.322088319939994 63.468753591697002 -15.861928426  -77.34140135618 63.473887207147001 -15.83675850969  -77.363144028839997 63.479479353194002 -15.813452001050001  -77.411471444669999 63.491466521284998 -15.770484282310001  -77.438158100850004 63.497877241899999 -15.75092355552  -77.466771152050001 63.504497958371999 -15.73376365477  -77.496973574809999 63.511202975163002 -15.71918962668  -77.528413811969997 63.517889305075997 -15.707345674380001  -77.580685122139997 63.528539004339997 -15.692766638409999  -77.600973280030004 63.532565426780003 -15.68828027581  -77.621509993309999 63.536533283064998 -15.68489682555  -77.642208485180007 63.540425684417002 -15.68263331671  -77.662980766489994 63.544228428083997 -15.681499930459999  -77.683737635659995 63.547929997342997 -15.6815 
 0 7 0.19555196607299999 5 0.49844711709099998 5 0.80853731599099998 5 1 7
7 0 0  6 22 5  -77.683737635680004 63.547929997357002 -16.4435  -77.662776536120006 63.544192005946996 -16.44350007297  -77.641799712259996 63.540350842301997 -16.44234426893  -77.620899034209998 63.536418362680003 -16.440036028960002  -77.600165104769999 63.532409219237998 -16.436585909790001  -77.579687259430003 63.528340860036998 -16.432011583760001  -77.517256192800005 63.515604743777999 -16.414418291560001  -77.476480741640003 63.506804698091003 -16.397647170679999  -77.438034199420002 63.498021322615998 -16.376251378060001  -77.402698717990006 63.489499141802 -16.350585497720001  -77.371215261700002 63.481556811685003 -16.32112443938  -77.331013244990004 63.471066159758003 -16.272477909340001  -77.318877408419993 63.467833819181998 -16.255722444340002  -77.30789631719 63.464855043981999 -16.238273351450001  -77.298140803449996 63.462167728855 -16.220210739620001  -77.289672895359999 63.459806757530004 -16.201623203890001  -77.275315130280006 63.455767498017003 -16.163335289399999  -77.269461429649994 63.454098755375 -16.143622778800001  -77.26503319535 63.452824444310998 -16.123571829740001  -77.262067826429998 63.451966861721999 -16.103291449309999  -77.260585268309995 63.451538212660999 -16.082895468130001  -77.260585268309995 63.451538212660999 -16.0625 
 0 7 0.19334542018199999 5 0.59953038819000004 5 0.79842145251600005 5 1 7
7 0 0  4 5 2  -77.679735592040004 63.569844433931003 -16.443373686560001  -77.680755098120002 63.564389734804003 -16.443437157110001  -77.681762143810005 63.558918949690003 -16.443479158919999  -77.682756422989996 63.553432303718999 -16.443499999989999  -77.683737635680004 63.547929997357002 -16.4435 
 0 5 1 5
1 -77.704333355919999 63.562893664005998 -13.4815 2.22044604925e-16 -5.5511151231259996e-17 1 
2 -77.689175764609999 63.567176471163002 -16.0625 0.27190644630213923 -0.9623236900644927 -1.1379505533835827e-16 0.9623236900644927 0.27190644630213923 -1.9858494370900165e-16 2.2204460492510433e-16 -5.551115123127708e-17 1 0.38100000000000001
1 -77.322530438689995 63.670772827203997 -16.0625 0.27190644630213923 -0.9623236900644927 -1.1379505533835827e-16 
2 -77.405827734360003 62.564359047181 -16.0625 0.27190644630213923 -0.9623236900644927 -1.1379505533835827e-16 0.9623236900644927 0.27190644630213923 -1.9858494370900165e-16 2.2204460492510433e-16 -5.551115123127708e-17 1 0.38100000000000001
3 -77.420055275300001 62.614712762156003 -16.0625 -0.5877852522921384 -0.80901699437519059 8.5605079402660161e-17 0.80901699437519059 -0.5877852522921384 -2.1226649492515005e-16 2.2204460492508268e-16 -5.551115123115758e-17 1 0.61579378173300003 0.38100000000000001
3 -77.411265863279993 62.583605520981997 -16.0625 0.9844691001985939 -0.17555794130192759 -2.283414758439058e-16 -0.17555794130192759 -0.9844691001985939 -1.5667319385723519e-17 -2.2204460492499147e-16 5.5511151231187138e-17 -1 0.87259822978099999 0.38100000000000001
3 -77.411265863279993 62.583605520981997 -16.0625 -0.17555794130192759 -0.9844691001985939 -1.5667319385723534e-17 0.9844691001985939 -0.17555794130192759 -2.283414758439058e-16 2.2204460492499147e-16 -5.551115123118715e-17 1 0.423501509868 0.38100000000000001
3 -77.411265863279993 62.583605520981997 -16.0625 -0.17555794130192759 -0.9844691001985939 -1.5667319385723534e-17 0.9844691001985939 -0.17555794130192759 -2.283414758439058e-16 2.2204460492499147e-16 -5.551115123118715e-17 1 0.423501509868 0.38100000000000001
3 -77.411265863279993 62.583605520981997 -16.0625 0.9844691001985939 -0.17555794130192759 -2.283414758439058e-16 -0.17555794130192759 -0.9844691001985939 -1.5667319385723519e-17 -2.2204460492499147e-16 5.5511151231187138e-17 -1 0.87259822978099999 0.38100000000000001
3 -77.420055275300001 62.614712762156003 -16.0625 -0.5877852522921384 -0.80901699437519059 8.5605079402660161e-17 0.80901699437519059 -0.5877852522921384 -2.1226649492515005e-16 2.2204460492508268e-16 -5.551115123115758e-17 1 0.61579378173300003 0.38100000000000001
2 -77.405827734360003 62.564359047181 -16.0625 0.27190644630213923 -0.9623236900644927 -1.1379505533835827e-16 0.9623236900644927 0.27190644630213923 -1.9858494370900165e-16 2.2204460492510433e-16 -5.551115123127708e-17 1 0.38100000000000001
1 -75.721501128949996 62.122281725214997 -13.4815 -2.22044604925e-16 5.5511151231259996e-17 -1 
2 -75.722111890600004 62.138020911395003 -16.0625 -0.99924792900849801 -0.038775976741119322 2.1972511250990951e-16 0.038775976741119322 -0.99924792900849801 -6.4079399340801963e-17 2.2204460492511014e-16 -5.5511151231280803e-17 1 0.38100000000000001
2 -75.722111890600004 62.138020911395003 -16.0625 -0.99924792900849801 -0.038775976741119322 2.1972511250990951e-16 0.038775976741119322 -0.99924792900849801 -6.4079399340801963e-17 2.2204460492511014e-16 -5.5511151231280803e-17 1 0.38100000000000001
1 -75.707338243470005 61.757307450441999 -16.0625 -0.99924792900849801 -0.038775976741119322 2.1972511250990951e-16 
3 -76.743422334429994 62.098388795215001 -16.0625 -0.88203536547522665 -0.47118320646112105 1.6969527202544358e-16 -0.47118320646112105 0.88203536547522665 1.5358648749023941e-16 -2.2204460492513194e-16 5.5511151231268945e-17 -1 0.423501509868 0.38100000000000001
3 -76.743422334429994 62.098388795215001 -16.0625 -0.47118320646112105 0.88203536547522665 1.5358648749023946e-16 -0.88203536547522665 -0.47118320646112105 1.6969527202544351e-16 2.2204460492513194e-16 -5.5511151231269019e-17 1 0.87259822978099999 0.38100000000000001
3 -76.711121512320005 62.099642233815999 -16.0625 -0.5877852522921384 -0.80901699437519059 8.5605079402660161e-17 -0.80901699437519059 0.5877852522921384 2.1226649492515005e-16 -2.2204460492508268e-16 5.551115123115758e-17 -1 0.61579378173300003 0.38100000000000001
2 -76.763407293010005 62.097613275679997 -16.0625 -0.99924792900849801 -0.038775976741119322 2.1972511250990951e-16 0.038775976741119322 -0.99924792900849801 -6.4079399340801963e-17 2.2204460492511014e-16 -5.5511151231280803e-17 1 0.38100000000000001
3 -76.711121512320005 62.099642233815999 -16.0625 -0.5877852522921384 -0.80901699437519059 8.5605079402660161e-17 -0.80901699437519059 0.5877852522921384 2.1226649492515005e-16 -2.2204460492508268e-16 5.551115123115758e-17 -1 0.61579378173300003 0.38100000000000001
3 -76.743422334429994 62.098388795215001 -16.0625 -0.47118320646112105 0.88203536547522665 1.5358648749023946e-16 -0.88203536547522665 -0.47118320646112105 1.6969527202544351e-16 2.2204460492513194e-16 -5.5511151231269019e-17 1 0.87259822978099999 0.38100000000000001
3 -76.743422334429994 62.098388795215001 -16.0625 -0.88203536547522665 -0.47118320646112105 1.6969527202544358e-16 -0.47118320646112105 0.88203536547522665 1.5358648749023941e-16 -2.2204460492513194e-16 5.5511151231268945e-17 -1 0.423501509868 0.38100000000000001
1 -77.366171585380002 62.575563969864 -16.0625 -2.22044604925e-16 5.5511151231259996e-17 -1 
2 -77.399510158240005 62.59978586087 -16.0625 -0.5877852522921384 -0.80901699437519059 8.5605079402660161e-17 -0.80901699437519059 0.5877852522921384 2.1226649492515005e-16 -2.2204460492508268e-16 5.551115123115758e-17 -1 0.38100000000000001
3 -77.411265863279993 62.583605520981997 -16.0625 -0.17555794130192759 -0.9844691001985939 -1.5667319385723534e-17 0.9844691001985939 -0.17555794130192759 -2.283414758439058e-16 2.2204460492499147e-16 -5.551115123118715e-17 1 0.423501509868 0.38100000000000001
1 -77.707745633089999 62.823732041992997 -16.0625 -0.5877852522921384 -0.80901699437519059 8.5605079402660161e-17 
2 -83.453698256850004 54.266910818808 -16.0625 -0.5877852522921384 -0.80901699437519059 8.5605079402660161e-17 -0.80901699437519059 0.5877852522921384 2.1226649492515005e-16 -2.2204460492508268e-16 5.551115123115758e-17 -1 0.38100000000000001
3 -77.411265863279993 62.583605520981997 -16.0625 0.9844691001985939 -0.17555794130192759 -2.283414758439058e-16 -0.17555794130192759 -0.9844691001985939 -1.5667319385723519e-17 -2.2204460492499147e-16 5.5511151231187138e-17 -1 0.87259822978099999 0.38100000000000001
3 -77.430266099679997 62.557453939120997 -16.0625 0.27190644630213923 -0.9623236900644927 -1.1379505533835827e-16 -0.9623236900644927 -0.27190644630213923 1.9858494370900165e-16 -2.2204460492510433e-16 5.551115123127708e-17 -1 0.61579378173300003 0.38100000000000001
2 -77.399510158240005 62.59978586087 -16.0625 -0.5877852522921384 -0.80901699437519059 8.5605079402660161e-17 -0.80901699437519059 0.5877852522921384 2.1226649492515005e-16 -2.2204460492508268e-16 5.551115123115758e-17 -1 0.38100000000000001
3 -77.430266099679997 62.557453939120997 -16.0625 0.27190644630213923 -0.9623236900644927 -1.1379505533835827e-16 -0.9623236900644927 -0.27190644630213923 1.9858494370900165e-16 -2.2204460492510433e-16 5.551115123127708e-17 -1 0.61579378173300003 0.38100000000000001
3 -77.411265863279993 62.583605520981997 -16.0625 0.9844691001985939 -0.17555794130192759 -2.283414758439058e-16 -0.17555794130192759 -0.9844691001985939 -1.5667319385723519e-17 -2.2204460492499147e-16 5.5511151231187138e-17 -1 0.87259822978099999 0.38100000000000001
3 -77.411265863279993 62.583605520981997 -16.0625 -0.17555794130192759 -0.9844691001985939 -1.5667319385723534e-17 0.9844691001985939 -0.17555794130192759 -2.283414758439058e-16 2.2204460492499147e-16 -5.551115123118715e-17 1 0.423501509868 0.38100000000000001
2 -77.399510158240005 62.59978586087 -16.0625 -0.5877852522921384 -0.80901699437519059 8.5605079402660161e-17 -0.80901699437519059 0.5877852522921384 2.1226649492515005e-16 -2.2204460492508268e-16 5.551115123115758e-17 -1 0.38100000000000001
2 -76.731666629380001 62.114569135102002 -16.0625 -0.5877852522921384 -0.80901699437519059 8.5605079402660161e-17 -0.80901699437519059 0.5877852522921384 2.1226649492515005e-16 -2.2204460492508268e-16 5.551115123115758e-17 -1 0.38100000000000001
1 -77.039902104239999 62.338515316226001 -16.0625 -0.5877852522921384 -0.80901699437519059 8.5605079402660161e-17 
2 -82.785854727989999 53.781694093040002 -16.0625 -0.5877852522921384 -0.80901699437519059 8.5605079402660161e-17 -0.80901699437519059 0.5877852522921384 2.1226649492515005e-16 -2.2204460492508268e-16 5.551115123115758e-17 -1 0.38100000000000001
2 -82.785854727989999 53.781694093040002 -16.0625 -0.5877852522921384 -0.80901699437519059 8.5605079402660161e-17 -0.80901699437519059 0.5877852522921384 2.1226649492515005e-16 -2.2204460492508268e-16 5.551115123115758e-17 -1 0.38100000000000001
2 -76.731666629380001 62.114569135102002 -16.0625 -0.5877852522921384 -0.80901699437519059 8.5605079402660161e-17 -0.80901699437519059 0.5877852522921384 2.1226649492515005e-16 -2.2204460492508268e-16 5.551115123115758e-17 -1 0.38100000000000001
3 -76.762422570819993 62.072237213354001 -16.0625 -0.99924792900849801 -0.038775976741119322 2.1972511250990951e-16 0.038775976741119322 -0.99924792900849801 -6.4079399340801963e-17 2.2204460492511014e-16 -5.5511151231280803e-17 1 0.61579378173300003 0.38100000000000001
3 -76.743422334429994 62.098388795215001 -16.0625 -0.47118320646112105 0.88203536547522665 1.5358648749023946e-16 -0.88203536547522665 -0.47118320646112105 1.6969527202544351e-16 2.2204460492513194e-16 -5.5511151231269019e-17 1 0.87259822978099999 0.38100000000000001
3 -76.743422334429994 62.098388795215001 -16.0625 -0.47118320646112105 0.88203536547522665 1.5358648749023946e-16 -0.88203536547522665 -0.47118320646112105 1.6969527202544351e-16 2.2204460492513194e-16 -5.5511151231269019e-17 1 0.87259822978099999 0.38100000000000001
3 -76.762422570819993 62.072237213354001 -16.0625 -0.99924792900849801 -0.038775976741119322 2.1972511250990951e-16 0.038775976741119322 -0.99924792900849801 -6.4079399340801963e-17 2.2204460492511014e-16 -5.5511151231280803e-17 1 0.61579378173300003 0.38100000000000001
2 -76.731666629380001 62.114569135102002 -16.0625 -0.5877852522921384 -0.80901699437519059 8.5605079402660161e-17 -0.80901699437519059 0.5877852522921384 2.1226649492515005e-16 -2.2204460492508268e-16 5.551115123115758e-17 -1 0.38100000000000001
3 -76.743422334429994 62.098388795215001 -16.0625 -0.88203536547522665 -0.47118320646112105 1.6969527202544358e-16 -0.47118320646112105 0.88203536547522665 1.5358648749023941e-16 -2.2204460492513194e-16 5.5511151231268945e-17 -1 0.423501509868 0.38100000000000001
1 -76.765005202240005 62.138791026108002 -16.0625 2.22044604925e-16 -5.5511151231259996e-17 1 
2 -76.731666629380001 62.114569135102002 -16.0625 -0.5877852522921384 -0.80901699437519059 8.5605079402660161e-17 -0.80901699437519059 0.5877852522921384 2.1226649492515005e-16 -2.2204460492508268e-16 5.551115123115758e-17 -1 0.38100000000000001
3 -76.743422334429994 62.098388795215001 -16.0625 -0.88203536547522665 -0.47118320646112105 1.6969527202544358e-16 -0.47118320646112105 0.88203536547522665 1.5358648749023941e-16 -2.2204460492513194e-16 5.5511151231268945e-17 -1 0.423501509868 0.38100000000000001
2 -77.405827734360003 62.564359047181 -16.0625 0.27190644630213923 -0.9623236900644927 -1.1379505533835827e-16 0.9623236900644927 0.27190644630213923 -1.9858494370900165e-16 2.2204460492510433e-16 -5.551115123127708e-17 1 0.38100000000000001
2 -77.405827734360003 62.564359047181 -16.0625 0.27190644630213923 -0.9623236900644927 -1.1379505533835827e-16 0.9623236900644927 0.27190644630213923 -1.9858494370900165e-16 2.2204460492510433e-16 -5.551115123127708e-17 1 0.38100000000000001
2 -84.020010152910004 54.678360495412001 -16.0625 -3.1186353437179999e-16 1.207684232943e-16 -1 0.80901699437519059 -0.5877852522921384 -3.2328879738766147e-16 -0.5877852522921384 -0.80901699437519059 8.5605079402461109e-17 0.31900000000000001
2 -83.792112444790007 54.016497492493002 -16.0625 0.9455185755993315 0.32556815445711412 -2.5555441211208961e-16 0.32556815445711412 -0.9455185755993315 -2.1572162289857566e-16 -3.118635343719303e-16 1.2076842329433158e-16 -1 0.38100000000000001
2 -76.763407293010005 62.097613275679997 -16.0625 -0.99924792900849801 -0.038775976741119322 2.1972511250990951e-16 0.038775976741119322 -0.99924792900849801 -6.4079399340801963e-17 2.2204460492511014e-16 -5.5511151231280803e-17 1 0.38100000000000001
2 -76.763407293010005 62.097613275679997 -16.0625 -0.99924792900849801 -0.038775976741119322 2.1972511250990951e-16 0.038775976741119322 -0.99924792900849801 -6.4079399340801963e-17 2.2204460492511014e-16 -5.5511151231280803e-17 1 0.38100000000000001
2 -82.219542831929999 53.370244416435 -16.0625 1.3222567547820001e-16 9.7461208317629996e-18 1 -0.80901699437519059 0.5877852522921384 1.0124419246263524e-16 -0.5877852522921384 -0.80901699437519059 8.5605079402582544e-17 0.31900000000000001
2 -82.91943621854 53.382461100942002 -16.0625 0.017452406437286828 0.99984769515639116 -1.2052292680244714e-17 -0.99984769515639116 0.017452406437286828 1.3203544360555163e-16 1.3222567547831922e-16 9.746120831761371e-18 1 0.38100000000000001
2 -82.91943621854 53.382461100942002 -16.0625 0.017452406437286828 0.99984769515639116 -1.2052292680244714e-17 -0.99984769515639116 0.017452406437286828 1.3203544360555163e-16 1.3222567547831922e-16 9.746120831761371e-18 1 0.38100000000000001
2 -85.657047925300006 53.374348709551001 -16.0625 -0.9455185755993315 -0.32556815445711412 1.9187463551016727e-16 -0.32556815445711412 0.9455185755993315 1.2477747687474376e-16 -2.2204460492513983e-16 5.5511151231309621e-17 -1 0.38100000000000001
1 -83.916153911639995 54.376740069796 -16.0625 -0.9455185755993315 -0.32556815445711412 1.9187463551016727e-16 
1 -83.300378190390006 53.389110467793998 -16.0625 -0.017452406437286828 -0.99984769515639116 -5.1627483921710198e-17 
2 -82.953859246099995 51.410367172891 -16.0625 -0.017452406437286828 -0.99984769515639116 -5.1627483921710198e-17 -0.99984769515639116 0.017452406437286828 2.2297958962938723e-16 -2.2204460492512459e-16 5.551115123127708e-17 -1 0.38100000000000001
Polygon3D 0
PolygonOnTriangulations 0
Surfaces 35
5 -76.712917242429995 62.842587694610998 -16.0625 -2.22044604925e-16 5.5511151231259996e-17 -1 -0.80901699437519059 0.5877852522921384 2.1226649492514335e-16 0.5877852522921384 0.80901699437519059 -8.5605079402528705e-17 1.2 0.38100000000000001
1 -77.689175764609999 63.567176471163002 -16.0625 0.27190644630213923 -0.9623236900644927 -1.1379505533835827e-16 0.9623236900644927 0.27190644630213923 -1.9858494370900165e-16 2.2204460492510433e-16 -5.551115123127708e-17 1 
1 -72.536771517470001 59.808440222277 -10.900499999999999 -0.5877852522921384 -0.80901699437519059 8.5605079402660161e-17 -0.80901699437519059 0.5877852522921384 2.1226649492515005e-16 -2.2204460492508268e-16 5.551115123115758e-17 -1 
1 -72.536771517470001 59.808440222277 -10.900499999999999 -0.5877852522921384 -0.80901699437519059 8.5605079402660161e-17 -0.80901699437519059 0.5877852522921384 2.1226649492515005e-16 -2.2204460492508268e-16 5.551115123115758e-17 -1 
1 -75.722111890600004 62.138020911395003 -16.0625 -0.99924792900849801 -0.038775976741119322 2.1972511250990951e-16 0.038775976741119322 -0.99924792900849801 -6.4079399340801963e-17 2.2204460492511014e-16 -5.5511151231280803e-17 1 
2 -75.722111890600004 62.138020911395003 -16.0625 -0.99924792900849801 -0.038775976741119322 2.1972511250990951e-16 0.038775976741119322 -0.99924792900849801 -6.4079399340801963e-17 2.2204460492511014e-16 -5.5511151231280803e-17 1 0.38100000000000001
2 -77.689175764609999 63.567176471163002 -16.0625 0.27190644630213923 -0.9623236900644927 -1.1379505533835827e-16 0.9623236900644927 0.27190644630213923 -1.9858494370900165e-16 2.2204460492510433e-16 -5.551115123127708e-17 1 0.38100000000000001
1 -77.405827734360003 62.564359047181 -16.0625 0.27190644630213923 -0.9623236900644927 -1.1379505533835827e-16 0.9623236900644927 0.27190644630213923 -1.9858494370900165e-16 2.2204460492510433e-16 -5.551115123127708e-17 1 
1 -77.399510158240005 62.59978586087 -16.0625 -0.5877852522921384 -0.80901699437519059 8.5605079402660161e-17 -0.80901699437519059 0.5877852522921384 2.1226649492515005e-16 -2.2204460492508268e-16 5.551115123115758e-17 -1 
2 -77.399510158240005 62.59978586087 -16.0625 -0.5877852522921384 -0.80901699437519059 8.5605079402660161e-17 -0.80901699437519059 0.5877852522921384 2.1226649492515005e-16 -2.2204460492508268e-16 5.551115123115758e-17 -1 0.38100000000000001
2 -77.399510158240005 62.59978586087 -16.0625 -0.5877852522921384 -0.80901699437519059 8.5605079402660161e-17 -0.80901699437519059 0.5877852522921384 2.1226649492515005e-16 -2.2204460492508268e-16 5.551115123115758e-17 -1 0.38100000000000001
2 -77.399510158240005 62.59978586087 -16.0625 -0.5877852522921384 -0.80901699437519059 8.5605079402660161e-17 -0.80901699437519059 0.5877852522921384 2.1226649492515005e-16 -2.2204460492508268e-16 5.551115123115758e-17 -1 0.38100000000000001
1 -77.399510158240005 62.59978586087 -16.0625 -0.5877852522921384 -0.80901699437519059 8.5605079402660161e-17 -0.80901699437519059 0.5877852522921384 2.1226649492515005e-16 -2.2204460492508268e-16 5.551115123115758e-17 -1 
2 -76.731666629380001 62.114569135102002 -16.0625 -0.5877852522921384 -0.80901699437519059 8.5605079402660161e-17 -0.80901699437519059 0.5877852522921384 2.1226649492515005e-16 -2.2204460492508268e-16 5.551115123115758e-17 -1 0.38100000000000001
2 -76.731666629380001 62.114569135102002 -16.0625 -0.5877852522921384 -0.80901699437519059 8.5605079402660161e-17 -0.80901699437519059 0.5877852522921384 2.1226649492515005e-16 -2.2204460492508268e-16 5.551115123115758e-17 -1 0.38100000000000001
1 -76.731666629380001 62.114569135102002 -16.0625 -0.5877852522921384 -0.80901699437519059 8.5605079402660161e-17 -0.80901699437519059 0.5877852522921384 2.1226649492515005e-16 -2.2204460492508268e-16 5.551115123115758e-17 -1 
1 -76.763407293010005 62.097613275679997 -16.0625 -0.99924792900849801 -0.038775976741119322 2.1972511250990951e-16 0.038775976741119322 -0.99924792900849801 -6.4079399340801963e-17 2.2204460492511014e-16 -5.5511151231280803e-17 1 
1 -76.731666629380001 62.114569135102002 -16.0625 -0.5877852522921384 -0.80901699437519059 8.5605079402660161e-17 -0.80901699437519059 0.5877852522921384 2.1226649492515005e-16 -2.2204460492508268e-16 5.551115123115758e-17 -1 
2 -76.731666629380001 62.114569135102002 -16.0625 -0.5877852522921384 -0.80901699437519059 8.5605079402660161e-17 -0.80901699437519059 0.5877852522921384 2.1226649492515005e-16 -2.2204460492508268e-16 5.551115123115758e-17 -1 0.38100000000000001
1 -77.399510158240005 62.59978586087 -16.0625 -0.5877852522921384 -0.80901699437519059 8.5605079402660161e-17 -0.80901699437519059 0.5877852522921384 2.1226649492515005e-16 -2.2204460492508268e-16 5.551115123115758e-17 -1 
2 -77.689175764609999 63.567176471163002 -16.0625 0.27190644630213923 -0.9623236900644927 -1.1379505533835827e-16 0.9623236900644927 0.27190644630213923 -1.9858494370900165e-16 2.2204460492510433e-16 -5.551115123127708e-17 1 0.38100000000000001
5 -84.020010152910004 54.678360495412001 -16.0625 -3.1186353437179999e-16 1.207684232943e-16 -1 0.80901699437519059 -0.5877852522921384 -3.2328879738766147e-16 -0.5877852522921384 -0.80901699437519059 8.5605079402461109e-17 0.69999999999999996 0.38100000000000001
2 -77.689175764609999 63.567176471163002 -16.0625 0.27190644630213923 -0.9623236900644927 -1.1379505533835827e-16 0.9623236900644927 0.27190644630213923 -1.9858494370900165e-16 2.2204460492510433e-16 -5.551115123127708e-17 1 0.38100000000000001
1 -77.405827734360003 62.564359047181 -16.0625 0.27190644630213923 -0.9623236900644927 -1.1379505533835827e-16 0.9623236900644927 0.27190644630213923 -1.9858494370900165e-16 2.2204460492510433e-16 -5.551115123127708e-17 1 
1 -77.405827734360003 62.564359047181 -16.0625 0.27190644630213923 -0.9623236900644927 -1.1379505533835827e-16 0.9623236900644927 0.27190644630213923 -1.9858494370900165e-16 2.2204460492510433e-16 -5.551115123127708e-17 1 
1 -76.731666629380001 62.114569135102002 -16.0625 -0.5877852522921384 -0.80901699437519059 8.5605079402660161e-17 -0.80901699437519059 0.5877852522921384 2.1226649492515005e-16 -2.2204460492508268e-16 5.551115123115758e-17 -1 
5 -82.219542831929999 53.370244416435 -16.0625 1.3222567547820001e-16 9.7461208317629996e-18 1 -0.80901699437519059 0.5877852522921384 1.0124419246263524e-16 -0.5877852522921384 -0.80901699437519059 8.5605079402582544e-17 0.69999999999999996 0.38100000000000001
1 -76.763407293010005 62.097613275679997 -16.0625 -0.99924792900849801 -0.038775976741119322 2.1972511250990951e-16 0.038775976741119322 -0.99924792900849801 -6.4079399340801963e-17 2.2204460492511014e-16 -5.5511151231280803e-17 1 
2 -75.722111890600004 62.138020911395003 -16.0625 -0.99924792900849801 -0.038775976741119322 2.1972511250990951e-16 0.038775976741119322 -0.99924792900849801 -6.4079399340801963e-17 2.2204460492511014e-16 -5.5511151231280803e-17 1 0.38100000000000001
2 -75.722111890600004 62.138020911395003 -16.0625 -0.99924792900849801 -0.038775976741119322 2.1972511250990951e-16 0.038775976741119322 -0.99924792900849801 -6.4079399340801963e-17 2.2204460492511014e-16 -5.5511151231280803e-17 1 0.38100000000000001
1 -76.763407293010005 62.097613275679997 -16.0625 -0.99924792900849801 -0.038775976741119322 2.1972511250990951e-16 0.038775976741119322 -0.99924792900849801 -6.4079399340801963e-17 2.2204460492511014e-16 -5.5511151231280803e-17 1 
2 -83.792112444790007 54.016497492493002 -16.0625 -0.9455185755993315 -0.32556815445711412 1.9187463551016727e-16 -0.32556815445711412 0.9455185755993315 1.2477747687474376e-16 -2.2204460492513983e-16 5.5511151231309621e-17 -1 0.38100000000000001
2 -82.91943621854 53.382461100942002 -16.0625 -0.017452406437286828 -0.99984769515639116 -5.1627483921710198e-17 -0.99984769515639116 0.017452406437286828 2.2297958962938723e-16 -2.2204460492512459e-16 5.551115123127708e-17 -1 0.38100000000000001
1 -85.657047925300006 53.374348709551001 -16.0625 -0.9455185755993315 -0.32556815445711412 1.9187463551016727e-16 -0.32556815445711412 0.9455185755993315 1.2477747687474376e-16 -2.2204460492513983e-16 5.5511151231309621e-17 -1 
1 -82.953859246099995 51.410367172891 -16.0625 -0.017452406437286828 -0.99984769515639116 -5.1627483921710198e-17 -0.99984769515639116 0.017452406437286828 2.2297958962938723e-16 -2.2204460492512459e-16 5.551115123127708e-17 -1 
Triangulations 0

TShapes 193
Ve
1e-07
-77.67973571507 63.569843775677 -16.44337369422
0 0

0101101
*
Ve
1e-07
-77.70433335592 63.562893664006 -16.44264853016
0 0

0101101
*
Ed
 1e-07 1 1 0
1  1 0 0.940890448205782 1
2  1 1 0 0.940890448205782 1
4 C0 1 0 2 0
0

0101000
+193 0 -192 0 *
Ve
1e-07
-77.99197311054 63.771876178485 -16.0625
0 0

0101101
*
Ed
 1e-07 1 1 0
1  2 0 0 1.50392836938924
2  2 1 0 0 1.50392836938924
4 C0 1 0 3 0
0

0101000
+190 0 -192 0 *
Ve
1e-07
-75.43386137433 61.913299210736 -16.0625
0 0

0101101
*
Ed
 1e-07 1 1 0
1  3 0 0 3.14159265359304
3  3 4CN 1 0 0 3.14159265359304
0

0101000
+190 0 -188 0 *
Ve
1e-07
-75.72150112895 62.122281725215 -16.44264853016
0 0

0101101
*
Ed
 1e-07 1 1 0
1  4 0 1.63766428418091 3.14159265358979
2  5 1 0 1.63766428418091 3.14159265358979
4 C0 1 0 4 0
0

0101000
+186 0 -188 0 *
Ve
1e-07
-75.722492269 62.147823174446 -16.44337369422
0 0

0101101
*
Ed
 1e-07 1 1 0
1  5 0 0.940890448207896 1
2  6 1 0 0.940890448207896 1
4 C0 1 0 5 0
0

0101000
+184 0 -186 0 *
Ve
1e-07
-75.74209684918 62.13724539186 -16.4435
0 0

0101101
*
Ed
 1e-07 1 1 0
1  6 0 3.01691788756751e-05 1
2  7 1 0 3.01691788756751e-05 1
2  8 6 0 3.01691788756751e-05 1
4 C0 1 0 6 0
0

0101000
+184 0 -182 0 *
Ve
1e-07
-75.74209684918 62.13724539186 -15.6815
0 0

0101101
*
Ed
 1e-07 1 1 0
1  7 0 0 1
2  9 1 0 0 1
2  10 6 0 0 1
4 C0 1 0 6 0
0

0101000
+180 0 -182 0 *
Ve
1e-07
-75.722492269 62.147823174446 -15.68162630577
0 0

0101101
*
Ed
 1e-07 1 1 0
1  8 0 3.01691788726507e-05 1
2  11 1 0 3.01691788726507e-05 1
2  12 6 0 3.01691788726507e-05 1
4 C0 1 0 6 0
0

0101000
+178 0 -180 0 *
Ve
1e-07
-75.72150112895 62.122281725215 -15.68235146983
0 0

0101101
*
Ed
 1e-07 1 1 0
1  9 0 0 0.0590729605666701
2  13 1 0 0 0.0590729605666701
4 C0 1 0 5 0
0

0101000
+176 0 -178 0 *
Ed
 1e-07 1 1 0
1  10 0 3.14159265358979 4.64552102300043
2  14 1 0 3.14159265358979 4.64552102300043
4 C0 1 0 4 0
0

0101000
+188 0 -176 0 *
Ve
1e-07
-77.70433335592 63.562893664006 -15.68235146983
0 0

0101101
*
Ed
 1e-07 1 1 0
1  11 0 4.77925693778859 6.28318530717959
2  15 1 0 4.77925693778859 6.28318530717959
4 C0 1 0 3 0
0

0101000
+173 0 -190 0 *
Ve
1e-07
-77.67973571507 63.569843775677 -15.68162630577
0 0

0101101
*
Ed
 1e-07 1 1 0
1  12 0 0.940890448204725 1
2  16 1 0 0.940890448204725 1
4 C0 1 0 2 0
0

0101000
+171 0 -173 0 *
Ve
1e-07
-77.68373763568 63.547929997362 -15.6815
0 0

0101101
*
Ed
 1e-07 1 1 0
1  13 0 3.01691186675767e-05 1
2  17 1 0 3.01691186675767e-05 1
2  18 7 0 3.01691186675767e-05 1
4 C0 1 0 7 0
0

0101000
+171 0 -169 0 *
Ve
1e-07
-77.26058526831 63.451538212661 -16.0625
0 0

0101101
*
Ed
 1e-07 1 1 0
1  14 0 0 1
2  19 1 0 0 1
2  20 7 0 0 1
4 C0 1 0 7 0
0

0101000
+167 0 -169 0 *
Ve
1e-07
-77.68373763568 63.547929997362 -16.4435
0 0

0101101
*
Ed
 1e-07 1 1 0
1  15 0 0 1
2  21 1 0 0 1
2  22 7 0 0 1
4 C0 1 0 7 0
0

0101000
+165 0 -167 0 *
Ed
 1e-07 1 1 0
1  16 0 3.0169118665737e-05 1
2  23 1 0 3.0169118665737e-05 1
2  24 7 0 3.0169118665737e-05 1
4 C0 1 0 7 0
0

0101000
+193 0 -165 0 *
Wi

0101100
+191 0 -189 0 +187 0 -185 0 -183 0 +181 0 -179 0 -177 0 -175 0 -174 0 
-187 0 -172 0 -170 0 +168 0 -166 0 -164 0 -163 0 *
Fa
0  1e-07 1 0

0111000
+162 0 *
Ed
 1e-07 1 1 0
1  17 0 -2.96114853016 -2.20085146983
4 C0 3 0 2 0
0

0101000
+192 0 -173 0 *
Wi

0101100
+172 0 +189 0 +160 0 *
Fa
0  1e-07 3 0

0111000
+159 0 *
Ed
 1e-07 1 1 0
1  18 0 1.5450463930812 4.73813891409907
2  25 7 0 1.5450463930812 4.73813891409907
4 C0 2 0 7 0
0

0101000
+171 0 -193 0 *
Wi

0101100
-170 0 +157 0 +191 0 +160 0 *
Fa
0  1e-07 2 0

0111000
+156 0 *
Ve
1e-07
-77.03918240844 62.667955403222 -16.0625
0 0

0101101
*
Ed
 1e-07 1 1 0
1  19 0 0.227817954400491 1.04207911987931
3  26 27CN 7 0 0.227817954400491 1.04207911987931
0

0101000
+167 0 -154 0 *
Ve
1e-07
-77.36617158538 62.575563969864 -16.44126488691
0 0

0101101
*
Ed
 1e-07 1 1 0
1  20 0 4.82076041017472 6.28318530717959
2  28 7 0 4.82076041017472 6.28318530717959
4 C0 7 0 8 0
0

0101000
+152 0 -154 0 *
Ve
1e-07
-77.40736302584 62.605491303153 -16.44337633215
0 0

0101101
*
Ed
 1e-07 1 1 0
1  21 0 4.73786858286058 4.82076041017604
2  29 7 0 4.73786858286058 4.82076041017604
4 C0 7 0 9 0
0

0101000
+150 0 -152 0 *
Ve
1e-07
-77.41126586328 62.583605520982 -16.4435
0 0

0101101
*
Ed
 1e-07 1 1 0
1  22 0 1.5707963267949 1.59627592926022
2  30 7 0 1.5707963267949 1.59627592926022
2  31 10 0 1.5707963267949 1.59627592926022
4 C0 7 0 10 0
0

0101000
+148 0 -150 0 *
Ve
1e-07
-77.82819001364 62.657954574193 -16.0625
0 0

0101101
*
Ed
 1e-07 1 1 0
1  23 0 3.14159265358979 4.71238898038469
2  32 7 0 3.14159265358979 4.71238898038469
2  33 11 0 3.14159265358979 4.71238898038469
4 C0 7 0 11 0
0

0101000
+146 0 -148 0 *
Ve
1e-07
-77.41126586328 62.583605520982 -15.6815
0 0

0101101
*
Ed
 1e-07 1 1 0
1  24 0 1.5707963267949 3.14159265358979
2  34 7 0 1.5707963267949 3.14159265358979
2  35 11 0 1.5707963267949 3.14159265358979
4 C0 7 0 11 0
0

0101000
+144 0 -146 0 *
Ve
1e-07
-77.40736302584 62.605491303153 -15.68162366784
0 0

0101101
*
Ed
 1e-07 1 1 0
1  25 0 4.6869093779195 4.71238898038469
2  36 7 0 4.6869093779195 4.71238898038469
2  37 12 0 4.6869093779195 4.71238898038469
4 C0 7 0 12 0
0

0101000
+142 0 -144 0 *
Ve
1e-07
-77.36617158538 62.575563969864 -15.68373511309
0 0

0101101
*
Ed
 1e-07 1 1 0
1  26 0 1.46242489700355 1.54531672431927
2  38 7 0 1.46242489700355 1.54531672431927
4 C0 7 0 13 0
0

0101000
+140 0 -142 0 *
Ed
 1e-07 1 1 0
1  27 0 0 1.46242489700487
2  39 7 0 0 1.46242489700487
4 C0 7 0 8 0
0

0101000
+154 0 -140 0 *
Wi

0101100
+164 0 +153 0 -151 0 -149 0 -147 0 -145 0 -143 0 -141 0 -139 0 -138 0 
-153 0 +166 0 -168 0 +157 0 +163 0 *
Fa
0  1e-07 7 0

0111000
+137 0 *
Ed
 1e-07 1 1 0
1  28 0 2.20085146983 2.96114853016
4 C0 4 0 5 0
0

0101000
+176 0 -186 0 *
Wi

0101100
+185 0 +174 0 +135 0 *
Fa
0  1e-07 4 0

0111000
+134 0 *
Ve
1e-07
-75.70733824347 61.757307450442 -16.0625
0 0

0101101
*
Ed
 1e-07 1 1 0
1  29 0 4.68663904667566 6.28318530717959
2  40 6 0 4.68663904667566 6.28318530717959
4 C0 5 0 6 0
0

0101000
+184 0 -132 0 *
Ed
 1e-07 1 1 0
1  30 0 0 1.59654626050325
2  41 6 0 0 1.59654626050325
4 C0 5 0 6 0
0

0101000
+132 0 -178 0 *
Wi

0101100
+131 0 +130 0 -175 0 +135 0 -183 0 *
Fa
0  1e-07 5 0

0111000
+129 0 *
Ve
1e-07
-76.54387553507 61.724845486179 -16.0625
0 0

0101101
*
Ed
 1e-07 1 1 0
1  31 0 0 0.837166900540907
3  42 43CN 6 0 0 0.837166900540907
0

0101000
+132 0 -127 0 *
Ve
1e-07
-76.74342233443 62.098388795215 -16.4435
0 0

0101101
*
Ed
 1e-07 1 1 0
1  32 0 1.5707963267949 3.14159265358979
2  44 6 0 1.5707963267949 3.14159265358979
2  45 14 0 1.5707963267949 3.14159265358979
4 C0 6 0 14 0
0

0101000
+125 0 -127 0 *
Ve
1e-07
-76.72381376177 62.108863692819 -16.44337633215
0 0

0101101
*
Ed
 1e-07 1 1 0
1  33 0 4.68690937791275 4.71238898038469
2  46 6 0 4.68690937791275 4.71238898038469
2  47 15 0 4.68690937791275 4.71238898038469
4 C0 6 0 15 0
0

0101000
+123 0 -125 0 *
Ve
1e-07
-76.76500520224 62.138791026108 -16.44126488691
0 0

0101101
*
Ed
 1e-07 1 1 0
1  34 0 1.46242489700355 1.54531672433216
2  48 6 0 1.46242489700355 1.54531672433216
4 C0 6 0 16 0
0

0101000
+121 0 -123 0 *
Ve
1e-07
-76.76500520224 62.138791026108 -15.68373511309
0 0

0101101
*
Ed
 1e-07 1 1 0
1  35 0 1.67916775658374 4.60401755059584
2  49 6 0 1.67916775658374 4.60401755059584
4 C0 6 0 17 0
0

0101000
+119 0 -121 0 *
Ve
1e-07
-76.72381376177 62.108863692819 -15.68162366784
0 0

0101101
*
Ed
 1e-07 1 1 0
1  36 0 4.73786858284718 4.82076041017604
2  50 6 0 4.73786858284718 4.82076041017604
4 C0 6 0 18 0
0

0101000
+117 0 -119 0 *
Ve
1e-07
-76.74342233443 62.098388795215 -15.6815
0 0

0101101
*
Ed
 1e-07 1 1 0
1  37 0 1.5707963267949 1.59627592926671
2  51 6 0 1.5707963267949 1.59627592926671
2  52 19 0 1.5707963267949 1.59627592926671
4 C0 6 0 19 0
0

0101000
+115 0 -117 0 *
Ed
 1e-07 1 1 0
1  38 0 3.14159265358979 4.71238898038469
2  53 6 0 3.14159265358979 4.71238898038469
2  54 14 0 3.14159265358979 4.71238898038469
4 C0 6 0 14 0
0

0101000
+127 0 -115 0 *
Wi

0101100
+131 0 +126 0 -124 0 -122 0 -120 0 -118 0 -116 0 -114 0 -113 0 -126 0 
+130 0 +177 0 +179 0 -181 0 *
Fa
0  1e-07 6 0

0111000
+112 0 *
Ed
 1e-07 1 1 0
1  39 0 -0.37876488691 0.378764886910002
4 C0 8 0 20 0
0

0101000
+140 0 -152 0 *
Wi

0101100
+151 0 +138 0 +110 0 *
Fa
0  1e-07 8 0

0111000
+109 0 *
Ed
 1e-07 1 1 0
1  40 0 4.60401755059491 4.73786858283412
2  55 12 0 4.60401755059491 4.73786858283412
4 C0 13 0 12 0
0

0101000
+140 0 -142 0 *
Wi

0101100
-139 0 +107 0 *
Fa
0  1e-07 13 0

0111000
+106 0 *
Ed
 1e-07 1 1 0
1  41 0 1.46242489701898 1.5707963267949
2  56 12 0 1.46242489701898 1.5707963267949
2  57 21 0 1.46242489701898 1.5707963267949
4 C0 12 0 21 0
0

0101000
+140 0 -144 0 *
Wi

0101100
+141 0 -104 0 +107 0 *
Fa
0  1e-07 12 0

0111000
+103 0 *
Ve
1e-07
-83.76193373171 54.490856999931 -16.0625
0 0

0101101
*
Ed
 1e-07 1 1 0
1  42 0 0.204912219343435 10.3000000000045
3  58 59CN 11 0 0.204912219343435 10.3000000000045
0

0101000
+146 0 -101 0 *
Ed
 1e-07 1 1 0
1  43 0 0 6.28318530717959
2  60 11 0 0 6.28318530717959
2  61 22 0 0 6.28318530717959
4 G1 11 0 22 0
0

0101100
+101 0 -101 0 *
Ve
1e-07
-77.41516870072 62.561719738811 -16.44337633215
0 0

0101101
*
Ed
 1e-07 1 1 0
1  44 0 1.54531672432958 1.5707963267949
2  62 11 0 1.54531672432958 1.5707963267949
2  63 23 0 1.54531672432958 1.5707963267949
4 C0 11 0 23 0
0

0101000
+98 0 -148 0 *
Ed
 1e-07 1 1 0
1  45 0 1.59627592926321 1.67916775658071
2  64 11 0 1.59627592926321 1.67916775658071
4 C0 11 0 24 0
0

0101000
+98 0 -152 0 *
Ed
 1e-07 1 1 0
1  46 0 1.67916775658467 4.60401755059491
2  65 11 0 1.67916775658467 4.60401755059491
4 C0 11 0 20 0
0

0101000
+152 0 -140 0 *
Ve
1e-07
-77.41516870072 62.561719738811 -15.68162366784
0 0

0101101
*
Ed
 1e-07 1 1 0
1  47 0 4.60401755059887 4.68690937791663
2  66 11 0 4.60401755059887 4.68690937791663
4 C0 11 0 25 0
0

0101000
+140 0 -94 0 *
Ed
 1e-07 1 1 0
1  48 0 4.71238898038469 4.73786858284987
2  67 11 0 4.71238898038469 4.73786858284987
2  68 21 0 4.71238898038469 4.73786858284987
4 C0 11 0 21 0
0

0101000
+144 0 -94 0 *
Wi

0101100
+100 0 -99 0 -100 0 +145 0 -97 0 +96 0 +95 0 +93 0 -92 0 +143 0 
*
Fa
0  1e-07 11 0

0111000
+91 0 *
Ed
 1e-07 1 1 0
1  49 0 4.71238898038469 4.82076041016061
2  69 10 0 4.71238898038469 4.82076041016061
2  70 23 0 4.71238898038469 4.82076041016061
4 C0 10 0 23 0
0

0101000
+148 0 -152 0 *
Ed
 1e-07 1 1 0
1  50 0 1.5453167243448 1.67916775658467
2  71 10 0 1.5453167243448 1.67916775658467
4 C0 10 0 9 0
0

0101000
+150 0 -152 0 *
Wi

0101100
-89 0 +147 0 +88 0 *
Fa
0  1e-07 10 0

0111000
+87 0 *
Wi

0101100
+88 0 -149 0 *
Fa
0  1e-07 9 0

0111000
+85 0 *
Ve
1e-07
-77.03990210424 62.338515316226 -16.0625
0 0

0101101
*
Ed
 1e-07 1 1 0
1  51 0 4.82076041017447 6.28318530717959
2  72 14 0 4.82076041017447 6.28318530717959
4 C0 14 0 26 0
0

0101000
+119 0 -83 0 *
Ve
1e-07
-83.09409020285 54.005640274164 -16.0625
0 0

0101101
*
Ed
 1e-07 1 1 0
1  52 0 0 10.2999999999986
3  73 74CN 14 0 0 10.2999999999986
0

0101000
+83 0 -81 0 *
Ve
1e-07
-82.47761925314 53.557747911917 -16.0625
0 0

0101101
*
Ed
 1e-07 1 1 0
1  53 0 3.14159265358979 6.28318530717959
2  75 14 0 3.14159265358979 6.28318530717959
2  76 27 0 3.14159265358979 6.28318530717959
4 G1 14 0 27 0
0

0101000
+79 0 -81 0 *
Ed
 1e-07 1 1 0
1  54 0 0 3.14159265358979
2  77 14 0 0 3.14159265358979
2  78 27 0 0 3.14159265358979
4 G1 14 0 27 0
0

0101000
+81 0 -79 0 *
Ed
 1e-07 1 1 0
1  55 0 0 1.46242489700512
2  79 14 0 0 1.46242489700512
4 C0 14 0 26 0
0

0101000
+83 0 -121 0 *
Ve
1e-07
-76.76303090708 62.08791389761 -16.44337633215
0 0

0101101
*
Ed
 1e-07 1 1 0
1  56 0 4.60401755059543 4.68690937792078
2  80 14 0 4.60401755059543 4.68690937792078
4 C0 14 0 28 0
0

0101000
+121 0 -75 0 *
Ed
 1e-07 1 1 0
1  57 0 4.71238898038469 4.73786858284707
2  81 14 0 4.71238898038469 4.73786858284707
2  82 29 0 4.71238898038469 4.73786858284707
4 C0 14 0 29 0
0

0101000
+125 0 -75 0 *
Ve
1e-07
-76.76303090708 62.08791389761 -15.68162366784
0 0

0101101
*
Ed
 1e-07 1 1 0
1  58 0 1.54531672433264 1.5707963267949
2  83 14 0 1.54531672433264 1.5707963267949
2  84 30 0 1.54531672433264 1.5707963267949
4 C0 14 0 30 0
0

0101000
+72 0 -115 0 *
Ed
 1e-07 1 1 0
1  59 0 1.59627592925855 1.67916775658415
2  85 14 0 1.59627592925855 1.67916775658415
4 C0 14 0 31 0
0

0101000
+72 0 -119 0 *
Wi

0101100
+82 0 +80 0 -78 0 -77 0 -80 0 +76 0 +74 0 -73 0 +124 0 +113 0 
-71 0 +70 0 *
Fa
0  1e-07 14 0

0111000
+69 0 *
Ed
 1e-07 1 1 0
1  60 0 4.68690937791401 4.82076041017447
2  86 19 0 4.68690937791401 4.82076041017447
4 C0 19 0 18 0
0

0101000
+117 0 -119 0 *
Ed
 1e-07 1 1 0
1  61 0 4.71238898038469 4.8207604101691
2  87 19 0 4.71238898038469 4.8207604101691
2  88 30 0 4.71238898038469 4.8207604101691
4 C0 19 0 30 0
0

0101000
+115 0 -119 0 *
Wi

0101100
+67 0 -66 0 +114 0 *
Fa
0  1e-07 19 0

0111000
+65 0 *
Wi

0101100
+67 0 -116 0 *
Fa
0  1e-07 18 0

0111000
+63 0 *
Ed
 1e-07 1 1 0
1  62 0 -0.378764886910002 0.37876488691
4 C0 17 0 26 0
0

0101000
+121 0 -119 0 *
Wi

0101100
+61 0 +118 0 *
Fa
0  1e-07 17 0

0111000
+60 0 *
Ed
 1e-07 1 1 0
1  63 0 1.46242489700512 1.59627592926624
2  89 15 0 1.46242489700512 1.59627592926624
4 C0 16 0 15 0
0

0101000
+121 0 -123 0 *
Wi

0101100
-120 0 +58 0 *
Fa
0  1e-07 16 0

0111000
+57 0 *
Ed
 1e-07 1 1 0
1  64 0 1.46242489701049 1.5707963267949
2  90 15 0 1.46242489701049 1.5707963267949
2  91 29 0 1.46242489701049 1.5707963267949
4 C0 15 0 29 0
0

0101000
+121 0 -125 0 *
Wi

0101100
-55 0 +58 0 +122 0 *
Fa
0  1e-07 15 0

0111000
+54 0 *
Wi

0101100
+110 0 +95 0 *
Fa
0  1e-07 20 0

0111000
+52 0 *
Ed
 1e-07 1 1 0
1  65 0 1.46242489700487 1.59627592924745
2  92 21 0 1.46242489700487 1.59627592924745
4 C0 21 0 25 0
0

0101000
+140 0 -94 0 *
Wi

0101100
-50 0 +104 0 +92 0 *
Fa
0  1e-07 21 0

0111000
+49 0 *
Wi

0101100
-93 0 +50 0 *
Fa
0  1e-07 25 0

0111000
+47 0 *
Ed
 1e-07 1 1 0
1  66 0 4.68690937793147 4.82076041017472
2  93 23 0 4.68690937793147 4.82076041017472
4 C0 24 0 23 0
0

0101000
+98 0 -152 0 *
Wi

0101100
+45 0 -96 0 *
Fa
0  1e-07 24 0

0111000
+44 0 *
Wi

0101100
+89 0 -45 0 +97 0 *
Fa
0  1e-07 23 0

0111000
+42 0 *
Ve
1e-07
-83.91615391164 54.376740069796 -16.0625
0 0

0101101
*
Ed
 1e-07 1 1 0
1  67 0 0 0.610865238203651
3  94 95CN 22 0 0 0.610865238203651
0

0101000
+101 0 -40 0 *
Ed
 1e-07 1 1 0
1  68 0 3.14159265358979 9.42477796076938
2  96 22 0 3.14159265358979 9.42477796076938
2  97 32 0 3.14159265358979 9.42477796076938
4 G1 22 0 32 0
0

0101100
+40 0 -40 0 *
Wi

0101100
-39 0 +99 0 +39 0 +38 0 *
Fa
0  1e-07 22 0

0111000
+37 0 *
Wi

0101100
+82 0 +76 0 +61 0 *
Fa
0  1e-07 26 0

0111000
+35 0 *
Ed
 1e-07 1 1 0
1  69 0 1.54531672432852 1.67916775658374
2  98 30 0 1.54531672432852 1.67916775658374
4 C0 31 0 30 0
0

0101000
+72 0 -119 0 *
Wi

0101100
+33 0 -70 0 *
Fa
0  1e-07 31 0

0111000
+32 0 *
Wi

0101100
+71 0 +66 0 -33 0 *
Fa
0  1e-07 30 0

0111000
+30 0 *
Ed
 1e-07 1 1 0
1  70 0 4.60401755059584 4.73786858285173
2  99 29 0 4.60401755059584 4.73786858285173
4 C0 29 0 28 0
0

0101000
+121 0 -75 0 *
Wi

0101100
+55 0 +73 0 -28 0 *
Fa
0  1e-07 29 0

0111000
+27 0 *
Wi

0101100
-74 0 +28 0 *
Fa
0  1e-07 28 0

0111000
+25 0 *
Ve
1e-07
-82.53849424669 53.375811734089 -16.0625
0 0

0101101
*
Ed
 1e-07 1 1 0
1  71 0 0 0.610865238196298
3  100 101CN 27 0 0 0.610865238196298
0

0101000
+79 0 -23 0 *
Ve
1e-07
-83.30037819039 53.389110467794 -16.0625
0 0

0101101
*
Ed
 1e-07 1 1 0
1  72 0 3.14159265358979 6.28318530717959
2  102 27 0 3.14159265358979 6.28318530717959
2  103 33 0 3.14159265358979 6.28318530717959
4 G1 27 0 33 0
0

0101000
+23 0 -21 0 *
Ed
 1e-07 1 1 0
1  73 0 0 3.14159265358979
2  104 33 0 0 3.14159265358979
2  105 27 0 0 3.14159265358979
4 G1 27 0 33 0
0

0101000
+21 0 -23 0 *
Wi

0101100
+78 0 +77 0 +22 0 +20 0 +19 0 -22 0 *
Fa
0  1e-07 27 0

0111000
+18 0 *
Ve
1e-07
-85.78108939215 53.734591286854 -16.0625
0 0

0101101
*
Ed
 1e-07 1 1 0
1  74 0 0 6.28318530717959
2  106 32 0 0 6.28318530717959
4 C0 32 0 34 0
0

0101100
+16 0 -16 0 *
Ed
 1e-07 1 1 0
1  75 0 0 1.97239433326578
3  107 108CN 32 0 0 1.97239433326578
0

0101000
+40 0 -16 0 *
Wi

0101100
-15 0 -14 0 -38 0 +14 0 *
Fa
0  1e-07 32 0

0111000
+13 0 *
Ve
1e-07
-83.33480121795 51.417016539743 -16.0625
0 0

0101101
*
Ed
 1e-07 1 1 0
1  76 0 -0 1.97239433326148
3  109 110CN 33 0 -0 1.97239433326148
0

0101000
+21 0 -11 0 *
Ed
 1e-07 1 1 0
1  77 0 0 6.28318530717959
2  111 33 0 0 6.28318530717959
4 C0 33 0 35 0
0

0101100
+11 0 -11 0 *
Wi

0101100
+10 0 -9 0 -10 0 -20 0 -19 0 *
Fa
0  1e-07 33 0

0111000
+8 0 *
Wi

0101100
+15 0 *
Fa
0  1e-07 34 0

0111000
+6 0 *
Wi

0101100
+9 0 *
Fa
0  1e-07 35 0

0111000
+4 0 *
Sh

0101100
+161 0 +158 0 -155 0 +136 0 +133 0 -128 0 +111 0 +108 0 -105 0 +102 0 
+90 0 +86 0 -84 0 +68 0 +64 0 -62 0 +59 0 -56 0 +53 0 -51 0 
+48 0 +46 0 +43 0 +41 0 +36 0 -34 0 +31 0 +29 0 +26 0 +24 0 
+17 0 +12 0 +7 0 +5 0 +3 0 *
So

0100000
+2 0 *

+1 0 