DBRep_DrawableShape

CASCADE Topology V1, (c) Matra-Datavision
Locations 0
Curve2ds 56
1 0 1 1 0 
1 0 0 1 0 
1 0 0 1 0 
1 0 0 1 0 
1 0 0 1 0 
1 6.2831853071800001 -0 0 1 
1 0 -0 0 1 
1 0 7.3499999999999996 1 0 
1 6.048471651841 0 0 1 
1 0 5.3499999999999996 1 0 
1 5.4707014113210004 0 0 1 
1 0 7.3499999999999996 1 0 
1 5.0012741006450003 0 0 1 
1 0 5.3499999999999996 1 0 
1 4.4235038601249999 0 0 1 
1 0 7.3499999999999996 1 0 
1 3.9540765494480001 0 0 1 
1 0 5.3499999999999996 1 0 
1 3.3763063089280001 0 0 1 
1 0 7.3499999999999996 1 0 
1 2.9068789982509999 0 0 1 
1 0 5.3499999999999996 1 0 
1 2.329108757732 0 0 1 
1 0 7.3499999999999996 1 0 
1 1.859681447055 0 0 1 
1 0 5.3499999999999996 1 0 
1 1.281911206535 0 0 1 
1 0 7.3499999999999996 1 0 
1 0.81248389585799996 0 0 1 
1 0 5.3499999999999996 1 0 
1 0.23471365533800001 0 0 1 
1 0 7.3499999999999996 1 0 
1 5.5747864731870003 0 0 1 
1 0 2 1 0 
1 4.8971890387789996 0 0 1 
1 0 0 1 0 
1 0 2 1 0 
1 3.8499914875819998 0 0 1 
1 4.5275889219909997 0 0 1 
1 0 0 1 0 
1 6.2831853071800001 -0 0 1 
1 0 -0 0 1 
1 0 2 1 0 
1 5.9443865899750001 0 0 1 
1 0 2 1 0 
1 0.33879871720400001 0 0 1 
1 0 0 1 0 
1 0.70839883399199999 0 0 1 
1 0 2 1 0 
1 1.3859962684010001 0 0 1 
1 1.755596385189 0 0 1 
1 0 2 1 0 
1 2.4331938195979999 0 0 1 
1 2.8027939363850001 0 0 1 
1 0 2 1 0 
1 3.480391370794 0 0 1 
Curves 144
1 -24.490889417679998 -96.137187849520004 -10.7125 -2.22044604925e-16 -2.22044604925e-16 -1 
1 -24.490889417679998 -96.137187849520004 -15.0625 -0.74314482547714722 -0.66913060635913257 3.1358814030746211e-16 
1 -24.490889417679998 -96.137187849520004 -15.0625 -0.74314482547714722 -0.66913060635913257 3.1358814030746211e-16 
1 -24.490889417679998 -96.137187849520004 -15.0625 -0.74314482547714722 -0.66913060635913257 3.1358814030746211e-16 
1 -24.490889417679998 -96.137187849520004 -15.0625 -0.74314482547714722 -0.66913060635913257 3.1358814030746211e-16 
1 -24.490889417679998 -96.137187849520004 -15.0625 -0.74314482547714722 -0.66913060635913257 3.1358814030746211e-16 
1 -29.258761605389999 -100.43019925 -10.7125 -2.22044604925e-16 -2.22044604925e-16 -1 
1 -24.490889417679998 -96.137187849520004 -10.7125 -0.74314482547714722 -0.66913060635913257 3.1358814030746211e-16 
1 -25.824810255399999 -89.861583712699996 -10.7125 -2.22044604925e-16 -2.22044604925e-16 -1 
1 -25.824810255399999 -89.861583712699996 -15.0625 0.20791169081795011 -0.97814760073376517 1.7102672831635896e-16 
1 -25.824810255399999 -89.861583712699996 -15.0625 0.20791169081795011 -0.97814760073376517 1.7102672831635896e-16 
1 -25.824810255399999 -89.861583712699996 -15.0625 0.20791169081795011 -0.97814760073376517 1.7102672831635896e-16 
1 -25.824810255399999 -89.861583712699996 -15.0625 0.20791169081795011 -0.97814760073376517 1.7102672831635896e-16 
1 -25.824810255399999 -89.861583712699996 -15.0625 0.20791169081795011 -0.97814760073376517 1.7102672831635896e-16 
1 -25.824810255399999 -89.861583712699996 -10.7125 0.20791169081795011 -0.97814760073376517 1.7102672831635896e-16 
1 -29.258761605389999 -100.43019925 -15.0625 -0.95105651629512344 0.3090169943750401 1.4256141199101852e-16 
1 -29.258761605389999 -100.43019925 -15.0625 -0.95105651629512344 0.3090169943750401 1.4256141199101852e-16 
1 -29.258761605389999 -100.43019925 -15.0625 -0.95105651629512344 0.3090169943750401 1.4256141199101852e-16 
1 -29.258761605389999 -100.43019925 -15.0625 -0.95105651629512344 0.3090169943750401 1.4256141199101852e-16 
1 -29.258761605389999 -100.43019925 -15.0625 -0.95105651629512344 0.3090169943750401 1.4256141199101852e-16 
1 -35.360554630830002 -98.447606513729994 -10.7125 -2.22044604925e-16 -2.22044604925e-16 -1 
1 -29.258761605389999 -100.43019925 -10.7125 -0.95105651629512344 0.3090169943750401 1.4256141199101852e-16 
1 -35.360554630830002 -98.447606513729994 -10.7125 -0.20791169081795011 0.97814760073376517 -1.7102672831635896e-16 
1 -36.694475468550003 -92.172002376910001 -10.7125 0.74314482547714722 0.66913060635913257 -3.1358814030746211e-16 
1 -31.926603280839998 -87.878990976400004 -10.7125 0.95105651629512344 -0.3090169943750401 -1.4256141199101852e-16 
2 -30.592682443120001 -94.154595113219997 -10.7125 -2.22044604925e-16 -2.22044604925e-16 -1 -0.3090169943750401 -0.95105651629512344 2.7979252485321423e-16 -0.95105651629512344 0.3090169943750401 1.4256141199098078e-16 3.2250000000000001
1 -24.602433981760001 -95.134913905120001 -15.0625 -0.3090169943750401 -0.95105651629512344 2.7979252485323632e-16 
1 -36.582930904469997 -93.174276321310003 -15.0625 0.95105651629512344 -0.3090169943750401 -1.4256141199101852e-16 
2 -30.592682443120001 -94.154595113219997 -15.0625 -2.22044604925e-16 -2.22044604925e-16 -1 -0.3090169943750401 -0.95105651629512344 2.7979252485321423e-16 -0.95105651629512344 0.3090169943750401 1.4256141199098078e-16 5
1 -36.015112177299997 -91.426709972620003 -15.0625 0.95105651629512344 -0.3090169943750401 -1.4256141199101852e-16 
2 -30.592682443120001 -94.154595113219997 -15.0625 -2.22044604925e-16 -2.22044604925e-16 -1 -0.3090169943750401 -0.95105651629512344 2.7979252485321423e-16 -0.95105651629512344 0.3090169943750401 1.4256141199098078e-16 5
1 -30.941479479849999 -88.094690642870006 -15.0625 0.20791169081795011 -0.97814760073376517 1.7102672831635896e-16 
2 -30.592682443120001 -94.154595113219997 -15.0625 -2.22044604925e-16 -2.22044604925e-16 -1 -0.3090169943750401 -0.95105651629512344 2.7979252485321423e-16 -0.95105651629512344 0.3090169943750401 1.4256141199098078e-16 5
1 -28.446539190029998 -99.832461851679994 -15.0625 -0.97814760073376517 -0.20791169081795011 2.6335806681013681e-16 
1 -32.738825696200003 -88.476728374749996 -15.0625 0.20791169081795011 -0.97814760073376517 1.7102672831635896e-16 
1 -31.926603280839998 -87.878990976400004 -10.7125 -2.22044604925e-16 -2.22044604925e-16 -1 
1 -31.926603280839998 -87.878990976400004 -15.0625 0.95105651629512344 -0.3090169943750401 -1.4256141199101852e-16 
1 -31.926603280839998 -87.878990976400004 -15.0625 0.95105651629512344 -0.3090169943750401 -1.4256141199101852e-16 
1 -31.926603280839998 -87.878990976400004 -15.0625 0.95105651629512344 -0.3090169943750401 -1.4256141199101852e-16 
1 -31.926603280839998 -87.878990976400004 -15.0625 0.95105651629512344 -0.3090169943750401 -1.4256141199101852e-16 
1 -31.926603280839998 -87.878990976400004 -15.0625 0.95105651629512344 -0.3090169943750401 -1.4256141199101852e-16 
1 -25.519049745659999 -90.82257578347 -15.0625 -0.66913060635913257 0.74314482547714722 -1.6434458043013253e-17 
1 -26.748577234839999 -89.457047166660004 -15.0625 -0.74314482547714722 -0.66913060635913257 3.1358814030746211e-16 
1 -25.519049745659999 -90.82257578347 -15.0625 -0.74314482547714722 -0.66913060635913257 3.1358814030746211e-16 
2 -30.592682443120001 -94.154595113219997 -15.0625 -2.22044604925e-16 -2.22044604925e-16 -1 -0.3090169943750401 -0.95105651629512344 2.7979252485321423e-16 -0.95105651629512344 0.3090169943750401 1.4256141199098078e-16 5
2 -30.592682443120001 -94.154595113219997 -15.0625 -2.22044604925e-16 -2.22044604925e-16 -1 -0.3090169943750401 -0.95105651629512344 2.7979252485321423e-16 -0.95105651629512344 0.3090169943750401 1.4256141199098078e-16 5
1 -35.360554630830002 -98.447606513729994 -15.0625 -0.20791169081795011 0.97814760073376517 -1.7102672831635896e-16 
1 -35.360554630830002 -98.447606513729994 -15.0625 -0.20791169081795011 0.97814760073376517 -1.7102672831635896e-16 
1 -35.360554630830002 -98.447606513729994 -15.0625 -0.20791169081795011 0.97814760073376517 -1.7102672831635896e-16 
1 -35.360554630830002 -98.447606513729994 -15.0625 -0.20791169081795011 0.97814760073376517 -1.7102672831635896e-16 
1 -35.360554630830002 -98.447606513729994 -15.0625 -0.20791169081795011 0.97814760073376517 -1.7102672831635896e-16 
1 -36.694475468550003 -92.172002376910001 -10.7125 -2.22044604925e-16 -2.22044604925e-16 -1 
2 -30.592682443120001 -94.154595113219997 -15.0625 -2.22044604925e-16 -2.22044604925e-16 -1 -0.3090169943750401 -0.95105651629512344 2.7979252485321423e-16 -0.95105651629512344 0.3090169943750401 1.4256141199098078e-16 5
1 -25.519049745659999 -90.82257578347 -15.0625 -0.74314482547714722 -0.66913060635913257 3.1358814030746211e-16 
2 -30.592682443120001 -94.154595113219997 -15.0625 -2.22044604925e-16 -2.22044604925e-16 -1 -0.3090169943750401 -0.95105651629512344 2.7979252485321423e-16 -0.95105651629512344 0.3090169943750401 1.4256141199098078e-16 5
2 -30.592682443120001 -94.154595113219997 -15.0625 -2.22044604925e-16 -2.22044604925e-16 -1 -0.3090169943750401 -0.95105651629512344 2.7979252485321423e-16 -0.95105651629512344 0.3090169943750401 1.4256141199098078e-16 5
1 -34.436787651389999 -98.852143059780005 -15.0625 -0.66913060635913257 0.74314482547714722 -1.6434458043013253e-17 
1 -26.748577234839999 -89.457047166660004 -15.0625 -0.74314482547714722 -0.66913060635913257 3.1358814030746211e-16 
1 -36.694475468550003 -92.172002376910001 -15.0625 0.74314482547714722 0.66913060635913257 -3.1358814030746211e-16 
1 -36.694475468550003 -92.172002376910001 -15.0625 0.74314482547714722 0.66913060635913257 -3.1358814030746211e-16 
1 -36.694475468550003 -92.172002376910001 -15.0625 0.74314482547714722 0.66913060635913257 -3.1358814030746211e-16 
1 -36.694475468550003 -92.172002376910001 -15.0625 0.74314482547714722 0.66913060635913257 -3.1358814030746211e-16 
1 -36.694475468550003 -92.172002376910001 -15.0625 0.74314482547714722 0.66913060635913257 -3.1358814030746211e-16 
1 -31.589262249970002 -97.221752378269997 -9.7125000000000004 -2.22044604925e-16 -2.22044604925e-16 -1 
2 -30.592682443120001 -94.154595113219997 -17.0625 -2.22044604925e-16 -2.22044604925e-16 -1 -0.3090169943750401 -0.95105651629512344 2.7979252485321423e-16 -0.95105651629512344 0.3090169943750401 1.4256141199098078e-16 3.2250000000000001
1 -30.848625102220002 -97.369423002120001 -9.7125000000000004 -2.22044604925e-16 -2.22044604925e-16 -1 
2 -30.592682443120001 -94.154595113219997 -15.0625 -2.22044604925e-16 -2.22044604925e-16 -1 -0.3090169943750401 -0.95105651629512344 2.7979252485321423e-16 -0.95105651629512344 0.3090169943750401 1.4256141199098078e-16 3.2250000000000001
1 -29.051278885870001 -96.987385270239997 -9.7125000000000004 -2.22044604925e-16 -2.22044604925e-16 -1 
2 -30.592682443120001 -94.154595113219997 -17.0625 -2.22044604925e-16 -2.22044604925e-16 -1 -0.3090169943750401 -0.95105651629512344 2.7979252485321423e-16 -0.95105651629512344 0.3090169943750401 1.4256141199098078e-16 3.2250000000000001
1 -27.936531152090001 -95.983661902359998 -9.7125000000000004 -2.22044604925e-16 -2.22044604925e-16 -1 
2 -30.592682443120001 -94.154595113219997 -15.0625 -2.22044604925e-16 -2.22044604925e-16 -1 -0.3090169943750401 -0.95105651629512344 2.7979252485321423e-16 -0.95105651629512344 0.3090169943750401 1.4256141199098078e-16 3.2250000000000001
1 -27.368712424919998 -94.236095553669998 -9.7125000000000004 -2.22044604925e-16 -2.22044604925e-16 -1 
2 -30.592682443120001 -94.154595113219997 -17.0625 -2.22044604925e-16 -2.22044604925e-16 -1 -0.3090169943750401 -0.95105651629512344 2.7979252485321423e-16 -0.95105651629512344 0.3090169943750401 1.4256141199098078e-16 3.2250000000000001
1 -27.68058849298 -92.768834013459994 -9.7125000000000004 -2.22044604925e-16 -2.22044604925e-16 -1 
2 -30.592682443120001 -94.154595113219997 -15.0625 -2.22044604925e-16 -2.22044604925e-16 -1 -0.3090169943750401 -0.95105651629512344 2.7979252485321423e-16 -0.95105651629512344 0.3090169943750401 1.4256141199098078e-16 3.2250000000000001
1 -28.910115982160001 -91.403305396649998 -9.7125000000000004 -2.22044604925e-16 -2.22044604925e-16 -1 
2 -30.592682443120001 -94.154595113219997 -17.0625 -2.22044604925e-16 -2.22044604925e-16 -1 -0.3090169943750401 -0.95105651629512344 2.7979252485321423e-16 -0.95105651629512344 0.3090169943750401 1.4256141199098078e-16 3.2250000000000001
1 -30.33673978401 -90.939767224319993 -9.7125000000000004 -2.22044604925e-16 -2.22044604925e-16 -1 
2 -30.592682443120001 -94.154595113219997 -15.0625 -2.22044604925e-16 -2.22044604925e-16 -1 -0.3090169943750401 -0.95105651629512344 2.7979252485321423e-16 -0.95105651629512344 0.3090169943750401 1.4256141199098078e-16 3.2250000000000001
1 -32.13408600036 -91.321804956189993 -9.7125000000000004 -2.22044604925e-16 -2.22044604925e-16 -1 
2 -30.592682443120001 -94.154595113219997 -17.0625 -2.22044604925e-16 -2.22044604925e-16 -1 -0.3090169943750401 -0.95105651629512344 2.7979252485321423e-16 -0.95105651629512344 0.3090169943750401 1.4256141199098078e-16 3.2250000000000001
1 -33.24883373414 -92.325528324070007 -9.7125000000000004 -2.22044604925e-16 -2.22044604925e-16 -1 
2 -30.592682443120001 -94.154595113219997 -15.0625 -2.22044604925e-16 -2.22044604925e-16 -1 -0.3090169943750401 -0.95105651629512344 2.7979252485321423e-16 -0.95105651629512344 0.3090169943750401 1.4256141199098078e-16 3.2250000000000001
1 -33.816652461309999 -94.073094672760007 -9.7125000000000004 -2.22044604925e-16 -2.22044604925e-16 -1 
2 -30.592682443120001 -94.154595113219997 -17.0625 -2.22044604925e-16 -2.22044604925e-16 -1 -0.3090169943750401 -0.95105651629512344 2.7979252485321423e-16 -0.95105651629512344 0.3090169943750401 1.4256141199098078e-16 3.2250000000000001
1 -33.504776393249998 -95.540356212969996 -9.7125000000000004 -2.22044604925e-16 -2.22044604925e-16 -1 
2 -30.592682443120001 -94.154595113219997 -15.0625 -2.22044604925e-16 -2.22044604925e-16 -1 -0.3090169943750401 -0.95105651629512344 2.7979252485321423e-16 -0.95105651629512344 0.3090169943750401 1.4256141199098078e-16 3.2250000000000001
1 -32.275248904069997 -96.905884829780007 -9.7125000000000004 -2.22044604925e-16 -2.22044604925e-16 -1 
2 -30.592682443120001 -94.154595113219997 -17.0625 -2.22044604925e-16 -2.22044604925e-16 -1 -0.3090169943750401 -0.95105651629512344 2.7979252485321423e-16 -0.95105651629512344 0.3090169943750401 1.4256141199098078e-16 3.2250000000000001
1 -36.015112177299997 -91.426709972620003 -15.0625 0.95105651629512344 -0.3090169943750401 -1.4256141199101852e-16 
1 -36.582930904469997 -93.174276321310003 -15.0625 0.95105651629512344 -0.3090169943750401 -1.4256141199101852e-16 
1 -28.67215143272 -98.771039701649997 -15.0625 -2.22044604925e-16 -2.22044604925e-16 -1 
2 -30.592682443120001 -94.154595113219997 -17.0625 -2.22044604925e-16 -2.22044604925e-16 -1 -0.3090169943750401 -0.95105651629512344 2.7979252485321423e-16 -0.95105651629512344 0.3090169943750401 1.4256141199098078e-16 5
1 -26.202277376329999 -96.547155112370007 -15.0625 -2.22044604925e-16 -2.22044604925e-16 -1 
1 -30.941479479849999 -88.094690642870006 -15.0625 0.20791169081795011 -0.97814760073376517 1.7102672831635896e-16 
1 -32.738825696200003 -88.476728374749996 -15.0625 0.20791169081795011 -0.97814760073376517 1.7102672831635896e-16 
1 -30.941479479849999 -88.094690642870006 -15.0625 -0.97814760073376517 -0.20791169081795011 2.6335806681013681e-16 
1 -30.941479479849999 -88.094690642870006 -15.0625 0.20791169081795011 -0.97814760073376517 1.7102672831635896e-16 
2 -30.592682443120001 -94.154595113219997 -15.0625 -2.22044604925e-16 -2.22044604925e-16 -1 -0.3090169943750401 -0.95105651629512344 2.7979252485321423e-16 -0.95105651629512344 0.3090169943750401 1.4256141199098078e-16 5
1 -32.738825696200003 -88.476728374749996 -15.0625 0.20791169081795011 -0.97814760073376517 1.7102672831635896e-16 
2 -30.592682443120001 -94.154595113219997 -15.0625 -2.22044604925e-16 -2.22044604925e-16 -1 -0.3090169943750401 -0.95105651629512344 2.7979252485321423e-16 -0.95105651629512344 0.3090169943750401 1.4256141199098078e-16 5
1 -25.519049745659999 -90.82257578347 -15.0625 -0.74314482547714722 -0.66913060635913257 3.1358814030746211e-16 
1 -26.748577234839999 -89.457047166660004 -15.0625 -0.74314482547714722 -0.66913060635913257 3.1358814030746211e-16 
2 -30.592682443120001 -94.154595113219997 -17.0625 -2.22044604925e-16 -2.22044604925e-16 -1 -0.3090169943750401 -0.95105651629512344 2.7979252485321423e-16 -0.95105651629512344 0.3090169943750401 1.4256141199098078e-16 5
1 -26.32546217038 -91.548672792060003 -15.0625 -2.22044604925e-16 -2.22044604925e-16 -1 
1 -25.63445864917 -94.799588763680006 -15.0625 -2.22044604925e-16 -2.22044604925e-16 -1 
2 -30.592682443120001 -94.154595113219997 -15.0625 -2.22044604925e-16 -2.22044604925e-16 -1 -0.3090169943750401 -0.95105651629512344 2.7979252485321423e-16 -0.95105651629512344 0.3090169943750401 1.4256141199098078e-16 5
1 -36.582930904469997 -93.174276321310003 -15.0625 0.95105651629512344 -0.3090169943750401 -1.4256141199101852e-16 
1 -36.015112177299997 -91.426709972620003 -15.0625 0.95105651629512344 -0.3090169943750401 -1.4256141199101852e-16 
2 -30.592682443120001 -94.154595113219997 -15.0625 -2.22044604925e-16 -2.22044604925e-16 -1 -0.3090169943750401 -0.95105651629512344 2.7979252485321423e-16 -0.95105651629512344 0.3090169943750401 1.4256141199098078e-16 5
1 -36.015112177299997 -91.426709972620003 -15.0625 -0.3090169943750401 -0.95105651629512344 2.7979252485323632e-16 
1 -32.137767414990002 -98.909877694689996 -15.0625 -2.22044604925e-16 -2.22044604925e-16 -1 
2 -30.592682443120001 -94.154595113219997 -17.0625 -2.22044604925e-16 -2.22044604925e-16 -1 -0.3090169943750401 -0.95105651629512344 2.7979252485321423e-16 -0.95105651629512344 0.3090169943750401 1.4256141199098078e-16 5
1 -30.46949764907 -99.153077433530001 -15.0625 -2.22044604925e-16 -2.22044604925e-16 -1 
2 -30.592682443120001 -94.154595113219997 -17.0625 -2.22044604925e-16 -2.22044604925e-16 -1 -0.3090169943750401 -0.95105651629512344 2.7979252485321423e-16 -0.95105651629512344 0.3090169943750401 1.4256141199098078e-16 5
1 -33.630375226669997 -98.126046051190002 -15.0625 -2.22044604925e-16 -2.22044604925e-16 -1 
1 -25.519049745659999 -90.82257578347 -15.0625 -0.74314482547714722 -0.66913060635913257 3.1358814030746211e-16 
1 -26.748577234839999 -89.457047166660004 -15.0625 -0.74314482547714722 -0.66913060635913257 3.1358814030746211e-16 
2 -30.592682443120001 -94.154595113219997 -15.0625 -2.22044604925e-16 -2.22044604925e-16 -1 -0.3090169943750401 -0.95105651629512344 2.7979252485321423e-16 -0.95105651629512344 0.3090169943750401 1.4256141199098078e-16 5
1 -32.115090623740002 -91.411171176950006 -17.0625 -0.20791169081795011 0.97814760073376517 -1.7102672831635896e-16 
1 -27.748484222089999 -92.829967602549999 -17.0625 0.74314482547714722 0.66913060635913257 -3.1358814030746211e-16 
1 -28.978011711280001 -91.464438985729998 -17.0625 0.74314482547714722 0.66913060635913257 -3.1358814030746211e-16 
1 -34.859902715860002 -96.760517434370001 -15.0625 -2.22044604925e-16 -2.22044604925e-16 -1 
2 -30.592682443120001 -94.154595113219997 -17.0625 -2.22044604925e-16 -2.22044604925e-16 -1 -0.3090169943750401 -0.95105651629512344 2.7979252485321423e-16 -0.95105651629512344 0.3090169943750401 1.4256141199098078e-16 5
1 -33.729761355580003 -94.101327304440005 -17.0625 -0.95105651629512344 0.3090169943750401 1.4256141199101852e-16 
1 -36.582930904469997 -93.174276321310003 -15.0625 0.95105651629512344 -0.3090169943750401 -1.4256141199101852e-16 
1 -35.550906237059998 -93.509601462749998 -15.0625 -2.22044604925e-16 -2.22044604925e-16 -1 
1 -36.015112177299997 -91.426709972620003 -15.0625 0.95105651629512344 -0.3090169943750401 -1.4256141199101852e-16 
1 -34.983087509900002 -91.762035114059998 -15.0625 -2.22044604925e-16 -2.22044604925e-16 -1 
1 -33.16194262842 -92.35376095574 -17.0625 -0.95105651629512344 0.3090169943750401 1.4256141199101852e-16 
2 -30.592682443120001 -94.154595113219997 -17.0625 -2.22044604925e-16 -2.22044604925e-16 -1 -0.3090169943750401 -0.95105651629512344 2.7979252485321423e-16 -0.95105651629512344 0.3090169943750401 1.4256141199098078e-16 5
1 -32.115090623740002 -91.411171176950006 -17.0625 -0.20791169081795011 0.97814760073376517 -1.7102672831635896e-16 
1 -32.738825696200003 -88.476728374749996 -15.0625 0.20791169081795011 -0.97814760073376517 1.7102672831635896e-16 
1 -32.513213453509998 -89.538150524779994 -15.0625 -2.22044604925e-16 -2.22044604925e-16 -1 
1 -30.941479479849999 -88.094690642870006 -15.0625 0.20791169081795011 -0.97814760073376517 1.7102672831635896e-16 
1 -30.715867237160001 -89.156112792900004 -15.0625 -2.22044604925e-16 -2.22044604925e-16 -1 
1 -30.317744407389998 -91.029133445080006 -17.0625 -0.20791169081795011 0.97814760073376517 -1.7102672831635896e-16 
2 -30.592682443120001 -94.154595113219997 -17.0625 -2.22044604925e-16 -2.22044604925e-16 -1 -0.3090169943750401 -0.95105651629512344 2.7979252485321423e-16 -0.95105651629512344 0.3090169943750401 1.4256141199098078e-16 5
1 -28.978011711280001 -91.464438985729998 -17.0625 0.74314482547714722 0.66913060635913257 -3.1358814030746211e-16 
1 -27.55498965956 -90.183144175240002 -15.0625 -2.22044604925e-16 -2.22044604925e-16 -1 
1 -27.748484222089999 -92.829967602549999 -17.0625 0.74314482547714722 0.66913060635913257 -3.1358814030746211e-16 
1 -33.16194262842 -92.35376095574 -17.0625 -0.95105651629512344 0.3090169943750401 1.4256141199101852e-16 
1 -33.729761355580003 -94.101327304440005 -17.0625 -0.95105651629512344 0.3090169943750401 1.4256141199101852e-16 
1 -30.317744407389998 -91.029133445080006 -17.0625 -0.20791169081795011 0.97814760073376517 -1.7102672831635896e-16 
Polygon3D 0
PolygonOnTriangulations 0
Surfaces 57
1 -24.490889417679998 -96.137187849520004 -10.7125 -0.66913060635913257 0.74314482547714722 -1.6434458043013253e-17 -0.74314482547714722 -0.66913060635913257 3.1358814030746211e-16 2.2204460492498693e-16 2.2204460492515141e-16 1 
1 -25.824810255399999 -89.861583712699996 -10.7125 -0.97814760073376517 -0.20791169081795011 2.6335806681013681e-16 0.20791169081795011 -0.97814760073376517 1.7102672831635896e-16 2.2204460492490157e-16 2.2204460492503422e-16 1 
1 -30.592682443120001 -94.154595113219997 -15.0625 -2.22044604925e-16 -2.22044604925e-16 -1 -0.3090169943750401 -0.95105651629512344 2.7979252485321423e-16 -0.95105651629512344 0.3090169943750401 1.4256141199098078e-16 
1 -30.592682443120001 -94.154595113219997 -15.0625 -2.22044604925e-16 -2.22044604925e-16 -1 -0.3090169943750401 -0.95105651629512344 2.7979252485321423e-16 -0.95105651629512344 0.3090169943750401 1.4256141199098078e-16 
1 -30.592682443120001 -94.154595113219997 -15.0625 -2.22044604925e-16 -2.22044604925e-16 -1 -0.3090169943750401 -0.95105651629512344 2.7979252485321423e-16 -0.95105651629512344 0.3090169943750401 1.4256141199098078e-16 
1 -30.592682443120001 -94.154595113219997 -15.0625 -2.22044604925e-16 -2.22044604925e-16 -1 -0.3090169943750401 -0.95105651629512344 2.7979252485321423e-16 -0.95105651629512344 0.3090169943750401 1.4256141199098078e-16 
1 -30.592682443120001 -94.154595113219997 -15.0625 -2.22044604925e-16 -2.22044604925e-16 -1 -0.3090169943750401 -0.95105651629512344 2.7979252485321423e-16 -0.95105651629512344 0.3090169943750401 1.4256141199098078e-16 
1 -29.258761605389999 -100.43019925 -10.7125 0.3090169943750401 0.95105651629512344 -2.7979252485323632e-16 -0.95105651629512344 0.3090169943750401 1.425614119910185e-16 2.220446049250427e-16 2.2204460492500932e-16 1 
1 -30.592682443120001 -94.154595113219997 -10.7125 -2.22044604925e-16 -2.22044604925e-16 -1 -0.3090169943750401 -0.95105651629512344 2.7979252485321423e-16 -0.95105651629512344 0.3090169943750401 1.4256141199098078e-16 
1 -31.926603280839998 -87.878990976400004 -10.7125 -0.3090169943750401 -0.95105651629512344 2.7979252485323632e-16 0.95105651629512344 -0.3090169943750401 -1.425614119910185e-16 2.220446049250427e-16 2.2204460492500932e-16 1 
1 -30.592682443120001 -94.154595113219997 -15.0625 -2.22044604925e-16 -2.22044604925e-16 -1 -0.3090169943750401 -0.95105651629512344 2.7979252485321423e-16 -0.95105651629512344 0.3090169943750401 1.4256141199098078e-16 
1 -30.592682443120001 -94.154595113219997 -15.0625 -2.22044604925e-16 -2.22044604925e-16 -1 -0.3090169943750401 -0.95105651629512344 2.7979252485321423e-16 -0.95105651629512344 0.3090169943750401 1.4256141199098078e-16 
1 -30.592682443120001 -94.154595113219997 -15.0625 -2.22044604925e-16 -2.22044604925e-16 -1 -0.3090169943750401 -0.95105651629512344 2.7979252485321423e-16 -0.95105651629512344 0.3090169943750401 1.4256141199098078e-16 
1 -30.592682443120001 -94.154595113219997 -15.0625 -2.22044604925e-16 -2.22044604925e-16 -1 -0.3090169943750401 -0.95105651629512344 2.7979252485321423e-16 -0.95105651629512344 0.3090169943750401 1.4256141199098078e-16 
1 -30.592682443120001 -94.154595113219997 -15.0625 -2.22044604925e-16 -2.22044604925e-16 -1 -0.3090169943750401 -0.95105651629512344 2.7979252485321423e-16 -0.95105651629512344 0.3090169943750401 1.4256141199098078e-16 
1 -30.592682443120001 -94.154595113219997 -15.0625 -2.22044604925e-16 -2.22044604925e-16 -1 -0.3090169943750401 -0.95105651629512344 2.7979252485321423e-16 -0.95105651629512344 0.3090169943750401 1.4256141199098078e-16 
1 -35.360554630830002 -98.447606513729994 -10.7125 0.97814760073376517 0.20791169081795011 -2.6335806681013681e-16 -0.20791169081795011 0.97814760073376517 -1.7102672831635896e-16 2.2204460492490157e-16 2.2204460492503422e-16 1 
1 -36.694475468550003 -92.172002376910001 -10.7125 0.66913060635913257 -0.74314482547714722 1.6434458043013253e-17 0.74314482547714722 0.66913060635913257 -3.1358814030746211e-16 2.2204460492498693e-16 2.2204460492515141e-16 1 
2 -30.592682443120001 -94.154595113219997 -9.7125000000000004 -2.22044604925e-16 -2.22044604925e-16 -1 -0.3090169943750401 -0.95105651629512344 2.7979252485321423e-16 -0.95105651629512344 0.3090169943750401 1.4256141199098078e-16 3.2250000000000001
1 -36.015112177299997 -91.426709972620003 -15.0625 -2.22044604925e-16 -2.22044604925e-16 -1 -0.3090169943750401 -0.95105651629512344 2.7979252485321423e-16 -0.95105651629512344 0.3090169943750401 1.4256141199098078e-16 
2 -30.592682443120001 -94.154595113219997 -15.0625 -2.22044604925e-16 -2.22044604925e-16 -1 -0.3090169943750401 -0.95105651629512344 2.7979252485321423e-16 -0.95105651629512344 0.3090169943750401 1.4256141199098078e-16 5
1 -30.941479479849999 -88.094690642870006 -15.0625 -2.22044604925e-16 -2.22044604925e-16 -1 -0.97814760073376517 -0.20791169081795011 2.63358066810226e-16 -0.20791169081795011 0.97814760073376517 -1.7102672831630504e-16 
1 -30.592682443120001 -94.154595113219997 -15.0625 -2.22044604925e-16 -2.22044604925e-16 -1 -0.3090169943750401 -0.95105651629512344 2.7979252485321423e-16 -0.95105651629512344 0.3090169943750401 1.4256141199098078e-16 
1 -30.592682443120001 -94.154595113219997 -15.0625 -2.22044604925e-16 -2.22044604925e-16 -1 -0.3090169943750401 -0.95105651629512344 2.7979252485321423e-16 -0.95105651629512344 0.3090169943750401 1.4256141199098078e-16 
1 -30.592682443120001 -94.154595113219997 -15.0625 -2.22044604925e-16 -2.22044604925e-16 -1 -0.3090169943750401 -0.95105651629512344 2.7979252485321423e-16 -0.95105651629512344 0.3090169943750401 1.4256141199098078e-16 
1 -25.519049745659999 -90.82257578347 -15.0625 -2.22044604925e-16 -2.22044604925e-16 -1 -0.66913060635913257 0.74314482547714722 -1.6434458042891944e-17 0.74314482547714722 0.66913060635913257 -3.135881403073705e-16 
2 -30.592682443120001 -94.154595113219997 -15.0625 -2.22044604925e-16 -2.22044604925e-16 -1 -0.3090169943750401 -0.95105651629512344 2.7979252485321423e-16 -0.95105651629512344 0.3090169943750401 1.4256141199098078e-16 5
1 -30.592682443120001 -94.154595113219997 -15.0625 -2.22044604925e-16 -2.22044604925e-16 -1 -0.3090169943750401 -0.95105651629512344 2.7979252485321423e-16 -0.95105651629512344 0.3090169943750401 1.4256141199098078e-16 
1 -30.592682443120001 -94.154595113219997 -15.0625 -2.22044604925e-16 -2.22044604925e-16 -1 -0.3090169943750401 -0.95105651629512344 2.7979252485321423e-16 -0.95105651629512344 0.3090169943750401 1.4256141199098078e-16 
1 -30.592682443120001 -94.154595113219997 -15.0625 -2.22044604925e-16 -2.22044604925e-16 -1 -0.3090169943750401 -0.95105651629512344 2.7979252485321423e-16 -0.95105651629512344 0.3090169943750401 1.4256141199098078e-16 
2 -30.592682443120001 -94.154595113219997 -15.0625 -2.22044604925e-16 -2.22044604925e-16 -1 -0.3090169943750401 -0.95105651629512344 2.7979252485321423e-16 -0.95105651629512344 0.3090169943750401 1.4256141199098078e-16 5
2 -30.592682443120001 -94.154595113219997 -15.0625 -2.22044604925e-16 -2.22044604925e-16 -1 -0.3090169943750401 -0.95105651629512344 2.7979252485321423e-16 -0.95105651629512344 0.3090169943750401 1.4256141199098078e-16 5
1 -25.519049745659999 -90.82257578347 -15.0625 -2.22044604925e-16 -2.22044604925e-16 -1 -0.66913060635913257 0.74314482547714722 -1.6434458042891944e-17 0.74314482547714722 0.66913060635913257 -3.135881403073705e-16 
1 -30.592682443120001 -94.154595113219997 -15.0625 -2.22044604925e-16 -2.22044604925e-16 -1 -0.3090169943750401 -0.95105651629512344 2.7979252485321423e-16 -0.95105651629512344 0.3090169943750401 1.4256141199098078e-16 
1 -30.592682443120001 -94.154595113219997 -17.0625 -2.22044604925e-16 -2.22044604925e-16 -1 -0.3090169943750401 -0.95105651629512344 2.7979252485321423e-16 -0.95105651629512344 0.3090169943750401 1.4256141199098078e-16 
1 -32.738825696200003 -88.476728374749996 -15.0625 -0.97814760073376517 -0.20791169081795011 2.6335806681013681e-16 -2.2204460492491278e-16 -2.2204460492498146e-16 -1 0.20791169081795011 -0.97814760073376517 1.7102672831630504e-16 
1 -30.941479479849999 -88.094690642870006 -15.0625 -0.97814760073376517 -0.20791169081795011 2.6335806681013681e-16 -2.2204460492491278e-16 -2.2204460492498146e-16 -1 0.20791169081795011 -0.97814760073376517 1.7102672831630504e-16 
1 -30.592682443120001 -94.154595113219997 -17.0625 -2.22044604925e-16 -2.22044604925e-16 -1 -0.3090169943750401 -0.95105651629512344 2.7979252485321423e-16 -0.95105651629512344 0.3090169943750401 1.4256141199098078e-16 
1 -36.582930904469997 -93.174276321310003 -15.0625 -0.3090169943750401 -0.95105651629512344 2.7979252485323632e-16 -2.220446049250068e-16 -2.2204460492502098e-16 -1 0.95105651629512344 -0.3090169943750401 -1.4256141199098078e-16 
1 -36.015112177299997 -91.426709972620003 -15.0625 -0.3090169943750401 -0.95105651629512344 2.7979252485323632e-16 -2.220446049250068e-16 -2.2204460492502098e-16 -1 0.95105651629512344 -0.3090169943750401 -1.4256141199098078e-16 
1 -30.592682443120001 -94.154595113219997 -17.0625 -2.22044604925e-16 -2.22044604925e-16 -1 -0.3090169943750401 -0.95105651629512344 2.7979252485321423e-16 -0.95105651629512344 0.3090169943750401 1.4256141199098078e-16 
1 -25.519049745659999 -90.82257578347 -15.0625 -0.66913060635913257 0.74314482547714722 -1.6434458043013253e-17 -2.220446049249189e-16 -2.2204460492509018e-16 -1 -0.74314482547714722 -0.66913060635913257 3.1358814030737055e-16 
1 -26.748577234839999 -89.457047166660004 -15.0625 -0.66913060635913257 0.74314482547714722 -1.6434458043013253e-17 -2.220446049249189e-16 -2.2204460492509018e-16 -1 -0.74314482547714722 -0.66913060635913257 3.1358814030737055e-16 
1 -30.592682443120001 -94.154595113219997 -17.0625 -2.22044604925e-16 -2.22044604925e-16 -1 -0.3090169943750401 -0.95105651629512344 2.7979252485321423e-16 -0.95105651629512344 0.3090169943750401 1.4256141199098078e-16 
1 -30.941479479849999 -88.094690642870006 -15.0625 -0.97814760073376517 -0.20791169081795011 2.6335806681013681e-16 -2.2204460492491278e-16 -2.2204460492498146e-16 -1 0.20791169081795011 -0.97814760073376517 1.7102672831630504e-16 
1 -30.941479479849999 -88.094690642870006 -15.0625 -2.22044604925e-16 -2.22044604925e-16 -1 -0.97814760073376517 -0.20791169081795011 2.63358066810226e-16 -0.20791169081795011 0.97814760073376517 -1.7102672831630504e-16 
1 -32.738825696200003 -88.476728374749996 -15.0625 -0.97814760073376517 -0.20791169081795011 2.6335806681013681e-16 -2.2204460492491278e-16 -2.2204460492498146e-16 -1 0.20791169081795011 -0.97814760073376517 1.7102672831630504e-16 
1 -30.592682443120001 -94.154595113219997 -17.0625 -2.22044604925e-16 -2.22044604925e-16 -1 -0.3090169943750401 -0.95105651629512344 2.7979252485321423e-16 -0.95105651629512344 0.3090169943750401 1.4256141199098078e-16 
1 -36.015112177299997 -91.426709972620003 -15.0625 -0.3090169943750401 -0.95105651629512344 2.7979252485323632e-16 -2.220446049250068e-16 -2.2204460492502098e-16 -1 0.95105651629512344 -0.3090169943750401 -1.4256141199098078e-16 
1 -36.015112177299997 -91.426709972620003 -15.0625 -2.22044604925e-16 -2.22044604925e-16 -1 -0.3090169943750401 -0.95105651629512344 2.7979252485321423e-16 -0.95105651629512344 0.3090169943750401 1.4256141199098078e-16 
1 -36.582930904469997 -93.174276321310003 -15.0625 -0.3090169943750401 -0.95105651629512344 2.7979252485323632e-16 -2.220446049250068e-16 -2.2204460492502098e-16 -1 0.95105651629512344 -0.3090169943750401 -1.4256141199098078e-16 
1 -30.592682443120001 -94.154595113219997 -17.0625 -2.22044604925e-16 -2.22044604925e-16 -1 -0.3090169943750401 -0.95105651629512344 2.7979252485321423e-16 -0.95105651629512344 0.3090169943750401 1.4256141199098078e-16 
1 -26.748577234839999 -89.457047166660004 -15.0625 -0.66913060635913257 0.74314482547714722 -1.6434458043013253e-17 -2.220446049249189e-16 -2.2204460492509018e-16 -1 -0.74314482547714722 -0.66913060635913257 3.1358814030737055e-16 
1 -25.519049745659999 -90.82257578347 -15.0625 -0.66913060635913257 0.74314482547714722 -1.6434458043013253e-17 -2.220446049249189e-16 -2.2204460492509018e-16 -1 -0.74314482547714722 -0.66913060635913257 3.1358814030737055e-16 
2 -30.592682443120001 -94.154595113219997 -15.0625 -2.22044604925e-16 -2.22044604925e-16 -1 -0.3090169943750401 -0.95105651629512344 2.7979252485321423e-16 -0.95105651629512344 0.3090169943750401 1.4256141199098078e-16 5
2 -30.592682443120001 -94.154595113219997 -15.0625 -2.22044604925e-16 -2.22044604925e-16 -1 -0.3090169943750401 -0.95105651629512344 2.7979252485321423e-16 -0.95105651629512344 0.3090169943750401 1.4256141199098078e-16 5
2 -30.592682443120001 -94.154595113219997 -15.0625 -2.22044604925e-16 -2.22044604925e-16 -1 -0.3090169943750401 -0.95105651629512344 2.7979252485321423e-16 -0.95105651629512344 0.3090169943750401 1.4256141199098078e-16 5
Triangulations 0

TShapes 349
Ve
1e-07
-24.49088941768 -96.13718784952 -10.7125
0 0

0101101
*
Ve
1e-07
-24.49088941768 -96.13718784952 -15.0625
0 0

0101101
*
Ed
 1e-07 1 1 0
1  1 0 -0 4.35
4 C0 1 0 2 0
0

0101000
+349 0 -348 0 *
Ve
1e-07
-25.10889588738 -96.69364337424 -15.0625
0 0

0101101
*
Ed
 1e-07 1 1 0
1  2 0 0 0.831609732736735
4 C0 1 0 3 0
0

0101000
+348 0 -346 0 *
Ve
1e-07
-25.27927773218 -96.84705587637 -15.0625
0 0

0101101
*
Ed
 1e-07 1 1 0
1  3 0 0.831609732736735 1.06088111962843
4 C0 1 0 4 0
0

0101000
+346 0 -344 0 *
Ve
1e-07
-28.47037329089 -99.72033122317 -15.0625
0 0

0101101
*
Ed
 1e-07 1 1 0
1  4 0 1.06088111962843 5.3549237467279
4 C0 1 0 5 0
0

0101000
+344 0 -342 0 *
Ve
1e-07
-28.64075513569 -99.87374372531 -15.0625
0 0

0101101
*
Ed
 1e-07 1 1 0
1  5 0 5.3549237467279 5.58419513362628
4 C0 1 0 6 0
0

0101000
+342 0 -340 0 *
Ve
1e-07
-29.25876160539 -100.43019925 -15.0625
0 0

0101101
*
Ed
 1e-07 1 1 0
1  6 0 5.58419513362628 6.41580486634294
4 C0 1 0 7 0
0

0101000
+340 0 -338 0 *
Ve
1e-07
-29.25876160539 -100.43019925 -10.7125
0 0

0101101
*
Ed
 1e-07 1 1 0
1  7 0 -0 4.35
4 C0 1 0 8 0
0

0101000
+336 0 -338 0 *
Ed
 1e-07 1 1 0
1  8 0 0 6.41580486634294
4 C0 1 0 9 0
0

0101000
+349 0 -336 0 *
Wi

0101100
+347 0 +345 0 +343 0 +341 0 +339 0 +337 0 -335 0 -334 0 *
Fa
0  1e-07 1 0

0111000
+333 0 *
Ve
1e-07
-25.8248102554 -89.8615837127 -10.7125
0 0

0101101
*
Ve
1e-07
-25.8248102554 -89.8615837127 -15.0625
0 0

0101101
*
Ed
 1e-07 1 1 0
1  9 0 -0 4.35
4 C0 2 0 10 0
0

0101000
+331 0 -330 0 *
Ve
1e-07
-25.65190886977 -90.67502077753 -15.0625
0 0

0101101
*
Ed
 1e-07 1 1 0
1  10 0 0 0.831609732742478
4 C0 2 0 11 0
0

0101000
+330 0 -328 0 *
Ve
1e-07
-25.60424066806 -90.89928203454 -15.0625
0 0

0101101
*
Ed
 1e-07 1 1 0
1  11 0 0.831609732742478 1.06088111964012
4 C0 2 0 12 0
0

0101000
+328 0 -326 0 *
Ve
1e-07
-24.71145900502 -95.09948952768 -15.0625
0 0

0101101
*
Ed
 1e-07 1 1 0
1  12 0 1.06088111964012 5.35492374673292
4 C0 2 0 13 0
0

0101000
+326 0 -324 0 *
Ve
1e-07
-24.66379080331 -95.32375078469 -15.0625
0 0

0101101
*
Ed
 1e-07 1 1 0
1  13 0 5.35492374673292 5.58419513363056
4 C0 2 0 4 0
0

0101000
+324 0 -322 0 *
Ed
 1e-07 1 1 0
1  14 0 5.58419513363056 6.41580486637304
4 C0 2 0 3 0
0

0101000
+322 0 -348 0 *
Ed
 1e-07 1 1 0
1  15 0 0 6.41580486637304
4 C0 2 0 9 0
0

0101000
+331 0 -349 0 *
Wi

0101100
+329 0 +327 0 +325 0 +323 0 +321 0 +320 0 -347 0 -319 0 *
Fa
0  1e-07 2 0

0111000
+318 0 *
Ve
1e-07
-30.04966946073 -100.1732177099 -15.0625
0 0

0101101
*
Ed
 1e-07 1 1 0
1  16 0 0 0.831609732741681
4 C0 8 0 7 0
0

0101000
+338 0 -316 0 *
Ve
1e-07
-30.26771950724 -100.102368955 -15.0625
0 0

0101101
*
Ed
 1e-07 1 1 0
1  17 0 0.831609732741681 1.06088111964788
4 C0 8 0 6 0
0

0101000
+316 0 -314 0 *
Ve
1e-07
-34.35159672899 -98.77543680871 -15.0625
0 0

0101101
*
Ed
 1e-07 1 1 0
1  18 0 1.06088111964788 5.3549237467286
4 C0 8 0 14 0
0

0101000
+314 0 -312 0 *
Ve
1e-07
-34.56964677549 -98.70458805383 -15.0625
0 0

0101101
*
Ed
 1e-07 1 1 0
1  19 0 5.3549237467286 5.58419513361911
4 C0 8 0 15 0
0

0101000
+312 0 -310 0 *
Ve
1e-07
-35.36055463083 -98.44760651373 -15.0625
0 0

0101101
*
Ed
 1e-07 1 1 0
1  20 0 5.58419513361911 6.4158048663608
4 C0 8 0 16 0
0

0101000
+310 0 -308 0 *
Ve
1e-07
-35.36055463083 -98.44760651373 -10.7125
0 0

0101101
*
Ed
 1e-07 1 1 0
1  21 0 -0 4.35
4 C0 8 0 17 0
0

0101000
+306 0 -308 0 *
Ed
 1e-07 1 1 0
1  22 0 0 6.4158048663608
4 C0 8 0 9 0
0

0101000
+336 0 -306 0 *
Wi

0101100
+335 0 +315 0 +313 0 +311 0 +309 0 +307 0 -305 0 -304 0 *
Fa
0  1e-07 8 0

0111000
+303 0 *
Ve
1e-07
-36.69447546855 -92.17200237691 -10.7125
0 0

0101101
*
Ed
 1e-07 1 1 0
1  23 0 0 6.41580486637303
4 C0 9 0 17 0
0

0101000
+306 0 -301 0 *
Ve
1e-07
-31.92660328084 -87.8789909764 -10.7125
0 0

0101101
*
Ed
 1e-07 1 1 0
1  24 0 0 6.41580486636302
4 C0 9 0 18 0
0

0101000
+301 0 -299 0 *
Ed
 1e-07 1 1 0
1  25 0 0 6.41580486637006
4 C0 9 0 10 0
0

0101000
+299 0 -331 0 *
Wi

0101100
+334 0 +304 0 +300 0 +298 0 +297 0 +319 0 *
Ve
1e-07
-31.58926224997 -97.22175237827 -10.7125
0 0

0101101
*
Ed
 1e-07 1 1 0
1  26 0 0 6.28318530717959
2  1 19 0 0 6.28318530717959
4 C0 9 0 19 0
0

0101100
+295 0 -295 0 *
Wi

0101100
-294 0 *
Fa
0  1e-07 9 0

0111000
+296 0 +293 0 *
Ed
 1e-07 1 1 0
1  27 0 0.198554845411677 1.63894515458796
4 CN 3 0 4 0
0

0101000
+322 0 -346 0 *
Wi

0101100
+320 0 +345 0 -291 0 *
Fa
0  1e-07 3 0

0111000
+290 0 *
Ve
1e-07
-26.20227737633 -96.54715511237 -15.0625
0 0

0101101
*
Ed
 1e-07 1 1 0
1  28 0 10.9148650477442 11.8853643065532
4 CN 4 0 5 0
0

0101000
+288 0 -344 0 *
Ve
1e-07
-25.63445864917 -94.79958876368 -15.0625
0 0

0101101
*
Ed
 1e-07 1 1 0
1  29 0 4.52758892198953 4.89718903877658
4 CN 4 0 20 0
0

0101000
+286 0 -288 0 *
Ed
 1e-07 1 1 0
1  30 0 10.9148650477347 11.8853643065437
4 CN 4 0 13 0
0

0101000
+286 0 -324 0 *
Wi

0101100
+291 0 +343 0 -287 0 -285 0 +284 0 +321 0 *
Fa
0  1e-07 4 0

0111000
+283 0 *
Ve
1e-07
-28.67215143272 -98.77103970165 -15.0625
0 0

0101101
*
Ed
 1e-07 1 1 0
1  31 0 4.89718903877658 5.57478647318487
2  2 21 0 4.89718903877658 5.57478647318487
4 C0 5 0 21 0
0

0101000
+288 0 -281 0 *
Ed
 1e-07 1 1 0
1  32 0 10.9148650477412 11.8853643065509
4 CN 5 0 6 0
0

0101000
+281 0 -342 0 *
Wi

0101100
-280 0 +287 0 +341 0 -279 0 *
Fa
0  1e-07 5 0

0111000
+278 0 *
Ve
1e-07
-30.46949764907 -99.15307743353 -15.0625
0 0

0101101
*
Ed
 1e-07 1 1 0
1  33 0 5.57478647318487 5.94438658997366
4 C1 6 0 22 0
0

0101000
+281 0 -276 0 *
Ed
 1e-07 1 1 0
1  34 0 0.198554845418119 1.63894515458752
4 CN 6 0 7 0
0

0101000
+340 0 -316 0 *
Ed
 1e-07 1 1 0
1  35 0 10.9148650477412 11.885364306502
4 CN 6 0 14 0
0

0101000
+276 0 -314 0 *
Wi

0101100
-275 0 +279 0 +339 0 +274 0 +313 0 -273 0 *
Fa
0  1e-07 6 0

0111000
+272 0 *
Wi

0101100
-274 0 +337 0 +315 0 *
Fa
0  1e-07 7 0

0111000
+270 0 *
Ve
1e-07
-31.92660328084 -87.8789909764 -15.0625
0 0

0101101
*
Ed
 1e-07 1 1 0
1  36 0 -0 4.35
4 C0 10 0 18 0
0

0101000
+299 0 -268 0 *
Ve
1e-07
-31.1356954255 -88.1359725165 -15.0625
0 0

0101101
*
Ed
 1e-07 1 1 0
1  37 0 0 0.831609732741677
4 C0 10 0 23 0
0

0101000
+268 0 -266 0 *
Ve
1e-07
-30.91764537899 -88.20682127138 -15.0625
0 0

0101101
*
Ed
 1e-07 1 1 0
1  38 0 0.831609732741677 1.0608811196417
4 C0 10 0 24 0
0

0101000
+266 0 -264 0 *
Ve
1e-07
-26.83376815724 -89.53375341772 -15.0625
0 0

0101101
*
Ed
 1e-07 1 1 0
1  39 0 1.0608811196417 5.35492374673787
4 C0 10 0 25 0
0

0101000
+264 0 -262 0 *
Ve
1e-07
-26.61571811074 -89.6046021726 -15.0625
0 0

0101101
*
Ed
 1e-07 1 1 0
1  40 0 5.35492374673787 5.58419513362838
4 C0 10 0 12 0
0

0101000
+262 0 -260 0 *
Ed
 1e-07 1 1 0
1  41 0 5.58419513362838 6.41580486637006
4 C0 10 0 11 0
0

0101000
+260 0 -330 0 *
Wi

0101100
+267 0 +265 0 +263 0 +261 0 +259 0 +258 0 -329 0 -297 0 *
Fa
0  1e-07 10 0

0111000
+257 0 *
Ed
 1e-07 1 1 0
1  42 0 0.198554845413634 1.63894515458662
4 CN 11 0 12 0
0

0101000
+328 0 -260 0 *
Wi

0101100
+255 0 +258 0 +327 0 *
Fa
0  1e-07 11 0

0111000
+254 0 *
Ve
1e-07
-27.55498965956 -90.18314417524 -15.0625
0 0

0101101
*
Ed
 1e-07 1 1 0
1  43 0 0.114635693442503 1.08513495225784
4 CN 12 0 25 0
0

0101000
+262 0 -252 0 *
Ve
1e-07
-26.32546217038 -91.54867279206 -15.0625
0 0

0101101
*
Ed
 1e-07 1 1 0
1  44 0 0.114635693449187 1.08513495226453
4 CN 12 0 13 0
0

0101000
+326 0 -250 0 *
Ed
 1e-07 1 1 0
1  45 0 3.48039137079394 3.84999148758181
4 C1 12 0 26 0
0

0101000
+252 0 -250 0 *
Wi

0101100
-251 0 +259 0 -255 0 +325 0 +249 0 -248 0 *
Fa
0  1e-07 12 0

0111000
+247 0 *
Ed
 1e-07 1 1 0
1  46 0 3.84999148758181 4.52758892198953
2  3 27 0 3.84999148758181 4.52758892198953
4 C0 13 0 27 0
0

0101000
+250 0 -286 0 *
Wi

0101100
-245 0 -249 0 +323 0 -284 0 *
Fa
0  1e-07 13 0

0111000
+244 0 *
Ve
1e-07
-35.53345601647 -97.6341694489 -15.0625
0 0

0101101
*
Ed
 1e-07 1 1 0
1  47 0 0 0.831609732744556
4 C0 17 0 16 0
0

0101000
+308 0 -242 0 *
Ve
1e-07
-35.58112421817 -97.40990819189 -15.0625
0 0

0101101
*
Ed
 1e-07 1 1 0
1  48 0 0.831609732744556 1.06088111964012
4 C0 17 0 15 0
0

0101000
+242 0 -240 0 *
Ve
1e-07
-36.47390588121 -93.20970069875 -15.0625
0 0

0101101
*
Ed
 1e-07 1 1 0
1  49 0 1.06088111964012 5.3549237467329
4 C0 17 0 28 0
0

0101000
+240 0 -238 0 *
Ve
1e-07
-36.52157408292 -92.98543944174 -15.0625
0 0

0101101
*
Ed
 1e-07 1 1 0
1  50 0 5.3549237467329 5.58419513363055
4 C0 17 0 29 0
0

0101000
+238 0 -236 0 *
Ve
1e-07
-36.69447546855 -92.17200237691 -15.0625
0 0

0101101
*
Ed
 1e-07 1 1 0
1  51 0 5.58419513363055 6.41580486637303
4 C0 17 0 30 0
0

0101000
+236 0 -234 0 *
Ed
 1e-07 1 1 0
1  52 0 -0 4.35
4 C0 17 0 18 0
0

0101000
+301 0 -234 0 *
Wi

0101100
+305 0 +241 0 +239 0 +237 0 +235 0 +233 0 -232 0 -300 0 *
Fa
0  1e-07 17 0

0111000
+231 0 *
Ve
1e-07
-32.13776741499 -98.90987769469 -15.0625
0 0

0101101
*
Ed
 1e-07 1 1 0
1  53 0 5.94438658997366 6.28318530717959
2  4 31 0 5.94438658997366 6.28318530717959
4 C0 14 0 31 0
0

0101000
+276 0 -229 0 *
Ve
1e-07
-33.63037522667 -98.12604605119 -15.0625
0 0

0101101
*
Ed
 1e-07 1 1 0
1  54 0 10.9148650477389 11.8853643065542
4 CN 14 0 15 0
0

0101000
+227 0 -312 0 *
Ed
 1e-07 1 1 0
1  55 0 0 0.338798717203772
2  5 32 0 0 0.338798717203772
4 C0 14 0 32 0
0

0101000
+229 0 -227 0 *
Wi

0101100
-228 0 +273 0 +311 0 -226 0 -225 0 *
Fa
0  1e-07 14 0

0111000
+224 0 *
Ve
1e-07
-34.85990271586 -96.76051743437 -15.0625
0 0

0101101
*
Ed
 1e-07 1 1 0
1  56 0 0.338798717203772 0.708398833993719
4 C1 15 0 33 0
0

0101000
+227 0 -222 0 *
Ed
 1e-07 1 1 0
1  57 0 0.198554845414377 1.63894515459405
4 CN 15 0 16 0
0

0101000
+310 0 -242 0 *
Ed
 1e-07 1 1 0
1  58 0 10.9148650477396 11.8853643065475
4 CN 15 0 28 0
0

0101000
+222 0 -240 0 *
Wi

0101100
-221 0 +226 0 +309 0 +220 0 +239 0 -219 0 *
Fa
0  1e-07 15 0

0111000
+218 0 *
Wi

0101100
-220 0 +307 0 +241 0 *
Fa
0  1e-07 16 0

0111000
+216 0 *
Ve
1e-07
-36.07646899885 -91.61554685219 -15.0625
0 0

0101101
*
Ed
 1e-07 1 1 0
1  59 0 0 0.831609732736747
4 C0 18 0 30 0
0

0101000
+234 0 -214 0 *
Ve
1e-07
-35.90608715405 -91.46213435006 -15.0625
0 0

0101101
*
Ed
 1e-07 1 1 0
1  60 0 0.831609732736747 1.06088111962843
4 C0 18 0 29 0
0

0101000
+214 0 -212 0 *
Ve
1e-07
-32.71499159534 -88.58885900326 -15.0625
0 0

0101101
*
Ed
 1e-07 1 1 0
1  61 0 1.06088111962843 5.3549237467279
4 C0 18 0 34 0
0

0101000
+212 0 -210 0 *
Ve
1e-07
-32.54460975054 -88.43544650112 -15.0625
0 0

0101101
*
Ed
 1e-07 1 1 0
1  62 0 5.3549237467279 5.58419513362629
4 C0 18 0 24 0
0

0101000
+210 0 -208 0 *
Ed
 1e-07 1 1 0
1  63 0 5.58419513362629 6.41580486636302
4 C0 18 0 23 0
0

0101000
+208 0 -268 0 *
Wi

0101100
+232 0 +213 0 +211 0 +209 0 +207 0 +206 0 -267 0 -298 0 *
Fa
0  1e-07 18 0

0111000
+205 0 *
Ve
1e-07
-31.58926224997 -97.22175237827 -17.0625
0 0

0101101
*
Ed
 1e-07 1 1 0
1  64 0 1 7.35
3  6 7CN 19 0 1 7.35
0

0101000
+295 0 -203 0 *
Ve
1e-07
-30.84862510222 -97.36942300212 -17.0625
0 0

0101101
*
Ed
 1e-07 1 1 0
1  65 0 6.04847165183909 6.28318530717959
2  8 19 0 6.04847165183909 6.28318530717959
4 C0 19 0 35 0
0

0101000
+201 0 -203 0 *
Ve
1e-07
-30.84862510222 -97.36942300212 -15.0625
0 0

0101101
*
Ed
 1e-07 1 1 0
1  66 0 5.35 7.35
2  9 19 0 5.35 7.35
4 C0 19 0 36 0
0

0101000
+199 0 -201 0 *
Ve
1e-07
-29.05127888587 -96.98738527024 -15.0625
0 0

0101101
*
Ed
 1e-07 1 1 0
1  67 0 5.47070141131856 6.04847165183909
2  10 19 0 5.47070141131856 6.04847165183909
4 C0 19 0 22 0
0

0101000
+197 0 -199 0 *
Ve
1e-07
-29.05127888587 -96.98738527024 -17.0625
0 0

0101101
*
Ed
 1e-07 1 1 0
1  68 0 5.35 7.35
2  11 19 0 5.35 7.35
4 C0 19 0 37 0
0

0101000
+197 0 -195 0 *
Ve
1e-07
-27.93653115209 -95.98366190236 -17.0625
0 0

0101101
*
Ed
 1e-07 1 1 0
1  69 0 5.00127410064216 5.47070141131856
2  12 19 0 5.00127410064216 5.47070141131856
4 C0 19 0 38 0
0

0101000
+193 0 -195 0 *
Ve
1e-07
-27.93653115209 -95.98366190236 -15.0625
0 0

0101101
*
Ed
 1e-07 1 1 0
1  70 0 5.35 7.35
2  13 19 0 5.35 7.35
4 C0 19 0 39 0
0

0101000
+191 0 -193 0 *
Ve
1e-07
-27.36871242492 -94.23609555367 -15.0625
0 0

0101101
*
Ed
 1e-07 1 1 0
1  71 0 4.42350386012261 5.00127410064216
2  14 19 0 4.42350386012261 5.00127410064216
4 C0 19 0 20 0
0

0101000
+189 0 -191 0 *
Ve
1e-07
-27.36871242492 -94.23609555367 -17.0625
0 0

0101101
*
Ed
 1e-07 1 1 0
1  72 0 5.35 7.35
2  15 19 0 5.35 7.35
4 C0 19 0 40 0
0

0101000
+189 0 -187 0 *
Ve
1e-07
-27.68058849298 -92.76883401346 -17.0625
0 0

0101101
*
Ed
 1e-07 1 1 0
1  73 0 3.95407654944618 4.42350386012261
2  16 19 0 3.95407654944618 4.42350386012261
4 C0 19 0 41 0
0

0101000
+185 0 -187 0 *
Ve
1e-07
-27.68058849298 -92.76883401346 -15.0625
0 0

0101101
*
Ed
 1e-07 1 1 0
1  74 0 5.35 7.35
2  17 19 0 5.35 7.35
4 C0 19 0 42 0
0

0101000
+183 0 -185 0 *
Ve
1e-07
-28.91011598216 -91.40330539665 -15.0625
0 0

0101101
*
Ed
 1e-07 1 1 0
1  75 0 3.37630630892974 3.95407654944618
2  18 19 0 3.37630630892974 3.95407654944618
4 C0 19 0 26 0
0

0101000
+181 0 -183 0 *
Ve
1e-07
-28.91011598216 -91.40330539665 -17.0625
0 0

0101101
*
Ed
 1e-07 1 1 0
1  76 0 5.35 7.35
2  19 19 0 5.35 7.35
4 C0 19 0 43 0
0

0101000
+181 0 -179 0 *
Ve
1e-07
-30.33673978401 -90.93976722432 -17.0625
0 0

0101101
*
Ed
 1e-07 1 1 0
1  77 0 2.90687899825239 3.37630630892974
2  20 19 0 2.90687899825239 3.37630630892974
4 C0 19 0 44 0
0

0101000
+177 0 -179 0 *
Ve
1e-07
-30.33673978401 -90.93976722432 -15.0625
0 0

0101101
*
Ed
 1e-07 1 1 0
1  78 0 5.35 7.35
2  21 19 0 5.35 7.35
4 C0 19 0 45 0
0

0101000
+175 0 -177 0 *
Ve
1e-07
-32.13408600036 -91.32180495619 -15.0625
0 0

0101101
*
Ed
 1e-07 1 1 0
1  79 0 2.32910875773297 2.90687899825239
2  22 19 0 2.32910875773297 2.90687899825239
4 C0 19 0 46 0
0

0101000
+173 0 -175 0 *
Ve
1e-07
-32.13408600036 -91.32180495619 -17.0625
0 0

0101101
*
Ed
 1e-07 1 1 0
1  80 0 5.35 7.35
2  23 19 0 5.35 7.35
4 C0 19 0 47 0
0

0101000
+173 0 -171 0 *
Ve
1e-07
-33.24883373414 -92.32552832407 -17.0625
0 0

0101101
*
Ed
 1e-07 1 1 0
1  81 0 1.85968144705668 2.32910875773297
2  24 19 0 1.85968144705668 2.32910875773297
4 C0 19 0 48 0
0

0101000
+169 0 -171 0 *
Ve
1e-07
-33.24883373414 -92.32552832407 -15.0625
0 0

0101101
*
Ed
 1e-07 1 1 0
1  82 0 5.35 7.35
2  25 19 0 5.35 7.35
4 C0 19 0 49 0
0

0101000
+167 0 -169 0 *
Ve
1e-07
-33.81665246131 -94.07309467276 -15.0625
0 0

0101101
*
Ed
 1e-07 1 1 0
1  83 0 1.28191120653599 1.85968144705668
2  26 19 0 1.28191120653599 1.85968144705668
4 C0 19 0 50 0
0

0101000
+165 0 -167 0 *
Ve
1e-07
-33.81665246131 -94.07309467276 -17.0625
0 0

0101101
*
Ed
 1e-07 1 1 0
1  84 0 5.35 7.35
2  27 19 0 5.35 7.35
4 C0 19 0 51 0
0

0101000
+165 0 -163 0 *
Ve
1e-07
-33.50477639325 -95.54035621297 -17.0625
0 0

0101101
*
Ed
 1e-07 1 1 0
1  85 0 0.812483895857854 1.28191120653599
2  28 19 0 0.812483895857854 1.28191120653599
4 C0 19 0 52 0
0

0101000
+161 0 -163 0 *
Ve
1e-07
-33.50477639325 -95.54035621297 -15.0625
0 0

0101101
*
Ed
 1e-07 1 1 0
1  86 0 5.35 7.35
2  29 19 0 5.35 7.35
4 C0 19 0 53 0
0

0101000
+159 0 -161 0 *
Ve
1e-07
-32.27524890407 -96.90588482978 -15.0625
0 0

0101101
*
Ed
 1e-07 1 1 0
1  87 0 0.234713655338912 0.812483895857854
2  30 19 0 0.234713655338912 0.812483895857854
4 C0 19 0 33 0
0

0101000
+157 0 -159 0 *
Ve
1e-07
-32.27524890407 -96.90588482978 -17.0625
0 0

0101101
*
Ed
 1e-07 1 1 0
1  88 0 5.35 7.35
2  31 19 0 5.35 7.35
4 C0 19 0 54 0
0

0101000
+157 0 -155 0 *
Ed
 1e-07 1 1 0
1  89 0 0 0.234713655338912
2  32 19 0 0 0.234713655338912
4 C0 19 0 35 0
0

0101000
+203 0 -155 0 *
Wi

0101100
-202 0 +294 0 +202 0 -200 0 -198 0 -196 0 +194 0 -192 0 -190 0 -188 0 
+186 0 -184 0 -182 0 -180 0 +178 0 -176 0 -174 0 -172 0 +170 0 -168 0 
-166 0 -164 0 +162 0 -160 0 -158 0 -156 0 +154 0 -153 0 *
Fa
0  1e-07 19 0

0111000
+152 0 *
Ed
 1e-07 1 1 0
1  90 0 9.09136271529018 10.9148650477347
4 C0 20 0 40 0
0

0101000
+189 0 -286 0 *
Ed
 1e-07 1 1 0
1  91 0 9.09136271529018 10.9148650477442
4 C0 20 0 39 0
0

0101000
+191 0 -288 0 *
Wi

0101100
-188 0 +150 0 +285 0 -149 0 *
Fa
0  1e-07 20 0

0111000
+148 0 *
Ve
1e-07
-28.67215143272 -98.77103970165 -17.0625
0 0

0101101
*
Ed
 1e-07 1 1 0
1  92 0 -0 2
2  33 21 0 -0 2
4 C0 21 0 37 0
0

0101000
+281 0 -146 0 *
Ve
1e-07
-26.20227737633 -96.54715511237 -17.0625
0 0

0101101
*
Ed
 1e-07 1 1 0
1  93 0 4.89718903877658 5.57478647318487
2  34 21 0 4.89718903877658 5.57478647318487
4 C0 21 0 38 0
0

0101000
+144 0 -146 0 *
Ed
 1e-07 1 1 0
1  94 0 -0 2
2  35 21 0 -0 2
4 C0 21 0 39 0
0

0101000
+288 0 -144 0 *
Wi

0101100
+280 0 +145 0 -143 0 -142 0 *
Fa
0  1e-07 21 0

0111000
+141 0 *
Ed
 1e-07 1 1 0
1  95 0 9.09136271529947 10.9148650477412
4 C0 22 0 37 0
0

0101000
+197 0 -281 0 *
Ed
 1e-07 1 1 0
1  96 0 9.09136271529949 10.9148650477412
4 C0 22 0 36 0
0

0101000
+199 0 -276 0 *
Wi

0101100
-196 0 +139 0 +275 0 -138 0 *
Fa
0  1e-07 22 0

0111000
+137 0 *
Ed
 1e-07 1 1 0
1  97 0 0.198554845408333 1.63894515458397
4 CN 23 0 24 0
0

0101000
+266 0 -208 0 *
Wi

0101100
+265 0 +135 0 +206 0 *
Fa
0  1e-07 23 0

0111000
+134 0 *
Ve
1e-07
-30.71586723716 -89.1561127929 -15.0625
0 0

0101101
*
Ed
 1e-07 1 1 0
1  98 0 0.114635693454742 1.08513495226442
4 CN 24 0 25 0
0

0101000
+264 0 -132 0 *
Ve
1e-07
-32.51321345351 -89.53815052478 -15.0625
0 0

0101101
*
Ed
 1e-07 1 1 0
1  99 0 2.43319381959769 2.80279393638592
4 C1 24 0 46 0
0

0101000
+130 0 -132 0 *
Ed
 1e-07 1 1 0
1  100 0 0.114635693454756 1.08513495226443
4 CN 24 0 34 0
0

0101000
+210 0 -130 0 *
Wi

0101100
+263 0 +131 0 -129 0 -128 0 +207 0 -135 0 *
Fa
0  1e-07 24 0

0111000
+127 0 *
Ed
 1e-07 1 1 0
1  101 0 2.80279393638592 3.48039137079394
2  36 55 0 2.80279393638592 3.48039137079394
4 C0 25 0 55 0
0

0101000
+132 0 -252 0 *
Wi

0101100
-131 0 +261 0 +251 0 -125 0 *
Fa
0  1e-07 25 0

0111000
+124 0 *
Ed
 1e-07 1 1 0
1  102 0 1.08513495226453 2.90863728470387
4 C0 26 0 42 0
0

0101000
+250 0 -183 0 *
Ed
 1e-07 1 1 0
1  103 0 1.08513495225784 2.90863728470387
4 C0 26 0 43 0
0

0101000
+252 0 -181 0 *
Wi

0101100
+248 0 +122 0 -180 0 -121 0 *
Fa
0  1e-07 26 0

0111000
+120 0 *
Ve
1e-07
-26.32546217038 -91.54867279206 -17.0625
0 0

0101101
*
Ve
1e-07
-25.63445864917 -94.79958876368 -17.0625
0 0

0101101
*
Ed
 1e-07 1 1 0
1  104 0 3.84999148758181 4.52758892198953
2  37 27 0 3.84999148758181 4.52758892198953
4 C0 27 0 41 0
0

0101000
+118 0 -117 0 *
Ed
 1e-07 1 1 0
1  105 0 -0 2
2  38 27 0 -0 2
4 C0 27 0 42 0
0

0101000
+250 0 -118 0 *
Ed
 1e-07 1 1 0
1  106 0 -0 2
2  39 27 0 -0 2
4 C0 27 0 40 0
0

0101000
+286 0 -117 0 *
Wi

0101100
-116 0 -115 0 +245 0 +114 0 *
Fa
0  1e-07 27 0

0111000
+113 0 *
Ve
1e-07
-35.55090623706 -93.50960146275 -15.0625
0 0

0101101
*
Ed
 1e-07 1 1 0
1  107 0 0.708398833993719 1.38599626840198
2  40 56 0 0.708398833993719 1.38599626840198
4 C0 28 0 56 0
0

0101000
+222 0 -111 0 *
Ed
 1e-07 1 1 0
1  108 0 0.11463569345476 1.08513495226376
4 CN 28 0 29 0
0

0101000
+238 0 -111 0 *
Wi

0101100
-110 0 +219 0 +237 0 +109 0 *
Fa
0  1e-07 28 0

0111000
+108 0 *
Ve
1e-07
-34.9830875099 -91.76203511406 -15.0625
0 0

0101101
*
Ed
 1e-07 1 1 0
1  109 0 0.114635693445252 1.08513495225424
4 CN 29 0 34 0
0

0101000
+212 0 -106 0 *
Ed
 1e-07 1 1 0
1  110 0 1.38599626840198 1.7555963851895
4 CN 29 0 50 0
0

0101000
+111 0 -106 0 *
Ed
 1e-07 1 1 0
1  111 0 0.198554845411663 1.63894515458796
4 CN 29 0 30 0
0

0101000
+214 0 -236 0 *
Wi

0101100
+105 0 -104 0 -109 0 +235 0 -103 0 +211 0 *
Fa
0  1e-07 29 0

0111000
+102 0 *
Wi

0101100
+103 0 +233 0 +213 0 *
Fa
0  1e-07 30 0

0111000
+100 0 *
Ve
1e-07
-32.13776741499 -98.90987769469 -17.0625
0 0

0101101
*
Ed
 1e-07 1 1 0
1  112 0 -0 2
2  41 31 0 -0 2
2  42 32 0 -0 2
4 CN 31 0 32 0
0

0101000
+229 0 -98 0 *
Ve
1e-07
-30.46949764907 -99.15307743353 -17.0625
0 0

0101101
*
Ed
 1e-07 1 1 0
1  113 0 5.94438658997366 6.28318530717959
2  43 31 0 5.94438658997366 6.28318530717959
4 C0 31 0 35 0
0

0101000
+96 0 -98 0 *
Ed
 1e-07 1 1 0
1  114 0 -0 2
2  44 31 0 -0 2
4 C0 31 0 36 0
0

0101000
+276 0 -96 0 *
Wi

0101100
+228 0 +97 0 -95 0 -94 0 *
Fa
0  1e-07 31 0

0111000
+93 0 *
Ve
1e-07
-33.63037522667 -98.12604605119 -17.0625
0 0

0101101
*
Ed
 1e-07 1 1 0
1  115 0 0 0.338798717203772
2  45 32 0 0 0.338798717203772
4 C0 32 0 35 0
0

0101000
+98 0 -91 0 *
Ed
 1e-07 1 1 0
1  116 0 -0 2
2  46 32 0 -0 2
4 C0 32 0 54 0
0

0101000
+227 0 -91 0 *
Wi

0101100
-90 0 -97 0 +225 0 +89 0 *
Fa
0  1e-07 32 0

0111000
+88 0 *
Ed
 1e-07 1 1 0
1  117 0 9.09136271529286 10.9148650477389
4 C0 33 0 54 0
0

0101000
+157 0 -227 0 *
Ed
 1e-07 1 1 0
1  118 0 9.09136271529285 10.9148650477396
4 C0 33 0 53 0
0

0101000
+159 0 -222 0 *
Wi

0101100
-156 0 +86 0 +221 0 -85 0 *
Fa
0  1e-07 33 0

0111000
+84 0 *
Ed
 1e-07 1 1 0
1  119 0 1.7555963851895 2.43319381959769
2  47 57 0 1.7555963851895 2.43319381959769
4 C0 34 0 57 0
0

0101000
+106 0 -130 0 *
Wi

0101100
+128 0 -82 0 -105 0 +209 0 *
Fa
0  1e-07 34 0

0111000
+81 0 *
Ed
 1e-07 1 1 0
1  120 0 -7.91486504774123 -6.09136271529947
4 C0 35 0 36 0
0

0101000
+96 0 -201 0 *
Ed
 1e-07 1 1 0
1  121 0 -7.91486504773822 -6.09136271529219
4 C0 35 0 54 0
0

0101000
+91 0 -155 0 *
Wi

0101100
-79 0 +95 0 +90 0 +78 0 -153 0 -200 0 *
Fa
0  1e-07 35 0

0111000
+77 0 *
Wi

0101100
-86 0 +154 0 -78 0 -89 0 *
Fa
0  1e-07 54 0

0111000
+75 0 *
Ve
1e-07
-34.85990271586 -96.76051743437 -17.0625
0 0

0101101
*
Ed
 1e-07 1 1 0
1  122 0 -7.91486504773823 -6.09136271529144
4 C0 53 0 52 0
0

0101000
+73 0 -161 0 *
Ed
 1e-07 1 1 0
1  123 0 -0 2
2  48 56 0 -0 2
4 C0 53 0 56 0
0

0101000
+222 0 -73 0 *
Wi

0101100
-85 0 +158 0 -72 0 -71 0 *
Fa
0  1e-07 53 0

0111000
+70 0 *
Ve
1e-07
-35.55090623706 -93.50960146275 -17.0625
0 0

0101101
*
Ed
 1e-07 1 1 0
1  124 0 0.708398833993719 1.38599626840198
2  49 56 0 0.708398833993719 1.38599626840198
4 C0 52 0 56 0
0

0101000
+73 0 -68 0 *
Ed
 1e-07 1 1 0
1  125 0 0.0913627152976526 1.91486504774215
4 C0 52 0 51 0
0

0101000
+163 0 -68 0 *
Wi

0101100
-72 0 +67 0 -66 0 -160 0 *
Fa
0  1e-07 52 0

0111000
+65 0 *
Ed
 1e-07 1 1 0
1  126 0 1.08513495226376 2.90863728470825
4 C0 51 0 50 0
0

0101000
+111 0 -165 0 *
Ed
 1e-07 1 1 0
1  127 0 -0 2
2  50 56 0 -0 2
4 C0 51 0 56 0
0

0101000
+111 0 -68 0 *
Wi

0101100
-63 0 +62 0 -66 0 -162 0 *
Fa
0  1e-07 51 0

0111000
+61 0 *
Ed
 1e-07 1 1 0
1  128 0 1.08513495225424 2.90863728470825
4 C0 50 0 49 0
0

0101000
+106 0 -167 0 *
Wi

0101100
+104 0 +59 0 -164 0 -63 0 *
Fa
0  1e-07 50 0

0111000
+58 0 *
Ve
1e-07
-34.9830875099 -91.76203511406 -17.0625
0 0

0101101
*
Ed
 1e-07 1 1 0
1  129 0 -0 2
2  51 57 0 -0 2
4 C0 49 0 57 0
0

0101000
+106 0 -56 0 *
Ed
 1e-07 1 1 0
1  130 0 0.091362715285053 1.91486504773906
4 C0 49 0 48 0
0

0101000
+169 0 -56 0 *
Wi

0101100
-59 0 +55 0 -54 0 -166 0 *
Fa
0  1e-07 49 0

0111000
+53 0 *
Ve
1e-07
-32.51321345351 -89.53815052478 -17.0625
0 0

0101101
*
Ed
 1e-07 1 1 0
1  131 0 1.7555963851895 2.43319381959769
2  52 57 0 1.7555963851895 2.43319381959769
4 C0 48 0 57 0
0

0101000
+56 0 -51 0 *
Ed
 1e-07 1 1 0
1  132 0 0.0913627152938382 1.9148650477356
4 C0 48 0 47 0
0

0101000
+171 0 -51 0 *
Wi

0101100
-168 0 +54 0 +50 0 -49 0 *
Fa
0  1e-07 48 0

0111000
+48 0 *
Ed
 1e-07 1 1 0
1  133 0 1.08513495226443 2.90863728470618
4 C0 47 0 46 0
0

0101000
+130 0 -173 0 *
Ed
 1e-07 1 1 0
1  134 0 -0 2
2  53 57 0 -0 2
4 C0 47 0 57 0
0

0101000
+130 0 -51 0 *
Wi

0101100
-46 0 +45 0 -49 0 -170 0 *
Fa
0  1e-07 47 0

0111000
+44 0 *
Ed
 1e-07 1 1 0
1  135 0 1.08513495226442 2.90863728471595
4 C0 46 0 45 0
0

0101000
+132 0 -175 0 *
Wi

0101100
+129 0 +42 0 -172 0 -46 0 *
Fa
0  1e-07 46 0

0111000
+41 0 *
Ve
1e-07
-30.71586723716 -89.1561127929 -17.0625
0 0

0101101
*
Ed
 1e-07 1 1 0
1  136 0 -0 2
2  54 55 0 -0 2
4 C0 45 0 55 0
0

0101000
+132 0 -39 0 *
Ed
 1e-07 1 1 0
1  137 0 0.0913627152938389 1.91486504774537
4 C0 45 0 44 0
0

0101000
+177 0 -39 0 *
Wi

0101100
-42 0 +38 0 -37 0 -174 0 *
Fa
0  1e-07 45 0

0111000
+36 0 *
Ve
1e-07
-27.55498965956 -90.18314417524 -17.0625
0 0

0101101
*
Ed
 1e-07 1 1 0
1  138 0 2.80279393638592 3.48039137079394
2  55 55 0 2.80279393638592 3.48039137079394
4 C0 44 0 55 0
0

0101000
+39 0 -34 0 *
Ed
 1e-07 1 1 0
1  139 0 0.0913627152975369 1.91486504774357
4 C0 44 0 43 0
0

0101000
+179 0 -34 0 *
Wi

0101100
-176 0 +37 0 +33 0 -32 0 *
Fa
0  1e-07 44 0

0111000
+31 0 *
Ed
 1e-07 1 1 0
1  140 0 -0 2
2  56 55 0 -0 2
4 C0 43 0 55 0
0

0101000
+252 0 -34 0 *
Wi

0101100
-121 0 +29 0 -32 0 -178 0 *
Fa
0  1e-07 43 0

0111000
+28 0 *
Ed
 1e-07 1 1 0
1  141 0 0.0913627152967991 1.91486504773614
4 C0 42 0 41 0
0

0101000
+185 0 -118 0 *
Wi

0101100
-122 0 +115 0 -26 0 -182 0 *
Fa
0  1e-07 42 0

0111000
+25 0 *
Ed
 1e-07 1 1 0
1  142 0 -7.91486504774137 -6.09136271529688
4 C0 41 0 40 0
0

0101000
+117 0 -187 0 *
Wi

0101100
-184 0 +26 0 +116 0 +23 0 *
Fa
0  1e-07 41 0

0111000
+22 0 *
Wi

0101100
-150 0 +186 0 -23 0 -114 0 *
Fa
0  1e-07 40 0

0111000
+20 0 *
Ed
 1e-07 1 1 0
1  143 0 -7.91486504773828 -6.09136271528428
4 C0 39 0 38 0
0

0101000
+144 0 -193 0 *
Wi

0101100
-149 0 +190 0 -18 0 -142 0 *
Fa
0  1e-07 39 0

0111000
+17 0 *
Ed
 1e-07 1 1 0
1  144 0 -7.91486504773144 -6.09136271528968
4 C0 38 0 37 0
0

0101000
+146 0 -195 0 *
Wi

0101100
-18 0 +143 0 +15 0 -192 0 *
Fa
0  1e-07 38 0

0111000
+14 0 *
Wi

0101100
-139 0 +194 0 -15 0 -145 0 *
Fa
0  1e-07 37 0

0111000
+12 0 *
Wi

0101100
-138 0 +198 0 -79 0 -94 0 *
Fa
0  1e-07 36 0

0111000
+10 0 *
Wi

0101100
-33 0 -38 0 +125 0 +29 0 *
Fa
0  1e-07 55 0

0111000
+8 0 *
Wi

0101100
-67 0 -71 0 +110 0 +62 0 *
Fa
0  1e-07 56 0

0111000
+6 0 *
Wi

0101100
-50 0 -55 0 +82 0 +45 0 *
Fa
0  1e-07 57 0

0111000
+4 0 *
Sh

0101100
-332 0 -317 0 -302 0 -292 0 +289 0 +282 0 +277 0 +271 0 +269 0 -256 0 
+253 0 +246 0 +243 0 -230 0 +223 0 +217 0 +215 0 -204 0 -151 0 +147 0 
+140 0 +136 0 +133 0 +126 0 +123 0 +119 0 +112 0 +107 0 +101 0 +99 0 
+92 0 +87 0 +83 0 +80 0 +76 0 +74 0 -69 0 +64 0 -60 0 +57 0 
+52 0 +47 0 -43 0 +40 0 +35 0 +30 0 -27 0 +24 0 +21 0 +19 0 
-16 0 +13 0 +11 0 -9 0 +7 0 +5 0 +3 0 *
So

0100000
+2 0 *

+1 0 