DBRep_DrawableShape

CASCADE Topology V1, (c) Matra-Datavision
Locations 0
Curve2ds 56
1 0 1 1 0 
1 0 0 1 0 
1 0 0 1 0 
1 0 0 1 0 
1 0 0 1 0 
1 6.2831853071800001 -0 0 1 
1 0 -0 0 1 
1 0 7.3499999999999996 1 0 
1 6.048471651841 0 0 1 
1 0 5.3499999999999996 1 0 
1 5.4707014113210004 0 0 1 
1 0 7.3499999999999996 1 0 
1 5.0012741006450003 0 0 1 
1 0 5.3499999999999996 1 0 
1 4.4235038601249999 0 0 1 
1 0 7.3499999999999996 1 0 
1 3.9540765494480001 0 0 1 
1 0 5.3499999999999996 1 0 
1 3.3763063089280001 0 0 1 
1 0 7.3499999999999996 1 0 
1 2.9068789982509999 0 0 1 
1 0 5.3499999999999996 1 0 
1 2.329108757732 0 0 1 
1 0 7.3499999999999996 1 0 
1 1.859681447055 0 0 1 
1 0 5.3499999999999996 1 0 
1 1.281911206535 0 0 1 
1 0 7.3499999999999996 1 0 
1 0.81248389585799996 0 0 1 
1 0 5.3499999999999996 1 0 
1 0.23471365533800001 0 0 1 
1 0 7.3499999999999996 1 0 
1 5.5747864731870003 0 0 1 
1 0 2 1 0 
1 4.8971890387789996 0 0 1 
1 0 0 1 0 
1 0 2 1 0 
1 3.8499914875819998 0 0 1 
1 4.5275889219909997 0 0 1 
1 0 0 1 0 
1 6.2831853071800001 -0 0 1 
1 0 -0 0 1 
1 0 2 1 0 
1 5.9443865899750001 0 0 1 
1 0 2 1 0 
1 0.33879871720400001 0 0 1 
1 0 0 1 0 
1 0.70839883399199999 0 0 1 
1 0 2 1 0 
1 1.3859962684010001 0 0 1 
1 1.755596385189 0 0 1 
1 0 2 1 0 
1 2.4331938195979999 0 0 1 
1 2.8027939363850001 0 0 1 
1 0 2 1 0 
1 3.480391370794 0 0 1 
Curves 144
1 36.694475468558998 -92.172002376910001 -10.7125 2.22044604925e-16 -1.6653345369380001e-16 -1 
1 36.694475468558998 -92.172002376910001 -15.0625 -0.20791169081795011 -0.97814760073376517 1.1672862892557197e-16 
1 36.694475468558998 -92.172002376910001 -15.0625 -0.20791169081795011 -0.97814760073376517 1.1672862892557197e-16 
1 36.694475468558998 -92.172002376910001 -15.0625 -0.20791169081795011 -0.97814760073376517 1.1672862892557197e-16 
1 36.694475468558998 -92.172002376910001 -15.0625 -0.20791169081795011 -0.97814760073376517 1.1672862892557197e-16 
1 36.694475468558998 -92.172002376910001 -15.0625 -0.20791169081795011 -0.97814760073376517 1.1672862892557197e-16 
1 35.360554630834997 -98.447606513729994 -10.7125 2.22044604925e-16 -1.6653345369380001e-16 -1 
1 36.694475468558998 -92.172002376910001 -10.7125 -0.20791169081795011 -0.97814760073376517 1.1672862892557197e-16 
1 31.926603280843999 -87.878990976400004 -10.7125 2.22044604925e-16 -1.6653345369380001e-16 -1 
1 31.926603280843999 -87.878990976400004 -15.0625 0.74314482547714722 -0.66913060635913257 2.7644393002445478e-16 
1 31.926603280843999 -87.878990976400004 -15.0625 0.74314482547714722 -0.66913060635913257 2.7644393002445478e-16 
1 31.926603280843999 -87.878990976400004 -15.0625 0.74314482547714722 -0.66913060635913257 2.7644393002445478e-16 
1 31.926603280843999 -87.878990976400004 -15.0625 0.74314482547714722 -0.66913060635913257 2.7644393002445478e-16 
1 31.926603280843999 -87.878990976400004 -15.0625 0.74314482547714722 -0.66913060635913257 2.7644393002445478e-16 
1 31.926603280843999 -87.878990976400004 -10.7125 0.74314482547714722 -0.66913060635913257 2.7644393002445478e-16 
1 35.360554630834997 -98.447606513729994 -15.0625 -0.95105651629512344 -0.3090169943750401 -1.5971530109882074e-16 
1 35.360554630834997 -98.447606513729994 -15.0625 -0.95105651629512344 -0.3090169943750401 -1.5971530109882074e-16 
1 35.360554630834997 -98.447606513729994 -15.0625 -0.95105651629512344 -0.3090169943750401 -1.5971530109882074e-16 
1 35.360554630834997 -98.447606513729994 -15.0625 -0.95105651629512344 -0.3090169943750401 -1.5971530109882074e-16 
1 35.360554630834997 -98.447606513729994 -15.0625 -0.95105651629512344 -0.3090169943750401 -1.5971530109882074e-16 
1 29.258761605396 -100.43019925 -10.7125 2.22044604925e-16 -1.6653345369380001e-16 -1 
1 35.360554630834997 -98.447606513729994 -10.7125 -0.95105651629512344 -0.3090169943750401 -1.5971530109882074e-16 
1 29.258761605396 -100.43019925 -10.7125 -0.74314482547714722 0.66913060635913257 -2.7644393002445478e-16 
1 24.490889417681 -96.137187849520004 -10.7125 0.20791169081795011 0.97814760073376517 -1.1672862892557197e-16 
1 25.824810255404 -89.861583712699996 -10.7125 0.95105651629512344 0.3090169943750401 1.5971530109882074e-16 
2 30.592682443120001 -94.154595113219997 -10.7125 2.22044604925e-16 -1.6653345369380001e-16 -1 0.3090169943750401 -0.95105651629512344 2.2699828274773738e-16 -0.95105651629512344 -0.3090169943750401 -1.5971530109874452e-16 3.2250000000000001
1 36.015112177309 -91.426709972620003 -15.0625 0.3090169943750401 -0.95105651629512344 2.2699828274772949e-16 
1 25.170252708930999 -96.882480253810002 -15.0625 0.95105651629512344 0.3090169943750401 1.5971530109882074e-16 
2 30.592682443120001 -94.154595113219997 -15.0625 2.22044604925e-16 -1.6653345369380001e-16 -1 0.3090169943750401 -0.95105651629512344 2.2699828274773738e-16 -0.95105651629512344 -0.3090169943750401 -1.5971530109874452e-16 5
1 24.602433981767 -95.134913905120001 -15.0625 0.95105651629512344 0.3090169943750401 1.5971530109882074e-16 
2 30.592682443120001 -94.154595113219997 -15.0625 2.22044604925e-16 -1.6653345369380001e-16 -1 0.3090169943750401 -0.95105651629512344 2.2699828274773738e-16 -0.95105651629512344 -0.3090169943750401 -1.5971530109874452e-16 5
1 26.748577234848 -89.457047166660004 -15.0625 0.74314482547714722 -0.66913060635913257 2.7644393002445478e-16 
2 30.592682443120001 -94.154595113219997 -15.0625 2.22044604925e-16 -1.6653345369380001e-16 -1 0.3090169943750401 -0.95105651629512344 2.2699828274773738e-16 -0.95105651629512344 -0.3090169943750401 -1.5971530109874452e-16 5
1 35.666315140576003 -97.486614442960004 -15.0625 -0.66913060635913257 -0.74314482547714722 -2.4818366750794914e-17 
1 25.519049745663001 -90.82257578347 -15.0625 0.74314482547714722 -0.66913060635913257 2.7644393002445478e-16 
1 25.824810255404 -89.861583712699996 -10.7125 2.22044604925e-16 -1.6653345369380001e-16 -1 
1 25.824810255404 -89.861583712699996 -15.0625 0.95105651629512344 0.3090169943750401 1.5971530109882074e-16 
1 25.824810255404 -89.861583712699996 -15.0625 0.95105651629512344 0.3090169943750401 1.5971530109882074e-16 
1 25.824810255404 -89.861583712699996 -15.0625 0.95105651629512344 0.3090169943750401 1.5971530109882074e-16 
1 25.824810255404 -89.861583712699996 -15.0625 0.95105651629512344 0.3090169943750401 1.5971530109882074e-16 
1 25.824810255404 -89.861583712699996 -15.0625 0.95105651629512344 0.3090169943750401 1.5971530109882074e-16 
1 32.738825696200998 -88.476728374749996 -15.0625 -0.97814760073376517 0.20791169081795011 -2.5181664949843955e-16 
1 30.941479479851999 -88.094690642870006 -15.0625 -0.20791169081795011 -0.97814760073376517 1.1672862892557197e-16 
1 32.738825696200998 -88.476728374749996 -15.0625 -0.20791169081795011 -0.97814760073376517 1.1672862892557197e-16 
2 30.592682443120001 -94.154595113219997 -15.0625 2.22044604925e-16 -1.6653345369380001e-16 -1 0.3090169943750401 -0.95105651629512344 2.2699828274773738e-16 -0.95105651629512344 -0.3090169943750401 -1.5971530109874452e-16 5
2 30.592682443120001 -94.154595113219997 -15.0625 2.22044604925e-16 -1.6653345369380001e-16 -1 0.3090169943750401 -0.95105651629512344 2.2699828274773738e-16 -0.95105651629512344 -0.3090169943750401 -1.5971530109874452e-16 5
1 29.258761605396 -100.43019925 -15.0625 -0.74314482547714722 0.66913060635913257 -2.7644393002445478e-16 
1 29.258761605396 -100.43019925 -15.0625 -0.74314482547714722 0.66913060635913257 -2.7644393002445478e-16 
1 29.258761605396 -100.43019925 -15.0625 -0.74314482547714722 0.66913060635913257 -2.7644393002445478e-16 
1 29.258761605396 -100.43019925 -15.0625 -0.74314482547714722 0.66913060635913257 -2.7644393002445478e-16 
1 29.258761605396 -100.43019925 -15.0625 -0.74314482547714722 0.66913060635913257 -2.7644393002445478e-16 
1 24.490889417681 -96.137187849520004 -10.7125 2.22044604925e-16 -1.6653345369380001e-16 -1 
2 30.592682443120001 -94.154595113219997 -15.0625 2.22044604925e-16 -1.6653345369380001e-16 -1 0.3090169943750401 -0.95105651629512344 2.2699828274773738e-16 -0.95105651629512344 -0.3090169943750401 -1.5971530109874452e-16 5
1 32.738825696200998 -88.476728374749996 -15.0625 -0.20791169081795011 -0.97814760073376517 1.1672862892557197e-16 
2 30.592682443120001 -94.154595113219997 -15.0625 2.22044604925e-16 -1.6653345369380001e-16 -1 0.3090169943750401 -0.95105651629512344 2.2699828274773738e-16 -0.95105651629512344 -0.3090169943750401 -1.5971530109874452e-16 5
2 30.592682443120001 -94.154595113219997 -15.0625 2.22044604925e-16 -1.6653345369380001e-16 -1 0.3090169943750401 -0.95105651629512344 2.2699828274773738e-16 -0.95105651629512344 -0.3090169943750401 -1.5971530109874452e-16 5
1 30.243885406387001 -100.2144995835 -15.0625 -0.97814760073376517 0.20791169081795011 -2.5181664949843955e-16 
1 30.941479479851999 -88.094690642870006 -15.0625 -0.20791169081795011 -0.97814760073376517 1.1672862892557197e-16 
1 24.490889417681 -96.137187849520004 -15.0625 0.20791169081795011 0.97814760073376517 -1.1672862892557197e-16 
1 24.490889417681 -96.137187849520004 -15.0625 0.20791169081795011 0.97814760073376517 -1.1672862892557197e-16 
1 24.490889417681 -96.137187849520004 -15.0625 0.20791169081795011 0.97814760073376517 -1.1672862892557197e-16 
1 24.490889417681 -96.137187849520004 -15.0625 0.20791169081795011 0.97814760073376517 -1.1672862892557197e-16 
1 24.490889417681 -96.137187849520004 -15.0625 0.20791169081795011 0.97814760073376517 -1.1672862892557197e-16 
1 31.589262249979001 -97.221752378269997 -9.7125000000000004 2.22044604925e-16 -1.6653345369380001e-16 -1 
2 30.592682443120001 -94.154595113219997 -17.0625 2.22044604925e-16 -1.6653345369380001e-16 -1 0.3090169943750401 -0.95105651629512344 2.2699828274773738e-16 -0.95105651629512344 -0.3090169943750401 -1.5971530109874452e-16 3.2250000000000001
1 32.275248904070999 -96.905884829780007 -9.7125000000000004 2.22044604925e-16 -1.6653345369380001e-16 -1 
2 30.592682443120001 -94.154595113219997 -15.0625 2.22044604925e-16 -1.6653345369380001e-16 -1 0.3090169943750401 -0.95105651629512344 2.2699828274773738e-16 -0.95105651629512344 -0.3090169943750401 -1.5971530109874452e-16 3.2250000000000001
1 33.504776393255 -95.540356212969996 -9.7125000000000004 2.22044604925e-16 -1.6653345369380001e-16 -1 
2 30.592682443120001 -94.154595113219997 -17.0625 2.22044604925e-16 -1.6653345369380001e-16 -1 0.3090169943750401 -0.95105651629512344 2.2699828274773738e-16 -0.95105651629512344 -0.3090169943750401 -1.5971530109874452e-16 3.2250000000000001
1 33.816652461312003 -94.073094672760007 -9.7125000000000004 2.22044604925e-16 -1.6653345369380001e-16 -1 
2 30.592682443120001 -94.154595113219997 -15.0625 2.22044604925e-16 -1.6653345369380001e-16 -1 0.3090169943750401 -0.95105651629512344 2.2699828274773738e-16 -0.95105651629512344 -0.3090169943750401 -1.5971530109874452e-16 3.2250000000000001
1 33.248833734149002 -92.325528324070007 -9.7125000000000004 2.22044604925e-16 -1.6653345369380001e-16 -1 
2 30.592682443120001 -94.154595113219997 -17.0625 2.22044604925e-16 -1.6653345369380001e-16 -1 0.3090169943750401 -0.95105651629512344 2.2699828274773738e-16 -0.95105651629512344 -0.3090169943750401 -1.5971530109874452e-16 3.2250000000000001
1 32.134086000361002 -91.321804956189993 -9.7125000000000004 2.22044604925e-16 -1.6653345369380001e-16 -1 
2 30.592682443120001 -94.154595113219997 -15.0625 2.22044604925e-16 -1.6653345369380001e-16 -1 0.3090169943750401 -0.95105651629512344 2.2699828274773738e-16 -0.95105651629512344 -0.3090169943750401 -1.5971530109874452e-16 3.2250000000000001
1 30.336739784013002 -90.939767224319993 -9.7125000000000004 2.22044604925e-16 -1.6653345369380001e-16 -1 
2 30.592682443120001 -94.154595113219997 -17.0625 2.22044604925e-16 -1.6653345369380001e-16 -1 0.3090169943750401 -0.95105651629512344 2.2699828274773738e-16 -0.95105651629512344 -0.3090169943750401 -1.5971530109874452e-16 3.2250000000000001
1 28.910115982169 -91.403305396649998 -9.7125000000000004 2.22044604925e-16 -1.6653345369380001e-16 -1 
2 30.592682443120001 -94.154595113219997 -15.0625 2.22044604925e-16 -1.6653345369380001e-16 -1 0.3090169943750401 -0.95105651629512344 2.2699828274773738e-16 -0.95105651629512344 -0.3090169943750401 -1.5971530109874452e-16 3.2250000000000001
1 27.680588492984 -92.768834013459994 -9.7125000000000004 2.22044604925e-16 -1.6653345369380001e-16 -1 
2 30.592682443120001 -94.154595113219997 -17.0625 2.22044604925e-16 -1.6653345369380001e-16 -1 0.3090169943750401 -0.95105651629512344 2.2699828274773738e-16 -0.95105651629512344 -0.3090169943750401 -1.5971530109874452e-16 3.2250000000000001
1 27.368712424927001 -94.236095553669998 -9.7125000000000004 2.22044604925e-16 -1.6653345369380001e-16 -1 
2 30.592682443120001 -94.154595113219997 -15.0625 2.22044604925e-16 -1.6653345369380001e-16 -1 0.3090169943750401 -0.95105651629512344 2.2699828274773738e-16 -0.95105651629512344 -0.3090169943750401 -1.5971530109874452e-16 3.2250000000000001
1 27.936531152091 -95.983661902359998 -9.7125000000000004 2.22044604925e-16 -1.6653345369380001e-16 -1 
2 30.592682443120001 -94.154595113219997 -17.0625 2.22044604925e-16 -1.6653345369380001e-16 -1 0.3090169943750401 -0.95105651629512344 2.2699828274773738e-16 -0.95105651629512344 -0.3090169943750401 -1.5971530109874452e-16 3.2250000000000001
1 29.051278885877998 -96.987385270239997 -9.7125000000000004 2.22044604925e-16 -1.6653345369380001e-16 -1 
2 30.592682443120001 -94.154595113219997 -15.0625 2.22044604925e-16 -1.6653345369380001e-16 -1 0.3090169943750401 -0.95105651629512344 2.2699828274773738e-16 -0.95105651629512344 -0.3090169943750401 -1.5971530109874452e-16 3.2250000000000001
1 30.848625102227 -97.369423002120001 -9.7125000000000004 2.22044604925e-16 -1.6653345369380001e-16 -1 
2 30.592682443120001 -94.154595113219997 -17.0625 2.22044604925e-16 -1.6653345369380001e-16 -1 0.3090169943750401 -0.95105651629512344 2.2699828274773738e-16 -0.95105651629512344 -0.3090169943750401 -1.5971530109874452e-16 3.2250000000000001
1 24.602433981767 -95.134913905120001 -15.0625 0.95105651629512344 0.3090169943750401 1.5971530109882074e-16 
1 25.170252708930999 -96.882480253810002 -15.0625 0.95105651629512344 0.3090169943750401 1.5971530109882074e-16 
1 34.859902715860002 -96.760517434370001 -15.0625 2.22044604925e-16 -1.6653345369380001e-16 -1 
2 30.592682443120001 -94.154595113219997 -17.0625 2.22044604925e-16 -1.6653345369380001e-16 -1 0.3090169943750401 -0.95105651629512344 2.2699828274773738e-16 -0.95105651629512344 -0.3090169943750401 -1.5971530109874452e-16 5
1 35.550906237066997 -93.509601462749998 -15.0625 2.22044604925e-16 -1.6653345369380001e-16 -1 
1 26.748577234848 -89.457047166660004 -15.0625 0.74314482547714722 -0.66913060635913257 2.7644393002445478e-16 
1 25.519049745663001 -90.82257578347 -15.0625 0.74314482547714722 -0.66913060635913257 2.7644393002445478e-16 
1 26.748577234848 -89.457047166660004 -15.0625 -0.66913060635913257 -0.74314482547714722 -2.4818366750794914e-17 
1 26.748577234848 -89.457047166660004 -15.0625 0.74314482547714722 -0.66913060635913257 2.7644393002445478e-16 
2 30.592682443120001 -94.154595113219997 -15.0625 2.22044604925e-16 -1.6653345369380001e-16 -1 0.3090169943750401 -0.95105651629512344 2.2699828274773738e-16 -0.95105651629512344 -0.3090169943750401 -1.5971530109874452e-16 5
1 25.519049745663001 -90.82257578347 -15.0625 0.74314482547714722 -0.66913060635913257 2.7644393002445478e-16 
2 30.592682443120001 -94.154595113219997 -15.0625 2.22044604925e-16 -1.6653345369380001e-16 -1 0.3090169943750401 -0.95105651629512344 2.2699828274773738e-16 -0.95105651629512344 -0.3090169943750401 -1.5971530109874452e-16 5
1 32.738825696200998 -88.476728374749996 -15.0625 -0.20791169081795011 -0.97814760073376517 1.1672862892557197e-16 
1 30.941479479851999 -88.094690642870006 -15.0625 -0.20791169081795011 -0.97814760073376517 1.1672862892557197e-16 
2 30.592682443120001 -94.154595113219997 -17.0625 2.22044604925e-16 -1.6653345369380001e-16 -1 0.3090169943750401 -0.95105651629512344 2.2699828274773738e-16 -0.95105651629512344 -0.3090169943750401 -1.5971530109874452e-16 5
1 32.513213453511 -89.538150524779994 -15.0625 2.22044604925e-16 -1.6653345369380001e-16 -1 
1 34.983087509903001 -91.762035114059998 -15.0625 2.22044604925e-16 -1.6653345369380001e-16 -1 
2 30.592682443120001 -94.154595113219997 -15.0625 2.22044604925e-16 -1.6653345369380001e-16 -1 0.3090169943750401 -0.95105651629512344 2.2699828274773738e-16 -0.95105651629512344 -0.3090169943750401 -1.5971530109874452e-16 5
1 25.170252708930999 -96.882480253810002 -15.0625 0.95105651629512344 0.3090169943750401 1.5971530109882074e-16 
1 24.602433981767 -95.134913905120001 -15.0625 0.95105651629512344 0.3090169943750401 1.5971530109882074e-16 
2 30.592682443120001 -94.154595113219997 -15.0625 2.22044604925e-16 -1.6653345369380001e-16 -1 0.3090169943750401 -0.95105651629512344 2.2699828274773738e-16 -0.95105651629512344 -0.3090169943750401 -1.5971530109874452e-16 5
1 24.602433981767 -95.134913905120001 -15.0625 0.3090169943750401 -0.95105651629512344 2.2699828274772949e-16 
1 32.137767414994997 -98.909877694689996 -15.0625 2.22044604925e-16 -1.6653345369380001e-16 -1 
2 30.592682443120001 -94.154595113219997 -17.0625 2.22044604925e-16 -1.6653345369380001e-16 -1 0.3090169943750401 -0.95105651629512344 2.2699828274773738e-16 -0.95105651629512344 -0.3090169943750401 -1.5971530109874452e-16 5
1 33.630375226676001 -98.126046051190002 -15.0625 2.22044604925e-16 -1.6653345369380001e-16 -1 
2 30.592682443120001 -94.154595113219997 -17.0625 2.22044604925e-16 -1.6653345369380001e-16 -1 0.3090169943750401 -0.95105651629512344 2.2699828274773738e-16 -0.95105651629512344 -0.3090169943750401 -1.5971530109874452e-16 5
1 30.469497649076999 -99.153077433530001 -15.0625 2.22044604925e-16 -1.6653345369380001e-16 -1 
1 32.738825696200998 -88.476728374749996 -15.0625 -0.20791169081795011 -0.97814760073376517 1.1672862892557197e-16 
1 30.941479479851999 -88.094690642870006 -15.0625 -0.20791169081795011 -0.97814760073376517 1.1672862892557197e-16 
2 30.592682443120001 -94.154595113219997 -15.0625 2.22044604925e-16 -1.6653345369380001e-16 -1 0.3090169943750401 -0.95105651629512344 2.2699828274773738e-16 -0.95105651629512344 -0.3090169943750401 -1.5971530109874452e-16 5
1 27.748484222095001 -92.829967602549999 -17.0625 -0.74314482547714722 0.66913060635913257 -2.7644393002445478e-16 
1 32.115090623747001 -91.411171176950006 -17.0625 0.20791169081795011 0.97814760073376517 -1.1672862892557197e-16 
1 30.317744407399001 -91.029133445080006 -17.0625 0.20791169081795011 0.97814760073376517 -1.1672862892557197e-16 
1 28.672151432728999 -98.771039701649997 -15.0625 2.22044604925e-16 -1.6653345369380001e-16 -1 
2 30.592682443120001 -94.154595113219997 -17.0625 2.22044604925e-16 -1.6653345369380001e-16 -1 0.3090169943750401 -0.95105651629512344 2.2699828274773738e-16 -0.95105651629512344 -0.3090169943750401 -1.5971530109874452e-16 5
1 28.023422257816001 -95.955429270690004 -17.0625 -0.95105651629512344 -0.3090169943750401 -1.5971530109882074e-16 
1 25.170252708930999 -96.882480253810002 -15.0625 0.95105651629512344 0.3090169943750401 1.5971530109882074e-16 
1 26.202277376337001 -96.547155112370007 -15.0625 2.22044604925e-16 -1.6653345369380001e-16 -1 
1 24.602433981767 -95.134913905120001 -15.0625 0.95105651629512344 0.3090169943750401 1.5971530109882074e-16 
1 25.634458649172998 -94.799588763680006 -15.0625 2.22044604925e-16 -1.6653345369380001e-16 -1 
1 27.455603530651999 -94.207862921989999 -17.0625 -0.95105651629512344 -0.3090169943750401 -1.5971530109882074e-16 
2 30.592682443120001 -94.154595113219997 -17.0625 2.22044604925e-16 -1.6653345369380001e-16 -1 0.3090169943750401 -0.95105651629512344 2.2699828274773738e-16 -0.95105651629512344 -0.3090169943750401 -1.5971530109874452e-16 5
1 27.748484222095001 -92.829967602549999 -17.0625 -0.74314482547714722 0.66913060635913257 -2.7644393002445478e-16 
1 25.519049745663001 -90.82257578347 -15.0625 0.74314482547714722 -0.66913060635913257 2.7644393002445478e-16 
1 26.32546217038 -91.548672792060003 -15.0625 2.22044604925e-16 -1.6653345369380001e-16 -1 
1 26.748577234848 -89.457047166660004 -15.0625 0.74314482547714722 -0.66913060635913257 2.7644393002445478e-16 
1 27.554989659564001 -90.183144175240002 -15.0625 2.22044604925e-16 -1.6653345369380001e-16 -1 
1 28.978011711280001 -91.464438985729998 -17.0625 -0.74314482547714722 0.66913060635913257 -2.7644393002445478e-16 
2 30.592682443120001 -94.154595113219997 -17.0625 2.22044604925e-16 -1.6653345369380001e-16 -1 0.3090169943750401 -0.95105651629512344 2.2699828274773738e-16 -0.95105651629512344 -0.3090169943750401 -1.5971530109874452e-16 5
1 30.317744407399001 -91.029133445080006 -17.0625 0.20791169081795011 0.97814760073376517 -1.1672862892557197e-16 
1 30.715867237162001 -89.156112792900004 -15.0625 2.22044604925e-16 -1.6653345369380001e-16 -1 
1 32.115090623747001 -91.411171176950006 -17.0625 0.20791169081795011 0.97814760073376517 -1.1672862892557197e-16 
1 27.455603530651999 -94.207862921989999 -17.0625 -0.95105651629512344 -0.3090169943750401 -1.5971530109882074e-16 
1 28.023422257816001 -95.955429270690004 -17.0625 -0.95105651629512344 -0.3090169943750401 -1.5971530109882074e-16 
1 28.978011711280001 -91.464438985729998 -17.0625 -0.74314482547714722 0.66913060635913257 -2.7644393002445478e-16 
Polygon3D 0
PolygonOnTriangulations 0
Surfaces 57
1 36.694475468558998 -92.172002376910001 -10.7125 -0.97814760073376517 0.20791169081795011 -2.5181664949843955e-16 -0.20791169081795011 -0.97814760073376517 1.1672862892557197e-16 -2.2204460492493741e-16 1.6653345369382187e-16 1 
1 31.926603280843999 -87.878990976400004 -10.7125 -0.66913060635913257 -0.74314482547714722 -2.4818366750794914e-17 0.74314482547714722 -0.66913060635913257 2.7644393002445478e-16 -2.2204460492504289e-16 1.6653345369391772e-16 1 
1 30.592682443120001 -94.154595113219997 -15.0625 2.22044604925e-16 -1.6653345369380001e-16 -1 0.3090169943750401 -0.95105651629512344 2.2699828274773738e-16 -0.95105651629512344 -0.3090169943750401 -1.5971530109874452e-16 
1 30.592682443120001 -94.154595113219997 -15.0625 2.22044604925e-16 -1.6653345369380001e-16 -1 0.3090169943750401 -0.95105651629512344 2.2699828274773738e-16 -0.95105651629512344 -0.3090169943750401 -1.5971530109874452e-16 
1 30.592682443120001 -94.154595113219997 -15.0625 2.22044604925e-16 -1.6653345369380001e-16 -1 0.3090169943750401 -0.95105651629512344 2.2699828274773738e-16 -0.95105651629512344 -0.3090169943750401 -1.5971530109874452e-16 
1 30.592682443120001 -94.154595113219997 -15.0625 2.22044604925e-16 -1.6653345369380001e-16 -1 0.3090169943750401 -0.95105651629512344 2.2699828274773738e-16 -0.95105651629512344 -0.3090169943750401 -1.5971530109874452e-16 
1 30.592682443120001 -94.154595113219997 -15.0625 2.22044604925e-16 -1.6653345369380001e-16 -1 0.3090169943750401 -0.95105651629512344 2.2699828274773738e-16 -0.95105651629512344 -0.3090169943750401 -1.5971530109874452e-16 
1 35.360554630834997 -98.447606513729994 -10.7125 -0.3090169943750401 0.95105651629512344 -2.2699828274772949e-16 -0.95105651629512344 -0.3090169943750401 -1.5971530109882074e-16 -2.2204460492507006e-16 1.665334536937689e-16 1 
1 30.592682443120001 -94.154595113219997 -10.7125 2.22044604925e-16 -1.6653345369380001e-16 -1 0.3090169943750401 -0.95105651629512344 2.2699828274773738e-16 -0.95105651629512344 -0.3090169943750401 -1.5971530109874452e-16 
1 25.824810255404 -89.861583712699996 -10.7125 0.3090169943750401 -0.95105651629512344 2.2699828274772949e-16 0.95105651629512344 0.3090169943750401 1.5971530109882074e-16 -2.2204460492507006e-16 1.665334536937689e-16 1 
1 30.592682443120001 -94.154595113219997 -15.0625 2.22044604925e-16 -1.6653345369380001e-16 -1 0.3090169943750401 -0.95105651629512344 2.2699828274773738e-16 -0.95105651629512344 -0.3090169943750401 -1.5971530109874452e-16 
1 30.592682443120001 -94.154595113219997 -15.0625 2.22044604925e-16 -1.6653345369380001e-16 -1 0.3090169943750401 -0.95105651629512344 2.2699828274773738e-16 -0.95105651629512344 -0.3090169943750401 -1.5971530109874452e-16 
1 30.592682443120001 -94.154595113219997 -15.0625 2.22044604925e-16 -1.6653345369380001e-16 -1 0.3090169943750401 -0.95105651629512344 2.2699828274773738e-16 -0.95105651629512344 -0.3090169943750401 -1.5971530109874452e-16 
1 30.592682443120001 -94.154595113219997 -15.0625 2.22044604925e-16 -1.6653345369380001e-16 -1 0.3090169943750401 -0.95105651629512344 2.2699828274773738e-16 -0.95105651629512344 -0.3090169943750401 -1.5971530109874452e-16 
1 30.592682443120001 -94.154595113219997 -15.0625 2.22044604925e-16 -1.6653345369380001e-16 -1 0.3090169943750401 -0.95105651629512344 2.2699828274773738e-16 -0.95105651629512344 -0.3090169943750401 -1.5971530109874452e-16 
1 30.592682443120001 -94.154595113219997 -15.0625 2.22044604925e-16 -1.6653345369380001e-16 -1 0.3090169943750401 -0.95105651629512344 2.2699828274773738e-16 -0.95105651629512344 -0.3090169943750401 -1.5971530109874452e-16 
1 29.258761605396 -100.43019925 -10.7125 0.66913060635913257 0.74314482547714722 2.4818366750794914e-17 -0.74314482547714722 0.66913060635913257 -2.7644393002445478e-16 -2.2204460492504289e-16 1.6653345369391772e-16 1 
1 24.490889417681 -96.137187849520004 -10.7125 0.97814760073376517 -0.20791169081795011 2.5181664949843955e-16 0.20791169081795011 0.97814760073376517 -1.1672862892557197e-16 -2.2204460492493741e-16 1.6653345369382187e-16 1 
2 30.592682443120001 -94.154595113219997 -9.7125000000000004 2.22044604925e-16 -1.6653345369380001e-16 -1 0.3090169943750401 -0.95105651629512344 2.2699828274773738e-16 -0.95105651629512344 -0.3090169943750401 -1.5971530109874452e-16 3.2250000000000001
1 24.602433981767 -95.134913905120001 -15.0625 2.22044604925e-16 -1.6653345369380001e-16 -1 0.3090169943750401 -0.95105651629512344 2.2699828274773738e-16 -0.95105651629512344 -0.3090169943750401 -1.5971530109874452e-16 
2 30.592682443120001 -94.154595113219997 -15.0625 2.22044604925e-16 -1.6653345369380001e-16 -1 0.3090169943750401 -0.95105651629512344 2.2699828274773738e-16 -0.95105651629512344 -0.3090169943750401 -1.5971530109874452e-16 5
1 26.748577234848 -89.457047166660004 -15.0625 2.22044604925e-16 -1.6653345369380001e-16 -1 -0.66913060635913257 -0.74314482547714722 -2.4818366750853705e-17 -0.74314482547714722 0.66913060635913257 -2.7644393002434414e-16 
1 30.592682443120001 -94.154595113219997 -15.0625 2.22044604925e-16 -1.6653345369380001e-16 -1 0.3090169943750401 -0.95105651629512344 2.2699828274773738e-16 -0.95105651629512344 -0.3090169943750401 -1.5971530109874452e-16 
1 30.592682443120001 -94.154595113219997 -15.0625 2.22044604925e-16 -1.6653345369380001e-16 -1 0.3090169943750401 -0.95105651629512344 2.2699828274773738e-16 -0.95105651629512344 -0.3090169943750401 -1.5971530109874452e-16 
1 30.592682443120001 -94.154595113219997 -15.0625 2.22044604925e-16 -1.6653345369380001e-16 -1 0.3090169943750401 -0.95105651629512344 2.2699828274773738e-16 -0.95105651629512344 -0.3090169943750401 -1.5971530109874452e-16 
1 32.738825696200998 -88.476728374749996 -15.0625 2.22044604925e-16 -1.6653345369380001e-16 -1 -0.97814760073376517 0.20791169081795011 -2.518166494984963e-16 0.20791169081795011 0.97814760073376517 -1.1672862892553758e-16 
2 30.592682443120001 -94.154595113219997 -15.0625 2.22044604925e-16 -1.6653345369380001e-16 -1 0.3090169943750401 -0.95105651629512344 2.2699828274773738e-16 -0.95105651629512344 -0.3090169943750401 -1.5971530109874452e-16 5
1 30.592682443120001 -94.154595113219997 -15.0625 2.22044604925e-16 -1.6653345369380001e-16 -1 0.3090169943750401 -0.95105651629512344 2.2699828274773738e-16 -0.95105651629512344 -0.3090169943750401 -1.5971530109874452e-16 
1 30.592682443120001 -94.154595113219997 -15.0625 2.22044604925e-16 -1.6653345369380001e-16 -1 0.3090169943750401 -0.95105651629512344 2.2699828274773738e-16 -0.95105651629512344 -0.3090169943750401 -1.5971530109874452e-16 
1 30.592682443120001 -94.154595113219997 -15.0625 2.22044604925e-16 -1.6653345369380001e-16 -1 0.3090169943750401 -0.95105651629512344 2.2699828274773738e-16 -0.95105651629512344 -0.3090169943750401 -1.5971530109874452e-16 
2 30.592682443120001 -94.154595113219997 -15.0625 2.22044604925e-16 -1.6653345369380001e-16 -1 0.3090169943750401 -0.95105651629512344 2.2699828274773738e-16 -0.95105651629512344 -0.3090169943750401 -1.5971530109874452e-16 5
2 30.592682443120001 -94.154595113219997 -15.0625 2.22044604925e-16 -1.6653345369380001e-16 -1 0.3090169943750401 -0.95105651629512344 2.2699828274773738e-16 -0.95105651629512344 -0.3090169943750401 -1.5971530109874452e-16 5
1 32.738825696200998 -88.476728374749996 -15.0625 2.22044604925e-16 -1.6653345369380001e-16 -1 -0.97814760073376517 0.20791169081795011 -2.518166494984963e-16 0.20791169081795011 0.97814760073376517 -1.1672862892553758e-16 
1 30.592682443120001 -94.154595113219997 -15.0625 2.22044604925e-16 -1.6653345369380001e-16 -1 0.3090169943750401 -0.95105651629512344 2.2699828274773738e-16 -0.95105651629512344 -0.3090169943750401 -1.5971530109874452e-16 
1 30.592682443120001 -94.154595113219997 -17.0625 2.22044604925e-16 -1.6653345369380001e-16 -1 0.3090169943750401 -0.95105651629512344 2.2699828274773738e-16 -0.95105651629512344 -0.3090169943750401 -1.5971530109874452e-16 
1 25.519049745663001 -90.82257578347 -15.0625 -0.66913060635913257 -0.74314482547714722 -2.4818366750794914e-17 2.2204460492496066e-16 -1.6653345369384369e-16 -1 0.74314482547714722 -0.66913060635913257 2.7644393002434414e-16 
1 26.748577234848 -89.457047166660004 -15.0625 -0.66913060635913257 -0.74314482547714722 -2.4818366750794914e-17 2.2204460492496066e-16 -1.6653345369384369e-16 -1 0.74314482547714722 -0.66913060635913257 2.7644393002434414e-16 
1 30.592682443120001 -94.154595113219997 -17.0625 2.22044604925e-16 -1.6653345369380001e-16 -1 0.3090169943750401 -0.95105651629512344 2.2699828274773738e-16 -0.95105651629512344 -0.3090169943750401 -1.5971530109874452e-16 
1 25.170252708930999 -96.882480253810002 -15.0625 0.3090169943750401 -0.95105651629512344 2.2699828274772949e-16 2.2204460492499753e-16 -1.6653345369379246e-16 -1 0.95105651629512344 0.3090169943750401 1.5971530109874449e-16 
1 24.602433981767 -95.134913905120001 -15.0625 0.3090169943750401 -0.95105651629512344 2.2699828274772949e-16 2.2204460492499753e-16 -1.6653345369379246e-16 -1 0.95105651629512344 0.3090169943750401 1.5971530109874449e-16 
1 30.592682443120001 -94.154595113219997 -17.0625 2.22044604925e-16 -1.6653345369380001e-16 -1 0.3090169943750401 -0.95105651629512344 2.2699828274773738e-16 -0.95105651629512344 -0.3090169943750401 -1.5971530109874452e-16 
1 32.738825696200998 -88.476728374749996 -15.0625 -0.97814760073376517 0.20791169081795011 -2.5181664949843955e-16 2.2204460492494456e-16 -1.6653345369378827e-16 -1 -0.20791169081795011 -0.97814760073376517 1.1672862892553763e-16 
1 30.941479479851999 -88.094690642870006 -15.0625 -0.97814760073376517 0.20791169081795011 -2.5181664949843955e-16 2.2204460492494456e-16 -1.6653345369378827e-16 -1 -0.20791169081795011 -0.97814760073376517 1.1672862892553763e-16 
1 30.592682443120001 -94.154595113219997 -17.0625 2.22044604925e-16 -1.6653345369380001e-16 -1 0.3090169943750401 -0.95105651629512344 2.2699828274773738e-16 -0.95105651629512344 -0.3090169943750401 -1.5971530109874452e-16 
1 26.748577234848 -89.457047166660004 -15.0625 -0.66913060635913257 -0.74314482547714722 -2.4818366750794914e-17 2.2204460492496066e-16 -1.6653345369384369e-16 -1 0.74314482547714722 -0.66913060635913257 2.7644393002434414e-16 
1 26.748577234848 -89.457047166660004 -15.0625 2.22044604925e-16 -1.6653345369380001e-16 -1 -0.66913060635913257 -0.74314482547714722 -2.4818366750853705e-17 -0.74314482547714722 0.66913060635913257 -2.7644393002434414e-16 
1 25.519049745663001 -90.82257578347 -15.0625 -0.66913060635913257 -0.74314482547714722 -2.4818366750794914e-17 2.2204460492496066e-16 -1.6653345369384369e-16 -1 0.74314482547714722 -0.66913060635913257 2.7644393002434414e-16 
1 30.592682443120001 -94.154595113219997 -17.0625 2.22044604925e-16 -1.6653345369380001e-16 -1 0.3090169943750401 -0.95105651629512344 2.2699828274773738e-16 -0.95105651629512344 -0.3090169943750401 -1.5971530109874452e-16 
1 24.602433981767 -95.134913905120001 -15.0625 0.3090169943750401 -0.95105651629512344 2.2699828274772949e-16 2.2204460492499753e-16 -1.6653345369379246e-16 -1 0.95105651629512344 0.3090169943750401 1.5971530109874449e-16 
1 24.602433981767 -95.134913905120001 -15.0625 2.22044604925e-16 -1.6653345369380001e-16 -1 0.3090169943750401 -0.95105651629512344 2.2699828274773738e-16 -0.95105651629512344 -0.3090169943750401 -1.5971530109874452e-16 
1 25.170252708930999 -96.882480253810002 -15.0625 0.3090169943750401 -0.95105651629512344 2.2699828274772949e-16 2.2204460492499753e-16 -1.6653345369379246e-16 -1 0.95105651629512344 0.3090169943750401 1.5971530109874449e-16 
1 30.592682443120001 -94.154595113219997 -17.0625 2.22044604925e-16 -1.6653345369380001e-16 -1 0.3090169943750401 -0.95105651629512344 2.2699828274773738e-16 -0.95105651629512344 -0.3090169943750401 -1.5971530109874452e-16 
1 30.941479479851999 -88.094690642870006 -15.0625 -0.97814760073376517 0.20791169081795011 -2.5181664949843955e-16 2.2204460492494456e-16 -1.6653345369378827e-16 -1 -0.20791169081795011 -0.97814760073376517 1.1672862892553763e-16 
1 32.738825696200998 -88.476728374749996 -15.0625 -0.97814760073376517 0.20791169081795011 -2.5181664949843955e-16 2.2204460492494456e-16 -1.6653345369378827e-16 -1 -0.20791169081795011 -0.97814760073376517 1.1672862892553763e-16 
2 30.592682443120001 -94.154595113219997 -15.0625 2.22044604925e-16 -1.6653345369380001e-16 -1 0.3090169943750401 -0.95105651629512344 2.2699828274773738e-16 -0.95105651629512344 -0.3090169943750401 -1.5971530109874452e-16 5
2 30.592682443120001 -94.154595113219997 -15.0625 2.22044604925e-16 -1.6653345369380001e-16 -1 0.3090169943750401 -0.95105651629512344 2.2699828274773738e-16 -0.95105651629512344 -0.3090169943750401 -1.5971530109874452e-16 5
2 30.592682443120001 -94.154595113219997 -15.0625 2.22044604925e-16 -1.6653345369380001e-16 -1 0.3090169943750401 -0.95105651629512344 2.2699828274773738e-16 -0.95105651629512344 -0.3090169943750401 -1.5971530109874452e-16 5
Triangulations 0

TShapes 349
Ve
1e-07
36.694475468559 -92.17200237691 -10.7125
0 0

0101101
*
Ve
1e-07
36.694475468559 -92.17200237691 -15.0625
0 0

0101101
*
Ed
 1e-07 1 1 0
1  1 0 0 4.35
4 C0 1 0 2 0
0

0101000
+349 0 -348 0 *
Ve
1e-07
36.521574082924 -92.98543944174 -15.0625
0 0

0101101
*
Ed
 1e-07 1 1 0
1  2 0 0 0.831609732743518
4 C0 1 0 3 0
0

0101000
+348 0 -346 0 *
Ve
1e-07
36.473905881219 -93.20970069875 -15.0625
0 0

0101101
*
Ed
 1e-07 1 1 0
1  3 0 0.831609732743518 1.06088111964013
4 C0 1 0 4 0
0

0101000
+346 0 -344 0 *
Ve
1e-07
35.581124218175 -97.40990819189 -15.0625
0 0

0101101
*
Ed
 1e-07 1 1 0
1  4 0 1.06088111964013 5.35492374673374
4 C0 1 0 5 0
0

0101000
+344 0 -342 0 *
Ve
1e-07
35.533456016469 -97.6341694489 -15.0625
0 0

0101101
*
Ed
 1e-07 1 1 0
1  5 0 5.35492374673374 5.58419513363055
4 C0 1 0 6 0
0

0101000
+342 0 -340 0 *
Ve
1e-07
35.360554630835 -98.44760651373 -15.0625
0 0

0101101
*
Ed
 1e-07 1 1 0
1  6 0 5.58419513363055 6.41580486637386
4 C0 1 0 7 0
0

0101000
+340 0 -338 0 *
Ve
1e-07
35.360554630835 -98.44760651373 -10.7125
0 0

0101101
*
Ed
 1e-07 1 1 0
1  7 0 0 4.35
4 C0 1 0 8 0
0

0101000
+336 0 -338 0 *
Ed
 1e-07 1 1 0
1  8 0 0 6.41580486637386
4 C0 1 0 9 0
0

0101000
+349 0 -336 0 *
Wi

0101100
+347 0 +345 0 +343 0 +341 0 +339 0 +337 0 -335 0 -334 0 *
Fa
0  1e-07 1 0

0111000
+333 0 *
Ve
1e-07
31.926603280844 -87.8789909764 -10.7125
0 0

0101101
*
Ve
1e-07
31.926603280844 -87.8789909764 -15.0625
0 0

0101101
*
Ed
 1e-07 1 1 0
1  9 0 0 4.35
4 C0 2 0 10 0
0

0101000
+331 0 -330 0 *
Ve
1e-07
32.544609750545 -88.43544650112 -15.0625
0 0

0101101
*
Ed
 1e-07 1 1 0
1  10 0 0 0.831609732737477
4 C0 2 0 11 0
0

0101000
+330 0 -328 0 *
Ve
1e-07
32.714991595348 -88.58885900326 -15.0625
0 0

0101101
*
Ed
 1e-07 1 1 0
1  11 0 0.831609732737477 1.06088111963809
4 C0 2 0 12 0
0

0101000
+328 0 -326 0 *
Ve
1e-07
35.906087154055 -91.46213435006 -15.0625
0 0

0101101
*
Ed
 1e-07 1 1 0
1  12 0 1.06088111963809 5.35492374673533
4 C0 2 0 13 0
0

0101000
+326 0 -324 0 *
Ve
1e-07
36.076468998857 -91.61554685219 -15.0625
0 0

0101101
*
Ed
 1e-07 1 1 0
1  13 0 5.35492374673533 5.5841951336285
4 C0 2 0 4 0
0

0101000
+324 0 -322 0 *
Ed
 1e-07 1 1 0
1  14 0 5.5841951336285 6.41580486636673
4 C0 2 0 3 0
0

0101000
+322 0 -348 0 *
Ed
 1e-07 1 1 0
1  15 0 0 6.41580486636673
4 C0 2 0 9 0
0

0101000
+331 0 -349 0 *
Wi

0101100
+329 0 +327 0 +325 0 +323 0 +321 0 +320 0 -347 0 -319 0 *
Fa
0  1e-07 2 0

0111000
+318 0 *
Ve
1e-07
34.569646775499 -98.70458805383 -15.0625
0 0

0101101
*
Ed
 1e-07 1 1 0
1  16 0 -0 0.83160973273787
4 C0 8 0 7 0
0

0101000
+338 0 -316 0 *
Ve
1e-07
34.351596728991 -98.77543680871 -15.0625
0 0

0101101
*
Ed
 1e-07 1 1 0
1  17 0 0.83160973273787 1.06088111963599
4 C0 8 0 6 0
0

0101000
+316 0 -314 0 *
Ve
1e-07
30.26771950724 -100.102368955 -15.0625
0 0

0101101
*
Ed
 1e-07 1 1 0
1  18 0 1.06088111963599 5.35492374671767
4 C0 8 0 14 0
0

0101000
+314 0 -312 0 *
Ve
1e-07
30.049669460732 -100.1732177099 -15.0625
0 0

0101101
*
Ed
 1e-07 1 1 0
1  19 0 5.35492374671767 5.58419513362196
4 C0 8 0 15 0
0

0101000
+312 0 -310 0 *
Ve
1e-07
29.258761605396 -100.43019925 -15.0625
0 0

0101101
*
Ed
 1e-07 1 1 0
1  20 0 5.58419513362196 6.41580486635984
4 C0 8 0 16 0
0

0101000
+310 0 -308 0 *
Ve
1e-07
29.258761605396 -100.43019925 -10.7125
0 0

0101101
*
Ed
 1e-07 1 1 0
1  21 0 0 4.35
4 C0 8 0 17 0
0

0101000
+306 0 -308 0 *
Ed
 1e-07 1 1 0
1  22 0 -0 6.41580486635984
4 C0 8 0 9 0
0

0101000
+336 0 -306 0 *
Wi

0101100
+335 0 +315 0 +313 0 +311 0 +309 0 +307 0 -305 0 -304 0 *
Fa
0  1e-07 8 0

0111000
+303 0 *
Ve
1e-07
24.490889417681 -96.13718784952 -10.7125
0 0

0101101
*
Ed
 1e-07 1 1 0
1  23 0 0 6.41580486634666
4 C0 9 0 17 0
0

0101000
+306 0 -301 0 *
Ve
1e-07
25.824810255404 -89.8615837127 -10.7125
0 0

0101101
*
Ed
 1e-07 1 1 0
1  24 0 0 6.41580486637367
4 C0 9 0 18 0
0

0101000
+301 0 -299 0 *
Ed
 1e-07 1 1 0
1  25 0 0 6.41580486637006
4 C0 9 0 10 0
0

0101000
+299 0 -331 0 *
Wi

0101100
+334 0 +304 0 +300 0 +298 0 +297 0 +319 0 *
Ve
1e-07
31.589262249979 -97.22175237827 -10.7125
0 0

0101101
*
Ed
 1e-07 1 1 0
1  26 0 0 6.28318530717959
2  1 19 0 0 6.28318530717959
4 C0 9 0 19 0
0

0101100
+295 0 -295 0 *
Wi

0101100
-294 0 *
Fa
0  1e-07 9 0

0111000
+296 0 +293 0 *
Ed
 1e-07 1 1 0
1  27 0 0.198554845411046 1.63894515458641
4 CN 3 0 4 0
0

0101000
+322 0 -346 0 *
Wi

0101100
+320 0 +345 0 -291 0 *
Fa
0  1e-07 3 0

0111000
+290 0 *
Ve
1e-07
35.550906237067 -93.50960146275 -15.0625
0 0

0101101
*
Ed
 1e-07 1 1 0
1  28 0 10.9148650477404 11.8853643065513
4 CN 4 0 5 0
0

0101000
+288 0 -344 0 *
Ve
1e-07
34.983087509903 -91.76203511406 -15.0625
0 0

0101101
*
Ed
 1e-07 1 1 0
1  29 0 4.52758892199037 4.89718903877779
4 CN 4 0 20 0
0

0101000
+286 0 -288 0 *
Ed
 1e-07 1 1 0
1  30 0 10.9148650477404 11.8853643065513
4 CN 4 0 13 0
0

0101000
+286 0 -324 0 *
Wi

0101100
+291 0 +343 0 -287 0 -285 0 +284 0 +321 0 *
Fa
0  1e-07 4 0

0111000
+283 0 *
Ve
1e-07
34.85990271586 -96.76051743437 -15.0625
0 0

0101101
*
Ed
 1e-07 1 1 0
1  31 0 4.89718903877779 5.57478647318587
2  2 21 0 4.89718903877779 5.57478647318587
4 C0 5 0 21 0
0

0101000
+288 0 -281 0 *
Ed
 1e-07 1 1 0
1  32 0 10.9148650477337 11.8853643065453
4 CN 5 0 6 0
0

0101000
+281 0 -342 0 *
Wi

0101100
-280 0 +287 0 +341 0 -279 0 *
Fa
0  1e-07 5 0

0111000
+278 0 *
Ve
1e-07
33.630375226675 -98.12604605119 -15.0625
0 0

0101101
*
Ed
 1e-07 1 1 0
1  33 0 5.57478647318587 5.94438658997502
4 C1 6 0 22 0
0

0101000
+281 0 -276 0 *
Ed
 1e-07 1 1 0
1  34 0 0.198554845411615 1.6389451545846
4 CN 6 0 7 0
0

0101000
+340 0 -316 0 *
Ed
 1e-07 1 1 0
1  35 0 10.9148650477404 11.8853643065527
4 CN 6 0 14 0
0

0101000
+276 0 -314 0 *
Wi

0101100
-275 0 +279 0 +339 0 +274 0 +313 0 -273 0 *
Fa
0  1e-07 6 0

0111000
+272 0 *
Wi

0101100
-274 0 +337 0 +315 0 *
Fa
0  1e-07 7 0

0111000
+270 0 *
Ve
1e-07
25.824810255404 -89.8615837127 -15.0625
0 0

0101101
*
Ed
 1e-07 1 1 0
1  36 0 0 4.35
4 C0 10 0 18 0
0

0101000
+299 0 -268 0 *
Ve
1e-07
26.615718110741 -89.6046021726 -15.0625
0 0

0101101
*
Ed
 1e-07 1 1 0
1  37 0 0 0.831609732738826
4 C0 10 0 23 0
0

0101000
+268 0 -266 0 *
Ve
1e-07
26.833768157249 -89.53375341772 -15.0625
0 0

0101101
*
Ed
 1e-07 1 1 0
1  38 0 0.831609732738826 1.06088111963694
4 C0 10 0 24 0
0

0101000
+266 0 -264 0 *
Ve
1e-07
30.917645378999 -88.20682127138 -15.0625
0 0

0101101
*
Ed
 1e-07 1 1 0
1  39 0 1.06088111963694 5.35492374673312
4 C0 10 0 25 0
0

0101000
+264 0 -262 0 *
Ve
1e-07
31.135695425507 -88.1359725165 -15.0625
0 0

0101101
*
Ed
 1e-07 1 1 0
1  40 0 5.35492374673312 5.58419513363123
4 C0 10 0 12 0
0

0101000
+262 0 -260 0 *
Ed
 1e-07 1 1 0
1  41 0 5.58419513363123 6.41580486637006
4 C0 10 0 11 0
0

0101000
+260 0 -330 0 *
Wi

0101100
+267 0 +265 0 +263 0 +261 0 +259 0 +258 0 -329 0 -297 0 *
Fa
0  1e-07 10 0

0111000
+257 0 *
Ed
 1e-07 1 1 0
1  42 0 0.198554845414199 1.63894515458788
4 CN 11 0 12 0
0

0101000
+328 0 -260 0 *
Wi

0101100
+255 0 +258 0 +327 0 *
Fa
0  1e-07 11 0

0111000
+254 0 *
Ve
1e-07
30.715867237162 -89.1561127929 -15.0625
0 0

0101101
*
Ed
 1e-07 1 1 0
1  43 0 0.114635693453286 1.08513495226442
4 CN 12 0 25 0
0

0101000
+262 0 -252 0 *
Ve
1e-07
32.513213453511 -89.53815052478 -15.0625
0 0

0101101
*
Ed
 1e-07 1 1 0
1  44 0 0.114635693453299 1.08513495226442
4 CN 12 0 13 0
0

0101000
+326 0 -250 0 *
Ed
 1e-07 1 1 0
1  45 0 3.48039137079407 3.84999148758208
4 C1 12 0 26 0
0

0101000
+252 0 -250 0 *
Wi

0101100
-251 0 +259 0 -255 0 +325 0 +249 0 -248 0 *
Fa
0  1e-07 12 0

0111000
+247 0 *
Ed
 1e-07 1 1 0
1  46 0 3.84999148758208 4.52758892199037
2  3 27 0 3.84999148758208 4.52758892199037
4 C0 13 0 27 0
0

0101000
+250 0 -286 0 *
Wi

0101100
-245 0 -249 0 +323 0 -284 0 *
Fa
0  1e-07 13 0

0111000
+244 0 *
Ve
1e-07
28.640755135694 -99.87374372531 -15.0625
0 0

0101101
*
Ed
 1e-07 1 1 0
1  47 0 0 0.831609732718145
4 C0 17 0 16 0
0

0101000
+308 0 -242 0 *
Ve
1e-07
28.470373290892 -99.72033122317 -15.0625
0 0

0101101
*
Ed
 1e-07 1 1 0
1  48 0 0.831609732718145 1.06088111961801
4 C0 17 0 15 0
0

0101000
+242 0 -240 0 *
Ve
1e-07
25.279277732185 -96.84705587637 -15.0625
0 0

0101101
*
Ed
 1e-07 1 1 0
1  49 0 1.06088111961801 5.35492374671526
4 C0 17 0 28 0
0

0101000
+240 0 -238 0 *
Ve
1e-07
25.108895887383 -96.69364337424 -15.0625
0 0

0101101
*
Ed
 1e-07 1 1 0
1  50 0 5.35492374671526 5.58419513360844
4 C0 17 0 29 0
0

0101000
+238 0 -236 0 *
Ve
1e-07
24.490889417681 -96.13718784952 -15.0625
0 0

0101101
*
Ed
 1e-07 1 1 0
1  51 0 5.58419513360844 6.41580486634666
4 C0 17 0 30 0
0

0101000
+236 0 -234 0 *
Ed
 1e-07 1 1 0
1  52 0 0 4.35
4 C0 17 0 18 0
0

0101000
+301 0 -234 0 *
Wi

0101100
+305 0 +241 0 +239 0 +237 0 +235 0 +233 0 -232 0 -300 0 *
Fa
0  1e-07 17 0

0111000
+231 0 *
Ve
1e-07
32.137767414995 -98.90987769469 -15.0625
0 0

0101101
*
Ed
 1e-07 1 1 0
1  53 0 5.94438658997502 6.28318530717959
2  4 31 0 5.94438658997502 6.28318530717959
4 C0 14 0 31 0
0

0101000
+276 0 -229 0 *
Ve
1e-07
30.469497649077 -99.15307743353 -15.0625
0 0

0101101
*
Ed
 1e-07 1 1 0
1  54 0 10.91486504774 11.8853643065022
4 CN 14 0 15 0
0

0101000
+227 0 -312 0 *
Ed
 1e-07 1 1 0
1  55 0 0 0.338798717204525
2  5 32 0 0 0.338798717204525
4 C0 14 0 32 0
0

0101000
+229 0 -227 0 *
Wi

0101100
-228 0 +273 0 +311 0 -226 0 -225 0 *
Fa
0  1e-07 14 0

0111000
+224 0 *
Ve
1e-07
28.672151432729 -98.77103970165 -15.0625
0 0

0101101
*
Ed
 1e-07 1 1 0
1  56 0 0.338798717204525 0.708398833993058
4 C1 15 0 33 0
0

0101000
+227 0 -222 0 *
Ed
 1e-07 1 1 0
1  57 0 0.198554845406986 1.63894515457443
4 CN 15 0 16 0
0

0101000
+310 0 -242 0 *
Ed
 1e-07 1 1 0
1  58 0 10.9148650477398 11.8853643065509
4 CN 15 0 28 0
0

0101000
+222 0 -240 0 *
Wi

0101100
-221 0 +226 0 +309 0 +220 0 +239 0 -219 0 *
Fa
0  1e-07 15 0

0111000
+218 0 *
Wi

0101100
-220 0 +307 0 +241 0 *
Fa
0  1e-07 16 0

0111000
+216 0 *
Ve
1e-07
24.663790803315 -95.32375078469 -15.0625
0 0

0101101
*
Ed
 1e-07 1 1 0
1  59 0 0 0.83160973274331
4 C0 18 0 30 0
0

0101000
+234 0 -214 0 *
Ve
1e-07
24.711459005021 -95.09948952768 -15.0625
0 0

0101101
*
Ed
 1e-07 1 1 0
1  60 0 0.83160973274331 1.06088111964012
4 C0 18 0 29 0
0

0101000
+214 0 -212 0 *
Ve
1e-07
25.604240668064 -90.89928203454 -15.0625
0 0

0101101
*
Ed
 1e-07 1 1 0
1  61 0 1.06088111964012 5.35492374673354
4 C0 18 0 34 0
0

0101000
+212 0 -210 0 *
Ve
1e-07
25.65190886977 -90.67502077753 -15.0625
0 0

0101101
*
Ed
 1e-07 1 1 0
1  62 0 5.35492374673354 5.58419513363036
4 C0 18 0 24 0
0

0101000
+210 0 -208 0 *
Ed
 1e-07 1 1 0
1  63 0 5.58419513363036 6.41580486637367
4 C0 18 0 23 0
0

0101000
+208 0 -268 0 *
Wi

0101100
+232 0 +213 0 +211 0 +209 0 +207 0 +206 0 -267 0 -298 0 *
Fa
0  1e-07 18 0

0111000
+205 0 *
Ve
1e-07
31.589262249979 -97.22175237827 -17.0625
0 0

0101101
*
Ed
 1e-07 1 1 0
1  64 0 1 7.35
3  6 7CN 19 0 1 7.35
0

0101000
+295 0 -203 0 *
Ve
1e-07
32.275248904071 -96.90588482978 -17.0625
0 0

0101101
*
Ed
 1e-07 1 1 0
1  65 0 6.04847165184041 6.28318530717959
2  8 19 0 6.04847165184041 6.28318530717959
4 C0 19 0 35 0
0

0101000
+201 0 -203 0 *
Ve
1e-07
32.275248904071 -96.90588482978 -15.0625
0 0

0101101
*
Ed
 1e-07 1 1 0
1  66 0 5.35 7.35
2  9 19 0 5.35 7.35
4 C0 19 0 36 0
0

0101000
+199 0 -201 0 *
Ve
1e-07
33.504776393255 -95.54035621297 -15.0625
0 0

0101101
*
Ed
 1e-07 1 1 0
1  67 0 5.47070141132107 6.04847165184041
2  10 19 0 5.47070141132107 6.04847165184041
4 C0 19 0 22 0
0

0101000
+197 0 -199 0 *
Ve
1e-07
33.504776393255 -95.54035621297 -17.0625
0 0

0101101
*
Ed
 1e-07 1 1 0
1  68 0 5.35 7.35
2  11 19 0 5.35 7.35
4 C0 19 0 37 0
0

0101000
+197 0 -195 0 *
Ve
1e-07
33.816652461312 -94.07309467276 -17.0625
0 0

0101101
*
Ed
 1e-07 1 1 0
1  69 0 5.00127410064361 5.47070141132107
2  12 19 0 5.00127410064361 5.47070141132107
4 C0 19 0 38 0
0

0101000
+193 0 -195 0 *
Ve
1e-07
33.816652461312 -94.07309467276 -15.0625
0 0

0101101
*
Ed
 1e-07 1 1 0
1  70 0 5.35 7.35
2  13 19 0 5.35 7.35
4 C0 19 0 39 0
0

0101000
+191 0 -193 0 *
Ve
1e-07
33.248833734149 -92.32552832407 -15.0625
0 0

0101101
*
Ed
 1e-07 1 1 0
1  71 0 4.42350386012449 5.00127410064361
2  14 19 0 4.42350386012449 5.00127410064361
4 C0 19 0 20 0
0

0101000
+189 0 -191 0 *
Ve
1e-07
33.248833734149 -92.32552832407 -17.0625
0 0

0101101
*
Ed
 1e-07 1 1 0
1  72 0 5.35 7.35
2  15 19 0 5.35 7.35
4 C0 19 0 40 0
0

0101000
+189 0 -187 0 *
Ve
1e-07
32.134086000361 -91.32180495619 -17.0625
0 0

0101101
*
Ed
 1e-07 1 1 0
1  73 0 3.95407654944688 4.42350386012449
2  16 19 0 3.95407654944688 4.42350386012449
4 C0 19 0 41 0
0

0101000
+185 0 -187 0 *
Ve
1e-07
32.134086000361 -91.32180495619 -15.0625
0 0

0101101
*
Ed
 1e-07 1 1 0
1  74 0 5.35 7.35
2  17 19 0 5.35 7.35
4 C0 19 0 42 0
0

0101000
+183 0 -185 0 *
Ve
1e-07
30.336739784013 -90.93976722432 -15.0625
0 0

0101101
*
Ed
 1e-07 1 1 0
1  75 0 3.37630630892813 3.95407654944688
2  18 19 0 3.37630630892813 3.95407654944688
4 C0 19 0 26 0
0

0101000
+181 0 -183 0 *
Ve
1e-07
30.336739784013 -90.93976722432 -17.0625
0 0

0101101
*
Ed
 1e-07 1 1 0
1  76 0 5.35 7.35
2  19 19 0 5.35 7.35
4 C0 19 0 43 0
0

0101000
+181 0 -179 0 *
Ve
1e-07
28.910115982169 -91.40330539665 -17.0625
0 0

0101101
*
Ed
 1e-07 1 1 0
1  77 0 2.90687899825223 3.37630630892813
2  20 19 0 2.90687899825223 3.37630630892813
4 C0 19 0 44 0
0

0101000
+177 0 -179 0 *
Ve
1e-07
28.910115982169 -91.40330539665 -15.0625
0 0

0101101
*
Ed
 1e-07 1 1 0
1  78 0 5.35 7.35
2  21 19 0 5.35 7.35
4 C0 19 0 45 0
0

0101000
+175 0 -177 0 *
Ve
1e-07
27.680588492984 -92.76883401346 -15.0625
0 0

0101101
*
Ed
 1e-07 1 1 0
1  79 0 2.32910875773394 2.90687899825223
2  22 19 0 2.32910875773394 2.90687899825223
4 C0 19 0 46 0
0

0101000
+173 0 -175 0 *
Ve
1e-07
27.680588492984 -92.76883401346 -17.0625
0 0

0101101
*
Ed
 1e-07 1 1 0
1  80 0 5.35 7.35
2  23 19 0 5.35 7.35
4 C0 19 0 47 0
0

0101000
+173 0 -171 0 *
Ve
1e-07
27.368712424927 -94.23609555367 -17.0625
0 0

0101101
*
Ed
 1e-07 1 1 0
1  81 0 1.85968144705693 2.32910875773394
2  24 19 0 1.85968144705693 2.32910875773394
4 C0 19 0 48 0
0

0101000
+169 0 -171 0 *
Ve
1e-07
27.368712424927 -94.23609555367 -15.0625
0 0

0101101
*
Ed
 1e-07 1 1 0
1  82 0 5.35 7.35
2  25 19 0 5.35 7.35
4 C0 19 0 49 0
0

0101000
+167 0 -169 0 *
Ve
1e-07
27.936531152091 -95.98366190236 -15.0625
0 0

0101101
*
Ed
 1e-07 1 1 0
1  83 0 1.28191120653725 1.85968144705693
2  26 19 0 1.28191120653725 1.85968144705693
4 C0 19 0 50 0
0

0101000
+165 0 -167 0 *
Ve
1e-07
27.936531152091 -95.98366190236 -17.0625
0 0

0101101
*
Ed
 1e-07 1 1 0
1  84 0 5.35 7.35
2  27 19 0 5.35 7.35
4 C0 19 0 51 0
0

0101000
+165 0 -163 0 *
Ve
1e-07
29.051278885878 -96.98738527024 -17.0625
0 0

0101101
*
Ed
 1e-07 1 1 0
1  85 0 0.812483895858847 1.28191120653725
2  28 19 0 0.812483895858847 1.28191120653725
4 C0 19 0 52 0
0

0101000
+161 0 -163 0 *
Ve
1e-07
29.051278885878 -96.98738527024 -15.0625
0 0

0101101
*
Ed
 1e-07 1 1 0
1  86 0 5.35 7.35
2  29 19 0 5.35 7.35
4 C0 19 0 53 0
0

0101000
+159 0 -161 0 *
Ve
1e-07
30.848625102227 -97.36942300212 -15.0625
0 0

0101101
*
Ed
 1e-07 1 1 0
1  87 0 0.234713655338334 0.812483895858847
2  30 19 0 0.234713655338334 0.812483895858847
4 C0 19 0 33 0
0

0101000
+157 0 -159 0 *
Ve
1e-07
30.848625102227 -97.36942300212 -17.0625
0 0

0101101
*
Ed
 1e-07 1 1 0
1  88 0 5.35 7.35
2  31 19 0 5.35 7.35
4 C0 19 0 54 0
0

0101000
+157 0 -155 0 *
Ed
 1e-07 1 1 0
1  89 0 0 0.234713655338334
2  32 19 0 0 0.234713655338334
4 C0 19 0 35 0
0

0101000
+203 0 -155 0 *
Wi

0101100
-202 0 +294 0 +202 0 -200 0 -198 0 -196 0 +194 0 -192 0 -190 0 -188 0 
+186 0 -184 0 -182 0 -180 0 +178 0 -176 0 -174 0 -172 0 +170 0 -168 0 
-166 0 -164 0 +162 0 -160 0 -158 0 -156 0 +154 0 -153 0 *
Fa
0  1e-07 19 0

0111000
+152 0 *
Ed
 1e-07 1 1 0
1  90 0 9.09136271529209 10.9148650477404
4 C0 20 0 40 0
0

0101000
+189 0 -286 0 *
Ed
 1e-07 1 1 0
1  91 0 9.09136271529114 10.9148650477404
4 C0 20 0 39 0
0

0101000
+191 0 -288 0 *
Wi

0101100
-188 0 +150 0 +285 0 -149 0 *
Fa
0  1e-07 20 0

0111000
+148 0 *
Ve
1e-07
34.85990271586 -96.76051743437 -17.0625
0 0

0101101
*
Ed
 1e-07 1 1 0
1  92 0 0 2
2  33 21 0 0 2
4 C0 21 0 37 0
0

0101000
+281 0 -146 0 *
Ve
1e-07
35.550906237067 -93.50960146275 -17.0625
0 0

0101101
*
Ed
 1e-07 1 1 0
1  93 0 4.89718903877779 5.57478647318587
2  34 21 0 4.89718903877779 5.57478647318587
4 C0 21 0 38 0
0

0101000
+144 0 -146 0 *
Ed
 1e-07 1 1 0
1  94 0 0 2
2  35 21 0 0 2
4 C0 21 0 39 0
0

0101000
+288 0 -144 0 *
Wi

0101100
+280 0 +145 0 -143 0 -142 0 *
Fa
0  1e-07 21 0

0111000
+141 0 *
Ed
 1e-07 1 1 0
1  95 0 9.09136271529062 10.9148650477337
4 C0 22 0 37 0
0

0101000
+197 0 -281 0 *
Ed
 1e-07 1 1 0
1  96 0 9.09136271529137 10.9148650477404
4 C0 22 0 36 0
0

0101000
+199 0 -276 0 *
Wi

0101100
-196 0 +139 0 +275 0 -138 0 *
Fa
0  1e-07 22 0

0111000
+137 0 *
Ed
 1e-07 1 1 0
1  97 0 0.198554845411615 1.63894515458527
4 CN 23 0 24 0
0

0101000
+266 0 -208 0 *
Wi

0101100
+265 0 +135 0 +206 0 *
Fa
0  1e-07 23 0

0111000
+134 0 *
Ve
1e-07
27.554989659564 -90.18314417524 -15.0625
0 0

0101101
*
Ed
 1e-07 1 1 0
1  98 0 0.114635693443244 1.08513495225486
4 CN 24 0 25 0
0

0101000
+264 0 -132 0 *
Ve
1e-07
26.32546217038 -91.54867279206 -15.0625
0 0

0101101
*
Ed
 1e-07 1 1 0
1  99 0 2.43319381959778 2.80279393638628
4 C1 24 0 46 0
0

0101000
+130 0 -132 0 *
Ed
 1e-07 1 1 0
1  100 0 0.114635693449929 1.0851349522623
4 CN 24 0 34 0
0

0101000
+210 0 -130 0 *
Wi

0101100
+263 0 +131 0 -129 0 -128 0 +207 0 -135 0 *
Fa
0  1e-07 24 0

0111000
+127 0 *
Ed
 1e-07 1 1 0
1  101 0 2.80279393638628 3.48039137079407
2  36 55 0 2.80279393638628 3.48039137079407
4 C0 25 0 55 0
0

0101000
+132 0 -252 0 *
Wi

0101100
-131 0 +261 0 +251 0 -125 0 *
Fa
0  1e-07 25 0

0111000
+124 0 *
Ed
 1e-07 1 1 0
1  102 0 1.08513495226442 2.90863728470618
4 C0 26 0 42 0
0

0101000
+250 0 -183 0 *
Ed
 1e-07 1 1 0
1  103 0 1.08513495226442 2.90863728471575
4 C0 26 0 43 0
0

0101000
+252 0 -181 0 *
Wi

0101100
+248 0 +122 0 -180 0 -121 0 *
Fa
0  1e-07 26 0

0111000
+120 0 *
Ve
1e-07
32.513213453511 -89.53815052478 -17.0625
0 0

0101101
*
Ve
1e-07
34.983087509903 -91.76203511406 -17.0625
0 0

0101101
*
Ed
 1e-07 1 1 0
1  104 0 3.84999148758208 4.52758892199037
2  37 27 0 3.84999148758208 4.52758892199037
4 C0 27 0 41 0
0

0101000
+118 0 -117 0 *
Ed
 1e-07 1 1 0
1  105 0 0 2
2  38 27 0 0 2
4 C0 27 0 42 0
0

0101000
+250 0 -118 0 *
Ed
 1e-07 1 1 0
1  106 0 0 2
2  39 27 0 0 2
4 C0 27 0 40 0
0

0101000
+286 0 -117 0 *
Wi

0101100
-116 0 -115 0 +245 0 +114 0 *
Fa
0  1e-07 27 0

0111000
+113 0 *
Ve
1e-07
26.202277376337 -96.54715511237 -15.0625
0 0

0101101
*
Ed
 1e-07 1 1 0
1  107 0 0.708398833993058 1.38599626840233
2  40 56 0 0.708398833993058 1.38599626840233
4 C0 28 0 56 0
0

0101000
+222 0 -111 0 *
Ed
 1e-07 1 1 0
1  108 0 0.11463569344906 1.08513495225996
4 CN 28 0 29 0
0

0101000
+238 0 -111 0 *
Wi

0101100
-110 0 +219 0 +237 0 +109 0 *
Fa
0  1e-07 28 0

0111000
+108 0 *
Ve
1e-07
25.634458649173 -94.79958876368 -15.0625
0 0

0101101
*
Ed
 1e-07 1 1 0
1  109 0 0.114635693449057 1.08513495225995
4 CN 29 0 34 0
0

0101000
+212 0 -106 0 *
Ed
 1e-07 1 1 0
1  110 0 1.38599626840233 1.75559638518998
4 CN 29 0 50 0
0

0101000
+111 0 -106 0 *
Ed
 1e-07 1 1 0
1  111 0 0.198554845411059 1.63894515458672
4 CN 29 0 30 0
0

0101000
+214 0 -236 0 *
Wi

0101100
+105 0 -104 0 -109 0 +235 0 -103 0 +211 0 *
Fa
0  1e-07 29 0

0111000
+102 0 *
Wi

0101100
+103 0 +233 0 +213 0 *
Fa
0  1e-07 30 0

0111000
+100 0 *
Ve
1e-07
32.137767414995 -98.90987769469 -17.0625
0 0

0101101
*
Ed
 1e-07 1 1 0
1  112 0 0 2
2  41 31 0 0 2
2  42 32 0 0 2
4 CN 31 0 32 0
0

0101000
+229 0 -98 0 *
Ve
1e-07
33.630375226676 -98.12604605119 -17.0625
0 0

0101101
*
Ed
 1e-07 1 1 0
1  113 0 5.94438658997486 6.28318530717959
2  43 31 0 5.94438658997486 6.28318530717959
4 C0 31 0 35 0
0

0101000
+96 0 -98 0 *
Ed
 1e-07 1 1 0
1  114 0 -2.22458775272294e-28 2
2  44 31 0 -2.22458775272294e-28 2
4 C0 31 0 36 0
0

0101000
+276 0 -96 0 *
Wi

0101100
+228 0 +97 0 -95 0 -94 0 *
Fa
0  1e-07 31 0

0111000
+93 0 *
Ve
1e-07
30.469497649077 -99.15307743353 -17.0625
0 0

0101101
*
Ed
 1e-07 1 1 0
1  115 0 0 0.338798717204525
2  45 32 0 0 0.338798717204525
4 C0 32 0 35 0
0

0101000
+98 0 -91 0 *
Ed
 1e-07 1 1 0
1  116 0 0 2
2  46 32 0 0 2
4 C0 32 0 54 0
0

0101000
+227 0 -91 0 *
Wi

0101100
-90 0 -97 0 +225 0 +89 0 *
Fa
0  1e-07 32 0

0111000
+88 0 *
Ed
 1e-07 1 1 0
1  117 0 9.09136271529824 10.91486504774
4 C0 33 0 54 0
0

0101000
+157 0 -227 0 *
Ed
 1e-07 1 1 0
1  118 0 9.09136271529823 10.9148650477398
4 C0 33 0 53 0
0

0101000
+159 0 -222 0 *
Wi

0101100
-156 0 +86 0 +221 0 -85 0 *
Fa
0  1e-07 33 0

0111000
+84 0 *
Ed
 1e-07 1 1 0
1  119 0 1.75559638518998 2.43319381959778
2  47 57 0 1.75559638518998 2.43319381959778
4 C0 34 0 57 0
0

0101000
+106 0 -130 0 *
Wi

0101100
+128 0 -82 0 -105 0 +209 0 *
Fa
0  1e-07 34 0

0111000
+81 0 *
Ed
 1e-07 1 1 0
1  120 0 -7.91486504773897 -6.09136271528922
4 C0 35 0 36 0
0

0101000
+96 0 -201 0 *
Ed
 1e-07 1 1 0
1  121 0 -7.91486504774123 -6.09136271529947
4 C0 35 0 54 0
0

0101000
+91 0 -155 0 *
Wi

0101100
-79 0 +95 0 +90 0 +78 0 -153 0 -200 0 *
Fa
0  1e-07 35 0

0111000
+77 0 *
Wi

0101100
-86 0 +154 0 -78 0 -89 0 *
Fa
0  1e-07 54 0

0111000
+75 0 *
Ve
1e-07
28.672151432729 -98.77103970165 -17.0625
0 0

0101101
*
Ed
 1e-07 1 1 0
1  122 0 -7.91486504773144 -6.09136271528989
4 C0 53 0 52 0
0

0101000
+73 0 -161 0 *
Ed
 1e-07 1 1 0
1  123 0 0 2
2  48 56 0 0 2
4 C0 53 0 56 0
0

0101000
+222 0 -73 0 *
Wi

0101100
-85 0 +158 0 -72 0 -71 0 *
Fa
0  1e-07 53 0

0111000
+70 0 *
Ve
1e-07
26.202277376337 -96.54715511237 -17.0625
0 0

0101101
*
Ed
 1e-07 1 1 0
1  124 0 0.708398833993058 1.38599626840233
2  49 56 0 0.708398833993058 1.38599626840233
4 C0 52 0 56 0
0

0101000
+73 0 -68 0 *
Ed
 1e-07 1 1 0
1  125 0 0.0913627152898104 1.91486504773811
4 C0 52 0 51 0
0

0101000
+163 0 -68 0 *
Wi

0101100
-72 0 +67 0 -66 0 -160 0 *
Fa
0  1e-07 52 0

0111000
+65 0 *
Ed
 1e-07 1 1 0
1  126 0 1.08513495225996 2.90863728470826
4 C0 51 0 50 0
0

0101000
+111 0 -165 0 *
Ed
 1e-07 1 1 0
1  127 0 0 2
2  50 56 0 0 2
4 C0 51 0 56 0
0

0101000
+111 0 -68 0 *
Wi

0101100
-63 0 +62 0 -66 0 -162 0 *
Fa
0  1e-07 51 0

0111000
+61 0 *
Ed
 1e-07 1 1 0
1  128 0 1.08513495225995 2.90863728470826
4 C0 50 0 49 0
0

0101000
+106 0 -167 0 *
Wi

0101100
+104 0 +59 0 -164 0 -63 0 *
Fa
0  1e-07 50 0

0111000
+58 0 *
Ve
1e-07
25.634458649173 -94.79958876368 -17.0625
0 0

0101101
*
Ed
 1e-07 1 1 0
1  129 0 0 2
2  51 57 0 0 2
4 C0 49 0 57 0
0

0101000
+106 0 -56 0 *
Ed
 1e-07 1 1 0
1  130 0 0.0913627152928985 1.9148650477412
4 C0 49 0 48 0
0

0101000
+169 0 -56 0 *
Wi

0101100
-59 0 +55 0 -54 0 -166 0 *
Fa
0  1e-07 49 0

0111000
+53 0 *
Ve
1e-07
26.32546217038 -91.54867279206 -17.0625
0 0

0101101
*
Ed
 1e-07 1 1 0
1  131 0 1.75559638518998 2.43319381959778
2  52 57 0 1.75559638518998 2.43319381959778
4 C0 48 0 57 0
0

0101000
+56 0 -51 0 *
Ed
 1e-07 1 1 0
1  132 0 0.0913627152975436 1.91486504773986
4 C0 48 0 47 0
0

0101000
+171 0 -51 0 *
Wi

0101100
-168 0 +54 0 +50 0 -49 0 *
Fa
0  1e-07 48 0

0111000
+48 0 *
Ed
 1e-07 1 1 0
1  133 0 1.0851349522623 2.90863728470461
4 C0 47 0 46 0
0

0101000
+130 0 -173 0 *
Ed
 1e-07 1 1 0
1  134 0 0 2
2  53 57 0 0 2
4 C0 47 0 57 0
0

0101000
+130 0 -51 0 *
Wi

0101100
-46 0 +45 0 -49 0 -170 0 *
Fa
0  1e-07 47 0

0111000
+44 0 *
Ed
 1e-07 1 1 0
1  135 0 1.08513495225486 2.90863728470461
4 C0 46 0 45 0
0

0101000
+132 0 -175 0 *
Wi

0101100
+129 0 +42 0 -172 0 -46 0 *
Fa
0  1e-07 46 0

0111000
+41 0 *
Ve
1e-07
27.554989659564 -90.18314417524 -17.0625
0 0

0101101
*
Ed
 1e-07 1 1 0
1  136 0 0 2
2  54 55 0 0 2
4 C0 45 0 55 0
0

0101000
+132 0 -39 0 *
Ed
 1e-07 1 1 0
1  137 0 0.0913627152908494 1.9148650477406
4 C0 45 0 44 0
0

0101000
+177 0 -39 0 *
Wi

0101100
-42 0 +38 0 -37 0 -174 0 *
Fa
0  1e-07 45 0

0111000
+36 0 *
Ve
1e-07
30.715867237162 -89.1561127929 -17.0625
0 0

0101101
*
Ed
 1e-07 1 1 0
1  138 0 2.80279393638628 3.48039137079407
2  55 55 0 2.80279393638628 3.48039137079407
4 C0 44 0 55 0
0

0101000
+39 0 -34 0 *
Ed
 1e-07 1 1 0
1  139 0 0.0913627152925914 1.91486504774391
4 C0 44 0 43 0
0

0101000
+179 0 -34 0 *
Wi

0101100
-176 0 +37 0 +33 0 -32 0 *
Fa
0  1e-07 44 0

0111000
+31 0 *
Ed
 1e-07 1 1 0
1  140 0 0 2
2  56 55 0 0 2
4 C0 43 0 55 0
0

0101000
+252 0 -34 0 *
Wi

0101100
-121 0 +29 0 -32 0 -178 0 *
Fa
0  1e-07 43 0

0111000
+28 0 *
Ed
 1e-07 1 1 0
1  141 0 0.0913627152925914 1.91486504773435
4 C0 42 0 41 0
0

0101000
+185 0 -118 0 *
Wi

0101100
-122 0 +115 0 -26 0 -182 0 *
Fa
0  1e-07 42 0

0111000
+25 0 *
Ed
 1e-07 1 1 0
1  142 0 -7.91486504773923 -6.09136271529094
4 C0 41 0 40 0
0

0101000
+117 0 -187 0 *
Wi

0101100
-184 0 +26 0 +116 0 +23 0 *
Fa
0  1e-07 41 0

0111000
+22 0 *
Wi

0101100
-150 0 +186 0 -23 0 -114 0 *
Fa
0  1e-07 40 0

0111000
+20 0 *
Ed
 1e-07 1 1 0
1  143 0 -7.91486504774232 -6.09136271529307
4 C0 39 0 38 0
0

0101000
+144 0 -193 0 *
Wi

0101100
-149 0 +190 0 -18 0 -142 0 *
Fa
0  1e-07 39 0

0111000
+17 0 *
Ed
 1e-07 1 1 0
1  144 0 -7.91486504773823 -6.09136271529516
4 C0 38 0 37 0
0

0101000
+146 0 -195 0 *
Wi

0101100
-18 0 +143 0 +15 0 -192 0 *
Fa
0  1e-07 38 0

0111000
+14 0 *
Wi

0101100
-139 0 +194 0 -15 0 -145 0 *
Fa
0  1e-07 37 0

0111000
+12 0 *
Wi

0101100
-138 0 +198 0 -79 0 -94 0 *
Fa
0  1e-07 36 0

0111000
+10 0 *
Wi

0101100
-33 0 -38 0 +125 0 +29 0 *
Fa
0  1e-07 55 0

0111000
+8 0 *
Wi

0101100
-67 0 -71 0 +110 0 +62 0 *
Fa
0  1e-07 56 0

0111000
+6 0 *
Wi

0101100
-50 0 -55 0 +82 0 +45 0 *
Fa
0  1e-07 57 0

0111000
+4 0 *
Sh

0101100
-332 0 -317 0 -302 0 -292 0 +289 0 +282 0 +277 0 +271 0 +269 0 -256 0 
+253 0 +246 0 +243 0 -230 0 +223 0 +217 0 +215 0 -204 0 -151 0 +147 0 
+140 0 +136 0 +133 0 +126 0 +123 0 +119 0 +112 0 +107 0 +101 0 +99 0 
+92 0 +87 0 +83 0 +80 0 +76 0 +74 0 -69 0 +64 0 -60 0 +57 0 
+52 0 +47 0 -43 0 +40 0 +35 0 +30 0 -27 0 +24 0 +21 0 +19 0 
-16 0 +13 0 +11 0 -9 0 +7 0 +5 0 +3 0 *
So

0100000
+2 0 *

+1 0 