DBRep_DrawableShape

CASCADE Topology V1, (c) Matra-Datavision
Locations 0
Curve2ds 156
1 0 0 1 0 
1 0 14.9519 1 0 
1 6.0069586764159997 0 0 1 
1 0 44.548099999999998 1 0 
1 4.988615611148 0 0 1 
1 0 14.9519 1 0 
1 6.2831853071800001 -0 0 1 
1 0 -0 0 1 
1 0 0 1 0 
1 0 14.9519 1 0 
1 0 14.9519 1 0 
1 0 14.9519 1 0 
1 0 0 1 0 
1 0 14.9519 1 0 
1 0 14.9519 1 0 
1 0 0 1 0 
1 0 14.9519 1 0 
1 0 14.9519 1 0 
1 0 0 1 0 
1 4.9364820726860001 0 0 1 
1 0 0 1 0 
1 0 44.548099999999998 1 0 
1 0 44.548099999999998 1 0 
1 0 44.548099999999998 1 0 
1 0 44.548099999999998 1 0 
1 0 44.548099999999998 1 0 
1 0 44.548099999999998 1 0 
1 0 44.548099999999998 1 0 
1 0 44.548099999999998 1 0 
1 0 44.548099999999998 1 0 
1 0 44.548099999999998 1 0 
1 0 44.548099999999998 1 0 
1 6.0590922148780004 0 0 1 
1 0 0 1 0 
1 0 0 1 0 
1 0.276226630764 0 0 1 
1 1.294569696031 0 0 1 
1 0 0 1 0 
1 0 0 1 0 
1 1.8470229575579999 0 0 1 
1 2.8653660228260001 0 0 1 
1 0 0 1 0 
1 0 0 1 0 
1 4.4361623496210001 0 0 1 
1 3.417819284353 0 0 1 
1 0 0 1 0 
1 0 0 1 0 
1 4.7123889803849996 0 0 1 
1 4.7123889803849996 0 0 1 
1 0 43.5 1 0 
1 6.2831853071800001 -0 0 1 
1 0 -0 0 1 
1 6.2831853071800001 -0 0 1 
1 0 -0 0 1 
1 0.224093092301 0 0 1 
1 1.346703234494 0 0 1 
1 1.570796326795 0 0 1 
1 1.570796326795 0 0 1 
1 1.7948894190960001 0 0 1 
1 2.9174995612879999 0 0 1 
1 3.1415926535900001 0 0 1 
1 3.1415926535900001 0 0 1 
1 3.3656857458910001 0 0 1 
1 4.488295888083 0 0 1 
1 0 0 1 0 
1 0 2 1 0 
1 6.2831853071800001 -0 0 1 
1 0 -0 0 1 
1 0 45.5 1 0 
1 6.2831853071795862 0 0 1 
1 4.1389114358025836e-13 0 0 1 
1 0 105.5 1 0 
1 0 105.5 1 0 
1 0 105.5 1 0 
1 0 105.5 1 0 
1 0 105.5 1 0 
1 0 105.5 1 0 
1 0 105.5 1 0 
1 0 105.5 1 0 
1 0 105.5 1 0 
1 0 105.5 1 0 
1 0 105.5 1 0 
1 0 105.5 1 0 
1 0 105.5 1 0 
1 0 105.5 1 0 
1 0 105.5 1 0 
1 0 105.5 1 0 
1 0 105.5 1 0 
1 0 105.5 1 0 
1 0 105.5 1 0 
1 0 0 1 0 
1 0 0 1 0 
1 0.18341661503100001 105.5 0 1 
1 0.86378093616499996 105.5 0 1 
1 0 126.5 1 0 
1 0 0 1 0 
1 0 0 1 0 
1 1.2306141662279999 105.5 0 1 
1 1.9109784873619999 105.5 0 1 
1 0 126.5 1 0 
1 0 0 1 0 
1 0 0 1 0 
1 2.277811717424 105.5 0 1 
1 2.9581760385589999 105.5 0 1 
1 0 126.5 1 0 
1 0 0 1 0 
1 0 0 1 0 
1 4.005373589755 105.5 0 1 
1 0 126.5 1 0 
1 3.3250092686210002 105.5 0 1 
1 0 0 1 0 
1 0 0 1 0 
1 5.0525711409519998 105.5 0 1 
1 0 126.5 1 0 
1 4.3722068198180004 105.5 0 1 
1 0 0 1 0 
1 0 0 1 0 
1 6.0997686921480003 105.5 0 1 
1 0 126.5 1 0 
1 5.4194043710140001 105.5 0 1 
1 0.154047707477 0 0 1 
1 0 21 1 0 
1 0 -0 0 1 
1 6.2831853071800001 -0 0 1 
1 0 21 1 0 
1 6.1291375997030002 0 0 1 
1 0.89314984371999995 0 0 1 
1 1.201245258673 0 0 1 
1 0 21 1 0 
1 1.047197551197 0 0 1 
1 1.047197551197 0 0 1 
1 0 21 1 0 
1 1.9403473949159999 0 0 1 
1 2.2484428098699998 0 0 1 
1 0 21 1 0 
1 2.0943951023929999 0 0 1 
1 2.0943951023929999 0 0 1 
1 0 21 1 0 
1 2.9875449461130001 0 0 1 
1 3.295640361067 0 0 1 
1 0 21 1 0 
1 3.1415926535900001 0 0 1 
1 3.1415926535900001 0 0 1 
1 0 21 1 0 
1 4.0347424973099999 0 0 1 
1 4.3428379122629996 0 0 1 
1 0 21 1 0 
1 4.1887902047859997 0 0 1 
1 4.1887902047859997 0 0 1 
1 0 21 1 0 
1 5.0819400485059996 0 0 1 
1 5.3900354634600003 0 0 1 
1 0 21 1 0 
1 5.2359877559830004 0 0 1 
1 5.2359877559830004 0 0 1 
1 0 21 1 0 
Curves 197
2 0 0 -18.048100000000002 0 0 1 1 0 -0 -0 1 0 5.5
1 5.2915026221290002 -1.5 -18.048100000000002 0 0 1 
2 0 0 26.5 0 0 1 1 0 -0 -0 1 0 5.5
1 1.5 -5.2915026221290002 -18.048100000000002 0 0 1 
2 0 0 -18.048100000000002 0 0 1 1 0 -0 -0 1 0 5.5
1 5.5 -1.3471114790620001e-15 -33 0 0 1 
2 0 0 -33 0 0 1 1 0 -0 -0 1 0 5.5
2 0 0 -18.048100000000002 0 0 1 1 0 -0 -0 1 0 5.5
2 0 0 -18.048100000000002 0 0 1 1 0 -0 -0 1 0 5.5
2 0 0 -18.048100000000002 0 0 1 1 0 -0 -0 1 0 5.5
2 0 0 -18.048100000000002 0 0 1 1 0 -0 -0 1 0 5.5
2 0 0 -18.048100000000002 0 0 1 1 0 -0 -0 1 0 5.5
2 0 0 -18.048100000000002 0 0 1 1 0 -0 -0 1 0 5.5
2 0 0 -18.048100000000002 0 0 1 1 0 -0 -0 1 0 5.5
1 1.5 -5 -18.048100000000002 -2.22044604925e-16 -1 0 
1 1.5 -2.5 26.5 -2.22044604925e-16 -1 0 
1 1.5 -6.581223290544 -18.048100000000002 0 0 1 
2 0 0 26.5 0 0 1 1 0 -0 -0 1 0 7.9500000000000002
2 0 0 26.5 0 0 1 1 0 -0 -0 1 0 6.75
2 0 0 26.5 0 0 1 1 0 -0 -0 1 0 6.75
1 -1.5 -2.5 26.5 -2.22044604925e-16 -1 0 
2 0 0 26.5 0 0 1 1 0 -0 -0 1 0 5.5
1 -2.5 -1.5 26.5 -1 1.2246467991469999e-16 0 
2 0 0 26.5 0 0 1 1 0 -0 -0 1 0 6.75
2 0 0 26.5 0 0 1 1 0 -0 -0 1 0 6.75
1 -2.5 1.5 26.5 -1 1.2246467991469999e-16 0 
2 0 0 26.5 0 0 1 1 0 -0 -0 1 0 5.5
1 -1.5 2.5 26.5 1.110223024625e-16 1 0 
2 0 0 26.5 0 0 1 1 0 -0 -0 1 0 6.75
2 0 0 26.5 0 0 1 1 0 -0 -0 1 0 6.75
1 1.5 2.5 26.5 1.110223024625e-16 1 0 
2 0 0 26.5 0 0 1 1 0 -0 -0 1 0 5.5
1 2.5 1.5 26.5 1 0 0 
2 0 0 26.5 0 0 1 1 0 -0 -0 1 0 6.75
2 0 0 26.5 0 0 1 1 0 -0 -0 1 0 6.75
1 2.5 -1.5 26.5 1 0 0 
1 5 -1.5 -18.048100000000002 1 0 0 
1 6.581223290544 -1.5 -18.048100000000002 0 0 1 
2 0 0 -18.048100000000002 0 0 1 1 0 -0 -0 1 0 6.75
2 0 0 -18.048100000000002 0 0 1 1 0 -0 -0 1 0 6.75
1 5 1.5 -18.048100000000002 1 0 0 
1 5.2915026221290002 1.5 -18.048100000000002 0 0 1 
1 1.5 5.2915026221290002 -18.048100000000002 0 0 1 
1 1.5 5 -18.048100000000002 1.110223024625e-16 1 0 
2 0 0 -18.048100000000002 0 0 1 1 0 -0 -0 1 0 6.75
2 0 0 -18.048100000000002 0 0 1 1 0 -0 -0 1 0 6.75
1 -1.5 5 -18.048100000000002 1.110223024625e-16 1 0 
1 -1.5 5.2915026221290002 -18.048100000000002 0 0 1 
1 -5.2915026221290002 1.5 -18.048100000000002 0 0 1 
1 -5 1.5 -18.048100000000002 -1 1.2246467991469999e-16 0 
2 0 0 -18.048100000000002 0 0 1 1 0 -0 -0 1 0 6.75
2 0 0 -18.048100000000002 0 0 1 1 0 -0 -0 1 0 6.75
1 -5 -1.5 -18.048100000000002 -1 1.2246467991469999e-16 0 
1 -1.5 -5.2915026221290002 -18.048100000000002 0 0 1 
1 -5.2915026221290002 -1.5 -18.048100000000002 0 0 1 
1 -1.5 -5 -18.048100000000002 -2.22044604925e-16 -1 0 
2 0 0 -18.048100000000002 0 0 1 1 0 -0 -0 1 0 6.75
2 0 0 -18.048100000000002 0 0 1 1 0 -0 -0 1 0 6.75
1 -1.498801083244e-15 -6.75 -18.048100000000002 0 0 1 
2 0 0 70 0 0 1 1 0 -0 -0 1 0 7.9500000000000002
1 7.9500000000000002 -1.9471884106439999e-15 26.5 0 0 1 
1 6.75 -1.653273178849e-15 -18.048100000000002 0 0 1 
1 6.581223290544 1.5 -18.048100000000002 0 0 1 
1 1.5 6.581223290544 -18.048100000000002 0 0 1 
1 7.4940054162199999e-16 6.75 -18.048100000000002 0 0 1 
1 -1.5 6.581223290544 -18.048100000000002 0 0 1 
1 -6.581223290544 1.5 -18.048100000000002 0 0 1 
1 -6.75 8.2663658942450002e-16 -18.048100000000002 0 0 1 
1 -6.581223290544 -1.5 -18.048100000000002 0 0 1 
1 -1.5 -6.581223290544 -18.048100000000002 0 0 1 
2 0 0 70 0 0 1 1 0 -0 -0 1 0 9.5
2 0 0 72 0 0 1 1 0 -0 -0 1 0 9.5
1 9.5 -2.3268289183800002e-15 70 0 0 1 
2 0 0 72 0 0 1 1 0 -0 -0 1 0 7.9500000000000002
1 7.9500000000000002 -1.9471884106439999e-15 26.5 0 0 1 
2 0 0 132 0 0 1 1 0 -0 -0 1 0 7.9500000000000002
2 0 0 132 0 0 1 1 0 -0 -0 1 0 7.9500000000000002
2 0 0 132 0 0 1 1 0 -0 -0 1 0 7.9500000000000002
2 0 0 132 0 0 1 1 0 -0 -0 1 0 7.9500000000000002
2 0 0 132 0 0 1 1 0 -0 -0 1 0 7.9500000000000002
2 0 0 132 0 0 1 1 0 -0 -0 1 0 7.9500000000000002
2 0 0 132 0 0 1 1 0 -0 -0 1 0 7.9500000000000002
2 0 0 132 0 0 1 1 0 -0 -0 1 0 7.9500000000000002
2 0 0 132 0 0 1 1 0 -0 -0 1 0 7.9500000000000002
2 0 0 132 0 0 1 1 0 -0 -0 1 0 7.9500000000000002
2 0 0 132 0 0 1 1 0 -0 -0 1 0 7.9500000000000002
2 0 0 132 0 0 1 1 0 -0 -0 1 0 7.9500000000000002
2 0 0 132 0 0 1 1 0 -0 -0 1 0 7.9500000000000002
1 7.4500000000000002 -1.45 132 1 0 0 
2 0 0 132 0 0 1 1 0 -0 -0 1 0 9.4499999999999993
2 0 0 132 0 0 1 1 0 -0 -0 1 0 9.4499999999999993
1 7.4500000000000002 1.45 132 1 0 0 
1 7.816648898345 1.45 132 0 0 1 
1 5.1640612846599998 6.0444165184310004 132 0 0 1 
2 0 0 153 0 0 1 1 0 -0 -0 1 0 7.9500000000000002
1 4.9807368354869999 5.7268892581940003 132 0.50000000000018996 0.86602540378432902 0 
2 0 0 132 0 0 1 1 0 -0 -0 1 0 9.4499999999999993
2 0 0 132 0 0 1 1 0 -0 -0 1 0 9.4499999999999993
1 2.4692631645129999 7.1768892581939996 132 0.50000000000018996 0.86602540378432902 0 
1 2.6525876136850002 7.4944165184309997 132 0 0 1 
1 -2.6525876136850002 7.4944165184309997 132 0 0 1 
2 0 0 153 0 0 1 1 0 -0 -0 1 0 7.9500000000000002
1 -2.4692631645129999 7.1768892581939996 132 -0.50000000000018996 0.86602540378432902 0 
2 0 0 132 0 0 1 1 0 -0 -0 1 0 9.4499999999999993
2 0 0 132 0 0 1 1 0 -0 -0 1 0 9.4499999999999993
1 -4.9807368354869999 5.7268892581940003 132 -0.50000000000018996 0.86602540378432902 0 
1 -5.1640612846599998 6.0444165184310004 132 0 0 1 
1 -7.816648898345 1.45 132 0 0 1 
2 0 0 153 0 0 1 1 0 -0 -0 1 0 7.9500000000000002
1 -7.4500000000000002 1.45 132 -1 1.2246467991469999e-16 0 
2 0 0 132 0 0 1 1 0 -0 -0 1 0 9.4499999999999993
2 0 0 132 0 0 1 1 0 -0 -0 1 0 9.4499999999999993
1 -7.4500000000000002 -1.45 132 -1 1.2246467991469999e-16 0 
1 -5.1640612846599998 -6.0444165184310004 132 0 0 1 
2 0 0 153 0 0 1 1 0 -0 -0 1 0 7.9500000000000002
1 -7.816648898345 -1.45 132 0 0 1 
1 -4.9807368354869999 -5.7268892581940003 132 -0.50000000000018996 -0.86602540378432902 0 
2 0 0 132 0 0 1 1 0 -0 -0 1 0 9.4499999999999993
2 0 0 132 0 0 1 1 0 -0 -0 1 0 9.4499999999999993
1 -2.4692631645129999 -7.1768892581939996 132 -0.50000000000018996 -0.86602540378432902 0 
1 2.6525876136850002 -7.4944165184309997 132 0 0 1 
2 0 0 153 0 0 1 1 0 -0 -0 1 0 7.9500000000000002
1 -2.6525876136850002 -7.4944165184309997 132 0 0 1 
1 2.4692631645129999 -7.1768892581939996 132 0.50000000000018996 -0.86602540378432902 0 
2 0 0 132 0 0 1 1 0 -0 -0 1 0 9.4499999999999993
2 0 0 132 0 0 1 1 0 -0 -0 1 0 9.4499999999999993
1 4.9807368354869999 -5.7268892581940003 132 0.50000000000018996 -0.86602540378432902 0 
1 7.816648898345 -1.45 132 0 0 1 
2 0 0 153 0 0 1 1 0 -0 -0 1 0 7.9500000000000002
1 5.1640612846599998 -6.0444165184310004 132 0 0 1 
1 7.4500000000000002 1.45 153 1 0 0 
1 9.3380940239430004 1.45 132 0 0 1 
2 0 0 153 0 0 1 1 0 -0 -0 1 0 9.4499999999999993
1 9.4499999999999993 -2.3145824503879998e-15 132 0 0 1 
2 0 0 153 0 0 1 1 0 -0 -0 1 0 9.4499999999999993
1 9.3380940239430004 -1.45 132 0 0 1 
1 7.4500000000000002 -1.45 153 1 0 0 
1 7.4500000000000002 1.45 153 1 0 0 
1 4.9807368354869999 5.7268892581940003 153 0.50000000000018996 0.86602540378432902 0 
1 4.9807368354869999 5.7268892581940003 153 -0.86602540378432902 0.50000000000018996 0 
1 2.4692631645129999 7.1768892581939996 153 0.50000000000018996 0.86602540378432902 0 
1 -2.4692631645129999 7.1768892581939996 153 -0.50000000000018996 0.86602540378432902 0 
1 -2.4692631645129999 7.1768892581939996 153 -0.86602540378432902 -0.50000000000018996 0 
1 -4.9807368354869999 5.7268892581940003 153 -0.50000000000018996 0.86602540378432902 0 
1 -7.4500000000000002 1.45 153 -1 1.2246467991469999e-16 0 
1 -7.4500000000000002 1.45 153 -1.2246467991469999e-16 -1 0 
1 -7.4500000000000002 -1.45 153 -1 1.2246467991469999e-16 0 
1 -4.9807368354869999 -5.7268892581940003 153 -0.50000000000018996 -0.86602540378432902 0 
1 -4.9807368354869999 -5.7268892581940003 153 0.86602540378432902 -0.50000000000018996 0 
1 -2.4692631645129999 -7.1768892581939996 153 -0.50000000000018996 -0.86602540378432902 0 
1 2.4692631645129999 -7.1768892581939996 153 0.50000000000018996 -0.86602540378432902 0 
1 2.4692631645129999 -7.1768892581939996 153 0.86602540378432902 0.50000000000018996 0 
1 4.9807368354869999 -5.7268892581940003 153 0.50000000000018996 -0.86602540378432902 0 
1 7.4500000000000002 -1.45 153 1 0 0 
1 7.4500000000000002 -1.45 153 0 1 0 
1 4.9807368354869999 5.7268892581940003 153 0.50000000000018996 0.86602540378432902 0 
1 5.9247838474590004 7.3620266476619998 132 0 0 1 
1 2.4692631645129999 7.1768892581939996 153 0.50000000000018996 0.86602540378432902 0 
1 3.4133101764839999 8.8120266476619999 132 0 0 1 
2 0 0 153 0 0 1 1 0 -0 -0 1 0 9.4499999999999993
1 4.7249999999999996 8.1839400657630001 132 0 0 1 
2 0 0 153 0 0 1 1 0 -0 -0 1 0 9.4499999999999993
1 -2.4692631645129999 7.1768892581939996 153 -0.50000000000018996 0.86602540378432902 0 
1 -3.4133101764839999 8.8120266476619999 132 0 0 1 
1 -4.9807368354869999 5.7268892581940003 153 -0.50000000000018996 0.86602540378432902 0 
1 -5.9247838474590004 7.3620266476619998 132 0 0 1 
2 0 0 153 0 0 1 1 0 -0 -0 1 0 9.4499999999999993
1 -4.7249999999999996 8.1839400657630001 132 0 0 1 
2 0 0 153 0 0 1 1 0 -0 -0 1 0 9.4499999999999993
1 -7.4500000000000002 1.45 153 -1 1.2246467991469999e-16 0 
1 -9.3380940239430004 1.45 132 0 0 1 
1 -7.4500000000000002 -1.45 153 -1 1.2246467991469999e-16 0 
1 -9.3380940239430004 -1.45 132 0 0 1 
2 0 0 153 0 0 1 1 0 -0 -0 1 0 9.4499999999999993
1 -9.4499999999999993 1.1572912251939999e-15 132 0 0 1 
2 0 0 153 0 0 1 1 0 -0 -0 1 0 9.4499999999999993
1 -4.9807368354869999 -5.7268892581940003 153 -0.50000000000018996 -0.86602540378432902 0 
1 -5.9247838474590004 -7.3620266476619998 132 0 0 1 
1 -2.4692631645129999 -7.1768892581939996 153 -0.50000000000018996 -0.86602540378432902 0 
1 -3.4133101764839999 -8.8120266476619999 132 0 0 1 
2 0 0 153 0 0 1 1 0 -0 -0 1 0 9.4499999999999993
1 -4.7249999999999996 -8.1839400657630001 132 0 0 1 
2 0 0 153 0 0 1 1 0 -0 -0 1 0 9.4499999999999993
1 2.4692631645129999 -7.1768892581939996 153 0.50000000000018996 -0.86602540378432902 0 
1 3.4133101764839999 -8.8120266476619999 132 0 0 1 
1 4.9807368354869999 -5.7268892581940003 153 0.50000000000018996 -0.86602540378432902 0 
1 5.9247838474590004 -7.3620266476619998 132 0 0 1 
2 0 0 153 0 0 1 1 0 -0 -0 1 0 9.4499999999999993
1 4.7249999999999996 -8.1839400657630001 132 0 0 1 
2 0 0 153 0 0 1 1 0 -0 -0 1 0 9.4499999999999993
2 0 0 153 0 0 1 1 0 -0 -0 1 0 7.9500000000000002
2 0 0 153 0 0 1 1 0 -0 -0 1 0 7.9500000000000002
2 0 0 153 0 0 1 1 0 -0 -0 1 0 7.9500000000000002
2 0 0 153 0 0 1 1 0 -0 -0 1 0 7.9500000000000002
2 0 0 153 0 0 1 1 0 -0 -0 1 0 7.9500000000000002
2 0 0 153 0 0 1 1 0 -0 -0 1 0 7.9500000000000002
2 0 0 153 0 0 1 1 0 -0 -0 1 0 7.9500000000000002
Polygon3D 0
PolygonOnTriangulations 0
Surfaces 81
2 0 0 -18.048100000000002 0 0 1 1 0 -0 -0 1 0 5.5
2 0 0 -33 0 0 1 1 0 -0 -0 1 0 5.5
1 5 -1.5 -18.048100000000002 0 1 0 0 -0 1 1 0 -0 
1 0 0 26.5 0 0 1 1 0 -0 -0 1 0 
1 1.5 -5 -18.048100000000002 1 -2.22044604925e-16 0 0 0 1 -2.22044604925e-16 -1 0 
1 5 -1.5 -18.048100000000002 0 0 1 1 0 -0 -0 1 0 
1 0 0 -33 0 0 1 1 0 -0 -0 1 0 
1 -1.5 -5 -18.048100000000002 0 0 1 -2.22044604925e-16 -1 0 1 -2.22044604925e-16 0 
2 0 0 -18.048100000000002 0 0 1 1 0 -0 -0 1 0 5.5
1 -5 1.5 -18.048100000000002 0 0 1 -1 1.2246467991469999e-16 0 -1.2246467991469999e-16 -1 0 
2 0 0 -18.048100000000002 0 0 1 1 0 -0 -0 1 0 5.5
1 1.5 5 -18.048100000000002 0 0 1 1.110223024625e-16 1 -0 -1 1.110223024625e-16 0 
2 0 0 -18.048100000000002 0 0 1 1 0 -0 -0 1 0 5.5
2 0 0 -18.048100000000002 0 0 1 1 0 -0 -0 1 0 6.75
2 0 0 26.5 0 0 1 1 0 -0 -0 1 0 7.9500000000000002
2 0 0 -18.048100000000002 0 0 1 1 0 -0 -0 1 0 6.75
1 -1.5 -5 -18.048100000000002 1 -2.22044604925e-16 0 0 0 1 -2.22044604925e-16 -1 0 
1 -5 -1.5 -18.048100000000002 -1.2246467991469999e-16 -1 0 0 0 1 -1 1.2246467991469999e-16 0 
2 0 0 -18.048100000000002 0 0 1 1 0 -0 -0 1 0 6.75
2 0 0 -18.048100000000002 0 0 1 1 0 -0 -0 1 0 6.75
1 -5 1.5 -18.048100000000002 -1.2246467991469999e-16 -1 0 0 0 1 -1 1.2246467991469999e-16 0 
1 -1.5 5 -18.048100000000002 -1 1.110223024625e-16 0 0 0 1 1.110223024625e-16 1 -0 
2 0 0 -18.048100000000002 0 0 1 1 0 -0 -0 1 0 6.75
2 0 0 -18.048100000000002 0 0 1 1 0 -0 -0 1 0 6.75
1 1.5 5 -18.048100000000002 -1 1.110223024625e-16 0 0 0 1 1.110223024625e-16 1 -0 
1 5 1.5 -18.048100000000002 0 1 0 0 -0 1 1 0 -0 
2 0 0 -18.048100000000002 0 0 1 1 0 -0 -0 1 0 6.75
2 0 0 -18.048100000000002 0 0 1 1 0 -0 -0 1 0 6.75
1 0 0 70 0 0 1 1 0 -0 -0 1 0 
2 0 0 70 0 0 1 1 0 -0 -0 1 0 9.5
1 0 0 72 0 0 1 1 0 -0 -0 1 0 
2 0 0 26.5 0 0 1 1 0 -0 -0 1 0 7.9500000000000002
1 7.4500000000000002 -1.45 132 0 0 1 1 0 -0 -0 1 0 
2 0 0 26.5 0 0 1 1 0 -0 -0 1 0 7.9500000000000002
1 2.4692631645129999 -7.1768892581939996 132 0 0 1 0.50000000000018996 -0.86602540378432902 0 0.86602540378432902 0.50000000000018996 -0 
2 0 0 26.5 0 0 1 1 0 -0 -0 1 0 7.9500000000000002
1 -4.9807368354869999 -5.7268892581940003 132 0 0 1 -0.50000000000018996 -0.86602540378432902 0 0.86602540378432902 -0.50000000000018996 0 
2 0 0 26.5 0 0 1 1 0 -0 -0 1 0 7.9500000000000002
1 -7.4500000000000002 1.45 132 0 0 1 -1 1.2246467991469999e-16 0 -1.2246467991469999e-16 -1 0 
2 0 0 26.5 0 0 1 1 0 -0 -0 1 0 7.9500000000000002
1 -2.4692631645129999 7.1768892581939996 132 0 0 1 -0.50000000000018996 0.86602540378432902 0 -0.86602540378432902 -0.50000000000018996 0 
2 0 0 26.5 0 0 1 1 0 -0 -0 1 0 7.9500000000000002
1 4.9807368354869999 5.7268892581940003 132 0 0 1 0.50000000000018996 0.86602540378432902 -0 -0.86602540378432902 0.50000000000018996 0 
2 0 0 26.5 0 0 1 1 0 -0 -0 1 0 7.9500000000000002
1 7.4500000000000002 -1.45 132 0 1 0 0 -0 1 1 0 -0 
2 0 0 132 0 0 1 1 0 -0 -0 1 0 9.4499999999999993
2 0 0 132 0 0 1 1 0 -0 -0 1 0 9.4499999999999993
1 7.4500000000000002 1.45 132 0 1 0 0 -0 1 1 0 -0 
1 4.9807368354869999 5.7268892581940003 132 -0.86602540378432902 0.50000000000018996 0 0 0 1 0.50000000000018996 0.86602540378432902 -0 
1 0 0 153 0 0 1 1 0 -0 -0 1 0 
2 0 0 132 0 0 1 1 0 -0 -0 1 0 9.4499999999999993
2 0 0 132 0 0 1 1 0 -0 -0 1 0 9.4499999999999993
1 2.4692631645129999 7.1768892581939996 132 -0.86602540378432902 0.50000000000018996 0 0 0 1 0.50000000000018996 0.86602540378432902 -0 
1 -2.4692631645129999 7.1768892581939996 132 -0.86602540378432902 -0.50000000000018996 0 0 0 1 -0.50000000000018996 0.86602540378432902 0 
2 0 0 132 0 0 1 1 0 -0 -0 1 0 9.4499999999999993
2 0 0 132 0 0 1 1 0 -0 -0 1 0 9.4499999999999993
1 -4.9807368354869999 5.7268892581940003 132 -0.86602540378432902 -0.50000000000018996 0 0 0 1 -0.50000000000018996 0.86602540378432902 0 
1 -7.4500000000000002 1.45 132 -1.2246467991469999e-16 -1 0 0 0 1 -1 1.2246467991469999e-16 0 
2 0 0 132 0 0 1 1 0 -0 -0 1 0 9.4499999999999993
2 0 0 132 0 0 1 1 0 -0 -0 1 0 9.4499999999999993
1 -7.4500000000000002 -1.45 132 -1.2246467991469999e-16 -1 0 0 0 1 -1 1.2246467991469999e-16 0 
1 -4.9807368354869999 -5.7268892581940003 132 0.86602540378432902 -0.50000000000018996 0 0 0 1 -0.50000000000018996 -0.86602540378432902 0 
2 0 0 132 0 0 1 1 0 -0 -0 1 0 9.4499999999999993
2 0 0 132 0 0 1 1 0 -0 -0 1 0 9.4499999999999993
1 -2.4692631645129999 -7.1768892581939996 132 0.86602540378432902 -0.50000000000018996 0 0 0 1 -0.50000000000018996 -0.86602540378432902 0 
1 2.4692631645129999 -7.1768892581939996 132 0.86602540378432902 0.50000000000018996 0 0 -0 1 0.50000000000018996 -0.86602540378432902 -0 
2 0 0 132 0 0 1 1 0 -0 -0 1 0 9.4499999999999993
2 0 0 132 0 0 1 1 0 -0 -0 1 0 9.4499999999999993
1 4.9807368354869999 -5.7268892581940003 132 0.86602540378432902 0.50000000000018996 0 0 -0 1 0.50000000000018996 -0.86602540378432902 -0 
1 7.4500000000000002 -1.45 153 0 0 1 1 0 -0 -0 1 0 
1 0 0 153 0 0 1 1 0 -0 -0 1 0 
1 0 0 153 0 0 1 1 0 -0 -0 1 0 
1 0 0 153 0 0 1 1 0 -0 -0 1 0 
1 0 0 153 0 0 1 1 0 -0 -0 1 0 
1 0 0 153 0 0 1 1 0 -0 -0 1 0 
1 0 0 153 0 0 1 1 0 -0 -0 1 0 
1 4.9807368354869999 5.7268892581940003 153 0 0 1 0.50000000000018996 0.86602540378432902 -0 -0.86602540378432902 0.50000000000018996 0 
1 -2.4692631645129999 7.1768892581939996 153 0 0 1 -0.50000000000018996 0.86602540378432902 0 -0.86602540378432902 -0.50000000000018996 0 
1 -7.4500000000000002 1.45 153 0 0 1 -1 1.2246467991469999e-16 0 -1.2246467991469999e-16 -1 0 
1 -4.9807368354869999 -5.7268892581940003 153 0 0 1 -0.50000000000018996 -0.86602540378432902 0 0.86602540378432902 -0.50000000000018996 0 
1 2.4692631645129999 -7.1768892581939996 153 0 0 1 0.50000000000018996 -0.86602540378432902 0 0.86602540378432902 0.50000000000018996 -0 
Triangulations 0

TShapes 485
Ve
1e-07
1.5 -5.291502622129 -18.0481
0 0

0101101
*
Ve
1e-07
5.291502622129 -1.5 -18.0481
0 0

0101101
*
Ed
 1e-07 1 1 0
1  1 0 4.98861561114829 6.00695867641599
2  1 1 0 4.98861561114829 6.00695867641599
2  2 2 0 4.98861561114829 6.00695867641599
4 CN 1 0 2 0
0

0101000
+485 0 -484 0 *
Ve
1e-07
5.291502622129 -1.5 26.5
0 0

0101101
*
Ed
 1e-07 1 1 0
1  2 0 0 44.5481
2  3 1 0 0 44.5481
4 C0 1 0 3 0
0

0101000
+484 0 -482 0 *
Ve
1e-07
1.5 -5.291502622129 26.5
0 0

0101101
*
Ed
 1e-07 1 1 0
1  3 0 4.98861561114829 6.00695867641599
2  4 1 0 4.98861561114829 6.00695867641599
4 C0 1 0 4 0
0

0101000
+480 0 -482 0 *
Ed
 1e-07 1 1 0
1  4 0 0 44.5481
2  5 1 0 0 44.5481
4 C0 1 0 5 0
0

0101000
+485 0 -480 0 *
Wi

0101100
+483 0 +481 0 -479 0 -478 0 *
Fa
0  1e-07 1 0

0111000
+477 0 *
Ve
1e-07
5.5 -1.347111479062e-15 -18.0481
0 0

0101101
*
Ve
1e-07
5.291502622129 1.5 -18.0481
0 0

0101101
*
Ed
 1e-07 1 1 0
1  5 0 0 0.276226630763601
2  6 2 0 0 0.276226630763601
4 C0 2 0 6 0
0

0101000
+475 0 -474 0 *
Ve
1e-07
5.5 -1.347111479062e-15 -33
0 0

0101101
*
Ed
 1e-07 1 1 0
1  6 0 0 14.9519
3  7 8CN 2 0 0 14.9519
0

0101000
+472 0 -475 0 *
Ed
 1e-07 1 1 0
1  7 0 0 6.28318530717959
2  9 2 0 0 6.28318530717959
4 C0 2 0 7 0
0

0101100
+472 0 -472 0 *
Ed
 1e-07 1 1 0
1  8 0 6.00695867641599 6.28318530717959
2  10 2 0 6.00695867641599 6.28318530717959
4 C0 2 0 6 0
0

0101000
+484 0 -475 0 *
Ve
1e-07
-1.5 -5.291502622129 -18.0481
0 0

0101101
*
Ed
 1e-07 1 1 0
1  9 0 4.43616234962109 4.98861561114829
2  11 2 0 4.43616234962109 4.98861561114829
4 C0 2 0 8 0
0

0101000
+468 0 -485 0 *
Ve
1e-07
-5.291502622129 -1.5 -18.0481
0 0

0101101
*
Ed
 1e-07 1 1 0
1  10 0 3.41781928435339 4.43616234962109
2  12 2 0 3.41781928435339 4.43616234962109
2  13 9 0 3.41781928435339 4.43616234962109
4 CN 2 0 9 0
0

0101000
+466 0 -468 0 *
Ve
1e-07
-5.291502622129 1.5 -18.0481
0 0

0101101
*
Ed
 1e-07 1 1 0
1  11 0 2.86536602282619 3.41781928435339
2  14 2 0 2.86536602282619 3.41781928435339
4 C0 2 0 10 0
0

0101000
+464 0 -466 0 *
Ve
1e-07
-1.5 5.291502622129 -18.0481
0 0

0101101
*
Ed
 1e-07 1 1 0
1  12 0 1.8470229575585 2.86536602282619
2  15 2 0 1.8470229575585 2.86536602282619
2  16 11 0 1.8470229575585 2.86536602282619
4 CN 2 0 11 0
0

0101000
+462 0 -464 0 *
Ve
1e-07
1.5 5.291502622129 -18.0481
0 0

0101101
*
Ed
 1e-07 1 1 0
1  13 0 1.2945696960313 1.8470229575585
2  17 2 0 1.2945696960313 1.8470229575585
4 C0 2 0 12 0
0

0101000
+460 0 -462 0 *
Ed
 1e-07 1 1 0
1  14 0 0.276226630763601 1.2945696960313
2  18 2 0 0.276226630763601 1.2945696960313
2  19 13 0 0.276226630763601 1.2945696960313
4 CN 2 0 13 0
0

0101000
+474 0 -460 0 *
Wi

0101100
-473 0 -471 0 +470 0 +471 0 -469 0 -483 0 -467 0 -465 0 -463 0 -461 0 
-459 0 -458 0 *
Fa
0  1e-07 2 0

0111000
+457 0 *
Ve
1e-07
1.5 -6.581223290544 -18.0481
0 0

0101101
*
Ed
 1e-07 1 1 0
1  15 0 0.291502622129 1.581223290544
4 C0 5 0 8 0
0

0101000
+485 0 -455 0 *
Ve
1e-07
1.5 -6.581223290544 26.5
0 0

0101101
*
Ed
 1e-07 1 1 0
1  16 0 2.791502622129 4.081223290544
4 C0 5 0 4 0
0

0101000
+480 0 -453 0 *
Ed
 1e-07 1 1 0
1  17 0 0 44.5481
2  20 14 0 0 44.5481
4 C0 5 0 14 0
0

0101000
+455 0 -453 0 *
Wi

0101100
-454 0 +478 0 +452 0 -451 0 *
Fa
0  1e-07 5 0

0111000
+450 0 *
Ve
1e-07
7.95 -1.947188410644e-15 26.5
0 0

0101101
*
Ed
 1e-07 1 1 0
1  18 0 0 6.28318530717959
2  21 15 0 0 6.28318530717959
4 C0 4 0 15 0
0

0101100
+448 0 -448 0 *
Wi

0101100
+447 0 *
Ve
1e-07
-1.498801083244e-15 -6.75 26.5
0 0

0101101
*
Ed
 1e-07 1 1 0
1  19 0 4.71238898038469 4.93648207268606
2  22 14 0 4.71238898038469 4.93648207268606
4 C0 4 0 14 0
0

0101000
+445 0 -453 0 *
Ve
1e-07
-1.5 -6.581223290544 26.5
0 0

0101101
*
Ed
 1e-07 1 1 0
1  20 0 4.48829588808332 4.71238898038469
2  23 16 0 4.48829588808332 4.71238898038469
4 C0 4 0 16 0
0

0101000
+443 0 -445 0 *
Ve
1e-07
-1.5 -5.291502622129 26.5
0 0

0101101
*
Ed
 1e-07 1 1 0
1  21 0 2.791502622129 4.081223290544
4 C0 4 0 17 0
0

0101000
+441 0 -443 0 *
Ve
1e-07
-5.291502622129 -1.5 26.5
0 0

0101101
*
Ed
 1e-07 1 1 0
1  22 0 3.41781928435339 4.43616234962109
2  24 9 0 3.41781928435339 4.43616234962109
4 C0 4 0 9 0
0

0101000
+439 0 -441 0 *
Ve
1e-07
-6.581223290544 -1.5 26.5
0 0

0101101
*
Ed
 1e-07 1 1 0
1  23 0 2.791502622129 4.081223290544
4 C0 4 0 18 0
0

0101000
+439 0 -437 0 *
Ve
1e-07
-6.75 8.266365894245e-16 26.5
0 0

0101101
*
Ed
 1e-07 1 1 0
1  24 0 3.14159265358979 3.36568574589117
2  25 19 0 3.14159265358979 3.36568574589117
4 C0 4 0 19 0
0

0101000
+435 0 -437 0 *
Ve
1e-07
-6.581223290544 1.5 26.5
0 0

0101101
*
Ed
 1e-07 1 1 0
1  25 0 2.91749956128842 3.14159265358979
2  26 20 0 2.91749956128842 3.14159265358979
4 C0 4 0 20 0
0

0101000
+433 0 -435 0 *
Ve
1e-07
-5.291502622129 1.5 26.5
0 0

0101101
*
Ed
 1e-07 1 1 0
1  26 0 2.791502622129 4.081223290544
4 C0 4 0 21 0
0

0101000
+431 0 -433 0 *
Ve
1e-07
-1.5 5.291502622129 26.5
0 0

0101101
*
Ed
 1e-07 1 1 0
1  27 0 1.8470229575585 2.86536602282619
2  27 11 0 1.8470229575585 2.86536602282619
4 C0 4 0 11 0
0

0101000
+429 0 -431 0 *
Ve
1e-07
-1.5 6.581223290544 26.5
0 0

0101101
*
Ed
 1e-07 1 1 0
1  28 0 2.791502622129 4.081223290544
4 C0 4 0 22 0
0

0101000
+429 0 -427 0 *
Ve
1e-07
7.49400541622e-16 6.75 26.5
0 0

0101101
*
Ed
 1e-07 1 1 0
1  29 0 1.5707963267949 1.79488941909627
2  28 23 0 1.5707963267949 1.79488941909627
4 C0 4 0 23 0
0

0101000
+425 0 -427 0 *
Ve
1e-07
1.5 6.581223290544 26.5
0 0

0101101
*
Ed
 1e-07 1 1 0
1  30 0 1.34670323449352 1.5707963267949
2  29 24 0 1.34670323449352 1.5707963267949
4 C0 4 0 24 0
0

0101000
+423 0 -425 0 *
Ve
1e-07
1.5 5.291502622129 26.5
0 0

0101101
*
Ed
 1e-07 1 1 0
1  31 0 2.791502622129 4.081223290544
4 C0 4 0 25 0
0

0101000
+421 0 -423 0 *
Ve
1e-07
5.291502622129 1.5 26.5
0 0

0101101
*
Ed
 1e-07 1 1 0
1  32 0 0.276226630763601 1.2945696960313
2  30 13 0 0.276226630763601 1.2945696960313
4 C0 4 0 13 0
0

0101000
+419 0 -421 0 *
Ve
1e-07
6.581223290544 1.5 26.5
0 0

0101101
*
Ed
 1e-07 1 1 0
1  33 0 2.791502622129 4.081223290544
4 C0 4 0 26 0
0

0101000
+419 0 -417 0 *
Ve
1e-07
6.75 -1.653273178849e-15 26.5
0 0

0101101
*
Ed
 1e-07 1 1 0
1  34 0 0 0.224093092301374
2  31 27 0 0 0.224093092301374
4 C0 4 0 27 0
0

0101000
+415 0 -417 0 *
Ve
1e-07
6.581223290544 -1.5 26.5
0 0

0101101
*
Ed
 1e-07 1 1 0
1  35 0 6.05909221487821 6.28318530717959
2  32 28 0 6.05909221487821 6.28318530717959
4 C0 4 0 28 0
0

0101000
+413 0 -415 0 *
Ed
 1e-07 1 1 0
1  36 0 2.791502622129 4.081223290544
4 C0 4 0 3 0
0

0101000
+482 0 -413 0 *
Wi

0101100
-479 0 +452 0 -444 0 -442 0 -440 0 -438 0 +436 0 -434 0 -432 0 -430 0 
-428 0 +426 0 -424 0 -422 0 -420 0 -418 0 +416 0 -414 0 -412 0 -411 0 
*
Fa
0  1e-07 4 0

0111000
+446 0 +410 0 *
Ve
1e-07
6.581223290544 -1.5 -18.0481
0 0

0101101
*
Ed
 1e-07 1 1 0
1  37 0 0.291502622129 1.581223290544
4 C0 3 0 6 0
0

0101000
+484 0 -408 0 *
Ed
 1e-07 1 1 0
1  38 0 0 44.5481
2  33 28 0 0 44.5481
4 C0 3 0 28 0
0

0101000
+408 0 -413 0 *
Wi

0101100
-407 0 +481 0 +411 0 -406 0 *
Fa
0  1e-07 3 0

0111000
+405 0 *
Ve
1e-07
6.75 -1.653273178849e-15 -18.0481
0 0

0101101
*
Ed
 1e-07 1 1 0
1  39 0 6.05909221487821 6.28318530717959
2  34 28 0 6.05909221487821 6.28318530717959
4 C0 6 0 28 0
0

0101000
+408 0 -403 0 *
Ve
1e-07
6.581223290544 1.5 -18.0481
0 0

0101101
*
Ed
 1e-07 1 1 0
1  40 0 0 0.224093092301374
2  35 27 0 0 0.224093092301374
4 C0 6 0 27 0
0

0101000
+403 0 -401 0 *
Ed
 1e-07 1 1 0
1  41 0 0.291502622129 1.581223290544
4 C0 6 0 26 0
0

0101000
+474 0 -401 0 *
Wi

0101100
-469 0 +407 0 +402 0 +400 0 -399 0 -473 0 *
Fa
0  1e-07 6 0

0111000
+398 0 *
Ed
 1e-07 1 1 0
1  42 0 0 44.5481
2  36 13 0 0 44.5481
4 C0 13 0 26 0
0

0101000
+474 0 -419 0 *
Ed
 1e-07 1 1 0
1  43 0 0 44.5481
2  37 13 0 0 44.5481
4 C0 13 0 25 0
0

0101000
+460 0 -421 0 *
Wi

0101100
-418 0 -396 0 +458 0 +395 0 *
Fa
0  1e-07 13 0

0111000
+394 0 *
Ve
1e-07
1.5 6.581223290544 -18.0481
0 0

0101101
*
Ed
 1e-07 1 1 0
1  44 0 0.291502622129 1.581223290544
4 C0 12 0 25 0
0

0101000
+460 0 -392 0 *
Ve
1e-07
-2.558385259068e-13 6.75 -18.0481
0 0

0101101
*
Ed
 1e-07 1 1 0
1  45 0 1.34670323449352 1.57079632679493
2  38 24 0 1.34670323449352 1.57079632679493
4 C0 12 0 24 0
0

0101000
+392 0 -390 0 *
Ve
1e-07
-1.5 6.581223290544 -18.0481
0 0

0101101
*
Ed
 1e-07 1 1 0
1  46 0 1.57079632679493 1.79488941909627
2  39 23 0 1.57079632679493 1.79488941909627
4 C0 12 0 23 0
0

0101000
+390 0 -388 0 *
Ed
 1e-07 1 1 0
1  47 0 0.291502622129 1.581223290544
4 C0 12 0 22 0
0

0101000
+462 0 -388 0 *
Wi

0101100
-459 0 +391 0 +389 0 +387 0 -386 0 *
Fa
0  1e-07 12 0

0111000
+385 0 *
Ed
 1e-07 1 1 0
1  48 0 0 44.5481
2  40 11 0 0 44.5481
4 C0 11 0 22 0
0

0101000
+462 0 -429 0 *
Ed
 1e-07 1 1 0
1  49 0 0 44.5481
2  41 11 0 0 44.5481
4 C0 11 0 21 0
0

0101000
+464 0 -431 0 *
Wi

0101100
-428 0 -383 0 +461 0 +382 0 *
Fa
0  1e-07 11 0

0111000
+381 0 *
Ve
1e-07
-6.581223290544 1.5 -18.0481
0 0

0101101
*
Ed
 1e-07 1 1 0
1  50 0 0.291502622129 1.581223290544
4 C0 10 0 21 0
0

0101000
+464 0 -379 0 *
Ve
1e-07
-6.75 3.799498519819e-15 -18.0481
0 0

0101101
*
Ed
 1e-07 1 1 0
1  51 0 2.91749956128842 3.14159265358979
2  42 20 0 2.91749956128842 3.14159265358979
4 C0 10 0 20 0
0

0101000
+379 0 -377 0 *
Ve
1e-07
-6.581223290544 -1.5 -18.0481
0 0

0101101
*
Ed
 1e-07 1 1 0
1  52 0 3.14159265358979 3.36568574589117
2  43 19 0 3.14159265358979 3.36568574589117
4 C0 10 0 19 0
0

0101000
+377 0 -375 0 *
Ed
 1e-07 1 1 0
1  53 0 0.291502622129 1.581223290544
4 C0 10 0 18 0
0

0101000
+466 0 -375 0 *
Wi

0101100
-463 0 +378 0 +376 0 +374 0 -373 0 *
Fa
0  1e-07 10 0

0111000
+372 0 *
Ed
 1e-07 1 1 0
1  54 0 0 44.5481
2  44 9 0 0 44.5481
4 C0 9 0 17 0
0

0101000
+468 0 -441 0 *
Ed
 1e-07 1 1 0
1  55 0 0 44.5481
2  45 9 0 0 44.5481
4 C0 9 0 18 0
0

0101000
+466 0 -439 0 *
Wi

0101100
+465 0 +370 0 -438 0 -369 0 *
Fa
0  1e-07 9 0

0111000
+368 0 *
Ve
1e-07
-1.5 -6.581223290544 -18.0481
0 0

0101101
*
Ed
 1e-07 1 1 0
1  56 0 0.291502622129 1.581223290544
4 C0 8 0 17 0
0

0101000
+468 0 -366 0 *
Ve
1e-07
-2.17113467244e-13 -6.75 -18.0481
0 0

0101101
*
Ed
 1e-07 1 1 0
1  57 0 4.48829588808332 4.71238898038466
2  46 16 0 4.48829588808332 4.71238898038466
4 C0 8 0 16 0
0

0101000
+366 0 -364 0 *
Ed
 1e-07 1 1 0
1  58 0 4.71238898038466 4.93648207268606
2  47 14 0 4.71238898038466 4.93648207268606
4 C0 8 0 14 0
0

0101000
+364 0 -455 0 *
Wi

0101100
-467 0 +365 0 +363 0 +362 0 -454 0 *
Fa
0  1e-07 8 0

0111000
+361 0 *
Wi

0101100
-470 0 *
Fa
0  1e-07 7 0

0111000
-359 0 *
Ed
 1e-07 1 1 0
1  59 0 0 44.5481
2  48 14 0 0 44.5481
2  49 16 0 0 44.5481
4 CN 14 0 16 0
0

0101000
+364 0 -445 0 *
Wi

0101100
+362 0 +451 0 -444 0 -357 0 *
Fa
0  1e-07 14 0

0111000
+356 0 *
Ve
1e-07
7.95 -1.947188410644e-15 70
0 0

0101101
*
Ed
 1e-07 1 1 0
1  60 0 0 6.28318530717959
2  50 15 0 0 6.28318530717959
4 C0 15 0 29 0
0

0101100
+354 0 -354 0 *
Ed
 1e-07 1 1 0
1  61 0 0 43.5
3  51 52CN 15 0 0 43.5
0

0101000
+448 0 -354 0 *
Wi

0101100
-353 0 -352 0 +447 0 +352 0 *
Fa
0  1e-07 15 0

0111000
+351 0 *
Ed
 1e-07 1 1 0
1  62 0 0 44.5481
2  53 28 0 0 44.5481
2  54 27 0 0 44.5481
4 CN 28 0 27 0
0

0101000
+403 0 -415 0 *
Wi

0101100
+402 0 +349 0 -412 0 -406 0 *
Fa
0  1e-07 28 0

0111000
+348 0 *
Ed
 1e-07 1 1 0
1  63 0 0 44.5481
2  55 27 0 0 44.5481
4 C0 27 0 26 0
0

0101000
+401 0 -417 0 *
Wi

0101100
-414 0 -349 0 +400 0 +346 0 *
Fa
0  1e-07 27 0

0111000
+345 0 *
Wi

0101100
-399 0 +396 0 +416 0 -346 0 *
Fa
0  1e-07 26 0

0111000
+343 0 *
Ed
 1e-07 1 1 0
1  64 0 0 44.5481
2  56 24 0 0 44.5481
4 C0 25 0 24 0
0

0101000
+392 0 -423 0 *
Wi

0101100
-391 0 +395 0 +420 0 -341 0 *
Fa
0  1e-07 25 0

0111000
+340 0 *
Ed
 1e-07 1 1 0
1  65 0 0 44.5481
2  57 24 0 0 44.5481
2  58 23 0 0 44.5481
4 CN 24 0 23 0
0

0101000
+390 0 -425 0 *
Wi

0101100
-422 0 -341 0 +389 0 +338 0 *
Fa
0  1e-07 24 0

0111000
+337 0 *
Ed
 1e-07 1 1 0
1  66 0 0 44.5481
2  59 23 0 0 44.5481
4 C0 23 0 22 0
0

0101000
+388 0 -427 0 *
Wi

0101100
-424 0 -338 0 +387 0 +335 0 *
Fa
0  1e-07 23 0

0111000
+334 0 *
Wi

0101100
-386 0 +383 0 +426 0 -335 0 *
Fa
0  1e-07 22 0

0111000
+332 0 *
Ed
 1e-07 1 1 0
1  67 0 0 44.5481
2  60 20 0 0 44.5481
4 C0 21 0 20 0
0

0101000
+379 0 -433 0 *
Wi

0101100
-378 0 +382 0 +430 0 -330 0 *
Fa
0  1e-07 21 0

0111000
+329 0 *
Ed
 1e-07 1 1 0
1  68 0 0 44.5481
2  61 20 0 0 44.5481
2  62 19 0 0 44.5481
4 CN 20 0 19 0
0

0101000
+377 0 -435 0 *
Wi

0101100
-432 0 -330 0 +376 0 +327 0 *
Fa
0  1e-07 20 0

0111000
+326 0 *
Ed
 1e-07 1 1 0
1  69 0 0 44.5481
2  63 19 0 0 44.5481
4 C0 19 0 18 0
0

0101000
+375 0 -437 0 *
Wi

0101100
+374 0 +324 0 -434 0 -327 0 *
Fa
0  1e-07 19 0

0111000
+323 0 *
Wi

0101100
-373 0 +369 0 +436 0 -324 0 *
Fa
0  1e-07 18 0

0111000
+321 0 *
Ed
 1e-07 1 1 0
1  70 0 0 44.5481
2  64 16 0 0 44.5481
4 C0 17 0 16 0
0

0101000
+366 0 -443 0 *
Wi

0101100
-365 0 +370 0 +440 0 -319 0 *
Fa
0  1e-07 17 0

0111000
+318 0 *
Wi

0101100
+363 0 +357 0 -442 0 -319 0 *
Fa
0  1e-07 16 0

0111000
+316 0 *
Ve
1e-07
9.5 -2.32682891838e-15 70
0 0

0101101
*
Ed
 1e-07 1 1 0
1  71 0 0 6.28318530717959
2  65 30 0 0 6.28318530717959
4 C0 29 0 30 0
0

0101100
+314 0 -314 0 *
Wi

0101100
+313 0 *
Wi

0101100
-353 0 *
Fa
0  1e-07 29 0

0111000
+312 0 +311 0 *
Ve
1e-07
9.5 -2.32682891838e-15 72
0 0

0101101
*
Ed
 1e-07 1 1 0
1  72 0 0 6.28318530717959
2  66 30 0 0 6.28318530717959
4 C0 30 0 31 0
0

0101100
+309 0 -309 0 *
Ed
 1e-07 1 1 0
1  73 0 0 2
3  67 68CN 30 0 0 2
0

0101000
+314 0 -309 0 *
Wi

0101100
-308 0 -307 0 +313 0 +307 0 *
Fa
0  1e-07 30 0

0111000
+306 0 *
Wi

0101100
+308 0 *
Ve
1e-07
7.95 -1.947188410644e-15 72
0 0

0101101
*
Ed
 1e-07 1 1 0
1  74 0 0 6.28318530717959
2  69 32 0 0 6.28318530717959
4 C0 31 0 32 0
0

0101100
+303 0 -303 0 *
Wi

0101100
-302 0 *
Fa
0  1e-07 31 0

0111000
+304 0 +301 0 *
Ve
1e-07
7.95 -1.947188410644e-15 132
0 0

0101101
*
Ed
 1e-07 1 1 0
1  75 0 45.5 105.5
3  70 71CN 32 0 45.5 105.5
0

0101000
+303 0 -299 0 *
Ve
1e-07
7.816648898345 -1.45 132
0 0

0101101
*
Ed
 1e-07 1 1 0
1  76 0 6.09976869214844 6.28318530717959
2  72 32 0 6.09976869214844 6.28318530717959
4 C0 32 0 33 0
0

0101000
+297 0 -299 0 *
Ve
1e-07
5.16406128466 -6.044416518431 132
0 0

0101101
*
Ed
 1e-07 1 1 0
1  77 0 5.41940437101409 6.09976869214844
2  73 34 0 5.41940437101409 6.09976869214844
2  74 32 0 5.41940437101409 6.09976869214844
4 CN 32 0 34 0
0

0101000
+295 0 -297 0 *
Ve
1e-07
2.652587613685 -7.494416518431 132
0 0

0101101
*
Ed
 1e-07 1 1 0
1  78 0 5.05257114095181 5.41940437101409
2  75 32 0 5.05257114095181 5.41940437101409
4 C0 32 0 35 0
0

0101000
+293 0 -295 0 *
Ve
1e-07
-2.652587613685 -7.494416518431 132
0 0

0101101
*
Ed
 1e-07 1 1 0
1  79 0 4.37220681981757 5.05257114095181
2  76 36 0 4.37220681981757 5.05257114095181
2  77 32 0 4.37220681981757 5.05257114095181
4 CN 32 0 36 0
0

0101000
+291 0 -293 0 *
Ve
1e-07
-5.16406128466 -6.044416518431 132
0 0

0101101
*
Ed
 1e-07 1 1 0
1  80 0 4.00537358975529 4.37220681981757
2  78 32 0 4.00537358975529 4.37220681981757
4 C0 32 0 37 0
0

0101000
+289 0 -291 0 *
Ve
1e-07
-7.816648898345 -1.45 132
0 0

0101101
*
Ed
 1e-07 1 1 0
1  81 0 3.32500926862094 4.00537358975529
2  79 38 0 3.32500926862094 4.00537358975529
2  80 32 0 3.32500926862094 4.00537358975529
4 CN 32 0 38 0
0

0101000
+287 0 -289 0 *
Ve
1e-07
-7.816648898345 1.45 132
0 0

0101101
*
Ed
 1e-07 1 1 0
1  82 0 2.95817603855865 3.32500926862094
2  81 32 0 2.95817603855865 3.32500926862094
4 C0 32 0 39 0
0

0101000
+285 0 -287 0 *
Ve
1e-07
-5.16406128466 6.044416518431 132
0 0

0101101
*
Ed
 1e-07 1 1 0
1  83 0 2.2778117174243 2.95817603855865
2  82 40 0 2.2778117174243 2.95817603855865
2  83 32 0 2.2778117174243 2.95817603855865
4 CN 32 0 40 0
0

0101000
+283 0 -285 0 *
Ve
1e-07
-2.652587613685 7.494416518431 132
0 0

0101101
*
Ed
 1e-07 1 1 0
1  84 0 1.91097848736202 2.2778117174243
2  84 32 0 1.91097848736202 2.2778117174243
4 C0 32 0 41 0
0

0101000
+281 0 -283 0 *
Ve
1e-07
2.652587613685 7.494416518431 132
0 0

0101101
*
Ed
 1e-07 1 1 0
1  85 0 1.23061416622778 1.91097848736202
2  85 42 0 1.23061416622778 1.91097848736202
2  86 32 0 1.23061416622778 1.91097848736202
4 CN 32 0 42 0
0

0101000
+279 0 -281 0 *
Ve
1e-07
5.16406128466 6.044416518431 132
0 0

0101101
*
Ed
 1e-07 1 1 0
1  86 0 0.863780936165493 1.23061416622778
2  87 32 0 0.863780936165493 1.23061416622778
4 C0 32 0 43 0
0

0101000
+277 0 -279 0 *
Ve
1e-07
7.816648898345 1.45 132
0 0

0101101
*
Ed
 1e-07 1 1 0
1  87 0 0.183416615031147 0.863780936165493
2  88 44 0 0.183416615031147 0.863780936165493
2  89 32 0 0.183416615031147 0.863780936165493
4 CN 32 0 44 0
0

0101000
+275 0 -277 0 *
Ed
 1e-07 1 1 0
1  88 0 0 0.183416615031147
2  90 32 0 0 0.183416615031147
4 C0 32 0 33 0
0

0101000
+299 0 -275 0 *
Wi

0101100
+302 0 +298 0 -296 0 -294 0 -292 0 -290 0 -288 0 -286 0 -284 0 -282 0 
-280 0 -278 0 -276 0 -274 0 -273 0 -298 0 *
Fa
0  1e-07 32 0

0111000
+272 0 *
Ve
1e-07
9.338094023943 -1.45 132
0 0

0101101
*
Ed
 1e-07 1 1 0
1  89 0 0.366648898345 1.888094023943
4 C0 33 0 45 0
0

0101000
+297 0 -270 0 *
Ve
1e-07
9.45 -2.314582450388e-15 132
0 0

0101101
*
Ed
 1e-07 1 1 0
1  90 0 6.12913759970275 6.28318530717959
2  91 46 0 6.12913759970275 6.28318530717959
4 C0 33 0 46 0
0

0101000
+270 0 -268 0 *
Ve
1e-07
9.338094023943 1.45 132
0 0

0101101
*
Ed
 1e-07 1 1 0
1  91 0 0 0.154047707476839
2  92 47 0 0 0.154047707476839
4 C0 33 0 47 0
0

0101000
+268 0 -266 0 *
Ed
 1e-07 1 1 0
1  92 0 0.366648898345 1.888094023943
4 C0 33 0 48 0
0

0101000
+275 0 -266 0 *
Wi

0101100
-296 0 +269 0 +267 0 +265 0 -264 0 -273 0 *
Fa
0  1e-07 33 0

0111000
+263 0 *
Ve
1e-07
7.816648898345 1.45 153
0 0

0101101
*
Ed
 1e-07 1 1 0
1  93 0 0 21
2  93 44 0 0 21
4 C0 44 0 48 0
0

0101000
+275 0 -261 0 *
Ve
1e-07
5.16406128466 6.044416518431 153
0 0

0101101
*
Ed
 1e-07 1 1 0
1  94 0 0 21
2  94 44 0 0 21
4 C0 44 0 49 0
0

0101000
+277 0 -259 0 *
Ed
 1e-07 1 1 0
1  95 0 0.183416615031147 0.863780936165493
2  95 44 0 0.183416615031147 0.863780936165493
4 C0 44 0 50 0
0

0101000
+261 0 -259 0 *
Wi

0101100
-260 0 +274 0 +258 0 -257 0 *
Fa
0  1e-07 44 0

0111000
+256 0 *
Ve
1e-07
5.924783847459 7.362026647663 132
0 0

0101101
*
Ed
 1e-07 1 1 0
1  96 0 0.366648898345814 1.88809402394392
4 C0 43 0 49 0
0

0101000
+277 0 -254 0 *
Ve
1e-07
4.724999993275 8.183940069645 132
0 0

0101101
*
Ed
 1e-07 1 1 0
1  97 0 0.8931498437198 1.0471975520183
2  96 51 0 0.8931498437198 1.0471975520183
4 C0 43 0 51 0
0

0101000
+254 0 -252 0 *
Ve
1e-07
3.413310176484 8.812026647662 132
0 0

0101101
*
Ed
 1e-07 1 1 0
1  98 0 1.0471975520183 1.20124525867343
2  97 52 0 1.0471975520183 1.20124525867343
4 C0 43 0 52 0
0

0101000
+252 0 -250 0 *
Ed
 1e-07 1 1 0
1  99 0 0.366648898345315 1.88809402394256
4 C0 43 0 53 0
0

0101000
+279 0 -250 0 *
Wi

0101100
-276 0 +253 0 +251 0 +249 0 -248 0 *
Fa
0  1e-07 43 0

0111000
+247 0 *
Ve
1e-07
2.652587613685 7.494416518431 153
0 0

0101101
*
Ed
 1e-07 1 1 0
1  100 0 0 21
2  98 42 0 0 21
4 C0 42 0 53 0
0

0101000
+279 0 -245 0 *
Ve
1e-07
-2.652587613685 7.494416518431 153
0 0

0101101
*
Ed
 1e-07 1 1 0
1  101 0 0 21
2  99 42 0 0 21
4 C0 42 0 54 0
0

0101000
+281 0 -243 0 *
Ed
 1e-07 1 1 0
1  102 0 1.23061416622778 1.91097848736202
2  100 42 0 1.23061416622778 1.91097848736202
4 C0 42 0 50 0
0

0101000
+245 0 -243 0 *
Wi

0101100
-244 0 +278 0 +242 0 -241 0 *
Fa
0  1e-07 42 0

0111000
+240 0 *
Ve
1e-07
-3.413310176484 8.812026647662 132
0 0

0101101
*
Ed
 1e-07 1 1 0
1  103 0 0.366648898345315 1.88809402394256
4 C0 41 0 54 0
0

0101000
+281 0 -238 0 *
Ve
1.26084513830854e-07
-4.725000109191 8.183940002722 132
0 0

0101101
*
Ed
 1e-07 1 1 0
1  104 0 1.94034739491636 2.09439511573528
2  101 55 0 1.94034739491636 2.09439511573528
4 C0 41 0 55 0
0

0101000
+238 0 -236 0 *
Ve
1e-07
-5.924783847459 7.362026647663 132
0 0

0101101
*
Ed
 1e-07 1 1 0
1  105 0 2.09439511573528 2.24844280986999
2  102 56 0 2.09439511573528 2.24844280986999
4 C0 41 0 56 0
0

0101000
+236 0 -234 0 *
Ed
 1e-07 1 1 0
1  106 0 0.366648898345814 1.88809402394392
4 C0 41 0 57 0
0

0101000
+283 0 -234 0 *
Wi

0101100
-280 0 +237 0 +235 0 +233 0 -232 0 *
Fa
0  1e-07 41 0

0101000
+231 0 *
Ve
1e-07
-5.16406128466 6.044416518431 153
0 0

0101101
*
Ed
 1e-07 1 1 0
1  107 0 0 21
2  103 40 0 0 21
4 C0 40 0 57 0
0

0101000
+283 0 -229 0 *
Ve
1e-07
-7.816648898345 1.45 153
0 0

0101101
*
Ed
 1e-07 1 1 0
1  108 0 0 21
2  104 40 0 0 21
4 C0 40 0 58 0
0

0101000
+285 0 -227 0 *
Ed
 1e-07 1 1 0
1  109 0 2.2778117174243 2.95817603855865
2  105 40 0 2.2778117174243 2.95817603855865
4 C0 40 0 50 0
0

0101000
+229 0 -227 0 *
Wi

0101100
-228 0 +282 0 +226 0 -225 0 *
Fa
0  1e-07 40 0

0111000
+224 0 *
Ve
1e-07
-9.338094023943 1.45 132
0 0

0101101
*
Ed
 1e-07 1 1 0
1  110 0 0.366648898345 1.888094023943
4 C0 39 0 58 0
0

0101000
+285 0 -222 0 *
Ve
1e-07
-9.45 -3.07398813842e-15 132
0 0

0101101
*
Ed
 1e-07 1 1 0
1  111 0 2.98754494611295 3.14159265358979
2  106 59 0 2.98754494611295 3.14159265358979
4 C0 39 0 59 0
0

0101000
+222 0 -220 0 *
Ve
1e-07
-9.338094023943 -1.45 132
0 0

0101101
*
Ed
 1e-07 1 1 0
1  112 0 3.14159265358979 3.29564036106663
2  107 60 0 3.14159265358979 3.29564036106663
4 C0 39 0 60 0
0

0101000
+220 0 -218 0 *
Ed
 1e-07 1 1 0
1  113 0 0.366648898345 1.888094023943
4 C0 39 0 61 0
0

0101000
+287 0 -218 0 *
Wi

0101100
-284 0 +221 0 +219 0 +217 0 -216 0 *
Fa
0  1e-07 39 0

0111000
+215 0 *
Ve
1e-07
-5.16406128466 -6.044416518431 153
0 0

0101101
*
Ed
 1e-07 1 1 0
1  114 0 0 21
2  108 38 0 0 21
4 C0 38 0 62 0
0

0101000
+289 0 -213 0 *
Ve
1e-07
-7.816648898345 -1.45 153
0 0

0101101
*
Ed
 1e-07 1 1 0
1  115 0 3.32500926862094 4.00537358975529
2  109 38 0 3.32500926862094 4.00537358975529
4 C0 38 0 50 0
0

0101000
+211 0 -213 0 *
Ed
 1e-07 1 1 0
1  116 0 0 21
2  110 38 0 0 21
4 C0 38 0 61 0
0

0101000
+287 0 -211 0 *
Wi

0101100
+286 0 +212 0 -210 0 -209 0 *
Fa
0  1e-07 38 0

0111000
+208 0 *
Ve
1e-07
-5.924783847459 -7.362026647663 132
0 0

0101101
*
Ed
 1e-07 1 1 0
1  117 0 0.366648898345814 1.88809402394392
4 C0 37 0 62 0
0

0101000
+289 0 -206 0 *
Ve
1.26082806144987e-07
-4.725000109191 -8.183940002722 132
0 0

0101101
*
Ed
 1e-07 1 1 0
1  118 0 4.03474249730959 4.18879019144431
2  111 63 0 4.03474249730959 4.18879019144431
4 C0 37 0 63 0
0

0101000
+206 0 -204 0 *
Ve
1e-07
-3.413310176484 -8.812026647662 132
0 0

0101101
*
Ed
 1e-07 1 1 0
1  119 0 4.18879019144431 4.34283791226323
2  112 64 0 4.18879019144431 4.34283791226323
4 C0 37 0 64 0
0

0101000
+204 0 -202 0 *
Ed
 1e-07 1 1 0
1  120 0 0.366648898345315 1.88809402394256
4 C0 37 0 65 0
0

0101000
+291 0 -202 0 *
Wi

0101100
-288 0 +205 0 +203 0 +201 0 -200 0 *
Fa
0  1e-07 37 0

0111000
+199 0 *
Ve
1e-07
2.652587613685 -7.494416518431 153
0 0

0101101
*
Ed
 1e-07 1 1 0
1  121 0 0 21
2  113 36 0 0 21
4 C0 36 0 66 0
0

0101000
+293 0 -197 0 *
Ve
1e-07
-2.652587613685 -7.494416518431 153
0 0

0101101
*
Ed
 1e-07 1 1 0
1  122 0 4.37220681981757 5.05257114095181
2  114 36 0 4.37220681981757 5.05257114095181
4 C0 36 0 50 0
0

0101000
+195 0 -197 0 *
Ed
 1e-07 1 1 0
1  123 0 0 21
2  115 36 0 0 21
4 C0 36 0 65 0
0

0101000
+291 0 -195 0 *
Wi

0101100
+290 0 +196 0 -194 0 -193 0 *
Fa
0  1e-07 36 0

0111000
+192 0 *
Ve
1e-07
3.413310176484 -8.812026647662 132
0 0

0101101
*
Ed
 1e-07 1 1 0
1  124 0 0.366648898345315 1.88809402394256
4 C0 35 0 66 0
0

0101000
+293 0 -190 0 *
Ve
1.26082806144987e-07
4.725000109191 -8.183940002722 132
0 0

0101101
*
Ed
 1e-07 1 1 0
1  125 0 5.08194004850615 5.23598776932507
2  116 67 0 5.08194004850615 5.23598776932507
4 C0 35 0 67 0
0

0101000
+190 0 -188 0 *
Ve
1e-07
5.924783847459 -7.362026647663 132
0 0

0101101
*
Ed
 1e-07 1 1 0
1  126 0 5.23598776932507 5.39003546345979
2  117 68 0 5.23598776932507 5.39003546345979
4 C0 35 0 68 0
0

0101000
+188 0 -186 0 *
Ed
 1e-07 1 1 0
1  127 0 0.366648898345814 1.88809402394392
4 C0 35 0 69 0
0

0101000
+295 0 -186 0 *
Wi

0101100
-292 0 +189 0 +187 0 +185 0 -184 0 *
Fa
0  1e-07 35 0

0111000
+183 0 *
Ve
1e-07
7.816648898345 -1.45 153
0 0

0101101
*
Ed
 1e-07 1 1 0
1  128 0 0 21
2  118 34 0 0 21
4 C0 34 0 45 0
0

0101000
+297 0 -181 0 *
Ve
1e-07
5.16406128466 -6.044416518431 153
0 0

0101101
*
Ed
 1e-07 1 1 0
1  129 0 5.41940437101409 6.09976869214844
2  119 34 0 5.41940437101409 6.09976869214844
4 C0 34 0 50 0
0

0101000
+179 0 -181 0 *
Ed
 1e-07 1 1 0
1  130 0 0 21
2  120 34 0 0 21
4 C0 34 0 69 0
0

0101000
+295 0 -179 0 *
Wi

0101100
+294 0 +180 0 -178 0 -177 0 *
Fa
0  1e-07 34 0

0111000
+176 0 *
Ve
1e-07
9.338094023943 1.45 153
0 0

0101101
*
Ed
 1e-07 1 1 0
1  131 0 0.366648898345 1.888094023943
4 C0 48 0 70 0
0

0101000
+261 0 -174 0 *
Ed
 1e-07 1 1 0
1  132 0 0 21
2  121 47 0 0 21
4 C0 48 0 47 0
0

0101000
+266 0 -174 0 *
Wi

0101100
-264 0 +260 0 +173 0 -172 0 *
Fa
0  1e-07 48 0

0111000
+171 0 *
Ve
1e-07
9.45 -2.314582450388e-15 153
0 0

0101101
*
Ed
 1e-07 1 1 0
1  133 0 0 0.154047707476839
2  122 47 0 0 0.154047707476839
4 C0 47 0 70 0
0

0101000
+169 0 -174 0 *
Ed
 1e-07 1 1 0
1  134 0 0 21
2  123 47 0 0 21
2  124 46 0 0 21
4 CN 47 0 46 0
0

0101000
+268 0 -169 0 *
Wi

0101100
-168 0 -167 0 +265 0 +172 0 *
Fa
0  1e-07 47 0

0111000
+166 0 *
Ve
1e-07
9.338094023943 -1.45 153
0 0

0101101
*
Ed
 1e-07 1 1 0
1  135 0 6.12913759970275 6.28318530717959
2  125 46 0 6.12913759970275 6.28318530717959
4 C0 46 0 70 0
0

0101000
+164 0 -169 0 *
Ed
 1e-07 1 1 0
1  136 0 0 21
2  126 46 0 0 21
4 C0 46 0 45 0
0

0101000
+270 0 -164 0 *
Wi

0101100
+167 0 -163 0 -162 0 +267 0 *
Fa
0  1e-07 46 0

0111000
+161 0 *
Ed
 1e-07 1 1 0
1  137 0 0.366648898345 1.888094023943
4 C0 45 0 70 0
0

0101000
+181 0 -164 0 *
Wi

0101100
-269 0 +180 0 +159 0 -162 0 *
Fa
0  1e-07 45 0

0111000
+158 0 *
Ve
1e-07
7.45 1.45 153
0 0

0101101
*
Ed
 1e-07 1 1 0
1  138 0 0 0.366648898345
4 CN 50 0 71 0
0

0101000
+156 0 -261 0 *
Ve
1e-07
4.980736835487 5.726889258194 153
0 0

0101101
*
Ed
 1e-07 1 1 0
1  139 0 0 0.366648898345814
4 CN 50 0 72 0
0

0101000
+154 0 -259 0 *
Ve
1e-07
2.469263164513 7.176889258194 153
0 0

0101101
*
Ed
 1e-07 1 1 0
1  140 0 0 2.89999999999924
4 CN 50 0 72 0
0

0101000
+154 0 -152 0 *
Ed
 1e-07 1 1 0
1  141 0 0 0.366648898345315
4 CN 50 0 72 0
0

0101000
+152 0 -245 0 *
Ve
1e-07
-2.469263164513 7.176889258194 153
0 0

0101101
*
Ed
 1e-07 1 1 0
1  142 0 0 0.366648898345315
4 CN 50 0 73 0
0

0101000
+149 0 -243 0 *
Ve
1e-07
-4.980736835487 5.726889258194 153
0 0

0101101
*
Ed
 1e-07 1 1 0
1  143 0 0 2.89999999999924
4 CN 50 0 73 0
0

0101000
+149 0 -147 0 *
Ed
 1e-07 1 1 0
1  144 0 0 0.366648898345814
4 CN 50 0 73 0
0

0101000
+147 0 -229 0 *
Ve
1e-07
-7.45 1.45 153
0 0

0101101
*
Ed
 1e-07 1 1 0
1  145 0 0 0.366648898345
4 CN 50 0 74 0
0

0101000
+144 0 -227 0 *
Ve
1e-07
-7.45 -1.45 153
0 0

0101101
*
Ed
 1e-07 1 1 0
1  146 0 0 2.9
4 CN 50 0 74 0
0

0101000
+144 0 -142 0 *
Ed
 1e-07 1 1 0
1  147 0 0 0.366648898345
4 CN 50 0 74 0
0

0101000
+142 0 -211 0 *
Ve
1e-07
-4.980736835487 -5.726889258194 153
0 0

0101101
*
Ed
 1e-07 1 1 0
1  148 0 0 0.366648898345814
4 CN 50 0 75 0
0

0101000
+139 0 -213 0 *
Ve
1e-07
-2.469263164513 -7.176889258194 153
0 0

0101101
*
Ed
 1e-07 1 1 0
1  149 0 0 2.89999999999924
4 CN 50 0 75 0
0

0101000
+139 0 -137 0 *
Ed
 1e-07 1 1 0
1  150 0 0 0.366648898345315
4 CN 50 0 75 0
0

0101000
+137 0 -195 0 *
Ve
1e-07
2.469263164513 -7.176889258194 153
0 0

0101101
*
Ed
 1e-07 1 1 0
1  151 0 0 0.366648898345315
4 CN 50 0 76 0
0

0101000
+134 0 -197 0 *
Ve
1e-07
4.980736835487 -5.726889258194 153
0 0

0101101
*
Ed
 1e-07 1 1 0
1  152 0 0 2.89999999999924
4 CN 50 0 76 0
0

0101000
+134 0 -132 0 *
Ed
 1e-07 1 1 0
1  153 0 0 0.366648898345814
4 CN 50 0 76 0
0

0101000
+132 0 -179 0 *
Ve
1e-07
7.45 -1.45 153
0 0

0101101
*
Ed
 1e-07 1 1 0
1  154 0 0 0.366648898345
4 CN 50 0 71 0
0

0101000
+129 0 -181 0 *
Ed
 1e-07 1 1 0
1  155 0 0 2.9
4 CN 50 0 71 0
0

0101000
+129 0 -156 0 *
Wi

0101100
+155 0 +257 0 -153 0 +151 0 +150 0 +241 0 -148 0 +146 0 +145 0 +225 0 
-143 0 +141 0 +140 0 +210 0 -138 0 +136 0 +135 0 +194 0 -133 0 +131 0 
+130 0 +178 0 -128 0 +127 0 *
Fa
0  1e-07 50 0

0111000
+126 0 *
Ve
1e-07
5.924783847459 7.362026647663 153
0 0

0101101
*
Ed
 1e-07 1 1 0
1  156 0 0.366648898345814 1.88809402394392
4 C0 49 0 77 0
0

0101000
+259 0 -124 0 *
Ed
 1e-07 1 1 0
1  157 0 0 21
2  127 51 0 0 21
4 C0 49 0 51 0
0

0101000
+254 0 -124 0 *
Wi

0101100
-253 0 +258 0 +123 0 -122 0 *
Fa
0  1e-07 49 0

0111000
+121 0 *
Ve
1e-07
3.413310176484 8.812026647662 153
0 0

0101101
*
Ed
 1e-07 1 1 0
1  158 0 0.366648898345315 1.88809402394256
4 C0 53 0 77 0
0

0101000
+245 0 -119 0 *
Ed
 1e-07 1 1 0
1  159 0 0 21
2  128 52 0 0 21
4 C0 53 0 52 0
0

0101000
+250 0 -119 0 *
Wi

0101100
-248 0 +244 0 +118 0 -117 0 *
Fa
0  1e-07 53 0

0111000
+116 0 *
Ve
1e-07
4.724999993275 8.183940069645 153
0 0

0101101
*
Ed
 1e-07 1 1 0
1  160 0 1.0471975520183 1.20124525867343
2  129 52 0 1.0471975520183 1.20124525867343
4 C0 52 0 77 0
0

0101000
+114 0 -119 0 *
Ed
 1e-07 1 1 0
1  161 0 0 21
2  130 52 0 0 21
2  131 51 0 0 21
4 CN 52 0 51 0
0

0101000
+252 0 -114 0 *
Wi

0101100
-113 0 -112 0 +249 0 +117 0 *
Fa
0  1e-07 52 0

0111000
+111 0 *
Ed
 1e-07 1 1 0
1  162 0 0.8931498437198 1.0471975520183
2  132 51 0 0.8931498437198 1.0471975520183
4 C0 51 0 77 0
0

0101000
+124 0 -114 0 *
Wi

0101100
-109 0 -122 0 +251 0 +112 0 *
Fa
0  1e-07 51 0

0111000
+108 0 *
Ve
1e-07
-3.413310176484 8.812026647662 153
0 0

0101101
*
Ed
 1e-07 1 1 0
1  163 0 0.366648898345315 1.88809402394256
4 C0 54 0 78 0
0

0101000
+243 0 -106 0 *
Ed
 1e-07 1 1 0
1  164 0 0 21
2  133 55 0 0 21
4 C0 54 0 55 0
0

0101000
+238 0 -106 0 *
Wi

0101100
-237 0 +242 0 +105 0 -104 0 *
Fa
0  1e-07 54 0

0111000
+103 0 *
Ve
1e-07
-5.924783847459 7.362026647663 153
0 0

0101101
*
Ed
 1e-07 1 1 0
1  165 0 0.366648898345814 1.88809402394392
4 C0 57 0 78 0
0

0101000
+229 0 -101 0 *
Ed
 1e-07 1 1 0
1  166 0 0 21
2  134 56 0 0 21
4 C0 57 0 56 0
0

0101000
+234 0 -101 0 *
Wi

0101100
-232 0 +228 0 +100 0 -99 0 *
Fa
0  1e-07 57 0

0111000
+98 0 *
Ve
1.26084513830854e-07
-4.725000109191 8.183940002722 153
0 0

0101101
*
Ed
 1e-07 1 1 0
1  167 0 2.09439511573528 2.24844280986999
2  135 56 0 2.09439511573528 2.24844280986999
4 C0 56 0 78 0
0

0101000
+96 0 -101 0 *
Ed
 1e-07 1 1 0
1  168 0 0 21
2  136 56 0 0 21
2  137 55 0 0 21
4 CN 56 0 55 0
0

0101000
+236 0 -96 0 *
Wi

0101100
-95 0 -94 0 +233 0 +99 0 *
Fa
0  1e-07 56 0

0111000
+93 0 *
Ed
 1e-07 1 1 0
1  169 0 1.94034739491636 2.09439511573528
2  138 55 0 1.94034739491636 2.09439511573528
4 C0 55 0 78 0
0

0101000
+106 0 -96 0 *
Wi

0101100
-91 0 -104 0 +235 0 +94 0 *
Fa
0  1e-07 55 0

0111000
+90 0 *
Ve
1e-07
-9.338094023943 1.45 153
0 0

0101101
*
Ed
 1e-07 1 1 0
1  170 0 0.366648898345 1.888094023943
4 C0 58 0 79 0
0

0101000
+227 0 -88 0 *
Ed
 1e-07 1 1 0
1  171 0 0 21
2  139 59 0 0 21
4 C0 58 0 59 0
0

0101000
+222 0 -88 0 *
Wi

0101100
-221 0 +226 0 +87 0 -86 0 *
Fa
0  1e-07 58 0

0111000
+85 0 *
Ve
1e-07
-9.338094023943 -1.45 153
0 0

0101101
*
Ed
 1e-07 1 1 0
1  172 0 0.366648898345 1.888094023943
4 C0 61 0 79 0
0

0101000
+211 0 -83 0 *
Ed
 1e-07 1 1 0
1  173 0 0 21
2  140 60 0 0 21
4 C0 61 0 60 0
0

0101000
+218 0 -83 0 *
Wi

0101100
-216 0 +209 0 +82 0 -81 0 *
Fa
0  1e-07 61 0

0111000
+80 0 *
Ve
1e-07
-9.45 -3.07398813842e-15 153
0 0

0101101
*
Ed
 1e-07 1 1 0
1  174 0 3.14159265358979 3.29564036106663
2  141 60 0 3.14159265358979 3.29564036106663
4 C0 60 0 79 0
0

0101000
+78 0 -83 0 *
Ed
 1e-07 1 1 0
1  175 0 0 21
2  142 60 0 0 21
2  143 59 0 0 21
4 CN 60 0 59 0
0

0101000
+220 0 -78 0 *
Wi

0101100
+81 0 -77 0 -76 0 +217 0 *
Fa
0  1e-07 60 0

0111000
+75 0 *
Ed
 1e-07 1 1 0
1  176 0 2.98754494611295 3.14159265358979
2  144 59 0 2.98754494611295 3.14159265358979
4 C0 59 0 79 0
0

0101000
+88 0 -78 0 *
Wi

0101100
-73 0 -86 0 +219 0 +76 0 *
Fa
0  1e-07 59 0

0111000
+72 0 *
Ve
1e-07
-5.924783847459 -7.362026647663 153
0 0

0101101
*
Ed
 1e-07 1 1 0
1  177 0 0.366648898345814 1.88809402394392
4 C0 62 0 80 0
0

0101000
+213 0 -70 0 *
Ed
 1e-07 1 1 0
1  178 0 0 21
2  145 63 0 0 21
4 C0 62 0 63 0
0

0101000
+206 0 -70 0 *
Wi

0101100
-205 0 +212 0 +69 0 -68 0 *
Fa
0  1e-07 62 0

0111000
+67 0 *
Ve
1e-07
-3.413310176484 -8.812026647662 153
0 0

0101101
*
Ed
 1e-07 1 1 0
1  179 0 0.366648898345315 1.88809402394256
4 C0 65 0 80 0
0

0101000
+195 0 -65 0 *
Ed
 1e-07 1 1 0
1  180 0 0 21
2  146 64 0 0 21
4 C0 65 0 64 0
0

0101000
+202 0 -65 0 *
Wi

0101100
-200 0 +193 0 +64 0 -63 0 *
Fa
0  1e-07 65 0

0111000
+62 0 *
Ve
1.26082806144987e-07
-4.725000109191 -8.183940002722 153
0 0

0101101
*
Ed
 1e-07 1 1 0
1  181 0 4.18879019144431 4.34283791226323
2  147 64 0 4.18879019144431 4.34283791226323
4 C0 64 0 80 0
0

0101000
+60 0 -65 0 *
Ed
 1e-07 1 1 0
1  182 0 0 21
2  148 64 0 0 21
2  149 63 0 0 21
4 CN 64 0 63 0
0

0101000
+204 0 -60 0 *
Wi

0101100
+63 0 -59 0 -58 0 +201 0 *
Fa
0  1e-07 64 0

0111000
+57 0 *
Ed
 1e-07 1 1 0
1  183 0 4.03474249730959 4.18879019144431
2  150 63 0 4.03474249730959 4.18879019144431
4 C0 63 0 80 0
0

0101000
+70 0 -60 0 *
Wi

0101100
+58 0 -55 0 -68 0 +203 0 *
Fa
0  1e-07 63 0

0111000
+54 0 *
Ve
1e-07
3.413310176484 -8.812026647662 153
0 0

0101101
*
Ed
 1e-07 1 1 0
1  184 0 0.366648898345315 1.88809402394256
4 C0 66 0 81 0
0

0101000
+197 0 -52 0 *
Ed
 1e-07 1 1 0
1  185 0 0 21
2  151 67 0 0 21
4 C0 66 0 67 0
0

0101000
+190 0 -52 0 *
Wi

0101100
-189 0 +196 0 +51 0 -50 0 *
Fa
0  1e-07 66 0

0111000
+49 0 *
Ve
1e-07
5.924783847459 -7.362026647663 153
0 0

0101101
*
Ed
 1e-07 1 1 0
1  186 0 0.366648898345814 1.88809402394392
4 C0 69 0 81 0
0

0101000
+179 0 -47 0 *
Ed
 1e-07 1 1 0
1  187 0 0 21
2  152 68 0 0 21
4 C0 69 0 68 0
0

0101000
+186 0 -47 0 *
Wi

0101100
-184 0 +177 0 +46 0 -45 0 *
Fa
0  1e-07 69 0

0111000
+44 0 *
Ve
1.26082806144987e-07
4.725000109191 -8.183940002722 153
0 0

0101101
*
Ed
 1e-07 1 1 0
1  188 0 5.23598776932507 5.39003546345979
2  153 68 0 5.23598776932507 5.39003546345979
4 C0 68 0 81 0
0

0101000
+42 0 -47 0 *
Ed
 1e-07 1 1 0
1  189 0 0 21
2  154 68 0 0 21
2  155 67 0 0 21
4 CN 68 0 67 0
0

0101000
+188 0 -42 0 *
Wi

0101100
+45 0 -41 0 -40 0 +185 0 *
Fa
0  1e-07 68 0

0111000
+39 0 *
Ed
 1e-07 1 1 0
1  190 0 5.08194004850615 5.23598776932507
2  156 67 0 5.08194004850615 5.23598776932507
4 C0 67 0 81 0
0

0101000
+52 0 -42 0 *
Wi

0101100
+40 0 -37 0 -50 0 +187 0 *
Fa
0  1e-07 67 0

0111000
+36 0 *
Ve
1e-07
7.95 -1.947188410644e-15 153
0 0

0101101
*
Ed
 1e-07 1 1 0
1  191 0 6.09976869214844 6.28318530717959
4 CN 70 0 71 0
0

0101000
+181 0 -34 0 *
Ed
 1e-07 1 1 0
1  192 0 0 0.183416615031147
4 CN 70 0 71 0
0

0101000
+34 0 -261 0 *
Wi

0101100
-33 0 +159 0 +163 0 +168 0 -173 0 -32 0 *
Fa
0  1e-07 70 0

0111000
+31 0 *
Wi

0101100
+33 0 +32 0 -155 0 -127 0 +128 0 *
Fa
0  1e-07 71 0

0111000
+29 0 *
Ed
 1e-07 1 1 0
1  193 0 5.05257114095181 5.41940437101409
4 C1 76 0 81 0
0

0101000
+197 0 -179 0 *
Wi

0101100
+27 0 -130 0 -131 0 +133 0 *
Fa
0  1e-07 76 0

0111000
+26 0 *
Ed
 1e-07 1 1 0
1  194 0 4.00537358975529 4.37220681981757
4 C1 75 0 80 0
0

0101000
+213 0 -195 0 *
Wi

0101100
+24 0 -135 0 -136 0 +138 0 *
Fa
0  1e-07 75 0

0111000
+23 0 *
Ed
 1e-07 1 1 0
1  195 0 2.95817603855865 3.32500926862094
4 G2 74 0 79 0
0

0101000
+227 0 -211 0 *
Wi

0101100
+143 0 +21 0 -140 0 -141 0 *
Fa
0  1e-07 74 0

0111000
+20 0 *
Ed
 1e-07 1 1 0
1  196 0 1.91097848736202 2.2778117174243
4 C1 73 0 78 0
0

0101000
+243 0 -229 0 *
Wi

0101100
+148 0 +18 0 -145 0 -146 0 *
Fa
0  1e-07 73 0

0111000
+17 0 *
Ed
 1e-07 1 1 0
1  197 0 0.863780936165493 1.23061416622778
4 C1 72 0 77 0
0

0101000
+259 0 -245 0 *
Wi

0101100
+153 0 +15 0 -150 0 -151 0 *
Fa
0  1e-07 72 0

0111000
+14 0 *
Wi

0101100
-15 0 +123 0 +109 0 +113 0 -118 0 *
Fa
0  1e-07 77 0

0111000
+12 0 *
Wi

0101100
-18 0 +105 0 +91 0 +95 0 -100 0 *
Fa
0  1e-07 78 0

0111000
+10 0 *
Wi

0101100
-21 0 +87 0 +73 0 +77 0 -82 0 *
Fa
0  1e-07 79 0

0111000
+8 0 *
Wi

0101100
-24 0 +69 0 +55 0 +59 0 -64 0 *
Fa
0  1e-07 80 0

0111000
+6 0 *
Wi

0101100
-27 0 +51 0 +37 0 +41 0 -46 0 *
Fa
0  1e-07 81 0

0111000
+4 0 *
Sh

0101100
+476 0 +456 0 +449 0 -409 0 -404 0 -397 0 +393 0 -384 0 +380 0 -371 0 
+367 0 -360 0 -358 0 +355 0 +350 0 +347 0 +344 0 +342 0 -339 0 +336 0 
+333 0 +331 0 -328 0 +325 0 +322 0 +320 0 -317 0 +315 0 -310 0 +305 0 
+300 0 +271 0 -262 0 +255 0 -246 0 +239 0 -230 0 +223 0 -214 0 +207 0 
-198 0 +191 0 -182 0 +175 0 +170 0 +165 0 +160 0 -157 0 +125 0 -120 0 
+115 0 +110 0 +107 0 -102 0 +97 0 +92 0 +89 0 -84 0 +79 0 +74 0 
+71 0 -66 0 +61 0 +56 0 +53 0 -48 0 +43 0 +38 0 +35 0 +30 0 
+28 0 +25 0 +22 0 +19 0 +16 0 +13 0 +11 0 +9 0 +7 0 +5 0 
+3 0 *
So

0100000
+2 0 *

+1 0 