DBRep_DrawableShape

CASCADE Topology V1, (c) Matra-Datavision
Locations 0
Curve2ds 10
1 0 0 1 0 
1 6.2831853071795862 0 0 1 
1 4.1389114358025836e-13 0 0 1 
1 0 23.8125 1 0 
7 0 1  7 49 9  1.292001873931 18.050000000000001  1.292001873931 18.144151261565  1.295879445013 18.238244638868  1.3036264043800001 18.330530206662001  1.3151050790309999 18.419282772487001  1.3300560853450001 18.502814771882001  1.3481118568420001 18.579544979165998  1.3898184055110001 18.717689551633999  1.4142624049300001 18.781240850507  1.441829385316 18.835752477486999  1.4719574467609999 18.878797126493001  1.503983385383 18.908546552585001  1.5371878787740001 18.923749999999998  1.6004451597130001 18.923749999999998  1.6300840802759999 18.911917771428001  1.659197954453 18.88826852827  1.6872804654410001 18.853138245551001  1.713821249315 18.807175296453  1.738318062504 18.751343465554999  1.785308579619 18.613748656390001  1.8064881773179999 18.531203634303001  1.8236345046739999 18.441612800242002  1.836590204131 18.346971678660001  1.845257133636 18.249061134201  1.8495907796590001 18.149535858533  1.8495907796590001 17.955848738435002  1.8457132085770001 17.861755361132001  1.83796624921 17.769469793338001  1.826487574558 17.680717227513  1.811536568245 17.597185228118001  1.7934807967469999 17.520455020834  1.751774248134 17.382310448546001  1.7273302485519999 17.318759149045999  1.6997632682899999 17.264247522969001  1.6696352069730001 17.221202873298001  1.6376092680529999 17.191453447449  1.604404774869 17.17625  1.541147493877 17.17625  1.5115085733139999 17.188082228572  1.4823946991370001 17.211731471730001  1.454312188149 17.246861754449  1.427771404275 17.292824703547002  1.403274591085 17.348656534444999  1.3562840739699999 17.48625134361  1.3351044762719999 17.568796365697001  1.3179581489150001 17.658387199758  1.305002449459 17.75302832134  1.2963355199540001 17.850938865799002  1.292001873931 17.950464141466998 
 0 7 0.12982302137900001 6 0.261517272242 6 0.37769582465899998 6 0.50971287430900003 6 0.63458819015900003 6 0.76126342044299999 6 0.87301427336299997 6 1 7
7 0 0  7 50 9  0 6.9475934187100004  0.10775537804300001 6.9475934187100004  0.21544391947899999 6.9442059743  0.32310974694900002 6.9374351003520003  0.43080234807200002 6.9276972135139996  0.53854708592300005 6.9157863117989997  0.646313619881 6.9027310781370002  0.86320275648800004 6.876166661748  0.97604838390299997 6.8621982720050001  1.0914613031260001 6.8487942139360003  1.2088888467850001 6.8373701738100001  1.3280141496169999 6.8291841161180002  1.448671208091 6.8250000000000002  1.6785331445509999 6.8250000000000002  1.7862329028820001 6.8282563601839996  1.8939173175340001 6.8347639802479998  2.0016148803589999 6.8441756928800004  2.1093460407209998 6.8557993228259999  2.2170964920679999 6.8686914231509997  2.4471408163759998 6.8967975338079999  2.5665475571999998 6.9117384225449996  2.6837360367200001 6.925274607855  2.7992988905359999 6.9362348109890002  2.9137676812860001 6.9438066403540004  3.027674646685 6.9475934187100004  3.2493480316330001 6.9475934187100004  3.3570365730690002 6.9442059743  3.4647024005390001 6.9374351003520003  3.572395001661 6.9276972135139996  3.6801397395120001 6.9157863117989997  3.7879062734710001 6.9027310781370002  4.0047954097950003 6.8761666617830004  4.1176410380939998 6.8621982719180004  4.2330539564320002 6.8487942140209999  4.3504814999720001 6.8373701737759998  4.4696068037360002 6.8291841161209996  4.5902638614890003 6.8250000000000002  4.8201257981410004 6.8250000000000002  4.9278255564710003 6.8282563601839996  5.035509971123 6.8347639802479998  5.143207533949 6.8441756928800004  5.2509386943110004 6.8557993228259999  5.3586891456570003 6.8686914231509997  5.5887334699659998 6.8967975338079999  5.7081402107899999 6.9117384225449996  5.8253286903100001 6.925274607855  5.940891544126 6.9362348109890002  6.0553603348760001 6.9438066403540004  6.169267300275 6.9475934187100004  6.2831853071800001 6.9475934187100004 
 0 8 0.12982302137900001 6 0.261517272242 6 0.37769582465899998 6 0.50971287430900003 6 0.63458819015900003 6 0.76126342044299999 6 0.87301427336299997 6 1 8
7 0 1  7 49 9  4.9911834332489997 18.050000000000001  4.9911834332489997 18.144151261565  4.9873058621670001 18.238244638868  4.9795589028 18.330530206662001  4.9680802281479997 18.419282772487001  4.9531292218349998 18.502814771882001  4.9350734503369997 18.579544979165998  4.8933669016690002 18.717689551633999  4.8689229022490004 18.781240850505998  4.8413559218630002 18.835752477486999  4.8112278604179997 18.878797126493001  4.7792019217970001 18.908546552585001  4.7459974284059996 18.923749999999998  4.6827401474670003 18.923749999999998  4.653101226904 18.911917771428001  4.6239873527270001 18.88826852827  4.5959048417390003 18.853138245551001  4.569364057864 18.807175296453  4.5448672446750003 18.751343465554999  4.4978767275599996 18.613748656390001  4.4766971298609999 18.531203634303001  4.4595508025050004 18.441612800242002  4.4465951030489999 18.346971678660001  4.4379281735439999 18.249061134201  4.4335945275209996 18.149535858533  4.4335945275209996 17.955848738435002  4.4374720986030001 17.861755361132001  4.4452190579700002 17.769469793338001  4.4566977326210004 17.680717227513  4.4716487389340003 17.597185228118001  4.4897045104320004 17.520455020834  4.5314110590999999 17.382310448365999  4.5558550585199997 17.318759149493001  4.5834220389059999 17.264247522514001  4.6135501003510004 17.221202873507  4.645576038972 17.191453447415  4.6787805323629996 17.17625  4.7420378133029999 17.17625  4.7716767338660002 17.188082228572  4.8007906080430001 17.211731471730001  4.8288731190299998 17.246861754449  4.8554139029050001 17.292824703547002  4.8799107160939998 17.348656534444999  4.9269012332089996 17.48625134361  4.9480808309080002 17.568796365697001  4.9652271582639997 17.658387199758  4.9781828577200002 17.75302832134  4.9868497872260003 17.850938865799002  4.9911834332489997 17.950464141466998 
 0 7 0.12982302120799999 6 0.26151727189599999 6 0.37769582416000003 6 0.50971287363600004 6 0.63458818932100003 6 0.76126341976599998 6 0.87301427300199996 6 1 7
7 0 0  7 50 9  0 13.052406581290001  0.10775537804300001 13.052406581290001  0.21544391947899999 13.055794025699999  0.32310974694900002 13.062564899648001  0.43080234807200002 13.072302786486  0.53854708592199996 13.084213688201  0.646313619881 13.097268921863  0.86320275648800004 13.123833338252  0.97604838390299997 13.137801727995001  1.0914613031260001 13.151205786064001  1.208888846784 13.162629826190001  1.3280141496169999 13.170815883882  1.448671208091 13.175000000000001  1.678533144552 13.175000000000001  1.7862329028820001 13.171743639816  1.8939173175340001 13.165236019751999  2.0016148803589999 13.15582430712  2.1093460407209998 13.144200677174  2.2170964920679999 13.131308576848999  2.4471408163759998 13.103202466192  2.5665475571999998 13.088261577455  2.6837360367200001 13.074725392145  2.7992988905359999 13.063765189011001  2.9137676812860001 13.056193359646  3.027674646685 13.052406581290001  3.2493480316330001 13.052406581290001  3.3570365730690002 13.055794025699999  3.4647024005390001 13.062564899648001  3.572395001661 13.072302786486  3.6801397395120001 13.084213688201  3.7879062734710001 13.097268921863  4.0047954100779997 13.123833338252  4.1176410374929997 13.137801727995001  4.2330539567140004 13.151205786064001  4.3504815003750004 13.162629826190001  4.4696068032060001 13.170815883882  4.5902638616809996 13.175000000000001  4.8201257981410004 13.175000000000001  4.9278255564710003 13.171743639816  5.035509971123 13.165236019751999  5.143207533949 13.15582430712  5.2509386943110004 13.144200677174  5.3586891456570003 13.131308576848999  5.5887334699659998 13.103202466192  5.7081402107899999 13.088261577455  5.8253286903100001 13.074725392145  5.940891544126 13.063765189011001  6.055360334875 13.056193359646  6.169267300275 13.052406581290001  6.2831853071800001 13.052406581290001 
 0 8 0.12982302120799999 6 0.26151727189599999 6 0.37769582416000003 6 0.50971287363600004 6 0.63458818932100003 6 0.76126341976599998 6 0.87301427300199996 6 1 8
1 6.2831853071800001 -0 0 1 
1 0 -0 0 1 
Curves 24
1 80.092682443119998 -51.774935110580003 -63.03125 2.22044604925e-16 0 -1 
1 80.092682443119998 -51.774935110580003 -67 0.86602540378432902 -0.50000000000018996 1.9229626863847306e-16 
1 85.648932443120003 -54.982837543770003 -63.03125 2.22044604925e-16 0 -1 
1 80.092682443119998 -51.774935110580003 -63.03125 0.86602540378432902 -0.50000000000018996 1.9229626863847306e-16 
1 74.536432443120006 -54.982837543770003 -63.03125 2.22044604925e-16 0 -1 
1 74.536432443120006 -54.982837543770003 -67 0.86602540378432902 0.50000000000018996 1.9229626863847306e-16 
1 74.536432443120006 -54.982837543770003 -63.03125 0.86602540378432902 0.50000000000018996 1.9229626863847306e-16 
1 85.648932443120003 -54.982837543770003 -67 1.3843600891849999e-16 -1 3.0738968907709999e-32 
1 85.648932443120003 -61.398642410139999 -63.03125 2.22044604925e-16 0 -1 
1 85.648932443120003 -54.982837543770003 -63.03125 1.3843600891849999e-16 -1 3.0738968907709999e-32 
1 85.648932443120003 -61.398642410139999 -63.03125 -0.86602540378432902 -0.50000000000018996 -1.9229626863847306e-16 
1 80.092682443119998 -64.606544843319995 -63.03125 -0.86602540378432902 0.50000000000018996 -1.9229626863847306e-16 
1 74.536432443120006 -61.398642410139999 -63.03125 -2.7687201783699998e-16 1 -6.1477937815410003e-32 
1 85.648932443120003 -61.398642410139999 -67 -0.86602540378432902 -0.50000000000018996 -1.9229626863847306e-16 
1 80.092682443119998 -64.606544843319995 -67 -0.86602540378432902 0.50000000000018996 -1.9229626863847306e-16 
1 74.536432443120006 -61.398642410139999 -67 -2.7687201783699998e-16 1 -6.1477937815410003e-32 
2 80.092682443119998 -58.190739976949999 -67 2.22044604925e-16 0 -1 1 0 2.22044604925e-16 0 -1 0 3.1749999999999998
1 74.536432443120006 -61.398642410139999 -63.03125 2.22044604925e-16 0 -1 
1 80.092682443119998 -64.606544843319995 -63.03125 2.22044604925e-16 0 -1 
1 83.267682443119995 -58.190739976949999 -67 2.22044604925e-16 0 -1 
2 80.092682443119998 -58.190739976949999 -90.8125 2.22044604925e-16 0 -1 1 0 2.22044604925e-16 0 -1 0 3.1749999999999998
7 0 1  7 49 9  80.966432443119999 -61.243146558239999 -85.049999999999997  80.966432443119999 -61.243146558239999 -85.144151261559998  80.954595769212006 -61.246534002650002 -85.238244638859996  80.930951444605 -61.253304876599998 -85.330530206660001  80.895827894011006 -61.263042763439998 -85.419282772480003  80.849861831940004 -61.274953665150001 -85.502814771879997  80.794017861162999 -61.288008898809998 -85.579544979160005  80.664291472776 -61.314573315200001 -85.717689551630002  80.587931525677007 -61.328541704949998 -85.781240850499998  80.501384777309994 -61.341945763010003 -85.83575247748  80.406299687856006 -61.353369803139998 -85.878797126489999  80.30481337754 -61.361555860830002 -85.908546552580006  80.199389265587001 -61.365739976950003 -85.923749999999998  79.998547398604998 -61.365739976950003 -85.923749999999998  79.904444244230007 -61.36248361677 -85.911917771419994  79.812141347543999 -61.355975996700003 -85.888268528270004  79.723386695353994 -61.346564284069999 -85.853138245549999  79.639868084834006 -61.334940654119997 -85.807175296449998  79.563146033682997 -61.322048553800002 -85.751343465549994  79.416622444132003 -61.293942443139997 -85.613748656390001  79.351016749604995 -61.279001554410002 -85.531203634299999  79.298265351241 -61.265465369099999 -85.441612800239994  79.258614740683001 -61.254505165959998 -85.346971678659997  79.232160825297996 -61.246933336600001 -85.249061134200005  79.218932443119996 -61.243146558239999 -85.149535858530001  79.218932443119996 -61.243146558239999 -84.955848738430007  79.230769117028004 -61.246534002650002 -84.861755361129994  79.254413441634 -61.253304876599998 -84.769469793330003  79.289536992229003 -61.263042763439998 -84.680717227510002  79.335503054300005 -61.274953665150001 -84.597185228110007  79.391347025076996 -61.288008898809998 -84.520455020829999  79.521073413294005 -61.314573315170001 -84.382310448539997  79.597433360897 -61.328541705029998 -84.318759149040005  79.683980108886999 -61.341945762930003 -84.264247522960005  79.779065197921 -61.353369803169997 -84.221202873289997  79.880551509189004 -61.361555860830002 -84.191453447439997  79.985975620484993 -61.365739976950003 -84.176249999999996  80.186817487634997 -61.365739976950003 -84.176249999999996  80.280920642010003 -61.36248361677 -84.188082228569996  80.373223538695001 -61.355975996700003 -84.211731471730005  80.461978190886001 -61.346564284069999 -84.246861754440005  80.545496801406003 -61.334940654119997 -84.292824703540006  80.622218852556003 -61.322048553800002 -84.348656534439996  80.768742442106998 -61.293942443139997 -84.486251343609993  80.834348136635001 -61.279001554410002 -84.568796365690005  80.887099534998001 -61.265465369099999 -84.658387199749995  80.926750145556994 -61.254505165959998 -84.753028321339997  80.953204060941999 -61.246933336600001 -84.850938865789999  80.966432443119999 -61.243146558239999 -84.950464141460003 
 0 7 0.12982302137900001 6 0.261517272242 6 0.37769582465899998 6 0.50971287430900003 6 0.63458819015900003 6 0.76126342044299999 6 0.87301427336299997 6 1 7
7 0 1  7 49 9  80.966432443119999 -55.138333395659998 -85.049999999999997  80.966432443119999 -55.138333395659998 -85.144151261559998  80.954595769212006 -55.134945951250003 -85.238244638859996  80.930951444605 -55.1281750773 -85.330530206660001  80.895827894011006 -55.11843719046 -85.419282772480003  80.849861831940004 -55.106526288749997 -85.502814771879997  80.794017861162999 -55.093471055089999 -85.579544979160005  80.664291472776 -55.066906638699997 -85.717689551630002  80.587931525677007 -55.052938248959997 -85.781240850499998  80.501384777309994 -55.039534190890002 -85.83575247748  80.406299687856006 -55.02811015076 -85.878797126489999  80.30481337754 -55.019924093070003 -85.908546552580006  80.199389265587001 -55.015739976950002 -85.923749999999998  79.998547398604998 -55.015739976950002 -85.923749999999998  79.904444244230007 -55.018996337129998 -85.911917771419994  79.812141347543999 -55.025503957200002 -85.888268528270004  79.723386695353994 -55.034915669829999 -85.853138245549999  79.639868084834006 -55.046539299780001 -85.807175296449998  79.563146033682997 -55.059431400100003 -85.751343465549994  79.416622444132003 -55.087537510760001 -85.613748656390001  79.351016749604995 -55.102478399500001 -85.531203634299999  79.298265351241 -55.116014584810003 -85.441612800239994  79.258614740683001 -55.12697478794 -85.346971678659997  79.232160825297996 -55.134546617300003 -85.249061134200005  79.218932443119996 -55.138333395659998 -85.149535858530001  79.218932443119996 -55.138333395659998 -84.955848738430007  79.230769117028004 -55.134945951250003 -84.861755361129994  79.254413441634 -55.1281750773 -84.769469793330003  79.289536992229003 -55.11843719046 -84.680717227510002  79.335503054300005 -55.106526288749997 -84.597185228110007  79.391347025076996 -55.093471055089999 -84.520455020829999  79.521073413463 -55.066906638699997 -84.382310448360002  79.597433360563002 -55.052938248959997 -84.318759149490006  79.683980108929006 -55.039534190890002 -84.264247522510004  79.779065198384004 -55.02811015076 -84.221202873500005  79.880551508699 -55.019924093070003 -84.191453447409998  79.985975620651999 -55.015739976950002 -84.176249999999996  80.186817487634997 -55.015739976950002 -84.176249999999996  80.280920642010003 -55.018996337129998 -84.188082228569996  80.373223538695001 -55.025503957200002 -84.211731471730005  80.461978190886001 -55.034915669829999 -84.246861754440005  80.545496801406003 -55.046539299780001 -84.292824703540006  80.622218852556003 -55.059431400100003 -84.348656534439996  80.768742442106998 -55.087537510760001 -84.486251343609993  80.834348136635001 -55.102478399500001 -84.568796365690005  80.887099534998001 -55.116014584810003 -84.658387199749995  80.926750145556994 -55.12697478794 -84.753028321339997  80.953204060941999 -55.134546617300003 -84.850938865789999  80.966432443119999 -55.138333395659998 -84.950464141460003 
 0 7 0.12982302120799999 6 0.26151727189599999 6 0.37769582416000003 6 0.50971287363600004 6 0.63458818932100003 6 0.76126341976599998 6 0.87301427300199996 6 1 7
1 80.966432443119999 -68.190739976949999 -85.049999999999997 0 1 0 
Polygon3D 0
PolygonOnTriangulations 0
Surfaces 11
1 80.092682443119998 -51.774935110580003 -63.03125 -0.50000000000018996 -0.86602540378432902 -1.1102230246254218e-16 0.86602540378432902 -0.50000000000018996 1.9229626863847306e-16 -2.2204460492514559e-16 8.4062990212614071e-29 1 
1 74.536432443120006 -54.982837543770003 -63.03125 0.50000000000018996 -0.86602540378432902 1.1102230246254218e-16 0.86602540378432902 0.50000000000018996 1.9229626863847306e-16 -2.2204460492514559e-16 -8.4062990212614071e-29 1 
1 80.092682443119998 -58.190739976949999 -67 2.22044604925e-16 0 -1 1 0 2.22044604925e-16 0 -1 0 
1 85.648932443120003 -54.982837543770003 -63.03125 -1 -1.3843600891849999e-16 -2.22044604925e-16 1.3843600891849999e-16 -1 3.0738968907709999e-32 -2.22044604925e-16 7.8932515060796337e-45 1 
1 80.092682443119998 -58.190739976949999 -63.03125 2.22044604925e-16 0 -1 1 0 2.22044604925e-16 0 -1 0 
1 74.536432443120006 -61.398642410139999 -63.03125 1 2.7687201783699998e-16 2.22044604925e-16 -2.7687201783699998e-16 1 -6.1477937815410003e-32 -2.22044604925e-16 5.7913038095924081e-45 1 
1 85.648932443120003 -61.398642410139999 -63.03125 -0.50000000000018996 0.86602540378432902 -1.1102230246254218e-16 -0.86602540378432902 -0.50000000000018996 -1.9229626863847306e-16 -2.2204460492514559e-16 -8.4062990212614071e-29 1 
1 80.092682443119998 -64.606544843319995 -63.03125 0.50000000000018996 0.86602540378432902 1.1102230246254218e-16 -0.86602540378432902 0.50000000000018996 -1.9229626863847306e-16 -2.2204460492514559e-16 8.4062990212614071e-29 1 
2 80.092682443119998 -58.190739976949999 -67 2.22044604925e-16 0 -1 1 0 2.22044604925e-16 0 -1 0 3.1749999999999998
1 80.092682443119998 -58.190739976949999 -90.8125 2.22044604925e-16 0 -1 1 0 2.22044604925e-16 0 -1 0 
2 80.092682443119998 -68.190739976949999 -85.049999999999997 0 1 0 1 -0 2.22044604925e-16 2.22044604925e-16 0 -1 0.87375000000000003
Triangulations 0

TShapes 67
Ve
1e-07
80.09268244312 -51.77493511058 -63.03125
0 0

0101101
*
Ve
1e-07
80.09268244312 -51.77493511058 -67
0 0

0101101
*
Ed
 1e-07 1 1 0
1  1 0 0 3.96875
4 C0 1 0 2 0
0

0101000
+67 0 -66 0 *
Ve
1e-07
85.64893244312 -54.98283754377 -67
0 0

0101101
*
Ed
 1e-07 1 1 0
1  2 0 0 6.41580486637229
4 C0 1 0 3 0
0

0101000
+66 0 -64 0 *
Ve
1e-07
85.64893244312 -54.98283754377 -63.03125
0 0

0101101
*
Ed
 1e-07 1 1 0
1  3 0 0 3.96875
4 C0 1 0 4 0
0

0101000
+62 0 -64 0 *
Ed
 1e-07 1 1 0
1  4 0 0 6.41580486637229
4 C0 1 0 5 0
0

0101000
+67 0 -62 0 *
Wi

0101100
+65 0 +63 0 -61 0 -60 0 *
Fa
0  1e-07 1 0

0111000
+59 0 *
Ve
1e-07
74.53643244312 -54.98283754377 -63.03125
0 0

0101101
*
Ve
1e-07
74.53643244312 -54.98283754377 -67
0 0

0101101
*
Ed
 1e-07 1 1 0
1  5 0 0 3.96875
4 C0 2 0 6 0
0

0101000
+57 0 -56 0 *
Ed
 1e-07 1 1 0
1  6 0 0 6.41580486637228
4 C0 2 0 3 0
0

0101000
+56 0 -66 0 *
Ed
 1e-07 1 1 0
1  7 0 0 6.41580486637228
4 C0 2 0 5 0
0

0101000
+57 0 -67 0 *
Wi

0101100
+55 0 +54 0 -65 0 -53 0 *
Fa
0  1e-07 2 0

0111000
+52 0 *
Ve
1e-07
85.64893244312 -61.39864241014 -67
0 0

0101101
*
Ed
 1e-07 1 1 0
1  8 0 0 6.41580486637
4 C0 4 0 3 0
0

0101000
+64 0 -50 0 *
Ve
1e-07
85.64893244312 -61.39864241014 -63.03125
0 0

0101101
*
Ed
 1e-07 1 1 0
1  9 0 0 3.96875
4 C0 4 0 7 0
0

0101000
+48 0 -50 0 *
Ed
 1e-07 1 1 0
1  10 0 0 6.41580486637
4 C0 4 0 5 0
0

0101000
+62 0 -48 0 *
Wi

0101100
+61 0 +49 0 -47 0 -46 0 *
Fa
0  1e-07 4 0

0111000
+45 0 *
Ve
1e-07
80.09268244312 -64.60654484332 -63.03125
0 0

0101101
*
Ed
 1e-07 1 1 0
1  11 0 -0 6.41580486636729
4 C0 5 0 7 0
0

0101000
+48 0 -43 0 *
Ve
1e-07
74.53643244312 -61.39864241014 -63.03125
0 0

0101101
*
Ed
 1e-07 1 1 0
1  12 0 0 6.41580486636728
4 C0 5 0 8 0
0

0101000
+43 0 -41 0 *
Ed
 1e-07 1 1 0
1  13 0 0 6.41580486637
4 C0 5 0 6 0
0

0101000
+41 0 -57 0 *
Wi

0101100
+60 0 +46 0 +42 0 +40 0 +39 0 +53 0 *
Fa
0  1e-07 5 0

0111000
+38 0 *
Ve
1e-07
80.09268244312 -64.60654484332 -67
0 0

0101101
*
Ed
 1e-07 1 1 0
1  14 0 -0 6.41580486636729
4 C0 3 0 7 0
0

0101000
+50 0 -36 0 *
Ve
1e-07
74.53643244312 -61.39864241014 -67
0 0

0101101
*
Ed
 1e-07 1 1 0
1  15 0 0 6.41580486636728
4 C0 3 0 8 0
0

0101000
+36 0 -34 0 *
Ed
 1e-07 1 1 0
1  16 0 0 6.41580486637
4 C0 3 0 6 0
0

0101000
+34 0 -56 0 *
Wi

0101100
+63 0 +49 0 +35 0 +33 0 +32 0 +54 0 *
Ve
1e-07
83.26768244312 -58.19073997695 -67
0 0

0101101
*
Ed
 1e-07 1 1 0
1  17 0 0 6.28318530717959
2  1 9 0 0 6.28318530717959
4 C0 3 0 9 0
0

0101100
+30 0 -30 0 *
Wi

0101100
-29 0 *
Fa
0  1e-07 3 0

0111000
+31 0 +28 0 *
Ed
 1e-07 1 1 0
1  18 0 0 3.96875
4 C0 6 0 8 0
0

0101000
+41 0 -34 0 *
Wi

0101100
+26 0 +32 0 -55 0 -39 0 *
Fa
0  1e-07 6 0

0111000
+25 0 *
Ed
 1e-07 1 1 0
1  19 0 0 3.96875
4 C0 7 0 8 0
0

0101000
+43 0 -36 0 *
Wi

0101100
+47 0 +35 0 -23 0 -42 0 *
Fa
0  1e-07 7 0

0111000
+22 0 *
Wi

0101100
+23 0 +33 0 -26 0 -40 0 *
Fa
0  1e-07 8 0

0111000
+20 0 *
Ve
1e-07
83.26768244312 -58.19073997695 -90.8125
0 0

0101101
*
Ed
 1e-07 1 1 0
1  20 0 0 23.8125
3  2 3CN 9 0 0 23.8125
0

0101000
+30 0 -18 0 *
Ed
 1e-07 1 1 0
1  21 0 0 6.28318530717959
2  4 9 0 0 6.28318530717959
4 C0 9 0 10 0
0

0101100
+18 0 -18 0 *
Wi

0101100
+17 0 -16 0 -17 0 +29 0 *
Ve
1e-07
80.96643244312 -61.24314655824 -85.05
0 0

0101101
*
Ed
 1e-07 1 1 0
1  22 0 0 1
2  5 9 0 0 1
2  6 11 0 0 1
4 C0 9 0 11 0
0

0101100
+14 0 -14 0 *
Wi

0101100
+13 0 *
Ve
1e-07
80.96643244312 -55.13833339566 -85.05
0 0

0101101
*
Ed
 1e-07 1 1 0
1  23 0 0 1
2  7 9 0 0 1
2  8 11 0 0 1
4 C0 9 0 11 0
0

0101100
+11 0 -11 0 *
Wi

0101100
-10 0 *
Fa
0  1e-07 9 0

0111000
+15 0 +12 0 +9 0 *
Wi

0101100
+16 0 *
Fa
0  1e-07 10 0

0111000
+7 0 *
Ed
 1e-07 1 1 0
1  24 0 6.94759341871 13.05240658129
3  9 10CN 11 0 6.94759341871 13.05240658129
0

0101000
+14 0 -11 0 *
Wi

0101100
-10 0 -5 0 +13 0 +5 0 *
Fa
0  1e-07 11 0

0111000
+4 0 *
Sh

0101100
-58 0 -51 0 -44 0 -37 0 +27 0 -24 0 -21 0 -19 0 +8 0 +6 0 
-3 0 *
So

0100000
+2 0 *

+1 0 