DBRep_DrawableShape

CASCADE Topology V1, (c) Matra-Datavision
Locations 4
1
              1               0               0               0 
              0               1               0         144.275 
              0               0               1               0 
1
              1               0               0               0 
              0               1               0         144.275 
              0               0               1               0 
2  1 -1 0
2  2 -1 0
Curve2ds 26
2 11 -72.137500000000003 -1 0 0 1 6.5999999999999996
1 0 6 1 0 
2 -2.8391676068224667 -52.137500000000003 -1 0 0 1 4.21875
1 0 3.999999999999996 1 0 
2 -2.8391676068224667 24 -1 0 0 1 4.21875
1 0 3.999999999999996 1 0 
2 -2.8391676068224667 52.137500000000003 -1 0 0 1 4.21875
1 0 3.999999999999996 1 0 
2 22.283554851429471 -72.137500000000003 1 0 -0 1 6.5999999999999996
1 0 11 1 0 
1 6.2831853071795862 -0 0 1 
1 0 -0 0 1 
8 0 144.27500000000001
1 28.391676068224893 0 0 -1 
8 0 144.27500000000001
1 5.1621229214954383 0 0 -1 
2 12.65417703660801 -124.27500000000001 -1 -0 0 -1 4.21875
1 0 9.0000000000001847 1 0 
2 12.65417703660801 -96.137500000000003 -1 -0 0 -1 4.21875
1 0 9.0000000000001847 1 0 
2 12.65417703660801 -20 -1 -0 0 -1 4.21875
1 0 9.0000000000001847 1 0 
1 6.2831853071795862 -0 0 1 
1 0 -0 0 1 
1 6.2831853071795862 -0 0 1 
1 0 -0 0 1 
1 6.2831853071795862 -0 0 1 
1 0 -0 0 1 
Curves 25
1 936.80427021274522 -72.137500000000003 1312.9036887194436 0 1 0 
1 936.80427021274522 -72.137500000000003 1312.9036887194436 0 0 -1 
1 936.80427021274522 -72.137500000000003 1280.9036887194436 0 1 0 
2 936.80427021274522 0 1301.9036887194436 1 0 0 -0 0 1 0 -1 0 6.5999999999999996
1 941.80427021274522 -72.137500000000003 1312.9036887194436 0 1 0 
1 941.80427021274522 -72.137500000000003 1312.9036887194436 -1 0 0 
1 937.30427021274522 -72.137500000000003 1280.7753332343007 0.96859375029208683 0 -0.24864864145036233 
1 969.30427021274522 -72.137500000000003 1272.5605821851511 0 0 1 
1 969.30427021274522 -72.137500000000003 1277.7227051066466 -0.96859375029208683 0 0.24864864145036233 
1 941.80427021274522 -72.137500000000003 1279.6201338680141 0 0 1 
1 936.80427021274522 72.137500000000003 1280.9036887194436 0.96859375029209338 0 -0.24864864145033649 
1 969.30427021274522 -72.137500000000003 1272.5605821851511 0 1 0 
2 955.80427021274522 -52.137500000000003 1276.0261802840112 0.24864864145036289 0 0.96859375029208661 0.96859375029208661 0 -0.24864864145036289 -0 1 0 4.21875
2 955.80427021274522 24 1276.0261802840112 0.24864864145036289 0 0.96859375029208661 0.96859375029208661 0 -0.24864864145036289 -0 1 0 4.21875
2 955.80427021274522 52.137500000000003 1276.0261802840112 0.24864864145036289 0 0.96859375029208661 0.96859375029208661 0 -0.24864864145036289 -0 1 0 4.21875
2 941.80427021274522 0 1301.9036887194436 1 0 0 -0 0 1 0 -1 0 6.5999999999999996
1 930.80427021274522 1.6165337748745242e-15 1308.5036887194435 1 0 0 
1 941.80427021274522 -72.137500000000003 1284.7822567895096 -0 1 0 
1 969.30427021274522 -72.137500000000003 1277.7227051066466 0 1 0 
2 957.04751341999713 52.137500000000003 1280.8691490354718 0.24864864145036289 0 0.96859375029208661 0.96859375029208661 0 -0.24864864145036289 -0 1 0 4.21875
2 957.04751341999713 24 1280.8691490354718 0.24864864145036289 0 0.96859375029208661 0.96859375029208661 0 -0.24864864145036289 -0 1 0 4.21875
2 957.04751341999713 -52.137500000000003 1280.8691490354718 0.24864864145036289 0 0.96859375029208661 0.96859375029208661 0 -0.24864864145036289 -0 1 0 4.21875
1 958.89593053098849 -52.137500000000003 1271.1028188267242 0.24864864145036289 1.2325951644078309e-32 0.96859375029208661 
1 958.89593053098849 24 1271.1028188267242 0.24864864145036289 1.2325951644078309e-32 0.96859375029208661 
1 958.89593053098849 52.137500000000003 1271.1028188267242 0.24864864145036289 1.2325951644078309e-32 0.96859375029208661 
Polygon3D 0
PolygonOnTriangulations 0
Surfaces 12
1 936.80427021274522 -72.137500000000003 1312.9036887194436 -1 0 0 0 0 -1 -0 -1 -0 
2 930.80427021274522 0 1301.9036887194436 1 0 0 -0 0 1 0 -1 0 6.5999999999999996
1 941.80427021274522 -72.137500000000003 1312.9036887194436 0 -0 1 -1 0 0 -0 -1 0 
1 947.38038436422107 -72.137500000000003 1288.5923581952816 -0 -1 -0 0 0 -1 1 -0 0 
1 947.38038436422073 72.137500000000003 1288.5923581952816 0 1 0 0 -0 1 1 0 -0 
1 953.05427021274522 -1.2786099705727407e-15 1276.7321354522974 -0.24864864145036153 -0 -0.96859375029208694 -0.96859375029208694 0 0.24864864145036153 0 1 -0 
2 954.80967564694379 -52.137500000000003 1272.1518052828428 0.24864864145036289 0 0.96859375029208661 0.96859375029208661 0 -0.24864864145036289 -0 1 0 4.21875
2 954.80967564694379 24 1272.1518052828428 0.24864864145036289 0 0.96859375029208661 0.96859375029208661 0 -0.24864864145036289 -0 1 0 4.21875
2 954.80967564694379 52.137500000000003 1272.1518052828428 0.24864864145036289 0 0.96859375029208661 0.96859375029208661 0 -0.24864864145036289 -0 1 0 4.21875
1 941.80427021274522 -72.137500000000003 1279.6201338680141 1 0 0 0 0 1 0 -1 0 
1 969.30427021274522 -72.137500000000003 1277.7227051066466 0.24864864145036233 -0 0.96859375029208683 -0.96859375029208683 0 0.24864864145036233 -0 -1 0 
1 969.30427021274522 -72.137500000000003 1272.5605821851511 1 0 0 0 0 1 0 -1 0 
Triangulations 0

TShapes 77
Ve
1e-07
936.804270212745 -72.1375 1312.90368871944
0 0

0101101
*
Ed
 1e-07 1 1 0
1  1 0 0 144.275
0

0101000
+77 0 -77 1 *
Ve
1e-07
936.804270212745 -72.1375 1280.90368871944
0 0

0101101
*
Ed
 1e-07 1 1 0
1  2 0 0 32
0

0101000
+77 0 -75 0 *
Ed
 1e-07 1 1 0
1  3 0 0 144.275
0

0101000
+75 0 -75 1 *
Wi

0101100
+76 0 -74 0 +74 1 -73 0 *
Ve
1.00000001616534e-07
936.804270212745 1.61653377487452e-15 1308.50368871944
0 0

0101101
*
Ed
 1e-07 1 1 0
1  4 0 0 6.28318530717959
2  1 1 0 0 6.28318530717959
2  2 2 0 0 6.28318530717959
0

0101100
+71 0 -71 0 *
Wi

0101100
+70 0 *
Fa
0  1e-07 1 0

0101000
+72 0 +69 0 *
Ve
1e-07
941.804270212745 -72.1375 1312.90368871944
0 0

0101101
*
Ed
 1e-07 1 1 0
1  5 0 0 144.275
0

0101000
+67 0 -67 1 *
Ed
 1e-07 1 1 0
1  6 0 0 5
0

0101000
+67 0 -77 0 *
Wi

0101100
+66 0 -76 0 -65 0 +65 1 *
Fa
0  1e-07 3 0

0101000
+64 0 *
Ve
1e-07
969.304270212745 -72.1375 1272.56058218515
0 0

0101101
*
Ed
 1e-07 1 1 0
1  7 0 -0.516212292149539 33.0375866975707
0

0101000
+75 0 -62 0 *
Ve
1e-07
969.304270212745 -72.1375 1277.72270510665
0 0

0101101
*
Ed
 1e-07 1 1 0
1  8 0 0 5.16212292149544
0

0101000
+62 0 -60 0 *
Ve
1.50000227373675e-07
941.804270212745 -72.1375 1284.78225678951
0 0

0101101
*
Ed
 1e-07 1 1 0
1  9 0 0 28.3916760682248
0

0101000
+60 0 -58 0 *
Ed
 1e-07 1 1 0
1  10 0 5.16212292149521 33.2835548514295
0

0101000
+58 0 -67 0 *
Wi

0101000
+61 0 +59 0 +57 0 +56 0 +65 0 +74 0 *
Fa
0  1e-07 4 0

0111000
+55 0 *
Ed
 1e-07 1 1 0
1  11 0 0 33.5537989897203
0

0101000
+75 1 -62 2 *
Ve
1.50000227373675e-07
941.804270212745 72.1375 1284.78225678951
0 0

0101101
*
Ed
 1e-07 1 1 0
1  10 0 5.16212292149521 33.2835548514295
0

0101000
+52 3 -67 0 *
Ed
 1e-07 1 1 0
1  9 0 0 28.3916760682248
0

0101000
+60 0 -52 4 *
Wi

0101000
-53 0 -74 1 -65 1 -51 1 -50 2 -59 2 *
Fa
0  1e-07 5 0

0111000
+49 0 *
Ed
 1e-07 1 1 0
1  12 0 0 144.275
0

0101000
+62 0 -62 2 *
Wi

0101100
+73 0 -61 0 +53 0 -47 0 *
Ve
1.00000227373675e-07
959.89052509679 -52.1375 1274.97719382789
0 0

0101101
*
Ed
 1e-07 1 1 0
1  13 0 0 6.28318530717959
2  3 6 0 0 6.28318530717959
2  4 7 0 0 6.28318530717959
0

0101100
+45 0 -45 0 *
Wi

0101100
+44 0 *
Ve
1.00000227373675e-07
959.89052509679 24 1274.97719382789
0 0

0101101
*
Ed
 1e-07 1 1 0
1  14 0 0 6.28318530717959
2  5 6 0 0 6.28318530717959
2  6 8 0 0 6.28318530717959
0

0101100
+42 0 -42 0 *
Wi

0101100
+41 0 *
Ve
1.00000227373675e-07
959.89052509679 52.1375 1274.97719382789
0 0

0101101
*
Ed
 1e-07 1 1 0
1  15 0 0 6.28318530717959
2  7 6 0 0 6.28318530717959
2  8 9 0 0 6.28318530717959
0

0101100
+39 0 -39 0 *
Wi

0101100
+38 0 *
Fa
0  1e-07 6 0

0101000
+46 0 +43 0 +40 0 +37 0 *
Ve
1.00000001616534e-07
941.804270212745 1.61653377487452e-15 1308.50368871944
0 0

0101101
*
Ed
 1e-07 1 1 0
1  16 0 0 6.28318530717959
2  9 10 0 0 6.28318530717959
2  10 2 0 0 6.28318530717959
0

0101100
+35 0 -35 0 *
Ed
 1e-07 1 1 0
1  17 0 6 11
3  11 12CN 2 0 6 11
0

0101000
+71 0 -35 0 *
Wi

0101100
-34 0 +33 0 +70 0 -33 0 *
Fa
0  1e-07 2 0

0101000
+32 0 *
Ed
 1.5e-07 1 1 0
1  18 0 0 144.275
2  13 11 0 0 144.275
2  14 10 0 0 144.275
0

0101000
+58 0 -52 0 *
Wi

0101100
-56 0 +30 0 -66 0 +51 1 *
Wi

0101100
-34 0 *
Fa
0  1e-07 10 0

0101000
+29 0 +28 0 *
Ed
 1e-07 1 1 0
1  19 0 0 144.275
0

0101000
+60 0 -60 2 *
Wi

0101100
+47 0 -26 0 -59 0 +59 2 *
Fa
0  1e-07 12 0

0101000
+25 0 *
Wi

0101100
-57 0 +26 0 -30 0 +50 2 *
Ve
1.00000254211497e-07
961.133768304042 52.1375 1279.82016257935
0 0

0101101
*
Ed
 1e-07 1 1 0
1  20 0 0 6.28318530717959
2  15 11 0 0 6.28318530717959
2  16 9 0 0 6.28318530717959
0

0101100
+22 0 -22 0 *
Wi

0101100
-21 0 *
Ve
1.00000254211497e-07
961.133768304042 24 1279.82016257935
0 0

0101101
*
Ed
 1e-07 1 1 0
1  21 0 0 6.28318530717959
2  17 11 0 0 6.28318530717959
2  18 8 0 0 6.28318530717959
0

0101100
+19 0 -19 0 *
Wi

0101100
-18 0 *
Ve
1.00000254211497e-07
961.133768304042 -52.1375 1279.82016257935
0 0

0101101
*
Ed
 1e-07 1 1 0
1  22 0 0 6.28318530717959
2  19 11 0 0 6.28318530717959
2  20 7 0 0 6.28318530717959
0

0101100
+16 0 -16 0 *
Wi

0101100
-15 0 *
Fa
0  1e-07 11 0

0101000
+23 0 +20 0 +17 0 +14 0 *
Ed
 1e-07 1 1 0
1  23 0 3.99999999999978 8.99999999999994
3  21 22CN 7 0 3.99999999999978 8.99999999999994
0

0101000
+45 0 -16 0 *
Wi

0101100
-15 0 +12 0 +44 0 -12 0 *
Fa
0  1e-07 7 0

0101000
+11 0 *
Ed
 1e-07 1 1 0
1  24 0 3.99999999999978 8.99999999999994
3  23 24CN 8 0 3.99999999999978 8.99999999999994
0

0101000
+42 0 -19 0 *
Wi

0101100
-18 0 +9 0 +41 0 -9 0 *
Fa
0  1e-07 8 0

0101000
+8 0 *
Ed
 1e-07 1 1 0
1  25 0 3.99999999999978 8.99999999999994
3  25 26CN 9 0 3.99999999999978 8.99999999999994
0

0101000
+39 0 -22 0 *
Wi

0101100
-21 0 +6 0 +38 0 -6 0 *
Fa
0  1e-07 9 0

0101000
+5 0 *
Sh

0101100
+68 0 +63 0 +54 0 +48 0 +36 0 -31 0 +27 0 +24 0 +13 0 -10 0 
-7 0 -4 0 *
So

0100000
+3 0 *
Co

1100000
+2 0 *

+1 0 