
CASCADE Topology V1, (c) Matra-Datavision
Locations 5
1
1.000000000000000 0.000000000000000 0.000000000000000 0.000000000000000 
0.000000000000000 1.000000000000000 0.000000000000000 0.000000000000000 
0.000000000000000 0.000000000000000 1.000000000000000 0.000000000000000 
1
1.000000000000000 0.000000000000000 0.000000000000000 0.000000000000000 
0.000000000000000 1.000000000000000 0.000000000000000 0.000000000000000 
0.000000000000000 0.000000000000000 1.000000000000000 0.000000000000000 
2  2 -1 0
1
1.000000000000000 0.000000000000000 0.000000000000000 0.000000000000000 
0.000000000000000 1.000000000000000 0.000000000000000 0.000000000000000 
0.000000000000000 0.000000000000000 1.000000000000000 564.970777988614714 
2  2 -1 4 -1 0
Curve2ds 0
Curves 18
1 -140.00000000000000000 0.00000000000000000 0.00000000000000000 0.00000000000000000 0.00000000000000000 1.00000000000000000 
1 -90.00000000000000000 0.00000000000000000 0.00000000000000000 0.00000000000000000 0.00000000000000000 1.00000000000000000 
1 -140.00000000000000000 0.00000000000000000 0.00000000000000000 1.00000000000000000 0.00000000000000000 0.00000000000000000 
1 -140.00000000000000000 0.00000000000000000 0.00000000000000000 1.00000000000000000 0.00000000000000000 0.00000000000000000 
1 -90.00000000000000000 8.00000000000000000 0.00000000000000000 0.00000000000000000 0.00000000000000000 1.00000000000000000 
1 -90.00000000000000000 0.00000000000000000 0.00000000000000000 0.00000000000000000 1.00000000000000000 0.00000000000000000 
1 -90.00000000000000000 0.00000000000000000 0.00000000000000000 0.00000000000000000 1.00000000000000000 0.00000000000000000 
1 -132.00000000000000000 8.00000000000000000 0.00000000000000000 0.00000000000000000 0.00000000000000000 1.00000000000000000 
1 -90.00000000000000000 8.00000000000000000 0.00000000000000000 -1.00000000000000000 0.00000000000000000 0.00000000000000000 
1 -90.00000000000000000 8.00000000000000000 0.00000000000000000 -1.00000000000000000 0.00000000000000000 0.00000000000000000 
1 -132.00000000000000000 40.00000000000000000 0.00000000000000000 0.00000000000000000 0.00000000000000000 1.00000000000000000 
1 -132.00000000000000000 8.00000000000000000 0.00000000000000000 0.00000000000000000 1.00000000000000000 0.00000000000000000 
1 -132.00000000000000000 8.00000000000000000 0.00000000000000000 0.00000000000000000 1.00000000000000000 0.00000000000000000 
1 -140.00000000000000000 40.00000000000000000 0.00000000000000000 0.00000000000000000 0.00000000000000000 1.00000000000000000 
1 -132.00000000000000000 40.00000000000000000 0.00000000000000000 -1.00000000000000000 0.00000000000000000 0.00000000000000000 
1 -132.00000000000000000 40.00000000000000000 0.00000000000000000 -1.00000000000000000 0.00000000000000000 0.00000000000000000 
1 -140.00000000000000000 40.00000000000000000 0.00000000000000000 0.00000000000000000 -1.00000000000000000 0.00000000000000000 
1 -140.00000000000000000 40.00000000000000000 0.00000000000000000 0.00000000000000000 -1.00000000000000000 0.00000000000000000 
Polygon3D 0
PolygonOnTriangulations 0
Surfaces 8
1 -140.00000000000000000 0.00000000000000000 0.00000000000000000 0.00000000000000000 1.00000000000000000 0.00000000000000000 1.00000000000000000 0.00000000000000000 0.00000000000000000 0.00000000000000000 0.00000000000000000 -1.00000000000000000 
1 -90.00000000000000000 0.00000000000000000 0.00000000000000000 -1.00000000000000000 0.00000000000000000 0.00000000000000000 0.00000000000000000 1.00000000000000000 0.00000000000000000 0.00000000000000000 0.00000000000000000 -1.00000000000000000 
1 -90.00000000000000000 8.00000000000000000 0.00000000000000000 0.00000000000000000 -1.00000000000000000 0.00000000000000000 -1.00000000000000000 0.00000000000000000 0.00000000000000000 -0.00000000000000000 -0.00000000000000000 -1.00000000000000000 
1 -132.00000000000000000 8.00000000000000000 0.00000000000000000 -1.00000000000000000 0.00000000000000000 0.00000000000000000 0.00000000000000000 1.00000000000000000 0.00000000000000000 0.00000000000000000 0.00000000000000000 -1.00000000000000000 
1 -132.00000000000000000 40.00000000000000000 0.00000000000000000 0.00000000000000000 -1.00000000000000000 0.00000000000000000 -1.00000000000000000 0.00000000000000000 0.00000000000000000 -0.00000000000000000 -0.00000000000000000 -1.00000000000000000 
1 -140.00000000000000000 40.00000000000000000 0.00000000000000000 1.00000000000000000 0.00000000000000000 0.00000000000000000 0.00000000000000000 -1.00000000000000000 0.00000000000000000 0.00000000000000000 0.00000000000000000 -1.00000000000000000 
1 -122.46666666666666856 12.53333333333333321 0.00000000000000000 0.00000000000000000 0.00000000000000000 1.00000000000000000 1.00000000000000000 0.00000000000000000 -0.00000000000000000 -0.00000000000000000 1.00000000000000000 0.00000000000000000 
1 -122.46666666666666856 12.53333333333333321 0.00000000000000000 0.00000000000000000 0.00000000000000000 1.00000000000000000 1.00000000000000000 0.00000000000000000 -0.00000000000000000 -0.00000000000000000 1.00000000000000000 0.00000000000000000 
Triangulations 0

TShapes 48
Ve
0.000000100000000
-140.000000000000000 0.000000000000000 0.000000000000000
0 0

0101101
*
Ve
0.000000100000000
-140.000000000000000 0.000000000000000 564.970777988614714
0 0

0101101
*
Ed
 0.000000100000000 1 1 0
1  1 0 0.000000000000000 564.970777988614714
0

0101000
+48 3 -47 3 *
Ve
0.000000100000000
-90.000000000000000 0.000000000000000 0.000000000000000
0 0

0101101
*
Ve
0.000000100000000
-90.000000000000000 0.000000000000000 564.970777988614714
0 0

0101101
*
Ed
 0.000000100000000 1 1 0
1  2 0 0.000000000000000 564.970777988614714
0

0101000
+45 3 -44 3 *
Ed
 0.000000100000000 1 1 0
1  3 0 0.000000000000000 50.000000000000000
0

0101000
+48 3 -45 3 *
Ed
 0.000000100000000 1 1 0
1  4 0 0.000000000000000 50.000000000000000
0

0101000
+47 5 -44 5 *
Wi

0101100
+46 0 -43 0 -42 0 +41 4 *
Fa
0  0.000000100000000 1 0

0111000
+40 0 *
Ve
0.000000100000000
-90.000000000000000 8.000000000000000 0.000000000000000
0 0

0101101
*
Ve
0.000000100000000
-90.000000000000000 8.000000000000000 564.970777988614714
0 0

0101101
*
Ed
 0.000000100000000 1 1 0
1  5 0 0.000000000000000 564.970777988614714
0

0101000
+38 3 -37 3 *
Ed
 0.000000100000000 1 1 0
1  6 0 0.000000000000000 8.000000000000000
0

0101000
+45 3 -38 3 *
Ed
 0.000000100000000 1 1 0
1  7 0 0.000000000000000 8.000000000000000
0

0101000
+44 5 -37 5 *
Wi

0101100
+43 0 -36 0 -35 0 +34 4 *
Fa
0  0.000000100000000 2 0

0111000
+33 0 *
Ve
0.000000100000000
-132.000000000000000 8.000000000000000 0.000000000000000
0 0

0101101
*
Ve
0.000000100000000
-132.000000000000000 8.000000000000000 564.970777988614714
0 0

0101101
*
Ed
 0.000000100000000 1 1 0
1  8 0 0.000000000000000 564.970777988614714
0

0101000
+31 3 -30 3 *
Ed
 0.000000100000000 1 1 0
1  9 0 0.000000000000000 42.000000000000000
0

0101000
+38 3 -31 3 *
Ed
 0.000000100000000 1 1 0
1  10 0 0.000000000000000 42.000000000000000
0

0101000
+37 5 -30 5 *
Wi

0101100
+36 0 -29 0 -28 0 +27 4 *
Fa
0  0.000000100000000 3 0

0111000
+26 0 *
Ve
0.000000100000000
-132.000000000000000 40.000000000000000 0.000000000000000
0 0

0101101
*
Ve
0.000000100000000
-132.000000000000000 40.000000000000000 564.970777988614714
0 0

0101101
*
Ed
 0.000000100000000 1 1 0
1  11 0 0.000000000000000 564.970777988614714
0

0101000
+24 3 -23 3 *
Ed
 0.000000100000000 1 1 0
1  12 0 0.000000000000000 32.000000000000000
0

0101000
+31 3 -24 3 *
Ed
 0.000000100000000 1 1 0
1  13 0 0.000000000000000 32.000000000000000
0

0101000
+30 5 -23 5 *
Wi

0101100
+29 0 -22 0 -21 0 +20 4 *
Fa
0  0.000000100000000 4 0

0111000
+19 0 *
Ve
0.000000100000000
-140.000000000000000 40.000000000000000 0.000000000000000
0 0

0101101
*
Ve
0.000000100000000
-140.000000000000000 40.000000000000000 564.970777988614714
0 0

0101101
*
Ed
 0.000000100000000 1 1 0
1  14 0 0.000000000000000 564.970777988614714
0

0101000
+17 3 -16 3 *
Ed
 0.000000100000000 1 1 0
1  15 0 0.000000000000000 8.000000000000000
0

0101000
+24 3 -17 3 *
Ed
 0.000000100000000 1 1 0
1  16 0 0.000000000000000 8.000000000000000
0

0101000
+23 5 -16 5 *
Wi

0101100
+22 0 -15 0 -14 0 +13 4 *
Fa
0  0.000000100000000 5 0

0111000
+12 0 *
Ed
 0.000000100000000 1 1 0
1  17 0 0.000000000000000 40.000000000000000
0

0101000
+17 3 -48 3 *
Ed
 0.000000100000000 1 1 0
1  18 0 0.000000000000000 40.000000000000000
0

0101000
+16 5 -47 5 *
Wi

0101100
+15 0 -46 0 -10 0 +9 4 *
Fa
0  0.000000100000000 6 0

0111000
+8 0 *
Wi

0101100
+42 0 +35 0 +28 0 +21 0 +14 0 +10 0 *
Fa
0  0.000000100000000 7 0

0111000
+6 0 *
Wi

0101100
+41 0 +34 0 +27 0 +20 0 +13 0 +9 0 *
Fa
0  0.000000100000000 8 0

0111000
+4 0 *
Sh

0101100
+39 0 +32 0 +25 0 +18 0 +11 0 +7 0 +5 0 -3 4 *
So

1100000
-2 0 *

+1 1 