DBRep_DrawableShape

CASCADE Topology V1, (c) Matra-Datavision
Locations 0
Curve2ds 111
7 0 0  7 8 2  0.016599166989133159 1.5450463204014713  0.014182366141412283 1.5392043184592188  0.011780828170303013 1.5333514754645596  0.0093944924924876903 1.5274879009802145  0.0070232996375682987 1.5216137014261508  0.0046671912480664539 1.5157289800795817  0.0023261100794233986 1.5098338370749649  0 1.503928369404 
 0.94089044820759504 8 1 8
1 0 -0 0 1 
1 0 4.1389114358025836e-13 1 0 
1 0 6.2831853071795862 1 0 
1 3.1415926535900001 3.141592653589413 -0 -1 
7 0 0  7 8 2  3.1249934866006539 1.5450463204014739  3.1274102874483929 1.5392043184591708  3.1298118254195231 1.5333514754644606  3.1321981610973642 1.5274879009800681  3.1345693539523145 1.5216137014259694  3.1369254623418534 1.5157289800793932  3.1392665435105376 1.5098338370748225  3.1415926535900001 1.503928369404 
 0.94089044820743273 8 1 8
7 0 0  4 5 2  3.1249930080800001 1.545045612307  3.1291027246229999 1.551515638448  3.133239198439 1.557964228126  3.1374024855110001 1.564391190836  3.1415926535900001 1.57079632681 
 0 5 1 5
7 0 0  4 5 2  4.6866382658959997 -5.9999999999999997e-07  4.6931082920379996 0.0049713759163090001  4.6995568817019997 0.0099622198189200008  4.705983844456 0.01497179829829  4.7123889803749996 0.02000000000465 
 0 5 1 5
7 0 0  6 42 9  3.1415926535900001 4.7123889803620003  3.1339207903420001 4.6626030458820003  3.1260193156680001 4.6128511943549997  3.117905861673 4.5631268021369999  3.109604164372 4.5134220572829999  3.1011440636810002 4.4637279595520001  3.0820825260550002 4.3533602902209996  3.0714214178780002 4.2926874259729999  3.0606441781970002 4.2319965399050004  3.0498341638480002 4.1712673288159996  3.039093298609 4.110478733871  3.017881141762 3.9880929506720002  3.0074143145379999 3.926495263014  2.9972665212099998 3.864793896803  2.9875850419719998 3.8029707844440002  2.9785291611479998 3.74101411988  2.9584029360609998 3.5899101082649998  2.9481594203229999 3.5006065533189998  2.9399953822099998 3.4110270873349999  2.9343755395770001 3.3212189687599998  2.9315716007389998 3.2312713045049999  2.9315822730579999 3.0888972312549998  2.9325416661860002 3.036459533655  2.934457278435 2.984047288283  2.93729781517 2.9316823360150002  2.9410067606879999 2.8793826505390001  2.9524174162030001 2.7470416514920002  2.9611939317479998 2.6671080480380001  2.9715720777580001 2.5874058410749998  2.9831924434129999 2.5079389204839999  2.9957093996180002 2.4286871253940001  3.0220728549759999 2.2697217556089999  3.0359312375549998 2.190014488039  3.0500900929129999 2.110444120415  3.064286834836 2.0309629582980002  3.0783250098789998 1.9515249028320001  3.1007276934850001 1.8219021183540001  3.109277324237 1.771719481536  3.1176663155619999 1.72152625852  3.1258638061099999 1.6713131578010001  3.1338452973540001 1.6210721217849999  3.1415926535900001 1.570796326792 
 0 7 0.0957329300563 5 0.21261917118699999 5 0.33074767146599998 5 0.50008262328300002 5 0.59881065964699998 5 0.750291327658 5 0.90332699233799996 5 1 7
7 0 0  6 42 9  1.5707963268089999 0.020000000006680001  1.620582261304 0.029206034344980002  1.670334112828 0.038513621851919998  1.720058505041 0.047887425249300002  1.7697632498939999 0.057289852078049999  1.819457347628 0.066681054698270001  1.9298250169590001 0.087420118755039994  1.9904978812059999 0.098741678619590004  2.0511887672740001 0.109907240989  2.111917978363 0.120834669623  2.1727065733090001 0.13143707322199999  2.2950923565079999 0.15191882625600001  2.3566900441660001 0.16178903319900001  2.4183914103770001 0.17114160004199999  2.480214522736 0.17987830395099999  2.5421711873000001 0.18790130967999999  2.6932751989149999 0.20546527899600001  2.7825787538609998 0.21415806187799999  2.8721582198450002 0.22092558608900001  2.9619663384199999 0.22552675866499999  3.0519140026740001 0.22782346789899999  3.1942880759240002 0.22781472726999999  3.2467257735250001 0.227028908546  3.2991380188970001 0.225460221997  3.351502971165 0.223124486347  3.4038026566399999 0.220050891814  3.5361436556869998 0.21049242195699999  3.616077259141 0.20306219995300001  3.6957794661040002 0.19413078412400001  3.7752463866950001 0.183894366419  3.854498181786 0.17256133593199999  4.0134635515710002 0.147980789108  4.09317081914 0.134715235174  4.1727411867650002 0.120745485587  4.2522223488810003 0.106275761461  4.3316604043479998 0.091493385966010005  4.461283188825 0.06714305895863  4.5114658256429996 0.057659922364069999  4.5616590486590001 0.048164139580889997  4.6118721493789998 0.038696792186380002  4.6621131853950004 0.029296615783109999  4.7123889803869998 0.01999999999898 
 0 7 0.0957329300563 5 0.21261917118699999 5 0.33074767146599998 5 0.50008262328300002 5 0.59881065964699998 5 0.750291327658 5 0.90332699233799996 5 1 7
7 0 0  4 5 2  3.1249930080800001 4.7381396948730004  3.129102724624 4.7316696687309996  3.133239198439 4.7252210790489997  3.1374024855120002 4.7187941163489997  3.1415926535900001 4.7123889803620003 
 0 5 1 5
7 0 0  4 5 2  1.5965470412830001 -5.9999999999999997e-07  1.5900770151420001 0.004971375916574  1.5836284254799999 0.0099622198199999998  1.577201462716 0.014971798297949999  1.5707963268089999 0.020000000006680001 
 0 5 1 5
7 0 0  8 9 2  3.1415926535900001 4.7792569377760001  3.1395558838234736 4.7740860397537013  3.1375083330598499 4.7689240661833754  3.1354499457322551 4.7637709992898118  3.1333806659318193 4.7586268258084834  3.1313004374566251 4.7534915369010422  3.1292092038526058 4.7483651280884773  3.1271069084475087 4.7432475991996199  3.1249934943787858 4.7381389543331167 
 0 9 0.05907296056619217 9
1 3.1415926535900001 9.4247779607689992 -0 -1 
1 0 -0 0 1 
7 0 0  7 8 2  0.016599166989194947 4.7381389867778054  0.014182366141464908 4.7439809887201143  0.011780828170346628 4.7498338317148461  0.0093944924925224247 4.7556974061992818  0.0070232996375942545 4.7615716057534545  0.004667191248083704 4.7674563271001489  0.0023261100794319963 4.7733514701049007  0 4.7792569377760001 
 0.9408904482083511 8 1 8
7 0 0  4 5 2  0.016599645509760001 4.7381396948730004  0.01248992896649 4.7316696687319997  0.0083534551508809996 4.725221079053  0.0041901680791370001 4.7187941163430001  0 4.712388980369 
 0 5 1 5
7 0 0  4 5 2  1.545045612307 -5.9999999999999997e-07  1.551515638448 0.0049713759163090001  1.5579642281120001 0.009962219818921  1.564391190866 0.01497179829829  1.570796326785 0.02000000000465 
 0 5 1 5
7 0 0  6 22 5  0.21001432086399999 3.1415926535900001  0.21001432086399999 3.193523467096  0.209077197017 3.2454554024240001  0.207202162237 3.2973627190410002  0.204419224939 3.349224156425  0.200782737603 3.4010221428129999  0.18952212049799999 3.5328521428099999  0.180804541894 3.6127757324209999  0.170476851111 3.6924684623870001  0.158897667366 3.7719257683120002  0.14641298235700001 3.851167305438  0.119921364596 4.0111764772529996  0.105885778899 4.0919328381659996  0.091538073909150003 4.1725479546740001  0.077151999293510007 4.2530714455669996  0.062931340848210005 4.3335512198790003  0.04044858991032 4.4637279595450003  0.031988489218400001 4.513422057264  0.023686791918979998 4.5631268021110003  0.01557333793027 4.6128511943279999  0.0076718632589149998 4.662603045849  0 4.7123889803020003 
 0 7 0.19555196607299999 5 0.49844711709099998 5 0.80853731599099998 5 1 7
7 0 0  6 22 5  0 0.22781795440300001  0.051930813506129998 0.22781795440300001  0.103862748834 0.227050378085  0.155770065451 0.225514935331  0.20763150283500001 0.22322679727299999  0.25942948922300002 0.220214031511  0.39125948921999998 0.21078557609099999  0.47118307883100002 0.203409609336  0.55087580879700004 0.194528111118  0.63033311472200004 0.18433657230200001  0.70957465184799995 0.17304314482700001  0.869583823664 0.14836707309899999  0.950340184576 0.13494161093500001  1.0309553010850001 0.12079026556  1.1114787919769999 0.106125635616  1.191958566289 0.091142418783810006  1.3221353059550001 0.066681054699620004  1.371829403684 0.05728985208397  1.4215341485270001 0.047887425255599997  1.4712585407250001 0.038513621854390001  1.5210103922380001 0.029206034346570001  1.5707963267439999 0.02000000002466 
 0 7 0.19555196607299999 5 0.49844711709099998 5 0.80853731599099998 5 1 7
7 0 0  6 22 5  0 1.570796326817  0.0077473562407819998 1.6210721217999999  0.01572884748325 1.671313157813  0.023926338028599999 1.7215262585319999  0.032315329352660002 1.7717194815449999  0.040864960105840002 1.821902118358  0.067758561385200006 1.9775095243230001  0.086521976532850001 2.0829253597780002  0.105476943778 2.188447185147  0.124135520789 2.2941831218619999  0.141765410767 2.400241725875  0.16530499770400001 2.5588254218939999  0.17260389541900001 2.6110449893040002  0.179370672102 2.6633625036440001  0.18550743327499999 2.7157787668490001  0.190921797019 2.7682886007560001  0.200214252186 2.874181185686  0.20407092422699999 2.9275674886249998  0.20702609648500001 2.9810229070799998  0.20901855594499999 3.0345285426680002  0.21001432086399999 3.088061241163  0.21001432086399999 3.1415926535900001 
 0 7 0.19334542018199999 5 0.59953038819000004 5 0.79842145251600005 5 1 7
7 0 0  6 22 5  4.712388980399 0.02000000000669  4.7626647753949998 0.029296615783829999  4.8129058114059999 0.038696792187479997  4.86311891212 0.04816413958363  4.9133121351320002 0.057659922366649997  4.9634947719479996 0.067143058959279994  5.1191021779129997 0.096374734820120003  5.2245180133679998 0.115930335279  5.330039838737 0.13483664824700001  5.435775775452 0.15264568991999999  5.5418343794649996 0.168849337061  5.7004180754830003 0.189875927434  5.7526376428940003 0.19628629753999999  5.8049551572339997 0.20213867297400001  5.8573714204389997 0.20737732705600001  5.9098812543449997 0.21195182448899999  6.015773839275 0.219742868491  6.0691601422149999 0.222940398003  6.1226155606689998 0.22537076317900001  6.1761211962580003 0.22700233814500001  6.2296538947529996 0.22781795440300001  6.2831853071800001 0.22781795440300001 
 0 7 0.19334542018199999 5 0.59953038819000004 5 0.79842145251600005 5 1 7
7 0 0  4 5 2  0.016599645509760001 1.545045612307  0.012489928966270001 1.551515638448  0.0083534551509540002 1.5579642281299999  0.0041901680774190002 1.564391190831  0 1.570796326817 
 0 5 1 5
7 0 0  4 5 2  4.7381396948730004 -5.9999999999999997e-07  4.7316696687309996 0.004971375916574  4.7252210790699998 0.0099622198200019999  4.7187941163060003 0.01497179829794  4.712388980399 0.02000000000669 
 0 5 1 5
1 0 0 1 0 
1 6.2831853071795862 0 0 1 
1 4.1389114358025836e-13 0 0 1 
1 0 1.0420791198799999 1 0 
7 0 0  5 6 2  4.7378686999497708 1.0020790847333092  4.7544470419949043 1.0100967392280118  4.7710253840400316 1.0181101619192643  4.7876037260851545 1.0261147582018744  4.8041820681302738 1.0341059358740419  4.8207604101753772 1.0420791198804467 
 4.7378685828499254 6 4.8207604101740706 6
7 0 0  5 6 2  4.7123889803849996 1.0220791198800001  4.7174850537879998 1.0180785670020001  4.722581127192 1.0140780141229999  4.7276772005960002 1.0100776776910001  4.7327732739990003 1.0060777741510001  4.7378693474029996 1.00207851988 
 1.570796326795 6 1.596276693813 6
7 0 0  5 6 2  1.570796326795 0.02  1.5657002533910001 0.01599944712148  1.5606041799879999 0.01199889424295  1.555508106584 0.0079985578107080006  1.55041203318 0.003998654271024  1.5453159597770001 -6.0000007806589995e-07 
 1.570796326795 6 1.596276693813 6
7 0 0  3 25 23  3.1415926535897931 0.83716690054161091  3.1653925979352211 0.83716650176815033  3.2129924866260775 0.83748144268963953  3.284392319662365 0.83889341203591417  3.3557921526985757 0.84123915104513169  3.4271919857349245 0.84450632942586346  3.4985918187711236 0.84867839938755718  3.5699916518073871 0.85373407395476741  3.6413914848436333 0.85964759782027123  3.712791317879832 0.86638883507897668  3.7841911509160782 0.87392343445162002  3.8555909839522404 0.88221300120741586  3.9269908169884666 0.8912152936517409  3.9983906500246147 0.90088443815554187  4.0697904830607934 0.91117116297835443  4.1411903160969921 0.92202304932442913  4.212590149133054 0.93338479848082856  4.2839899821692571 0.94519851353260265  4.3553898152052781 0.95740399466575443  4.4267896482414644 0.96993904491180738  4.4981894812774952 0.98273979089559282  4.5695893143135953 0.99574099411380701  4.6409891473497114 1.0088764363911156  4.6885890360404083 1.0176781851012204  4.7123889803857342 1.0220791198802743 
 3.1415926535897931 4 3.2129924866259247 1 3.2843923196620564 1 3.355792152698188 1 3.4271919857343196 1 3.4985918187704517 1 3.5699916518065828 1 3.6413914848427149 1 3.7127913178788465 1 3.7841911509149782 1 3.8555909839511098 1 3.9269908169872414 1 3.998390650023373 1 4.0697904830595046 1 4.1411903160956367 1 4.2125901491317679 1 4.2839899821678999 1 4.3553898152040311 1 4.4267896482401632 1 4.4981894812762953 1 4.5695893143124264 1 4.6409891473485576 1 4.7123889803846897 4
7 0 0  3 25 23  0 0.20491221933837522  0.023799944345394664 0.20491261811183589  0.071399833036183538 0.2045976771903463  0.14279966607236974 0.20318570784407272  0.21419949910848185 0.20083996883485219  0.28559933214472738 0.19757279045413115  0.35699916518085123 0.19340072049243959  0.42839899821702127 0.18834504592525331  0.49979883125316843 0.18243152205973714  0.57119866428933186 0.17569028480105597  0.64259849732543051 0.16815568542841305  0.71399833036161353 0.15986611867263312  0.78539816339773605 0.15086382622832953  0.85679799643387189 0.14119468172455488  0.92819782946998508 0.13090795690174495  0.99959766250612081 0.12005607055567506  1.0709974955421837 0.10869432139929747  1.1423973285783742 0.096880606347558101  1.2137971616144145 0.084675125214416114  1.2851969946505459 0.072140074968374282  1.3565968276866209 0.059339328984619848  1.4279966607226944 0.046338125766399209  1.4993964937587885 0.0332026834891277  1.5469963824495252 0.024400934779042843  1.5707963267948966 0.019999999999996021 
 3.1415926535897931 4 3.2129924866259247 1 3.2843923196620564 1 3.355792152698188 1 3.4271919857343196 1 3.4985918187704517 1 3.5699916518065828 1 3.6413914848427149 1 3.7127913178788465 1 3.7841911509149782 1 3.8555909839511098 1 3.9269908169872414 1 3.998390650023373 1 4.0697904830595046 1 4.1411903160956367 1 4.2125901491317679 1 4.2839899821678999 1 4.3553898152040311 1 4.4267896482401632 1 4.4981894812762953 1 4.5695893143124264 1 4.6409891473485576 1 4.7123889803846897 4
7 0 0  3 25 23  1.5707963267938523 1.0220791198802743  1.5945962711391968 1.0176781851012133  1.642196159829886 1.0088764363911111  1.7135959928659283 0.99574099411383132  1.784995825902107 0.98273979089558605  1.8563956589381165 0.96993904491180938  1.9277954919743094 0.9574039946657541  1.9991953250103269 0.94519851353260276  2.0705951580465314 0.93338479848082834  2.1419949910825959 0.92202304932442913  2.2133948241187884 0.91117116297835443  2.2847946571549849 0.90088443815554153  2.3561944901910716 0.89121529365174113  2.4275943232273578 0.88221300120741586  2.4989941562635036 0.87392343445162035  2.5703939892997556 0.86638883507897679  2.6417938223359507 0.85964759782027123  2.7131936553722005 0.85373407395476741  2.7845934884084631 0.84867839938755718  2.8559933214446622 0.84450632942586357  2.9273931544810115 0.84123915104513169  2.9987929875172203 0.83889341203591372  3.0701928205535092 0.83748144268963964  3.1177927092443651 0.83716650176815033  3.1415926535897931 0.83716690054161091 
 1.5707963267948966 4 1.6421961598310282 1 1.7135959928671598 1 1.7849958259032914 1 1.8563956589394233 1 1.9277954919755549 1 1.9991953250116865 1 2.0705951580478184 1 2.14199499108395 1 2.2133948241200816 1 2.2847946571562132 1 2.3561944901923448 1 2.4275943232284765 1 2.4989941562646081 1 2.5703939893007397 1 2.6417938223368713 1 2.7131936553730034 1 2.7845934884091346 1 2.8559933214452666 1 2.9273931544813983 1 2.9987929875175299 1 3.0701928205536615 1 3.1415926535897931 4
7 0 0  3 25 23  4.7123889803846897 0.019999999999996021  4.7361889247300812 0.024400934779042892  4.7837888134208075 0.033202683489127763  4.8551886464568312 0.046338125766399237  4.9265884794929802 0.059339328984619771  4.9979883125290359 0.072140074968374254  5.0693881455651733 0.084675125214416239  5.1407879786012112 0.096880606347558004  5.2121878116374019 0.10869432139929755  5.2835876446734655 0.12005607055567497  5.3549874777095985 0.130907956901745  5.4263873107457261 0.14119468172455482  5.497787143781804 0.15086382622832953  5.569186976817984 0.15986611867263309  5.6405868098541516 0.16815568542841311  5.7119866428902553 0.17569028480105597  5.7833864759264149 0.18243152205973714  5.8547863089625674 0.18834504592525331  5.9261861419987349 0.19340072049243953  5.997585975034859 0.19757279045413118  6.0689858080711065 0.20083996883485222  6.1403856411072146 0.20318570784407264  6.2117854741434035 0.2045976771903463  6.2593853628341911 0.20491261811183589  6.2831853071795862 0.20491221933837522 
 1.5707963267948966 4 1.6421961598310282 1 1.7135959928671598 1 1.7849958259032914 1 1.8563956589394233 1 1.9277954919755549 1 1.9991953250116865 1 2.0705951580478184 1 2.14199499108395 1 2.2133948241200816 1 2.2847946571562132 1 2.3561944901923448 1 2.4275943232284765 1 2.4989941562646081 1 2.5703939893007397 1 2.6417938223368713 1 2.7131936553730034 1 2.7845934884091346 1 2.8559933214452666 1 2.9273931544813983 1 2.9987929875175299 1 3.0701928205536615 1 3.1415926535897931 4
7 0 0  5 6 2  1.5453159597770001 1.00207851988  1.55041203318 1.0060777741510001  1.555508106584 1.0100776776910001  1.5606041799879999 1.0140780141229999  1.5657002533910001 1.0180785670020001  1.570796326795 1.0220791198800001 
 4.6869086133659996 6 4.7123889803849996 6
7 0 0  5 6 2  4.7378693474029996 -6.0000007806589995e-07  4.7327732739990003 0.003998654271024  4.7276772005960002 0.0079985578107069997  4.722581127192 0.01199889424295  4.7174850537879998 0.01599944712148  4.7123889803849996 0.02 
 4.6869086133659996 6 4.7123889803849996 6
7 0 0  5 6 2  1.462424897004462 1.0420791198805233  1.4790032390496248 1.0341059358740907  1.4955815810947879 1.0261147582018963  1.5121599231399516 1.0181101619192592  1.5287382651851167 1.0100967392279792  1.5453166072302837 1.0020790847332495 
 1.4624248970055145 6 1.5453167243299168 6
1 0 1.0420791198799999 1 0 
1 0 0 1 0 
1 0 0 1 0 
1 6.2831853071795862 0 0 1 
1 4.1389114358025836e-13 0 0 1 
7 0 0  3 25 23  4.7123889803836265 1.0220791198802743  4.7361889247289808 1.0176781851012133  4.7837888134196795 1.0088764363911111  4.8551886464557308 0.99574099411383121  4.9265884794918646 0.98273979089558683  4.9979883125279327 0.96993904491180649  5.0693881455640462 0.95740399466576465  5.1407879786001143 0.94519851353260598  5.2121878116362979 0.93338479848080502  5.2835876446724015 0.9220230493244348  5.3549874777085593 0.91117116297835554  5.4263873107447633 0.90088443815553187  5.4977871437808581 0.89121529365173646  5.5691869768171074 0.88221300120744361  5.6405868098533301 0.87392343445159915  5.7119866428895243 0.86638883507899067  5.7833864759257487 0.85964759782027855  5.8547863089619945 0.85373407395476641  5.9261861419982456 0.84867839938755441  5.9975859750344576 0.84450632942587589  6.0689858080708028 0.84123915104512792  6.1403856411070139 0.83889341203591716  6.2117854741433032 0.8374814426896301  6.2593853628341574 0.83716650176814189  6.2831853071795862 0.83716690054160736 
 1.5707963267948966 4 1.6421961598310282 1 1.7135959928671598 1 1.7849958259032914 1 1.8563956589394233 1 1.9277954919755549 1 1.9991953250116865 1 2.0705951580478184 1 2.14199499108395 1 2.2133948241200816 1 2.2847946571562132 1 2.3561944901923448 1 2.4275943232284765 1 2.4989941562646081 1 2.5703939893007397 1 2.6417938223368713 1 2.7131936553730034 1 2.7845934884091346 1 2.8559933214452666 1 2.9273931544813983 1 2.9987929875175299 1 3.0701928205536615 1 3.1415926535897931 4
7 0 0  3 25 23  1.5707963267948966 0.019999999999996021  1.5945962711402866 0.024400934779042892  1.6421961598310157 0.033202683489127763  1.7135959928670368 0.046338125766399237  1.7849958259031884 0.059339328984619771  1.8563956589392425 0.072140074968374254  1.9277954919753808 0.084675125214416239  1.9991953250114178 0.096880606347558004  2.0705951580476096 0.10869432139929755  2.1419949910836729 0.12005607055567497  2.2133948241198049 0.130907956901745  2.284794657155933 0.14119468172455482  2.3561944901920113 0.15086382622832953  2.4275943232281909 0.15986611867263309  2.4989941562643603 0.16815568542841311  2.5703939893004621 0.17569028480105597  2.641793822336624 0.18243152205973714  2.713193655372772 0.18834504592525331  2.7845934884089432 0.19340072049243953  2.8559933214450655 0.19757279045413118  2.9273931544813117 0.20083996883485222  2.9987929875174228 0.20318570784407264  3.0701928205536104 0.2045976771903463  3.117792709244398 0.20491261811183589  3.1415926535897931 0.20491221933837522 
 1.5707963267948966 4 1.6421961598310282 1 1.7135959928671598 1 1.7849958259032914 1 1.8563956589394233 1 1.9277954919755549 1 1.9991953250116865 1 2.0705951580478184 1 2.14199499108395 1 2.2133948241200816 1 2.2847946571562132 1 2.3561944901923448 1 2.4275943232284765 1 2.4989941562646081 1 2.5703939893007397 1 2.6417938223368713 1 2.7131936553730034 1 2.7845934884091346 1 2.8559933214452666 1 2.9273931544813983 1 2.9987929875175299 1 3.0701928205536615 1 3.1415926535897931 4
7 0 0  5 6 2  4.6869086133659996 1.00207851988  4.6920046867699998 1.0060777741510001  4.697100760174 1.0100776776910001  4.7021968335770001 1.0140780141229999  4.7072929069810003 1.0180785670020001  4.7123889803849996 1.0220791198800001 
 4.6869086133659996 6 4.7123889803849996 6
7 0 0  5 6 2  1.596276693813 -6.0000007806589995e-07  1.5911806204100001 0.003998654271024  1.5860845470060001 0.0079985578107069997  1.5809884736019999 0.01199889424295  1.575892400199 0.01599944712148  1.570796326795 0.02 
 4.6869086133659996 6 4.7123889803849996 6
7 0 0  5 6 2  4.6040175505937357 1.0420791198803916  4.6205958926392405 1.0341059358738391  4.6371742346847373 1.0261147582015244  4.6537525767302261 1.0181101619187667  4.6703309187757078 1.0100967392273659  4.6869092608211833 1.0020790847325154 
 1.4624248970038753 6 1.5453167243296613 6
1 0 1.0420791198799999 1 0 
7 0 0  5 6 2  1.5962760463580219 1.0020790847324299  1.6128543884035205 1.0100967392273204  1.6294327304490173 1.0181101619187616  1.6460110724945125 1.0261147582015591  1.6625894145400066 1.0341059358739133  1.6791677565855008 1.0420791198805053 
 4.7378685828496696 6 4.8207604101757129 6
7 0 0  5 6 2  1.570796326795 1.0220791198800001  1.575892400199 1.0180785670020001  1.5809884736019999 1.0140780141229999  1.5860845470060001 1.0100776776910001  1.5911806204100001 1.0060777741510001  1.596276693813 1.00207851988 
 1.570796326795 6 1.596276693813 6
7 0 0  5 6 2  4.7123889803849996 0.02  4.7072929069810003 0.01599944712148  4.7021968335770001 0.01199889424295  4.697100760174 0.0079985578107080006  4.6920046867699998 0.003998654271024  4.6869086133659996 -6.0000007806589995e-07 
 1.570796326795 6 1.596276693813 6
7 0 0  3 25 23  0 0.83716690054160736  0.023799944345428408 0.83716650176814189  0.071399833036284707 0.83748144268962998  0.14279966607257172 0.83889341203591739  0.21419949910878297 0.84123915104512781  0.28559933214512861 0.84450632942587567  0.35699916518134139 0.84867839938755452  0.42839899821759209 0.85373407395476597  0.49979883125383479 0.85964759782027889  0.57119866429006383 0.86638883507899078  0.64259849732625207 0.87392343445159892  0.71399833036249105 0.88221300120744373  0.78539816339868052 0.89121529365173646  0.85679799643483479 0.90088443815553199  0.92819782947102358 0.91117116297835532  0.99959766250718529 0.9220230493244348  1.0709974955432886 0.9333847984808048  1.14239732857947 0.94519851353260609  1.2137971616155416 0.95740399466576498  1.2851969946516517 0.96993904491180472  1.3565968276877287 0.9827397908955936  1.4279966607238261 0.99574099411380668  1.4993964937599109 1.0088764363911156  1.5469963824506154 1.0176781851012204  1.5707963267959597 1.0220791198802743 
 3.1415926535897931 4 3.2129924866259247 1 3.2843923196620564 1 3.355792152698188 1 3.4271919857343196 1 3.4985918187704517 1 3.5699916518065828 1 3.6413914848427149 1 3.7127913178788465 1 3.7841911509149782 1 3.8555909839511098 1 3.9269908169872414 1 3.998390650023373 1 4.0697904830595046 1 4.1411903160956367 1 4.2125901491317679 1 4.2839899821678999 1 4.3553898152040311 1 4.4267896482401632 1 4.4981894812762953 1 4.5695893143124264 1 4.6409891473485576 1 4.7123889803846897 4
7 0 0  3 25 23  3.1415926535897931 0.20491221933837522  3.1653925979351878 0.20491261811183589  3.2129924866259763 0.2045976771903463  3.2843923196621634 0.20318570784407272  3.3557921526982755 0.20083996883485219  3.4271919857345194 0.19757279045413115  3.4985918187706444 0.19340072049243959  3.5699916518068142 0.18834504592525331  3.6413914848429618 0.18243152205973714  3.7127913178791245 0.17569028480105597  3.7841911509152228 0.16815568542841305  3.8555909839514069 0.15986611867263312  3.9269908169875283 0.15086382622832953  3.9983906500236657 0.14119468172455488  4.0697904830597773 0.13090795690174495  4.1411903160959138 0.12005607055567506  4.2125901491319766 0.10869432139929747  4.2839899821681673 0.096880606347558101  4.3553898152042079 0.084675125214416114  4.4267896482403399 0.072140074968374282  4.4981894812764143 0.059339328984619848  4.5695893143124868 0.046338125766399209  4.6409891473485825 0.0332026834891277  4.6885890360393176 0.024400934779042843  4.7123889803846897 0.019999999999996021 
 3.1415926535897931 4 3.2129924866259247 1 3.2843923196620564 1 3.355792152698188 1 3.4271919857343196 1 3.4985918187704517 1 3.5699916518065828 1 3.6413914848427149 1 3.7127913178788465 1 3.7841911509149782 1 3.8555909839511098 1 3.9269908169872414 1 3.998390650023373 1 4.0697904830595046 1 4.1411903160956367 1 4.2125901491317679 1 4.2839899821678999 1 4.3553898152040311 1 4.4267896482401632 1 4.4981894812762953 1 4.5695893143124264 1 4.6409891473485576 1 4.7123889803846897 4
1 0 0 1 0 
7 0 0  5 6 2  4.6040142866640004 -6.0000000079439999e-07  4.6256892254080002 0.003983847155175  4.647364164152 0.0079800397363959993  4.6690391028959999 0.01198407794513  4.6907140416409998 0.015992038972790001  4.7123889803849996 0.02 
 1.4624216330740001 6 1.570796326795 6
7 0 0  5 6 2  1.4624216330740001 1.04207971988  1.4840965718179999 1.0380952727249999  1.505771510562 1.034099080144  1.5274464493069999 1.0300950419349999  1.549121388051 1.026087080907  1.570796326795 1.0220791198800001 
 1.4624216330740001 6 1.570796326795 6
1 6.2831853071795862 0 0 1 
1 4.1389114358025836e-13 0 0 1 
1 0 10.300000000000001 1 0 
1 0 3.1415926535900001 -0 -1 
7 0 0  5 6 2  1.596276693813 0.040000599999999997  1.591180620409 0.036001345728909999  1.5860845470060001 0.032001442189239997  1.5809884736019999 0.028001105757020001  1.575892400199 0.024000552878509999  1.570796326795 0.02 
 1.5453159597770001 6 1.570796326795 6
7 0 0  5 6 2  4.6869086133659996 1.04207971988  4.6920046867699998 1.0380804656089999  4.697100760174 1.03408056207  4.7021968335770001 1.0300802256370001  4.7072929069810003 1.026079672759  4.7123889803849996 1.0220791198800001 
 1.5453159597770001 6 1.570796326795 6
7 0 0  5 6 2  1.5962760463587247 0.040000035147176635  1.6128543884039088 0.031982380652441751  1.629432730449091 0.023968957961160307  1.6460110724942718 0.015964361678525267  1.6625894145394511 0.007973184006336757  1.6791677565846315 -8.6856536915947395e-14 
 1.5962759292611168 6 1.6791677565855134 6
1 0 0 1 0 
7 0 0  5 6 2  4.6040175505946008 2.4841405268003253e-14  4.6205958926398925 0.0079731840064575857  4.6371742346851752 0.015964361678655236  4.65375257673045 0.0239689579612994  4.6703309187757176 0.031982380652589945  4.6869092608209799 0.040000035147333884 
 4.6040175505940715 6 4.6869093779187256 6
7 0 0  5 6 2  4.7123889803849996 0.02  4.7072929069810003 0.024000552878509999  4.7021968335770001 0.028001105757020001  4.697100760174 0.032001442189250003  4.6920046867699998 0.036001345728909999  4.6869086133659996 0.040000599999999997 
 4.7123889803849996 6 4.7378693474029996 6
7 0 0  5 6 2  1.570796326795 1.0220791198800001  1.575892400199 1.026079672759  1.5809884736019999 1.0300802256370001  1.5860845470060001 1.03408056207  1.591180620409 1.0380804656089999  1.596276693813 1.04207971988 
 4.7123889803849996 6 4.7378693474029996 6
7 0 0  5 6 2  1.570796326795 0.02  1.5924712655390001 0.015992038972790001  1.6141462042829999 0.01198407794514  1.635821143027 0.0079800397363950001  1.6574960817719999 0.003983847155175  1.679171020516 -6.0000000079439999e-07 
 4.7123889803849996 6 4.8207636741049997 6
7 0 0  5 6 2  4.7123889803849996 1.0220791198800001  4.7340639191290004 1.026087080907  4.7557388578730002 1.0300950419349999  4.7774137966170001 1.034099080144  4.7990887353609999 1.0380952727249999  4.8207636741049997 1.04207971988 
 4.7123889803849996 6 4.8207636741049997 6
1 0 0 1 0 
1 0 0 1 0 
1 6.2831853071795862 0 0 1 
1 4.1389114358025836e-13 0 0 1 
1 0 10.300000000000001 1 0 
1 0 6.2831853071800001 -0 -1 
1 0 10.300000000000001 1 0 
1 0 0 -0 -1 
1 0 0 1 0 
7 0 0  5 6 2  1.4624248970052915 -1.2423238822699273e-13  1.4790032390506691 0.0079731840063944435  1.4955815810960467 0.015964361678678464  1.5121599231414251 0.023968957961409292  1.5287382651868051 0.031982380652786642  1.5453166072321869 0.04000003514761738 
 4.6040175505940635 6 4.6869093779194717 6
7 0 0  5 6 2  1.570796326795 0.02  1.5657002533910001 0.024000552878509999  1.5606041799879999 0.028001105757020001  1.555508106584 0.032001442189250003  1.55041203318 0.036001345728909999  1.5453159597770001 0.040000599999999997 
 4.7123889803849996 6 4.7378693474029996 6
7 0 0  5 6 2  4.7123889803849996 1.0220791198800001  4.7174850537879998 1.026079672759  4.722581127192 1.0300802256370001  4.7276772005960002 1.03408056207  4.7327732739990003 1.0380804656089999  4.7378693474029996 1.04207971988 
 4.7123889803849996 6 4.7378693474029996 6
7 0 0  5 6 2  4.7378693474029996 0.040000599999999997  4.7327732739990003 0.036001345728909999  4.7276772005960002 0.032001442189239997  4.722581127192 0.028001105757020001  4.7174850537879998 0.024000552878509999  4.7123889803849996 0.02 
 1.5453159597770001 6 1.570796326795 6
7 0 0  5 6 2  1.5453159597770001 1.04207971988  1.55041203318 1.0380804656089999  1.555508106584 1.03408056207  1.5606041799879999 1.0300802256370001  1.5657002533910001 1.026079672759  1.570796326795 1.0220791198800001 
 1.5453159597770001 6 1.570796326795 6
7 0 0  5 6 2  4.7378686999473389 0.040000035147815707  4.7544470419927949 0.031982380652959441  4.7710253840382455 0.023968957961556507  4.7876037260836917 0.015964361678800113  4.8041820681291307 0.0079731840064905714  4.82076041017456 -5.3538031576355938e-14 
 1.5962759292598592 6 1.6791677565855241 6
1 0 0 1 0 
7 0 0  5 6 2  4.7123889803849996 0.02  4.7340639191290004 0.015992038972790001  4.7557388578730002 0.01198407794514  4.7774137966170001 0.0079800397363950001  4.7990887353609999 0.003983847155175  4.8207636741049997 -6.0000000079439999e-07 
 4.7123889803849996 6 4.8207636741049997 6
7 0 0  5 6 2  1.570796326795 1.0220791198800001  1.5924712655390001 1.026087080907  1.6141462042829999 1.0300950419349999  1.635821143027 1.034099080144  1.6574960817719999 1.0380952727249999  1.679171020516 1.04207971988 
 4.7123889803849996 6 4.8207636741049997 6
1 0 0 1 0 
7 0 0  5 6 2  1.4624216330740001 -6.0000000079439999e-07  1.4840965718179999 0.003983847155175  1.505771510562 0.0079800397363959993  1.5274464493069999 0.01198407794513  1.549121388051 0.015992038972790001  1.570796326795 0.02 
 1.4624216330740001 6 1.570796326795 6
7 0 0  5 6 2  4.6040142866640004 1.04207971988  4.6256892254080002 1.0380952727249999  4.647364164152 1.034099080144  4.6690391028959999 1.0300950419349999  4.6907140416409998 1.026087080907  4.7123889803849996 1.0220791198800001 
 1.4624216330740001 6 1.570796326795 6
1 0 1.0420791198799999 1 0 
1 0 1.0420791198799999 1 0 
1 0 -3.1415926535900001 1 0 
1 0 3.1415926535900001 1 0 
1 0.61086523819799998 -6.2831853071795862 0 1 
1 9.4247779607693793 0 -1 -0 
1 0 1.0420791198799999 1 0 
1 0 1.0420791198799999 1 0 
1 0 -3.1415926535895871 1 0 
1 0 3.1415926535895862 1 0 
1 0.61086523819799998 -6.2831853071795862 0 1 
1 6.2831853071795862 0 -1 -0 
1 6.2831853071800001 0 -1 -0 
1 0.61086523819799998 0 0 1 
1 0 1.9723943332610001 1 0 
1 6.2831853071800001 -0 0 1 
1 0 -0 0 1 
1 6.2831853071795862 0 0 1 
1 4.1389114358025836e-13 0 0 1 
1 0 1.9723943332610001 1 0 
Curves 77
7 0 0  7 14 3  81.834535902512002 52.656967043258 -85.376785233109999  81.868560107335 52.700169551721999 -85.386150042020006  81.901252802467994 52.741681365017001 -85.395899984479996  81.933051919172996 52.782058549897997 -85.405185645640003  81.964097232040999 52.821478586277998 -85.413443853009994  81.994481413463006 52.860059145671997 -85.420259510779999  82.024255868238001 52.89786549974 -85.425333387419997  82.064263258264006 52.948665205864998 -85.429532871459998  82.074970554209997 52.962260881242003 -85.430390928440005  82.085591998501002 52.975747545787002 -85.430961297170001  82.096125180946999 52.989122139142999 -85.431232209260003  82.106566764186994 53.002380423668001 -85.431193096889999  82.116912483687997 53.015516984438001 -85.430834592759993  82.127157147749003 53.028525229247002 -85.430148530159997 
 0 8 0.73025822045699995 6 1 8
2 82.101699437495 53.028525229247002 -85.049999999999997 -2.4492935982949998e-16 1 -5.4385242937879999e-32 1 2.4492935982949998e-16 2.22044604925e-16 2.22044604925e-16 -5.5066650590264296e-45 -1 0.38100000000000001
2 80.901699437494997 53.028525229247002 -85.049999999999997 2.22044604925e-16 0 -1 1 0 2.22044604925e-16 0 -1 0 1.581
2 79.701699437494995 53.028525229247002 -85.049999999999997 -0 1 0 1 0 2.22044604925e-16 2.22044604925e-16 0 -1 0.38100000000000001
7 0 0  7 14 3  79.968862972477993 52.656967043258 -85.376785233109999  79.934838767654 52.700169551721999 -85.386150042020006  79.902146072522001 52.741681365018003 -85.395899984479996  79.870346955816004 52.782058549898998 -85.405185645640003  79.839301642948001 52.821478586279 -85.413443853009994  79.808917461525994 52.860059145672999 -85.420259510779999  79.779143006750004 52.897865499741002 -85.425333387419997  79.739135616724994 52.948665205866 -85.429532871459998  79.728428320779003 52.962260881242003 -85.430390928440005  79.717806876487998 52.975747545788003 -85.430961297170001  79.707273694042001 52.989122139142999 -85.431232209260003  79.696832110803001 53.002380423668001 -85.431193096889999  79.686486391301003 53.015516984438001 -85.430834592759993  79.676241727241006 53.028525229247002 -85.430148530159997 
 0 8 0.73025822046 6 1 8
7 0 0  4 5 2  79.692056176186 53.008443735409003 -85.430873686560005  79.694437570142995 53.013455930340001 -85.430937157109994  79.696838499874005 53.018473815074003 -85.430979158919996  79.699259080706994 53.023497027546 -85.430999999989993  79.701699437501006 53.028525229247002 -85.430999999999997 
 0 5 1 5
7 0 0  6 42 9  79.701699437502995 53.028525229247002 -84.668999999999997  79.720667825245002 53.019319280113997 -84.668999930460004  79.739708150477 53.010186123757002 -84.670133316709993  79.758741478272 53.001168874324001 -84.672396825540005  79.777688275732004 52.992307760293002 -84.675780275809998  79.796468411988002 52.983640124468003 -84.680266638410004  79.837628931539001 52.964895872920998 -84.69262717398  79.859887778870998 52.954931068377 -84.701030936699993  79.881631457829997 52.945368271042 -84.711000305170003  79.902712211294997 52.936262343465003 -84.722478092070006  79.922982407917004 52.927660303105 -84.735393628110003  79.961815222873 52.911455792589003 -84.764084926820004  79.980356943805006 52.903865080463 -84.779889319559999  79.997771561178993 52.896868877918997 -84.796990466189996  80.013908729310998 52.890499334295001 -84.815287548520004  80.028624205221007 52.884781476405998 -84.834664290869995  80.060654429560003 52.872498722863 -84.884122040210002  80.076333309831995 52.866640106289999 -84.91520600378  80.088430774749995 52.862217308626001 -84.947841605289995  80.096617439076994 52.859258901327003 -84.981561396060002  80.100704374198997 52.857781554056999 -85.015832435139998  80.100688820990996 52.857787175768998 -85.070076955229993  80.099290480083994 52.858292645677999 -85.0900554121  80.096499245538993 52.859301438193 -85.109924891299997  80.092336600479001 52.860811842063001 -85.129578366540002  80.086842563350004 52.862820222426002 -85.148913185759994  80.069684934435003 52.869157319688 -85.196863069960003  80.056293176856002 52.874152466181997 -85.224916975140005  80.040094737874 52.880285104530003 -85.251651768629998  80.021364555773005 52.887523226166003 -85.276767630570006  80.000406776933005 52.895817449031 -85.300012487689997  79.954424669662998 52.914475128418999 -85.342556076349993  79.929361580945994 52.924858647744003 -85.36181114243  79.90266488252 52.936178295268 -85.378724807020006  79.874667708578997 52.948341144893 -85.393119434040003  79.845701757423001 52.961228782348002 -85.404856166109994  79.797392166178 52.983213897592002 -85.419511583759999  79.778433919750995 52.991959101345003 -85.424085909789994  79.759303303083001 53.000902734116998 -85.427536028960006  79.740082845816005 53.010006401599 -85.429844268929997  79.720854459481004 53.01922870264 -85.431000072969994  79.701699437493005 53.028525229247002 -85.430999999999997 
 0 7 0.0957329300563 5 0.21261917118699999 5 0.33074767146599998 5 0.50008262328300002 5 0.59881065964699998 5 0.750291327658 5 0.90332699233799996 5 1 7
7 0 0  4 5 2  79.692056176186 53.008443735409003 -84.669126313429999  79.694437570142995 53.013455930341003 -84.669062842879995  79.696838499875 53.018473815074003 -84.669020841079998  79.699259080705005 53.023497027547997 -84.668999999999997  79.701699437502995 53.028525229247002 -84.668999999999997 
 0 5 1 5
7 0 0  8 9 2  79.676241727241006 53.028525229247002 -84.669851469829993  79.709517669516003 52.986272833188998 -84.667623053219998  79.743709895733005 52.942856978206002 -84.668788445199993  79.778776370185994 52.898331039475998 -84.673032602459998  79.814705533375999 52.852709694763 -84.680013418650006  79.851480753703001 52.806014062178001 -84.689295636820006  79.889213893055995 52.758102104186001 -84.700234151169994  79.928075102810993 52.708757769702999 -84.711988329489998  79.968862972477993 52.656967043258 -84.723214766880005 
 0 9 1 9
2 79.701699437494995 53.028525229247002 -85.049999999999997 -0 1 0 1 0 2.22044604925e-16 2.22044604925e-16 0 -1 0.38100000000000001
2 82.101699437495 53.028525229247002 -85.049999999999997 -2.4492935982949998e-16 1 -5.4385242937879999e-32 1 2.4492935982949998e-16 2.22044604925e-16 2.22044604925e-16 -5.5066650590264296e-45 -1 0.38100000000000001
7 0 0  7 14 3  81.834535902512002 52.656967043258 -84.723214766880005  81.868560107335 52.700169551721999 -84.713849957980003  81.901252802466999 52.741681365017001 -84.704100015509994  81.933051919172001 52.782058549897002 -84.694814354350001  81.964097232040004 52.821478586277003 -84.686556146979996  81.994481413461997 52.860059145671002 -84.679740489219995  82.024255868237006 52.897865499738003 -84.674666612569993  82.064263258262997 52.948665205864003 -84.670467128530007  82.074970554209003 52.962260881239999 -84.669609071549999  82.085591998500007 52.975747545786 -84.669038702829994  82.096125180946999 52.989122139141998 -84.668767790730001  82.106566764185999 53.002380423666999 -84.668806903109996  82.116912483687997 53.015516984436999 -84.669165407229997  82.127157147749003 53.028525229247002 -84.669851469829993 
 0 8 0.73025822045199995 6 1 8
7 0 0  4 5 2  82.111342698803995 53.008443735409003 -84.669126313429999  82.108961304846005 53.013455930340001 -84.669062842879995  82.106560375116004 53.018473815074003 -84.669020841079998  82.104139794282005 53.023497027546 -84.668999999999997  82.101699437489003 53.028525229247002 -84.668999999999997 
 0 5 1 5
7 0 0  6 22 5  81.702704311589997 52.857785100173999 -85.049999999999997  81.702704311589997 52.857785100173999 -85.030214360049996  81.704070189435001 52.858278834259004 -85.010428273860001  81.706802260654001 52.859266234167002 -84.990747683709998  81.710879919644995 52.860745656216999 -84.971276577189997  81.716264689694995 52.862713608728001 -84.952114773049999  81.733185934546995 52.868960692117 -84.904299338019996  81.746476879406003 52.873915521256002 -84.876208910339997  81.762580271472999 52.880008152686997 -84.849428426000003  81.781222309460006 52.887206888427002 -84.824258509689997  81.802099482119999 52.895462769574998 -84.800952001050007  81.848243063441004 52.914171089180002 -84.757984282310005  81.873601148847001 52.924670730191004 -84.738423555520001  81.900641153026996 52.936132787566002 -84.721263654769999  81.929016536302996 52.948460853721002 -84.706689626680003  81.958382348585999 52.961531606921 -84.694845674380005  82.006930462998 52.983640124467001 -84.680266638410004  82.025710599250004 52.992307760293002 -84.675780275809998  82.044657396708004 53.001168874321998 -84.672396825549995  82.063690724501996 53.010186123746998 -84.670133316709993  82.082731049730995 53.0193192801 -84.668999930460004  82.101699437462997 53.028525229247002 -84.668999999999997 
 0 7 0.19555196607299999 5 0.49844711709099998 5 0.80853731599099998 5 1 7
7 0 0  6 22 5  82.101699437486005 53.028525229247002 -85.430999999999997  82.082544415502994 53.019228702634003 -85.431000072969994  82.063316029169002 53.010006401595 -85.429844268929997  82.044095571902005 53.000902734116004 -85.427536028960006  82.024964955235006 52.991959101345003 -85.424085909789994  82.006006708810006 52.983213897592002 -85.419511583759999  81.948012813622995 52.956821571837999 -85.401918291559994  81.909852243607006 52.939973749502997 -85.38514717068  81.873585599001004 52.924481339007002 -85.363751378060002  81.839989381820004 52.910606253247998 -85.338085497720002  81.809850346133004 52.898526221993002 -85.308624439379997  81.771159980910994 52.883383185145 -85.259977909339995  81.759441960763994 52.878864937842998 -85.243222444340006  81.748807191211995 52.874820294125001 -85.225773351450002  81.739335250609003 52.871260230627001 -85.207710739619998  81.731096824933999 52.868192985061 -85.189123203890006  81.717106931805006 52.863021532079003 -85.150835289400007  81.711390326201993 52.860930854332999 -85.131122778800005  81.707058788153006 52.859358942828997 -85.111071829739998  81.704155679904005 52.858309741599001 -85.090791449310004  81.702704311589997 52.857785100173999 -85.070395468130002  81.702704311589997 52.857785100173999 -85.049999999999997 
 0 7 0.19334542018199999 5 0.59953038819000004 5 0.79842145251600005 5 1 7
7 0 0  4 5 2  82.111342698803995 53.008443735409003 -85.430873686560005  82.108961304846005 53.013455930341003 -85.430937157109994  82.106560375114 53.018473815074003 -85.430979158919996  82.104139794283995 53.023497027547997 -85.430999999989993  82.101699437486005 53.028525229247002 -85.430999999999997 
 0 5 1 5
1 82.127157147749003 53.028525229247002 -82.468999999999994 -2.22044604925e-16 0 1 
2 82.117411769672998 53.016150956842999 -85.049999999999997 -0.78561660889013274 0.61871362021210463 -1.7444192954362947e-16 -0.61871362021210463 -0.78561660889013274 -1.3738202136172327e-16 -2.2204460492508608e-16 5.5060025994097797e-29 1 0.38100000000000001
1 81.881681880372 52.716831028855999 -85.049999999999997 -0.78561660889013274 0.61871362021210463 -1.7444192954362947e-16 
2 81.298737105317002 53.660899501651997 -85.049999999999997 -0.78561660889013274 0.61871362021210463 -1.7444192954362947e-16 -0.61871362021210463 -0.78561660889013274 -1.3738202136172327e-16 -2.2204460492508608e-16 5.5060025994097797e-29 1 0.38100000000000001
3 81.339844598785007 53.628525229247003 -85.049999999999997 0 1 0 -1 0 -2.22044604925e-16 -2.22044604925e-16 0 1 0.61579378173300003 0.38100000000000001
3 81.314449437495 53.648525229246999 -85.049999999999997 -0.89964260131806839 -0.43662706042303318 -1.9976078598341518e-16 -0.43662706042303318 0.89964260131806839 -9.6950683131297381e-17 2.220446049250849e-16 -7.0935851711670671e-29 -1 0.87259822978099999 0.38100000000000001
3 81.314449437495 53.648525229246999 -85.049999999999997 -0.43662706042303318 0.89964260131806839 -9.6950683131297369e-17 -0.89964260131806839 -0.43662706042303318 -1.997607859834152e-16 -2.220446049250849e-16 7.0911199808382514e-29 1 0.423501509868 0.38100000000000001
3 81.314449437495 53.648525229246999 -85.049999999999997 -0.43662706042303318 0.89964260131806839 -9.6950683131297369e-17 -0.89964260131806839 -0.43662706042303318 -1.997607859834152e-16 -2.220446049250849e-16 7.0911199808382514e-29 1 0.423501509868 0.38100000000000001
3 81.314449437495 53.648525229246999 -85.049999999999997 -0.89964260131806839 -0.43662706042303318 -1.9976078598341518e-16 -0.43662706042303318 0.89964260131806839 -9.6950683131297381e-17 2.220446049250849e-16 -7.0935851711670671e-29 -1 0.87259822978099999 0.38100000000000001
3 81.339844598785007 53.628525229247003 -85.049999999999997 0 1 0 -1 0 -2.22044604925e-16 -2.22044604925e-16 0 1 0.61579378173300003 0.38100000000000001
2 81.298737105317002 53.660899501651997 -85.049999999999997 -0.78561660889013274 0.61871362021210463 -1.7444192954362947e-16 -0.61871362021210463 -0.78561660889013274 -1.3738202136172327e-16 -2.2204460492508608e-16 5.5060025994097797e-29 1 0.38100000000000001
1 79.676241727241006 53.028525229247002 -82.468999999999994 2.22044604925e-16 0 -1 
2 79.685987105316997 53.016150956842999 -85.049999999999997 0.78561660889013274 0.61871362021210463 1.7444192954362947e-16 -0.61871362021210463 0.78561660889013274 -1.3738202136172327e-16 -2.2204460492508608e-16 -5.5060025994097797e-29 1 0.38100000000000001
2 79.685987105316997 53.016150956842999 -85.049999999999997 0.78561660889013274 0.61871362021210463 1.7444192954362947e-16 -0.61871362021210463 0.78561660889013274 -1.3738202136172327e-16 -2.2204460492508608e-16 -5.5060025994097797e-29 1 0.38100000000000001
1 79.450257216015999 53.315470884829999 -85.049999999999997 0.78561660889013274 0.61871362021210463 1.7444192954362947e-16 
3 80.488949437494995 53.648525229246999 -85.049999999999997 0.43662706042303318 0.89964260131806839 9.6950683131297369e-17 0.89964260131806839 -0.43662706042303318 1.997607859834152e-16 2.220446049250849e-16 7.0911199808382514e-29 -1 0.423501509868 0.38100000000000001
3 80.488949437494995 53.648525229246999 -85.049999999999997 0.89964260131806839 -0.43662706042303318 1.9976078598341518e-16 0.43662706042303318 0.89964260131806839 9.6950683131297381e-17 -2.220446049250849e-16 -7.0935851711670671e-29 1 0.87259822978099999 0.38100000000000001
3 80.463554276203993 53.628525229247003 -85.049999999999997 -0 1 0 1 0 2.22044604925e-16 2.22044604925e-16 0 -1 0.61579378173300003 0.38100000000000001
2 80.504661769673007 53.660899501651997 -85.049999999999997 0.78561660889013274 0.61871362021210463 1.7444192954362947e-16 -0.61871362021210463 0.78561660889013274 -1.3738202136172327e-16 -2.2204460492508608e-16 -5.5060025994097797e-29 1 0.38100000000000001
3 80.463554276203993 53.628525229247003 -85.049999999999997 -0 1 0 1 0 2.22044604925e-16 2.22044604925e-16 0 -1 0.61579378173300003 0.38100000000000001
3 80.488949437494995 53.648525229246999 -85.049999999999997 0.89964260131806839 -0.43662706042303318 1.9976078598341518e-16 0.43662706042303318 0.89964260131806839 9.6950683131297381e-17 -2.220446049250849e-16 -7.0935851711670671e-29 1 0.87259822978099999 0.38100000000000001
3 80.488949437494995 53.648525229246999 -85.049999999999997 0.43662706042303318 0.89964260131806839 9.6950683131297369e-17 0.89964260131806839 -0.43662706042303318 1.997607859834152e-16 2.220446049250849e-16 7.0911199808382514e-29 -1 0.423501509868 0.38100000000000001
1 81.273240695167004 53.628525229247003 -85.049999999999997 2.22044604925e-16 0 -1 
2 81.314449437495 53.628525229247003 -85.049999999999997 -0 1 0 1 0 2.22044604925e-16 2.22044604925e-16 0 -1 0.38100000000000001
3 81.314449437495 53.648525229246999 -85.049999999999997 -0.43662706042303318 0.89964260131806839 -9.6950683131297369e-17 -0.89964260131806839 -0.43662706042303318 -1.997607859834152e-16 -2.220446049250849e-16 7.0911199808382514e-29 1 0.423501509868 0.38100000000000001
1 81.695449437495 53.628525229247003 -85.049999999999997 0 1 0 
2 81.314449437495 63.928525229247001 -85.049999999999997 -0 1 0 1 0 2.22044604925e-16 2.22044604925e-16 0 -1 0.38100000000000001
3 81.314449437495 53.648525229246999 -85.049999999999997 -0.89964260131806839 -0.43662706042303318 -1.9976078598341518e-16 -0.43662706042303318 0.89964260131806839 -9.6950683131297381e-17 2.220446049250849e-16 -7.0935851711670671e-29 -1 0.87259822978099999 0.38100000000000001
3 81.314449437495 53.680850362146998 -85.049999999999997 -0.78561660889013274 0.61871362021210463 -1.7444192954362947e-16 0.61871362021210463 0.78561660889013274 1.3738202136172327e-16 2.2204460492508608e-16 -5.5060025994097797e-29 -1 0.61579378173300003 0.38100000000000001
2 81.314449437495 53.628525229247003 -85.049999999999997 -0 1 0 1 0 2.22044604925e-16 2.22044604925e-16 0 -1 0.38100000000000001
3 81.314449437495 53.680850362146998 -85.049999999999997 -0.78561660889013274 0.61871362021210463 -1.7444192954362947e-16 0.61871362021210463 0.78561660889013274 1.3738202136172327e-16 2.2204460492508608e-16 -5.5060025994097797e-29 -1 0.61579378173300003 0.38100000000000001
3 81.314449437495 53.648525229246999 -85.049999999999997 -0.89964260131806839 -0.43662706042303318 -1.9976078598341518e-16 -0.43662706042303318 0.89964260131806839 -9.6950683131297381e-17 2.220446049250849e-16 -7.0935851711670671e-29 -1 0.87259822978099999 0.38100000000000001
3 81.314449437495 53.648525229246999 -85.049999999999997 -0.43662706042303318 0.89964260131806839 -9.6950683131297369e-17 -0.89964260131806839 -0.43662706042303318 -1.997607859834152e-16 -2.220446049250849e-16 7.0911199808382514e-29 1 0.423501509868 0.38100000000000001
2 81.314449437495 53.628525229247003 -85.049999999999997 -0 1 0 1 0 2.22044604925e-16 2.22044604925e-16 0 -1 0.38100000000000001
2 80.488949437494995 53.628525229247003 -85.049999999999997 -0 1 0 1 0 2.22044604925e-16 2.22044604925e-16 0 -1 0.38100000000000001
1 80.869949437494995 53.628525229247003 -85.049999999999997 0 1 0 
2 80.488949437494995 63.928525229247001 -85.049999999999997 -0 1 0 1 0 2.22044604925e-16 2.22044604925e-16 0 -1 0.38100000000000001
2 80.488949437494995 63.928525229247001 -85.049999999999997 -0 1 0 1 0 2.22044604925e-16 2.22044604925e-16 0 -1 0.38100000000000001
2 80.488949437494995 53.628525229247003 -85.049999999999997 -0 1 0 1 0 2.22044604925e-16 2.22044604925e-16 0 -1 0.38100000000000001
3 80.488949437494995 53.680850362146998 -85.049999999999997 0.78561660889013274 0.61871362021210463 1.7444192954362947e-16 -0.61871362021210463 0.78561660889013274 -1.3738202136172327e-16 -2.2204460492508608e-16 -5.5060025994097797e-29 1 0.61579378173300003 0.38100000000000001
3 80.488949437494995 53.648525229246999 -85.049999999999997 0.89964260131806839 -0.43662706042303318 1.9976078598341518e-16 0.43662706042303318 0.89964260131806839 9.6950683131297381e-17 -2.220446049250849e-16 -7.0935851711670671e-29 1 0.87259822978099999 0.38100000000000001
3 80.488949437494995 53.648525229246999 -85.049999999999997 0.89964260131806839 -0.43662706042303318 1.9976078598341518e-16 0.43662706042303318 0.89964260131806839 9.6950683131297381e-17 -2.220446049250849e-16 -7.0935851711670671e-29 1 0.87259822978099999 0.38100000000000001
3 80.488949437494995 53.680850362146998 -85.049999999999997 0.78561660889013274 0.61871362021210463 1.7444192954362947e-16 -0.61871362021210463 0.78561660889013274 -1.3738202136172327e-16 -2.2204460492508608e-16 -5.5060025994097797e-29 1 0.61579378173300003 0.38100000000000001
2 80.488949437494995 53.628525229247003 -85.049999999999997 -0 1 0 1 0 2.22044604925e-16 2.22044604925e-16 0 -1 0.38100000000000001
3 80.488949437494995 53.648525229246999 -85.049999999999997 0.43662706042303318 0.89964260131806839 9.6950683131297369e-17 0.89964260131806839 -0.43662706042303318 1.997607859834152e-16 2.220446049250849e-16 7.0911199808382514e-29 -1 0.423501509868 0.38100000000000001
1 80.530158179823005 53.628525229247003 -85.049999999999997 -2.22044604925e-16 0 1 
2 80.488949437494995 53.628525229247003 -85.049999999999997 -0 1 0 1 0 2.22044604925e-16 2.22044604925e-16 0 -1 0.38100000000000001
3 80.488949437494995 53.648525229246999 -85.049999999999997 0.43662706042303318 0.89964260131806839 9.6950683131297369e-17 0.89964260131806839 -0.43662706042303318 1.997607859834152e-16 2.220446049250849e-16 7.0911199808382514e-29 -1 0.423501509868 0.38100000000000001
2 81.298737105317002 53.660899501651997 -85.049999999999997 -0.78561660889013274 0.61871362021210463 -1.7444192954362947e-16 -0.61871362021210463 -0.78561660889013274 -1.3738202136172327e-16 -2.2204460492508608e-16 5.5060025994097797e-29 1 0.38100000000000001
2 81.298737105317002 53.660899501651997 -85.049999999999997 -0.78561660889013274 0.61871362021210463 -1.7444192954362947e-16 -0.61871362021210463 -0.78561660889013274 -1.3738202136172327e-16 -2.2204460492508608e-16 5.5060025994097797e-29 1 0.38100000000000001
2 82.014449437495003 63.928525229247001 -85.049999999999997 3.3306690738749998e-16 0 -1 -1 0 -3.3306690738749998e-16 0 1 0 0.31900000000000001
2 81.441043006491995 64.330028734693002 -85.049999999999997 -0.5735764363510113 -0.81915204428901622 -1.9103932980580376e-16 -0.81915204428901622 0.5735764363510113 -2.7283243807150546e-16 3.3306690738752852e-16 1.5653958587979453e-29 -1 0.38100000000000001
2 80.504661769673007 53.660899501651997 -85.049999999999997 0.78561660889013274 0.61871362021210463 1.7444192954362947e-16 -0.61871362021210463 0.78561660889013274 -1.3738202136172327e-16 -2.2204460492508608e-16 -5.5060025994097797e-29 1 0.38100000000000001
2 80.504661769673007 53.660899501651997 -85.049999999999997 0.78561660889013274 0.61871362021210463 1.7444192954362947e-16 -0.61871362021210463 0.78561660889013274 -1.3738202136172327e-16 -2.2204460492508608e-16 -5.5060025994097797e-29 1 0.38100000000000001
2 79.788949437495006 63.928525229247001 -85.049999999999997 -1.110223024625e-16 0 1 1 0 1.110223024625e-16 0 1 -0 0.31900000000000001
2 80.362355868497005 64.330028734693002 -85.049999999999997 0.5735764363510113 -0.81915204428901622 6.3679776601941255e-17 0.81915204428901622 0.5735764363510113 9.0944146023841797e-17 -1.1102230246251878e-16 6.8717180415736575e-30 1 0.38100000000000001
2 80.362355868497005 64.330028734693002 -85.049999999999997 0.5735764363510113 -0.81915204428901622 6.3679776601941255e-17 0.81915204428901622 0.5735764363510113 9.0944146023841797e-17 -1.1102230246251878e-16 6.8717180415736575e-30 1 0.38100000000000001
2 82.572361919244003 65.945719584928 -85.049999999999997 0.5735764363510113 0.81915204428901622 1.273595532039025e-16 0.81915204428901622 -0.5735764363510113 1.8188829204770361e-16 2.2204460492506543e-16 1.8636838885846404e-29 -1 0.38100000000000001
1 81.753139935367003 64.111496112443007 -85.049999999999997 0.5735764363510113 0.81915204428901622 1.273595532039025e-16 
1 80.674452797371003 64.548561356942997 -85.049999999999997 -0.5735764363510113 0.81915204428901622 -1.273595532039025e-16 
2 79.231036955746006 65.945719584928 -85.049999999999997 -0.5735764363510113 0.81915204428901622 -1.273595532039025e-16 0.81915204428901622 0.5735764363510113 1.8188829204770361e-16 2.2204460492506543e-16 -1.8636838885846404e-29 -1 0.38100000000000001
Polygon3D 0
PolygonOnTriangulations 0
Surfaces 35
5 80.901699437494997 53.028525229247002 -85.049999999999997 2.22044604925e-16 0 -1 1 0 2.22044604925e-16 0 -1 0 1.2 0.38100000000000001
1 82.117411769672998 53.016150956842999 -85.049999999999997 -0.78561660889013274 0.61871362021210463 -1.7444192954362947e-16 -0.61871362021210463 -0.78561660889013274 -1.3738202136172327e-16 -2.2204460492508608e-16 5.5060025994097797e-29 1 
1 75.739699437495005 53.028525229247002 -79.888000000000005 0 1 0 1 -0 2.22044604925e-16 2.22044604925e-16 0 -1 
1 75.739699437495005 53.028525229247002 -79.888000000000005 0 1 0 1 -0 2.22044604925e-16 2.22044604925e-16 0 -1 
1 79.685987105316997 53.016150956842999 -85.049999999999997 0.78561660889013274 0.61871362021210463 1.7444192954362947e-16 -0.61871362021210463 0.78561660889013274 -1.3738202136172327e-16 -2.2204460492508608e-16 -5.5060025994097797e-29 1 
2 79.685987105316997 53.016150956842999 -85.049999999999997 0.78561660889013274 0.61871362021210463 1.7444192954362947e-16 -0.61871362021210463 0.78561660889013274 -1.3738202136172327e-16 -2.2204460492508608e-16 -5.5060025994097797e-29 1 0.38100000000000001
2 82.117411769672998 53.016150956842999 -85.049999999999997 -0.78561660889013274 0.61871362021210463 -1.7444192954362947e-16 -0.61871362021210463 -0.78561660889013274 -1.3738202136172327e-16 -2.2204460492508608e-16 5.5060025994097797e-29 1 0.38100000000000001
1 81.298737105317002 53.660899501651997 -85.049999999999997 -0.78561660889013274 0.61871362021210463 -1.7444192954362947e-16 -0.61871362021210463 -0.78561660889013274 -1.3738202136172327e-16 -2.2204460492508608e-16 5.5060025994097797e-29 1 
1 81.314449437495 53.628525229247003 -85.049999999999997 0 1 0 1 -0 2.22044604925e-16 2.22044604925e-16 0 -1 
2 81.314449437495 53.628525229247003 -85.049999999999997 0 1 0 1 -0 2.22044604925e-16 2.22044604925e-16 0 -1 0.38100000000000001
2 81.314449437495 53.628525229247003 -85.049999999999997 0 1 0 1 -0 2.22044604925e-16 2.22044604925e-16 0 -1 0.38100000000000001
2 81.314449437495 53.628525229247003 -85.049999999999997 0 1 0 1 -0 2.22044604925e-16 2.22044604925e-16 0 -1 0.38100000000000001
1 81.314449437495 53.628525229247003 -85.049999999999997 0 1 0 1 -0 2.22044604925e-16 2.22044604925e-16 0 -1 
2 80.488949437494995 53.628525229247003 -85.049999999999997 0 1 0 1 -0 2.22044604925e-16 2.22044604925e-16 0 -1 0.38100000000000001
2 80.488949437494995 53.628525229247003 -85.049999999999997 0 1 0 1 -0 2.22044604925e-16 2.22044604925e-16 0 -1 0.38100000000000001
1 80.488949437494995 53.628525229247003 -85.049999999999997 0 1 0 1 -0 2.22044604925e-16 2.22044604925e-16 0 -1 
1 80.504661769673007 53.660899501651997 -85.049999999999997 0.78561660889013274 0.61871362021210463 1.7444192954362947e-16 -0.61871362021210463 0.78561660889013274 -1.3738202136172327e-16 -2.2204460492508608e-16 -5.5060025994097797e-29 1 
1 80.488949437494995 53.628525229247003 -85.049999999999997 0 1 0 1 -0 2.22044604925e-16 2.22044604925e-16 0 -1 
2 80.488949437494995 53.628525229247003 -85.049999999999997 0 1 0 1 -0 2.22044604925e-16 2.22044604925e-16 0 -1 0.38100000000000001
1 81.314449437495 53.628525229247003 -85.049999999999997 0 1 0 1 -0 2.22044604925e-16 2.22044604925e-16 0 -1 
2 82.117411769672998 53.016150956842999 -85.049999999999997 -0.78561660889013274 0.61871362021210463 -1.7444192954362947e-16 -0.61871362021210463 -0.78561660889013274 -1.3738202136172327e-16 -2.2204460492508608e-16 5.5060025994097797e-29 1 0.38100000000000001
5 82.014449437495003 63.928525229247001 -85.049999999999997 3.3306690738749998e-16 0 -1 -1 0 -3.3306690738749998e-16 0 1 0 0.69999999999999996 0.38100000000000001
2 82.117411769672998 53.016150956842999 -85.049999999999997 -0.78561660889013274 0.61871362021210463 -1.7444192954362947e-16 -0.61871362021210463 -0.78561660889013274 -1.3738202136172327e-16 -2.2204460492508608e-16 5.5060025994097797e-29 1 0.38100000000000001
1 81.298737105317002 53.660899501651997 -85.049999999999997 -0.78561660889013274 0.61871362021210463 -1.7444192954362947e-16 -0.61871362021210463 -0.78561660889013274 -1.3738202136172327e-16 -2.2204460492508608e-16 5.5060025994097797e-29 1 
1 81.298737105317002 53.660899501651997 -85.049999999999997 -0.78561660889013274 0.61871362021210463 -1.7444192954362947e-16 -0.61871362021210463 -0.78561660889013274 -1.3738202136172327e-16 -2.2204460492508608e-16 5.5060025994097797e-29 1 
1 80.488949437494995 53.628525229247003 -85.049999999999997 0 1 0 1 -0 2.22044604925e-16 2.22044604925e-16 0 -1 
5 79.788949437495006 63.928525229247001 -85.049999999999997 -1.110223024625e-16 0 1 1 0 1.110223024625e-16 0 1 -0 0.69999999999999996 0.38100000000000001
1 80.504661769673007 53.660899501651997 -85.049999999999997 0.78561660889013274 0.61871362021210463 1.7444192954362947e-16 -0.61871362021210463 0.78561660889013274 -1.3738202136172327e-16 -2.2204460492508608e-16 -5.5060025994097797e-29 1 
2 79.685987105316997 53.016150956842999 -85.049999999999997 0.78561660889013274 0.61871362021210463 1.7444192954362947e-16 -0.61871362021210463 0.78561660889013274 -1.3738202136172327e-16 -2.2204460492508608e-16 -5.5060025994097797e-29 1 0.38100000000000001
2 79.685987105316997 53.016150956842999 -85.049999999999997 0.78561660889013274 0.61871362021210463 1.7444192954362947e-16 -0.61871362021210463 0.78561660889013274 -1.3738202136172327e-16 -2.2204460492508608e-16 -5.5060025994097797e-29 1 0.38100000000000001
1 80.504661769673007 53.660899501651997 -85.049999999999997 0.78561660889013274 0.61871362021210463 1.7444192954362947e-16 -0.61871362021210463 0.78561660889013274 -1.3738202136172327e-16 -2.2204460492508608e-16 -5.5060025994097797e-29 1 
2 81.441043006491995 64.330028734693002 -85.049999999999997 0.5735764363510113 0.81915204428901622 1.273595532039025e-16 0.81915204428901622 -0.5735764363510113 1.8188829204770361e-16 2.2204460492506543e-16 1.8636838885846404e-29 -1 0.38100000000000001
2 80.362355868497005 64.330028734693002 -85.049999999999997 -0.5735764363510113 0.81915204428901622 -1.273595532039025e-16 0.81915204428901622 0.5735764363510113 1.8188829204770361e-16 2.2204460492506543e-16 -1.8636838885846404e-29 -1 0.38100000000000001
1 82.572361919244003 65.945719584928 -85.049999999999997 0.5735764363510113 0.81915204428901622 1.273595532039025e-16 0.81915204428901622 -0.5735764363510113 1.8188829204770361e-16 2.2204460492506543e-16 1.8636838885846404e-29 -1 
1 79.231036955746006 65.945719584928 -85.049999999999997 -0.5735764363510113 0.81915204428901622 -1.273595532039025e-16 0.81915204428901622 0.5735764363510113 1.8188829204770361e-16 2.2204460492506543e-16 -1.8636838885846404e-29 -1 
Triangulations 0

TShapes 193
Ve
1e-07
82.111342411426 53.008444340262 -85.43087369422
0 0

0101101
*
Ve
1e-07
82.127157147749 53.028525229247 -85.43014853016
0 0

0101101
*
Ed
 1e-07 1 1 0
1  1 0 0.940890448207595 1
2  1 1 0 0.940890448207595 1
4 C0 1 0 2 0
0

0101000
+193 0 -192 0 *
Ve
1e-07
82.482699437495 53.028525229247 -85.05
0 0

0101101
*
Ed
 1e-07 1 1 0
1  2 0 0 1.50392836940264
2  2 1 0 0 1.50392836940264
4 C0 1 0 3 0
0

0101000
+190 0 -192 0 *
Ve
1e-07
79.320699437495 53.028525229247 -85.05
0 0

0101101
*
Ed
 1e-07 1 1 0
1  3 0 0 3.14159265358979
3  3 4CN 1 0 0 3.14159265358979
0

0101000
+190 0 -188 0 *
Ve
1e-07
79.676241727241 53.028525229247 -85.43014853016
0 0

0101101
*
Ed
 1e-07 1 1 0
1  4 0 1.63766428418712 3.14159265358979
2  5 1 0 1.63766428418712 3.14159265358979
4 C0 1 0 4 0
0

0101000
+186 0 -188 0 *
Ve
1e-07
79.692056463564 53.008444340262 -85.43087369422
0 0

0101101
*
Ed
 1e-07 1 1 0
1  5 0 0.940890448207433 1
2  6 1 0 0.940890448207433 1
4 C0 1 0 5 0
0

0101000
+184 0 -186 0 *
Ve
1e-07
79.701699437495 53.028525229247 -85.431
0 0

0101101
*
Ed
 1e-07 1 1 0
1  6 0 3.0169069898817e-05 1
2  7 1 0 3.0169069898817e-05 1
2  8 6 0 3.0169069898817e-05 1
4 C0 1 0 6 0
0

0101000
+184 0 -182 0 *
Ve
1e-07
79.701699437495 53.028525229247 -84.669
0 0

0101101
*
Ed
 1e-07 1 1 0
1  7 0 0 1
2  9 1 0 0 1
2  10 6 0 0 1
4 C0 1 0 6 0
0

0101000
+180 0 -182 0 *
Ve
1e-07
79.692056463564 53.008444340262 -84.66912630577
0 0

0101101
*
Ed
 1e-07 1 1 0
1  8 0 3.01690698894085e-05 1
2  11 1 0 3.01690698894085e-05 1
2  12 6 0 3.01690698894085e-05 1
4 C0 1 0 6 0
0

0101000
+178 0 -180 0 *
Ve
1e-07
79.676241727241 53.028525229247 -84.66985146983
0 0

0101101
*
Ed
 1e-07 1 1 0
1  9 0 0 0.0590729605661922
2  13 1 0 0 0.0590729605661922
4 C0 1 0 5 0
0

0101000
+176 0 -178 0 *
Ed
 1e-07 1 1 0
1  10 0 3.14159265358979 4.64552102299423
2  14 1 0 3.14159265358979 4.64552102299423
4 C0 1 0 4 0
0

0101000
+188 0 -176 0 *
Ve
1e-07
82.127157147749 53.028525229247 -84.66985146983
0 0

0101101
*
Ed
 1e-07 1 1 0
1  11 0 4.77925693777519 6.28318530717959
2  15 1 0 4.77925693777519 6.28318530717959
4 C0 1 0 3 0
0

0101000
+173 0 -190 0 *
Ve
1e-07
82.111342411426 53.008444340262 -84.66912630577
0 0

0101101
*
Ed
 1e-07 1 1 0
1  12 0 0.940890448208351 1
2  16 1 0 0.940890448208351 1
4 C0 1 0 2 0
0

0101000
+171 0 -173 0 *
Ve
1e-07
82.101699437495 53.028525229247 -84.669
0 0

0101101
*
Ed
 1e-07 1 1 0
1  13 0 3.01690698911189e-05 1
2  17 1 0 3.01690698911189e-05 1
2  18 7 0 3.01690698911189e-05 1
4 C0 1 0 7 0
0

0101000
+171 0 -169 0 *
Ve
1e-07
81.70270431159 52.857785100174 -85.05
0 0

0101101
*
Ed
 1e-07 1 1 0
1  14 0 0 1
2  19 1 0 0 1
2  20 7 0 0 1
4 C0 1 0 7 0
0

0101000
+167 0 -169 0 *
Ve
1e-07
82.101699437495 53.028525229247 -85.431
0 0

0101101
*
Ed
 1e-07 1 1 0
1  15 0 0 1
2  21 1 0 0 1
2  22 7 0 0 1
4 C0 1 0 7 0
0

0101000
+165 0 -167 0 *
Ed
 1e-07 1 1 0
1  16 0 3.01690698911297e-05 1
2  23 1 0 3.01690698911297e-05 1
2  24 7 0 3.01690698911297e-05 1
4 C0 1 0 7 0
0

0101000
+193 0 -165 0 *
Wi

0101100
+191 0 -189 0 +187 0 -185 0 -183 0 +181 0 -179 0 -177 0 -175 0 -174 0 
-187 0 -172 0 -170 0 +168 0 -166 0 -164 0 -163 0 *
Fa
0  1e-07 1 0

0111000
+162 0 *
Ed
 1e-07 1 1 0
1  17 0 -2.96114853016 -2.20085146983
4 C0 3 0 2 0
0

0101000
+192 0 -173 0 *
Wi

0101100
+172 0 +189 0 +160 0 *
Fa
0  1e-07 3 0

0111000
+159 0 *
Ed
 1e-07 1 1 0
1  18 0 1.54504639308536 4.7381389140949
2  25 7 0 1.54504639308536 4.7381389140949
4 C0 2 0 7 0
0

0101000
+171 0 -193 0 *
Wi

0101100
-170 0 +157 0 +191 0 +160 0 *
Fa
0  1e-07 2 0

0111000
+156 0 *
Ve
1e-07
81.063007216016 53.361579573664 -85.05
0 0

0101101
*
Ed
 1e-07 1 1 0
1  19 0 0.227817954402712 1.04207911988027
3  26 27CN 7 0 0.227817954402712 1.04207911988027
0

0101000
+167 0 -154 0 *
Ve
1e-07
81.273240695167 53.628525229247 -85.42876488691
0 0

0101101
*
Ed
 1e-07 1 1 0
1  20 0 4.82076041017578 6.28318530717959
2  28 7 0 4.82076041017578 6.28318530717959
4 C0 7 0 8 0
0

0101000
+152 0 -154 0 *
Ve
1e-07
81.324156115675 53.628525229247 -85.43087633215
0 0

0101101
*
Ed
 1e-07 1 1 0
1  21 0 4.73786858284993 4.82076041017407
2  29 7 0 4.73786858284993 4.82076041017407
4 C0 7 0 9 0
0

0101000
+150 0 -152 0 *
Ve
1e-07
81.314449437495 53.648525229247 -85.431
0 0

0101101
*
Ed
 1e-07 1 1 0
1  22 0 1.5707963267949 1.59627592925945
2  30 7 0 1.5707963267949 1.59627592925945
2  31 10 0 1.5707963267949 1.59627592925945
4 C0 7 0 10 0
0

0101000
+148 0 -150 0 *
Ve
1e-07
81.695449437495 53.833437448586 -85.05
0 0

0101101
*
Ed
 1e-07 1 1 0
1  23 0 3.14159265358979 4.71238898038469
2  32 7 0 3.14159265358979 4.71238898038469
2  33 11 0 3.14159265358979 4.71238898038469
4 C0 7 0 11 0
0

0101000
+146 0 -148 0 *
Ve
1e-07
81.314449437495 53.648525229247 -84.669
0 0

0101101
*
Ed
 1e-07 1 1 0
1  24 0 1.5707963267949 3.14159265358979
2  34 7 0 1.5707963267949 3.14159265358979
2  35 11 0 1.5707963267949 3.14159265358979
4 C0 7 0 11 0
0

0101000
+144 0 -146 0 *
Ve
1e-07
81.324156115675 53.628525229247 -84.66912366784
0 0

0101101
*
Ed
 1e-07 1 1 0
1  25 0 4.68690937792026 4.71238898038469
2  36 7 0 4.68690937792026 4.71238898038469
2  37 12 0 4.68690937792026 4.71238898038469
4 C0 7 0 12 0
0

0101000
+142 0 -144 0 *
Ve
1e-07
81.273240695167 53.628525229247 -84.67123511309
0 0

0101101
*
Ed
 1e-07 1 1 0
1  26 0 1.46242489700551 1.54531672432992
2  38 7 0 1.46242489700551 1.54531672432992
4 C0 7 0 13 0
0

0101000
+140 0 -142 0 *
Ed
 1e-07 1 1 0
1  27 0 0 1.4624248970038
2  39 7 0 0 1.4624248970038
4 C0 7 0 8 0
0

0101000
+154 0 -140 0 *
Wi

0101100
+164 0 +153 0 -151 0 -149 0 -147 0 -145 0 -143 0 -141 0 -139 0 -138 0 
-153 0 +166 0 -168 0 +157 0 +163 0 *
Fa
0  1e-07 7 0

0111000
+137 0 *
Ed
 1e-07 1 1 0
1  28 0 2.20085146983 2.96114853016
4 C0 4 0 5 0
0

0101000
+176 0 -186 0 *
Wi

0101100
+185 0 +174 0 +135 0 *
Fa
0  1e-07 4 0

0111000
+134 0 *
Ve
1e-07
79.450257216016 53.31547088483 -85.05
0 0

0101101
*
Ed
 1e-07 1 1 0
1  29 0 4.68663904667448 6.28318530717959
2  40 6 0 4.68663904667448 6.28318530717959
4 C0 5 0 6 0
0

0101000
+184 0 -132 0 *
Ed
 1e-07 1 1 0
1  30 0 0 1.59654626050443
2  41 6 0 0 1.59654626050443
4 C0 5 0 6 0
0

0101000
+132 0 -178 0 *
Wi

0101100
+131 0 +130 0 -175 0 +135 0 -183 0 *
Fa
0  1e-07 5 0

0111000
+129 0 *
Ve
1e-07
80.107949437495 53.833437448586 -85.05
0 0

0101101
*
Ed
 1e-07 1 1 0
1  31 0 0 0.837166900542044
3  42 43CN 6 0 0 0.837166900542044
0

0101000
+132 0 -127 0 *
Ve
1e-07
80.488949437495 53.648525229247 -85.431
0 0

0101101
*
Ed
 1e-07 1 1 0
1  32 0 1.5707963267949 3.14159265358979
2  44 6 0 1.5707963267949 3.14159265358979
2  45 14 0 1.5707963267949 3.14159265358979
4 C0 6 0 14 0
0

0101000
+125 0 -127 0 *
Ve
1e-07
80.479242759314 53.628525229247 -85.43087633215
0 0

0101101
*
Ed
 1e-07 1 1 0
1  33 0 4.68690937791964 4.71238898038469
2  46 6 0 4.68690937791964 4.71238898038469
2  47 15 0 4.68690937791964 4.71238898038469
4 C0 6 0 15 0
0

0101000
+123 0 -125 0 *
Ve
1e-07
80.530158179823 53.628525229247 -85.42876488691
0 0

0101101
*
Ed
 1e-07 1 1 0
1  34 0 1.46242489700388 1.54531672432966
2  48 6 0 1.46242489700388 1.54531672432966
4 C0 6 0 16 0
0

0101000
+121 0 -123 0 *
Ve
1e-07
80.530158179823 53.628525229247 -84.67123511309
0 0

0101101
*
Ed
 1e-07 1 1 0
1  35 0 1.67916775658599 4.6040175505936
2  49 6 0 1.67916775658599 4.6040175505936
4 C0 6 0 17 0
0

0101000
+119 0 -121 0 *
Ve
1e-07
80.479242759314 53.628525229247 -84.66912366784
0 0

0101101
*
Ed
 1e-07 1 1 0
1  36 0 4.73786858284967 4.82076041017571
2  50 6 0 4.73786858284967 4.82076041017571
4 C0 6 0 18 0
0

0101000
+117 0 -119 0 *
Ve
1e-07
80.488949437495 53.648525229247 -84.669
0 0

0101101
*
Ed
 1e-07 1 1 0
1  37 0 1.5707963267949 1.59627592925982
2  51 6 0 1.5707963267949 1.59627592925982
2  52 19 0 1.5707963267949 1.59627592925982
4 C0 6 0 19 0
0

0101000
+115 0 -117 0 *
Ed
 1e-07 1 1 0
1  38 0 3.14159265358979 4.71238898038469
2  53 6 0 3.14159265358979 4.71238898038469
2  54 14 0 3.14159265358979 4.71238898038469
4 C0 6 0 14 0
0

0101000
+127 0 -115 0 *
Wi

0101100
+131 0 +126 0 -124 0 -122 0 -120 0 -118 0 -116 0 -114 0 -113 0 -126 0 
+130 0 +177 0 +179 0 -181 0 *
Fa
0  1e-07 6 0

0111000
+112 0 *
Ed
 1e-07 1 1 0
1  39 0 -0.378764886909991 0.378764886910005
4 C0 8 0 20 0
0

0101000
+140 0 -152 0 *
Wi

0101100
+151 0 +138 0 +110 0 *
Fa
0  1e-07 8 0

0111000
+109 0 *
Ed
 1e-07 1 1 0
1  40 0 4.60401755059468 4.73786858284796
2  55 12 0 4.60401755059468 4.73786858284796
4 C0 13 0 12 0
0

0101000
+140 0 -142 0 *
Wi

0101100
-139 0 +107 0 *
Fa
0  1e-07 13 0

0111000
+106 0 *
Ed
 1e-07 1 1 0
1  41 0 1.46242489700484 1.5707963267949
2  56 12 0 1.46242489700484 1.5707963267949
2  57 21 0 1.46242489700484 1.5707963267949
4 C0 12 0 21 0
0

0101000
+140 0 -144 0 *
Wi

0101100
+141 0 -104 0 +107 0 *
Fa
0  1e-07 12 0

0111000
+103 0 *
Ve
1e-07
81.695449437495 63.928525229247 -85.05
0 0

0101101
*
Ed
 1e-07 1 1 0
1  42 0 0.204912219338993 10.3
3  58 59CN 11 0 0.204912219338993 10.3
0

0101000
+146 0 -101 0 *
Ed
 1e-07 1 1 0
1  43 0 0 6.28318530717959
2  60 11 0 0 6.28318530717959
2  61 22 0 0 6.28318530717959
4 G1 11 0 22 0
0

0101100
+101 0 -101 0 *
Ve
1e-07
81.304742759314 53.668525229247 -85.43087633215
0 0

0101101
*
Ed
 1e-07 1 1 0
1  44 0 1.54531672432983 1.5707963267949
2  62 11 0 1.54531672432983 1.5707963267949
2  63 23 0 1.54531672432983 1.5707963267949
4 C0 11 0 23 0
0

0101000
+98 0 -148 0 *
Ed
 1e-07 1 1 0
1  45 0 1.59627592926112 1.67916775658551
2  64 11 0 1.59627592926112 1.67916775658551
4 C0 11 0 24 0
0

0101000
+98 0 -152 0 *
Ed
 1e-07 1 1 0
1  46 0 1.67916775658491 4.60401755059468
2  65 11 0 1.67916775658491 4.60401755059468
4 C0 11 0 20 0
0

0101000
+152 0 -140 0 *
Ve
1e-07
81.304742759314 53.668525229247 -84.66912366784
0 0

0101101
*
Ed
 1e-07 1 1 0
1  47 0 4.60401755059407 4.68690937791873
2  66 11 0 4.60401755059407 4.68690937791873
4 C0 11 0 25 0
0

0101000
+140 0 -94 0 *
Ed
 1e-07 1 1 0
1  48 0 4.71238898038469 4.73786858284962
2  67 11 0 4.71238898038469 4.73786858284962
2  68 21 0 4.71238898038469 4.73786858284962
4 C0 11 0 21 0
0

0101000
+144 0 -94 0 *
Wi

0101100
+100 0 -99 0 -100 0 +145 0 -97 0 +96 0 +95 0 +93 0 -92 0 +143 0 
*
Fa
0  1e-07 11 0

0111000
+91 0 *
Ed
 1e-07 1 1 0
1  49 0 4.71238898038469 4.82076041017474
2  69 10 0 4.71238898038469 4.82076041017474
2  70 23 0 4.71238898038469 4.82076041017474
4 C0 10 0 23 0
0

0101000
+148 0 -152 0 *
Ed
 1e-07 1 1 0
1  50 0 1.54531672433096 1.67916775658491
2  71 10 0 1.54531672433096 1.67916775658491
4 C0 10 0 9 0
0

0101000
+150 0 -152 0 *
Wi

0101100
-89 0 +147 0 +88 0 *
Fa
0  1e-07 10 0

0111000
+87 0 *
Wi

0101100
+88 0 -149 0 *
Fa
0  1e-07 9 0

0111000
+85 0 *
Ve
1e-07
80.869949437495 53.628525229247 -85.05
0 0

0101101
*
Ed
 1e-07 1 1 0
1  51 0 4.82076041017474 6.28318530717959
2  72 14 0 4.82076041017474 6.28318530717959
4 C0 14 0 26 0
0

0101000
+119 0 -83 0 *
Ve
1e-07
80.869949437495 63.928525229247 -85.05
0 0

0101101
*
Ed
 1e-07 1 1 0
1  52 0 0 10.3
3  73 74CN 14 0 0 10.3
0

0101000
+83 0 -81 0 *
Ve
1e-07
80.107949437495 63.928525229247 -85.05
0 0

0101101
*
Ed
 1e-07 1 1 0
1  53 0 3.14159265358979 6.28318530717959
2  75 14 0 3.14159265358979 6.28318530717959
2  76 27 0 3.14159265358979 6.28318530717959
4 G1 14 0 27 0
0

0101000
+79 0 -81 0 *
Ed
 1e-07 1 1 0
1  54 0 0 3.14159265358979
2  77 14 0 0 3.14159265358979
2  78 27 0 0 3.14159265358979
4 G1 14 0 27 0
0

0101000
+81 0 -79 0 *
Ed
 1e-07 1 1 0
1  55 0 0 1.46242489700485
2  79 14 0 0 1.46242489700485
4 C0 14 0 26 0
0

0101000
+83 0 -121 0 *
Ve
1e-07
80.498656115675 53.668525229247 -85.43087633215
0 0

0101101
*
Ed
 1e-07 1 1 0
1  56 0 4.60401755059406 4.68690937791947
2  80 14 0 4.60401755059406 4.68690937791947
4 C0 14 0 28 0
0

0101000
+121 0 -75 0 *
Ed
 1e-07 1 1 0
1  57 0 4.71238898038469 4.73786858284926
2  81 14 0 4.71238898038469 4.73786858284926
2  82 29 0 4.71238898038469 4.73786858284926
4 C0 14 0 29 0
0

0101000
+125 0 -75 0 *
Ve
1e-07
80.498656115675 53.668525229247 -84.66912366784
0 0

0101101
*
Ed
 1e-07 1 1 0
1  58 0 1.54531672433046 1.5707963267949
2  83 14 0 1.54531672433046 1.5707963267949
2  84 30 0 1.54531672433046 1.5707963267949
4 C0 14 0 30 0
0

0101000
+72 0 -115 0 *
Ed
 1e-07 1 1 0
1  59 0 1.59627592925986 1.67916775658552
2  85 14 0 1.59627592925986 1.67916775658552
4 C0 14 0 31 0
0

0101000
+72 0 -119 0 *
Wi

0101100
+82 0 +80 0 -78 0 -77 0 -80 0 +76 0 +74 0 -73 0 +124 0 +113 0 
-71 0 +70 0 *
Fa
0  1e-07 14 0

0111000
+69 0 *
Ed
 1e-07 1 1 0
1  60 0 4.68690937791881 4.82076041017474
2  86 19 0 4.68690937791881 4.82076041017474
4 C0 19 0 18 0
0

0101000
+117 0 -119 0 *
Ed
 1e-07 1 1 0
1  61 0 4.71238898038469 4.82076041017475
2  87 19 0 4.71238898038469 4.82076041017475
2  88 30 0 4.71238898038469 4.82076041017475
4 C0 19 0 30 0
0

0101000
+115 0 -119 0 *
Wi

0101100
+67 0 -66 0 +114 0 *
Fa
0  1e-07 19 0

0111000
+65 0 *
Wi

0101100
+67 0 -116 0 *
Fa
0  1e-07 18 0

0111000
+63 0 *
Ed
 1e-07 1 1 0
1  62 0 -0.378764886910005 0.378764886909991
4 C0 17 0 26 0
0

0101000
+121 0 -119 0 *
Wi

0101100
+61 0 +118 0 *
Fa
0  1e-07 17 0

0111000
+60 0 *
Ed
 1e-07 1 1 0
1  63 0 1.46242489700485 1.59627592926144
2  89 15 0 1.46242489700485 1.59627592926144
4 C0 16 0 15 0
0

0101000
+121 0 -123 0 *
Wi

0101100
-120 0 +58 0 *
Fa
0  1e-07 16 0

0111000
+57 0 *
Ed
 1e-07 1 1 0
1  64 0 1.46242489700484 1.5707963267949
2  90 15 0 1.46242489700484 1.5707963267949
2  91 29 0 1.46242489700484 1.5707963267949
4 C0 15 0 29 0
0

0101000
+121 0 -125 0 *
Wi

0101100
-55 0 +58 0 +122 0 *
Fa
0  1e-07 15 0

0111000
+54 0 *
Wi

0101100
+110 0 +95 0 *
Fa
0  1e-07 20 0

0111000
+52 0 *
Ed
 1e-07 1 1 0
1  65 0 1.4624248970038 1.59627592925746
2  92 21 0 1.4624248970038 1.59627592925746
4 C0 21 0 25 0
0

0101000
+140 0 -94 0 *
Wi

0101100
-50 0 +104 0 +92 0 *
Fa
0  1e-07 21 0

0111000
+49 0 *
Wi

0101100
-93 0 +50 0 *
Fa
0  1e-07 25 0

0111000
+47 0 *
Ed
 1e-07 1 1 0
1  66 0 4.68690937792146 4.82076041017578
2  93 23 0 4.68690937792146 4.82076041017578
4 C0 24 0 23 0
0

0101000
+98 0 -152 0 *
Wi

0101100
+45 0 -96 0 *
Fa
0  1e-07 24 0

0111000
+44 0 *
Wi

0101100
+89 0 -45 0 +97 0 *
Fa
0  1e-07 23 0

0111000
+42 0 *
Ve
1e-07
81.753139935367 64.111496112443 -85.05
0 0

0101101
*
Ed
 1e-07 1 1 0
1  67 0 0 0.610865238198411
3  94 95CN 22 0 0 0.610865238198411
0

0101000
+101 0 -40 0 *
Ed
 1e-07 1 1 0
1  68 0 3.14159265358979 9.42477796076938
2  96 22 0 3.14159265358979 9.42477796076938
2  97 32 0 3.14159265358979 9.42477796076938
4 G1 22 0 32 0
0

0101100
+40 0 -40 0 *
Wi

0101100
-39 0 +99 0 +39 0 +38 0 *
Fa
0  1e-07 22 0

0111000
+37 0 *
Wi

0101100
+82 0 +76 0 +61 0 *
Fa
0  1e-07 26 0

0111000
+35 0 *
Ed
 1e-07 1 1 0
1  69 0 1.54531672433068 1.67916775658599
2  98 30 0 1.54531672433068 1.67916775658599
4 C0 31 0 30 0
0

0101000
+72 0 -119 0 *
Wi

0101100
+33 0 -70 0 *
Fa
0  1e-07 31 0

0111000
+32 0 *
Wi

0101100
+71 0 +66 0 -33 0 *
Fa
0  1e-07 30 0

0111000
+30 0 *
Ed
 1e-07 1 1 0
1  70 0 4.6040175505936 4.73786858284958
2  99 29 0 4.6040175505936 4.73786858284958
4 C0 29 0 28 0
0

0101000
+121 0 -75 0 *
Wi

0101100
+55 0 +73 0 -28 0 *
Fa
0  1e-07 29 0

0111000
+27 0 *
Wi

0101100
-74 0 +28 0 *
Fa
0  1e-07 28 0

0111000
+25 0 *
Ve
1e-07
80.050258939623 64.111496112443 -85.05
0 0

0101101
*
Ed
 1e-07 1 1 0
1  71 0 0 0.610865238198411
3  100 101CN 27 0 0 0.610865238198411
0

0101000
+79 0 -23 0 *
Ve
1e-07
80.674452797371 64.548561356943 -85.05
0 0

0101101
*
Ed
 1e-07 1 1 0
1  72 0 3.14159265358979 6.28318530717959
2  102 27 0 3.14159265358979 6.28318530717959
2  103 33 0 3.14159265358979 6.28318530717959
4 G1 27 0 33 0
0

0101000
+23 0 -21 0 *
Ed
 1e-07 1 1 0
1  73 0 0 3.14159265358979
2  104 33 0 0 3.14159265358979
2  105 27 0 0 3.14159265358979
4 G1 27 0 33 0
0

0101000
+21 0 -23 0 *
Wi

0101100
+78 0 +77 0 +22 0 +20 0 +19 0 -22 0 *
Fa
0  1e-07 27 0

0111000
+18 0 *
Ve
1e-07
82.884458848118 65.727186962678 -85.05
0 0

0101101
*
Ed
 1e-07 1 1 0
1  74 0 0 6.28318530717959
2  106 32 0 0 6.28318530717959
4 C0 32 0 34 0
0

0101100
+16 0 -16 0 *
Ed
 1e-07 1 1 0
1  75 0 0 1.97239433326128
3  107 108CN 32 0 0 1.97239433326128
0

0101000
+40 0 -16 0 *
Wi

0101100
-15 0 -14 0 -38 0 +14 0 *
Fa
0  1e-07 32 0

0111000
+13 0 *
Ve
1e-07
79.54313388462 66.164252207178 -85.05
0 0

0101101
*
Ed
 1e-07 1 1 0
1  76 0 0 1.97239433326128
3  109 110CN 33 0 0 1.97239433326128
0

0101000
+21 0 -11 0 *
Ed
 1e-07 1 1 0
1  77 0 0 6.28318530717959
2  111 33 0 0 6.28318530717959
4 C0 33 0 35 0
0

0101100
+11 0 -11 0 *
Wi

0101100
+10 0 -9 0 -10 0 -20 0 -19 0 *
Fa
0  1e-07 33 0

0111000
+8 0 *
Wi

0101100
+15 0 *
Fa
0  1e-07 34 0

0111000
+6 0 *
Wi

0101100
+9 0 *
Fa
0  1e-07 35 0

0111000
+4 0 *
Sh

0101100
+161 0 +158 0 -155 0 +136 0 +133 0 -128 0 +111 0 +108 0 -105 0 +102 0 
+90 0 +86 0 -84 0 +68 0 +64 0 -62 0 +59 0 -56 0 +53 0 -51 0 
+48 0 +46 0 +43 0 +41 0 +36 0 -34 0 +31 0 +29 0 +26 0 +24 0 
+17 0 +12 0 +7 0 +5 0 +3 0 *
So

0100000
+2 0 *

+1 0 