DBRep_DrawableShape

CASCADE Topology V1, (c) Matra-Datavision
Locations 0
Curve2ds 56
1 0 1 1 0 
1 0 0 1 0 
1 0 0 1 0 
1 0 0 1 0 
1 0 0 1 0 
1 6.2831853071800001 -0 0 1 
1 0 -0 0 1 
1 0 7.3499999999999996 1 0 
1 6.048471651841 0 0 1 
1 0 5.3499999999999996 1 0 
1 5.4707014113210004 0 0 1 
1 0 7.3499999999999996 1 0 
1 5.0012741006450003 0 0 1 
1 0 5.3499999999999996 1 0 
1 4.4235038601249999 0 0 1 
1 0 7.3499999999999996 1 0 
1 3.9540765494480001 0 0 1 
1 0 5.3499999999999996 1 0 
1 3.3763063089280001 0 0 1 
1 0 7.3499999999999996 1 0 
1 2.9068789982509999 0 0 1 
1 0 5.3499999999999996 1 0 
1 2.329108757732 0 0 1 
1 0 7.3499999999999996 1 0 
1 1.859681447055 0 0 1 
1 0 5.3499999999999996 1 0 
1 1.281911206535 0 0 1 
1 0 7.3499999999999996 1 0 
1 0.81248389585799996 0 0 1 
1 0 5.3499999999999996 1 0 
1 0.23471365533800001 0 0 1 
1 0 7.3499999999999996 1 0 
1 5.5747864731870003 0 0 1 
1 0 2 1 0 
1 4.8971890387789996 0 0 1 
1 0 0 1 0 
1 0 2 1 0 
1 3.8499914875819998 0 0 1 
1 4.5275889219909997 0 0 1 
1 0 0 1 0 
1 6.2831853071800001 -0 0 1 
1 0 -0 0 1 
1 0 2 1 0 
1 5.9443865899750001 0 0 1 
1 0 2 1 0 
1 0.33879871720400001 0 0 1 
1 0 0 1 0 
1 0.70839883399199999 0 0 1 
1 0 2 1 0 
1 1.3859962684010001 0 0 1 
1 1.755596385189 0 0 1 
1 0 2 1 0 
1 2.4331938195979999 0 0 1 
1 2.8027939363850001 0 0 1 
1 0 2 1 0 
1 3.480391370794 0 0 1 
Curves 144
1 -24.799906412049999 -97.088244365809999 -10.612500000000001 -2.22044604925e-16 -2.22044604925e-16 -1 
1 -24.799906412049999 -97.088244365809999 -14.9625 -0.74314482547714722 -0.66913060635913257 3.1358814030746211e-16 
1 -24.799906412049999 -97.088244365809999 -14.9625 -0.74314482547714722 -0.66913060635913257 3.1358814030746211e-16 
1 -24.799906412049999 -97.088244365809999 -14.9625 -0.74314482547714722 -0.66913060635913257 3.1358814030746211e-16 
1 -24.799906412049999 -97.088244365809999 -14.9625 -0.74314482547714722 -0.66913060635913257 3.1358814030746211e-16 
1 -24.799906412049999 -97.088244365809999 -14.9625 -0.74314482547714722 -0.66913060635913257 3.1358814030746211e-16 
1 -29.567778599770001 -101.3812557663 -10.612500000000001 -2.22044604925e-16 -2.22044604925e-16 -1 
1 -24.799906412049999 -97.088244365809999 -10.612500000000001 -0.74314482547714722 -0.66913060635913257 3.1358814030746211e-16 
1 -26.13382724977 -90.812640228999996 -10.612500000000001 -2.22044604925e-16 -2.22044604925e-16 -1 
1 -26.13382724977 -90.812640228999996 -14.9625 0.20791169081795011 -0.97814760073376517 1.7102672831635896e-16 
1 -26.13382724977 -90.812640228999996 -14.9625 0.20791169081795011 -0.97814760073376517 1.7102672831635896e-16 
1 -26.13382724977 -90.812640228999996 -14.9625 0.20791169081795011 -0.97814760073376517 1.7102672831635896e-16 
1 -26.13382724977 -90.812640228999996 -14.9625 0.20791169081795011 -0.97814760073376517 1.7102672831635896e-16 
1 -26.13382724977 -90.812640228999996 -14.9625 0.20791169081795011 -0.97814760073376517 1.7102672831635896e-16 
1 -26.13382724977 -90.812640228999996 -10.612500000000001 0.20791169081795011 -0.97814760073376517 1.7102672831635896e-16 
1 -29.567778599770001 -101.3812557663 -14.9625 -0.95105651629512344 0.3090169943750401 1.4256141199101852e-16 
1 -29.567778599770001 -101.3812557663 -14.9625 -0.95105651629512344 0.3090169943750401 1.4256141199101852e-16 
1 -29.567778599770001 -101.3812557663 -14.9625 -0.95105651629512344 0.3090169943750401 1.4256141199101852e-16 
1 -29.567778599770001 -101.3812557663 -14.9625 -0.95105651629512344 0.3090169943750401 1.4256141199101852e-16 
1 -29.567778599770001 -101.3812557663 -14.9625 -0.95105651629512344 0.3090169943750401 1.4256141199101852e-16 
1 -35.669571625209997 -99.398663030020003 -10.612500000000001 -2.22044604925e-16 -2.22044604925e-16 -1 
1 -29.567778599770001 -101.3812557663 -10.612500000000001 -0.95105651629512344 0.3090169943750401 1.4256141199101852e-16 
1 -35.669571625209997 -99.398663030020003 -10.612500000000001 -0.20791169081795011 0.97814760073376517 -1.7102672831635896e-16 
1 -37.003492462929998 -93.123058893210001 -10.612500000000001 0.74314482547714722 0.66913060635913257 -3.1358814030746211e-16 
1 -32.235620275210003 -88.830047492700004 -10.612500000000001 0.95105651629512344 -0.3090169943750401 -1.4256141199101852e-16 
2 -30.901699437489999 -95.105651629510007 -10.612500000000001 -2.22044604925e-16 -2.22044604925e-16 -1 -0.3090169943750401 -0.95105651629512344 2.7979252485321423e-16 -0.95105651629512344 0.3090169943750401 1.4256141199098078e-16 3.2250000000000001
1 -24.911450976139999 -96.085970421409996 -14.9625 -0.3090169943750401 -0.95105651629512344 2.7979252485323632e-16 
1 -36.891947898840002 -94.125332837610003 -14.9625 0.95105651629512344 -0.3090169943750401 -1.4256141199101852e-16 
2 -30.901699437489999 -95.105651629510007 -14.9625 -2.22044604925e-16 -2.22044604925e-16 -1 -0.3090169943750401 -0.95105651629512344 2.7979252485321423e-16 -0.95105651629512344 0.3090169943750401 1.4256141199098078e-16 5
1 -36.324129171679999 -92.377766488909998 -14.9625 0.95105651629512344 -0.3090169943750401 -1.4256141199101852e-16 
2 -30.901699437489999 -95.105651629510007 -14.9625 -2.22044604925e-16 -2.22044604925e-16 -1 -0.3090169943750401 -0.95105651629512344 2.7979252485321423e-16 -0.95105651629512344 0.3090169943750401 1.4256141199098078e-16 5
1 -31.25049647422 -89.045747159170006 -14.9625 0.20791169081795011 -0.97814760073376517 1.7102672831635896e-16 
2 -30.901699437489999 -95.105651629510007 -14.9625 -2.22044604925e-16 -2.22044604925e-16 -1 -0.3090169943750401 -0.95105651629512344 2.7979252485321423e-16 -0.95105651629512344 0.3090169943750401 1.4256141199098078e-16 5
1 -28.75555618441 -100.7835183679 -14.9625 -0.97814760073376517 -0.20791169081795011 2.6335806681013681e-16 
1 -33.04784269057 -89.427784891049996 -14.9625 0.20791169081795011 -0.97814760073376517 1.7102672831635896e-16 
1 -32.235620275210003 -88.830047492700004 -10.612500000000001 -2.22044604925e-16 -2.22044604925e-16 -1 
1 -32.235620275210003 -88.830047492700004 -14.9625 0.95105651629512344 -0.3090169943750401 -1.4256141199101852e-16 
1 -32.235620275210003 -88.830047492700004 -14.9625 0.95105651629512344 -0.3090169943750401 -1.4256141199101852e-16 
1 -32.235620275210003 -88.830047492700004 -14.9625 0.95105651629512344 -0.3090169943750401 -1.4256141199101852e-16 
1 -32.235620275210003 -88.830047492700004 -14.9625 0.95105651629512344 -0.3090169943750401 -1.4256141199101852e-16 
1 -32.235620275210003 -88.830047492700004 -14.9625 0.95105651629512344 -0.3090169943750401 -1.4256141199101852e-16 
1 -25.82806674003 -91.77363229977 -14.9625 -0.66913060635913257 0.74314482547714722 -1.6434458043013253e-17 
1 -27.057594229220001 -90.408103682949999 -14.9625 -0.74314482547714722 -0.66913060635913257 3.1358814030746211e-16 
1 -25.82806674003 -91.77363229977 -14.9625 -0.74314482547714722 -0.66913060635913257 3.1358814030746211e-16 
2 -30.901699437489999 -95.105651629510007 -14.9625 -2.22044604925e-16 -2.22044604925e-16 -1 -0.3090169943750401 -0.95105651629512344 2.7979252485321423e-16 -0.95105651629512344 0.3090169943750401 1.4256141199098078e-16 5
2 -30.901699437489999 -95.105651629510007 -14.9625 -2.22044604925e-16 -2.22044604925e-16 -1 -0.3090169943750401 -0.95105651629512344 2.7979252485321423e-16 -0.95105651629512344 0.3090169943750401 1.4256141199098078e-16 5
1 -35.669571625209997 -99.398663030020003 -14.9625 -0.20791169081795011 0.97814760073376517 -1.7102672831635896e-16 
1 -35.669571625209997 -99.398663030020003 -14.9625 -0.20791169081795011 0.97814760073376517 -1.7102672831635896e-16 
1 -35.669571625209997 -99.398663030020003 -14.9625 -0.20791169081795011 0.97814760073376517 -1.7102672831635896e-16 
1 -35.669571625209997 -99.398663030020003 -14.9625 -0.20791169081795011 0.97814760073376517 -1.7102672831635896e-16 
1 -35.669571625209997 -99.398663030020003 -14.9625 -0.20791169081795011 0.97814760073376517 -1.7102672831635896e-16 
1 -37.003492462929998 -93.123058893210001 -10.612500000000001 -2.22044604925e-16 -2.22044604925e-16 -1 
2 -30.901699437489999 -95.105651629510007 -14.9625 -2.22044604925e-16 -2.22044604925e-16 -1 -0.3090169943750401 -0.95105651629512344 2.7979252485321423e-16 -0.95105651629512344 0.3090169943750401 1.4256141199098078e-16 5
1 -25.82806674003 -91.77363229977 -14.9625 -0.74314482547714722 -0.66913060635913257 3.1358814030746211e-16 
2 -30.901699437489999 -95.105651629510007 -14.9625 -2.22044604925e-16 -2.22044604925e-16 -1 -0.3090169943750401 -0.95105651629512344 2.7979252485321423e-16 -0.95105651629512344 0.3090169943750401 1.4256141199098078e-16 5
2 -30.901699437489999 -95.105651629510007 -14.9625 -2.22044604925e-16 -2.22044604925e-16 -1 -0.3090169943750401 -0.95105651629512344 2.7979252485321423e-16 -0.95105651629512344 0.3090169943750401 1.4256141199098078e-16 5
1 -34.745804645760003 -99.80319957607 -14.9625 -0.66913060635913257 0.74314482547714722 -1.6434458043013253e-17 
1 -27.057594229220001 -90.408103682949999 -14.9625 -0.74314482547714722 -0.66913060635913257 3.1358814030746211e-16 
1 -37.003492462929998 -93.123058893210001 -14.9625 0.74314482547714722 0.66913060635913257 -3.1358814030746211e-16 
1 -37.003492462929998 -93.123058893210001 -14.9625 0.74314482547714722 0.66913060635913257 -3.1358814030746211e-16 
1 -37.003492462929998 -93.123058893210001 -14.9625 0.74314482547714722 0.66913060635913257 -3.1358814030746211e-16 
1 -37.003492462929998 -93.123058893210001 -14.9625 0.74314482547714722 0.66913060635913257 -3.1358814030746211e-16 
1 -37.003492462929998 -93.123058893210001 -14.9625 0.74314482547714722 0.66913060635913257 -3.1358814030746211e-16 
1 -31.89827924435 -98.172808894560006 -9.6125000000000007 -2.22044604925e-16 -2.22044604925e-16 -1 
2 -30.901699437489999 -95.105651629510007 -16.962499999999999 -2.22044604925e-16 -2.22044604925e-16 -1 -0.3090169943750401 -0.95105651629512344 2.7979252485321423e-16 -0.95105651629512344 0.3090169943750401 1.4256141199098078e-16 3.2250000000000001
1 -31.1576420966 -98.320479518409996 -9.6125000000000007 -2.22044604925e-16 -2.22044604925e-16 -1 
2 -30.901699437489999 -95.105651629510007 -14.9625 -2.22044604925e-16 -2.22044604925e-16 -1 -0.3090169943750401 -0.95105651629512344 2.7979252485321423e-16 -0.95105651629512344 0.3090169943750401 1.4256141199098078e-16 3.2250000000000001
1 -29.36029588025 -97.938441786530007 -9.6125000000000007 -2.22044604925e-16 -2.22044604925e-16 -1 
2 -30.901699437489999 -95.105651629510007 -16.962499999999999 -2.22044604925e-16 -2.22044604925e-16 -1 -0.3090169943750401 -0.95105651629512344 2.7979252485321423e-16 -0.95105651629512344 0.3090169943750401 1.4256141199098078e-16 3.2250000000000001
1 -28.245548146459999 -96.934718418659997 -9.6125000000000007 -2.22044604925e-16 -2.22044604925e-16 -1 
2 -30.901699437489999 -95.105651629510007 -14.9625 -2.22044604925e-16 -2.22044604925e-16 -1 -0.3090169943750401 -0.95105651629512344 2.7979252485321423e-16 -0.95105651629512344 0.3090169943750401 1.4256141199098078e-16 3.2250000000000001
1 -27.6777294193 -95.187152069969997 -9.6125000000000007 -2.22044604925e-16 -2.22044604925e-16 -1 
2 -30.901699437489999 -95.105651629510007 -16.962499999999999 -2.22044604925e-16 -2.22044604925e-16 -1 -0.3090169943750401 -0.95105651629512344 2.7979252485321423e-16 -0.95105651629512344 0.3090169943750401 1.4256141199098078e-16 3.2250000000000001
1 -27.989605487350001 -93.719890529759994 -9.6125000000000007 -2.22044604925e-16 -2.22044604925e-16 -1 
2 -30.901699437489999 -95.105651629510007 -14.9625 -2.22044604925e-16 -2.22044604925e-16 -1 -0.3090169943750401 -0.95105651629512344 2.7979252485321423e-16 -0.95105651629512344 0.3090169943750401 1.4256141199098078e-16 3.2250000000000001
1 -29.219132976539999 -92.354361912940007 -9.6125000000000007 -2.22044604925e-16 -2.22044604925e-16 -1 
2 -30.901699437489999 -95.105651629510007 -16.962499999999999 -2.22044604925e-16 -2.22044604925e-16 -1 -0.3090169943750401 -0.95105651629512344 2.7979252485321423e-16 -0.95105651629512344 0.3090169943750401 1.4256141199098078e-16 3.2250000000000001
1 -30.645756778380001 -91.890823740610003 -9.6125000000000007 -2.22044604925e-16 -2.22044604925e-16 -1 
2 -30.901699437489999 -95.105651629510007 -14.9625 -2.22044604925e-16 -2.22044604925e-16 -1 -0.3090169943750401 -0.95105651629512344 2.7979252485321423e-16 -0.95105651629512344 0.3090169943750401 1.4256141199098078e-16 3.2250000000000001
1 -32.443102994729998 -92.272861472490007 -9.6125000000000007 -2.22044604925e-16 -2.22044604925e-16 -1 
2 -30.901699437489999 -95.105651629510007 -16.962499999999999 -2.22044604925e-16 -2.22044604925e-16 -1 -0.3090169943750401 -0.95105651629512344 2.7979252485321423e-16 -0.95105651629512344 0.3090169943750401 1.4256141199098078e-16 3.2250000000000001
1 -33.557850728520002 -93.276584840360002 -9.6125000000000007 -2.22044604925e-16 -2.22044604925e-16 -1 
2 -30.901699437489999 -95.105651629510007 -14.9625 -2.22044604925e-16 -2.22044604925e-16 -1 -0.3090169943750401 -0.95105651629512344 2.7979252485321423e-16 -0.95105651629512344 0.3090169943750401 1.4256141199098078e-16 3.2250000000000001
1 -34.125669455679997 -95.024151189050002 -9.6125000000000007 -2.22044604925e-16 -2.22044604925e-16 -1 
2 -30.901699437489999 -95.105651629510007 -16.962499999999999 -2.22044604925e-16 -2.22044604925e-16 -1 -0.3090169943750401 -0.95105651629512344 2.7979252485321423e-16 -0.95105651629512344 0.3090169943750401 1.4256141199098078e-16 3.2250000000000001
1 -33.81379338763 -96.491412729260006 -9.6125000000000007 -2.22044604925e-16 -2.22044604925e-16 -1 
2 -30.901699437489999 -95.105651629510007 -14.9625 -2.22044604925e-16 -2.22044604925e-16 -1 -0.3090169943750401 -0.95105651629512344 2.7979252485321423e-16 -0.95105651629512344 0.3090169943750401 1.4256141199098078e-16 3.2250000000000001
1 -32.584265898440002 -97.856941346080006 -9.6125000000000007 -2.22044604925e-16 -2.22044604925e-16 -1 
2 -30.901699437489999 -95.105651629510007 -16.962499999999999 -2.22044604925e-16 -2.22044604925e-16 -1 -0.3090169943750401 -0.95105651629512344 2.7979252485321423e-16 -0.95105651629512344 0.3090169943750401 1.4256141199098078e-16 3.2250000000000001
1 -36.324129171679999 -92.377766488909998 -14.9625 0.95105651629512344 -0.3090169943750401 -1.4256141199101852e-16 
1 -36.891947898840002 -94.125332837610003 -14.9625 0.95105651629512344 -0.3090169943750401 -1.4256141199101852e-16 
1 -28.981168427099998 -99.722096217949996 -14.9625 -2.22044604925e-16 -2.22044604925e-16 -1 
2 -30.901699437489999 -95.105651629510007 -16.962499999999999 -2.22044604925e-16 -2.22044604925e-16 -1 -0.3090169943750401 -0.95105651629512344 2.7979252485321423e-16 -0.95105651629512344 0.3090169943750401 1.4256141199098078e-16 5
1 -26.511294370710001 -97.498211628670006 -14.9625 -2.22044604925e-16 -2.22044604925e-16 -1 
1 -31.25049647422 -89.045747159170006 -14.9625 0.20791169081795011 -0.97814760073376517 1.7102672831635896e-16 
1 -33.04784269057 -89.427784891049996 -14.9625 0.20791169081795011 -0.97814760073376517 1.7102672831635896e-16 
1 -31.25049647422 -89.045747159170006 -14.9625 -0.97814760073376517 -0.20791169081795011 2.6335806681013681e-16 
1 -31.25049647422 -89.045747159170006 -14.9625 0.20791169081795011 -0.97814760073376517 1.7102672831635896e-16 
2 -30.901699437489999 -95.105651629510007 -14.9625 -2.22044604925e-16 -2.22044604925e-16 -1 -0.3090169943750401 -0.95105651629512344 2.7979252485321423e-16 -0.95105651629512344 0.3090169943750401 1.4256141199098078e-16 5
1 -33.04784269057 -89.427784891049996 -14.9625 0.20791169081795011 -0.97814760073376517 1.7102672831635896e-16 
2 -30.901699437489999 -95.105651629510007 -14.9625 -2.22044604925e-16 -2.22044604925e-16 -1 -0.3090169943750401 -0.95105651629512344 2.7979252485321423e-16 -0.95105651629512344 0.3090169943750401 1.4256141199098078e-16 5
1 -25.82806674003 -91.77363229977 -14.9625 -0.74314482547714722 -0.66913060635913257 3.1358814030746211e-16 
1 -27.057594229220001 -90.408103682949999 -14.9625 -0.74314482547714722 -0.66913060635913257 3.1358814030746211e-16 
2 -30.901699437489999 -95.105651629510007 -16.962499999999999 -2.22044604925e-16 -2.22044604925e-16 -1 -0.3090169943750401 -0.95105651629512344 2.7979252485321423e-16 -0.95105651629512344 0.3090169943750401 1.4256141199098078e-16 5
1 -26.634479164750001 -92.499729308349998 -14.9625 -2.22044604925e-16 -2.22044604925e-16 -1 
1 -25.943475643540001 -95.750645279980006 -14.9625 -2.22044604925e-16 -2.22044604925e-16 -1 
2 -30.901699437489999 -95.105651629510007 -14.9625 -2.22044604925e-16 -2.22044604925e-16 -1 -0.3090169943750401 -0.95105651629512344 2.7979252485321423e-16 -0.95105651629512344 0.3090169943750401 1.4256141199098078e-16 5
1 -36.891947898840002 -94.125332837610003 -14.9625 0.95105651629512344 -0.3090169943750401 -1.4256141199101852e-16 
1 -36.324129171679999 -92.377766488909998 -14.9625 0.95105651629512344 -0.3090169943750401 -1.4256141199101852e-16 
2 -30.901699437489999 -95.105651629510007 -14.9625 -2.22044604925e-16 -2.22044604925e-16 -1 -0.3090169943750401 -0.95105651629512344 2.7979252485321423e-16 -0.95105651629512344 0.3090169943750401 1.4256141199098078e-16 5
1 -36.324129171679999 -92.377766488909998 -14.9625 -0.3090169943750401 -0.95105651629512344 2.7979252485323632e-16 
1 -32.446784409359999 -99.860934210989996 -14.9625 -2.22044604925e-16 -2.22044604925e-16 -1 
2 -30.901699437489999 -95.105651629510007 -16.962499999999999 -2.22044604925e-16 -2.22044604925e-16 -1 -0.3090169943750401 -0.95105651629512344 2.7979252485321423e-16 -0.95105651629512344 0.3090169943750401 1.4256141199098078e-16 5
1 -30.778514643449999 -100.1041339498 -14.9625 -2.22044604925e-16 -2.22044604925e-16 -1 
2 -30.901699437489999 -95.105651629510007 -16.962499999999999 -2.22044604925e-16 -2.22044604925e-16 -1 -0.3090169943750401 -0.95105651629512344 2.7979252485321423e-16 -0.95105651629512344 0.3090169943750401 1.4256141199098078e-16 5
1 -33.939392221049999 -99.077102567479997 -14.9625 -2.22044604925e-16 -2.22044604925e-16 -1 
1 -25.82806674003 -91.77363229977 -14.9625 -0.74314482547714722 -0.66913060635913257 3.1358814030746211e-16 
1 -27.057594229220001 -90.408103682949999 -14.9625 -0.74314482547714722 -0.66913060635913257 3.1358814030746211e-16 
2 -30.901699437489999 -95.105651629510007 -14.9625 -2.22044604925e-16 -2.22044604925e-16 -1 -0.3090169943750401 -0.95105651629512344 2.7979252485321423e-16 -0.95105651629512344 0.3090169943750401 1.4256141199098078e-16 5
1 -32.424107618119997 -92.362227693250006 -16.962499999999999 -0.20791169081795011 0.97814760073376517 -1.7102672831635896e-16 
1 -28.057501216470001 -93.781024118839994 -16.962499999999999 0.74314482547714722 0.66913060635913257 -3.1358814030746211e-16 
1 -29.287028705649998 -92.415495502029998 -16.962499999999999 0.74314482547714722 0.66913060635913257 -3.1358814030746211e-16 
1 -35.16891971023 -97.711573950670001 -14.9625 -2.22044604925e-16 -2.22044604925e-16 -1 
2 -30.901699437489999 -95.105651629510007 -16.962499999999999 -2.22044604925e-16 -2.22044604925e-16 -1 -0.3090169943750401 -0.95105651629512344 2.7979252485321423e-16 -0.95105651629512344 0.3090169943750401 1.4256141199098078e-16 5
1 -34.038778349959998 -95.05238382073 -16.962499999999999 -0.95105651629512344 0.3090169943750401 1.4256141199101852e-16 
1 -36.891947898840002 -94.125332837610003 -14.9625 0.95105651629512344 -0.3090169943750401 -1.4256141199101852e-16 
1 -35.85992323144 -94.460657979049998 -14.9625 -2.22044604925e-16 -2.22044604925e-16 -1 
1 -36.324129171679999 -92.377766488909998 -14.9625 0.95105651629512344 -0.3090169943750401 -1.4256141199101852e-16 
1 -35.29210450427 -92.713091630349993 -14.9625 -2.22044604925e-16 -2.22044604925e-16 -1 
1 -33.470959622789998 -93.30481747204 -16.962499999999999 -0.95105651629512344 0.3090169943750401 1.4256141199101852e-16 
2 -30.901699437489999 -95.105651629510007 -16.962499999999999 -2.22044604925e-16 -2.22044604925e-16 -1 -0.3090169943750401 -0.95105651629512344 2.7979252485321423e-16 -0.95105651629512344 0.3090169943750401 1.4256141199098078e-16 5
1 -32.424107618119997 -92.362227693250006 -16.962499999999999 -0.20791169081795011 0.97814760073376517 -1.7102672831635896e-16 
1 -33.04784269057 -89.427784891049996 -14.9625 0.20791169081795011 -0.97814760073376517 1.7102672831635896e-16 
1 -32.822230447880003 -90.489207041070003 -14.9625 -2.22044604925e-16 -2.22044604925e-16 -1 
1 -31.25049647422 -89.045747159170006 -14.9625 0.20791169081795011 -0.97814760073376517 1.7102672831635896e-16 
1 -31.024884231529999 -90.107169309189999 -14.9625 -2.22044604925e-16 -2.22044604925e-16 -1 
1 -30.626761401770001 -91.980189961370002 -16.962499999999999 -0.20791169081795011 0.97814760073376517 -1.7102672831635896e-16 
2 -30.901699437489999 -95.105651629510007 -16.962499999999999 -2.22044604925e-16 -2.22044604925e-16 -1 -0.3090169943750401 -0.95105651629512344 2.7979252485321423e-16 -0.95105651629512344 0.3090169943750401 1.4256141199098078e-16 5
1 -29.287028705649998 -92.415495502029998 -16.962499999999999 0.74314482547714722 0.66913060635913257 -3.1358814030746211e-16 
1 -27.864006653930002 -91.134200691540002 -14.9625 -2.22044604925e-16 -2.22044604925e-16 -1 
1 -28.057501216470001 -93.781024118839994 -16.962499999999999 0.74314482547714722 0.66913060635913257 -3.1358814030746211e-16 
1 -33.470959622789998 -93.30481747204 -16.962499999999999 -0.95105651629512344 0.3090169943750401 1.4256141199101852e-16 
1 -34.038778349959998 -95.05238382073 -16.962499999999999 -0.95105651629512344 0.3090169943750401 1.4256141199101852e-16 
1 -30.626761401770001 -91.980189961370002 -16.962499999999999 -0.20791169081795011 0.97814760073376517 -1.7102672831635896e-16 
Polygon3D 0
PolygonOnTriangulations 0
Surfaces 57
1 -24.799906412049999 -97.088244365809999 -10.612500000000001 -0.66913060635913257 0.74314482547714722 -1.6434458043013253e-17 -0.74314482547714722 -0.66913060635913257 3.1358814030746211e-16 2.2204460492498693e-16 2.2204460492515141e-16 1 
1 -26.13382724977 -90.812640228999996 -10.612500000000001 -0.97814760073376517 -0.20791169081795011 2.6335806681013681e-16 0.20791169081795011 -0.97814760073376517 1.7102672831635896e-16 2.2204460492490157e-16 2.2204460492503422e-16 1 
1 -30.901699437489999 -95.105651629510007 -14.9625 -2.22044604925e-16 -2.22044604925e-16 -1 -0.3090169943750401 -0.95105651629512344 2.7979252485321423e-16 -0.95105651629512344 0.3090169943750401 1.4256141199098078e-16 
1 -30.901699437489999 -95.105651629510007 -14.9625 -2.22044604925e-16 -2.22044604925e-16 -1 -0.3090169943750401 -0.95105651629512344 2.7979252485321423e-16 -0.95105651629512344 0.3090169943750401 1.4256141199098078e-16 
1 -30.901699437489999 -95.105651629510007 -14.9625 -2.22044604925e-16 -2.22044604925e-16 -1 -0.3090169943750401 -0.95105651629512344 2.7979252485321423e-16 -0.95105651629512344 0.3090169943750401 1.4256141199098078e-16 
1 -30.901699437489999 -95.105651629510007 -14.9625 -2.22044604925e-16 -2.22044604925e-16 -1 -0.3090169943750401 -0.95105651629512344 2.7979252485321423e-16 -0.95105651629512344 0.3090169943750401 1.4256141199098078e-16 
1 -30.901699437489999 -95.105651629510007 -14.9625 -2.22044604925e-16 -2.22044604925e-16 -1 -0.3090169943750401 -0.95105651629512344 2.7979252485321423e-16 -0.95105651629512344 0.3090169943750401 1.4256141199098078e-16 
1 -29.567778599770001 -101.3812557663 -10.612500000000001 0.3090169943750401 0.95105651629512344 -2.7979252485323632e-16 -0.95105651629512344 0.3090169943750401 1.425614119910185e-16 2.220446049250427e-16 2.2204460492500932e-16 1 
1 -30.901699437489999 -95.105651629510007 -10.612500000000001 -2.22044604925e-16 -2.22044604925e-16 -1 -0.3090169943750401 -0.95105651629512344 2.7979252485321423e-16 -0.95105651629512344 0.3090169943750401 1.4256141199098078e-16 
1 -32.235620275210003 -88.830047492700004 -10.612500000000001 -0.3090169943750401 -0.95105651629512344 2.7979252485323632e-16 0.95105651629512344 -0.3090169943750401 -1.425614119910185e-16 2.220446049250427e-16 2.2204460492500932e-16 1 
1 -30.901699437489999 -95.105651629510007 -14.9625 -2.22044604925e-16 -2.22044604925e-16 -1 -0.3090169943750401 -0.95105651629512344 2.7979252485321423e-16 -0.95105651629512344 0.3090169943750401 1.4256141199098078e-16 
1 -30.901699437489999 -95.105651629510007 -14.9625 -2.22044604925e-16 -2.22044604925e-16 -1 -0.3090169943750401 -0.95105651629512344 2.7979252485321423e-16 -0.95105651629512344 0.3090169943750401 1.4256141199098078e-16 
1 -30.901699437489999 -95.105651629510007 -14.9625 -2.22044604925e-16 -2.22044604925e-16 -1 -0.3090169943750401 -0.95105651629512344 2.7979252485321423e-16 -0.95105651629512344 0.3090169943750401 1.4256141199098078e-16 
1 -30.901699437489999 -95.105651629510007 -14.9625 -2.22044604925e-16 -2.22044604925e-16 -1 -0.3090169943750401 -0.95105651629512344 2.7979252485321423e-16 -0.95105651629512344 0.3090169943750401 1.4256141199098078e-16 
1 -30.901699437489999 -95.105651629510007 -14.9625 -2.22044604925e-16 -2.22044604925e-16 -1 -0.3090169943750401 -0.95105651629512344 2.7979252485321423e-16 -0.95105651629512344 0.3090169943750401 1.4256141199098078e-16 
1 -30.901699437489999 -95.105651629510007 -14.9625 -2.22044604925e-16 -2.22044604925e-16 -1 -0.3090169943750401 -0.95105651629512344 2.7979252485321423e-16 -0.95105651629512344 0.3090169943750401 1.4256141199098078e-16 
1 -35.669571625209997 -99.398663030020003 -10.612500000000001 0.97814760073376517 0.20791169081795011 -2.6335806681013681e-16 -0.20791169081795011 0.97814760073376517 -1.7102672831635896e-16 2.2204460492490157e-16 2.2204460492503422e-16 1 
1 -37.003492462929998 -93.123058893210001 -10.612500000000001 0.66913060635913257 -0.74314482547714722 1.6434458043013253e-17 0.74314482547714722 0.66913060635913257 -3.1358814030746211e-16 2.2204460492498693e-16 2.2204460492515141e-16 1 
2 -30.901699437489999 -95.105651629510007 -9.6125000000000007 -2.22044604925e-16 -2.22044604925e-16 -1 -0.3090169943750401 -0.95105651629512344 2.7979252485321423e-16 -0.95105651629512344 0.3090169943750401 1.4256141199098078e-16 3.2250000000000001
1 -36.324129171679999 -92.377766488909998 -14.9625 -2.22044604925e-16 -2.22044604925e-16 -1 -0.3090169943750401 -0.95105651629512344 2.7979252485321423e-16 -0.95105651629512344 0.3090169943750401 1.4256141199098078e-16 
2 -30.901699437489999 -95.105651629510007 -14.9625 -2.22044604925e-16 -2.22044604925e-16 -1 -0.3090169943750401 -0.95105651629512344 2.7979252485321423e-16 -0.95105651629512344 0.3090169943750401 1.4256141199098078e-16 5
1 -31.25049647422 -89.045747159170006 -14.9625 -2.22044604925e-16 -2.22044604925e-16 -1 -0.97814760073376517 -0.20791169081795011 2.63358066810226e-16 -0.20791169081795011 0.97814760073376517 -1.7102672831630504e-16 
1 -30.901699437489999 -95.105651629510007 -14.9625 -2.22044604925e-16 -2.22044604925e-16 -1 -0.3090169943750401 -0.95105651629512344 2.7979252485321423e-16 -0.95105651629512344 0.3090169943750401 1.4256141199098078e-16 
1 -30.901699437489999 -95.105651629510007 -14.9625 -2.22044604925e-16 -2.22044604925e-16 -1 -0.3090169943750401 -0.95105651629512344 2.7979252485321423e-16 -0.95105651629512344 0.3090169943750401 1.4256141199098078e-16 
1 -30.901699437489999 -95.105651629510007 -14.9625 -2.22044604925e-16 -2.22044604925e-16 -1 -0.3090169943750401 -0.95105651629512344 2.7979252485321423e-16 -0.95105651629512344 0.3090169943750401 1.4256141199098078e-16 
1 -25.82806674003 -91.77363229977 -14.9625 -2.22044604925e-16 -2.22044604925e-16 -1 -0.66913060635913257 0.74314482547714722 -1.6434458042891944e-17 0.74314482547714722 0.66913060635913257 -3.135881403073705e-16 
2 -30.901699437489999 -95.105651629510007 -14.9625 -2.22044604925e-16 -2.22044604925e-16 -1 -0.3090169943750401 -0.95105651629512344 2.7979252485321423e-16 -0.95105651629512344 0.3090169943750401 1.4256141199098078e-16 5
1 -30.901699437489999 -95.105651629510007 -14.9625 -2.22044604925e-16 -2.22044604925e-16 -1 -0.3090169943750401 -0.95105651629512344 2.7979252485321423e-16 -0.95105651629512344 0.3090169943750401 1.4256141199098078e-16 
1 -30.901699437489999 -95.105651629510007 -14.9625 -2.22044604925e-16 -2.22044604925e-16 -1 -0.3090169943750401 -0.95105651629512344 2.7979252485321423e-16 -0.95105651629512344 0.3090169943750401 1.4256141199098078e-16 
1 -30.901699437489999 -95.105651629510007 -14.9625 -2.22044604925e-16 -2.22044604925e-16 -1 -0.3090169943750401 -0.95105651629512344 2.7979252485321423e-16 -0.95105651629512344 0.3090169943750401 1.4256141199098078e-16 
2 -30.901699437489999 -95.105651629510007 -14.9625 -2.22044604925e-16 -2.22044604925e-16 -1 -0.3090169943750401 -0.95105651629512344 2.7979252485321423e-16 -0.95105651629512344 0.3090169943750401 1.4256141199098078e-16 5
2 -30.901699437489999 -95.105651629510007 -14.9625 -2.22044604925e-16 -2.22044604925e-16 -1 -0.3090169943750401 -0.95105651629512344 2.7979252485321423e-16 -0.95105651629512344 0.3090169943750401 1.4256141199098078e-16 5
1 -25.82806674003 -91.77363229977 -14.9625 -2.22044604925e-16 -2.22044604925e-16 -1 -0.66913060635913257 0.74314482547714722 -1.6434458042891944e-17 0.74314482547714722 0.66913060635913257 -3.135881403073705e-16 
1 -30.901699437489999 -95.105651629510007 -14.9625 -2.22044604925e-16 -2.22044604925e-16 -1 -0.3090169943750401 -0.95105651629512344 2.7979252485321423e-16 -0.95105651629512344 0.3090169943750401 1.4256141199098078e-16 
1 -30.901699437489999 -95.105651629510007 -16.962499999999999 -2.22044604925e-16 -2.22044604925e-16 -1 -0.3090169943750401 -0.95105651629512344 2.7979252485321423e-16 -0.95105651629512344 0.3090169943750401 1.4256141199098078e-16 
1 -33.04784269057 -89.427784891049996 -14.9625 -0.97814760073376517 -0.20791169081795011 2.6335806681013681e-16 -2.2204460492491278e-16 -2.2204460492498146e-16 -1 0.20791169081795011 -0.97814760073376517 1.7102672831630504e-16 
1 -31.25049647422 -89.045747159170006 -14.9625 -0.97814760073376517 -0.20791169081795011 2.6335806681013681e-16 -2.2204460492491278e-16 -2.2204460492498146e-16 -1 0.20791169081795011 -0.97814760073376517 1.7102672831630504e-16 
1 -30.901699437489999 -95.105651629510007 -16.962499999999999 -2.22044604925e-16 -2.22044604925e-16 -1 -0.3090169943750401 -0.95105651629512344 2.7979252485321423e-16 -0.95105651629512344 0.3090169943750401 1.4256141199098078e-16 
1 -36.891947898840002 -94.125332837610003 -14.9625 -0.3090169943750401 -0.95105651629512344 2.7979252485323632e-16 -2.220446049250068e-16 -2.2204460492502098e-16 -1 0.95105651629512344 -0.3090169943750401 -1.4256141199098078e-16 
1 -36.324129171679999 -92.377766488909998 -14.9625 -0.3090169943750401 -0.95105651629512344 2.7979252485323632e-16 -2.220446049250068e-16 -2.2204460492502098e-16 -1 0.95105651629512344 -0.3090169943750401 -1.4256141199098078e-16 
1 -30.901699437489999 -95.105651629510007 -16.962499999999999 -2.22044604925e-16 -2.22044604925e-16 -1 -0.3090169943750401 -0.95105651629512344 2.7979252485321423e-16 -0.95105651629512344 0.3090169943750401 1.4256141199098078e-16 
1 -25.82806674003 -91.77363229977 -14.9625 -0.66913060635913257 0.74314482547714722 -1.6434458043013253e-17 -2.220446049249189e-16 -2.2204460492509018e-16 -1 -0.74314482547714722 -0.66913060635913257 3.1358814030737055e-16 
1 -27.057594229220001 -90.408103682949999 -14.9625 -0.66913060635913257 0.74314482547714722 -1.6434458043013253e-17 -2.220446049249189e-16 -2.2204460492509018e-16 -1 -0.74314482547714722 -0.66913060635913257 3.1358814030737055e-16 
1 -30.901699437489999 -95.105651629510007 -16.962499999999999 -2.22044604925e-16 -2.22044604925e-16 -1 -0.3090169943750401 -0.95105651629512344 2.7979252485321423e-16 -0.95105651629512344 0.3090169943750401 1.4256141199098078e-16 
1 -31.25049647422 -89.045747159170006 -14.9625 -0.97814760073376517 -0.20791169081795011 2.6335806681013681e-16 -2.2204460492491278e-16 -2.2204460492498146e-16 -1 0.20791169081795011 -0.97814760073376517 1.7102672831630504e-16 
1 -31.25049647422 -89.045747159170006 -14.9625 -2.22044604925e-16 -2.22044604925e-16 -1 -0.97814760073376517 -0.20791169081795011 2.63358066810226e-16 -0.20791169081795011 0.97814760073376517 -1.7102672831630504e-16 
1 -33.04784269057 -89.427784891049996 -14.9625 -0.97814760073376517 -0.20791169081795011 2.6335806681013681e-16 -2.2204460492491278e-16 -2.2204460492498146e-16 -1 0.20791169081795011 -0.97814760073376517 1.7102672831630504e-16 
1 -30.901699437489999 -95.105651629510007 -16.962499999999999 -2.22044604925e-16 -2.22044604925e-16 -1 -0.3090169943750401 -0.95105651629512344 2.7979252485321423e-16 -0.95105651629512344 0.3090169943750401 1.4256141199098078e-16 
1 -36.324129171679999 -92.377766488909998 -14.9625 -0.3090169943750401 -0.95105651629512344 2.7979252485323632e-16 -2.220446049250068e-16 -2.2204460492502098e-16 -1 0.95105651629512344 -0.3090169943750401 -1.4256141199098078e-16 
1 -36.324129171679999 -92.377766488909998 -14.9625 -2.22044604925e-16 -2.22044604925e-16 -1 -0.3090169943750401 -0.95105651629512344 2.7979252485321423e-16 -0.95105651629512344 0.3090169943750401 1.4256141199098078e-16 
1 -36.891947898840002 -94.125332837610003 -14.9625 -0.3090169943750401 -0.95105651629512344 2.7979252485323632e-16 -2.220446049250068e-16 -2.2204460492502098e-16 -1 0.95105651629512344 -0.3090169943750401 -1.4256141199098078e-16 
1 -30.901699437489999 -95.105651629510007 -16.962499999999999 -2.22044604925e-16 -2.22044604925e-16 -1 -0.3090169943750401 -0.95105651629512344 2.7979252485321423e-16 -0.95105651629512344 0.3090169943750401 1.4256141199098078e-16 
1 -27.057594229220001 -90.408103682949999 -14.9625 -0.66913060635913257 0.74314482547714722 -1.6434458043013253e-17 -2.220446049249189e-16 -2.2204460492509018e-16 -1 -0.74314482547714722 -0.66913060635913257 3.1358814030737055e-16 
1 -25.82806674003 -91.77363229977 -14.9625 -0.66913060635913257 0.74314482547714722 -1.6434458043013253e-17 -2.220446049249189e-16 -2.2204460492509018e-16 -1 -0.74314482547714722 -0.66913060635913257 3.1358814030737055e-16 
2 -30.901699437489999 -95.105651629510007 -14.9625 -2.22044604925e-16 -2.22044604925e-16 -1 -0.3090169943750401 -0.95105651629512344 2.7979252485321423e-16 -0.95105651629512344 0.3090169943750401 1.4256141199098078e-16 5
2 -30.901699437489999 -95.105651629510007 -14.9625 -2.22044604925e-16 -2.22044604925e-16 -1 -0.3090169943750401 -0.95105651629512344 2.7979252485321423e-16 -0.95105651629512344 0.3090169943750401 1.4256141199098078e-16 5
2 -30.901699437489999 -95.105651629510007 -14.9625 -2.22044604925e-16 -2.22044604925e-16 -1 -0.3090169943750401 -0.95105651629512344 2.7979252485321423e-16 -0.95105651629512344 0.3090169943750401 1.4256141199098078e-16 5
Triangulations 0

TShapes 349
Ve
1e-07
-24.79990641205 -97.08824436581 -10.6125
0 0

0101101
*
Ve
1e-07
-24.79990641205 -97.08824436581 -14.9625
0 0

0101101
*
Ed
 1e-07 1 1 0
1  1 0 -0 4.35
4 C0 1 0 2 0
0

0101000
+349 0 -348 0 *
Ve
1e-07
-25.41791288175 -97.64469989053 -14.9625
0 0

0101101
*
Ed
 1e-07 1 1 0
1  2 0 0 0.831609732736742
4 C0 1 0 3 0
0

0101000
+348 0 -346 0 *
Ve
1e-07
-25.58829472656 -97.79811239267 -14.9625
0 0

0101101
*
Ed
 1e-07 1 1 0
1  3 0 0.831609732736742 1.06088111964256
4 C0 1 0 4 0
0

0101000
+346 0 -344 0 *
Ve
1e-07
-28.77939028526 -100.6713877394 -14.9625
0 0

0101101
*
Ed
 1e-07 1 1 0
1  4 0 1.06088111964256 5.35492374668776
4 C0 1 0 5 0
0

0101000
+344 0 -342 0 *
Ve
1e-07
-28.94977213006 -100.8248002416 -14.9625
0 0

0101101
*
Ed
 1e-07 1 1 0
1  5 0 5.35492374668776 5.58419513362628
4 C0 1 0 6 0
0

0101000
+342 0 -340 0 *
Ve
1e-07
-29.56777859977 -101.3812557663 -14.9625
0 0

0101101
*
Ed
 1e-07 1 1 0
1  6 0 5.58419513362628 6.41580486635707
4 C0 1 0 7 0
0

0101000
+340 0 -338 0 *
Ve
1e-07
-29.56777859977 -101.3812557663 -10.6125
0 0

0101101
*
Ed
 1e-07 1 1 0
1  7 0 -0 4.35
4 C0 1 0 8 0
0

0101000
+336 0 -338 0 *
Ed
 1e-07 1 1 0
1  8 0 0 6.41580486635707
4 C0 1 0 9 0
0

0101000
+349 0 -336 0 *
Wi

0101100
+347 0 +345 0 +343 0 +341 0 +339 0 +337 0 -335 0 -334 0 *
Fa
0  1e-07 1 0

0111000
+333 0 *
Ve
1e-07
-26.13382724977 -90.812640229 -10.6125
0 0

0101101
*
Ve
1e-07
-26.13382724977 -90.812640229 -14.9625
0 0

0101101
*
Ed
 1e-07 1 1 0
1  9 0 -0 4.35
4 C0 2 0 10 0
0

0101000
+331 0 -330 0 *
Ve
1e-07
-25.96092586414 -91.62607729382 -14.9625
0 0

0101101
*
Ed
 1e-07 1 1 0
1  10 0 0 0.831609732732707
4 C0 2 0 11 0
0

0101000
+330 0 -328 0 *
Ve
1e-07
-25.91325766243 -91.85033855083 -14.9625
0 0

0101101
*
Ed
 1e-07 1 1 0
1  11 0 0.831609732732707 1.06088111963035
4 C0 2 0 12 0
0

0101000
+328 0 -326 0 *
Ve
1e-07
-25.02047599939 -96.05054604398 -14.9625
0 0

0101101
*
Ed
 1e-07 1 1 0
1  12 0 1.06088111963035 5.35492374673292
4 C0 2 0 13 0
0

0101000
+326 0 -324 0 *
Ve
1e-07
-24.97280779769 -96.27480730099 -14.9625
0 0

0101101
*
Ed
 1e-07 1 1 0
1  13 0 5.35492374673292 5.58419513362849
4 C0 2 0 4 0
0

0101000
+324 0 -322 0 *
Ed
 1e-07 1 1 0
1  14 0 5.58419513362849 6.41580486636326
4 C0 2 0 3 0
0

0101000
+322 0 -348 0 *
Ed
 1e-07 1 1 0
1  15 0 0 6.41580486636326
4 C0 2 0 9 0
0

0101000
+331 0 -349 0 *
Wi

0101100
+329 0 +327 0 +325 0 +323 0 +321 0 +320 0 -347 0 -319 0 *
Fa
0  1e-07 2 0

0111000
+318 0 *
Ve
1e-07
-30.3586864551 -101.1242742262 -14.9625
0 0

0101101
*
Ed
 1e-07 1 1 0
1  16 0 0 0.831609732732166
4 C0 8 0 7 0
0

0101000
+338 0 -316 0 *
Ve
1e-07
-30.57673650161 -101.0534254713 -14.9625
0 0

0101101
*
Ed
 1e-07 1 1 0
1  17 0 0.831609732732166 1.06088111963837
4 C0 8 0 6 0
0

0101000
+316 0 -314 0 *
Ve
1e-07
-34.66061372336 -99.726493325 -14.9625
0 0

0101101
*
Ed
 1e-07 1 1 0
1  18 0 1.06088111963837 5.35492374672218
4 C0 8 0 14 0
0

0101000
+314 0 -312 0 *
Ve
1e-07
-34.87866376987 -99.65564457013 -14.9625
0 0

0101101
*
Ed
 1e-07 1 1 0
1  19 0 5.35492374672218 5.58419513361911
4 C0 8 0 15 0
0

0101000
+312 0 -310 0 *
Ve
1e-07
-35.66957162521 -99.39866303002 -14.9625
0 0

0101101
*
Ed
 1e-07 1 1 0
1  20 0 5.58419513361911 6.41580486636388
4 C0 8 0 16 0
0

0101000
+310 0 -308 0 *
Ve
1e-07
-35.66957162521 -99.39866303002 -10.6125
0 0

0101101
*
Ed
 1e-07 1 1 0
1  21 0 -0 4.35
4 C0 8 0 17 0
0

0101000
+306 0 -308 0 *
Ed
 1e-07 1 1 0
1  22 0 0 6.41580486636388
4 C0 8 0 9 0
0

0101000
+336 0 -306 0 *
Wi

0101100
+335 0 +315 0 +313 0 +311 0 +309 0 +307 0 -305 0 -304 0 *
Fa
0  1e-07 8 0

0111000
+303 0 *
Ve
1e-07
-37.00349246293 -93.12305889321 -10.6125
0 0

0101101
*
Ed
 1e-07 1 1 0
1  23 0 0 6.41580486636326
4 C0 9 0 17 0
0

0101000
+306 0 -301 0 *
Ve
1e-07
-32.23562027521 -88.8300474927 -10.6125
0 0

0101101
*
Ed
 1e-07 1 1 0
1  24 0 0 6.41580486637044
4 C0 9 0 18 0
0

0101000
+301 0 -299 0 *
Ed
 1e-07 1 1 0
1  25 0 0 6.41580486637006
4 C0 9 0 10 0
0

0101000
+299 0 -331 0 *
Wi

0101100
+334 0 +304 0 +300 0 +298 0 +297 0 +319 0 *
Ve
1e-07
-31.89827924435 -98.17280889456 -10.6125
0 0

0101101
*
Ed
 1e-07 1 1 0
1  26 0 0 6.28318530717959
2  1 19 0 0 6.28318530717959
4 C0 9 0 19 0
0

0101100
+295 0 -295 0 *
Wi

0101100
-294 0 *
Fa
0  1e-07 9 0

0111000
+296 0 +293 0 *
Ed
 1e-07 1 1 0
1  27 0 0.198554845421192 1.63894515458488
4 CN 3 0 4 0
0

0101000
+322 0 -346 0 *
Wi

0101100
+320 0 +345 0 -291 0 *
Fa
0  1e-07 3 0

0111000
+290 0 *
Ve
1e-07
-26.51129437071 -97.49821162867 -14.9625
0 0

0101101
*
Ed
 1e-07 1 1 0
1  28 0 10.9148650477347 11.8853643065437
4 CN 4 0 5 0
0

0101000
+288 0 -344 0 *
Ve
1e-07
-25.94347564354 -95.75064527998 -14.9625
0 0

0101101
*
Ed
 1e-07 1 1 0
1  29 0 4.52758892199151 4.8971890387793
4 CN 4 0 20 0
0

0101000
+286 0 -288 0 *
Ed
 1e-07 1 1 0
1  30 0 10.9148650477473 11.8853643065563
4 CN 4 0 13 0
0

0101000
+286 0 -324 0 *
Wi

0101100
+291 0 +343 0 -287 0 -285 0 +284 0 +321 0 *
Fa
0  1e-07 4 0

0111000
+283 0 *
Ve
1e-07
-28.9811684271 -99.72209621795 -14.9625
0 0

0101101
*
Ed
 1e-07 1 1 0
1  31 0 4.8971890387793 5.57478647318748
2  2 21 0 4.8971890387793 5.57478647318748
4 C0 5 0 21 0
0

0101000
+288 0 -281 0 *
Ed
 1e-07 1 1 0
1  32 0 10.9148650477392 11.8853643064824
4 CN 5 0 6 0
0

0101000
+281 0 -342 0 *
Wi

0101100
-280 0 +287 0 +341 0 -279 0 *
Fa
0  1e-07 5 0

0111000
+278 0 *
Ve
1e-07
-30.77851464345 -100.1041339498 -14.9625
0 0

0101101
*
Ed
 1e-07 1 1 0
1  33 0 5.57478647318748 5.94438658997556
4 C1 6 0 22 0
0

0101000
+281 0 -276 0 *
Ed
 1e-07 1 1 0
1  34 0 0.198554845422888 1.63894515459437
4 CN 6 0 7 0
0

0101000
+340 0 -316 0 *
Ed
 1e-07 1 1 0
1  35 0 10.9148650477098 11.885364306502
4 CN 6 0 14 0
0

0101000
+276 0 -314 0 *
Wi

0101100
-275 0 +279 0 +339 0 +274 0 +313 0 -273 0 *
Fa
0  1e-07 6 0

0111000
+272 0 *
Wi

0101100
-274 0 +337 0 +315 0 *
Fa
0  1e-07 7 0

0111000
+270 0 *
Ve
1e-07
-32.23562027521 -88.8300474927 -14.9625
0 0

0101101
*
Ed
 1e-07 1 1 0
1  36 0 -0 4.35
4 C0 10 0 18 0
0

0101000
+299 0 -268 0 *
Ve
1e-07
-31.44471241988 -89.0870290328 -14.9625
0 0

0101101
*
Ed
 1e-07 1 1 0
1  37 0 0 0.831609732732173
4 C0 10 0 23 0
0

0101000
+268 0 -266 0 *
Ve
1e-07
-31.22666237337 -89.15787778767 -14.9625
0 0

0101101
*
Ed
 1e-07 1 1 0
1  38 0 0.831609732732173 1.0608811196291
4 C0 10 0 24 0
0

0101000
+266 0 -264 0 *
Ve
1e-07
-27.14278515162 -90.48480993402 -14.9625
0 0

0101101
*
Ed
 1e-07 1 1 0
1  39 0 1.0608811196291 5.35492374672836
4 C0 10 0 25 0
0

0101000
+264 0 -262 0 *
Ve
1e-07
-26.92473510511 -90.55565868889 -14.9625
0 0

0101101
*
Ed
 1e-07 1 1 0
1  40 0 5.35492374672836 5.5841951336253
4 C0 10 0 12 0
0

0101000
+262 0 -260 0 *
Ed
 1e-07 1 1 0
1  41 0 5.5841951336253 6.41580486637006
4 C0 10 0 11 0
0

0101000
+260 0 -330 0 *
Wi

0101100
+267 0 +265 0 +263 0 +261 0 +259 0 +258 0 -329 0 -297 0 *
Fa
0  1e-07 10 0

0111000
+257 0 *
Ed
 1e-07 1 1 0
1  42 0 0.198554845421056 1.63894515459404
4 CN 11 0 12 0
0

0101000
+328 0 -260 0 *
Wi

0101100
+255 0 +258 0 +327 0 *
Fa
0  1e-07 11 0

0111000
+254 0 *
Ve
1e-07
-27.86400665393 -91.13420069154 -14.9625
0 0

0101101
*
Ed
 1e-07 1 1 0
1  43 0 0.114635693449194 1.0851349522571
4 CN 12 0 25 0
0

0101000
+262 0 -252 0 *
Ve
1e-07
-26.63447916475 -92.49972930835 -14.9625
0 0

0101101
*
Ed
 1e-07 1 1 0
1  44 0 0.1146356934425 1.08513495225784
4 CN 12 0 13 0
0

0101000
+326 0 -250 0 *
Ed
 1e-07 1 1 0
1  45 0 3.48039137079515 3.8499914875818
4 C1 12 0 26 0
0

0101000
+252 0 -250 0 *
Wi

0101100
-251 0 +259 0 -255 0 +325 0 +249 0 -248 0 *
Fa
0  1e-07 12 0

0111000
+247 0 *
Ed
 1e-07 1 1 0
1  46 0 3.8499914875818 4.52758892199151
2  3 27 0 3.8499914875818 4.52758892199151
4 C0 13 0 27 0
0

0101000
+250 0 -286 0 *
Wi

0101100
-245 0 -249 0 +323 0 -284 0 *
Fa
0  1e-07 13 0

0111000
+244 0 *
Ve
1e-07
-35.84247301084 -98.5852259652 -14.9625
0 0

0101101
*
Ed
 1e-07 1 1 0
1  47 0 0 0.831609732732708
4 C0 17 0 16 0
0

0101000
+308 0 -242 0 *
Ve
1e-07
-35.89014121255 -98.36096470819 -14.9625
0 0

0101101
*
Ed
 1e-07 1 1 0
1  48 0 0.831609732732708 1.06088111963035
4 C0 17 0 15 0
0

0101000
+242 0 -240 0 *
Ve
1e-07
-36.78292287559 -94.16075721504 -14.9625
0 0

0101101
*
Ed
 1e-07 1 1 0
1  49 0 1.06088111963035 5.35492374673292
4 C0 17 0 28 0
0

0101000
+240 0 -238 0 *
Ve
1e-07
-36.83059107729 -93.93649595804 -14.9625
0 0

0101101
*
Ed
 1e-07 1 1 0
1  50 0 5.35492374673292 5.5841951336187
4 C0 17 0 29 0
0

0101000
+238 0 -236 0 *
Ve
1e-07
-37.00349246293 -93.12305889321 -14.9625
0 0

0101101
*
Ed
 1e-07 1 1 0
1  51 0 5.5841951336187 6.41580486636326
4 C0 17 0 30 0
0

0101000
+236 0 -234 0 *
Ed
 1e-07 1 1 0
1  52 0 -0 4.35
4 C0 17 0 18 0
0

0101000
+301 0 -234 0 *
Wi

0101100
+305 0 +241 0 +239 0 +237 0 +235 0 +233 0 -232 0 -300 0 *
Fa
0  1e-07 17 0

0111000
+231 0 *
Ve
1e-07
-32.44678440936 -99.86093421099 -14.9625
0 0

0101101
*
Ed
 1e-07 1 1 0
1  53 0 5.94438658997556 6.28318530717959
2  4 31 0 5.94438658997556 6.28318530717959
4 C0 14 0 31 0
0

0101000
+276 0 -229 0 *
Ve
1e-07
-33.93939222105 -99.07710256748 -14.9625
0 0

0101101
*
Ed
 1e-07 1 1 0
1  54 0 10.9148650477396 11.8853643065475
4 CN 14 0 15 0
0

0101000
+227 0 -312 0 *
Ed
 1e-07 1 1 0
1  55 0 0 0.338798717205363
2  5 32 0 0 0.338798717205363
4 C0 14 0 32 0
0

0101000
+229 0 -227 0 *
Wi

0101100
-228 0 +273 0 +311 0 -226 0 -225 0 *
Fa
0  1e-07 14 0

0111000
+224 0 *
Ve
1e-07
-35.16891971023 -97.71157395067 -14.9625
0 0

0101101
*
Ed
 1e-07 1 1 0
1  56 0 0.338798717205363 0.708398833992013
4 C1 15 0 33 0
0

0101000
+227 0 -222 0 *
Ed
 1e-07 1 1 0
1  57 0 0.198554845413632 1.63894515458662
4 CN 15 0 16 0
0

0101000
+310 0 -242 0 *
Ed
 1e-07 1 1 0
1  58 0 10.9148650477389 11.8853643065542
4 CN 15 0 28 0
0

0101000
+222 0 -240 0 *
Wi

0101100
-221 0 +226 0 +309 0 +220 0 +239 0 -219 0 *
Fa
0  1e-07 15 0

0111000
+218 0 *
Wi

0101100
-220 0 +307 0 +241 0 *
Fa
0  1e-07 16 0

0111000
+216 0 *
Ve
1e-07
-36.38548599323 -92.56660336849 -14.9625
0 0

0101101
*
Ed
 1e-07 1 1 0
1  59 0 0 0.831609732736742
4 C0 18 0 30 0
0

0101000
+234 0 -214 0 *
Ve
1e-07
-36.21510414843 -92.41319086635 -14.9625
0 0

0101101
*
Ed
 1e-07 1 1 0
1  60 0 0.831609732736742 1.06088111963511
4 C0 18 0 29 0
0

0101000
+214 0 -212 0 *
Ve
1e-07
-33.02400858972 -89.53991551955 -14.9625
0 0

0101101
*
Ed
 1e-07 1 1 0
1  61 0 1.06088111963511 5.3549237467346
4 C0 18 0 34 0
0

0101000
+212 0 -210 0 *
Ve
1e-07
-32.85362674492 -89.38650301742 -14.9625
0 0

0101101
*
Ed
 1e-07 1 1 0
1  62 0 5.3549237467346 5.58419513362628
4 C0 18 0 24 0
0

0101000
+210 0 -208 0 *
Ed
 1e-07 1 1 0
1  63 0 5.58419513362628 6.41580486637044
4 C0 18 0 23 0
0

0101000
+208 0 -268 0 *
Wi

0101100
+232 0 +213 0 +211 0 +209 0 +207 0 +206 0 -267 0 -298 0 *
Fa
0  1e-07 18 0

0111000
+205 0 *
Ve
1e-07
-31.89827924435 -98.17280889456 -16.9625
0 0

0101101
*
Ed
 1e-07 1 1 0
1  64 0 1 7.35
3  6 7CN 19 0 1 7.35
0

0101000
+295 0 -203 0 *
Ve
1e-07
-31.1576420966 -98.32047951841 -16.9625
0 0

0101101
*
Ed
 1e-07 1 1 0
1  65 0 6.04847165184218 6.28318530717959
2  8 19 0 6.04847165184218 6.28318530717959
4 C0 19 0 35 0
0

0101000
+201 0 -203 0 *
Ve
1e-07
-31.1576420966 -98.32047951841 -14.9625
0 0

0101101
*
Ed
 1e-07 1 1 0
1  66 0 5.35 7.35
2  9 19 0 5.35 7.35
4 C0 19 0 36 0
0

0101000
+199 0 -201 0 *
Ve
1e-07
-29.36029588025 -97.93844178653 -14.9625
0 0

0101101
*
Ed
 1e-07 1 1 0
1  67 0 5.47070141132129 6.04847165184218
2  10 19 0 5.47070141132129 6.04847165184218
4 C0 19 0 22 0
0

0101000
+197 0 -199 0 *
Ve
1e-07
-29.36029588025 -97.93844178653 -16.9625
0 0

0101101
*
Ed
 1e-07 1 1 0
1  68 0 5.35 7.35
2  11 19 0 5.35 7.35
4 C0 19 0 37 0
0

0101000
+197 0 -195 0 *
Ve
1e-07
-28.24554814646 -96.93471841866 -16.9625
0 0

0101101
*
Ed
 1e-07 1 1 0
1  69 0 5.00127410064471 5.47070141132129
2  12 19 0 5.00127410064471 5.47070141132129
4 C0 19 0 38 0
0

0101000
+193 0 -195 0 *
Ve
1e-07
-28.24554814646 -96.93471841866 -14.9625
0 0

0101101
*
Ed
 1e-07 1 1 0
1  70 0 5.35 7.35
2  13 19 0 5.35 7.35
4 C0 19 0 39 0
0

0101000
+191 0 -193 0 *
Ve
1e-07
-27.6777294193 -95.18715206997 -14.9625
0 0

0101101
*
Ed
 1e-07 1 1 0
1  71 0 4.42350386012578 5.00127410064471
2  14 19 0 4.42350386012578 5.00127410064471
4 C0 19 0 20 0
0

0101000
+189 0 -191 0 *
Ve
1e-07
-27.6777294193 -95.18715206997 -16.9625
0 0

0101101
*
Ed
 1e-07 1 1 0
1  72 0 5.35 7.35
2  15 19 0 5.35 7.35
4 C0 19 0 40 0
0

0101000
+189 0 -187 0 *
Ve
1e-07
-27.98960548735 -93.71989052976 -16.9625
0 0

0101101
*
Ed
 1e-07 1 1 0
1  73 0 3.95407654944898 4.42350386012578
2  16 19 0 3.95407654944898 4.42350386012578
4 C0 19 0 41 0
0

0101000
+185 0 -187 0 *
Ve
1e-07
-27.98960548735 -93.71989052976 -14.9625
0 0

0101101
*
Ed
 1e-07 1 1 0
1  74 0 5.35 7.35
2  17 19 0 5.35 7.35
4 C0 19 0 42 0
0

0101000
+183 0 -185 0 *
Ve
1e-07
-29.21913297654 -92.35436191294 -14.9625
0 0

0101101
*
Ed
 1e-07 1 1 0
1  75 0 3.37630630892709 3.95407654944898
2  18 19 0 3.37630630892709 3.95407654944898
4 C0 19 0 26 0
0

0101000
+181 0 -183 0 *
Ve
1e-07
-29.21913297654 -92.35436191294 -16.9625
0 0

0101101
*
Ed
 1e-07 1 1 0
1  76 0 5.35 7.35
2  19 19 0 5.35 7.35
4 C0 19 0 43 0
0

0101000
+181 0 -179 0 *
Ve
1e-07
-30.64575677838 -91.89082374061 -16.9625
0 0

0101101
*
Ed
 1e-07 1 1 0
1  77 0 2.90687899825239 3.37630630892709
2  20 19 0 2.90687899825239 3.37630630892709
4 C0 19 0 44 0
0

0101000
+177 0 -179 0 *
Ve
1e-07
-30.64575677838 -91.89082374061 -14.9625
0 0

0101101
*
Ed
 1e-07 1 1 0
1  78 0 5.35 7.35
2  21 19 0 5.35 7.35
4 C0 19 0 45 0
0

0101000
+175 0 -177 0 *
Ve
1e-07
-32.44310299473 -92.27286147249 -14.9625
0 0

0101101
*
Ed
 1e-07 1 1 0
1  79 0 2.32910875773149 2.90687899825239
2  22 19 0 2.32910875773149 2.90687899825239
4 C0 19 0 46 0
0

0101000
+173 0 -175 0 *
Ve
1e-07
-32.44310299473 -92.27286147249 -16.9625
0 0

0101101
*
Ed
 1e-07 1 1 0
1  80 0 5.35 7.35
2  23 19 0 5.35 7.35
4 C0 19 0 47 0
0

0101000
+173 0 -171 0 *
Ve
1e-07
-33.55785072852 -93.27658484036 -16.9625
0 0

0101101
*
Ed
 1e-07 1 1 0
1  81 0 1.85968144705492 2.32910875773149
2  24 19 0 1.85968144705492 2.32910875773149
4 C0 19 0 48 0
0

0101000
+169 0 -171 0 *
Ve
1e-07
-33.55785072852 -93.27658484036 -14.9625
0 0

0101101
*
Ed
 1e-07 1 1 0
1  82 0 5.35 7.35
2  25 19 0 5.35 7.35
4 C0 19 0 49 0
0

0101000
+167 0 -169 0 *
Ve
1e-07
-34.12566945568 -95.02415118905 -14.9625
0 0

0101101
*
Ed
 1e-07 1 1 0
1  83 0 1.28191120653599 1.85968144705492
2  26 19 0 1.28191120653599 1.85968144705492
4 C0 19 0 50 0
0

0101000
+165 0 -167 0 *
Ve
1e-07
-34.12566945568 -95.02415118905 -16.9625
0 0

0101101
*
Ed
 1e-07 1 1 0
1  84 0 5.35 7.35
2  27 19 0 5.35 7.35
4 C0 19 0 51 0
0

0101000
+165 0 -163 0 *
Ve
1e-07
-33.81379338763 -96.49141272926 -16.9625
0 0

0101101
*
Ed
 1e-07 1 1 0
1  85 0 0.812483895859187 1.28191120653599
2  28 19 0 0.812483895859187 1.28191120653599
4 C0 19 0 52 0
0

0101000
+161 0 -163 0 *
Ve
1e-07
-33.81379338763 -96.49141272926 -14.9625
0 0

0101101
*
Ed
 1e-07 1 1 0
1  86 0 5.35 7.35
2  29 19 0 5.35 7.35
4 C0 19 0 53 0
0

0101000
+159 0 -161 0 *
Ve
1e-07
-32.58426589844 -97.85694134608 -14.9625
0 0

0101101
*
Ed
 1e-07 1 1 0
1  87 0 0.234713655337298 0.812483895859187
2  30 19 0 0.234713655337298 0.812483895859187
4 C0 19 0 33 0
0

0101000
+157 0 -159 0 *
Ve
1e-07
-32.58426589844 -97.85694134608 -16.9625
0 0

0101101
*
Ed
 1e-07 1 1 0
1  88 0 5.35 7.35
2  31 19 0 5.35 7.35
4 C0 19 0 54 0
0

0101000
+157 0 -155 0 *
Ed
 1e-07 1 1 0
1  89 0 0 0.234713655337298
2  32 19 0 0 0.234713655337298
4 C0 19 0 35 0
0

0101000
+203 0 -155 0 *
Wi

0101100
-202 0 +294 0 +202 0 -200 0 -198 0 -196 0 +194 0 -192 0 -190 0 -188 0 
+186 0 -184 0 -182 0 -180 0 +178 0 -176 0 -174 0 -172 0 +170 0 -168 0 
-166 0 -164 0 +162 0 -160 0 -158 0 -156 0 +154 0 -153 0 *
Fa
0  1e-07 19 0

0111000
+152 0 *
Ed
 1e-07 1 1 0
1  90 0 9.09136271529328 10.9148650477473
4 C0 20 0 40 0
0

0101000
+189 0 -286 0 *
Ed
 1e-07 1 1 0
1  91 0 9.09136271529019 10.9148650477347
4 C0 20 0 39 0
0

0101000
+191 0 -288 0 *
Wi

0101100
-188 0 +150 0 +285 0 -149 0 *
Fa
0  1e-07 20 0

0111000
+148 0 *
Ve
1e-07
-28.9811684271 -99.72209621795 -16.9625
0 0

0101101
*
Ed
 1e-07 1 1 0
1  92 0 -0 2
2  33 21 0 -0 2
4 C0 21 0 37 0
0

0101000
+281 0 -146 0 *
Ve
1e-07
-26.51129437071 -97.49821162867 -16.9625
0 0

0101101
*
Ed
 1e-07 1 1 0
1  93 0 4.8971890387793 5.57478647318748
2  34 21 0 4.8971890387793 5.57478647318748
4 C0 21 0 38 0
0

0101000
+144 0 -146 0 *
Ed
 1e-07 1 1 0
1  94 0 -0 2
2  35 21 0 -0 2
4 C0 21 0 39 0
0

0101000
+288 0 -144 0 *
Wi

0101100
+280 0 +145 0 -143 0 -142 0 *
Fa
0  1e-07 21 0

0111000
+141 0 *
Ed
 1e-07 1 1 0
1  95 0 9.09136271528762 10.9148650477392
4 C0 22 0 37 0
0

0101000
+197 0 -281 0 *
Ed
 1e-07 1 1 0
1  96 0 9.09136271528762 10.9148650477098
4 C0 22 0 36 0
0

0101000
+199 0 -276 0 *
Wi

0101100
-196 0 +139 0 +275 0 -138 0 *
Fa
0  1e-07 22 0

0111000
+137 0 *
Ed
 1e-07 1 1 0
1  97 0 0.198554845418112 1.63894515459375
4 CN 23 0 24 0
0

0101000
+266 0 -208 0 *
Wi

0101100
+265 0 +135 0 +206 0 *
Fa
0  1e-07 23 0

0111000
+134 0 *
Ve
1e-07
-31.02488423153 -90.10716930919 -14.9625
0 0

0101101
*
Ed
 1e-07 1 1 0
1  98 0 0.114635693442891 1.08513495225464
4 CN 24 0 25 0
0

0101000
+264 0 -132 0 *
Ve
1e-07
-32.82223044788 -90.48920704107 -14.9625
0 0

0101101
*
Ed
 1e-07 1 1 0
1  99 0 2.43319381959769 2.80279393638592
4 C1 24 0 46 0
0

0101000
+130 0 -132 0 *
Ed
 1e-07 1 1 0
1  100 0 0.114635693442891 1.08513495225465
4 CN 24 0 34 0
0

0101000
+210 0 -130 0 *
Wi

0101100
+263 0 +131 0 -129 0 -128 0 +207 0 -135 0 *
Fa
0  1e-07 24 0

0111000
+127 0 *
Ed
 1e-07 1 1 0
1  101 0 2.80279393638592 3.48039137079515
2  36 55 0 2.80279393638592 3.48039137079515
4 C0 25 0 55 0
0

0101000
+132 0 -252 0 *
Wi

0101100
-131 0 +261 0 +251 0 -125 0 *
Fa
0  1e-07 25 0

0111000
+124 0 *
Ed
 1e-07 1 1 0
1  102 0 1.08513495225784 2.90863728470387
4 C0 26 0 42 0
0

0101000
+250 0 -183 0 *
Ed
 1e-07 1 1 0
1  103 0 1.0851349522571 2.90863728470388
4 C0 26 0 43 0
0

0101000
+252 0 -181 0 *
Wi

0101100
+248 0 +122 0 -180 0 -121 0 *
Fa
0  1e-07 26 0

0111000
+120 0 *
Ve
1e-07
-26.63447916475 -92.49972930835 -16.9625
0 0

0101101
*
Ve
1e-07
-25.94347564354 -95.75064527998 -16.9625
0 0

0101101
*
Ed
 1e-07 1 1 0
1  104 0 3.8499914875818 4.52758892199151
2  37 27 0 3.8499914875818 4.52758892199151
4 C0 27 0 41 0
0

0101000
+118 0 -117 0 *
Ed
 1e-07 1 1 0
1  105 0 -0 2
2  38 27 0 -0 2
4 C0 27 0 42 0
0

0101000
+250 0 -118 0 *
Ed
 1e-07 1 1 0
1  106 0 -0 2
2  39 27 0 -0 2
4 C0 27 0 40 0
0

0101000
+286 0 -117 0 *
Wi

0101100
-116 0 -115 0 +245 0 +114 0 *
Fa
0  1e-07 27 0

0111000
+113 0 *
Ve
1e-07
-35.85992323144 -94.46065797905 -14.9625
0 0

0101101
*
Ed
 1e-07 1 1 0
1  107 0 0.708398833992013 1.38599626839974
2  40 56 0 0.708398833992013 1.38599626839974
4 C0 28 0 56 0
0

0101000
+222 0 -111 0 *
Ed
 1e-07 1 1 0
1  108 0 0.114635693442161 1.08513495225425
4 CN 28 0 29 0
0

0101000
+238 0 -111 0 *
Wi

0101100
-110 0 +219 0 +237 0 +109 0 *
Fa
0  1e-07 28 0

0111000
+108 0 *
Ve
1e-07
-35.29210450427 -92.71309163035 -14.9625
0 0

0101101
*
Ed
 1e-07 1 1 0
1  109 0 0.114635693445257 1.08513495226376
4 CN 29 0 34 0
0

0101000
+212 0 -106 0 *
Ed
 1e-07 1 1 0
1  110 0 1.38599626839974 1.75559638518951
4 CN 29 0 50 0
0

0101000
+111 0 -106 0 *
Ed
 1e-07 1 1 0
1  111 0 0.198554845421178 1.63894515459438
4 CN 29 0 30 0
0

0101000
+214 0 -236 0 *
Wi

0101100
+105 0 -104 0 -109 0 +235 0 -103 0 +211 0 *
Fa
0  1e-07 29 0

0111000
+102 0 *
Wi

0101100
+103 0 +233 0 +213 0 *
Fa
0  1e-07 30 0

0111000
+100 0 *
Ve
1e-07
-32.44678440936 -99.86093421099 -16.9625
0 0

0101101
*
Ed
 1e-07 1 1 0
1  112 0 -0 2
2  41 31 0 -0 2
2  42 32 0 -0 2
4 CN 31 0 32 0
0

0101000
+229 0 -98 0 *
Ve
1e-07
-30.77851464345 -100.1041339498 -16.9625
0 0

0101101
*
Ed
 1e-07 1 1 0
1  113 0 5.94438658997556 6.28318530717959
2  43 31 0 5.94438658997556 6.28318530717959
4 C0 31 0 35 0
0

0101000
+96 0 -98 0 *
Ed
 1e-07 1 1 0
1  114 0 -0 2
2  44 31 0 -0 2
4 C0 31 0 36 0
0

0101000
+276 0 -96 0 *
Wi

0101100
+228 0 +97 0 -95 0 -94 0 *
Fa
0  1e-07 31 0

0111000
+93 0 *
Ve
1e-07
-33.93939222105 -99.07710256748 -16.9625
0 0

0101101
*
Ed
 1e-07 1 1 0
1  115 0 0 0.338798717205363
2  45 32 0 0 0.338798717205363
4 C0 32 0 35 0
0

0101000
+98 0 -91 0 *
Ed
 1e-07 1 1 0
1  116 0 -0 2
2  46 32 0 -0 2
4 C0 32 0 54 0
0

0101000
+227 0 -91 0 *
Wi

0101100
-90 0 -97 0 +225 0 +89 0 *
Fa
0  1e-07 32 0

0111000
+88 0 *
Ed
 1e-07 1 1 0
1  117 0 9.09136271529286 10.9148650477396
4 C0 33 0 54 0
0

0101000
+157 0 -227 0 *
Ed
 1e-07 1 1 0
1  118 0 9.09136271529286 10.9148650477389
4 C0 33 0 53 0
0

0101000
+159 0 -222 0 *
Wi

0101100
-156 0 +86 0 +221 0 -85 0 *
Fa
0  1e-07 33 0

0111000
+84 0 *
Ed
 1e-07 1 1 0
1  119 0 1.75559638518951 2.43319381959769
2  47 57 0 1.75559638518951 2.43319381959769
4 C0 34 0 57 0
0

0101000
+106 0 -130 0 *
Wi

0101100
+128 0 -82 0 -105 0 +209 0 *
Fa
0  1e-07 34 0

0111000
+81 0 *
Ed
 1e-07 1 1 0
1  120 0 -7.91486504771188 -6.09136271528968
4 C0 35 0 36 0
0

0101000
+96 0 -201 0 *
Ed
 1e-07 1 1 0
1  121 0 -7.91486504773822 -6.09136271529145
4 C0 35 0 54 0
0

0101000
+91 0 -155 0 *
Wi

0101100
-79 0 +95 0 +90 0 +78 0 -153 0 -200 0 *
Fa
0  1e-07 35 0

0111000
+77 0 *
Wi

0101100
-86 0 +154 0 -78 0 -89 0 *
Fa
0  1e-07 54 0

0111000
+75 0 *
Ve
1e-07
-35.16891971023 -97.71157395067 -16.9625
0 0

0101101
*
Ed
 1e-07 1 1 0
1  122 0 -7.91486504773823 -6.09136271529219
4 C0 53 0 52 0
0

0101000
+73 0 -161 0 *
Ed
 1e-07 1 1 0
1  123 0 -0 2
2  48 56 0 -0 2
4 C0 53 0 56 0
0

0101000
+222 0 -73 0 *
Wi

0101100
-85 0 +158 0 -72 0 -71 0 *
Fa
0  1e-07 53 0

0111000
+70 0 *
Ve
1e-07
-35.85992323144 -94.46065797905 -16.9625
0 0

0101101
*
Ed
 1e-07 1 1 0
1  124 0 0.708398833992013 1.38599626839974
2  49 56 0 0.708398833992013 1.38599626839974
4 C0 52 0 56 0
0

0101000
+73 0 -68 0 *
Ed
 1e-07 1 1 0
1  125 0 0.0913627152881445 1.91486504773906
4 C0 52 0 51 0
0

0101000
+163 0 -68 0 *
Wi

0101100
-72 0 +67 0 -66 0 -160 0 *
Fa
0  1e-07 52 0

0111000
+65 0 *
Ed
 1e-07 1 1 0
1  126 0 1.08513495225425 2.90863728470517
4 C0 51 0 50 0
0

0101000
+111 0 -165 0 *
Ed
 1e-07 1 1 0
1  127 0 -0 2
2  50 56 0 -0 2
4 C0 51 0 56 0
0

0101000
+111 0 -68 0 *
Wi

0101100
-63 0 +62 0 -66 0 -162 0 *
Fa
0  1e-07 51 0

0111000
+61 0 *
Ed
 1e-07 1 1 0
1  128 0 1.08513495226376 2.90863728470825
4 C0 50 0 49 0
0

0101000
+106 0 -167 0 *
Wi

0101100
+104 0 +59 0 -164 0 -63 0 *
Fa
0  1e-07 50 0

0111000
+58 0 *
Ve
1e-07
-35.29210450427 -92.71309163035 -16.9625
0 0

0101101
*
Ed
 1e-07 1 1 0
1  129 0 -0 2
2  51 57 0 -0 2
4 C0 49 0 57 0
0

0101000
+106 0 -56 0 *
Ed
 1e-07 1 1 0
1  130 0 0.0913627152976593 1.91486504774215
4 C0 49 0 48 0
0

0101000
+169 0 -56 0 *
Wi

0101100
-59 0 +55 0 -54 0 -166 0 *
Fa
0  1e-07 49 0

0111000
+53 0 *
Ve
1e-07
-32.82223044788 -90.48920704107 -16.9625
0 0

0101101
*
Ed
 1e-07 1 1 0
1  131 0 1.75559638518951 2.43319381959769
2  52 57 0 1.75559638518951 2.43319381959769
4 C0 48 0 57 0
0

0101000
+56 0 -51 0 *
Ed
 1e-07 1 1 0
1  132 0 0.0913627152917457 1.91486504774329
4 C0 48 0 47 0
0

0101000
+171 0 -51 0 *
Wi

0101100
-168 0 +54 0 +50 0 -49 0 *
Fa
0  1e-07 48 0

0111000
+48 0 *
Ed
 1e-07 1 1 0
1  133 0 1.08513495225465 2.9086372847062
4 C0 47 0 46 0
0

0101000
+130 0 -173 0 *
Ed
 1e-07 1 1 0
1  134 0 -0 2
2  53 57 0 -0 2
4 C0 47 0 57 0
0

0101000
+130 0 -51 0 *
Wi

0101100
-46 0 +45 0 -49 0 -170 0 *
Fa
0  1e-07 47 0

0111000
+44 0 *
Ed
 1e-07 1 1 0
1  135 0 1.08513495225464 2.90863728470618
4 C0 46 0 45 0
0

0101000
+132 0 -175 0 *
Wi

0101100
+129 0 +42 0 -172 0 -46 0 *
Fa
0  1e-07 46 0

0111000
+41 0 *
Ve
1e-07
-31.02488423153 -90.10716930919 -16.9625
0 0

0101101
*
Ed
 1e-07 1 1 0
1  136 0 -0 2
2  54 55 0 -0 2
4 C0 45 0 55 0
0

0101000
+132 0 -39 0 *
Ed
 1e-07 1 1 0
1  137 0 0.0913627152917457 1.91486504774329
4 C0 45 0 44 0
0

0101000
+177 0 -39 0 *
Wi

0101100
-42 0 +38 0 -37 0 -174 0 *
Fa
0  1e-07 45 0

0111000
+36 0 *
Ve
1e-07
-27.86400665393 -91.13420069154 -16.9625
0 0

0101101
*
Ed
 1e-07 1 1 0
1  138 0 2.80279393638592 3.48039137079515
2  55 55 0 2.80279393638592 3.48039137079515
4 C0 44 0 55 0
0

0101000
+39 0 -34 0 *
Ed
 1e-07 1 1 0
1  139 0 0.0913627152967896 1.91486504774357
4 C0 44 0 43 0
0

0101000
+179 0 -34 0 *
Wi

0101100
-176 0 +37 0 +33 0 -32 0 *
Fa
0  1e-07 44 0

0111000
+31 0 *
Ed
 1e-07 1 1 0
1  140 0 -0 2
2  56 55 0 -0 2
4 C0 43 0 55 0
0

0101000
+252 0 -34 0 *
Wi

0101100
-121 0 +29 0 -32 0 -178 0 *
Fa
0  1e-07 43 0

0111000
+28 0 *
Ed
 1e-07 1 1 0
1  141 0 0.0913627152975369 1.91486504774357
4 C0 42 0 41 0
0

0101000
+185 0 -118 0 *
Wi

0101100
-122 0 +115 0 -26 0 -182 0 *
Fa
0  1e-07 42 0

0111000
+25 0 *
Ed
 1e-07 1 1 0
1  142 0 -7.91486504774137 -6.09136271528736
4 C0 41 0 40 0
0

0101000
+117 0 -187 0 *
Wi

0101100
-184 0 +26 0 +116 0 +23 0 *
Fa
0  1e-07 41 0

0111000
+22 0 *
Wi

0101100
-150 0 +186 0 -23 0 -114 0 *
Fa
0  1e-07 40 0

0111000
+20 0 *
Ed
 1e-07 1 1 0
1  143 0 -7.91486504774137 -6.09136271529688
4 C0 39 0 38 0
0

0101000
+144 0 -193 0 *
Wi

0101100
-149 0 +190 0 -18 0 -142 0 *
Fa
0  1e-07 39 0

0111000
+17 0 *
Ed
 1e-07 1 1 0
1  144 0 -7.91486504774123 -6.0913627152897
4 C0 38 0 37 0
0

0101000
+146 0 -195 0 *
Wi

0101100
-18 0 +143 0 +15 0 -192 0 *
Fa
0  1e-07 38 0

0111000
+14 0 *
Wi

0101100
-139 0 +194 0 -15 0 -145 0 *
Fa
0  1e-07 37 0

0111000
+12 0 *
Wi

0101100
-138 0 +198 0 -79 0 -94 0 *
Fa
0  1e-07 36 0

0111000
+10 0 *
Wi

0101100
-33 0 -38 0 +125 0 +29 0 *
Fa
0  1e-07 55 0

0111000
+8 0 *
Wi

0101100
-67 0 -71 0 +110 0 +62 0 *
Fa
0  1e-07 56 0

0111000
+6 0 *
Wi

0101100
-50 0 -55 0 +82 0 +45 0 *
Fa
0  1e-07 57 0

0111000
+4 0 *
Sh

0101100
-332 0 -317 0 -302 0 -292 0 +289 0 +282 0 +277 0 +271 0 +269 0 -256 0 
+253 0 +246 0 +243 0 -230 0 +223 0 +217 0 +215 0 -204 0 -151 0 +147 0 
+140 0 +136 0 +133 0 +126 0 +123 0 +119 0 +112 0 +107 0 +101 0 +99 0 
+92 0 +87 0 +83 0 +80 0 +76 0 +74 0 -69 0 +64 0 -60 0 +57 0 
+52 0 +47 0 -43 0 +40 0 +35 0 +30 0 -27 0 +24 0 +21 0 +19 0 
-16 0 +13 0 +11 0 -9 0 +7 0 +5 0 +3 0 *
So

0100000
+2 0 *

+1 0 