DBRep_DrawableShape

CASCADE Topology V1, (c) Matra-Datavision
Locations 0
Curve2ds 10
1 6.2831853071795862 0 0 1 
1 4.1389114358025836e-13 0 0 1 
1 0 36.512500000000003 1 0 
1 0 0 1 0 
7 0 1  7 49 9  1.292001873931 27.574999999999999  1.292001873931 27.669151261564998  1.295879445013 27.763244638867999  1.3036264043800001 27.855530206661999  1.3151050790309999 27.944282772487  1.3300560853450001 28.027814771881999  1.3481118568420001 28.104544979166  1.3898184055110001 28.242689551634001  1.4142624049300001 28.306240850506999  1.441829385316 28.360752477487001  1.4719574467609999 28.403797126493  1.503983385383 28.433546552585  1.5371878787740001 28.44875  1.6004451597130001 28.44875  1.6300840802759999 28.436917771428  1.659197954453 28.413268528269999  1.6872804654410001 28.378138245551  1.713821249315 28.332175296452998  1.738318062504 28.276343465555001  1.785308579619 28.13874865639  1.8064881773179999 28.056203634302999  1.8236345046739999 27.966612800242  1.836590204131 27.87197167866  1.845257133636 27.774061134200998  1.8495907796590001 27.674535858533002  1.8495907796590001 27.480848738435  1.8457132085770001 27.386755361132  1.83796624921 27.294469793337999  1.826487574558 27.205717227512999  1.811536568245 27.122185228117999  1.7934807967469999 27.045455020834002  1.751774248134 26.907310448547001  1.7273302485519999 26.843759149044999  1.6997632682899999 26.789247522968999  1.6696352069730001 26.746202873298  1.6376092680529999 26.716453447448998  1.604404774869 26.701250000000002  1.541147493877 26.701250000000002  1.5115085733139999 26.713082228571999  1.4823946991370001 26.73673147173  1.454312188149 26.771861754448999  1.427771404275 26.817824703547  1.403274591085 26.873656534445001  1.3562840739699999 27.011251343609999  1.3351044762719999 27.093796365696999  1.3179581489150001 27.183387199757998  1.305002449459 27.278028321339999  1.2963355199540001 27.375938865799  1.292001873931 27.475464141467 
 0 7 0.12982302137900001 6 0.261517272242 6 0.377695824658 6 0.50971287430900003 6 0.63458819015900003 6 0.76126342044299999 6 0.87301427336299997 6 1 7
7 0 0  7 50 9  0 6.9475934187100004  0.10775537804300001 6.9475934187100004  0.21544391947899999 6.9442059743  0.32310974694900002 6.9374351003520003  0.43080234807200002 6.9276972135139996  0.53854708592199996 6.9157863117989997  0.64631361988199998 6.9027310781370002  0.86320275648800004 6.876166661748  0.97604838390299997 6.8621982720050001  1.0914613031260001 6.8487942139360003  1.2088888467850001 6.8373701738100001  1.3280141496169999 6.8291841161180002  1.448671208091 6.8250000000000002  1.678533144552 6.8250000000000002  1.7862329028820001 6.8282563601839996  1.8939173175340001 6.8347639802479998  2.0016148803589999 6.8441756928800004  2.1093460407209998 6.8557993228259999  2.2170964920679999 6.8686914231509997  2.4471408163759998 6.8967975338079999  2.5665475571999998 6.9117384225449996  2.6837360367200001 6.925274607855  2.7992988905359999 6.9362348109890002  2.9137676812860001 6.9438066403540004  3.027674646685 6.9475934187100004  3.2493480316330001 6.9475934187100004  3.3570365730690002 6.9442059743  3.4647024005390001 6.9374351003520003  3.572395001661 6.9276972135139996  3.6801397395120001 6.9157863117989997  3.7879062734710001 6.9027310781370002  4.0047954097950003 6.8761666617830004  4.1176410380939998 6.8621982719180004  4.2330539564320002 6.8487942140209999  4.350481499971 6.8373701737759998  4.4696068037360002 6.8291841161209996  4.5902638614890003 6.8250000000000002  4.8201257981410004 6.8250000000000002  4.9278255564710003 6.8282563601839996  5.035509971123 6.8347639802479998  5.143207533949 6.8441756928800004  5.2509386943110004 6.8557993228259999  5.3586891456570003 6.8686914231509997  5.5887334699659998 6.8967975338079999  5.7081402107899999 6.9117384225449996  5.8253286903100001 6.925274607855  5.940891544126 6.9362348109890002  6.055360334875 6.9438066403540004  6.169267300275 6.9475934187100004  6.2831853071800001 6.9475934187100004 
 0 8 0.12982302137900001 6 0.261517272242 6 0.377695824658 6 0.50971287430900003 6 0.63458819015900003 6 0.76126342044299999 6 0.87301427336299997 6 1 8
7 0 1  7 49 9  4.9911834332489997 27.574999999999999  4.9911834332489997 27.669151261564998  4.9873058621670001 27.763244638867999  4.9795589028 27.855530206661999  4.9680802281479997 27.944282772487  4.9531292218349998 28.027814771881999  4.9350734503369997 28.104544979166  4.8933669016690002 28.242689551634001  4.8689229022490004 28.306240850506999  4.8413559218630002 28.360752477487001  4.8112278604179997 28.403797126493  4.7792019217970001 28.433546552585  4.7459974284059996 28.44875  4.6827401474670003 28.44875  4.653101226904 28.436917771428  4.6239873527270001 28.413268528269999  4.5959048417390003 28.378138245551  4.569364057864 28.332175296452998  4.5448672446750003 28.276343465555001  4.4978767275599996 28.13874865639  4.4766971298609999 28.056203634302999  4.4595508025050004 27.966612800242  4.4465951030489999 27.87197167866  4.4379281735439999 27.774061134200998  4.4335945275209996 27.674535858533002  4.4335945275209996 27.480848738435  4.4374720986030001 27.386755361132  4.4452190579700002 27.294469793337999  4.4566977326210004 27.205717227512999  4.4716487389340003 27.122185228117999  4.4897045104320004 27.045455020834002  4.5314110590460004 26.907310448545999  4.5558550586280004 26.843759149046001  4.5834220388900002 26.789247522968999  4.613550100206 26.746202873298  4.6455760391260004 26.716453447448998  4.6787805323110003 26.701250000000002  4.7420378133029999 26.701250000000002  4.7716767338660002 26.713082228571999  4.8007906080430001 26.73673147173  4.8288731190299998 26.771861754448999  4.8554139029050001 26.817824703547  4.8799107160939998 26.873656534445001  4.9269012332089996 27.011251343609999  4.9480808309080002 27.093796365696999  4.9652271582639997 27.183387199757998  4.9781828577200002 27.278028321339999  4.9868497872260003 27.375938865799  4.9911834332489997 27.475464141467 
 0 7 0.12982302137900001 6 0.261517272242 6 0.37769582465899998 6 0.50971287430900003 6 0.63458819015900003 6 0.76126342044299999 6 0.87301427336299997 6 1 7
7 0 0  7 50 9  0 13.052406581290001  0.10775537804300001 13.052406581290001  0.21544391947899999 13.055794025699999  0.32310974694900002 13.062564899648001  0.43080234807200002 13.072302786486  0.53854708592199996 13.084213688201  0.646313619881 13.097268921863  0.86320275648800004 13.123833338252  0.97604838390299997 13.137801727995001  1.0914613031260001 13.151205786064001  1.2088888467850001 13.162629826190001  1.3280141496169999 13.170815883882  1.448671208091 13.175000000000001  1.678533144552 13.175000000000001  1.7862329028820001 13.171743639816  1.8939173175340001 13.165236019751999  2.0016148803589999 13.15582430712  2.1093460407209998 13.144200677174  2.2170964920679999 13.131308576848999  2.4471408163759998 13.103202466192  2.5665475571999998 13.088261577455  2.6837360367200001 13.074725392145  2.7992988905359999 13.063765189011001  2.9137676812860001 13.056193359646  3.027674646685 13.052406581290001  3.2493480316330001 13.052406581290001  3.3570365730690002 13.055794025699999  3.4647024005390001 13.062564899648001  3.572395001661 13.072302786486  3.6801397395120001 13.084213688201  3.7879062734710001 13.097268921863  4.0047954097960003 13.123833338217  4.1176410380929998 13.137801728082  4.2330539564330003 13.151205785979  4.3504814999699999 13.162629826224  4.4696068037370003 13.170815883878999  4.5902638614890003 13.175000000000001  4.8201257981410004 13.175000000000001  4.9278255564710003 13.171743639816  5.035509971123 13.165236019751999  5.143207533949 13.15582430712  5.2509386943110004 13.144200677174  5.3586891456570003 13.131308576848999  5.5887334699659998 13.103202466192  5.7081402107899999 13.088261577455  5.8253286903100001 13.074725392145  5.940891544126 13.063765189011001  6.0553603348760001 13.056193359646  6.169267300275 13.052406581290001  6.2831853071800001 13.052406581290001 
 0 8 0.12982302137900001 6 0.261517272242 6 0.37769582465899998 6 0.50971287430900003 6 0.63458819015900003 6 0.76126342044299999 6 0.87301427336299997 6 1 8
1 6.2831853071800001 -0 0 1 
1 0 -0 0 1 
Curves 6
1 -120.175 -3.8882535872929999e-16 11.612500000000001 -2.22044604925e-16 2.4651903288160002e-32 -1 
2 -117 6.2615834351919998e-31 -24.899999999999999 -2.22044604925e-16 2.4651903288160002e-32 -1 -1 1.2246467991469999e-16 2.22044604925e-16 1.2246467991469999e-16 1 -2.5407181807661437e-33 3.1749999999999998
2 -117 -2.7394427528959998e-31 11.612500000000001 -2.22044604925e-16 2.4651903288160002e-32 -1 -1 1.2246467991469999e-16 2.22044604925e-16 1.2246467991469999e-16 1 -2.5407181807661437e-33 3.1749999999999998
7 0 1  7 49 9  -117.87375 3.0524065812900001 -15.9625  -117.87375 3.0524065812900001 -16.056651261559999  -117.86191332600001 3.0557940257 -16.150744638860001  -117.83826900139999 3.0625648996480002 -16.243030206659999  -117.8031454508 3.072302786486 -16.33178277248  -117.7571793888 3.0842136882009998 -16.415314771879999  -117.701335418 3.0972689218629998 -16.492044979159999  -117.5716090296 3.123833338252 -16.63018955163  -117.4952490825 3.1378017279949999 -16.693740850499999  -117.4087023341 3.1512057860640001 -16.748252477480001  -117.3136172447 3.1626298261899999 -16.791297126490001  -117.21213093439999 3.1708158838820002 -16.82104655258  -117.1067068224 3.1749999999999998 -16.83625  -116.90586495540001 3.1749999999999998 -16.83625  -116.8117618011 3.1717436398159999 -16.824417771419999  -116.7194589044 3.1652360197520002 -16.800768528270002  -116.6307042522 3.1558243071200001 -16.765638245550001  -116.5471856417 3.1442006771740001 -16.719675296449999  -116.4704635905 3.1313085768489999 -16.663843465549999  -116.323940001 3.1032024661920001 -16.526248656389999  -116.2583343064 3.088261577455 -16.4437036343  -116.2055829081 3.074725392145 -16.354112800239999  -116.16593229750001 3.0637651890109998 -16.259471678659999  -116.13947838209999 3.056193359646 -16.161561134199999  -116.12625 3.0524065812900001 -16.062035858529999  -116.12625 3.0524065812900001 -15.868348738430001  -116.13808667390001 3.0557940257 -15.774255361130001  -116.1617309985 3.0625648996480002 -15.68196979333  -116.1968545491 3.072302786486 -15.593217227509999  -116.2428206111 3.0842136882009998 -15.509685228109999  -116.2986645819 3.0972689218629998 -15.432955020830001  -116.4283909701 3.123833338217 -15.29481044854  -116.50475091769999 3.1378017280820001 -15.23125914904  -116.5912976657 3.1512057859790001 -15.17674752296  -116.68638275479999 3.1626298262239998 -15.13370287329  -116.787869066 3.1708158838789999 -15.10395344744  -116.8932931773 3.1749999999999998 -15.088749999999999  -117.09413504450001 3.1749999999999998 -15.088749999999999  -117.18823819879999 3.1717436398159999 -15.10058222857  -117.2805410955 3.1652360197520002 -15.124231471730001  -117.36929574769999 3.1558243071200001 -15.159361754440001  -117.4528143582 3.1442006771740001 -15.205324703540001  -117.5295364094 3.1313085768489999 -15.26115653444  -117.6760599989 3.1032024661920001 -15.39875134361  -117.7416656935 3.088261577455 -15.48129636569  -117.7944170918 3.074725392145 -15.57088719975  -117.83406770240001 3.0637651890109998 -15.66552832134  -117.8605216178 3.056193359646 -15.76343886579  -117.87375 3.0524065812900001 -15.862964141459999 
 0 7 0.12982302137900001 6 0.261517272242 6 0.377695824658 6 0.50971287430900003 6 0.63458819015900003 6 0.76126342044299999 6 0.87301427336299997 6 1 7
7 0 1  7 49 9  -117.87375 -3.0524065812900001 -15.9625  -117.87375 -3.0524065812900001 -16.056651261559999  -117.86191332600001 -3.0557940257 -16.150744638860001  -117.83826900139999 -3.0625648996480002 -16.243030206659999  -117.8031454508 -3.072302786486 -16.33178277248  -117.7571793888 -3.0842136882009998 -16.415314771879999  -117.701335418 -3.0972689218629998 -16.492044979159999  -117.5716090296 -3.123833338252 -16.63018955163  -117.4952490825 -3.1378017279949999 -16.693740850499999  -117.4087023341 -3.1512057860640001 -16.748252477480001  -117.3136172447 -3.1626298261899999 -16.791297126490001  -117.21213093439999 -3.1708158838820002 -16.82104655258  -117.1067068224 -3.1749999999999998 -16.83625  -116.90586495540001 -3.1749999999999998 -16.83625  -116.8117618011 -3.1717436398159999 -16.824417771419999  -116.7194589044 -3.1652360197520002 -16.800768528270002  -116.6307042522 -3.1558243071200001 -16.765638245550001  -116.5471856417 -3.1442006771740001 -16.719675296449999  -116.4704635905 -3.1313085768489999 -16.663843465549999  -116.323940001 -3.1032024661920001 -16.526248656389999  -116.2583343064 -3.088261577455 -16.4437036343  -116.2055829081 -3.074725392145 -16.354112800239999  -116.16593229750001 -3.0637651890109998 -16.259471678659999  -116.13947838209999 -3.056193359646 -16.161561134199999  -116.12625 -3.0524065812900001 -16.062035858529999  -116.12625 -3.0524065812900001 -15.868348738430001  -116.13808667390001 -3.0557940257 -15.774255361130001  -116.1617309985 -3.0625648996480002 -15.68196979333  -116.1968545491 -3.072302786486 -15.593217227509999  -116.2428206111 -3.0842136882009998 -15.509685228109999  -116.2986645819 -3.0972689218629998 -15.432955020830001  -116.4283909701 -3.123833338217 -15.29481044854  -116.50475091769999 -3.1378017280820001 -15.23125914904  -116.5912976657 -3.1512057859790001 -15.17674752296  -116.68638275479999 -3.1626298262239998 -15.13370287329  -116.787869066 -3.1708158838789999 -15.10395344744  -116.8932931773 -3.1749999999999998 -15.088749999999999  -117.09413504450001 -3.1749999999999998 -15.088749999999999  -117.18823819879999 -3.1717436398159999 -15.10058222857  -117.2805410955 -3.1652360197520002 -15.124231471730001  -117.36929574769999 -3.1558243071200001 -15.159361754440001  -117.4528143582 -3.1442006771740001 -15.205324703540001  -117.5295364094 -3.1313085768489999 -15.26115653444  -117.6760599989 -3.1032024661920001 -15.39875134361  -117.7416656935 -3.088261577455 -15.48129636569  -117.7944170918 -3.074725392145 -15.57088719975  -117.83406770240001 -3.0637651890109998 -15.66552832134  -117.8605216178 -3.056193359646 -15.76343886579  -117.87375 -3.0524065812900001 -15.862964141459999 
 0 7 0.12982302137900001 6 0.261517272242 6 0.37769582465899998 6 0.50971287430900003 6 0.63458819015900003 6 0.76126342044299999 6 0.87301427336299997 6 1 7
1 -117.87375 10 -15.9625 -1.2246467991469999e-16 -1 2.540718180781e-33 
Polygon3D 0
PolygonOnTriangulations 0
Surfaces 4
2 -117 -2.7394427528959998e-31 11.612500000000001 -2.22044604925e-16 2.4651903288160002e-32 -1 -1 1.2246467991469999e-16 2.22044604925e-16 1.2246467991469999e-16 1 -2.5407181807661437e-33 3.1749999999999998
1 -117 6.2615834351919998e-31 -24.899999999999999 -2.22044604925e-16 2.4651903288160002e-32 -1 -1 1.2246467991469999e-16 2.22044604925e-16 1.2246467991469999e-16 1 -2.5407181807661437e-33 
1 -117 -2.7394427528959998e-31 11.612500000000001 -2.22044604925e-16 2.4651903288160002e-32 -1 -1 1.2246467991469999e-16 2.22044604925e-16 1.2246467991469999e-16 1 -2.5407181807661437e-33 
2 -117 10 -15.9625 -1.2246467991469999e-16 -1 2.540718180781e-33 -1 1.2246467991469999e-16 2.22044604925e-16 -2.22044604925e-16 2.4651903288145146e-32 -1 0.87375000000000003
Triangulations 0

TShapes 22
Ve
1e-07
-120.175 -3.888253587293e-16 11.6125
0 0

0101101
*
Ve
1e-07
-120.175 -3.888253587293e-16 -24.9
0 0

0101101
*
Ed
 1e-07 1 1 0
1  1 0 0 36.5125
3  1 2CN 1 0 0 36.5125
0

0101000
+22 0 -21 0 *
Ed
 1e-07 1 1 0
1  2 0 0 6.28318530717959
2  3 1 0 0 6.28318530717959
4 C0 1 0 2 0
0

0101100
+21 0 -21 0 *
Ed
 1e-07 1 1 0
1  3 0 0 6.28318530717959
2  4 1 0 0 6.28318530717959
4 C0 1 0 3 0
0

0101100
+22 0 -22 0 *
Wi

0101100
+20 0 -19 0 -20 0 +18 0 *
Ve
1e-07
-117.87375 3.05240658129 -15.9625
0 0

0101101
*
Ed
 1e-07 1 1 0
1  4 0 0 1
2  5 1 0 0 1
2  6 4 0 0 1
4 C0 1 0 4 0
0

0101100
+16 0 -16 0 *
Wi

0101100
+15 0 *
Ve
1e-07
-117.87375 -3.05240658129 -15.9625
0 0

0101101
*
Ed
 1e-07 1 1 0
1  5 0 0 1
2  7 1 0 0 1
2  8 4 0 0 1
4 C0 1 0 4 0
0

0101100
+13 0 -13 0 *
Wi

0101100
-12 0 *
Fa
0  1e-07 1 0

0111000
+17 0 +14 0 +11 0 *
Wi

0101100
-18 0 *
Fa
0  1e-07 3 0

0111000
-9 0 *
Wi

0101100
+19 0 *
Fa
0  1e-07 2 0

0111000
+7 0 *
Ed
 1e-07 1 1 0
1  6 0 6.94759341871 13.05240658129
3  9 10CN 4 0 6.94759341871 13.05240658129
0

0101000
+16 0 -13 0 *
Wi

0101100
-12 0 -5 0 +15 0 +5 0 *
Fa
0  1e-07 4 0

0111000
+4 0 *
Sh

0101100
+10 0 -8 0 +6 0 -3 0 *
So

0100000
+2 0 *

+1 0 