DBRep_DrawableShape

CASCADE Topology V1, (c) Matra-Datavision
Locations 0
Curve2ds 111
7 0 0  7 8 2  0.01659916699688457 1.5450463204202072  0.014182366148014391 1.5392043184753079  0.011780828175769942 1.5333514754779918  0.0093944924968334814 1.5274879009909799  0.0070232996408069095 1.5216137014342392  0.0046671912502117569 1.5157289800849836  0.002326110080489191 1.5098338370776705  0 1.503928369404 
 0.94089044812781364 8 1 8
1 0 -0 0 1 
1 0 4.1389114358025836e-13 1 0 
1 0 6.2831853071795862 1 0 
1 3.1415926535900001 3.141592653589413 -0 -1 
7 0 0  7 8 2  3.1249934865929099 1.5450463204201943  3.1274102874417973 1.5392043184752466  3.1298118254140621 1.5333514754778816  3.1321981610930232 1.5274879009908244  3.1345693539490798 1.5216137014340512  3.1369254623397103 1.5157289800847904  3.1392665435094731 1.5098338370775259  3.1415926535900001 1.503928369404 
 0.94089044812771638 8 1 8
7 0 0  4 5 2  3.1249935040154901 1.5450463930698883  3.1291030989962585 1.5515162220800796  3.1332394496389773 1.557964615909168  3.1374026119219356 1.5643913840691146  3.1415926535900001 1.57079632681 
 3.0166913278580252e-05 5 1 5
7 0 0  4 5 2  4.6866390466546308 -1.5660698075244332e-11  4.6931088756668951 0.004971827612182545  4.6995572694830559 0.0099625220798658619  4.7059840376880597 0.014971949990585548  4.7123889803749996 0.02000000000465 
 3.0166913278580252e-05 5 1 5
7 0 0  6 42 9  3.1415926535900001 4.7123889803620003  3.1339207903420001 4.6626030458820003  3.1260193156680001 4.6128511943549997  3.117905861673 4.5631268021369999  3.109604164372 4.5134220572829999  3.1011440636810002 4.4637279595520001  3.0820825260550002 4.3533602902209996  3.0714214178780002 4.2926874259729999  3.0606441781970002 4.2319965399050004  3.0498341638480002 4.1712673288159996  3.039093298609 4.110478733871  3.017881141762 3.9880929506720002  3.0074143145379999 3.926495263014  2.9972665212099998 3.864793896803  2.9875850419719998 3.8029707844440002  2.9785291611479998 3.74101411988  2.9584029360609998 3.5899101082649998  2.9481594203229999 3.5006065533189998  2.9399953822099998 3.4110270873349999  2.9343755395770001 3.3212189687599998  2.9315716007389998 3.2312713045049999  2.9315822730579999 3.0888972312549998  2.9325416661860002 3.036459533655  2.934457278435 2.984047288283  2.93729781517 2.9316823360150002  2.9410067606879999 2.8793826505390001  2.9524174162030001 2.7470416514920002  2.9611939317479998 2.6671080480380001  2.9715720777580001 2.5874058410749998  2.9831924434129999 2.5079389204839999  2.9957093996180002 2.4286871253940001  3.0220728549759999 2.2697217556089999  3.0359312375549998 2.190014488039  3.0500900929129999 2.110444120415  3.064286834836 2.0309629582980002  3.0783250098789998 1.9515249028320001  3.1007276934850001 1.8219021183540001  3.109277324237 1.771719481536  3.1176663155619999 1.72152625852  3.1258638061099999 1.6713131578010001  3.1338452973540001 1.6210721217849999  3.1415926535900001 1.570796326792 
 0 7 0.0957329300563 5 0.21261917118699999 5 0.33074767146599998 5 0.50008262328300002 5 0.59881065964699998 5 0.750291327658 5 0.90332699233799996 5 1 7
7 0 0  6 42 9  1.5707963268089999 0.020000000006680001  1.620582261304 0.029206034344980002  1.670334112828 0.038513621851919998  1.720058505041 0.047887425249300002  1.7697632498939999 0.057289852078049999  1.819457347628 0.066681054698270001  1.9298250169590001 0.087420118755039994  1.9904978812059999 0.098741678619590004  2.0511887672740001 0.109907240989  2.111917978363 0.120834669623  2.1727065733090001 0.13143707322199999  2.2950923565079999 0.15191882625600001  2.3566900441660001 0.16178903319900001  2.4183914103770001 0.17114160004199999  2.480214522736 0.17987830395099999  2.5421711873000001 0.18790130967999999  2.6932751989149999 0.20546527899600001  2.7825787538609998 0.21415806187799999  2.8721582198450002 0.22092558608900001  2.9619663384199999 0.22552675866499999  3.0519140026740001 0.22782346789899999  3.1942880759240002 0.22781472726999999  3.2467257735250001 0.227028908546  3.2991380188970001 0.225460221997  3.351502971165 0.223124486347  3.4038026566399999 0.220050891814  3.5361436556869998 0.21049242195699999  3.616077259141 0.20306219995300001  3.6957794661040002 0.19413078412400001  3.7752463866950001 0.183894366419  3.854498181786 0.17256133593199999  4.0134635515710002 0.147980789108  4.09317081914 0.134715235174  4.1727411867650002 0.120745485587  4.2522223488810003 0.106275761461  4.3316604043479998 0.091493385966010005  4.461283188825 0.06714305895863  4.5114658256429996 0.057659922364069999  4.5616590486590001 0.048164139580889997  4.6118721493789998 0.038696792186380002  4.6621131853950004 0.029296615783109999  4.7123889803869998 0.01999999999898 
 0 7 0.0957329300563 5 0.21261917118699999 5 0.33074767146599998 5 0.50008262328300002 5 0.59881065964699998 5 0.750291327658 5 0.90332699233799996 5 1 7
7 0 0  4 5 2  3.1249935040156069 4.7381389141099302  3.1291030989973456 4.7316690850987824  3.1332394496390363 4.7252206912657417  3.137402611922965 4.7187939231158396  3.1415926535900001 4.7123889803620003 
 3.0166913275889534e-05 5 1 5
7 0 0  4 5 2  1.5965462605243874 -1.5674795096142962e-11  1.5900764315131182 0.0049718276124369829  1.5836280376989524 0.0099625220809386565  1.5772012694839455 0.014971949990242045  1.5707963268089999 0.020000000006680001 
 3.0166913275889534e-05 5 1 5
7 0 0  8 9 2  3.1415926535900001 4.7792569377760001  3.1395558838225406 4.7740860397513316  3.1375083330579732 4.7689240661786441  3.1354499457294249 4.7637709992827277  3.1333806659280254 4.7586268257990545  3.1313004374518578 4.7534915368892756  3.1292092038468549 4.748365128074381  3.1271069084407639 4.7432475991832028  3.1249934943710365 4.7381389543143868 
 0 9 0.059072960631705536 9
1 3.1415926535900001 9.4247779607689992 -0 -1 
1 0 -0 0 1 
7 0 0  7 8 2  0.016599166996946576 4.7381389867590649  0.014182366148067203 4.7439809887040214  0.011780828175813713 4.7498338317014106  0.0093944924968683407 4.7556974061885136  0.0070232996408329572 4.7615716057453632  0.0046671912502290686 4.7674563270947452  0.0023261100804978191 4.7733514701021944  0 4.7792569377760001 
 0.94089044812710687 8 1 8
7 0 0  4 5 2  0.016599149574159935 4.7381389141099373  0.012489554593148365 4.7316690850997913  0.0083532039508477148 4.7252206912697474  0.004190041668173705 4.7187939231098417  0 4.712388980369 
 3.0166913644440203e-05 5 1 5
7 0 0  4 5 2  1.5450463930656122 -1.5675209062002471e-11  1.5515162220768819 0.0049718276121716197  1.5579646158930467 0.0099625220798595492  1.5643913840980548 0.014971949990581879  1.570796326785 0.02000000000465 
 3.0166913644440203e-05 5 1 5
7 0 0  6 22 5  0.21001432086399999 3.1415926535900001  0.21001432086399999 3.193523467096  0.209077197017 3.2454554024240001  0.207202162237 3.2973627190410002  0.204419224939 3.349224156425  0.200782737603 3.4010221428129999  0.18952212049799999 3.5328521428099999  0.180804541894 3.6127757324209999  0.170476851111 3.6924684623870001  0.158897667366 3.7719257683120002  0.14641298235700001 3.851167305438  0.119921364596 4.0111764772529996  0.105885778899 4.0919328381659996  0.091538073909150003 4.1725479546740001  0.077151999293510007 4.2530714455669996  0.062931340848210005 4.3335512198790003  0.04044858991032 4.4637279595450003  0.031988489218400001 4.513422057264  0.023686791918979998 4.5631268021110003  0.01557333793027 4.6128511943279999  0.0076718632589149998 4.662603045849  0 4.7123889803020003 
 0 7 0.19555196607299999 5 0.49844711709099998 5 0.80853731599099998 5 1 7
7 0 0  6 22 5  0 0.22781795440300001  0.051930813506129998 0.22781795440300001  0.103862748834 0.227050378085  0.155770065451 0.225514935331  0.20763150283500001 0.22322679727299999  0.25942948922300002 0.220214031511  0.39125948921999998 0.21078557609099999  0.47118307883100002 0.203409609336  0.55087580879700004 0.194528111118  0.63033311472200004 0.18433657230200001  0.70957465184799995 0.17304314482700001  0.869583823664 0.14836707309899999  0.950340184576 0.13494161093500001  1.0309553010850001 0.12079026556  1.1114787919769999 0.106125635616  1.191958566289 0.091142418783810006  1.3221353059550001 0.066681054699620004  1.371829403684 0.05728985208397  1.4215341485270001 0.047887425255599997  1.4712585407250001 0.038513621854390001  1.5210103922380001 0.029206034346570001  1.5707963267439999 0.02000000002466 
 0 7 0.19555196607299999 5 0.49844711709099998 5 0.80853731599099998 5 1 7
7 0 0  6 22 5  0 1.570796326817  0.0077473562407819998 1.6210721217999999  0.01572884748325 1.671313157813  0.023926338028599999 1.7215262585319999  0.032315329352660002 1.7717194815449999  0.040864960105840002 1.821902118358  0.067758561385200006 1.9775095243230001  0.086521976532850001 2.0829253597780002  0.105476943778 2.188447185147  0.124135520789 2.2941831218619999  0.141765410767 2.400241725875  0.16530499770400001 2.5588254218939999  0.17260389541900001 2.6110449893040002  0.179370672102 2.6633625036440001  0.18550743327499999 2.7157787668490001  0.190921797019 2.7682886007560001  0.200214252186 2.874181185686  0.20407092422699999 2.9275674886249998  0.20702609648500001 2.9810229070799998  0.20901855594499999 3.0345285426680002  0.21001432086399999 3.088061241163  0.21001432086399999 3.1415926535900001 
 0 7 0.19334542018199999 5 0.59953038819000004 5 0.79842145251600005 5 1 7
7 0 0  6 22 5  4.712388980399 0.02000000000669  4.7626647753949998 0.029296615783829999  4.8129058114059999 0.038696792187479997  4.86311891212 0.04816413958363  4.9133121351320002 0.057659922366649997  4.9634947719479996 0.067143058959279994  5.1191021779129997 0.096374734820120003  5.2245180133679998 0.115930335279  5.330039838737 0.13483664824700001  5.435775775452 0.15264568991999999  5.5418343794649996 0.168849337061  5.7004180754830003 0.189875927434  5.7526376428940003 0.19628629753999999  5.8049551572339997 0.20213867297400001  5.8573714204389997 0.20737732705600001  5.9098812543449997 0.21195182448899999  6.015773839275 0.219742868491  6.0691601422149999 0.222940398003  6.1226155606689998 0.22537076317900001  6.1761211962580003 0.22700233814500001  6.2296538947529996 0.22781795440300001  6.2831853071800001 0.22781795440300001 
 0 7 0.19334542018199999 5 0.59953038819000004 5 0.79842145251600005 5 1 7
7 0 0  4 5 2  0.016599149574300798 1.5450463930698393  0.012489554593034745 1.5515162220800436  0.0083532039509919692 1.5579646159131431  0.0041900416664916668 1.5643913840641028  0 1.570796326817 
 3.0166913650708362e-05 5 1 5
7 0 0  4 5 2  4.7381389141144394 -1.5715197109824471e-11  4.7316690851021566 0.0049718276124065645  4.7252206912889791 0.0099625220809203014  4.7187939230739593 0.014971949990221833  4.712388980399 0.02000000000669 
 3.0166913650708362e-05 5 1 5
1 0 0 1 0 
1 6.2831853071795862 0 0 1 
1 4.1389114358025836e-13 0 0 1 
1 0 1.0420791198799999 1 0 
7 0 0  5 6 2  4.7378686999497557 1.0020790847332999  4.7544470419948928 1.0100967392280045  4.7710253840400227 1.0181101619192587  4.7876037260851483 1.0261147582018706  4.8041820681302712 1.0341059358740401  4.8207604101753772 1.0420791198804467 
 4.7378685828499076 6 4.8207604101740644 6
7 0 0  5 6 2  4.7123889803849996 1.0220791198800001  4.7174850537879998 1.0180785670020001  4.722581127192 1.0140780141229999  4.7276772005960002 1.0100776776910001  4.7327732739990003 1.0060777741510001  4.7378693474029996 1.00207851988 
 1.570796326795 6 1.596276693813 6
7 0 0  5 6 2  1.570796326795 0.02  1.5657002533910001 0.01599944712148  1.5606041799879999 0.01199889424295  1.555508106584 0.0079985578107080006  1.55041203318 0.003998654271024  1.5453159597770001 -6.0000007806589995e-07 
 1.570796326795 6 1.596276693813 6
7 0 0  3 25 23  3.1415926535897558 0.83716690053913112  3.1653925979353832 0.83716650176566787  3.2129924866266326 0.83748144268715852  3.2843923196635001 0.83889341203344259  3.3557921527002961 0.84123915104266234  3.4271919857371991 0.84450632942337633  3.4985918187739893 0.84867839938509559  3.5699916518108048 0.85373407395226519  3.6413914848475324 0.85964759781782007  3.7127913178842724 0.86638883507649034  3.7841911509209671 0.87392343444913811  3.8555909839577023 0.88221300120495127  3.9269908169942425 0.89121529364924479  3.9983906500308639 0.90088443815307007  4.0697904830674183 0.91117116297585876  4.1411903161038852 0.92202304932196155  4.2125901491403361 0.93338479847835809  4.2839899821767329 0.94519851353011597  4.3553898152130968 0.9574039946632511  4.4267896482493958 0.96993904490934302  4.4981894812855572 0.98273979089311803  4.5695893143218074 0.99574099411133477  4.6409891473579483 1.0088764363886427  4.6885890360486666 1.0176781850987477  4.7123889803940138 1.0220791198778016 
 3.1415926535897931 4 3.2129924866259247 1 3.2843923196620564 1 3.355792152698188 1 3.4271919857343196 1 3.4985918187704517 1 3.5699916518065828 1 3.6413914848427149 1 3.7127913178788465 1 3.7841911509149782 1 3.8555909839511098 1 3.9269908169872414 1 3.998390650023373 1 4.0697904830595046 1 4.1411903160956367 1 4.2125901491317679 1 4.2839899821678999 1 4.3553898152040311 1 4.4267896482401632 1 4.4981894812762953 1 4.5695893143124264 1 4.6409891473485576 1 4.7123889803846897 4
7 0 0  3 25 23  0 0.20491221933838233  0.023799944345396885 0.20491261811183156  0.071399833036185564 0.20459767719033511  0.14279966607236333 0.20318570784407566  0.21419949910848954 0.2008399688348515  0.28559933214471511 0.19757279045413118  0.35699916518086128 0.19340072049244014  0.42839899821701272 0.18834504592525084  0.49979883125316932 0.18243152205974639  0.5711986642893101 0.17569028480106411  0.6425984973254556 0.16815568542841391  0.71399833036160265 0.15986611867262149  0.78539816339771784 0.15086382622833241  0.85679799643387722 0.14119468172455493  0.92819782946998264 0.13090795690174181  0.99959766250612547 0.12005607055568751  1.0709974955422148 0.10869432139929336  1.1423973285783422 0.096880606347562057  1.2137971616144088 0.084675125214404443  1.285196994650549 0.072140074968374351  1.3565968276866143 0.059339328984631248  1.4279966607227184 0.046338125766396225  1.4993964937588087 0.033202683489128214  1.5469963824495347 0.024400934779043631  1.5707963267948966 0.019999999999996021 
 3.1415926535897931 4 3.2129924866259247 1 3.2843923196620564 1 3.355792152698188 1 3.4271919857343196 1 3.4985918187704517 1 3.5699916518065828 1 3.6413914848427149 1 3.7127913178788465 1 3.7841911509149782 1 3.8555909839511098 1 3.9269908169872414 1 3.998390650023373 1 4.0697904830595046 1 4.1411903160956367 1 4.2125901491317679 1 4.2839899821678999 1 4.3553898152040311 1 4.4267896482401632 1 4.4981894812762953 1 4.5695893143124264 1 4.6409891473485576 1 4.7123889803846897 4
7 0 0  3 25 23  1.570796326785572 1.0220791198778016  1.5945962711309178 1.0176781850987477  1.6421961598216344 1.0088764363886422  1.7135959928577675 0.99574099411133543  1.7849958258940131 0.98273979089311758  1.8563956589301684 0.96993904490934313  1.9277954919664635 0.95740399466325143  1.9991953250028218 0.94519851353011564  2.0705951580392137 0.9333847984783582  2.1419949910756606 0.92202304932196166  2.2133948241121204 0.91117116297585898  2.2847946571486855 0.90088443815306984  2.3561944901852434 0.89121529364924479  2.42759432322184 0.88221300120495139  2.4989941562585543 0.87392343444913823  2.5703939892952521 0.86638883507649045  2.6417938223319872 0.85964759781781985  2.7131936553687144 0.85373407395226542  2.7845934884055286 0.84867839938509526  2.8559933214423139 0.84450632942337667  2.9273931544792178 0.84123915104266223  2.9987929875160106 0.83889341203344259  3.0701928205528795 0.83748144268715852  3.1177927092441289 0.83716650176566787  3.1415926535897558 0.83716690053913112 
 1.5707963267948966 4 1.6421961598310282 1 1.7135959928671598 1 1.7849958259032914 1 1.8563956589394233 1 1.9277954919755549 1 1.9991953250116865 1 2.0705951580478184 1 2.14199499108395 1 2.2133948241200816 1 2.2847946571562132 1 2.3561944901923448 1 2.4275943232284765 1 2.4989941562646081 1 2.5703939893007397 1 2.6417938223368713 1 2.7131936553730034 1 2.7845934884091346 1 2.8559933214452666 1 2.9273931544813983 1 2.9987929875175299 1 3.0701928205536615 1 3.1415926535897931 4
7 0 0  3 25 23  4.7123889803846897 0.019999999999996021  4.7361889247300528 0.024400934779043679  4.7837888134207773 0.033202683489128283  4.8551886464568694 0.046338125766396267  4.9265884794929704 0.059339328984631151  4.9979883125290359 0.072140074968374324  5.0693881455651786 0.084675125214404581  5.1407879786012423 0.096880606347561932  5.2121878116373717 0.10869432139929346  5.2835876446734611 0.12005607055568743  5.3549874777096012 0.1309079569017419  5.4263873107457199 0.14119468172455488  5.4977871437818235 0.15086382622833241  5.5691869768179929 0.15986611867262149  5.6405868098541276 0.16815568542841394  5.7119866428902766 0.17569028480106411  5.7833864759264157 0.18243152205974633  5.8547863089625745 0.18834504592525086  5.9261861419987243 0.19340072049244014  5.9975859750348723 0.1975727904541312  6.0689858080710968 0.20083996883485145  6.1403856411072217 0.20318570784407569  6.2117854741434 0.20459767719033511  6.2593853628341902 0.20491261811183156  6.2831853071795853 0.20491221933838233 
 1.5707963267948966 4 1.6421961598310282 1 1.7135959928671598 1 1.7849958259032914 1 1.8563956589394233 1 1.9277954919755549 1 1.9991953250116865 1 2.0705951580478184 1 2.14199499108395 1 2.2133948241200816 1 2.2847946571562132 1 2.3561944901923448 1 2.4275943232284765 1 2.4989941562646081 1 2.5703939893007397 1 2.6417938223368713 1 2.7131936553730034 1 2.7845934884091346 1 2.8559933214452666 1 2.9273931544813983 1 2.9987929875175299 1 3.0701928205536615 1 3.1415926535897931 4
7 0 0  5 6 2  1.5453159597770001 1.00207851988  1.55041203318 1.0060777741510001  1.555508106584 1.0100776776910001  1.5606041799879999 1.0140780141229999  1.5657002533910001 1.0180785670020001  1.570796326795 1.0220791198800001 
 4.6869086133659996 6 4.7123889803849996 6
7 0 0  5 6 2  4.7378693474029996 -6.0000007806589995e-07  4.7327732739990003 0.003998654271024  4.7276772005960002 0.0079985578107069997  4.722581127192 0.01199889424295  4.7174850537879998 0.01599944712148  4.7123889803849996 0.02 
 4.6869086133659996 6 4.7123889803849996 6
7 0 0  5 6 2  1.4624248970044538 1.042079119880527  1.4790032390496231 1.0341059358740916  1.4955815810947923 1.0261147582018944  1.5121599231399623 1.0181101619192541  1.528738265185134 1.0100967392279712  1.5453166072303073 1.0020790847332384 
 1.46242489700552 6 1.5453167243299342 6
1 0 1.0420791198799999 1 0 
1 0 0 1 0 
1 0 0 1 0 
1 6.2831853071795862 0 0 1 
1 4.1389114358025836e-13 0 0 1 
7 0 0  3 25 23  4.7123889803753647 1.0220791198777874  4.736188924720695 1.0176781850987413  4.7837888134114053 1.0088764363886444  4.8551886464475658 0.99574099411133721  4.9265884794838417 0.98273979089310892  4.9979883125199622 0.96993904490933414  5.0693881455562799 0.9574039946632531  5.1407879785926003 0.94519851353011819  5.2121878116290317 0.93338479847834632  5.2835876446654737 0.92202304932196377  5.3549874777019353 0.91117116297586165  5.4263873107385026 0.90088443815305663  5.4977871437750627 0.89121529364925212  5.5691869768116611 0.88221300120493495  5.6405868098483758 0.87392343444915321  5.7119866428850807 0.86638883507648934  5.7833864759217972 0.85964759781780864  5.8547863089585466 0.85373407395226819  5.9261861419953572 0.84867839938509482  5.997585975032135 0.84450632942337589  6.0689858080690513 0.84123915104266545  6.140385641105838 0.83889341203343082  6.2117854741427108 0.83748144268715996  6.2593853628339602 0.83716650176567242  6.2831853071795871 0.8371669005391339 
 1.5707963267948966 4 1.6421961598310282 1 1.7135959928671598 1 1.7849958259032914 1 1.8563956589394233 1 1.9277954919755549 1 1.9991953250116865 1 2.0705951580478184 1 2.14199499108395 1 2.2133948241200816 1 2.2847946571562132 1 2.3561944901923448 1 2.4275943232284765 1 2.4989941562646081 1 2.5703939893007397 1 2.6417938223368713 1 2.7131936553730034 1 2.7845934884091346 1 2.8559933214452666 1 2.9273931544813983 1 2.9987929875175299 1 3.0701928205536615 1 3.1415926535897931 4
7 0 0  3 25 23  1.5707963267948966 0.019999999999996021  1.5945962711402588 0.024400934779043679  1.6421961598309844 0.033202683489128283  1.7135959928670748 0.046338125766396267  1.7849958259031788 0.059339328984631151  1.8563956589392436 0.072140074968374324  1.9277954919753855 0.084675125214404581  1.99919532501145 0.096880606347561932  2.070595158047579 0.10869432139929346  2.141994991083668 0.12005607055568743  2.2133948241198076 0.1309079569017419  2.2847946571559277 0.14119468172455488  2.3561944901920291 0.15086382622833241  2.4275943232282025 0.15986611867262149  2.4989941562643341 0.16815568542841394  2.5703939893004839 0.17569028480106411  2.6417938223366235 0.18243152205974633  2.7131936553727818 0.18834504592525086  2.7845934884089316 0.19340072049244014  2.8559933214450783 0.1975727904541312  2.9273931544813045 0.20083996883485145  2.9987929875174295 0.20318570784407569  3.0701928205536078 0.20459767719033511  3.1177927092443962 0.20491261811183156  3.1415926535897931 0.20491221933838233 
 1.5707963267948966 4 1.6421961598310282 1 1.7135959928671598 1 1.7849958259032914 1 1.8563956589394233 1 1.9277954919755549 1 1.9991953250116865 1 2.0705951580478184 1 2.14199499108395 1 2.2133948241200816 1 2.2847946571562132 1 2.3561944901923448 1 2.4275943232284765 1 2.4989941562646081 1 2.5703939893007397 1 2.6417938223368713 1 2.7131936553730034 1 2.7845934884091346 1 2.8559933214452666 1 2.9273931544813983 1 2.9987929875175299 1 3.0701928205536615 1 3.1415926535897931 4
7 0 0  5 6 2  4.6869086133659996 1.00207851988  4.6920046867699998 1.0060777741510001  4.697100760174 1.0100776776910001  4.7021968335770001 1.0140780141229999  4.7072929069810003 1.0180785670020001  4.7123889803849996 1.0220791198800001 
 4.6869086133659996 6 4.7123889803849996 6
7 0 0  5 6 2  1.596276693813 -6.0000007806589995e-07  1.5911806204100001 0.003998654271024  1.5860845470060001 0.0079985578107069997  1.5809884736019999 0.01199889424295  1.575892400199 0.01599944712148  1.570796326795 0.02 
 4.6869086133659996 6 4.7123889803849996 6
7 0 0  5 6 2  4.6040175505937553 1.0420791198803818  4.620595892639261 1.0341059358738292  4.6371742346847578 1.0261147582015144  4.6537525767302474 1.0181101619187565  4.6703309187757291 1.0100967392273557  4.6869092608212046 1.002079084732505 
 1.4624248970038924 6 1.5453167243296784 6
1 0 1.0420791198799999 1 0 
7 0 0  5 6 2  1.5962760463579915 1.0020790847324157  1.61285438840349 1.0100967392273061  1.6294327304489871 1.0181101619187469  1.6460110724944825 1.0261147582015451  1.6625894145399767 1.0341059358738991  1.6791677565854719 1.0420791198804915 
 4.7378685828496518 6 4.8207604101756951 6
7 0 0  5 6 2  1.570796326795 1.0220791198800001  1.575892400199 1.0180785670020001  1.5809884736019999 1.0140780141229999  1.5860845470060001 1.0100776776910001  1.5911806204100001 1.0060777741510001  1.596276693813 1.00207851988 
 1.570796326795 6 1.596276693813 6
7 0 0  5 6 2  4.7123889803849996 0.02  4.7072929069810003 0.01599944712148  4.7021968335770001 0.01199889424295  4.697100760174 0.0079985578107080006  4.6920046867699998 0.003998654271024  4.6869086133659996 -6.0000007806589995e-07 
 1.570796326795 6 1.596276693813 6
7 0 0  3 25 23  0 0.8371669005391339  0.023799944345627242 0.83716650176567242  0.071399833036876983 0.83748144268715996  0.14279966607374475 0.83889341203343093  0.21419949911053723 0.84123915104266556  0.28559933214745159 0.84450632942337578  0.35699916518422903 0.84867839938509493  0.42839899822104177 0.85373407395226797  0.4997988312577874 0.85964759781780897  0.57119866429450672 0.86638883507648945  0.64259849733120644 0.87392343444915288  0.71399833036793703 0.88221300120493529  0.78539816340447677 0.89121529364925189  0.85679799644109578 0.90088443815305685  0.92819782947764662 0.91117116297586165  0.99959766251411464 0.92202304932196366  1.0709974955505541 0.93338479847834632  1.1423973285869848 0.94519851353011841  1.2137971616233076 0.95740399466325266  1.285196994659624 0.96993904490933425  1.3565968276957414 0.98273979089310892  1.4279966607320214 0.99574099411133654  1.4993964937681812 1.0088764363886447  1.5469963824588919 1.0176781850987413  1.5707963268042213 1.0220791198777874 
 3.1415926535897931 4 3.2129924866259247 1 3.2843923196620564 1 3.355792152698188 1 3.4271919857343196 1 3.4985918187704517 1 3.5699916518065828 1 3.6413914848427149 1 3.7127913178788465 1 3.7841911509149782 1 3.8555909839511098 1 3.9269908169872414 1 3.998390650023373 1 4.0697904830595046 1 4.1411903160956367 1 4.2125901491317679 1 4.2839899821678999 1 4.3553898152040311 1 4.4267896482401632 1 4.4981894812762953 1 4.5695893143124264 1 4.6409891473485576 1 4.7123889803846897 4
7 0 0  3 25 23  3.1415926535897931 0.20491221933838233  3.16539259793519 0.20491261811183156  3.212992486625978 0.20459767719033511  3.2843923196621563 0.20318570784407566  3.3557921526982835 0.2008399688348515  3.4271919857345066 0.19757279045413118  3.4985918187706551 0.19340072049244014  3.5699916518068058 0.18834504592525084  3.6413914848429618 0.18243152205974639  3.7127913178791037 0.17569028480106411  3.7841911509152477 0.16815568542841391  3.8555909839513953 0.15986611867262149  3.9269908169875101 0.15086382622833241  3.9983906500236714 0.14119468172455493  4.0697904830597738 0.13090795690174181  4.14119031609592 0.12005607055568751  4.2125901491320068 0.10869432139929336  4.2839899821681362 0.096880606347562057  4.3553898152042008 0.084675125214404443  4.4267896482403435 0.072140074968374351  4.4981894812764072 0.059339328984631248  4.5695893143125099 0.046338125766396225  4.6409891473486029 0.033202683489128214  4.6885890360393283 0.024400934779043631  4.7123889803846897 0.019999999999996021 
 3.1415926535897931 4 3.2129924866259247 1 3.2843923196620564 1 3.355792152698188 1 3.4271919857343196 1 3.4985918187704517 1 3.5699916518065828 1 3.6413914848427149 1 3.7127913178788465 1 3.7841911509149782 1 3.8555909839511098 1 3.9269908169872414 1 3.998390650023373 1 4.0697904830595046 1 4.1411903160956367 1 4.2125901491317679 1 4.2839899821678999 1 4.3553898152040311 1 4.4267896482401632 1 4.4981894812762953 1 4.5695893143124264 1 4.6409891473485576 1 4.7123889803846897 4
1 0 0 1 0 
7 0 0  5 6 2  4.6040142866640004 -6.0000000079439999e-07  4.6256892254080002 0.003983847155175  4.647364164152 0.0079800397363959993  4.6690391028959999 0.01198407794513  4.6907140416409998 0.015992038972790001  4.7123889803849996 0.02 
 1.4624216330740001 6 1.570796326795 6
7 0 0  5 6 2  1.4624216330740001 1.04207971988  1.4840965718179999 1.0380952727249999  1.505771510562 1.034099080144  1.5274464493069999 1.0300950419349999  1.549121388051 1.026087080907  1.570796326795 1.0220791198800001 
 1.4624216330740001 6 1.570796326795 6
1 6.2831853071795862 0 0 1 
1 4.1389114358025836e-13 0 0 1 
1 0 10.300000000000001 1 0 
1 0 3.1415926535900001 -0 -1 
7 0 0  5 6 2  1.596276693813 0.040000599999999997  1.591180620409 0.036001345728909999  1.5860845470060001 0.032001442189239997  1.5809884736019999 0.028001105757020001  1.575892400199 0.024000552878509999  1.570796326795 0.02 
 1.5453159597770001 6 1.570796326795 6
7 0 0  5 6 2  4.6869086133659996 1.04207971988  4.6920046867699998 1.0380804656089999  4.697100760174 1.03408056207  4.7021968335770001 1.0300802256370001  4.7072929069810003 1.026079672759  4.7123889803849996 1.0220791198800001 
 1.5453159597770001 6 1.570796326795 6
7 0 0  5 6 2  1.5962760463587411 0.040000035147168697  1.6128543884039221 0.031982380652435138  1.6294327304491016 0.023968957961155026  1.6460110724942796 0.015964361678521322  1.6625894145394564 0.0079731840063341462  1.6791677565846332 -8.8138017852878534e-14 
 1.5962759292611295 6 1.6791677565855225 6
1 0 0 1 0 
7 0 0  5 6 2  4.6040175505945822 1.5858207880870053e-14  4.6205958926398729 0.0079731840064481557  4.6371742346851557 0.015964361678645362  4.6537525767304304 0.023968957961289082  4.6703309187756972 0.031982380652579183  4.6869092608209577 0.040000035147322685 
 4.6040175505940626 6 4.6869093779187123 6
7 0 0  5 6 2  4.7123889803849996 0.02  4.7072929069810003 0.024000552878509999  4.7021968335770001 0.028001105757020001  4.697100760174 0.032001442189250003  4.6920046867699998 0.036001345728909999  4.6869086133659996 0.040000599999999997 
 4.7123889803849996 6 4.7378693474029996 6
7 0 0  5 6 2  1.570796326795 1.0220791198800001  1.575892400199 1.026079672759  1.5809884736019999 1.0300802256370001  1.5860845470060001 1.03408056207  1.591180620409 1.0380804656089999  1.596276693813 1.04207971988 
 4.7123889803849996 6 4.7378693474029996 6
7 0 0  5 6 2  1.570796326795 0.02  1.5924712655390001 0.015992038972790001  1.6141462042829999 0.01198407794514  1.635821143027 0.0079800397363950001  1.6574960817719999 0.003983847155175  1.679171020516 -6.0000000079439999e-07 
 4.7123889803849996 6 4.8207636741049997 6
7 0 0  5 6 2  4.7123889803849996 1.0220791198800001  4.7340639191290004 1.026087080907  4.7557388578730002 1.0300950419349999  4.7774137966170001 1.034099080144  4.7990887353609999 1.0380952727249999  4.8207636741049997 1.04207971988 
 4.7123889803849996 6 4.8207636741049997 6
1 0 0 1 0 
1 0 0 1 0 
1 6.2831853071795862 0 0 1 
1 4.1389114358025836e-13 0 0 1 
1 0 10.300000000000001 1 0 
1 0 6.2831853071800001 -0 -1 
1 0 10.300000000000001 1 0 
1 0 0 -0 -1 
1 0 0 1 0 
7 0 0  5 6 2  1.4624248970052833 -1.2806206706822705e-13  1.4790032390506638 0.00797318400639189  1.495581581096044 0.015964361678677194  1.5121599231414251 0.023968957961409312  1.5287382651868078 0.031982380652787953  1.5453166072321922 0.040000035147619982 
 4.6040175505940635 6 4.6869093779194735 6
7 0 0  5 6 2  1.570796326795 0.02  1.5657002533910001 0.024000552878509999  1.5606041799879999 0.028001105757020001  1.555508106584 0.032001442189250003  1.55041203318 0.036001345728909999  1.5453159597770001 0.040000599999999997 
 4.7123889803849996 6 4.7378693474029996 6
7 0 0  5 6 2  4.7123889803849996 1.0220791198800001  4.7174850537879998 1.026079672759  4.722581127192 1.0300802256370001  4.7276772005960002 1.03408056207  4.7327732739990003 1.0380804656089999  4.7378693474029996 1.04207971988 
 4.7123889803849996 6 4.7378693474029996 6
7 0 0  5 6 2  4.7378693474029996 0.040000599999999997  4.7327732739990003 0.036001345728909999  4.7276772005960002 0.032001442189239997  4.722581127192 0.028001105757020001  4.7174850537879998 0.024000552878509999  4.7123889803849996 0.02 
 1.5453159597770001 6 1.570796326795 6
7 0 0  5 6 2  1.5453159597770001 1.04207971988  1.55041203318 1.0380804656089999  1.555508106584 1.03408056207  1.5606041799879999 1.0300802256370001  1.5657002533910001 1.026079672759  1.570796326795 1.0220791198800001 
 1.5453159597770001 6 1.570796326795 6
7 0 0  5 6 2  4.7378686999473585 0.040000035147805917  4.7544470419928109 0.031982380652951288  4.7710253840382588 0.023968957961550009  4.7876037260837014 0.015964361678795249  4.804182068129137 0.0079731840064873379  4.8207604101745645 -5.5139883005600213e-14 
 1.596275929259857 6 1.6791677565855241 6
1 0 0 1 0 
7 0 0  5 6 2  4.7123889803849996 0.02  4.7340639191290004 0.015992038972790001  4.7557388578730002 0.01198407794514  4.7774137966170001 0.0079800397363950001  4.7990887353609999 0.003983847155175  4.8207636741049997 -6.0000000079439999e-07 
 4.7123889803849996 6 4.8207636741049997 6
7 0 0  5 6 2  1.570796326795 1.0220791198800001  1.5924712655390001 1.026087080907  1.6141462042829999 1.0300950419349999  1.635821143027 1.034099080144  1.6574960817719999 1.0380952727249999  1.679171020516 1.04207971988 
 4.7123889803849996 6 4.8207636741049997 6
1 0 0 1 0 
7 0 0  5 6 2  1.4624216330740001 -6.0000000079439999e-07  1.4840965718179999 0.003983847155175  1.505771510562 0.0079800397363959993  1.5274464493069999 0.01198407794513  1.549121388051 0.015992038972790001  1.570796326795 0.02 
 1.4624216330740001 6 1.570796326795 6
7 0 0  5 6 2  4.6040142866640004 1.04207971988  4.6256892254080002 1.0380952727249999  4.647364164152 1.034099080144  4.6690391028959999 1.0300950419349999  4.6907140416409998 1.026087080907  4.7123889803849996 1.0220791198800001 
 1.4624216330740001 6 1.570796326795 6
1 0 1.0420791198799999 1 0 
1 0 1.0420791198799999 1 0 
1 0 -3.1415926535900001 1 0 
1 0 3.1415926535900001 1 0 
1 0.61086523819799998 -6.2831853071795862 0 1 
1 9.4247779607693793 0 -1 -0 
1 0 1.0420791198799999 1 0 
1 0 1.0420791198799999 1 0 
1 0 -3.1415926535895871 1 0 
1 0 3.1415926535895862 1 0 
1 0.61086523819799998 -6.2831853071795862 0 1 
1 6.2831853071795862 0 -1 -0 
1 6.2831853071800001 0 -1 -0 
1 0.61086523819799998 0 0 1 
1 0 1.9723943332610001 1 0 
1 6.2831853071800001 -0 0 1 
1 0 -0 0 1 
1 6.2831853071795862 0 0 1 
1 4.1389114358025836e-13 0 0 1 
1 0 1.9723943332610001 1 0 
Curves 77
7 0 0  7 14 3  31.834535902511998 -101.2272098155 -85.376785233109999  31.868560107335 -101.184007307 -85.386150042020006  31.901252802468001 -101.1424954937 -85.395899984479996  31.933051919173 -101.1021183088 -85.405185645640003  31.964097232040999 -101.0626982724 -85.413443853009994  31.994481413462999 -101.024117713 -85.420259510779999  32.024255868238001 -100.986311359 -85.425333387419997  32.064263258263999 -100.9355116528 -85.429532871459998  32.074970554209997 -100.92191597750001 -85.430390928440005  32.085591998501002 -100.9084293129 -85.430961297170001  32.096125180946999 -100.8950547196 -85.431232209260003  32.106566764187001 -100.881796435 -85.431193096889999  32.116912483687997 -100.86865987429999 -85.430834592759993  32.127157147749003 -100.8556516295 -85.430148530159997 
 0 8 0.73025822045699995 6 1 8
2 32.101699437495 -100.8556516295 -85.049999999999997 -2.4492935982949998e-16 1 -5.4385242937879999e-32 1 2.4492935982949998e-16 2.22044604925e-16 2.22044604925e-16 -5.5066650590264296e-45 -1 0.38100000000000001
2 30.901699437495001 -100.8556516295 -85.049999999999997 2.22044604925e-16 0 -1 1 0 2.22044604925e-16 0 -1 0 1.581
2 29.701699437495002 -100.8556516295 -85.049999999999997 -0 1 0 1 0 2.22044604925e-16 2.22044604925e-16 0 -1 0.38100000000000001
7 0 0  7 14 3  29.968862972478 -101.2272098155 -85.376785233109999  29.934838767654 -101.184007307 -85.386150042020006  29.902146072522001 -101.1424954937 -85.395899984479996  29.870346955816 -101.1021183088 -85.405185645640003  29.839301642948001 -101.0626982724 -85.413443853009994  29.808917461526001 -101.024117713 -85.420259510779999  29.779143006750001 -100.986311359 -85.425333387419997  29.739135616725001 -100.9355116528 -85.429532871459998  29.728428320778999 -100.92191597750001 -85.430390928440005  29.717806876488002 -100.9084293129 -85.430961297170001  29.707273694042001 -100.8950547196 -85.431232209260003  29.696832110803001 -100.881796435 -85.431193096889999  29.686486391300999 -100.86865987429999 -85.430834592759993  29.676241727240999 -100.8556516295 -85.430148530159997 
 0 8 0.73025822046 6 1 8
7 0 0  4 5 2  29.692056176186 -100.87573312329999 -85.430873686560005  29.694437570142998 -100.8707209284 -85.430937157109994  29.696838499874001 -100.86570304360001 -85.430979158919996  29.699259080707002 -100.8606798312 -85.430999999989993  29.701699437500999 -100.8556516295 -85.430999999999997 
 0 5 1 5
7 0 0  6 42 9  29.701699437502999 -100.8556516295 -84.668999999999997  29.720667825244998 -100.8648575786 -84.668999930460004  29.739708150477 -100.87399073500001 -84.670133316709993  29.758741478272 -100.8830079844 -84.672396825540005  29.777688275732 -100.89186909839999 -84.675780275809998  29.796468411987998 -100.9005367342 -84.680266638410004  29.837628931539001 -100.9192809858 -84.69262717398  29.859887778870998 -100.9292457903 -84.701030936699993  29.88163145783 -100.9388085877 -84.711000305170003  29.902712211295 -100.9479145152 -84.722478092070006  29.922982407917001 -100.9565165556 -84.735393628110003  29.961815222873 -100.97272106609999 -84.764084926820004  29.980356943804999 -100.98031177830001 -84.779889319559999  29.997771561179 -100.9873079808 -84.796990466189996  30.013908729311002 -100.9936775244 -84.815287548520004  30.028624205221 -100.99939538229999 -84.834664290869995  30.06065442956 -101.0116781358 -84.884122040210002  30.076333309831998 -101.01753675240001 -84.91520600378  30.088430774750002 -101.02195955009999 -84.947841605289995  30.096617439077001 -101.02491795740001 -84.981561396060002  30.100704374199001 -101.0263953047 -85.015832435139998  30.100688820991 -101.0263896829 -85.070076955229993  30.099290480084001 -101.025884213 -85.0900554121  30.096499245539 -101.0248754205 -85.109924891299997  30.092336600479001 -101.0233650167 -85.129578366540002  30.08684256335 -101.0213566363 -85.148913185759994  30.069684934434999 -101.01501953899999 -85.196863069960003  30.056293176855998 -101.0100243925 -85.224916975140005  30.040094737874 -101.0038917542 -85.251651768629998  30.021364555773001 -100.9966536325 -85.276767630570006  30.000406776933001 -100.9883594097 -85.300012487689997  29.954424669662998 -100.9697017303 -85.342556076349993  29.929361580946001 -100.959318211 -85.36181114243  29.90266488252 -100.94799856340001 -85.378724807020006  29.874667708579 -100.9358357138 -85.393119434040003  29.845701757423001 -100.9229480764 -85.404856166109994  29.797392166178 -100.90096296110001 -85.419511583759999  29.778433919750999 -100.8922177574 -85.424085909789994  29.759303303083001 -100.88327412460001 -85.427536028960006  29.740082845816001 -100.87417045710001 -85.429844268929997  29.720854459481 -100.8649481561 -85.431000072969994  29.701699437493001 -100.8556516295 -85.430999999999997 
 0 7 0.0957329300563 5 0.21261917118699999 5 0.33074767146599998 5 0.50008262328300002 5 0.59881065964699998 5 0.750291327658 5 0.90332699233799996 5 1 7
7 0 0  4 5 2  29.692056176186 -100.87573312329999 -84.669126313429999  29.694437570142998 -100.8707209284 -84.669062842879995  29.696838499875 -100.86570304360001 -84.669020841079998  29.699259080705001 -100.8606798312 -84.668999999999997  29.701699437502999 -100.8556516295 -84.668999999999997 
 0 5 1 5
7 0 0  8 9 2  29.676241727240999 -100.8556516295 -84.669851469829993  29.709517669516 -100.8979040255 -84.667623053219998  29.743709895733002 -100.9413198805 -84.668788445199993  29.778776370185 -100.98584581919999 -84.673032602459998  29.814705533375999 -101.03146716400001 -84.680013418650006  29.851480753703001 -101.0781627965 -84.689295636820006  29.889213893055999 -101.1260747545 -84.700234151169994  29.928075102811 -101.175419089 -84.711988329489998  29.968862972478 -101.2272098155 -84.723214766880005 
 0 9 1 9
2 29.701699437495002 -100.8556516295 -85.049999999999997 -0 1 0 1 0 2.22044604925e-16 2.22044604925e-16 0 -1 0.38100000000000001
2 32.101699437495 -100.8556516295 -85.049999999999997 -2.4492935982949998e-16 1 -5.4385242937879999e-32 1 2.4492935982949998e-16 2.22044604925e-16 2.22044604925e-16 -5.5066650590264296e-45 -1 0.38100000000000001
7 0 0  7 14 3  31.834535902511998 -101.2272098155 -84.723214766880005  31.868560107335 -101.184007307 -84.713849957980003  31.901252802466999 -101.1424954937 -84.704100015509994  31.933051919172001 -101.1021183088 -84.694814354350001  31.96409723204 -101.0626982724 -84.686556146979996  31.994481413462001 -101.024117713 -84.679740489219995  32.024255868236999 -100.986311359 -84.674666612569993  32.064263258262997 -100.9355116528 -84.670467128530007  32.074970554209003 -100.92191597750001 -84.669609071549999  32.0855919985 -100.9084293129 -84.669038702829994  32.096125180946999 -100.8950547196 -84.668767790730001  32.106566764185999 -100.881796435 -84.668806903109996  32.116912483687997 -100.86865987429999 -84.669165407229997  32.127157147749003 -100.8556516295 -84.669851469829993 
 0 8 0.73025822045199995 6 1 8
7 0 0  4 5 2  32.111342698804002 -100.87573312329999 -84.669126313429999  32.108961304845998 -100.8707209284 -84.669062842879995  32.106560375115997 -100.86570304360001 -84.669020841079998  32.104139794281998 -100.8606798312 -84.668999999999997  32.101699437489003 -100.8556516295 -84.668999999999997 
 0 5 1 5
7 0 0  6 22 5  31.702704311590001 -101.0263917585 -85.049999999999997  31.702704311590001 -101.0263917585 -85.030214360049996  31.704070189435001 -101.02589802449999 -85.010428273860001  31.706802260654001 -101.0249106245 -84.990747683709998  31.710879919644999 -101.02343120250001 -84.971276577189997  31.716264689694999 -101.02146325 -84.952114773049999  31.733185934546999 -101.0152161666 -84.904299338019996  31.746476879406 -101.0102613375 -84.876208910339997  31.762580271472999 -101.004168706 -84.849428426000003  31.781222309459999 -100.9969699703 -84.824258509689997  31.802099482119999 -100.9887140891 -84.800952001050007  31.848243063441 -100.97000576950001 -84.757984282310005  31.873601148847001 -100.9595061285 -84.738423555520001  31.900641153026999 -100.9480440711 -84.721263654769999  31.929016536302999 -100.935716005 -84.706689626680003  31.958382348585999 -100.92264525180001 -84.694845674380005  32.006930462998 -100.9005367342 -84.680266638410004  32.025710599249997 -100.89186909839999 -84.675780275809998  32.044657396707997 -100.8830079844 -84.672396825549995  32.063690724502003 -100.87399073500001 -84.670133316709993  32.082731049731002 -100.8648575786 -84.668999930460004  32.101699437462997 -100.8556516295 -84.668999999999997 
 0 7 0.19555196607299999 5 0.49844711709099998 5 0.80853731599099998 5 1 7
7 0 0  6 22 5  32.101699437485998 -100.8556516295 -85.430999999999997  32.082544415503001 -100.8649481561 -85.431000072969994  32.063316029169002 -100.87417045710001 -85.429844268929997  32.044095571901998 -100.88327412460001 -85.427536028960006  32.024964955234999 -100.8922177574 -85.424085909789994  32.006006708809998 -100.90096296110001 -85.419511583759999  31.948012813622999 -100.9273552869 -85.401918291559994  31.909852243606998 -100.9442031092 -85.38514717068  31.873585599001 -100.95969551970001 -85.363751378060002  31.839989381820001 -100.9735706055 -85.338085497720002  31.809850346133 -100.9856506367 -85.308624439379997  31.771159980911001 -101.0007936736 -85.259977909339995  31.759441960764001 -101.0053119209 -85.243222444340006  31.748807191211998 -101.0093565646 -85.225773351450002  31.739335250608999 -101.0129166281 -85.207710739619998  31.731096824933999 -101.01598387369999 -85.189123203890006  31.717106931804999 -101.0211553266 -85.150835289400007  31.711390326202 -101.02324600439999 -85.131122778800005  31.707058788152999 -101.0248179159 -85.111071829739998  31.704155679904002 -101.02586711710001 -85.090791449310004  31.702704311590001 -101.0263917585 -85.070395468130002  31.702704311590001 -101.0263917585 -85.049999999999997 
 0 7 0.19334542018199999 5 0.59953038819000004 5 0.79842145251600005 5 1 7
7 0 0  4 5 2  32.111342698804002 -100.87573312329999 -85.430873686560005  32.108961304845998 -100.8707209284 -85.430937157109994  32.106560375114 -100.86570304360001 -85.430979158919996  32.104139794284002 -100.8606798312 -85.430999999989993  32.101699437485998 -100.8556516295 -85.430999999999997 
 0 5 1 5
1 32.127157147749003 -100.8556516295 -82.468999999999994 -2.22044604925e-16 0 1 
2 32.117411769672998 -100.8680259019 -85.049999999999997 -0.78561660889013274 0.61871362021210463 -1.7444192954362947e-16 -0.61871362021210463 -0.78561660889013274 -1.3738202136172327e-16 -2.2204460492508608e-16 5.5060025994097797e-29 1 0.38100000000000001
1 31.881681880372 -101.1673458299 -85.049999999999997 -0.78561660889013274 0.61871362021210463 -1.7444192954362947e-16 
2 31.298737105316999 -100.2232773571 -85.049999999999997 -0.78561660889013274 0.61871362021210463 -1.7444192954362947e-16 -0.61871362021210463 -0.78561660889013274 -1.3738202136172327e-16 -2.2204460492508608e-16 5.5060025994097797e-29 1 0.38100000000000001
3 31.339844598785 -100.25565162949999 -85.049999999999997 0 1 0 -1 0 -2.22044604925e-16 -2.22044604925e-16 0 1 0.61579378173300003 0.38100000000000001
3 31.314449437495 -100.2356516295 -85.049999999999997 -0.89964260131806839 -0.43662706042303318 -1.9976078598341518e-16 -0.43662706042303318 0.89964260131806839 -9.6950683131297381e-17 2.220446049250849e-16 -7.0935851711670671e-29 -1 0.87259822978099999 0.38100000000000001
3 31.314449437495 -100.2356516295 -85.049999999999997 -0.43662706042303318 0.89964260131806839 -9.6950683131297369e-17 -0.89964260131806839 -0.43662706042303318 -1.997607859834152e-16 -2.220446049250849e-16 7.0911199808382514e-29 1 0.423501509868 0.38100000000000001
3 31.314449437495 -100.2356516295 -85.049999999999997 -0.43662706042303318 0.89964260131806839 -9.6950683131297369e-17 -0.89964260131806839 -0.43662706042303318 -1.997607859834152e-16 -2.220446049250849e-16 7.0911199808382514e-29 1 0.423501509868 0.38100000000000001
3 31.314449437495 -100.2356516295 -85.049999999999997 -0.89964260131806839 -0.43662706042303318 -1.9976078598341518e-16 -0.43662706042303318 0.89964260131806839 -9.6950683131297381e-17 2.220446049250849e-16 -7.0935851711670671e-29 -1 0.87259822978099999 0.38100000000000001
3 31.339844598785 -100.25565162949999 -85.049999999999997 0 1 0 -1 0 -2.22044604925e-16 -2.22044604925e-16 0 1 0.61579378173300003 0.38100000000000001
2 31.298737105316999 -100.2232773571 -85.049999999999997 -0.78561660889013274 0.61871362021210463 -1.7444192954362947e-16 -0.61871362021210463 -0.78561660889013274 -1.3738202136172327e-16 -2.2204460492508608e-16 5.5060025994097797e-29 1 0.38100000000000001
1 29.676241727240999 -100.8556516295 -82.468999999999994 2.22044604925e-16 0 -1 
2 29.685987105317 -100.8680259019 -85.049999999999997 0.78561660889013274 0.61871362021210463 1.7444192954362947e-16 -0.61871362021210463 0.78561660889013274 -1.3738202136172327e-16 -2.2204460492508608e-16 -5.5060025994097797e-29 1 0.38100000000000001
2 29.685987105317 -100.8680259019 -85.049999999999997 0.78561660889013274 0.61871362021210463 1.7444192954362947e-16 -0.61871362021210463 0.78561660889013274 -1.3738202136172327e-16 -2.2204460492508608e-16 -5.5060025994097797e-29 1 0.38100000000000001
1 29.450257216015999 -100.56870597389999 -85.049999999999997 0.78561660889013274 0.61871362021210463 1.7444192954362947e-16 
3 30.488949437494998 -100.2356516295 -85.049999999999997 0.43662706042303318 0.89964260131806839 9.6950683131297369e-17 0.89964260131806839 -0.43662706042303318 1.997607859834152e-16 2.220446049250849e-16 7.0911199808382514e-29 -1 0.423501509868 0.38100000000000001
3 30.488949437494998 -100.2356516295 -85.049999999999997 0.89964260131806839 -0.43662706042303318 1.9976078598341518e-16 0.43662706042303318 0.89964260131806839 9.6950683131297381e-17 -2.220446049250849e-16 -7.0935851711670671e-29 1 0.87259822978099999 0.38100000000000001
3 30.463554276204 -100.25565162949999 -85.049999999999997 -0 1 0 1 0 2.22044604925e-16 2.22044604925e-16 0 -1 0.61579378173300003 0.38100000000000001
2 30.504661769673 -100.2232773571 -85.049999999999997 0.78561660889013274 0.61871362021210463 1.7444192954362947e-16 -0.61871362021210463 0.78561660889013274 -1.3738202136172327e-16 -2.2204460492508608e-16 -5.5060025994097797e-29 1 0.38100000000000001
3 30.463554276204 -100.25565162949999 -85.049999999999997 -0 1 0 1 0 2.22044604925e-16 2.22044604925e-16 0 -1 0.61579378173300003 0.38100000000000001
3 30.488949437494998 -100.2356516295 -85.049999999999997 0.89964260131806839 -0.43662706042303318 1.9976078598341518e-16 0.43662706042303318 0.89964260131806839 9.6950683131297381e-17 -2.220446049250849e-16 -7.0935851711670671e-29 1 0.87259822978099999 0.38100000000000001
3 30.488949437494998 -100.2356516295 -85.049999999999997 0.43662706042303318 0.89964260131806839 9.6950683131297369e-17 0.89964260131806839 -0.43662706042303318 1.997607859834152e-16 2.220446049250849e-16 7.0911199808382514e-29 -1 0.423501509868 0.38100000000000001
1 31.273240695167001 -100.25565162949999 -85.049999999999997 2.22044604925e-16 0 -1 
2 31.314449437495 -100.25565162949999 -85.049999999999997 -0 1 0 1 0 2.22044604925e-16 2.22044604925e-16 0 -1 0.38100000000000001
3 31.314449437495 -100.2356516295 -85.049999999999997 -0.43662706042303318 0.89964260131806839 -9.6950683131297369e-17 -0.89964260131806839 -0.43662706042303318 -1.997607859834152e-16 -2.220446049250849e-16 7.0911199808382514e-29 1 0.423501509868 0.38100000000000001
1 31.695449437495 -100.25565162949999 -85.049999999999997 0 1 0 
2 31.314449437495 -89.955651629510001 -85.049999999999997 -0 1 0 1 0 2.22044604925e-16 2.22044604925e-16 0 -1 0.38100000000000001
3 31.314449437495 -100.2356516295 -85.049999999999997 -0.89964260131806839 -0.43662706042303318 -1.9976078598341518e-16 -0.43662706042303318 0.89964260131806839 -9.6950683131297381e-17 2.220446049250849e-16 -7.0935851711670671e-29 -1 0.87259822978099999 0.38100000000000001
3 31.314449437495 -100.2033264966 -85.049999999999997 -0.78561660889013274 0.61871362021210463 -1.7444192954362947e-16 0.61871362021210463 0.78561660889013274 1.3738202136172327e-16 2.2204460492508608e-16 -5.5060025994097797e-29 -1 0.61579378173300003 0.38100000000000001
2 31.314449437495 -100.25565162949999 -85.049999999999997 -0 1 0 1 0 2.22044604925e-16 2.22044604925e-16 0 -1 0.38100000000000001
3 31.314449437495 -100.2033264966 -85.049999999999997 -0.78561660889013274 0.61871362021210463 -1.7444192954362947e-16 0.61871362021210463 0.78561660889013274 1.3738202136172327e-16 2.2204460492508608e-16 -5.5060025994097797e-29 -1 0.61579378173300003 0.38100000000000001
3 31.314449437495 -100.2356516295 -85.049999999999997 -0.89964260131806839 -0.43662706042303318 -1.9976078598341518e-16 -0.43662706042303318 0.89964260131806839 -9.6950683131297381e-17 2.220446049250849e-16 -7.0935851711670671e-29 -1 0.87259822978099999 0.38100000000000001
3 31.314449437495 -100.2356516295 -85.049999999999997 -0.43662706042303318 0.89964260131806839 -9.6950683131297369e-17 -0.89964260131806839 -0.43662706042303318 -1.997607859834152e-16 -2.220446049250849e-16 7.0911199808382514e-29 1 0.423501509868 0.38100000000000001
2 31.314449437495 -100.25565162949999 -85.049999999999997 -0 1 0 1 0 2.22044604925e-16 2.22044604925e-16 0 -1 0.38100000000000001
2 30.488949437494998 -100.25565162949999 -85.049999999999997 -0 1 0 1 0 2.22044604925e-16 2.22044604925e-16 0 -1 0.38100000000000001
1 30.869949437494999 -100.25565162949999 -85.049999999999997 0 1 0 
2 30.488949437494998 -89.955651629510001 -85.049999999999997 -0 1 0 1 0 2.22044604925e-16 2.22044604925e-16 0 -1 0.38100000000000001
2 30.488949437494998 -89.955651629510001 -85.049999999999997 -0 1 0 1 0 2.22044604925e-16 2.22044604925e-16 0 -1 0.38100000000000001
2 30.488949437494998 -100.25565162949999 -85.049999999999997 -0 1 0 1 0 2.22044604925e-16 2.22044604925e-16 0 -1 0.38100000000000001
3 30.488949437494998 -100.2033264966 -85.049999999999997 0.78561660889013274 0.61871362021210463 1.7444192954362947e-16 -0.61871362021210463 0.78561660889013274 -1.3738202136172327e-16 -2.2204460492508608e-16 -5.5060025994097797e-29 1 0.61579378173300003 0.38100000000000001
3 30.488949437494998 -100.2356516295 -85.049999999999997 0.89964260131806839 -0.43662706042303318 1.9976078598341518e-16 0.43662706042303318 0.89964260131806839 9.6950683131297381e-17 -2.220446049250849e-16 -7.0935851711670671e-29 1 0.87259822978099999 0.38100000000000001
3 30.488949437494998 -100.2356516295 -85.049999999999997 0.89964260131806839 -0.43662706042303318 1.9976078598341518e-16 0.43662706042303318 0.89964260131806839 9.6950683131297381e-17 -2.220446049250849e-16 -7.0935851711670671e-29 1 0.87259822978099999 0.38100000000000001
3 30.488949437494998 -100.2033264966 -85.049999999999997 0.78561660889013274 0.61871362021210463 1.7444192954362947e-16 -0.61871362021210463 0.78561660889013274 -1.3738202136172327e-16 -2.2204460492508608e-16 -5.5060025994097797e-29 1 0.61579378173300003 0.38100000000000001
2 30.488949437494998 -100.25565162949999 -85.049999999999997 -0 1 0 1 0 2.22044604925e-16 2.22044604925e-16 0 -1 0.38100000000000001
3 30.488949437494998 -100.2356516295 -85.049999999999997 0.43662706042303318 0.89964260131806839 9.6950683131297369e-17 0.89964260131806839 -0.43662706042303318 1.997607859834152e-16 2.220446049250849e-16 7.0911199808382514e-29 -1 0.423501509868 0.38100000000000001
1 30.530158179823001 -100.25565162949999 -85.049999999999997 -2.22044604925e-16 0 1 
2 30.488949437494998 -100.25565162949999 -85.049999999999997 -0 1 0 1 0 2.22044604925e-16 2.22044604925e-16 0 -1 0.38100000000000001
3 30.488949437494998 -100.2356516295 -85.049999999999997 0.43662706042303318 0.89964260131806839 9.6950683131297369e-17 0.89964260131806839 -0.43662706042303318 1.997607859834152e-16 2.220446049250849e-16 7.0911199808382514e-29 -1 0.423501509868 0.38100000000000001
2 31.298737105316999 -100.2232773571 -85.049999999999997 -0.78561660889013274 0.61871362021210463 -1.7444192954362947e-16 -0.61871362021210463 -0.78561660889013274 -1.3738202136172327e-16 -2.2204460492508608e-16 5.5060025994097797e-29 1 0.38100000000000001
2 31.298737105316999 -100.2232773571 -85.049999999999997 -0.78561660889013274 0.61871362021210463 -1.7444192954362947e-16 -0.61871362021210463 -0.78561660889013274 -1.3738202136172327e-16 -2.2204460492508608e-16 5.5060025994097797e-29 1 0.38100000000000001
2 32.014449437495003 -89.955651629510001 -85.049999999999997 3.3306690738749998e-16 0 -1 -1 0 -3.3306690738749998e-16 0 1 0 0.31900000000000001
2 31.441043006491999 -89.554148124069997 -85.049999999999997 -0.5735764363510113 -0.81915204428901622 -1.9103932980580376e-16 -0.81915204428901622 0.5735764363510113 -2.7283243807150546e-16 3.3306690738752852e-16 1.5653958587979453e-29 -1 0.38100000000000001
2 30.504661769673 -100.2232773571 -85.049999999999997 0.78561660889013274 0.61871362021210463 1.7444192954362947e-16 -0.61871362021210463 0.78561660889013274 -1.3738202136172327e-16 -2.2204460492508608e-16 -5.5060025994097797e-29 1 0.38100000000000001
2 30.504661769673 -100.2232773571 -85.049999999999997 0.78561660889013274 0.61871362021210463 1.7444192954362947e-16 -0.61871362021210463 0.78561660889013274 -1.3738202136172327e-16 -2.2204460492508608e-16 -5.5060025994097797e-29 1 0.38100000000000001
2 29.788949437494999 -89.955651629510001 -85.049999999999997 -1.110223024625e-16 0 1 1 0 1.110223024625e-16 0 1 -0 0.31900000000000001
2 30.362355868497001 -89.554148124069997 -85.049999999999997 0.5735764363510113 -0.81915204428901622 6.3679776601941255e-17 0.81915204428901622 0.5735764363510113 9.0944146023841797e-17 -1.1102230246251878e-16 6.8717180415736575e-30 1 0.38100000000000001
2 30.362355868497001 -89.554148124069997 -85.049999999999997 0.5735764363510113 -0.81915204428901622 6.3679776601941255e-17 0.81915204428901622 0.5735764363510113 9.0944146023841797e-17 -1.1102230246251878e-16 6.8717180415736575e-30 1 0.38100000000000001
2 32.572361919243001 -87.938457273829997 -85.049999999999997 0.5735764363510113 0.81915204428901622 1.273595532039025e-16 0.81915204428901622 -0.5735764363510113 1.8188829204770361e-16 2.2204460492506543e-16 1.8636838885846404e-29 -1 0.38100000000000001
1 31.753139935366999 -89.772680746310002 -85.049999999999997 0.5735764363510113 0.81915204428901622 1.273595532039025e-16 
1 30.674452797371 -89.335615501820001 -85.049999999999997 -0.5735764363510113 0.81915204428901622 -1.273595532039025e-16 
2 29.231036955745999 -87.938457273829997 -85.049999999999997 -0.5735764363510113 0.81915204428901622 -1.273595532039025e-16 0.81915204428901622 0.5735764363510113 1.8188829204770361e-16 2.2204460492506543e-16 -1.8636838885846404e-29 -1 0.38100000000000001
Polygon3D 0
PolygonOnTriangulations 0
Surfaces 35
5 30.901699437495001 -100.8556516295 -85.049999999999997 2.22044604925e-16 0 -1 1 0 2.22044604925e-16 0 -1 0 1.2 0.38100000000000001
1 32.117411769672998 -100.8680259019 -85.049999999999997 -0.78561660889013274 0.61871362021210463 -1.7444192954362947e-16 -0.61871362021210463 -0.78561660889013274 -1.3738202136172327e-16 -2.2204460492508608e-16 5.5060025994097797e-29 1 
1 25.739699437494998 -100.8556516295 -79.888000000000005 0 1 0 1 -0 2.22044604925e-16 2.22044604925e-16 0 -1 
1 25.739699437494998 -100.8556516295 -79.888000000000005 0 1 0 1 -0 2.22044604925e-16 2.22044604925e-16 0 -1 
1 29.685987105317 -100.8680259019 -85.049999999999997 0.78561660889013274 0.61871362021210463 1.7444192954362947e-16 -0.61871362021210463 0.78561660889013274 -1.3738202136172327e-16 -2.2204460492508608e-16 -5.5060025994097797e-29 1 
2 29.685987105317 -100.8680259019 -85.049999999999997 0.78561660889013274 0.61871362021210463 1.7444192954362947e-16 -0.61871362021210463 0.78561660889013274 -1.3738202136172327e-16 -2.2204460492508608e-16 -5.5060025994097797e-29 1 0.38100000000000001
2 32.117411769672998 -100.8680259019 -85.049999999999997 -0.78561660889013274 0.61871362021210463 -1.7444192954362947e-16 -0.61871362021210463 -0.78561660889013274 -1.3738202136172327e-16 -2.2204460492508608e-16 5.5060025994097797e-29 1 0.38100000000000001
1 31.298737105316999 -100.2232773571 -85.049999999999997 -0.78561660889013274 0.61871362021210463 -1.7444192954362947e-16 -0.61871362021210463 -0.78561660889013274 -1.3738202136172327e-16 -2.2204460492508608e-16 5.5060025994097797e-29 1 
1 31.314449437495 -100.25565162949999 -85.049999999999997 0 1 0 1 -0 2.22044604925e-16 2.22044604925e-16 0 -1 
2 31.314449437495 -100.25565162949999 -85.049999999999997 0 1 0 1 -0 2.22044604925e-16 2.22044604925e-16 0 -1 0.38100000000000001
2 31.314449437495 -100.25565162949999 -85.049999999999997 0 1 0 1 -0 2.22044604925e-16 2.22044604925e-16 0 -1 0.38100000000000001
2 31.314449437495 -100.25565162949999 -85.049999999999997 0 1 0 1 -0 2.22044604925e-16 2.22044604925e-16 0 -1 0.38100000000000001
1 31.314449437495 -100.25565162949999 -85.049999999999997 0 1 0 1 -0 2.22044604925e-16 2.22044604925e-16 0 -1 
2 30.488949437494998 -100.25565162949999 -85.049999999999997 0 1 0 1 -0 2.22044604925e-16 2.22044604925e-16 0 -1 0.38100000000000001
2 30.488949437494998 -100.25565162949999 -85.049999999999997 0 1 0 1 -0 2.22044604925e-16 2.22044604925e-16 0 -1 0.38100000000000001
1 30.488949437494998 -100.25565162949999 -85.049999999999997 0 1 0 1 -0 2.22044604925e-16 2.22044604925e-16 0 -1 
1 30.504661769673 -100.2232773571 -85.049999999999997 0.78561660889013274 0.61871362021210463 1.7444192954362947e-16 -0.61871362021210463 0.78561660889013274 -1.3738202136172327e-16 -2.2204460492508608e-16 -5.5060025994097797e-29 1 
1 30.488949437494998 -100.25565162949999 -85.049999999999997 0 1 0 1 -0 2.22044604925e-16 2.22044604925e-16 0 -1 
2 30.488949437494998 -100.25565162949999 -85.049999999999997 0 1 0 1 -0 2.22044604925e-16 2.22044604925e-16 0 -1 0.38100000000000001
1 31.314449437495 -100.25565162949999 -85.049999999999997 0 1 0 1 -0 2.22044604925e-16 2.22044604925e-16 0 -1 
2 32.117411769672998 -100.8680259019 -85.049999999999997 -0.78561660889013274 0.61871362021210463 -1.7444192954362947e-16 -0.61871362021210463 -0.78561660889013274 -1.3738202136172327e-16 -2.2204460492508608e-16 5.5060025994097797e-29 1 0.38100000000000001
5 32.014449437495003 -89.955651629510001 -85.049999999999997 3.3306690738749998e-16 0 -1 -1 0 -3.3306690738749998e-16 0 1 0 0.69999999999999996 0.38100000000000001
2 32.117411769672998 -100.8680259019 -85.049999999999997 -0.78561660889013274 0.61871362021210463 -1.7444192954362947e-16 -0.61871362021210463 -0.78561660889013274 -1.3738202136172327e-16 -2.2204460492508608e-16 5.5060025994097797e-29 1 0.38100000000000001
1 31.298737105316999 -100.2232773571 -85.049999999999997 -0.78561660889013274 0.61871362021210463 -1.7444192954362947e-16 -0.61871362021210463 -0.78561660889013274 -1.3738202136172327e-16 -2.2204460492508608e-16 5.5060025994097797e-29 1 
1 31.298737105316999 -100.2232773571 -85.049999999999997 -0.78561660889013274 0.61871362021210463 -1.7444192954362947e-16 -0.61871362021210463 -0.78561660889013274 -1.3738202136172327e-16 -2.2204460492508608e-16 5.5060025994097797e-29 1 
1 30.488949437494998 -100.25565162949999 -85.049999999999997 0 1 0 1 -0 2.22044604925e-16 2.22044604925e-16 0 -1 
5 29.788949437494999 -89.955651629510001 -85.049999999999997 -1.110223024625e-16 0 1 1 0 1.110223024625e-16 0 1 -0 0.69999999999999996 0.38100000000000001
1 30.504661769673 -100.2232773571 -85.049999999999997 0.78561660889013274 0.61871362021210463 1.7444192954362947e-16 -0.61871362021210463 0.78561660889013274 -1.3738202136172327e-16 -2.2204460492508608e-16 -5.5060025994097797e-29 1 
2 29.685987105317 -100.8680259019 -85.049999999999997 0.78561660889013274 0.61871362021210463 1.7444192954362947e-16 -0.61871362021210463 0.78561660889013274 -1.3738202136172327e-16 -2.2204460492508608e-16 -5.5060025994097797e-29 1 0.38100000000000001
2 29.685987105317 -100.8680259019 -85.049999999999997 0.78561660889013274 0.61871362021210463 1.7444192954362947e-16 -0.61871362021210463 0.78561660889013274 -1.3738202136172327e-16 -2.2204460492508608e-16 -5.5060025994097797e-29 1 0.38100000000000001
1 30.504661769673 -100.2232773571 -85.049999999999997 0.78561660889013274 0.61871362021210463 1.7444192954362947e-16 -0.61871362021210463 0.78561660889013274 -1.3738202136172327e-16 -2.2204460492508608e-16 -5.5060025994097797e-29 1 
2 31.441043006491999 -89.554148124069997 -85.049999999999997 0.5735764363510113 0.81915204428901622 1.273595532039025e-16 0.81915204428901622 -0.5735764363510113 1.8188829204770361e-16 2.2204460492506543e-16 1.8636838885846404e-29 -1 0.38100000000000001
2 30.362355868497001 -89.554148124069997 -85.049999999999997 -0.5735764363510113 0.81915204428901622 -1.273595532039025e-16 0.81915204428901622 0.5735764363510113 1.8188829204770361e-16 2.2204460492506543e-16 -1.8636838885846404e-29 -1 0.38100000000000001
1 32.572361919243001 -87.938457273829997 -85.049999999999997 0.5735764363510113 0.81915204428901622 1.273595532039025e-16 0.81915204428901622 -0.5735764363510113 1.8188829204770361e-16 2.2204460492506543e-16 1.8636838885846404e-29 -1 
1 29.231036955745999 -87.938457273829997 -85.049999999999997 -0.5735764363510113 0.81915204428901622 -1.273595532039025e-16 0.81915204428901622 0.5735764363510113 1.8188829204770361e-16 2.2204460492506543e-16 -1.8636838885846404e-29 -1 
Triangulations 0

TShapes 193
Ve
1e-07
32.111342411426 -100.8757325185 -85.43087369422
0 0

0101101
*
Ve
1e-07
32.127157147749 -100.8556516295 -85.43014853016
0 0

0101101
*
Ed
 1e-07 1 1 0
1  1 0 0.940890448127814 1
2  1 1 0 0.940890448127814 1
4 C0 1 0 2 0
0

0101000
+193 0 -192 0 *
Ve
1e-07
32.482699437495 -100.8556516295 -85.05
0 0

0101101
*
Ed
 1e-07 1 1 0
1  2 0 0 1.50392836940264
2  2 1 0 0 1.50392836940264
4 C0 1 0 3 0
0

0101000
+190 0 -192 0 *
Ve
1e-07
29.320699437495 -100.8556516295 -85.05
0 0

0101101
*
Ed
 1e-07 1 1 0
1  3 0 0 3.14159265358979
3  3 4CN 1 0 0 3.14159265358979
0

0101000
+190 0 -188 0 *
Ve
1e-07
29.676241727241 -100.8556516295 -85.43014853016
0 0

0101101
*
Ed
 1e-07 1 1 0
1  4 0 1.63766428418715 3.14159265358979
2  5 1 0 1.63766428418715 3.14159265358979
4 C0 1 0 4 0
0

0101000
+186 0 -188 0 *
Ve
1e-07
29.692056463564 -100.8757325185 -85.43087369422
0 0

0101101
*
Ed
 1e-07 1 1 0
1  5 0 0.940890448127716 1
2  6 1 0 0.940890448127716 1
4 C0 1 0 5 0
0

0101000
+184 0 -186 0 *
Ve
1e-07
29.701699437495 -100.8556516295 -85.431
0 0

0101101
*
Ed
 1e-07 1 1 0
1  6 0 3.01669132785803e-05 1
2  7 1 0 3.01669132785803e-05 1
2  8 6 0 3.01669132785803e-05 1
4 C0 1 0 6 0
0

0101000
+184 0 -182 0 *
Ve
1e-07
29.701699437495 -100.8556516295 -84.669
0 0

0101101
*
Ed
 1e-07 1 1 0
1  7 0 0 1
2  9 1 0 0 1
2  10 6 0 0 1
4 C0 1 0 6 0
0

0101000
+180 0 -182 0 *
Ve
1e-07
29.692056463564 -100.8757325185 -84.66912630577
0 0

0101101
*
Ed
 1e-07 1 1 0
1  8 0 3.01669132758895e-05 1
2  11 1 0 3.01669132758895e-05 1
2  12 6 0 3.01669132758895e-05 1
4 C0 1 0 6 0
0

0101000
+178 0 -180 0 *
Ve
1e-07
29.676241727241 -100.8556516295 -84.66985146983
0 0

0101101
*
Ed
 1e-07 1 1 0
1  9 0 0 0.0590729606317055
2  13 1 0 0 0.0590729606317055
4 C0 1 0 5 0
0

0101000
+176 0 -178 0 *
Ed
 1e-07 1 1 0
1  10 0 3.14159265358979 4.64552102299419
2  14 1 0 3.14159265358979 4.64552102299419
4 C0 1 0 4 0
0

0101000
+188 0 -176 0 *
Ve
1e-07
32.127157147749 -100.8556516295 -84.66985146983
0 0

0101101
*
Ed
 1e-07 1 1 0
1  11 0 4.77925693777519 6.28318530717959
2  15 1 0 4.77925693777519 6.28318530717959
4 C0 1 0 3 0
0

0101000
+173 0 -190 0 *
Ve
1e-07
32.111342411426 -100.8757325185 -84.66912630577
0 0

0101101
*
Ed
 1e-07 1 1 0
1  12 0 0.940890448127107 1
2  16 1 0 0.940890448127107 1
4 C0 1 0 2 0
0

0101000
+171 0 -173 0 *
Ve
1e-07
32.101699437495 -100.8556516295 -84.669
0 0

0101101
*
Ed
 1e-07 1 1 0
1  13 0 3.01669136444402e-05 1
2  17 1 0 3.01669136444402e-05 1
2  18 7 0 3.01669136444402e-05 1
4 C0 1 0 7 0
0

0101000
+171 0 -169 0 *
Ve
1e-07
31.70270431159 -101.0263917585 -85.05
0 0

0101101
*
Ed
 1e-07 1 1 0
1  14 0 0 1
2  19 1 0 0 1
2  20 7 0 0 1
4 C0 1 0 7 0
0

0101000
+167 0 -169 0 *
Ve
1e-07
32.101699437495 -100.8556516295 -85.431
0 0

0101101
*
Ed
 1e-07 1 1 0
1  15 0 0 1
2  21 1 0 0 1
2  22 7 0 0 1
4 C0 1 0 7 0
0

0101000
+165 0 -167 0 *
Ed
 1e-07 1 1 0
1  16 0 3.01669136507084e-05 1
2  23 1 0 3.01669136507084e-05 1
2  24 7 0 3.01669136507084e-05 1
4 C0 1 0 7 0
0

0101000
+193 0 -165 0 *
Wi

0101100
+191 0 -189 0 +187 0 -185 0 -183 0 +181 0 -179 0 -177 0 -175 0 -174 0 
-187 0 -172 0 -170 0 +168 0 -166 0 -164 0 -163 0 *
Fa
0  1e-07 1 0

0111000
+162 0 *
Ed
 1e-07 1 1 0
1  17 0 -2.96114853016 -2.20085146983
4 C0 3 0 2 0
0

0101000
+192 0 -173 0 *
Wi

0101100
+172 0 +189 0 +160 0 *
Fa
0  1e-07 3 0

0111000
+159 0 *
Ed
 1e-07 1 1 0
1  18 0 1.54504639304621 4.73813891413405
2  25 7 0 1.54504639304621 4.73813891413405
4 C0 2 0 7 0
0

0101000
+171 0 -193 0 *
Wi

0101100
-170 0 +157 0 +191 0 +160 0 *
Fa
0  1e-07 2 0

0111000
+156 0 *
Ve
1e-07
31.063007216016 -100.522597285 -85.05
0 0

0101101
*
Ed
 1e-07 1 1 0
1  19 0 0.227817954453446 1.04207911993719
3  26 27CN 7 0 0.227817954453446 1.04207911993719
0

0101000
+167 0 -154 0 *
Ve
1e-07
31.273240695167 -100.2556516295 -85.42876488691
0 0

0101101
*
Ed
 1e-07 1 1 0
1  20 0 4.82076041016553 6.28318530717959
2  28 7 0 4.82076041016553 6.28318530717959
4 C0 7 0 8 0
0

0101000
+152 0 -154 0 *
Ve
1e-07
31.324156115675 -100.2556516295 -85.43087633215
0 0

0101101
*
Ed
 1e-07 1 1 0
1  21 0 4.73786858284991 4.82076041017406
2  29 7 0 4.73786858284991 4.82076041017406
4 C0 7 0 9 0
0

0101000
+150 0 -152 0 *
Ve
1e-07
31.314449437495 -100.2356516295 -85.431
0 0

0101101
*
Ed
 1e-07 1 1 0
1  22 0 1.5707963267949 1.59627592925945
2  30 7 0 1.5707963267949 1.59627592925945
2  31 10 0 1.5707963267949 1.59627592925945
4 C0 7 0 10 0
0

0101000
+148 0 -150 0 *
Ve
1e-07
31.695449437495 -100.0507394101 -85.05
0 0

0101101
*
Ed
 1e-07 1 1 0
1  23 0 3.14159265358979 4.71238898038469
2  32 7 0 3.14159265358979 4.71238898038469
2  33 11 0 3.14159265358979 4.71238898038469
4 C0 7 0 11 0
0

0101000
+146 0 -148 0 *
Ve
1e-07
31.314449437495 -100.2356516295 -84.669
0 0

0101101
*
Ed
 1e-07 1 1 0
1  24 0 1.5707963267949 3.14159265358979
2  34 7 0 1.5707963267949 3.14159265358979
2  35 11 0 1.5707963267949 3.14159265358979
4 C0 7 0 11 0
0

0101000
+144 0 -146 0 *
Ve
1e-07
31.324156115675 -100.2556516295 -84.66912366784
0 0

0101101
*
Ed
 1e-07 1 1 0
1  25 0 4.68690937792027 4.71238898038469
2  36 7 0 4.68690937792027 4.71238898038469
2  37 12 0 4.68690937792027 4.71238898038469
4 C0 7 0 12 0
0

0101000
+142 0 -144 0 *
Ve
1e-07
31.273240695167 -100.2556516295 -84.67123511309
0 0

0101101
*
Ed
 1e-07 1 1 0
1  26 0 1.46242489700552 1.54531672432993
2  38 7 0 1.46242489700552 1.54531672432993
4 C0 7 0 13 0
0

0101000
+140 0 -142 0 *
Ed
 1e-07 1 1 0
1  27 0 0 1.46242489701406
2  39 7 0 0 1.46242489701406
4 C0 7 0 8 0
0

0101000
+154 0 -140 0 *
Wi

0101100
+164 0 +153 0 -151 0 -149 0 -147 0 -145 0 -143 0 -141 0 -139 0 -138 0 
-153 0 +166 0 -168 0 +157 0 +163 0 *
Fa
0  1e-07 7 0

0111000
+137 0 *
Ed
 1e-07 1 1 0
1  28 0 2.20085146983 2.96114853016
4 C0 4 0 5 0
0

0101000
+176 0 -186 0 *
Wi

0101100
+185 0 +174 0 +135 0 *
Fa
0  1e-07 4 0

0111000
+134 0 *
Ve
1e-07
29.450257216016 -100.5687059739 -85.05
0 0

0101101
*
Ed
 1e-07 1 1 0
1  29 0 4.68663904663532 6.28318530717959
2  40 6 0 4.68663904663532 6.28318530717959
4 C0 5 0 6 0
0

0101000
+184 0 -132 0 *
Ed
 1e-07 1 1 0
1  30 0 0 1.59654626054359
2  41 6 0 0 1.59654626054359
4 C0 5 0 6 0
0

0101000
+132 0 -178 0 *
Wi

0101100
+131 0 +130 0 -175 0 +135 0 -183 0 *
Fa
0  1e-07 5 0

0111000
+129 0 *
Ve
1e-07
30.107949437495 -100.0507394101 -85.05
0 0

0101101
*
Ed
 1e-07 1 1 0
1  31 0 0 0.837166900569276
3  42 43CN 6 0 0 0.837166900569276
0

0101000
+132 0 -127 0 *
Ve
1e-07
30.488949437495 -100.2356516295 -85.431
0 0

0101101
*
Ed
 1e-07 1 1 0
1  32 0 1.5707963267949 3.14159265358979
2  44 6 0 1.5707963267949 3.14159265358979
2  45 14 0 1.5707963267949 3.14159265358979
4 C0 6 0 14 0
0

0101000
+125 0 -127 0 *
Ve
1e-07
30.479242759314 -100.2556516295 -85.43087633215
0 0

0101101
*
Ed
 1e-07 1 1 0
1  33 0 4.68690937791964 4.71238898038469
2  46 6 0 4.68690937791964 4.71238898038469
2  47 15 0 4.68690937791964 4.71238898038469
4 C0 6 0 15 0
0

0101000
+123 0 -125 0 *
Ve
1e-07
30.530158179823 -100.2556516295 -85.42876488691
0 0

0101101
*
Ed
 1e-07 1 1 0
1  34 0 1.46242489700389 1.54531672432968
2  48 6 0 1.46242489700389 1.54531672432968
4 C0 6 0 16 0
0

0101000
+121 0 -123 0 *
Ve
1e-07
30.530158179823 -100.2556516295 -84.67123511309
0 0

0101101
*
Ed
 1e-07 1 1 0
1  35 0 1.67916775657577 4.60401755060383
2  49 6 0 1.67916775657577 4.60401755060383
4 C0 6 0 17 0
0

0101000
+119 0 -121 0 *
Ve
1e-07
30.479242759314 -100.2556516295 -84.66912366784
0 0

0101101
*
Ed
 1e-07 1 1 0
1  36 0 4.73786858284965 4.8207604101757
2  50 6 0 4.73786858284965 4.8207604101757
4 C0 6 0 18 0
0

0101000
+117 0 -119 0 *
Ve
1e-07
30.488949437495 -100.2356516295 -84.669
0 0

0101101
*
Ed
 1e-07 1 1 0
1  37 0 1.5707963267949 1.59627592925982
2  51 6 0 1.5707963267949 1.59627592925982
2  52 19 0 1.5707963267949 1.59627592925982
4 C0 6 0 19 0
0

0101000
+115 0 -117 0 *
Ed
 1e-07 1 1 0
1  38 0 3.14159265358979 4.71238898038469
2  53 6 0 3.14159265358979 4.71238898038469
2  54 14 0 3.14159265358979 4.71238898038469
4 C0 6 0 14 0
0

0101000
+127 0 -115 0 *
Wi

0101100
+131 0 +126 0 -124 0 -122 0 -120 0 -118 0 -116 0 -114 0 -113 0 -126 0 
+130 0 +177 0 +179 0 -181 0 *
Fa
0  1e-07 6 0

0111000
+112 0 *
Ed
 1e-07 1 1 0
1  39 0 -0.378764886909991 0.378764886910005
4 C0 8 0 20 0
0

0101000
+140 0 -152 0 *
Wi

0101100
+151 0 +138 0 +110 0 *
Fa
0  1e-07 8 0

0111000
+109 0 *
Ed
 1e-07 1 1 0
1  40 0 4.60401755059467 4.73786858284797
2  55 12 0 4.60401755059467 4.73786858284797
4 C0 13 0 12 0
0

0101000
+140 0 -142 0 *
Wi

0101100
-139 0 +107 0 *
Fa
0  1e-07 13 0

0111000
+106 0 *
Ed
 1e-07 1 1 0
1  41 0 1.46242489700485 1.5707963267949
2  56 12 0 1.46242489700485 1.5707963267949
2  57 21 0 1.46242489700485 1.5707963267949
4 C0 12 0 21 0
0

0101000
+140 0 -144 0 *
Wi

0101100
+141 0 -104 0 +107 0 *
Fa
0  1e-07 12 0

0111000
+103 0 *
Ve
1e-07
31.695449437495 -89.95565162951 -85.05
0 0

0101101
*
Ed
 1e-07 1 1 0
1  42 0 0.204912219400001 10.29999999999
3  58 59CN 11 0 0.204912219400001 10.29999999999
0

0101000
+146 0 -101 0 *
Ed
 1e-07 1 1 0
1  43 0 0 6.28318530717959
2  60 11 0 0 6.28318530717959
2  61 22 0 0 6.28318530717959
4 G1 11 0 22 0
0

0101100
+101 0 -101 0 *
Ve
1e-07
31.304742759314 -100.2156516295 -85.43087633215
0 0

0101101
*
Ed
 1e-07 1 1 0
1  44 0 1.54531672432984 1.5707963267949
2  62 11 0 1.54531672432984 1.5707963267949
2  63 23 0 1.54531672432984 1.5707963267949
4 C0 11 0 23 0
0

0101000
+98 0 -148 0 *
Ed
 1e-07 1 1 0
1  45 0 1.59627592926113 1.67916775658552
2  64 11 0 1.59627592926113 1.67916775658552
4 C0 11 0 24 0
0

0101000
+98 0 -152 0 *
Ed
 1e-07 1 1 0
1  46 0 1.67916775658492 4.60401755059467
2  65 11 0 1.67916775658492 4.60401755059467
4 C0 11 0 20 0
0

0101000
+152 0 -140 0 *
Ve
1e-07
31.304742759314 -100.2156516295 -84.66912366784
0 0

0101101
*
Ed
 1e-07 1 1 0
1  47 0 4.60401755059406 4.68690937791871
2  66 11 0 4.60401755059406 4.68690937791871
4 C0 11 0 25 0
0

0101000
+140 0 -94 0 *
Ed
 1e-07 1 1 0
1  48 0 4.71238898038469 4.73786858284962
2  67 11 0 4.71238898038469 4.73786858284962
2  68 21 0 4.71238898038469 4.73786858284962
4 C0 11 0 21 0
0

0101000
+144 0 -94 0 *
Wi

0101100
+100 0 -99 0 -100 0 +145 0 -97 0 +96 0 +95 0 +93 0 -92 0 +143 0 
*
Fa
0  1e-07 11 0

0111000
+91 0 *
Ed
 1e-07 1 1 0
1  49 0 4.71238898038469 4.82076041017473
2  69 10 0 4.71238898038469 4.82076041017473
2  70 23 0 4.71238898038469 4.82076041017473
4 C0 10 0 23 0
0

0101000
+148 0 -152 0 *
Ed
 1e-07 1 1 0
1  50 0 1.54531672433095 1.67916775658492
2  71 10 0 1.54531672433095 1.67916775658492
4 C0 10 0 9 0
0

0101000
+150 0 -152 0 *
Wi

0101100
-89 0 +147 0 +88 0 *
Fa
0  1e-07 10 0

0111000
+87 0 *
Wi

0101100
+88 0 -149 0 *
Fa
0  1e-07 9 0

0111000
+85 0 *
Ve
1e-07
30.869949437495 -100.2556516295 -85.05
0 0

0101101
*
Ed
 1e-07 1 1 0
1  51 0 4.82076041017472 6.28318530717959
2  72 14 0 4.82076041017472 6.28318530717959
4 C0 14 0 26 0
0

0101000
+119 0 -83 0 *
Ve
1e-07
30.869949437495 -89.95565162951 -85.05
0 0

0101101
*
Ed
 1e-07 1 1 0
1  52 0 0 10.29999999999
3  73 74CN 14 0 0 10.29999999999
0

0101000
+83 0 -81 0 *
Ve
1e-07
30.107949437495 -89.95565162951 -85.05
0 0

0101101
*
Ed
 1e-07 1 1 0
1  53 0 3.14159265358979 6.28318530717959
2  75 14 0 3.14159265358979 6.28318530717959
2  76 27 0 3.14159265358979 6.28318530717959
4 G1 14 0 27 0
0

0101000
+79 0 -81 0 *
Ed
 1e-07 1 1 0
1  54 0 0 3.14159265358979
2  77 14 0 0 3.14159265358979
2  78 27 0 0 3.14159265358979
4 G1 14 0 27 0
0

0101000
+81 0 -79 0 *
Ed
 1e-07 1 1 0
1  55 0 0 1.46242489700487
2  79 14 0 0 1.46242489700487
4 C0 14 0 26 0
0

0101000
+83 0 -121 0 *
Ve
1e-07
30.498656115675 -100.2156516295 -85.43087633215
0 0

0101101
*
Ed
 1e-07 1 1 0
1  56 0 4.60401755059406 4.68690937791947
2  80 14 0 4.60401755059406 4.68690937791947
4 C0 14 0 28 0
0

0101000
+121 0 -75 0 *
Ed
 1e-07 1 1 0
1  57 0 4.71238898038469 4.73786858284924
2  81 14 0 4.71238898038469 4.73786858284924
2  82 29 0 4.71238898038469 4.73786858284924
4 C0 14 0 29 0
0

0101000
+125 0 -75 0 *
Ve
1e-07
30.498656115675 -100.2156516295 -84.66912366784
0 0

0101101
*
Ed
 1e-07 1 1 0
1  58 0 1.54531672433048 1.5707963267949
2  83 14 0 1.54531672433048 1.5707963267949
2  84 30 0 1.54531672433048 1.5707963267949
4 C0 14 0 30 0
0

0101000
+72 0 -115 0 *
Ed
 1e-07 1 1 0
1  59 0 1.59627592925986 1.67916775658552
2  85 14 0 1.59627592925986 1.67916775658552
4 C0 14 0 31 0
0

0101000
+72 0 -119 0 *
Wi

0101100
+82 0 +80 0 -78 0 -77 0 -80 0 +76 0 +74 0 -73 0 +124 0 +113 0 
-71 0 +70 0 *
Fa
0  1e-07 14 0

0111000
+69 0 *
Ed
 1e-07 1 1 0
1  60 0 4.68690937791879 4.82076041017472
2  86 19 0 4.68690937791879 4.82076041017472
4 C0 19 0 18 0
0

0101000
+117 0 -119 0 *
Ed
 1e-07 1 1 0
1  61 0 4.71238898038469 4.82076041017474
2  87 19 0 4.71238898038469 4.82076041017474
2  88 30 0 4.71238898038469 4.82076041017474
4 C0 19 0 30 0
0

0101000
+115 0 -119 0 *
Wi

0101100
+67 0 -66 0 +114 0 *
Fa
0  1e-07 19 0

0111000
+65 0 *
Wi

0101100
+67 0 -116 0 *
Fa
0  1e-07 18 0

0111000
+63 0 *
Ed
 1e-07 1 1 0
1  62 0 -0.378764886910005 0.378764886909991
4 C0 17 0 26 0
0

0101000
+121 0 -119 0 *
Wi

0101100
+61 0 +118 0 *
Fa
0  1e-07 17 0

0111000
+60 0 *
Ed
 1e-07 1 1 0
1  63 0 1.46242489700487 1.59627592926146
2  89 15 0 1.46242489700487 1.59627592926146
4 C0 16 0 15 0
0

0101000
+121 0 -123 0 *
Wi

0101100
-120 0 +58 0 *
Fa
0  1e-07 16 0

0111000
+57 0 *
Ed
 1e-07 1 1 0
1  64 0 1.46242489700485 1.5707963267949
2  90 15 0 1.46242489700485 1.5707963267949
2  91 29 0 1.46242489700485 1.5707963267949
4 C0 15 0 29 0
0

0101000
+121 0 -125 0 *
Wi

0101100
-55 0 +58 0 +122 0 *
Fa
0  1e-07 15 0

0111000
+54 0 *
Wi

0101100
+110 0 +95 0 *
Fa
0  1e-07 20 0

0111000
+52 0 *
Ed
 1e-07 1 1 0
1  65 0 1.46242489701406 1.59627592926779
2  92 21 0 1.46242489701406 1.59627592926779
4 C0 21 0 25 0
0

0101000
+140 0 -94 0 *
Wi

0101100
-50 0 +104 0 +92 0 *
Fa
0  1e-07 21 0

0111000
+49 0 *
Wi

0101100
-93 0 +50 0 *
Fa
0  1e-07 25 0

0111000
+47 0 *
Ed
 1e-07 1 1 0
1  66 0 4.68690937791113 4.82076041016553
2  93 23 0 4.68690937791113 4.82076041016553
4 C0 24 0 23 0
0

0101000
+98 0 -152 0 *
Wi

0101100
+45 0 -96 0 *
Fa
0  1e-07 24 0

0111000
+44 0 *
Wi

0101100
+89 0 -45 0 +97 0 *
Fa
0  1e-07 23 0

0111000
+42 0 *
Ve
1e-07
31.753139935367 -89.77268074631 -85.05
0 0

0101101
*
Ed
 1e-07 1 1 0
1  67 0 0 0.610865238208659
3  94 95CN 22 0 0 0.610865238208659
0

0101000
+101 0 -40 0 *
Ed
 1e-07 1 1 0
1  68 0 3.14159265358979 9.42477796076938
2  96 22 0 3.14159265358979 9.42477796076938
2  97 32 0 3.14159265358979 9.42477796076938
4 G1 22 0 32 0
0

0101100
+40 0 -40 0 *
Wi

0101100
-39 0 +99 0 +39 0 +38 0 *
Fa
0  1e-07 22 0

0111000
+37 0 *
Wi

0101100
+82 0 +76 0 +61 0 *
Fa
0  1e-07 26 0

0111000
+35 0 *
Ed
 1e-07 1 1 0
1  69 0 1.54531672432039 1.67916775657577
2  98 30 0 1.54531672432039 1.67916775657577
4 C0 31 0 30 0
0

0101000
+72 0 -119 0 *
Wi

0101100
+33 0 -70 0 *
Fa
0  1e-07 31 0

0111000
+32 0 *
Wi

0101100
+71 0 +66 0 -33 0 *
Fa
0  1e-07 30 0

0111000
+30 0 *
Ed
 1e-07 1 1 0
1  70 0 4.60401755060383 4.73786858285986
2  99 29 0 4.60401755060383 4.73786858285986
4 C0 29 0 28 0
0

0101000
+121 0 -75 0 *
Wi

0101100
+55 0 +73 0 -28 0 *
Fa
0  1e-07 29 0

0111000
+27 0 *
Wi

0101100
-74 0 +28 0 *
Fa
0  1e-07 28 0

0111000
+25 0 *
Ve
1e-07
30.050258939623 -89.77268074631 -85.05
0 0

0101101
*
Ed
 1e-07 1 1 0
1  71 0 0 0.610865238208665
3  100 101CN 27 0 0 0.610865238208665
0

0101000
+79 0 -23 0 *
Ve
1e-07
30.674452797371 -89.33561550182 -85.05
0 0

0101101
*
Ed
 1e-07 1 1 0
1  72 0 3.14159265358979 6.28318530717959
2  102 27 0 3.14159265358979 6.28318530717959
2  103 33 0 3.14159265358979 6.28318530717959
4 G1 27 0 33 0
0

0101000
+23 0 -21 0 *
Ed
 1e-07 1 1 0
1  73 0 0 3.14159265358979
2  104 33 0 0 3.14159265358979
2  105 27 0 0 3.14159265358979
4 G1 27 0 33 0
0

0101000
+21 0 -23 0 *
Wi

0101100
+78 0 +77 0 +22 0 +20 0 +19 0 -22 0 *
Fa
0  1e-07 27 0

0111000
+18 0 *
Ve
1e-07
32.884458848118 -88.15698989608 -85.05
0 0

0101101
*
Ed
 1e-07 1 1 0
1  74 0 0 6.28318530717959
2  106 32 0 0 6.28318530717959
4 C0 32 0 34 0
0

0101100
+16 0 -16 0 *
Ed
 1e-07 1 1 0
1  75 0 0 1.97239433325718
3  107 108CN 32 0 0 1.97239433325718
0

0101000
+40 0 -16 0 *
Wi

0101100
-15 0 -14 0 -38 0 +14 0 *
Fa
0  1e-07 32 0

0111000
+13 0 *
Ve
1e-07
29.54313388462 -87.71992465158 -85.05
0 0

0101101
*
Ed
 1e-07 1 1 0
1  76 0 0 1.97239433326537
3  109 110CN 33 0 0 1.97239433326537
0

0101000
+21 0 -11 0 *
Ed
 1e-07 1 1 0
1  77 0 0 6.28318530717959
2  111 33 0 0 6.28318530717959
4 C0 33 0 35 0
0

0101100
+11 0 -11 0 *
Wi

0101100
+10 0 -9 0 -10 0 -20 0 -19 0 *
Fa
0  1e-07 33 0

0111000
+8 0 *
Wi

0101100
+15 0 *
Fa
0  1e-07 34 0

0111000
+6 0 *
Wi

0101100
+9 0 *
Fa
0  1e-07 35 0

0111000
+4 0 *
Sh

0101100
+161 0 +158 0 -155 0 +136 0 +133 0 -128 0 +111 0 +108 0 -105 0 +102 0 
+90 0 +86 0 -84 0 +68 0 +64 0 -62 0 +59 0 -56 0 +53 0 -51 0 
+48 0 +46 0 +43 0 +41 0 +36 0 -34 0 +31 0 +29 0 +26 0 +24 0 
+17 0 +12 0 +7 0 +5 0 +3 0 *
So

0100000
+2 0 *

+1 0 