
CASCADE Topology V1, (c) Matra-Datavision
Locations 3
1
1.000000000000000 0.000000000000000 0.000000000000000 0.000000000000000 
0.000000000000000 1.000000000000000 0.000000000000000 0.000000000000000 
0.000000000000000 0.000000000000000 1.000000000000000 0.000000000000000 
1
1.000000000000000 0.000000000000000 0.000000000000000 0.000000000000000 
0.000000000000000 1.000000000000000 0.000000000000000 0.000000000000000 
0.000000000000000 0.000000000000000 1.000000000000000 0.000000000000000 
2  2 -1 0
Curve2ds 12
1 0.00000000000000000 13.00000000000000000 1.00000000000000000 0.00000000000000000 
1 6.28318530717958623 -0.00000000000000000 0.00000000000000000 1.00000000000000000 
1 0.00000000000000000 -0.00000000000000000 0.00000000000000000 1.00000000000000000 
1 0.00000000000000000 0.00000000000000000 1.00000000000000000 0.00000000000000000 
1 0.00000000000000000 5.51265282726040429 1.00000000000000000 0.00000000000000000 
1 0.00000000000000000 1.00000000000000000 1.00000000000000000 0.00000000000000000 
1 0.00000000000000000 3.91212513350897462 1.00000000000000000 0.00000000000000000 
1 6.28318530717958623 -0.00000000000000000 0.00000000000000000 1.00000000000000000 
1 0.00000000000000000 -0.00000000000000000 0.00000000000000000 1.00000000000000000 
1 0.00000000000000000 14.00000000000000000 1.00000000000000000 0.00000000000000000 
1 6.28318530717958623 -0.00000000000000000 0.00000000000000000 1.00000000000000000 
1 0.00000000000000000 -0.00000000000000000 0.00000000000000000 1.00000000000000000 
Curves 9
2 0.00000000000000000 95.73142857142856599 0.00000000000000000 0.00000000000000000 1.00000000000000000 0.00000000000000000 0.00000000000000000 -0.00000000000000000 1.00000000000000000 1.00000000000000000 0.00000000000000000 -0.00000000000000000 77.50000000000000000
1 -0.00000000000001898 82.73142857142856599 77.50000000000000000 0.00000000000000000 1.00000000000000000 0.00000000000000000 
2 0.00000000000000000 82.73142857142856599 0.00000000000000000 0.00000000000000000 1.00000000000000000 0.00000000000000000 0.00000000000000000 -0.00000000000000000 1.00000000000000000 1.00000000000000000 0.00000000000000000 -0.00000000000000000 77.50000000000000000
2 0.00000000000000000 95.73142857142856599 0.00000000000000000 0.00000000000000000 1.00000000000000000 0.00000000000000000 0.00000000000000000 -0.00000000000000000 1.00000000000000000 1.00000000000000000 0.00000000000000000 -0.00000000000000000 72.21127589265589108
2 0.00000000000000000 82.73142857142856599 0.00000000000000000 0.00000000000000000 1.00000000000000000 0.00000000000000000 0.00000000000000000 -0.00000000000000000 1.00000000000000000 1.00000000000000000 0.00000000000000000 -0.00000000000000000 52.50000000000000000
2 0.00000000000000000 95.73142857142856599 0.00000000000000000 0.00000000000000000 1.00000000000000000 0.00000000000000000 0.00000000000000000 -0.00000000000000000 1.00000000000000000 1.00000000000000000 0.00000000000000000 -0.00000000000000000 57.78872410734410892
2 -0.00000000000001592 102.73142857142856599 65.00000000000000000 -1.00000000000000000 0.00000000000000000 -0.00000000000000024 -0.00000000000000024 0.00000000000000000 1.00000000000000000 0.00000000000000000 1.00000000000000000 0.00000000000000000 10.05000000000000071
2 0.00000000000000000 95.73142857142856599 0.00000000000000000 0.00000000000000000 1.00000000000000000 0.00000000000000000 0.00000000000000000 -0.00000000000000000 1.00000000000000000 1.00000000000000000 0.00000000000000000 -0.00000000000000000 52.50000000000000000
1 -0.00000000000001286 81.73142857142856599 52.50000000000000000 0.00000000000000000 1.00000000000000000 0.00000000000000000 
Polygon3D 0
PolygonOnTriangulations 0
Surfaces 6
2 0.00000000000000000 82.73142857142856599 0.00000000000000000 0.00000000000000000 1.00000000000000000 0.00000000000000000 0.00000000000000000 -0.00000000000000000 1.00000000000000000 1.00000000000000000 0.00000000000000000 -0.00000000000000000 77.50000000000000000
1 0.00000000000000000 95.73142857142856599 0.00000000000000000 0.00000000000000000 1.00000000000000000 0.00000000000000000 0.00000000000000000 -0.00000000000000000 1.00000000000000000 1.00000000000000000 0.00000000000000000 -0.00000000000000000 
5 0.00000000000000000 102.73142857142856599 0.00000000000000000 0.00000000000000000 1.00000000000000000 0.00000000000000000 0.00000000000000000 -0.00000000000000000 1.00000000000000000 1.00000000000000000 0.00000000000000000 -0.00000000000000000 65.00000000000000000 10.05000000000000071
1 0.00000000000000000 82.73142857142856599 0.00000000000000000 0.00000000000000000 1.00000000000000000 0.00000000000000000 0.00000000000000000 -0.00000000000000000 1.00000000000000000 1.00000000000000000 0.00000000000000000 -0.00000000000000000 
2 0.00000000000000000 81.73142857142856599 0.00000000000000000 0.00000000000000000 1.00000000000000000 0.00000000000000000 0.00000000000000000 -0.00000000000000000 1.00000000000000000 1.00000000000000000 0.00000000000000000 -0.00000000000000000 52.50000000000000000
1 0.00000000000000000 95.73142857142856599 0.00000000000000000 0.00000000000000000 1.00000000000000000 0.00000000000000000 0.00000000000000000 -0.00000000000000000 1.00000000000000000 1.00000000000000000 0.00000000000000000 -0.00000000000000000 
Triangulations 0

TShapes 33
Ve
0.000000100000000
-0.000000000000019 95.731428571428566 77.500000000000000
0 0

0101101
*
Ed
 0.000000100000000 1 1 0
1  1 0 0.000000000000000 6.283185307179586
2  1 1 0 0.000000000000000 6.283185307179586
0

0101000
+33 3 -33 3 *
Ve
0.000000100000000
-0.000000000000019 82.731428571428566 77.500000000000000
0 0

0101101
*
Ed
 0.000000100000000 1 1 0
1  2 0 0.000000000000000 13.000000000000000
3  2 3CN 1 0 0.000000000000000 13.000000000000000
0

0101000
-33 3 +31 3 *
Ed
 0.000000100000000 1 1 0
1  3 0 0.000000000000000 6.283185307179586
2  4 1 0 0.000000000000000 6.283185307179586
0

0101000
+31 3 -31 3 *
Wi

0101100
-32 0 +30 0 +29 0 -30 0 *
Fa
0  0.000000100000000 1 0

0111000
+28 0 *
Wi

0101100
+32 0 *
Ve
0.000000100000018
-0.000000000000018 95.731428571428566 72.211275892655891
0 0

0101101
*
Ed
 0.000000100000000 1 1 0
1  4 0 0.000000000000000 6.283185307179586
2  5 3 0 0.000000000000000 6.283185307179586
0

0101100
+25 3 -25 3 *
Wi

0101100
-24 0 *
Fa
0  0.000000100000000 2 0

0111000
+26 0 +23 0 *
Wi

0101100
+29 0 *
Ve
0.000000100000013
-0.000000000000013 82.731428571428566 52.500000000000000
0 0

0101101
*
Ed
 0.000000100000000 1 1 0
1  5 0 0.000000000000000 6.283185307179586
2  6 5 0 0.000000000000000 6.283185307179586
0

0101100
+20 3 -20 3 *
Wi

0101100
-19 0 *
Fa
0  0.000000100000000 4 0

0111000
+21 0 +18 0 *
Ve
0.000000100000014
-0.000000000000014 95.731428571428566 57.788724107344109
0 0

0101101
*
Ed
 0.000000100000000 1 1 0
1  6 0 0.000000000000000 6.283185307179586
2  7 3 0 0.000000000000000 6.283185307179586
0

0101100
+16 3 -16 3 *
Ed
 0.000000100000000 1 1 0
1  7 0 3.912125133508975 5.512652827260404
3  8 9CN 3 0 3.912125133508975 5.512652827260404
0

0101000
+16 3 -25 3 *
Wi

0101100
+15 0 -14 0 -24 0 +14 0 *
Fa
0  0.000000100000000 3 0

0111000
+13 0 *
Ve
0.000000100000013
-0.000000000000013 95.731428571428566 52.500000000000000
0 0

0101101
*
Ed
 0.000000100000000 1 1 0
1  8 0 0.000000000000000 6.283185307179586
2  10 5 0 0.000000000000000 6.283185307179586
0

0101100
+11 3 -11 3 *
Ed
 0.000000100000000 1 1 0
1  9 0 1.000000000000000 14.000000000000000
3  11 12CN 5 0 1.000000000000000 14.000000000000000
0

0101000
+20 3 -11 3 *
Wi

0101100
-10 0 +9 0 +19 0 -9 0 *
Fa
0  0.000000100000000 5 0

0111000
+8 0 *
Wi

0101100
+15 0 *
Wi

0101100
-10 0 *
Fa
0  0.000000100000000 6 0

0111000
+6 0 +5 0 *
Sh

0101100
+27 0 +22 0 -17 0 -12 0 -7 0 +4 0 *
So

0100000
+3 0 *
Co

1100000
+2 0 *

+1 1 