
CASCADE Topology V1, (c) Matra-Datavision
Locations 52
1
1.000000000000000 0.000000000000000 0.000000000000000 0.000000000000000 
0.000000000000000 1.000000000000000 0.000000000000000 0.000000000000000 
0.000000000000000 0.000000000000000 1.000000000000000 0.000000000000000 
1
1.000000000000000 0.000000000000000 0.000000000000000 -2400.000000000000000 
0.000000000000000 1.000000000000000 0.000000000000000 0.000000000000000 
0.000000000000000 0.000000000000000 1.000000000000000 -533.049999999999955 
1
1.000000000000000 0.000000000000000 0.000000000000000 0.000000000000000 
0.000000000000000 1.000000000000000 0.000000000000000 0.000000000000000 
0.000000000000000 0.000000000000000 1.000000000000000 0.000000000000000 
1
1.000000000000000 0.000000000000000 0.000000000000000 0.000000000000000 
0.000000000000000 1.000000000000000 0.000000000000000 0.000000000000000 
0.000000000000000 0.000000000000000 1.000000000000000 0.000000000000000 
1
1.000000000000000 0.000000000000000 0.000000000000000 0.000000000000000 
0.000000000000000 1.000000000000000 0.000000000000000 0.000000000000000 
0.000000000000000 0.000000000000000 1.000000000000000 0.000000000000000 
1
1.000000000000000 0.000000000000000 0.000000000000000 2400.000000000000000 
0.000000000000000 1.000000000000000 0.000000000000000 0.000000000000000 
0.000000000000000 0.000000000000000 1.000000000000000 533.049999999999955 
2  3 1 4 1 5 1 6 1 0
1
1.000000000000000 0.000000000000000 0.000000000000000 0.000000000000000 
0.000000000000000 1.000000000000000 0.000000000000000 0.000000000000000 
0.000000000000000 0.000000000000000 1.000000000000000 0.000000000000000 
2  8 -1 2 -1 6 -1 5 -1 4 -1 3 -1 0
1
1.000000000000000 0.000000000000000 0.000000000000000 0.000000000000000 
0.000000000000000 1.000000000000000 0.000000000000000 2200.000000000000000 
0.000000000000000 0.000000000000000 1.000000000000000 0.000000000000000 
2  10 1 3 1 4 1 5 1 6 1 0
2  8 -1 2 -1 6 -1 5 -1 4 -1 3 -1 10 -1 0
2  5 1 6 1 0
2  8 -1 2 -1 6 -1 5 -1 0
2  8 -1 2 -1 0
1
1.000000000000000 0.000000000000000 0.000000000000000 -2400.000000000000000 
0.000000000000000 1.000000000000000 0.000000000000000 0.000000000000000 
0.000000000000000 0.000000000000000 1.000000000000000 -533.049999999999955 
1
1.000000000000000 0.000000000000000 0.000000000000000 -2400.000000000000000 
0.000000000000000 1.000000000000000 0.000000000000000 0.000000000000000 
0.000000000000000 0.000000000000000 1.000000000000000 -533.049999999999955 
2  3 1 4 1 5 1 0
2  10 1 3 1 4 1 5 1 0
1
1.000000000000000 0.000000000000000 0.000000000000000 -2400.000000000000000 
0.000000000000000 1.000000000000000 0.000000000000000 0.000000000000000 
0.000000000000000 0.000000000000000 1.000000000000000 -533.049999999999955 
2  8 -1 2 -1 6 -1 0
1
1.000000000000000 0.000000000000000 0.000000000000000 -2400.000000000000000 
0.000000000000000 1.000000000000000 0.000000000000000 0.000000000000000 
0.000000000000000 0.000000000000000 1.000000000000000 -533.049999999999955 
2  4 1 5 1 0
1
1.000000000000000 0.000000000000000 0.000000000000000 -2400.000000000000000 
0.000000000000000 1.000000000000000 0.000000000000000 0.000000000000000 
0.000000000000000 0.000000000000000 1.000000000000000 -533.049999999999955 
2  8 -1 2 -1 6 -1 5 -1 4 -1 0
1
1.000000000000000 0.000000000000000 0.000000000000000 -2400.000000000000000 
0.000000000000000 1.000000000000000 0.000000000000000 0.000000000000000 
0.000000000000000 0.000000000000000 1.000000000000000 -533.049999999999955 
1
1.000000000000000 0.000000000000000 0.000000000000000 -2400.000000000000000 
0.000000000000000 1.000000000000000 0.000000000000000 0.000000000000000 
0.000000000000000 0.000000000000000 1.000000000000000 -533.049999999999955 
1
1.000000000000000 0.000000000000000 0.000000000000000 -2400.000000000000000 
0.000000000000000 1.000000000000000 0.000000000000000 0.000000000000000 
0.000000000000000 0.000000000000000 1.000000000000000 -533.049999999999955 
1
1.000000000000000 0.000000000000000 0.000000000000000 -2400.000000000000000 
0.000000000000000 1.000000000000000 0.000000000000000 0.000000000000000 
0.000000000000000 0.000000000000000 1.000000000000000 -533.049999999999955 
1
1.000000000000000 0.000000000000000 0.000000000000000 -2400.000000000000000 
0.000000000000000 1.000000000000000 0.000000000000000 0.000000000000000 
0.000000000000000 0.000000000000000 1.000000000000000 -533.049999999999955 
1
1.000000000000000 0.000000000000000 0.000000000000000 -2400.000000000000000 
0.000000000000000 1.000000000000000 0.000000000000000 0.000000000000000 
0.000000000000000 0.000000000000000 1.000000000000000 -533.049999999999955 
1
1.000000000000000 0.000000000000000 0.000000000000000 -2400.000000000000000 
0.000000000000000 1.000000000000000 0.000000000000000 0.000000000000000 
0.000000000000000 0.000000000000000 1.000000000000000 -533.049999999999955 
1
1.000000000000000 0.000000000000000 0.000000000000000 -2400.000000000000000 
0.000000000000000 1.000000000000000 0.000000000000000 0.000000000000000 
0.000000000000000 0.000000000000000 1.000000000000000 -533.049999999999955 
1
1.000000000000000 0.000000000000000 0.000000000000000 -2400.000000000000000 
0.000000000000000 1.000000000000000 0.000000000000000 0.000000000000000 
0.000000000000000 0.000000000000000 1.000000000000000 -533.049999999999955 
1
1.000000000000000 0.000000000000000 0.000000000000000 0.000000000000000 
0.000000000000000 1.000000000000000 0.000000000000000 0.000000000000000 
0.000000000000000 0.000000000000000 1.000000000000000 0.000000000000000 
1
1.000000000000000 0.000000000000000 0.000000000000000 2400.000000000000000 
0.000000000000000 1.000000000000000 0.000000000000000 0.000000000000000 
0.000000000000000 0.000000000000000 1.000000000000000 533.049999999999955 
2  35 1 36 1 0
2  8 -1 2 -1 6 -1 5 -1 16 -1 0
2  8 -1 2 -1 6 -1 5 -1 17 -1 0
2  8 -1 2 -1 6 -1 20 -1 0
2  8 -1 2 -1 6 -1 22 -1 0
2  4 1 5 1 6 1 0
2  8 -1 2 -1 6 -1 5 -1 4 -1 24 -1 0
2  8 -1 2 -1 6 -1 5 -1 4 -1 26 -1 0
2  8 -1 2 -1 6 -1 5 -1 4 -1 27 -1 0
2  8 -1 2 -1 6 -1 5 -1 4 -1 28 -1 0
2  8 -1 2 -1 6 -1 5 -1 4 -1 29 -1 0
2  8 -1 2 -1 6 -1 5 -1 4 -1 30 -1 0
2  8 -1 2 -1 6 -1 31 -1 0
2  8 -1 2 -1 6 -1 32 -1 0
2  8 -1 2 -1 6 -1 5 -1 4 -1 33 -1 0
2  8 -1 2 -1 6 -1 5 -1 4 -1 34 -1 0
Curve2ds 116
1 0.00000000000000000 1.00000000000000000 1.00000000000000000 0.00000000000000000 
1 0.00000000000000000 1.00000000000000000 1.00000000000000000 0.00000000000000000 
1 0.00000000000000000 1.00000000000000000 1.00000000000000000 0.00000000000000000 
1 0.00000000000000000 1.00000000000000000 1.00000000000000000 0.00000000000000000 
1 0.00000000000000000 1.00000000000000000 1.00000000000000000 0.00000000000000000 
1 0.00000000000000000 1.00000000000000000 1.00000000000000000 0.00000000000000000 
1 0.00000000000000000 1.00000000000000000 1.00000000000000000 0.00000000000000000 
1 0.00000000000000000 1.00000000000000000 1.00000000000000000 0.00000000000000000 
1 0.00000000000000000 1.00000000000000000 1.00000000000000000 0.00000000000000000 
1 0.00000000000000000 0.99999999999981526 1.00000000000000000 0.00000000000000000 
1 0.00000000000000000 0.99999999999981526 1.00000000000000000 0.00000000000000000 
1 0.00000000000000000 1.00000000000000000 1.00000000000000000 0.00000000000000000 
1 0.00000000000000000 1.00000000000000000 1.00000000000000000 0.00000000000000000 
1 0.00000000000000000 1.00000000000000000 1.00000000000000000 0.00000000000000000 
1 0.00000000000000000 1.00000000000000000 1.00000000000000000 0.00000000000000000 
1 0.00000000000000000 1.00000000000000000 1.00000000000000000 0.00000000000000000 
1 0.00000000000000000 1.00000000000000000 1.00000000000000000 0.00000000000000000 
1 0.00000000000000000 7.34999999999995168 1.00000000000000000 0.00000000000000000 
1 0.00000000000000000 7.34999999999995168 1.00000000000000000 0.00000000000000000 
1 0.00000000000000000 7.34999999999995168 1.00000000000000000 0.00000000000000000 
1 0.00000000000000000 7.34999999999995168 1.00000000000000000 0.00000000000000000 
1 0.00000000000000000 7.34999999999995168 1.00000000000000000 0.00000000000000000 
1 0.00000000000000000 7.34999999999995168 1.00000000000000000 0.00000000000000000 
1 0.00000000000000000 7.34999999999995168 1.00000000000000000 0.00000000000000000 
1 0.00000000000000000 7.34999999999995168 1.00000000000000000 0.00000000000000000 
1 0.00000000000000000 7.34999999999995168 1.00000000000000000 0.00000000000000000 
1 0.00000000000000000 7.34999999999995168 1.00000000000000000 0.00000000000000000 
1 0.00000000000000000 7.34999999999995168 1.00000000000000000 0.00000000000000000 
1 0.00000000000000000 7.34999999999995168 1.00000000000000000 0.00000000000000000 
1 0.00000000000000000 7.34999999999999432 1.00000000000000000 0.00000000000000000 
1 6.28318530717958623 -0.00000000000000000 0.00000000000000000 1.00000000000000000 
1 0.00000000000000000 -0.00000000000000000 0.00000000000000000 1.00000000000000000 
1 0.00000000000000000 7.34999999999999432 1.00000000000000000 0.00000000000000000 
1 6.28318530717958623 -0.00000000000000000 0.00000000000000000 1.00000000000000000 
1 0.00000000000000000 -0.00000000000000000 0.00000000000000000 1.00000000000000000 
1 0.00000000000000000 7.34999999999999432 1.00000000000000000 0.00000000000000000 
1 6.28318530717958623 -0.00000000000000000 0.00000000000000000 1.00000000000000000 
1 0.00000000000000000 -0.00000000000000000 0.00000000000000000 1.00000000000000000 
1 0.00000000000000000 7.34999999999999432 1.00000000000000000 0.00000000000000000 
1 6.28318530717958623 -0.00000000000000000 0.00000000000000000 1.00000000000000000 
1 0.00000000000000000 -0.00000000000000000 0.00000000000000000 1.00000000000000000 
1 0.00000000000000000 7.34999999999999432 1.00000000000000000 0.00000000000000000 
1 6.28318530717958623 -0.00000000000000000 0.00000000000000000 1.00000000000000000 
1 0.00000000000000000 -0.00000000000000000 0.00000000000000000 1.00000000000000000 
1 0.00000000000000000 7.34999999999999432 1.00000000000000000 0.00000000000000000 
1 6.28318530717958623 -0.00000000000000000 0.00000000000000000 1.00000000000000000 
1 0.00000000000000000 -0.00000000000000000 0.00000000000000000 1.00000000000000000 
1 0.00000000000000000 1.00000000000000000 1.00000000000000000 0.00000000000000000 
1 0.00000000000000000 7.34999999999990905 1.00000000000000000 0.00000000000000000 
1 0.00000000000000000 7.34999999999990905 1.00000000000000000 0.00000000000000000 
1 0.00000000000000000 7.34999999999990905 1.00000000000000000 0.00000000000000000 
1 6.28318530717958623 -0.00000000000000000 0.00000000000000000 1.00000000000000000 
1 0.00000000000000000 -0.00000000000000000 0.00000000000000000 1.00000000000000000 
1 0.00000000000000000 7.34999999999990905 1.00000000000000000 0.00000000000000000 
1 6.28318530717958623 -0.00000000000000000 0.00000000000000000 1.00000000000000000 
1 0.00000000000000000 -0.00000000000000000 0.00000000000000000 1.00000000000000000 
1 0.00000000000000000 7.34999999999980957 1.00000000000000000 0.00000000000000000 
1 6.28318530717958623 -0.00000000000000000 0.00000000000000000 1.00000000000000000 
1 0.00000000000000000 -0.00000000000000000 0.00000000000000000 1.00000000000000000 
1 0.00000000000000000 7.34999999999980957 1.00000000000000000 0.00000000000000000 
1 6.28318530717958623 -0.00000000000000000 0.00000000000000000 1.00000000000000000 
1 0.00000000000000000 -0.00000000000000000 0.00000000000000000 1.00000000000000000 
1 0.00000000000000000 7.34999999999999432 1.00000000000000000 0.00000000000000000 
1 6.28318530717958623 -0.00000000000000000 0.00000000000000000 1.00000000000000000 
1 0.00000000000000000 -0.00000000000000000 0.00000000000000000 1.00000000000000000 
1 0.00000000000000000 7.34999999999999432 1.00000000000000000 0.00000000000000000 
1 6.28318530717958623 -0.00000000000000000 0.00000000000000000 1.00000000000000000 
1 0.00000000000000000 -0.00000000000000000 0.00000000000000000 1.00000000000000000 
1 0.00000000000000000 7.34999999999999432 1.00000000000000000 0.00000000000000000 
1 6.28318530717958623 -0.00000000000000000 0.00000000000000000 1.00000000000000000 
1 0.00000000000000000 -0.00000000000000000 0.00000000000000000 1.00000000000000000 
1 0.00000000000000000 7.34999999999999432 1.00000000000000000 0.00000000000000000 
1 6.28318530717958623 -0.00000000000000000 0.00000000000000000 1.00000000000000000 
1 0.00000000000000000 -0.00000000000000000 0.00000000000000000 1.00000000000000000 
1 0.00000000000000000 7.34999999999999432 1.00000000000000000 0.00000000000000000 
1 6.28318530717958623 -0.00000000000000000 0.00000000000000000 1.00000000000000000 
1 0.00000000000000000 -0.00000000000000000 0.00000000000000000 1.00000000000000000 
1 0.00000000000000000 7.34999999999999432 1.00000000000000000 0.00000000000000000 
1 6.28318530717958623 -0.00000000000000000 0.00000000000000000 1.00000000000000000 
1 0.00000000000000000 -0.00000000000000000 0.00000000000000000 1.00000000000000000 
1 0.00000000000000000 0.99999999999995026 1.00000000000000000 0.00000000000000000 
1 0.00000000000000000 0.99999999999995026 1.00000000000000000 0.00000000000000000 
1 0.00000000000000000 0.99999999999995026 1.00000000000000000 0.00000000000000000 
1 0.00000000000000000 0.99999999999995026 1.00000000000000000 0.00000000000000000 
1 0.00000000000000000 0.99999999999995026 1.00000000000000000 0.00000000000000000 
1 0.00000000000000000 0.99999999999995026 1.00000000000000000 0.00000000000000000 
1 0.00000000000000000 0.99999999999995026 1.00000000000000000 0.00000000000000000 
1 0.00000000000000000 0.99999999999995026 1.00000000000000000 0.00000000000000000 
1 0.00000000000000000 0.99999999999995026 1.00000000000000000 0.00000000000000000 
1 0.00000000000000000 0.99999999999995026 1.00000000000000000 0.00000000000000000 
1 0.00000000000000000 0.99999999999995026 1.00000000000000000 0.00000000000000000 
1 0.00000000000000000 0.99999999999995026 1.00000000000000000 0.00000000000000000 
1 6.28318530717958623 -0.00000000000000000 0.00000000000000000 1.00000000000000000 
1 0.00000000000000000 -0.00000000000000000 0.00000000000000000 1.00000000000000000 
1 6.28318530717958623 -0.00000000000000000 0.00000000000000000 1.00000000000000000 
1 0.00000000000000000 -0.00000000000000000 0.00000000000000000 1.00000000000000000 
1 6.28318530717958623 -0.00000000000000000 0.00000000000000000 1.00000000000000000 
1 0.00000000000000000 -0.00000000000000000 0.00000000000000000 1.00000000000000000 
1 6.28318530717958623 -0.00000000000000000 0.00000000000000000 1.00000000000000000 
1 0.00000000000000000 -0.00000000000000000 0.00000000000000000 1.00000000000000000 
1 6.28318530717958623 -0.00000000000000000 0.00000000000000000 1.00000000000000000 
1 0.00000000000000000 -0.00000000000000000 0.00000000000000000 1.00000000000000000 
1 6.28318530717958623 -0.00000000000000000 0.00000000000000000 1.00000000000000000 
1 0.00000000000000000 -0.00000000000000000 0.00000000000000000 1.00000000000000000 
1 6.28318530717958623 -0.00000000000000000 0.00000000000000000 1.00000000000000000 
1 0.00000000000000000 -0.00000000000000000 0.00000000000000000 1.00000000000000000 
1 6.28318530717958623 -0.00000000000000000 0.00000000000000000 1.00000000000000000 
1 0.00000000000000000 -0.00000000000000000 0.00000000000000000 1.00000000000000000 
1 6.28318530717958623 -0.00000000000000000 0.00000000000000000 1.00000000000000000 
1 0.00000000000000000 -0.00000000000000000 0.00000000000000000 1.00000000000000000 
1 6.28318530717958623 -0.00000000000000000 0.00000000000000000 1.00000000000000000 
1 0.00000000000000000 -0.00000000000000000 0.00000000000000000 1.00000000000000000 
1 6.28318530717958623 -0.00000000000000000 0.00000000000000000 1.00000000000000000 
1 0.00000000000000000 -0.00000000000000000 0.00000000000000000 1.00000000000000000 
1 6.28318530717958623 -0.00000000000000000 0.00000000000000000 1.00000000000000000 
1 0.00000000000000000 -0.00000000000000000 0.00000000000000000 1.00000000000000000 
Curves 118
1 -76.20000000000000284 -1100.00000000000000000 0.00000000000000000 0.00000000000000000 1.00000000000000000 0.00000000000000000 
1 -76.20000000000000284 -1100.00000000000000000 0.00000000000000000 0.00000000000000000 0.00000000000000000 1.00000000000000000 
1 -76.20000000000000284 -1100.00000000000000000 0.00000000000000000 0.00000000000000000 0.00000000000000000 1.00000000000000000 
1 -76.20000000000000284 -1100.00000000000000000 50.79999999999999716 0.00000000000000000 1.00000000000000000 0.00000000000000000 
2 -76.20000000000000284 741.75000000000000000 25.39999999999999858 1.00000000000000000 0.00000000000000000 -0.00000000000000000 0.00000000000000000 0.00000000000000000 1.00000000000000000 0.00000000000000000 -1.00000000000000000 0.00000000000000000 6.50000000000000000
2 -76.20000000000000284 710.00000000000000000 25.39999999999999858 1.00000000000000000 0.00000000000000000 -0.00000000000000000 0.00000000000000000 0.00000000000000000 1.00000000000000000 0.00000000000000000 -1.00000000000000000 0.00000000000000000 6.50000000000000000
2 -76.20000000000000284 678.25000000000000000 25.39999999999999858 1.00000000000000000 0.00000000000000000 -0.00000000000000000 0.00000000000000000 0.00000000000000000 1.00000000000000000 0.00000000000000000 -1.00000000000000000 0.00000000000000000 6.50000000000000000
2 -76.20000000000000284 481.75000000000000000 25.39999999999999858 1.00000000000000000 0.00000000000000000 -0.00000000000000000 0.00000000000000000 0.00000000000000000 1.00000000000000000 0.00000000000000000 -1.00000000000000000 0.00000000000000000 6.50000000000000000
2 -76.20000000000000284 450.00000000000000000 25.39999999999999858 1.00000000000000000 0.00000000000000000 -0.00000000000000000 0.00000000000000000 0.00000000000000000 1.00000000000000000 0.00000000000000000 -1.00000000000000000 0.00000000000000000 6.50000000000000000
2 -76.20000000000000284 418.25000000000000000 25.39999999999999858 1.00000000000000000 0.00000000000000000 -0.00000000000000000 0.00000000000000000 0.00000000000000000 1.00000000000000000 0.00000000000000000 -1.00000000000000000 0.00000000000000000 6.50000000000000000
2 -76.20000000000000284 292.10000000000002274 25.39999999999997726 1.00000000000000000 0.00000000000000000 -0.00000000000000000 0.00000000000000000 0.00000000000000000 1.00000000000000000 0.00000000000000000 -1.00000000000000000 0.00000000000000000 6.50000000000000000
2 -76.20000000000000284 254.00000000000000000 25.39999999999997726 1.00000000000000000 0.00000000000000000 -0.00000000000000000 0.00000000000000000 0.00000000000000000 1.00000000000000000 0.00000000000000000 -1.00000000000000000 0.00000000000000000 6.50000000000000000
2 2323.80000000000018190 241.30000000000001137 558.45000000000004547 1.00000000000000000 0.00000000000000000 -0.00000000000000000 0.00000000000000000 0.00000000000000000 1.00000000000000000 0.00000000000000000 -1.00000000000000000 0.00000000000000000 6.50000000000000000
2 2323.80000000000018190 241.30000000000001137 558.45000000000004547 1.00000000000000000 0.00000000000000000 -0.00000000000000000 0.00000000000000000 0.00000000000000000 1.00000000000000000 0.00000000000000000 -1.00000000000000000 0.00000000000000000 6.50000000000000000
2 -76.20000000000000284 254.00000000000000000 25.39999999999997726 1.00000000000000000 0.00000000000000000 -0.00000000000000000 0.00000000000000000 0.00000000000000000 1.00000000000000000 0.00000000000000000 -1.00000000000000000 0.00000000000000000 6.50000000000000000
2 2323.80000000000018190 203.19999999999998863 558.45000000000004547 1.00000000000000000 0.00000000000000000 -0.00000000000000000 0.00000000000000000 0.00000000000000000 1.00000000000000000 0.00000000000000000 -1.00000000000000000 0.00000000000000000 6.50000000000000000
2 -76.20000000000000284 -203.19999999999998863 25.39999999999997726 1.00000000000000000 0.00000000000000000 -0.00000000000000000 0.00000000000000000 0.00000000000000000 1.00000000000000000 0.00000000000000000 -1.00000000000000000 0.00000000000000000 6.50000000000000000
2 -76.20000000000000284 -241.30000000000001137 25.39999999999997726 1.00000000000000000 0.00000000000000000 -0.00000000000000000 0.00000000000000000 0.00000000000000000 1.00000000000000000 0.00000000000000000 -1.00000000000000000 0.00000000000000000 6.50000000000000000
2 -76.20000000000000284 -418.25000000000000000 25.39999999999999858 1.00000000000000000 0.00000000000000000 -0.00000000000000000 0.00000000000000000 0.00000000000000000 1.00000000000000000 0.00000000000000000 -1.00000000000000000 0.00000000000000000 6.50000000000000000
2 -76.20000000000000284 -450.00000000000000000 25.39999999999999858 1.00000000000000000 0.00000000000000000 -0.00000000000000000 0.00000000000000000 0.00000000000000000 1.00000000000000000 0.00000000000000000 -1.00000000000000000 0.00000000000000000 6.50000000000000000
2 -76.20000000000000284 -481.75000000000000000 25.39999999999999858 1.00000000000000000 0.00000000000000000 -0.00000000000000000 0.00000000000000000 0.00000000000000000 1.00000000000000000 0.00000000000000000 -1.00000000000000000 0.00000000000000000 6.50000000000000000
2 -76.20000000000000284 -678.25000000000000000 25.39999999999999858 1.00000000000000000 0.00000000000000000 -0.00000000000000000 0.00000000000000000 0.00000000000000000 1.00000000000000000 0.00000000000000000 -1.00000000000000000 0.00000000000000000 6.50000000000000000
2 -76.20000000000000284 -710.00000000000000000 25.39999999999999858 1.00000000000000000 0.00000000000000000 -0.00000000000000000 0.00000000000000000 0.00000000000000000 1.00000000000000000 0.00000000000000000 -1.00000000000000000 0.00000000000000000 6.50000000000000000
2 -76.20000000000000284 -741.75000000000000000 25.39999999999999858 1.00000000000000000 0.00000000000000000 -0.00000000000000000 0.00000000000000000 0.00000000000000000 1.00000000000000000 0.00000000000000000 -1.00000000000000000 0.00000000000000000 6.50000000000000000
1 -69.85000000000000853 -1100.00000000000000000 0.00000000000000000 0.00000000000000000 1.00000000000000000 0.00000000000000000 
1 -69.85000000000000853 -1100.00000000000000000 0.00000000000000000 -1.00000000000000000 0.00000000000000000 0.00000000000000000 
1 -69.85000000000000853 -1100.00000000000000000 0.00000000000000000 -1.00000000000000000 0.00000000000000000 0.00000000000000000 
1 -76.20000000000000284 -1100.00000000000000000 50.79999999999999716 1.00000000000000000 0.00000000000000000 0.00000000000000000 
1 76.20000000000000284 -1100.00000000000000000 50.79999999999999716 0.00000000000000000 0.00000000000000000 -1.00000000000000000 
1 76.20000000000000284 -1100.00000000000000000 0.00000000000000000 -1.00000000000000000 0.00000000000000000 0.00000000000000000 
1 69.85000000000000853 -1100.00000000000000000 0.00000000000000000 0.00000000000000000 0.00000000000000000 1.00000000000000000 
1 69.85000000000000853 -1100.00000000000000000 44.44999999999999574 -1.00000000000000000 0.00000000000000000 0.00000000000000000 
1 -69.85000000000000853 -1100.00000000000000000 44.44999999999999574 0.00000000000000000 0.00000000000000000 -1.00000000000000000 
1 -76.20000000000000284 -1100.00000000000000000 50.79999999999999716 1.00000000000000000 0.00000000000000000 0.00000000000000000 
1 76.20000000000000284 -1100.00000000000000000 50.79999999999999716 0.00000000000000000 0.00000000000000000 -1.00000000000000000 
1 76.20000000000000284 -1100.00000000000000000 0.00000000000000000 -1.00000000000000000 0.00000000000000000 0.00000000000000000 
1 69.85000000000000853 -1100.00000000000000000 0.00000000000000000 0.00000000000000000 0.00000000000000000 1.00000000000000000 
1 69.85000000000000853 -1100.00000000000000000 44.44999999999999574 -1.00000000000000000 0.00000000000000000 0.00000000000000000 
1 -69.85000000000000853 -1100.00000000000000000 44.44999999999999574 0.00000000000000000 0.00000000000000000 -1.00000000000000000 
1 76.20000000000000284 -1100.00000000000000000 50.79999999999999716 0.00000000000000000 1.00000000000000000 0.00000000000000000 
2 -32.00000000000000000 714.37500000000000000 50.79999999999999716 0.00000000000000000 0.00000000000000000 1.00000000000000000 1.00000000000000000 0.00000000000000000 0.00000000000000000 0.00000000000000000 1.00000000000000000 0.00000000000000000 6.50000000000000000
2 -32.00000000000000000 587.37500000000000000 50.79999999999999716 0.00000000000000000 0.00000000000000000 1.00000000000000000 1.00000000000000000 0.00000000000000000 0.00000000000000000 0.00000000000000000 1.00000000000000000 0.00000000000000000 6.50000000000000000
2 -31.75000000000000000 470.63749999999998863 50.79999999999999716 0.00000000000000000 0.00000000000000000 1.00000000000000000 1.00000000000000000 0.00000000000000000 0.00000000000000000 0.00000000000000000 1.00000000000000000 0.00000000000000000 6.50000000000000000
2 -31.75000000000000000 429.36250000000001137 50.79999999999999716 0.00000000000000000 0.00000000000000000 1.00000000000000000 1.00000000000000000 0.00000000000000000 0.00000000000000000 0.00000000000000000 1.00000000000000000 0.00000000000000000 6.50000000000000000
2 6.34999999999990905 730.63750000000004547 50.79999999999999716 0.00000000000000000 0.00000000000000000 1.00000000000000000 1.00000000000000000 0.00000000000000000 0.00000000000000000 0.00000000000000000 1.00000000000000000 0.00000000000000000 6.50000000000000000
2 6.34999999999990905 689.36249999999995453 50.79999999999999716 0.00000000000000000 0.00000000000000000 1.00000000000000000 1.00000000000000000 0.00000000000000000 0.00000000000000000 0.00000000000000000 1.00000000000000000 0.00000000000000000 6.50000000000000000
2 -31.75000000000000000 -429.36250000000001137 50.79999999999999716 0.00000000000000000 0.00000000000000000 1.00000000000000000 1.00000000000000000 0.00000000000000000 0.00000000000000000 0.00000000000000000 1.00000000000000000 0.00000000000000000 6.50000000000000000
2 -31.75000000000000000 -470.63749999999998863 50.79999999999999716 0.00000000000000000 0.00000000000000000 1.00000000000000000 1.00000000000000000 0.00000000000000000 0.00000000000000000 0.00000000000000000 1.00000000000000000 0.00000000000000000 6.50000000000000000
2 -32.00000000000000000 -587.37500000000000000 50.79999999999999716 0.00000000000000000 0.00000000000000000 1.00000000000000000 1.00000000000000000 0.00000000000000000 0.00000000000000000 0.00000000000000000 1.00000000000000000 0.00000000000000000 6.50000000000000000
2 -32.00000000000000000 -714.37500000000000000 50.79999999999999716 0.00000000000000000 0.00000000000000000 1.00000000000000000 1.00000000000000000 0.00000000000000000 0.00000000000000000 0.00000000000000000 1.00000000000000000 0.00000000000000000 6.50000000000000000
2 6.34999999999990905 -689.36249999999995453 50.79999999999999716 0.00000000000000000 0.00000000000000000 1.00000000000000000 1.00000000000000000 0.00000000000000000 0.00000000000000000 0.00000000000000000 1.00000000000000000 0.00000000000000000 6.50000000000000000
2 6.34999999999990905 -730.63750000000004547 50.79999999999999716 0.00000000000000000 0.00000000000000000 1.00000000000000000 1.00000000000000000 0.00000000000000000 0.00000000000000000 0.00000000000000000 1.00000000000000000 0.00000000000000000 6.50000000000000000
2 -69.85000000000000853 741.75000000000000000 25.39999999999999858 1.00000000000000000 0.00000000000000000 -0.00000000000000000 0.00000000000000000 0.00000000000000000 1.00000000000000000 0.00000000000000000 -1.00000000000000000 0.00000000000000000 6.50000000000000000
1 -77.20000000000000284 741.75000000000000000 31.89999999999999858 1.00000000000000000 0.00000000000000000 0.00000000000000000 
2 -69.85000000000000853 710.00000000000000000 25.39999999999999858 1.00000000000000000 0.00000000000000000 -0.00000000000000000 0.00000000000000000 0.00000000000000000 1.00000000000000000 0.00000000000000000 -1.00000000000000000 0.00000000000000000 6.50000000000000000
1 -77.20000000000000284 710.00000000000000000 31.89999999999999858 1.00000000000000000 0.00000000000000000 0.00000000000000000 
2 -69.85000000000000853 678.25000000000000000 25.39999999999999858 1.00000000000000000 0.00000000000000000 -0.00000000000000000 0.00000000000000000 0.00000000000000000 1.00000000000000000 0.00000000000000000 -1.00000000000000000 0.00000000000000000 6.50000000000000000
1 -77.20000000000000284 678.25000000000000000 31.89999999999999858 1.00000000000000000 0.00000000000000000 0.00000000000000000 
2 -69.85000000000000853 481.75000000000000000 25.39999999999999858 1.00000000000000000 0.00000000000000000 -0.00000000000000000 0.00000000000000000 0.00000000000000000 1.00000000000000000 0.00000000000000000 -1.00000000000000000 0.00000000000000000 6.50000000000000000
1 -77.20000000000000284 481.75000000000000000 31.89999999999999858 1.00000000000000000 0.00000000000000000 0.00000000000000000 
2 -69.85000000000000853 450.00000000000000000 25.39999999999999858 1.00000000000000000 0.00000000000000000 -0.00000000000000000 0.00000000000000000 0.00000000000000000 1.00000000000000000 0.00000000000000000 -1.00000000000000000 0.00000000000000000 6.50000000000000000
1 -77.20000000000000284 450.00000000000000000 31.89999999999999858 1.00000000000000000 0.00000000000000000 0.00000000000000000 
2 -69.85000000000000853 418.25000000000000000 25.39999999999999858 1.00000000000000000 0.00000000000000000 -0.00000000000000000 0.00000000000000000 0.00000000000000000 1.00000000000000000 0.00000000000000000 -1.00000000000000000 0.00000000000000000 6.50000000000000000
1 -77.20000000000000284 418.25000000000000000 31.89999999999999858 1.00000000000000000 0.00000000000000000 0.00000000000000000 
2 2323.80000000000018190 241.30000000000001137 558.45000000000004547 1.00000000000000000 0.00000000000000000 -0.00000000000000000 0.00000000000000000 0.00000000000000000 1.00000000000000000 0.00000000000000000 -1.00000000000000000 0.00000000000000000 6.50000000000000000
2 2330.15000000000009095 241.30000000000001137 558.45000000000004547 1.00000000000000000 0.00000000000000000 -0.00000000000000000 0.00000000000000000 0.00000000000000000 1.00000000000000000 0.00000000000000000 -1.00000000000000000 0.00000000000000000 6.50000000000000000
2 2330.15000000000009095 241.30000000000001137 558.45000000000004547 1.00000000000000000 0.00000000000000000 -0.00000000000000000 0.00000000000000000 0.00000000000000000 1.00000000000000000 0.00000000000000000 -1.00000000000000000 0.00000000000000000 6.50000000000000000
2 2330.15000000000009095 241.30000000000001137 558.45000000000004547 1.00000000000000000 0.00000000000000000 -0.00000000000000000 0.00000000000000000 0.00000000000000000 1.00000000000000000 0.00000000000000000 -1.00000000000000000 0.00000000000000000 6.50000000000000000
1 2322.80000000000018190 241.30000000000001137 564.95000000000004547 1.00000000000000000 0.00000000000000000 0.00000000000000000 
2 2330.15000000000009095 203.19999999999998863 558.45000000000004547 1.00000000000000000 0.00000000000000000 -0.00000000000000000 0.00000000000000000 0.00000000000000000 1.00000000000000000 0.00000000000000000 -1.00000000000000000 0.00000000000000000 6.50000000000000000
1 2322.80000000000018190 203.19999999999998863 564.95000000000004547 1.00000000000000000 0.00000000000000000 0.00000000000000000 
2 -69.85000000000000853 -203.19999999999998863 25.39999999999997726 1.00000000000000000 0.00000000000000000 -0.00000000000000000 0.00000000000000000 0.00000000000000000 1.00000000000000000 0.00000000000000000 -1.00000000000000000 0.00000000000000000 6.50000000000000000
1 2322.80000000000018190 -203.19999999999998863 564.94999999999993179 1.00000000000000000 0.00000000000000000 0.00000000000000000 
2 -69.85000000000000853 -241.30000000000001137 25.39999999999997726 1.00000000000000000 0.00000000000000000 -0.00000000000000000 0.00000000000000000 0.00000000000000000 1.00000000000000000 0.00000000000000000 -1.00000000000000000 0.00000000000000000 6.50000000000000000
1 2322.80000000000018190 -241.30000000000001137 564.94999999999993179 1.00000000000000000 0.00000000000000000 0.00000000000000000 
2 -69.85000000000000853 -418.25000000000000000 25.39999999999999858 1.00000000000000000 0.00000000000000000 -0.00000000000000000 0.00000000000000000 0.00000000000000000 1.00000000000000000 0.00000000000000000 -1.00000000000000000 0.00000000000000000 6.50000000000000000
1 -77.20000000000000284 -418.25000000000000000 31.89999999999999858 1.00000000000000000 0.00000000000000000 0.00000000000000000 
2 -69.85000000000000853 -450.00000000000000000 25.39999999999999858 1.00000000000000000 0.00000000000000000 -0.00000000000000000 0.00000000000000000 0.00000000000000000 1.00000000000000000 0.00000000000000000 -1.00000000000000000 0.00000000000000000 6.50000000000000000
1 -77.20000000000000284 -450.00000000000000000 31.89999999999999858 1.00000000000000000 0.00000000000000000 0.00000000000000000 
2 -69.85000000000000853 -481.75000000000000000 25.39999999999999858 1.00000000000000000 0.00000000000000000 -0.00000000000000000 0.00000000000000000 0.00000000000000000 1.00000000000000000 0.00000000000000000 -1.00000000000000000 0.00000000000000000 6.50000000000000000
1 -77.20000000000000284 -481.75000000000000000 31.89999999999999858 1.00000000000000000 0.00000000000000000 0.00000000000000000 
2 -69.85000000000000853 -678.25000000000000000 25.39999999999999858 1.00000000000000000 0.00000000000000000 -0.00000000000000000 0.00000000000000000 0.00000000000000000 1.00000000000000000 0.00000000000000000 -1.00000000000000000 0.00000000000000000 6.50000000000000000
1 -77.20000000000000284 -678.25000000000000000 31.89999999999999858 1.00000000000000000 0.00000000000000000 0.00000000000000000 
2 -69.85000000000000853 -710.00000000000000000 25.39999999999999858 1.00000000000000000 0.00000000000000000 -0.00000000000000000 0.00000000000000000 0.00000000000000000 1.00000000000000000 0.00000000000000000 -1.00000000000000000 0.00000000000000000 6.50000000000000000
1 -77.20000000000000284 -710.00000000000000000 31.89999999999999858 1.00000000000000000 0.00000000000000000 0.00000000000000000 
2 -69.85000000000000853 -741.75000000000000000 25.39999999999999858 1.00000000000000000 0.00000000000000000 -0.00000000000000000 0.00000000000000000 0.00000000000000000 1.00000000000000000 0.00000000000000000 -1.00000000000000000 0.00000000000000000 6.50000000000000000
1 -77.20000000000000284 -741.75000000000000000 31.89999999999999858 1.00000000000000000 0.00000000000000000 0.00000000000000000 
1 -69.85000000000000853 -1100.00000000000000000 44.44999999999999574 0.00000000000000000 1.00000000000000000 0.00000000000000000 
2 -69.85000000000000853 254.00000000000000000 25.39999999999997726 1.00000000000000000 0.00000000000000000 -0.00000000000000000 0.00000000000000000 0.00000000000000000 1.00000000000000000 0.00000000000000000 -1.00000000000000000 0.00000000000000000 6.50000000000000000
2 -69.85000000000000853 254.00000000000000000 25.39999999999997726 1.00000000000000000 0.00000000000000000 -0.00000000000000000 0.00000000000000000 0.00000000000000000 1.00000000000000000 0.00000000000000000 -1.00000000000000000 0.00000000000000000 6.50000000000000000
2 -69.85000000000000853 292.10000000000002274 25.39999999999997726 1.00000000000000000 0.00000000000000000 -0.00000000000000000 0.00000000000000000 0.00000000000000000 1.00000000000000000 0.00000000000000000 -1.00000000000000000 0.00000000000000000 6.50000000000000000
1 76.20000000000000284 -1100.00000000000000000 0.00000000000000000 0.00000000000000000 1.00000000000000000 0.00000000000000000 
1 69.85000000000000853 -1100.00000000000000000 0.00000000000000000 0.00000000000000000 1.00000000000000000 0.00000000000000000 
1 69.85000000000000853 -1100.00000000000000000 44.44999999999999574 0.00000000000000000 1.00000000000000000 0.00000000000000000 
2 6.34999999999990905 730.63750000000004547 44.44999999999999574 0.00000000000000000 0.00000000000000000 1.00000000000000000 1.00000000000000000 0.00000000000000000 0.00000000000000000 0.00000000000000000 1.00000000000000000 0.00000000000000000 6.50000000000000000
2 6.34999999999990905 689.36249999999995453 44.44999999999999574 0.00000000000000000 0.00000000000000000 1.00000000000000000 1.00000000000000000 0.00000000000000000 0.00000000000000000 0.00000000000000000 1.00000000000000000 0.00000000000000000 6.50000000000000000
2 -32.00000000000000000 714.37500000000000000 44.44999999999999574 0.00000000000000000 0.00000000000000000 1.00000000000000000 1.00000000000000000 0.00000000000000000 0.00000000000000000 0.00000000000000000 1.00000000000000000 0.00000000000000000 6.50000000000000000
2 -32.00000000000000000 587.37500000000000000 44.44999999999999574 0.00000000000000000 0.00000000000000000 1.00000000000000000 1.00000000000000000 0.00000000000000000 0.00000000000000000 0.00000000000000000 1.00000000000000000 0.00000000000000000 6.50000000000000000
2 -31.75000000000000000 470.63749999999998863 44.44999999999999574 0.00000000000000000 0.00000000000000000 1.00000000000000000 1.00000000000000000 0.00000000000000000 0.00000000000000000 0.00000000000000000 1.00000000000000000 0.00000000000000000 6.50000000000000000
2 -31.75000000000000000 429.36250000000001137 44.44999999999999574 0.00000000000000000 0.00000000000000000 1.00000000000000000 1.00000000000000000 0.00000000000000000 0.00000000000000000 0.00000000000000000 1.00000000000000000 0.00000000000000000 6.50000000000000000
2 6.34999999999990905 -689.36249999999995453 44.44999999999999574 0.00000000000000000 0.00000000000000000 1.00000000000000000 1.00000000000000000 0.00000000000000000 0.00000000000000000 0.00000000000000000 1.00000000000000000 0.00000000000000000 6.50000000000000000
2 6.34999999999990905 -730.63750000000004547 44.44999999999999574 0.00000000000000000 0.00000000000000000 1.00000000000000000 1.00000000000000000 0.00000000000000000 0.00000000000000000 0.00000000000000000 1.00000000000000000 0.00000000000000000 6.50000000000000000
2 -31.75000000000000000 -429.36250000000001137 44.44999999999999574 0.00000000000000000 0.00000000000000000 1.00000000000000000 1.00000000000000000 0.00000000000000000 0.00000000000000000 0.00000000000000000 1.00000000000000000 0.00000000000000000 6.50000000000000000
2 -31.75000000000000000 -470.63749999999998863 44.44999999999999574 0.00000000000000000 0.00000000000000000 1.00000000000000000 1.00000000000000000 0.00000000000000000 0.00000000000000000 0.00000000000000000 1.00000000000000000 0.00000000000000000 6.50000000000000000
2 -32.00000000000000000 -587.37500000000000000 44.44999999999999574 0.00000000000000000 0.00000000000000000 1.00000000000000000 1.00000000000000000 0.00000000000000000 0.00000000000000000 0.00000000000000000 1.00000000000000000 0.00000000000000000 6.50000000000000000
2 -32.00000000000000000 -714.37500000000000000 44.44999999999999574 0.00000000000000000 0.00000000000000000 1.00000000000000000 1.00000000000000000 0.00000000000000000 0.00000000000000000 0.00000000000000000 1.00000000000000000 0.00000000000000000 6.50000000000000000
1 2374.50000000000000000 714.37500000000000000 576.50000000000000000 0.00000000000000000 0.00000000000000000 1.00000000000000000 
1 2374.50000000000000000 587.37500000000000000 576.50000000000000000 0.00000000000000000 0.00000000000000000 1.00000000000000000 
1 2374.75000000000000000 470.63749999999998863 576.50000000000000000 0.00000000000000000 0.00000000000000000 1.00000000000000000 
1 2374.75000000000000000 429.36250000000001137 576.50000000000000000 0.00000000000000000 0.00000000000000000 1.00000000000000000 
1 2412.84999999999990905 730.63750000000004547 576.50000000000000000 0.00000000000000000 0.00000000000000000 1.00000000000000000 
1 2412.84999999999990905 689.36249999999995453 576.50000000000000000 0.00000000000000000 0.00000000000000000 1.00000000000000000 
1 2374.75000000000000000 -429.36250000000001137 576.50000000000000000 0.00000000000000000 0.00000000000000000 1.00000000000000000 
1 2374.75000000000000000 -470.63749999999998863 576.50000000000000000 0.00000000000000000 0.00000000000000000 1.00000000000000000 
1 2374.50000000000000000 -587.37500000000000000 576.50000000000000000 0.00000000000000000 0.00000000000000000 1.00000000000000000 
1 2374.50000000000000000 -714.37500000000000000 576.50000000000000000 0.00000000000000000 0.00000000000000000 1.00000000000000000 
1 2412.84999999999990905 -689.36249999999995453 576.50000000000000000 0.00000000000000000 0.00000000000000000 1.00000000000000000 
1 2412.84999999999990905 -730.63750000000004547 576.50000000000000000 0.00000000000000000 0.00000000000000000 1.00000000000000000 
Polygon3D 0
PolygonOnTriangulations 0
Surfaces 42
1 -76.20000000000000284 -1100.00000000000000000 0.00000000000000000 1.00000000000000000 0.00000000000000000 0.00000000000000000 0.00000000000000000 0.00000000000000000 1.00000000000000000 0.00000000000000000 -1.00000000000000000 0.00000000000000000 
2 -77.20000000000000284 741.75000000000000000 25.39999999999999858 1.00000000000000000 0.00000000000000000 0.00000000000000000 0.00000000000000000 0.00000000000000000 1.00000000000000000 0.00000000000000000 -1.00000000000000000 0.00000000000000000 6.50000000000000000
2 -77.20000000000000284 710.00000000000000000 25.39999999999999858 1.00000000000000000 0.00000000000000000 0.00000000000000000 0.00000000000000000 0.00000000000000000 1.00000000000000000 0.00000000000000000 -1.00000000000000000 0.00000000000000000 6.50000000000000000
2 -77.20000000000000284 678.25000000000000000 25.39999999999999858 1.00000000000000000 0.00000000000000000 0.00000000000000000 0.00000000000000000 0.00000000000000000 1.00000000000000000 0.00000000000000000 -1.00000000000000000 0.00000000000000000 6.50000000000000000
2 -77.20000000000000284 481.75000000000000000 25.39999999999999858 1.00000000000000000 0.00000000000000000 0.00000000000000000 0.00000000000000000 0.00000000000000000 1.00000000000000000 0.00000000000000000 -1.00000000000000000 0.00000000000000000 6.50000000000000000
2 -77.20000000000000284 450.00000000000000000 25.39999999999999858 1.00000000000000000 0.00000000000000000 0.00000000000000000 0.00000000000000000 0.00000000000000000 1.00000000000000000 0.00000000000000000 -1.00000000000000000 0.00000000000000000 6.50000000000000000
2 -77.20000000000000284 418.25000000000000000 25.39999999999999858 1.00000000000000000 0.00000000000000000 0.00000000000000000 0.00000000000000000 0.00000000000000000 1.00000000000000000 0.00000000000000000 -1.00000000000000000 0.00000000000000000 6.50000000000000000
2 2322.80000000000018190 241.30000000000001137 558.45000000000004547 1.00000000000000000 0.00000000000000000 0.00000000000000000 0.00000000000000000 0.00000000000000000 1.00000000000000000 0.00000000000000000 -1.00000000000000000 0.00000000000000000 6.50000000000000000
2 2322.80000000000018190 203.19999999999998863 558.45000000000004547 1.00000000000000000 0.00000000000000000 0.00000000000000000 0.00000000000000000 0.00000000000000000 1.00000000000000000 0.00000000000000000 -1.00000000000000000 0.00000000000000000 6.50000000000000000
2 2322.80000000000018190 -203.19999999999998863 558.44999999999993179 1.00000000000000000 0.00000000000000000 0.00000000000000000 0.00000000000000000 0.00000000000000000 1.00000000000000000 0.00000000000000000 -1.00000000000000000 0.00000000000000000 6.50000000000000000
2 2322.80000000000018190 -241.30000000000001137 558.44999999999993179 1.00000000000000000 0.00000000000000000 0.00000000000000000 0.00000000000000000 0.00000000000000000 1.00000000000000000 0.00000000000000000 -1.00000000000000000 0.00000000000000000 6.50000000000000000
2 -77.20000000000000284 -418.25000000000000000 25.39999999999999858 1.00000000000000000 0.00000000000000000 0.00000000000000000 0.00000000000000000 0.00000000000000000 1.00000000000000000 0.00000000000000000 -1.00000000000000000 0.00000000000000000 6.50000000000000000
2 -77.20000000000000284 -450.00000000000000000 25.39999999999999858 1.00000000000000000 0.00000000000000000 0.00000000000000000 0.00000000000000000 0.00000000000000000 1.00000000000000000 0.00000000000000000 -1.00000000000000000 0.00000000000000000 6.50000000000000000
2 -77.20000000000000284 -481.75000000000000000 25.39999999999999858 1.00000000000000000 0.00000000000000000 0.00000000000000000 0.00000000000000000 0.00000000000000000 1.00000000000000000 0.00000000000000000 -1.00000000000000000 0.00000000000000000 6.50000000000000000
2 -77.20000000000000284 -678.25000000000000000 25.39999999999999858 1.00000000000000000 0.00000000000000000 0.00000000000000000 0.00000000000000000 0.00000000000000000 1.00000000000000000 0.00000000000000000 -1.00000000000000000 0.00000000000000000 6.50000000000000000
2 -77.20000000000000284 -710.00000000000000000 25.39999999999999858 1.00000000000000000 0.00000000000000000 0.00000000000000000 0.00000000000000000 0.00000000000000000 1.00000000000000000 0.00000000000000000 -1.00000000000000000 0.00000000000000000 6.50000000000000000
2 -77.20000000000000284 -741.75000000000000000 25.39999999999999858 1.00000000000000000 0.00000000000000000 0.00000000000000000 0.00000000000000000 0.00000000000000000 1.00000000000000000 0.00000000000000000 -1.00000000000000000 0.00000000000000000 6.50000000000000000
1 -69.85000000000000853 -1100.00000000000000000 0.00000000000000000 0.00000000000000000 0.00000000000000000 1.00000000000000000 -1.00000000000000000 0.00000000000000000 0.00000000000000000 0.00000000000000000 -1.00000000000000000 0.00000000000000000 
1 -0.00000000000000247 -1099.99999999999954525 37.36730769230766924 0.00000000000000000 1.00000000000000000 0.00000000000000000 0.00000000000000000 0.00000000000000000 1.00000000000000000 1.00000000000000000 0.00000000000000000 0.00000000000000000 
1 -0.00000000000000247 -1099.99999999999954525 37.36730769230766924 0.00000000000000000 1.00000000000000000 0.00000000000000000 0.00000000000000000 0.00000000000000000 1.00000000000000000 1.00000000000000000 0.00000000000000000 0.00000000000000000 
1 -76.20000000000000284 -1100.00000000000000000 50.79999999999999716 0.00000000000000000 0.00000000000000000 -1.00000000000000000 1.00000000000000000 0.00000000000000000 0.00000000000000000 0.00000000000000000 -1.00000000000000000 0.00000000000000000 
2 2368.00000000000000000 714.37500000000000000 576.50000000000000000 0.00000000000000000 0.00000000000000000 1.00000000000000000 1.00000000000000000 0.00000000000000000 0.00000000000000000 0.00000000000000000 1.00000000000000000 0.00000000000000000 6.50000000000000000
2 2368.00000000000000000 587.37500000000000000 576.50000000000000000 0.00000000000000000 0.00000000000000000 1.00000000000000000 1.00000000000000000 0.00000000000000000 0.00000000000000000 0.00000000000000000 1.00000000000000000 0.00000000000000000 6.50000000000000000
2 2368.25000000000000000 470.63749999999998863 576.50000000000000000 0.00000000000000000 0.00000000000000000 1.00000000000000000 1.00000000000000000 0.00000000000000000 0.00000000000000000 0.00000000000000000 1.00000000000000000 0.00000000000000000 6.50000000000000000
2 2368.25000000000000000 429.36250000000001137 576.50000000000000000 0.00000000000000000 0.00000000000000000 1.00000000000000000 1.00000000000000000 0.00000000000000000 0.00000000000000000 0.00000000000000000 1.00000000000000000 0.00000000000000000 6.50000000000000000
2 2406.34999999999990905 730.63750000000004547 576.50000000000000000 0.00000000000000000 0.00000000000000000 1.00000000000000000 1.00000000000000000 0.00000000000000000 0.00000000000000000 0.00000000000000000 1.00000000000000000 0.00000000000000000 6.50000000000000000
2 2406.34999999999990905 689.36249999999995453 576.50000000000000000 0.00000000000000000 0.00000000000000000 1.00000000000000000 1.00000000000000000 0.00000000000000000 0.00000000000000000 0.00000000000000000 1.00000000000000000 0.00000000000000000 6.50000000000000000
2 2368.25000000000000000 -429.36250000000001137 576.50000000000000000 0.00000000000000000 0.00000000000000000 1.00000000000000000 1.00000000000000000 0.00000000000000000 0.00000000000000000 0.00000000000000000 1.00000000000000000 0.00000000000000000 6.50000000000000000
2 2368.25000000000000000 -470.63749999999998863 576.50000000000000000 0.00000000000000000 0.00000000000000000 1.00000000000000000 1.00000000000000000 0.00000000000000000 0.00000000000000000 0.00000000000000000 1.00000000000000000 0.00000000000000000 6.50000000000000000
2 2368.00000000000000000 -587.37500000000000000 576.50000000000000000 0.00000000000000000 0.00000000000000000 1.00000000000000000 1.00000000000000000 0.00000000000000000 0.00000000000000000 0.00000000000000000 1.00000000000000000 0.00000000000000000 6.50000000000000000
2 2368.00000000000000000 -714.37500000000000000 576.50000000000000000 0.00000000000000000 0.00000000000000000 1.00000000000000000 1.00000000000000000 0.00000000000000000 0.00000000000000000 0.00000000000000000 1.00000000000000000 0.00000000000000000 6.50000000000000000
2 2406.34999999999990905 -689.36249999999995453 576.50000000000000000 0.00000000000000000 0.00000000000000000 1.00000000000000000 1.00000000000000000 0.00000000000000000 0.00000000000000000 0.00000000000000000 1.00000000000000000 0.00000000000000000 6.50000000000000000
2 2406.34999999999990905 -730.63750000000004547 576.50000000000000000 0.00000000000000000 0.00000000000000000 1.00000000000000000 1.00000000000000000 0.00000000000000000 0.00000000000000000 0.00000000000000000 1.00000000000000000 0.00000000000000000 6.50000000000000000
1 -76.20000000000000284 -1100.00000000000000000 0.00000000000000000 1.00000000000000000 0.00000000000000000 0.00000000000000000 0.00000000000000000 0.00000000000000000 1.00000000000000000 0.00000000000000000 -1.00000000000000000 0.00000000000000000 
1 -76.20000000000000284 -1100.00000000000000000 0.00000000000000000 1.00000000000000000 0.00000000000000000 0.00000000000000000 0.00000000000000000 0.00000000000000000 1.00000000000000000 0.00000000000000000 -1.00000000000000000 0.00000000000000000 
1 -69.85000000000000853 -1100.00000000000000000 44.44999999999999574 -1.00000000000000000 0.00000000000000000 0.00000000000000000 0.00000000000000000 0.00000000000000000 -1.00000000000000000 -0.00000000000000000 -1.00000000000000000 -0.00000000000000000 
1 76.20000000000000284 -1100.00000000000000000 50.79999999999999716 -1.00000000000000000 0.00000000000000000 0.00000000000000000 0.00000000000000000 0.00000000000000000 -1.00000000000000000 -0.00000000000000000 -1.00000000000000000 -0.00000000000000000 
1 76.20000000000000284 -1100.00000000000000000 0.00000000000000000 0.00000000000000000 0.00000000000000000 1.00000000000000000 -1.00000000000000000 0.00000000000000000 0.00000000000000000 0.00000000000000000 -1.00000000000000000 0.00000000000000000 
1 69.85000000000000853 -1100.00000000000000000 0.00000000000000000 1.00000000000000000 0.00000000000000000 0.00000000000000000 0.00000000000000000 0.00000000000000000 1.00000000000000000 0.00000000000000000 -1.00000000000000000 0.00000000000000000 
1 69.85000000000000853 -1100.00000000000000000 44.44999999999999574 0.00000000000000000 0.00000000000000000 1.00000000000000000 -1.00000000000000000 0.00000000000000000 0.00000000000000000 0.00000000000000000 -1.00000000000000000 0.00000000000000000 
1 -69.85000000000000853 -1100.00000000000000000 44.44999999999999574 -1.00000000000000000 0.00000000000000000 0.00000000000000000 0.00000000000000000 0.00000000000000000 -1.00000000000000000 -0.00000000000000000 -1.00000000000000000 -0.00000000000000000 
1 -69.85000000000000853 -1100.00000000000000000 44.44999999999999574 -1.00000000000000000 0.00000000000000000 0.00000000000000000 0.00000000000000000 0.00000000000000000 -1.00000000000000000 -0.00000000000000000 -1.00000000000000000 -0.00000000000000000 
Triangulations 0

TShapes 345
Ve
0.000000100000000
-76.200000000000003 -1100.000000000000000 0.000000000000000
0 0

0101101
*
Ve
0.000000100000000
-76.200000000000003 1100.000000000000000 0.000000000000000
0 0

0101101
*
Ed
 0.000000100000000 1 1 0
1  1 0 0.000000000000000 2200.000000000000000
0

0101000
+345 9 -344 9 *
Ve
0.000000100000000
-76.200000000000003 -1100.000000000000000 50.799999999999997
0 0

0101101
*
Ed
 0.000000100000000 1 1 0
1  2 0 0.000000000000000 50.799999999999997
0

0101000
+345 9 -342 9 *
Ve
0.000000100000000
-76.200000000000003 1100.000000000000000 50.799999999999997
0 0

0101101
*
Ed
 0.000000100000000 1 1 0
1  3 0 0.000000000000000 50.799999999999997
0

0101000
+344 12 -340 12 *
Ed
 0.000000100000000 1 1 0
1  4 0 0.000000000000000 2200.000000000000000
0

0101000
+342 9 -340 9 *
Wi

0101100
+343 7 -341 7 +339 11 -338 7 *
Ve
0.000000100000000
-76.200000000000003 741.750000000000000 31.899999999999999
0 0

0101101
*
Ed
 0.000000100000000 1 1 0
1  5 0 0.000000000000000 6.283185307179586
2  1 2 0 0.000000000000000 6.283185307179586
0

0101100
+336 9 -336 9 *
Wi

0101100
-335 7 *
Ve
0.000000100000000
-76.200000000000003 710.000000000000000 31.899999999999999
0 0

0101101
*
Ed
 0.000000100000000 1 1 0
1  6 0 0.000000000000000 6.283185307179586
2  2 3 0 0.000000000000000 6.283185307179586
0

0101100
+333 9 -333 9 *
Wi

0101100
-332 7 *
Ve
0.000000100000000
-76.200000000000003 678.250000000000000 31.899999999999999
0 0

0101101
*
Ed
 0.000000100000000 1 1 0
1  7 0 0.000000000000000 6.283185307179586
2  3 4 0 0.000000000000000 6.283185307179586
0

0101100
+330 9 -330 9 *
Wi

0101100
-329 7 *
Ve
0.000000100000000
-76.200000000000003 481.750000000000000 31.899999999999999
0 0

0101101
*
Ed
 0.000000100000000 1 1 0
1  8 0 0.000000000000000 6.283185307179586
2  4 5 0 0.000000000000000 6.283185307179586
0

0101100
+327 9 -327 9 *
Wi

0101100
-326 7 *
Ve
0.000000100000000
-76.200000000000003 450.000000000000000 31.899999999999999
0 0

0101101
*
Ed
 0.000000100000000 1 1 0
1  9 0 0.000000000000000 6.283185307179586
2  5 6 0 0.000000000000000 6.283185307179586
0

0101100
+324 9 -324 9 *
Wi

0101100
-323 7 *
Ve
0.000000100000000
-76.200000000000003 418.250000000000000 31.899999999999999
0 0

0101101
*
Ed
 0.000000100000000 1 1 0
1  10 0 0.000000000000000 6.283185307179586
2  6 7 0 0.000000000000000 6.283185307179586
0

0101100
+321 9 -321 9 *
Wi

0101100
-320 7 *
Ve
0.000000100000185
-76.199999999999818 292.100000000000023 31.899999999999977
0 0

0101101
*
Ed
 0.000000100000127 1 1 0
1  11 0 0.000000000000000 6.283185307179586
0

0101000
+318 14 -318 14 *
Wi

0101100
-317 13 *
Ve
0.000000100000185
-76.199999999999818 254.000000000000000 31.899999999999977
0 0

0101101
*
Ve
0.000000100006015
-76.199999999999818 247.650000000003104 26.788344337705666
0 0

0101101
*
Ed
 0.000000100000127 1 1 0
1  12 0 0.000000000000000 1.355546561367698
0

0101000
+315 14 -314 14 *
Ve
0.000000100000000
-76.199999999999818 241.300000000000011 31.900000000000091
0 0

0101101
*
Ed
 0.000000100000000 1 1 0
1  13 0 4.927638745811668 6.283185307179586
2  7 8 0 4.927638745811668 6.283185307179586
0

0101000
+314 15 -312 15 *
Ve
0.000000100006070
-76.199999999999818 247.650000000003104 24.011655662294288
0 0

0101101
*
Ed
 0.000000100000000 1 1 0
1  14 0 0.000000000000000 4.497139214957677
2  8 8 0 0.000000000000000 4.497139214957677
0

0101000
+312 15 -310 15 *
Ed
 0.000000100000127 1 1 0
1  15 0 1.786046092222096 6.283185307179586
0

0101000
+310 14 -315 14 *
Wi

0101100
-313 13 -311 0 -309 0 -308 13 *
Ve
0.000000100000000
-76.199999999999818 203.199999999999989 31.900000000000091
0 0

0101101
*
Ed
 0.000000100000000 1 1 0
1  16 0 0.000000000000000 6.283185307179586
2  9 9 0 0.000000000000000 6.283185307179586
0

0101100
+306 15 -306 15 *
Wi

0101100
-305 0 *
Ve
0.000000100000185
-76.200000000000003 -203.199999999999989 31.899999999999977
0 0

0101101
*
Ed
 0.000000100000000 1 1 0
1  17 0 0.000000000000000 6.283185307179586
2  10 10 16 0.000000000000000 6.283185307179586
0

0101100
+303 14 -303 14 *
Wi

0101100
-302 13 *
Ve
0.000000100000185
-76.200000000000003 -241.300000000000011 31.899999999999977
0 0

0101101
*
Ed
 0.000000100000000 1 1 0
1  18 0 0.000000000000000 6.283185307179586
2  11 11 17 0.000000000000000 6.283185307179586
0

0101100
+300 14 -300 14 *
Wi

0101100
-299 13 *
Ve
0.000000100000000
-76.200000000000003 -418.250000000000000 31.899999999999999
0 0

0101101
*
Ed
 0.000000100000000 1 1 0
1  19 0 0.000000000000000 6.283185307179586
2  12 12 0 0.000000000000000 6.283185307179586
0

0101100
+297 9 -297 9 *
Wi

0101100
-296 7 *
Ve
0.000000100000000
-76.200000000000003 -450.000000000000000 31.899999999999999
0 0

0101101
*
Ed
 0.000000100000000 1 1 0
1  20 0 0.000000000000000 6.283185307179586
2  13 13 0 0.000000000000000 6.283185307179586
0

0101100
+294 9 -294 9 *
Wi

0101100
-293 7 *
Ve
0.000000100000000
-76.200000000000003 -481.750000000000000 31.899999999999999
0 0

0101101
*
Ed
 0.000000100000000 1 1 0
1  21 0 0.000000000000000 6.283185307179586
2  14 14 0 0.000000000000000 6.283185307179586
0

0101100
+291 9 -291 9 *
Wi

0101100
-290 7 *
Ve
0.000000100000000
-76.200000000000003 -678.250000000000000 31.899999999999999
0 0

0101101
*
Ed
 0.000000100000000 1 1 0
1  22 0 0.000000000000000 6.283185307179586
2  15 15 0 0.000000000000000 6.283185307179586
0

0101100
+288 9 -288 9 *
Wi

0101100
-287 7 *
Ve
0.000000100000000
-76.200000000000003 -710.000000000000000 31.899999999999999
0 0

0101101
*
Ed
 0.000000100000000 1 1 0
1  23 0 0.000000000000000 6.283185307179586
2  16 16 0 0.000000000000000 6.283185307179586
0

0101100
+285 9 -285 9 *
Wi

0101100
-284 7 *
Ve
0.000000100000000
-76.200000000000003 -741.750000000000000 31.899999999999999
0 0

0101101
*
Ed
 0.000000100000000 1 1 0
1  24 0 0.000000000000000 6.283185307179586
2  17 17 0 0.000000000000000 6.283185307179586
0

0101100
+282 9 -282 9 *
Wi

0101100
-281 7 *
Fa
0  0.000000100000000 1 7

0111000
+337 0 +334 0 +331 0 +328 0 +325 0 +322 0 +319 0 +316 0 +307 0 +304 0 
+301 0 +298 0 +295 0 +292 0 +289 0 +286 0 +283 0 +280 0 *
Ve
0.000000100000000
-69.850000000000009 -1100.000000000000000 0.000000000000000
0 0

0101101
*
Ve
0.000000100000000
-69.850000000000009 1100.000000000000000 0.000000000000000
0 0

0101101
*
Ed
 0.000000100000000 1 1 0
1  25 0 0.000000000000000 2200.000000000000000
0

0101000
+278 9 -277 9 *
Ed
 0.000000100000000 1 1 0
1  26 0 0.000000000000000 6.349999999999994
0

0101000
+278 9 -345 9 *
Ed
 0.000000100000000 1 1 0
1  27 0 0.000000000000000 6.349999999999994
0

0101000
+277 12 -344 12 *
Wi

0101100
+276 0 -343 0 -275 0 +274 10 *
Fa
0  0.000000100000000 18 0

0111000
+273 0 *
Ve
0.000000100000000
76.200000000000003 -1100.000000000000000 50.799999999999997
0 0

0101101
*
Ed
 0.000000100000000 1 1 0
1  28 0 0.000000000000000 152.400000000000006
0

0101000
+342 9 -271 9 *
Ve
0.000000100000000
76.200000000000003 -1100.000000000000000 0.000000000000000
0 0

0101101
*
Ed
 0.000000100000000 1 1 0
1  29 0 0.000000000000000 50.799999999999997
0

0101000
+271 9 -269 9 *
Ve
0.000000100000000
69.850000000000009 -1100.000000000000000 0.000000000000000
0 0

0101101
*
Ed
 0.000000100000000 1 1 0
1  30 0 0.000000000000000 6.349999999999994
0

0101000
+269 9 -267 9 *
Ve
0.000000100000000
69.850000000000009 -1100.000000000000000 44.449999999999996
0 0

0101101
*
Ed
 0.000000100000000 1 1 0
1  31 0 0.000000000000000 44.449999999999996
0

0101000
+267 9 -265 9 *
Ve
0.000000100000000
-69.850000000000009 -1100.000000000000000 44.449999999999996
0 0

0101101
*
Ed
 0.000000100000000 1 1 0
1  32 0 0.000000000000000 139.700000000000017
0

0101000
+265 9 -263 9 *
Ed
 0.000000100000000 1 1 0
1  33 0 0.000000000000000 44.449999999999996
0

0101000
+263 9 -278 9 *
Wi

0101100
+341 0 +270 0 +268 0 +266 0 +264 0 +262 0 +261 0 +275 0 *
Fa
0  0.000000100000000 19 0

0111000
+260 0 *
Ve
0.000000100000000
76.200000000000003 1100.000000000000000 50.799999999999997
0 0

0101101
*
Ed
 0.000000100000000 1 1 0
1  34 0 0.000000000000000 152.400000000000006
0

0101000
+340 12 -258 12 *
Ve
0.000000100000000
76.200000000000003 1100.000000000000000 0.000000000000000
0 0

0101101
*
Ed
 0.000000100000000 1 1 0
1  35 0 0.000000000000000 50.799999999999997
0

0101000
+258 12 -256 12 *
Ve
0.000000100000000
69.850000000000009 1100.000000000000000 0.000000000000000
0 0

0101101
*
Ed
 0.000000100000000 1 1 0
1  36 0 0.000000000000000 6.349999999999994
0

0101000
+256 12 -254 12 *
Ve
0.000000100000000
69.850000000000009 1100.000000000000000 44.449999999999996
0 0

0101101
*
Ed
 0.000000100000000 1 1 0
1  37 0 0.000000000000000 44.449999999999996
0

0101000
+254 12 -252 12 *
Ve
0.000000100000000
-69.850000000000009 1100.000000000000000 44.449999999999996
0 0

0101101
*
Ed
 0.000000100000000 1 1 0
1  38 0 0.000000000000000 139.700000000000017
0

0101000
+252 12 -250 12 *
Ed
 0.000000100000000 1 1 0
1  39 0 0.000000000000000 44.449999999999996
0

0101000
+250 12 -277 12 *
Wi

0101100
+339 0 +257 0 +255 0 +253 0 +251 0 +249 0 +248 0 +274 0 *
Fa
0  0.000000100000000 20 0

0111000
+247 0 *
Ed
 0.000000100000000 1 1 0
1  40 0 0.000000000000000 2200.000000000000000
0

0101000
+271 9 -258 9 *
Wi

0101100
+338 18 -270 18 +257 19 -245 18 *
Ve
0.000000100000043
-25.500000000000000 714.375000000000000 50.799999999999997
0 0

0101101
*
Ed
 0.000000100000000 1 1 0
1  41 0 0.000000000000000 6.283185307179586
2  18 22 20 0.000000000000000 6.283185307179586
0

0101100
+243 21 -243 21 *
Wi

0101100
+242 0 *
Ve
0.000000100000043
-25.500000000000000 587.375000000000000 50.799999999999997
0 0

0101101
*
Ed
 0.000000100000000 1 1 0
1  42 0 0.000000000000000 6.283185307179586
2  19 23 22 0.000000000000000 6.283185307179586
0

0101100
+240 21 -240 21 *
Wi

0101100
+239 0 *
Ve
0.000000100000043
-25.250000000000000 470.637499999999989 50.799999999999997
0 0

0101101
*
Ed
 0.000000100000000 1 1 0
1  43 0 0.000000000000000 6.283185307179586
2  20 24 24 0.000000000000000 6.283185307179586
0

0101100
+237 25 -237 25 *
Wi

0101100
+236 23 *
Ve
0.000000100000043
-25.250000000000000 429.362500000000011 50.799999999999997
0 0

0101101
*
Ed
 0.000000100000000 1 1 0
1  44 0 0.000000000000000 6.283185307179586
2  21 25 26 0.000000000000000 6.283185307179586
0

0101100
+234 25 -234 25 *
Wi

0101100
+233 23 *
Ve
0.000000100000043
12.849999999999909 730.637500000000045 50.799999999999997
0 0

0101101
*
Ed
 0.000000100000000 1 1 0
1  45 0 0.000000000000000 6.283185307179586
2  22 26 27 0.000000000000000 6.283185307179586
0

0101100
+231 25 -231 25 *
Wi

0101100
+230 23 *
Ve
0.000000100000043
12.849999999999909 689.362499999999955 50.799999999999997
0 0

0101101
*
Ed
 0.000000100000000 1 1 0
1  46 0 0.000000000000000 6.283185307179586
2  23 27 28 0.000000000000000 6.283185307179586
0

0101100
+228 25 -228 25 *
Wi

0101100
+227 23 *
Ve
0.000000100000043
-25.250000000000000 -429.362500000000011 50.799999999999997
0 0

0101101
*
Ed
 0.000000100000000 1 1 0
1  47 0 0.000000000000000 6.283185307179586
2  24 28 29 0.000000000000000 6.283185307179586
0

0101100
+225 25 -225 25 *
Wi

0101100
+224 23 *
Ve
0.000000100000043
-25.250000000000000 -470.637499999999989 50.799999999999997
0 0

0101101
*
Ed
 0.000000100000000 1 1 0
1  48 0 0.000000000000000 6.283185307179586
2  25 29 30 0.000000000000000 6.283185307179586
0

0101100
+222 25 -222 25 *
Wi

0101100
+221 23 *
Ve
0.000000100000043
-25.500000000000000 -587.375000000000000 50.799999999999997
0 0

0101101
*
Ed
 0.000000100000000 1 1 0
1  49 0 0.000000000000000 6.283185307179586
2  26 30 31 0.000000000000000 6.283185307179586
0

0101100
+219 21 -219 21 *
Wi

0101100
+218 0 *
Ve
0.000000100000043
-25.500000000000000 -714.375000000000000 50.799999999999997
0 0

0101101
*
Ed
 0.000000100000000 1 1 0
1  50 0 0.000000000000000 6.283185307179586
2  27 31 32 0.000000000000000 6.283185307179586
0

0101100
+216 21 -216 21 *
Wi

0101100
+215 0 *
Ve
0.000000100000043
12.849999999999909 -689.362499999999955 50.799999999999997
0 0

0101101
*
Ed
 0.000000100000000 1 1 0
1  51 0 0.000000000000000 6.283185307179586
2  28 32 33 0.000000000000000 6.283185307179586
0

0101100
+213 25 -213 25 *
Wi

0101100
+212 23 *
Ve
0.000000100000043
12.849999999999909 -730.637500000000045 50.799999999999997
0 0

0101101
*
Ed
 0.000000100000000 1 1 0
1  52 0 0.000000000000000 6.283185307179586
2  29 33 34 0.000000000000000 6.283185307179586
0

0101100
+210 25 -210 25 *
Wi

0101100
+209 23 *
Fa
0  0.000000100000000 21 18

0111000
+244 0 +241 0 +238 0 +235 0 +232 0 +229 0 +226 0 +223 0 +220 0 +217 0 
+214 0 +211 0 +208 0 *
Ve
0.000000100000000
-69.850000000000009 741.750000000000000 31.899999999999999
0 0

0101101
*
Ed
 0.000000100000000 1 1 0
1  53 0 0.000000000000000 6.283185307179586
2  30 2 0 0.000000000000000 6.283185307179586
0

0101100
+206 9 -206 9 *
Ed
 0.000000100000000 1 1 0
1  54 0 1.000000000000000 7.349999999999994
3  31 32CN 2 0 1.000000000000000 7.349999999999994
0

0101000
+336 9 -206 9 *
Wi

0101100
-205 0 +204 0 +335 0 -204 0 *
Fa
0  0.000000100000000 2 0

0111000
+203 0 *
Ve
0.000000100000000
-69.850000000000009 710.000000000000000 31.899999999999999
0 0

0101101
*
Ed
 0.000000100000000 1 1 0
1  55 0 0.000000000000000 6.283185307179586
2  33 3 0 0.000000000000000 6.283185307179586
0

0101100
+201 9 -201 9 *
Ed
 0.000000100000000 1 1 0
1  56 0 1.000000000000000 7.349999999999994
3  34 35CN 3 0 1.000000000000000 7.349999999999994
0

0101000
+333 9 -201 9 *
Wi

0101100
-200 0 +199 0 +332 0 -199 0 *
Fa
0  0.000000100000000 3 0

0111000
+198 0 *
Ve
0.000000100000000
-69.850000000000009 678.250000000000000 31.899999999999999
0 0

0101101
*
Ed
 0.000000100000000 1 1 0
1  57 0 0.000000000000000 6.283185307179586
2  36 4 0 0.000000000000000 6.283185307179586
0

0101100
+196 9 -196 9 *
Ed
 0.000000100000000 1 1 0
1  58 0 1.000000000000000 7.349999999999994
3  37 38CN 4 0 1.000000000000000 7.349999999999994
0

0101000
+330 9 -196 9 *
Wi

0101100
-195 0 +194 0 +329 0 -194 0 *
Fa
0  0.000000100000000 4 0

0111000
+193 0 *
Ve
0.000000100000000
-69.850000000000009 481.750000000000000 31.899999999999999
0 0

0101101
*
Ed
 0.000000100000000 1 1 0
1  59 0 0.000000000000000 6.283185307179586
2  39 5 0 0.000000000000000 6.283185307179586
0

0101100
+191 9 -191 9 *
Ed
 0.000000100000000 1 1 0
1  60 0 1.000000000000000 7.349999999999994
3  40 41CN 5 0 1.000000000000000 7.349999999999994
0

0101000
+327 9 -191 9 *
Wi

0101100
-190 0 +189 0 +326 0 -189 0 *
Fa
0  0.000000100000000 5 0

0111000
+188 0 *
Ve
0.000000100000000
-69.850000000000009 450.000000000000000 31.899999999999999
0 0

0101101
*
Ed
 0.000000100000000 1 1 0
1  61 0 0.000000000000000 6.283185307179586
2  42 6 0 0.000000000000000 6.283185307179586
0

0101100
+186 9 -186 9 *
Ed
 0.000000100000000 1 1 0
1  62 0 1.000000000000000 7.349999999999994
3  43 44CN 6 0 1.000000000000000 7.349999999999994
0

0101000
+324 9 -186 9 *
Wi

0101100
-185 0 +184 0 +323 0 -184 0 *
Fa
0  0.000000100000000 6 0

0111000
+183 0 *
Ve
0.000000100000000
-69.850000000000009 418.250000000000000 31.899999999999999
0 0

0101101
*
Ed
 0.000000100000000 1 1 0
1  63 0 0.000000000000000 6.283185307179586
2  45 7 0 0.000000000000000 6.283185307179586
0

0101100
+181 9 -181 9 *
Ed
 0.000000100000000 1 1 0
1  64 0 1.000000000000000 7.349999999999994
3  46 47CN 7 0 1.000000000000000 7.349999999999994
0

0101000
+321 9 -181 9 *
Wi

0101100
-180 0 +179 0 +320 0 -179 0 *
Fa
0  0.000000100000000 7 0

0111000
+178 0 *
Wi

0101100
+317 13 *
Fa
0  0.000000100000000 34 37

0111000
+176 0 *
Ed
 0.000000100000000 1 1 0
1  65 0 4.497139214957677 4.927638745811668
2  48 8 0 4.497139214957677 4.927638745811668
0

0101000
+310 15 -314 15 *
Wi

0101100
+308 13 -174 0 +313 13 *
Fa
0  0.000000100000000 35 37

0111000
+173 0 *
Ve
0.000000100000000
-69.849999999999909 241.300000000000011 31.900000000000091
0 0

0101101
*
Ve
0.000000100006070
-69.849999999999909 247.650000000003104 24.011655662294288
0 0

0101101
*
Ed
 0.000000100000000 1 1 0
1  66 0 0.000000000000000 4.497139214957677
2  49 8 0 0.000000000000000 4.497139214957677
0

0101000
+171 15 -170 15 *
Ve
0.000000100006015
-69.849999999999909 247.650000000003104 26.788344337705666
0 0

0101101
*
Ed
 0.000000100000000 1 1 0
1  67 0 4.497139214957677 4.927638745811668
2  50 8 0 4.497139214957677 4.927638745811668
0

0101000
+170 15 -168 15 *
Ed
 0.000000100000000 1 1 0
1  68 0 4.927638745811668 6.283185307179586
2  51 8 0 4.927638745811668 6.283185307179586
0

0101000
+168 15 -171 15 *
Ed
 0.000000100000000 1 1 0
1  69 0 1.000000000000000 7.349999999999909
3  52 53CN 8 0 1.000000000000000 7.349999999999909
0

0101000
+312 15 -171 15 *
Wi

0101100
-169 0 -167 0 -166 0 +165 0 +311 0 +174 0 +309 0 -165 0 *
Fa
0  0.000000100000000 8 0

0111000
+164 0 *
Ve
0.000000100000000
-69.849999999999909 203.199999999999989 31.900000000000091
0 0

0101101
*
Ed
 0.000000100000000 1 1 0
1  70 0 0.000000000000000 6.283185307179586
2  54 9 0 0.000000000000000 6.283185307179586
0

0101100
+162 15 -162 15 *
Ed
 0.000000100000000 1 1 0
1  71 0 1.000000000000000 7.349999999999909
3  55 56CN 9 0 1.000000000000000 7.349999999999909
0

0101000
+306 15 -162 15 *
Wi

0101100
-161 0 +160 0 +305 0 -160 0 *
Fa
0  0.000000100000000 9 0

0111000
+159 0 *
Ve
0.000000100000099
-69.850000000000009 -203.199999999999989 31.899999999999977
0 0

0101101
*
Ed
 0.000000100000000 1 1 0
1  72 0 0.000000000000000 6.283185307179586
2  57 10 16 0.000000000000000 6.283185307179586
0

0101100
+157 14 -157 14 *
Ed
 0.000000100000000 1 1 0
1  73 0 0.999999999999815 7.349999999999810
3  58 59CN 10 0 0.999999999999815 7.349999999999810
0

0101000
+303 38 -157 38 *
Wi

0101100
-156 0 +155 16 +302 0 -155 16 *
Fa
0  0.000000100000000 10 16

0111000
+154 0 *
Ve
0.000000100000099
-69.850000000000009 -241.300000000000011 31.899999999999977
0 0

0101101
*
Ed
 0.000000100000000 1 1 0
1  74 0 0.000000000000000 6.283185307179586
2  60 11 17 0.000000000000000 6.283185307179586
0

0101100
+152 14 -152 14 *
Ed
 0.000000100000000 1 1 0
1  75 0 0.999999999999815 7.349999999999810
3  61 62CN 11 0 0.999999999999815 7.349999999999810
0

0101000
+300 39 -152 39 *
Wi

0101100
-151 0 +150 17 +299 0 -150 17 *
Fa
0  0.000000100000000 11 17

0111000
+149 0 *
Ve
0.000000100000000
-69.850000000000009 -418.250000000000000 31.899999999999999
0 0

0101101
*
Ed
 0.000000100000000 1 1 0
1  76 0 0.000000000000000 6.283185307179586
2  63 12 0 0.000000000000000 6.283185307179586
0

0101100
+147 9 -147 9 *
Ed
 0.000000100000000 1 1 0
1  77 0 1.000000000000000 7.349999999999994
3  64 65CN 12 0 1.000000000000000 7.349999999999994
0

0101000
+297 9 -147 9 *
Wi

0101100
-146 0 +145 0 +296 0 -145 0 *
Fa
0  0.000000100000000 12 0

0111000
+144 0 *
Ve
0.000000100000000
-69.850000000000009 -450.000000000000000 31.899999999999999
0 0

0101101
*
Ed
 0.000000100000000 1 1 0
1  78 0 0.000000000000000 6.283185307179586
2  66 13 0 0.000000000000000 6.283185307179586
0

0101100
+142 9 -142 9 *
Ed
 0.000000100000000 1 1 0
1  79 0 1.000000000000000 7.349999999999994
3  67 68CN 13 0 1.000000000000000 7.349999999999994
0

0101000
+294 9 -142 9 *
Wi

0101100
-141 0 +140 0 +293 0 -140 0 *
Fa
0  0.000000100000000 13 0

0111000
+139 0 *
Ve
0.000000100000000
-69.850000000000009 -481.750000000000000 31.899999999999999
0 0

0101101
*
Ed
 0.000000100000000 1 1 0
1  80 0 0.000000000000000 6.283185307179586
2  69 14 0 0.000000000000000 6.283185307179586
0

0101100
+137 9 -137 9 *
Ed
 0.000000100000000 1 1 0
1  81 0 1.000000000000000 7.349999999999994
3  70 71CN 14 0 1.000000000000000 7.349999999999994
0

0101000
+291 9 -137 9 *
Wi

0101100
-136 0 +135 0 +290 0 -135 0 *
Fa
0  0.000000100000000 14 0

0111000
+134 0 *
Ve
0.000000100000000
-69.850000000000009 -678.250000000000000 31.899999999999999
0 0

0101101
*
Ed
 0.000000100000000 1 1 0
1  82 0 0.000000000000000 6.283185307179586
2  72 15 0 0.000000000000000 6.283185307179586
0

0101100
+132 9 -132 9 *
Ed
 0.000000100000000 1 1 0
1  83 0 1.000000000000000 7.349999999999994
3  73 74CN 15 0 1.000000000000000 7.349999999999994
0

0101000
+288 9 -132 9 *
Wi

0101100
-131 0 +130 0 +287 0 -130 0 *
Fa
0  0.000000100000000 15 0

0111000
+129 0 *
Ve
0.000000100000000
-69.850000000000009 -710.000000000000000 31.899999999999999
0 0

0101101
*
Ed
 0.000000100000000 1 1 0
1  84 0 0.000000000000000 6.283185307179586
2  75 16 0 0.000000000000000 6.283185307179586
0

0101100
+127 9 -127 9 *
Ed
 0.000000100000000 1 1 0
1  85 0 1.000000000000000 7.349999999999994
3  76 77CN 16 0 1.000000000000000 7.349999999999994
0

0101000
+285 9 -127 9 *
Wi

0101100
-126 0 +125 0 +284 0 -125 0 *
Fa
0  0.000000100000000 16 0

0111000
+124 0 *
Ve
0.000000100000000
-69.850000000000009 -741.750000000000000 31.899999999999999
0 0

0101101
*
Ed
 0.000000100000000 1 1 0
1  86 0 0.000000000000000 6.283185307179586
2  78 17 0 0.000000000000000 6.283185307179586
0

0101100
+122 9 -122 9 *
Ed
 0.000000100000000 1 1 0
1  87 0 1.000000000000000 7.349999999999994
3  79 80CN 17 0 1.000000000000000 7.349999999999994
0

0101000
+282 9 -122 9 *
Wi

0101100
-121 0 +120 0 +281 0 -120 0 *
Fa
0  0.000000100000000 17 0

0111000
+119 0 *
Ed
 0.000000100000000 1 1 0
1  88 0 0.000000000000000 2200.000000000000000
0

0101000
+263 9 -250 9 *
Wi

0101100
+117 7 -261 7 +248 11 -276 7 *
Ve
0.000000100000213
-69.849999999999909 254.000000000000000 31.900000000000091
0 0

0101101
*
Ed
 0.000000100000127 1 1 0
1  89 0 1.786046092222096 6.283185307179586
0

0101000
+170 14 -115 14 *
Ed
 0.000000100000127 1 1 0
1  90 0 0.000000000000000 1.355546561367698
0

0101000
+115 14 -168 14 *
Wi

0101100
+114 13 +169 0 +166 0 +113 13 *
Wi

0101100
+161 0 *
Wi

0101100
+205 7 *
Wi

0101100
+200 7 *
Wi

0101100
+195 7 *
Wi

0101100
+190 7 *
Wi

0101100
+185 7 *
Wi

0101100
+180 7 *
Ve
0.000000100000213
-69.849999999999909 292.100000000000023 31.900000000000091
0 0

0101101
*
Ed
 0.000000100000127 1 1 0
1  91 0 0.000000000000000 6.283185307179586
0

0101000
+104 14 -104 14 *
Wi

0101100
+103 13 *
Wi

0101100
+156 13 *
Wi

0101100
+151 13 *
Wi

0101100
+146 7 *
Wi

0101100
+141 7 *
Wi

0101100
+136 7 *
Wi

0101100
+131 7 *
Wi

0101100
+126 7 *
Wi

0101100
+121 7 *
Fa
0  0.000000100000000 36 7

0111000
+116 0 +112 0 +111 0 +110 0 +109 0 +108 0 +107 0 +106 0 +105 0 +102 0 
+101 0 +100 0 +99 0 +98 0 +97 0 +96 0 +95 0 +94 0 *
Ed
 0.000000100000000 1 1 0
1  92 0 0.000000000000000 2200.000000000000000
0

0101000
+269 9 -256 9 *
Wi

0101100
+245 0 -92 0 -268 0 +255 10 *
Fa
0  0.000000100000000 37 0

0111000
+91 0 *
Ed
 0.000000100000000 1 1 0
1  93 0 0.000000000000000 2200.000000000000000
0

0101000
+267 9 -254 9 *
Wi

0101100
+92 0 -89 0 -266 0 +253 10 *
Fa
0  0.000000100000000 38 0

0111000
+88 0 *
Ed
 0.000000100000000 1 1 0
1  94 0 0.000000000000000 2200.000000000000000
0

0101000
+265 9 -252 9 *
Wi

0101100
+89 0 -86 0 -264 0 +251 10 *
Fa
0  0.000000100000000 39 0

0111000
+85 0 *
Wi

0101100
+86 18 -262 18 +249 19 -117 18 *
Ve
0.000000100000050
12.849999999999909 730.637500000000045 44.449999999999996
0 0

0101101
*
Ed
 0.000000100000000 1 1 0
1  95 0 0.000000000000000 6.283185307179586
2  81 26 27 0.000000000000000 6.283185307179586
0

0101100
+82 25 -82 25 *
Wi

0101100
-81 23 *
Ve
0.000000100000050
12.849999999999909 689.362499999999955 44.449999999999996
0 0

0101101
*
Ed
 0.000000100000000 1 1 0
1  96 0 0.000000000000000 6.283185307179586
2  82 27 28 0.000000000000000 6.283185307179586
0

0101100
+79 25 -79 25 *
Wi

0101100
-78 23 *
Ve
0.000000100000050
-25.500000000000000 714.375000000000000 44.449999999999996
0 0

0101101
*
Ed
 0.000000100000000 1 1 0
1  97 0 0.000000000000000 6.283185307179586
2  83 22 20 0.000000000000000 6.283185307179586
0

0101100
+76 21 -76 21 *
Wi

0101100
-75 0 *
Ve
0.000000100000050
-25.500000000000000 587.375000000000000 44.449999999999996
0 0

0101101
*
Ed
 0.000000100000000 1 1 0
1  98 0 0.000000000000000 6.283185307179586
2  84 23 22 0.000000000000000 6.283185307179586
0

0101100
+73 21 -73 21 *
Wi

0101100
-72 0 *
Ve
0.000000100000050
-25.250000000000000 470.637499999999989 44.449999999999996
0 0

0101101
*
Ed
 0.000000100000000 1 1 0
1  99 0 0.000000000000000 6.283185307179586
2  85 24 24 0.000000000000000 6.283185307179586
0

0101100
+70 25 -70 25 *
Wi

0101100
-69 23 *
Ve
0.000000100000050
-25.250000000000000 429.362500000000011 44.449999999999996
0 0

0101101
*
Ed
 0.000000100000000 1 1 0
1  100 0 0.000000000000000 6.283185307179586
2  86 25 26 0.000000000000000 6.283185307179586
0

0101100
+67 25 -67 25 *
Wi

0101100
-66 23 *
Ve
0.000000100000050
12.849999999999909 -689.362499999999955 44.449999999999996
0 0

0101101
*
Ed
 0.000000100000000 1 1 0
1  101 0 0.000000000000000 6.283185307179586
2  87 32 33 0.000000000000000 6.283185307179586
0

0101100
+64 25 -64 25 *
Wi

0101100
-63 23 *
Ve
0.000000100000050
12.849999999999909 -730.637500000000045 44.449999999999996
0 0

0101101
*
Ed
 0.000000100000000 1 1 0
1  102 0 0.000000000000000 6.283185307179586
2  88 33 34 0.000000000000000 6.283185307179586
0

0101100
+61 25 -61 25 *
Wi

0101100
-60 23 *
Ve
0.000000100000050
-25.250000000000000 -429.362500000000011 44.449999999999996
0 0

0101101
*
Ed
 0.000000100000000 1 1 0
1  103 0 0.000000000000000 6.283185307179586
2  89 28 29 0.000000000000000 6.283185307179586
0

0101100
+58 25 -58 25 *
Wi

0101100
-57 23 *
Ve
0.000000100000050
-25.250000000000000 -470.637499999999989 44.449999999999996
0 0

0101101
*
Ed
 0.000000100000000 1 1 0
1  104 0 0.000000000000000 6.283185307179586
2  90 29 30 0.000000000000000 6.283185307179586
0

0101100
+55 25 -55 25 *
Wi

0101100
-54 23 *
Ve
0.000000100000050
-25.500000000000000 -587.375000000000000 44.449999999999996
0 0

0101101
*
Ed
 0.000000100000000 1 1 0
1  105 0 0.000000000000000 6.283185307179586
2  91 30 31 0.000000000000000 6.283185307179586
0

0101100
+52 21 -52 21 *
Wi

0101100
-51 0 *
Ve
0.000000100000050
-25.500000000000000 -714.375000000000000 44.449999999999996
0 0

0101101
*
Ed
 0.000000100000000 1 1 0
1  106 0 0.000000000000000 6.283185307179586
2  92 31 32 0.000000000000000 6.283185307179586
0

0101100
+49 21 -49 21 *
Wi

0101100
-48 0 *
Fa
0  0.000000100000000 40 18

0111000
+83 0 +80 0 +77 0 +74 0 +71 0 +68 0 +65 0 +62 0 +59 0 +56 0 
+53 0 +50 0 +47 0 *
Ed
 0.000000100000000 1 1 0
1  107 0 0.999999999999950 7.349999999999952
3  93 94CN 22 0 0.999999999999950 7.349999999999952
0

0101000
+76 40 -243 40 *
Wi

0101100
-242 0 +45 20 +75 0 -45 20 *
Fa
0  0.000000100000000 22 20

0111000
+44 0 *
Ed
 0.000000100000000 1 1 0
1  108 0 0.999999999999950 7.349999999999952
3  95 96CN 23 0 0.999999999999950 7.349999999999952
0

0101000
+73 41 -240 41 *
Wi

0101100
-239 0 +42 22 +72 0 -42 22 *
Fa
0  0.000000100000000 23 22

0111000
+41 0 *
Ed
 0.000000100000000 1 1 0
1  109 0 0.999999999999950 7.349999999999952
3  97 98CN 24 0 0.999999999999950 7.349999999999952
0

0101000
+70 43 -237 43 *
Wi

0101100
-236 0 +39 24 +69 0 -39 24 *
Fa
0  0.000000100000000 24 24

0111000
+38 0 *
Ed
 0.000000100000000 1 1 0
1  110 0 0.999999999999950 7.349999999999952
3  99 100CN 25 0 0.999999999999950 7.349999999999952
0

0101000
+67 44 -234 44 *
Wi

0101100
-233 0 +36 26 +66 0 -36 26 *
Fa
0  0.000000100000000 25 26

0111000
+35 0 *
Ed
 0.000000100000000 1 1 0
1  111 0 0.999999999999950 7.349999999999952
3  101 102CN 26 0 0.999999999999950 7.349999999999952
0

0101000
+82 45 -231 45 *
Wi

0101100
-230 0 +33 27 +81 0 -33 27 *
Fa
0  0.000000100000000 26 27

0111000
+32 0 *
Ed
 0.000000100000000 1 1 0
1  112 0 0.999999999999950 7.349999999999952
3  103 104CN 27 0 0.999999999999950 7.349999999999952
0

0101000
+79 46 -228 46 *
Wi

0101100
-227 0 +30 28 +78 0 -30 28 *
Fa
0  0.000000100000000 27 28

0111000
+29 0 *
Ed
 0.000000100000000 1 1 0
1  113 0 0.999999999999950 7.349999999999952
3  105 106CN 28 0 0.999999999999950 7.349999999999952
0

0101000
+58 47 -225 47 *
Wi

0101100
-224 0 +27 29 +57 0 -27 29 *
Fa
0  0.000000100000000 28 29

0111000
+26 0 *
Ed
 0.000000100000000 1 1 0
1  114 0 0.999999999999950 7.349999999999952
3  107 108CN 29 0 0.999999999999950 7.349999999999952
0

0101000
+55 48 -222 48 *
Wi

0101100
-221 0 +24 30 +54 0 -24 30 *
Fa
0  0.000000100000000 29 30

0111000
+23 0 *
Ed
 0.000000100000000 1 1 0
1  115 0 0.999999999999950 7.349999999999952
3  109 110CN 30 0 0.999999999999950 7.349999999999952
0

0101000
+52 49 -219 49 *
Wi

0101100
-218 0 +21 31 +51 0 -21 31 *
Fa
0  0.000000100000000 30 31

0111000
+20 0 *
Ed
 0.000000100000000 1 1 0
1  116 0 0.999999999999950 7.349999999999952
3  111 112CN 31 0 0.999999999999950 7.349999999999952
0

0101000
+49 50 -216 50 *
Wi

0101100
-215 0 +18 32 +48 0 -18 32 *
Fa
0  0.000000100000000 31 32

0111000
+17 0 *
Ed
 0.000000100000000 1 1 0
1  117 0 0.999999999999950 7.349999999999952
3  113 114CN 32 0 0.999999999999950 7.349999999999952
0

0101000
+64 51 -213 51 *
Wi

0101100
-212 0 +15 33 +63 0 -15 33 *
Fa
0  0.000000100000000 32 33

0111000
+14 0 *
Ed
 0.000000100000000 1 1 0
1  118 0 0.999999999999950 7.349999999999952
3  115 116CN 33 0 0.999999999999950 7.349999999999952
0

0101000
+61 52 -210 52 *
Wi

0101100
-209 0 +12 34 +60 0 -12 34 *
Fa
0  0.000000100000000 33 34

0111000
+11 0 *
Wi

0101100
-113 13 +167 0 -114 13 *
Fa
0  0.000000100000000 41 37

0111000
+9 0 *
Wi

0101100
-103 13 *
Fa
0  0.000000100000000 42 37

0111000
+7 0 *
Sh

0101100
-279 0 -272 7 -259 7 +246 11 -207 6 -202 7 -197 7 -192 7 -187 7 -182 7 
-177 7 -175 0 -172 0 -163 0 -158 0 -153 13 -148 13 -143 7 -138 7 -133 7 
-128 7 -123 7 -118 7 -93 0 -90 7 -87 7 -84 7 -46 6 -43 6 -40 6 
-37 42 -34 42 -31 42 -28 42 -25 42 -22 42 -19 6 -16 6 -13 42 -10 42 
-8 0 -6 0 *
So

0100000
+5 0 *
Co

0100000
+4 0 *
Co

0100000
+3 0 *
Co

1100000
+2 2 *

+1 1 