
CASCADE Topology V1, (c) Matra-Datavision
Locations 3
1
1.000000000000000 0.000000000000000 0.000000000000000 0.000000000000000 
0.000000000000000 1.000000000000000 0.000000000000000 0.000000000000000 
0.000000000000000 0.000000000000000 1.000000000000000 0.000000000000000 
1
1.000000000000000 0.000000000000000 0.000000000000000 0.000000000000000 
0.000000000000000 1.000000000000000 0.000000000000000 0.000000000000000 
0.000000000000000 0.000000000000000 1.000000000000000 0.000000000000000 
2  2 -1 0
Curve2ds 12
1 0.00000000000000000 3.17499999999999982 1.00000000000000000 0.00000000000000000 
1 6.28318530717958623 -0.00000000000000000 0.00000000000000000 1.00000000000000000 
1 0.00000000000000000 -0.00000000000000000 0.00000000000000000 1.00000000000000000 
1 0.00000000000000000 0.00000000000000000 1.00000000000000000 0.00000000000000000 
1 0.00000000000000000 0.00000000000000000 1.00000000000000000 0.00000000000000000 
1 0.00000000000000000 1.00000000000000000 1.00000000000000000 0.00000000000000000 
1 0.00000000000000000 1.30000000000000004 1.00000000000000000 0.00000000000000000 
1 6.28318530717958623 -0.00000000000000000 0.00000000000000000 1.00000000000000000 
1 0.00000000000000000 -0.00000000000000000 0.00000000000000000 1.00000000000000000 
1 0.00000000000000000 5.47499999999999964 1.00000000000000000 0.00000000000000000 
1 6.28318530717958623 -0.00000000000000000 0.00000000000000000 1.00000000000000000 
1 0.00000000000000000 -0.00000000000000000 0.00000000000000000 1.00000000000000000 
Curves 9
2 -0.79999999999999982 0.00000000000000000 0.00000000000000000 1.00000000000000000 0.00000000000000000 -0.00000000000000000 0.00000000000000000 0.00000000000000000 1.00000000000000000 0.00000000000000000 -1.00000000000000000 0.00000000000000000 20.50000000000000000
1 -3.97499999999999964 0.00000000000000502 20.50000000000000000 1.00000000000000000 0.00000000000000000 0.00000000000000000 
2 -3.97499999999999964 0.00000000000000000 0.00000000000000000 1.00000000000000000 0.00000000000000000 -0.00000000000000000 0.00000000000000000 0.00000000000000000 1.00000000000000000 0.00000000000000000 -1.00000000000000000 0.00000000000000000 20.50000000000000000
2 -0.80000000000000004 0.00000000000000000 0.00000000000000000 1.00000000000000000 0.00000000000000000 -0.00000000000000000 0.00000000000000000 0.00000000000000000 1.00000000000000000 0.00000000000000000 -1.00000000000000000 0.00000000000000000 17.41249999999999787
2 -3.97499999999999964 0.00000000000000000 0.00000000000000000 1.00000000000000000 0.00000000000000000 -0.00000000000000000 0.00000000000000000 0.00000000000000000 1.00000000000000000 0.00000000000000000 -1.00000000000000000 0.00000000000000000 4.86249999999999982
2 0.50000000000000000 0.00000000000000000 0.00000000000000000 1.00000000000000000 0.00000000000000000 -0.00000000000000000 0.00000000000000000 0.00000000000000000 1.00000000000000000 0.00000000000000000 -1.00000000000000000 0.00000000000000000 17.41249999999999787
1 -0.80000000000000004 0.00000000000000426 17.41249999999999787 1.00000000000000000 0.00000000000000000 0.00000000000000000 
2 0.50000000000000000 0.00000000000000000 0.00000000000000000 1.00000000000000000 0.00000000000000000 -0.00000000000000000 0.00000000000000000 0.00000000000000000 1.00000000000000000 0.00000000000000000 -1.00000000000000000 0.00000000000000000 4.86249999999999982
1 -4.97499999999999964 0.00000000000000119 4.86249999999999982 1.00000000000000000 0.00000000000000000 0.00000000000000000 
Polygon3D 0
PolygonOnTriangulations 0
Surfaces 6
2 -3.97499999999999964 0.00000000000000000 0.00000000000000000 1.00000000000000000 0.00000000000000000 0.00000000000000000 0.00000000000000000 0.00000000000000000 1.00000000000000000 0.00000000000000000 -1.00000000000000000 0.00000000000000000 20.50000000000000000
1 -0.79999999999999982 0.00000000000000000 0.00000000000000000 1.00000000000000000 0.00000000000000000 0.00000000000000000 0.00000000000000000 0.00000000000000000 1.00000000000000000 0.00000000000000000 -1.00000000000000000 0.00000000000000000 
2 -0.80000000000000004 0.00000000000000000 0.00000000000000000 1.00000000000000000 0.00000000000000000 0.00000000000000000 0.00000000000000000 0.00000000000000000 1.00000000000000000 0.00000000000000000 -1.00000000000000000 0.00000000000000000 17.41249999999999787
1 -3.97499999999999964 0.00000000000000000 0.00000000000000000 1.00000000000000000 0.00000000000000000 0.00000000000000000 0.00000000000000000 0.00000000000000000 1.00000000000000000 0.00000000000000000 -1.00000000000000000 0.00000000000000000 
2 -4.97499999999999964 0.00000000000000000 0.00000000000000000 1.00000000000000000 0.00000000000000000 0.00000000000000000 0.00000000000000000 0.00000000000000000 1.00000000000000000 0.00000000000000000 -1.00000000000000000 0.00000000000000000 4.86249999999999982
1 0.50000000000000000 0.00000000000000000 0.00000000000000000 1.00000000000000000 0.00000000000000000 0.00000000000000000 0.00000000000000000 0.00000000000000000 1.00000000000000000 0.00000000000000000 -1.00000000000000000 0.00000000000000000 
Triangulations 0

TShapes 34
Ve
0.000000100000000
-0.800000000000000 0.000000000000005 20.500000000000000
0 0

0101101
*
Ed
 0.000000100000000 1 1 0
1  1 0 0.000000000000000 6.283185307179586
2  1 1 0 0.000000000000000 6.283185307179586
0

0101000
+34 3 -34 3 *
Ve
0.000000100000000
-3.975000000000000 0.000000000000005 20.500000000000000
0 0

0101101
*
Ed
 0.000000100000000 1 1 0
1  2 0 0.000000000000000 3.175000000000000
3  2 3CN 1 0 0.000000000000000 3.175000000000000
0

0101000
-34 3 +32 3 *
Ed
 0.000000100000000 1 1 0
1  3 0 0.000000000000000 6.283185307179586
2  4 1 0 0.000000000000000 6.283185307179586
0

0101000
+32 3 -32 3 *
Wi

0101100
-33 0 +31 0 +30 0 -31 0 *
Fa
0  0.000000100000000 1 0

0111000
+29 0 *
Wi

0101100
+33 0 *
Ve
0.000000100000000
-0.800000000000000 0.000000000000004 17.412499999999998
0 0

0101101
*
Ed
 0.000000100000000 1 1 0
1  4 0 0.000000000000000 6.283185307179586
2  5 3 0 0.000000000000000 6.283185307179586
0

0101000
+26 3 -26 3 *
Wi

0101100
-25 0 *
Fa
0  0.000000100000000 2 0

0111000
+27 0 +24 0 *
Wi

0101100
+30 0 *
Ve
0.000000100000001
-3.975000000000000 0.000000000000001 4.862500000000000
0 0

0101101
*
Ed
 0.000000100000000 1 1 0
1  5 0 0.000000000000000 6.283185307179586
2  6 5 0 0.000000000000000 6.283185307179586
0

0101100
+21 3 -21 3 *
Wi

0101100
-20 0 *
Fa
0  0.000000100000000 4 0

0111000
+22 0 +19 0 *
Ve
0.000000100000000
0.500000000000000 0.000000000000004 17.412499999999998
0 0

0101101
*
Ed
 0.000000100000000 1 1 0
1  6 0 0.000000000000000 6.283185307179586
2  7 3 0 0.000000000000000 6.283185307179586
0

0101000
+17 3 -17 3 *
Ed
 0.000000100000000 1 1 0
1  7 0 0.000000000000000 1.300000000000000
3  8 9CN 3 0 0.000000000000000 1.300000000000000
0

0101000
+26 3 -17 3 *
Wi

0101100
-16 0 +15 0 +25 0 -15 0 *
Fa
0  0.000000100000000 3 0

0111000
+14 0 *
Ve
0.000000100000001
0.500000000000000 0.000000000000001 4.862500000000000
0 0

0101101
*
Ed
 0.000000100000000 1 1 0
1  8 0 0.000000000000000 6.283185307179586
2  10 5 0 0.000000000000000 6.283185307179586
0

0101100
+12 3 -12 3 *
Ed
 0.000000100000000 1 1 0
1  9 0 1.000000000000000 5.475000000000000
3  11 12CN 5 0 1.000000000000000 5.475000000000000
0

0101000
+21 3 -12 3 *
Wi

0101100
-11 0 +10 0 +20 0 -10 0 *
Fa
0  0.000000100000000 5 0

0111000
+9 0 *
Wi

0101100
+16 0 *
Wi

0101100
-11 0 *
Fa
0  0.000000100000000 6 0

0111000
+7 0 +6 0 *
Sh

0101100
+28 0 +23 0 -18 0 +13 0 -8 0 +5 0 *
So

0100000
+4 0 *
Co

0100000
+3 0 *
Co

1100000
+2 0 *

+1 1 