
CASCADE Topology V1, (c) Matra-Datavision
Locations 27
1
1.000000000000000 0.000000000000000 0.000000000000000 0.000000000000000 
0.000000000000000 1.000000000000000 0.000000000000000 0.000000000000000 
0.000000000000000 0.000000000000000 1.000000000000000 0.000000000000000 
1
1.000000000000000 0.000000000000000 0.000000000000000 0.000000000000000 
0.000000000000000 1.000000000000000 0.000000000000000 0.000000000000000 
0.000000000000000 0.000000000000000 1.000000000000000 0.000000000000000 
2  2 -1 0
1
1.000000000000000 0.000000000000000 0.000000000000000 -96.994845223857126 
0.000000000000000 1.000000000000000 0.000000000000000 0.000000000000000 
0.000000000000000 0.000000000000000 1.000000000000000 -56.000000000000014 
1
1.000000000000000 0.000000000000000 0.000000000000000 -56.000000000000050 
0.000000000000000 1.000000000000000 0.000000000000000 0.000000000000000 
0.000000000000000 0.000000000000000 1.000000000000000 -96.994845223857098 
1
1.000000000000000 0.000000000000000 0.000000000000000 -0.000000000000021 
0.000000000000000 1.000000000000000 0.000000000000000 0.000000000000000 
0.000000000000000 0.000000000000000 1.000000000000000 -112.000000000000000 
1
1.000000000000000 0.000000000000000 0.000000000000000 -112.000000000000000 
0.000000000000000 1.000000000000000 0.000000000000000 0.000000000000000 
0.000000000000000 0.000000000000000 1.000000000000000 0.000000000000014 
1
1.000000000000000 0.000000000000000 0.000000000000000 -96.994845223857141 
0.000000000000000 1.000000000000000 0.000000000000000 0.000000000000000 
0.000000000000000 0.000000000000000 1.000000000000000 55.999999999999993 
1
1.000000000000000 0.000000000000000 0.000000000000000 -55.999999999999972 
0.000000000000000 1.000000000000000 0.000000000000000 0.000000000000000 
0.000000000000000 0.000000000000000 1.000000000000000 96.994845223857141 
1
1.000000000000000 0.000000000000000 0.000000000000000 56.000000000000014 
0.000000000000000 1.000000000000000 0.000000000000000 0.000000000000000 
0.000000000000000 0.000000000000000 1.000000000000000 -96.994845223857126 
1
1.000000000000000 0.000000000000000 0.000000000000000 96.994845223857098 
0.000000000000000 1.000000000000000 0.000000000000000 0.000000000000000 
0.000000000000000 0.000000000000000 1.000000000000000 -56.000000000000050 
1
1.000000000000000 0.000000000000000 0.000000000000000 0.000000000000007 
0.000000000000000 1.000000000000000 0.000000000000000 0.000000000000000 
0.000000000000000 0.000000000000000 1.000000000000000 112.000000000000000 
1
1.000000000000000 0.000000000000000 0.000000000000000 56.000000000000014 
0.000000000000000 1.000000000000000 0.000000000000000 0.000000000000000 
0.000000000000000 0.000000000000000 1.000000000000000 96.994845223857126 
1
1.000000000000000 0.000000000000000 0.000000000000000 112.000000000000000 
0.000000000000000 1.000000000000000 0.000000000000000 0.000000000000000 
0.000000000000000 0.000000000000000 1.000000000000000 0.000000000000000 
1
1.000000000000000 0.000000000000000 0.000000000000000 96.994845223857141 
0.000000000000000 1.000000000000000 0.000000000000000 0.000000000000000 
0.000000000000000 0.000000000000000 1.000000000000000 55.999999999999993 
2  2 -1 4 -1 0
2  2 -1 5 -1 0
2  2 -1 6 -1 0
2  2 -1 7 -1 0
2  2 -1 8 -1 0
2  2 -1 9 -1 0
2  2 -1 10 -1 0
2  2 -1 11 -1 0
2  2 -1 12 -1 0
2  2 -1 13 -1 0
2  2 -1 14 -1 0
2  2 -1 15 -1 0
Curve2ds 70
1 6.28318530717958623 -0.00000000000000000 0.00000000000000000 1.00000000000000000 
1 0.00000000000000000 -0.00000000000000000 0.00000000000000000 1.00000000000000000 
1 0.00000000000000000 15.96571428571428442 1.00000000000000000 0.00000000000000000 
1 0.00000000000000000 56.26571428571428157 1.00000000000000000 0.00000000000000000 
1 0.00000000000000000 15.96571428571428442 1.00000000000000000 0.00000000000000000 
1 0.00000000000000000 52.08142857142856741 1.00000000000000000 0.00000000000000000 
1 0.00000000000000000 52.08142857142856741 1.00000000000000000 0.00000000000000000 
1 0.00000000000000000 52.08142857142856741 1.00000000000000000 0.00000000000000000 
1 0.00000000000000000 52.08142857142856741 1.00000000000000000 0.00000000000000000 
1 0.00000000000000000 52.08142857142856741 1.00000000000000000 0.00000000000000000 
1 0.00000000000000000 52.08142857142856741 1.00000000000000000 0.00000000000000000 
1 0.00000000000000000 52.08142857142856741 1.00000000000000000 0.00000000000000000 
1 0.00000000000000000 52.08142857142856741 1.00000000000000000 0.00000000000000000 
1 0.00000000000000000 52.08142857142856741 1.00000000000000000 0.00000000000000000 
1 0.00000000000000000 52.08142857142856741 1.00000000000000000 0.00000000000000000 
1 0.00000000000000000 52.08142857142856741 1.00000000000000000 0.00000000000000000 
1 0.00000000000000000 52.08142857142856741 1.00000000000000000 0.00000000000000000 
1 0.00000000000000000 0.00000000000000000 1.00000000000000000 0.00000000000000000 
1 6.28318530717958623 -0.00000000000000000 0.00000000000000000 1.00000000000000000 
1 0.00000000000000000 -0.00000000000000000 0.00000000000000000 1.00000000000000000 
1 0.00000000000000000 0.00000000000000000 1.00000000000000000 0.00000000000000000 
1 6.28318530717958623 -0.00000000000000000 0.00000000000000000 1.00000000000000000 
1 0.00000000000000000 -0.00000000000000000 0.00000000000000000 1.00000000000000000 
1 0.00000000000000000 36.11571428571428299 1.00000000000000000 0.00000000000000000 
1 6.28318530717958623 -0.00000000000000000 0.00000000000000000 1.00000000000000000 
1 0.00000000000000000 -0.00000000000000000 0.00000000000000000 1.00000000000000000 
1 0.00000000000000000 36.11571428571428299 1.00000000000000000 0.00000000000000000 
1 6.28318530717958623 -0.00000000000000000 0.00000000000000000 1.00000000000000000 
1 0.00000000000000000 -0.00000000000000000 0.00000000000000000 1.00000000000000000 
1 0.00000000000000000 36.11571428571428299 1.00000000000000000 0.00000000000000000 
1 6.28318530717958623 -0.00000000000000000 0.00000000000000000 1.00000000000000000 
1 0.00000000000000000 -0.00000000000000000 0.00000000000000000 1.00000000000000000 
1 0.00000000000000000 36.11571428571428299 1.00000000000000000 0.00000000000000000 
1 6.28318530717958623 -0.00000000000000000 0.00000000000000000 1.00000000000000000 
1 0.00000000000000000 -0.00000000000000000 0.00000000000000000 1.00000000000000000 
1 0.00000000000000000 36.11571428571428299 1.00000000000000000 0.00000000000000000 
1 6.28318530717958623 -0.00000000000000000 0.00000000000000000 1.00000000000000000 
1 0.00000000000000000 -0.00000000000000000 0.00000000000000000 1.00000000000000000 
1 0.00000000000000000 36.11571428571428299 1.00000000000000000 0.00000000000000000 
1 6.28318530717958623 -0.00000000000000000 0.00000000000000000 1.00000000000000000 
1 0.00000000000000000 -0.00000000000000000 0.00000000000000000 1.00000000000000000 
1 0.00000000000000000 36.11571428571428299 1.00000000000000000 0.00000000000000000 
1 6.28318530717958623 -0.00000000000000000 0.00000000000000000 1.00000000000000000 
1 0.00000000000000000 -0.00000000000000000 0.00000000000000000 1.00000000000000000 
1 0.00000000000000000 36.11571428571428299 1.00000000000000000 0.00000000000000000 
1 6.28318530717958623 -0.00000000000000000 0.00000000000000000 1.00000000000000000 
1 0.00000000000000000 -0.00000000000000000 0.00000000000000000 1.00000000000000000 
1 0.00000000000000000 36.11571428571428299 1.00000000000000000 0.00000000000000000 
1 6.28318530717958623 -0.00000000000000000 0.00000000000000000 1.00000000000000000 
1 0.00000000000000000 -0.00000000000000000 0.00000000000000000 1.00000000000000000 
1 0.00000000000000000 36.11571428571428299 1.00000000000000000 0.00000000000000000 
1 6.28318530717958623 -0.00000000000000000 0.00000000000000000 1.00000000000000000 
1 0.00000000000000000 -0.00000000000000000 0.00000000000000000 1.00000000000000000 
1 0.00000000000000000 36.11571428571428299 1.00000000000000000 0.00000000000000000 
1 6.28318530717958623 -0.00000000000000000 0.00000000000000000 1.00000000000000000 
1 0.00000000000000000 -0.00000000000000000 0.00000000000000000 1.00000000000000000 
1 0.00000000000000000 36.11571428571428299 1.00000000000000000 0.00000000000000000 
1 6.28318530717958623 -0.00000000000000000 0.00000000000000000 1.00000000000000000 
1 0.00000000000000000 -0.00000000000000000 0.00000000000000000 1.00000000000000000 
1 0.00000000000000000 83.05285714285716381 1.00000000000000000 0.00000000000000000 
7 0 0  8 51 8  1.49602872998350156 36.96857142857143685  1.49602872998350156 36.50817124658840385  1.49715232491405081 36.04905479628261844  1.49938845809084187 35.59464824393990767  1.50277351089598632 35.14895272246138802  1.50737396557017367 34.71800392832827953  1.51327427065521736 34.31078626438655022  1.52056117435989369 33.94041699508840537  1.53583610315636387 33.39178674041175299  1.54343450006742544 33.18015982585244927  1.55190620436659654 33.01553003551082810  1.56098888582422957 32.91385543053410601  1.57034814720255111 32.88383536856387934  1.57962909599020107 32.92675089481875972  1.58849134188908869 33.03626881626862399  1.60362999165057918 33.33663829636619624  1.61003292499297745 33.51213308444032180  1.61583716693244517 33.71733880599666833  1.62103690377117005 33.94612824613442115  1.62563853749781528 34.19333637496600886  1.62965604673673425 34.45457954972054893  1.63310809466473938 34.72614428658916808  1.64085993384446516 35.46925549964114310  1.64424010943974941 35.95795660472096955  1.64623592214660297 36.46016980296973031  1.64689576642669633 36.96857142857628276  1.64623592214645531 37.47697305417242575  1.64424010943991972 37.97918625241038626  1.64085993384439166 38.46788735750885735  1.63193108087764616 39.32383013514463954  1.62666347076243123 39.71166537825306619  1.62012994423241286 40.07845973374045201  1.61232405491294783 40.40683282281618460  1.60331267011579470 40.67935334826764660  1.59323144160520469 40.87863846526622069  1.58228712468294797 40.98732142857143401  1.56276104059347376 40.98732142857142691  1.55489920382323810 40.93417621301394149  1.54735402008692646 40.83189810278359033  1.54025117863782923 40.68578549099974140  1.53369555211454545 40.50235911529176747  1.52776670410410209 40.28929130633241584  1.52251402380045242 40.05533468811546527  1.51226426512506551 39.50466743357815602  1.50749734084682108 39.17355604191265428  1.50360760949965444 38.82486925525062560  1.50054947583922416 38.46416131004055927  1.49828365779496875 38.09546851830662462  1.49678160863935306 37.72178994819253717  1.49602872998350178 37.34544410899869149  1.49602872998350178 36.96857142857143685 
 0.00000000000000000 9 0.17298194900719716 7 0.30290095318142995 7 0.41394906216872235 7 0.59890833810397215 7 0.75490123568602241 7 0.86398396341934547 7 1.00000000000000000 9
7 0 0  8 51 8  0.00000000000000000 13.74969383358585162  0.11456303128660275 13.74969383358585162  0.22880714780566613 13.75420944932903744  0.34416706965291555 13.76319490724766226  0.46189902184675735 13.77642235280421801  0.58315955016624721 13.79340510696558120  0.70921476676820749 13.81323078756357248  0.84141789311841453 13.83417517125103835  1.08714314823618419 13.86827947229961744  1.20092814926487579 13.88260753538210857  1.31973952315471532 13.89477223854478716  1.44144830974492200 13.90277637990426030  1.56439657395334830 13.90509039977016137  1.68706942191414444 13.90160127711432736  1.80779769300382309 13.89336905790972310  2.02374202539715453 13.87231183307848248  2.11923141588028496 13.86041391004218681  2.21124408484528878 13.84721906751113352  2.30017784499706046 13.83355685886641595  2.38636242442542290 13.82010923699978733  2.47008119665466808 13.80739977844748623  2.55157636576763647 13.79581467226815050  2.76350975147690558 13.76863406267730916  2.89166253217002600 13.75534263846022753  3.01724798797823324 13.74698809245069420  3.14159265359116446 13.74414840061123044  3.26593731920115893 13.74698809245116138  3.39152277500631971 13.75534263845964666  3.51967555570470747 13.76863406267757206  3.76378821024631538 13.79994168670799581  3.88238199372322068 13.81738790713574794  4.00680647607751794 13.83721063073787327  4.13657859596246169 13.85785943221413774  4.27157101933302563 13.87699606194478896  4.41204412581859717 13.89188148121936806  4.55855882763142883 13.89999999999999858  4.81995934371571444 13.90000000000000213  4.92520758533060210 13.89603010362468893  5.02810337463974744 13.88839038385641089  5.12850695657670030 13.87776795333344459  5.22617176319560794 13.86512594183714242  5.32071261993993261 13.85151124020299562  5.41154329545065860 13.83786245030579565  5.60532521762083924 13.80873586096125649  5.70862849936634031 13.79320312291764061  5.80861449046245859 13.77930396128069468  5.90602065832088208 13.76769107788327950  6.00151811533658641 13.75875606157111264  6.09575946226703280 13.75271937957856672  6.18940672418057947 13.74969383358585162  6.28318530717958623 13.74969383358585162 
 0.00000000000000000 9 0.17298194900719716 7 0.30290095318142995 7 0.41394906216872235 7 0.59890833810397215 7 0.75490123568602241 7 0.86398396341934547 7 1.00000000000000000 9
1 0.00000000000000000 1.00000000000000000 1.00000000000000000 0.00000000000000000 
1 0.00000000000000000 140.31857142857143117 1.00000000000000000 0.00000000000000000 
1 6.28318530717958623 -0.00000000000000000 0.00000000000000000 1.00000000000000000 
1 0.00000000000000000 -0.00000000000000000 0.00000000000000000 1.00000000000000000 
7 0 0  8 51 8  0.00000000000000000 0.55086091095589751  0.11461186521577182 0.55086091095589751  0.22889805956281295 0.55685504063455182  0.34428778908635094 0.56878138137494316  0.46203285144552120 0.58633154304974111  0.58328798986305475 0.60885111758939081  0.70931846176208158 0.63512092910081341  0.84147884339901724 0.66285586809518082  1.08707292435989533 0.70799786273327703  1.20084419283761235 0.72696875379159831  1.31966496367857911 0.74307679652208347  1.44139261161908738 0.75367343938581144  1.56436289344381496 0.75673878759977076  1.68705733531760149 0.75212197514028567  1.80780163881134759 0.74122427035033311  2.04887261894773820 0.71010458596792692  2.16696298025329037 0.68948548040833901  2.27969455009251520 0.66668846986170294  2.38788087556213391 0.64379158816080317  2.49222462257056421 0.62229534254384811  2.59332073304079591 0.60323316384298131  2.69176383677278341 0.58725955602240820  2.92095893798279693 0.55756222945771849  3.05020404731378125 0.54692262820055448  3.17789829165910831 0.54387726165528905  3.30564164113618197 0.54871408507745434  3.43491655234855386 0.56131980611305832  3.56727255445537939 0.58110465344803608  3.70435123257121290 0.60662023512572294  3.96283231587645712 0.65747958239354365  4.08920929898532659 0.68326347797802545  4.22324744033406763 0.71001241525671932  4.36258436677718109 0.73397658732926807  4.50571071014964630 0.75061902052548768  4.65156928372839928 0.75696225833519382  4.79931702125869286 0.75258613711988298  5.04088385313825871 0.73079443293343083  5.13066461988955425 0.71920264888799779  5.21765669541986910 0.70521475544918022  5.30205913470503898 0.68970748597324438  5.38400551868780841 0.67351042111428849  5.46357309400437519 0.65734543809464663  5.54078073761781731 0.64179748342740628  5.70483826617505851 0.61001176936726853  5.79148873770510164 0.59406172283125480  5.87607996634350727 0.58010472531245993  5.95905972668722050 0.56858001310671569  6.04084881677237995 0.55976693330947602  6.12185640761565164 0.55383222151968381  6.20248864108346698 0.55086091095589751  6.28318530717958623 0.55086091095589751 
 0.00000000000000000 9 0.17405588805960170 7 0.30475114437701828 7 0.44467767581277468 7 0.63743365688916787 7 0.79043655847673422 7 0.88600502134075798 7 1.00000000000000000 9
7 0 0  8 51 8  1.47177233339106461 94.23428571428571843  1.47177233339106461 93.77368928094983858  1.47326381947334717 93.31440370914209836  1.47623181891312694 92.85988926090207940  1.48072328741748294 92.41417135615574807  1.48682438663521355 91.98328835770610112  1.49464451016208932 91.57620374612496050  1.50429609195951919 91.20599519724076742  1.52451467825587428 90.65765781482532759  1.53457353967274024 90.44600506610102286  1.54578869531170748 90.28130489820136972  1.55781154160836532 90.17957465790613014  1.57019955144532131 90.14952543699592979  1.58248451737618212 90.19244440699137044  1.59421607689457723 90.30198859043514403  1.61658892072034477 90.63730818029262082  1.62694570091578639 90.86851429808865532  1.63604101785002021 91.14279005347728457  1.64388670835296891 91.44891454553777521  1.65052157206423811 91.77808974685108012  1.65599739050142558 92.12347458807430201  1.66036865363687691 92.47986677611493178  1.66824518390829613 93.34401399997047122  1.67081161760851771 93.85934448754152015  1.67149957215999123 94.38080245431147830  1.67034798080878577 94.90268896916222729  1.66733109691139036 95.41920927656337881  1.66236563117969549 95.92307269372648193  1.65532105873389890 96.40390324680386414  1.63867795667110761 97.19379080072175725  1.62941832561928046 97.54095784606202812  1.61827887057612907 97.85122961723884316  1.60549101724199006 98.09717565246437232  1.59148821878530899 98.25821808217257569  1.57679768359526040 98.32136629298592823  1.56201295873782597 98.28149344863841463  1.53878479112460353 98.05486545846574131  1.53037728383081673 97.93211466411139554  1.52255355203927656 97.77909293053586737  1.51535375913680959 97.60072748987636260  1.50880203278345060 97.40162651957608375  1.50290900105181424 97.18614001589884310  1.49767291395748514 96.95838866407430601  1.48760137072461052 96.44062434816372331  1.48298797348390510 96.14451169087334392  1.47920283680273901 95.83796880298299925  1.47621226149554929 95.52401532151048968  1.47398844398987805 95.20495657366679154  1.47251169762494705 94.88262658283665019  1.47177233339106461 94.55858544115949371  1.47177233339106461 94.23428571428573264 
 0.00000000000000000 9 0.17405588805960170 7 0.30475114437701828 7 0.44467767581277468 7 0.63743365688916787 7 0.79043655847673422 7 0.88600502134075798 7 1.00000000000000000 9
1 6.28318530717958623 -0.00000000000000000 0.00000000000000000 1.00000000000000000 
1 0.00000000000000000 -0.00000000000000000 0.00000000000000000 1.00000000000000000 
Curves 51
1 -0.00000000000001283 66.76571428571428157 52.39999999999999858 0.00000000000000000 1.00000000000000000 0.00000000000000000 
2 0.00000000000000000 82.73142857142856599 0.00000000000000000 0.00000000000000000 1.00000000000000000 0.00000000000000000 0.00000000000000000 -0.00000000000000000 1.00000000000000000 1.00000000000000000 0.00000000000000000 -0.00000000000000000 52.39999999999999858
2 0.00000000000000000 123.03142857142856315 0.00000000000000000 0.00000000000000000 1.00000000000000000 0.00000000000000000 0.00000000000000000 -0.00000000000000000 1.00000000000000000 1.00000000000000000 0.00000000000000000 -0.00000000000000000 52.39999999999999858
2 0.00000000000000000 82.73142857142856599 0.00000000000000000 0.00000000000000000 1.00000000000000000 0.00000000000000000 0.00000000000000000 -0.00000000000000000 1.00000000000000000 1.00000000000000000 0.00000000000000000 -0.00000000000000000 167.00000000000000000
2 -96.99484522385712637 82.73142857142856599 -56.00000000000001421 0.00000000000000000 1.00000000000000000 0.00000000000000000 0.00000000000000000 -0.00000000000000000 1.00000000000000000 1.00000000000000000 0.00000000000000000 -0.00000000000000000 8.08750000000000036
2 -56.00000000000004974 82.73142857142856599 -96.99484522385709795 0.00000000000000000 1.00000000000000000 0.00000000000000000 0.00000000000000000 -0.00000000000000000 1.00000000000000000 1.00000000000000000 0.00000000000000000 -0.00000000000000000 8.08750000000000036
2 -0.00000000000002057 82.73142857142856599 -112.00000000000000000 0.00000000000000000 1.00000000000000000 0.00000000000000000 0.00000000000000000 -0.00000000000000000 1.00000000000000000 1.00000000000000000 0.00000000000000000 -0.00000000000000000 8.08750000000000036
2 -112.00000000000000000 82.73142857142856599 0.00000000000001372 0.00000000000000000 1.00000000000000000 0.00000000000000000 0.00000000000000000 -0.00000000000000000 1.00000000000000000 1.00000000000000000 0.00000000000000000 -0.00000000000000000 8.08750000000000036
2 -96.99484522385714058 82.73142857142856599 55.99999999999999289 0.00000000000000000 1.00000000000000000 0.00000000000000000 0.00000000000000000 -0.00000000000000000 1.00000000000000000 1.00000000000000000 0.00000000000000000 -0.00000000000000000 8.08750000000000036
2 -55.99999999999997158 82.73142857142856599 96.99484522385714058 0.00000000000000000 1.00000000000000000 0.00000000000000000 0.00000000000000000 -0.00000000000000000 1.00000000000000000 1.00000000000000000 0.00000000000000000 -0.00000000000000000 8.08750000000000036
2 56.00000000000001421 82.73142857142856599 -96.99484522385712637 0.00000000000000000 1.00000000000000000 0.00000000000000000 0.00000000000000000 -0.00000000000000000 1.00000000000000000 1.00000000000000000 0.00000000000000000 -0.00000000000000000 8.08750000000000036
2 96.99484522385709795 82.73142857142856599 -56.00000000000004974 0.00000000000000000 1.00000000000000000 0.00000000000000000 0.00000000000000000 -0.00000000000000000 1.00000000000000000 1.00000000000000000 0.00000000000000000 -0.00000000000000000 8.08750000000000036
2 0.00000000000000686 82.73142857142856599 112.00000000000000000 0.00000000000000000 1.00000000000000000 0.00000000000000000 0.00000000000000000 -0.00000000000000000 1.00000000000000000 1.00000000000000000 0.00000000000000000 -0.00000000000000000 8.08750000000000036
2 56.00000000000001421 82.73142857142856599 96.99484522385712637 0.00000000000000000 1.00000000000000000 0.00000000000000000 0.00000000000000000 -0.00000000000000000 1.00000000000000000 1.00000000000000000 0.00000000000000000 -0.00000000000000000 8.08750000000000036
2 112.00000000000000000 82.73142857142856599 0.00000000000000000 0.00000000000000000 1.00000000000000000 0.00000000000000000 0.00000000000000000 -0.00000000000000000 1.00000000000000000 1.00000000000000000 0.00000000000000000 -0.00000000000000000 8.08750000000000036
2 96.99484522385714058 82.73142857142856599 55.99999999999999289 0.00000000000000000 1.00000000000000000 0.00000000000000000 0.00000000000000000 -0.00000000000000000 1.00000000000000000 1.00000000000000000 0.00000000000000000 -0.00000000000000000 8.08750000000000036
2 0.00000000000000000 123.03142857142856315 0.00000000000000000 0.00000000000000000 1.00000000000000000 0.00000000000000000 0.00000000000000000 -0.00000000000000000 1.00000000000000000 1.00000000000000000 0.00000000000000000 -0.00000000000000000 53.79999999999999716
1 -0.00000000000004090 66.76571428571428157 167.00000000000000000 0.00000000000000000 1.00000000000000000 0.00000000000000000 
2 0.00000000000000000 66.76571428571428157 0.00000000000000000 0.00000000000000000 1.00000000000000000 0.00000000000000000 0.00000000000000000 -0.00000000000000000 1.00000000000000000 1.00000000000000000 0.00000000000000000 -0.00000000000000000 167.00000000000000000
1 -0.00000000000000198 30.64999999999999858 8.08750000000000036 0.00000000000000000 1.00000000000000000 0.00000000000000000 
2 -96.99484522385712637 66.76571428571428157 -56.00000000000001421 0.00000000000000000 1.00000000000000000 0.00000000000000000 0.00000000000000000 -0.00000000000000000 1.00000000000000000 1.00000000000000000 0.00000000000000000 -0.00000000000000000 8.08750000000000036
1 -0.00000000000000198 30.64999999999999858 8.08750000000000036 0.00000000000000000 1.00000000000000000 0.00000000000000000 
2 -56.00000000000004974 66.76571428571428157 -96.99484522385709795 0.00000000000000000 1.00000000000000000 0.00000000000000000 0.00000000000000000 -0.00000000000000000 1.00000000000000000 1.00000000000000000 0.00000000000000000 -0.00000000000000000 8.08750000000000036
1 -0.00000000000000198 30.64999999999999858 8.08750000000000036 0.00000000000000000 1.00000000000000000 0.00000000000000000 
2 -0.00000000000002057 66.76571428571428157 -112.00000000000000000 0.00000000000000000 1.00000000000000000 0.00000000000000000 0.00000000000000000 -0.00000000000000000 1.00000000000000000 1.00000000000000000 0.00000000000000000 -0.00000000000000000 8.08750000000000036
1 -0.00000000000000198 30.64999999999999858 8.08750000000000036 0.00000000000000000 1.00000000000000000 0.00000000000000000 
2 -112.00000000000000000 66.76571428571428157 0.00000000000001372 0.00000000000000000 1.00000000000000000 0.00000000000000000 0.00000000000000000 -0.00000000000000000 1.00000000000000000 1.00000000000000000 0.00000000000000000 -0.00000000000000000 8.08750000000000036
1 -0.00000000000000198 30.64999999999999858 8.08750000000000036 0.00000000000000000 1.00000000000000000 0.00000000000000000 
2 -96.99484522385714058 66.76571428571428157 55.99999999999999289 0.00000000000000000 1.00000000000000000 0.00000000000000000 0.00000000000000000 -0.00000000000000000 1.00000000000000000 1.00000000000000000 0.00000000000000000 -0.00000000000000000 8.08750000000000036
1 -0.00000000000000198 30.64999999999999858 8.08750000000000036 0.00000000000000000 1.00000000000000000 0.00000000000000000 
2 -55.99999999999997158 66.76571428571428157 96.99484522385714058 0.00000000000000000 1.00000000000000000 0.00000000000000000 0.00000000000000000 -0.00000000000000000 1.00000000000000000 1.00000000000000000 0.00000000000000000 -0.00000000000000000 8.08750000000000036
1 -0.00000000000000198 30.64999999999999858 8.08750000000000036 0.00000000000000000 1.00000000000000000 0.00000000000000000 
2 56.00000000000001421 66.76571428571428157 -96.99484522385712637 0.00000000000000000 1.00000000000000000 0.00000000000000000 0.00000000000000000 -0.00000000000000000 1.00000000000000000 1.00000000000000000 0.00000000000000000 -0.00000000000000000 8.08750000000000036
1 -0.00000000000000198 30.64999999999999858 8.08750000000000036 0.00000000000000000 1.00000000000000000 0.00000000000000000 
2 96.99484522385709795 66.76571428571428157 -56.00000000000004974 0.00000000000000000 1.00000000000000000 0.00000000000000000 0.00000000000000000 -0.00000000000000000 1.00000000000000000 1.00000000000000000 0.00000000000000000 -0.00000000000000000 8.08750000000000036
1 -0.00000000000000198 30.64999999999999858 8.08750000000000036 0.00000000000000000 1.00000000000000000 0.00000000000000000 
2 0.00000000000000686 66.76571428571428157 112.00000000000000000 0.00000000000000000 1.00000000000000000 0.00000000000000000 0.00000000000000000 -0.00000000000000000 1.00000000000000000 1.00000000000000000 0.00000000000000000 -0.00000000000000000 8.08750000000000036
1 -0.00000000000000198 30.64999999999999858 8.08750000000000036 0.00000000000000000 1.00000000000000000 0.00000000000000000 
2 56.00000000000001421 66.76571428571428157 96.99484522385712637 0.00000000000000000 1.00000000000000000 0.00000000000000000 0.00000000000000000 -0.00000000000000000 1.00000000000000000 1.00000000000000000 0.00000000000000000 -0.00000000000000000 8.08750000000000036
1 -0.00000000000000198 30.64999999999999858 8.08750000000000036 0.00000000000000000 1.00000000000000000 0.00000000000000000 
2 112.00000000000000000 66.76571428571428157 0.00000000000000000 0.00000000000000000 1.00000000000000000 0.00000000000000000 0.00000000000000000 -0.00000000000000000 1.00000000000000000 1.00000000000000000 0.00000000000000000 -0.00000000000000000 8.08750000000000036
1 -0.00000000000000198 30.64999999999999858 8.08750000000000036 0.00000000000000000 1.00000000000000000 0.00000000000000000 
2 96.99484522385714058 66.76571428571428157 55.99999999999999289 0.00000000000000000 1.00000000000000000 0.00000000000000000 0.00000000000000000 -0.00000000000000000 1.00000000000000000 1.00000000000000000 0.00000000000000000 -0.00000000000000000 8.08750000000000036
1 -0.00000000000001318 123.03142857142856315 53.79999999999999716 0.00000000000000000 1.00000000000000000 0.00000000000000000 
2 0.00000000000000000 206.08428571428572695 0.00000000000000000 0.00000000000000000 1.00000000000000000 0.00000000000000000 0.00000000000000000 -0.00000000000000000 1.00000000000000000 1.00000000000000000 0.00000000000000000 -0.00000000000000000 53.79999999999999716
7 0 0  8 51 8  53.64969383358585020 160.00000000000000000 4.01875000000000515  53.64969383358585020 159.53959981801696699 4.01875000000000515  53.65420944932903780 159.08048336771088316 3.95846946478764128  53.66319490724765728 158.62607681536940163 3.83850166496760448  53.67642235280421659 158.18038129388870061 3.65686605076435622  53.69340510696557800 157.74943249975780191 3.40994106517516915  53.71323078756356750 157.34221483581475809 3.09310904954947752  53.73417517125103871 156.97184556651697562 2.70160551806719784  53.76827947229961779 156.42321531184032324 1.88052231734547348  53.78260753538210537 156.21158839728090584 1.47197112497297855  53.79477223854478751 156.04695860693954046 1.01632929434625030  53.80277637990425887 155.94528400196242046 0.52769092117384364  53.80509039977015817 155.91526393999262723 0.02409843571305093  53.80160127711432949 155.95817946624725892 -0.47524813886339290  53.79336905790972168 156.06769738769719424 -0.95198359102650087  53.77231183307847573 156.36806686779476649 -1.76617069345519351  53.76041391004218184 156.54356165586892757 -2.11045600216173357  53.74721906751113920 156.74876737742516752 -2.42245944497697474  53.73355685886641453 156.97755681756299850 -2.70188135652719197  53.72010923699978946 157.22476494639465727 -2.94908905050148284  53.70739977844749546 157.48600812114909786 -3.16485953129290332  53.69581467226816329 157.75757285801770990 -3.35021873134402570  53.66863406267729886 158.50068407106968493 -3.76638100664192965  53.65534263846023322 158.98938517614971033 -3.94775369162685852  53.64698809245069810 159.49159837439796661 -4.05480270778858110  53.64414840061123613 160.00000000000488853 -4.09018722842793458  53.64698809245115285 160.50840162560132285 -4.05480270778128737  53.65534263845964347 161.01061482383875045 -3.94775369163559464  53.66863406267756886 161.49931592893742049 -3.76638100663795861  53.69994168670799439 162.35525870657318137 -3.28703001904787229  53.71738790713574474 162.74309394968312859 -3.00416826651969293  53.73721063073787008 163.10988830516430426 -2.65321578731348495  53.75785943221413987 163.43826139425135580 -2.23374356450720679  53.77699606194478577 163.71078191969149884 -1.74925501311155429  53.79188148121937019 163.91006703669623334 -1.20700915237348427  53.79999999999999716 164.01875000000001137 -0.61820492637716873  53.80000000000000426 164.01874999999998295 0.43229839763655420  53.79603010362468751 163.96560478444260411 0.85526516610519310  53.78839038385640237 163.86332667421197584 1.26115373526990737  53.77776795333344495 163.71721406242829744 1.64316630090563454  53.76512594183714810 163.53378768672050114 1.99565033812491022  53.75151124020299420 163.32071987776083688 2.31434014835399315  53.73786245030578357 163.08676325954402841 2.59660749424286008  53.70873586096126218 162.53609600500672627 3.14727474878015867  53.69320312291763031 162.20498461334111084 3.40327218988045166  53.67930396128069503 161.85629782667936638 3.61208201004984053  53.66769107788327631 161.49558988146918637 3.77620054724781218  53.65875606157111832 161.12689708973502434 3.89777386024387251  53.65271937957856352 160.75321851962115716 3.97835827592129343  53.64969383358585020 160.37687268042728306 4.01875000000000515  53.64969383358585020 160.00000000000000000 4.01875000000000515 
 0.00000000000000000 9 0.17298194900719716 7 0.30290095318142995 7 0.41394906216872235 7 0.59890833810397215 7 0.75490123568602241 7 0.86398396341934547 7 1.00000000000000000 9
2 0.00000000000000000 66.76571428571428157 0.00000000000000000 0.00000000000000000 1.00000000000000000 0.00000000000000000 0.00000000000000000 -0.00000000000000000 1.00000000000000000 1.00000000000000000 0.00000000000000000 -0.00000000000000000 40.64999999999999858
2 0.00000000000000000 206.08428571428572695 0.00000000000000000 0.00000000000000000 1.00000000000000000 0.00000000000000000 0.00000000000000000 -0.00000000000000000 1.00000000000000000 1.00000000000000000 0.00000000000000000 -0.00000000000000000 40.64999999999999858
1 39.89999999999999858 160.00000000000000000 4.01874999999999982 1.00000000000000000 0.00000000000000000 0.00000000000000000 
7 0 0  8 51 8  40.45086091095589609 160.00000000000000000 4.01875000000000071  40.45086091095589609 159.53940356666410594 4.01875000000000071  40.45685504063455085 159.08011799485640836 3.95841808467152223  40.46878138137493863 158.62560354661621886 3.83836005640319478  40.48633154304973658 158.17988564187027123 3.65662595604194784  40.50885111758938706 157.74900264342025480 3.40963393488967981  40.53512092910081321 157.34191803183927050 3.09280618838678123  40.56285586809517696 156.97170948295507742 2.70140185462422622  40.60799786273327783 156.42337210053960916 1.88075696821635141  40.62696875379159422 156.21171935181513390 1.47228948790057412  40.64307679652208094 156.04701918391600657 1.01663157305397256  40.65367343938581257 155.94528894362005644 0.52792014740380999  40.65673878759977100 155.91523972271036769 0.02423509539730162  40.65212197514028247 155.95815869270560938 -0.47520408610736942  40.64122427035033525 156.06770287614943982 -0.95199846812727529  40.61010458596792461 156.40302246600691660 -1.86092198846947587  40.58948548040833515 156.63422858380300795 -2.28146585714712113  40.56668846986170252 156.90850433919140983 -2.65053051013405794  40.54379158816080064 157.21462883125218468 -2.96865781429802089  40.52229534254384902 157.54380403256530485 -3.23751781019369123  40.50323316384297812 157.88918887378861200 -3.45929540800940050  40.48725955602240845 158.24558106182922756 -3.63626858361989758  40.45756222945771441 159.10972828568475279 -3.95506932559057534  40.44692262820055362 159.62505877325580173 -4.05885539670925599  40.44387726165528818 160.14651674002558934 -4.08665229672354879  40.44871408507745514 160.66840325487692098 -4.04009174812081540  40.46131980611306034 161.18492356227730511 -3.91810609660746856  40.48110465344803544 161.68878697944086298 -3.71722835130444107  40.50662023512572318 162.16961753251814571 -3.43197745144443189  40.55747958239354034 162.95950508643605303 -2.75734974795517829  40.58326347797802214 163.30667213177633812 -2.38182146082133972  40.61001241525671901 163.61694390295309631 -1.92975880675683342  40.63397658732926487 163.86288993817848336 -1.41039330790490336  40.65061902052548959 164.02393236788716990 -0.84123709539142233  40.65696225833519151 164.08708057870006769 -0.24394280439218052  40.65258613711988289 164.04720773435269621 0.35711541294977245  40.63079443293343473 163.82057974418000867 1.30108892831193046  40.61920264888799892 163.69782894982569132 1.64267757087519017  40.60521475544917536 163.54480721625012052 1.96042990042118448  40.58970748597323563 163.36644177559062996 2.25271089573216976  40.57351042111428541 163.16734080529036532 2.51855832258503876  40.55734543809464299 162.95185430161313889 2.75757053610377989  40.54179748342740197 162.72410294978857337 2.96985109422400617  40.51001176936727433 162.20633863387800488 3.37802356898434342  40.49406172283125471 161.91022597658766813 3.56488384747107778  40.48010472531246506 161.60368308869729503 3.71811841790018649  40.46858001310672392 161.28972960722475705 3.83913874990068571  40.45976693330947427 160.97067085938107311 3.92910644159812872  40.45383222151968283 160.64834086855088913 3.98884207305590133  40.45086091095589609 160.32429972687376107 4.01875000000000071  40.45086091095589609 160.00000000000000000 4.01875000000000071 
 0.00000000000000000 9 0.17405588805960170 7 0.30475114437701828 7 0.44467767581277468 7 0.63743365688916787 7 0.79043655847673422 7 0.88600502134075798 7 1.00000000000000000 9
1 -0.00000000000000996 65.76571428571428157 40.64999999999999858 0.00000000000000000 1.00000000000000000 0.00000000000000000 
Polygon3D 0
PolygonOnTriangulations 0
Surfaces 21
2 0.00000000000000000 66.76571428571428157 0.00000000000000000 0.00000000000000000 1.00000000000000000 0.00000000000000000 0.00000000000000000 -0.00000000000000000 1.00000000000000000 1.00000000000000000 0.00000000000000000 -0.00000000000000000 52.39999999999999858
1 0.00000000000000000 82.73142857142856599 0.00000000000000000 0.00000000000000000 1.00000000000000000 0.00000000000000000 0.00000000000000000 -0.00000000000000000 1.00000000000000000 1.00000000000000000 0.00000000000000000 -0.00000000000000000 
2 0.00000000000000000 66.76571428571428157 0.00000000000000000 0.00000000000000000 1.00000000000000000 0.00000000000000000 0.00000000000000000 -0.00000000000000000 1.00000000000000000 1.00000000000000000 0.00000000000000000 -0.00000000000000000 167.00000000000000000
2 0.00000000000000000 30.64999999999999858 0.00000000000000000 0.00000000000000000 1.00000000000000000 0.00000000000000000 0.00000000000000000 -0.00000000000000000 1.00000000000000000 1.00000000000000000 0.00000000000000000 -0.00000000000000000 8.08750000000000036
2 0.00000000000000000 30.64999999999999858 0.00000000000000000 0.00000000000000000 1.00000000000000000 0.00000000000000000 0.00000000000000000 -0.00000000000000000 1.00000000000000000 1.00000000000000000 0.00000000000000000 -0.00000000000000000 8.08750000000000036
2 0.00000000000000000 30.64999999999999858 0.00000000000000000 0.00000000000000000 1.00000000000000000 0.00000000000000000 0.00000000000000000 -0.00000000000000000 1.00000000000000000 1.00000000000000000 0.00000000000000000 -0.00000000000000000 8.08750000000000036
2 0.00000000000000000 30.64999999999999858 0.00000000000000000 0.00000000000000000 1.00000000000000000 0.00000000000000000 0.00000000000000000 -0.00000000000000000 1.00000000000000000 1.00000000000000000 0.00000000000000000 -0.00000000000000000 8.08750000000000036
2 0.00000000000000000 30.64999999999999858 0.00000000000000000 0.00000000000000000 1.00000000000000000 0.00000000000000000 0.00000000000000000 -0.00000000000000000 1.00000000000000000 1.00000000000000000 0.00000000000000000 -0.00000000000000000 8.08750000000000036
2 0.00000000000000000 30.64999999999999858 0.00000000000000000 0.00000000000000000 1.00000000000000000 0.00000000000000000 0.00000000000000000 -0.00000000000000000 1.00000000000000000 1.00000000000000000 0.00000000000000000 -0.00000000000000000 8.08750000000000036
2 0.00000000000000000 30.64999999999999858 0.00000000000000000 0.00000000000000000 1.00000000000000000 0.00000000000000000 0.00000000000000000 -0.00000000000000000 1.00000000000000000 1.00000000000000000 0.00000000000000000 -0.00000000000000000 8.08750000000000036
2 0.00000000000000000 30.64999999999999858 0.00000000000000000 0.00000000000000000 1.00000000000000000 0.00000000000000000 0.00000000000000000 -0.00000000000000000 1.00000000000000000 1.00000000000000000 0.00000000000000000 -0.00000000000000000 8.08750000000000036
2 0.00000000000000000 30.64999999999999858 0.00000000000000000 0.00000000000000000 1.00000000000000000 0.00000000000000000 0.00000000000000000 -0.00000000000000000 1.00000000000000000 1.00000000000000000 0.00000000000000000 -0.00000000000000000 8.08750000000000036
2 0.00000000000000000 30.64999999999999858 0.00000000000000000 0.00000000000000000 1.00000000000000000 0.00000000000000000 0.00000000000000000 -0.00000000000000000 1.00000000000000000 1.00000000000000000 0.00000000000000000 -0.00000000000000000 8.08750000000000036
2 0.00000000000000000 30.64999999999999858 0.00000000000000000 0.00000000000000000 1.00000000000000000 0.00000000000000000 0.00000000000000000 -0.00000000000000000 1.00000000000000000 1.00000000000000000 0.00000000000000000 -0.00000000000000000 8.08750000000000036
2 0.00000000000000000 30.64999999999999858 0.00000000000000000 0.00000000000000000 1.00000000000000000 0.00000000000000000 0.00000000000000000 -0.00000000000000000 1.00000000000000000 1.00000000000000000 0.00000000000000000 -0.00000000000000000 8.08750000000000036
1 0.00000000000000000 123.03142857142856315 0.00000000000000000 0.00000000000000000 1.00000000000000000 0.00000000000000000 0.00000000000000000 -0.00000000000000000 1.00000000000000000 1.00000000000000000 0.00000000000000000 -0.00000000000000000 
2 0.00000000000000000 123.03142857142856315 0.00000000000000000 0.00000000000000000 1.00000000000000000 0.00000000000000000 0.00000000000000000 -0.00000000000000000 1.00000000000000000 1.00000000000000000 0.00000000000000000 -0.00000000000000000 53.79999999999999716
2 39.89999999999999858 160.00000000000000000 0.00000000000000000 1.00000000000000000 0.00000000000000000 0.00000000000000000 0.00000000000000000 0.00000000000000000 1.00000000000000000 0.00000000000000000 -1.00000000000000000 0.00000000000000000 4.01874999999999982
1 0.00000000000000000 66.76571428571428157 0.00000000000000000 0.00000000000000000 1.00000000000000000 0.00000000000000000 0.00000000000000000 -0.00000000000000000 1.00000000000000000 1.00000000000000000 0.00000000000000000 -0.00000000000000000 
2 0.00000000000000000 65.76571428571428157 0.00000000000000000 0.00000000000000000 1.00000000000000000 0.00000000000000000 0.00000000000000000 -0.00000000000000000 1.00000000000000000 1.00000000000000000 0.00000000000000000 -0.00000000000000000 40.64999999999999858
1 0.00000000000000000 206.08428571428572695 0.00000000000000000 0.00000000000000000 1.00000000000000000 0.00000000000000000 0.00000000000000000 -0.00000000000000000 1.00000000000000000 1.00000000000000000 0.00000000000000000 -0.00000000000000000 
Triangulations 0

TShapes 160
Ve
0.000000100000013
-0.000000000000013 82.731428571428566 52.399999999999999
0 0

0101101
*
Ve
0.000000100000000
-0.000000000000013 123.031428571428563 52.399999999999999
0 0

0101101
*
Ed
 0.000000100000000 1 1 0
1  1 0 15.965714285714284 56.265714285714282
3  1 2CN 1 0 15.965714285714284 56.265714285714282
0

0101000
+160 3 -159 3 *
Ed
 0.000000100000000 1 1 0
1  2 0 0.000000000000000 6.283185307179586
2  3 1 0 0.000000000000000 6.283185307179586
0

0101100
+160 3 -160 3 *
Ed
 0.000000100000000 1 1 0
1  3 0 0.000000000000000 6.283185307179586
2  4 1 0 0.000000000000000 6.283185307179586
0

0101000
+159 3 -159 3 *
Wi

0101100
+158 0 +157 0 -158 0 -156 0 *
Fa
0  0.000000100000000 1 0

0111000
+155 0 *
Ve
0.000000100000000
-0.000000000000041 82.731428571428566 167.000000000000000
0 0

0101101
*
Ed
 0.000000100000000 1 1 0
1  4 0 0.000000000000000 6.283185307179586
2  5 3 0 0.000000000000000 6.283185307179586
0

0101000
+153 3 -153 3 *
Wi

0101100
+152 0 *
Ve
0.000000100000000
-96.994845223857126 82.731428571428566 -47.912500000000016
0 0

0101101
*
Ed
 0.000000100000000 1 1 0
1  5 0 0.000000000000000 6.283185307179586
2  6 4 4 0.000000000000000 6.283185307179586
0

0101100
+150 3 -150 3 *
Wi

0101100
-149 0 *
Ve
0.000000100000000
-56.000000000000050 82.731428571428566 -88.907345223857092
0 0

0101101
*
Ed
 0.000000100000000 1 1 0
1  6 0 0.000000000000000 6.283185307179586
2  7 5 5 0.000000000000000 6.283185307179586
0

0101100
+147 3 -147 3 *
Wi

0101100
-146 0 *
Ve
0.000000100000002
-0.000000000000023 82.731428571428566 -103.912499999999994
0 0

0101101
*
Ed
 0.000000100000000 1 1 0
1  7 0 0.000000000000000 6.283185307179586
2  8 6 6 0.000000000000000 6.283185307179586
0

0101100
+144 3 -144 3 *
Wi

0101100
-143 0 *
Ve
0.000000100000000
-112.000000000000000 82.731428571428566 8.087500000000015
0 0

0101101
*
Ed
 0.000000100000000 1 1 0
1  8 0 0.000000000000000 6.283185307179586
2  9 7 7 0.000000000000000 6.283185307179586
0

0101100
+141 3 -141 3 *
Wi

0101100
-140 0 *
Ve
0.000000100000000
-96.994845223857141 82.731428571428566 64.087499999999991
0 0

0101101
*
Ed
 0.000000100000000 1 1 0
1  9 0 0.000000000000000 6.283185307179586
2  10 8 8 0.000000000000000 6.283185307179586
0

0101100
+138 3 -138 3 *
Wi

0101100
-137 0 *
Ve
0.000000100000000
-55.999999999999972 82.731428571428566 105.082345223857146
0 0

0101101
*
Ed
 0.000000100000000 1 1 0
1  10 0 0.000000000000000 6.283185307179586
2  11 9 9 0.000000000000000 6.283185307179586
0

0101100
+135 3 -135 3 *
Wi

0101100
-134 0 *
Ve
0.000000100000000
56.000000000000014 82.731428571428566 -88.907345223857121
0 0

0101101
*
Ed
 0.000000100000000 1 1 0
1  11 0 0.000000000000000 6.283185307179586
2  12 10 10 0.000000000000000 6.283185307179586
0

0101100
+132 3 -132 3 *
Wi

0101100
-131 0 *
Ve
0.000000100000000
96.994845223857098 82.731428571428566 -47.912500000000051
0 0

0101101
*
Ed
 0.000000100000000 1 1 0
1  12 0 0.000000000000000 6.283185307179586
2  13 11 11 0.000000000000000 6.283185307179586
0

0101100
+129 3 -129 3 *
Wi

0101100
-128 0 *
Wi

0101100
-157 0 *
Ve
0.000000100000002
0.000000000000005 82.731428571428566 120.087500000000006
0 0

0101101
*
Ed
 0.000000100000000 1 1 0
1  13 0 0.000000000000000 6.283185307179586
2  14 12 12 0.000000000000000 6.283185307179586
0

0101100
+125 3 -125 3 *
Wi

0101100
-124 0 *
Ve
0.000000100000000
56.000000000000014 82.731428571428566 105.082345223857132
0 0

0101101
*
Ed
 0.000000100000000 1 1 0
1  14 0 0.000000000000000 6.283185307179586
2  15 13 13 0.000000000000000 6.283185307179586
0

0101100
+122 3 -122 3 *
Wi

0101100
-121 0 *
Ve
0.000000100000000
112.000000000000000 82.731428571428566 8.087500000000000
0 0

0101101
*
Ed
 0.000000100000000 1 1 0
1  15 0 0.000000000000000 6.283185307179586
2  16 14 14 0.000000000000000 6.283185307179586
0

0101100
+119 3 -119 3 *
Wi

0101100
-118 0 *
Ve
0.000000100000000
96.994845223857141 82.731428571428566 64.087499999999991
0 0

0101101
*
Ed
 0.000000100000000 1 1 0
1  16 0 0.000000000000000 6.283185307179586
2  17 15 15 0.000000000000000 6.283185307179586
0

0101100
+116 3 -116 3 *
Wi

0101100
-115 0 *
Fa
0  0.000000100000000 2 0

0111000
+151 0 +148 0 +145 0 +142 0 +139 0 +136 0 +133 0 +130 0 +127 0 +126 0 
+123 0 +120 0 +117 0 +114 0 *
Ve
0.000000100000000
-0.000000000000013 123.031428571428563 53.799999999999997
0 0

0101101
*
Ed
 0.000000100000000 1 1 0
1  17 0 0.000000000000000 6.283185307179586
2  18 17 0 0.000000000000000 6.283185307179586
0

0101000
+112 3 -112 3 *
Wi

0101100
+111 0 *
Wi

0101100
-156 0 *
Fa
0  0.000000100000000 16 0

0111000
+110 0 +109 0 *
Ve
0.000000100000000
-0.000000000000041 66.765714285714282 167.000000000000000
0 0

0101101
*
Ed
 0.000000100000000 1 1 0
1  18 0 0.000000000000000 15.965714285714284
3  19 20CN 3 0 0.000000000000000 15.965714285714284
0

0101000
-153 3 +107 3 *
Ed
 0.000000100000000 1 1 0
1  19 0 0.000000000000000 6.283185307179586
2  21 3 0 0.000000000000000 6.283185307179586
0

0101000
+107 3 -107 3 *
Wi

0101100
-152 0 +106 0 +105 0 -106 0 *
Fa
0  0.000000100000000 3 0

0111000
+104 0 *
Ve
0.000000100000000
-96.994845223857126 66.765714285714282 -47.912500000000016
0 0

0101101
*
Ed
 0.000000100000000 1 1 0
1  20 0 36.115714285714283 52.081428571428567
3  22 23CN 4 0 36.115714285714283 52.081428571428567
0

0101000
+102 16 -150 16 *
Ed
 0.000000100000000 1 1 0
1  21 0 0.000000000000000 6.283185307179586
2  24 4 4 0.000000000000000 6.283185307179586
0

0101100
+102 3 -102 3 *
Wi

0101100
-149 0 +101 4 +100 0 -101 4 *
Fa
0  0.000000100000000 4 4

0111000
+99 0 *
Ve
0.000000100000000
-56.000000000000050 66.765714285714282 -88.907345223857092
0 0

0101101
*
Ed
 0.000000100000000 1 1 0
1  22 0 36.115714285714283 52.081428571428567
3  25 26CN 5 0 36.115714285714283 52.081428571428567
0

0101000
+97 17 -147 17 *
Ed
 0.000000100000000 1 1 0
1  23 0 0.000000000000000 6.283185307179586
2  27 5 5 0.000000000000000 6.283185307179586
0

0101100
+97 3 -97 3 *
Wi

0101100
-146 0 +96 5 +95 0 -96 5 *
Fa
0  0.000000100000000 5 5

0111000
+94 0 *
Ve
0.000000100000002
-0.000000000000023 66.765714285714282 -103.912499999999994
0 0

0101101
*
Ed
 0.000000100000000 1 1 0
1  24 0 36.115714285714283 52.081428571428567
3  28 29CN 6 0 36.115714285714283 52.081428571428567
0

0101000
+92 18 -144 18 *
Ed
 0.000000100000000 1 1 0
1  25 0 0.000000000000000 6.283185307179586
2  30 6 6 0.000000000000000 6.283185307179586
0

0101100
+92 3 -92 3 *
Wi

0101100
-143 0 +91 6 +90 0 -91 6 *
Fa
0  0.000000100000000 6 6

0111000
+89 0 *
Ve
0.000000100000000
-112.000000000000000 66.765714285714282 8.087500000000015
0 0

0101101
*
Ed
 0.000000100000000 1 1 0
1  26 0 36.115714285714283 52.081428571428567
3  31 32CN 7 0 36.115714285714283 52.081428571428567
0

0101000
+87 19 -141 19 *
Ed
 0.000000100000000 1 1 0
1  27 0 0.000000000000000 6.283185307179586
2  33 7 7 0.000000000000000 6.283185307179586
0

0101100
+87 3 -87 3 *
Wi

0101100
-140 0 +86 7 +85 0 -86 7 *
Fa
0  0.000000100000000 7 7

0111000
+84 0 *
Ve
0.000000100000000
-96.994845223857141 66.765714285714282 64.087499999999991
0 0

0101101
*
Ed
 0.000000100000000 1 1 0
1  28 0 36.115714285714283 52.081428571428567
3  34 35CN 8 0 36.115714285714283 52.081428571428567
0

0101000
+82 20 -138 20 *
Ed
 0.000000100000000 1 1 0
1  29 0 0.000000000000000 6.283185307179586
2  36 8 8 0.000000000000000 6.283185307179586
0

0101100
+82 3 -82 3 *
Wi

0101100
-137 0 +81 8 +80 0 -81 8 *
Fa
0  0.000000100000000 8 8

0111000
+79 0 *
Ve
0.000000100000000
-55.999999999999972 66.765714285714282 105.082345223857146
0 0

0101101
*
Ed
 0.000000100000000 1 1 0
1  30 0 36.115714285714283 52.081428571428567
3  37 38CN 9 0 36.115714285714283 52.081428571428567
0

0101000
+77 21 -135 21 *
Ed
 0.000000100000000 1 1 0
1  31 0 0.000000000000000 6.283185307179586
2  39 9 9 0.000000000000000 6.283185307179586
0

0101100
+77 3 -77 3 *
Wi

0101100
-134 0 +76 9 +75 0 -76 9 *
Fa
0  0.000000100000000 9 9

0111000
+74 0 *
Ve
0.000000100000000
56.000000000000014 66.765714285714282 -88.907345223857121
0 0

0101101
*
Ed
 0.000000100000000 1 1 0
1  32 0 36.115714285714283 52.081428571428567
3  40 41CN 10 0 36.115714285714283 52.081428571428567
0

0101000
+72 22 -132 22 *
Ed
 0.000000100000000 1 1 0
1  33 0 0.000000000000000 6.283185307179586
2  42 10 10 0.000000000000000 6.283185307179586
0

0101100
+72 3 -72 3 *
Wi

0101100
-131 0 +71 10 +70 0 -71 10 *
Fa
0  0.000000100000000 10 10

0111000
+69 0 *
Ve
0.000000100000000
96.994845223857098 66.765714285714282 -47.912500000000051
0 0

0101101
*
Ed
 0.000000100000000 1 1 0
1  34 0 36.115714285714283 52.081428571428567
3  43 44CN 11 0 36.115714285714283 52.081428571428567
0

0101000
+67 23 -129 23 *
Ed
 0.000000100000000 1 1 0
1  35 0 0.000000000000000 6.283185307179586
2  45 11 11 0.000000000000000 6.283185307179586
0

0101100
+67 3 -67 3 *
Wi

0101100
-128 0 +66 11 +65 0 -66 11 *
Fa
0  0.000000100000000 11 11

0111000
+64 0 *
Ve
0.000000100000002
0.000000000000005 66.765714285714282 120.087500000000006
0 0

0101101
*
Ed
 0.000000100000000 1 1 0
1  36 0 36.115714285714283 52.081428571428567
3  46 47CN 12 0 36.115714285714283 52.081428571428567
0

0101000
+62 24 -125 24 *
Ed
 0.000000100000000 1 1 0
1  37 0 0.000000000000000 6.283185307179586
2  48 12 12 0.000000000000000 6.283185307179586
0

0101100
+62 3 -62 3 *
Wi

0101100
-124 0 +61 12 +60 0 -61 12 *
Fa
0  0.000000100000000 12 12

0111000
+59 0 *
Ve
0.000000100000000
56.000000000000014 66.765714285714282 105.082345223857132
0 0

0101101
*
Ed
 0.000000100000000 1 1 0
1  38 0 36.115714285714283 52.081428571428567
3  49 50CN 13 0 36.115714285714283 52.081428571428567
0

0101000
+57 25 -122 25 *
Ed
 0.000000100000000 1 1 0
1  39 0 0.000000000000000 6.283185307179586
2  51 13 13 0.000000000000000 6.283185307179586
0

0101100
+57 3 -57 3 *
Wi

0101100
-121 0 +56 13 +55 0 -56 13 *
Fa
0  0.000000100000000 13 13

0111000
+54 0 *
Ve
0.000000100000000
112.000000000000000 66.765714285714282 8.087500000000000
0 0

0101101
*
Ed
 0.000000100000000 1 1 0
1  40 0 36.115714285714283 52.081428571428567
3  52 53CN 14 0 36.115714285714283 52.081428571428567
0

0101000
+52 26 -119 26 *
Ed
 0.000000100000000 1 1 0
1  41 0 0.000000000000000 6.283185307179586
2  54 14 14 0.000000000000000 6.283185307179586
0

0101100
+52 3 -52 3 *
Wi

0101100
-118 0 +51 14 +50 0 -51 14 *
Fa
0  0.000000100000000 14 14

0111000
+49 0 *
Ve
0.000000100000000
96.994845223857141 66.765714285714282 64.087499999999991
0 0

0101101
*
Ed
 0.000000100000000 1 1 0
1  42 0 36.115714285714283 52.081428571428567
3  55 56CN 15 0 36.115714285714283 52.081428571428567
0

0101000
+47 27 -116 27 *
Ed
 0.000000100000000 1 1 0
1  43 0 0.000000000000000 6.283185307179586
2  57 15 15 0.000000000000000 6.283185307179586
0

0101100
+47 3 -47 3 *
Wi

0101100
-115 0 +46 15 +45 0 -46 15 *
Fa
0  0.000000100000000 15 15

0111000
+44 0 *
Ve
0.000000100000000
-0.000000000000013 206.084285714285727 53.799999999999997
0 0

0101101
*
Ed
 0.000000100000000 1 1 0
1  44 0 0.000000000000000 83.052857142857164
3  58 59CN 17 0 0.000000000000000 83.052857142857164
0

0101000
-42 3 +112 3 *
Ed
 0.000000100000000 1 1 0
1  45 0 0.000000000000000 6.283185307179586
2  60 17 0 0.000000000000000 6.283185307179586
0

0101000
+42 3 -42 3 *
Wi

0101100
+41 0 +111 0 -41 0 -40 0 *
Ve
0.000000100000005
53.649693833585850 160.000000000000000 4.018750000000000
0 0

0101101
*
Ed
 0.000000100000000 1 1 0
1  46 0 0.000000000000000 1.000000000000000
2  61 17 0 0.000000000000000 1.000000000000000
2  62 18 0 0.000000000000000 1.000000000000000
0

0101100
+38 3 -38 3 *
Wi

0101100
-37 0 *
Fa
0  0.000000100000000 17 0

0111000
+39 0 +36 0 *
Wi

0101100
+105 0 *
Wi

0101100
-100 0 *
Wi

0101100
-95 0 *
Wi

0101100
-90 0 *
Wi

0101100
-85 0 *
Wi

0101100
-80 0 *
Wi

0101100
-75 0 *
Wi

0101100
-70 0 *
Wi

0101100
-65 0 *
Ve
0.000000100000010
-0.000000000000010 66.765714285714282 40.649999999999999
0 0

0101101
*
Ed
 0.000000100000000 1 1 0
1  47 0 0.000000000000000 6.283185307179586
2  63 20 0 0.000000000000000 6.283185307179586
0

0101100
+25 3 -25 3 *
Wi

0101100
-24 0 *
Wi

0101100
-60 0 *
Wi

0101100
-55 0 *
Wi

0101100
-50 0 *
Wi

0101100
-45 0 *
Fa
0  0.000000100000000 19 0

0111000
+34 0 +33 0 +32 0 +31 0 +30 0 +29 0 +28 0 +27 0 +26 0 +23 0 
+22 0 +21 0 +20 0 +19 0 *
Wi

0101100
+40 0 *
Ve
0.000000100000010
-0.000000000000010 206.084285714285727 40.649999999999999
0 0

0101101
*
Ed
 0.000000100000000 1 1 0
1  48 0 0.000000000000000 6.283185307179586
2  64 20 0 0.000000000000000 6.283185307179586
0

0101100
+16 3 -16 3 *
Wi

0101100
-15 0 *
Fa
0  0.000000100000000 21 0

0111000
+17 0 +14 0 *
Ve
0.000000139396556
40.450860910955896 160.000000000000000 4.018750000000000
0 0

0101101
*
Ed
 0.000000100000000 1 1 0
1  49 0 0.550860910955898 13.749693833585852
3  65 66CN 18 0 0.550860910955898 13.749693833585852
0

0101000
+12 3 -38 3 *
Ed
 0.000000139396555 1 1 0
1  50 0 0.000000000000000 1.000000000000000
2  67 18 0 0.000000000000000 1.000000000000000
2  68 20 0 0.000000000000000 1.000000000000000
0

0101100
+12 3 -12 3 *
Wi

0101100
-37 0 +11 0 +10 0 -11 0 *
Fa
0  0.000000100000000 18 0

0111000
+9 0 *
Ed
 0.000000100000000 1 1 0
1  51 0 1.000000000000000 140.318571428571431
3  69 70CN 20 0 1.000000000000000 140.318571428571431
0

0101000
+25 3 -16 3 *
Wi

0101100
+7 0 +24 0 -7 0 -15 0 *
Wi

0101100
-10 0 *
Fa
0  0.000000100000000 20 0

0111000
+6 0 +5 0 *
Sh

0101100
+154 0 +113 0 -108 0 +103 0 -98 0 -93 0 -88 0 -83 0 -78 0 -73 0 
-68 0 -63 0 -58 0 -53 0 -48 0 -43 0 +35 0 -18 0 +13 0 -8 0 
-4 0 *
So

0100000
+3 0 *
Co

1100000
+2 0 *

+1 1 