
CASCADE Topology V1, (c) Matra-Datavision
Locations 9
1
1.000000000000000 0.000000000000000 0.000000000000000 0.000000000000000 
0.000000000000000 1.000000000000000 0.000000000000000 0.000000000000000 
0.000000000000000 0.000000000000000 1.000000000000000 0.000000000000000 
1
1.000000000000000 0.000000000000000 0.000000000000000 0.000000000000000 
0.000000000000000 0.000000000000000 -1.000000000000000 0.000000000000000 
0.000000000000000 1.000000000000000 0.000000000000000 0.000000000000000 
1
1.000000000000000 0.000000000000000 0.000000000000000 0.000000000000000 
0.000000000000000 1.000000000000000 0.000000000000000 0.000000000000000 
0.000000000000000 0.000000000000000 1.000000000000000 0.000000000000000 
2  3 -1 2 -1 0
2  3 -1 0
1
1.000000000000000 0.000000000000000 0.000000000000000 0.000000000000000 
0.000000000000000 0.000000000000000 1.000000000000000 0.000000000000000 
0.000000000000000 -1.000000000000000 0.000000000000000 0.000000000000000 
1
1.000000000000000 0.000000000000000 0.000000000000000 0.000000000000000 
0.000000000000000 1.000000000000000 0.000000000000000 7.937500000000000 
0.000000000000000 0.000000000000000 1.000000000000000 0.000000000000000 
2  6 1 7 1 0
2  3 -1 7 -1 6 -1 0
Curve2ds 12
1 6.28318530717958623 -6.28318530717958623 0.00000000000000000 1.00000000000000000 
1 0.00000000000000000 -6.28318530717958623 0.00000000000000000 1.00000000000000000 
1 0.00000000000000000 0.59088167428744010 1.00000000000000000 0.00000000000000000 
1 0.00000000000000000 1.57079632679489656 1.00000000000000000 0.00000000000000000 
1 0.00000000000000000 0.00000000000000000 1.00000000000000000 0.00000000000000000 
1 0.00000000000000000 7.93750000000000000 1.00000000000000000 0.00000000000000000 
1 6.28318530717958623 -0.00000000000000000 0.00000000000000000 1.00000000000000000 
1 0.00000000000000000 -0.00000000000000000 0.00000000000000000 1.00000000000000000 
1 0.00000000000000000 0.16262466502095194 1.00000000000000000 0.00000000000000000 
1 6.28318530717958623 -6.28318530717958623 0.00000000000000000 1.00000000000000000 
1 0.00000000000000000 -6.28318530717958623 0.00000000000000000 1.00000000000000000 
1 0.00000000000000000 1.57079632679489656 1.00000000000000000 0.00000000000000000 
Curves 7
2 0.00000000000000000 0.00000000000000000 -3.59419921875000181 -0.00000000000000024 -1.00000000000000000 0.00000000000000000 1.00000000000000000 -0.00000000000000024 0.00000000000000000 0.00000000000000000 0.00000000000000000 1.00000000000000000 6.45169921875000174
2 0.00000000000000000 0.00000000000000000 0.00000000000000000 0.00000000000000000 0.00000000000000000 1.00000000000000000 1.00000000000000000 0.00000000000000000 -0.00000000000000000 -0.00000000000000000 1.00000000000000000 0.00000000000000000 5.35781250000000053
2 0.00000000000000000 0.00000000000000000 0.00000000000000000 0.00000000000000000 1.00000000000000000 0.00000000000000000 0.00000000000000000 -0.00000000000000000 1.00000000000000000 1.00000000000000000 0.00000000000000000 -0.00000000000000000 2.38125000000000009
2 0.00000000000000000 7.93750000000000000 0.00000000000000000 0.00000000000000000 1.00000000000000000 0.00000000000000000 0.00000000000000000 -0.00000000000000000 1.00000000000000000 1.00000000000000000 0.00000000000000000 -0.00000000000000000 2.38125000000000009
1 -0.00000000000000058 0.00000000000000000 2.38125000000000009 0.00000000000000000 1.00000000000000000 0.00000000000000000 
2 0.00000000000000000 0.00000000000000000 0.00000000000000000 0.00000000000000000 0.00000000000000000 1.00000000000000000 1.00000000000000000 0.00000000000000000 -0.00000000000000000 -0.00000000000000000 1.00000000000000000 0.00000000000000000 5.35781249999999964
2 0.00000000000000000 0.00000000000000000 -0.87907573566924224 -0.00000000000000024 -1.00000000000000000 0.00000000000000000 1.00000000000000000 -0.00000000000000024 0.00000000000000000 0.00000000000000000 0.00000000000000000 1.00000000000000000 5.42945015026371447
Polygon3D 0
PolygonOnTriangulations 0
Surfaces 7
4 0.00000000000000000 0.00000000000000000 -3.59419921875000181 0.00000000000000000 0.00000000000000000 1.00000000000000000 1.00000000000000000 0.00000000000000000 -0.00000000000000000 -0.00000000000000000 1.00000000000000000 0.00000000000000000 6.45169921875000174
4 0.00000000000000000 0.00000000000000000 -3.59419921875000181 0.00000000000000000 0.00000000000000000 1.00000000000000000 1.00000000000000000 0.00000000000000000 -0.00000000000000000 -0.00000000000000000 1.00000000000000000 0.00000000000000000 6.45169921875000174
1 -6.35781250000000053 -6.35781250000000053 0.00000000000000000 0.00000000000000000 0.00000000000000000 1.00000000000000000 1.00000000000000000 0.00000000000000000 -0.00000000000000000 -0.00000000000000000 1.00000000000000000 0.00000000000000000 
2 0.00000000000000000 0.00000000000000000 0.00000000000000000 0.00000000000000000 1.00000000000000000 0.00000000000000000 0.00000000000000000 -0.00000000000000000 1.00000000000000000 1.00000000000000000 0.00000000000000000 -0.00000000000000000 2.38125000000000009
1 -6.35781250000000053 -6.35781250000000053 0.00000000000000000 0.00000000000000000 0.00000000000000000 1.00000000000000000 1.00000000000000000 0.00000000000000000 -0.00000000000000000 -0.00000000000000000 1.00000000000000000 0.00000000000000000 
4 0.00000000000000000 0.00000000000000000 -0.87907573566924224 0.00000000000000000 0.00000000000000000 1.00000000000000000 1.00000000000000000 0.00000000000000000 -0.00000000000000000 -0.00000000000000000 1.00000000000000000 0.00000000000000000 5.42945015026371447
4 0.00000000000000000 0.00000000000000000 -0.87907573566924224 0.00000000000000000 0.00000000000000000 1.00000000000000000 1.00000000000000000 0.00000000000000000 -0.00000000000000000 -0.00000000000000000 1.00000000000000000 0.00000000000000000 5.42945015026371447
Triangulations 0

TShapes 30
Ve
0.000000100000005
5.357812500000003 0.000000000000004 -0.000000000000001
0 0

0101101
*
Ve
0.000000100000000
0.000000000000000 -2.857500000000000 0.000000000000000
0 0

0101101
*
Ed
 0.000000100000000 1 1 0
1  1 0 6.874066981467026 7.853981633974483
3  1 2CN 1 0 6.874066981467026 7.853981633974483
0

0101000
+30 4 -29 4 *
Ed
 0.000000100000000 1 1 0
1  2 0 0.000000000000000 6.283185307179586
2  3 1 0 0.000000000000000 6.283185307179586
0

0101100
+30 4 -30 4 *
Ed
 0.000000100000000 1 1 1
2  4 2 0 0.000000000000000 6.283185307179586
2  4 1 0 0.000000000000000 6.283185307179586
0

0101000
+29 4 -29 4 *
Wi

0101100
+28 0 +27 0 -28 0 -26 0 *
Fa
0  0.000000100000000 1 0

0111000
+25 0 *
Wi

0101100
+27 2 *
Ve
0.000000100000000
-0.000000000000001 0.000000000000000 2.381250000000000
0 0

0101101
*
Ed
 0.000000100000000 1 1 0
1  3 0 0.000000000000000 6.283185307179586
2  5 4 0 0.000000000000000 6.283185307179586
0

0101000
+22 5 -22 5 *
Wi

0101100
+21 0 *
Fa
0  0.000000100000000 3 2

0111000
+23 0 +20 0 *
Ve
0.000000100000001
-0.000000000000001 7.937500000000000 2.381250000000000
0 0

0101101
*
Ed
 0.000000100000000 1 1 0
1  4 0 0.000000000000000 6.283185307179586
2  6 4 0 0.000000000000000 6.283185307179586
0

0101000
+18 5 -18 5 *
Ed
 0.000000100000000 1 1 0
1  5 0 0.000000000000000 7.937500000000000
3  7 8CN 4 0 0.000000000000000 7.937500000000000
0

0101000
+22 5 -18 5 *
Wi

0101100
-17 0 +16 0 +21 0 -16 0 *
Fa
0  0.000000100000000 4 0

0111000
+15 0 *
Ve
0.000000100000002
5.357812500000001 7.937500000000000 0.000000000000001
0 0

0101101
*
Ed
 0.000000100000000 1 1 0
1  6 0 0.000000000000000 6.283185307179586
2  9 6 0 0.000000000000000 6.283185307179586
0

0101100
+13 9 -13 9 *
Wi

0101100
+12 8 *
Wi

0101100
-17 0 *
Fa
0  0.000000100000000 5 8

0111000
+11 0 +10 0 *
Ve
0.000000100000000
0.000000000000000 12.487874414594472 0.000000000000001
0 0

0101101
*
Ed
 0.000000100000000 1 1 0
1  7 0 6.445809972200538 7.853981633974483
3  10 11CN 6 0 6.445809972200538 7.853981633974483
0

0101000
+13 9 -8 9 *
Ed
 0.000000100000000 1 1 1
2  12 7 0 0.000000000000000 6.283185307179586
2  12 6 0 0.000000000000000 6.283185307179586
0

0101000
+8 9 -8 9 *
Wi

0101100
+7 0 +12 0 -7 0 -6 0 *
Fa
0  0.000000100000000 6 0

0111000
+5 0 *
Sh

0101100
+24 2 -19 0 +14 0 -9 0 +4 8 *
So

0100000
+3 0 *
Co

1100000
+2 0 *

+1 1 