
CASCADE Topology V1, (c) Matra-Datavision
Locations 3
1
1.000000000000000 0.000000000000000 0.000000000000000 0.000000000000000 
0.000000000000000 1.000000000000000 0.000000000000000 0.000000000000000 
0.000000000000000 0.000000000000000 1.000000000000000 0.000000000000000 
1
1.000000000000000 0.000000000000000 0.000000000000000 0.000000000000000 
0.000000000000000 1.000000000000000 0.000000000000000 0.000000000000000 
0.000000000000000 0.000000000000000 1.000000000000000 0.000000000000000 
2  2 -1 0
Curve2ds 8
1 6.28318530717958623 -0.00000000000000000 0.00000000000000000 1.00000000000000000 
1 0.00000000000000000 -0.00000000000000000 0.00000000000000000 1.00000000000000000 
1 0.00000000000000000 0.00000000000000000 1.00000000000000000 0.00000000000000000 
1 0.00000000000000000 22.22500000000000142 1.00000000000000000 0.00000000000000000 
1 0.00000000000000000 1.50000000000000355 1.00000000000000000 0.00000000000000000 
1 6.28318530717958623 -0.00000000000000000 0.00000000000000000 1.00000000000000000 
1 0.00000000000000000 -0.00000000000000000 0.00000000000000000 1.00000000000000000 
1 0.00000000000000000 0.00000000000000000 1.00000000000000000 0.00000000000000000 
Curves 34
1 -39.42499999999999716 0.00000000000000194 7.93750000000000000 1.00000000000000000 0.00000000000000000 0.00000000000000000 
2 -39.42499999999999716 0.00000000000000000 0.00000000000000000 1.00000000000000000 0.00000000000000000 -0.00000000000000000 0.00000000000000000 0.00000000000000000 1.00000000000000000 0.00000000000000000 -1.00000000000000000 0.00000000000000000 7.93750000000000000
2 -39.42499999999999716 0.00000000000000000 0.00000000000000000 1.00000000000000000 0.00000000000000000 -0.00000000000000000 0.00000000000000000 0.00000000000000000 1.00000000000000000 0.00000000000000000 -1.00000000000000000 0.00000000000000000 7.93750000000000000
2 -39.42499999999999716 0.00000000000000000 0.00000000000000000 1.00000000000000000 0.00000000000000000 -0.00000000000000000 0.00000000000000000 0.00000000000000000 1.00000000000000000 0.00000000000000000 -1.00000000000000000 0.00000000000000000 7.93750000000000000
2 -39.42499999999999716 0.00000000000000000 0.00000000000000000 1.00000000000000000 0.00000000000000000 -0.00000000000000000 0.00000000000000000 0.00000000000000000 1.00000000000000000 0.00000000000000000 -1.00000000000000000 0.00000000000000000 7.93750000000000000
2 -39.42499999999999716 0.00000000000000000 0.00000000000000000 1.00000000000000000 0.00000000000000000 -0.00000000000000000 0.00000000000000000 0.00000000000000000 1.00000000000000000 0.00000000000000000 -1.00000000000000000 0.00000000000000000 7.93750000000000000
2 -39.42499999999999716 0.00000000000000000 0.00000000000000000 1.00000000000000000 0.00000000000000000 -0.00000000000000000 0.00000000000000000 0.00000000000000000 1.00000000000000000 0.00000000000000000 -1.00000000000000000 0.00000000000000000 7.93750000000000000
2 -39.42499999999999716 0.00000000000000000 0.00000000000000000 1.00000000000000000 0.00000000000000000 -0.00000000000000000 0.00000000000000000 0.00000000000000000 1.00000000000000000 0.00000000000000000 -1.00000000000000000 0.00000000000000000 7.93750000000000000
2 -39.42499999999999716 0.00000000000000000 0.00000000000000000 1.00000000000000000 0.00000000000000000 -0.00000000000000000 0.00000000000000000 0.00000000000000000 1.00000000000000000 0.00000000000000000 -1.00000000000000000 0.00000000000000000 7.93750000000000000
2 -39.42499999999999716 0.00000000000000000 0.00000000000000000 1.00000000000000000 0.00000000000000000 -0.00000000000000000 0.00000000000000000 0.00000000000000000 1.00000000000000000 0.00000000000000000 -1.00000000000000000 0.00000000000000000 7.93750000000000000
2 -17.19999999999999574 0.00000000000000000 0.00000000000000000 1.00000000000000000 0.00000000000000000 -0.00000000000000000 0.00000000000000000 0.00000000000000000 1.00000000000000000 0.00000000000000000 -1.00000000000000000 0.00000000000000000 7.93750000000000000
1 -39.42499999999999716 -6.34999999999999964 6.34999999999999964 0.00000000000000000 1.00000000000000000 0.00000000000000000 
1 -39.42499999999999716 -6.34999999999999964 6.34999999999999964 0.00000000000000000 1.00000000000000000 0.00000000000000000 
1 -39.42499999999999716 6.34999999999999964 -6.34999999999999964 0.00000000000000000 0.00000000000000000 1.00000000000000000 
1 -39.42499999999999716 6.34999999999999964 -6.34999999999999964 0.00000000000000000 0.00000000000000000 1.00000000000000000 
1 -39.42499999999999716 6.34999999999999964 -6.34999999999999964 0.00000000000000000 0.00000000000000000 1.00000000000000000 
1 -39.42499999999999716 -6.34999999999999964 -6.34999999999999964 0.00000000000000000 1.00000000000000000 0.00000000000000000 
1 -39.42499999999999716 -6.34999999999999964 -6.34999999999999964 0.00000000000000000 1.00000000000000000 0.00000000000000000 
1 -39.42499999999999716 -6.34999999999999964 -6.34999999999999964 0.00000000000000000 0.00000000000000000 1.00000000000000000 
1 -39.42499999999999716 -6.34999999999999964 -6.34999999999999964 0.00000000000000000 1.00000000000000000 0.00000000000000000 
1 -39.42499999999999716 -6.34999999999999964 -6.34999999999999964 0.00000000000000000 0.00000000000000000 1.00000000000000000 
1 -39.42499999999999716 -6.34999999999999964 -6.34999999999999964 0.00000000000000000 0.00000000000000000 1.00000000000000000 
1 -39.42499999999999716 -6.34999999999999964 6.34999999999999964 0.00000000000000000 1.00000000000000000 0.00000000000000000 
2 -17.19999999999999574 0.00000000000000000 0.00000000000000000 1.00000000000000000 0.00000000000000000 -0.00000000000000000 0.00000000000000000 0.00000000000000000 1.00000000000000000 0.00000000000000000 -1.00000000000000000 0.00000000000000000 6.00000000000000000
1 -44.92499999999999716 -6.34999999999999964 6.34999999999999964 0.00000000000000000 1.00000000000000000 0.00000000000000000 
1 -44.92499999999999716 6.34999999999999964 6.34999999999999964 1.00000000000000000 0.00000000000000000 0.00000000000000000 
1 -44.92499999999999716 -6.34999999999999964 6.34999999999999964 1.00000000000000000 0.00000000000000000 0.00000000000000000 
1 -44.92499999999999716 6.34999999999999964 -6.34999999999999964 1.00000000000000000 0.00000000000000000 0.00000000000000000 
1 -44.92499999999999716 6.34999999999999964 -6.34999999999999964 0.00000000000000000 0.00000000000000000 1.00000000000000000 
1 -44.92499999999999716 -6.34999999999999964 -6.34999999999999964 0.00000000000000000 1.00000000000000000 0.00000000000000000 
1 -44.92499999999999716 -6.34999999999999964 -6.34999999999999964 1.00000000000000000 0.00000000000000000 0.00000000000000000 
1 -44.92499999999999716 -6.34999999999999964 -6.34999999999999964 0.00000000000000000 0.00000000000000000 1.00000000000000000 
1 -18.69999999999999929 0.00000000000000147 6.00000000000000000 1.00000000000000000 0.00000000000000000 0.00000000000000000 
2 -18.69999999999999929 0.00000000000000000 0.00000000000000000 1.00000000000000000 0.00000000000000000 -0.00000000000000000 0.00000000000000000 0.00000000000000000 1.00000000000000000 0.00000000000000000 -1.00000000000000000 0.00000000000000000 6.00000000000000000
Polygon3D 0
PolygonOnTriangulations 0
Surfaces 17
2 -39.42499999999999716 0.00000000000000000 0.00000000000000000 1.00000000000000000 0.00000000000000000 0.00000000000000000 0.00000000000000000 0.00000000000000000 1.00000000000000000 0.00000000000000000 -1.00000000000000000 0.00000000000000000 7.93750000000000000
1 -39.42499999999999716 0.00000000000000000 0.00000000000000000 1.00000000000000000 0.00000000000000000 0.00000000000000000 0.00000000000000000 0.00000000000000000 1.00000000000000000 0.00000000000000000 -1.00000000000000000 0.00000000000000000 
1 -39.42499999999999716 -6.34999999999999964 -6.34999999999999964 1.00000000000000000 0.00000000000000000 0.00000000000000000 0.00000000000000000 0.00000000000000000 1.00000000000000000 0.00000000000000000 -1.00000000000000000 0.00000000000000000 
1 -39.42499999999999716 0.00000000000000000 0.00000000000000000 1.00000000000000000 0.00000000000000000 0.00000000000000000 0.00000000000000000 0.00000000000000000 1.00000000000000000 0.00000000000000000 -1.00000000000000000 0.00000000000000000 
1 -39.42499999999999716 -6.34999999999999964 -6.34999999999999964 1.00000000000000000 0.00000000000000000 0.00000000000000000 0.00000000000000000 0.00000000000000000 1.00000000000000000 0.00000000000000000 -1.00000000000000000 0.00000000000000000 
1 -39.42499999999999716 0.00000000000000000 0.00000000000000000 1.00000000000000000 0.00000000000000000 0.00000000000000000 0.00000000000000000 0.00000000000000000 1.00000000000000000 0.00000000000000000 -1.00000000000000000 0.00000000000000000 
1 -39.42499999999999716 -6.34999999999999964 -6.34999999999999964 1.00000000000000000 0.00000000000000000 0.00000000000000000 0.00000000000000000 0.00000000000000000 1.00000000000000000 0.00000000000000000 -1.00000000000000000 0.00000000000000000 
1 -39.42499999999999716 0.00000000000000000 0.00000000000000000 1.00000000000000000 0.00000000000000000 0.00000000000000000 0.00000000000000000 0.00000000000000000 1.00000000000000000 0.00000000000000000 -1.00000000000000000 0.00000000000000000 
1 -39.42499999999999716 -6.34999999999999964 -6.34999999999999964 1.00000000000000000 0.00000000000000000 0.00000000000000000 0.00000000000000000 0.00000000000000000 1.00000000000000000 0.00000000000000000 -1.00000000000000000 0.00000000000000000 
1 -17.19999999999999574 0.00000000000000000 0.00000000000000000 1.00000000000000000 0.00000000000000000 0.00000000000000000 0.00000000000000000 0.00000000000000000 1.00000000000000000 0.00000000000000000 -1.00000000000000000 0.00000000000000000 
2 -18.69999999999999929 0.00000000000000000 0.00000000000000000 1.00000000000000000 0.00000000000000000 0.00000000000000000 0.00000000000000000 0.00000000000000000 1.00000000000000000 0.00000000000000000 -1.00000000000000000 0.00000000000000000 6.00000000000000000
1 -44.92499999999999716 -6.34999999999999964 6.34999999999999964 0.00000000000000000 0.00000000000000000 1.00000000000000000 1.00000000000000000 0.00000000000000000 -0.00000000000000000 -0.00000000000000000 1.00000000000000000 0.00000000000000000 
1 -44.92499999999999716 6.34999999999999964 -6.34999999999999964 0.00000000000000000 1.00000000000000000 0.00000000000000000 0.00000000000000000 -0.00000000000000000 1.00000000000000000 1.00000000000000000 0.00000000000000000 -0.00000000000000000 
1 -44.92499999999999716 -6.34999999999999964 -6.34999999999999964 0.00000000000000000 0.00000000000000000 1.00000000000000000 1.00000000000000000 0.00000000000000000 -0.00000000000000000 -0.00000000000000000 1.00000000000000000 0.00000000000000000 
1 -44.92499999999999716 -6.34999999999999964 -6.34999999999999964 0.00000000000000000 1.00000000000000000 0.00000000000000000 0.00000000000000000 -0.00000000000000000 1.00000000000000000 1.00000000000000000 0.00000000000000000 -0.00000000000000000 
1 -44.92499999999999716 -6.34999999999999964 -6.34999999999999964 1.00000000000000000 0.00000000000000000 0.00000000000000000 0.00000000000000000 0.00000000000000000 1.00000000000000000 0.00000000000000000 -1.00000000000000000 0.00000000000000000 
1 -18.69999999999999929 0.00000000000000000 0.00000000000000000 1.00000000000000000 0.00000000000000000 0.00000000000000000 0.00000000000000000 0.00000000000000000 1.00000000000000000 0.00000000000000000 -1.00000000000000000 0.00000000000000000 
Triangulations 0

TShapes 92
Ve
0.000000100000000
-17.199999999999996 0.000000000000002 7.937500000000000
0 0

0101101
*
Ve
0.000000100000000
-39.424999999999997 0.000000000000002 7.937500000000000
0 0

0101101
*
Ed
 0.000000100000000 1 1 0
1  1 0 0.000000000000000 22.225000000000001
3  1 2CN 1 0 0.000000000000000 22.225000000000001
0

0101000
-92 3 +91 3 *
Ve
0.000000100000019
-39.424999999999997 4.762499999999950 6.350000000000018
0 0

0101101
*
Ed
 0.000000100000000 1 1 0
1  2 0 5.639684198386308 6.283185307179586
2  3 1 0 5.639684198386308 6.283185307179586
0

0101000
+89 3 -91 3 *
Ve
0.000000100000027
-39.424999999999997 6.350000000000026 4.762499999999930
0 0

0101101
*
Ed
 0.000000100000000 1 1 0
1  3 0 5.355890089177965 5.639684198386308
2  3 1 0 5.355890089177965 5.639684198386308
0

0101000
+87 3 -89 3 *
Ve
0.000000100000169
-39.424999999999997 6.350000000000168 -4.762499999999550
0 0

0101101
*
Ed
 0.000000100000000 1 1 0
1  4 0 4.068887871591464 5.355890089177965
2  3 1 0 4.068887871591464 5.355890089177965
0

0101000
+85 3 -87 3 *
Ve
0.000000100000057
-39.424999999999997 4.762500000000150 -6.349999999999943
0 0

0101101
*
Ed
 0.000000100000000 1 1 0
1  5 0 3.785093762383097 4.068887871591464
2  3 1 0 3.785093762383097 4.068887871591464
0

0101000
+83 3 -85 3 *
Ve
0.000000100000057
-39.424999999999997 -4.762500000000152 -6.349999999999943
0 0

0101101
*
Ed
 0.000000100000000 1 1 0
1  6 0 2.498091544796489 3.785093762383097
2  3 1 0 2.498091544796489 3.785093762383097
0

0101000
+81 3 -83 3 *
Ve
0.000000100000001
-39.424999999999997 -6.350000000000001 -4.762499999999999
0 0

0101101
*
Ed
 0.000000100000000 1 1 0
1  7 0 2.214297435588181 2.498091544796489
2  3 1 0 2.214297435588181 2.498091544796489
0

0101000
+79 3 -81 3 *
Ve
0.000000100000025
-39.424999999999997 -6.350000000000025 4.762499999999934
0 0

0101101
*
Ed
 0.000000100000000 1 1 0
1  8 0 0.927295218001621 2.214297435588181
2  3 1 0 0.927295218001621 2.214297435588181
0

0101000
+77 3 -79 3 *
Ve
0.000000100000021
-39.424999999999997 -4.762499999999942 6.350000000000021
0 0

0101101
*
Ed
 0.000000100000000 1 1 0
1  9 0 0.643501108793277 0.927295218001621
2  3 1 0 0.643501108793277 0.927295218001621
0

0101000
+75 3 -77 3 *
Ed
 0.000000100000000 1 1 0
1  10 0 0.000000000000000 0.643501108793277
2  3 1 0 0.000000000000000 0.643501108793277
0

0101000
+91 3 -75 3 *
Ed
 0.000000100000000 1 1 0
1  11 0 0.000000000000000 6.283185307179586
2  4 1 0 0.000000000000000 6.283185307179586
0

0101000
+92 3 -92 3 *
Wi

0101100
+90 0 +88 0 +86 0 +84 0 +82 0 +80 0 +78 0 +76 0 +74 0 +73 0 
-90 0 -72 0 *
Fa
0  0.000000100000000 1 0

0111000
+71 0 *
Ed
 0.000000100000000 1 1 0
1  12 0 1.587500000000057 11.112499999999949
0

0101000
+75 3 -89 3 *
Wi

0101100
+88 0 +69 0 +73 0 *
Fa
0  0.000000100000000 2 0

0111000
+68 0 *
Ve
0.000000100000000
-39.424999999999997 6.350000000000000 6.350000000000000
0 0

0101101
*
Ed
 0.000000100000000 1 1 0
1  13 0 11.112499999999949 12.699999999999999
0

0101000
+89 3 -66 3 *
Ed
 0.000000100000000 1 1 0
1  14 0 11.112499999999930 12.699999999999999
0

0101000
+87 3 -66 3 *
Wi

0101100
-65 0 +64 0 -86 0 *
Fa
0  0.000000100000000 3 0

0111000
+63 0 *
Ed
 0.000000100000000 1 1 0
1  15 0 1.587500000000450 11.112499999999930
0

0101000
+85 3 -87 3 *
Wi

0101100
+84 0 -61 0 *
Fa
0  0.000000100000000 4 0

0111000
+60 0 *
Ve
0.000000100000000
-39.424999999999997 6.350000000000000 -6.350000000000000
0 0

0101101
*
Ed
 0.000000100000000 1 1 0
1  16 0 0.000000000000000 1.587500000000450
0

0101000
+58 3 -85 3 *
Ed
 0.000000100000000 1 1 0
1  17 0 11.112500000000150 12.699999999999999
0

0101000
+83 3 -58 3 *
Wi

0101100
-82 0 +57 0 +56 0 *
Fa
0  0.000000100000000 5 0

0111000
+55 0 *
Ed
 0.000000100000000 1 1 0
1  18 0 1.587499999999848 11.112500000000150
0

0101000
+81 3 -83 3 *
Wi

0101100
-53 0 +80 0 *
Fa
0  0.000000100000000 6 0

0111000
+52 0 *
Ve
0.000000100000000
-39.424999999999997 -6.350000000000000 -6.350000000000000
0 0

0101101
*
Ed
 0.000000100000000 1 1 0
1  19 0 0.000000000000000 1.587500000000000
0

0101000
+50 3 -79 3 *
Ed
 0.000000100000000 1 1 0
1  20 0 0.000000000000000 1.587499999999848
0

0101000
+50 3 -81 3 *
Wi

0101100
-49 0 -78 0 +48 0 *
Fa
0  0.000000100000000 7 0

0111000
+47 0 *
Ed
 0.000000100000000 1 1 0
1  21 0 1.587500000000000 11.112499999999933
0

0101000
+79 3 -77 3 *
Wi

0101100
+45 0 +76 0 *
Fa
0  0.000000100000000 8 0

0111000
+44 0 *
Ve
0.000000100000000
-39.424999999999997 -6.350000000000000 6.350000000000000
0 0

0101101
*
Ed
 0.000000100000000 1 1 0
1  22 0 11.112499999999933 12.699999999999999
0

0101000
+77 3 -42 3 *
Ed
 0.000000100000000 1 1 0
1  23 0 0.000000000000000 1.587500000000057
0

0101000
+42 3 -75 3 *
Wi

0101100
-41 0 -40 0 -74 0 *
Fa
0  0.000000100000000 9 0

0111000
+39 0 *
Wi

0101100
+72 0 *
Ve
0.000000100000001
-17.199999999999996 0.000000000000001 6.000000000000000
0 0

0101101
*
Ed
 0.000000100000000 1 1 0
1  24 0 0.000000000000000 6.283185307179586
2  5 11 0 0.000000000000000 6.283185307179586
0

0101100
+36 3 -36 3 *
Wi

0101100
-35 0 *
Fa
0  0.000000100000000 10 0

0111000
+37 0 +34 0 *
Ve
0.000000100000000
-44.924999999999997 6.350000000000000 6.350000000000000
0 0

0101101
*
Ve
0.000000100000000
-44.924999999999997 -6.350000000000000 6.350000000000000
0 0

0101101
*
Ed
 0.000000100000000 1 1 0
1  25 0 0.000000000000000 12.699999999999999
0

0101000
-32 3 +31 3 *
Ed
 0.000000100000000 1 1 0
1  26 0 0.000000000000000 5.500000000000000
0

0101000
-66 3 +32 3 *
Ed
 0.000000100000000 1 1 0
1  27 0 0.000000000000000 5.500000000000000
0

0101000
-42 3 +31 3 *
Wi

0101100
-30 0 -29 0 +40 0 +69 0 +65 0 +28 0 *
Fa
0  0.000000100000000 12 0

0111000
+27 0 *
Ve
0.000000100000000
-44.924999999999997 6.350000000000000 -6.350000000000000
0 0

0101101
*
Ed
 0.000000100000000 1 1 0
1  28 0 0.000000000000000 5.500000000000000
0

0101000
-58 3 +25 3 *
Ed
 0.000000100000000 1 1 0
1  29 0 0.000000000000000 12.699999999999999
0

0101000
-32 3 +25 3 *
Wi

0101100
-24 0 -57 0 -61 0 -64 0 +29 0 +23 0 *
Fa
0  0.000000100000000 13 0

0111000
+22 0 *
Ve
0.000000100000000
-44.924999999999997 -6.350000000000000 -6.350000000000000
0 0

0101101
*
Ed
 0.000000100000000 1 1 0
1  30 0 0.000000000000000 12.699999999999999
0

0101000
-25 3 +20 3 *
Ed
 0.000000100000000 1 1 0
1  31 0 0.000000000000000 5.500000000000000
0

0101000
-50 3 +20 3 *
Wi

0101100
-19 0 -24 0 +48 0 +53 0 +56 0 +18 0 *
Fa
0  0.000000100000000 14 0

0111000
+17 0 *
Ed
 0.000000100000000 1 1 0
1  32 0 0.000000000000000 12.699999999999999
0

0101000
-31 3 +20 3 *
Wi

0101100
-18 0 -49 0 -45 0 -41 0 +28 0 +15 0 *
Fa
0  0.000000100000000 15 0

0111000
+14 0 *
Ve
0.000000100000000
-18.699999999999999 0.000000000000001 6.000000000000000
0 0

0101101
*
Ed
 0.000000100000000 1 1 0
1  33 0 0.000000000000000 1.500000000000004
3  6 7CN 11 0 0.000000000000000 1.500000000000004
0

0101000
+12 3 -36 3 *
Ed
 0.000000100000000 1 1 0
1  34 0 0.000000000000000 6.283185307179586
2  8 11 0 0.000000000000000 6.283185307179586
0

0101000
+12 3 -12 3 *
Wi

0101100
-35 0 +11 0 +10 0 -11 0 *
Fa
0  0.000000100000000 11 0

0111000
+9 0 *
Wi

0101100
-15 0 -30 0 +23 0 +19 0 *
Fa
0  0.000000100000000 16 0

0111000
+7 0 *
Wi

0101100
-10 0 *
Fa
0  0.000000100000000 17 0

0111000
-5 0 *
Sh

0101100
+70 0 -67 0 +62 0 -59 0 +54 0 -51 0 +46 0 -43 0 +38 0 +33 0 
+26 0 +21 0 -16 0 -13 0 -8 0 -6 0 +4 0 *
So

0100000
+3 0 *
Co

1100000
+2 0 *

+1 1 