DBRep_DrawableShape

CASCADE Topology V1, (c) Matra-Datavision
Locations 13
1
              1               0               0               0 
              0               1               0               0 
              0               0               1               0 
1
              1               0               0               0 
              0               1               0               0 
              0               0               1               0 
2  2 -1 0
1
              1               0               0               0 
              0               1               0               0 
              0               0               1            25.4 
2  2 -1 4 -1 0
1
              1               0               0               0 
              0               1               0               0 
              0               0               1            12.7 
2  6 1 4 1 0
2  2 -1 4 -1 6 -1 0
1
              1               0               0               0 
              0               1               0               0 
              0               0               1            25.4 
2  2 -1 9 -1 0
1
              1               0               0               0 
              0               1               0               0 
              0               0               1            12.7 
2  11 1 9 1 0
2  2 -1 9 -1 11 -1 0
Curve2ds 64
1 0 3.1749999999999998 1 0 
1 6.2831853071795862 -0 0 1 
1 0 -0 0 1 
1 0 31.75 1 0 
1 0.84106867056793033 0 0 1 
1 0 25.399999999999999 1 0 
1 2.3005239830218631 0 0 1 
1 0 31.75 1 0 
1 3.9826613241577231 0 0 1 
1 0 25.399999999999999 1 0 
1 5.4421166366116562 0 0 1 
1 0 31.75 1 0 
1 0 3.1749999999999998 1 0 
1 0 0 1 0 
1 0 0 1 0 
1 1.0471975511965979 0 0 1 
1 5.4421166366116562 0 0 1 
1 3.9826613241577236 0 0 1 
1 2.0943951023931953 0 0 1 
1 0 0 1 0 
1 4.1887902047863914 0 0 1 
1 2.3005239830218627 0 0 1 
1 0.84106867056793044 0 0 1 
1 5.2359877559829879 0 0 1 
1 6.2831853071795862 -0 0 1 
1 0 -0 0 1 
1 0 0 1 0 
1 0 6.3499999999999996 1 0 
1 0 -0 0 1 
1 6.2831853071795862 -0 0 1 
1 0 6.3499999999999996 1 0 
1 6.2831853071795862 -0 0 1 
1 0 -0 0 1 
1 0 0 1 0 
1 0 12.699999999999999 1 0 
1 0 1 1 0 
1 0 12.699999999999999 1 0 
1 0 0 1 0 
1 0 6.3499999999999996 1 0 
1 6.2831853071795862 -0 0 1 
1 0 -0 0 1 
1 0 0 1 0 
1 0 12.699999999999999 1 0 
1 0 1 1 0 
1 0 12.699999999999999 1 0 
1 0 0 1 0 
1 0 13.699999999999996 1 0 
1 0 1 1 0 
1 0 13.699999999999996 1 0 
1 6.2831853071795862 -0 0 1 
1 0 -0 0 1 
1 0 13.699999999999996 1 0 
1 0 1 1 0 
1 0 13.699999999999996 1 0 
1 6.2831853071795862 -0 0 1 
1 0 -0 0 1 
1 0 1 1 0 
1 0 39.100000000000001 1 0 
1 0 39.100000000000001 1 0 
1 0 39.100000000000001 1 0 
1 0 39.100000000000001 1 0 
1 0 39.100000000000001 1 0 
1 6.2831853071795862 -0 0 1 
1 0 -0 0 1 
Curves 104
2 0 0 3.1749999999999998 0 0 1 1 0 -0 -0 1 0 19.050000000000001
1 19.050000000000001 -4.6699999999999998e-15 0 0 0 1 
2 0 0 31.75 0 0 1 1 0 -0 -0 1 0 19.050000000000001
1 12.699999999999999 14.199031657123665 0 0 0 1 
2 0 0 25.399999999999999 0 0 1 1 0 -0 -0 1 0 19.050000000000001
1 -12.699999999999999 14.199031657123665 0 0 0 1 
2 0 0 31.75 0 0 1 1 0 -0 -0 1 0 19.050000000000001
1 -12.699999999999999 -14.199031657123665 0 0 0 1 
2 0 0 25.399999999999999 0 0 1 1 0 -0 -0 1 0 19.050000000000001
1 12.699999999999999 -14.199031657123665 0 0 0 1 
2 0 0 31.75 0 0 1 1 0 -0 -0 1 0 19.050000000000001
2 0 0 3.1749999999999998 0 0 1 1 0 -0 -0 1 0 25.399999999999999
1 12.699999999999999 0 31.75 0 1 0 
1 12.699999999999999 101.59999999999999 31.75 0 1 0 
2 0 0 31.75 0 0 1 1 0 -0 -0 1 0 25.399999999999999
2 0 0 31.75 0 0 1 1 0 -0 -0 1 0 25.399999999999999
1 12.699999999999999 203.19999999999999 0 0 -1 0 
1 12.699999999999999 21.997045256124743 31.75 0 0 1 
1 12.699999999999999 203.19999999999999 0 0 -1 0 
1 12.699999999999999 189.00096834287632 25.399999999999999 0 0 1 
2 0 203.19999999999999 25.399999999999999 0 0 1 1 0 -0 -0 1 0 19.050000000000001
1 -12.699999999999999 0 0 0 1 0 
1 -12.699999999999999 189.00096834287632 25.399999999999999 0 0 1 
1 -12.699999999999999 0 0 0 1 0 
1 -12.699999999999999 21.997045256124743 31.75 0 0 1 
1 -12.699999999999999 0 31.75 0 -1 0 
1 -12.699999999999999 -38.100000000000001 31.75 0 -1 0 
2 0 0 31.75 0 0 1 1 0 -0 -0 1 0 25.399999999999999
1 -12.699999999999999 -76.200000000000003 0 0 1 0 
1 -12.699999999999999 -21.997045256124743 31.75 0 0 1 
1 -12.699999999999999 -76.200000000000003 0 0 1 0 
1 -12.699999999999999 -62.000968342876334 25.399999999999999 0 0 1 
2 0 -76.200000000000003 25.399999999999999 0 0 1 1 0 -0 -0 1 0 19.050000000000001
1 12.699999999999999 0 0 0 -1 0 
1 12.699999999999999 -62.000968342876334 25.399999999999999 0 0 1 
1 12.699999999999999 0 0 0 -1 0 
1 12.699999999999999 -21.997045256124743 31.75 0 0 1 
1 25.399999999999999 -6.2200000000000001e-15 0 0 0 1 
2 0 0 0 0 0 1 1 0 -0 -0 1 0 25.399999999999999
2 0 0 38.100000000000001 0 0 1 1 0 -0 -0 1 0 25.399999999999999
1 25.399999999999999 -6.2200000000000001e-15 31.75 0 0 1 
2 0 0 38.100000000000001 0 0 1 1 0 -0 -0 1 0 25.399999999999999
2 0 203.19999999999999 38.099999999999994 0 0 1 1 0 -0 -0 1 0 19.050000000000001
2 0 0 38.100000000000001 0 0 1 1 0 -0 -0 1 0 25.399999999999999
1 19.050000000000001 203.19999999999999 25.399999999999999 0 0 1 
2 0 203.19999999999999 25.399999999999999 0 0 1 1 0 -0 -0 1 0 19.050000000000001
2 0 203.19999999999999 38.099999999999994 0 0 1 1 0 -0 -0 1 0 19.050000000000001
1 -12.699999999999999 203.19999999999999 0 1 0 0 
2 0 203.19999999999999 25.399999999999999 0 0 1 1 0 -0 -0 1 0 6.5
1 -12.699999999999999 203.19999999999999 0 1 0 0 
1 -12.699999999999999 0 0 0 1 0 
1 12.699999999999999 203.19999999999999 0 0 -1 0 
2 0 203.19999999999999 38.099999999999994 0 0 1 1 0 -0 -0 1 0 19.050000000000001
2 0 203.19999999999999 25.399999999999999 0 0 1 1 0 -0 -0 1 0 19.050000000000001
2 0 0 38.100000000000001 0 0 1 1 0 -0 -0 1 0 25.399999999999999
2 0 -76.200000000000003 38.099999999999994 0 0 1 1 0 -0 -0 1 0 19.050000000000001
2 0 0 38.100000000000001 0 0 1 1 0 -0 -0 1 0 25.399999999999999
1 19.050000000000001 -76.200000000000003 25.399999999999999 0 0 1 
2 0 -76.200000000000003 25.399999999999999 0 0 1 1 0 -0 -0 1 0 19.050000000000001
2 0 -76.200000000000003 38.099999999999994 0 0 1 1 0 -0 -0 1 0 19.050000000000001
1 12.699999999999999 -76.200000000000003 0 -1 0 0 
2 0 -76.200000000000003 25.399999999999999 0 0 1 1 0 -0 -0 1 0 6.5
1 12.699999999999999 -76.200000000000003 0 -1 0 0 
1 12.699999999999999 0 0 0 -1 0 
1 -12.699999999999999 -76.200000000000003 0 0 1 0 
2 0 -76.200000000000003 38.099999999999994 0 0 1 1 0 -0 -0 1 0 19.050000000000001
2 0 -76.200000000000003 25.399999999999999 0 0 1 1 0 -0 -0 1 0 19.050000000000001
2 0 0 0 0 0 1 1 0 -0 -0 1 0 19.050000000000001
1 12.699999999999999 0 0 0 -1 0 
2 0 0 38.100000000000001 0 0 1 1 0 -0 -0 1 0 19.050000000000001
2 0 0 38.100000000000001 0 0 1 1 0 -0 -0 1 0 19.050000000000001
1 12.699999999999999 203.19999999999999 0 0 -1 0 
1 -12.699999999999999 203.19999999999999 0 1 0 0 
2 0 203.19999999999999 38.099999999999994 0 0 1 1 0 -0 -0 1 0 6.5
1 -12.699999999999999 203.19999999999999 0 1 0 0 
1 -12.699999999999999 0 0 0 1 0 
1 12.699999999999999 203.19999999999999 0 0 -1 0 
2 0 0 38.100000000000001 0 0 1 1 0 -0 -0 1 0 19.050000000000001
1 -12.699999999999999 0 0 0 1 0 
2 0 203.19999999999999 25.399999999999999 0 0 1 1 0 -0 -0 1 0 6.5
2 0 203.19999999999999 38.099999999999994 0 0 1 1 0 -0 -0 1 0 6.5
1 6.5 203.19999999999999 24.399999999999999 0 0 1 
2 0 0 38.100000000000001 0 0 1 1 0 -0 -0 1 0 19.050000000000001
1 -12.699999999999999 -76.200000000000003 0 0 1 0 
1 12.699999999999999 -76.200000000000003 0 -1 0 0 
2 0 -76.200000000000003 38.099999999999994 0 0 1 1 0 -0 -0 1 0 6.5
1 12.699999999999999 -76.200000000000003 0 -1 0 0 
1 12.699999999999999 0 0 0 -1 0 
1 -12.699999999999999 -76.200000000000003 0 0 1 0 
2 0 0 38.100000000000001 0 0 1 1 0 -0 -0 1 0 19.050000000000001
2 0 -76.200000000000003 25.399999999999999 0 0 1 1 0 -0 -0 1 0 6.5
2 0 -76.200000000000003 38.099999999999994 0 0 1 1 0 -0 -0 1 0 6.5
1 6.5 -76.200000000000003 24.399999999999999 0 0 1 
2 0 0 0 0 0 1 1 0 -0 -0 1 0 16.024999999999999
2 0 0 38.100000000000001 0 0 1 1 0 -0 -0 1 0 16.024999999999999
2 0 0 38.100000000000001 0 0 1 1 0 -0 -0 1 0 16.024999999999999
1 12.699999999999999 203.19999999999999 0 0 -1 0 
1 12.699999999999999 0 0 0 -1 0 
1 -12.699999999999999 0 0 0 1 0 
2 0 0 38.100000000000001 0 0 1 1 0 -0 -0 1 0 16.024999999999999
2 0 0 38.100000000000001 0 0 1 1 0 -0 -0 1 0 16.024999999999999
1 -12.699999999999999 -76.200000000000003 0 0 1 0 
2 0 0 38.100000000000001 0 0 1 1 0 -0 -0 1 0 16.024999999999999
1 16.024999999999999 -3.9199999999999998e-15 -1 0 0 1 
Polygon3D 0
PolygonOnTriangulations 0
Surfaces 41
2 0 0 0 0 0 1 1 0 -0 -0 1 0 19.050000000000001
1 0 0 3.1749999999999998 0 0 1 1 0 -0 -0 1 0 
2 0 0 0 0 0 1 1 0 -0 -0 1 0 25.399999999999999
1 0 0 31.75 0 0 1 1 0 -0 -0 1 0 
2 0 0 31.75 0 0 1 1 0 -0 -0 1 0 25.399999999999999
2 0 0 31.75 0 0 1 1 0 -0 -0 1 0 25.399999999999999
1 12.699999999999999 203.19999999999999 0 1 0 0 0 -1 0 0 0 -1 
2 0 203.19999999999999 25.399999999999999 0 0 1 1 0 -0 -0 1 0 19.050000000000001
1 0 101.60000000000001 0 -0 -0 -1 -1 0 0 0 1 -0 
1 -12.699999999999999 0 0 -1 0 0 0 1 0 0 0 -1 
2 0 203.19999999999999 25.399999999999999 0 0 1 1 0 -0 -0 1 0 19.050000000000001
2 0 0 31.75 0 0 1 1 0 -0 -0 1 0 25.399999999999999
1 0 0 31.75 0 0 1 1 0 -0 -0 1 0 
1 -12.699999999999999 -76.200000000000003 0 -1 0 0 0 1 0 0 0 -1 
2 0 -76.200000000000003 25.399999999999999 0 0 1 1 0 -0 -0 1 0 19.050000000000001
1 0 -38.100000000000001 0 -0 -0 -1 -1 0 0 0 1 -0 
1 12.699999999999999 0 0 1 0 0 0 -1 0 0 0 -1 
2 0 -76.200000000000003 25.399999999999999 0 0 1 1 0 -0 -0 1 0 19.050000000000001
1 0 101.60000000000001 0 -0 -0 -1 -1 0 0 0 1 -0 
1 0 101.60000000000001 0 -0 -0 -1 -1 0 0 0 1 -0 
2 0 203.19999999999999 24.399999999999999 0 0 1 1 0 -0 -0 1 0 6.5
1 0 -38.100000000000001 0 -0 -0 -1 -1 0 0 0 1 -0 
1 0 -38.100000000000001 0 -0 -0 -1 -1 0 0 0 1 -0 
2 0 -76.200000000000003 24.399999999999999 0 0 1 1 0 -0 -0 1 0 6.5
1 0 0 0 0 0 1 1 0 -0 -0 1 0 
1 0 0 38.100000000000001 0 0 1 1 0 -0 -0 1 0 
1 0 101.60000000000001 0 -0 -0 -1 -1 0 0 0 1 -0 
1 0 0 38.100000000000001 0 0 1 1 0 -0 -0 1 0 
1 0 203.19999999999999 25.399999999999999 0 0 1 1 0 -0 -0 1 0 
1 0 203.19999999999999 38.099999999999994 0 0 1 1 0 -0 -0 1 0 
1 0 0 38.100000000000001 0 0 1 1 0 -0 -0 1 0 
1 0 -38.100000000000001 0 -0 -0 -1 -1 0 0 0 1 -0 
1 0 0 38.100000000000001 0 0 1 1 0 -0 -0 1 0 
1 0 -76.200000000000003 25.399999999999999 0 0 1 1 0 -0 -0 1 0 
1 0 -76.200000000000003 38.099999999999994 0 0 1 1 0 -0 -0 1 0 
1 0 0 0 0 0 1 1 0 -0 -0 1 0 
2 0 0 -1 0 0 1 1 0 -0 -0 1 0 16.024999999999999
1 0 0 38.100000000000001 0 0 1 1 0 -0 -0 1 0 
1 0 0 38.100000000000001 0 0 1 1 0 -0 -0 1 0 
1 0 0 38.100000000000001 0 0 1 1 0 -0 -0 1 0 
1 0 0 38.100000000000001 0 0 1 1 0 -0 -0 1 0 
Triangulations 0

TShapes 256
Ve
1.00000005e-07
19.05 -5e-15 3.175
0 0

0101101
*
Ed
 1e-07 1 1 0
1  1 0 0 6.28318530717959
2  1 1 0 0 6.28318530717959
0

0101100
+256 3 -256 3 *
Ve
1.00000005e-07
19.05 -5e-15 31.75
0 0

0101101
*
Ed
 1e-07 1 1 0
1  2 0 3.175 31.75
3  2 3CN 1 0 3.175 31.75
0

0101000
+256 3 -254 3 *
Ve
1.50000004e-07
12.7 14.1990316571237 31.75
0 0

0101101
*
Ed
 1e-07 1 1 0
1  3 0 0 0.84106867056793
2  4 1 0 0 0.84106867056793
0

0101000
+254 3 -252 3 *
Ve
1.00000089e-07
12.7 14.1990316571238 25.4
0 0

0101101
*
Ed
 1e-07 1 1 0
1  4 0 25.4 31.75
2  5 1 0 25.4 31.75
0

0101000
+250 3 -252 3 *
Ve
1.00000003e-07
-12.7 14.1990316571237 25.4
0 0

0101101
*
Ed
 1e-07 1 1 0
1  5 0 0.841068670567934 2.30052398302186
2  6 1 0 0.841068670567934 2.30052398302186
0

0101000
+250 3 -248 3 *
Ve
1.50000002e-07
-12.7 14.1990316571237 31.75
0 0

0101101
*
Ed
 1e-07 1 1 0
1  6 0 25.4 31.75
2  7 1 0 25.4 31.75
0

0101000
+248 3 -246 3 *
Ve
1.50000007e-07
-12.7 -14.1990316571237 31.75
0 0

0101101
*
Ed
 1e-07 1 1 0
1  7 0 2.30052398302186 3.98266132415772
2  8 1 0 2.30052398302186 3.98266132415772
0

0101000
+246 3 -244 3 *
Ve
1.00000004e-07
-12.7 -14.1990316571237 25.4
0 0

0101101
*
Ed
 1e-07 1 1 0
1  8 0 25.4 31.75
2  9 1 0 25.4 31.75
0

0101000
+242 3 -244 3 *
Ve
1e-07
12.7 -14.1990316571237 25.4
0 0

0101101
*
Ed
 1e-07 1 1 0
1  9 0 3.98266132415772 5.44211663661166
2  10 1 0 3.98266132415772 5.44211663661166
0

0101000
+242 3 -240 3 *
Ve
1.5e-07
12.7 -14.1990316571237 31.75
0 0

0101101
*
Ed
 1e-07 1 1 0
1  10 0 25.4 31.75
2  11 1 0 25.4 31.75
0

0101000
+240 3 -238 3 *
Ed
 1e-07 1 1 0
1  11 0 5.44211663661166 6.28318530717959
2  12 1 0 5.44211663661166 6.28318530717959
0

0101000
+238 3 -254 3 *
Wi

0101100
+255 0 -253 0 -251 0 +249 0 -247 0 -245 0 -243 0 +241 0 -239 0 -237 0 
-236 0 +253 0 *
Fa
0  1e-07 1 0

0111000
+235 0 *
Ve
1e-07
25.4 -6e-15 3.175
0 0

0101101
*
Ed
 1e-07 1 1 0
1  12 0 0 6.28318530717959
2  13 3 0 0 6.28318530717959
0

0101000
+233 3 -233 3 *
Wi

0101100
+232 0 *
Wi

0101100
-255 0 *
Fa
0  1e-07 2 0

0111000
+231 0 +230 0 *
Ve
1.50000018e-07
12.7 -21.9970452561247 31.75
0 0

0101101
*
Ed
 1.5e-07 1 1 0
1  13 0 -21.9970452561247 -14.1990316571237
0

0101000
+228 3 -238 3 *
Ve
1.50000008e-07
12.7 21.9970452561247 31.75
0 0

0101101
*
Ed
 1.5e-07 1 1 0
1  14 0 -87.4009683428763 -79.6029547438752
0

0101000
+252 3 -226 3 *
Ve
1e-07
25.4 -6e-15 31.75
0 0

0101101
*
Ed
 1e-07 1 1 0
1  15 0 0 1.0471975511966
2  14 5 0 0 1.0471975511966
0

0101000
+224 3 -226 3 *
Ed
 1e-07 1 1 0
1  16 0 5.23598775598299 6.28318530717959
2  15 6 0 5.23598775598299 6.28318530717959
0

0101000
+228 3 -224 3 *
Wi

0101100
-227 0 -236 0 -251 0 -225 0 +223 0 +222 0 *
Fa
0  1e-07 4 0

0111000
+221 0 *
Ve
1.00000325e-07
12.7000000000002 189.000968342877 25.4
0 0

0101101
*
Ed
 1e-07 1 1 0
1  17 0 14.1990316571234 189.000968342876
0

0101000
+219 5 -250 5 *
Ve
1.00000401e-07
12.7000000000003 21.9970452561244 38.1
0 0

0101101
*
Ed
 1e-07 1 1 0
1  18 0 0 6.34999999999999
2  16 5 0 0 6.34999999999999
0

0101000
+226 3 -217 3 *
Ve
1.00000325e-07
12.7000000000002 189.000968342877 38.1
0 0

0101101
*
Ed
 1e-07 1 1 0
1  19 0 14.1990316571234 181.202954743876
0

0101000
+215 8 -217 8 *
Ed
 1e-07 1 1 0
1  20 0 0 12.7
2  17 8 0 0 12.7
0

0101000
+219 3 -215 3 *
Wi

0101100
-218 4 -249 0 -225 0 -216 0 +214 7 +213 0 *
Fa
0  1e-07 7 4

0111000
+212 0 *
Ve
1.00000099e-07
-12.7 189.000968342876 25.4
0 0

0101101
*
Ed
 1e-07 1 1 0
1  21 0 3.98266132415772 5.44211663661167
0

0101000
+210 3 -219 3 *
Ed
 1e-07 1 1 0
1  22 0 14.1990316571237 189.000968342876
0

0101000
+248 5 -210 5 *
Wi

0101100
+218 4 +209 0 +208 4 +247 0 *
Fa
0  1e-07 9 4

0111000
+207 0 *
Ve
1.00000099e-07
-12.7 189.000968342876 38.1
0 0

0101101
*
Ed
 1e-07 1 1 0
1  23 0 0 12.7
2  18 11 0 0 12.7
0

0101000
+210 3 -205 3 *
Ve
1.0000042e-07
-12.6999999999997 21.9970452561251 38.1
0 0

0101101
*
Ed
 1e-07 1 1 0
1  24 0 21.9970452561251 189.000968342876
0

0101000
+203 8 -205 8 *
Ve
1.50000005e-07
-12.7 21.9970452561247 31.75
0 0

0101101
*
Ed
 1e-07 1 1 0
1  25 0 0 6.34999999999999
2  19 12 0 0 6.34999999999999
0

0101000
+201 3 -203 3 *
Ed
 1.5e-07 1 1 0
1  26 0 -21.9970452561247 -14.1990316571237
0

0101000
+201 3 -246 3 *
Wi

0101100
-208 4 -204 0 +202 7 +200 0 -199 0 +245 0 *
Fa
0  1e-07 10 4

0111000
+198 0 *
Ve
1.50000011e-07
-12.7 -21.9970452561247 31.75
0 0

0101101
*
Ed
 1.5e-07 1 1 0
1  27 0 -23.9009683428763 -16.1029547438753
0

0101000
+244 3 -196 3 *
Ed
 1e-07 1 1 0
1  28 0 2.09439510239319 4.18879020478639
2  20 12 0 2.09439510239319 4.18879020478639
0

0101000
+201 3 -196 3 *
Wi

0101100
-199 0 -243 0 -195 0 +194 0 *
Fa
0  1e-07 13 0

0111000
+193 0 *
Ve
1.00000107e-07
-12.7000000000001 -62.0009683428764 25.4
0 0

0101101
*
Ed
 1e-07 1 1 0
1  29 0 14.1990316571236 62.0009683428763
0

0101000
+191 10 -242 10 *
Ve
1.00000366e-07
-12.7000000000002 -21.9970452561245 38.1
0 0

0101101
*
Ed
 1e-07 1 1 0
1  30 0 0 6.34999999999999
2  21 12 0 0 6.34999999999999
0

0101000
+196 3 -189 3 *
Ve
1.00000107e-07
-12.7000000000001 -62.0009683428764 38.1
0 0

0101101
*
Ed
 1e-07 1 1 0
1  31 0 14.1990316571236 54.2029547438755
0

0101000
+187 13 -189 13 *
Ed
 1e-07 1 1 0
1  32 0 0 12.7
2  22 15 0 0 12.7
0

0101000
+191 3 -187 3 *
Wi

0101100
-190 9 -241 0 -195 0 -188 0 +186 12 +185 0 *
Fa
0  1e-07 14 9

0111000
+184 0 *
Ve
1.00000326e-07
12.7000000000002 -62.0009683428766 25.4
0 0

0101101
*
Ed
 1e-07 1 1 0
1  33 0 0.841068670567914 2.30052398302187
0

0101000
+182 3 -191 3 *
Ed
 1e-07 1 1 0
1  34 0 14.1990316571237 62.0009683428766
0

0101000
+240 10 -182 10 *
Wi

0101100
+190 9 +181 0 +180 9 +239 0 *
Fa
0  1e-07 16 9

0111000
+179 0 *
Ve
1.00000326e-07
12.7000000000002 -62.0009683428766 38.1
0 0

0101101
*
Ed
 1e-07 1 1 0
1  35 0 0 12.7
2  23 18 0 0 12.7
0

0101000
+182 3 -177 3 *
Ve
1.00000622e-07
12.6999999999996 -21.9970452561252 38.1
0 0

0101101
*
Ed
 1e-07 1 1 0
1  36 0 21.9970452561252 62.0009683428766
0

0101000
+175 13 -177 13 *
Ed
 1e-07 1 1 0
1  37 0 0 6.34999999999999
2  24 6 0 0 6.34999999999999
0

0101000
+228 3 -175 3 *
Wi

0101100
-180 9 -176 0 +174 12 +173 0 -227 0 +237 0 *
Fa
0  1e-07 17 9

0111000
+172 0 *
Ve
1e-07
25.4 -6e-15 0
0 0

0101101
*
Ed
 1e-07 1 1 0
1  38 0 0 3.175
3  25 26CN 3 0 0 3.175
0

0101000
-233 3 +170 3 *
Ed
 1e-07 1 1 0
1  39 0 0 6.28318530717959
2  27 3 0 0 6.28318530717959
0

0101000
+170 3 -170 3 *
Wi

0101100
-232 0 +169 0 +168 0 -169 0 *
Fa
0  1e-07 3 0

0111000
+167 0 *
Ve
1e-07
25.4 -6e-15 38.1
0 0

0101101
*
Ed
 1e-07 1 1 0
1  40 0 0 1.04719755119658
2  28 5 0 0 1.04719755119658
0

0101000
+165 3 -217 3 *
Ed
 1e-07 1 1 0
1  41 0 0 6.35
2  29 5 0 0 6.35
2  30 6 0 0 6.35
4 CN 5 0 6 0
0

0101000
-165 3 +224 3 *
Wi

0101100
-164 0 +216 0 +223 0 -163 0 *
Fa
0  1e-07 5 0

0111000
+162 0 *
Ed
 1e-07 1 1 0
1  42 0 5.23598775598296 6.28318530717959
2  31 6 0 5.23598775598296 6.28318530717959
0

0101000
+175 3 -165 3 *
Wi

0101100
+163 0 +222 0 -173 0 -160 0 *
Fa
0  1e-07 6 0

0111000
+159 0 *
Ed
 1e-07 1 1 0
1  43 0 3.98266132415772 5.44211663661167
0

0101000
+205 3 -215 3 *
Ed
 1.00000007e-07 1 1 0
1  44 0 1.04719755119658 2.09439510239318
0

0101000
+217 3 -203 3 *
Wi

0101100
+214 7 +157 0 +202 7 +156 0 *
Fa
0  1e-07 19 7

0111000
+155 0 *
Ve
1e-07
19.05 203.2 38.1
0 0

0101101
*
Ve
1e-07
19.05 203.2 25.4
0 0

0101101
*
Ed
 1e-07 1 1 0
1  45 0 0 12.7
2  32 8 0 0 12.7
2  33 11 0 0 12.7
4 CN 8 0 11 0
0

0101000
-153 3 +152 3 *
Ed
 1e-07 1 1 0
1  46 0 5.44211663661167 6.28318530717959
2  34 8 0 5.44211663661167 6.28318530717959
0

0101000
+219 3 -152 3 *
Ed
 1e-07 1 1 0
1  47 0 5.44211663661167 6.28318530717959
2  35 8 0 5.44211663661167 6.28318530717959
0

0101000
+215 3 -153 3 *
Wi

0101100
+151 0 +150 0 -213 0 -149 0 *
Fa
0  1e-07 8 0

0111000
+148 0 *
Ve
1e-07
6.5 203.2 25.4
0 0

0101101
*
Ve
1e-07
12.7 203.2 25.4
0 0

0101101
*
Ed
 1e-07 1 1 0
1  48 0 19.2 25.4
0

0101000
+146 5 -145 5 *
Ve
1.00000492e-07
-6.50000000000049 203.2 25.4
0 0

0101101
*
Ed
 1e-07 1 1 0
1  49 0 3.14159265358979 6.28318530717959
2  36 21 0 3.14159265358979 6.28318530717959
0

0101000
+143 3 -146 3 *
Ve
1e-07
-12.7 203.2 25.4
0 0

0101101
*
Ed
 1e-07 1 1 0
1  50 0 0 6.19999999999951
0

0101000
+141 5 -143 5 *
Ed
 1e-07 1 1 0
1  51 0 189.000968342876 203.2
0

0101000
+210 5 -141 5 *
Ed
 1e-07 1 1 0
1  52 0 0 14.1990316571234
0

0101000
+145 5 -219 5 *
Wi

0101100
+144 4 +142 0 +140 4 +139 4 -209 0 +138 4 *
Fa
0  1e-07 20 4

0111000
+137 0 *
Ed
 1e-07 1 1 0
1  53 0 0 3.98266132415772
2  37 11 0 0 3.98266132415772
0

0101000
+153 3 -205 3 *
Ed
 1e-07 1 1 0
1  54 0 0 3.98266132415772
2  38 11 0 0 3.98266132415772
0

0101000
+152 3 -210 3 *
Wi

0101100
-135 0 +204 0 +134 0 -151 0 *
Fa
0  1e-07 11 0

0111000
+133 0 *
Ed
 1e-07 1 1 0
1  55 0 2.09439510239318 4.18879020478638
2  39 12 0 2.09439510239318 4.18879020478638
0

0101000
+203 3 -189 3 *
Wi

0101100
-131 0 +188 0 +194 0 -200 0 *
Fa
0  1e-07 12 0

0111000
+130 0 *
Ed
 1e-07 1 1 0
1  56 0 0.841068670567914 2.30052398302187
0

0101000
+177 3 -187 3 *
Ed
 1.00000007e-07 1 1 0
1  57 0 4.18879020478638 5.23598775598296
0

0101000
+189 3 -175 3 *
Wi

0101100
+186 12 +128 0 +174 12 +127 0 *
Fa
0  1e-07 22 12

0111000
+126 0 *
Ve
1e-07
19.05 -76.2 38.1
0 0

0101101
*
Ve
1e-07
19.05 -76.2 25.4
0 0

0101101
*
Ed
 1e-07 1 1 0
1  58 0 0 12.7
2  40 15 0 0 12.7
2  41 18 0 0 12.7
4 CN 15 0 18 0
0

0101000
-124 3 +123 3 *
Ed
 1e-07 1 1 0
1  59 0 2.30052398302187 6.28318530717959
2  42 15 0 2.30052398302187 6.28318530717959
0

0101000
+191 3 -123 3 *
Ed
 1e-07 1 1 0
1  60 0 2.30052398302187 6.28318530717959
2  43 15 0 2.30052398302187 6.28318530717959
0

0101000
+187 3 -124 3 *
Wi

0101100
+122 0 +121 0 -185 0 -120 0 *
Fa
0  1e-07 15 0

0111000
+119 0 *
Ve
1.00000068e-07
-6.49999999999993 -76.2 25.4
0 0

0101101
*
Ve
1e-07
-12.7 -76.2 25.4
0 0

0101101
*
Ed
 1e-07 1 1 0
1  61 0 19.1999999999999 25.4
0

0101000
+117 10 -116 10 *
Ve
1e-07
6.5 -76.2 25.4
0 0

0101101
*
Ed
 1e-07 1 1 0
1  62 0 0 3.14159265358979
2  44 24 0 0 3.14159265358979
0

0101000
+114 3 -117 3 *
Ve
1e-07
12.7 -76.2 25.4
0 0

0101101
*
Ed
 1e-07 1 1 0
1  63 0 0 6.2
0

0101000
+112 10 -114 10 *
Ed
 1e-07 1 1 0
1  64 0 62.0009683428766 76.2
0

0101000
+182 10 -112 10 *
Ed
 1e-07 1 1 0
1  65 0 0 14.1990316571236
0

0101000
+116 10 -191 10 *
Wi

0101100
+115 9 +113 0 +111 9 +110 9 -181 0 +109 9 *
Fa
0  1e-07 23 9

0111000
+108 0 *
Ed
 1e-07 1 1 0
1  66 0 0 0.841068670567914
2  45 18 0 0 0.841068670567914
0

0101000
+124 3 -177 3 *
Ed
 1e-07 1 1 0
1  67 0 0 0.841068670567914
2  46 18 0 0 0.841068670567914
0

0101000
+123 3 -182 3 *
Wi

0101100
-106 0 +176 0 +105 0 -122 0 *
Fa
0  1e-07 18 0

0111000
+104 0 *
Wi

0101100
+168 0 *
Ve
1e-07
19.05 -5e-15 0
0 0

0101101
*
Ed
 1e-07 1 1 0
1  68 0 0 6.28318530717959
0

0101000
+101 3 -101 3 *
Wi

0101100
-100 0 *
Fa
0  1e-07 25 0

0111000
+102 0 +99 0 *
Ve
1.00000158e-07
12.7000000000002 -14.1990316571234 38.1
0 0

0101101
*
Ed
 1.00000007e-07 1 1 0
1  69 0 14.1990316571234 21.9970452561252
0

0101000
+97 13 -175 13 *
Ve
1e-07
19.05 -5e-15 38.1
0 0

0101101
*
Ed
 1e-07 1 1 0
1  70 0 5.44211663661167 6.28318530717959
0

0101000
+97 3 -95 3 *
Ve
1.00000503e-07
12.7000000000005 14.1990316571228 38.1
0 0

0101101
*
Ed
 1e-07 1 1 0
1  71 0 0 0.841068670567879
0

0101000
+95 3 -93 3 *
Ed
 1.00000007e-07 1 1 0
1  72 0 181.202954743876 189.000968342877
0

0101000
+217 8 -93 8 *
Wi

0101100
+96 12 -94 0 -92 0 +91 7 +164 0 +160 0 *
Fa
0  1e-07 26 0

0111000
+90 0 *
Ve
1e-07
6.5 203.2 38.1
0 0

0101101
*
Ve
1e-07
12.7 203.2 38.1
0 0

0101101
*
Ed
 1e-07 1 1 0
1  73 0 19.2 25.4
0

0101000
+88 8 -87 8 *
Ve
1.00000492e-07
-6.50000000000049 203.2 38.1
0 0

0101101
*
Ed
 1e-07 1 1 0
1  74 0 3.14159265358979 6.28318530717959
2  47 21 0 3.14159265358979 6.28318530717959
0

0101000
+85 3 -88 3 *
Ve
1e-07
-12.7 203.2 38.1
0 0

0101101
*
Ed
 1e-07 1 1 0
1  75 0 0 6.19999999999951
0

0101000
+83 8 -85 8 *
Ed
 1e-07 1 1 0
1  76 0 189.000968342876 203.2
0

0101000
+205 8 -83 8 *
Ed
 1e-07 1 1 0
1  77 0 0 14.1990316571234
0

0101000
+87 8 -215 8 *
Wi

0101100
+86 7 +84 0 +82 7 +81 7 -157 0 +80 7 *
Fa
0  1e-07 27 7

0111000
+79 0 *
Ve
1.00000185e-07
-12.6999999999998 14.199031657124 38.1
0 0

0101101
*
Ed
 1.00000007e-07 1 1 0
1  78 0 0.841068670567879 2.30052398302184
0

0101000
+93 3 -77 3 *
Ed
 1.00000007e-07 1 1 0
1  79 0 14.199031657124 21.9970452561251
0

0101000
+77 8 -203 8 *
Wi

0101100
-91 7 -76 0 -75 7 +156 0 *
Fa
0  1e-07 28 0

0111000
+74 0 *
Ed
 1e-07 1 1 0
1  80 0 0 3.14159265358979
2  48 21 0 0 3.14159265358979
0

0101000
+146 3 -143 3 *
Wi

0101100
+138 4 +144 4 -72 0 +140 4 +139 4 +134 0 +150 0 *
Fa
0  1e-07 29 0

0111000
+71 0 *
Ed
 1e-07 1 1 0
1  81 0 0 3.14159265358979
2  49 21 0 0 3.14159265358979
0

0101000
+88 3 -85 3 *
Wi

0101100
+80 7 +86 7 -69 0 +82 7 +81 7 +135 0 +149 0 *
Fa
0  1e-07 30 0

0111000
+68 0 *
Ed
 1e-07 1 1 0
1  82 0 1 13.7
3  50 51CN 21 0 1 13.7
0

0101000
+146 3 -88 3 *
Wi

0101100
-69 0 -84 0 +66 0 +142 0 +72 0 -66 0 *
Fa
0  1e-07 21 0

0111000
+65 0 *
Ve
1.00000051e-07
-12.7 -14.1990316571236 38.1
0 0

0101101
*
Ed
 1e-07 1 1 0
1  83 0 2.30052398302184 3.98266132415772
0

0101000
+77 3 -63 3 *
Ed
 1.00000007e-07 1 1 0
1  84 0 54.2029547438755 62.0009683428764
0

0101000
+189 13 -63 13 *
Wi

0101100
+75 7 -62 0 +61 12 +131 0 *
Fa
0  1e-07 31 0

0111000
+60 0 *
Ve
1.00000068e-07
-6.49999999999993 -76.2 38.1
0 0

0101101
*
Ve
1e-07
-12.7 -76.2 38.1
0 0

0101101
*
Ed
 1e-07 1 1 0
1  85 0 19.1999999999999 25.4
0

0101000
+58 13 -57 13 *
Ve
1e-07
6.5 -76.2 38.1
0 0

0101101
*
Ed
 1e-07 1 1 0
1  86 0 0 3.14159265358979
2  52 24 0 0 3.14159265358979
0

0101000
+55 3 -58 3 *
Ve
1e-07
12.7 -76.2 38.1
0 0

0101101
*
Ed
 1e-07 1 1 0
1  87 0 0 6.2
0

0101000
+53 13 -55 13 *
Ed
 1e-07 1 1 0
1  88 0 62.0009683428766 76.2
0

0101000
+177 13 -53 13 *
Ed
 1e-07 1 1 0
1  89 0 0 14.1990316571236
0

0101000
+57 13 -187 13 *
Wi

0101100
+56 12 +54 0 +52 12 +51 12 -128 0 +50 12 *
Fa
0  1e-07 32 12

0111000
+49 0 *
Ed
 1.00000007e-07 1 1 0
1  90 0 3.98266132415772 5.44211663661167
0

0101000
+63 3 -97 3 *
Wi

0101100
-61 12 -47 0 -96 12 +127 0 *
Fa
0  1e-07 33 0

0111000
+46 0 *
Ed
 1e-07 1 1 0
1  91 0 3.14159265358979 6.28318530717959
2  53 24 0 3.14159265358979 6.28318530717959
0

0101000
+117 3 -114 3 *
Wi

0101100
+109 9 +115 9 -44 0 +111 9 +110 9 +105 0 +121 0 *
Fa
0  1e-07 34 0

0111000
+43 0 *
Ed
 1e-07 1 1 0
1  92 0 3.14159265358979 6.28318530717959
2  54 24 0 3.14159265358979 6.28318530717959
0

0101000
+58 3 -55 3 *
Wi

0101100
+50 12 +56 12 -41 0 +52 12 +51 12 +106 0 +120 0 *
Fa
0  1e-07 35 0

0111000
+40 0 *
Ed
 1e-07 1 1 0
1  93 0 1 13.7
3  55 56CN 24 0 1 13.7
0

0101000
+114 3 -55 3 *
Wi

0101100
-54 0 -41 0 +38 0 +44 0 +113 0 -38 0 *
Fa
0  1e-07 24 0

0111000
+37 0 *
Wi

0101100
+100 0 *
Ve
1.00000004e-07
16.025 -4e-15 0
0 0

0101101
*
Ed
 1e-07 1 1 0
1  94 0 0 6.28318530717959
2  57 37 0 0 6.28318530717959
0

0101100
+34 3 -34 3 *
Wi

0101100
-33 0 *
Fa
0  1e-07 36 0

0111000
+35 0 +32 0 *
Ve
1.00000009e-07
12.7 -9.77295375001846 38.1
0 0

0101101
*
Ve
1.00000004e-07
16.025 -4e-15 38.1
0 0

0101101
*
Ed
 1e-07 1 1 0
1  95 0 5.62730553592089 6.28318530717959
2  58 37 0 5.62730553592089 6.28318530717959
0

0101000
+30 3 -29 3 *
Ve
1.00000075e-07
12.7 9.77295375001859 38.1
0 0

0101101
*
Ed
 1e-07 1 1 0
1  96 0 0 0.655879771258702
2  59 37 0 0 0.655879771258702
0

0101000
+29 3 -27 3 *
Ed
 1.00000007e-07 1 1 0
1  97 0 189.000968342877 193.427046249981
0

0101000
+93 8 -27 8 *
Ed
 1.00000007e-07 1 1 0
1  98 0 9.77295375001846 14.1990316571234
0

0101000
+30 13 -97 13 *
Wi

0101100
-28 0 -26 0 +25 7 +92 0 +94 0 +24 12 *
Fa
0  1e-07 38 0

0111000
+23 0 *
Ve
1.00000008e-07
-12.7 9.77295375001846 38.1
0 0

0101101
*
Ed
 1.00000007e-07 1 1 0
1  99 0 9.77295375001846 14.199031657124
0

0101000
+21 8 -77 8 *
Ed
 1e-07 1 1 0
1  100 0 0.655879771258702 2.4857128823311
2  60 37 0 0.655879771258702 2.4857128823311
0

0101000
+27 3 -21 3 *
Wi

0101100
-20 7 +76 0 -25 7 -19 0 *
Fa
0  1e-07 39 0

0111000
+18 0 *
Ve
1.00000012e-07
-12.7 -9.77295375001846 38.1
0 0

0101101
*
Ed
 1e-07 1 1 0
1  101 0 2.4857128823311 3.79747242484849
2  61 37 0 2.4857128823311 3.79747242484849
0

0101000
+21 3 -16 3 *
Ed
 1.00000007e-07 1 1 0
1  102 0 62.0009683428764 66.4270462499815
0

0101000
+63 13 -16 13 *
Wi

0101100
+62 0 +20 7 -15 0 +14 12 *
Fa
0  1e-07 40 0

0111000
+13 0 *
Ed
 1e-07 1 1 0
1  103 0 3.79747242484849 5.62730553592089
2  62 37 0 3.79747242484849 5.62730553592089
0

0101000
+16 3 -30 3 *
Wi

0101100
-14 12 -11 0 -24 12 +47 0 *
Fa
0  1e-07 41 0

0111000
+10 0 *
Ed
 1e-07 1 1 0
1  104 0 1 39.1
3  63 64CN 37 0 1 39.1
0

0101000
+34 3 -29 3 *
Wi

0101100
-26 0 -19 0 -15 0 -11 0 -28 0 +8 0 +33 0 -8 0 *
Fa
0  1e-07 37 0

0111000
+7 0 *
Sh

0101100
+234 0 +229 0 -220 0 +211 0 +206 0 +197 0 -192 0 +183 0 +178 0 +171 0 
+166 0 +161 0 +158 0 -154 0 +147 0 +136 0 +132 0 +129 0 -125 0 +118 0 
+107 0 +103 0 -98 0 +89 0 -78 0 +73 0 -70 0 +67 0 -64 0 +59 0 
-48 0 +45 0 -42 0 +39 0 -36 0 -31 0 +22 0 +17 0 +12 0 +9 0 
-6 0 *
So

0100000
+5 0 *
Co

0100000
+4 0 *
Co

0100000
+3 0 *
Co

1100000
+2 0 *

+1 1 