
CASCADE Topology V1, (c) Matra-Datavision
Locations 11
1
1.000000000000000 0.000000000000000 0.000000000000000 0.000000000000000 
0.000000000000000 1.000000000000000 0.000000000000000 0.000000000000000 
0.000000000000000 0.000000000000000 1.000000000000000 0.000000000000000 
1
1.000000000000000 0.000000000000000 0.000000000000000 0.000000000000000 
0.000000000000000 1.000000000000000 0.000000000000000 0.000000000000000 
0.000000000000000 0.000000000000000 1.000000000000000 0.000000000000000 
2  2 -1 0
1
1.000000000000000 0.000000000000000 0.000000000000000 0.000000000000000 
0.000000000000000 1.000000000000000 0.000000000000000 0.000000000000000 
0.000000000000000 0.000000000000000 1.000000000000000 0.000000000000000 
2  2 -1 4 -1 0
1
1.000000000000000 0.000000000000000 0.000000000000000 0.000000000000000 
0.000000000000000 -0.500000000000000 -0.866025403784439 0.000000000000000 
0.000000000000000 0.866025403784439 -0.500000000000000 0.000000000000000 
2  2 -1 6 -1 0
1
1.000000000000000 0.000000000000000 0.000000000000000 4.000000000000000 
0.000000000000000 1.000000000000000 0.000000000000000 0.000000000000000 
0.000000000000000 0.000000000000000 1.000000000000000 0.000000000000000 
2  2 -1 8 -1 0
1
1.000000000000000 0.000000000000000 0.000000000000000 0.000000000000000 
0.000000000000000 0.500000000000000 -0.866025403784439 0.000000000000000 
0.000000000000000 0.866025403784439 0.500000000000000 0.000000000000000 
2  2 -1 10 -1 0
Curve2ds 54
1 0.00000000000000000 0.00000000000000000 1.00000000000000000 0.00000000000000000 
1 4.90423389841364887 0.00000000000000000 0.00000000000000000 1.00000000000000000 
1 0.00000000000000000 3.00000000000000000 1.00000000000000000 0.00000000000000000 
1 5.56774161355232788 0.00000000000000000 0.00000000000000000 1.00000000000000000 
1 4.91943141937775863 0.00000000000000000 0.00000000000000000 1.00000000000000000 
1 0.00000000000000000 3.00000000000000000 1.00000000000000000 0.00000000000000000 
1 1.37895140876593691 0.00000000000000000 0.00000000000000000 1.00000000000000000 
1 0.00000000000000000 0.00000000000000000 1.00000000000000000 0.00000000000000000 
1 0.71544369362725835 0.00000000000000000 0.00000000000000000 1.00000000000000000 
1 0.73064121459136733 0.00000000000000000 0.00000000000000000 1.00000000000000000 
1 0.00000000000000000 1.00000000000000000 1.00000000000000000 0.00000000000000000 
1 6.28318530717958623 -0.00000000000000000 0.00000000000000000 1.00000000000000000 
1 0.00000000000000000 -0.00000000000000000 0.00000000000000000 1.00000000000000000 
1 0.00000000000000000 8.00000000000000000 1.00000000000000000 0.00000000000000000 
1 0.31655633660523003 0.00000000000000000 0.00000000000000000 1.00000000000000000 
1 0.00000000000000000 5.00000000000000000 1.00000000000000000 0.00000000000000000 
1 0.00000000000000000 8.00000000000000000 1.00000000000000000 0.00000000000000000 
1 1.36375388780182782 0.00000000000000000 0.00000000000000000 1.00000000000000000 
1 0.00000000000000000 5.00000000000000000 1.00000000000000000 0.00000000000000000 
1 1.77783876578796529 0.00000000000000000 0.00000000000000000 1.00000000000000000 
1 0.00000000000000000 8.00000000000000000 1.00000000000000000 0.00000000000000000 
1 2.41095143899842546 0.00000000000000000 0.00000000000000000 1.00000000000000000 
1 0.00000000000000000 5.00000000000000000 1.00000000000000000 0.00000000000000000 
1 2.82503631698456292 0.00000000000000000 0.00000000000000000 1.00000000000000000 
1 0.00000000000000000 8.00000000000000000 1.00000000000000000 0.00000000000000000 
1 3.45814899019502286 0.00000000000000000 0.00000000000000000 1.00000000000000000 
1 0.00000000000000000 5.00000000000000000 1.00000000000000000 0.00000000000000000 
1 3.87223386818116033 0.00000000000000000 0.00000000000000000 1.00000000000000000 
1 0.00000000000000000 8.00000000000000000 1.00000000000000000 0.00000000000000000 
1 4.50534654139162072 0.00000000000000000 0.00000000000000000 1.00000000000000000 
1 0.00000000000000000 5.00000000000000000 1.00000000000000000 0.00000000000000000 
1 0.00000000000000000 8.00000000000000000 1.00000000000000000 0.00000000000000000 
1 5.55254409258821813 0.00000000000000000 0.00000000000000000 1.00000000000000000 
1 0.00000000000000000 5.00000000000000000 1.00000000000000000 0.00000000000000000 
1 5.96662897057435604 0.00000000000000000 0.00000000000000000 1.00000000000000000 
1 0.00000000000000000 8.00000000000000000 1.00000000000000000 0.00000000000000000 
1 6.28318530717958623 3.00000000000000000 1.00000000000000000 0.00000000000000000 
1 0.00000000000000000 3.00000000000000000 1.00000000000000000 0.00000000000000000 
1 6.61493916474892529 0.00000000000000000 0.00000000000000000 1.00000000000000000 
1 1.76264124482385642 0.00000000000000000 0.00000000000000000 1.00000000000000000 
1 0.00000000000000000 3.00000000000000000 1.00000000000000000 0.00000000000000000 
1 2.42614895996253477 0.00000000000000000 0.00000000000000000 1.00000000000000000 
1 0.00000000000000000 0.00000000000000000 1.00000000000000000 0.00000000000000000 
1 2.80983879602045405 0.00000000000000000 0.00000000000000000 1.00000000000000000 
1 0.00000000000000000 3.00000000000000000 1.00000000000000000 0.00000000000000000 
1 3.47334651115913173 0.00000000000000000 0.00000000000000000 1.00000000000000000 
1 0.00000000000000000 0.00000000000000000 1.00000000000000000 0.00000000000000000 
1 3.85703634721705146 0.00000000000000000 0.00000000000000000 1.00000000000000000 
1 0.00000000000000000 3.00000000000000000 1.00000000000000000 0.00000000000000000 
1 4.52054406235572959 0.00000000000000000 0.00000000000000000 1.00000000000000000 
1 0.00000000000000000 0.00000000000000000 1.00000000000000000 0.00000000000000000 
1 5.95143144961024717 0.00000000000000000 0.00000000000000000 1.00000000000000000 
1 6.28318530717958623 0.00000000000000000 1.00000000000000000 0.00000000000000000 
1 0.00000000000000000 0.00000000000000000 1.00000000000000000 0.00000000000000000 
Curves 95
2 4.00000000000000000 0.00000000000000000 0.00000000000000000 1.00000000000000000 0.00000000000000000 -0.00000000000000000 0.00000000000000000 0.00000000000000000 1.00000000000000000 0.00000000000000000 -1.00000000000000000 0.00000000000000000 6.90000000000000036
1 4.00000000000000000 6.77341353081110853 1.31562500000000004 1.00000000000000000 0.00000000000000000 0.00000000000000000 
2 7.00000000000000000 0.00000000000000000 0.00000000000000000 1.00000000000000000 0.00000000000000000 -0.00000000000000000 0.00000000000000000 0.00000000000000000 1.00000000000000000 0.00000000000000000 -1.00000000000000000 0.00000000000000000 6.90000000000000036
1 4.00000000000000000 4.52607143725945704 5.20813568801967008 1.00000000000000000 0.00000000000000000 0.00000000000000000 
1 4.00000000000000000 -7.90000000000000036 1.31562500000000004 0.00000000000000000 1.00000000000000000 0.00000000000000000 
1 7.00000000000000000 -3.95000000000000018 1.31562500000000004 0.00000000000000000 -1.00000000000000000 0.00000000000000000 
1 -1.00000000000000000 6.26331628287882225 1.31562500000000004 1.00000000000000000 0.00000000000000000 0.00000000000000000 
2 7.00000000000000000 0.00000000000000000 0.00000000000000000 1.00000000000000000 0.00000000000000000 -0.00000000000000000 0.00000000000000000 0.00000000000000000 1.00000000000000000 0.00000000000000000 -1.00000000000000000 0.00000000000000000 6.90000000000000036
1 4.00000000000000000 -6.77341353081110853 1.31562500000000004 1.00000000000000000 0.00000000000000000 0.00000000000000000 
2 4.00000000000000000 0.00000000000000000 0.00000000000000000 1.00000000000000000 0.00000000000000000 -0.00000000000000000 0.00000000000000000 0.00000000000000000 1.00000000000000000 0.00000000000000000 -1.00000000000000000 0.00000000000000000 6.90000000000000036
1 4.00000000000000000 -4.52607143725945527 5.20813568801967186 1.00000000000000000 0.00000000000000000 0.00000000000000000 
1 4.00000000000000000 -7.89999999999999947 1.31562499999999982 0.00000000000000000 1.00000000000000000 0.00000000000000000 
1 7.00000000000000000 0.83563532814609720 -4.07861284494853304 0.00000000000000000 0.49999999999999983 -0.86602540378443882 
1 -1.00000000000000000 -4.27102281329331301 4.76637851290978354 1.00000000000000000 0.00000000000000000 0.00000000000000000 
1 0.00000000000000000 10.99852262806237135 0.00000000000000000 1.00000000000000000 0.00000000000000000 0.00000000000000000 
1 0.00000000000000000 5.49926131403118656 9.52500000000000036 1.00000000000000000 0.00000000000000000 0.00000000000000000 
1 0.00000000000000000 10.99852262806237135 0.00000000000000000 0.00000000000000000 -0.50000000000000000 0.86602540378443871 
1 0.00000000000000000 10.99852262806237135 0.00000000000000000 0.00000000000000000 -0.50000000000000000 0.86602540378443871 
1 0.00000000000000000 5.49926131403118656 -9.52500000000000036 1.00000000000000000 0.00000000000000000 0.00000000000000000 
1 0.00000000000000000 5.49926131403118656 -9.52500000000000036 0.00000000000000000 0.50000000000000000 0.86602540378443871 
1 0.00000000000000000 5.49926131403118656 -9.52500000000000036 0.00000000000000000 0.50000000000000000 0.86602540378443871 
1 0.00000000000000000 -5.49926131403118301 9.52500000000000036 1.00000000000000000 0.00000000000000000 0.00000000000000000 
1 0.00000000000000000 5.49926131403118656 9.52500000000000036 0.00000000000000000 -1.00000000000000000 0.00000000000000000 
1 0.00000000000000000 5.49926131403118656 9.52500000000000036 0.00000000000000000 -1.00000000000000000 0.00000000000000000 
1 0.00000000000000000 -5.49926131403119012 -9.52499999999999680 0.00000000000000000 1.00000000000000000 -0.00000000000000032 
1 0.00000000000000000 -5.49926131403118301 9.52500000000000036 0.00000000000000000 -0.50000000000000033 -0.86602540378443860 
1 0.00000000000000000 -10.99852262806237135 0.00000000000000135 0.00000000000000000 0.49999999999999983 -0.86602540378443882 
2 0.00000000000000000 0.00000000000000000 0.00000000000000000 1.00000000000000000 0.00000000000000000 -0.00000000000000000 0.00000000000000000 0.00000000000000000 1.00000000000000000 0.00000000000000000 -1.00000000000000000 0.00000000000000000 6.39999999999999947
1 0.00000000000000000 -5.49926131403119012 -9.52499999999999680 1.00000000000000000 0.00000000000000000 0.00000000000000000 
1 0.00000000000000000 -5.49926131403119012 -9.52499999999999680 0.00000000000000000 1.00000000000000000 -0.00000000000000032 
1 0.00000000000000000 -10.99852262806237135 0.00000000000000135 1.00000000000000000 0.00000000000000000 0.00000000000000000 
1 0.00000000000000000 -5.49926131403118301 9.52500000000000036 0.00000000000000000 -0.50000000000000033 -0.86602540378443860 
1 0.00000000000000000 -10.99852262806237135 0.00000000000000135 0.00000000000000000 0.49999999999999983 -0.86602540378443882 
1 -1.00000000000000000 0.00000000000000157 6.39999999999999947 1.00000000000000000 0.00000000000000000 0.00000000000000000 
2 7.00000000000000000 0.00000000000000000 0.00000000000000000 1.00000000000000000 0.00000000000000000 -0.00000000000000000 0.00000000000000000 0.00000000000000000 1.00000000000000000 0.00000000000000000 -1.00000000000000000 0.00000000000000000 6.39999999999999947
1 -1.00000000000000000 -1.99229346958550857 6.08200351290978247 1.00000000000000000 0.00000000000000000 0.00000000000000000 
2 4.00000000000000000 0.00000000000000000 0.00000000000000000 1.00000000000000000 0.00000000000000000 -0.00000000000000000 0.00000000000000000 0.00000000000000000 1.00000000000000000 0.00000000000000000 -1.00000000000000000 0.00000000000000000 6.39999999999999947
2 7.00000000000000000 0.00000000000000000 0.00000000000000000 1.00000000000000000 0.00000000000000000 -0.00000000000000000 0.00000000000000000 0.00000000000000000 1.00000000000000000 0.00000000000000000 -1.00000000000000000 0.00000000000000000 6.39999999999999947
1 -1.00000000000000000 -6.26331628287882225 1.31562500000000004 1.00000000000000000 0.00000000000000000 0.00000000000000000 
2 4.00000000000000000 0.00000000000000000 0.00000000000000000 1.00000000000000000 0.00000000000000000 -0.00000000000000000 0.00000000000000000 0.00000000000000000 1.00000000000000000 0.00000000000000000 -1.00000000000000000 0.00000000000000000 6.39999999999999947
1 -1.00000000000000000 -6.26331628287882225 -1.31562500000000004 1.00000000000000000 0.00000000000000000 0.00000000000000000 
2 7.00000000000000000 0.00000000000000000 0.00000000000000000 1.00000000000000000 0.00000000000000000 -0.00000000000000000 0.00000000000000000 0.00000000000000000 1.00000000000000000 0.00000000000000000 -1.00000000000000000 0.00000000000000000 6.39999999999999947
1 -1.00000000000000000 -4.27102281329331390 -4.76637851290978176 1.00000000000000000 0.00000000000000000 0.00000000000000000 
2 4.00000000000000000 0.00000000000000000 0.00000000000000000 1.00000000000000000 0.00000000000000000 -0.00000000000000000 0.00000000000000000 0.00000000000000000 1.00000000000000000 0.00000000000000000 -1.00000000000000000 0.00000000000000000 6.39999999999999947
1 -1.00000000000000000 -1.99229346958550968 -6.08200351290978158 1.00000000000000000 0.00000000000000000 0.00000000000000000 
2 7.00000000000000000 0.00000000000000000 0.00000000000000000 1.00000000000000000 0.00000000000000000 -0.00000000000000000 0.00000000000000000 0.00000000000000000 1.00000000000000000 0.00000000000000000 -1.00000000000000000 0.00000000000000000 6.39999999999999947
1 -1.00000000000000000 1.99229346958550857 -6.08200351290978247 1.00000000000000000 0.00000000000000000 0.00000000000000000 
2 4.00000000000000000 0.00000000000000000 0.00000000000000000 1.00000000000000000 0.00000000000000000 -0.00000000000000000 0.00000000000000000 0.00000000000000000 1.00000000000000000 0.00000000000000000 -1.00000000000000000 0.00000000000000000 6.39999999999999947
1 -1.00000000000000000 4.27102281329331301 -4.76637851290978354 1.00000000000000000 0.00000000000000000 0.00000000000000000 
2 7.00000000000000000 0.00000000000000000 0.00000000000000000 1.00000000000000000 0.00000000000000000 -0.00000000000000000 0.00000000000000000 0.00000000000000000 1.00000000000000000 0.00000000000000000 -1.00000000000000000 0.00000000000000000 6.39999999999999947
1 -1.00000000000000000 6.26331628287882225 -1.31562500000000004 1.00000000000000000 0.00000000000000000 0.00000000000000000 
2 4.00000000000000000 0.00000000000000000 0.00000000000000000 1.00000000000000000 0.00000000000000000 -0.00000000000000000 0.00000000000000000 0.00000000000000000 1.00000000000000000 0.00000000000000000 -1.00000000000000000 0.00000000000000000 6.39999999999999947
2 7.00000000000000000 0.00000000000000000 0.00000000000000000 1.00000000000000000 0.00000000000000000 -0.00000000000000000 0.00000000000000000 0.00000000000000000 1.00000000000000000 0.00000000000000000 -1.00000000000000000 0.00000000000000000 6.39999999999999947
1 -1.00000000000000000 4.27102281329331390 4.76637851290978087 1.00000000000000000 0.00000000000000000 0.00000000000000000 
2 4.00000000000000000 0.00000000000000000 0.00000000000000000 1.00000000000000000 0.00000000000000000 -0.00000000000000000 0.00000000000000000 0.00000000000000000 1.00000000000000000 0.00000000000000000 -1.00000000000000000 0.00000000000000000 6.39999999999999947
1 -1.00000000000000000 1.99229346958551057 6.08200351290978247 1.00000000000000000 0.00000000000000000 0.00000000000000000 
2 7.00000000000000000 0.00000000000000000 0.00000000000000000 1.00000000000000000 0.00000000000000000 -0.00000000000000000 0.00000000000000000 0.00000000000000000 1.00000000000000000 0.00000000000000000 -1.00000000000000000 0.00000000000000000 6.39999999999999947
1 7.00000000000000000 -3.11436467185390242 -2.76298784494853233 0.00000000000000000 -0.50000000000000011 -0.86602540378443860 
1 7.00000000000000000 3.11436467185390109 -2.76298784494853367 0.00000000000000000 0.49999999999999983 -0.86602540378443882 
2 7.00000000000000000 0.00000000000000000 0.00000000000000000 1.00000000000000000 0.00000000000000000 -0.00000000000000000 0.00000000000000000 0.00000000000000000 1.00000000000000000 0.00000000000000000 -1.00000000000000000 0.00000000000000000 6.90000000000000036
2 7.00000000000000000 0.00000000000000000 0.00000000000000000 1.00000000000000000 0.00000000000000000 -0.00000000000000000 0.00000000000000000 0.00000000000000000 1.00000000000000000 0.00000000000000000 -1.00000000000000000 0.00000000000000000 6.90000000000000036
1 4.00000000000000000 -7.89999999999999947 -1.31562499999999982 0.00000000000000000 1.00000000000000000 0.00000000000000000 
1 4.00000000000000000 -2.24734209355165060 6.52376068801967079 1.00000000000000000 0.00000000000000000 0.00000000000000000 
1 7.00000000000000000 -3.95000000000000018 1.31562500000000004 0.00000000000000000 -1.00000000000000000 0.00000000000000000 
1 4.00000000000000000 -7.90000000000000036 1.31562500000000004 0.00000000000000000 1.00000000000000000 0.00000000000000000 
1 4.00000000000000000 -7.90000000000000036 -1.31562500000000004 0.00000000000000000 1.00000000000000000 0.00000000000000000 
1 7.00000000000000000 -3.95000000000000018 -1.31562500000000004 0.00000000000000000 -1.00000000000000000 0.00000000000000000 
1 4.00000000000000000 -6.77341353081110853 -1.31562500000000004 1.00000000000000000 0.00000000000000000 0.00000000000000000 
2 7.00000000000000000 0.00000000000000000 0.00000000000000000 1.00000000000000000 0.00000000000000000 -0.00000000000000000 0.00000000000000000 0.00000000000000000 1.00000000000000000 0.00000000000000000 -1.00000000000000000 0.00000000000000000 6.90000000000000036
1 4.00000000000000000 -4.52607143725945704 -5.20813568801967008 1.00000000000000000 0.00000000000000000 0.00000000000000000 
2 4.00000000000000000 0.00000000000000000 0.00000000000000000 1.00000000000000000 0.00000000000000000 -0.00000000000000000 0.00000000000000000 0.00000000000000000 1.00000000000000000 0.00000000000000000 -1.00000000000000000 0.00000000000000000 6.90000000000000036
1 7.00000000000000000 -3.11436467185390242 -2.76298784494853233 0.00000000000000000 -0.50000000000000011 -0.86602540378443860 
1 4.00000000000000000 -7.90000000000000036 1.31562500000000004 0.00000000000000000 1.00000000000000000 0.00000000000000000 
1 4.00000000000000000 -7.90000000000000036 -1.31562500000000004 0.00000000000000000 1.00000000000000000 0.00000000000000000 
1 7.00000000000000000 -0.83563532814609842 -4.07861284494853304 0.00000000000000000 -0.50000000000000011 -0.86602540378443860 
1 4.00000000000000000 -2.24734209355165282 -6.52376068801967079 1.00000000000000000 0.00000000000000000 0.00000000000000000 
2 7.00000000000000000 0.00000000000000000 0.00000000000000000 1.00000000000000000 0.00000000000000000 -0.00000000000000000 0.00000000000000000 0.00000000000000000 1.00000000000000000 0.00000000000000000 -1.00000000000000000 0.00000000000000000 6.90000000000000036
1 4.00000000000000000 2.24734209355165060 -6.52376068801967079 1.00000000000000000 0.00000000000000000 0.00000000000000000 
2 4.00000000000000000 0.00000000000000000 0.00000000000000000 1.00000000000000000 0.00000000000000000 -0.00000000000000000 0.00000000000000000 0.00000000000000000 1.00000000000000000 0.00000000000000000 -1.00000000000000000 0.00000000000000000 6.90000000000000036
1 7.00000000000000000 0.83563532814609720 -4.07861284494853304 0.00000000000000000 0.49999999999999983 -0.86602540378443882 
1 4.00000000000000000 -7.89999999999999947 1.31562499999999982 0.00000000000000000 1.00000000000000000 0.00000000000000000 
1 4.00000000000000000 -7.89999999999999947 -1.31562499999999982 0.00000000000000000 1.00000000000000000 0.00000000000000000 
1 7.00000000000000000 3.11436467185390109 -2.76298784494853367 0.00000000000000000 0.49999999999999983 -0.86602540378443882 
1 4.00000000000000000 4.52607143725945527 -5.20813568801967186 1.00000000000000000 0.00000000000000000 0.00000000000000000 
2 7.00000000000000000 0.00000000000000000 0.00000000000000000 1.00000000000000000 0.00000000000000000 -0.00000000000000000 0.00000000000000000 0.00000000000000000 1.00000000000000000 0.00000000000000000 -1.00000000000000000 0.00000000000000000 6.90000000000000036
1 4.00000000000000000 6.77341353081110853 -1.31562500000000004 1.00000000000000000 0.00000000000000000 0.00000000000000000 
2 4.00000000000000000 0.00000000000000000 0.00000000000000000 1.00000000000000000 0.00000000000000000 -0.00000000000000000 0.00000000000000000 0.00000000000000000 1.00000000000000000 0.00000000000000000 -1.00000000000000000 0.00000000000000000 6.90000000000000036
1 7.00000000000000000 -3.95000000000000018 -1.31562500000000004 0.00000000000000000 -1.00000000000000000 0.00000000000000000 
1 4.00000000000000000 -7.90000000000000036 -1.31562500000000004 0.00000000000000000 1.00000000000000000 0.00000000000000000 
1 7.00000000000000000 -0.83563532814609842 -4.07861284494853304 0.00000000000000000 -0.50000000000000011 -0.86602540378443860 
1 4.00000000000000000 -7.90000000000000036 -1.31562500000000004 0.00000000000000000 1.00000000000000000 0.00000000000000000 
1 4.00000000000000000 -7.90000000000000036 1.31562500000000004 0.00000000000000000 1.00000000000000000 0.00000000000000000 
1 4.00000000000000000 2.24734209355165326 6.52376068801967079 1.00000000000000000 0.00000000000000000 0.00000000000000000 
2 4.00000000000000000 0.00000000000000000 0.00000000000000000 1.00000000000000000 0.00000000000000000 -0.00000000000000000 0.00000000000000000 0.00000000000000000 1.00000000000000000 0.00000000000000000 -1.00000000000000000 0.00000000000000000 6.90000000000000036
2 4.00000000000000000 0.00000000000000000 0.00000000000000000 1.00000000000000000 0.00000000000000000 -0.00000000000000000 0.00000000000000000 0.00000000000000000 1.00000000000000000 0.00000000000000000 -1.00000000000000000 0.00000000000000000 6.90000000000000036
Polygon3D 0
PolygonOnTriangulations 0
Surfaces 33
2 4.00000000000000000 0.00000000000000000 0.00000000000000000 1.00000000000000000 0.00000000000000000 0.00000000000000000 0.00000000000000000 0.00000000000000000 1.00000000000000000 0.00000000000000000 -1.00000000000000000 0.00000000000000000 6.90000000000000036
1 4.00000000000000000 -7.90000000000000036 1.31562500000000004 0.00000000000000000 0.00000000000000000 1.00000000000000000 1.00000000000000000 0.00000000000000000 0.00000000000000000 0.00000000000000000 1.00000000000000000 0.00000000000000000 
2 -1.00000000000000000 0.00000000000000000 0.00000000000000000 1.00000000000000000 0.00000000000000000 0.00000000000000000 0.00000000000000000 0.00000000000000000 1.00000000000000000 0.00000000000000000 -1.00000000000000000 0.00000000000000000 6.39999999999999947
2 4.00000000000000000 0.00000000000000000 0.00000000000000000 1.00000000000000000 0.00000000000000000 0.00000000000000000 0.00000000000000000 0.00000000000000000 1.00000000000000000 0.00000000000000000 -1.00000000000000000 0.00000000000000000 6.90000000000000036
1 4.00000000000000000 -7.89999999999999947 1.31562499999999982 0.00000000000000000 0.00000000000000000 1.00000000000000000 1.00000000000000000 0.00000000000000000 0.00000000000000000 0.00000000000000000 1.00000000000000000 0.00000000000000000 
1 0.00000000000000000 10.99852262806237135 0.00000000000000000 0.00000000000000000 -0.86602540378443871 -0.50000000000000000 0.00000000000000000 -0.50000000000000000 0.86602540378443871 -1.00000000000000000 0.00000000000000000 0.00000000000000000 
1 0.00000000000000000 5.49926131403118656 -9.52500000000000036 0.00000000000000000 -0.86602540378443871 0.50000000000000000 0.00000000000000000 0.50000000000000000 0.86602540378443871 -1.00000000000000000 0.00000000000000000 0.00000000000000000 
1 0.00000000000000000 5.49926131403118656 9.52500000000000036 0.00000000000000000 0.00000000000000000 -1.00000000000000000 0.00000000000000000 -1.00000000000000000 0.00000000000000000 -1.00000000000000000 -0.00000000000000000 -0.00000000000000000 
1 0.00000000000000000 0.00000000000000054 0.00000000000000000 1.00000000000000000 0.00000000000000000 0.00000000000000000 0.00000000000000000 0.00000000000000000 1.00000000000000000 0.00000000000000000 -1.00000000000000000 0.00000000000000000 
1 0.00000000000000000 -5.49926131403119012 -9.52499999999999680 0.00000000000000000 0.00000000000000032 1.00000000000000000 0.00000000000000000 1.00000000000000000 -0.00000000000000032 -1.00000000000000000 0.00000000000000000 0.00000000000000000 
1 0.00000000000000000 -5.49926131403118301 9.52500000000000036 0.00000000000000000 0.86602540378443860 -0.50000000000000033 0.00000000000000000 -0.50000000000000033 -0.86602540378443860 -1.00000000000000000 0.00000000000000000 0.00000000000000000 
1 0.00000000000000000 -10.99852262806237135 0.00000000000000135 0.00000000000000000 0.86602540378443882 0.49999999999999983 0.00000000000000000 0.49999999999999983 -0.86602540378443882 -1.00000000000000000 0.00000000000000000 0.00000000000000000 
1 7.00000000000000000 0.00000000000000000 0.00000000000000000 1.00000000000000000 0.00000000000000000 0.00000000000000000 0.00000000000000000 0.00000000000000000 1.00000000000000000 0.00000000000000000 -1.00000000000000000 0.00000000000000000 
2 4.00000000000000000 0.00000000000000000 0.00000000000000000 1.00000000000000000 0.00000000000000000 0.00000000000000000 0.00000000000000000 0.00000000000000000 1.00000000000000000 0.00000000000000000 -1.00000000000000000 0.00000000000000000 6.90000000000000036
1 4.00000000000000000 -7.89999999999999947 -1.31562499999999982 0.00000000000000000 0.00000000000000000 1.00000000000000000 1.00000000000000000 0.00000000000000000 0.00000000000000000 0.00000000000000000 1.00000000000000000 0.00000000000000000 
1 7.00000000000000000 0.00000000000000000 0.00000000000000000 1.00000000000000000 0.00000000000000000 0.00000000000000000 0.00000000000000000 0.00000000000000000 1.00000000000000000 0.00000000000000000 -1.00000000000000000 0.00000000000000000 
1 4.00000000000000000 -7.90000000000000036 1.31562500000000004 0.00000000000000000 0.00000000000000000 1.00000000000000000 1.00000000000000000 0.00000000000000000 0.00000000000000000 0.00000000000000000 1.00000000000000000 0.00000000000000000 
1 4.00000000000000000 -7.90000000000000036 -1.31562500000000004 0.00000000000000000 0.00000000000000000 1.00000000000000000 1.00000000000000000 0.00000000000000000 0.00000000000000000 0.00000000000000000 1.00000000000000000 0.00000000000000000 
2 4.00000000000000000 0.00000000000000000 0.00000000000000000 1.00000000000000000 0.00000000000000000 0.00000000000000000 0.00000000000000000 0.00000000000000000 1.00000000000000000 0.00000000000000000 -1.00000000000000000 0.00000000000000000 6.90000000000000036
1 7.00000000000000000 0.00000000000000000 0.00000000000000000 1.00000000000000000 0.00000000000000000 0.00000000000000000 0.00000000000000000 0.00000000000000000 1.00000000000000000 0.00000000000000000 -1.00000000000000000 0.00000000000000000 
1 4.00000000000000000 -7.90000000000000036 1.31562500000000004 0.00000000000000000 0.00000000000000000 1.00000000000000000 1.00000000000000000 0.00000000000000000 0.00000000000000000 0.00000000000000000 1.00000000000000000 0.00000000000000000 
1 4.00000000000000000 -7.90000000000000036 -1.31562500000000004 0.00000000000000000 0.00000000000000000 1.00000000000000000 1.00000000000000000 0.00000000000000000 0.00000000000000000 0.00000000000000000 1.00000000000000000 0.00000000000000000 
2 4.00000000000000000 0.00000000000000000 0.00000000000000000 1.00000000000000000 0.00000000000000000 0.00000000000000000 0.00000000000000000 0.00000000000000000 1.00000000000000000 0.00000000000000000 -1.00000000000000000 0.00000000000000000 6.90000000000000036
1 7.00000000000000000 0.00000000000000000 0.00000000000000000 1.00000000000000000 0.00000000000000000 0.00000000000000000 0.00000000000000000 0.00000000000000000 1.00000000000000000 0.00000000000000000 -1.00000000000000000 0.00000000000000000 
1 4.00000000000000000 -7.89999999999999947 1.31562499999999982 0.00000000000000000 0.00000000000000000 1.00000000000000000 1.00000000000000000 0.00000000000000000 0.00000000000000000 0.00000000000000000 1.00000000000000000 0.00000000000000000 
1 4.00000000000000000 -7.89999999999999947 -1.31562499999999982 0.00000000000000000 0.00000000000000000 1.00000000000000000 1.00000000000000000 0.00000000000000000 0.00000000000000000 0.00000000000000000 1.00000000000000000 0.00000000000000000 
2 4.00000000000000000 0.00000000000000000 0.00000000000000000 1.00000000000000000 0.00000000000000000 0.00000000000000000 0.00000000000000000 0.00000000000000000 1.00000000000000000 0.00000000000000000 -1.00000000000000000 0.00000000000000000 6.90000000000000036
1 7.00000000000000000 0.00000000000000000 0.00000000000000000 1.00000000000000000 0.00000000000000000 0.00000000000000000 0.00000000000000000 0.00000000000000000 1.00000000000000000 0.00000000000000000 -1.00000000000000000 0.00000000000000000 
1 4.00000000000000000 -7.90000000000000036 -1.31562500000000004 0.00000000000000000 0.00000000000000000 1.00000000000000000 1.00000000000000000 0.00000000000000000 0.00000000000000000 0.00000000000000000 1.00000000000000000 0.00000000000000000 
1 7.00000000000000000 0.00000000000000000 0.00000000000000000 1.00000000000000000 0.00000000000000000 0.00000000000000000 0.00000000000000000 0.00000000000000000 1.00000000000000000 0.00000000000000000 -1.00000000000000000 0.00000000000000000 
1 4.00000000000000000 -7.90000000000000036 -1.31562500000000004 0.00000000000000000 0.00000000000000000 1.00000000000000000 1.00000000000000000 0.00000000000000000 0.00000000000000000 0.00000000000000000 1.00000000000000000 0.00000000000000000 
1 4.00000000000000000 -7.90000000000000036 1.31562500000000004 0.00000000000000000 0.00000000000000000 1.00000000000000000 1.00000000000000000 0.00000000000000000 0.00000000000000000 0.00000000000000000 1.00000000000000000 0.00000000000000000 
1 0.00000000000000000 0.00000000000000054 0.00000000000000000 1.00000000000000000 0.00000000000000000 0.00000000000000000 0.00000000000000000 0.00000000000000000 1.00000000000000000 0.00000000000000000 -1.00000000000000000 0.00000000000000000 
Triangulations 0

TShapes 230
Ve
0.000000100000033
4.000000000000000 6.773413530811096 1.315625000000031
0 0

0101101
*
Ve
0.000000100000168
4.000000000000000 4.526071437259562 5.208135688019539
0 0

0101101
*
Ed
 0.000000100000000 1 1 0
1  1 0 4.904233898413654 5.567741613552304
2  1 1 0 4.904233898413654 5.567741613552304
0

0101000
+230 3 -229 3 *
Ve
0.000000150000005
7.000000000000000 6.773413530811109 1.315624999999995
0 0

0101101
*
Ed
 0.000000100000000 1 1 0
1  2 0 0.000000000000000 3.000000000000000
2  2 1 0 0.000000000000000 3.000000000000000
0

0101000
+230 3 -227 3 *
Ve
0.000000150000001
7.000000000000000 4.526071437259457 5.208135688019670
0 0

0101101
*
Ed
 0.000000100000000 1 1 0
1  3 0 4.904233898413649 5.567741613552328
2  3 1 0 4.904233898413649 5.567741613552328
0

0101000
+227 3 -225 3 *
Ed
 0.000000100000000 1 1 0
1  4 0 0.000000000000000 3.000000000000000
2  4 1 0 0.000000000000000 3.000000000000000
0

0101000
+229 3 -225 3 *
Wi

0101100
+228 0 -226 0 -224 0 +223 0 *
Fa
0  0.000000100000000 1 0

0101000
+222 0 *
Ve
0.000000100000006
4.000000000000000 6.263316282878822 1.315625000000000
0 0

0101101
*
Ed
 0.000000100000000 1 1 0
1  5 0 14.163316282878823 14.673413530811096
0

0101000
+220 5 -230 5 *
Ve
0.000000150000001
7.000000000000000 6.263316282878822 1.315625000000000
0 0

0101101
*
Ed
 0.000000150000000 1 1 0
1  6 0 -10.723413530811110 -10.213316282878822
0

0101000
+227 3 -218 3 *
Ed
 0.000000100000000 1 1 0
1  7 0 5.000000000000000 8.000000000000000
2  5 3 0 5.000000000000000 8.000000000000000
0

0101000
+220 3 -218 3 *
Wi

0101100
-219 4 -226 0 -217 0 +216 0 *
Fa
0  0.000000100000000 2 4

0101000
+215 0 *
Ve
0.000000150000002
7.000000000000000 -4.526071437259454 5.208135688019672
0 0

0101101
*
Ve
0.000000150000000
7.000000000000000 -6.773413530811109 1.315625000000000
0 0

0101101
*
Ed
 0.000000100000000 1 1 0
1  8 0 0.715443693627258 1.378951408765937
2  6 4 0 0.715443693627258 1.378951408765937
0

0101000
+213 3 -212 3 *
Ve
0.000000100000032
4.000000000000000 -6.773413530811097 1.315625000000029
0 0

0101101
*
Ed
 0.000000100000000 1 1 0
1  9 0 0.000000000000000 3.000000000000000
2  7 4 0 0.000000000000000 3.000000000000000
0

0101000
+210 3 -212 3 *
Ve
0.000000100000167
4.000000000000000 -4.526071437259560 5.208135688019541
0 0

0101101
*
Ed
 0.000000100000000 1 1 0
1  10 0 0.715443693627282 1.378951408765932
2  8 4 0 0.715443693627282 1.378951408765932
0

0101000
+208 3 -210 3 *
Ed
 0.000000100000000 1 1 0
1  11 0 0.000000000000000 3.000000000000000
2  9 4 0 0.000000000000000 3.000000000000000
0

0101000
+208 3 -213 3 *
Wi

0101100
-211 0 +209 0 +207 0 -206 0 *
Fa
0  0.000000100000000 4 0

0101000
+205 0 *
Ve
0.000000100000003
4.000000000000000 -4.271022813293311 4.766378512909782
0 0

0101101
*
Ed
 0.000000100000000 1 1 0
1  12 0 14.163316282878823 14.673413530811050
0

0101000
+203 7 -208 7 *
Ve
0.000000150000002
7.000000000000000 -4.271022813293312 4.766378512909783
0 0

0101101
*
Ed
 0.000000150000000 1 1 0
1  13 0 -10.723413530811110 -10.213316282878823
0

0101000
+213 3 -201 3 *
Ed
 0.000000100000000 1 1 0
1  14 0 5.000000000000000 8.000000000000000
2  10 3 0 5.000000000000000 8.000000000000000
0

0101000
+203 3 -201 3 *
Wi

0101100
-202 6 -206 0 -200 0 +199 0 *
Fa
0  0.000000100000000 5 6

0101000
+198 0 *
Ve
0.000000100000000
0.000000000000000 10.998522628062371 0.000000000000000
0 0

0101101
*
Ve
0.000000100000000
4.000000000000000 10.998522628062371 0.000000000000000
0 0

0101101
*
Ed
 0.000000100000000 1 1 0
1  15 0 0.000000000000000 4.000000000000000
0

0101000
+196 3 -195 3 *
Ve
0.000000100000000
0.000000000000000 5.499261314031187 9.525000000000000
0 0

0101101
*
Ve
0.000000100000000
4.000000000000000 5.499261314031187 9.525000000000000
0 0

0101101
*
Ed
 0.000000100000000 1 1 0
1  16 0 0.000000000000000 4.000000000000000
0

0101000
+193 3 -192 3 *
Ed
 0.000000100000000 1 1 0
1  17 0 0.000000000000000 10.998522628062371
0

0101000
+196 3 -193 3 *
Ed
 0.000000100000000 1 1 0
1  18 0 0.000000000000000 10.998522628062371
0

0101000
+195 9 -192 9 *
Wi

0101100
+194 0 -191 0 -190 0 +189 8 *
Fa
0  0.000000100000000 6 0

0101000
+188 0 *
Ve
0.000000100000000
0.000000000000000 5.499261314031187 -9.525000000000000
0 0

0101101
*
Ve
0.000000100000000
4.000000000000000 5.499261314031187 -9.525000000000000
0 0

0101101
*
Ed
 0.000000100000000 1 1 0
1  19 0 0.000000000000000 4.000000000000000
0

0101000
+186 3 -185 3 *
Ed
 0.000000100000000 1 1 0
1  20 0 0.000000000000000 10.998522628062371
0

0101000
+186 3 -196 3 *
Ed
 0.000000100000000 1 1 0
1  21 0 0.000000000000000 10.998522628062371
0

0101000
+185 9 -195 9 *
Wi

0101100
+184 0 -194 0 -183 0 +182 8 *
Fa
0  0.000000100000000 7 0

0101000
+181 0 *
Ve
0.000000100000000
0.000000000000000 -5.499261314031183 9.525000000000000
0 0

0101101
*
Ve
0.000000100000000
4.000000000000000 -5.499261314031183 9.525000000000000
0 0

0101101
*
Ed
 0.000000100000000 1 1 0
1  22 0 0.000000000000000 4.000000000000000
0

0101000
+179 3 -178 3 *
Ed
 0.000000100000000 1 1 0
1  23 0 0.000000000000000 10.998522628062370
0

0101000
+193 3 -179 3 *
Ed
 0.000000100000000 1 1 0
1  24 0 0.000000000000000 10.998522628062370
0

0101000
+192 9 -178 9 *
Wi

0101100
+191 0 -177 0 -176 0 +175 8 *
Fa
0  0.000000100000000 8 0

0101000
+174 0 *
Ve
0.000000100000000
0.000000000000000 -5.499261314031190 -9.524999999999997
0 0

0101101
*
Ed
 0.000000100000000 1 1 0
1  25 0 0.000000000000000 10.998522628062377
0

0101000
+172 3 -186 3 *
Ve
0.000000100000000
0.000000000000000 -10.998522628062371 0.000000000000001
0 0

0101101
*
Ed
 0.000000100000000 1 1 0
1  26 0 0.000000000000000 10.998522628062371
0

0101000
+179 3 -170 3 *
Ed
 0.000000100000000 1 1 0
1  27 0 0.000000000000000 10.998522628062368
0

0101000
+170 3 -172 3 *
Wi

0101100
+190 0 +183 0 +176 0 +171 0 +169 0 +168 0 *
Ve
0.000000100000002
0.000000000000000 0.000000000000002 6.399999999999999
0 0

0101101
*
Ed
 0.000000100000000 1 1 0
1  28 0 0.000000000000000 6.283185307179586
2  11 3 0 0.000000000000000 6.283185307179586
0

0101100
+166 3 -166 3 *
Wi

0101100
-165 0 *
Fa
0  0.000000100000000 9 0

0101000
+167 0 +164 0 *
Ve
0.000000100000000
4.000000000000000 -5.499261314031190 -9.524999999999997
0 0

0101101
*
Ed
 0.000000100000000 1 1 0
1  29 0 0.000000000000000 4.000000000000000
0

0101000
+172 3 -162 3 *
Ed
 0.000000100000000 1 1 0
1  30 0 0.000000000000000 10.998522628062377
0

0101000
+162 9 -185 9 *
Wi

0101100
+161 0 -184 0 -171 0 +160 8 *
Fa
0  0.000000100000000 10 0

0101000
+159 0 *
Ve
0.000000100000000
4.000000000000000 -10.998522628062371 0.000000000000001
0 0

0101101
*
Ed
 0.000000100000000 1 1 0
1  31 0 0.000000000000000 4.000000000000000
0

0101000
+170 3 -157 3 *
Ed
 0.000000100000000 1 1 0
1  32 0 0.000000000000000 10.998522628062371
0

0101000
+178 9 -157 9 *
Wi

0101100
+177 0 -156 0 -169 0 +155 8 *
Fa
0  0.000000100000000 11 0

0101000
+154 0 *
Ed
 0.000000100000000 1 1 0
1  33 0 0.000000000000000 10.998522628062368
0

0101000
+157 9 -162 9 *
Wi

0101100
+156 0 -161 0 -168 0 +152 8 *
Fa
0  0.000000100000000 12 0

0101000
+151 0 *
Ve
0.000000100000002
7.000000000000000 0.000000000000002 6.399999999999999
0 0

0101101
*
Ed
 0.000000100000000 1 1 0
1  34 0 1.000000000000000 8.000000000000000
3  12 13CN 3 0 1.000000000000000 8.000000000000000
0

0101000
+166 3 -149 3 *
Ve
0.000000150000003
7.000000000000000 -1.992293469585509 6.082003512909782
0 0

0101101
*
Ed
 0.000000100000000 1 1 0
1  35 0 0.000000000000000 0.316556336605230
2  14 3 0 0.000000000000000 0.316556336605230
0

0101000
+149 3 -147 3 *
Ve
0.000000100000004
4.000000000000000 -1.992293469585507 6.082003512909779
0 0

0101101
*
Ed
 0.000000100000000 1 1 0
1  36 0 5.000000000000000 8.000000000000000
2  15 3 0 5.000000000000000 8.000000000000000
0

0101000
+145 3 -147 3 *
Ed
 0.000000100000000 1 1 0
1  37 0 0.316556336605230 0.730641214591367
2  16 3 0 0.316556336605230 0.730641214591367
0

0101000
+145 3 -203 3 *
Ve
0.000000150000000
7.000000000000000 -6.263316282878822 1.315625000000000
0 0

0101101
*
Ed
 0.000000100000000 1 1 0
1  38 0 0.730641214591367 1.363753887801828
2  17 3 0 0.730641214591367 1.363753887801828
0

0101000
+201 3 -142 3 *
Ve
0.000000100000001
4.000000000000000 -6.263316282878823 1.315625000000000
0 0

0101101
*
Ed
 0.000000100000000 1 1 0
1  39 0 5.000000000000000 8.000000000000000
2  18 3 0 5.000000000000000 8.000000000000000
0

0101000
+140 3 -142 3 *
Ve
0.000000100000001
4.000000000000000 -6.263316282878823 -1.315625000000000
0 0

0101101
*
Ed
 0.000000100000000 1 1 0
1  40 0 1.363753887801828 1.777838765787965
2  19 3 0 1.363753887801828 1.777838765787965
0

0101000
+140 3 -138 3 *
Ve
0.000000150000000
7.000000000000000 -6.263316282878823 -1.315625000000000
0 0

0101101
*
Ed
 0.000000100000000 1 1 0
1  41 0 5.000000000000000 8.000000000000000
2  20 3 0 5.000000000000000 8.000000000000000
0

0101000
+138 3 -136 3 *
Ve
0.000000150000000
7.000000000000000 -4.271022813293314 -4.766378512909782
0 0

0101101
*
Ed
 0.000000100000000 1 1 0
1  42 0 1.777838765787965 2.410951438998425
2  21 3 0 1.777838765787965 2.410951438998425
0

0101000
+136 3 -134 3 *
Ve
0.000000100000001
4.000000000000000 -4.271022813293314 -4.766378512909782
0 0

0101101
*
Ed
 0.000000100000000 1 1 0
1  43 0 5.000000000000000 8.000000000000000
2  22 3 0 5.000000000000000 8.000000000000000
0

0101000
+132 3 -134 3 *
Ve
0.000000100000000
4.000000000000000 -1.992293469585510 -6.082003512909782
0 0

0101101
*
Ed
 0.000000100000000 1 1 0
1  44 0 2.410951438998425 2.825036316984563
2  23 3 0 2.410951438998425 2.825036316984563
0

0101000
+132 3 -130 3 *
Ve
0.000000150000001
7.000000000000000 -1.992293469585510 -6.082003512909782
0 0

0101101
*
Ed
 0.000000100000000 1 1 0
1  45 0 5.000000000000000 8.000000000000000
2  24 3 0 5.000000000000000 8.000000000000000
0

0101000
+130 3 -128 3 *
Ve
0.000000150000001
7.000000000000000 1.992293469585509 -6.082003512909782
0 0

0101101
*
Ed
 0.000000100000000 1 1 0
1  46 0 2.825036316984563 3.458148990195022
2  25 3 0 2.825036316984563 3.458148990195022
0

0101000
+128 3 -126 3 *
Ve
0.000000100000005
4.000000000000000 1.992293469585508 -6.082003512909782
0 0

0101101
*
Ed
 0.000000100000000 1 1 0
1  47 0 5.000000000000000 8.000000000000000
2  26 3 0 5.000000000000000 8.000000000000000
0

0101000
+124 3 -126 3 *
Ve
0.000000100000008
4.000000000000000 4.271022813293312 -4.766378512909783
0 0

0101101
*
Ed
 0.000000100000000 1 1 0
1  48 0 3.458148990195022 3.872233868181159
2  27 3 0 3.458148990195022 3.872233868181159
0

0101000
+124 3 -122 3 *
Ve
0.000000150000001
7.000000000000000 4.271022813293311 -4.766378512909784
0 0

0101101
*
Ed
 0.000000100000000 1 1 0
1  49 0 5.000000000000000 8.000000000000000
2  28 3 0 5.000000000000000 8.000000000000000
0

0101000
+122 3 -120 3 *
Ve
0.000000150000003
7.000000000000000 6.263316282878822 -1.315625000000002
0 0

0101101
*
Ed
 0.000000100000000 1 1 0
1  50 0 3.872233868181159 4.505346541391621
2  29 3 0 3.872233868181159 4.505346541391621
0

0101000
+120 3 -118 3 *
Ve
0.000000100000003
4.000000000000000 6.263316282878822 -1.315625000000000
0 0

0101101
*
Ed
 0.000000100000000 1 1 0
1  51 0 5.000000000000000 8.000000000000000
2  30 3 0 5.000000000000000 8.000000000000000
0

0101000
+116 3 -118 3 *
Ed
 0.000000100000000 1 1 0
1  52 0 4.505346541391622 4.919431419377760
2  31 3 0 4.505346541391622 4.919431419377760
0

0101000
+116 3 -220 3 *
Ve
0.000000150000004
7.000000000000000 4.271022813293317 4.766378512909778
0 0

0101101
*
Ed
 0.000000100000000 1 1 0
1  53 0 4.919431419377759 5.552544092588217
2  32 3 0 4.919431419377759 5.552544092588217
0

0101000
+218 3 -113 3 *
Ve
0.000000100000004
4.000000000000000 4.271022813293315 4.766378512909782
0 0

0101101
*
Ed
 0.000000100000000 1 1 0
1  54 0 5.000000000000000 8.000000000000000
2  33 3 0 5.000000000000000 8.000000000000000
0

0101000
+111 3 -113 3 *
Ve
0.000000100000002
4.000000000000000 1.992293469585510 6.082003512909781
0 0

0101101
*
Ed
 0.000000100000000 1 1 0
1  55 0 5.552544092588218 5.966628970574356
2  34 3 0 5.552544092588218 5.966628970574356
0

0101000
+111 3 -109 3 *
Ve
0.000000150000001
7.000000000000000 1.992293469585511 6.082003512909782
0 0

0101101
*
Ed
 0.000000100000000 1 1 0
1  56 0 5.000000000000000 8.000000000000000
2  35 3 0 5.000000000000000 8.000000000000000
0

0101000
+109 3 -107 3 *
Ed
 0.000000100000000 1 1 0
1  57 0 5.966628970574356 6.283185307179586
2  36 3 0 5.966628970574356 6.283185307179586
0

0101000
+107 3 -149 3 *
Wi

0101100
-148 0 -146 0 +144 0 -143 0 -199 0 -141 0 +139 0 -137 0 -135 0 -133 0 
+131 0 -129 0 -127 0 -125 0 +123 0 -121 0 -119 0 -117 0 +115 0 -114 0 
-216 0 -112 0 +110 0 -108 0 -106 0 -105 0 +148 0 +165 0 *
Fa
0  0.000000100000000 3 0

0101000
+104 0 *
Ve
0.000000150000002
7.000000000000000 2.247342093551653 6.523760688019670
0 0

0101101
*
Ed
 0.000000150000000 1 1 0
1  58 0 -10.723413530811110 -10.213316282878823
0

0101000
+102 3 -107 3 *
Ve
0.000000150000002
7.000000000000000 -2.247342093551651 6.523760688019671
0 0

0101101
*
Ed
 0.000000150000000 1 1 0
1  59 0 -10.723413530811110 -10.213316282878823
0

0101000
+100 3 -147 3 *
Ve
0.000000100000000
7.000000000000000 0.000000000000002 6.900000000000000
0 0

0101101
*
Ed
 0.000000100000000 1 1 0
1  60 0 0.000000000000000 0.331753857569339
2  37 14 0 0.000000000000000 0.331753857569339
0

0101000
+98 3 -100 3 *
Ed
 0.000000100000000 1 1 0
1  61 0 5.951431449610247 6.283185307179586
2  38 14 0 5.951431449610247 6.283185307179586
0

0101000
+102 3 -98 3 *
Wi

0101100
-101 0 -105 0 -146 0 +99 0 +97 0 +96 0 *
Fa
0  0.000000100000000 13 0

0101000
+95 0 *
Ve
0.000000100000049
4.000000000000000 -2.247342093551603 6.523760688019679
0 0

0101101
*
Ed
 0.000000100000000 1 1 0
1  62 0 14.163316282878821 14.673413530811093
0

0101000
+145 7 -93 7 *
Ed
 0.000000100000000 1 1 0
1  63 0 0.000000000000000 3.000000000000000
2  39 14 0 0.000000000000000 3.000000000000000
0

0101000
+93 3 -100 3 *
Wi

0101100
-92 6 -91 0 -99 0 +144 0 *
Fa
0  0.000000100000000 15 6

0101000
+90 0 *
Ed
 0.000000150000000 1 1 0
1  64 0 2.313316282878822 2.823413530811108
0

0101000
+142 3 -212 3 *
Wi

0101100
-200 0 -141 0 -88 0 +211 0 *
Fa
0  0.000000100000000 16 0

0101000
+87 0 *
Ed
 0.000000100000000 1 1 0
1  65 0 1.126586469188903 1.636683717121177
0

0101000
+210 5 -140 5 *
Wi

0101100
-85 4 -139 0 -88 0 +209 0 *
Fa
0  0.000000100000000 17 4

0101000
+84 0 *
Ve
0.000000100000035
4.000000000000000 -6.773413530811095 -1.315625000000032
0 0

0101101
*
Ed
 0.000000100000000 1 1 0
1  66 0 1.126586469188905 1.636683717121177
0

0101000
+82 5 -138 5 *
Ve
0.000000150000001
7.000000000000000 -6.773413530811109 -1.315624999999999
0 0

0101101
*
Ed
 0.000000150000000 1 1 0
1  67 0 2.313316282878823 2.823413530811108
0

0101000
+136 3 -80 3 *
Ed
 0.000000100000000 1 1 0
1  68 0 0.000000000000000 3.000000000000000
2  40 19 0 0.000000000000000 3.000000000000000
0

0101000
+82 3 -80 3 *
Wi

0101100
-81 4 -135 0 -79 0 +78 0 *
Fa
0  0.000000100000000 18 4

0101000
+77 0 *
Ve
0.000000150000001
7.000000000000000 -4.526071437259458 -5.208135688019669
0 0

0101101
*
Ed
 0.000000100000000 1 1 0
1  69 0 1.762641244823856 2.426148959962534
2  41 19 0 1.762641244823856 2.426148959962534
0

0101000
+80 3 -75 3 *
Ve
0.000000100000164
4.000000000000000 -4.526071437259559 -5.208135688019542
0 0

0101101
*
Ed
 0.000000100000000 1 1 0
1  70 0 0.000000000000000 3.000000000000000
2  42 19 0 0.000000000000000 3.000000000000000
0

0101000
+73 3 -75 3 *
Ed
 0.000000100000000 1 1 0
1  71 0 1.762641244823861 2.426148959962511
2  43 19 0 1.762641244823861 2.426148959962511
0

0101000
+82 3 -73 3 *
Wi

0101100
-74 0 +72 0 +71 0 -78 0 *
Fa
0  0.000000100000000 19 0

0101000
+70 0 *
Ed
 0.000000150000000 1 1 0
1  72 0 2.313316282878823 2.823413530811108
0

0101000
+134 3 -75 3 *
Wi

0101100
-133 0 -68 0 +74 0 +79 0 *
Fa
0  0.000000100000000 20 0

0101000
+67 0 *
Ed
 0.000000100000000 1 1 0
1  73 0 1.126586469188951 1.636683717121177
0

0101000
+73 11 -132 11 *
Wi

0101100
-65 10 -131 0 -68 0 +72 0 *
Fa
0  0.000000100000000 21 10

0101000
+64 0 *
Ve
0.000000100000093
4.000000000000000 -2.247342093551745 -6.523760688019656
0 0

0101101
*
Ed
 0.000000100000000 1 1 0
1  74 0 1.126586469188859 1.636683717121178
0

0101000
+62 11 -130 11 *
Ve
0.000000150000000
7.000000000000000 -2.247342093551652 -6.523760688019671
0 0

0101101
*
Ed
 0.000000150000000 1 1 0
1  75 0 2.313316282878823 2.823413530811108
0

0101000
+128 3 -60 3 *
Ed
 0.000000100000000 1 1 0
1  76 0 0.000000000000000 3.000000000000000
2  44 23 0 0.000000000000000 3.000000000000000
0

0101000
+62 3 -60 3 *
Wi

0101100
-61 10 -127 0 -59 0 +58 0 *
Fa
0  0.000000100000000 22 10

0101000
+57 0 *
Ve
0.000000150000000
7.000000000000000 2.247342093551651 -6.523760688019671
0 0

0101101
*
Ed
 0.000000100000000 1 1 0
1  77 0 2.809838796020454 3.473346511159132
2  45 23 0 2.809838796020454 3.473346511159132
0

0101000
+60 3 -55 3 *
Ve
0.000000100000048
4.000000000000000 2.247342093551603 -6.523760688019678
0 0

0101101
*
Ed
 0.000000100000000 1 1 0
1  78 0 0.000000000000000 3.000000000000000
2  46 23 0 0.000000000000000 3.000000000000000
0

0101000
+53 3 -55 3 *
Ed
 0.000000100000000 1 1 0
1  79 0 2.809838796020441 3.473346511159124
2  47 23 0 2.809838796020441 3.473346511159124
0

0101000
+62 3 -53 3 *
Wi

0101100
-54 0 +52 0 +51 0 -58 0 *
Fa
0  0.000000100000000 23 0

0101000
+50 0 *
Ed
 0.000000150000000 1 1 0
1  80 0 2.313316282878822 2.823413530811108
0

0101000
+126 3 -55 3 *
Wi

0101100
-125 0 -48 0 +54 0 +59 0 *
Fa
0  0.000000100000000 24 0

0101000
+47 0 *
Ed
 0.000000100000000 1 1 0
1  81 0 1.126586469188910 1.636683717121177
0

0101000
+53 7 -124 7 *
Wi

0101100
-45 6 -123 0 -48 0 +52 0 *
Fa
0  0.000000100000000 25 6

0101000
+44 0 *
Ve
0.000000100000163
4.000000000000000 4.526071437259557 -5.208135688019544
0 0

0101101
*
Ed
 0.000000100000000 1 1 0
1  82 0 1.126586469188951 1.636683717121178
0

0101000
+42 7 -122 7 *
Ve
0.000000150000001
7.000000000000000 4.526071437259454 -5.208135688019672
0 0

0101101
*
Ed
 0.000000150000000 1 1 0
1  83 0 2.313316282878824 2.823413530811108
0

0101000
+120 3 -40 3 *
Ed
 0.000000100000000 1 1 0
1  84 0 0.000000000000000 3.000000000000000
2  48 27 0 0.000000000000000 3.000000000000000
0

0101000
+42 3 -40 3 *
Wi

0101100
-41 6 -119 0 -39 0 +38 0 *
Fa
0  0.000000100000000 26 6

0101000
+37 0 *
Ve
0.000000150000002
7.000000000000000 6.773413530811109 -1.315624999999998
0 0

0101101
*
Ed
 0.000000100000000 1 1 0
1  85 0 3.857036347217051 4.520544062355730
2  49 27 0 3.857036347217051 4.520544062355730
0

0101000
+40 3 -35 3 *
Ve
0.000000100000037
4.000000000000000 6.773413530811096 -1.315625000000035
0 0

0101101
*
Ed
 0.000000100000000 1 1 0
1  86 0 0.000000000000000 3.000000000000000
2  50 27 0 0.000000000000000 3.000000000000000
0

0101000
+33 3 -35 3 *
Ed
 0.000000100000000 1 1 0
1  87 0 3.857036347217074 4.520544062355725
2  51 27 0 3.857036347217074 4.520544062355725
0

0101000
+42 3 -33 3 *
Wi

0101100
-34 0 +32 0 +31 0 -38 0 *
Fa
0  0.000000100000000 27 0

0101000
+30 0 *
Ed
 0.000000150000000 1 1 0
1  88 0 -10.723413530811108 -10.213316282878822
0

0101000
+35 3 -118 3 *
Wi

0101100
-117 0 +28 0 +34 0 +39 0 *
Fa
0  0.000000100000000 28 0

0101000
+27 0 *
Ed
 0.000000100000000 1 1 0
1  89 0 14.163316282878823 14.673413530811096
0

0101000
+116 5 -33 5 *
Wi

0101100
-25 4 -32 0 -28 0 +115 0 *
Fa
0  0.000000100000000 29 4

0101000
+24 0 *
Ed
 0.000000150000000 1 1 0
1  90 0 -10.723413530811110 -10.213316282878823
0

0101000
+225 3 -113 3 *
Wi

0101100
-217 0 -112 0 +22 0 +224 0 *
Fa
0  0.000000100000000 30 0

0101000
+21 0 *
Ed
 0.000000100000000 1 1 0
1  91 0 14.163316282878824 14.673413530811048
0

0101000
+111 11 -229 11 *
Wi

0101100
-19 10 -223 0 -22 0 +110 0 *
Fa
0  0.000000100000000 31 10

0101000
+18 0 *
Ve
0.000000100000045
4.000000000000000 2.247342093551609 6.523760688019678
0 0

0101101
*
Ed
 0.000000100000000 1 1 0
1  92 0 14.163316282878823 14.673413530811093
0

0101000
+109 11 -16 11 *
Ed
 0.000000100000000 1 1 0
1  93 0 0.000000000000000 3.000000000000000
2  52 14 0 0.000000000000000 3.000000000000000
0

0101000
+16 3 -102 3 *
Wi

0101100
-15 10 -14 0 -101 0 +106 0 *
Fa
0  0.000000100000000 32 10

0101000
+13 0 *
Wi

0101100
+189 8 +175 8 +155 8 +152 8 +160 8 +182 8 *
Ve
0.000000100000000
4.000000000000000 0.000000000000002 6.900000000000000
0 0

0101101
*
Ed
 0.000000100000000 1 1 0
1  94 0 0.000000000000000 0.331753857569332
2  53 14 0 0.000000000000000 0.331753857569332
0

0101000
+10 3 -93 3 *
Ed
 0.000000100000000 1 1 0
1  95 0 5.951431449610253 6.283185307179586
2  54 14 0 5.951431449610253 6.283185307179586
0

0101000
+16 3 -10 3 *
Wi

0101100
-9 0 -8 0 -15 10 -108 0 +19 10 -228 0 -219 4 -114 0 +25 4 -31 0 
+41 6 -121 0 -45 6 -51 0 +61 10 -129 0 -65 10 -71 0 +81 4 -137 0 
-85 4 -207 0 -202 6 -143 0 +92 6 *
Fa
0  0.000000100000000 33 8

0111000
+11 0 +7 0 *
Wi

0101100
-96 0 -14 0 +8 0 +9 0 +91 0 -97 0 *
Fa
0  0.000000100000000 14 0

0111000
+5 0 *
Sh

0101100
+221 0 -214 0 +204 0 -197 0 -187 0 -180 0 -173 0 -163 0 -158 0 -153 0 
-150 0 -103 0 +94 0 +89 0 +86 0 -83 0 +76 0 +69 0 +66 0 -63 0 
+56 0 +49 0 +46 0 -43 0 +36 0 +29 0 +26 0 +23 0 +20 0 +17 0 
-12 0 +6 0 +4 0 *
So

0100000
+3 0 *
Co

1100000
+2 0 *

+1 1 