
CASCADE Topology V1, (c) Matra-Datavision
Locations 13
1
1.000000000000000 0.000000000000000 0.000000000000000 0.000000000000000 
0.000000000000000 1.000000000000000 0.000000000000000 0.000000000000000 
0.000000000000000 0.000000000000000 1.000000000000000 0.000000000000000 
1
1.000000000000000 0.000000000000000 0.000000000000000 0.000000000000000 
0.000000000000000 1.000000000000000 0.000000000000000 0.000000000000000 
0.000000000000000 0.000000000000000 1.000000000000000 0.000000000000000 
2  2 -1 0
1
0.000000000000000 1.000000000000000 0.000000000000000 0.000000000000000 
-1.000000000000000 0.000000000000000 0.000000000000000 0.000000000000000 
0.000000000000000 0.000000000000000 1.000000000000000 0.000000000000000 
2  2 -1 4 -1 0
1
1.000000000000000 0.000000000000000 0.000000000000000 0.000000000000000 
0.000000000000000 0.000000000000000 -1.000000000000000 0.000000000000000 
0.000000000000000 1.000000000000000 0.000000000000000 0.000000000000000 
2  2 -1 6 -1 0
1
1.000000000000000 0.000000000000000 0.000000000000000 0.000000000000000 
0.000000000000000 -1.000000000000000 -0.000000000000000 0.000000000000000 
0.000000000000000 0.000000000000000 -1.000000000000000 0.000000000000000 
2  2 -1 8 -1 0
1
1.000000000000000 0.000000000000000 0.000000000000000 0.000000000000000 
0.000000000000000 -0.000000000000000 1.000000000000000 0.000000000000000 
0.000000000000000 -1.000000000000000 -0.000000000000000 0.000000000000000 
2  2 -1 10 -1 0
1
1.000000000000000 0.000000000000000 0.000000000000000 0.000000000000000 
0.000000000000000 1.000000000000000 0.000000000000000 0.000000000000000 
0.000000000000000 0.000000000000000 1.000000000000000 0.000000000000000 
2  2 -1 12 -1 0
Curve2ds 120
1 0.00000000000000000 5.00000000000000000 1.00000000000000000 0.00000000000000000 
1 5.02092936400462264 0.00000000000000000 0.00000000000000000 1.00000000000000000 
1 2.50843476062765536 0.00000000000000000 0.00000000000000000 1.00000000000000000 
1 0.00000000000000000 0.00000000000000000 1.00000000000000000 0.00000000000000000 
1 3.61845043336730843 0.00000000000000000 0.00000000000000000 1.00000000000000000 
1 6.13094503674427660 0.00000000000000000 0.00000000000000000 1.00000000000000000 
1 0.00000000000000000 5.00000000000000000 1.00000000000000000 0.00000000000000000 
1 0.00000000000000000 0.00000000000000000 1.00000000000000000 0.00000000000000000 
1 0.93763843383275935 0.00000000000000000 0.00000000000000000 1.00000000000000000 
1 3.45013303720972653 0.00000000000000000 0.00000000000000000 1.00000000000000000 
1 0.00000000000000000 5.00000000000000000 1.00000000000000000 0.00000000000000000 
1 0.00000000000000000 0.00000000000000000 1.00000000000000000 0.00000000000000000 
1 2.04765410657241009 0.00000000000000000 0.00000000000000000 1.00000000000000000 
1 4.56014870994938626 0.00000000000000000 0.00000000000000000 1.00000000000000000 
1 0.00000000000000000 0.00000000000000000 1.00000000000000000 0.00000000000000000 
1 6.28318530717958623 0.00000000000000000 1.00000000000000000 0.00000000000000000 
1 0.00000000000000000 0.00000000000000000 1.00000000000000000 0.00000000000000000 
1 0.00000000000000000 0.00000000000000000 1.00000000000000000 0.00000000000000000 
1 -6.28318530717958623 0.00000000000000000 1.00000000000000000 0.00000000000000000 
1 0.00000000000000000 0.00000000000000000 1.00000000000000000 0.00000000000000000 
1 0.00000000000000000 0.00000000000000000 1.00000000000000000 0.00000000000000000 
1 -6.28318530717958623 0.00000000000000000 1.00000000000000000 0.00000000000000000 
1 6.28318530717958623 0.00000000000000000 1.00000000000000000 0.00000000000000000 
1 0.00000000000000000 72.03796180329449328 1.00000000000000000 0.00000000000000000 
1 0.00000000000000000 1.00000000000000000 1.00000000000000000 0.00000000000000000 
1 0.00000000000000000 1.00000000000000000 1.00000000000000000 0.00000000000000000 
1 0.00000000000000000 1.00000000000000000 1.00000000000000000 0.00000000000000000 
1 0.00000000000000000 1.00000000000000000 1.00000000000000000 0.00000000000000000 
1 0.00000000000000000 5.00000000000000000 1.00000000000000000 0.00000000000000000 
1 1.87933671041483108 0.00000000000000000 0.00000000000000000 1.00000000000000000 
1 -0.63315789296214575 0.00000000000000000 0.00000000000000000 1.00000000000000000 
1 0.47685777977751492 0.00000000000000000 0.00000000000000000 1.00000000000000000 
1 2.98935238315448304 0.00000000000000000 0.00000000000000000 1.00000000000000000 
1 0.00000000000000000 6.00000000000000000 1.00000000000000000 0.00000000000000000 
1 6.28318530717958623 -0.00000000000000000 0.00000000000000000 1.00000000000000000 
1 0.00000000000000000 -0.00000000000000000 0.00000000000000000 1.00000000000000000 
1 0.00000000000000000 1.00000000000000000 1.00000000000000000 0.00000000000000000 
1 0.00000000000000000 71.87744765384817924 1.00000000000000000 0.00000000000000000 
1 6.28318530717958623 -0.00000000000000000 0.00000000000000000 1.00000000000000000 
1 0.00000000000000000 -0.00000000000000000 0.00000000000000000 1.00000000000000000 
1 0.00000000000000000 0.00000000000000000 1.00000000000000000 0.00000000000000000 
1 0.00000000000000000 2.89952000000000254 1.00000000000000000 0.00000000000000000 
1 0.00000000000000000 0.00000000000000000 1.00000000000000000 0.00000000000000000 
1 0.00000000000000000 1.00000000000000000 1.00000000000000000 0.00000000000000000 
1 0.00000000000000000 17.00000000000000000 1.00000000000000000 0.00000000000000000 
1 0.00000000000000000 0.00000000000000000 1.00000000000000000 0.00000000000000000 
1 6.28318530717958623 0.00000000000000000 0.00000000000000000 1.00000000000000000 
1 0.00000000000000000 0.00000000000000000 0.00000000000000000 1.00000000000000000 
1 6.28318530717958623 -0.00000000000000000 0.00000000000000000 1.00000000000000000 
1 0.00000000000000000 -0.00000000000000000 0.00000000000000000 1.00000000000000000 
1 0.00000000000000000 15.10047999999999746 1.00000000000000000 0.00000000000000000 
1 6.28318530717958623 0.00000000000000000 0.00000000000000000 1.00000000000000000 
1 0.00000000000000000 0.00000000000000000 0.00000000000000000 1.00000000000000000 
1 0.00000000000000000 15.10047999999999746 1.00000000000000000 0.00000000000000000 
1 0.00000000000000000 16.10047999999999746 1.00000000000000000 0.00000000000000000 
1 6.28318530717958623 -0.00000000000000000 0.00000000000000000 1.00000000000000000 
1 0.00000000000000000 -0.00000000000000000 0.00000000000000000 1.00000000000000000 
1 0.00000000000000000 0.00000000000000000 1.00000000000000000 0.00000000000000000 
1 6.28318530717958623 -0.00000000000000000 0.00000000000000000 1.00000000000000000 
1 0.00000000000000000 -0.00000000000000000 0.00000000000000000 1.00000000000000000 
1 0.00000000000000000 14.90000000000001279 1.00000000000000000 0.00000000000000000 
1 0.13593377892373781 0.00000000000000000 0.00000000000000000 1.00000000000000000 
1 0.00000000000000000 19.00000000000000711 1.00000000000000000 0.00000000000000000 
1 1.43486254787115852 0.00000000000000000 0.00000000000000000 1.00000000000000000 
1 0.00000000000000000 14.90000000000001279 1.00000000000000000 0.00000000000000000 
1 1.70673010571863437 0.00000000000000000 0.00000000000000000 1.00000000000000000 
1 0.00000000000000000 19.00000000000000711 1.00000000000000000 0.00000000000000000 
1 3.00565887466605508 0.00000000000000000 0.00000000000000000 1.00000000000000000 
1 0.00000000000000000 14.90000000000001279 1.00000000000000000 0.00000000000000000 
1 3.27752643251353071 0.00000000000000000 0.00000000000000000 1.00000000000000000 
1 0.00000000000000000 19.00000000000000711 1.00000000000000000 0.00000000000000000 
1 4.57645520146095208 0.00000000000000000 0.00000000000000000 1.00000000000000000 
1 0.00000000000000000 14.90000000000001279 1.00000000000000000 0.00000000000000000 
1 4.84832275930842727 0.00000000000000000 0.00000000000000000 1.00000000000000000 
1 0.00000000000000000 19.00000000000000711 1.00000000000000000 0.00000000000000000 
1 6.14725152825584775 0.00000000000000000 0.00000000000000000 1.00000000000000000 
1 0.00000000000000000 14.90000000000001279 1.00000000000000000 0.00000000000000000 
1 0.00000000000000000 15.90000000000001279 1.00000000000000000 0.00000000000000000 
1 0.00000000000000000 15.90000000000001279 1.00000000000000000 0.00000000000000000 
1 0.10016742116155969 0.00000000000000000 0.00000000000000000 1.00000000000000000 
1 0.00000000000000000 20.00000000000000711 1.00000000000000000 0.00000000000000000 
1 1.47062890563333659 0.00000000000000000 0.00000000000000000 1.00000000000000000 
1 0.00000000000000000 15.90000000000001279 1.00000000000000000 0.00000000000000000 
1 1.67096374795645630 0.00000000000000000 0.00000000000000000 1.00000000000000000 
1 0.00000000000000000 20.00000000000000711 1.00000000000000000 0.00000000000000000 
1 3.04142523242823337 0.00000000000000000 0.00000000000000000 1.00000000000000000 
1 0.00000000000000000 15.90000000000001279 1.00000000000000000 0.00000000000000000 
1 3.24176007475135242 0.00000000000000000 0.00000000000000000 1.00000000000000000 
1 0.00000000000000000 20.00000000000000711 1.00000000000000000 0.00000000000000000 
1 4.61222155922312993 0.00000000000000000 0.00000000000000000 1.00000000000000000 
1 0.00000000000000000 15.90000000000001279 1.00000000000000000 0.00000000000000000 
1 4.81255640154624942 0.00000000000000000 0.00000000000000000 1.00000000000000000 
1 0.00000000000000000 20.00000000000000711 1.00000000000000000 0.00000000000000000 
1 6.18301788601802649 0.00000000000000000 0.00000000000000000 1.00000000000000000 
1 6.28318530717958623 -0.00000000000000000 0.00000000000000000 1.00000000000000000 
1 0.00000000000000000 -0.00000000000000000 0.00000000000000000 1.00000000000000000 
1 0.00000000000000000 6.00000000000000000 1.00000000000000000 0.00000000000000000 
1 6.28318530717958623 -0.00000000000000000 0.00000000000000000 1.00000000000000000 
1 0.00000000000000000 -0.00000000000000000 0.00000000000000000 1.00000000000000000 
1 0.00000000000000000 6.00000000000000000 1.00000000000000000 0.00000000000000000 
1 6.28318530717958623 -0.00000000000000000 0.00000000000000000 1.00000000000000000 
1 0.00000000000000000 -0.00000000000000000 0.00000000000000000 1.00000000000000000 
1 0.00000000000000000 6.00000000000000000 1.00000000000000000 0.00000000000000000 
1 6.28318530717958623 -0.00000000000000000 0.00000000000000000 1.00000000000000000 
1 0.00000000000000000 -0.00000000000000000 0.00000000000000000 1.00000000000000000 
1 0.00000000000000000 6.00000000000000000 1.00000000000000000 0.00000000000000000 
1 6.28318530717958623 -0.00000000000000000 0.00000000000000000 1.00000000000000000 
1 0.00000000000000000 -0.00000000000000000 0.00000000000000000 1.00000000000000000 
1 0.00000000000000000 5.00000000000000000 1.00000000000000000 0.00000000000000000 
1 6.28318530717958623 5.00000000000000000 1.00000000000000000 0.00000000000000000 
1 0.00000000000000000 5.00000000000000000 1.00000000000000000 0.00000000000000000 
1 6.28318530717958623 5.00000000000000000 1.00000000000000000 0.00000000000000000 
1 -6.28318530717958623 5.00000000000000000 1.00000000000000000 0.00000000000000000 
1 0.00000000000000000 5.00000000000000000 1.00000000000000000 0.00000000000000000 
1 -6.28318530717958623 5.00000000000000000 1.00000000000000000 0.00000000000000000 
1 0.00000000000000000 5.00000000000000000 1.00000000000000000 0.00000000000000000 
1 6.59172569079951920 0.00000000000000000 0.00000000000000000 1.00000000000000000 
1 -2.20395421975703520 0.00000000000000000 0.00000000000000000 1.00000000000000000 
1 5.18924676016220410 0.00000000000000000 0.00000000000000000 1.00000000000000000 
1 7.70174136353917227 0.00000000000000000 0.00000000000000000 1.00000000000000000 
Curves 115
2 129.37369916445004492 0.00000000000000000 0.00000000000000000 1.00000000000000000 0.00000000000000000 -0.00000000000000000 0.00000000000000000 0.00000000000000000 1.00000000000000000 0.00000000000000000 -1.00000000000000000 0.00000000000000000 74.00000000000000000
1 124.37369916445004492 70.50555896464989303 22.47145200209093474 1.00000000000000000 0.00000000000000000 0.00000000000000000 
2 124.37369916445004492 0.00000000000000000 0.00000000000000000 1.00000000000000000 0.00000000000000000 -0.00000000000000000 0.00000000000000000 0.00000000000000000 1.00000000000000000 0.00000000000000000 -1.00000000000000000 0.00000000000000000 74.00000000000000000
1 124.37369916445004492 33.96524276146541155 -65.74467494903842635 1.00000000000000000 0.00000000000000000 0.00000000000000000 
2 129.37369916445004492 32.14540831866756321 -77.60588073094807271 1.00000000000000000 0.00000000000000000 -0.00000000000000000 0.00000000000000000 0.00000000000000000 1.00000000000000000 0.00000000000000000 -1.00000000000000000 0.00000000000000000 12.00000000000000000
2 124.37369916445004492 32.14540831866756321 -77.60588073094807271 1.00000000000000000 0.00000000000000000 -0.00000000000000000 0.00000000000000000 0.00000000000000000 1.00000000000000000 0.00000000000000000 -1.00000000000000000 0.00000000000000000 12.00000000000000000
1 124.37369916445004492 22.47145200209095961 -70.50555896464989303 1.00000000000000000 0.00000000000000000 0.00000000000000000 
2 129.37369916445004492 0.00000000000000000 0.00000000000000000 1.00000000000000000 0.00000000000000000 -0.00000000000000000 0.00000000000000000 0.00000000000000000 1.00000000000000000 0.00000000000000000 -1.00000000000000000 0.00000000000000000 74.00000000000000000
2 124.37369916445004492 0.00000000000000000 0.00000000000000000 1.00000000000000000 0.00000000000000000 -0.00000000000000000 0.00000000000000000 0.00000000000000000 1.00000000000000000 0.00000000000000000 -1.00000000000000000 0.00000000000000000 74.00000000000000000
1 124.37369916445004492 -65.74467494903848319 -33.96524276146529786 1.00000000000000000 0.00000000000000000 0.00000000000000000 
2 124.37369916445004492 0.00000000000000000 0.00000000000000000 1.00000000000000000 0.00000000000000000 -0.00000000000000000 0.00000000000000000 0.00000000000000000 1.00000000000000000 0.00000000000000000 -1.00000000000000000 0.00000000000000000 74.00000000000000000
2 124.37369916445004492 77.60588073094808692 32.14540831866754189 1.00000000000000000 0.00000000000000000 -0.00000000000000000 0.00000000000000000 0.00000000000000000 1.00000000000000000 0.00000000000000000 -1.00000000000000000 0.00000000000000000 12.00000000000000000
2 124.37369916445004492 77.60588073094808692 32.14540831866754189 1.00000000000000000 0.00000000000000000 -0.00000000000000000 0.00000000000000000 0.00000000000000000 1.00000000000000000 0.00000000000000000 -1.00000000000000000 0.00000000000000000 12.00000000000000000
2 124.37369916445004492 -77.60588073094810113 -32.14540831866753479 1.00000000000000000 0.00000000000000000 -0.00000000000000000 0.00000000000000000 0.00000000000000000 1.00000000000000000 0.00000000000000000 -1.00000000000000000 0.00000000000000000 12.00000000000000000
2 124.37369916445004492 -77.60588073094810113 -32.14540831866753479 1.00000000000000000 0.00000000000000000 -0.00000000000000000 0.00000000000000000 0.00000000000000000 1.00000000000000000 0.00000000000000000 -1.00000000000000000 0.00000000000000000 12.00000000000000000
2 124.37369916445004492 0.00000000000000000 0.00000000000000000 1.00000000000000000 0.00000000000000000 -0.00000000000000000 0.00000000000000000 0.00000000000000000 1.00000000000000000 0.00000000000000000 -1.00000000000000000 0.00000000000000000 74.00000000000000000
2 124.37369916445004492 -32.14540831866753479 77.60588073094808692 1.00000000000000000 0.00000000000000000 -0.00000000000000000 0.00000000000000000 0.00000000000000000 1.00000000000000000 0.00000000000000000 -1.00000000000000000 0.00000000000000000 12.00000000000000000
2 124.37369916445004492 -32.14540831866753479 77.60588073094808692 1.00000000000000000 0.00000000000000000 -0.00000000000000000 0.00000000000000000 0.00000000000000000 1.00000000000000000 0.00000000000000000 -1.00000000000000000 0.00000000000000000 12.00000000000000000
2 124.37369916445004492 0.00000000000000000 0.00000000000000000 1.00000000000000000 0.00000000000000000 -0.00000000000000000 0.00000000000000000 0.00000000000000000 1.00000000000000000 0.00000000000000000 -1.00000000000000000 0.00000000000000000 74.00000000000000000
2 0.00000000000000000 124.37369916445004492 0.00000000000000000 -0.00000000000000000 1.00000000000000000 0.00000000000000000 1.00000000000000000 0.00000000000000000 0.00000000000000000 0.00000000000000000 0.00000000000000000 -1.00000000000000000 55.50000000000000000
2 124.37369916445004492 77.60588073094808692 32.14540831866754189 1.00000000000000000 0.00000000000000000 -0.00000000000000000 0.00000000000000000 0.00000000000000000 1.00000000000000000 0.00000000000000000 -1.00000000000000000 0.00000000000000000 4.81250000000000000
2 124.37369916445004492 32.14540831866756321 -77.60588073094807271 1.00000000000000000 0.00000000000000000 -0.00000000000000000 0.00000000000000000 0.00000000000000000 1.00000000000000000 0.00000000000000000 -1.00000000000000000 0.00000000000000000 4.81250000000000000
2 124.37369916445004492 -32.14540831866753479 77.60588073094808692 1.00000000000000000 0.00000000000000000 -0.00000000000000000 0.00000000000000000 0.00000000000000000 1.00000000000000000 0.00000000000000000 -1.00000000000000000 0.00000000000000000 4.81250000000000000
2 124.37369916445004492 -77.60588073094810113 -32.14540831866753479 1.00000000000000000 0.00000000000000000 -0.00000000000000000 0.00000000000000000 0.00000000000000000 1.00000000000000000 0.00000000000000000 -1.00000000000000000 0.00000000000000000 4.81250000000000000
2 129.37369916445004492 0.00000000000000000 0.00000000000000000 1.00000000000000000 0.00000000000000000 -0.00000000000000000 0.00000000000000000 0.00000000000000000 1.00000000000000000 0.00000000000000000 -1.00000000000000000 0.00000000000000000 74.00000000000000000
1 124.37369916445004492 -70.50555896464986461 -22.47145200209102001 1.00000000000000000 0.00000000000000000 0.00000000000000000 
1 124.37369916445004492 -33.96524276146539023 65.74467494903844056 1.00000000000000000 0.00000000000000000 0.00000000000000000 
2 129.37369916445004492 0.00000000000000000 0.00000000000000000 1.00000000000000000 0.00000000000000000 -0.00000000000000000 0.00000000000000000 0.00000000000000000 1.00000000000000000 0.00000000000000000 -1.00000000000000000 0.00000000000000000 51.50000000000000000
1 123.37369916445004492 0.00000000000001261 51.50000000000000000 1.00000000000000000 0.00000000000000000 0.00000000000000000 
2 124.37369916445004492 0.00000000000000000 0.00000000000000000 1.00000000000000000 0.00000000000000000 -0.00000000000000000 0.00000000000000000 0.00000000000000000 1.00000000000000000 0.00000000000000000 -1.00000000000000000 0.00000000000000000 51.50000000000000000
2 124.37369916445004492 0.00000000000000000 0.00000000000000000 1.00000000000000000 0.00000000000000000 -0.00000000000000000 0.00000000000000000 0.00000000000000000 1.00000000000000000 0.00000000000000000 -1.00000000000000000 0.00000000000000000 51.08440756040936037
1 58.00000000000000000 0.00000000000000576 23.50000000000000000 0.92342871555618633 0.00000000000000009 0.38376999268605139 
2 58.00000000000000000 0.00000000000000000 0.00000000000000000 1.00000000000000000 0.00000000000000000 -0.00000000000000000 0.00000000000000000 0.00000000000000000 1.00000000000000000 0.00000000000000000 -1.00000000000000000 0.00000000000000000 23.50000000000000000
2 58.00000000000000000 0.00000000000000000 0.00000000000000000 1.00000000000000000 0.00000000000000000 -0.00000000000000000 0.00000000000000000 0.00000000000000000 1.00000000000000000 0.00000000000000000 -1.00000000000000000 0.00000000000000000 18.00000000000000000
2 0.00000000000000000 41.00000000000000000 0.00000000000000000 -0.00000000000000000 1.00000000000000000 0.00000000000000000 1.00000000000000000 0.00000000000000000 0.00000000000000000 0.00000000000000000 0.00000000000000000 -1.00000000000000000 27.50000000000000000
2 41.00000000000000000 0.00000000000000000 0.00000000000000000 1.00000000000000000 0.00000000000000000 -0.00000000000000000 0.00000000000000000 0.00000000000000000 1.00000000000000000 0.00000000000000000 -1.00000000000000000 0.00000000000000000 23.55008000000000123
2 0.00000000000000000 58.00000000000000000 0.00000000000000000 -0.00000000000000000 1.00000000000000000 0.00000000000000000 1.00000000000000000 0.00000000000000000 0.00000000000000000 0.00000000000000000 0.00000000000000000 -1.00000000000000000 27.50000000000000000
1 27.50000000000000000 41.00000000000000000 0.00000000000000000 0.00000000000000000 1.00000000000000000 0.00000000000000000 
1 40.00000000000000000 0.00000000000000577 23.55008000000000123 1.00000000000000000 0.00000000000000000 0.00000000000000000 
2 55.10047999999999746 0.00000000000000000 0.00000000000000000 1.00000000000000000 0.00000000000000000 -0.00000000000000000 0.00000000000000000 0.00000000000000000 1.00000000000000000 0.00000000000000000 -1.00000000000000000 0.00000000000000000 23.55008000000000123
1 27.50000000000000000 58.00000000000000000 0.00000000000000000 0.38868395633480407 0.92137114242194718 0.00000000000000000 
2 55.10047999999999746 0.00000000000000000 0.00000000000000000 1.00000000000000000 0.00000000000000000 -0.00000000000000000 0.00000000000000000 0.00000000000000000 1.00000000000000000 0.00000000000000000 -1.00000000000000000 0.00000000000000000 8.54011000000000031
2 56.10047999999999746 0.00000000000000000 0.00000000000000000 1.00000000000000000 0.00000000000000000 -0.00000000000000000 0.00000000000000000 0.00000000000000000 1.00000000000000000 0.00000000000000000 -1.00000000000000000 0.00000000000000000 8.54011000000000031
1 40.00000000000000000 0.00000000000000209 8.54011000000000031 1.00000000000000000 0.00000000000000000 0.00000000000000000 
2 56.10047999999999746 0.00000000000000000 0.00000000000000000 1.00000000000000000 0.00000000000000000 -0.00000000000000000 0.00000000000000000 0.00000000000000000 1.00000000000000000 0.00000000000000000 -1.00000000000000000 0.00000000000000000 13.28261000000000003
1 56.10047999999999746 0.00000000000000325 13.28261000000000003 1.00000000000000000 0.00000000000000000 0.00000000000000000 
2 71.00048000000001025 0.00000000000000000 0.00000000000000000 1.00000000000000000 0.00000000000000000 -0.00000000000000000 0.00000000000000000 0.00000000000000000 1.00000000000000000 0.00000000000000000 -1.00000000000000000 0.00000000000000000 13.28261000000000003
1 56.10047999999999746 -1.79999999999999849 13.16008086647266850 1.00000000000000000 0.00000000000000000 0.00000000000000000 
2 75.10048000000000457 0.00000000000000000 0.00000000000000000 1.00000000000000000 0.00000000000000000 -0.00000000000000000 0.00000000000000000 0.00000000000000000 1.00000000000000000 0.00000000000000000 -1.00000000000000000 0.00000000000000000 13.28261000000000003
1 56.10047999999999746 -13.16008086647266850 1.80000000000000160 1.00000000000000000 0.00000000000000000 0.00000000000000000 
2 71.00048000000001025 0.00000000000000000 0.00000000000000000 1.00000000000000000 0.00000000000000000 -0.00000000000000000 0.00000000000000000 0.00000000000000000 1.00000000000000000 0.00000000000000000 -1.00000000000000000 0.00000000000000000 13.28261000000000003
1 56.10047999999999746 -13.16008086647266850 -1.79999999999999849 1.00000000000000000 0.00000000000000000 0.00000000000000000 
2 75.10048000000000457 0.00000000000000000 0.00000000000000000 1.00000000000000000 0.00000000000000000 -0.00000000000000000 0.00000000000000000 0.00000000000000000 1.00000000000000000 0.00000000000000000 -1.00000000000000000 0.00000000000000000 13.28261000000000003
1 56.10047999999999746 -1.80000000000000293 -13.16008086647266850 1.00000000000000000 0.00000000000000000 0.00000000000000000 
2 71.00048000000001025 0.00000000000000000 0.00000000000000000 1.00000000000000000 0.00000000000000000 -0.00000000000000000 0.00000000000000000 0.00000000000000000 1.00000000000000000 0.00000000000000000 -1.00000000000000000 0.00000000000000000 13.28261000000000003
1 56.10047999999999746 1.79999999999999716 -13.16008086647266850 1.00000000000000000 0.00000000000000000 0.00000000000000000 
2 75.10048000000000457 0.00000000000000000 0.00000000000000000 1.00000000000000000 0.00000000000000000 -0.00000000000000000 0.00000000000000000 0.00000000000000000 1.00000000000000000 0.00000000000000000 -1.00000000000000000 0.00000000000000000 13.28261000000000003
1 56.10047999999999746 13.16008086647266850 -1.80000000000000004 1.00000000000000000 0.00000000000000000 0.00000000000000000 
2 71.00048000000001025 0.00000000000000000 0.00000000000000000 1.00000000000000000 0.00000000000000000 -0.00000000000000000 0.00000000000000000 0.00000000000000000 1.00000000000000000 0.00000000000000000 -1.00000000000000000 0.00000000000000000 13.28261000000000003
1 56.10047999999999746 13.16008086647266850 1.80000000000000004 1.00000000000000000 0.00000000000000000 0.00000000000000000 
2 75.10048000000000457 0.00000000000000000 0.00000000000000000 1.00000000000000000 0.00000000000000000 -0.00000000000000000 0.00000000000000000 0.00000000000000000 1.00000000000000000 0.00000000000000000 -1.00000000000000000 0.00000000000000000 13.28261000000000003
1 56.10047999999999746 1.80000000000000160 13.16008086647266850 1.00000000000000000 0.00000000000000000 0.00000000000000000 
2 71.00048000000001025 0.00000000000000000 0.00000000000000000 1.00000000000000000 0.00000000000000000 -0.00000000000000000 0.00000000000000000 0.00000000000000000 1.00000000000000000 0.00000000000000000 -1.00000000000000000 0.00000000000000000 13.28261000000000003
1 71.00048000000001025 12.25261000000000067 1.80000000000000004 0.00000000000000000 1.00000000000000000 0.00000000000000000 
2 71.00048000000001025 0.00000000000000000 0.00000000000000000 1.00000000000000000 0.00000000000000000 -0.00000000000000000 0.00000000000000000 0.00000000000000000 1.00000000000000000 0.00000000000000000 -1.00000000000000000 0.00000000000000000 18.00000000000000000
2 71.00048000000001025 0.00000000000000000 0.00000000000000000 1.00000000000000000 0.00000000000000000 -0.00000000000000000 0.00000000000000000 0.00000000000000000 1.00000000000000000 0.00000000000000000 -1.00000000000000000 0.00000000000000000 18.00000000000000000
1 71.00048000000001025 12.25261000000000067 -1.80000000000000004 0.00000000000000000 1.00000000000000000 0.00000000000000000 
1 55.10047999999999746 -1.79999999999999805 17.90977386791916004 1.00000000000000000 0.00000000000000000 0.00000000000000000 
1 75.10048000000000457 -1.79999999999999938 6.12630500000000033 0.00000000000000000 -0.00000000000000011 -1.00000000000000000 
1 75.10048000000000457 -6.12630500000000033 1.80000000000000071 0.00000000000000000 1.00000000000000000 -0.00000000000000012 
2 75.10048000000000457 0.00000000000000000 0.00000000000000000 1.00000000000000000 0.00000000000000000 -0.00000000000000000 0.00000000000000000 0.00000000000000000 1.00000000000000000 0.00000000000000000 -1.00000000000000000 0.00000000000000000 18.00000000000000000
1 71.00048000000001025 12.25261000000000067 -1.80000000000000004 0.00000000000000000 1.00000000000000000 0.00000000000000000 
1 55.10047999999999746 -17.90977386791916004 1.80000000000000226 1.00000000000000000 0.00000000000000000 0.00000000000000000 
1 71.00048000000001025 12.25261000000000067 1.80000000000000004 0.00000000000000000 1.00000000000000000 0.00000000000000000 
2 71.00048000000001025 0.00000000000000000 0.00000000000000000 1.00000000000000000 0.00000000000000000 -0.00000000000000000 0.00000000000000000 0.00000000000000000 1.00000000000000000 0.00000000000000000 -1.00000000000000000 0.00000000000000000 18.00000000000000000
1 55.10047999999999746 -17.90977386791916004 -1.79999999999999782 1.00000000000000000 0.00000000000000000 0.00000000000000000 
1 75.10048000000000457 -6.12630500000000033 -1.79999999999999938 0.00000000000000000 1.00000000000000000 -0.00000000000000012 
1 75.10048000000000457 -1.80000000000000138 -6.12630500000000033 0.00000000000000000 0.00000000000000022 1.00000000000000000 
2 75.10048000000000457 0.00000000000000000 0.00000000000000000 1.00000000000000000 0.00000000000000000 -0.00000000000000000 0.00000000000000000 0.00000000000000000 1.00000000000000000 0.00000000000000000 -1.00000000000000000 0.00000000000000000 18.00000000000000000
1 71.00048000000001025 12.25261000000000067 -1.80000000000000004 0.00000000000000000 1.00000000000000000 0.00000000000000000 
1 55.10047999999999746 -1.80000000000000404 -17.90977386791916004 1.00000000000000000 0.00000000000000000 0.00000000000000000 
1 71.00048000000001025 12.25261000000000067 1.80000000000000004 0.00000000000000000 1.00000000000000000 0.00000000000000000 
2 71.00048000000001025 0.00000000000000000 0.00000000000000000 1.00000000000000000 0.00000000000000000 -0.00000000000000000 0.00000000000000000 0.00000000000000000 1.00000000000000000 0.00000000000000000 -1.00000000000000000 0.00000000000000000 18.00000000000000000
1 55.10047999999999746 1.79999999999999605 -17.90977386791916004 1.00000000000000000 0.00000000000000000 0.00000000000000000 
1 75.10048000000000457 1.79999999999999871 -6.12630500000000033 0.00000000000000000 0.00000000000000022 1.00000000000000000 
1 75.10048000000000457 6.12630500000000033 -1.80000000000000004 0.00000000000000000 -1.00000000000000000 0.00000000000000000 
2 75.10048000000000457 0.00000000000000000 0.00000000000000000 1.00000000000000000 0.00000000000000000 -0.00000000000000000 0.00000000000000000 0.00000000000000000 1.00000000000000000 0.00000000000000000 -1.00000000000000000 0.00000000000000000 18.00000000000000000
1 71.00048000000001025 12.25261000000000067 -1.80000000000000004 0.00000000000000000 1.00000000000000000 0.00000000000000000 
1 55.10047999999999746 17.90977386791916004 -1.80000000000000004 1.00000000000000000 0.00000000000000000 0.00000000000000000 
1 71.00048000000001025 12.25261000000000067 1.80000000000000004 0.00000000000000000 1.00000000000000000 0.00000000000000000 
2 71.00048000000001025 0.00000000000000000 0.00000000000000000 1.00000000000000000 0.00000000000000000 -0.00000000000000000 0.00000000000000000 0.00000000000000000 1.00000000000000000 0.00000000000000000 -1.00000000000000000 0.00000000000000000 18.00000000000000000
1 55.10047999999999746 17.90977386791916004 1.80000000000000004 1.00000000000000000 0.00000000000000000 0.00000000000000000 
1 75.10048000000000457 6.12630500000000033 1.80000000000000004 0.00000000000000000 -1.00000000000000000 0.00000000000000000 
1 75.10048000000000457 1.80000000000000071 6.12630500000000033 0.00000000000000000 -0.00000000000000011 -1.00000000000000000 
2 75.10048000000000457 0.00000000000000000 0.00000000000000000 1.00000000000000000 0.00000000000000000 -0.00000000000000000 0.00000000000000000 0.00000000000000000 1.00000000000000000 0.00000000000000000 -1.00000000000000000 0.00000000000000000 18.00000000000000000
1 55.10047999999999746 1.80000000000000204 17.90977386791916004 1.00000000000000000 0.00000000000000000 0.00000000000000000 
1 55.10047999999999746 0.00000000000000441 18.00000000000000000 1.00000000000000000 0.00000000000000000 0.00000000000000000 
2 129.37369916445004492 77.60588073094808692 32.14540831866754189 1.00000000000000000 0.00000000000000000 -0.00000000000000000 0.00000000000000000 0.00000000000000000 1.00000000000000000 0.00000000000000000 -1.00000000000000000 0.00000000000000000 4.81250000000000000
1 123.37369916445004492 77.60588073094808692 36.95790831866754189 1.00000000000000000 0.00000000000000000 0.00000000000000000 
2 129.37369916445004492 32.14540831866756321 -77.60588073094807271 1.00000000000000000 0.00000000000000000 -0.00000000000000000 0.00000000000000000 0.00000000000000000 1.00000000000000000 0.00000000000000000 -1.00000000000000000 0.00000000000000000 4.81250000000000000
1 123.37369916445004492 32.14540831866756321 -72.79338073094807271 1.00000000000000000 0.00000000000000000 0.00000000000000000 
2 129.37369916445004492 -32.14540831866753479 77.60588073094808692 1.00000000000000000 0.00000000000000000 -0.00000000000000000 0.00000000000000000 0.00000000000000000 1.00000000000000000 0.00000000000000000 -1.00000000000000000 0.00000000000000000 4.81250000000000000
1 123.37369916445004492 -32.14540831866753479 82.41838073094808692 1.00000000000000000 0.00000000000000000 0.00000000000000000 
2 129.37369916445004492 -77.60588073094810113 -32.14540831866753479 1.00000000000000000 0.00000000000000000 -0.00000000000000000 0.00000000000000000 0.00000000000000000 1.00000000000000000 0.00000000000000000 -1.00000000000000000 0.00000000000000000 4.81250000000000000
1 123.37369916445004492 -77.60588073094808692 -27.33290831866753834 1.00000000000000000 0.00000000000000000 0.00000000000000000 
2 129.37369916445004492 77.60588073094808692 32.14540831866754189 1.00000000000000000 0.00000000000000000 -0.00000000000000000 0.00000000000000000 0.00000000000000000 1.00000000000000000 0.00000000000000000 -1.00000000000000000 0.00000000000000000 12.00000000000000000
2 129.37369916445004492 77.60588073094808692 32.14540831866754189 1.00000000000000000 0.00000000000000000 -0.00000000000000000 0.00000000000000000 0.00000000000000000 1.00000000000000000 0.00000000000000000 -1.00000000000000000 0.00000000000000000 12.00000000000000000
2 129.37369916445004492 0.00000000000000000 0.00000000000000000 1.00000000000000000 0.00000000000000000 -0.00000000000000000 0.00000000000000000 0.00000000000000000 1.00000000000000000 0.00000000000000000 -1.00000000000000000 0.00000000000000000 74.00000000000000000
2 129.37369916445004492 0.00000000000000000 0.00000000000000000 1.00000000000000000 0.00000000000000000 -0.00000000000000000 0.00000000000000000 0.00000000000000000 1.00000000000000000 0.00000000000000000 -1.00000000000000000 0.00000000000000000 74.00000000000000000
2 129.37369916445004492 -32.14540831866753479 77.60588073094808692 1.00000000000000000 0.00000000000000000 -0.00000000000000000 0.00000000000000000 0.00000000000000000 1.00000000000000000 0.00000000000000000 -1.00000000000000000 0.00000000000000000 12.00000000000000000
2 129.37369916445004492 -32.14540831866753479 77.60588073094808692 1.00000000000000000 0.00000000000000000 -0.00000000000000000 0.00000000000000000 0.00000000000000000 1.00000000000000000 0.00000000000000000 -1.00000000000000000 0.00000000000000000 12.00000000000000000
2 129.37369916445004492 -77.60588073094810113 -32.14540831866753479 1.00000000000000000 0.00000000000000000 -0.00000000000000000 0.00000000000000000 0.00000000000000000 1.00000000000000000 0.00000000000000000 -1.00000000000000000 0.00000000000000000 12.00000000000000000
2 129.37369916445004492 -77.60588073094810113 -32.14540831866753479 1.00000000000000000 0.00000000000000000 -0.00000000000000000 0.00000000000000000 0.00000000000000000 1.00000000000000000 0.00000000000000000 -1.00000000000000000 0.00000000000000000 12.00000000000000000
1 124.37369916445004492 -22.47145200209093474 70.50555896464989303 1.00000000000000000 0.00000000000000000 0.00000000000000000 
1 124.37369916445004492 65.74467494903844056 33.96524276146539734 1.00000000000000000 0.00000000000000000 0.00000000000000000 
Polygon3D 0
PolygonOnTriangulations 0
Surfaces 43
2 124.37369916445004492 0.00000000000000000 0.00000000000000000 1.00000000000000000 0.00000000000000000 0.00000000000000000 0.00000000000000000 0.00000000000000000 1.00000000000000000 0.00000000000000000 -1.00000000000000000 0.00000000000000000 74.00000000000000000
2 124.37369916445004492 77.60588073094808692 32.14540831866754189 1.00000000000000000 0.00000000000000000 0.00000000000000000 0.00000000000000000 0.00000000000000000 1.00000000000000000 0.00000000000000000 -1.00000000000000000 0.00000000000000000 12.00000000000000000
2 124.37369916445004492 32.14540831866756321 -77.60588073094807271 1.00000000000000000 0.00000000000000000 0.00000000000000000 0.00000000000000000 0.00000000000000000 1.00000000000000000 0.00000000000000000 -1.00000000000000000 0.00000000000000000 12.00000000000000000
2 124.37369916445004492 0.00000000000000000 0.00000000000000000 1.00000000000000000 0.00000000000000000 0.00000000000000000 0.00000000000000000 0.00000000000000000 1.00000000000000000 0.00000000000000000 -1.00000000000000000 0.00000000000000000 74.00000000000000000
2 124.37369916445004492 -77.60588073094810113 -32.14540831866753479 1.00000000000000000 0.00000000000000000 0.00000000000000000 0.00000000000000000 0.00000000000000000 1.00000000000000000 0.00000000000000000 -1.00000000000000000 0.00000000000000000 12.00000000000000000
1 124.37369916445005913 0.01107272850036760 1.04397286662613653 -1.00000000000000000 -0.00000000000000000 -0.00000000000000000 0.00000000000000000 0.00000000000000000 -1.00000000000000000 0.00000000000000000 -1.00000000000000000 0.00000000000000000 
2 124.37369916445004492 0.00000000000000000 0.00000000000000000 1.00000000000000000 0.00000000000000000 0.00000000000000000 0.00000000000000000 0.00000000000000000 1.00000000000000000 0.00000000000000000 -1.00000000000000000 0.00000000000000000 74.00000000000000000
2 124.37369916445004492 0.00000000000000000 0.00000000000000000 1.00000000000000000 0.00000000000000000 0.00000000000000000 0.00000000000000000 0.00000000000000000 1.00000000000000000 0.00000000000000000 -1.00000000000000000 0.00000000000000000 74.00000000000000000
2 124.37369916445004492 -32.14540831866753479 77.60588073094808692 1.00000000000000000 0.00000000000000000 0.00000000000000000 0.00000000000000000 0.00000000000000000 1.00000000000000000 0.00000000000000000 -1.00000000000000000 0.00000000000000000 12.00000000000000000
3 0.00000000000000000 58.00000000000000000 0.00000000000000000 0.00000000000000000 1.00000000000000000 0.00000000000000000 1.00000000000000000 0.00000000000000000 0.00000000000000000 0.00000000000000000 0.00000000000000000 -1.00000000000000000 27.50000000000000000
0.39920280815728854
2 123.37369916445004492 77.60588073094808692 32.14540831866754189 1.00000000000000000 0.00000000000000000 0.00000000000000000 0.00000000000000000 0.00000000000000000 1.00000000000000000 0.00000000000000000 -1.00000000000000000 0.00000000000000000 4.81250000000000000
2 123.37369916445004492 32.14540831866756321 -77.60588073094807271 1.00000000000000000 0.00000000000000000 0.00000000000000000 0.00000000000000000 0.00000000000000000 1.00000000000000000 0.00000000000000000 -1.00000000000000000 0.00000000000000000 4.81250000000000000
2 123.37369916445004492 -32.14540831866753479 77.60588073094808692 1.00000000000000000 0.00000000000000000 0.00000000000000000 0.00000000000000000 0.00000000000000000 1.00000000000000000 0.00000000000000000 -1.00000000000000000 0.00000000000000000 4.81250000000000000
2 123.37369916445004492 -77.60588073094810113 -32.14540831866753479 1.00000000000000000 0.00000000000000000 0.00000000000000000 0.00000000000000000 0.00000000000000000 1.00000000000000000 0.00000000000000000 -1.00000000000000000 0.00000000000000000 4.81250000000000000
2 123.37369916445004492 0.00000000000000000 0.00000000000000000 1.00000000000000000 0.00000000000000000 0.00000000000000000 0.00000000000000000 0.00000000000000000 1.00000000000000000 0.00000000000000000 -1.00000000000000000 0.00000000000000000 51.50000000000000000
1 0.00000000000000000 124.37369916445004492 0.00000000000000000 0.00000000000000000 1.00000000000000000 0.00000000000000000 1.00000000000000000 0.00000000000000000 0.00000000000000000 0.00000000000000000 0.00000000000000000 -1.00000000000000000 
3 58.00000000000000000 0.00000000000000000 0.00000000000000000 1.00000000000000000 0.00000000000000000 0.00000000000000000 0.00000000000000000 0.00000000000000000 1.00000000000000000 0.00000000000000000 -1.00000000000000000 0.00000000000000000 23.50000000000000000
0.39387545299116578
1 58.00000000000000000 0.00000000000000000 0.00000000000000000 1.00000000000000000 0.00000000000000000 0.00000000000000000 0.00000000000000000 0.00000000000000000 1.00000000000000000 0.00000000000000000 -1.00000000000000000 0.00000000000000000 
2 55.10047999999999746 0.00000000000000000 0.00000000000000000 1.00000000000000000 0.00000000000000000 0.00000000000000000 0.00000000000000000 0.00000000000000000 1.00000000000000000 0.00000000000000000 -1.00000000000000000 0.00000000000000000 18.00000000000000000
1 0.00000000000000000 41.00000000000000000 0.00000000000000000 0.00000000000000000 1.00000000000000000 0.00000000000000000 -1.00000000000000000 0.00000000000000000 0.00000000000000000 0.00000000000000000 0.00000000000000000 -1.00000000000000000 
2 0.00000000000000000 41.00000000000000000 0.00000000000000000 0.00000000000000000 1.00000000000000000 0.00000000000000000 1.00000000000000000 0.00000000000000000 0.00000000000000000 0.00000000000000000 0.00000000000000000 -1.00000000000000000 27.50000000000000000
2 40.00000000000000000 0.00000000000000000 0.00000000000000000 1.00000000000000000 0.00000000000000000 0.00000000000000000 0.00000000000000000 0.00000000000000000 1.00000000000000000 0.00000000000000000 -1.00000000000000000 0.00000000000000000 23.55008000000000123
1 55.10047999999999746 0.00000000000000000 0.00000000000000000 1.00000000000000000 0.00000000000000000 0.00000000000000000 0.00000000000000000 0.00000000000000000 1.00000000000000000 0.00000000000000000 -1.00000000000000000 0.00000000000000000 
2 40.00000000000000000 0.00000000000000000 0.00000000000000000 1.00000000000000000 0.00000000000000000 0.00000000000000000 0.00000000000000000 0.00000000000000000 1.00000000000000000 0.00000000000000000 -1.00000000000000000 0.00000000000000000 8.54011000000000031
1 56.10047999999999746 0.00000000000000000 0.00000000000000000 1.00000000000000000 0.00000000000000000 0.00000000000000000 0.00000000000000000 0.00000000000000000 1.00000000000000000 0.00000000000000000 -1.00000000000000000 0.00000000000000000 
2 56.10047999999999746 0.00000000000000000 0.00000000000000000 1.00000000000000000 0.00000000000000000 0.00000000000000000 0.00000000000000000 0.00000000000000000 1.00000000000000000 0.00000000000000000 -1.00000000000000000 0.00000000000000000 13.28261000000000003
1 71.00048000000001025 12.25261000000000067 -1.80000000000000004 1.00000000000000000 0.00000000000000000 0.00000000000000000 0.00000000000000000 0.00000000000000000 1.00000000000000000 0.00000000000000000 -1.00000000000000000 0.00000000000000000 
1 71.00048000000001025 12.25261000000000067 1.80000000000000004 0.00000000000000000 0.00000000000000000 1.00000000000000000 1.00000000000000000 0.00000000000000000 0.00000000000000000 0.00000000000000000 1.00000000000000000 0.00000000000000000 
1 75.10048000000000457 0.00000000000000000 0.00000000000000000 1.00000000000000000 0.00000000000000000 0.00000000000000000 0.00000000000000000 0.00000000000000000 1.00000000000000000 0.00000000000000000 -1.00000000000000000 0.00000000000000000 
1 71.00048000000001025 12.25261000000000067 -1.80000000000000004 0.00000000000000000 0.00000000000000000 1.00000000000000000 1.00000000000000000 0.00000000000000000 0.00000000000000000 0.00000000000000000 1.00000000000000000 0.00000000000000000 
1 71.00048000000001025 12.25261000000000067 -1.80000000000000004 1.00000000000000000 0.00000000000000000 0.00000000000000000 0.00000000000000000 0.00000000000000000 1.00000000000000000 0.00000000000000000 -1.00000000000000000 0.00000000000000000 
1 71.00048000000001025 12.25261000000000067 1.80000000000000004 0.00000000000000000 0.00000000000000000 1.00000000000000000 1.00000000000000000 0.00000000000000000 0.00000000000000000 0.00000000000000000 1.00000000000000000 0.00000000000000000 
1 75.10048000000000457 0.00000000000000000 0.00000000000000000 1.00000000000000000 0.00000000000000000 0.00000000000000000 0.00000000000000000 0.00000000000000000 1.00000000000000000 0.00000000000000000 -1.00000000000000000 0.00000000000000000 
1 71.00048000000001025 12.25261000000000067 -1.80000000000000004 0.00000000000000000 0.00000000000000000 1.00000000000000000 1.00000000000000000 0.00000000000000000 0.00000000000000000 0.00000000000000000 1.00000000000000000 0.00000000000000000 
1 71.00048000000001025 12.25261000000000067 -1.80000000000000004 1.00000000000000000 0.00000000000000000 0.00000000000000000 0.00000000000000000 0.00000000000000000 1.00000000000000000 0.00000000000000000 -1.00000000000000000 0.00000000000000000 
1 71.00048000000001025 12.25261000000000067 1.80000000000000004 0.00000000000000000 0.00000000000000000 1.00000000000000000 1.00000000000000000 0.00000000000000000 0.00000000000000000 0.00000000000000000 1.00000000000000000 0.00000000000000000 
1 75.10048000000000457 0.00000000000000000 0.00000000000000000 1.00000000000000000 0.00000000000000000 0.00000000000000000 0.00000000000000000 0.00000000000000000 1.00000000000000000 0.00000000000000000 -1.00000000000000000 0.00000000000000000 
1 71.00048000000001025 12.25261000000000067 -1.80000000000000004 0.00000000000000000 0.00000000000000000 1.00000000000000000 1.00000000000000000 0.00000000000000000 0.00000000000000000 0.00000000000000000 1.00000000000000000 0.00000000000000000 
1 71.00048000000001025 12.25261000000000067 -1.80000000000000004 1.00000000000000000 0.00000000000000000 0.00000000000000000 0.00000000000000000 0.00000000000000000 1.00000000000000000 0.00000000000000000 -1.00000000000000000 0.00000000000000000 
1 71.00048000000001025 12.25261000000000067 1.80000000000000004 0.00000000000000000 0.00000000000000000 1.00000000000000000 1.00000000000000000 0.00000000000000000 0.00000000000000000 0.00000000000000000 1.00000000000000000 0.00000000000000000 
1 75.10048000000000457 0.00000000000000000 0.00000000000000000 1.00000000000000000 0.00000000000000000 0.00000000000000000 0.00000000000000000 0.00000000000000000 1.00000000000000000 0.00000000000000000 -1.00000000000000000 0.00000000000000000 
1 71.00048000000001025 12.25261000000000067 -1.80000000000000004 0.00000000000000000 0.00000000000000000 1.00000000000000000 1.00000000000000000 0.00000000000000000 0.00000000000000000 0.00000000000000000 1.00000000000000000 0.00000000000000000 
1 129.37369916445004492 0.01107272850036553 1.04397286662614230 1.00000000000000000 0.00000000000000000 0.00000000000000000 0.00000000000000000 0.00000000000000000 1.00000000000000000 0.00000000000000000 -1.00000000000000000 0.00000000000000000 
Triangulations 0

TShapes 298
Ve
0.000000100000830
129.373699164450045 33.965242761466236 -65.744674949038327
0 0

0101101
*
Ve
0.000000100002181
129.373699164450045 70.505558964648685 22.471452002092750
0 0

0101101
*
Ed
 0.000000100000000 1 1 0
1  1 0 3.618450433367318 5.020929364004651
2  1 1 0 3.618450433367318 5.020929364004651
0

0101000
+298 3 -297 3 *
Ve
0.000000100002181
124.373699164450045 70.505558964648685 22.471452002092750
0 0

0101101
*
Ed
 0.000000100000000 1 1 0
1  2 0 0.000000000000000 5.000000000000000
2  2 1 0 0.000000000000000 5.000000000000000
2  3 2 0 0.000000000000000 5.000000000000000
0

0101000
+295 3 -297 3 *
Ve
0.000000100000830
124.373699164450045 33.965242761466236 -65.744674949038327
0 0

0101101
*
Ed
 0.000000100000000 1 1 0
1  3 0 3.618450433367318 5.020929364004651
2  4 1 0 3.618450433367318 5.020929364004651
0

0101000
+293 3 -295 3 *
Ed
 0.000000100000000 1 1 0
1  4 0 0.000000000000000 5.000000000000000
2  5 1 0 0.000000000000000 5.000000000000000
2  6 3 0 0.000000000000000 5.000000000000000
0

0101000
+293 3 -298 3 *
Wi

0101100
-296 0 +294 0 +292 0 -291 0 *
Fa
0  0.000000100000000 1 0

0101000
+290 0 *
Ve
0.000000100000404
129.373699164450045 22.471452002090636 -70.505558964650135
0 0

0101101
*
Ed
 0.000000100000000 1 1 0
1  5 0 0.937638433832792 6.130945036744210
2  7 3 0 0.937638433832792 6.130945036744210
0

0101000
+288 3 -298 3 *
Ve
0.000000100000404
124.373699164450045 22.471452002090636 -70.505558964650135
0 0

0101101
*
Ed
 0.000000100000000 1 1 0
1  6 0 0.937638433832792 6.130945036744210
2  8 3 0 0.937638433832792 6.130945036744210
0

0101000
+286 3 -293 3 *
Ed
 0.000000100000000 1 1 0
1  7 0 0.000000000000000 5.000000000000000
2  9 3 0 0.000000000000000 5.000000000000000
2  10 4 0 0.000000000000000 5.000000000000000
0

0101000
+286 3 -288 3 *
Wi

0101100
-287 0 +291 0 +285 0 -284 0 *
Fa
0  0.000000100000000 3 0

0101000
+283 0 *
Ve
0.000000100000269
129.373699164450045 -65.744674949038426 -33.965242761465561
0 0

0101101
*
Ed
 0.000000100000000 1 1 0
1  8 0 2.047654106572414 3.450133037209721
2  11 4 0 2.047654106572414 3.450133037209721
0

0101000
+281 3 -288 3 *
Ve
0.000000100000269
124.373699164450045 -65.744674949038426 -33.965242761465561
0 0

0101101
*
Ed
 0.000000100000000 1 1 0
1  9 0 2.047654106572414 3.450133037209721
2  12 4 0 2.047654106572414 3.450133037209721
0

0101000
+279 3 -286 3 *
Ed
 0.000000100000000 1 1 0
1  10 0 0.000000000000000 5.000000000000000
2  13 4 0 0.000000000000000 5.000000000000000
2  14 5 0 0.000000000000000 5.000000000000000
0

0101000
+279 3 -281 3 *
Wi

0101100
-280 0 +284 0 +278 0 -277 0 *
Fa
0  0.000000100000000 4 0

0101000
+276 0 *
Ve
0.000000100001010
124.373699164450045 65.744674949038654 33.965242761464410
0 0

0101101
*
Ve
0.000000100000000
124.373699164450045 0.000000000000018 74.000000000000000
0 0

0101101
*
Ed
 0.000000100000000 1 1 0
1  11 0 5.189246760162192 6.283185307179586
2  15 7 0 5.189246760162192 6.283185307179586
0

0101000
+274 3 -273 3 *
Ve
0.000000100000000
124.373699164450045 77.605880730948087 44.145408318667542
0 0

0101101
*
Ed
 0.000000100000000 1 1 0
1  12 0 0.000000000000000 1.418556056359665
2  16 2 0 0.000000000000000 1.418556056359665
0

0101000
+271 3 -274 3 *
Ed
 0.000000100000000 1 1 0
1  13 0 2.508434760627484 6.283185307179586
2  17 2 0 2.508434760627484 6.283185307179586
0

0101000
+295 3 -271 3 *
Ve
0.000000100000000
124.373699164450045 -77.605880730948087 -20.145408318667538
0 0

0101101
*
Ed
 0.000000100000000 1 1 0
1  14 0 0.000000000000000 4.560148709949366
2  18 5 0 0.000000000000000 4.560148709949366
0

0101000
+268 3 -279 3 *
Ve
0.000000100000211
124.373699164450045 -70.505558964649978 -22.471452002090842
0 0

0101101
*
Ed
 0.000000100000000 1 1 0
1  15 0 5.650027414217457 6.283185307179586
2  19 5 0 5.650027414217457 6.283185307179586
0

0101000
+266 3 -268 3 *
Ve
0.000000100000199
124.373699164450045 -33.965242761465589 65.744674949038426
0 0

0101101
*
Ed
 0.000000100000000 1 1 0
1  16 0 0.476857779777517 1.879336710414828
2  20 8 0 0.476857779777517 1.879336710414828
0

0101000
+264 3 -266 3 *
Ve
0.000000100000000
124.373699164450045 -32.145408318667535 89.605880730948087
0 0

0101101
*
Ed
 0.000000100000000 1 1 0
1  17 0 0.000000000000000 2.989352383154467
2  21 9 0 0.000000000000000 2.989352383154467
0

0101000
+262 3 -264 3 *
Ve
0.000000100000131
124.373699164450045 -22.471452002090835 70.505558964649978
0 0

0101101
*
Ed
 0.000000100000000 1 1 0
1  18 0 4.079231087422562 6.283185307179586
2  22 9 0 4.079231087422562 6.283185307179586
0

0101000
+260 3 -262 3 *
Ed
 0.000000100000000 1 1 0
1  19 0 0.000000000000000 0.308540383619932
2  23 7 0 0.000000000000000 0.308540383619932
0

0101000
+273 3 -260 3 *
Wi

0101100
-272 0 -270 0 -269 0 -292 0 -285 0 -278 0 -267 0 -265 0 -263 0 -261 0 
-259 0 -258 0 *
Ve
0.000000100000000
124.373699164450045 -55.499999999999986 0.000000000000000
0 0

0101101
*
Ed
 0.000000100000000 1 1 0
1  20 0 0.000000000000000 6.283185307179586
2  24 10 0 0.000000000000000 6.283185307179586
0

0101000
+256 5 -256 5 *
Wi

0101100
+255 4 *
Ve
0.000000100000000
124.373699164450045 77.605880730948087 36.957908318667542
0 0

0101101
*
Ed
 0.000000100000000 1 1 0
1  21 0 0.000000000000000 6.283185307179586
2  25 11 0 0.000000000000000 6.283185307179586
0

0101100
+253 3 -253 3 *
Wi

0101100
+252 0 *
Ve
0.000000100000000
124.373699164450045 32.145408318667563 -72.793380730948073
0 0

0101101
*
Ed
 0.000000100000000 1 1 0
1  22 0 0.000000000000000 6.283185307179586
2  26 12 0 0.000000000000000 6.283185307179586
0

0101100
+250 3 -250 3 *
Wi

0101100
+249 0 *
Ve
0.000000100000000
124.373699164450045 -32.145408318667535 82.418380730948087
0 0

0101101
*
Ed
 0.000000100000000 1 1 0
1  23 0 0.000000000000000 6.283185307179586
2  27 13 0 0.000000000000000 6.283185307179586
0

0101100
+247 3 -247 3 *
Wi

0101100
+246 0 *
Ve
0.000000100000015
124.373699164450045 -77.605880730948087 -27.332908318667538
0 0

0101101
*
Ed
 0.000000100000000 1 1 0
1  24 0 0.000000000000000 6.283185307179586
2  28 14 0 0.000000000000000 6.283185307179586
0

0101100
+244 3 -244 3 *
Wi

0101100
+243 0 *
Fa
0  0.000000100000000 6 0

0111000
+257 0 +254 0 +251 0 +248 0 +245 0 +242 0 *
Ve
0.000000100000199
129.373699164450045 -33.965242761465589 65.744674949038426
0 0

0101101
*
Ve
0.000000100000211
129.373699164450045 -70.505558964649978 -22.471452002090842
0 0

0101101
*
Ed
 0.000000100000000 1 1 0
1  25 0 0.476857779777517 1.879336710414828
2  29 8 0 0.476857779777517 1.879336710414828
0

0101000
+240 3 -239 3 *
Ed
 0.000000100000000 1 1 0
1  26 0 0.000000000000000 5.000000000000000
2  30 8 0 0.000000000000000 5.000000000000000
2  31 5 0 0.000000000000000 5.000000000000000
0

0101000
+266 3 -239 3 *
Ed
 0.000000100000000 1 1 0
1  27 0 0.000000000000000 5.000000000000000
2  32 8 0 0.000000000000000 5.000000000000000
2  33 9 0 0.000000000000000 5.000000000000000
0

0101000
+264 3 -240 3 *
Wi

0101100
-238 0 +237 0 +263 0 -236 0 *
Fa
0  0.000000100000000 8 0

0101000
+235 0 *
Ve
0.000000100000013
129.373699164450045 0.000000000000013 51.500000000000000
0 0

0101101
*
Ed
 0.000000100000000 1 1 0
1  28 0 0.000000000000000 6.283185307179586
2  34 15 0 0.000000000000000 6.283185307179586
0

0101100
+233 3 -233 3 *
Ve
0.000000100000013
124.373699164450045 0.000000000000013 51.500000000000000
0 0

0101101
*
Ed
 0.000000100000000 1 1 0
1  29 0 1.000000000000000 6.000000000000000
3  35 36CN 15 0 1.000000000000000 6.000000000000000
0

0101000
+231 3 -233 3 *
Ed
 0.000000100000000 1 1 0
1  30 0 0.000000000000000 6.283185307179586
2  37 15 0 0.000000000000000 6.283185307179586
0

0101000
+231 3 -231 3 *
Wi

0101100
-232 0 +230 0 +229 0 -230 0 *
Fa
0  0.000000100000000 15 0

0101000
+228 0 *
Wi

0101100
+229 0 *
Ve
0.000000100000013
124.373699164450045 0.000000000000013 51.084407560409360
0 0

0101101
*
Ed
 0.000000100000000 1 1 0
1  31 0 0.000000000000000 6.283185307179586
2  38 17 0 0.000000000000000 6.283185307179586
0

0101100
+225 3 -225 3 *
Wi

0101100
-224 0 *
Fa
0  0.000000100000000 16 4

0101000
+226 0 +223 0 *
Ve
0.000000100000000
58.000000000000000 0.000000000000006 23.500000000000000
0 0

0101101
*
Ed
 0.000000100000000 1 1 0
1  32 0 0.000000000000000 71.877447653848179
3  39 40CN 17 0 0.000000000000000 71.877447653848179
0

0101000
+221 3 -225 3 *
Ed
 0.000000100000000 1 1 0
1  33 0 0.000000000000000 6.283185307179586
2  41 17 0 0.000000000000000 6.283185307179586
0

0101000
+221 3 -221 3 *
Wi

0101100
-224 0 +220 0 +219 0 -220 0 *
Fa
0  0.000000100000000 17 0

0101000
+218 0 *
Wi

0101100
+219 0 *
Ve
0.000000100000004
58.000000000000000 0.000000000000004 18.000000000000000
0 0

0101101
*
Ed
 0.000000100000000 1 1 0
1  34 0 0.000000000000000 6.283185307179586
2  42 19 0 0.000000000000000 6.283185307179586
0

0101100
+215 3 -215 3 *
Wi

0101100
-214 0 *
Fa
0  0.000000100000000 18 0

0101000
+216 0 +213 0 *
Ve
0.000000100000000
41.000000000000000 -27.499999999999996 0.000000000000000
0 0

0101101
*
Ed
 0.000000100000000 1 1 0
1  35 0 0.000000000000000 6.283185307179586
2  43 21 0 0.000000000000000 6.283185307179586
0

0101000
+211 5 -211 5 *
Wi

0101100
-210 4 *
Ve
0.000000100000006
41.000000000000000 0.000000000000006 23.550080000000001
0 0

0101101
*
Ed
 0.000000100000000 1 1 0
1  36 0 0.000000000000000 6.283185307179586
2  44 22 0 0.000000000000000 6.283185307179586
0

0101100
+208 3 -208 3 *
Wi

0101100
+207 0 *
Fa
0  0.000000100000000 20 4

0101000
+209 0 +206 0 *
Ve
0.000000100000000
58.000000000000000 -27.499999999999993 0.000000000000000
0 0

0101101
*
Ed
 0.000000100000000 1 1 0
1  37 0 0.000000000000000 6.283185307179586
2  45 21 0 0.000000000000000 6.283185307179586
2  46 10 0 0.000000000000000 6.283185307179586
0

0101000
+204 5 -204 5 *
Ed
 0.000000100000000 1 1 0
1  38 0 0.000000000000000 17.000000000000000
3  47 48CN 21 0 0.000000000000000 17.000000000000000
0

0101000
+211 5 -204 5 *
Wi

0101100
+210 0 -203 0 -202 0 +202 0 *
Fa
0  0.000000100000000 21 0

0101000
+201 0 *
Ve
0.000000100000000
55.100479999999997 0.000000000000006 23.550080000000001
0 0

0101101
*
Ed
 0.000000100000000 1 1 0
1  39 0 1.000000000000000 15.100479999999997
3  49 50CN 22 0 1.000000000000000 15.100479999999997
0

0101000
+208 3 -199 3 *
Ed
 0.000000100000000 1 1 0
1  40 0 0.000000000000000 6.283185307179586
2  51 22 0 0.000000000000000 6.283185307179586
0

0101000
+199 3 -199 3 *
Wi

0101100
+198 0 +207 0 -198 0 -197 0 *
Fa
0  0.000000100000000 22 0

0101000
+196 0 *
Ed
 0.000000100000000 1 1 0
1  41 0 0.000000000000000 72.037961803294493
3  52 53CN 10 0 0.000000000000000 72.037961803294493
0

0101000
+204 5 -256 5 *
Wi

0101100
-194 4 -255 4 +194 4 +203 4 *
Fa
0  0.000000100000000 10 4

0101000
+193 0 *
Wi

0101100
+197 0 *
Ve
0.000000100000002
55.100479999999997 0.000000000000002 8.540110000000000
0 0

0101101
*
Ed
 0.000000100000000 1 1 0
1  42 0 0.000000000000000 6.283185307179586
2  54 24 0 0.000000000000000 6.283185307179586
0

0101100
+190 3 -190 3 *
Wi

0101100
-189 0 *
Fa
0  0.000000100000000 23 0

0101000
+191 0 +188 0 *
Ve
0.000000100000002
56.100479999999997 0.000000000000002 8.540110000000000
0 0

0101101
*
Ed
 0.000000100000000 1 1 0
1  43 0 0.000000000000000 6.283185307179586
2  55 24 0 0.000000000000000 6.283185307179586
0

0101100
+186 3 -186 3 *
Ed
 0.000000100000000 1 1 0
1  44 0 15.100479999999997 16.100479999999997
3  56 57CN 24 0 15.100479999999997 16.100479999999997
0

0101000
+190 3 -186 3 *
Wi

0101100
-185 0 +184 0 +189 0 -184 0 *
Fa
0  0.000000100000000 24 0

0101000
+183 0 *
Ve
0.000000100000000
56.100479999999997 0.000000000000003 13.282610000000000
0 0

0101101
*
Ed
 0.000000100000000 1 1 0
1  45 0 0.000000000000000 6.283185307179586
2  58 26 0 0.000000000000000 6.283185307179586
0

0101000
+181 3 -181 3 *
Wi

0101100
+180 0 *
Wi

0101100
-185 0 *
Fa
0  0.000000100000000 25 0

0101000
+179 0 +178 0 *
Ve
0.000000100000003
71.000480000000010 0.000000000000003 13.282610000000000
0 0

0101101
*
Ed
 0.000000100000000 1 1 0
1  46 0 0.000000000000000 14.900000000000013
3  59 60CN 26 0 0.000000000000000 14.900000000000013
0

0101000
+181 3 -176 3 *
Ve
0.000000100000000
71.000480000000010 -1.799999999999999 13.160080866472669
0 0

0101101
*
Ed
 0.000000100000000 1 1 0
1  47 0 0.000000000000000 0.135933778923738
2  61 26 0 0.000000000000000 0.135933778923738
0

0101000
+176 3 -174 3 *
Ve
0.000000150000000
75.100480000000005 -1.799999999999998 13.160080866472669
0 0

0101101
*
Ed
 0.000000100000000 1 1 0
1  48 0 14.900000000000013 19.000000000000007
2  62 26 0 14.900000000000013 19.000000000000007
0

0101000
+174 3 -172 3 *
Ve
0.000000150000000
75.100480000000005 -13.160080866472667 1.800000000000002
0 0

0101101
*
Ed
 0.000000100000000 1 1 0
1  49 0 0.135933778923738 1.434862547871159
2  63 26 0 0.135933778923738 1.434862547871159
0

0101000
+172 3 -170 3 *
Ve
0.000000100000002
71.000480000000010 -13.160080866472669 1.800000000000002
0 0

0101101
*
Ed
 0.000000100000000 1 1 0
1  50 0 14.900000000000013 19.000000000000007
2  64 26 0 14.900000000000013 19.000000000000007
0

0101000
+168 3 -170 3 *
Ve
0.000000100000001
71.000480000000010 -13.160080866472669 -1.799999999999998
0 0

0101101
*
Ed
 0.000000100000000 1 1 0
1  51 0 1.434862547871159 1.706730105718634
2  65 26 0 1.434862547871159 1.706730105718634
0

0101000
+168 3 -166 3 *
Ve
0.000000150000001
75.100480000000005 -13.160080866472669 -1.799999999999997
0 0

0101101
*
Ed
 0.000000100000000 1 1 0
1  52 0 14.900000000000013 19.000000000000007
2  66 26 0 14.900000000000013 19.000000000000007
0

0101000
+166 3 -164 3 *
Ve
0.000000150000000
75.100480000000005 -1.800000000000003 -13.160080866472667
0 0

0101101
*
Ed
 0.000000100000000 1 1 0
1  53 0 1.706730105718634 3.005658874666055
2  67 26 0 1.706730105718634 3.005658874666055
0

0101000
+164 3 -162 3 *
Ve
0.000000100000002
71.000480000000010 -1.800000000000003 -13.160080866472669
0 0

0101101
*
Ed
 0.000000100000000 1 1 0
1  54 0 14.900000000000013 19.000000000000007
2  68 26 0 14.900000000000013 19.000000000000007
0

0101000
+160 3 -162 3 *
Ve
0.000000100000004
71.000480000000010 1.799999999999997 -13.160080866472669
0 0

0101101
*
Ed
 0.000000100000000 1 1 0
1  55 0 3.005658874666055 3.277526432513531
2  69 26 0 3.005658874666055 3.277526432513531
0

0101000
+160 3 -158 3 *
Ve
0.000000150000004
75.100480000000005 1.799999999999994 -13.160080866472669
0 0

0101101
*
Ed
 0.000000100000000 1 1 0
1  56 0 14.900000000000013 19.000000000000007
2  70 26 0 14.900000000000013 19.000000000000007
0

0101000
+158 3 -156 3 *
Ve
0.000000150000002
75.100480000000005 13.160080866472669 -1.799999999999998
0 0

0101101
*
Ed
 0.000000100000000 1 1 0
1  57 0 3.277526432513531 4.576455201460952
2  71 26 0 3.277526432513531 4.576455201460952
0

0101000
+156 3 -154 3 *
Ve
0.000000100000002
71.000480000000010 13.160080866472669 -1.800000000000000
0 0

0101101
*
Ed
 0.000000100000000 1 1 0
1  58 0 14.900000000000013 19.000000000000007
2  72 26 0 14.900000000000013 19.000000000000007
0

0101000
+152 3 -154 3 *
Ve
0.000000100000007
71.000480000000010 13.160080866472669 1.800000000000000
0 0

0101101
*
Ed
 0.000000100000000 1 1 0
1  59 0 4.576455201460952 4.848322759308427
2  73 26 0 4.576455201460952 4.848322759308427
0

0101000
+152 3 -150 3 *
Ve
0.000000150000007
75.100480000000005 13.160080866472669 1.799999999999993
0 0

0101101
*
Ed
 0.000000100000000 1 1 0
1  60 0 14.900000000000013 19.000000000000007
2  74 26 0 14.900000000000013 19.000000000000007
0

0101000
+150 3 -148 3 *
Ve
0.000000150000003
75.100480000000005 1.799999999999998 13.160080866472669
0 0

0101101
*
Ed
 0.000000100000000 1 1 0
1  61 0 4.848322759308427 6.147251528255849
2  75 26 0 4.848322759308427 6.147251528255849
0

0101000
+148 3 -146 3 *
Ve
0.000000100000003
71.000480000000010 1.800000000000001 13.160080866472669
0 0

0101101
*
Ed
 0.000000100000000 1 1 0
1  62 0 14.900000000000013 19.000000000000007
2  76 26 0 14.900000000000013 19.000000000000007
0

0101000
+144 3 -146 3 *
Ed
 0.000000100000000 1 1 0
1  63 0 6.147251528255849 6.283185307179586
2  77 26 0 6.147251528255849 6.283185307179586
0

0101000
+144 3 -176 3 *
Wi

0101100
+180 0 -175 0 -173 0 -171 0 -169 0 +167 0 -165 0 -163 0 -161 0 +159 0 
-157 0 -155 0 -153 0 +151 0 -149 0 -147 0 -145 0 +143 0 -142 0 +175 0 
*
Fa
0  0.000000100000000 26 0

0101000
+141 0 *
Ve
0.000000100000000
71.000480000000010 -1.799999999999998 17.909773867919160
0 0

0101101
*
Ed
 0.000000100000000 1 1 0
1  64 0 0.907470866472668 5.657163867919159
0

0101000
+174 7 -139 7 *
Ve
0.000000100000004
71.000480000000010 0.000000000000004 18.000000000000000
0 0

0101101
*
Ed
 0.000000100000000 1 1 0
1  65 0 0.000000000000000 0.100167421161560
2  78 19 0 0.000000000000000 0.100167421161560
0

0101000
+137 3 -139 3 *
Ve
0.000000100000001
71.000480000000010 1.800000000000002 17.909773867919160
0 0

0101101
*
Ed
 0.000000100000000 1 1 0
1  66 0 6.183017886018026 6.283185307179586
2  79 19 0 6.183017886018026 6.283185307179586
0

0101000
+135 3 -137 3 *
Ed
 0.000000100000000 1 1 0
1  67 0 0.907470866472668 5.657163867919159
0

0101000
+144 7 -135 7 *
Wi

0101100
-138 6 +136 0 +134 0 +133 6 -142 0 -173 0 *
Fa
0  0.000000100000000 27 6

0101000
+132 0 *
Ve
0.000000150000000
75.100480000000005 -1.799999999999998 17.909773867919160
0 0

0101101
*
Ed
 0.000000100000000 1 1 0
1  68 0 15.900000000000013 20.000000000000007
2  80 19 0 15.900000000000013 20.000000000000007
0

0101000
+139 3 -130 3 *
Ed
 0.000000150000000 1 1 0
1  69 0 -11.783468867919160 -7.033775866472668
0

0101000
+130 3 -172 3 *
Wi

0101100
-138 6 -129 0 -128 0 +171 0 *
Fa
0  0.000000100000000 28 6

0101000
+127 0 *
Ve
0.000000150000002
75.100480000000005 -17.909773867919160 1.800000000000004
0 0

0101101
*
Ed
 0.000000150000000 1 1 0
1  70 0 -11.783468867919160 -7.033775866472666
0

0101000
+125 3 -170 3 *
Ed
 0.000000100000000 1 1 0
1  71 0 0.100167421161560 1.470628905633337
2  81 19 0 0.100167421161560 1.470628905633337
0

0101000
+130 3 -125 3 *
Wi

0101100
-128 0 -169 0 +124 0 +123 0 *
Fa
0  0.000000100000000 29 0

0101000
+122 0 *
Ve
0.000000100000002
71.000480000000010 -17.909773867919160 1.800000000000002
0 0

0101101
*
Ed
 0.000000100000000 1 1 0
1  72 0 0.907470866472668 5.657163867919159
0

0101000
+168 9 -120 9 *
Ed
 0.000000100000000 1 1 0
1  73 0 15.900000000000013 20.000000000000007
2  82 19 0 15.900000000000013 20.000000000000007
0

0101000
+120 3 -125 3 *
Wi

0101100
-119 8 -118 0 -124 0 +167 0 *
Fa
0  0.000000100000000 30 8

0101000
+117 0 *
Ve
0.000000100000000
71.000480000000010 -17.909773867919160 -1.799999999999998
0 0

0101101
*
Ed
 0.000000100000000 1 1 0
1  74 0 0.907470866472668 5.657163867919159
0

0101000
+166 9 -115 9 *
Ed
 0.000000100000000 1 1 0
1  75 0 1.470628905633337 1.670963747956456
2  83 19 0 1.470628905633337 1.670963747956456
0

0101000
+120 3 -115 3 *
Wi

0101100
-114 8 +113 0 +119 8 -165 0 *
Fa
0  0.000000100000000 31 8

0101000
+112 0 *
Ve
0.000000150000000
75.100480000000005 -17.909773867919160 -1.799999999999998
0 0

0101101
*
Ed
 0.000000100000000 1 1 0
1  76 0 15.900000000000013 20.000000000000007
2  84 19 0 15.900000000000013 20.000000000000007
0

0101000
+115 3 -110 3 *
Ed
 0.000000150000000 1 1 0
1  77 0 -11.783468867919160 -7.033775866472668
0

0101000
+110 3 -164 3 *
Wi

0101100
-114 8 -109 0 -108 0 +163 0 *
Fa
0  0.000000100000000 32 8

0101000
+107 0 *
Ve
0.000000150000005
75.100480000000005 -1.800000000000009 -17.909773867919156
0 0

0101101
*
Ed
 0.000000150000000 1 1 0
1  78 0 -11.783468867919156 -7.033775866472666
0

0101000
+105 3 -162 3 *
Ed
 0.000000100000000 1 1 0
1  79 0 1.670963747956456 3.041425232428233
2  85 19 0 1.670963747956456 3.041425232428233
0

0101000
+110 3 -105 3 *
Wi

0101100
-108 0 -161 0 +104 0 +103 0 *
Fa
0  0.000000100000000 33 0

0101000
+102 0 *
Ve
0.000000100000006
71.000480000000010 -1.800000000000004 -17.909773867919160
0 0

0101101
*
Ed
 0.000000100000000 1 1 0
1  80 0 0.907470866472668 5.657163867919159
0

0101000
+160 11 -100 11 *
Ed
 0.000000100000000 1 1 0
1  81 0 15.900000000000013 20.000000000000007
2  86 19 0 15.900000000000013 20.000000000000007
0

0101000
+100 3 -105 3 *
Wi

0101100
-99 10 -98 0 -104 0 +159 0 *
Fa
0  0.000000100000000 34 10

0101000
+97 0 *
Ve
0.000000100000001
71.000480000000010 1.799999999999996 -17.909773867919160
0 0

0101101
*
Ed
 0.000000100000000 1 1 0
1  82 0 0.907470866472668 5.657163867919159
0

0101000
+158 11 -95 11 *
Ed
 0.000000100000000 1 1 0
1  83 0 3.041425232428233 3.241760074751353
2  87 19 0 3.041425232428233 3.241760074751353
0

0101000
+100 3 -95 3 *
Wi

0101100
-94 10 +93 0 +99 10 -157 0 *
Fa
0  0.000000100000000 35 10

0101000
+92 0 *
Ve
0.000000150000001
75.100480000000005 1.799999999999997 -17.909773867919160
0 0

0101101
*
Ed
 0.000000100000000 1 1 0
1  84 0 15.900000000000013 20.000000000000007
2  88 19 0 15.900000000000013 20.000000000000007
0

0101000
+95 3 -90 3 *
Ed
 0.000000150000000 1 1 0
1  85 0 -11.783468867919160 -7.033775866472668
0

0101000
+90 3 -156 3 *
Wi

0101100
-94 10 -89 0 -88 0 +155 0 *
Fa
0  0.000000100000000 36 10

0101000
+87 0 *
Ve
0.000000150000002
75.100480000000005 17.909773867919160 -1.800000000000002
0 0

0101101
*
Ed
 0.000000150000000 1 1 0
1  86 0 -11.783468867919160 -7.033775866472668
0

0101000
+85 3 -154 3 *
Ed
 0.000000100000000 1 1 0
1  87 0 3.241760074751353 4.612221559223130
2  89 19 0 3.241760074751353 4.612221559223130
0

0101000
+90 3 -85 3 *
Wi

0101100
-88 0 -153 0 +84 0 +83 0 *
Fa
0  0.000000100000000 37 0

0101000
+82 0 *
Ve
0.000000100000002
71.000480000000010 17.909773867919160 -1.800000000000000
0 0

0101101
*
Ed
 0.000000100000000 1 1 0
1  88 0 0.907470866472668 5.657163867919159
0

0101000
+152 13 -80 13 *
Ed
 0.000000100000000 1 1 0
1  89 0 15.900000000000013 20.000000000000007
2  90 19 0 15.900000000000013 20.000000000000007
0

0101000
+80 3 -85 3 *
Wi

0101100
-79 12 -78 0 -84 0 +151 0 *
Fa
0  0.000000100000000 38 12

0101000
+77 0 *
Ve
0.000000100000004
71.000480000000010 17.909773867919160 1.800000000000000
0 0

0101101
*
Ed
 0.000000100000000 1 1 0
1  90 0 0.907470866472668 5.657163867919159
0

0101000
+150 13 -75 13 *
Ed
 0.000000100000000 1 1 0
1  91 0 4.612221559223130 4.812556401546249
2  91 19 0 4.612221559223130 4.812556401546249
0

0101000
+80 3 -75 3 *
Wi

0101100
-74 12 +73 0 +79 12 -149 0 *
Fa
0  0.000000100000000 39 12

0101000
+72 0 *
Ve
0.000000150000004
75.100480000000005 17.909773867919160 1.799999999999996
0 0

0101101
*
Ed
 0.000000100000000 1 1 0
1  92 0 15.900000000000013 20.000000000000007
2  92 19 0 15.900000000000013 20.000000000000007
0

0101000
+75 3 -70 3 *
Ed
 0.000000150000000 1 1 0
1  93 0 -11.783468867919160 -7.033775866472668
0

0101000
+70 3 -148 3 *
Wi

0101100
-74 12 -69 0 -68 0 +147 0 *
Fa
0  0.000000100000000 40 12

0101000
+67 0 *
Ve
0.000000150000001
75.100480000000005 1.800000000000003 17.909773867919160
0 0

0101101
*
Ed
 0.000000150000000 1 1 0
1  94 0 -11.783468867919160 -7.033775866472668
0

0101000
+65 3 -146 3 *
Ed
 0.000000100000000 1 1 0
1  95 0 4.812556401546249 6.183017886018026
2  93 19 0 4.812556401546249 6.183017886018026
0

0101000
+70 3 -65 3 *
Wi

0101100
-68 0 -145 0 +64 0 +63 0 *
Fa
0  0.000000100000000 41 0

0101000
+62 0 *
Ed
 0.000000100000000 1 1 0
1  96 0 15.900000000000013 20.000000000000007
2  94 19 0 15.900000000000013 20.000000000000007
0

0101000
+135 3 -65 3 *
Wi

0101100
-133 6 -60 0 -64 0 +143 0 *
Fa
0  0.000000100000000 42 6

0101000
+59 0 *
Ed
 0.000000100000000 1 1 0
1  97 0 2.899520000000003 15.900000000000013
3  95 96CN 19 0 2.899520000000003 15.900000000000013
0

0101000
+215 3 -137 3 *
Wi

0101100
-57 0 -136 0 -129 0 -123 0 +118 0 -113 0 -109 0 -103 0 +98 0 -93 0 
-89 0 -83 0 +78 0 -73 0 -69 0 -63 0 +60 0 -134 0 +57 0 +214 0 
*
Fa
0  0.000000100000000 19 0

0101000
+56 0 *
Ve
0.000000100000000
129.373699164450045 77.605880730948087 36.957908318667542
0 0

0101101
*
Ed
 0.000000100000000 1 1 0
1  98 0 0.000000000000000 6.283185307179586
2  97 11 0 0.000000000000000 6.283185307179586
0

0101100
+54 3 -54 3 *
Ed
 0.000000100000000 1 1 0
1  99 0 1.000000000000000 6.000000000000000
3  98 99CN 11 0 1.000000000000000 6.000000000000000
0

0101000
+253 3 -54 3 *
Wi

0101100
-53 0 +52 0 +252 0 -52 0 *
Fa
0  0.000000100000000 11 0

0101000
+51 0 *
Ve
0.000000100000000
129.373699164450045 32.145408318667563 -72.793380730948073
0 0

0101101
*
Ed
 0.000000100000000 1 1 0
1  100 0 0.000000000000000 6.283185307179586
2  100 12 0 0.000000000000000 6.283185307179586
0

0101100
+49 3 -49 3 *
Ed
 0.000000100000000 1 1 0
1  101 0 1.000000000000000 6.000000000000000
3  101 102CN 12 0 1.000000000000000 6.000000000000000
0

0101000
+250 3 -49 3 *
Wi

0101100
-48 0 +47 0 +249 0 -47 0 *
Fa
0  0.000000100000000 12 0

0101000
+46 0 *
Ve
0.000000100000000
129.373699164450045 -32.145408318667535 82.418380730948087
0 0

0101101
*
Ed
 0.000000100000000 1 1 0
1  102 0 0.000000000000000 6.283185307179586
2  103 13 0 0.000000000000000 6.283185307179586
0

0101100
+44 3 -44 3 *
Ed
 0.000000100000000 1 1 0
1  103 0 1.000000000000000 6.000000000000000
3  104 105CN 13 0 1.000000000000000 6.000000000000000
0

0101000
+247 3 -44 3 *
Wi

0101100
-43 0 +42 0 +246 0 -42 0 *
Fa
0  0.000000100000000 13 0

0101000
+41 0 *
Ve
0.000000100000015
129.373699164450045 -77.605880730948087 -27.332908318667538
0 0

0101101
*
Ed
 0.000000100000000 1 1 0
1  104 0 0.000000000000000 6.283185307179586
2  106 14 0 0.000000000000000 6.283185307179586
0

0101100
+39 3 -39 3 *
Ed
 0.000000100000000 1 1 0
1  105 0 1.000000000000000 6.000000000000000
3  107 108CN 14 0 1.000000000000000 6.000000000000000
0

0101000
+244 3 -39 3 *
Wi

0101100
-38 0 +37 0 +243 0 -37 0 *
Fa
0  0.000000100000000 14 0

0101000
+36 0 *
Ve
0.000000100000000
129.373699164450045 77.605880730948087 44.145408318667542
0 0

0101101
*
Ed
 0.000000100000000 1 1 0
1  106 0 2.508434760627484 6.283185307179586
2  109 2 0 2.508434760627484 6.283185307179586
0

0101000
+297 3 -34 3 *
Ve
0.000000100001010
129.373699164450045 65.744674949038654 33.965242761464410
0 0

0101101
*
Ed
 0.000000100000000 1 1 0
1  107 0 0.000000000000000 1.418556056359665
2  110 2 0 0.000000000000000 1.418556056359665
0

0101000
+34 3 -32 3 *
Ve
0.000000100000000
129.373699164450045 0.000000000000018 74.000000000000000
0 0

0101101
*
Ed
 0.000000100000000 1 1 0
1  108 0 5.189246760162192 6.283185307179586
2  111 7 0 5.189246760162192 6.283185307179586
0

0101000
+32 3 -30 3 *
Ve
0.000000100000131
129.373699164450045 -22.471452002090835 70.505558964649978
0 0

0101101
*
Ed
 0.000000100000000 1 1 0
1  109 0 0.000000000000000 0.308540383619932
2  112 7 0 0.000000000000000 0.308540383619932
0

0101000
+30 3 -28 3 *
Ve
0.000000100000000
129.373699164450045 -32.145408318667535 89.605880730948087
0 0

0101101
*
Ed
 0.000000100000000 1 1 0
1  110 0 4.079231087422562 6.283185307179586
2  113 9 0 4.079231087422562 6.283185307179586
0

0101000
+28 3 -26 3 *
Ed
 0.000000100000000 1 1 0
1  111 0 0.000000000000000 2.989352383154467
2  114 9 0 0.000000000000000 2.989352383154467
0

0101000
+26 3 -240 3 *
Ve
0.000000100000000
129.373699164450045 -77.605880730948087 -20.145408318667538
0 0

0101101
*
Ed
 0.000000100000000 1 1 0
1  112 0 5.650027414217457 6.283185307179586
2  115 5 0 5.650027414217457 6.283185307179586
0

0101000
+239 3 -23 3 *
Ed
 0.000000100000000 1 1 0
1  113 0 0.000000000000000 4.560148709949366
2  116 5 0 0.000000000000000 4.560148709949366
0

0101000
+23 3 -281 3 *
Wi

0101100
+296 0 +33 0 +31 0 +29 0 +27 0 +25 0 +24 0 +238 0 +22 0 +21 0 
+280 0 +287 0 *
Wi

0101100
-232 0 *
Wi

0101100
-53 0 *
Wi

0101100
-48 0 *
Wi

0101100
-38 0 *
Wi

0101100
-43 0 *
Fa
0  0.000000100000000 43 0

0111000
+20 0 +19 0 +18 0 +17 0 +16 0 +15 0 *
Ed
 0.000000100000000 1 1 0
1  114 0 0.000000000000000 5.000000000000000
2  117 7 0 0.000000000000000 5.000000000000000
2  118 9 0 0.000000000000000 5.000000000000000
0

0101000
+260 3 -28 3 *
Ed
 0.000000100000000 1 1 0
1  115 0 0.000000000000000 5.000000000000000
2  119 7 0 0.000000000000000 5.000000000000000
2  120 2 0 0.000000000000000 5.000000000000000
0

0101000
+274 3 -32 3 *
Wi

0101100
+258 0 +13 0 -27 0 -29 0 -12 0 +272 0 *
Fa
0  0.000000100000000 7 0

0111000
+11 0 *
Wi

0101100
-33 0 -294 0 +269 0 +270 0 +12 0 -31 0 *
Fa
0  0.000000100000000 2 0

0111000
+9 0 *
Wi

0101100
+261 0 +236 0 -24 0 -25 0 -13 0 +259 0 *
Fa
0  0.000000100000000 9 0

0111000
+7 0 *
Wi

0101100
+267 0 +277 0 -21 0 -22 0 -237 0 +265 0 *
Fa
0  0.000000100000000 5 0

0111000
+5 0 *
Sh

0101100
+289 0 +282 0 +275 0 +241 0 +234 0 -227 0 +222 0 -217 0 +212 0 +205 0 
+200 4 -195 0 +192 0 -187 0 -182 0 +177 0 -140 0 +131 0 -126 0 +121 0 
+116 0 +111 0 -106 0 +101 0 +96 0 +91 0 -86 0 +81 0 +76 0 +71 0 
-66 0 +61 0 +58 0 +55 0 -50 0 -45 0 -40 0 -35 0 +14 0 +10 0 
+8 0 +6 0 +4 0 *
So

0100000
+3 0 *
Co

1100000
+2 0 *

+1 1 