DBRep_DrawableShape

CASCADE Topology V1, (c) Matra-Datavision
Locations 0
Curve2ds 0
Curves 1
2 531.22500000000002 8.8817841970012523e-16 1.3322676295501878e-15 1 0 0 0 0.2153551946342043 -0.9765357853883615 -0 0.9765357853883615 0.2153551946342043 120.50624999999998
Polygon3D 0
PolygonOnTriangulations 0
Surfaces 0
Triangulations 0

TShapes 3
Ve
1e-07
531.225 25.9516469233881 -117.678665487956
0 0

0101101
*
Ve
1e-07
531.225 -25.9516469233884 -117.678665487956
0 0

0101101
*
Ed
 1e-07 1 1 0
1  1 0 0 5.84907421814221
0

1101000
+3 0 -2 0 *

+1 0 