DBRep_DrawableShape

CASCADE Topology V1, (c) Matra-Datavision
Locations 0
Curve2ds 0
Curves 1
7 0 0  3 63 61  531.22500000000002 -30.233177386709677 -137.09341757120851  531.22500000000002 -30.621447323989198 -137.00779472226557  531.22500000000014 -31.39603380649541 -136.82574741766788  531.22499999999991 -32.550851736514844 -136.52133275845176  531.22500000000002 -33.698693074403849 -136.18626296161804  531.22499999999991 -34.839121781906492 -135.82137152668733  531.22500000000014 -35.971718424196141 -135.42749729103551  531.22500000000014 -37.096089464664153 -135.00548549852587  531.22500000000002 -38.211865519946834 -134.55618694555628  531.22500000000002 -39.318702531245947 -134.08045756074858  531.22500000000002 -40.416282098633189 -133.57915779675659  531.22500000000002 -41.504311982231414 -133.05315201185059  531.22499999999991 -42.582526498376218 -132.5033078037344  531.22500000000002 -43.650686882950531 -131.93049531510923  531.22500000000002 -44.708581602849677 -131.33558651435115  531.22499999999991 -45.756026621975678 -130.71945445814757  531.22500000000014 -46.79286562204058 -130.08297254113791  531.22499999999991 -47.818970180626643 -129.42701373725365  531.22500000000002 -48.834239908732343 -128.75244983676399  531.22499999999991 -49.838602550314718 -128.06015068248848  531.22500000000014 -50.832014046380202 -127.35098340814015  531.22499999999991 -51.814458566188812 -126.62581168131027  531.22500000000014 -52.785948508091579 -125.88549495323787  531.22499999999991 -53.746524472432 -125.13088771717142  531.22500000000014 -54.696255208830806 -124.36283877687538  531.22500000000002 -55.635237540036954 -123.58219052661747  531.22500000000002 -56.563596264373757 -122.78977824381288  531.22500000000002 -57.481484038647842 -121.98642939538256  531.22500000000014 -58.389081243220637 -121.17296295881697  531.22499999999991 -59.286595830760191 -120.35018875889394  531.22500000000002 -60.174263160012771 -119.51890682100463  531.22500000000014 -61.052345815742441 -118.67990674207455  531.22500000000002 -61.921133415788418 -117.83396708012221  531.22500000000002 -62.780942405982572 -116.98185476358869  531.22500000000002 -63.632115843445227 -116.12432452166941  531.22500000000002 -64.475023168540972 -115.2621183370088  531.22500000000025 -65.310059965507946 -114.39596492224278  531.22499999999991 -66.137647711490942 -113.52657922201702  531.22500000000002 -66.95823351338683 -112.65466194224186  531.22499999999991 -67.772289831553437 -111.78089910846671  531.22500000000002 -68.580314189039115 -110.9059616553581  531.22500000000002 -69.382828864553787 -110.0305050493314  531.22500000000002 -70.180380566915034 -109.15516894639151  531.22500000000002 -70.97354008818111 -108.28057688717934  531.22500000000002 -71.76290193211932 -107.40733603106244  531.22499999999991 -72.549083914059921 -106.5360369308216  531.22500000000014 -73.332726727584557 -105.66725334905853  531.22500000000002 -74.114493472893471 -104.80154211682584  531.22499999999991 -74.89506914114358 -103.93944303415245  531.22500000000002 -75.675160048562674 -103.08147881105151  531.22500000000002 -76.45549321383433 -102.22815504624941  531.22500000000002 -77.236815672027205 -101.37996023921463  531.22500000000014 -78.019893718807694 -100.53736582917146  531.22500000000002 -78.80551207802354 -99.700826252372593  531.22500000000014 -79.594472991107494 -98.870779007155832  531.22500000000002 -80.387595212050769 -98.047644711046502  531.22500000000002 -81.185712954383817 -97.231827141343402  531.22500000000014 -81.989674614375929 -96.423713211485293  531.22500000000002 -82.800341936911053 -95.623672969621808  531.22500000000002 -83.618587169775225 -94.832059196158383  531.22500000000002 -84.445297410246695 -94.049208070739965  531.22500000000002 -85.002418689145614 -93.533589423897709  531.22500000000002 -85.282614970435162 -93.277412807466433 
 0 4 1.1927427103435773 1 2.3868039239363847 1 3.582368276600203 1 4.7795840303267436 1 5.9785649102012917 1 7.1793919513063633 1 8.3821153431928614 1 9.5867562615685102 1 10.793308678797354 1 12.001741146575739 1 13.211998545769733 1 14.424003799831665 1 15.63765954949543 1 16.852849787562239 1 18.069441453545483 1 19.287285988773174 1 20.506220853243711 1 21.726071006109031 1 22.946650352152226 1 24.167763157016253 1 25.389205434267389 1 26.610766307621759 1 27.832229351865802 1 29.053373916145638 1 30.273976433395674 1 31.493811719744663 1 32.712654267762424 1 33.930279537397773 1 35.146465248424185 1 36.360992678137698 1 37.573647967939799 1 38.784223442305056 1 39.992518943446356 1 41.198343184773179 1 42.401515125958831 1 43.601865372111426 1 44.799237599156228 1 45.993490007074058 1 47.18449680211571 1 48.372149708498178 1 49.556359509379796 1 50.737057616121518 1 51.914197663947327 1 53.087757131120128 1 54.257738977670662 1 55.424173298538037 1 56.587118984738062 1 57.7466653848658 1 58.902933957911536 1 60.056079907042744 1 61.206293782716244 1 62.353803042301635 1 63.498873552355114 1 64.641811018832755 1 65.782962329952866 1 66.922716796122941 1 68.061507271403073 1 69.19981114137596 1 70.338151163058029 1 71.477096143568261 4
Polygon3D 0
PolygonOnTriangulations 0
Surfaces 0
Triangulations 0

TShapes 3
Ve
1e-07
531.225 -30.2331773867097 -137.093417571209
0 0

0101101
*
Ve
1e-07
531.225 -85.2826149704352 -93.2774128074664
0 0

0101101
*
Ed
 1e-07 1 1 0
1  1 0 0 71.4770961435683
0

1101000
+3 0 -2 0 *

+1 0 