
CASCADE Topology V1, (c) Matra-Datavision
Locations 13
1
1.000000000000000 0.000000000000000 0.000000000000000 0.000000000000000 
0.000000000000000 1.000000000000000 0.000000000000000 0.000000000000000 
0.000000000000000 0.000000000000000 1.000000000000000 0.000000000000000 
1
1.000000000000000 0.000000000000000 0.000000000000000 0.000000000000000 
0.000000000000000 1.000000000000000 0.000000000000000 0.000000000000000 
0.000000000000000 0.000000000000000 1.000000000000000 0.000000000000000 
2  2 -1 0
1
1.000000000000000 0.000000000000000 0.000000000000000 0.000000000000000 
0.000000000000000 1.000000000000000 0.000000000000000 0.000000000000000 
0.000000000000000 0.000000000000000 1.000000000000000 25.399999999999999 
2  2 -1 4 -1 0
1
1.000000000000000 0.000000000000000 0.000000000000000 0.000000000000000 
0.000000000000000 1.000000000000000 0.000000000000000 0.000000000000000 
0.000000000000000 0.000000000000000 1.000000000000000 12.699999999999999 
2  6 1 4 1 0
2  2 -1 4 -1 6 -1 0
1
1.000000000000000 0.000000000000000 0.000000000000000 0.000000000000000 
0.000000000000000 1.000000000000000 0.000000000000000 0.000000000000000 
0.000000000000000 0.000000000000000 1.000000000000000 25.399999999999999 
2  2 -1 9 -1 0
1
1.000000000000000 0.000000000000000 0.000000000000000 0.000000000000000 
0.000000000000000 1.000000000000000 0.000000000000000 0.000000000000000 
0.000000000000000 0.000000000000000 1.000000000000000 12.699999999999999 
2  11 1 9 1 0
2  2 -1 9 -1 11 -1 0
Curve2ds 64
1 0.00000000000000000 3.17499999999999982 1.00000000000000000 0.00000000000000000 
1 6.28318530717958623 -0.00000000000000000 0.00000000000000000 1.00000000000000000 
1 0.00000000000000000 -0.00000000000000000 0.00000000000000000 1.00000000000000000 
1 0.00000000000000000 31.75000000000000000 1.00000000000000000 0.00000000000000000 
1 0.84106867056793033 0.00000000000000000 0.00000000000000000 1.00000000000000000 
1 0.00000000000000000 25.39999999999999858 1.00000000000000000 0.00000000000000000 
1 2.30052398302186312 0.00000000000000000 0.00000000000000000 1.00000000000000000 
1 0.00000000000000000 31.75000000000000000 1.00000000000000000 0.00000000000000000 
1 3.98266132415772312 0.00000000000000000 0.00000000000000000 1.00000000000000000 
1 0.00000000000000000 25.39999999999999858 1.00000000000000000 0.00000000000000000 
1 5.44211663661165623 0.00000000000000000 0.00000000000000000 1.00000000000000000 
1 0.00000000000000000 31.75000000000000000 1.00000000000000000 0.00000000000000000 
1 0.00000000000000000 3.17499999999999982 1.00000000000000000 0.00000000000000000 
1 0.00000000000000000 0.00000000000000000 1.00000000000000000 0.00000000000000000 
1 0.00000000000000000 0.00000000000000000 1.00000000000000000 0.00000000000000000 
1 1.04719755119659785 0.00000000000000000 0.00000000000000000 1.00000000000000000 
1 5.44211663661165623 0.00000000000000000 0.00000000000000000 1.00000000000000000 
1 3.98266132415772356 0.00000000000000000 0.00000000000000000 1.00000000000000000 
1 2.09439510239319526 0.00000000000000000 0.00000000000000000 1.00000000000000000 
1 0.00000000000000000 0.00000000000000000 1.00000000000000000 0.00000000000000000 
1 4.18879020478639141 0.00000000000000000 0.00000000000000000 1.00000000000000000 
1 2.30052398302186267 0.00000000000000000 0.00000000000000000 1.00000000000000000 
1 0.84106867056793044 0.00000000000000000 0.00000000000000000 1.00000000000000000 
1 5.23598775598298793 0.00000000000000000 0.00000000000000000 1.00000000000000000 
1 6.28318530717958623 -0.00000000000000000 0.00000000000000000 1.00000000000000000 
1 0.00000000000000000 -0.00000000000000000 0.00000000000000000 1.00000000000000000 
1 0.00000000000000000 0.00000000000000000 1.00000000000000000 0.00000000000000000 
1 0.00000000000000000 6.34999999999999964 1.00000000000000000 0.00000000000000000 
1 0.00000000000000000 -0.00000000000000000 0.00000000000000000 1.00000000000000000 
1 6.28318530717958623 -0.00000000000000000 0.00000000000000000 1.00000000000000000 
1 0.00000000000000000 6.34999999999999964 1.00000000000000000 0.00000000000000000 
1 6.28318530717958623 -0.00000000000000000 0.00000000000000000 1.00000000000000000 
1 0.00000000000000000 -0.00000000000000000 0.00000000000000000 1.00000000000000000 
1 0.00000000000000000 0.00000000000000000 1.00000000000000000 0.00000000000000000 
1 0.00000000000000000 12.69999999999999929 1.00000000000000000 0.00000000000000000 
1 0.00000000000000000 1.00000000000000000 1.00000000000000000 0.00000000000000000 
1 0.00000000000000000 12.69999999999999929 1.00000000000000000 0.00000000000000000 
1 0.00000000000000000 0.00000000000000000 1.00000000000000000 0.00000000000000000 
1 0.00000000000000000 6.34999999999999964 1.00000000000000000 0.00000000000000000 
1 6.28318530717958623 -0.00000000000000000 0.00000000000000000 1.00000000000000000 
1 0.00000000000000000 -0.00000000000000000 0.00000000000000000 1.00000000000000000 
1 0.00000000000000000 0.00000000000000000 1.00000000000000000 0.00000000000000000 
1 0.00000000000000000 12.69999999999999929 1.00000000000000000 0.00000000000000000 
1 0.00000000000000000 1.00000000000000000 1.00000000000000000 0.00000000000000000 
1 0.00000000000000000 12.69999999999999929 1.00000000000000000 0.00000000000000000 
1 0.00000000000000000 0.00000000000000000 1.00000000000000000 0.00000000000000000 
1 0.00000000000000000 13.69999999999999574 1.00000000000000000 0.00000000000000000 
1 0.00000000000000000 1.00000000000000000 1.00000000000000000 0.00000000000000000 
1 0.00000000000000000 13.69999999999999574 1.00000000000000000 0.00000000000000000 
1 6.28318530717958623 -0.00000000000000000 0.00000000000000000 1.00000000000000000 
1 0.00000000000000000 -0.00000000000000000 0.00000000000000000 1.00000000000000000 
1 0.00000000000000000 13.69999999999999574 1.00000000000000000 0.00000000000000000 
1 0.00000000000000000 1.00000000000000000 1.00000000000000000 0.00000000000000000 
1 0.00000000000000000 13.69999999999999574 1.00000000000000000 0.00000000000000000 
1 6.28318530717958623 -0.00000000000000000 0.00000000000000000 1.00000000000000000 
1 0.00000000000000000 -0.00000000000000000 0.00000000000000000 1.00000000000000000 
1 0.00000000000000000 1.00000000000000000 1.00000000000000000 0.00000000000000000 
1 0.00000000000000000 39.10000000000000142 1.00000000000000000 0.00000000000000000 
1 0.00000000000000000 39.10000000000000142 1.00000000000000000 0.00000000000000000 
1 0.00000000000000000 39.10000000000000142 1.00000000000000000 0.00000000000000000 
1 0.00000000000000000 39.10000000000000142 1.00000000000000000 0.00000000000000000 
1 0.00000000000000000 39.10000000000000142 1.00000000000000000 0.00000000000000000 
1 6.28318530717958623 -0.00000000000000000 0.00000000000000000 1.00000000000000000 
1 0.00000000000000000 -0.00000000000000000 0.00000000000000000 1.00000000000000000 
Curves 104
2 0.00000000000000000 0.00000000000000000 3.17499999999999982 0.00000000000000000 0.00000000000000000 1.00000000000000000 1.00000000000000000 0.00000000000000000 -0.00000000000000000 -0.00000000000000000 1.00000000000000000 0.00000000000000000 19.05000000000000071
1 19.05000000000000071 -0.00000000000000467 0.00000000000000000 0.00000000000000000 0.00000000000000000 1.00000000000000000 
2 0.00000000000000000 0.00000000000000000 31.75000000000000000 0.00000000000000000 0.00000000000000000 1.00000000000000000 1.00000000000000000 0.00000000000000000 -0.00000000000000000 -0.00000000000000000 1.00000000000000000 0.00000000000000000 19.05000000000000071
1 12.69999999999999929 14.19903165712366544 0.00000000000000000 0.00000000000000000 0.00000000000000000 1.00000000000000000 
2 0.00000000000000000 0.00000000000000000 25.39999999999999858 0.00000000000000000 0.00000000000000000 1.00000000000000000 1.00000000000000000 0.00000000000000000 -0.00000000000000000 -0.00000000000000000 1.00000000000000000 0.00000000000000000 19.05000000000000071
1 -12.69999999999999929 14.19903165712366544 0.00000000000000000 0.00000000000000000 0.00000000000000000 1.00000000000000000 
2 0.00000000000000000 0.00000000000000000 31.75000000000000000 0.00000000000000000 0.00000000000000000 1.00000000000000000 1.00000000000000000 0.00000000000000000 -0.00000000000000000 -0.00000000000000000 1.00000000000000000 0.00000000000000000 19.05000000000000071
1 -12.69999999999999929 -14.19903165712366544 0.00000000000000000 0.00000000000000000 0.00000000000000000 1.00000000000000000 
2 0.00000000000000000 0.00000000000000000 25.39999999999999858 0.00000000000000000 0.00000000000000000 1.00000000000000000 1.00000000000000000 0.00000000000000000 -0.00000000000000000 -0.00000000000000000 1.00000000000000000 0.00000000000000000 19.05000000000000071
1 12.69999999999999929 -14.19903165712366544 0.00000000000000000 0.00000000000000000 0.00000000000000000 1.00000000000000000 
2 0.00000000000000000 0.00000000000000000 31.75000000000000000 0.00000000000000000 0.00000000000000000 1.00000000000000000 1.00000000000000000 0.00000000000000000 -0.00000000000000000 -0.00000000000000000 1.00000000000000000 0.00000000000000000 19.05000000000000071
2 0.00000000000000000 0.00000000000000000 3.17499999999999982 0.00000000000000000 0.00000000000000000 1.00000000000000000 1.00000000000000000 0.00000000000000000 -0.00000000000000000 -0.00000000000000000 1.00000000000000000 0.00000000000000000 25.39999999999999858
1 12.69999999999999929 0.00000000000000000 31.75000000000000000 0.00000000000000000 1.00000000000000000 0.00000000000000000 
1 12.69999999999999929 101.59999999999999432 31.75000000000000000 0.00000000000000000 1.00000000000000000 0.00000000000000000 
2 0.00000000000000000 0.00000000000000000 31.75000000000000000 0.00000000000000000 0.00000000000000000 1.00000000000000000 1.00000000000000000 0.00000000000000000 -0.00000000000000000 -0.00000000000000000 1.00000000000000000 0.00000000000000000 25.39999999999999858
2 0.00000000000000000 0.00000000000000000 31.75000000000000000 0.00000000000000000 0.00000000000000000 1.00000000000000000 1.00000000000000000 0.00000000000000000 -0.00000000000000000 -0.00000000000000000 1.00000000000000000 0.00000000000000000 25.39999999999999858
1 12.69999999999999929 203.19999999999998863 0.00000000000000000 0.00000000000000000 -1.00000000000000000 0.00000000000000000 
1 12.69999999999999929 21.99704525612474271 31.75000000000000000 0.00000000000000000 0.00000000000000000 1.00000000000000000 
1 12.69999999999999929 203.19999999999998863 0.00000000000000000 0.00000000000000000 -1.00000000000000000 0.00000000000000000 
1 12.69999999999999929 189.00096834287631964 25.39999999999999858 0.00000000000000000 0.00000000000000000 1.00000000000000000 
2 0.00000000000000000 203.19999999999998863 25.39999999999999858 0.00000000000000000 0.00000000000000000 1.00000000000000000 1.00000000000000000 0.00000000000000000 -0.00000000000000000 -0.00000000000000000 1.00000000000000000 0.00000000000000000 19.05000000000000071
1 -12.69999999999999929 0.00000000000000000 0.00000000000000000 0.00000000000000000 1.00000000000000000 0.00000000000000000 
1 -12.69999999999999929 189.00096834287631964 25.39999999999999858 0.00000000000000000 0.00000000000000000 1.00000000000000000 
1 -12.69999999999999929 0.00000000000000000 0.00000000000000000 0.00000000000000000 1.00000000000000000 0.00000000000000000 
1 -12.69999999999999929 21.99704525612474271 31.75000000000000000 0.00000000000000000 0.00000000000000000 1.00000000000000000 
1 -12.69999999999999929 0.00000000000000000 31.75000000000000000 0.00000000000000000 -1.00000000000000000 0.00000000000000000 
1 -12.69999999999999929 -32.41046552662390212 31.75000000000000000 0.00000000000000000 -1.00000000000000000 0.00000000000000000 
2 0.00000000000000000 0.00000000000000000 31.75000000000000000 0.00000000000000000 0.00000000000000000 1.00000000000000000 1.00000000000000000 0.00000000000000000 -0.00000000000000000 -0.00000000000000000 1.00000000000000000 0.00000000000000000 25.39999999999999858
1 -12.69999999999999929 -64.82093105324780424 0.00000000000000000 0.00000000000000000 1.00000000000000000 0.00000000000000000 
1 -12.69999999999999929 -21.99704525612474271 31.75000000000000000 0.00000000000000000 0.00000000000000000 1.00000000000000000 
1 -12.69999999999999929 -64.82093105324780424 0.00000000000000000 0.00000000000000000 1.00000000000000000 0.00000000000000000 
1 -12.69999999999999929 -50.62189939612413525 25.39999999999999858 0.00000000000000000 0.00000000000000000 1.00000000000000000 
2 0.00000000000000000 -64.82093105324780424 25.39999999999999858 0.00000000000000000 0.00000000000000000 1.00000000000000000 1.00000000000000000 0.00000000000000000 -0.00000000000000000 -0.00000000000000000 1.00000000000000000 0.00000000000000000 19.05000000000000071
1 12.69999999999999929 0.00000000000000000 0.00000000000000000 0.00000000000000000 -1.00000000000000000 0.00000000000000000 
1 12.69999999999999929 -50.62189939612413525 25.39999999999999858 0.00000000000000000 0.00000000000000000 1.00000000000000000 
1 12.69999999999999929 0.00000000000000000 0.00000000000000000 0.00000000000000000 -1.00000000000000000 0.00000000000000000 
1 12.69999999999999929 -21.99704525612474271 31.75000000000000000 0.00000000000000000 0.00000000000000000 1.00000000000000000 
1 25.39999999999999858 -0.00000000000000622 0.00000000000000000 0.00000000000000000 0.00000000000000000 1.00000000000000000 
2 0.00000000000000000 0.00000000000000000 0.00000000000000000 0.00000000000000000 0.00000000000000000 1.00000000000000000 1.00000000000000000 0.00000000000000000 -0.00000000000000000 -0.00000000000000000 1.00000000000000000 0.00000000000000000 25.39999999999999858
2 0.00000000000000000 0.00000000000000000 38.10000000000000142 0.00000000000000000 0.00000000000000000 1.00000000000000000 1.00000000000000000 0.00000000000000000 -0.00000000000000000 -0.00000000000000000 1.00000000000000000 0.00000000000000000 25.39999999999999858
1 25.39999999999999858 -0.00000000000000622 31.75000000000000000 0.00000000000000000 0.00000000000000000 1.00000000000000000 
2 0.00000000000000000 0.00000000000000000 38.10000000000000142 0.00000000000000000 0.00000000000000000 1.00000000000000000 1.00000000000000000 0.00000000000000000 -0.00000000000000000 -0.00000000000000000 1.00000000000000000 0.00000000000000000 25.39999999999999858
2 0.00000000000000000 203.19999999999998863 38.09999999999999432 0.00000000000000000 0.00000000000000000 1.00000000000000000 1.00000000000000000 0.00000000000000000 -0.00000000000000000 -0.00000000000000000 1.00000000000000000 0.00000000000000000 19.05000000000000071
2 0.00000000000000000 0.00000000000000000 38.10000000000000142 0.00000000000000000 0.00000000000000000 1.00000000000000000 1.00000000000000000 0.00000000000000000 -0.00000000000000000 -0.00000000000000000 1.00000000000000000 0.00000000000000000 25.39999999999999858
1 19.05000000000000071 203.19999999999998863 25.39999999999999858 0.00000000000000000 0.00000000000000000 1.00000000000000000 
2 0.00000000000000000 203.19999999999998863 25.39999999999999858 0.00000000000000000 0.00000000000000000 1.00000000000000000 1.00000000000000000 0.00000000000000000 -0.00000000000000000 -0.00000000000000000 1.00000000000000000 0.00000000000000000 19.05000000000000071
2 0.00000000000000000 203.19999999999998863 38.09999999999999432 0.00000000000000000 0.00000000000000000 1.00000000000000000 1.00000000000000000 0.00000000000000000 -0.00000000000000000 -0.00000000000000000 1.00000000000000000 0.00000000000000000 19.05000000000000071
1 -12.69999999999999929 203.19999999999998863 0.00000000000000000 1.00000000000000000 0.00000000000000000 0.00000000000000000 
2 0.00000000000000000 203.19999999999998863 25.39999999999999858 0.00000000000000000 0.00000000000000000 1.00000000000000000 1.00000000000000000 0.00000000000000000 -0.00000000000000000 -0.00000000000000000 1.00000000000000000 0.00000000000000000 6.50000000000000000
1 -12.69999999999999929 203.19999999999998863 0.00000000000000000 1.00000000000000000 0.00000000000000000 0.00000000000000000 
1 -12.69999999999999929 0.00000000000000000 0.00000000000000000 0.00000000000000000 1.00000000000000000 0.00000000000000000 
1 12.69999999999999929 203.19999999999998863 0.00000000000000000 0.00000000000000000 -1.00000000000000000 0.00000000000000000 
2 0.00000000000000000 203.19999999999998863 38.09999999999999432 0.00000000000000000 0.00000000000000000 1.00000000000000000 1.00000000000000000 0.00000000000000000 -0.00000000000000000 -0.00000000000000000 1.00000000000000000 0.00000000000000000 19.05000000000000071
2 0.00000000000000000 203.19999999999998863 25.39999999999999858 0.00000000000000000 0.00000000000000000 1.00000000000000000 1.00000000000000000 0.00000000000000000 -0.00000000000000000 -0.00000000000000000 1.00000000000000000 0.00000000000000000 19.05000000000000071
2 0.00000000000000000 0.00000000000000000 38.10000000000000142 0.00000000000000000 0.00000000000000000 1.00000000000000000 1.00000000000000000 0.00000000000000000 -0.00000000000000000 -0.00000000000000000 1.00000000000000000 0.00000000000000000 25.39999999999999858
2 0.00000000000000000 -64.82093105324780424 38.09999999999999432 0.00000000000000000 0.00000000000000000 1.00000000000000000 1.00000000000000000 0.00000000000000000 -0.00000000000000000 -0.00000000000000000 1.00000000000000000 0.00000000000000000 19.05000000000000071
2 0.00000000000000000 0.00000000000000000 38.10000000000000142 0.00000000000000000 0.00000000000000000 1.00000000000000000 1.00000000000000000 0.00000000000000000 -0.00000000000000000 -0.00000000000000000 1.00000000000000000 0.00000000000000000 25.39999999999999858
1 19.05000000000000071 -64.82093105324780424 25.39999999999999858 0.00000000000000000 0.00000000000000000 1.00000000000000000 
2 0.00000000000000000 -64.82093105324780424 25.39999999999999858 0.00000000000000000 0.00000000000000000 1.00000000000000000 1.00000000000000000 0.00000000000000000 -0.00000000000000000 -0.00000000000000000 1.00000000000000000 0.00000000000000000 19.05000000000000071
2 0.00000000000000000 -64.82093105324780424 38.09999999999999432 0.00000000000000000 0.00000000000000000 1.00000000000000000 1.00000000000000000 0.00000000000000000 -0.00000000000000000 -0.00000000000000000 1.00000000000000000 0.00000000000000000 19.05000000000000071
1 12.69999999999999929 -64.82093105324780424 0.00000000000000000 -1.00000000000000000 0.00000000000000000 0.00000000000000000 
2 0.00000000000000000 -64.82093105324780424 25.39999999999999858 0.00000000000000000 0.00000000000000000 1.00000000000000000 1.00000000000000000 0.00000000000000000 -0.00000000000000000 -0.00000000000000000 1.00000000000000000 0.00000000000000000 6.50000000000000000
1 12.69999999999999929 -64.82093105324780424 0.00000000000000000 -1.00000000000000000 0.00000000000000000 0.00000000000000000 
1 12.69999999999999929 0.00000000000000000 0.00000000000000000 0.00000000000000000 -1.00000000000000000 0.00000000000000000 
1 -12.69999999999999929 -64.82093105324780424 0.00000000000000000 0.00000000000000000 1.00000000000000000 0.00000000000000000 
2 0.00000000000000000 -64.82093105324780424 38.09999999999999432 0.00000000000000000 0.00000000000000000 1.00000000000000000 1.00000000000000000 0.00000000000000000 -0.00000000000000000 -0.00000000000000000 1.00000000000000000 0.00000000000000000 19.05000000000000071
2 0.00000000000000000 -64.82093105324780424 25.39999999999999858 0.00000000000000000 0.00000000000000000 1.00000000000000000 1.00000000000000000 0.00000000000000000 -0.00000000000000000 -0.00000000000000000 1.00000000000000000 0.00000000000000000 19.05000000000000071
2 0.00000000000000000 0.00000000000000000 0.00000000000000000 0.00000000000000000 0.00000000000000000 1.00000000000000000 1.00000000000000000 0.00000000000000000 -0.00000000000000000 -0.00000000000000000 1.00000000000000000 0.00000000000000000 19.05000000000000071
1 12.69999999999999929 0.00000000000000000 0.00000000000000000 0.00000000000000000 -1.00000000000000000 0.00000000000000000 
2 0.00000000000000000 0.00000000000000000 38.10000000000000142 0.00000000000000000 0.00000000000000000 1.00000000000000000 1.00000000000000000 0.00000000000000000 -0.00000000000000000 -0.00000000000000000 1.00000000000000000 0.00000000000000000 19.05000000000000071
2 0.00000000000000000 0.00000000000000000 38.10000000000000142 0.00000000000000000 0.00000000000000000 1.00000000000000000 1.00000000000000000 0.00000000000000000 -0.00000000000000000 -0.00000000000000000 1.00000000000000000 0.00000000000000000 19.05000000000000071
1 12.69999999999999929 203.19999999999998863 0.00000000000000000 0.00000000000000000 -1.00000000000000000 0.00000000000000000 
1 -12.69999999999999929 203.19999999999998863 0.00000000000000000 1.00000000000000000 0.00000000000000000 0.00000000000000000 
2 0.00000000000000000 203.19999999999998863 38.09999999999999432 0.00000000000000000 0.00000000000000000 1.00000000000000000 1.00000000000000000 0.00000000000000000 -0.00000000000000000 -0.00000000000000000 1.00000000000000000 0.00000000000000000 6.50000000000000000
1 -12.69999999999999929 203.19999999999998863 0.00000000000000000 1.00000000000000000 0.00000000000000000 0.00000000000000000 
1 -12.69999999999999929 0.00000000000000000 0.00000000000000000 0.00000000000000000 1.00000000000000000 0.00000000000000000 
1 12.69999999999999929 203.19999999999998863 0.00000000000000000 0.00000000000000000 -1.00000000000000000 0.00000000000000000 
2 0.00000000000000000 0.00000000000000000 38.10000000000000142 0.00000000000000000 0.00000000000000000 1.00000000000000000 1.00000000000000000 0.00000000000000000 -0.00000000000000000 -0.00000000000000000 1.00000000000000000 0.00000000000000000 19.05000000000000071
1 -12.69999999999999929 0.00000000000000000 0.00000000000000000 0.00000000000000000 1.00000000000000000 0.00000000000000000 
2 0.00000000000000000 203.19999999999998863 25.39999999999999858 0.00000000000000000 0.00000000000000000 1.00000000000000000 1.00000000000000000 0.00000000000000000 -0.00000000000000000 -0.00000000000000000 1.00000000000000000 0.00000000000000000 6.50000000000000000
2 0.00000000000000000 203.19999999999998863 38.09999999999999432 0.00000000000000000 0.00000000000000000 1.00000000000000000 1.00000000000000000 0.00000000000000000 -0.00000000000000000 -0.00000000000000000 1.00000000000000000 0.00000000000000000 6.50000000000000000
1 6.50000000000000000 203.19999999999998863 24.39999999999999858 0.00000000000000000 0.00000000000000000 1.00000000000000000 
2 0.00000000000000000 0.00000000000000000 38.10000000000000142 0.00000000000000000 0.00000000000000000 1.00000000000000000 1.00000000000000000 0.00000000000000000 -0.00000000000000000 -0.00000000000000000 1.00000000000000000 0.00000000000000000 19.05000000000000071
1 -12.69999999999999929 -64.82093105324780424 0.00000000000000000 0.00000000000000000 1.00000000000000000 0.00000000000000000 
1 12.69999999999999929 -64.82093105324780424 0.00000000000000000 -1.00000000000000000 0.00000000000000000 0.00000000000000000 
2 0.00000000000000000 -64.82093105324780424 38.09999999999999432 0.00000000000000000 0.00000000000000000 1.00000000000000000 1.00000000000000000 0.00000000000000000 -0.00000000000000000 -0.00000000000000000 1.00000000000000000 0.00000000000000000 6.50000000000000000
1 12.69999999999999929 -64.82093105324780424 0.00000000000000000 -1.00000000000000000 0.00000000000000000 0.00000000000000000 
1 12.69999999999999929 0.00000000000000000 0.00000000000000000 0.00000000000000000 -1.00000000000000000 0.00000000000000000 
1 -12.69999999999999929 -64.82093105324780424 0.00000000000000000 0.00000000000000000 1.00000000000000000 0.00000000000000000 
2 0.00000000000000000 0.00000000000000000 38.10000000000000142 0.00000000000000000 0.00000000000000000 1.00000000000000000 1.00000000000000000 0.00000000000000000 -0.00000000000000000 -0.00000000000000000 1.00000000000000000 0.00000000000000000 19.05000000000000071
2 0.00000000000000000 -64.82093105324780424 25.39999999999999858 0.00000000000000000 0.00000000000000000 1.00000000000000000 1.00000000000000000 0.00000000000000000 -0.00000000000000000 -0.00000000000000000 1.00000000000000000 0.00000000000000000 6.50000000000000000
2 0.00000000000000000 -64.82093105324780424 38.09999999999999432 0.00000000000000000 0.00000000000000000 1.00000000000000000 1.00000000000000000 0.00000000000000000 -0.00000000000000000 -0.00000000000000000 1.00000000000000000 0.00000000000000000 6.50000000000000000
1 6.50000000000000000 -64.82093105324780424 24.39999999999999858 0.00000000000000000 0.00000000000000000 1.00000000000000000 
2 0.00000000000000000 0.00000000000000000 0.00000000000000000 0.00000000000000000 0.00000000000000000 1.00000000000000000 1.00000000000000000 0.00000000000000000 -0.00000000000000000 -0.00000000000000000 1.00000000000000000 0.00000000000000000 16.02499999999999858
2 0.00000000000000000 0.00000000000000000 38.10000000000000142 0.00000000000000000 0.00000000000000000 1.00000000000000000 1.00000000000000000 0.00000000000000000 -0.00000000000000000 -0.00000000000000000 1.00000000000000000 0.00000000000000000 16.02499999999999858
2 0.00000000000000000 0.00000000000000000 38.10000000000000142 0.00000000000000000 0.00000000000000000 1.00000000000000000 1.00000000000000000 0.00000000000000000 -0.00000000000000000 -0.00000000000000000 1.00000000000000000 0.00000000000000000 16.02499999999999858
1 12.69999999999999929 203.19999999999998863 0.00000000000000000 0.00000000000000000 -1.00000000000000000 0.00000000000000000 
1 12.69999999999999929 0.00000000000000000 0.00000000000000000 0.00000000000000000 -1.00000000000000000 0.00000000000000000 
1 -12.69999999999999929 0.00000000000000000 0.00000000000000000 0.00000000000000000 1.00000000000000000 0.00000000000000000 
2 0.00000000000000000 0.00000000000000000 38.10000000000000142 0.00000000000000000 0.00000000000000000 1.00000000000000000 1.00000000000000000 0.00000000000000000 -0.00000000000000000 -0.00000000000000000 1.00000000000000000 0.00000000000000000 16.02499999999999858
2 0.00000000000000000 0.00000000000000000 38.10000000000000142 0.00000000000000000 0.00000000000000000 1.00000000000000000 1.00000000000000000 0.00000000000000000 -0.00000000000000000 -0.00000000000000000 1.00000000000000000 0.00000000000000000 16.02499999999999858
1 -12.69999999999999929 -64.82093105324780424 0.00000000000000000 0.00000000000000000 1.00000000000000000 0.00000000000000000 
2 0.00000000000000000 0.00000000000000000 38.10000000000000142 0.00000000000000000 0.00000000000000000 1.00000000000000000 1.00000000000000000 0.00000000000000000 -0.00000000000000000 -0.00000000000000000 1.00000000000000000 0.00000000000000000 16.02499999999999858
1 16.02499999999999858 -0.00000000000000392 -1.00000000000000000 0.00000000000000000 0.00000000000000000 1.00000000000000000 
Polygon3D 0
PolygonOnTriangulations 0
Surfaces 41
2 0.00000000000000000 0.00000000000000000 0.00000000000000000 0.00000000000000000 0.00000000000000000 1.00000000000000000 1.00000000000000000 0.00000000000000000 -0.00000000000000000 -0.00000000000000000 1.00000000000000000 0.00000000000000000 19.05000000000000071
1 0.00000000000000000 0.00000000000000000 3.17499999999999982 0.00000000000000000 0.00000000000000000 1.00000000000000000 1.00000000000000000 0.00000000000000000 -0.00000000000000000 -0.00000000000000000 1.00000000000000000 0.00000000000000000 
2 0.00000000000000000 0.00000000000000000 0.00000000000000000 0.00000000000000000 0.00000000000000000 1.00000000000000000 1.00000000000000000 0.00000000000000000 -0.00000000000000000 -0.00000000000000000 1.00000000000000000 0.00000000000000000 25.39999999999999858
1 0.00000000000000000 0.00000000000000000 31.75000000000000000 0.00000000000000000 0.00000000000000000 1.00000000000000000 1.00000000000000000 0.00000000000000000 -0.00000000000000000 -0.00000000000000000 1.00000000000000000 0.00000000000000000 
2 0.00000000000000000 0.00000000000000000 31.75000000000000000 0.00000000000000000 0.00000000000000000 1.00000000000000000 1.00000000000000000 0.00000000000000000 -0.00000000000000000 -0.00000000000000000 1.00000000000000000 0.00000000000000000 25.39999999999999858
2 0.00000000000000000 0.00000000000000000 31.75000000000000000 0.00000000000000000 0.00000000000000000 1.00000000000000000 1.00000000000000000 0.00000000000000000 -0.00000000000000000 -0.00000000000000000 1.00000000000000000 0.00000000000000000 25.39999999999999858
1 12.69999999999999929 203.19999999999998863 0.00000000000000000 1.00000000000000000 0.00000000000000000 0.00000000000000000 0.00000000000000000 -1.00000000000000000 0.00000000000000000 0.00000000000000000 0.00000000000000000 -1.00000000000000000 
2 0.00000000000000000 203.19999999999998863 25.39999999999999858 0.00000000000000000 0.00000000000000000 1.00000000000000000 1.00000000000000000 0.00000000000000000 -0.00000000000000000 -0.00000000000000000 1.00000000000000000 0.00000000000000000 19.05000000000000071
1 0.00000000000000000 101.60000000000000853 0.00000000000000000 -0.00000000000000000 -0.00000000000000000 -1.00000000000000000 -1.00000000000000000 0.00000000000000000 0.00000000000000000 0.00000000000000000 1.00000000000000000 -0.00000000000000000 
1 -12.69999999999999929 0.00000000000000000 0.00000000000000000 -1.00000000000000000 0.00000000000000000 0.00000000000000000 0.00000000000000000 1.00000000000000000 0.00000000000000000 0.00000000000000000 0.00000000000000000 -1.00000000000000000 
2 0.00000000000000000 203.19999999999998863 25.39999999999999858 0.00000000000000000 0.00000000000000000 1.00000000000000000 1.00000000000000000 0.00000000000000000 -0.00000000000000000 -0.00000000000000000 1.00000000000000000 0.00000000000000000 19.05000000000000071
2 0.00000000000000000 0.00000000000000000 31.75000000000000000 0.00000000000000000 0.00000000000000000 1.00000000000000000 1.00000000000000000 0.00000000000000000 -0.00000000000000000 -0.00000000000000000 1.00000000000000000 0.00000000000000000 25.39999999999999858
1 0.00000000000000000 0.00000000000000000 31.75000000000000000 0.00000000000000000 0.00000000000000000 1.00000000000000000 1.00000000000000000 0.00000000000000000 -0.00000000000000000 -0.00000000000000000 1.00000000000000000 0.00000000000000000 
1 -12.69999999999999929 -64.82093105324780424 0.00000000000000000 -1.00000000000000000 0.00000000000000000 0.00000000000000000 0.00000000000000000 1.00000000000000000 0.00000000000000000 0.00000000000000000 0.00000000000000000 -1.00000000000000000 
2 0.00000000000000000 -64.82093105324780424 25.39999999999999858 0.00000000000000000 0.00000000000000000 1.00000000000000000 1.00000000000000000 0.00000000000000000 -0.00000000000000000 -0.00000000000000000 1.00000000000000000 0.00000000000000000 19.05000000000000071
1 0.00000000000000000 -32.41046552662390923 0.00000000000000000 -0.00000000000000000 -0.00000000000000000 -1.00000000000000000 -1.00000000000000000 0.00000000000000000 0.00000000000000000 0.00000000000000000 1.00000000000000000 -0.00000000000000000 
1 12.69999999999999929 0.00000000000000000 0.00000000000000000 1.00000000000000000 0.00000000000000000 0.00000000000000000 0.00000000000000000 -1.00000000000000000 0.00000000000000000 0.00000000000000000 0.00000000000000000 -1.00000000000000000 
2 0.00000000000000000 -64.82093105324780424 25.39999999999999858 0.00000000000000000 0.00000000000000000 1.00000000000000000 1.00000000000000000 0.00000000000000000 -0.00000000000000000 -0.00000000000000000 1.00000000000000000 0.00000000000000000 19.05000000000000071
1 0.00000000000000000 101.60000000000000853 0.00000000000000000 -0.00000000000000000 -0.00000000000000000 -1.00000000000000000 -1.00000000000000000 0.00000000000000000 0.00000000000000000 0.00000000000000000 1.00000000000000000 -0.00000000000000000 
1 0.00000000000000000 101.60000000000000853 0.00000000000000000 -0.00000000000000000 -0.00000000000000000 -1.00000000000000000 -1.00000000000000000 0.00000000000000000 0.00000000000000000 0.00000000000000000 1.00000000000000000 -0.00000000000000000 
2 0.00000000000000000 203.19999999999998863 24.39999999999999858 0.00000000000000000 0.00000000000000000 1.00000000000000000 1.00000000000000000 0.00000000000000000 -0.00000000000000000 -0.00000000000000000 1.00000000000000000 0.00000000000000000 6.50000000000000000
1 0.00000000000000000 -32.41046552662390923 0.00000000000000000 -0.00000000000000000 -0.00000000000000000 -1.00000000000000000 -1.00000000000000000 0.00000000000000000 0.00000000000000000 0.00000000000000000 1.00000000000000000 -0.00000000000000000 
1 0.00000000000000000 -32.41046552662390923 0.00000000000000000 -0.00000000000000000 -0.00000000000000000 -1.00000000000000000 -1.00000000000000000 0.00000000000000000 0.00000000000000000 0.00000000000000000 1.00000000000000000 -0.00000000000000000 
2 0.00000000000000000 -64.82093105324780424 24.39999999999999858 0.00000000000000000 0.00000000000000000 1.00000000000000000 1.00000000000000000 0.00000000000000000 -0.00000000000000000 -0.00000000000000000 1.00000000000000000 0.00000000000000000 6.50000000000000000
1 0.00000000000000000 0.00000000000000000 0.00000000000000000 0.00000000000000000 0.00000000000000000 1.00000000000000000 1.00000000000000000 0.00000000000000000 -0.00000000000000000 -0.00000000000000000 1.00000000000000000 0.00000000000000000 
1 0.00000000000000000 0.00000000000000000 38.10000000000000142 0.00000000000000000 0.00000000000000000 1.00000000000000000 1.00000000000000000 0.00000000000000000 -0.00000000000000000 -0.00000000000000000 1.00000000000000000 0.00000000000000000 
1 0.00000000000000000 101.60000000000000853 0.00000000000000000 -0.00000000000000000 -0.00000000000000000 -1.00000000000000000 -1.00000000000000000 0.00000000000000000 0.00000000000000000 0.00000000000000000 1.00000000000000000 -0.00000000000000000 
1 0.00000000000000000 0.00000000000000000 38.10000000000000142 0.00000000000000000 0.00000000000000000 1.00000000000000000 1.00000000000000000 0.00000000000000000 -0.00000000000000000 -0.00000000000000000 1.00000000000000000 0.00000000000000000 
1 0.00000000000000000 203.19999999999998863 25.39999999999999858 0.00000000000000000 0.00000000000000000 1.00000000000000000 1.00000000000000000 0.00000000000000000 -0.00000000000000000 -0.00000000000000000 1.00000000000000000 0.00000000000000000 
1 0.00000000000000000 203.19999999999998863 38.09999999999999432 0.00000000000000000 0.00000000000000000 1.00000000000000000 1.00000000000000000 0.00000000000000000 -0.00000000000000000 -0.00000000000000000 1.00000000000000000 0.00000000000000000 
1 0.00000000000000000 0.00000000000000000 38.10000000000000142 0.00000000000000000 0.00000000000000000 1.00000000000000000 1.00000000000000000 0.00000000000000000 -0.00000000000000000 -0.00000000000000000 1.00000000000000000 0.00000000000000000 
1 0.00000000000000000 -32.41046552662390923 0.00000000000000000 -0.00000000000000000 -0.00000000000000000 -1.00000000000000000 -1.00000000000000000 0.00000000000000000 0.00000000000000000 0.00000000000000000 1.00000000000000000 -0.00000000000000000 
1 0.00000000000000000 0.00000000000000000 38.10000000000000142 0.00000000000000000 0.00000000000000000 1.00000000000000000 1.00000000000000000 0.00000000000000000 -0.00000000000000000 -0.00000000000000000 1.00000000000000000 0.00000000000000000 
1 0.00000000000000000 -64.82093105324780424 25.39999999999999858 0.00000000000000000 0.00000000000000000 1.00000000000000000 1.00000000000000000 0.00000000000000000 -0.00000000000000000 -0.00000000000000000 1.00000000000000000 0.00000000000000000 
1 0.00000000000000000 -64.82093105324780424 38.09999999999999432 0.00000000000000000 0.00000000000000000 1.00000000000000000 1.00000000000000000 0.00000000000000000 -0.00000000000000000 -0.00000000000000000 1.00000000000000000 0.00000000000000000 
1 0.00000000000000000 0.00000000000000000 0.00000000000000000 0.00000000000000000 0.00000000000000000 1.00000000000000000 1.00000000000000000 0.00000000000000000 -0.00000000000000000 -0.00000000000000000 1.00000000000000000 0.00000000000000000 
2 0.00000000000000000 0.00000000000000000 -1.00000000000000000 0.00000000000000000 0.00000000000000000 1.00000000000000000 1.00000000000000000 0.00000000000000000 -0.00000000000000000 -0.00000000000000000 1.00000000000000000 0.00000000000000000 16.02499999999999858
1 0.00000000000000000 0.00000000000000000 38.10000000000000142 0.00000000000000000 0.00000000000000000 1.00000000000000000 1.00000000000000000 0.00000000000000000 -0.00000000000000000 -0.00000000000000000 1.00000000000000000 0.00000000000000000 
1 0.00000000000000000 0.00000000000000000 38.10000000000000142 0.00000000000000000 0.00000000000000000 1.00000000000000000 1.00000000000000000 0.00000000000000000 -0.00000000000000000 -0.00000000000000000 1.00000000000000000 0.00000000000000000 
1 0.00000000000000000 0.00000000000000000 38.10000000000000142 0.00000000000000000 0.00000000000000000 1.00000000000000000 1.00000000000000000 0.00000000000000000 -0.00000000000000000 -0.00000000000000000 1.00000000000000000 0.00000000000000000 
1 0.00000000000000000 0.00000000000000000 38.10000000000000142 0.00000000000000000 0.00000000000000000 1.00000000000000000 1.00000000000000000 0.00000000000000000 -0.00000000000000000 -0.00000000000000000 1.00000000000000000 0.00000000000000000 
Triangulations 0

TShapes 256
Ve
0.000000100000005
19.050000000000001 -0.000000000000005 3.175000000000000
0 0

0101101
*
Ed
 0.000000100000000 1 1 0
1  1 0 0.000000000000000 6.283185307179586
2  1 1 0 0.000000000000000 6.283185307179586
0

0101100
+256 3 -256 3 *
Ve
0.000000100000005
19.050000000000001 -0.000000000000005 31.750000000000000
0 0

0101101
*
Ed
 0.000000100000000 1 1 0
1  2 0 3.175000000000000 31.750000000000000
3  2 3CN 1 0 3.175000000000000 31.750000000000000
0

0101000
+256 3 -254 3 *
Ve
0.000000150000004
12.699999999999999 14.199031657123665 31.750000000000000
0 0

0101101
*
Ed
 0.000000100000000 1 1 0
1  3 0 0.000000000000000 0.841068670567930
2  4 1 0 0.000000000000000 0.841068670567930
0

0101000
+254 3 -252 3 *
Ve
0.000000100000089
12.699999999999999 14.199031657123754 25.399999999999999
0 0

0101101
*
Ed
 0.000000100000000 1 1 0
1  4 0 25.399999999999999 31.750000000000000
2  5 1 0 25.399999999999999 31.750000000000000
0

0101000
+250 3 -252 3 *
Ve
0.000000100000003
-12.699999999999999 14.199031657123665 25.399999999999999
0 0

0101101
*
Ed
 0.000000100000000 1 1 0
1  5 0 0.841068670567934 2.300523983021863
2  6 1 0 0.841068670567934 2.300523983021863
0

0101000
+250 3 -248 3 *
Ve
0.000000150000002
-12.700000000000001 14.199031657123664 31.750000000000000
0 0

0101101
*
Ed
 0.000000100000000 1 1 0
1  6 0 25.399999999999999 31.750000000000000
2  7 1 0 25.399999999999999 31.750000000000000
0

0101000
+248 3 -246 3 *
Ve
0.000000150000007
-12.700000000000006 -14.199031657123660 31.750000000000000
0 0

0101101
*
Ed
 0.000000100000000 1 1 0
1  7 0 2.300523983021863 3.982661324157723
2  8 1 0 2.300523983021863 3.982661324157723
0

0101000
+246 3 -244 3 *
Ve
0.000000100000018
-12.699999999999999 -14.199031657123648 25.399999999999999
0 0

0101101
*
Ed
 0.000000100000000 1 1 0
1  8 0 25.399999999999999 31.750000000000000
2  9 1 0 25.399999999999999 31.750000000000000
0

0101000
+242 3 -244 3 *
Ve
0.000000100000000
12.699999999999999 -14.199031657123665 25.399999999999999
0 0

0101101
*
Ed
 0.000000100000000 1 1 0
1  9 0 3.982661324157723 5.442116636611656
2  10 1 0 3.982661324157723 5.442116636611656
0

0101000
+242 3 -240 3 *
Ve
0.000000150000000
12.699999999999999 -14.199031657123665 31.750000000000000
0 0

0101101
*
Ed
 0.000000100000000 1 1 0
1  10 0 25.399999999999999 31.750000000000000
2  11 1 0 25.399999999999999 31.750000000000000
0

0101000
+240 3 -238 3 *
Ed
 0.000000100000000 1 1 0
1  11 0 5.442116636611656 6.283185307179586
2  12 1 0 5.442116636611656 6.283185307179586
0

0101000
+238 3 -254 3 *
Wi

0101100
+255 0 -253 0 -251 0 +249 0 -247 0 -245 0 -243 0 +241 0 -239 0 -237 0 
-236 0 +253 0 *
Fa
0  0.000000100000000 1 0

0111000
+235 0 *
Ve
0.000000100000000
25.399999999999999 -0.000000000000006 3.175000000000000
0 0

0101101
*
Ed
 0.000000100000000 1 1 0
1  12 0 0.000000000000000 6.283185307179586
2  13 3 0 0.000000000000000 6.283185307179586
0

0101000
+233 3 -233 3 *
Wi

0101100
+232 0 *
Wi

0101100
-255 0 *
Fa
0  0.000000100000000 2 0

0111000
+231 0 +230 0 *
Ve
0.000000150000018
12.699999999999982 -21.997045256124750 31.750000000000000
0 0

0101101
*
Ed
 0.000000150000000 1 1 0
1  13 0 -21.997045256124750 -14.199031657123665
0

0101000
+228 3 -238 3 *
Ve
0.000000150000008
12.699999999999996 21.997045256124743 31.750000000000000
0 0

0101101
*
Ed
 0.000000150000000 1 1 0
1  14 0 -87.400968342876325 -79.602954743875245
0

0101000
+252 3 -226 3 *
Ve
0.000000100000000
25.399999999999999 -0.000000000000006 31.750000000000000
0 0

0101101
*
Ed
 0.000000100000000 1 1 0
1  15 0 0.000000000000000 1.047197551196598
2  14 5 0 0.000000000000000 1.047197551196598
0

0101000
+224 3 -226 3 *
Ed
 0.000000100000000 1 1 0
1  16 0 5.235987755982988 6.283185307179586
2  15 6 0 5.235987755982988 6.283185307179586
0

0101000
+228 3 -224 3 *
Wi

0101100
-227 0 -236 0 -251 0 -225 0 +223 0 +222 0 *
Fa
0  0.000000100000000 4 0

0111000
+221 0 *
Ve
0.000000100000325
12.700000000000157 189.000968342876604 25.399999999999999
0 0

0101101
*
Ed
 0.000000100000000 1 1 0
1  17 0 14.199031657123385 189.000968342876234
0

0101000
+219 5 -250 5 *
Ve
0.000000100000401
12.700000000000259 21.997045256124437 38.099999999999994
0 0

0101101
*
Ed
 0.000000100000000 1 1 0
1  18 0 0.000000000000000 6.349999999999994
2  16 5 0 0.000000000000000 6.349999999999994
0

0101000
+226 3 -217 3 *
Ve
0.000000100000325
12.700000000000157 189.000968342876604 38.099999999999994
0 0

0101101
*
Ed
 0.000000100000000 1 1 0
1  19 0 14.199031657123385 181.202954743875551
0

0101000
+215 8 -217 8 *
Ed
 0.000000100000000 1 1 0
1  20 0 0.000000000000000 12.699999999999996
2  17 8 0 0.000000000000000 12.699999999999996
0

0101000
+219 3 -215 3 *
Wi

0101100
-218 4 -249 0 -225 0 -216 0 +214 7 +213 0 *
Fa
0  0.000000100000000 7 4

0111000
+212 0 *
Ve
0.000000100000099
-12.700000000000049 189.000968342876405 25.399999999999999
0 0

0101101
*
Ed
 0.000000100000000 1 1 0
1  21 0 3.982661324157719 5.442116636611672
0

0101000
+210 3 -219 3 *
Ed
 0.000000100000000 1 1 0
1  22 0 14.199031657123665 189.000968342876405
0

0101000
+248 5 -210 5 *
Wi

0101100
+218 4 +209 0 +208 4 +247 0 *
Fa
0  0.000000100000000 9 4

0111000
+207 0 *
Ve
0.000000100000099
-12.700000000000049 189.000968342876405 38.099999999999994
0 0

0101101
*
Ed
 0.000000100000000 1 1 0
1  23 0 0.000000000000000 12.699999999999996
2  18 11 0 0.000000000000000 12.699999999999996
0

0101000
+210 3 -205 3 *
Ve
0.000000100000420
-12.699999999999722 21.997045256125059 38.099999999999994
0 0

0101101
*
Ed
 0.000000100000000 1 1 0
1  24 0 21.997045256125059 189.000968342876405
0

0101000
+203 8 -205 8 *
Ve
0.000000150000005
-12.699999999999994 21.997045256124743 31.750000000000000
0 0

0101101
*
Ed
 0.000000100000000 1 1 0
1  25 0 0.000000000000000 6.349999999999994
2  19 12 0 0.000000000000000 6.349999999999994
0

0101000
+201 3 -203 3 *
Ed
 0.000000150000000 1 1 0
1  26 0 -21.997045256124743 -14.199031657123664
0

0101000
+201 3 -246 3 *
Wi

0101100
-208 4 -204 0 +202 7 +200 0 -199 0 +245 0 *
Fa
0  0.000000100000000 10 4

0111000
+198 0 *
Ve
0.000000150000011
-12.699999999999989 -21.997045256124746 31.750000000000000
0 0

0101101
*
Ed
 0.000000150000000 1 1 0
1  27 0 -18.211433869500240 -10.413420270499156
0

0101000
+244 3 -196 3 *
Ed
 0.000000100000000 1 1 0
1  28 0 2.094395102393195 4.188790204786391
2  20 12 0 2.094395102393195 4.188790204786391
0

0101000
+201 3 -196 3 *
Wi

0101100
-199 0 -243 0 -195 0 +194 0 *
Fa
0  0.000000100000000 13 0

0111000
+193 0 *
Ve
0.000000100000107
-12.700000000000053 -50.621899396124228 25.399999999999999
0 0

0101101
*
Ed
 0.000000100000000 1 1 0
1  29 0 14.199031657123577 50.621899396124157
0

0101000
+191 10 -242 10 *
Ve
0.000000100000366
-12.700000000000239 -21.997045256124466 38.099999999999994
0 0

0101101
*
Ed
 0.000000100000000 1 1 0
1  30 0 0.000000000000000 6.349999999999994
2  21 12 0 0.000000000000000 6.349999999999994
0

0101000
+196 3 -189 3 *
Ve
0.000000100000107
-12.700000000000053 -50.621899396124228 38.099999999999994
0 0

0101101
*
Ed
 0.000000100000000 1 1 0
1  31 0 14.199031657123577 42.823885797123339
0

0101000
+187 13 -189 13 *
Ed
 0.000000100000000 1 1 0
1  32 0 0.000000000000000 12.699999999999996
2  22 15 0 0.000000000000000 12.699999999999996
0

0101000
+191 3 -187 3 *
Wi

0101100
-190 9 -241 0 -195 0 -188 0 +186 12 +185 0 *
Fa
0  0.000000100000000 14 9

0111000
+184 0 *
Ve
0.000000100000326
12.700000000000159 -50.621899396124419 25.399999999999999
0 0

0101101
*
Ed
 0.000000100000000 1 1 0
1  33 0 0.841068670567914 2.300523983021868
0

0101000
+182 3 -191 3 *
Ed
 0.000000100000000 1 1 0
1  34 0 14.199031657123665 50.621899396124419
0

0101000
+240 10 -182 10 *
Wi

0101100
+190 9 +181 0 +180 9 +239 0 *
Fa
0  0.000000100000000 16 9

0111000
+179 0 *
Ve
0.000000100000326
12.700000000000159 -50.621899396124419 38.099999999999994
0 0

0101101
*
Ed
 0.000000100000000 1 1 0
1  35 0 0.000000000000000 12.699999999999996
2  23 18 0 0.000000000000000 12.699999999999996
0

0101000
+182 3 -177 3 *
Ve
0.000000100000622
12.699999999999591 -21.997045256125212 38.099999999999994
0 0

0101101
*
Ed
 0.000000100000000 1 1 0
1  36 0 21.997045256125212 50.621899396124419
0

0101000
+175 13 -177 13 *
Ed
 0.000000100000000 1 1 0
1  37 0 0.000000000000000 6.349999999999994
2  24 6 0 0.000000000000000 6.349999999999994
0

0101000
+228 3 -175 3 *
Wi

0101100
-180 9 -176 0 +174 12 +173 0 -227 0 +237 0 *
Fa
0  0.000000100000000 17 9

0111000
+172 0 *
Ve
0.000000100000000
25.399999999999999 -0.000000000000006 0.000000000000000
0 0

0101101
*
Ed
 0.000000100000000 1 1 0
1  38 0 0.000000000000000 3.175000000000000
3  25 26CN 3 0 0.000000000000000 3.175000000000000
0

0101000
-233 3 +170 3 *
Ed
 0.000000100000000 1 1 0
1  39 0 0.000000000000000 6.283185307179586
2  27 3 0 0.000000000000000 6.283185307179586
0

0101000
+170 3 -170 3 *
Wi

0101100
-232 0 +169 0 +168 0 -169 0 *
Fa
0  0.000000100000000 3 0

0111000
+167 0 *
Ve
0.000000100000000
25.399999999999999 -0.000000000000006 38.100000000000001
0 0

0101101
*
Ed
 0.000000100000000 1 1 0
1  40 0 0.000000000000000 1.047197551196583
2  28 5 0 0.000000000000000 1.047197551196583
0

0101000
+165 3 -217 3 *
Ed
 0.000000100000000 1 1 0
1  41 0 0.000000000000000 6.350000000000000
2  29 5 0 0.000000000000000 6.350000000000000
2  30 6 0 0.000000000000000 6.350000000000000
4 CN 5 0 6 0
0

0101000
-165 3 +224 3 *
Wi

0101100
-164 0 +216 0 +223 0 -163 0 *
Fa
0  0.000000100000000 5 0

0111000
+162 0 *
Ed
 0.000000100000000 1 1 0
1  42 0 5.235987755982965 6.283185307179586
2  31 6 0 5.235987755982965 6.283185307179586
0

0101000
+175 3 -165 3 *
Wi

0101100
+163 0 +222 0 -173 0 -160 0 *
Fa
0  0.000000100000000 6 0

0111000
+159 0 *
Ed
 0.000000100000000 1 1 0
1  43 0 3.982661324157719 5.442116636611672
0

0101000
+205 3 -215 3 *
Ed
 0.000000100000007 1 1 0
1  44 0 1.047197551196583 2.094395102393180
0

0101000
+217 3 -203 3 *
Wi

0101100
+214 7 +157 0 +202 7 +156 0 *
Fa
0  0.000000100000000 19 7

0111000
+155 0 *
Ve
0.000000100000000
19.050000000000001 203.199999999999989 38.099999999999994
0 0

0101101
*
Ve
0.000000100000000
19.050000000000001 203.199999999999989 25.399999999999999
0 0

0101101
*
Ed
 0.000000100000000 1 1 0
1  45 0 0.000000000000000 12.699999999999999
2  32 8 0 0.000000000000000 12.699999999999999
2  33 11 0 0.000000000000000 12.699999999999999
4 CN 8 0 11 0
0

0101000
-153 3 +152 3 *
Ed
 0.000000100000000 1 1 0
1  46 0 5.442116636611672 6.283185307179586
2  34 8 0 5.442116636611672 6.283185307179586
0

0101000
+219 3 -152 3 *
Ed
 0.000000100000000 1 1 0
1  47 0 5.442116636611672 6.283185307179586
2  35 8 0 5.442116636611672 6.283185307179586
0

0101000
+215 3 -153 3 *
Wi

0101100
+151 0 +150 0 -213 0 -149 0 *
Fa
0  0.000000100000000 8 0

0111000
+148 0 *
Ve
0.000000100000000
6.500000000000000 203.199999999999989 25.399999999999999
0 0

0101101
*
Ve
0.000000100000000
12.699999999999999 203.199999999999989 25.399999999999999
0 0

0101101
*
Ed
 0.000000100000000 1 1 0
1  48 0 19.199999999999999 25.399999999999999
0

0101000
+146 5 -145 5 *
Ve
0.000000100000492
-6.500000000000492 203.199999999999989 25.399999999999999
0 0

0101101
*
Ed
 0.000000100000000 1 1 0
1  49 0 3.141592653589793 6.283185307179586
2  36 21 0 3.141592653589793 6.283185307179586
0

0101000
+143 3 -146 3 *
Ve
0.000000100000000
-12.699999999999999 203.199999999999989 25.399999999999999
0 0

0101101
*
Ed
 0.000000100000000 1 1 0
1  50 0 0.000000000000000 6.199999999999507
0

0101000
+141 5 -143 5 *
Ed
 0.000000100000000 1 1 0
1  51 0 189.000968342876405 203.199999999999989
0

0101000
+210 5 -141 5 *
Ed
 0.000000100000000 1 1 0
1  52 0 0.000000000000000 14.199031657123385
0

0101000
+145 5 -219 5 *
Wi

0101100
+144 4 +142 0 +140 4 +139 4 -209 0 +138 4 *
Fa
0  0.000000100000000 20 4

0111000
+137 0 *
Ed
 0.000000100000000 1 1 0
1  53 0 0.000000000000000 3.982661324157719
2  37 11 0 0.000000000000000 3.982661324157719
0

0101000
+153 3 -205 3 *
Ed
 0.000000100000000 1 1 0
1  54 0 0.000000000000000 3.982661324157719
2  38 11 0 0.000000000000000 3.982661324157719
0

0101000
+152 3 -210 3 *
Wi

0101100
-135 0 +204 0 +134 0 -151 0 *
Fa
0  0.000000100000000 11 0

0111000
+133 0 *
Ed
 0.000000100000000 1 1 0
1  55 0 2.094395102393180 4.188790204786377
2  39 12 0 2.094395102393180 4.188790204786377
0

0101000
+203 3 -189 3 *
Wi

0101100
-131 0 +188 0 +194 0 -200 0 *
Fa
0  0.000000100000000 12 0

0111000
+130 0 *
Ed
 0.000000100000000 1 1 0
1  56 0 0.841068670567914 2.300523983021868
0

0101000
+177 3 -187 3 *
Ed
 0.000000100000007 1 1 0
1  57 0 4.188790204786377 5.235987755982965
0

0101000
+189 3 -175 3 *
Wi

0101100
+186 12 +128 0 +174 12 +127 0 *
Fa
0  0.000000100000000 22 12

0111000
+126 0 *
Ve
0.000000100000000
19.050000000000001 -64.820931053247804 38.099999999999994
0 0

0101101
*
Ve
0.000000100000000
19.050000000000001 -64.820931053247804 25.399999999999999
0 0

0101101
*
Ed
 0.000000100000000 1 1 0
1  58 0 0.000000000000000 12.699999999999999
2  40 15 0 0.000000000000000 12.699999999999999
2  41 18 0 0.000000000000000 12.699999999999999
4 CN 15 0 18 0
0

0101000
-124 3 +123 3 *
Ed
 0.000000100000000 1 1 0
1  59 0 2.300523983021868 6.283185307179586
2  42 15 0 2.300523983021868 6.283185307179586
0

0101000
+191 3 -123 3 *
Ed
 0.000000100000000 1 1 0
1  60 0 2.300523983021868 6.283185307179586
2  43 15 0 2.300523983021868 6.283185307179586
0

0101000
+187 3 -124 3 *
Wi

0101100
+122 0 +121 0 -185 0 -120 0 *
Fa
0  0.000000100000000 15 0

0111000
+119 0 *
Ve
0.000000100000068
-6.499999999999932 -64.820931053247804 25.399999999999999
0 0

0101101
*
Ve
0.000000100000000
-12.699999999999999 -64.820931053247804 25.399999999999999
0 0

0101101
*
Ed
 0.000000100000000 1 1 0
1  61 0 19.199999999999932 25.399999999999999
0

0101000
+117 10 -116 10 *
Ve
0.000000100000000
6.500000000000000 -64.820931053247804 25.399999999999999
0 0

0101101
*
Ed
 0.000000100000000 1 1 0
1  62 0 0.000000000000000 3.141592653589793
2  44 24 0 0.000000000000000 3.141592653589793
0

0101000
+114 3 -117 3 *
Ve
0.000000100000000
12.699999999999999 -64.820931053247804 25.399999999999999
0 0

0101101
*
Ed
 0.000000100000000 1 1 0
1  63 0 0.000000000000000 6.199999999999999
0

0101000
+112 10 -114 10 *
Ed
 0.000000100000000 1 1 0
1  64 0 50.621899396124419 64.820931053247804
0

0101000
+182 10 -112 10 *
Ed
 0.000000100000000 1 1 0
1  65 0 0.000000000000000 14.199031657123577
0

0101000
+116 10 -191 10 *
Wi

0101100
+115 9 +113 0 +111 9 +110 9 -181 0 +109 9 *
Fa
0  0.000000100000000 23 9

0111000
+108 0 *
Ed
 0.000000100000000 1 1 0
1  66 0 0.000000000000000 0.841068670567914
2  45 18 0 0.000000000000000 0.841068670567914
0

0101000
+124 3 -177 3 *
Ed
 0.000000100000000 1 1 0
1  67 0 0.000000000000000 0.841068670567914
2  46 18 0 0.000000000000000 0.841068670567914
0

0101000
+123 3 -182 3 *
Wi

0101100
-106 0 +176 0 +105 0 -122 0 *
Fa
0  0.000000100000000 18 0

0111000
+104 0 *
Wi

0101100
+168 0 *
Ve
0.000000100000000
19.050000000000001 -0.000000000000005 0.000000000000000
0 0

0101101
*
Ed
 0.000000100000000 1 1 0
1  68 0 0.000000000000000 6.283185307179586
0

0101000
+101 3 -101 3 *
Wi

0101100
-100 0 *
Fa
0  0.000000100000000 25 0

0111000
+102 0 +99 0 *
Ve
0.000000100000158
12.700000000000157 -14.199031657123383 38.099999999999994
0 0

0101101
*
Ed
 0.000000100000007 1 1 0
1  69 0 14.199031657123383 21.997045256125212
0

0101000
+97 13 -175 13 *
Ve
0.000000100000000
19.050000000000001 -0.000000000000005 38.100000000000001
0 0

0101101
*
Ed
 0.000000100000000 1 1 0
1  70 0 5.442116636611672 6.283185307179586
0

0101000
+97 3 -95 3 *
Ve
0.000000100000503
12.700000000000502 14.199031657122763 38.099999999999994
0 0

0101101
*
Ed
 0.000000100000000 1 1 0
1  71 0 0.000000000000000 0.841068670567879
0

0101000
+95 3 -93 3 *
Ed
 0.000000100000007 1 1 0
1  72 0 181.202954743875551 189.000968342877229
0

0101000
+217 8 -93 8 *
Wi

0101100
+96 12 -94 0 -92 0 +91 7 +164 0 +160 0 *
Fa
0  0.000000100000000 26 0

0111000
+90 0 *
Ve
0.000000100000000
6.500000000000000 203.199999999999989 38.099999999999994
0 0

0101101
*
Ve
0.000000100000000
12.699999999999999 203.199999999999989 38.099999999999994
0 0

0101101
*
Ed
 0.000000100000000 1 1 0
1  73 0 19.199999999999999 25.399999999999999
0

0101000
+88 8 -87 8 *
Ve
0.000000100000492
-6.500000000000492 203.199999999999989 38.099999999999994
0 0

0101101
*
Ed
 0.000000100000000 1 1 0
1  74 0 3.141592653589793 6.283185307179586
2  47 21 0 3.141592653589793 6.283185307179586
0

0101000
+85 3 -88 3 *
Ve
0.000000100000000
-12.699999999999999 203.199999999999989 38.099999999999994
0 0

0101101
*
Ed
 0.000000100000000 1 1 0
1  75 0 0.000000000000000 6.199999999999507
0

0101000
+83 8 -85 8 *
Ed
 0.000000100000000 1 1 0
1  76 0 189.000968342876405 203.199999999999989
0

0101000
+205 8 -83 8 *
Ed
 0.000000100000000 1 1 0
1  77 0 0.000000000000000 14.199031657123385
0

0101000
+87 8 -215 8 *
Wi

0101100
+86 7 +84 0 +82 7 +81 7 -157 0 +80 7 *
Fa
0  0.000000100000000 27 7

0111000
+79 0 *
Ve
0.000000100000185
-12.699999999999815 14.199031657123998 38.099999999999994
0 0

0101101
*
Ed
 0.000000100000007 1 1 0
1  78 0 0.841068670567879 2.300523983021844
0

0101000
+93 3 -77 3 *
Ed
 0.000000100000007 1 1 0
1  79 0 14.199031657123998 21.997045256125059
0

0101000
+77 8 -203 8 *
Wi

0101100
-91 7 -76 0 -75 7 +156 0 *
Fa
0  0.000000100000000 28 0

0111000
+74 0 *
Ed
 0.000000100000000 1 1 0
1  80 0 0.000000000000000 3.141592653589793
2  48 21 0 0.000000000000000 3.141592653589793
0

0101000
+146 3 -143 3 *
Wi

0101100
+138 4 +144 4 -72 0 +140 4 +139 4 +134 0 +150 0 *
Fa
0  0.000000100000000 29 0

0111000
+71 0 *
Ed
 0.000000100000000 1 1 0
1  81 0 0.000000000000000 3.141592653589793
2  49 21 0 0.000000000000000 3.141592653589793
0

0101000
+88 3 -85 3 *
Wi

0101100
+80 7 +86 7 -69 0 +82 7 +81 7 +135 0 +149 0 *
Fa
0  0.000000100000000 30 0

0111000
+68 0 *
Ed
 0.000000100000000 1 1 0
1  82 0 1.000000000000000 13.699999999999996
3  50 51CN 21 0 1.000000000000000 13.699999999999996
0

0101000
+146 3 -88 3 *
Wi

0101100
-69 0 -84 0 +66 0 +142 0 +72 0 -66 0 *
Fa
0  0.000000100000000 21 0

0111000
+65 0 *
Ve
0.000000100000051
-12.700000000000049 -14.199031657123577 38.099999999999994
0 0

0101101
*
Ed
 0.000000100000000 1 1 0
1  83 0 2.300523983021844 3.982661324157718
0

0101000
+77 3 -63 3 *
Ed
 0.000000100000007 1 1 0
1  84 0 42.823885797123339 50.621899396124228
0

0101000
+189 13 -63 13 *
Wi

0101100
+75 7 -62 0 +61 12 +131 0 *
Fa
0  0.000000100000000 31 0

0111000
+60 0 *
Ve
0.000000100000068
-6.499999999999932 -64.820931053247804 38.099999999999994
0 0

0101101
*
Ve
0.000000100000000
-12.699999999999999 -64.820931053247804 38.099999999999994
0 0

0101101
*
Ed
 0.000000100000000 1 1 0
1  85 0 19.199999999999932 25.399999999999999
0

0101000
+58 13 -57 13 *
Ve
0.000000100000000
6.500000000000000 -64.820931053247804 38.099999999999994
0 0

0101101
*
Ed
 0.000000100000000 1 1 0
1  86 0 0.000000000000000 3.141592653589793
2  52 24 0 0.000000000000000 3.141592653589793
0

0101000
+55 3 -58 3 *
Ve
0.000000100000000
12.699999999999999 -64.820931053247804 38.099999999999994
0 0

0101101
*
Ed
 0.000000100000000 1 1 0
1  87 0 0.000000000000000 6.199999999999999
0

0101000
+53 13 -55 13 *
Ed
 0.000000100000000 1 1 0
1  88 0 50.621899396124419 64.820931053247804
0

0101000
+177 13 -53 13 *
Ed
 0.000000100000000 1 1 0
1  89 0 0.000000000000000 14.199031657123577
0

0101000
+57 13 -187 13 *
Wi

0101100
+56 12 +54 0 +52 12 +51 12 -128 0 +50 12 *
Fa
0  0.000000100000000 32 12

0111000
+49 0 *
Ed
 0.000000100000007 1 1 0
1  90 0 3.982661324157718 5.442116636611672
0

0101000
+63 3 -97 3 *
Wi

0101100
-61 12 -47 0 -96 12 +127 0 *
Fa
0  0.000000100000000 33 0

0111000
+46 0 *
Ed
 0.000000100000000 1 1 0
1  91 0 3.141592653589793 6.283185307179586
2  53 24 0 3.141592653589793 6.283185307179586
0

0101000
+117 3 -114 3 *
Wi

0101100
+109 9 +115 9 -44 0 +111 9 +110 9 +105 0 +121 0 *
Fa
0  0.000000100000000 34 0

0111000
+43 0 *
Ed
 0.000000100000000 1 1 0
1  92 0 3.141592653589793 6.283185307179586
2  54 24 0 3.141592653589793 6.283185307179586
0

0101000
+58 3 -55 3 *
Wi

0101100
+50 12 +56 12 -41 0 +52 12 +51 12 +106 0 +120 0 *
Fa
0  0.000000100000000 35 0

0111000
+40 0 *
Ed
 0.000000100000000 1 1 0
1  93 0 1.000000000000000 13.699999999999996
3  55 56CN 24 0 1.000000000000000 13.699999999999996
0

0101000
+114 3 -55 3 *
Wi

0101100
-54 0 -41 0 +38 0 +44 0 +113 0 -38 0 *
Fa
0  0.000000100000000 24 0

0111000
+37 0 *
Wi

0101100
+100 0 *
Ve
0.000000100000004
16.024999999999999 -0.000000000000004 0.000000000000000
0 0

0101101
*
Ed
 0.000000100000000 1 1 0
1  94 0 0.000000000000000 6.283185307179586
2  57 37 0 0.000000000000000 6.283185307179586
0

0101100
+34 3 -34 3 *
Wi

0101100
-33 0 *
Fa
0  0.000000100000000 36 0

0111000
+35 0 +32 0 *
Ve
0.000000100000009
12.699999999999999 -9.772953750018464 38.099999999999994
0 0

0101101
*
Ve
0.000000100000004
16.024999999999999 -0.000000000000004 38.100000000000001
0 0

0101101
*
Ed
 0.000000100000000 1 1 0
1  95 0 5.627305535920891 6.283185307179586
2  58 37 0 5.627305535920891 6.283185307179586
0

0101000
+30 3 -29 3 *
Ve
0.000000100000075
12.699999999999999 9.772953750018587 38.099999999999994
0 0

0101101
*
Ed
 0.000000100000000 1 1 0
1  96 0 0.000000000000000 0.655879771258702
2  59 37 0 0.000000000000000 0.655879771258702
0

0101000
+29 3 -27 3 *
Ed
 0.000000100000007 1 1 0
1  97 0 189.000968342877229 193.427046249981402
0

0101000
+93 8 -27 8 *
Ed
 0.000000100000007 1 1 0
1  98 0 9.772953750018464 14.199031657123383
0

0101000
+30 13 -97 13 *
Wi

0101100
-28 0 -26 0 +25 7 +92 0 +94 0 +24 12 *
Fa
0  0.000000100000000 38 0

0111000
+23 0 *
Ve
0.000000100000008
-12.699999999999999 9.772953750018464 38.099999999999994
0 0

0101101
*
Ed
 0.000000100000007 1 1 0
1  99 0 9.772953750018464 14.199031657123998
0

0101000
+21 8 -77 8 *
Ed
 0.000000100000000 1 1 0
1  100 0 0.655879771258702 2.485712882331097
2  60 37 0 0.655879771258702 2.485712882331097
0

0101000
+27 3 -21 3 *
Wi

0101100
-20 7 +76 0 -25 7 -19 0 *
Fa
0  0.000000100000000 39 0

0111000
+18 0 *
Ve
0.000000100000013
-12.699999999999999 -9.772953750018452 38.099999999999994
0 0

0101101
*
Ed
 0.000000100000000 1 1 0
1  101 0 2.485712882331097 3.797472424848489
2  61 37 0 2.485712882331097 3.797472424848489
0

0101000
+21 3 -16 3 *
Ed
 0.000000100000007 1 1 0
1  102 0 50.621899396124228 55.047977303229352
0

0101000
+63 13 -16 13 *
Wi

0101100
+62 0 +20 7 -15 0 +14 12 *
Fa
0  0.000000100000000 40 0

0111000
+13 0 *
Ed
 0.000000100000000 1 1 0
1  103 0 3.797472424848488 5.627305535920891
2  62 37 0 3.797472424848488 5.627305535920891
0

0101000
+16 3 -30 3 *
Wi

0101100
-14 12 -11 0 -24 12 +47 0 *
Fa
0  0.000000100000000 41 0

0111000
+10 0 *
Ed
 0.000000100000000 1 1 0
1  104 0 1.000000000000000 39.100000000000001
3  63 64CN 37 0 1.000000000000000 39.100000000000001
0

0101000
+34 3 -29 3 *
Wi

0101100
-26 0 -19 0 -15 0 -11 0 -28 0 +8 0 +33 0 -8 0 *
Fa
0  0.000000100000000 37 0

0111000
+7 0 *
Sh

0101100
+234 0 +229 0 -220 0 +211 0 +206 0 +197 0 -192 0 +183 0 +178 0 +171 0 
+166 0 +161 0 +158 0 -154 0 +147 0 +136 0 +132 0 +129 0 -125 0 +118 0 
+107 0 +103 0 -98 0 +89 0 -78 0 +73 0 -70 0 +67 0 -64 0 +59 0 
-48 0 +45 0 -42 0 +39 0 -36 0 -31 0 +22 0 +17 0 +12 0 +9 0 
-6 0 *
So

0100000
+5 0 *
Co

0100000
+4 0 *
Co

0100000
+3 0 *
Co

1100000
+2 0 *

+1 1 