
CASCADE Topology V1, (c) Matra-Datavision
Locations 23
1
1.000000000000000 0.000000000000000 0.000000000000000 0.000000000000000 
0.000000000000000 1.000000000000000 0.000000000000000 0.000000000000000 
0.000000000000000 0.000000000000000 1.000000000000000 0.000000000000000 
1
1.000000000000000 0.000000000000000 0.000000000000000 0.000000000000000 
0.000000000000000 1.000000000000000 0.000000000000000 -16.000000000000000 
0.000000000000000 0.000000000000000 1.000000000000000 0.000000000000000 
1
1.000000000000000 0.000000000000000 0.000000000000000 0.000000000000000 
0.000000000000000 1.000000000000000 0.000000000000000 0.000000000000000 
0.000000000000000 0.000000000000000 1.000000000000000 0.000000000000000 
2  3 -1 2 -1 0
2  2 -1 0
1
1.000000000000000 0.000000000000000 0.000000000000000 0.000000000000000 
0.000000000000000 1.000000000000000 0.000000000000000 5.400000000000000 
0.000000000000000 0.000000000000000 1.000000000000000 0.000000000000000 
2  3 -1 2 -1 6 -1 0
2  6 -1 0
1
1.000000000000000 0.000000000000000 0.000000000000000 0.000000000000000 
0.000000000000000 1.000000000000000 0.000000000000000 5.400000000000000 
0.000000000000000 0.000000000000000 1.000000000000000 0.000000000000000 
2  9 -1 0
2  3 -1 2 -1 9 -1 0
1
1.000000000000000 0.000000000000000 0.000000000000000 0.000000000000000 
0.000000000000000 1.000000000000000 0.000000000000000 -3.300000000000000 
0.000000000000000 0.000000000000000 1.000000000000000 0.000000000000000 
2  9 1 2 1 0
2  12 1 9 -1 0
2  3 -1 0
2  12 1 2 1 0
2  3 -1 2 -1 12 -1 0
1
1.000000000000000 0.000000000000000 0.000000000000000 0.000000000000000 
0.000000000000000 1.000000000000000 0.000000000000000 12.000000000000000 
0.000000000000000 0.000000000000000 1.000000000000000 0.000000000000000 
2  18 1 12 1 2 1 0
2  18 -1 0
2  3 -1 2 -1 12 -1 18 -1 0
2  6 1 2 1 0
2  2 -1 6 -1 0
Curve2ds 62
1 4.88692190558412243 0.00000000000000000 0.00000000000000000 -1.00000000000000000 
1 0.00000000000000000 0.00000000000000000 0.00000000000000000 -1.00000000000000000 
1 0.00000000000000000 0.00000000000000000 1.00000000000000000 0.00000000000000000 
1 0.00000000000000000 -5.40000000000000036 1.00000000000000000 0.00000000000000000 
7 0 0  4 5 2  2.33316374789578473 -5.40000060000000026  2.33316374789578473 -4.05000029999999001  2.33316374789578473 -2.70000000000000240  2.33316374789578473 -1.34999970000000324  2.33316374789578473 0.00000059999999991 
 0.00000000000000000 5 1.00000000000000000 5
7 0 0  4 5 2  180.26677968410729136 -5.40000060000000026  180.26677968410729136 -4.05000029999999001  180.26677968410729136 -2.70000000000000240  180.26677968410729136 -1.34999970000000324  180.26677968410729136 0.00000059999999991 
 0.00000000000000000 5 1.00000000000000000 5
1 0.00000000000000000 0.00000000000000000 1.00000000000000000 0.00000000000000000 
1 0.00000000000000000 -5.40000000000000036 1.00000000000000000 0.00000000000000000 
7 0 0  1 2 2  158.37913540963765513 -5.40000000000000036  158.37913540963765513 -0.00000000000000044 
 0.27500002249999828 2 0.72499997750000233 2
7 0 0  1 2 2  0.00000000000001421 -3.29999999999999982  158.37913540963762671 -3.29999999999999982 
 0.00000000000000000 2 158.37913540963768355 2
7 0 0  1 2 2  0.00000000000001421 -8.69999999999999751  158.37913540963762671 -8.70000000000000107 
 0.00000000000000000 2 158.37913540963768355 2
7 0 0  4 5 2  21.20350458007049710 -5.40000060000000026  21.20350458007049710 -4.05000029999999178  21.20350458007047934 -2.70000000000000284  21.20350458007051131 -1.34999969999999436  21.20350458007051131 0.00000059999999991 
 0.00000000000000000 5 1.00000000000000000 5
7 0 0  4 5 2  3.18254214702546934 13.70000060000000097  3.18254214702546934 12.35000029999999249  3.18254214702546934 11.00000000000000711  3.18254214702546934 9.64999969999999507  3.18254214702546934 8.29999940000000080 
 0.00000000000000000 5 1.00000000000000000 5
7 0 0  4 5 2  1.20088191196399441 -5.40000060000000026  1.20088191196399441 -4.05000029999997402  1.20088191196399441 -2.70000000000002860  1.20088191196399441 -1.34999969999998903  1.20088191196399441 0.00000059999999991 
 0.00000000000000000 5 1.00000000000000000 5
7 0 0  4 5 2  62.23010087507865506 -5.40000060000000026  62.23010087507865506 -4.05000029999997402  62.23010087507865506 -2.70000000000002860  62.23010087507865506 -1.34999969999998903  62.23010087507865506 0.00000059999999991 
 0.00000000000000000 5 1.00000000000000000 5
1 0.00000000000000000 0.00000000000000000 0.00000000000000000 -1.00000000000000000 
1 0.00000000000000000 0.00000000000000000 1.00000000000000000 0.00000000000000000 
7 0 0  1 2 2  82.48655247829715620 -5.40000000000000213  82.48655247829715620 -0.00000000000000044 
 0.27500002249999844 2 0.72499997750000245 2
1 0.00000000000000000 -5.40000000000000036 1.00000000000000000 0.00000000000000000 
1 4.88692190558412243 0.00000000000000000 0.00000000000000000 -1.00000000000000000 
7 0 0  1 2 2  82.48655247829719883 -3.30000000000000071  245.92384074805733007 -3.29999999999999982 
 82.48655247829718462 2 245.92384074805733007 2
7 0 0  4 5 2  214.31875522558692637 -5.40000060000000204  214.31875522558692637 -4.05000030000000777  214.31875522558692637 -2.69999999999998330  214.31875522558692637 -1.34999970000000857  214.31875522558692637 0.00000059999999991 
 0.00000000000000000 5 1.00000000000000000 5
7 0 0  4 5 2  1.51774944119983757 13.70000060000000275  1.51774944119983757 12.35000030000000848  1.51774944119983757 10.99999999999998401  1.51774944119983757 9.64999970000000928  1.51774944119983757 8.29999940000000080 
 0.00000000000000000 5 1.00000000000000000 5
7 0 0  1 2 2  82.48655247829719883 -8.70000000000000284  245.92384074805733007 -8.69999999999999929 
 82.48655247829718462 2 245.92384074805733007 2
1 0.00000000000000000 0.00000000000000000 1.00000000000000000 0.00000000000000000 
7 0 0  4 5 2  214.31875522558692637 -3.30000060000000150  214.31875522558692637 -2.47500029999999782  214.31875522558692637 -1.64999999999999991  214.31875522558692637 -0.82499970000000378  214.31875522558692637 0.00000059999999991 
 0.00000000000000000 5 1.00000000000000000 5
7 0 0  4 5 2  1.51774944119983757 8.30000060000000062  1.51774944119983757 7.47500029999999693  1.51774944119983757 6.65000000000000213  1.51774944119983757 5.82499970000000378  1.51774944119983757 4.99999940000000009 
 0.00000000000000000 5 1.00000000000000000 5
7 0 0  4 5 2  82.48655247829715620 -12.00000059999999991  82.48655247829715620 -9.00000030000006390  82.48655247829715620 -5.99999999999991829  82.48655247829715620 -2.99999970000004623  82.48655247829715620 0.00000059999999991 
 0.00000000000000000 5 1.00000000000000000 5
7 0 0  4 5 2  5.79981676586460093 36.00000059999999991  5.79981676586460093 33.00000030000006745  5.79981676586460093 29.99999999999991473  5.79981676586460093 26.99999970000004623  5.79981676586460093 23.99999940000000009 
 0.00000000000000000 5 1.00000000000000000 5
1 0.00000000000000000 24.00000000000000000 1.00000000000000000 0.00000000000000000 
7 0 0  4 5 2  5.00646125724435720 36.00000059999999991  5.00646125724435720 33.00000030000003903  5.00646125724435720 29.99999999999994316  5.00646125724435720 26.99999970000002847  5.00646125724435720 23.99999940000000009 
 0.00000000000000000 5 1.00000000000000000 5
7 0 0  4 5 2  158.37913540963765513 -12.00000059999999991  158.37913540963765513 -9.00000030000004259  158.37913540963765513 -5.99999999999994404  158.37913540963765513 -2.99999970000002847  158.37913540963765513 0.00000059999999991 
 0.00000000000000000 5 1.00000000000000000 5
1 0.00000000000000000 27.30000000000000071 1.00000000000000000 0.00000000000000000 
1 6.28318530717958623 -0.00000000000000000 0.00000000000000000 1.00000000000000000 
1 0.00000000000000000 -0.00000000000000000 0.00000000000000000 1.00000000000000000 
1 0.00000000000000000 0.00000000000000000 1.00000000000000000 0.00000000000000000 
1 0.00000000000000000 22.00000000000000000 1.00000000000000000 0.00000000000000000 
1 0.00000000000000000 5.00000000000000000 1.00000000000000000 0.00000000000000000 
7 0 0  4 5 2  3.18254214702546934 8.30000060000000062  3.18254214702546934 7.47500030000000315  3.18254214702546934 6.64999999999999325  3.18254214702546934 5.82499970000000555  3.18254214702546934 4.99999940000000009 
 0.00000000000000000 5 1.00000000000000000 5
7 0 0  4 5 2  21.20350458007050420 -3.30000059999999973  21.20350458007050420 -2.47500030000000226  21.20350458007052197 -1.64999999999999236  21.20350458007048999 -0.82499970000000555  21.20350458007048999 0.00000059999999991 
 0.00000000000000000 5 1.00000000000000000 5
7 0 0  4 5 2  3.18254214702546934 17.00000059999999991  3.18254214702546934 16.17500029999999356  3.18254214702546845 15.35000000000000853  3.18254214702547022 14.52499969999999330  3.18254214702547022 13.69999939999999761 
 0.00000000000000000 5 1.00000000000000000 5
7 0 0  4 5 2  21.20350458007049710 -12.00000060000000168  21.20350458007049710 -11.17500029999999711  21.20350458007052907 -10.35000000000000853  21.20350458007047223 -9.52499969999999330  21.20350458007047223 -8.69999939999999761 
 0.00000000000000000 5 1.00000000000000000 5
1 0.00000000000000000 17.00000000000000000 1.00000000000000000 0.00000000000000000 
7 0 0  4 5 2  1.51774944119983757 17.00000059999999991  1.51774944119983757 16.17500030000000422  1.51774944119983757 15.34999999999999609  1.51774944119983757 14.52499970000000395  1.51774944119983757 13.69999939999999938 
 0.00000000000000000 5 1.00000000000000000 5
7 0 0  4 5 2  214.31875522558692637 -12.00000059999999991  214.31875522558692637 -11.17500030000000244  214.31875522558692637 -10.34999999999999609  214.31875522558692637 -9.52499970000000395  214.31875522558692637 -8.69999939999999938 
 0.00000000000000000 5 1.00000000000000000 5
1 0.00000000000000000 -12.00000000000000000 1.00000000000000000 0.00000000000000000 
1 0.00000000000000000 32.70000000000000284 1.00000000000000000 0.00000000000000000 
1 0.00000000000000000 36.00000000000000000 1.00000000000000000 0.00000000000000000 
1 0.00000000000000000 0.00000000000000000 1.00000000000000000 0.00000000000000000 
1 0.00000000000000000 1.00000000000000000 1.00000000000000000 0.00000000000000000 
1 0.00000000000000000 23.00000000000000000 1.00000000000000000 0.00000000000000000 
1 0.00000000000000000 -12.00000000000000000 1.00000000000000000 0.00000000000000000 
1 6.28318530717958623 -0.00000000000000000 0.00000000000000000 1.00000000000000000 
1 0.00000000000000000 -0.00000000000000000 0.00000000000000000 1.00000000000000000 
1 0.00000000000000000 0.00000000000000000 1.00000000000000000 0.00000000000000000 
1 0.00000000000000000 0.00000000000000000 1.00000000000000000 0.00000000000000000 
1 0.00000000000000000 0.00000000000000000 1.00000000000000000 0.00000000000000000 
1 0.00000000000000000 0.00000000000000000 1.00000000000000000 0.00000000000000000 
1 0.00000000000000000 -5.39999999999999858 1.00000000000000000 0.00000000000000000 
1 0.00000000000000000 -5.39999999999999858 1.00000000000000000 0.00000000000000000 
1 0.00000000000000000 -5.39999999999999858 1.00000000000000000 0.00000000000000000 
1 0.00000000000000000 -5.39999999999999858 1.00000000000000000 0.00000000000000000 
Curves 58
1 65.11377766511311904 -2.70000000000000018 -54.63694682335587061 0.00000000000000000 1.00000000000000000 0.00000000000000000 
1 55.38501323750209338 -2.70000000000000018 -46.47354418033680901 0.00000000000000000 1.00000000000000000 0.00000000000000000 
1 65.11377766511311904 -2.70000000000000018 -54.63694682335586350 -0.76604444311897801 0.00000000000000000 0.64278760968653936 
1 65.11377766511311904 -2.70000000000000018 -54.63694682335586350 -0.76604444311897801 0.00000000000000000 0.64278760968653936 
2 -0.00000000000000089 -2.70000000000000018 -0.00000000000001243 0.00000000000000000 -1.00000000000000000 0.00000000000000000 0.76604444311897801 0.00000000000000000 0.64278760968653936 -0.64278760968653936 0.00000000000000000 0.76604444311897801 85.00000000000000000
2 -0.00000000000000089 -2.70000000000000018 -0.00000000000001243 0.00000000000000000 -1.00000000000000000 0.00000000000000000 0.76604444311897801 0.00000000000000000 0.64278760968653936 -0.64278760968653936 0.00000000000000000 0.76604444311897801 85.00000000000000000
7 0 0  4 5 2  -84.48349132986868426 2.70000060000000008 9.35626489129092676  -84.48349132986868426 1.35000029999998983 9.35626489129092676  -84.48349132986868426 0.00000000000000178 9.35626489129092676  -84.48349132986868426 -1.35000029999999649 9.35626489129092676  -84.48349132986868426 -2.70000060000000008 9.35626489129092676 
 0.00000000000000000 5 1.00000000000000000 5
7 0 0  3 6 4  -199.46496913580247679 -2.70000000000000018 146.35756172839504075  -172.47847182673703514 -2.70000000000000018 126.96809680841322177  -136.16902035222020118 -2.69999999999999929 91.88908217428736691  -99.99701271070283326 -2.70000000000000107 39.41627099060443840  -85.70263102549762380 -2.70000000000000018 12.31487786061974177  -80.00000000000000000 -2.70000000000000018 0.00000000000000000 
 0.00000000000000000 4 98.89387270722357925 1 149.93307332792295483 1 190.63933820201819458 4
7 0 0  3 6 4  -199.46496913580247679 -2.70000000000000018 146.35756172839504075  -172.47847182673703514 -2.70000000000000018 126.96809680841322177  -136.16902035222020118 -2.69999999999999929 91.88908217428736691  -99.99701271070283326 -2.70000000000000107 39.41627099060443840  -85.70263102549762380 -2.70000000000000018 12.31487786061974177  -80.00000000000000000 -2.70000000000000018 0.00000000000000000 
 0.00000000000000000 4 98.89387270722357925 1 149.93307332792295483 1 190.63933820201819458 4
7 0 0  4 5 2  -94.75007420573358274 6.00000059999999902 28.69535568707904005  -94.75007420573358274 3.00000030000004170 28.69535568707904005  -94.75007420573358274 -0.00000000000005418 28.69535568707904005  -94.75007420573358274 -3.00000029999997331 28.69535568707904005  -94.75007420573358274 -6.00000060000000079 28.69535568707904005 
 0.00000000000000000 5 1.00000000000000000 5
7 0 0  3 6 4  -199.46496913580247679 -2.70000000000000018 146.35756172839504075  -172.47847182673703514 -2.70000000000000018 126.96809680841322177  -136.16902035222020118 -2.69999999999999929 91.88908217428736691  -99.99701271070283326 -2.70000000000000107 39.41627099060443840  -85.70263102549762380 -2.70000000000000018 12.31487786061974177  -80.00000000000000000 -2.70000000000000018 0.00000000000000000 
 0.00000000000000000 4 98.89387270722357925 1 149.93307332792295483 1 190.63933820201819458 4
7 0 0  3 6 4  -199.46496913580247679 -2.70000000000000018 146.35756172839504075  -172.47847182673703514 -2.70000000000000018 126.96809680841322177  -136.16902035222020118 -2.69999999999999929 91.88908217428736691  -99.99701271070283326 -2.70000000000000107 39.41627099060443840  -85.70263102549762380 -2.70000000000000018 12.31487786061974177  -80.00000000000000000 -2.70000000000000018 0.00000000000000000 
 0.00000000000000000 4 98.89387270722357925 1 149.93307332792295483 1 190.63933820201819458 4
7 0 0  4 5 2  -182.52935843477121125 -13.29999939999999903 133.37935787554485501  -182.52935843477121125 -14.64999970000000751 133.37935787554485501  -182.52935843477121125 -15.99999999999999289 133.37935787554488343  -182.52935843477121125 -17.35000030000000493 133.37935787554482658  -182.52935843477121125 -18.70000059999999920 133.37935787554482658 
 0.00000000000000000 5 1.00000000000000000 5
2 -0.00000000000000089 -2.70000000000000018 -0.00000000000001243 0.00000000000000000 -1.00000000000000000 0.00000000000000000 0.76604444311897801 0.00000000000000000 0.64278760968653936 -0.64278760968653936 0.00000000000000000 0.76604444311897801 85.00000000000000000
7 0 0  4 5 2  -27.40025926992935723 2.70000060000000053 80.46257385853778032  -27.40025926992935723 1.35000029999997428 80.46257385853778032  -27.40025926992935723 0.00000000000002709 80.46257385853778032  -27.40025926992935723 -1.35000030000001048 80.46257385853778032  -27.40025926992935723 -2.70000059999999964 80.46257385853778032 
 0.00000000000000000 5 1.00000000000000000 5
2 -0.00000000000000089 -2.70000000000000018 -0.00000000000001243 0.00000000000000000 -1.00000000000000000 0.00000000000000000 0.76604444311897801 0.00000000000000000 0.64278760968653936 -0.64278760968653936 0.00000000000000000 0.76604444311897801 85.00000000000000000
1 65.11377766511313325 -2.70000000000000018 54.63694682335583508 0.00000000000000000 1.00000000000000000 0.00000000000000000 
7 0 0  3 6 4  35.89999999999999858 -2.70000000000000018 72.79999999999999716  -0.67292809179005164 -2.69999999999999973 69.89066923630220174  -56.49241720298589087 -2.70000000000000018 87.09896957682155971  -123.13872688571493086 -2.70000000000000018 136.26199982505036701  -162.25876026545068953 -2.70000000000000018 166.34579659664584028  -181.46496913580247679 -2.70000000000000018 178.35756172839504075 
 0.00000000000000000 4 99.19324573780211551 1 176.87940924199375559 1 245.92384074805733007 4
7 0 0  4 5 2  -46.01167847262993149 6.00000059999999991 87.65800273866227599  -46.01167847262993149 3.00000030000006390 87.65800273866227599  -46.01167847262993149 -0.00000000000008438 87.65800273866227599  -46.01167847262993149 -3.00000029999995377 87.65800273866227599  -46.01167847262993149 -6.00000059999999991 87.65800273866227599 
 0.00000000000000000 5 1.00000000000000000 5
7 0 0  3 6 4  35.89999999999999858 -2.70000000000000018 72.79999999999999716  -0.67292809179005164 -2.69999999999999973 69.89066923630220174  -56.49241720298589087 -2.70000000000000018 87.09896957682155971  -123.13872688571493086 -2.70000000000000018 136.26199982505036701  -162.25876026545068953 -2.70000000000000018 166.34579659664584028  -181.46496913580247679 -2.70000000000000018 178.35756172839504075 
 0.00000000000000000 4 99.19324573780211551 1 176.87940924199375559 1 245.92384074805733007 4
1 55.38501323750210759 -2.70000000000000018 46.47354418033678769 0.00000000000000000 1.00000000000000000 0.00000000000000000 
1 55.38501323750210759 -2.70000000000000018 46.47354418033678769 0.76604444311897835 0.00000000000000000 0.64278760968653914 
1 55.38501323750210759 -2.70000000000000018 46.47354418033678769 0.76604444311897835 0.00000000000000000 0.64278760968653914 
7 0 0  3 6 4  35.89999999999999858 -2.70000000000000018 72.79999999999999716  -0.67292809179005164 -2.69999999999999973 69.89066923630220174  -56.49241720298589087 -2.70000000000000018 87.09896957682155971  -123.13872688571493086 -2.70000000000000018 136.26199982505036701  -162.25876026545068953 -2.70000000000000018 166.34579659664584028  -181.46496913580247679 -2.70000000000000018 178.35756172839504075 
 0.00000000000000000 4 99.19324573780211551 1 176.87940924199375559 1 245.92384074805733007 4
7 0 0  4 5 2  -155.50154219522570997 -13.29999939999999725 160.73613399756800391  -155.50154219522570997 -14.64999969999999152 160.73613399756800391  -155.50154219522570997 -16.00000000000001421 160.73613399756800391  -155.50154219522570997 -17.35000029999999072 160.73613399756800391  -155.50154219522570997 -18.70000059999999920 160.73613399756800391 
 0.00000000000000000 5 1.00000000000000000 5
7 0 0  3 6 4  35.89999999999999858 -2.70000000000000018 72.79999999999999716  -0.67292809179005164 -2.69999999999999973 69.89066923630220174  -56.49241720298589087 -2.70000000000000018 87.09896957682155971  -123.13872688571493086 -2.70000000000000018 136.26199982505036701  -162.25876026545068953 -2.70000000000000018 166.34579659664584028  -181.46496913580247679 -2.70000000000000018 178.35756172839504075 
 0.00000000000000000 4 99.19324573780211551 1 176.87940924199375559 1 245.92384074805733007 4
7 0 0  3 6 4  35.89999999999999858 -2.70000000000000018 72.79999999999999716  -0.67292809179005164 -2.69999999999999973 69.89066923630220174  -56.49241720298589087 -2.70000000000000018 87.09896957682155971  -123.13872688571493086 -2.70000000000000018 136.26199982505036701  -162.25876026545068953 -2.70000000000000018 166.34579659664584028  -181.46496913580247679 -2.70000000000000018 178.35756172839504075 
 0.00000000000000000 4 99.19324573780211551 1 176.87940924199375559 1 245.92384074805733007 4
7 0 0  4 5 2  -155.50154219522570997 -18.69999939999999938 160.73613399756800391  -155.50154219522570997 -19.52499970000000218 160.73613399756800391  -155.50154219522570997 -20.34999999999999787 160.73613399756800391  -155.50154219522570997 -21.17500029999999711 160.73613399756800391  -155.50154219522570997 -22.00000059999999991 160.73613399756800391 
 0.00000000000000000 5 1.00000000000000000 5
7 0 0  4 5 2  -46.01167847262993149 6.00000059999999991 87.65800273866227599  -46.01167847262993149 3.00000030000006390 87.65800273866227599  -46.01167847262993149 -0.00000000000008438 87.65800273866227599  -46.01167847262993149 -3.00000029999995377 87.65800273866227599  -46.01167847262993149 -6.00000059999999991 87.65800273866227599 
 0.00000000000000000 5 1.00000000000000000 5
2 0.00000000000000000 -6.00000000000000000 0.00000000000000000 0.00000000000000000 1.00000000000000000 0.00000000000000000 0.00000000000000000 -0.00000000000000000 1.00000000000000000 1.00000000000000000 0.00000000000000000 -0.00000000000000000 99.00000000000000000
7 0 0  4 5 2  -94.75007420573358274 6.00000059999999902 28.69535568707904005  -94.75007420573358274 3.00000030000004170 28.69535568707904005  -94.75007420573358274 -0.00000000000005418 28.69535568707904005  -94.75007420573358274 -3.00000029999997331 28.69535568707904005  -94.75007420573358274 -6.00000060000000079 28.69535568707904005 
 0.00000000000000000 5 1.00000000000000000 5
2 0.00000000000000000 -2.69999999999999929 0.00000000000000000 0.00000000000000000 1.00000000000000000 0.00000000000000000 0.00000000000000000 -0.00000000000000000 1.00000000000000000 1.00000000000000000 0.00000000000000000 -0.00000000000000000 99.00000000000000000
1 -181.46496913580250521 -27.00000000000000000 185.35756172839504075 0.00000000000000000 1.00000000000000000 0.00000000000000000 
2 -181.46496913580247679 -27.00000000000000000 159.35756172839504075 0.00000000000000000 1.00000000000000000 0.00000000000000000 0.00000000000000000 -0.00000000000000000 1.00000000000000000 1.00000000000000000 0.00000000000000000 -0.00000000000000000 26.00000000000000000
2 -181.46496913580247679 -5.00000000000000000 159.35756172839504075 0.00000000000000000 1.00000000000000000 0.00000000000000000 0.00000000000000000 -0.00000000000000000 1.00000000000000000 1.00000000000000000 0.00000000000000000 -0.00000000000000000 26.00000000000000000
2 -181.46496913580247679 -22.00000000000000000 159.35756172839504075 0.00000000000000000 1.00000000000000000 0.00000000000000000 0.00000000000000000 -0.00000000000000000 1.00000000000000000 1.00000000000000000 0.00000000000000000 -0.00000000000000000 26.00000000000000000
7 0 0  4 5 2  -182.52935843477121125 -18.69999939999999938 133.37935787554482658  -182.52935843477121125 -19.52499969999999507 133.37935787554482658  -182.52935843477121125 -20.35000000000000853 133.37935787554479816  -182.52935843477121125 -21.17500029999999356 133.37935787554485501  -182.52935843477121125 -22.00000059999999991 133.37935787554485501 
 0.00000000000000000 5 1.00000000000000000 5
7 0 0  4 5 2  -182.52935843477121125 -9.99999939999999832 133.37935787554485501  -182.52935843477121125 -10.82499970000000289 133.37935787554485501  -182.52935843477118283 -11.64999999999999147 133.37935787554485501  -182.52935843477123967 -12.47500030000000670 133.37935787554485501  -182.52935843477123967 -13.30000060000000239 133.37935787554485501 
 0.00000000000000000 5 1.00000000000000000 5
2 -181.46496913580247679 -10.00000000000000000 159.35756172839504075 0.00000000000000000 1.00000000000000000 0.00000000000000000 0.00000000000000000 -0.00000000000000000 1.00000000000000000 1.00000000000000000 0.00000000000000000 -0.00000000000000000 26.00000000000000000
7 0 0  4 5 2  -155.50154219522570997 -9.99999940000000009 160.73613399756800391  -155.50154219522570997 -10.82499969999999756 160.73613399756800391  -155.50154219522570997 -11.65000000000000391 160.73613399756800391  -155.50154219522570997 -12.47500029999999605 160.73613399756800391  -155.50154219522570997 -13.30000060000000062 160.73613399756800391 
 0.00000000000000000 5 1.00000000000000000 5
7 0 0  3 6 4  35.89999999999999858 -2.70000000000000018 72.79999999999999716  -0.67292809179005164 -2.69999999999999973 69.89066923630220174  -56.49241720298589087 -2.70000000000000018 87.09896957682155971  -123.13872688571493086 -2.70000000000000018 136.26199982505036701  -162.25876026545068953 -2.70000000000000018 166.34579659664584028  -181.46496913580247679 -2.70000000000000018 178.35756172839504075 
 0.00000000000000000 4 99.19324573780211551 1 176.87940924199375559 1 245.92384074805733007 4
7 0 0  4 5 2  -46.01167847262993149 6.00000059999999991 87.65800273866227599  -46.01167847262993149 3.00000030000006390 87.65800273866227599  -46.01167847262993149 -0.00000000000008438 87.65800273866227599  -46.01167847262993149 -3.00000029999995377 87.65800273866227599  -46.01167847262993149 -6.00000059999999991 87.65800273866227599 
 0.00000000000000000 5 1.00000000000000000 5
2 0.00000000000000000 2.70000000000000284 0.00000000000000000 0.00000000000000000 1.00000000000000000 0.00000000000000000 0.00000000000000000 -0.00000000000000000 1.00000000000000000 1.00000000000000000 0.00000000000000000 -0.00000000000000000 99.00000000000000000
7 0 0  4 5 2  -94.75007420573358274 6.00000059999999902 28.69535568707904005  -94.75007420573358274 3.00000030000004170 28.69535568707904005  -94.75007420573358274 -0.00000000000005418 28.69535568707904005  -94.75007420573358274 -3.00000029999997331 28.69535568707904005  -94.75007420573358274 -6.00000060000000079 28.69535568707904005 
 0.00000000000000000 5 1.00000000000000000 5
2 0.00000000000000000 6.00000000000000000 0.00000000000000000 0.00000000000000000 1.00000000000000000 0.00000000000000000 0.00000000000000000 -0.00000000000000000 1.00000000000000000 1.00000000000000000 0.00000000000000000 -0.00000000000000000 99.00000000000000000
7 0 0  3 6 4  -199.46496913580247679 -2.70000000000000018 146.35756172839504075  -172.47847182673703514 -2.70000000000000018 126.96809680841322177  -136.16902035222020118 -2.69999999999999929 91.88908217428736691  -99.99701271070283326 -2.70000000000000107 39.41627099060443840  -85.70263102549762380 -2.70000000000000018 12.31487786061974177  -80.00000000000000000 -2.70000000000000018 0.00000000000000000 
 0.00000000000000000 4 98.89387270722357925 1 149.93307332792295483 1 190.63933820201819458 4
2 -181.46496913580247679 -27.00000000000000000 159.35756172839504075 0.00000000000000000 1.00000000000000000 0.00000000000000000 0.00000000000000000 -0.00000000000000000 1.00000000000000000 1.00000000000000000 0.00000000000000000 -0.00000000000000000 12.15000000000000036
2 -181.46496913580247679 -5.00000000000000000 159.35756172839504075 0.00000000000000000 1.00000000000000000 0.00000000000000000 0.00000000000000000 -0.00000000000000000 1.00000000000000000 1.00000000000000000 0.00000000000000000 -0.00000000000000000 12.15000000000000036
7 0 0  3 6 4  -199.46496913580247679 -2.70000000000000018 146.35756172839504075  -172.47847182673703514 -2.70000000000000018 126.96809680841322177  -136.16902035222020118 -2.69999999999999929 91.88908217428736691  -99.99701271070283326 -2.70000000000000107 39.41627099060443840  -85.70263102549762380 -2.70000000000000018 12.31487786061974177  -80.00000000000000000 -2.70000000000000018 0.00000000000000000 
 0.00000000000000000 4 98.89387270722357925 1 149.93307332792295483 1 190.63933820201819458 4
1 -181.46496913580247679 -28.00000000000000000 171.50756172839504643 0.00000000000000000 1.00000000000000000 0.00000000000000000 
2 -0.00000000000000089 -2.70000000000000018 -0.00000000000000178 0.00000000000000000 1.00000000000000000 0.00000000000000000 0.76604444311897779 0.00000000000000000 -0.64278760968653958 -0.64278760968653958 0.00000000000000000 -0.76604444311897779 72.29999999999999716
2 -0.00000000000000089 -2.70000000000000018 -0.00000000000000178 0.00000000000000000 1.00000000000000000 0.00000000000000000 0.76604444311897779 0.00000000000000000 -0.64278760968653958 -0.64278760968653958 0.00000000000000000 -0.76604444311897779 72.29999999999999716
2 -0.00000000000000089 -2.70000000000000018 -0.00000000000000178 0.00000000000000000 1.00000000000000000 0.00000000000000000 0.76604444311897779 0.00000000000000000 -0.64278760968653958 -0.64278760968653958 0.00000000000000000 -0.76604444311897779 72.29999999999999716
2 -0.00000000000000089 -2.70000000000000018 -0.00000000000000178 0.00000000000000000 1.00000000000000000 0.00000000000000000 0.76604444311897779 0.00000000000000000 -0.64278760968653958 -0.64278760968653958 0.00000000000000000 -0.76604444311897779 72.29999999999999716
2 -0.00000000000000089 -2.70000000000000018 -0.00000000000000178 0.00000000000000000 1.00000000000000000 0.00000000000000000 0.76604444311897779 0.00000000000000000 -0.64278760968653958 -0.64278760968653958 0.00000000000000000 -0.76604444311897779 72.29999999999999716
2 -0.00000000000000089 -2.70000000000000018 -0.00000000000000178 0.00000000000000000 1.00000000000000000 0.00000000000000000 0.76604444311897779 0.00000000000000000 -0.64278760968653958 -0.64278760968653958 0.00000000000000000 -0.76604444311897779 72.29999999999999716
2 -0.00000000000000089 -2.70000000000000018 -0.00000000000000178 0.00000000000000000 1.00000000000000000 0.00000000000000000 0.76604444311897779 0.00000000000000000 -0.64278760968653958 -0.64278760968653958 0.00000000000000000 -0.76604444311897779 72.29999999999999716
2 -0.00000000000000089 -2.70000000000000018 -0.00000000000000178 0.00000000000000000 1.00000000000000000 0.00000000000000000 0.76604444311897779 0.00000000000000000 -0.64278760968653958 -0.64278760968653958 0.00000000000000000 -0.76604444311897779 72.29999999999999716
Polygon3D 0
PolygonOnTriangulations 0
Surfaces 23
1 65.11377766511311904 -2.70000000000000018 -54.63694682335586350 0.64278760968653936 0.00000000000000000 0.76604444311897801 -0.76604444311897801 0.00000000000000000 0.64278760968653936 0.00000000000000000 -1.00000000000000000 0.00000000000000000 
2 -0.00000000000000089 -2.70000000000000018 -0.00000000000001243 0.00000000000000000 -1.00000000000000000 0.00000000000000000 0.76604444311897801 0.00000000000000000 0.64278760968653936 -0.64278760968653936 0.00000000000000000 0.76604444311897801 85.00000000000000000
2 -0.00000000000000089 -18.69999999999999929 -0.00000000000000178 -0.00000000000000000 -1.00000000000000000 -0.00000000000000000 0.76604444311897779 0.00000000000000000 -0.64278760968653958 -0.64278760968653958 0.00000000000000000 -0.76604444311897779 72.29999999999999716
6 -0.00000000000000000 -1.00000000000000000 -0.00000000000000000 
7 0 0  3 6 4  -199.46496913580247679 -2.70000000000000018 146.35756172839504075  -172.47847182673703514 -2.70000000000000018 126.96809680841322177  -136.16902035222020118 -2.69999999999999929 91.88908217428736691  -99.99701271070283326 -2.70000000000000107 39.41627099060443840  -85.70263102549762380 -2.70000000000000018 12.31487786061974177  -80.00000000000000000 -2.70000000000000018 0.00000000000000000 
 0.00000000000000000 4 98.89387270722357925 1 149.93307332792295483 1 190.63933820201819458 4
6 -0.00000000000000000 -1.00000000000000000 -0.00000000000000000 
7 0 0  3 6 4  -199.46496913580247679 -2.70000000000000018 146.35756172839504075  -172.47847182673703514 -2.70000000000000018 126.96809680841322177  -136.16902035222020118 -2.69999999999999929 91.88908217428736691  -99.99701271070283326 -2.70000000000000107 39.41627099060443840  -85.70263102549762380 -2.70000000000000018 12.31487786061974177  -80.00000000000000000 -2.70000000000000018 0.00000000000000000 
 0.00000000000000000 4 98.89387270722357925 1 149.93307332792295483 1 190.63933820201819458 4
6 -0.00000000000000000 -1.00000000000000000 -0.00000000000000000 
7 0 0  3 6 4  -199.46496913580247679 -2.70000000000000018 146.35756172839504075  -172.47847182673703514 -2.70000000000000018 126.96809680841322177  -136.16902035222020118 -2.69999999999999929 91.88908217428736691  -99.99701271070283326 -2.70000000000000107 39.41627099060443840  -85.70263102549762380 -2.70000000000000018 12.31487786061974177  -80.00000000000000000 -2.70000000000000018 0.00000000000000000 
 0.00000000000000000 4 98.89387270722357925 1 149.93307332792295483 1 190.63933820201819458 4
6 -0.00000000000000000 -1.00000000000000000 -0.00000000000000000 
7 0 0  3 6 4  -199.46496913580247679 -2.70000000000000018 146.35756172839504075  -172.47847182673703514 -2.70000000000000018 126.96809680841322177  -136.16902035222020118 -2.69999999999999929 91.88908217428736691  -99.99701271070283326 -2.70000000000000107 39.41627099060443840  -85.70263102549762380 -2.70000000000000018 12.31487786061974177  -80.00000000000000000 -2.70000000000000018 0.00000000000000000 
 0.00000000000000000 4 98.89387270722357925 1 149.93307332792295483 1 190.63933820201819458 4
2 -181.46496913580247679 -27.00000000000000000 159.35756172839504075 0.00000000000000000 1.00000000000000000 0.00000000000000000 0.00000000000000000 -0.00000000000000000 1.00000000000000000 1.00000000000000000 0.00000000000000000 -0.00000000000000000 26.00000000000000000
2 -0.00000000000000089 -2.70000000000000018 -0.00000000000001243 0.00000000000000000 -1.00000000000000000 0.00000000000000000 0.76604444311897801 0.00000000000000000 0.64278760968653936 -0.64278760968653936 0.00000000000000000 0.76604444311897801 85.00000000000000000
6 -0.00000000000000000 -1.00000000000000000 -0.00000000000000000 
7 0 0  3 6 4  35.89999999999999858 -2.70000000000000018 72.79999999999999716  -0.67292809179005164 -2.69999999999999973 69.89066923630220174  -56.49241720298589087 -2.70000000000000018 87.09896957682155971  -123.13872688571493086 -2.70000000000000018 136.26199982505036701  -162.25876026545068953 -2.70000000000000018 166.34579659664584028  -181.46496913580247679 -2.70000000000000018 178.35756172839504075 
 0.00000000000000000 4 99.19324573780211551 1 176.87940924199375559 1 245.92384074805733007 4
6 -0.00000000000000000 -1.00000000000000000 -0.00000000000000000 
7 0 0  3 6 4  35.89999999999999858 -2.70000000000000018 72.79999999999999716  -0.67292809179005164 -2.69999999999999973 69.89066923630220174  -56.49241720298589087 -2.70000000000000018 87.09896957682155971  -123.13872688571493086 -2.70000000000000018 136.26199982505036701  -162.25876026545068953 -2.70000000000000018 166.34579659664584028  -181.46496913580247679 -2.70000000000000018 178.35756172839504075 
 0.00000000000000000 4 99.19324573780211551 1 176.87940924199375559 1 245.92384074805733007 4
1 55.38501323750210759 -2.70000000000000018 46.47354418033678769 0.64278760968653914 0.00000000000000000 -0.76604444311897835 0.76604444311897824 0.00000000000000000 0.64278760968653892 0.00000000000000000 -1.00000000000000000 0.00000000000000000 
6 -0.00000000000000000 -1.00000000000000000 -0.00000000000000000 
7 0 0  3 6 4  35.89999999999999858 -2.70000000000000018 72.79999999999999716  -0.67292809179005164 -2.69999999999999973 69.89066923630220174  -56.49241720298589087 -2.70000000000000018 87.09896957682155971  -123.13872688571493086 -2.70000000000000018 136.26199982505036701  -162.25876026545068953 -2.70000000000000018 166.34579659664584028  -181.46496913580247679 -2.70000000000000018 178.35756172839504075 
 0.00000000000000000 4 99.19324573780211551 1 176.87940924199375559 1 245.92384074805733007 4
6 -0.00000000000000000 -1.00000000000000000 -0.00000000000000000 
7 0 0  3 6 4  35.89999999999999858 -2.70000000000000018 72.79999999999999716  -0.67292809179005164 -2.69999999999999973 69.89066923630220174  -56.49241720298589087 -2.70000000000000018 87.09896957682155971  -123.13872688571493086 -2.70000000000000018 136.26199982505036701  -162.25876026545068953 -2.70000000000000018 166.34579659664584028  -181.46496913580247679 -2.70000000000000018 178.35756172839504075 
 0.00000000000000000 4 99.19324573780211551 1 176.87940924199375559 1 245.92384074805733007 4
2 0.00000000000000000 -30.00000000000000000 0.00000000000000000 0.00000000000000000 1.00000000000000000 0.00000000000000000 0.00000000000000000 -0.00000000000000000 1.00000000000000000 1.00000000000000000 0.00000000000000000 -0.00000000000000000 99.00000000000000000
2 0.00000000000000000 -30.00000000000000000 0.00000000000000000 0.00000000000000000 1.00000000000000000 0.00000000000000000 0.00000000000000000 -0.00000000000000000 1.00000000000000000 1.00000000000000000 0.00000000000000000 -0.00000000000000000 99.00000000000000000
1 -89.42671127096249961 -2.69999999999999973 87.99543001990018354 -0.00000000000000000 -1.00000000000000000 -0.00000000000000000 0.00000000000000000 0.00000000000000000 -1.00000000000000000 1.00000000000000000 -0.00000000000000000 0.00000000000000000 
1 -181.46496913580247679 -27.00000000000000000 159.35756172839504075 0.00000000000000000 1.00000000000000000 0.00000000000000000 0.00000000000000000 -0.00000000000000000 1.00000000000000000 1.00000000000000000 0.00000000000000000 -0.00000000000000000 
2 -181.46496913580247679 -28.00000000000000000 159.35756172839504075 0.00000000000000000 1.00000000000000000 0.00000000000000000 0.00000000000000000 -0.00000000000000000 1.00000000000000000 1.00000000000000000 0.00000000000000000 -0.00000000000000000 12.15000000000000036
1 -181.46496913580247679 -5.00000000000000000 159.35756172839504075 0.00000000000000000 1.00000000000000000 0.00000000000000000 0.00000000000000000 -0.00000000000000000 1.00000000000000000 1.00000000000000000 0.00000000000000000 -0.00000000000000000 
1 -89.42671127096249961 -2.69999999999999973 87.99543001990018354 -0.00000000000000000 -1.00000000000000000 -0.00000000000000000 0.00000000000000000 0.00000000000000000 -1.00000000000000000 1.00000000000000000 -0.00000000000000000 0.00000000000000000 
1 -19.89740404255134720 -18.69999999999999574 4.50601860245138131 -0.00000000000000000 -1.00000000000000000 -0.00000000000000000 0.00000000000000000 0.00000000000000000 -1.00000000000000000 1.00000000000000000 -0.00000000000000000 0.00000000000000000 
1 -19.89740404255134365 -13.29999999999999538 4.50601860245137775 0.00000000000000000 1.00000000000000000 0.00000000000000000 0.00000000000000000 -0.00000000000000000 1.00000000000000000 1.00000000000000000 0.00000000000000000 -0.00000000000000000 
Triangulations 0

TShapes 148
Ve
0.000000100000055
65.113777665113119 -18.699999999999999 -54.636946823355871
0 0

0101101
*
Ve
0.000000100000055
65.113777665113119 -13.300000000000001 -54.636946823355871
0 0

0101101
*
Ed
 0.000000100000007 1 1 0
1  1 0 0.000000000000000 5.400000000000000
2  1 2 0 0.000000000000000 5.400000000000000
0

0101000
+148 4 -147 4 *
Ve
0.000000100000055
55.385013237502093 -18.699999999999999 -46.473544180336809
0 0

0101101
*
Ve
0.000000100000055
55.385013237502093 -13.300000000000001 -46.473544180336809
0 0

0101101
*
Ed
 0.000000100000007 1 1 0
1  2 0 0.000000000000000 5.400000000000000
2  2 3 5 0.000000000000000 5.400000000000000
0

0101000
+145 4 -144 4 *
Ed
 0.000000100000055 1 1 0
1  3 0 0.000000000000000 12.700000000000006
0

0101000
+148 4 -145 4 *
Ed
 0.000000100000055 1 1 0
1  4 0 0.000000000000000 12.700000000000006
0

0101000
+147 7 -144 7 *
Wi

0101100
+146 0 -143 0 -142 0 +141 6 *
Fa
0  0.000000100000000 1 0

0111000
+140 0 *
Ve
0.000005000001000
-84.483491329868684 -18.699999999999999 9.356264891290923
0 0

0101101
*
Ed
 0.000000100000055 1 1 0
1  5 0 2.333163747895785 4.886921905584122
2  3 2 0 2.333163747895785 4.886921905584122
0

0101000
+138 4 -148 4 *
Ve
0.000005000001000
-84.483491329868684 -13.300000000000001 9.356264891290923
0 0

0101101
*
Ed
 0.000000100000055 1 1 0
1  6 0 2.333163747895785 4.886921905584122
2  4 2 8 2.333163747895785 4.886921905584122
0

0101000
+136 7 -147 7 *
Ed
 0.000005000000000 1 1 0
1  7 0 0.000000111111086 0.999999888888914
2  5 2 0 0.000000111111086 0.999999888888914
2  6 4 0 0.000000111111086 0.999999888888914
0

0101000
+136 4 -138 4 *
Wi

0101100
-137 0 -146 0 +135 6 -134 0 *
Fa
0  0.000000100000000 2 0

0111000
+133 0 *
Ve
0.000005000000018
-94.750074205733569 -18.699999999999999 28.695355687079029
0 0

0101101
*
Ed
 0.000000100000055 1 1 0
1  8 0 158.379135409637684 180.266779684107291
2  7 4 0 158.379135409637684 180.266779684107291
0

0101000
+131 4 -138 4 *
Ve
0.000005000000018
-94.750074205733569 -13.300000000000001 28.695355687079029
0 0

0101101
*
Ed
 0.000000100000055 1 1 0
1  9 0 158.379135409637684 180.266779684107291
2  8 4 10 158.379135409637684 180.266779684107291
0

0101000
+129 11 -136 11 *
Ed
 0.000005000000000 1 1 0
1  10 0 0.275000022499998 0.724999977500002
2  9 4 0 0.275000022499998 0.724999977500002
2  9 5 0 0.275000022499998 0.724999977500002
0

0101000
+129 4 -131 4 *
Wi

0101100
-130 0 +134 0 +128 9 -127 0 *
Fa
0  0.000000100000000 4 0

0111000
+126 0 *
Ve
0.000005000001000
-182.529358434771211 -18.699999999999999 133.379357875544827
0 0

0101101
*
Ed
 0.000000100000032 1 1 0
1  11 0 21.203504580070511 158.379135409637684
2  7 5 0 21.203504580070511 158.379135409637684
2  10 6 12 21.203504580070511 158.379135409637684
0

0101000
+124 4 -131 4 *
Ve
0.000005000001000
-182.529358434771211 -13.300000000000001 133.379357875544827
0 0

0101101
*
Ed
 0.000000100000032 1 1 0
1  12 0 21.203504580070511 158.379135409637684
2  8 5 10 21.203504580070511 158.379135409637684
2  11 7 14 21.203504580070511 158.379135409637684
0

0101000
+122 11 -129 11 *
Ed
 0.000005000000000 1 1 0
1  13 0 0.000000111111087 0.999999888888914
2  12 5 2 0.000000111111087 0.999999888888914
2  13 8 0 0.000000111111087 0.999999888888914
0

0101000
+122 15 -124 15 *
Wi

0101100
-123 2 +127 2 +121 13 -120 0 *
Fa
0  0.000000100000000 5 2

0111000
+119 0 *
Ve
0.000000100000055
65.113777665113133 -18.699999999999999 54.636946823355835
0 0

0101101
*
Ve
0.000005000001000
-27.400259269929414 -18.699999999999999 80.462573858537780
0 0

0101101
*
Ed
 0.000000100000055 1 1 0
1  14 0 0.000000000000000 1.200881911963995
2  3 9 0 0.000000000000000 1.200881911963995
0

0101000
+117 4 -116 4 *
Ve
0.000005000001000
-27.400259269929414 -13.299999999999999 80.462573858537780
0 0

0101101
*
Ed
 0.000005000000000 1 1 0
1  15 0 0.000000111111086 0.999999888888914
2  14 9 0 0.000000111111086 0.999999888888914
2  15 10 0 0.000000111111086 0.999999888888914
0

0101000
+114 4 -116 4 *
Ve
0.000000100000055
65.113777665113133 -13.300000000000001 54.636946823355835
0 0

0101101
*
Ed
 0.000000100000055 1 1 0
1  16 0 0.000000000000000 1.200881911963995
2  4 9 8 0.000000000000000 1.200881911963995
0

0101000
+112 7 -114 7 *
Ed
 0.000000100000000 1 1 0
1  17 0 0.000000000000000 5.400000000000000
2  16 9 0 0.000000000000000 5.400000000000000
0

0101000
+117 4 -112 4 *
Wi

0101100
-115 0 +113 0 +111 6 +110 0 *
Fa
0  0.000000100000000 9 0

0111000
+109 0 *
Ve
0.000005000000021
-46.011678472629953 -18.699999999999999 87.658002738662276
0 0

0101101
*
Ed
 0.000000100000055 1 1 0
1  18 0 62.230100875078712 82.486552478297185
2  17 10 0 62.230100875078712 82.486552478297185
0

0101000
+116 4 -107 4 *
Ve
0.000005000000021
-46.011678472629953 -13.299999999999999 87.658002738662276
0 0

0101101
*
Ed
 0.000005000000000 1 1 0
1  19 0 0.275000022499998 0.724999977500002
2  18 10 0 0.275000022499998 0.724999977500002
2  18 11 0 0.275000022499998 0.724999977500002
0

0101000
+105 4 -107 4 *
Ed
 0.000000100000055 1 1 0
1  20 0 62.230100875078712 82.486552478297185
2  19 10 10 62.230100875078712 82.486552478297185
0

0101000
+114 11 -105 11 *
Wi

0101100
-106 0 +104 0 +103 9 -113 0 *
Fa
0  0.000000100000000 10 0

0111000
+102 0 *
Ve
0.000000100000055
55.385013237502108 -18.699999999999999 46.473544180336788
0 0

0101101
*
Ve
0.000000100000055
55.385013237502108 -13.300000000000001 46.473544180336788
0 0

0101101
*
Ed
 0.000000100000007 1 1 0
1  21 0 0.000000000000000 5.400000000000000
2  20 3 5 0.000000000000000 5.400000000000000
0

0101000
+100 4 -99 4 *
Ed
 0.000000100000055 1 1 0
1  22 0 0.000000000000000 12.700000000000001
0

0101000
+100 4 -117 4 *
Ed
 0.000000100000055 1 1 0
1  23 0 0.000000000000000 12.700000000000001
0

0101000
+99 7 -112 7 *
Wi

0101100
+98 0 -110 0 -97 0 +96 6 *
Fa
0  0.000000100000000 12 0

0111000
+95 0 *
Ve
0.000005000001000
-155.501542195225682 -18.699999999999996 160.736133997568004
0 0

0101101
*
Ed
 0.000000100000040 1 1 0
1  24 0 82.486552478297185 214.318755225586898
2  17 11 0 82.486552478297185 214.318755225586898
2  21 13 12 82.486552478297185 214.318755225586898
0

0101000
+107 4 -93 4 *
Ve
0.000005000001000
-155.501542195225682 -13.300000000000001 160.736133997568004
0 0

0101101
*
Ed
 0.000005000000000 1 1 0
1  25 0 0.000000111111087 0.999999888888913
2  22 11 2 0.000000111111087 0.999999888888913
2  23 8 0 0.000000111111087 0.999999888888913
0

0101000
+91 15 -93 15 *
Ed
 0.000000100000040 1 1 0
1  26 0 82.486552478297185 214.318755225586898
2  19 11 10 82.486552478297185 214.318755225586898
2  24 14 14 82.486552478297185 214.318755225586898
0

0101000
+105 11 -91 11 *
Wi

0101100
-92 2 +90 0 +89 13 -104 2 *
Fa
0  0.000000100000000 11 2

0111000
+88 0 *
Ve
0.000005000000014
-46.011678472629931 -22.000000000000000 87.658002738662262
0 0

0101101
*
Ve
0.000005000000029
-155.501542195225682 -22.000000000000000 160.736133997568004
0 0

0101101
*
Ed
 0.000000100000000 1 1 0
1  27 0 82.486552478297156 214.318755225586898
2  25 13 0 82.486552478297156 214.318755225586898
0

0101000
+86 17 -85 17 *
Ed
 0.000005000000000 1 1 0
1  28 0 0.000000000000000 0.999999818181884
2  26 13 16 0.000000000000000 0.999999818181884
2  27 8 0 0.000000000000000 0.999999818181884
0

0101000
+93 15 -85 15 *
Ed
 0.000005000000000 1 1 0
1  29 0 0.724999977500002 0.999999950000005
2  28 13 12 0.724999977500002 0.999999950000005
2  29 15 0 0.724999977500002 0.999999950000005
0

0101000
+107 4 -86 4 *
Wi

0101100
-84 16 +83 0 +92 2 -82 2 *
Fa
0  0.000000100000000 13 16

0111000
+81 0 *
Ve
0.000005000000004
-94.750074205733583 -22.000000000000000 28.695355687079044
0 0

0101101
*
Ed
 0.000000100000000 1 1 0
1  30 0 5.006461257244357 5.799816765864601
2  30 15 0 5.006461257244357 5.799816765864601
0

0101000
+79 4 -86 4 *
Ed
 0.000005000000000 1 1 0
1  31 0 0.724999977500002 0.999999950000005
2  31 15 0 0.724999977500002 0.999999950000005
2  32 6 12 0.724999977500002 0.999999950000005
0

0101000
+131 4 -79 4 *
Ed
 0.000000100000055 1 1 0
1  32 0 5.006461257244354 5.799816765864601
2  33 15 0 5.006461257244354 5.799816765864601
0

0101000
+131 4 -107 4 *
Wi

0101100
-82 0 +78 0 +77 0 -76 0 *
Fa
0  0.000000100000000 15 0

0111000
+75 0 *
Ve
0.000000100000000
-181.464969135802505 -5.000000000000000 185.357561728395041
0 0

0101101
*
Ve
0.000000100000000
-181.464969135802505 -27.000000000000000 185.357561728395041
0 0

0101101
*
Ed
 0.000000100000000 1 1 0
1  33 0 0.000000000000000 22.000000000000000
3  34 35CN 8 0 0.000000000000000 22.000000000000000
0

0101000
-73 15 +72 15 *
Ed
 0.000000100000000 1 1 0
1  34 0 0.000000000000000 6.283185307179586
2  36 8 0 0.000000000000000 6.283185307179586
0

0101000
+72 15 -72 15 *
Ed
 0.000000100000000 1 1 0
1  35 0 0.000000000000000 6.283185307179586
2  37 8 0 0.000000000000000 6.283185307179586
0

0101000
+73 15 -73 15 *
Wi

0101100
+71 0 +70 0 -71 0 -69 0 *
Ve
0.000005000000029
-182.529358434771211 -22.000000000000000 133.379357875544883
0 0

0101101
*
Ed
 0.000000100000000 1 1 0
1  36 0 1.517749441199838 3.182542147025469
2  38 8 0 1.517749441199838 3.182542147025469
0

0101000
+85 15 -67 15 *
Ed
 0.000005000000000 1 1 0
1  37 0 0.000000000000000 0.999999818181884
2  39 8 0 0.000000000000000 0.999999818181884
2  40 6 16 0.000000000000000 0.999999818181884
0

0101000
+124 15 -67 15 *
Ve
0.000005000000028
-182.529358434771211 -10.000000000000000 133.379357875544883
0 0

0101101
*
Ed
 0.000005000000000 1 1 0
1  38 0 0.000000181818116 1.000000000000000
2  41 8 0 0.000000181818116 1.000000000000000
2  42 7 16 0.000000181818116 1.000000000000000
0

0101000
+64 15 -122 15 *
Ve
0.000005000000028
-155.501542195225682 -10.000000000000000 160.736133997568004
0 0

0101101
*
Ed
 0.000000100000000 1 1 0
1  39 0 1.517749441199838 3.182542147025469
2  43 8 0 1.517749441199838 3.182542147025469
0

0101000
+62 15 -64 15 *
Ed
 0.000005000000000 1 1 0
1  40 0 0.000000181818116 1.000000000000000
2  44 8 0 0.000000181818116 1.000000000000000
2  45 14 16 0.000000181818116 1.000000000000000
0

0101000
+62 15 -91 15 *
Wi

0101100
-90 0 -83 0 -66 0 +65 0 +120 0 +63 0 +61 0 -60 0 *
Fa
0  0.000000100000000 8 0

0111000
+68 0 +59 0 *
Ve
0.000005000000014
-46.011678472629931 -10.000000000000000 87.658002738662262
0 0

0101101
*
Ed
 0.000000100000000 1 1 0
1  41 0 82.486552478297156 214.318755225586898
2  46 14 20 82.486552478297156 214.318755225586898
0

0101000
+57 21 -62 21 *
Ed
 0.000005000000000 1 1 0
1  42 0 0.000000049999995 0.275000022499998
2  28 14 12 0.000000049999995 0.275000022499998
2  29 16 0 0.000000049999995 0.275000022499998
0

0101000
+57 4 -105 4 *
Wi

0101100
-89 13 +60 0 +56 19 -55 2 *
Fa
0  0.000000100000000 14 16

0111000
+54 0 *
Ed
 0.000000100000055 1 1 0
1  43 0 5.006461257244354 5.799816765864601
2  47 16 0 5.006461257244354 5.799816765864601
0

0101000
+129 4 -105 4 *
Ve
0.000005000000004
-94.750074205733583 -10.000000000000000 28.695355687079044
0 0

0101101
*
Ed
 0.000005000000000 1 1 0
1  44 0 0.000000049999995 0.275000022499998
2  31 16 0 0.000000049999995 0.275000022499998
2  32 7 12 0.000000049999995 0.275000022499998
0

0101000
+51 4 -129 4 *
Ed
 0.000000100000000 1 1 0
1  45 0 5.006461257244357 5.799816765864601
2  48 16 0 5.006461257244357 5.799816765864601
0

0101000
+51 4 -57 4 *
Wi

0101100
-55 0 +52 0 +50 0 -49 0 *
Fa
0  0.000000100000000 16 0

0111000
+48 0 *
Ed
 0.000000100000000 1 1 0
1  46 0 21.203504580070465 158.379135409637655
2  49 6 0 21.203504580070465 158.379135409637655
0

0101000
+67 17 -79 17 *
Wi

0101100
+46 16 +66 0 +84 16 +78 2 *
Fa
0  0.000000100000000 17 16

0111000
+45 0 *
Wi

0101100
-46 16 +77 2 +123 2 -65 0 *
Fa
0  0.000000100000000 6 16

0111000
+43 0 *
Wi

0101100
+70 0 *
Ve
0.000000100000000
-181.464969135802477 -27.000000000000000 171.507561728395046
0 0

0101101
*
Ed
 0.000000100000000 1 1 0
1  47 0 0.000000000000000 6.283185307179586
2  50 19 0 0.000000000000000 6.283185307179586
0

0101100
+40 15 -40 15 *
Wi

0101100
-39 0 *
Fa
0  0.000000100000000 18 0

0111000
+41 0 +38 0 *
Wi

0101100
+69 0 *
Ve
0.000000100000000
-181.464969135802477 -5.000000000000000 171.507561728395046
0 0

0101101
*
Ed
 0.000000100000000 1 1 0
1  48 0 0.000000000000000 6.283185307179586
2  51 19 0 0.000000000000000 6.283185307179586
0

0101100
+35 15 -35 15 *
Wi

0101100
-34 0 *
Fa
0  0.000000100000000 20 0

0111000
+36 0 +33 0 *
Ed
 0.000000100000000 1 1 0
1  49 0 21.203504580070465 158.379135409637655
2  52 7 20 21.203504580070465 158.379135409637655
0

0101000
+64 21 -51 21 *
Wi

0101100
-121 13 +50 2 +31 19 -63 0 *
Fa
0  0.000000100000000 7 16

0111000
+30 0 *
Wi

0101100
+31 19 +61 0 +56 19 +49 2 *
Fa
0  0.000000100000000 21 19

0111000
+28 0 *
Ed
 0.000000100000000 1 1 0
1  50 0 1.000000000000000 23.000000000000000
3  53 54CN 19 0 1.000000000000000 23.000000000000000
0

0101000
+40 15 -35 15 *
Wi

0101100
-34 0 +26 0 +39 0 -26 0 *
Fa
0  0.000000100000000 19 0

0111000
+25 0 *
Ve
0.000000100000649
-72.130842027490729 -18.699999999999999 4.942836069014025
0 0

0101101
*
Ed
 0.000000100000055 1 1 0
1  51 0 0.000000000000000 2.511879964477514
2  55 3 5 0.000000000000000 2.511879964477514
0

0101000
+145 4 -23 4 *
Ve
0.000000100000915
0.000000000000897 -18.699999999999999 72.299999999999997
0 0

0101101
*
Ed
 0.000000100000055 1 1 0
1  52 0 2.511879964477514 4.014257279586971
2  56 3 5 2.511879964477514 4.014257279586971
0

0101000
+23 4 -21 4 *
Ve
0.000000100004235
26.863653455661627 -18.699999999999999 67.124020462230320
0 0

0101101
*
Ed
 0.000000100000055 1 1 0
1  53 0 4.014257279586971 4.394944026085178
2  57 3 5 4.014257279586971 4.394944026085178
0

0101000
+21 4 -19 4 *
Ed
 0.000000100000055 1 1 0
1  54 0 4.394944026085178 4.886921905584122
2  58 3 5 4.394944026085178 4.886921905584122
0

0101000
+19 4 -100 4 *
Wi

0101100
+97 2 +115 2 +106 2 -76 2 +130 2 +137 2 +142 2 +22 2 +20 2 +18 2 
+17 2 *
Fa
0  0.000000100000055 22 0

0111000
+16 0 *
Ve
0.000000100004235
26.863653455661627 -13.300000000000001 67.124020462230320
0 0

0101101
*
Ed
 0.000000100000055 1 1 0
1  55 0 4.394944026085178 4.886921905584122
2  59 3 23 4.394944026085178 4.886921905584122
0

0101000
+14 7 -99 7 *
Ve
0.000000100000915
0.000000000000897 -13.299999999999999 72.299999999999997
0 0

0101101
*
Ed
 0.000000100000055 1 1 0
1  56 0 4.014257279586971 4.394944026085178
2  60 3 23 4.014257279586971 4.394944026085178
0

0101000
+12 7 -14 7 *
Ve
0.000000100000649
-72.130842027490729 -13.300000000000001 4.942836069014025
0 0

0101101
*
Ed
 0.000000100000055 1 1 0
1  57 0 2.511879964477514 4.014257279586971
2  61 3 23 2.511879964477514 4.014257279586971
0

0101000
+10 7 -12 7 *
Ed
 0.000000100000055 1 1 0
1  58 0 0.000000000000000 2.511879964477514
2  62 3 23 0.000000000000000 2.511879964477514
0

0101000
+144 7 -10 7 *
Wi

0101100
-96 22 -13 22 -11 22 -9 22 -8 22 -141 22 -135 22 -128 13 +52 2 -103 13 
-111 22 *
Fa
0  0.000000100000055 23 0

0111000
+7 0 *
Wi

0101100
+143 2 +8 22 +9 22 +11 22 +13 22 -98 2 -17 2 -18 2 -20 2 -22 2 
*
Fa
0  0.000000100000000 3 0

0111000
+5 0 *
Sh

0101100
+139 2 +132 2 +125 2 +118 0 +108 2 +101 2 +94 2 +87 0 +80 0 -74 2 
+58 0 +53 0 -47 2 +44 0 +42 0 -37 0 +32 0 +29 0 -27 0 -24 0 
+15 0 +6 0 +4 0 *
So

0100000
+3 0 *
Co

1100000
+2 0 *

+1 1 