
CASCADE Topology V1, (c) Matra-Datavision
Locations 7
1
1.000000000000000 0.000000000000000 0.000000000000000 0.000000000000000 
0.000000000000000 1.000000000000000 0.000000000000000 0.000000000000000 
0.000000000000000 0.000000000000000 1.000000000000000 0.000000000000000 
1
1.000000000000000 0.000000000000000 0.000000000000000 0.000000000000000 
0.000000000000000 1.000000000000000 0.000000000000000 0.000000000000000 
0.000000000000000 0.000000000000000 1.000000000000000 0.000000000000000 
2  2 -1 0
1
1.000000000000000 0.000000000000000 0.000000000000000 -2.106729597439334 
0.000000000000000 1.000000000000000 0.000000000000000 -0.000000000000001 
0.000000000000000 0.000000000000000 1.000000000000000 5.990341426268882 
2  2 -1 4 -1 0
1
1.000000000000000 0.000000000000000 0.000000000000000 0.000000000000000 
0.000000000000000 1.000000000000000 0.000000000000000 6.350000000000000 
0.000000000000000 0.000000000000000 1.000000000000000 0.000000000000000 
2  2 -1 6 -1 0
Curve2ds 40
1 0.00000000000000000 1.00000000000000200 1.00000000000000000 0.00000000000000000 
1 0.00000000000000000 1.00000000000000044 1.00000000000000000 0.00000000000000000 
1 0.00000000000000000 1.00000000000000466 1.00000000000000000 0.00000000000000000 
1 0.00000000000000000 1.00000000000000466 1.00000000000000000 0.00000000000000000 
1 0.00000000000000000 7.35000000000000320 1.00000000000000000 0.00000000000000000 
1 0.00000000000000000 7.35000000000000053 1.00000000000000000 0.00000000000000000 
1 0.00000000000000000 7.34999999999998632 1.00000000000000000 0.00000000000000000 
1 0.00000000000000000 7.34999999999998632 1.00000000000000000 0.00000000000000000 
1 6.28318530717958623 -0.00000000000000000 0.00000000000000000 1.00000000000000000 
1 0.00000000000000000 -0.00000000000000000 0.00000000000000000 1.00000000000000000 
1 6.28318530717958623 -0.00000000000000000 0.00000000000000000 1.00000000000000000 
1 0.00000000000000000 -0.00000000000000000 0.00000000000000000 1.00000000000000000 
1 6.28318530717958623 -0.00000000000000000 0.00000000000000000 1.00000000000000000 
1 0.00000000000000000 -0.00000000000000000 0.00000000000000000 1.00000000000000000 
1 6.28318530717958623 -0.00000000000000000 0.00000000000000000 1.00000000000000000 
1 0.00000000000000000 -0.00000000000000000 0.00000000000000000 1.00000000000000000 
1 4.30749719409960541 0.00000000000000000 0.00000000000000000 1.00000000000000000 
1 2.52143603199736965 0.00000000000000000 0.00000000000000000 1.00000000000000000 
1 0.00000000000000000 0.00000000000000000 1.00000000000000000 0.00000000000000000 
1 -6.28318530717958623 0.00000000000000000 1.00000000000000000 0.00000000000000000 
1 6.28318530717958623 0.00000000000000000 1.00000000000000000 0.00000000000000000 
1 0.00000000000000000 0.00000000000000000 1.00000000000000000 0.00000000000000000 
1 0.00000000000000000 0.99999999999994316 1.00000000000000000 0.00000000000000000 
1 0.00000000000000000 1.00000000000000000 1.00000000000000000 0.00000000000000000 
1 0.00000000000000000 0.99999999999994316 1.00000000000000000 0.00000000000000000 
1 0.00000000000000000 1.00000000000000000 1.00000000000000000 0.00000000000000000 
1 7.90313881548218244 0.00000000000000000 0.00000000000000000 1.00000000000000000 
1 -1.52163914528719513 0.00000000000000000 0.00000000000000000 1.00000000000000000 
1 0.00000000000000000 7.35000000000002274 1.00000000000000000 0.00000000000000000 
1 0.00000000000000000 7.34999999999996589 1.00000000000000000 0.00000000000000000 
1 6.28318530717958623 -0.00000000000000000 0.00000000000000000 1.00000000000000000 
1 0.00000000000000000 -0.00000000000000000 0.00000000000000000 1.00000000000000000 
1 0.00000000000000000 7.35000000000002274 1.00000000000000000 0.00000000000000000 
1 0.00000000000000000 7.34999999999996589 1.00000000000000000 0.00000000000000000 
1 6.28318530717958623 -0.00000000000000000 0.00000000000000000 1.00000000000000000 
1 0.00000000000000000 -0.00000000000000000 0.00000000000000000 1.00000000000000000 
1 0.00000000000000000 6.34999999999999964 1.00000000000000000 0.00000000000000000 
1 6.28318530717958623 6.34999999999999964 1.00000000000000000 0.00000000000000000 
1 -6.28318530717958623 6.34999999999999964 1.00000000000000000 0.00000000000000000 
1 0.00000000000000000 6.34999999999999964 1.00000000000000000 0.00000000000000000 
Curves 69
1 -70.00000000000000000 282.57499999999998863 -24.61814132564503765 0.94336085453053264 0.00000000000000000 0.33176844054162752 
1 -70.00000000000000000 343.92500000000001137 -24.61814132564503765 0.00000000000000000 -1.00000000000000000 0.00000000000000000 
1 381.53038412735025986 282.57499999999998863 134.17955594963925137 0.00000000000000000 1.00000000000000000 0.00000000000000000 
1 381.53038412735025986 343.92500000000001137 134.17955594963925137 -0.94336085453053264 0.00000000000000000 -0.33176844054162752 
2 -40.00000000000000000 316.42500000000001137 -14.06750932894002126 -0.33176844054162746 -0.00000000000000010 0.94336085453053264 0.94336085453053264 0.00000000000000000 0.33176844054162746 -0.00000000000000003 1.00000000000000000 0.00000000000000009 6.50000000000000000
2 -10.00000000000000178 316.42500000000001137 -3.51687733223500576 -0.33176844054162746 -0.00000000000000010 0.94336085453053264 0.94336085453053264 0.00000000000000000 0.33176844054162746 -0.00000000000000003 1.00000000000000000 0.00000000000000009 6.50000000000000000
2 326.53038412735025986 316.42500000000001137 114.83673062234672102 -0.33176844054162746 -0.00000000000000010 0.94336085453053264 0.94336085453053264 0.00000000000000000 0.33176844054162746 -0.00000000000000003 1.00000000000000000 0.00000000000000009 6.50000000000000000
2 356.53038412735025986 316.42500000000001137 125.38736261905172853 -0.33176844054162746 -0.00000000000000010 0.94336085453053264 0.94336085453053264 0.00000000000000000 0.33176844054162746 -0.00000000000000003 1.00000000000000000 0.00000000000000009 6.50000000000000000
1 381.53038412735025986 343.92500000000001137 134.17955594963925137 -0.33176844054162746 -0.00000000000000010 0.94336085453053264 
1 381.53038412735025986 282.57499999999998863 134.17955594963925137 0.00000000000000000 1.00000000000000000 0.00000000000000000 
1 354.55300661078706526 288.92499999999995453 210.88788259297666627 -0.33176844054162746 0.00000000000000000 0.94336085453053264 
1 379.51754773778372964 282.57499999999998863 139.90291846534998399 0.00000000000000000 -1.00000000000000000 0.00000000000000000 
1 381.53038412735025986 282.57499999999998863 134.17955594963925137 -0.33176844054162746 -0.00000000000000010 0.94336085453053264 
1 -70.00000000000000000 343.92500000000001137 -24.61814132564503765 0.00000000000000000 -1.00000000000000000 0.00000000000000000 
1 381.53038412735025986 343.92500000000001137 134.17955594963925137 -0.94336085453053264 0.00000000000000000 -0.33176844054162752 
1 -70.00000000000000000 282.57499999999998863 -24.61814132564503765 0.94336085453053264 0.00000000000000000 0.33176844054162752 
1 -70.00000000000001421 297.91249999999996589 -17.88688894273786900 0.00000000000000000 -1.00000000000000000 0.00000000000000000 
1 175.01815189402998385 288.92499999999995453 68.28298949548488395 0.94336085453053264 0.00000000000000000 0.33176844054162746 
2 -42.10672959743933319 316.42500000000001137 -8.07716790267113893 -0.33176844054162746 -0.00000000000000010 0.94336085453053264 0.94336085453053264 0.00000000000000000 0.33176844054162746 -0.00000000000000003 1.00000000000000000 0.00000000000000009 6.50000000000000000
2 -12.10672959743933497 316.42500000000001137 2.47346409403387568 -0.33176844054162746 -0.00000000000000010 0.94336085453053264 0.94336085453053264 0.00000000000000000 0.33176844054162746 -0.00000000000000003 1.00000000000000000 0.00000000000000009 6.50000000000000000
2 324.42365452991094799 316.42500000000001137 120.82707204861559092 -0.33176844054162746 -0.00000000000000010 0.94336085453053264 0.94336085453053264 0.00000000000000000 0.33176844054162746 -0.00000000000000003 1.00000000000000000 0.00000000000000009 6.50000000000000000
2 354.42365452991094799 316.42500000000001137 131.37770404532059842 -0.33176844054162746 -0.00000000000000010 0.94336085453053264 0.94336085453053264 0.00000000000000000 0.33176844054162746 -0.00000000000000003 1.00000000000000000 0.00000000000000009 6.50000000000000000
1 -70.00000000000000000 343.92500000000001137 -24.61814132564503765 -0.33176844054162746 -0.00000000000000010 0.94336085453053264 
1 -70.00000000000000000 282.57499999999998863 -24.61814132564503765 -0.33176844054162746 -0.00000000000000010 0.94336085453053264 
1 -33.53638600500990918 316.42500000000001137 -12.85437531994997684 -0.33176844054162746 -0.00000000000000010 0.94336085453053264 
1 -3.53638600500991052 316.42500000000001137 -2.30374332324496001 -0.33176844054162746 -0.00000000000000010 0.94336085453053264 
1 332.99399812234037199 316.42500000000001137 116.04986463133676011 -0.33176844054162746 -0.00000000000000010 0.94336085453053264 
1 362.99399812234037199 316.42500000000001137 126.60049662804176762 -0.33176844054162746 -0.00000000000000010 0.94336085453053264 
1 -70.00000000000000000 282.57499999999998863 -18.18688894273785905 0.94336085453053264 0.00000000000000000 0.33176844054162746 
1 381.53038412735025986 282.57499999999998863 140.61080833254641220 0.00000000000000000 1.00000000000000000 0.00000000000000000 
1 -70.00000000000000000 282.57499999999998863 -18.18688894273785905 0.94336085453053264 0.00000000000000000 0.33176844054162746 
1 -70.00000000000000000 282.57499999999998863 367.58816609972677725 0.00000000000000000 0.00000000000000000 -1.00000000000000000 
1 -70.00000000000000000 282.57499999999998863 367.58816609972677725 0.00000000000000000 0.00000000000000000 -1.00000000000000000 
1 -70.00000000000000000 282.57499999999998863 367.58816609972677725 0.00000000000000000 1.00000000000000000 0.00000000000000000 
1 -35.00000000000000000 282.57499999999998863 392.58816609972677725 0.00000000000000000 1.00000000000000000 0.00000000000000000 
1 -35.00000000000000000 282.57499999999998863 392.58816609972677725 -0.81373347120673500 0.00000000000000000 -0.58123819371909646 
1 -35.00000000000000000 282.57499999999998863 392.58816609972677725 -0.81373347120673500 0.00000000000000000 -0.58123819371909646 
1 0.00000000000000000 282.57499999999998863 407.58816609972677725 -0.91914503001805792 0.00000000000000000 -0.39391929857916769 
1 0.00000000000000000 282.57499999999998863 407.58816609972677725 -0.91914503001805792 0.00000000000000000 -0.39391929857916769 
1 -22.05948072043339181 282.57499999999998863 398.13410293382673899 0.00000000000000000 1.00000000000000000 0.00000000000000000 
1 381.53038412735025986 282.57499999999998863 140.61080833254641220 0.19043451468726147 0.00000000000000000 0.98169990099613813 
1 424.54642548220692788 282.57499999999998863 362.36075533484461175 0.00000000000000000 1.00000000000000000 0.00000000000000000 
1 381.53038412735025986 282.57499999999998863 140.61080833254641220 0.19043451468726147 0.00000000000000000 0.98169990099613813 
2 406.53038412735025986 282.57499999999998863 387.58816609972677725 0.00000000000000000 1.00000000000000000 0.00000000000000000 0.00000000000000000 0.00000000000000000 1.00000000000000000 1.00000000000000000 0.00000000000000000 0.00000000000000000 31.00000000000000000
2 406.53038412735025986 282.57499999999998863 387.58816609972677725 0.00000000000000000 1.00000000000000000 0.00000000000000000 0.00000000000000000 0.00000000000000000 1.00000000000000000 1.00000000000000000 0.00000000000000000 0.00000000000000000 31.00000000000000000
1 406.53038412735025986 282.57499999999998863 387.58816609972677725 -0.99879202903045772 0.00000000000000000 0.04913738643050970 
2 0.00000000000000000 282.57499999999998863 407.58816609972677725 0.00000000000000000 1.00000000000000000 0.00000000000000000 0.00000000000000000 0.00000000000000000 1.00000000000000000 1.00000000000000000 0.00000000000000000 0.00000000000000000 24.00000000000000000
2 0.00000000000000000 282.57499999999998863 407.58816609972677725 0.00000000000000000 1.00000000000000000 0.00000000000000000 0.00000000000000000 0.00000000000000000 1.00000000000000000 1.00000000000000000 0.00000000000000000 0.00000000000000000 24.00000000000000000
2 406.53038412735025986 282.57499999999993179 387.58816609972677725 0.00000000000000000 1.00000000000000000 0.00000000000000000 0.00000000000000000 0.00000000000000000 1.00000000000000000 1.00000000000000000 0.00000000000000000 0.00000000000000000 14.15000000000000036
2 406.53038412735025986 282.57499999999998863 387.58816609972677725 0.00000000000000000 1.00000000000000000 0.00000000000000000 0.00000000000000000 0.00000000000000000 1.00000000000000000 1.00000000000000000 0.00000000000000000 0.00000000000000000 14.15000000000000036
2 406.53038412735025986 282.57499999999998863 387.58816609972677725 0.00000000000000000 1.00000000000000000 0.00000000000000000 0.00000000000000000 0.00000000000000000 1.00000000000000000 1.00000000000000000 0.00000000000000000 0.00000000000000000 14.15000000000000036
2 0.00000000000000000 282.57499999999993179 407.58816609972677725 0.00000000000000000 1.00000000000000000 0.00000000000000000 0.00000000000000000 0.00000000000000000 1.00000000000000000 1.00000000000000000 0.00000000000000000 0.00000000000000000 12.15000000000000036
2 0.00000000000000000 282.57499999999998863 407.58816609972677725 0.00000000000000000 1.00000000000000000 0.00000000000000000 0.00000000000000000 0.00000000000000000 1.00000000000000000 1.00000000000000000 0.00000000000000000 0.00000000000000000 12.15000000000000036
2 0.00000000000000000 282.57499999999998863 407.58816609972677725 0.00000000000000000 1.00000000000000000 0.00000000000000000 0.00000000000000000 0.00000000000000000 1.00000000000000000 1.00000000000000000 0.00000000000000000 0.00000000000000000 12.15000000000000036
1 23.97100869673098344 282.57499999999998863 406.40886882539456337 0.00000000000000000 1.00000000000000000 0.00000000000000000 
1 406.53038412735025986 282.57499999999998863 387.58816609972677725 -0.99879202903045772 0.00000000000000000 0.04913738643050970 
1 375.56783122740608860 282.57499999999998863 389.11142507907260324 0.00000000000000000 1.00000000000000000 0.00000000000000000 
2 406.53038412735025986 288.92500000000001137 387.58816609972677725 0.00000000000000000 1.00000000000000000 0.00000000000000000 0.00000000000000000 0.00000000000000000 1.00000000000000000 1.00000000000000000 0.00000000000000000 0.00000000000000000 14.15000000000000036
2 406.53038412735025986 288.92499999999995453 387.58816609972677725 0.00000000000000000 1.00000000000000000 0.00000000000000000 0.00000000000000000 0.00000000000000000 1.00000000000000000 1.00000000000000000 0.00000000000000000 0.00000000000000000 14.15000000000000036
2 406.53038412735025986 288.92500000000001137 387.58816609972677725 0.00000000000000000 1.00000000000000000 0.00000000000000000 0.00000000000000000 0.00000000000000000 1.00000000000000000 1.00000000000000000 0.00000000000000000 0.00000000000000000 14.15000000000000036
1 406.53038412735025986 281.57499999999998863 401.73816609972675451 0.00000000000000000 1.00000000000000000 0.00000000000000000 
2 0.00000000000000000 288.92500000000001137 407.58816609972677725 0.00000000000000000 1.00000000000000000 0.00000000000000000 0.00000000000000000 0.00000000000000000 1.00000000000000000 1.00000000000000000 0.00000000000000000 0.00000000000000000 12.15000000000000036
2 0.00000000000000000 288.92499999999995453 407.58816609972677725 0.00000000000000000 1.00000000000000000 0.00000000000000000 0.00000000000000000 0.00000000000000000 1.00000000000000000 1.00000000000000000 0.00000000000000000 0.00000000000000000 12.15000000000000036
2 0.00000000000000000 288.92500000000001137 407.58816609972677725 0.00000000000000000 1.00000000000000000 0.00000000000000000 0.00000000000000000 0.00000000000000000 1.00000000000000000 1.00000000000000000 0.00000000000000000 0.00000000000000000 12.15000000000000036
1 -0.00000000000000298 281.57499999999998863 419.73816609972675451 0.00000000000000000 1.00000000000000000 0.00000000000000000 
2 0.00000000000000000 288.92500000000001137 407.58816609972677725 0.00000000000000000 1.00000000000000000 0.00000000000000000 0.00000000000000000 0.00000000000000000 1.00000000000000000 1.00000000000000000 0.00000000000000000 0.00000000000000000 24.00000000000000000
2 0.00000000000000000 288.92500000000001137 407.58816609972677725 0.00000000000000000 1.00000000000000000 0.00000000000000000 0.00000000000000000 0.00000000000000000 1.00000000000000000 1.00000000000000000 0.00000000000000000 0.00000000000000000 24.00000000000000000
2 406.53038412735025986 288.92500000000001137 387.58816609972677725 0.00000000000000000 1.00000000000000000 0.00000000000000000 0.00000000000000000 0.00000000000000000 1.00000000000000000 1.00000000000000000 0.00000000000000000 0.00000000000000000 31.00000000000000000
2 406.53038412735025986 288.92500000000001137 387.58816609972677725 0.00000000000000000 1.00000000000000000 0.00000000000000000 0.00000000000000000 0.00000000000000000 1.00000000000000000 1.00000000000000000 0.00000000000000000 0.00000000000000000 31.00000000000000000
Polygon3D 0
PolygonOnTriangulations 0
Surfaces 21
1 155.76519206367512993 313.24999999999994316 54.78070731199710508 -0.33176844054162746 0.00000000000000000 0.94336085453053264 0.94336085453053264 0.00000000000000000 0.33176844054162746 0.00000000000000000 1.00000000000000000 0.00000000000000000 
2 -39.66823155945836987 316.42500000000001137 -15.01087018347055491 -0.33176844054162746 -0.00000000000000010 0.94336085453053264 0.94336085453053264 0.00000000000000000 0.33176844054162746 -0.00000000000000003 1.00000000000000000 0.00000000000000009 6.50000000000000000
2 -9.66823155945837343 316.42500000000001137 -4.46023818676553852 -0.33176844054162746 -0.00000000000000010 0.94336085453053264 0.94336085453053264 0.00000000000000000 0.33176844054162746 -0.00000000000000003 1.00000000000000000 0.00000000000000009 6.50000000000000000
2 326.86215256789188288 316.42500000000001137 113.89336976781618205 -0.33176844054162746 -0.00000000000000010 0.94336085453053264 0.94336085453053264 0.00000000000000000 0.33176844054162746 -0.00000000000000003 1.00000000000000000 0.00000000000000009 6.50000000000000000
2 356.86215256789188288 316.42500000000001137 124.44400176452118956 -0.33176844054162746 -0.00000000000000010 0.94336085453053264 0.94336085453053264 0.00000000000000000 0.33176844054162746 -0.00000000000000003 1.00000000000000000 0.00000000000000009 6.50000000000000000
1 381.53038412735025986 282.57499999999998863 134.17955594963925137 -0.94336085453053264 0.00000000000000000 -0.33176844054162746 0.00000000000000000 1.00000000000000000 0.00000000000000000 0.33176844054162746 0.00000000000000000 -0.94336085453053264 
1 155.76519206367512993 313.24999999999994316 54.78070731199710508 -0.33176844054162746 0.00000000000000000 0.94336085453053264 0.94336085453053264 0.00000000000000000 0.33176844054162746 0.00000000000000000 1.00000000000000000 0.00000000000000000 
1 -70.00000000000000000 343.92500000000001137 -24.61814132564503765 0.94336085453053264 0.00000000000000000 0.33176844054162746 0.00000000000000000 -1.00000000000000000 0.00000000000000000 0.33176844054162746 0.00000000000000000 -0.94336085453053264 
1 381.53038412735025986 343.92500000000001137 134.17955594963925137 0.00000000000000003 -1.00000000000000000 -0.00000000000000009 -0.94336085453053264 0.00000000000000000 -0.33176844054162752 0.33176844054162752 0.00000000000000010 -0.94336085453053264 
1 -70.00000000000000000 282.57499999999998863 -18.18688894273785905 0.33176844054162746 0.00000000000000000 -0.94336085453053264 0.94336085453053264 0.00000000000000000 0.33176844054162746 0.00000000000000000 -1.00000000000000000 0.00000000000000000 
1 -70.00000000000000000 282.57499999999998863 367.58816609972677725 -1.00000000000000000 0.00000000000000000 0.00000000000000000 0.00000000000000000 0.00000000000000000 -1.00000000000000000 -0.00000000000000000 -1.00000000000000000 -0.00000000000000000 
1 -35.00000000000000000 282.57499999999998863 392.58816609972677725 -0.58123819371909646 0.00000000000000000 0.81373347120673500 -0.81373347120673500 0.00000000000000000 -0.58123819371909646 0.00000000000000000 -1.00000000000000000 0.00000000000000000 
1 0.00000000000000000 282.57499999999998863 407.58816609972677725 -0.39391929857916769 0.00000000000000000 0.91914503001805792 -0.91914503001805792 0.00000000000000000 -0.39391929857916769 0.00000000000000000 -1.00000000000000000 0.00000000000000000 
2 0.00000000000000000 282.57499999999998863 407.58816609972677725 0.00000000000000000 1.00000000000000000 0.00000000000000000 0.00000000000000000 0.00000000000000000 1.00000000000000000 1.00000000000000000 0.00000000000000000 0.00000000000000000 24.00000000000000000
1 381.53038412735025986 282.57499999999998863 140.61080833254641220 0.98169990099613813 0.00000000000000000 -0.19043451468726147 0.19043451468726147 0.00000000000000000 0.98169990099613813 0.00000000000000000 -1.00000000000000000 0.00000000000000000 
2 406.53038412735025986 282.57499999999998863 387.58816609972677725 0.00000000000000000 1.00000000000000000 0.00000000000000000 0.00000000000000000 0.00000000000000000 1.00000000000000000 1.00000000000000000 0.00000000000000000 0.00000000000000000 31.00000000000000000
1 150.36177882979649212 282.57499999999981810 230.90285101257239830 -0.00000000000000000 -1.00000000000000000 -0.00000000000000000 0.00000000000000000 0.00000000000000000 -1.00000000000000000 1.00000000000000000 0.00000000000000000 0.00000000000000000 
2 406.53038412735025986 281.57499999999998863 387.58816609972677725 0.00000000000000000 1.00000000000000000 0.00000000000000000 0.00000000000000000 0.00000000000000000 1.00000000000000000 1.00000000000000000 0.00000000000000000 0.00000000000000000 14.15000000000000036
2 0.00000000000000000 281.57499999999998863 407.58816609972677725 0.00000000000000000 1.00000000000000000 0.00000000000000000 0.00000000000000000 0.00000000000000000 1.00000000000000000 1.00000000000000000 0.00000000000000000 0.00000000000000000 12.15000000000000036
1 406.53038412735025986 282.57499999999998863 387.58816609972677725 0.04913738643050970 0.00000000000000000 0.99879202903045772 -0.99879202903045772 0.00000000000000000 0.04913738643050970 0.00000000000000000 -1.00000000000000000 0.00000000000000000 
1 150.39400519894059016 288.92500000000018190 234.49277985111373823 0.00000000000000000 1.00000000000000000 0.00000000000000000 0.00000000000000000 0.00000000000000000 1.00000000000000000 1.00000000000000000 0.00000000000000000 0.00000000000000000 
Triangulations 0

TShapes 176
Ve
0.000000100000000
-70.000000000000000 282.574999999999989 -24.618141325645038
0 0

0101101
*
Ve
0.000000100000000
381.530384127350260 282.574999999999989 134.179555949639251
0 0

0101101
*
Ed
 0.000000100000000 1 1 0
1  1 0 0.000000000000000 478.640153403499255
0

0101000
+176 3 -175 3 *
Ve
0.000000100000000
-70.000000000000000 343.925000000000011 -24.618141325645038
0 0

0101101
*
Ed
 0.000000100000000 1 1 0
1  2 0 0.000000000000000 61.350000000000023
0

0101000
+173 3 -176 3 *
Ve
0.000000100000000
381.530384127350260 343.925000000000011 134.179555949639251
0 0

0101101
*
Ed
 0.000000100000000 1 1 0
1  3 0 0.000000000000000 61.350000000000023
0

0101000
+175 3 -171 3 *
Ed
 0.000000100000000 1 1 0
1  4 0 0.000000000000000 478.640153403499255
0

0101000
+171 3 -173 3 *
Wi

0101100
+174 0 +172 0 +170 0 +169 0 *
Ve
0.000000100000002
-33.868154445551539 316.425000000000011 -11.911014465419443
0 0

0101101
*
Ed
 0.000000100000000 1 1 0
1  5 0 0.000000000000000 6.283185307179586
2  1 2 0 0.000000000000000 6.283185307179586
0

0101100
+167 3 -167 3 *
Wi

0101100
-166 0 *
Ve
0.000000100000001
-3.868154445551538 316.425000000000011 -1.360382468714427
0 0

0101101
*
Ed
 0.000000100000000 1 1 0
1  6 0 0.000000000000000 6.283185307179586
2  2 3 0 0.000000000000000 6.283185307179586
0

0101100
+164 3 -164 3 *
Wi

0101100
-163 0 *
Ve
0.000000100000000
332.662229681798749 316.425000000000011 116.993225485867299
0 0

0101101
*
Ed
 0.000000100000000 1 1 0
1  7 0 0.000000000000000 6.283185307179586
2  3 4 0 0.000000000000000 6.283185307179586
0

0101100
+161 3 -161 3 *
Wi

0101100
-160 0 *
Ve
0.000000100000014
362.662229681798749 316.425000000000011 127.543857482572321
0 0

0101101
*
Ed
 0.000000100000000 1 1 0
1  8 0 0.000000000000000 6.283185307179586
2  4 5 0 0.000000000000000 6.283185307179586
0

0101100
+158 3 -158 3 *
Wi

0101100
-157 0 *
Fa
0  0.000000100000000 1 0

0101000
+168 0 +165 0 +162 0 +159 0 +156 0 *
Ve
0.000000100000000
379.423654529910948 343.925000000000011 140.169897375908135
0 0

0101101
*
Ed
 0.000000100000000 1 1 0
1  9 0 0.000000000000000 6.350000000000001
0

0101000
+171 3 -154 3 *
Ve
0.000000150000028
379.423654529910948 288.924999999999955 140.169897375908135
0 0

0101101
*
Ed
 0.000000100000000 1 1 0
1  10 0 6.349999999999966 61.350000000000023
0

0101000
+152 5 -154 5 *
Ve
0.000000150000117
379.517547737783616 288.925000000000011 139.902918465349956
0 0

0101101
*
Ed
 0.000000150000000 1 1 0
1  11 0 -75.246883296798103 -74.963875040438950
0

0101000
+150 3 -152 3 *
Ve
0.000000150000117
379.517547737783616 282.574999999999989 139.902918465349956
0 0

0101101
*
Ed
 0.000000150000000 1 1 0
1  12 0 -6.350000000000023 0.000000000000000
0

0101000
+150 3 -148 3 *
Ed
 0.000000100000000 1 1 0
1  13 0 0.000000000000000 6.066991743640834
0

0101000
+175 3 -148 3 *
Wi

0101100
-170 0 -153 0 +151 4 +149 0 -147 0 +146 0 *
Fa
0  0.000000100000000 6 0

0101000
+145 0 *
Ve
0.000000100000000
-72.106729597439340 343.925000000000011 -18.627799899376157
0 0

0101101
*
Ve
0.000000100000000
-72.106729597439340 282.574999999999989 -18.627799899376157
0 0

0101101
*
Ed
 0.000000100000000 1 1 0
1  14 0 0.000000000000000 61.350000000000023
0

0101000
+143 5 -142 5 *
Ed
 0.000000100000000 1 1 0
1  15 0 0.000000000000000 478.640153403499255
0

0101000
+154 5 -143 5 *
Ve
0.000000150000028
-70.000000000000014 282.574999999999989 -17.886888942737897
0 0

0101101
*
Ed
 0.000000100000000 1 1 0
1  16 0 0.000000000000000 2.233217105969208
0

0101000
+142 5 -139 5 *
Ve
0.000000150000107
-70.000000000000000 288.925000000000011 -17.886888942737812
0 0

0101101
*
Ed
 0.000000150000000 1 1 0
1  17 0 8.987499999999955 15.337499999999977
0

0101000
+137 3 -139 3 *
Ed
 0.000000150000000 1 1 0
1  18 0 -259.728979337354758 216.677956960175322
0

0101000
+137 3 -152 3 *
Wi

0101100
+141 4 +140 4 +138 4 +151 4 -136 0 +135 0 *
Ve
0.000000100000002
-35.974884042990873 316.425000000000011 -5.920673039150561
0 0

0101101
*
Ed
 0.000000100000000 1 1 0
1  19 0 0.000000000000000 6.283185307179586
2  5 2 0 0.000000000000000 6.283185307179586
0

0101100
+133 3 -133 3 *
Wi

0101100
-132 0 *
Ve
0.000000100000002
-5.974884042990873 316.425000000000011 4.629958957554456
0 0

0101101
*
Ed
 0.000000100000000 1 1 0
1  20 0 0.000000000000000 6.283185307179586
2  6 3 0 0.000000000000000 6.283185307179586
0

0101100
+130 3 -130 3 *
Wi

0101100
-129 0 *
Ve
0.000000100000059
330.555500084359380 316.425000000000011 122.983566912136183
0 0

0101101
*
Ed
 0.000000100000000 1 1 0
1  21 0 0.000000000000000 6.283185307179586
2  7 4 0 0.000000000000000 6.283185307179586
0

0101100
+127 3 -127 3 *
Wi

0101100
-126 0 *
Ve
0.000000100000057
360.555500084359380 316.425000000000011 133.534198908841176
0 0

0101101
*
Ed
 0.000000100000000 1 1 0
1  22 0 0.000000000000000 6.283185307179586
2  8 5 0 0.000000000000000 6.283185307179586
0

0101100
+124 3 -124 3 *
Wi

0101100
-123 0 *
Fa
0  0.000000100000000 7 4

0101000
+134 0 +131 0 +128 0 +125 0 +122 0 *
Ed
 0.000000100000000 1 1 0
1  23 0 0.000000000000000 6.350000000000001
0

0101000
+173 3 -143 3 *
Ed
 0.000000100000000 1 1 0
1  24 0 0.000000000000000 6.350000000000001
0

0101000
+176 3 -142 3 *
Wi

0101100
+120 0 -119 0 -172 0 +141 4 *
Fa
0  0.000000100000000 8 0

0101000
+118 0 *
Wi

0101100
+153 0 -120 0 -169 0 +140 4 *
Fa
0  0.000000100000000 9 0

0101000
+116 0 *
Ed
 0.000000100000000 1 1 0
1  25 0 1.000000000000002 7.350000000000003
3  9 10CN 2 0 1.000000000000002 7.350000000000003
0

0101000
+167 3 -133 3 *
Wi

0101100
-132 0 +114 0 +166 0 -114 0 *
Fa
0  0.000000100000000 2 0

0101000
+113 0 *
Ed
 0.000000100000000 1 1 0
1  26 0 1.000000000000001 7.350000000000003
3  11 12CN 3 0 1.000000000000001 7.350000000000003
0

0101000
+164 3 -130 3 *
Wi

0101100
-129 0 +111 0 +163 0 -111 0 *
Fa
0  0.000000100000000 3 0

0101000
+110 0 *
Ed
 0.000000100000000 1 1 0
1  27 0 1.000000000000005 7.350000000000019
3  13 14CN 4 0 1.000000000000005 7.350000000000019
0

0101000
+161 3 -127 3 *
Wi

0101100
-126 0 +108 0 +160 0 -108 0 *
Fa
0  0.000000100000000 4 0

0101000
+107 0 *
Ed
 0.000000100000000 1 1 0
1  28 0 1.000000000000018 7.350000000000005
3  15 16CN 5 0 1.000000000000018 7.350000000000005
0

0101000
+158 3 -124 3 *
Wi

0101100
-123 0 +105 0 +157 0 -105 0 *
Fa
0  0.000000100000000 5 0

0101000
+104 0 *
Ve
0.000000150000000
381.530384127350260 282.574999999999989 140.610808332546412
0 0

0101101
*
Ed
 0.000000100000000 1 1 0
1  29 0 476.506466829692499 478.640153403499255
0

0101000
+148 3 -102 3 *
Ve
0.000000150000000
381.530384127350260 288.925000000000011 140.610808332546412
0 0

0101101
*
Ed
 0.000000100000000 1 1 0
1  30 0 0.000000000000000 6.350000000000000
0

0101000
+102 3 -100 3 *
Ed
 0.000000150000000 1 1 0
1  31 0 476.506466829692499 478.640153403499255
0

0101000
+150 7 -100 7 *
Wi

0101100
-101 0 -99 0 +98 6 -147 0 *
Fa
0  0.000000100000000 10 0

0101000
+97 0 *
Ve
0.000000150000000
-70.000000000000000 282.574999999999989 367.588166099726777
0 0

0101101
*
Ed
 0.000000100000000 1 1 0
1  32 0 0.000000000000000 385.475055042464646
0

0101000
+95 3 -139 3 *
Ve
0.000000150000000
-70.000000000000000 288.925000000000011 367.588166099726777
0 0

0101101
*
Ed
 0.000000150000000 1 1 0
1  33 0 0.000000000000000 385.475055042464589
0

0101000
+93 7 -137 7 *
Ed
 0.000000100000000 1 1 0
1  34 0 0.000000000000000 6.350000000000000
0

0101000
+95 3 -93 3 *
Wi

0101100
-94 0 +136 0 +92 6 +91 0 *
Fa
0  0.000000100000000 11 0

0101000
+90 0 *
Ve
0.000000150000000
-35.000000000000000 282.574999999999989 392.588166099726777
0 0

0101101
*
Ve
0.000000150000000
-35.000000000000000 288.925000000000011 392.588166099726777
0 0

0101101
*
Ed
 0.000000100000000 1 1 0
1  35 0 0.000000000000000 6.350000000000000
0

0101000
+88 3 -87 3 *
Ed
 0.000000150000000 1 1 0
1  36 0 0.000000000000000 43.011626335213137
0

0101000
+88 3 -95 3 *
Ed
 0.000000150000000 1 1 0
1  37 0 0.000000000000000 43.011626335213137
0

0101000
+87 7 -93 7 *
Wi

0101100
+86 0 -91 0 -85 0 +84 6 *
Fa
0  0.000000100000000 12 0

0101000
+83 0 *
Ve
0.000000100000747
-22.059480720433697 282.574999999999989 398.134102933827421
0 0

0101101
*
Ed
 0.000000100000000 1 1 0
1  38 0 24.000000000000014 38.078865529319543
0

0101000
+81 3 -88 3 *
Ve
0.000000150000000
-22.059480720433697 288.925000000000011 398.134102933827421
0 0

0101101
*
Ed
 0.000000150000000 1 1 0
1  39 0 24.000000000000014 38.078865529319543
0

0101000
+79 7 -87 7 *
Ed
 0.000000100000000 1 1 0
1  40 0 0.000000000000000 6.350000000000023
2  17 14 0 0.000000000000000 6.350000000000023
0

0101000
+81 3 -79 3 *
Wi

0101100
-80 0 -86 0 +78 6 +77 0 *
Fa
0  0.000000100000000 13 0

0101000
+76 0 *
Ve
0.000000100000773
424.546425482206473 282.574999999999989 362.360755334843986
0 0

0101101
*
Ed
 0.000000100000000 1 1 0
1  41 0 0.000000000000000 225.883639977233599
0

0101000
+102 3 -74 3 *
Ve
0.000000150000000
424.546425482206473 288.925000000000011 362.360755334843986
0 0

0101101
*
Ed
 0.000000100000000 1 1 0
1  42 0 0.000000000000000 6.350000000000023
2  18 16 0 0.000000000000000 6.350000000000023
0

0101000
+74 3 -72 3 *
Ed
 0.000000150000000 1 1 0
1  43 0 0.000000000000000 225.883639977233599
0

0101000
+100 7 -72 7 *
Wi

0101100
-73 0 -71 0 +70 6 +99 0 *
Fa
0  0.000000100000000 15 0

0101000
+69 0 *
Ve
0.000000100000000
406.530384127350260 282.574999999999989 418.588166099726777
0 0

0101101
*
Ed
 0.000000100000000 1 1 0
1  44 0 0.000000000000000 2.521436031997393
2  19 16 0 0.000000000000000 2.521436031997393
0

0101000
+67 3 -74 3 *
Ve
0.000000100000180
375.567831227406032 282.574999999999989 389.111425079072433
0 0

0101101
*
Ed
 0.000000100000000 1 1 0
1  45 0 4.761546161892385 6.283185307179586
2  20 16 0 4.761546161892385 6.283185307179586
0

0101000
+65 3 -67 3 *
Ve
0.000000100000097
23.971008696730998 282.574999999999989 406.408868825394507
0 0

0101101
*
Ed
 0.000000100000000 1 1 0
1  46 0 31.000000000000028 383.022054953697705
0

0101000
+65 3 -63 3 *
Ve
0.000000100000000
-0.000000000000006 282.574999999999989 431.588166099726777
0 0

0101101
*
Ed
 0.000000100000000 1 1 0
1  47 0 0.000000000000000 1.619953508302599
2  21 14 0 0.000000000000000 1.619953508302599
0

0101000
+61 3 -63 3 *
Ed
 0.000000100000000 1 1 0
1  48 0 4.307497194099636 6.283185307179586
2  22 14 0 4.307497194099636 6.283185307179586
0

0101000
+81 3 -61 3 *
Wi

0101100
+174 0 +146 0 +101 0 +73 0 -66 0 -64 0 +62 0 -60 0 -59 0 +80 0 
+85 0 +94 0 -138 4 -119 0 *
Ve
0.000000100001138
417.850384127351163 282.574999999999989 379.098166099726086
0 0

0101101
*
Ve
0.000000100002959
392.397476916572259 282.574999999999989 388.283460117718334
0 0

0101101
*
Ed
 0.000000100000000 1 1 0
1  49 0 2.214297435588182 4.761546161892389
2  23 18 0 2.214297435588182 4.761546161892389
0

0101000
+57 3 -56 3 *
Ve
0.000000100000000
406.530384127350260 282.574999999999989 401.738166099726755
0 0

0101101
*
Ed
 0.000000100000000 1 1 0
1  50 0 4.761546161892389 6.283185307179586
2  24 18 0 4.761546161892389 6.283185307179586
0

0101000
+56 3 -54 3 *
Ed
 0.000000100000000 1 1 0
1  51 0 0.000000000000000 2.214297435588182
2  24 18 0 0.000000000000000 2.214297435588182
0

0101000
+54 3 -57 3 *
Wi

0101100
+55 0 +53 0 +52 0 *
Ve
0.000000100001126
12.135323152721185 282.574999999999989 406.991146854596025
0 0

0101101
*
Ve
0.000000100000115
-11.167612114719317 282.574999999999989 402.802046621989916
0 0

0101101
*
Ed
 0.000000100000000 1 1 0
1  52 0 1.619953508302597 4.307497194099605
2  25 19 0 1.619953508302597 4.307497194099605
0

0101000
+50 3 -49 3 *
Ve
0.000000100000003
-0.000000000000003 282.574999999999989 419.738166099726755
0 0

0101101
*
Ed
 0.000000100000000 1 1 0
1  53 0 4.307497194099605 6.283185307179586
2  26 19 0 4.307497194099605 6.283185307179586
0

0101000
+49 3 -47 3 *
Ed
 0.000000100000000 1 1 0
1  54 0 0.000000000000000 1.619953508302597
2  26 19 0 0.000000000000000 1.619953508302597
0

0101000
+47 3 -50 3 *
Wi

0101100
+48 0 +46 0 +45 0 *
Fa
0  0.000000100000000 17 0

0111000
+58 0 +51 0 +44 0 *
Ve
0.000000150000000
23.971008696730998 288.925000000000011 406.408868825394507
0 0

0101101
*
Ed
 0.000000100000000 1 1 0
1  55 0 0.000000000000000 6.350000000000023
2  27 14 0 0.000000000000000 6.350000000000023
0

0101000
+63 3 -42 3 *
Ve
0.000000150000000
375.567831227406032 288.925000000000011 389.111425079072433
0 0

0101101
*
Ed
 0.000000150000000 1 1 0
1  56 0 31.000000000000028 383.022054953697705
0

0101000
+40 7 -42 7 *
Ed
 0.000000100000000 1 1 0
1  57 0 0.000000000000000 6.350000000000023
2  28 16 0 0.000000000000000 6.350000000000023
0

0101000
+65 3 -40 3 *
Wi

0101100
-62 0 -41 0 +39 6 +38 0 *
Fa
0  0.000000100000000 20 0

0101000
+37 0 *
Ve
0.000000100000000
406.530384127350260 288.925000000000011 401.738166099726755
0 0

0101101
*
Ve
0.000000100001138
417.850384127351163 288.925000000000011 379.098166099726086
0 0

0101101
*
Ed
 0.000000100000000 1 1 0
1  58 0 0.000000000000000 2.214297435588182
2  29 18 0 0.000000000000000 2.214297435588182
0

0101000
+35 3 -34 3 *
Ve
0.000000100002959
392.397476916572259 288.925000000000011 388.283460117718334
0 0

0101101
*
Ed
 0.000000100000000 1 1 0
1  59 0 2.214297435588182 4.761546161892389
2  30 18 0 2.214297435588182 4.761546161892389
0

0101000
+34 3 -32 3 *
Ed
 0.000000100000000 1 1 0
1  60 0 4.761546161892389 6.283185307179586
2  29 18 0 4.761546161892389 6.283185307179586
0

0101000
+32 3 -35 3 *
Ed
 0.000000100000000 1 1 0
1  61 0 1.000000000000000 7.350000000000023
3  31 32CN 18 0 1.000000000000000 7.350000000000023
0

0101000
+54 3 -35 3 *
Wi

0101100
-33 0 -31 0 -30 0 +29 0 +53 0 +55 0 +52 0 -29 0 *
Fa
0  0.000000100000000 18 0

0101000
+28 0 *
Ve
0.000000100000003
-0.000000000000003 288.925000000000011 419.738166099726755
0 0

0101101
*
Ve
0.000000100001126
12.135323152721185 288.925000000000011 406.991146854596025
0 0

0101101
*
Ed
 0.000000100000000 1 1 0
1  62 0 0.000000000000000 1.619953508302597
2  33 19 0 0.000000000000000 1.619953508302597
0

0101000
+26 3 -25 3 *
Ve
0.000000100000115
-11.167612114719317 288.925000000000011 402.802046621989916
0 0

0101101
*
Ed
 0.000000100000000 1 1 0
1  63 0 1.619953508302597 4.307497194099605
2  34 19 0 1.619953508302597 4.307497194099605
0

0101000
+25 3 -23 3 *
Ed
 0.000000100000000 1 1 0
1  64 0 4.307497194099605 6.283185307179586
2  33 19 0 4.307497194099605 6.283185307179586
0

0101000
+23 3 -26 3 *
Ed
 0.000000100000000 1 1 0
1  65 0 1.000000000000000 7.350000000000023
3  35 36CN 19 0 1.000000000000000 7.350000000000023
0

0101000
+47 3 -26 3 *
Wi

0101100
-24 0 -22 0 -21 0 +20 0 +46 0 +48 0 +45 0 -20 0 *
Fa
0  0.000000100000000 19 0

0101000
+19 0 *
Ve
0.000000150000000
-0.000000000000006 288.925000000000011 431.588166099726777
0 0

0101101
*
Ed
 0.000000150000000 1 1 0
1  66 0 4.307497194099636 6.283185307179586
2  37 14 0 4.307497194099636 6.283185307179586
0

0101000
+79 3 -17 3 *
Ed
 0.000000150000000 1 1 0
1  67 0 0.000000000000000 1.619953508302599
2  38 14 0 0.000000000000000 1.619953508302599
0

0101000
+17 3 -42 3 *
Ve
0.000000150000000
406.530384127350260 288.925000000000011 418.588166099726777
0 0

0101101
*
Ed
 0.000000150000000 1 1 0
1  68 0 4.761546161892385 6.283185307179586
2  39 16 0 4.761546161892385 6.283185307179586
0

0101000
+40 3 -14 3 *
Ed
 0.000000150000000 1 1 0
1  69 0 0.000000000000000 2.521436031997393
2  40 16 0 0.000000000000000 2.521436031997393
0

0101000
+14 3 -72 3 *
Wi

0101100
+149 0 -135 0 -92 6 -84 6 -78 6 +16 0 +15 0 -39 6 +13 0 +12 0 
-70 6 -98 6 *
Wi

0101100
-31 0 -33 0 -30 0 *
Wi

0101100
-22 0 -24 0 -21 0 *
Fa
0  0.000000150000000 21 0

0111000
+11 0 +10 0 +9 0 *
Wi

0101100
+60 0 +41 0 -15 0 -16 0 -77 0 +59 0 *
Fa
0  0.000000100000000 14 0

0111000
+7 0 *
Wi

0101100
+66 0 +71 0 -12 0 -13 0 -38 0 +64 0 *
Fa
0  0.000000100000000 16 0

0111000
+5 0 *
Sh

0101100
-155 0 -144 0 +121 0 -117 0 -115 0 -112 0 -109 0 -106 0 -103 0 +96 0 
+89 0 +82 0 +75 0 +68 0 +43 0 +36 0 -27 0 -18 0 +8 0 +6 0 
+4 0 *
So

0100000
+3 0 *
Co

1100000
+2 0 *

+1 1 