DBRep_DrawableShape

CASCADE Topology V1, (c) Matra-Datavision
Locations 2
1
              1               0               0               0 
              0               1               0               0 
              0               0               1               0 
2  1 -1 0
Curve2ds 6
1 0 9.5250000000000004 1 0 
2 0 0 1 0 -0 1 2.3812500000000001
1 6.2831853071795862 -0 0 1 
1 0 -0 0 1 
1 0 0 1 0 
2 0 0 1 0 -0 1 2.3812500000000001
Curves 3
2 9.5250000000000004 0 0 1 0 -0 0 0 1 0 -1 0 2.3812500000000001
1 0 5.7999999999999996e-16 2.3812500000000001 1 0 0 
2 0 0 0 1 0 -0 0 0 1 0 -1 0 2.3812500000000001
Polygon3D 0
PolygonOnTriangulations 0
Surfaces 3
2 0 0 0 1 0 0 0 0 1 0 -1 0 2.3812500000000001
1 9.5250000000000004 0 0 1 0 0 0 0 1 0 -1 0 
1 0 0 0 1 0 0 0 0 1 0 -1 0 
Triangulations 0

TShapes 13
Ve
1e-07
9.525 1e-15 2.38125
0 0

0101101
*
Ed
 1e-07 1 1 0
1  1 0 0 6.28318530717959
2  1 1 0 0 6.28318530717959
2  2 2 0 0 6.28318530717959
0

0101000
+13 2 -13 2 *
Ve
1e-07
0 1e-15 2.38125
0 0

0101101
*
Ed
 1e-07 1 1 0
1  2 0 0 9.525
3  3 4CN 1 0 0 9.525
0

0101000
-13 2 +11 2 *
Ed
 1e-07 1 1 0
1  3 0 0 6.28318530717959
2  5 1 0 0 6.28318530717959
2  6 3 0 0 6.28318530717959
0

0101000
+11 2 -11 2 *
Wi

0101100
-12 0 +10 0 +9 0 -10 0 *
Fa
0  1e-07 1 0

0111000
+8 0 *
Wi

0101100
+12 0 *
Fa
0  1e-07 2 0

0111000
+6 0 *
Wi

0101100
-9 0 *
Fa
0  1e-07 3 0

0111000
-4 0 *
Sh

0101100
+7 0 +5 0 -3 0 *
So

1100000
+2 0 *

+1 1 