DBRep_DrawableShape

CASCADE Topology V1, (c) Matra-Datavision
Locations 0
Curve2ds 111
7 0 0  7 8 2  0.016599166989193209 1.5450463204014209  0.014182366141463187 1.5392043184591198  0.011780828170344915 1.5333514754644191  0.0093944924925207559 1.5274879009800446  0.0070232996375927236 1.5216137014259707  0.0046671912480824697 1.5157289800794196  0.0023261100794312699 1.5098338370748592  0 1.503928369404 
 0.94089044820761536 8 1 8
1 0 -0 0 1 
1 0 4.1389114358025836e-13 1 0 
1 0 6.2831853071795862 1 0 
1 3.1415926535900001 3.141592653589413 -0 -1 
7 0 0  7 8 2  3.1249934866006321 1.5450463204015576  3.1274102874483529 1.5392043184592581  3.1298118254194613 1.5333514754645556  3.1321981610972802 1.527487900980173  3.1345693539522137 1.5216137014260811  3.13692546234175 1.5157289800795004  3.1392665435104607 1.5098338370748996  3.1415926535900001 1.503928369404 
 0.94089044820782286 8 1 8
7 0 0  4 5 2  3.1249930080800001 1.545045612307  3.1291027242539999 1.5515156378670001  3.133239198564 1.5579642217209999  3.1374024826209999 1.564391199953  3.1415926535900001 1.5707963153760001 
 0 5 1 5
7 0 0  4 5 2  4.6866382658959997 -5.9999999999999997e-07  4.6931082914570004 0.0049713754700400001  4.6995568859369996 0.009962217996074  4.705983831638 0.014971798883079999  4.7123889874499998 0.01999999658209 
 0 5 1 5
7 0 0  6 42 9  3.1415926535900001 4.7123889803020003  3.133920790331 4.662603045849  3.1260193156590002 4.6128511943269999  3.1179058616709998 4.5631268021100002  3.109604164371 4.5134220572629999  3.101144063679 4.4637279595440003  3.0820825260550002 4.3533602902209996  3.0714214178780002 4.2926874259729999  3.0606441781970002 4.2319965399050004  3.0498341638480002 4.1712673288159996  3.039093298609 4.110478733871  3.017881141762 3.9880929506720002  3.0074143145379999 3.926495263014  2.9972665212099998 3.864793896803  2.9875850419719998 3.8029707844440002  2.9785291611479998 3.74101411988  2.9584029360609998 3.5899101082649998  2.9481594203229999 3.5006065533189998  2.9399953822099998 3.4110270873349999  2.9343755395770001 3.3212189687599998  2.9315716007389998 3.231271304506  2.9315822730579999 3.0888972312549998  2.9325416661860002 3.036459533655  2.934457278435 2.984047288283  2.93729781517 2.9316823360150002  2.9410067606879999 2.8793826505390001  2.9524174162030001 2.7470416514920002  2.9611939317479998 2.6671080480380001  2.9715720777580001 2.5874058410749998  2.9831924434129999 2.5079389204839999  2.9957093996180002 2.4286871253940001  3.0220728549759999 2.2697217556089999  3.0359312375549998 2.190014488039  3.0500900929129999 2.110444120415  3.064286834836 2.0309629582980002  3.0783250098789998 1.9515249028320001  3.1007276934850001 1.8219021183540001  3.109277324237 1.771719481536  3.1176663155619999 1.72152625852  3.1258638061099999 1.6713131578010001  3.1338452973540001 1.6210721217849999  3.1415926535900001 1.570796326792 
 0 7 0.095732930042230005 5 0.212619171174 5 0.33074767145599998 5 0.50008262327599995 5 0.598810659641 5 0.75029132765399997 5 0.90332699233699998 5 1 7
7 0 0  6 42 9  1.5707963268459999 0.02000000002463  1.620582261352 0.029206034346600001  1.670334112865 0.038513621854460001  1.720058505063 0.0478874252557  1.7697632499060001 0.057289852084109999  1.8194573476360001 0.066681054699799999  1.9298250169590001 0.08742011875505  1.9904978812059999 0.098741678619579998  2.0511887672740001 0.109907240989  2.111917978363 0.120834669623  2.1727065733090001 0.13143707322199999  2.2950923565079999 0.15191882625600001  2.3566900441660001 0.16178903319900001  2.4183914103770001 0.17114160004199999  2.480214522736 0.17987830395099999  2.5421711873000001 0.18790130967999999  2.6932751989149999 0.20546527899600001  2.7825787538609998 0.21415806187799999  2.8721582198450002 0.22092558608900001  2.9619663384199999 0.22552675866499999  3.0519140026740001 0.22782346789899999  3.1942880759240002 0.22781472726999999  3.2467257735250001 0.227028908546  3.2991380188970001 0.225460221997  3.351502971165 0.223124486347  3.4038026566399999 0.220050891814  3.5361436556869998 0.21049242195699999  3.616077259141 0.20306219995300001  3.6957794661040002 0.19413078412400001  3.7752463866950001 0.183894366419  3.854498181786 0.17256133593199999  4.0134635515710002 0.147980789108  4.09317081914 0.134715235174  4.1727411867650002 0.120745485587  4.2522223488810003 0.106275761461  4.3316604043479998 0.091493385966010005  4.461283188825 0.06714305895863  4.5114658256429996 0.057659922364069999  4.5616590486590001 0.048164139580889997  4.6118721493789998 0.038696792186380002  4.6621131853950004 0.029296615783120001  4.7123889803869998 0.01999999999898 
 0 7 0.095732930042230005 5 0.212619171174 5 0.33074767145599998 5 0.50008262327599995 5 0.598810659641 5 0.75029132765399997 5 0.90332699233699998 5 1 7
7 0 0  4 5 2  3.1249930080800001 4.7381396948730004  3.1291027249910002 4.7316696681529997  3.1332391983150001 4.7252210726649997  3.1374024883930001 4.7187941254360002  3.1415926535900001 4.7123889689649996 
 0 5 1 5
7 0 0  4 5 2  1.5965470412830001 -5.9999999999999997e-07  1.5900770145630001 0.0049713763614070003  1.583628429702 0.0099622216369580005  1.5772014499389999 0.014971797715059999  1.570796333861 0.020000003418200001 
 0 5 1 5
7 0 0  8 9 2  3.1415926535900001 4.7792569377760001  3.1395558838234829 4.7740860397537235  3.1375083330598676 4.7689240661834207  3.1354499457322818 4.7637709992898802  3.1333806659318548 4.758626825808574  3.1313004374566695 4.7534915369011541  3.1292092038526595 4.7483651280886114  3.1271069084475718 4.7432475991997762  3.1249934943788582 4.7381389543332952 
 0 9 0.059072960566087164 9
1 3.1415926535900001 9.4247779607689992 -0 -1 
1 0 -0 0 1 
7 0 0  7 8 2  0.016599166989196796 4.7381389867781696  0.014182366141466871 4.7439809887204731  0.011780828170348593 4.7498338317151827  0.0093944924925242826 4.7556974061995794  0.007023299637595893 4.7615716057536943  0.0046671912480849972 4.7674563271003141  0.0023261100794327795 4.7733514701049833  0 4.7792569377760001 
 0.94089044820877643 8 1 8
7 0 0  4 5 2  0.016599645509760001 4.7381396948730004  0.0124899293354 4.7316696693119997  0.0083534550262779998 4.7252210854590002  0.0041901709690310004 4.7187941072259996  0 4.7123889918049997 
 0 5 1 5
7 0 0  4 5 2  1.545045612307 -5.9999999999999997e-07  1.5515156378670001 0.0049713754700030002  1.5579642323480001 0.0099622179959249994  1.5643911780469999 0.014971798883129999  1.570796333861 0.0199999965818 
 0 5 1 5
7 0 0  6 22 5  0.21001432086399999 3.1415926535900001  0.21001432086399999 3.193523467096  0.209077197017 3.2454554024240001  0.207202162237 3.2973627190410002  0.204419224939 3.349224156425  0.200782737603 3.4010221428129999  0.18952212049799999 3.5328521428099999  0.180804541894 3.6127757324209999  0.170476851111 3.6924684623870001  0.158897667366 3.7719257683120002  0.14641298235700001 3.851167305438  0.119921364595 4.0111764772529996  0.105885778899 4.0919328381659996  0.091538073909130005 4.1725479546750002  0.077151999293519999 4.2530714455669996  0.062931340848210005 4.3335512198790003  0.04044858991032 4.4637279595450003  0.031988489218400001 4.513422057264  0.023686791918979998 4.5631268021110003  0.01557333793027 4.6128511943279999  0.0076718632589149998 4.662603045849  0 4.7123889803020003 
 0 7 0.19555196607299999 5 0.49844711709099998 5 0.80853731599099998 5 1 7
7 0 0  6 22 5  0 0.22781795440300001  0.051930813506129998 0.22781795440300001  0.103862748834 0.227050378085  0.155770065451 0.225514935331  0.20763150283500001 0.22322679727299999  0.25942948922300002 0.220214031511  0.39125948921999998 0.21078557609099999  0.47118307883100002 0.203409609336  0.55087580879700004 0.194528111118  0.63033311472200004 0.18433657230200001  0.70957465184799995 0.17304314482700001  0.869583823664 0.14836707309899999  0.950340184576 0.13494161093500001  1.0309553010850001 0.12079026556  1.1114787919769999 0.106125635616  1.191958566289 0.091142418783810006  1.3221353059550001 0.066681054699620004  1.371829403684 0.05728985208397  1.4215341485270001 0.047887425255599997  1.4712585407250001 0.038513621854390001  1.5210103922380001 0.029206034346570001  1.5707963267439999 0.02000000002466 
 0 7 0.19555196607299999 5 0.49844711709099998 5 0.80853731599099998 5 1 7
7 0 0  6 22 5  0 1.5707963267909999  0.0077473562358629997 1.6210721217849999  0.015728847479680001 1.6713131578010001  0.023926338027500001 1.72152625852  0.032315329352540001 1.771719481536  0.040864960105229997 1.8219021183540001  0.06775856138519 1.9775095243230001  0.086521976532869999 2.0829253597780002  0.105476943778 2.188447185147  0.124135520789 2.2941831218619999  0.141765410767 2.400241725875  0.16530499770400001 2.5588254218939999  0.17260389541900001 2.6110449893040002  0.179370672102 2.6633625036440001  0.18550743327499999 2.7157787668490001  0.190921797019 2.7682886007560001  0.200214252186 2.874181185686  0.20407092422699999 2.9275674886259999  0.20702609648500001 2.9810229070799998  0.20901855594499999 3.0345285426680002  0.21001432086399999 3.088061241163  0.21001432086399999 3.1415926535900001 
 0 7 0.19334542019299999 5 0.59953038819600002 5 0.79842145251899999 5 1 7
7 0 0  6 22 5  4.7123889803830004 0.019999999998970001  4.7626647753739997 0.029296615783109999  4.8129058113900003 0.038696792186380002  4.86311891211 0.048164139580889997  4.9133121351269997 0.05765992236406  4.9634947719440001 0.067143058958619994  5.1191021779129997 0.096374734820109997  5.2245180133679998 0.115930335279  5.330039838737 0.13483664824700001  5.435775775452 0.15264568991999999  5.5418343794649996 0.168849337061  5.7004180754830003 0.189875927434  5.7526376428940003 0.19628629753999999  5.8049551572339997 0.20213867297400001  5.8573714204389997 0.20737732705600001  5.9098812543449997 0.21195182448899999  6.015773839275 0.219742868491  6.0691601422149999 0.222940398003  6.1226155606689998 0.22537076317900001  6.1761211962580003 0.22700233814500001  6.2296538947529996 0.22781795440300001  6.2831853071800001 0.22781795440300001 
 0 7 0.19334542019299999 5 0.59953038819600002 5 0.79842145251899999 5 1 7
7 0 0  4 5 2  0.016599645509760001 1.545045612307  0.012489928598609999 1.551515639027  0.0083534552751400003 1.5579642345139999  0.0041901651973160004 1.5643911817439999  0 1.570796338214 
 0 5 1 5
7 0 0  4 5 2  4.7381396948730004 -5.9999999999999997e-07  4.7316696681529997 0.0049713763613710004  4.7252210832910002 0.0099622216368080007  4.7187941035299996 0.014971797715109999  4.7123889874499998 0.02000000341792 
 0 5 1 5
1 0 0 1 0 
1 6.2831853071795862 0 0 1 
1 4.1389114358025836e-13 0 0 1 
1 0 1.0420791198799999 1 0 
7 0 0  5 6 2  4.7378686999495248 1.0020790847331886  4.7544470419947098 1.0100967392279163  4.7710253840398877 1.0181101619191941  4.7876037260850648 1.0261147582018291  4.8041820681302321 1.034105935874021  4.820760410175386 1.0420791198804515 
 4.7378685828496767 6 4.8207604101740671 6
7 0 0  5 6 2  4.7123889803849996 1.0220791198800001  4.7174850537879998 1.0180785670020001  4.722581127192 1.0140780141229999  4.7276772005960002 1.0100776776910001  4.7327732739990003 1.0060777741510001  4.7378693474029996 1.00207851988 
 1.570796326795 6 1.596276693813 6
7 0 0  5 6 2  1.570796326795 0.02  1.5657002533910001 0.01599944712148  1.5606041799879999 0.01199889424297  1.555508106584 0.0079985578107340007  1.55041203318 0.0039986542710599999  1.5453159597770001 -6.0000003366000001e-07 
 1.570796326795 6 1.596276693813 6
7 0 0  6 7 2  3.1415926535900001 0.83716690054200005  3.403392041389 0.83716690054200005  3.6651914291879999 0.85237211804799995  3.9269908169869998 0.88280515592599995  4.1887902047859997 0.92526300599800004  4.4505895925859997 0.97366921406100004  4.7123889803849996 1.0220791198800001 
 3.1415926535900001 7 4.7123889803849996 7
7 0 0  6 7 2  -8.9000000000000007e-16 0.204912219339  0.26179938779900003 0.204912219339  0.52359877559800005 0.18970700183200001  0.78539816339699997 0.15927396395400001  1.047197551197 0.116816113882  1.3089969389959999 0.068409905819450001  1.570796326795 0.02 
 3.1415926535900001 7 4.7123889803849996 7
7 0 0  6 7 2  1.570796326795 1.0220791198800001  1.8325957145939999 0.97366921406100004  2.0943951023929999 0.92526300599800004  2.3561944901919998 0.88280515592599995  2.6179938779919998 0.85237211804799995  2.8797932657910001 0.83716690054200005  3.1415926535900001 0.83716690054200005 
 1.570796326795 7 3.1415926535900001 7
7 0 0  6 7 2  4.7123889803849996 0.02  4.9741883681839996 0.068409905819450001  5.2359877559830004 0.116816113882  5.4977871437820003 0.15927396395400001  5.7595865315810002 0.18970700183200001  6.0213859193800001 0.204912219339  6.2831853071800001 0.204912219339 
 1.570796326795 7 3.1415926535900001 7
7 0 0  5 6 2  1.5453159597770001 1.00207851988  1.55041203318 1.0060777741510001  1.555508106584 1.0100776776910001  1.5606041799879999 1.0140780141229999  1.5657002533910001 1.0180785670020001  1.570796326795 1.0220791198800001 
 4.6869086133659996 6 4.7123889803849996 6
7 0 0  5 6 2  4.7378693474029996 -6.0000003366000001e-07  4.7327732739990003 0.0039986542710599999  4.7276772005960002 0.0079985578107329997  4.722581127192 0.01199889424297  4.7174850537879998 0.01599944712148  4.7123889803849996 0.02 
 4.6869086133659996 6 4.7123889803849996 6
7 0 0  5 6 2  1.4624248970044511 1.0420791198805284  1.4790032390496148 1.0341059358740956  1.4955815810947786 1.026114758201901  1.512159923139943 1.0181101619192636  1.5287382651851089 1.0100967392279834  1.5453166072302769 1.0020790847332532 
 1.4624248970055194 6 1.54531672432991 6
1 0 1.0420791198799999 1 0 
1 0 0 1 0 
1 0 0 1 0 
1 6.2831853071795862 0 0 1 
1 4.1389114358025836e-13 0 0 1 
7 0 0  6 7 2  4.7123889803849996 1.0220791198800001  4.9741883681839996 0.97366921406100004  5.2359877559830004 0.92526300599800004  5.4977871437820003 0.88280515592599995  5.7595865315810002 0.85237211804799995  6.0213859193800001 0.83716690054200005  6.2831853071800001 0.83716690054200005 
 1.570796326795 7 3.1415926535900001 7
7 0 0  6 7 2  1.570796326795 0.02  1.8325957145939999 0.068409905819450001  2.0943951023929999 0.116816113882  2.3561944901919998 0.15927396395400001  2.6179938779910001 0.18970700183200001  2.8797932657910001 0.204912219339  3.1415926535900001 0.204912219339 
 1.570796326795 7 3.1415926535900001 7
7 0 0  5 6 2  4.6869086133659996 1.00207851988  4.6920046867699998 1.0060777741510001  4.697100760174 1.0100776776910001  4.7021968335770001 1.0140780141229999  4.7072929069810003 1.0180785670020001  4.7123889803849996 1.0220791198800001 
 4.6869086133659996 6 4.7123889803849996 6
7 0 0  5 6 2  1.596276693813 -6.0000003366000001e-07  1.5911806204100001 0.0039986542710599999  1.5860845470060001 0.0079985578107329997  1.5809884736019999 0.01199889424297  1.575892400199 0.01599944712148  1.570796326795 0.02 
 4.6869086133659996 6 4.7123889803849996 6
7 0 0  5 6 2  4.6040175505937571 1.0420791198803812  4.6205958926389847 1.0341059358739624  4.6371742346842035 1.026114758201782  4.6537525767294143 1.0181101619191586  4.670330918774618 1.0100967392278926  4.6869092608198155 1.0020790847331766 
 1.4624248970055194 6 1.54531672432991 6
1 0 1.0420791198799999 1 0 
7 0 0  5 6 2  1.5962760463596442 1.0020790847332148  1.6128543884048121 1.010096739227945  1.6294327304499778 1.0181101619192254  1.6460110724951418 1.0261147582018628  1.6625894145403062 1.0341059358740572  1.6791677565854695 1.0420791198804902 
 4.7378685828496767 6 4.8207604101740671 6
7 0 0  5 6 2  1.570796326795 1.0220791198800001  1.575892400199 1.0180785670020001  1.5809884736019999 1.0140780141229999  1.5860845470060001 1.0100776776910001  1.5911806204100001 1.0060777741510001  1.596276693813 1.00207851988 
 1.570796326795 6 1.596276693813 6
7 0 0  5 6 2  4.7123889803849996 0.02  4.7072929069810003 0.01599944712148  4.7021968335770001 0.01199889424297  4.697100760174 0.0079985578107340007  4.6920046867699998 0.0039986542710599999  4.6869086133659996 -6.0000003366000001e-07 
 1.570796326795 6 1.596276693813 6
7 0 0  6 7 2  -8.9000000000000007e-16 0.83716690054200005  0.26179938779900003 0.83716690054200005  0.52359877559800005 0.85237211804799995  0.78539816339699997 0.88280515592599995  1.047197551197 0.92526300599800004  1.3089969389959999 0.97366921406100004  1.570796326795 1.0220791198800001 
 3.1415926535900001 7 4.7123889803849996 7
7 0 0  6 7 2  3.1415926535900001 0.204912219339  3.403392041389 0.204912219339  3.6651914291879999 0.18970700183200001  3.9269908169869998 0.15927396395400001  4.1887902047859997 0.116816113882  4.4505895925859997 0.068409905819450001  4.7123889803849996 0.02 
 3.1415926535900001 7 4.7123889803849996 7
1 0 0 1 0 
7 0 0  5 6 2  4.6040142866640004 -6.0000000078999997e-07  4.6256892254080002 0.003983847155175  4.647364164152 0.0079800397363959993  4.6690391028959999 0.01198407794513  4.6907140416409998 0.015992038972790001  4.7123889803849996 0.02 
 1.4624216330740001 6 1.570796326795 6
7 0 0  5 6 2  1.4624216330740001 1.04207971988  1.4840965718179999 1.0380952727249999  1.505771510562 1.034099080144  1.5274464493069999 1.0300950419349999  1.549121388051 1.026087080907  1.570796326795 1.0220791198800001 
 1.4624216330740001 6 1.570796326795 6
1 6.2831853071795862 0 0 1 
1 4.1389114358025836e-13 0 0 1 
1 0 9.5 1 0 
1 0 3.1415926535900001 -0 -1 
7 0 0  5 6 2  1.596276693813 0.040000599999999997  1.591180620409 0.036001345728909999  1.5860845470060001 0.032001442189239997  1.5809884736019999 0.028001105757020001  1.575892400199 0.024000552878509999  1.570796326795 0.02 
 1.5453159597770001 6 1.570796326795 6
7 0 0  5 6 2  4.6869086133659996 1.04207971988  4.6920046867699998 1.0380804656089999  4.697100760174 1.03408056207  4.7021968335770001 1.0300802256370001  4.7072929069810003 1.026079672759  4.7123889803849996 1.0220791198800001 
 1.5453159597770001 6 1.570796326795 6
7 0 0  5 6 2  1.5962760463584953 0.040000035147287574  1.6128543884037252 0.031982380652530513  1.6294327304489531 0.023968957961226885  1.6460110724941794 0.015964361678569679  1.6625894145394051 0.0079731840063590725  1.6791677565846306 -8.6539966610482336e-14 
 1.5962759292596125 6 1.6791677565842451 6
1 0 0 1 0 
7 0 0  5 6 2  4.6040175505945937 2.1433446449394079e-14  4.6205958926398836 0.0079731840064530633  4.6371742346851645 0.015964361678649595  4.6537525767304366 0.023968957961292642  4.6703309187757025 0.031982380652582063  4.6869092608209622 0.040000035147324878 
 4.6040175505953407 6 4.6869093779199735 6
7 0 0  5 6 2  4.7123889803849996 0.02  4.7072929069810003 0.024000552878509999  4.7021968335770001 0.028001105757020001  4.697100760174 0.032001442189250003  4.6920046867699998 0.036001345728909999  4.6869086133659996 0.040000599999999997 
 4.7123889803849996 6 4.7378693474029996 6
7 0 0  5 6 2  1.570796326795 1.0220791198800001  1.575892400199 1.026079672759  1.5809884736019999 1.0300802256370001  1.5860845470060001 1.03408056207  1.591180620409 1.0380804656089999  1.596276693813 1.04207971988 
 4.7123889803849996 6 4.7378693474029996 6
7 0 0  5 6 2  1.570796326795 0.02  1.5924712655390001 0.015992038972790001  1.6141462042829999 0.01198407794514  1.635821143027 0.0079800397363950001  1.6574960817719999 0.003983847155175  1.679171020516 -6.0000000078999997e-07 
 4.7123889803849996 6 4.8207636741049997 6
7 0 0  5 6 2  4.7123889803849996 1.0220791198800001  4.7340639191290004 1.026087080907  4.7557388578730002 1.0300950419349999  4.7774137966170001 1.034099080144  4.7990887353609999 1.0380952727249999  4.8207636741049997 1.04207971988 
 4.7123889803849996 6 4.8207636741049997 6
1 0 0 1 0 
1 0 0 1 0 
1 6.2831853071795862 0 0 1 
1 4.1389114358025836e-13 0 0 1 
1 0 9.5 1 0 
1 0 6.2831853071800001 -0 -1 
1 0 9.5 1 0 
1 0 0 -0 -1 
1 0 0 1 0 
7 0 0  5 6 2  1.4624248970052887 -1.2551274785112039e-13  1.4790032390505143 0.0079731840063200343  1.4955815810957398 0.015964361678530596  1.5121599231409661 0.023968957961187764  1.5287382651861938 0.031982380652491378  1.5453166072314235 0.040000035147248425 
 4.6040175505953407 6 4.6869093779199735 6
7 0 0  5 6 2  1.570796326795 0.02  1.5657002533910001 0.024000552878509999  1.5606041799879999 0.028001105757020001  1.555508106584 0.032001442189250003  1.55041203318 0.036001345728909999  1.5453159597770001 0.040000599999999997 
 4.7123889803849996 6 4.7378693474029996 6
7 0 0  5 6 2  4.7123889803849996 1.0220791198800001  4.7174850537879998 1.026079672759  4.722581127192 1.0300802256370001  4.7276772005960002 1.03408056207  4.7327732739990003 1.0380804656089999  4.7378693474029996 1.04207971988 
 4.7123889803849996 6 4.7378693474029996 6
7 0 0  5 6 2  4.7378693474029996 0.040000599999999997  4.7327732739990003 0.036001345728909999  4.7276772005960002 0.032001442189239997  4.722581127192 0.028001105757020001  4.7174850537879998 0.024000552878509999  4.7123889803849996 0.02 
 1.5453159597770001 6 1.570796326795 6
7 0 0  5 6 2  1.5453159597770001 1.04207971988  1.55041203318 1.0380804656089999  1.555508106584 1.03408056207  1.5606041799879999 1.0300802256370001  1.5657002533910001 1.026079672759  1.570796326795 1.0220791198800001 
 1.5453159597770001 6 1.570796326795 6
7 0 0  5 6 2  4.7378686999483746 0.040000035147313547  4.7544470419936218 0.031982380652559012  4.7710253840388646 0.023968957961257899  4.7876037260840985 0.015964361678603194  4.8041820681293306 0.0079731840063950645  4.8207604101745511 -4.8095537337877867e-14 
 1.5962759292596125 6 1.6791677565842451 6
1 0 0 1 0 
7 0 0  5 6 2  4.7123889803849996 0.02  4.7340639191290004 0.015992038972790001  4.7557388578730002 0.01198407794514  4.7774137966170001 0.0079800397363950001  4.7990887353609999 0.003983847155175  4.8207636741049997 -6.0000000078999997e-07 
 4.7123889803849996 6 4.8207636741049997 6
7 0 0  5 6 2  1.570796326795 1.0220791198800001  1.5924712655390001 1.026087080907  1.6141462042829999 1.0300950419349999  1.635821143027 1.034099080144  1.6574960817719999 1.0380952727249999  1.679171020516 1.04207971988 
 4.7123889803849996 6 4.8207636741049997 6
1 0 0 1 0 
7 0 0  5 6 2  1.4624216330740001 -6.0000000078999997e-07  1.4840965718179999 0.003983847155175  1.505771510562 0.0079800397363959993  1.5274464493069999 0.01198407794513  1.549121388051 0.015992038972790001  1.570796326795 0.02 
 1.4624216330740001 6 1.570796326795 6
7 0 0  5 6 2  4.6040142866640004 1.04207971988  4.6256892254080002 1.0380952727249999  4.647364164152 1.034099080144  4.6690391028959999 1.0300950419349999  4.6907140416409998 1.026087080907  4.7123889803849996 1.0220791198800001 
 1.4624216330740001 6 1.570796326795 6
1 0 1.0420791198799999 1 0 
1 0 1.0420791198799999 1 0 
1 0 -3.1415926535900001 1 0 
1 0 3.1415926535900001 1 0 
1 0.61086523819799998 -6.2831853071795862 0 1 
1 9.4247779607693793 0 -1 -0 
1 0 1.0420791198799999 1 0 
1 0 1.0420791198799999 1 0 
1 0 -3.1415926535895871 1 0 
1 0 3.1415926535895862 1 0 
1 0.61086523819799998 -6.2831853071795862 0 1 
1 6.2831853071795862 0 -1 -0 
1 6.2831853071800001 0 -1 -0 
1 0.61086523819799998 0 0 1 
1 0 2.7723943332609999 1 0 
1 6.2831853071800001 -0 0 1 
1 0 -0 0 1 
1 6.2831853071795862 0 0 1 
1 4.1389114358025836e-13 0 0 1 
1 0 2.7723943332609999 1 0 
Curves 77
7 0 0  7 14 3  0.32678523311800001 -5.7215581859890001 0.93283646501700002  0.33615004201999998 -5.6783556775259996 0.96686066983999996  0.34589998448300002 -5.6368438642319996 0.999553364971  0.35518564564100003 -5.5964666793519999 1.031352481676  0.36344385301299997 -5.5570466429729999 1.062397794544  0.37025951077899999 -5.5184660835789998 1.0927819759649999  0.37533338742700001 -5.4806597295120003 1.12255643074  0.379532871464 -5.4298600233869996 1.1625638207660001  0.38039092844299999 -5.4162643480100003 1.173271116712  0.38096129716999999 -5.4027776834630004 1.1838925610040001  0.381232209263 -5.3894030901069998 1.1944257434509999  0.38119309689000003 -5.3761448055810002 1.2048673266909999  0.380834592769 -5.3630082448099996 1.215213046193  0.38014853016799999 -5.3499999999999996 1.2254577102540001 
 0 8 0.73025822044099997 6 1 8
2 0 -5.3499999999999996 1.2 0 1 -2.4e-16 0 2.4e-16 1 1 -0 0 0.38100000000000001
2 -8.9999999999999996e-17 -5.3499999999999996 0 1 0 -0 0 0 1 0 -1 0 1.581
2 0 -5.3499999999999996 -1.2 0 1 0 0 -0 1 1 0 -0 0.38100000000000001
7 0 0  7 14 3  0.32678523311800001 -5.7215581859890001 -0.93283646501700002  0.33615004201999998 -5.6783556775259996 -0.96686066983999996  0.34589998448300002 -5.6368438642319996 -0.999553364971  0.35518564564100003 -5.5964666793519999 -1.031352481676  0.36344385301299997 -5.5570466429729999 -1.062397794544  0.37025951077899999 -5.5184660835789998 -1.0927819759649999  0.37533338742700001 -5.4806597295120003 -1.12255643074  0.379532871464 -5.4298600233869996 -1.1625638207660001  0.38039092844299999 -5.4162643480090003 -1.173271116712  0.38096129716999999 -5.4027776834630004 -1.1838925610040001  0.381232209263 -5.3894030901069998 -1.1944257434509999  0.38119309689000003 -5.3761448055810002 -1.2048673266909999  0.380834592769 -5.3630082448099996 -1.215213046193  0.38014853016799999 -5.3499999999999996 -1.2254577102540001 
 0 8 0.73025822044199995 6 1 8
7 0 0  4 5 2  0.380873686564 -5.3700814938379997 -1.209643261309  0.380937157114 -5.3650692993569997 -1.207261867565  0.38097915891299999 -5.3600514140330002 -1.204860940051  0.38099999999099998 -5.3550282051759996 -1.202440353306  0.38100000000000001 -5.3499999999999996 -1.200000004351 
 0 5 1 5
7 0 0  6 42 9  -0.38100000000000001 -5.3499999999999996 -1.1999999999690001  -0.38100006953600002 -5.3592059491470003 -1.1810316122369999  -0.37986668328399997 -5.3683391054999996 -1.1619912870069999  -0.37760317444899999 -5.3773563549260004 -1.1429579592129999  -0.37421972418499999 -5.3862174689540003 -1.1240111617549999  -0.36973336158499998 -5.3948851047810003 -1.105231025503  -0.35737282601199999 -5.4136293563260001 -1.064070505955  -0.34896906329100003 -5.4235941608699996 -1.041811658623  -0.33899969482199999 -5.4331569582060002 -1.0200679796650001  -0.32752190792699998 -5.4422628857820001 -0.99898722620000002  -0.314606371888 -5.4508649261429998 -0.978717029578  -0.28591507317800002 -5.467069436659 -0.939884214622  -0.27011068043300002 -5.4746601487840003 -0.92134249368999999  -0.253009533806 -5.4816563513279997 -0.90392787631600002  -0.23471245148 -5.488025894952 -0.88779070818399997  -0.21533570912899999 -5.4937437528409996 -0.87307523227399997  -0.16587795979 -5.5060265063839999 -0.84104500793500003  -0.134793996212 -5.5118851229569996 -0.82536612766299999  -0.102158394702 -5.5163079206210002 -0.81326866274499998  -0.068438603934529996 -5.5192663279199996 -0.80508199841799999  -0.034167564852299999 -5.5207436751900003 -0.80099506329500003  0.020076955239260001 -5.5207380534780004 -0.80101061650399996  0.040055412102199997 -5.5202325835700004 -0.80240895740999996  0.059924891300950002 -5.5192237910550004 -0.80520019195600001  0.079578366540810005 -5.5177133871840001 -0.80936283701599998  0.098913185763600003 -5.5157050068210003 -0.81485687414499997  0.14686306996599999 -5.5093679095599999 -0.83201450306000002  0.17491697514400001 -5.5043727630649997 -0.84540626063900004  0.20165176863699999 -5.4982401247170003 -0.86160469961999997  0.22676763057900001 -5.4910020030810003 -0.88033488172200003  0.25001248769200002 -5.4827077802169999 -0.90129266056099999  0.29255607635000003 -5.4640501008279996 -0.94727476783200004  0.31181114243300001 -5.4536665815029997 -0.97233785654899996  0.328724807023 -5.4423469339789996 -0.99903455497500004  0.34311943404 -5.4301840843539999 -1.027031728916  0.35485616611699999 -5.4172964468989999 -1.0559976800719999  0.36951158376900001 -5.3953113316549999 -1.1043072713169999  0.37408590979099998 -5.3865661279020003 -1.123265517743  0.37753602896499999 -5.3776224951299998 -1.1423961344119999  0.37984426893399997 -5.3685188276479998 -1.161616591679  0.381000072977 -5.3592965266080004 -1.180844978014  0.38100000000000001 -5.3499999999999996 -1.200000000001 
 0 7 0.095732930042230005 5 0.212619171174 5 0.33074767145599998 5 0.50008262327599995 5 0.598810659641 5 0.75029132765399997 5 0.90332699233699998 5 1 7
7 0 0  4 5 2  -0.380873686564 -5.3700814938379997 -1.209643261309  -0.38093715712499998 -5.3650692984579997 -1.207261867138  -0.38097915892799999 -5.3600514143130003 -1.2048609351970001  -0.38100000000299999 -5.355028198236 -1.2024403602589999  -0.38100000000000001 -5.3499999999999996 -1.199999995649 
 0 5 1 5
7 0 0  8 9 2  -0.38014853016799999 -5.3499999999999996 -1.2254577102540001  -0.38237694677200001 -5.3922523960579998 -1.1921817679790001  -0.38121155479500002 -5.4356682510410002 -1.1579895417620001  -0.376967397536 -5.4801941897719999 -1.122923067309  -0.36998658134200002 -5.5258155344839999 -1.0869939041179999  -0.36070436317299998 -5.572511167069 -1.0502186837909999  -0.34976584882400003 -5.6204231250610004 -1.012485544439  -0.33801167050100001 -5.6697674595440004 -0.973624334684  -0.32678523311800001 -5.7215581859890001 -0.93283646501700002 
 0 9 1 9
2 0 -5.3499999999999996 -1.2 0 1 0 0 -0 1 1 0 -0 0.38100000000000001
2 0 -5.3499999999999996 1.2 0 1 -2.4e-16 0 2.4e-16 1 1 -0 0 0.38100000000000001
7 0 0  7 14 3  -0.32678523311800001 -5.7215581859890001 0.93283646501700002  -0.33615004201999998 -5.6783556775250004 0.96686066983999996  -0.34589998448300002 -5.6368438642300003 0.99955336497299996  -0.355185645642 -5.5964666793489997 1.031352481678  -0.36344385301400001 -5.5570466429690004 1.062397794547  -0.37025951078000002 -5.5184660835750003 1.0927819759690001  -0.37533338742799999 -5.4806597295069999 1.1225564307439999  -0.379532871464 -5.429860023382 1.16256382077  -0.38039092844299999 -5.4162643480049999 1.1732711167159999  -0.38096129716999999 -5.4027776834600001 1.1838925610069999  -0.381232209263 -5.3894030901040004 1.1944257434529999  -0.38119309689000003 -5.3761448055800001 1.204867326692  -0.38083459276800002 -5.3630082448099996 1.215213046193  -0.38014853016799999 -5.3499999999999996 1.2254577102540001 
 0 8 0.73025822045800004 6 1 8
7 0 0  4 5 2  -0.380873686564 -5.3700814938379997 1.209643261309  -0.380937157114 -5.3650692993569997 1.207261867565  -0.38097915891299999 -5.3600514140330002 1.2048609400520001  -0.38099999999099998 -5.3550282051769997 1.202440353306  -0.38100000000000001 -5.3499999999999996 1.200000004351 
 0 5 1 5
7 0 0  6 22 5  6.0000000000000001e-17 -5.5207401290740004 0.80100487409499999  -0.019785639945829998 -5.5207401290740004 0.80100487409499999  -0.039571726131930003 -5.5202463949879998 0.80237075193999996  -0.059252316281720001 -5.5192589950809996 0.80510282315899995  -0.078723422809470006 -5.5177795730310004 0.80918048215100002  -0.09788522694665 -5.515811620519 0.81456525219999998  -0.145700661973 -5.5095645371300002 0.83148649705199995  -0.17379108965699999 -5.5046097079919996 0.84477744191100002  -0.200571573999 -5.4985170765609999 0.86088083397799997  -0.22574149030900001 -5.4913183408209996 0.87952287196500001  -0.24904799894499999 -5.4830624596730004 0.90040004462500001  -0.29201571768099999 -5.4643541400669999 0.94654362594599994  -0.311576444477 -5.4538544990559998 0.97190171135199999  -0.32873634522400003 -5.4423924416820002 0.99894171553199995  -0.34331037331600001 -5.4300643755260003 1.027317098808  -0.35515432561100002 -5.4169936223260002 1.0566829110910001  -0.36973336158499998 -5.3948851047800002 1.1052310255040001  -0.37421972418499999 -5.3862174689540003 1.1240111617549999  -0.37760317444899999 -5.3773563549260004 1.1429579592129999  -0.37986668328399997 -5.3683391054999996 1.1619912870069999  -0.38100006953600002 -5.3592059491470003 1.1810316122369999  -0.38100000000000001 -5.3499999999999996 1.1999999999690001 
 0 7 0.19555196607299999 5 0.49844711709099998 5 0.80853731599099998 5 1 7
7 0 0  6 22 5  0.38100000000000001 -5.3499999999999996 1.200000000001  0.381000072977 -5.3592965266080004 1.180844978014  0.37984426893399997 -5.3685188276479998 1.161616591679  0.37753602896499999 -5.3776224951299998 1.1423961344119999  0.37408590979099998 -5.3865661279020003 1.123265517743  0.36951158376900001 -5.3953113316549999 1.1043072713169999  0.35191829155999999 -5.4217036574090001 1.0463133761279999  0.33514717068599997 -5.4385514797440004 1.0081528061130001  0.313751378064 -5.4540438902400004 0.97188616150600005  0.28808549772199998 -5.4679189759989999 0.93828994432500001  0.25862443938700003 -5.4799990072540004 0.90815090863799997  0.209977909346 -5.4951420441019998 0.86946054341599999  0.19322244434700001 -5.499660291404 0.85774252326900002  0.175773351459 -5.5037049351230003 0.84710775371699998  0.157710739623 -5.5072649986200002 0.83763581311400004  0.139123203896 -5.5103322441860003 0.82939738743900004  0.100835289402 -5.5155036971689997 0.81540749431000004  0.081122778800210002 -5.5175943749140002 0.80969088870700001  0.061071829745570003 -5.5191662864179998 0.80535935065800002  0.04079144931018 -5.5202154876479996 0.80245624240900004  0.02039546813448 -5.5207401290740004 0.80100487409499999  4.9999999999999999e-17 -5.5207401290740004 0.80100487409499999 
 0 7 0.19334542019299999 5 0.59953038819600002 5 0.79842145251899999 5 1 7
7 0 0  4 5 2  0.380873686564 -5.3700814938379997 1.209643261309  0.38093715712499998 -5.3650692984579997 1.207261867138  0.38097915892799999 -5.3600514143130003 1.2048609351970001  0.38100000000299999 -5.355028198236 1.2024403602589999  0.38100000000000001 -5.3499999999999996 1.199999995649 
 0 5 1 5
1 -2.581 -5.3499999999999996 1.2254577102540001 -1 0 0 
2 0 -5.3623742724039998 1.2157123321779999 0 0.61871362021210463 -0.78561660889013274 0 -0.78561660889013274 -0.61871362021210463 -1 0 -0 0.38100000000000001
1 8.9999999999999996e-17 -5.6616942003909996 0.97998244287699998 0 0.61871362021210463 -0.78561660889013274 
2 0 -4.7176257275960003 0.39703766782200001 0 0.61871362021210463 -0.78561660889013274 0 -0.78561660889013274 -0.61871362021210463 -1 0 -0 0.38100000000000001
3 0 -4.75 0.43814516128999997 0 1 0 0 0 -1 -1 0 0 0.61579378173300003 0.38100000000000001
3 0 -4.7300000000000004 0.41275000000000001 0 -0.43662706042303318 -0.89964260131806839 0 0.89964260131806839 -0.43662706042303318 1 0 0 0.87259822978099999 0.38100000000000001
3 0 -4.7300000000000004 0.41275000000000001 0 0.89964260131806839 -0.43662706042303318 0 -0.43662706042303318 -0.89964260131806839 -1 0 -0 0.423501509868 0.38100000000000001
3 0 -4.7300000000000004 0.41275000000000001 0 0.89964260131806839 -0.43662706042303318 0 -0.43662706042303318 -0.89964260131806839 -1 0 -0 0.423501509868 0.38100000000000001
3 0 -4.7300000000000004 0.41275000000000001 0 -0.43662706042303318 -0.89964260131806839 0 0.89964260131806839 -0.43662706042303318 1 0 0 0.87259822978099999 0.38100000000000001
3 0 -4.75 0.43814516128999997 0 1 0 0 0 -1 -1 0 0 0.61579378173300003 0.38100000000000001
2 0 -4.7176257275960003 0.39703766782200001 0 0.61871362021210463 -0.78561660889013274 0 -0.78561660889013274 -0.61871362021210463 -1 0 -0 0.38100000000000001
1 -2.581 -5.3499999999999996 -1.2254577102540001 1 0 0 
2 0 -5.3623742724039998 -1.2157123321779999 0 0.61871362021210463 0.78561660889013274 0 0.78561660889013274 -0.61871362021210463 -1 0 0 0.38100000000000001
2 0 -5.3623742724039998 -1.2157123321779999 0 0.61871362021210463 0.78561660889013274 0 0.78561660889013274 -0.61871362021210463 -1 0 0 0.38100000000000001
1 8.9999999999999996e-17 -5.063054344417 -1.4514422214789999 0 0.61871362021210463 0.78561660889013274 
3 0 -4.7300000000000004 -0.41275000000000001 -0 0.89964260131806839 0.43662706042303318 0 -0.43662706042303318 0.89964260131806839 1 0 0 0.423501509868 0.38100000000000001
3 0 -4.7300000000000004 -0.41275000000000001 0 -0.43662706042303318 0.89964260131806839 0 0.89964260131806839 0.43662706042303318 -1 0 0 0.87259822978099999 0.38100000000000001
3 0 -4.75 -0.43814516128999997 0 1 0 0 -0 1 1 0 -0 0.61579378173300003 0.38100000000000001
2 0 -4.7176257275960003 -0.39703766782200001 0 0.61871362021210463 0.78561660889013274 0 0.78561660889013274 -0.61871362021210463 -1 0 0 0.38100000000000001
3 0 -4.75 -0.43814516128999997 0 1 0 0 -0 1 1 0 -0 0.61579378173300003 0.38100000000000001
3 0 -4.7300000000000004 -0.41275000000000001 0 -0.43662706042303318 0.89964260131806839 0 0.89964260131806839 0.43662706042303318 -1 0 0 0.87259822978099999 0.38100000000000001
3 0 -4.7300000000000004 -0.41275000000000001 -0 0.89964260131806839 0.43662706042303318 0 -0.43662706042303318 0.89964260131806839 1 0 0 0.423501509868 0.38100000000000001
1 0 -4.75 0.37154125767200002 1 0 0 
2 0 -4.75 0.41275000000000001 0 1 0 0 -0 1 1 0 -0 0.38100000000000001
3 0 -4.7300000000000004 0.41275000000000001 0 0.89964260131806839 -0.43662706042303318 0 -0.43662706042303318 -0.89964260131806839 -1 0 -0 0.423501509868 0.38100000000000001
1 -8.9999999999999996e-17 -4.75 0.79374999999999996 0 1 0 
2 0 4.75 0.41275000000000001 0 1 0 0 -0 1 1 0 -0 0.38100000000000001
3 0 -4.7300000000000004 0.41275000000000001 0 -0.43662706042303318 -0.89964260131806839 0 0.89964260131806839 -0.43662706042303318 1 0 0 0.87259822978099999 0.38100000000000001
3 0 -4.697674867101 0.41275000000000001 0 0.61871362021210463 -0.78561660889013274 0 0.78561660889013274 0.61871362021210463 1 -0 0 0.61579378173300003 0.38100000000000001
2 0 -4.75 0.41275000000000001 0 1 0 0 -0 1 1 0 -0 0.38100000000000001
3 0 -4.697674867101 0.41275000000000001 0 0.61871362021210463 -0.78561660889013274 0 0.78561660889013274 0.61871362021210463 1 -0 0 0.61579378173300003 0.38100000000000001
3 0 -4.7300000000000004 0.41275000000000001 0 -0.43662706042303318 -0.89964260131806839 0 0.89964260131806839 -0.43662706042303318 1 0 0 0.87259822978099999 0.38100000000000001
3 0 -4.7300000000000004 0.41275000000000001 0 0.89964260131806839 -0.43662706042303318 0 -0.43662706042303318 -0.89964260131806839 -1 0 -0 0.423501509868 0.38100000000000001
2 0 -4.75 0.41275000000000001 0 1 0 0 -0 1 1 0 -0 0.38100000000000001
2 0 -4.75 -0.41275000000000001 0 1 0 0 -0 1 1 0 -0 0.38100000000000001
1 -8.9999999999999996e-17 -4.75 -0.03175 0 1 0 
2 0 4.75 -0.41275000000000001 0 1 0 0 -0 1 1 0 -0 0.38100000000000001
2 0 4.75 -0.41275000000000001 0 1 0 0 -0 1 1 0 -0 0.38100000000000001
2 0 -4.75 -0.41275000000000001 0 1 0 0 -0 1 1 0 -0 0.38100000000000001
3 0 -4.697674867101 -0.41275000000000001 0 0.61871362021210463 0.78561660889013274 0 0.78561660889013274 -0.61871362021210463 -1 0 0 0.61579378173300003 0.38100000000000001
3 0 -4.7300000000000004 -0.41275000000000001 0 -0.43662706042303318 0.89964260131806839 0 0.89964260131806839 0.43662706042303318 -1 0 0 0.87259822978099999 0.38100000000000001
3 0 -4.7300000000000004 -0.41275000000000001 0 -0.43662706042303318 0.89964260131806839 0 0.89964260131806839 0.43662706042303318 -1 0 0 0.87259822978099999 0.38100000000000001
3 0 -4.697674867101 -0.41275000000000001 0 0.61871362021210463 0.78561660889013274 0 0.78561660889013274 -0.61871362021210463 -1 0 0 0.61579378173300003 0.38100000000000001
2 0 -4.75 -0.41275000000000001 0 1 0 0 -0 1 1 0 -0 0.38100000000000001
3 0 -4.7300000000000004 -0.41275000000000001 -0 0.89964260131806839 0.43662706042303318 0 -0.43662706042303318 0.89964260131806839 1 0 0 0.423501509868 0.38100000000000001
1 0 -4.75 -0.37154125767200002 -1 0 0 
2 0 -4.75 -0.41275000000000001 0 1 0 0 -0 1 1 0 -0 0.38100000000000001
3 0 -4.7300000000000004 -0.41275000000000001 -0 0.89964260131806839 0.43662706042303318 0 -0.43662706042303318 0.89964260131806839 1 0 0 0.423501509868 0.38100000000000001
2 0 -4.7176257275960003 0.39703766782200001 0 0.61871362021210463 -0.78561660889013274 0 -0.78561660889013274 -0.61871362021210463 -1 0 -0 0.38100000000000001
2 0 -4.7176257275960003 0.39703766782200001 0 0.61871362021210463 -0.78561660889013274 0 -0.78561660889013274 -0.61871362021210463 -1 0 -0 0.38100000000000001
2 4.9999999999999999e-17 4.75 1.1127499999999999 1 -0 0 0 0 -1 0 1 0 0.31900000000000001
2 0 5.1515035054459997 0.53934356899799996 0 -0.81915204428901622 -0.5735764363510113 0 0.5735764363510113 -0.81915204428901622 1 0 0 0.38100000000000001
2 0 -4.7176257275960003 -0.39703766782200001 0 0.61871362021210463 0.78561660889013274 0 0.78561660889013274 -0.61871362021210463 -1 0 0 0.38100000000000001
2 0 -4.7176257275960003 -0.39703766782200001 0 0.61871362021210463 0.78561660889013274 0 0.78561660889013274 -0.61871362021210463 -1 0 0 0.38100000000000001
2 -4.9999999999999999e-17 4.75 -1.1127499999999999 -1 0 0 0 0 1 0 1 -0 0.31900000000000001
2 0 5.1515035054459997 -0.53934356899799996 0 -0.81915204428901622 0.5735764363510113 0 0.5735764363510113 0.81915204428901622 -1 0 0 0.38100000000000001
2 0 5.1515035054459997 -0.53934356899799996 0 -0.81915204428901622 0.5735764363510113 0 0.5735764363510113 0.81915204428901622 -1 0 0 0.38100000000000001
2 0 7.4225159911120002 2.1295236308300001 -0 0.81915204428901622 0.5735764363510113 0 -0.5735764363510113 0.81915204428901622 1 0 0 0.38100000000000001
1 -8.9999999999999996e-17 4.932970883196 0.85144049787200005 0 0.81915204428901622 0.5735764363510113 
1 -8.9999999999999996e-17 5.3700361276950002 -0.227246640124 0 0.81915204428901622 -0.5735764363510113 
2 0 7.4225159911120002 -2.1295236308300001 0 0.81915204428901622 -0.5735764363510113 0 0.5735764363510113 0.81915204428901622 1 -0 0 0.38100000000000001
Polygon3D 0
PolygonOnTriangulations 0
Surfaces 35
5 0 -5.3499999999999996 0 1 0 0 0 0 1 0 -1 0 1.2 0.38100000000000001
1 0 -5.3623742724039998 1.2157123321779999 0 0.61871362021210463 -0.78561660889013274 0 -0.78561660889013274 -0.61871362021210463 -1 0 -0 
1 -5.1619999999999999 -5.3499999999999996 -5.1619999999999999 0 1 0 0 -0 1 1 0 -0 
1 -5.1619999999999999 -5.3499999999999996 -5.1619999999999999 0 1 0 0 -0 1 1 0 -0 
1 0 -5.3623742724039998 -1.2157123321779999 0 0.61871362021210463 0.78561660889013274 0 0.78561660889013274 -0.61871362021210463 -1 0 0 
2 0 -5.3623742724039998 -1.2157123321779999 0 0.61871362021210463 0.78561660889013274 0 0.78561660889013274 -0.61871362021210463 -1 0 0 0.38100000000000001
2 0 -5.3623742724039998 1.2157123321779999 0 0.61871362021210463 -0.78561660889013274 0 -0.78561660889013274 -0.61871362021210463 -1 0 -0 0.38100000000000001
1 0 -4.7176257275960003 0.39703766782200001 0 0.61871362021210463 -0.78561660889013274 0 -0.78561660889013274 -0.61871362021210463 -1 0 -0 
1 0 -4.75 0.41275000000000001 0 1 0 0 -0 1 1 0 -0 
2 0 -4.75 0.41275000000000001 0 1 0 0 -0 1 1 0 -0 0.38100000000000001
2 0 -4.75 0.41275000000000001 0 1 0 0 -0 1 1 0 -0 0.38100000000000001
2 0 -4.75 0.41275000000000001 0 1 0 0 -0 1 1 0 -0 0.38100000000000001
1 0 -4.75 0.41275000000000001 0 1 0 0 -0 1 1 0 -0 
2 0 -4.75 -0.41275000000000001 0 1 0 0 -0 1 1 0 -0 0.38100000000000001
2 0 -4.75 -0.41275000000000001 0 1 0 0 -0 1 1 0 -0 0.38100000000000001
1 0 -4.75 -0.41275000000000001 0 1 0 0 -0 1 1 0 -0 
1 0 -4.7176257275960003 -0.39703766782200001 0 0.61871362021210463 0.78561660889013274 0 0.78561660889013274 -0.61871362021210463 -1 0 0 
1 0 -4.75 -0.41275000000000001 0 1 0 0 -0 1 1 0 -0 
2 0 -4.75 -0.41275000000000001 0 1 0 0 -0 1 1 0 -0 0.38100000000000001
1 0 -4.75 0.41275000000000001 0 1 0 0 -0 1 1 0 -0 
2 0 -5.3623742724039998 1.2157123321779999 0 0.61871362021210463 -0.78561660889013274 0 -0.78561660889013274 -0.61871362021210463 -1 0 -0 0.38100000000000001
5 0 4.75 1.1127499999999999 1 0 0 0 0 -1 -0 1 0 0.69999999999999996 0.38100000000000001
2 0 -5.3623742724039998 1.2157123321779999 0 0.61871362021210463 -0.78561660889013274 0 -0.78561660889013274 -0.61871362021210463 -1 0 -0 0.38100000000000001
1 0 -4.7176257275960003 0.39703766782200001 0 0.61871362021210463 -0.78561660889013274 0 -0.78561660889013274 -0.61871362021210463 -1 0 -0 
1 0 -4.7176257275960003 0.39703766782200001 0 0.61871362021210463 -0.78561660889013274 0 -0.78561660889013274 -0.61871362021210463 -1 0 -0 
1 0 -4.75 -0.41275000000000001 0 1 0 0 -0 1 1 0 -0 
5 0 4.75 -1.1127499999999999 -1 0 0 0 0 1 0 1 -0 0.69999999999999996 0.38100000000000001
1 0 -4.7176257275960003 -0.39703766782200001 0 0.61871362021210463 0.78561660889013274 0 0.78561660889013274 -0.61871362021210463 -1 0 0 
2 0 -5.3623742724039998 -1.2157123321779999 0 0.61871362021210463 0.78561660889013274 0 0.78561660889013274 -0.61871362021210463 -1 0 0 0.38100000000000001
2 0 -5.3623742724039998 -1.2157123321779999 0 0.61871362021210463 0.78561660889013274 0 0.78561660889013274 -0.61871362021210463 -1 0 0 0.38100000000000001
1 0 -4.7176257275960003 -0.39703766782200001 0 0.61871362021210463 0.78561660889013274 0 0.78561660889013274 -0.61871362021210463 -1 0 0 
2 0 5.1515035054459997 0.53934356899799996 0 0.81915204428901622 0.5735764363510113 0 -0.5735764363510113 0.81915204428901622 1 0 -0 0.38100000000000001
2 0 5.1515035054459997 -0.53934356899799996 0 0.81915204428901622 -0.5735764363510113 0 0.5735764363510113 0.81915204428901622 1 -0 0 0.38100000000000001
1 0 7.4225159911120002 2.1295236308300001 0 0.81915204428901622 0.5735764363510113 0 -0.5735764363510113 0.81915204428901622 1 0 -0 
1 0 7.4225159911120002 -2.1295236308300001 0 0.81915204428901622 -0.5735764363510113 0 0.5735764363510113 0.81915204428901622 1 -0 0 
Triangulations 0

TShapes 193
Ve
1e-07
0.380873694223 -5.370080888985 1.209642973931
0 0

0101101
*
Ve
1e-07
0.380148530168 -5.35 1.225457710254
0 0

0101101
*
Ed
 1e-07 1 1 0
1  1 0 0.940890448207615 1
2  1 1 0 0.940890448207615 1
4 C0 1 0 2 0
0

0101000
+193 0 -192 0 *
Ve
1e-07
0 -5.35 1.581
0 0

0101101
*
Ed
 1e-07 1 1 0
1  2 0 0 1.50392836940405
2  2 1 0 0 1.50392836940405
4 C0 1 0 3 0
0

0101000
+190 0 -192 0 *
Ve
1e-07
0 -5.35 -1.581
0 0

0101101
*
Ed
 1e-07 1 1 0
1  3 0 0 3.14159265358979
3  3 4CN 1 0 0 3.14159265358979
0

0101000
+190 0 -188 0 *
Ve
1e-07
0.380148530168 -5.35 -1.225457710254
0 0

0101101
*
Ed
 1e-07 1 1 0
1  4 0 1.63766428418574 3.14159265358979
2  5 1 0 1.63766428418574 3.14159265358979
4 C0 1 0 4 0
0

0101000
+186 0 -188 0 *
Ve
1e-07
0.380873694223 -5.370080888985 -1.209642973931
0 0

0101101
*
Ed
 1e-07 1 1 0
1  5 0 0.940890448207823 1
2  6 1 0 0.940890448207823 1
4 C0 1 0 5 0
0

0101000
+184 0 -186 0 *
Ve
1e-07
0.381 -5.35 -1.2
0 0

0101101
*
Ed
 1e-07 1 1 0
1  6 0 3.0169072209208e-05 1
2  7 1 0 3.0169072209208e-05 1
2  8 6 0 3.0169072209208e-05 1
4 C0 1 0 6 0
0

0101000
+184 0 -182 0 *
Ve
1e-07
-0.381 -5.35 -1.2
0 0

0101101
*
Ed
 1e-07 1 1 0
1  7 0 0 1
2  9 1 0 0 1
2  10 6 0 0 1
4 C0 1 0 6 0
0

0101000
+180 0 -182 0 *
Ve
1e-07
-0.380873694223 -5.370080888985 -1.209642973931
0 0

0101101
*
Ed
 1e-07 1 1 0
1  8 0 3.01690667973076e-05 1
2  11 1 0 3.01690667973076e-05 1
2  12 6 0 3.01690667973076e-05 1
4 C0 1 0 6 0
0

0101000
+178 0 -180 0 *
Ve
1e-07
-0.380148530168 -5.35 -1.225457710254
0 0

0101101
*
Ed
 1e-07 1 1 0
1  9 0 0 0.0590729605660872
2  13 1 0 0 0.0590729605660872
4 C0 1 0 5 0
0

0101000
+176 0 -178 0 *
Ed
 1e-07 1 1 0
1  10 0 3.14159265358979 4.64552102299384
2  14 1 0 3.14159265358979 4.64552102299384
4 C0 1 0 4 0
0

0101000
+188 0 -176 0 *
Ve
1e-07
-0.380148530168 -5.35 1.225457710254
0 0

0101101
*
Ed
 1e-07 1 1 0
1  11 0 4.77925693777554 6.28318530717959
2  15 1 0 4.77925693777554 6.28318530717959
4 C0 1 0 3 0
0

0101000
+173 0 -190 0 *
Ve
1e-07
-0.380873694223 -5.370080888985 1.209642973931
0 0

0101101
*
Ed
 1e-07 1 1 0
1  12 0 0.940890448208776 1
2  16 1 0 0.940890448208776 1
4 C0 1 0 2 0
0

0101000
+171 0 -173 0 *
Ve
1e-07
-0.381 -5.35 1.2
0 0

0101101
*
Ed
 1e-07 1 1 0
1  13 0 3.01690722127826e-05 1
2  17 1 0 3.01690722127826e-05 1
2  18 7 0 3.01690722127826e-05 1
4 C0 1 0 7 0
0

0101000
+171 0 -169 0 *
Ve
1e-07
0 -5.520740129074 0.801004874095
0 0

0101101
*
Ed
 1e-07 1 1 0
1  14 0 0 1
2  19 1 0 0 1
2  20 7 0 0 1
4 C0 1 0 7 0
0

0101000
+167 0 -169 0 *
Ve
1e-07
0.381 -5.35 1.2
0 0

0101101
*
Ed
 1e-07 1 1 0
1  15 0 0 1
2  21 1 0 0 1
2  22 7 0 0 1
4 C0 1 0 7 0
0

0101000
+165 0 -167 0 *
Ed
 1e-07 1 1 0
1  16 0 3.01690667973076e-05 1
2  23 1 0 3.01690667973076e-05 1
2  24 7 0 3.01690667973076e-05 1
4 C0 1 0 7 0
0

0101000
+193 0 -165 0 *
Wi

0101100
+191 0 -189 0 +187 0 -185 0 -183 0 +181 0 -179 0 -177 0 -175 0 -174 0 
-187 0 -172 0 -170 0 +168 0 -166 0 -164 0 -163 0 *
Fa
0  1e-07 1 0

0111000
+162 0 *
Ed
 1e-07 1 1 0
1  17 0 -2.961148530168 -2.200851469832
4 C0 3 0 2 0
0

0101000
+192 0 -173 0 *
Wi

0101100
+172 0 +189 0 +160 0 *
Fa
0  1e-07 3 0

0111000
+159 0 *
Ed
 1e-07 1 1 0
1  18 0 1.5450463930849 4.73813891409469
2  25 7 0 1.5450463930849 4.73813891409469
4 C0 2 0 7 0
0

0101000
+171 0 -193 0 *
Wi

0101100
-170 0 +157 0 +191 0 +160 0 *
Fa
0  1e-07 2 0

0111000
+156 0 *
Ve
1e-07
0 -5.016945655583 0.161307778521
0 0

0101101
*
Ed
 1e-07 1 1 0
1  19 0 0.227817954402091 1.04207911988027
3  26 27CN 7 0 0.227817954402091 1.04207911988027
0

0101000
+167 0 -154 0 *
Ve
1e-07
0.37876488691 -4.75 0.371541257672
0 0

0101101
*
Ed
 1e-07 1 1 0
1  20 0 4.82076041017376 6.28318530717959
2  28 7 0 4.82076041017376 6.28318530717959
4 C0 7 0 8 0
0

0101000
+152 0 -154 0 *
Ve
1e-07
0.380876332159 -4.75 0.42245667818
0 0

0101101
*
Ed
 1e-07 1 1 0
1  21 0 4.73786858284968 4.82076041017407
2  29 7 0 4.73786858284968 4.82076041017407
4 C0 7 0 9 0
0

0101000
+150 0 -152 0 *
Ve
2.53960201587559e-07
0.381 -4.73 0.41275
0 0

0101101
*
Ed
 1e-07 1 1 0
1  22 0 1.5707963267949 1.59627592925934
2  30 7 0 1.5707963267949 1.59627592925934
2  31 10 0 1.5707963267949 1.59627592925934
4 C0 7 0 10 0
0

0101000
+148 0 -150 0 *
Ve
2.53960201587559e-07
0 -4.545087780661 0.79375
0 0

0101101
*
Ed
 2.53960201587559e-07 1 1 0
1  23 0 3.14159265358979 4.71238898038469
2  32 7 0 3.14159265358979 4.71238898038469
2  33 11 0 3.14159265358979 4.71238898038469
4 C0 7 0 11 0
0

0101000
+146 0 -148 0 *
Ve
2.53960137638008e-07
-0.381 -4.73 0.41275
0 0

0101101
*
Ed
 2.53960137638008e-07 1 1 0
1  24 0 1.5707963267949 3.14159265358979
2  34 7 0 1.5707963267949 3.14159265358979
2  35 11 0 1.5707963267949 3.14159265358979
4 C0 7 0 11 0
0

0101000
+144 0 -146 0 *
Ve
1e-07
-0.380876332159 -4.75 0.42245667818
0 0

0101101
*
Ed
 1e-07 1 1 0
1  25 0 4.68690937792025 4.71238898038469
2  36 7 0 4.68690937792025 4.71238898038469
2  37 12 0 4.68690937792025 4.71238898038469
4 C0 7 0 12 0
0

0101000
+142 0 -144 0 *
Ve
1e-07
-0.37876488691 -4.75 0.371541257672
0 0

0101101
*
Ed
 1e-07 1 1 0
1  26 0 1.46242489700552 1.54531672432991
2  38 7 0 1.46242489700552 1.54531672432991
4 C0 7 0 13 0
0

0101000
+140 0 -142 0 *
Ed
 1e-07 1 1 0
1  27 0 0 1.46242489700583
2  39 7 0 0 1.46242489700583
4 C0 7 0 8 0
0

0101000
+154 0 -140 0 *
Wi

0101100
+164 0 +153 0 -151 0 -149 0 -147 0 -145 0 -143 0 -141 0 -139 0 -138 0 
-153 0 +166 0 -168 0 +157 0 +163 0 *
Fa
0  1e-07 7 0

0111000
+137 0 *
Ed
 1e-07 1 1 0
1  28 0 2.200851469832 2.961148530168
4 C0 4 0 5 0
0

0101000
+176 0 -186 0 *
Wi

0101100
+185 0 +174 0 +135 0 *
Fa
0  1e-07 4 0

0111000
+134 0 *
Ve
1e-07
0 -5.063054344417 -1.451442221479
0 0

0101101
*
Ed
 1e-07 1 1 0
1  29 0 4.68663904667469 6.28318530717959
2  40 6 0 4.68663904667469 6.28318530717959
4 C0 5 0 6 0
0

0101000
+184 0 -132 0 *
Ed
 1e-07 1 1 0
1  30 0 0 1.5965462605049
2  41 6 0 0 1.5965462605049
4 C0 5 0 6 0
0

0101000
+132 0 -178 0 *
Wi

0101100
+131 0 +130 0 -175 0 +135 0 -183 0 *
Fa
0  1e-07 5 0

0111000
+129 0 *
Ve
2.53960201587596e-07
0 -4.545087780661 -0.79375
0 0

0101101
*
Ed
 1e-07 1 1 0
1  31 0 0 0.837166900542049
3  42 43CN 6 0 0 0.837166900542049
0

0101000
+132 0 -127 0 *
Ve
2.53960137638006e-07
0.381 -4.73 -0.41275
0 0

0101101
*
Ed
 2.53960137638006e-07 1 1 0
1  32 0 1.5707963267949 3.14159265358979
2  44 6 0 1.5707963267949 3.14159265358979
2  45 14 0 1.5707963267949 3.14159265358979
4 C0 6 0 14 0
0

0101000
+125 0 -127 0 *
Ve
1e-07
0.380876332159 -4.75 -0.42245667818
0 0

0101101
*
Ed
 1e-07 1 1 0
1  33 0 4.68690937792025 4.71238898038469
2  46 6 0 4.68690937792025 4.71238898038469
2  47 15 0 4.68690937792025 4.71238898038469
4 C0 6 0 15 0
0

0101000
+123 0 -125 0 *
Ve
1e-07
0.37876488691 -4.75 -0.371541257672
0 0

0101101
*
Ed
 1e-07 1 1 0
1  34 0 1.46242489700552 1.54531672432991
2  48 6 0 1.46242489700552 1.54531672432991
4 C0 6 0 16 0
0

0101000
+121 0 -123 0 *
Ve
1e-07
-0.37876488691 -4.75 -0.371541257672
0 0

0101101
*
Ed
 1e-07 1 1 0
1  35 0 1.67916775658397 4.60401755059562
2  49 6 0 1.67916775658397 4.60401755059562
4 C0 6 0 17 0
0

0101000
+119 0 -121 0 *
Ve
1e-07
-0.380876332159 -4.75 -0.42245667818
0 0

0101101
*
Ed
 1e-07 1 1 0
1  36 0 4.73786858284968 4.82076041017407
2  50 6 0 4.73786858284968 4.82076041017407
4 C0 6 0 18 0
0

0101000
+117 0 -119 0 *
Ve
2.53960201587596e-07
-0.381 -4.73 -0.41275
0 0

0101101
*
Ed
 1e-07 1 1 0
1  37 0 1.5707963267949 1.59627592925934
2  51 6 0 1.5707963267949 1.59627592925934
2  52 19 0 1.5707963267949 1.59627592925934
4 C0 6 0 19 0
0

0101000
+115 0 -117 0 *
Ed
 2.53960201587596e-07 1 1 0
1  38 0 3.14159265358979 4.71238898038469
2  53 6 0 3.14159265358979 4.71238898038469
2  54 14 0 3.14159265358979 4.71238898038469
4 C0 6 0 14 0
0

0101000
+127 0 -115 0 *
Wi

0101100
+131 0 +126 0 -124 0 -122 0 -120 0 -118 0 -116 0 -114 0 -113 0 -126 0 
+130 0 +177 0 +179 0 -181 0 *
Fa
0  1e-07 6 0

0111000
+112 0 *
Ed
 1e-07 1 1 0
1  39 0 -0.37876488691 0.37876488691
4 C0 8 0 20 0
0

0101000
+140 0 -152 0 *
Wi

0101100
+151 0 +138 0 +110 0 *
Fa
0  1e-07 8 0

0111000
+109 0 *
Ed
 1e-07 1 1 0
1  40 0 4.60401755059467 4.73786858284804
2  55 12 0 4.60401755059467 4.73786858284804
4 C0 13 0 12 0
0

0101000
+140 0 -142 0 *
Wi

0101100
-139 0 +107 0 *
Fa
0  1e-07 13 0

0111000
+106 0 *
Ed
 1e-07 1 1 0
1  41 0 1.46242489700485 1.5707963267949
2  56 12 0 1.46242489700485 1.5707963267949
2  57 21 0 1.46242489700485 1.5707963267949
4 C0 12 0 21 0
0

0101000
+140 0 -144 0 *
Wi

0101100
+141 0 -104 0 +107 0 *
Fa
0  1e-07 12 0

0111000
+103 0 *
Ve
1e-07
0 4.75 0.79375
0 0

0101101
*
Ed
 1e-07 1 1 0
1  42 0 0.204912219339 9.5
3  58 59CN 11 0 0.204912219339 9.5
0

0101000
+146 0 -101 0 *
Ed
 1e-07 1 1 0
1  43 0 0 6.28318530717959
2  60 11 0 0 6.28318530717959
2  61 22 0 0 6.28318530717959
4 G1 11 0 22 0
0

0101100
+101 0 -101 0 *
Ve
1e-07
0.380876332159 -4.71 0.403043321819
0 0

0101101
*
Ed
 1e-07 1 1 0
1  44 0 1.54531672432995 1.5707963267949
2  62 11 0 1.54531672432995 1.5707963267949
2  63 23 0 1.54531672432995 1.5707963267949
4 C0 11 0 23 0
0

0101000
+98 0 -148 0 *
Ed
 1e-07 1 1 0
1  45 0 1.59627592925961 1.67916775658425
2  64 11 0 1.59627592925961 1.67916775658425
4 C0 11 0 24 0
0

0101000
+98 0 -152 0 *
Ed
 1e-07 1 1 0
1  46 0 1.67916775658492 4.60401755059467
2  65 11 0 1.67916775658492 4.60401755059467
4 C0 11 0 20 0
0

0101000
+152 0 -140 0 *
Ve
1e-07
-0.380876332159 -4.71 0.403043321819
0 0

0101101
*
Ed
 1e-07 1 1 0
1  47 0 4.60401755059534 4.68690937791997
2  66 11 0 4.60401755059534 4.68690937791997
4 C0 11 0 25 0
0

0101000
+140 0 -94 0 *
Ed
 1e-07 1 1 0
1  48 0 4.71238898038469 4.73786858284963
2  67 11 0 4.71238898038469 4.73786858284963
2  68 21 0 4.71238898038469 4.73786858284963
4 C0 11 0 21 0
0

0101000
+144 0 -94 0 *
Wi

0101100
+100 0 -99 0 -100 0 +145 0 -97 0 +96 0 +95 0 +93 0 -92 0 +143 0 
*
Fa
0  1e-07 11 0

0111000
+91 0 *
Ed
 1e-07 1 1 0
1  49 0 4.71238898038469 4.82076041017474
2  69 10 0 4.71238898038469 4.82076041017474
2  70 23 0 4.71238898038469 4.82076041017474
4 C0 10 0 23 0
0

0101000
+148 0 -152 0 *
Ed
 1e-07 1 1 0
1  50 0 1.54531672433155 1.67916775658492
2  71 10 0 1.54531672433155 1.67916775658492
4 C0 10 0 9 0
0

0101000
+150 0 -152 0 *
Wi

0101100
-89 0 +147 0 +88 0 *
Fa
0  1e-07 10 0

0111000
+87 0 *
Wi

0101100
+88 0 -149 0 *
Fa
0  1e-07 9 0

0111000
+85 0 *
Ve
1e-07
0 -4.75 -0.03175
0 0

0101101
*
Ed
 1e-07 1 1 0
1  51 0 4.82076041017471 6.28318530717959
2  72 14 0 4.82076041017471 6.28318530717959
4 C0 14 0 26 0
0

0101000
+119 0 -83 0 *
Ve
1e-07
0 4.75 -0.03175
0 0

0101101
*
Ed
 1e-07 1 1 0
1  52 0 0 9.5
3  73 74CN 14 0 0 9.5
0

0101000
+83 0 -81 0 *
Ve
1e-07
0 4.75 -0.79375
0 0

0101101
*
Ed
 1e-07 1 1 0
1  53 0 3.14159265358979 6.28318530717959
2  75 14 0 3.14159265358979 6.28318530717959
2  76 27 0 3.14159265358979 6.28318530717959
4 G1 14 0 27 0
0

0101000
+79 0 -81 0 *
Ed
 1e-07 1 1 0
1  54 0 0 3.14159265358979
2  77 14 0 0 3.14159265358979
2  78 27 0 0 3.14159265358979
4 G1 14 0 27 0
0

0101000
+81 0 -79 0 *
Ed
 1e-07 1 1 0
1  55 0 0 1.46242489700487
2  79 14 0 0 1.46242489700487
4 C0 14 0 26 0
0

0101000
+83 0 -121 0 *
Ve
1e-07
0.380876332159 -4.71 -0.403043321819
0 0

0101101
*
Ed
 1e-07 1 1 0
1  56 0 4.60401755059534 4.68690937791997
2  80 14 0 4.60401755059534 4.68690937791997
4 C0 14 0 28 0
0

0101000
+121 0 -75 0 *
Ed
 1e-07 1 1 0
1  57 0 4.71238898038469 4.73786858284963
2  81 14 0 4.71238898038469 4.73786858284963
2  82 29 0 4.71238898038469 4.73786858284963
4 C0 14 0 29 0
0

0101000
+125 0 -75 0 *
Ve
1e-07
-0.380876332159 -4.71 -0.403043321819
0 0

0101101
*
Ed
 1e-07 1 1 0
1  58 0 1.54531672432995 1.5707963267949
2  83 14 0 1.54531672432995 1.5707963267949
2  84 30 0 1.54531672432995 1.5707963267949
4 C0 14 0 30 0
0

0101000
+72 0 -115 0 *
Ed
 1e-07 1 1 0
1  59 0 1.59627592925961 1.67916775658425
2  85 14 0 1.59627592925961 1.67916775658425
4 C0 14 0 31 0
0

0101000
+72 0 -119 0 *
Wi

0101100
+82 0 +80 0 -78 0 -77 0 -80 0 +76 0 +74 0 -73 0 +124 0 +113 0 
-71 0 +70 0 *
Fa
0  1e-07 14 0

0111000
+69 0 *
Ed
 1e-07 1 1 0
1  60 0 4.68690937792134 4.82076041017471
2  86 19 0 4.68690937792134 4.82076041017471
4 C0 19 0 18 0
0

0101000
+117 0 -119 0 *
Ed
 1e-07 1 1 0
1  61 0 4.71238898038469 4.82076041017474
2  87 19 0 4.71238898038469 4.82076041017474
2  88 30 0 4.71238898038469 4.82076041017474
4 C0 19 0 30 0
0

0101000
+115 0 -119 0 *
Wi

0101100
+67 0 -66 0 +114 0 *
Fa
0  1e-07 19 0

0111000
+65 0 *
Wi

0101100
+67 0 -116 0 *
Fa
0  1e-07 18 0

0111000
+63 0 *
Ed
 1e-07 1 1 0
1  62 0 -0.37876488691 0.37876488691
4 C0 17 0 26 0
0

0101000
+121 0 -119 0 *
Wi

0101100
+61 0 +118 0 *
Fa
0  1e-07 17 0

0111000
+60 0 *
Ed
 1e-07 1 1 0
1  63 0 1.46242489700487 1.59627592925824
2  89 15 0 1.46242489700487 1.59627592925824
4 C0 16 0 15 0
0

0101000
+121 0 -123 0 *
Wi

0101100
-120 0 +58 0 *
Fa
0  1e-07 16 0

0111000
+57 0 *
Ed
 1e-07 1 1 0
1  64 0 1.46242489700485 1.5707963267949
2  90 15 0 1.46242489700485 1.5707963267949
2  91 29 0 1.46242489700485 1.5707963267949
4 C0 15 0 29 0
0

0101000
+121 0 -125 0 *
Wi

0101100
-55 0 +58 0 +122 0 *
Fa
0  1e-07 15 0

0111000
+54 0 *
Wi

0101100
+110 0 +95 0 *
Fa
0  1e-07 20 0

0111000
+52 0 *
Ed
 1e-07 1 1 0
1  65 0 1.46242489700583 1.59627592925959
2  92 21 0 1.46242489700583 1.59627592925959
4 C0 21 0 25 0
0

0101000
+140 0 -94 0 *
Wi

0101100
-50 0 +104 0 +92 0 *
Fa
0  1e-07 21 0

0111000
+49 0 *
Wi

0101100
-93 0 +50 0 *
Fa
0  1e-07 25 0

0111000
+47 0 *
Ed
 1e-07 1 1 0
1  66 0 4.68690937791999 4.82076041017376
2  93 23 0 4.68690937791999 4.82076041017376
4 C0 24 0 23 0
0

0101000
+98 0 -152 0 *
Wi

0101100
+45 0 -96 0 *
Fa
0  1e-07 24 0

0111000
+44 0 *
Wi

0101100
+89 0 -45 0 +97 0 *
Fa
0  1e-07 23 0

0111000
+42 0 *
Ve
1e-07
0 4.932970883196 0.851440497872
0 0

0101101
*
Ed
 1e-07 1 1 0
1  67 0 0 0.610865238198396
3  94 95CN 22 0 0 0.610865238198396
0

0101000
+101 0 -40 0 *
Ed
 1e-07 1 1 0
1  68 0 3.14159265358979 9.42477796076938
2  96 22 0 3.14159265358979 9.42477796076938
2  97 32 0 3.14159265358979 9.42477796076938
4 G1 22 0 32 0
0

0101100
+40 0 -40 0 *
Wi

0101100
-39 0 +99 0 +39 0 +38 0 *
Fa
0  1e-07 22 0

0111000
+37 0 *
Wi

0101100
+82 0 +76 0 +61 0 *
Fa
0  1e-07 26 0

0111000
+35 0 *
Ed
 1e-07 1 1 0
1  69 0 1.5453167243302 1.67916775658397
2  98 30 0 1.5453167243302 1.67916775658397
4 C0 31 0 30 0
0

0101000
+72 0 -119 0 *
Wi

0101100
+33 0 -70 0 *
Fa
0  1e-07 31 0

0111000
+32 0 *
Wi

0101100
+71 0 +66 0 -33 0 *
Fa
0  1e-07 30 0

0111000
+30 0 *
Ed
 1e-07 1 1 0
1  70 0 4.60401755059562 4.73786858284939
2  99 29 0 4.60401755059562 4.73786858284939
4 C0 29 0 28 0
0

0101000
+121 0 -75 0 *
Wi

0101100
+55 0 +73 0 -28 0 *
Fa
0  1e-07 29 0

0111000
+27 0 *
Wi

0101100
-74 0 +28 0 *
Fa
0  1e-07 28 0

0111000
+25 0 *
Ve
1e-07
0 4.932970883196 -0.851440497872
0 0

0101101
*
Ed
 1e-07 1 1 0
1  71 0 0 0.610865238198396
3  100 101CN 27 0 0 0.610865238198396
0

0101000
+79 0 -23 0 *
Ve
1e-07
0 5.370036127695 -0.227246640124
0 0

0101101
*
Ed
 1e-07 1 1 0
1  72 0 3.14159265358979 6.28318530717959
2  102 27 0 3.14159265358979 6.28318530717959
2  103 33 0 3.14159265358979 6.28318530717959
4 G1 27 0 33 0
0

0101000
+23 0 -21 0 *
Ed
 1e-07 1 1 0
1  73 0 0 3.14159265358979
2  104 33 0 0 3.14159265358979
2  105 27 0 0 3.14159265358979
4 G1 27 0 33 0
0

0101000
+21 0 -23 0 *
Wi

0101100
+78 0 +77 0 +22 0 +20 0 +19 0 -22 0 *
Fa
0  1e-07 27 0

0111000
+18 0 *
Ve
1e-07
0 7.203983368862 2.441620559704
0 0

0101101
*
Ed
 1e-07 1 1 0
1  74 0 0 6.28318530717959
2  106 32 0 0 6.28318530717959
4 C0 32 0 34 0
0

0101100
+16 0 -16 0 *
Ed
 1e-07 1 1 0
1  75 0 0 2.77239433326121
3  107 108CN 32 0 0 2.77239433326121
0

0101000
+40 0 -16 0 *
Wi

0101100
-15 0 -14 0 -38 0 +14 0 *
Fa
0  1e-07 32 0

0111000
+13 0 *
Ve
1e-07
0 7.641048613362 -1.817426701956
0 0

0101101
*
Ed
 1e-07 1 1 0
1  76 0 0 2.77239433326203
3  109 110CN 33 0 0 2.77239433326203
0

0101000
+21 0 -11 0 *
Ed
 1e-07 1 1 0
1  77 0 0 6.28318530717959
2  111 33 0 0 6.28318530717959
4 C0 33 0 35 0
0

0101100
+11 0 -11 0 *
Wi

0101100
+10 0 -9 0 -10 0 -20 0 -19 0 *
Fa
0  1e-07 33 0

0111000
+8 0 *
Wi

0101100
+15 0 *
Fa
0  1e-07 34 0

0111000
+6 0 *
Wi

0101100
+9 0 *
Fa
0  1e-07 35 0

0111000
+4 0 *
Sh

0101100
+161 0 +158 0 -155 0 +136 0 +133 0 -128 0 +111 0 +108 0 -105 0 +102 0 
+90 0 +86 0 -84 0 +68 0 +64 0 -62 0 +59 0 -56 0 +53 0 -51 0 
+48 0 +46 0 +43 0 +41 0 +36 0 -34 0 +31 0 +29 0 +26 0 +24 0 
+17 0 +12 0 +7 0 +5 0 +3 0 *
So

0100000
+2 0 *

+1 0 