DBRep_DrawableShape

CASCADE Topology V1, (c) Matra-Datavision
Locations 11
1
              1               0               0               0 
              0               1               0               0 
              0               0               1               0 
2  1 -1 0
1
              1               0               0               0 
              0               1               0               0 
              0               0               1               0 
1
              1               0               0               0 
              0             0.5 -0.866025403784439               0 
              0 0.866025403784439             0.5               0 
2  3 -1 0
2  1 -1 3 -1 0
1
              1               0               0               0 
              0            -0.5 -0.866025403784439               0 
              0 0.866025403784439            -0.5               0 
2  7 -1 0
2  1 -1 7 -1 0
2  4 -1 0
2  1 -1 4 -1 0
Curve2ds 190
1 0 0 1 0 
2 -9.9999999999999998e-17 4.9999999999999999e-17 1 0 -0 1 4.5999999999999996
1 4.9134695664328945 0 0 1 
1 0 24.507316101351222 1 0 
1 0 2.3999999999999999 1 0 
2 0 0 1 0 -0 1 4.5999999999999996
1 5.5585059455330823 0 0 1 
1 -8.8817841970012523e-16 24.507316101351222 1 0 
1 0 0 0 1 
1 0.91874999999999984 20 0 -1 
1 2.3999999999999999 10 0 -1 
1 0.91874999999999996 10 0 1 
1 -4.9499999999999993 23.091362715292398 1 0 
1 5.0012741006446788 0 0 1 
1 0 0 0 -1 
1 6.4158048663697169 0 0 -1 
1 6.4158048663697169 0 0 -1 
1 0 0 0 -1 
1 0 0 1 0 
1 -1.7999999999999999e-16 -6.4158048663697169 0.86602540378443871 0.49999999999999994 
1 0 -3.9499999999999997 1 0 
1 -9.9999999999999998e-17 -6.4158048663697169 0.86602540378443871 0.49999999999999994 
1 0 0 0 -1 
1 6.4158048663697205 0 0 -1 
1 0 0 1 0 
1 -5.5562500000000004 -3.2079024331848593 0.86602540378443871 -0.49999999999999994 
1 0 -3.9499999999999997 1 0 
1 -5.5562500000000004 -3.2079024331848593 0.86602540378443871 -0.49999999999999994 
1 6.4158048663697169 0 0 -1 
1 0 0 0 -1 
1 0 0 1 0 
1 5.5562500000000004 -3.2079024331848593 1.4000000000000001e-16 1 
1 0 -3.9499999999999997 1 0 
1 5.5562500000000004 -3.2079024331848593 1.4000000000000001e-16 1 
1 -5.5562499999999986 3.2079024331848611 -2.8000000000000001e-16 -1 
1 0 0 1 0 
1 5.5562500000000012 3.2079024331848571 -0.8660254037844386 0.50000000000000022 
1 0 0 1 0 
1 6.1000000000000005e-16 6.4158048663697169 -0.86602540378443882 -0.49999999999999978 
1 0 0 1 0 
2 -1.7999999999999999e-16 0 1 0 -0 1 3.2249999999999996
1 0 1 1 0 
1 0 0 0 -1 
1 6.4158048663697151 0 0 -1 
1 0 -3.9499999999999997 1 0 
1 -5.5562499999999986 3.2079024331848611 -2.8000000000000001e-16 -1 
1 6.4158048663697178 0 0 -1 
1 0 0 0 -1 
1 0 -3.9499999999999997 1 0 
1 5.5562500000000012 3.2079024331848571 -0.8660254037844386 0.50000000000000022 
1 0 -3.9499999999999997 1 0 
1 6.8999999999999997e-16 6.4158048663697169 -0.86602540378443882 -0.49999999999999978 
1 6.2831853071795862 -0 0 1 
1 0 -0 0 1 
1 0 7.3499999999999996 1 0 
2 0 0 1 0 -0 1 3.2249999999999996
1 0.23471365533830962 0 0 1 
1 -4.9499999999999993 23.091362715292394 1 0 
1 0 4.9499999999999993 1 0 
2 -9.9999999999999998e-17 4.9999999999999999e-17 1 0 -0 1 3.2249999999999996
1 0.81248389585828718 0 0 1 
1 -4.9499999999999993 23.091362715292394 1 0 
1 0 7.3499999999999996 1 0 
2 0 0 1 0 -0 1 3.2249999999999996
1 1.2819112065349079 0 0 1 
1 -4.9499999999999993 16.908637284707602 1 0 
1 0 4.9499999999999993 1 0 
2 -9.9999999999999998e-17 4.9999999999999999e-17 1 0 -0 1 3.2249999999999996
1 1.8596814470548853 0 0 1 
1 -4.9499999999999993 16.908637284707602 1 0 
1 0 7.3499999999999996 1 0 
2 0 0 1 0 -0 1 3.2249999999999996
1 2.3291087577315053 0 0 1 
1 -4.9499999999999993 16.908637284707602 1 0 
1 0 4.9499999999999993 1 0 
2 -9.9999999999999998e-17 4.9999999999999999e-17 1 0 -0 1 3.2249999999999996
1 2.9068789982514831 0 0 1 
1 -4.9499999999999993 16.908637284707602 1 0 
1 0 7.3499999999999996 1 0 
2 0 0 1 0 -0 1 3.2249999999999996
1 3.3763063089281031 0 0 1 
1 -4.9499999999999993 16.908637284707599 1 0 
1 0 4.9499999999999993 1 0 
2 -9.9999999999999998e-17 4.9999999999999999e-17 1 0 -0 1 3.2249999999999996
1 3.954076549448081 0 0 1 
1 -4.9499999999999993 16.908637284707599 1 0 
1 0 7.3499999999999996 1 0 
2 0 0 1 0 -0 1 3.2249999999999996
1 4.4235038601247005 0 0 1 
1 -4.9499999999999993 23.091362715292398 1 0 
1 0 4.9499999999999993 1 0 
2 -9.9999999999999998e-17 4.9999999999999999e-17 1 0 -0 1 3.2249999999999996
1 0 7.3499999999999996 1 0 
2 0 0 1 0 -0 1 3.2249999999999996
1 5.4707014113212988 0 0 1 
1 -4.9499999999999993 23.091362715292398 1 0 
1 0 4.9499999999999993 1 0 
2 -9.9999999999999998e-17 4.9999999999999999e-17 1 0 -0 1 3.2249999999999996
1 6.0484716518412762 0 0 1 
1 -4.9499999999999993 23.091362715292398 1 0 
1 0 7.3499999999999996 1 0 
2 0 0 1 0 -0 1 3.2249999999999996
1 -8.2008790378443841 5.7956608397269544 -0.8660254037844386 0.50000000000000011 
1 2.3999999999999981 10.000000000000002 0 -1 
1 -8.2008790378443859 -5.7956608397269518 -0.86602540378443882 -0.49999999999999983 
1 2.3999999999999981 9.9999999999999982 0 -1 
2 0 0 1 0 -0 1 4.5999999999999996
1 6.2831853071795862 2.3999999999999999 1 0 
2 0 0 1 0 -0 1 4.5999999999999996
1 0 2.3999999999999999 1 0 
1 0 0 0 1 
1 -16.861133075688777 -10.795660839726951 0.86602540378443882 0.49999999999999989 
1 -8.8817841970012523e-16 24.507316101351222 1 0 
1 6.6057034967296797 0 0 1 
1 0 0 0 1 
1 -17.77988307568878 -9.2043391602730456 0.86602540378443882 0.49999999999999989 
1 -8.8817841970012523e-16 24.507316101351222 1 0 
1 0.72467936164650304 0 0 1 
1 2.3999999999999981 9.9999999999999982 0 -1 
1 -9.1196290378443869 -4.2043391602730456 -0.86602540378443882 -0.49999999999999983 
1 0.91874999999999996 10 0 1 
1 2.3999999999999999 10 0 -1 
2 0 0 1 0 -0 1 4.5999999999999996
1 0 2.3999999999999999 1 0 
1 0 0 0 1 
1 0.91874999999999984 20 0 -1 
1 0 15.492683898648776 1 0 
1 1.369715740746692 0 0 1 
1 0 0 0 1 
1 -0.91875000000000007 20 0 -1 
1 2.3999999999999999 10 0 -1 
1 -0.91874999999999996 10 0 1 
1 0 15.492683898648776 1 0 
1 1.7718769128431011 0 0 1 
1 -8.2008790378443841 5.7956608397269544 -0.8660254037844386 0.50000000000000011 
1 2.3999999999999981 10.000000000000002 0 -1 
2 0 0 1 0 -0 1 4.5999999999999996
1 0 2.3999999999999999 1 0 
1 0 0 0 1 
1 -16.86113307568878 10.795660839726953 0.86602540378443882 -0.49999999999999989 
1 -8.8817841970012523e-16 15.492683898648778 1 0 
1 2.4169132919432896 0 0 1 
1 0 0 0 1 
1 -17.779883075688783 9.2043391602730473 0.86602540378443882 -0.49999999999999989 
1 2.3999999999999981 10 0 -1 
1 -9.1196290378443869 4.2043391602730482 -0.8660254037844386 0.50000000000000011 
1 -8.8817841970012523e-16 15.492683898648776 1 0 
1 2.8190744640396987 0 0 1 
1 -9.1196290378443869 -4.2043391602730456 -0.86602540378443882 -0.49999999999999983 
1 2.3999999999999981 9.9999999999999982 0 -1 
2 0 0 1 0 -0 1 4.5999999999999996
1 0 2.3999999999999999 1 0 
1 0 0 0 1 
1 -17.77988307568878 -9.2043391602730456 0.86602540378443882 0.49999999999999989 
1 -8.8817841970012523e-16 15.492683898648771 1 0 
1 3.464110843139887 0 0 1 
1 0 0 0 1 
1 -16.861133075688777 -10.795660839726951 0.86602540378443882 0.49999999999999989 
1 2.3999999999999981 9.9999999999999982 0 -1 
1 -8.2008790378443859 -5.7956608397269518 -0.86602540378443882 -0.49999999999999983 
1 -8.8817841970012523e-16 15.492683898648773 1 0 
1 3.8662720152362966 0 0 1 
1 0 2.3999999999999999 1 0 
2 0 0 1 0 -0 1 4.5999999999999996
1 4.5113083943364849 0 0 1 
1 0 24.507316101351222 1 0 
1 0 0 1 0 
2 -9.9999999999999998e-17 4.9999999999999999e-17 1 0 -0 1 4.5999999999999996
1 -0.91874999999999996 10 0 1 
1 2.3999999999999999 10 0 -1 
1 0 0 0 1 
1 -0.91875000000000007 20 0 -1 
1 -9.1196290378443869 4.2043391602730482 -0.8660254037844386 0.50000000000000011 
1 2.3999999999999981 10 0 -1 
1 0 0 0 1 
1 -17.779883075688783 9.2043391602730473 0.86602540378443882 -0.49999999999999989 
1 0 0 0 1 
1 -16.86113307568878 10.795660839726953 0.86602540378443882 -0.49999999999999989 
1 -8.8817841970012523e-16 24.507316101351222 1 0 
1 5.9606671176294919 0 0 1 
1 0 0 1 0 
2 -9.9999999999999998e-17 4.9999999999999999e-17 1 0 -0 1 4.5999999999999996
1 0 0 1 0 
2 -9.9999999999999998e-17 4.9999999999999999e-17 1 0 -0 1 4.5999999999999996
1 0 0 1 0 
2 -9.9999999999999998e-17 4.9999999999999999e-17 1 0 -0 1 4.5999999999999996
2 -9.9999999999999998e-17 4.9999999999999999e-17 1 0 -0 1 4.5999999999999996
1 6.2831853071795862 0 1 0 
2 -9.9999999999999998e-17 4.9999999999999999e-17 1 0 -0 1 4.5999999999999996
1 0 0 1 0 
Curves 95
2 3.9499999999999997 0 0 1 0 -0 0 0 1 0 -1 0 4.5999999999999996
1 3.9499999999999997 4.5073161013512237 0.91874999999999996 1 0 0 
2 6.3499999999999996 0 0 1 0 -0 0 0 1 0 -1 0 4.5999999999999996
1 3.9499999999999997 3.0493188904025654 3.4440752466567952 1 0 0 
1 3.9499999999999997 -20 0.91874999999999996 0 1 0 
1 6.3499999999999996 -10 0.91874999999999996 0 -1 0 
1 -1 3.0913627152923997 0.91874999999999996 1 0 0 
1 0 6.4158048663697169 0 1 0 0 
1 0 3.2079024331848593 5.5562500000000004 1 0 0 
1 0 6.4158048663697169 0 0 -0.49999999999999994 0.86602540378443871 
1 3.9499999999999997 6.4158048663697169 0 0 -0.49999999999999994 0.86602540378443871 
1 0 3.2079024331848593 -5.5562500000000004 1 0 0 
1 0 3.2079024331848593 -5.5562500000000004 0 0.49999999999999994 0.86602540378443871 
1 3.9499999999999997 3.2079024331848593 -5.5562500000000004 0 0.49999999999999994 0.86602540378443871 
1 0 -3.2079024331848571 5.5562500000000012 1 0 0 
1 0 3.2079024331848593 5.5562500000000004 0 -1 1.4000000000000001e-16 
1 3.9499999999999997 3.2079024331848593 5.5562500000000004 0 -1 1.4000000000000001e-16 
1 0 -3.2079024331848611 -5.5562499999999986 0 1 -2.8000000000000001e-16 
1 0 -3.2079024331848571 5.5562500000000012 0 -0.50000000000000022 -0.8660254037844386 
1 0 -6.4158048663697169 7.9000000000000002e-16 0 0.49999999999999978 -0.86602540378443882 
2 0 0 0 1 0 -0 0 0 1 0 -1 0 3.2249999999999996
1 0 -3.2079024331848611 -5.5562499999999986 1 0 0 
1 3.9499999999999997 -3.2079024331848611 -5.5562499999999986 0 1 -2.8000000000000001e-16 
1 0 -6.4158048663697169 7.9000000000000002e-16 1 0 0 
1 3.9499999999999997 -3.2079024331848571 5.5562500000000012 0 -0.50000000000000022 -0.8660254037844386 
1 3.9499999999999997 -6.4158048663697169 7.9000000000000002e-16 0 0.49999999999999978 -0.86602540378443882 
1 -1 7.9000000000000002e-16 3.2249999999999996 1 0 0 
2 6.3499999999999996 0 0 1 0 -0 0 0 1 0 -1 0 3.2249999999999996
1 -1 -0.75002051791924507 3.1365736437552596 1 0 0 
2 3.9499999999999993 0 0 1 0 -0 0 0 1 0 -1 0 3.2249999999999996
1 -1 -2.3413421973731521 2.2178236437552599 1 0 0 
2 6.3499999999999996 0 0 1 0 -0 0 0 1 0 -1 0 3.2249999999999996
1 -1 -3.0913627152923997 0.91874999999999996 1 0 0 
2 3.9499999999999993 0 0 1 0 -0 0 0 1 0 -1 0 3.2249999999999996
1 -1 -3.0913627152923997 -0.91874999999999996 1 0 0 
2 6.3499999999999996 0 0 1 0 -0 0 0 1 0 -1 0 3.2249999999999996
1 -1 -2.3413421973731539 -2.2178236437552581 1 0 0 
2 3.9499999999999993 0 0 1 0 -0 0 0 1 0 -1 0 3.2249999999999996
1 -1 -0.75002051791924718 -3.1365736437552592 1 0 0 
2 6.3499999999999996 0 0 1 0 -0 0 0 1 0 -1 0 3.2249999999999996
1 -1 0.75002051791924684 -3.1365736437552592 1 0 0 
2 3.9499999999999993 0 0 1 0 -0 0 0 1 0 -1 0 3.2249999999999996
1 -1 2.3413421973731534 -2.2178236437552585 1 0 0 
2 6.3499999999999996 0 0 1 0 -0 0 0 1 0 -1 0 3.2249999999999996
1 -1 3.0913627152923997 -0.91874999999999996 1 0 0 
2 3.9499999999999993 0 0 1 0 -0 0 0 1 0 -1 0 3.2249999999999996
2 6.3499999999999996 0 0 1 0 -0 0 0 1 0 -1 0 3.2249999999999996
1 -1 2.3413421973731534 2.217823643755259 1 0 0 
2 3.9499999999999993 0 0 1 0 -0 0 0 1 0 -1 0 3.2249999999999996
1 -1 0.75002051791924618 3.1365736437552592 1 0 0 
2 6.3499999999999996 0 0 1 0 -0 0 0 1 0 -1 0 3.2249999999999996
1 6.3499999999999996 -5.7956608397269544 -8.2008790378443841 0 -0.50000000000000011 -0.8660254037844386 
1 6.3499999999999996 5.7956608397269518 -8.2008790378443859 0 0.49999999999999983 -0.86602540378443882 
2 6.3499999999999996 0 0 1 0 -0 0 0 1 0 -1 0 4.5999999999999996
2 6.3499999999999996 0 0 1 0 -0 0 0 1 0 -1 0 4.5999999999999996
1 3.9499999999999997 -19.999999999999996 -0.91874999999999984 0 1 0 
1 3.9499999999999997 -1.457997210948657 4.3628252466567963 1 0 0 
1 3.9499999999999997 -19.999999999999996 0.91874999999999984 0 1 0 
1 3.9499999999999997 -3.0493188904025641 3.4440752466567974 1 0 0 
1 6.3499999999999996 4.2043391602730456 -9.1196290378443869 0 0.49999999999999983 -0.86602540378443882 
1 6.3499999999999996 -10 0.91874999999999996 0 -1 0 
2 6.3499999999999996 0 0 1 0 -0 0 0 1 0 -1 0 4.5999999999999996
1 3.9499999999999997 -20 0.91874999999999996 0 1 0 
1 3.9499999999999997 -4.5073161013512237 0.91874999999999996 1 0 0 
1 3.9499999999999997 -20 -0.91874999999999996 0 1 0 
1 6.3499999999999996 -10 -0.91874999999999996 0 -1 0 
1 3.9499999999999997 -4.5073161013512237 -0.91874999999999996 1 0 0 
1 6.3499999999999996 -5.7956608397269544 -8.2008790378443841 0 -0.50000000000000011 -0.8660254037844386 
2 6.3499999999999996 0 0 1 0 -0 0 0 1 0 -1 0 4.5999999999999996
1 3.9499999999999997 -20 0.91874999999999996 0 1 0 
1 3.9499999999999997 -3.0493188904025663 -3.4440752466567948 1 0 0 
1 3.9499999999999997 -20 -0.91874999999999996 0 1 0 
1 6.3499999999999996 -4.2043391602730482 -9.1196290378443869 0 -0.50000000000000011 -0.8660254037844386 
1 3.9499999999999997 -1.4579972109486592 -4.3628252466567954 1 0 0 
1 6.3499999999999996 4.2043391602730456 -9.1196290378443869 0 0.49999999999999983 -0.86602540378443882 
2 6.3499999999999996 0 0 1 0 -0 0 0 1 0 -1 0 4.5999999999999996
1 3.9499999999999997 -19.999999999999996 0.91874999999999984 0 1 0 
1 3.9499999999999997 1.4579972109486588 -4.3628252466567963 1 0 0 
1 3.9499999999999997 -19.999999999999996 -0.91874999999999984 0 1 0 
1 6.3499999999999996 5.7956608397269518 -8.2008790378443859 0 0.49999999999999983 -0.86602540378443882 
1 3.9499999999999997 3.049318890402565 -3.4440752466567957 1 0 0 
2 6.3499999999999996 0 0 1 0 -0 0 0 1 0 -1 0 4.5999999999999996
1 3.9499999999999997 4.5073161013512237 -0.91874999999999996 1 0 0 
2 3.9499999999999997 0 0 1 0 -0 0 0 1 0 -1 0 4.5999999999999996
1 6.3499999999999996 -10 -0.91874999999999996 0 -1 0 
1 3.9499999999999997 -20 -0.91874999999999996 0 1 0 
1 6.3499999999999996 -4.2043391602730482 -9.1196290378443869 0 -0.50000000000000011 -0.8660254037844386 
1 3.9499999999999997 -20 -0.91874999999999996 0 1 0 
1 3.9499999999999997 -20 0.91874999999999996 0 1 0 
1 3.9499999999999997 1.4579972109486583 4.3628252466567963 1 0 0 
2 3.9499999999999997 0 0 1 0 -0 0 0 1 0 -1 0 4.5999999999999996
2 3.9499999999999997 0 0 1 0 -0 0 0 1 0 -1 0 4.5999999999999996
2 3.9499999999999997 0 0 1 0 -0 0 0 1 0 -1 0 4.5999999999999996
2 3.9499999999999997 0 0 1 0 -0 0 0 1 0 -1 0 4.5999999999999996
2 3.9499999999999997 0 0 1 0 -0 0 0 1 0 -1 0 4.5999999999999996
Polygon3D 0
PolygonOnTriangulations 0
Surfaces 33
2 3.9499999999999997 0 0 1 0 0 0 0 1 0 -1 0 4.5999999999999996
1 3.9499999999999988 4.9999999999999999e-17 9.9999999999999998e-17 1 0 0 0 0 1 0 -1 0 
1 3.9499999999999997 -20 0.91874999999999996 0 0 1 1 0 -0 -0 1 0 
1 6.3499999999999996 0 0 1 0 0 0 0 1 0 -1 0 
1 3.9499999999999997 -20 -0.91874999999999996 0 0 1 1 0 -0 -0 1 0 
2 -1 0 0 1 0 0 0 0 1 0 -1 0 3.2249999999999996
1 0 6.4158048663697169 0 0 -0.86602540378443871 -0.49999999999999994 0 -0.49999999999999994 0.86602540378443871 -1 -0 0 
1 0 3.2079024331848593 -5.5562500000000004 0 -0.86602540378443871 0.49999999999999994 0 0.49999999999999994 0.86602540378443871 -1 0 0 
1 0 3.2079024331848593 5.5562500000000004 0 -1.4000000000000001e-16 -1 0 -1 1.4000000000000001e-16 -1 -0 0 
1 0 0 1.7999999999999999e-16 1 0 0 0 0 1 0 -1 0 
1 0 -3.2079024331848611 -5.5562499999999986 0 2.8000000000000001e-16 1 0 1 -2.8000000000000001e-16 -1 0 0 
1 0 -3.2079024331848571 5.5562500000000012 0 0.8660254037844386 -0.50000000000000022 0 -0.50000000000000022 -0.8660254037844386 -1 0 -0 
1 0 -6.4158048663697169 7.9000000000000002e-16 0 0.86602540378443882 0.49999999999999978 0 0.49999999999999978 -0.86602540378443882 -1 0 0 
1 6.3499999999999996 0 0 1 0 0 0 0 1 0 -1 0 
1 3.9499999999999997 -19.999999999999996 -0.91874999999999984 0 0 1 1 0 -0 -0 1 0 
1 3.9499999999999997 -19.999999999999996 0.91874999999999984 0 0 1 1 0 -0 -0 1 0 
1 6.3499999999999996 0 0 1 0 0 0 0 1 0 -1 0 
1 3.9499999999999997 -20 0.91874999999999996 0 0 1 1 0 -0 -0 1 0 
1 3.9499999999999997 -20 -0.91874999999999996 0 0 1 1 0 -0 -0 1 0 
1 6.3499999999999996 0 0 1 0 0 0 0 1 0 -1 0 
1 3.9499999999999997 -20 0.91874999999999996 0 0 1 1 0 -0 -0 1 0 
1 3.9499999999999997 -20 -0.91874999999999996 0 0 1 1 0 -0 -0 1 0 
1 6.3499999999999996 0 0 1 0 0 0 0 1 0 -1 0 
1 3.9499999999999997 -19.999999999999996 0.91874999999999984 0 0 1 1 0 -0 -0 1 0 
1 3.9499999999999997 -19.999999999999996 -0.91874999999999984 0 0 1 1 0 -0 -0 1 0 
1 6.3499999999999996 0 0 1 0 0 0 0 1 0 -1 0 
1 3.9499999999999997 -20 -0.91874999999999996 0 0 1 1 0 -0 -0 1 0 
1 3.9499999999999997 -20 0.91874999999999996 0 0 1 1 0 -0 -0 1 0 
2 3.9499999999999997 0 0 1 0 0 0 0 1 0 -1 0 4.5999999999999996
2 3.9499999999999997 0 0 1 0 0 0 0 1 0 -1 0 4.5999999999999996
2 3.9499999999999997 0 0 1 0 0 0 0 1 0 -1 0 4.5999999999999996
2 3.9499999999999997 0 0 1 0 0 0 0 1 0 -1 0 4.5999999999999996
2 3.9499999999999997 0 0 1 0 0 0 0 1 0 -1 0 4.5999999999999996
Triangulations 0

TShapes 229
Ve
1.00000064e-07
3.95 4.5073161013512 0.91875000000006
0 0

0101101
*
Ve
1.00000013e-07
3.95 3.04931889040256 3.4440752466568
0 0

0101101
*
Ed
 1e-07 1 1 0
1  1 0 4.91346956643291 5.55850594553309
2  1 1 0 4.91346956643291 5.55850594553309
2  2 2 0 4.91346956643291 5.55850594553309
0

0101000
+229 2 -228 2 *
Ve
1.5e-07
6.35 4.50731610135122 0.91875
0 0

0101101
*
Ed
 1e-07 1 1 0
1  2 0 0 2.4
2  3 1 0 0 2.4
2  4 3 3 0 2.4
0

0101000
+229 2 -226 2 *
Ve
1.50000003e-07
6.35 3.04931889040257 3.44407524665679
0 0

0101101
*
Ed
 1e-07 1 1 0
1  3 0 4.91346956643289 5.55850594553308
2  5 1 0 4.91346956643289 5.55850594553308
2  6 4 0 4.91346956643289 5.55850594553308
0

0101000
+226 2 -224 2 *
Ed
 1e-07 1 1 0
1  4 0 0 2.4
2  7 1 0 0 2.4
2  8 5 4 0 2.4
0

0101000
+228 2 -224 2 *
Wi

0101100
+227 0 -225 0 -223 0 +222 0 *
Fa
0  1e-07 1 0

0111000
+221 0 *
Ve
1.00000002e-07
3.95 3.0913627152924 0.91875
0 0

0101101
*
Ed
 1e-07 1 1 0
1  5 0 23.0913627152924 24.5073161013512
2  9 3 0 23.0913627152924 24.5073161013512
2  10 2 5 23.0913627152924 24.5073161013512
0

0101000
+219 6 -229 6 *
Ve
1.50000001e-07
6.35 3.0913627152924 0.918750000000001
0 0

0101101
*
Ed
 1.5e-07 1 1 0
1  6 0 -14.5073161013512 -13.0913627152924
2  11 3 3 -14.5073161013512 -13.0913627152924
2  12 4 0 -14.5073161013512 -13.0913627152924
0

0101000
+226 2 -217 2 *
Ed
 1e-07 1 1 0
1  7 0 4.95 7.35
2  13 3 3 4.95 7.35
2  14 6 0 4.95 7.35
0

0101000
+219 2 -217 2 *
Wi

0101100
-218 3 -225 0 -216 0 +215 0 *
Fa
0  1e-07 3 3

0111000
+214 0 *
Ve
1e-07
0 6.41580486636972 0
0 0

0101101
*
Ve
1e-07
3.95 6.41580486636972 0
0 0

0101101
*
Ed
 1e-07 1 1 0
1  8 0 0 3.95
2  15 7 0 0 3.95
2  16 8 0 0 3.95
0

0101000
+212 2 -211 2 *
Ve
1e-07
0 3.20790243318486 5.55625
0 0

0101101
*
Ve
1e-07
3.95 3.20790243318486 5.55625
0 0

0101101
*
Ed
 1e-07 1 1 0
1  9 0 0 3.95
2  17 7 0 0 3.95
2  18 9 0 0 3.95
0

0101000
+209 2 -208 2 *
Ed
 1e-07 1 1 0
1  10 0 0 6.41580486636972
2  19 7 0 0 6.41580486636972
2  20 10 0 0 6.41580486636972
0

0101000
+212 2 -209 2 *
Ed
 1e-07 1 1 0
1  11 0 -1e-15 6.41580486636972
2  21 7 0 -1e-15 6.41580486636972
2  22 2 0 -1e-15 6.41580486636972
0

0101000
+211 2 -208 2 *
Wi

0101000
+210 0 -207 0 -206 0 +205 0 *
Fa
0  1e-07 7 0

0111000
+204 0 *
Ve
1e-07
0 3.20790243318486 -5.55625
0 0

0101101
*
Ve
1e-07
3.95 3.20790243318486 -5.55625
0 0

0101101
*
Ed
 1e-07 1 1 0
1  12 0 0 3.95
2  23 8 0 0 3.95
2  24 11 0 0 3.95
0

0101000
+202 2 -201 2 *
Ed
 1e-07 1 1 0
1  13 0 0 6.41580486636972
2  25 8 0 0 6.41580486636972
2  26 10 0 0 6.41580486636972
0

0101000
+202 2 -212 2 *
Ed
 1e-07 1 1 0
1  14 0 -1e-15 6.41580486636972
2  27 8 0 -1e-15 6.41580486636972
2  28 2 0 -1e-15 6.41580486636972
0

0101000
+201 2 -211 2 *
Wi

0101000
+200 0 -210 0 -199 0 +198 0 *
Fa
0  1e-07 8 0

0111000
+197 0 *
Ve
1e-07
0 -3.20790243318486 5.55625
0 0

0101101
*
Ve
1e-07
3.95 -3.20790243318486 5.55625
0 0

0101101
*
Ed
 1e-07 1 1 0
1  15 0 0 3.95
2  29 9 0 0 3.95
2  30 12 0 0 3.95
0

0101000
+195 2 -194 2 *
Ed
 1e-07 1 1 0
1  16 0 0 6.41580486636972
2  31 9 0 0 6.41580486636972
2  32 10 0 0 6.41580486636972
0

0101000
+209 2 -195 2 *
Ed
 1e-07 1 1 0
1  17 0 0 6.41580486636972
2  33 9 0 0 6.41580486636972
2  34 2 0 0 6.41580486636972
0

0101000
+208 2 -194 2 *
Wi

0101000
+207 0 -193 0 -192 0 +191 0 *
Fa
0  1e-07 9 0

0111000
+190 0 *
Ve
1e-07
0 -3.20790243318486 -5.55625
0 0

0101101
*
Ed
 1e-07 1 1 0
1  18 0 0 6.41580486636972
2  35 10 0 0 6.41580486636972
2  36 11 0 0 6.41580486636972
0

0101000
+188 2 -202 2 *
Ve
1e-07
0 -6.41580486636972 1e-15
0 0

0101101
*
Ed
 1e-07 1 1 0
1  19 0 0 6.41580486636972
2  37 10 0 0 6.41580486636972
2  38 12 0 0 6.41580486636972
0

0101000
+195 2 -186 2 *
Ed
 1e-07 1 1 0
1  20 0 0 6.41580486636971
2  39 10 0 0 6.41580486636971
2  40 13 0 0 6.41580486636971
0

0101000
+186 2 -188 2 *
Wi

0101100
+206 0 +199 0 +192 0 +187 0 +185 0 +184 0 *
Ve
1.00000001e-07
0 1e-15 3.225
0 0

0101101
*
Ed
 1e-07 1 1 0
1  21 0 0 6.28318530717959
2  41 10 0 0 6.28318530717959
2  42 6 0 0 6.28318530717959
0

0101100
+182 2 -182 2 *
Wi

0101100
-181 0 *
Fa
0  1e-07 10 0

0111000
+183 0 +180 0 *
Ve
1e-07
3.95 -3.20790243318486 -5.55625
0 0

0101101
*
Ed
 1e-07 1 1 0
1  22 0 0 3.95
2  43 11 0 0 3.95
2  44 13 0 0 3.95
0

0101000
+188 2 -178 2 *
Ed
 1e-07 1 1 0
1  23 0 0 6.41580486636972
2  45 11 0 0 6.41580486636972
2  46 2 0 0 6.41580486636972
0

0101000
+178 2 -201 2 *
Wi

0101000
+177 0 -200 0 -187 0 +176 0 *
Fa
0  1e-07 11 0

0111000
+175 0 *
Ve
1e-07
3.95 -6.41580486636972 1e-15
0 0

0101101
*
Ed
 1e-07 1 1 0
1  24 0 0 3.95
2  47 12 0 0 3.95
2  48 13 0 0 3.95
0

0101000
+186 2 -173 2 *
Ed
 1e-07 1 1 0
1  25 0 -1e-15 6.41580486636972
2  49 12 0 -1e-15 6.41580486636972
2  50 2 0 -1e-15 6.41580486636972
0

0101000
+194 2 -173 2 *
Wi

0101000
+193 0 -172 0 -185 0 +171 0 *
Fa
0  1e-07 12 0

0111000
+170 0 *
Ed
 1e-07 1 1 0
1  26 0 -1e-15 6.41580486636971
2  51 13 0 -1e-15 6.41580486636971
2  52 2 0 -1e-15 6.41580486636971
0

0101000
+173 2 -178 2 *
Wi

0101000
+172 0 -177 0 -184 0 +168 0 *
Fa
0  1e-07 13 0

0111000
+167 0 *
Ve
1.00000001e-07
6.35 1e-15 3.225
0 0

0101101
*
Ed
 1e-07 1 1 0
1  27 0 1 7.35
3  53 54CN 6 0 1 7.35
0

0101000
+182 2 -165 2 *
Ve
1.50000002e-07
6.35 -0.750020517919244 3.13657364375526
0 0

0101101
*
Ed
 1e-07 1 1 0
1  28 0 0 0.234713655338309
2  55 6 0 0 0.234713655338309
2  56 14 0 0 0.234713655338309
0

0101000
+165 2 -163 2 *
Ve
1.00000012e-07
3.95 -0.750020517919252 3.13657364375527
0 0

0101101
*
Ed
 1e-07 1 1 0
1  29 0 4.95 7.35
2  57 6 0 4.95 7.35
2  58 15 7 4.95 7.35
0

0101000
+161 2 -163 2 *
Ve
1.0000002e-07
3.95 -2.34134219737314 2.21782364375524
0 0

0101101
*
Ed
 1e-07 1 1 0
1  30 0 0.234713655338311 0.812483895858289
2  59 6 0 0.234713655338311 0.812483895858289
2  60 2 0 0.234713655338311 0.812483895858289
0

0101000
+161 2 -159 2 *
Ve
1.50000002e-07
6.35 -2.34134219737315 2.21782364375526
0 0

0101101
*
Ed
 1e-07 1 1 0
1  31 0 4.95 7.35
2  61 6 0 4.95 7.35
2  62 16 7 4.95 7.35
0

0101000
+159 2 -157 2 *
Ve
1.5e-07
6.35 -3.0913627152924 0.91875
0 0

0101101
*
Ed
 1e-07 1 1 0
1  32 0 0.812483895858287 1.28191120653491
2  63 6 0 0.812483895858287 1.28191120653491
2  64 17 0 0.812483895858287 1.28191120653491
0

0101000
+157 2 -155 2 *
Ve
1.00000002e-07
3.95 -3.0913627152924 0.91875
0 0

0101101
*
Ed
 1e-07 1 1 0
1  33 0 4.95 7.35
2  65 6 0 4.95 7.35
2  66 18 3 4.95 7.35
0

0101000
+153 2 -155 2 *
Ve
1.00000002e-07
3.95 -3.0913627152924 -0.91875
0 0

0101101
*
Ed
 1e-07 1 1 0
1  34 0 1.28191120653491 1.85968144705489
2  67 6 0 1.28191120653491 1.85968144705489
2  68 2 0 1.28191120653491 1.85968144705489
0

0101000
+153 2 -151 2 *
Ve
1.5e-07
6.35 -3.0913627152924 -0.91875
0 0

0101101
*
Ed
 1e-07 1 1 0
1  35 0 4.95 7.35
2  69 6 0 4.95 7.35
2  70 19 3 4.95 7.35
0

0101000
+151 2 -149 2 *
Ve
1.5e-07
6.35 -2.34134219737315 -2.21782364375526
0 0

0101101
*
Ed
 1e-07 1 1 0
1  36 0 1.85968144705489 2.3291087577315
2  71 6 0 1.85968144705489 2.3291087577315
2  72 20 0 1.85968144705489 2.3291087577315
0

0101000
+149 2 -147 2 *
Ve
1.00000018e-07
3.95 -2.34134219737316 -2.21782364375527
0 0

0101101
*
Ed
 1e-07 1 1 0
1  37 0 4.95 7.35
2  73 6 0 4.95 7.35
2  74 21 4 4.95 7.35
0

0101000
+145 2 -147 2 *
Ve
1.00000008e-07
3.95 -0.750020517919243 -3.13657364375525
0 0

0101101
*
Ed
 1e-07 1 1 0
1  38 0 2.32910875773151 2.90687899825148
2  75 6 0 2.32910875773151 2.90687899825148
2  76 2 0 2.32910875773151 2.90687899825148
0

0101000
+145 2 -143 2 *
Ve
1.50000001e-07
6.35 -0.750020517919248 -3.13657364375526
0 0

0101101
*
Ed
 1e-07 1 1 0
1  39 0 4.95 7.35
2  77 6 0 4.95 7.35
2  78 22 4 4.95 7.35
0

0101000
+143 2 -141 2 *
Ve
1.50000001e-07
6.35 0.750020517919247 -3.13657364375526
0 0

0101101
*
Ed
 1e-07 1 1 0
1  40 0 2.90687899825148 3.3763063089281
2  79 6 0 2.90687899825148 3.3763063089281
2  80 23 0 2.90687899825148 3.3763063089281
0

0101000
+141 2 -139 2 *
Ve
1.00000023e-07
3.95 0.750020517919236 -3.13657364375524
0 0

0101101
*
Ed
 1e-07 1 1 0
1  41 0 4.95 7.35
2  81 6 0 4.95 7.35
2  82 24 7 4.95 7.35
0

0101000
+137 2 -139 2 *
Ve
1.00000004e-07
3.95 2.34134219737316 -2.21782364375526
0 0

0101101
*
Ed
 1e-07 1 1 0
1  42 0 3.3763063089281 3.95407654944808
2  83 6 0 3.3763063089281 3.95407654944808
2  84 2 0 3.3763063089281 3.95407654944808
0

0101000
+137 2 -135 2 *
Ve
1.50000001e-07
6.35 2.34134219737315 -2.21782364375526
0 0

0101101
*
Ed
 1e-07 1 1 0
1  43 0 4.95 7.35
2  85 6 0 4.95 7.35
2  86 25 7 4.95 7.35
0

0101000
+135 2 -133 2 *
Ve
1.50000002e-07
6.35 3.0913627152924 -0.918750000000002
0 0

0101101
*
Ed
 1e-07 1 1 0
1  44 0 3.95407654944808 4.4235038601247
2  87 6 0 3.95407654944808 4.4235038601247
2  88 26 0 3.95407654944808 4.4235038601247
0

0101000
+133 2 -131 2 *
Ve
1.00000002e-07
3.95 3.0913627152924 -0.91875
0 0

0101101
*
Ed
 1e-07 1 1 0
1  45 0 4.95 7.35
2  89 6 0 4.95 7.35
2  90 27 3 4.95 7.35
0

0101000
+129 2 -131 2 *
Ed
 1e-07 1 1 0
1  46 0 4.4235038601247 5.00127410064468
2  91 6 0 4.4235038601247 5.00127410064468
2  92 2 0 4.4235038601247 5.00127410064468
0

0101000
+129 2 -219 2 *
Ve
1.50000002e-07
6.35 2.34134219737315 2.21782364375526
0 0

0101101
*
Ed
 1e-07 1 1 0
1  47 0 5.00127410064468 5.4707014113213
2  93 6 0 5.00127410064468 5.4707014113213
2  94 4 0 5.00127410064468 5.4707014113213
0

0101000
+217 2 -126 2 *
Ve
1.00000011e-07
3.95 2.34134219737315 2.21782364375525
0 0

0101101
*
Ed
 1e-07 1 1 0
1  48 0 4.95 7.35
2  95 6 0 4.95 7.35
2  96 5 4 4.95 7.35
0

0101000
+124 2 -126 2 *
Ve
1.00000021e-07
3.95 0.750020517919257 3.13657364375528
0 0

0101101
*
Ed
 1e-07 1 1 0
1  49 0 5.4707014113213 6.04847165184127
2  97 6 0 5.4707014113213 6.04847165184127
2  98 2 0 5.4707014113213 6.04847165184127
0

0101000
+124 2 -122 2 *
Ve
1.50000001e-07
6.35 0.750020517919247 3.13657364375526
0 0

0101101
*
Ed
 1e-07 1 1 0
1  50 0 4.95 7.35
2  99 6 0 4.95 7.35
2  100 28 4 4.95 7.35
0

0101000
+122 2 -120 2 *
Ed
 1e-07 1 1 0
1  51 0 6.04847165184128 6.28318530717959
2  101 6 0 6.04847165184128 6.28318530717959
2  102 14 0 6.04847165184128 6.28318530717959
0

0101000
+120 2 -165 2 *
Wi

0101100
-164 0 -162 0 +160 0 -158 0 -156 0 -154 0 +152 0 -150 0 -148 0 -146 0 
+144 0 -142 0 -140 0 -138 0 +136 0 -134 0 -132 0 -130 0 +128 0 -127 0 
-215 0 -125 0 +123 0 -121 0 -119 0 -118 0 +164 0 +181 0 *
Fa
0  1e-07 6 0

0111000
+117 0 *
Ve
1.50000002e-07
6.35 1.45799721094866 4.3628252466568
0 0

0101101
*
Ed
 1.5e-07 1 1 0
1  52 0 -14.5073161013512 -13.0913627152924
2  103 14 0 -14.5073161013512 -13.0913627152924
2  104 28 4 -14.5073161013512 -13.0913627152924
0

0101000
+115 2 -120 2 *
Ve
1.50000001e-07
6.35 -1.45799721094866 4.3628252466568
0 0

0101101
*
Ed
 1.5e-07 1 1 0
1  53 0 -14.5073161013512 -13.0913627152924
2  105 14 0 -14.5073161013512 -13.0913627152924
2  106 15 7 -14.5073161013512 -13.0913627152924
0

0101000
+113 2 -163 2 *
Ve
1e-07
6.35 1e-15 4.6
0 0

0101101
*
Ed
 1e-07 1 1 0
1  54 0 0 0.322518189550094
2  107 14 0 0 0.322518189550094
2  108 29 0 0 0.322518189550094
0

0101000
+111 2 -113 2 *
Ed
 1e-07 1 1 0
1  55 0 5.96066711762949 6.28318530717959
2  109 14 0 5.96066711762949 6.28318530717959
2  110 29 0 5.96066711762949 6.28318530717959
0

0101000
+115 2 -111 2 *
Wi

0101100
-114 0 -118 0 -162 0 +112 0 +110 0 +109 0 *
Fa
0  1e-07 14 0

0111000
+108 0 *
Ve
1.00000094e-07
3.95 -1.45799721094856 4.36282524665681
0 0

0101101
*
Ed
 1e-07 1 1 0
1  56 0 23.0913627152924 24.5073161013512
2  111 15 0 23.0913627152924 24.5073161013512
2  112 2 8 23.0913627152924 24.5073161013512
0

0101000
+161 9 -106 9 *
Ed
 1e-07 1 1 0
1  57 0 0 2.4
2  113 15 7 0 2.4
2  114 29 0 0 2.4
0

0101000
+106 2 -113 2 *
Wi

0101100
-105 7 -104 0 -112 0 +160 0 *
Fa
0  1e-07 15 7

0111000
+103 0 *
Ve
1.00000013e-07
3.95 -3.04931889040256 3.44407524665681
0 0

0101101
*
Ed
 1e-07 1 1 0
1  58 0 23.0913627152924 24.5073161013512
2  115 16 0 23.0913627152924 24.5073161013512
2  116 2 8 23.0913627152924 24.5073161013512
0

0101000
+159 9 -101 9 *
Ve
1.50000003e-07
6.35 -3.04931889040256 3.4440752466568
0 0

0101101
*
Ed
 1e-07 1 1 0
1  59 0 0 2.4
2  117 16 7 0 2.4
2  118 30 0 0 2.4
0

0101000
+101 2 -99 2 *
Ed
 1.5e-07 1 1 0
1  60 0 -14.5073161013512 -13.0913627152924
2  119 16 7 -14.5073161013512 -13.0913627152924
2  120 17 0 -14.5073161013512 -13.0913627152924
0

0101000
+99 2 -157 2 *
Wi

0101100
-100 7 -98 0 -97 0 +156 0 *
Fa
0  1e-07 16 7

0111000
+96 0 *
Ve
1.5e-07
6.35 -4.50731610135122 0.91875
0 0

0101101
*
Ed
 1.5e-07 1 1 0
1  61 0 -6.9086372847076 -5.49268389864878
2  121 17 0 -6.9086372847076 -5.49268389864878
2  122 18 3 -6.9086372847076 -5.49268389864878
0

0101000
+155 2 -94 2 *
Ed
 1e-07 1 1 0
1  62 0 0.724679361646503 1.36971574074669
2  123 17 0 0.724679361646503 1.36971574074669
2  124 30 0 0.724679361646503 1.36971574074669
0

0101000
+99 2 -94 2 *
Wi

0101100
-97 0 -154 0 -93 0 +92 0 *
Fa
0  1e-07 17 0

0111000
+91 0 *
Ve
1.00000064e-07
3.95 -4.5073161013512 0.91875000000006
0 0

0101101
*
Ed
 1e-07 1 1 0
1  63 0 15.4926838986488 16.9086372847076
2  125 18 0 15.4926838986488 16.9086372847076
2  126 2 5 15.4926838986488 16.9086372847076
0

0101000
+89 6 -153 6 *
Ed
 1e-07 1 1 0
1  64 0 0 2.4
2  127 18 3 0 2.4
2  128 30 0 0 2.4
0

0101000
+89 2 -94 2 *
Wi

0101100
-88 3 -152 0 -93 0 +87 0 *
Fa
0  1e-07 18 3

0111000
+86 0 *
Ve
1.00000051e-07
3.95 -4.50731610135124 -0.918749999999952
0 0

0101101
*
Ed
 1e-07 1 1 0
1  65 0 15.4926838986488 16.9086372847076
2  129 19 0 15.4926838986488 16.9086372847076
2  130 2 5 15.4926838986488 16.9086372847076
0

0101000
+84 6 -151 6 *
Ve
1.5e-07
6.35 -4.50731610135122 -0.91875
0 0

0101101
*
Ed
 1.5e-07 1 1 0
1  66 0 -6.9086372847076 -5.49268389864878
2  131 19 3 -6.9086372847076 -5.49268389864878
2  132 20 0 -6.9086372847076 -5.49268389864878
0

0101000
+149 2 -82 2 *
Ed
 1e-07 1 1 0
1  67 0 0 2.4
2  133 19 3 0 2.4
2  134 31 0 0 2.4
0

0101000
+84 2 -82 2 *
Wi

0101100
-83 3 -148 0 -81 0 +80 0 *
Fa
0  1e-07 19 3

0111000
+79 0 *
Ve
1.50000001e-07
6.35 -3.04931889040257 -3.44407524665679
0 0

0101101
*
Ed
 1.5e-07 1 1 0
1  68 0 -6.9086372847076 -5.49268389864877
2  135 20 0 -6.9086372847076 -5.49268389864877
2  136 21 4 -6.9086372847076 -5.49268389864877
0

0101000
+147 2 -77 2 *
Ed
 1e-07 1 1 0
1  69 0 1.7718769128431 2.41691329194329
2  137 20 0 1.7718769128431 2.41691329194329
2  138 31 0 1.7718769128431 2.41691329194329
0

0101000
+82 2 -77 2 *
Wi

0101100
-146 0 -76 0 +75 0 +81 0 *
Fa
0  1e-07 20 0

0111000
+74 0 *
Ve
1.00000012e-07
3.95 -3.04931889040256 -3.4440752466568
0 0

0101101
*
Ed
 1e-07 1 1 0
1  70 0 15.4926838986488 16.9086372847076
2  139 21 0 15.4926838986488 16.9086372847076
2  140 2 10 15.4926838986488 16.9086372847076
0

0101000
+72 11 -145 11 *
Ed
 1e-07 1 1 0
1  71 0 0 2.4
2  141 21 4 0 2.4
2  142 31 0 0 2.4
0

0101000
+72 2 -77 2 *
Wi

0101100
-71 4 -144 0 -76 0 +70 0 *
Fa
0  1e-07 21 4

0111000
+69 0 *
Ve
1.00000094e-07
3.95 -1.45799721094875 -4.36282524665678
0 0

0101101
*
Ed
 1e-07 1 1 0
1  72 0 15.4926838986487 16.9086372847076
2  143 22 0 15.4926838986487 16.9086372847076
2  144 2 10 15.4926838986487 16.9086372847076
0

0101000
+67 11 -143 11 *
Ve
1.50000001e-07
6.35 -1.45799721094866 -4.3628252466568
0 0

0101101
*
Ed
 1.5e-07 1 1 0
1  73 0 -6.9086372847076 -5.49268389864878
2  145 22 4 -6.9086372847076 -5.49268389864878
2  146 23 0 -6.9086372847076 -5.49268389864878
0

0101000
+141 2 -65 2 *
Ed
 1e-07 1 1 0
1  74 0 0 2.4
2  147 22 4 0 2.4
2  148 32 0 0 2.4
0

0101000
+67 2 -65 2 *
Wi

0101100
-66 4 -140 0 -64 0 +63 0 *
Fa
0  1e-07 22 4

0111000
+62 0 *
Ve
1.50000001e-07
6.35 1.45799721094866 -4.3628252466568
0 0

0101101
*
Ed
 1.5e-07 1 1 0
1  75 0 -6.9086372847076 -5.49268389864878
2  149 23 0 -6.9086372847076 -5.49268389864878
2  150 24 7 -6.9086372847076 -5.49268389864878
0

0101000
+139 2 -60 2 *
Ed
 1e-07 1 1 0
1  76 0 2.8190744640397 3.46411084313989
2  151 23 0 2.8190744640397 3.46411084313989
2  152 32 0 2.8190744640397 3.46411084313989
0

0101000
+65 2 -60 2 *
Wi

0101100
-138 0 -59 0 +58 0 +64 0 *
Fa
0  1e-07 23 0

0111000
+57 0 *
Ve
1.00000093e-07
3.95 1.45799721094875 -4.36282524665678
0 0

0101101
*
Ed
 1e-07 1 1 0
1  77 0 15.4926838986487 16.9086372847076
2  153 24 0 15.4926838986487 16.9086372847076
2  154 2 8 15.4926838986487 16.9086372847076
0

0101000
+55 9 -137 9 *
Ed
 1e-07 1 1 0
1  78 0 0 2.4
2  155 24 7 0 2.4
2  156 32 0 0 2.4
0

0101000
+55 2 -60 2 *
Wi

0101100
-54 7 -136 0 -59 0 +53 0 *
Fa
0  1e-07 24 7

0111000
+52 0 *
Ve
1.00000011e-07
3.95 3.04931889040256 -3.4440752466568
0 0

0101101
*
Ed
 1e-07 1 1 0
1  79 0 15.4926838986488 16.9086372847076
2  157 25 0 15.4926838986488 16.9086372847076
2  158 2 8 15.4926838986488 16.9086372847076
0

0101000
+50 9 -135 9 *
Ve
1.50000002e-07
6.35 3.04931889040257 -3.44407524665679
0 0

0101101
*
Ed
 1.5e-07 1 1 0
1  80 0 -6.9086372847076 -5.49268389864878
2  159 25 7 -6.9086372847076 -5.49268389864878
2  160 26 0 -6.9086372847076 -5.49268389864878
0

0101000
+133 2 -48 2 *
Ed
 1e-07 1 1 0
1  81 0 0 2.4
2  161 25 7 0 2.4
2  162 33 0 0 2.4
0

0101000
+50 2 -48 2 *
Wi

0101100
-49 7 -132 0 -47 0 +46 0 *
Fa
0  1e-07 25 7

0111000
+45 0 *
Ve
1.50000002e-07
6.35 4.50731610135122 -0.918750000000002
0 0

0101101
*
Ed
 1e-07 1 1 0
1  82 0 3.8662720152363 4.51130839433648
2  163 33 0 3.8662720152363 4.51130839433648
2  164 26 0 3.8662720152363 4.51130839433648
0

0101000
+48 2 -43 2 *
Ve
1.00000051e-07
3.95 4.50731610135124 -0.918749999999953
0 0

0101101
*
Ed
 1e-07 1 1 0
1  83 0 0 2.4
2  165 33 0 0 2.4
2  166 27 3 0 2.4
0

0101000
+41 2 -43 2 *
Ed
 1e-07 1 1 0
1  84 0 3.86627201523629 4.5113083943365
2  167 33 0 3.86627201523629 4.5113083943365
2  168 2 0 3.86627201523629 4.5113083943365
0

0101000
+50 2 -41 2 *
Wi

0101100
-42 0 +40 0 +39 0 -46 0 *
Fa
0  1e-07 33 0

0111000
+38 0 *
Ed
 1.5e-07 1 1 0
1  85 0 -14.5073161013512 -13.0913627152924
2  169 26 0 -14.5073161013512 -13.0913627152924
2  170 27 3 -14.5073161013512 -13.0913627152924
0

0101000
+43 2 -131 2 *
Wi

0101100
-130 0 +36 0 +42 0 +47 0 *
Fa
0  1e-07 26 0

0111000
+35 0 *
Ed
 1e-07 1 1 0
1  86 0 23.0913627152924 24.5073161013512
2  171 27 0 23.0913627152924 24.5073161013512
2  172 2 5 23.0913627152924 24.5073161013512
0

0101000
+129 6 -41 6 *
Wi

0101100
-33 3 -40 0 -36 0 +128 0 *
Fa
0  1e-07 27 3

0111000
+32 0 *
Ed
 1.5e-07 1 1 0
1  87 0 -14.5073161013512 -13.0913627152924
2  173 4 0 -14.5073161013512 -13.0913627152924
2  174 5 4 -14.5073161013512 -13.0913627152924
0

0101000
+224 2 -126 2 *
Wi

0101100
-216 0 -125 0 +30 0 +223 0 *
Fa
0  1e-07 4 0

0111000
+29 0 *
Ed
 1e-07 1 1 0
1  88 0 23.0913627152924 24.5073161013512
2  175 5 0 23.0913627152924 24.5073161013512
2  176 2 10 23.0913627152924 24.5073161013512
0

0101000
+124 11 -228 11 *
Wi

0101100
-27 4 -222 0 -30 0 +123 0 *
Fa
0  1e-07 5 4

0111000
+26 0 *
Ve
1.00000095e-07
3.95 1.45799721094875 4.36282524665678
0 0

0101101
*
Ed
 1e-07 1 1 0
1  89 0 23.0913627152924 24.5073161013513
2  177 28 0 23.0913627152924 24.5073161013513
2  178 2 10 23.0913627152924 24.5073161013513
0

0101000
+122 11 -24 11 *
Ed
 1e-07 1 1 0
1  90 0 0 2.4
2  179 28 4 0 2.4
2  180 29 0 0 2.4
0

0101000
+24 2 -115 2 *
Wi

0101100
-23 4 -22 0 -114 0 +119 0 *
Fa
0  1e-07 28 4

0111000
+21 0 *
Ed
 1e-07 1 1 0
1  91 0 2.81907446403968 3.46411084313991
2  181 32 0 2.81907446403968 3.46411084313991
2  182 2 0 2.81907446403968 3.46411084313991
0

0101000
+67 2 -55 2 *
Wi

0101100
-58 0 +53 0 +19 0 -63 0 *
Fa
0  1e-07 32 0

0111000
+18 0 *
Ed
 1e-07 1 1 0
1  92 0 0.7246793616465 1.36971574074668
2  183 30 0 0.7246793616465 1.36971574074668
2  184 2 0 0.7246793616465 1.36971574074668
0

0101000
+101 2 -89 2 *
Wi

0101100
-92 0 +87 0 +16 0 -98 0 *
Fa
0  1e-07 30 0

0111000
+15 0 *
Ed
 1e-07 1 1 0
1  93 0 1.77187691284309 2.41691329194329
2  185 31 0 1.77187691284309 2.41691329194329
2  186 2 0 1.77187691284309 2.41691329194329
0

0101000
+84 2 -72 2 *
Wi

0101100
-75 0 +70 0 +13 0 -80 0 *
Fa
0  1e-07 31 0

0111000
+12 0 *
Wi

0101000
+198 0 +205 0 +191 0 +171 0 +168 0 +176 0 *
Ve
1e-07
3.95 1e-15 4.6
0 0

0101101
*
Ed
 1e-07 1 1 0
1  94 0 0 0.322518189550074
2  187 2 0 0 0.322518189550074
2  188 29 0 0 0.322518189550074
0

0101000
+9 2 -106 2 *
Ed
 1e-07 1 1 0
1  95 0 5.96066711762947 6.28318530717959
2  189 2 0 5.96066711762947 6.28318530717959
2  190 29 0 5.96066711762947 6.28318530717959
0

0101000
+24 2 -9 2 *
Wi

0101100
-39 0 +49 7 -134 0 -54 7 -19 0 +66 4 -142 0 -71 4 -13 0 +83 3 
-150 0 -88 3 -16 0 -100 7 -158 0 +105 7 -8 0 -7 0 -23 4 -121 0 
+27 4 -227 0 -218 3 -127 0 +33 3 *
Fa
0  1e-07 2 0

0111000
+10 0 +6 0 *
Wi

0101100
+8 0 +104 0 -110 0 -109 0 -22 0 +7 0 *
Fa
0  1e-07 29 0

0111000
+4 0 *
Sh

0101000
+220 0 -213 0 -203 0 -196 0 -189 0 -179 0 -174 0 -169 0 -166 0 -116 0 
+107 0 +102 0 -95 0 +90 0 -85 0 +78 0 +73 0 -68 0 +61 0 +56 0 
-51 0 +44 0 +37 0 +34 0 +31 0 +28 0 +25 0 -20 0 +17 0 +14 0 
+11 0 +5 0 +3 0 *
So

0100000
+2 0 *

+1 1 