DBRep_DrawableShape

CASCADE Topology V1, (c) Matra-Datavision
Locations 0
Curve2ds 8
1 0 1 1 0 
1 6.2831853071800001 -0 0 1 
1 0 -0 0 1 
1 0 0 1 0 
1 0 2 1 0 
1 0 1 1 0 
1 6.2831853071800001 -0 0 1 
1 0 -0 0 1 
Curves 6
2 4143.6818521069999 -29 753.33128575848002 1 0 -0 0 0 1 0 -1 0 6.5
1 4142.6818521069999 -29 759.83128575848002 1 0 0 
2 4142.6818521069999 -29 753.33128575848002 1 0 -0 0 0 1 0 -1 0 6.5
2 4143.6818521069999 -29 753.33128575848002 1 0 -0 0 0 1 0 -1 0 3.2250000000000001
2 4142.6818521069999 -29 753.33128575848002 1 0 -0 0 0 1 0 -1 0 3.2250000000000001
1 4141.6818521069999 -29 756.55628575848004 1 0 0 
Polygon3D 0
PolygonOnTriangulations 0
Surfaces 4
2 4142.6818521069999 -29 753.33128575848002 1 0 0 0 0 1 0 -1 0 6.5
1 4143.6818521069999 -29 753.33128575848002 1 0 0 0 0 1 0 -1 0 
1 4142.6818521069999 -29 753.33128575848002 1 0 0 0 0 1 0 -1 0 
2 4141.6818521069999 -29 753.33128575848002 1 0 0 0 0 1 0 -1 0 3.2250000000000001
Triangulations 0

TShapes 22
Ve
1e-07
4143.681852107 -29 759.83128575848
0 0

0101101
*
Ed
 1e-07 1 1 0
1  1 0 0 6.28318530717959
2  1 1 0 0 6.28318530717959
4 C0 1 0 2 0
0

0101100
+22 0 -22 0 *
Ve
1e-07
4142.681852107 -29 759.83128575848
0 0

0101101
*
Ed
 1e-07 1 1 0
1  2 0 0 1
3  2 3CN 1 0 0 1
0

0101000
+20 0 -22 0 *
Ed
 1e-07 1 1 0
1  3 0 0 6.28318530717959
2  4 1 0 0 6.28318530717959
4 C0 1 0 3 0
0

0101100
+20 0 -20 0 *
Wi

0101100
-21 0 -19 0 +18 0 +19 0 *
Fa
0  1e-07 1 0

0111000
+17 0 *
Wi

0101100
+21 0 *
Ve
1e-07
4143.681852107 -29 756.55628575848
0 0

0101101
*
Ed
 1e-07 1 1 0
1  4 0 0 6.28318530717959
2  5 4 0 0 6.28318530717959
4 C0 2 0 4 0
0

0101100
+14 0 -14 0 *
Wi

0101100
-13 0 *
Fa
0  1e-07 2 0

0111000
+15 0 +12 0 *
Wi

0101100
+18 0 *
Ve
1e-07
4142.681852107 -29 756.55628575848
0 0

0101101
*
Ed
 1e-07 1 1 0
1  5 0 0 6.28318530717959
2  6 4 0 0 6.28318530717959
4 C0 3 0 4 0
0

0101100
+9 0 -9 0 *
Wi

0101100
-8 0 *
Fa
0  1e-07 3 0

0111000
+10 0 +7 0 *
Ed
 1e-07 1 1 0
1  6 0 1 2
3  7 8CN 4 0 1 2
0

0101000
+9 0 -14 0 *
Wi

0101100
-13 0 -5 0 +8 0 +5 0 *
Fa
0  1e-07 4 0

0111000
+4 0 *
Sh

0101100
+16 0 +11 0 -6 0 -3 0 *
So

0100000
+2 0 *

+1 0 