DBRep_DrawableShape

CASCADE Topology V1, (c) Matra-Datavision
Locations 3
1
              1               0               0               0 
              0               1               0               0 
              0               0               1               0 
1
              1               0               0               0 
              0               1               0               0 
              0               0               1               0 
2  2 -1 0
Curve2ds 142
2 0 0 1 0 -0 1 18.5
2 -18 2 1 0 -0 1 18.5
1 18 -2 1 0 
1 18 -2 1 0 
1 18 -2 0 1 
1 18 -2 0 1 
1 18 2 1 0 
1 18 2 1 0 
2 0 0 1 0 -0 1 18.5
2 -18 2 1 0 -0 1 18.5
1 0.5 0 0 1 
1 0 0 0 -1 
1 0 0 1 0 
1 0 0 0 1 
2 0 0 1 0 -0 1 18.5
1 0 0 1 0 
1 -18.5 -2 1 0 
1 -18.5 -2 1 0 
1 -18 -2 0 1 
1 -18 -2 0 1 
1 -18.5 2 1 0 
1 -18.5 2 1 0 
2 0 0 1 0 -0 1 18.5
1 0 0 1 0 
2 0 0 1 0 -0 1 15.050000000000001
1 0 1 1 0 
1 14.6 -1.3333333333333333 1 0 
1 14.6 -1.3333333333333333 1 0 
1 16 -1.3333333333333333 0 1 
1 16 -1.3333333333333333 0 1 
1 14.6 1.3333333333333333 1 0 
1 14.6 1.3333333333333333 1 0 
1 0 4 1 0 
1 0 0 0 1 
1 0.5 0 0 1 
1 0 0 0 -1 
1 0 0 1 0 
1 0 0.5 1 0 
1 6 0 0 -1 
1 0.5 0 0 1 
1 0 -4 1 0 
1 0 0.5 1 0 
1 0 -1.9999999999999956 1 0 
1 6 0 0 1 
1 0 0 1 0 
1 0 0 1 0 
1 0 0 1 0 
1 0.5 -9 0 -1 
1 9 -2 -1 0 
1 0 0.39157415774952042 1 0 
1 6.1748655006644686 0 0 1 
1 3.2499124601049107 0 0 1 
1 0 0.10842584225047958 1 0 
1 0 0.5 1 0 
2 0 0 1 0 -0 1 18.5
2 0 0 1 0 -0 1 18.5
2 18.5 2 1 0 -0 1 18.5
2 0 0 1 0 -0 1 18.5
2 18.5 2 1 0 -0 1 18.5
1 0 0.5 1 0 
2 0 0 1 0 -0 1 18.5
1 3.0332728470746755 0 0 1 
1 0 0.10842584225047958 1 0 
1 0.10831980651511758 0 0 1 
1 0 0.39157415774952042 1 0 
1 0 1.5 1 0 
2 0 0 1 0 -0 1 15.050000000000001
1 6.1944754264281414 0 0 1 
1 -1 0.39082126576867182 1 0 
1 0.088709880751444606 0 0 1 
1 -1 0.39082126576867182 1 0 
2 0 0 1 0 -0 1 15.050000000000001
2 -14.6 1.3333333333333333 1 0 -0 1 15.050000000000001
2 0 0 1 0 -0 1 15.050000000000001
2 -14.6 1.3333333333333333 1 0 -0 1 15.050000000000001
1 6 0 0 1 
1 0 4 1 0 
1 0 0 1 0 
1 0 -4 1 0 
1 0.5 -9 0 -1 
1 9 2 -1 0 
1 0 0 0 1 
1 6 0 0 -1 
1 0.5 -1 0 -1 
1 18 -1 0 1 
1 -9.25 -2 -1 0 
1 0.5 9.25 0 -1 
1 -18 -1 0 1 
1 0.5 -1 0 -1 
1 -9.25 2 -1 0 
1 0.5 9.25 0 -1 
1 14.6 -1.3333333333333333 1 0 
1 14.6 -1.3333333333333333 1 0 
1 16 -1.3333333333333333 0 1 
1 16 -1.3333333333333333 0 1 
1 14.6 1.3333333333333333 1 0 
1 14.6 1.3333333333333333 1 0 
1 0 0 0 1 
1 0 0 1 0 
1 0 0.5 1 0 
1 0 0 1 0 
1 6 0 0 1 
1 0 0 1 0 
1 0 0 1 0 
1 0 0 1 0 
1 0 0 0 1 
1 0 0 0 -1 
1 0 0 0 1 
1 0 0 0 -1 
1 0 4 1 0 
1 0 0 0 1 
1 0 0.5 1 0 
1 0 -4 1 0 
1 6 0 0 1 
1 0 4 1 0 
1 0 0 1 0 
1 0 -4 1 0 
1 0 0 0 1 
1 0 0 1 0 
1 0.5 0 0 1 
1 0 0 1 0 
1 0 0 1 0 
1 0 0 1 0 
1 0 0 0 1 
1 0 2.6666666666666665 1 0 
1 0.5 0 0 1 
1 0 2.6666666666666665 1 0 
1 0 0 1 0 
1 0 -2.6666666666666665 1 0 
1 0 0 0 1 
1 0 0 0 -1 
1 6 0 0 -1 
1 0.5 0 0 1 
2 0 0 1 0 -0 1 15.050000000000001
2 -14.6 1.3333333333333333 1 0 -0 1 15.050000000000001
2 0 0 1 0 -0 1 15.050000000000001
2 -14.6 1.3333333333333333 1 0 -0 1 15.050000000000001
1 0 0 0 1 
1 6 0 0 -1 
1 0 -2 1 0 
1 0 0 0 1 
1 0.5 0 0 -1 
Curves 72
2 0 0 55 0 0 1 1 0 -0 -0 1 0 18.5
1 18 -2 55 1 0 0 
1 18 -2 55 0 1 0 
1 18 2 55 1 0 0 
2 0 0 55 0 0 1 1 0 -0 -0 1 0 18.5
1 18.5 -2 55 0 1 0 
1 18 -2 55 1 0 0 
2 0 0 55 0 0 1 1 0 -0 -0 1 0 18.5
1 -18.5 -2 55 1 0 0 
1 -18 -2 55 0 1 0 
1 -18.5 2 55 1 0 0 
2 0 0 55 0 0 1 1 0 -0 -0 1 0 18.5
2 0 0 55 0 0 1 1 0 -0 -0 1 0 15.050000000000001
1 14.6 -1.3333333333333333 55 1 0 0 
1 16 -1.3333333333333333 55 0 1 0 
1 14.6 1.3333333333333333 55 1 0 0 
1 18 2 55 1 0 0 
1 18.5 -2 55 0 1 0 
1 18.5 -2 55 0 0 1 
1 18.5 -2 61 0 1 0 
1 18.5 2 55 0 0 1 
1 18.5 -4.5299999999999999e-15 55 0 0 1 
1 18 -2 61 1 0 0 
1 18 -2 55 0 0 1 
1 9 -2 55.5 -1 0 0 
1 18.39157415774952 -2 55 0 0 1 
1 -18.39157415774952 -2 55 0 0 1 
2 0 0 55.5 0 0 1 1 0 -0 -0 1 0 18.5
2 0 0 55 0 0 1 1 0 -0 -0 1 0 18.5
2 0 0 55 0 0 1 1 0 -0 -0 1 0 18.5
2 0 0 55.5 0 0 1 1 0 -0 -0 1 0 18.5
1 -18.39157415774952 2 55 0 0 1 
1 18.39157415774952 2 55 0 0 1 
2 0 0 55.5 0 0 1 1 0 -0 -0 1 0 15.050000000000001
1 14.990821265768671 -1.3333333333333333 54 0 0 1 
1 14.990821265768671 1.3333333333333333 54 0 0 1 
2 0 0 55 0 0 1 1 0 -0 -0 1 0 15.050000000000001
2 0 0 55 0 0 1 1 0 -0 -0 1 0 15.050000000000001
1 18 2 61 1 0 0 
1 18 2 55 0 0 1 
1 9 2 55.5 -1 0 0 
1 18 -2 61 0 1 0 
1 18 -1 55.5 0 1 0 
1 -9.25 -2 55.5 -1 0 0 
1 -18 -1 55.5 0 1 0 
1 -9.25 2 55.5 -1 0 0 
1 14.6 -1.3333333333333333 55.5 1 0 0 
1 16 -1.3333333333333333 55.5 0 1 0 
1 14.6 1.3333333333333333 55.5 1 0 0 
1 -18.5 -2 55 1 0 0 
1 -18 -2 55 0 0 1 
1 -18.5 -2 61 1 0 0 
1 -18.5 -2 55 0 0 1 
1 -18.5 -2 55 0 1 0 
1 -18.5 -2 55 0 1 0 
1 -18.5 2 55 1 0 0 
1 -18 2 55 0 0 1 
1 -18.5 2 61 1 0 0 
1 -18.5 2 55 0 0 1 
1 14.6 -1.3333333333333333 55 1 0 0 
1 14.6 -1.3333333333333333 55.5 1 0 0 
1 14.6 -1.3333333333333333 55 0 0 1 
1 14.6 1.3333333333333333 55 1 0 0 
1 14.6 1.3333333333333333 55.5 1 0 0 
1 14.6 1.3333333333333333 55 0 0 1 
1 14.6 -1.3333333333333333 55 0 1 0 
1 -18 -2 61 0 1 0 
2 0 0 55.5 0 0 1 1 0 -0 -0 1 0 15.050000000000001
2 0 0 55.5 0 0 1 1 0 -0 -0 1 0 15.050000000000001
1 -18.5 -2 61 0 1 0 
1 -18.5 0 55 0 0 1 
1 14.6 -1.3333333333333333 55.5 0 1 0 
Polygon3D 0
PolygonOnTriangulations 0
Surfaces 28
1 0 0 55 0 0 1 1 0 -0 -0 1 0 
1 18 -2 55 0 0 1 1 0 -0 -0 1 0 
1 0 0 55 0 0 1 1 0 -0 -0 1 0 
1 18 -2 55 0 0 1 1 0 -0 -0 1 0 
1 18.5 -2 55 1 0 0 0 0 1 0 -1 0 
1 18 -2 55 0 1 0 0 -0 1 1 0 -0 
2 0 0 55 0 0 1 1 0 -0 -0 1 0 18.5
1 0 0 55 0 0 1 1 0 -0 -0 1 0 
2 0 0 55 0 0 1 1 0 -0 -0 1 0 18.5
2 0 0 54 0 0 1 1 0 -0 -0 1 0 15.050000000000001
1 0 0 55 0 0 1 1 0 -0 -0 1 0 
1 18 2 55 0 1 0 0 -0 1 1 0 -0 
1 18 -2 61 0 0 1 1 0 -0 -0 1 0 
1 18 -2 55 1 0 0 0 0 1 0 -1 0 
1 0 0 55.5 0 0 1 1 0 -0 -0 1 0 
1 -18.5 -2 55 0 1 0 0 -0 1 1 0 -0 
1 -18.5 -2 55 0 0 1 1 0 -0 -0 1 0 
1 -18.5 -2 55 0 0 1 1 0 -0 -0 1 0 
1 -18.5 2 55 0 1 0 0 -0 1 1 0 -0 
1 14.6 -1.3333333333333333 55 0 1 0 0 -0 1 1 0 -0 
1 14.6 1.3333333333333333 55 0 1 0 0 -0 1 1 0 -0 
1 14.6 -1.3333333333333333 55 0 0 1 1 0 -0 -0 1 0 
1 -18 -2 55 1 0 0 0 0 1 0 -1 0 
1 0 0 55.5 0 0 1 1 0 -0 -0 1 0 
1 -18.5 -2 61 0 0 1 1 0 -0 -0 1 0 
1 -18.5 -2 55 1 0 0 0 0 1 0 -1 0 
1 14.6 -1.3333333333333333 55.5 0 0 1 1 0 -0 -0 1 0 
1 14.6 -1.3333333333333333 55 1 0 0 0 0 1 0 -1 0 
Triangulations 0

TShapes 180
Ve
1.00000031e-07
18.3915741577495 -1.99999999999997 55
0 0

0101101
*
Ve
1.00000005e-07
18.5 -5e-15 55
0 0

0101101
*
Ed
 1e-07 1 1 0
1  1 0 6.17486550066447 6.28318530717959
2  1 1 0 6.17486550066447 6.28318530717959
2  2 2 0 6.17486550066447 6.28318530717959
0

0101000
+180 3 -179 3 *
Ve
1e-07
18 -2 55
0 0

0101101
*
Ed
 1e-07 1 1 0
1  2 0 0 0.391574157749528
2  3 1 0 0 0.391574157749528
2  4 3 0 0 0.391574157749528
0

0101000
+177 3 -180 3 *
Ve
1e-07
18 2 55
0 0

0101101
*
Ed
 1e-07 1 1 0
1  3 0 0 4
2  5 1 0 0 4
2  6 3 0 0 4
0

0101000
+177 3 -175 3 *
Ve
1.00000032e-07
18.3915741577495 1.99999999999997 55
0 0

0101101
*
Ed
 1e-07 1 1 0
1  4 0 0 0.391574157749528
2  7 1 0 0 0.391574157749528
2  8 3 0 0 0.391574157749528
0

0101000
+175 3 -173 3 *
Ed
 1e-07 1 1 0
1  5 0 0 0.108319806515116
2  9 1 0 0 0.108319806515116
2  10 4 0 0 0.108319806515116
0

0101000
+179 3 -173 3 *
Wi

0101100
+178 0 +176 0 -174 0 -172 0 +171 0 *
Fa
0  1e-07 1 0

0111000
+170 0 *
Ve
1e-07
18.5 -2 55
0 0

0101101
*
Ed
 1e-07 1 1 0
1  6 0 0 2
2  11 2 0 0 2
2  12 5 0 0 2
0

0101000
+168 3 -179 3 *
Ed
 1e-07 1 1 0
1  7 0 0.391574157749528 0.5
2  13 2 0 0.391574157749528 0.5
2  14 6 0 0.391574157749528 0.5
0

0101000
+180 3 -168 3 *
Wi

0101100
-178 0 +167 0 +166 0 *
Fa
0  1e-07 2 0

0111000
+165 0 *
Ve
1.00000262e-07
-18.3915741577495 -2.00000000000026 55
0 0

0101101
*
Ed
 1e-07 1 1 0
1  8 0 3.24991246010492 6.17486550066447
2  15 3 0 3.24991246010492 6.17486550066447
2  16 7 0 3.24991246010492 6.17486550066447
0

0101000
+163 3 -180 3 *
Ve
1e-07
-18 -2 55
0 0

0101101
*
Ed
 1e-07 1 1 0
1  9 0 0.108425842250533 0.5
2  17 3 0 0.108425842250533 0.5
2  18 8 0 0.108425842250533 0.5
0

0101000
+163 3 -161 3 *
Ve
1e-07
-18 2 55
0 0

0101101
*
Ed
 1e-07 1 1 0
1  10 0 0 4
2  19 3 0 0 4
2  20 8 0 0 4
0

0101000
+161 3 -159 3 *
Ve
1.00000265e-07
-18.3915741577495 2.00000000000026 55
0 0

0101101
*
Ed
 1e-07 1 1 0
1  11 0 0.108425842250536 0.5
2  21 3 0 0.108425842250536 0.5
2  22 8 0 0.108425842250536 0.5
0

0101000
+157 3 -159 3 *
Ed
 1e-07 1 1 0
1  12 0 0.108319806515116 3.03327284707466
2  23 3 0 0.108319806515116 3.03327284707466
2  24 9 0 0.108319806515116 3.03327284707466
0

0101000
+173 3 -157 3 *
Wi

0101100
+172 0 +174 0 -176 0 +162 0 -160 0 -158 0 +156 0 +155 0 *
Ve
1.00000038e-07
14.9908212657687 1.3333333333333 55
0 0

0101101
*
Ve
1.00000044e-07
14.9908212657687 -1.33333333333329 55
0 0

0101101
*
Ed
 1e-07 1 1 0
1  13 0 0.088709880751442 6.19447542642814
2  25 3 0 0.088709880751442 6.19447542642814
2  26 10 0 0.088709880751442 6.19447542642814
0

0101000
+153 3 -152 3 *
Ve
1e-07
16 -1.33333333333333 55
0 0

0101101
*
Ed
 1e-07 1 1 0
1  14 0 0.390821265768679 1.4
2  27 3 0 0.390821265768679 1.4
2  28 11 0 0.390821265768679 1.4
0

0101000
+152 3 -150 3 *
Ve
1e-07
16 1.33333333333333 55
0 0

0101101
*
Ed
 1e-07 1 1 0
1  15 0 0 2.66666666666667
2  29 3 0 0 2.66666666666667
2  30 11 0 0 2.66666666666667
0

0101000
+150 3 -148 3 *
Ed
 1e-07 1 1 0
1  16 0 0.390821265768679 1.4
2  31 3 0 0.390821265768679 1.4
2  32 11 0 0.390821265768679 1.4
0

0101000
+153 3 -148 3 *
Wi

0101100
-151 0 -149 0 -147 0 +146 0 *
Fa
0  1e-07 3 0

0111000
+154 0 +145 0 *
Ve
1e-07
18.5 2 55
0 0

0101101
*
Ed
 1e-07 1 1 0
1  17 0 0.391574157749528 0.5
2  33 4 0 0.391574157749528 0.5
2  34 12 0 0.391574157749528 0.5
0

0101000
+173 3 -143 3 *
Ed
 1e-07 1 1 0
1  18 0 2 4
2  35 4 0 2 4
2  36 5 0 2 4
0

0101000
+179 3 -143 3 *
Wi

0101100
-142 0 +141 0 -171 0 *
Fa
0  1e-07 4 0

0111000
+140 0 *
Ve
1e-07
18.5 -2 61
0 0

0101101
*
Ed
 1e-07 1 1 0
1  19 0 0 6
2  37 5 0 0 6
2  38 6 0 0 6
0

0101000
-138 3 +168 3 *
Ve
1e-07
18.5 2 61
0 0

0101101
*
Ed
 1e-07 1 1 0
1  20 0 0 4
2  39 5 0 0 4
2  40 13 0 0 4
0

0101000
-136 3 +138 3 *
Ed
 1e-07 1 1 0
1  21 0 0 6
2  41 5 0 0 6
2  42 12 0 0 6
0

0101000
-136 3 +143 3 *
Wi

0101100
-137 0 -135 0 +167 0 +134 0 +141 0 *
Ve
1.00000005e-07
18.5 -5e-15 55.5
0 0

0101101
*
Ed
 1e-07 1 1 0
1  22 0 0 0.5
2  43 5 0 0 0.5
0

0101000
+179 3 -132 3 *
Wi

0101000
i131 0 *
Fa
0  1e-07 5 0

0111000
+133 0 +130 0 *
Ve
1e-07
18 -2 61
0 0

0101101
*
Ed
 1e-07 1 1 0
1  23 0 0 0.5
2  44 6 0 0 0.5
2  45 13 0 0 0.5
0

0101000
-138 3 +128 3 *
Ve
1.5e-07
18 -2 55.5
0 0

0101101
*
Ed
 1e-07 1 1 0
1  24 0 0.5 6
2  46 6 0 0.5 6
2  47 14 0 0.5 6
0

0101000
+126 3 -128 3 *
Ve
1.50000006e-07
18.3915741577495 -2.00000000000001 55.5
0 0

0101101
*
Ed
 1.5e-07 1 1 0
1  25 0 -9.39157415774952 -9
2  48 6 0 -9.39157415774952 -9
2  49 15 0 -9.39157415774952 -9
0

0101000
+124 3 -126 3 *
Ed
 1e-07 1 1 0
1  26 0 0 0.5
2  50 6 0 0 0.5
2  51 7 0 0 0.5
0

0101000
+180 3 -124 3 *
Wi

0101100
-166 0 -137 0 +127 0 +125 0 +123 0 +122 0 *
Fa
0  1e-07 6 0

0111000
+121 0 *
Ve
1.50000001e-07
-18.3915741577495 -2 55.5
0 0

0101101
*
Ed
 1e-07 1 1 0
1  27 0 0 0.5
2  52 7 0 0 0.5
2  53 16 0 0 0.5
0

0101000
+163 3 -119 3 *
Ed
 1e-07 1 1 0
1  28 0 3.24991246010491 6.17486550066447
2  54 7 0 3.24991246010491 6.17486550066447
2  55 15 0 3.24991246010491 6.17486550066447
0

0101000
+119 3 -124 3 *
Wi

0101100
+122 0 +162 0 -118 0 -117 0 *
Fa
0  1e-07 7 0

0111000
+116 0 *
Ve
1.00000002e-07
-18.5 2e-15 55
0 0

0101101
*
Ed
 1e-07 1 1 0
1  29 0 3.14159265358979 3.24991246010492
2  56 8 0 3.14159265358979 3.24991246010492
2  57 17 0 3.14159265358979 3.24991246010492
0

0101000
+114 3 -163 3 *
Ed
 1e-07 1 1 0
1  30 0 3.03327284707466 3.14159265358979
2  58 8 0 3.03327284707466 3.14159265358979
2  59 18 0 3.03327284707466 3.14159265358979
0

0101000
+157 3 -114 3 *
Wi

0101100
-156 0 +158 0 +160 0 +113 0 +112 0 *
Fa
0  1e-07 8 0

0111000
+111 0 *
Ve
1.5e-07
18.3915741577495 2 55.5
0 0

0101101
*
Ve
1.50000004e-07
-18.3915741577495 2 55.5
0 0

0101101
*
Ed
 1e-07 1 1 0
1  31 0 0.108319806515118 3.03327284707468
2  60 9 0 0.108319806515118 3.03327284707468
2  61 15 0 0.108319806515118 3.03327284707468
0

0101000
+109 3 -108 3 *
Ed
 1e-07 1 1 0
1  32 0 0 0.5
2  62 9 0 0 0.5
2  63 19 0 0 0.5
0

0101000
+157 3 -108 3 *
Ed
 1e-07 1 1 0
1  33 0 0 0.5
2  64 9 0 0 0.5
2  65 12 0 0 0.5
0

0101000
+173 3 -109 3 *
Wi

0101100
-107 0 +106 0 +155 0 -105 0 *
Fa
0  1e-07 9 0

0111000
+104 0 *
Ve
1.00000038e-07
14.9908212657687 1.3333333333333 55.5
0 0

0101101
*
Ve
1.00000044e-07
14.9908212657687 -1.33333333333329 55.5
0 0

0101101
*
Ed
 1e-07 1 1 0
1  34 0 0.088709880751442 6.19447542642814
2  66 10 0 0.088709880751442 6.19447542642814
2  67 15 0 0.088709880751442 6.19447542642814
0

0101000
+102 3 -101 3 *
Ed
 1e-07 1 1 0
1  35 0 1 1.5
2  68 10 0 1 1.5
2  69 20 0 1 1.5
0

0101000
+152 3 -101 3 *
Ed
 1e-07 1 1 0
1  36 0 1 1.5
2  70 10 0 1 1.5
2  71 21 0 1 1.5
0

0101000
+153 3 -102 3 *
Wi

0101100
-100 0 +99 0 +151 0 -98 0 *
Fa
0  1e-07 10 0

0111000
+97 0 *
Ve
1.00000004e-07
15.05 -4e-15 55
0 0

0101101
*
Ed
 1e-07 1 1 0
1  37 0 0 0.088709880751442
2  72 11 0 0 0.088709880751442
2  73 22 0 0 0.088709880751442
0

0101000
+95 3 -153 3 *
Ed
 1e-07 1 1 0
1  38 0 6.19447542642814 6.28318530717959
2  74 11 0 6.19447542642814 6.28318530717959
2  75 22 0 6.19447542642814 6.28318530717959
0

0101000
+152 3 -95 3 *
Wi

0101100
-94 0 -146 0 +147 0 +149 0 -93 0 *
Fa
0  1e-07 11 0

0111000
+92 0 *
Ve
1e-07
18 2 61
0 0

0101101
*
Ed
 1e-07 1 1 0
1  39 0 0 0.5
2  76 12 0 0 0.5
2  77 13 0 0 0.5
0

0101000
-136 3 +90 3 *
Ve
1.5e-07
18 2 55.5
0 0

0101101
*
Ed
 1e-07 1 1 0
1  40 0 0.5 6
2  78 12 0 0.5 6
2  79 14 0 0.5 6
0

0101000
+88 3 -90 3 *
Ed
 1.5e-07 1 1 0
1  41 0 -9.39157415774952 -9
2  80 12 0 -9.39157415774952 -9
2  81 15 0 -9.39157415774952 -9
0

0101000
+109 3 -88 3 *
Wi

0101100
-142 0 -134 0 +89 0 +87 0 +86 0 +105 0 *
Fa
0  1e-07 12 0

0111000
+85 0 *
Ed
 1e-07 1 1 0
1  42 0 0 4
2  82 13 0 0 4
2  83 14 0 0 4
0

0101000
-90 3 +128 3 *
Wi

0101100
-83 0 -89 0 +135 0 +127 0 *
Fa
0  1e-07 13 0

0111000
+82 0 *
Ed
 1.5e-07 1 1 0
1  43 0 -1 3
2  84 14 0 -1 3
2  85 15 0 -1 3
0

0101000
+126 3 -88 3 *
Wi

0101100
-125 0 -83 0 +87 0 +80 0 *
Fa
0  1e-07 14 0

0111000
+79 0 *
Ve
1.5e-07
-18 -2 55.5
0 0

0101101
*
Ed
 1.5e-07 1 1 0
1  44 0 8.75 9.14157415774952
2  86 15 0 8.75 9.14157415774952
2  87 16 0 8.75 9.14157415774952
0

0101000
+77 3 -119 3 *
Ve
1.5e-07
-18 2 55.5
0 0

0101101
*
Ed
 1.5e-07 1 1 0
1  45 0 -1 3
2  88 15 0 -1 3
2  89 23 0 -1 3
0

0101000
+77 3 -75 3 *
Ed
 1.5e-07 1 1 0
1  46 0 8.75 9.14157415774952
2  90 15 0 8.75 9.14157415774952
2  91 19 0 8.75 9.14157415774952
0

0101000
+75 3 -108 3 *
Wi

0101100
-86 0 +80 0 +123 0 +117 0 +76 0 -74 0 -73 0 +107 0 *
Ve
1e-07
16 -1.33333333333333 55.5
0 0

0101101
*
Ed
 1e-07 1 1 0
1  47 0 0.390821265768679 1.4
2  92 15 0 0.390821265768679 1.4
2  93 24 0 0.390821265768679 1.4
0

0101000
+101 3 -71 3 *
Ve
1e-07
16 1.33333333333333 55.5
0 0

0101101
*
Ed
 1e-07 1 1 0
1  48 0 0 2.66666666666667
2  94 15 0 0 2.66666666666667
2  95 24 0 0 2.66666666666667
0

0101000
+71 3 -69 3 *
Ed
 1e-07 1 1 0
1  49 0 0.390821265768679 1.4
2  96 15 0 0.390821265768679 1.4
2  97 24 0 0.390821265768679 1.4
0

0101000
+102 3 -69 3 *
Wi

0101100
-100 0 -70 0 -68 0 +67 0 *
Fa
0  1e-07 15 0

0111000
+72 0 +66 0 *
Ve
1e-07
-18.5 -2 55
0 0

0101101
*
Ed
 1e-07 1 1 0
1  50 0 0 0.108425842250533
2  98 16 0 0 0.108425842250533
2  99 17 0 0 0.108425842250533
0

0101000
+64 3 -163 3 *
Ve
1e-07
-18 -2 61
0 0

0101101
*
Ed
 1e-07 1 1 0
1  51 0 0.5 6
2  100 16 0 0.5 6
2  101 23 0 0.5 6
0

0101000
+77 3 -62 3 *
Ve
1e-07
-18.5 -2 61
0 0

0101101
*
Ed
 1e-07 1 1 0
1  52 0 0 0.5
2  102 16 0 0 0.5
2  103 25 0 0 0.5
0

0101000
-62 3 +60 3 *
Ed
 1e-07 1 1 0
1  53 0 0 6
2  104 16 0 0 6
2  105 26 0 0 6
0

0101000
-60 3 +64 3 *
Wi

0101100
-63 0 -118 0 +76 0 -61 0 +59 0 +58 0 *
Fa
0  1e-07 16 0

0111000
+57 0 *
Ed
 1e-07 1 1 0
1  54 0 0 2
2  106 17 0 0 2
2  107 26 0 0 2
0

0101000
+64 3 -114 3 *
Wi

0101100
-55 0 -113 0 +63 0 *
Fa
0  1e-07 17 0

0111000
+54 0 *
Ve
1e-07
-18.5 2 55
0 0

0101101
*
Ed
 1e-07 1 1 0
1  55 0 2 4
2  108 18 0 2 4
2  109 26 0 2 4
0

0101000
+114 3 -52 3 *
Ed
 1e-07 1 1 0
1  56 0 0 0.108425842250536
2  110 18 0 0 0.108425842250536
2  111 19 0 0 0.108425842250536
0

0101000
+52 3 -157 3 *
Wi

0101100
-51 0 -50 0 -112 0 *
Fa
0  1e-07 18 0

0111000
+49 0 *
Ve
1e-07
-18 2 61
0 0

0101101
*
Ed
 1e-07 1 1 0
1  57 0 0.5 6
2  112 19 0 0.5 6
2  113 23 0 0.5 6
0

0101000
+75 3 -47 3 *
Ve
1e-07
-18.5 2 61
0 0

0101101
*
Ed
 1e-07 1 1 0
1  58 0 0 0.5
2  114 19 0 0 0.5
2  115 25 0 0 0.5
0

0101000
-47 3 +45 3 *
Ed
 1e-07 1 1 0
1  59 0 0 6
2  116 19 0 0 6
2  117 26 0 0 6
0

0101000
-45 3 +52 3 *
Wi

0101100
-50 0 -106 0 +73 0 -46 0 +44 0 +43 0 *
Fa
0  1e-07 19 0

0111000
+42 0 *
Ve
1e-07
14.6 -1.33333333333333 55
0 0

0101101
*
Ed
 1e-07 1 1 0
1  60 0 0 0.390821265768679
2  118 20 0 0 0.390821265768679
2  119 22 0 0 0.390821265768679
0

0101000
+40 3 -152 3 *
Ve
1e-07
14.6 -1.33333333333333 55.5
0 0

0101101
*
Ed
 1e-07 1 1 0
1  61 0 0 0.390821265768679
2  120 20 0 0 0.390821265768679
2  121 27 0 0 0.390821265768679
0

0101000
+38 3 -101 3 *
Ed
 1e-07 1 1 0
1  62 0 0 0.5
2  122 20 0 0 0.5
2  123 28 0 0 0.5
0

0101000
-38 3 +40 3 *
Wi

0101100
-39 0 -99 0 +37 0 +36 0 *
Fa
0  1e-07 20 0

0111000
+35 0 *
Ve
1e-07
14.6 1.33333333333333 55
0 0

0101101
*
Ed
 1e-07 1 1 0
1  63 0 0 0.390821265768679
2  124 21 0 0 0.390821265768679
2  125 22 0 0 0.390821265768679
0

0101000
+33 3 -153 3 *
Ve
1e-07
14.6 1.33333333333333 55.5
0 0

0101101
*
Ed
 1e-07 1 1 0
1  64 0 0 0.390821265768679
2  126 21 0 0 0.390821265768679
2  127 27 0 0 0.390821265768679
0

0101000
+31 3 -102 3 *
Ed
 1e-07 1 1 0
1  65 0 0 0.5
2  128 21 0 0 0.5
2  129 28 0 0 0.5
0

0101000
-31 3 +33 3 *
Wi

0101100
-32 0 -98 0 +30 0 +29 0 *
Fa
0  1e-07 21 0

0111000
+28 0 *
Ed
 1e-07 1 1 0
1  66 0 0 2.66666666666667
2  130 22 0 0 2.66666666666667
2  131 28 0 0 2.66666666666667
0

0101000
-33 3 +40 3 *
Wi

0101100
-32 0 +94 0 +93 0 +39 0 -26 0 *
Fa
0  1e-07 22 0

0111000
+25 0 *
Ed
 1e-07 1 1 0
1  67 0 0 4
2  132 23 0 0 4
2  133 25 0 0 4
0

0101000
-47 3 +62 3 *
Wi

0101100
-61 0 -23 0 +46 0 +74 0 *
Fa
0  1e-07 23 0

0111000
+22 0 *
Ve
1.00000004e-07
15.05 -4e-15 55.5
0 0

0101101
*
Ed
 1e-07 1 1 0
1  68 0 0 0.088709880751442
2  134 24 0 0 0.088709880751442
2  135 27 0 0 0.088709880751442
0

0101000
+20 3 -102 3 *
Ed
 1e-07 1 1 0
1  69 0 6.19447542642814 6.28318530717959
2  136 24 0 6.19447542642814 6.28318530717959
2  137 27 0 6.19447542642814 6.28318530717959
0

0101000
+101 3 -20 3 *
Wi

0101100
-19 0 -67 0 +68 0 +70 0 -18 0 *
Fa
0  1e-07 24 0

0111000
+17 0 *
Ed
 1e-07 1 1 0
1  70 0 0 4
2  138 25 0 0 4
2  139 26 0 0 4
0

0101000
-45 3 +60 3 *
Wi

0101100
-15 0 -44 0 +23 0 +59 0 *
Fa
0  1e-07 25 0

0111000
+14 0 *
Wi

0101100
-58 0 -15 0 +55 0 +43 0 +51 0 *
Ve
1.00000002e-07
-18.5 2e-15 55.5
0 0

0101101
*
Ed
 1e-07 1 1 0
1  71 0 0 0.5
2  140 26 0 0 0.5
0

0101000
+114 3 -11 3 *
Wi

0101000
i10 0 *
Fa
0  1e-07 26 0

0111000
+12 0 +9 0 *
Ed
 1e-07 1 1 0
1  72 0 0 2.66666666666667
2  141 27 0 0 2.66666666666667
2  142 28 0 0 2.66666666666667
0

0101000
-31 3 +38 3 *
Wi

0101100
-30 0 +19 0 +18 0 +37 0 -7 0 *
Fa
0  1e-07 27 0

0111000
+6 0 *
Wi

0101100
-36 0 -7 0 +29 0 +26 0 *
Fa
0  1e-07 28 0

0111000
+4 0 *
Sh

0101100
-169 0 -164 0 -144 0 -139 0 +129 0 -120 0 +115 0 -110 0 +103 0 -96 0 
-91 0 +84 0 +81 0 -78 0 +65 0 -56 0 -53 0 -48 0 +41 0 -34 0 
+27 0 -24 0 +21 0 +16 0 +13 0 -8 0 +5 0 -3 0 *
So

0100000
+2 0 *

+1 1 