DBRep_DrawableShape

CASCADE Topology V1, (c) Matra-Datavision
Locations 18
1
              1               0               0               0 
              0               1               0               0 
              0               0               1               0 
1
              1              -0               0 7672.36364161906 
              0               0               1        -588.075 
             -0              -1               0  1031.519544592 
1
              1               0               0               0 
              0               1               0               0 
              0               0               1               0 
2  3 -1 2 -1 0
1
              1               0               0               0 
              0               1               0               0 
              0               0               1               0 
1
              1               0               0 7672.36364161906 
              0               0               1        -588.075 
              0              -1               0  1031.519544592 
1
              1               0               0 7672.36364161906 
              0               0               1        -588.075 
              0              -1               0  1031.519544592 
2  5 1 6 1 7 -1 0
2  7 1 6 -1 5 -1 0
2  6 -1 5 -1 0
2  3 -1 2 -1 7 1 6 -1 5 -1 0
1
              1               0               0               0 
              0               1               0       -1.31e-13 
              0               0               1         1176.15 
2  5 1 6 1 7 -1 12 1 0
2  12 -1 7 1 6 -1 5 -1 0
2  3 -1 2 -1 12 -1 7 1 6 -1 5 -1 0
2  7 -1 0
2  5 1 6 1 0
2  7 -1 12 1 0
Curve2ds 24
1 0 0 3.5054715404209628e-18 -1 
1 6.3602384720381906 -1.0373768075799062e-17 0 -1 
1 434.44203240793303 1.3776812963173264e-15 3.5054715404209628e-18 -1 
1 0 0 0 -1 
1 0 0 1 4.0000000000000015e-17 
1 68.886958562838686 204.91780346816358 -0.33176844054162768 -0.94336085453053253 
1 -2.8389409722019274e-14 -1176.1500000000001 1 4.0000000000000015e-17 
1 68.886958562838686 204.91780346816358 -0.33176844054162768 -0.94336085453053253 
1 6.3602384720383043 3.7376807578923572e-19 0 -1 
1 0 0 -3.5054715404209813e-18 -1 
1 1.7600000000000001e-30 1.6000000000000001e-14 1 -1.1e-16 
1 -75.247197034876535 -204.9178034681654 1 0 
1 9.799717544323206e-14 -1176.1500000000001 1 -1.1e-16 
1 -75.247197034876535 -204.9178034681654 1 0 
1 434.44203240793303 -1.3676812963173188e-15 -3.5054715404209813e-18 -1 
1 0 0 0 -1 
1 6.1199999999999995e-31 1.5299999999999999e-14 1 -3.9999999999999997e-17 
1 -68.886958562838231 -204.9178034681654 0.33176844054162746 0.94336085453053264 
1 5.3724987267230868e-14 -1176.1500000000001 1 -3.9999999999999997e-17 
1 -68.886958562838231 -204.9178034681654 0.33176844054162746 0.94336085453053264 
1 7.8100000000000001e-32 -7.1e-16 1 1.1e-16 
1 75.247197034876876 204.91780346816358 -1 0 
1 -9.799717544323206e-14 -1176.1500000000001 1 1.1e-16 
1 75.247197034876876 204.91780346816358 -1 0 
Curves 12
1 0 0 0 0 -1.1e-16 1 
1 -409.83560693632899 144.13415559771522 1.6000000000000001e-14 0 -1.1e-16 1 
1 0 0 0 -0.94336085453053253 0.33176844054162768 0 
1 0 0 0 -0.94336085453053253 0.33176844054162768 0 
1 -409.83560693632899 137.77391712567692 1.5299999999999999e-14 0 -1.1e-16 1 
1 -409.83560693632899 144.13415559771522 0 0 -1 0 
1 -409.83560693632899 144.13415559771522 0 0 -1 0 
1 0 -6.3602384720381906 -7.1e-16 0 -1.1e-16 1 
1 -409.83560693632899 137.77391712567692 0 0.94336085453053264 -0.33176844054162746 0 
1 -409.83560693632899 137.77391712567692 0 0.94336085453053264 -0.33176844054162746 0 
1 0 -6.3602384720381906 0 0 1 0 
1 0 -6.3602384720381906 0 0 1 0 
Polygon3D 0
PolygonOnTriangulations 0
Surfaces 6
1 0 0 0 -0.33176844054162768 -0.94336085453053253 -9.9999999999999998e-17 -0.94336085453053253 0.33176844054162768 4.0000000000000009e-17 -4.557590127058544e-18 1.0760682307471837e-16 -1 
1 0 -6.3602384720381906 -7.1e-16 -1 0 0 0 1 1.1e-16 0 1.1e-16 -1 
1 -409.83560693632899 144.13415559771522 1.6000000000000001e-14 1 0 0 0 -1 -1.1e-16 0 1.1e-16 -1 
1 7467.4458381508985 -588.07500000000005 962.63258602916392 0 1 0 0 -0 1 1 0 -0 
1 7467.4458381508985 -588.07500000000005 962.63258602916392 0 1 0 0 -0 1 1 0 -0 
1 -409.83560693632899 137.77391712567692 1.5299999999999999e-14 0.33176844054162746 0.94336085453053264 9.9999999999999998e-17 0.94336085453053264 -0.33176844054162746 -4.0000000000000003e-17 -4.5575901270585617e-18 1.0760682307471834e-16 -1 
Triangulations 0

TShapes 34
Ve
1e-07
7672.36364161906 -588.075 1031.519544592
0 0

0101101
*
Ve
1e-07
7672.36364161906 588.075 1031.519544592
0 0

0101101
*
Ed
 1e-07 1 1 0
1  1 0 0 1176.15
2  1 1 0 0 1176.15
2  2 2 0 0 1176.15
0

0101000
+34 4 -33 4 *
Ve
1e-07
7262.52803468273 -588.075 887.385388994288
0 0

0101101
*
Ve
1e-07
7262.52803468273 588.075 887.385388994288
0 0

0101101
*
Ed
 1e-07 1 1 0
1  2 0 0 1176.15
2  3 1 0 0 1176.15
2  4 3 0 0 1176.15
0

0101000
+31 4 -30 4 *
Ed
 1e-07 1 1 0
1  3 0 0 434.442032407933
2  5 1 9 0 434.442032407933
2  6 4 10 0 434.442032407933
0

0101000
+34 11 -31 11 *
Ed
 1e-07 1 1 0
1  4 0 0 434.442032407933
2  7 1 14 0 434.442032407933
2  8 5 10 0 434.442032407933
0

0101000
+33 15 -30 15 *
Wi

0101100
+32 0 -29 0 -28 8 +27 13 *
Fa
0  1e-07 1 0

0111000
+26 0 *
Ve
1e-07
7262.52803468273 -588.075 893.745627466326
0 0

0101101
*
Ve
1e-07
7262.52803468273 588.075 893.745627466326
0 0

0101101
*
Ed
 1e-07 1 1 0
1  5 0 0 1176.15
2  9 3 0 0 1176.15
2  10 6 0 0 1176.15
0

0101000
+24 4 -23 4 *
Ed
 1e-07 1 1 0
1  6 0 0 6.3602384720383
2  11 3 9 0 6.3602384720383
2  12 4 10 0 6.3602384720383
0

0101000
+31 11 -24 11 *
Ed
 1e-07 1 1 0
1  7 0 0 6.3602384720383
2  13 3 14 0 6.3602384720383
2  14 5 10 0 6.3602384720383
0

0101000
+30 15 -23 15 *
Wi

0101100
+29 0 -22 0 -21 8 +20 13 *
Fa
0  1e-07 3 0

0111000
+19 0 *
Ve
1e-07
7672.36364161906 -588.075 1037.87978306404
0 0

0101101
*
Ve
1e-07
7672.36364161906 588.075 1037.87978306404
0 0

0101101
*
Ed
 1e-07 1 1 0
1  8 0 0 1176.15
2  15 6 0 0 1176.15
2  16 2 0 0 1176.15
0

0101000
+17 4 -16 4 *
Ed
 1e-07 1 1 0
1  9 0 0 434.442032407933
2  17 6 9 0 434.442032407933
2  18 4 10 0 434.442032407933
0

0101000
+24 11 -17 11 *
Ed
 1e-07 1 1 0
1  10 0 0 434.442032407933
2  19 6 14 0 434.442032407933
2  20 5 10 0 434.442032407933
0

0101000
+23 15 -16 15 *
Wi

0101100
+22 0 -15 0 -14 8 +13 13 *
Fa
0  1e-07 6 0

0111000
+12 0 *
Ed
 1e-07 1 1 0
1  11 0 0 6.36023847203819
2  21 2 9 0 6.36023847203819
2  22 4 10 0 6.36023847203819
0

0101000
+17 11 -34 11 *
Ed
 1e-07 1 1 0
1  12 0 0 6.36023847203819
2  23 2 14 0 6.36023847203819
2  24 5 10 0 6.36023847203819
0

0101000
+16 15 -33 15 *
Wi

0101100
+15 0 -32 0 -10 8 +9 13 *
Fa
0  1e-07 2 0

0111000
+8 0 *
Wi

0101100
+28 0 +21 0 +14 0 +10 0 *
Fa
0  1e-07 4 0

0111000
+6 17 *
Wi

0101100
+27 0 +20 0 +13 0 +9 0 *
Fa
0  1e-07 5 0

0111000
+4 17 *
Sh

0101100
+25 0 +18 0 +11 0 +7 0 +5 16 -3 18 *
So

1100000
-2 2 *

+1 1 