DBRep_DrawableShape

CASCADE Topology V1, (c) Matra-Datavision
Locations 1
1
             -1 -1.22464679914735e-16               0 1755.22415008414 
1.22464679914735e-16              -1               0          222.25 
              0               0               1 691.051486741213 
Curve2ds 6
1 0 25 1 0 
2 0 0 1 0 -0 1 5
1 6.2831853071795862 -0 0 1 
1 0 -0 0 1 
1 0 0 1 0 
2 0 0 1 0 -0 1 5
Curves 3
2 0 58.337499999999999 0 0 1 0 0 -0 1 1 0 -0 5
1 -1.2246467991473533e-15 33.337499999999999 5 0 1 0 
2 0 33.337499999999999 0 0 1 0 0 -0 1 1 0 -0 5
Polygon3D 0
PolygonOnTriangulations 0
Surfaces 3
2 0 33.337499999999999 0 0 1 0 0 -0 1 1 0 -0 5
1 0 58.337499999999999 0 0 1 0 0 -0 1 1 0 -0 
1 0 33.337499999999999 0 0 1 0 0 -0 1 1 0 -0 
Triangulations 0

TShapes 13
Ve
1e-07
-1.22464679914735e-15 58.3375 5
0 0

0101101
*
Ed
 1e-07 1 1 0
1  1 0 0 6.28318530717959
2  1 1 0 0 6.28318530717959
2  2 2 0 0 6.28318530717959
0

0101000
+13 0 -13 0 *
Ve
1e-07
-1.22464679914735e-15 33.3375 5
0 0

0101101
*
Ed
 1e-07 1 1 0
1  2 0 0 25
3  3 4CN 1 0 0 25
0

0101000
-13 0 +11 0 *
Ed
 1e-07 1 1 0
1  3 0 0 6.28318530717959
2  5 1 0 0 6.28318530717959
2  6 3 0 0 6.28318530717959
0

0101000
+11 0 -11 0 *
Wi

0101100
-12 0 +10 0 +9 0 -10 0 *
Fa
0  1e-07 1 0

0111000
+8 0 *
Wi

0101100
+12 0 *
Fa
0  1e-07 2 0

0111000
+6 0 *
Wi

0101100
-9 0 *
Fa
0  1e-07 3 0

0111000
-4 0 *
Sh

0101100
+7 0 +5 0 -3 0 *
So

1100000
+2 0 *

+1 1 