ISO-10303-21;
HEADER;
FILE_DESCRIPTION(('FreeCAD Model'),'2;1');
FILE_NAME('Open CASCADE Shape Model','2026-09-21T11:07:50',('FreeCAD'),(
    'FreeCAD'),'Open CASCADE STEP processor 7.8','FreeCAD','Unknown');
FILE_SCHEMA(('AUTOMOTIVE_DESIGN { 1 0 10303 214 1 1 1 1 }'));
ENDSEC;
DATA;
#1 = APPLICATION_PROTOCOL_DEFINITION('international standard',
  'automotive_design',2000,#2);
#2 = APPLICATION_CONTEXT(
  'core data for automotive mechanical design processes');
#3 = SHAPE_DEFINITION_REPRESENTATION(#4,#10);
#4 = PRODUCT_DEFINITION_SHAPE('','',#5);
#5 = PRODUCT_DEFINITION('design','',#6,#9);
#6 = PRODUCT_DEFINITION_FORMATION('','',#7);
#7 = PRODUCT('Open CASCADE STEP translator 7.8 3',
  'Open CASCADE STEP translator 7.8 3','',(#8));
#8 = PRODUCT_CONTEXT('',#2,'mechanical');
#9 = PRODUCT_DEFINITION_CONTEXT('part definition',#2,'design');
#10 = ADVANCED_BREP_SHAPE_REPRESENTATION('',(#11,#15),#197);
#11 = AXIS2_PLACEMENT_3D('',#12,#13,#14);
#12 = CARTESIAN_POINT('',(0.,0.,0.));
#13 = DIRECTION('',(0.,0.,1.));
#14 = DIRECTION('',(1.,0.,-0.));
#15 = MANIFOLD_SOLID_BREP('',#16);
#16 = CLOSED_SHELL('',(#17,#50,#70,#90,#115,#140,#160,#180));
#17 = ADVANCED_FACE('',(#18),#45,.T.);
#18 = FACE_BOUND('',#19,.T.);
#19 = EDGE_LOOP('',(#20,#29,#37,#44));
#20 = ORIENTED_EDGE('',*,*,#21,.F.);
#21 = EDGE_CURVE('',#22,#22,#24,.T.);
#22 = VERTEX_POINT('',#23);
#23 = CARTESIAN_POINT('',(801.24351168433,-303.9242929379,
    -155.4113163066));
#24 = CIRCLE('',#25,75.3);
#25 = AXIS2_PLACEMENT_3D('',#26,#27,#28);
#26 = CARTESIAN_POINT('',(760.1481558888,-351.8529083876,-196.4492201652
    ));
#27 = DIRECTION('',(0.817996833247,-0.545755057046,-0.181748723539));
#28 = DIRECTION('',(0.545755057046,0.636502197207,0.544992083116));
#29 = ORIENTED_EDGE('',*,*,#30,.F.);
#30 = EDGE_CURVE('',#31,#22,#33,.T.);
#31 = VERTEX_POINT('',#32);
#32 = CARTESIAN_POINT('',(685.25156072997,-226.5362258488,
    -129.6393473088));
#33 = LINE('',#34,#35);
#34 = CARTESIAN_POINT('',(685.25156072997,-226.5362258488,
    -129.6393473088));
#35 = VECTOR('',#36,1.);
#36 = DIRECTION('',(0.817996833247,-0.545755057046,-0.181748723539));
#37 = ORIENTED_EDGE('',*,*,#38,.T.);
#38 = EDGE_CURVE('',#31,#31,#39,.T.);
#39 = CIRCLE('',#40,75.3);
#40 = AXIS2_PLACEMENT_3D('',#41,#42,#43);
#41 = CARTESIAN_POINT('',(644.15620493444,-274.4648412986,
    -170.6772511674));
#42 = DIRECTION('',(0.817996833247,-0.545755057046,-0.181748723539));
#43 = DIRECTION('',(0.545755057046,0.636502197207,0.544992083116));
#44 = ORIENTED_EDGE('',*,*,#30,.T.);
#45 = CYLINDRICAL_SURFACE('',#46,75.3);
#46 = AXIS2_PLACEMENT_3D('',#47,#48,#49);
#47 = CARTESIAN_POINT('',(644.15620493444,-274.4648412986,
    -170.6772511674));
#48 = DIRECTION('',(0.817996833247,-0.545755057046,-0.181748723539));
#49 = DIRECTION('',(0.545755057046,0.636502197207,0.544992083116));
#50 = ADVANCED_FACE('',(#51,#54),#65,.T.);
#51 = FACE_BOUND('',#52,.T.);
#52 = EDGE_LOOP('',(#53));
#53 = ORIENTED_EDGE('',*,*,#21,.T.);
#54 = FACE_BOUND('',#55,.T.);
#55 = EDGE_LOOP('',(#56));
#56 = ORIENTED_EDGE('',*,*,#57,.F.);
#57 = EDGE_CURVE('',#58,#58,#60,.T.);
#58 = VERTEX_POINT('',#59);
#59 = CARTESIAN_POINT('',(787.50434642523,-319.9479811517,
    -169.1312740022));
#60 = CIRCLE('',#61,50.1254);
#61 = AXIS2_PLACEMENT_3D('',#62,#63,#64);
#62 = CARTESIAN_POINT('',(760.1481558888,-351.8529083876,-196.4492201652
    ));
#63 = DIRECTION('',(0.817996833247,-0.545755057046,-0.181748723539));
#64 = DIRECTION('',(0.545755057046,0.636502197207,0.544992083116));
#65 = PLANE('',#66);
#66 = AXIS2_PLACEMENT_3D('',#67,#68,#69);
#67 = CARTESIAN_POINT('',(760.1481558888,-351.8529083876,-196.4492201652
    ));
#68 = DIRECTION('',(0.817996833247,-0.545755057046,-0.181748723539));
#69 = DIRECTION('',(0.545755057046,0.636502197207,0.544992083116));
#70 = ADVANCED_FACE('',(#71,#74),#85,.F.);
#71 = FACE_BOUND('',#72,.F.);
#72 = EDGE_LOOP('',(#73));
#73 = ORIENTED_EDGE('',*,*,#38,.T.);
#74 = FACE_BOUND('',#75,.F.);
#75 = EDGE_LOOP('',(#76));
#76 = ORIENTED_EDGE('',*,*,#77,.F.);
#77 = EDGE_CURVE('',#78,#78,#80,.T.);
#78 = VERTEX_POINT('',#79);
#79 = CARTESIAN_POINT('',(675.04594116322,-238.4388169366,
    -139.8306992631));
#80 = CIRCLE('',#81,56.6);
#81 = AXIS2_PLACEMENT_3D('',#82,#83,#84);
#82 = CARTESIAN_POINT('',(644.15620493444,-274.4648412986,
    -170.6772511674));
#83 = DIRECTION('',(0.817996833247,-0.545755057046,-0.181748723539));
#84 = DIRECTION('',(0.545755057046,0.636502197207,0.544992083116));
#85 = PLANE('',#86);
#86 = AXIS2_PLACEMENT_3D('',#87,#88,#89);
#87 = CARTESIAN_POINT('',(644.15620493444,-274.4648412986,
    -170.6772511674));
#88 = DIRECTION('',(0.817996833247,-0.545755057046,-0.181748723539));
#89 = DIRECTION('',(0.545755057046,0.636502197207,0.544992083116));
#90 = ADVANCED_FACE('',(#91),#110,.F.);
#91 = FACE_BOUND('',#92,.F.);
#92 = EDGE_LOOP('',(#93,#94,#102,#109));
#93 = ORIENTED_EDGE('',*,*,#57,.F.);
#94 = ORIENTED_EDGE('',*,*,#95,.F.);
#95 = EDGE_CURVE('',#96,#58,#98,.T.);
#96 = VERTEX_POINT('',#97);
#97 = CARTESIAN_POINT('',(767.05442559407,-306.3041047256,
    -164.5875559137));
#98 = LINE('',#99,#100);
#99 = CARTESIAN_POINT('',(767.05442559407,-306.3041047256,
    -164.5875559137));
#100 = VECTOR('',#101,1.);
#101 = DIRECTION('',(0.817996833247,-0.545755057046,-0.181748723539));
#102 = ORIENTED_EDGE('',*,*,#103,.T.);
#103 = EDGE_CURVE('',#96,#96,#104,.T.);
#104 = CIRCLE('',#105,50.1254);
#105 = AXIS2_PLACEMENT_3D('',#106,#107,#108);
#106 = CARTESIAN_POINT('',(739.69823505764,-338.2090319615,
    -191.9055020768));
#107 = DIRECTION('',(0.817996833247,-0.545755057046,-0.181748723539));
#108 = DIRECTION('',(0.545755057046,0.636502197207,0.544992083116));
#109 = ORIENTED_EDGE('',*,*,#95,.T.);
#110 = CYLINDRICAL_SURFACE('',#111,50.1254);
#111 = AXIS2_PLACEMENT_3D('',#112,#113,#114);
#112 = CARTESIAN_POINT('',(739.69823505764,-338.2090319615,
    -191.9055020768));
#113 = DIRECTION('',(0.817996833247,-0.545755057046,-0.181748723539));
#114 = DIRECTION('',(0.545755057046,0.636502197207,0.544992083116));
#115 = ADVANCED_FACE('',(#116),#135,.F.);
#116 = FACE_BOUND('',#117,.F.);
#117 = EDGE_LOOP('',(#118,#127,#133,#134));
#118 = ORIENTED_EDGE('',*,*,#119,.F.);
#119 = EDGE_CURVE('',#120,#120,#122,.T.);
#120 = VERTEX_POINT('',#121);
#121 = CARTESIAN_POINT('',(707.76581449308,-260.2690192184,
    -147.1006482046));
#122 = CIRCLE('',#123,56.6);
#123 = AXIS2_PLACEMENT_3D('',#124,#125,#126);
#124 = CARTESIAN_POINT('',(676.8760782643,-296.2950435804,-177.947200109
    ));
#125 = DIRECTION('',(0.817996833247,-0.545755057046,-0.181748723539));
#126 = DIRECTION('',(0.545755057046,0.636502197207,0.544992083116));
#127 = ORIENTED_EDGE('',*,*,#128,.F.);
#128 = EDGE_CURVE('',#78,#120,#129,.T.);
#129 = LINE('',#130,#131);
#130 = CARTESIAN_POINT('',(675.04594116322,-238.4388169366,
    -139.8306992631));
#131 = VECTOR('',#132,1.);
#132 = DIRECTION('',(0.817996833247,-0.545755057046,-0.181748723539));
#133 = ORIENTED_EDGE('',*,*,#77,.T.);
#134 = ORIENTED_EDGE('',*,*,#128,.T.);
#135 = CYLINDRICAL_SURFACE('',#136,56.6);
#136 = AXIS2_PLACEMENT_3D('',#137,#138,#139);
#137 = CARTESIAN_POINT('',(644.15620493444,-274.4648412986,
    -170.6772511674));
#138 = DIRECTION('',(0.817996833247,-0.545755057046,-0.181748723539));
#139 = DIRECTION('',(0.545755057046,0.636502197207,0.544992083116));
#140 = ADVANCED_FACE('',(#141,#152),#155,.F.);
#141 = FACE_BOUND('',#142,.F.);
#142 = EDGE_LOOP('',(#143));
#143 = ORIENTED_EDGE('',*,*,#144,.T.);
#144 = EDGE_CURVE('',#145,#145,#147,.T.);
#145 = VERTEX_POINT('',#146);
#146 = CARTESIAN_POINT('',(776.97330545385,-294.7359318922,
    -154.6825427999));
#147 = CIRCLE('',#148,68.3);
#148 = AXIS2_PLACEMENT_3D('',#149,#150,#151);
#149 = CARTESIAN_POINT('',(739.69823505764,-338.2090319615,
    -191.9055020768));
#150 = DIRECTION('',(0.817996833247,-0.545755057046,-0.181748723539));
#151 = DIRECTION('',(0.545755057046,0.636502197207,0.544992083116));
#152 = FACE_BOUND('',#153,.F.);
#153 = EDGE_LOOP('',(#154));
#154 = ORIENTED_EDGE('',*,*,#103,.F.);
#155 = PLANE('',#156);
#156 = AXIS2_PLACEMENT_3D('',#157,#158,#159);
#157 = CARTESIAN_POINT('',(739.69823505764,-338.2090319615,
    -191.9055020768));
#158 = DIRECTION('',(0.817996833247,-0.545755057046,-0.181748723539));
#159 = DIRECTION('',(0.545755057046,0.636502197207,0.544992083116));
#160 = ADVANCED_FACE('',(#161,#172),#175,.T.);
#161 = FACE_BOUND('',#162,.T.);
#162 = EDGE_LOOP('',(#163));
#163 = ORIENTED_EDGE('',*,*,#164,.T.);
#164 = EDGE_CURVE('',#165,#165,#167,.T.);
#165 = VERTEX_POINT('',#166);
#166 = CARTESIAN_POINT('',(714.15114866051,-252.8219435111,
    -140.7242408321));
#167 = CIRCLE('',#168,68.3);
#168 = AXIS2_PLACEMENT_3D('',#169,#170,#171);
#169 = CARTESIAN_POINT('',(676.8760782643,-296.2950435804,-177.947200109
    ));
#170 = DIRECTION('',(0.817996833247,-0.545755057046,-0.181748723539));
#171 = DIRECTION('',(0.545755057046,0.636502197207,0.544992083116));
#172 = FACE_BOUND('',#173,.T.);
#173 = EDGE_LOOP('',(#174));
#174 = ORIENTED_EDGE('',*,*,#119,.F.);
#175 = PLANE('',#176);
#176 = AXIS2_PLACEMENT_3D('',#177,#178,#179);
#177 = CARTESIAN_POINT('',(676.8760782643,-296.2950435804,-177.947200109
    ));
#178 = DIRECTION('',(0.817996833247,-0.545755057046,-0.181748723539));
#179 = DIRECTION('',(0.545755057046,0.636502197207,0.544992083116));
#180 = ADVANCED_FACE('',(#181),#192,.F.);
#181 = FACE_BOUND('',#182,.F.);
#182 = EDGE_LOOP('',(#183,#184,#190,#191));
#183 = ORIENTED_EDGE('',*,*,#144,.F.);
#184 = ORIENTED_EDGE('',*,*,#185,.F.);
#185 = EDGE_CURVE('',#165,#145,#186,.T.);
#186 = LINE('',#187,#188);
#187 = CARTESIAN_POINT('',(714.15114866051,-252.8219435111,
    -140.7242408321));
#188 = VECTOR('',#189,1.);
#189 = DIRECTION('',(0.817996833247,-0.545755057046,-0.181748723539));
#190 = ORIENTED_EDGE('',*,*,#164,.T.);
#191 = ORIENTED_EDGE('',*,*,#185,.T.);
#192 = CYLINDRICAL_SURFACE('',#193,68.3);
#193 = AXIS2_PLACEMENT_3D('',#194,#195,#196);
#194 = CARTESIAN_POINT('',(676.8760782643,-296.2950435804,-177.947200109
    ));
#195 = DIRECTION('',(0.817996833247,-0.545755057046,-0.181748723539));
#196 = DIRECTION('',(0.545755057046,0.636502197207,0.544992083116));
#197 = ( GEOMETRIC_REPRESENTATION_CONTEXT(3) 
GLOBAL_UNCERTAINTY_ASSIGNED_CONTEXT((#201)) GLOBAL_UNIT_ASSIGNED_CONTEXT
((#198,#199,#200)) REPRESENTATION_CONTEXT('Context #1',
  '3D Context with UNIT and UNCERTAINTY') );
#198 = ( LENGTH_UNIT() NAMED_UNIT(*) SI_UNIT(.MILLI.,.METRE.) );
#199 = ( NAMED_UNIT(*) PLANE_ANGLE_UNIT() SI_UNIT($,.RADIAN.) );
#200 = ( NAMED_UNIT(*) SI_UNIT($,.STERADIAN.) SOLID_ANGLE_UNIT() );
#201 = UNCERTAINTY_MEASURE_WITH_UNIT(LENGTH_MEASURE(1.E-07),#198,
  'distance_accuracy_value','confusion accuracy');
#202 = PRODUCT_RELATED_PRODUCT_CATEGORY('part',$,(#7));
ENDSEC;
END-ISO-10303-21;
