DBRep_DrawableShape

CASCADE Topology V1, (c) Matra-Datavision
Locations 0
Curve2ds 31
1 6.2831853071795862 0 0 1 
1 0 0 0 1 
1 0 10 1 0 
7 0 0  3 47 45  0 7  0.0066887581331123254 6.9999966721526263  0.020007640547976078 7.0021499131701868  0.039695687095612338 7.0116301457885859  0.058977340254871558 7.0271470578156148  0.077742576488029694 7.0484322618028932  0.095885828378234741 7.0751816470050182  0.11330710087113358 7.1070504345069452  0.12991249974558366 7.1436543590287771  0.1456154046726893 7.1845701259048198  0.16033675805472489 7.2293326168648733  0.17400938205960265 7.2774459132425884  0.18656820553485104 7.3283425001170643  0.19799394100200385 7.3815362403718821  0.20837443501067046 7.4371317069054479  0.21767784218369515 7.4947538964449141  0.22590302917665395 7.5541623260660717  0.23304217463337076 7.6150974628202555  0.23909069280119105 7.6773199055227463  0.24404447219228692 7.7405979769534596  0.24790050652587042 7.8047091878716861  0.25065660846206284 7.8694380689873764  0.25231135883742106 7.9345749249168733  0.25286398355413797 7.9999147978690202  0.25231423218136922 8.0652549360501062  0.25066235385386365 8.1303925853685381  0.24790912117120245 8.1951228003899494  0.24405595140861056 8.2592358986687184  0.23910502997669014 8.3225164271860059  0.23305936011819184 8.3847419200554345  0.22592305322691536 8.4456807134351095  0.21770068287835206 8.5050934747218658  0.20840010232134551 8.5627205517854446  0.19802231135269147 8.6183220621359542  0.18659963829865456 8.6715209366933195  0.17404249545357212 8.7224293343748922  0.16036926102833296 8.7705615661194507  0.14564553881072029 8.8153456471779048  0.12993878235693843 8.8562832945185299  0.11332849729464084 8.8929072392868296  0.095901785387377037 8.9247927493750652  0.07775307072177165 8.951554699182763  0.058982902225133693 8.972848057971067  0.039697411022701606 8.9883690889017291  0.020007182634443604 8.9978503337777713  0.0066883027791992365 9.0000033819995835  0 9 
 0 4 0.022727272727272728 1 0.045454545454545456 1 0.068181818181818177 1 0.090909090909090912 1 0.11363636363636365 1 0.13636363636363635 1 0.15909090909090909 1 0.18181818181818182 1 0.20454545454545456 1 0.22727272727272729 1 0.25 1 0.27272727272727271 1 0.29545454545454547 1 0.31818181818181818 1 0.34090909090909094 1 0.36363636363636365 1 0.38636363636363635 1 0.40909090909090912 1 0.43181818181818182 1 0.45454545454545459 1 0.47727272727272729 1 0.5 1 0.52272727272727271 1 0.54545454545454541 1 0.56818181818181823 1 0.59090909090909094 1 0.61363636363636365 1 0.63636363636363635 1 0.65909090909090906 1 0.68181818181818188 1 0.70454545454545459 1 0.72727272727272729 1 0.75 1 0.77272727272727271 1 0.79545454545454553 1 0.81818181818181823 1 0.84090909090909094 1 0.86363636363636365 1 0.88636363636363635 1 0.90909090909090917 1 0.93181818181818188 1 0.95454545454545459 1 0.97727272727272729 1 1 4
7 0 0  3 47 45  3.1415926535897936 10  3.1683454824345318 10.00000295907191  3.2216249342237382 9.9994607197098428  3.300851125843304 9.9971026694125289  3.3793737926095146 9.9932865463518912  3.4571689922231439 9.9881450387227542  3.5342027026773004 9.9818360479186854  3.6104283929691166 9.9745424489112278  3.6857853827749523 9.9664656444719419  3.7601979041819216 9.9578199735464956  3.8335684505594672 9.9488270295950318  3.9057909467630498 9.9397070793414724  3.9766878139737027 9.9306802383562545  4.0462289034701797 9.9219300613410581  4.1150689037657759 9.9135370697542786  4.1831695455325164 9.9056561823299241  4.2506537119565468 9.898407195544273  4.3175957029482763 9.8919014544254775  4.3840787118734372 9.8862343418237053  4.4501804794288953 9.88148701699747  4.5159780351634513 9.8777257663354714  4.5815472743376047 9.8750020840810553  4.6469637955310805 9.8733526487714247  4.712303838810378 9.8727994146760381  4.7776437839779895 9.8733497753839892  4.8430600058418305 9.8749963755252566  4.9086287487660378 9.8777172988922963  4.9744256110763363 9.8814759055407784  5.0405264855726726 9.8862207397311366  5.1070084024493783 9.8918855541659223  5.1739490828443069 9.8983892260641309  5.2414317678766427 9.9056364174521914  5.3095305445463445 9.9135157946123638  5.3783690447423442 9.9219076945455527  5.4479061452606459 9.9306568720798758  5.5188066674711083 9.939684134626992  5.5910433117795364 9.9488062992868471  5.6644341759903654 9.9578025443559763  5.7388712137068927 9.9664521181560239  5.8142546573000145 9.9745328889432052  5.8905068134783782 9.9818300670269213  5.96756516876912 9.9881419084375285  6.0453814481853829 9.9932853483180644  6.1239199083177152 9.9971024786627591  6.203154877595197 9.9994607803988806  6.2564342796043535 10.000002974709782  6.2831853071795871 10 
 0 4 0.022727272727272728 1 0.045454545454545456 1 0.068181818181818177 1 0.090909090909090912 1 0.11363636363636365 1 0.13636363636363635 1 0.15909090909090909 1 0.18181818181818182 1 0.20454545454545456 1 0.22727272727272729 1 0.25 1 0.27272727272727271 1 0.29545454545454547 1 0.31818181818181818 1 0.34090909090909094 1 0.36363636363636365 1 0.38636363636363635 1 0.40909090909090912 1 0.43181818181818182 1 0.45454545454545459 1 0.47727272727272729 1 0.5 1 0.52272727272727271 1 0.54545454545454541 1 0.56818181818181823 1 0.59090909090909094 1 0.61363636363636365 1 0.63636363636363635 1 0.65909090909090906 1 0.68181818181818188 1 0.70454545454545459 1 0.72727272727272729 1 0.75 1 0.77272727272727271 1 0.79545454545454553 1 0.81818181818181823 1 0.84090909090909094 1 0.86363636363636365 1 0.88636363636363635 1 0.90909090909090917 1 0.93181818181818188 1 0.95454545454545459 1 0.97727272727272729 1 1 4
1 6.2831853071795862 0 0 1 
1 0 0 0 1 
1 0 0 1 0 
7 0 0  3 47 45  6.2831853071795862 9  6.2764965436687312 9.0000033278580602  6.2631776505948844 8.997850083369034  6.2434895886184654 8.988369835669376  6.2242079208658261 8.9728528992402818  6.2054426711310837 8.9515676622626987  6.1872994070686884 8.9248182363153532  6.1698781239631399 8.8929494013294246  6.1532727161960148 8.8563454235328702  6.137569804402947 8.815429599392294  6.1228484458058166 8.7706670463977314  6.1091758202451301 8.7225536926671285  6.0966169917893991 8.6716570249836558  6.0851912745372614 8.6184632932025149  6.0748108717722991 8.5628682659497262  6.0655075695806753 8.5052467642064862  6.0572824817021278 8.4458392168752354  6.0501434105905858 8.3849050707305093  6.0440949323432251 8.3226836527607642  6.0391411540969946 8.2594065672228467  6.0352850827213365 8.1952962375318084  6.0325289099589749 8.1305680701743182  6.0308740625222361 8.0654317217692117  6.0303213244262608 8.0000920675932754  6.0308709585535434 7.934751997176285  6.0325227161983079 7.869614428181638  6.0352758247263898 7.8048842604723117  6.0391288669723275 7.7407711867541904  6.0440796576211531 7.6774906551049922  6.0501251935371823 7.6152651303357608  6.0572613635007588 7.5543262737475905  6.0654835939290725 7.4949134160970372  6.0747840323230262 7.4372862049537183  6.0851616768876982 7.3816845269028146  6.0965842076335583 7.3284854215980015  6.1091411633268677 7.2775769050659269  6.1228142448256788 7.2294443316619743  6.1375378956009667 7.184659619074993  6.1532446977320232 7.1437210668855338  6.1698551592926609 7.1070960466513986  6.1872821699914917 7.0752094334902811  6.2054312735804267 7.0484465045024738  6.2242018658070339 7.0271524177831273  6.24348773759053 7.0116309767738825  6.2631782066731621 7.0021496322960077  6.2764970733555385 6.9999966062570875  6.2831853071795862 7 
 0 4 0.022727272727272728 1 0.045454545454545456 1 0.068181818181818177 1 0.090909090909090912 1 0.11363636363636365 1 0.13636363636363635 1 0.15909090909090909 1 0.18181818181818182 1 0.20454545454545456 1 0.22727272727272729 1 0.25 1 0.27272727272727271 1 0.29545454545454547 1 0.31818181818181818 1 0.34090909090909094 1 0.36363636363636365 1 0.38636363636363635 1 0.40909090909090912 1 0.43181818181818182 1 0.45454545454545459 1 0.47727272727272729 1 0.5 1 0.52272727272727271 1 0.54545454545454541 1 0.56818181818181823 1 0.59090909090909094 1 0.61363636363636365 1 0.63636363636363635 1 0.65909090909090906 1 0.68181818181818188 1 0.70454545454545459 1 0.72727272727272729 1 0.75 1 0.77272727272727271 1 0.79545454545454553 1 0.81818181818181823 1 0.84090909090909094 1 0.86363636363636365 1 0.88636363636363635 1 0.90909090909090917 1 0.93181818181818188 1 0.95454545454545459 1 0.97727272727272729 1 1 4
7 0 0  3 47 45  0 10  0.026752850348481991 10.000002959081161  0.080032344786458598 9.9994607188390354  0.15925859925545879 9.997102664809697  0.23778132771410732 9.9932865358484388  0.31557658777986286 9.9881450205349278  0.39261035734649646 9.9818360207160488  0.46883610519523433 9.9745424118893631  0.54419315100077859 9.9664655973575034  0.61860572579282747 9.9578199167306032  0.69197632551858257 9.9488269636706672  0.7641988636821071 9.9397070067372137  0.83509580166644193 9.9306801570142724  0.90463683804139194 9.9219299879518097  0.97347627302922746 9.9135370667002665  1.0415761157796506 9.9056562708161593  1.1090593244535332 9.8984073777938288  1.1760002966473297 9.8919017122395747  1.2424822944788283 9.8862346437848299  1.3085831193324478 9.8814873245593198  1.3743798509009399 9.8777260403551708  1.4399484316075259 9.8750022901375942  1.5053644853138008 9.8733527611480998  1.5707043246687891 9.8727994159612908  1.6360441874610345 9.8733496588049476  1.7014602838159412 9.8749961399399684  1.7670289018788548 9.8777169437451757  1.8328256278006498 9.8814754323526746  1.8989263571247745 9.886220151832795  1.9654081186293089 9.8918848568810027  2.0323486332947738 9.8983884268039173  2.0998311406960961 9.9056355256632749  2.1679297299795022 9.9135148223458671  2.2367680210741243 9.9219066546281578  2.3063049306343535 9.9306557851928687  2.3772050162221499 9.9396829890314358  2.4494414266893902 9.9488051461639113  2.5228324384015774 9.9578014571212918  2.5972701096589805 9.9664511739703912  2.6726546731506273 9.9745321476077358  2.7489083567522394 9.9818295568375568  2.8259684943990031 9.9881416190609364  2.9037865918001207 9.9932852322621493  2.9823266181278072 9.9971024642309114  3.0615625546114251 9.9994607900887438  3.1148419000832246 10.000002978308112  3.1415926535897931 10 
 0 4 0.022727272727272728 1 0.045454545454545456 1 0.068181818181818177 1 0.090909090909090912 1 0.11363636363636365 1 0.13636363636363635 1 0.15909090909090909 1 0.18181818181818182 1 0.20454545454545456 1 0.22727272727272729 1 0.25 1 0.27272727272727271 1 0.29545454545454547 1 0.31818181818181818 1 0.34090909090909094 1 0.36363636363636365 1 0.38636363636363635 1 0.40909090909090912 1 0.43181818181818182 1 0.45454545454545459 1 0.47727272727272729 1 0.5 1 0.52272727272727271 1 0.54545454545454541 1 0.56818181818181823 1 0.59090909090909094 1 0.61363636363636365 1 0.63636363636363635 1 0.65909090909090906 1 0.68181818181818188 1 0.70454545454545459 1 0.72727272727272729 1 0.75 1 0.77272727272727271 1 0.79545454545454553 1 0.81818181818181823 1 0.84090909090909094 1 0.86363636363636365 1 0.88636363636363635 1 0.90909090909090917 1 0.93181818181818188 1 0.95454545454545459 1 0.97727272727272729 1 1 4
7 0 0  3 69 67  3.1415926535897931 9  3.1505120357981768 9.0000105030625104  3.1682445825862202 8.996173960072392  3.1942593455981578 8.9794403970092826  3.2194188799001653 8.9522727172640479  3.2434721993478703 8.9153879867833581  3.2661840870927943 8.8696165998698611  3.2873403225009676 8.8159152043580171  3.306750549676404 8.7553730710912951  3.3242571957161311 8.6891725799497195  3.3397289305263551 8.6187388834603649  3.3533325846058837 8.5440972014282739  3.3650190356768204 8.4659988656744503  3.3747801949415073 8.3850328726918839  3.382601634777366 8.3017817231115689  3.3884748629770192 8.2167877946651835  3.392393575432378 8.1305700971151609  3.394354158051232 8.0436274825791934  3.3943549656053973 7.9564441690707923  3.392395981459619 7.8695007179106771  3.3884788252231681 7.7832814334182032  3.3826070913716841 7.6982852701320716  3.3747870798640327 7.6150313841880122  3.3650272730212403 7.5340622438545237  3.353342179679951 7.4559607067020073  3.3397397217897602 7.381315163869786  3.3242698994659095 7.3108799420983264  3.3067615467715035 7.2446636777211273  3.2873462079762041 7.1841001141102661  3.2661823897454187 7.1303778729571512  3.2434609358134137 7.0845912146219865  3.219399429103357 7.047698998367582  3.1942268009144619 7.0205352828444703  3.1682244687054193 7.003806014167794  3.1415574060836824 6.9980897107754636  3.1148947854268698 7.0038351998858053  3.0889007395447594 7.0205861514881063  3.0637394988441216 7.0477610494768852  3.039690605893798 7.084652738290842  3.0169815299580991 7.130428249515214  2.995828478446084 7.1841317434905161  2.9764211779563321 7.2446739510062166  2.9589173235542972 7.3108725758005164  2.9434480064523671 7.3813032659813187  2.9298463112953157 7.4559419016178232  2.9181615360700226 7.5340366542626711  2.9084017872779753 7.6149986304951458  2.9005815220118123 7.6982452613965364  2.8947092353702684 7.7832341467173096  2.8907912234736051 7.8694462464894412  2.8888310831236446 7.9563827202707644  2.8888304313463036 8.04355932052027  2.8907892687267327 8.1304961138626854  2.8947059791105807 8.2167088587881558  2.9005769682731617 8.3016987299062439  2.9083959379884332 8.3849466886633284  2.9181544098192078 8.4659104045751743  2.9298378745124305 8.5440071425368433  2.9434384313477562 8.6186487432038899  2.9589060264953764 8.6890807729067827  2.9764118501488359 8.7552950065936201  2.9958243360882504 8.8158579537549944  3.0169850743522084 8.8695810389943457  3.0397027165863673 8.9153706363278662  3.063761870860167 8.9522676185329981  3.0889260670004406 8.9794410324941829  3.1149430290733355 8.9961749452582485  3.1326745865560106 9.0000106688661852  3.1415926535897931 9 
 0 4 0.015151515151515152 1 0.030303030303030304 1 0.045454545454545456 1 0.060606060606060608 1 0.07575757575757576 1 0.090909090909090912 1 0.10606060606060606 1 0.12121212121212122 1 0.13636363636363635 1 0.15151515151515152 1 0.16666666666666669 1 0.18181818181818182 1 0.19696969696969696 1 0.21212121212121213 1 0.22727272727272729 1 0.24242424242424243 1 0.25757575757575757 1 0.27272727272727271 1 0.2878787878787879 1 0.30303030303030304 1 0.31818181818181818 1 0.33333333333333337 1 0.34848484848484851 1 0.36363636363636365 1 0.37878787878787878 1 0.39393939393939392 1 0.40909090909090912 1 0.42424242424242425 1 0.43939393939393939 1 0.45454545454545459 1 0.46969696969696972 1 0.48484848484848486 1 0.5 1 0.51515151515151514 1 0.53030303030303028 1 0.54545454545454541 1 0.56060606060606066 1 0.5757575757575758 1 0.59090909090909094 1 0.60606060606060608 1 0.62121212121212122 1 0.63636363636363635 1 0.65151515151515149 1 0.66666666666666674 1 0.68181818181818188 1 0.69696969696969702 1 0.71212121212121215 1 0.72727272727272729 1 0.74242424242424243 1 0.75757575757575757 1 0.77272727272727271 1 0.78787878787878785 1 0.80303030303030309 1 0.81818181818181823 1 0.83333333333333337 1 0.84848484848484851 1 0.86363636363636365 1 0.87878787878787878 1 0.89393939393939392 1 0.90909090909090917 1 0.92424242424242431 1 0.93939393939393945 1 0.95454545454545459 1 0.96969696969696972 1 0.98484848484848486 1 1 4
7 0 0  3 69 67  0 2  0.035670357104707229 1.9999910099459424  0.10661324736295974 2.0009619866880062  0.21178735430576623 2.0051078542209773  0.31568726401830993 2.0117043960546717  0.41823425039596707 2.0203772940296343  0.51931307602834309 2.0306869660863986  0.61876377310283903 2.0421378343754975  0.71636285143449197 2.0542060160613604  0.81185097867131439 2.0663696760948933  0.90477149638716892 2.0781220520804236  0.99637727379113716 2.0892290741741104  1.0867400012024477 2.099349729199349  1.1761019964806287 2.1082111864625674  1.2646451538185275 2.1155794926477856  1.3525575349675645 2.121268664422983  1.4400193931816574 2.1251389810846817  1.527210155302237 2.1270977039431287  1.6143108691908221 2.1270985133123479  1.7015019251368582 2.1251413713912539  1.7889642962527716 2.121272544779393  1.876877325991261 2.1155847159924819  1.9654211296857049 2.1082175675767507  2.0547837075318931 2.0993570505375234  2.1451464691613662 2.0892371563234424  2.2367526178365686 2.0781305857310728  2.3296692912276526 2.0663789220291942  2.4251730290055242 2.0542131586845915  2.5228010614156169 2.0421410966426898  2.6222880960390462 2.0306858131969996  2.7234077671046411 2.0203726062274017  2.8259876728884095 2.011697431803964  2.9299369503661641 2.0051026746778082  3.0350640107470515 2.0009540251327431  3.1417333880790466 1.9995211668482689  3.2483865307649342 2.0009613217638211  3.3534842179015723 2.0051151785621659  3.4573923504368604 2.0117122622762582  3.5599250281212989 2.0203867383192442  3.6609957134266171 2.0306967888201397  3.7604367210569105 2.0421475226093952  3.8580266792142073 2.0542150123970866  3.9535054980812827 2.0663775735413377  4.0464174945891305 2.0781286831855939  4.1380163111802375 2.0892344920843393  4.2283726341915191 2.0993539479017289  4.3177286607193786 2.1082142760934635  4.4062660172780017 2.115581555546179  4.4941725957981244 2.12126984867181  4.5816284866742745 2.1251394834724011  4.6688130002664803 2.1270977698292697  4.7559070196305342 2.1270984234856165  4.8430914128464586 2.1251414289410562  4.9305470627708186 2.1212730399793007  5.0184532852423462 2.1155859148941589  5.1069901482471689 2.1082196971579581  5.1963456162261537 2.0993602835680965  5.2867010253670887 2.0892416013868265  5.378299626252506 2.0781362585916074  5.4712081304161959 2.0663857892507838  5.5667032191548991 2.0542210618342596  5.6643219072517574 2.0421497378581015  5.7637990532303558 2.0306948390186395  5.8649062788619606 2.0203813353876749  5.9674792060614976 2.0117056354249545  6.0713984740415867 2.005107700999694  6.1765813341932017 2.0009617429534519  6.2475201569749679 1.9999909622079219  6.2831853071795862 2 
 0 4 0.015151515151515152 1 0.030303030303030304 1 0.045454545454545456 1 0.060606060606060608 1 0.07575757575757576 1 0.090909090909090912 1 0.10606060606060606 1 0.12121212121212122 1 0.13636363636363635 1 0.15151515151515152 1 0.16666666666666669 1 0.18181818181818182 1 0.19696969696969696 1 0.21212121212121213 1 0.22727272727272729 1 0.24242424242424243 1 0.25757575757575757 1 0.27272727272727271 1 0.2878787878787879 1 0.30303030303030304 1 0.31818181818181818 1 0.33333333333333337 1 0.34848484848484851 1 0.36363636363636365 1 0.37878787878787878 1 0.39393939393939392 1 0.40909090909090912 1 0.42424242424242425 1 0.43939393939393939 1 0.45454545454545459 1 0.46969696969696972 1 0.48484848484848486 1 0.5 1 0.51515151515151514 1 0.53030303030303028 1 0.54545454545454541 1 0.56060606060606066 1 0.5757575757575758 1 0.59090909090909094 1 0.60606060606060608 1 0.62121212121212122 1 0.63636363636363635 1 0.65151515151515149 1 0.66666666666666674 1 0.68181818181818188 1 0.69696969696969702 1 0.71212121212121215 1 0.72727272727272729 1 0.74242424242424243 1 0.75757575757575757 1 0.77272727272727271 1 0.78787878787878785 1 0.80303030303030309 1 0.81818181818181823 1 0.83333333333333337 1 0.84848484848484851 1 0.86363636363636365 1 0.87878787878787878 1 0.89393939393939392 1 0.90909090909090917 1 0.92424242424242431 1 0.93939393939393945 1 0.95454545454545459 1 0.96969696969696972 1 0.98484848484848486 1 1 4
1 6.2831853071795862 0 0 1 
1 0 0 0 1 
7 0 0  3 69 67  0 7.5  0.017350085950651774 7.5000015865548706  0.052014677971844642 7.4993966550175628  0.10385688789461538 7.4967068405194883  0.15549728645976904 7.4922690846630093  0.2068859221483991 7.4861438364854509  0.25796976850644082 7.4784082346339398  0.3086923850443839 7.4691578367365885  0.35899022753362803 7.4585061672266759  0.4088019917588861 7.4465811709903216  0.45802860085096531 7.4335354178674056  0.5067117832829573 7.4194938996428954  0.5549077207048303 7.4045756426479628  0.60265241745364639 7.3889055916351518  0.64998571981914244 7.3726080356239327  0.696945261795753 7.3558086095310884  0.743568397159315 7.3386340015170921  0.78989198498994495 7.3212122616835593  0.83595255739293195 7.3036729996505541  0.88178694558174509 7.2861474252634935  0.92743058909713183 7.2687691279017983  0.97299814127116835 7.2516441109235572  1.0185116904212936 7.2349172006765805  1.0640105730345977 7.2187297675711397  1.1095315524655411 7.2032271008318274  1.1551149447928226 7.1885556405210949  1.2008035640106611 7.1748628901520588  1.2466443886614356 7.1622959564863438  1.2926866323745023 7.1510021068162599  1.3388888585005165 7.1411452267296198  1.385255633540351 7.1328634181239217  1.4317944222922954 7.1262820078580784  1.4784552366773862 7.121513368397264  1.5251944222128484 7.118638493145018  1.571997748137945 7.1177076884018691  1.6187720633448062 7.1187385276678592  1.6654554184372783 7.121706685500012  1.7120529633882713 7.126560195083802  1.7585440117258144 7.1332196475879899  1.8049023742191699 7.1415786882935963  1.851095549890907 7.151507441682976  1.8970539011071967 7.1628462194343694  1.9428024965078274 7.1754435301084882  1.9884055091330999 7.1891573597774174  2.0339050506537673 7.2038401026807142  2.0793444390837532 7.2193453106478875  2.1247629628278304 7.2355271324637735  2.1701972017887994 7.2522411408298053  2.2156845216449019 7.2693461402758155  2.2612513760514661 7.2866998849507825  2.3070147368712459 7.3041981821965631  2.3530027330993741 7.321705465990231  2.3992539284529522 7.3390919979925915  2.4458041678091238 7.3562286989083763  2.4926902785576766 7.3729882873697843  2.5399493931214652 7.389244762927464  2.5876190338024094 7.4048732050885064  2.6357386865668406 7.4197499640587381  2.6843448737305344 7.4337509686211032  2.733491015422608 7.446757173765131  2.7832198408023983 7.4586447242725251  2.8334335275433737 7.4692621284287828  2.8840705513845974 7.4784820810473382  2.9350675025970476 7.4861917244234988  2.986367946596582 7.4922960625119339  3.0379188686513467 7.4967184388925352  3.0896703046337062 7.4993988060584842  3.1242734945823125 7.5000015789038583  3.1415926535897931 7.5 
 0 4 0.015151515151515152 1 0.030303030303030304 1 0.045454545454545456 1 0.060606060606060608 1 0.07575757575757576 1 0.090909090909090912 1 0.10606060606060606 1 0.12121212121212122 1 0.13636363636363635 1 0.15151515151515152 1 0.16666666666666669 1 0.18181818181818182 1 0.19696969696969696 1 0.21212121212121213 1 0.22727272727272729 1 0.24242424242424243 1 0.25757575757575757 1 0.27272727272727271 1 0.2878787878787879 1 0.30303030303030304 1 0.31818181818181818 1 0.33333333333333337 1 0.34848484848484851 1 0.36363636363636365 1 0.37878787878787878 1 0.39393939393939392 1 0.40909090909090912 1 0.42424242424242425 1 0.43939393939393939 1 0.45454545454545459 1 0.46969696969696972 1 0.48484848484848486 1 0.5 1 0.51515151515151514 1 0.53030303030303028 1 0.54545454545454541 1 0.56060606060606066 1 0.5757575757575758 1 0.59090909090909094 1 0.60606060606060608 1 0.62121212121212122 1 0.63636363636363635 1 0.65151515151515149 1 0.66666666666666674 1 0.68181818181818188 1 0.69696969696969702 1 0.71212121212121215 1 0.72727272727272729 1 0.74242424242424243 1 0.75757575757575757 1 0.77272727272727271 1 0.78787878787878785 1 0.80303030303030309 1 0.81818181818181823 1 0.83333333333333337 1 0.84848484848484851 1 0.86363636363636365 1 0.87878787878787878 1 0.89393939393939392 1 0.90909090909090917 1 0.92424242424242431 1 0.93939393939393945 1 0.95454545454545459 1 0.96969696969696972 1 0.98484848484848486 1 1 4
7 0 0  3 69 67  6.2831853071795862 10  6.2716185236364694 10.000001405823186  6.2485089008275239 9.9990957921376609  6.2139993750943425 9.9950559164745165  6.1797275965316416 9.9883717795030851  6.1457772331830682 9.9791037696699103  6.1122331350790766 9.9673277294227489  6.0791812563060645 9.9531369790906226  6.0467106449660157 9.9366433254463367  6.0149071237601817 9.9179728474452258  5.983877585103837 9.8972840689811523  5.9536376764279169 9.8746868781918735  5.9241955414403336 9.8502749820281164  5.8955733487738549 9.8241452875212829  5.8677927271960968 9.7963873130461039  5.8408789521362472 9.7670862956799684  5.8148601104394189 9.7363226433680943  5.789767604765629 9.7041723117685343  5.7656363054424418 9.6707071375721299  5.7425047421677675 9.6359944212426392  5.7204154475426385 9.6000995556013606  5.699379767823423 9.5630184236377342  5.6794607515247399 9.5248146108376766  5.6607173835611881 9.4855370473805838  5.6432149365835969 9.4452349646482556  5.6270219034930591 9.4039535395014102  5.6122106558092604 9.3617348944918692  5.5988565030228372 9.3186170824117038  5.5870392878053039 9.2746358734056997  5.576860705347265 9.2299164175662565  5.5684017648121973 9.1845443637974018  5.5617380255462336 9.1386049058298564  5.5569411571382474 9.0922434545103954  5.554061817792995 9.0456027349279111  5.5531315231348763 8.9987981381632629  5.5541618373202155 8.9520251967922473  5.5571351354317642 8.9054479221808442  5.5620186752505276 8.8591617890807317  5.5687639127111339 8.813286283249445  5.5773057589330577 8.7679436218645819  5.5875644657541557 8.7232588457206166  5.5994367653623698 8.6793874217235505  5.6128332349951791 8.6363885139576624  5.6276794783173543 8.5942834892559894  5.6438993822615799 8.5531145444449947  5.6614213845570376 8.5129229268470201  5.6801772368765917 8.4737543386405783  5.7001021805109708 8.4356577798991612  5.7211368457133993 8.3986833550933113  5.7432207331753595 8.3628906890964512  5.7663444928487806 8.3282739757544899  5.7904624297687448 8.2949039190045113  5.8155372449098302 8.2628460522277916  5.8415340839423777 8.2321723123911372  5.868421853451423 8.2029582215237475  5.8961726546553663 8.1752838699590153  5.9247614389061241 8.1492340851813019  5.9541666283734145 8.1248980564876199  5.9843666388635981 8.1023719507850025  6.0153518330147833 8.0817501080301071  6.047107379940627 8.0631411525787087  6.0795274106269339 8.0467024372269282  6.1125262030564755 8.0325595255437587  6.1460150410312373 8.020823617249345  6.17990822535549 8.011587530192946  6.2141211684759128 8.0049266555510137  6.2485704529409247 8.0009009872690182  6.2716391422400619 7.9999985991113123  6.2831853071795862 8 
 0 4 0.015151515151515152 1 0.030303030303030304 1 0.045454545454545456 1 0.060606060606060608 1 0.07575757575757576 1 0.090909090909090912 1 0.10606060606060606 1 0.12121212121212122 1 0.13636363636363635 1 0.15151515151515152 1 0.16666666666666669 1 0.18181818181818182 1 0.19696969696969696 1 0.21212121212121213 1 0.22727272727272729 1 0.24242424242424243 1 0.25757575757575757 1 0.27272727272727271 1 0.2878787878787879 1 0.30303030303030304 1 0.31818181818181818 1 0.33333333333333337 1 0.34848484848484851 1 0.36363636363636365 1 0.37878787878787878 1 0.39393939393939392 1 0.40909090909090912 1 0.42424242424242425 1 0.43939393939393939 1 0.45454545454545459 1 0.46969696969696972 1 0.48484848484848486 1 0.5 1 0.51515151515151514 1 0.53030303030303028 1 0.54545454545454541 1 0.56060606060606066 1 0.5757575757575758 1 0.59090909090909094 1 0.60606060606060608 1 0.62121212121212122 1 0.63636363636363635 1 0.65151515151515149 1 0.66666666666666674 1 0.68181818181818188 1 0.69696969696969702 1 0.71212121212121215 1 0.72727272727272729 1 0.74242424242424243 1 0.75757575757575757 1 0.77272727272727271 1 0.78787878787878785 1 0.80303030303030309 1 0.81818181818181823 1 0.83333333333333337 1 0.84848484848484851 1 0.86363636363636365 1 0.87878787878787878 1 0.89393939393939392 1 0.90909090909090917 1 0.92424242424242431 1 0.93939393939393945 1 0.95454545454545459 1 0.96969696969696972 1 0.98484848484848486 1 1 4
7 0 0  3 69 67  3.1415926535897931 7.5  3.1589427395404455 7.5000015865548706  3.1936073315616373 7.4993966550175628  3.2454495414844073 7.4967068405194883  3.2970899400495619 7.4922690846630093  3.3484785757381919 7.4861438364854509  3.3995624220962339 7.4784082346339398  3.4502850386341755 7.4691578367365885  3.5005828811234223 7.4585061672266759  3.5503946453486797 7.4465811709903216  3.5996212544407573 7.4335354178674056  3.6483044368727509 7.4194938996428954  3.6965003742946241 7.4045756426479628  3.7442450710434478 7.3889055916351518  3.7915783734089681 7.3726080356239327  3.8385379153856332 7.3558086095310884  3.8851610507492906 7.3386340015170921  3.9314846385800526 7.3212122616835593  3.9775452109831626 7.3036729996505541  4.023379599172018 7.2861474252634935  4.06902324268711 7.2687691279017983  4.1145907948611065 7.2516441109235572  4.1601043440113044 7.2349172006765805  4.2056032266246826 7.2187297675711397  4.2511242060556071 7.2032271008318274  4.2967075983827794 7.1885556405210949  4.3423962176004878 7.1748628901520588  4.3882370422512231 7.1622959564863438  4.4342792859642959 7.1510021068162599  4.4804815120903099 7.1411452267296198  4.5268482871301439 7.1328634181239217  4.5733870758820911 7.1262820078580784  4.6200478902671733 7.121513368397264  4.6667870758026551 7.118638493145018  4.7135904017276857 7.1177076884018691  4.7603647169347898 7.1187385276678592  4.8070480720274844 7.1217066855000564  4.8536456169785378 7.1265601950839921  4.9001366653160625 7.1332196475883274  4.9464950278093074 7.1415786882939374  4.9926882034807507 7.1515074416830302  5.0386465546969825 7.1628462194343561  5.084395150097583 7.1754435301084918  5.1299981627227176 7.1891573597774174  5.1754977042432806 7.2038401026807142  5.2209370926732666 7.2193453106478875  5.2663556164174432 7.2355271324637735  5.3117898553785459 7.2522411408298053  5.3572771752347013 7.2693461402758155  5.4028440296412565 7.2866998849507825  5.4486073904610395 7.3041981821965631  5.4945953866891664 7.321705465990231  5.5408465820427448 7.3390919979925915  5.5873968213989178 7.3562286989083763  5.6342829321474683 7.3729882873697843  5.6815420467112565 7.389244762927464  5.7292116873922021 7.4048732050885064  5.7773313401566337 7.4197499640587381  5.8259375273203284 7.4337509686211032  5.8750836690124011 7.446757173765131  5.9248124943921905 7.4586447242725251  5.975026181133166 7.4692621284287828  6.0256632049743883 7.4784820810473382  6.0766601561868328 7.4861917244234988  6.1279606001863636 7.4922960625119339  6.1795115222411194 7.4967184388925352  6.2312629582234758 7.4993988060584842  6.2658661481720959 7.5000015789038583  6.2831853071795871 7.5 
 0 4 0.015151515151515152 1 0.030303030303030304 1 0.045454545454545456 1 0.060606060606060608 1 0.07575757575757576 1 0.090909090909090912 1 0.10606060606060606 1 0.12121212121212122 1 0.13636363636363635 1 0.15151515151515152 1 0.16666666666666669 1 0.18181818181818182 1 0.19696969696969696 1 0.21212121212121213 1 0.22727272727272729 1 0.24242424242424243 1 0.25757575757575757 1 0.27272727272727271 1 0.2878787878787879 1 0.30303030303030304 1 0.31818181818181818 1 0.33333333333333337 1 0.34848484848484851 1 0.36363636363636365 1 0.37878787878787878 1 0.39393939393939392 1 0.40909090909090912 1 0.42424242424242425 1 0.43939393939393939 1 0.45454545454545459 1 0.46969696969696972 1 0.48484848484848486 1 0.5 1 0.51515151515151514 1 0.53030303030303028 1 0.54545454545454541 1 0.56060606060606066 1 0.5757575757575758 1 0.59090909090909094 1 0.60606060606060608 1 0.62121212121212122 1 0.63636363636363635 1 0.65151515151515149 1 0.66666666666666674 1 0.68181818181818188 1 0.69696969696969702 1 0.71212121212121215 1 0.72727272727272729 1 0.74242424242424243 1 0.75757575757575757 1 0.77272727272727271 1 0.78787878787878785 1 0.80303030303030309 1 0.81818181818181823 1 0.83333333333333337 1 0.84848484848484851 1 0.86363636363636365 1 0.87878787878787878 1 0.89393939393939392 1 0.90909090909090917 1 0.92424242424242431 1 0.93939393939393945 1 0.95454545454545459 1 0.96969696969696972 1 0.98484848484848486 1 1 4
7 0 0  3 69 67  0 8  0.011566783543116799 7.999998594176815  0.034676406352062372 8.0009042078623391  0.069185932085243707 8.0049440835254835  0.10345771064794285 8.0116282204969149  0.13740807399651622 8.0208962303300897  0.17095217210051139 8.0326722705772511  0.20400405087351992 8.0468630209093721  0.23647466221357405 8.0633566745536669  0.26827818341940102 8.082027152554776  0.29930772207574918 8.1027159310188459  0.32954763075166937 8.1253131218081247  0.3589897657392509 8.1497250179718854  0.38761195840573137 8.1758547124787331  0.41539257998348944 8.2036126869539494  0.44230635504333904 8.2329137043201719  0.46832519674016382 8.2636773566321757  0.49341770241395899 8.2958276882319133  0.51754900173714447 8.3292928624284617  0.54068056501181871 8.364005578757979  0.56276985963694592 8.3999004443988667  0.58380553935616497 8.4369815763624434  0.60372455565484628 8.475185389162581  0.62246792361839631 8.5144629526197466  0.63997037059598938 8.5547650353520517  0.65616340368652537 8.5960464604987603  0.67097465137032586 8.6382651055081681  0.68432880415674902 8.6813829175882891  0.69614601937428056 8.7253641265943003  0.70632460183232304 8.7700835824337453  0.71478354236738717 8.8154556362025946  0.72144728163335081 8.8613950941701471  0.72624415004134057 8.9077565454895993  0.72912348938659122 8.9543972650721013  0.73005378404470811 9.0012018618366838  0.72902346985936894 9.0479748032079392  0.72605017174780251 9.0945520778195696  0.72116663192897512 9.1408382109197497  0.71442139446830133 9.1867137167510169  0.70587954824638111 9.2320563781357716  0.69562084142540748 9.2767411542794314  0.68374854181722 9.3206125782764424  0.67035207218440718 9.3636114860422968  0.65550582886223197 9.405716510743817  0.63928592491800806 9.4468854555546997  0.62176392262255042 9.4870770731526548  0.60300807030299275 9.5262456613592104  0.58308312666861362 9.5643422201007766  0.56204846146618515 9.6013166449066976  0.53996457400422671 9.6371093109035435  0.51684081433080387 9.6717260242455101  0.49272287741084142 9.7050960809954834  0.46764806226975431 9.7371539477722067  0.44165122323720851 9.7678276876088681  0.41476345372816148 9.7970417784762471  0.38701265252421813 9.8247161300409829  0.3584238682734604 9.850765914818691  0.32901867880616997 9.8751019435123837  0.29881866831598991 9.8976280492149922  0.26783347416480119 9.9182498919698947  0.23607792723896459 9.9368588474212949  0.20365789655265054 9.9532975627730718  0.17065910412311247 9.9674404744562395  0.13717026614835426 9.9791763827506497  0.10327708182410156 9.9884124698070558  0.069064138703687661 9.9950733444489792  0.034614854238675719 9.9990990127309853  0.011546164939533199 10.000001400888687  0 10 
 0 4 0.015151515151515152 1 0.030303030303030304 1 0.045454545454545456 1 0.060606060606060608 1 0.07575757575757576 1 0.090909090909090912 1 0.10606060606060606 1 0.12121212121212122 1 0.13636363636363635 1 0.15151515151515152 1 0.16666666666666669 1 0.18181818181818182 1 0.19696969696969696 1 0.21212121212121213 1 0.22727272727272729 1 0.24242424242424243 1 0.25757575757575757 1 0.27272727272727271 1 0.2878787878787879 1 0.30303030303030304 1 0.31818181818181818 1 0.33333333333333337 1 0.34848484848484851 1 0.36363636363636365 1 0.37878787878787878 1 0.39393939393939392 1 0.40909090909090912 1 0.42424242424242425 1 0.43939393939393939 1 0.45454545454545459 1 0.46969696969696972 1 0.48484848484848486 1 0.5 1 0.51515151515151514 1 0.53030303030303028 1 0.54545454545454541 1 0.56060606060606066 1 0.5757575757575758 1 0.59090909090909094 1 0.60606060606060608 1 0.62121212121212122 1 0.63636363636363635 1 0.65151515151515149 1 0.66666666666666674 1 0.68181818181818188 1 0.69696969696969702 1 0.71212121212121215 1 0.72727272727272729 1 0.74242424242424243 1 0.75757575757575757 1 0.77272727272727271 1 0.78787878787878785 1 0.80303030303030309 1 0.81818181818181823 1 0.83333333333333337 1 0.84848484848484851 1 0.86363636363636365 1 0.87878787878787878 1 0.89393939393939392 1 0.90909090909090917 1 0.92424242424242431 1 0.93939393939393945 1 0.95454545454545459 1 0.96969696969696972 1 0.98484848484848486 1 1 4
1 0 1 1 0 
1 0 0 1 0 
7 0 0  3 135 133  0 4.5  0.017365577076948205 4.4999984077877917  0.052061088911359785 4.5006044251562214  0.1039493597288228 4.5032990204422774  0.1556353722834917 4.5077445961159244  0.20706903498201643 4.5138804977837115  0.25819716860949377 4.521629322858213  0.30896316250907324 4.5308951856782427  0.35930327947447521 4.5415641730971554  0.40915599797638452 4.5535079021669098  0.45842197956955916 4.5665732907060042  0.50714438516789972 4.5806353540886766  0.55537891022072405 4.5955745856333508  0.60316180980579792 4.6112657412807847  0.65053298242171675 4.6275841787478909  0.69753016486212804 4.6444039168052331  0.74419080793663761 4.6615979142026802  0.79055184208344509 4.6790377498785443  0.83664998438337068 4.6965934783867098  0.88252183055550326 4.7141333831681527  0.92820416464102529 4.7315239632269028  0.97381129547432888 4.7486586251836416  1.019364839569312 4.7653918949441492  1.0649044140064652 4.7815820331968073  1.1104668712494636 4.797083306099025  1.1560927372292389 4.8117488693059229  1.2018248652943673 4.8254307779311558  1.2477109721638198 4.8379816768819337  1.2937985431018435 4.8492534412100987  1.3400459849154593 4.8590820443394467  1.3864585956746525 4.8673294797440798  1.4330428738882872 4.8738703306554134  1.479748101734994 4.8785925545574047  1.5265306305805424 4.8814158323842074  1.5733776021355534 4.8822905448449623  1.6201903493896095 4.8812002562884986  1.6669131118091702 4.8781703959366283  1.7135491319037484 4.8732538767259959  1.7600778826667534 4.866531191715195  1.8064726386213756 4.8581098311466828  1.8527004650875685 4.8481208106594273  1.8986908489139309 4.8367251263977566  1.9444743456920976 4.8240735395996408  1.9901133858933167 4.810308884936739  2.0356505171773689 4.7955790817081354  2.0811289388691265 4.7800309762177653  2.1265879257419313 4.7638107733324988  2.1720642528032972 4.7470631398548875  2.2175946303678824 4.7299298143606352  2.2632081609620811 4.712552302266741  2.3090217878526249 4.6950350650833261  2.3550615967617454 4.6775147591401209  2.4013668212077293 4.6601211730004959  2.4479732596276134 4.6429837171675388  2.4949178890810004 4.6262299342989186  2.542237975444662 4.6099861038102672  2.5899711061370865 4.5943774484157522  2.6381571991925865 4.5795278385312868  2.6868319052744178 4.5655619032900523  2.7360527390375369 4.5525980172461269  2.7858534142568452 4.5407626985032268  2.8361360367038193 4.5302070077750667  2.8868392640510812 4.5210577262341305  2.937900009823192 4.5134271171500702  2.989261116868891 4.5074093433277325  3.0408726684660405 4.5030806638529999  3.0926733428631858 4.500498662405449  3.1446583976708986 4.4997023745936628  3.1966191584553898 4.5007105876149334  3.2484000512117048 4.5035004887556784  3.2999828196704355 4.5080312228761636  3.3513097609201741 4.5142428873995275  3.402329868625714 4.5220571457354346  3.4529860437417055 4.53137782602915  3.5032148077615455 4.5420907632658487  3.5529544821816157 4.5540674857200178  3.6021064243807435 4.5671550837608352  3.6507212571090477 4.5812312464940392  3.6988508771162976 4.5961762145054719  3.7465322126949632 4.6118656179769246  3.7938046655933331 4.6281753843956484  3.840705807426235 4.6449801818989345  3.8872728641690819 4.6621536035430147  3.933542523198656 4.6795678522394404  3.9795514482554304 4.6970936820971847  4.0253354843175195 4.7145998134743703  4.0709332968399057 4.7319541967856154  4.1164576410275995 4.7490503583632773  4.161929241436126 4.7657432265603763  4.2073877509627469 4.7818918448457621  4.2528698052031535 4.7973511946824354  4.2984157995322771 4.8119752036874059  4.3440683325080149 4.8256166891392622  4.3898752135685983 4.8381291637672534  4.435882662121152 4.8493650460205036  4.4820492415515947 4.8591613194217826  4.5283804997818144 4.8673809017421954  4.5748826404252751 4.8738991297210239  4.6215050204922559 4.8786047041777945  4.6682043171588612 4.881417879718926  4.7149677781700676 4.8822893824694207  4.7616971315197603 4.8812028924150788  4.8083368336803343 4.8781836760000443  4.8548901485825358 4.8732842880215683  4.9013366881751068 4.8665846705288338  4.9476499356124108 4.8581915753498457  4.9937972289992238 4.8482351289518819  5.0397085954698779 4.8368752210675146  5.0854127117378507 4.8242621698914538  5.1309723207430817 4.8105378973486044  5.1764296465592015 4.7958495591776877  5.2218277461049745 4.7803432192854638  5.2672057538943884 4.7641643162705654  5.3126001762076429 4.7474568290943067  5.3580479962246157 4.7303616285619396  5.4035765462258309 4.7130201609829401  5.4493025185963795 4.6955362731372068  5.4952530932819652 4.6780454732563319  5.5414669647110699 4.660677036814203  5.5879798219569059 4.6435597000608029  5.6348284143580916 4.6268203797072642  5.6820497799031013 4.6105847257391934  5.7296813392276311 4.5949773155655675  5.777762523671532 4.5801214496971605  5.8263296179694022 4.5661408999712183  5.87543648279377 4.5531542460615784  5.9251244868094757 4.5412853336165098  5.975296032876674 4.5306851564113968  6.0258898219576063 4.5214805831476887  6.0768426337296955 4.513784087280559  6.1280982035905325 4.5076903398916492  6.179603668723713 4.5032757362003322  6.2313092045917831 4.5006001205063209  6.2658815841208417 4.4999984267013025  6.2831853071795862 4.5 
 0 4 0.007575757575757576 1 0.015151515151515152 1 0.022727272727272728 1 0.030303030303030304 1 0.03787878787878788 1 0.045454545454545456 1 0.053030303030303032 1 0.060606060606060608 1 0.068181818181818177 1 0.07575757575757576 1 0.083333333333333343 1 0.090909090909090912 1 0.098484848484848481 1 0.10606060606060606 1 0.11363636363636365 1 0.12121212121212122 1 0.12878787878787878 1 0.13636363636363635 1 0.14393939393939395 1 0.15151515151515152 1 0.15909090909090909 1 0.16666666666666669 1 0.17424242424242425 1 0.18181818181818182 1 0.18939393939393939 1 0.19696969696969696 1 0.20454545454545456 1 0.21212121212121213 1 0.2196969696969697 1 0.22727272727272729 1 0.23484848484848486 1 0.24242424242424243 1 0.25 1 0.25757575757575757 1 0.26515151515151514 1 0.27272727272727271 1 0.28030303030303033 1 0.2878787878787879 1 0.29545454545454547 1 0.30303030303030304 1 0.31060606060606061 1 0.31818181818181818 1 0.32575757575757575 1 0.33333333333333337 1 0.34090909090909094 1 0.34848484848484851 1 0.35606060606060608 1 0.36363636363636365 1 0.37121212121212122 1 0.37878787878787878 1 0.38636363636363635 1 0.39393939393939392 1 0.40151515151515155 1 0.40909090909090912 1 0.41666666666666669 1 0.42424242424242425 1 0.43181818181818182 1 0.43939393939393939 1 0.44696969696969696 1 0.45454545454545459 1 0.46212121212121215 1 0.46969696969696972 1 0.47727272727272729 1 0.48484848484848486 1 0.49242424242424243 1 0.5 1 0.50757575757575757 1 0.51515151515151514 1 0.52272727272727271 1 0.53030303030303028 1 0.53787878787878785 1 0.54545454545454541 1 0.55303030303030309 1 0.56060606060606066 1 0.56818181818181823 1 0.5757575757575758 1 0.58333333333333337 1 0.59090909090909094 1 0.59848484848484851 1 0.60606060606060608 1 0.61363636363636365 1 0.62121212121212122 1 0.62878787878787878 1 0.63636363636363635 1 0.64393939393939392 1 0.65151515151515149 1 0.65909090909090906 1 0.66666666666666674 1 0.67424242424242431 1 0.68181818181818188 1 0.68939393939393945 1 0.69696969696969702 1 0.70454545454545459 1 0.71212121212121215 1 0.71969696969696972 1 0.72727272727272729 1 0.73484848484848486 1 0.74242424242424243 1 0.75 1 0.75757575757575757 1 0.76515151515151514 1 0.77272727272727271 1 0.78030303030303028 1 0.78787878787878785 1 0.79545454545454553 1 0.80303030303030309 1 0.81060606060606066 1 0.81818181818181823 1 0.8257575757575758 1 0.83333333333333337 1 0.84090909090909094 1 0.84848484848484851 1 0.85606060606060608 1 0.86363636363636365 1 0.87121212121212122 1 0.87878787878787878 1 0.88636363636363635 1 0.89393939393939392 1 0.90151515151515149 1 0.90909090909090917 1 0.91666666666666674 1 0.92424242424242431 1 0.93181818181818188 1 0.93939393939393945 1 0.94696969696969702 1 0.95454545454545459 1 0.96212121212121215 1 0.96969696969696972 1 0.97727272727272729 1 0.98484848484848486 1 0.99242424242424243 1 1 4
7 0 0  3 135 133  3.1415926535897931 10  3.1531697647711403 10.000001410856026  3.1763000004011976 9.9990941747099171  3.2108400943812727 9.9950471094551059  3.2451418677338331 9.9883511449046303  3.2791214259302581 9.979066870594357  3.3126936876254054 9.9672703857893268  3.3457724610324378 9.9530553312428633  3.378268453279015 9.9365339012981906  3.4100955892365081 9.9178326177786467  3.4411467178881767 9.8971105593649007  3.4714069808672292 9.8744773208250312  3.5008677979645633 9.8500270603339644  3.5295070237833719 9.8238568298437166  3.5573029156386502 9.7960563535808944  3.5842301044016787 9.7667110402336696  3.6102603909840694 9.7359014543536357  3.6353622336604832 9.7037037172087057  3.6595006624206516 9.6701897306168831  3.6826368253782444 9.6354271794053794  3.7047286215749464 9.5994805963878154  3.7257642009073484 9.5623462105879398  3.7456800179552845 9.5240881799409856  3.7644169216670744 9.4847553926089958  3.7819093675725521 9.4443971949516037  3.7980886188620953 9.403058774243652  3.8128819976569641 9.360782428951719  3.8262140622379035 9.3176057303903033  3.8380041655383854 9.2735663276623281  3.8481505360966293 9.2287898729108164  3.856572252598756 9.1833616201678065  3.8631935915426738 9.1373680364264196  3.8679430623541515 9.0909556146832262  3.8707704649037007 9.0442674182687668  3.8716446728596625 8.9974177813859981  3.870554903014229 8.950608045529183  3.8675194842141289 8.9039962710281415  3.8625716789776563 8.8576800613763478  3.8557606802278652 8.8117789374698567  3.8471522876186461 8.7664158026516485  3.8368269903299366 8.7217162369902592  3.8248890435083438 8.6778365495820839  3.811426740309086 8.6348307882305928  3.7965149661407027 8.5927222111366159  3.7802298160178269 8.5515528140934602  3.7626429352277344 8.5113641980773558  3.7438226284499372 8.4722023215207525  3.723833585262406 8.4341162949777395  3.7027355024981428 8.3971570230473809  3.6805876129241062 8.3613823163826204  3.6573990523849105 8.3267870302129872  3.6332165180302978 8.2934438471049621  3.6080769610149814 8.2614182127392013  3.5820152432006651 8.2307825594430835  3.5550623706882014 8.2016127821224281  3.5272461632552452 8.1739894000321769  3.4985916439188878 8.1479977227919669  3.469120141848649 8.1237273135830357  3.4388538363618961 8.1012752593751625  3.4077998180534435 8.0807349158518456  3.3759787159095835 8.0622191919187589  3.3434967511737397 8.0458848049631886  3.3104397638021603 8.0318567043110534  3.2768964757860579 8.0202454500898241  3.2429532737917746 8.011143051972935  3.2086928533416756 8.0046245283086108  3.1742064461267878 8.0007476449963857  3.1395483147916479 7.9995537361552245  3.1049094465653444 8.0010655322036701  3.0704453483113872 8.0052556937189827  3.0362192002124151 8.0120815110324681  3.0023197164170035 8.0214830435194067  2.9688301935557835 8.0333833637572951  2.9358368264532211 8.0476885354035606  2.9034283951707756 8.0642860734857127  2.8716907285092534 8.083049263480774  2.8407301339410149 8.1038190849837015  2.8105565531221015 8.1264899685244742  2.7811807942304085 8.1509671209055021  2.7526243997972419 8.17715458179946  2.7249092558452546 8.2049631992898053  2.6980606622779066 8.2343082185625729  2.6721067829861842 8.2651096644849087  2.6470791186357503 8.2972919354853527  2.6230124925518812 8.3307837583404964  2.5999459304226753 8.3655174880342713  2.5779204101481108 8.4014306664205023  2.5569484214618901 8.4385265442271837  2.5370936402651205 8.4767407114699242  2.5184148954890646 8.5160247800340727  2.5009774899204866 8.5563296770176418  2.4848498503884477 8.5976105499544762  2.4701043476457376 8.6398253084448449  2.4568159931893114 8.6829369129400131  2.4450653245795682 8.7269069431676485  2.4349534854317882 8.7716102952132449  2.4265608419800073 8.8169624105459565  2.4199626944117001 8.8628770046076966  2.4152300677298655 8.9092081484374344  2.4124127974524514 8.9558136225763008  2.4115417954415066 9.002579736789631  2.4126277705430912 9.0493060922798563  2.4156525065345096 9.0958353909612626  2.4205829611525642 9.1420705847582617  2.4273702752961985 9.1878928104362494  2.4359491048512769 9.2331798657898183  2.446239516204018 9.2778069044992293  2.4581380097025529 9.3216185403089451  2.4715563252103436 9.3645593448380549  2.4864200715683547 9.4066068015239228  2.5026534770499889 9.4477190448144999  2.5201852260872024 9.4878547886271463  2.5389473222770698 9.5269683947231076  2.5588752859572059 9.5650109859432373  2.57990985754373 9.6019323375252785  2.6019912337313911 9.6376737086763082  2.6251102625803657 9.6722407580409531  2.6492210002504786 9.7055622394137018  2.6742864182996233 9.7375729178002661  2.7002717735283941 9.7682009434298624  2.727146106441479 9.797370952894477  2.7548816298633967 9.8250030129976889  2.7834533878934771 9.851012466638112  2.8128399134756985 9.8753103278448293  2.8430196060997233 9.8978005781701039  2.8739832346691658 9.9183893085009824  2.9057152232598158 9.9369676305673948  2.9381099379788127 9.953378726001775  2.971081913227982 9.9674974742038938  3.0045426743100174 9.9792130583614185  3.0384067585100447 9.9884329783395582  3.0725898079187886 9.9950820972074492  3.107008630098985 9.9991006200832384  3.1300567795003191 10.000001395895788  3.1415926535897931 10 
 0 4 0.007575757575757576 1 0.015151515151515152 1 0.022727272727272728 1 0.030303030303030304 1 0.03787878787878788 1 0.045454545454545456 1 0.053030303030303032 1 0.060606060606060608 1 0.068181818181818177 1 0.07575757575757576 1 0.083333333333333343 1 0.090909090909090912 1 0.098484848484848481 1 0.10606060606060606 1 0.11363636363636365 1 0.12121212121212122 1 0.12878787878787878 1 0.13636363636363635 1 0.14393939393939395 1 0.15151515151515152 1 0.15909090909090909 1 0.16666666666666669 1 0.17424242424242425 1 0.18181818181818182 1 0.18939393939393939 1 0.19696969696969696 1 0.20454545454545456 1 0.21212121212121213 1 0.2196969696969697 1 0.22727272727272729 1 0.23484848484848486 1 0.24242424242424243 1 0.25 1 0.25757575757575757 1 0.26515151515151514 1 0.27272727272727271 1 0.28030303030303033 1 0.2878787878787879 1 0.29545454545454547 1 0.30303030303030304 1 0.31060606060606061 1 0.31818181818181818 1 0.32575757575757575 1 0.33333333333333337 1 0.34090909090909094 1 0.34848484848484851 1 0.35606060606060608 1 0.36363636363636365 1 0.37121212121212122 1 0.37878787878787878 1 0.38636363636363635 1 0.39393939393939392 1 0.40151515151515155 1 0.40909090909090912 1 0.41666666666666669 1 0.42424242424242425 1 0.43181818181818182 1 0.43939393939393939 1 0.44696969696969696 1 0.45454545454545459 1 0.46212121212121215 1 0.46969696969696972 1 0.47727272727272729 1 0.48484848484848486 1 0.49242424242424243 1 0.5 1 0.50757575757575757 1 0.51515151515151514 1 0.52272727272727271 1 0.53030303030303028 1 0.53787878787878785 1 0.54545454545454541 1 0.55303030303030309 1 0.56060606060606066 1 0.56818181818181823 1 0.5757575757575758 1 0.58333333333333337 1 0.59090909090909094 1 0.59848484848484851 1 0.60606060606060608 1 0.61363636363636365 1 0.62121212121212122 1 0.62878787878787878 1 0.63636363636363635 1 0.64393939393939392 1 0.65151515151515149 1 0.65909090909090906 1 0.66666666666666674 1 0.67424242424242431 1 0.68181818181818188 1 0.68939393939393945 1 0.69696969696969702 1 0.70454545454545459 1 0.71212121212121215 1 0.71969696969696972 1 0.72727272727272729 1 0.73484848484848486 1 0.74242424242424243 1 0.75 1 0.75757575757575757 1 0.76515151515151514 1 0.77272727272727271 1 0.78030303030303028 1 0.78787878787878785 1 0.79545454545454553 1 0.80303030303030309 1 0.81060606060606066 1 0.81818181818181823 1 0.8257575757575758 1 0.83333333333333337 1 0.84090909090909094 1 0.84848484848484851 1 0.85606060606060608 1 0.86363636363636365 1 0.87121212121212122 1 0.87878787878787878 1 0.88636363636363635 1 0.89393939393939392 1 0.90151515151515149 1 0.90909090909090917 1 0.91666666666666674 1 0.92424242424242431 1 0.93181818181818188 1 0.93939393939393945 1 0.94696969696969702 1 0.95454545454545459 1 0.96212121212121215 1 0.96969696969696972 1 0.97727272727272729 1 0.98484848484848486 1 0.99242424242424243 1 1 4
1 6.2831853071795862 0 0 1 
1 0 0 0 1 
1 6.2831853071795862 0 0 1 
1 0 0 0 1 
1 0 10 1 0 
1 0 10 1 0 
1 0 2 1 0 
1 6.2831853071795862 0 0 1 
1 0 0 0 1 
Curves 19
1 4 -9.7999999999999995e-16 -6 0 0 1 
2 0 0 4 0 0 1 1 0 -0 -0 1 0 4
7 0 0  7 26 5  4 3.8000000000000001e-16 1  4 0.128311151746 1  3.9951978373500001 0.25457271407799997 1.019207603536  3.985871337481 0.37533530707399998 1.0565190182190001  3.9730224047939999 0.48748615172300003 1.1100798547140001  3.958227410758 0.58840845160499999 1.177304914671  3.9431466245009998 0.67620678534900003 1.2548601790030001  3.915407129668 0.82150461089500004 1.419668211416  3.9024664321409999 0.88106992245000004 1.507792422136  3.8911509163760001 0.92869060101599998 1.601242685079  3.882184780962 0.96436140703200002 1.6984876792850001  3.8760508434849998 0.98812025596999997 1.798183920864  3.872983346207 1 1.899090860192  3.872983346207 1 2.100909139808  3.8760508434849998 0.98812025596999997 2.201816079136  3.882184780962 0.96436140703200002 2.3015123207150001  3.8911509163760001 0.92869060101599998 2.3987573149210002  3.9024664321409999 0.88106992244899995 2.4922075778639998  3.915407129668 0.82150461089500004 2.580331788584  3.9431433380669998 0.67622399949400003 2.7451202953820002  3.958225098002 0.58842465057600002 2.8226869857499999  3.9730238980279999 0.48748418377699998 2.889928820328  3.985875469961 0.37530845429600002 2.943497477797  3.99520072321 0.254528620032 2.9808039429250002  4 0.128272584611 3  4 1.2e-16 3 
 0 8 0.254335060296 6 0.50002962047900001 6 0.74572418066199997 6 1 8
1 4 -9.7999999999999995e-16 -6 0 0 1 
2 0 0 -6 0 0 1 1 0 -0 -0 1 0 4
7 0 0  7 26 5  4 -4.4e-16 3  4 -0.128311151746 3  3.9951978373500001 -0.25457271407799997 2.980792396464  3.985871337481 -0.37533530707399998 2.9434809817810001  3.9730224047939999 -0.48748615172300003 2.8899201452860002  3.958227410758 -0.58840845160499999 2.8226950853289998  3.9431466245009998 -0.67620678534900003 2.7451398209970002  3.9154069753749998 -0.82150541907200003 2.580330871888  3.9024663238769999 -0.88107026272800004 2.4922067528029999  3.8911509548710002 -0.92869045473 2.3987571464889998  3.8821848748750001 -0.96436109131400005 2.3015129329540001  3.8760508790169999 -0.98812004446900004 2.201817160019  3.872983346207 -1 2.100910037592  3.872983346207 -1 1.899090860192  3.8760508434849998 -0.98812025596999997 1.798183920864  3.882184780962 -0.96436140703200002 1.6984876792850001  3.8911509163760001 -0.92869060101599998 1.601242685079  3.9024664321409999 -0.88106992245000004 1.507792422136  3.915407129668 -0.82150461089500004 1.419668211416  3.9431431611629999 -0.67622492610499996 1.2548807556520001  3.9582246105690002 -0.58842739052000004 1.177315568687  3.9730234187960001 -0.48748789973899997 1.1100730379899999  3.9858754235829998 -0.37531070590900001 1.056502572599  3.9952009430589999 -0.25452780268699998 1.019195243922  4 -0.12826983605100001 1  4 0 1 
 0 8 0.25433485584499999 6 0.50003199979000001 6 0.745726957799 6 1 8
7 0 1  7 49 9  -4 4.4e-16 3  -4 -0.128311151746 3  -3.9951978373500001 -0.25457271407799997 2.980792396464  -3.985871337481 -0.37533530707399998 2.9434809817810001  -3.9730224047939999 -0.48748615172199999 2.8899201452860002  -3.958227410758 -0.58840845160599997 2.8226950853289998  -3.9431466245009998 -0.67620678534900003 2.7451398209970002  -3.9154069753749998 -0.82150541907200003 2.580330871888  -3.9024663238769999 -0.88107026272800004 2.4922067528029999  -3.8911509548710002 -0.92869045473 2.3987571464889998  -3.8821848748750001 -0.96436109131400005 2.3015129329540001  -3.8760508790169999 -0.98812004446900004 2.201817160019  -3.872983346207 -1 2.100910037592  -3.872983346207 -1 1.899090860192  -3.8760508434849998 -0.98812025596999997 1.798183920864  -3.882184780962 -0.96436140703200002 1.6984876792850001  -3.8911509163760001 -0.92869060101599998 1.601242685079  -3.9024664321409999 -0.88106992245000004 1.507792422136  -3.915407129668 -0.82150461089500004 1.419668211416  -3.9431431611629999 -0.67622492610499996 1.2548807556520001  -3.9582246105690002 -0.58842739052000004 1.177315568687  -3.9730234187960001 -0.48748789973899997 1.1100730379899999  -3.9858754235829998 -0.37531070590799998 1.056502572599  -3.9952009430589999 -0.25452780268800002 1.019195243922  -4 -0.12826983605 1  -4 0.128311151746 1  -3.9951978373500001 0.254572714077 1.019207603536  -3.985871337481 0.37533530707500001 1.0565190182190001  -3.9730224047939999 0.48748615172199999 1.1100798547140001  -3.958227410758 0.58840845160599997 1.177304914671  -3.9431466245009998 0.67620678534900003 1.2548601790030001  -3.915407129668 0.82150461089500004 1.419668211416  -3.9024664321409999 0.88106992244899995 1.507792422136  -3.8911509163760001 0.92869060101599998 1.601242685079  -3.882184780962 0.96436140703200002 1.6984876792850001  -3.8760508434849998 0.98812025596999997 1.798183920864  -3.872983346207 1 1.899090860192  -3.872983346207 1 2.100909139808  -3.8760508434849998 0.98812025596999997 2.201816079136  -3.882184780962 0.96436140703200002 2.3015123207150001  -3.8911509163760001 0.92869060101599998 2.3987573149210002  -3.9024664321409999 0.88106992245000004 2.4922075778639998  -3.915407129668 0.82150461089500004 2.580331788584  -3.9431433380669998 0.67622399949400003 2.7451202953820002  -3.958225098002 0.58842465057600002 2.8226869857499999  -3.9730238980279999 0.48748418377699998 2.8899288203269999  -3.985875469961 0.37530845429499998 2.9434974777980001  -3.99520072321 0.25452862003299997 2.9808039429250002  -4 0.128272584611 3 
 0 7 0.12716245731699999 6 0.25000622749599999 6 0.37284890474900001 6 0.49998045645200001 6 0.62715295720899999 6 0.75000503904399995 6 0.87285712088 6 1 7
1 -6 2.4e-16 3 1 0 0 
7 0 0  6 47 10  1.5 0 3  1.5 -0.074899081900080003 3  1.495511979717 -0.14952930123399999 2.9932681751930001  1.4865971704159999 -0.22288895042500001 2.9798950035340002  1.473612370268 -0.29399327747699999 2.9602312993109998  1.457210028904 -0.36192888177499999 2.9348846822370001  1.416828338692 -0.49829199658599999 2.870691667969  1.3920769232279999 -0.56582130427400001 2.8304153002039998  1.3649603372270001 -0.628240951672 2.7847495492709999  1.3364404322650001 -0.68538330084099996 2.7343691000349999  1.3075106755279999 -0.73712330695399997 2.679833354071  1.2563463898830001 -0.82067789517300005 2.5745421918510001  1.233836423504 -0.85449914792500004 2.5249516561790002  1.2122494099050001 -0.88468005643299996 2.4730740274270002  1.1921803938560001 -0.91110518235600002 2.4191180823530001  1.174250325362 -0.93365380619600002 2.3632562243719999  1.1545210719850001 -0.95767011446399997 2.2884331318669999  1.1502353737169999 -0.96282277578700004 2.2711012074469998  1.1462117255569999 -0.96760710216900003 2.2536296436669998  1.142465844562 -0.97201789106500003 2.236027745631  1.1390125242789999 -0.97605004180199995 2.2183060416739999  1.1300818130720001 -0.986404336903 2.1677061014539998  1.1253290581219999 -0.99181847122900002 2.1345507431940001  1.1216992083299999 -0.99590247019300004 2.1011098966159998  1.119256232146 -0.99863332008500005 2.0674787567620001  1.1180339887499999 -1 2.0337473736080001  1.1180339887499999 -1 1.9480067532109999  1.1209354339469999 -0.99675606210099998 1.8961232539699999  1.126715608309 -0.990293738516 1.844610421794  1.135197315423 -0.980668594369 1.793740688535  1.1460483043980001 -0.96797641287900005 1.743827283898  1.1738780649480001 -0.93411570954300005 1.638007837387  1.1916262281379999 -0.91181346866799995 1.582526429446  1.211492393069 -0.88568917966299998 1.528919033352  1.2328691989260001 -0.85586164856500002 1.477354824763  1.2551734888370001 -0.82244483829100001 1.4280384080590001  1.30648787507 -0.73897121351200001 1.3220718113600001  1.335808896406 -0.68670870486400004 1.26671260084  1.3647281802539999 -0.62890135899900002 1.215606445171  1.392213002861 -0.56567856871599997 1.169332953311  1.4172641127400001 -0.49721429693399999 1.1285929848739999  1.4576628813070001 -0.36004695877600001 1.064415693673  1.4738989485109999 -0.29241920984300002 1.0393347293440001  1.4867449589670001 -0.22167052440500001 1.0198832861630001  1.4955617662780001 -0.14870156165000001 1.0066571519450001  1.5 -0.074482508640670006 1  1.5 -2.2e-16 1 
 0 7 0.13081500431400001 5 0.27877462334899999 5 0.39839912103300001 5 0.43406343898600003 5 0.49961262741500001 5 0.60060167534599995 5 0.71954413936100003 5 0.86968025668799998 5 1 7
7 0 0  6 47 10  1.5 -6.0000000000000001e-17 1  1.5 0.074899081900080003 1  1.495511979717 0.14952930123399999 1.0067318248070001  1.4865971704159999 0.22288895042500001 1.0201049964660001  1.473612370268 0.29399327747699999 1.039768700689  1.457210028904 0.36192888177499999 1.0651153177629999  1.416828338692 0.49829199658599999 1.129308332031  1.3920769232279999 0.56582130427400001 1.169584699796  1.3649603372270001 0.628240951672 1.2152504507290001  1.3364404322650001 0.68538330084099996 1.2656308999649999  1.3075106755279999 0.73712330695399997 1.3201666459300001  1.2563463898830001 0.82067789517300005 1.4254578081489999  1.233836423504 0.85449914792500004 1.475048343821  1.2122494099050001 0.88468005643299996 1.5269259725740001  1.1921803938560001 0.91110518235600002 1.5808819176469999  1.174250325362 0.93365380619600002 1.6367437756280001  1.1545210719850001 0.95767011446399997 1.7115668681330001  1.1502353737169999 0.96282277578700004 1.7288987925529999  1.1462117255569999 0.96760710216900003 1.746370356333  1.142465844562 0.97201789106500003 1.763972254369  1.1390125242789999 0.97605004180199995 1.7816939583260001  1.1300818130720001 0.986404336903 1.832293898546  1.1253290581219999 0.99181847122900002 1.8654492568059999  1.1216992083299999 0.99590247019300004 1.898890103384  1.119256232146 0.99863332008500005 1.9325212432379999  1.1180339887499999 1 1.9662526263919999  1.1180339887499999 1 2.0519932467889999  1.1209354339469999 0.99675606210099998 2.1038767460310002  1.126715608309 0.990293738516 2.155389578206  1.135197315424 0.980668594369 2.2062593114659999  1.1460483043980001 0.96797641287900005 2.2561727161020002  1.1738780649480001 0.93411570954300005 2.3619921626129998  1.1916262281379999 0.91181346866799995 2.4174735705539998  1.211492393069 0.88568917966299998 2.4710809666469999  1.2328691989260001 0.85586164856500002 2.5226451752369998  1.2551734888370001 0.82244483829100001 2.5719615919410002  1.30648787507 0.73897121351200001 2.6779281886400002  1.335808896406 0.68670870486400004 2.73328739916  1.3647281802539999 0.62890135899900002 2.7843935548290002  1.392213002861 0.56567856871599997 2.8306670466889998  1.4172641127400001 0.49721429693399999 2.8714070151260001  1.4576628813070001 0.36004695877600001 2.9355843063270002  1.4738989485109999 0.29241920984300002 2.9606652706559999  1.4867449589670001 0.22167052440500001 2.9801167138369999  1.4955617662780001 0.14870156165000001 2.9933428480550002  1.5 0.074482508640719994 3  1.5 1.2e-16 3 
 0 7 0.13081500431400001 5 0.27877462334899999 5 0.39839912103300001 5 0.43406343898600003 5 0.49961262741500001 5 0.60060167534599995 5 0.71954413936100003 5 0.86968025668799998 5 1 7
2 0 0 -6 0 0 1 1 0 -0 -0 1 0 1.5
2 0 0 4 0 0 1 1 0 -0 -0 1 0 7
7 0 1  6 91 19  -1.5 2.2e-16 3  -1.5 -0.074899081908539999 3  -1.4955119797159999 -0.14952930123200001 2.9932681751920001  -1.486597170417 -0.22288895041599999 2.9798950035359999  -1.473612370269 -0.29399327747499998 2.9602312993140001  -1.4572100289009999 -0.361928881782 2.9348846822339998  -1.416828338692 -0.49829199658599999 2.870691667969  -1.3920769232279999 -0.56582130427400001 2.8304153002039998  -1.3649603372270001 -0.628240951672 2.7847495492709999  -1.3364404322650001 -0.68538330084099996 2.7343691000349999  -1.3075106755279999 -0.73712330695399997 2.679833354071  -1.2563463898830001 -0.82067789517300005 2.5745421918510001  -1.233836423504 -0.85449914792500004 2.5249516561790002  -1.2122494099050001 -0.88468005643299996 2.4730740274260001  -1.1921803938560001 -0.91110518235600002 2.4191180823530001  -1.174250325362 -0.93365380619600002 2.3632562243719999  -1.1545210719850001 -0.95767011446399997 2.2884331318669999  -1.1502353737169999 -0.96282277578700004 2.2711012074469998  -1.1462117255569999 -0.96760710216900003 2.2536296436669998  -1.142465844562 -0.97201789106500003 2.236027745631  -1.1390125242789999 -0.97605004180199995 2.2183060416739999  -1.1300818130720001 -0.986404336903 2.1677061014539998  -1.1253290581219999 -0.99181847122900002 2.1345507431940001  -1.1216992083299999 -0.99590247019300004 2.1011098966159998  -1.119256232146 -0.99863332008500005 2.0674787567620001  -1.1180339887499999 -1 2.0337473736080001  -1.1180339887499999 -1 1.9480067532109999  -1.1209354339469999 -0.99675606210099998 1.8961232539690001  -1.126715608309 -0.990293738516 1.844610421794  -1.135197315424 -0.980668594369 1.793740688535  -1.1460483043980001 -0.96797641287900005 1.743827283898  -1.1738780649480001 -0.93411570954300005 1.638007837387  -1.1916262281379999 -0.91181346866799995 1.582526429446  -1.211492393069 -0.88568917966299998 1.528919033352  -1.2328691989260001 -0.85586164856500002 1.477354824763  -1.2551734888370001 -0.82244483829100001 1.4280384080590001  -1.30648787507 -0.73897121351200001 1.3220718113600001  -1.335808896406 -0.68670870486400004 1.26671260084  -1.3647281802539999 -0.62890135899900002 1.215606445171  -1.392213002861 -0.56567856871599997 1.1693329533100001  -1.4172641127400001 -0.49721429693399999 1.1285929848739999  -1.4576628813070001 -0.36004695877600001 1.064415693673  -1.4738989485109999 -0.29241920984300002 1.0393347293440001  -1.4867449589670001 -0.22167052440500001 1.0198832861630001  -1.4955617662780001 -0.14870156165000001 1.0066571519450001  -1.5 -0.07448250864066 1  -1.5 0.074899081899999997 1  -1.495511979717 0.14952930123399999 1.0067318248070001  -1.4865971704159999 0.222888950424 1.0201049964660001  -1.473612370268 0.29399327747699999 1.039768700689  -1.457210028904 0.36192888177499999 1.0651153177629999  -1.416828338692 0.49829199658599999 1.129308332031  -1.3920769232279999 0.56582130427400001 1.169584699796  -1.3649603372270001 0.628240951672 1.2152504507290001  -1.3364404322650001 0.68538330084099996 1.2656308999649999  -1.3075106755279999 0.73712330695399997 1.320166645929  -1.2563463898830001 0.82067789517300005 1.4254578081489999  -1.233836423504 0.85449914792500004 1.475048343821  -1.2122494099050001 0.88468005643299996 1.5269259725740001  -1.1921803938560001 0.91110518235600002 1.5808819176469999  -1.174250325362 0.93365380619600002 1.6367437756280001  -1.1545210719850001 0.95767011446399997 1.7115668681330001  -1.1502353737169999 0.96282277578700004 1.7288987925529999  -1.1462117255569999 0.96760710216900003 1.746370356333  -1.142465844562 0.97201789106500003 1.763972254369  -1.1390125242789999 0.97605004180199995 1.7816939583260001  -1.1300818130720001 0.986404336903 1.832293898546  -1.1253290581219999 0.99181847122900002 1.8654492568059999  -1.1216992083299999 0.99590247019300004 1.898890103384  -1.119256232146 0.99863332008500005 1.9325212432379999  -1.1180339887499999 1 1.9662526263919999  -1.1180339887499999 1 2.0519932467889999  -1.1209354339469999 0.99675606210099998 2.1038767460310002  -1.126715608309 0.990293738516 2.1553895782049999  -1.135197315424 0.980668594369 2.2062593114659999  -1.1460483043980001 0.96797641287900005 2.2561727161020002  -1.1738780649480001 0.93411570954300005 2.3619921626129998  -1.1916262281379999 0.91181346866799995 2.4174735705539998  -1.211492393069 0.88568917966299998 2.4710809666469999  -1.2328691989260001 0.85586164856500002 2.5226451752369998  -1.2551734888370001 0.82244483829100001 2.5719615919410002  -1.30648787507 0.73897121351200001 2.6779281886400002  -1.335808896406 0.68670870486400004 2.73328739916  -1.3647281802539999 0.62890135899900002 2.7843935548290002  -1.392213002861 0.56567856871599997 2.8306670466889998  -1.4172641127400001 0.49721429693399999 2.8714070151260001  -1.4576628813070001 0.36004695877600001 2.9355843063270002  -1.4738989485109999 0.29241920984300002 2.9606652706559999  -1.4867449589670001 0.22167052440500001 2.9801167138369999  -1.4955617662780001 0.14870156165000001 2.9933428480550002  -1.5 0.074482508640810005 3 
 0 6 0.065349153160029996 5 0.13926296647 5 0.199021857759 5 0.21683810895 5 0.249583465473 5 0.300032944079 5 0.35945112274899998 5 0.434452214394 5 0.49955395796800001 5 0.56501980911600003 5 0.63906561484299995 5 0.69893122123899998 5 0.71677928800000001 5 0.74958311990799997 5 0.80012268923300001 5 0.85964697457899997 5 0.934782000261 5 1 6
1 -6 2.4e-16 3 1 0 0 
1 1.5 -3.7e-16 -7 0 0 1 
2 0 0 3 0 0 1 1 0 -0 -0 1 0 1.5
2 0 0 3 0 0 1 1 0 -0 -0 1 0 1.5
2 0 0 6 0 0 1 1 0 -0 -0 1 0 7
1 7 -1.71e-15 4 0 0 1 
Polygon3D 0
PolygonOnTriangulations 0
Surfaces 9
2 0 0 -6 0 0 1 1 0 -0 -0 1 0 4
1 0 0 4 0 0 1 1 0 -0 -0 1 0 
2 -6 0 2 1 0 0 0 0 1 0 -1 0 1
1 0 0 -6 0 0 1 1 0 -0 -0 1 0 
2 -6 0 2 1 0 0 0 0 1 0 -1 0 1
2 0 0 -7 0 0 1 1 0 -0 -0 1 0 1.5
2 0 0 4 0 0 1 1 0 -0 -0 1 0 7
1 0 0 3 0 0 1 1 0 -0 -0 1 0 
1 0 0 6 0 0 1 1 0 -0 -0 1 0 
Triangulations 0

TShapes 54
Ve
1e-07
4 0 3
0 0

0101101
*
Ve
1e-07
4 -1e-15 4
0 0

0101101
*
Ed
 1e-07 1 1 0
1  1 0 9 10
3  1 2CN 1 0 9 10
0

0101000
+54 0 -53 0 *
Ed
 1e-07 1 1 0
1  2 0 0 6.28318530717959
2  3 1 0 0 6.28318530717959
4 C0 1 0 2 0
0

0101100
+53 0 -53 0 *
Ve
1e-07
4 -1e-15 1
0 0

0101101
*
Ed
 1e-07 1 1 0
1  3 0 0 1
2  4 1 0 0 1
2  5 3 0 0 1
4 C0 1 0 3 0
0

0101000
+50 0 -54 0 *
Ve
1e-07
4 -1e-15 -6
0 0

0101101
*
Ed
 1e-07 1 1 0
1  4 0 0 7
3  6 7CN 1 0 0 7
0

0101000
+48 0 -50 0 *
Ed
 1e-07 1 1 0
1  5 0 0 6.28318530717959
2  8 1 0 0 6.28318530717959
4 C0 1 0 4 0
0

0101100
+48 0 -48 0 *
Ed
 1e-07 1 1 0
1  6 0 0 1
2  9 1 0 0 1
2  10 3 0 0 1
4 C0 1 0 3 0
0

0101000
+54 0 -50 0 *
Wi

0101100
+52 0 -51 0 -52 0 -49 0 -47 0 +46 0 +47 0 -45 0 *
Ve
1e-07
-4 0 3
0 0

0101101
*
Ed
 1e-07 1 1 0
1  7 0 0 1
2  11 1 0 0 1
2  12 5 0 0 1
4 C0 1 0 5 0
0

0101100
+43 0 -43 0 *
Wi

0101100
+42 0 *
Fa
0  1e-07 1 0

0111000
+44 0 +41 0 *
Ve
1e-07
1.5 0 3
0 0

0101101
*
Ed
 1e-07 1 1 0
1  8 0 7.5 10
3  13 14CN 3 0 7.5 10
0

0101000
+39 0 -54 0 *
Ve
1e-07
1.5 0 1
0 0

0101101
*
Ed
 1e-07 1 1 0
1  9 0 0 1
2  15 3 0 0 1
2  16 6 0 0 1
4 C0 3 0 6 0
0

0101000
+39 0 -37 0 *
Ed
 1e-07 1 1 0
1  10 0 0 1
2  17 3 0 0 1
2  18 6 0 0 1
4 C0 3 0 6 0
0

0101000
+37 0 -39 0 *
Wi

0101100
-45 0 -38 0 +36 0 +35 0 +38 0 -49 0 *
Fa
0  1e-07 3 0

0111000
+34 0 *
Wi

0101100
+46 0 *
Ve
1e-07
1.5 0 -6
0 0

0101101
*
Ed
 1e-07 1 1 0
1  11 0 0 6.28318530717959
2  19 6 0 0 6.28318530717959
4 C0 4 0 6 0
0

0101100
+31 0 -31 0 *
Wi

0101100
-30 0 *
Fa
0  1e-07 4 0

0111000
+32 0 +29 0 *
Ve
1e-07
7 -2e-15 4
0 0

0101101
*
Ed
 1e-07 1 1 0
1  12 0 0 6.28318530717959
2  20 7 0 0 6.28318530717959
4 C0 2 0 7 0
0

0101100
+27 0 -27 0 *
Wi

0101100
+26 0 *
Wi

0101100
-51 0 *
Fa
0  1e-07 2 0

0111000
+25 0 +24 0 *
Ve
1e-07
-1.5 1.9e-14 3
0 0

0101101
*
Ed
 1e-07 1 1 0
1  13 0 0 1
2  21 5 0 0 1
2  22 6 0 0 1
4 C0 5 0 6 0
0

0101100
+22 0 -22 0 *
Ed
 1e-07 1 1 0
1  14 0 2 4.5
3  23 24CN 5 0 2 4.5
0

0101000
+43 0 -22 0 *
Wi

0101100
-21 0 -20 0 +42 0 +20 0 *
Fa
0  1e-07 5 0

0111000
+19 0 *
Ed
 1e-07 1 1 0
1  15 0 1 8
3  25 26CN 6 0 1 8
0

0101000
+31 0 -37 0 *
Ed
 1e-07 1 1 0
1  16 0 3.14159265358979 6.28318530717959
2  27 6 0 3.14159265358979 6.28318530717959
4 C0 6 0 8 0
0

0101000
+22 0 -39 0 *
Ed
 1e-07 1 1 0
1  17 0 0 3.14159265358979
2  28 6 0 0 3.14159265358979
4 C0 6 0 8 0
0

0101000
+39 0 -22 0 *
Wi

0101100
+30 0 +17 0 -36 0 -16 0 -15 0 -35 0 -17 0 *
Wi

0101100
+21 0 *
Fa
0  1e-07 6 0

0111000
+14 0 +13 0 *
Ve
1e-07
7 -2e-15 6
0 0

0101101
*
Ed
 1e-07 1 1 0
1  18 0 0 6.28318530717959
2  29 7 0 0 6.28318530717959
4 C0 7 0 9 0
0

0101100
+11 0 -11 0 *
Ed
 1e-07 1 1 0
1  19 0 0 2
3  30 31CN 7 0 0 2
0

0101000
+27 0 -11 0 *
Wi

0101100
-10 0 -9 0 +26 0 +9 0 *
Fa
0  1e-07 7 0

0111000
+8 0 *
Wi

0101100
+10 0 *
Fa
0  1e-07 9 0

0111000
+6 0 *
Wi

0101100
-15 0 -16 0 *
Fa
0  1e-07 8 0

0111000
-4 0 *
Sh

0101100
+40 0 -33 0 -28 0 -23 0 -18 0 -12 0 +7 0 +5 0 -3 0 *
So

0100000
+2 0 *

+1 0 