DBRep_DrawableShape

CASCADE Topology V1, (c) Matra-Datavision
Locations 0
Curve2ds 31
1 6.2831853071795862 0 0 1 
1 0 0 0 1 
1 0 10 1 0 
7 0 0  3 47 45  0 7  0.0066887581331123254 6.9999966721526334  0.020007640547976078 7.0021499131701912  0.039695687095612338 7.0116301457885788  0.058977340254871558 7.0271470578156903  0.077742576488029694 7.0484322618030193  0.095885828378234741 7.0751816470052544  0.11330710087113358 7.1070504345072294  0.12991249974558366 7.1436543590290515  0.1456154046726893 7.1845701259050925  0.16033675805472489 7.2293326168650003  0.17400938205960265 7.2774459132425884  0.18656820553485104 7.3283425001170608  0.19799394100200385 7.3815362403718918  0.20837443501067046 7.4371317069054959  0.21767784218369515 7.4947538964451397  0.22590302917665395 7.5541623260663675  0.23304217463337076 7.6150974628206711  0.23909069280119105 7.6773199055232073  0.24404447219228692 7.7405979769538868  0.24790050652587042 7.804709187872156  0.25065660846206284 7.8694380689877397  0.25231135883742106 7.9345749249172393  0.25286398355413797 7.9999147978695166  0.25231423218136922 8.0652549360507706  0.25066235385386365 8.130392585369048  0.24790912117120245 8.1951228003902727  0.24405595140861056 8.2592358986689423  0.23910502997669014 8.322516427186244  0.23305936011819184 8.3847419200558271  0.22592305322691536 8.445680713435646  0.21770068287835206 8.5050934747225639  0.20840010232134551 8.5627205517863576  0.19802231135269147 8.6183220621369934  0.18659963829865456 8.671520936694332  0.17404249545357212 8.7224293343757431  0.16036926102833296 8.7705615661200831  0.14564553881072029 8.81534564717834  0.12993878235693843 8.8562832945188479  0.11332849729464084 8.892907239287192  0.095901785387377037 8.924792749375321  0.07775307072177165 8.9515546991830757  0.058982902225133693 8.97284805797125  0.039697411022701606 8.9883690889018535  0.020007182634443604 8.9978503337777873  0.0066883027791992365 9.0000033819995764  0 9 
 0 4 0.022727272727272728 1 0.045454545454545456 1 0.068181818181818177 1 0.090909090909090912 1 0.11363636363636365 1 0.13636363636363635 1 0.15909090909090909 1 0.18181818181818182 1 0.20454545454545456 1 0.22727272727272729 1 0.25 1 0.27272727272727271 1 0.29545454545454547 1 0.31818181818181818 1 0.34090909090909094 1 0.36363636363636365 1 0.38636363636363635 1 0.40909090909090912 1 0.43181818181818182 1 0.45454545454545459 1 0.47727272727272729 1 0.5 1 0.52272727272727271 1 0.54545454545454541 1 0.56818181818181823 1 0.59090909090909094 1 0.61363636363636365 1 0.63636363636363635 1 0.65909090909090906 1 0.68181818181818188 1 0.70454545454545459 1 0.72727272727272729 1 0.75 1 0.77272727272727271 1 0.79545454545454553 1 0.81818181818181823 1 0.84090909090909094 1 0.86363636363636365 1 0.88636363636363635 1 0.90909090909090917 1 0.93181818181818188 1 0.95454545454545459 1 0.97727272727272729 1 1 4
7 0 0  3 47 45  3.1415926535897936 10  3.1683454824345336 10.00000295907191  3.2216249342237391 9.9994607197098428  3.3008511258433018 9.9971026694125289  3.3793737926095306 9.9932865463518912  3.4571689922231812 9.9881450387227542  3.5342027026773875 9.9818360479186854  3.6104283929692458 9.9745424489112278  3.6857853827750939 9.9664656444719419  3.7601979041820819 9.9578199735464956  3.8335684505595506 9.9488270295950318  3.9057909467630507 9.9397070793414724  3.9766878139737001 9.9306802383562545  4.0462289034701868 9.9219300613410581  4.115068903765815 9.9135370697542786  4.18316954553271 9.9056561823299241  4.2506537119568089 9.898407195544273  4.31759570294866 9.8919014544254775  4.3840787118738733 9.8862343418237053  4.4501804794293074 9.88148701699747  4.5159780351639105 9.8777257663354714  4.5815472743379662 9.8750020840810553  4.6469637955314438 9.8733526487714247  4.7123038388108744 9.8727994146760381  4.7776437839786565 9.8733497753839892  4.8430600058423323 9.8749963755252566  4.908628748766354 9.8777172988922963  4.9744256110765521 9.8814759055407784  5.0405264855729008 9.8862207397311366  5.1070084024497406 9.8918855541659223  5.1739490828447883 9.8983892260641309  5.2414317678772475 9.9056364174521914  5.3095305445471057 9.9135157946123638  5.3783690447431596 9.9219076945455527  5.4479061452613964 9.9306568720798758  5.5188066674716936 9.939684134626992  5.591043311779937 9.9488062992868471  5.6644341759906141 9.9578025443559763  5.7388712137070579 9.9664521181560239  5.8142546573001752 9.9745328889432052  5.890506813478475 9.9818300670269213  5.9675651687692159 9.9881419084375285  6.0453814481854229 9.9932853483180644  6.1239199083177338 9.9971024786627591  6.2031548775951961 9.9994607803988806  6.2564342796043508 10.000002974709782  6.2831853071795853 10 
 0 4 0.022727272727272728 1 0.045454545454545456 1 0.068181818181818177 1 0.090909090909090912 1 0.11363636363636365 1 0.13636363636363635 1 0.15909090909090909 1 0.18181818181818182 1 0.20454545454545456 1 0.22727272727272729 1 0.25 1 0.27272727272727271 1 0.29545454545454547 1 0.31818181818181818 1 0.34090909090909094 1 0.36363636363636365 1 0.38636363636363635 1 0.40909090909090912 1 0.43181818181818182 1 0.45454545454545459 1 0.47727272727272729 1 0.5 1 0.52272727272727271 1 0.54545454545454541 1 0.56818181818181823 1 0.59090909090909094 1 0.61363636363636365 1 0.63636363636363635 1 0.65909090909090906 1 0.68181818181818188 1 0.70454545454545459 1 0.72727272727272729 1 0.75 1 0.77272727272727271 1 0.79545454545454553 1 0.81818181818181823 1 0.84090909090909094 1 0.86363636363636365 1 0.88636363636363635 1 0.90909090909090917 1 0.93181818181818188 1 0.95454545454545459 1 0.97727272727272729 1 1 4
1 6.2831853071795862 0 0 1 
1 0 0 0 1 
1 0 0 1 0 
7 0 0  3 47 45  6.2831853071795862 9  6.2764965436687312 9.0000033278580638  6.2631776505948844 8.9978500833691388  6.2434895886184654 8.988369835669749  6.2242079208658261 8.972852899240797  6.2054426711310837 8.9515676622633045  6.1872994070686884 8.9248182363159057  6.1698781239631399 8.8929494013298758  6.1532727161960148 8.8563454235332753  6.137569804402947 8.8154295993927345  6.1228484458058166 8.7706670463982501  6.1091758202451301 8.7225536926677698  6.0966169917893991 8.6716570249842349  6.0851912745372614 8.6184632932027725  6.0748108717722991 8.5628682659501507  6.0655075695806753 8.5052467642069303  6.0572824817021278 8.4458392168757594  6.0501434105905858 8.3849050707310742  6.0440949323432251 8.3226836527615351  6.0391411540969946 8.2594065672236514  6.0352850827213365 8.1952962375326948  6.0325289099589749 8.1305680701751832  6.0308740625222361 8.0654317217699916  6.0303213244262608 8.0000920675936804  6.0308709585535434 7.9347519971766438  6.0325227161983079 7.8696144281820208  6.0352758247263898 7.8048842604727851  6.0391288669723275 7.7407711867546318  6.0440796576211531 7.6774906551054514  6.0501251935371823 7.6152651303361658  6.0572613635007588 7.5543262737479129  6.0654835939290725 7.4949134160971873  6.0747840323230262 7.4372862049538115  6.0851616768876982 7.3816845269028315  6.0965842076335583 7.3284854215979918  6.1091411633268677 7.2775769050659127  6.1228142448256788 7.2294443316619779  6.1375378956009667 7.1846596190750898  6.1532446977320232 7.1437210668857416  6.1698551592926609 7.1070960466517628  6.1872821699914917 7.075209433490862  6.2054312735804267 7.0484465045030484  6.2242018658070339 7.0271524177836184  6.24348773759053 7.011630976774244  6.2631782066731621 7.0021496322961641  6.2764970733555385 6.9999966062571284  6.2831853071795862 7 
 0 4 0.022727272727272728 1 0.045454545454545456 1 0.068181818181818177 1 0.090909090909090912 1 0.11363636363636365 1 0.13636363636363635 1 0.15909090909090909 1 0.18181818181818182 1 0.20454545454545456 1 0.22727272727272729 1 0.25 1 0.27272727272727271 1 0.29545454545454547 1 0.31818181818181818 1 0.34090909090909094 1 0.36363636363636365 1 0.38636363636363635 1 0.40909090909090912 1 0.43181818181818182 1 0.45454545454545459 1 0.47727272727272729 1 0.5 1 0.52272727272727271 1 0.54545454545454541 1 0.56818181818181823 1 0.59090909090909094 1 0.61363636363636365 1 0.63636363636363635 1 0.65909090909090906 1 0.68181818181818188 1 0.70454545454545459 1 0.72727272727272729 1 0.75 1 0.77272727272727271 1 0.79545454545454553 1 0.81818181818181823 1 0.84090909090909094 1 0.86363636363636365 1 0.88636363636363635 1 0.90909090909090917 1 0.93181818181818188 1 0.95454545454545459 1 0.97727272727272729 1 1 4
7 0 0  3 47 45  0 10  0.026752850348486706 10.000002959081161  0.080032344786454768 9.9994607188390354  0.159258599255406 9.997102664809697  0.23778132771398885 9.9932865358484388  0.31557658777967518 9.9881450205349278  0.3926103573462823 9.9818360207160488  0.468836105195027 9.9745424118893631  0.54419315100056886 9.9664655973575034  0.61860572579257211 9.9578199167306032  0.69197632551825539 9.9488269636706672  0.76419886368166212 9.9397070067372137  0.8350958016660095 9.9306801570142724  0.904636838041187 9.9219299879518097  0.9734762730288764 9.9135370667002665  1.0415761157792676 9.9056562708161593  1.1090593244530613 9.8984073777938288  1.1760002966468086 9.8919017122395747  1.242482294478098 9.8862346437848299  1.3085831193316693 9.8814873245593198  1.3743798509000713 9.8777260403551708  1.4399484316066671 9.8750022901375942  1.5053644853130215 9.8733527611480998  1.5707043246683838 9.8727994159612908  1.6360441874606779 9.8733496588049476  1.7014602838155624 9.8749961399399684  1.7670289018783893 9.8777169437451757  1.8328256278002233 9.8814754323526746  1.8989263571243409 9.886220151832795  1.9654081186289338 9.8918848568810027  2.0323486332944878 9.8983884268039173  2.0998311406959669 9.9056355256632749  2.1679297299794267 9.9135148223458671  2.2367680210741105 9.9219066546281578  2.3063049306343624 9.9306557851928687  2.3772050162221587 9.9396829890314358  2.4494414266893885 9.9488051461639113  2.5228324384015184 9.9578014571212918  2.5972701096588708 9.9664511739703912  2.6726546731504572 9.9745321476077358  2.7489083567520143 9.9818295568375568  2.8259684943988268 9.9881416190609364  2.9037865918000079 9.9932852322621493  2.9823266181277548 9.9971024642309114  3.0615625546114167 9.9994607900887438  3.1148419000832268 10.000002978308112  3.1415926535897931 10 
 0 4 0.022727272727272728 1 0.045454545454545456 1 0.068181818181818177 1 0.090909090909090912 1 0.11363636363636365 1 0.13636363636363635 1 0.15909090909090909 1 0.18181818181818182 1 0.20454545454545456 1 0.22727272727272729 1 0.25 1 0.27272727272727271 1 0.29545454545454547 1 0.31818181818181818 1 0.34090909090909094 1 0.36363636363636365 1 0.38636363636363635 1 0.40909090909090912 1 0.43181818181818182 1 0.45454545454545459 1 0.47727272727272729 1 0.5 1 0.52272727272727271 1 0.54545454545454541 1 0.56818181818181823 1 0.59090909090909094 1 0.61363636363636365 1 0.63636363636363635 1 0.65909090909090906 1 0.68181818181818188 1 0.70454545454545459 1 0.72727272727272729 1 0.75 1 0.77272727272727271 1 0.79545454545454553 1 0.81818181818181823 1 0.84090909090909094 1 0.86363636363636365 1 0.88636363636363635 1 0.90909090909090917 1 0.93181818181818188 1 0.95454545454545459 1 0.97727272727272729 1 1 4
7 0 0  3 69 67  3.1415926535897931 9  3.1505120357981768 9.0000105030625406  3.1682445825862202 8.9961739600725767  3.1942593455981578 8.9794403970098067  3.2194188799001653 8.9522727172647976  3.2434721993478703 8.9153879867841539  3.2661840870927943 8.8696165998705698  3.2873403225009676 8.8159152043586531  3.306750549676404 8.7553730710919151  3.3242571957161311 8.6891725799503963  3.3397289305263551 8.6187388834606278  3.3533325846058837 8.5440972014283521  3.3650190356768204 8.4659988656746226  3.3747801949415073 8.3850328726922321  3.382601634777366 8.3017817231122386  3.3884748629770192 8.2167877946659793  3.392393575432378 8.1305700971160615  3.394354158051232 8.0436274825798932  3.3943549656053973 7.9564441690710757  3.392395981459619 7.8695007179110883  3.3884788252231681 7.7832814334186722  3.3826070913716841 7.6982852701325353  3.3747870798640327 7.6150313841884509  3.3650272730212403 7.5340622438548035  3.353342179679951 7.4559607067020339  3.3397397217897602 7.3813151638697789  3.3242698994659095 7.3108799420983166  3.3067615467715035 7.244663677721122  3.2873462079762041 7.1841001141102723  3.2661823897454187 7.1303778729572125  3.2434609358134137 7.0845912146221686  3.219399429103357 7.047698998367828  3.1942268009144619 7.0205352828448415  3.1682244687054193 7.0038060141679468  3.1415574060836824 6.9980897107754423  3.1148947854268698 7.0038351998857973  3.0889007395447594 7.0205861514881231  3.0637394988441216 7.0477610494769287  3.039690605893798 7.0846527382909841  3.0169815299580991 7.1304282495154165  2.995828478446084 7.1841317434909122  2.9764211779563321 7.2446739510064608  2.9589173235542972 7.3108725758004711  2.9434480064523671 7.3813032659813151  2.9298463112953157 7.4559419016179298  2.9181615360700226 7.5340366542629438  2.9084017872779753 7.6149986304955792  2.9005815220118123 7.698245261396953  2.8947092353702684 7.7832341467177919  2.8907912234736051 7.8694462464898454  2.8888310831236446 7.9563827202710211  2.8888304313463036 8.0435593205210107  2.8907892687267327 8.1304961138631935  2.8947059791105807 8.2167088587884276  2.9005769682731617 8.3016987299064731  2.9083959379884332 8.3849466886635824  2.9181544098192078 8.4659104045758902  2.9298378745124305 8.5440071425376001  2.9434384313477562 8.6186487432049645  2.9589060264953764 8.6890807729077899  2.9764118501488359 8.7552950065943627  2.9958243360882504 8.815857953755545  3.0169850743522084 8.8695810389948235  3.0397027165863673 8.9153706363280989  3.063761870860167 8.9522676185332255  3.0889260670004406 8.9794410324941918  3.1149430290733355 8.9961749452582218  3.1326745865560106 9.000010668866171  3.1415926535897931 9 
 0 4 0.015151515151515152 1 0.030303030303030304 1 0.045454545454545456 1 0.060606060606060608 1 0.07575757575757576 1 0.090909090909090912 1 0.10606060606060606 1 0.12121212121212122 1 0.13636363636363635 1 0.15151515151515152 1 0.16666666666666669 1 0.18181818181818182 1 0.19696969696969696 1 0.21212121212121213 1 0.22727272727272729 1 0.24242424242424243 1 0.25757575757575757 1 0.27272727272727271 1 0.2878787878787879 1 0.30303030303030304 1 0.31818181818181818 1 0.33333333333333337 1 0.34848484848484851 1 0.36363636363636365 1 0.37878787878787878 1 0.39393939393939392 1 0.40909090909090912 1 0.42424242424242425 1 0.43939393939393939 1 0.45454545454545459 1 0.46969696969696972 1 0.48484848484848486 1 0.5 1 0.51515151515151514 1 0.53030303030303028 1 0.54545454545454541 1 0.56060606060606066 1 0.5757575757575758 1 0.59090909090909094 1 0.60606060606060608 1 0.62121212121212122 1 0.63636363636363635 1 0.65151515151515149 1 0.66666666666666674 1 0.68181818181818188 1 0.69696969696969702 1 0.71212121212121215 1 0.72727272727272729 1 0.74242424242424243 1 0.75757575757575757 1 0.77272727272727271 1 0.78787878787878785 1 0.80303030303030309 1 0.81818181818181823 1 0.83333333333333337 1 0.84848484848484851 1 0.86363636363636365 1 0.87878787878787878 1 0.89393939393939392 1 0.90909090909090917 1 0.92424242424242431 1 0.93939393939393945 1 0.95454545454545459 1 0.96969696969696972 1 0.98484848484848486 1 1 4
7 0 0  3 69 67  0 2  0.035670357104714334 1.9999910099459424  0.10661324736294908 2.0009619866880062  0.21178735430566675 2.0051078542209773  0.31568726401807989 2.0117043960546717  0.41823425039564466 2.0203772940296343  0.51931307602798427 2.0306869660863986  0.61876377310247221 2.0421378343754975  0.71636285143408784 2.0542060160613604  0.8118509786708179 2.0663696760948933  0.90477149638695753 2.0781220520804236  0.99637727379107144 2.0892290741741104  1.086740001202295 2.099349729199349  1.176101996480309 2.1082111864625674  1.2646451538178933 2.1155794926477856  1.3525575349667864 2.121268664422983  1.4400193931807621 2.1251389810846817  1.5272101553015318 2.1270977039431287  1.6143108691905423 2.1270985133123479  1.7015019251364469 2.1251413713912539  1.7889642962523169 2.121272544779393  1.8768773259908151 2.1155847159924819  1.9654211296853035 2.1082175675767507  2.0547837075316444 2.0993570505375234  2.1451464691613449 2.0892371563234424  2.2367526178365722 2.0781305857310728  2.329669291227658 2.0663789220291942  2.4251730290055296 2.0542131586845915  2.5228010614156151 2.0421410966426898  2.6222880960390089 2.0306858131969996  2.7234077671045682 2.0203726062274017  2.8259876728883278 2.011697431803964  2.9299369503660877 2.0051026746778082  3.0350640107470426 2.0009540251327431  3.1417333880790501 1.9995211668482689  3.2483865307649307 2.0009613217638211  3.3534842179015758 2.0051151785621659  3.4573923504368729 2.0117122622762582  3.5599250281213539 2.0203867383192442  3.6609957134267148 2.0306967888201397  3.7604367210571379 2.0421475226093952  3.8580266792143743 2.0542150123970866  3.9535054980812543 2.0663775735413377  4.0464174945891234 2.0781286831855939  4.1380163111803281 2.0892344920843393  4.2283726341917589 2.0993539479017289  4.3177286607197818 2.1082142760934635  4.4062660172784014 2.115581555546179  4.4941725957985934 2.12126984867181  4.5816284866746724 2.1251394834724011  4.6688130002667396 2.1270977698292697  4.7559070196312732 2.1270984234856165  4.8430914128469613 2.1251414289410562  4.9305470627710832 2.1212730399793007  5.0184532852425647 2.1155859148941589  5.1069901482474069 2.1082196971579581  5.1963456162267896 2.0993602835680965  5.2867010253677211 2.0892416013868265  5.3782996262533569 2.0781362585916074  5.4712081304169207 2.0663857892507838  5.5667032191553858 2.0542210618342596  5.6643219072520701 2.0421497378581015  5.7637990532305849 2.0306948390186395  5.8649062788620547 2.0203813353876749  5.9674792060615651 2.0117056354249545  6.0713984740415832 2.005107700999694  6.1765813341932017 2.0009617429534519  6.2475201569749679 1.9999909622079219  6.2831853071795862 2 
 0 4 0.015151515151515152 1 0.030303030303030304 1 0.045454545454545456 1 0.060606060606060608 1 0.07575757575757576 1 0.090909090909090912 1 0.10606060606060606 1 0.12121212121212122 1 0.13636363636363635 1 0.15151515151515152 1 0.16666666666666669 1 0.18181818181818182 1 0.19696969696969696 1 0.21212121212121213 1 0.22727272727272729 1 0.24242424242424243 1 0.25757575757575757 1 0.27272727272727271 1 0.2878787878787879 1 0.30303030303030304 1 0.31818181818181818 1 0.33333333333333337 1 0.34848484848484851 1 0.36363636363636365 1 0.37878787878787878 1 0.39393939393939392 1 0.40909090909090912 1 0.42424242424242425 1 0.43939393939393939 1 0.45454545454545459 1 0.46969696969696972 1 0.48484848484848486 1 0.5 1 0.51515151515151514 1 0.53030303030303028 1 0.54545454545454541 1 0.56060606060606066 1 0.5757575757575758 1 0.59090909090909094 1 0.60606060606060608 1 0.62121212121212122 1 0.63636363636363635 1 0.65151515151515149 1 0.66666666666666674 1 0.68181818181818188 1 0.69696969696969702 1 0.71212121212121215 1 0.72727272727272729 1 0.74242424242424243 1 0.75757575757575757 1 0.77272727272727271 1 0.78787878787878785 1 0.80303030303030309 1 0.81818181818181823 1 0.83333333333333337 1 0.84848484848484851 1 0.86363636363636365 1 0.87878787878787878 1 0.89393939393939392 1 0.90909090909090917 1 0.92424242424242431 1 0.93939393939393945 1 0.95454545454545459 1 0.96969696969696972 1 0.98484848484848486 1 1 4
1 6.2831853071795862 0 0 1 
1 0 0 0 1 
7 0 0  3 69 67  0 7.5  0.017350085950653089 7.5000015865548706  0.052014677971840929 7.4993966550175628  0.1038568878945872 7.4967068405194883  0.1554972864596999 7.4922690846630093  0.20688592214829243 7.4861438364854509  0.25796976850627362 7.4784082346339398  0.30869238504415908 7.4691578367365885  0.35899022753333276 7.4585061672266759  0.40880199175859139 7.4465811709903216  0.45802860085078634 7.4335354178674056  0.50671178328277777 7.4194938996428954  0.55490772070454597 7.4045756426479628  0.60265241745325371 7.3889055916351518  0.64998571981866515 7.3726080356239327  0.69694526179523597 7.3558086095310884  0.74356839715884759 7.3386340015170921  0.78989198498958879 7.3212122616835593  0.83595255739264851 7.3036729996505541  0.88178694558143267 7.2861474252634935  0.92743058909653231 7.2687691279017983  0.97299814127049367 7.2516441109235572  1.0185116904207134 7.2349172006765805  1.064010573034194 7.2187297675711397  1.1095315524652762 7.2032271008318274  1.1551149447923339 7.1885556405210949  1.2008035640099961 7.1748628901520588  1.2466443886602907 7.1622959564863438  1.2926866323740769 7.1510021068162599  1.3388888584995122 7.1411452267296198  1.3852556335393309 7.1328634181239217  1.4317944222917696 7.1262820078580784  1.4784552366769999 7.121513368397264  1.5251944222127698 7.118638493145018  1.5719977481375382 7.1177076884018691  1.6187720633441642 7.1187385276678592  1.6654554184369446 7.121706685500012  1.7120529633881185 7.126560195083802  1.7585440117255595 7.1332196475879899  1.8049023742187928 7.1415786882935963  1.8510955498901025 7.151507441682976  1.8970539011068839 7.1628462194343694  1.9428024965076514 7.1754435301084882  1.9884055091328949 7.1891573597774174  2.0339050506534182 7.2038401026807142  2.0793444390833509 7.2193453106478875  2.1247629628273677 7.2355271324637735  2.1701972017881839 7.2522411408298053  2.2156845216441261 7.2693461402758155  2.2612513760506872 7.2866998849507825  2.3070147368705358 7.3041981821965631  2.3530027330986694 7.321705465990231  2.399253928452362 7.3390919979925915  2.4458041678086317 7.3562286989083763  2.4926902785573795 7.3729882873697843  2.5399493931212977 7.389244762927464  2.5876190338023388 7.4048732050885064  2.6357386865668366 7.4197499640587381  2.684344873730538 7.4337509686211032  2.7334910154226058 7.446757173765131  2.7832198408023694 7.4586447242725251  2.83343352754332 7.4692621284287828  2.8840705513845144 7.4784820810473382  2.9350675025969983 7.4861917244234988  2.9863679465965318 7.4922960625119339  3.0379188686513432 7.4967184388925352  3.0896703046337048 7.4993988060584842  3.1242734945823121 7.5000015789038583  3.1415926535897931 7.5 
 0 4 0.015151515151515152 1 0.030303030303030304 1 0.045454545454545456 1 0.060606060606060608 1 0.07575757575757576 1 0.090909090909090912 1 0.10606060606060606 1 0.12121212121212122 1 0.13636363636363635 1 0.15151515151515152 1 0.16666666666666669 1 0.18181818181818182 1 0.19696969696969696 1 0.21212121212121213 1 0.22727272727272729 1 0.24242424242424243 1 0.25757575757575757 1 0.27272727272727271 1 0.2878787878787879 1 0.30303030303030304 1 0.31818181818181818 1 0.33333333333333337 1 0.34848484848484851 1 0.36363636363636365 1 0.37878787878787878 1 0.39393939393939392 1 0.40909090909090912 1 0.42424242424242425 1 0.43939393939393939 1 0.45454545454545459 1 0.46969696969696972 1 0.48484848484848486 1 0.5 1 0.51515151515151514 1 0.53030303030303028 1 0.54545454545454541 1 0.56060606060606066 1 0.5757575757575758 1 0.59090909090909094 1 0.60606060606060608 1 0.62121212121212122 1 0.63636363636363635 1 0.65151515151515149 1 0.66666666666666674 1 0.68181818181818188 1 0.69696969696969702 1 0.71212121212121215 1 0.72727272727272729 1 0.74242424242424243 1 0.75757575757575757 1 0.77272727272727271 1 0.78787878787878785 1 0.80303030303030309 1 0.81818181818181823 1 0.83333333333333337 1 0.84848484848484851 1 0.86363636363636365 1 0.87878787878787878 1 0.89393939393939392 1 0.90909090909090917 1 0.92424242424242431 1 0.93939393939393945 1 0.95454545454545459 1 0.96969696969696972 1 0.98484848484848486 1 1 4
7 0 0  3 69 67  6.2831853071795862 10  6.2716185236364694 10.000001405823213  6.2485089008275239 9.9990957921377763  6.2139993750943425 9.9950559164748221  6.1797275965316416 9.9883717795035416  6.1457772331830682 9.9791037696704379  6.1122331350790766 9.9673277294234115  6.0791812563060645 9.9531369790913669  6.0467106449660157 9.9366433254471787  6.0149071237601817 9.9179728474459559  5.983877585103837 9.8972840689815467  5.9536376764279169 9.8746868781922483  5.9241955414403336 9.8502749820286599  5.8955733487738549 9.8241452875219757  5.8677927271960968 9.7963873130468944  5.8408789521362472 9.7670862956807696  5.8148601104394189 9.7363226433687817  5.789767604765629 9.7041723117690335  5.7656363054424418 9.6707071375725118  5.7425047421677675 9.6359944212430459  5.7204154475426385 9.6000995556021138  5.699379767823423 9.5630184236385478  5.6794607515247399 9.5248146108383551  5.6607173835611881 9.4855370473810439  5.6432149365835969 9.4452349646485523  5.6270219034930591 9.4039535395019449  5.6122106558092604 9.3617348944925869  5.5988565030228372 9.3186170824129082  5.5870392878053039 9.274635873406142  5.576860705347265 9.2299164175672885  5.5684017648121973 9.184544363798441  5.5617380255462336 9.1386049058303858  5.5569411571382474 9.0922434545107809  5.554061817792995 9.0456027349279911  5.5531315231348763 8.9987981381636679  5.5541618373202155 8.9520251967928903  5.5571351354317642 8.90544792218118  5.5620186752505276 8.8591617890808863  5.5687639127111339 8.8132862832497025  5.5773057589330577 8.7679436218649673  5.5875644657541557 8.7232588457214568  5.5994367653623698 8.6793874217238809  5.6128332349951791 8.6363885139578525  5.6276794783173543 8.5942834892562114  5.6438993822615799 8.5531145444453855  5.6614213845570376 8.5129229268474802  5.6801772368765917 8.4737543386411183  5.7001021805109708 8.4356577798999055  5.7211368457133993 8.3986833550942794  5.7432207331753595 8.3628906890974601  5.7663444928487806 8.3282739757554491  5.7904624297687448 8.2949039190055043  5.8155372449098302 8.2628460522286691  5.8415340839423777 8.2321723123919064  5.868421853451423 8.2029582215242467  5.8961726546553663 8.1752838699593138  5.9247614389061241 8.1492340851814404  5.9541666283734145 8.1248980564876288  5.9843666388635981 8.1023719507849954  6.0153518330147833 8.0817501080301106  6.047107379940627 8.0631411525787868  6.0795274106269339 8.0467024372271005  6.1125262030564755 8.032559525544082  6.1460150410312373 8.0208236172495848  6.17990822535549 8.0115875301932764  6.2141211684759128 8.0049266555510812  6.2485704529409247 8.0009009872690342  6.2716391422400619 7.9999985991113123  6.2831853071795862 8 
 0 4 0.015151515151515152 1 0.030303030303030304 1 0.045454545454545456 1 0.060606060606060608 1 0.07575757575757576 1 0.090909090909090912 1 0.10606060606060606 1 0.12121212121212122 1 0.13636363636363635 1 0.15151515151515152 1 0.16666666666666669 1 0.18181818181818182 1 0.19696969696969696 1 0.21212121212121213 1 0.22727272727272729 1 0.24242424242424243 1 0.25757575757575757 1 0.27272727272727271 1 0.2878787878787879 1 0.30303030303030304 1 0.31818181818181818 1 0.33333333333333337 1 0.34848484848484851 1 0.36363636363636365 1 0.37878787878787878 1 0.39393939393939392 1 0.40909090909090912 1 0.42424242424242425 1 0.43939393939393939 1 0.45454545454545459 1 0.46969696969696972 1 0.48484848484848486 1 0.5 1 0.51515151515151514 1 0.53030303030303028 1 0.54545454545454541 1 0.56060606060606066 1 0.5757575757575758 1 0.59090909090909094 1 0.60606060606060608 1 0.62121212121212122 1 0.63636363636363635 1 0.65151515151515149 1 0.66666666666666674 1 0.68181818181818188 1 0.69696969696969702 1 0.71212121212121215 1 0.72727272727272729 1 0.74242424242424243 1 0.75757575757575757 1 0.77272727272727271 1 0.78787878787878785 1 0.80303030303030309 1 0.81818181818181823 1 0.83333333333333337 1 0.84848484848484851 1 0.86363636363636365 1 0.87878787878787878 1 0.89393939393939392 1 0.90909090909090917 1 0.92424242424242431 1 0.93939393939393945 1 0.95454545454545459 1 0.96969696969696972 1 0.98484848484848486 1 1 4
7 0 0  3 69 67  3.1415926535897931 7.5  3.1589427395404437 7.5000015865548706  3.1936073315616369 7.4993966550175628  3.2454495414844189 7.4967068405194883  3.2970899400495903 7.4922690846630093  3.3484785757382629 7.4861438364854509  3.3995624220963112 7.4784082346339398  3.4502850386342527 7.4691578367365885  3.5005828811234898 7.4585061672266759  3.5503946453487831 7.4465811709903216  3.5996212544410251 7.4335354178674056  3.6483044368730626 7.4194938996428954  3.6965003742948608 7.4045756426479628  3.7442450710436117 7.3889055916351518  3.7915783734090573 7.3726080356239327  3.8385379153856767 7.3558086095310884  3.8851610507492791 7.3386340015170921  3.9314846385800468 7.3212122616835593  3.9775452109831391 7.3036729996505541  4.0233795991720731 7.2861474252634935  4.0690232426870407 7.2687691279017983  4.1145907948611482 7.2516441109235572  4.1601043440112795 7.2349172006765805  4.205603226624679 7.2187297675711397  4.251124206055553 7.2032271008318274  4.2967075983827785 7.1885556405210949  4.3423962176005189 7.1748628901520588  4.3882370422512089 7.1622959564863438  4.4342792859642994 7.1510021068162599  4.4804815120903161 7.1411452267296198  4.5268482871301297 7.1328634181239217  4.5733870758825619 7.1262820078580784  4.6200478902677 7.121513368397264  4.6667870758035388 7.118638493145018  4.713590401728311 7.1177076884018691  4.7603647169349426 7.1187385276678592  4.8070480720275217 7.1217066855000564  4.8536456169785414 7.1265601950839921  4.9001366653160998 7.1332196475883274  4.9464950278093216 7.1415786882939374  4.9926882034810092 7.1515074416830302  5.0386465546975501 7.1628462194343561  5.0843951500984117 7.1754435301084918  5.129998162723588 7.1891573597774174  5.1754977042440986 7.2038401026807142  5.2209370926740339 7.2193453106478875  5.2663556164179264 7.2355271324637735  5.3117898553788105 7.2522411408298053  5.3572771752346702 7.2693461402758155  5.4028440296412743 7.2866998849507825  5.4486073904610031 7.3041981821965631  5.4945953866892019 7.321705465990231  5.5408465820428141 7.3390919979925915  5.5873968213990794 7.3562286989083763  5.634282932147725 7.3729882873697843  5.6815420467116198 7.389244762927464  5.7292116873926426 7.4048732050885064  5.7773313401571063 7.4197499640587381  5.825937527320761 7.4337509686211032  5.8750836690127946 7.446757173765131  5.92481249439252 7.4586447242725251  5.9750261811334084 7.4692621284287828  6.0256632049745482 7.4784820810473382  6.0766601561869278 7.4861917244234988  6.1279606001864417 7.4922960625119339  6.1795115222411443 7.4967184388925352  6.2312629582234784 7.4993988060584842  6.2658661481720932 7.5000015789038583  6.2831853071795853 7.5 
 0 4 0.015151515151515152 1 0.030303030303030304 1 0.045454545454545456 1 0.060606060606060608 1 0.07575757575757576 1 0.090909090909090912 1 0.10606060606060606 1 0.12121212121212122 1 0.13636363636363635 1 0.15151515151515152 1 0.16666666666666669 1 0.18181818181818182 1 0.19696969696969696 1 0.21212121212121213 1 0.22727272727272729 1 0.24242424242424243 1 0.25757575757575757 1 0.27272727272727271 1 0.2878787878787879 1 0.30303030303030304 1 0.31818181818181818 1 0.33333333333333337 1 0.34848484848484851 1 0.36363636363636365 1 0.37878787878787878 1 0.39393939393939392 1 0.40909090909090912 1 0.42424242424242425 1 0.43939393939393939 1 0.45454545454545459 1 0.46969696969696972 1 0.48484848484848486 1 0.5 1 0.51515151515151514 1 0.53030303030303028 1 0.54545454545454541 1 0.56060606060606066 1 0.5757575757575758 1 0.59090909090909094 1 0.60606060606060608 1 0.62121212121212122 1 0.63636363636363635 1 0.65151515151515149 1 0.66666666666666674 1 0.68181818181818188 1 0.69696969696969702 1 0.71212121212121215 1 0.72727272727272729 1 0.74242424242424243 1 0.75757575757575757 1 0.77272727272727271 1 0.78787878787878785 1 0.80303030303030309 1 0.81818181818181823 1 0.83333333333333337 1 0.84848484848484851 1 0.86363636363636365 1 0.87878787878787878 1 0.89393939393939392 1 0.90909090909090917 1 0.92424242424242431 1 0.93939393939393945 1 0.95454545454545459 1 0.96969696969696972 1 0.98484848484848486 1 1 4
7 0 0  3 69 67  0 8  0.011566783543116799 7.9999985941767973  0.034676406352062372 8.0009042078623391  0.069185932085243707 8.0049440835256043  0.10345771064794285 8.0116282204971139  0.13740807399651622 8.0208962303304361  0.17095217210051139 8.0326722705775513  0.20400405087351992 8.046863020909619  0.23647466221357405 8.0633566745538605  0.26827818341940102 8.0820271525550442  0.29930772207574918 8.1027159310194605  0.32954763075166937 8.125313121808766  0.3589897657392509 8.1497250179723277  0.38761195840573137 8.1758547124790226  0.41539257998348944 8.2036126869540951  0.44230635504333904 8.2329137043202358  0.46832519674016382 8.2636773566321597  0.49341770241395899 8.2958276882319009  0.51754900173714447 8.3292928624284315  0.54068056501181871 8.3640055787580518  0.56276985963694592 8.3999004443987779  0.58380553935616497 8.4369815763624949  0.60372455565484628 8.475185389162549  0.62246792361839631 8.5144629526197448  0.63997037059598938 8.5547650353519913  0.65616340368652537 8.5960464604987639  0.67097465137032586 8.6382651055082  0.68432880415674902 8.6813829175882766  0.69614601937428056 8.7253641265943003  0.70632460183232304 8.7700835824337542  0.71478354236738717 8.8154556362025822  0.72144728163335081 8.8613950941706214  0.72624415004134057 8.9077565454901304  0.72912348938659122 8.9543972650729842  0.73005378404470811 9.0012018618373109  0.72902346985936894 9.0479748032080938  0.72605017174780251 9.094552077819607  0.72116663192897512 9.1408382109197532  0.71442139446830133 9.186713716751056  0.70587954824638111 9.2320563781357876  0.69562084142540748 9.2767411542796996  0.68374854181722 9.3206125782770393  0.67035207218440718 9.3636114860431849  0.65550582886223197 9.4057165107447709  0.63928592491800806 9.4468854555556128  0.62176392262255042 9.4870770731535377  0.60300807030299275 9.5262456613597788  0.58308312666861362 9.5643422201011017  0.56204846146618515 9.6013166449066567  0.53996457400422671 9.6371093109035666  0.51684081433080387 9.6717260242454621  0.49272287741084142 9.7050960809955331  0.46764806226975431 9.7371539477723097  0.44165122323720851 9.767827687609115  0.41476345372816148 9.7970417784766735  0.38701265252421813 9.824716130041617  0.3584238682734604 9.8507659148195277  0.32901867880616997 9.8751019435133536  0.29881866831598991 9.8976280492159798  0.26783347416480119 9.9182498919708824  0.23607792723896459 9.9368588474222399  0.20365789655265054 9.9532975627738711  0.17065910412311247 9.9674404744568825  0.13717026614835426 9.9791763827511133  0.10327708182410156 9.9884124698075656  0.069064138703687661 9.9950733444492741  0.034614854238675719 9.9990990127310795  0.011546164939533199 10.000001400888697  0 10 
 0 4 0.015151515151515152 1 0.030303030303030304 1 0.045454545454545456 1 0.060606060606060608 1 0.07575757575757576 1 0.090909090909090912 1 0.10606060606060606 1 0.12121212121212122 1 0.13636363636363635 1 0.15151515151515152 1 0.16666666666666669 1 0.18181818181818182 1 0.19696969696969696 1 0.21212121212121213 1 0.22727272727272729 1 0.24242424242424243 1 0.25757575757575757 1 0.27272727272727271 1 0.2878787878787879 1 0.30303030303030304 1 0.31818181818181818 1 0.33333333333333337 1 0.34848484848484851 1 0.36363636363636365 1 0.37878787878787878 1 0.39393939393939392 1 0.40909090909090912 1 0.42424242424242425 1 0.43939393939393939 1 0.45454545454545459 1 0.46969696969696972 1 0.48484848484848486 1 0.5 1 0.51515151515151514 1 0.53030303030303028 1 0.54545454545454541 1 0.56060606060606066 1 0.5757575757575758 1 0.59090909090909094 1 0.60606060606060608 1 0.62121212121212122 1 0.63636363636363635 1 0.65151515151515149 1 0.66666666666666674 1 0.68181818181818188 1 0.69696969696969702 1 0.71212121212121215 1 0.72727272727272729 1 0.74242424242424243 1 0.75757575757575757 1 0.77272727272727271 1 0.78787878787878785 1 0.80303030303030309 1 0.81818181818181823 1 0.83333333333333337 1 0.84848484848484851 1 0.86363636363636365 1 0.87878787878787878 1 0.89393939393939392 1 0.90909090909090917 1 0.92424242424242431 1 0.93939393939393945 1 0.95454545454545459 1 0.96969696969696972 1 0.98484848484848486 1 1 4
1 0 1 1 0 
1 0 0 1 0 
7 0 0  3 135 133  0 4.5  0.01736557707694919 4.4999984077877917  0.052061088911361214 4.5006044251562214  0.10394935972882163 4.5032990204422774  0.15563537228349492 4.5077445961159244  0.2070690349820101 4.5138804977837115  0.25819716860949449 4.521629322858213  0.30896316250909284 4.5308951856782427  0.35930327947445473 4.5415641730971554  0.40915599797639912 4.5535079021669098  0.45842197956955344 4.5665732907060042  0.50714438516781746 4.5806353540886766  0.55537891022049446 4.5955745856333508  0.60316180980543399 4.6112657412807847  0.6505329824212388 4.6275841787478909  0.69753016486163311 4.6444039168052331  0.74419080793618619 4.6615979142026802  0.79055184208305485 4.6790377498785443  0.83664998438304417 4.6965934783867098  0.88252183055527067 4.7141333831681527  0.92820416464039535 4.7315239632269028  0.97381129547361212 4.7486586251836416  1.0193648395684876 4.7653918949441492  1.0649044140056041 4.7815820331968073  1.1104668712485792 4.797083306099025  1.1560927372283034 4.8117488693059229  1.2018248652934622 4.8254307779311558  1.2477109721627224 4.8379816768819337  1.2937985431014039 4.8492534412100987  1.3400459849143931 4.8590820443394467  1.3864585956737072 4.8673294797440798  1.4330428738877352 4.8738703306554134  1.4797481017346148 4.8785925545574047  1.5265306305804325 4.8814158323842074  1.5733776021351735 4.8822905448449623  1.6201903493887557 4.8812002562884986  1.6669131118082656 4.8781703959366283  1.7135491319029816 4.8732538767259959  1.7600778826661043 4.866531191715195  1.8064726386208376 4.8581098311466828  1.8527004650868297 4.8481208106594273  1.8986908489135661 4.8367251263977566  1.94447434569193 4.8240735395996408  1.9901133858930848 4.810308884936739  2.0356505171770669 4.7955790817081354  2.0811289388686909 4.7800309762177653  2.1265879257414406 4.7638107733324988  2.1720642528026906 4.7470631398548875  2.2175946303670782 4.7299298143606352  2.263208160961343 4.712552302266741  2.3090217878518624 4.6950350650833261  2.3550615967610473 4.6775147591401209  2.4013668212070622 4.6601211730004959  2.4479732596270347 4.6429837171675388  2.4949178890804871 4.6262299342989186  2.5422379754442761 4.6099861038102672  2.5899711061368538 4.5943774484157522  2.6381571991925172 4.5795278385312868  2.6868319052744152 4.5655619032900523  2.7360527390375347 4.5525980172461269  2.7858534142568128 4.5407626985032268  2.8361360367037598 4.5302070077750667  2.8868392640510008 4.5210577262341305  2.9379000098231272 4.5134271171500702  2.9892611168688488 4.5074093433277325  3.0408726684660388 4.5030806638529999  3.0926733428631832 4.500498662405449  3.1446583976708991 4.4997023745936628  3.1966191584553889 4.5007105876149334  3.2484000512117182 4.5035004887556784  3.299982819670467 4.5080312228761636  3.3513097609202465 4.5142428873995275  3.402329868625809 4.5220571457354346  3.4529860437417774 4.53137782602915  3.5032148077616134 4.5420907632658487  3.5529544821817183 4.5540674857200178  3.6021064243810219 4.5671550837608352  3.6507212571093448 4.5812312464940392  3.698850877116536 4.5961762145054719  3.7465322126951399 4.6118656179769246  3.7938046655934539 4.6281753843956484  3.8407058074263833 4.6449801818989345  3.8872728641692977 4.6621536035430147  3.9335425231989651 4.6795678522394404  3.9795514482558851 4.6970936820971847  4.0253354843180249 4.7145998134743703  4.0709332968400815 4.7319541967856154  4.1164576410276679 4.7490503583632773  4.1619292414362388 4.7657432265603763  4.2073877509629094 4.7818918448457621  4.2528698052034448 4.7973511946824354  4.2984157995325774 4.8119752036874059  4.3440683325082414 4.8256166891392622  4.3898752135685841 4.8381291637672534  4.4358826621211565 4.8493650460205036  4.4820492415516009 4.8591613194217826  4.5283804997817958 4.8673809017421954  4.5748826404257468 4.8738991297210239  4.6215050204928581 4.8786047041777945  4.6682043171597964 4.881417879718926  4.7149677781707044 4.8822893824694207  4.7616971315199024 4.8812028924150788  4.8083368336805883 4.8781836760000443  4.8548901485828582 4.8732842880215683  4.9013366881753928 4.8665846705288338  4.9476499356126205 4.8581915753498457  4.9937972289993802 4.8482351289518819  5.0397085954705059 4.8368752210675146  5.085412711738635 4.8242621698914538  5.1309723207439397 4.8105378973486044  5.1764296465600381 4.7958495591776877  5.2218277461056717 4.7803432192854638  5.2672057538948875 4.7641643162705654  5.3126001762079076 4.7474568290943067  5.3580479962246184 4.7303616285619396  5.4035765462258158 4.7130201609829401  5.4493025185963724 4.6955362731372068  5.4952530932819759 4.6780454732563319  5.5414669647111303 4.660677036814203  5.5879798219570285 4.6435597000608029  5.6348284143582488 4.6268203797072642  5.6820497799032923 4.6105847257391934  5.7296813392278407 4.5949773155655675  5.7777625236717229 4.5801214496971605  5.8263296179695807 4.5661408999712183  5.8754364827940684 4.5531542460615784  5.9251244868097634 4.5412853336165098  5.9752960328768943 4.5306851564113968  6.0258898219577706 4.5214805831476887  6.0768426337298145 4.513784087280559  6.1280982035905991 4.5076903398916492  6.1796036687237423 4.5032757362003322  6.2313092045917857 4.5006001205063209  6.2658815841208408 4.4999984267013025  6.2831853071795862 4.5 
 0 4 0.007575757575757576 1 0.015151515151515152 1 0.022727272727272728 1 0.030303030303030304 1 0.03787878787878788 1 0.045454545454545456 1 0.053030303030303032 1 0.060606060606060608 1 0.068181818181818177 1 0.07575757575757576 1 0.083333333333333343 1 0.090909090909090912 1 0.098484848484848481 1 0.10606060606060606 1 0.11363636363636365 1 0.12121212121212122 1 0.12878787878787878 1 0.13636363636363635 1 0.14393939393939395 1 0.15151515151515152 1 0.15909090909090909 1 0.16666666666666669 1 0.17424242424242425 1 0.18181818181818182 1 0.18939393939393939 1 0.19696969696969696 1 0.20454545454545456 1 0.21212121212121213 1 0.2196969696969697 1 0.22727272727272729 1 0.23484848484848486 1 0.24242424242424243 1 0.25 1 0.25757575757575757 1 0.26515151515151514 1 0.27272727272727271 1 0.28030303030303033 1 0.2878787878787879 1 0.29545454545454547 1 0.30303030303030304 1 0.31060606060606061 1 0.31818181818181818 1 0.32575757575757575 1 0.33333333333333337 1 0.34090909090909094 1 0.34848484848484851 1 0.35606060606060608 1 0.36363636363636365 1 0.37121212121212122 1 0.37878787878787878 1 0.38636363636363635 1 0.39393939393939392 1 0.40151515151515155 1 0.40909090909090912 1 0.41666666666666669 1 0.42424242424242425 1 0.43181818181818182 1 0.43939393939393939 1 0.44696969696969696 1 0.45454545454545459 1 0.46212121212121215 1 0.46969696969696972 1 0.47727272727272729 1 0.48484848484848486 1 0.49242424242424243 1 0.5 1 0.50757575757575757 1 0.51515151515151514 1 0.52272727272727271 1 0.53030303030303028 1 0.53787878787878785 1 0.54545454545454541 1 0.55303030303030309 1 0.56060606060606066 1 0.56818181818181823 1 0.5757575757575758 1 0.58333333333333337 1 0.59090909090909094 1 0.59848484848484851 1 0.60606060606060608 1 0.61363636363636365 1 0.62121212121212122 1 0.62878787878787878 1 0.63636363636363635 1 0.64393939393939392 1 0.65151515151515149 1 0.65909090909090906 1 0.66666666666666674 1 0.67424242424242431 1 0.68181818181818188 1 0.68939393939393945 1 0.69696969696969702 1 0.70454545454545459 1 0.71212121212121215 1 0.71969696969696972 1 0.72727272727272729 1 0.73484848484848486 1 0.74242424242424243 1 0.75 1 0.75757575757575757 1 0.76515151515151514 1 0.77272727272727271 1 0.78030303030303028 1 0.78787878787878785 1 0.79545454545454553 1 0.80303030303030309 1 0.81060606060606066 1 0.81818181818181823 1 0.8257575757575758 1 0.83333333333333337 1 0.84090909090909094 1 0.84848484848484851 1 0.85606060606060608 1 0.86363636363636365 1 0.87121212121212122 1 0.87878787878787878 1 0.88636363636363635 1 0.89393939393939392 1 0.90151515151515149 1 0.90909090909090917 1 0.91666666666666674 1 0.92424242424242431 1 0.93181818181818188 1 0.93939393939393945 1 0.94696969696969702 1 0.95454545454545459 1 0.96212121212121215 1 0.96969696969696972 1 0.97727272727272729 1 0.98484848484848486 1 0.99242424242424243 1 1 4
7 0 0  3 135 133  3.1415926535897931 10  3.1531697647711403 10.000001410855999  3.1763000004011976 9.9990941747098816  3.2108400943812727 9.9950471094551236  3.2451418677338331 9.9883511449046107  3.2791214259302581 9.9790668705944015  3.3126936876254054 9.9672703857893126  3.3457724610324378 9.9530553312428118  3.378268453279015 9.9365339012982457  3.4100955892365081 9.917832617778604  3.4411467178881767 9.8971105593649167  3.4714069808672292 9.874477320825207  3.5008677979645633 9.8500270603343996  3.5295070237833719 9.8238568298443667  3.5573029156386502 9.796056353581676  3.5842301044016787 9.7667110402344406  3.6102603909840694 9.7359014543543019  3.6353622336604832 9.7037037172092493  3.6595006624206516 9.6701897306173237  3.6826368253782444 9.6354271794056832  3.7047286215749464 9.5994805963886094  3.7257642009073484 9.5623462105888049  3.7456800179552845 9.5240881799419501  3.7644169216670744 9.4847553926099799  3.7819093675725521 9.4443971949525896  3.7980886188620953 9.4030587742446734  3.8128819976569641 9.3607824289526942  3.8262140622379035 9.3176057303914561  3.8380041655383854 9.2735663276627864  3.8481505360966293 9.2287898729119124  3.856572252598756 9.1833616201687658  3.8631935915426738 9.1373680364269738  3.8679430623541515 9.0909556146836064  3.8707704649037007 9.0442674182688787  3.8716446728596625 8.9974177813863765  3.870554903014229 8.9506080455300356  3.8675194842141289 8.903996271029051  3.8625716789776563 8.857680061377124  3.8557606802278652 8.8117789374705229  3.8471522876186461 8.7664158026521992  3.8368269903299366 8.7217162369910319  3.8248890435083438 8.6778365495824694  3.811426740309086 8.634830788230774  3.7965149661407027 8.59272221113687  3.7802298160178269 8.551552814093796  3.7626429352277344 8.5113641980778549  3.7438226284499372 8.472202321521328  3.723833585262406 8.4341162949784714  3.7027355024981428 8.3971570230483881  3.6805876129241062 8.3613823163835761  3.6573990523849105 8.326787030214021  3.6332165180302978 8.2934438471059497  3.6080769610149814 8.2614182127401854  3.5820152432006651 8.2307825594439876  3.5550623706882014 8.2016127821232843  3.5272461632552452 8.173989400032859  3.4985916439188878 8.1479977227924234  3.469120141848649 8.1237273135831849  3.4388538363618961 8.1012752593751731  3.4077998180534435 8.0807349158518491  3.3759787159095835 8.0622191919188442  3.3434967511737397 8.045884804963384  3.3104397638021603 8.031856704311366  3.2768964757860579 8.0202454500901474  3.2429532737917746 8.0111430519732298  3.2086928533416756 8.0046245283086819  3.1742064461267878 8.0007476449963928  3.1395483147916479 7.9995537361552689  3.1049094465653444 8.0010655322036435  3.0704453483113872 8.0052556937191106  3.0362192002124151 8.0120815110326955  3.0023197164170035 8.0214830435197566  2.9688301935557835 8.0333833637576575  2.9358368264532211 8.0476885354037844  2.9034283951707756 8.0642860734859063  2.8716907285092534 8.0830492634810369  2.8407301339410149 8.1038190849843339  2.8105565531221015 8.1264899685250818  2.7811807942304085 8.150967120905948  2.7526243997972419 8.1771545817997655  2.7249092558452546 8.2049631992900025  2.6980606622779066 8.234308218562802  2.6721067829861842 8.2651096644852284  2.6470791186357503 8.2972919354857879  2.6230124925518812 8.3307837583411128  2.5999459304226753 8.3655174880349215  2.5779204101481108 8.4014306664207155  2.5569484214618901 8.4385265442272708  2.5370936402651205 8.4767407114700593  2.5184148954890646 8.5160247800342592  2.5009774899204866 8.5563296770179651  2.4848498503884477 8.597610549954803  2.4701043476457376 8.6398253084450864  2.4568159931893114 8.6829369129399918  2.4450653245795682 8.7269069431676574  2.4349534854317882 8.771610295213252  2.4265608419800073 8.8169624105459352  2.4199626944117001 8.8628770046081762  2.4152300677298655 8.9092081484380401  2.4124127974524514 8.9558136225772369  2.4115417954415066 9.0025797367902669  2.4126277705430912 9.0493060922799984  2.4156525065345096 9.0958353909615184  2.4205829611525642 9.1420705847585868  2.4273702752961985 9.1878928104365407  2.4359491048512769 9.2331798657900386  2.446239516204018 9.2778069044993856  2.4581380097025529 9.3216185403096095  2.4715563252103436 9.3645593448388933  2.4864200715683547 9.4066068015248625  2.5026534770499889 9.447719044815436  2.5201852260872024 9.4878547886279492  2.5389473222770698 9.5269683947236921  2.5588752859572059 9.5650109859435588  2.57990985754373 9.6019323375252821  2.6019912337313911 9.6376737086762869  2.6251102625803657 9.6722407580409406  2.6492210002504786 9.7055622394137213  2.6742864182996233 9.7375729178003496  2.7002717735283941 9.7682009434300543  2.727146106441479 9.7973709528947328  2.7548816298633967 9.8250030129980246  2.7834533878934771 9.8510124666385153  2.8128399134756985 9.8753103278452219  2.8430196060997233 9.8978005781705019  2.8739832346691658 9.9183893085017321  2.9057152232598158 9.9369676305682102  2.9381099379788127 9.9533787260025157  2.971081913227982 9.9674974742045315  3.0045426743100174 9.9792130583620082  3.0384067585100447 9.9884329783400005  3.0725898079187886 9.9950820972077743  3.107008630098985 9.9991006200833468  3.1300567795003191 10.000001395895804  3.1415926535897931 10 
 0 4 0.007575757575757576 1 0.015151515151515152 1 0.022727272727272728 1 0.030303030303030304 1 0.03787878787878788 1 0.045454545454545456 1 0.053030303030303032 1 0.060606060606060608 1 0.068181818181818177 1 0.07575757575757576 1 0.083333333333333343 1 0.090909090909090912 1 0.098484848484848481 1 0.10606060606060606 1 0.11363636363636365 1 0.12121212121212122 1 0.12878787878787878 1 0.13636363636363635 1 0.14393939393939395 1 0.15151515151515152 1 0.15909090909090909 1 0.16666666666666669 1 0.17424242424242425 1 0.18181818181818182 1 0.18939393939393939 1 0.19696969696969696 1 0.20454545454545456 1 0.21212121212121213 1 0.2196969696969697 1 0.22727272727272729 1 0.23484848484848486 1 0.24242424242424243 1 0.25 1 0.25757575757575757 1 0.26515151515151514 1 0.27272727272727271 1 0.28030303030303033 1 0.2878787878787879 1 0.29545454545454547 1 0.30303030303030304 1 0.31060606060606061 1 0.31818181818181818 1 0.32575757575757575 1 0.33333333333333337 1 0.34090909090909094 1 0.34848484848484851 1 0.35606060606060608 1 0.36363636363636365 1 0.37121212121212122 1 0.37878787878787878 1 0.38636363636363635 1 0.39393939393939392 1 0.40151515151515155 1 0.40909090909090912 1 0.41666666666666669 1 0.42424242424242425 1 0.43181818181818182 1 0.43939393939393939 1 0.44696969696969696 1 0.45454545454545459 1 0.46212121212121215 1 0.46969696969696972 1 0.47727272727272729 1 0.48484848484848486 1 0.49242424242424243 1 0.5 1 0.50757575757575757 1 0.51515151515151514 1 0.52272727272727271 1 0.53030303030303028 1 0.53787878787878785 1 0.54545454545454541 1 0.55303030303030309 1 0.56060606060606066 1 0.56818181818181823 1 0.5757575757575758 1 0.58333333333333337 1 0.59090909090909094 1 0.59848484848484851 1 0.60606060606060608 1 0.61363636363636365 1 0.62121212121212122 1 0.62878787878787878 1 0.63636363636363635 1 0.64393939393939392 1 0.65151515151515149 1 0.65909090909090906 1 0.66666666666666674 1 0.67424242424242431 1 0.68181818181818188 1 0.68939393939393945 1 0.69696969696969702 1 0.70454545454545459 1 0.71212121212121215 1 0.71969696969696972 1 0.72727272727272729 1 0.73484848484848486 1 0.74242424242424243 1 0.75 1 0.75757575757575757 1 0.76515151515151514 1 0.77272727272727271 1 0.78030303030303028 1 0.78787878787878785 1 0.79545454545454553 1 0.80303030303030309 1 0.81060606060606066 1 0.81818181818181823 1 0.8257575757575758 1 0.83333333333333337 1 0.84090909090909094 1 0.84848484848484851 1 0.85606060606060608 1 0.86363636363636365 1 0.87121212121212122 1 0.87878787878787878 1 0.88636363636363635 1 0.89393939393939392 1 0.90151515151515149 1 0.90909090909090917 1 0.91666666666666674 1 0.92424242424242431 1 0.93181818181818188 1 0.93939393939393945 1 0.94696969696969702 1 0.95454545454545459 1 0.96212121212121215 1 0.96969696969696972 1 0.97727272727272729 1 0.98484848484848486 1 0.99242424242424243 1 1 4
1 6.2831853071795862 0 0 1 
1 0 0 0 1 
1 6.2831853071795862 0 0 1 
1 0 0 0 1 
1 0 10 1 0 
1 0 10 1 0 
1 0 2 1 0 
1 6.2831853071795862 0 0 1 
1 0 0 0 1 
Curves 19
1 4 -9.7999999999999995e-16 74.610173055266003 0 0 1 
2 0 0 84.610173055266003 0 0 1 1 0 -0 -0 1 0 4
7 0 0  7 26 5  4 3.8000000000000001e-16 81.610173055266003  4 0.128311151746 81.610173055266003  3.9951978373500001 0.25457271407799997 81.629380658802006  3.985871337481 0.37533530707399998 81.666692073484995  3.9730224047939999 0.48748615172300003 81.720252909980999  3.958227410758 0.58840845160499999 81.787477969937001  3.9431466245009998 0.67620678534900003 81.865033234269006  3.915407129668 0.82150461089500004 82.029841266681998  3.9024664321409999 0.88106992245000004 82.117965477401995  3.8911509163760001 0.92869060101599998 82.211415740345998  3.882184780962 0.96436140703200002 82.308660734550998  3.8760508434849998 0.98812025596999997 82.408356976131003  3.872983346207 1 82.509263915458007  3.872983346207 1 82.711082195074994  3.8760508434849998 0.98812025596999997 82.811989134401998  3.882184780962 0.96436140703200002 82.911685375980994  3.8911509163760001 0.92869060101599998 83.008930370187002  3.9024664321409999 0.88106992244899995 83.102380633131006  3.915407129668 0.82150461089500004 83.190504843851002  3.9431433380669998 0.67622399949400003 83.355293350649006  3.958225098002 0.58842465057600002 83.432860041015999  3.9730238980279999 0.48748418377699998 83.500101875593998  3.985875469961 0.37530845429600002 83.553670533063993  3.99520072321 0.254528620032 83.590976998190996  4 0.128272584611 83.610173055266003  4 1.2e-16 83.610173055266003 
 0 8 0.254335060296 6 0.50002962047900001 6 0.74572418066199997 6 1 8
1 4 -9.7999999999999995e-16 74.610173055266003 0 0 1 
2 0 0 74.610173055266003 0 0 1 1 0 -0 -0 1 0 4
7 0 0  7 26 5  4 -4.4e-16 83.610173055266003  4 -0.128311151746 83.610173055266003  3.9951978373500001 -0.25457271407799997 83.590965451730995  3.985871337481 -0.37533530707399998 83.553654037048005  3.9730224047939999 -0.48748615172300003 83.500093200552001  3.958227410758 -0.58840845160499999 83.432868140595005  3.9431466245009998 -0.67620678534900003 83.355312876263994  3.9154069753749998 -0.82150541907200003 83.190503927153998  3.9024663238769999 -0.88107026272800004 83.102379808069998  3.8911509548710002 -0.92869045473 83.008930201755007  3.8821848748750001 -0.96436109131400005 82.911685988220995  3.8760508790169999 -0.98812004446900004 82.811990215286002  3.872983346207 -1 82.711083092858999  3.872983346207 -1 82.509263915458007  3.8760508434849998 -0.98812025596999997 82.408356976131003  3.882184780962 -0.96436140703200002 82.308660734550998  3.8911509163760001 -0.92869060101599998 82.211415740345998  3.9024664321409999 -0.88106992245000004 82.117965477401995  3.915407129668 -0.82150461089500004 82.029841266681998  3.9431431611629999 -0.67622492610499996 81.865053810917999  3.9582246105690002 -0.58842739052000004 81.787488623952996  3.9730234187960001 -0.48748789973899997 81.720246093255994  3.9858754235829998 -0.37531070590900001 81.666675627865999  3.9952009430589999 -0.25452780268699998 81.629368299188997  4 -0.12826983605100001 81.610173055266003  4 0 81.610173055266003 
 0 8 0.25433485584499999 6 0.50003199979000001 6 0.745726957799 6 1 8
7 0 1  7 49 9  -4 4.4e-16 83.610173055266003  -4 -0.128311151746 83.610173055266003  -3.9951978373500001 -0.25457271407799997 83.590965451730995  -3.985871337481 -0.37533530707399998 83.553654037048005  -3.9730224047939999 -0.48748615172199999 83.500093200552996  -3.958227410758 -0.58840845160599997 83.432868140595005  -3.9431466245009998 -0.67620678534900003 83.355312876263994  -3.9154069753749998 -0.82150541907200003 83.190503927153998  -3.9024663238769999 -0.88107026272800004 83.102379808069003  -3.8911509548710002 -0.92869045473 83.008930201755007  -3.8821848748750001 -0.96436109131400005 82.911685988220995  -3.8760508790169999 -0.98812004446900004 82.811990215286002  -3.872983346207 -1 82.711083092858999  -3.872983346207 -1 82.509263915458007  -3.8760508434849998 -0.98812025596999997 82.408356976131003  -3.882184780962 -0.96436140703200002 82.308660734550998  -3.8911509163760001 -0.92869060101599998 82.211415740345998  -3.9024664321409999 -0.88106992245000004 82.117965477401995  -3.915407129668 -0.82150461089500004 82.029841266681998  -3.9431431611629999 -0.67622492610499996 81.865053810917999  -3.9582246105690002 -0.58842739052000004 81.787488623952996  -3.9730234187960001 -0.48748789973899997 81.720246093255994  -3.9858754235829998 -0.37531070590799998 81.666675627865004  -3.9952009430589999 -0.25452780268800002 81.629368299188997  -4 -0.12826983605 81.610173055266003  -4 0.128311151746 81.610173055266003  -3.9951978373500001 0.254572714077 81.629380658802006  -3.985871337481 0.37533530707500001 81.666692073484995  -3.9730224047939999 0.48748615172199999 81.720252909980005  -3.958227410758 0.58840845160599997 81.787477969937996  -3.9431466245009998 0.67620678534900003 81.865033234269006  -3.915407129668 0.82150461089500004 82.029841266681998  -3.9024664321409999 0.88106992244899995 82.117965477401995  -3.8911509163760001 0.92869060101599998 82.211415740345998  -3.882184780962 0.96436140703200002 82.308660734550998  -3.8760508434849998 0.98812025596999997 82.408356976131003  -3.872983346207 1 82.509263915458007  -3.872983346207 1 82.711082195074994  -3.8760508434849998 0.98812025596999997 82.811989134401998  -3.882184780962 0.96436140703200002 82.911685375980994  -3.8911509163760001 0.92869060101599998 83.008930370187002  -3.9024664321409999 0.88106992245000004 83.102380633131006  -3.915407129668 0.82150461089500004 83.190504843851002  -3.9431433380669998 0.67622399949400003 83.355293350649006  -3.958225098002 0.58842465057600002 83.432860041015999  -3.9730238980279999 0.48748418377699998 83.500101875593998  -3.985875469961 0.37530845429499998 83.553670533063993  -3.99520072321 0.25452862003299997 83.590976998190996  -4 0.128272584611 83.610173055266003 
 0 7 0.12716245731699999 6 0.25000622749599999 6 0.37284890474900001 6 0.49998045645200001 6 0.62715295720899999 6 0.75000503904399995 6 0.87285712088 6 1 7
1 -6 2.4e-16 83.610173055266003 1 0 0 
7 0 0  6 47 10  1.5 0 83.610173055266003  1.5 -0.074899081900080003 83.610173055266003  1.495511979717 -0.14952930123399999 83.603441230460007  1.4865971704159999 -0.22288895042500001 83.5900680588  1.473612370268 -0.29399327747699999 83.570404354578002  1.457210028904 -0.36192888177499999 83.545057737503996  1.416828338692 -0.49829199658599999 83.480864723235001  1.3920769232279999 -0.56582130427400001 83.440588355470993  1.3649603372270001 -0.628240951672 83.394922604537996  1.3364404322650001 -0.68538330084099996 83.344542155301994  1.3075106755279999 -0.73712330695399997 83.290006409336996  1.2563463898830001 -0.82067789517300005 83.184715247118007  1.233836423504 -0.85449914792500004 83.135124711445997  1.2122494099050001 -0.88468005643299996 83.083247082693006  1.1921803938560001 -0.91110518235600002 83.029291137618998  1.174250325362 -0.93365380619600002 82.973429279639006  1.1545210719850001 -0.95767011446399997 82.898606187134007  1.1502353737169999 -0.96282277578700004 82.881274262713006  1.1462117255569999 -0.96760710216900003 82.863802698933995  1.142465844562 -0.97201789106500003 82.846200800898004  1.1390125242789999 -0.97605004180199995 82.828479096940995  1.1300818130720001 -0.986404336903 82.777879156720999  1.1253290581219999 -0.99181847122900002 82.744723798460001  1.1216992083299999 -0.99590247019300004 82.711282951883007  1.119256232146 -0.99863332008500005 82.677651812028003  1.1180339887499999 -1 82.643920428873997  1.1180339887499999 -1 82.558179808478002  1.1209354339469999 -0.99675606210099998 82.506296309236006  1.126715608309 -0.990293738516 82.454783477060005  1.135197315423 -0.980668594369 82.403913743800999  1.1460483043980001 -0.96797641287900005 82.354000339164998  1.1738780649480001 -0.93411570954300005 82.248180892652996  1.1916262281379999 -0.91181346866799995 82.192699484711994  1.211492393069 -0.88568917966299998 82.139092088618995  1.2328691989260001 -0.85586164856500002 82.087527880029  1.2551734888370001 -0.82244483829100001 82.038211463325993  1.30648787507 -0.73897121351200001 81.932244866627002  1.335808896406 -0.68670870486400004 81.876885656107007  1.3647281802539999 -0.62890135899900002 81.825779500438003  1.392213002861 -0.56567856871599997 81.779506008577002  1.4172641127400001 -0.49721429693399999 81.738766040140007  1.4576628813070001 -0.36004695877600001 81.674588748939001  1.4738989485109999 -0.29241920984300002 81.649507784609995  1.4867449589670001 -0.22167052440500001 81.630056341430006  1.4955617662780001 -0.14870156165000001 81.616830207210995  1.5 -0.074482508640670006 81.610173055266003  1.5 -2.2e-16 81.610173055266003 
 0 7 0.13081500431400001 5 0.27877462334899999 5 0.39839912103300001 5 0.43406343898600003 5 0.49961262741500001 5 0.60060167534599995 5 0.71954413936100003 5 0.86968025668799998 5 1 7
7 0 0  6 47 10  1.5 -6.0000000000000001e-17 81.610173055266003  1.5 0.074899081900080003 81.610173055266003  1.495511979717 0.14952930123399999 81.616904880072994  1.4865971704159999 0.22288895042500001 81.630278051733001  1.473612370268 0.29399327747699999 81.649941755954998  1.457210028904 0.36192888177499999 81.675288373029005  1.416828338692 0.49829199658599999 81.739481387298  1.3920769232279999 0.56582130427400001 81.779757755061993  1.3649603372270001 0.628240951672 81.825423505995005  1.3364404322650001 0.68538330084099996 81.875803955231007  1.3075106755279999 0.73712330695399997 81.930339701196004  1.2563463898830001 0.82067789517300005 82.035630863414994  1.233836423504 0.85449914792500004 82.085221399087004  1.2122494099050001 0.88468005643299996 82.137099027839994  1.1921803938560001 0.91110518235600002 82.191054972912994  1.174250325362 0.93365380619600002 82.246916830893994  1.1545210719850001 0.95767011446399997 82.321739923398994  1.1502353737169999 0.96282277578700004 82.339071847819  1.1462117255569999 0.96760710216900003 82.356543411599006  1.142465844562 0.97201789106500003 82.374145309634997  1.1390125242789999 0.97605004180199995 82.391867013592005  1.1300818130720001 0.986404336903 82.442466953812001  1.1253290581219999 0.99181847122900002 82.475622312073  1.1216992083299999 0.99590247019300004 82.509063158649994  1.119256232146 0.99863332008500005 82.542694298504998  1.1180339887499999 1 82.576425681659003  1.1180339887499999 1 82.662166302054999  1.1209354339469999 0.99675606210099998 82.714049801296994  1.126715608309 0.990293738516 82.765562633472001  1.135197315424 0.980668594369 82.816432366732002  1.1460483043980001 0.96797641287900005 82.866345771368003  1.1738780649480001 0.93411570954300005 82.972165217880004  1.1916262281379999 0.91181346866799995 83.027646625821006  1.211492393069 0.88568917966299998 83.081254021914006  1.2328691989260001 0.85586164856500002 83.132818230504  1.2551734888370001 0.82244483829100001 83.182134647206993  1.30648787507 0.73897121351200001 83.288101243905999  1.335808896406 0.68670870486400004 83.343460454425994  1.3647281802539999 0.62890135899900002 83.394566610094998  1.392213002861 0.56567856871599997 83.440840101955999  1.4172641127400001 0.49721429693399999 83.481580070392994  1.4576628813070001 0.36004695877600001 83.545757361593999  1.4738989485109999 0.29241920984300002 83.570838325923006  1.4867449589670001 0.22167052440500001 83.590289769102995  1.4955617662780001 0.14870156165000001 83.603515903322005  1.5 0.074482508640719994 83.610173055266003  1.5 1.2e-16 83.610173055266003 
 0 7 0.13081500431400001 5 0.27877462334899999 5 0.39839912103300001 5 0.43406343898600003 5 0.49961262741500001 5 0.60060167534599995 5 0.71954413936100003 5 0.86968025668799998 5 1 7
2 0 0 74.610173055266003 0 0 1 1 0 -0 -0 1 0 1.5
2 0 0 84.610173055266003 0 0 1 1 0 -0 -0 1 0 7
7 0 1  6 91 19  -1.5 2.2e-16 83.610173055266003  -1.5 -0.074899081908539999 83.610173055266003  -1.4955119797159999 -0.14952930123200001 83.603441230458003  -1.486597170417 -0.22288895041599999 83.590068058802004  -1.473612370269 -0.29399327747499998 83.570404354580006  -1.4572100289009999 -0.361928881782 83.545057737500002  -1.416828338692 -0.49829199658599999 83.480864723235001  -1.3920769232279999 -0.56582130427400001 83.440588355470993  -1.3649603372270001 -0.628240951672 83.394922604537996  -1.3364404322650001 -0.68538330084099996 83.344542155301994  -1.3075106755279999 -0.73712330695399997 83.290006409336996  -1.2563463898830001 -0.82067789517300005 83.184715247118007  -1.233836423504 -0.85449914792500004 83.135124711445997  -1.2122494099050001 -0.88468005643299996 83.083247082693006  -1.1921803938560001 -0.91110518235600002 83.029291137620007  -1.174250325362 -0.93365380619600002 82.973429279639006  -1.1545210719850001 -0.95767011446399997 82.898606187134007  -1.1502353737169999 -0.96282277578700004 82.881274262713006  -1.1462117255569999 -0.96760710216900003 82.863802698933995  -1.142465844562 -0.97201789106500003 82.846200800898004  -1.1390125242789999 -0.97605004180199995 82.828479096940995  -1.1300818130720001 -0.986404336903 82.777879156720999  -1.1253290581219999 -0.99181847122900002 82.744723798460001  -1.1216992083299999 -0.99590247019300004 82.711282951883007  -1.119256232146 -0.99863332008500005 82.677651812028003  -1.1180339887499999 -1 82.643920428873997  -1.1180339887499999 -1 82.558179808478002  -1.1209354339469999 -0.99675606210099998 82.506296309236006  -1.126715608309 -0.990293738516 82.454783477061  -1.135197315424 -0.980668594369 82.403913743800999  -1.1460483043980001 -0.96797641287900005 82.354000339164998  -1.1738780649480001 -0.93411570954300005 82.248180892652996  -1.1916262281379999 -0.91181346866799995 82.192699484711994  -1.211492393069 -0.88568917966299998 82.139092088618995  -1.2328691989260001 -0.85586164856500002 82.087527880029  -1.2551734888370001 -0.82244483829100001 82.038211463325993  -1.30648787507 -0.73897121351200001 81.932244866627002  -1.335808896406 -0.68670870486400004 81.876885656107007  -1.3647281802539999 -0.62890135899900002 81.825779500438003  -1.392213002861 -0.56567856871599997 81.779506008577002  -1.4172641127400001 -0.49721429693399999 81.738766040140007  -1.4576628813070001 -0.36004695877600001 81.674588748939001  -1.4738989485109999 -0.29241920984300002 81.649507784609995  -1.4867449589670001 -0.22167052440500001 81.630056341430006  -1.4955617662780001 -0.14870156165000001 81.616830207210995  -1.5 -0.07448250864066 81.610173055266003  -1.5 0.074899081899999997 81.610173055266003  -1.495511979717 0.14952930123399999 81.616904880072994  -1.4865971704159999 0.222888950424 81.630278051733001  -1.473612370268 0.29399327747699999 81.649941755954998  -1.457210028904 0.36192888177499999 81.675288373029005  -1.416828338692 0.49829199658599999 81.739481387298  -1.3920769232279999 0.56582130427400001 81.779757755061993  -1.3649603372270001 0.628240951672 81.825423505995005  -1.3364404322650001 0.68538330084099996 81.875803955231007  -1.3075106755279999 0.73712330695399997 81.930339701196004  -1.2563463898830001 0.82067789517300005 82.035630863414994  -1.233836423504 0.85449914792500004 82.085221399087004  -1.2122494099050001 0.88468005643299996 82.137099027839994  -1.1921803938560001 0.91110518235600002 82.191054972914003  -1.174250325362 0.93365380619600002 82.246916830893994  -1.1545210719850001 0.95767011446399997 82.321739923398994  -1.1502353737169999 0.96282277578700004 82.339071847819  -1.1462117255569999 0.96760710216900003 82.356543411599006  -1.142465844562 0.97201789106500003 82.374145309634997  -1.1390125242789999 0.97605004180199995 82.391867013592005  -1.1300818130720001 0.986404336903 82.442466953812001  -1.1253290581219999 0.99181847122900002 82.475622312073  -1.1216992083299999 0.99590247019300004 82.509063158649994  -1.119256232146 0.99863332008500005 82.542694298504998  -1.1180339887499999 1 82.576425681659003  -1.1180339887499999 1 82.662166302054999  -1.1209354339469999 0.99675606210099998 82.714049801296994  -1.126715608309 0.990293738516 82.765562633472001  -1.135197315424 0.980668594369 82.816432366732002  -1.1460483043980001 0.96797641287900005 82.866345771368003  -1.1738780649480001 0.93411570954300005 82.972165217880004  -1.1916262281379999 0.91181346866799995 83.027646625821006  -1.211492393069 0.88568917966299998 83.081254021914006  -1.2328691989260001 0.85586164856500002 83.132818230504  -1.2551734888370001 0.82244483829100001 83.182134647206993  -1.30648787507 0.73897121351200001 83.288101243905999  -1.335808896406 0.68670870486400004 83.343460454425994  -1.3647281802539999 0.62890135899900002 83.394566610094998  -1.392213002861 0.56567856871599997 83.440840101955999  -1.4172641127400001 0.49721429693399999 83.481580070391999  -1.4576628813070001 0.36004695877600001 83.545757361593999  -1.4738989485109999 0.29241920984300002 83.570838325923006  -1.4867449589670001 0.22167052440500001 83.590289769102995  -1.4955617662780001 0.14870156165000001 83.603515903322005  -1.5 0.074482508640810005 83.610173055266003 
 0 6 0.065349153160029996 5 0.13926296647 5 0.199021857759 5 0.21683810895 5 0.249583465473 5 0.300032944079 5 0.35945112274899998 5 0.434452214394 5 0.49955395796800001 5 0.56501980911600003 5 0.63906561484299995 5 0.69893122123899998 5 0.71677928800000001 5 0.74958311990799997 5 0.80012268923300001 5 0.85964697457899997 5 0.934782000261 5 1 6
1 -6 2.4e-16 83.610173055266003 1 0 0 
1 1.5 -3.7e-16 73.610173055266003 0 0 1 
2 0 0 83.610173055266003 0 0 1 1 0 -0 -0 1 0 1.5
2 0 0 83.610173055266003 0 0 1 1 0 -0 -0 1 0 1.5
2 0 0 86.610173055266003 0 0 1 1 0 -0 -0 1 0 7
1 7 -1.71e-15 84.610173055266003 0 0 1 
Polygon3D 0
PolygonOnTriangulations 0
Surfaces 9
2 0 0 74.610173055266003 0 0 1 1 0 -0 -0 1 0 4
1 0 0 84.610173055266003 0 0 1 1 0 -0 -0 1 0 
2 -6 0 82.610173055266003 1 0 0 0 0 1 0 -1 0 1
1 0 0 74.610173055266003 0 0 1 1 0 -0 -0 1 0 
2 -6 0 82.610173055266003 1 0 0 0 0 1 0 -1 0 1
2 0 0 73.610173055266003 0 0 1 1 0 -0 -0 1 0 1.5
2 0 0 84.610173055266003 0 0 1 1 0 -0 -0 1 0 7
1 0 0 83.610173055266003 0 0 1 1 0 -0 -0 1 0 
1 0 0 86.610173055266003 0 0 1 1 0 -0 -0 1 0 
Triangulations 0

TShapes 54
Ve
1e-07
4 0 83.610173055266
0 0

0101101
*
Ve
1e-07
4 -1e-15 84.610173055266
0 0

0101101
*
Ed
 1e-07 1 1 0
1  1 0 9 10
3  1 2CN 1 0 9 10
0

0101000
+54 0 -53 0 *
Ed
 1e-07 1 1 0
1  2 0 0 6.28318530717959
2  3 1 0 0 6.28318530717959
4 C0 1 0 2 0
0

0101100
+53 0 -53 0 *
Ve
1e-07
4 -1e-15 81.610173055266
0 0

0101101
*
Ed
 1e-07 1 1 0
1  3 0 0 1
2  4 1 0 0 1
2  5 3 0 0 1
4 C0 1 0 3 0
0

0101000
+50 0 -54 0 *
Ve
1e-07
4 -1e-15 74.610173055266
0 0

0101101
*
Ed
 1e-07 1 1 0
1  4 0 0 7
3  6 7CN 1 0 0 7
0

0101000
+48 0 -50 0 *
Ed
 1e-07 1 1 0
1  5 0 0 6.28318530717959
2  8 1 0 0 6.28318530717959
4 C0 1 0 4 0
0

0101100
+48 0 -48 0 *
Ed
 1e-07 1 1 0
1  6 0 0 1
2  9 1 0 0 1
2  10 3 0 0 1
4 C0 1 0 3 0
0

0101000
+54 0 -50 0 *
Wi

0101100
+52 0 -51 0 -52 0 -49 0 -47 0 +46 0 +47 0 -45 0 *
Ve
1e-07
-4 0 83.610173055266
0 0

0101101
*
Ed
 1e-07 1 1 0
1  7 0 0 1
2  11 1 0 0 1
2  12 5 0 0 1
4 C0 1 0 5 0
0

0101100
+43 0 -43 0 *
Wi

0101100
+42 0 *
Fa
0  1e-07 1 0

0111000
+44 0 +41 0 *
Ve
1e-07
1.5 0 83.610173055266
0 0

0101101
*
Ed
 1e-07 1 1 0
1  8 0 7.5 10
3  13 14CN 3 0 7.5 10
0

0101000
+39 0 -54 0 *
Ve
1e-07
1.5 0 81.610173055266
0 0

0101101
*
Ed
 1e-07 1 1 0
1  9 0 0 1
2  15 3 0 0 1
2  16 6 0 0 1
4 C0 3 0 6 0
0

0101000
+39 0 -37 0 *
Ed
 1e-07 1 1 0
1  10 0 0 1
2  17 3 0 0 1
2  18 6 0 0 1
4 C0 3 0 6 0
0

0101000
+37 0 -39 0 *
Wi

0101100
-45 0 -38 0 +36 0 +35 0 +38 0 -49 0 *
Fa
0  1e-07 3 0

0111000
+34 0 *
Wi

0101100
+46 0 *
Ve
1e-07
1.5 0 74.610173055266
0 0

0101101
*
Ed
 1e-07 1 1 0
1  11 0 0 6.28318530717959
2  19 6 0 0 6.28318530717959
4 C0 4 0 6 0
0

0101100
+31 0 -31 0 *
Wi

0101100
-30 0 *
Fa
0  1e-07 4 0

0111000
+32 0 +29 0 *
Ve
1e-07
7 -2e-15 84.610173055266
0 0

0101101
*
Ed
 1e-07 1 1 0
1  12 0 0 6.28318530717959
2  20 7 0 0 6.28318530717959
4 C0 2 0 7 0
0

0101100
+27 0 -27 0 *
Wi

0101100
+26 0 *
Wi

0101100
-51 0 *
Fa
0  1e-07 2 0

0111000
+25 0 +24 0 *
Ve
1e-07
-1.5 1.9e-14 83.610173055266
0 0

0101101
*
Ed
 1e-07 1 1 0
1  13 0 0 1
2  21 5 0 0 1
2  22 6 0 0 1
4 C0 5 0 6 0
0

0101100
+22 0 -22 0 *
Ed
 1e-07 1 1 0
1  14 0 2 4.5
3  23 24CN 5 0 2 4.5
0

0101000
+43 0 -22 0 *
Wi

0101100
-21 0 -20 0 +42 0 +20 0 *
Fa
0  1e-07 5 0

0111000
+19 0 *
Ed
 1e-07 1 1 0
1  15 0 1 8
3  25 26CN 6 0 1 8
0

0101000
+31 0 -37 0 *
Ed
 1e-07 1 1 0
1  16 0 3.14159265358979 6.28318530717959
2  27 6 0 3.14159265358979 6.28318530717959
4 C0 6 0 8 0
0

0101000
+22 0 -39 0 *
Ed
 1e-07 1 1 0
1  17 0 0 3.14159265358979
2  28 6 0 0 3.14159265358979
4 C0 6 0 8 0
0

0101000
+39 0 -22 0 *
Wi

0101100
+30 0 +17 0 -36 0 -16 0 -15 0 -35 0 -17 0 *
Wi

0101100
+21 0 *
Fa
0  1e-07 6 0

0111000
+14 0 +13 0 *
Ve
1e-07
7 -2e-15 86.610173055266
0 0

0101101
*
Ed
 1e-07 1 1 0
1  18 0 0 6.28318530717959
2  29 7 0 0 6.28318530717959
4 C0 7 0 9 0
0

0101100
+11 0 -11 0 *
Ed
 1e-07 1 1 0
1  19 0 0 2
3  30 31CN 7 0 0 2
0

0101000
+27 0 -11 0 *
Wi

0101100
-10 0 -9 0 +26 0 +9 0 *
Fa
0  1e-07 7 0

0111000
+8 0 *
Wi

0101100
+10 0 *
Fa
0  1e-07 9 0

0111000
+6 0 *
Wi

0101100
-15 0 -16 0 *
Fa
0  1e-07 8 0

0111000
-4 0 *
Sh

0101100
+40 0 -33 0 -28 0 -23 0 -18 0 -12 0 +7 0 +5 0 -3 0 *
So

0100000
+2 0 *

+1 0 