DBRep_DrawableShape

CASCADE Topology V1, (c) Matra-Datavision
Locations 0
Curve2ds 16
1 0 15.999999999998927 1 0 
1 0 0 1 0 
1 6.2831853071795862 0 0 1 
1 0 0 0 1 
1 0 0 1 0 
1 0 12.794139283281705 1 0 
1 0 0 1 0 
1 6.2831853071795862 0 0 1 
1 0 0 0 1 
1 0 40.000000000000149 1 0 
1 6.2831853071795862 0 0 1 
1 0 0 0 1 
1 0 37.000000000001059 1 0 
1 6.2831853071795862 0 0 1 
1 0 0 0 1 
1 0 0 1 0 
Curves 10
2 28 19.463203435596 19.463203435596 -0 0.70710678118654757 0.70710678118654757 1 0 0 0 0.70710678118654757 -0.70710678118654757 5
1 33 8.1494949366119993 8.1494949366119993 0 0.70710678118654757 0.70710678118654757 
2 28 8.1494949366119993 8.1494949366119993 -0 0.70710678118654757 0.70710678118654757 1 0 0 0 0.70710678118654757 -0.70710678118654757 5
2 28 23.705844122716002 23.705844122716002 -0 0.70710678118654757 0.70710678118654757 1 0 0 0 0.70710678118654757 -0.70710678118654757 16.300000000000001
1 33 19.463203435596 19.463203435596 0.88321689719032981 0.33160813659912386 0.33160813659912386 
2 28 51.990115370178003 51.990115370178003 -0 0.70710678118654757 0.70710678118654757 1 0 0 0 0.70710678118654757 -0.70710678118654757 16.300000000000001
1 44.299999999999997 23.705844122716002 23.705844122716002 0 0.70710678118654757 0.70710678118654757 
2 28 51.990115370178003 51.990115370178003 -0 0.70710678118654757 0.70710678118654757 1 0 0 0 0.70710678118654757 -0.70710678118654757 13
1 41 25.827164466275001 25.827164466275001 0 0.70710678118654757 0.70710678118654757 
2 28 25.827164466275001 25.827164466275001 -0 0.70710678118654757 0.70710678118654757 1 0 0 0 0.70710678118654757 -0.70710678118654757 13
Polygon3D 0
PolygonOnTriangulations 0
Surfaces 7
2 28 8.1494949366119993 8.1494949366119993 0 0.70710678118654757 0.70710678118654757 1 0 -0 -0 0.70710678118654757 -0.70710678118654757 5
3 28 19.463203435596 19.463203435596 0 0.70710678118654757 0.70710678118654757 1 0 -0 -0 0.70710678118654757 -0.70710678118654757 5
1.0826780789279999
1 28 8.1494949366119993 8.1494949366119993 0 0.70710678118654757 0.70710678118654757 1 0 -0 -0 0.70710678118654757 -0.70710678118654757 
2 28 23.705844122716002 23.705844122716002 0 0.70710678118654757 0.70710678118654757 1 0 -0 -0 0.70710678118654757 -0.70710678118654757 16.300000000000001
1 28 51.990115370178003 51.990115370178003 0 0.70710678118654757 0.70710678118654757 1 0 -0 -0 0.70710678118654757 -0.70710678118654757 
2 28 25.827164466275001 25.827164466275001 0 0.70710678118654757 0.70710678118654757 1 0 -0 -0 0.70710678118654757 -0.70710678118654757 13
1 28 25.827164466275001 25.827164466275001 0 0.70710678118654757 0.70710678118654757 1 0 -0 -0 0.70710678118654757 -0.70710678118654757 
Triangulations 0

TShapes 33
Ve
1e-07
33 19.463203435596 19.463203435596
0 0

0101101
*
Ed
 1e-07 1 1 0
1  1 0 0 6.28318530717959
2  1 1 0 0 6.28318530717959
2  2 2 0 0 6.28318530717959
4 C0 1 0 2 0
0

0101100
+33 0 -33 0 *
Ve
1e-07
33 8.149494936612 8.149494936612
0 0

0101101
*
Ed
 1e-07 1 1 0
1  2 0 0 15.9999999999989
3  3 4CN 1 0 0 15.9999999999989
0

0101000
+31 0 -33 0 *
Ed
 1e-07 1 1 0
1  3 0 0 6.28318530717959
2  5 1 0 0 6.28318530717959
4 C0 1 0 3 0
0

0101100
+31 0 -31 0 *
Wi

0101100
-32 0 -30 0 +29 0 +30 0 *
Fa
0  1e-07 1 0

0111000
+28 0 *
Ve
1e-07
44.3 23.705844122716 23.705844122716
0 0

0101101
*
Ed
 1e-07 1 1 0
1  4 0 0 6.28318530717959
2  6 2 0 0 6.28318530717959
2  7 4 0 0 6.28318530717959
4 C0 2 0 4 0
0

0101100
+26 0 -26 0 *
Ed
 1e-07 1 1 0
1  5 0 0 12.7941392832817
3  8 9CN 2 0 0 12.7941392832817
0

0101000
+33 0 -26 0 *
Wi

0101100
-25 0 -24 0 +32 0 +24 0 *
Fa
0  1e-07 2 0

0111000
+23 0 *
Wi

0101100
-29 0 *
Fa
0  1e-07 3 0

0111000
-21 0 *
Ve
1e-07
44.3 51.990115370178 51.990115370178
0 0

0101101
*
Ed
 1e-07 1 1 0
1  6 0 0 6.28318530717959
2  10 4 0 0 6.28318530717959
4 C0 4 0 5 0
0

0101100
+19 0 -19 0 *
Ed
 1e-07 1 1 0
1  7 0 0 40.0000000000001
3  11 12CN 4 0 0 40.0000000000001
0

0101000
+26 0 -19 0 *
Wi

0101100
-18 0 -17 0 +25 0 +17 0 *
Fa
0  1e-07 4 0

0111000
+16 0 *
Wi

0101100
+18 0 *
Ve
1e-07
41 51.990115370178 51.990115370178
0 0

0101101
*
Ed
 1e-07 1 1 0
1  8 0 0 6.28318530717959
2  13 6 0 0 6.28318530717959
4 C0 5 0 6 0
0

0101100
+13 0 -13 0 *
Wi

0101100
-12 0 *
Fa
0  1e-07 5 0

0111000
+14 0 +11 0 *
Ve
1e-07
41 25.827164466275 25.827164466275
0 0

0101101
*
Ed
 1e-07 1 1 0
1  9 0 0 37.0000000000011
3  14 15CN 6 0 0 37.0000000000011
0

0101000
+9 0 -13 0 *
Ed
 1e-07 1 1 0
1  10 0 0 6.28318530717959
2  16 6 0 0 6.28318530717959
4 C0 6 0 7 0
0

0101100
+9 0 -9 0 *
Wi

0101100
-12 0 -8 0 +7 0 +8 0 *
Fa
0  1e-07 6 0

0111000
+6 0 *
Wi

0101100
-7 0 *
Fa
0  1e-07 7 0

0111000
-4 0 *
Sh

0101100
+27 0 +22 0 -20 0 +15 0 +10 0 -5 0 +3 0 *
So

0100000
+2 0 *

+1 0 