DBRep_DrawableShape

CASCADE Topology V1, (c) Matra-Datavision
Locations 0
Curve2ds 8
1 0 20 1 0 
1 6.2831853071795862 0 0 1 
1 0 0 0 1 
1 0 0 1 0 
1 0 0 1 0 
1 0 24 1 0 
1 6.2831853071795862 0 0 1 
1 0 0 0 1 
Curves 24
2 0 0 87 0 0 1 1 0 -0 -0 1 0 5.5
1 5.5 -1.35e-15 67 0 0 1 
2 0 0 67 0 0 1 1 0 -0 -0 1 0 5.5
2 0 0 87 0 0 1 1 0 -0 -0 1 0 6.3499999999999996
2 0 0 111 0 0 1 1 0 -0 -0 1 0 6.3499999999999996
1 6.3499999999999996 -1.5599999999999999e-15 87 0 0 1 
1 12.124355652982 0 111 -0.50000000000018996 0.86602540378432902 0 
1 6.0621778264910002 10.5 111 -1 1.5e-16 0 
1 -6.0621778264910002 10.5 111 -0.50000000000018996 -0.86602540378432902 0 
1 -12.12435565298 1.48e-15 111 0.50000000000018996 -0.86602540378432902 0 
1 -6.0621778264910002 -10.5 111 1 -1.5e-16 0 
1 6.0621778264910002 -10.5 111 0.50000000000018996 0.86602540378432902 0 
1 12.124355652982 0 111 0 0 1 
1 12.124355652982 0 116 -0.50000000000018996 0.86602540378432902 0 
1 6.0621778264910002 10.5 111 0 0 1 
1 6.0621778264910002 -10.5 111 0 0 1 
1 6.0621778264910002 -10.5 116 0.50000000000018996 0.86602540378432902 0 
1 6.0621778264910002 10.5 116 -1 1.5e-16 0 
1 -6.0621778264910002 10.5 111 0 0 1 
1 -6.0621778264910002 -10.5 111 0 0 1 
1 -6.0621778264910002 -10.5 116 1 -1.5e-16 0 
1 -6.0621778264910002 10.5 116 -0.50000000000018996 -0.86602540378432902 0 
1 -12.12435565298 1.48e-15 111 0 0 1 
1 -12.12435565298 1.48e-15 116 0.50000000000018996 -0.86602540378432902 0 
Polygon3D 0
PolygonOnTriangulations 0
Surfaces 12
2 0 0 67 0 0 1 1 0 -0 -0 1 0 5.5
1 0 0 87 0 0 1 1 0 -0 -0 1 0 
1 0 0 67 0 0 1 1 0 -0 -0 1 0 
2 0 0 87 0 0 1 1 0 -0 -0 1 0 6.3499999999999996
1 2e-16 2e-16 111 0 0 1 1 0 -0 -0 1 0 
1 12.124355652982 0 111 -0.86602540378432902 -0.50000000000018996 0 -0.50000000000018996 0.86602540378432902 0 -0 0 -1 
1 6.0621778264910002 10.5 111 -1.5e-16 -1 0 -1 1.5e-16 0 -0 0 -1 
1 -6.0621778264910002 10.5 111 0.86602540378432902 -0.50000000000018996 0 -0.50000000000018996 -0.86602540378432902 0 0 -0 -1 
1 -12.12435565298 1.48e-15 111 0.86602540378432902 0.50000000000018996 0 0.50000000000018996 -0.86602540378432902 0 0 0 -1 
1 -6.0621778264910002 -10.5 111 1.5e-16 1 0 1 -1.5e-16 0 0 0 -1 
1 6.0621778264910002 -10.5 111 -0.86602540378432902 0.50000000000018996 0 0.50000000000018996 0.86602540378432902 0 0 0 -1 
1 2e-16 2e-16 116 0 0 1 1 0 -0 -0 1 0 
Triangulations 0

TShapes 68
Ve
1e-07
5.5 -1e-15 87
0 0

0101101
*
Ed
 1e-07 1 1 0
1  1 0 0 6.28318530717959
2  1 1 0 0 6.28318530717959
4 C0 1 0 2 0
0

0101100
+68 0 -68 0 *
Ve
1e-07
5.5 -1e-15 67
0 0

0101101
*
Ed
 1e-07 1 1 0
1  2 0 0 20
3  2 3CN 1 0 0 20
0

0101000
+66 0 -68 0 *
Ed
 1e-07 1 1 0
1  3 0 0 6.28318530717959
2  4 1 0 0 6.28318530717959
4 C0 1 0 3 0
0

0101100
+66 0 -66 0 *
Wi

0101100
-67 0 -65 0 +64 0 +65 0 *
Fa
0  1e-07 1 0

0111000
+63 0 *
Ve
1e-07
6.35 -2e-15 87
0 0

0101101
*
Ed
 1e-07 1 1 0
1  4 0 0 6.28318530717959
2  5 4 0 0 6.28318530717959
4 C0 2 0 4 0
0

0101100
+61 0 -61 0 *
Wi

0101100
+60 0 *
Wi

0101100
-67 0 *
Fa
0  1e-07 2 0

0111000
+59 0 +58 0 *
Wi

0101100
-64 0 *
Fa
0  1e-07 3 0

0111000
-56 0 *
Ve
1e-07
6.35 -2e-15 111
0 0

0101101
*
Ed
 1e-07 1 1 0
1  5 0 0 6.28318530717959
2  6 4 0 0 6.28318530717959
4 C0 4 0 5 0
0

0101100
+54 0 -54 0 *
Ed
 1e-07 1 1 0
1  6 0 0 24
3  7 8CN 4 0 0 24
0

0101000
+61 0 -54 0 *
Wi

0101100
-53 0 -52 0 +60 0 +52 0 *
Fa
0  1e-07 4 0

0111000
+51 0 *
Ve
1e-07
12.124355652982 0 111
0 0

0101101
*
Ve
1e-07
6.062177826491 10.5 111
0 0

0101101
*
Ed
 1e-07 1 1 0
1  7 0 0 12.1243556529821
4 C0 5 0 6 0
0

0101000
+49 0 -48 0 *
Ve
1e-07
-6.062177826491 10.5 111
0 0

0101101
*
Ed
 1e-07 1 1 0
1  8 0 0 12.124355652982
4 C0 5 0 7 0
0

0101000
+48 0 -46 0 *
Ve
1e-07
-12.12435565298 1e-15 111
0 0

0101101
*
Ed
 1e-07 1 1 0
1  9 0 0 12.1243556529811
4 C0 5 0 8 0
0

0101000
+46 0 -44 0 *
Ve
1e-07
-6.062177826491 -10.5 111
0 0

0101101
*
Ed
 1e-07 1 1 0
1  10 0 4.15692193816478e-16 12.1243556529811
4 C0 5 0 9 0
0

0101000
+44 0 -42 0 *
Ve
1e-07
6.062177826491 -10.5 111
0 0

0101101
*
Ed
 1e-07 1 1 0
1  11 0 0 12.124355652982
4 C0 5 0 10 0
0

0101000
+42 0 -40 0 *
Ed
 1e-07 1 1 0
1  12 0 0 12.1243556529821
4 C0 5 0 11 0
0

0101000
+40 0 -49 0 *
Wi

0101100
+47 0 +45 0 +43 0 +41 0 +39 0 +38 0 *
Wi

0101100
-53 0 *
Fa
0  1e-07 5 0

0111000
+37 0 +36 0 *
Ve
1e-07
12.124355652982 0 116
0 0

0101101
*
Ed
 1e-07 1 1 0
1  13 0 0 5
4 C0 6 0 11 0
0

0101000
+49 0 -34 0 *
Ve
1e-07
6.062177826491 10.5 116
0 0

0101101
*
Ed
 1e-07 1 1 0
1  14 0 0 12.1243556529821
4 C0 6 0 12 0
0

0101000
+34 0 -32 0 *
Ed
 1e-07 1 1 0
1  15 0 0 5
4 C0 6 0 7 0
0

0101000
+48 0 -32 0 *
Wi

0101100
+33 0 +31 0 -30 0 -47 0 *
Fa
0  1e-07 6 0

0111000
+29 0 *
Ve
1e-07
6.062177826491 -10.5 116
0 0

0101101
*
Ed
 1e-07 1 1 0
1  16 0 0 5
4 C0 11 0 10 0
0

0101000
+40 0 -27 0 *
Ed
 1e-07 1 1 0
1  17 0 0 12.1243556529821
4 C0 11 0 12 0
0

0101000
+27 0 -34 0 *
Wi

0101100
+26 0 +25 0 -33 0 -38 0 *
Fa
0  1e-07 11 0

0111000
+24 0 *
Ve
1e-07
-6.062177826491 10.5 116
0 0

0101101
*
Ed
 1e-07 1 1 0
1  18 0 0 12.124355652982
4 C0 7 0 12 0
0

0101000
+32 0 -22 0 *
Ed
 1e-07 1 1 0
1  19 0 0 5
4 C0 7 0 8 0
0

0101000
+46 0 -22 0 *
Wi

0101100
+30 0 +21 0 -20 0 -45 0 *
Fa
0  1e-07 7 0

0111000
+19 0 *
Ve
1e-07
-6.062177826491 -10.5 116
0 0

0101101
*
Ed
 1e-07 1 1 0
1  20 0 0 5
4 C0 10 0 9 0
0

0101000
+42 0 -17 0 *
Ed
 1e-07 1 1 0
1  21 0 0 12.124355652982
4 C0 10 0 12 0
0

0101000
+17 0 -27 0 *
Wi

0101100
+16 0 +15 0 -26 0 -39 0 *
Fa
0  1e-07 10 0

0111000
+14 0 *
Ve
1e-07
-12.12435565298 1e-15 116
0 0

0101101
*
Ed
 1e-07 1 1 0
1  22 0 0 12.1243556529811
4 C0 8 0 12 0
0

0101000
+22 0 -12 0 *
Ed
 1e-07 1 1 0
1  23 0 0 5
4 C0 8 0 9 0
0

0101000
+44 0 -12 0 *
Wi

0101100
+20 0 +11 0 -10 0 -43 0 *
Fa
0  1e-07 8 0

0111000
+9 0 *
Ed
 1e-07 1 1 0
1  24 0 4.15692193816478e-16 12.1243556529811
4 C0 9 0 12 0
0

0101000
+12 0 -17 0 *
Wi

0101100
+10 0 +7 0 -16 0 -41 0 *
Fa
0  1e-07 9 0

0111000
+6 0 *
Wi

0101100
+31 0 +21 0 +11 0 +7 0 +15 0 +25 0 *
Fa
0  1e-07 12 0

0111000
+4 0 *
Sh

0101100
+62 0 -57 0 -55 0 +50 0 -35 0 -28 0 -23 0 -18 0 -13 0 -8 0 
-5 0 +3 0 *
So

0100000
+2 0 *

+1 0 