
CASCADE Topology V1, (c) Matra-Datavision
Locations 3
1
1.000000000000000 0.000000000000000 0.000000000000000 0.000000000000000 
0.000000000000000 1.000000000000000 0.000000000000000 0.000000000000000 
0.000000000000000 0.000000000000000 1.000000000000000 0.000000000000000 
1
1.000000000000000 0.000000000000000 0.000000000000000 0.000000000000000 
0.000000000000000 1.000000000000000 0.000000000000000 0.000000000000000 
0.000000000000000 0.000000000000000 1.000000000000000 0.000000000000000 
2  2 -1 0
Curve2ds 16
1 0.00000000000000000 0.00000000000000000 1.00000000000000000 0.00000000000000000 
1 0.00000000000000000 54.22899999999999920 1.00000000000000000 0.00000000000000000 
1 6.28318530717958623 0.00000000000000000 0.00000000000000000 1.00000000000000000 
1 0.00000000000000000 0.00000000000000000 0.00000000000000000 1.00000000000000000 
1 0.00000000000000000 0.00000000000000000 1.00000000000000000 0.00000000000000000 
1 0.00000000000000000 9.22899999999999920 1.00000000000000000 0.00000000000000000 
1 6.28318530717958623 0.00000000000000000 0.00000000000000000 1.00000000000000000 
1 0.00000000000000000 0.00000000000000000 0.00000000000000000 1.00000000000000000 
1 0.00000000000000000 0.00000000000000000 1.00000000000000000 0.00000000000000000 
1 0.00000000000000000 42.91610886368894029 1.00000000000000000 0.00000000000000000 
1 6.28318530717958623 0.00000000000000000 0.00000000000000000 1.00000000000000000 
1 0.00000000000000000 0.00000000000000000 0.00000000000000000 1.00000000000000000 
1 0.00000000000000000 0.00000000000000000 1.00000000000000000 0.00000000000000000 
1 0.00000000000000000 3.00000000000000000 1.00000000000000000 0.00000000000000000 
1 6.28318530717958623 0.00000000000000000 0.00000000000000000 1.00000000000000000 
1 0.00000000000000000 0.00000000000000000 0.00000000000000000 1.00000000000000000 
Curves 12
2 0.00000000000000000 0.00000000000000000 0.00000000000000000 1.00000000000000000 0.00000000000000000 0.00000000000000000 -0.00000000000000000 1.00000000000000000 0.00000000000000000 0.00000000000000000 -0.00000000000000000 1.00000000000000000 34.92499999999999716
2 54.22899999999999920 0.00000000000000000 0.00000000000000000 1.00000000000000000 0.00000000000000000 0.00000000000000000 -0.00000000000000000 1.00000000000000000 0.00000000000000000 0.00000000000000000 -0.00000000000000000 1.00000000000000000 34.92499999999999716
1 0.00000000000000000 34.92499999999999716 0.00000000000000000 1.00000000000000000 0.00000000000000000 0.00000000000000000 
2 54.22899999999999920 0.00000000000000000 0.00000000000000000 1.00000000000000000 0.00000000000000000 0.00000000000000000 -0.00000000000000000 1.00000000000000000 0.00000000000000000 0.00000000000000000 -0.00000000000000000 1.00000000000000000 59.00000000000000000
2 45.00000000000000000 0.00000000000000000 0.00000000000000000 1.00000000000000000 0.00000000000000000 0.00000000000000000 -0.00000000000000000 1.00000000000000000 0.00000000000000000 0.00000000000000000 -0.00000000000000000 1.00000000000000000 59.00000000000000000
1 54.22899999999999920 59.00000000000000000 0.00000000000000000 -1.00000000000000000 0.00000000000000000 0.00000000000000000 
2 45.00000000000000000 0.00000000000000000 0.00000000000000000 1.00000000000000000 0.00000000000000000 0.00000000000000000 -0.00000000000000000 1.00000000000000000 0.00000000000000000 0.00000000000000000 -0.00000000000000000 1.00000000000000000 51.44999999999999574
2 3.00000000000000000 0.00000000000000000 0.00000000000000000 1.00000000000000000 0.00000000000000000 0.00000000000000000 -0.00000000000000000 1.00000000000000000 0.00000000000000000 0.00000000000000000 -0.00000000000000000 1.00000000000000000 42.62999999999999545
1 45.00000000000000000 51.44999999999999574 0.00000000000000000 -0.97865349660197065 -0.20551723428641383 0.00000000000000000 
2 3.00000000000000000 0.00000000000000000 0.00000000000000000 1.00000000000000000 0.00000000000000000 0.00000000000000000 -0.00000000000000000 1.00000000000000000 0.00000000000000000 0.00000000000000000 -0.00000000000000000 1.00000000000000000 47.00000000000000000
2 0.00000000000000000 0.00000000000000000 0.00000000000000000 1.00000000000000000 0.00000000000000000 0.00000000000000000 -0.00000000000000000 1.00000000000000000 0.00000000000000000 0.00000000000000000 -0.00000000000000000 1.00000000000000000 47.00000000000000000
1 3.00000000000000000 47.00000000000000000 0.00000000000000000 -1.00000000000000000 0.00000000000000000 0.00000000000000000 
Polygon3D 0
PolygonOnTriangulations 0
Surfaces 8
2 0.00000000000000000 0.00000000000000000 0.00000000000000000 1.00000000000000000 0.00000000000000000 0.00000000000000000 -0.00000000000000000 1.00000000000000000 0.00000000000000000 0.00000000000000000 -0.00000000000000000 1.00000000000000000 34.92499999999999716
1 54.22899999999999920 0.00000000000000000 0.00000000000000000 1.00000000000000000 0.00000000000000000 0.00000000000000000 0.00000000000000000 -1.00000000000000000 0.00000000000000000 -0.00000000000000000 -0.00000000000000000 1.00000000000000000 
2 54.22899999999999920 0.00000000000000000 0.00000000000000000 -1.00000000000000000 -0.00000000000000000 -0.00000000000000000 0.00000000000000000 1.00000000000000000 0.00000000000000000 -0.00000000000000000 -0.00000000000000000 1.00000000000000000 59.00000000000000000
1 45.00000000000000000 0.00000000000000000 0.00000000000000000 1.00000000000000000 0.00000000000000000 0.00000000000000000 -0.00000000000000000 1.00000000000000000 0.00000000000000000 0.00000000000000000 -0.00000000000000000 1.00000000000000000 
3 45.00000000000000000 0.00000000000000000 0.00000000000000000 -1.00000000000000000 -0.00000000000000000 -0.00000000000000000 0.00000000000000000 1.00000000000000000 0.00000000000000000 -0.00000000000000000 -0.00000000000000000 1.00000000000000000 51.44999999999999574
-0.20699219421982104
1 3.00000000000000000 0.00000000000000000 0.00000000000000000 1.00000000000000000 0.00000000000000000 0.00000000000000000 0.00000000000000000 -1.00000000000000000 0.00000000000000000 -0.00000000000000000 -0.00000000000000000 1.00000000000000000 
2 3.00000000000000000 0.00000000000000000 0.00000000000000000 -1.00000000000000000 -0.00000000000000000 -0.00000000000000000 0.00000000000000000 1.00000000000000000 0.00000000000000000 -0.00000000000000000 -0.00000000000000000 1.00000000000000000 47.00000000000000000
1 0.00000000000000000 0.00000000000000000 0.00000000000000000 1.00000000000000000 0.00000000000000000 0.00000000000000000 -0.00000000000000000 1.00000000000000000 0.00000000000000000 0.00000000000000000 -0.00000000000000000 1.00000000000000000 
Triangulations 0

TShapes 42
Ve
0.000000100000000
0.000000000000000 34.924999999999997 0.000000000000000
0 0

0101101
*
Ed
 0.000000100000000 1 1 0
1  1 0 0.000000000000000 6.283185307179586
2  1 1 0 0.000000000000000 6.283185307179586
0

0101000
+42 3 -42 3 *
Ve
0.000000100000000
54.228999999999999 34.924999999999997 0.000000000000000
0 0

0101101
*
Ed
 0.000000100000000 1 1 0
1  2 0 0.000000000000000 6.283185307179586
2  2 1 0 0.000000000000000 6.283185307179586
0

0101000
+40 3 -40 3 *
Ed
 0.000000100000000 1 1 0
1  3 0 0.000000000000000 54.228999999999999
3  3 4CN 1 0 0.000000000000000 54.228999999999999
0

0101000
+42 3 -40 3 *
Wi

0101100
+41 0 -39 0 -38 0 +38 0 *
Fa
0  0.000000100000000 1 0

0111000
+37 0 *
Wi

0101100
+39 0 *
Ve
0.000000100000000
54.228999999999999 59.000000000000000 0.000000000000000
0 0

0101101
*
Ed
 0.000000100000000 1 1 0
1  4 0 0.000000000000000 6.283185307179586
2  5 3 0 0.000000000000000 6.283185307179586
0

0101000
+34 3 -34 3 *
Wi

0101100
-33 0 *
Fa
0  0.000000100000000 2 0

0111000
+35 0 +32 0 *
Ve
0.000000100000000
45.000000000000000 59.000000000000000 0.000000000000000
0 0

0101101
*
Ed
 0.000000100000000 1 1 0
1  5 0 0.000000000000000 6.283185307179586
2  6 3 0 0.000000000000000 6.283185307179586
0

0101000
+30 3 -30 3 *
Ed
 0.000000100000000 1 1 0
1  6 0 0.000000000000000 9.228999999999999
3  7 8CN 3 0 0.000000000000000 9.228999999999999
0

0101000
+34 3 -30 3 *
Wi

0101100
+33 0 -29 0 -28 0 +28 0 *
Fa
0  0.000000100000000 3 0

0111000
+27 0 *
Wi

0101100
+29 0 *
Ve
0.000000100000000
45.000000000000000 51.449999999999996 0.000000000000000
0 0

0101101
*
Ed
 0.000000100000000 1 1 0
1  7 0 0.000000000000000 6.283185307179586
2  9 5 0 0.000000000000000 6.283185307179586
0

0101000
+24 3 -24 3 *
Wi

0101100
-23 0 *
Fa
0  0.000000100000000 4 0

0111000
+25 0 +22 0 *
Ve
0.000000100000000
3.000000000000000 42.629999999999995 0.000000000000000
0 0

0101101
*
Ed
 0.000000100000000 1 1 0
1  8 0 0.000000000000000 6.283185307179586
2  10 5 0 0.000000000000000 6.283185307179586
0

0101000
+20 3 -20 3 *
Ed
 0.000000100000000 1 1 0
1  9 0 0.000000000000000 42.916108863688933
3  11 12CN 5 0 0.000000000000000 42.916108863688933
0

0101000
+24 3 -20 3 *
Wi

0101100
+23 0 -19 0 -18 0 +18 0 *
Fa
0  0.000000100000000 5 0

0111000
+17 0 *
Wi

0101100
+19 0 *
Ve
0.000000100000000
3.000000000000000 47.000000000000000 0.000000000000000
0 0

0101101
*
Ed
 0.000000100000000 1 1 0
1  10 0 0.000000000000000 6.283185307179586
2  13 7 0 0.000000000000000 6.283185307179586
0

0101000
+14 3 -14 3 *
Wi

0101100
-13 0 *
Fa
0  0.000000100000000 6 0

0111000
+15 0 +12 0 *
Ve
0.000000100000000
0.000000000000000 47.000000000000000 0.000000000000000
0 0

0101101
*
Ed
 0.000000100000000 1 1 0
1  11 0 0.000000000000000 6.283185307179586
2  14 7 0 0.000000000000000 6.283185307179586
0

0101000
+10 3 -10 3 *
Ed
 0.000000100000000 1 1 0
1  12 0 0.000000000000000 3.000000000000000
3  15 16CN 7 0 0.000000000000000 3.000000000000000
0

0101000
+14 3 -10 3 *
Wi

0101100
+13 0 -9 0 -8 0 +8 0 *
Fa
0  0.000000100000000 7 0

0111000
+7 0 *
Wi

0101100
+9 0 *
Wi

0101100
-41 0 *
Fa
0  0.000000100000000 8 0

0111000
+5 0 +4 0 *
Sh

0101100
+36 0 +31 0 +26 0 +21 0 +16 0 +11 0 +6 0 +3 0 *
So

1100000
-2 0 *

+1 1 