
CASCADE Topology V1, (c) Matra-Datavision
Locations 5
1
1.000000000000000 0.000000000000000 0.000000000000000 0.000000000000000 
0.000000000000000 1.000000000000000 0.000000000000000 0.000000000000000 
0.000000000000000 0.000000000000000 1.000000000000000 0.000000000000000 
1
1.000000000000000 0.000000000000000 0.000000000000000 0.000000000000000 
0.000000000000000 1.000000000000000 0.000000000000000 0.000000000000000 
0.000000000000000 0.000000000000000 1.000000000000000 0.000000000000000 
1
1.000000000000000 0.000000000000000 0.000000000000000 0.000000000000000 
0.000000000000000 1.000000000000000 0.000000000000000 0.000000000000000 
0.000000000000000 0.000000000000000 1.000000000000000 0.000000000000000 
2  3 -1 2 -1 0
2  3 -1 0
Curve2ds 22
1 0.00000000000000000 39.20800000000002683 1.00000000000000000 0.00000000000000000 
1 0.00000000000000000 0.00000000000000000 1.00000000000000000 0.00000000000000000 
1 6.28318530717958623 0.00000000000000000 0.00000000000000000 1.00000000000000000 
1 0.00000000000000000 0.00000000000000000 0.00000000000000000 1.00000000000000000 
1 0.00000000000000000 0.00000000000000000 1.00000000000000000 0.00000000000000000 
7 0 0  8 51 8  0.71260662539403818 17.18299999999999272  0.71260662539403818 17.64124713694953073  0.71370039404623253 18.09822056614004993  0.71587720173943237 18.55050973109864998  0.71917251697722895 18.99413067862024462  0.72365111680802841 19.42307352392645470  0.72939526601956395 19.82839301444996494  0.73648944266781569 20.19703135853849929  0.75136126769694633 20.74312201414979384  0.75875917258282177 20.95375696047703329  0.76700747945825487 21.11761113240113730  0.77584990953010835 21.21879750492014693  0.78496241386155086 21.24867346801243428  0.79399798031388480 21.20596038114247506  0.80262629799164753 21.09695680800583872  0.81907992473267088 20.76320911018386184  0.82669547947006639 20.53308412454003218  0.83338202375354831 20.26005321421824235  0.83914789862342032 19.95529597018595069  0.84402228109249666 19.62758201254820278  0.84804339289225017 19.28376850474240456  0.85125214352482392 18.92907244056660687  0.85703402258882422 18.06909552586621359  0.85891682326214025 17.55624940323615490  0.85942135938431452 17.03737698179915583  0.85857733733452923 16.51807643951816473  0.85636527209884328 16.00403802388796493  0.85272201863733321 15.50247315497505518  0.84754861211035404 15.02371937972736937  0.83531446163802370 14.23708580455350514  0.82850734085671651 13.89148449124789586  0.82031690272451674 13.58267163637185959  0.81091179042219075 13.33791910750566068  0.80061014594730096 13.17771979498348500  0.78980281458917900 13.11499137528462100  0.77892955836174227 13.15476206352444066  0.76185328058609425 13.38021040086606206  0.75567082346682990 13.50234236618870476  0.74991750241097677 13.65462193479656960  0.74462339345035544 13.83215603940480776  0.73980655902784498 14.03035606819322823  0.73547494068953445 14.24488001612666466  0.73162723297188870 14.47160532624747020  0.72422684019286421 14.98706698659770353  0.72083804568346965 15.28188655225624260  0.71805893692748357 15.58705050896694999  0.71586406083122767 15.89954734315233864  0.71423239185583676 16.21708475890823919  0.71314903091859783 16.53784678563365063  0.71260662539403807 16.86029509881867483  0.71260662539403807 17.18299999999999272 
 0.00000000000000000 9 0.17394729167031164 7 0.30460758939725707 7 0.44448006304358700 7 0.63725608811689338 7 0.79029555146305674 7 0.88590790769821248 7 1.00000000000000000 9
7 0 0  8 51 8  0.00000000000000000 4.85435260760989706  0.11456178423738422 4.85435260760989706  0.22880566207997177 4.85872784564453308  0.34416618681842992 4.86743410495708773  0.46189930073997920 4.88025083575841734  0.58316116007624275 4.89670668033482492  0.70921729128189237 4.91591768492917680  0.84142022081742240 4.93621294384218068  1.08715452368099563 4.96926231702962351  1.20094106305769754 4.98314686117294858  1.31975503913356995 4.99493479908565341  1.44145457053700721 5.00269051483767146  1.56440489021565199 5.00493265057793923  1.68706996761498584 5.00155155580452426  1.80779706880049762 4.99357413597484356  2.04886269313004599 4.97079461251142440  2.16696001605185140 4.95570315780415438  2.27970441204995833 4.93902240846457463  2.38791640531952876 4.92226759466121244  2.49227088603292124 4.90655126462096192  2.59337694297819299 4.89261525240316875  2.69180674598891656 4.88094473131627016  2.92096493626755871 4.85924669594348302  3.05018805136659932 4.85147703927108420  3.17784627835191280 4.84925455017900742  3.30555422179950131 4.85278291415628971  3.43480775775482172 4.86198193739845408  3.56716715230187686 4.87643267309829920  3.70428078339318967 4.89508749152158273  3.96290368049037944 4.93229917553441677  4.08931435249242625 4.95116439902996319  4.22337319156892388 4.97073806193832279  4.36272472041177117 4.98828035056456365  4.50585710894787539 5.00046358686542458  4.65170453723550015 5.00509764628564113  4.79941021717888727 5.00188672523895050  5.04084608638807108 4.98594121372438615  5.13061084010656732 4.97745842874490219  5.21760243343055841 4.96722138891469012  5.30201488708589785 4.95587231696182862  5.38397696859715680 4.94401964391155335  5.46356095265464692 4.93219286501542964  5.54078029829573993 4.92082063793257340  5.70487381267219895 4.89757402295443089  5.79154672830971240 4.88591159555246879  5.87614811961887895 4.87571117236835239  5.95912702925431681 4.86729195158070915  6.04090613095912410 4.86085569671931417  6.12189709188836950 4.85652222183017113  6.20250908188425587 4.85435260760989706  6.28318530717958623 4.85435260760989706 
 0.00000000000000000 9 0.17394729167031164 7 0.30460758939725707 7 0.44448006304358700 7 0.63725608811689338 7 0.79029555146305674 7 0.88590790769821248 7 1.00000000000000000 9
1 0.00000000000000000 1.41421356237309492 1.00000000000000000 0.00000000000000000 
1 0.00000000000000000 0.00000000000000000 1.00000000000000000 0.00000000000000000 
1 6.28318530717958623 0.00000000000000000 0.00000000000000000 1.00000000000000000 
1 0.00000000000000000 0.00000000000000000 0.00000000000000000 1.00000000000000000 
1 0.00000000000000000 1.41421356237309492 1.00000000000000000 0.00000000000000000 
7 0 0  8 51 8  0.00000000000000000 24.39253994857278940  0.11453399633977636 24.39253994857278940  0.22875372116952836 24.39576452720573840  0.34409704368749194 24.40218142996108242  0.46182254290326630 24.41162993580863372  0.58308745393718020 24.42376524312668806  0.70915779777692844 24.43793838109253258  0.84138527880102565 24.45291675944873333  1.08719474915483572 24.47731401479881441  1.20098917532377225 24.48756193694269712  1.31979765777742752 24.49626191312119161  1.44148650753642205 24.50198662146261341  1.56442410292396428 24.50364103642589697  1.68707690863727966 24.50114460850488030  1.80779480329770914 24.49525598789499625  2.02372898384430622 24.48019426938072485  2.11921538140010979 24.47168496140416138  2.21123187188965664 24.46224835042605150  2.30017339953793565 24.45247827068292423  2.38636670243949833 24.44286296527198843  2.47009182130812333 24.43377712870808693  2.55158711975051311 24.42549682886658502  2.76352090331003364 24.40607112588057603  2.89167607617508526 24.39657417838710884  3.01725673642558601 24.39060692715216661  3.14159265358993345 24.38857913481570705  3.26592857075365606 24.39060692715226608  3.39150923100381041 24.39657417838695608  3.51966440387076629 24.40607112588069683  3.76378329841057768 24.42844689372174827  3.88239502668203773 24.44091851533469040  4.00684708596636607 24.45509328018625084  4.13664688088442922 24.46986220632226505  4.27165952180101804 24.48355151370376603  4.41213597125980250 24.49419697656236750  4.55862719648964276 24.50000000000000000  4.81991766498833041 24.50000000000000000  4.92514504606325154 24.49716204226122329  5.02803431772338794 24.49169877520062499  5.12844147093297664 24.48410103702238061  5.22611673325084425 24.47505845238754318  5.32067267503478725 24.46532075163993269  5.41152188821957836 24.45555942992525189  5.60535257840377454 24.43473037941473436  5.70867403750550029 24.42362534625493709  5.80866910419429061 24.41369149606316569  5.90607562986032342 24.40539438269676609  6.00156576063361769 24.39901215445716076  6.09579384654513401 24.39470075917904168  6.18942427962613451 24.39253994857278940  6.28318530717958623 24.39253994857278940 
 0.00000000000000000 9 0.17294804999036248 7 0.30287499259033596 7 0.41391257736902742 7 0.59889491895389213 7 0.75488727225992702 7 0.86397583857541738 7 1.00000000000000000 9
7 0 0  8 51 8  0.73168105826028551 21.02500000000003411  0.73168105826028551 20.56686401464092739  0.73248717250451323 20.10998720994182420  0.73409157903547517 19.65776011986985594  0.73652083202132357 19.21415234385938930  0.73982332026451303 18.78517202883798021  0.74406051447687982 18.37977646069178306  0.74929552156946633 18.01104629243829436  0.76027399643189530 17.46478859354673574  0.76573478044338261 17.25416837378183743  0.77182322264848058 17.09035446231808208  0.77835058091104214 16.98919965957588118  0.78507758930909377 16.95934031256878782  0.79174761981372710 17.00205146874903051  0.79811675904740909 17.11104005547755591  0.80899582308534534 17.40999406785048009  0.81359677378791884 17.58465479158636668  0.81776728054169578 17.78890271924735345  0.82150303182669648 18.01664087993669128  0.82480859134279738 18.26272213593475513  0.82769403783009965 18.52277074203297502  0.83017287243688465 18.79307272427881870  0.83573900191728756 19.53271824395687517  0.83816539284412173 20.01915420182719174  0.83959759229843911 20.51900812584309364  0.84007101277748408 21.02500000000031122  0.83959759229841391 21.53099187415567428  0.83816539284416214 22.03084579817077326  0.83573900191725581 22.51728175604743143  0.82932757777901844 23.36925279899547547  0.82554438524936558 23.75534365884353960  0.82085070485316380 24.12050892838635363  0.81524159401045315 24.44740067036036280  0.80876504728844845 24.71863890609932213  0.80151910770975232 24.91692021656175271  0.79365382964684672 25.02500000000003411  0.77962481120396432 25.02500000000003411  0.77397501325947127 24.97214370313276532  0.76855220374187583 24.87038747367742531  0.76344724444891121 24.72498518224225350  0.75873584737241240 24.54241986426386291  0.75447530068608759 24.33032765226112559  0.75070103569480939 24.09742211350253172  0.74333685426397855 23.54918613177728304  0.73991305117588946 23.21954915122900687  0.73712021031196784 22.87244204191645736  0.73492509967294284 22.51340307846948718  0.73329906617802820 22.14645163423064034  0.73222127653747326 21.77456674814799342  0.73168105826028551 21.40004411021384101  0.73168105826028551 21.02500000000003411 
 0.00000000000000000 9 0.17294804999036248 7 0.30287499259033596 7 0.41391257736902742 7 0.59889491895389213 7 0.75488727225992702 7 0.86397583857541738 7 1.00000000000000000 9
1 6.28318530717958623 -0.00000000000000000 0.00000000000000000 1.00000000000000000 
1 0.00000000000000000 -0.00000000000000000 0.00000000000000000 1.00000000000000000 
1 6.28318530717958623 0.00000000000000000 0.00000000000000000 1.00000000000000000 
1 0.00000000000000000 0.00000000000000000 0.00000000000000000 1.00000000000000000 
1 0.00000000000000000 37.20800000000002683 1.00000000000000000 0.00000000000000000 
1 0.00000000000000000 0.00000000000000000 1.00000000000000000 0.00000000000000000 
1 6.28318530717958623 0.00000000000000000 0.00000000000000000 1.00000000000000000 
1 0.00000000000000000 0.00000000000000000 0.00000000000000000 1.00000000000000000 
Curves 13
2 256.97499999999996589 0.00000000000000000 0.00000000000000000 1.00000000000000000 0.00000000000000000 0.00000000000000000 -0.00000000000000000 1.00000000000000000 0.00000000000000000 0.00000000000000000 -0.00000000000000000 1.00000000000000000 55.00000000000000000
2 256.97499999999996589 0.00000000000000000 0.00000000000000000 1.00000000000000000 0.00000000000000000 0.00000000000000000 -0.00000000000000000 1.00000000000000000 0.00000000000000000 0.00000000000000000 -0.00000000000000000 1.00000000000000000 73.50000000000000000
1 296.18299999999999272 55.00000000000000000 0.00000000000000000 -1.00000000000000000 0.00000000000000000 0.00000000000000000 
2 296.18299999999999272 0.00000000000000000 0.00000000000000000 1.00000000000000000 0.00000000000000000 0.00000000000000000 -0.00000000000000000 1.00000000000000000 0.00000000000000000 0.00000000000000000 -0.00000000000000000 1.00000000000000000 55.00000000000000000
7 0 0  8 51 8  279.00000000000000000 41.61631183118512212 35.95945758169274598  278.54175286305047621 41.61631183118512212 35.95945758169274598  278.08477943386105835 41.57698061180924043 36.00497632203671827  277.63249026889786819 41.49870314140576255 36.09556630243393016  277.18886932138457269 41.37992857809895497 36.23246646027170215  276.75992647607017716 41.21777450340789528 36.41789261353674334  276.35460698555107228 41.00836693904894048 36.65446864114318970  275.98596864146145435 40.74717395030024392 36.94436346029774398  275.43987798585015980 40.19263744336543454 37.54563883902216048  275.22924303952231639 39.91490613279578525 37.84300586022703072  275.06538886760131390 39.60254824063764545 38.17203441405224140  274.96420249507616518 39.26414912388232636 38.52140176921265891  274.93432653199027982 38.91129846656274793 38.87742328530212887  274.97703961885667923 38.55748556872920574 39.22645459305294935  275.08604319199412203 38.21631748447847343 39.55634090198741148  275.41979088981611312 37.56051678458555898 40.17992649085395840  275.64991587546006713 37.25384470873056131 40.46525602678602240  275.92294678578156208 36.98225543543131266 40.71325515813866502  276.22770402981399229 36.74647210466849856 40.92534360398575188  276.55541798745201731 36.54611242474182831 41.10347703681878784  276.89923149525748158 36.38018288375963039 41.24969808031712404  277.25392755943340717 36.24741240531889730 41.36596394955682854  278.11390447413378979 36.00773130050628623 41.57495939846839406  278.62675059676388400 35.92921825902632804 41.64248448610783271  279.14562301820052426 35.90808872160916820 41.66047094930644334  279.66492356048246393 35.94331303111648168 41.63023649999293951  280.17896197611145226 36.03560021437690608 41.55095870015808401  280.68052684502509919 36.18714009868545389 41.41985524226473103  281.15928062027262513 36.40110711273732846 41.23227012543014069  281.94591419544650535 36.90248840759358728 40.78351409878357003  282.29151550875184284 37.18022990161544072 40.53245205968621434  282.60032836362853459 37.51231615668789487 40.22804714416467675  282.84508089249396789 37.89031793348710409 39.87485390985449385  283.00528020501673154 38.29955097702708144 39.48285056432621332  283.06800862471521896 38.72318158148344480 39.06577350954988503  283.02823793647559114 39.14380396734467382 38.64061019559697030  282.80278959913391645 39.79654441669570275 37.96531938760305991  282.68065763381127908 40.03092015049107033 37.71894718424294268  282.52837806520341246 40.24732568667118926 37.48806428749652042  282.35084396059517076 40.44504455224431183 37.27429541044723038  282.15264393180677871 40.62381159781656947 37.07876615389681518  281.93811998387337781 40.78370398395689023 36.90214817664256941  281.71139467375252252 40.92508794864464505 36.74468145417978349  281.19593301340222524 41.19598804655120716 36.44090567809186609  280.90111344774351210 41.31927835691089257 36.30112220473004214  280.59594949103336603 41.41990775863408203 36.18606722619816907  280.28345265684765764 41.49910762582164381 36.09496078278796460  279.96591524109146576 41.55785017665823489 36.02711599303535905  279.64515321436653039 41.59680721433709749 35.98203049639631956  279.32270490118128237 41.61631183118512212 35.95945758169273887  279.00000000000000000 41.61631183118512212 35.95945758169273887 
 0.00000000000000000 9 0.17394729167031164 7 0.30460758939725707 7 0.44448006304358700 7 0.63725608811689338 7 0.79029555146305674 7 0.88590790769821248 7 1.00000000000000000 9
2 257.97499999999996589 0.00000000000000000 0.00000000000000000 1.00000000000000000 0.00000000000000000 0.00000000000000000 -0.00000000000000000 1.00000000000000000 0.00000000000000000 0.00000000000000000 -0.00000000000000000 1.00000000000000000 74.50000000000000000
1 256.97499999999996589 73.50000000000000000 0.00000000000000000 0.70710678118654757 0.70710678118654757 0.00000000000000000 
2 296.18299999999999272 0.00000000000000000 0.00000000000000000 1.00000000000000000 0.00000000000000000 0.00000000000000000 -0.00000000000000000 1.00000000000000000 0.00000000000000000 0.00000000000000000 -0.00000000000000000 1.00000000000000000 73.50000000000000000
7 0 0  8 51 8  279.00000000000000000 55.43189659207315145 49.77504234258076110  278.54186401464090750 55.43189659207315145 49.77504234258076110  278.08498720994163023 55.39177230333839219 49.81972687415096601  277.63276011987011316 55.31191241105953793 49.90866163733571170  277.18915234385917756 55.19079602856785272 50.04314022493963421  276.76017202883792834 55.02561406663649279 50.22548410306529121  276.35477646069188040 54.81264245906638166 50.45849955456719726  275.98604629243823183 54.54764973965417596 50.74467489979333834  275.43978859354666611 53.98681848628921642 51.34000908255906381  275.22916837378210175 53.70648188393169420 51.63483843539777496  275.06535446231754349 53.39194725202149527 51.96167669161535940  274.96419965957625209 53.05214115154344512 52.30957875226419418  274.93434031256862227 52.69891250897349266 52.66514709091935487  274.97705146874903903 52.34576224030063685 53.01476687736528959  275.08604005547749694 52.00609497826523864 53.34610637227139307  275.38499406785041401 51.42244053614366806 53.90846032779743524  275.55965479158635389 51.17411793637981532 54.14474894881442424  275.76390271924719855 50.94784144583246643 54.35768005613362419  275.99164087993665362 50.74425332348635465 54.54745119920161756  276.23772213593480274 50.56345006468065151 54.71465636268887778  276.49777074203285565 50.40515659694503370 54.86010051713015656  276.76807272427879525 50.26884895678877285 54.98469804495013591  277.50771824395678777 49.96221415404347965 55.26386075507398488  277.99415420182731395 49.82785233764846566 55.38479185952260764  278.49400812584292453 49.74830351928708438 55.45590171025732218  279.00000000000028422 49.72197186127864654 55.47936563684197608  279.50599187415588176 49.74830351928807914 55.45590171025667559  280.00584579817063968 49.82785233764650457 55.38479185952424899  280.49228175604741864 49.96221415404522759 55.26386075507240037  281.34425279899545558 50.31541574284521801 54.94230328062173641  281.73034365884274166 50.52333648971987401 54.75202007017708183  282.09550892838871050 50.78041980733235050 54.51498289726040269  282.42240067035709217 51.08617176675691951 54.23011735348038087  282.69363890610145518 51.43691476743384072 53.89873395696053393  282.89192021656111820 51.82610928705955189 53.52459439528796281  283.00000000000000000 52.24455119807967662 53.11435919871589562  283.00000000000000000 52.98359224661900413 52.37531815017656811  282.94714370313283780 53.27921376677997500 52.07568315169194761  282.84538747367741962 53.56100593711745006 51.78616475498265004  282.69998518224218742 53.82451627845041031 51.51190958927451646  282.51741986426384301 54.06624019059781006 51.25739753129756338  282.30532765226109859 54.28369530687889721 51.02617122655306048  282.07242211350245498 54.47550045881300917 50.82056148106325821  281.52418613177729867 54.84843347631974098 50.41817173783321238  281.19454915122901184 55.02077690114273167 50.23012342450509493  280.84744204191633798 55.16071174298050295 50.07613999699943719  280.48840307846950282 55.27033356962079580 49.95478428010786587  280.12145163423076610 55.35136032002448303 49.86473169596962407  279.74956674814785629 55.40500715481289973 49.80498762750608677  279.37504411021382111 55.43189659207315145 49.77504234258076821  279.00000000000000000 55.43189659207315145 49.77504234258076821 
 0.00000000000000000 9 0.17294804999036248 7 0.30287499259033596 7 0.41391257736902742 7 0.59889491895389213 7 0.75488727225992702 7 0.86397583857541738 7 1.00000000000000000 9
1 279.00000000000000000 38.18376618407356204 32.52691193458118590 0.00000000000000000 0.70710678118654746 0.70710678118654757 
1 257.97499999999996589 74.50000000000000000 0.00000000000000000 1.00000000000000000 0.00000000000000000 0.00000000000000000 
2 295.18299999999999272 0.00000000000000000 0.00000000000000000 1.00000000000000000 0.00000000000000000 0.00000000000000000 -0.00000000000000000 1.00000000000000000 0.00000000000000000 0.00000000000000000 -0.00000000000000000 1.00000000000000000 74.50000000000000000
1 295.18299999999999272 74.50000000000000000 0.00000000000000000 0.70710678118654757 -0.70710678118654757 0.00000000000000000 
Polygon3D 0
PolygonOnTriangulations 0
Surfaces 7
1 256.97499999999996589 0.00000000000000000 0.00000000000000000 1.00000000000000000 0.00000000000000000 0.00000000000000000 0.00000000000000000 -1.00000000000000000 0.00000000000000000 -0.00000000000000000 -0.00000000000000000 1.00000000000000000 
2 296.18299999999999272 0.00000000000000000 0.00000000000000000 -1.00000000000000000 -0.00000000000000000 -0.00000000000000000 0.00000000000000000 1.00000000000000000 0.00000000000000000 -0.00000000000000000 -0.00000000000000000 1.00000000000000000 55.00000000000000000
3 256.97499999999996589 0.00000000000000000 0.00000000000000000 1.00000000000000000 0.00000000000000000 0.00000000000000000 -0.00000000000000000 1.00000000000000000 0.00000000000000000 0.00000000000000000 -0.00000000000000000 1.00000000000000000 73.50000000000000000
0.78539816339744839
2 279.00000000000000000 35.35533905932737042 35.35533905932737753 0.00000000000000000 0.70710678118654746 0.70710678118654757 0.00000000000000000 0.70710678118654757 -0.70710678118654746 -1.00000000000000000 0.00000000000000000 0.00000000000000000 4.00000000000000000
2 257.97499999999996589 0.00000000000000000 0.00000000000000000 1.00000000000000000 0.00000000000000000 0.00000000000000000 -0.00000000000000000 1.00000000000000000 0.00000000000000000 0.00000000000000000 -0.00000000000000000 1.00000000000000000 74.50000000000000000
1 296.18299999999999272 0.00000000000000000 0.00000000000000000 1.00000000000000000 0.00000000000000000 0.00000000000000000 -0.00000000000000000 1.00000000000000000 0.00000000000000000 0.00000000000000000 -0.00000000000000000 1.00000000000000000 
3 295.18299999999999272 0.00000000000000000 0.00000000000000000 1.00000000000000000 0.00000000000000000 0.00000000000000000 -0.00000000000000000 1.00000000000000000 0.00000000000000000 0.00000000000000000 -0.00000000000000000 1.00000000000000000 74.50000000000000000
-0.78539816339744839
Triangulations 0

TShapes 42
Ve
0.000000100000000
256.974999999999966 55.000000000000000 0.000000000000000
0 0

0101101
*
Ed
 0.000000100000000 1 1 0
1  1 0 0.000000000000000 6.283185307179586
2  1 2 0 0.000000000000000 6.283185307179586
0

0101000
+42 4 -42 4 *
Wi

0101100
+41 0 *
Ve
0.000000100000000
256.974999999999966 73.500000000000000 0.000000000000000
0 0

0101101
*
Ed
 0.000000100000000 1 1 0
1  2 0 0.000000000000000 6.283185307179586
2  2 3 0 0.000000000000000 6.283185307179586
0

0101000
+39 4 -39 4 *
Wi

0101100
-38 0 *
Fa
0  0.000000100000000 1 0

0111000
+40 0 +37 0 *
Ve
0.000000100000000
296.182999999999993 55.000000000000000 0.000000000000000
0 0

0101101
*
Ed
 0.000000100000000 1 1 0
1  3 0 0.000000000000000 39.208000000000027
3  3 4CN 2 0 0.000000000000000 39.208000000000027
0

0101000
+35 4 -42 4 *
Ed
 0.000000100000000 1 1 0
1  4 0 0.000000000000000 6.283185307179586
2  5 2 0 0.000000000000000 6.283185307179586
0

0101000
+35 4 -35 4 *
Wi

0101100
-34 2 -41 2 +34 2 +33 2 *
Ve
0.000000250780360
279.000000000000000 41.616311831185129 35.959457581692753
0 0

0101101
*
Ed
 0.000000250779360 1 1 0
1  5 0 0.000000000000000 1.000000000000000
2  6 2 2 0.000000000000000 1.000000000000000
2  7 4 0 0.000000000000000 1.000000000000000
0

0101100
+31 5 -31 5 *
Wi

0101100
+30 0 *
Fa
0  0.000000100000000 2 2

0111000
+32 0 +29 0 *
Ve
0.000000100000000
257.974999999999966 74.500000000000000 0.000000000000000
0 0

0101101
*
Ed
 0.000000100000000 1 1 0
1  6 0 0.000000000000000 6.283185307179586
2  8 3 0 0.000000000000000 6.283185307179586
2  9 5 0 0.000000000000000 6.283185307179586
0

0101000
+27 4 -27 4 *
Ed
 0.000000100000000 1 1 0
1  7 0 0.000000000000000 1.414213562373095
3  10 11CN 3 0 0.000000000000000 1.414213562373095
0

0101000
+39 4 -27 4 *
Wi

0101100
+38 0 -26 0 -25 0 +25 0 *
Fa
0  0.000000100000000 3 0

0111000
+24 0 *
Ve
0.000000100000000
296.182999999999993 73.500000000000000 0.000000000000000
0 0

0101101
*
Ed
 0.000000100000000 1 1 0
1  8 0 0.000000000000000 6.283185307179586
2  12 7 0 0.000000000000000 6.283185307179586
0

0101000
+22 4 -22 4 *
Wi

0101100
+21 0 *
Wi

0101100
-33 0 *
Fa
0  0.000000100000000 6 0

0111000
+20 0 +19 0 *
Ve
0.000000100000016
279.000000000000000 55.431896592073144 49.775042342580775
0 0

0101101
*
Ed
 0.000000100000000 1 1 0
1  9 0 0.000000000000000 1.000000000000000
2  13 4 0 0.000000000000000 1.000000000000000
2  14 5 2 0.000000000000000 1.000000000000000
0

0101100
+17 5 -17 5 *
Ed
 0.000000100000000 1 1 0
1  10 0 4.854352607609909 24.392539948572800
3  15 16CN 4 0 4.854352607609909 24.392539948572800
0

0101000
+31 5 -17 5 *
Wi

0101100
-16 0 +15 0 +30 0 -15 0 *
Fa
0  0.000000100000000 4 0

0111000
+14 0 *
Ve
0.000000100000000
295.182999999999993 74.500000000000000 0.000000000000000
0 0

0101101
*
Ed
 0.000000100000000 1 1 0
1  11 0 0.000000000000000 37.208000000000027
3  17 18CN 5 0 0.000000000000000 37.208000000000027
0

0101000
+27 4 -12 4 *
Ed
 0.000000100000000 1 1 0
1  12 0 0.000000000000000 6.283185307179586
2  19 5 0 0.000000000000000 6.283185307179586
2  20 7 0 0.000000000000000 6.283185307179586
0

0101000
+12 4 -12 4 *
Wi

0101100
-11 2 -10 2 +11 2 +26 2 *
Wi

0101100
-16 0 *
Fa
0  0.000000100000000 5 2

0111000
+9 0 +8 0 *
Ed
 0.000000100000000 1 1 0
1  13 0 0.000000000000000 1.414213562373095
3  21 22CN 7 0 0.000000000000000 1.414213562373095
0

0101000
+12 4 -22 4 *
Wi

0101100
+10 0 -21 0 -6 0 +6 0 *
Fa
0  0.000000100000000 7 0

0111000
+5 0 *
Sh

0101100
+36 2 +28 0 +23 2 +18 2 -13 0 +7 0 +4 2 *
So

0100000
+3 0 *
Co

1100000
+2 0 *

+1 1 